<svg width="64" height="64" viewBox="0 0 64 64" fill="none" xmlns="http://www.w3.org/2000/svg">
<path d="M7.81836 2.90906C6.71379 2.90906 5.81836 3.80449 5.81836 4.90906V35.5357C5.81836 37.1331 7.59865 38.0858 8.92776 37.1998L15.618 32.7396C16.2898 32.2917 17.1651 32.2917 17.8369 32.7396L24.5271 37.1998C25.8562 38.0858 27.6365 37.1331 27.6365 35.5357V4.90906C27.6365 3.80449 26.7411 2.90906 25.6365 2.90906H7.81836ZM33.0911 2.90906C32.0869 2.90906 31.2729 3.72309 31.2729 4.72724V4.72724C31.2729 5.73139 32.0869 6.54542 33.0911 6.54542H36.5456C37.6502 6.54542 38.5456 7.44085 38.5456 8.54542V19.0909C38.5456 20.1954 39.4411 21.0909 40.5456 21.0909H51.0911C52.1957 21.0909 53.0911 21.9863 53.0911 23.0909V55.4545C53.0911 56.5591 52.1957 57.4545 51.0911 57.4545H11.4547C10.3502 57.4545 9.45472 56.5591 9.45472 55.4545V44.7272C9.45472 43.7231 8.64069 42.9091 7.63654 42.9091V42.9091C6.63239 42.9091 5.81836 43.7231 5.81836 44.7272V59.0909C5.81836 60.1954 6.71379 61.0909 7.81836 61.0909H54.7275C55.832 61.0909 56.7275 60.1954 56.7275 59.0909V18.2829C56.7275 17.7525 56.5167 17.2438 56.1417 16.8687L42.7678 3.49484C42.3927 3.11977 41.884 2.90906 41.3536 2.90906H33.0911ZM16.7275 13.8181H22.113C22.9154 13.8181 23.3885 14.7141 22.9217 15.3668C19.7586 19.7897 16.0535 23.9217 11.5753 27.0141C10.8309 27.5281 9.90087 26.8172 10.1518 25.9481C11.287 22.0154 12.5319 18.0357 15.0368 14.7725C15.4803 14.3009 16.0433 13.8257 16.7275 13.8181Z" fill="url(#paint0_linear_573_32)"/>
<defs>
<linearGradient id="paint0_linear_573_32" x1="31.2729" y1="2.90906" x2="31.2729" y2="61.0909" gradientUnits="userSpaceOnUse">
<stop stop-color="#F75050"/>
<stop offset="1" stop-color="#A00909"/>
</linearGradient>
</defs>
</svg>
