<svg width="64" height="64" viewBox="0 0 64 64" fill="none" xmlns="http://www.w3.org/2000/svg">
<path d="M31.5978 13.2308C30.3286 13.2308 29.2999 14.264 29.2999 15.5385C29.2999 16.813 30.3286 17.8462 31.5978 17.8462H32.402C33.6711 17.8462 34.6999 16.813 34.6999 15.5385C34.6999 14.264 33.6711 13.2308 32.402 13.2308H31.5978ZM31.5978 23.1539C30.3286 23.1539 29.2999 24.187 29.2999 25.4616C29.2999 26.7361 30.3286 27.7693 31.5978 27.7693H32.402C33.6711 27.7693 34.6999 26.7361 34.6999 25.4616C34.6999 24.187 33.6711 23.1539 32.402 23.1539H31.5978ZM31.9999 33.077C30.5087 33.077 29.2999 34.2909 29.2999 35.7885V35.9813C29.2999 37.2562 28.4409 38.3386 27.3525 38.9949C25.2753 40.2474 23.8999 42.2991 23.8999 44.6154C23.8999 48.4116 27.5583 51.5385 31.9999 51.5385C36.4414 51.5385 40.0999 48.4116 40.0999 44.6154C40.0999 42.2984 38.7236 40.246 36.6453 38.9926C35.5577 38.3367 34.6999 37.2548 34.6999 35.9809V35.7885C34.6999 34.2909 33.4911 33.077 31.9999 33.077ZM31.9999 42.3077C33.5226 42.3077 34.6999 43.3139 34.6999 44.6154C34.6999 45.917 33.5226 46.9231 31.9999 46.9231C30.477 46.9231 29.2999 45.917 29.2999 44.6154C29.2999 43.3139 30.477 42.3077 31.9999 42.3077Z" fill="url(#paint0_linear_621_22)" stroke="url(#paint1_linear_621_22)" stroke-width="1.4"/>
<path d="M5 7.76924C5 4.58298 7.57201 2 10.7447 2H53.2553C56.428 2 59 4.58298 59 7.76924V37.993C59 38.5451 58.5526 38.9927 58.0004 38.993L54.6004 38.9945C54.0479 38.9947 53.5999 38.5469 53.5999 37.9945V12.3846C53.5999 9.19839 51.0279 6.61538 47.8553 6.61538H35.8489C35.2144 6.61538 34.7 7.13196 34.7 7.76924C34.7 8.4065 34.1856 8.92304 33.551 8.92304H30.4489C29.8144 8.92304 29.3 8.4065 29.3 7.76924C29.3 7.13196 28.7856 6.61538 28.1511 6.61538H16.1447C12.972 6.61538 10.4 9.19839 10.4 12.3846V51.6154C10.4 54.8016 12.972 57.3846 16.1447 57.3846H37C37.5523 57.3846 38 57.8323 38 58.3846V61C38 61.5523 37.5523 62 37 62H10.7447C7.57201 62 5 59.417 5 56.2308V7.76924Z" fill="url(#paint2_linear_621_22)" stroke="url(#paint3_linear_621_22)" stroke-width="1.4"/>
<path d="M53 43C51.9 43 51 43.9 51 45V51H45C43.9 51 43 51.9 43 53C43 54.1 43.9 55 45 55H51V61C51 62.1 51.9 63 53 63C54.1 63 55 62.1 55 61V55H61C62.1 55 63 54.1 63 53C63 51.9 62.1 51 61 51H55V45C55 43.9 54.1 43 53 43Z" fill="url(#paint4_linear_621_22)" stroke="url(#paint5_linear_621_22)" stroke-width="2"/>
<defs>
<linearGradient id="paint0_linear_621_22" x1="32" y1="62" x2="32" y2="2" gradientUnits="userSpaceOnUse">
<stop stop-color="#02AA93"/>
<stop offset="1" stop-color="#67FF80"/>
</linearGradient>
<linearGradient id="paint1_linear_621_22" x1="32" y1="62" x2="32" y2="2" gradientUnits="userSpaceOnUse">
<stop stop-color="#02AA93"/>
<stop offset="1" stop-color="#67FF80"/>
</linearGradient>
<linearGradient id="paint2_linear_621_22" x1="32" y1="62" x2="32" y2="2" gradientUnits="userSpaceOnUse">
<stop stop-color="#02AA93"/>
<stop offset="1" stop-color="#67FF80"/>
</linearGradient>
<linearGradient id="paint3_linear_621_22" x1="32" y1="62" x2="32" y2="2" gradientUnits="userSpaceOnUse">
<stop stop-color="#02AA93"/>
<stop offset="1" stop-color="#67FF80"/>
</linearGradient>
<linearGradient id="paint4_linear_621_22" x1="53" y1="54.8518" x2="53" y2="43" gradientUnits="userSpaceOnUse">
<stop stop-color="#5558FF"/>
<stop offset="1" stop-color="#00C0FF"/>
</linearGradient>
<linearGradient id="paint5_linear_621_22" x1="53" y1="54.8518" x2="53" y2="43" gradientUnits="userSpaceOnUse">
<stop stop-color="#5558FF"/>
<stop offset="1" stop-color="#00C0FF"/>
</linearGradient>
</defs>
</svg>
