<svg width="16" height="16" viewBox="0 0 16 16" fill="none" xmlns="http://www.w3.org/2000/svg">
<path fill-rule="evenodd" clip-rule="evenodd" d="M3.16268 3.3549L2.35637 13.0306C2.35782 13.042 2.36026 13.0574 2.36432 13.075C2.37288 13.1122 2.38495 13.1433 2.39766 13.1647C2.40851 13.1829 2.41535 13.1871 2.41834 13.1888L2.41842 13.1889C2.42049 13.1902 2.4511 13.2087 2.53934 13.2087H13.4607C13.5489 13.2087 13.5795 13.1902 13.5816 13.1889L13.5817 13.1888C13.5847 13.1871 13.5915 13.1829 13.6023 13.1647C13.615 13.1433 13.6271 13.1122 13.6357 13.075C13.6397 13.0574 13.6422 13.042 13.6436 13.0306L12.8373 3.3549H3.16268ZM1.82972 3.03532C1.87848 2.45012 2.36768 2 2.9549 2H13.0451C13.6323 2 14.1215 2.45012 14.1703 3.03532L14.9964 12.949C14.9988 12.9775 15.0015 13.0216 14.999 13.0746C14.994 13.1785 14.9669 13.5211 14.7666 13.8576C14.5375 14.2425 14.1108 14.5636 13.4607 14.5636H2.53934C1.88925 14.5636 1.46249 14.2425 1.23339 13.8576C1.03307 13.5211 1.00596 13.1785 1.00101 13.0746C0.998487 13.0216 1.0012 12.9775 1.00358 12.949L1.82972 3.03532ZM5.26966 4.6893C5.00288 4.6893 4.74703 4.79527 4.55839 4.98392C4.36974 5.17257 4.26376 5.42842 4.26376 5.6952C4.26376 5.96198 4.36974 6.21785 4.55839 6.4065C4.68086 6.52897 4.83165 6.6166 4.99537 6.66301C5.06945 6.98273 5.17672 7.35586 5.33042 7.73194C5.5358 8.23447 5.82523 8.75256 6.25809 9.16228C6.69094 9.57201 7.28491 9.86261 7.99948 9.86261C8.71406 9.86261 9.30802 9.57201 9.74089 9.16228C10.1737 8.75256 10.4632 8.23447 10.6685 7.73194C10.8222 7.35598 10.9294 6.98298 11.0035 6.66332C11.1677 6.617 11.3189 6.52925 11.4416 6.4065C11.6303 6.21785 11.7362 5.96198 11.7362 5.6952C11.7362 5.42842 11.6303 5.17257 11.4416 4.98392C11.253 4.79527 10.9971 4.6893 10.7303 4.6893C10.4635 4.6893 10.2077 4.79527 10.019 4.98392C9.8304 5.17257 9.72442 5.42842 9.72442 5.6952C9.72442 5.96198 9.8304 6.21785 10.019 6.4065C10.0602 6.44769 10.1046 6.48494 10.1516 6.518C10.0869 6.7895 9.99621 7.09973 9.87053 7.40726C9.69519 7.83624 9.45293 8.24971 9.14769 8.53864C8.84246 8.82758 8.49172 9.00272 7.99948 9.00272C7.50725 9.00272 7.15651 8.82758 6.85127 8.53864C6.54603 8.24971 6.30378 7.83624 6.12845 7.40726C6.00287 7.09997 5.91217 6.78998 5.84748 6.51863C5.89482 6.48541 5.93951 6.44795 5.98096 6.4065C6.16961 6.21785 6.27559 5.96198 6.27559 5.6952C6.27559 5.42842 6.16961 5.17257 5.98096 4.98392C5.79232 4.79527 5.53647 4.6893 5.26966 4.6893Z" fill="url(#paint0_linear)"/>
<defs>
<linearGradient id="paint0_linear" x1="8" y1="14.5636" x2="8" y2="2" gradientUnits="userSpaceOnUse">
<stop stop-color="#FD5900"/>
<stop offset="1" stop-color="#FFDE00"/>
</linearGradient>
</defs>
</svg>
