<svg width="64" height="64" viewBox="0 0 64 64" fill="none" xmlns="http://www.w3.org/2000/svg">
<path d="M10.7447 2C7.57201 2 5 4.58298 5 7.76924V56.2308C5 59.417 7.57201 62 10.7447 62H53.2553C56.428 62 59 59.417 59 56.2308V7.76924C59 4.58298 56.428 2 53.2553 2H10.7447ZM10.4 12.3846C10.4 9.19839 12.972 6.61538 16.1447 6.61538H28.1511C28.7856 6.61538 29.3 7.13196 29.3 7.76924C29.3 8.4065 29.8144 8.92304 30.4489 8.92304H33.551C34.1856 8.92304 34.7 8.4065 34.7 7.76924C34.7 7.13196 35.2144 6.61538 35.8489 6.61538H47.8553C51.0279 6.61538 53.5999 9.19839 53.5999 12.3846V51.6154C53.5999 54.8016 51.0279 57.3846 47.8553 57.3846H16.1447C12.972 57.3846 10.4 54.8016 10.4 51.6154V12.3846ZM31.5979 13.2308C30.3288 13.2308 29.3 14.264 29.3 15.5384C29.3 16.813 30.3288 17.8462 31.5979 17.8462H32.4021C33.6713 17.8462 34.7 16.813 34.7 15.5384C34.7 14.264 33.6713 13.2308 32.4021 13.2308H31.5979ZM31.5979 23.1538C30.3288 23.1538 29.3 24.187 29.3 25.4616C29.3 26.736 30.3288 27.7692 31.5979 27.7692H32.4021C33.6713 27.7692 34.7 26.736 34.7 25.4616C34.7 24.187 33.6713 23.1538 32.4021 23.1538H31.5979ZM32 33.077C30.5088 33.077 29.3 34.2909 29.3 35.7884V35.9813C29.3 37.2562 28.441 38.3385 27.3526 38.9949C25.2754 40.2474 23.9 42.2991 23.9 44.6154C23.9 48.4116 27.5584 51.5384 32 51.5384C36.4415 51.5384 40.1 48.4116 40.1 44.6154C40.1 42.2983 38.7237 40.246 36.6454 38.9925C35.5578 38.3366 34.7 37.2548 34.7 35.9809V35.7884C34.7 34.2909 33.4912 33.077 32 33.077ZM32 42.3076C33.5227 42.3076 34.7 43.3138 34.7 44.6154C34.7 45.917 33.5227 46.923 32 46.923C30.4772 46.923 29.3 45.917 29.3 44.6154C29.3 43.3138 30.4772 42.3076 32 42.3076Z" fill="url(#paint0_linear_621_22)" stroke="url(#paint1_linear_621_22)" stroke-width="1.4"/>
<defs>
<linearGradient id="paint0_linear_621_22" x1="32" y1="62" x2="32" y2="2" gradientUnits="userSpaceOnUse">
<stop stop-color="#02AA93"/>
<stop offset="1" stop-color="#67FF80"/>
</linearGradient>
<linearGradient id="paint1_linear_621_22" x1="32" y1="62" x2="32" y2="2" gradientUnits="userSpaceOnUse">
<stop stop-color="#02AA93"/>
<stop offset="1" stop-color="#67FF80"/>
</linearGradient>
</defs>
</svg>
