<svg width="32" height="32" viewBox="0 0 32 32" fill="none" xmlns="http://www.w3.org/2000/svg">
<path d="M28.875 16C28.875 23.1106 23.1106 28.875 16 28.875C8.88934 28.875 3.125 23.1106 3.125 16C3.125 8.88934 8.88934 3.125 16 3.125C23.1106 3.125 28.875 8.88934 28.875 16Z" stroke="url(#paint0_linear_622_14)" stroke-width="3"/>
<path d="M24.2837 11.0921L24.5611 11.1377L24.8274 11.0474L27.3337 10.1972C28.3426 12.0455 28.8746 14.1244 28.8746 16.2239C28.8746 17.6903 28.622 19.1288 28.124 20.5015C27.7402 21.559 26.2181 23.5593 25.5662 24.4851L26.5662 20.2781V19.8331L26.262 19.5086L23.9169 17.0075V15.7668V15.1596L23.4094 14.8264L22.711 14.3679L22.3009 14.0985L21.8244 14.216L20.5475 14.5306L19.5859 13.0593L19.3394 12.682L18.9005 12.5793L15.975 11.8948L20.7796 9.41158L21.3501 10.254L21.6216 10.6549L22.0994 10.7334L24.2837 11.0921ZM12.1285 17.8725L12.3775 18.1421L12.7376 18.2131L14.7592 18.6115L13.5922 19.7614L13.2567 20.0919V20.5628V21.4176L11.8825 22.4328L11.4259 22.77V23.3378V24.3681L9.72864 22.3619V20.1694V19.7076L9.40415 19.379L7.43979 17.3895V15.7668V15.6336L8.07601 15.6254L10.0307 15.5999L12.1285 17.8725ZM6.94202 14.3876L6.89997 14.8051L4.64316 13.3233L3.89746 11.1159C5.22871 8.12786 7.72966 5.69265 10.7877 4.41473L13.8429 6.67952L11.9295 7.42562L11.5067 7.59048L11.3166 8.00255L10.6462 9.45608L7.83135 10.8418L7.27145 11.1175L7.2089 11.7384L6.94202 14.3876Z" stroke="url(#paint1_linear_622_14)" stroke-width="3"/>
<defs>
<linearGradient id="paint0_linear_622_14" x1="14.7825" y1="29.248" x2="17.9459" y2="3.94711" gradientUnits="userSpaceOnUse">
<stop stop-color="#8D01A2"/>
<stop offset="1" stop-color="#FF33DB"/>
</linearGradient>
<linearGradient id="paint1_linear_622_14" x1="15.1896" y1="25.389" x2="17.3456" y2="4.73572" gradientUnits="userSpaceOnUse">
<stop stop-color="#8D01A2"/>
<stop offset="1" stop-color="#FF33DB"/>
</linearGradient>
</defs>
</svg>
