<svg width="24" height="24" viewBox="0 0 24 24" fill="none" xmlns="http://www.w3.org/2000/svg">
<path d="M5.88998 8.42048H1.95229C1.83233 8.42048 1.71729 8.4676 1.63247 8.55151C1.54765 8.63541 1.5 8.74919 1.5 8.86784V15.131C1.5 15.2497 1.54765 15.3635 1.63247 15.4474C1.71729 15.5313 1.83233 15.5784 1.95229 15.5784H5.88998C6.09904 15.5785 6.30161 15.6503 6.46324 15.7814L11.6345 19.9755C11.702 20.0246 11.7819 20.0543 11.8653 20.061C11.9487 20.0678 12.0324 20.0516 12.1071 20.0141C12.1817 19.9766 12.2444 19.9194 12.2881 19.8489C12.3319 19.7783 12.355 19.6971 12.3548 19.6142V4.38462C12.3548 4.30191 12.3315 4.22084 12.2877 4.15041C12.2439 4.07997 12.1812 4.02293 12.1066 3.98562C12.0319 3.94831 11.9483 3.93218 11.865 3.93904C11.7817 3.94591 11.7019 3.97549 11.6345 4.02449L6.46324 8.2186C6.30146 8.34936 6.09891 8.42069 5.88998 8.42048Z" stroke="url(#paint0_linear_621_57)" stroke-width="3" stroke-linecap="round" stroke-linejoin="round"/>
<path fill-rule="evenodd" clip-rule="evenodd" d="M21.5601 5.16497C21.2445 4.62971 20.5549 4.4516 20.0196 4.76711C19.4844 5.08264 19.3062 5.77232 19.6218 6.30756C20.6824 8.10677 21.2751 9.57094 21.2751 11.9995C21.2751 14.4224 20.6569 15.9042 19.6174 17.6988C19.306 18.2364 19.4894 18.9248 20.0271 19.2362C20.5646 19.5476 21.2529 19.3643 21.5644 18.8265C22.7274 16.8185 23.5251 14.945 23.5251 11.9995C23.5251 9.05955 22.7608 7.20195 21.5601 5.16497ZM18.877 7.90477C18.5922 7.35259 17.9137 7.13584 17.3615 7.42067C16.8093 7.70548 16.5925 8.38402 16.8774 8.93621C17.3738 9.89861 17.6567 10.8911 17.6567 11.9995C17.6567 13.0858 17.3613 14.1087 16.8739 15.0695C16.5928 15.6235 16.8141 16.3006 17.3682 16.5817C17.9223 16.8628 18.5994 16.6415 18.8805 16.0874C19.4944 14.8773 19.9067 13.5068 19.9067 11.9995C19.9067 10.4784 19.5113 9.13449 18.877 7.90477Z" fill="url(#paint1_linear_621_57)"/>
<defs>
<linearGradient id="paint0_linear_621_57" x1="6.9274" y1="20.0625" x2="6.9274" y2="3.9375" gradientUnits="userSpaceOnUse">
<stop stop-color="#02AA93"/>
<stop offset="1" stop-color="#67FF80"/>
</linearGradient>
<linearGradient id="paint1_linear_621_57" x1="20.1385" y1="19.3879" x2="20.1385" y2="4.61108" gradientUnits="userSpaceOnUse">
<stop stop-color="#02AA93"/>
<stop offset="1" stop-color="#67FF80"/>
</linearGradient>
</defs>
</svg>
