<svg width="64" height="64" viewBox="0 0 64 64" fill="none" xmlns="http://www.w3.org/2000/svg">
<path d="M28.9259 21.3447H17.3317C16.9785 21.3447 16.6398 21.4849 16.39 21.7347C16.1403 21.9845 16 22.3232 16 22.6763V41.3203C16 41.6735 16.1403 42.0123 16.39 42.262C16.6398 42.5117 16.9785 42.652 17.3317 42.652H28.9259C29.5415 42.6523 30.138 42.8659 30.6139 43.2563L45.8403 55.741C46.0388 55.8873 46.274 55.9754 46.5197 55.9955C46.7653 56.0156 47.0118 55.9676 47.2316 55.856C47.4514 55.7444 47.636 55.5741 47.7648 55.3643C47.8936 55.1539 47.9615 54.9122 47.9611 54.6655V9.33095C47.9609 9.08476 47.8925 8.84342 47.7635 8.63378C47.6345 8.42409 47.4499 8.2543 47.2301 8.14323C47.0104 8.03216 46.7642 7.98416 46.5188 8.00459C46.2735 8.02502 46.0386 8.11309 45.8403 8.25894L30.6139 20.7437C30.1375 21.133 29.5411 21.3453 28.9259 21.3447Z" stroke="url(#paint0_linear_621_178)" stroke-width="10" stroke-linecap="round" stroke-linejoin="round"/>
<defs>
<linearGradient id="paint0_linear_621_178" x1="46.8813" y1="9.37198" x2="22.8875" y2="49.4884" gradientUnits="userSpaceOnUse">
<stop stop-color="#FE0F7C"/>
<stop offset="1" stop-color="#DF0066"/>
</linearGradient>
</defs>
</svg>
