<svg width="128" height="128" viewBox="0 0 128 128" fill="none" xmlns="http://www.w3.org/2000/svg">
<path fill-rule="evenodd" clip-rule="evenodd" d="M104.849 15.9427C107.642 14.1598 111.352 14.9788 113.135 17.772C121.694 31.1822 127 44.2482 127 64.0771C127 83.8783 121.712 97.231 113.103 110.431C111.293 113.207 107.575 113.99 104.8 112.18C102.024 110.369 101.241 106.652 103.051 103.876C110.596 92.3079 115 81.1983 115 64.0771C115 46.9838 110.614 36.1259 103.02 24.2284C101.237 21.4352 102.056 17.7256 104.849 15.9427ZM100.335 30.8984C98.6649 28.0366 94.9907 27.071 92.1289 28.7416C89.2671 30.4122 88.3015 34.0865 89.9721 36.9482C94.9844 45.5343 97.7692 52.5165 97.7692 64.0772C97.7692 75.6091 94.8642 82.6874 89.9508 91.243C88.3005 94.1165 89.2922 97.7838 92.1657 99.434C95.0393 101.084 98.7066 100.092 100.357 97.2191C105.933 87.51 109.769 78.359 109.769 64.0772C109.769 49.824 106.092 40.76 100.335 30.8984ZM87.5744 44.1173C86.0672 41.1662 82.453 39.9957 79.5019 41.5029C76.5508 43.0101 75.3803 46.6243 76.8875 49.5754C79.2155 54.1336 80.5387 58.8419 80.5387 64.0771C80.5387 69.2047 79.1569 74.0631 76.8699 78.6135C75.3819 81.5744 76.5758 85.1809 79.5366 86.6689C82.4974 88.157 86.1039 86.963 87.592 84.0022C90.5496 78.1173 92.5387 71.4203 92.5387 64.0771C92.5387 56.6692 90.631 50.1022 87.5744 44.1173ZM66.7299 15.9C65.3462 15.2017 63.796 14.9003 62.2514 15.0294C60.7067 15.1584 59.2281 15.7129 57.9794 16.6313C57.8958 16.6928 57.8138 16.7565 57.7335 16.8223L30.7836 38.8872H10.3891C8.16421 38.8872 6.03039 39.771 4.45712 41.3443C2.88385 42.9176 2 45.0514 2 47.2763V80.7241C2 82.9491 2.88385 85.0829 4.45712 86.6561C6.03039 88.2294 8.16421 89.1133 10.3891 89.1133H30.7836L57.7335 111.178C57.8138 111.244 57.8958 111.307 57.9794 111.369C59.2281 112.287 60.7067 112.842 62.2514 112.971C63.796 113.1 65.3462 112.799 66.7299 112.1C68.1136 111.402 69.2769 110.334 70.0905 109.014C70.9041 107.695 71.3363 106.176 71.3391 104.626V104.615V23.385V23.3741C71.3363 21.8241 70.9041 20.3051 70.0905 18.9859C69.2769 17.6665 68.1137 16.5984 66.7299 15.9ZM38.0467 48.4495L59.3391 31.0166V96.9838L38.0187 79.528L37.9892 79.504C36.0597 77.9446 33.6508 77.1002 31.1706 77.1133H14V50.8872H31.2766C33.7505 50.8991 36.1487 50.0355 38.0467 48.4495Z" fill="url(#paint0_linear)"/>
<defs>
<linearGradient id="paint0_linear" x1="64.5" y1="113.155" x2="64.5" y2="14.9995" gradientUnits="userSpaceOnUse">
<stop stop-color="#FD3A84"/>
<stop offset="1" stop-color="#FFA68D"/>
</linearGradient>
</defs>
</svg>
