<svg width="24" height="24" viewBox="0 0 24 24" fill="none" xmlns="http://www.w3.org/2000/svg">
<path d="M11.7426 2.00294C8.79869 2.0807 6.18808 3.42488 4.41065 5.51336L2.94427 4.05809C2.86596 3.98133 2.76667 3.92946 2.65893 3.90903C2.55119 3.8886 2.43981 3.90052 2.33883 3.94329C2.23785 3.98605 2.15179 4.05776 2.09149 4.14936C2.0312 4.24096 1.99937 4.34835 2.00001 4.45801V9.22375C2.00001 9.5348 2.24441 9.7792 2.55546 9.7792H7.3212C7.8211 9.7792 8.06549 9.17932 7.71001 8.83494L5.98812 7.10194C7.42118 5.35784 9.57631 4.22473 11.9981 4.22473C16.7971 4.22473 20.5964 8.60165 19.6188 13.5674C19.0189 16.6445 16.4972 19.0996 13.42 19.6439C9.19861 20.3994 5.44378 17.711 4.4773 13.9117C4.344 13.4452 3.89964 13.1119 3.41085 13.1119C2.68876 13.1119 2.14443 13.7895 2.32217 14.4783C3.42195 18.7997 7.3323 21.999 11.9981 21.999C17.6192 21.999 22.1516 17.3666 21.9961 11.7122C21.8406 6.29099 17.1637 1.86963 11.7426 2.00294Z" fill="url(#paint0_linear_622_2)" stroke="url(#paint1_linear_622_2)" stroke-width="0.6"/>
<path d="M11.9982 8.44629C11.9982 7.894 11.5504 7.44629 10.9982 7.44629H10.7764C10.2241 7.44629 9.77637 7.894 9.77637 8.44629V14.2226C9.77637 14.7748 10.2241 15.2226 10.7764 15.2226H16.5526C17.1049 15.2226 17.5526 14.7748 17.5526 14.2226V14.0008C17.5526 13.4485 17.1049 13.0008 16.5526 13.0008H12.5982C12.2668 13.0008 11.9982 12.7321 11.9982 12.4008V8.44629Z" fill="url(#paint2_linear_622_2)" stroke="url(#paint3_linear_622_2)" stroke-width="0.6"/>
<defs>
<linearGradient id="paint0_linear_622_2" x1="3.2028" y1="16.3753" x2="21.6094" y2="11.8355" gradientUnits="userSpaceOnUse">
<stop stop-color="#F5F013"/>
<stop offset="1" stop-color="#F9A60D"/>
</linearGradient>
<linearGradient id="paint1_linear_622_2" x1="3.2028" y1="16.3753" x2="21.6094" y2="11.8355" gradientUnits="userSpaceOnUse">
<stop stop-color="#F5F013"/>
<stop offset="1" stop-color="#F9A60D"/>
</linearGradient>
<linearGradient id="paint2_linear_622_2" x1="13.6645" y1="15.2226" x2="13.6645" y2="7.44629" gradientUnits="userSpaceOnUse">
<stop stop-color="#FFA800"/>
<stop offset="1" stop-color="#FFF737"/>
</linearGradient>
<linearGradient id="paint3_linear_622_2" x1="13.6645" y1="15.2226" x2="13.6645" y2="7.44629" gradientUnits="userSpaceOnUse">
<stop stop-color="#FFA800"/>
<stop offset="1" stop-color="#FFF737"/>
</linearGradient>
</defs>
</svg>
