<svg width="16" height="16" viewBox="0 0 16 16" fill="none" xmlns="http://www.w3.org/2000/svg">
<g clip-path="url(#clip0)">
<path d="M11.05 8C10.8015 8 10.6 8.20147 10.6 8.45V12.665C10.6 13.0112 10.2567 13.2526 9.93091 13.1356L7.44613 12.2426C7.41996 12.2332 7.39461 12.2217 7.37036 12.208L7.24514 12.1377C7.09292 12.0522 6.90713 12.0523 6.75499 12.1379L6.63176 12.2073C6.6073 12.2211 6.58172 12.2328 6.55529 12.2422L4.06881 13.1341C3.74308 13.2509 3.4 13.0095 3.4 12.6635V2.5C3.4 2.22386 3.62386 2 3.9 2H7.4C7.67614 2 7.9 1.77614 7.9 1.5V1.5C7.9 1.22386 7.67614 1 7.4 1H3.4C3.16131 1 2.93239 1.10536 2.7636 1.29289C2.59482 1.48043 2.5 1.73478 2.5 2V14.2306C2.5 14.5924 2.87243 14.8345 3.20307 14.6875L6.79693 13.0903C6.92621 13.0328 7.07379 13.0328 7.20307 13.0903L10.7969 14.6875C11.1276 14.8345 11.5 14.5924 11.5 14.2306V8.45C11.5 8.20147 11.2985 8 11.05 8V8Z" fill="url(#paint0_linear)" stroke="url(#paint1_linear)" stroke-width="0.5"/>
<path d="M11.2477 2.61628C11.1305 2.73344 10.9406 2.73344 10.8234 2.61628L9.83345 1.62633C9.7163 1.50918 9.52635 1.50918 9.40919 1.62633L9.12635 1.90918C9.00919 2.02633 9.00919 2.21628 9.12635 2.33344L10.1163 3.32339C10.2335 3.44055 10.2335 3.6305 10.1163 3.74765L9.12635 4.7376C9.00919 4.85476 9.00919 5.04471 9.12635 5.16187L9.40919 5.44471C9.52635 5.56187 9.7163 5.56187 9.83345 5.44471L10.8234 4.45476C10.9406 4.3376 11.1305 4.3376 11.2477 4.45476L12.2376 5.44471C12.3548 5.56187 12.5447 5.56187 12.6619 5.44471L12.9447 5.16187C13.0619 5.04471 13.0619 4.85476 12.9447 4.7376L11.9548 3.74765C11.8376 3.6305 11.8376 3.44055 11.9548 3.32339L12.9447 2.33344C13.0619 2.21628 13.0619 2.02633 12.9447 1.90918L12.6619 1.62633C12.5447 1.50918 12.3548 1.50918 12.2376 1.62633L11.2477 2.61628Z" fill="url(#paint2_linear)" stroke="url(#paint3_linear)" stroke-width="0.4"/>
</g>
<defs>
<linearGradient id="paint0_linear" x1="7" y1="15" x2="7" y2="1" gradientUnits="userSpaceOnUse">
<stop stop-color="#FD3A84"/>
<stop offset="1" stop-color="#FFA68D"/>
</linearGradient>
<linearGradient id="paint1_linear" x1="7" y1="15" x2="7" y2="1" gradientUnits="userSpaceOnUse">
<stop stop-color="#FD3A84"/>
<stop offset="1" stop-color="#FFA68D"/>
</linearGradient>
<linearGradient id="paint2_linear" x1="12.8033" y1="5.30329" x2="9.26777" y2="1.76776" gradientUnits="userSpaceOnUse">
<stop stop-color="#FD3A84"/>
<stop offset="1" stop-color="#FFA68D"/>
</linearGradient>
<linearGradient id="paint3_linear" x1="12.8033" y1="5.30329" x2="9.26777" y2="1.76776" gradientUnits="userSpaceOnUse">
<stop stop-color="#FD3A84"/>
<stop offset="1" stop-color="#FFA68D"/>
</linearGradient>
<clipPath id="clip0">
<rect width="16" height="16" fill="white"/>
</clipPath>
</defs>
</svg>
