<svg width="64" height="64" viewBox="0 0 64 64" fill="none" xmlns="http://www.w3.org/2000/svg">
<path d="M44.304 41.5472L47.7487 38.157C48.2868 37.6274 49.2233 37.9982 49.2233 38.7609V54.1648C49.2233 56.9723 46.909 59.25 44.0566 59.25H6.16675C3.31428 59.25 1 56.9723 1 54.1648V16.8733C1 14.0659 3.31428 11.7881 6.16675 11.7881H35.6066C36.3709 11.7881 36.7584 12.6993 36.2202 13.2396L32.7758 16.6298C32.6142 16.7886 32.399 16.8733 32.1622 16.8733H6.16675V54.1648H44.0566V42.1405C44.0566 41.918 44.1426 41.706 44.304 41.5472ZM61.1607 20.1682L32.8941 47.9885L23.1633 49.0478C20.3432 49.355 17.9427 47.0137 18.2548 44.2169L19.3313 34.6399L47.5979 6.81958C50.0629 4.39347 54.0455 4.39347 56.4998 6.81958L61.1499 11.3963C63.6149 13.8223 63.6149 17.7527 61.1607 20.1682ZM50.5257 23.4418L44.2718 17.2866L24.272 36.9811L23.4862 43.899L30.5152 43.1257L50.5257 23.4418ZM57.5008 14.9982L52.8507 10.4216C52.4095 9.98712 51.6882 9.98712 51.2577 10.4216L47.9317 13.6952L54.1855 19.8503L57.5117 16.5767C57.9422 16.1319 57.9422 15.4326 57.5008 14.9982Z" fill="url(#paint0_linear_621_104)"/>
<defs>
<linearGradient id="paint0_linear_621_104" x1="1.00909" y1="31.3211" x2="63.0103" y2="31.3211" gradientUnits="userSpaceOnUse">
<stop stop-color="#A93AFF"/>
<stop offset="1" stop-color="#FF81FF"/>
</linearGradient>
</defs>
</svg>
