<svg width="16" height="16" viewBox="0 0 16 16" fill="none" xmlns="http://www.w3.org/2000/svg">
<path d="M5.6 1C4.27457 1 3.2 2.04472 3.2 3.33333V5.66667V6.83333C3.2 7.15551 2.93137 7.41667 2.6 7.41667H2.5C2.22386 7.41667 2 7.64052 2 7.91667V8.08333C2 8.35948 2.22386 8.58333 2.5 8.58333H2.6C2.93137 8.58333 3.2 8.84449 3.2 9.16667V10.3333V11.5V12.6667C3.2 13.9554 4.27452 15 5.6 15H6.3C6.57614 15 6.8 14.7761 6.8 14.5V14.3333C6.8 14.0572 6.57614 13.8333 6.3 13.8333H5.6C4.93726 13.8333 4.4 13.311 4.4 12.6667V11.5V10.3333V9.16667C4.4 8.88272 4.33233 8.61294 4.21024 8.37462C4.09216 8.14413 4.09216 7.85587 4.21024 7.62538C4.33233 7.38706 4.4 7.11728 4.4 6.83333V5.66667V5.33854V3.33333C4.4 2.68898 4.93733 2.16667 5.6 2.16667H6.3C6.57614 2.16667 6.8 1.94281 6.8 1.66667V1.5C6.8 1.22386 6.57614 1 6.3 1H5.6ZM9.7 1C9.42386 1 9.2 1.22386 9.2 1.5V1.66667C9.2 1.94281 9.42386 2.16667 9.7 2.16667H10.4C11.0627 2.16667 11.6 2.68898 11.6 3.33333V5.33854V5.66667V6.83333C11.6 7.11728 11.6677 7.38706 11.7898 7.62538C11.9078 7.85587 11.9078 8.14413 11.7898 8.37462C11.6677 8.61294 11.6 8.88272 11.6 9.16667V10.3333V11.5V12.6667C11.6 13.311 11.0627 13.8333 10.4 13.8333H9.7C9.42386 13.8333 9.2 14.0572 9.2 14.3333V14.5C9.2 14.7761 9.42386 15 9.7 15H10.4C11.7255 15 12.8 13.9554 12.8 12.6667V11.5V10.3333V9.16667C12.8 8.84449 13.0686 8.58333 13.4 8.58333H13.5C13.7761 8.58333 14 8.35948 14 8.08333V7.91667C14 7.64052 13.7761 7.41667 13.5 7.41667H13.4C13.0686 7.41667 12.8 7.15551 12.8 6.83333V5.66667V3.33333C12.8 2.04472 11.7254 1 10.4 1H9.7Z" fill="url(#paint0_linear_625_52)" stroke="url(#paint1_linear_625_52)" stroke-width="0.6"/>
<defs>
<linearGradient id="paint0_linear_625_52" x1="14" y1="8.12281" x2="4.94584" y2="8.99018" gradientUnits="userSpaceOnUse">
<stop stop-color="#BE41B4"/>
<stop offset="1" stop-color="#FE1FE8"/>
</linearGradient>
<linearGradient id="paint1_linear_625_52" x1="14" y1="8.12281" x2="4.94584" y2="8.99018" gradientUnits="userSpaceOnUse">
<stop stop-color="#BE41B4"/>
<stop offset="1" stop-color="#FE1FE8"/>
</linearGradient>
</defs>
</svg>
