<svg width="24" height="24" viewBox="0 0 24 24" fill="none" xmlns="http://www.w3.org/2000/svg">
<path d="M12.625 4C11.3964 4 10.3389 4.70143 9.82814 5.72753C9.61592 6.15388 9.22089 6.5 8.74464 6.5H2.625C2.27982 6.5 2 6.77982 2 7.125C2 7.47018 2.27982 7.75 2.625 7.75H8.74464C9.22089 7.75 9.61592 8.09612 9.82814 8.52247C10.3389 9.54857 11.3964 10.25 12.625 10.25C13.8536 10.25 14.9111 9.54857 15.4219 8.52247C15.6341 8.09612 16.0291 7.75 16.5054 7.75H21.375C21.7202 7.75 22 7.47018 22 7.125C22 6.77982 21.7202 6.5 21.375 6.5H16.5054C16.0291 6.5 15.6341 6.15388 15.4219 5.72753C14.9111 4.70143 13.8536 4 12.625 4ZM5.125 14.75C3.39375 14.75 2 16.1438 2 17.875C2 19.6062 3.39375 21 5.125 21C6.35356 21 7.41109 20.2986 7.92186 19.2725C8.13408 18.8461 8.52911 18.5 9.00536 18.5H21.375C21.7202 18.5 22 18.2202 22 17.875C22 17.5298 21.7202 17.25 21.375 17.25H9.00536C8.52911 17.25 8.13408 16.9039 7.92186 16.4775C7.41109 15.4514 6.35356 14.75 5.125 14.75ZM5.125 16C6.16375 16 7 16.8363 7 17.875C7 18.9137 6.16375 19.75 5.125 19.75C4.08625 19.75 3.25 18.9137 3.25 17.875C3.25 16.8363 4.08625 16 5.125 16Z" fill="url(#paint0_linear_621_35)" stroke="url(#paint1_linear_621_35)" stroke-width="2"/>
<defs>
<linearGradient id="paint0_linear_621_35" x1="11.1303" y1="20.5434" x2="12.7699" y2="5.11628" gradientUnits="userSpaceOnUse">
<stop stop-color="#8D01A2"/>
<stop offset="1" stop-color="#FF33DB"/>
</linearGradient>
<linearGradient id="paint1_linear_621_35" x1="11.1303" y1="20.5434" x2="12.7699" y2="5.11628" gradientUnits="userSpaceOnUse">
<stop stop-color="#8D01A2"/>
<stop offset="1" stop-color="#FF33DB"/>
</linearGradient>
</defs>
</svg>
