<svg width="16" height="16" viewBox="0 0 16 16" fill="none" xmlns="http://www.w3.org/2000/svg">
<path d="M12.6667 1H3.33333C2.04467 1 1 2.04467 1 3.33333V12.6667C1 13.9553 2.04467 15 3.33333 15H12.6667C13.9553 15 15 13.9553 15 12.6667V3.33333C15 2.04467 13.9553 1 12.6667 1Z" fill="url(#paint0_linear)"/>
<path d="M7.33334 3.33337C7.0572 3.33337 6.83334 3.55723 6.83334 3.83337V5.16671C6.83334 5.44285 7.0572 5.66671 7.33334 5.66671H8.66668C8.94282 5.66671 9.16668 5.44285 9.16668 5.16671V3.83337C9.16668 3.55723 8.94282 3.33337 8.66668 3.33337H7.33334ZM7.33334 6.83337C7.0572 6.83337 6.83334 7.05723 6.83334 7.33337V12.1667C6.83334 12.4428 7.0572 12.6667 7.33334 12.6667H8.66668C8.94282 12.6667 9.16668 12.4428 9.16668 12.1667V7.33337C9.16668 7.05723 8.94282 6.83337 8.66668 6.83337H7.33334Z" fill="white"/>
<defs>
<linearGradient id="paint0_linear" x1="8" y1="15" x2="8" y2="1" gradientUnits="userSpaceOnUse">
<stop stop-color="#5570FF"/>
<stop offset="1" stop-color="#4DD3FF"/>
</linearGradient>
</defs>
</svg>
