<svg width="16" height="16" viewBox="0 0 16 16" fill="none" xmlns="http://www.w3.org/2000/svg">
<g clip-path="url(#clip0_621_111)">
<path d="M2 1C1.44772 1 1 1.44772 1 2V14C1 14.5523 1.44772 15 2 15H14C14.5523 15 15 14.5523 15 14V2C15 1.44772 14.5523 1 14 1H2ZM2.16667 3.16667C2.16667 2.61438 2.61438 2.16667 3.16667 2.16667H12.8333C13.3856 2.16667 13.8333 2.61438 13.8333 3.16667V12.8333C13.8333 13.3856 13.3856 13.8333 12.8333 13.8333H3.16667C2.61438 13.8333 2.16667 13.3856 2.16667 12.8333V3.16667ZM4.57349 3.76031C4.35223 3.52508 3.98165 3.51529 3.74828 3.73851C3.51829 3.9585 3.50797 4.32253 3.72512 4.55519L5.7628 6.73842C6.11983 7.12095 6.1216 7.71403 5.76687 8.09868L3.74064 10.2958C3.53344 10.5205 3.54048 10.8686 3.75659 11.0847C3.98386 11.312 4.35405 11.3063 4.57426 11.0722L7.63542 7.81771C7.84214 7.59031 7.84214 7.24302 7.63542 7.01562L4.57349 3.76031ZM8.58333 10.5C8.26117 10.5 8 10.7612 8 11.0833C8 11.4055 8.26117 11.6667 8.58333 11.6667H12.0833C12.4055 11.6667 12.6667 11.4055 12.6667 11.0833C12.6667 10.7612 12.4055 10.5 12.0833 10.5H8.58333Z" fill="url(#paint0_linear_621_111)" stroke="url(#paint1_linear_621_111)" stroke-width="0.6"/>
</g>
<defs>
<linearGradient id="paint0_linear_621_111" x1="14.527" y1="1.40016" x2="9.06638" y2="15.1117" gradientUnits="userSpaceOnUse">
<stop stop-color="#FE0F7C"/>
<stop offset="1" stop-color="#DF0066"/>
</linearGradient>
<linearGradient id="paint1_linear_621_111" x1="14.527" y1="1.40016" x2="9.06638" y2="15.1117" gradientUnits="userSpaceOnUse">
<stop stop-color="#FE0F7C"/>
<stop offset="1" stop-color="#DF0066"/>
</linearGradient>
<clipPath id="clip0_621_111">
<rect width="16" height="16" fill="white"/>
</clipPath>
</defs>
</svg>
