<svg width="16" height="16" viewBox="0 0 16 16" fill="none" xmlns="http://www.w3.org/2000/svg">
<path fill-rule="evenodd" clip-rule="evenodd" d="M9 4.4C9 4.17909 9.17909 4 9.4 4H9.7783C10.0925 4 10.284 3.65442 10.1175 3.388L8.3392 0.542718C8.18253 0.292051 7.81747 0.292052 7.6608 0.542719L5.8825 3.388C5.71599 3.65442 5.90752 4 6.2217 4H6.6C6.82091 4 7 4.17909 7 4.4V8.6C7 8.82091 6.82091 9 6.6 9H4.4C4.17909 9 4 8.82091 4 8.6V7.96301C4 7.82009 4.0782 7.69055 4.1929 7.60531C4.27078 7.54744 4.34479 7.48364 4.41421 7.41421C4.78929 7.03914 5 6.53043 5 6C5 5.46957 4.78929 4.96086 4.41421 4.58579C4.03914 4.21071 3.53043 4 3 4C2.46957 4 1.96086 4.21071 1.58579 4.58579C1.21071 4.96086 1 5.46957 1 6C1 6.53043 1.21071 7.03914 1.58579 7.41421C1.65521 7.48364 1.72922 7.54744 1.80709 7.60531C1.9218 7.69055 2 7.82009 2 7.963V9C2 9 2 9 2 9C2 9 2 11 4 11H6.6C6.82091 11 7 11.1791 7 11.4V12.037C7 12.1799 6.9218 12.3095 6.8071 12.3947C6.72922 12.4526 6.65521 12.5164 6.58579 12.5858C6.21071 12.9609 6 13.4696 6 14C6 14.5304 6.21071 15.0391 6.58579 15.4142C6.96086 15.7893 7.46957 16 8 16C8.53043 16 9.03914 15.7893 9.41421 15.4142C9.78929 15.0391 10 14.5304 10 14C10 13.4696 9.78929 12.9609 9.41421 12.5858C9.34479 12.5164 9.27078 12.4526 9.1929 12.3947C9.0782 12.3095 9 12.1799 9 12.037V11.4C9 11.1791 9.17909 11 9.4 11H12C14 11 14 9 14 9C14 9 14 9 14 9V8.4C14 8.17909 14.1834 7.99942 14.3905 7.92244C14.6711 7.81813 15 7.57354 15 7V5C15 4 14 4 14 4C14 4 14 4 14 4H12C12 4 12 4 12 4C12 4 11 4 11 5V7C11 7.57354 11.3289 7.81813 11.6095 7.92244C11.8166 7.99942 12 8.17909 12 8.4V8.6C12 8.82091 11.8209 9 11.6 9H9.4C9.17909 9 9 8.82091 9 8.6V4.4Z" fill="url(#paint0_linear_622_46)"/>
<defs>
<linearGradient id="paint0_linear_622_46" x1="8.02021" y1="12.764" x2="9.57195" y2="1.20162" gradientUnits="userSpaceOnUse">
<stop stop-color="#B400CF"/>
<stop offset="1" stop-color="#339DFF"/>
</linearGradient>
</defs>
</svg>
