<svg width="24" height="24" viewBox="0 0 24 24" fill="none" xmlns="http://www.w3.org/2000/svg">
<path fill-rule="evenodd" clip-rule="evenodd" d="M20.828 17.828C19.657 19 17.771 19 14 19C12.764 19 11.402 19.5 10.159 20.145L10.1539 20.1476C8.1593 21.1829 7.16158 21.7007 6.67 21.37C6.25962 21.0948 6.25624 20.336 6.37493 18.9028L6 18.898C4.7 18.771 3.825 18.482 3.172 17.828C2 16.657 2 14.771 2 11C2 7.229 2 5.343 3.172 4.172C4.343 3 6.229 3 10 3H14C17.771 3 19.657 3 20.828 4.172C22 5.343 22 7.229 22 11C22 14.771 22 16.657 20.828 17.828Z" fill="url(#paint0_linear)"/>
<path d="M20.828 17.828L20.1212 17.1206L20.1206 17.1212L20.828 17.828ZM10.159 20.145L9.69841 19.2574L9.69826 19.2575L10.159 20.145ZM10.1539 20.1476L10.6146 21.0352L10.6146 21.0352L10.1539 20.1476ZM6.67 21.37L7.2282 20.5403L7.22703 20.5395L6.67 21.37ZM6.37493 18.9028L7.37152 18.9853L7.46002 17.9165L6.38767 17.9029L6.37493 18.9028ZM6 18.898L5.90277 19.8933L5.94491 19.8974L5.98725 19.8979L6 18.898ZM3.172 17.828L3.87965 17.1214L3.8788 17.1206L3.172 17.828ZM3.172 4.172L3.87881 4.87941L3.87941 4.8788L3.172 4.172ZM20.828 4.172L20.1206 4.8788L20.1212 4.87941L20.828 4.172ZM14 20C15.8572 20 17.3509 20.0021 18.5223 19.8446C19.7224 19.6832 20.7331 19.3378 21.5354 18.5348L20.1206 17.1212C19.7519 17.4902 19.2341 17.7308 18.2557 17.8624C17.2486 17.9979 15.9138 18 14 18V20ZM14 18C12.5245 18 10.9911 18.5866 9.69841 19.2574L10.6196 21.0326C11.8129 20.4134 13.0035 20 14 20V18ZM9.69826 19.2575L9.69317 19.2601L10.6146 21.0352L10.6197 21.0325L9.69826 19.2575ZM9.69324 19.2601C8.67294 19.7896 7.98332 20.1459 7.48635 20.3389C7.23993 20.4345 7.10666 20.463 7.04769 20.4685C7.00189 20.4728 7.10088 20.4546 7.22819 20.5403L6.1118 22.1997C6.4849 22.4507 6.89295 22.4919 7.23482 22.4597C7.5635 22.4288 7.8965 22.3251 8.21028 22.2032C8.83372 21.9612 9.64027 21.5409 10.6146 21.0352L9.69324 19.2601ZM7.22703 20.5395C7.41278 20.6641 7.35021 20.8071 7.31981 20.4785C7.29173 20.175 7.31144 19.7108 7.37152 18.9853L5.37834 18.8203C5.31973 19.528 5.28178 20.1597 5.32832 20.6627C5.37253 21.1407 5.51684 21.8007 6.11296 22.2005L7.22703 20.5395ZM5.98725 19.8979L6.36218 19.9027L6.38767 17.9029L6.01275 17.8981L5.98725 19.8979ZM2.46435 18.5346C3.35989 19.4315 4.51466 19.7577 5.90277 19.8933L6.09723 17.9027C4.88534 17.7843 4.29011 17.5325 3.87965 17.1214L2.46435 18.5346ZM1 11C1 12.8572 0.997875 14.3509 1.15542 15.5223C1.31684 16.7224 1.66218 17.7331 2.4652 18.5354L3.8788 17.1206C3.50982 16.7519 3.26916 16.2341 3.13758 15.2557C3.00213 14.2486 3 12.9138 3 11H1ZM2.46519 3.46459C1.66218 4.26692 1.31684 5.27755 1.15542 6.4777C0.997875 7.64911 1 9.14278 1 11H3C3 9.08622 3.00213 7.7514 3.13758 6.7443C3.26916 5.76595 3.50982 5.24808 3.8788 4.87941L2.46519 3.46459ZM10 2C8.14278 2 6.64911 1.99787 5.4777 2.15542C4.27755 2.31684 3.26692 2.66218 2.46459 3.46519L3.87941 4.8788C4.24808 4.50982 4.76595 4.26916 5.7443 4.13758C6.7514 4.00213 8.08622 4 10 4V2ZM14 2H10V4H14V2ZM21.5354 3.4652C20.7331 2.66218 19.7224 2.31684 18.5223 2.15542C17.3509 1.99787 15.8572 2 14 2V4C15.9138 4 17.2486 4.00213 18.2557 4.13758C19.2341 4.26916 19.7519 4.50982 20.1206 4.8788L21.5354 3.4652ZM23 11C23 9.14278 23.0021 7.6491 22.8446 6.4777C22.6832 5.27755 22.3378 4.26692 21.5348 3.46459L20.1212 4.87941C20.4902 5.24808 20.7308 5.76595 20.8624 6.7443C20.9979 7.7514 21 9.08622 21 11H23ZM21.5348 18.5354C22.3378 17.7331 22.6832 16.7224 22.8446 15.5223C23.0021 14.3509 23 12.8572 23 11H21C21 12.9138 20.9979 14.2486 20.8624 15.2557C20.7308 16.2341 20.4902 16.7519 20.1212 17.1206L21.5348 18.5354Z" fill="url(#paint1_linear)"/>
<path d="M11 6C10.7239 6 10.5 6.22386 10.5 6.5V11.2143C10.5 11.4904 10.7239 11.7143 11 11.7143H13C13.2761 11.7143 13.5 11.4904 13.5 11.2143V6.5C13.5 6.22386 13.2761 6 13 6H11ZM11 13.1429C10.7239 13.1429 10.5 13.3667 10.5 13.6429V15.5C10.5 15.7761 10.7239 16 11 16H13C13.2761 16 13.5 15.7761 13.5 15.5V13.6429C13.5 13.3667 13.2761 13.1429 13 13.1429H11Z" fill="white"/>
<defs>
<linearGradient id="paint0_linear" x1="12" y1="21.4693" x2="12" y2="3" gradientUnits="userSpaceOnUse">
<stop stop-color="#5570FF"/>
<stop offset="1" stop-color="#4DD3FF"/>
</linearGradient>
<linearGradient id="paint1_linear" x1="12" y1="21.4693" x2="12" y2="3" gradientUnits="userSpaceOnUse">
<stop stop-color="#5570FF"/>
<stop offset="1" stop-color="#4DD3FF"/>
</linearGradient>
</defs>
</svg>
