<svg width="64" height="64" viewBox="0 0 64 64" fill="none" xmlns="http://www.w3.org/2000/svg">
<path d="M56.3877 8.11653C54.8256 6.55442 52.293 6.55442 50.7309 8.11652L23.7776 35.0698C22.2155 36.6319 19.6828 36.6319 18.1207 35.0698L13.2013 30.1504C11.6392 28.5883 9.10658 28.5883 7.54448 30.1504L2.82844 34.8664C1.26633 36.4285 1.26633 38.9612 2.82842 40.5233L10.5763 48.2712L18.1885 55.8834C19.7506 57.4455 22.2832 57.4455 23.8453 55.8834L31.3899 48.3389L61.1716 18.5572C62.7337 16.9952 62.7337 14.4625 61.1716 12.9004L56.3877 8.11653Z" fill="url(#paint0_linear)"/>
<defs>
<linearGradient id="paint0_linear" x1="32" y1="5.28809" x2="32" y2="58.7118" gradientUnits="userSpaceOnUse">
<stop stop-color="#BAFA52"/>
<stop offset="1" stop-color="#3F8F5B"/>
</linearGradient>
</defs>
</svg>
