<svg width="64" height="64" viewBox="0 0 64 64" fill="none" xmlns="http://www.w3.org/2000/svg">
<path fill-rule="evenodd" clip-rule="evenodd" d="M25.8672 6.42623C25.0015 5.76542 23.6559 5.88796 22.9732 6.68982L15.4334 15.5463C14.7151 16.39 13.2768 16.4735 12.4312 15.7206L9.44358 13.0608C8.67146 12.3734 7.38341 12.3736 6.61162 13.0612L6.54444 13.121C5.81852 13.7678 5.81852 14.7876 6.54444 15.4343L12.9115 21.107C13.7504 21.8544 15.1757 21.7792 15.9002 20.9494L26.4248 8.89492C27.0309 8.20072 26.9159 7.22676 26.1597 6.64957L25.8672 6.42623ZM12.5387 24.7818C11.3851 24.7818 10.3324 25.1594 9.52865 25.8756C8.72952 26.5875 8.34228 27.4832 8.34228 28.4317V35.0392C8.34228 35.9916 8.74512 36.866 9.50742 37.5633C10.3052 38.2931 11.3638 38.6891 12.5387 38.6891H19.955C21.1356 38.6891 22.1698 38.2779 22.9504 37.5827L22.9505 37.5826C23.7295 36.8886 24.1515 36.0081 24.1515 35.0392V28.4317C24.1515 27.4667 23.7456 26.565 22.929 25.8565L22.9288 25.8564C22.1423 25.1742 21.1143 24.7818 19.955 24.7818H12.5387ZM13.027 34.693V28.7779H19.4668V34.693H13.027ZM12.5387 43.1646C11.3851 43.1646 10.3324 43.5422 9.52865 44.2583C8.72952 44.9703 8.34228 45.866 8.34228 46.8145V53.422C8.34228 54.3743 8.74512 55.2488 9.50742 55.9461C10.3052 56.6759 11.3638 57.0719 12.5387 57.0719H19.955C21.1356 57.0719 22.1698 56.6607 22.9504 55.9655L22.9505 55.9653C23.7295 55.2714 24.1515 54.3909 24.1515 53.422V46.8145C24.1515 45.8495 23.7456 44.9478 22.929 44.2393L22.9288 44.2392C22.1423 43.557 21.1143 43.1646 19.955 43.1646H12.5387ZM13.027 53.0758V47.1607H19.4668V53.0758H13.027ZM58 14.3911C58 15.4946 56.9513 16.3892 55.6576 16.3892H35.0451C33.7514 16.3892 32.7027 15.4946 32.7027 14.3911V11.9935C32.7027 10.89 33.7514 9.99539 35.0451 9.99539H55.6576C56.9513 9.99539 58 10.89 58 11.9935V14.3911ZM55.6576 34.772C56.9513 34.772 58 33.8774 58 32.7739V30.3762C58 29.2727 56.9513 28.3782 55.6576 28.3782H35.0451C33.7514 28.3782 32.7027 29.2727 32.7027 30.3762V32.7739C32.7027 33.8774 33.7514 34.772 35.0451 34.772H55.6576ZM58 51.1567C58 52.2602 56.9513 53.1548 55.6576 53.1548H35.0451C33.7514 53.1548 32.7027 52.2602 32.7027 51.1567V48.759C32.7027 47.6555 33.7514 46.761 35.0451 46.761H55.6576C56.9513 46.761 58 47.6555 58 48.759V51.1567Z" fill="url(#paint0_linear)"/>
<defs>
<linearGradient id="paint0_linear" x1="6.00762" y1="30.7792" x2="58.0086" y2="30.7792" gradientUnits="userSpaceOnUse">
<stop stop-color="#A93AFF"/>
<stop offset="1" stop-color="#FF81FF"/>
</linearGradient>
</defs>
</svg>
