<svg width="16" height="16" viewBox="0 0 16 16" fill="none" xmlns="http://www.w3.org/2000/svg">
<path d="M2.89735 14.4907C2.57701 14.4907 2.31734 14.231 2.31734 13.9107V1.89735C2.31734 1.57701 2.57701 1.31734 2.89735 1.31734H8.32402C8.64435 1.31734 8.90403 1.57701 8.90403 1.89735V4.68935C8.90403 5.00967 9.16371 5.26936 9.48404 5.26936H12.2761C12.5964 5.26936 12.8561 5.52904 12.8561 5.84937V8.64136C12.8561 8.96169 13.1157 9.22137 13.4361 9.22137H13.5934C13.9137 9.22137 14.1734 8.96169 14.1734 8.64136V4.19227C14.1734 4.03844 14.1123 3.8909 14.0035 3.78213L10.3913 0.169885C10.2825 0.0611099 10.135 0 9.98112 0H1.58001C1.25968 0 1 0.259682 1 0.58001V15.2281C1 15.5483 1.25968 15.8081 1.58001 15.8081H7.00669C7.32702 15.8081 7.5867 15.5483 7.5867 15.2281V15.0708C7.5867 14.7504 7.32702 14.4907 7.00669 14.4907H2.89735Z" fill="url(#paint0_linear_625_41)"/>
<path d="M10.2508 13.1733H6.84856C6.52824 13.1733 6.26855 12.9137 6.26855 12.5933V12.436C6.26855 12.1157 6.52824 11.856 6.84856 11.856H10.2508C10.7676 11.856 11.0263 11.2313 10.661 10.8659L9.92572 10.1306C9.69921 9.90409 9.69921 9.53685 9.92572 9.31034L10.0369 9.19918C10.2634 8.97267 10.6306 8.97267 10.8572 9.19918L13.7624 12.1046C13.989 12.331 13.989 12.6982 13.7624 12.9248L10.8572 15.8301C10.6306 16.0566 10.2634 16.0566 10.0369 15.8301L9.92574 15.7189C9.69922 15.4925 9.69921 15.1252 9.92572 14.8987L10.661 14.1635C11.0263 13.7981 10.7676 13.1733 10.2508 13.1733Z" fill="url(#paint1_linear_625_41)"/>
<defs>
<linearGradient id="paint0_linear_625_41" x1="7.5867" y1="15.8081" x2="7.5867" y2="0" gradientUnits="userSpaceOnUse">
<stop stop-color="#5570FF"/>
<stop offset="1" stop-color="#4DD3FF"/>
</linearGradient>
<linearGradient id="paint1_linear_625_41" x1="10.2206" y1="16.2403" x2="10.2206" y2="8.78905" gradientUnits="userSpaceOnUse">
<stop stop-color="#00B59C"/>
<stop offset="1" stop-color="#9CFFAC"/>
</linearGradient>
</defs>
</svg>
