<svg width="16" height="16" viewBox="0 0 16 16" fill="none" xmlns="http://www.w3.org/2000/svg">
<g clip-path="url(#clip0_621_163)">
<path d="M1 15.3346V0.567948C1 0.254282 1.25428 0 1.56795 0H10.0412C10.1919 0 10.3363 0.059839 10.4428 0.166352L14.0857 3.80928C14.1923 3.9158 14.2522 4.06026 14.2522 4.21089V9.37114C14.2522 9.68481 13.9978 9.93909 13.6842 9.93909H13.4949C13.1812 9.93909 12.9269 9.68481 12.9269 9.37114V5.8688C12.9269 5.55512 12.6726 5.30085 12.359 5.30085H9.51922C9.20555 5.30085 8.95127 5.04657 8.95127 4.7329V1.89316C8.95127 1.57949 8.69699 1.32522 8.38332 1.32522H2.89316C2.57949 1.32522 2.32522 1.57949 2.32522 1.89316V14.0093C2.32522 14.3231 2.57949 14.5773 2.89316 14.5773H7.05811C7.37179 14.5773 7.62606 14.8316 7.62606 15.1452V15.3346C7.62606 15.6482 7.37179 15.9025 7.05811 15.9025H1.56795C1.25428 15.9025 1 15.6482 1 15.3346Z" fill="url(#paint0_linear_621_163)"/>
<path d="M9.94431 12.8636L8.55011 11.4694C8.32835 11.2476 8.32835 10.888 8.55011 10.6663C8.77187 10.4446 9.13143 10.4446 9.35319 10.6663L10.7474 12.0605C10.8804 12.1935 11.0962 12.1935 11.2292 12.0605L12.6234 10.6663C12.8452 10.4446 13.2048 10.4446 13.4265 10.6663C13.6482 10.888 13.6482 11.2476 13.4265 11.4694L12.0323 12.8636C11.8993 12.9966 11.8993 13.2124 12.0323 13.3454L13.4265 14.7396C13.6482 14.9613 13.6482 15.321 13.4265 15.5427C13.2048 15.7644 12.8452 15.7644 12.6234 15.5427L11.2292 14.1485C11.0962 14.0155 10.8804 14.0155 10.7474 14.1485L9.35319 15.5427C9.13143 15.7644 8.77187 15.7644 8.55011 15.5427C8.32835 15.321 8.32835 14.9613 8.55011 14.7396L9.94431 13.3454C10.0773 13.2124 10.0773 12.9966 9.94431 12.8636Z" fill="url(#paint1_linear_621_163)" stroke="url(#paint2_linear_621_163)" stroke-width="0.6"/>
</g>
<defs>
<linearGradient id="paint0_linear_621_163" x1="0.998058" y1="7.71564" x2="14.2492" y2="7.71564" gradientUnits="userSpaceOnUse">
<stop stop-color="#FD3A84"/>
<stop offset="1" stop-color="#FFA68D"/>
</linearGradient>
<linearGradient id="paint1_linear_621_163" x1="10.9883" y1="15.9442" x2="10.9883" y2="10.2648" gradientUnits="userSpaceOnUse">
<stop stop-color="#FF2424"/>
<stop offset="1" stop-color="#FF8D8D"/>
</linearGradient>
<linearGradient id="paint2_linear_621_163" x1="10.9883" y1="15.9442" x2="10.9883" y2="10.2648" gradientUnits="userSpaceOnUse">
<stop stop-color="#FF2424"/>
<stop offset="1" stop-color="#FF8D8D"/>
</linearGradient>
<clipPath id="clip0_621_163">
<rect width="16" height="16" fill="white"/>
</clipPath>
</defs>
</svg>
