<svg width="24" height="24" viewBox="0 0 24 24" fill="none" xmlns="http://www.w3.org/2000/svg">
<path d="M2.3158 19.1264C2.3158 19.3473 2.49489 19.5264 2.7158 19.5264H8.86322C9.08413 19.5264 9.26322 19.7055 9.26322 19.9264V21.4422C9.26322 21.6631 9.08413 21.8422 8.86322 21.8422H2.3158C1.70162 21.8422 1.11258 21.5983 0.678287 21.1639C0.243981 20.7296 0 20.1406 0 19.5264V3.3158C0 2.70162 0.243981 2.11258 0.678287 1.67829C1.11258 1.24398 1.70162 1 2.3158 1H16.0449C16.151 1 16.2528 1.04214 16.3278 1.11716L20.7251 5.51445C20.8001 5.58946 20.8422 5.69121 20.8422 5.79729V7.92067C20.8422 8.02676 20.8001 8.1285 20.7251 8.20352L19.2093 9.71932C18.9573 9.97131 18.5264 9.79284 18.5264 9.43648V6.75835C18.5264 6.65226 18.4843 6.55052 18.4093 6.47551L15.3667 3.43296C15.2917 3.35795 15.19 3.3158 15.0839 3.3158H2.7158C2.49489 3.3158 2.3158 3.49489 2.3158 3.7158V19.1264ZM13.4948 9.10531C13.7157 9.10531 13.8948 8.92623 13.8948 8.70531V4.87371C13.8948 4.65279 13.7157 4.47371 13.4948 4.47371H3.87371C3.65279 4.47371 3.47371 4.65279 3.47371 4.87371V8.70531C3.47371 8.92623 3.65279 9.10531 3.87371 9.10531H13.4948ZM13.8948 14.8948C13.8948 12.9727 12.3432 11.4211 10.4211 11.4211C8.499 11.4211 6.94741 12.9727 6.94741 14.8948C6.94741 16.8169 8.499 18.3685 10.4211 18.3685V18.3685C10.5175 18.3685 10.6099 18.3302 10.6781 18.2621L13.7884 15.1518C13.8565 15.0836 13.8948 14.9912 13.8948 14.8948V14.8948Z" fill="url(#paint0_linear_621_173)"/>
<path d="M21.1288 11.6253C21.2044 11.6591 21.2724 11.7077 21.3288 11.7684L22.8109 13.2505C23.0656 13.4936 23.0656 13.8989 22.8109 14.1421L21.653 15.3L19.2793 12.9263L20.4372 11.7684C20.5646 11.641 20.7267 11.5715 20.8888 11.5715C20.9716 11.5732 21.0532 11.5914 21.1288 11.6253Z" fill="url(#paint1_linear_621_173)"/>
<path d="M11.9791 23C11.7582 23 11.5791 22.8209 11.5791 22.6V20.7806C11.5791 20.6744 11.6213 20.5726 11.6965 20.4975L18.3247 13.8802C18.481 13.7242 18.7341 13.7243 18.8902 13.8804L20.6987 15.6889C20.8548 15.845 20.8549 16.0981 20.6989 16.2544L14.0816 22.8826C14.0065 22.9578 13.9047 23 13.7985 23H11.9791Z" fill="url(#paint2_linear_621_173)"/>
<defs>
<linearGradient id="paint0_linear_621_173" x1="11.5009" y1="23.0001" x2="11.5009" y2="1" gradientUnits="userSpaceOnUse">
<stop stop-color="#5570FF"/>
<stop offset="1" stop-color="#4DD3FF"/>
</linearGradient>
<linearGradient id="paint1_linear_621_173" x1="17.2906" y1="23" x2="17.2906" y2="11.5715" gradientUnits="userSpaceOnUse">
<stop stop-color="#FDA700"/>
<stop offset="1" stop-color="#FFDE00"/>
</linearGradient>
<linearGradient id="paint2_linear_621_173" x1="17.2905" y1="23" x2="17.2905" y2="11.5715" gradientUnits="userSpaceOnUse">
<stop stop-color="#FDA700"/>
<stop offset="1" stop-color="#FFDE00"/>
</linearGradient>
</defs>
</svg>
