<svg width="24" height="24" viewBox="0 0 24 24" fill="none" xmlns="http://www.w3.org/2000/svg">
<path d="M2.31579 19.1263C2.31579 19.3472 2.49488 19.5263 2.71579 19.5263H8.86316C9.08407 19.5263 9.26316 19.7054 9.26316 19.9263V21.4421C9.26316 21.663 9.08407 21.8421 8.86316 21.8421H2.31579C1.70161 21.8421 1.11257 21.5981 0.678283 21.1638C0.24398 20.7295 0 20.1405 0 19.5263V3.31579C0 2.70161 0.24398 2.11257 0.678283 1.67828C1.11257 1.24398 1.70161 1 2.31579 1H16.0448C16.1509 1 16.2527 1.04214 16.3277 1.11716L20.7249 5.51442C20.8 5.58944 20.8421 5.69118 20.8421 5.79726V7.92063C20.8421 8.02672 20.8 8.12846 20.7249 8.20347L19.2092 9.71926C18.9572 9.97125 18.5263 9.79278 18.5263 9.43642V6.75832C18.5263 6.65223 18.4842 6.55049 18.4092 6.47547L15.3666 3.43295C15.2916 3.35793 15.1899 3.31579 15.0838 3.31579H2.71579C2.49487 3.31579 2.31579 3.49488 2.31579 3.71579V19.1263ZM13.4947 9.10526C13.7157 9.10526 13.8947 8.92618 13.8947 8.70526V4.87368C13.8947 4.65277 13.7157 4.47368 13.4947 4.47368H3.87368C3.65277 4.47368 3.47368 4.65277 3.47368 4.87368V8.70526C3.47368 8.92618 3.65277 9.10526 3.87368 9.10526H13.4947ZM21.3284 11.7684C21.272 11.7077 21.2041 11.6591 21.1285 11.6253C21.0528 11.5915 20.9712 11.5732 20.8884 11.5716C20.7263 11.5716 20.5642 11.6411 20.4368 11.7684L19.5618 12.6435C19.4056 12.7997 19.4056 13.0529 19.5618 13.2092L21.3698 15.0172C21.526 15.1734 21.7793 15.1734 21.9355 15.0172L22.8105 14.1421C23.0653 13.8989 23.0653 13.4937 22.8105 13.2505L21.3284 11.7684ZM11.6963 20.4975C11.6212 20.5726 11.5789 20.6744 11.5789 20.7806V22.6C11.5789 22.8209 11.758 23 11.9789 23H13.7983C13.9045 23 14.0064 22.9578 14.0814 22.8826L20.6987 16.2544C20.8547 16.0982 20.8546 15.8451 20.6984 15.689L18.89 13.8805C18.7339 13.7244 18.4808 13.7243 18.3245 13.8803L11.6963 20.4975ZM13.8947 14.8947C13.8947 12.9726 12.3432 11.4211 10.4211 11.4211C8.49895 11.4211 6.94737 12.9726 6.94737 14.8947C6.94737 16.8168 8.49895 18.3684 10.4211 18.3684V18.3684C10.5174 18.3684 10.6099 18.3301 10.678 18.262L13.7883 15.1517C13.8564 15.0836 13.8947 14.9911 13.8947 14.8947V14.8947Z" fill="url(#paint0_linear_625_39)"/>
<defs>
<linearGradient id="paint0_linear_625_39" x1="11.5008" y1="23" x2="11.5008" y2="1" gradientUnits="userSpaceOnUse">
<stop stop-color="#5570FF"/>
<stop offset="1" stop-color="#4DD3FF"/>
</linearGradient>
</defs>
</svg>
