<svg width="16" height="16" viewBox="0 0 16 16" fill="none" xmlns="http://www.w3.org/2000/svg">
<path d="M2.5 1C2.22386 1 2 1.22386 2 1.5V14.5C2 14.7761 2.22386 15 2.5 15H6.16667C6.44281 15 6.66667 14.7761 6.66667 14.5V14.3333C6.66667 14.0572 6.44281 13.8333 6.16667 13.8333H3.66667C3.39052 13.8333 3.16667 13.6095 3.16667 13.3333V2.66667C3.16667 2.39052 3.39052 2.16667 3.66667 2.16667H8.5C8.77614 2.16667 9 2.39052 9 2.66667V5.16667C9 5.44281 9.22386 5.66667 9.5 5.66667H12C12.2761 5.66667 12.5 5.89052 12.5 6.16667V7.5C12.5 7.77614 12.7239 8 13 8H13.1667C13.4428 8 13.6667 7.77614 13.6667 7.5V4.70711C13.6667 4.5745 13.614 4.44732 13.5202 4.35355L10.3131 1.14645C10.2193 1.05268 10.0922 1 9.95956 1H9H2.5Z" fill="url(#paint0_linear_621_49)" stroke="url(#paint1_linear_621_49)" stroke-width="0.5"/>
<path fill-rule="evenodd" clip-rule="evenodd" d="M10.166 8C8.22702 8 6.66602 9.561 6.66602 11.5C6.66602 13.439 8.22702 15 10.166 15C12.105 15 13.666 13.439 13.666 11.5C13.666 9.561 12.105 8 10.166 8ZM10.1658 9.1665C10.7847 9.1665 11.3782 9.41234 11.8158 9.84992C12.2533 10.2875 12.4992 10.881 12.4992 11.4998C12.4992 12.1187 12.2533 12.7122 11.8158 13.1498C11.3782 13.5873 10.7847 13.8332 10.1658 13.8332C9.54702 13.8332 8.95353 13.5873 8.51595 13.1498C8.07836 12.7122 7.83253 12.1187 7.83253 11.4998C7.83253 10.881 8.07836 10.2875 8.51595 9.84992C8.95353 9.41234 9.54702 9.1665 10.1658 9.1665Z" fill="url(#paint2_linear_621_49)"/>
<path d="M10.9333 12.6668H9.4C9.17909 12.6668 9 12.4877 9 12.2668V10.9168V10.4C9 10.1791 9.17909 10 9.4 10H9.76667C9.98758 10 10.1667 10.1791 10.1667 10.4V11.1002C10.1667 11.3211 10.3458 11.5002 10.5667 11.5002H10.9333C11.1542 11.5002 11.3333 11.6792 11.3333 11.9002V12.2668C11.3333 12.4877 11.1542 12.6668 10.9333 12.6668Z" fill="url(#paint3_linear_621_49)"/>
<defs>
<linearGradient id="paint0_linear_621_49" x1="7.83333" y1="15" x2="7.83333" y2="1" gradientUnits="userSpaceOnUse">
<stop stop-color="#5570FF"/>
<stop offset="1" stop-color="#4DD3FF"/>
</linearGradient>
<linearGradient id="paint1_linear_621_49" x1="7.83333" y1="15" x2="7.83333" y2="1" gradientUnits="userSpaceOnUse">
<stop stop-color="#5570FF"/>
<stop offset="1" stop-color="#4DD3FF"/>
</linearGradient>
<linearGradient id="paint2_linear_621_49" x1="10.166" y1="15" x2="10.166" y2="8" gradientUnits="userSpaceOnUse">
<stop stop-color="#FDA700"/>
<stop offset="1" stop-color="#FFDE00"/>
</linearGradient>
<linearGradient id="paint3_linear_621_49" x1="10.1667" y1="12.6668" x2="10.1667" y2="10" gradientUnits="userSpaceOnUse">
<stop stop-color="#FDA700"/>
<stop offset="1" stop-color="#FFDE00"/>
</linearGradient>
</defs>
</svg>
