<svg width="16" height="16" viewBox="0 0 16 16" fill="none" xmlns="http://www.w3.org/2000/svg">
<path d="M2.5 1C2.22386 1 2 1.22386 2 1.5V14.5C2 14.7761 2.22386 15 2.5 15H13.1667C13.4428 15 13.6667 14.7761 13.6667 14.5V4.70711C13.6667 4.5745 13.614 4.44732 13.5202 4.35355L10.3131 1.14645C10.2193 1.05268 10.0922 1 9.95956 1H2.5ZM3.16667 2.66667C3.16667 2.39052 3.39052 2.16667 3.66667 2.16667H8.5C8.77614 2.16667 9 2.39052 9 2.66667V5.16667C9 5.44281 9.22386 5.66667 9.5 5.66667H12C12.2761 5.66667 12.5 5.89052 12.5 6.16667V13.3333C12.5 13.6095 12.2761 13.8333 12 13.8333H3.66667C3.39052 13.8333 3.16667 13.6095 3.16667 13.3333V2.66667Z" fill="url(#paint0_linear)"/>
<path fill-rule="evenodd" clip-rule="evenodd" d="M7.19727 5.6667C6.84481 5.67782 6.50393 5.79516 6.2193 6.00334C5.97285 6.1836 5.77854 6.42468 5.65465 6.70198C5.62006 6.7794 5.54551 6.83337 5.46071 6.83337H4.53301C4.42255 6.83337 4.33301 6.92291 4.33301 7.03337V7.80003C4.33301 7.91049 4.42255 8.00003 4.53301 8.00003H5.46079C5.54555 8.00003 5.62008 8.05395 5.65469 8.13132C5.78229 8.41656 5.98435 8.66328 6.24076 8.84486C6.53576 9.05376 6.8882 9.16619 7.24967 9.1667C7.61115 9.16619 7.96359 9.05376 8.25858 8.84486C8.51499 8.66328 8.71706 8.41656 8.84466 8.13132C8.87927 8.05395 8.9538 8.00003 9.03856 8.00003H11.133C11.2435 8.00003 11.333 7.91049 11.333 7.80003V7.03337C11.333 6.92291 11.2435 6.83337 11.133 6.83337H9.03856C8.9538 6.83337 8.87927 6.77945 8.84466 6.70208C8.71706 6.41684 8.51499 6.17012 8.25858 5.98854C7.96359 5.77964 7.61115 5.66721 7.24967 5.6667C7.23221 5.66644 7.21473 5.66644 7.19727 5.6667ZM7.24951 6.83333C7.40422 6.83333 7.55259 6.89479 7.66199 7.00419C7.77139 7.11358 7.83285 7.26196 7.83285 7.41667C7.83285 7.57138 7.77139 7.71975 7.66199 7.82915C7.55259 7.93854 7.40422 8 7.24951 8C7.0948 8 6.94643 7.93854 6.83703 7.82915C6.72764 7.71975 6.66618 7.57138 6.66618 7.41667C6.66618 7.26196 6.72764 7.11358 6.83703 7.00419C6.94643 6.89479 7.0948 6.83333 7.24951 6.83333Z" fill="url(#paint1_linear)"/>
<path fill-rule="evenodd" clip-rule="evenodd" d="M8.46875 12.6663C8.82121 12.6552 9.16209 12.5379 9.44672 12.3297C9.69316 12.1494 9.88748 11.9083 10.0114 11.631C10.046 11.5536 10.1205 11.4996 10.2053 11.4996H11.133C11.2435 11.4996 11.333 11.4101 11.333 11.2996V10.533C11.333 10.4225 11.2435 10.333 11.133 10.333H10.2052C10.1205 10.333 10.0459 10.2791 10.0113 10.2017C9.88373 9.91645 9.68166 9.66973 9.42525 9.48815C9.13026 9.27924 8.77781 9.16681 8.41634 9.16631C8.05487 9.16681 7.70242 9.27924 7.40743 9.48815C7.15102 9.66973 6.94895 9.91645 6.82135 10.2017C6.78674 10.2791 6.71222 10.333 6.62746 10.333H4.53301C4.42255 10.333 4.33301 10.4225 4.33301 10.533V11.2996C4.33301 11.4101 4.42255 11.4996 4.53301 11.4996H6.62746C6.71222 11.4996 6.78674 11.5536 6.82135 11.6309C6.94895 11.9162 7.15102 12.1629 7.40743 12.3445C7.70242 12.5534 8.05487 12.6658 8.41634 12.6663C8.43381 12.6666 8.45128 12.6666 8.46875 12.6663ZM8.41618 11.5C8.26147 11.5 8.1131 11.4385 8.0037 11.3291C7.8943 11.2197 7.83285 11.0714 7.83285 10.9167C7.83285 10.762 7.8943 10.6136 8.0037 10.5042C8.1131 10.3948 8.26147 10.3333 8.41618 10.3333C8.57089 10.3333 8.71926 10.3948 8.82866 10.5042C8.93805 10.6136 8.99951 10.762 8.99951 10.9167C8.99951 11.0714 8.93805 11.2197 8.82866 11.3291C8.71926 11.4385 8.57089 11.5 8.41618 11.5Z" fill="url(#paint2_linear)"/>
<defs>
<linearGradient id="paint0_linear" x1="7.83333" y1="15" x2="7.83333" y2="1" gradientUnits="userSpaceOnUse">
<stop stop-color="#5570FF"/>
<stop offset="1" stop-color="#4DD3FF"/>
</linearGradient>
<linearGradient id="paint1_linear" x1="4.33403" y1="7.36474" x2="11.3342" y2="7.36474" gradientUnits="userSpaceOnUse">
<stop stop-color="#A93AFF"/>
<stop offset="1" stop-color="#FF81FF"/>
</linearGradient>
<linearGradient id="paint2_linear" x1="11.332" y1="10.9683" x2="4.33185" y2="10.9683" gradientUnits="userSpaceOnUse">
<stop stop-color="#A93AFF"/>
<stop offset="1" stop-color="#FF81FF"/>
</linearGradient>
</defs>
</svg>
