<svg width="16" height="16" viewBox="0 0 16 16" fill="none" xmlns="http://www.w3.org/2000/svg">
<path d="M2.5 1C2.22386 1 2 1.22386 2 1.5V14.5C2 14.7761 2.22386 15 2.5 15H9.66667C9.94281 15 10.1667 14.7761 10.1667 14.5V14.3333C10.1667 14.0572 9.94281 13.8333 9.66667 13.8333H3.66667C3.39052 13.8333 3.16667 13.6095 3.16667 13.3333V2.66667C3.16667 2.39052 3.39052 2.16667 3.66667 2.16667H8.5C8.77614 2.16667 9 2.39052 9 2.66667V5.16667C9 5.44281 9.22386 5.66667 9.5 5.66667H12C12.2761 5.66667 12.5 5.89052 12.5 6.16667V11C12.5 11.2761 12.7239 11.5 13 11.5H13.1667C13.4428 11.5 13.6667 11.2761 13.6667 11V4.70711C13.6667 4.5745 13.614 4.44732 13.5202 4.35355L10.3131 1.14645C10.2193 1.05268 10.0922 1 9.95956 1H2.5Z" fill="url(#paint0_linear)"/>
<path d="M7.65304 5.66663C5.81209 5.66663 4.3197 7.15901 4.3197 8.99996C4.3197 10.8409 5.81209 12.3333 7.65304 12.3333C8.16936 12.3324 8.67649 12.2118 9.13526 11.983C9.34809 11.8769 9.60984 11.8995 9.778 12.0677L12.3568 14.6464C12.5521 14.8417 12.8687 14.8417 13.0639 14.6464L13.2995 14.4108C13.4948 14.2156 13.4948 13.899 13.2995 13.7037L10.7207 11.1249C10.5526 10.9568 10.5299 10.6951 10.636 10.4823C10.8648 10.0235 10.9856 9.51632 10.9864 8.99996C10.9864 7.15901 9.49398 5.66663 7.65304 5.66663ZM7.65304 6.99996C8.75761 6.99996 9.65304 7.89539 9.65304 8.99996C9.65304 10.1045 8.75761 11 7.65304 11C6.54846 11 5.65304 10.1045 5.65304 8.99996C5.65304 7.89539 6.54846 6.99996 7.65304 6.99996Z" fill="url(#paint1_linear)"/>
<defs>
<linearGradient id="paint0_linear" x1="7.83335" y1="15" x2="7.83335" y2="1" gradientUnits="userSpaceOnUse">
<stop stop-color="#5570FF"/>
<stop offset="1" stop-color="#4DD3FF"/>
</linearGradient>
<linearGradient id="paint1_linear" x1="8.88284" y1="14.7929" x2="8.88284" y2="5.66663" gradientUnits="userSpaceOnUse">
<stop stop-color="#00B59C"/>
<stop offset="1" stop-color="#9CFFAC"/>
</linearGradient>
</defs>
</svg>
