<svg width="16" height="16" viewBox="0 0 16 16" fill="none" xmlns="http://www.w3.org/2000/svg">
<g clip-path="url(#clip0_621_157)">
<path d="M2.16667 1C1.52234 1 1 1.52234 1 2.16667V5.66667V6.83333V13.8333C1 14.4777 1.52234 15 2.16667 15H13.8333C14.4777 15 15 14.4777 15 13.8333V5.66667V4.5C15 3.85567 14.4777 3.33333 13.8333 3.33333H9.65902C9.34961 3.33333 9.05286 3.21041 8.83407 2.99163L6.84512 1.00267H6.83977L6.83789 1.00456C6.8362 1.00624 6.83333 1.00505 6.83333 1.00267L6.83066 1H2.16667ZM2.16667 3.33333C2.16667 2.68901 2.68901 2.16667 3.33333 2.16667H6.11581C6.27032 2.16667 6.41853 2.22796 6.52789 2.33712L7.17921 2.98717C7.30709 3.1148 7.2167 3.33333 7.03603 3.33333H6.836L6.83333 3.336C6.83333 3.33838 6.83046 3.33957 6.82877 3.33789L6.82689 3.336H6.82155L4.83259 5.32496C4.61381 5.54375 4.31705 5.66667 4.00764 5.66667H3.33333C2.68899 5.66667 2.16667 5.14433 2.16667 4.5V3.33333ZM2.16667 8C2.16667 7.35567 2.68901 6.83333 3.33333 6.83333H12.6667C13.311 6.83333 13.8333 7.35567 13.8333 8V12.6667C13.8333 13.311 13.311 13.8333 12.6667 13.8333H3.33333C2.68901 13.8333 2.16667 13.311 2.16667 12.6667V8Z" fill="url(#paint0_linear_621_157)" stroke="url(#paint1_linear_621_157)" stroke-width="0.4"/>
</g>
<defs>
<linearGradient id="paint0_linear_621_157" x1="8" y1="15" x2="8" y2="1" gradientUnits="userSpaceOnUse">
<stop stop-color="#02AA93"/>
<stop offset="1" stop-color="#67FF80"/>
</linearGradient>
<linearGradient id="paint1_linear_621_157" x1="8" y1="15" x2="8" y2="1" gradientUnits="userSpaceOnUse">
<stop stop-color="#02AA93"/>
<stop offset="1" stop-color="#67FF80"/>
</linearGradient>
<clipPath id="clip0_621_157">
<rect width="16" height="16" fill="white"/>
</clipPath>
</defs>
</svg>
