<svg width="16" height="16" viewBox="0 0 16 16" fill="none" xmlns="http://www.w3.org/2000/svg">
<path d="M1 15.4286V0.571429C1 0.25584 1.25584 0 1.57143 0H10.0966C10.2482 0 10.3935 0.0602058 10.5007 0.167371L14.1659 3.83263C14.2731 3.93979 14.3334 4.08514 14.3334 4.2367V9.42857C14.3334 9.74416 14.0775 10 13.7619 10H13.5714C13.2559 10 13 9.74416 13 9.42857V5.90477C13 5.58917 12.7441 5.33334 12.4286 5.33334H9.57143C9.25584 5.33334 9 5.0775 9 4.76191V1.90477C9 1.58917 8.74416 1.33334 8.42857 1.33334H2.90477C2.58917 1.33334 2.33334 1.58917 2.33334 1.90477V14.0952C2.33334 14.4109 2.58917 14.6666 2.90477 14.6666H7.09523C7.41083 14.6666 7.66666 14.9225 7.66666 15.2381V15.4286C7.66666 15.7441 7.41083 16 7.09523 16H1.57143C1.25584 16 1 15.7441 1 15.4286Z" fill="url(#paint0_linear_621_159)"/>
<path d="M9.84121 12.6121H7.85748C7.54194 12.6121 7.28613 12.3562 7.28613 12.0407C7.28613 11.7251 7.54194 11.4694 7.85748 11.4694H9.84121C10.0306 11.4694 10.1841 11.3159 10.1841 11.1265V9.14281C10.1841 8.82727 10.4398 8.57147 10.7554 8.57147C11.0709 8.57147 11.3268 8.82727 11.3268 9.14281V11.1265C11.3268 11.3159 11.4803 11.4694 11.6697 11.4694H13.6533C13.9689 11.4694 14.2246 11.7251 14.2246 12.0407C14.2246 12.3562 13.9689 12.6121 13.6533 12.6121H11.6697C11.4803 12.6121 11.3268 12.7656 11.3268 12.955V14.9386C11.3268 15.2542 11.0709 15.5101 10.7554 15.5101C10.4398 15.5101 10.1841 15.2542 10.1841 14.9386V12.955C10.1841 12.7656 10.0306 12.6121 9.84121 12.6121Z" fill="url(#paint1_linear_621_159)" stroke="url(#paint2_linear_621_159)" stroke-width="0.6"/>
<defs>
<linearGradient id="paint0_linear_621_159" x1="7.66668" y1="16" x2="7.66668" y2="-9.53674e-07" gradientUnits="userSpaceOnUse">
<stop stop-color="#02AA93"/>
<stop offset="1" stop-color="#67FF80"/>
</linearGradient>
<linearGradient id="paint1_linear_621_159" x1="12.7757" y1="14.061" x2="8.73509" y2="10.0204" gradientUnits="userSpaceOnUse">
<stop stop-color="#02AA93"/>
<stop offset="1" stop-color="#67FF80"/>
</linearGradient>
<linearGradient id="paint2_linear_621_159" x1="12.7757" y1="14.061" x2="8.73509" y2="10.0204" gradientUnits="userSpaceOnUse">
<stop stop-color="#02AA93"/>
<stop offset="1" stop-color="#67FF80"/>
</linearGradient>
</defs>
</svg>
