<svg width="16" height="16" viewBox="0 0 16 16" fill="none" xmlns="http://www.w3.org/2000/svg">
<path d="M6.207 2C6.07439 2 5.94721 2.05268 5.85344 2.14645L0.706924 7.29297C0.316442 7.68345 0.316442 8.31655 0.706924 8.70703L5.85344 13.8536C5.94721 13.9473 6.07439 14 6.207 14H14.9999H15.4999C15.776 14 15.9999 13.7761 15.9999 13.5V2.5C15.9999 2.22386 15.776 2 15.4999 2H14.9999H6.207ZM7.64829 5.35355C7.84355 5.15829 8.16013 5.15829 8.3554 5.35355L9.65806 6.65621C9.85332 6.85147 10.1699 6.85147 10.3652 6.65621L11.6678 5.35355C11.8631 5.15829 12.1797 5.15829 12.3749 5.35355L12.6581 5.63668C12.8533 5.83194 12.8533 6.14853 12.6581 6.34379L11.3554 7.64645C11.1601 7.84171 11.1601 8.15829 11.3554 8.35355L12.6581 9.65621C12.8533 9.85147 12.8533 10.1681 12.6581 10.3633L12.3749 10.6464C12.1797 10.8417 11.8631 10.8417 11.6678 10.6464L10.3652 9.34379C10.1699 9.14853 9.85332 9.14853 9.65806 9.34379L8.3554 10.6464C8.16013 10.8417 7.84355 10.8417 7.64829 10.6464L7.36516 10.3633C7.1699 10.1681 7.1699 9.85147 7.36516 9.65621L8.66782 8.35355C8.86308 8.15829 8.86308 7.84171 8.66782 7.64645L7.36516 6.34379C7.1699 6.14853 7.1699 5.83194 7.36516 5.63668L7.64829 5.35355Z" fill="url(#paint0_linear_621_90)"/>
<defs>
<linearGradient id="paint0_linear_621_90" x1="15.4734" y1="2.34299" x2="11.6569" y2="14.7896" gradientUnits="userSpaceOnUse">
<stop stop-color="#FE0F7C"/>
<stop offset="1" stop-color="#DF0066"/>
</linearGradient>
</defs>
</svg>
