<svg width="64" height="64" viewBox="0 0 64 64" fill="none" xmlns="http://www.w3.org/2000/svg">
<path d="M52.7189 46.0882C51.9439 41.3882 47.7689 38.0194 43.0126 38.2507C38.2564 38.4819 34.4314 42.2507 34.1251 47.0007C24.5314 46.7007 21.1251 44.4569 21.6814 39.8944C21.8876 38.1882 22.9189 37.2757 24.8126 36.8319C25.9626 36.5632 27.2376 36.5257 28.3939 36.6319C28.5001 36.6444 28.6126 36.6507 28.7189 36.6632C29.4251 36.8319 30.1439 36.9757 30.8626 37.0882C32.9939 37.4382 35.1626 37.6132 37.2251 37.5007C43.0251 37.1882 46.9751 34.6319 47.1751 29.2069C47.3689 23.9507 43.7564 20.2257 37.9314 17.7319C36.0626 16.9319 34.0814 16.3132 32.1001 15.8444C31.2064 15.6319 30.4564 15.4882 29.9001 15.3944C29.4064 10.6507 25.4314 7.03194 20.6626 6.99444C15.8939 6.95694 11.8564 10.5007 11.2814 15.2382C10.7064 19.9757 13.7814 24.3819 18.4189 25.4819C23.0564 26.5819 27.7876 24.0257 29.4001 19.5382C29.9876 19.6444 30.5689 19.7632 31.1501 19.9007C32.9126 20.3132 34.6751 20.8632 36.3001 21.5632C40.7189 23.4507 43.1314 25.9444 43.0189 29.0569C42.9189 31.8444 40.9189 33.1319 37.0064 33.3444C35.2876 33.4382 33.4064 33.2882 31.5501 32.9819C31.0314 32.8944 30.5564 32.8069 30.1376 32.7132C29.8939 32.6632 29.7251 32.6194 29.6501 32.6007L29.4564 32.5632C29.3189 32.5444 29.0876 32.5132 28.7876 32.4819C27.2251 32.3382 25.5314 32.3882 23.8814 32.7694C20.4314 33.5757 18.0126 35.7194 17.5626 39.3819C16.5814 47.2694 22.4751 50.9257 34.8126 51.1882C36.6314 55.5882 41.4626 57.9319 46.0376 56.6257C50.6189 55.3194 53.4939 50.7882 52.7189 46.0882V46.0882ZM20.5689 21.5757C17.6939 21.5757 15.3626 19.2444 15.3626 16.3694C15.3626 13.4944 17.6939 11.1632 20.5689 11.1632C23.4439 11.1632 25.7751 13.4944 25.7751 16.3694C25.7751 19.2444 23.4439 21.5757 20.5689 21.5757ZM43.4751 52.8132C40.6001 52.8132 38.2689 50.4819 38.2689 47.6069C38.2689 44.7319 40.6001 42.4007 43.4751 42.4007C46.3501 42.4007 48.6814 44.7319 48.6814 47.6069C48.6814 50.4819 46.3501 52.8132 43.4751 52.8132Z" fill="url(#paint0_linear)"/>
<defs>
<linearGradient id="paint0_linear" x1="32.0286" y1="56.986" x2="32.0286" y2="6.99414" gradientUnits="userSpaceOnUse">
<stop stop-color="#A93AFF"/>
<stop offset="1" stop-color="#FF81FF"/>
</linearGradient>
</defs>
</svg>
