<svg width="64" height="64" viewBox="0 0 64 64" fill="none" xmlns="http://www.w3.org/2000/svg">
<path d="M57.5475 8.98505L51.265 2.70245C50.1749 1.61241 48.6964 1.00001 47.1549 1H26.3125C23.1023 1 20.5 3.60232 20.5 6.8125V12.625H10.8125C7.60234 12.625 5 15.2273 5 18.4375V57.1875C5 60.3977 7.60234 63 10.8125 63H37.9375C41.1477 63 43.75 60.3977 43.75 57.1875V51.375H53.4375C56.6477 51.375 59.25 48.7727 59.25 45.5625V13.095C59.25 11.5535 58.6376 10.0751 57.5475 8.98505ZM37.2109 57.1875H11.539C11.3464 57.1875 11.1615 57.1109 11.0254 56.9746C10.8891 56.8385 10.8125 56.6536 10.8125 56.4609V19.164C10.8125 18.9714 10.8891 18.7865 11.0254 18.6504C11.1615 18.5141 11.3464 18.4375 11.539 18.4375H20.5V45.5625C20.5 48.7727 23.1023 51.375 26.3125 51.375H37.9375V56.4609C37.9375 56.6536 37.8609 56.8385 37.7246 56.9746C37.5885 57.1109 37.4036 57.1875 37.2109 57.1875ZM52.7109 45.5625H27.039C26.8464 45.5625 26.6615 45.4859 26.5254 45.3496C26.3891 45.2135 26.3125 45.0286 26.3125 44.8359V7.53906C26.3125 7.34634 26.3891 7.1615 26.5254 7.02537C26.6615 6.88909 26.8464 6.8125 27.039 6.8125H39.875V17.4687C39.875 19.0739 41.1761 20.375 42.7812 20.375H53.4375V44.8359C53.4375 45.0286 53.3609 45.2135 53.2246 45.3496C53.0885 45.4859 52.9036 45.5625 52.7109 45.5625ZM53.4375 14.5625H45.6875V6.8125H46.8539C47.0466 6.8125 47.2313 6.88897 47.3677 7.02524L53.2247 12.8823C53.2921 12.9498 53.3456 13.03 53.3823 13.118C53.4188 13.2062 53.4375 13.3007 53.4375 13.3961V14.5625Z" fill="url(#paint0_linear_621_146)"/>
<defs>
<linearGradient id="paint0_linear_621_146" x1="32.125" y1="63" x2="32.125" y2="1" gradientUnits="userSpaceOnUse">
<stop stop-color="#5570FF"/>
<stop offset="1" stop-color="#4DD3FF"/>
</linearGradient>
</defs>
</svg>
