<svg width="24" height="24" viewBox="0 0 24 24" fill="none" xmlns="http://www.w3.org/2000/svg">
<path d="M19 20.8C19 20.9105 18.9105 21 18.8 21H5.2C5.08954 21 5 20.9105 5 20.8V5.2C5 5.08954 5.08954 5 5.2 5H6.8C6.91046 5 7 5.08954 7 5.2V7.8C7 7.91046 7.08954 8 7.2 8H16.8C16.9105 8 17 7.91046 17 7.8V5.2C17 5.08954 17.0895 5 17.2 5H18.8C18.9105 5 19 5.08954 19 5.2V20.8ZM12 2.5C12.2652 2.5 12.8125 2.81247 13 3C13.1875 3.18754 13.5 3.73478 13.5 4C13.5 4.26522 13.1875 4.81246 13 5C12.8125 5.18753 12.2652 5.5 12 5.5C11.7348 5.5 11.1875 5.18753 11 5C10.8125 4.81246 10.5 4.26522 10.5 4C10.5 3.73478 10.8125 3.18754 11 3C11.1875 2.81247 11.7348 2.5 12 2.5ZM19 3H14.9603C14.8761 3 14.8015 2.94697 14.7692 2.8692C14.3161 1.77738 13.2506 1 12 1C10.7494 1 9.68387 1.77738 9.23079 2.8692C9.19852 2.94697 9.12391 3 9.03971 3H5C4.46957 3 3.96086 3.21071 3.58579 3.58579C3.21071 3.96086 3 4.46957 3 5V21C3 21.5304 3.21071 22.0391 3.58579 22.4142C3.96086 22.7893 4.46957 23 5 23H19C19.5304 23 20.0391 22.7893 20.4142 22.4142C20.7893 22.0391 21 21.5304 21 21V5C21 4.46957 20.7893 3.96086 20.4142 3.58579C20.0391 3.21071 19.5304 3 19 3Z" fill="url(#paint0_linear_621_109)" stroke="url(#paint1_linear_621_109)" stroke-width="0.6"/>
<defs>
<linearGradient id="paint0_linear_621_109" x1="11.2173" y1="22.4091" x2="14.2323" y2="2.67984" gradientUnits="userSpaceOnUse">
<stop stop-color="#8D01A2"/>
<stop offset="1" stop-color="#FF33DB"/>
</linearGradient>
<linearGradient id="paint1_linear_621_109" x1="11.2173" y1="22.4091" x2="14.2323" y2="2.67984" gradientUnits="userSpaceOnUse">
<stop stop-color="#8D01A2"/>
<stop offset="1" stop-color="#FF33DB"/>
</linearGradient>
</defs>
</svg>
