<svg width="16" height="16" viewBox="0 0 16 16" fill="none" xmlns="http://www.w3.org/2000/svg">
<path d="M1.5 1C1.22386 1 1 1.22386 1 1.5V13.7929C1 14.2383 1.53857 14.4614 1.85355 14.1464L4.68229 11.3177C3.83779 10.4732 3.33333 9.28866 3.33333 8C3.33333 5.42267 5.42267 3.33333 8 3.33333C9.28866 3.33333 10.4732 3.83779 11.3177 4.68229L14.1464 1.85355C14.4614 1.53857 14.2383 1 13.7929 1H1.5ZM11.3177 4.68229L4.68229 11.3177C5.52679 12.1622 6.71134 12.6667 8 12.6667C10.5773 12.6667 12.6667 10.5773 12.6667 8C12.6667 6.71134 12.1622 5.52679 11.3177 4.68229Z" fill="url(#paint0_linear)"/>
<path d="M5.03593 10.9641L10.9642 5.0358C11.1595 4.84054 11.4785 4.83903 11.6509 5.05482C12.2932 5.85921 12.6667 6.89103 12.6667 7.99996C12.6667 10.5773 10.5774 12.6666 8.00008 12.6666C6.89115 12.6666 5.85933 12.2931 5.05494 11.6507C4.83916 11.4784 4.84066 11.1594 5.03593 10.9641Z" fill="url(#paint1_linear)"/>
<defs>
<linearGradient id="paint0_linear" x1="8" y1="15" x2="8" y2="1" gradientUnits="userSpaceOnUse">
<stop stop-color="#5570FF"/>
<stop offset="1" stop-color="#4DD3FF"/>
</linearGradient>
<linearGradient id="paint1_linear" x1="8.67456" y1="12.6666" x2="8.67456" y2="4.68225" gradientUnits="userSpaceOnUse">
<stop stop-color="#00B59C"/>
<stop offset="1" stop-color="#9CFFAC"/>
</linearGradient>
</defs>
</svg>
