<svg width="32" height="32" viewBox="0 0 32 32" fill="none" xmlns="http://www.w3.org/2000/svg">
<path d="M12.696 9.896C13.018 9.196 13.2 8.426 13.2 7.6C13.2 4.506 10.694 2 7.6 2C4.506 2 2 4.506 2 7.6C2 10.694 4.506 13.2 7.6 13.2C8.426 13.2 9.196 13.018 9.896 12.696L13.2 16L9.896 19.304C9.196 18.982 8.426 18.8 7.6 18.8C4.506 18.8 2 21.306 2 24.4C2 27.494 4.506 30 7.6 30C10.694 30 13.2 27.494 13.2 24.4C13.2 23.574 13.018 22.804 12.696 22.104L16 18.8L25.8 28.6H30V27.2L12.696 9.896ZM7.6 10.4C6.06 10.4 4.8 9.154 4.8 7.6C4.8 6.046 6.06 4.8 7.6 4.8C9.14 4.8 10.4 6.046 10.4 7.6C10.4 9.154 9.14 10.4 7.6 10.4ZM7.6 27.2C6.06 27.2 4.8 25.954 4.8 24.4C4.8 22.846 6.06 21.6 7.6 21.6C9.14 21.6 10.4 22.846 10.4 24.4C10.4 25.954 9.14 27.2 7.6 27.2ZM16 16.7C15.608 16.7 15.3 16.392 15.3 16C15.3 15.608 15.608 15.3 16 15.3C16.392 15.3 16.7 15.608 16.7 16C16.7 16.392 16.392 16.7 16 16.7ZM25.8 3.4L17.4 11.8L20.2 14.6L30 4.8V3.4H25.8Z" fill="url(#paint0_linear)"/>
<defs>
<linearGradient id="paint0_linear" x1="16" y1="30" x2="16" y2="2" gradientUnits="userSpaceOnUse">
<stop stop-color="#FD2E00"/>
<stop offset="1" stop-color="#FF9900"/>
</linearGradient>
</defs>
</svg>
