<svg width="16" height="16" viewBox="0 0 16 16" fill="none" xmlns="http://www.w3.org/2000/svg">
<g clip-path="url(#clip0_621_141)">
<path d="M14.19 1.12548C14.1032 1.05633 13.9766 1.07118 13.9081 1.15856L10.181 5.91259C10.1268 5.98175 10.034 6.00695 9.95083 5.97851C9.21033 5.72518 8.28668 5.65041 7.01415 5.66561C6.96333 5.66622 6.91392 5.68687 6.87721 5.72202C5.36158 7.17321 4.32413 7.65569 1.26305 7.99035C1.20707 7.99647 1.1548 8.0258 1.12824 8.07545C1.03794 8.24422 0.87022 8.67611 1.17388 9.16667C1.56511 9.79868 5.17721 15 9.23911 15H10.2926C10.3548 15 10.4134 14.9715 10.4505 14.9216C11.6562 13.2996 12.4943 10.6786 12.6956 10.3333C12.9003 9.98242 12.8805 9.58664 12.6956 9.16667C12.5242 8.77715 11.8362 7.4388 11.2923 6.82257C11.2243 6.74554 11.2158 6.63033 11.2789 6.54927L14.8784 1.9263C14.9458 1.83981 14.9309 1.71522 14.8452 1.64695L14.19 1.12548ZM7.48489 6.99448C7.52323 6.9671 7.57085 6.95366 7.61772 6.95842C9.78154 7.17844 11.1216 9.50132 11.3457 9.91846C11.3681 9.96008 11.3733 10.0063 11.3611 10.052C11.2594 10.4323 10.7228 12.2954 9.62046 13.713C9.57946 13.7658 9.51279 13.7933 9.44629 13.787C6.0254 13.4609 4.75212 12.1833 2.88652 9.25993C2.80386 9.1304 2.89347 8.95986 3.04662 8.94728C4.87839 8.79686 5.97219 8.07446 7.48489 6.99448Z" fill="url(#paint0_linear_621_141)" stroke="url(#paint1_linear_621_141)" stroke-width="0.6"/>
<path d="M1.17383 2.01258C1.17383 1.45335 1.62154 1 2.17384 1C2.72612 1 3.17383 1.45335 3.17383 2.01258C3.17383 2.57182 2.72612 3.02517 2.17384 3.02517C1.62154 3.02517 1.17383 2.57182 1.17383 2.01258Z" fill="url(#paint2_linear_621_141)"/>
<path d="M4.62988 1.75943C4.62988 1.34001 4.96568 1 5.37988 1C5.7941 1 6.12988 1.34001 6.12988 1.75943C6.12988 2.17885 5.7941 2.51886 5.37988 2.51886C4.96568 2.51886 4.62988 2.17885 4.62988 1.75943Z" fill="url(#paint3_linear_621_141)"/>
<path d="M2.32617 4.85224C2.32617 4.0134 2.99775 3.33337 3.82618 3.33337C4.65461 3.33337 5.32617 4.0134 5.32617 4.85224C5.32617 5.69109 4.65461 6.37112 3.82618 6.37112C2.99775 6.37112 2.32617 5.69109 2.32617 4.85224Z" fill="url(#paint4_linear_621_141)"/>
</g>
<defs>
<linearGradient id="paint0_linear_621_141" x1="7.99999" y1="15" x2="7.99999" y2="1" gradientUnits="userSpaceOnUse">
<stop stop-color="#FD3A84"/>
<stop offset="1" stop-color="#FFA68D"/>
</linearGradient>
<linearGradient id="paint1_linear_621_141" x1="7.99999" y1="15" x2="7.99999" y2="1" gradientUnits="userSpaceOnUse">
<stop stop-color="#FD3A84"/>
<stop offset="1" stop-color="#FFA68D"/>
</linearGradient>
<linearGradient id="paint2_linear_621_141" x1="1.17265" y1="4.93031" x2="9.17211" y2="4.93031" gradientUnits="userSpaceOnUse">
<stop stop-color="#FD3A84"/>
<stop offset="1" stop-color="#FFA68D"/>
</linearGradient>
<linearGradient id="paint3_linear_621_141" x1="0.129024" y1="3.9477" x2="6.12857" y2="3.9477" gradientUnits="userSpaceOnUse">
<stop stop-color="#FD3A84"/>
<stop offset="1" stop-color="#FFA68D"/>
</linearGradient>
<linearGradient id="paint4_linear_621_141" x1="0.825293" y1="3.24336" x2="6.82486" y2="3.24336" gradientUnits="userSpaceOnUse">
<stop stop-color="#FD3A84"/>
<stop offset="1" stop-color="#FFA68D"/>
</linearGradient>
<clipPath id="clip0_621_141">
<rect width="16" height="16" fill="white"/>
</clipPath>
</defs>
</svg>
