<svg width="16" height="16" viewBox="0 0 16 16" fill="none" xmlns="http://www.w3.org/2000/svg">
<path d="M9.33333 1C9.05719 1 8.83333 1.22386 8.83333 1.5V6.33333C8.83333 6.60948 8.60948 6.83333 8.33333 6.83333H5.83333C5.55719 6.83333 5.33333 7.05719 5.33333 7.33333V7.5C5.33333 7.77614 5.55719 8 5.83333 8H13C13.2761 8 13.5 7.77614 13.5 7.5V7.33333C13.5 7.05719 13.2761 6.83333 13 6.83333H10.5C10.2239 6.83333 10 6.60948 10 6.33333V1.5C10 1.22386 9.77614 1 9.5 1H9.33333ZM5.83333 9.16667C5.55719 9.16667 5.33425 9.39103 5.32487 9.66701C5.22336 12.6544 4.22125 15 3 15H7.66667H8.83333H11.1667C12.3879 15 13.39 12.6544 13.4915 9.66701C13.5009 9.39103 13.2761 9.16667 13 9.16667H11.1667H8.83333H7.66667H5.83333Z" fill="url(#paint0_linear)" stroke="url(#paint1_linear)" stroke-width="0.5"/>
<defs>
<linearGradient id="paint0_linear" x1="8.25" y1="15" x2="8.25" y2="1" gradientUnits="userSpaceOnUse">
<stop stop-color="#FFA800"/>
<stop offset="1" stop-color="#FFF737"/>
</linearGradient>
<linearGradient id="paint1_linear" x1="8.25" y1="15" x2="8.25" y2="1" gradientUnits="userSpaceOnUse">
<stop stop-color="#FFA800"/>
<stop offset="1" stop-color="#FFF737"/>
</linearGradient>
</defs>
</svg>
