<svg width="64" height="64" viewBox="0 0 64 64" fill="none" xmlns="http://www.w3.org/2000/svg">
<path d="M34.0815 9.05877C34.7187 9.05877 35.2353 9.57546 35.2353 10.2126V29.0815C35.2353 29.7187 35.7519 30.2353 36.3892 30.2353H36.5791C37.607 30.2353 38.1219 31.4781 37.395 32.205L32.5218 37.0782C32.0711 37.5289 31.3406 37.5289 30.89 37.0782L26.0168 32.205C25.29 31.4781 25.8047 30.2353 26.8327 30.2353H27.0226C27.6598 30.2353 28.1764 29.7187 28.1764 29.0815V10.2126C28.1764 9.57546 28.6931 9.05877 29.3303 9.05877H34.0815ZM42.2941 3.15385C42.2941 2.51659 41.7775 2 41.1402 2H22.2715C21.6342 2 21.1177 2.5166 21.1177 3.15385V22.0226C21.1177 22.6598 20.6011 23.1764 19.9638 23.1764H9.78562C8.75765 23.1764 8.24281 24.4193 8.96973 25.1462L30.89 47.0665C31.3406 47.517 32.0711 47.517 32.5218 47.0665L54.442 25.1462C55.1689 24.4193 54.6541 23.1764 53.6261 23.1764H43.4479C42.8108 23.1764 42.2941 22.6598 42.2941 22.0226V3.15385ZM56.4117 56.0951C56.4117 55.4578 55.8952 54.9411 55.2579 54.9411H8.15385C7.51658 54.9411 7 55.4578 7 56.095V60.8462C7 61.4834 7.51658 62 8.15385 62H55.2579C55.8952 62 56.4117 61.4834 56.4117 60.8462V56.0951Z" fill="url(#paint0_linear_621_151)"/>
<defs>
<linearGradient id="paint0_linear_621_151" x1="31.7059" y1="62" x2="31.7059" y2="2" gradientUnits="userSpaceOnUse">
<stop stop-color="#00B59C"/>
<stop offset="1" stop-color="#9CFFAC"/>
</linearGradient>
</defs>
</svg>
