<svg width="24" height="24" viewBox="0 0 24 24" fill="none" xmlns="http://www.w3.org/2000/svg">
<path d="M17.3615 7.20688C17.5177 7.05067 17.5177 6.7974 17.3615 6.64119L16.593 5.87269C16.4368 5.71648 16.1835 5.71648 16.0273 5.87268L10.5938 11.3061C10.4376 11.4623 10.4376 11.7156 10.5938 11.8718L11.3623 12.6403C11.5185 12.7965 11.7718 12.7965 11.928 12.6403L17.3615 7.20688ZM21.9392 5.87069C21.7828 5.71542 21.5303 5.71587 21.3745 5.87169L11.9277 15.3185C11.7716 15.4745 11.5186 15.4747 11.3623 15.3188L7.97273 11.9373C7.81646 11.7814 7.56346 11.7816 7.40738 11.9377L6.63854 12.7065C6.48233 12.8627 6.48233 13.116 6.63854 13.2722L11.3623 17.996C11.5185 18.1522 11.7718 18.1522 11.928 17.996L22.7162 7.20788C22.8728 7.05128 22.8723 6.79724 22.7152 6.6412L21.9392 5.87069ZM1.28485 12.7065C1.12769 12.8626 1.12724 13.1166 1.28384 13.2732L6.00661 17.996C6.16282 18.1522 6.41609 18.1522 6.5723 17.996L7.34106 17.2272C7.49717 17.0711 7.49728 16.818 7.34131 16.6618L2.6255 11.9375C2.46972 11.7815 2.21703 11.7809 2.06056 11.9363L1.28485 12.7065Z" fill="url(#paint0_linear_621_201)" stroke="url(#paint1_linear_621_201)"/>
<defs>
<linearGradient id="paint0_linear_621_201" x1="1.00322" y1="11.7464" x2="23.0036" y2="11.7464" gradientUnits="userSpaceOnUse">
<stop stop-color="#A93AFF"/>
<stop offset="1" stop-color="#FF81FF"/>
</linearGradient>
<linearGradient id="paint1_linear_621_201" x1="1.00322" y1="11.7464" x2="23.0036" y2="11.7464" gradientUnits="userSpaceOnUse">
<stop stop-color="#A93AFF"/>
<stop offset="1" stop-color="#FF81FF"/>
</linearGradient>
</defs>
</svg>
