<svg width="64" height="64" viewBox="0 0 64 64" fill="none" xmlns="http://www.w3.org/2000/svg">
<path d="M37.1319 50.75H40.0989C40.4923 50.75 40.8697 50.6018 41.148 50.3381C41.4262 50.0744 41.5824 49.7167 41.5824 49.3437V24.0313C41.5824 23.6583 41.4262 23.3006 41.148 23.0369C40.8697 22.7732 40.4923 22.625 40.0989 22.625H37.1319C36.7384 22.625 36.3611 22.7732 36.0828 23.0369C35.8046 23.3006 35.6484 23.6583 35.6484 24.0313V49.3437C35.6484 49.7167 35.8046 50.0744 36.0828 50.3381C36.3611 50.6018 36.7384 50.75 37.1319 50.75ZM57.4066 11.375H47.2186L43.0152 4.73047C42.4877 3.89728 41.7415 3.20785 40.8493 2.72932C39.9572 2.25081 38.9494 1.99954 37.9243 2H25.4603C24.4357 1.99994 23.4283 2.2514 22.5367 2.7299C21.645 3.2084 20.8991 3.89763 20.3718 4.73047L16.166 11.375H5.97803C5.45342 11.375 4.9503 11.5725 4.57935 11.9242C4.2084 12.2758 4 12.7527 4 13.25V15.125C4 15.6223 4.2084 16.0992 4.57935 16.4508C4.9503 16.8025 5.45342 17 5.97803 17H7.95608V56.375C7.95608 57.8668 8.58123 59.2976 9.69412 60.3524C10.807 61.4074 12.3163 62 13.8901 62H49.4945C51.0683 62 52.5776 61.4074 53.6905 60.3524C54.8034 59.2976 55.4285 57.8668 55.4285 56.375V17H57.4066C57.9312 17 58.4343 16.8025 58.8053 16.4508C59.1762 16.0992 59.3846 15.6223 59.3846 15.125V13.25C59.3846 12.7527 59.1762 12.2758 58.8053 11.9242C58.4343 11.5725 57.9312 11.375 57.4066 11.375ZM25.2439 7.96596C25.31 7.86165 25.4036 7.77546 25.5154 7.71569C25.6272 7.65592 25.7535 7.62465 25.8819 7.625H37.5027C37.6309 7.62489 37.7569 7.65615 37.8685 7.71592C37.9801 7.77569 38.0734 7.86188 38.1394 7.96596L40.2979 11.375H23.0867L25.2439 7.96596ZM49.4945 56.375H13.8901V17H49.4945V56.375ZM23.2857 50.75H26.2527C26.6462 50.75 27.0235 50.6018 27.3018 50.3381C27.58 50.0744 27.7362 49.7167 27.7362 49.3437V24.0313C27.7362 23.6583 27.58 23.3006 27.3018 23.0369C27.0235 22.7732 26.6462 22.625 26.2527 22.625H23.2857C22.8923 22.625 22.515 22.7732 22.2367 23.0369C21.9585 23.3006 21.8022 23.6583 21.8022 24.0313V49.3437C21.8022 49.7167 21.9585 50.0744 22.2367 50.3381C22.515 50.6018 22.8923 50.75 23.2857 50.75Z" fill="url(#paint0_linear_621_137)"/>
<defs>
<linearGradient id="paint0_linear_621_137" x1="57.5135" y1="3.71497" x2="32.7491" y2="61.1147" gradientUnits="userSpaceOnUse">
<stop stop-color="#FE0F7C"/>
<stop offset="1" stop-color="#DF0066"/>
</linearGradient>
</defs>
</svg>
