<svg width="128" height="128" viewBox="0 0 128 128" fill="none" xmlns="http://www.w3.org/2000/svg">
<path d="M62.9817 99.2706L51.6372 109.994C41.1938 120.288 24.2762 120.288 13.8326 109.994C3.38893 99.7001 3.38937 83.0254 13.8326 72.7315L34.6283 52.234C38.0782 48.8335 42.2366 46.598 46.6311 45.4334C51.3097 44.1759 56.2716 44.2223 60.9496 45.5733C65.1554 46.7377 69.1246 48.9734 72.4327 52.234C74.7544 54.5224 76.5639 57.1318 77.845 59.9176C78.7989 61.9919 77.8228 64.4582 75.6044 64.9983C71.2272 66.0638 66.4027 64.9216 62.9817 61.5496C58.587 57.2174 51.8764 56.5657 46.7732 59.5466C45.781 60.0587 44.8832 60.7573 44.0795 61.5496L23.2838 82.0474C18.0858 87.1709 18.0858 95.5551 23.2838 100.679C28.4818 105.802 36.988 105.802 42.186 100.679C47.9623 94.9368 51.3704 91.5649 53.3271 89.6372C55.394 87.6009 57.153 89.2063 59.072 91.3825C59.9522 92.3806 60.671 93.2026 61.4519 94.0089C63.0636 95.6729 64.6317 97.6446 62.9817 99.2706V99.2706Z" fill="url(#paint0_linear)"/>
<path d="M65.0183 28.4437L76.3628 17.7203C86.8062 7.42674 103.724 7.4263 114.167 17.7203C124.611 28.0142 124.611 44.6889 114.167 54.9829L93.3717 75.4804C89.9218 78.8809 85.7634 81.1163 81.3689 82.2809C76.6903 83.5384 71.7284 83.4921 67.0504 82.1411C62.8446 80.9767 58.8754 78.741 55.5673 75.4804C53.2456 73.1919 51.4361 70.5825 50.155 67.7968C49.2011 65.7225 50.1772 63.2561 52.3956 62.7161C56.7728 61.6505 61.5973 62.7928 65.0183 66.1648C69.413 70.497 76.1236 71.1486 81.2268 68.1677C82.219 67.6557 83.1168 66.957 83.9205 66.1648L104.716 45.6669C109.914 40.5434 109.914 32.1593 104.716 27.0358C99.5182 21.9123 91.012 21.9123 85.814 27.0358C80.0377 32.7775 76.6296 36.1495 74.6729 38.0772C72.606 40.1134 70.847 38.5081 68.928 36.3319C68.0478 35.3337 67.329 34.5117 66.5481 33.7055C64.9364 32.0414 63.3683 30.0698 65.0183 28.4437V28.4437Z" fill="url(#paint1_linear)"/>
<path d="M87.6684 100.227C86.7188 99.0234 86.8562 97.2589 87.9759 96.2815C89.0952 95.3041 90.7691 95.4871 91.7187 96.6906L95.1548 101.046C96.1045 102.249 95.9674 104.014 94.8477 104.991C93.7285 105.969 92.0541 105.785 91.1045 104.582L87.6684 100.227Z" fill="url(#paint2_linear)"/>
<path d="M98.0315 80.8499C98.5161 79.4066 100.042 78.6818 101.428 79.2314L106.429 81.2356C107.811 81.7889 108.529 83.4097 108.034 84.858C107.546 86.2898 106.033 87.0325 104.639 86.4761L99.6371 84.4722C98.2551 83.919 97.5374 82.2977 98.0315 80.8499Z" fill="url(#paint3_linear)"/>
<path d="M69.5669 107.049C69.3063 105.517 70.2568 104.08 71.7045 103.836C73.1483 103.592 74.5308 104.633 74.7931 106.163L75.7444 111.704C76.0067 113.246 75.0367 114.675 73.6068 114.917C72.163 115.161 70.7801 114.12 70.5178 112.589L69.5669 107.049Z" fill="url(#paint4_linear)"/>
<path d="M24.6307 49.7069L24.631 49.7056C25.0378 48.3884 24.2837 46.9663 22.9396 46.5328L22.9396 46.5327L17.6592 44.8281C16.3055 44.3933 14.9027 45.1275 14.5016 46.4266L14.2856 46.3614L14.5016 46.4266C14.0948 47.7439 14.8489 49.1662 16.193 49.5997H16.193L21.473 51.3039L24.6307 49.7069ZM24.6307 49.7069C24.2348 51.0128 22.8202 51.7339 21.4737 51.3044L24.6307 49.7069ZM50.997 25.8449V25.845C49.634 26.1292 48.268 25.2605 47.9503 23.8985L47.9502 23.8984L46.6999 18.5467C46.3821 17.1771 47.2432 15.8584 48.5892 15.5777C49.9518 15.2934 51.318 16.162 51.6359 17.5242V17.5242L52.8861 22.876C52.8861 22.876 52.8861 22.876 52.8861 22.8761C53.2017 24.2379 52.3592 25.5618 50.997 25.8449ZM34.4992 30.5234C35.46 31.5616 35.4016 33.1467 34.3831 34.0683C33.3647 34.99 31.7629 34.9074 30.802 33.8692L27.032 29.7958C26.0711 28.7576 26.1296 27.1725 27.1481 26.2508C28.1665 25.3291 29.7683 25.4117 30.7292 26.4499L34.4992 30.5234Z" fill="url(#paint5_linear)"/>
<defs>
<linearGradient id="paint0_linear" x1="42.5952" y1="117.714" x2="42.5952" y2="44.5239" gradientUnits="userSpaceOnUse">
<stop stop-color="#5570FF"/>
<stop offset="1" stop-color="#4DD3FF"/>
</linearGradient>
<linearGradient id="paint1_linear" x1="85.4048" y1="9.99995" x2="85.4048" y2="83.1904" gradientUnits="userSpaceOnUse">
<stop stop-color="#5570FF"/>
<stop offset="1" stop-color="#4DD3FF"/>
</linearGradient>
<linearGradient id="paint2_linear" x1="88.8573" y1="114.952" x2="88.8573" y2="79.0476" gradientUnits="userSpaceOnUse">
<stop stop-color="#5570FF"/>
<stop offset="1" stop-color="#4DD3FF"/>
</linearGradient>
<linearGradient id="paint3_linear" x1="88.8573" y1="114.952" x2="88.8573" y2="79.0476" gradientUnits="userSpaceOnUse">
<stop stop-color="#5570FF"/>
<stop offset="1" stop-color="#4DD3FF"/>
</linearGradient>
<linearGradient id="paint4_linear" x1="88.8573" y1="114.952" x2="88.8573" y2="79.0476" gradientUnits="userSpaceOnUse">
<stop stop-color="#5570FF"/>
<stop offset="1" stop-color="#4DD3FF"/>
</linearGradient>
<linearGradient id="paint5_linear" x1="33.619" y1="51.4286" x2="33.619" y2="15.5238" gradientUnits="userSpaceOnUse">
<stop stop-color="#5570FF"/>
<stop offset="1" stop-color="#4DD3FF"/>
</linearGradient>
</defs>
</svg>
