<svg width="16" height="16" viewBox="0 0 16 16" fill="none" xmlns="http://www.w3.org/2000/svg">
<path d="M12.6667 1H3.33333C2.04467 1 1 2.04467 1 3.33333V12.6667C1 13.9553 2.04467 15 3.33333 15H12.6667C13.9553 15 15 13.9553 15 12.6667V3.33333C15 2.04467 13.9553 1 12.6667 1Z" fill="url(#paint0_linear)"/>
<path d="M8 4C6.8402 4 5.9 4.89542 5.9 6V7.71429C5.9 7.87208 5.76942 8 5.60833 8H4.79167C4.63058 8 4.5 8.12792 4.5 8.28571V11.7143C4.5 11.8721 4.63058 12 4.79167 12H11.2083C11.3694 12 11.5 11.8721 11.5 11.7143V8.28571C11.5 8.12792 11.3694 8 11.2083 8H10.3917C10.2306 8 10.1 7.87208 10.1 7.71429V6C10.1 4.89542 9.15981 4 8 4ZM8 4.66667C8.7732 4.66667 9.4 5.26362 9.4 6V7.71429C9.4 7.87208 9.26939 8 9.10833 8H6.89167C6.73058 8 6.6 7.87208 6.6 7.71429V6C6.6 5.26362 7.2268 4.66667 8 4.66667Z" fill="white"/>
<defs>
<linearGradient id="paint0_linear" x1="8" y1="15" x2="8" y2="1" gradientUnits="userSpaceOnUse">
<stop stop-color="#FD3A84"/>
<stop offset="1" stop-color="#FFA68D"/>
</linearGradient>
</defs>
</svg>
