<svg width="192" height="192" viewBox="0 0 192 192" fill="none" xmlns="http://www.w3.org/2000/svg">
<path d="M57.0899 23.93C53.0299 20.37 56.3599 12.34 61.9599 13.68C72.3199 16.43 82.3499 20.32 92.5999 23.46C95.0799 24.41 98.2199 24.77 99.7199 27.25C101.21 29.34 100.35 31.99 100.28 34.34C95.3499 37.02 89.6299 36.42 84.2899 37.41C67.5999 40.08 52.5199 50.49 43.5799 64.75C37.8399 73.78 34.4899 84.36 34.1899 95.07C34.0299 96.84 34.2199 98.77 33.3699 100.41C31.3199 103.55 26.2099 104.12 23.6299 101.34C22.3199 99.92 22.4199 97.86 22.3399 96.07C21.9399 77.22 30.3099 58.77 43.4699 45.48C50.7399 38.01 59.9999 33.01 69.3499 28.63C65.2499 27.11 60.8199 26.26 57.0899 23.93Z" fill="url(#paint0_linear)"/>
<path d="M155.39 95.94C155.15 92.89 157.02 89.66 160.21 89.16C163.32 88.51 166.75 90.81 167.08 94.02C167.98 110.16 162.97 126.46 153.63 139.6C145.52 150.74 134.22 159.16 121.67 164.68C123.03 165.06 124.38 165.46 125.74 165.86C128.2 166.66 130.93 167.25 132.86 169.1C134.75 171.45 133.51 174.49 133.14 177.13C130.77 178.04 128.23 179.27 125.66 178.35C116.23 175.94 106.88 173.25 97.4899 170.69C94.4499 169.9 91.5299 168.71 88.7899 167.18C88.5399 163.94 88.9999 160.7 90.9899 158.03C106.47 157.99 122.24 153.33 133.99 142.97C147.63 131.46 155.22 113.67 155.39 95.94Z" fill="url(#paint1_linear)"/>
<path fill-rule="evenodd" clip-rule="evenodd" d="M116.32 26.32C127.06 14.95 145.48 12.79 158.85 20.75C165.22 24.79 170.66 30.53 173.31 37.69C177.5 48.37 176.18 61.11 169.66 70.59C164.16 78.41 155.38 83.77 145.9 85.08C136.56 86.49 126.83 83.66 119.4 77.9C117.15 76.02 115.12 73.88 113.26 71.61C103.04 58.42 104.46 38.04 116.32 26.32ZM152.65 31.17C142.92 24.89 128.94 28.06 122.63 37.68C115.92 46.7 117.63 60.32 126.03 67.68C129.42 70.53 133.53 72.6 137.95 73.18C148.97 74.95 160.48 67.08 163.1 56.29C164.37 50.4 163.77 43.83 160.3 38.76C158.33 35.71 155.66 33.18 152.65 31.17Z" fill="url(#paint2_linear)"/>
<path fill-rule="evenodd" clip-rule="evenodd" d="M15.6699 116.96C15.5099 113.87 17.3799 110.17 20.9699 110.57C28.9651 110.517 36.9602 110.581 44.9554 110.645C53.4302 110.714 61.9051 110.782 70.3799 110.71C71.0407 110.735 71.7193 110.731 72.4043 110.727C74.9953 110.711 77.6766 110.694 79.8199 112.26C81.3599 113.29 81.5299 115.28 81.5499 116.96C81.6615 126.762 81.6455 136.567 81.6294 146.374C81.6182 153.265 81.6069 160.158 81.6399 167.05C81.6699 169.4 81.4599 171.74 81.0999 174.07C78.6199 175.34 75.9199 176.23 73.0899 176.05C65.4697 176.004 57.8474 176.011 50.2239 176.018C41.3803 176.027 32.5351 176.035 23.6899 175.96C21.8219 175.932 19.9624 175.708 18.1115 175.484C17.9609 175.466 17.8104 175.448 17.6599 175.43C17.5228 175.116 17.38 174.802 17.2368 174.486C16.4503 172.755 15.6507 170.996 15.7099 169.05C15.5799 151.69 15.5099 134.32 15.6699 116.96ZM47.8004 122.213C41.0661 122.219 34.3313 122.226 27.5999 122.18C27.7087 133.014 27.6906 143.855 27.6724 154.696C27.6673 157.794 27.6621 160.892 27.6599 163.99C28.7585 163.999 29.8564 164.006 30.9539 164.012C33.7023 164.03 36.4485 164.047 39.1999 164.09C49.3399 164.14 59.4799 164.17 69.6199 164.08C69.5899 150.11 69.5699 136.14 69.6299 122.17C67.3999 122.2 65.1799 122.21 62.9499 122.22C57.9013 122.203 52.851 122.208 47.8004 122.213Z" fill="url(#paint3_linear)"/>
<defs>
<linearGradient id="paint0_linear" x1="94.7547" y1="178.675" x2="94.7547" y2="13.5308" gradientUnits="userSpaceOnUse">
<stop stop-color="#02AA93"/>
<stop offset="1" stop-color="#67FF80"/>
</linearGradient>
<linearGradient id="paint1_linear" x1="94.7547" y1="178.675" x2="94.7547" y2="13.5308" gradientUnits="userSpaceOnUse">
<stop stop-color="#02AA93"/>
<stop offset="1" stop-color="#67FF80"/>
</linearGradient>
<linearGradient id="paint2_linear" x1="141.071" y1="85.4379" x2="141.071" y2="15.9973" gradientUnits="userSpaceOnUse">
<stop stop-color="#02AA93"/>
<stop offset="1" stop-color="#67FF80"/>
</linearGradient>
<linearGradient id="paint3_linear" x1="48.61" y1="176.073" x2="48.61" y2="110.54" gradientUnits="userSpaceOnUse">
<stop stop-color="#02AA93"/>
<stop offset="1" stop-color="#67FF80"/>
</linearGradient>
</defs>
</svg>
