<svg width="16" height="16" viewBox="0 0 16 16" fill="none" xmlns="http://www.w3.org/2000/svg">
<g clip-path="url(#clip0_625_2)">
<path d="M3.82857 0C3.60766 0 3.42857 0.179086 3.42857 0.4V3.02857C3.42857 3.24949 3.24949 3.42857 3.02857 3.42857H0.4C0.179086 3.42857 0 3.60766 0 3.82857V5.31429C0 5.5352 0.179086 5.71429 0.4 5.71429H3.02857C3.24949 5.71429 3.42857 5.89337 3.42857 6.11429V9.88571C3.42857 10.1066 3.24949 10.2857 3.02857 10.2857H0.4C0.179086 10.2857 0 10.4648 0 10.6857V12.1714C0 12.3923 0.179086 12.5714 0.4 12.5714H3.02857C3.24949 12.5714 3.42857 12.7505 3.42857 12.9714V15.6C3.42857 15.8209 3.60766 16 3.82857 16H5.31429C5.5352 16 5.71429 15.8209 5.71429 15.6V12.9714C5.71429 12.7505 5.89337 12.5714 6.11429 12.5714H9.88571C10.1066 12.5714 10.2857 12.7505 10.2857 12.9714V15.6C10.2857 15.8209 10.4648 16 10.6857 16H12.1714C12.3923 16 12.5714 15.8209 12.5714 15.6V12.9714C12.5714 12.7505 12.7505 12.5714 12.9714 12.5714H15.6C15.8209 12.5714 16 12.3923 16 12.1714V10.6857C16 10.4648 15.8209 10.2857 15.6 10.2857H12.9714C12.7505 10.2857 12.5714 10.1066 12.5714 9.88571V6.11429C12.5714 5.89337 12.7505 5.71429 12.9714 5.71429H15.6C15.8209 5.71429 16 5.5352 16 5.31429V3.82857C16 3.60766 15.8209 3.42857 15.6 3.42857H12.9714C12.7505 3.42857 12.5714 3.24949 12.5714 3.02857V0.4C12.5714 0.179086 12.3923 0 12.1714 0H10.6857C10.4648 0 10.2857 0.179086 10.2857 0.4V3.02857C10.2857 3.24949 10.1066 3.42857 9.88571 3.42857H6.11429C5.89337 3.42857 5.71429 3.24949 5.71429 3.02857V0.4C5.71429 0.179086 5.5352 0 5.31429 0H3.82857ZM5.71429 6.11429C5.71429 5.89337 5.89337 5.71429 6.11429 5.71429H9.88571C10.1066 5.71429 10.2857 5.89337 10.2857 6.11429V9.88571C10.2857 10.1066 10.1066 10.2857 9.88571 10.2857H6.11429C5.89337 10.2857 5.71429 10.1066 5.71429 9.88571V6.11429Z" fill="url(#paint0_linear_625_2)"/>
<path fill-rule="evenodd" clip-rule="evenodd" d="M5.71443 0.4C5.71443 0.179086 5.53534 0 5.31443 0H3.82871C3.6078 0 3.42871 0.179086 3.42871 0.4V15.6C3.42871 15.8209 3.6078 16 3.82871 16H5.31443C5.53534 16 5.71443 15.8209 5.71443 15.6V0.4ZM12.5714 0.4C12.5714 0.179086 12.3923 0 12.1714 0H10.6857C10.4648 0 10.2857 0.179086 10.2857 0.4V15.6C10.2857 15.8209 10.4648 16 10.6857 16H12.1714C12.3923 16 12.5714 15.8209 12.5714 15.6V0.4Z" fill="url(#paint1_linear_625_2)"/>
</g>
<defs>
<linearGradient id="paint0_linear_625_2" x1="7.30425" y1="15.5703" x2="9.11193" y2="1.11263" gradientUnits="userSpaceOnUse">
<stop stop-color="#8D01A2"/>
<stop offset="1" stop-color="#FF33DB"/>
</linearGradient>
<linearGradient id="paint1_linear_625_2" x1="5.08585" y1="14.1111" x2="16.716" y2="8.31251" gradientUnits="userSpaceOnUse">
<stop stop-color="#FE0844"/>
<stop offset="1" stop-color="#FEB302"/>
</linearGradient>
<clipPath id="clip0_625_2">
<rect width="16" height="16" fill="white"/>
</clipPath>
</defs>
</svg>
