<svg width="16" height="16" viewBox="0 0 16 16" fill="none" xmlns="http://www.w3.org/2000/svg">
<path d="M13.1494 1.09069L13.1489 1.09078L13.1483 1.09089C12.29 1.25887 11.431 1.42429 10.5716 1.58975C9.18379 1.85697 7.79545 2.1243 6.40932 2.40267C6.18771 2.41598 6.01196 2.5438 5.89655 2.71042C5.78109 2.87709 5.7212 3.08866 5.73307 3.28368C5.73454 4.20432 5.7343 5.12517 5.73406 6.04609C5.7337 7.4604 5.73334 8.87487 5.73914 10.2892C5.15744 9.96487 4.44518 9.88702 3.80605 10.0772C2.84576 10.351 2.1014 11.2373 2.01557 12.2308C1.9141 13.0974 2.31541 13.9928 3.02193 14.5069C3.6591 14.9818 4.5301 15.1308 5.28856 14.8788C6.0539 14.6429 6.66976 14.0158 6.91698 13.2624C7.02923 13.0027 7.05265 12.7321 7.04988 12.4664C7.04862 12.3447 7.04179 12.2223 7.0351 12.1024C7.03447 12.091 7.03384 12.0797 7.03321 12.0683C7.02592 11.9367 7.01943 11.808 7.02059 11.6815V11.6808C7.02095 11.0525 7.0209 10.4243 7.02085 9.79611C7.02079 8.76984 7.02071 7.74383 7.02238 6.71808C7.37991 6.64169 7.74148 6.58557 8.10568 6.52905L8.10912 6.52852C8.49411 6.46877 8.88206 6.40849 9.26625 6.3234L9.26656 6.32335C9.51731 6.26694 9.77145 6.22734 10.0284 6.18729C10.0585 6.1826 10.0886 6.1779 10.1188 6.17317C10.4055 6.12822 10.6951 6.0803 10.9801 6.0056L10.9817 6.00519L10.9832 6.0047C11.1364 5.95745 11.277 5.85241 11.3676 5.71799C11.4585 5.58286 11.5019 5.41292 11.4486 5.24047L11.4466 5.2338L11.4433 5.22761C11.3743 5.09535 11.2666 4.96465 11.1332 4.8778C10.9996 4.79083 10.8363 4.74584 10.6626 4.7949C10.5572 4.81584 10.4522 4.83732 10.3474 4.85876C9.91632 4.94693 9.48914 5.03431 9.05473 5.08015L9.05258 5.08037L9.05043 5.08071C8.76682 5.12678 8.48474 5.18191 8.20409 5.23674C8.13252 5.25073 8.06105 5.2647 7.98967 5.27848C7.66644 5.34094 7.34445 5.39998 7.02029 5.4422C7.02233 5.14038 7.02201 4.83879 7.02169 4.53756L7.02165 4.50192C7.02132 4.18053 7.02109 3.85955 7.02381 3.53845C7.18292 3.50841 7.34206 3.47838 7.50121 3.44835C9.35493 3.09861 11.2109 2.74845 13.0593 2.36381C13.0663 3.56782 13.0653 4.76988 13.0643 5.97212C13.0633 7.01034 13.0625 8.0487 13.0668 9.08854C12.3653 8.76492 11.493 8.82665 10.8654 9.29307C10.141 9.7998 9.79909 10.7699 10.0439 11.6153C10.2472 12.387 10.9152 13.0121 11.7026 13.1642C12.4037 13.3118 13.1661 13.0791 13.6672 12.5712C14.1755 12.0693 14.3752 11.3284 14.3235 10.6406C14.3199 8.99295 14.3208 7.34541 14.3217 5.69782C14.3226 4.35932 14.3233 3.02076 14.3216 1.68199C14.3454 1.39808 14.1319 1.18316 13.938 1.05909L13.9334 1.05616L13.9284 1.0539C13.7901 0.990891 13.6497 0.992277 13.519 1.01211C13.4538 1.02201 13.3893 1.03681 13.3278 1.0513C13.3209 1.05292 13.3141 1.05454 13.3073 1.05615C13.2525 1.06912 13.2005 1.08143 13.1494 1.09069ZM11.7862 10.1746L11.7872 10.1742L11.7881 10.1738C12.0511 10.0559 12.3561 10.0941 12.6033 10.2389C12.8505 10.3837 13.0309 10.6295 13.0524 10.9154L13.0527 10.9201L13.0536 10.9247C13.1099 11.209 13 11.495 12.798 11.6999C12.5958 11.9049 12.3089 12.0213 12.0214 11.975L12.019 11.9746L12.0166 11.9744C11.4896 11.9231 11.0909 11.3634 11.2155 10.8524L11.2158 10.8511L11.2161 10.8498C11.278 10.5507 11.5016 10.2929 11.7862 10.1746ZM4.11524 11.2602L4.11584 11.2599L4.11643 11.2598C4.74067 11.0439 5.51152 11.3945 5.71007 12.0225C5.754 12.3276 5.74818 12.6432 5.71816 12.9546C5.5099 13.5592 4.78802 13.9166 4.17041 13.7308L4.16907 13.7303L4.16773 13.73C3.54342 13.5666 3.11601 12.8847 3.24793 12.2553L3.24815 12.2542L3.24834 12.2532C3.33059 11.7988 3.67505 11.4043 4.11524 11.2602Z" fill="url(#paint0_linear)" stroke="url(#paint1_linear)" stroke-width="0.5"/>
<defs>
<linearGradient id="paint0_linear" x1="8.1657" y1="1" x2="8.1657" y2="15" gradientUnits="userSpaceOnUse">
<stop stop-color="#DC18FC"/>
<stop offset="1" stop-color="#8E1EFF"/>
</linearGradient>
<linearGradient id="paint1_linear" x1="8.1657" y1="1" x2="8.1657" y2="15" gradientUnits="userSpaceOnUse">
<stop stop-color="#DC18FC"/>
<stop offset="1" stop-color="#8E1EFF"/>
</linearGradient>
</defs>
</svg>
