<svg width="16" height="16" viewBox="0 0 16 16" fill="none" xmlns="http://www.w3.org/2000/svg">
<path d="M1.5 1C1.22386 1 1 1.22386 1 1.5V2.16667V5.66667V6.83333V13.8333V14.5C1 14.7761 1.22386 15 1.5 15H8.66667C8.94281 15 9.16667 14.7761 9.16667 14.5V14.3333C9.16667 14.0572 8.94281 13.8333 8.66667 13.8333H2.66667C2.39052 13.8333 2.16667 13.6095 2.16667 13.3333V7.33333C2.16667 7.05719 2.39052 6.83333 2.66667 6.83333H13.3333C13.6095 6.83333 13.8333 7.05719 13.8333 7.33333V8.66667C13.8333 8.94281 14.0572 9.16667 14.3333 9.16667H14.5C14.7761 9.16667 15 8.94281 15 8.66667V5.66667V4.5V3.83333C15 3.55719 14.7761 3.33333 14.5 3.33333H9.38289C9.25028 3.33333 9.1231 3.28065 9.02933 3.18689L6.84512 1.00267C6.84364 1.0012 6.84125 1.0012 6.83978 1.00267L6.83789 1.00456C6.83621 1.00624 6.83333 1.00505 6.83333 1.00267V1.00267C6.83333 1.0012 6.83214 1 6.83066 1H2.16667H1.5ZM2.16667 2.66667C2.16667 2.39052 2.39052 2.16667 2.66667 2.16667H6.15028C6.28271 2.16667 6.40974 2.21921 6.50348 2.31277L7.17921 2.98718C7.30709 3.11481 7.2167 3.33333 7.03602 3.33333H6.836C6.83453 3.33333 6.83333 3.33453 6.83333 3.336V3.336C6.83333 3.33838 6.83046 3.33957 6.82878 3.33789L6.82689 3.336C6.82541 3.33453 6.82302 3.33453 6.82155 3.336L4.63733 5.52022C4.54356 5.61399 4.41639 5.66667 4.28378 5.66667H2.66667C2.39052 5.66667 2.16667 5.44281 2.16667 5.16667V2.66667Z" fill="url(#paint0_linear)"/>
<path d="M10.8 10.3V8.5C10.8 8.22386 11.0239 8 11.3 8H11.7C11.9761 8 12.2 8.22386 12.2 8.5V10.3C12.2 10.5761 12.4239 10.8 12.7 10.8H14.5C14.7761 10.8 15 11.0239 15 11.3V11.7C15 11.9761 14.7761 12.2 14.5 12.2H12.7C12.4239 12.2 12.2 12.4239 12.2 12.7V14.5C12.2 14.7761 11.9761 15 11.7 15H11.3C11.0239 15 10.8 14.7761 10.8 14.5V12.7C10.8 12.4239 10.5761 12.2 10.3 12.2H8.5C8.22386 12.2 8 11.9761 8 11.7V11.3C8 11.0239 8.22386 10.8 8.5 10.8H10.3C10.5761 10.8 10.8 10.5761 10.8 10.3Z" fill="url(#paint1_linear)"/>
<defs>
<linearGradient id="paint0_linear" x1="8" y1="15" x2="8" y2="1" gradientUnits="userSpaceOnUse">
<stop stop-color="#5570FF"/>
<stop offset="1" stop-color="#4DD3FF"/>
</linearGradient>
<linearGradient id="paint1_linear" x1="11.5" y1="8" x2="11.5" y2="15" gradientUnits="userSpaceOnUse">
<stop stop-color="#97EB0E"/>
<stop offset="1" stop-color="#19B90B"/>
</linearGradient>
</defs>
</svg>
