<svg width="16" height="16" viewBox="0 0 16 16" fill="none" xmlns="http://www.w3.org/2000/svg">
<path d="M5.375 1C5.375 1 5.375 1 5.375 1C5.375 1 1.58404 1.00001 1.05985 4.52887C1.02884 4.73762 1.30489 4.81603 1.42577 4.64303C2.1647 3.5855 3.0716 3.38355 5.12607 3.37049C5.23667 3.36978 5.32708 3.46443 5.32653 3.57503C5.28093 12.7313 2.86372 12.9847 2.75386 14.4084C2.74907 14.4705 2.77887 14.5306 2.82976 14.5665C4.14465 15.493 6.11829 14.9175 6.26595 12.9766L7.03939 3.52541C7.04786 3.42193 7.13411 3.34214 7.23794 3.34173L10.3229 3.32963C10.4401 3.32917 10.5325 3.42909 10.523 3.54587L9.75 13.0313C9.75 15.6562 13.25 15.6562 14.125 13.0313V13.0313C14.2022 12.7996 13.508 12.4301 13.3271 12.5942C12.4135 13.4228 11.5325 13.6746 11.5775 12.1107L12.3026 3.52499C12.3113 3.42169 12.3976 3.34218 12.5012 3.34183L14.8007 3.33401C14.9109 3.33364 15 3.2442 15 3.13401V1.2C15 1.08954 14.9105 1 14.8 1H5.375Z" fill="url(#paint0_linear)"/>
<defs>
<linearGradient id="paint0_linear" x1="8" y1="1" x2="8" y2="15" gradientUnits="userSpaceOnUse">
<stop stop-color="#DC18FC"/>
<stop offset="1" stop-color="#8E1EFF"/>
</linearGradient>
</defs>
</svg>
