<svg width="16" height="16" viewBox="0 0 16 16" fill="none" xmlns="http://www.w3.org/2000/svg">
<path d="M1.4 1C1.17909 1 1 1.17909 1 1.4V2.6C1 2.82091 1.17909 3 1.4 3H14.6C14.8209 3 15 2.82091 15 2.6V1.4C15 1.17909 14.8209 1 14.6 1H1.4ZM7.4 5C7.17909 5 7 5.17909 7 5.4V6.6C7 6.82091 7.17909 7 7.4 7H14.6C14.8209 7 15 6.82091 15 6.6V5.4C15 5.17909 14.8209 5 14.6 5H7.4ZM7.4 9C7.17909 9 7 9.17909 7 9.4V10.6C7 10.8209 7.17909 11 7.4 11H14.6C14.8209 11 15 10.8209 15 10.6V9.4C15 9.17909 14.8209 9 14.6 9H7.4ZM1.4 13C1.17909 13 1 13.1791 1 13.4V14.6C1 14.8209 1.17909 15 1.4 15H14.6C14.8209 15 15 14.8209 15 14.6V13.4C15 13.1791 14.8209 13 14.6 13H1.4Z" fill="url(#paint0_linear_622_20)"/>
<defs>
<linearGradient id="paint0_linear_622_20" x1="14" y1="8.5" x2="2.63874" y2="9.7555" gradientUnits="userSpaceOnUse">
<stop stop-color="#8D01A2"/>
<stop offset="1" stop-color="#FF00D2"/>
</linearGradient>
</defs>
</svg>
