<svg width="16" height="16" viewBox="0 0 16 16" fill="none" xmlns="http://www.w3.org/2000/svg">
<path d="M1.4 1C1.17909 1 1 1.17909 1 1.4V2.6C1 2.82091 1.17909 3 1.4 3H14.6C14.8209 3 15 2.82091 15 2.6V1.4C15 1.17909 14.8209 1 14.6 1H1.4ZM4.4 5C4.17909 5 4 5.17909 4 5.4V6.6C4 6.82091 4.17909 7 4.4 7H11.6C11.8209 7 12 6.82091 12 6.6V5.4C12 5.17909 11.8209 5 11.6 5H4.4ZM4.4 9C4.17909 9 4 9.17909 4 9.4V10.6C4 10.8209 4.17909 11 4.4 11H11.6C11.8209 11 12 10.8209 12 10.6V9.4C12 9.17909 11.8209 9 11.6 9H4.4ZM1.4 13C1.17909 13 1 13.1791 1 13.4V14.6C1 14.8209 1.17909 15 1.4 15H14.6C14.8209 15 15 14.8209 15 14.6V13.4C15 13.1791 14.8209 13 14.6 13H1.4Z" fill="url(#paint0_linear_622_22)"/>
<defs>
<linearGradient id="paint0_linear_622_22" x1="3.5375" y1="13.3472" x2="16.1622" y2="2.33196" gradientUnits="userSpaceOnUse">
<stop stop-color="#FE0844"/>
<stop offset="1" stop-color="#FEB302"/>
</linearGradient>
</defs>
</svg>
