<svg width="16" height="16" viewBox="0 0 16 16" fill="none" xmlns="http://www.w3.org/2000/svg">
<path d="M2.25461 2.53769C1.82649 2.35421 1.40213 2.80426 1.61043 3.22087L3.8882 7.77639C3.95858 7.91716 3.95858 8.08284 3.8882 8.22361L1.61043 12.7791C1.40213 13.1957 1.82649 13.6458 2.25461 13.4623L13.9277 8.45957C14.3317 8.28641 14.3317 7.71359 13.9277 7.54043L2.25461 2.53769ZM3.72562 5.21687C3.51732 4.80027 3.94165 4.35022 4.36977 4.53368L11.3865 7.54042C11.7906 7.71357 11.7906 8.28643 11.3865 8.45958L4.36977 11.4663C3.94165 11.6498 3.51732 11.1997 3.72562 10.7831L5.00538 8.22361C5.07577 8.08284 5.07577 7.91716 5.00538 7.77639L3.72562 5.21687Z" fill="url(#paint0_linear)"/>
<defs>
<linearGradient id="paint0_linear" x1="2" y1="8" x2="13.312" y2="6.54161" gradientUnits="userSpaceOnUse">
<stop stop-color="#8D01A2"/>
<stop offset="1" stop-color="#FF00D2"/>
</linearGradient>
</defs>
</svg>
