<svg width="16" height="16" viewBox="0 0 16 16" fill="none" xmlns="http://www.w3.org/2000/svg">
<path d="M8.35158 1.14449C8.15678 0.951837 7.84322 0.951837 7.64842 1.14449L7.17743 1.61027L7.17741 1.61483V1.61937L1.00161 7.7929L1 7.79679V8.46346C1 8.73959 1.22386 8.96345 1.5 8.96345H1.67578C1.95192 8.96345 2.17578 9.1873 2.17578 9.46345V13.6256C2.17578 13.6281 2.17374 13.6301 2.17122 13.6301C2.16871 13.6301 2.16667 13.6322 2.16667 13.6346V14.2968C2.16667 14.5729 2.39052 14.7968 2.66667 14.7968H13.3333C13.6095 14.7968 13.8333 14.5729 13.8333 14.2968V13.6301V9.46345C13.8333 9.1873 14.0572 8.96345 14.3333 8.96345H14.5C14.7761 8.96345 15 8.73959 15 8.46346V7.79679L14.9984 7.7929L14.0205 6.81506C13.8253 6.61978 13.5087 6.61978 13.3134 6.81506L13.0005 7.12804C12.9168 7.2117 12.9168 7.34736 13.0005 7.43104L13.0164 7.44702C13.1455 7.57609 13.0541 7.79679 12.8716 7.79679C12.7584 7.79679 12.6667 7.88852 12.6667 8.00168V13.1301C12.6667 13.4063 12.4428 13.6301 12.1667 13.6301H9.66667C9.39052 13.6301 9.16667 13.4063 9.16667 13.1301V10.6301C9.16667 10.354 8.94281 10.1301 8.66667 10.1301H7.33333C7.05719 10.1301 6.83333 10.354 6.83333 10.6301V13.1301C6.83333 13.4063 6.60948 13.6301 6.33333 13.6301H3.83333C3.55719 13.6301 3.33333 13.4063 3.33333 13.1301V8.96345V8.00164C3.33333 7.8885 3.24162 7.79679 3.12849 7.79679C2.94596 7.79679 2.85458 7.5761 2.98367 7.44706L7.99658 2.43628H7.99886H8.00114L8.00342 2.43627L9.33037 3.76142C9.52567 3.95646 9.84205 3.95635 10.0372 3.76118L10.1482 3.65026C10.3435 3.4549 10.3434 3.13812 10.1479 2.94291L8.82259 1.61937V1.61483L8.82257 1.61027L8.35158 1.14449ZM12 1.96345C11.7239 1.96345 11.5 2.1873 11.5 2.46345V4.96346C11.5 5.23959 11.7239 5.46345 12 5.46345H12.1758C12.4519 5.46345 12.6758 5.23959 12.6758 4.96346V2.46345C12.6758 2.1873 12.4519 1.96345 12.1758 1.96345H12Z" fill="url(#paint0_linear_646_4)" stroke="url(#paint1_linear_646_4)" stroke-width="0.4"/>
<defs>
<linearGradient id="paint0_linear_646_4" x1="2" y1="7.79679" x2="13.3613" y2="6.54129" gradientUnits="userSpaceOnUse">
<stop stop-color="#8D01A2"/>
<stop offset="1" stop-color="#FF00D2"/>
</linearGradient>
<linearGradient id="paint1_linear_646_4" x1="2" y1="7.79679" x2="13.3613" y2="6.54129" gradientUnits="userSpaceOnUse">
<stop stop-color="#8D01A2"/>
<stop offset="1" stop-color="#FF00D2"/>
</linearGradient>
</defs>
</svg>
