<svg width="16" height="16" viewBox="0 0 16 16" fill="none" xmlns="http://www.w3.org/2000/svg">
<path d="M10.5 1C9.669 1 9 1.669 9 2.5V5.5C9 6.331 9.669 7 10.5 7H13.5C14.331 7 15 6.331 15 5.5V2.5C15 1.669 14.331 1 13.5 1H10.5ZM11 3H13V5H11V3ZM1.5 10C0.669 10 0 10.669 0 11.5V14.5C0 15.331 0.669 16 1.5 16H4.5C5.331 16 6 15.331 6 14.5V11.5C6 10.669 5.331 10 4.5 10H1.5ZM2 12H4V14H2V12Z" fill="url(#paint0_linear_621_5)"/>
<path d="M0 2.5C0 1.669 0.669 1 1.5 1H4.5C5.331 1 6 1.669 6 2.5V5.5C6 6.331 5.331 7 4.5 7H1.5C0.669 7 0 6.331 0 5.5V2.5Z" fill="url(#paint1_linear_621_5)"/>
<path d="M9 11.5C9 10.669 9.669 10 10.5 10H13.5C14.331 10 15 10.669 15 11.5V14.5C15 15.331 14.331 16 13.5 16H10.5C9.669 16 9 15.331 9 14.5V11.5Z" fill="url(#paint2_linear_621_5)"/>
<defs>
<linearGradient id="paint0_linear_621_5" x1="1.07143" y1="8.5" x2="13.2442" y2="7.15482" gradientUnits="userSpaceOnUse">
<stop stop-color="#8D01A2"/>
<stop offset="1" stop-color="#FF00D2"/>
</linearGradient>
<linearGradient id="paint1_linear_621_5" x1="14.4932" y1="1.42874" x2="8.64255" y2="16.1197" gradientUnits="userSpaceOnUse">
<stop stop-color="#FE0F7C"/>
<stop offset="1" stop-color="#DF0066"/>
</linearGradient>
<linearGradient id="paint2_linear_621_5" x1="14.4932" y1="1.42874" x2="8.64255" y2="16.1197" gradientUnits="userSpaceOnUse">
<stop stop-color="#FE0F7C"/>
<stop offset="1" stop-color="#DF0066"/>
</linearGradient>
</defs>
</svg>
