<svg width="24" height="24" viewBox="0 0 24 24" fill="none" xmlns="http://www.w3.org/2000/svg">
<path d="M11.9081 2C10.5821 2 9.31042 2.52675 8.3728 3.46437C7.43518 4.40199 6.90843 5.67368 6.90843 6.99968C6.90843 8.32567 7.43518 9.59736 8.3728 10.535C9.31042 11.4726 10.5821 11.9994 11.9081 11.9994C13.2341 11.9994 14.5058 11.4726 15.4434 10.535C16.381 9.59736 16.9078 8.32567 16.9078 6.99968C16.9078 5.67368 16.381 4.40199 15.4434 3.46437C14.5058 2.52675 13.2341 2 11.9081 2ZM11.9081 3.24992C12.9026 3.24992 13.8564 3.64504 14.5596 4.34825C15.2628 5.05147 15.6579 6.00518 15.6579 6.99968C15.6579 7.99417 15.2628 8.94796 14.5596 9.65118C13.8564 10.3544 12.9026 10.7494 11.9081 10.7494C10.9136 10.7494 9.95986 10.3544 9.25665 9.65118C8.55343 8.94796 8.15835 7.99417 8.15835 6.99968C8.15835 6.00518 8.55343 5.05147 9.25665 4.34825C9.95986 3.64504 10.9136 3.24992 11.9081 3.24992ZM11.9081 13.2493C9.4748 13.2524 7.12612 14.1427 5.30217 15.7534C3.59178 17.2638 2.45287 19.3104 2.06687 21.5501C2.02599 21.7874 2.2128 21.9987 2.45356 21.9987H2.91228C3.11112 21.9987 3.27879 21.8524 3.31496 21.6569C3.67506 19.7102 4.68578 17.9394 6.18666 16.638C7.77495 15.2609 9.80594 14.5017 11.9081 14.4992C12.1713 14.5013 12.4342 14.5153 12.696 14.5412C12.9398 14.5652 13.158 14.3785 13.158 14.1335V13.6883C13.158 13.4878 13.0097 13.3174 12.8102 13.2979C12.5104 13.2685 12.2094 13.2527 11.9081 13.2506" fill="url(#paint0_linear_625_31)"/>
<path d="M11.9081 13.2493C9.4748 13.2524 7.12612 14.1427 5.30217 15.7534C3.59178 17.2638 2.45287 19.3104 2.06687 21.5501C2.02599 21.7874 2.2128 21.9987 2.45356 21.9987H2.91228C3.11112 21.9987 3.27879 21.8524 3.31496 21.6569C3.67506 19.7102 4.68578 17.9394 6.18666 16.638C7.77495 15.2609 9.80594 14.5017 11.9081 14.4992C12.1713 14.5013 12.4342 14.5153 12.696 14.5412C12.9398 14.5652 13.158 14.3785 13.158 14.1335V13.6883C13.158 13.4878 13.0097 13.3174 12.8102 13.2979C12.5104 13.2685 12.2094 13.2527 11.9081 13.2506M11.9081 2C10.5821 2 9.31042 2.52675 8.3728 3.46437C7.43518 4.40199 6.90843 5.67368 6.90843 6.99968C6.90843 8.32567 7.43518 9.59736 8.3728 10.535C9.31042 11.4726 10.5821 11.9994 11.9081 11.9994C13.2341 11.9994 14.5058 11.4726 15.4434 10.535C16.381 9.59736 16.9078 8.32567 16.9078 6.99968C16.9078 5.67368 16.381 4.40199 15.4434 3.46437C14.5058 2.52675 13.2341 2 11.9081 2ZM11.9081 3.24992C12.9026 3.24992 13.8564 3.64504 14.5596 4.34825C15.2628 5.05147 15.6579 6.00518 15.6579 6.99968C15.6579 7.99417 15.2628 8.94796 14.5596 9.65118C13.8564 10.3544 12.9026 10.7494 11.9081 10.7494C10.9136 10.7494 9.95986 10.3544 9.25665 9.65118C8.55343 8.94796 8.15835 7.99417 8.15835 6.99968C8.15835 6.00518 8.55343 5.05147 9.25665 4.34825C9.95986 3.64504 10.9136 3.24992 11.9081 3.24992Z" stroke="url(#paint1_linear_625_31)"/>
<path d="M17.5329 22C19.949 22 21.9076 20.0414 21.9076 17.6253C21.9076 15.2092 19.949 13.2505 17.5329 13.2505C15.1168 13.2505 13.1582 15.2092 13.1582 17.6253C13.1582 20.0414 15.1168 22 17.5329 22Z" fill="url(#paint2_linear_625_31)" stroke="url(#paint3_linear_625_31)"/>
<path d="M14.4072 17.199C14.4072 17.0886 14.4968 16.999 14.6072 16.999H20.4568C20.5673 16.999 20.6568 17.0886 20.6568 17.199V18.0489C20.6568 18.1594 20.5673 18.2489 20.4568 18.2489H14.6072C14.4968 18.2489 14.4072 18.1594 14.4072 18.0489V17.199Z" fill="white" stroke="white"/>
<defs>
<linearGradient id="paint0_linear_625_31" x1="16.4041" y1="2.57162" x2="6.97234" y2="20.2259" gradientUnits="userSpaceOnUse">
<stop stop-color="#FE0F7C"/>
<stop offset="1" stop-color="#DF0066"/>
</linearGradient>
<linearGradient id="paint1_linear_625_31" x1="16.4041" y1="2.57162" x2="6.97234" y2="20.2259" gradientUnits="userSpaceOnUse">
<stop stop-color="#FE0F7C"/>
<stop offset="1" stop-color="#DF0066"/>
</linearGradient>
<linearGradient id="paint2_linear_625_31" x1="21.612" y1="13.5006" x2="18.1994" y2="22.0698" gradientUnits="userSpaceOnUse">
<stop stop-color="#FE0F7C"/>
<stop offset="1" stop-color="#DF0066"/>
</linearGradient>
<linearGradient id="paint3_linear_625_31" x1="21.612" y1="13.5006" x2="18.1994" y2="22.0698" gradientUnits="userSpaceOnUse">
<stop stop-color="#FE0F7C"/>
<stop offset="1" stop-color="#DF0066"/>
</linearGradient>
</defs>
</svg>
