<svg width="24" height="24" viewBox="0 0 24 24" fill="none" xmlns="http://www.w3.org/2000/svg">
<path d="M11.9091 2C10.583 2 9.31127 2.52677 8.37361 3.46443C7.43595 4.40209 6.90919 5.67383 6.90918 6.99989C6.90919 8.32594 7.43595 9.59768 8.37361 10.5353C9.31127 11.473 10.583 11.9998 11.9091 11.9998C13.2351 11.9998 14.5068 11.473 15.4445 10.5353C16.3821 9.59768 16.9089 8.32594 16.909 6.99989C16.9089 5.67383 16.3821 4.40209 15.4445 3.46443C14.5068 2.52677 13.2351 2 11.9091 2ZM11.9091 3.24997C12.9036 3.24997 13.8574 3.64503 14.5606 4.34827C15.2639 5.05152 15.659 6.00534 15.659 6.99989C15.659 7.99443 15.2639 8.94818 14.5606 9.65142C13.8574 10.3547 12.9036 10.7498 11.9091 10.7498C10.9145 10.7498 9.96074 10.3547 9.25749 9.65142C8.55425 8.94818 8.15916 7.99443 8.15915 6.99989C8.15916 6.00534 8.55425 5.05152 9.25749 4.34827C9.96074 3.64503 10.9145 3.24997 11.9091 3.24997Z" fill="url(#paint0_linear_625_11)" stroke="url(#paint1_linear_625_11)"/>
<path d="M11.9094 13.2502C9.47588 13.2531 7.12688 14.1433 5.30266 15.754C3.65747 17.2067 2.54094 19.1555 2.11449 21.2951C2.04039 21.6669 2.33511 22 2.71423 22V22C3.02735 22 3.29049 21.7693 3.35444 21.4628C3.7445 19.5931 4.73723 17.8968 6.1878 16.6391C7.77613 15.2619 9.80721 14.5026 11.9094 14.5002C12.0877 14.5016 12.2657 14.5085 12.4434 14.5208C12.8215 14.5471 13.1594 14.2587 13.1594 13.8797V13.8797C13.1594 13.5696 12.93 13.3053 12.6209 13.2809C12.3842 13.2622 12.1469 13.252 11.9094 13.2502Z" fill="url(#paint2_linear_625_11)" stroke="url(#paint3_linear_625_11)"/>
<path d="M18.5341 22C20.9503 22 22.909 20.0413 22.909 17.6251C22.909 15.2089 20.9503 13.2502 18.5341 13.2502C16.1179 13.2502 14.1592 15.2089 14.1592 17.6251C14.1592 20.0413 16.1179 22 18.5341 22Z" fill="url(#paint4_linear_625_11)" stroke="url(#paint5_linear_625_11)"/>
<path fill-rule="evenodd" clip-rule="evenodd" d="M20.1262 16.033C20.2824 15.8768 20.5357 15.8768 20.6919 16.033L21.3762 16.7173C21.5324 16.8735 21.5324 17.1267 21.3762 17.2829L18.192 20.4672C18.0358 20.6234 17.7825 20.6234 17.6263 20.4672L15.692 18.5329C15.5358 18.3767 15.5358 18.1234 15.692 17.9672L16.3763 17.2829C16.5325 17.1267 16.7858 17.1267 16.942 17.2829L17.6263 17.9672C17.7825 18.1234 18.0358 18.1234 18.192 17.9672L20.1262 16.033Z" fill="white" stroke="white"/>
<defs>
<linearGradient id="paint0_linear_625_11" x1="11.9091" y1="11.9998" x2="11.9091" y2="2" gradientUnits="userSpaceOnUse">
<stop stop-color="#02AA93"/>
<stop offset="1" stop-color="#67FF80"/>
</linearGradient>
<linearGradient id="paint1_linear_625_11" x1="11.9091" y1="11.9998" x2="11.9091" y2="2" gradientUnits="userSpaceOnUse">
<stop stop-color="#02AA93"/>
<stop offset="1" stop-color="#67FF80"/>
</linearGradient>
<linearGradient id="paint2_linear_625_11" x1="7.5797" y1="22" x2="7.5797" y2="13.2502" gradientUnits="userSpaceOnUse">
<stop stop-color="#02AA93"/>
<stop offset="1" stop-color="#67FF80"/>
</linearGradient>
<linearGradient id="paint3_linear_625_11" x1="7.5797" y1="22" x2="7.5797" y2="13.2502" gradientUnits="userSpaceOnUse">
<stop stop-color="#02AA93"/>
<stop offset="1" stop-color="#67FF80"/>
</linearGradient>
<linearGradient id="paint4_linear_625_11" x1="18.5341" y1="22" x2="18.5341" y2="13.2502" gradientUnits="userSpaceOnUse">
<stop stop-color="#02AA93"/>
<stop offset="1" stop-color="#67FF80"/>
</linearGradient>
<linearGradient id="paint5_linear_625_11" x1="18.5341" y1="22" x2="18.5341" y2="13.2502" gradientUnits="userSpaceOnUse">
<stop stop-color="#02AA93"/>
<stop offset="1" stop-color="#67FF80"/>
</linearGradient>
</defs>
</svg>
