<svg width="24" height="24" viewBox="0 0 24 24" fill="none" xmlns="http://www.w3.org/2000/svg">
<path d="M10.9091 2C9.58302 2 8.31127 2.52677 7.37361 3.46443C6.43595 4.40209 5.90919 5.67383 5.90918 6.99989C5.90919 8.32594 6.43595 9.59768 7.37361 10.5353C8.31127 11.473 9.58302 11.9998 10.9091 11.9998C12.2351 11.9998 13.5068 11.473 14.4445 10.5353C15.3821 9.59768 15.9089 8.32594 15.909 6.99989C15.9089 5.67383 15.3821 4.40209 14.4445 3.46443C13.5068 2.52677 12.2351 2 10.9091 2ZM10.9091 3.24997C11.9036 3.24997 12.8574 3.64503 13.5606 4.34827C14.2639 5.05152 14.659 6.00534 14.659 6.99989C14.659 7.99443 14.2639 8.94818 13.5606 9.65142C12.8574 10.3547 11.9036 10.7498 10.9091 10.7498C9.91453 10.7498 8.96074 10.3547 8.25749 9.65142C7.55425 8.94818 7.15916 7.99443 7.15915 6.99989C7.15916 6.00534 7.55425 5.05152 8.25749 4.34827C8.96074 3.64503 9.91453 3.24997 10.9091 3.24997Z" fill="url(#paint0_linear_625_19)" stroke="url(#paint1_linear_625_19)"/>
<path d="M10.9094 13.2502C8.47588 13.2531 6.12688 14.1433 4.30266 15.754C2.592 17.2645 1.45292 19.3114 1.06687 21.5514C1.02599 21.7887 1.2128 22 1.45356 22H1.91332C2.11216 22 2.27983 21.8537 2.316 21.6582C2.67612 19.7114 3.68687 17.9405 5.1878 16.6391C6.77613 15.2619 8.80721 14.5026 10.9094 14.5002C11.1727 14.5023 11.4355 14.5163 11.6973 14.5422C11.9411 14.5663 12.1594 14.3795 12.1594 14.1345V13.6882C12.1594 13.4877 12.0111 13.3174 11.8117 13.2978C11.5119 13.2683 11.2108 13.2524 10.9094 13.2502Z" fill="url(#paint2_linear_625_19)" stroke="url(#paint3_linear_625_19)"/>
<path d="M17.8749 13.2498C16.7146 13.2498 15.6018 13.7107 14.7814 14.5311C13.9609 15.3516 13.5 16.4644 13.5 17.6247C13.5 18.785 13.9609 19.8977 14.7814 20.7182C15.6018 21.5386 16.7146 21.9996 17.8749 21.9996C19.0352 21.9996 20.148 21.5386 20.9684 20.7182C21.7889 19.8977 22.2498 18.785 22.2498 17.6247C22.2498 16.4644 21.7889 15.3516 20.9684 14.5311C20.148 13.7107 19.0352 13.2498 17.8749 13.2498ZM17.2499 14.8997C17.2499 14.6788 17.429 14.4997 17.6499 14.4997H18.0999C18.3208 14.4997 18.4999 14.6788 18.4999 14.8997V16.5997C18.4999 16.8206 18.679 16.9997 18.8999 16.9997H19.3499C19.5708 16.9997 19.7499 17.1788 19.7499 17.3997V17.8496C19.7499 18.0706 19.5708 18.2496 19.3499 18.2496H18.4999H17.6499C17.429 18.2496 17.2499 18.0706 17.2499 17.8496V16.9997V14.8997Z" stroke="url(#paint4_linear_625_19)" stroke-width="1.4"/>
<path d="M17.8749 13.2498C16.7146 13.2498 15.6018 13.7107 14.7814 14.5311C13.9609 15.3516 13.5 16.4644 13.5 17.6247C13.5 18.785 13.9609 19.8977 14.7814 20.7182C15.6018 21.5386 16.7146 21.9996 17.8749 21.9996C19.0352 21.9996 20.148 21.5386 20.9684 20.7182C21.7889 19.8977 22.2498 18.785 22.2498 17.6247C22.2498 16.4644 21.7889 15.3516 20.9684 14.5311C20.148 13.7107 19.0352 13.2498 17.8749 13.2498ZM17.2499 14.8997C17.2499 14.6788 17.429 14.4997 17.6499 14.4997H18.0999C18.3208 14.4997 18.4999 14.6788 18.4999 14.8997V16.5997C18.4999 16.8206 18.679 16.9997 18.8999 16.9997H19.3499C19.5708 16.9997 19.7499 17.1788 19.7499 17.3997V17.8496C19.7499 18.0706 19.5708 18.2496 19.3499 18.2496H18.4999H17.6499C17.429 18.2496 17.2499 18.0706 17.2499 17.8496V16.9997V14.8997Z" stroke="black" stroke-opacity="0.2" stroke-width="1.4"/>
<defs>
<linearGradient id="paint0_linear_625_19" x1="7.72164" y1="10.8192" x2="16.739" y2="2.95138" gradientUnits="userSpaceOnUse">
<stop stop-color="#FE0844"/>
<stop offset="1" stop-color="#FEB302"/>
</linearGradient>
<linearGradient id="paint1_linear_625_19" x1="7.72164" y1="10.8192" x2="16.739" y2="2.95138" gradientUnits="userSpaceOnUse">
<stop stop-color="#FE0844"/>
<stop offset="1" stop-color="#FEB302"/>
</linearGradient>
<linearGradient id="paint2_linear_625_19" x1="3.02264" y1="20.967" x2="10.9411" y2="12.1554" gradientUnits="userSpaceOnUse">
<stop stop-color="#FE0844"/>
<stop offset="1" stop-color="#FEB302"/>
</linearGradient>
<linearGradient id="paint3_linear_625_19" x1="3.02264" y1="20.967" x2="10.9411" y2="12.1554" gradientUnits="userSpaceOnUse">
<stop stop-color="#FE0844"/>
<stop offset="1" stop-color="#FEB302"/>
</linearGradient>
<linearGradient id="paint4_linear_625_19" x1="15.0859" y1="20.9666" x2="22.9761" y2="14.0822" gradientUnits="userSpaceOnUse">
<stop stop-color="#FE0844"/>
<stop offset="1" stop-color="#FEB302"/>
</linearGradient>
</defs>
</svg>
