<svg width="128" height="128" viewBox="0 0 128 128" fill="none" xmlns="http://www.w3.org/2000/svg">
<path d="M64.002 2.55945C47.7071 2.55945 32.0796 9.03257 20.5574 20.5548C9.03513 32.077 2.56201 47.7046 2.56201 63.9995C2.56243 72.0679 4.15204 80.0572 7.24008 87.5113C10.3281 94.9654 14.8541 101.738 20.5596 107.443C26.2652 113.148 33.0385 117.673 40.4929 120.761C47.9473 123.848 55.9368 125.437 64.0052 125.436C72.0736 125.436 80.063 123.846 87.517 120.758C94.9711 117.67 101.744 113.144 107.449 107.439C113.154 101.733 117.679 94.9598 120.766 87.5054C123.854 80.051 125.442 72.0615 125.442 63.993C125.442 30.0666 97.9284 2.55945 64.002 2.55945ZM64.002 112.633C57.568 112.707 51.1833 111.503 45.2176 109.092C39.252 106.681 33.8241 103.11 29.2482 98.5866C24.6724 94.063 21.0395 88.6763 18.5601 82.7388C16.0808 76.8012 14.8041 70.4307 14.8041 63.9963C14.8041 57.5618 16.0808 51.1913 18.5601 45.2537C21.0395 39.3162 24.6724 33.9295 29.2482 29.4059C33.8241 24.8822 39.252 21.3114 45.2176 18.9003C51.1833 16.4892 57.568 15.2856 64.002 15.3594C70.436 15.2856 76.8208 16.4892 82.7864 18.9003C88.752 21.3114 94.1799 24.8822 98.7558 29.4059C103.332 33.9295 106.964 39.3162 109.444 45.2537C111.923 51.1913 113.2 57.5618 113.2 63.9963C113.2 70.4307 111.923 76.8012 109.444 82.7388C106.964 88.6763 103.332 94.063 98.7558 98.5866C94.1799 103.11 88.752 106.681 82.7864 109.092C76.8208 111.503 70.436 112.707 64.002 112.633V112.633ZM48.0084 62.3995C53.3076 62.3995 57.602 57.3882 57.602 51.1994C57.602 45.0106 53.3012 39.9994 48.002 39.9994C42.7028 39.9994 38.402 45.0106 38.402 51.1994C38.402 57.3882 42.7028 62.3995 48.0084 62.3995V62.3995ZM80.002 62.3995C85.3076 62.3995 89.602 57.3882 89.602 51.1994C89.602 45.0106 85.3012 39.9994 80.002 39.9994C74.7028 39.9994 70.402 45.017 70.402 51.1994C70.402 57.3818 74.7028 62.3995 80.002 62.3995ZM91.7844 72.5499C90.6548 71.98 89.347 71.8752 88.1411 72.2581C86.9352 72.6409 85.9273 73.4808 85.3332 74.5979C85.1156 75.0203 79.7716 84.793 64.0084 84.793C48.322 84.793 42.946 75.1098 42.6772 74.6042C42.1018 73.4678 41.0985 72.6066 39.8881 72.2099C38.6776 71.8132 37.3592 71.9136 36.2228 72.4891C35.0864 73.0645 34.2251 74.0677 33.8285 75.2782C33.4318 76.4886 33.5322 77.8071 34.1076 78.9435C34.4276 79.5771 42.0948 94.393 64.0084 94.393C85.9284 94.393 93.5828 79.5706 93.8964 78.937C94.4603 77.8095 94.5547 76.5045 94.1589 75.3075C93.7631 74.1105 92.9094 73.119 91.7844 72.5499Z" fill="url(#paint0_linear)"/>
<defs>
<linearGradient id="paint0_linear" x1="64.002" y1="125.436" x2="64.002" y2="2.55945" gradientUnits="userSpaceOnUse">
<stop stop-color="#FD5900"/>
<stop offset="1" stop-color="#FFDE00"/>
</linearGradient>
</defs>
</svg>
