<svg width="16" height="16" viewBox="0 0 16 16" fill="none" xmlns="http://www.w3.org/2000/svg">
<path d="M1.06667 3C0 3 0 4.06667 0 4.06667C0 4.06667 0 4.06667 0 4.06667V12.6C0 13.6667 1.06667 13.6667 1.06667 13.6667C1.06667 13.6667 1.06667 13.6667 1.06667 13.6667H10.6667C10.6667 13.6667 10.6667 13.6667 10.6667 13.6667C10.6667 13.6667 11.7333 13.6667 11.7333 12.6V8.33333V4.06667C11.7333 4.06667 11.7333 4.06667 11.7333 4.06667C11.7333 4.06667 11.7333 3 10.6667 3H1.06667ZM11.7333 8.33333L15.3172 11.9172C15.5691 12.1691 16 11.9907 16 11.6343V5.48151C16 5.13784 15.5952 4.95417 15.3366 5.18048L11.7333 8.33333Z" fill="url(#paint0_linear_622_55)"/>
<defs>
<linearGradient id="paint0_linear_622_55" x1="2.9" y1="12.4074" x2="12.2672" y2="0.147854" gradientUnits="userSpaceOnUse">
<stop stop-color="#FE0844"/>
<stop offset="1" stop-color="#FEB302"/>
</linearGradient>
</defs>
</svg>
