<svg width="64" height="64" viewBox="0 0 64 64" fill="none" xmlns="http://www.w3.org/2000/svg">
<path d="M17.1106 46.8333C16.1043 46.8333 15.2885 47.649 15.2885 48.6554C15.2885 49.6617 16.1043 50.4775 17.1106 50.4775C18.1169 50.4775 18.9328 49.6617 18.9328 48.6554C18.9328 47.649 18.1169 46.8333 17.1106 46.8333ZM17.1106 39.5448C16.1043 39.5448 15.2885 40.3605 15.2885 41.3669C15.2885 42.3731 16.1043 43.189 17.1106 43.189C18.1169 43.189 18.9328 42.3731 18.9328 41.3669C18.9328 40.3605 18.1169 39.5448 17.1106 39.5448ZM27.6587 28.4159L28.7393 28.7671L28.0715 29.6864C27.48 30.5005 27.6604 31.6401 28.4745 32.2315C29.285 32.8205 30.4256 32.6463 31.0197 31.8285L31.6877 30.9091L32.3556 31.8285C32.9488 32.6451 34.0889 32.8214 34.9007 32.2315C35.7149 31.6399 35.8954 30.5005 35.3038 29.6864L34.636 28.7671L35.7166 28.4159C36.6737 28.1049 37.1974 27.077 36.8864 26.1199C36.5754 25.1629 35.5481 24.639 34.5904 24.95L33.5097 25.3012V24.1649C33.5097 23.1586 32.6939 22.3427 31.6877 22.3427C30.6813 22.3427 29.8656 23.1586 29.8656 24.1649V25.3012L28.7848 24.95C27.8274 24.6386 26.7997 25.1627 26.4888 26.1197C26.1779 27.077 26.7016 28.105 27.6587 28.4159ZM23.9681 32.2315C24.7822 31.6399 24.9627 30.5005 24.3711 29.6864L23.7032 28.7671L24.7838 28.4159C25.741 28.1049 26.2647 27.077 25.9537 26.1199C25.6428 25.1629 24.6151 24.639 23.6577 24.95L22.577 25.3012V24.1649C22.577 23.1586 21.7612 22.3427 20.7549 22.3427C19.7485 22.3427 18.9328 23.1586 18.9328 24.1649V25.3012L17.8521 24.95C16.8946 24.6386 15.867 25.1627 15.5562 26.1197C15.2452 27.0769 15.7688 28.1048 16.7259 28.4157L17.8066 28.767L17.1387 29.6862C16.5473 30.5004 16.7276 31.6399 17.5417 32.2314C18.3522 32.8203 19.4928 32.6461 20.0869 31.8283L20.7549 30.9091L21.4229 31.8285C22.016 32.6449 23.1561 32.8213 23.9681 32.2315ZM53.5531 7.64425H42.6204V5.82213C42.6204 4.81583 41.8046 4 40.7982 4H22.577C21.5707 4 20.7549 4.81583 20.7549 5.82213V7.64425H9.82213C8.81582 7.64425 8 8.46008 8 9.46638V58.1779C8 59.1841 8.81582 60 9.82213 60H53.5531C54.5594 60 55.3753 59.1841 55.3753 58.1779V9.46638C55.3753 8.46008 54.5594 7.64425 53.5531 7.64425ZM24.3992 7.64425H38.9761V9.46638C38.9761 10.4711 38.1587 11.2885 37.154 11.2885H26.2213C25.2165 11.2885 24.3992 10.4711 24.3992 9.46638V7.64425ZM51.731 56.3557H11.6443V11.2885H21.0683C21.8204 13.4092 23.8458 14.9328 26.2213 14.9328H37.154C39.5295 14.9328 41.5549 13.4092 42.307 11.2885H51.731V56.3557ZM40.7982 24.1649V25.3012L39.7176 24.95C38.7602 24.6386 37.7325 25.1627 37.4216 26.1197C37.1106 27.0769 37.6343 28.1048 38.5914 28.4157L39.672 28.767L39.0042 29.6862C38.4127 30.5004 38.5932 31.6399 39.4073 32.2314C40.2178 32.8203 41.3582 32.6461 41.9524 31.8283L42.6204 30.9091L43.2884 31.8285C43.8816 32.6451 45.0217 32.8214 45.8335 32.2315C46.6476 31.6399 46.8281 30.5005 46.2365 29.6864L45.5687 28.7671L46.6494 28.4159C47.6064 28.1049 48.1301 27.077 47.8191 26.1199C47.5082 25.1629 46.4807 24.639 45.5231 24.95L44.4425 25.3012V24.1649C44.4425 23.1586 43.6267 22.3427 42.6204 22.3427C41.6141 22.3427 40.7982 23.1586 40.7982 24.1649ZM46.2646 39.5448H24.3992C23.3928 39.5448 22.577 40.3605 22.577 41.3669C22.577 42.3731 23.3928 43.189 24.3992 43.189H46.2646C47.271 43.189 48.0867 42.3731 48.0867 41.3669C48.0867 40.3605 47.271 39.5448 46.2646 39.5448ZM46.2646 46.8333H24.3992C23.3928 46.8333 22.577 47.649 22.577 48.6554C22.577 49.6617 23.3928 50.4775 24.3992 50.4775H46.2646C47.271 50.4775 48.0867 49.6617 48.0867 48.6554C48.0867 47.649 47.271 46.8333 46.2646 46.8333Z" fill="url(#paint0_linear_646_10)" stroke="url(#paint1_linear_646_10)"/>
<defs>
<linearGradient id="paint0_linear_646_10" x1="31.6877" y1="66.1953" x2="31.6877" y2="4" gradientUnits="userSpaceOnUse">
<stop stop-color="#A93AFF"/>
<stop offset="1" stop-color="#FF81FF"/>
</linearGradient>
<linearGradient id="paint1_linear_646_10" x1="31.6877" y1="66.1953" x2="31.6877" y2="4" gradientUnits="userSpaceOnUse">
<stop stop-color="#A93AFF"/>
<stop offset="1" stop-color="#FF81FF"/>
</linearGradient>
</defs>
</svg>
