<svg width="64" height="64" viewBox="0 0 64 64" fill="none" xmlns="http://www.w3.org/2000/svg">
<path d="M34.4706 51.8824C35.0229 51.8824 35.4706 51.4346 35.4706 50.8824V34.5294C35.4706 33.9771 35.9183 33.5294 36.4706 33.5294H36.6352C37.5261 33.5294 37.9723 32.4523 37.3423 31.8223L33.1189 27.5989C32.7283 27.2083 32.0952 27.2083 31.7047 27.5989L27.4812 31.8223C26.8513 32.4523 27.2974 33.5294 28.1883 33.5294H28.3529C28.9052 33.5294 29.3529 33.9771 29.3529 34.5294V50.8824C29.3529 51.4346 29.8007 51.8824 30.3529 51.8824H34.4706ZM41.5882 57C41.5882 57.5523 41.1405 58 40.5882 58H24.2353C23.683 58 23.2353 57.5523 23.2353 57V40.6471C23.2353 40.0948 22.7876 39.6471 22.2353 39.6471H13.4142C12.5233 39.6471 12.0771 38.5699 12.7071 37.94L31.7047 18.9424C32.0952 18.5519 32.7283 18.5519 33.1189 18.9424L52.1164 37.94C52.7464 38.5699 52.3002 39.6471 51.4093 39.6471H42.5882C42.036 39.6471 41.5882 40.0948 41.5882 40.6471V57ZM53.8235 11.1176C53.8235 11.6699 53.3758 12.1177 52.8235 12.1177H12C11.4477 12.1177 11 11.6699 11 11.1177V7C11 6.4477 11.4477 6 12 6H52.8235C53.3758 6 53.8235 6.4477 53.8235 7V11.1176Z" fill="url(#paint0_linear)"/>
<defs>
<linearGradient id="paint0_linear" x1="32.4118" y1="6" x2="32.4118" y2="58" gradientUnits="userSpaceOnUse">
<stop stop-color="#5570FF"/>
<stop offset="1" stop-color="#4DD3FF"/>
</linearGradient>
</defs>
</svg>
