<svg width="128" height="128" viewBox="0 0 128 128" fill="none" xmlns="http://www.w3.org/2000/svg">
<ellipse cx="64" cy="64.3922" rx="62" ry="61.3922" fill="url(#paint0_linear)"/>
<path fill-rule="evenodd" clip-rule="evenodd" d="M73.5917 27.9899L64.79 36.3098C63.5098 37.5715 64.7264 39.1011 65.9769 40.3923C66.5374 40.971 67.0568 41.5602 67.6722 42.2585L67.6727 42.259L67.6729 42.2593L67.673 42.2594L67.8234 42.43C69.3122 44.1184 70.677 45.3639 72.2806 43.7841C73.7987 42.2885 76.443 39.6723 80.9246 35.2175C84.9575 31.2423 91.5572 31.2423 95.59 35.2175C99.6229 39.1926 99.6229 45.6975 95.59 49.6727L79.4555 65.5762C78.8319 66.1909 78.1354 66.733 77.3655 67.1302C73.4062 69.443 68.1996 68.9374 64.79 65.5762C62.1357 62.96 58.3926 62.0738 54.9965 62.9005C53.2753 63.3195 52.518 65.2331 53.2581 66.8425C54.252 69.0038 55.6559 71.0283 57.4573 72.8039C60.0239 75.3337 63.1035 77.0683 66.3666 77.9717C69.9961 79.0199 73.8458 79.0558 77.4758 78.0801C80.8853 77.1766 84.1117 75.4422 86.7883 72.8039L102.923 56.9006C111.026 48.9139 111.026 35.9766 102.923 27.9899C94.8203 20.0032 81.6944 20.0035 73.5917 27.9899ZM54.4082 99.5816L63.21 91.2617C64.4902 90.0001 63.2736 88.4704 62.0231 87.1793C61.4629 86.6009 60.9439 86.0121 60.329 85.3145L60.1766 85.1416C58.6877 83.4532 57.323 82.2076 55.7194 83.7875C54.2012 85.2831 51.557 87.8993 47.0754 92.3544C43.0425 96.3292 36.4428 96.3292 32.4099 92.3544C28.3769 88.379 28.3769 81.874 32.4099 77.8988L48.5445 61.9953C49.168 61.3806 49.8646 60.8386 50.6344 60.4413C54.5938 58.1285 59.8003 58.6342 63.21 61.9953C65.8642 64.6116 69.6074 65.4978 73.0035 64.6711C74.7247 64.252 75.482 62.3385 74.7419 60.7291C73.748 58.5677 72.344 56.5432 70.5427 54.7677C67.9761 52.2379 64.8965 50.5033 61.6334 49.5999C58.0039 48.5517 54.1541 48.5157 50.5242 49.4914C47.1146 50.3949 43.8883 52.1294 41.2116 54.7677L25.077 70.671C16.9745 78.6576 16.9742 91.5949 25.077 99.5816C33.1798 107.568 46.3056 107.568 54.4082 99.5816ZM82.3637 92.0039C81.6269 91.0701 81.7335 89.701 82.6022 88.9427C83.4707 88.1844 84.7694 88.3264 85.5061 89.2601L88.1721 92.6393C88.9089 93.5727 88.8026 94.9421 87.9338 95.7001C87.0655 96.4589 85.7664 96.3161 85.0296 95.3828L82.3637 92.0039ZM93.0394 75.7141C91.964 75.2876 90.7801 75.85 90.4042 76.9698C90.0208 78.0931 90.5776 79.351 91.6499 79.7802L95.5307 81.335C96.6122 81.7667 97.7861 81.1904 98.1647 80.0795C98.5488 78.9559 97.9917 77.6983 96.9195 77.2691L93.0394 75.7141ZM68.3191 97.2968C68.1169 96.1081 68.8544 94.9932 69.9776 94.8039C71.0978 94.6146 72.1704 95.4223 72.3739 96.6093L73.112 100.908C73.3155 102.105 72.5629 103.213 71.4535 103.401C70.3333 103.591 69.2604 102.783 69.0569 101.595L68.3191 97.2968ZM33.455 52.8061L33.4547 52.8072L31.0048 54.0462L26.9082 52.724C25.8654 52.3876 25.2803 51.2841 25.5959 50.2621C25.9071 49.2542 26.9955 48.6845 28.0458 49.0219L32.1427 50.3444V50.3445C33.1855 50.6808 33.7706 51.7842 33.455 52.8061ZM31.0053 54.0466L33.4547 52.8072C33.1476 53.8204 32.05 54.3798 31.0053 54.0466ZM53.9114 34.2936V34.2935C54.9683 34.0738 55.6219 33.0467 55.3771 31.9901V31.99L54.4071 27.8378C54.1604 26.7809 53.1004 26.107 52.0433 26.3275C50.9989 26.5453 50.3309 27.5685 50.5774 28.6311L51.5475 32.7833L51.5476 32.7834C51.794 33.8401 52.8539 34.5141 53.9114 34.2936ZM41.0213 40.6737C41.8115 39.9587 41.8568 38.7289 41.1113 37.9234L38.1863 34.7629C37.4408 33.9574 36.198 33.8933 35.4079 34.6084C34.6177 35.3235 34.5723 36.5534 35.3178 37.3589L38.2428 40.5193C38.9883 41.3248 40.2311 41.3888 41.0213 40.6737Z" fill="url(#paint1_linear)"/>
<defs>
<linearGradient id="paint0_linear" x1="64" y1="125.784" x2="64" y2="3" gradientUnits="userSpaceOnUse">
<stop stop-color="#5570FF"/>
<stop offset="1" stop-color="#4DD3FF"/>
</linearGradient>
<linearGradient id="paint1_linear" x1="64" y1="105.572" x2="64" y2="22" gradientUnits="userSpaceOnUse">
<stop stop-color="#ADDCFF"/>
<stop offset="0.5028" stop-color="#EAF6FF"/>
<stop offset="1" stop-color="#EAF6FF"/>
</linearGradient>
</defs>
</svg>
