<svg width="16" height="16" viewBox="0 0 16 16" fill="none" xmlns="http://www.w3.org/2000/svg">
<path d="M1.4 3C1.17909 3 1 3.17909 1 3.4V4.6C1 4.82091 1.17909 5 1.4 5H5.25279C5.4043 5 5.5428 5.0856 5.61056 5.22111L6.14223 6.28446C6.28964 6.57928 6.71036 6.57928 6.85777 6.28446L7.41056 5.17889C7.46686 5.06627 7.46686 4.93373 7.41056 4.82111L6.61056 3.22111C6.5428 3.0856 6.4043 3 6.25279 3H1.4ZM11.64 9.48C11.3763 9.28223 11 9.47038 11 9.8V10.691C11 10.8616 10.8616 11 10.691 11V11C10.5739 11 10.4669 10.9339 10.4146 10.8292L9.85777 9.71554C9.71036 9.42072 9.28964 9.42072 9.14223 9.71554L8.58944 10.8211C8.53314 10.9337 8.53314 11.0663 8.58944 11.1789L9.38944 12.7789C9.4572 12.9144 9.5957 13 9.74721 13H10.6C10.8209 13 11 13.1791 11 13.4V14.2C11 14.5296 11.3763 14.7178 11.64 14.52L14.5733 12.32C14.7867 12.16 14.7867 11.84 14.5733 11.68L11.64 9.48ZM11.64 1.48C11.3763 1.28223 11 1.47038 11 1.8V2.6C11 2.82091 10.8209 3 10.6 3H9.74721C9.5957 3 9.4572 3.0856 9.38944 3.22111L5.61056 10.7789C5.5428 10.9144 5.4043 11 5.25279 11H1.4C1.17909 11 1 11.1791 1 11.4V12.6C1 12.8209 1.17909 13 1.4 13H6.25279C6.4043 13 6.5428 12.9144 6.61056 12.7789L10.4146 5.17082C10.4669 5.06613 10.5739 5 10.691 5V5C10.8616 5 11 5.13835 11 5.30902V6.2C11 6.52962 11.3763 6.71777 11.64 6.52L14.5733 4.32C14.7867 4.16 14.7867 3.84 14.5733 3.68L11.64 1.48Z" fill="url(#paint0_linear_622_44)"/>
<defs>
<linearGradient id="paint0_linear_622_44" x1="3.5375" y1="13.3472" x2="16.1622" y2="2.33196" gradientUnits="userSpaceOnUse">
<stop stop-color="#FE0844"/>
<stop offset="1" stop-color="#FEB302"/>
</linearGradient>
</defs>
</svg>
