<svg width="24" height="24" viewBox="0 0 24 24" fill="none" xmlns="http://www.w3.org/2000/svg">
<path d="M10.835 15.29L11.573 15.426L10.835 15.289V15.29ZM10.477 14.582L10.858 13.936L10.478 14.582H10.477ZM10.202 21.829L10.34 21.091L10.202 21.829ZM9.75 21.151L10.488 21.287L9.75 21.151ZM16.849 19.814L17.586 19.675L16.849 19.815V19.814ZM17.721 20.192L17.291 19.577L17.721 20.192ZM7.871 15.984L7.135 15.845L7.872 15.985L7.871 15.984ZM7.732 15.464L7.151 15.938L7.732 15.464V15.464ZM13.523 14.582L13.905 15.228L13.523 14.582ZM13.165 15.289L13.903 15.153L13.165 15.289ZM16.268 15.464L15.687 14.991L16.268 15.464ZM16.128 15.984L16.865 15.845L16.128 15.985V15.984ZM14.25 21.151L13.513 21.288L14.25 21.151ZM13.797 21.83L13.935 22.567L13.797 21.83ZM6.28 20.192L5.85 20.806L6.28 20.192ZM2.75 12C2.75 9.54675 3.72455 7.19397 5.45926 5.45926C7.19397 3.72455 9.54675 2.75 12 2.75V1.25C6.062 1.25 1.25 6.062 1.25 12H2.75ZM6.709 19.577C4.315 17.902 2.75 15.137 2.75 12H1.25C1.25 15.65 3.074 18.865 5.849 20.806L6.709 19.577V19.577ZM7.135 15.845L6.414 19.675L7.888 19.953L8.608 16.123L7.135 15.845V15.845ZM5.75 12C5.75 13.494 6.276 14.865 7.15 15.938L8.313 14.991C7.62348 14.1469 7.24783 13.0899 7.25 12H5.75ZM12 5.75C10.3424 5.75 8.75268 6.40848 7.58058 7.58058C6.40848 8.75268 5.75 10.3424 5.75 12H7.25C7.25 10.7402 7.75045 9.53204 8.64124 8.64124C9.53204 7.75045 10.7402 7.25 12 7.25V5.75ZM18.25 12C18.25 10.3424 17.5915 8.75268 16.4194 7.58058C15.2473 6.40848 13.6576 5.75 12 5.75V7.25C13.2598 7.25 14.468 7.75045 15.3588 8.64124C16.2496 9.53204 16.75 10.7402 16.75 12H18.25ZM16.85 15.938C17.7574 14.8264 18.2521 13.435 18.25 12H16.75C16.7519 13.0896 16.3763 14.1462 15.687 14.99L16.849 15.938H16.85ZM17.586 19.675L16.866 15.845L15.391 16.123L16.111 19.953L17.586 19.676V19.675ZM21.25 12C21.25 15.137 19.685 17.902 17.291 19.577L18.151 20.807C20.926 18.864 22.75 15.65 22.75 12H21.25ZM12 2.75C14.4533 2.75 16.806 3.72455 18.5407 5.45926C20.2754 7.19397 21.25 9.54675 21.25 12H22.75C22.75 6.062 17.938 1.25 12 1.25V2.75ZM15.75 12C15.75 11.0054 15.3549 10.0516 14.6517 9.34835C13.9484 8.64509 12.9946 8.25 12 8.25V9.75C12.5967 9.75 13.169 9.98705 13.591 10.409C14.0129 10.831 14.25 11.4033 14.25 12H15.75ZM13.905 15.228C14.467 14.8972 14.9328 14.4253 15.2564 13.8591C15.58 13.293 15.7501 12.6521 15.75 12H14.25C14.25 12.823 13.807 13.544 13.142 13.936L13.905 15.228ZM14.988 21.015L13.903 15.153L12.428 15.426L13.513 21.288L14.988 21.015V21.015ZM12 22.75C12.665 22.75 13.31 22.683 13.935 22.567L13.66 21.093C13.1127 21.1964 12.557 21.2489 12 21.25V22.75ZM10.063 22.566C10.688 22.683 11.334 22.75 12 22.75V21.25C11.4429 21.2487 10.8872 21.1955 10.34 21.091L10.063 22.566V22.566ZM10.098 15.153L9.013 21.014L10.488 21.287L11.573 15.426L10.098 15.153ZM8.25 12C8.25 13.377 8.994 14.578 10.096 15.228L10.858 13.936C10.5206 13.7378 10.2409 13.4549 10.0465 13.1153C9.85219 12.7758 9.74996 12.3913 9.75 12H8.25ZM12 8.25C11.0054 8.25 10.0516 8.64509 9.34835 9.34835C8.64509 10.0516 8.25 11.0054 8.25 12H9.75C9.75 11.4033 9.98705 10.831 10.409 10.409C10.831 9.98705 11.4033 9.75 12 9.75V8.25ZM11.573 15.426C11.695 14.764 11.314 14.206 10.858 13.936L10.096 15.228C10.0996 15.2303 10.103 15.2329 10.106 15.236C10.109 15.239 10.108 15.239 10.106 15.235C10.1014 15.2255 10.0984 15.2154 10.097 15.205C10.094 15.1878 10.094 15.1702 10.097 15.153L11.573 15.426ZM10.34 21.091C10.459 21.114 10.5 21.22 10.488 21.287L9.013 21.014C8.884 21.708 9.318 22.426 10.063 22.566L10.34 21.092V21.091ZM16.112 19.953C16.28 20.845 17.324 21.385 18.152 20.806L17.292 19.577C17.3207 19.5579 17.3538 19.5462 17.3881 19.5428C17.4225 19.5395 17.4571 19.5447 17.489 19.558C17.541 19.581 17.577 19.628 17.586 19.675L16.112 19.953V19.953ZM8.609 16.123C8.689 15.7 8.558 15.29 8.313 14.99L7.151 15.938C7.144 15.93 7.125 15.898 7.135 15.845L8.609 16.123ZM13.142 13.936C12.686 14.206 12.305 14.764 12.428 15.426L13.903 15.153C13.9061 15.1705 13.9061 15.1885 13.903 15.206C13.9015 15.2161 13.8985 15.2258 13.894 15.235C13.892 15.239 13.891 15.239 13.894 15.236C13.897 15.2329 13.9003 15.2302 13.904 15.228L13.142 13.936V13.936ZM15.687 14.991C15.442 15.291 15.312 15.7 15.391 16.123L16.865 15.845C16.875 15.899 16.856 15.93 16.849 15.938L15.687 14.991V14.991ZM13.513 21.288C13.507 21.2427 13.519 21.1969 13.5465 21.1604C13.5741 21.1239 13.6148 21.0997 13.66 21.093L13.935 22.567C14.68 22.428 15.116 21.71 14.988 21.015L13.513 21.288ZM5.849 20.806C6.676 21.385 7.72 20.844 7.889 19.953L6.414 19.676C6.41954 19.65 6.43124 19.6257 6.44812 19.6052C6.465 19.5846 6.48657 19.5685 6.511 19.558C6.54308 19.5447 6.57796 19.5396 6.61252 19.5431C6.64707 19.5465 6.68022 19.5586 6.709 19.578L5.849 20.806Z" fill="url(#paint0_linear)"/>
<defs>
<linearGradient id="paint0_linear" x1="12" y1="22.75" x2="12" y2="1.25" gradientUnits="userSpaceOnUse">
<stop stop-color="#5570FF"/>
<stop offset="1" stop-color="#4DD3FF"/>
</linearGradient>
</defs>
</svg>
