<svg width="16" height="16" viewBox="0 0 16 16" fill="none" xmlns="http://www.w3.org/2000/svg">
<path d="M4.9375 4C2.76286 4 1 5.76286 1 7.9375C1 10.1121 2.76286 11.875 4.9375 11.875C6.60411 11.8724 8.08875 10.8213 8.64429 9.25L11.5 9.24658V10.9966H14.125V9.24316L15 9.24658V6.62158L8.64429 6.625C8.08875 5.05368 6.60411 4.00236 4.9375 4ZM4.9375 6.625C5.66238 6.625 6.25 7.21262 6.25 7.9375C6.25 8.66238 5.66238 9.25 4.9375 9.25C4.21262 9.25 3.625 8.66238 3.625 7.9375C3.625 7.21262 4.21262 6.625 4.9375 6.625Z" fill="url(#paint0_linear_622_36)"/>
<defs>
<linearGradient id="paint0_linear_622_36" x1="3.5375" y1="10.9453" x2="10.0658" y2="0.818989" gradientUnits="userSpaceOnUse">
<stop stop-color="#FE0844"/>
<stop offset="1" stop-color="#FEB302"/>
</linearGradient>
</defs>
</svg>
