<svg width="24" height="24" viewBox="0 0 24 24" fill="none" xmlns="http://www.w3.org/2000/svg">
<path d="M11.11 23C10.9941 22.9999 10.879 22.9796 10.77 22.94C10.5598 22.863 10.3815 22.7177 10.2636 22.5273C10.1457 22.3369 10.0952 22.1125 10.12 21.89L10.89 14.8H5.00004C4.81837 14.8003 4.64006 14.7511 4.48426 14.6576C4.32845 14.5642 4.20104 14.4301 4.11571 14.2697C4.03038 14.1093 3.99035 13.9287 3.99992 13.7473C4.0095 13.5659 4.06831 13.3905 4.17004 13.24L12.06 1.44001C12.1848 1.25534 12.3677 1.11766 12.5797 1.04881C12.7917 0.979969 13.0206 0.983908 13.23 1.06001C13.4314 1.13477 13.6034 1.27239 13.7204 1.4525C13.8375 1.6326 13.8935 1.84562 13.88 2.06001L13.11 9.20001H19C19.1817 9.19973 19.36 9.24895 19.5158 9.34238C19.6716 9.43581 19.799 9.56992 19.8844 9.7303C19.9697 9.89068 20.0097 10.0713 20.0002 10.2527C19.9906 10.4341 19.9318 10.6095 19.83 10.76L11.94 22.56C11.8483 22.6957 11.7247 22.8068 11.5799 22.8835C11.4352 22.9603 11.2738 23.0003 11.11 23V23ZM6.87004 12.8H12C12.1396 12.8003 12.2775 12.8299 12.405 12.8867C12.5324 12.9435 12.6465 13.0264 12.74 13.13C12.8344 13.235 12.9055 13.3588 12.9486 13.4932C12.9917 13.6277 13.0058 13.7697 12.99 13.91L12.54 18.06L17.13 11.2H12C11.8589 11.2009 11.7192 11.1718 11.5901 11.1149C11.461 11.0579 11.3455 10.9742 11.251 10.8694C11.1566 10.7645 11.0854 10.6409 11.0421 10.5065C10.9989 10.3722 10.9845 10.2303 11 10.09L11.45 5.94001L6.87004 12.8Z" fill="url(#paint0_linear)"/>
<defs>
<linearGradient id="paint0_linear" x1="12" y1="23" x2="12" y2="0.999908" gradientUnits="userSpaceOnUse">
<stop stop-color="#FDA700"/>
<stop offset="1" stop-color="#FFDE00"/>
</linearGradient>
</defs>
</svg>
