<svg width="16" height="16" viewBox="0 0 16 16" fill="none" xmlns="http://www.w3.org/2000/svg">
<path d="M8.44838 1.09617C8.26494 0.724621 7.7351 0.724641 7.55169 1.09621L5.64337 4.96224C5.57052 5.10982 5.4297 5.21211 5.26682 5.23574L1.00303 5.85444C0.592831 5.91396 0.42902 6.41807 0.725872 6.70735L3.81177 9.71455C3.92961 9.82939 3.98341 9.99486 3.95563 10.157L3.22802 14.4055C3.15806 14.8139 3.58684 15.1253 3.9536 14.9324L7.76733 12.9264C7.91299 12.8498 8.08703 12.8497 8.23271 12.9263L12.0465 14.9308C12.4133 15.1236 12.8419 14.8122 12.772 14.4038L12.0444 10.1571C12.0166 9.99487 12.0704 9.82939 12.1882 9.71454L15.2743 6.70719C15.5711 6.41794 15.4074 5.91389 14.9972 5.8543L10.7331 5.23478C10.5703 5.21112 10.4295 5.10886 10.3566 4.96132L8.44838 1.09617ZM7.55171 3.35646C7.73518 2.98506 8.26482 2.98506 8.44829 3.35646L9.69265 5.87545C9.76549 6.02292 9.90621 6.12513 10.069 6.1488L12.8496 6.5532C13.2596 6.61284 13.4233 7.1168 13.1266 7.40604L11.1142 9.36752C10.9964 9.48238 10.9426 9.64787 10.9704 9.81006L11.4449 12.5778C11.5149 12.9862 11.0863 13.2977 10.7195 13.1049L8.2326 11.7982C8.08698 11.7217 7.91303 11.7217 7.76741 11.7982L5.28157 13.1048C4.91477 13.2975 4.48612 12.9861 4.55614 12.5777L5.03058 9.81011C5.05839 9.64789 5.00458 9.48238 4.8867 9.36752L2.87368 7.40607C2.57685 7.11685 2.74053 6.61281 3.15065 6.55317L5.93103 6.1488C6.09379 6.12513 6.23451 6.02292 6.30735 5.87545L7.55171 3.35646Z" fill="url(#paint0_linear)"/>
<defs>
<linearGradient id="paint0_linear" x1="0.0023438" y1="7.57054" x2="16.0027" y2="7.57054" gradientUnits="userSpaceOnUse">
<stop stop-color="#A93AFF"/>
<stop offset="1" stop-color="#FF81FF"/>
</linearGradient>
</defs>
</svg>
