<svg width="16" height="16" viewBox="0 0 16 16" fill="none" xmlns="http://www.w3.org/2000/svg">
<path d="M8.44836 0.908411C8.26495 0.536806 7.73505 0.536805 7.55164 0.90841L5.64369 4.77403C5.57085 4.92161 5.43006 5.02389 5.26719 5.04755L1.00279 5.66687C0.592638 5.72643 0.428864 6.23047 0.72567 6.51974L3.81177 9.52749C3.92961 9.64234 3.9834 9.80781 3.95561 9.97L3.22772 14.2183C3.15774 14.6268 3.58648 14.9382 3.95326 14.7453L7.76737 12.7395C7.91301 12.6629 8.08701 12.6629 8.23267 12.7395L12.0469 14.7438C12.4137 14.9365 12.8423 14.6251 12.7723 14.2167L12.0444 9.97001C12.0166 9.80782 12.0704 9.64233 12.1882 9.52748L15.2743 6.51975C15.5711 6.23048 15.4074 5.72643 14.9972 5.66687L10.7328 5.04755C10.5699 5.02389 10.4291 4.92161 10.3563 4.77403L8.44836 0.908411ZM8 4.40329C8 3.87435 8.71409 3.70763 8.94831 4.18189L9.69225 5.68824C9.76509 5.83574 9.90582 5.93797 10.0686 5.96164L12.849 6.36594C13.2591 6.42557 13.4228 6.92956 13.1261 7.2188L11.114 9.17985C10.9962 9.29469 10.9424 9.46015 10.9701 9.62232L11.4443 12.3905C11.5142 12.7989 11.0856 13.1102 10.7188 12.9174L8.26735 11.6288C8.10295 11.5424 8 11.372 8 11.1862V4.40329Z" fill="url(#paint0_linear)"/>
<defs>
<linearGradient id="paint0_linear" x1="8" y1="15.2168" x2="8" y2="0" gradientUnits="userSpaceOnUse">
<stop stop-color="#FD3A84"/>
<stop offset="1" stop-color="#FFA68D"/>
</linearGradient>
</defs>
</svg>
