<svg width="16" height="16" viewBox="0 0 16 16" fill="none" xmlns="http://www.w3.org/2000/svg">
<path d="M6.78462 1C6.5637 1 6.38462 1.17909 6.38462 1.4V1.86032C6.38462 2.05012 6.25076 2.21222 6.06754 2.26176C5.61461 2.38423 5.17977 2.56561 4.77361 2.80075C4.60899 2.89605 4.39914 2.8763 4.26464 2.7418L3.93729 2.41445C3.78108 2.25824 3.52781 2.25824 3.3716 2.41445L2.41445 3.3716C2.25824 3.52781 2.25824 3.78108 2.41445 3.93729L2.74211 4.26494C2.87647 4.39931 2.89633 4.60889 2.80139 4.7735C2.56724 5.1795 2.38713 5.61417 2.26556 6.06692C2.21628 6.25045 2.05404 6.38462 1.86402 6.38462H1.4C1.17909 6.38462 1 6.5637 1 6.78462V8.13846C1 8.35938 1.17909 8.53846 1.4 8.53846H1.86032C2.05012 8.53846 2.21222 8.67232 2.26176 8.85553C2.38423 9.30847 2.56561 9.74331 2.80075 10.1495C2.89605 10.3141 2.8763 10.5239 2.7418 10.6584L2.41445 10.9858C2.25824 11.142 2.25824 11.3953 2.41445 11.5515L3.3716 12.5086C3.52781 12.6648 3.78108 12.6648 3.93729 12.5086L4.26494 12.181C4.39931 12.0466 4.60889 12.0268 4.7735 12.1217C5.1795 12.3558 5.61417 12.536 6.06692 12.6575C6.25045 12.7068 6.38462 12.869 6.38462 13.0591V13.5231C6.38462 13.744 6.5637 13.9231 6.78462 13.9231H7.06154C7.28245 13.9231 7.46154 13.744 7.46154 13.5231V12.1692C7.46154 11.9483 7.28204 11.7712 7.06208 11.7507C6.0449 11.6559 5.08932 11.2016 4.37169 10.463C3.59093 9.65858 3.15385 8.58262 3.15385 7.46154C3.15385 6.29738 3.62542 5.18262 4.46004 4.37169C5.2645 3.59093 6.34046 3.15385 7.46154 3.15385C8.62569 3.15385 9.74046 3.62542 10.5514 4.46004C11.2389 5.1684 11.6599 6.08727 11.7507 7.06209C11.7712 7.28205 11.9483 7.46154 12.1692 7.46154H13.5231C13.744 7.46154 13.9231 7.28245 13.9231 7.06154V6.78462C13.9231 6.5637 13.744 6.38462 13.5231 6.38462H13.0628C12.873 6.38462 12.7109 6.25076 12.6613 6.06754C12.5388 5.61461 12.3575 5.17977 12.1223 4.77361C12.027 4.60899 12.0468 4.39914 12.1813 4.26464L12.5086 3.93729C12.6648 3.78108 12.6648 3.52781 12.5086 3.3716L11.5515 2.41445C11.3953 2.25824 11.142 2.25824 10.9858 2.41445L10.6581 2.74211C10.5238 2.87647 10.3142 2.89633 10.1496 2.80139C9.74357 2.56724 9.30891 2.38713 8.85616 2.26556C8.67263 2.21628 8.53846 2.05404 8.53846 1.86402V1.4C8.53846 1.17909 8.35938 1 8.13846 1H6.78462ZM7.0065 5.72228C6.74067 5.54506 6.38462 5.73562 6.38462 6.0551V8.86798C6.38462 9.18746 6.74067 9.37801 7.0065 9.2008L9.11616 7.79436C9.35365 7.63603 9.35365 7.28705 9.11615 7.12872L7.0065 5.72228ZM11.0923 8.53846C10.8714 8.53846 10.6923 8.71755 10.6923 8.93846V11.973C10.6923 12.3294 10.2615 12.5078 10.0095 12.2559L9.22936 11.4758C9.07315 11.3195 8.81988 11.3195 8.66367 11.4758L8.46794 11.6715C8.31173 11.8277 8.31173 12.081 8.46794 12.2372L10.9479 14.7172C11.1041 14.8734 11.3574 14.8734 11.5136 14.7172L13.2542 12.9766L13.9936 12.2372C14.1498 12.081 14.1498 11.8277 13.9936 11.6715L13.7979 11.4758C13.6417 11.3195 13.3884 11.3195 13.2322 11.4758L12.4521 12.2559C12.2001 12.5078 11.7692 12.3294 11.7692 11.973V8.93846C11.7692 8.71755 11.5901 8.53846 11.3692 8.53846H11.0923Z" fill="url(#paint0_linear_624_41)" stroke="url(#paint1_linear_624_41)" stroke-width="0.6"/>
<defs>
<linearGradient id="paint0_linear_624_41" x1="13.8279" y1="1.40016" x2="8.15659" y2="14.9047" gradientUnits="userSpaceOnUse">
<stop stop-color="#FE0F7C"/>
<stop offset="1" stop-color="#DF0066"/>
</linearGradient>
<linearGradient id="paint1_linear_624_41" x1="13.8279" y1="1.40016" x2="8.15659" y2="14.9047" gradientUnits="userSpaceOnUse">
<stop stop-color="#FE0F7C"/>
<stop offset="1" stop-color="#DF0066"/>
</linearGradient>
</defs>
</svg>
