<svg width="16" height="16" viewBox="0 0 16 16" fill="none" xmlns="http://www.w3.org/2000/svg">
<path d="M1 1V4.5H4.5V1H1ZM5.66667 1V2.16667H11.3587L12.5254 1H5.66667ZM14.2002 1L1 14.1774L1.83398 15L15 1.81348L14.2002 1ZM5.66667 3.33333V4.5H9.02539L10.1921 3.33333H5.66667ZM15 3.47461L13.9746 4.5H15V3.47461ZM1 6.83333V10.3333H3.19206L4.5 9.02539V6.83333H1ZM5.66667 6.83333V7.85872L6.69206 6.83333H5.66667ZM11.6413 6.83333L10.4746 8H15V6.83333H11.6413ZM9.30794 9.16667L8.14128 10.3333H15V9.16667H9.30794ZM5.80794 12.6667L4.64128 13.8333H15V12.6667H5.80794Z" fill="url(#paint0_linear)"/>
<defs>
<linearGradient id="paint0_linear" x1="8" y1="15" x2="8" y2="1" gradientUnits="userSpaceOnUse">
<stop stop-color="#00B59C"/>
<stop offset="1" stop-color="#9CFFAC"/>
</linearGradient>
</defs>
</svg>
