<svg width="16" height="16" viewBox="0 0 16 16" fill="none" xmlns="http://www.w3.org/2000/svg">
<path d="M1.57143 16C1.25584 16 1 15.7441 1 15.4286V0.571429C1 0.25584 1.25584 0 1.57143 0H10.0966C10.2482 0 10.3935 0.0602058 10.5007 0.167371L14.1659 3.83263C14.2731 3.93979 14.3334 4.08514 14.3334 4.2367V15.4286C14.3334 15.7441 14.0775 16 13.7619 16H1.57143ZM2.33334 14.0952C2.33334 14.4109 2.58917 14.6666 2.90477 14.6666H12.4286C12.7441 14.6666 13 14.4109 13 14.0952V5.90477C13 5.58917 12.7441 5.33334 12.4286 5.33334H9.57143C9.25584 5.33334 9 5.0775 9 4.76191V1.90477C9 1.58917 8.74416 1.33334 8.42857 1.33334H2.90477C2.58917 1.33334 2.33334 1.58917 2.33334 1.90477V14.0952Z" fill="url(#paint0_linear_621_171)"/>
<defs>
<linearGradient id="paint0_linear_621_171" x1="7.66666" y1="16" x2="7.66666" y2="0" gradientUnits="userSpaceOnUse">
<stop stop-color="#A93AFF"/>
<stop offset="1" stop-color="#FF81FF"/>
</linearGradient>
</defs>
</svg>
