<svg width="16" height="16" viewBox="0 0 16 16" fill="none" xmlns="http://www.w3.org/2000/svg">
<path d="M7.55163 1.09652C7.73503 0.724889 8.26497 0.724889 8.44837 1.09652L10.3557 4.96125C10.4285 5.10883 10.5693 5.21112 10.7322 5.23478L14.9973 5.85434C15.4075 5.91392 15.5712 6.41792 15.2745 6.70719L12.1882 9.71552C12.0704 9.83038 12.0166 9.99587 12.0444 10.1581L12.7728 14.4064C12.8428 14.8148 12.4141 15.1263 12.0473 14.9334L8.23273 12.9274C8.08703 12.8508 7.91297 12.8508 7.76727 12.9274L3.95275 14.9334C3.58594 15.1263 3.15718 14.8148 3.22721 14.4064L3.95558 10.1581C3.98339 9.99587 3.92961 9.83038 3.81178 9.71552L0.725525 6.70719C0.428757 6.41792 0.592529 5.91392 1.00265 5.85434L5.26784 5.23478C5.43071 5.21112 5.57151 5.10883 5.64434 4.96125L7.55163 1.09652Z" fill="url(#paint0_linear)"/>
<defs>
<linearGradient id="paint0_linear" x1="8" y1="15.405" x2="8" y2="0.187988" gradientUnits="userSpaceOnUse">
<stop stop-color="#FD3A84"/>
<stop offset="1" stop-color="#FFA68D"/>
</linearGradient>
</defs>
</svg>
