<svg width="32" height="32" viewBox="0 0 32 32" fill="none" xmlns="http://www.w3.org/2000/svg">
<path d="M9.91886 4.12808L8.66514 4.92587L11.0427 9.47329L7.79556 8.51272L7.42 10.0557L12.0639 11.4294L14.3317 15.7647H9.80043L6.40023 12.0086L5.37756 13.1383L7.75656 15.7647H3V17.3603H7.75656L5.37756 19.9865L6.40023 21.1162L9.799 17.3603H14.3244L12.061 21.689L7.41856 23.0629L7.78977 24.6058L11.0397 23.642L8.66228 28.1942L9.91171 28.9921L12.2907 24.4414L13.1617 28.0315L14.5556 27.6167L13.3119 22.4852L15.9913 17.3603H16L18.6823 22.4963L17.4401 27.6261L18.8354 28.0362L19.7036 24.4494L22.0826 29L23.3349 28.2023L20.9573 23.6516L24.2044 24.6121L24.58 23.0725L19.9361 21.6986L17.6683 17.3603H22.201L25.5997 21.1162L26.6224 19.9865L24.2434 17.3603H29V15.7647H24.2434L26.6224 13.1383L26.5487 13.0426H24.6667L22.201 15.7647H16V15.7615L15.9943 15.7583L13.3177 10.6317L14.5599 5.50187L13.1646 5.08702L12.2964 8.67708L9.91886 4.12808ZM23.2223 3V4.59558H26.5343L23.6454 7.78674L23.2223 8.25419V9.38233H29V7.78674H25.6879L28.5767 4.59558L29 4.12808V3H27.9787H23.2223Z" fill="url(#paint0_linear)"/>
<path d="M16 6V7.74998H19.4396L16.4396 11.25L16 11.7627V13H22V11.25H18.5606L21.5606 7.74998L22 7.23724V6H20.9396H16Z" fill="url(#paint1_linear)"/>
<defs>
<linearGradient id="paint0_linear" x1="16" y1="29" x2="16" y2="3" gradientUnits="userSpaceOnUse">
<stop stop-color="#A93AFF"/>
<stop offset="1" stop-color="#FF81FF"/>
</linearGradient>
<linearGradient id="paint1_linear" x1="19" y1="13" x2="19" y2="6" gradientUnits="userSpaceOnUse">
<stop stop-color="#A93AFF"/>
<stop offset="1" stop-color="#FF81FF"/>
</linearGradient>
</defs>
</svg>
