<svg width="512" height="512" viewBox="0 0 512 512" fill="none" xmlns="http://www.w3.org/2000/svg">
<path d="M427.641 359.486C430.077 360.785 431.005 363.817 429.652 366.224C405.877 408.534 369.03 442.067 324.569 461.746C278.582 482.101 227.102 486.463 178.346 474.135C129.59 461.808 86.3701 433.502 55.5846 393.736C24.7991 353.97 8.22342 305.036 8.50349 254.747C8.78356 204.458 25.9033 155.712 57.1297 116.291C88.3562 76.8705 131.889 49.0475 180.779 37.2638C229.669 25.4801 281.097 30.4151 326.855 51.2808C371.094 71.4544 407.565 105.395 430.868 147.967C432.193 150.39 431.232 153.411 428.781 154.682L413.7 162.507C411.249 163.779 408.237 162.819 406.903 160.4C386.385 123.181 354.406 93.5084 315.656 75.8379C275.388 57.4751 230.129 53.1322 187.103 63.5024C144.078 73.8726 105.767 98.358 78.2863 133.05C50.8056 167.742 35.7394 210.64 35.493 254.897C35.2465 299.154 49.8339 342.218 76.9265 377.214C104.019 412.21 142.055 437.12 184.962 447.969C227.869 458.818 273.174 454.979 313.644 437.066C352.589 419.828 384.896 390.513 405.828 353.525C407.188 351.122 410.211 350.195 412.648 351.494L427.641 359.486Z" fill="url(#paint0_linear)"/>
<path d="M379.105 333.615C381.542 334.914 382.471 337.947 381.101 340.344C363.121 371.81 335.527 396.749 302.307 411.453C267.562 426.832 228.666 430.128 191.828 420.813C154.991 411.499 122.335 390.112 99.075 360.067C75.8149 330.021 63.291 293.05 63.5026 255.053C63.7142 217.057 76.6491 180.227 100.242 150.442C123.836 120.658 156.727 99.6359 193.666 90.7327C230.606 81.8294 269.463 85.558 304.035 101.323C337.088 116.396 364.403 141.641 382.031 173.305C383.374 175.717 382.412 178.74 379.961 180.012L363.504 188.55C361.053 189.822 358.043 188.86 356.685 186.456C342.004 160.45 319.442 139.717 292.193 127.291C263.425 114.172 231.091 111.069 200.354 118.478C169.616 125.887 142.246 143.379 122.614 168.163C102.982 192.948 92.2181 223.595 92.0421 255.212C91.866 286.83 102.287 317.595 121.643 342.596C140.998 367.597 168.171 385.394 198.824 393.144C229.477 400.895 261.844 398.152 290.756 385.355C318.142 373.233 340.933 352.752 355.903 326.912C357.287 324.523 360.308 323.595 362.745 324.894L379.105 333.615Z" fill="url(#paint1_linear)"/>
<path d="M402.978 286.812V320.455C402.978 328.955 412.808 333.68 419.444 328.371L501.196 262.969C506.268 258.911 506.268 251.198 501.196 247.14L419.444 181.74C412.81 176.431 402.978 181.156 402.978 189.654V223.298C402.978 228.894 398.44 233.433 392.843 233.433H240.135C234.539 233.433 230 237.971 230 243.568V266.541C230 272.14 234.539 276.676 240.137 276.676H392.843C398.44 276.676 402.978 281.215 402.978 286.812Z" fill="url(#paint2_linear)"/>
<defs>
<linearGradient id="paint0_linear" x1="9.00002" y1="256" x2="429" y2="256" gradientUnits="userSpaceOnUse">
<stop stop-color="#FD3A84"/>
<stop offset="1" stop-color="#FFA68D"/>
</linearGradient>
<linearGradient id="paint1_linear" x1="64" y1="256" x2="368.5" y2="256" gradientUnits="userSpaceOnUse">
<stop stop-color="#FD3A84"/>
<stop offset="1" stop-color="#FFA68D"/>
</linearGradient>
<linearGradient id="paint2_linear" x1="229.959" y1="252.491" x2="511.027" y2="252.491" gradientUnits="userSpaceOnUse">
<stop stop-color="#FD3A84"/>
<stop offset="1" stop-color="#FFA68D"/>
</linearGradient>
</defs>
</svg>
