<svg width="16" height="16" viewBox="0 0 16 16" fill="none" xmlns="http://www.w3.org/2000/svg">
<path d="M1.5 1C1.22386 1 1 1.22386 1 1.5V14.5C1 14.7761 1.22386 15 1.5 15H7.5C7.77614 15 8 14.7761 8 14.5V14.3333C8 14.0572 7.77614 13.8333 7.5 13.8333H2.66667C2.39052 13.8333 2.16667 13.6095 2.16667 13.3333V2.66667C2.16667 2.39052 2.39052 2.16667 2.66667 2.16667H5.16667C5.44281 2.16667 5.66667 2.39052 5.66667 2.66667V4C5.66667 4.27614 5.89052 4.5 6.16667 4.5H11.5H13.3333C13.6095 4.5 13.8333 4.72386 13.8333 5V7.5C13.8333 7.77614 14.0572 8 14.3333 8H14.5C14.7761 8 15 7.77614 15 7.5V3.83333C15 3.55719 14.7761 3.33333 14.5 3.33333H12C11.7239 3.33333 11.5 3.10948 11.5 2.83333V1.5C11.5 1.22386 11.2761 1 11 1H10.3333H5.66667H1.5ZM12 9.16667C11.7239 9.16667 11.5 9.39052 11.5 9.66667V11C11.5 11.2761 11.2761 11.5 11 11.5H9.66667C9.39052 11.5 9.16667 11.7239 9.16667 12V12.1667C9.16667 12.4428 9.39052 12.6667 9.66667 12.6667H11C11.2761 12.6667 11.5 12.8905 11.5 13.1667V14.5C11.5 14.7761 11.7239 15 12 15H12.1667C12.4428 15 12.6667 14.7761 12.6667 14.5V13.1667C12.6667 12.8905 12.8905 12.6667 13.1667 12.6667H14.5C14.7761 12.6667 15 12.4428 15 12.1667V12C15 11.7239 14.7761 11.5 14.5 11.5H13.1667C12.8905 11.5 12.6667 11.2761 12.6667 11V9.66667C12.6667 9.39052 12.4428 9.16667 12.1667 9.16667H12Z" fill="url(#paint0_linear)"/>
<defs>
<linearGradient id="paint0_linear" x1="8" y1="15" x2="8" y2="1" gradientUnits="userSpaceOnUse">
<stop stop-color="#5570FF"/>
<stop offset="1" stop-color="#4DD3FF"/>
</linearGradient>
</defs>
</svg>
