<svg width="16" height="16" viewBox="0 0 16 16" fill="none" xmlns="http://www.w3.org/2000/svg">
<path d="M1.5 1C1.22386 1 1 1.22386 1 1.5V14.5C1 14.7761 1.22386 15 1.5 15H14.5C14.7761 15 15 14.7761 15 14.5V1.5C15 1.22386 14.7761 1 14.5 1H1.5ZM2.16667 2.66667C2.16667 2.39052 2.39052 2.16667 2.66667 2.16667H13.3333C13.6095 2.16667 13.8333 2.39052 13.8333 2.66667V13.3333C13.8333 13.6095 13.6095 13.8333 13.3333 13.8333H2.66667C2.39052 13.8333 2.16667 13.6095 2.16667 13.3333V2.66667ZM3.83333 4.5C3.55719 4.5 3.33333 4.72386 3.33333 5V6.33333C3.33333 6.60948 3.55719 6.83333 3.83333 6.83333H5.16667C5.44281 6.83333 5.66667 6.60948 5.66667 6.33333V5C5.66667 4.72386 5.44281 4.5 5.16667 4.5H3.83333ZM10.8333 4.5C10.5572 4.5 10.3333 4.72386 10.3333 5V6.33333C10.3333 6.60948 10.5572 6.83333 10.8333 6.83333H12.1667C12.4428 6.83333 12.6667 6.60948 12.6667 6.33333V5C12.6667 4.72386 12.4428 4.5 12.1667 4.5H10.8333ZM6.16667 9.16667C5.89052 9.16667 5.66667 9.39052 5.66667 9.66667V9.83333C5.66667 10.1095 5.89052 10.3333 6.16667 10.3333H9.83333C10.1095 10.3333 10.3333 10.1095 10.3333 9.83333V9.66667C10.3333 9.39052 10.1095 9.16667 9.83333 9.16667H6.16667ZM10.8333 10.3333C10.5572 10.3333 10.3333 10.5572 10.3333 10.8333V11C10.3333 11.2761 10.5572 11.5 10.8333 11.5H11C11.2761 11.5 11.5 11.2761 11.5 11V10.8333C11.5 10.5572 11.2761 10.3333 11 10.3333H10.8333ZM12 11.5C11.7239 11.5 11.5 11.7239 11.5 12V12.1667C11.5 12.4428 11.7239 12.6667 12 12.6667H12.1667C12.4428 12.6667 12.6667 12.4428 12.6667 12.1667V12C12.6667 11.7239 12.4428 11.5 12.1667 11.5H12ZM5.66667 10.8333C5.66667 10.5572 5.44281 10.3333 5.16667 10.3333H5C4.72386 10.3333 4.5 10.5572 4.5 10.8333V11C4.5 11.2761 4.72386 11.5 5 11.5H5.16667C5.44281 11.5 5.66667 11.2761 5.66667 11V10.8333ZM4.5 12C4.5 11.7239 4.27614 11.5 4 11.5H3.83333C3.55719 11.5 3.33333 11.7239 3.33333 12V12.1667C3.33333 12.4428 3.55719 12.6667 3.83333 12.6667H4C4.27614 12.6667 4.5 12.4428 4.5 12.1667V12Z" fill="url(#paint0_linear)"/>
<defs>
<linearGradient id="paint0_linear" x1="0.997949" y1="7.79256" x2="14.9969" y2="7.79256" gradientUnits="userSpaceOnUse">
<stop stop-color="#FD3A84"/>
<stop offset="1" stop-color="#FFA68D"/>
</linearGradient>
</defs>
</svg>
