<svg width="16" height="16" viewBox="0 0 16 16" fill="none" xmlns="http://www.w3.org/2000/svg">
<g clip-path="url(#clip0_650_134)">
<path d="M8.16641 1.24961C8.08725 1.13087 7.91275 1.13087 7.83359 1.24962L5.87396 4.18906C5.78535 4.32197 5.88063 4.5 6.04037 4.5H9.95963C10.1194 4.5 10.2146 4.32197 10.126 4.18906L8.16641 1.24961ZM4.5 6.04037C4.5 5.88063 4.32197 5.78535 4.18906 5.87396L1.24961 7.83359C1.13087 7.91275 1.13087 8.08725 1.24962 8.16641L4.18906 10.126C4.32197 10.2146 4.5 10.1194 4.5 9.95963V6.04037ZM11.8109 5.87396C11.678 5.78535 11.5 5.88063 11.5 6.04037V9.95963C11.5 10.1194 11.678 10.2146 11.8109 10.126L14.7504 8.16641C14.8691 8.08725 14.8691 7.91275 14.7504 7.83359L11.8109 5.87396ZM8 6.83333C7.35567 6.83333 6.83333 7.35567 6.83333 8C6.83333 8.64433 7.35567 9.16667 8 9.16667C8.64433 9.16667 9.16667 8.64433 9.16667 8C9.16667 7.35567 8.64433 6.83333 8 6.83333ZM6.04037 11.5C5.88063 11.5 5.78535 11.678 5.87396 11.8109L7.83359 14.7504C7.91275 14.8691 8.08725 14.8691 8.16641 14.7504L10.126 11.8109C10.2146 11.678 10.1194 11.5 9.95963 11.5H6.04037Z" fill="url(#paint0_linear_650_134)"/>
<path d="M8.16641 1.24961C8.08725 1.13087 7.91275 1.13087 7.83359 1.24962L5.87396 4.18906C5.78535 4.32197 5.88063 4.5 6.04037 4.5H9.95963C10.1194 4.5 10.2146 4.32197 10.126 4.18906L8.16641 1.24961ZM4.5 6.04037C4.5 5.88063 4.32197 5.78535 4.18906 5.87396L1.24961 7.83359C1.13087 7.91275 1.13087 8.08725 1.24962 8.16641L4.18906 10.126C4.32197 10.2146 4.5 10.1194 4.5 9.95963V6.04037ZM11.8109 5.87396C11.678 5.78535 11.5 5.88063 11.5 6.04037V9.95963C11.5 10.1194 11.678 10.2146 11.8109 10.126L14.7504 8.16641C14.8691 8.08725 14.8691 7.91275 14.7504 7.83359L11.8109 5.87396ZM8 6.83333C7.35567 6.83333 6.83333 7.35567 6.83333 8C6.83333 8.64433 7.35567 9.16667 8 9.16667C8.64433 9.16667 9.16667 8.64433 9.16667 8C9.16667 7.35567 8.64433 6.83333 8 6.83333ZM6.04037 11.5C5.88063 11.5 5.78535 11.678 5.87396 11.8109L7.83359 14.7504C7.91275 14.8691 8.08725 14.8691 8.16641 14.7504L10.126 11.8109C10.2146 11.678 10.1194 11.5 9.95963 11.5H6.04037Z" stroke="black" stroke-width="0.6"/>
<path d="M8.16641 1.24961C8.08725 1.13087 7.91275 1.13087 7.83359 1.24962L5.87396 4.18906C5.78535 4.32197 5.88063 4.5 6.04037 4.5H9.95963C10.1194 4.5 10.2146 4.32197 10.126 4.18906L8.16641 1.24961ZM4.5 6.04037C4.5 5.88063 4.32197 5.78535 4.18906 5.87396L1.24961 7.83359C1.13087 7.91275 1.13087 8.08725 1.24962 8.16641L4.18906 10.126C4.32197 10.2146 4.5 10.1194 4.5 9.95963V6.04037ZM11.8109 5.87396C11.678 5.78535 11.5 5.88063 11.5 6.04037V9.95963C11.5 10.1194 11.678 10.2146 11.8109 10.126L14.7504 8.16641C14.8691 8.08725 14.8691 7.91275 14.7504 7.83359L11.8109 5.87396ZM8 6.83333C7.35567 6.83333 6.83333 7.35567 6.83333 8C6.83333 8.64433 7.35567 9.16667 8 9.16667C8.64433 9.16667 9.16667 8.64433 9.16667 8C9.16667 7.35567 8.64433 6.83333 8 6.83333ZM6.04037 11.5C5.88063 11.5 5.78535 11.678 5.87396 11.8109L7.83359 14.7504C7.91275 14.8691 8.08725 14.8691 8.16641 14.7504L10.126 11.8109C10.2146 11.678 10.1194 11.5 9.95963 11.5H6.04037Z" stroke="url(#paint1_linear_650_134)" stroke-width="0.6"/>
</g>
<defs>
<linearGradient id="paint0_linear_650_134" x1="3.5375" y1="13.3472" x2="16.1622" y2="2.33196" gradientUnits="userSpaceOnUse">
<stop stop-color="#FE0844"/>
<stop offset="1" stop-color="#FEB302"/>
</linearGradient>
<linearGradient id="paint1_linear_650_134" x1="3.5375" y1="13.3472" x2="16.1622" y2="2.33196" gradientUnits="userSpaceOnUse">
<stop stop-color="#FE0844"/>
<stop offset="1" stop-color="#FEB302"/>
</linearGradient>
<clipPath id="clip0_650_134">
<rect width="16" height="16" fill="white"/>
</clipPath>
</defs>
</svg>
