<svg width="16" height="16" viewBox="0 0 16 16" fill="none" xmlns="http://www.w3.org/2000/svg">
<g clip-path="url(#clip0_651_140)">
<path d="M1.2 1C1.08954 1 1 1.08954 1 1.2V2.75V3.425C1 3.53546 1.08954 3.625 1.2 3.625H3.425C3.53546 3.625 3.625 3.53546 3.625 3.425V2.75V1.2C3.625 1.08954 3.53546 1 3.425 1H1.875H1.2ZM12.575 1C12.4645 1 12.375 1.08954 12.375 1.2V1.875V2.75V3.425C12.375 3.53546 12.4645 3.625 12.575 3.625H13.25H14.125H14.8C14.9105 3.625 15 3.53546 15 3.425V2.75V1.875V1.2C15 1.08954 14.9105 1 14.8 1H12.575ZM1.875 2.075C1.875 1.96454 1.96454 1.875 2.075 1.875H2.55C2.66046 1.875 2.75 1.96454 2.75 2.075V2.55C2.75 2.66046 2.66046 2.75 2.55 2.75H2.075C1.96454 2.75 1.875 2.66046 1.875 2.55V2.075ZM13.25 2.075C13.25 1.96454 13.3395 1.875 13.45 1.875H13.925C14.0355 1.875 14.125 1.96454 14.125 2.075V2.55C14.125 2.66046 14.0355 2.75 13.925 2.75H13.45C13.3395 2.75 13.25 2.66046 13.25 2.55V2.075ZM6.45 2.75C6.33954 2.75 6.25 2.83954 6.25 2.95V3.425C6.25 3.53546 6.33954 3.625 6.45 3.625H9.55C9.66046 3.625 9.75 3.53546 9.75 3.425V2.95C9.75 2.83954 9.66046 2.75 9.55 2.75H6.45ZM2.95 6.25C2.83954 6.25 2.75 6.33954 2.75 6.45V9.55C2.75 9.66046 2.83954 9.75 2.95 9.75H3.425C3.53546 9.75 3.625 9.66046 3.625 9.55V6.45C3.625 6.33954 3.53546 6.25 3.425 6.25H2.95ZM1.2 12.375C1.08954 12.375 1 12.4645 1 12.575V13.25V14.8C1 14.9105 1.08954 15 1.2 15H1.875H2.75H3.425C3.53546 15 3.625 14.9105 3.625 14.8V12.575C3.625 12.4645 3.53546 12.375 3.425 12.375H1.2ZM1.875 13.45C1.875 13.3395 1.96454 13.25 2.075 13.25H2.55C2.66046 13.25 2.75 13.3395 2.75 13.45V13.925C2.75 14.0355 2.66046 14.125 2.55 14.125H2.075C1.96454 14.125 1.875 14.0355 1.875 13.925V13.45Z" fill="url(#paint0_linear_651_140)" stroke="url(#paint1_linear_651_140)"/>
<path fill-rule="evenodd" clip-rule="evenodd" d="M6.7 6.75C6.58954 6.75 6.5 6.83954 6.5 6.95V11.8C6.5 11.9105 6.58954 12 6.7 12H11.55C11.6605 12 11.75 11.9105 11.75 11.8V6.95C11.75 6.83954 11.6605 6.75 11.55 6.75H6.7ZM7.375 7.825C7.375 7.71454 7.46454 7.625 7.575 7.625H10.675C10.7855 7.625 10.875 7.71454 10.875 7.825V10.925C10.875 11.0355 10.7855 11.125 10.675 11.125H7.575C7.46454 11.125 7.375 11.0355 7.375 10.925V7.825Z" fill="url(#paint2_linear_651_140)"/>
<path d="M14.2 11.5C14.0895 11.5 14 11.5896 14 11.7V13.925C14 14.0355 13.9105 14.125 13.8 14.125H11.575C11.4645 14.125 11.375 14.2146 11.375 14.325V14.8C11.375 14.9105 11.4645 15 11.575 15H14.675C14.7855 15 14.875 14.9105 14.875 14.8V11.7C14.875 11.5896 14.7855 11.5 14.675 11.5H14.2Z" fill="url(#paint3_linear_651_140)"/>
<path fill-rule="evenodd" clip-rule="evenodd" d="M6.7 6.75C6.58954 6.75 6.5 6.83954 6.5 6.95V11.8C6.5 11.9105 6.58954 12 6.7 12H11.55C11.6605 12 11.75 11.9105 11.75 11.8V6.95C11.75 6.83954 11.6605 6.75 11.55 6.75H6.7ZM7.375 7.825C7.375 7.71454 7.46454 7.625 7.575 7.625H10.675C10.7855 7.625 10.875 7.71454 10.875 7.825V10.925C10.875 11.0355 10.7855 11.125 10.675 11.125H7.575C7.46454 11.125 7.375 11.0355 7.375 10.925V7.825Z" stroke="url(#paint4_linear_651_140)"/>
<path d="M14.2 11.5C14.0895 11.5 14 11.5896 14 11.7V13.925C14 14.0355 13.9105 14.125 13.8 14.125H11.575C11.4645 14.125 11.375 14.2146 11.375 14.325V14.8C11.375 14.9105 11.4645 15 11.575 15H14.675C14.7855 15 14.875 14.9105 14.875 14.8V11.7C14.875 11.5896 14.7855 11.5 14.675 11.5H14.2Z" stroke="url(#paint5_linear_651_140)"/>
</g>
<defs>
<linearGradient id="paint0_linear_651_140" x1="3.5375" y1="13.3472" x2="16.1622" y2="2.33196" gradientUnits="userSpaceOnUse">
<stop stop-color="#FE0844"/>
<stop offset="1" stop-color="#FEB302"/>
</linearGradient>
<linearGradient id="paint1_linear_651_140" x1="3.5375" y1="13.3472" x2="16.1622" y2="2.33196" gradientUnits="userSpaceOnUse">
<stop stop-color="#FE0844"/>
<stop offset="1" stop-color="#FEB302"/>
</linearGradient>
<linearGradient id="paint2_linear_651_140" x1="10.3233" y1="14.7785" x2="11.2419" y2="7.3203" gradientUnits="userSpaceOnUse">
<stop stop-color="#8D01A2"/>
<stop offset="1" stop-color="#FF33DB"/>
</linearGradient>
<linearGradient id="paint3_linear_651_140" x1="10.3233" y1="14.7785" x2="11.2419" y2="7.3203" gradientUnits="userSpaceOnUse">
<stop stop-color="#8D01A2"/>
<stop offset="1" stop-color="#FF33DB"/>
</linearGradient>
<linearGradient id="paint4_linear_651_140" x1="10.3233" y1="14.7785" x2="11.2419" y2="7.3203" gradientUnits="userSpaceOnUse">
<stop stop-color="#8D01A2"/>
<stop offset="1" stop-color="#FF33DB"/>
</linearGradient>
<linearGradient id="paint5_linear_651_140" x1="10.3233" y1="14.7785" x2="11.2419" y2="7.3203" gradientUnits="userSpaceOnUse">
<stop stop-color="#8D01A2"/>
<stop offset="1" stop-color="#FF33DB"/>
</linearGradient>
<clipPath id="clip0_651_140">
<rect width="16" height="16" fill="white"/>
</clipPath>
</defs>
</svg>
