<svg width="48" height="48" viewBox="0 0 48 48" fill="none" xmlns="http://www.w3.org/2000/svg">
<path fill-rule="evenodd" clip-rule="evenodd" d="M7.20929 5H40.7907C44.2202 5 47 7.77998 47 11.2093V36.2119C47 39.6413 44.2202 42.4211 40.7907 42.4211H7.20929C3.77998 42.4211 1 39.6413 1 36.2119V11.2093C1 7.77998 3.78002 5 7.20929 5ZM7.20929 9.65697C6.35198 9.65697 5.65697 10.352 5.65697 11.2093V36.2119C5.65697 37.0693 6.35198 37.7641 7.20929 37.7641H40.7907C41.6484 37.7641 42.343 37.0693 42.343 36.2119V11.2093C42.343 10.352 41.6484 9.65697 40.7907 9.65697H7.20929Z" fill="url(#paint0_linear_668_44)"/>
<path d="M10.8179 14.1385C11.7861 13.7534 13.046 14.0301 13.6497 14.7118C16.3124 17.4056 18.9605 20.1105 21.6174 22.8088C21.8653 23.1076 22.294 23.3998 22.1977 23.7915C21.9324 24.1877 21.5649 24.5353 21.2208 24.8939C18.7185 27.4261 16.2337 29.9672 13.7401 32.506C13.3143 32.9576 12.664 33.3383 11.9028 33.3516C9.99255 33.4534 8.83471 31.5011 10.1996 30.4785C12.2761 28.3557 14.3788 26.2485 16.4349 24.1169C16.8286 23.8048 16.6828 23.3378 16.3386 23.0434C14.2621 20.9295 12.1769 18.82 10.1092 16.7017C9.23137 15.9204 9.56962 14.5724 10.8179 14.1385Z" fill="url(#paint1_linear_668_44)"/>
<path d="M23.1278 29.1819C23.5757 28.9681 24.0841 29.0192 24.5622 29C28.6993 29.016 32.8393 28.9904 36.9764 29.0096C38.0021 28.9234 38.9798 29.8327 38.9951 30.924C39.0797 32.079 38.0539 33.1383 36.9552 32.9852C32.6244 32.9852 28.2907 32.9948 23.96 32.982C22.9189 33.0904 21.9505 32.0375 22.002 30.9559C22.008 30.1998 22.4619 29.4691 23.1278 29.1819Z" fill="url(#paint2_linear_668_44)"/>
<defs>
<linearGradient id="paint0_linear_668_44" x1="1.66628" y1="40.8466" x2="20.2291" y2="31.7417" gradientUnits="userSpaceOnUse">
<stop stop-color="#F35C58"/>
<stop offset="1" stop-color="#B118F0"/>
</linearGradient>
<linearGradient id="paint1_linear_668_44" x1="20.0119" y1="22.5765" x2="11.9372" y2="28.6774" gradientUnits="userSpaceOnUse">
<stop stop-color="#FD2E00"/>
<stop offset="1" stop-color="#FF9900"/>
</linearGradient>
<linearGradient id="paint2_linear_668_44" x1="34.2893" y1="30.0346" x2="20.5978" y2="31.2498" gradientUnits="userSpaceOnUse">
<stop stop-color="#FD2E00"/>
<stop offset="1" stop-color="#FF9900"/>
</linearGradient>
</defs>
</svg>
