<svg width="16" height="16" viewBox="0 0 16 16" fill="none" xmlns="http://www.w3.org/2000/svg">
<path d="M8.007 1.00003C7.84322 0.998648 7.68234 1.04326 7.54266 1.1288C7.40299 1.21433 7.29013 1.33735 7.21692 1.48386L1.09228 13.7328C1.0256 13.8662 0.994148 14.0145 1.0009 14.1635C1.00764 14.3125 1.05237 14.4573 1.13084 14.5841C1.2093 14.711 1.31889 14.8157 1.44919 14.8883C1.5795 14.9608 1.7262 14.9989 1.87536 14.9988H14.1246C14.2738 14.9989 14.4205 14.9608 14.5508 14.8883C14.6811 14.8157 14.7907 14.711 14.8692 14.5841C14.9476 14.4573 14.9924 14.3125 14.9991 14.1635C15.0059 14.0145 14.9744 13.8662 14.9077 13.7328L8.78308 1.48386C8.71094 1.33948 8.60026 1.21787 8.46329 1.13248C8.32632 1.04709 8.1684 1.00125 8.007 1.00003V1.00003Z" fill="url(#paint0_linear)"/>
<path d="M7.33286 4.49976C7.05671 4.49976 6.83286 4.72361 6.83286 4.99976V8.66603C6.83286 8.94218 7.05671 9.16603 7.33286 9.16603H8.66599C8.94214 9.16603 9.16599 8.94218 9.16599 8.66603V4.99976C9.16599 4.72361 8.94214 4.49976 8.66599 4.49976H7.33286ZM7.33286 10.3326C7.05671 10.3326 6.83286 10.5565 6.83286 10.8326V12.1657C6.83286 12.4419 7.05671 12.6657 7.33286 12.6657H8.66599C8.94214 12.6657 9.16599 12.4419 9.16599 12.1657V10.8326C9.16599 10.5565 8.94214 10.3326 8.66599 10.3326H7.33286Z" fill="white"/>
<defs>
<linearGradient id="paint0_linear" x1="8" y1="14.9988" x2="8" y2="1" gradientUnits="userSpaceOnUse">
<stop stop-color="#FD5900"/>
<stop offset="1" stop-color="#FFDE00"/>
</linearGradient>
</defs>
</svg>
