<svg width="24" height="24" viewBox="0 0 24 24" fill="none" xmlns="http://www.w3.org/2000/svg">
<g clip-path="url(#clip0_621_122)">
<path d="M4.88814 3.81825C4.84219 3.73553 4.86042 3.63175 4.93283 3.57086C6.91012 1.90815 9.41307 0.996401 12 1.00001C18.0753 1.00001 23 5.92471 23 12C23 14.2351 22.3331 16.3149 21.1886 18.0501C21.1073 18.1733 20.9256 18.164 20.8539 18.0349L17.6651 12.2972C17.5911 12.1638 17.6875 12 17.84 12H20.6C20.7105 12 20.8002 11.9104 20.7977 11.8C20.7602 10.1446 20.2563 8.53192 19.3422 7.1482C18.3911 5.70879 17.0379 4.58069 15.4509 3.90414C13.8638 3.22761 12.113 3.03248 10.416 3.34303C8.80415 3.63798 7.30844 4.37674 6.09593 5.4738C5.99865 5.56182 5.84364 5.53854 5.77994 5.42386L4.88814 3.81825ZM19.1119 20.1818C19.1578 20.2645 19.1396 20.3683 19.0672 20.4291C17.0898 22.0918 14.5869 23.0037 12 23C5.9247 23 1 18.0753 1 12C1 9.7649 1.66692 7.68508 2.81139 5.94992C2.89267 5.82669 3.07438 5.83604 3.14609 5.96507L6.33486 11.7028C6.40894 11.8362 6.31255 12 6.16004 12H3.39998C3.28953 12 3.19976 12.0896 3.20226 12.2C3.23974 13.8554 3.74361 15.4681 4.65787 16.8519C5.60891 18.2912 6.96208 19.4194 8.5491 20.0959C10.1362 20.7724 11.887 20.9675 13.584 20.657C15.1959 20.3621 16.6915 19.6233 17.9041 18.5262C18.0014 18.4382 18.1564 18.4615 18.2201 18.5761L19.1119 20.1818Z" fill="url(#paint0_linear_621_122)" stroke="url(#paint1_linear_621_122)" stroke-width="0.6"/>
</g>
<defs>
<linearGradient id="paint0_linear_621_122" x1="22.9348" y1="1.13947" x2="1.10882" y2="22.7837" gradientUnits="userSpaceOnUse">
<stop stop-color="#FE7970"/>
<stop offset="1" stop-color="#DC3282"/>
</linearGradient>
<linearGradient id="paint1_linear_621_122" x1="22.9348" y1="1.13947" x2="1.10882" y2="22.7837" gradientUnits="userSpaceOnUse">
<stop stop-color="#FE7970"/>
<stop offset="1" stop-color="#DC3282"/>
</linearGradient>
<clipPath id="clip0_621_122">
<rect width="24" height="24" fill="white"/>
</clipPath>
</defs>
</svg>
