<svg width="16" height="16" viewBox="0 0 16 16" fill="none" xmlns="http://www.w3.org/2000/svg">
<path d="M2.66667 1C2.39052 1 2.16667 1.22386 2.16667 1.5V1.92036C2.16667 2.13218 2.02911 2.31517 1.84746 2.42413C1.34004 2.72851 1 3.27937 1 3.91667C1 4.55397 1.34004 5.10483 1.84746 5.4092C2.02911 5.51816 2.16667 5.70115 2.16667 5.91297V14.5C2.16667 14.7761 2.39052 15 2.66667 15H2.83333C3.10948 15 3.33333 14.7761 3.33333 14.5V5.9133C3.33333 5.70132 3.4711 5.51824 3.65294 5.40929C4.16055 5.10515 4.5 4.55435 4.5 3.91667C4.5 3.27898 4.16055 2.72818 3.65294 2.42404C3.4711 2.31509 3.33333 2.13201 3.33333 1.92003V1.5C3.33333 1.22386 3.10948 1 2.83333 1H2.66667ZM7.91667 1C7.64052 1 7.41667 1.22386 7.41667 1.5V10.087C7.41667 10.2988 7.27911 10.4818 7.09746 10.5908C6.59004 10.8952 6.25 11.446 6.25 12.0833C6.25 12.7206 6.59004 13.2715 7.09746 13.5759C7.27911 13.6848 7.41667 13.8678 7.41667 14.0796V14.5C7.41667 14.7761 7.64052 15 7.91667 15H8.08333C8.35948 15 8.58333 14.7761 8.58333 14.5V14.0796C8.58333 13.8678 8.72089 13.6848 8.90254 13.5759C9.40996 13.2715 9.75 12.7206 9.75 12.0833C9.75 11.446 9.40996 10.8952 8.90254 10.5908C8.72089 10.4818 8.58333 10.2988 8.58333 10.087V1.5C8.58333 1.22386 8.35948 1 8.08333 1H7.91667ZM13.1667 1C12.8905 1 12.6667 1.22386 12.6667 1.5V5.42036C12.6667 5.63218 12.5291 5.81517 12.3475 5.92413C11.84 6.22851 11.5 6.77936 11.5 7.41667C11.5 8.05397 11.84 8.60483 12.3475 8.9092C12.5291 9.01816 12.6667 9.20115 12.6667 9.41297V14.5C12.6667 14.7761 12.8905 15 13.1667 15H13.3333C13.6095 15 13.8333 14.7761 13.8333 14.5V9.41297C13.8333 9.20115 13.9709 9.01816 14.1525 8.9092C14.66 8.60483 15 8.05397 15 7.41667C15 6.77936 14.66 6.22851 14.1525 5.92413C13.9709 5.81517 13.8333 5.63218 13.8333 5.42036V1.5C13.8333 1.22386 13.6095 1 13.3333 1H13.1667Z" fill="url(#paint0_linear)"/>
<defs>
<linearGradient id="paint0_linear" x1="8.02021" y1="12.1685" x2="9.21321" y2="2.00929" gradientUnits="userSpaceOnUse">
<stop stop-color="#B400CF"/>
<stop offset="1" stop-color="#339DFF"/>
</linearGradient>
</defs>
</svg>
