<svg width="24" height="24" viewBox="0 0 24 24" fill="none" xmlns="http://www.w3.org/2000/svg">
<path d="M1.5 4C1.22386 4 1 4.22386 1 4.5V20C1 20.2761 1.22386 20.5 1.5 20.5H22.5C22.7761 20.5 23 20.2761 23 20V4.5C23 4.22386 22.7761 4 22.5 4H1.5ZM2.375 5.875C2.375 5.59886 2.59886 5.375 2.875 5.375H21.125C21.4011 5.375 21.625 5.59886 21.625 5.875V18.625C21.625 18.9011 21.4011 19.125 21.125 19.125H2.875C2.59886 19.125 2.375 18.9011 2.375 18.625V5.875ZM12.5 8.125C12.2239 8.125 12 8.34886 12 8.625V9C12 9.27614 12.2239 9.5 12.5 9.5H19.75C20.0261 9.5 20.25 9.27614 20.25 9V8.625C20.25 8.34886 20.0261 8.125 19.75 8.125H12.5ZM12.5 10.875C12.2239 10.875 12 11.0989 12 11.375V11.75C12 12.0261 12.2239 12.25 12.5 12.25H18.375C18.6511 12.25 18.875 12.0261 18.875 11.75V11.375C18.875 11.0989 18.6511 10.875 18.375 10.875H12.5ZM12.5 13.625C12.2239 13.625 12 13.8489 12 14.125V14.5C12 14.7761 12.2239 15 12.5 15H17C17.2761 15 17.5 14.7761 17.5 14.5V14.125C17.5 13.8489 17.2761 13.625 17 13.625H12.5Z" fill="url(#paint0_linear)" stroke="url(#paint1_linear)" stroke-width="0.5"/>
<path fill-rule="evenodd" clip-rule="evenodd" d="M7.4375 7C6.29488 7 5.375 7.91988 5.375 9.0625V10.925C5.375 11.0355 5.28546 11.125 5.175 11.125H4.2C4.08954 11.125 4 11.2145 4 11.325V15.05C4 15.1605 4.08954 15.25 4.2 15.25H10.675C10.7855 15.25 10.875 15.1605 10.875 15.05V11.325C10.875 11.2145 10.7855 11.125 10.675 11.125H9.7C9.58954 11.125 9.5 11.0355 9.5 10.925V9.0625C9.5 7.91988 8.58012 7 7.4375 7ZM7.4375 8.375C7.81838 8.375 8.125 8.68163 8.125 9.0625V10.925C8.125 11.0355 8.03546 11.125 7.925 11.125H6.95C6.83954 11.125 6.75 11.0355 6.75 10.925V9.0625C6.75 8.68163 7.05662 8.375 7.4375 8.375Z" fill="url(#paint2_linear)"/>
<path d="M5.625 9.0625C5.625 8.05795 6.43295 7.25 7.4375 7.25V6.75C6.1568 6.75 5.125 7.7818 5.125 9.0625H5.625ZM5.625 10.925V9.0625H5.125V10.925H5.625ZM4.2 11.375H5.175V10.875H4.2V11.375ZM4.25 15.05V11.325H3.75V15.05H4.25ZM10.675 15H4.2V15.5H10.675V15ZM10.625 11.325V15.05H11.125V11.325H10.625ZM9.7 11.375H10.675V10.875H9.7V11.375ZM9.25 9.0625V10.925H9.75V9.0625H9.25ZM7.4375 7.25C8.44205 7.25 9.25 8.05795 9.25 9.0625H9.75C9.75 7.7818 8.7182 6.75 7.4375 6.75V7.25ZM8.375 9.0625C8.375 8.54355 7.95645 8.125 7.4375 8.125V8.625C7.6803 8.625 7.875 8.8197 7.875 9.0625H8.375ZM8.375 10.925V9.0625H7.875V10.925H8.375ZM6.95 11.375H7.925V10.875H6.95V11.375ZM6.5 9.0625V10.925H7V9.0625H6.5ZM7.4375 8.125C6.91855 8.125 6.5 8.54355 6.5 9.0625H7C7 8.8197 7.1947 8.625 7.4375 8.625V8.125ZM6.95 10.875C6.97761 10.875 7 10.8974 7 10.925H6.5C6.5 11.1735 6.70147 11.375 6.95 11.375V10.875ZM7.875 10.925C7.875 10.8974 7.89739 10.875 7.925 10.875V11.375C8.17353 11.375 8.375 11.1735 8.375 10.925H7.875ZM9.7 10.875C9.72761 10.875 9.75 10.8974 9.75 10.925H9.25C9.25 11.1735 9.45147 11.375 9.7 11.375V10.875ZM11.125 11.325C11.125 11.0765 10.9235 10.875 10.675 10.875V11.375C10.6474 11.375 10.625 11.3526 10.625 11.325H11.125ZM10.675 15.5C10.9235 15.5 11.125 15.2985 11.125 15.05H10.625C10.625 15.0224 10.6474 15 10.675 15V15.5ZM3.75 15.05C3.75 15.2985 3.95147 15.5 4.2 15.5V15C4.22761 15 4.25 15.0224 4.25 15.05H3.75ZM4.2 10.875C3.95147 10.875 3.75 11.0765 3.75 11.325H4.25C4.25 11.3526 4.22761 11.375 4.2 11.375V10.875ZM5.125 10.925C5.125 10.8974 5.14739 10.875 5.175 10.875V11.375C5.42353 11.375 5.625 11.1735 5.625 10.925H5.125Z" fill="url(#paint3_linear)"/>
<defs>
<linearGradient id="paint0_linear" x1="1.00322" y1="12.0055" x2="23.0037" y2="12.0055" gradientUnits="userSpaceOnUse">
<stop stop-color="#A93AFF"/>
<stop offset="1" stop-color="#FF81FF"/>
</linearGradient>
<linearGradient id="paint1_linear" x1="1.00322" y1="12.0055" x2="23.0037" y2="12.0055" gradientUnits="userSpaceOnUse">
<stop stop-color="#A93AFF"/>
<stop offset="1" stop-color="#FF81FF"/>
</linearGradient>
<linearGradient id="paint2_linear" x1="7.4375" y1="15.25" x2="7.4375" y2="7" gradientUnits="userSpaceOnUse">
<stop stop-color="#5570FF"/>
<stop offset="1" stop-color="#4DD3FF"/>
</linearGradient>
<linearGradient id="paint3_linear" x1="7.4375" y1="15.25" x2="7.4375" y2="7" gradientUnits="userSpaceOnUse">
<stop stop-color="#5570FF"/>
<stop offset="1" stop-color="#4DD3FF"/>
</linearGradient>
</defs>
</svg>
