<svg width="16" height="16" viewBox="0 0 16 16" fill="none" xmlns="http://www.w3.org/2000/svg">
<g clip-path="url(#clip0_624_15)">
<path d="M1.5 1C1.22386 1 1 1.22386 1 1.5V6.33333C1 6.60948 1.22386 6.83333 1.5 6.83333H5.16667C5.44281 6.83333 5.66667 7.05719 5.66667 7.33333V12.1667C5.66667 12.4428 5.89052 12.6667 6.16667 12.6667H6.83333H8.66667C8.94281 12.6667 9.16667 12.8905 9.16667 13.1667V14.5C9.16667 14.7761 9.39052 15 9.66667 15H14.5C14.7761 15 15 14.7761 15 14.5V9.66667C15 9.39052 14.7761 9.16667 14.5 9.16667H9.66667C9.39052 9.16667 9.16667 9.39052 9.16667 9.66667V11C9.16667 11.2761 8.94281 11.5 8.66667 11.5H7.33333C7.05719 11.5 6.83333 11.2761 6.83333 11V6.83333V5C6.83333 4.72386 7.05719 4.5 7.33333 4.5H8.66667C8.94281 4.5 9.16667 4.72386 9.16667 5V6.33333C9.16667 6.60948 9.39052 6.83333 9.66667 6.83333H14.5C14.7761 6.83333 15 6.60948 15 6.33333V1.5C15 1.22386 14.7761 1 14.5 1H9.66667C9.39052 1 9.16667 1.22386 9.16667 1.5V2.83333C9.16667 3.10948 8.94281 3.33333 8.66667 3.33333H7.33333C7.05719 3.33333 6.83333 3.10948 6.83333 2.83333V1.5C6.83333 1.22386 6.60948 1 6.33333 1H1.5ZM2.16667 2.66667C2.16667 2.39052 2.39052 2.16667 2.66667 2.16667H5.16667C5.44281 2.16667 5.66667 2.39052 5.66667 2.66667V5.16667C5.66667 5.44281 5.44281 5.66667 5.16667 5.66667H2.66667C2.39052 5.66667 2.16667 5.44281 2.16667 5.16667V2.66667ZM10.3333 2.66667C10.3333 2.39052 10.5572 2.16667 10.8333 2.16667H13.3333C13.6095 2.16667 13.8333 2.39052 13.8333 2.66667V5.16667C13.8333 5.44281 13.6095 5.66667 13.3333 5.66667H10.8333C10.5572 5.66667 10.3333 5.44281 10.3333 5.16667V2.66667Z" fill="url(#paint0_linear_624_15)" stroke="url(#paint1_linear_624_15)" stroke-width="0.6"/>
</g>
<defs>
<linearGradient id="paint0_linear_624_15" x1="3.5375" y1="13.3472" x2="16.1622" y2="2.33196" gradientUnits="userSpaceOnUse">
<stop stop-color="#FE0844"/>
<stop offset="1" stop-color="#FEB302"/>
</linearGradient>
<linearGradient id="paint1_linear_624_15" x1="3.5375" y1="13.3472" x2="16.1622" y2="2.33196" gradientUnits="userSpaceOnUse">
<stop stop-color="#FE0844"/>
<stop offset="1" stop-color="#FEB302"/>
</linearGradient>
<clipPath id="clip0_624_15">
<rect width="16" height="16" fill="white"/>
</clipPath>
</defs>
</svg>
