<svg width="16" height="16" viewBox="0 0 16 16" fill="none" xmlns="http://www.w3.org/2000/svg">
<path d="M2 1C1.44772 1 1 1.44772 1 2V14C1 14.5523 1.44772 15 2 15H14C14.5523 15 15 14.5523 15 14V2C15 1.44772 14.5523 1 14 1H2ZM2.16667 4.33333C2.16667 3.78105 2.61438 3.33333 3.16667 3.33333H3.5C4.05228 3.33333 4.5 3.78105 4.5 4.33333V12.8333C4.5 13.3856 4.05228 13.8333 3.5 13.8333H3.16667C2.61438 13.8333 2.16667 13.3856 2.16667 12.8333V4.33333ZM5.66667 4.33333C5.66667 3.78105 6.11438 3.33333 6.66667 3.33333H12.8333C13.3856 3.33333 13.8333 3.78105 13.8333 4.33333V12.8333C13.8333 13.3856 13.3856 13.8333 12.8333 13.8333H6.66667C6.11438 13.8333 5.66667 13.3856 5.66667 12.8333V4.33333Z" fill="url(#paint0_linear)"/>
<path d="M8.66605 8.22982L7.6761 7.23987C7.48084 7.04461 7.48084 6.72803 7.6761 6.53276L7.81752 6.39134C8.01278 6.19608 8.32936 6.19608 8.52463 6.39134L9.51458 7.38129C9.70984 7.57655 10.0264 7.57655 10.2217 7.38129L11.2116 6.39134C11.4069 6.19608 11.7235 6.19608 11.9187 6.39134L12.0602 6.53276C12.2554 6.72803 12.2554 7.04461 12.0602 7.23987L11.0702 8.22982C10.8749 8.42508 10.8749 8.74167 11.0702 8.93693L12.0602 9.92688C12.2554 10.1221 12.2554 10.4387 12.0602 10.634L11.9187 10.7754C11.7235 10.9707 11.4069 10.9707 11.2116 10.7754L10.2217 9.78546C10.0264 9.59019 9.70984 9.59019 9.51458 9.78546L8.52463 10.7754C8.32936 10.9707 8.01278 10.9707 7.81752 10.7754L7.6761 10.634C7.48084 10.4387 7.48084 10.1221 7.6761 9.92688L8.66605 8.93693C8.86131 8.74167 8.86131 8.42508 8.66605 8.22982Z" fill="url(#paint1_linear)"/>
<defs>
<linearGradient id="paint0_linear" x1="14.527" y1="1.40016" x2="9.06638" y2="15.1117" gradientUnits="userSpaceOnUse">
<stop stop-color="#FE0F7C"/>
<stop offset="1" stop-color="#DF0066"/>
</linearGradient>
<linearGradient id="paint1_linear" x1="9.84606" y1="4.60533" x2="12.3465" y2="10.4154" gradientUnits="userSpaceOnUse">
<stop stop-color="#FE0F7C"/>
<stop offset="1" stop-color="#DF0066"/>
</linearGradient>
</defs>
</svg>
