<svg width="16" height="16" viewBox="0 0 16 16" fill="none" xmlns="http://www.w3.org/2000/svg">
<path fill-rule="evenodd" clip-rule="evenodd" d="M1.5 2C1.22386 2 1 2.22386 1 2.5V2.66668C1 2.94283 1.22386 3.16668 1.5 3.16668H11C11.2761 3.16668 11.5 2.94283 11.5 2.66668V2.5C11.5 2.22386 11.2761 2 11 2H1.5ZM1.5 13.6667C1.22386 13.6667 1 13.4428 1 13.1667V13C1 12.7239 1.22386 12.5 1.5 12.5H4C4.27614 12.5 4.5 12.7239 4.5 13V13.1667C4.5 13.4428 4.27614 13.6667 4 13.6667H1.5ZM1 9.66655C1 9.94269 1.22386 10.1665 1.5 10.1665H6.33333C6.60948 10.1665 6.83333 9.94269 6.83333 9.66655V9.5C6.83333 9.22386 6.60948 9 6.33333 9H1.5C1.22386 9 1 9.22386 1 9.5V9.66655ZM1.5 6.66668C1.22386 6.66668 1 6.44283 1 6.16669V6C1 5.72386 1.22386 5.5 1.5 5.5H8.66667C8.94281 5.5 9.16667 5.72386 9.16667 6V6.16668C9.16667 6.44283 8.94281 6.66668 8.66667 6.66668H1.5ZM10.5632 14.4797C10.7584 14.6749 11.075 14.6749 11.2703 14.4797L14.6465 11.1034C14.8418 10.9081 14.8418 10.5915 14.6465 10.3963L14.5287 10.2785C14.3335 10.0832 14.0169 10.0832 13.8216 10.2785L12.3536 11.7465C12.0386 12.0615 11.5 11.8384 11.5 11.393V8.33325C11.5 8.05711 11.2762 7.83325 11 7.83325H10.8334C10.5572 7.83325 10.3334 8.05711 10.3334 8.33325V11.393C10.3334 11.8384 9.7948 12.0615 9.47982 11.7465L8.0118 10.2785C7.81654 10.0832 7.49995 10.0832 7.30469 10.2785L7.18692 10.3963C6.99166 10.5915 6.99166 10.9081 7.18692 11.1034L10.5632 14.4797Z" fill="url(#paint0_linear)"/>
<defs>
<linearGradient id="paint0_linear" x1="7.89647" y1="14.6261" x2="7.89647" y2="2" gradientUnits="userSpaceOnUse">
<stop stop-color="#00B59C"/>
<stop offset="1" stop-color="#9CFFAC"/>
</linearGradient>
</defs>
</svg>
