<svg width="24" height="24" viewBox="0 0 24 24" fill="none" xmlns="http://www.w3.org/2000/svg">
<path d="M3.45784 1C3.4048 1 3.35393 1.02107 3.31642 1.05858L2.05858 2.31642C2.02107 2.35393 2 2.4048 2 2.45784V3.75V4.10531C2 4.14671 2.01285 4.18709 2.03677 4.22087L8.83823 13.828C8.86215 13.8618 8.875 13.9021 8.875 13.9435V18.875V18.875C8.875 18.9088 8.89098 18.9405 8.91809 18.9606L14.3589 22.998C14.3606 22.9993 14.3627 23 14.3649 23V23C14.3705 23 14.375 22.9955 14.375 22.9899V13.9435C14.375 13.9021 14.3878 13.8618 14.4118 13.828L21.2132 4.22087C21.2372 4.18709 21.25 4.14671 21.25 4.10531V2.45784C21.25 2.4048 21.2289 2.35393 21.1914 2.31642L19.9336 1.05858C19.8961 1.02107 19.8452 1 19.7922 1H3.45784ZM3.375 2.575C3.375 2.46454 3.46454 2.375 3.575 2.375H19.675C19.7855 2.375 19.875 2.46454 19.875 2.575V3.67025C19.875 3.71166 19.8622 3.75204 19.8382 3.78583L13.0579 13.3615C13.052 13.37 13.0422 13.375 13.0319 13.375V13.375C13.0143 13.375 13 13.3893 13 13.4069V13.4421V14.75V19.8794C13 20.0437 12.8128 20.1379 12.6808 20.04L10.3308 18.2959C10.28 18.2581 10.25 18.1986 10.25 18.1353V14.75V13.4421V13.4069C10.25 13.3893 10.2357 13.375 10.2181 13.375V13.375C10.2078 13.375 10.1981 13.37 10.1921 13.3616L3.41178 3.78583C3.38785 3.75204 3.375 3.71166 3.375 3.67025V2.575ZM6.4987 4.24597C6.33896 4.24597 6.24369 4.424 6.33229 4.55691L8.50859 7.82136C8.61835 7.98601 8.875 7.9083 8.875 7.71042V5.74458C8.875 5.66883 8.9178 5.59957 8.98556 5.5657L10.8672 4.62486C11.056 4.53048 10.9888 4.24597 10.7778 4.24597H6.4987Z" fill="url(#paint0_linear_621_43)" stroke="url(#paint1_linear_621_43)"/>
<defs>
<linearGradient id="paint0_linear_621_43" x1="11.625" y1="23" x2="11.625" y2="1" gradientUnits="userSpaceOnUse">
<stop stop-color="#5570FF"/>
<stop offset="1" stop-color="#4DD3FF"/>
</linearGradient>
<linearGradient id="paint1_linear_621_43" x1="11.625" y1="23" x2="11.625" y2="1" gradientUnits="userSpaceOnUse">
<stop stop-color="#5570FF"/>
<stop offset="1" stop-color="#4DD3FF"/>
</linearGradient>
</defs>
</svg>
