<svg width="32" height="32" viewBox="0 0 32 32" fill="none" xmlns="http://www.w3.org/2000/svg">
<path d="M1.14286 5C0.511674 5 0 5.51169 0 6.14286V26.7143C0 27.3454 0.511674 27.8571 1.14286 27.8571H3.42857C4.05974 27.8571 4.57143 27.3454 4.57143 26.7143V6.14286C4.57143 5.51169 4.05974 5 3.42857 5H1.14286ZM10.2857 5C9.65454 5 9.14286 5.51169 9.14286 6.14286V26.7143C9.14286 27.3454 9.65454 27.8571 10.2857 27.8571H12.5714C13.2026 27.8571 13.7143 27.3454 13.7143 26.7143V6.14286C13.7143 5.51169 13.2026 5 12.5714 5H10.2857ZM19.4286 5C18.7974 5 18.2857 5.51169 18.2857 6.14286V26.7143C18.2857 27.3454 18.7974 27.8571 19.4286 27.8571H21.7143C22.3455 27.8571 22.8571 27.3454 22.8571 26.7143V6.14286C22.8571 5.51169 22.3455 5 21.7143 5H19.4286ZM28.5714 5C27.9403 5 27.4286 5.51169 27.4286 6.14286V26.7143C27.4286 27.3454 27.9403 27.8571 28.5714 27.8571H30.8571C31.4883 27.8571 32 27.3454 32 26.7143V6.14286C32 5.51169 31.4883 5 30.8571 5H28.5714Z" fill="url(#paint0_linear_624_35)"/>
<defs>
<linearGradient id="paint0_linear_624_35" x1="16" y1="27.8571" x2="16" y2="5" gradientUnits="userSpaceOnUse">
<stop stop-color="#FDA700"/>
<stop offset="1" stop-color="#FFDE00"/>
</linearGradient>
</defs>
</svg>
