<svg width="16" height="16" viewBox="0 0 16 16" fill="none" xmlns="http://www.w3.org/2000/svg">
<path d="M1.5 1C1.22386 1 1 1.22386 1 1.5V14.5C1 14.7761 1.22386 15 1.5 15H14.5C14.7761 15 15 14.7761 15 14.5V1.5C15 1.22386 14.7761 1 14.5 1H13.1667C12.8905 1 12.6667 1.22386 12.6667 1.5V2.83333C12.6667 3.10948 12.4428 3.33333 12.1667 3.33333H10.8333C10.5572 3.33333 10.3333 3.10948 10.3333 2.83333V1.5C10.3333 1.22386 10.1095 1 9.83333 1H6.16667C5.89052 1 5.66667 1.22386 5.66667 1.5V2.83333C5.66667 3.10948 5.44281 3.33333 5.16667 3.33333H3.83333C3.55719 3.33333 3.33333 3.10948 3.33333 2.83333V1.5C3.33333 1.22386 3.10948 1 2.83333 1H1.5ZM2.16667 5C2.16667 4.72386 2.39052 4.5 2.66667 4.5H13.3333C13.6095 4.5 13.8333 4.72386 13.8333 5V13.3333C13.8333 13.6095 13.6095 13.8333 13.3333 13.8333H2.66667C2.39052 13.8333 2.16667 13.6095 2.16667 13.3333V5Z" fill="url(#paint0_linear)"/>
<path d="M3.33337 7.49996V6.16663C3.33337 5.89048 3.55723 5.66663 3.83337 5.66663H5.16671C5.44285 5.66663 5.66671 5.89048 5.66671 6.16663V7.49996C5.66671 7.7761 5.44285 7.99996 5.16671 7.99996H3.83337C3.55723 7.99996 3.33337 7.7761 3.33337 7.49996Z" fill="url(#paint1_linear)"/>
<path d="M6.83337 7.49996V6.16663C6.83337 5.89048 7.05723 5.66663 7.33337 5.66663H8.66671C8.94285 5.66663 9.16671 5.89048 9.16671 6.16663V7.49996C9.16671 7.7761 8.94285 7.99996 8.66671 7.99996H7.33337C7.05723 7.99996 6.83337 7.7761 6.83337 7.49996Z" fill="url(#paint2_linear)"/>
<path d="M10.3334 7.49996V6.16663C10.3334 5.89048 10.5572 5.66663 10.8334 5.66663H12.1667C12.4428 5.66663 12.6667 5.89048 12.6667 6.16663V7.49996C12.6667 7.7761 12.4429 7.99996 12.1667 7.99996H10.8334C10.5572 7.99996 10.3334 7.7761 10.3334 7.49996Z" fill="url(#paint3_linear)"/>
<path d="M3.33337 11V9.66663C3.33337 9.39048 3.55723 9.16663 3.83337 9.16663H5.16671C5.44285 9.16663 5.66671 9.39048 5.66671 9.66663V11C5.66671 11.2761 5.44285 11.5 5.16671 11.5H3.83337C3.55723 11.5 3.33337 11.2761 3.33337 11Z" fill="url(#paint4_linear)"/>
<path d="M6.83337 11V9.66663C6.83337 9.39048 7.05723 9.16663 7.33337 9.16663H8.66671C8.94285 9.16663 9.16671 9.39048 9.16671 9.66663V11C9.16671 11.2761 8.94285 11.5 8.66671 11.5H7.33337C7.05723 11.5 6.83337 11.2761 6.83337 11Z" fill="url(#paint5_linear)"/>
<path d="M10.3334 11V9.66663C10.3334 9.39048 10.5572 9.16663 10.8334 9.16663H12.1667C12.4428 9.16663 12.6667 9.39048 12.6667 9.66663V11C12.6667 11.2761 12.4429 11.5 12.1667 11.5H10.8334C10.5572 11.5 10.3334 11.2761 10.3334 11Z" fill="url(#paint6_linear)"/>
<defs>
<linearGradient id="paint0_linear" x1="2" y1="8" x2="13.3613" y2="6.7445" gradientUnits="userSpaceOnUse">
<stop stop-color="#8D01A2"/>
<stop offset="1" stop-color="#FF00D2"/>
</linearGradient>
<linearGradient id="paint1_linear" x1="8.00004" y1="5.66663" x2="8.00004" y2="11.5" gradientUnits="userSpaceOnUse">
<stop stop-color="#97EB0E"/>
<stop offset="1" stop-color="#19B90B"/>
</linearGradient>
<linearGradient id="paint2_linear" x1="8.00004" y1="5.66663" x2="8.00004" y2="11.5" gradientUnits="userSpaceOnUse">
<stop stop-color="#97EB0E"/>
<stop offset="1" stop-color="#19B90B"/>
</linearGradient>
<linearGradient id="paint3_linear" x1="8.00004" y1="5.66663" x2="8.00004" y2="11.5" gradientUnits="userSpaceOnUse">
<stop stop-color="#97EB0E"/>
<stop offset="1" stop-color="#19B90B"/>
</linearGradient>
<linearGradient id="paint4_linear" x1="4.00004" y1="10.3333" x2="10.4136" y2="7.49833" gradientUnits="userSpaceOnUse">
<stop stop-color="#8D01A2"/>
<stop offset="1" stop-color="#FF00D2"/>
</linearGradient>
<linearGradient id="paint5_linear" x1="4.00004" y1="10.3333" x2="10.4136" y2="7.49833" gradientUnits="userSpaceOnUse">
<stop stop-color="#8D01A2"/>
<stop offset="1" stop-color="#FF00D2"/>
</linearGradient>
<linearGradient id="paint6_linear" x1="4.00004" y1="10.3333" x2="10.4136" y2="7.49833" gradientUnits="userSpaceOnUse">
<stop stop-color="#8D01A2"/>
<stop offset="1" stop-color="#FF00D2"/>
</linearGradient>
</defs>
</svg>
