<svg width="16" height="16" viewBox="0 0 16 16" fill="none" xmlns="http://www.w3.org/2000/svg">
<path d="M3.44271 1C2.74723 1.01616 2.18093 1.10463 1.72518 1.24903C1.49136 1.32312 1.37606 1.5748 1.44128 1.81125L1.47779 1.94356C1.55466 2.22222 1.85192 2.37984 2.13097 2.30439C2.50929 2.20208 2.99599 2.09375 3.33333 2.09375H3.40625C4.16065 2.1256 4.20833 2.39352 4.20833 3.04167V3.04167C4.20833 3.18945 4.10264 3.31609 3.95724 3.34253L3.80729 3.36979C1.97972 3.63542 1 3.86307 1 5.26562C1 6.24316 1.71933 6.83333 2.75 6.83333C3.27597 6.83333 3.6593 6.67561 4.01648 6.43039C4.1878 6.31277 4.43204 6.40295 4.46446 6.60822V6.60822C4.48492 6.73786 4.59666 6.83333 4.7279 6.83333H5.16667C5.44281 6.83333 5.66667 6.60948 5.66667 6.33333V2.78646C5.66667 1.58579 4.82713 1 3.55208 1H3.44271ZM11.1719 3.55208C11.025 3.42621 10.8083 3.42621 10.6615 3.55208V3.55208L7.19141 7.05518C6.99467 7.25379 6.999 7.57513 7.20103 7.76837L7.31849 7.88073C7.51492 8.06862 7.82546 8.06517 8.01766 7.87297L9.47978 6.41084C9.79476 6.09586 10.3333 6.31895 10.3333 6.7644V14.5C10.3333 14.7761 10.5572 15 10.8333 15H11C11.2761 15 11.5 14.7761 11.5 14.5V6.7644C11.5 6.31894 12.0386 6.09586 12.3536 6.41084L13.8157 7.87297C14.0079 8.06517 14.3184 8.06862 14.5148 7.88073L14.6323 7.76837C14.8343 7.57513 14.8387 7.25379 14.6419 7.05518L11.1719 3.55208V3.55208ZM3.80729 4.17187C4.02265 4.1523 4.20833 4.32187 4.20833 4.53811V5.18233C4.20833 5.3484 4.12721 5.50587 3.98565 5.5927C3.68956 5.77432 3.41528 5.88542 3.00521 5.88542C2.54832 5.88542 2.3125 5.59647 2.3125 5.19271C2.3125 4.42768 2.98913 4.28875 3.80729 4.17187V4.17187ZM1.5 9.16667C1.22386 9.16667 1 9.39052 1 9.66667V9.83333C1 10.1095 1.22386 10.3333 1.5 10.3333H2.79811C3.20501 10.3333 3.44152 10.7935 3.2047 11.1243L1.09341 14.0742C1.03266 14.1591 1 14.2609 1 14.3652V14.5C1 14.7761 1.22386 15 1.5 15H5.16667C5.44281 15 5.66667 14.7761 5.66667 14.5V14.3333C5.66667 14.0572 5.44281 13.8333 5.16667 13.8333H4.26759C3.86824 13.8333 3.63005 13.3883 3.85157 13.056L5.58269 10.4593C5.63745 10.3772 5.66667 10.2807 5.66667 10.1819V9.66667C5.66667 9.39052 5.44281 9.16667 5.16667 9.16667H1.5Z" fill="url(#paint0_linear)"/>
<defs>
<linearGradient id="paint0_linear" x1="8" y1="15" x2="8" y2="1" gradientUnits="userSpaceOnUse">
<stop stop-color="#5570FF"/>
<stop offset="1" stop-color="#4DD3FF"/>
</linearGradient>
</defs>
</svg>
