<svg width="16" height="16" viewBox="0 0 16 16" fill="none" xmlns="http://www.w3.org/2000/svg">
<g clip-path="url(#clip0_624_23)">
<path d="M6 1C5.72386 1 5.5 1.22386 5.5 1.5V1.66667C5.5 1.94281 5.72386 2.16667 6 2.16667H7.83333H14.3333C14.6095 2.16667 14.8333 1.94281 14.8333 1.66667V1.5C14.8333 1.22386 14.6095 1 14.3333 1H7.83333H6ZM6 3.33333C5.72386 3.33333 5.5 3.55719 5.5 3.83333V4C5.5 4.27614 5.72386 4.5 6 4.5H7.83333H12C12.2761 4.5 12.5 4.27614 12.5 4V3.83333C12.5 3.55719 12.2761 3.33333 12 3.33333H7.83333H6ZM6 8C5.72386 8 5.5 8.22386 5.5 8.5V8.66667C5.5 8.94281 5.72386 9.16667 6 9.16667H7.83333H14.3333C14.6095 9.16667 14.8333 8.94281 14.8333 8.66667V8.5C14.8333 8.22386 14.6095 8 14.3333 8H7.83333H6ZM6 10.3333C5.72386 10.3333 5.5 10.5572 5.5 10.8333V11C5.5 11.2761 5.72386 11.5 6 11.5H7.83333H9.66667C9.94281 11.5 10.1667 11.2761 10.1667 11V10.8333C10.1667 10.5572 9.94281 10.3333 9.66667 10.3333H7.83333H6ZM11.8333 10.3333C11.5572 10.3333 11.3333 10.5572 11.3333 10.8333V11C11.3333 11.2761 11.5572 11.5 11.8333 11.5H13.5208H13.6667H14.3333C14.6095 11.5 14.8333 11.2761 14.8333 11V10.8333C14.8333 10.5572 14.6095 10.3333 14.3333 10.3333H13.6667H13.5208H11.8333ZM13 13.8333C12.7239 13.8333 12.5 14.0572 12.5 14.3333V14.5C12.5 14.7761 12.7239 15 13 15H14.3333C14.6095 15 14.8333 14.7761 14.8333 14.5V14.3333C14.8333 14.0572 14.6095 13.8333 14.3333 13.8333H13Z" fill="url(#paint0_linear_624_23)" stroke="url(#paint1_linear_624_23)" stroke-width="0.6"/>
<path d="M0.58579 1.58579C0.960859 1.21072 1.46957 1 2.00001 1C2.53044 1 3.03914 1.21072 3.41421 1.58579C3.7893 1.96086 4 2.46957 4 3.00001C4 3.53044 3.7893 4.03914 3.41421 4.41421C3.03914 4.7893 2.53044 5 2.00001 5C1.46957 5 0.960859 4.7893 0.58579 4.41421C0.21072 4.03914 0 3.53044 0 3.00001C0 2.46957 0.21072 1.96086 0.58579 1.58579Z" fill="url(#paint2_linear_624_23)"/>
<path d="M0.585797 8.5858C0.960871 8.21072 1.46959 8 2.00003 8C2.53048 8 3.03918 8.21072 3.41426 8.5858C3.78935 8.96087 4.00005 9.46959 4.00005 10C4.00005 10.5305 3.78935 11.0392 3.41426 11.4143C3.03918 11.7893 2.53048 12 2.00003 12C1.46959 12 0.960871 11.7893 0.585797 11.4143C0.210723 11.0392 0 10.5305 0 10C0 9.46959 0.210723 8.96087 0.585797 8.5858Z" fill="url(#paint3_linear_624_23)"/>
</g>
<defs>
<linearGradient id="paint0_linear_624_23" x1="5.5" y1="15" x2="17.8579" y2="11.4091" gradientUnits="userSpaceOnUse">
<stop stop-color="#0357D1"/>
<stop offset="1" stop-color="#27CDFC"/>
</linearGradient>
<linearGradient id="paint1_linear_624_23" x1="5.5" y1="15" x2="17.8579" y2="11.4091" gradientUnits="userSpaceOnUse">
<stop stop-color="#0357D1"/>
<stop offset="1" stop-color="#27CDFC"/>
</linearGradient>
<linearGradient id="paint2_linear_624_23" x1="0.857144" y1="14.7143" x2="2.23886" y2="2.67611" gradientUnits="userSpaceOnUse">
<stop stop-color="#8D01A2"/>
<stop offset="1" stop-color="#FF00D2"/>
</linearGradient>
<linearGradient id="paint3_linear_624_23" x1="0.857155" y1="9.71431" x2="2.23889" y2="-2.32404" gradientUnits="userSpaceOnUse">
<stop stop-color="#8D01A2"/>
<stop offset="1" stop-color="#FF00D2"/>
</linearGradient>
<clipPath id="clip0_624_23">
<rect width="16" height="16" fill="white"/>
</clipPath>
</defs>
</svg>
