<svg width="24" height="24" viewBox="0 0 24 24" fill="none" xmlns="http://www.w3.org/2000/svg">
<path d="M3.98142 2.32304C3.87901 2.22063 3.75742 2.13939 3.6236 2.08396C3.48979 2.02854 3.34637 2 3.20155 2C3.05671 2 2.91329 2.02854 2.77948 2.08396C2.64566 2.13939 2.52408 2.22063 2.42168 2.32304C2.21483 2.52987 2.09863 2.8104 2.09863 3.10292C2.09863 3.39542 2.21483 3.67595 2.42168 3.88279L8.60574 10.0669C8.21448 10.7947 8.06815 11.6292 8.18843 12.4467C8.30872 13.2642 8.6892 14.0213 9.2735 14.6055C9.85783 15.1899 10.6149 15.5704 11.4323 15.6906C12.2498 15.8109 13.0844 15.6646 13.8122 15.2733L19.9963 21.4574C20.0983 21.5603 20.2198 21.642 20.3537 21.6978C20.4876 21.7535 20.6312 21.7823 20.7762 21.7823C20.9212 21.7823 21.0647 21.7535 21.1986 21.6978C21.3324 21.642 21.4539 21.5603 21.556 21.4574C21.659 21.3552 21.7407 21.2338 21.7965 21.1C21.8522 20.9661 21.8809 20.8225 21.8809 20.6775C21.8809 20.5325 21.8522 20.389 21.7965 20.2551C21.7407 20.1212 21.659 19.9997 21.556 19.8977L3.98142 2.32304ZM11.9889 13.5378C11.5519 13.5378 11.1328 13.3643 10.8238 13.0552C10.5148 12.7462 10.3412 12.3272 10.3412 11.8902V11.8133L12.0548 13.5269L11.9889 13.5378Z" fill="url(#paint0_linear_621_191)"/>
<path d="M12.2302 17.3825C7.50697 17.4924 4.40945 13.4392 3.44285 11.8905C4.13097 10.7928 4.95795 9.78853 5.90329 8.90273L4.29961 7.35397C3.05985 8.5221 1.99779 9.86542 1.14717 11.3412C1.05076 11.5082 1 11.6976 1 11.8905C1 12.0832 1.05076 12.2726 1.14717 12.4397C1.83917 13.6369 5.54082 19.5793 12.0105 19.5793H12.2851C13.5016 19.5432 14.7024 19.2941 15.833 18.8434L14.0975 17.1079C13.4871 17.2684 12.8609 17.3606 12.2302 17.3825ZM22.8299 11.3412C22.1269 10.122 18.2495 4.00381 11.692 4.20152C10.4754 4.23761 9.27458 4.48669 8.14405 4.93746L9.87958 6.67295C10.4899 6.5124 11.1162 6.4203 11.7469 6.39835C16.4591 6.27752 19.5566 10.3417 20.5342 11.8905C19.829 12.9914 18.9834 13.9957 18.0188 14.8781L19.6774 16.4269C20.9327 15.2618 22.0097 13.9183 22.8738 12.4397C22.9635 12.2689 23.0068 12.0773 22.9991 11.8845C22.9913 11.6916 22.933 11.5043 22.8299 11.3412Z" fill="url(#paint1_linear_621_191)"/>
<defs>
<linearGradient id="paint0_linear_621_191" x1="21.8223" y1="2.12542" x2="2.19651" y2="21.5879" gradientUnits="userSpaceOnUse">
<stop stop-color="#FE7970"/>
<stop offset="1" stop-color="#DC3282"/>
</linearGradient>
<linearGradient id="paint1_linear_621_191" x1="22.9348" y1="4.29435" x2="8.56014" y2="24.6818" gradientUnits="userSpaceOnUse">
<stop stop-color="#FE7970"/>
<stop offset="1" stop-color="#DC3282"/>
</linearGradient>
</defs>
</svg>
