<svg width="32" height="32" viewBox="0 0 32 32" fill="none" xmlns="http://www.w3.org/2000/svg">
<path d="M28.5714 5C27.9403 5 27.4286 5.51169 27.4286 6.14286V26.7143C27.4286 27.3454 27.9403 27.8571 28.5714 27.8571H30.8571C31.4883 27.8571 32 27.3454 32 26.7143V6.14286C32 5.51169 31.4883 5 30.8571 5H28.5714ZM1.14286 9.57143C0.511674 9.57143 0 10.0831 0 10.7143V26.7143C0 27.3454 0.511674 27.8571 1.14286 27.8571H3.42857C4.05974 27.8571 4.57143 27.3454 4.57143 26.7143V10.7143C4.57143 10.0831 4.05974 9.57143 3.42857 9.57143H1.14286Z" fill="url(#paint0_linear_624_30)"/>
<path d="M9.14258 26.7143V19.8571C9.14258 19.226 9.65426 18.7143 10.2854 18.7143H12.5711C13.2023 18.7143 13.714 19.226 13.714 19.8571V26.7143C13.714 27.3454 13.2023 27.8571 12.5711 27.8571H10.2854C9.65426 27.8571 9.14258 27.3454 9.14258 26.7143Z" fill="url(#paint1_linear_624_30)"/>
<path d="M18.2861 26.7143V15.2857C18.2861 14.6545 18.7978 14.1429 19.429 14.1429H21.7147C22.3459 14.1429 22.8576 14.6545 22.8576 15.2857V26.7143C22.8576 27.3454 22.3459 27.8571 21.7147 27.8571H19.429C18.7978 27.8571 18.2861 27.3454 18.2861 26.7143Z" fill="url(#paint2_linear_624_30)"/>
<defs>
<linearGradient id="paint0_linear_624_30" x1="16" y1="27.8571" x2="16" y2="5" gradientUnits="userSpaceOnUse">
<stop stop-color="#00B59C"/>
<stop offset="1" stop-color="#9CFFAC"/>
</linearGradient>
<linearGradient id="paint1_linear_624_30" x1="11.4283" y1="27.8571" x2="11.4283" y2="18.7143" gradientUnits="userSpaceOnUse">
<stop stop-color="#A93AFF"/>
<stop offset="1" stop-color="#FF81FF"/>
</linearGradient>
<linearGradient id="paint2_linear_624_30" x1="20.5718" y1="27.8571" x2="20.5718" y2="14.1429" gradientUnits="userSpaceOnUse">
<stop stop-color="#FD5900"/>
<stop offset="1" stop-color="#FFDE00"/>
</linearGradient>
</defs>
</svg>
