<svg width="16" height="16" viewBox="0 0 16 16" fill="none" xmlns="http://www.w3.org/2000/svg">
<path fill-rule="evenodd" clip-rule="evenodd" d="M10.5632 2.3536C10.7584 2.15834 11.075 2.15834 11.2703 2.3536L14.6465 5.72989C14.8418 5.92515 14.8418 6.24173 14.6465 6.43699L14.5287 6.55476C14.3335 6.75003 14.0169 6.75003 13.8216 6.55476L12.3536 5.08673C12.0386 4.77174 11.5 4.99482 11.5 5.44028V8.50001C11.5 8.77616 11.2762 9.00001 11 9.00001H10.8334C10.5572 9.00001 10.3334 8.77616 10.3334 8.50002V5.44028C10.3334 4.99482 9.7948 4.77174 9.47982 5.08673L8.0118 6.55476C7.81654 6.75003 7.49995 6.75003 7.30469 6.55476L7.18692 6.43699C6.99166 6.24173 6.99166 5.92515 7.18692 5.72989L10.5632 2.3536ZM1.5 3.16667C1.22386 3.16667 1 3.39052 1 3.66667V3.83335C1 4.10949 1.22386 4.33335 1.5 4.33335H4C4.27614 4.33335 4.5 4.10949 4.5 3.83335V3.66667C4.5 3.39052 4.27614 3.16667 4 3.16667H1.5ZM1.5 14.8335C1.22386 14.8335 1 14.6096 1 14.3335V14.1668C1 13.8906 1.22386 13.6668 1.5 13.6668H11C11.2761 13.6668 11.5 13.8906 11.5 14.1668V14.3335C11.5 14.6096 11.2761 14.8335 11 14.8335H1.5ZM1 7.16691C1 6.89077 1.22386 6.66691 1.5 6.66691H6.33333C6.60948 6.66691 6.83333 6.89077 6.83333 7.16691V7.3336C6.83333 7.60974 6.60948 7.8336 6.33333 7.8336H1.5C1.22386 7.8336 1 7.60974 1 7.3336V7.16691ZM1.5 10.1667C1.22386 10.1667 1 10.3905 1 10.6667V10.8334C1 11.1095 1.22386 11.3334 1.5 11.3334H8.66667C8.94281 11.3334 9.16667 11.1095 9.16667 10.8334V10.6667C9.16667 10.3905 8.94281 10.1667 8.66667 10.1667H1.5Z" fill="url(#paint0_linear)"/>
<defs>
<linearGradient id="paint0_linear" x1="7.89647" y1="14.8335" x2="7.89647" y2="2.20715" gradientUnits="userSpaceOnUse">
<stop stop-color="#5570FF"/>
<stop offset="1" stop-color="#4DD3FF"/>
</linearGradient>
</defs>
</svg>
