<svg width="32" height="32" viewBox="0 0 32 32" fill="none" xmlns="http://www.w3.org/2000/svg">
<path d="M13.1874 28.3746H9.43749C9.18885 28.3746 8.9504 28.2759 8.77458 28.1001C8.59877 27.9243 8.5 27.6858 8.5 27.4372V23.6872C8.5 23.4386 8.59877 23.2002 8.77458 23.0244C8.9504 22.8485 9.18885 22.7497 9.43749 22.7497H13.1874C13.4361 22.7497 13.6746 22.8485 13.8504 23.0244C14.0262 23.2002 14.1249 23.4386 14.1249 23.6872V27.4372C14.1249 27.6858 14.0262 27.9243 13.8504 28.1001C13.6746 28.2759 13.4361 28.3746 13.1874 28.3746ZM10.375 26.4997H12.2499V24.6247H10.375V26.4997Z" fill="url(#paint0_linear_624_8)" stroke="url(#paint1_linear_624_8)"/>
<path d="M13.1873 13.3748H9.43738C9.18874 13.3748 8.95029 13.4737 8.77447 13.6495C8.59866 13.8253 8.49989 14.0638 8.49989 14.3123V14.4374C8.49989 14.9896 8.05217 15.4374 7.49989 15.4374H5.56245C5.01017 15.4374 4.56245 14.9896 4.56245 14.4374V10.625C4.56245 10.0727 5.01017 9.62496 5.56245 9.62496H5.68744C5.93607 9.62496 6.17453 9.52613 6.35033 9.35032C6.52614 9.17451 6.62492 8.93604 6.62492 8.68744V4.93749C6.62492 4.68885 6.52614 4.4504 6.35033 4.27458C6.17453 4.09877 5.93607 4 5.68744 4H1.93749C1.68885 4 1.4504 4.09877 1.27458 4.27458C1.09877 4.4504 1 4.68885 1 4.93749V8.68744C1 8.93604 1.09877 9.17451 1.27458 9.35032C1.4504 9.52613 1.68885 9.62496 1.93749 9.62496H2.06247C2.61476 9.62496 3.06247 10.0727 3.06247 10.625V25.3122C3.06247 25.8645 3.51019 26.3122 4.06247 26.3122H9.02488C9.2238 26.3122 9.41455 26.2332 9.55521 26.0925C9.69591 25.9518 9.7749 25.7611 9.7749 25.5622C9.7749 25.3633 9.69591 25.1725 9.55521 25.0318C9.41455 24.8912 9.2238 24.8122 9.02488 24.8122H5.56245C5.01017 24.8122 4.56245 24.3645 4.56245 23.8122V17.9373C4.56245 17.385 5.01017 16.9373 5.56245 16.9373H7.49989C8.05217 16.9373 8.49989 17.385 8.49989 17.9373V18.0623C8.49989 18.3109 8.59866 18.5494 8.77447 18.7252C8.95029 18.901 9.18874 18.9998 9.43738 18.9998H13.1873C13.436 18.9998 13.6744 18.901 13.8503 18.7252C14.0261 18.5494 14.1248 18.3109 14.1248 18.0623V14.3123C14.1248 14.0638 14.0261 13.8253 13.8503 13.6495C13.6744 13.4737 13.436 13.3748 13.1873 13.3748ZM2.87498 6.81246C2.87498 6.2947 3.2947 5.87498 3.81246 5.87498V5.87498C4.33022 5.87498 4.74995 6.2947 4.74995 6.81246V6.81246C4.74995 7.33022 4.33022 7.74995 3.81246 7.74995V7.74995C3.2947 7.74995 2.87498 7.33022 2.87498 6.81246V6.81246ZM12.2498 16.1873C12.2498 16.7051 11.8301 17.1248 11.3124 17.1248V17.1248C10.7946 17.1248 10.3749 16.7051 10.3749 16.1873V16.1873C10.3749 15.6696 10.7946 15.2498 11.3124 15.2498V15.2498C11.8301 15.2498 12.2498 15.6696 12.2498 16.1873V16.1873Z" fill="url(#paint2_linear_624_8)" stroke="url(#paint3_linear_624_8)"/>
<path d="M30.9997 7.19332C30.9997 6.84368 30.9009 6.50836 30.7251 6.26112C30.5493 6.01388 30.3109 5.87498 30.0622 5.87498H9.55467C8.9722 5.87498 8.5 6.34718 8.5 6.92966V7.45699C8.5 8.03947 8.9722 8.51166 9.55467 8.51166H30.0622C30.3109 8.51166 30.5493 8.37277 30.7251 8.12553C30.9009 7.87829 30.9997 7.54297 30.9997 7.19332Z" fill="url(#paint4_linear_624_8)" stroke="url(#paint5_linear_624_8)"/>
<path d="M30.0623 15.2498H17.0547C16.4722 15.2498 16 15.722 16 16.3045V16.8319C16 17.4144 16.4722 17.8865 17.0547 17.8865H30.0623C30.311 17.8865 30.5494 17.7476 30.7252 17.5004C30.901 17.2532 30.9998 16.9178 30.9998 16.5682C30.9998 16.2186 30.901 15.8832 30.7252 15.636C30.5494 15.3887 30.311 15.2498 30.0623 15.2498Z" fill="url(#paint6_linear_624_8)" stroke="url(#paint7_linear_624_8)"/>
<path d="M30.0623 24.6247H17.0547C16.4722 24.6247 16 25.0969 16 25.6794V26.2067C16 26.7892 16.4722 27.2614 17.0547 27.2614H30.0623C30.311 27.2614 30.5494 27.1225 30.7252 26.8753C30.901 26.6281 30.9998 26.2927 30.9998 25.9431C30.9998 25.5934 30.901 25.2581 30.7252 25.0108C30.5494 24.7636 30.311 24.6247 30.0623 24.6247Z" fill="url(#paint8_linear_624_8)" stroke="url(#paint9_linear_624_8)"/>
<defs>
<linearGradient id="paint0_linear_624_8" x1="15.9999" y1="28.3746" x2="15.9999" y2="4" gradientUnits="userSpaceOnUse">
<stop stop-color="#FD5900"/>
<stop offset="1" stop-color="#FFDE00"/>
</linearGradient>
<linearGradient id="paint1_linear_624_8" x1="15.9999" y1="28.3746" x2="15.9999" y2="4" gradientUnits="userSpaceOnUse">
<stop stop-color="#FD5900"/>
<stop offset="1" stop-color="#FFDE00"/>
</linearGradient>
<linearGradient id="paint2_linear_624_8" x1="15.9998" y1="28.3746" x2="15.9998" y2="4" gradientUnits="userSpaceOnUse">
<stop stop-color="#FD5900"/>
<stop offset="1" stop-color="#FFDE00"/>
</linearGradient>
<linearGradient id="paint3_linear_624_8" x1="15.9998" y1="28.3746" x2="15.9998" y2="4" gradientUnits="userSpaceOnUse">
<stop stop-color="#FD5900"/>
<stop offset="1" stop-color="#FFDE00"/>
</linearGradient>
<linearGradient id="paint4_linear_624_8" x1="15.9999" y1="28.3746" x2="15.9999" y2="4.00001" gradientUnits="userSpaceOnUse">
<stop stop-color="#FD5900"/>
<stop offset="1" stop-color="#FFDE00"/>
</linearGradient>
<linearGradient id="paint5_linear_624_8" x1="15.9999" y1="28.3746" x2="15.9999" y2="4.00001" gradientUnits="userSpaceOnUse">
<stop stop-color="#FD5900"/>
<stop offset="1" stop-color="#FFDE00"/>
</linearGradient>
<linearGradient id="paint6_linear_624_8" x1="16" y1="28.3746" x2="16" y2="4.00001" gradientUnits="userSpaceOnUse">
<stop stop-color="#FD5900"/>
<stop offset="1" stop-color="#FFDE00"/>
</linearGradient>
<linearGradient id="paint7_linear_624_8" x1="16" y1="28.3746" x2="16" y2="4.00001" gradientUnits="userSpaceOnUse">
<stop stop-color="#FD5900"/>
<stop offset="1" stop-color="#FFDE00"/>
</linearGradient>
<linearGradient id="paint8_linear_624_8" x1="16" y1="28.3746" x2="16" y2="4.00001" gradientUnits="userSpaceOnUse">
<stop stop-color="#FD5900"/>
<stop offset="1" stop-color="#FFDE00"/>
</linearGradient>
<linearGradient id="paint9_linear_624_8" x1="16" y1="28.3746" x2="16" y2="4.00001" gradientUnits="userSpaceOnUse">
<stop stop-color="#FD5900"/>
<stop offset="1" stop-color="#FFDE00"/>
</linearGradient>
</defs>
</svg>
