<svg width="16" height="16" viewBox="0 0 16 16" fill="none" xmlns="http://www.w3.org/2000/svg">
<path d="M1.5 1C1.22386 1 1 1.22386 1 1.5V4.5V14.5C1 14.7761 1.22386 15 1.5 15H2.16667H14.5C14.7761 15 15 14.7761 15 14.5V13.8333V1.5C15 1.22386 14.7761 1 14.5 1H2.16667H1.5ZM2.16667 5C2.16667 4.72386 2.39052 4.5 2.66667 4.5H13.3333C13.6095 4.5 13.8333 4.72386 13.8333 5V13.3333C13.8333 13.6095 13.6095 13.8333 13.3333 13.8333H2.66667C2.39052 13.8333 2.16667 13.6095 2.16667 13.3333V5ZM3.83333 5.66667C3.55719 5.66667 3.33333 5.89052 3.33333 6.16667V7.5C3.33333 7.77614 3.55719 8 3.83333 8H5.16667C5.44281 8 5.66667 7.77614 5.66667 7.5V6.16667C5.66667 5.89052 5.44281 5.66667 5.16667 5.66667H3.83333ZM7.33333 6.83333C7.05719 6.83333 6.83333 7.05719 6.83333 7.33333V7.5C6.83333 7.77614 7.05719 8 7.33333 8H12.1667C12.4428 8 12.6667 7.77614 12.6667 7.5V7.33333C12.6667 7.05719 12.4428 6.83333 12.1667 6.83333H7.33333ZM3.83333 9.16667C3.55719 9.16667 3.33333 9.39052 3.33333 9.66667V9.83333C3.33333 10.1095 3.55719 10.3333 3.83333 10.3333H12.1667C12.4428 10.3333 12.6667 10.1095 12.6667 9.83333V9.66667C12.6667 9.39052 12.4428 9.16667 12.1667 9.16667H3.83333ZM3.83333 11.5C3.55719 11.5 3.33333 11.7239 3.33333 12V12.1667C3.33333 12.4428 3.55719 12.6667 3.83333 12.6667H12.1667C12.4428 12.6667 12.6667 12.4428 12.6667 12.1667V12C12.6667 11.7239 12.4428 11.5 12.1667 11.5H3.83333Z" fill="url(#paint0_linear)"/>
<defs>
<linearGradient id="paint0_linear" x1="7.39122" y1="14.624" x2="8.97294" y2="1.97355" gradientUnits="userSpaceOnUse">
<stop stop-color="#8D01A2"/>
<stop offset="1" stop-color="#FF33DB"/>
</linearGradient>
</defs>
</svg>
