<svg width="24" height="24" viewBox="0 0 24 24" fill="none" xmlns="http://www.w3.org/2000/svg">
<path d="M8.7002 11.45C9.42954 11.45 10.129 11.1602 10.6447 10.6445C11.1605 10.1288 11.4502 9.4293 11.4502 8.69995C11.4502 7.97061 11.1605 7.27113 10.6447 6.75541C10.129 6.23968 9.42954 5.94995 8.7002 5.94995C7.97085 5.94995 7.27138 6.23968 6.75565 6.75541C6.23993 7.27113 5.9502 7.97061 5.9502 8.69995C5.9502 9.4293 6.23993 10.1288 6.75565 10.6445C7.27138 11.1602 7.97085 11.45 8.7002 11.45Z" stroke="url(#paint0_linear_621_83)" stroke-width="2" stroke-linecap="round" stroke-linejoin="round"/>
<path fill-rule="evenodd" clip-rule="evenodd" d="M3.75 1C3.02065 1 2.32118 1.28973 1.80546 1.80546C1.28973 2.32118 1 3.02065 1 3.75V20.25C1 20.9793 1.28973 21.6788 1.80546 22.1945C2.32118 22.7103 3.02065 23 3.75 23H7.59286C7.59524 23 7.59762 23 7.6 23H19.7924C19.7959 23 19.7994 23 19.8029 23H20.25C20.9793 23 21.6788 22.7103 22.1945 22.1945C22.7103 21.6788 23 20.9793 23 20.25V3.75C23 3.02065 22.7103 2.32118 22.1945 1.80546C21.6788 1.28973 20.9793 1 20.25 1H3.75ZM18.7977 15.528C19.4135 16.411 20.8 15.9753 20.8 14.8988V3.75C20.8 3.60413 20.7421 3.46424 20.6389 3.36109C20.5358 3.25795 20.3959 3.2 20.25 3.2H3.75C3.60413 3.2 3.46424 3.25795 3.36109 3.36109C3.25795 3.46424 3.2 3.60413 3.2 3.75V20.25C3.2 20.3959 3.25795 20.5358 3.36109 20.6389C3.46424 20.7421 3.60413 20.8 3.75 20.8H6.4975C6.84444 20.8 7.17105 20.6363 7.37871 20.3584L13.2032 12.5628C13.4116 12.2837 13.6835 12.058 13.9961 11.9045C14.3088 11.751 14.6534 11.6739 15.0018 11.6796C15.3501 11.6853 15.692 11.7736 15.9995 11.9373C16.307 12.1009 16.5712 12.3353 16.7704 12.621L18.7977 15.528ZM19.7919 20.7997C19.7919 20.7997 19.7919 20.7997 19.7919 20.7997L11.99 20.8C11.0845 20.8 10.5668 19.767 11.1088 19.0416L14.9657 13.8794C14.9657 13.8794 14.9657 13.8794 14.9657 13.8794L19.7919 20.7997ZM19.7919 20.7997C19.7919 20.7997 19.7919 20.7997 19.7919 20.7997Z" fill="url(#paint1_linear_621_83)"/>
<defs>
<linearGradient id="paint0_linear_621_83" x1="6.94707" y1="10.8006" x2="11.9068" y2="6.47322" gradientUnits="userSpaceOnUse">
<stop stop-color="#FE0844"/>
<stop offset="1" stop-color="#FEB302"/>
</linearGradient>
<linearGradient id="paint1_linear_621_83" x1="11.0433" y1="22.4092" x2="13.5289" y2="2.52987" gradientUnits="userSpaceOnUse">
<stop stop-color="#8D01A2"/>
<stop offset="1" stop-color="#FF33DB"/>
</linearGradient>
</defs>
</svg>
