<svg width="16" height="16" viewBox="0 0 16 16" fill="none" xmlns="http://www.w3.org/2000/svg">
<path fill-rule="evenodd" clip-rule="evenodd" d="M0 1.58001C0 1.25968 0.25968 1 0.580005 1H4.83338C5.15371 1 5.41339 1.25968 5.41339 1.58001V1.77336C5.41339 2.09369 5.15371 2.35336 4.83338 2.35336H0.580005C0.25968 2.35336 0 2.09369 0 1.77336V1.58001ZM0 13.9535C0 14.2738 0.25968 14.5335 0.580005 14.5335H6.18672C6.50706 14.5335 6.76673 14.2738 6.76673 13.9535V13.7601C6.76673 13.4398 6.50706 13.1801 6.18672 13.1801H0.580005C0.25968 13.1801 0 13.4398 0 13.7601V13.9535ZM0.580005 10.4732C0.25968 10.4732 0 10.2136 0 9.89328V9.70008C0 9.37976 0.25968 9.12008 0.580005 9.12008H4.83338C5.15371 9.12008 5.41339 9.37976 5.41339 9.70008V9.89328C5.41339 10.2136 5.15371 10.4732 4.83338 10.4732H0.580005ZM0 5.83341C0 6.15373 0.25968 6.4134 0.580005 6.4134H2.12668C2.44702 6.4134 2.70669 6.15373 2.70669 5.83339V5.64004C2.70669 5.31972 2.44702 5.06004 2.12668 5.06004H0.580005C0.25968 5.06004 0 5.31972 0 5.64004V5.83341ZM11.9137 15.4766C11.6871 15.703 11.3198 15.703 11.0934 15.4766L7.17689 11.56C6.95039 11.3335 6.95039 10.9662 7.17689 10.7398L7.31351 10.6031C7.54001 10.3766 7.90726 10.3766 8.13376 10.6031L9.83668 12.306C10.2021 12.6714 10.8268 12.4126 10.8268 11.896V8.34664C10.8268 8.02631 11.0865 7.76663 11.4069 7.76663H11.6001C11.9205 7.76663 12.1801 8.02631 12.1801 8.34664V11.896C12.1801 12.4126 12.8049 12.6714 13.1703 12.306L14.8732 10.6031C15.0997 10.3766 15.467 10.3766 15.6934 10.6031L15.8301 10.7398C16.0566 10.9662 16.0566 11.3335 15.8301 11.56L11.9137 15.4766ZM8.38662 1.41011C8.61313 1.18362 8.98036 1.18362 9.20687 1.41011L13.1233 5.3265C13.3499 5.55301 13.3499 5.92024 13.1233 6.14676L12.9868 6.28337C12.7602 6.50988 12.393 6.50988 12.1664 6.28337L10.4635 4.58043C10.0982 4.21504 9.47343 4.47383 9.47343 4.99055V8.53988C9.47343 8.86021 9.21375 9.11989 8.89342 9.11989H8.70008C8.37976 9.11989 8.12008 8.86021 8.12008 8.53988V4.99055C8.12008 4.47383 7.49533 4.21504 7.12994 4.58043L5.42703 6.28337C5.20051 6.50988 4.83328 6.50988 4.60676 6.28337L4.47016 6.14676C4.24366 5.92024 4.24366 5.55301 4.47017 5.3265L8.38662 1.41011Z" fill="url(#paint0_linear_624_28)"/>
<defs>
<linearGradient id="paint0_linear_624_28" x1="7.99998" y1="15.6464" x2="7.99998" y2="1" gradientUnits="userSpaceOnUse">
<stop stop-color="#A93AFF"/>
<stop offset="1" stop-color="#FF81FF"/>
</linearGradient>
</defs>
</svg>
