<svg width="16" height="16" viewBox="0 0 16 16" fill="none" xmlns="http://www.w3.org/2000/svg">
<path d="M13.7073 12.4251C13.3756 11.6392 12.8941 10.9254 12.2897 10.3234C11.6872 9.71959 10.9735 9.2382 10.188 8.90578C10.1809 8.90226 10.1739 8.9005 10.1669 8.89698C11.2626 8.10553 11.9749 6.81633 11.9749 5.36181C11.9749 2.95226 10.0227 1 7.61311 1C5.20356 1 3.2513 2.95226 3.2513 5.36181C3.2513 6.81633 3.96361 8.10553 5.05934 8.89874C5.05231 8.90226 5.04527 8.90402 5.03823 8.90754C4.2503 9.23995 3.54326 9.71658 2.93648 10.3251C2.3327 10.9276 1.85131 11.6414 1.51889 12.4269C1.19232 13.1959 1.01619 14.0204 1.00004 14.8558C0.999575 14.8745 1.00287 14.8932 1.00973 14.9107C1.01659 14.9282 1.02688 14.9441 1.03999 14.9576C1.0531 14.971 1.06877 14.9817 1.08608 14.989C1.10338 14.9963 1.12197 15 1.14075 15H2.19602C2.27341 15 2.33497 14.9384 2.33673 14.8628C2.3719 13.505 2.91713 12.2334 3.88095 11.2696C4.87818 10.2724 6.20256 9.72362 7.61311 9.72362C9.02366 9.72362 10.348 10.2724 11.3453 11.2696C12.3091 12.2334 12.8543 13.505 12.8895 14.8628C12.8912 14.9402 12.9528 15 13.0302 15H14.0855C14.1042 15 14.1228 14.9963 14.1401 14.989C14.1574 14.9817 14.1731 14.971 14.1862 14.9576C14.1993 14.9441 14.2096 14.9282 14.2165 14.9107C14.2234 14.8932 14.2266 14.8745 14.2262 14.8558C14.2086 14.0151 14.0345 13.1972 13.7073 12.4251V12.4251ZM7.61311 8.38693C6.80582 8.38693 6.04602 8.07211 5.47442 7.5005C4.90281 6.92889 4.58798 6.1691 4.58798 5.36181C4.58798 4.55452 4.90281 3.79472 5.47442 3.22312C6.04602 2.65151 6.80582 2.33668 7.61311 2.33668C8.4204 2.33668 9.18019 2.65151 9.7518 3.22312C10.3234 3.79472 10.6382 4.55452 10.6382 5.36181C10.6382 6.1691 10.3234 6.92889 9.7518 7.5005C9.18019 8.07211 8.4204 8.38693 7.61311 8.38693Z" fill="url(#paint0_linear)" stroke="url(#paint1_linear)" stroke-width="0.5"/>
<defs>
<linearGradient id="paint0_linear" x1="7.61311" y1="15" x2="7.61311" y2="1" gradientUnits="userSpaceOnUse">
<stop stop-color="#FDA700"/>
<stop offset="1" stop-color="#FFDE00"/>
</linearGradient>
<linearGradient id="paint1_linear" x1="7.61311" y1="15" x2="7.61311" y2="1" gradientUnits="userSpaceOnUse">
<stop stop-color="#FDA700"/>
<stop offset="1" stop-color="#FFDE00"/>
</linearGradient>
</defs>
</svg>
