<svg width="32" height="32" viewBox="0 0 32 32" fill="none" xmlns="http://www.w3.org/2000/svg">
<path d="M28.9185 20.2343H14.3489C13.7636 20.2343 13.2703 20.109 12.8692 19.8583C12.4681 19.6076 12.2676 19.2993 12.2676 18.9334C12.2676 18.5675 12.4681 18.2593 12.8692 18.0086C13.2703 17.7579 13.7636 17.6326 14.3489 17.6326H28.9185C29.5039 17.6326 29.9972 17.7579 30.3983 18.0086C30.7994 18.2593 30.9999 18.5675 30.9999 18.9334C30.9999 19.2993 30.7994 19.6076 30.3983 19.8583C29.9972 20.109 29.5039 20.2343 28.9185 20.2343ZM28.9185 13.4698H14.3489C13.7636 13.4698 13.2703 13.3411 12.8692 13.0836C12.4681 12.8262 12.2676 12.5179 12.2676 12.1588C12.2676 11.7997 12.4681 11.4948 12.8692 11.2441C13.2703 10.9934 13.7636 10.8681 14.3489 10.8681H28.9185C29.5039 10.8681 29.9972 10.9934 30.3983 11.2441C30.7994 11.4948 30.9999 11.7997 30.9999 12.1588C30.9999 12.5179 30.7994 12.8262 30.3983 13.0836C29.9972 13.3411 29.5039 13.4698 28.9185 13.4698ZM28.9185 8.2664H14.3489C13.7636 8.2664 13.2703 8.13767 12.8692 7.88021C12.4681 7.62275 12.2676 7.31448 12.2676 6.95538C12.2676 6.59629 12.4681 6.2914 12.8692 6.04072C13.2703 5.79003 13.7636 5.66469 14.3489 5.66469H28.9185C29.5039 5.66469 29.9972 5.79003 30.3983 6.04072C30.7994 6.2914 30.9999 6.59629 30.9999 6.95538C30.9999 7.31448 30.7994 7.62275 30.3983 7.88021C29.9972 8.13767 29.5039 8.2664 28.9185 8.2664ZM14.3489 22.836H28.9185C29.5039 22.836 29.9972 22.9613 30.3983 23.212C30.7994 23.4627 30.9999 23.771 30.9999 24.1369C30.9999 24.5028 30.794 24.811 30.382 25.0617C29.9701 25.3124 29.4823 25.4377 28.9185 25.4377H14.3489C13.7636 25.4377 13.2703 25.3124 12.8692 25.0617C12.4681 24.811 12.2676 24.5028 12.2676 24.1369C12.2676 23.771 12.4681 23.4627 12.8692 23.212C13.2703 22.9613 13.7636 22.836 14.3489 22.836Z" fill="url(#paint0_linear_624_17)" stroke="url(#paint1_linear_624_17)"/>
<path d="M2.38758 26.0739H7.93791C8.31371 26.0739 8.63892 25.936 8.91355 25.6602C9.18818 25.3845 9.32549 25.0454 9.32549 24.6429V18.9192C9.32549 18.5167 9.18818 18.1776 8.91355 17.9019C8.63892 17.6261 8.31371 17.4882 7.93791 17.4882H2.38758C1.99732 17.4882 1.66849 17.6261 1.4011 17.9019C1.1337 18.1776 1 18.5167 1 18.9192V24.6429C1 25.0454 1.1337 25.3845 1.4011 25.6602C1.66849 25.936 1.99732 26.0739 2.38758 26.0739Z" stroke="url(#paint2_linear_624_17)" stroke-width="2" stroke-linecap="round" stroke-linejoin="round"/>
<path d="M2.38758 13.5857H7.93791C8.31371 13.5857 8.63892 13.444 8.91355 13.1608C9.18818 12.8777 9.32549 12.5423 9.32549 12.1547V6.43094C9.32549 6.02849 9.18818 5.68938 8.91355 5.41363C8.63892 5.13788 8.31371 5 7.93791 5H2.38758C1.99732 5 1.66849 5.13788 1.4011 5.41363C1.1337 5.68938 1 6.02849 1 6.43094V12.1547C1 12.5423 1.1337 12.8777 1.4011 13.1608C1.66849 13.444 1.99732 13.5857 2.38758 13.5857Z" stroke="url(#paint3_linear_624_17)" stroke-width="2" stroke-linecap="round" stroke-linejoin="round"/>
<defs>
<linearGradient id="paint0_linear_624_17" x1="20.8192" y1="24.9067" x2="23.1731" y2="7.07105" gradientUnits="userSpaceOnUse">
<stop stop-color="#8D01A2"/>
<stop offset="1" stop-color="#FF33DB"/>
</linearGradient>
<linearGradient id="paint1_linear_624_17" x1="20.8192" y1="24.9067" x2="23.1731" y2="7.07105" gradientUnits="userSpaceOnUse">
<stop stop-color="#8D01A2"/>
<stop offset="1" stop-color="#FF33DB"/>
</linearGradient>
<linearGradient id="paint2_linear_624_17" x1="4.80072" y1="25.8433" x2="5.80006" y2="18.0928" gradientUnits="userSpaceOnUse">
<stop stop-color="#8D01A2"/>
<stop offset="1" stop-color="#FF33DB"/>
</linearGradient>
<linearGradient id="paint3_linear_624_17" x1="4.80072" y1="13.3551" x2="5.80006" y2="5.60462" gradientUnits="userSpaceOnUse">
<stop stop-color="#8D01A2"/>
<stop offset="1" stop-color="#FF33DB"/>
</linearGradient>
</defs>
</svg>
