<svg width="16" height="16" viewBox="0 0 16 16" fill="none" xmlns="http://www.w3.org/2000/svg">
<path d="M1.5 1C1.22386 1 1 1.22386 1 1.5V1.66667C1 1.94281 1.22386 2.16667 1.5 2.16667H2.79811C3.20501 2.16667 3.44152 2.62678 3.2047 2.95767L1.09341 5.90758C1.03266 5.99245 1 6.09421 1 6.19858V6.33333C1 6.60948 1.22386 6.83333 1.5 6.83333H5.16667C5.44281 6.83333 5.66667 6.60948 5.66667 6.33333V6.16667C5.66667 5.89052 5.44281 5.66667 5.16667 5.66667H4.26759C3.86824 5.66667 3.63005 5.22159 3.85157 4.88932L5.58269 2.29263C5.63745 2.21049 5.66667 2.11399 5.66667 2.01528V1.5C5.66667 1.22386 5.44281 1 5.16667 1H1.5ZM10.8333 3.33333C10.5572 3.33333 10.3333 3.55719 10.3333 3.83333V11.5689C10.3333 12.0144 9.79476 12.2375 9.47978 11.9225L8.01766 10.4604C7.82546 10.2682 7.51492 10.2647 7.31849 10.4526L7.20103 10.565C6.999 10.7582 6.99467 11.0795 7.19141 11.2782L10.6615 14.7812V14.7812C10.8083 14.9071 11.025 14.9071 11.1719 14.7812V14.7812L14.6419 11.2782C14.8387 11.0795 14.8343 10.7582 14.6323 10.565L14.5148 10.4526C14.3184 10.2647 14.0079 10.2682 13.8157 10.4604L12.3536 11.9225C12.0386 12.2375 11.5 12.0144 11.5 11.5689V3.83333C11.5 3.55719 11.2761 3.33333 11 3.33333H10.8333ZM3.44271 9.16667C2.74723 9.18283 2.18093 9.27129 1.72518 9.4157C1.49136 9.48979 1.37606 9.74146 1.44128 9.97791L1.47779 10.1102C1.55466 10.3889 1.85192 10.5465 2.13097 10.4711C2.50929 10.3687 2.99599 10.2604 3.33333 10.2604H3.40625C4.16065 10.2923 4.20833 10.5602 4.20833 11.2083V11.2083C4.20833 11.3561 4.10264 11.4828 3.95724 11.5092L3.80729 11.5365C1.97972 11.8021 1 12.0297 1 13.4323C1 14.4098 1.71933 15 2.75 15C3.27597 15 3.6593 14.8423 4.01648 14.5971C4.1878 14.4794 4.43204 14.5696 4.46446 14.7749V14.7749C4.48492 14.9045 4.59666 15 4.7279 15H5.16667C5.44281 15 5.66667 14.7761 5.66667 14.5V10.9531C5.66667 9.75246 4.82713 9.16667 3.55208 9.16667H3.44271ZM3.80729 12.3385C4.02265 12.319 4.20833 12.4885 4.20833 12.7048V13.349C4.20833 13.5151 4.12721 13.6725 3.98565 13.7594C3.68956 13.941 3.41528 14.0521 3.00521 14.0521C2.54832 14.0521 2.3125 13.7631 2.3125 13.3594C2.3125 12.5943 2.98913 12.4554 3.80729 12.3385V12.3385Z" fill="url(#paint0_linear)"/>
<defs>
<linearGradient id="paint0_linear" x1="8" y1="15" x2="8" y2="1" gradientUnits="userSpaceOnUse">
<stop stop-color="#00B59C"/>
<stop offset="1" stop-color="#9CFFAC"/>
</linearGradient>
</defs>
</svg>
