<svg width="16" height="16" viewBox="0 0 16 16" fill="none" xmlns="http://www.w3.org/2000/svg">
<path d="M1.5 1C1.22386 1 1 1.22386 1 1.5V14.5C1 14.7761 1.22386 15 1.5 15H14.5C14.7761 15 15 14.7761 15 14.5V1.5C15 1.22386 14.7761 1 14.5 1H1.5ZM2.16667 3.83333C2.16667 3.55719 2.39052 3.33333 2.66667 3.33333H13.3333C13.6095 3.33333 13.8333 3.55719 13.8333 3.83333V13.3333C13.8333 13.6095 13.6095 13.8333 13.3333 13.8333H2.66667C2.39052 13.8333 2.16667 13.6095 2.16667 13.3333V3.83333ZM3.83333 4.5C3.55719 4.5 3.33333 4.72386 3.33333 5V12.1667C3.33333 12.4428 3.55719 12.6667 3.83333 12.6667H6.33333C6.60948 12.6667 6.83333 12.4428 6.83333 12.1667V12C6.83333 11.7239 7.05719 11.5 7.33333 11.5H8.66667C8.94281 11.5 9.16667 11.7239 9.16667 12V12.1667C9.16667 12.4428 9.39052 12.6667 9.66667 12.6667H12.1667C12.4428 12.6667 12.6667 12.4428 12.6667 12.1667V9.66667C12.6667 9.39052 12.4428 9.16667 12.1667 9.16667H9.66667C9.39052 9.16667 9.16667 9.39052 9.16667 9.66667V9.83333C9.16667 10.1095 8.94281 10.3333 8.66667 10.3333H7.33333C7.05719 10.3333 6.83333 10.1095 6.83333 9.83333V7.33333C6.83333 7.05719 7.05719 6.83333 7.33333 6.83333H8.66667C8.94281 6.83333 9.16667 7.05719 9.16667 7.33333V7.5C9.16667 7.77614 9.39052 8 9.66667 8H12.1667C12.4428 8 12.6667 7.77614 12.6667 7.5V5C12.6667 4.72386 12.4428 4.5 12.1667 4.5H9.66667C9.39052 4.5 9.16667 4.72386 9.16667 5V5.16667C9.16667 5.44281 8.94281 5.66667 8.66667 5.66667H7.33333C7.05719 5.66667 6.83333 5.44281 6.83333 5.16667V5C6.83333 4.72386 6.60948 4.5 6.33333 4.5H3.83333ZM10.3333 6.16667C10.3333 5.89052 10.5572 5.66667 10.8333 5.66667H11C11.2761 5.66667 11.5 5.89052 11.5 6.16667V6.33333C11.5 6.60948 11.2761 6.83333 11 6.83333H10.8333C10.5572 6.83333 10.3333 6.60948 10.3333 6.33333V6.16667ZM10.3333 10.8333C10.3333 10.5572 10.5572 10.3333 10.8333 10.3333H11C11.2761 10.3333 11.5 10.5572 11.5 10.8333V11C11.5 11.2761 11.2761 11.5 11 11.5H10.8333C10.5572 11.5 10.3333 11.2761 10.3333 11V10.8333Z" fill="url(#paint0_linear)"/>
<defs>
<linearGradient id="paint0_linear" x1="8" y1="15" x2="8" y2="1" gradientUnits="userSpaceOnUse">
<stop stop-color="#FD5900"/>
<stop offset="1" stop-color="#FFDE00"/>
</linearGradient>
</defs>
</svg>
