<svg width="256" height="256" viewBox="0 0 256 256" fill="none" xmlns="http://www.w3.org/2000/svg">
<path d="M67.5 45.5H7.5C3.3545 45.5 0 48.8545 0 53V113C0 117.146 3.3545 120.5 7.5 120.5H67.5C71.6455 120.5 75 117.146 75 113V53C75 48.8545 71.6455 45.5 67.5 45.5ZM157.999 45.5H97.9995C93.854 45.5 90.4995 48.8545 90.4995 53V113C90.4995 117.146 93.854 120.5 97.9995 120.5H157.999C162.145 120.5 165.499 117.146 165.499 113V53C165.499 48.8545 162.145 45.5 157.999 45.5ZM248.499 45.5H188.499C184.354 45.5 180.999 48.8545 180.999 53V113C180.999 117.146 184.354 120.5 188.499 120.5H248.499C252.645 120.5 255.999 117.146 255.999 113V53C255.999 48.8545 252.645 45.5 248.499 45.5Z" fill="url(#paint0_linear_89_6625)"/>
<path d="M67.5 135.5H7.5C3.3545 135.5 0 138.854 0 143V203C0 207.146 3.3545 210.5 7.5 210.5H67.5C71.6455 210.5 75 207.146 75 203V143C75 138.854 71.6455 135.5 67.5 135.5ZM157.999 135.5H97.9995C93.854 135.5 90.4995 138.854 90.4995 143V203C90.4995 207.146 93.854 210.5 97.9995 210.5H157.999C162.145 210.5 165.499 207.146 165.499 203V143C165.499 138.854 162.145 135.5 157.999 135.5ZM248.499 135.5H188.499C184.354 135.5 180.999 138.854 180.999 143V203C180.999 207.146 184.354 210.5 188.499 210.5H248.499C252.645 210.5 255.999 207.146 255.999 203V143C255.999 138.854 252.645 135.5 248.499 135.5Z" fill="url(#paint1_linear_89_6625)"/>
<defs>
<linearGradient id="paint0_linear_89_6625" x1="0.0375007" y1="81.8888" x2="256.042" y2="81.8888" gradientUnits="userSpaceOnUse">
<stop stop-color="#A93AFF"/>
<stop offset="1" stop-color="#FF81FF"/>
</linearGradient>
<linearGradient id="paint1_linear_89_6625" x1="128" y1="210.5" x2="128" y2="135.5" gradientUnits="userSpaceOnUse">
<stop stop-color="#FFBEF9"/>
<stop offset="1" stop-color="#FFF1FF"/>
</linearGradient>
</defs>
</svg>
