<svg width="24" height="24" viewBox="0 0 24 24" fill="none" xmlns="http://www.w3.org/2000/svg">
<path d="M2.22222 6.88889H2C1.44772 6.88889 1 7.33661 1 7.88889V8.11112V20.3333C1 21.0104 1.54511 21.5556 2.22222 21.5556H21.7778H22C22.5523 21.5556 23 21.1078 23 20.5556V20.3333V8.11112C23 7.43401 22.4549 6.88889 21.7778 6.88889L15.9444 7L2.22222 6.88889ZM3.44444 8.11112H14.4444L15.9444 7L11.8641 6.90069C11.558 6.89324 11.279 6.73846 11.0589 6.52559C10.496 5.98124 9.73983 5.66916 8.94444 5.66667C8.14404 5.6673 7.38273 5.98151 6.81752 6.53074C6.60092 6.7412 6.327 6.89527 6.0252 6.90623L4.40814 6.96499C3.87034 6.98453 3.44444 7.42617 3.44444 7.96433V8.11112ZM2.22222 9.11112C2.22222 8.55883 2.66994 8.11112 3.22222 8.11112H3.44444H5.95095H11.9332H14.4444H15.6667H20.7778C21.3301 8.11112 21.7778 8.55883 21.7778 9.11112V10.7778C21.7778 11.3301 21.3301 11.7778 20.7778 11.7778H19.3333H13.2222C11.868 11.7778 10.7778 12.868 10.7778 14.2222C10.7778 15.5764 11.868 16.6667 13.2222 16.6667H19.3333H20.7778C21.3301 16.6667 21.7778 17.1144 21.7778 17.6667V19.3333C21.7778 19.8856 21.3301 20.3333 20.7778 20.3333H3.22222C2.66994 20.3333 2.22222 19.8856 2.22222 19.3333V9.11112ZM14.4444 13C15.1195 13 15.6667 13.5472 15.6667 14.2222C15.6667 14.8972 15.1195 15.4445 14.4444 15.4445C13.7694 15.4445 13.2222 14.8972 13.2222 14.2222C13.2222 13.5472 13.7694 13 14.4444 13Z" fill="url(#paint0_linear)"/>
<path d="M15.9444 7L21.7778 6.88889C22.4549 6.88889 23 7.43401 23 8.11112V20.3333V20.5556C23 21.1078 22.5523 21.5556 22 21.5556H21.7778H2.22222C1.54511 21.5556 1 21.0104 1 20.3333V8.11112V7.88889C1 7.33661 1.44772 6.88889 2 6.88889H2.22222L15.9444 7ZM15.9444 7L14.4444 8.11112M15.9444 7L11.8641 6.90069C11.558 6.89324 11.279 6.73846 11.0589 6.52559C10.496 5.98124 9.73983 5.66916 8.94444 5.66667C8.14404 5.6673 7.38273 5.98151 6.81752 6.53074C6.60092 6.7412 6.327 6.89527 6.0252 6.90623L4.40814 6.96499C3.87034 6.98453 3.44444 7.42617 3.44444 7.96433V8.11112M3.44444 8.11112H14.4444M3.44444 8.11112H3.22222C2.66994 8.11112 2.22222 8.55883 2.22222 9.11112V19.3333C2.22222 19.8856 2.66994 20.3333 3.22222 20.3333H20.7778C21.3301 20.3333 21.7778 19.8856 21.7778 19.3333V17.6667C21.7778 17.1144 21.3301 16.6667 20.7778 16.6667H19.3333H13.2222C11.868 16.6667 10.7778 15.5764 10.7778 14.2222C10.7778 12.868 11.868 11.7778 13.2222 11.7778H19.3333H20.7778C21.3301 11.7778 21.7778 11.3301 21.7778 10.7778V9.11112C21.7778 8.55883 21.3301 8.11112 20.7778 8.11112H15.6667H14.4444M3.44444 8.11112H5.95095H11.9332H14.4444M14.4444 13C15.1195 13 15.6667 13.5472 15.6667 14.2222C15.6667 14.8972 15.1195 15.4445 14.4444 15.4445C13.7694 15.4445 13.2222 14.8972 13.2222 14.2222C13.2222 13.5472 13.7694 13 14.4444 13Z" stroke="url(#paint1_linear)"/>
<defs>
<linearGradient id="paint0_linear" x1="22.3795" y1="13.6111" x2="5.78379" y2="5.2989" gradientUnits="userSpaceOnUse">
<stop stop-color="#FE7970"/>
<stop offset="1" stop-color="#DC3282"/>
</linearGradient>
<linearGradient id="paint1_linear" x1="22.3795" y1="13.6111" x2="5.78379" y2="5.2989" gradientUnits="userSpaceOnUse">
<stop stop-color="#FE7970"/>
<stop offset="1" stop-color="#DC3282"/>
</linearGradient>
</defs>
</svg>
