<svg width="32" height="32" viewBox="0 0 32 32" fill="none" xmlns="http://www.w3.org/2000/svg">
<path d="M24.6843 1.37927C24.1786 0.873658 23.359 0.873658 22.8533 1.37927L15.7769 8.45573C15.2712 8.9613 15.2712 9.78109 15.7769 10.2867L21.7139 16.2238C22.2196 16.7294 23.0393 16.7294 23.545 16.2238L30.6213 9.14735C31.127 8.64177 31.127 7.82201 30.6213 7.31639L24.6843 1.37927ZM6.2491 11.7379C5.8287 11.3175 5.14704 11.3175 4.7266 11.7379L4.57044 11.894C4.0647 12.3998 4.06485 13.2198 4.57079 13.7253L9.59494 18.7457C10.1009 19.2513 10.101 20.0715 9.5952 20.5772L3.05559 27.1147C2.54985 27.6203 2.55081 28.4411 3.05648 28.9468C3.56213 29.4525 4.38301 29.4534 4.88858 28.9477L11.4263 22.408C11.932 21.9022 12.7519 21.9022 13.2576 22.408L18.2779 27.4302C18.7834 27.936 19.6033 27.936 20.109 27.4305L20.2653 27.2741C20.6844 26.8551 20.6844 26.1756 20.2654 25.7567L6.2491 11.7379Z" fill="url(#paint0_linear_622_10)"/>
<path d="M3.20983 1.37915C2.70431 0.873625 1.88469 0.873612 1.37915 1.37915C0.873616 1.88468 0.873616 2.70429 1.37915 3.20983L28.7901 30.6208C29.2957 31.1264 30.1153 31.1264 30.6208 30.6208C31.1264 30.1152 31.1264 29.2957 30.6208 28.7901L3.20983 1.37915Z" fill="url(#paint1_linear_622_10)"/>
<defs>
<linearGradient id="paint0_linear_622_10" x1="30.5437" y1="1.30411" x2="19.0758" y2="30.0974" gradientUnits="userSpaceOnUse">
<stop stop-color="#FE0F7C"/>
<stop offset="1" stop-color="#DF0066"/>
</linearGradient>
<linearGradient id="paint1_linear_622_10" x1="30.6598" y1="16" x2="4.73283" y2="6.62127" gradientUnits="userSpaceOnUse">
<stop stop-color="#FE7970"/>
<stop offset="1" stop-color="#DC3282"/>
</linearGradient>
</defs>
</svg>
