<svg width="32" height="32" viewBox="0 0 32 32" fill="none" xmlns="http://www.w3.org/2000/svg">
<path d="M24.2416 1.37921C23.736 0.873596 22.9162 0.873596 22.4106 1.37921L10.1585 13.6314C9.65282 14.137 8.83315 14.137 8.32744 13.6314L6.0534 11.3573C5.54778 10.8517 4.72803 10.8517 4.22242 11.3573L4.11597 11.4637C3.6103 11.9694 3.61037 12.7893 4.11615 13.2949L9.5284 18.7051C10.0342 19.2108 10.0342 20.0307 9.52853 20.5364L1.37933 28.6833C0.87361 29.1889 0.873546 30.0088 1.3792 30.5144L1.48557 30.6208C1.99123 31.1265 2.81108 31.1264 3.31667 30.6207L11.4636 22.4715C11.9693 21.9657 12.7892 21.9657 13.2949 22.4716L18.7051 27.8838C19.2106 28.3896 20.0306 28.3896 20.5363 27.8841L20.6427 27.7775C21.1483 27.2719 21.1483 26.4523 20.6427 25.9465L18.3686 23.6725C17.863 23.1668 17.863 22.3472 18.3686 21.8415L30.6208 9.58938C31.1264 9.0838 31.1264 8.264 30.6208 7.75838L24.2416 1.37921Z" fill="url(#paint0_linear_622_8)"/>
<defs>
<linearGradient id="paint0_linear_622_8" x1="15.9999" y1="31.5364" x2="15.9999" y2="0.46372" gradientUnits="userSpaceOnUse">
<stop stop-color="#00B59C"/>
<stop offset="1" stop-color="#9CFFAC"/>
</linearGradient>
</defs>
</svg>
