<svg width="128" height="128" viewBox="0 0 128 128" fill="none" xmlns="http://www.w3.org/2000/svg">
<path d="M38.0013 24C30.1119 28.2937 23.5498 34.5132 18.9827 42.0264C14.4156 49.5396 12.0063 58.0776 12 66.7728C12 79.8272 17.411 92.3476 27.0427 101.58C36.6747 110.811 49.738 115.998 63.3604 116C72.4196 115.989 81.3144 113.681 89.1432 109.312C96.9716 104.942 103.455 98.6672 107.936 91.1216C107.957 91.1092 107.979 91.0972 108 91.0848L103.252 86.5432C103.244 86.556 103.235 86.5684 103.226 86.58C96.8568 89.7344 89.792 91.382 82.622 91.3864C70.7032 91.3828 59.274 86.8436 50.8472 78.7656C42.4204 70.688 37.6864 59.734 37.6864 48.3124C37.6956 41.4304 39.4248 34.651 42.73 28.5412L38.0013 24ZM33.2213 34.8976C31.9262 39.2613 31.2668 43.7756 31.2617 48.3124C31.2617 61.3668 36.6725 73.8872 46.3048 83.1192C55.9364 92.3508 68.9996 97.5376 82.622 97.5396C87.3784 97.524 92.1092 96.876 96.68 95.6136C92.472 100.086 87.3332 103.663 81.5944 106.115C75.8552 108.566 69.6436 109.838 63.3604 109.846C51.4412 109.843 40.012 105.304 31.5853 97.2256C23.1587 89.1484 18.4248 78.1944 18.4248 66.7728C18.4351 60.7644 19.7567 54.8248 22.305 49.3352C24.8532 43.8456 28.5716 38.9281 33.2213 34.8976Z" fill="url(#paint0_linear)"/>
<path d="M56 32.5714V39.4286H71.2864L57.9532 53.1428L56 55.1516V60H82.6668V53.1428H67.3804L80.7136 39.4286L82.6668 37.4196V32.5714H77.9532H56ZM89.3332 12V18.8572H104.62L91.2864 32.5714L89.3332 34.5804V39.4286H116V32.5714H100.714L114.047 18.8572L116 16.848V12H111.286H89.3332Z" fill="url(#paint1_linear)"/>
<defs>
<linearGradient id="paint0_linear" x1="59.9999" y1="116" x2="59.9999" y2="24" gradientUnits="userSpaceOnUse">
<stop stop-color="#02AA93"/>
<stop offset="1" stop-color="#67FF80"/>
</linearGradient>
<linearGradient id="paint1_linear" x1="86" y1="60" x2="86" y2="12" gradientUnits="userSpaceOnUse">
<stop stop-color="#00B59C"/>
<stop offset="1" stop-color="#9CFFAC"/>
</linearGradient>
</defs>
</svg>
