<svg width="24" height="24" viewBox="0 0 24 24" fill="none" xmlns="http://www.w3.org/2000/svg">
<path d="M10.4898 5C13.5131 5 16.0109 7.47281 16.0109 10.496C16.0109 11.5493 15.6844 12.5253 15.1604 13.3626L15.0127 13.5875L18.6934 17.2723C18.9525 17.5228 19.0577 17.893 18.9691 18.2424C18.8805 18.5919 18.6116 18.867 18.2646 18.9634C17.9609 19.0477 17.6382 18.9839 17.3909 18.7966L17.2898 18.7088L13.6091 15.024C12.7234 15.6344 11.6397 15.992 10.4898 15.992C7.46654 15.992 5 13.5192 5 10.496C5 7.47281 7.46654 5 10.4898 5ZM10.4898 5.99928C7.99067 5.99928 5.99815 7.99685 5.99815 10.496C5.99815 12.995 7.99067 14.9928 10.4898 14.9928C12.989 14.9928 14.9815 12.995 14.9815 10.496C14.9815 7.99685 12.989 5.99928 10.4898 5.99928Z" fill="url(#paint0_linear)" stroke="url(#paint1_linear)"/>
<path d="M1.5 1C1.22386 1 1 1.22386 1 1.5V6C1 6.27614 1.22386 6.5 1.5 6.5H2.33333C2.60948 6.5 2.83333 6.27614 2.83333 6V3.33333C2.83333 3.05719 3.05719 2.83333 3.33333 2.83333H6C6.27614 2.83333 6.5 2.60948 6.5 2.33333V1.5C6.5 1.22386 6.27614 1 6 1H2.83333H1.5ZM18 1C17.7239 1 17.5 1.22386 17.5 1.5V2.33333C17.5 2.60948 17.7239 2.83333 18 2.83333H20.6667C20.9428 2.83333 21.1667 3.05719 21.1667 3.33333V6C21.1667 6.27614 21.3905 6.5 21.6667 6.5H22.5C22.7761 6.5 23 6.27614 23 6V1.5C23 1.22386 22.7761 1 22.5 1H21.1667H18ZM1.5 17.5C1.22386 17.5 1 17.7239 1 18V22.5C1 22.7761 1.22386 23 1.5 23H2.83333H6C6.27614 23 6.5 22.7761 6.5 22.5V21.6667C6.5 21.3905 6.27614 21.1667 6 21.1667H3.33333C3.05719 21.1667 2.83333 20.9428 2.83333 20.6667V18C2.83333 17.7239 2.60948 17.5 2.33333 17.5H1.5ZM21.6667 17.5C21.3905 17.5 21.1667 17.7239 21.1667 18V20.6667C21.1667 20.9428 20.9428 21.1667 20.6667 21.1667H18C17.7239 21.1667 17.5 21.3905 17.5 21.6667V22.5C17.5 22.7761 17.7239 23 18 23H22.5C22.7761 23 23 22.7761 23 22.5V21.1667V18C23 17.7239 22.7761 17.5 22.5 17.5H21.6667Z" fill="url(#paint2_linear)"/>
<defs>
<linearGradient id="paint0_linear" x1="12" y1="19" x2="12" y2="5" gradientUnits="userSpaceOnUse">
<stop stop-color="#A93AFF"/>
<stop offset="1" stop-color="#FF81FF"/>
</linearGradient>
<linearGradient id="paint1_linear" x1="12" y1="19" x2="12" y2="5" gradientUnits="userSpaceOnUse">
<stop stop-color="#A93AFF"/>
<stop offset="1" stop-color="#FF81FF"/>
</linearGradient>
<linearGradient id="paint2_linear" x1="12" y1="23" x2="12" y2="1" gradientUnits="userSpaceOnUse">
<stop stop-color="#A93AFF"/>
<stop offset="1" stop-color="#FF81FF"/>
</linearGradient>
</defs>
</svg>
