<svg width="256" height="256" viewBox="0 0 256 256" fill="none" xmlns="http://www.w3.org/2000/svg">
<path d="M221 61.2405C221 60.255 220.677 59.1619 220.141 58.3284C219.561 57.4267 218.901 56.3991 218.9 56.3978L171 9.17359C169.555 7.80415 158.291 1.96094 156.269 1.96094H41.1923C37.2202 1.96094 34 5.19028 34 9.17359V240.939C34 244.923 37.2202 248.152 41.1923 248.152H213.808C217.78 248.152 221 244.923 221 240.939V66.8747C221 65.212 221 64.4488 221 61.2405ZM163.462 33.8033C163.462 31.166 166.726 29.8604 168.606 31.7457L191.458 54.6621C193.316 56.525 191.97 59.6621 189.313 59.6621H166.462C164.805 59.6621 163.462 58.3447 163.462 56.7196V33.8033ZM55 230.987C53.3431 230.987 52 229.67 52 228.045V22.0683C52 20.4431 53.3431 19.1257 55 19.1257H141.5C143.157 19.1257 144.5 20.4431 144.5 22.0683V59.6621C144.5 63.6454 159.489 77.4859 163.462 77.4859H200C201.657 77.4859 203 78.8032 203 80.4284V228.045C203 229.67 201.657 230.987 200 230.987H55Z" fill="url(#paint0_linear)"/>
<path d="M83.8977 108.981C83.3207 108.983 82.7574 109.162 82.2795 109.495C81.8016 109.827 81.4306 110.298 81.2138 110.848C80.997 111.398 80.9441 112.002 81.0618 112.582C81.1795 113.163 81.4626 113.695 81.875 114.11L90.1405 122.608C91.5854 124.093 91.6408 126.426 90.4133 128.096C84.343 136.352 81.0196 146.441 81 156.857V200.712C81 202.921 82.7909 204.712 85 204.712H170.091C172.3 204.712 174.091 202.921 174.091 200.712V156.857C174.078 146.463 170.776 136.393 164.735 128.141C163.513 126.472 163.57 124.142 165.013 122.659L173.284 114.157C173.708 113.74 174 113.201 174.121 112.61C174.241 112.02 174.186 111.406 173.961 110.848C173.736 110.291 173.352 109.817 172.86 109.488C172.368 109.159 171.791 108.99 171.205 109.004C170.434 109.023 169.703 109.355 169.17 109.927L161.042 118.283C159.536 119.831 157.084 119.89 155.374 118.572C147.372 112.402 137.616 109.025 127.545 109.004C117.497 109.018 107.759 112.374 99.761 118.513C98.051 119.826 95.6036 119.766 94.1005 118.221L85.9886 109.88C85.7164 109.593 85.3911 109.367 85.0319 109.213C84.6727 109.058 84.2871 108.979 83.8977 108.981ZM127.011 111.986C127.189 111.985 127.367 111.985 127.545 111.986C137.359 111.999 146.838 115.654 154.239 122.279C155.699 123.594 157.066 125.016 158.33 126.532C163.869 133.106 167.258 141.263 168.078 149.855C174.091 153.857 174.091 153.857 164.264 153.857H90.8226C81.875 153.857 81 153.857 87.0086 149.859C87.8229 141.233 91.2263 133.043 96.7955 126.45C97.959 125.083 99.2079 123.795 100.534 122.594C100.662 122.473 100.791 122.352 100.92 122.232C108.171 115.762 117.412 112.133 127.011 111.986ZM110.091 129.93C108.548 129.93 107.068 130.562 105.977 131.683C104.886 132.805 104.273 134.327 104.273 135.913C104.273 137.5 104.886 139.021 105.977 140.143C107.068 141.265 108.548 141.895 110.091 141.895C111.634 141.895 113.114 141.265 114.205 140.143C115.296 139.021 115.909 137.5 115.909 135.913C115.909 134.327 115.296 132.805 114.205 131.683C113.114 130.562 111.634 129.93 110.091 129.93ZM145 129.93C143.457 129.93 141.977 130.562 140.886 131.683C139.795 132.805 139.182 134.327 139.182 135.913C139.182 137.5 139.795 139.021 140.886 140.143C141.977 141.265 143.457 141.895 145 141.895C146.543 141.895 148.023 141.265 149.114 140.143C150.205 139.021 150.818 137.5 150.818 135.913C150.818 134.327 150.205 132.805 149.114 131.683C148.023 130.562 146.543 129.93 145 129.93Z" stroke="url(#paint1_linear)" stroke-width="9" stroke-linejoin="round"/>
<defs>
<linearGradient id="paint0_linear" x1="34" y1="125.056" x2="221" y2="125.056" gradientUnits="userSpaceOnUse">
<stop stop-color="#02AA93"/>
<stop offset="1" stop-color="#67FF80"/>
</linearGradient>
<linearGradient id="paint1_linear" x1="81" y1="156.847" x2="174.183" y2="156.847" gradientUnits="userSpaceOnUse">
<stop stop-color="#02AA93"/>
<stop offset="1" stop-color="#67FF80"/>
</linearGradient>
</defs>
</svg>
