<svg width="256" height="256" viewBox="0 0 256 256" fill="none" xmlns="http://www.w3.org/2000/svg">
<path d="M221 62.4373C221 61.4326 220.677 60.3181 220.141 59.4684C219.561 58.549 218.9 57.5 218.9 57.5L171 9.35352C169.555 7.95733 158.291 2 156.269 2H41.1923C37.2202 2 34 5.29241 34 9.35352V245.646C34 249.708 37.2202 253 41.1923 253H213.808C217.78 253 221 249.708 221 245.646V68.1816C221 66.4864 221 65.7083 221 62.4373ZM163.462 34.4642C163.462 31.7754 166.726 30.4443 168.606 32.3665L191.458 55.7304C193.316 57.6297 191.97 60.8281 189.313 60.8281H166.462C164.805 60.8281 163.462 59.485 163.462 57.8281V34.4642ZM55 235.5C53.3431 235.5 52 234.157 52 232.5V22.5C52 20.8431 53.3431 19.5 55 19.5H141.5C143.157 19.5 144.5 20.8431 144.5 22.5V60.8281C144.5 64.8892 159.489 79 163.462 79H200C201.657 79 203 80.3431 203 82V232.5C203 234.157 201.657 235.5 200 235.5H55Z" fill="url(#paint0_linear_632_33)"/>
<path d="M166.5 95.1055V95H165.5H90.5C87.8767 95 85.75 97.1267 85.75 99.75V137.25C85.75 158.943 102.181 176.863 123.25 179.231V215.5H105.5C102.877 215.5 100.75 217.627 100.75 220.25C100.75 222.873 102.877 225 105.5 225H150.5C153.123 225 155.25 222.873 155.25 220.25C155.25 217.627 153.123 215.5 150.5 215.5H132.75V179.231C153.819 176.863 170.25 158.943 170.25 137.25V99.75C170.25 97.4698 168.643 95.5647 166.5 95.1055ZM131.424 104.5H160.75V137.25C160.75 155.308 146.058 170 128 170C109.942 170 95.25 155.308 95.25 137.25V104.5H121.41L115.994 120.748C115.511 122.196 115.754 123.789 116.646 125.027C117.539 126.266 118.973 127 120.5 127H128.91L123.494 143.248C122.664 145.736 124.009 148.426 126.498 149.256C128.987 150.085 131.677 148.741 132.506 146.252L140.006 123.752C140.489 122.304 140.246 120.711 139.353 119.472C138.461 118.234 137.027 117.5 135.5 117.5H127.09L131.424 104.5Z" fill="url(#paint1_linear_632_33)" stroke="url(#paint2_linear_632_33)" stroke-width="2"/>
<defs>
<linearGradient id="paint0_linear_632_33" x1="214.682" y1="9.17429" x2="96.2687" y2="230.694" gradientUnits="userSpaceOnUse">
<stop stop-color="#FE0F7C"/>
<stop offset="1" stop-color="#DF0066"/>
</linearGradient>
<linearGradient id="paint1_linear_632_33" x1="167.395" y1="98.7158" x2="101.682" y2="205.969" gradientUnits="userSpaceOnUse">
<stop stop-color="#FE0F7C"/>
<stop offset="1" stop-color="#DF0066"/>
</linearGradient>
<linearGradient id="paint2_linear_632_33" x1="167.395" y1="98.7158" x2="101.682" y2="205.969" gradientUnits="userSpaceOnUse">
<stop stop-color="#FE0F7C"/>
<stop offset="1" stop-color="#DF0066"/>
</linearGradient>
</defs>
</svg>
