<svg width="256" height="256" viewBox="0 0 256 256" fill="none" xmlns="http://www.w3.org/2000/svg">
<path d="M219.72 58.5998C220.205 59.3533 220.5 60.3527 220.5 61.2414V61.2601V61.2789V61.2975V61.3161V61.3347V61.3532V61.3716V61.39V61.4083V61.4266V61.4448V61.463V61.4811V61.4991V61.5171V61.5351V61.553V61.5708V61.5886V61.6064V61.624V61.6417V61.6592V61.6768V61.6942V61.7117V61.729V61.7463V61.7636V61.7808V61.798V61.8151V61.8322V61.8492V61.8661V61.883V61.8999V61.9167V61.9334V61.9501V61.9668V61.9834V62V62.0165V62.0329V62.0493V62.0657V62.082V62.0983V62.1145V62.1306V62.1467V62.1628V62.1788V62.1948V62.2107V62.2266V62.2424V62.2582V62.2739V62.2896V62.3053V62.3209V62.3364V62.3519V62.3674V62.3828V62.3981V62.4134V62.4287V62.4439V62.4591V62.4743V62.4893V62.5044V62.5194V62.5343V62.5493V62.5641V62.5789V62.5937V62.6085V62.6232V62.6378V62.6524V62.667V62.6815V62.696V62.7104V62.7248V62.7391V62.7534V62.7677V62.7819V62.7961V62.8102V62.8243V62.8384V62.8524V62.8663V62.8803V62.8942V62.908V62.9218V62.9356V62.9493V62.963V62.9766V62.9903V63.0038V63.0174V63.0308V63.0443V63.0577V63.0711V63.0844V63.0977V63.1109V63.1242V63.1373V63.1505V63.1636V63.1767V63.1897V63.2027V63.2156V63.2285V63.2414V63.2543V63.2671V63.2798V63.2926V63.3053V63.3179V63.3305V63.3431V63.3557V63.3682V63.3807V63.3931V63.4055V63.4179V63.4303V63.4426V63.4548V63.4671V63.4793V63.4915V63.5036V63.5157V63.5278V63.5398V63.5518V63.5638V63.5757V63.5876V63.5995V63.6113V63.6231V63.6349V63.6466V63.6584V63.67V63.6817V63.6933V63.7049V63.7164V63.728V63.7395V63.7509V63.7623V63.7737V63.7851V63.7964V63.8078V63.819V63.8303V63.8415V63.8527V63.8639V63.875V63.8861V63.8972V63.9082V63.9192V63.9302V63.9412V63.9521V63.963V63.9739V63.9848V63.9956V64.0064V64.0171V64.0279V64.0386V64.0493V64.06V64.0706V64.0812V64.0918V64.1023V64.1129V64.1234V64.1339V64.1443V64.1547V64.1651V64.1755V64.1859V64.1962V64.2065V64.2168V64.2271V64.2373V64.2475V64.2577V64.2679V64.278V64.2881V64.2982V64.3083V64.3183V64.3283V64.3384V64.3483V64.3583V64.3682V64.3781V64.388V64.3979V64.4078V64.4176V64.4274V64.4372V64.4469V64.4567V64.4664V64.4761V64.4858V64.4955V64.5051V64.5147V64.5243V64.5339V64.5435V64.553V64.5626V64.5721V64.5815V64.591V64.6005V64.6099V64.6193V64.6287V64.6381V64.6475V64.6568V64.6661V64.6754V64.6847V64.694V64.7033V64.7125V64.7217V64.731V64.7401V64.7493V64.7585V64.7676V64.7768V64.7859V64.795V64.8041V64.8131V64.8222V64.8312V64.8403V64.8493V64.8583V64.8672V64.8762V64.8852V64.8941V64.903V64.912V64.9209V64.9297V64.9386V64.9475V64.9563V64.9652V64.974V64.9828V64.9916V65.0004V65.0092V65.0179V65.0267V65.0354V65.0442V65.0529V65.0616V65.0703V65.079V65.0877V65.0963V65.105V65.1136V65.1223V65.1309V65.1395V65.1481V65.1567V65.1653V65.1739V65.1825V65.1911V65.1996V65.2082V65.2167V65.2252V65.2338V65.2423V65.2508V65.2593V65.2678V65.2763V65.2848V65.2932V65.3017V65.3102V65.3186V65.3271V65.3355V65.344V65.3524V65.3608V65.3692V65.3777V65.3861V65.3945V65.4029V65.4113V65.4197V65.428V65.4364V65.4448V65.4532V65.4615V65.4699V65.4783V65.4866V65.495V65.5034V65.5117V65.5201V65.5284V65.5367V65.5451V65.5534V65.5618V65.5701V65.5784V65.5868V65.5951V65.6034V65.6118V65.6201V65.6284V65.6367V65.6451V65.6534V65.6617V65.67V65.6784V65.6867V65.695V65.7033V65.7117V65.72V65.7283V65.7367V65.745V65.7533V65.7616V65.77V65.7783V65.7867V65.795V65.8034V65.8117V65.82V65.8284V65.8368V65.8451V65.8535V65.8618V65.8702V65.8786V65.887V65.8953V65.9037V65.9121V65.9205V65.9289V65.9373V65.9457V65.9541V65.9625V65.971V65.9794V65.9878V65.9963V66.0047V66.0132V66.0216V66.0301V66.0386V66.047V66.0555V66.064V66.0725V66.081V66.0895V66.0981V66.1066V66.1151V66.1237V66.1322V66.1408V66.1493V66.1579V66.1665V66.1751V66.1837V66.1923V66.201V66.2096V66.2182V66.2269V66.2355V66.2442V66.2529V66.2616V66.2703V66.279V66.2877V66.2965V66.3052V66.314V66.3227V66.3315V66.3403V66.3491V66.3579V66.3668V66.3756V66.3845V66.3933V66.4022V66.4111V66.42V66.4289V66.4379V66.4468V66.4558V66.4648V66.4737V66.4828V66.4918V66.5008V66.5098V66.5189V66.528V66.5371V66.5462V66.5553V66.5644V66.5736V66.5828V66.5919V66.6011V66.6104V66.6196V66.6288V66.6381V66.6474V66.6567V66.666V66.6753V66.6847V66.6941V66.7034V66.7129V66.7223V66.7317V66.7412V66.7507V66.7602V66.7697V66.7792V66.7888V66.7983V66.8079V66.8175V66.8272V66.8368V66.8465V66.8562V66.8659V66.8756V240.94C220.5 244.65 217.503 247.653 213.808 247.653H41.1923C37.4977 247.653 34.5 244.649 34.5 240.94V9.17456C34.5 5.46606 37.4977 2.46191 41.1923 2.46191H156.269C156.436 2.46191 156.767 2.52943 157.27 2.69158C157.756 2.84807 158.353 3.07588 159.028 3.35769C160.376 3.92086 162.008 4.68856 163.626 5.5015C165.244 6.31413 166.843 7.16856 168.124 7.90357C168.765 8.27122 169.323 8.60704 169.764 8.89146C170.21 9.17971 170.508 9.39796 170.653 9.53435C170.654 9.5354 170.655 9.53644 170.656 9.53747L218.511 56.7175C218.612 56.8761 219.188 57.7721 219.72 58.5998ZM168.96 31.3936C166.779 29.2068 162.962 30.7011 162.962 33.8041V56.7205C162.962 58.6308 164.538 60.163 166.462 60.163H189.313C192.394 60.163 193.999 56.5026 191.812 54.3099L168.96 31.3936ZM51.5 228.046C51.5 229.956 53.0761 231.488 55 231.488H200C201.924 231.488 203.5 229.956 203.5 228.046V80.4293C203.5 78.5189 201.924 76.9868 200 76.9868H163.462C163.084 76.9868 162.501 76.8141 161.726 76.4351C160.967 76.0638 160.078 75.5226 159.108 74.8509C157.169 73.5083 154.941 71.6702 152.832 69.703C150.723 67.7355 148.744 65.6507 147.296 63.8185C146.572 62.9017 145.989 62.0583 145.59 61.3316C145.182 60.5887 145 60.0295 145 59.663V22.0691C145 20.1588 143.424 18.6266 141.5 18.6266H55C53.0761 18.6266 51.5 20.1588 51.5 22.0691V228.046Z" fill="url(#paint0_linear)" stroke="url(#paint1_linear)"/>
<path d="M128.18 208C127.065 208 126.022 207.454 125.387 206.539C117.178 194.703 110.078 185.629 104.373 178.339C91.2361 161.551 84 152.304 84 136.18C84 111.819 103.819 92 128.18 92C152.54 92 172.359 111.819 172.359 136.18C172.359 152.287 165.073 161.605 151.846 178.52C146.166 185.784 139.097 194.825 130.972 206.539C130.337 207.454 129.294 208 128.18 208Z" stroke="url(#paint2_linear)" stroke-width="14"/>
<path d="M128.113 157.481C116.964 157.481 107.882 148.399 107.882 137.25C107.882 126.101 116.964 117.02 128.113 117.02C139.262 117.02 148.344 126.101 148.344 137.25C148.344 148.399 139.262 157.481 128.113 157.481Z" stroke="url(#paint3_linear)" stroke-width="12"/>
<defs>
<linearGradient id="paint0_linear" x1="215.726" y1="125.057" x2="51.6605" y2="79.9784" gradientUnits="userSpaceOnUse">
<stop stop-color="#FE7970"/>
<stop offset="1" stop-color="#DC3282"/>
</linearGradient>
<linearGradient id="paint1_linear" x1="215.726" y1="125.057" x2="51.6605" y2="79.9784" gradientUnits="userSpaceOnUse">
<stop stop-color="#FE7970"/>
<stop offset="1" stop-color="#DC3282"/>
</linearGradient>
<linearGradient id="paint2_linear" x1="128.18" y1="208" x2="128.18" y2="92" gradientUnits="userSpaceOnUse">
<stop stop-color="#FD3A84"/>
<stop offset="1" stop-color="#FFA68D"/>
</linearGradient>
<linearGradient id="paint3_linear" x1="128.113" y1="157.481" x2="128.113" y2="117.02" gradientUnits="userSpaceOnUse">
<stop stop-color="#FD3A84"/>
<stop offset="1" stop-color="#FFA68D"/>
</linearGradient>
</defs>
</svg>
