<svg width="256" height="256" viewBox="0 0 256 256" fill="none" xmlns="http://www.w3.org/2000/svg">
<path d="M219.72 58.5996C220.205 59.3531 220.5 60.3525 220.5 61.2412V61.2599V61.2787V61.2973V61.3159V61.3345V61.353V61.3714V61.3898V61.4081V61.4264V61.4446V61.4628V61.4809V61.4989V61.5169V61.5349V61.5528V61.5706V61.5884V61.6062V61.6238V61.6415V61.659V61.6766V61.694V61.7115V61.7288V61.7461V61.7634V61.7806V61.7978V61.8149V61.832V61.849V61.8659V61.8828V61.8997V61.9165V61.9332V61.9499V61.9666V61.9832V61.9998V62.0163V62.0327V62.0491V62.0655V62.0818V62.0981V62.1143V62.1304V62.1465V62.1626V62.1786V62.1946V62.2105V62.2264V62.2422V62.258V62.2737V62.2894V62.3051V62.3207V62.3362V62.3517V62.3672V62.3826V62.3979V62.4132V62.4285V62.4437V62.4589V62.4741V62.4891V62.5042V62.5192V62.5341V62.5491V62.5639V62.5787V62.5935V62.6083V62.623V62.6376V62.6522V62.6668V62.6813V62.6958V62.7102V62.7246V62.7389V62.7532V62.7675V62.7817V62.7959V62.81V62.8241V62.8382V62.8522V62.8661V62.8801V62.894V62.9078V62.9216V62.9354V62.9491V62.9628V62.9764V62.9901V63.0036V63.0172V63.0306V63.0441V63.0575V63.0709V63.0842V63.0975V63.1107V63.124V63.1371V63.1503V63.1634V63.1765V63.1895V63.2025V63.2154V63.2283V63.2412V63.2541V63.2669V63.2796V63.2924V63.3051V63.3177V63.3303V63.3429V63.3555V63.368V63.3805V63.3929V63.4053V63.4177V63.4301V63.4424V63.4546V63.4669V63.4791V63.4913V63.5034V63.5155V63.5276V63.5396V63.5516V63.5636V63.5755V63.5874V63.5993V63.6111V63.6229V63.6347V63.6464V63.6582V63.6698V63.6815V63.6931V63.7047V63.7162V63.7278V63.7393V63.7507V63.7621V63.7735V63.7849V63.7962V63.8076V63.8188V63.8301V63.8413V63.8525V63.8637V63.8748V63.8859V63.897V63.908V63.919V63.93V63.941V63.9519V63.9628V63.9737V63.9846V63.9954V64.0062V64.0169V64.0277V64.0384V64.0491V64.0598V64.0704V64.081V64.0916V64.1021V64.1127V64.1232V64.1337V64.1441V64.1545V64.1649V64.1753V64.1857V64.196V64.2063V64.2166V64.2269V64.2371V64.2473V64.2575V64.2677V64.2778V64.2879V64.298V64.3081V64.3181V64.3281V64.3382V64.3481V64.3581V64.368V64.3779V64.3878V64.3977V64.4076V64.4174V64.4272V64.437V64.4467V64.4565V64.4662V64.4759V64.4856V64.4953V64.5049V64.5145V64.5241V64.5337V64.5433V64.5528V64.5624V64.5719V64.5813V64.5908V64.6003V64.6097V64.6191V64.6285V64.6379V64.6473V64.6566V64.6659V64.6752V64.6845V64.6938V64.7031V64.7123V64.7215V64.7308V64.7399V64.7491V64.7583V64.7674V64.7766V64.7857V64.7948V64.8039V64.8129V64.822V64.831V64.8401V64.8491V64.8581V64.867V64.876V64.885V64.8939V64.9028V64.9118V64.9207V64.9295V64.9384V64.9473V64.9561V64.965V64.9738V64.9826V64.9914V65.0002V65.009V65.0177V65.0265V65.0352V65.044V65.0527V65.0614V65.0701V65.0788V65.0875V65.0961V65.1048V65.1134V65.1221V65.1307V65.1393V65.1479V65.1565V65.1651V65.1737V65.1823V65.1909V65.1994V65.208V65.2165V65.225V65.2336V65.2421V65.2506V65.2591V65.2676V65.2761V65.2846V65.293V65.3015V65.31V65.3184V65.3269V65.3353V65.3438V65.3522V65.3606V65.369V65.3775V65.3859V65.3943V65.4027V65.4111V65.4195V65.4278V65.4362V65.4446V65.453V65.4613V65.4697V65.4781V65.4864V65.4948V65.5032V65.5115V65.5199V65.5282V65.5365V65.5449V65.5532V65.5616V65.5699V65.5782V65.5866V65.5949V65.6032V65.6116V65.6199V65.6282V65.6365V65.6449V65.6532V65.6615V65.6698V65.6782V65.6865V65.6948V65.7031V65.7115V65.7198V65.7281V65.7365V65.7448V65.7531V65.7614V65.7698V65.7781V65.7865V65.7948V65.8032V65.8115V65.8198V65.8282V65.8366V65.8449V65.8533V65.8616V65.87V65.8784V65.8868V65.8951V65.9035V65.9119V65.9203V65.9287V65.9371V65.9455V65.9539V65.9623V65.9708V65.9792V65.9876V65.9961V66.0045V66.013V66.0214V66.0299V66.0384V66.0468V66.0553V66.0638V66.0723V66.0808V66.0893V66.0979V66.1064V66.1149V66.1235V66.132V66.1406V66.1491V66.1577V66.1663V66.1749V66.1835V66.1921V66.2008V66.2094V66.218V66.2267V66.2353V66.244V66.2527V66.2614V66.2701V66.2788V66.2875V66.2963V66.305V66.3138V66.3225V66.3313V66.3401V66.3489V66.3577V66.3666V66.3754V66.3843V66.3931V66.402V66.4109V66.4198V66.4287V66.4377V66.4466V66.4556V66.4646V66.4735V66.4826V66.4916V66.5006V66.5096V66.5187V66.5278V66.5369V66.546V66.5551V66.5642V66.5734V66.5826V66.5917V66.6009V66.6102V66.6194V66.6286V66.6379V66.6472V66.6565V66.6658V66.6751V66.6845V66.6939V66.7032V66.7127V66.7221V66.7315V66.741V66.7505V66.76V66.7695V66.779V66.7886V66.7981V66.8077V66.8173V66.827V66.8366V66.8463V66.856V66.8657V66.8754V240.94C220.5 244.65 217.503 247.653 213.808 247.653H41.1923C37.4977 247.653 34.5 244.649 34.5 240.94V9.17432C34.5 5.46582 37.4977 2.46167 41.1923 2.46167H156.269C156.436 2.46167 156.767 2.52919 157.27 2.69134C157.756 2.84783 158.353 3.07564 159.028 3.35745C160.376 3.92062 162.008 4.68832 163.626 5.50126C165.244 6.31389 166.843 7.16832 168.124 7.90333C168.765 8.27098 169.323 8.6068 169.764 8.89122C170.21 9.17947 170.508 9.39772 170.653 9.53411C170.654 9.53516 170.655 9.5362 170.656 9.53723L218.511 56.7173C218.612 56.8759 219.188 57.7719 219.72 58.5996ZM168.96 31.3934C166.779 29.2066 162.962 30.7009 162.962 33.8039V56.7203C162.962 58.6306 164.538 60.1628 166.462 60.1628H189.313C192.394 60.1628 193.999 56.5024 191.812 54.3097L168.96 31.3934ZM51.5 228.046C51.5 229.956 53.0761 231.488 55 231.488H200C201.924 231.488 203.5 229.956 203.5 228.046V80.4291C203.5 78.5187 201.924 76.9866 200 76.9866H163.462C163.084 76.9866 162.501 76.8139 161.726 76.4349C160.967 76.0636 160.078 75.5224 159.108 74.8507C157.169 73.5081 154.941 71.67 152.832 69.7028C150.723 67.7353 148.744 65.6505 147.296 63.8183C146.572 62.9015 145.989 62.0581 145.59 61.3314C145.182 60.5885 145 60.0293 145 59.6628V22.0689C145 20.1586 143.424 18.6264 141.5 18.6264H55C53.0761 18.6264 51.5 20.1586 51.5 22.0689V228.046Z" fill="url(#paint0_linear)" stroke="url(#paint1_linear)"/>
<path d="M179.936 98.1471C163.85 82.3699 137.676 82.3699 121.591 98.1471C110.606 108.922 106.79 124.804 111.543 139.211L96.8589 153.552C96.1521 154.243 95.7548 155.18 95.7548 156.158V162.812H89.0038C86.9324 162.812 85.2532 164.46 85.2532 166.491V173.358H78.5022C76.4309 173.358 74.7516 175.005 74.7516 177.037V183.659H67.7506C65.6793 183.659 64 185.306 64 187.337V208.183C64 210.215 65.6793 211.862 67.7506 211.862H88.967C89.9617 211.862 90.9155 211.475 91.6189 210.784L138.065 165.229C152.662 169.863 168.882 166.217 179.935 155.374C196.021 139.597 196.021 113.925 179.936 98.1471ZM174.632 150.172C165.165 159.457 150.966 162.355 138.456 157.557C137.069 157.024 135.492 157.348 134.438 158.382L87.4135 204.505H71.5011V191.016H78.5022C80.5735 191.016 82.2527 189.369 82.2527 187.337V180.715H89.0038C91.0751 180.715 92.7543 179.069 92.7543 177.037V170.17H99.5053C101.577 170.17 103.256 168.523 103.256 166.491V157.687L118.52 142.779C119.577 141.746 119.91 140.196 119.366 138.833C114.473 126.562 117.428 112.635 126.894 103.35C140.056 90.4408 161.47 90.441 174.631 103.35C187.793 116.258 187.793 137.263 174.632 150.172Z" fill="url(#paint2_linear)" stroke="url(#paint3_linear)" stroke-width="5" stroke-linecap="round"/>
<circle cx="150" cy="126" r="20" stroke="url(#paint4_linear)" stroke-width="10"/>
<defs>
<linearGradient id="paint0_linear" x1="215.726" y1="125.057" x2="51.6605" y2="79.9782" gradientUnits="userSpaceOnUse">
<stop stop-color="#FE7970"/>
<stop offset="1" stop-color="#DC3282"/>
</linearGradient>
<linearGradient id="paint1_linear" x1="215.726" y1="125.057" x2="51.6605" y2="79.9782" gradientUnits="userSpaceOnUse">
<stop stop-color="#FE7970"/>
<stop offset="1" stop-color="#DC3282"/>
</linearGradient>
<linearGradient id="paint2_linear" x1="188.389" y1="149.088" x2="82.071" y2="109.878" gradientUnits="userSpaceOnUse">
<stop stop-color="#FE7970"/>
<stop offset="1" stop-color="#DC3282"/>
</linearGradient>
<linearGradient id="paint3_linear" x1="188.389" y1="149.088" x2="82.071" y2="109.878" gradientUnits="userSpaceOnUse">
<stop stop-color="#FE7970"/>
<stop offset="1" stop-color="#DC3282"/>
</linearGradient>
<linearGradient id="paint4_linear" x1="165.936" y1="131.976" x2="148.964" y2="103.472" gradientUnits="userSpaceOnUse">
<stop stop-color="#FF928B"/>
<stop offset="1" stop-color="#DC3282"/>
</linearGradient>
</defs>
</svg>
