<svg width="256" height="256" viewBox="0 0 256 256" fill="none" xmlns="http://www.w3.org/2000/svg">
<path fill-rule="evenodd" clip-rule="evenodd" d="M220.141 59.4684C220.677 60.3181 221 61.4326 221 62.4373V68.1816V245.646C221 249.708 217.78 253 213.808 253H41.1923C37.2202 253 34 249.708 34 245.646V9.35352C34 5.29241 37.2202 2 41.1923 2H156.269C158.291 2 169.555 7.95733 171 9.35352L218.9 57.5C218.9 57.5 219.068 57.7668 219.309 58.1492C219.546 58.5251 219.854 59.0127 220.141 59.4684ZM168.606 32.3665C166.726 30.4443 163.462 31.7754 163.462 34.4642V57.8281C163.462 59.485 164.805 60.8281 166.462 60.8281H189.313C191.97 60.8281 193.316 57.6297 191.458 55.7304L168.606 32.3665ZM52 232.5C52 234.157 53.3431 235.5 55 235.5H200C201.657 235.5 203 234.157 203 232.5V82C203 80.3431 201.657 79 200 79H163.462C159.489 79 144.5 64.8892 144.5 60.8281V22.5C144.5 20.8431 143.157 19.5 141.5 19.5H55C53.3431 19.5 52 20.8431 52 22.5V232.5ZM66.9774 148.943C66.5617 149.161 66.1245 149.39 66.041 149.838C66.0236 149.932 66.0099 150.035 66 150.15V150.246C66 150.278 66.1325 151.821 66.3973 154.873C66.6621 157.894 66.7945 161.476 66.7945 165.622C66.7945 166.066 66.8578 166.433 66.9843 166.724C67.091 166.969 67.3024 167.146 67.5208 167.301L94.9979 186.733C95.5541 187.119 96.0572 187.312 96.5073 187.312C96.9841 187.312 97.3151 187.006 97.5005 186.396C99.39 179.548 100.996 174.658 102.32 171.724C102.416 171.511 102.495 171.291 102.525 171.059C102.539 170.953 102.545 170.86 102.545 170.778C102.545 170.618 102.267 170.361 101.711 170.007C101.155 169.622 98.2288 167.823 92.9323 164.609C91.3721 163.648 90.0161 162.813 88.8644 162.103C86.8277 160.847 87.032 157.859 89.2166 156.883L101.15 151.551C101.217 151.521 101.288 151.495 101.359 151.468C101.6 151.378 101.846 151.287 101.946 151.062C102.005 150.928 102.043 150.748 102.059 150.523C102.073 150.339 102.051 150.155 102.019 149.974C101.482 146.947 100.982 141.832 100.52 134.63C100.493 134.212 100.241 134.003 99.7647 134.003C99.288 134.003 98.4538 134.276 97.2621 134.822C96.0969 135.368 91.3169 137.537 82.9221 141.329C75.2454 144.778 69.9978 147.28 67.1794 148.836C67.1138 148.872 67.0459 148.907 66.9774 148.943ZM120.661 192.215L151.762 115.012L153.073 111.252L153.143 111.087C153.859 109.398 152.905 107.468 151.128 107.011L143.684 105.096C142.252 104.728 140.768 105.449 140.187 106.809C132.843 123.989 121.787 150.983 107.021 187.79C106.352 189.457 107.286 191.338 109.02 191.806L117.096 193.99C118.562 194.387 120.094 193.624 120.661 192.215ZM189 150.28C189 150.193 188.997 150.107 188.986 150.021C188.977 149.946 188.966 149.876 188.952 149.811C188.863 149.385 188.444 149.174 188.04 148.97C187.952 148.926 187.864 148.881 187.781 148.836C184.96 147.28 179.699 144.778 171.998 141.329C163.63 137.537 158.851 135.368 157.659 134.822C156.493 134.276 155.672 134.003 155.196 134.003C154.719 134.003 154.468 134.212 154.441 134.63C153.979 141.831 153.478 146.947 152.941 149.974C152.909 150.155 152.888 150.339 152.901 150.523C152.917 150.748 152.955 150.928 153.014 151.062C153.114 151.287 153.358 151.378 153.598 151.468C153.671 151.494 153.743 151.521 153.81 151.552L165.681 156.855C167.878 157.837 168.081 160.866 166.028 162.122C162.939 164.011 158.679 166.608 153.249 169.911C152.693 170.233 152.415 170.506 152.415 170.73C152.415 170.849 152.424 170.979 152.444 171.121C152.471 171.311 152.533 171.494 152.607 171.672C153.677 174.241 154.686 177.123 155.632 180.323C156.612 183.632 157.208 185.625 157.42 186.299C157.632 186.973 157.923 187.312 158.294 187.312C158.665 187.312 159.221 187.119 159.962 186.733L187.65 167.164C187.993 166.874 188.166 166.361 188.166 165.622C188.193 161.476 188.47 156.4 189 150.391V150.28Z" fill="url(#paint0_linear_667_99)"/>
<defs>
<linearGradient id="paint0_linear_667_99" x1="187.159" y1="1.99984" x2="-21.5909" y2="191.886" gradientUnits="userSpaceOnUse">
<stop stop-color="#DE00C0"/>
<stop offset="1" stop-color="#8720FF"/>
</linearGradient>
</defs>
</svg>
