<svg width="256" height="256" viewBox="0 0 256 256" fill="none" xmlns="http://www.w3.org/2000/svg">
<path d="M221 62.4373C221 61.4326 220.677 60.3181 220.141 59.4684C219.561 58.549 218.901 57.5014 218.9 57.5L171 9.35352C169.555 7.95733 158.291 2 156.269 2H41.1923C37.2202 2 34 5.29241 34 9.35352V245.646C34 249.708 37.2202 253 41.1923 253H213.808C217.78 253 221 249.708 221 245.646V68.1816C221 66.4864 221 65.7083 221 62.4373ZM163.462 34.4642C163.462 31.7754 166.726 30.4443 168.606 32.3665L191.458 55.7304C193.316 57.6297 191.97 60.8281 189.313 60.8281H166.462C164.805 60.8281 163.462 59.485 163.462 57.8281V34.4642ZM55 235.5C53.3431 235.5 52 234.157 52 232.5V22.5C52 20.8431 53.3431 19.5 55 19.5H141.5C143.157 19.5 144.5 20.8431 144.5 22.5V60.8281C144.5 64.8892 159.489 79 163.462 79H200C201.657 79 203 80.3431 203 82V232.5C203 234.157 201.657 235.5 200 235.5H55Z" fill="url(#paint0_linear)"/>
<path d="M144.875 93.3879C147.553 90.7516 152.142 90.5544 155.025 92.979C158.984 96.3265 162.555 100.116 166.377 103.615C168.712 105.924 171.526 107.964 172.82 111.113C173.106 113.772 172.991 116.699 171.08 118.763C166.789 123.824 162.109 128.547 157.703 133.514C157.257 132.64 155.942 131.765 155.496 130.891C156.445 130.832 154.546 130.949 155.496 130.891C154.398 128.115 150.905 125.689 149.121 123.311C151.958 120.209 154.796 117.106 157.553 113.935C155.402 111.393 152.977 109.095 150.344 107.078C147.689 109.76 145.161 112.536 142.632 115.334C139.13 112.723 133.786 111.276 132.757 106.414C136.898 102.168 140.663 97.5506 144.875 93.3879Z" fill="url(#paint1_linear)"/>
<path d="M113.43 127.625C119.85 120.535 126.382 113.55 132.757 106.414C133.786 111.276 139.13 112.723 142.632 115.334C136.121 122.459 129.587 129.572 123.076 136.709C121.794 136.068 120.513 134.168 119.231 133.514C119.804 133.293 118.66 133.736 119.231 133.514C118.064 130.798 114.998 130.121 113.43 127.625Z" fill="url(#paint2_linear)"/>
<path d="M129.29 144.966C135.904 137.758 142.494 130.518 149.121 123.311C150.905 125.689 154.398 128.115 155.496 130.891C156.445 130.832 154.546 130.949 155.496 130.891C155.942 131.765 157.257 132.64 157.703 133.514C151.386 140.395 145.105 147.298 138.789 154.178C135.734 150.995 132.574 147.916 129.29 144.966Z" fill="url(#paint3_linear)"/>
<path d="M95.3502 147.379C101.37 140.79 107.388 134.202 113.43 127.625C114.998 130.121 118.064 130.798 119.231 133.514C119.804 133.293 118.66 133.736 119.231 133.514C120.513 134.168 121.794 136.068 123.076 136.709C116.977 143.345 110.925 150.027 104.814 156.662C102.824 152.475 99.7341 149 95.3502 147.379Z" fill="url(#paint4_linear)"/>
<path d="M112.288 163.542C117.964 157.361 123.616 151.158 129.292 144.966C132.576 147.916 135.734 150.995 138.789 154.178C133.159 160.324 127.552 166.493 121.91 172.627C118.969 169.326 115.801 166.225 112.288 163.542Z" fill="url(#paint5_linear)"/>
<path d="M85.8755 160.848C86.1844 154.866 92.1696 151.811 95.3502 147.379C99.7341 149 102.824 152.475 104.814 156.662C102.88 158.831 100.672 160.802 99.0804 163.274C98.3145 165.688 98.2346 168.265 97.8903 170.773C100.786 170.481 102.802 171.122 105.698 170.773C107.608 168.685 110.388 165.629 112.288 163.542C115.801 166.225 118.969 169.326 121.91 172.627C118.683 175.776 116.155 179.833 112.401 182.329C102.892 183.728 93.3245 185.198 83.7242 185.653C83.2552 184.008 83.1291 182.352 83.3691 180.673C84.216 174.061 85.0972 167.461 85.8755 160.848Z" fill="url(#paint6_linear)"/>
<path d="M83.221 202.409C82.157 198.188 85.0406 193.185 89.6063 193.372C114.404 193.197 139.213 193.372 164.022 193.279C166.837 193.185 170.156 193.442 171.827 196.136C173.944 198.969 172.947 202.911 170.808 205.43C168.268 206.363 165.567 206.76 162.867 206.678C138.457 206.538 114.049 206.77 89.6409 206.573C86.78 206.76 84.8002 204.509 83.221 202.409Z" fill="url(#paint7_linear)"/>
<path d="M172.82 111.113C171.526 107.964 168.712 105.924 166.377 103.615C162.555 100.116 158.984 96.3265 155.025 92.979C152.142 90.5544 147.553 90.7516 144.875 93.3879C140.663 97.5506 136.898 102.168 132.757 106.414L172.82 111.113ZM172.82 111.113C173.106 113.772 172.991 116.699 171.08 118.763C166.789 123.824 162.109 128.547 157.703 133.514L172.82 111.113ZM157.703 133.514C157.257 132.64 155.942 131.765 155.496 130.891C156.445 130.832 154.546 130.949 155.496 130.891C154.398 128.115 150.905 125.689 149.121 123.311L157.703 133.514ZM138.789 154.178C145.105 147.298 151.386 140.395 157.703 133.514L138.789 154.178ZM149.121 123.311C151.958 120.209 154.796 117.106 157.553 113.935C155.402 111.393 152.977 109.095 150.344 107.078C147.689 109.76 145.161 112.536 142.632 115.334L149.121 123.311ZM149.121 123.311C142.494 130.518 135.904 137.758 129.29 144.966C132.574 147.916 135.734 150.995 138.789 154.178L149.121 123.311ZM142.632 115.334C139.13 112.723 133.786 111.276 132.757 106.414L142.632 115.334ZM142.632 115.334C136.121 122.459 129.587 129.572 123.076 136.709L142.632 115.334ZM113.43 127.625C119.85 120.535 126.382 113.55 132.757 106.414L113.43 127.625ZM113.43 127.625C114.998 130.121 118.064 130.798 119.231 133.514C119.804 133.293 118.66 133.736 119.231 133.514C120.513 134.168 121.794 136.068 123.076 136.709L113.43 127.625ZM95.3502 147.379C101.37 140.79 107.388 134.202 113.43 127.625L95.3502 147.379ZM123.076 136.709C116.977 143.345 110.925 150.027 104.814 156.662L123.076 136.709ZM83.7242 185.653C93.3245 185.198 102.892 183.728 112.401 182.329C116.155 179.833 118.683 175.776 121.91 172.627L83.7242 185.653ZM83.7242 185.653C83.2552 184.008 83.1291 182.352 83.3691 180.673C84.216 174.061 85.0972 167.461 85.8755 160.848C86.1844 154.866 92.1696 151.811 95.3502 147.379L83.7242 185.653ZM121.91 172.627C127.552 166.493 133.159 160.324 138.789 154.178L121.91 172.627ZM121.91 172.627C118.969 169.326 115.801 166.225 112.288 163.542L121.91 172.627ZM138.789 154.178C135.734 150.995 132.576 147.916 129.292 144.966C123.616 151.158 117.964 157.361 112.288 163.542L138.789 154.178ZM104.814 156.662C102.824 152.475 99.7341 149 95.3502 147.379L104.814 156.662ZM104.814 156.662C102.88 158.831 100.672 160.802 99.0804 163.274C98.3145 165.688 98.2346 168.265 97.8903 170.773C100.786 170.481 102.802 171.122 105.698 170.773C107.608 168.685 110.388 165.629 112.288 163.542L104.814 156.662ZM83.221 202.409C82.157 198.188 85.0406 193.185 89.6063 193.372C114.404 193.197 139.213 193.372 164.022 193.279C166.837 193.185 170.156 193.442 171.827 196.136C173.944 198.969 172.947 202.911 170.808 205.43L83.221 202.409ZM83.221 202.409C84.8002 204.509 86.78 206.76 89.6409 206.573C114.049 206.77 138.457 206.538 162.867 206.678C165.567 206.76 168.268 206.363 170.808 205.43L83.221 202.409Z" fill="url(#paint8_linear)"/>
<path d="M172.82 111.113C171.526 107.964 168.712 105.924 166.377 103.615C162.555 100.116 158.984 96.3265 155.025 92.979C152.142 90.5544 147.553 90.7516 144.875 93.3879C140.663 97.5506 136.898 102.168 132.757 106.414M172.82 111.113C173.106 113.772 172.991 116.699 171.08 118.763C166.789 123.824 162.109 128.547 157.703 133.514M172.82 111.113L132.757 106.414M172.82 111.113L157.703 133.514M172.82 111.113L83.7242 185.653M157.703 133.514C157.257 132.64 155.942 131.765 155.496 130.891M157.703 133.514C151.386 140.395 145.105 147.298 138.789 154.178M157.703 133.514L149.121 123.311M157.703 133.514L138.789 154.178M155.496 130.891C154.546 130.949 156.445 130.832 155.496 130.891ZM155.496 130.891C154.398 128.115 150.905 125.689 149.121 123.311M149.121 123.311C151.958 120.209 154.796 117.106 157.553 113.935C155.402 111.393 152.977 109.095 150.344 107.078C147.689 109.76 145.161 112.536 142.632 115.334M149.121 123.311C142.494 130.518 135.904 137.758 129.29 144.966C132.574 147.916 135.734 150.995 138.789 154.178M149.121 123.311L142.632 115.334M149.121 123.311L138.789 154.178M142.632 115.334C139.13 112.723 133.786 111.276 132.757 106.414M142.632 115.334C136.121 122.459 129.587 129.572 123.076 136.709M142.632 115.334L132.757 106.414M142.632 115.334L123.076 136.709M132.757 106.414C126.382 113.55 119.85 120.535 113.43 127.625M132.757 106.414L113.43 127.625M113.43 127.625C114.998 130.121 118.064 130.798 119.231 133.514M113.43 127.625C107.388 134.202 101.37 140.79 95.3502 147.379M113.43 127.625L123.076 136.709M113.43 127.625L95.3502 147.379M123.076 136.709C121.794 136.068 120.513 134.168 119.231 133.514M123.076 136.709C116.977 143.345 110.925 150.027 104.814 156.662M123.076 136.709L104.814 156.662M119.231 133.514C118.66 133.736 119.804 133.293 119.231 133.514ZM83.7242 185.653C93.3245 185.198 102.892 183.728 112.401 182.329C116.155 179.833 118.683 175.776 121.91 172.627M83.7242 185.653C83.2552 184.008 83.1291 182.352 83.3691 180.673C84.216 174.061 85.0972 167.461 85.8755 160.848C86.1844 154.866 92.1696 151.811 95.3502 147.379M83.7242 185.653L121.91 172.627M83.7242 185.653L95.3502 147.379M121.91 172.627C127.552 166.493 133.159 160.324 138.789 154.178M121.91 172.627C118.969 169.326 115.801 166.225 112.288 163.542M121.91 172.627L138.789 154.178M121.91 172.627L112.288 163.542M138.789 154.178C135.734 150.995 132.576 147.916 129.292 144.966C123.616 151.158 117.964 157.361 112.288 163.542M138.789 154.178L112.288 163.542M95.3502 147.379C99.7341 149 102.824 152.475 104.814 156.662M95.3502 147.379L104.814 156.662M104.814 156.662C102.88 158.831 100.672 160.802 99.0804 163.274C98.3145 165.688 98.2346 168.265 97.8903 170.773C100.786 170.481 102.802 171.122 105.698 170.773C107.608 168.685 110.388 165.629 112.288 163.542M104.814 156.662L112.288 163.542M83.221 202.409C82.157 198.188 85.0406 193.185 89.6063 193.372C114.404 193.197 139.213 193.372 164.022 193.279C166.837 193.185 170.156 193.442 171.827 196.136C173.944 198.969 172.947 202.911 170.808 205.43M83.221 202.409C84.8002 204.509 86.78 206.76 89.6409 206.573C114.049 206.77 138.457 206.538 162.867 206.678C165.567 206.76 168.268 206.363 170.808 205.43M83.221 202.409L170.808 205.43" stroke="url(#paint9_linear)" stroke-width="4"/>
<defs>
<linearGradient id="paint0_linear" x1="34" y1="127.5" x2="221" y2="127.5" gradientUnits="userSpaceOnUse">
<stop stop-color="#02AA93"/>
<stop offset="1" stop-color="#67FF80"/>
</linearGradient>
<linearGradient id="paint1_linear" x1="83" y1="148.984" x2="173" y2="148.984" gradientUnits="userSpaceOnUse">
<stop stop-color="#02AA93"/>
<stop offset="1" stop-color="#67FF80"/>
</linearGradient>
<linearGradient id="paint2_linear" x1="83" y1="148.984" x2="173" y2="148.984" gradientUnits="userSpaceOnUse">
<stop stop-color="#02AA93"/>
<stop offset="1" stop-color="#67FF80"/>
</linearGradient>
<linearGradient id="paint3_linear" x1="83" y1="148.984" x2="173" y2="148.984" gradientUnits="userSpaceOnUse">
<stop stop-color="#02AA93"/>
<stop offset="1" stop-color="#67FF80"/>
</linearGradient>
<linearGradient id="paint4_linear" x1="83" y1="148.984" x2="173" y2="148.984" gradientUnits="userSpaceOnUse">
<stop stop-color="#02AA93"/>
<stop offset="1" stop-color="#67FF80"/>
</linearGradient>
<linearGradient id="paint5_linear" x1="83" y1="148.984" x2="173" y2="148.984" gradientUnits="userSpaceOnUse">
<stop stop-color="#02AA93"/>
<stop offset="1" stop-color="#67FF80"/>
</linearGradient>
<linearGradient id="paint6_linear" x1="83" y1="148.984" x2="173" y2="148.984" gradientUnits="userSpaceOnUse">
<stop stop-color="#02AA93"/>
<stop offset="1" stop-color="#67FF80"/>
</linearGradient>
<linearGradient id="paint7_linear" x1="83" y1="148.984" x2="173" y2="148.984" gradientUnits="userSpaceOnUse">
<stop stop-color="#02AA93"/>
<stop offset="1" stop-color="#67FF80"/>
</linearGradient>
<linearGradient id="paint8_linear" x1="83" y1="148.984" x2="173" y2="148.984" gradientUnits="userSpaceOnUse">
<stop stop-color="#02AA93"/>
<stop offset="1" stop-color="#67FF80"/>
</linearGradient>
<linearGradient id="paint9_linear" x1="83" y1="148.984" x2="173" y2="148.984" gradientUnits="userSpaceOnUse">
<stop stop-color="#02AA93"/>
<stop offset="1" stop-color="#67FF80"/>
</linearGradient>
</defs>
</svg>
