<svg width="256" height="256" viewBox="0 0 256 256" fill="none" xmlns="http://www.w3.org/2000/svg">
<path fill-rule="evenodd" clip-rule="evenodd" d="M220.141 59.4684C220.677 60.3181 221 61.4326 221 62.4373V68.1816V245.646C221 249.708 217.78 253 213.808 253H41.1923C37.2202 253 34 249.708 34 245.646V9.35352C34 5.29241 37.2202 2 41.1923 2H156.269C158.291 2 169.555 7.95733 171 9.35352L218.9 57.5C218.9 57.5006 219.032 57.7093 219.229 58.0219C219.474 58.4103 219.82 58.959 220.141 59.4684ZM168.606 32.3665C166.726 30.4443 163.462 31.7754 163.462 34.4642V57.8281C163.462 59.485 164.805 60.8281 166.462 60.8281H189.313C191.97 60.8281 193.316 57.6297 191.458 55.7304L168.606 32.3665ZM52 232.5C52 234.157 53.3431 235.5 55 235.5H200C201.657 235.5 203 234.157 203 232.5V82C203 80.3431 201.657 79 200 79H163.462C159.489 79 144.5 64.8892 144.5 60.8281V22.5C144.5 20.8431 143.157 19.5 141.5 19.5H55C53.3431 19.5 52 20.8431 52 22.5V232.5ZM145.858 88.1314C145.858 88.1315 145.858 88.1313 145.858 88.1314L145.855 88.1309C145.856 88.1311 145.857 88.1312 145.858 88.1314ZM145.858 88.1314C107.044 122.004 81.7472 131.151 71.054 133.079C69.6824 137.572 68.7564 142.261 68.3058 147.16C74.7357 146.216 90.1618 143.069 106.623 132.54C128.056 118.828 153.679 92.797 153.679 92.797C146.691 106.797 144.511 157.525 144.353 221.215C144.421 221.201 144.49 221.19 144.559 221.179C144.636 221.167 144.712 221.155 144.786 221.14C145.861 220.917 146.921 220.664 147.95 220.397C158.882 217.475 168.535 211.529 176.992 202.534C180.964 198.31 184.293 193.803 187 189.019C183.244 175.756 180.286 161.223 177.836 147.641C175.877 132.454 176.665 118.463 178.052 107.661C177.903 107.495 177.759 107.328 177.614 107.16C177.413 106.926 177.211 106.691 176.996 106.463C167.984 96.876 157.594 90.7891 145.858 88.1314ZM69.7592 171.098C68.6616 166.239 68.0864 161.15 68.0004 155.845L68 155.843C81.7235 155.89 129.41 190.851 139.443 221.967C139.273 221.986 139.104 222.007 138.934 222.027C138.242 222.109 137.549 222.191 136.844 222.245C136.546 222.267 136.243 222.29 135.905 222.312C134.606 222.383 133.228 222.426 131.834 222.426H131.426C130.358 222.426 129.263 222.389 128.113 222.324H128.059C127.988 222.32 127.919 222.313 127.849 222.306C127.785 222.299 127.72 222.293 127.655 222.289C114.798 192.636 87.7802 172.384 69.7592 171.098Z" fill="url(#paint0_linear_667_149)"/>
<path d="M171 9.35352L172.418 7.94294L172.404 7.92894L172.39 7.91522L171 9.35352ZM218.9 57.5L220.533 56.3451L220.436 56.2082L220.318 56.0894L218.9 57.5ZM145.858 88.1311L147.192 89.6215L150.738 86.4487L145.99 86.1354L145.858 88.1311ZM145.855 88.1309L145.987 86.1352L145.419 90.0828L145.855 88.1309ZM71.054 133.079L70.6991 131.11L69.4976 131.327L69.1411 132.495L71.054 133.079ZM68.3058 147.16L66.3142 146.977L66.0814 149.508L68.5963 149.139L68.3058 147.16ZM106.623 132.54L107.701 134.225V134.224L106.623 132.54ZM153.679 92.797L155.468 93.6902L152.254 91.394L153.679 92.797ZM144.353 221.215L142.353 221.21L142.347 223.649L144.74 223.177L144.353 221.215ZM144.786 221.14L145.189 223.099L145.192 223.098L144.786 221.14ZM147.95 220.397L148.452 222.333L148.459 222.331L148.466 222.329L147.95 220.397ZM187 189.019L188.741 190.004L189.152 189.277L188.924 188.474L187 189.019ZM177.836 147.641L175.852 147.897L175.859 147.946L175.868 147.996L177.836 147.641ZM178.052 107.661L180.036 107.915L180.153 107.004L179.537 106.322L178.052 107.661ZM176.996 106.463L175.539 107.833L175.54 107.834L176.996 106.463ZM68.0004 155.845L70.0001 155.812L69.9972 155.632L69.9621 155.455L68.0004 155.845ZM69.7592 171.098L67.8084 171.538L68.1356 172.987L69.6168 173.093L69.7592 171.098ZM68 155.843L68.0068 153.843L65.5624 153.834L66.0383 156.232L68 155.843ZM139.443 221.967L139.674 223.953L142.094 223.673L141.346 221.353L139.443 221.967ZM136.844 222.245L136.991 224.239H136.996L136.844 222.245ZM135.905 222.312L136.014 224.309L136.025 224.308H136.035L135.905 222.312ZM128.113 222.324L128.226 220.327L128.169 220.324H128.113V222.324ZM128.059 222.324L127.956 224.321L128.008 224.324H128.059V222.324ZM127.655 222.289L125.82 223.084L126.309 224.213L127.538 224.285L127.655 222.289ZM223 62.4373C223 61.0539 222.57 59.5696 221.833 58.4013L218.449 60.5354C218.784 61.0666 219 61.8113 219 62.4373H223ZM223 68.1816V62.4373H219V68.1816H223ZM223 245.646V68.1816H219V245.646H223ZM213.808 255C218.926 255 223 250.77 223 245.646H219C219 248.646 216.634 251 213.808 251V255ZM41.1923 255H213.808V251H41.1923V255ZM32 245.646C32 250.771 36.074 255 41.1923 255V251C38.3664 251 36 248.645 36 245.646H32ZM32 9.35352V245.646H36V9.35352H32ZM41.1923 0C36.0741 0 32 4.22987 32 9.35352H36C36 6.35495 38.3663 4 41.1923 4V0ZM156.269 0H41.1923V4H156.269V0ZM172.39 7.91522C172.062 7.59878 171.588 7.26467 171.135 6.96637C170.645 6.6436 170.046 6.27689 169.383 5.88905C168.054 5.11218 166.414 4.21875 164.762 3.373C163.113 2.52857 161.425 1.71767 160.004 1.11251C159.296 0.810859 158.627 0.548793 158.047 0.358545C157.54 0.191849 156.872 0 156.269 0V4C156.171 4 156.298 3.99432 156.799 4.15887C157.229 4.29986 157.783 4.51412 158.437 4.79279C159.742 5.34826 161.339 6.11395 162.939 6.93338C164.537 7.75148 166.11 8.60917 167.363 9.34198C167.991 9.70898 168.525 10.0367 168.935 10.307C169.14 10.4421 169.304 10.556 169.428 10.6477C169.561 10.7463 169.611 10.7921 169.61 10.7918L172.39 7.91522ZM220.318 56.0894L172.418 7.94294L169.582 10.7641L217.482 58.9106L220.318 56.0894ZM220.921 56.9555C220.822 56.7992 220.74 56.669 220.683 56.5776C220.654 56.5319 220.631 56.4959 220.616 56.4712C220.608 56.4589 220.602 56.4493 220.598 56.4426C220.596 56.4394 220.594 56.4365 220.592 56.4343C220.592 56.4333 220.591 56.4319 220.59 56.4304C220.59 56.4298 220.588 56.4281 220.587 56.426C220.587 56.4252 220.585 56.4225 220.583 56.419C220.582 56.4176 220.579 56.4135 220.576 56.4083C220.574 56.4056 220.569 56.3985 220.566 56.3942C220.561 56.3866 220.545 56.362 220.533 56.3451L217.267 58.6549C217.255 58.638 217.239 58.6135 217.234 58.6059C217.231 58.6015 217.226 58.5945 217.224 58.5917C217.221 58.5865 217.218 58.5825 217.217 58.5811C217.215 58.5777 217.214 58.5751 217.213 58.5744C217.212 58.5725 217.211 58.5711 217.211 58.571C217.21 58.5704 217.21 58.5703 217.211 58.571C217.211 58.5721 217.213 58.5738 217.215 58.5769C217.219 58.583 217.224 58.5922 217.232 58.6045C217.247 58.6289 217.27 58.6647 217.299 58.7104C217.356 58.8016 217.439 58.9321 217.537 59.0884L220.921 56.9555ZM221.833 58.4013C221.511 57.8923 221.166 57.3438 220.921 56.9555L217.537 59.0884C217.782 59.4768 218.128 60.0257 218.449 60.5354L221.833 58.4013ZM165.462 34.4642C165.462 33.5675 166.55 33.1246 167.176 33.7649L170.036 30.9681C166.902 27.7641 161.462 29.9833 161.462 34.4642H165.462ZM165.462 57.8281V34.4642H161.462V57.8281H165.462ZM166.462 58.8281C165.91 58.8281 165.462 58.3805 165.462 57.8281H161.462C161.462 60.5895 163.7 62.8281 166.462 62.8281V58.8281ZM189.313 58.8281H166.462V62.8281H189.313V58.8281ZM190.028 57.1289C190.647 57.7615 190.2 58.8281 189.313 58.8281V62.8281C193.74 62.8281 195.985 57.4978 192.888 54.3318L190.028 57.1289ZM167.176 33.7649L190.028 57.1289L192.888 54.3318L170.036 30.9681L167.176 33.7649ZM55 233.5C54.4476 233.5 54 233.052 54 232.5H50C50 235.262 52.2386 237.5 55 237.5V233.5ZM200 233.5H55V237.5H200V233.5ZM201 232.5C201 233.052 200.552 233.5 200 233.5V237.5C202.762 237.5 205 235.262 205 232.5H201ZM201 82V232.5H205V82H201ZM200 81C200.552 81 201 81.4476 201 82H205C205 79.2386 202.762 77 200 77V81ZM163.462 81H200V77H163.462V81ZM142.5 60.8281C142.5 61.8517 142.937 62.8816 143.391 63.7241C143.88 64.6301 144.552 65.61 145.323 66.6056C146.87 68.602 148.942 70.8219 151.113 72.8863C153.285 74.9515 155.606 76.9092 157.67 78.3657C158.699 79.0922 159.701 79.7206 160.614 80.1757C161.463 80.5986 162.48 81 163.462 81V77C163.491 77 163.414 77.0026 163.201 76.9346C162.998 76.8701 162.731 76.7614 162.399 76.5957C161.732 76.2633 160.911 75.7577 159.976 75.0978C158.112 73.7816 155.941 71.9577 153.869 69.9876C151.796 68.0166 149.873 65.9475 148.485 64.1559C147.789 63.2575 147.259 62.4687 146.912 61.8257C146.531 61.1192 146.5 60.8197 146.5 60.8281H142.5ZM142.5 22.5V60.8281H146.5V22.5H142.5ZM141.5 21.5C142.052 21.5 142.5 21.9476 142.5 22.5H146.5C146.5 19.7386 144.262 17.5 141.5 17.5V21.5ZM55 21.5H141.5V17.5H55V21.5ZM54 22.5C54 21.9477 54.4477 21.5 55 21.5V17.5C52.2385 17.5 50 19.7385 50 22.5H54ZM54 232.5V22.5H50V232.5H54ZM144.524 86.6406C144.538 86.6286 144.549 86.619 144.556 86.6133C144.559 86.6104 144.562 86.6081 144.563 86.6067C144.565 86.6054 144.566 86.6043 144.566 86.6045C144.566 86.6046 144.565 86.6049 144.565 86.6051C144.565 86.6054 144.564 86.6059 144.563 86.6067C144.562 86.6081 144.559 86.6106 144.555 86.6135C144.549 86.6193 144.537 86.6285 144.524 86.6406L147.191 89.6219C147.178 89.6339 147.167 89.6435 147.16 89.6492C147.157 89.6521 147.154 89.6544 147.152 89.6558C147.151 89.6571 147.149 89.6582 147.15 89.658C147.15 89.6582 147.15 89.6579 147.15 89.658C147.151 89.6577 147.151 89.6566 147.152 89.6558C147.154 89.6544 147.157 89.6521 147.16 89.6492C147.167 89.6434 147.178 89.6336 147.192 89.6215L144.524 86.6406ZM145.723 90.1265L145.726 90.1267L145.99 86.1354L145.987 86.1352L145.723 90.1265ZM146.293 86.1795C146.298 86.1805 146.301 86.1813 146.3 86.1811C146.3 86.181 146.299 86.1808 146.298 86.1804C146.296 86.1801 146.294 86.1795 146.291 86.1789L145.419 90.0828C145.415 90.0818 145.411 90.081 145.412 90.0812C145.412 90.0813 145.414 90.0815 145.415 90.0819C145.417 90.0822 145.419 90.0828 145.422 90.0834L146.293 86.1795ZM144.543 86.6246C105.894 120.353 80.9183 129.268 70.6991 131.11L71.4089 135.047C82.5761 133.034 108.194 123.655 147.173 89.6383L144.543 86.6246ZM69.1411 132.495C67.7291 137.12 66.7771 141.944 66.3142 146.977L70.2974 147.343C70.7357 142.578 71.6357 138.023 72.9669 133.663L69.1411 132.495ZM68.5963 149.139C75.1945 148.17 90.921 144.957 107.701 134.225L105.545 130.855C89.4026 141.18 74.277 144.262 68.0153 145.181L68.5963 149.139ZM107.701 134.224C118.561 127.277 130.424 117.251 139.53 109.009C144.093 104.88 147.983 101.181 150.733 98.5142C152.108 97.1805 153.199 96.1041 153.947 95.3602C154.321 94.9882 154.609 94.6993 154.804 94.5028C154.902 94.4046 154.976 94.3294 155.027 94.2786C155.052 94.2531 155.071 94.2338 155.084 94.2206C155.09 94.214 155.095 94.209 155.099 94.2056C155.101 94.2039 155.102 94.2025 155.103 94.2016C155.103 94.2011 155.104 94.2007 155.104 94.2005C155.104 94.2002 155.104 94.2 153.679 92.797C152.254 91.394 152.254 91.3939 152.254 91.394C152.253 91.3942 152.253 91.3944 152.253 91.3947C152.252 91.3954 152.251 91.3964 152.25 91.3978C152.247 91.4007 152.243 91.4051 152.237 91.4111C152.225 91.4231 152.207 91.4413 152.183 91.4655C152.135 91.514 152.063 91.5867 151.968 91.6825C151.777 91.874 151.494 92.1577 151.126 92.5243C150.389 93.2575 149.31 94.3219 147.948 95.6429C145.224 98.2851 141.368 101.951 136.846 106.043C127.783 114.246 116.118 124.091 105.545 130.855L107.701 134.224ZM151.89 91.9037C149.993 95.7026 148.512 101.765 147.319 109.507C146.117 117.309 145.18 127.018 144.459 138.244C143.017 160.699 142.432 189.352 142.353 221.21L146.353 221.22C146.432 189.388 147.016 160.832 148.451 138.5C149.168 127.333 150.096 117.754 151.273 110.117C152.459 102.419 153.871 96.8912 155.468 93.6902L151.89 91.9037ZM144.74 223.177C144.765 223.172 144.798 223.166 144.874 223.154L144.244 219.204C144.181 219.214 144.076 219.231 143.966 219.252L144.74 223.177ZM144.874 223.154C144.942 223.144 145.063 223.125 145.189 223.099L144.383 219.181C144.361 219.185 144.329 219.191 144.244 219.204L144.874 223.154ZM145.192 223.098C146.305 222.867 147.398 222.606 148.452 222.333L147.448 218.461C146.444 218.721 145.417 218.966 144.38 219.181L145.192 223.098ZM148.466 222.329C159.792 219.302 169.762 213.143 178.449 203.904L175.535 201.164C167.308 209.914 157.972 215.648 147.434 218.465L148.466 222.329ZM178.449 203.904C182.526 199.568 185.952 194.932 188.741 190.004L185.259 188.034C182.634 192.673 179.402 197.052 175.535 201.164L178.449 203.904ZM188.924 188.474C185.195 175.304 182.25 160.845 179.804 147.286L175.868 147.996C178.322 161.601 181.293 176.208 185.076 189.564L188.924 188.474ZM179.82 147.385C177.888 132.414 178.664 118.602 180.036 107.915L176.068 107.406C174.666 118.323 173.866 132.493 175.852 147.897L179.82 147.385ZM179.537 106.322C179.407 106.176 179.277 106.026 179.13 105.856L176.098 108.464C176.24 108.629 176.399 108.815 176.567 109L179.537 106.322ZM179.13 105.856C178.933 105.627 178.703 105.358 178.452 105.092L175.54 107.834C175.719 108.024 175.892 108.225 176.098 108.464L179.13 105.856ZM178.453 105.093C169.191 95.2406 158.456 88.9339 146.299 86.1808L145.416 90.082C156.731 92.6444 166.776 98.5113 175.539 107.833L178.453 105.093ZM66.0007 155.877C66.0887 161.306 66.6776 166.533 67.8084 171.538L71.71 170.657C70.6456 165.945 70.0841 160.994 70.0001 155.812L66.0007 155.877ZM66.0383 156.232L66.0387 156.234L69.9621 155.455L69.9617 155.453L66.0383 156.232ZM141.346 221.353C136.155 205.253 121.374 188.435 106.399 175.729C98.8763 169.345 91.2167 163.925 84.5386 160.085C81.2005 158.166 78.0789 156.624 75.3207 155.556C72.5986 154.502 70.084 153.85 68.0068 153.843L67.9932 157.843C69.3469 157.847 71.3245 158.298 73.8762 159.286C76.3918 160.261 79.3256 161.702 82.5447 163.553C88.9811 167.253 96.4434 172.527 103.811 178.779C118.619 191.344 132.698 207.564 137.539 222.581L141.346 221.353ZM139.169 224.013C139.34 223.993 139.507 223.973 139.674 223.953L139.212 219.98C139.04 220 138.868 220.021 138.698 220.041L139.169 224.013ZM136.996 224.239C137.75 224.181 138.484 224.094 139.169 224.013L138.698 220.041C138 220.123 137.348 220.2 136.692 220.251L136.996 224.239ZM136.035 224.308C136.384 224.285 136.698 224.261 136.991 224.239L136.697 220.25C136.394 220.273 136.102 220.295 135.775 220.316L136.035 224.308ZM131.834 224.426C133.268 224.426 134.683 224.382 136.014 224.309L135.796 220.315C134.529 220.384 133.188 220.426 131.834 220.426V224.426ZM131.426 224.426H131.834V220.426H131.426V224.426ZM128 224.321C129.178 224.387 130.312 224.426 131.426 224.426V220.426C130.404 220.426 129.348 220.39 128.226 220.327L128 224.321ZM128.059 224.324H128.113V220.324H128.059V224.324ZM127.645 224.295C127.707 224.302 127.826 224.314 127.956 224.321L128.162 220.326C128.15 220.326 128.131 220.324 128.054 220.316L127.645 224.295ZM127.538 224.285C127.552 224.286 127.574 224.288 127.645 224.295L128.054 220.316C127.996 220.31 127.889 220.299 127.772 220.292L127.538 224.285ZM69.6168 173.093C78.0441 173.694 88.9133 178.8 99.356 187.586C109.753 196.334 119.524 208.564 125.82 223.084L129.49 221.493C122.929 206.36 112.763 193.638 101.931 184.525C91.1455 175.451 79.4953 169.787 69.9016 169.103L69.6168 173.093Z" fill="url(#paint1_linear_667_149)"/>
<defs>
<linearGradient id="paint0_linear_667_149" x1="212.528" y1="6.31398" x2="-10.4989" y2="180.994" gradientUnits="userSpaceOnUse">
<stop stop-color="#D80081"/>
<stop offset="0.213542" stop-color="#FF003D"/>
<stop offset="0.53125" stop-color="#DF0000"/>
<stop offset="0.8125" stop-color="#FF0000"/>
<stop offset="1" stop-color="#FFB243"/>
</linearGradient>
<linearGradient id="paint1_linear_667_149" x1="214.347" y1="4.38273" x2="-12.5221" y2="183.026" gradientUnits="userSpaceOnUse">
<stop stop-color="#D80081"/>
<stop offset="0.213542" stop-color="#FF003D"/>
<stop offset="0.53125" stop-color="#DF0000"/>
<stop offset="0.8125" stop-color="#FF0000"/>
<stop offset="1" stop-color="#FFB243"/>
</linearGradient>
</defs>
</svg>
