<svg width="256" height="256" viewBox="0 0 256 256" fill="none" xmlns="http://www.w3.org/2000/svg">
<path d="M221 62.4373C221 61.4326 220.677 60.3181 220.141 59.4684C219.561 58.549 218.901 57.5014 218.9 57.5L171 9.35352C169.555 7.95733 158.291 2 156.269 2H41.1923C37.2202 2 34 5.29241 34 9.35352V245.646C34 249.708 37.2202 253 41.1923 253H213.808C217.78 253 221 249.708 221 245.646V68.1816C221 66.4864 221 65.7083 221 62.4373ZM163.462 34.4642C163.462 31.7754 166.726 30.4443 168.606 32.3665L191.458 55.7304C193.316 57.6297 191.97 60.8281 189.313 60.8281H166.462C164.805 60.8281 163.462 59.485 163.462 57.8281V34.4642ZM55 235.5C53.3431 235.5 52 234.157 52 232.5V22.5C52 20.8431 53.3431 19.5 55 19.5H141.5C143.157 19.5 144.5 20.8431 144.5 22.5V60.8281C144.5 64.8892 159.489 79 163.462 79H200C201.657 79 203 80.3431 203 82V232.5C203 234.157 201.657 235.5 200 235.5H55Z" fill="url(#paint0_linear)"/>
<path opacity="0.75" d="M128 90.2295C97.625 90.2295 73 97.9152 73 107.398V164.626C73.02 167.08 74.725 169.504 78 171.735C78.0195 171.746 78.039 171.757 78.0586 171.768C78.7796 172.261 79.5748 172.742 80.4414 173.21C80.4933 173.236 80.5453 173.263 80.5977 173.289C81.4496 173.745 82.3685 174.189 83.3516 174.619C83.4583 174.664 83.5657 174.708 83.6738 174.753C84.6036 175.15 85.5876 175.534 86.623 175.904C86.8421 175.983 87.0635 176.061 87.2871 176.139C88.3244 176.496 89.4093 176.839 90.539 177.167C90.7041 177.216 90.8701 177.264 91.0371 177.312C92.2763 177.666 93.5667 178.002 94.9043 178.318C94.992 178.337 95.0799 178.356 95.1679 178.375C96.4836 178.68 97.8423 178.967 99.2402 179.235C99.4703 179.28 99.7014 179.325 99.9336 179.369C101.203 179.605 102.503 179.825 103.83 180.029C104.196 180.086 104.564 180.142 104.934 180.196C106.142 180.367 107.37 180.523 108.615 180.666C109.223 180.74 109.835 180.811 110.451 180.878C111.342 180.971 112.241 181.057 113.146 181.135C114.126 181.222 115.112 181.3 116.105 181.37C116.919 181.424 117.736 181.473 118.557 181.515C119.513 181.568 120.474 181.613 121.437 181.65C122.207 181.681 122.979 181.707 123.752 181.728C125.165 181.767 126.582 181.789 128 181.794C129.601 181.79 131.201 181.764 132.795 181.716C133.487 181.694 134.177 181.668 134.865 181.638C136.065 181.594 137.261 181.538 138.449 181.47C139.027 181.432 139.604 181.391 140.178 181.347C141.366 181.266 142.545 181.173 143.713 181.068C144.246 181.014 144.777 180.959 145.305 180.9C146.601 180.77 147.881 180.624 149.143 180.464C149.443 180.424 149.743 180.383 150.041 180.341C151.415 180.154 152.764 179.949 154.084 179.727C154.441 179.661 154.796 179.594 155.148 179.525C156.302 179.326 157.432 179.113 158.537 178.888C159.064 178.776 159.585 178.66 160.1 178.542C161.118 178.314 162.112 178.075 163.078 177.826C163.407 177.738 163.733 177.649 164.055 177.558C165.2 177.252 166.304 176.931 167.365 176.597C167.388 176.589 167.411 176.582 167.434 176.575C167.473 176.56 167.512 176.545 167.551 176.53C168.783 176.131 169.953 175.713 171.057 175.278C172.192 174.829 173.254 174.363 174.24 173.881C174.244 173.881 174.247 173.881 174.25 173.881C174.26 173.877 174.27 173.873 174.28 173.869C175.247 173.399 176.14 172.914 176.956 172.416C176.965 172.409 176.975 172.402 176.985 172.394C177.338 172.177 177.677 171.957 178 171.735C181.275 169.504 182.98 167.08 183 164.626V107.398C183 97.9152 158.375 90.2295 128 90.2295V90.2295ZM128 181.794H123V198.963H128V204.686H88V198.963H73V216.131H88V210.408H168V216.131H183V198.963H168V204.686H133V198.963H138V181.794H128ZM128 95.9523C155.615 95.9523 178 101.074 178 107.398C178 113.722 155.615 118.844 128 118.844C100.385 118.844 78 113.722 78 107.398C78 101.074 100.385 95.9523 128 95.9523ZM78 114.506C86.92 120.623 106.46 124.555 128 124.566C149.54 124.561 169.08 120.629 178 114.506V136.012C178 142.336 155.615 147.458 128 147.458C100.385 147.458 78 142.336 78 136.012V114.506ZM78 143.12C86.92 149.237 106.46 153.169 128 153.18C149.54 153.175 169.08 149.243 178 143.12V164.626C178 167.661 172.732 170.573 163.355 172.719C153.979 174.866 141.261 176.072 128 176.072C114.739 176.072 102.021 174.866 92.6447 172.719C83.2678 170.573 78 167.661 78 164.626V153.18V143.12ZM128 187.517H133V193.24H128V187.517ZM78 204.686H83V210.408H78V204.686ZM173 204.686H178V210.408H173V204.686Z" fill="url(#paint1_linear)" stroke="url(#paint2_linear)" stroke-width="6" stroke-linecap="round"/>
<defs>
<linearGradient id="paint0_linear" x1="34.0274" y1="123.781" x2="221.031" y2="123.781" gradientUnits="userSpaceOnUse">
<stop stop-color="#A93AFF"/>
<stop offset="1" stop-color="#FF81FF"/>
</linearGradient>
<linearGradient id="paint1_linear" x1="73.0161" y1="151.315" x2="183.018" y2="151.315" gradientUnits="userSpaceOnUse">
<stop stop-color="#A93AFF"/>
<stop offset="1" stop-color="#FF81FF"/>
</linearGradient>
<linearGradient id="paint2_linear" x1="73.0161" y1="151.315" x2="183.018" y2="151.315" gradientUnits="userSpaceOnUse">
<stop stop-color="#A93AFF"/>
<stop offset="1" stop-color="#FF81FF"/>
</linearGradient>
</defs>
</svg>
