<svg width="256" height="256" viewBox="0 0 256 256" fill="none" xmlns="http://www.w3.org/2000/svg">
<path fill-rule="evenodd" clip-rule="evenodd" d="M28 24C28 12.9543 37.7329 4 49.7391 4H206.261C218.267 4 228 12.9543 228 24V232C228 243.046 218.267 252 206.261 252H49.7391C37.7329 252 28 243.046 28 232V24ZM206.261 34C206.261 28.4772 201.395 24 195.391 24H60.6087C54.6057 24 49.7391 28.4772 49.7391 34V222C49.7391 227.523 54.6055 232 60.6087 232H195.391C201.395 232 206.261 227.523 206.261 222V34Z" fill="url(#paint0_linear)"/>
<path fill-rule="evenodd" clip-rule="evenodd" d="M127.59 56.409C109.56 56.409 92.2342 63.9115 79.4344 77.3209C79.4312 77.3243 79.4279 77.3277 79.4247 77.331C66.6255 90.745 59.409 108.967 59.409 128C59.409 147.028 66.6225 165.247 79.4165 178.66C79.4225 178.667 79.4284 178.672 79.4344 178.679C92.2342 192.088 109.56 199.59 127.59 199.59C145.62 199.59 162.947 192.088 175.747 178.679C188.553 165.263 195.772 147.036 195.772 128C195.772 108.963 188.553 90.7358 175.747 77.3209C162.947 63.9115 145.62 56.409 127.59 56.409ZM177.028 73.7408C177.025 73.7447 177.019 73.7445 177.014 73.7407C163.714 60.4435 146.018 53 127.59 53C109.162 53 91.467 60.4435 78.1667 73.7406C78.1628 73.7445 78.1565 73.7447 78.1526 73.7408C78.1485 73.737 78.1422 73.7372 78.1384 73.7412L75.7983 76.1924C75.7945 76.1965 75.7946 76.2029 75.7986 76.2067C75.8025 76.2105 75.8028 76.2169 75.7991 76.2209C63.1055 90.1549 56 108.694 56 128C56 147.891 63.5426 166.968 76.9684 181.033C90.394 195.097 108.604 203 127.59 203C146.578 203 164.787 195.098 178.213 181.033C191.639 166.968 199.182 147.891 199.182 128C199.182 108.694 192.077 90.1549 179.382 76.2209C179.378 76.2168 179.378 76.2105 179.383 76.2067C179.387 76.2029 179.387 76.1965 179.383 76.1924L177.043 73.7412C177.038 73.7372 177.033 73.737 177.028 73.7408ZM80.8302 79.242C93.2038 66.2795 110.02 58.966 127.59 58.966C144.599 58.966 160.902 65.8193 173.151 78.0163C173.155 78.0205 173.162 78.0206 173.166 78.0164C173.171 78.0123 173.178 78.0125 173.181 78.0168L175.52 80.4671C175.525 80.4715 175.525 80.4783 175.52 80.4824C175.515 80.4866 175.515 80.4933 175.52 80.4977C187.154 93.3209 193.641 110.324 193.641 128C193.641 146.26 186.719 163.8 174.351 176.758C161.977 189.72 145.161 197.033 127.59 197.033C110.02 197.033 93.2038 189.72 80.8302 176.758C68.4619 163.8 61.5397 146.26 61.5397 128C61.5397 109.74 68.4619 92.1995 80.8302 79.242ZM83.2962 81.5959C71.5485 93.9033 64.9489 110.595 64.9489 128C64.9489 145.405 71.5485 162.096 83.2962 174.404C95.044 186.711 110.977 193.625 127.59 193.625C144.203 193.625 160.137 186.711 171.885 174.404C183.633 162.096 190.233 145.405 190.233 128C190.233 110.647 183.672 94.0037 171.99 81.7071C171.956 81.67 171.92 81.6329 171.885 81.5959C171.847 81.5568 171.81 81.5175 171.772 81.4784C160.035 69.245 144.152 62.375 127.59 62.375C110.977 62.375 95.044 69.289 83.2962 81.5959Z" fill="url(#paint1_linear)"/>
<path d="M175.747 77.3209C188.553 90.7358 195.772 108.963 195.772 128C195.772 147.036 188.553 165.263 175.747 178.679C162.947 192.088 145.62 199.59 127.59 199.59C109.56 199.59 92.2342 192.088 79.4344 178.679C79.4284 178.672 79.4225 178.667 79.4165 178.66C66.6225 165.247 59.409 147.028 59.409 128C59.409 108.967 66.6255 90.745 79.4247 77.331C79.4279 77.3277 79.4312 77.3243 79.4344 77.3209C92.2342 63.9115 109.56 56.409 127.59 56.409C145.62 56.409 162.947 63.9115 175.747 77.3209ZM175.747 77.3209L176.98 76.144M174.351 176.758C186.719 163.8 193.641 146.26 193.641 128C193.641 110.324 187.154 93.3209 175.52 80.4977C175.515 80.4933 175.515 80.4866 175.52 80.4824C175.525 80.4783 175.525 80.4715 175.52 80.4671L173.181 78.0168C173.178 78.0125 173.171 78.0123 173.166 78.0164C173.162 78.0206 173.155 78.0205 173.151 78.0163C160.902 65.8193 144.599 58.966 127.59 58.966C110.02 58.966 93.2038 66.2795 80.8302 79.242C68.4619 92.1995 61.5397 109.74 61.5397 128C61.5397 146.26 68.4619 163.8 80.8302 176.758M174.351 176.758L173.118 175.581M174.351 176.758C161.977 189.72 145.161 197.033 127.59 197.033C110.02 197.033 93.2038 189.72 80.8302 176.758M80.8302 176.758L82.0632 175.581M127.59 53C146.018 53 163.714 60.4435 177.014 73.7407C177.019 73.7445 177.025 73.7447 177.028 73.7408C177.033 73.737 177.038 73.7372 177.043 73.7412L179.383 76.1924C179.387 76.1965 179.387 76.2029 179.383 76.2067C179.378 76.2105 179.378 76.2168 179.382 76.2209C192.077 90.1549 199.182 108.694 199.182 128C199.182 147.891 191.639 166.968 178.213 181.033C164.787 195.098 146.578 203 127.59 203C108.604 203 90.394 195.097 76.9684 181.033C63.5426 166.968 56 147.891 56 128C56 108.694 63.1055 90.1549 75.7991 76.2209C75.8028 76.2169 75.8025 76.2105 75.7986 76.2067C75.7946 76.2029 75.7945 76.1965 75.7983 76.1924L78.1384 73.7412C78.1422 73.7372 78.1485 73.737 78.1526 73.7408C78.1565 73.7447 78.1628 73.7445 78.1667 73.7406C91.467 60.4435 109.162 53 127.59 53ZM64.9489 128C64.9489 110.595 71.5485 93.9033 83.2962 81.5959C95.044 69.289 110.977 62.375 127.59 62.375C144.152 62.375 160.035 69.245 171.772 81.4784C171.81 81.5175 171.847 81.5568 171.885 81.5959C171.92 81.6329 171.956 81.67 171.99 81.7071C183.672 94.0037 190.233 110.647 190.233 128C190.233 145.405 183.633 162.096 171.885 174.404C160.137 186.711 144.203 193.625 127.59 193.625C110.977 193.625 95.044 186.711 83.2962 174.404C71.5485 162.096 64.9489 145.405 64.9489 128Z" stroke="url(#paint2_linear)" stroke-width="7" stroke-linecap="round" stroke-linejoin="round"/>
<path fill-rule="evenodd" clip-rule="evenodd" d="M129.293 80.2734H129.297C141.502 80.2738 153.208 85.3021 161.839 94.2525C170.068 102.786 174.859 114.219 175.287 126.235C175.322 127.2 174.548 128 173.584 128H167.783C166.87 128 166.117 127.28 166.08 126.366C165.687 116.833 161.862 107.776 155.33 101.001C148.425 93.8414 139.061 89.8189 129.296 89.8189C129.295 89.8189 129.296 89.8189 129.296 89.8189L129.293 80.2734ZM129.296 89.8189C120.99 89.8419 112.95 92.7758 106.474 98.1169C105.787 98.6834 104.78 98.6257 104.163 97.9853L99.9869 93.6544C99.305 92.9479 99.3604 91.8135 100.106 91.1757C108.311 84.1597 118.624 80.2948 129.293 80.2734L129.296 89.8189ZM158.954 99.8753C158.947 99.8822 158.947 99.8926 158.953 99.9007C164.76 106.451 168.362 114.726 169.286 123.49C169.352 124.112 169.87 124.592 170.494 124.592C171.19 124.592 171.741 124 171.67 123.306C170.64 113.251 166.326 103.823 159.396 96.6319C159.393 96.6272 159.388 96.6226 159.385 96.6192C151.383 88.3212 140.558 83.6834 129.299 83.6826C120.531 83.7004 112.01 86.5304 104.883 91.7401C104.255 92.1992 104.193 93.105 104.733 93.665C105.195 94.1444 105.942 94.1997 106.483 93.8119C113.147 89.0394 121.091 86.432 129.287 86.4098H129.291H129.296C139.437 86.4098 149.162 90.367 156.562 97.4211C156.569 97.428 156.581 97.428 156.588 97.4211C156.595 97.4142 156.606 97.4142 156.613 97.4211L157.784 98.6361C157.787 98.6372 157.788 98.6395 157.79 98.6419L158.954 99.8499C158.961 99.8569 158.961 99.8684 158.954 99.8753ZM86.6241 110.275C87.0756 109.116 88.5761 108.815 89.4394 109.711L93.9513 114.39C94.3864 114.842 94.5387 115.495 94.3478 116.093C93.2854 119.416 92.6689 122.875 92.5153 126.371C92.4753 127.283 91.7247 128 90.8124 128H85.0132C84.0458 128 83.2723 127.196 83.3099 126.23C83.5231 120.752 84.6448 115.354 86.6241 110.275ZM90.3086 115.524C89.6689 114.86 88.5568 115.12 88.3132 116.01C87.6594 118.395 87.1989 120.836 86.9375 123.305C86.8641 123.999 87.4145 124.592 88.1111 124.592C88.7332 124.592 89.2494 124.114 89.3163 123.496C89.5636 121.204 89.9951 118.936 90.6066 116.716C90.7229 116.293 90.6127 115.839 90.3086 115.524Z" fill="url(#paint3_linear)"/>
<path d="M129.293 80.2734H129.297C141.502 80.2738 153.208 85.3021 161.839 94.2525C170.068 102.786 174.859 114.219 175.287 126.235C175.322 127.2 174.548 128 173.584 128H167.783C166.87 128 166.117 127.28 166.08 126.366C165.687 116.833 161.862 107.776 155.33 101.001C148.425 93.8414 139.061 89.8189 129.296 89.8189L129.293 80.2734ZM129.293 80.2734L129.296 89.8189L129.293 80.2734ZM129.293 80.2734C118.624 80.2948 108.311 84.1597 100.106 91.1757C99.3604 91.8135 99.305 92.9479 99.9869 93.6544L104.163 97.9853C104.78 98.6257 105.787 98.6834 106.474 98.1169C112.95 92.7758 120.99 89.8419 129.296 89.8189L129.293 80.2734ZM129.296 89.8189C129.296 89.8189 129.295 89.8189 129.296 89.8189V89.8189ZM159.396 96.6319C166.326 103.823 170.64 113.251 171.67 123.306C171.741 124 171.19 124.592 170.494 124.592C169.87 124.592 169.352 124.112 169.286 123.49C168.362 114.726 164.76 106.451 158.953 99.9007C158.947 99.8926 158.947 99.8822 158.954 99.8753C158.961 99.8684 158.961 99.8569 158.954 99.8499L157.79 98.6419C157.788 98.6395 157.787 98.6372 157.784 98.6361L156.613 97.4211C156.606 97.4142 156.595 97.4142 156.588 97.4211C156.581 97.428 156.569 97.428 156.562 97.4211C149.162 90.367 139.437 86.4098 129.296 86.4098H129.291H129.287C121.091 86.432 113.147 89.0394 106.483 93.8119C105.942 94.1997 105.195 94.1444 104.733 93.665C104.193 93.105 104.255 92.1992 104.883 91.7401C112.01 86.5304 120.531 83.7004 129.299 83.6826C140.558 83.6834 151.383 88.3212 159.385 96.6192C159.388 96.6226 159.393 96.6272 159.396 96.6319ZM94.3478 116.093C94.5387 115.495 94.3864 114.842 93.9513 114.39L89.4394 109.711C88.5761 108.815 87.0756 109.116 86.6241 110.275C84.6448 115.354 83.5231 120.752 83.3099 126.23C83.2723 127.196 84.0458 128 85.0132 128H90.8124C91.7247 128 92.4753 127.283 92.5153 126.371C92.6689 122.875 93.2854 119.416 94.3478 116.093ZM90.6066 116.716C89.9951 118.936 89.5636 121.204 89.3163 123.496C89.2494 124.114 88.7332 124.592 88.1111 124.592C87.4145 124.592 86.8641 123.999 86.9375 123.305C87.1989 120.836 87.6594 118.395 88.3132 116.01C88.5568 115.12 89.6689 114.86 90.3086 115.524C90.6127 115.839 90.7229 116.293 90.6066 116.716Z" stroke="url(#paint4_linear)" stroke-width="7" stroke-linecap="round" stroke-linejoin="round"/>
<path fill-rule="evenodd" clip-rule="evenodd" d="M133.333 151.825C133.842 146.01 125.728 144.069 123.361 149.406C123.216 149.731 123.02 150.037 122.782 150.302C121.868 151.321 121.242 152.538 120.951 153.835L120.878 154.274C120.878 154.274 120.878 154.273 120.878 154.274C120.254 158.07 122.42 161.204 125.359 161.926C128.238 162.632 131.61 160.963 133.017 157.524C133.017 157.522 133.018 157.521 133.018 157.518C133.018 157.517 133.018 157.516 133.018 157.514L133.38 156.414C133.66 155.219 133.664 154.007 133.407 152.886C133.327 152.538 133.302 152.181 133.333 151.825ZM136.398 111.614C136.791 110.726 137.768 110.254 138.708 110.497C139.647 110.739 140.273 111.625 140.189 112.591L136.888 150.308C136.783 151.51 136.916 152.718 136.986 153.924C137.051 155.041 136.946 156.174 136.678 157.281L136.662 157.348L136.439 158.023C136.431 158.048 136.426 158.073 136.426 158.1C136.426 158.129 136.422 158.158 136.411 158.185L136.321 158.43C134.46 163.476 129.388 166.425 124.545 165.238C119.682 164.041 116.635 159.066 117.515 153.719L117.603 153.191L117.612 153.149C118.026 151.253 118.931 149.49 120.244 148.026L136.398 111.614Z" fill="url(#paint5_linear)"/>
<path d="M120.878 154.274L120.951 153.835C121.242 152.538 121.868 151.321 122.782 150.302C123.02 150.037 123.216 149.731 123.361 149.406C125.728 144.069 133.842 146.01 133.333 151.825C133.302 152.181 133.327 152.538 133.407 152.886C133.664 154.007 133.66 155.219 133.38 156.414L133.018 157.514C133.018 157.516 133.018 157.517 133.018 157.518C133.018 157.521 133.017 157.522 133.017 157.524C131.61 160.963 128.238 162.632 125.359 161.926C122.42 161.204 120.254 158.07 120.878 154.274ZM120.878 154.274C120.878 154.273 120.878 154.274 120.878 154.274V154.274ZM120.244 148.026C118.931 149.49 118.026 151.253 117.612 153.149L117.603 153.191L117.515 153.719C116.635 159.066 119.682 164.041 124.545 165.238C129.388 166.425 134.46 163.476 136.321 158.43L136.411 158.185C136.422 158.158 136.426 158.129 136.426 158.1C136.426 158.073 136.431 158.048 136.439 158.023L136.662 157.348L136.678 157.281C136.946 156.174 137.051 155.041 136.986 153.924C136.916 152.718 136.783 151.51 136.888 150.308L140.189 112.591C140.273 111.625 139.647 110.739 138.708 110.497C137.768 110.254 136.791 110.726 136.398 111.614L120.244 148.026Z" stroke="url(#paint6_linear)" stroke-width="5" stroke-linecap="round" stroke-linejoin="round"/>
<defs>
<linearGradient id="paint0_linear" x1="227.408" y1="5.5722" x2="-12.621" y2="197.532" gradientUnits="userSpaceOnUse">
<stop stop-color="#FE7970"/>
<stop offset="1" stop-color="#DC3282"/>
</linearGradient>
<linearGradient id="paint1_linear" x1="198.757" y1="53.9508" x2="50.1628" y2="194.61" gradientUnits="userSpaceOnUse">
<stop stop-color="#FE7970"/>
<stop offset="1" stop-color="#DC3282"/>
</linearGradient>
<linearGradient id="paint2_linear" x1="127.59" y1="203" x2="127.59" y2="53" gradientUnits="userSpaceOnUse">
<stop stop-color="#FD3A84"/>
<stop offset="1" stop-color="#FFA68D"/>
</linearGradient>
<linearGradient id="paint3_linear" x1="175.046" y1="80.5762" x2="136.16" y2="154.946" gradientUnits="userSpaceOnUse">
<stop stop-color="#FE7970"/>
<stop offset="1" stop-color="#DC3282"/>
</linearGradient>
<linearGradient id="paint4_linear" x1="129.296" y1="128" x2="129.296" y2="80.2734" gradientUnits="userSpaceOnUse">
<stop stop-color="#FD3A84"/>
<stop offset="1" stop-color="#FFA68D"/>
</linearGradient>
<linearGradient id="paint5_linear" x1="128.85" y1="165.499" x2="128.85" y2="110.077" gradientUnits="userSpaceOnUse">
<stop stop-color="#FD3A84"/>
<stop offset="1" stop-color="#FFA68D"/>
</linearGradient>
<linearGradient id="paint6_linear" x1="128.85" y1="165.499" x2="128.85" y2="110.077" gradientUnits="userSpaceOnUse">
<stop stop-color="#FD3A84"/>
<stop offset="1" stop-color="#FFA68D"/>
</linearGradient>
</defs>
</svg>
