<svg width="256" height="256" viewBox="0 0 256 256" fill="none" xmlns="http://www.w3.org/2000/svg">
<path fill-rule="evenodd" clip-rule="evenodd" d="M28 24C28 12.9543 37.7329 4 49.7391 4H206.261C218.267 4 228 12.9543 228 24V232C228 243.046 218.267 252 206.261 252H49.7391C37.7329 252 28 243.046 28 232V24ZM206.261 34C206.261 28.4772 201.395 24 195.391 24H60.6087C54.6057 24 49.7391 28.4772 49.7391 34V222C49.7391 227.523 54.6055 232 60.6087 232H195.391C201.395 232 206.261 227.523 206.261 222V34Z" fill="url(#paint0_linear)"/>
<path d="M114.073 57.2009C121.919 56.7178 129.786 57.2798 137.653 57.1122C142.446 56.5107 146.583 60.4646 147.781 64.5764C149.385 68.9445 149.397 73.7366 151.188 78.0357C154.304 80.4909 157.951 82.2757 161.453 84.2083C166.057 82.6898 170.517 80.7473 175.258 79.6134C179.291 78.578 184.157 79.9979 186.272 83.5477C189.72 88.9215 192.878 94.4729 195.942 100.064C197.598 103.574 199.88 107.932 197.181 111.512C193.899 116.018 188.575 118.719 184.876 122.871C184.021 126.016 184.333 129.378 184.354 132.612C187.501 138.223 194.878 140.658 197.65 146.584C199.182 149.267 198.692 152.59 197.005 155.094C193.2 161.366 189.44 167.666 185.365 173.779C182.656 177.773 176.8 178.335 172.601 176.235C168.964 174.499 164.213 174.214 161.733 170.811C159.034 167.41 162.338 161.898 166.808 162.342C170.267 162.667 173.319 164.442 176.508 165.615C179.874 160.646 182.844 155.449 186.033 150.381C181.062 145.677 173.758 141.901 172.622 134.743C172.268 129.95 172.33 125.099 172.872 120.336C174.842 114.036 181.426 110.861 185.948 106.394C183.073 101.217 179.937 96.1885 177.124 90.9824C170.09 92.6783 162.786 97.9338 155.492 94.1376C149.771 90.4892 142.018 88.1524 139.539 81.4376C138.372 77.2272 137.559 72.9183 136.413 68.698C130.526 68.7375 124.639 68.7572 118.751 68.6881C118.158 73.3324 117.241 78.0752 114.886 82.2461C112.604 86.3382 108.134 88.5665 104.153 90.9528C101.319 92.56 98.4641 94.5616 95.036 94.7194C89.2112 95.0842 84.1369 91.6332 78.7081 90.4499C75.5196 95.3899 72.5917 100.468 69.3615 105.378C72.7792 108.366 76.447 111.117 79.5834 114.371C82.7301 117.664 83.2928 122.289 83.0427 126.548C82.8031 130.897 83.5847 135.808 80.5107 139.485C77.4474 143.312 73.1648 146.062 69.4345 149.277C72.2999 154.581 75.5614 159.689 78.406 165.014C84.4911 163.368 90.2637 159.295 96.8803 160.605C100.788 161.562 103.945 164.106 107.404 165.94C111.166 167.863 114.782 170.653 115.98 174.706C117.063 178.808 118.105 182.93 118.856 187.111C124.805 187.16 130.766 187.111 136.725 187.13C137.559 183.59 136.913 178.72 140.727 176.619C144.457 174.311 150.042 177.566 149.532 181.766C149.532 188.382 147.656 197.089 139.747 198.904C130.984 199.189 122.2 198.726 113.427 198.962C111.822 197.829 109.759 196.902 108.988 195.019C106.81 189.418 105.956 183.482 104.497 177.694C101.048 175.554 97.5889 173.405 93.9524 171.56C89.2634 173.198 84.6682 175.12 79.8127 176.304C75.676 177.27 70.9975 175.456 68.9552 171.885C65.5792 166.482 62.4011 160.961 59.3585 155.38C57.5872 151.761 55.9096 147.206 58.7438 143.646C62.3803 139.505 67.3401 136.597 71.0808 132.524C70.9766 129.231 71.5081 125.917 71.0183 122.654C67.0693 117.211 59.4106 114.47 57.3579 107.794C56.1805 104.432 58.1394 101.148 59.8795 98.3184C63.2972 92.9642 66.4231 87.4425 70.0076 82.1869C72.2999 78.864 76.9159 77.4343 80.8442 78.8443C85.1892 80.4909 89.5448 82.0686 93.9419 83.5674C97.1616 81.5756 100.631 79.9191 103.591 77.5723C106.717 74.1607 105.81 69.2305 107.279 65.1779C108.405 61.9437 109.957 57.7334 114.073 57.2009Z" fill="url(#paint1_linear)"/>
<path d="M121.297 91.251C119.289 91.251 117.891 92.8675 117.891 94.8754V135.919C117.891 136.472 117.443 136.919 116.891 136.919H104.803C103.955 136.919 103.492 137.908 104.035 138.559L127.271 166.443C127.671 166.923 128.408 166.923 128.808 166.443L152.044 138.559C152.587 137.908 152.124 136.919 151.276 136.919H139.188C138.636 136.919 138.188 136.472 138.188 135.919V94.8754C138.188 92.8675 136.79 91.251 134.782 91.251H121.297Z" fill="url(#paint2_linear)"/>
<defs>
<linearGradient id="paint0_linear" x1="46.6046" y1="128" x2="193.891" y2="128" gradientUnits="userSpaceOnUse">
<stop stop-color="#5570FF"/>
<stop offset="1" stop-color="#4DD3FF"/>
</linearGradient>
<linearGradient id="paint1_linear" x1="70.1695" y1="128" x2="174.428" y2="128" gradientUnits="userSpaceOnUse">
<stop stop-color="#5570FF"/>
<stop offset="1" stop-color="#4DD3FF"/>
</linearGradient>
<linearGradient id="paint2_linear" x1="128.039" y1="167.365" x2="128.039" y2="91.251" gradientUnits="userSpaceOnUse">
<stop stop-color="#5570FF"/>
<stop offset="1" stop-color="#4DD3FF"/>
</linearGradient>
</defs>
</svg>
