<svg width="256" height="256" viewBox="0 0 256 256" fill="none" xmlns="http://www.w3.org/2000/svg">
<path d="M221 61.2405C221 60.255 220.677 59.1619 220.141 58.3284C219.561 57.4267 218.901 56.3991 218.9 56.3978L171 9.17359C169.555 7.80415 158.291 1.96094 156.269 1.96094H41.1923C37.2202 1.96094 34 5.19028 34 9.17359V240.939C34 244.923 37.2202 248.152 41.1923 248.152H213.808C217.78 248.152 221 244.923 221 240.939V66.8747C221 65.212 221 64.4488 221 61.2405ZM163.462 33.8032C163.462 31.166 166.726 29.8604 168.606 31.7457L191.458 54.6621C193.316 56.525 191.97 59.6621 189.313 59.6621H166.462C164.805 59.6621 163.462 58.3447 163.462 56.7196V33.8032ZM55 230.987C53.3431 230.987 52 229.67 52 228.045V22.0682C52 20.4431 53.3431 19.1257 55 19.1257H141.5C143.157 19.1257 144.5 20.4431 144.5 22.0682V59.6621C144.5 63.6454 159.489 77.4859 163.462 77.4859H200C201.657 77.4859 203 78.8032 203 80.4284V228.045C203 229.67 201.657 230.987 200 230.987H55Z" fill="url(#paint0_linear)"/>
<path fill-rule="evenodd" clip-rule="evenodd" d="M104.57 170.553C103.777 168.013 103.24 164.769 103.208 163.106C103.186 161.678 103.449 159.446 103.522 158.829C103.534 158.724 103.541 158.666 103.54 158.666L78.4481 179.197C74.0592 182.741 68.1732 182.741 65.3966 179.184C62.6711 175.684 64.0722 170.163 68.4036 166.842L68.5763 166.708L114.564 131.418L88.7998 131.469L88.8062 131.45C84.4365 131.437 81.5831 128.494 82.402 124.943C83.2017 121.463 87.2387 118.699 91.4357 118.699H91.5125L142.33 118.641L125.658 105.071L125.664 105.065C123.079 102.928 123.406 99.5564 126.329 97.5155C129.208 95.5002 133.623 95.4938 136.252 97.5027L136.355 97.5923L176.335 128.295L176.328 128.302C180.245 131.317 183.592 135.007 186.213 139.197C190.507 146.061 192.497 154.117 191.894 162.191C191.675 164.983 191.139 167.742 190.295 170.412C188.566 175.879 185.672 180.906 181.811 185.146C177.663 189.715 172.605 193.366 166.962 195.863C160.817 198.592 154.166 199.998 147.442 199.989C140.724 200.023 134.075 198.638 127.929 195.927C122.278 193.46 117.213 189.825 113.067 185.262C109.199 181.035 106.299 176.016 104.57 170.553ZM147.449 180.655C155.286 180.642 162.516 177.655 167.685 172.383C170.129 169.919 172.018 166.961 173.226 163.707C174.349 160.616 174.781 157.316 174.492 154.04C174.211 150.809 173.251 147.738 171.716 144.949C170.206 142.211 168.12 139.748 165.567 137.662C160.427 133.553 154.029 131.339 147.449 131.392C140.862 131.353 134.463 133.585 129.33 137.713C126.771 139.818 124.685 142.287 123.175 145.032C121.633 147.815 120.68 150.899 120.399 154.13C120.108 157.407 120.543 160.707 121.672 163.797C122.867 167.046 124.753 169.997 127.2 172.447C132.375 177.706 139.605 180.668 147.449 180.655ZM136.214 143.771C133.06 146.439 130.975 150.195 130.738 154.462C130.488 158.851 132.254 162.926 135.344 165.946C138.756 169.2 143.303 170.995 148.018 170.949C152.729 170.993 157.271 169.198 160.68 165.946C163.776 162.926 165.536 158.851 165.293 154.462C165.056 150.201 162.964 146.439 159.816 143.771C156.713 141.148 152.554 139.549 148.012 139.549C143.705 139.521 139.526 141.017 136.214 143.771Z" fill="url(#paint1_linear)"/>
<defs>
<linearGradient id="paint0_linear" x1="127.5" y1="248.152" x2="127.5" y2="1.96094" gradientUnits="userSpaceOnUse">
<stop stop-color="#FDA700"/>
<stop offset="1" stop-color="#FFDE00"/>
</linearGradient>
<linearGradient id="paint1_linear" x1="128" y1="199.99" x2="128" y2="96" gradientUnits="userSpaceOnUse">
<stop stop-color="#FDA700"/>
<stop offset="1" stop-color="#FFDE00"/>
</linearGradient>
</defs>
</svg>
