<svg width="256" height="256" viewBox="0 0 256 256" fill="none" xmlns="http://www.w3.org/2000/svg">
<path d="M221 62.4373C221 61.4326 220.677 60.3181 220.141 59.4684C219.561 58.549 218.901 57.5014 218.9 57.5L171 9.35352C169.555 7.95733 158.291 2 156.269 2H41.1923C37.2202 2 34 5.29241 34 9.35352V245.646C34 249.708 37.2202 253 41.1923 253H213.808C217.78 253 221 249.708 221 245.646V68.1816C221 66.4864 221 65.7083 221 62.4373ZM163.462 34.4642C163.462 31.7754 166.726 30.4443 168.606 32.3665L191.458 55.7304C193.316 57.6297 191.97 60.8281 189.313 60.8281H166.462C164.805 60.8281 163.462 59.485 163.462 57.8281V34.4642ZM55 235.5C53.3431 235.5 52 234.157 52 232.5V22.5C52 20.8431 53.3431 19.5 55 19.5H141.5C143.157 19.5 144.5 20.8431 144.5 22.5V60.8281C144.5 64.8892 159.489 79 163.462 79H200C201.657 79 203 80.3431 203 82V232.5C203 234.157 201.657 235.5 200 235.5H55Z" fill="url(#paint0_linear)"/>
<path fill-rule="evenodd" clip-rule="evenodd" d="M175.418 92C170.814 92 166.399 93.8289 163.143 97.0843C163.067 97.1603 162.993 97.2384 162.921 97.3184L103.692 163.281C102.255 164.882 101.784 167.129 102.459 169.172C103.134 171.215 104.851 172.74 106.959 173.169C108.829 173.55 111.055 174.77 112.935 176.639C114.839 178.531 115.832 180.526 116.037 181.959C116.361 184.228 117.95 186.114 120.131 186.819C122.311 187.524 124.703 186.926 126.295 185.276L187.735 121.593C190.964 118.341 192.778 113.944 192.778 109.359C192.778 104.756 190.949 100.34 187.693 97.0845L183.414 101.364L187.693 97.0843C184.437 93.8289 180.022 92 175.418 92ZM179.208 105.57L179.208 105.57C178.203 104.565 176.839 104 175.418 104C174.04 104 172.717 104.53 171.722 105.478L118.02 165.285C119.238 166.15 120.37 167.11 121.394 168.127C122.193 168.921 122.961 169.786 123.673 170.71L179.133 113.226C179.157 113.2 179.182 113.175 179.208 113.149C180.213 112.144 180.778 110.781 180.778 109.359C180.778 107.938 180.213 106.575 179.208 105.57ZM95.2505 172.865C83.4649 172.865 74.1002 182.515 74.1002 194.257C74.1002 195.7 73.531 196.664 72.7162 197.368C71.7606 198.195 70.6137 198.517 70 198.517C67.7328 198.517 65.6591 199.795 64.6401 201.82C63.6212 203.846 63.8309 206.272 65.1822 208.093C70.9436 215.855 80.6482 220.777 90.2004 220.777C104.763 220.777 116.401 208.819 116.401 194.257C116.401 182.515 107.036 172.865 95.2505 172.865ZM86.1002 194.257C86.1002 188.963 90.2698 184.865 95.2505 184.865C100.231 184.865 104.401 188.963 104.401 194.257C104.401 202.37 97.9589 208.777 90.2004 208.777C87.051 208.777 83.763 207.837 80.8556 206.192C83.8936 203.483 86.1002 199.502 86.1002 194.257Z" fill="url(#paint1_linear)"/>
<defs>
<linearGradient id="paint0_linear" x1="34.0274" y1="123.781" x2="221.031" y2="123.781" gradientUnits="userSpaceOnUse">
<stop stop-color="#A93AFF"/>
<stop offset="1" stop-color="#FF81FF"/>
</linearGradient>
<linearGradient id="paint1_linear" x1="65.0186" y1="154.51" x2="191.799" y2="154.51" gradientUnits="userSpaceOnUse">
<stop stop-color="#A93AFF"/>
<stop offset="1" stop-color="#FF81FF"/>
</linearGradient>
</defs>
</svg>
