<svg width="256" height="256" viewBox="0 0 256 256" fill="none" xmlns="http://www.w3.org/2000/svg">
<path d="M221 62.4373C221 61.4326 220.677 60.3181 220.141 59.4684C219.561 58.549 218.9 57.5 218.9 57.5L171 9.35352C169.555 7.95733 158.291 2 156.269 2H41.1923C37.2202 2 34 5.29241 34 9.35352V245.646C34 249.708 37.2202 253 41.1923 253H213.808C217.78 253 221 249.708 221 245.646V68.1816C221 66.4864 221 65.7083 221 62.4373ZM163.462 34.4642C163.462 31.7754 166.726 30.4443 168.606 32.3665L191.458 55.7304C193.316 57.6297 191.97 60.8281 189.313 60.8281H166.462C164.805 60.8281 163.462 59.485 163.462 57.8281V34.4642ZM55 235.5C53.3431 235.5 52 234.157 52 232.5V22.5C52 20.8431 53.3431 19.5 55 19.5H141.5C143.157 19.5 144.5 20.8431 144.5 22.5V60.8281C144.5 64.8892 159.489 79 163.462 79H200C201.657 79 203 80.3431 203 82V232.5C203 234.157 201.657 235.5 200 235.5H55Z" fill="url(#paint0_linear_667_112)"/>
<path fill-rule="evenodd" clip-rule="evenodd" d="M111.722 75H141.322V89.8H111.722V75ZM111.722 104.6H141.322V119.4H111.722V104.6ZM141.322 134.2H111.722L97.5875 188.081C93.9199 206.119 107.883 223 126.66 223C145.281 223 159.243 206.211 155.65 188.243L141.322 134.2ZM133.921 200.8H119.121C115.034 200.8 111.721 197.487 111.721 193.4C111.721 189.313 115.034 186 119.121 186H133.921C138.007 186 141.321 189.313 141.321 193.4C141.321 197.487 137.991 200.8 133.921 200.8Z" fill="url(#paint1_linear_667_112)"/>
<defs>
<linearGradient id="paint0_linear_667_112" x1="34" y1="127.5" x2="221" y2="127.5" gradientUnits="userSpaceOnUse">
<stop stop-color="#02AA93"/>
<stop offset="1" stop-color="#67FF80"/>
</linearGradient>
<linearGradient id="paint1_linear_667_112" x1="36" y1="149" x2="221.5" y2="149" gradientUnits="userSpaceOnUse">
<stop stop-color="#02AA93"/>
<stop offset="1" stop-color="#67FF80"/>
</linearGradient>
</defs>
</svg>
