<svg width="256" height="256" viewBox="0 0 256 256" fill="none" xmlns="http://www.w3.org/2000/svg">
<path d="M220.22 61.1379C220.705 61.8914 221 62.8908 221 63.7795V63.7982V63.817V63.8356V63.8542V63.8728V63.8913V63.9097V63.9281V63.9464V63.9647V63.9829V64.0011V64.0192V64.0372V64.0552V64.0732V64.0911V64.1089V64.1267V64.1445V64.1621V64.1798V64.1973V64.2149V64.2323V64.2498V64.2671V64.2844V64.3017V64.3189V64.3361V64.3532V64.3703V64.3873V64.4042V64.4211V64.438V64.4548V64.4715V64.4882V64.5049V64.5215V64.5381V64.5546V64.571V64.5874V64.6038V64.6201V64.6364V64.6526V64.6687V64.6848V64.7009V64.7169V64.7329V64.7488V64.7647V64.7805V64.7963V64.812V64.8277V64.8434V64.859V64.8745V64.89V64.9055V64.9209V64.9362V64.9515V64.9668V64.982V64.9972V65.0124V65.0274V65.0425V65.0575V65.0724V65.0874V65.1022V65.117V65.1318V65.1466V65.1613V65.1759V65.1905V65.2051V65.2196V65.2341V65.2485V65.2629V65.2772V65.2915V65.3058V65.32V65.3342V65.3483V65.3624V65.3765V65.3905V65.4044V65.4184V65.4323V65.4461V65.4599V65.4737V65.4874V65.5011V65.5147V65.5284V65.5419V65.5555V65.5689V65.5824V65.5958V65.6092V65.6225V65.6358V65.649V65.6623V65.6754V65.6886V65.7017V65.7148V65.7278V65.7408V65.7537V65.7666V65.7795V65.7924V65.8052V65.8179V65.8307V65.8434V65.856V65.8686V65.8812V65.8938V65.9063V65.9188V65.9312V65.9436V65.956V65.9684V65.9807V65.9929V66.0052V66.0174V66.0296V66.0417V66.0538V66.0659V66.0779V66.0899V66.1019V66.1138V66.1257V66.1376V66.1494V66.1612V66.173V66.1847V66.1965V66.2081V66.2198V66.2314V66.243V66.2545V66.2661V66.2776V66.289V66.3004V66.3118V66.3232V66.3345V66.3459V66.3571V66.3684V66.3796V66.3908V66.402V66.4131V66.4242V66.4353V66.4463V66.4573V66.4683V66.4793V66.4902V66.5011V66.512V66.5229V66.5337V66.5445V66.5552V66.566V66.5767V66.5874V66.5981V66.6087V66.6193V66.6299V66.6404V66.651V66.6615V66.672V66.6824V66.6928V66.7032V66.7136V66.724V66.7343V66.7446V66.7549V66.7652V66.7754V66.7856V66.7958V66.806V66.8161V66.8262V66.8363V66.8464V66.8564V66.8664V66.8765V66.8864V66.8964V66.9063V66.9162V66.9261V66.936V66.9459V66.9557V66.9655V66.9753V66.985V66.9948V67.0045V67.0142V67.0239V67.0336V67.0432V67.0528V67.0624V67.072V67.0816V67.0911V67.1007V67.1102V67.1196V67.1291V67.1386V67.148V67.1574V67.1668V67.1762V67.1856V67.1949V67.2042V67.2135V67.2228V67.2321V67.2414V67.2506V67.2598V67.2691V67.2782V67.2874V67.2966V67.3057V67.3149V67.324V67.3331V67.3422V67.3512V67.3603V67.3693V67.3784V67.3874V67.3964V67.4053V67.4143V67.4233V67.4322V67.4411V67.4501V67.459V67.4678V67.4767V67.4856V67.4944V67.5033V67.5121V67.5209V67.5297V67.5385V67.5473V67.556V67.5648V67.5735V67.5823V67.591V67.5997V67.6084V67.6171V67.6258V67.6344V67.6431V67.6517V67.6604V67.669V67.6776V67.6862V67.6948V67.7034V67.712V67.7206V67.7292V67.7377V67.7463V67.7548V67.7633V67.7719V67.7804V67.7889V67.7974V67.8059V67.8144V67.8229V67.8313V67.8398V67.8483V67.8567V67.8652V67.8736V67.8821V67.8905V67.8989V67.9073V67.9158V67.9242V67.9326V67.941V67.9494V67.9578V67.9661V67.9745V67.9829V67.9913V67.9996V68.008V68.0164V68.0247V68.0331V68.0415V68.0498V68.0582V68.0665V68.0748V68.0832V68.0915V68.0999V68.1082V68.1165V68.1249V68.1332V68.1415V68.1499V68.1582V68.1665V68.1748V68.1832V68.1915V68.1998V68.2081V68.2165V68.2248V68.2331V68.2414V68.2498V68.2581V68.2664V68.2748V68.2831V68.2914V68.2997V68.3081V68.3164V68.3248V68.3331V68.3415V68.3498V68.3581V68.3665V68.3749V68.3832V68.3916V68.3999V68.4083V68.4167V68.4251V68.4334V68.4418V68.4502V68.4586V68.467V68.4754V68.4838V68.4922V68.5006V68.5091V68.5175V68.5259V68.5344V68.5428V68.5513V68.5597V68.5682V68.5767V68.5851V68.5936V68.6021V68.6106V68.6191V68.6276V68.6362V68.6447V68.6532V68.6618V68.6703V68.6789V68.6874V68.696V68.7046V68.7132V68.7218V68.7304V68.7391V68.7477V68.7563V68.765V68.7736V68.7823V68.791V68.7997V68.8084V68.8171V68.8258V68.8346V68.8433V68.8521V68.8608V68.8696V68.8784V68.8872V68.896V68.9049V68.9137V68.9226V68.9314V68.9403V68.9492V68.9581V68.967V68.976V68.9849V68.9939V69.0029V69.0118V69.0209V69.0299V69.0389V69.0479V69.057V69.0661V69.0752V69.0843V69.0934V69.1025V69.1117V69.1209V69.13V69.1392V69.1485V69.1577V69.1669V69.1762V69.1855V69.1948V69.2041V69.2134V69.2228V69.2322V69.2415V69.251V69.2604V69.2698V69.2793V69.2888V69.2983V69.3078V69.3173V69.3269V69.3364V69.346V69.3556V69.3653V69.3749V69.3846V69.3943V69.404V69.4137V243.478C221 247.188 218.003 250.191 214.308 250.191H41.6923C37.9977 250.191 35 247.187 35 243.478V11.7127C35 8.00415 37.9977 5 41.6923 5H156.769C156.936 5 157.267 5.06752 157.77 5.22967C158.256 5.38616 158.853 5.61397 159.528 5.89578C160.876 6.45895 162.508 7.22665 164.126 8.03959C165.744 8.85222 167.343 9.70665 168.624 10.4417C169.265 10.8093 169.823 11.1451 170.264 11.4296C170.71 11.7178 171.008 11.9361 171.153 12.0724C171.154 12.0735 171.155 12.0745 171.156 12.0756L219.011 59.2556C219.112 59.4142 219.688 60.3102 220.22 61.1379ZM169.46 33.9317C167.279 31.7449 163.462 33.2392 163.462 36.3422V59.2586C163.462 61.1689 165.038 62.7011 166.962 62.7011H189.813C192.894 62.7011 194.499 59.0407 192.312 56.848L169.46 33.9317ZM52 230.584C52 232.494 53.5761 234.026 55.5 234.026H200.5C202.424 234.026 204 232.494 204 230.584V82.9674C204 81.057 202.424 79.5249 200.5 79.5249H163.962C163.584 79.5249 163.001 79.3522 162.226 78.9732C161.467 78.6019 160.578 78.0607 159.608 77.389C157.669 76.0464 155.441 74.2083 153.332 72.2411C151.223 70.2736 149.244 68.1888 147.796 66.3566C147.072 65.4398 146.489 64.5964 146.09 63.8697C145.682 63.1268 145.5 62.5676 145.5 62.2011V24.6072C145.5 22.6969 143.924 21.1647 142 21.1647H55.5C53.5761 21.1647 52 22.6969 52 24.6072V230.584Z" fill="url(#paint0_linear)" stroke="url(#paint1_linear)"/>
<rect x="75" y="181" width="106" height="17" rx="4" fill="#C4C4C4"/>
<rect x="75" y="149" width="106" height="17" rx="4" fill="#C4C4C4"/>
<defs>
<linearGradient id="paint0_linear" x1="128" y1="250.191" x2="128" y2="5" gradientUnits="userSpaceOnUse">
<stop stop-color="#A5A5A5"/>
<stop offset="0.9973" stop-color="#DCDCDC"/>
</linearGradient>
<linearGradient id="paint1_linear" x1="128" y1="250.191" x2="128" y2="5" gradientUnits="userSpaceOnUse">
<stop stop-color="#A5A5A5"/>
<stop offset="0.9973" stop-color="#DCDCDC"/>
</linearGradient>
</defs>
</svg>
