<svg width="256" height="256" viewBox="0 0 256 256" fill="none" xmlns="http://www.w3.org/2000/svg">
<path d="M221 62.4373C221 61.4326 220.677 60.3181 220.141 59.4684C219.561 58.549 218.9 57.5 218.9 57.5L171 9.35352C169.555 7.95733 158.291 2 156.269 2H41.1923C37.2202 2 34 5.29241 34 9.35352V245.646C34 249.708 37.2202 253 41.1923 253H213.808C217.78 253 221 249.708 221 245.646V68.1816C221 66.4864 221 65.7083 221 62.4373ZM163.462 34.4642C163.462 31.7754 166.726 30.4443 168.606 32.3665L191.458 55.7304C193.316 57.6297 191.97 60.8281 189.313 60.8281H166.462C164.805 60.8281 163.462 59.485 163.462 57.8281V34.4642ZM55 235.5C53.3431 235.5 52 234.157 52 232.5V22.5C52 20.8431 53.3431 19.5 55 19.5H141.5C143.157 19.5 144.5 20.8431 144.5 22.5V60.8281C144.5 64.8892 159.489 79 163.462 79H200C201.657 79 203 80.3431 203 82V232.5C203 234.157 201.657 235.5 200 235.5H55Z" fill="url(#paint0_linear)"/>
<path d="M119.336 203.793L120.56 197.881H114.523H89V172.708C93.0767 173.739 96.7525 174.288 98.8305 174.288C105.61 174.288 111.119 168.779 111.119 162C111.119 155.221 105.61 149.712 98.8305 149.712C96.7525 149.712 93.0767 150.261 89 151.292V126.119H114.523H120.56L119.336 120.207C118.763 117.437 118.492 115.184 118.492 113.831C118.492 108.413 122.904 104 128.322 104C133.74 104 138.153 108.413 138.153 113.831C138.153 115.184 137.881 117.437 137.308 120.207L136.084 126.119H142.121H167.644V151.292C163.567 150.261 159.892 149.712 157.814 149.712C151.034 149.712 145.525 155.221 145.525 162C145.525 168.779 151.034 174.288 157.814 174.288C159.892 174.288 163.567 173.739 167.644 172.708V197.881H142.121H136.084L137.308 203.793C137.881 206.563 138.153 208.817 138.153 210.169C138.153 215.587 133.74 220 128.322 220C122.904 220 118.492 215.587 118.492 210.169C118.492 208.816 118.763 206.563 119.336 203.793Z" stroke="url(#paint1_linear)" stroke-width="12"/>
<defs>
<linearGradient id="paint0_linear" x1="51.3953" y1="127.5" x2="189.109" y2="127.5" gradientUnits="userSpaceOnUse">
<stop stop-color="#5570FF"/>
<stop offset="1" stop-color="#4DD3FF"/>
</linearGradient>
<linearGradient id="paint1_linear" x1="96.3157" y1="162" x2="154.232" y2="162" gradientUnits="userSpaceOnUse">
<stop stop-color="#5570FF"/>
<stop offset="1" stop-color="#4DD3FF"/>
</linearGradient>
</defs>
</svg>
