<svg width="256" height="256" viewBox="0 0 256 256" fill="none" xmlns="http://www.w3.org/2000/svg">
<path d="M221 62.4373C221 61.4326 220.677 60.3181 220.141 59.4684C219.561 58.549 218.901 57.5014 218.9 57.5L171 9.35352C169.555 7.95733 158.291 2 156.269 2H41.1923C37.2202 2 34 5.29241 34 9.35352V245.646C34 249.708 37.2202 253 41.1923 253H213.808C217.78 253 221 249.708 221 245.646V68.1816C221 66.4864 221 65.7083 221 62.4373ZM163.462 34.4642C163.462 31.7754 166.726 30.4443 168.606 32.3665L191.458 55.7304C193.316 57.6297 191.97 60.8281 189.313 60.8281H166.462C164.805 60.8281 163.462 59.485 163.462 57.8281V34.4642ZM55 235.5C53.3431 235.5 52 234.157 52 232.5V22.5C52 20.8431 53.3431 19.5 55 19.5H141.5C143.157 19.5 144.5 20.8431 144.5 22.5V60.8281C144.5 64.8892 159.489 79 163.462 79H200C201.657 79 203 80.3431 203 82V232.5C203 234.157 201.657 235.5 200 235.5H55Z" fill="url(#paint0_linear)"/>
<path d="M95.3608 99.7019C52.2131 124.577 52.2131 187.417 95.3608 212.292C138.509 237.167 193 205.754 193 155.997C193 118.679 162.349 91.68 128.296 91.0006C116.926 90.9549 105.811 93.6778 95.3608 99.7019V99.7019ZM163.364 126.994C170.686 154.117 160.176 179.644 135.56 185.156C154.803 170.665 151.248 144.233 141.374 132.074C128.014 115.378 107 120.495 95.5873 132.699C78.4484 152.532 82.8562 186.989 98.3554 206.141C60.5023 183.124 59.8935 128.1 98.5727 105.801C123.431 90.7175 152.44 96.1772 163.364 126.994V126.994ZM168.295 165.168C176.257 145.023 170.989 119.603 156.454 104.834C173.972 114.587 186.329 133.115 186.569 155.997C186.973 194.392 137.972 231.44 109.535 204.421C81.0705 177.376 88.5165 131.185 120.333 127.105C96.7299 147.133 107.343 182.501 127.703 188.974C146.101 194.823 162.629 179.504 168.295 165.167V165.168ZM127.63 129.31C148.681 139.631 147.328 173.239 127.069 182.597C106.196 168.353 111.001 139.377 127.63 129.31Z" fill="url(#paint1_linear)" stroke="url(#paint2_linear)" stroke-width="5"/>
<defs>
<linearGradient id="paint0_linear" x1="127.5" y1="253" x2="127.5" y2="2" gradientUnits="userSpaceOnUse">
<stop stop-color="#FD2E00"/>
<stop offset="1" stop-color="#FF9900"/>
</linearGradient>
<linearGradient id="paint1_linear" x1="128" y1="221" x2="128" y2="91" gradientUnits="userSpaceOnUse">
<stop stop-color="#FD2E00"/>
<stop offset="1" stop-color="#FF9900"/>
</linearGradient>
<linearGradient id="paint2_linear" x1="128" y1="221" x2="128" y2="91" gradientUnits="userSpaceOnUse">
<stop stop-color="#FD2E00"/>
<stop offset="1" stop-color="#FF9900"/>
</linearGradient>
</defs>
</svg>
