<svg width="256" height="256" viewBox="0 0 256 256" fill="none" xmlns="http://www.w3.org/2000/svg">
<path d="M221 62.4373C221 61.4326 220.677 60.3181 220.141 59.4684C219.561 58.549 218.901 57.5014 218.9 57.5L171 9.35352C169.555 7.95733 158.291 2 156.269 2H41.1923C37.2202 2 34 5.29241 34 9.35352V245.646C34 249.708 37.2202 253 41.1923 253H213.808C217.78 253 221 249.708 221 245.646V68.1816C221 66.4864 221 65.7083 221 62.4373ZM163.462 34.4642C163.462 31.7754 166.726 30.4443 168.606 32.3665L191.458 55.7304C193.316 57.6297 191.97 60.8281 189.313 60.8281H166.462C164.805 60.8281 163.462 59.485 163.462 57.8281V34.4642ZM55 235.5C53.3431 235.5 52 234.157 52 232.5V22.5C52 20.8431 53.3431 19.5 55 19.5H141.5C143.157 19.5 144.5 20.8431 144.5 22.5V60.8281C144.5 64.8892 159.489 79 163.462 79H200C201.657 79 203 80.3431 203 82V232.5C203 234.157 201.657 235.5 200 235.5H55Z" fill="url(#paint0_linear)"/>
<path d="M128 89C92.8475 89 64 117.848 64 153C64 188.152 92.8475 217 128 217C163.152 217 192 188.152 192 153C192 117.848 163.152 89 128 89ZM128 209.5C96.9819 209.5 71.5 184.018 71.5 153C71.5 121.982 96.9819 96.5 128 96.5C159.018 96.5 184.5 121.982 184.5 153C184.5 184.018 159.018 209.5 128 209.5ZM113.421 187.548C108.961 185.658 104.947 182.952 101.498 179.502C98.0478 176.053 95.3415 172.039 93.4518 167.579C92.6461 165.667 90.4267 164.777 88.5373 165.587C86.6292 166.392 85.7396 168.593 86.545 170.501C88.8117 175.855 92.0564 180.667 96.1948 184.805C100.333 188.944 105.145 192.188 110.499 194.455C112.404 195.262 114.608 194.372 115.413 192.462C116.219 190.555 115.329 188.354 113.421 187.548ZM169.455 135.499C167.188 130.145 163.944 125.333 159.805 121.194C155.667 117.056 150.855 113.812 145.501 111.545C143.604 110.743 141.392 111.622 140.587 113.537C139.781 115.445 140.671 117.646 142.579 118.451C147.039 120.341 151.053 123.048 154.502 126.497C157.952 129.947 160.658 133.961 162.548 138.421C163.356 140.335 165.563 141.217 167.463 140.413C169.371 139.608 170.261 137.407 169.455 135.499ZM128 126.75C113.527 126.75 101.75 138.527 101.75 153C101.75 167.473 113.527 179.25 128 179.25C142.473 179.25 154.25 167.473 154.25 153C154.25 138.527 142.473 126.75 128 126.75ZM128 171.75C117.662 171.75 109.25 163.338 109.25 153C109.25 142.662 117.662 134.25 128 134.25C138.338 134.25 146.75 142.662 146.75 153C146.75 163.338 138.338 171.75 128 171.75ZM128 141.75C121.796 141.75 116.75 146.796 116.75 153C116.75 159.204 121.796 164.25 128 164.25C134.204 164.25 139.25 159.204 139.25 153C139.25 146.796 134.204 141.75 128 141.75ZM128 156.75C125.931 156.75 124.25 155.069 124.25 153C124.25 150.931 125.931 149.25 128 149.25C130.069 149.25 131.75 150.931 131.75 153C131.75 155.069 130.069 156.75 128 156.75Z" fill="url(#paint1_linear)" stroke="url(#paint2_linear)" stroke-width="5"/>
<defs>
<linearGradient id="paint0_linear" x1="202" y1="165" x2="83.8438" y2="17.1568" gradientUnits="userSpaceOnUse">
<stop stop-color="#FF928B"/>
<stop offset="1" stop-color="#DC3282"/>
</linearGradient>
<linearGradient id="paint1_linear" x1="188.39" y1="153" x2="81.5859" y2="114.365" gradientUnits="userSpaceOnUse">
<stop stop-color="#FE7970"/>
<stop offset="1" stop-color="#DC3282"/>
</linearGradient>
<linearGradient id="paint2_linear" x1="188.39" y1="153" x2="81.5859" y2="114.365" gradientUnits="userSpaceOnUse">
<stop stop-color="#FE7970"/>
<stop offset="1" stop-color="#DC3282"/>
</linearGradient>
</defs>
</svg>
