<svg width="256" height="256" viewBox="0 0 256 256" fill="none" xmlns="http://www.w3.org/2000/svg">
<path d="M221 62.4373C221 61.4326 220.677 60.3181 220.141 59.4684C219.561 58.549 218.901 57.5014 218.9 57.5L171 9.35352C169.555 7.95733 158.291 2 156.269 2H41.1923C37.2202 2 34 5.29241 34 9.35352V245.646C34 249.708 37.2202 253 41.1923 253H213.808C217.78 253 221 249.708 221 245.646V68.1816C221 66.4864 221 65.7083 221 62.4373ZM163.462 34.4642C163.462 31.7754 166.726 30.4443 168.606 32.3665L191.458 55.7304C193.316 57.6297 191.97 60.8281 189.313 60.8281H166.462C164.805 60.8281 163.462 59.485 163.462 57.8281V34.4642ZM55 235.5C53.3431 235.5 52 234.157 52 232.5V22.5C52 20.8431 53.3431 19.5 55 19.5H141.5C143.157 19.5 144.5 20.8431 144.5 22.5V60.8281C144.5 64.8892 159.489 79 163.462 79H200C201.657 79 203 80.3431 203 82V232.5C203 234.157 201.657 235.5 200 235.5H55Z" fill="url(#paint0_linear)"/>
<path fill-rule="evenodd" clip-rule="evenodd" d="M106.125 101.5C101.981 101.5 98.0067 103.146 95.0765 106.076C92.1462 109.007 90.5 112.981 90.5 117.125C90.5 121.269 92.1462 125.243 95.0765 128.174C98.0067 131.104 101.981 132.75 106.125 132.75H121.75V101.5H106.125ZM121.75 189H106.125C101.981 189 98.0067 190.646 95.0765 193.576C92.1462 196.507 90.5 200.481 90.5 204.625C90.5 208.769 92.1462 212.743 95.0765 215.674C98.0067 218.604 101.981 220.25 106.125 220.25C110.269 220.25 114.243 218.604 117.174 215.674C120.104 212.743 121.75 208.769 121.75 204.625V189ZM88.4472 182.75C87.6797 183.37 86.9419 184.033 86.2376 184.738C80.9632 190.012 78 197.166 78 204.625C78 212.084 80.9632 219.238 86.2376 224.512C91.5121 229.787 98.6658 232.75 106.125 232.75C113.584 232.75 120.738 229.787 126.012 224.512C131.287 219.238 134.25 212.084 134.25 204.625V184.26C135.778 185.281 137.406 186.152 139.112 186.859C142.524 188.273 146.182 189 149.875 189C153.568 189 157.226 188.273 160.638 186.859C164.05 185.446 167.151 183.374 169.762 180.762C172.374 178.151 174.446 175.05 175.859 171.638C177.273 168.226 178 164.568 178 160.875C178 157.182 177.273 153.524 175.859 150.112C174.446 146.7 172.374 143.599 169.762 140.988C169.06 140.285 168.322 139.622 167.553 139C168.322 138.378 169.06 137.715 169.762 137.012C172.374 134.401 174.446 131.3 175.859 127.888C177.273 124.476 178 120.818 178 117.125C178 113.432 177.273 109.774 175.859 106.362C174.446 102.95 172.374 99.8493 169.762 97.2376C167.151 94.626 164.05 92.5543 160.638 91.1409C157.226 89.7275 153.568 89 149.875 89H128H106.125C98.6658 89 91.5121 91.9632 86.2376 97.2376C80.9632 102.512 78 109.666 78 117.125C78 124.584 80.9632 131.738 86.2376 137.012C86.9419 137.717 87.6797 138.38 88.4472 139C87.6797 139.62 86.9419 140.283 86.2376 140.988C80.9632 146.262 78 153.416 78 160.875C78 168.334 80.9632 175.488 86.2376 180.762C86.9419 181.467 87.6797 182.13 88.4472 182.75ZM106.125 145.25C101.981 145.25 98.0067 146.896 95.0765 149.826C92.1462 152.757 90.5 156.731 90.5 160.875C90.5 165.019 92.1462 168.993 95.0765 171.924C98.0067 174.854 101.981 176.5 106.125 176.5H121.75V160.875V145.25H106.125ZM134.25 160.875C134.25 162.927 134.654 164.959 135.439 166.854C136.225 168.75 137.376 170.473 138.826 171.924C140.277 173.374 142 174.525 143.896 175.311C145.791 176.096 147.823 176.5 149.875 176.5C151.927 176.5 153.959 176.096 155.854 175.311C157.75 174.525 159.473 173.374 160.924 171.924C162.374 170.473 163.525 168.75 164.311 166.854C165.096 164.959 165.5 162.927 165.5 160.875C165.5 158.823 165.096 156.791 164.311 154.896C163.525 153 162.374 151.277 160.924 149.826C159.473 148.376 157.75 147.225 155.854 146.439C153.959 145.654 151.927 145.25 149.875 145.25C147.823 145.25 145.791 145.654 143.896 146.439C142 147.225 140.277 148.376 138.826 149.826C137.376 151.277 136.225 153 135.439 154.896C134.654 156.791 134.25 158.823 134.25 160.875ZM149.875 132.75C151.927 132.75 153.959 132.346 155.854 131.561C157.75 130.775 159.473 129.624 160.924 128.174C162.374 126.723 163.525 125 164.311 123.104C165.096 121.209 165.5 119.177 165.5 117.125C165.5 115.073 165.096 113.041 164.311 111.146C163.525 109.25 162.374 107.527 160.924 106.076C159.473 104.626 157.75 103.475 155.854 102.689C153.959 101.904 151.927 101.5 149.875 101.5H134.25V132.75H149.875Z" fill="url(#paint1_linear)"/>
<defs>
<linearGradient id="paint0_linear" x1="127.5" y1="253" x2="127.5" y2="2" gradientUnits="userSpaceOnUse">
<stop stop-color="#FD5900"/>
<stop offset="1" stop-color="#FFDE00"/>
</linearGradient>
<linearGradient id="paint1_linear" x1="128" y1="232.75" x2="128" y2="89" gradientUnits="userSpaceOnUse">
<stop stop-color="#FD5900"/>
<stop offset="1" stop-color="#FFDE00"/>
</linearGradient>
</defs>
</svg>
