<svg width="256" height="256" viewBox="0 0 256 256" fill="none" xmlns="http://www.w3.org/2000/svg">
<path fill-rule="evenodd" clip-rule="evenodd" d="M220.141 59.4684C220.677 60.3181 221 61.4326 221 62.4373V68.1816V245.646C221 249.708 217.78 253 213.808 253H41.1923C37.2202 253 34 249.708 34 245.646V9.35352C34 5.29241 37.2202 2 41.1923 2H156.269C158.291 2 169.555 7.95733 171 9.35352L218.9 57.5C218.9 57.5 219.561 58.549 220.141 59.4684ZM168.606 32.3665C166.726 30.4443 163.462 31.7754 163.462 34.4642V57.8281C163.462 59.485 164.805 60.8281 166.462 60.8281H189.313C191.97 60.8281 193.316 57.6297 191.458 55.7304L168.606 32.3665ZM52 232.5C52 234.157 53.3431 235.5 55 235.5H200C201.657 235.5 203 234.157 203 232.5V82C203 80.3431 201.657 79 200 79H163.462C159.489 79 144.5 64.8892 144.5 60.8281V22.5C144.5 20.8431 143.157 19.5 141.5 19.5H55C53.3431 19.5 52 20.8431 52 22.5V232.5ZM125.694 95H123V97.6935V156.306V159H125.694H184.306H187V156.306V97.6935V95H184.306H125.694ZM141.533 113.532H168.468V140.454H141.533V113.532ZM102.527 139H75.6124C70.3035 139 66 142.838 66 147.571V148.429C66 153.162 70.3035 157 75.6124 157H102.527C107.836 157 112.14 153.162 112.14 148.429V147.571C112.14 142.838 107.836 139 102.527 139ZM180.388 204H111.178C105.869 204 101.566 207.838 101.566 212.571V213.429C101.566 218.162 105.869 222 111.178 222H180.388C185.696 222 190 218.162 190 213.429V212.571C190 207.838 185.696 204 180.388 204ZM75.6124 171H180.388C185.696 171 190 174.663 190 179.182V180.818C190 185.337 185.696 189 180.388 189H75.6124C70.3035 189 66 185.337 66 180.818V179.182C66 174.663 70.3035 171 75.6124 171Z" fill="url(#paint0_linear_667_133)"/>
<defs>
<linearGradient id="paint0_linear_667_133" x1="128" y1="222" x2="128" y2="104.199" gradientUnits="userSpaceOnUse">
<stop stop-color="#5570FF"/>
<stop offset="1" stop-color="#4DD3FF"/>
</linearGradient>
</defs>
</svg>
