<svg width="256" height="256" viewBox="0 0 256 256" fill="none" xmlns="http://www.w3.org/2000/svg">
<path d="M221 61.2405C221 60.255 220.677 59.1619 220.141 58.3284C219.561 57.4267 218.901 56.3991 218.9 56.3978L171 9.17359C169.555 7.80415 158.291 1.96094 156.269 1.96094H41.1923C37.2202 1.96094 34 5.19028 34 9.17359V240.939C34 244.923 37.2202 248.152 41.1923 248.152H213.808C217.78 248.152 221 244.923 221 240.939V66.8747C221 65.212 221 64.4488 221 61.2405ZM163.462 33.8032C163.462 31.166 166.726 29.8604 168.606 31.7457L191.458 54.6621C193.316 56.525 191.97 59.6621 189.313 59.6621H166.462C164.805 59.6621 163.462 58.3447 163.462 56.7196V33.8032ZM55 230.987C53.3431 230.987 52 229.67 52 228.045V22.0682C52 20.4431 53.3431 19.1257 55 19.1257H141.5C143.157 19.1257 144.5 20.4431 144.5 22.0682V59.6621C144.5 63.6454 159.489 77.4859 163.462 77.4859H200C201.657 77.4859 203 78.8032 203 80.4284V228.045C203 229.67 201.657 230.987 200 230.987H55Z" fill="url(#paint0_linear)"/>
<path d="M138.308 135.5L103.256 139.25L102.546 139.775C100.711 141.05 100.711 144.95 102.546 146.225L103.256 146.75L138.308 150.5C139.564 152.109 143.215 156.788 143.33 156.938C144.486 158.403 146.359 158.403 147.514 156.938L156.42 145.651C156.998 144.919 157.287 143.959 157.287 143C157.287 142.041 156.998 141.081 156.42 140.349L147.543 129.099C146.387 127.634 144.515 127.634 143.359 129.099L138.308 135.5ZM86.077 146.801C86.0073 146.795 85.9482 146.75 85.877 146.75C84.2414 146.75 82.918 148.427 82.918 150.5V203.25C82.918 205.323 84.2414 207 85.877 207C87.5125 207 88.8359 205.323 88.8359 203.25V170.715C95.4998 185.473 107.196 196.185 120.966 198.682C122.584 198.975 124.084 197.551 124.315 195.5C124.335 195.321 124.344 195.141 124.344 194.965C124.344 193.127 123.28 191.523 121.804 191.255C105.021 188.216 91.6245 171.239 89.2261 149.969C89.0046 148.006 87.6147 146.659 86.077 146.801ZM82.918 82.75V135.5C82.918 137.573 84.2414 139.25 85.877 139.25C85.9482 139.25 86.0073 139.205 86.077 139.199C87.6147 139.341 89.0046 137.994 89.2259 136.031C91.6243 114.761 105.021 97.784 121.804 94.7445C123.28 94.4772 124.344 92.8733 124.344 91.0348C124.344 90.859 124.335 90.6795 124.315 90.5C124.084 88.4492 122.584 87.0247 120.966 87.3177C107.196 89.8147 95.4998 100.527 88.8359 115.285V82.75C88.8359 80.6772 87.5125 79 85.877 79C84.2414 79 82.918 80.6772 82.918 82.75Z" fill="url(#paint1_linear)" stroke="url(#paint2_linear)" stroke-width="6"/>
<path d="M103.256 139.25H138.308L143.359 132.849C144.515 131.384 146.387 131.384 147.543 132.849L153.461 140.349C154.039 141.081 154.328 142.041 154.328 143C154.328 143.96 154.039 144.919 153.461 145.651L147.514 153.188C146.359 154.653 144.486 154.652 143.33 153.188C143.215 153.037 139.564 148.359 138.308 146.75H103.256L143.972 176.225C144.978 176.975 146.161 176.9 147.108 176.15L154.979 169.475C160.956 164.375 167.88 161.75 175.041 161.75C176.698 161.75 178 160.1 178 158V128C178 125.9 176.698 124.25 175.041 124.25C167.88 124.25 160.956 121.625 154.979 116.525L147.108 109.85C146.161 109.1 144.978 109.025 143.972 109.775L103.256 139.25ZM77 82.75C77 84.8228 78.3235 86.5 79.959 86.5H91.7949C93.4305 86.5 94.7539 84.8228 94.7539 82.75C94.7539 80.6772 93.4305 79 91.7949 79H79.959C78.3235 79 77 80.6772 77 82.75ZM94.7539 203.25C94.7539 201.177 93.4305 199.5 91.7949 199.5H79.959C78.3235 199.5 77 201.177 77 203.25C77 205.323 78.3235 207 79.959 207H91.7949C93.4305 207 94.7539 205.323 94.7539 203.25ZM94.7539 150.5V135.5C94.7539 133.427 93.4305 131.75 91.7949 131.75H79.959C78.3235 131.75 77 133.427 77 135.5V150.5C77 152.573 78.3235 154.25 79.959 154.25H91.7949C93.4305 154.25 94.7539 152.573 94.7539 150.5ZM118.426 188V203C118.426 205.073 119.749 206.75 121.385 206.75H133.221C134.856 206.75 136.18 205.073 136.18 203V188C136.18 185.927 134.856 184.25 133.221 184.25H121.385C119.749 184.25 118.426 185.927 118.426 188ZM118.426 83V98C118.426 100.073 119.749 101.75 121.385 101.75H133.221C134.856 101.75 136.18 100.073 136.18 98V83C136.18 80.9272 134.856 79.25 133.221 79.25H121.385C119.749 79.25 118.426 80.9272 118.426 83Z" stroke="url(#paint3_linear)" stroke-width="10"/>
<defs>
<linearGradient id="paint0_linear" x1="127.5" y1="248.152" x2="127.5" y2="1.96094" gradientUnits="userSpaceOnUse">
<stop stop-color="#FDA700"/>
<stop offset="1" stop-color="#FFDE00"/>
</linearGradient>
<linearGradient id="paint1_linear" x1="120.102" y1="207" x2="120.102" y2="79" gradientUnits="userSpaceOnUse">
<stop stop-color="#FDA700"/>
<stop offset="1" stop-color="#FFDE00"/>
</linearGradient>
<linearGradient id="paint2_linear" x1="120.102" y1="207" x2="120.102" y2="79" gradientUnits="userSpaceOnUse">
<stop stop-color="#FDA700"/>
<stop offset="1" stop-color="#FFDE00"/>
</linearGradient>
<linearGradient id="paint3_linear" x1="127.5" y1="207" x2="127.5" y2="79" gradientUnits="userSpaceOnUse">
<stop stop-color="#FDA700"/>
<stop offset="1" stop-color="#FFDE00"/>
</linearGradient>
</defs>
</svg>
