<svg width="256" height="256" viewBox="0 0 256 256" fill="none" xmlns="http://www.w3.org/2000/svg">
<path d="M219.72 58.5988C220.205 59.3524 220.5 60.3517 220.5 61.2405V61.2592V61.278V61.2966V61.3152V61.3338V61.3523V61.3707V61.3891V61.4074V61.4257V61.4439V61.4621V61.4802V61.4982V61.5162V61.5342V61.5521V61.5699V61.5877V61.6054V61.6231V61.6408V61.6583V61.6759V61.6933V61.7108V61.7281V61.7454V61.7627V61.7799V61.7971V61.8142V61.8312V61.8483V61.8652V61.8821V61.899V61.9158V61.9325V61.9492V61.9659V61.9825V61.9991V62.0156V62.032V62.0484V62.0648V62.0811V62.0973V62.1136V62.1297V62.1458V62.1619V62.1779V62.1939V62.2098V62.2257V62.2415V62.2573V62.273V62.2887V62.3044V62.32V62.3355V62.351V62.3665V62.3819V62.3972V62.4125V62.4278V62.443V62.4582V62.4733V62.4884V62.5035V62.5185V62.5334V62.5483V62.5632V62.578V62.5928V62.6075V62.6222V62.6369V62.6515V62.666V62.6806V62.695V62.7095V62.7239V62.7382V62.7525V62.7668V62.781V62.7952V62.8093V62.8234V62.8374V62.8515V62.8654V62.8794V62.8932V62.9071V62.9209V62.9347V62.9484V62.9621V62.9757V62.9893V63.0029V63.0164V63.0299V63.0434V63.0568V63.0701V63.0835V63.0968V63.11V63.1232V63.1364V63.1496V63.1627V63.1757V63.1888V63.2017V63.2147V63.2276V63.2405V63.2533V63.2661V63.2789V63.2916V63.3043V63.317V63.3296V63.3422V63.3548V63.3673V63.3798V63.3922V63.4046V63.417V63.4293V63.4416V63.4539V63.4662V63.4784V63.4905V63.5027V63.5148V63.5268V63.5389V63.5509V63.5628V63.5748V63.5867V63.5986V63.6104V63.6222V63.634V63.6457V63.6574V63.6691V63.6808V63.6924V63.704V63.7155V63.727V63.7385V63.75V63.7614V63.7728V63.7842V63.7955V63.8068V63.8181V63.8294V63.8406V63.8518V63.8629V63.8741V63.8852V63.8962V63.9073V63.9183V63.9293V63.9403V63.9512V63.9621V63.973V63.9838V63.9947V64.0054V64.0162V64.027V64.0377V64.0484V64.059V64.0697V64.0803V64.0909V64.1014V64.1119V64.1224V64.1329V64.1434V64.1538V64.1642V64.1746V64.185V64.1953V64.2056V64.2159V64.2261V64.2364V64.2466V64.2568V64.2669V64.2771V64.2872V64.2973V64.3073V64.3174V64.3274V64.3374V64.3474V64.3574V64.3673V64.3772V64.3871V64.397V64.4068V64.4166V64.4265V64.4362V64.446V64.4557V64.4655V64.4752V64.4849V64.4945V64.5042V64.5138V64.5234V64.533V64.5425V64.5521V64.5616V64.5711V64.5806V64.5901V64.5995V64.609V64.6184V64.6278V64.6372V64.6465V64.6559V64.6652V64.6745V64.6838V64.6931V64.7023V64.7116V64.7208V64.73V64.7392V64.7484V64.7576V64.7667V64.7758V64.7849V64.794V64.8031V64.8122V64.8213V64.8303V64.8393V64.8483V64.8573V64.8663V64.8753V64.8842V64.8932V64.9021V64.911V64.9199V64.9288V64.9377V64.9465V64.9554V64.9642V64.9731V64.9819V64.9907V64.9995V65.0082V65.017V65.0258V65.0345V65.0432V65.052V65.0607V65.0694V65.0781V65.0867V65.0954V65.1041V65.1127V65.1213V65.13V65.1386V65.1472V65.1558V65.1644V65.173V65.1816V65.1901V65.1987V65.2072V65.2158V65.2243V65.2328V65.2413V65.2499V65.2584V65.2669V65.2753V65.2838V65.2923V65.3008V65.3092V65.3177V65.3261V65.3346V65.343V65.3514V65.3599V65.3683V65.3767V65.3851V65.3935V65.4019V65.4103V65.4187V65.4271V65.4355V65.4439V65.4522V65.4606V65.469V65.4773V65.4857V65.4941V65.5024V65.5108V65.5191V65.5275V65.5358V65.5441V65.5525V65.5608V65.5692V65.5775V65.5858V65.5942V65.6025V65.6108V65.6191V65.6275V65.6358V65.6441V65.6524V65.6608V65.6691V65.6774V65.6857V65.6941V65.7024V65.7107V65.719V65.7274V65.7357V65.744V65.7524V65.7607V65.769V65.7774V65.7857V65.7941V65.8024V65.8108V65.8191V65.8275V65.8358V65.8442V65.8525V65.8609V65.8693V65.8776V65.886V65.8944V65.9028V65.9112V65.9196V65.928V65.9364V65.9448V65.9532V65.9616V65.97V65.9784V65.9869V65.9953V66.0038V66.0122V66.0207V66.0291V66.0376V66.0461V66.0546V66.0631V66.0716V66.0801V66.0886V66.0971V66.1056V66.1142V66.1227V66.1313V66.1398V66.1484V66.157V66.1656V66.1742V66.1828V66.1914V66.2V66.2086V66.2173V66.2259V66.2346V66.2433V66.2519V66.2606V66.2693V66.2781V66.2868V66.2955V66.3043V66.313V66.3218V66.3306V66.3394V66.3482V66.357V66.3658V66.3747V66.3835V66.3924V66.4013V66.4102V66.4191V66.428V66.4369V66.4459V66.4548V66.4638V66.4728V66.4818V66.4908V66.4998V66.5089V66.518V66.527V66.5361V66.5452V66.5543V66.5635V66.5726V66.5818V66.591V66.6002V66.6094V66.6186V66.6279V66.6371V66.6464V66.6557V66.665V66.6744V66.6837V66.6931V66.7025V66.7119V66.7213V66.7308V66.7402V66.7497V66.7592V66.7687V66.7782V66.7878V66.7974V66.807V66.8166V66.8262V66.8359V66.8455V66.8552V66.8649V66.8747V240.939C220.5 244.648 217.503 247.652 213.808 247.652H41.1923C37.4977 247.652 34.5 244.648 34.5 240.939V9.17359C34.5 5.46509 37.4977 2.46094 41.1923 2.46094H156.269C156.436 2.46094 156.767 2.52846 157.27 2.69061C157.756 2.8471 158.353 3.07491 159.028 3.35672C160.376 3.91988 162.008 4.68759 163.626 5.50053C165.244 6.31316 166.843 7.16759 168.124 7.9026C168.765 8.27025 169.323 8.60607 169.764 8.89049C170.21 9.17875 170.508 9.397 170.653 9.53339C170.654 9.53443 170.655 9.53547 170.656 9.5365L218.509 56.7145L218.51 56.7149L218.592 56.8435L218.883 57.2957C219.12 57.6655 219.43 58.1479 219.72 58.5988ZM168.96 31.3926C166.779 29.2059 162.962 30.7002 162.962 33.8032V56.7196C162.962 58.6299 164.538 60.1621 166.462 60.1621H189.313C192.394 60.1621 193.999 56.5017 191.812 54.309L168.96 31.3926ZM51.5 228.045C51.5 229.956 53.0762 231.487 55 231.487H200C201.924 231.487 203.5 229.956 203.5 228.045V80.4284C203.5 78.518 201.924 76.9859 200 76.9859H163.462C163.084 76.9859 162.501 76.8132 161.726 76.4342C160.967 76.0629 160.078 75.5217 159.108 74.85C157.169 73.5074 154.941 71.6693 152.832 69.7021C150.723 67.7346 148.744 65.6498 147.296 63.8176C146.572 62.9008 145.989 62.0573 145.59 61.3307C145.182 60.5878 145 60.0285 145 59.6621V22.0682C145 20.1579 143.424 18.6257 141.5 18.6257H55C53.0761 18.6257 51.5 20.1579 51.5 22.0682V228.045Z" fill="url(#paint0_linear)" stroke="url(#paint1_linear)"/>
<path d="M76.5078 141.723H118.434" stroke="url(#paint2_linear)" stroke-width="8"/>
<path d="M76.5078 188.055H177.174" stroke="url(#paint3_linear)" stroke-width="8"/>
<path d="M76.5078 164.887H160.841" stroke="url(#paint4_linear)" stroke-width="8"/>
<path d="M76.5078 211.223H160.841" stroke="url(#paint5_linear)" stroke-width="8"/>
<path d="M76.5078 118.555H118.434" stroke="url(#paint6_linear)" stroke-width="8"/>
<path d="M148.76 112.26H148.26V112.76V136.75V137.25H148.76H172.76H173.26V136.75V112.76V112.26H172.76H148.76ZM182.021 146.021H139.5V103.5H182.021V146.021Z" fill="url(#paint7_linear)" stroke="url(#paint8_linear)"/>
<defs>
<linearGradient id="paint0_linear" x1="127.5" y1="248.152" x2="127.5" y2="1.96094" gradientUnits="userSpaceOnUse">
<stop stop-color="#5570FF"/>
<stop offset="1" stop-color="#4DD3FF"/>
</linearGradient>
<linearGradient id="paint1_linear" x1="127.5" y1="248.152" x2="127.5" y2="1.96094" gradientUnits="userSpaceOnUse">
<stop stop-color="#5570FF"/>
<stop offset="1" stop-color="#4DD3FF"/>
</linearGradient>
<linearGradient id="paint2_linear" x1="97.4711" y1="142.723" x2="97.4711" y2="141.723" gradientUnits="userSpaceOnUse">
<stop stop-color="#5570FF"/>
<stop offset="1" stop-color="#4DD3FF"/>
</linearGradient>
<linearGradient id="paint3_linear" x1="126.841" y1="189.055" x2="126.841" y2="188.055" gradientUnits="userSpaceOnUse">
<stop stop-color="#5570FF"/>
<stop offset="1" stop-color="#4DD3FF"/>
</linearGradient>
<linearGradient id="paint4_linear" x1="118.675" y1="165.887" x2="118.675" y2="164.887" gradientUnits="userSpaceOnUse">
<stop stop-color="#5570FF"/>
<stop offset="1" stop-color="#4DD3FF"/>
</linearGradient>
<linearGradient id="paint5_linear" x1="118.675" y1="212.223" x2="118.675" y2="211.223" gradientUnits="userSpaceOnUse">
<stop stop-color="#5570FF"/>
<stop offset="1" stop-color="#4DD3FF"/>
</linearGradient>
<linearGradient id="paint6_linear" x1="97.4711" y1="119.555" x2="97.4711" y2="118.555" gradientUnits="userSpaceOnUse">
<stop stop-color="#5570FF"/>
<stop offset="1" stop-color="#4DD3FF"/>
</linearGradient>
<linearGradient id="paint7_linear" x1="160.761" y1="146.521" x2="160.761" y2="103" gradientUnits="userSpaceOnUse">
<stop stop-color="#5570FF"/>
<stop offset="1" stop-color="#4DD3FF"/>
</linearGradient>
<linearGradient id="paint8_linear" x1="160.761" y1="146.521" x2="160.761" y2="103" gradientUnits="userSpaceOnUse">
<stop stop-color="#5570FF"/>
<stop offset="1" stop-color="#4DD3FF"/>
</linearGradient>
</defs>
</svg>
