<svg width="256" height="256" viewBox="0 0 256 256" fill="none" xmlns="http://www.w3.org/2000/svg">
<path d="M221 62.4373C221 61.4326 220.677 60.3181 220.141 59.4684C219.561 58.549 218.901 57.5014 218.9 57.5L171 9.35352C169.555 7.95733 158.291 2 156.269 2H41.1923C37.2202 2 34 5.29241 34 9.35352V245.646C34 249.708 37.2202 253 41.1923 253H213.808C217.78 253 221 249.708 221 245.646V68.1816C221 66.4864 221 65.7083 221 62.4373ZM163.462 34.4642C163.462 31.7754 166.726 30.4443 168.606 32.3665L191.458 55.7304C193.316 57.6297 191.97 60.8281 189.313 60.8281H166.462C164.805 60.8281 163.462 59.485 163.462 57.8281V34.4642ZM55 235.5C53.3431 235.5 52 234.157 52 232.5V22.5C52 20.8431 53.3431 19.5 55 19.5H141.5C143.157 19.5 144.5 20.8431 144.5 22.5V60.8281C144.5 64.8892 159.489 79 163.462 79H200C201.657 79 203 80.3431 203 82V232.5C203 234.157 201.657 235.5 200 235.5H55Z" fill="url(#paint0_linear)"/>
<path d="M128.203 108L92.7375 113.063L66 150.502L128.203 223.064L190.397 150.502L163.659 113.063L128.203 108ZM116.344 119.161L101.03 136.664L102.094 121.205L116.344 119.161V119.161ZM140.063 119.161L154.313 121.195L155.377 136.664L140.058 119.161H140.063ZM128.203 119.859L150.689 145.547H105.717L128.203 119.859ZM92.0859 130.111L91.0125 145.547H81.0609L92.0859 130.111ZM164.32 130.12L175.345 145.547H165.394L164.32 130.12V130.12ZM82.1484 154.922H92.4984L106.983 183.9L82.1531 154.922H82.1484ZM102.98 154.922H153.427L128.203 205.378L102.984 154.922H102.98ZM163.908 154.922H174.253L149.423 183.9L163.908 154.922V154.922Z" fill="url(#paint1_linear)"/>
<defs>
<linearGradient id="paint0_linear" x1="127.5" y1="253" x2="127.5" y2="2" gradientUnits="userSpaceOnUse">
<stop stop-color="#FD2E00"/>
<stop offset="1" stop-color="#FF9900"/>
</linearGradient>
<linearGradient id="paint1_linear" x1="128.198" y1="223.064" x2="128.198" y2="108" gradientUnits="userSpaceOnUse">
<stop stop-color="#FD2E00"/>
<stop offset="1" stop-color="#FF9900"/>
</linearGradient>
</defs>
</svg>
