<svg width="256" height="256" viewBox="0 0 256 256" fill="none" xmlns="http://www.w3.org/2000/svg">
<path d="M221 62.4373C221 61.4326 220.677 60.3181 220.141 59.4684C219.561 58.549 218.901 57.5014 218.9 57.5L171 9.35352C169.555 7.95733 158.291 2 156.269 2H41.1923C37.2202 2 34 5.29241 34 9.35352V245.646C34 249.708 37.2202 253 41.1923 253H213.808C217.78 253 221 249.708 221 245.646V68.1816C221 66.4864 221 65.7083 221 62.4373ZM163.462 34.4642C163.462 31.7754 166.726 30.4443 168.606 32.3665L191.458 55.7304C193.316 57.6297 191.97 60.8281 189.313 60.8281H166.462C164.805 60.8281 163.462 59.485 163.462 57.8281V34.4642ZM55 235.5C53.3431 235.5 52 234.157 52 232.5V22.5C52 20.8431 53.3431 19.5 55 19.5H141.5C143.157 19.5 144.5 20.8431 144.5 22.5V60.8281C144.5 64.8892 159.489 79 163.462 79H200C201.657 79 203 80.3431 203 82V232.5C203 234.157 201.657 235.5 200 235.5H55Z" fill="url(#paint0_linear)"/>
<path d="M71.254 164.838C72.2268 160.064 77.0232 157.082 81.6548 157.451C94.2968 157.484 106.972 157.183 119.614 157.602C123.916 157.602 126.306 161.572 128.597 164.654C127.674 168.858 127.13 174.436 122.334 175.944C116.631 177.485 110.614 176.681 104.78 176.832C94.3464 176.497 83.6984 177.971 73.496 175.09C72.408 171.773 70.2652 168.456 71.254 164.838Z" fill="url(#paint1_linear)"/>
<path d="M147.072 168.052C146.38 162.825 150.765 157.566 156.006 157.599C163.143 157.381 170.313 157.164 177.433 157.783C183.433 158.57 186.812 165.958 184.257 171.352C182.246 175.004 178.406 177.114 174.301 176.846C165.978 177.131 157.506 177.399 149.413 175.07C148.622 172.725 147.583 170.481 147.072 168.052Z" fill="url(#paint2_linear)"/>
<path d="M73.1823 190.192C75.9187 186.406 80.8799 186.64 85.0003 186.657C102.604 186.808 120.207 186.506 137.794 186.791C143.069 186.691 147.766 191.699 147.123 197.076C147.271 201.532 143.613 204.748 139.805 206.139C119.218 206.022 98.6315 206.089 78.0283 206.105C71.7155 204.062 68.6167 195.452 73.1823 190.192Z" fill="url(#paint3_linear)"/>
<path d="M146.313 101.82C149.561 103.76 149.561 108.466 146.313 110.406L117.564 127.576C114.231 129.567 110 127.166 110 123.284V88.9417C110 85.0597 114.231 82.6587 117.564 84.6497L146.313 101.82Z" fill="url(#paint4_linear)"/>
<defs>
<linearGradient id="paint0_linear" x1="202" y1="165" x2="83.8438" y2="17.1568" gradientUnits="userSpaceOnUse">
<stop stop-color="#FF928B"/>
<stop offset="1" stop-color="#DC3282"/>
</linearGradient>
<linearGradient id="paint1_linear" x1="122.745" y1="170.067" x2="119.084" y2="151.945" gradientUnits="userSpaceOnUse">
<stop stop-color="#FF928B"/>
<stop offset="1" stop-color="#DC3282"/>
</linearGradient>
<linearGradient id="paint2_linear" x1="181.245" y1="170.14" x2="175.924" y2="152.804" gradientUnits="userSpaceOnUse">
<stop stop-color="#FF928B"/>
<stop offset="1" stop-color="#DC3282"/>
</linearGradient>
<linearGradient id="paint3_linear" x1="139.442" y1="199.306" x2="136.641" y2="180.92" gradientUnits="userSpaceOnUse">
<stop stop-color="#FF928B"/>
<stop offset="1" stop-color="#DC3282"/>
</linearGradient>
<linearGradient id="paint4_linear" x1="144.812" y1="112.74" x2="124.887" y2="83.506" gradientUnits="userSpaceOnUse">
<stop stop-color="#FF928B"/>
<stop offset="1" stop-color="#DC3282"/>
</linearGradient>
</defs>
</svg>
