<svg width="256" height="256" viewBox="0 0 256 256" fill="none" xmlns="http://www.w3.org/2000/svg">
<path d="M221 62.4373C221 61.4326 220.677 60.3181 220.141 59.4684C219.561 58.549 218.9 57.5 218.9 57.5L171 9.35352C169.555 7.95733 158.291 2 156.269 2H41.1923C37.2202 2 34 5.29241 34 9.35352V245.646C34 249.708 37.2202 253 41.1923 253H213.808C217.78 253 221 249.708 221 245.646V68.1816C221 66.4864 221 65.7083 221 62.4373ZM163.462 34.4642C163.462 31.7754 166.726 30.4443 168.606 32.3665L191.458 55.7304C193.316 57.6297 191.97 60.8281 189.313 60.8281H166.462C164.805 60.8281 163.462 59.485 163.462 57.8281V34.4642ZM55 235.5C53.3431 235.5 52 234.157 52 232.5V22.5C52 20.8431 53.3431 19.5 55 19.5H141.5C143.157 19.5 144.5 20.8431 144.5 22.5V60.8281C144.5 64.8892 159.489 79 163.462 79H200C201.657 79 203 80.3431 203 82V232.5C203 234.157 201.657 235.5 200 235.5H55Z" fill="url(#paint0_linear_667_167)"/>
<path fill-rule="evenodd" clip-rule="evenodd" d="M136.688 103.887C136.26 100.528 138.95 96.9813 142.564 97.1044C149.024 97.0186 155.493 96.9716 161.952 97.0186C165.323 96.8 168.636 99.5235 168.694 102.882C169.091 106.173 166.314 109.295 162.972 109.58C160.72 109.814 158.455 109.773 156.189 109.733C153.962 109.693 151.735 109.653 149.519 109.873C148.55 110.269 148.556 111.308 148.562 112.273C148.564 112.654 148.566 113.022 148.509 113.336C148.488 121.414 148.502 129.494 148.516 137.575C148.541 152.006 148.567 166.44 148.393 180.865C147.013 187.96 141.118 193.994 134.153 196.253C123.477 199.772 110.598 193.853 106.75 183.464C103.03 174.84 106.265 164.083 113.987 158.628C120.505 154.064 129.373 153.524 136.756 156.283C136.794 144.864 136.761 133.445 136.729 122.025V122.024L136.729 122.018C136.712 115.974 136.695 109.931 136.688 103.887ZM78.5894 184.337C75.1744 163.161 86.8752 140.57 106.542 130.954C110.005 129.509 114.045 133.095 112.805 136.586C112.341 138.391 110.728 139.279 109.166 140.139L109.166 140.139C108.68 140.407 108.199 140.672 107.758 140.961C93.1296 149.835 85.0037 167.722 88.1948 184.267C88.279 184.899 88.4412 185.551 88.605 186.209C89.0638 188.053 89.5353 189.948 88.3389 191.617C87.533 193.02 85.9286 193.419 84.4415 193.789C84.3051 193.823 84.1697 193.856 84.036 193.89C79.893 193.094 79.2739 188.919 78.7576 185.437C78.7018 185.061 78.6471 184.692 78.5894 184.337ZM175.864 160.867C174.936 158.344 171.504 157.165 169.161 158.579C167.402 159.602 166.362 161.75 166.921 163.711C168.706 170.631 168.873 177.967 167.066 184.903C164.234 196.385 156.261 206.517 145.631 212.157C142.24 213.547 142.008 218.694 145.256 220.366C148.01 221.974 150.715 220.202 153.111 218.633C153.601 218.312 154.079 217.999 154.541 217.726C173.056 205.782 182.286 181.685 175.864 160.867Z" fill="url(#paint1_linear_667_167)"/>
<path d="M142.564 97.1044L142.462 100.103L142.533 100.105L142.604 100.104L142.564 97.1044ZM136.688 103.887L139.688 103.884L139.688 103.695L139.664 103.508L136.688 103.887ZM161.952 97.0186L161.93 100.019L162.038 100.019L162.146 100.012L161.952 97.0186ZM168.694 102.882L165.695 102.934L165.697 103.088L165.716 103.242L168.694 102.882ZM162.972 109.58L162.717 106.591L162.69 106.593L162.662 106.596L162.972 109.58ZM156.189 109.733L156.243 106.733L156.243 106.733L156.189 109.733ZM149.519 109.873L149.221 106.888L148.789 106.931L148.386 107.096L149.519 109.873ZM148.562 112.273L145.562 112.291L145.562 112.291L148.562 112.273ZM148.509 113.336L145.558 112.795L145.51 113.059L145.509 113.328L148.509 113.336ZM148.516 137.575L151.516 137.57L151.516 137.57L148.516 137.575ZM148.393 180.865L151.338 181.438L151.389 181.172L151.392 180.901L148.393 180.865ZM134.153 196.253L133.227 193.399L133.22 193.401L133.213 193.403L134.153 196.253ZM106.75 183.464L109.564 182.422L109.536 182.348L109.505 182.276L106.75 183.464ZM113.987 158.628L112.266 156.17L112.256 156.177L113.987 158.628ZM136.756 156.283L135.705 159.093L139.741 160.602L139.756 156.293L136.756 156.283ZM136.729 122.025L133.729 122.025L133.729 122.033L136.729 122.025ZM136.729 122.024L139.729 122.024L139.729 122.014L136.729 122.024ZM136.729 122.018L133.729 122.027L133.729 122.029L136.729 122.018ZM106.542 130.954L105.387 128.185L105.305 128.22L105.225 128.259L106.542 130.954ZM78.5894 184.337L75.6277 184.815L75.6283 184.819L78.5894 184.337ZM112.805 136.586L109.978 135.582L109.933 135.709L109.899 135.839L112.805 136.586ZM109.166 140.139L110.578 142.786L110.596 142.777L110.613 142.767L109.166 140.139ZM109.166 140.139L107.754 137.492L107.737 137.501L107.719 137.511L109.166 140.139ZM107.758 140.961L109.314 143.526L109.36 143.498L109.405 143.468L107.758 140.961ZM88.1948 184.267L91.1687 183.871L91.1571 183.784L91.1406 183.698L88.1948 184.267ZM88.605 186.209L85.6937 186.934L85.6937 186.934L88.605 186.209ZM88.3389 191.617L85.9005 189.87L85.8127 189.992L85.7376 190.123L88.3389 191.617ZM84.4415 193.789L83.7177 190.877L83.7176 190.877L84.4415 193.789ZM84.036 193.89L83.4693 196.836L84.1285 196.963L84.7788 196.797L84.036 193.89ZM78.7576 185.437L75.79 185.877L75.79 185.877L78.7576 185.437ZM169.161 158.579L170.67 161.172L170.691 161.16L170.712 161.147L169.161 158.579ZM175.864 160.867L178.73 159.983L178.707 159.907L178.679 159.832L175.864 160.867ZM166.921 163.711L169.826 162.962L169.817 162.925L169.806 162.888L166.921 163.711ZM167.066 184.903L164.163 184.146L164.158 184.165L164.153 184.184L167.066 184.903ZM145.631 212.157L146.769 214.933L146.906 214.877L147.037 214.807L145.631 212.157ZM145.256 220.366L146.768 217.775L146.7 217.735L146.629 217.698L145.256 220.366ZM153.111 218.633L154.755 221.143L154.755 221.143L153.111 218.633ZM154.541 217.726L156.069 220.308L156.119 220.278L156.167 220.247L154.541 217.726ZM142.666 94.1062C136.923 93.9104 133.088 99.3653 133.712 104.266L139.664 103.508C139.432 101.691 140.978 100.052 142.462 100.103L142.666 94.1062ZM161.974 94.0187C155.487 93.9714 148.995 94.0187 142.524 94.1047L142.604 100.104C149.052 100.019 155.5 99.9717 161.93 100.019L161.974 94.0187ZM171.694 102.83C171.602 97.5453 166.617 93.7097 161.758 94.0249L162.146 100.012C164.029 99.8902 165.67 101.502 165.695 102.934L171.694 102.83ZM163.227 112.569C168.082 112.155 172.294 107.672 171.673 102.523L165.716 103.242C165.889 104.674 164.546 106.435 162.717 106.591L163.227 112.569ZM156.136 112.732C158.37 112.772 160.818 112.82 163.282 112.564L162.662 106.596C160.621 106.808 158.539 106.774 156.243 106.733L156.136 112.732ZM149.817 112.859C151.828 112.658 153.879 112.692 156.136 112.732L156.243 106.733C154.046 106.694 151.642 106.647 149.221 106.888L149.817 112.859ZM151.562 112.256C151.56 111.997 151.561 111.847 151.568 111.719C151.575 111.594 151.585 111.593 151.567 111.659C151.545 111.736 151.477 111.937 151.295 112.163C151.099 112.406 150.86 112.567 150.652 112.651L148.386 107.096C146.853 107.721 146.091 108.949 145.784 110.06C145.532 110.968 145.56 111.914 145.562 112.291L151.562 112.256ZM151.46 113.877C151.578 113.23 151.564 112.555 151.562 112.256L145.562 112.291C145.563 112.494 145.564 112.617 145.56 112.723C145.556 112.827 145.55 112.838 145.558 112.795L151.46 113.877ZM151.516 137.57C151.502 129.488 151.488 121.414 151.509 113.344L145.509 113.328C145.488 121.414 145.502 129.5 145.516 137.58L151.516 137.57ZM151.392 180.901C151.567 166.452 151.541 151.998 151.516 137.57L145.516 137.58C145.541 152.015 145.567 166.428 145.393 180.829L151.392 180.901ZM135.078 199.106C142.946 196.555 149.724 189.737 151.338 181.438L145.448 180.293C144.302 186.184 139.289 191.433 133.227 193.399L135.078 199.106ZM103.937 184.506C108.372 196.482 122.958 203.102 135.092 199.102L133.213 193.403C123.997 196.442 112.823 191.224 109.564 182.422L103.937 184.506ZM112.256 156.177C103.425 162.416 99.6901 174.67 103.996 184.652L109.505 182.276C106.371 175.009 109.104 165.75 115.718 161.078L112.256 156.177ZM137.806 153.473C129.654 150.426 119.721 150.95 112.266 156.17L115.707 161.085C121.289 157.177 129.092 156.622 135.705 159.093L137.806 153.473ZM133.729 122.033C133.761 133.455 133.794 144.865 133.756 156.273L139.756 156.293C139.794 144.863 139.761 133.435 139.729 122.016L133.729 122.033ZM133.729 122.024V122.025H139.729V122.024H133.729ZM133.729 122.029L133.729 122.035L139.729 122.014L139.729 122.007L133.729 122.029ZM133.688 103.89C133.695 109.937 133.712 115.983 133.729 122.027L139.729 122.01C139.712 115.965 139.695 109.924 139.688 103.884L133.688 103.89ZM105.225 128.259C84.384 138.449 71.9999 162.319 75.6277 184.815L81.5511 183.86C78.3488 164.002 89.3665 142.691 107.86 133.649L105.225 128.259ZM115.632 137.59C116.753 134.433 115.404 131.443 113.438 129.684C111.475 127.927 108.398 126.929 105.387 128.185L107.698 133.723C108.15 133.534 108.824 133.607 109.437 134.155C110.046 134.7 110.096 135.249 109.978 135.582L115.632 137.59ZM110.613 142.767C111.914 142.051 114.87 140.603 115.71 137.333L109.899 135.839C109.863 135.98 109.784 136.152 109.46 136.426C109.073 136.754 108.555 137.051 107.719 137.511L110.613 142.767ZM110.578 142.786L110.578 142.786L107.755 137.492L107.754 137.492L110.578 142.786ZM109.405 143.468C109.73 143.255 110.106 143.046 110.613 142.767L107.719 137.511C107.254 137.767 106.667 138.088 106.112 138.453L109.405 143.468ZM91.1406 183.698C88.1939 168.421 95.7274 151.768 109.314 143.526L106.202 138.396C90.5318 147.902 81.8135 167.022 85.2491 184.835L91.1406 183.698ZM91.5162 185.485C91.344 184.793 91.2267 184.308 91.1687 183.871L85.221 184.662C85.3313 185.491 85.5384 186.309 85.6937 186.934L91.5162 185.485ZM90.7773 193.365C92.9086 190.391 91.9042 187.044 91.5162 185.485L85.6937 186.934C85.9395 187.921 86.0789 188.533 86.0939 189.063C86.1058 189.489 86.0288 189.691 85.9005 189.87L90.7773 193.365ZM85.1654 196.7C86.3512 196.405 89.3882 195.813 90.9402 193.112L85.7376 190.123C85.7308 190.135 85.6911 190.225 85.3758 190.372C84.998 190.549 84.5169 190.679 83.7177 190.877L85.1654 196.7ZM84.7788 196.797C84.9015 196.766 85.0274 196.734 85.1655 196.7L83.7176 190.877C83.5828 190.911 83.4379 190.947 83.2931 190.984L84.7788 196.797ZM75.79 185.877C76.0333 187.518 76.362 189.892 77.3186 191.94C78.3667 194.184 80.2506 196.217 83.4693 196.836L84.6026 190.944C83.6783 190.767 83.1812 190.314 82.755 189.401C82.2372 188.292 81.9982 186.838 81.7251 184.997L75.79 185.877ZM75.6283 184.819C75.6821 185.15 75.7336 185.497 75.79 185.877L81.7251 184.997C81.6699 184.625 81.6122 184.235 81.5505 183.856L75.6283 184.819ZM170.712 161.147C171.002 160.972 171.5 160.889 172.072 161.085C172.647 161.282 172.951 161.639 173.048 161.902L178.679 159.832C177.849 157.572 175.973 156.078 174.014 155.408C172.053 154.737 169.664 154.772 167.611 156.011L170.712 161.147ZM169.806 162.888C169.678 162.438 169.916 161.611 170.67 161.172L167.653 155.986C164.889 157.593 163.046 161.062 164.036 164.534L169.806 162.888ZM169.969 185.659C171.917 178.182 171.725 170.326 169.826 162.962L164.016 164.46C165.686 170.936 165.829 177.751 164.163 184.146L169.969 185.659ZM147.037 214.807C158.405 208.775 166.938 197.95 169.979 185.621L164.153 184.184C161.531 194.82 154.116 204.258 144.225 209.507L147.037 214.807ZM146.629 217.698C146.243 217.5 145.917 217.027 145.951 216.292C145.984 215.558 146.353 215.103 146.769 214.933L144.493 209.381C141.517 210.601 140.075 213.415 139.957 216.02C139.839 218.624 141.021 221.56 143.883 223.033L146.629 217.698ZM151.467 216.123C150.195 216.956 149.253 217.551 148.373 217.843C147.643 218.085 147.216 218.036 146.768 217.775L143.743 222.956C146.049 224.303 148.353 224.172 150.263 223.538C152.023 222.954 153.631 221.878 154.755 221.143L151.467 216.123ZM153.014 215.143C152.482 215.458 151.945 215.81 151.467 216.123L154.755 221.143C155.258 220.813 155.676 220.54 156.069 220.308L153.014 215.143ZM172.997 161.751C179.006 181.229 170.349 203.958 152.915 215.205L156.167 220.247C175.763 207.606 185.566 182.14 178.73 159.983L172.997 161.751Z" fill="url(#paint2_linear_667_167)"/>
<defs>
<linearGradient id="paint0_linear_667_167" x1="127.5" y1="253" x2="127.5" y2="1.99999" gradientUnits="userSpaceOnUse">
<stop stop-color="#02AA93"/>
<stop offset="1" stop-color="#67FF80"/>
</linearGradient>
<linearGradient id="paint1_linear_667_167" x1="160.423" y1="221" x2="160.423" y2="157.973" gradientUnits="userSpaceOnUse">
<stop stop-color="#02AA93"/>
<stop offset="1" stop-color="#67FF80"/>
</linearGradient>
<linearGradient id="paint2_linear_667_167" x1="160.423" y1="221" x2="160.423" y2="157.973" gradientUnits="userSpaceOnUse">
<stop stop-color="#02AA93"/>
<stop offset="1" stop-color="#67FF80"/>
</linearGradient>
</defs>
</svg>
