<svg width="256" height="256" viewBox="0 0 256 256" fill="none" xmlns="http://www.w3.org/2000/svg">
<path d="M221 62.4373C221 61.4326 220.677 60.3181 220.141 59.4684C219.561 58.549 218.9 57.5 218.9 57.5L171 9.35352C169.555 7.95733 158.291 2 156.269 2H41.1923C37.2202 2 34 5.29241 34 9.35352V245.646C34 249.708 37.2202 253 41.1923 253H213.808C217.78 253 221 249.708 221 245.646V68.1816C221 66.4864 221 65.7083 221 62.4373ZM163.462 34.4642C163.462 31.7754 166.726 30.4443 168.606 32.3665L191.458 55.7304C193.316 57.6297 191.97 60.8281 189.313 60.8281H166.462C164.805 60.8281 163.462 59.485 163.462 57.8281V34.4642ZM55 235.5C53.3431 235.5 52 234.157 52 232.5V22.5C52 20.8431 53.3431 19.5 55 19.5H141.5C143.157 19.5 144.5 20.8431 144.5 22.5V60.8281C144.5 64.8892 159.489 79 163.462 79H200C201.657 79 203 80.3431 203 82V232.5C203 234.157 201.657 235.5 200 235.5H55Z" fill="url(#paint0_linear)"/>
<path d="M116.115 101.203C118.473 100.415 121.351 102.005 121.575 104.494C121.997 106.694 120.298 108.861 118.045 109.142C107.032 111.144 96.735 116.71 89.2105 124.827C80.4086 134.109 75.2987 146.695 75.376 159.364C75.2286 170.723 79.1733 182.083 86.3327 191.029C91.941 198.069 99.4444 203.677 107.909 207.036C119.533 211.718 132.89 212.102 144.773 208.105C154.326 204.952 162.848 198.981 169.032 191.221C176.311 182.227 180.354 170.792 180.22 159.323C180.185 147.916 176.17 136.529 168.821 127.638C168.084 126.664 167.13 125.684 167.094 124.395C166.505 120.289 172.647 118.349 174.773 121.852C182.08 130.51 186.783 141.239 188.117 152.385C190.005 166.734 186.179 181.692 177.679 193.531C169.951 204.52 158.271 212.767 145.188 216.551C133.908 219.883 121.653 219.89 110.394 216.462C95.3593 211.999 82.2617 201.689 74.639 188.266C67.9287 176.646 65.5633 162.764 67.8445 149.63C69.8589 137.804 75.6848 126.65 84.241 118.067C92.7762 109.443 104.056 103.479 116.115 101.203Z" fill="url(#paint1_linear)" stroke="url(#paint2_linear)" stroke-width="2"/>
<path d="M134.961 107.928C134.652 105.501 136.596 102.938 139.207 103.027C143.875 102.965 148.55 102.931 153.217 102.965C155.653 102.807 158.047 104.775 158.089 107.202C158.376 109.58 156.369 111.836 153.954 112.042C150.726 112.377 147.462 111.932 144.233 112.254C143.257 112.652 143.65 113.954 143.503 114.756C143.461 131.017 143.615 147.292 143.419 163.553C142.422 168.68 138.162 173.04 133.129 174.672C125.415 177.215 116.108 172.938 113.328 165.431C110.64 159.199 112.977 151.426 118.557 147.484C123.267 144.186 129.675 143.796 135.01 145.79C135.052 133.17 134.975 120.549 134.961 107.928Z" fill="url(#paint3_linear)" stroke="url(#paint4_linear)" stroke-width="2"/>
<path d="M83.1249 166.96C80.1278 148.375 90.3967 128.549 107.657 120.11C110.696 118.842 114.241 121.989 113.153 125.053C112.619 127.13 110.352 127.823 108.724 128.892C95.8856 136.68 88.7542 152.378 91.5548 166.898C91.8356 169.009 93.106 171.361 91.6812 173.349C90.9091 174.693 89.3017 174.987 87.9049 175.344C83.8759 174.569 83.6443 170.154 83.1249 166.96Z" fill="url(#paint5_linear)" stroke="url(#paint6_linear)" stroke-width="2"/>
<path d="M124.587 131.374C126.524 131.264 128.924 130.716 130.419 132.285C132.434 134.465 131.543 139.326 128.019 139.292C121.765 139.381 115.588 142.102 111.693 146.935C105.446 154.175 105.656 165.726 112.114 172.773C118.066 179.814 129.128 181.918 137.333 177.517C145.019 173.699 149.666 164.876 148.227 156.553C148.037 154.236 146.346 151.919 147.469 149.616C148.585 147.079 152.551 146.551 154.333 148.704C155.583 150.432 155.906 152.612 156.355 154.634C158.166 163.848 154.734 173.74 147.806 180.177C142.661 184.873 135.775 187.889 128.686 187.944C120.579 188.342 112.458 184.983 106.899 179.251C100.652 173.034 97.6895 163.889 99.1003 155.285C100.841 142.925 111.861 132.56 124.587 131.374Z" fill="url(#paint7_linear)" stroke="url(#paint8_linear)" stroke-width="2"/>
<path d="M165.417 145.167C167.473 143.926 170.485 144.961 171.299 147.175C176.935 165.445 168.835 186.593 152.586 197.075C150.199 198.487 147.349 201.092 144.437 199.392C141.587 197.925 141.79 193.408 144.766 192.188C154.095 187.238 161.093 178.346 163.578 168.269C165.164 162.182 165.017 155.744 163.451 149.671C162.96 147.95 163.873 146.065 165.417 145.167Z" fill="url(#paint9_linear)" stroke="url(#paint10_linear)" stroke-width="2"/>
<defs>
<linearGradient id="paint0_linear" x1="34.0274" y1="123.781" x2="221.031" y2="123.781" gradientUnits="userSpaceOnUse">
<stop stop-color="#A93AFF"/>
<stop offset="1" stop-color="#FF81FF"/>
</linearGradient>
<linearGradient id="paint1_linear" x1="67.0178" y1="158.272" x2="188.61" y2="158.272" gradientUnits="userSpaceOnUse">
<stop stop-color="#A93AFF"/>
<stop offset="1" stop-color="#FF81FF"/>
</linearGradient>
<linearGradient id="paint2_linear" x1="67.0178" y1="158.272" x2="188.61" y2="158.272" gradientUnits="userSpaceOnUse">
<stop stop-color="#A93AFF"/>
<stop offset="1" stop-color="#FF81FF"/>
</linearGradient>
<linearGradient id="paint3_linear" x1="67.0177" y1="158.272" x2="188.61" y2="158.272" gradientUnits="userSpaceOnUse">
<stop stop-color="#A93AFF"/>
<stop offset="1" stop-color="#FF81FF"/>
</linearGradient>
<linearGradient id="paint4_linear" x1="112.219" y1="138.106" x2="158.124" y2="138.106" gradientUnits="userSpaceOnUse">
<stop stop-color="#A93AFF"/>
<stop offset="1" stop-color="#FF81FF"/>
</linearGradient>
<linearGradient id="paint5_linear" x1="67.0178" y1="158.272" x2="188.61" y2="158.272" gradientUnits="userSpaceOnUse">
<stop stop-color="#A93AFF"/>
<stop offset="1" stop-color="#FF81FF"/>
</linearGradient>
<linearGradient id="paint6_linear" x1="82.6122" y1="146.76" x2="113.359" y2="146.76" gradientUnits="userSpaceOnUse">
<stop stop-color="#A93AFF"/>
<stop offset="1" stop-color="#FF81FF"/>
</linearGradient>
<linearGradient id="paint7_linear" x1="67.0177" y1="158.272" x2="188.61" y2="158.272" gradientUnits="userSpaceOnUse">
<stop stop-color="#A93AFF"/>
<stop offset="1" stop-color="#FF81FF"/>
</linearGradient>
<linearGradient id="paint8_linear" x1="98.7628" y1="158.743" x2="156.843" y2="158.743" gradientUnits="userSpaceOnUse">
<stop stop-color="#A93AFF"/>
<stop offset="1" stop-color="#FF81FF"/>
</linearGradient>
<linearGradient id="paint9_linear" x1="67.0177" y1="158.272" x2="188.61" y2="158.272" gradientUnits="userSpaceOnUse">
<stop stop-color="#A93AFF"/>
<stop offset="1" stop-color="#FF81FF"/>
</linearGradient>
<linearGradient id="paint10_linear" x1="142.417" y1="171.472" x2="173.09" y2="171.472" gradientUnits="userSpaceOnUse">
<stop stop-color="#A93AFF"/>
<stop offset="1" stop-color="#FF81FF"/>
</linearGradient>
</defs>
</svg>
