<svg width="256" height="256" viewBox="0 0 256 256" fill="none" xmlns="http://www.w3.org/2000/svg">
<path d="M221 62.4373C221 61.4326 220.677 60.3181 220.141 59.4684C219.561 58.549 218.901 57.5014 218.9 57.5L171 9.35352C169.555 7.95733 158.291 2 156.269 2H41.1923C37.2202 2 34 5.29241 34 9.35352V245.646C34 249.708 37.2202 253 41.1923 253H213.808C217.78 253 221 249.708 221 245.646V68.1816C221 66.4864 221 65.7083 221 62.4373ZM163.462 34.4642C163.462 31.7754 166.726 30.4443 168.606 32.3665L191.458 55.7304C193.316 57.6297 191.97 60.8281 189.313 60.8281H166.462C164.805 60.8281 163.462 59.485 163.462 57.8281V34.4642ZM55 235.5C53.3431 235.5 52 234.157 52 232.5V22.5C52 20.8431 53.3431 19.5 55 19.5H141.5C143.157 19.5 144.5 20.8431 144.5 22.5V60.8281C144.5 64.8892 159.489 79 163.462 79H200C201.657 79 203 80.3431 203 82V232.5C203 234.157 201.657 235.5 200 235.5H55Z" fill="url(#paint0_linear)"/>
<path d="M160 186.234C160 195.074 151.04 202.234 140 202.234C128.96 202.234 120 195.074 120 186.234C120 177.394 128.96 170.234 140 170.234C151.04 170.234 160 177.394 160 186.234Z" fill="url(#paint1_linear)"/>
<path fill-rule="evenodd" clip-rule="evenodd" d="M160 106.234V186.234H152V106.234H160Z" fill="url(#paint2_linear)"/>
<path d="M152 104.795C152.001 102.946 152.642 101.155 153.815 99.7259C154.988 98.2966 156.619 97.3175 158.432 96.9552L182.432 92.1552C183.592 91.9233 184.789 91.9516 185.937 92.2381C187.085 92.5246 188.155 93.0622 189.07 93.812C189.986 94.5619 190.723 95.5054 191.23 96.5746C191.736 97.6438 191.999 98.812 192 99.9952V114.235L152 122.235V104.795Z" fill="url(#paint3_linear)"/>
<path fill-rule="evenodd" clip-rule="evenodd" d="M64 174.234C64 173.174 64.4214 172.156 65.1716 171.406C65.9217 170.656 66.9391 170.234 68 170.234H96C97.0609 170.234 98.0783 170.656 98.8284 171.406C99.5786 172.156 100 173.174 100 174.234C100 175.295 99.5786 176.313 98.8284 177.063C98.0783 177.813 97.0609 178.234 96 178.234H68C66.9391 178.234 65.9217 177.813 65.1716 177.063C64.4214 176.313 64 175.295 64 174.234ZM64 142.234C64 141.174 64.4214 140.156 65.1716 139.406C65.9217 138.656 66.9391 138.234 68 138.234H128C129.061 138.234 130.078 138.656 130.828 139.406C131.579 140.156 132 141.174 132 142.234C132 143.295 131.579 144.313 130.828 145.063C130.078 145.813 129.061 146.234 128 146.234H68C66.9391 146.234 65.9217 145.813 65.1716 145.063C64.4214 144.313 64 143.295 64 142.234ZM64 110.234C64 109.174 64.4214 108.156 65.1716 107.406C65.9217 106.656 66.9391 106.234 68 106.234H128C129.061 106.234 130.078 106.656 130.828 107.406C131.579 108.156 132 109.174 132 110.234C132 111.295 131.579 112.313 130.828 113.063C130.078 113.813 129.061 114.234 128 114.234H68C66.9391 114.234 65.9217 113.813 65.1716 113.063C64.4214 112.313 64 111.295 64 110.234Z" fill="url(#paint4_linear)"/>
<defs>
<linearGradient id="paint0_linear" x1="127.5" y1="253" x2="127.5" y2="2" gradientUnits="userSpaceOnUse">
<stop stop-color="#FD2E00"/>
<stop offset="1" stop-color="#FF9900"/>
</linearGradient>
<linearGradient id="paint1_linear" x1="140" y1="202.234" x2="140" y2="170.234" gradientUnits="userSpaceOnUse">
<stop stop-color="#FD2E00"/>
<stop offset="1" stop-color="#FF9900"/>
</linearGradient>
<linearGradient id="paint2_linear" x1="156" y1="186.234" x2="156" y2="106.234" gradientUnits="userSpaceOnUse">
<stop stop-color="#FD2E00"/>
<stop offset="1" stop-color="#FF9900"/>
</linearGradient>
<linearGradient id="paint3_linear" x1="172" y1="122.235" x2="172" y2="92" gradientUnits="userSpaceOnUse">
<stop stop-color="#FD2E00"/>
<stop offset="1" stop-color="#FF9900"/>
</linearGradient>
<linearGradient id="paint4_linear" x1="98" y1="178.234" x2="98" y2="106.234" gradientUnits="userSpaceOnUse">
<stop stop-color="#FD2E00"/>
<stop offset="1" stop-color="#FF9900"/>
</linearGradient>
</defs>
</svg>
