<svg width="256" height="256" viewBox="0 0 256 256" fill="none" xmlns="http://www.w3.org/2000/svg">
<path d="M221 61.2405C221 60.255 220.677 59.1619 220.141 58.3284C219.561 57.4267 218.901 56.3991 218.9 56.3978L171 9.17359C169.555 7.80415 158.291 1.96094 156.269 1.96094H41.1923C37.2202 1.96094 34 5.19028 34 9.17359V240.939C34 244.923 37.2202 248.152 41.1923 248.152H213.808C217.78 248.152 221 244.923 221 240.939V66.8747C221 65.212 221 64.4488 221 61.2405ZM163.462 33.8032C163.462 31.166 166.726 29.8604 168.606 31.7457L191.458 54.6621C193.316 56.525 191.97 59.6621 189.313 59.6621H166.462C164.805 59.6621 163.462 58.3447 163.462 56.7196V33.8032ZM55 230.987C53.3431 230.987 52 229.67 52 228.045V22.0682C52 20.4431 53.3431 19.1257 55 19.1257H141.5C143.157 19.1257 144.5 20.4431 144.5 22.0682V59.6621C144.5 63.6454 159.489 77.4859 163.462 77.4859H200C201.657 77.4859 203 78.8032 203 80.4284V228.045C203 229.67 201.657 230.987 200 230.987H55Z" fill="url(#paint0_linear)"/>
<path d="M115.525 174.939C114.84 172.904 112.933 171.534 110.787 171.534H89.9412C87.789 171.534 85.8783 172.911 85.1977 174.953L82.1459 184.108C81.4653 186.15 79.5546 187.527 77.4025 187.527H71.1965C67.7105 187.527 65.2945 184.05 66.5106 180.783L91.6827 113.162C92.4113 111.205 94.2799 109.906 96.3686 109.906H104.248C106.333 109.906 108.2 111.2 108.931 113.153L134.242 180.774C135.465 184.043 133.049 187.527 129.559 187.527H123.356C121.209 187.527 119.302 186.157 118.617 184.123L115.525 174.939ZM92.8395 152.003C91.7646 155.24 94.1742 158.579 97.5846 158.579H103.108C106.525 158.579 108.935 155.227 107.847 151.988L105.071 143.719C103.542 139.166 97.0994 139.177 95.5858 143.734L92.8395 152.003Z" fill="url(#paint1_linear)"/>
<path d="M177.65 187.527C176.903 187.527 176.264 187.235 175.984 186.542V186.542C175.353 184.985 173.137 184.185 171.77 185.163C168.574 187.45 164.761 188.593 160.333 188.593C154.682 188.593 149.991 186.959 146.259 183.689C142.563 180.419 140.715 176.296 140.715 171.321C140.715 165.208 142.972 160.516 147.485 157.247C152.034 153.977 158.592 152.324 167.157 152.289H170.942C172.768 152.289 174.247 150.809 174.247 148.983V148.983C174.247 146.318 173.554 144.185 172.168 142.586C170.818 140.987 168.668 140.187 165.718 140.187C163.123 140.187 161.08 140.809 159.587 142.053C159.392 142.219 159.211 142.393 159.042 142.576C157.169 144.604 155.163 147.171 152.401 147.171H146.994C144.233 147.171 141.907 144.873 142.797 142.258C143.312 140.744 144.075 139.289 145.086 137.895C147.148 135.051 150.062 132.83 153.829 131.231C157.597 129.596 161.826 128.778 166.517 128.778C173.625 128.778 179.259 130.573 183.417 134.163C187.611 137.717 189.708 142.728 189.708 149.197V174.199C189.742 179.57 190.479 183.657 191.917 186.461C191.971 186.567 192 186.683 192 186.802V186.802C192 187.202 191.675 187.527 191.275 187.527H177.65ZM163.692 176.812C165.966 176.812 168.063 176.314 169.983 175.319C171.482 174.514 172.678 173.502 173.57 172.284C174.062 171.613 174.247 170.778 174.247 169.947V166.298C174.247 163.537 172.009 161.298 169.247 161.298H168.49C160.777 161.298 156.673 163.964 156.175 169.295L156.122 170.201C156.122 172.12 156.797 173.702 158.147 174.946C159.498 176.19 161.346 176.812 163.692 176.812Z" fill="url(#paint2_linear)"/>
<defs>
<linearGradient id="paint0_linear" x1="127.5" y1="248.152" x2="127.5" y2="1.96094" gradientUnits="userSpaceOnUse">
<stop stop-color="#5570FF"/>
<stop offset="1" stop-color="#4DD3FF"/>
</linearGradient>
<linearGradient id="paint1_linear" x1="128" y1="188.593" x2="128" y2="109.906" gradientUnits="userSpaceOnUse">
<stop stop-color="#5558FF"/>
<stop offset="1" stop-color="#00C0FF"/>
</linearGradient>
<linearGradient id="paint2_linear" x1="128" y1="188.593" x2="128" y2="109.906" gradientUnits="userSpaceOnUse">
<stop stop-color="#5558FF"/>
<stop offset="1" stop-color="#00C0FF"/>
</linearGradient>
</defs>
</svg>
