<svg width="256" height="256" viewBox="0 0 256 256" fill="none" xmlns="http://www.w3.org/2000/svg">
<path d="M221 61.2412C221 60.2557 220.677 59.1626 220.141 58.3291C219.561 57.4274 218.901 56.3998 218.9 56.3985L171 9.17432C169.555 7.80488 158.291 1.96167 156.269 1.96167H41.1923C37.2202 1.96167 34 5.19101 34 9.17432V240.94C34 244.924 37.2202 248.153 41.1923 248.153H213.808C217.78 248.153 221 244.924 221 240.94V66.8754C221 65.2127 221 64.4495 221 61.2412ZM163.462 33.8039C163.462 31.1667 166.726 29.8611 168.606 31.7464L191.458 54.6628C193.316 56.5257 191.97 59.6628 189.313 59.6628H166.462C164.805 59.6628 163.462 58.3454 163.462 56.7203V33.8039ZM55 230.988C53.3431 230.988 52 229.671 52 228.046V22.0689C52 20.4438 53.3431 19.1264 55 19.1264H141.5C143.157 19.1264 144.5 20.4438 144.5 22.0689V59.6628C144.5 63.6461 159.489 77.4866 163.462 77.4866H200C201.657 77.4866 203 78.8039 203 80.4291V228.046C203 229.671 201.657 230.988 200 230.988H55Z" fill="url(#paint0_linear)"/>
<path d="M135.5 146.485H120.5C118.429 146.485 116.75 148.132 116.75 150.164V179.589C116.75 181.62 118.429 183.267 120.5 183.267H135.5C137.571 183.267 139.25 181.62 139.25 179.589V150.164C139.25 148.132 137.571 146.485 135.5 146.485ZM131.75 175.911H124.25V153.842H131.75V175.911ZM128 87.3896C92.7622 87.3896 64 115.599 64 150.164C64 184.727 92.7603 212.938 128 212.938C163.238 212.938 192 184.729 192 150.164C192 115.601 163.24 87.3896 128 87.3896ZM128 205.581C96.8458 205.581 71.5 180.721 71.5 150.164C71.5 119.606 96.8458 94.746 128 94.746C159.154 94.746 184.5 119.606 184.5 150.164C184.5 180.721 159.154 205.581 128 205.581ZM128 102.348C101.119 102.348 79.25 123.798 79.25 150.164C79.25 176.53 101.119 197.98 128 197.98C154.881 197.98 176.75 176.53 176.75 150.164C176.75 123.798 154.881 102.348 128 102.348ZM128 190.623C105.255 190.623 86.75 172.473 86.75 150.164C86.75 127.854 105.255 109.704 128 109.704C150.745 109.704 169.25 127.854 169.25 150.164C169.25 172.473 150.745 190.623 128 190.623ZM128 117.06C121.797 117.06 116.75 122.01 116.75 128.095C116.75 134.179 121.797 139.129 128 139.129C134.203 139.129 139.25 134.179 139.25 128.095C139.25 122.01 134.203 117.06 128 117.06ZM128 131.773C125.932 131.773 124.25 130.123 124.25 128.095C124.25 126.066 125.932 124.416 128 124.416C130.068 124.416 131.75 126.066 131.75 128.095C131.75 130.123 130.068 131.773 128 131.773Z" fill="url(#paint1_linear)" stroke="url(#paint2_linear)" stroke-width="4"/>
<defs>
<linearGradient id="paint0_linear" x1="34" y1="125.057" x2="221" y2="125.057" gradientUnits="userSpaceOnUse">
<stop stop-color="#02AA93"/>
<stop offset="1" stop-color="#67FF80"/>
</linearGradient>
<linearGradient id="paint1_linear" x1="64" y1="150.164" x2="192" y2="150.164" gradientUnits="userSpaceOnUse">
<stop stop-color="#02AA93"/>
<stop offset="1" stop-color="#67FF80"/>
</linearGradient>
<linearGradient id="paint2_linear" x1="64" y1="150.164" x2="192" y2="150.164" gradientUnits="userSpaceOnUse">
<stop stop-color="#02AA93"/>
<stop offset="1" stop-color="#67FF80"/>
</linearGradient>
</defs>
</svg>
