<svg width="256" height="256" viewBox="0 0 256 256" fill="none" xmlns="http://www.w3.org/2000/svg">
<path d="M221 61.2412C221 60.2557 220.677 59.1626 220.141 58.3291C219.561 57.4274 218.901 56.3998 218.9 56.3985L171 9.17432C169.555 7.80488 158.291 1.96167 156.269 1.96167H41.1923C37.2202 1.96167 34 5.19101 34 9.17432V240.94C34 244.924 37.2202 248.153 41.1923 248.153H213.808C217.78 248.153 221 244.924 221 240.94V66.8754C221 65.2127 221 64.4495 221 61.2412ZM163.462 33.804C163.462 31.1667 166.726 29.8611 168.606 31.7464L191.458 54.6628C193.316 56.5257 191.97 59.6628 189.313 59.6628H166.462C164.805 59.6628 163.462 58.3454 163.462 56.7203V33.804ZM55 230.988C53.3431 230.988 52 229.671 52 228.046V22.069C52 20.4438 53.3431 19.1264 55 19.1264H141.5C143.157 19.1264 144.5 20.4438 144.5 22.069V59.6628C144.5 63.6461 159.489 77.4866 163.462 77.4866H200C201.657 77.4866 203 78.8039 203 80.4291V228.046C203 229.671 201.657 230.988 200 230.988H55Z" fill="url(#paint0_linear)"/>
<path fill-rule="evenodd" clip-rule="evenodd" d="M143.25 133.606C143.25 128.64 148.034 124.607 153.926 124.607C159.816 124.607 164.6 128.64 164.6 133.606C164.6 138.574 159.816 142.607 153.926 142.607C148.034 142.607 143.25 138.574 143.25 133.606ZM79.2 165.493L106.798 146.085C111.967 142.447 120.03 142.758 124.788 146.773L136.895 156.995C139.275 159.001 143.579 159.489 146.501 158.08L174.153 144.758C175.614 144.054 176.8 142.329 176.8 140.911V125.894C176.8 121.637 172.7 118.178 167.65 118.178H88.35C83.2998 118.178 79.2 121.637 79.2 125.894V165.493ZM176.8 167.036C176.8 164.197 179.532 161.893 182.9 161.893C186.268 161.893 189 164.197 189 167.036V190.178C189 197.272 182.168 203.034 173.75 203.034H82.25C73.832 203.034 67 197.272 67 190.178V120.75C67 113.655 73.832 107.893 82.25 107.893H173.75C182.168 107.893 189 113.655 189 120.75V144.303C189 147.142 186.628 150.589 183.703 151.997L149.787 168.334C143.939 171.15 135.326 170.181 130.562 166.169L119.749 157.066C117.369 155.061 113.334 154.906 110.747 156.724L83.104 176.137L79.2 178.862V185.035C79.2 189.29 83.2998 192.749 88.35 192.749H167.65C172.7 192.749 176.8 189.29 176.8 185.035V167.036Z" fill="url(#paint1_linear)" stroke="url(#paint2_linear)" stroke-width="4"/>
<defs>
<linearGradient id="paint0_linear" x1="34" y1="125.057" x2="221" y2="125.057" gradientUnits="userSpaceOnUse">
<stop stop-color="#02AA93"/>
<stop offset="1" stop-color="#67FF80"/>
</linearGradient>
<linearGradient id="paint1_linear" x1="67" y1="155.464" x2="189" y2="155.464" gradientUnits="userSpaceOnUse">
<stop stop-color="#02AA93"/>
<stop offset="1" stop-color="#67FF80"/>
</linearGradient>
<linearGradient id="paint2_linear" x1="67" y1="155.464" x2="189" y2="155.464" gradientUnits="userSpaceOnUse">
<stop stop-color="#02AA93"/>
<stop offset="1" stop-color="#67FF80"/>
</linearGradient>
</defs>
</svg>
