<svg width="256" height="256" viewBox="0 0 256 256" fill="none" xmlns="http://www.w3.org/2000/svg">
<path d="M221 62.4373C221 61.4326 220.677 60.3181 220.141 59.4684C219.561 58.549 218.9 57.5 218.9 57.5L171 9.35352C169.555 7.95733 158.291 2 156.269 2H41.1923C37.2202 2 34 5.29241 34 9.35352V245.646C34 249.708 37.2202 253 41.1923 253H213.808C217.78 253 221 249.708 221 245.646V68.1816C221 66.4864 221 65.7083 221 62.4373ZM163.462 34.4642C163.462 31.7754 166.726 30.4443 168.606 32.3665L191.458 55.7304C193.316 57.6297 191.97 60.8281 189.313 60.8281H166.462C164.805 60.8281 163.462 59.485 163.462 57.8281V34.4642ZM55 235.5C53.3431 235.5 52 234.157 52 232.5V22.5C52 20.8431 53.3431 19.5 55 19.5H141.5C143.157 19.5 144.5 20.8431 144.5 22.5V60.8281C144.5 64.8892 159.489 79 163.462 79H200C201.657 79 203 80.3431 203 82V232.5C203 234.157 201.657 235.5 200 235.5H55Z" fill="url(#paint0_linear)"/>
<path fill-rule="evenodd" clip-rule="evenodd" d="M128.315 93.059C124.575 92.9954 120.837 92.9317 117.105 93.1641C113.78 93.5991 112.526 97.0385 111.617 99.6805C111.178 100.907 111.001 102.232 110.825 103.556C110.526 105.805 110.227 108.051 108.637 109.806C107.03 111.095 105.235 112.129 103.441 113.163C102.568 113.667 101.695 114.17 100.843 114.703C97.2907 113.479 93.7722 112.19 90.2621 110.845C87.0888 109.693 83.3598 110.861 81.508 113.575C79.7364 116.202 78.1035 118.91 76.4704 121.618C75.4342 123.337 74.398 125.055 73.3262 126.753C71.9205 129.065 70.338 131.747 71.2891 134.494C72.2801 137.753 74.8882 139.864 77.5077 141.984C79.2716 143.411 81.0406 144.843 82.3244 146.633C82.5682 148.275 82.4988 149.934 82.4293 151.594C82.386 152.628 82.3426 153.663 82.375 154.696C80.9158 156.302 79.2271 157.687 77.5401 159.07C75.7331 160.552 73.9279 162.032 72.4087 163.782C70.1191 166.689 71.4744 170.41 72.9053 173.367C75.3632 177.926 77.9305 182.436 80.6578 186.85C82.3076 189.767 86.0871 191.249 89.4288 190.46C92.2645 189.761 94.9903 188.746 97.7142 187.732C98.7582 187.344 99.8018 186.955 100.851 186.585C103.765 188.079 106.538 189.818 109.301 191.552L109.37 191.595C109.739 193.075 110.06 194.568 110.381 196.06C111.085 199.333 111.789 202.605 112.998 205.748C113.484 206.949 114.608 207.674 115.694 208.376C115.998 208.572 116.3 208.767 116.584 208.969C120.006 208.876 123.431 208.916 126.855 208.956C130.521 208.999 134.186 209.042 137.846 208.921C144.235 207.439 145.75 200.326 145.75 194.921C146.163 191.49 141.651 188.832 138.637 190.717C136.341 191.996 136.046 194.531 135.766 196.937C135.67 197.76 135.576 198.567 135.405 199.304C133.422 199.297 131.439 199.3 129.457 199.303C126.626 199.307 123.796 199.311 120.969 199.287C120.363 195.872 119.521 192.505 118.646 189.154C117.678 185.843 114.757 183.564 111.718 181.993C110.868 181.538 110.041 181.028 109.212 180.518C107.316 179.351 105.413 178.179 103.217 177.635C99.5201 176.895 96.1497 178.258 92.7963 179.614C91.3008 180.219 89.8086 180.822 88.2924 181.237C87.1076 178.994 85.8333 176.798 84.5594 174.603C83.3626 172.541 82.1663 170.48 81.045 168.381C81.9686 167.576 82.9341 166.807 83.9003 166.037C86.0866 164.295 88.2765 162.55 89.9927 160.382C91.9554 158.008 91.9724 155.004 91.9889 152.095C91.9933 151.324 91.9976 150.559 92.0382 149.814C92.2402 146.335 91.7856 142.557 89.2436 139.866C87.5206 138.059 85.5991 136.441 83.6777 134.824C82.7736 134.062 81.8695 133.301 80.986 132.52C82.3949 130.355 83.7325 128.149 85.0706 125.943C86.2109 124.063 87.3514 122.182 88.5365 120.325C90.1565 120.682 91.7375 121.292 93.3243 121.904C96.0333 122.949 98.7595 124.001 101.727 123.813C104.083 123.703 106.104 122.503 108.065 121.339C108.409 121.135 108.751 120.932 109.092 120.736C109.49 120.495 109.895 120.255 110.301 120.014C113.175 118.312 116.147 116.552 117.762 113.624C119.664 110.216 120.405 106.342 120.885 102.548C125.641 102.604 130.397 102.588 135.153 102.556C135.6 104.224 135.985 105.909 136.37 107.594C136.78 109.391 137.191 111.188 137.677 112.963C139.18 117.078 143.08 119.18 146.885 121.232C148.153 121.915 149.41 122.593 150.565 123.338C154.828 125.581 159.096 123.954 163.281 122.359C164.881 121.749 166.469 121.143 168.04 120.76C169.292 123.103 170.623 125.402 171.954 127.701C173.04 129.576 174.126 131.451 175.169 133.35C174.068 134.45 172.815 135.454 171.559 136.46C168.648 138.794 165.717 141.144 164.605 144.74C164.167 148.63 164.117 152.593 164.403 156.508C165.09 160.885 168.568 163.714 171.958 166.471C173.097 167.398 174.227 168.316 175.237 169.283C174.318 170.76 173.422 172.25 172.526 173.74C170.909 176.428 169.292 179.116 167.542 181.728C166.798 181.451 166.064 181.133 165.328 180.815C163.515 180.03 161.694 179.242 159.706 179.054C156.095 178.691 153.427 183.194 155.606 185.973C156.97 187.863 159.182 188.576 161.381 189.284C162.416 189.617 163.447 189.95 164.386 190.403C167.778 192.118 172.509 191.66 174.698 188.397C177.579 184.026 180.266 179.538 182.952 175.05C183.334 174.411 183.717 173.772 184.1 173.133C185.463 171.087 185.859 168.373 184.622 166.182C183.452 163.653 181.267 161.902 179.084 160.153C177.089 158.554 175.095 156.957 173.881 154.768C173.878 154.243 173.865 153.715 173.852 153.184C173.801 151.043 173.749 148.869 174.302 146.81C175.63 145.303 177.217 144.03 178.804 142.757C180.787 141.166 182.77 139.576 184.243 137.531C186.323 134.741 184.741 131.373 183.43 128.58C183.366 128.445 183.304 128.311 183.242 128.179C180.767 123.612 178.216 119.077 175.43 114.687C173.721 111.787 169.79 110.627 166.533 111.473C164.019 112.081 161.603 112.974 159.187 113.866C157.923 114.333 156.658 114.8 155.38 115.226C154.84 114.925 154.295 114.628 153.75 114.33C151.441 113.071 149.124 111.807 147.088 110.184C146.324 108.329 145.961 106.362 145.597 104.393C145.273 102.634 144.947 100.873 144.336 99.1891C143.368 95.8303 140.026 92.6003 136.154 93.0916C133.541 93.148 130.928 93.1035 128.315 93.059ZM132.357 128.361C130.235 128.048 128.072 128.048 125.95 128.367C122.266 129.37 118.501 130.47 115.456 132.864C109.777 136.98 106.375 143.798 106.127 150.712C106.144 158.1 109.875 165.448 116.073 169.638C118.899 171.656 122.237 172.75 125.593 173.542C130.558 174.529 135.678 173.206 140.095 170.949C147.02 167.346 151.535 160.021 152.215 152.394C152.561 145.468 149.482 138.439 144.171 133.902C140.89 130.904 136.601 129.444 132.357 128.361ZM113.242 147.315C114.539 141.33 119.683 136.461 125.714 135.19C133.867 133.241 142.886 138.662 144.921 146.699C147.383 154.52 142.609 163.584 134.807 166.229C129.116 168.481 122.272 166.947 117.895 162.774C113.697 158.938 111.841 152.799 113.242 147.315Z" fill="url(#paint1_linear)"/>
<path d="M117.105 93.1641L116.981 91.168L116.913 91.1722L116.846 91.181L117.105 93.1641ZM128.315 93.059L128.349 91.0593L128.349 91.0593L128.315 93.059ZM111.617 99.6805L113.5 100.355L113.504 100.343L113.508 100.331L111.617 99.6805ZM110.825 103.556L108.843 103.292L108.843 103.292L110.825 103.556ZM108.637 109.806L109.889 111.366L110.013 111.266L110.12 111.148L108.637 109.806ZM103.441 113.163L104.44 114.896L104.44 114.896L103.441 113.163ZM100.843 114.703L100.191 116.594L101.094 116.905L101.904 116.399L100.843 114.703ZM90.2621 110.845L90.9778 108.977L90.9612 108.971L90.9445 108.965L90.2621 110.845ZM81.508 113.575L79.8558 112.448L79.8499 112.457L81.508 113.575ZM76.4704 121.618L74.7577 120.585L76.4704 121.618ZM73.3262 126.753L71.6349 125.685L71.626 125.7L71.6173 125.714L73.3262 126.753ZM71.2891 134.494L73.2026 133.912L73.1915 133.875L73.179 133.839L71.2891 134.494ZM77.5077 141.984L78.7659 140.429L78.7659 140.429L77.5077 141.984ZM82.3244 146.633L84.3027 146.339L84.2317 145.86L83.9494 145.467L82.3244 146.633ZM82.4293 151.594L84.4275 151.678L84.4275 151.678L82.4293 151.594ZM82.375 154.696L83.8554 156.04L84.3993 155.442L84.374 154.633L82.375 154.696ZM77.5401 159.07L78.8082 160.617L78.8082 160.617L77.5401 159.07ZM72.4087 163.782L70.8986 162.47L70.8671 162.507L70.8374 162.544L72.4087 163.782ZM72.9053 173.367L71.1051 174.238L71.1241 174.278L71.1449 174.316L72.9053 173.367ZM80.6578 186.85L82.3986 185.865L82.3796 185.832L82.3592 185.799L80.6578 186.85ZM89.4288 190.46L89.8884 192.406L89.898 192.404L89.9075 192.401L89.4288 190.46ZM97.7142 187.732L97.0166 185.858L97.0166 185.858L97.7142 187.732ZM100.851 186.585L101.764 184.805L100.998 184.412L100.185 184.699L100.851 186.585ZM109.301 191.552L108.238 193.246L108.238 193.246L109.301 191.552ZM109.37 191.595L111.31 191.111L111.115 190.329L110.433 189.901L109.37 191.595ZM110.381 196.06L108.426 196.481L108.426 196.481L110.381 196.06ZM112.998 205.748L111.131 206.466L111.137 206.482L111.144 206.498L112.998 205.748ZM115.694 208.376L114.609 210.056L114.609 210.056L115.694 208.376ZM116.584 208.969L115.421 210.597L115.967 210.987L116.638 210.968L116.584 208.969ZM126.855 208.956L126.832 210.956L126.832 210.956L126.855 208.956ZM137.846 208.921L137.912 210.92L138.107 210.914L138.298 210.87L137.846 208.921ZM145.75 194.921L143.764 194.683L143.75 194.802V194.921H145.75ZM138.637 190.717L139.611 192.464L139.655 192.439L139.698 192.412L138.637 190.717ZM135.766 196.937L133.779 196.706L133.779 196.706L135.766 196.937ZM135.405 199.304L135.398 201.304L136.991 201.309L137.353 199.757L135.405 199.304ZM129.457 199.303L129.454 197.303L129.454 197.303L129.457 199.303ZM120.969 199.287L119 199.637L119.29 201.273L120.952 201.287L120.969 199.287ZM118.646 189.154L120.581 188.649L120.574 188.621L120.565 188.593L118.646 189.154ZM111.718 181.993L110.773 183.756L110.786 183.763L110.8 183.77L111.718 181.993ZM109.212 180.518L110.261 178.815L110.261 178.815L109.212 180.518ZM103.217 177.635L103.697 175.694L103.654 175.683L103.609 175.674L103.217 177.635ZM92.7963 179.614L93.5461 181.468L93.5461 181.468L92.7963 179.614ZM88.2924 181.237L86.524 182.171L87.2732 183.589L88.8202 183.166L88.2924 181.237ZM84.5594 174.603L86.2892 173.599L86.2892 173.599L84.5594 174.603ZM81.045 168.381L79.7309 166.873L78.5308 167.919L79.2809 169.323L81.045 168.381ZM83.9003 166.037L85.1466 167.601L85.1466 167.601L83.9003 166.037ZM89.9927 160.382L88.4511 159.108L88.4377 159.124L88.4247 159.141L89.9927 160.382ZM91.9889 152.095L93.9889 152.106L93.9889 152.106L91.9889 152.095ZM92.0382 149.814L90.0415 149.698L90.0411 149.705L92.0382 149.814ZM89.2436 139.866L90.6973 138.493L90.6913 138.487L89.2436 139.866ZM83.6777 134.824L84.9657 133.294L84.9657 133.294L83.6777 134.824ZM80.986 132.52L79.3095 131.43L78.3687 132.876L79.6614 134.019L80.986 132.52ZM85.0706 125.943L86.7807 126.98L86.7807 126.98L85.0706 125.943ZM88.5365 120.325L88.967 118.372L87.6025 118.071L86.8507 119.249L88.5365 120.325ZM93.3243 121.904L94.0442 120.038L94.0442 120.038L93.3243 121.904ZM101.727 123.813L101.634 121.815L101.617 121.816L101.6 121.817L101.727 123.813ZM108.065 121.339L109.086 123.059L109.086 123.059L108.065 121.339ZM109.092 120.736L110.087 122.471L110.108 122.459L110.129 122.446L109.092 120.736ZM110.301 120.014L109.282 118.294L109.282 118.294L110.301 120.014ZM117.762 113.624L116.016 112.649L116.011 112.658L117.762 113.624ZM120.885 102.548L120.909 100.548L119.125 100.527L118.901 102.297L120.885 102.548ZM135.153 102.556L137.084 102.038L136.684 100.546L135.139 100.556L135.153 102.556ZM136.37 107.594L138.32 107.148L138.32 107.148L136.37 107.594ZM137.677 112.963L135.749 113.492L135.77 113.571L135.799 113.649L137.677 112.963ZM146.885 121.232L147.834 119.471L147.834 119.471L146.885 121.232ZM150.565 123.338L149.481 125.019L149.555 125.066L149.634 125.108L150.565 123.338ZM163.281 122.359L162.569 120.49L162.569 120.49L163.281 122.359ZM168.04 120.76L169.804 119.818L169.073 118.45L167.566 118.817L168.04 120.76ZM171.954 127.701L173.685 126.699L173.685 126.699L171.954 127.701ZM175.169 133.35L176.582 134.765L177.645 133.704L176.922 132.387L175.169 133.35ZM171.559 136.46L170.308 134.9L170.308 134.9L171.559 136.46ZM164.605 144.74L162.694 144.149L162.639 144.329L162.618 144.516L164.605 144.74ZM164.403 156.508L162.408 156.654L162.414 156.736L162.427 156.818L164.403 156.508ZM171.958 166.471L173.22 164.919L173.22 164.919L171.958 166.471ZM175.237 169.283L176.935 170.34L177.793 168.961L176.62 167.838L175.237 169.283ZM172.526 173.74L170.812 172.709L170.812 172.709L172.526 173.74ZM167.542 181.728L166.845 183.602L168.325 184.153L169.204 182.841L167.542 181.728ZM165.328 180.815L166.122 178.979L166.122 178.979L165.328 180.815ZM159.706 179.054L159.507 181.044L159.517 181.045L159.706 179.054ZM155.606 185.973L157.229 184.803L157.205 184.77L157.18 184.738L155.606 185.973ZM161.381 189.284L161.995 187.381L161.995 187.381L161.381 189.284ZM164.386 190.403L165.289 188.618L165.272 188.61L165.255 188.602L164.386 190.403ZM174.698 188.397L176.358 189.511L176.363 189.505L176.368 189.498L174.698 188.397ZM182.952 175.05L181.236 174.023L181.236 174.023L182.952 175.05ZM184.1 173.133L182.436 172.024L182.41 172.064L182.385 172.104L184.1 173.133ZM184.622 166.182L182.806 167.021L182.84 167.095L182.88 167.165L184.622 166.182ZM179.084 160.153L180.335 158.592L180.335 158.592L179.084 160.153ZM173.881 154.768L171.881 154.781L171.884 155.291L172.132 155.738L173.881 154.768ZM173.852 153.184L171.853 153.232L171.853 153.232L173.852 153.184ZM174.302 146.81L172.802 145.488L172.492 145.839L172.371 146.291L174.302 146.81ZM178.804 142.757L177.552 141.197L177.552 141.197L178.804 142.757ZM184.243 137.531L182.64 136.335L182.63 136.348L182.62 136.362L184.243 137.531ZM183.43 128.58L181.619 129.43L181.619 129.43L183.43 128.58ZM183.242 128.179L185.054 127.333L185.029 127.279L185 127.226L183.242 128.179ZM175.43 114.687L173.707 115.702L173.724 115.731L173.741 115.758L175.43 114.687ZM166.533 111.473L167.003 113.417L167.019 113.413L167.035 113.409L166.533 111.473ZM159.187 113.866L159.88 115.742L159.88 115.742L159.187 113.866ZM155.38 115.226L154.406 116.973L155.176 117.403L156.013 117.124L155.38 115.226ZM153.75 114.33L152.792 116.086L152.792 116.086L153.75 114.33ZM147.088 110.184L145.239 110.946L145.436 111.425L145.842 111.748L147.088 110.184ZM145.597 104.393L147.564 104.03L147.564 104.03L145.597 104.393ZM144.336 99.1891L142.414 99.7429L142.433 99.8081L142.456 99.872L144.336 99.1891ZM136.154 93.0916L136.197 95.0912L136.302 95.0889L136.406 95.0757L136.154 93.0916ZM125.95 128.367L125.653 126.389L125.538 126.406L125.425 126.437L125.95 128.367ZM132.357 128.361L132.851 126.423L132.751 126.398L132.649 126.383L132.357 128.361ZM115.456 132.864L116.63 134.484L116.662 134.461L116.693 134.437L115.456 132.864ZM106.127 150.712L104.128 150.641L104.127 150.679L104.127 150.717L106.127 150.712ZM116.073 169.638L117.236 168.01L117.215 167.995L117.193 167.981L116.073 169.638ZM125.593 173.542L125.133 175.489L125.168 175.497L125.203 175.504L125.593 173.542ZM140.095 170.949L141.005 172.73L141.011 172.726L141.018 172.723L140.095 170.949ZM152.215 152.394L154.207 152.572L154.211 152.533L154.213 152.494L152.215 152.394ZM144.171 133.902L142.822 135.378L142.847 135.401L142.872 135.422L144.171 133.902ZM125.714 135.19L126.127 137.147L126.153 137.142L126.179 137.135L125.714 135.19ZM113.242 147.315L115.18 147.81L115.189 147.775L115.197 147.739L113.242 147.315ZM144.921 146.699L142.982 147.19L142.996 147.246L143.013 147.3L144.921 146.699ZM134.807 166.229L134.165 164.335L134.118 164.351L134.071 164.369L134.807 166.229ZM117.895 162.774L119.275 161.327L119.26 161.312L119.245 161.298L117.895 162.774ZM117.23 95.1603C120.869 94.9336 124.528 94.9948 128.281 95.0587L128.349 91.0593C124.622 90.9959 120.805 90.9299 116.981 91.168L117.23 95.1603ZM113.508 100.331C113.973 98.9823 114.439 97.709 115.111 96.7162C115.745 95.7799 116.442 95.268 117.365 95.1472L116.846 91.181C114.444 91.4952 112.851 92.9205 111.799 94.4732C110.786 95.9694 110.171 97.7367 109.726 99.0298L113.508 100.331ZM112.808 103.82C112.989 102.456 113.144 101.347 113.5 100.355L109.735 99.0056C109.211 100.467 109.013 102.009 108.843 103.292L112.808 103.82ZM110.12 111.148C112.194 108.859 112.523 105.96 112.808 103.82L108.843 103.292C108.529 105.651 108.26 107.243 107.155 108.463L110.12 111.148ZM104.44 114.896C106.211 113.875 108.141 112.767 109.889 111.366L107.386 108.245C105.918 109.423 104.26 110.383 102.443 111.431L104.44 114.896ZM101.904 116.399C102.72 115.888 103.561 115.403 104.44 114.896L102.443 111.431C101.574 111.931 100.67 112.452 99.7822 113.007L101.904 116.399ZM89.5464 112.712C93.0749 114.064 96.6149 115.361 100.191 116.594L101.495 112.812C97.9665 111.596 94.4695 110.315 90.9778 108.977L89.5464 112.712ZM83.1601 114.702C84.4796 112.768 87.2356 111.874 89.5797 112.725L90.9445 108.965C86.9419 107.512 82.24 108.953 79.8558 112.448L83.1601 114.702ZM78.1832 122.651C79.8206 119.935 81.4276 117.271 83.1661 114.694L79.8499 112.457C78.0452 115.133 76.3864 117.884 74.7577 120.585L78.1832 122.651ZM75.0174 127.821C76.1019 126.103 77.1487 124.366 78.1832 122.651L74.7577 120.585C73.7197 122.307 72.694 124.008 71.6349 125.685L75.0174 127.821ZM73.179 133.839C72.8963 133.023 72.9545 132.149 73.3132 131.116C73.6852 130.045 74.3184 128.971 75.035 127.792L71.6173 125.714C70.9283 126.847 70.0673 128.27 69.5345 129.804C68.9883 131.377 68.7309 133.218 69.3993 135.148L73.179 133.839ZM78.7659 140.429C76.0518 138.232 73.9855 136.486 73.2026 133.912L69.3757 135.076C70.5747 139.019 73.7246 141.495 76.2494 143.538L78.7659 140.429ZM83.9494 145.467C82.481 143.42 80.4882 141.823 78.7659 140.429L76.2494 143.538C78.055 145 79.6003 146.267 80.6994 147.798L83.9494 145.467ZM84.4275 151.678C84.4957 150.05 84.5791 148.201 84.3027 146.339L80.3461 146.926C80.5574 148.35 80.5019 149.818 80.431 151.51L84.4275 151.678ZM84.374 154.633C84.3443 153.686 84.3837 152.724 84.4275 151.678L80.431 151.51C80.3882 152.532 80.341 153.64 80.3759 154.758L84.374 154.633ZM78.8082 160.617C80.4756 159.25 82.2809 157.774 83.8554 156.04L80.8945 153.351C79.5507 154.83 77.9787 156.124 76.2719 157.524L78.8082 160.617ZM73.9188 165.093C75.3083 163.493 76.9782 162.117 78.8082 160.617L76.2719 157.524C74.488 158.986 72.5476 160.571 70.8986 162.47L73.9188 165.093ZM74.7055 172.496C74.0098 171.058 73.4293 169.621 73.2427 168.28C73.0638 166.994 73.2609 165.932 73.9799 165.019L70.8374 162.544C69.2669 164.539 68.9968 166.791 69.2809 168.832C69.5573 170.818 70.3699 172.719 71.1051 174.238L74.7055 172.496ZM82.3592 185.799C79.6569 181.425 77.1093 176.95 74.6657 172.418L71.1449 174.316C73.6171 178.901 76.2041 183.447 78.9564 187.901L82.3592 185.799ZM88.9692 188.513C86.405 189.118 83.5674 187.932 82.3986 185.865L78.917 187.835C81.0478 191.602 85.7691 193.379 89.8884 192.406L88.9692 188.513ZM97.0166 185.858C94.2749 186.878 91.656 187.851 88.9502 188.518L89.9075 192.401C92.8731 191.67 95.7057 190.614 98.4119 189.607L97.0166 185.858ZM100.185 184.699C99.1174 185.076 98.0579 185.47 97.0166 185.858L98.4119 189.607C99.4585 189.217 100.486 188.834 101.517 188.47L100.185 184.699ZM110.364 189.858C107.613 188.132 104.767 186.345 101.764 184.805L99.9387 188.364C102.762 189.812 105.463 191.505 108.238 193.246L110.364 189.858ZM110.433 189.901L110.364 189.857L108.238 193.246L108.307 193.289L110.433 189.901ZM112.336 195.639C112.016 194.152 111.689 192.628 111.31 191.111L107.429 192.079C107.789 193.523 108.103 194.983 108.426 196.481L112.336 195.639ZM114.864 205.03C113.721 202.056 113.046 198.938 112.336 195.639L108.426 196.481C109.125 199.729 109.857 203.154 111.131 206.466L114.864 205.03ZM116.779 206.695C115.572 205.916 115.059 205.51 114.851 204.997L111.144 206.498C111.909 208.389 113.644 209.433 114.609 210.056L116.779 206.695ZM117.746 207.342C117.417 207.107 117.075 206.887 116.779 206.695L114.609 210.056C114.921 210.257 115.182 210.426 115.421 210.597L117.746 207.342ZM126.878 206.956C123.461 206.916 119.997 206.876 116.529 206.97L116.638 210.968C120.015 210.877 123.401 210.916 126.832 210.956L126.878 206.956ZM137.78 206.922C134.172 207.041 130.552 206.999 126.878 206.956L126.832 210.956C130.49 210.999 134.199 211.042 137.912 210.92L137.78 206.922ZM143.75 194.921C143.75 197.477 143.386 200.294 142.367 202.577C141.374 204.803 139.826 206.409 137.394 206.973L138.298 210.87C142.255 209.952 144.659 207.259 146.02 204.207C147.356 201.212 147.75 197.771 147.75 194.921H143.75ZM139.698 192.412C140.426 191.957 141.489 191.974 142.462 192.548C143.439 193.125 143.85 193.969 143.764 194.683L147.736 195.16C148.063 192.442 146.424 190.242 144.495 189.103C142.561 187.962 139.862 187.592 137.576 189.021L139.698 192.412ZM137.753 197.169C138.061 194.518 138.355 193.163 139.611 192.464L137.664 188.97C134.328 190.828 134.031 194.545 133.779 196.706L137.753 197.169ZM137.353 199.757C137.555 198.89 137.66 197.966 137.753 197.169L133.779 196.706C133.681 197.554 133.598 198.244 133.457 198.85L137.353 199.757ZM129.46 201.303C131.443 201.3 133.421 201.297 135.398 201.304L135.412 197.304C133.423 197.297 131.436 197.3 129.454 197.303L129.46 201.303ZM120.952 201.287C123.791 201.311 126.631 201.307 129.46 201.303L129.454 197.303C126.621 197.307 123.801 197.311 120.986 197.288L120.952 201.287ZM116.711 189.66C117.584 193.004 118.409 196.305 119 199.637L122.938 198.938C122.317 195.439 121.458 192.006 120.581 188.649L116.711 189.66ZM110.8 183.77C113.696 185.267 115.994 187.211 116.726 189.716L120.565 188.593C119.362 184.476 115.818 181.861 112.637 180.217L110.8 183.77ZM108.164 182.221C108.984 182.726 109.862 183.267 110.773 183.756L112.663 180.231C111.875 179.808 111.098 179.331 110.261 178.815L108.164 182.221ZM102.736 179.577C104.58 180.033 106.223 181.027 108.164 182.221L110.261 178.815C108.409 177.675 106.246 176.325 103.697 175.694L102.736 179.577ZM93.5461 181.468C96.9983 180.072 99.8083 178.992 102.824 179.596L103.609 175.674C99.2319 174.797 95.301 176.444 92.0466 177.76L93.5461 181.468ZM88.8202 183.166C90.4691 182.715 92.0708 182.064 93.5461 181.468L92.0466 177.76C90.5307 178.373 89.1481 178.929 87.7647 179.308L88.8202 183.166ZM82.8296 175.607C84.1068 177.808 85.3609 179.969 86.524 182.171L90.0608 180.303C88.8543 178.019 87.5597 175.788 86.2892 173.599L82.8296 175.607ZM79.2809 169.323C80.4216 171.459 81.6358 173.55 82.8296 175.607L86.2892 173.599C85.0894 171.532 83.911 169.501 82.809 167.439L79.2809 169.323ZM82.654 164.473C81.6937 165.238 80.6934 166.034 79.7309 166.873L82.359 169.889C83.2438 169.118 84.1744 168.376 85.1466 167.601L82.654 164.473ZM88.4247 159.141C86.875 161.098 84.8729 162.705 82.654 164.473L85.1466 167.601C87.3002 165.885 89.678 164.002 91.5608 161.624L88.4247 159.141ZM89.9889 152.084C89.9717 155.132 89.8862 157.372 88.4511 159.108L91.5343 161.657C94.0247 158.643 93.9732 154.876 93.9889 152.106L89.9889 152.084ZM90.0411 149.705C89.9974 150.507 89.9932 151.321 89.9889 152.084L93.9889 152.106C93.9933 151.326 93.9977 150.61 94.0352 149.923L90.0411 149.705ZM87.7899 141.24C89.7521 143.317 90.234 146.384 90.0415 149.698L94.0348 149.93C94.2465 146.285 93.8192 141.797 90.6973 138.493L87.7899 141.24ZM82.3896 136.354C84.3256 137.983 86.1614 139.532 87.7959 141.246L90.6913 138.487C88.8799 136.586 86.8727 134.899 84.9657 133.294L82.3896 136.354ZM79.6614 134.019C80.5659 134.818 81.4886 135.595 82.3896 136.354L84.9657 133.294C84.0585 132.53 83.173 131.784 82.3106 131.022L79.6614 134.019ZM83.3605 124.906C82.0198 127.116 80.6983 129.295 79.3095 131.43L82.6625 133.611C84.0914 131.414 85.4453 129.182 86.7807 126.98L83.3605 124.906ZM86.8507 119.249C85.6512 121.128 84.4988 123.029 83.3605 124.906L86.7807 126.98C87.9229 125.096 89.0517 123.236 90.2224 121.401L86.8507 119.249ZM94.0442 120.038C92.4836 119.436 90.7605 118.767 88.967 118.372L88.106 122.278C89.5526 122.597 90.9914 123.148 92.6045 123.77L94.0442 120.038ZM101.6 121.817C99.1418 121.973 96.8242 121.111 94.0442 120.038L92.6045 123.77C95.2423 124.788 98.3771 126.029 101.853 125.809L101.6 121.817ZM107.044 119.619C105.004 120.831 103.409 121.733 101.634 121.815L101.82 125.811C104.757 125.674 107.205 124.176 109.086 123.059L107.044 119.619ZM108.097 119.001C107.74 119.206 107.385 119.417 107.044 119.619L109.086 123.059C109.432 122.853 109.761 122.658 110.087 122.471L108.097 119.001ZM109.282 118.294C108.877 118.533 108.464 118.778 108.055 119.026L110.129 122.446C110.517 122.211 110.912 121.977 111.32 121.735L109.282 118.294ZM116.011 112.658C114.705 115.026 112.257 116.532 109.282 118.294L111.32 121.735C114.093 120.093 117.589 118.079 119.513 114.589L116.011 112.658ZM118.901 102.297C118.427 106.04 117.722 109.593 116.016 112.649L119.508 114.599C121.607 110.84 122.383 106.644 122.869 102.799L118.901 102.297ZM135.139 100.556C130.386 100.588 125.645 100.604 120.909 100.548L120.861 104.548C125.636 104.605 130.407 104.588 135.166 104.556L135.139 100.556ZM138.32 107.148C137.936 105.47 137.543 103.748 137.084 102.038L133.221 103.075C133.657 104.7 134.034 106.348 134.42 108.039L138.32 107.148ZM139.606 112.434C139.133 110.707 138.732 108.953 138.32 107.148L134.42 108.039C134.829 109.829 135.249 111.668 135.749 113.492L139.606 112.434ZM147.834 119.471C143.873 117.336 140.753 115.555 139.556 112.277L135.799 113.649C137.607 118.6 142.286 121.024 145.936 122.992L147.834 119.471ZM151.649 121.657C150.417 120.862 149.088 120.147 147.834 119.471L145.936 122.992C147.218 123.683 148.404 124.324 149.481 125.019L151.649 121.657ZM162.569 120.49C158.208 122.153 154.834 123.325 151.497 121.568L149.634 125.108C154.822 127.838 159.984 125.756 163.994 124.227L162.569 120.49ZM167.566 118.817C165.851 119.235 164.144 119.889 162.569 120.49L163.994 124.227C165.618 123.608 167.086 123.051 168.514 122.703L167.566 118.817ZM173.685 126.699C172.351 124.395 171.037 122.125 169.804 119.818L166.276 121.703C167.546 124.081 168.895 126.409 170.224 128.703L173.685 126.699ZM176.922 132.387C175.866 130.465 174.769 128.57 173.685 126.699L170.224 128.703C171.311 130.581 172.385 132.437 173.416 134.313L176.922 132.387ZM172.81 138.021C174.05 137.027 175.39 135.955 176.582 134.765L173.755 131.935C172.745 132.944 171.581 133.88 170.308 134.9L172.81 138.021ZM166.516 145.33C167.416 142.419 169.8 140.434 172.81 138.021L170.308 134.9C167.495 137.155 164.018 139.868 162.694 144.149L166.516 145.33ZM166.398 156.362C166.12 152.561 166.17 148.722 166.593 144.963L162.618 144.516C162.165 148.538 162.114 152.625 162.408 156.654L166.398 156.362ZM173.22 164.919C169.691 162.049 166.926 159.687 166.379 156.198L162.427 156.818C163.253 162.083 167.445 165.378 170.696 168.023L173.22 164.919ZM176.62 167.838C175.541 166.806 174.347 165.836 173.22 164.919L170.696 168.023C171.848 168.96 172.912 169.827 173.854 170.728L176.62 167.838ZM174.24 174.771C175.137 173.278 176.026 171.801 176.935 170.34L173.539 168.227C172.611 169.718 171.707 171.221 170.812 172.709L174.24 174.771ZM169.204 182.841C170.985 180.182 172.627 177.452 174.24 174.771L170.812 172.709C169.191 175.404 167.598 178.05 165.881 180.615L169.204 182.841ZM164.533 182.65C165.261 182.965 166.044 183.304 166.845 183.602L168.24 179.854C167.553 179.598 166.866 179.301 166.122 178.979L164.533 182.65ZM159.517 181.045C161.138 181.199 162.671 181.844 164.533 182.65L166.122 178.979C164.359 178.216 162.25 177.286 159.896 177.063L159.517 181.045ZM157.18 184.738C156.723 184.156 156.668 183.263 157.205 182.355C157.742 181.449 158.633 180.956 159.507 181.044L159.906 177.064C157.169 176.789 154.92 178.366 153.764 180.316C152.61 182.263 152.31 185.011 154.033 187.207L157.18 184.738ZM161.995 187.381C159.663 186.63 158.143 186.071 157.229 184.803L153.984 187.142C155.796 189.656 158.7 190.522 160.768 191.188L161.995 187.381ZM165.255 188.602C164.17 188.078 163.003 187.705 161.995 187.381L160.768 191.188C161.828 191.53 162.724 191.822 163.517 192.204L165.255 188.602ZM173.037 187.283C171.586 189.446 168.092 190.036 165.289 188.618L163.484 192.188C167.465 194.201 173.432 193.874 176.358 189.511L173.037 187.283ZM181.236 174.023C178.546 178.517 175.881 182.968 173.028 187.296L176.368 189.498C179.276 185.085 181.985 180.559 184.668 176.078L181.236 174.023ZM182.385 172.104C182.001 172.744 181.618 173.384 181.236 174.023L184.668 176.078C185.051 175.438 185.433 174.8 185.815 174.162L182.385 172.104ZM182.88 167.165C183.662 168.55 183.486 170.448 182.436 172.024L185.765 174.242C187.441 171.727 188.056 168.196 186.363 165.198L182.88 167.165ZM177.833 161.714C180.088 163.52 181.868 164.992 182.806 167.021L186.437 165.342C185.036 162.314 182.446 160.284 180.335 158.592L177.833 161.714ZM172.132 155.738C173.57 158.331 175.899 160.164 177.833 161.714L180.335 158.592C178.278 156.944 176.62 155.583 175.63 153.798L172.132 155.738ZM171.853 153.232C171.866 153.766 171.878 154.277 171.881 154.781L175.881 154.755C175.877 154.21 175.864 153.664 175.852 153.137L171.853 153.232ZM172.371 146.291C171.73 148.676 171.803 151.145 171.853 153.232L175.852 153.137C175.799 150.941 175.768 149.062 176.234 147.329L172.371 146.291ZM177.552 141.197C175.99 142.45 174.263 143.829 172.802 145.488L175.803 148.132C176.997 146.777 178.444 145.609 180.055 144.317L177.552 141.197ZM182.62 136.362C181.333 138.149 179.574 139.575 177.552 141.197L180.055 144.317C182 142.757 184.207 141.003 185.866 138.699L182.62 136.362ZM181.619 129.43C182.297 130.874 182.901 132.186 183.145 133.438C183.373 134.613 183.243 135.525 182.64 136.335L185.846 138.726C187.322 136.747 187.442 134.581 187.071 132.675C186.716 130.848 185.874 129.079 185.24 127.73L181.619 129.43ZM181.429 129.024C181.492 129.159 181.556 129.295 181.619 129.43L185.24 127.73C185.177 127.594 185.115 127.463 185.054 127.333L181.429 129.024ZM173.741 115.758C176.491 120.091 179.017 124.58 181.483 129.132L185 127.226C182.517 122.643 179.941 118.062 177.119 113.615L173.741 115.758ZM167.035 113.409C169.643 112.732 172.555 113.747 173.707 115.702L177.153 113.671C174.888 109.827 169.938 108.522 166.03 109.537L167.035 113.409ZM159.88 115.742C162.314 114.843 164.621 113.993 167.003 113.417L166.063 109.529C163.416 110.169 160.891 111.104 158.494 111.99L159.88 115.742ZM156.013 117.124C157.326 116.686 158.621 116.207 159.88 115.742L158.494 111.99C157.225 112.459 155.99 112.915 154.748 113.329L156.013 117.124ZM152.792 116.086C153.339 116.384 153.875 116.677 154.406 116.973L156.355 113.48C155.805 113.173 155.252 112.871 154.708 112.575L152.792 116.086ZM145.842 111.748C148.037 113.498 150.511 114.841 152.792 116.086L154.708 112.575C152.372 111.3 150.212 110.116 148.334 108.62L145.842 111.748ZM143.631 104.756C143.988 106.69 144.382 108.866 145.239 110.946L148.937 109.422C148.266 107.793 147.934 106.034 147.564 104.03L143.631 104.756ZM142.456 99.872C143.001 101.373 143.301 102.969 143.631 104.756L147.564 104.03C147.244 102.298 146.893 100.372 146.216 98.5063L142.456 99.872ZM136.406 95.0757C137.692 94.9125 138.966 95.3524 140.076 96.2511C141.2 97.161 142.044 98.4598 142.414 99.7429L146.258 98.6354C145.66 96.5596 144.349 94.564 142.592 93.142C140.822 91.7088 138.488 90.7794 135.903 91.1075L136.406 95.0757ZM128.281 95.0587C130.887 95.1031 133.539 95.1485 136.197 95.0912L136.111 91.0921C133.543 91.1474 130.968 91.1039 128.349 91.0593L128.281 95.0587ZM126.248 130.345C128.173 130.055 130.136 130.055 132.064 130.34L132.649 126.383C130.333 126.041 127.972 126.04 125.653 126.389L126.248 130.345ZM116.693 134.437C119.374 132.328 122.754 131.31 126.476 130.297L125.425 126.437C121.778 127.43 117.627 128.613 114.22 131.292L116.693 134.437ZM108.125 150.784C108.353 144.445 111.48 138.215 116.63 134.484L114.283 131.245C108.073 135.745 104.397 143.151 104.128 150.641L108.125 150.784ZM117.193 167.981C111.567 164.178 108.143 157.461 108.127 150.708L104.127 150.717C104.145 158.739 108.182 166.718 114.953 171.295L117.193 167.981ZM126.053 171.596C122.783 170.824 119.745 169.802 117.236 168.01L114.911 171.265C118.053 173.509 121.691 174.676 125.133 175.489L126.053 171.596ZM139.184 169.168C135.008 171.302 130.357 172.45 125.983 171.581L125.203 175.504C130.758 176.607 136.348 175.11 141.005 172.73L139.184 169.168ZM150.223 152.216C149.598 159.221 145.442 165.913 139.172 169.175L141.018 172.723C148.598 168.78 153.471 160.821 154.207 152.572L150.223 152.216ZM142.872 135.422C147.721 139.565 150.532 146 150.218 152.294L154.213 152.494C154.59 144.937 151.243 137.314 145.471 132.381L142.872 135.422ZM131.862 130.299C136.053 131.369 139.927 132.732 142.822 135.378L145.521 132.426C141.854 129.075 137.149 127.52 132.851 126.423L131.862 130.299ZM125.302 133.233C118.547 134.657 112.762 140.089 111.287 146.891L115.197 147.739C116.317 142.57 120.819 138.266 126.127 137.147L125.302 133.233ZM146.86 146.208C144.552 137.097 134.453 131.044 125.249 133.245L126.179 137.135C133.282 135.437 141.219 140.227 142.982 147.19L146.86 146.208ZM135.449 168.123C144.243 165.142 149.629 154.995 146.829 146.099L143.013 147.3C145.137 154.046 140.974 162.026 134.165 164.335L135.449 168.123ZM116.515 164.222C121.422 168.901 129.084 170.644 135.543 168.089L134.071 164.369C129.148 166.317 123.121 164.993 119.275 161.327L116.515 164.222ZM111.304 146.82C109.718 153.027 111.809 159.922 116.546 164.251L119.245 161.298C115.586 157.954 113.963 152.57 115.18 147.81L111.304 146.82Z" fill="url(#paint2_linear)"/>
<defs>
<linearGradient id="paint0_linear" x1="51.3953" y1="127.5" x2="189.109" y2="127.5" gradientUnits="userSpaceOnUse">
<stop stop-color="#5570FF"/>
<stop offset="1" stop-color="#4DD3FF"/>
</linearGradient>
<linearGradient id="paint1_linear" x1="128.183" y1="209" x2="128.183" y2="93" gradientUnits="userSpaceOnUse">
<stop stop-color="#5570FF"/>
<stop offset="1" stop-color="#4DD3FF"/>
</linearGradient>
<linearGradient id="paint2_linear" x1="128.183" y1="209" x2="128.183" y2="93" gradientUnits="userSpaceOnUse">
<stop stop-color="#5570FF"/>
<stop offset="1" stop-color="#4DD3FF"/>
</linearGradient>
</defs>
</svg>
