<svg width="256" height="256" viewBox="0 0 256 256" fill="none" xmlns="http://www.w3.org/2000/svg">
<path d="M221 62.4373C221 61.4326 220.677 60.3181 220.141 59.4684C219.561 58.549 218.901 57.5014 218.9 57.5L171 9.35352C169.555 7.95733 158.291 2 156.269 2H41.1923C37.2202 2 34 5.29241 34 9.35352V245.646C34 249.708 37.2202 253 41.1923 253H213.808C217.78 253 221 249.708 221 245.646V68.1816C221 66.4864 221 65.7083 221 62.4373ZM163.462 34.4642C163.462 31.7754 166.726 30.4443 168.606 32.3665L191.458 55.7304C193.316 57.6297 191.97 60.8281 189.313 60.8281H166.462C164.805 60.8281 163.462 59.485 163.462 57.8281V34.4642ZM55 235.5C53.3431 235.5 52 234.157 52 232.5V22.5C52 20.8431 53.3431 19.5 55 19.5H141.5C143.157 19.5 144.5 20.8431 144.5 22.5V60.8281C144.5 64.8892 159.489 79 163.462 79H200C201.657 79 203 80.3431 203 82V232.5C203 234.157 201.657 235.5 200 235.5H55Z" fill="url(#paint0_linear)"/>
<path d="M182 121H154C148.477 121 144 124.838 144 129.571V130.429C144 135.162 148.477 139 154 139H182C187.523 139 192 135.162 192 130.429V129.571C192 124.838 187.523 121 182 121Z" fill="url(#paint1_linear)"/>
<path d="M145 186H73C67.4772 186 63 189.838 63 194.571V195.429C63 200.162 67.4772 204 73 204H145C150.523 204 155 200.162 155 195.429V194.571C155 189.838 150.523 186 145 186Z" fill="url(#paint2_linear)"/>
<path d="M182 153H73C67.4772 153 63 156.663 63 161.182V162.818C63 167.337 67.4772 171 73 171H182C187.523 171 192 167.337 192 162.818V161.182C192 156.663 187.523 153 182 153Z" fill="url(#paint3_linear)"/>
<path d="M91.3079 142.732C91.1399 143.236 90.7199 143.74 90.0479 144.244C89.4319 144.748 88.6199 145 87.6119 145H75.8519C74.7879 145 73.8919 144.692 73.1639 144.076C72.4919 143.404 72.0999 142.648 71.9879 141.808L64.6799 88.3V88.048C64.6799 87.544 64.8479 87.124 65.1839 86.788C65.5759 86.396 66.0239 86.2 66.5279 86.2H80.9759C82.0959 86.2 82.9919 86.536 83.6639 87.208C84.3919 87.88 84.8119 88.72 84.9239 89.728L87.6119 115.432L92.4839 102.076C92.6519 101.516 93.0439 100.984 93.6599 100.48C94.3319 99.92 95.1719 99.64 96.1799 99.64H101.892C102.9 99.64 103.712 99.92 104.328 100.48C105 100.984 105.42 101.516 105.588 102.076L110.46 115.432L113.148 89.728C113.26 88.72 113.652 87.88 114.324 87.208C115.052 86.536 115.976 86.2 117.096 86.2H131.544C132.048 86.2 132.468 86.396 132.804 86.788C133.196 87.124 133.392 87.544 133.392 88.048V88.3L126.084 141.808C125.972 142.648 125.552 143.404 124.824 144.076C124.152 144.692 123.284 145 122.22 145H110.46C109.452 145 108.612 144.748 107.94 144.244C107.324 143.74 106.932 143.236 106.764 142.732L99.0359 125.008L91.3079 142.732Z" fill="url(#paint4_linear)"/>
<defs>
<linearGradient id="paint0_linear" x1="51.3953" y1="127.5" x2="189.109" y2="127.5" gradientUnits="userSpaceOnUse">
<stop stop-color="#5570FF"/>
<stop offset="1" stop-color="#4DD3FF"/>
</linearGradient>
<linearGradient id="paint1_linear" x1="148.465" y1="130" x2="183.814" y2="130" gradientUnits="userSpaceOnUse">
<stop stop-color="#5570FF"/>
<stop offset="1" stop-color="#4DD3FF"/>
</linearGradient>
<linearGradient id="paint2_linear" x1="71.5581" y1="195" x2="139.31" y2="195" gradientUnits="userSpaceOnUse">
<stop stop-color="#5570FF"/>
<stop offset="1" stop-color="#4DD3FF"/>
</linearGradient>
<linearGradient id="paint3_linear" x1="75" y1="162" x2="170" y2="162" gradientUnits="userSpaceOnUse">
<stop stop-color="#5570FF"/>
<stop offset="1" stop-color="#4DD3FF"/>
</linearGradient>
<linearGradient id="paint4_linear" x1="71.0717" y1="115.6" x2="121.674" y2="115.6" gradientUnits="userSpaceOnUse">
<stop stop-color="#5570FF"/>
<stop offset="1" stop-color="#4DD3FF"/>
</linearGradient>
</defs>
</svg>
