<svg width="256" height="256" viewBox="0 0 256 256" fill="none" xmlns="http://www.w3.org/2000/svg">
<path fill-rule="evenodd" clip-rule="evenodd" d="M221 62.4373C221 61.4326 220.677 60.3181 220.141 59.4684C219.854 59.0127 219.546 58.5251 219.309 58.1492L218.9 57.5L171 9.35352C169.555 7.95733 158.291 2 156.269 2H41.1923C37.2202 2 34 5.29241 34 9.35352V245.646C34 249.708 37.2202 253 41.1923 253H213.808C217.78 253 221 249.708 221 245.646V68.1816V62.4373ZM163.462 34.4642C163.462 31.7754 166.726 30.4443 168.606 32.3665L191.458 55.7304C193.316 57.6297 191.97 60.8281 189.313 60.8281H166.462C164.805 60.8281 163.462 59.485 163.462 57.8281V34.4642ZM55 235.5C53.3431 235.5 52 234.157 52 232.5V22.5C52 20.8431 53.3431 19.5 55 19.5H141.5C143.157 19.5 144.5 20.8431 144.5 22.5V60.8281C144.5 64.8892 159.489 79 163.462 79H200C201.657 79 203 80.3431 203 82V232.5C203 234.157 201.657 235.5 200 235.5H55ZM72 167H113.125C116.991 167 120.125 170.134 120.125 174C120.125 177.866 116.991 181 113.125 181H72C68.134 181 65 177.866 65 174C65 170.134 68.134 167 72 167ZM72 199H113.125C116.991 199 120.125 202.134 120.125 206C120.125 209.866 116.991 213 113.125 213H72C68.134 213 65 209.866 65 206C65 202.134 68.134 199 72 199ZM184 199H142C138.134 199 135 202.134 135 206C135 209.866 138.134 213 142 213H184C187.866 213 191 209.866 191 206C191 202.134 187.866 199 184 199ZM142 167H184C187.866 167 191 170.134 191 174C191 177.866 187.866 181 184 181H142C138.134 181 135 177.866 135 174C135 170.134 138.134 167 142 167ZM137.048 72.3966C148.234 77.5687 153.028 90.6584 147.756 101.631C152.778 103.922 155.994 108.858 156 114.291V150.236C156 152.442 154.178 154.229 151.929 154.229H103.071C100.822 154.229 99 152.442 99 150.236V114.291C99.0061 108.858 102.222 103.922 107.245 101.631C105.84 98.7217 105.111 95.5447 105.107 92.3256C105.099 89.0667 105.828 85.8476 107.245 82.9002C112.517 71.9273 125.861 67.2246 137.048 72.3966ZM141.75 92.3256C141.75 84.6055 135.37 78.3473 127.5 78.3473C119.63 78.3473 113.25 84.6055 113.25 92.3256C113.25 100.046 119.63 106.304 127.5 106.304C135.37 106.304 141.75 100.046 141.75 92.3256ZM107.143 114.291V146.242H147.857V114.291C147.896 111.324 145.714 108.776 142.727 108.301C134.165 116.161 120.856 116.161 112.293 108.301C109.299 108.766 107.106 111.318 107.143 114.291Z" fill="url(#paint0_linear_667_175)"/>
<path d="M220.141 59.4684L221.833 58.4013L221.833 58.4013L220.141 59.4684ZM219.309 58.1492L217.617 59.2156L217.617 59.2157L219.309 58.1492ZM218.9 57.5L220.592 56.4336L220.474 56.2463L220.318 56.0894L218.9 57.5ZM171 9.35352L172.418 7.94294L172.404 7.92894L172.39 7.91522L171 9.35352ZM168.606 32.3665L167.176 33.7649L167.176 33.765L168.606 32.3665ZM191.458 55.7304L190.028 57.1289L190.028 57.129L191.458 55.7304ZM147.756 101.631L145.953 100.765L145.07 102.604L146.926 103.451L147.756 101.631ZM137.048 72.3966L137.887 70.5813L137.887 70.5812L137.048 72.3966ZM156 114.291L158 114.291L158 114.289L156 114.291ZM99 114.291L97 114.289V114.291H99ZM107.245 101.631L108.075 103.451L109.935 102.602L109.046 100.761L107.245 101.631ZM105.107 92.3256L107.107 92.3231L107.107 92.3207L105.107 92.3256ZM107.245 82.9002L109.048 83.7668L109.048 83.7663L107.245 82.9002ZM107.143 146.242H105.143V148.242H107.143V146.242ZM107.143 114.291H109.143V114.279L109.143 114.266L107.143 114.291ZM147.857 146.242V148.242H149.857V146.242H147.857ZM147.857 114.291L145.857 114.265L145.857 114.278V114.291H147.857ZM142.727 108.301L143.041 106.326L142.087 106.174L141.374 106.828L142.727 108.301ZM112.293 108.301L113.645 106.828L112.937 106.177L111.986 106.325L112.293 108.301ZM218.449 60.5354C218.784 61.0666 219 61.8113 219 62.4373H223C223 61.0539 222.57 59.5696 221.833 58.4013L218.449 60.5354ZM217.617 59.2157C217.854 59.5917 218.162 60.0795 218.449 60.5355L221.833 58.4013C221.545 57.9458 221.238 57.4585 221.001 57.0827L217.617 59.2157ZM217.208 58.5664L217.617 59.2156L221.001 57.0828L220.592 56.4336L217.208 58.5664ZM169.582 10.7641L217.482 58.9106L220.318 56.0894L172.418 7.94294L169.582 10.7641ZM156.269 4C156.171 4 156.298 3.99432 156.799 4.15887C157.229 4.29986 157.783 4.51412 158.437 4.79279C159.742 5.34826 161.339 6.11395 162.939 6.93338C164.537 7.75148 166.11 8.60917 167.363 9.34198C167.991 9.70898 168.525 10.0367 168.935 10.307C169.14 10.4421 169.304 10.556 169.428 10.6477C169.561 10.7463 169.611 10.7921 169.61 10.7918L172.39 7.91522C172.062 7.59878 171.588 7.26467 171.135 6.96637C170.645 6.6436 170.046 6.27689 169.383 5.88905C168.054 5.11218 166.414 4.21875 164.762 3.373C163.113 2.52857 161.425 1.71767 160.004 1.11251C159.296 0.810859 158.627 0.548793 158.047 0.358545C157.54 0.191849 156.872 0 156.269 0V4ZM41.1923 4H156.269V0H41.1923V4ZM36 9.35352C36 6.35495 38.3663 4 41.1923 4V0C36.0741 0 32 4.22987 32 9.35352H36ZM36 245.646V9.35352H32V245.646H36ZM41.1923 251C38.3664 251 36 248.645 36 245.646H32C32 250.771 36.074 255 41.1923 255V251ZM213.808 251H41.1923V255H213.808V251ZM219 245.646C219 248.646 216.634 251 213.808 251V255C218.926 255 223 250.77 223 245.646H219ZM219 68.1816V245.646H223V68.1816H219ZM219 62.4373V68.1816H223V62.4373H219ZM170.036 30.9681C166.902 27.7641 161.462 29.9833 161.462 34.4642H165.462C165.462 33.5675 166.55 33.1246 167.176 33.7649L170.036 30.9681ZM192.888 54.3319L170.036 30.968L167.176 33.765L190.028 57.1289L192.888 54.3319ZM189.313 62.8281C193.74 62.8281 195.985 57.4978 192.888 54.3318L190.028 57.129C190.647 57.7616 190.2 58.8281 189.313 58.8281V62.8281ZM166.462 62.8281H189.313V58.8281H166.462V62.8281ZM161.462 57.8281C161.462 60.5895 163.7 62.8281 166.462 62.8281V58.8281C165.91 58.8281 165.462 58.3805 165.462 57.8281H161.462ZM161.462 34.4642V57.8281H165.462V34.4642H161.462ZM50 232.5C50 235.262 52.2386 237.5 55 237.5V233.5C54.4476 233.5 54 233.052 54 232.5H50ZM50 22.5V232.5H54V22.5H50ZM55 17.5C52.2385 17.5 50 19.7385 50 22.5H54C54 21.9477 54.4477 21.5 55 21.5V17.5ZM141.5 17.5H55V21.5H141.5V17.5ZM146.5 22.5C146.5 19.7386 144.262 17.5 141.5 17.5V21.5C142.052 21.5 142.5 21.9476 142.5 22.5H146.5ZM146.5 60.8281V22.5H142.5V60.8281H146.5ZM163.462 77C163.491 77 163.414 77.0026 163.201 76.9346C162.998 76.8701 162.731 76.7614 162.399 76.5957C161.732 76.2633 160.911 75.7577 159.976 75.0978C158.112 73.7816 155.941 71.9577 153.869 69.9876C151.796 68.0166 149.873 65.9475 148.485 64.1559C147.789 63.2575 147.259 62.4687 146.912 61.8257C146.531 61.1192 146.5 60.8197 146.5 60.8281H142.5C142.5 61.8517 142.937 62.8816 143.391 63.7241C143.88 64.6301 144.552 65.61 145.323 66.6056C146.87 68.602 148.942 70.8219 151.113 72.8863C153.285 74.9515 155.606 76.9092 157.67 78.3657C158.699 79.0922 159.701 79.7206 160.614 80.1757C161.463 80.5986 162.48 81 163.462 81V77ZM200 77H163.462V81H200V77ZM205 82C205 79.2386 202.762 77 200 77V81C200.552 81 201 81.4476 201 82H205ZM205 232.5V82H201V232.5H205ZM200 237.5C202.762 237.5 205 235.262 205 232.5H201C201 233.052 200.552 233.5 200 233.5V237.5ZM55 237.5H200V233.5H55V237.5ZM113.125 165H72V169H113.125V165ZM122.125 174C122.125 169.03 118.095 165 113.125 165V169C115.886 169 118.125 171.239 118.125 174H122.125ZM113.125 183C118.095 183 122.125 178.97 122.125 174H118.125C118.125 176.761 115.886 179 113.125 179V183ZM72 183H113.125V179H72V183ZM63 174C63 178.97 67.0294 183 72 183V179C69.2386 179 67 176.761 67 174H63ZM72 165C67.0294 165 63 169.03 63 174H67C67 171.239 69.2386 169 72 169V165ZM113.125 197H72V201H113.125V197ZM122.125 206C122.125 201.03 118.095 197 113.125 197V201C115.886 201 118.125 203.239 118.125 206H122.125ZM113.125 215C118.095 215 122.125 210.97 122.125 206H118.125C118.125 208.761 115.886 211 113.125 211V215ZM72 215H113.125V211H72V215ZM63 206C63 210.97 67.0294 215 72 215V211C69.2386 211 67 208.761 67 206H63ZM72 197C67.0294 197 63 201.03 63 206H67C67 203.239 69.2386 201 72 201V197ZM142 201H184V197H142V201ZM137 206C137 203.239 139.239 201 142 201V197C137.03 197 133 201.03 133 206H137ZM142 211C139.239 211 137 208.761 137 206H133C133 210.97 137.03 215 142 215V211ZM184 211H142V215H184V211ZM189 206C189 208.761 186.761 211 184 211V215C188.97 215 193 210.97 193 206H189ZM184 201C186.761 201 189 203.239 189 206H193C193 201.03 188.97 197 184 197V201ZM184 165H142V169H184V165ZM193 174C193 169.03 188.97 165 184 165V169C186.761 169 189 171.239 189 174H193ZM184 183C188.97 183 193 178.97 193 174H189C189 176.761 186.761 179 184 179V183ZM142 183H184V179H142V183ZM133 174C133 178.97 137.03 183 142 183V179C139.239 179 137 176.761 137 174H133ZM142 165C137.03 165 133 169.03 133 174H137C137 171.239 139.239 169 142 169V165ZM149.559 102.497C155.324 90.4973 150.065 76.2119 137.887 70.5813L136.209 74.2119C146.403 78.9255 150.732 90.8194 145.953 100.765L149.559 102.497ZM158 114.289C157.993 108.056 154.305 102.42 148.586 99.8114L146.926 103.451C151.251 105.424 153.995 109.66 154 114.293L158 114.289ZM158 150.236V114.291H154V150.236H158ZM151.929 156.229C155.246 156.229 158 153.583 158 150.236H154C154 151.301 153.11 152.229 151.929 152.229V156.229ZM103.071 156.229H151.929V152.229H103.071V156.229ZM97 150.236C97 153.583 99.7541 156.229 103.071 156.229V152.229C101.89 152.229 101 151.301 101 150.236H97ZM97 114.291V150.236H101V114.291H97ZM106.415 99.8113C100.695 102.42 97.007 108.056 97 114.289L101 114.293C101.005 109.66 103.749 105.424 108.075 103.451L106.415 99.8113ZM103.107 92.3281C103.111 95.8481 103.909 99.3215 105.444 102.501L109.046 100.761C107.771 98.1219 107.111 95.2413 107.107 92.3231L103.107 92.3281ZM105.442 82.0336C103.895 85.2526 103.098 88.7696 103.107 92.3305L107.107 92.3207C107.1 89.3638 107.761 86.4426 109.048 83.7668L105.442 82.0336ZM137.887 70.5812C125.729 64.9601 111.197 70.0555 105.442 82.0341L109.048 83.7663C113.837 73.7991 125.993 69.4891 136.209 74.212L137.887 70.5812ZM127.5 80.3473C134.302 80.3473 139.75 85.7462 139.75 92.3256H143.75C143.75 83.4648 136.438 76.3473 127.5 76.3473V80.3473ZM115.25 92.3256C115.25 85.7462 120.698 80.3473 127.5 80.3473V76.3473C118.562 76.3473 111.25 83.4648 111.25 92.3256H115.25ZM127.5 104.304C120.698 104.304 115.25 98.9053 115.25 92.3256H111.25C111.25 101.187 118.562 108.304 127.5 108.304V104.304ZM139.75 92.3256C139.75 98.9053 134.302 104.304 127.5 104.304V108.304C136.438 108.304 143.75 101.187 143.75 92.3256H139.75ZM109.143 146.242V114.291H105.143V146.242H109.143ZM147.857 144.242H107.143V148.242H147.857V144.242ZM145.857 114.291V146.242H149.857V114.291H145.857ZM142.413 110.276C144.448 110.6 145.883 112.32 145.857 114.265L149.857 114.317C149.909 110.328 146.98 106.952 143.041 106.326L142.413 110.276ZM110.941 109.774C120.268 118.336 134.753 118.337 144.08 109.774L141.374 106.828C133.577 113.985 121.444 113.986 113.645 106.828L110.941 109.774ZM109.143 114.266C109.119 112.316 110.562 110.594 112.6 110.277L111.986 106.325C108.036 106.938 105.093 110.32 105.143 114.316L109.143 114.266Z" fill="url(#paint1_linear_667_175)"/>
<defs>
<linearGradient id="paint0_linear_667_175" x1="34" y1="181.5" x2="284.5" y2="150" gradientUnits="userSpaceOnUse">
<stop stop-color="#A93AFF"/>
<stop offset="1" stop-color="#FF81FF"/>
</linearGradient>
<linearGradient id="paint1_linear_667_175" x1="34" y1="181.5" x2="284.5" y2="150" gradientUnits="userSpaceOnUse">
<stop stop-color="#A93AFF"/>
<stop offset="1" stop-color="#FF81FF"/>
</linearGradient>
</defs>
</svg>
