<svg width="256" height="256" viewBox="0 0 256 256" fill="none" xmlns="http://www.w3.org/2000/svg">
<path d="M221 62.4373C221 61.4326 220.677 60.3181 220.141 59.4684C219.561 58.549 218.901 57.5014 218.9 57.5L171 9.35352C169.555 7.95733 158.291 2 156.269 2H41.1923C37.2202 2 34 5.29241 34 9.35352V245.646C34 249.708 37.2202 253 41.1923 253H213.808C217.78 253 221 249.708 221 245.646V68.1816C221 66.4864 221 65.7083 221 62.4373ZM163.462 34.4642C163.462 31.7754 166.726 30.4443 168.606 32.3665L191.458 55.7304C193.316 57.6297 191.97 60.8281 189.313 60.8281H166.462C164.805 60.8281 163.462 59.485 163.462 57.8281V34.4642ZM55 235.5C53.3431 235.5 52 234.157 52 232.5V22.5C52 20.8431 53.3431 19.5 55 19.5H141.5C143.157 19.5 144.5 20.8431 144.5 22.5V60.8281C144.5 64.8892 159.489 79 163.462 79H200C201.657 79 203 80.3431 203 82V232.5C203 234.157 201.657 235.5 200 235.5H55Z" fill="url(#paint0_linear)"/>
<path d="M61.041 149.252C61.1383 148.731 61.7153 148.506 62.1794 148.25C64.9978 146.694 70.2454 144.192 77.9221 140.743C86.3169 136.951 91.0969 134.782 92.2621 134.236C93.4538 133.69 94.288 133.417 94.7647 133.417C95.2413 133.417 95.4929 133.626 95.5195 134.044C95.982 141.246 96.4819 146.361 97.0192 149.388C97.0514 149.569 97.0726 149.753 97.0593 149.937C97.043 150.162 97.0052 150.342 96.9458 150.476C96.8162 150.768 96.4429 150.835 96.1505 150.965L84.2166 156.297C82.032 157.273 81.8277 160.261 83.8644 161.517C85.0161 162.227 86.3721 163.062 87.9323 164.023C93.2288 167.237 96.155 169.036 96.7111 169.421C97.2672 169.775 97.5454 170.032 97.5454 170.192C97.5454 170.274 97.5386 170.367 97.5251 170.473C97.4955 170.705 97.4156 170.925 97.3196 171.138C95.9963 174.072 94.39 178.962 92.5005 185.81C92.3151 186.42 91.9841 186.726 91.5073 186.726C91.0572 186.726 90.5541 186.533 89.9979 186.147L62.5208 166.715C62.3024 166.56 62.091 166.383 61.9843 166.138C61.8578 165.847 61.7945 165.48 61.7945 165.036C61.7945 160.89 61.6621 157.308 61.3973 154.287C61.1325 151.235 61 149.692 61 149.66V149.564C61.0099 149.449 61.0236 149.346 61.041 149.252ZM146.762 114.426L115.661 191.629C115.094 193.038 113.562 193.801 112.096 193.404L104.02 191.22C102.286 190.752 101.352 188.871 102.021 187.204C116.787 150.397 127.843 123.403 135.187 106.223C135.768 104.863 137.252 104.142 138.684 104.51L146.128 106.425C147.905 106.882 148.859 108.812 148.143 110.501L148.073 110.666L146.762 114.426ZM192.986 149.435C192.997 149.521 193 149.607 193 149.694C193 149.725 193 149.762 193 149.805C192.47 155.814 192.193 160.89 192.166 165.036C192.166 165.775 191.993 166.288 191.65 166.578L163.962 186.147C163.221 186.533 162.665 186.726 162.294 186.726C161.923 186.726 161.632 186.387 161.42 185.713C161.208 185.039 160.612 183.046 159.632 179.737C158.686 176.537 157.677 173.655 156.607 171.086C156.533 170.908 156.471 170.725 156.444 170.535C156.424 170.393 156.415 170.263 156.415 170.144C156.415 169.92 156.693 169.647 157.249 169.325C162.679 166.022 166.939 163.425 170.028 161.536C172.081 160.28 171.878 157.251 169.681 156.269L157.81 150.966C157.518 150.835 157.144 150.769 157.014 150.476C156.955 150.342 156.917 150.162 156.901 149.937C156.888 149.753 156.909 149.569 156.941 149.388C157.478 146.361 157.979 141.245 158.441 134.044C158.468 133.626 158.719 133.417 159.196 133.417C159.672 133.417 160.493 133.69 161.659 134.236C162.851 134.782 167.63 136.951 175.998 140.743C183.699 144.192 188.96 146.694 191.781 148.25C192.245 148.506 192.843 148.706 192.952 149.225C192.966 149.29 192.977 149.36 192.986 149.435Z" fill="url(#paint1_linear)"/>
<defs>
<linearGradient id="paint0_linear" x1="34.0274" y1="123.781" x2="221.031" y2="123.781" gradientUnits="userSpaceOnUse">
<stop stop-color="#A93AFF"/>
<stop offset="1" stop-color="#FF81FF"/>
</linearGradient>
<linearGradient id="paint1_linear" x1="61.0193" y1="147.641" x2="193.022" y2="147.641" gradientUnits="userSpaceOnUse">
<stop stop-color="#A93AFF"/>
<stop offset="1" stop-color="#FF81FF"/>
</linearGradient>
</defs>
</svg>
