<svg width="256" height="256" viewBox="0 0 256 256" fill="none" xmlns="http://www.w3.org/2000/svg">
<path fill-rule="evenodd" clip-rule="evenodd" d="M220.141 59.4684C220.677 60.3181 221 61.4326 221 62.4373V68.1816V245.646C221 249.708 217.78 253 213.808 253H41.1923C37.2202 253 34 249.708 34 245.646V9.35352C34 5.29241 37.2202 2 41.1923 2H156.269C158.291 2 169.555 7.95733 171 9.35352L218.9 57.5C218.9 57.5 219.068 57.7668 219.309 58.1492C219.546 58.5251 219.854 59.0127 220.141 59.4684ZM168.606 32.3665C166.726 30.4443 163.462 31.7754 163.462 34.4642V57.8281C163.462 59.485 164.805 60.8281 166.462 60.8281H189.313C191.97 60.8281 193.316 57.6297 191.458 55.7304L168.606 32.3665ZM52 232.5C52 234.157 53.3431 235.5 55 235.5H200C201.657 235.5 203 234.157 203 232.5V82C203 80.3431 201.657 79 200 79H163.462C159.489 79 144.5 64.8892 144.5 60.8281V22.5C144.5 20.8431 143.157 19.5 141.5 19.5H55C53.3431 19.5 52 20.8431 52 22.5V232.5ZM112.2 110.524C112.2 107.464 114.33 105 117.39 105H137.943C141.003 105 143.133 107.464 143.133 110.524V173.6C143.133 174.152 143.581 174.6 144.133 174.6H164.198C165.046 174.6 165.509 175.589 164.967 176.24L128.435 220.078C128.035 220.558 127.298 220.558 126.898 220.078L90.3668 176.24C89.824 175.589 90.2872 174.6 91.135 174.6H111.2C111.752 174.6 112.2 174.152 112.2 173.6V110.524Z" fill="url(#paint0_linear)"/>
<defs>
<linearGradient id="paint0_linear" x1="127.5" y1="253" x2="127.5" y2="1.99999" gradientUnits="userSpaceOnUse">
<stop stop-color="#02AA93"/>
<stop offset="1" stop-color="#67FF80"/>
</linearGradient>
</defs>
</svg>
