<svg width="256" height="256" viewBox="0 0 256 256" fill="none" xmlns="http://www.w3.org/2000/svg">
<path d="M221 62.4373C221 61.4326 220.677 60.3181 220.141 59.4684C219.561 58.549 218.9 57.5 218.9 57.5L171 9.35352C169.555 7.95733 158.291 2 156.269 2H41.1923C37.2202 2 34 5.29241 34 9.35352V245.646C34 249.708 37.2202 253 41.1923 253H213.808C217.78 253 221 249.708 221 245.646V68.1816C221 66.4864 221 65.7083 221 62.4373ZM163.462 34.4642C163.462 31.7754 166.726 30.4443 168.606 32.3665L191.458 55.7304C193.316 57.6297 191.97 60.8281 189.313 60.8281H166.462C164.805 60.8281 163.462 59.485 163.462 57.8281V34.4642ZM55 235.5C53.3431 235.5 52 234.157 52 232.5V22.5C52 20.8431 53.3431 19.5 55 19.5H141.5C143.157 19.5 144.5 20.8431 144.5 22.5V60.8281C144.5 64.8892 159.489 79 163.462 79H200C201.657 79 203 80.3431 203 82V232.5C203 234.157 201.657 235.5 200 235.5H55Z" fill="url(#paint0_linear_667_129)"/>
<path d="M166.858 146.758C166.968 150.087 167.076 152.185 166.858 157.961C167.059 141.81 166.935 153.5 166.87 162.693C166.863 163.774 165.999 164.654 164.918 164.668C158.967 164.747 150.871 164.633 146.474 164.633H119.414H119.376H119.366C119.359 164.633 119.348 164.633 119.333 164.633C119.28 164.634 119.18 164.637 119.04 164.645C118.758 164.66 118.324 164.695 117.79 164.775C116.698 164.937 115.324 165.265 114.015 165.889C112.725 166.503 111.605 167.352 110.798 168.53C110.015 169.673 109.314 171.432 109.314 174.253V198.781V199.035C109.314 199.121 109.307 199.207 109.294 199.292L109.282 199.363C109.276 199.4 109.273 199.438 109.273 199.476V199.476C109.272 199.613 109.28 199.876 109.342 200.221C109.461 200.891 109.885 205.137 110.798 206.218C112.525 208.263 140.014 209.061 140.014 206.218V195.103C140.014 193.998 139.118 193.103 138.014 193.103H128.454C127.349 193.103 126.454 192.208 126.454 191.103V184.581V181.581C126.454 180.476 127.349 179.581 128.454 179.581H131.454H169.334H169.612L169.831 179.605H169.834C169.874 179.608 169.969 179.612 170.111 179.612C170.397 179.612 170.856 179.593 171.428 179.507C172.58 179.333 174.104 178.9 175.623 177.874C178.383 176.007 182.514 171.192 182.514 157.961C182.514 144.537 178.778 139.301 176.295 137.24C174.984 136.152 173.717 135.68 172.826 135.471C172.377 135.366 172.027 135.328 171.827 135.315C171.76 135.311 171.711 135.309 171.683 135.309L171.618 135.313H171.462H169.047C167.953 135.313 167.062 136.192 167.047 137.286L166.858 151.246C166.858 151.252 167.074 143.539 167.074 143.546C167.075 143.604 167.076 143.678 167.076 143.767" fill="url(#paint1_linear_667_129)"/>
<path d="M166.858 146.758C166.968 150.087 167.076 152.185 166.858 157.961C167.059 141.81 166.935 153.5 166.87 162.693C166.863 163.774 165.999 164.654 164.918 164.668C158.967 164.747 150.871 164.633 146.474 164.633H119.414H119.376H119.366C119.359 164.633 119.348 164.633 119.333 164.633C119.28 164.634 119.18 164.637 119.04 164.645C118.758 164.66 118.324 164.695 117.79 164.775C116.698 164.937 115.324 165.265 114.015 165.889C112.725 166.503 111.605 167.352 110.798 168.53C110.015 169.673 109.314 171.432 109.314 174.253V198.781V199.035C109.314 199.121 109.307 199.207 109.294 199.292L109.282 199.363C109.276 199.4 109.273 199.438 109.273 199.476V199.476C109.272 199.613 109.28 199.876 109.342 200.221C109.461 200.891 109.885 205.137 110.798 206.218C112.525 208.263 140.014 209.061 140.014 206.218V195.103C140.014 193.998 139.118 193.103 138.014 193.103H128.454C127.349 193.103 126.454 192.208 126.454 191.103V184.581V181.581C126.454 180.476 127.349 179.581 128.454 179.581H131.454H169.334H169.612L169.831 179.605H169.834C169.874 179.608 169.969 179.612 170.111 179.612C170.397 179.612 170.856 179.593 171.428 179.507C172.58 179.333 174.104 178.9 175.623 177.874C178.383 176.007 182.514 171.192 182.514 157.961C182.514 144.537 178.778 139.301 176.295 137.24C174.984 136.152 173.717 135.68 172.826 135.471C172.377 135.366 172.027 135.328 171.827 135.315C171.76 135.311 171.711 135.309 171.683 135.309L171.618 135.313H171.462H169.047C167.953 135.313 167.062 136.192 167.047 137.286L166.858 151.246C166.858 151.252 167.074 143.539 167.074 143.546C167.075 143.604 167.076 143.678 167.076 143.767" stroke="url(#paint2_linear_667_129)" stroke-width="12" stroke-linecap="round"/>
<path d="M89.656 161.305C89.5458 157.976 89.438 155.878 89.656 150.102C89.4545 166.253 89.5784 154.563 89.6431 145.37C89.6507 144.289 90.5141 143.409 91.5952 143.395C97.5461 143.316 105.642 143.43 110.04 143.43H137.1H137.138H137.148C137.155 143.43 137.166 143.43 137.181 143.43C137.234 143.429 137.334 143.426 137.474 143.418C137.756 143.403 138.19 143.368 138.724 143.288C139.816 143.126 141.19 142.798 142.499 142.174C143.789 141.56 144.909 140.711 145.716 139.533C146.499 138.39 147.2 136.631 147.2 133.81V109.282V109.028C147.2 108.942 147.207 108.856 147.22 108.772L147.231 108.7C147.237 108.663 147.241 108.625 147.241 108.587V108.587C147.242 108.45 147.234 108.187 147.172 107.842C147.053 107.172 146.629 102.926 145.716 101.845C143.989 99.8001 116.5 99.002 116.5 101.845V112.96C116.5 114.065 117.395 114.96 118.5 114.96H128.06C129.165 114.96 130.06 115.855 130.06 116.96V123.482V126.482C130.06 127.587 129.165 128.482 128.06 128.482H125.06H87.18H86.902L86.683 128.458H86.68C86.64 128.455 86.545 128.451 86.403 128.451C86.117 128.451 85.658 128.47 85.086 128.556C83.934 128.73 82.41 129.163 80.891 130.189C78.131 132.056 74 136.871 74 150.102C74 163.526 77.736 168.762 80.219 170.823C81.53 171.911 82.797 172.383 83.688 172.592C84.137 172.697 84.487 172.735 84.687 172.748C84.754 172.752 84.803 172.754 84.831 172.754L84.896 172.75H85.052H87.4669C88.5609 172.75 89.4519 171.871 89.4667 170.777L89.656 156.818C89.656 156.812 89.44 164.524 89.44 164.517C89.439 164.459 89.438 164.385 89.438 164.296" fill="url(#paint3_linear_667_129)"/>
<path d="M89.656 161.305C89.5458 157.976 89.438 155.878 89.656 150.102C89.4545 166.253 89.5784 154.563 89.6431 145.37C89.6507 144.289 90.5141 143.409 91.5952 143.395C97.5461 143.316 105.642 143.43 110.04 143.43H137.1H137.138H137.148C137.155 143.43 137.166 143.43 137.181 143.43C137.234 143.429 137.334 143.426 137.474 143.418C137.756 143.403 138.19 143.368 138.724 143.288C139.816 143.126 141.19 142.798 142.499 142.174C143.789 141.56 144.909 140.711 145.716 139.533C146.499 138.39 147.2 136.631 147.2 133.81V109.282V109.028C147.2 108.942 147.207 108.856 147.22 108.772L147.231 108.7C147.237 108.663 147.241 108.625 147.241 108.587V108.587C147.242 108.45 147.234 108.187 147.172 107.842C147.053 107.172 146.629 102.926 145.716 101.845C143.989 99.8001 116.5 99.002 116.5 101.845V112.96C116.5 114.065 117.395 114.96 118.5 114.96H128.06C129.165 114.96 130.06 115.855 130.06 116.96V123.482V126.482C130.06 127.587 129.165 128.482 128.06 128.482H125.06H87.18H86.902L86.683 128.458H86.68C86.64 128.455 86.545 128.451 86.403 128.451C86.117 128.451 85.658 128.47 85.086 128.556C83.934 128.73 82.41 129.163 80.891 130.189C78.131 132.056 74 136.871 74 150.102C74 163.526 77.736 168.762 80.219 170.823C81.53 171.911 82.797 172.383 83.688 172.592C84.137 172.697 84.487 172.735 84.687 172.748C84.754 172.752 84.803 172.754 84.831 172.754L84.896 172.75H85.052H87.4669C88.5609 172.75 89.4519 171.871 89.4667 170.777L89.656 156.818C89.656 156.812 89.44 164.524 89.44 164.517C89.439 164.459 89.438 164.385 89.438 164.296" stroke="url(#paint4_linear_667_129)" stroke-width="12" stroke-linecap="round"/>
<defs>
<linearGradient id="paint0_linear_667_129" x1="40" y1="11" x2="202" y2="169" gradientUnits="userSpaceOnUse">
<stop stop-color="#FD8900"/>
<stop offset="1" stop-color="#FFDE00"/>
</linearGradient>
<linearGradient id="paint1_linear_667_129" x1="104.273" y1="158.193" x2="178.193" y2="201.129" gradientUnits="userSpaceOnUse">
<stop stop-color="#FD5900"/>
<stop offset="1" stop-color="#FFDE00"/>
</linearGradient>
<linearGradient id="paint2_linear_667_129" x1="104.273" y1="158.193" x2="178.193" y2="201.129" gradientUnits="userSpaceOnUse">
<stop stop-color="#FD5900"/>
<stop offset="1" stop-color="#FFDE00"/>
</linearGradient>
<linearGradient id="paint3_linear_667_129" x1="152.241" y1="149.87" x2="78.321" y2="106.934" gradientUnits="userSpaceOnUse">
<stop stop-color="#FD5900"/>
<stop offset="1" stop-color="#FFDE00"/>
</linearGradient>
<linearGradient id="paint4_linear_667_129" x1="152.241" y1="149.87" x2="78.321" y2="106.934" gradientUnits="userSpaceOnUse">
<stop stop-color="#FD5900"/>
<stop offset="1" stop-color="#FFDE00"/>
</linearGradient>
</defs>
</svg>
