<svg width="256" height="256" viewBox="0 0 256 256" fill="none" xmlns="http://www.w3.org/2000/svg">
<path d="M221 62.4373C221 61.4326 220.677 60.3181 220.141 59.4684C219.561 58.549 218.901 57.5014 218.9 57.5L171 9.35352C169.555 7.95733 158.291 2 156.269 2H41.1923C37.2202 2 34 5.29241 34 9.35352V245.646C34 249.708 37.2202 253 41.1923 253H213.808C217.78 253 221 249.708 221 245.646V68.1816C221 66.4864 221 65.7083 221 62.4373ZM163.462 34.4642C163.462 31.7754 166.726 30.4443 168.606 32.3665L191.458 55.7304C193.316 57.6297 191.97 60.8281 189.313 60.8281H166.462C164.805 60.8281 163.462 59.485 163.462 57.8281V34.4642ZM55 235.5C53.3431 235.5 52 234.157 52 232.5V22.5C52 20.8431 53.3431 19.5 55 19.5H141.5C143.157 19.5 144.5 20.8431 144.5 22.5V60.8281C144.5 64.8892 159.489 79 163.462 79H200C201.657 79 203 80.3431 203 82V232.5C203 234.157 201.657 235.5 200 235.5H55Z" fill="url(#paint0_linear)"/>
<path d="M128 98C95.9682 98 70 123.968 70 156C70 188.032 95.9682 214 128 214C160.032 214 186 188.032 186 156C186 123.968 160.032 98 128 98ZM128 103.273C157.121 103.273 180.727 126.879 180.727 156C180.727 185.121 157.121 208.727 128 208.727C98.8787 208.727 75.2727 185.121 75.2727 156C75.2727 126.879 98.8787 103.273 128 103.273ZM128 119.091C118.211 119.091 108.823 122.98 101.901 129.901C94.9795 136.823 91.0909 146.211 91.0909 156C91.0909 165.789 94.9795 175.177 101.901 182.099C108.823 189.02 118.211 192.909 128 192.909C137.786 192.902 147.169 189.009 154.086 182.086L150.358 178.358C144.43 184.292 136.388 187.63 128 187.637C119.61 187.637 111.563 184.303 105.63 178.37C99.6969 172.437 96.3638 164.391 96.3638 156C96.3638 147.61 99.6969 139.563 105.63 133.63C111.563 127.697 119.61 124.364 128 124.364C136.388 124.371 144.43 127.708 150.358 133.643L154.086 129.915C147.169 122.991 137.786 119.098 128 119.091" fill="url(#paint1_linear)"/>
<path d="M128 119.091C118.211 119.091 108.823 122.98 101.901 129.901C94.9795 136.823 91.0909 146.211 91.0909 156C91.0909 165.789 94.9795 175.177 101.901 182.099C108.823 189.02 118.211 192.909 128 192.909C137.786 192.902 147.169 189.009 154.086 182.086L150.358 178.358C144.43 184.292 136.388 187.63 128 187.637C119.61 187.637 111.563 184.303 105.63 178.37C99.6969 172.437 96.3638 164.391 96.3638 156C96.3638 147.61 99.6969 139.563 105.63 133.63C111.563 127.697 119.61 124.364 128 124.364C136.388 124.371 144.43 127.708 150.358 133.643L154.086 129.915C147.169 122.991 137.786 119.098 128 119.091M128 98C95.9682 98 70 123.968 70 156C70 188.032 95.9682 214 128 214C160.032 214 186 188.032 186 156C186 123.968 160.032 98 128 98ZM128 103.273C157.121 103.273 180.727 126.879 180.727 156C180.727 185.121 157.121 208.727 128 208.727C98.8787 208.727 75.2727 185.121 75.2727 156C75.2727 126.879 98.8787 103.273 128 103.273Z" stroke="url(#paint2_linear)" stroke-width="10"/>
<defs>
<linearGradient id="paint0_linear" x1="34.0274" y1="123.781" x2="221.031" y2="123.781" gradientUnits="userSpaceOnUse">
<stop stop-color="#A93AFF"/>
<stop offset="1" stop-color="#FF81FF"/>
</linearGradient>
<linearGradient id="paint1_linear" x1="128" y1="214" x2="128" y2="98" gradientUnits="userSpaceOnUse">
<stop stop-color="#A93AFF"/>
<stop offset="1" stop-color="#FF81FF"/>
</linearGradient>
<linearGradient id="paint2_linear" x1="128" y1="214" x2="128" y2="98" gradientUnits="userSpaceOnUse">
<stop stop-color="#A93AFF"/>
<stop offset="1" stop-color="#FF81FF"/>
</linearGradient>
</defs>
</svg>
