<svg width="256" height="256" viewBox="0 0 256 256" fill="none" xmlns="http://www.w3.org/2000/svg">
<path d="M221 62.4373C221 61.4326 220.677 60.3181 220.141 59.4684C219.561 58.549 218.901 57.5014 218.9 57.5L171 9.35352C169.555 7.95733 158.291 2 156.269 2H41.1923C37.2202 2 34 5.29241 34 9.35352V245.646C34 249.708 37.2202 253 41.1923 253H213.808C217.78 253 221 249.708 221 245.646V68.1816C221 66.4864 221 65.7083 221 62.4373ZM163.462 34.4642C163.462 31.7754 166.726 30.4443 168.606 32.3665L191.458 55.7304C193.316 57.6297 191.97 60.8281 189.313 60.8281H166.462C164.805 60.8281 163.462 59.485 163.462 57.8281V34.4642ZM55 235.5C53.3431 235.5 52 234.157 52 232.5V22.5C52 20.8431 53.3431 19.5 55 19.5H141.5C143.157 19.5 144.5 20.8431 144.5 22.5V60.8281C144.5 64.8892 159.489 79 163.462 79H200C201.657 79 203 80.3431 203 82V232.5C203 234.157 201.657 235.5 200 235.5H55Z" fill="url(#paint0_linear)"/>
<path d="M159.353 135.788C167.393 119.054 160.082 99.0924 143.024 91.2049C125.963 83.3175 105.614 90.4892 97.5737 107.223C95.4128 111.718 94.301 116.627 94.3132 121.597C94.3193 126.506 95.4311 131.351 97.5737 135.788C89.9136 139.281 85.0093 146.809 85 155.094V209.911C85 213.275 87.7786 216 91.2083 216H165.717C169.147 216 171.925 213.275 171.925 209.911V155.094C171.916 146.809 167.012 139.281 159.353 135.788ZM128.463 100.28C140.465 100.28 150.194 109.824 150.194 121.597C150.194 133.37 140.465 142.914 128.463 142.914C116.461 142.914 106.731 133.37 106.731 121.597C106.731 109.824 116.461 100.28 128.463 100.28ZM159.507 203.82H97.4181V155.094C97.3617 150.56 100.706 146.669 105.272 145.959C118.331 157.946 138.627 157.946 151.684 145.959C156.239 146.684 159.567 150.57 159.507 155.094V203.82Z" fill="url(#paint1_linear)" stroke="url(#paint2_linear)" stroke-width="4"/>
<defs>
<linearGradient id="paint0_linear" x1="34.0274" y1="123.781" x2="221.031" y2="123.781" gradientUnits="userSpaceOnUse">
<stop stop-color="#A93AFF"/>
<stop offset="1" stop-color="#FF81FF"/>
</linearGradient>
<linearGradient id="paint1_linear" x1="85.0127" y1="150.104" x2="171.939" y2="150.104" gradientUnits="userSpaceOnUse">
<stop stop-color="#A93AFF"/>
<stop offset="1" stop-color="#FF81FF"/>
</linearGradient>
<linearGradient id="paint2_linear" x1="85.0127" y1="150.104" x2="171.939" y2="150.104" gradientUnits="userSpaceOnUse">
<stop stop-color="#A93AFF"/>
<stop offset="1" stop-color="#FF81FF"/>
</linearGradient>
</defs>
</svg>
