<svg width="256" height="256" viewBox="0 0 256 256" fill="none" xmlns="http://www.w3.org/2000/svg">
<path d="M221 62.4373C221 61.4326 220.677 60.3181 220.141 59.4684C219.561 58.549 218.901 57.5014 218.9 57.5L171 9.35352C169.555 7.95733 158.291 2 156.269 2H41.1923C37.2202 2 34 5.29241 34 9.35352V245.646C34 249.708 37.2202 253 41.1923 253H213.808C217.78 253 221 249.708 221 245.646V68.1816C221 66.4864 221 65.7083 221 62.4373ZM163.462 34.4642C163.462 31.7754 166.726 30.4443 168.606 32.3665L191.458 55.7304C193.316 57.6297 191.97 60.8281 189.313 60.8281H166.462C164.805 60.8281 163.462 59.485 163.462 57.8281V34.4642ZM55 235.5C53.3431 235.5 52 234.157 52 232.5V22.5C52 20.8431 53.3431 19.5 55 19.5H141.5C143.157 19.5 144.5 20.8431 144.5 22.5V60.8281C144.5 64.8892 159.489 79 163.462 79H200C201.657 79 203 80.3431 203 82V232.5C203 234.157 201.657 235.5 200 235.5H55Z" fill="#1C1C1C"/>
<path d="M221 62.4373C221 61.4326 220.677 60.3181 220.141 59.4684C219.561 58.549 218.901 57.5014 218.9 57.5L171 9.35352C169.555 7.95733 158.291 2 156.269 2H41.1923C37.2202 2 34 5.29241 34 9.35352V245.646C34 249.708 37.2202 253 41.1923 253H213.808C217.78 253 221 249.708 221 245.646V68.1816C221 66.4864 221 65.7083 221 62.4373ZM163.462 34.4642C163.462 31.7754 166.726 30.4443 168.606 32.3665L191.458 55.7304C193.316 57.6297 191.97 60.8281 189.313 60.8281H166.462C164.805 60.8281 163.462 59.485 163.462 57.8281V34.4642ZM55 235.5C53.3431 235.5 52 234.157 52 232.5V22.5C52 20.8431 53.3431 19.5 55 19.5H141.5C143.157 19.5 144.5 20.8431 144.5 22.5V60.8281C144.5 64.8892 159.489 79 163.462 79H200C201.657 79 203 80.3431 203 82V232.5C203 234.157 201.657 235.5 200 235.5H55Z" fill="url(#paint0_linear)"/>
<path d="M100.01 148.032C102.679 147.085 102.671 143.307 99.9967 142.372L76.0105 133.992C74.8064 133.571 74 132.435 74 131.159V121.51C74 119.367 76.1827 117.915 78.1595 118.743L123.195 137.615C124.31 138.083 125.035 139.173 125.035 140.382V150.163C125.035 151.371 124.311 152.461 123.197 152.929L78.1622 171.853C76.185 172.683 74 171.231 74 169.087V159.373C74 158.103 74.8001 156.97 75.9975 156.546L100.01 148.032Z" fill="#1C1C1C"/>
<path d="M100.01 148.032C102.679 147.085 102.671 143.307 99.9967 142.372L76.0105 133.992C74.8064 133.571 74 132.435 74 131.159V121.51C74 119.367 76.1827 117.915 78.1595 118.743L123.195 137.615C124.31 138.083 125.035 139.173 125.035 140.382V150.163C125.035 151.371 124.311 152.461 123.197 152.929L78.1622 171.853C76.185 172.683 74 171.231 74 169.087V159.373C74 158.103 74.8001 156.97 75.9975 156.546L100.01 148.032Z" fill="url(#paint1_linear)"/>
<path d="M182.398 191.813C182.398 193.469 181.055 194.812 179.398 194.812H132.02C130.363 194.812 129.02 193.469 129.02 191.813V184.57C129.02 182.913 130.363 181.57 132.02 181.57H179.398C181.055 181.57 182.398 182.913 182.398 184.57V191.813Z" fill="#1C1C1C"/>
<path d="M182.398 191.813C182.398 193.469 181.055 194.812 179.398 194.812H132.02C130.363 194.812 129.02 193.469 129.02 191.813V184.57C129.02 182.913 130.363 181.57 132.02 181.57H179.398C181.055 181.57 182.398 182.913 182.398 184.57V191.813Z" fill="url(#paint2_linear)"/>
<defs>
<linearGradient id="paint0_linear" x1="247.751" y1="241.622" x2="94.319" y2="-9.47812" gradientUnits="userSpaceOnUse">
<stop stop-color="#364F6B"/>
<stop offset="0.428293" stop-color="#6B5072"/>
<stop offset="1" stop-color="#FC5185"/>
</linearGradient>
<linearGradient id="paint1_linear" x1="197.905" y1="191.285" x2="166.34" y2="94.6923" gradientUnits="userSpaceOnUse">
<stop stop-color="#364F6B"/>
<stop offset="0.428293" stop-color="#6B5072"/>
<stop offset="1" stop-color="#FC5185"/>
</linearGradient>
<linearGradient id="paint2_linear" x1="197.905" y1="191.285" x2="166.34" y2="94.6923" gradientUnits="userSpaceOnUse">
<stop stop-color="#364F6B"/>
<stop offset="0.428293" stop-color="#6B5072"/>
<stop offset="1" stop-color="#FC5185"/>
</linearGradient>
</defs>
</svg>
