<svg width="256" height="256" viewBox="0 0 256 256" fill="none" xmlns="http://www.w3.org/2000/svg">
<path d="M221 62.4373C221 61.4326 220.677 60.3181 220.141 59.4684C219.561 58.549 218.9 57.5 218.9 57.5L171 9.35352C169.555 7.95733 158.291 2 156.269 2H41.1923C37.2202 2 34 5.29241 34 9.35352V245.646C34 249.708 37.2202 253 41.1923 253H213.808C217.78 253 221 249.708 221 245.646V68.1816C221 66.4864 221 65.7083 221 62.4373ZM163.462 34.4642C163.462 31.7754 166.726 30.4443 168.606 32.3665L191.458 55.7304C193.316 57.6297 191.97 60.8281 189.313 60.8281H166.462C164.805 60.8281 163.462 59.485 163.462 57.8281V34.4642ZM55 235.5C53.3431 235.5 52 234.157 52 232.5V22.5C52 20.8431 53.3431 19.5 55 19.5H141.5C143.157 19.5 144.5 20.8431 144.5 22.5V60.8281C144.5 64.8892 159.489 79 163.462 79H200C201.657 79 203 80.3431 203 82V232.5C203 234.157 201.657 235.5 200 235.5H55Z" fill="url(#paint0_linear_668_49)"/>
<path d="M80 176H64V192H122.667V176H106.667V160H117.333C133.333 160 133.333 192 149.333 192H176C192 192 192 160 192 160H173.333C173.333 160 176 176 160 176C152 176 144 160 144 160H149.333C160 160 170.667 149.333 170.667 136C170.667 122.667 160 112 149.333 112H64V128H80M138.667 128C144 128 149.333 128 149.333 136C149.333 144 144 144 138.667 144H106.667V128" fill="url(#paint1_linear_668_49)"/>
<defs>
<linearGradient id="paint0_linear_668_49" x1="127.5" y1="2" x2="127.5" y2="253" gradientUnits="userSpaceOnUse">
<stop stop-color="#8637FB"/>
<stop offset="1" stop-color="#00A0C9"/>
</linearGradient>
<linearGradient id="paint1_linear_668_49" x1="128" y1="112" x2="128" y2="192" gradientUnits="userSpaceOnUse">
<stop stop-color="#8637FB"/>
<stop offset="1" stop-color="#00A0C9"/>
</linearGradient>
</defs>
</svg>
