<svg width="256" height="256" viewBox="0 0 256 256" fill="none" xmlns="http://www.w3.org/2000/svg">
<path fill-rule="evenodd" clip-rule="evenodd" d="M220.141 59.4684C220.677 60.3181 221 61.4326 221 62.4373V68.1816V245.646C221 249.708 217.78 253 213.808 253H41.1923C37.2202 253 34 249.708 34 245.646V9.35352C34 5.29241 37.2202 2 41.1923 2H156.269C158.291 2 169.555 7.95733 171 9.35352L218.9 57.5C218.9 57.5 219.068 57.7668 219.309 58.1492C219.546 58.5251 219.854 59.0127 220.141 59.4684ZM168.606 32.3665C166.726 30.4443 163.462 31.7754 163.462 34.4642V57.8281C163.462 59.485 164.805 60.8281 166.462 60.8281H189.313C191.97 60.8281 193.316 57.6297 191.458 55.7304L168.606 32.3665ZM52 232.5C52 234.157 53.3431 235.5 55 235.5H200C201.657 235.5 203 234.157 203 232.5V82C203 80.3431 201.657 79 200 79H163.462C159.489 79 144.5 64.8892 144.5 60.8281V22.5C144.5 20.8431 143.157 19.5 141.5 19.5H55C53.3431 19.5 52 20.8431 52 22.5V232.5ZM178.632 122.02L132.894 95.3875C131.251 94.4782 129.393 94 127.501 94C125.61 94 123.752 94.4782 122.109 95.3875L76.3676 122.017C74.7192 122.997 73.3592 124.374 72.419 126.014C71.4788 127.654 70.9901 129.502 71.0002 131.379V184.566C70.9903 186.444 71.479 188.293 72.4191 189.934C73.3593 191.575 74.7191 192.954 76.3676 193.937L88.3621 200.89L88.4298 200.927C94.4858 203.936 96.8047 203.936 99.4914 203.936C108.949 203.936 114.826 197.993 114.826 188.426V136.856C114.831 136.212 114.574 135.592 114.109 135.133C113.644 134.673 113.011 134.411 112.348 134.404H105.762C105.099 134.411 104.466 134.673 104.001 135.133C103.537 135.592 103.279 136.212 103.285 136.856V188.426C103.308 189.164 103.135 189.896 102.782 190.55C102.429 191.204 101.908 191.759 101.269 192.16C99.5326 193.188 97.0107 192.971 94.1651 191.545L82.6709 184.829C82.6269 184.8 82.591 184.76 82.5663 184.715C82.5417 184.669 82.5291 184.618 82.5297 184.566V132.13C82.5315 132.07 82.5483 132.011 82.5785 131.958C82.6087 131.906 82.6515 131.861 82.7033 131.827L127.385 105.258C127.419 105.242 127.455 105.234 127.493 105.234C127.53 105.234 127.567 105.242 127.6 105.258L172.309 131.827C172.359 131.863 172.401 131.911 172.429 131.965C172.457 132.02 172.471 132.081 172.47 132.142V184.566C172.471 184.62 172.46 184.674 172.437 184.723C172.392 184.821 172.293 184.878 172.199 184.932L172.196 184.934L127.695 210.689C127.626 210.729 127.553 210.769 127.473 210.768C127.394 210.768 127.321 210.729 127.253 210.689L115.929 204.161C115.59 203.946 115.198 203.822 114.794 203.801C114.389 203.781 113.986 203.865 113.625 204.044L113.525 204.101C110.371 205.916 109.523 206.387 106.598 207.421C106.121 207.59 105 207.993 104.903 209.07C104.806 210.147 105.871 210.912 106.819 211.447L122.091 220.552C123.719 221.498 125.58 221.998 127.476 222H127.647C129.497 221.972 131.306 221.472 132.894 220.552L178.632 193.945C180.28 192.959 181.639 191.579 182.579 189.937C183.519 188.294 184.008 186.445 184 184.566V131.379C184.009 129.502 183.52 127.655 182.58 126.016C181.64 124.377 180.28 123 178.632 122.02ZM144.459 174.59C135.363 174.59 133.425 171.693 132.849 167.014C132.785 166.457 132.546 165.946 132.178 165.572C131.81 165.198 131.337 164.987 130.844 164.979H126.015C125.471 164.992 124.954 165.251 124.576 165.698C124.199 166.144 123.991 166.744 124 167.365C124 171.42 125.249 184.656 144.469 184.656C150.415 184.656 155.361 183.071 158.768 180.07C162.176 177.068 164 172.702 164 167.499C164 157.055 158.025 154.196 146.256 152.327C134.293 150.431 134.293 149.465 134.293 147.352C134.293 145.83 134.293 142.268 142.941 142.268C149.096 142.268 152.39 143.155 153.444 147.83C153.537 148.348 153.783 148.815 154.14 149.152C154.498 149.489 154.946 149.677 155.41 149.685H160.256C160.542 149.682 160.824 149.609 161.082 149.472C161.341 149.335 161.572 149.136 161.758 148.889C162.131 148.393 162.317 147.749 162.276 147.098C161.649 137.211 155.31 132.197 142.949 132.197C131.715 132.197 125.01 137.968 125.01 147.632C125.01 158.229 131.959 161.224 142.398 162.465C154.593 163.902 154.593 165.999 154.593 167.852C154.6 170.739 153.549 174.59 144.459 174.59Z" fill="url(#paint0_linear_667_152)"/>
<path d="M220.141 59.4684L221.41 58.6681L221.41 58.6681L220.141 59.4684ZM171 9.35352L172.063 8.29559L172.053 8.28509L172.042 8.2748L171 9.35352ZM218.9 57.5L220.169 56.7003L220.081 56.5598L219.963 56.4421L218.9 57.5ZM219.309 58.1492L220.578 57.3494L220.578 57.3493L219.309 58.1492ZM168.606 32.3665L167.534 33.4153L167.534 33.4153L168.606 32.3665ZM191.458 55.7304L190.386 56.7792L190.386 56.7793L191.458 55.7304ZM132.894 95.3875L133.649 94.0912L133.635 94.083L133.62 94.0751L132.894 95.3875ZM178.632 122.02L179.399 120.731L179.387 120.724L178.632 122.02ZM122.109 95.3875L121.383 94.0751L121.368 94.083L121.354 94.0912L122.109 95.3875ZM76.3676 122.017L75.6128 120.721L75.601 120.728L76.3676 122.017ZM71.0002 131.379L72.5002 131.379L72.5001 131.371L71.0002 131.379ZM71.0002 184.566L72.5002 184.574V184.566H71.0002ZM72.4191 189.934L71.1175 190.68L71.1175 190.68L72.4191 189.934ZM76.3676 193.937L75.5993 195.225L75.6073 195.23L75.6153 195.235L76.3676 193.937ZM88.3621 200.89L87.6098 202.188L87.6261 202.197L87.6427 202.206L88.3621 200.89ZM88.4298 200.927L87.7104 202.243L87.7361 202.257L87.7623 202.27L88.4298 200.927ZM114.826 136.856L113.326 136.844V136.856H114.826ZM114.109 135.133L113.054 136.199L113.055 136.201L114.109 135.133ZM112.348 134.404L112.364 132.904L112.356 132.904H112.348V134.404ZM105.762 134.404V132.904H105.754L105.746 132.904L105.762 134.404ZM104.001 135.133L105.056 136.199L105.056 136.199L104.001 135.133ZM103.285 136.856H104.785L104.785 136.842L103.285 136.856ZM103.285 188.426H101.785V188.449L101.786 188.473L103.285 188.426ZM101.269 192.16L102.033 193.451L102.05 193.441L102.066 193.431L101.269 192.16ZM94.1651 191.545L93.4083 192.84L93.4499 192.864L93.493 192.886L94.1651 191.545ZM82.6709 184.829L81.8452 186.081L81.8791 186.104L81.9141 186.124L82.6709 184.829ZM82.5663 184.715L81.2436 185.422L81.2474 185.43L81.2513 185.437L82.5663 184.715ZM82.5297 184.566L84.0296 184.583L84.0297 184.575V184.566H82.5297ZM82.5297 132.13L81.0303 132.085L81.0297 132.108V132.13H82.5297ZM82.5785 131.958L81.2813 131.205L81.2752 131.215L82.5785 131.958ZM82.7033 131.827L81.9366 130.538L81.908 130.555L81.8802 130.573L82.7033 131.827ZM127.385 105.258L126.746 103.901L126.681 103.932L126.618 103.969L127.385 105.258ZM127.6 105.258L128.366 103.969L128.312 103.936L128.254 103.908L127.6 105.258ZM172.309 131.827L173.185 130.61L173.132 130.571L173.075 130.538L172.309 131.827ZM172.429 131.965L173.766 131.284L173.761 131.275L172.429 131.965ZM172.47 132.142L170.97 132.118L170.97 132.13V132.142H172.47ZM172.47 184.566H170.97V184.58L170.97 184.594L172.47 184.566ZM172.437 184.723L171.079 184.086L171.077 184.091L172.437 184.723ZM172.199 184.932L171.448 183.634L171.445 183.636L172.199 184.932ZM172.196 184.934L172.947 186.232L172.951 186.23L172.196 184.934ZM127.695 210.689L126.944 209.391L126.943 209.391L127.695 210.689ZM127.473 210.768L127.492 209.268L127.482 209.268H127.473V210.768ZM127.253 210.689L128.014 209.396L128.002 209.389L127.253 210.689ZM115.929 204.161L115.126 205.428L115.152 205.445L115.18 205.461L115.929 204.161ZM114.794 203.801L114.872 202.303L114.868 202.303L114.794 203.801ZM113.625 204.044L112.959 202.7L112.92 202.719L112.882 202.741L113.625 204.044ZM113.525 204.101L112.782 202.798L112.777 202.801L113.525 204.101ZM106.598 207.421L106.098 206.007L106.097 206.007L106.598 207.421ZM106.819 211.447L107.587 210.159L107.572 210.149L107.556 210.141L106.819 211.447ZM122.091 220.552L121.323 221.84L121.33 221.845L121.337 221.849L122.091 220.552ZM127.476 222L127.474 223.5H127.476V222ZM127.647 222V223.5H127.658L127.67 223.5L127.647 222ZM132.894 220.552L133.646 221.85L133.648 221.849L132.894 220.552ZM178.632 193.945L179.386 195.242L179.394 195.237L179.402 195.232L178.632 193.945ZM182.579 189.937L183.881 190.682L183.881 190.682L182.579 189.937ZM184 184.566L182.5 184.566L182.5 184.572L184 184.566ZM184 131.379L182.5 131.372V131.379H184ZM132.849 167.014L131.359 167.185L131.361 167.197L132.849 167.014ZM132.178 165.572L133.247 164.52L133.247 164.52L132.178 165.572ZM130.844 164.979L130.869 163.479L130.856 163.479H130.844V164.979ZM126.015 164.979V163.479H125.997L125.979 163.479L126.015 164.979ZM124.576 165.698L123.431 164.729L123.431 164.73L124.576 165.698ZM124 167.365H125.5V167.354L125.5 167.343L124 167.365ZM158.768 180.07L159.76 181.196L159.76 181.196L158.768 180.07ZM146.256 152.327L146.492 150.846L146.491 150.846L146.256 152.327ZM153.444 147.83L154.921 147.565L154.915 147.532L154.908 147.5L153.444 147.83ZM154.14 149.152L153.111 150.243L153.112 150.244L154.14 149.152ZM155.41 149.685L155.384 151.185L155.397 151.185H155.41V149.685ZM160.256 149.685V151.185H160.264L160.272 151.185L160.256 149.685ZM161.082 149.472L160.381 148.146L160.379 148.147L161.082 149.472ZM161.758 148.889L162.957 149.791L162.957 149.791L161.758 148.889ZM162.276 147.098L163.773 147.004L163.773 147.003L162.276 147.098ZM142.398 162.465L142.221 163.955L142.223 163.955L142.398 162.465ZM154.593 167.852L153.093 167.852L153.093 167.856L154.593 167.852ZM222.5 62.4373C222.5 61.1486 222.096 59.7567 221.41 58.6681L218.872 60.2687C219.258 60.8795 219.5 61.7166 219.5 62.4373H222.5ZM222.5 68.1816V62.4373H219.5V68.1816H222.5ZM222.5 245.646V68.1816H219.5V245.646H222.5ZM213.808 254.5C218.64 254.5 222.5 250.505 222.5 245.646H219.5C219.5 248.911 216.92 251.5 213.808 251.5V254.5ZM41.1923 254.5H213.808V251.5H41.1923V254.5ZM32.5 245.646C32.5 250.505 36.3606 254.5 41.1923 254.5V251.5C38.0798 251.5 35.5 248.911 35.5 245.646H32.5ZM32.5 9.35352V245.646H35.5V9.35352H32.5ZM41.1923 0.5C36.3606 0.5 32.5 4.49551 32.5 9.35352H35.5C35.5 6.08931 38.0798 3.5 41.1923 3.5V0.5ZM156.269 0.5H41.1923V3.5H156.269V0.5ZM172.042 8.2748C171.751 7.99383 171.312 7.6818 170.86 7.38395C170.38 7.06774 169.789 6.7059 169.13 6.32067C167.811 5.54931 166.179 4.66034 164.535 3.81805C162.892 2.97674 161.215 2.17149 159.808 1.57254C159.106 1.27377 158.452 1.01768 157.891 0.833585C157.384 0.667157 156.785 0.5 156.269 0.5V3.5C156.259 3.5 156.453 3.51901 156.955 3.68383C157.403 3.83098 157.972 4.05121 158.633 4.33275C159.952 4.89443 161.561 5.66578 163.167 6.48833C164.772 7.30989 166.353 8.17205 167.616 8.91036C168.248 9.27997 168.79 9.6126 169.21 9.88943C169.658 10.1846 169.887 10.3642 169.958 10.4322L172.042 8.2748ZM219.963 56.4421L172.063 8.29559L169.937 10.4115L217.837 58.5579L219.963 56.4421ZM220.578 57.3493C220.458 57.1582 220.355 56.9959 220.283 56.8814C220.247 56.8242 220.219 56.7789 220.199 56.7479C220.189 56.7324 220.182 56.7205 220.177 56.7125C220.174 56.7085 220.172 56.7054 220.171 56.7034C220.17 56.7024 220.17 56.7016 220.17 56.7011C220.169 56.7008 220.169 56.7006 220.169 56.7005C220.169 56.7004 220.169 56.7004 220.169 56.7003C220.169 56.7003 220.169 56.7003 220.169 56.7003C220.169 56.7003 220.169 56.7003 220.169 56.7003C220.169 56.7003 220.169 56.7003 218.9 57.5C217.631 58.2997 217.631 58.2997 217.631 58.2997C217.631 58.2997 217.631 58.2997 217.631 58.2997C217.631 58.2997 217.631 58.2997 217.631 58.2997C217.631 58.2998 217.631 58.2998 217.631 58.2999C217.631 58.3 217.631 58.3002 217.631 58.3005C217.632 58.301 217.632 58.3018 217.633 58.3028C217.634 58.3048 217.636 58.3079 217.639 58.3119C217.644 58.32 217.651 58.3319 217.661 58.3474C217.681 58.3784 217.709 58.4237 217.745 58.481C217.817 58.5955 217.92 58.7578 218.04 58.9491L220.578 57.3493ZM221.41 58.6681C221.122 58.2125 220.815 57.7251 220.578 57.3494L218.04 58.9491C218.277 59.325 218.585 59.8128 218.872 60.2687L221.41 58.6681ZM164.962 34.4642C164.962 33.1195 166.594 32.4545 167.534 33.4153L169.678 31.3177C166.858 28.4341 161.962 30.4313 161.962 34.4642H164.962ZM164.962 57.8281V34.4642H161.962V57.8281H164.962ZM166.462 59.3281C165.633 59.3281 164.962 58.6566 164.962 57.8281H161.962C161.962 60.3134 163.977 62.3281 166.462 62.3281V59.3281ZM189.313 59.3281H166.462V62.3281H189.313V59.3281ZM190.386 56.7793C191.314 57.7286 190.642 59.3281 189.313 59.3281V62.3281C193.298 62.3281 195.318 57.5308 192.53 54.6815L190.386 56.7793ZM167.534 33.4153L190.386 56.7792L192.53 54.6816L169.678 31.3177L167.534 33.4153ZM55 234C54.1715 234 53.5 233.329 53.5 232.5H50.5C50.5 234.985 52.5147 237 55 237V234ZM200 234H55V237H200V234ZM201.5 232.5C201.5 233.329 200.829 234 200 234V237C202.485 237 204.5 234.985 204.5 232.5H201.5ZM201.5 82V232.5H204.5V82H201.5ZM200 80.5C200.829 80.5 201.5 81.1715 201.5 82H204.5C204.5 79.5147 202.485 77.5 200 77.5V80.5ZM163.462 80.5H200V77.5H163.462V80.5ZM143 60.8281C143 61.7227 143.386 62.6613 143.832 63.4868C144.302 64.3599 144.956 65.3159 145.718 66.2994C147.245 68.2702 149.299 70.4713 151.458 72.524C153.617 74.5773 155.92 76.5182 157.958 77.9572C158.975 78.6753 159.955 79.2884 160.837 79.7282C161.671 80.1438 162.601 80.5 163.462 80.5V77.5C163.329 77.5 162.922 77.4152 162.176 77.0432C161.478 76.6955 160.635 76.1745 159.688 75.5063C157.799 74.1725 155.609 72.332 153.525 70.3499C151.44 68.3673 149.498 66.2793 148.09 64.4621C147.384 63.5516 146.837 62.7389 146.472 62.063C146.082 61.3395 146 60.9487 146 60.8281H143ZM143 22.5V60.8281H146V22.5H143ZM141.5 21C142.329 21 143 21.6715 143 22.5H146C146 20.0147 143.985 18 141.5 18V21ZM55 21H141.5V18H55V21ZM53.5 22.5C53.5 21.6715 54.1715 21 55 21V18C52.5147 18 50.5 20.0147 50.5 22.5H53.5ZM53.5 232.5V22.5H50.5V232.5H53.5ZM132.139 96.6838L177.877 123.316L179.387 120.724L133.649 94.0912L132.139 96.6838ZM127.501 95.5C129.141 95.5 130.749 95.9145 132.168 96.6999L133.62 94.0751C131.753 93.0418 129.645 92.5 127.501 92.5V95.5ZM122.835 96.6999C124.254 95.9145 125.862 95.5 127.501 95.5V92.5C125.358 92.5 123.249 93.0419 121.383 94.0751L122.835 96.6999ZM77.1222 123.313L122.864 96.6838L121.354 94.0912L75.6129 120.721L77.1222 123.313ZM73.7203 126.76C74.5301 125.347 75.7046 124.156 77.1341 123.306L75.601 120.728C73.7337 121.838 72.1882 123.401 71.1176 125.268L73.7203 126.76ZM72.5001 131.371C72.4915 129.76 72.9106 128.172 73.7203 126.76L71.1176 125.268C70.0469 127.136 69.4886 129.244 69.5002 131.387L72.5001 131.371ZM72.5002 184.566V131.379H69.5002V184.566H72.5002ZM73.7206 189.188C72.9109 187.775 72.4916 186.186 72.5001 184.574L69.5002 184.558C69.4889 186.702 70.047 188.811 71.1175 190.68L73.7206 189.188ZM77.1358 192.649C75.7055 191.796 74.5307 190.602 73.7206 189.188L71.1175 190.68C72.1878 192.548 73.7326 194.112 75.5993 195.225L77.1358 192.649ZM89.1143 199.592L77.1198 192.639L75.6153 195.235L87.6098 202.188L89.1143 199.592ZM89.1491 199.611L89.0814 199.574L87.6427 202.206L87.7104 202.243L89.1491 199.611ZM99.4914 202.436C98.1567 202.436 97.0502 202.433 95.5531 202.096C94.0382 201.756 92.0625 201.057 89.0972 199.584L87.7623 202.27C90.853 203.806 93.0647 204.612 94.8949 205.023C96.743 205.439 98.1393 205.436 99.4914 205.436V202.436ZM113.326 188.426C113.326 192.9 111.957 196.369 109.639 198.714C107.322 201.057 103.901 202.436 99.4914 202.436V205.436C104.539 205.436 108.786 203.843 111.772 200.823C114.756 197.805 116.326 193.519 116.326 188.426H113.326ZM113.326 136.856V188.426H116.326V136.856H113.326ZM113.055 136.201C113.235 136.378 113.328 136.61 113.326 136.844L116.326 136.868C116.334 135.814 115.913 134.806 115.163 134.065L113.055 136.201ZM112.332 135.904C112.612 135.907 112.87 136.018 113.054 136.199L115.164 134.067C114.418 133.328 113.41 132.915 112.364 132.904L112.332 135.904ZM105.762 135.904H112.348V132.904H105.762V135.904ZM105.056 136.199C105.24 136.018 105.498 135.907 105.778 135.904L105.746 132.904C104.7 132.915 103.692 133.328 102.946 134.067L105.056 136.199ZM104.785 136.842C104.783 136.61 104.875 136.378 105.056 136.199L102.946 134.067C102.199 134.806 101.775 135.814 101.785 136.87L104.785 136.842ZM104.785 188.426V136.856H101.785V188.426H104.785ZM104.102 191.262C104.58 190.377 104.816 189.383 104.784 188.379L101.786 188.473C101.8 188.945 101.69 189.415 101.462 189.838L104.102 191.262ZM102.066 193.431C102.922 192.894 103.624 192.147 104.102 191.262L101.462 189.838C101.234 190.261 100.894 190.624 100.472 190.889L102.066 193.431ZM93.493 192.886C96.5211 194.403 99.647 194.863 102.033 193.451L100.505 190.869C99.4181 191.513 97.5002 191.539 94.8371 190.204L93.493 192.886ZM81.9141 186.124L93.4083 192.84L94.9218 190.25L83.4276 183.534L81.9141 186.124ZM81.2513 185.437C81.3881 185.686 81.5883 185.912 81.8452 186.081L83.4965 183.577C83.6654 183.688 83.7938 183.834 83.8812 183.993L81.2513 185.437ZM81.0298 184.549C81.0262 184.856 81.1011 185.156 81.2436 185.422L83.889 184.008C83.9822 184.182 84.0319 184.38 84.0296 184.583L81.0298 184.549ZM81.0297 132.13V184.566H84.0297V132.13H81.0297ZM81.2752 131.215C81.1264 131.477 81.0397 131.774 81.0303 132.085L84.029 132.175C84.0233 132.366 83.9702 132.545 83.8817 132.701L81.2752 131.215ZM81.8802 130.573C81.6387 130.731 81.4315 130.946 81.2813 131.205L83.8756 132.711C83.7858 132.866 83.6642 132.99 83.5263 133.081L81.8802 130.573ZM126.618 103.969L81.9366 130.538L83.4699 133.116L128.152 106.547L126.618 103.969ZM127.493 103.734C127.237 103.734 126.982 103.79 126.746 103.901L128.024 106.615C127.856 106.694 127.673 106.734 127.493 106.734V103.734ZM128.254 103.908C128.005 103.787 127.742 103.734 127.493 103.734V106.734C127.318 106.734 127.129 106.697 126.946 106.608L128.254 103.908ZM173.075 130.538L128.366 103.969L126.834 106.547L171.543 133.116L173.075 130.538ZM173.761 131.275C173.621 131.005 173.42 130.778 173.185 130.61L171.433 133.044C171.298 132.948 171.181 132.817 171.097 132.655L173.761 131.275ZM173.97 132.166C173.975 131.861 173.905 131.558 173.766 131.284L171.092 132.646C171.009 132.482 170.967 132.301 170.97 132.118L173.97 132.166ZM173.97 184.566V132.142H170.97V184.566H173.97ZM173.795 185.36C173.919 185.095 173.975 184.812 173.97 184.538L170.97 184.594C170.967 184.428 171.001 184.253 171.079 184.086L173.795 185.36ZM172.951 186.23C172.98 186.213 173.125 186.132 173.267 186.02C173.423 185.897 173.644 185.685 173.797 185.355L171.077 184.091C171.184 183.859 171.333 183.725 171.405 183.668C171.464 183.622 171.513 183.596 171.448 183.634L172.951 186.23ZM172.951 186.23L172.954 186.228L171.445 183.636L171.441 183.638L172.951 186.23ZM128.446 211.987L172.947 186.232L171.445 183.636L126.944 209.391L128.446 211.987ZM127.454 212.268C128.007 212.275 128.424 212 128.447 211.987L126.943 209.391C126.907 209.412 126.954 209.382 127.027 209.353C127.109 209.32 127.273 209.265 127.492 209.268L127.454 212.268ZM126.492 211.982C126.537 212.008 126.937 212.268 127.473 212.268V209.268C127.682 209.268 127.839 209.32 127.919 209.352C127.993 209.382 128.039 209.411 128.014 209.396L126.492 211.982ZM115.18 205.461L126.504 211.989L128.002 209.389L116.678 202.861L115.18 205.461ZM114.716 205.299C114.866 205.307 115.007 205.353 115.126 205.428L116.732 202.894C116.173 202.539 115.53 202.337 114.872 202.303L114.716 205.299ZM114.291 205.388C114.422 205.323 114.57 205.292 114.72 205.299L114.868 202.303C114.208 202.27 113.55 202.407 112.959 202.7L114.291 205.388ZM114.268 205.404L114.368 205.347L112.882 202.741L112.782 202.798L114.268 205.404ZM107.098 208.835C110.147 207.758 111.084 207.236 114.273 205.401L112.777 202.801C109.658 204.596 108.899 205.016 106.098 206.007L107.098 208.835ZM106.397 209.205C106.398 209.196 106.399 209.196 106.397 209.201C106.395 209.206 106.393 209.208 106.395 209.206C106.399 209.199 106.423 209.167 106.491 209.117C106.647 209.004 106.856 208.921 107.099 208.835L106.097 206.007C105.863 206.09 105.273 206.293 104.725 206.693C104.149 207.112 103.508 207.832 103.409 208.935L106.397 209.205ZM107.556 210.141C107.116 209.892 106.772 209.655 106.557 209.429C106.457 209.324 106.417 209.253 106.403 209.221C106.397 209.206 106.396 209.201 106.396 209.203C106.397 209.206 106.397 209.207 106.397 209.205L103.409 208.935C103.308 210.057 103.837 210.921 104.381 211.494C104.912 212.054 105.574 212.467 106.082 212.753L107.556 210.141ZM122.859 219.264L107.587 210.159L106.051 212.735L121.323 221.84L122.859 219.264ZM127.478 220.5C125.843 220.498 124.242 220.067 122.845 219.255L121.337 221.849C123.196 222.929 125.316 223.498 127.474 223.5L127.478 220.5ZM127.647 220.5H127.476V223.5H127.647V220.5ZM132.142 219.254C130.777 220.045 129.219 220.476 127.624 220.5L127.67 223.5C129.774 223.468 131.835 222.899 133.646 221.85L132.142 219.254ZM177.878 192.648L132.14 219.255L133.648 221.849L179.386 195.242L177.878 192.648ZM181.277 189.192C180.467 190.607 179.293 191.802 177.862 192.658L179.402 195.232C181.267 194.116 182.811 192.551 183.881 190.682L181.277 189.192ZM182.5 184.572C182.507 186.186 182.087 187.776 181.277 189.192L183.881 190.682C184.951 188.812 185.509 186.704 185.5 184.56L182.5 184.572ZM182.5 131.379V184.566H185.5V131.379H182.5ZM181.279 126.762C182.088 128.174 182.508 129.761 182.5 131.372L185.5 131.386C185.51 129.243 184.952 127.136 183.881 125.27L181.279 126.762ZM177.865 123.309C179.295 124.159 180.469 125.35 181.279 126.762L183.881 125.27C182.811 123.404 181.265 121.841 179.399 120.731L177.865 123.309ZM131.361 167.197C131.666 169.675 132.372 172.066 134.542 173.743C136.639 175.365 139.818 176.09 144.459 176.09V173.09C140.005 173.09 137.667 172.367 136.377 171.37C135.159 170.429 134.609 169.032 134.338 166.831L131.361 167.197ZM131.109 166.624C131.228 166.745 131.331 166.94 131.359 167.185L134.339 166.843C134.24 165.974 133.864 165.147 133.247 164.52L131.109 166.624ZM130.82 166.479C130.89 166.48 130.996 166.509 131.109 166.624L133.247 164.52C132.625 163.887 131.784 163.494 130.869 163.479L130.82 166.479ZM126.015 166.479H130.844V163.479H126.015V166.479ZM125.722 166.667C125.848 166.518 125.973 166.48 126.051 166.479L125.979 163.479C124.97 163.504 124.061 163.984 123.431 164.729L125.722 166.667ZM125.5 167.343C125.496 167.061 125.593 166.819 125.722 166.666L123.431 164.73C122.806 165.469 122.487 166.427 122.5 167.387L125.5 167.343ZM144.469 183.156C135.244 183.156 130.629 180.006 128.25 176.662C125.803 173.223 125.5 169.277 125.5 167.365H122.5C122.5 169.508 122.822 174.208 125.805 178.401C128.855 182.688 134.475 186.156 144.469 186.156V183.156ZM157.777 178.944C154.72 181.637 150.166 183.156 144.469 183.156V186.156C150.665 186.156 156.003 184.505 159.76 181.196L157.777 178.944ZM162.5 167.499C162.5 172.338 160.814 176.269 157.777 178.944L159.76 181.196C163.538 177.867 165.5 173.066 165.5 167.499H162.5ZM146.021 153.808C151.905 154.743 155.997 155.887 158.634 157.892C161.123 159.784 162.5 162.6 162.5 167.499H165.5C165.5 161.954 163.89 158.119 160.449 155.503C157.156 153 152.376 151.78 146.492 150.846L146.021 153.808ZM132.793 147.352C132.793 147.808 132.77 148.605 133.111 149.367C133.49 150.213 134.191 150.802 135.121 151.264C136.861 152.128 140.095 152.869 146.021 153.809L146.491 150.846C140.455 149.889 137.707 149.199 136.456 148.577C136.17 148.436 136.018 148.322 135.939 148.25C135.869 148.186 135.854 148.152 135.849 148.141C135.817 148.069 135.793 147.952 135.793 147.352H132.793ZM142.941 140.768C138.479 140.768 135.818 141.675 134.314 143.178C132.763 144.729 132.793 146.578 132.793 147.352H135.793C135.793 146.604 135.823 145.911 136.435 145.3C137.093 144.642 138.755 143.768 142.941 143.768V140.768ZM154.908 147.5C154.297 144.791 152.956 142.972 150.741 141.937C148.686 140.977 146.022 140.768 142.941 140.768V143.768C146.016 143.768 148.076 144.003 149.47 144.655C150.705 145.232 151.538 146.194 151.981 148.16L154.908 147.5ZM155.17 148.061C155.063 147.961 154.961 147.791 154.921 147.565L151.968 148.095C152.113 148.905 152.503 149.669 153.111 150.243L155.17 148.061ZM155.436 148.185C155.369 148.184 155.272 148.158 155.168 148.06L153.112 150.244C153.724 150.82 154.524 151.17 155.384 151.185L155.436 148.185ZM160.256 148.185H155.41V151.185H160.256V148.185ZM160.379 148.147C160.327 148.175 160.28 148.185 160.241 148.185L160.272 151.185C160.805 151.179 161.322 151.043 161.786 150.797L160.379 148.147ZM160.56 147.987C160.5 148.067 160.435 148.117 160.381 148.146L161.784 150.798C162.247 150.553 162.645 150.205 162.957 149.791L160.56 147.987ZM160.779 147.192C160.799 147.507 160.705 147.793 160.559 147.987L162.957 149.791C163.557 148.993 163.835 147.991 163.773 147.004L160.779 147.192ZM142.949 133.697C148.958 133.697 153.252 134.92 156.093 137.125C158.884 139.29 160.486 142.57 160.779 147.193L163.773 147.003C163.439 141.739 161.558 137.568 157.933 134.755C154.357 131.981 149.301 130.697 142.949 130.697V133.697ZM126.51 147.632C126.51 143.169 128.044 139.752 130.745 137.428C133.476 135.078 137.574 133.697 142.949 133.697V130.697C137.091 130.697 132.219 132.202 128.789 135.154C125.329 138.131 123.51 142.431 123.51 147.632H126.51ZM142.575 160.976C137.395 160.36 133.385 159.332 130.676 157.347C128.093 155.455 126.51 152.551 126.51 147.632H123.51C123.51 153.31 125.402 157.202 128.903 159.767C132.278 162.24 136.962 163.329 142.221 163.955L142.575 160.976ZM156.093 167.852C156.093 167.423 156.109 166.662 155.797 165.877C155.462 165.035 154.83 164.323 153.853 163.724C152.02 162.599 148.668 161.693 142.574 160.975L142.223 163.955C148.323 164.674 151.069 165.535 152.284 166.281C152.832 166.617 152.962 166.867 153.009 166.984C153.078 167.159 153.093 167.355 153.093 167.852H156.093ZM144.459 176.09C149.167 176.09 152.165 175.101 153.969 173.393C155.81 171.65 156.097 169.456 156.093 167.848L153.093 167.856C153.096 169.135 152.862 170.31 151.906 171.214C150.914 172.154 148.842 173.09 144.459 173.09V176.09Z" fill="url(#paint1_linear_667_152)"/>
<defs>
<linearGradient id="paint0_linear_667_152" x1="71" y1="158" x2="190.605" y2="161.815" gradientUnits="userSpaceOnUse">
<stop stop-color="#FD2E00"/>
<stop offset="1" stop-color="#FF9900"/>
</linearGradient>
<linearGradient id="paint1_linear_667_152" x1="71" y1="158" x2="190.605" y2="161.815" gradientUnits="userSpaceOnUse">
<stop stop-color="#FD2E00"/>
<stop offset="1" stop-color="#FF9900"/>
</linearGradient>
</defs>
</svg>
