<svg width="256" height="256" viewBox="0 0 256 256" fill="none" xmlns="http://www.w3.org/2000/svg">
<path d="M221 62.4373C221 61.4326 220.677 60.3181 220.141 59.4684C219.561 58.549 218.901 57.5014 218.9 57.5L171 9.35352C169.555 7.95733 158.291 2 156.269 2H41.1923C37.2202 2 34 5.29241 34 9.35352V245.646C34 249.708 37.2202 253 41.1923 253H213.808C217.78 253 221 249.708 221 245.646V68.1816C221 66.4864 221 65.7083 221 62.4373ZM163.462 34.4642C163.462 31.7754 166.726 30.4443 168.606 32.3665L191.458 55.7304C193.316 57.6297 191.97 60.8281 189.313 60.8281H166.462C164.805 60.8281 163.462 59.485 163.462 57.8281V34.4642ZM55 235.5C53.3431 235.5 52 234.157 52 232.5V22.5C52 20.8431 53.3431 19.5 55 19.5H141.5C143.157 19.5 144.5 20.8431 144.5 22.5V60.8281C144.5 64.8892 159.489 79 163.462 79H200C201.657 79 203 80.3431 203 82V232.5C203 234.157 201.657 235.5 200 235.5H55Z" fill="url(#paint0_linear)"/>
<path d="M123.158 179.318C122.605 186.968 119.773 192.99 114.662 197.385C109.584 201.779 102.878 203.977 94.5449 203.977C85.4303 203.977 78.2526 200.917 73.0117 194.797C67.8034 188.645 65.1992 180.214 65.1992 169.504V165.158C65.1992 158.322 66.4036 152.3 68.8125 147.092C71.2214 141.883 74.6556 137.896 79.1152 135.129C83.6074 132.329 88.8158 130.93 94.7402 130.93C102.943 130.93 109.551 133.127 114.564 137.521C119.577 141.916 122.475 148.085 123.256 156.027H108.607C108.249 151.438 106.964 148.117 104.75 146.066C102.569 143.983 99.2324 142.941 94.7402 142.941C89.8574 142.941 86.1953 144.699 83.7539 148.215C81.3451 151.698 80.1081 157.118 80.043 164.475V169.846C80.043 177.528 81.1986 183.143 83.5098 186.691C85.8535 190.24 89.5319 192.014 94.5449 192.014C99.0697 192.014 102.439 190.988 104.652 188.938C106.898 186.854 108.184 183.648 108.51 179.318H123.158ZM158.998 182.98H149.574L146.059 203H137.123L140.639 182.98H129.555V174.582H142.104L144.545 160.715H133.217V152.219H146.059L149.623 131.906H158.51L154.945 152.219H164.418L167.982 131.906H176.918L173.354 152.219H184.047V160.715H171.84L169.398 174.582H180.336V182.98H167.934L164.418 203H155.482L158.998 182.98ZM151.039 174.582H160.463L162.904 160.715H153.432L151.039 174.582Z" fill="url(#paint1_linear)"/>
<defs>
<linearGradient id="paint0_linear" x1="127.5" y1="253" x2="127.5" y2="2" gradientUnits="userSpaceOnUse">
<stop stop-color="#5570FF"/>
<stop offset="1" stop-color="#4DD3FF"/>
</linearGradient>
<linearGradient id="paint1_linear" x1="128" y1="198" x2="128" y2="110" gradientUnits="userSpaceOnUse">
<stop stop-color="#5570FF"/>
<stop offset="1" stop-color="#4DD3FF"/>
</linearGradient>
</defs>
</svg>
