<svg width="256" height="256" viewBox="0 0 256 256" fill="none" xmlns="http://www.w3.org/2000/svg">
<path d="M145 199.95H73C67.4772 199.95 63 203.788 63 208.522V209.379C63 214.113 67.4772 217.95 73 217.95H145C150.523 217.95 155 214.113 155 209.379V208.522C155 203.788 150.523 199.95 145 199.95Z" fill="url(#paint0_linear)"/>
<path d="M182 167.583H73C67.4772 167.583 63 171.246 63 175.764V177.401C63 181.919 67.4772 185.583 73 185.583H182C187.523 185.583 192 181.919 192 177.401V175.764C192 171.246 187.523 167.583 182 167.583Z" fill="url(#paint1_linear)"/>
<path d="M221 61.2412C221 60.2557 220.677 59.1626 220.141 58.3291C219.561 57.4274 218.901 56.3998 218.9 56.3985L171 9.17432C169.555 7.80488 158.291 1.96167 156.269 1.96167H41.1923C37.2202 1.96167 34 5.19101 34 9.17432V240.94C34 244.924 37.2202 248.153 41.1923 248.153H213.808C217.78 248.153 221 244.924 221 240.94V66.8754C221 65.2127 221 64.4495 221 61.2412ZM163.462 33.8039C163.462 31.1667 166.726 29.8611 168.606 31.7464L191.458 54.6628C193.316 56.5257 191.97 59.6628 189.313 59.6628H166.462C164.805 59.6628 163.462 58.3454 163.462 56.7203V33.8039ZM55 230.988C53.3431 230.988 52 229.671 52 228.046V22.0689C52 20.4438 53.3431 19.1264 55 19.1264H141.5C143.157 19.1264 144.5 20.4438 144.5 22.0689V59.6628C144.5 63.6461 159.489 77.4866 163.462 77.4866H200C201.657 77.4866 203 78.8039 203 80.4291V228.046C203 229.671 201.657 230.988 200 230.988H55Z" fill="url(#paint2_linear)"/>
<path d="M132.363 113.223H122.637C121.294 113.223 120.205 114.315 120.205 115.663V135.181C120.205 136.528 121.294 137.621 122.637 137.621H132.363C133.706 137.621 134.795 136.528 134.795 135.181V115.663C134.795 114.315 133.706 113.223 132.363 113.223ZM129.932 132.741H125.068V118.102H129.932V132.741ZM127.5 74.0242C104.65 74.0242 86 92.7355 86 115.663C86 138.589 104.649 157.301 127.5 157.301C150.35 157.301 169 138.59 169 115.663C169 92.7368 150.351 74.0242 127.5 74.0242ZM127.5 152.422C107.298 152.422 90.8633 135.932 90.8633 115.663C90.8633 95.3939 107.298 78.9037 127.5 78.9037C147.701 78.9037 164.137 95.3939 164.137 115.663C164.137 135.932 147.701 152.422 127.5 152.422ZM127.5 83.9459C110.069 83.9459 95.8887 98.1739 95.8887 115.663C95.8887 133.152 110.069 147.38 127.5 147.38C144.931 147.38 159.111 133.152 159.111 115.663C159.111 98.1739 144.931 83.9459 127.5 83.9459ZM127.5 142.5C112.751 142.5 100.752 130.461 100.752 115.663C100.752 100.865 112.751 88.8254 127.5 88.8254C142.249 88.8254 154.248 100.865 154.248 115.663C154.248 130.461 142.249 142.5 127.5 142.5ZM127.5 93.7049C123.478 93.7049 120.205 96.9885 120.205 101.024C120.205 105.06 123.478 108.343 127.5 108.343C131.522 108.343 134.795 105.06 134.795 101.024C134.795 96.9885 131.522 93.7049 127.5 93.7049ZM127.5 103.464C126.159 103.464 125.068 102.37 125.068 101.024C125.068 99.6787 126.159 98.5844 127.5 98.5844C128.841 98.5844 129.932 99.6787 129.932 101.024C129.932 102.37 128.841 103.464 127.5 103.464Z" fill="url(#paint3_linear)" stroke="url(#paint4_linear)" stroke-width="2"/>
<defs>
<linearGradient id="paint0_linear" x1="145.652" y1="211.64" x2="143.655" y2="194.498" gradientUnits="userSpaceOnUse">
<stop stop-color="#FF928B"/>
<stop offset="1" stop-color="#DC3282"/>
</linearGradient>
<linearGradient id="paint1_linear" x1="178.893" y1="179.272" x2="177.459" y2="162.017" gradientUnits="userSpaceOnUse">
<stop stop-color="#FF928B"/>
<stop offset="1" stop-color="#DC3282"/>
</linearGradient>
<linearGradient id="paint2_linear" x1="202" y1="161.839" x2="86.621" y2="14.6511" gradientUnits="userSpaceOnUse">
<stop stop-color="#FF928B"/>
<stop offset="1" stop-color="#DC3282"/>
</linearGradient>
<linearGradient id="paint3_linear" x1="166.659" y1="115.663" x2="97.3501" y2="90.6746" gradientUnits="userSpaceOnUse">
<stop stop-color="#FE7970"/>
<stop offset="1" stop-color="#DC3282"/>
</linearGradient>
<linearGradient id="paint4_linear" x1="166.659" y1="115.663" x2="97.3501" y2="90.6746" gradientUnits="userSpaceOnUse">
<stop stop-color="#FE7970"/>
<stop offset="1" stop-color="#DC3282"/>
</linearGradient>
</defs>
</svg>
