<svg width="256" height="256" viewBox="0 0 256 256" fill="none" xmlns="http://www.w3.org/2000/svg">
<path d="M221 62.4373C221 61.4326 220.677 60.3181 220.141 59.4684C219.561 58.549 218.901 57.5014 218.9 57.5L171 9.35352C169.555 7.95733 158.291 2 156.269 2H41.1923C37.2202 2 34 5.29241 34 9.35352V245.646C34 249.708 37.2202 253 41.1923 253H213.808C217.78 253 221 249.708 221 245.646V68.1816C221 66.4864 221 65.7083 221 62.4373ZM163.462 34.4642C163.462 31.7754 166.726 30.4443 168.606 32.3665L191.458 55.7304C193.316 57.6297 191.97 60.8281 189.313 60.8281H166.462C164.805 60.8281 163.462 59.485 163.462 57.8281V34.4642ZM55 235.5C53.3431 235.5 52 234.157 52 232.5V22.5C52 20.8431 53.3431 19.5 55 19.5H141.5C143.157 19.5 144.5 20.8431 144.5 22.5V60.8281C144.5 64.8892 159.489 79 163.462 79H200C201.657 79 203 80.3431 203 82V232.5C203 234.157 201.657 235.5 200 235.5H55Z" fill="url(#paint0_linear)"/>
<path d="M106.727 165.055C106.284 171.174 104.018 175.992 99.9297 179.508C95.8672 183.023 90.5026 184.781 83.8359 184.781C76.5443 184.781 70.8021 182.333 66.6094 177.438C62.4427 172.516 60.3594 165.771 60.3594 157.203V153.727C60.3594 148.258 61.3229 143.44 63.25 139.273C65.1771 135.107 67.9245 131.917 71.4922 129.703C75.0859 127.464 79.2526 126.344 83.9922 126.344C90.5547 126.344 95.8411 128.102 99.8516 131.617C103.862 135.133 106.18 140.068 106.805 146.422H95.0859C94.7995 142.75 93.7708 140.094 92 138.453C90.2552 136.786 87.5859 135.953 83.9922 135.953C80.0859 135.953 77.1562 137.359 75.2031 140.172C73.276 142.958 72.2865 147.294 72.2344 153.18V157.477C72.2344 163.622 73.1589 168.115 75.0078 170.953C76.8828 173.792 79.8255 175.211 83.8359 175.211C87.4557 175.211 90.151 174.391 91.9219 172.75C93.7188 171.083 94.7474 168.518 95.0078 165.055H106.727ZM136.453 152.164H150.555V162.359H136.453V178.297H125.711V162.359H111.57V152.164H125.711V136.891H136.453V152.164ZM180.125 152.164H194.227V162.359H180.125V178.297H169.383V162.359H155.242V152.164H169.383V136.891H180.125V152.164Z" fill="url(#paint1_linear)"/>
<defs>
<linearGradient id="paint0_linear" x1="127.5" y1="253" x2="127.5" y2="2" gradientUnits="userSpaceOnUse">
<stop stop-color="#5570FF"/>
<stop offset="1" stop-color="#4DD3FF"/>
</linearGradient>
<linearGradient id="paint1_linear" x1="128" y1="198" x2="128" y2="110" gradientUnits="userSpaceOnUse">
<stop stop-color="#5570FF"/>
<stop offset="1" stop-color="#4DD3FF"/>
</linearGradient>
</defs>
</svg>
