<svg width="256" height="256" viewBox="0 0 256 256" fill="none" xmlns="http://www.w3.org/2000/svg">
<path d="M221 62.4373C221 61.4326 220.677 60.3181 220.141 59.4684C219.561 58.549 218.901 57.5014 218.9 57.5L171 9.35352C169.555 7.95733 158.291 2 156.269 2H41.1923C37.2202 2 34 5.29241 34 9.35352V245.646C34 249.708 37.2202 253 41.1923 253H213.808C217.78 253 221 249.708 221 245.646V68.1816C221 66.4864 221 65.7083 221 62.4373ZM163.462 34.4642C163.462 31.7754 166.726 30.4443 168.606 32.3665L191.458 55.7304C193.316 57.6297 191.97 60.8281 189.313 60.8281H166.462C164.805 60.8281 163.462 59.485 163.462 57.8281V34.4642ZM55 235.5C53.3431 235.5 52 234.157 52 232.5V22.5C52 20.8431 53.3431 19.5 55 19.5H141.5C143.157 19.5 144.5 20.8431 144.5 22.5V60.8281C144.5 64.8892 159.489 79 163.462 79H200C201.657 79 203 80.3431 203 82V232.5C203 234.157 201.657 235.5 200 235.5H55Z" fill="url(#paint0_linear)"/>
<path d="M91.3676 153.59C97.4554 156.562 100.499 162.636 100.499 171.811C100.499 183.957 101.088 191.215 102.267 193.584C103.445 195.911 105.31 197.074 107.864 197.074L107.485 209.931C103.726 211.267 100.218 211.934 96.9645 211.934C90.9888 211.934 86.3459 209.63 83.0354 205.021C79.725 200.411 78.0697 193.67 78.0697 184.797V183.311C78.0697 177.539 77.8313 173.512 77.3543 171.229C76.4286 166.748 74.3104 164.51 71 164.51V145.255C74.1982 145.255 76.3023 143.424 77.3122 139.763C78.0136 137.178 78.4485 133.839 78.6168 129.748C78.8132 125.612 78.9955 122.339 79.1639 119.927C79.5286 114.801 80.7069 110.493 82.6987 107.005C84.7187 103.515 88.3237 101.771 93.5137 101.771C94.2151 101.771 96.74 101.835 101.088 101.964C105.437 102.094 107.681 102.18 107.822 102.223L109.211 118.634C104.665 118.634 101.804 120.853 100.625 125.289C99.9522 127.831 99.4893 131.407 99.2369 136.015C99.0124 140.582 98.7179 143.898 98.3531 145.966C97.9885 148.034 97.2309 149.777 96.0808 151.199C94.9305 152.577 93.3595 153.374 91.3676 153.59ZM134.796 180.275V199.14L134.628 204.116H117.963C117.907 202.479 117.879 199.485 117.879 195.135V180.081H132.144L134.796 180.275ZM148.514 102.74C148.991 102.568 151.222 102.374 155.206 102.158C159.217 101.9 162.248 101.771 164.295 101.771C172.235 101.771 176.639 106.768 177.509 116.76C177.79 119.819 177.93 123.524 177.93 127.874V129.36C177.93 135.132 178.168 139.16 178.645 141.442C179.571 145.923 181.689 148.163 185 148.163V167.416C181.97 167.459 179.907 169.333 178.814 173.038C178.168 175.234 177.579 178.53 177.046 182.923C176.513 187.274 176.036 190.655 175.615 193.067C174.717 198.28 172.866 202.652 170.06 206.184C167.283 209.716 162.823 211.482 156.679 211.482C154.125 211.482 151.292 211.137 148.178 210.448L146.79 194.037C151.362 194.037 154.111 191.839 155.037 187.447C155.458 185.465 155.711 183.268 155.795 180.856C155.879 178.444 155.949 175.988 156.005 173.491C156.089 170.992 156.328 168.666 156.721 166.511C157.114 164.359 157.955 162.485 159.245 160.891C160.564 159.297 162.36 158.263 164.632 157.789C161.265 157.101 158.894 155.378 157.521 152.62C156.174 149.863 155.5 146.03 155.5 141.119C155.5 136.209 155.472 132.849 155.416 131.041C155.276 125.009 154.771 121.133 153.901 119.41C152.611 116.825 150.689 115.555 148.136 115.599L148.514 102.74Z" fill="url(#paint1_linear)"/>
<defs>
<linearGradient id="paint0_linear" x1="34.0274" y1="123.781" x2="221.031" y2="123.781" gradientUnits="userSpaceOnUse">
<stop stop-color="#A93AFF"/>
<stop offset="1" stop-color="#FF81FF"/>
</linearGradient>
<linearGradient id="paint1_linear" x1="71.0167" y1="155.22" x2="185.019" y2="155.22" gradientUnits="userSpaceOnUse">
<stop stop-color="#A93AFF"/>
<stop offset="1" stop-color="#FF81FF"/>
</linearGradient>
</defs>
</svg>
