<svg width="256" height="256" viewBox="0 0 256 256" fill="none" xmlns="http://www.w3.org/2000/svg">
<path d="M182 128H73C67.4772 128 63 131.838 63 136.571V137.429C63 142.162 67.4772 146 73 146H182C187.523 146 192 142.162 192 137.429V136.571C192 131.838 187.523 128 182 128Z" fill="url(#paint0_linear)"/>
<path d="M145 193H73C67.4772 193 63 196.838 63 201.571V202.429C63 207.162 67.4772 211 73 211H145C150.523 211 155 207.162 155 202.429V201.571C155 196.838 150.523 193 145 193Z" fill="url(#paint1_linear)"/>
<path d="M182 160H73C67.4772 160 63 163.663 63 168.182V169.818C63 174.337 67.4772 178 73 178H182C187.523 178 192 174.337 192 169.818V168.182C192 163.663 187.523 160 182 160Z" fill="url(#paint2_linear)"/>
<path d="M221 62.4373C221 61.4326 220.677 60.3181 220.141 59.4684C219.561 58.549 218.901 57.5014 218.9 57.5L171 9.35352C169.555 7.95733 158.291 2 156.269 2H41.1923C37.2202 2 34 5.29241 34 9.35352V245.646C34 249.708 37.2202 253 41.1923 253H213.808C217.78 253 221 249.708 221 245.646V68.1816C221 66.4864 221 65.7083 221 62.4373ZM163.462 34.4642C163.462 31.7754 166.726 30.4443 168.606 32.3665L191.458 55.7304C193.316 57.6297 191.97 60.8281 189.313 60.8281H166.462C164.805 60.8281 163.462 59.485 163.462 57.8281V34.4642ZM55 235.5C53.3431 235.5 52 234.157 52 232.5V22.5C52 20.8431 53.3431 19.5 55 19.5H141.5C143.157 19.5 144.5 20.8431 144.5 22.5V60.8281C144.5 64.8892 159.489 79 163.462 79H200C201.657 79 203 80.3431 203 82V232.5C203 234.157 201.657 235.5 200 235.5H55Z" fill="url(#paint3_linear)"/>
<defs>
<linearGradient id="paint0_linear" x1="75" y1="137" x2="170" y2="137" gradientUnits="userSpaceOnUse">
<stop stop-color="#5570FF"/>
<stop offset="1" stop-color="#4DD3FF"/>
</linearGradient>
<linearGradient id="paint1_linear" x1="71.5581" y1="202" x2="139.31" y2="202" gradientUnits="userSpaceOnUse">
<stop stop-color="#5570FF"/>
<stop offset="1" stop-color="#4DD3FF"/>
</linearGradient>
<linearGradient id="paint2_linear" x1="75" y1="169" x2="170" y2="169" gradientUnits="userSpaceOnUse">
<stop stop-color="#5570FF"/>
<stop offset="1" stop-color="#4DD3FF"/>
</linearGradient>
<linearGradient id="paint3_linear" x1="51.3953" y1="127.5" x2="189.109" y2="127.5" gradientUnits="userSpaceOnUse">
<stop stop-color="#5570FF"/>
<stop offset="1" stop-color="#4DD3FF"/>
</linearGradient>
</defs>
</svg>
