<svg width="256" height="256" viewBox="0 0 256 256" fill="none" xmlns="http://www.w3.org/2000/svg">
<path d="M182 125.548H142C136.477 125.548 132 129.385 132 134.119V134.976C132 139.71 136.477 143.548 142 143.548H182C187.523 143.548 192 139.71 192 134.976V134.119C192 129.385 187.523 125.548 182 125.548Z" fill="url(#paint0_linear)"/>
<path d="M145 189.303H73C67.4772 189.303 63 193.14 63 197.874V198.731C63 203.465 67.4772 207.303 73 207.303H145C150.523 207.303 155 203.465 155 198.731V197.874C155 193.14 150.523 189.303 145 189.303Z" fill="url(#paint1_linear)"/>
<path d="M182 156.935H73C67.4772 156.935 63 160.598 63 165.117V166.753C63 171.272 67.4772 174.935 73 174.935H182C187.523 174.935 192 171.272 192 166.753V165.117C192 160.598 187.523 156.935 182 156.935Z" fill="url(#paint2_linear)"/>
<path d="M221 61.2412C221 60.2557 220.677 59.1626 220.141 58.3291C219.561 57.4274 218.901 56.3998 218.9 56.3985L171 9.17432C169.555 7.80488 158.291 1.96167 156.269 1.96167H41.1923C37.2202 1.96167 34 5.19101 34 9.17432V240.94C34 244.924 37.2202 248.153 41.1923 248.153H213.808C217.78 248.153 221 244.924 221 240.94V66.8754C221 65.2127 221 64.4495 221 61.2412ZM163.462 33.8039C163.462 31.1667 166.726 29.8611 168.606 31.7464L191.458 54.6628C193.316 56.5257 191.97 59.6628 189.313 59.6628H166.462C164.805 59.6628 163.462 58.3454 163.462 56.7203V33.8039ZM55 230.988C53.3431 230.988 52 229.671 52 228.046V22.0689C52 20.4438 53.3431 19.1264 55 19.1264H141.5C143.157 19.1264 144.5 20.4438 144.5 22.0689V59.6628C144.5 63.6461 159.489 77.4866 163.462 77.4866H200C201.657 77.4866 203 78.8039 203 80.4291V228.046C203 229.671 201.657 230.988 200 230.988H55Z" fill="url(#paint3_linear)"/>
<path d="M105.347 134.942H85.1484L81.6211 146.146H65.874L88.2979 86.1763H102.155L124.747 146.146H108.916L105.347 134.942ZM88.6758 123.78H101.819L95.2266 102.981L88.6758 123.78Z" fill="url(#paint4_linear)"/>
<defs>
<linearGradient id="paint0_linear" x1="137.581" y1="134.548" x2="181.767" y2="134.548" gradientUnits="userSpaceOnUse">
<stop stop-color="#5570FF"/>
<stop offset="1" stop-color="#4DD3FF"/>
</linearGradient>
<linearGradient id="paint1_linear" x1="71.5581" y1="198.303" x2="139.31" y2="198.303" gradientUnits="userSpaceOnUse">
<stop stop-color="#5570FF"/>
<stop offset="1" stop-color="#4DD3FF"/>
</linearGradient>
<linearGradient id="paint2_linear" x1="75" y1="165.935" x2="170" y2="165.935" gradientUnits="userSpaceOnUse">
<stop stop-color="#5570FF"/>
<stop offset="1" stop-color="#4DD3FF"/>
</linearGradient>
<linearGradient id="paint3_linear" x1="51.3953" y1="125.057" x2="189.109" y2="125.057" gradientUnits="userSpaceOnUse">
<stop stop-color="#5570FF"/>
<stop offset="1" stop-color="#4DD3FF"/>
</linearGradient>
<linearGradient id="paint4_linear" x1="71.3506" y1="116.161" x2="114.707" y2="116.161" gradientUnits="userSpaceOnUse">
<stop stop-color="#5570FF"/>
<stop offset="1" stop-color="#4DD3FF"/>
</linearGradient>
</defs>
</svg>
