<svg width="256" height="256" viewBox="0 0 256 256" fill="none" xmlns="http://www.w3.org/2000/svg">
<path d="M221 61.2405C221 60.255 220.677 59.1619 220.141 58.3284C219.561 57.4267 218.901 56.3991 218.9 56.3978L171 9.17359C169.555 7.80415 158.291 1.96094 156.269 1.96094H41.1923C37.2202 1.96094 34 5.19028 34 9.17359V240.939C34 244.923 37.2202 248.152 41.1923 248.152H213.808C217.78 248.152 221 244.923 221 240.939V66.8747C221 65.212 221 64.4488 221 61.2405ZM163.462 33.8033C163.462 31.166 166.726 29.8604 168.606 31.7457L191.458 54.6621C193.316 56.525 191.97 59.6621 189.313 59.6621H166.462C164.805 59.6621 163.462 58.3447 163.462 56.7196V33.8033ZM55 230.987C53.3431 230.987 52 229.67 52 228.045V22.0683C52 20.4431 53.3431 19.1257 55 19.1257H141.5C143.157 19.1257 144.5 20.4431 144.5 22.0683V59.6621C144.5 63.6454 159.489 77.4859 163.462 77.4859H200C201.657 77.4859 203 78.8032 203 80.4284V228.045C203 229.67 201.657 230.987 200 230.987H55Z" fill="url(#paint0_linear)"/>
<path fill-rule="evenodd" clip-rule="evenodd" d="M105.508 105.105C116.822 90.2983 139.834 90.2983 151.148 105.105C153.792 108.565 157.873 110.777 162.219 111.103L163.205 111.177C182.282 112.61 193.734 132.571 185.052 149.258C183.366 152.498 183.011 156.246 184.058 159.735L185.436 164.32C186.391 167.501 184.53 170.838 181.28 171.773C178.03 172.708 174.62 170.887 173.665 167.706L172.288 163.121C170.356 156.691 171.012 149.781 174.119 143.809C178.83 134.756 172.616 123.927 162.266 123.15L161.281 123.076C153.351 122.48 146.052 118.486 141.322 112.296C134.916 103.911 121.74 103.911 115.333 112.296C110.604 118.486 103.305 122.48 95.375 123.076L92.6708 123.279C83.1386 123.994 77.4162 133.968 81.7544 142.306C85.481 149.468 85.481 157.943 81.7544 165.105C77.4162 173.443 83.1386 183.417 92.6709 184.133L95.375 184.336C103.277 184.929 110.533 188.833 115.279 195.045L115.953 195.926C122.133 204.015 134.523 204.015 140.703 195.926C145.937 189.077 154.164 185.044 162.903 185.044H166.354C169.742 185.044 172.488 187.731 172.488 191.047C172.488 194.363 169.742 197.051 166.354 197.051H162.903C158.032 197.051 153.446 199.299 150.528 203.117C139.441 217.628 117.215 217.628 106.127 203.117L105.454 202.235C102.827 198.797 98.8105 196.637 94.4366 196.308L91.7325 196.105C73.473 194.734 62.5115 175.628 70.8215 159.657C72.7669 155.918 72.7669 151.494 70.8215 147.755C62.5115 131.783 73.473 112.677 91.7325 111.306L94.4366 111.103C98.783 110.777 102.864 108.565 105.508 105.105Z" fill="url(#paint1_linear)"/>
<path fill-rule="evenodd" clip-rule="evenodd" d="M128 142.582C121.694 142.582 116.582 147.694 116.582 154C116.582 160.306 121.694 165.418 128 165.418C134.306 165.418 139.418 160.306 139.418 154C139.418 147.694 134.306 142.582 128 142.582ZM104.562 154C104.562 141.056 115.056 130.562 128 130.562C140.944 130.562 151.438 141.056 151.438 154C151.438 166.944 140.944 177.438 128 177.438C115.056 177.438 104.562 166.944 104.562 154Z" fill="url(#paint2_linear)"/>
<defs>
<linearGradient id="paint0_linear" x1="127.5" y1="248.152" x2="127.5" y2="1.96094" gradientUnits="userSpaceOnUse">
<stop stop-color="#5570FF"/>
<stop offset="1" stop-color="#4DD3FF"/>
</linearGradient>
<linearGradient id="paint1_linear" x1="128" y1="214" x2="128" y2="94" gradientUnits="userSpaceOnUse">
<stop stop-color="#5570FF"/>
<stop offset="1" stop-color="#4DD3FF"/>
</linearGradient>
<linearGradient id="paint2_linear" x1="128" y1="177.438" x2="128" y2="130.562" gradientUnits="userSpaceOnUse">
<stop stop-color="#5570FF"/>
<stop offset="1" stop-color="#4DD3FF"/>
</linearGradient>
</defs>
</svg>
