<svg width="256" height="256" viewBox="0 0 256 256" fill="none" xmlns="http://www.w3.org/2000/svg">
<path fill-rule="evenodd" clip-rule="evenodd" d="M221 62.4373C221 61.4326 220.677 60.3181 220.141 59.4684C219.854 59.0127 219.546 58.5251 219.309 58.1492L218.9 57.5L171 9.35352C169.555 7.95733 158.291 2 156.269 2H41.1923C37.2202 2 34 5.29241 34 9.35352V245.646C34 249.708 37.2202 253 41.1923 253H213.808C217.78 253 221 249.708 221 245.646V68.1816V62.4373ZM163.462 34.4642C163.462 31.7754 166.726 30.4443 168.606 32.3665L191.458 55.7304C193.316 57.6297 191.97 60.8281 189.313 60.8281H166.462C164.805 60.8281 163.462 59.485 163.462 57.8281V34.4642ZM55 235.5C53.3431 235.5 52 234.157 52 232.5V22.5C52 20.8431 53.3431 19.5 55 19.5H141.5C143.157 19.5 144.5 20.8431 144.5 22.5V60.8281C144.5 64.8892 159.489 79 163.462 79H200C201.657 79 203 80.3431 203 82V232.5C203 234.157 201.657 235.5 200 235.5H55ZM125.205 97.1327C103.453 98.4454 91.6988 110.483 90.1191 132.189C90.0365 133.324 90.9483 134.272 92.0858 134.272H110.68C111.766 134.272 112.641 133.402 112.773 132.325C113.626 125.373 118.147 120.264 125.592 119.378C133.716 118.604 141.454 120.538 143.775 125.954C146.289 131.951 140.68 138.915 137.972 141.816C135.75 144.209 132.924 146.337 130.094 148.468C126.519 151.161 122.938 153.858 120.563 157.097C116.809 162.46 115.863 169.309 115.436 177.645C115.378 178.781 116.288 179.729 117.425 179.729H133.327C134.407 179.729 135.289 178.872 135.336 177.793C135.568 172.539 136.138 167.724 138.552 164.448C141.306 160.736 144.875 158.284 148.479 155.808C150.698 154.284 152.93 152.75 154.994 150.908C160.217 146.459 165.826 141.042 166.6 132.531C169.888 107.578 149.384 95.5853 125.205 97.1327ZM138.359 200.62C138.359 207.457 132.729 213 125.785 213C118.841 213 113.212 207.457 113.212 200.62C113.212 193.783 118.841 188.24 125.785 188.24C132.729 188.24 138.359 193.783 138.359 200.62Z" fill="url(#paint0_linear_667_103)"/>
<defs>
<linearGradient id="paint0_linear_667_103" x1="34" y1="153" x2="210.5" y2="151" gradientUnits="userSpaceOnUse">
<stop stop-color="#CBCBCB"/>
<stop offset="0.9973" stop-color="#FAFAFA"/>
</linearGradient>
</defs>
</svg>
