<svg width="256" height="256" viewBox="0 0 256 256" fill="none" xmlns="http://www.w3.org/2000/svg">
<path d="M219.718 59.7352C220.204 60.5052 220.5 61.5273 220.5 62.4373V62.4564V62.4755V62.4945V62.5135V62.5324V62.5513V62.5701V62.5888V62.6075V62.6261V62.6447V62.6632V62.6817V62.7001V62.7185V62.7368V62.755V62.7732V62.7913V62.8094V62.8274V62.8454V62.8633V62.8812V62.899V62.9168V62.9345V62.9521V62.9697V62.9873V63.0048V63.0222V63.0396V63.057V63.0743V63.0915V63.1087V63.1258V63.1429V63.1599V63.1769V63.1938V63.2107V63.2275V63.2443V63.261V63.2777V63.2943V63.3109V63.3275V63.3439V63.3604V63.3767V63.3931V63.4094V63.4256V63.4418V63.4579V63.474V63.49V63.506V63.522V63.5379V63.5537V63.5695V63.5853V63.601V63.6167V63.6323V63.6478V63.6634V63.6788V63.6943V63.7097V63.725V63.7403V63.7555V63.7707V63.7859V63.801V63.8161V63.8311V63.8461V63.861V63.8759V63.8907V63.9055V63.9203V63.935V63.9497V63.9643V63.9789V63.9934V64.0079V64.0224V64.0368V64.0512V64.0655V64.0798V64.094V64.1082V64.1224V64.1365V64.1506V64.1646V64.1786V64.1926V64.2065V64.2203V64.2342V64.248V64.2617V64.2754V64.2891V64.3027V64.3163V64.3299V64.3434V64.3569V64.3703V64.3837V64.3971V64.4104V64.4237V64.4369V64.4501V64.4633V64.4764V64.4895V64.5026V64.5156V64.5286V64.5415V64.5544V64.5673V64.5801V64.5929V64.6057V64.6184V64.6311V64.6437V64.6564V64.6689V64.6815V64.694V64.7065V64.7189V64.7313V64.7437V64.7561V64.7684V64.7806V64.7929V64.8051V64.8172V64.8294V64.8415V64.8535V64.8656V64.8776V64.8896V64.9015V64.9134V64.9253V64.9371V64.9489V64.9607V64.9725V64.9842V64.9959V65.0075V65.0191V65.0307V65.0423V65.0538V65.0653V65.0768V65.0882V65.0996V65.111V65.1224V65.1337V65.145V65.1562V65.1675V65.1787V65.1899V65.201V65.2121V65.2232V65.2343V65.2453V65.2563V65.2673V65.2782V65.2892V65.3001V65.3109V65.3218V65.3326V65.3434V65.3542V65.3649V65.3756V65.3863V65.3969V65.4076V65.4182V65.4288V65.4393V65.4499V65.4604V65.4709V65.4813V65.4917V65.5022V65.5125V65.5229V65.5332V65.5436V65.5538V65.5641V65.5744V65.5846V65.5948V65.6049V65.6151V65.6252V65.6353V65.6454V65.6555V65.6655V65.6755V65.6855V65.6955V65.7055V65.7154V65.7253V65.7352V65.7451V65.7549V65.7648V65.7746V65.7844V65.7942V65.8039V65.8136V65.8234V65.833V65.8427V65.8524V65.862V65.8716V65.8812V65.8908V65.9004V65.9099V65.9194V65.929V65.9384V65.9479V65.9574V65.9668V65.9762V65.9857V65.995V66.0044V66.0138V66.0231V66.0324V66.0417V66.051V66.0603V66.0696V66.0788V66.0881V66.0973V66.1065V66.1157V66.1248V66.134V66.1431V66.1523V66.1614V66.1705V66.1796V66.1887V66.1977V66.2068V66.2158V66.2248V66.2338V66.2428V66.2518V66.2608V66.2697V66.2787V66.2876V66.2966V66.3055V66.3144V66.3233V66.3321V66.341V66.3499V66.3587V66.3676V66.3764V66.3852V66.394V66.4028V66.4116V66.4204V66.4292V66.4379V66.4467V66.4554V66.4641V66.4729V66.4816V66.4903V66.499V66.5077V66.5164V66.525V66.5337V66.5424V66.551V66.5597V66.5683V66.577V66.5856V66.5942V66.6028V66.6114V66.62V66.6286V66.6372V66.6458V66.6544V66.6629V66.6715V66.6801V66.6886V66.6972V66.7057V66.7143V66.7228V66.7314V66.7399V66.7484V66.757V66.7655V66.774V66.7825V66.791V66.7996V66.8081V66.8166V66.8251V66.8336V66.8421V66.8506V66.8591V66.8676V66.8761V66.8846V66.893V66.9015V66.91V66.9185V66.927V66.9355V66.944V66.9525V66.961V66.9694V66.9779V66.9864V66.9949V67.0034V67.0119V67.0204V67.0289V67.0374V67.0459V67.0544V67.0629V67.0714V67.0799V67.0884V67.0969V67.1054V67.1139V67.1224V67.131V67.1395V67.148V67.1565V67.1651V67.1736V67.1822V67.1907V67.1993V67.2078V67.2164V67.225V67.2335V67.2421V67.2507V67.2593V67.2679V67.2765V67.2851V67.2937V67.3023V67.3109V67.3195V67.3282V67.3368V67.3455V67.3541V67.3628V67.3715V67.3802V67.3888V67.3975V67.4062V67.415V67.4237V67.4324V67.4411V67.4499V67.4586V67.4674V67.4762V67.485V67.4938V67.5026V67.5114V67.5202V67.529V67.5379V67.5467V67.5556V67.5645V67.5733V67.5822V67.5911V67.6001V67.609V67.6179V67.6269V67.6358V67.6448V67.6538V67.6628V67.6718V67.6809V67.6899V67.699V67.708V67.7171V67.7262V67.7353V67.7444V67.7536V67.7627V67.7719V67.7811V67.7902V67.7995V67.8087V67.8179V67.8272V67.8364V67.8457V67.855V67.8643V67.8737V67.883V67.8924V67.9018V67.9112V67.9206V67.93V67.9394V67.9489V67.9584V67.9679V67.9774V67.9869V67.9965V68.0061V68.0157V68.0253V68.0349V68.0445V68.0542V68.0639V68.0736V68.0833V68.093V68.1028V68.1126V68.1224V68.1322V68.142V68.1519V68.1618V68.1717V68.1816V245.646C220.5 249.442 217.493 252.5 213.808 252.5H41.1923C37.5067 252.5 34.5 249.442 34.5 245.646V9.35352C34.5 5.55804 37.5067 2.5 41.1923 2.5H156.269C156.434 2.5 156.764 2.56839 157.267 2.73375C157.753 2.89321 158.35 3.1254 159.025 3.41268C160.373 3.98679 162.004 4.76943 163.623 5.59824C165.241 6.42671 166.839 7.2978 168.121 8.04713C168.762 8.42195 169.32 8.76432 169.76 9.05427C170.206 9.34807 170.504 9.57062 170.649 9.70989C170.65 9.71096 170.651 9.71203 170.653 9.71309L218.508 57.8153C218.609 57.9761 219.186 58.8909 219.718 59.7352ZM168.963 32.0169C166.77 29.7742 162.962 31.3274 162.962 34.4642V57.8281C162.962 59.7611 164.529 61.3281 166.462 61.3281H189.313C192.413 61.3281 193.983 57.5967 191.815 55.3808L168.963 32.0169ZM51.5 232.5C51.5 234.433 53.067 236 55 236H200C201.933 236 203.5 234.433 203.5 232.5V82C203.5 80.067 201.933 78.5 200 78.5H163.462C163.087 78.5 162.505 78.3248 161.73 77.9382C160.97 77.5598 160.082 77.0081 159.111 76.3232C157.172 74.9544 154.945 73.0804 152.836 71.0746C150.726 69.0686 148.747 66.9429 147.299 65.0745C146.575 64.1397 145.992 63.2792 145.592 62.5376C145.183 61.7801 145 61.2067 145 60.8281V22.5C145 20.567 143.433 19 141.5 19H55C53.067 19 51.5 20.567 51.5 22.5V232.5Z" fill="url(#paint0_linear)" stroke="url(#paint1_linear)"/>
<path d="M114.191 175.468L114.433 175.031L114.192 175.469C115.519 176.201 117.169 176.189 118.504 175.353L148.504 156.603C149.745 155.827 150.5 154.465 150.5 153C150.5 151.535 149.745 150.173 148.504 149.397L118.505 130.648C117.193 129.822 115.529 129.784 114.191 130.532C112.839 131.282 112 132.706 112 134.25V171.75C112 173.294 112.839 174.718 114.191 175.468ZM82.5 191H93.25V194.25C93.25 196.599 95.1511 198.5 97.5 198.5C99.8489 198.5 101.75 196.599 101.75 194.25V191H172.5C174.849 191 176.75 189.099 176.75 186.75C176.75 184.401 174.849 182.5 172.5 182.5H101.75V179.25C101.75 176.901 99.8489 175 97.5 175C95.1511 175 93.25 176.901 93.25 179.25V182.5H82.5C80.1511 182.5 78.25 184.401 78.25 186.75C78.25 189.099 80.1511 191 82.5 191ZM120.5 164.08V141.92L138.231 153L120.5 164.08ZM187.75 115H67.25C64.9011 115 63 116.901 63 119.25V209.25C63 211.599 64.9011 213.5 67.25 213.5H187.75C190.099 213.5 192 211.599 192 209.25V119.25C192 116.901 190.099 115 187.75 115ZM183.5 205H71.5V123.5H183.5V205Z" fill="url(#paint2_linear)" stroke="url(#paint3_linear)" stroke-width="4"/>
<defs>
<linearGradient id="paint0_linear" x1="215.726" y1="127.5" x2="51.2223" y2="83.1662" gradientUnits="userSpaceOnUse">
<stop stop-color="#FE7970"/>
<stop offset="1" stop-color="#DC3282"/>
</linearGradient>
<linearGradient id="paint1_linear" x1="215.726" y1="127.5" x2="51.2223" y2="83.1662" gradientUnits="userSpaceOnUse">
<stop stop-color="#FE7970"/>
<stop offset="1" stop-color="#DC3282"/>
</linearGradient>
<linearGradient id="paint2_linear" x1="188.362" y1="164.25" x2="88.9499" y2="117.154" gradientUnits="userSpaceOnUse">
<stop stop-color="#FE7970"/>
<stop offset="1" stop-color="#DC3282"/>
</linearGradient>
<linearGradient id="paint3_linear" x1="188.362" y1="164.25" x2="88.9499" y2="117.154" gradientUnits="userSpaceOnUse">
<stop stop-color="#FE7970"/>
<stop offset="1" stop-color="#DC3282"/>
</linearGradient>
</defs>
</svg>
