<svg width="256" height="256" viewBox="0 0 256 256" fill="none" xmlns="http://www.w3.org/2000/svg">
<path d="M221 62.4373C221 61.4326 220.677 60.3181 220.141 59.4684C219.561 58.549 218.9 57.5 218.9 57.5L171 9.35352C169.555 7.95733 158.291 2 156.269 2H41.1923C37.2202 2 34 5.29241 34 9.35352V245.646C34 249.708 37.2202 253 41.1923 253H213.808C217.78 253 221 249.708 221 245.646V68.1816C221 66.4864 221 65.7083 221 62.4373ZM163.462 34.4642C163.462 31.7754 166.726 30.4443 168.606 32.3665L191.458 55.7304C193.316 57.6297 191.97 60.8281 189.313 60.8281H166.462C164.805 60.8281 163.462 59.485 163.462 57.8281V34.4642ZM55 235.5C53.3431 235.5 52 234.157 52 232.5V22.5C52 20.8431 53.3431 19.5 55 19.5H141.5C143.157 19.5 144.5 20.8431 144.5 22.5V60.8281C144.5 64.8892 159.489 79 163.462 79H200C201.657 79 203 80.3431 203 82V232.5C203 234.157 201.657 235.5 200 235.5H55Z" fill="url(#paint0_linear_667_125)"/>
<path fill-rule="evenodd" clip-rule="evenodd" d="M158.473 141H185.388C190.697 141 195 144.838 195 149.571V150.429C195 155.162 190.697 159 185.388 159H158.473C153.164 159 148.86 155.162 148.86 150.429V149.571C148.86 144.838 153.164 141 158.473 141ZM80.6124 206H149.822C155.131 206 159.434 209.838 159.434 214.571V215.429C159.434 220.162 155.131 224 149.822 224H80.6124C75.3037 224 71 220.162 71 215.429V214.571C71 209.838 75.3037 206 80.6124 206ZM185.388 173H80.6124C75.3037 173 71 176.663 71 181.182V182.818C71 187.337 75.3037 191 80.6124 191H185.388C190.697 191 195 187.337 195 182.818V181.182C195 176.663 190.697 173 185.388 173Z" fill="url(#paint1_linear_667_125)"/>
<path d="M95.1025 162.4C94.8874 163.046 94.3495 163.691 93.4889 164.337C92.6999 164.982 91.66 165.305 90.3691 165.305H75.308C73.9453 165.305 72.7978 164.911 71.8655 164.122C71.0048 163.261 70.5028 162.293 70.3594 161.217L61 92.6895V92.3667C61 91.7213 61.2152 91.1834 61.6455 90.753C62.1475 90.251 62.7213 90 63.3667 90H81.8703C83.3047 90 84.4522 90.4303 85.3128 91.2909C86.2452 92.1516 86.7831 93.2274 86.9265 94.5183L90.3691 127.437L96.6087 110.332C96.8238 109.615 97.3258 108.934 98.1147 108.288C98.9754 107.571 100.051 107.213 101.342 107.213H108.658C109.949 107.213 110.989 107.571 111.778 108.288C112.638 108.934 113.176 109.615 113.391 110.332L119.631 127.437L123.073 94.5183C123.217 93.2274 123.719 92.1516 124.58 91.2909C125.512 90.4303 126.695 90 128.13 90H146.633C147.279 90 147.817 90.251 148.247 90.753C148.749 91.1834 149 91.7213 149 92.3667V92.6895L139.641 161.217C139.497 162.293 138.959 163.261 138.027 164.122C137.166 164.911 136.055 165.305 134.692 165.305H119.631C118.34 165.305 117.264 164.982 116.404 164.337C115.615 163.691 115.113 163.046 114.897 162.4L105 139.701L95.1025 162.4Z" fill="url(#paint2_linear_667_125)"/>
<defs>
<linearGradient id="paint0_linear_667_125" x1="127.5" y1="253" x2="127.5" y2="2" gradientUnits="userSpaceOnUse">
<stop stop-color="#5570FF"/>
<stop offset="1" stop-color="#4DD3FF"/>
</linearGradient>
<linearGradient id="paint1_linear_667_125" x1="133" y1="224" x2="133" y2="106.199" gradientUnits="userSpaceOnUse">
<stop stop-color="#5570FF"/>
<stop offset="1" stop-color="#4DD3FF"/>
</linearGradient>
<linearGradient id="paint2_linear_667_125" x1="141.454" y1="240.868" x2="141.454" y2="90" gradientUnits="userSpaceOnUse">
<stop stop-color="#5570FF"/>
<stop offset="1" stop-color="#4DD3FF"/>
</linearGradient>
</defs>
</svg>
