<svg width="256" height="256" viewBox="0 0 256 256" fill="none" xmlns="http://www.w3.org/2000/svg">
<path d="M149.094 177.52H163.156C165.1 177.52 166.672 175.898 166.672 173.893V130.369C166.672 128.364 165.1 126.742 163.156 126.742H149.094C147.15 126.742 145.578 128.364 145.578 130.369V173.893C145.578 175.898 147.15 177.52 149.094 177.52ZM184.484 97.7254H131.516V93.8565C131.516 91.8517 129.943 90.2295 128 90.2295C126.057 90.2295 124.484 91.8517 124.484 93.8565V97.7254H71.5156C69.5724 97.7254 68 99.3474 68 101.352V115.861C68 117.866 69.5724 119.488 71.5156 119.488H75.0312V188.643C75.0312 190.648 76.6036 192.27 78.5469 192.27H109.062L104.374 206.779H99.875C97.9318 206.779 96.3594 208.401 96.3594 210.406C96.3594 212.411 97.9318 214.033 99.875 214.033H106.906C108.199 214.033 109.678 213.063 110.182 211.634C110.517 210.683 116.287 192.924 116.473 192.27H124.484V210.406C124.484 212.411 126.057 214.033 128 214.033C129.943 214.033 131.516 212.411 131.516 210.406V192.27H139.53C140.173 194.25 137.203 185.097 145.818 211.634C146.319 213.055 147.796 214.033 149.094 214.033H156.125C158.068 214.033 159.641 212.411 159.641 210.406C159.641 208.401 158.068 206.779 156.125 206.779H151.626L146.938 192.27H177.453C179.397 192.27 180.969 190.648 180.969 188.643V119.488H184.484C186.428 119.488 188 117.866 188 115.861V101.352C188 99.3474 186.428 97.7254 184.484 97.7254ZM173.938 185.016H82.0625V119.488H173.938V185.016ZM120.969 177.52H135.031C136.975 177.52 138.547 175.898 138.547 173.893V144.877C138.547 142.872 136.975 141.25 135.031 141.25H120.969C119.025 141.25 117.453 142.872 117.453 144.877V173.893C117.453 175.898 119.025 177.52 120.969 177.52ZM92.8438 177.52H106.906C108.85 177.52 110.422 175.898 110.422 173.893V159.385C110.422 157.38 108.85 155.758 106.906 155.758H92.8438C90.9005 155.758 89.3281 157.38 89.3281 159.385V173.893C89.3281 175.898 90.9005 177.52 92.8438 177.52Z" fill="url(#paint0_linear_667_183)"/>
<path fill-rule="evenodd" clip-rule="evenodd" d="M220.141 59.4684C220.677 60.3181 221 61.4326 221 62.4373V68.1816V245.646C221 249.708 217.78 253 213.808 253H41.1923C37.2202 253 34 249.708 34 245.646V9.35352C34 5.29241 37.2202 2 41.1923 2H156.269C158.291 2 169.555 7.95733 171 9.35352L218.9 57.5C218.9 57.5 219.068 57.7668 219.309 58.1492C219.546 58.5251 219.854 59.0127 220.141 59.4684ZM168.606 32.3665C166.726 30.4443 163.462 31.7754 163.462 34.4642V57.8281C163.462 59.485 164.805 60.8281 166.462 60.8281H189.313C191.97 60.8281 193.316 57.6297 191.458 55.7304L168.606 32.3665ZM52 232.5C52 234.157 53.3431 235.5 55 235.5H200C201.657 235.5 203 234.157 203 232.5V82C203 80.3431 201.657 79 200 79H163.462C159.489 79 144.5 64.8892 144.5 60.8281V22.5C144.5 20.8431 143.157 19.5 141.5 19.5H55C53.3431 19.5 52 20.8431 52 22.5V232.5ZM128 88.2295C124.894 88.2295 122.484 90.806 122.484 93.8565V95.7254H71.5156C68.4097 95.7254 66 98.3019 66 101.352V115.861C66 118.911 68.4096 121.488 71.5156 121.488H73.0312V188.643C73.0312 191.693 75.4408 194.27 78.5469 194.27H106.314L102.918 204.779H99.875C96.769 204.779 94.3594 207.356 94.3594 210.406C94.3594 213.456 96.769 216.033 99.875 216.033H106.906C109.049 216.033 111.283 214.526 112.068 212.299L112.068 212.298C112.169 212.012 112.743 210.264 113.507 207.922L122.484 202.673V210.406C122.484 213.457 124.895 216.033 128 216.033C131.105 216.033 133.516 213.457 133.516 210.406V196.223L136.856 194.27H138.078C138.742 196.314 140.319 201.173 143.916 212.252L143.923 212.275L143.932 212.299C144.713 214.514 146.942 216.033 149.094 216.033H156.125C159.23 216.033 161.641 213.457 161.641 210.406C161.641 207.355 159.23 204.779 156.125 204.779H153.082L149.686 194.27H177.453C180.56 194.27 182.969 191.693 182.969 188.643V121.488H184.484C187.591 121.488 190 118.911 190 115.861V101.352C190 98.3018 187.591 95.7254 184.484 95.7254H133.516V93.8565C133.516 90.806 131.106 88.2295 128 88.2295ZM136.856 194.27H136.856L141.416 191.603L141.422 191.62L141.425 191.629L141.428 191.638L141.431 191.646L141.435 191.659L141.435 191.661L141.437 191.664L141.587 192.125C142.001 193.401 143.411 197.742 147.711 210.987C147.939 211.604 148.654 212.033 149.094 212.033H156.125C156.906 212.033 157.641 211.365 157.641 210.406C157.641 209.447 156.906 208.779 156.125 208.779H151.626H150.17L149.723 207.394L145.035 192.885L144.19 190.27H146.938H177.453C178.234 190.27 178.969 189.603 178.969 188.643V119.488V117.488H180.969H184.484C185.265 117.488 186 116.821 186 115.861V101.352C186 100.393 185.265 99.7254 184.484 99.7254H131.516H129.516V97.7254V93.8565C129.516 92.8974 128.78 92.2295 128 92.2295C127.22 92.2295 126.484 92.8974 126.484 93.8565V97.7254V99.7254H124.484H71.5156C70.7351 99.7254 70 100.393 70 101.352V115.861C70 116.821 70.7352 117.488 71.5156 117.488H75.0312H77.0312V119.488V188.643C77.0312 189.603 77.7664 190.27 78.5469 190.27H109.062H111.81L110.965 192.885L106.277 207.394L105.83 208.779H104.374H99.875C99.0946 208.779 98.3594 209.446 98.3594 210.406C98.3594 211.366 99.0946 212.033 99.875 212.033H106.906C107.074 212.033 107.371 211.959 107.684 211.737C107.988 211.522 108.199 211.243 108.296 210.969L113.507 207.922C113.507 207.922 113.507 207.922 113.507 207.922L122.484 202.673V202.673L126.484 200.335V210.406C126.484 211.365 127.219 212.033 128 212.033C128.781 212.033 129.516 211.365 129.516 210.406V198.562L133.516 196.223V196.223L136.856 194.27ZM129.516 198.561V198.562L126.484 200.335V200.334L129.516 198.561ZM129.516 198.561V192.27V190.27H131.516H139.53H140.983L141.416 191.603L136.856 194.27H133.516V196.223L129.516 198.561ZM126.484 200.334V192.27V190.27H124.484H116.473H114.962L114.549 191.722C114.55 191.721 114.55 191.722 114.549 191.725C114.547 191.731 114.541 191.75 114.529 191.788C114.514 191.836 114.494 191.9 114.468 191.982C114.417 192.145 114.346 192.366 114.258 192.641C114.083 193.188 113.841 193.938 113.556 194.823C112.984 196.593 112.235 198.903 111.481 201.223C109.967 205.884 108.454 210.52 108.296 210.969L113.507 207.922C114.931 203.559 117.016 197.136 117.936 194.27H122.484V202.673L126.484 200.334ZM82.0625 117.488H80.0625V119.488V185.016V187.016H82.0625H173.938H175.938V185.016V119.488V117.488H173.938H82.0625ZM171.938 121.488H84.0625V183.016H171.938V121.488ZM149.094 124.742C145.987 124.742 143.578 127.319 143.578 130.369V173.893C143.578 176.943 145.987 179.52 149.094 179.52H163.156C166.263 179.52 168.672 176.943 168.672 173.893V130.369C168.672 127.319 166.263 124.742 163.156 124.742H149.094ZM147.578 130.369C147.578 129.409 148.313 128.742 149.094 128.742H163.156C163.937 128.742 164.672 129.409 164.672 130.369V173.893C164.672 174.853 163.937 175.52 163.156 175.52H149.094C148.313 175.52 147.578 174.853 147.578 173.893V130.369ZM120.969 139.25C117.862 139.25 115.453 141.827 115.453 144.877V173.893C115.453 176.943 117.862 179.52 120.969 179.52H135.031C138.138 179.52 140.547 176.943 140.547 173.893V144.877C140.547 141.827 138.138 139.25 135.031 139.25H120.969ZM119.453 144.877C119.453 143.917 120.188 143.25 120.969 143.25H135.031C135.812 143.25 136.547 143.917 136.547 144.877V173.893C136.547 174.853 135.812 175.52 135.031 175.52H120.969C120.188 175.52 119.453 174.853 119.453 173.893V144.877ZM92.8438 153.758C89.7377 153.758 87.3281 156.335 87.3281 159.385V173.893C87.3281 176.943 89.7377 179.52 92.8438 179.52H106.906C110.013 179.52 112.422 176.943 112.422 173.893V159.385C112.422 156.335 110.013 153.758 106.906 153.758H92.8438ZM91.3281 159.385C91.3281 158.425 92.0633 157.758 92.8438 157.758H106.906C107.687 157.758 108.422 158.425 108.422 159.385V173.893C108.422 174.853 107.687 175.52 106.906 175.52H92.8438C92.0633 175.52 91.3281 174.853 91.3281 173.893V159.385Z" fill="url(#paint1_linear_667_183)"/>
<defs>
<linearGradient id="paint0_linear_667_183" x1="37" y1="114.5" x2="185" y2="197.5" gradientUnits="userSpaceOnUse">
<stop stop-color="#FD5900"/>
<stop offset="1" stop-color="#FFDE00"/>
</linearGradient>
<linearGradient id="paint1_linear_667_183" x1="58.5" y1="87" x2="200.715" y2="167.199" gradientUnits="userSpaceOnUse">
<stop stop-color="#FD5900"/>
<stop offset="1" stop-color="#FFDE00"/>
</linearGradient>
</defs>
</svg>
