<svg width="256" height="256" viewBox="0 0 256 256" fill="none" xmlns="http://www.w3.org/2000/svg">
<path d="M221 61.2412C221 60.2557 220.677 59.1626 220.141 58.3291C219.561 57.4274 218.901 56.3998 218.9 56.3985L171 9.17432C169.555 7.80488 158.291 1.96167 156.269 1.96167H41.1923C37.2202 1.96167 34 5.19101 34 9.17432V240.94C34 244.924 37.2202 248.153 41.1923 248.153H213.808C217.78 248.153 221 244.924 221 240.94V66.8754C221 65.2127 221 64.4495 221 61.2412ZM163.462 33.804C163.462 31.1667 166.726 29.8611 168.606 31.7464L191.458 54.6628C193.316 56.5257 191.97 59.6628 189.313 59.6628H166.462C164.805 59.6628 163.462 58.3454 163.462 56.7203V33.804ZM55 230.988C53.3431 230.988 52 229.671 52 228.046V22.069C52 20.4438 53.3431 19.1264 55 19.1264H141.5C143.157 19.1264 144.5 20.4438 144.5 22.069V59.6628C144.5 63.6461 159.489 77.4866 163.462 77.4866H200C201.657 77.4866 203 78.8039 203 80.4291V228.046C203 229.671 201.657 230.988 200 230.988H55Z" fill="url(#paint0_linear)"/>
<path d="M128 113.092H87C83.6863 113.092 81 115.854 81 119.261V145.649M128 113.092V145.649M128 113.092H169C172.314 113.092 175 115.854 175 119.261V145.649M128 145.649H81M128 145.649V178.206M128 145.649H175M81 145.649V178.206M128 178.206H175M128 178.206V210.763M128 178.206H81M175 178.206V204.594C175 208.001 172.314 210.763 169 210.763H128M175 178.206V145.649M128 210.763H87C83.6863 210.763 81 208.001 81 204.594V178.206" stroke="url(#paint1_linear)" stroke-width="12"/>
<defs>
<linearGradient id="paint0_linear" x1="34" y1="125.057" x2="221" y2="125.057" gradientUnits="userSpaceOnUse">
<stop stop-color="#02AA93"/>
<stop offset="1" stop-color="#67FF80"/>
</linearGradient>
<linearGradient id="paint1_linear" x1="81" y1="161.928" x2="175" y2="161.928" gradientUnits="userSpaceOnUse">
<stop stop-color="#02AA93"/>
<stop offset="1" stop-color="#67FF80"/>
</linearGradient>
</defs>
</svg>
