<svg width="256" height="256" viewBox="0 0 256 256" fill="none" xmlns="http://www.w3.org/2000/svg">
<path d="M221 62.4373C221 61.4326 220.677 60.3181 220.141 59.4684C219.561 58.549 218.901 57.5014 218.9 57.5L171 9.35352C169.555 7.95733 158.291 2 156.269 2H41.1923C37.2202 2 34 5.29241 34 9.35352V245.646C34 249.708 37.2202 253 41.1923 253H213.808C217.78 253 221 249.708 221 245.646V68.1816C221 66.4864 221 65.7083 221 62.4373ZM163.462 34.4642C163.462 31.7754 166.726 30.4443 168.606 32.3665L191.458 55.7304C193.316 57.6297 191.97 60.8281 189.313 60.8281H166.462C164.805 60.8281 163.462 59.485 163.462 57.8281V34.4642ZM55 235.5C53.3431 235.5 52 234.157 52 232.5V22.5C52 20.8431 53.3431 19.5 55 19.5H141.5C143.157 19.5 144.5 20.8431 144.5 22.5V60.8281C144.5 64.8892 159.489 79 163.462 79H200C201.657 79 203 80.3431 203 82V232.5C203 234.157 201.657 235.5 200 235.5H55Z" fill="url(#paint0_linear)"/>
<path d="M108.578 159.125H98.4219C96.7461 159.125 95.375 157.754 95.375 156.078V145.922C95.375 144.246 96.7461 142.875 98.4219 142.875H108.578C110.254 142.875 111.625 144.246 111.625 145.922V156.078C111.625 157.754 110.254 159.125 108.578 159.125ZM136 156.078V145.922C136 144.246 134.629 142.875 132.953 142.875H122.797C121.121 142.875 119.75 144.246 119.75 145.922V156.078C119.75 157.754 121.121 159.125 122.797 159.125H132.953C134.629 159.125 136 157.754 136 156.078ZM160.375 156.078V145.922C160.375 144.246 159.004 142.875 157.328 142.875H147.172C145.496 142.875 144.125 144.246 144.125 145.922V156.078C144.125 157.754 145.496 159.125 147.172 159.125H157.328C159.004 159.125 160.375 157.754 160.375 156.078ZM136 180.453V170.297C136 168.621 134.629 167.25 132.953 167.25H122.797C121.121 167.25 119.75 168.621 119.75 170.297V180.453C119.75 182.129 121.121 183.5 122.797 183.5H132.953C134.629 183.5 136 182.129 136 180.453ZM111.625 180.453V170.297C111.625 168.621 110.254 167.25 108.578 167.25H98.4219C96.7461 167.25 95.375 168.621 95.375 170.297V180.453C95.375 182.129 96.7461 183.5 98.4219 183.5H108.578C110.254 183.5 111.625 182.129 111.625 180.453ZM160.375 180.453V170.297C160.375 168.621 159.004 167.25 157.328 167.25H147.172C145.496 167.25 144.125 168.621 144.125 170.297V180.453C144.125 182.129 145.496 183.5 147.172 183.5H157.328C159.004 183.5 160.375 182.129 160.375 180.453ZM184.75 114.438V203.812C184.75 210.541 179.291 216 172.562 216H83.1875C76.459 216 71 210.541 71 203.812V114.438C71 107.709 76.459 102.25 83.1875 102.25H95.375V89.0469C95.375 87.3711 96.7461 86 98.4219 86H108.578C110.254 86 111.625 87.3711 111.625 89.0469V102.25H144.125V89.0469C144.125 87.3711 145.496 86 147.172 86H157.328C159.004 86 160.375 87.3711 160.375 89.0469V102.25H172.562C179.291 102.25 184.75 107.709 184.75 114.438ZM172.562 202.289V126.625H83.1875V202.289C83.1875 203.127 83.873 203.812 84.7109 203.812H171.039C171.877 203.812 172.562 203.127 172.562 202.289Z" fill="url(#paint1_linear)"/>
<defs>
<linearGradient id="paint0_linear" x1="34.0274" y1="123.781" x2="221.031" y2="123.781" gradientUnits="userSpaceOnUse">
<stop stop-color="#A93AFF"/>
<stop offset="1" stop-color="#FF81FF"/>
</linearGradient>
<linearGradient id="paint1_linear" x1="71.0167" y1="149.074" x2="184.769" y2="149.074" gradientUnits="userSpaceOnUse">
<stop stop-color="#A93AFF"/>
<stop offset="1" stop-color="#FF81FF"/>
</linearGradient>
</defs>
</svg>
