<svg width="128" height="128" viewBox="0 0 128 128" fill="none" xmlns="http://www.w3.org/2000/svg">
<path d="M90.7734 26.3906H80.5781V9.39844C80.5781 7.52159 79.0565 6 77.1797 6C75.3028 6 73.7812 7.52159 73.7812 9.39844V26.3906H53.3906V9.39844C53.3906 7.52159 51.869 6 49.9922 6C48.1153 6 46.5938 7.52159 46.5938 9.39844V26.3906H36.3984C34.5216 26.3906 33 27.9122 33 29.7891V52.8932C33 60.8458 36.5616 68.2562 42.7714 73.224C47.3604 76.8953 49.9922 82.371 49.9922 88.2474V90.9609C49.9922 92.8378 51.5138 94.3594 53.3906 94.3594H60.1875V118.602C60.1875 120.478 61.7091 122 63.5859 122C65.4628 122 66.9844 120.478 66.9844 118.602V94.3594H73.7812C75.6581 94.3594 77.1797 92.8378 77.1797 90.9609V88.2474C77.1797 82.3708 79.8114 76.895 84.4002 73.2238C90.6103 68.2558 94.1719 60.8456 94.1719 52.893V29.7891C94.1719 27.9122 92.6503 26.3906 90.7734 26.3906ZM87.375 52.8932C87.375 58.7698 84.7433 64.2456 80.1545 67.9168C74.1229 72.7419 70.5897 79.8705 70.3916 87.5627H56.7802C56.582 79.8705 53.049 72.7419 47.0176 67.9168C42.4286 64.2454 39.7969 58.7696 39.7969 52.8932V33.1875H87.375V52.8932ZM56.7891 56.9766H64.0327L60.7582 61.8884C59.7172 63.4501 60.1392 65.5601 61.7009 66.6012C63.2558 67.6377 65.3678 67.2269 66.4137 65.6584L73.2105 55.4631C73.9056 54.4203 73.9704 53.0795 73.3793 51.9745C72.7878 50.8696 71.6362 50.1797 70.3828 50.1797H63.1392L66.4137 45.2678C67.4547 43.7061 67.0326 41.5961 65.4709 40.5551C63.9095 39.5143 61.7995 39.9361 60.7582 41.4978L53.9613 51.6931C53.2662 52.736 53.2014 54.0768 53.7928 55.1817C54.3841 56.2867 55.5357 56.9766 56.7891 56.9766Z" fill="url(#paint0_linear_679_14)" stroke="url(#paint1_linear_679_14)" stroke-width="3"/>
<defs>
<linearGradient id="paint0_linear_679_14" x1="63.5859" y1="122" x2="63.5859" y2="6" gradientUnits="userSpaceOnUse">
<stop stop-color="#5558FF"/>
<stop offset="1" stop-color="#00C0FF"/>
</linearGradient>
<linearGradient id="paint1_linear_679_14" x1="63.5859" y1="122" x2="63.5859" y2="6" gradientUnits="userSpaceOnUse">
<stop stop-color="#5558FF"/>
<stop offset="1" stop-color="#00C0FF"/>
</linearGradient>
</defs>
</svg>
