<svg width="128" height="128" viewBox="0 0 128 128" fill="none" xmlns="http://www.w3.org/2000/svg">
<path d="M45.3375 98.63L42.7554 101.212C41.4282 102.539 41.4282 104.691 42.7554 106.018C44.0823 107.346 46.2342 107.346 47.5614 106.018L50.1435 103.436C54.1163 106.413 59.0471 108.18 64.3829 108.18C69.7185 108.18 74.6493 106.413 78.6221 103.436L81.2042 106.018C82.5312 107.346 84.6829 107.346 86.0103 106.018C87.3374 104.691 87.3374 102.539 86.0103 101.212L83.4281 98.6298C86.406 94.657 88.1718 89.7264 88.1718 84.3906C88.1718 79.0548 86.406 74.1242 83.4281 70.1512L86.0103 67.5691C87.3374 66.2419 87.3374 64.0902 86.0103 62.763C84.6833 61.436 82.5314 61.4357 81.2042 62.763L78.6221 65.3451C74.6493 62.3674 69.7185 60.6015 64.3829 60.6015C59.0471 60.6015 54.1163 62.3674 50.1435 65.3453L47.5614 62.7632C46.2347 61.4362 44.0829 61.436 42.7554 62.7632C41.4282 64.0904 41.4282 66.2421 42.7554 67.5693L45.3375 70.1514C42.3596 74.1242 40.5938 79.0548 40.5938 84.3906C40.5938 89.7264 42.3596 94.657 45.3375 98.63ZM64.3829 67.3985C73.7523 67.3985 81.375 75.0211 81.375 84.3906C81.375 93.7601 73.7523 101.383 64.3829 101.383C55.0133 101.383 47.3906 93.7601 47.3906 84.3906C47.3906 75.0211 55.0133 67.3985 64.3829 67.3985ZM64.3829 94.5859C70.0045 94.5859 74.5782 90.0123 74.5782 84.3906C74.5782 78.7689 70.0045 74.1953 64.3829 74.1953C58.7611 74.1953 54.1876 78.7689 54.1876 84.3906C54.1876 90.0123 58.7611 94.5859 64.3829 94.5859ZM64.3829 80.9921C66.2567 80.9921 67.7812 82.5168 67.7812 84.3906C67.7812 86.2646 66.2567 87.7891 64.3829 87.7891C62.5089 87.7891 60.9844 86.2646 60.9844 84.3906C60.9844 82.5168 62.5089 80.9921 64.3829 80.9921ZM64.3829 40.2109C66.2597 40.2109 67.7812 38.6893 67.7812 36.8124C67.7812 34.9357 66.2597 33.4141 64.3829 33.4141C62.506 33.4141 60.9844 34.9357 60.9844 36.8124C60.9844 38.6893 62.506 40.2109 64.3829 40.2109ZM47.5614 53.6341C48.8884 54.9611 51.0403 54.9613 52.3676 53.6341L55.0193 50.9824C57.706 52.7639 60.9245 53.8047 64.3829 53.8047C67.8411 53.8047 71.0596 52.7639 73.7467 50.9822L76.3984 53.6339C77.7253 54.9611 79.877 54.9611 81.2044 53.6339C82.5316 52.3067 82.5316 50.155 81.2044 48.8277L78.5527 46.1761C80.3342 43.4893 81.375 40.2708 81.375 36.8124C81.375 33.3542 80.3342 30.1357 78.5525 27.4489L81.2042 24.7973C82.5314 23.47 82.5314 21.3183 81.2042 19.9911C79.8772 18.6641 77.7253 18.6639 76.3981 19.9911L73.7467 22.6428C71.0596 20.8611 67.8411 19.8203 64.3829 19.8203C60.9245 19.8203 57.706 20.8611 55.019 22.6428L52.3673 19.9911C51.0406 18.6641 48.8887 18.6639 47.5612 19.9911C46.234 21.3183 46.234 23.47 47.5612 24.7973L50.2129 27.4489C48.4314 30.1357 47.3906 33.3542 47.3906 36.8124C47.3906 40.2708 48.4314 43.4893 50.2131 46.1761L47.5614 48.8277C46.2342 50.155 46.2342 52.3069 47.5614 53.6341ZM64.3829 26.6171C70.0045 26.6171 74.5782 31.1908 74.5782 36.8124C74.5782 42.4342 70.0045 47.0079 64.3829 47.0079C58.7611 47.0079 54.1876 42.4342 54.1876 36.8124C54.1876 31.1908 58.7611 26.6171 64.3829 26.6171ZM98.3671 6H30.3985C28.5216 6 27 7.52157 27 9.39847V118.602C27 120.479 28.5216 122 30.3985 122H98.3671C100.244 122 101.766 120.479 101.766 118.602V9.39847C101.766 7.52157 100.244 6 98.3671 6ZM94.9688 115.203H33.7968V12.7968H94.9688V115.203Z" fill="url(#paint0_linear_644_139)" stroke="url(#paint1_linear_644_139)" stroke-width="2"/>
<defs>
<linearGradient id="paint0_linear_644_139" x1="64.3829" y1="122" x2="64.3829" y2="6" gradientUnits="userSpaceOnUse">
<stop stop-color="#6C00BF"/>
<stop offset="1" stop-color="#FF00FF"/>
</linearGradient>
<linearGradient id="paint1_linear_644_139" x1="64.3829" y1="122" x2="64.3829" y2="6" gradientUnits="userSpaceOnUse">
<stop stop-color="#6C00BF"/>
<stop offset="1" stop-color="#FF00FF"/>
</linearGradient>
</defs>
</svg>
