<svg width="128" height="128" viewBox="0 0 128 128" fill="none" xmlns="http://www.w3.org/2000/svg">
<path fill-rule="evenodd" clip-rule="evenodd" d="M104.849 15.9425C107.642 14.1596 111.352 14.9786 113.135 17.7718C121.694 31.182 127 44.248 127 64.0769C127 83.8781 121.712 97.2308 113.103 110.431C111.293 113.207 107.575 113.99 104.8 112.18C102.024 110.369 101.241 106.652 103.051 103.876C110.596 92.3077 115 81.1981 115 64.0769C115 46.9836 110.614 36.1257 103.02 24.2282C101.237 21.435 102.056 17.7254 104.849 15.9425ZM100.335 30.8982C98.6649 28.0364 94.9907 27.0708 92.1289 28.7414C89.2671 30.412 88.3015 34.0863 89.9721 36.948C94.9844 45.5341 97.7692 52.5163 97.7692 64.077C97.7692 75.6089 94.8642 82.6872 89.9508 91.2428C88.3005 94.1163 89.2922 97.7836 92.1657 99.4338C95.0393 101.084 98.7066 100.092 100.357 97.2189C105.933 87.5098 109.769 78.3588 109.769 64.077C109.769 49.8238 106.092 40.7598 100.335 30.8982ZM87.5744 44.1171C86.0672 41.166 82.453 39.9955 79.5019 41.5027C76.5508 43.0099 75.3803 46.6241 76.8875 49.5752C79.2155 54.1334 80.5387 58.8417 80.5387 64.0769C80.5387 69.2045 79.1569 74.0629 76.8699 78.6133C75.3819 81.5742 76.5758 85.1807 79.5366 86.6687C82.4974 88.1568 86.1039 86.9628 87.592 84.002C90.5496 78.1171 92.5387 71.4201 92.5387 64.0769C92.5387 56.669 90.631 50.102 87.5744 44.1171ZM66.7299 15.8998C65.3462 15.2015 63.796 14.9001 62.2514 15.0292C60.7067 15.1582 59.2281 15.7127 57.9794 16.6311C57.8958 16.6926 57.8138 16.7563 57.7335 16.8221L30.7836 38.887H10.3891C8.16421 38.887 6.03039 39.7708 4.45712 41.3441C2.88385 42.9174 2 45.0512 2 47.2761V80.7239C2 82.9489 2.88385 85.0827 4.45712 86.6559C6.03039 88.2292 8.16421 89.1131 10.3891 89.1131H30.7836L57.7335 111.178C57.8138 111.244 57.8958 111.307 57.9794 111.369C59.2281 112.287 60.7067 112.842 62.2514 112.971C63.796 113.1 65.3462 112.799 66.7299 112.1C68.1136 111.402 69.2769 110.334 70.0905 109.014C70.9041 107.695 71.3363 106.176 71.3391 104.626L71.3391 104.615L71.3391 23.3848L71.3391 23.3739C71.3363 21.8239 70.9041 20.3049 70.0905 18.9857C69.2769 17.6663 68.1137 16.5982 66.7299 15.8998ZM38.0467 48.4493L59.3391 31.0164V96.9836L38.0187 79.5278L37.9892 79.5038C36.0597 77.9444 33.6508 77.1 31.1706 77.1131H14V50.887H31.2766C33.7505 50.8989 36.1487 50.0353 38.0467 48.4493Z" fill="url(#paint0_linear)"/>
<defs>
<linearGradient id="paint0_linear" x1="64.5001" y1="113.155" x2="64.5001" y2="14.9993" gradientUnits="userSpaceOnUse">
<stop stop-color="#00B59C"/>
<stop offset="1" stop-color="#9CFFAC"/>
</linearGradient>
</defs>
</svg>
