<svg width="128" height="128" viewBox="0 0 128 128" fill="none" xmlns="http://www.w3.org/2000/svg">
<path d="M70.7813 53.9377C72.5906 53.9377 74.0625 55.4096 74.0625 57.2189C74.0625 59.0311 75.5317 60.5002 77.3438 60.5002C79.1559 60.5002 80.625 59.0311 80.625 57.2189C80.625 51.7911 76.2091 47.3751 70.7813 47.3751C68.9691 47.3751 67.5 48.8443 67.5 50.6564C67.5 52.4685 68.9689 53.9377 70.7813 53.9377ZM70.7813 40.8126C79.8277 40.8126 87.1876 48.1725 87.1876 57.2189C87.1876 59.0311 88.6567 60.5002 90.4688 60.5002C92.281 60.5002 93.7501 59.0311 93.7501 57.2189C93.7501 44.5539 83.4463 34.2501 70.7813 34.2501C68.9691 34.2501 67.5 35.7192 67.5 37.5314C67.5 39.3435 68.9689 40.8126 70.7813 40.8126ZM70.7813 21.125C68.9691 21.125 67.5 22.5942 67.5 24.4063C67.5 26.2184 68.9691 27.6876 70.7813 27.6876C87.0649 27.6876 100.313 40.9353 100.313 57.2189C100.313 59.0311 101.782 60.5002 103.594 60.5002C105.406 60.5002 106.875 59.0311 106.875 57.2189C106.875 37.3168 90.6834 21.125 70.7813 21.125ZM70.7813 8C68.9691 8 67.5 9.46913 67.5 11.2813C67.5 13.0934 68.9691 14.5625 70.7813 14.5625C94.302 14.5625 113.438 33.6982 113.438 57.2189C113.438 59.0311 114.907 60.5002 116.719 60.5002C118.531 60.5002 120 59.0311 120 57.2189C120 30.0796 97.9206 8 70.7813 8ZM97.1727 93.0628L80.4673 81.9257C76.5766 79.3322 71.3529 79.8491 68.0464 83.1558L63.6511 87.5511C61.0711 87.1771 54.9393 85.6423 48.6485 79.3517C42.3577 73.0609 40.8231 66.9293 40.4491 64.3491L44.8444 59.9537C48.1508 56.6471 48.668 51.4233 46.0742 47.5326L34.9372 30.8273C33.2948 28.3637 30.663 26.7835 27.7167 26.4917C24.7694 26.1998 21.8795 27.2334 19.7863 29.3271L12.8235 36.2895C9.50567 39.6075 7.75763 44.1385 8.02713 48.7209C8.55214 57.6461 12.4179 75.6036 32.4071 95.5928C52.3964 115.582 70.354 119.448 79.2791 119.973C83.8578 120.242 88.39 118.496 91.7105 115.176L98.6729 108.214C100.767 106.12 101.8 103.229 101.508 100.283C101.216 97.3369 99.6362 94.7052 97.1727 93.0628ZM94.0325 103.574L87.0701 110.536C85.0766 112.529 82.3783 113.581 79.6645 113.422C71.6696 112.951 55.5017 109.407 37.0475 90.9525C18.5932 72.4982 15.0488 56.3304 14.5783 48.3355C14.4188 45.6227 15.4706 42.9233 17.4638 40.9299L24.4264 33.9675C25.8921 32.5021 28.3294 32.7462 29.4767 34.4675L40.6138 51.1729C41.4785 52.4698 41.3061 54.2111 40.2038 55.3134L34.7272 60.7898C34.1119 61.4052 33.766 62.2397 33.766 63.1101C33.766 63.5445 33.8824 73.8665 44.0079 83.9918C54.1332 94.1174 64.4552 94.2337 64.8897 94.2337C65.7601 94.2337 66.5944 93.8879 67.2099 93.2726L72.6864 87.7959C73.7884 86.6936 75.5297 86.5213 76.8269 87.386L93.5322 98.5228C95.2538 99.6706 95.4981 102.108 94.0325 103.574Z" fill="url(#paint0_linear_616_113)"/>
<defs>
<linearGradient id="paint0_linear_616_113" x1="53.5" y1="80.5" x2="91" y2="40.5" gradientUnits="userSpaceOnUse">
<stop stop-color="#9000FF"/>
<stop offset="1" stop-color="#FF81FF"/>
</linearGradient>
</defs>
</svg>
