<svg width="128" height="128" viewBox="0 0 128 128" fill="none" xmlns="http://www.w3.org/2000/svg">
<path d="M116.719 34.125H98.8377L93.1852 22.8137C92.6276 21.7018 91.4934 21 90.25 21H64C62.7566 21 61.6224 21.7018 61.0648 22.8137L55.4123 34.125H27.6875V30.8438C27.6875 29.0301 26.2199 27.5625 24.4062 27.5625C22.5926 27.5625 21.125 29.0301 21.125 30.8438V34.125H11.2812C9.46759 34.125 8 35.5926 8 37.4062V103.031C8 104.845 9.46759 106.312 11.2812 106.312H116.719C118.532 106.312 120 104.845 120 103.031V37.4062C120 35.5926 118.532 34.125 116.719 34.125ZM14.5625 53.8125H30.9688C32.7761 53.8125 34.25 55.2834 34.25 57.0938V83.3438C34.25 85.1541 32.7761 86.625 30.9688 86.625H14.5625V53.8125ZM113.438 99.75H77.125H14.5625V93.1875H30.9688C36.3968 93.1875 40.8125 88.7718 40.8125 83.3438V57.0938C40.8125 51.6657 36.3968 47.25 30.9688 47.25H14.5625V40.6875H57.4375C58.6809 40.6875 59.8151 39.9857 60.3727 38.8738L66.0252 27.5625H88.2248L93.8773 38.8738C94.4349 39.9857 95.5691 40.6875 96.8125 40.6875H113.438V99.75ZM106.656 70.2188C106.656 53.9343 93.4094 40.6875 77.125 40.6875C60.8406 40.6875 47.5938 53.9343 47.5938 70.2188C47.5938 86.5032 60.8406 99.75 77.125 99.75C93.4094 99.75 106.656 86.5032 106.656 70.2188ZM77.125 93.1875C64.4613 93.1875 54.1562 82.8824 54.1562 70.2188C54.1562 57.5551 64.4613 47.25 77.125 47.25C89.7887 47.25 100.094 57.5551 100.094 70.2188C100.094 82.8824 89.7887 93.1875 77.125 93.1875ZM77.125 53.8125C68.076 53.8125 60.7188 61.1728 60.7188 70.2188C60.7188 79.2647 68.076 86.625 77.125 86.625C86.174 86.625 93.5312 79.2647 93.5312 70.2188C93.5312 61.1728 86.174 53.8125 77.125 53.8125ZM77.125 80.0625C71.6969 80.0625 67.2812 75.6468 67.2812 70.2188C67.2812 64.7907 71.6969 60.375 77.125 60.375C82.5531 60.375 86.9688 64.7907 86.9688 70.2188C86.9688 75.6468 82.5531 80.0625 77.125 80.0625Z" fill="url(#paint0_linear_644_137)"/>
<path d="M77.125 99.75H113.438V40.6875H96.8125C95.5691 40.6875 94.4349 39.9857 93.8773 38.8738L88.2248 27.5625H66.0252L60.3727 38.8738C59.8151 39.9857 58.6809 40.6875 57.4375 40.6875H14.5625V47.25H30.9688C36.3968 47.25 40.8125 51.6657 40.8125 57.0938V83.3438C40.8125 88.7718 36.3968 93.1875 30.9688 93.1875H14.5625V99.75H77.125ZM77.125 99.75C60.8406 99.75 47.5938 86.5032 47.5938 70.2188C47.5938 53.9343 60.8406 40.6875 77.125 40.6875C93.4094 40.6875 106.656 53.9343 106.656 70.2188C106.656 86.5032 93.4094 99.75 77.125 99.75ZM116.719 34.125H98.8377L93.1852 22.8137C92.6276 21.7018 91.4934 21 90.25 21H64C62.7566 21 61.6224 21.7018 61.0648 22.8137L55.4123 34.125H27.6875V30.8438C27.6875 29.0301 26.2199 27.5625 24.4062 27.5625C22.5926 27.5625 21.125 29.0301 21.125 30.8438V34.125H11.2812C9.46759 34.125 8 35.5926 8 37.4062V103.031C8 104.845 9.46759 106.312 11.2812 106.312H116.719C118.532 106.312 120 104.845 120 103.031V37.4062C120 35.5926 118.532 34.125 116.719 34.125ZM14.5625 53.8125H30.9688C32.7761 53.8125 34.25 55.2834 34.25 57.0938V83.3438C34.25 85.1541 32.7761 86.625 30.9688 86.625H14.5625V53.8125ZM77.125 93.1875C64.4613 93.1875 54.1562 82.8824 54.1562 70.2188C54.1562 57.5551 64.4613 47.25 77.125 47.25C89.7887 47.25 100.094 57.5551 100.094 70.2188C100.094 82.8824 89.7887 93.1875 77.125 93.1875ZM77.125 53.8125C68.076 53.8125 60.7188 61.1728 60.7188 70.2188C60.7188 79.2647 68.076 86.625 77.125 86.625C86.174 86.625 93.5312 79.2647 93.5312 70.2188C93.5312 61.1728 86.174 53.8125 77.125 53.8125ZM77.125 80.0625C71.6969 80.0625 67.2812 75.6468 67.2812 70.2188C67.2812 64.7907 71.6969 60.375 77.125 60.375C82.5531 60.375 86.9688 64.7907 86.9688 70.2188C86.9688 75.6468 82.5531 80.0625 77.125 80.0625Z" stroke="url(#paint1_linear_644_137)" stroke-width="3"/>
<defs>
<linearGradient id="paint0_linear_644_137" x1="96.5" y1="75.5" x2="27.5" y2="77.5" gradientUnits="userSpaceOnUse">
<stop stop-color="#FD1E00"/>
<stop offset="1" stop-color="#FFDE00"/>
</linearGradient>
<linearGradient id="paint1_linear_644_137" x1="96.5" y1="75.5" x2="27.5" y2="77.5" gradientUnits="userSpaceOnUse">
<stop stop-color="#FD1E00"/>
<stop offset="1" stop-color="#FFDE00"/>
</linearGradient>
</defs>
</svg>
