<svg width="128" height="128" viewBox="0 0 128 128" fill="none" xmlns="http://www.w3.org/2000/svg">
<path d="M104.227 50.7273C113.265 50.7273 120.591 43.401 120.591 34.3636C120.591 25.3262 113.265 18 104.227 18C95.1898 18 87.8635 25.3262 87.8635 34.3636C87.8635 43.401 95.1898 50.7273 104.227 50.7273Z" fill="url(#paint0_linear)"/>
<path fill-rule="evenodd" clip-rule="evenodd" d="M24.3409 47.1588C24.3409 46.0542 25.2363 45.1588 26.3409 45.1588H81.2861C82.8629 45.1588 83.8453 43.399 83.1864 41.9665C81.8321 39.0219 81.0144 35.854 80.777 32.6129C80.6963 31.5108 79.8083 30.6133 78.7032 30.6133H18.8863C17.4074 30.6515 16.0036 31.2733 14.9816 32.343C13.9596 33.4127 13.4025 34.8433 13.4318 36.3224V94.0679C13.4318 95.1725 14.3272 96.0679 15.4318 96.0679H22.3409C23.4454 96.0679 24.3409 95.1725 24.3409 94.0679V47.1588ZM115.25 59.5209C115.25 58.1919 113.975 57.2333 112.667 57.4667C110.68 57.8211 108.658 57.9428 106.643 57.8289C105.425 57.7601 104.341 58.6902 104.341 59.9102V94.0684C104.341 95.1729 105.236 96.0684 106.341 96.0684H113.25C114.354 96.0684 115.25 95.1729 115.25 94.0684V59.5209ZM4 104.25C4 107.25 6.45455 109.704 9.45455 109.704H118.545C121.545 109.704 124 107.25 124 104.25C124 101.25 121.545 98.7949 118.545 98.7949H9.45455C6.45455 98.7949 4 101.25 4 104.25Z" fill="url(#paint1_linear)"/>
<defs>
<linearGradient id="paint0_linear" x1="104.227" y1="50.7273" x2="104.227" y2="18" gradientUnits="userSpaceOnUse">
<stop stop-color="#FD2E00"/>
<stop offset="1" stop-color="#FF9900"/>
</linearGradient>
<linearGradient id="paint1_linear" x1="64" y1="109.704" x2="95.5" y2="41.5" gradientUnits="userSpaceOnUse">
<stop stop-color="#FD5900"/>
<stop offset="1" stop-color="#FFDE00"/>
</linearGradient>
</defs>
</svg>
