<svg width="128" height="128" viewBox="0 0 128 128" fill="none" xmlns="http://www.w3.org/2000/svg">
<path d="M49 82.75H79C81.071 82.75 82.75 81.071 82.75 79V49C82.75 46.929 81.071 45.25 79 45.25H49C46.929 45.25 45.25 46.929 45.25 49V79C45.25 81.071 46.929 82.75 49 82.75ZM52.75 52.75H75.25V75.25H52.75V52.75ZM109.25 60.25H124.25C126.321 60.25 128 58.571 128 56.5V41.5C128 39.429 126.321 37.75 124.25 37.75H109.25C107.179 37.75 105.5 39.429 105.5 41.5V45.25H97.75V34C97.75 31.929 96.071 30.25 94 30.25H82.75V22.5H86.5C88.571 22.5 90.25 20.821 90.25 18.75V3.75C90.25 1.679 88.571 0 86.5 0H71.5C69.429 0 67.75 1.679 67.75 3.75V18.75C67.75 20.821 69.429 22.5 71.5 22.5H75.25V30.25H52.75V22.5H56.5C58.571 22.5 60.25 20.821 60.25 18.75V3.75C60.25 1.679 58.571 0 56.5 0H41.5C39.429 0 37.75 1.679 37.75 3.75V18.75C37.75 20.821 39.429 22.5 41.5 22.5H45.25V30.25H34C31.929 30.25 30.25 31.929 30.25 34V45.25H22.5V41.5C22.5 39.429 20.821 37.75 18.75 37.75H3.75C1.679 37.75 0 39.429 0 41.5V56.5C0 58.571 1.679 60.25 3.75 60.25H18.75C20.821 60.25 22.5 58.571 22.5 56.5V52.75H30.25V75.25H22.5V71.5C22.5 69.429 20.821 67.75 18.75 67.75H3.75C1.679 67.75 0 69.429 0 71.5V86.5C0 88.571 1.679 90.25 3.75 90.25H18.75C20.821 90.25 22.5 88.571 22.5 86.5V82.75H30.25V94C30.25 96.071 31.929 97.75 34 97.75H45.25V105.5H41.5C39.429 105.5 37.75 107.179 37.75 109.25V124.25C37.75 126.321 39.429 128 41.5 128H56.5C58.571 128 60.25 126.321 60.25 124.25V109.25C60.25 107.179 58.571 105.5 56.5 105.5H52.75V97.75H75.25V105.5H71.5C69.429 105.5 67.75 107.179 67.75 109.25V124.25C67.75 126.321 69.429 128 71.5 128H86.5C88.571 128 90.25 126.321 90.25 124.25V109.25C90.25 107.179 88.571 105.5 86.5 105.5H82.75V97.75H94C96.071 97.75 97.75 96.071 97.75 94V82.75H105.5V86.5C105.5 88.571 107.179 90.25 109.25 90.25H124.25C126.321 90.25 128 88.571 128 86.5V71.5C128 69.429 126.321 67.75 124.25 67.75H109.25C107.179 67.75 105.5 69.429 105.5 71.5V75.25H97.75V52.75H105.5V56.5C105.5 58.571 107.179 60.25 109.25 60.25ZM113 45.25H120.5V52.75H113V45.25ZM15 52.75H7.5V45.25H15V52.75ZM15 82.75H7.5V75.25H15V82.75ZM75.25 7.5H82.75V15H75.25V7.5ZM45.25 7.5H52.75V15H45.25V7.5ZM52.75 120.5H45.25V113H52.75V120.5ZM82.75 120.5H75.25V113H82.75V120.5ZM90.25 90.25H37.75V37.75H90.25V90.25ZM113 75.25H120.5V82.75H113V75.25Z" fill="url(#paint0_linear)"/>
<defs>
<linearGradient id="paint0_linear" x1="23.2" y1="112.889" x2="138.625" y2="12.178" gradientUnits="userSpaceOnUse">
<stop stop-color="#FE0844"/>
<stop offset="1" stop-color="#FEB302"/>
</linearGradient>
</defs>
</svg>
