<svg width="128" height="128" viewBox="0 0 128 128" fill="none" xmlns="http://www.w3.org/2000/svg">
<path d="M50.4062 108.406H77.5938C79.4722 108.406 80.9922 106.886 80.9922 105.008C80.9922 103.129 79.4722 101.609 77.5938 101.609H50.4062C48.5278 101.609 47.0078 103.129 47.0078 105.008C47.0078 106.886 48.5278 108.406 50.4062 108.406ZM50.4062 94.8125H77.5938C79.4722 94.8125 80.9922 93.2925 80.9922 91.4141C80.9922 89.5356 79.4722 88.0156 77.5938 88.0156H50.4062C48.5278 88.0156 47.0078 89.5356 47.0078 91.4141C47.0078 93.2925 48.5278 94.8125 50.4062 94.8125ZM77.5938 54.0312H84.3906C86.2691 54.0312 87.7891 52.5112 87.7891 50.6328C87.7891 48.7544 86.2691 47.2344 84.3906 47.2344H77.5938C75.7153 47.2344 74.1953 48.7544 74.1953 50.6328C74.1953 52.5112 75.7153 54.0312 77.5938 54.0312ZM118.602 33.6406H94.5859V9.39844C94.5859 7.52001 93.0659 6 91.1875 6H36.8125C34.9341 6 33.4141 7.52001 33.4141 9.39844V33.6406H9.39844C7.52001 33.6406 6 35.1606 6 37.0391V84.6172C6 86.4956 7.52001 88.0156 9.39844 88.0156H33.4141V118.602C33.4141 120.48 34.9341 122 36.8125 122H91.1875C93.0659 122 94.5859 120.48 94.5859 118.602V88.0156H118.602C120.48 88.0156 122 86.4956 122 84.6172V37.0391C122 35.1606 120.48 33.6406 118.602 33.6406ZM40.2109 12.7969H87.7891V33.6406H40.2109V12.7969ZM87.7891 115.203H40.2109V81.2188H87.7891V115.203ZM115.203 81.2188H94.5859V77.8203C94.5859 75.9419 93.0659 74.4219 91.1875 74.4219H36.8125C34.9341 74.4219 33.4141 75.9419 33.4141 77.8203V81.2188H12.7969V40.4375H115.203V81.2188ZM30.0156 67.625C35.6375 67.625 40.2109 63.0516 40.2109 57.4297C40.2109 51.8078 35.6375 47.2344 30.0156 47.2344C24.3937 47.2344 19.8203 51.8078 19.8203 57.4297C19.8203 63.0516 24.3937 67.625 30.0156 67.625ZM30.0156 54.0312C31.8907 54.0312 33.4141 55.5547 33.4141 57.4297C33.4141 59.3047 31.8907 60.8281 30.0156 60.8281C28.1406 60.8281 26.6172 59.3047 26.6172 57.4297C26.6172 55.5547 28.1406 54.0312 30.0156 54.0312ZM97.9844 54.0312H104.781C106.66 54.0312 108.18 52.5112 108.18 50.6328C108.18 48.7544 106.66 47.2344 104.781 47.2344H97.9844C96.1059 47.2344 94.5859 48.7544 94.5859 50.6328C94.5859 52.5112 96.1059 54.0312 97.9844 54.0312Z" fill="url(#paint0_linear_679_40)" stroke="url(#paint1_linear_679_40)" stroke-width="3"/>
<defs>
<linearGradient id="paint0_linear_679_40" x1="64" y1="122" x2="64" y2="6" gradientUnits="userSpaceOnUse">
<stop stop-color="#5558FF"/>
<stop offset="1" stop-color="#00C0FF"/>
</linearGradient>
<linearGradient id="paint1_linear_679_40" x1="64" y1="122" x2="64" y2="6" gradientUnits="userSpaceOnUse">
<stop stop-color="#5558FF"/>
<stop offset="1" stop-color="#00C0FF"/>
</linearGradient>
</defs>
</svg>
