<svg width="128" height="128" viewBox="0 0 128 128" fill="none" xmlns="http://www.w3.org/2000/svg">
<path fill-rule="evenodd" clip-rule="evenodd" d="M37.6667 42.7879C37.6667 44.1937 36.527 45.3333 35.1212 45.3333H29.5455C28.1397 45.3333 27 46.473 27 47.8788V104C27 108.244 28.6857 112.313 31.6863 115.314C34.6869 118.314 38.7565 120 43 120H85.6666C89.9099 120 93.9796 118.314 96.9801 115.314C99.9807 112.313 101.667 108.244 101.667 104V47.8788C101.667 46.473 100.527 45.3333 99.1214 45.3333H93.5453C92.1397 45.3333 90.9999 44.1937 90.9999 42.7879V10.5455C90.9999 9.13965 89.8605 8 88.4544 8H40.2121C38.8063 8 37.6667 9.13965 37.6667 10.5455V42.7879ZM50.8788 18.6667C49.473 18.6667 48.3334 19.8063 48.3334 21.2121V42.7879C48.3334 44.1937 49.473 45.3333 50.8788 45.3333H77.7879C79.1935 45.3333 80.3334 44.1937 80.3334 42.7879V21.2121C80.3334 19.8063 79.1935 18.6667 77.7879 18.6667H50.8788ZM88.4544 56.0001C89.8605 56.0001 90.9999 57.1395 90.9999 58.5456V104C90.9999 105.415 90.4383 106.771 89.438 107.771C88.4376 108.771 87.0814 109.334 85.6666 109.334H43C41.5855 109.334 40.229 108.771 39.2288 107.771C38.2286 106.771 37.6667 105.415 37.6667 104V58.5456C37.6667 57.1395 38.8063 56.0001 40.2121 56.0001H88.4544ZM53.6667 25.0183C53.6667 24.456 54.1223 24.0001 54.6849 24.0001H57.9817C58.5443 24.0001 58.9999 24.456 58.9999 25.0183V33.6486C58.9999 34.211 58.5443 34.6668 57.9817 34.6668H54.6849C54.1223 34.6668 53.6667 34.211 53.6667 33.6486V25.0183ZM75.0001 25.0183C75.0001 24.456 74.544 24.0001 73.982 24.0001H70.6851C70.1225 24.0001 69.6669 24.456 69.6669 25.0183V33.6486C69.6669 34.211 70.1225 34.6668 70.6851 34.6668H73.982C74.544 34.6668 75.0001 34.211 75.0001 33.6486V25.0183Z" fill="url(#paint0_linear_616_43)"/>
<defs>
<linearGradient id="paint0_linear_616_43" x1="56.5" y1="95" x2="64" y2="24.5" gradientUnits="userSpaceOnUse">
<stop stop-color="#FD0F00"/>
<stop offset="1" stop-color="#FFE539"/>
</linearGradient>
</defs>
</svg>
