<svg id="Capa_1" enable-background="new 0 0 511.987 511.987" height="512" viewBox="0 0 511.987 511.987" width="512" xmlns="http://www.w3.org/2000/svg" xmlns:xlink="http://www.w3.org/1999/xlink"><linearGradient id="SVGID_1_" gradientUnits="userSpaceOnUse" x1="255.994" x2="255.994" y1="496.219" y2="15.768"><stop offset="0" stop-color="#a93aff"/><stop offset="1" stop-color="#ff81ff"/></linearGradient><g><g><path d="m493.674 351.153c21.497-79.711 1.338-163.707-54.038-224.98 3.347-7.491 4.708-15.736 3.622-24.071-1.553-11.924-7.646-22.529-17.183-29.854-97.881-75.293-239.466-75.322-337.318 0-16.112 12.375-22.323 34.317-13.559 53.919-54.906 60.763-75.202 144.019-54.502 223.186-17.287 11.12-25.311 33.074-17.985 53.174l20.522 56.382c8.492 23.3 34.221 35.44 57.671 26.895l16.879-6.141c4.202 5.085 9.207 9.452 15.363 12.323 10.616 4.935 22.827 5.715 34.409 1.494 11.294-4.116 20.303-12.378 25.386-23.262 5.083-10.898 5.61-23.115 1.494-34.409l-41.03-112.764c-4.116-11.294-12.378-20.317-23.276-25.4-10.898-5.068-23.115-5.625-34.395-1.494-11.294 4.116-20.317 12.378-25.4 23.262-1.71 3.669-2.712 7.509-3.387 11.391-13.453-65.391 4.574-132.786 49.158-183.067 17.828 8.972 35.209 5.361 47.525-4.149 65.566-50.479 162.005-50.479 227.572 0 13.673 10.529 32.492 11.389 47.51 4.135 46.494 52.394 63.918 123.272 47.183 191.131l-.143-.051c.061-6.614-1.187-13.213-4.067-19.389-5.083-10.884-14.106-19.146-25.4-23.262-11.294-4.087-23.511-3.574-34.409 1.494-10.884 5.083-19.146 14.106-23.262 25.4l-41.045 112.764c-4.116 11.294-3.589 23.511 1.494 34.409 7.75 16.594 24.154 26.001 40.811 26.001 6.489 0 12.949-1.421 18.999-4.233 6.149-2.871 11.149-7.238 15.35-12.323l16.877 6.141c23.098 8.418 49.082-3.243 57.671-26.895l20.522-56.382c6.968-19.119-.052-39.815-15.619-51.375zm-407.671-26.819c7.897-2.84 16.396 1.248 19.219 8.965l41.03 112.764c2.803 7.747-1.113 16.361-8.965 19.233 0 0 0 0-.015 0-8.034 2.899-16.444-1.379-19.219-8.965l-41.03-112.764c-2.817-7.784 1.146-16.379 8.98-19.233zm-32.036 43.579 30.776 84.58-14.092 5.127c-7.778 2.783-16.406-1.201-19.233-8.965l-20.522-56.382c-2.803-7.747 1.113-16.361 8.965-19.233zm356.551-250.84c-4.878 6.343-14.634 7.661-21.035 2.725-76.304-58.74-187.801-58.74-264.164.029-6.647 5.108-16.034 3.716-21.006-2.754-5.107-6.636-3.773-16.041 2.725-21.035 43.564-33.516 96.757-50.273 148.949-50.273s108.242 16.758 151.806 50.273c6.507 5 7.826 14.408 2.725 21.035zm-16.568 339.258c-2.854 7.802-11.408 11.766-19.233 8.965-7.861-2.875-11.765-11.495-8.965-19.233l41.045-112.764c2.796-7.643 11.214-11.824 19.233-8.965 7.861 2.875 11.765 11.495 8.965 19.233zm87.159-64.058-20.537 56.382c-2.815 7.78-11.319 11.768-19.204 8.965l-14.092-5.127 30.776-84.58 13.48 4.905c.069.024.115.081.186.104.061.02.122.011.182.029l.243.088c7.862 2.876 11.766 11.496 8.966 19.234z" fill="url(#SVGID_1_)"/></g></g></svg>