<svg width="192" height="192" viewBox="0 0 192 192" fill="none" xmlns="http://www.w3.org/2000/svg">
<path d="M31.0209 27.5C25.4936 27.5 21.0128 33.2364 21.0128 40.3125V137.688C21.0128 144.764 25.4936 150.5 31.0209 150.5H69.7552C75.2781 150.5 79.7552 154.977 79.7552 160.5V161C79.7552 166.523 75.2781 171 69.7552 171H31.0209C16.6499 171 5 156.085 5 137.688V40.3125C5 21.9145 16.6499 7 31.0209 7H160.979C175.35 7 187 21.9145 187 40.3125V80.9936C187 85.4154 183.415 89 178.994 89C174.572 89 170.987 85.4154 170.987 80.9936V40.3125C170.987 33.2363 166.506 27.5 160.979 27.5H31.0209Z" fill="url(#paint0_linear)"/>
<path d="M171.284 98.3874L171.28 98.3874C169.227 98.3948 167.207 98.8716 165.373 99.7762C164.199 98.1679 162.686 96.8314 160.937 95.8636C158.915 94.7445 156.643 94.1547 154.331 94.1487L154.325 94.1487C152.271 94.1561 150.25 94.6334 148.416 95.5388C146.772 93.3031 144.483 91.6123 141.846 90.701C139.355 89.84 136.678 89.7181 134.135 90.3344V69.7162C134.135 66.0785 132.69 62.5897 130.118 60.0174C127.545 57.4451 124.057 56 120.419 56C116.781 56 113.292 57.4451 110.72 60.0174C108.148 62.5897 106.703 66.0785 106.703 69.7162V114.874L98.8304 109.509C96.4936 107.774 93.6562 106.846 90.7458 106.865C88.0268 106.859 85.3674 107.661 83.1053 109.17C80.8421 110.68 79.0788 112.828 78.0398 115.343C77.0008 117.857 76.7329 120.623 77.2702 123.29C77.8075 125.957 79.1257 128.404 81.0573 130.32L81.0721 130.334L81.0874 130.348L114.997 161.291L115.005 161.298C119.989 165.759 126.447 168.22 133.137 168.207H154.329C162.463 168.207 170.265 164.976 176.017 159.224C181.769 153.472 185 145.671 185 137.536V112.104C185 108.466 183.555 104.977 180.983 102.405C178.41 99.8325 174.922 98.3874 171.284 98.3874ZM133.135 157.73L133.123 157.73C129.087 157.779 125.17 156.362 122.099 153.742L88.4328 122.829C87.8445 122.227 87.513 121.421 87.5089 120.579C87.5093 119.978 87.6767 119.389 87.9926 118.878C88.3088 118.367 88.7612 117.953 89.2992 117.684C89.8372 117.415 90.4394 117.301 91.0385 117.356C91.6375 117.41 92.2097 117.629 92.6909 117.99L92.708 118.003L92.7256 118.015L112.484 131.554C114.475 132.918 117.18 131.492 117.18 129.079V69.7162C117.18 68.8573 117.521 68.0335 118.129 67.4261C118.736 66.8187 119.56 66.4775 120.419 66.4775C121.278 66.4775 122.102 66.8187 122.709 67.4261C123.316 68.0335 123.658 68.8573 123.658 69.7162V114.342C123.658 115.999 125.001 117.342 126.658 117.342H131.135C132.792 117.342 134.135 115.999 134.135 114.342V103.626C134.135 102.767 134.476 101.943 135.084 101.336C135.691 100.729 136.515 100.387 137.374 100.387C138.233 100.387 139.057 100.729 139.664 101.336C140.271 101.943 140.613 102.767 140.613 103.626V114.342C140.613 115.999 141.956 117.342 143.613 117.342H148.09C149.747 117.342 151.09 115.999 151.09 114.342V107.865C151.09 107.006 151.431 106.182 152.039 105.575C152.646 104.967 153.47 104.626 154.329 104.626C155.188 104.626 156.012 104.967 156.619 105.575C157.226 106.182 157.568 107.006 157.568 107.865V114.342C157.568 115.999 158.911 117.342 160.568 117.342H165.045C166.702 117.342 168.045 115.999 168.045 114.342V112.104C168.045 111.245 168.386 110.421 168.994 109.814C169.601 109.206 170.425 108.865 171.284 108.865C172.143 108.865 172.967 109.206 173.574 109.814C174.181 110.421 174.523 111.245 174.523 112.104V137.536C174.523 142.892 172.395 148.028 168.608 151.815C164.821 155.602 159.684 157.73 154.329 157.73L133.135 157.73Z" fill="url(#paint1_linear)" stroke="url(#paint2_linear)" stroke-width="2"/>
<path d="M147.715 62.0134C148.029 64.2 146.209 66 144 66V66C141.791 66 140.04 64.1916 139.601 62.0265C138.826 58.2026 136.942 54.6579 134.142 51.8579C130.391 48.1071 125.304 46 120 46C114.696 46 109.609 48.1071 105.858 51.8579C103.058 54.6579 101.174 58.2026 100.399 62.0265C99.9597 64.1916 98.2091 66 96 66V66C93.7909 66 91.9706 64.2 92.2851 62.0134C93.1413 56.0612 95.8988 50.5032 100.201 46.201C105.452 40.95 112.574 38 120 38C127.426 38 134.548 40.95 139.799 46.201C144.101 50.5032 146.859 56.0612 147.715 62.0134Z" fill="url(#paint3_linear)"/>
<defs>
<linearGradient id="paint0_linear" x1="31.6534" y1="146.983" x2="146.993" y2="18.9842" gradientUnits="userSpaceOnUse">
<stop stop-color="#0072FF"/>
<stop offset="1" stop-color="#00E5A1"/>
</linearGradient>
<linearGradient id="paint1_linear" x1="131" y1="167.207" x2="131" y2="57" gradientUnits="userSpaceOnUse">
<stop stop-color="#00B59C"/>
<stop offset="1" stop-color="#9CFFAC"/>
</linearGradient>
<linearGradient id="paint2_linear" x1="131" y1="167.207" x2="131" y2="57" gradientUnits="userSpaceOnUse">
<stop stop-color="#00B59C"/>
<stop offset="1" stop-color="#9CFFAC"/>
</linearGradient>
<linearGradient id="paint3_linear" x1="120" y1="66" x2="120" y2="38" gradientUnits="userSpaceOnUse">
<stop stop-color="#00B59C"/>
<stop offset="1" stop-color="#9CFFAC"/>
</linearGradient>
</defs>
</svg>
