<svg width="128" height="128" viewBox="0 0 128 128" fill="none" xmlns="http://www.w3.org/2000/svg">
<path d="M108.302 22.0203C107.956 20.1717 106.145 18.9735 104.332 19.3155C103.416 19.4881 102.494 19.5909 101.564 19.5909C94.3956 19.5909 86.7689 13.5971 86.6959 13.5373C86.311 13.2318 77.1641 6 67.2806 6H67.274C56.1957 6.17586 47.1882 15.7973 47.1882 27.4533V33.9817C31.9367 35.6975 20 48.5222 20 64.225V91.4132C20 108.279 33.7203 122 50.5868 122C67.4532 122 81.1736 108.279 81.1736 91.4132V64.225C81.1736 48.5222 69.2367 35.6975 53.9853 33.9817V27.4533C53.9853 19.4881 59.9925 12.9133 67.5795 12.7939C74.7483 12.7939 82.3751 18.7878 82.448 18.8475C82.8331 19.153 91.9865 26.388 101.564 26.388C102.919 26.388 104.266 26.2453 105.594 25.9931C107.439 25.6444 108.654 23.8656 108.302 22.0203ZM50.5868 54.0291C52.4587 54.0291 53.9853 55.5526 53.9853 57.4277V64.2248C53.9853 66.0998 52.4587 67.6232 50.5868 67.6232C48.7148 67.6232 47.1882 66.0998 47.1882 64.2248V57.4277C47.1882 55.5526 48.7148 54.0291 50.5868 54.0291ZM74.3765 64.2248V91.413C74.3765 104.529 63.7031 115.203 50.5868 115.203C37.4705 115.203 26.7971 104.529 26.7971 91.413V64.2248C26.7971 52.2724 35.6899 42.4453 47.1882 40.7785V47.8582C43.2409 49.2658 40.3912 53.0028 40.3912 57.4277V64.2248C40.3912 69.8468 44.9647 74.4203 50.5868 74.4203C56.2089 74.4203 60.7823 69.8468 60.7823 64.2248V57.4277C60.7823 53.0028 57.9325 49.2658 53.9853 47.8582V40.7785C65.4835 42.4457 74.3765 52.2724 74.3765 64.2248Z" fill="url(#paint0_linear_637_216)" stroke="url(#paint1_linear_637_216)" stroke-width="4"/>
<defs>
<linearGradient id="paint0_linear_637_216" x1="64.1813" y1="122" x2="64.1813" y2="6" gradientUnits="userSpaceOnUse">
<stop stop-color="#FD3D00"/>
<stop offset="1" stop-color="#FAFF00"/>
</linearGradient>
<linearGradient id="paint1_linear_637_216" x1="64.1813" y1="122" x2="64.1813" y2="6" gradientUnits="userSpaceOnUse">
<stop stop-color="#FD3D00"/>
<stop offset="1" stop-color="#FAFF00"/>
</linearGradient>
</defs>
</svg>
