<svg width="128" height="128" viewBox="0 0 128 128" fill="none" xmlns="http://www.w3.org/2000/svg">
<path d="M96.8125 56.9375C91.3847 56.9375 86.9688 61.3535 86.9688 66.7812C86.9688 72.209 91.3847 76.625 96.8125 76.625C102.24 76.625 106.656 72.209 106.656 66.7812C106.656 61.3535 102.24 56.9375 96.8125 56.9375ZM96.8125 70.0625C95.0033 70.0625 93.5312 68.5905 93.5312 66.7812C93.5312 64.972 95.0033 63.5 96.8125 63.5C98.622 63.5 100.094 64.972 100.094 66.7812C100.094 68.5905 98.622 70.0625 96.8125 70.0625ZM70.5625 63.5C68.7504 63.5 67.2812 64.9691 67.2812 66.7812C67.2812 68.5934 68.7504 70.0625 70.5625 70.0625C72.3746 70.0625 73.8438 68.5934 73.8438 66.7812C73.8438 64.9691 72.3746 63.5 70.5625 63.5ZM96.8125 43.8125C90.7928 43.8125 85.016 46.1873 80.7383 50.375H67.2812V40.5312C67.2812 35.1035 62.8653 30.6875 57.4375 30.6875H31.1875C29.3783 30.6875 27.9062 29.2155 27.9062 27.4062C27.9062 25.597 29.3783 24.125 31.1875 24.125H96.8125C102.24 24.125 106.656 19.709 106.656 14.2812C106.656 12.4691 105.187 11 103.375 11C101.563 11 100.094 12.4691 100.094 14.2812C100.094 16.0905 98.622 17.5625 96.8125 17.5625H31.1875C25.7597 17.5625 21.3438 21.9785 21.3438 27.4062C21.3438 32.834 25.7597 37.25 31.1875 37.25H57.4375C59.2467 37.25 60.7188 38.722 60.7188 40.5312V50.375H47.2617C42.9838 46.1873 37.2072 43.8125 31.1875 43.8125C18.4017 43.8125 8 54.1163 8 66.7812C8 72.6197 10.4546 78.3658 14.7812 82.7594V100.979C14.7812 109.262 21.5196 116 29.8021 116C35.9801 116 41.4543 112.293 43.7488 106.558L48.0168 95.8881C48.9218 96.1629 49.8812 96.3125 50.875 96.3125C55.1527 96.3125 58.7999 93.5691 60.1544 89.75H67.8458C69.2003 93.5691 72.8476 96.3125 77.1253 96.3125C78.119 96.3125 79.0784 96.1629 79.9836 95.8881L84.2517 106.558C86.5457 112.293 92.0201 116 98.1976 116C106.48 116 113.219 109.262 113.219 100.979V82.7594C117.546 78.3658 120 72.6197 120 66.7812C120 54.1163 109.598 43.8125 96.8125 43.8125ZM54.1562 86.4699C54.1556 88.2787 52.6841 89.75 50.875 89.75C49.0658 89.75 47.5938 88.278 47.5938 86.4688C47.5938 84.6595 49.0658 83.1875 50.875 83.1875C52.6839 83.1875 54.1556 84.6588 54.1562 86.4676V86.4688V86.4699ZM77.125 89.75C75.3158 89.75 73.8438 88.278 73.8438 86.4688C73.8438 84.6595 75.3158 83.1875 77.125 83.1875C78.9342 83.1875 80.4062 84.6595 80.4062 86.4688C80.4062 88.278 78.9342 89.75 77.125 89.75ZM107.741 78.9216C107.051 79.5437 106.656 80.4299 106.656 81.3596V100.98C106.656 105.643 102.862 109.438 98.1976 109.438C94.7191 109.438 91.6364 107.351 90.3445 104.121L85.4076 91.7783C86.3939 90.2451 86.9688 88.4233 86.9688 86.4688C86.9688 81.041 82.5528 76.625 77.125 76.625C72.8473 76.625 69.2001 79.3684 67.8456 83.1875H60.1544C58.7999 79.3684 55.1527 76.625 50.875 76.625C45.4472 76.625 41.0312 81.041 41.0312 86.4688C41.0312 88.4233 41.6061 90.245 42.5924 91.778L37.6555 104.12C36.3636 107.351 33.2809 109.438 29.8021 109.438C25.1382 109.438 21.3438 105.644 21.3438 100.979V81.3594C21.3438 80.4298 20.9494 79.5437 20.2588 78.9214C16.6387 75.6603 14.5625 71.2354 14.5625 66.7812C14.5625 57.7349 22.0203 50.375 31.1875 50.375C35.8484 50.375 40.3059 52.3687 43.4171 55.8446C44.0395 56.54 44.9287 56.9375 45.8621 56.9375H82.1381C83.0715 56.9375 83.9607 56.54 84.5831 55.8446C87.6941 52.3687 92.1516 50.375 96.8125 50.375C105.98 50.375 113.438 57.7349 113.438 66.7812C113.438 71.2354 111.361 75.6603 107.741 78.9216ZM37.75 63.5H34.4688V60.2188C34.4688 58.4066 32.9996 56.9375 31.1875 56.9375C29.3754 56.9375 27.9062 58.4066 27.9062 60.2188V63.5H24.625C22.8129 63.5 21.3438 64.9691 21.3438 66.7812C21.3438 68.5934 22.8129 70.0625 24.625 70.0625H27.9062V73.3438C27.9062 75.1559 29.3754 76.625 31.1875 76.625C32.9996 76.625 34.4688 75.1559 34.4688 73.3438V70.0625H37.75C39.5621 70.0625 41.0312 68.5934 41.0312 66.7812C41.0312 64.9691 39.5621 63.5 37.75 63.5ZM57.4375 63.5C55.6254 63.5 54.1562 64.9691 54.1562 66.7812C54.1562 68.5934 55.6254 70.0625 57.4375 70.0625C59.2496 70.0625 60.7188 68.5934 60.7188 66.7812C60.7188 64.9691 59.2496 63.5 57.4375 63.5Z" fill="url(#paint0_linear_616_111)"/>
<defs>
<linearGradient id="paint0_linear_616_111" x1="47" y1="95.5" x2="77" y2="40.5" gradientUnits="userSpaceOnUse">
<stop stop-color="#FF00C7"/>
<stop offset="1" stop-color="#EBFF00"/>
</linearGradient>
</defs>
</svg>
