<svg width="192" height="192" viewBox="0 0 192 192" fill="none" xmlns="http://www.w3.org/2000/svg">
<path d="M147.09 10.3404C153.992 9.5483 161.403 9.94981 167.517 13.585C172.95 16.58 176.958 21.6151 179.475 27.2362C178.374 27.3504 177.259 27.3895 176.166 27.5541C175.04 27.7238 174.032 28.325 173.277 29.1777C171.444 31.2467 170.057 33.695 168.457 35.9499C167.819 31.2621 165.162 26.7804 160.895 24.5884C156.585 22.1034 151.465 23.4707 146.83 22.5158C145.32 22.1336 144.363 21.0678 143.617 19.814C142.458 17.8678 142.33 15.35 143.428 13.3691C144.233 11.9167 145.336 10.7004 147.09 10.3404Z" fill="url(#paint0_linear_644_96)"/>
<path d="M10.0408 36.7963C9.97597 23.1018 21.7073 10.666 35.3506 10.1451C47.3303 10.004 59.3101 10.08 71.2899 10.1126C68.6649 14.388 65.8239 18.5333 63.1773 22.7979C54.2438 22.9173 45.3103 22.6352 36.3984 22.8956C31.1917 23.0258 26.4279 26.3355 24.235 31.0451C23.7489 32.1085 23.36 33.2045 23.0576 34.3439C21.3292 46.5518 22.6687 58.9768 22.0962 71.2715C17.9373 76.0787 14.6534 81.6129 10.0732 86.062C9.95436 69.6438 10.0084 53.2146 10.0408 36.7963Z" fill="url(#paint1_linear_644_96)"/>
<path d="M71.2899 10.1126C85.6029 10.0583 99.916 10.0692 114.229 10.08C117.2 9.80874 120.224 11.6535 121.045 14.5834C121.45 15.6624 121.39 16.7253 121.126 17.7687C120.466 20.3772 118.04 22.2428 115.367 22.544C111.05 23.0304 106.663 22.8115 102.325 22.8196C89.2757 22.7979 76.2265 22.8305 63.1773 22.7979C65.8239 18.5333 68.6649 14.388 71.2899 10.1126Z" fill="url(#paint2_linear_644_96)"/>
<path d="M125.737 36.0018C125.707 35.5669 125.671 35.1317 125.682 34.6958C125.735 32.3784 125.976 29.4318 128.694 28.9373C131.139 28.6157 133.696 28.4691 136.133 28.9772C136.685 29.0922 137.234 29.2789 137.654 29.6551C139.013 30.874 138.991 32.9623 139.01 34.7211C138.877 35.8018 139.035 37.0442 138.986 38.2152C138.908 40.1147 137.037 41.12 135.139 41.2375C133.444 41.3424 131.741 41.345 130.043 41.2598C127.903 41.1524 125.898 39.9562 125.805 37.8158C125.778 37.2068 125.779 36.592 125.737 36.0018Z" fill="url(#paint3_linear_644_96)"/>
<path d="M173.277 29.1777C174.032 28.325 175.04 27.7238 176.166 27.5541C177.259 27.3895 178.374 27.3504 179.475 27.2362C180.361 30.2638 181.16 33.3564 181.247 36.5251C181.16 52.8023 181.279 69.0686 181.171 85.335C177.617 89.4803 174.128 93.7015 171.179 98.3025C169.17 101.254 169.375 104.976 169.321 108.384C169.461 117.423 169.288 126.473 169.234 135.523C169.148 142.425 169.688 149.402 168.392 156.228C168.521 116.131 168.467 76.0353 168.457 35.9499C170.057 33.695 171.444 31.2467 173.277 29.1777Z" fill="url(#paint4_linear_644_96)"/>
<path d="M125.47 59.5884C125.506 55.9146 128.48 53.076 132.154 53.0742V53.0742C135.668 53.0724 138.619 55.6455 138.663 59.1586C138.687 61.1158 138.61 63.0797 138.631 65.0301C138.696 82.7723 138.729 100.514 138.793 118.257C139.26 122.946 136.266 126.86 133.887 130.646C133.597 131.108 133.146 131.427 132.609 131.526V131.526C131.914 131.655 131.18 131.399 130.757 130.831C128.88 128.31 127.278 125.515 126.164 122.585C125.877 121.829 125.747 121.025 125.734 120.217C125.42 101.469 125.675 82.6913 125.496 63.9341C125.478 62.489 125.455 61.0385 125.47 59.5884Z" fill="url(#paint5_linear_644_96)"/>
<path d="M22.0962 71.2715C22.6687 58.9768 21.3292 46.5518 23.0576 34.3439C22.6147 74.2122 23.0036 114.091 22.8739 153.971C22.5715 158.431 24.6671 162.522 27.5729 165.744C24.9264 169.022 22.3986 172.386 19.9789 175.825C18.6178 174.664 17.3215 173.416 16.0901 172.136C12.2985 167.285 10.0624 161.219 10.03 155.034C9.99757 148.328 9.98677 141.611 10.0732 134.894C14.1241 131.052 17.7536 126.733 20.6595 121.959C22.3662 119.213 22.0854 115.849 22.1502 112.757C21.8585 98.9319 22.2474 85.0963 22.0962 71.2715Z" fill="url(#paint6_linear_644_96)"/>
<path d="M181.247 36.5251C181.603 38.3807 181.916 40.2471 181.97 42.1461C181.851 74.3533 181.97 106.571 181.905 138.779C181.819 144.28 182.456 149.858 181.268 155.294C181.139 131.975 181.29 108.655 181.171 85.335C181.279 69.0686 181.16 52.8023 181.247 36.5251Z" fill="url(#paint7_linear_644_96)"/>
<path d="M10.0732 86.062C14.6534 81.6129 17.9373 76.0787 22.0962 71.2715C22.2474 85.0963 21.8585 98.9319 22.1502 112.757C22.0854 115.849 22.3662 119.213 20.6595 121.959C17.7536 126.733 14.1241 131.052 10.0732 134.894C9.97597 118.616 9.97597 102.339 10.0732 86.062Z" fill="url(#paint8_linear_644_96)"/>
<path d="M171.179 98.3025C174.128 93.7015 177.617 89.4803 181.171 85.335C181.29 108.655 181.139 131.975 181.268 155.294C181.16 161.805 178.6 168.175 174.365 173.08C169.904 177.594 164.114 181.056 157.708 181.696C146.192 181.093 134.654 181.253 123.121 181.116C117.081 181.044 113.637 174.558 117.198 169.678C117.321 169.51 117.444 169.342 117.567 169.174C129.806 169.141 142.045 169.206 154.273 169.141C160.43 169.206 166.21 164.746 167.862 158.81C168.003 158.17 168.262 156.868 168.392 156.228C169.688 149.402 169.148 142.425 169.234 135.523C169.288 126.473 169.461 117.423 169.321 108.384C169.375 104.976 169.17 101.254 171.179 98.3025Z" fill="url(#paint9_linear_644_96)"/>
<path d="M19.9789 175.825C22.3986 172.386 24.9264 169.022 27.5729 165.744C30.5112 167.665 33.8059 169.304 37.4138 169.163C47.9893 169.206 58.5647 169.119 69.1402 169.184C67.0876 172.501 65.358 176.15 62.7476 179.075C62.0118 179.9 61.0467 180.496 59.965 180.722C57.2272 181.293 54.3364 181.047 51.5433 181.11C45.6776 180.915 39.8119 181.295 33.9571 181.707C28.826 181.273 23.9758 179.016 19.9789 175.825Z" fill="url(#paint10_linear_644_96)"/>
<path d="M69.1402 169.184C85.2897 169.163 101.428 169.152 117.567 169.174C117.444 169.342 117.321 169.51 117.198 169.678C113.637 174.558 117.081 181.044 123.121 181.116C134.654 181.253 146.192 181.093 157.708 181.696C155.483 181.924 153.236 181.989 151 182C116.411 181.978 81.8221 181.967 47.2439 181.957C42.815 181.924 38.3752 182.098 33.9571 181.707C39.8119 181.295 45.6776 180.915 51.5433 181.11C54.3364 181.047 57.2272 181.293 59.965 180.722C61.0467 180.496 62.0118 179.9 62.7476 179.075C65.358 176.15 67.0876 172.501 69.1402 169.184Z" fill="url(#paint11_linear_644_96)"/>
<path d="M179.475 27.2362C176.958 21.6151 172.95 16.58 167.517 13.585C161.403 9.94981 153.992 9.5483 147.09 10.3404C145.336 10.7004 144.233 11.9167 143.428 13.3691C142.33 15.35 142.458 17.8678 143.617 19.814C144.363 21.0678 145.32 22.1336 146.83 22.5158C151.465 23.4707 156.585 22.1034 160.895 24.5884C165.162 26.7804 167.819 31.2621 168.457 35.9499M179.475 27.2362C178.374 27.3504 177.259 27.3895 176.166 27.5541C175.04 27.7238 174.032 28.325 173.277 29.1777C171.444 31.2467 170.057 33.695 168.457 35.9499M179.475 27.2362C180.361 30.2638 181.16 33.3564 181.247 36.5251M168.457 35.9499C168.467 76.0353 168.521 116.131 168.392 156.228M71.2899 10.1126C59.3101 10.08 47.3303 10.004 35.3506 10.1451C21.7073 10.666 9.97597 23.1018 10.0408 36.7963C10.0084 53.2146 9.95436 69.6438 10.0732 86.062M71.2899 10.1126C68.6649 14.388 65.8239 18.5333 63.1773 22.7979M71.2899 10.1126C85.6029 10.0583 99.916 10.0692 114.229 10.08C117.2 9.80874 120.224 11.6535 121.045 14.5834C121.45 15.6624 121.39 16.7253 121.126 17.7687C120.466 20.3772 118.04 22.2428 115.367 22.544C111.05 23.0304 106.663 22.8115 102.325 22.8196C89.2757 22.7979 76.2265 22.8305 63.1773 22.7979M63.1773 22.7979C54.2438 22.9173 45.3103 22.6352 36.3984 22.8956C31.1917 23.0258 26.4279 26.3355 24.235 31.0451C23.7489 32.1085 23.36 33.2045 23.0576 34.3439M23.0576 34.3439C21.3292 46.5518 22.6687 58.9768 22.0962 71.2715M23.0576 34.3439C22.6147 74.2122 23.0036 114.091 22.8739 153.971C22.5715 158.431 24.6671 162.522 27.5729 165.744M22.0962 71.2715C17.9373 76.0787 14.6534 81.6129 10.0732 86.062M22.0962 71.2715C22.2474 85.0963 21.8585 98.9319 22.1502 112.757C22.0854 115.849 22.3662 119.213 20.6595 121.959C17.7536 126.733 14.1241 131.052 10.0732 134.894M10.0732 86.062C9.97597 102.339 9.97597 118.616 10.0732 134.894M181.247 36.5251C181.16 52.8023 181.279 69.0686 181.171 85.335M181.247 36.5251C181.603 38.3807 181.916 40.2471 181.97 42.1461C181.851 74.3533 181.97 106.571 181.905 138.779C181.819 144.28 182.456 149.858 181.268 155.294M181.171 85.335C177.617 89.4803 174.128 93.7015 171.179 98.3025C169.17 101.254 169.375 104.976 169.321 108.384C169.461 117.423 169.288 126.473 169.234 135.523C169.148 142.425 169.688 149.402 168.392 156.228M181.171 85.335C181.29 108.655 181.139 131.975 181.268 155.294M168.392 156.228C168.262 156.868 168.003 158.17 167.862 158.81C166.21 164.746 160.43 169.206 154.273 169.141C142.045 169.206 129.806 169.141 117.567 169.174M27.5729 165.744C24.9264 169.022 22.3986 172.386 19.9789 175.825M27.5729 165.744C30.5112 167.665 33.8059 169.304 37.4138 169.163C47.9893 169.206 58.5647 169.119 69.1402 169.184M19.9789 175.825C18.6178 174.664 17.3215 173.416 16.0901 172.136C12.2985 167.285 10.0624 161.219 10.03 155.034C9.99757 148.328 9.98677 141.611 10.0732 134.894M19.9789 175.825C23.9758 179.016 28.826 181.273 33.9571 181.707M181.268 155.294C181.16 161.805 178.6 168.175 174.365 173.08C169.904 177.594 164.114 181.056 157.708 181.696M157.708 181.696C146.192 181.093 134.654 181.253 123.121 181.116C117.081 181.044 113.637 174.558 117.198 169.678C117.321 169.51 117.444 169.342 117.567 169.174M157.708 181.696C155.483 181.924 153.236 181.989 151 182C116.411 181.978 81.8221 181.967 47.2439 181.957C42.815 181.924 38.3752 182.098 33.9571 181.707M117.567 169.174C101.428 169.152 85.2897 169.163 69.1402 169.184M69.1402 169.184C67.0876 172.501 65.358 176.15 62.7476 179.075C62.0118 179.9 61.0467 180.496 59.965 180.722C57.2272 181.293 54.3364 181.047 51.5433 181.11C45.6776 180.915 39.8119 181.295 33.9571 181.707M128.694 28.9373C125.976 29.4318 125.735 32.3784 125.682 34.6958C125.671 35.1317 125.707 35.5669 125.737 36.0018C125.779 36.592 125.778 37.2068 125.805 37.8158C125.898 39.9562 127.903 41.1524 130.043 41.2598C131.741 41.345 133.444 41.3424 135.139 41.2375C137.037 41.12 138.908 40.1147 138.986 38.2152C139.035 37.0442 138.877 35.8018 139.01 34.7211C138.991 32.9623 139.013 30.874 137.654 29.6551C137.234 29.2789 136.685 29.0922 136.133 28.9772C133.696 28.4691 131.139 28.6157 128.694 28.9373ZM138.631 65.0301C138.61 63.0797 138.687 61.1158 138.663 59.1586C138.619 55.6455 135.668 53.0724 132.154 53.0742V53.0742C128.48 53.076 125.506 55.9146 125.47 59.5884C125.455 61.0385 125.478 62.489 125.496 63.9341C125.675 82.6913 125.42 101.469 125.734 120.217C125.747 121.025 125.877 121.829 126.164 122.585C127.278 125.515 128.88 128.31 130.757 130.831C131.18 131.399 131.914 131.655 132.609 131.526V131.526C133.146 131.427 133.597 131.108 133.887 130.646C136.266 126.86 139.26 122.946 138.793 118.257C138.729 100.514 138.696 82.7723 138.631 65.0301Z" stroke="url(#paint12_linear_644_96)" stroke-width="8"/>
<defs>
<linearGradient id="paint0_linear_644_96" x1="9.99993" y1="182" x2="217.541" y2="91.542" gradientUnits="userSpaceOnUse">
<stop stop-color="#0357D1"/>
<stop offset="1" stop-color="#27CDFC"/>
</linearGradient>
<linearGradient id="paint1_linear_644_96" x1="9.99993" y1="182" x2="217.541" y2="91.542" gradientUnits="userSpaceOnUse">
<stop stop-color="#0357D1"/>
<stop offset="1" stop-color="#27CDFC"/>
</linearGradient>
<linearGradient id="paint2_linear_644_96" x1="9.99993" y1="182" x2="217.541" y2="91.542" gradientUnits="userSpaceOnUse">
<stop stop-color="#0357D1"/>
<stop offset="1" stop-color="#27CDFC"/>
</linearGradient>
<linearGradient id="paint3_linear_644_96" x1="9.99993" y1="182" x2="217.541" y2="91.542" gradientUnits="userSpaceOnUse">
<stop stop-color="#0357D1"/>
<stop offset="1" stop-color="#27CDFC"/>
</linearGradient>
<linearGradient id="paint4_linear_644_96" x1="9.99993" y1="182" x2="217.541" y2="91.542" gradientUnits="userSpaceOnUse">
<stop stop-color="#0357D1"/>
<stop offset="1" stop-color="#27CDFC"/>
</linearGradient>
<linearGradient id="paint5_linear_644_96" x1="9.99993" y1="182" x2="217.541" y2="91.542" gradientUnits="userSpaceOnUse">
<stop stop-color="#0357D1"/>
<stop offset="1" stop-color="#27CDFC"/>
</linearGradient>
<linearGradient id="paint6_linear_644_96" x1="9.99993" y1="182" x2="217.541" y2="91.542" gradientUnits="userSpaceOnUse">
<stop stop-color="#0357D1"/>
<stop offset="1" stop-color="#27CDFC"/>
</linearGradient>
<linearGradient id="paint7_linear_644_96" x1="9.99993" y1="182" x2="217.541" y2="91.542" gradientUnits="userSpaceOnUse">
<stop stop-color="#0357D1"/>
<stop offset="1" stop-color="#27CDFC"/>
</linearGradient>
<linearGradient id="paint8_linear_644_96" x1="9.99993" y1="182" x2="217.541" y2="91.542" gradientUnits="userSpaceOnUse">
<stop stop-color="#0357D1"/>
<stop offset="1" stop-color="#27CDFC"/>
</linearGradient>
<linearGradient id="paint9_linear_644_96" x1="9.99993" y1="182" x2="217.541" y2="91.542" gradientUnits="userSpaceOnUse">
<stop stop-color="#0357D1"/>
<stop offset="1" stop-color="#27CDFC"/>
</linearGradient>
<linearGradient id="paint10_linear_644_96" x1="9.99993" y1="182" x2="217.541" y2="91.542" gradientUnits="userSpaceOnUse">
<stop stop-color="#0357D1"/>
<stop offset="1" stop-color="#27CDFC"/>
</linearGradient>
<linearGradient id="paint11_linear_644_96" x1="9.99993" y1="182" x2="217.541" y2="91.542" gradientUnits="userSpaceOnUse">
<stop stop-color="#0357D1"/>
<stop offset="1" stop-color="#27CDFC"/>
</linearGradient>
<linearGradient id="paint12_linear_644_96" x1="9.99993" y1="182" x2="217.541" y2="91.542" gradientUnits="userSpaceOnUse">
<stop stop-color="#0357D1"/>
<stop offset="1" stop-color="#27CDFC"/>
</linearGradient>
</defs>
</svg>
