<svg width="16" height="16" viewBox="0 0 16 16" fill="none" xmlns="http://www.w3.org/2000/svg">
<path fill-rule="evenodd" clip-rule="evenodd" d="M10.0001 0.886779C10.0001 0.718617 10.195 0.625527 10.3258 0.731224L10.8131 1.12501L15.8189 5.34713C15.9136 5.42704 15.9136 5.57299 15.8189 5.65289L10.8131 9.87501L10.3256 10.2678C10.1948 10.3732 10.0001 10.2801 10.0001 10.112V8.20001C10.0001 8.08956 9.91057 8.00001 9.80011 8.00001H8.20011C8.08966 8.00001 8.00011 7.91047 8.00011 7.80001C8.00011 7.91047 7.91057 8.00001 7.80011 8.00001H5.20011C5.08966 8.00001 5.00011 7.91047 5.00011 7.80001V6.96977C5.00011 6.7981 4.79806 6.7062 4.66867 6.81903L1.76704 9.34922C1.67561 9.42895 1.67563 9.57105 1.76709 9.65075L4.66872 12.1792C4.79812 12.292 5.00011 12.2001 5.00011 12.0284V11.2C5.00011 11.0896 5.08966 11 5.20011 11H8.80011C8.91057 11 9.00011 11.0896 9.00011 11.2V11.8C9.00011 11.9105 8.91057 12 8.80011 12H6.20011C6.08966 12 6.00011 12.0896 6.00011 12.2V14.1123C6.00011 14.2805 5.80523 14.3736 5.67443 14.2679L5.1881 13.875L0.181418 9.6529C0.086663 9.573 0.0866625 9.42703 0.181418 9.34712L5.1881 5.12501L5.67431 4.73161C5.80509 4.62581 6.00011 4.71888 6.00011 4.8871V5.50001V6.80001C6.00011 6.91047 6.08966 7.00001 6.20011 7.00001H7.80011C7.91057 7.00001 8.00011 7.08956 8.00011 7.20001C8.00011 7.08956 8.08966 7.00001 8.20011 7.00001H10.8001C10.9106 7.00001 11.0001 7.08956 11.0001 7.20001V8.02845C11.0001 8.20009 11.2021 8.29199 11.3315 8.17923L14.2331 5.65074C14.3246 5.57105 14.3246 5.42895 14.2332 5.34922L11.3316 2.81903C11.2022 2.7062 11.0001 2.7981 11.0001 2.96977V3.80001C11.0001 3.91047 10.9106 4.00001 10.8001 4.00001H7.20011C7.08966 4.00001 7.00011 3.91047 7.00011 3.80001V3.20001C7.00011 3.08956 7.08966 3.00001 7.20011 3.00001H9.80011C9.91057 3.00001 10.0001 2.91047 10.0001 2.80001V0.886779Z" fill="url(#paint0_linear)"/>
<defs>
<linearGradient id="paint0_linear" x1="8.00013" y1="14.3127" x2="8.00013" y2="0.686401" gradientUnits="userSpaceOnUse">
<stop stop-color="#00B59C"/>
<stop offset="1" stop-color="#9CFFAC"/>
</linearGradient>
</defs>
</svg>
