<svg width="128" height="128" viewBox="0 0 128 128" fill="none" xmlns="http://www.w3.org/2000/svg">
<path d="M80.5074 16.318C79.5791 15.568 78.1957 16.2288 78.1957 17.4222V30.9954C78.1957 31.7794 77.5602 32.4149 76.7761 32.4149H58.3219C57.5379 32.4149 56.9023 33.0505 56.9023 33.8345V38.0932C56.9023 38.8772 57.5379 39.5127 58.3219 39.5127H83.8739C84.6582 39.5127 85.2935 38.8772 85.2935 38.0932V32.2067C85.2935 30.9884 86.7272 30.3361 87.6457 31.1366L108.241 49.0893C108.89 49.6551 108.89 50.6638 108.241 51.2295L87.6457 69.1822C86.7272 69.9828 85.2935 69.3305 85.2935 68.1122V62.2256C85.2935 61.4417 84.6582 60.8061 83.8739 60.8061H65.4197C64.6357 60.8061 64.0001 61.4417 64.0001 62.2256V66.4843C64.0001 67.2683 64.6357 67.9039 65.4197 67.9039H76.7761C77.5602 67.9039 78.1957 68.5395 78.1957 69.3234V82.8987C78.1957 84.0919 79.5783 84.7527 80.5067 84.0038L83.9662 81.2122L119.496 51.2447C120.168 50.6775 120.168 49.6415 119.496 49.0744L83.9591 19.1066L80.5074 16.318Z" fill="url(#paint0_linear_616_16)"/>
<path d="M49.8044 45.8109C49.8044 44.6178 48.4219 43.957 47.4934 44.7061L44.0339 47.4975L8.50432 77.4652C7.83185 78.0324 7.8319 79.0683 8.50441 79.6355L44.041 109.603L47.4927 112.392C48.4211 113.141 49.8044 112.481 49.8044 111.288V97.7144C49.8044 96.9301 50.4399 96.2949 51.2239 96.2949H69.6782C70.4622 96.2949 71.0977 95.6596 71.0977 94.8753V90.6167C71.0977 89.8323 70.4622 89.1971 69.6782 89.1971H44.1262C43.3421 89.1971 42.7066 89.8323 42.7066 90.6167V96.5028C42.7066 97.7215 41.2727 98.3738 40.3543 97.5732L19.7591 79.6205C19.1101 79.0547 19.1101 78.046 19.7591 77.4803L40.3543 59.5276C41.2727 58.727 42.7066 59.3793 42.7066 60.5976V66.4841C42.7066 67.2681 43.3421 67.9037 44.1262 67.9037H62.5804C63.3644 67.9037 64 67.2681 64 66.4841V62.2254C64 61.4415 63.3644 60.8059 62.5804 60.8059H51.2239C50.4399 60.8059 49.8044 60.1704 49.8044 59.3863V50.1592V45.8109Z" fill="url(#paint1_linear_616_16)"/>
<defs>
<linearGradient id="paint0_linear_616_16" x1="99.0454" y1="50.1594" x2="64.8874" y2="58.588" gradientUnits="userSpaceOnUse">
<stop stop-color="#FD5900"/>
<stop offset="1" stop-color="#FFDE00"/>
</linearGradient>
<linearGradient id="paint1_linear_616_16" x1="54.2404" y1="66.5729" x2="32.9471" y2="78.5504" gradientUnits="userSpaceOnUse">
<stop stop-color="#FFD458"/>
<stop offset="1" stop-color="#FFFFD5"/>
</linearGradient>
</defs>
</svg>
