<svg width="128" height="128" viewBox="0 0 128 128" fill="none" xmlns="http://www.w3.org/2000/svg">
<path d="M99.2422 114H28.9297C27.3117 114 26 112.688 26 111.071V87.6328C26 86.0148 27.3117 84.7031 28.9297 84.7031H37.7188V78.8438H28.9297C27.3117 78.8438 26 77.5321 26 75.914V57.9453C26 57.1684 26.3086 56.423 26.8582 55.8736L37.7188 45.0131V16.9297C37.7188 15.3117 39.0304 14 40.6484 14H99.2422C100.86 14 102.172 15.3117 102.172 16.9297V75.914C102.172 77.5321 100.86 78.8438 99.2422 78.8438H96.3121V84.7031H99.2422C100.86 84.7031 102.172 86.0148 102.172 87.6328V111.071C102.172 112.688 100.86 114 99.2422 114Z" stroke="url(#paint0_linear_616_29)" stroke-width="8" stroke-linecap="round" stroke-linejoin="round"/>
<path d="M52.3671 43.2969C53.9851 43.2969 55.2969 41.9851 55.2969 40.3671V28.6484C55.2969 27.0304 53.9851 25.7188 52.3671 25.7188C50.7492 25.7188 49.4375 27.0304 49.4375 28.6484V40.3671C49.4375 41.9851 50.7492 43.2969 52.3671 43.2969ZM64.0859 43.2969C65.7038 43.2969 67.0156 41.9851 67.0156 40.3671V28.6484C67.0156 27.0304 65.7038 25.7188 64.0859 25.7188C62.4679 25.7188 61.1562 27.0304 61.1562 28.6484V40.3671C61.1562 41.9851 62.4679 43.2969 64.0859 43.2969ZM75.8046 43.2969C77.4226 43.2969 78.7344 41.9851 78.7344 40.3671V28.6484C78.7344 27.0304 77.4226 25.7188 75.8046 25.7188C74.1867 25.7188 72.875 27.0304 72.875 28.6484V40.3671C72.875 41.9851 74.1867 43.2969 75.8046 43.2969ZM87.5234 25.7188C85.9054 25.7188 84.5938 27.0304 84.5938 28.6484V40.3671C84.5938 41.9851 85.9054 43.2969 87.5234 43.2969C89.1413 43.2969 90.4531 41.9851 90.4531 40.3671V28.6484C90.4531 27.0304 89.1413 25.7188 87.5234 25.7188ZM87.5234 96.4215H40.6484C39.0304 96.4215 37.7188 97.7336 37.7188 99.3517C37.7188 100.97 39.0304 102.281 40.6484 102.281H87.5234C89.1413 102.281 90.4531 100.97 90.4531 99.3517C90.4531 97.7336 89.1413 96.4215 87.5234 96.4215Z" fill="url(#paint1_linear_616_29)"/>
<defs>
<linearGradient id="paint0_linear_616_29" x1="64.0859" y1="114" x2="64.0859" y2="14" gradientUnits="userSpaceOnUse">
<stop stop-color="#FD0000"/>
<stop offset="1" stop-color="#FAFF00"/>
</linearGradient>
<linearGradient id="paint1_linear_616_29" x1="64.0859" y1="102.281" x2="64.0859" y2="25.7188" gradientUnits="userSpaceOnUse">
<stop stop-color="#FD5900"/>
<stop offset="1" stop-color="#FFDE00"/>
</linearGradient>
</defs>
</svg>
