<svg width="128" height="128" viewBox="0 0 128 128" fill="none" xmlns="http://www.w3.org/2000/svg">
<path d="M64 11C34.8893 11 11 34.8893 11 64C11 93.1107 34.8893 117 64 117C93.1107 117 117 93.1107 117 64C117 34.8893 93.1107 11 64 11ZM64 110.789C38.3132 110.789 17.211 89.6868 17.211 64C17.211 38.3132 38.3132 17.211 64 17.211C89.6868 17.211 110.789 38.3132 110.789 64C110.789 89.6868 89.6868 110.789 64 110.789Z" fill="url(#paint0_linear_616_144)" stroke="url(#paint1_linear_616_144)" stroke-width="4"/>
<path fill-rule="evenodd" clip-rule="evenodd" d="M64.9138 40.9268C51.6888 40.9268 40.9268 51.6888 40.9268 64.9138C40.9268 78.1389 51.6888 88.9009 64.9138 88.9009C78.1389 88.9009 88.9009 78.1389 88.9009 64.9138C88.9009 51.6888 78.1389 40.9268 64.9138 40.9268ZM64.6854 81.819C55.2383 81.819 47.5518 74.1324 47.5518 64.6854C47.5518 55.2383 55.2383 47.5518 64.6854 47.5518C74.1324 47.5518 81.819 55.2383 81.819 64.6854C81.819 74.1324 74.1324 81.819 64.6854 81.819Z" fill="url(#paint2_linear_616_144)"/>
<path fill-rule="evenodd" clip-rule="evenodd" d="M64.914 54.8621C59.3713 54.8621 54.8623 59.3711 54.8623 64.9138C54.8623 70.4565 59.3713 74.9655 64.914 74.9655C70.4567 74.9655 74.9658 70.4565 74.9658 64.9138C74.9658 59.3711 70.4567 54.8621 64.914 54.8621ZM64.914 68.569C62.8974 68.569 61.2589 66.9304 61.2589 64.9138C61.2589 62.8971 62.8974 61.2586 64.914 61.2586C66.9307 61.2586 68.5692 62.8971 68.5692 64.9138C68.5692 66.9304 66.9307 68.569 64.914 68.569Z" fill="url(#paint3_linear_616_144)"/>
<path d="M92.7991 36.5369C96.5807 40.3185 99.5459 44.7156 101.617 49.6081C102.353 51.3516 101.54 53.3629 99.7963 54.0989C98.0601 54.8333 96.0437 54.0276 95.3056 52.2784C93.5788 48.2027 91.1059 44.5349 87.9535 41.3826C84.8011 38.2302 81.1336 35.7573 77.0577 34.0304C75.3141 33.2943 74.5009 31.2831 75.2372 29.5395C75.9733 27.7894 77.9945 26.9862 79.7279 27.7191C84.6204 29.7906 89.0177 32.7554 92.7991 36.5369Z" fill="url(#paint4_linear_616_144)"/>
<path d="M42.297 85.2136C45.4494 88.366 49.117 90.8389 53.1929 92.5658C54.9362 93.302 55.7494 95.3133 55.0134 97.0566C54.2771 98.8018 52.2633 99.6132 50.5226 98.8767C45.6301 96.8055 41.2329 93.8407 37.4515 90.0593C33.6699 86.2777 30.7049 81.8805 28.6336 76.9881C27.8975 75.2446 28.7106 73.2336 30.4541 72.4972C32.1807 71.7578 34.2086 72.5711 34.9449 74.3178C36.6717 78.3935 39.1447 82.0613 42.297 85.2136Z" fill="url(#paint5_linear_616_144)"/>
<defs>
<linearGradient id="paint0_linear_616_144" x1="18.5714" y1="64" x2="104.593" y2="54.4941" gradientUnits="userSpaceOnUse">
<stop stop-color="#A000B8"/>
<stop offset="1" stop-color="#FF00D2"/>
</linearGradient>
<linearGradient id="paint1_linear_616_144" x1="18.5714" y1="64" x2="104.593" y2="54.4941" gradientUnits="userSpaceOnUse">
<stop stop-color="#A000B8"/>
<stop offset="1" stop-color="#FF00D2"/>
</linearGradient>
<linearGradient id="paint2_linear_616_144" x1="49.622" y1="83.2373" x2="92.8833" y2="45.4911" gradientUnits="userSpaceOnUse">
<stop stop-color="#FE0844"/>
<stop offset="1" stop-color="#FEB302"/>
</linearGradient>
<linearGradient id="paint3_linear_616_144" x1="56.2982" y1="64.9138" x2="72.6126" y2="63.111" gradientUnits="userSpaceOnUse">
<stop stop-color="#A000B8"/>
<stop offset="1" stop-color="#FF00D2"/>
</linearGradient>
<linearGradient id="paint4_linear_616_144" x1="41.6889" y1="90.6841" x2="106.546" y2="32.6541" gradientUnits="userSpaceOnUse">
<stop stop-color="#FE0844"/>
<stop offset="1" stop-color="#FEB302"/>
</linearGradient>
<linearGradient id="paint5_linear_616_144" x1="41.6889" y1="90.6841" x2="106.546" y2="32.6541" gradientUnits="userSpaceOnUse">
<stop stop-color="#FE0844"/>
<stop offset="1" stop-color="#FEB302"/>
</linearGradient>
</defs>
</svg>
