<svg width="128" height="128" viewBox="0 0 128 128" fill="none" xmlns="http://www.w3.org/2000/svg">
<path d="M116.719 28H11.2812C9.46759 28 8 29.4676 8 31.2812V96.9062C8 98.7199 9.46759 100.188 11.2812 100.188H116.719C118.532 100.188 120 98.7199 120 96.9062V31.2812C120 29.4676 118.532 28 116.719 28ZM43.0595 93.625L46.3408 87.0625H81.659L84.9403 93.625H43.0595ZM113.438 93.625H92.2783L86.6227 82.3137C86.0651 81.2017 84.9309 80.5 83.6875 80.5H44.3125C43.0691 80.5 41.9349 81.2017 41.3773 82.3137L35.7217 93.625H14.5625V34.5625H113.438V93.625ZM37.75 73.9375H90.25C99.296 73.9375 106.656 66.5772 106.656 57.5312C106.656 48.4853 99.296 41.125 90.25 41.125H37.75C28.704 41.125 21.3438 48.4853 21.3438 57.5312C21.3438 66.5772 28.704 73.9375 37.75 73.9375ZM90.25 47.6875C95.6781 47.6875 100.094 52.1032 100.094 57.5312C100.094 62.9593 95.6781 67.375 90.25 67.375C84.8219 67.375 80.4062 62.9593 80.4062 57.5312C80.4062 52.1032 84.8219 47.6875 90.25 47.6875ZM50.7912 47.6875H77.2088C75.1267 50.4381 73.8438 53.8239 73.8438 57.5312C73.8438 61.2386 75.1267 64.6244 77.2088 67.375H50.7912C52.8733 64.6244 54.1562 61.2386 54.1562 57.5312C54.1562 53.8239 52.8733 50.4381 50.7912 47.6875ZM37.75 47.6875C43.1781 47.6875 47.5938 52.1032 47.5938 57.5312C47.5938 62.9593 43.1781 67.375 37.75 67.375C32.3219 67.375 27.9062 62.9593 27.9062 57.5312C27.9062 52.1032 32.3219 47.6875 37.75 47.6875ZM90.25 60.8125C92.0621 60.8125 93.5312 59.3434 93.5312 57.5312C93.5312 55.7187 92.0621 54.25 90.25 54.25C88.4379 54.25 86.9688 55.7187 86.9688 57.5312C86.9688 59.3434 88.4379 60.8125 90.25 60.8125ZM37.75 60.8125C39.5621 60.8125 41.0312 59.3434 41.0312 57.5312C41.0312 55.7187 39.5621 54.25 37.75 54.25C35.9379 54.25 34.4688 55.7187 34.4688 57.5312C34.4688 59.3434 35.9379 60.8125 37.75 60.8125Z" fill="url(#paint0_linear_616_151)"/>
<defs>
<linearGradient id="paint0_linear_616_151" x1="64" y1="100.188" x2="64" y2="28" gradientUnits="userSpaceOnUse">
<stop stop-color="#FD1E00"/>
<stop offset="1" stop-color="#FFF500"/>
</linearGradient>
</defs>
</svg>
