<svg width="128" height="128" viewBox="0 0 128 128" fill="none" xmlns="http://www.w3.org/2000/svg">
<path d="M103.031 120H24.2812C22.4691 120 21 118.53 21 116.719V90.4688C21 88.6566 22.4691 87.1875 24.2812 87.1875H34.125V80.6251H24.2812C22.4691 80.6251 21 79.1559 21 77.3437V57.2188C21 56.3486 21.3457 55.5138 21.9612 54.8985L34.125 42.7347V11.2813C34.125 9.46912 35.5941 8 37.4063 8H103.031C104.844 8 106.312 9.46912 106.312 11.2813V77.3437C106.312 79.1559 104.844 80.6251 103.031 80.6251H99.7495V87.1875H103.031C104.844 87.1875 106.312 88.6566 106.312 90.4688V116.719C106.312 118.53 104.844 120 103.031 120Z" stroke="url(#paint0_linear_679_44)" stroke-width="10" stroke-linecap="round" stroke-linejoin="round"/>
<path d="M50.5312 40.8125C52.3433 40.8125 53.8125 39.3434 53.8125 37.5312V24.4063C53.8125 22.5941 52.3433 21.1251 50.5312 21.1251C48.7191 21.1251 47.25 22.5941 47.25 24.4063V37.5312C47.25 39.3434 48.7191 40.8125 50.5312 40.8125ZM63.6562 40.8125C65.4683 40.8125 66.9374 39.3434 66.9374 37.5312V24.4063C66.9374 22.5941 65.4683 21.1251 63.6562 21.1251C61.844 21.1251 60.3749 22.5941 60.3749 24.4063V37.5312C60.3749 39.3434 61.844 40.8125 63.6562 40.8125ZM76.7812 40.8125C78.5933 40.8125 80.0625 39.3434 80.0625 37.5312V24.4063C80.0625 22.5941 78.5933 21.1251 76.7812 21.1251C74.9691 21.1251 73.5 22.5941 73.5 24.4063V37.5312C73.5 39.3434 74.9691 40.8125 76.7812 40.8125ZM89.9062 21.1251C88.094 21.1251 86.625 22.5941 86.625 24.4063V37.5312C86.625 39.3434 88.094 40.8125 89.9062 40.8125C91.7183 40.8125 93.1874 39.3434 93.1874 37.5312V24.4063C93.1874 22.5941 91.7183 21.1251 89.9062 21.1251ZM89.9062 100.312H37.4062C35.594 100.312 34.125 101.782 34.125 103.594C34.125 105.406 35.594 106.875 37.4062 106.875H89.9062C91.7183 106.875 93.1874 105.406 93.1874 103.594C93.1874 101.782 91.7183 100.312 89.9062 100.312Z" fill="url(#paint1_linear_679_44)"/>
<defs>
<linearGradient id="paint0_linear_679_44" x1="106.312" y1="64.9824" x2="41.8197" y2="70.4729" gradientUnits="userSpaceOnUse">
<stop stop-color="#BE41B4"/>
<stop offset="1" stop-color="#FE1FE8"/>
</linearGradient>
<linearGradient id="paint1_linear_679_44" x1="93.1874" y1="64.7522" x2="48.4799" y2="68.1938" gradientUnits="userSpaceOnUse">
<stop stop-color="#BE41B4"/>
<stop offset="1" stop-color="#FE1FE8"/>
</linearGradient>
</defs>
</svg>
