<svg width="128" height="128" viewBox="0 0 128 128" fill="none" xmlns="http://www.w3.org/2000/svg">
<path d="M100.188 70.3438V63.7812C100.188 61.9691 98.7184 60.5 96.9062 60.5H87.0625V24.4062C87.0625 15.3598 79.7027 8 70.6562 8H57.5312C48.4848 8 41.125 15.3598 41.125 24.4062V60.5H31.2812C29.4691 60.5 28 61.9691 28 63.7812V70.3438C28 85.5182 39.5049 98.0541 54.25 99.6917V113.438H37.8438C36.0316 113.438 34.5625 114.907 34.5625 116.719C34.5625 118.531 36.0316 120 37.8438 120H90.3438C92.1559 120 93.625 118.531 93.625 116.719C93.625 114.907 92.1559 113.438 90.3438 113.438H73.9375V99.6917C88.6826 98.0541 100.188 85.5182 100.188 70.3438ZM47.6875 24.4062C47.6875 18.9784 52.1034 14.5625 57.5312 14.5625H70.6562C76.0841 14.5625 80.5 18.9784 80.5 24.4062V60.5H47.6875V24.4062ZM47.6875 67.0625H80.5V70.3438C80.5 75.7716 76.0841 80.1875 70.6562 80.1875H57.5312C52.1034 80.1875 47.6875 75.7716 47.6875 70.3438V67.0625ZM67.375 113.438H60.8125V99.875H67.375V113.438ZM70.6562 93.3125H57.5312C44.8663 93.3125 34.5625 83.0087 34.5625 70.3438V67.0625H41.125V70.3438C41.125 79.3902 48.4848 86.75 57.5312 86.75H70.6562C79.7027 86.75 87.0625 79.3902 87.0625 70.3438V67.0625H93.625V70.3438C93.625 83.0087 83.3212 93.3125 70.6562 93.3125ZM57.5312 21.125C55.7191 21.125 54.25 22.5941 54.25 24.4062C54.25 26.2184 55.7191 27.6875 57.5312 27.6875C59.3434 27.6875 60.8125 26.2184 60.8125 24.4062C60.8125 22.5941 59.3434 21.125 57.5312 21.125ZM57.5312 47.375C55.7191 47.375 54.25 48.8441 54.25 50.6562C54.25 52.4684 55.7191 53.9375 57.5312 53.9375C59.3434 53.9375 60.8125 52.4684 60.8125 50.6562C60.8125 48.8441 59.3434 47.375 57.5312 47.375ZM57.5312 34.25C55.7191 34.25 54.25 35.7191 54.25 37.5312C54.25 39.3434 55.7191 40.8125 57.5312 40.8125C59.3434 40.8125 60.8125 39.3434 60.8125 37.5312C60.8125 35.7191 59.3434 34.25 57.5312 34.25ZM70.6562 21.125C68.8441 21.125 67.375 22.5941 67.375 24.4062C67.375 26.2184 68.8441 27.6875 70.6562 27.6875C72.4684 27.6875 73.9375 26.2184 73.9375 24.4062C73.9375 22.5941 72.4684 21.125 70.6562 21.125ZM70.6562 34.25C68.8441 34.25 67.375 35.7191 67.375 37.5312C67.375 39.3434 68.8441 40.8125 70.6562 40.8125C72.4684 40.8125 73.9375 39.3434 73.9375 37.5312C73.9375 35.7191 72.4684 34.25 70.6562 34.25ZM70.6562 47.375C68.8441 47.375 67.375 48.8441 67.375 50.6562C67.375 52.4684 68.8441 53.9375 70.6562 53.9375C72.4684 53.9375 73.9375 52.4684 73.9375 50.6562C73.9375 48.8441 72.4684 47.375 70.6562 47.375Z" fill="url(#paint0_linear_616_8)"/>
<defs>
<linearGradient id="paint0_linear_616_8" x1="55.5" y1="81" x2="66" y2="54.5" gradientUnits="userSpaceOnUse">
<stop stop-color="#FD3D00"/>
<stop offset="1" stop-color="#FFE600"/>
</linearGradient>
</defs>
</svg>
