<svg width="128" height="128" viewBox="0 0 128 128" fill="none" xmlns="http://www.w3.org/2000/svg">
<path d="M11.2812 14.5625H21.125V116.719C21.125 118.531 22.5939 120 24.4062 120C26.2186 120 27.6875 118.531 27.6875 116.719V100.094H37.5312C38.4019 100.094 39.236 99.7486 39.8511 99.1323L45.4533 93.5312H56.078L61.6802 99.1323C62.2953 99.7486 63.1294 100.094 64 100.094H116.719C118.531 100.094 120 98.6248 120 96.8125V31.1875C120 29.3751 118.531 27.9062 116.719 27.9062H27.6875V11.2812C27.6875 9.46887 26.2186 8 24.4062 8H11.2812C9.46887 8 8 9.46887 8 11.2812C8 13.0936 9.46887 14.5625 11.2812 14.5625ZM27.6875 54.1562H34.25V73.8438H27.6875V54.1562ZM113.438 34.4688V93.5312H65.3595L59.7573 87.9302C59.1422 87.3139 58.3081 86.9688 57.4375 86.9688H44.0938C43.2231 86.9688 42.389 87.3139 41.7739 87.9302L36.1717 93.5312H27.6875V80.4062H37.5312C39.3436 80.4062 40.8125 78.9373 40.8125 77.125V50.875C40.8125 49.0627 39.3436 47.5938 37.5312 47.5938H27.6875V34.4688H113.438Z" fill="url(#paint0_linear_679_33)" stroke="url(#paint1_linear_679_33)" stroke-width="3"/>
<path d="M57.4375 60.7188C61.7152 60.7188 65.3622 57.9758 66.7173 54.1562H86.9688V57.4375C86.9688 59.2498 88.4377 60.7188 90.25 60.7188H93.5312V73.8438H79.8423C78.4872 70.0242 74.8402 67.2812 70.5625 67.2812C65.1349 67.2812 60.7188 71.6974 60.7188 77.125C60.7188 82.5526 65.1349 86.9688 70.5625 86.9688C74.8402 86.9688 78.4872 84.2258 79.8423 80.4062H96.8125C98.6248 80.4062 100.094 78.9373 100.094 77.125V60.7188H103.375C105.187 60.7188 106.656 59.2498 106.656 57.4375V44.3125C106.656 42.5002 105.187 41.0312 103.375 41.0312H90.25C88.4377 41.0312 86.9688 42.5002 86.9688 44.3125V47.5938H66.7173C65.3622 43.7742 61.7152 41.0312 57.4375 41.0312C52.0099 41.0312 47.5938 45.4474 47.5938 50.875C47.5938 56.3026 52.0099 60.7188 57.4375 60.7188ZM70.5625 80.4062C68.7534 80.4062 67.2812 78.9341 67.2812 77.125C67.2812 75.3159 68.7534 73.8438 70.5625 73.8438C72.3716 73.8438 73.8438 75.3159 73.8438 77.125C73.8438 78.9341 72.3716 80.4062 70.5625 80.4062ZM93.5312 47.5938H100.094V54.1562H93.5312V47.5938ZM57.4375 47.5938C59.2466 47.5938 60.7188 49.0659 60.7188 50.875C60.7188 52.6841 59.2466 54.1562 57.4375 54.1562C55.6284 54.1562 54.1562 52.6841 54.1562 50.875C54.1562 49.0659 55.6284 47.5938 57.4375 47.5938Z" fill="url(#paint2_linear_679_33)"/>
<defs>
<linearGradient id="paint0_linear_679_33" x1="8" y1="120" x2="143.143" y2="61.0972" gradientUnits="userSpaceOnUse">
<stop stop-color="#0357D1"/>
<stop offset="1" stop-color="#27CDFC"/>
</linearGradient>
<linearGradient id="paint1_linear_679_33" x1="8" y1="120" x2="143.143" y2="61.0972" gradientUnits="userSpaceOnUse">
<stop stop-color="#0357D1"/>
<stop offset="1" stop-color="#27CDFC"/>
</linearGradient>
<linearGradient id="paint2_linear_679_33" x1="77.125" y1="86.9688" x2="77.125" y2="41.0313" gradientUnits="userSpaceOnUse">
<stop stop-color="#02AA93"/>
<stop offset="1" stop-color="#67FF80"/>
</linearGradient>
</defs>
</svg>
