<svg width="512" height="512" viewBox="0 0 512 512" fill="none" xmlns="http://www.w3.org/2000/svg">
<path d="M491.891 181.624C491.455 181.188 490.992 180.799 490.516 180.432C427.978 114.56 343.635 80 255.999 80C211.179 80 167.881 88.8797 127.31 106.391C81.5464 126.144 51.2272 150.503 20.1069 181.624C14.5494 187.181 14.7133 196.103 20.1069 201.497L60.1865 241.578C65.8762 247.266 75.1045 246.998 80.4793 241.14C125.923 191.601 188.258 164.319 255.999 164.319C323.74 164.319 386.074 191.601 431.518 241.14C436.924 247.032 446.155 247.234 451.81 241.578L491.89 201.497C492.022 201.366 492.134 201.225 492.259 201.09C492.345 200.994 492.435 200.9 492.518 200.803C497.356 195.283 497.157 186.889 491.891 181.624ZM256 304.85C225.493 304.85 197.251 318.539 178.513 342.406C174.122 348 174.602 355.992 179.63 361.021L246.062 427.453C251.548 432.941 260.452 432.938 265.936 427.453L332.368 361.021C337.396 355.992 337.876 348 333.485 342.406C314.748 318.539 286.506 304.85 256 304.85ZM256 192.425C195.925 192.425 139.747 217.09 99.3396 261.875C94.3273 267.43 94.5466 275.937 99.8361 281.226L139.503 320.894C145.265 326.658 154.68 326.309 160.015 320.21C184.189 292.587 219.174 276.744 256 276.744C292.825 276.744 327.81 292.587 351.984 320.21C357.328 326.32 366.743 326.648 372.497 320.894L412.163 281.226C417.453 275.937 417.672 267.43 412.66 261.875C372.254 217.093 316.079 192.425 256 192.425Z" fill="url(#paint0_linear_679_8)"/>
<defs>
<linearGradient id="paint0_linear_679_8" x1="236.843" y1="87.0672" x2="268.981" y2="419.442" gradientUnits="userSpaceOnUse">
<stop stop-color="#F70FA8"/>
<stop offset="1" stop-color="#F40631"/>
</linearGradient>
</defs>
</svg>
