<svg width="128" height="128" viewBox="0 0 128 128" fill="none" xmlns="http://www.w3.org/2000/svg">
<path d="M121.007 46.559C120.902 46.4537 120.79 46.3596 120.675 46.2711C105.561 30.3521 85.1785 22 63.9997 22C53.1682 22 42.7046 24.1459 32.8999 28.3778C21.8404 33.1515 14.5132 39.0383 6.9925 46.559C5.64943 47.9021 5.68905 50.0583 6.9925 51.3617L16.6784 61.0479C18.0534 62.4227 20.2836 62.3579 21.5825 60.9421C32.5648 48.9703 47.6289 42.3771 63.9997 42.3771C80.3704 42.3771 95.4345 48.9703 106.417 60.9421C107.723 62.3661 109.954 62.415 111.321 61.0479L121.007 51.3617C121.039 51.3302 121.066 51.296 121.096 51.2634C121.117 51.2403 121.139 51.2176 121.158 51.194C122.328 49.86 122.28 47.8314 121.007 46.559ZM63.9999 76.3388C56.6275 76.3388 49.8023 79.6469 45.274 85.4147C44.2128 86.7666 44.3288 88.6981 45.5439 89.9133L61.5983 105.968C62.9242 107.294 65.0758 107.293 66.4012 105.968L82.4557 89.9133C83.6707 88.6981 83.7867 86.7666 82.7255 85.4147C78.1974 79.6469 71.3722 76.3388 63.9999 76.3388ZM63.9999 49.1695C49.4818 49.1695 35.9055 55.1301 26.1404 65.9532C24.9291 67.2956 24.9821 69.3514 26.2604 70.6297L35.8465 80.216C37.239 81.6089 39.5144 81.5246 40.8037 80.0508C46.6457 73.3752 55.1003 69.5465 63.9999 69.5465C72.8995 69.5465 81.3541 73.3752 87.196 80.0508C88.4877 81.5274 90.7628 81.6066 92.1535 80.216L101.739 70.6297C103.018 69.3514 103.071 67.2956 101.859 65.9532C92.0948 55.1308 78.5191 49.1695 63.9999 49.1695Z" fill="url(#paint0_linear_678_483)"/>
<path d="M115.747 69.9461H107C105.895 69.9461 105 70.8415 105 71.9461V103C105 104.105 105.895 105 107 105H115.747C116.851 105 117.747 104.105 117.747 103V71.9461C117.747 70.8415 116.851 69.9461 115.747 69.9461Z" fill="url(#paint1_linear_678_483)"/>
<path d="M117.747 55.2295C117.766 56.0779 117.615 56.922 117.304 57.712C116.992 58.5017 116.526 59.2211 115.933 59.8284C115.339 60.4353 114.63 60.9179 113.848 61.2472C113.066 61.5769 112.225 61.7465 111.376 61.7469C110.527 61.7469 109.687 61.5777 108.904 61.2488C108.122 60.9195 107.413 60.4373 106.819 59.8308C106.225 59.2238 105.759 58.5045 105.447 57.7148C105.135 56.9252 104.984 56.0815 105.003 55.2326C105.04 53.5671 105.727 51.9827 106.918 50.8176C108.108 49.653 109.707 49.0004 111.373 49C113.039 48.9996 114.638 49.6514 115.83 50.8157C117.021 51.9799 117.709 53.564 117.747 55.2295Z" fill="url(#paint2_linear_678_483)"/>
<path d="M115.747 69.9461H107C105.895 69.9461 105 70.8415 105 71.9461V103C105 104.105 105.895 105 107 105H115.747C116.851 105 117.747 104.105 117.747 103V71.9461C117.747 70.8415 116.851 69.9461 115.747 69.9461Z" stroke="url(#paint3_linear_678_483)" stroke-width="3"/>
<path d="M117.747 55.2295C117.766 56.0779 117.615 56.922 117.304 57.712C116.992 58.5017 116.526 59.2211 115.933 59.8284C115.339 60.4353 114.63 60.9179 113.848 61.2472C113.066 61.5769 112.225 61.7465 111.376 61.7469C110.527 61.7469 109.687 61.5777 108.904 61.2488C108.122 60.9195 107.413 60.4373 106.819 59.8308C106.225 59.2238 105.759 58.5045 105.447 57.7148C105.135 56.9252 104.984 56.0815 105.003 55.2326C105.04 53.5671 105.727 51.9827 106.918 50.8176C108.108 49.653 109.707 49.0004 111.373 49C113.039 48.9996 114.638 49.6514 115.83 50.8157C117.021 51.9799 117.709 53.564 117.747 55.2295Z" stroke="url(#paint4_linear_678_483)" stroke-width="3"/>
<defs>
<linearGradient id="paint0_linear_678_483" x1="6" y1="64.4811" x2="122" y2="64.4811" gradientUnits="userSpaceOnUse">
<stop stop-color="#9EE170"/>
<stop offset="1" stop-color="#E5ECA2"/>
</linearGradient>
<linearGradient id="paint1_linear_678_483" x1="111.374" y1="105" x2="111.374" y2="49" gradientUnits="userSpaceOnUse">
<stop stop-color="#FDA700"/>
<stop offset="1" stop-color="#FFDE00"/>
</linearGradient>
<linearGradient id="paint2_linear_678_483" x1="111.374" y1="105" x2="111.374" y2="49" gradientUnits="userSpaceOnUse">
<stop stop-color="#FDA700"/>
<stop offset="1" stop-color="#FFDE00"/>
</linearGradient>
<linearGradient id="paint3_linear_678_483" x1="111.374" y1="105" x2="111.374" y2="49" gradientUnits="userSpaceOnUse">
<stop stop-color="#FDA700"/>
<stop offset="1" stop-color="#FFDE00"/>
</linearGradient>
<linearGradient id="paint4_linear_678_483" x1="111.374" y1="105" x2="111.374" y2="49" gradientUnits="userSpaceOnUse">
<stop stop-color="#FDA700"/>
<stop offset="1" stop-color="#FFDE00"/>
</linearGradient>
</defs>
</svg>
