<svg width="128" height="128" viewBox="0 0 128 128" fill="none" xmlns="http://www.w3.org/2000/svg">
<path d="M115.625 17H12.375C9.9585 17 8 18.9585 8 21.375V90.2086C8 91.369 8.46057 92.4815 9.28089 93.3018L26.4895 110.51C27.3098 111.331 28.4232 111.792 29.5836 111.792H98.4164C99.5766 111.792 100.691 111.331 101.51 110.51L118.719 93.3018C119.54 92.4815 120 91.369 120 90.2086V21.375C120 18.9585 118.042 17 115.625 17ZM111.25 88.3962L96.6051 103.042H31.3951L16.75 88.3962V25.75H111.25V88.3962ZM35.0934 93.3018C35.9145 94.1222 37.0271 94.5836 38.1875 94.5836H89.8125C90.9729 94.5836 92.0855 94.1222 92.9066 93.3018L101.51 84.698C102.331 83.8777 102.791 82.7643 102.791 81.6047V38.5836C102.791 36.1671 100.833 34.2086 98.4164 34.2086H29.5836C27.1671 34.2086 25.2086 36.1671 25.2086 38.5836V81.6047C25.2086 82.7643 25.6692 83.8777 26.4895 84.698L35.0934 93.3018ZM33.9586 42.9586H94.0414V79.7924L88.0001 85.8336H39.9999L33.9586 79.7924V42.9586ZM59.625 64.3961V55.7922C59.625 53.3758 61.5835 51.4172 64 51.4172C66.4165 51.4172 68.375 53.3758 68.375 55.7922V64.3961C68.375 66.8126 66.4165 68.7711 64 68.7711C61.5835 68.7711 59.625 66.8126 59.625 64.3961ZM76.8336 64.3961V55.7922C76.8336 53.3758 78.7921 51.4172 81.2086 51.4172C83.6251 51.4172 85.5836 53.3758 85.5836 55.7922V64.3961C85.5836 66.8126 83.6251 68.7711 81.2086 68.7711C78.7921 68.7711 76.8336 66.8126 76.8336 64.3961ZM42.4164 64.3961V55.7922C42.4164 53.3758 44.3749 51.4172 46.7914 51.4172C49.2079 51.4172 51.1664 53.3758 51.1664 55.7922V64.3961C51.1664 66.8126 49.2079 68.7711 46.7914 68.7711C44.3749 68.7711 42.4164 66.8126 42.4164 64.3961Z" fill="url(#paint0_linear_616_33)"/>
<defs>
<linearGradient id="paint0_linear_616_33" x1="32" y1="74" x2="110" y2="36.5" gradientUnits="userSpaceOnUse">
<stop stop-color="#8800C8"/>
<stop offset="1" stop-color="#FF4AED"/>
</linearGradient>
</defs>
</svg>
