<svg width="128" height="128" viewBox="0 0 128 128" fill="none" xmlns="http://www.w3.org/2000/svg">
<g clip-path="url(#clip0_678_483)">
<path d="M121.007 46.559C120.902 46.4537 120.79 46.3596 120.675 46.2711C105.561 30.3521 85.1785 22 63.9997 22C53.1682 22 42.7046 24.1459 32.8999 28.3778C21.8404 33.1515 14.5132 39.0383 6.9925 46.559C5.64943 47.9021 5.68905 50.0583 6.9925 51.3617L16.6784 61.0479C18.0534 62.4227 20.2836 62.3579 21.5825 60.9421C32.5648 48.9703 47.6289 42.3771 63.9997 42.3771C80.3704 42.3771 95.4345 48.9703 106.417 60.9421C107.723 62.3661 109.954 62.415 111.321 61.0479L121.007 51.3617C121.039 51.3302 121.066 51.296 121.096 51.2634C121.117 51.2403 121.139 51.2176 121.158 51.194C122.328 49.86 122.28 47.8314 121.007 46.559ZM63.9999 76.3388C56.6275 76.3388 49.8023 79.6469 45.274 85.4147C44.2128 86.7666 44.3288 88.6981 45.5439 89.9133L61.5983 105.968C62.9242 107.294 65.0758 107.293 66.4012 105.968L82.4557 89.9133C83.6707 88.6981 83.7867 86.7666 82.7255 85.4147C78.1974 79.6469 71.3722 76.3388 63.9999 76.3388ZM63.9999 49.1695C49.4818 49.1695 35.9055 55.1301 26.1404 65.9532C24.9291 67.2956 24.9821 69.3514 26.2604 70.6297L35.8465 80.216C37.239 81.6089 39.5144 81.5246 40.8037 80.0508C46.6457 73.3752 55.1003 69.5465 63.9999 69.5465C72.8995 69.5465 81.3541 73.3752 87.196 80.0508C88.4877 81.5274 90.7628 81.6066 92.1535 80.216L101.739 70.6297C103.018 69.3514 103.071 67.2956 101.859 65.9532C92.0948 55.1308 78.5191 49.1695 63.9999 49.1695Z" fill="url(#paint0_linear_678_483)"/>
<path d="M94.7877 65.4142C94.0066 64.6332 92.7403 64.6332 91.9592 65.4142L89.4142 67.9592C88.6332 68.7403 88.6332 70.0066 89.4142 70.7877L100.212 81.5858C100.993 82.3668 100.993 83.6332 100.212 84.4142L89.4142 95.2123C88.6332 95.9934 88.6332 97.2597 89.4142 98.0408L91.9592 100.586C92.7403 101.367 94.0066 101.367 94.7877 100.586L105.586 89.7877C106.367 89.0066 107.633 89.0066 108.414 89.7877L119.212 100.586C119.993 101.367 121.26 101.367 122.041 100.586L124.586 98.0408C125.367 97.2597 125.367 95.9934 124.586 95.2123L113.788 84.4142C113.007 83.6332 113.007 82.3668 113.788 81.5858L124.586 70.7877C125.367 70.0066 125.367 68.7403 124.586 67.9592L122.041 65.4142C121.26 64.6332 119.993 64.6332 119.212 65.4142L108.414 76.2123C107.633 76.9934 106.367 76.9934 105.586 76.2123L94.7877 65.4142Z" fill="url(#paint1_linear_678_483)" stroke="url(#paint2_linear_678_483)" stroke-width="6"/>
</g>
<defs>
<linearGradient id="paint0_linear_678_483" x1="6" y1="64.4811" x2="122" y2="64.4811" gradientUnits="userSpaceOnUse">
<stop stop-color="#9EE170"/>
<stop offset="1" stop-color="#E5ECA2"/>
</linearGradient>
<linearGradient id="paint1_linear_678_483" x1="124.716" y1="65.0861" x2="109.894" y2="102.303" gradientUnits="userSpaceOnUse">
<stop stop-color="#FE0F7C"/>
<stop offset="1" stop-color="#DF0066"/>
</linearGradient>
<linearGradient id="paint2_linear_678_483" x1="124.716" y1="65.0861" x2="109.894" y2="102.303" gradientUnits="userSpaceOnUse">
<stop stop-color="#FE0F7C"/>
<stop offset="1" stop-color="#DF0066"/>
</linearGradient>
<clipPath id="clip0_678_483">
<rect width="128" height="128" fill="white"/>
</clipPath>
</defs>
</svg>
