<svg width="128" height="128" viewBox="0 0 128 128" fill="none" xmlns="http://www.w3.org/2000/svg">
<path d="M119.041 46.696C118.94 46.5943 118.832 46.5035 118.72 46.418C104.128 31.048 84.4482 22.9839 63.9997 22.9839C53.5417 22.9839 43.4389 25.0558 33.9723 29.1418C23.2942 33.7509 16.2197 39.4346 8.95828 46.696C7.66152 47.9928 7.69977 50.0746 8.95828 51.3331L18.3102 60.6853C19.6378 62.0127 21.791 61.9501 23.0452 60.5832C33.6488 49.0242 48.1934 42.6584 63.9997 42.6584C79.8059 42.6584 94.3506 49.0242 104.954 60.5832C106.216 61.958 108.369 62.0053 109.689 60.6853L119.041 51.3331C119.072 51.3027 119.098 51.2697 119.127 51.2382C119.147 51.2159 119.168 51.194 119.187 51.1712C120.316 49.8832 120.27 47.9245 119.041 46.696ZM63.9999 75.449C56.8818 75.449 50.2919 78.6429 45.9198 84.2119C44.8951 85.5172 45.0071 87.382 46.1803 88.5554L61.6811 104.056C62.9613 105.337 65.0387 105.336 66.3184 104.056L81.8193 88.5554C82.9924 87.382 83.1044 85.5172 82.0798 84.2119C77.7079 78.6429 71.118 75.449 63.9999 75.449ZM63.9999 49.2165C49.9824 49.2165 36.8742 54.9716 27.4459 65.4215C26.2764 66.7176 26.3275 68.7025 27.5618 69.9367L36.8174 79.1924C38.1618 80.5373 40.3587 80.4559 41.6036 79.033C47.2441 72.5875 55.4072 68.8909 63.9999 68.8909C72.5926 68.8909 80.7557 72.5875 86.3962 79.033C87.6433 80.4586 89.84 80.5351 91.1826 79.1924L100.438 69.9367C101.672 68.7025 101.724 66.7176 100.554 65.4215C91.126 54.9722 78.0185 49.2165 63.9999 49.2165Z" fill="url(#paint0_linear_616_125)"/>
<defs>
<linearGradient id="paint0_linear_616_125" x1="63.9999" y1="105.016" x2="63.9999" y2="22.9839" gradientUnits="userSpaceOnUse">
<stop stop-color="#00FF85"/>
<stop offset="1" stop-color="#FFE600"/>
</linearGradient>
</defs>
</svg>
