<svg width="24" height="24" viewBox="0 0 24 24" fill="none" xmlns="http://www.w3.org/2000/svg">
<path fill-rule="evenodd" clip-rule="evenodd" d="M11.9032 4.04936C12.0765 4.13262 12.1866 4.30781 12.1866 4.50001V18.7903C12.1866 18.9825 12.0765 19.1577 11.9032 19.241C11.73 19.3242 11.5244 19.3008 11.3743 19.1807L6.40755 15.2074H2.5C2.22386 15.2074 2 14.9835 2 14.7074V8.58295C2 8.30681 2.22386 8.08295 2.5 8.08295H6.40755L11.3743 4.10958C11.5244 3.98951 11.73 3.9661 11.9032 4.04936ZM11.1866 5.54032L6.89528 8.97339C6.80663 9.04431 6.69647 9.08295 6.58294 9.08295H3V14.2074H6.58294C6.69647 14.2074 6.80663 14.246 6.89528 14.317L11.1866 17.75V5.54032ZM21.33 8.63293C21.5253 8.82819 21.5253 9.14477 21.33 9.34004L18.6926 11.9775L21.33 14.6149C21.5253 14.8102 21.5253 15.1268 21.33 15.322C21.1347 15.5173 20.8181 15.5173 20.6229 15.322L17.9854 12.6846L15.348 15.322C15.1527 15.5173 14.8362 15.5173 14.6409 15.322C14.4456 15.1268 14.4456 14.8102 14.6409 14.6149L17.2783 11.9775L14.6409 9.34004C14.4456 9.14477 14.4456 8.82819 14.6409 8.63293C14.8362 8.43767 15.1527 8.43767 15.348 8.63293L17.9854 11.2704L20.6229 8.63293C20.8181 8.43767 21.1347 8.43767 21.33 8.63293Z" fill="url(#paint0_linear_679_22)"/>
<path d="M11.9032 4.04936L11.6 4.68027L11.6 4.68027L11.9032 4.04936ZM11.9032 19.241L12.2065 19.8719L12.2065 19.8719L11.9032 19.241ZM11.3743 19.1807L11.8116 18.6341L11.8116 18.6341L11.3743 19.1807ZM6.40755 15.2074L6.84483 14.6608C6.72071 14.5615 6.5665 14.5074 6.40755 14.5074V15.2074ZM6.40755 8.08295V8.78295C6.5665 8.78295 6.72071 8.72886 6.84483 8.62956L6.40755 8.08295ZM11.3743 4.10958L10.937 3.56297L10.937 3.56297L11.3743 4.10958ZM6.89528 8.97339L6.458 8.42678L6.458 8.42678L6.89528 8.97339ZM11.1866 5.54032H11.8866C11.8866 5.27124 11.7324 5.02597 11.4899 4.90941C11.2474 4.79285 10.9595 4.82562 10.7494 4.99371L11.1866 5.54032ZM3 9.08295V8.38295C2.6134 8.38295 2.3 8.69635 2.3 9.08295H3ZM3 14.2074H2.3C2.3 14.594 2.6134 14.9074 3 14.9074V14.2074ZM6.89528 14.317L6.458 14.8636L6.458 14.8636L6.89528 14.317ZM11.1866 17.75L10.7494 18.2966C10.9595 18.4647 11.2474 18.4975 11.4899 18.3809C11.7324 18.2644 11.8866 18.0191 11.8866 17.75H11.1866ZM21.33 9.34004L20.835 8.84506L20.835 8.84506L21.33 9.34004ZM21.33 8.63293L20.835 9.1279L20.835 9.1279L21.33 8.63293ZM18.6926 11.9775L18.1976 11.4825C17.9242 11.7559 17.9242 12.1991 18.1976 12.4724L18.6926 11.9775ZM21.33 15.322L20.835 14.827L20.835 14.827L21.33 15.322ZM20.6229 15.322L21.1179 14.827L21.1179 14.827L20.6229 15.322ZM17.9854 12.6846L18.4804 12.1896C18.3491 12.0583 18.1711 11.9846 17.9854 11.9846C17.7998 11.9846 17.6217 12.0583 17.4905 12.1896L17.9854 12.6846ZM15.348 15.322L15.843 15.817L15.843 15.817L15.348 15.322ZM14.6409 15.322L14.1459 15.817L14.1459 15.817L14.6409 15.322ZM14.6409 14.6149L14.1459 14.1199L14.1459 14.1199L14.6409 14.6149ZM17.2783 11.9775L17.7733 12.4724C17.9046 12.3412 17.9783 12.1631 17.9783 11.9775C17.9783 11.7918 17.9046 11.6138 17.7733 11.4825L17.2783 11.9775ZM14.6409 9.34004L14.1459 9.83501L14.1459 9.83501L14.6409 9.34004ZM14.6409 8.63293L14.1459 8.13795L14.1459 8.13795L14.6409 8.63293ZM15.348 8.63293L15.843 8.13795L15.843 8.13795L15.348 8.63293ZM17.9854 11.2704L17.4905 11.7653C17.6217 11.8966 17.7998 11.9704 17.9854 11.9704C18.1711 11.9704 18.3491 11.8966 18.4804 11.7653L17.9854 11.2704ZM20.6229 8.63293L21.1179 9.1279L21.1179 9.1279L20.6229 8.63293ZM12.8866 4.50001C12.8866 4.03873 12.6222 3.61828 12.2065 3.41845L11.6 4.68027C11.5307 4.64697 11.4866 4.57689 11.4866 4.50001H12.8866ZM12.8866 18.7903V4.50001H11.4866V18.7903H12.8866ZM12.2065 19.8719C12.6222 19.672 12.8866 19.2516 12.8866 18.7903H11.4866C11.4866 18.7134 11.5307 18.6433 11.6 18.61L12.2065 19.8719ZM10.937 19.7274C11.2972 20.0155 11.7907 20.0717 12.2065 19.8719L11.6 18.61C11.6693 18.5767 11.7515 18.5861 11.8116 18.6341L10.937 19.7274ZM5.97027 15.754L10.937 19.7274L11.8116 18.6341L6.84483 14.6608L5.97027 15.754ZM2.5 15.9074H6.40755V14.5074H2.5V15.9074ZM1.3 14.7074C1.3 15.3701 1.83726 15.9074 2.5 15.9074V14.5074C2.61046 14.5074 2.7 14.5969 2.7 14.7074H1.3ZM1.3 8.58295V14.7074H2.7V8.58295H1.3ZM2.5 7.38295C1.83726 7.38295 1.3 7.92021 1.3 8.58295H2.7C2.7 8.69341 2.61046 8.78295 2.5 8.78295V7.38295ZM6.40755 7.38295H2.5V8.78295H6.40755V7.38295ZM10.937 3.56297L5.97026 7.53634L6.84483 8.62956L11.8116 4.65619L10.937 3.56297ZM12.2065 3.41845C11.7907 3.21863 11.2972 3.27481 10.937 3.56297L11.8116 4.65619C11.7515 4.70421 11.6693 4.71358 11.6 4.68027L12.2065 3.41845ZM7.33257 9.52L11.6239 6.08693L10.7494 4.99371L6.458 8.42678L7.33257 9.52ZM6.58294 9.78295C6.85542 9.78295 7.1198 9.69022 7.33257 9.51999L6.458 8.42678C6.49346 8.39841 6.53752 8.38295 6.58294 8.38295V9.78295ZM3 9.78295H6.58294V8.38295H3V9.78295ZM3.7 14.2074V9.08295H2.3V14.2074H3.7ZM6.58294 13.5074H3V14.9074H6.58294V13.5074ZM7.33257 13.7704C7.11979 13.6001 6.85542 13.5074 6.58294 13.5074V14.9074C6.53752 14.9074 6.49346 14.8919 6.458 14.8636L7.33257 13.7704ZM11.6239 17.2034L7.33257 13.7704L6.458 14.8636L10.7494 18.2966L11.6239 17.2034ZM10.4866 5.54032V17.75H11.8866V5.54032H10.4866ZM21.825 9.83501C22.2936 9.36638 22.2936 8.60658 21.825 8.13795L20.835 9.1279C20.7569 9.0498 20.7569 8.92316 20.835 8.84506L21.825 9.83501ZM19.1875 12.4724L21.825 9.83501L20.835 8.84506L18.1976 11.4825L19.1875 12.4724ZM18.1976 12.4724L20.835 15.1099L21.825 14.1199L19.1875 11.4825L18.1976 12.4724ZM20.835 15.1099C20.7569 15.0318 20.7569 14.9051 20.835 14.827L21.825 15.817C22.2936 15.3484 22.2936 14.5886 21.825 14.1199L20.835 15.1099ZM20.835 14.827C20.9131 14.7489 21.0398 14.7489 21.1179 14.827L20.1279 15.817C20.5965 16.2856 21.3563 16.2856 21.825 15.817L20.835 14.827ZM21.1179 14.827L18.4804 12.1896L17.4905 13.1796L20.1279 15.817L21.1179 14.827ZM15.843 15.817L18.4804 13.1796L17.4905 12.1896L14.853 14.827L15.843 15.817ZM14.1459 15.817C14.6146 16.2856 15.3744 16.2856 15.843 15.817L14.853 14.827C14.9311 14.7489 15.0578 14.7489 15.1359 14.827L14.1459 15.817ZM14.1459 14.1199C13.6773 14.5886 13.6773 15.3484 14.1459 15.817L15.1359 14.827C15.214 14.9051 15.214 15.0318 15.1359 15.1099L14.1459 14.1199ZM16.7834 11.4825L14.1459 14.1199L15.1359 15.1099L17.7733 12.4724L16.7834 11.4825ZM17.7733 11.4825L15.1359 8.84506L14.1459 9.83501L16.7834 12.4724L17.7733 11.4825ZM15.1359 8.84506C15.214 8.92317 15.214 9.0498 15.1359 9.1279L14.1459 8.13795C13.6773 8.60658 13.6773 9.36638 14.1459 9.83501L15.1359 8.84506ZM15.1359 9.1279C15.0578 9.20601 14.9311 9.20601 14.853 9.1279L15.843 8.13795C15.3744 7.66932 14.6146 7.66932 14.1459 8.13795L15.1359 9.1279ZM14.853 9.1279L17.4905 11.7653L18.4804 10.7754L15.843 8.13795L14.853 9.1279ZM20.1279 8.13795L17.4905 10.7754L18.4804 11.7653L21.1179 9.1279L20.1279 8.13795ZM21.825 8.13796C21.3563 7.66932 20.5965 7.66932 20.1279 8.13796L21.1179 9.1279C21.0398 9.20601 20.9131 9.20601 20.835 9.1279L21.825 8.13796Z" fill="url(#paint1_linear_679_22)"/>
<defs>
<linearGradient id="paint0_linear_679_22" x1="21.751" y1="3.4942" x2="16.0468" y2="21.2853" gradientUnits="userSpaceOnUse">
<stop stop-color="#FE0F7C"/>
<stop offset="1" stop-color="#DF0066"/>
</linearGradient>
<linearGradient id="paint1_linear_679_22" x1="21.751" y1="3.4942" x2="16.0468" y2="21.2853" gradientUnits="userSpaceOnUse">
<stop stop-color="#FE0F7C"/>
<stop offset="1" stop-color="#DF0066"/>
</linearGradient>
</defs>
</svg>
