<svg width="24" height="24" viewBox="0 0 24 24" fill="none" xmlns="http://www.w3.org/2000/svg">
<path d="M6.98634 9.07079H3.4107C3.30177 9.07079 3.19731 9.11358 3.12029 9.18977C3.04327 9.26596 3 9.36928 3 9.47702V15.1643C3 15.2721 3.04327 15.3754 3.12029 15.4516C3.19731 15.5278 3.30177 15.5706 3.4107 15.5706H6.98634C7.17618 15.5707 7.36012 15.6359 7.50689 15.7549L12.2027 19.5634C12.264 19.608 12.3365 19.6349 12.4123 19.641C12.488 19.6472 12.564 19.6325 12.6318 19.5984C12.6996 19.5644 12.7565 19.5124 12.7962 19.4484C12.836 19.3843 12.8569 19.3106 12.8567 19.2353V5.40601C12.8567 5.33091 12.8356 5.25729 12.7958 5.19334C12.756 5.12937 12.6991 5.07758 12.6314 5.0437C12.5635 5.00982 12.4876 4.99517 12.412 5.0014C12.3363 5.00764 12.2639 5.0345 12.2027 5.07899L7.50689 8.88747C7.35999 9.00621 7.17606 9.07098 6.98634 9.07079Z" stroke="url(#paint0_linear_679_27)" stroke-width="2.4" stroke-linecap="round" stroke-linejoin="round"/>
<path fill-rule="evenodd" clip-rule="evenodd" d="M20.2157 6.11466C19.9291 5.62861 19.3029 5.46688 18.8168 5.75338C18.3308 6.0399 18.169 6.66616 18.4556 7.15219C19.4187 8.78597 19.9569 10.1155 19.9569 12.3208C19.9569 14.5209 19.3955 15.8665 18.4516 17.4961C18.1688 17.9842 18.3354 18.6093 18.8236 18.8921C19.3117 19.1749 19.9367 19.0084 20.2196 18.5201C21.2757 16.6967 22 14.9955 22 12.3208C22 9.65115 21.306 7.96434 20.2157 6.11466ZM17.7793 8.60254C17.5207 8.10113 16.9046 7.90431 16.4031 8.16295C15.9017 8.42158 15.7048 9.03773 15.9635 9.53915C16.4143 10.4131 16.6712 11.3143 16.6712 12.3208C16.6712 13.3072 16.4029 14.236 15.9604 15.1085C15.7051 15.6116 15.9061 16.2264 16.4092 16.4817C16.9124 16.7369 17.5272 16.536 17.7825 16.0328C18.3399 14.934 18.7143 13.6895 18.7143 12.3208C18.7143 10.9395 18.3553 9.71919 17.7793 8.60254Z" fill="url(#paint1_linear_679_27)"/>
<defs>
<linearGradient id="paint0_linear_679_27" x1="7.92837" y1="19.6424" x2="7.92837" y2="5" gradientUnits="userSpaceOnUse">
<stop stop-color="#02AA93"/>
<stop offset="1" stop-color="#67FF80"/>
</linearGradient>
<linearGradient id="paint1_linear_679_27" x1="18.9248" y1="19.0298" x2="18.9248" y2="5.61169" gradientUnits="userSpaceOnUse">
<stop stop-color="#02AA93"/>
<stop offset="1" stop-color="#67FF80"/>
</linearGradient>
</defs>
</svg>
