<svg width="128" height="128" viewBox="0 0 128 128" fill="none" xmlns="http://www.w3.org/2000/svg">
<path fill-rule="evenodd" clip-rule="evenodd" d="M49.9921 6H77.1796C79.0566 6 80.5781 7.52158 80.5781 9.39844V19.5938H90.7733C92.6503 19.5938 94.1719 21.1153 94.1719 22.9922V118.602C94.1719 120.478 92.6503 122 90.7733 122H36.3983C34.5215 122 33 120.478 33 118.602V22.9922C33 21.1153 34.5215 19.5938 36.3983 19.5938H46.5938V9.39844C46.5938 7.52158 48.1153 6 49.9921 6ZM73.7812 12.7969H53.3906V19.5938H73.7812V12.7969ZM39.7969 53.8046V115.203H87.375V53.8046H39.7969ZM39.7969 47.0079H87.375V26.3906H39.7969V47.0079ZM62.2879 80.9921H70.3827C71.5606 80.9921 72.6544 81.602 73.2735 82.604C73.8929 83.6057 73.9492 84.857 73.4224 85.9104L66.6255 99.5042C65.7879 101.18 63.748 101.865 62.066 101.024C60.3874 100.184 59.7069 98.1431 60.5462 96.4643L64.8841 87.7889H56.7892C55.6113 87.7889 54.5175 87.179 53.8982 86.177C53.279 85.1753 53.2227 83.9239 53.7493 82.8705L60.5462 69.2768C61.3857 67.5979 63.4273 66.9179 65.1059 67.7572C66.7845 68.5967 67.4651 70.6378 66.6255 72.3167L62.2879 80.9921Z" fill="url(#paint0_linear_679_18)"/>
<path d="M80.5781 19.5938H79.0781V21.0938H80.5781V19.5938ZM46.5938 19.5938V21.0938H48.0938V19.5938H46.5938ZM53.3906 12.7969V11.2969H51.8906V12.7969H53.3906ZM73.7812 12.7969H75.2812V11.2969H73.7812V12.7969ZM53.3906 19.5938H51.8906V21.0938H53.3906V19.5938ZM73.7812 19.5938V21.0938H75.2812V19.5938H73.7812ZM39.7969 115.203H38.2969V116.703H39.7969V115.203ZM39.7969 53.8046V52.3046H38.2969V53.8046H39.7969ZM87.375 115.203V116.703H88.875V115.203H87.375ZM87.375 53.8046H88.875V52.3046H87.375V53.8046ZM87.375 47.0079V48.5079H88.875V47.0079H87.375ZM39.7969 47.0079H38.2969V48.5079H39.7969V47.0079ZM87.375 26.3906H88.875V24.8906H87.375V26.3906ZM39.7969 26.3906V24.8906H38.2969V26.3906H39.7969ZM62.2879 80.9921L60.9462 80.3212L59.8608 82.4921H62.2879V80.9921ZM73.2735 82.604L71.9975 83.3925L71.9977 83.3928L73.2735 82.604ZM73.4224 85.9104L72.0808 85.2395L72.0808 85.2396L73.4224 85.9104ZM66.6255 99.5042L65.2839 98.8334L65.2838 98.8335L66.6255 99.5042ZM62.066 101.024L61.395 102.365L61.3952 102.365L62.066 101.024ZM60.5462 96.4643L59.2045 95.7934L59.2045 95.7935L60.5462 96.4643ZM64.8841 87.7889L66.2257 88.4598L67.3112 86.2889H64.8841V87.7889ZM53.8982 86.177L52.6222 86.9657L52.6223 86.9657L53.8982 86.177ZM53.7493 82.8705L52.4076 82.1997L52.4076 82.1998L53.7493 82.8705ZM60.5462 69.2768L59.2046 68.6059L59.2045 68.606L60.5462 69.2768ZM65.1059 67.7572L65.7769 66.4156L65.7768 66.4155L65.1059 67.7572ZM66.6255 72.3167L65.2839 71.6458L65.2839 71.6459L66.6255 72.3167ZM77.1796 4.5H49.9921V7.5H77.1796V4.5ZM82.0781 9.39844C82.0781 6.69314 79.885 4.5 77.1796 4.5V7.5C78.2282 7.5 79.0781 8.35003 79.0781 9.39844H82.0781ZM82.0781 19.5938V9.39844H79.0781V19.5938H82.0781ZM90.7733 18.0938H80.5781V21.0938H90.7733V18.0938ZM95.6719 22.9922C95.6719 20.2869 93.4787 18.0938 90.7733 18.0938V21.0938C91.8219 21.0938 92.6719 21.9438 92.6719 22.9922H95.6719ZM95.6719 118.602V22.9922H92.6719V118.602H95.6719ZM90.7733 123.5C93.4787 123.5 95.6719 121.307 95.6719 118.602H92.6719C92.6719 119.65 91.822 120.5 90.7733 120.5V123.5ZM36.3983 123.5H90.7733V120.5H36.3983V123.5ZM31.5 118.602C31.5 121.307 33.6931 123.5 36.3983 123.5V120.5C35.35 120.5 34.5 119.65 34.5 118.602H31.5ZM31.5 22.9922V118.602H34.5V22.9922H31.5ZM36.3983 18.0938C33.6931 18.0938 31.5 20.287 31.5 22.9922H34.5C34.5 21.9437 35.35 21.0938 36.3983 21.0938V18.0938ZM46.5938 18.0938H36.3983V21.0938H46.5938V18.0938ZM45.0938 9.39844V19.5938H48.0938V9.39844H45.0938ZM49.9921 4.5C47.2868 4.5 45.0938 6.6932 45.0938 9.39844H48.0938C48.0938 8.34996 48.9438 7.5 49.9921 7.5V4.5ZM53.3906 14.2969H73.7812V11.2969H53.3906V14.2969ZM54.8906 19.5938V12.7969H51.8906V19.5938H54.8906ZM73.7812 18.0938H53.3906V21.0938H73.7812V18.0938ZM72.2812 12.7969V19.5938H75.2812V12.7969H72.2812ZM41.2969 115.203V53.8046H38.2969V115.203H41.2969ZM87.375 113.703H39.7969V116.703H87.375V113.703ZM85.875 53.8046V115.203H88.875V53.8046H85.875ZM39.7969 55.3046H87.375V52.3046H39.7969V55.3046ZM87.375 45.5079H39.7969V48.5079H87.375V45.5079ZM85.875 26.3906V47.0079H88.875V26.3906H85.875ZM39.7969 27.8906H87.375V24.8906H39.7969V27.8906ZM41.2969 47.0079V26.3906H38.2969V47.0079H41.2969ZM70.3827 79.4921H62.2879V82.4921H70.3827V79.4921ZM74.5496 81.8155C73.6571 80.3713 72.0806 79.4921 70.3827 79.4921V82.4921C71.0406 82.4921 71.6516 82.8327 71.9975 83.3925L74.5496 81.8155ZM74.764 86.5814C75.5234 85.0629 75.4423 83.2592 74.5493 81.8151L71.9977 83.3928C72.3436 83.9522 72.3751 84.6511 72.0808 85.2395L74.764 86.5814ZM67.9672 100.175L74.764 86.5813L72.0808 85.2396L65.2839 98.8334L67.9672 100.175ZM61.3952 102.365C63.8198 103.578 66.7599 102.59 67.9672 100.175L65.2838 98.8335C64.8159 99.7695 63.6762 100.152 62.7368 99.6822L61.3952 102.365ZM59.2045 95.7935C57.9947 98.2134 58.9757 101.155 61.395 102.365L62.737 99.6822C61.7991 99.2131 61.419 98.0728 61.8878 97.135L59.2045 95.7935ZM63.5425 87.1181L59.2045 95.7934L61.8878 97.1351L66.2257 88.4598L63.5425 87.1181ZM56.7892 89.2889H64.8841V86.2889H56.7892V89.2889ZM52.6223 86.9657C53.5149 88.4097 55.0913 89.2889 56.7892 89.2889V86.2889C56.1313 86.2889 55.5202 85.9483 55.174 85.3883L52.6223 86.9657ZM52.4076 82.1998C51.6486 83.7181 51.7297 85.5217 52.6222 86.9657L55.1741 85.3883C54.8283 84.8289 54.7968 84.1298 55.091 83.5412L52.4076 82.1998ZM59.2045 68.606L52.4076 82.1997L55.0909 83.5413L61.8878 69.9476L59.2045 68.606ZM65.7768 66.4155C63.3574 65.2059 60.4147 66.1859 59.2046 68.6059L61.8878 69.9477C62.3567 69.0099 63.4972 68.6299 64.4351 69.0988L65.7768 66.4155ZM67.9671 72.9876C69.1773 70.5676 68.1962 67.6256 65.7769 66.4156L64.435 69.0987C65.3729 69.5678 65.7529 70.708 65.2839 71.6458L67.9671 72.9876ZM63.6295 81.6629L67.9672 72.9875L65.2839 71.6459L60.9462 80.3212L63.6295 81.6629Z" fill="url(#paint1_linear_679_18)"/>
<defs>
<linearGradient id="paint0_linear_679_18" x1="63.5859" y1="122" x2="63.5859" y2="5.99999" gradientUnits="userSpaceOnUse">
<stop stop-color="#02AA93"/>
<stop offset="1" stop-color="#67FF80"/>
</linearGradient>
<linearGradient id="paint1_linear_679_18" x1="63.5859" y1="122" x2="63.5859" y2="5.99999" gradientUnits="userSpaceOnUse">
<stop stop-color="#02AA93"/>
<stop offset="1" stop-color="#67FF80"/>
</linearGradient>
</defs>
</svg>
