<svg width="128" height="128" viewBox="0 0 128 128" fill="none" xmlns="http://www.w3.org/2000/svg">
<path d="M95.486 11.2098C99.7395 10.7216 104.307 10.9691 108.075 13.2094C111.423 15.0551 113.893 18.1582 115.444 21.6223C114.413 21.7293 113.361 21.7293 112.368 22.057C110.844 23.4614 109.845 25.3138 108.654 26.9924C108.261 24.1034 106.623 21.3414 103.994 19.9905C101.338 18.4591 98.1822 19.3017 95.3257 18.7132C93.6353 18.2852 93.0689 16.4662 92.3633 15.0886C92.9561 13.5304 93.6285 11.591 95.486 11.2098Z" fill="url(#paint0_linear_616_85)"/>
<path d="M11.0251 27.5139C10.9852 19.0743 18.215 11.4103 26.623 11.0893C34.0059 11.0024 41.3888 11.0492 48.7717 11.0693C47.1539 13.7041 45.4031 16.2588 43.772 18.887C38.2665 18.9606 32.761 18.7867 27.2688 18.9472C24.06 19.0274 21.1242 21.0671 19.7727 23.9696C19.4732 24.6249 19.2335 25.3003 19.0471 26.0025C17.9819 33.526 18.8074 41.1833 18.4546 48.7602C15.8916 51.7228 13.8678 55.1334 11.0451 57.8753C10.9719 47.7571 11.0052 37.6322 11.0251 27.5139Z" fill="url(#paint1_linear_616_85)"/>
<path d="M48.7716 11.0693C57.5924 11.0358 66.4133 11.0425 75.2341 11.0492C77.065 10.882 78.9287 12.0189 79.4346 13.8246C80.0139 15.3694 79.0488 16.8607 78.5496 18.2717C75.0609 19.1344 71.4526 18.8937 67.8979 18.9004C59.8559 18.887 51.8139 18.9071 43.772 18.887C45.403 16.2588 47.1539 13.7041 48.7716 11.0693Z" fill="url(#paint2_linear_616_85)"/>
<path d="M82.0713 15.3093C82.0978 13.8447 82.0978 11.6913 83.9355 11.357C85.613 11.1363 87.3768 11.0494 89.0278 11.5041C90.2998 12.1662 90.2795 13.6775 90.2931 14.9214C90.1396 16.1653 90.6123 17.7569 89.7138 18.7601C87.3972 19.0744 85.0337 19.0477 82.7104 18.7801C81.9579 17.8171 82.2377 16.4462 82.0713 15.3093Z" fill="url(#paint3_linear_616_85)"/>
<path d="M112.368 22.057C113.36 21.7293 114.412 21.7293 115.444 21.6223C115.99 23.4882 116.482 25.3941 116.536 27.3469C116.482 37.3782 116.556 47.4027 116.489 57.4274C114.299 59.982 112.149 62.5835 110.331 65.419C109.093 67.2379 109.22 69.5317 109.186 71.632C109.273 77.2025 109.166 82.7799 109.133 88.3572C109.08 92.6108 109.412 96.9105 108.614 101.117C108.693 76.4063 108.66 51.6962 108.654 26.9924C109.845 25.3138 110.844 23.4614 112.368 22.057Z" fill="url(#paint4_linear_616_85)"/>
<path d="M82.4247 22.3044C84.9206 22.0837 87.4307 22.097 89.9273 22.2642C90.4665 24.6451 90.2465 27.0927 90.273 29.5069C90.3131 40.441 90.3334 51.3751 90.3728 62.3092C90.6791 65.3855 88.569 67.9201 87.0714 70.3945C86.7652 70.4481 86.1593 70.5615 85.8531 70.6219C84.3549 68.7293 83.0971 66.5557 82.3378 64.2687C82.1246 52.4652 82.291 40.6416 82.1782 28.8314C82.1517 26.658 82.1048 24.4645 82.4247 22.3044Z" fill="url(#paint5_linear_616_85)"/>
<path d="M18.4547 48.7604C18.8076 41.1834 17.982 33.5262 19.0472 26.0027C18.7743 50.5727 19.0139 75.1491 18.934 99.7264C18.7476 102.475 20.0391 104.996 21.8299 106.982C20.1989 109.002 18.6411 111.075 17.1499 113.195C16.3111 112.479 15.5122 111.71 14.7533 110.921C12.4166 107.932 11.0386 104.193 11.0186 100.381C10.9986 96.2487 10.9919 92.1092 11.0452 87.9696C13.5417 85.6019 15.7785 82.9402 17.5693 79.998C18.6211 78.3057 18.4481 76.2326 18.488 74.327C18.3082 65.8069 18.5479 57.2803 18.4547 48.7604Z" fill="url(#paint6_linear_616_85)"/>
<path d="M116.536 27.3469C116.755 28.4905 116.948 29.6407 116.982 30.811C116.908 50.6596 116.982 70.5147 116.942 90.3639C116.889 93.754 117.281 97.1916 116.549 100.542C116.47 86.1707 116.563 71.7991 116.489 57.4274C116.556 47.4028 116.482 37.3782 116.536 27.3469Z" fill="url(#paint7_linear_616_85)"/>
<path d="M11.0454 57.8753C13.8681 55.1334 15.8919 51.7228 18.4549 48.7603C18.5481 57.2802 18.3085 65.8068 18.4882 74.3269C18.4483 76.2324 18.6213 78.3056 17.5695 79.9979C15.7787 82.94 13.5419 85.6017 11.0454 87.9695C10.9855 77.9377 10.9855 67.9065 11.0454 57.8753Z" fill="url(#paint8_linear_616_85)"/>
<path d="M110.331 65.4188C112.149 62.5833 114.299 59.9819 116.489 57.4272C116.563 71.7989 116.47 86.1705 116.549 100.542C116.482 104.554 114.905 108.48 112.295 111.503C109.546 114.285 105.977 116.418 102.03 116.813C92.1968 116.298 82.3376 116.686 72.498 116.238C73.9629 113.77 75.5936 111.409 77.2915 109.095C84.8341 109.075 92.3767 109.115 99.9126 109.075C103.707 109.115 107.269 106.367 108.287 102.708C108.374 102.314 108.534 101.512 108.614 101.117C109.413 96.9104 109.08 92.6106 109.133 88.3571C109.166 82.7797 109.273 77.2024 109.186 71.6319C109.22 69.5316 109.093 67.2378 110.331 65.4188Z" fill="url(#paint9_linear_616_85)"/>
<path d="M17.1499 113.194C18.6411 111.075 20.1989 109.002 21.8299 106.982C23.6407 108.166 25.6712 109.176 27.8947 109.089C34.4121 109.115 40.9295 109.062 47.447 109.102C46.0024 111.436 44.8174 114.037 42.7869 115.937C40.8164 116.632 38.6661 116.405 36.6024 116.451C32.9875 116.331 29.3726 116.565 25.7644 116.819C22.6022 116.552 19.6131 115.161 17.1499 113.194Z" fill="url(#paint10_linear_616_85)"/>
<path d="M47.4473 109.102C57.3999 109.089 67.3455 109.082 77.2917 109.096C75.5938 111.409 73.9632 113.77 72.4983 116.238C82.3378 116.686 92.197 116.298 102.03 116.813C100.659 116.953 99.2737 116.993 97.8957 117C76.5793 116.986 55.2628 116.98 33.953 116.973C31.2236 116.953 28.4874 117.06 25.7646 116.819C29.3728 116.565 32.9877 116.331 36.6027 116.451C38.6664 116.405 40.8166 116.632 42.7872 115.937C44.8177 114.037 46.0026 111.436 47.4473 109.102Z" fill="url(#paint11_linear_616_85)"/>
<path d="M115.444 21.6223C113.893 18.1582 111.423 15.0551 108.074 13.2094C104.306 10.9691 99.7392 10.7216 95.4857 11.2098C93.6282 11.591 92.9559 13.5304 92.363 15.0886C93.0686 16.4662 93.635 18.2852 95.3255 18.7132C98.1819 19.3017 101.337 18.4591 103.993 19.9905C106.623 21.3414 108.261 24.1034 108.654 26.9924M115.444 21.6223C114.412 21.7293 113.36 21.7293 112.368 22.057C110.844 23.4614 109.845 25.3138 108.654 26.9924M115.444 21.6223C115.99 23.4882 116.482 25.3941 116.536 27.3469M108.654 26.9924C108.66 51.6962 108.693 76.4063 108.614 101.117M116.536 27.3469C116.482 37.3782 116.556 47.4027 116.489 57.4274M116.536 27.3469C116.755 28.4904 116.948 29.6407 116.981 30.811C116.908 50.6596 116.982 70.5147 116.941 90.3638C116.888 93.754 117.281 97.1916 116.549 100.542M108.614 101.117C109.412 96.9105 109.08 92.6108 109.133 88.3572C109.166 82.7799 109.272 77.2025 109.186 71.632C109.219 69.5317 109.093 67.2379 110.331 65.419C112.149 62.5835 114.299 59.982 116.489 57.4274M108.614 101.117C108.534 101.512 108.374 102.314 108.287 102.708C107.269 106.367 103.707 109.115 99.9124 109.075C92.3766 109.115 84.8339 109.075 77.2913 109.096M48.7717 11.0694C41.3888 11.0493 34.0059 11.0025 26.623 11.0894C18.215 11.4105 10.9852 19.0744 11.0251 27.514C11.0052 37.6323 10.9719 47.7572 11.0451 57.8754M48.7717 11.0694C47.1539 13.7042 45.4031 16.2589 43.772 18.8871M48.7717 11.0694C57.5925 11.0359 66.4133 11.0427 75.2341 11.0493C77.0651 10.8821 78.9287 12.019 79.4347 13.8247C80.014 15.3695 79.0489 16.8608 78.5497 18.2719C75.061 19.1345 71.4527 18.8938 67.898 18.9005C59.8559 18.8871 51.814 18.9072 43.772 18.8871M11.0451 57.8754C13.8678 55.1335 15.8916 51.7229 18.4546 48.7603M11.0451 57.8754C10.9852 67.9066 10.9852 77.9378 11.0451 87.9696M43.772 18.8871C38.2665 18.9607 32.761 18.7868 27.2688 18.9473C24.06 19.0275 21.1242 21.0672 19.7727 23.9697C19.4732 24.625 19.2335 25.3005 19.0471 26.0026M19.0471 26.0026C17.9819 33.5261 18.8074 41.1834 18.4546 48.7603M19.0471 26.0026C18.7742 50.5726 19.0138 75.1491 18.9339 99.7263C18.7475 102.475 20.039 104.996 21.8298 106.982M18.4546 48.7603C18.5478 57.2803 18.3081 65.8069 18.4879 74.327C18.448 76.2325 18.621 78.3057 17.5692 79.998C15.7784 82.9401 13.5416 85.6018 11.0451 87.9696M21.8298 106.982C20.1988 109.002 18.641 111.075 17.1498 113.194M21.8298 106.982C23.6406 108.166 25.6711 109.176 27.8945 109.089C34.412 109.115 40.9294 109.062 47.4469 109.102M11.0451 87.9696C10.9918 92.1091 10.9985 96.2486 11.0185 100.381C11.0385 104.193 12.4165 107.931 14.7532 110.921C15.5121 111.71 16.311 112.479 17.1498 113.194M116.489 57.4274C116.562 71.799 116.469 86.1706 116.549 100.542M116.549 100.542C116.482 104.554 114.905 108.48 112.295 111.503C109.545 114.285 105.977 116.418 102.029 116.813M77.2913 109.096C75.5934 111.409 73.9628 113.77 72.4979 116.238C82.3374 116.686 92.1966 116.298 102.029 116.813M77.2913 109.096C67.3452 109.082 57.3995 109.089 47.4469 109.102M17.1498 113.194C19.613 115.161 22.6021 116.552 25.7643 116.819M47.4469 109.102C46.0022 111.436 44.8173 114.038 42.7868 115.937C40.8163 116.632 38.666 116.405 36.6023 116.452C32.9874 116.331 29.3724 116.566 25.7643 116.819M25.7643 116.819C28.487 117.06 31.2232 116.953 33.9526 116.973C55.2624 116.98 76.5789 116.986 97.8953 117C99.2733 116.993 100.658 116.953 102.029 116.813M82.0711 15.3093C82.0976 13.8447 82.0976 11.6913 83.9354 11.357C85.6129 11.1363 87.3767 11.0493 89.0277 11.5041C90.2997 12.1661 90.2794 13.6775 90.2929 14.9214C90.1395 16.1653 90.6122 17.7569 89.7136 18.7601C87.397 19.0744 85.0336 19.0476 82.7102 18.7801C81.9577 17.8171 82.2375 16.4461 82.0711 15.3093ZM82.4243 22.3044C84.9202 22.0837 87.4303 22.0971 89.9269 22.2643C90.4661 24.6451 90.2461 27.0927 90.2726 29.5069C90.3126 40.4411 90.333 51.3752 90.3724 62.3093C90.6787 65.3856 88.5686 67.9202 87.071 70.3945C86.7647 70.4481 86.1589 70.5615 85.8526 70.6219C84.3545 68.7293 83.0966 66.5557 82.3374 64.2688C82.1241 52.4652 82.2905 40.6417 82.1778 28.8315C82.1513 26.6581 82.1044 24.4645 82.4243 22.3044Z" stroke="url(#paint12_linear_616_85)" stroke-width="4"/>
<defs>
<linearGradient id="paint0_linear_616_85" x1="11.0002" y1="117" x2="138.903" y2="61.2527" gradientUnits="userSpaceOnUse">
<stop stop-color="#0357D1"/>
<stop offset="1" stop-color="#27CDFC"/>
</linearGradient>
<linearGradient id="paint1_linear_616_85" x1="11" y1="117" x2="138.903" y2="61.2526" gradientUnits="userSpaceOnUse">
<stop stop-color="#0357D1"/>
<stop offset="1" stop-color="#27CDFC"/>
</linearGradient>
<linearGradient id="paint2_linear_616_85" x1="10.9999" y1="117" x2="138.903" y2="61.2526" gradientUnits="userSpaceOnUse">
<stop stop-color="#0357D1"/>
<stop offset="1" stop-color="#27CDFC"/>
</linearGradient>
<linearGradient id="paint3_linear_616_85" x1="11.0001" y1="117" x2="138.903" y2="61.2527" gradientUnits="userSpaceOnUse">
<stop stop-color="#0357D1"/>
<stop offset="1" stop-color="#27CDFC"/>
</linearGradient>
<linearGradient id="paint4_linear_616_85" x1="11.0001" y1="117" x2="138.903" y2="61.2527" gradientUnits="userSpaceOnUse">
<stop stop-color="#0357D1"/>
<stop offset="1" stop-color="#27CDFC"/>
</linearGradient>
<linearGradient id="paint5_linear_616_85" x1="11.0004" y1="117" x2="138.904" y2="61.2527" gradientUnits="userSpaceOnUse">
<stop stop-color="#0357D1"/>
<stop offset="1" stop-color="#27CDFC"/>
</linearGradient>
<linearGradient id="paint6_linear_616_85" x1="11.0001" y1="117" x2="138.903" y2="61.2527" gradientUnits="userSpaceOnUse">
<stop stop-color="#0357D1"/>
<stop offset="1" stop-color="#27CDFC"/>
</linearGradient>
<linearGradient id="paint7_linear_616_85" x1="11.0006" y1="117" x2="138.903" y2="61.2531" gradientUnits="userSpaceOnUse">
<stop stop-color="#0357D1"/>
<stop offset="1" stop-color="#27CDFC"/>
</linearGradient>
<linearGradient id="paint8_linear_616_85" x1="11.0003" y1="117" x2="138.903" y2="61.2526" gradientUnits="userSpaceOnUse">
<stop stop-color="#0357D1"/>
<stop offset="1" stop-color="#27CDFC"/>
</linearGradient>
<linearGradient id="paint9_linear_616_85" x1="11.0002" y1="117" x2="138.903" y2="61.2526" gradientUnits="userSpaceOnUse">
<stop stop-color="#0357D1"/>
<stop offset="1" stop-color="#27CDFC"/>
</linearGradient>
<linearGradient id="paint10_linear_616_85" x1="11.0001" y1="117" x2="138.903" y2="61.2526" gradientUnits="userSpaceOnUse">
<stop stop-color="#0357D1"/>
<stop offset="1" stop-color="#27CDFC"/>
</linearGradient>
<linearGradient id="paint11_linear_616_85" x1="11.0004" y1="117" x2="138.904" y2="61.2527" gradientUnits="userSpaceOnUse">
<stop stop-color="#0357D1"/>
<stop offset="1" stop-color="#27CDFC"/>
</linearGradient>
<linearGradient id="paint12_linear_616_85" x1="11" y1="117" x2="138.903" y2="61.2527" gradientUnits="userSpaceOnUse">
<stop stop-color="#0357D1"/>
<stop offset="1" stop-color="#10CAFF"/>
</linearGradient>
</defs>
</svg>
