<svg width="32" height="32" viewBox="0 0 32 32" fill="none" xmlns="http://www.w3.org/2000/svg">
<path d="M32 2V12C29.3478 12 26.8043 10.9464 24.9289 9.07107C23.0536 7.1957 22 4.65216 22 2H32ZM0 2V12C1.31322 12 2.61358 11.7413 3.82683 11.2388C5.04009 10.7362 6.14248 9.99965 7.07107 9.07107C7.99965 8.14248 8.73625 7.04009 9.2388 5.82683C9.74134 4.61358 10 3.31322 10 2H0ZM32 30V20C29.3478 20 26.8043 21.0536 24.9289 22.9289C23.0536 24.8043 22 27.3478 22 30H32ZM0.001 30V20C2.65316 20 5.1967 21.0536 7.07207 22.9289C8.94743 24.8043 10.001 27.3478 10.001 30H0.001Z" fill="url(#paint0_linear)"/>
<defs>
<linearGradient id="paint0_linear" x1="16" y1="30" x2="16" y2="2" gradientUnits="userSpaceOnUse">
<stop stop-color="#A93AFF"/>
<stop offset="1" stop-color="#FF81FF"/>
</linearGradient>
</defs>
</svg>
