<svg width="128" height="128" viewBox="0 0 128 128" fill="none" xmlns="http://www.w3.org/2000/svg">
<path fill-rule="evenodd" clip-rule="evenodd" d="M15.7538 15.4667C15.5952 15.4667 15.4667 15.5952 15.4667 15.7538C15.4667 15.7538 15.4667 15.7538 15.4667 15.7538C15.4667 15.7538 15.4667 112.342 15.4667 112.5C15.3081 112.5 16 112.5 15.4667 112.5L18.9155 112.515C21.1316 112.525 22.9334 110.732 22.9334 108.515L22.9333 101.6C22.9333 99.3909 24.7242 97.6 26.9333 97.6H56.2667C58.4758 97.6 60.2667 99.3909 60.2667 101.6V108.533C60.2667 110.742 62.0575 112.533 64.2667 112.533H64.4667C66.6758 112.533 68.4667 110.742 68.4667 108.533V101.6C68.4667 99.3909 70.2575 97.6 72.4667 97.6H101.8C104.009 97.6 105.8 99.3909 105.8 101.6V112.533H89.4667H112.246C112.405 112.533 112.533 112.405 112.533 112.246V15.7538C112.533 15.5952 112.405 15.4667 112.246 15.4667H15.7538ZM8 15.7538C8 11.4715 11.4715 8 15.7538 8H112.246C116.528 8 120 11.4715 120 15.7538V112.246C120 116.528 116.528 120 112.246 120H15.7538C11.4715 120 8 116.528 8 112.246V15.7538Z" fill="url(#paint0_linear_618_185)"/>
<path d="M15.4667 112.5C15.4667 112.342 15.4667 15.7538 15.4667 15.7538C15.4667 15.7538 15.4667 15.7538 15.4667 15.7538C15.4667 15.5952 15.5952 15.4667 15.7538 15.4667H112.246C112.405 15.4667 112.533 15.5952 112.533 15.7538V112.246C112.533 112.405 112.405 112.533 112.246 112.533H89.4667H105.8V101.6C105.8 99.3909 104.009 97.6 101.8 97.6H72.4667C70.2575 97.6 68.4667 99.3909 68.4667 101.6V108.533C68.4667 110.742 66.6758 112.533 64.4667 112.533H64.2667C62.0575 112.533 60.2667 110.742 60.2667 108.533V101.6C60.2667 99.3909 58.4758 97.6 56.2667 97.6H26.9333C24.7242 97.6 22.9333 99.3909 22.9333 101.6L22.9334 108.515C22.9334 110.732 21.1316 112.525 18.9155 112.515L15.4667 112.5ZM15.4667 112.5C16 112.5 15.3081 112.5 15.4667 112.5ZM8 15.7538C8 11.4715 11.4715 8 15.7538 8H112.246C116.528 8 120 11.4715 120 15.7538V112.246C120 116.528 116.528 120 112.246 120H15.7538C11.4715 120 8 116.528 8 112.246V15.7538Z" stroke="url(#paint1_linear_618_185)" stroke-width="2" stroke-linejoin="round"/>
<path d="M53.0378 22.9333C50.0045 22.9333 47.0951 24.1384 44.9499 26.2835C42.8047 28.4286 41.5996 31.338 41.5996 34.3716C41.6007 36.9065 42.4441 39.3693 43.9968 41.3729C44.676 42.2495 45.4743 43.0165 46.3629 43.655C48.1054 44.9072 50.1784 43.3499 50.1784 41.2041V41.2041C50.1784 40.0314 49.4921 38.994 48.7225 38.1091C48.4844 37.8354 48.2721 37.5387 48.0889 37.2223C47.5871 36.3559 47.3217 35.3729 47.3187 34.3716C47.3187 32.8548 47.9213 31.4001 48.9939 30.3276C50.0664 29.255 51.5209 28.6525 53.0378 28.6525C53.7889 28.6525 54.5326 28.8004 55.2266 29.0878C55.9203 29.3752 56.5509 29.7964 57.0821 30.3275C57.613 30.8586 58.0345 31.4891 58.3216 32.183C58.6091 32.8769 58.7573 33.6206 58.7573 34.3716V34.3716C58.7538 34.8499 58.9328 35.3236 59.3103 35.6173L60.1988 36.3082C61.8847 37.6194 64.3755 36.9455 64.4649 34.8116C64.471 34.6652 64.4744 34.5185 64.4749 34.3716C64.4749 32.8695 64.1792 31.3821 63.6043 29.9943C63.0293 28.6066 62.1867 27.3457 61.1246 26.2835C60.0624 25.2214 58.8017 24.3789 57.414 23.804C56.026 23.2292 54.5397 22.9333 53.0378 22.9333ZM59.4765 39.3078C56.8442 37.2898 53.0407 39.1679 53.0428 42.4848L53.0647 78.1269C53.0671 81.9716 57.9631 83.5994 60.267 80.5214L68.9963 68.8596C69.7516 67.8506 70.9382 67.2566 72.1985 67.2566H84.1404C87.9631 67.2566 89.6078 62.4079 86.5741 60.0821L59.4765 39.3078Z" fill="url(#paint2_linear_618_185)"/>
<defs>
<linearGradient id="paint0_linear_618_185" x1="64" y1="120" x2="64" y2="8" gradientUnits="userSpaceOnUse">
<stop stop-color="#0028FF"/>
<stop offset="0.520833" stop-color="#36A0FF"/>
<stop offset="1" stop-color="#4DD3FF"/>
</linearGradient>
<linearGradient id="paint1_linear_618_185" x1="64" y1="120" x2="64" y2="8" gradientUnits="userSpaceOnUse">
<stop stop-color="#0028FF"/>
<stop offset="0.520833" stop-color="#36A0FF"/>
<stop offset="1" stop-color="#4DD3FF"/>
</linearGradient>
<linearGradient id="paint2_linear_618_185" x1="68.766" y1="90.1333" x2="68.766" y2="22.9333" gradientUnits="userSpaceOnUse">
<stop stop-color="#FD7900"/>
<stop offset="1" stop-color="#FAFF00"/>
</linearGradient>
</defs>
</svg>
