<svg width="256" height="256" viewBox="0 0 256 256" fill="none" xmlns="http://www.w3.org/2000/svg">
<path d="M239.726 223.349L133.347 77.6847C132.1 75.9778 130.114 74.9688 128 74.9688C125.886 74.9688 123.9 75.9778 122.653 77.6847L16.2743 223.349C14.804 225.362 14.5895 228.03 15.7182 230.252C16.8468 232.475 19.1285 233.875 21.6211 233.875H234.379C236.872 233.875 239.153 232.475 240.282 230.252C241.411 228.03 241.196 225.362 239.726 223.349ZM128 92.8166L164.022 142.142L154.484 151.679L145.924 143.119C143.338 140.533 139.146 140.533 136.56 143.119L128 151.679L119.439 143.119C116.854 140.533 112.662 140.533 110.076 143.119L101.516 151.679L91.9777 142.142L128 92.8166ZM34.6554 220.633L84.0735 152.965L96.8337 165.725C99.419 168.311 103.611 168.311 106.197 165.725L114.758 157.164L123.318 165.725C125.904 168.31 130.096 168.31 132.682 165.725L141.242 157.164L149.803 165.725C151.095 167.018 152.79 167.664 154.484 167.664C156.179 167.664 157.874 167.018 159.166 165.725L171.926 152.965L221.345 220.633H34.6554ZM54.7266 101.453C76.6318 101.453 94.4531 83.6318 94.4531 61.7266C94.4531 39.8213 76.6318 22 54.7266 22C32.8213 22 15 39.8213 15 61.7266C15 83.6318 32.8213 101.453 54.7266 101.453ZM54.7266 35.2422C69.3301 35.2422 81.211 47.1231 81.211 61.7266C81.211 76.3301 69.3301 88.211 54.7266 88.211C40.1231 88.211 28.2422 76.3301 28.2422 61.7266C28.2422 47.1231 40.1231 35.2422 54.7266 35.2422Z" fill="url(#paint0_linear_674_112)" stroke="url(#paint1_linear_674_112)" stroke-width="12"/>
<defs>
<linearGradient id="paint0_linear_674_112" x1="128" y1="233.875" x2="128" y2="22" gradientUnits="userSpaceOnUse">
<stop stop-color="#00B59C"/>
<stop offset="1" stop-color="#9CFFAC"/>
</linearGradient>
<linearGradient id="paint1_linear_674_112" x1="128" y1="233.875" x2="128" y2="22" gradientUnits="userSpaceOnUse">
<stop stop-color="#00B59C"/>
<stop offset="1" stop-color="#9CFFAC"/>
</linearGradient>
</defs>
</svg>
