<svg width="128" height="128" viewBox="0 0 128 128" fill="none" xmlns="http://www.w3.org/2000/svg">
<path d="M24.4062 58.9375C22.5941 58.9375 21.125 60.4066 21.125 62.2188C21.125 64.0309 22.5941 65.5 24.4062 65.5C26.2184 65.5 27.6875 64.0309 27.6875 62.2188C27.6875 60.4066 26.2184 58.9375 24.4062 58.9375ZM37.5312 58.9375C35.7191 58.9375 34.25 60.4066 34.25 62.2188C34.25 64.0309 35.7191 65.5 37.5312 65.5C39.3434 65.5 40.8125 64.0309 40.8125 62.2188C40.8125 60.4066 39.3434 58.9375 37.5312 58.9375ZM116.719 39.25H100.094V22.4062C100.094 21.3093 99.546 20.2846 98.6325 19.6761L78.945 6.55103C78.406 6.19163 77.7727 6 77.125 6H30.9688C29.1566 6 27.6875 7.46912 27.6875 9.28125V39.25H11.2812C9.46912 39.25 8 40.7191 8 42.5312V88.4688C8 90.2809 9.46912 91.75 11.2812 91.75H27.6875V114.719C27.6875 116.531 29.1566 118 30.9688 118H96.8125C98.6246 118 100.094 116.531 100.094 114.719V91.75H116.719C118.531 91.75 120 90.2809 120 88.4688V42.5312C120 40.7191 118.531 39.25 116.719 39.25ZM80.4062 15.4124L85.9752 19.125H80.4062V15.4124ZM34.25 12.5625H73.8438V22.4062C73.8438 24.2184 75.3129 25.6875 77.125 25.6875H93.5312V42.5312C93.5312 44.3405 92.0592 45.8125 90.25 45.8125H37.5312C35.722 45.8125 34.25 44.3405 34.25 42.5312V12.5625ZM93.5312 111.438H34.25V81.9062C34.25 80.097 35.722 78.625 37.5312 78.625H90.25C92.0592 78.625 93.5312 80.097 93.5312 81.9062V111.438ZM113.438 85.1875H100.094V81.9062C100.094 76.4785 95.6776 72.0625 90.25 72.0625H37.5312C32.1035 72.0625 27.6875 76.4785 27.6875 81.9062V85.1875H14.5625V45.8125H28.2519C29.6064 49.6316 33.2535 52.375 37.5312 52.375H90.25C94.5277 52.375 98.1749 49.6316 99.5294 45.8125H113.438V85.1875ZM83.6875 85.1875H44.0938C42.2816 85.1875 40.8125 86.6566 40.8125 88.4688C40.8125 90.2809 42.2816 91.75 44.0938 91.75H83.6875C85.4996 91.75 86.9688 90.2809 86.9688 88.4688C86.9688 86.6566 85.4996 85.1875 83.6875 85.1875ZM83.6875 98.3125H44.0938C42.2816 98.3125 40.8125 99.7816 40.8125 101.594C40.8125 103.406 42.2816 104.875 44.0938 104.875H83.6875C85.4996 104.875 86.9688 103.406 86.9688 101.594C86.9688 99.7816 85.4996 98.3125 83.6875 98.3125Z" fill="url(#paint0_linear_640_125)" stroke="url(#paint1_linear_640_125)" stroke-width="3"/>
<defs>
<linearGradient id="paint0_linear_640_125" x1="64" y1="118" x2="64" y2="6" gradientUnits="userSpaceOnUse">
<stop stop-color="#FD5B00"/>
<stop offset="0.411458" stop-color="#AB18A8"/>
<stop offset="1" stop-color="#8E00E4"/>
</linearGradient>
<linearGradient id="paint1_linear_640_125" x1="64" y1="118" x2="64" y2="6" gradientUnits="userSpaceOnUse">
<stop stop-color="#FD5B00"/>
<stop offset="0.411458" stop-color="#AB18A8"/>
<stop offset="1" stop-color="#8E00E4"/>
</linearGradient>
</defs>
</svg>
