<svg width="128" height="128" viewBox="0 0 128 128" fill="none" xmlns="http://www.w3.org/2000/svg">
<path d="M75.5768 25.9611H109.001C111.653 25.9611 114.196 27.0147 116.071 28.89C117.947 30.7654 119 33.309 119 35.9611V60.9612C119 63.7226 116.762 65.9611 114 65.9611C111.238 65.9611 109.001 63.7226 109.001 60.9612V40.6486C109.001 38.0597 106.902 35.9611 104.313 35.9611H23.6876C21.0987 35.9611 19.0001 38.0597 19.0001 40.6486V91.274C19.0001 93.8624 21.0987 95.9615 23.6876 95.9615H104.313C106.902 95.9615 109.001 93.8624 109.001 91.274V85.9613C109.001 83.1998 111.238 80.9612 114 80.9612C116.762 80.9612 119 83.1998 119 85.9613V95.9615C119 101.461 114.5 105.961 109.001 105.961H19.0001C13.5 105.961 9 101.461 9 95.9615V35.9611C9 33.309 10.0536 30.7654 11.9289 28.89C13.8043 27.0147 16.3479 25.9611 19.0001 25.9611H52.4138C54.0855 25.9611 54.9215 23.9386 53.7375 22.7582L42.2291 11.2847C41.247 10.3055 41.2459 8.71526 42.2264 7.73463C43.206 6.75512 44.7942 6.75512 45.7737 7.73463L62.6744 24.6353C63.4066 25.3675 64.5937 25.3675 65.326 24.6353L82.2251 7.73603C83.2034 6.75775 84.7913 6.76337 85.7626 7.7486C86.7242 8.72397 86.7187 10.2925 85.7502 11.261L74.251 22.7603C73.0699 23.9414 73.9064 25.9611 75.5768 25.9611Z" fill="url(#paint0_linear_616_131)"/>
<path d="M49 82.7304V49.1922C49 47.7526 50.5553 46.85 51.8053 47.5642L81.1512 64.3333C82.4108 65.0531 82.4108 66.8695 81.1512 67.5893L51.8053 84.3584C50.5553 85.0727 49 84.1701 49 82.7304Z" fill="url(#paint1_linear_616_131)"/>
<path d="M31.1875 49.3987C31.1875 47.3276 29.5086 45.6487 27.4375 45.6487C25.3664 45.6487 23.6875 47.3276 23.6875 49.3987V83.1488C23.6875 85.2199 25.3664 86.8988 27.4375 86.8988C29.5086 86.8988 31.1875 85.2199 31.1875 83.1488V49.3987Z" fill="url(#paint2_linear_616_131)"/>
<defs>
<linearGradient id="paint0_linear_616_131" x1="64.0002" y1="105.961" x2="64.0002" y2="5.96097" gradientUnits="userSpaceOnUse">
<stop stop-color="#9000FF"/>
<stop offset="1" stop-color="#FF00FF"/>
</linearGradient>
<linearGradient id="paint1_linear_616_131" x1="49" y1="81.5" x2="60" y2="62" gradientUnits="userSpaceOnUse">
<stop stop-color="#FD0000"/>
<stop offset="1" stop-color="#FFDE00"/>
</linearGradient>
<linearGradient id="paint2_linear_616_131" x1="27.4375" y1="86.8988" x2="27.4375" y2="45.6487" gradientUnits="userSpaceOnUse">
<stop stop-color="#FD0F00"/>
<stop offset="1" stop-color="#FF0F00"/>
</linearGradient>
</defs>
</svg>
