<svg width="128" height="128" viewBox="0 0 128 128" fill="none" xmlns="http://www.w3.org/2000/svg">
<path d="M76.3481 32.0001H112C114.829 32.0001 117.542 33.1239 119.542 35.1243C121.543 37.1247 122.666 39.8378 122.666 42.6667V69.3334C122.666 72.2789 120.279 74.6667 117.333 74.6667C114.387 74.6667 112 72.2789 112 69.3334V47.6667C112 44.9053 109.761 42.6667 107 42.6667H20.9997C18.2382 42.6667 15.9997 44.9053 15.9997 47.6667V101.667C15.9997 104.428 18.2382 106.667 20.9997 106.667H107C109.761 106.667 112 104.428 112 101.667V96.0001C112 93.0546 114.387 90.6667 117.333 90.6667C120.279 90.6667 122.666 93.0546 122.666 96.0001V106.667C122.666 112.533 117.866 117.333 112 117.333H15.9997C10.133 117.333 5.33301 112.533 5.33301 106.667V42.6667C5.33301 39.8378 6.45681 37.1247 8.4572 35.1243C10.4576 33.1239 13.1707 32.0001 15.9997 32.0001H51.6409C53.4241 32.0001 54.3158 29.8428 53.0529 28.5837L40.7773 16.3453C39.7297 15.3009 39.7285 13.6046 40.7744 12.5586C41.8193 11.5138 43.5134 11.5138 44.5582 12.5586L62.5855 30.5859C63.3665 31.3669 64.6328 31.3669 65.4139 30.5859L83.4396 12.5601C84.4831 11.5166 86.1768 11.5226 87.2129 12.5735C88.2386 13.6139 88.2327 15.287 87.1996 16.3201L74.9339 28.5859C73.674 29.8458 74.5663 32.0001 76.3481 32.0001Z" fill="url(#paint0_linear)"/>
<path d="M48 92.5537V56.7797C48 55.2441 49.659 54.2814 50.9923 55.0432L82.2945 72.9302C83.6381 73.698 83.6381 75.6354 82.2945 76.4032L50.9923 94.2902C49.659 95.0521 48 94.0893 48 92.5537Z" fill="url(#paint1_linear)"/>
<rect x="21" y="53" width="8" height="44" rx="4" fill="url(#paint2_linear)"/>
<defs>
<linearGradient id="paint0_linear" x1="63.9997" y1="117.333" x2="63.9997" y2="10.6667" gradientUnits="userSpaceOnUse">
<stop stop-color="#A93AFF"/>
<stop offset="1" stop-color="#FF81FF"/>
</linearGradient>
<linearGradient id="paint1_linear" x1="66.6667" y1="96" x2="66.6667" y2="53.3334" gradientUnits="userSpaceOnUse">
<stop stop-color="#FD5900"/>
<stop offset="1" stop-color="#FFDE00"/>
</linearGradient>
<linearGradient id="paint2_linear" x1="25" y1="97" x2="25" y2="53" gradientUnits="userSpaceOnUse">
<stop stop-color="#FD2E00"/>
<stop offset="1" stop-color="#FF9900"/>
</linearGradient>
</defs>
</svg>
