<svg width="128" height="128" viewBox="0 0 128 128" fill="none" xmlns="http://www.w3.org/2000/svg">
<path d="M96.75 113.438H92.2158L83.4482 95.465C99.0366 88.1102 109.875 72.286 109.875 53.9375C109.875 28.6071 89.2679 8 63.9375 8C38.6071 8 18 28.6071 18 53.9375C18 72.3554 28.9196 88.232 44.6028 95.5499L36.4223 113.438H31.125C29.3113 113.438 27.8438 114.905 27.8438 116.719C27.8438 118.532 29.3113 120 31.125 120H96.75C98.5637 120 100.031 118.532 100.031 116.719C100.031 114.905 98.5637 113.438 96.75 113.438ZM24.5625 53.9375C24.5625 32.2248 42.2248 14.5625 63.9375 14.5625C85.6502 14.5625 103.312 32.2248 103.312 53.9375C103.312 75.6502 85.6502 93.3125 63.9375 93.3125C42.2248 93.3125 24.5625 75.6502 24.5625 53.9375ZM43.6701 113.438L50.7388 97.9211C54.9232 99.1792 59.3488 99.875 63.9375 99.875C68.5905 99.875 73.0795 99.1676 77.3156 97.8752L84.878 113.438H43.6701ZM86.9062 53.9375C86.9062 41.2738 76.6012 30.9688 63.9375 30.9688C51.2738 30.9688 40.9688 41.2738 40.9688 53.9375C40.9688 66.6012 51.2738 76.9062 63.9375 76.9062C76.6012 76.9062 86.9062 66.6012 86.9062 53.9375ZM47.5312 53.9375C47.5312 44.8915 54.8915 37.5312 63.9375 37.5312C72.9835 37.5312 80.3438 44.8915 80.3438 53.9375C80.3438 62.9835 72.9835 70.3438 63.9375 70.3438C54.8915 70.3438 47.5312 62.9835 47.5312 53.9375Z" fill="url(#paint0_linear_616_254)" stroke="url(#paint1_linear_616_254)" stroke-width="4"/>
<path fill-rule="evenodd" clip-rule="evenodd" d="M73.7811 53.9375C73.7811 48.5094 69.3656 44.0938 63.9375 44.0938C58.5094 44.0938 54.0938 48.5094 54.0938 53.9375C54.0938 59.3656 58.5094 63.7812 63.9375 63.7812C69.3656 63.7812 73.7811 59.3656 73.7811 53.9375ZM60.6562 53.9375C60.6562 52.1271 62.1271 50.6562 63.9375 50.6562C65.7479 50.6562 67.2188 52.1271 67.2188 53.9375C67.2188 55.7479 65.7479 57.2188 63.9375 57.2188C62.1271 57.2188 60.6562 55.7479 60.6562 53.9375Z" fill="#FF0000" stroke="#FF0000" stroke-width="4"/>
<defs>
<linearGradient id="paint0_linear_616_254" x1="64" y1="8" x2="71.9025" y2="119.44" gradientUnits="userSpaceOnUse">
<stop stop-color="#FF00A8"/>
<stop offset="1" stop-color="#9A06F4"/>
</linearGradient>
<linearGradient id="paint1_linear_616_254" x1="64" y1="8" x2="71.9025" y2="119.44" gradientUnits="userSpaceOnUse">
<stop stop-color="#FF00A8"/>
<stop offset="1" stop-color="#9A06F4"/>
</linearGradient>
</defs>
</svg>
