<svg width="128" height="128" viewBox="0 0 128 128" fill="none" xmlns="http://www.w3.org/2000/svg">
<path d="M15.5082 6H112.492C117.743 6 122 10.257 122 15.5082V112.492C122 117.743 117.743 122 112.492 122H42.1311C40.0307 122 38.3279 120.297 38.3279 118.197C38.3279 116.096 40.0307 114.393 42.1311 114.393H112.492C113.542 114.393 114.393 113.542 114.393 112.492V15.5082C114.393 14.4579 113.542 13.6066 112.492 13.6066H15.5082C14.4579 13.6066 13.6066 14.4579 13.6066 15.5082V91.5738C13.6066 93.6742 11.9038 95.377 9.80328 95.377C7.70278 95.377 6 93.6742 6 91.5738V15.5082C6 10.257 10.257 6 15.5082 6Z" fill="url(#paint0_linear_640_186)" stroke="url(#paint1_linear_640_186)" stroke-width="3"/>
<path d="M103.638 75.596C101.213 73.0063 96.2548 71.5089 89.2297 71.5089C85.4701 71.5089 81.1243 71.8832 76.3921 72.7652C73.4999 69.9074 70.8679 66.7969 68.5274 63.4705C66.7154 60.9474 65.1287 58.2757 63.6749 55.645C66.4467 46.9656 67.7929 39.8863 67.7929 34.7863C67.7929 29.0711 65.7275 23.1147 59.8078 23.1147C57.9804 23.1147 56.1684 24.2224 55.1959 25.8531C52.5291 30.6607 53.7294 41.2119 58.3285 51.6271C56.5743 56.9402 54.6401 62.1919 52.5291 67.373C50.5305 72.1261 48.3379 76.7949 45.9568 81.3676C32.6407 86.7907 24.0158 93.1059 23.2173 98.0749C22.8564 99.944 23.4707 101.654 24.7759 103.029C25.2289 103.403 26.9359 104.885 29.828 104.885C38.6653 104.885 47.971 90.2624 52.7159 81.4343C56.3425 80.2062 59.9819 79.0831 63.6058 77.9626C67.4355 76.9031 71.315 76.0338 75.2302 75.3575C84.5615 83.9189 92.7846 85.2676 96.9181 85.2676C102.011 85.2676 103.823 83.1574 104.437 81.4343C105.397 79.2036 104.678 76.7473 103.585 75.478L103.652 75.6113L103.638 75.596ZM98.919 79.201C98.5585 81.0574 96.7337 82.2984 94.1871 82.2984C93.4679 82.2984 92.8537 82.1651 92.1217 82.0574C87.4817 80.9343 83.1385 78.5728 78.8056 74.8447C82.1665 74.2793 85.5684 73.9937 88.9763 73.9908C91.4947 73.9908 93.6829 74.1113 95.1467 74.4857C96.8255 74.8473 99.4922 75.9805 98.8939 79.2139H98.9599L98.919 79.201ZM73.2468 73.3652C69.8743 74.0549 66.5228 74.8433 63.1964 75.7293C60.3029 76.5166 57.4357 77.3983 54.5996 78.3728C56.0722 75.451 57.4456 72.4802 58.7175 69.4653C60.184 65.9808 61.3843 62.3884 62.5974 59.0475C63.7849 61.145 65.1158 63.2551 66.4492 65.1372C68.6349 68.114 70.9153 70.9473 73.2084 73.4165V73.3499L73.2468 73.3652ZM57.3688 27.2659C57.5822 26.8285 57.9111 26.4578 58.3198 26.1942C58.7286 25.9307 59.2016 25.7844 59.6875 25.7711C62.2341 25.7711 62.7126 28.7351 62.7126 31.1121C62.7126 35.1043 61.4995 41.1683 59.4342 48.0861C55.8076 38.4453 55.5696 30.3787 57.3816 27.2659H57.3688ZM44.0526 85.0369C37.8821 95.4391 31.9496 101.891 28.3103 101.891C27.6039 101.891 26.9897 101.637 26.5111 101.275C25.7791 100.526 25.4182 99.6594 25.6589 98.6698C26.3908 94.9443 33.2958 89.7368 44.068 85.0343L44.0526 85.0369Z" fill="url(#paint2_linear_640_186)" stroke="url(#paint3_linear_640_186)" stroke-width="6"/>
<defs>
<linearGradient id="paint0_linear_640_186" x1="63.9999" y1="122" x2="63.9999" y2="6" gradientUnits="userSpaceOnUse">
<stop stop-color="#A70000"/>
<stop offset="1" stop-color="#FF0000"/>
</linearGradient>
<linearGradient id="paint1_linear_640_186" x1="63.9999" y1="122" x2="63.9999" y2="6" gradientUnits="userSpaceOnUse">
<stop stop-color="#A70000"/>
<stop offset="1" stop-color="#FF0000"/>
</linearGradient>
<linearGradient id="paint2_linear_640_186" x1="64.0005" y1="104.885" x2="64.0005" y2="23.1147" gradientUnits="userSpaceOnUse">
<stop stop-color="#A70000"/>
<stop offset="1" stop-color="#FF0000"/>
</linearGradient>
<linearGradient id="paint3_linear_640_186" x1="64.0005" y1="104.885" x2="64.0005" y2="23.1147" gradientUnits="userSpaceOnUse">
<stop stop-color="#A70000"/>
<stop offset="1" stop-color="#FF0000"/>
</linearGradient>
</defs>
</svg>
