<svg width="128" height="128" viewBox="0 0 128 128" fill="none" xmlns="http://www.w3.org/2000/svg">
<path d="M125.039 13.2406L115.758 3.9599C114.46 2.66205 112.38 2.69815 111.118 3.9599L85.6103 29.4675H23.8438C18.4159 29.4675 14 33.8834 14 39.3112V105.155C14 110.583 18.4159 114.999 23.8438 114.999H89.6876C95.1154 114.999 99.5313 110.583 99.5313 105.155V43.3887L125.039 17.8812C126.32 16.5997 126.32 14.522 125.039 13.2406ZM92.9688 105.155C92.9688 106.964 91.4969 108.436 89.6876 108.436H23.8438C22.0345 108.436 20.5625 106.964 20.5625 105.155V39.3112C20.5625 37.502 22.0345 36.03 23.8438 36.03H79.0478L57.603 57.4747C57.2428 57.835 56.9715 58.274 56.8103 58.7573L52.1699 72.6785C51.3173 75.237 53.757 77.6835 56.3205 76.8291L70.2418 72.1887C70.725 72.0277 71.164 71.7563 71.5243 71.396L92.9688 49.9512V105.155ZM67.4315 66.2079L60.4709 68.5282L62.7909 61.5675L104.157 20.2012L108.798 24.8416L67.4315 66.2079ZM113.438 20.2012L108.798 15.5609L113.438 10.9205L118.078 15.5609L113.438 20.2012Z" fill="url(#paint0_linear_617_9)" stroke="url(#paint1_linear_617_9)" stroke-width="4"/>
<path fill-rule="evenodd" clip-rule="evenodd" d="M29.2353 88C26.8962 88 25 90.6863 25 94C25 97.3137 26.8962 100 29.2353 100H48.2941C50.6332 100 52.5294 97.3137 52.5294 94C52.5294 90.6863 50.6332 88 48.2941 88H29.2353ZM65.7059 88C63.3668 88 61.4706 90.6863 61.4706 94C61.4706 97.3137 63.3668 100 65.7059 100H84.7647C87.1038 100 89 97.3137 89 94C89 90.6863 87.1038 88 84.7647 88H65.7059Z" fill="url(#paint2_linear_617_9)"/>
<defs>
<linearGradient id="paint0_linear_617_9" x1="70.0001" y1="114.999" x2="70.0001" y2="3.00003" gradientUnits="userSpaceOnUse">
<stop stop-color="#7700D3"/>
<stop offset="1" stop-color="#FF00FF"/>
</linearGradient>
<linearGradient id="paint1_linear_617_9" x1="70.0001" y1="114.999" x2="70.0001" y2="3.00003" gradientUnits="userSpaceOnUse">
<stop stop-color="#7700D3"/>
<stop offset="1" stop-color="#FF00FF"/>
</linearGradient>
<linearGradient id="paint2_linear_617_9" x1="29.5714" y1="94" x2="68.5897" y2="71.0038" gradientUnits="userSpaceOnUse">
<stop stop-color="#8D01A2"/>
<stop offset="1" stop-color="#FF00D2"/>
</linearGradient>
</defs>
</svg>
