<svg width="128" height="128" viewBox="0 0 128 128" fill="none" xmlns="http://www.w3.org/2000/svg">
<path fill-rule="evenodd" clip-rule="evenodd" d="M9.39844 9C5.31336 9 2 12.3134 2 16.3984V36.1875V40.1875V44.1875V111.555C2 115.64 5.31336 118.953 9.39844 118.953H118.602C122.687 118.953 126 115.64 126 111.555V44.1875V40.1875V36.1875V16.3984C126 12.3134 122.687 9 118.602 9H108.406H105.609H104.406H101.609H94.8125H92.0156H90.8125H88.0156H81.2188H78.4219H77.2188H74.4219H9.39844ZM116 36.1875C117.105 36.1875 118 35.2921 118 34.1875V19C118 17.8954 117.105 17 116 17H114.406C113.301 17 112.406 17.8954 112.406 19V23.1953C112.406 27.2804 109.093 30.5938 105.008 30.5938C103.624 30.5938 102.328 30.2134 101.22 29.5515C99.7142 28.652 96.7076 28.652 95.2018 29.5515C94.0937 30.2134 92.7982 30.5938 91.4141 30.5938C90.0299 30.5938 88.7344 30.2134 87.6263 29.5515C86.1205 28.652 83.1139 28.652 81.6081 29.5515C80.5 30.2134 79.2045 30.5938 77.8203 30.5938C73.7352 30.5938 70.4219 27.2804 70.4219 23.1953V19C70.4219 17.8954 69.5265 17 68.4219 17H12C10.8954 17 10 17.8954 10 19V34.1875C10 35.2921 10.8954 36.1875 12 36.1875H60H116ZM118 46.1875C118 45.0829 117.105 44.1875 116 44.1875H60H12C10.8954 44.1875 10 45.0829 10 46.1875V108.953C10 110.058 10.8954 110.953 12 110.953H116C117.105 110.953 118 110.058 118 108.953V46.1875Z" fill="url(#paint0_linear_641_93)" stroke="url(#paint1_linear_641_93)" stroke-width="3"/>
<path d="M54.5723 97.2873L79.5724 82.2873C81.0784 81.3837 82.0001 79.7563 82.0001 78C82.0001 76.2436 81.0784 74.6163 79.5724 73.7126L54.5723 58.7126C53.0281 57.786 51.1044 57.7613 49.5363 58.6489C47.969 59.5362 47 61.1986 47 63V93C47 94.8013 47.969 96.4637 49.5366 97.351C50.3014 97.784 51.151 98 52 98C52.891 98 53.7814 97.762 54.5723 97.2873Z" stroke="url(#paint2_linear_641_93)" stroke-width="12" stroke-linejoin="round"/>
<defs>
<linearGradient id="paint0_linear_641_93" x1="13.5349" y1="63.9765" x2="104.853" y2="63.9765" gradientUnits="userSpaceOnUse">
<stop stop-color="#5570FF"/>
<stop offset="1" stop-color="#4DD3FF"/>
</linearGradient>
<linearGradient id="paint1_linear_641_93" x1="13.5349" y1="63.9765" x2="104.853" y2="63.9765" gradientUnits="userSpaceOnUse">
<stop stop-color="#5570FF"/>
<stop offset="1" stop-color="#4DD3FF"/>
</linearGradient>
<linearGradient id="paint2_linear_641_93" x1="47" y1="71.3865" x2="80.021" y2="88.1852" gradientUnits="userSpaceOnUse">
<stop stop-color="#FD5900"/>
<stop offset="1" stop-color="#FFDE00"/>
</linearGradient>
</defs>
</svg>
