<svg width="128" height="128" viewBox="0 0 128 128" fill="none" xmlns="http://www.w3.org/2000/svg">
<path d="M21.9416 13.6949H106.058C110.613 13.6949 114.305 17.3871 114.305 21.9416V106.058C114.305 110.613 110.613 114.305 106.058 114.305H45.0325C43.2107 114.305 41.7338 112.828 41.7338 111.006C41.7338 109.185 43.2107 107.708 45.0325 107.708H106.058C106.97 107.708 107.708 106.97 107.708 106.058V21.9416C107.708 21.0307 106.97 20.2923 106.058 20.2923H21.9416C21.0307 20.2923 20.2923 21.0307 20.2923 21.9416V87.9155C20.2923 89.7373 18.8154 91.2142 16.9936 91.2142C15.1718 91.2142 13.6949 89.7373 13.6949 87.9155V21.9416C13.6949 17.3871 17.3871 13.6949 21.9416 13.6949Z" fill="url(#paint0_linear_614_58)"/>
<path d="M99.7065 74.4459C97.5215 72.113 93.0553 70.7642 86.7269 70.7642C83.3401 70.7642 79.4253 71.1013 75.1625 71.8959C72.5571 69.3215 70.1862 66.5195 68.0777 63.523C66.4455 61.2502 65.0161 58.8434 63.7065 56.4735C66.2034 48.655 67.4161 42.2777 67.4161 37.6835C67.4161 32.5351 65.5555 27.1695 60.2229 27.1695C58.5767 27.1695 56.9445 28.1673 56.0684 29.6363C53.666 33.9671 54.7474 43.4719 58.8903 52.8542C57.3101 57.6403 55.5677 62.3712 53.666 67.0385C51.8657 71.3202 49.8905 75.5259 47.7456 79.6452C35.75 84.5304 27.9805 90.2194 27.2612 94.6955C26.9361 96.3792 27.4895 97.9201 28.6653 99.158C29.0734 99.4955 30.6111 100.83 33.2163 100.83C41.1772 100.83 49.56 87.6578 53.8343 79.7052C57.1013 78.5989 60.3797 77.5872 63.6442 76.5778C67.0941 75.6234 70.5889 74.8403 74.1158 74.2311C82.5217 81.9434 89.9292 83.1584 93.6528 83.1584C98.2408 83.1584 99.8726 81.2575 100.426 79.7052C101.291 77.6958 100.643 75.483 99.6584 74.3396L99.7186 74.4598L99.7065 74.4459ZM95.4552 77.6935C95.1305 79.3657 93.4867 80.4836 91.1927 80.4836C90.5448 80.4836 89.9915 80.3635 89.3321 80.2666C85.1523 79.2549 81.2398 77.1276 77.3366 73.7691C80.3642 73.2598 83.4287 73.0025 86.4987 73C88.7673 73 90.7385 73.1085 92.0571 73.4458C93.5694 73.7715 95.9716 74.7923 95.4327 77.705H95.4921L95.4552 77.6935ZM72.3291 72.4364C69.2911 73.0577 66.2719 73.7679 63.2754 74.566C60.6689 75.2753 58.0861 76.0695 55.5312 76.9474C56.8577 74.3154 58.095 71.6391 59.2407 68.9232C60.5618 65.7843 61.6431 62.5482 62.7359 59.5387C63.8056 61.4281 65.0045 63.329 66.2057 65.0244C68.1745 67.706 70.2288 70.2583 72.2945 72.4826V72.4226L72.3291 72.4364ZM58.0258 30.909C58.218 30.5149 58.5143 30.181 58.8825 29.9436C59.2507 29.7062 59.6768 29.5744 60.1145 29.5624C62.4085 29.5624 62.8396 32.2325 62.8396 34.3737C62.8396 37.97 61.7469 43.4326 59.8863 49.6643C56.6194 40.9796 56.405 33.7131 58.0373 30.909H58.0258ZM46.0303 82.9505C40.4717 92.3211 35.1275 98.1328 31.8492 98.1328C31.2128 98.1328 30.6595 97.9043 30.2284 97.5781C29.569 96.9039 29.2439 96.1229 29.4607 95.2315C30.12 91.8754 36.3402 87.1843 46.0441 82.9482L46.0303 82.9505Z" fill="url(#paint1_linear_614_58)"/>
<path fill-rule="evenodd" clip-rule="evenodd" d="M21.9416 16.3898C18.8755 16.3898 16.3898 18.8755 16.3898 21.9416V87.9155C16.3898 88.249 16.6602 88.5193 16.9936 88.5193C17.327 88.5193 17.5974 88.249 17.5974 87.9155V21.9416C17.5974 19.5424 19.5424 17.5974 21.9416 17.5974H106.058C108.458 17.5974 110.403 19.5427 110.403 21.9416V106.058C110.403 108.458 108.458 110.403 106.058 110.403H45.0325C44.6991 110.403 44.4287 110.673 44.4287 111.006C44.4287 111.34 44.6991 111.61 45.0325 111.61H106.058C109.125 111.61 111.61 109.125 111.61 106.058V21.9416C111.61 18.8754 109.125 16.3898 106.058 16.3898H21.9416ZM11 21.9416C11 15.8987 15.8988 11 21.9416 11H106.058C112.101 11 117 15.8988 117 21.9416V106.058C117 112.101 112.101 117 106.058 117H45.0325C41.7223 117 39.0389 114.316 39.0389 111.006C39.0389 107.696 41.7223 105.013 45.0325 105.013H105.013V22.9872H22.9872V87.9155C22.9872 91.2257 20.3038 93.9091 16.9936 93.9091C13.6834 93.9091 11 91.2257 11 87.9155V21.9416ZM53.7538 28.2559C55.0666 26.0548 57.5346 24.4746 60.2229 24.4746C64.0051 24.4746 66.6272 26.4721 68.1603 29.1611C69.6103 31.7042 70.111 34.8536 70.111 37.6835C70.111 42.4419 68.928 48.7299 66.6259 56.1729C67.7486 58.1555 68.944 60.1093 70.2666 61.951L70.2742 61.9615L70.2817 61.9722C72.0328 64.4609 73.9733 66.8092 76.0854 68.9965C79.9594 68.3511 83.5496 68.0692 86.7269 68.0692C93.2233 68.0692 98.6839 69.4145 101.671 72.6009L101.701 72.5811C103.252 74.3832 104.21 77.6357 102.935 80.6921C102.476 81.9318 101.587 83.2757 100 84.2868C98.4057 85.3026 96.3094 85.8533 93.6528 85.8533C89.7411 85.8533 82.8309 84.6918 74.9894 78.5133V79.3446L72.9751 77.1756C70.0911 77.7194 67.2308 78.3829 64.4014 79.1645L64.262 79.2076C61.3876 80.0963 58.5349 80.9783 55.6958 81.9231C53.5359 85.8492 50.4785 90.8356 46.9656 94.9901C45.0656 97.2371 42.9634 99.324 40.7246 100.867C38.4986 102.401 35.9502 103.525 33.2163 103.525C29.7059 103.525 27.5577 101.741 26.9866 101.267C26.9728 101.255 26.9598 101.245 26.9478 101.235L26.8229 101.131L26.7113 101.014C25.0329 99.2469 24.1118 96.8656 24.6074 94.2256C24.8981 92.482 25.8172 90.8684 26.9953 89.4328C28.1981 87.9673 29.7969 86.5337 31.6802 85.1513C35.2563 82.5262 40.0843 79.9221 45.8051 77.5306C47.7408 73.7594 49.5324 69.9157 51.176 66.0076C52.9241 61.7164 54.5359 57.3708 56.0092 52.9773C54.0813 48.3881 52.838 43.7705 52.3489 39.6701C51.8397 35.4013 52.0943 31.245 53.7117 28.3291L53.7322 28.2922L53.7538 28.2559ZM60.0592 57.778C58.844 61.2349 57.5445 64.6617 56.1618 68.0553L56.1561 68.0692L56.1503 68.083C54.4417 72.1465 52.5782 76.1426 50.5638 80.0626C50.8791 79.5003 51.1785 78.9541 51.4606 78.4294L51.9636 77.4935L52.2947 77.3814L53.1247 75.7345C54.4235 73.1574 55.635 70.537 56.7569 67.8778M98.0865 78.2044C98.1039 78.1191 98.1166 78.0324 98.1247 77.9447C98.1122 78.0277 98.0982 78.1112 98.0826 78.1953L97.1757 78.0275L98.0865 78.2044ZM60.8413 56.8605L60.7859 56.7603L61.1393 55.6537C62.3491 51.8655 63.2352 48.4716 63.8234 45.5016C63.4281 47.0924 62.9732 48.7451 62.4686 50.4353L60.1803 58.0999L60.0592 57.778M59.8304 38.0987C60.0381 36.6692 60.1447 35.4165 60.1447 34.3737C60.1447 33.9222 60.1216 33.483 60.0669 33.0878C60.0653 33.0759 60.0636 33.0642 60.0619 33.0525C59.8035 34.0021 59.6305 35.5904 59.8111 37.8684C59.8171 37.9447 59.8236 38.0214 59.8304 38.0987ZM63.3907 65.6954C63.5954 65.9959 63.8009 66.2918 64.0067 66.5823L64.0199 66.6009L64.0334 66.6193C65.0823 68.0479 66.1606 69.4486 67.2579 70.7908C65.6936 71.1579 64.1347 71.5483 62.5818 71.9619L62.5748 71.9638L62.5678 71.9657C61.9172 72.1427 61.268 72.3249 60.6203 72.5123C60.9969 71.669 61.3647 70.8218 61.7238 69.9707L61.7246 69.9686C62.3194 68.5555 62.8702 67.1145 63.3907 65.6954ZM84.8772 75.7212C86.5213 76.578 88.1714 77.2028 89.8519 77.6193C90.0522 77.6495 90.2145 77.6754 90.3515 77.6974C90.7367 77.759 90.9221 77.7887 91.1927 77.7887C91.9163 77.7887 92.3585 77.6116 92.5754 77.4682C92.6816 77.3979 92.7383 77.3361 92.7699 77.2843L92.7828 77.2147C92.8452 76.8772 92.7992 76.74 92.7931 76.7219C92.7864 76.7022 92.7717 76.6637 92.6961 76.5946C92.6082 76.5143 92.456 76.4116 92.2223 76.3099C91.9921 76.2096 91.7357 76.1333 91.4897 76.0803L91.4393 76.0694L91.3893 76.0567C90.4333 75.8121 88.7688 75.695 86.5009 75.6949C85.9594 75.6954 85.4181 75.7041 84.8772 75.7212ZM60.8413 56.8605L60.2028 58.6189C59.9147 59.4122 59.6325 60.2061 59.3505 60.9996C58.5314 63.3038 57.7135 65.6047 56.7569 67.8778M49.5564 81.8175L48.762 82.1411C47.9663 82.4651 47.1916 82.792 46.4387 83.121L46.4646 83.2082L48.1166 84.1882C48.6197 83.3876 49.1007 82.5933 49.5564 81.8175ZM32.2661 95.3257C32.4833 95.2398 32.7867 95.0896 33.1834 94.8281C33.9918 94.2953 34.9773 93.4396 36.1113 92.2203C36.6291 91.6635 37.1653 91.0446 37.717 90.3662C37.0883 90.7772 36.5054 91.183 35.9698 91.5816C34.6506 92.5636 33.677 93.4595 33.0226 94.2328C32.6316 94.6949 32.4 95.0597 32.2661 95.3257Z" fill="url(#paint2_linear_614_58)"/>
<defs>
<linearGradient id="paint0_linear_614_58" x1="64" y1="11" x2="64" y2="117" gradientUnits="userSpaceOnUse">
<stop stop-color="#F75050"/>
<stop offset="1" stop-color="#A00909"/>
</linearGradient>
<linearGradient id="paint1_linear_614_58" x1="64" y1="11" x2="64" y2="117" gradientUnits="userSpaceOnUse">
<stop stop-color="#F75050"/>
<stop offset="1" stop-color="#A00909"/>
</linearGradient>
<linearGradient id="paint2_linear_614_58" x1="64" y1="11" x2="64" y2="117" gradientUnits="userSpaceOnUse">
<stop stop-color="#F75050"/>
<stop offset="1" stop-color="#A00909"/>
</linearGradient>
</defs>
</svg>
