<svg width="512" height="512" viewBox="0 0 512 512" fill="none" xmlns="http://www.w3.org/2000/svg">
<path d="M497 91H90V15C90 6.71484 83.2852 0 75 0H15C6.71484 0 0 6.71484 0 15C0 23.2852 6.71484 30 15 30H60V497C60 505.285 66.7148 512 75 512C83.2852 512 90 505.285 90 497V421H136C139.98 421 143.793 419.418 146.605 416.605L172.215 391H219.785L245.395 416.605C248.207 419.418 252.02 421 256 421H497C505.285 421 512 414.285 512 406V106C512 97.7148 505.285 91 497 91ZM90 211H121V301H90V211ZM482 391H262.215L236.605 365.395C233.793 362.582 229.98 361 226 361H166C162.02 361 158.207 362.582 155.395 365.395L129.785 391H90V331H136C144.285 331 151 324.285 151 316V196C151 187.715 144.285 181 136 181H90V121H482V391Z" fill="url(#paint0_linear)"/>
<path d="M196 301H249.785L305.395 356.605C309.691 360.902 316.145 362.176 321.738 359.859C327.344 357.535 331 352.066 331 346V166C331 159.934 327.348 154.465 321.738 152.141C316.137 149.82 309.684 151.105 305.395 155.394L249.785 211H196C187.715 211 181 217.715 181 226V286C181 294.285 187.715 301 196 301ZM301 309.785L271 279.785V232.215L301 202.215V309.785ZM211 241H241V271H211V241Z" fill="url(#paint1_linear)"/>
<path d="M376 301C384.285 301 391 294.285 391 286V226C391 217.715 384.285 211 376 211C367.715 211 361 217.715 361 226V286C361 294.285 367.715 301 376 301Z" fill="url(#paint2_linear)"/>
<path d="M436 331C444.285 331 451 324.285 451 316V196C451 187.715 444.285 181 436 181C427.715 181 421 187.715 421 196V316C421 324.285 427.715 331 436 331Z" fill="url(#paint3_linear)"/>
<defs>
<linearGradient id="paint0_linear" x1="256" y1="512" x2="256" y2="-3.05176e-05" gradientUnits="userSpaceOnUse">
<stop stop-color="#02AA93"/>
<stop offset="1" stop-color="#67FF80"/>
</linearGradient>
<linearGradient id="paint1_linear" x1="256" y1="361" x2="256" y2="151" gradientUnits="userSpaceOnUse">
<stop stop-color="#FD5900"/>
<stop offset="1" stop-color="#FFDE00"/>
</linearGradient>
<linearGradient id="paint2_linear" x1="376" y1="301" x2="376" y2="211" gradientUnits="userSpaceOnUse">
<stop stop-color="#FD5900"/>
<stop offset="1" stop-color="#FFDE00"/>
</linearGradient>
<linearGradient id="paint3_linear" x1="436" y1="331" x2="436" y2="181" gradientUnits="userSpaceOnUse">
<stop stop-color="#FD5900"/>
<stop offset="1" stop-color="#FFDE00"/>
</linearGradient>
</defs>
</svg>
