<svg width="128" height="128" viewBox="0 0 128 128" fill="none" xmlns="http://www.w3.org/2000/svg">
<path d="M19.2904 14C17.517 14 16.6209 16.1369 17.8638 17.4018L44.001 44H82C83.1046 44 84 44.8954 84 46V84L110.594 110.286C111.857 111.535 114 110.64 114 108.864V16C114 14.8954 113.105 14 112 14H19.2904ZM44.001 44L14.5858 73.4142C14.2107 73.7893 14 74.298 14 74.8284V112C14 113.105 14.8954 114 16 114H54.1242C54.6661 114 55.1847 113.78 55.5615 113.391L84 84H45.9991C44.8945 84 43.999 83.1045 43.9991 81.9999L44.001 44Z" fill="url(#paint0_linear_607_14)"/>
<defs>
<linearGradient id="paint0_linear_607_14" x1="41.1845" y1="53.6243" x2="109.783" y2="44.4711" gradientUnits="userSpaceOnUse">
<stop stop-color="#0357D1"/>
<stop offset="1" stop-color="#27CDFC"/>
</linearGradient>
</defs>
</svg>
