<svg width="32" height="32" viewBox="0 0 32 32" fill="none" xmlns="http://www.w3.org/2000/svg">
<path d="M9.97454 2.00381C9.88402 2.02745 9.80104 2.07383 9.73348 2.13855C9.66592 2.20326 9.61602 2.28418 9.58852 2.3736C9.56102 2.46303 9.55684 2.558 9.57636 2.64949C9.59588 2.74099 9.63846 2.82598 9.70007 2.89639L11.3129 5.22941C10.3752 5.94769 9.61518 6.87196 9.09166 7.9308C8.56814 8.98964 8.29511 10.1547 8.29367 11.3359V22.3148C8.29367 23.0866 8.77784 23.6355 9.39156 24.0308V27.2553C9.39156 28.7561 10.6355 30 12.1363 30C13.6371 30 14.881 28.7561 14.881 27.2553V24.5106H17.0768V27.2553C17.0768 28.7561 18.3207 30 19.8215 30C21.3223 30 22.5662 28.7561 22.5662 27.2553V24.0297C23.18 23.6355 23.6641 23.0866 23.6641 22.3148V11.3359C23.6629 10.1545 23.3899 8.98924 22.8664 7.9302C22.3429 6.87115 21.5828 5.9467 20.6449 5.22831L22.2577 2.8953C22.3231 2.8133 22.3636 2.71434 22.3746 2.61008C22.3855 2.50581 22.3665 2.40059 22.3196 2.30679C22.2728 2.213 22.2001 2.13454 22.1102 2.08067C22.0202 2.02679 21.9168 1.99975 21.812 2.00271C21.7777 1.99876 21.743 1.99913 21.7088 2.00381C21.6357 2.0234 21.5674 2.05789 21.5083 2.10513C21.4491 2.15236 21.4004 2.21131 21.3651 2.27828L19.7183 4.6113C18.5743 3.97719 17.2869 3.64648 15.9789 3.65064C14.6709 3.64648 13.3835 3.97719 12.2395 4.6113L10.5927 2.27828C10.5473 2.19884 10.4827 2.13207 10.4048 2.0841C10.327 2.03614 10.2383 2.00853 10.1469 2.00381C10.1126 1.99949 10.078 1.99949 10.0437 2.00381H9.97454ZM15.9789 5.84642C17.2455 5.84485 18.4736 6.28122 19.4553 7.08157C20.4369 7.88193 21.1116 8.99705 21.3651 10.238H10.5927C11.1032 7.72931 13.3154 5.84642 15.9789 5.84642ZM13.7831 6.94431C13.1793 6.94431 12.6852 7.43836 12.6852 8.0422C12.6852 8.64604 13.1793 9.14009 13.7831 9.14009C14.387 9.14009 14.881 8.64604 14.881 8.0422C14.881 7.43836 14.387 6.94431 13.7831 6.94431ZM18.1747 6.94431C17.5708 6.94431 17.0768 7.43836 17.0768 8.0422C17.0768 8.64604 17.5708 9.14009 18.1747 9.14009C18.7785 9.14009 19.2726 8.64604 19.2726 8.0422C19.2726 7.43836 18.7785 6.94431 18.1747 6.94431ZM6 10.238C5.44772 10.238 5 10.6857 5 11.238V20.2169C5 20.7692 5.44772 21.2169 6 21.2169H6.19578C6.74806 21.2169 7.19578 20.7692 7.19578 20.2169V11.238C7.19578 10.6857 6.74806 10.238 6.19578 10.238H6ZM25.762 10.238C25.2097 10.238 24.762 10.6857 24.762 11.238V20.2169C24.762 20.7692 25.2097 21.2169 25.762 21.2169H25.9578C26.5101 21.2169 26.9578 20.7692 26.9578 20.2169V11.238C26.9578 10.6857 26.5101 10.238 25.9578 10.238H25.762ZM10.4894 12.4338H21.4683V22.3148H20.3705V27.2553C20.3705 27.5682 20.1344 27.8042 19.8215 27.8042C19.749 27.8059 19.6769 27.7928 19.6095 27.7658C19.5422 27.7388 19.481 27.6984 19.4297 27.6471C19.3784 27.5958 19.338 27.5346 19.311 27.4673C19.284 27.3999 19.2709 27.3278 19.2726 27.2553V22.3148H12.6852V27.2553C12.6852 27.5682 12.4492 27.8042 12.1363 27.8042C12.0637 27.8059 11.9916 27.7928 11.9243 27.7658C11.8569 27.7388 11.7958 27.6984 11.7444 27.6471C11.6931 27.5958 11.6528 27.5346 11.6258 27.4673C11.5988 27.3999 11.5857 27.3278 11.5873 27.2553V22.3148H10.4894V12.4338Z" fill="url(#paint0_linear_678_238)" stroke="url(#paint1_linear_678_238)" stroke-width="0.6"/>
<defs>
<linearGradient id="paint0_linear_678_238" x1="15.9789" y1="30" x2="15.9789" y2="2" gradientUnits="userSpaceOnUse">
<stop stop-color="#00B59C"/>
<stop offset="1" stop-color="#9CFFAC"/>
</linearGradient>
<linearGradient id="paint1_linear_678_238" x1="15.9789" y1="30" x2="15.9789" y2="2" gradientUnits="userSpaceOnUse">
<stop stop-color="#00B59C"/>
<stop offset="1" stop-color="#9CFFAC"/>
</linearGradient>
</defs>
</svg>
