<svg width="128" height="128" viewBox="0 0 128 128" fill="none" xmlns="http://www.w3.org/2000/svg">
<path fill-rule="evenodd" clip-rule="evenodd" d="M50.6654 15C46.9596 15 43.1589 16.3828 40.2806 19.2612L6.26109 53.2843C0.572583 58.973 0.585534 68.3637 6.26562 74.044L40.2851 108.067L40.2857 108.068C45.9657 113.747 55.3611 113.761 61.0501 108.073L61.0506 108.072L68.2462 100.876L59.7614 92.3901L52.5653 99.5871C51.5716 100.58 49.7738 100.585 48.7709 99.5826L14.7514 65.5592C13.7489 64.5567 13.7523 62.7637 14.7463 61.7697L48.7658 27.7464C49.2288 27.2835 49.9013 27 50.6654 27C51.4296 27 52.1018 27.2833 52.5648 27.7462L59.7565 34.9387L68.2413 26.453L61.0506 19.2614C58.1722 16.383 54.3712 15 50.6654 15Z" fill="url(#paint0_linear_641_37)"/>
<path d="M76.6654 21C74.4304 21 72.1939 21.8331 70.5232 23.5038L36.5037 57.527C33.1623 60.8684 33.167 66.4602 36.5085 69.8016L70.528 103.825C73.8695 107.166 79.4663 107.171 82.8077 103.83L116.827 69.8064C120.169 66.4651 120.169 60.8684 116.827 57.5271L82.8077 23.5038C81.137 21.8331 78.9005 21 76.6654 21Z" stroke="url(#paint1_linear_641_37)" stroke-width="12"/>
<defs>
<linearGradient id="paint0_linear_641_37" x1="65.2449" y1="16.6729" x2="-19.067" y2="76.9993" gradientUnits="userSpaceOnUse">
<stop stop-color="#D800BD"/>
<stop offset="0.408098" stop-color="#F92D7A"/>
<stop offset="0.590073" stop-color="#FF4A52"/>
<stop offset="1" stop-color="#FFB243"/>
</linearGradient>
<linearGradient id="paint1_linear_641_37" x1="116.451" y1="23.4391" x2="83.1668" y2="107.014" gradientUnits="userSpaceOnUse">
<stop stop-color="#FE0F7C"/>
<stop offset="1" stop-color="#DF0066"/>
</linearGradient>
</defs>
</svg>
