<svg width="64" height="64" viewBox="0 0 64 64" fill="none" xmlns="http://www.w3.org/2000/svg">
<path fill-rule="evenodd" clip-rule="evenodd" d="M7.00797 52.8476L10.5786 10H53.4214L56.9921 52.8476C56.9857 52.898 56.9748 52.9662 56.9569 53.0442C56.919 53.2089 56.8655 53.3466 56.8092 53.4412C56.7612 53.5219 56.7309 53.5405 56.7177 53.5483L56.7173 53.5485C56.7082 53.5541 56.5726 53.6364 56.1818 53.6364H7.81821C7.42745 53.6364 7.29191 53.5541 7.28277 53.5485L7.2824 53.5483C7.26917 53.5405 7.23886 53.5219 7.19082 53.4412C7.13453 53.3466 7.08106 53.2089 7.04317 53.0442C7.02521 52.9662 7.01439 52.898 7.00797 52.8476ZM9.65848 4C7.05804 4 4.8917 5.99331 4.67575 8.58477L1.0173 52.4861C1.0068 52.6122 0.994767 52.8079 1.00593 53.0424C1.02784 53.5026 1.14789 55.0196 2.03498 56.51C3.04954 58.2145 4.93937 59.6364 7.81821 59.6364H56.1818C59.0607 59.6364 60.9505 58.2145 61.9651 56.51C62.8522 55.0196 62.9722 53.5026 62.9941 53.0424C63.0053 52.8079 62.9933 52.6122 62.9828 52.4861L59.3243 8.58477C59.1084 5.99331 56.942 4 54.3416 4H9.65848ZM16.7593 17.2139C17.5947 16.3785 18.7277 15.9092 19.9091 15.9092C21.0906 15.9092 22.2236 16.3785 23.059 17.2139C23.8944 18.0493 24.3637 19.1823 24.3637 20.3637C24.3637 21.5451 23.8944 22.6782 23.059 23.5136C22.2236 24.349 21.0906 24.8183 19.9091 24.8183C18.7277 24.8183 17.5947 24.349 16.7593 23.5136C15.9239 22.6782 15.4546 21.5451 15.4546 20.3637C15.4546 19.1823 15.9239 18.0493 16.7593 17.2139ZM40.9411 17.2139C41.7765 16.3785 42.9095 15.9092 44.091 15.9092C45.2724 15.9092 46.4054 16.3785 47.2408 17.2139C48.0762 18.0493 48.5455 19.1823 48.5455 20.3637C48.5455 21.5451 48.0762 22.6782 47.2408 23.5136C46.4054 24.349 45.2724 24.8183 44.091 24.8183C42.9095 24.8183 41.7765 24.349 40.9411 23.5136C40.1057 22.6782 39.6364 21.5451 39.6364 20.3637C39.6364 19.1823 40.1057 18.0493 40.9411 17.2139Z" fill="url(#paint0_linear)"/>
<path d="M19.908 18.4823C19.6415 18.4824 19.378 18.5382 19.1344 18.646C18.8908 18.7539 18.6725 18.9115 18.4937 19.1086C18.3148 19.3057 18.1793 19.5379 18.0959 19.7904C18.0125 20.0429 17.983 20.3101 18.0093 20.5746C18.0093 20.5746 18.3599 24.932 20.1789 29.3828C21.0884 31.6082 22.3701 33.9025 24.287 35.7169C26.2038 37.5313 28.8341 38.8182 31.9985 38.8182C35.1629 38.8182 37.7932 37.5313 39.7101 35.7169C41.6269 33.9025 42.9086 31.6082 43.8181 29.3828C45.6371 24.932 45.9877 20.5746 45.9877 20.5746C46.0166 20.3216 45.9944 20.0653 45.9223 19.821C45.8502 19.5767 45.7297 19.3493 45.568 19.1523C45.4062 18.9552 45.2064 18.7926 44.9805 18.6739C44.7546 18.5552 44.5072 18.483 44.2528 18.4614C43.9984 18.4399 43.7423 18.4694 43.4995 18.5484C43.2568 18.6273 43.0324 18.754 42.8396 18.921C42.6469 19.088 42.4896 19.2919 42.3772 19.5205C42.2649 19.7492 42.1996 19.9981 42.1853 20.2523C42.1853 20.2523 41.837 24.1454 40.2842 27.945C39.5077 29.8447 38.4349 31.6757 37.0832 32.9552C35.7315 34.2347 34.1783 35.0103 31.9985 35.0103C29.8187 35.0103 28.2655 34.2347 26.9138 32.9552C25.5621 31.6757 24.4893 29.8447 23.7129 27.945C22.16 24.1454 21.8117 20.2523 21.8117 20.2523C21.7777 19.7718 21.5624 19.322 21.2091 18.9935C20.8559 18.6651 20.391 18.4824 19.908 18.4823V18.4823Z" fill="url(#paint1_linear)"/>
<defs>
<linearGradient id="paint0_linear" x1="32" y1="4" x2="32" y2="59.6364" gradientUnits="userSpaceOnUse">
<stop stop-color="#DC18FC"/>
<stop offset="1" stop-color="#8E1EFF"/>
</linearGradient>
<linearGradient id="paint1_linear" x1="32" y1="38.8182" x2="32" y2="18.4546" gradientUnits="userSpaceOnUse">
<stop stop-color="#B555FF"/>
<stop offset="1" stop-color="#FF5454"/>
</linearGradient>
</defs>
</svg>
