<svg width="64" height="64" viewBox="0 0 64 64" fill="none" xmlns="http://www.w3.org/2000/svg">
<g clip-path="url(#clip0_644_69)">
<path d="M27.5417 1.8232C34.2373 0.838076 41.2575 2.11639 47.1284 5.50177C53.5466 9.14515 58.5537 15.2005 60.9067 22.198C63.8617 30.81 62.7008 40.7277 57.7641 48.3858C57.1309 49.2771 56.6227 50.4577 55.4892 50.8017C54.168 51.2239 52.6593 50.1723 52.5967 48.7924C52.4951 48.0066 52.9837 47.342 53.3941 46.7322C57.0683 41.4782 58.6397 34.8169 57.7328 28.4723C57.0644 23.5428 54.9224 18.8244 51.6664 15.0676C47.6873 10.4274 42.0236 7.26091 35.9767 6.35006C30.5279 5.4744 24.8055 6.4517 19.9313 9.03178C13.8884 12.1904 9.20574 17.8197 7.20055 24.3403C4.84748 31.8029 6.11001 40.3133 10.6207 46.7205C11.1171 47.4437 11.7699 48.2216 11.5901 49.1716C11.4806 50.4421 10.1438 51.3803 8.90476 51.091C7.82595 50.9268 7.27872 49.8752 6.70414 49.0699C2.94002 43.5188 1.1029 36.6973 1.57195 30.0086C1.98237 23.1479 4.83967 16.4788 9.48717 11.4242C14.1659 6.27579 20.6545 2.81223 27.5417 1.8232Z" fill="url(#paint0_linear_644_69)" stroke="url(#paint1_linear_644_69)" stroke-width="2"/>
<path d="M29.9432 15.7753C30.5647 13.9145 33.5315 13.9301 34.1295 15.7987C36.4904 22.3701 38.8395 28.9532 41.1379 35.552C41.6656 36.9045 40.532 38.5386 39.078 38.4956C36.5881 38.5581 34.0943 38.7966 31.6005 38.7145C29.6461 38.3666 29.1888 35.4269 30.9673 34.5238C32.4956 33.9101 34.2233 34.2776 35.8298 34.0899C34.5165 30.4192 33.1953 26.7484 31.9249 23.062C27.8911 33.1986 23.8651 43.3391 19.8312 53.4757C19.6866 53.8862 19.5498 54.3005 19.4169 54.7149C26.6716 58.8274 35.9197 59.0424 43.3933 55.3677C42.2206 51.697 40.6728 48.1513 39.422 44.508C38.906 43.1788 39.9965 41.6073 41.4037 41.5604C42.4825 41.4588 43.4871 42.2328 43.7802 43.257C45.3007 47.3148 46.833 51.3686 48.3456 55.4303C48.7717 56.3607 48.5215 57.5882 47.6577 58.1746C37.9054 64.2143 24.6547 63.9211 15.1798 57.4475C14.2964 56.8533 14.0228 55.6023 14.4802 54.6602C19.6241 41.6933 24.768 28.7265 29.9432 15.7753Z" fill="url(#paint2_linear_644_69)" stroke="url(#paint3_linear_644_69)" stroke-width="2"/>
</g>
<defs>
<linearGradient id="paint0_linear_644_69" x1="32.007" y1="51.1437" x2="32.007" y2="1.5" gradientUnits="userSpaceOnUse">
<stop stop-color="#5570FF"/>
<stop offset="1" stop-color="#4DD3FF"/>
</linearGradient>
<linearGradient id="paint1_linear_644_69" x1="32.007" y1="51.1437" x2="32.007" y2="1.5" gradientUnits="userSpaceOnUse">
<stop stop-color="#5570FF"/>
<stop offset="1" stop-color="#4DD3FF"/>
</linearGradient>
<linearGradient id="paint2_linear_644_69" x1="31.4054" y1="62.5113" x2="31.4054" y2="14.3884" gradientUnits="userSpaceOnUse">
<stop stop-color="#5570FF"/>
<stop offset="1" stop-color="#4DD3FF"/>
</linearGradient>
<linearGradient id="paint3_linear_644_69" x1="31.4054" y1="62.5113" x2="31.4054" y2="14.3884" gradientUnits="userSpaceOnUse">
<stop stop-color="#5570FF"/>
<stop offset="1" stop-color="#4DD3FF"/>
</linearGradient>
<clipPath id="clip0_644_69">
<rect width="64" height="64" fill="white"/>
</clipPath>
</defs>
</svg>
