<svg width="128" height="128" viewBox="0 0 128 128" fill="none" xmlns="http://www.w3.org/2000/svg">
<path d="M54.2925 35.7632C58.0693 33.7476 62.8574 37.9009 61.7562 42.2723C61.1608 46.5477 55.6221 48.4585 52.7917 45.3697C49.9367 42.7434 50.7442 37.2116 54.2925 35.7632Z" fill="url(#paint0_linear)"/>
<path fill-rule="evenodd" clip-rule="evenodd" d="M113.088 12.3182C117.518 10.9483 122.453 14.1679 123.766 18.7923C128.008 33.3549 128.073 49.3047 123.839 63.8847C122.738 67.8722 119.157 71.022 115.193 70.8475C112.919 70.9831 110.922 69.7195 109.038 68.5276L108.871 68.4219C104.045 65.379 99.1949 62.381 94.3452 59.3833C87.8751 55.3839 81.4058 51.3849 74.995 47.2805C71.1368 44.6541 71.2999 37.8746 75.2479 35.4228C81.403 31.5544 87.5787 27.7271 93.7548 23.8995L93.755 23.8993C98.6119 20.8893 103.469 17.879 108.317 14.8485C108.556 14.7034 108.795 14.5561 109.035 14.4085C110.336 13.6062 111.649 12.7972 113.088 12.3182ZM85.069 41.3298C91.5978 45.7777 98.3418 49.8923 105.083 54.0055C108.34 55.9922 111.595 57.9786 114.826 60.002C117.974 47.9698 118.129 34.9778 114.785 22.9718C108.449 26.7932 102.165 30.7064 95.882 34.6193L95.8819 34.6193C92.2808 36.862 88.6797 39.1046 85.069 41.3298ZM42.7748 55.7178C46.8614 53.7546 51.9759 57.6549 51.7475 62.4101C51.7824 72.7935 51.7758 83.1814 51.7691 93.5674V93.5683C51.7665 97.722 51.7638 101.875 51.7638 106.028C52.0248 111.595 46.9185 116.847 41.6817 115.696C28.141 112.764 15.5874 105.147 5.92946 94.6153C3.39263 92.2071 1.45941 88.6646 2.13645 84.9214C2.51983 81.7542 4.55092 79.058 7.17749 77.6445C12.0194 74.6981 16.8302 71.6897 21.6408 68.6814L21.6411 68.6812C28.6545 64.2953 35.6673 59.9099 42.7748 55.7178ZM12.3327 86.3786C19.9432 95.8979 30.8247 102.102 42.0814 105.182C42.0814 101.046 42.0823 96.9104 42.0832 92.7755C42.085 84.5068 42.0869 76.2394 42.0814 67.9682L39.6223 69.5073L39.6216 69.5077C30.5558 75.1822 21.4888 80.8574 12.3327 86.3786ZM71.6018 56.5991C69.6523 55.2467 67.1236 54.7144 64.9538 55.7877C62.572 56.9219 60.8753 59.5832 60.9487 62.4014C60.8916 77.217 60.8835 92.0326 60.965 106.839C61.0629 112.223 66.2182 116.795 71.1858 115.687C85.4769 112.45 98.7239 104.178 108.529 92.6172C112.15 88.3505 110.984 80.8467 106.22 78.1244C100.117 74.3054 93.9976 70.5108 87.8781 66.7161C82.4492 63.3497 77.0201 59.9831 71.6018 56.5991ZM70.6214 84.0715C70.6204 78.8194 70.6194 73.5675 70.6229 68.3172C76.7812 71.7378 82.7659 75.5139 88.7511 79.2904C92.6439 81.7466 96.5368 84.203 100.478 86.5618C92.4429 95.6187 81.9857 102.232 70.6148 105.129C70.6241 98.1117 70.6227 91.0914 70.6214 84.0715Z" fill="url(#paint1_linear)"/>
<defs>
<linearGradient id="paint0_linear" x1="56.4902" y1="46.89" x2="56.4902" y2="35.2397" gradientUnits="userSpaceOnUse">
<stop stop-color="#FD5900"/>
<stop offset="1" stop-color="#FFDE00"/>
</linearGradient>
<linearGradient id="paint1_linear" x1="85.7787" y1="115.854" x2="85.7787" y2="55.2159" gradientUnits="userSpaceOnUse">
<stop stop-color="#FD5900"/>
<stop offset="1" stop-color="#FFDE00"/>
</linearGradient>
</defs>
</svg>
