<svg width="128" height="128" viewBox="0 0 128 128" fill="none" xmlns="http://www.w3.org/2000/svg">
<path d="M13 3H115C120.523 3 125 7.47716 125 13V115C125 120.523 120.523 125 115 125H41C38.7909 125 37 123.209 37 121C37 118.791 38.7909 117 41 117H115C116.105 117 117 116.105 117 115V13C117 11.8954 116.105 11 115 11H13C11.8954 11 11 11.8954 11 13V93C11 95.2091 9.20914 97 7 97C4.79086 97 3 95.2091 3 93V13C3 7.47714 7.47716 3 13 3Z" fill="url(#paint0_linear)"/>
<path d="M111.505 77.8975C108.598 74.7938 102.656 72.9992 94.2366 72.9992C89.7308 72.9992 84.5225 73.4478 78.8511 74.5049C75.3849 71.0799 72.2305 67.352 69.4254 63.3654C67.2538 60.3416 65.3521 57.1396 63.6098 53.9867C66.9317 43.5847 68.5451 35.1003 68.5451 28.9881C68.5451 22.1385 66.0698 15 58.9752 15C56.7851 15 54.6135 16.3275 53.4479 18.2819C50.2518 24.0437 51.6904 36.689 57.2023 49.1714C55.0999 55.539 52.7818 61.833 50.2518 68.0425C47.8566 73.739 45.2288 79.3344 42.3751 84.8147C26.416 91.3141 16.0793 98.8828 15.1223 104.838C14.6898 107.078 15.426 109.128 16.9903 110.775C17.5332 111.224 19.579 113 23.0451 113C33.6364 113 44.789 95.4749 50.4757 84.8946C54.8221 83.4227 59.1838 82.0767 63.527 80.7338C68.1168 79.4641 72.7663 78.4222 77.4586 77.6117C88.6419 87.8723 98.4971 89.4887 103.451 89.4887C109.555 89.4887 111.726 86.9597 112.462 84.8946C113.613 82.2212 112.751 79.2773 111.441 77.7561L111.521 77.9159L111.505 77.8975ZM105.849 82.2181C105.417 84.4429 103.23 85.9302 100.178 85.9302C99.316 85.9302 98.5799 85.7704 97.7026 85.6414C92.1417 84.2954 86.9365 81.4652 81.7436 76.9971C85.7716 76.3195 89.8486 75.9772 93.933 75.9738C96.9512 75.9738 99.5737 76.1182 101.328 76.5669C103.34 77.0002 106.536 78.3584 105.819 82.2335H105.898L105.849 82.2181ZM75.0815 75.224C71.0397 76.0506 67.0229 76.9954 63.0363 78.0573C59.5685 79.0009 56.1323 80.0575 52.7333 81.2255C54.4981 77.7238 56.1442 74.1633 57.6685 70.55C59.4261 66.3739 60.8646 62.0686 62.3185 58.0646C63.7417 60.5783 65.3367 63.1073 66.9348 65.3629C69.5542 68.9306 72.2872 72.3262 75.0355 75.2855V75.2056L75.0815 75.224ZM56.0521 19.9751C56.3078 19.4508 56.702 19.0066 57.1919 18.6907C57.6818 18.3749 58.2487 18.1995 58.831 18.1836C61.883 18.1836 62.4565 21.7359 62.4565 24.5846C62.4565 29.3692 61.0027 36.6368 58.5274 44.9276C54.181 33.3733 53.8958 23.7057 56.0674 19.9751H56.0521ZM40.093 89.2122C32.6978 101.679 25.5878 109.411 21.2262 109.411C20.3796 109.411 19.6435 109.107 19.0699 108.673C18.1926 107.776 17.7601 106.737 18.0485 105.551C18.9257 101.086 27.2012 94.8449 40.1114 89.2091L40.093 89.2122Z" fill="url(#paint1_linear)" stroke="url(#paint2_linear)" stroke-width="4"/>
<defs>
<linearGradient id="paint0_linear" x1="64" y1="125" x2="64" y2="3" gradientUnits="userSpaceOnUse">
<stop stop-color="#FF2424"/>
<stop offset="1" stop-color="#FF8D8D"/>
</linearGradient>
<linearGradient id="paint1_linear" x1="64" y1="113" x2="64" y2="15" gradientUnits="userSpaceOnUse">
<stop stop-color="#FF2424"/>
<stop offset="1" stop-color="#FF8D8D"/>
</linearGradient>
<linearGradient id="paint2_linear" x1="64" y1="113" x2="64" y2="15" gradientUnits="userSpaceOnUse">
<stop stop-color="#FF2424"/>
<stop offset="1" stop-color="#FF8D8D"/>
</linearGradient>
</defs>
</svg>
