<svg width="128" height="128" viewBox="0 0 128 128" fill="none" xmlns="http://www.w3.org/2000/svg">
<path d="M48.3356 8.2416C51.1986 7.12907 54.3988 10.0522 53.6813 13.0553C53.4086 14.9459 51.708 16.1311 49.9931 16.5528C37.8235 20.254 27.3329 29.176 21.5567 40.643C16.6702 50.205 15.1059 61.4611 17.2011 72.0191C19.2964 83.0426 25.4027 93.1935 34.0276 100.218C41.8633 106.69 51.8013 110.463 61.8972 110.892C71.6344 111.336 81.4932 108.675 89.688 103.315C98.8223 97.4035 105.883 88.2635 109.255 77.8146C113.08 66.2094 112.305 53.128 107.096 42.0828C101.743 30.5212 91.6685 21.3084 79.7501 17.1345C77.9414 16.6473 76.2408 15.2294 76.1404 13.2153C75.7389 10.2267 79.061 7.69625 81.7879 8.90333C91.5534 12.1827 100.365 18.2907 106.959 26.2893C114.4 35.2186 118.957 46.562 119.825 58.218C120.758 70.0123 117.945 82.0903 111.824 92.1756C105.165 103.258 94.6535 111.903 82.5484 116.157C70.63 120.403 57.2977 120.396 45.3792 116.135C33.1307 111.816 22.5182 102.988 15.8809 91.7026C10.0759 81.9082 7.34923 70.3031 8.13136 58.9088C8.8561 46.6783 13.7139 34.7459 21.6714 25.5258C28.6604 17.3163 38.0459 11.2229 48.3356 8.2416Z" fill="url(#paint0_linear_618_223)" stroke="url(#paint1_linear_618_223)" stroke-width="4"/>
<path d="M45.4123 38.4276C47.3899 35.9339 50.8841 37.0187 53.6051 36.7927C59.3594 37.0715 65.2401 36.1297 70.8905 37.5009C77.8565 39.4748 83.1792 46.2101 83.4472 53.5556C83.6332 61.8354 83.5365 70.1227 83.4099 78.4027C83.2465 83.0807 79.6332 87.2927 75.1425 88.2413C71.2172 88.784 67.2325 88.362 63.2774 88.498C58.8019 88.6487 54.2668 87.202 50.8172 84.2787C45.6577 80.0673 43.1597 72.8573 44.5574 66.2879C45.903 59.1985 51.7614 53.2693 58.7721 51.9283C63.9539 51.1147 69.2325 51.7399 74.4512 51.5064C73.0759 48.3648 70.2065 45.7957 66.7199 45.5697C60.6233 45.3663 54.5121 45.6451 48.4159 45.4567C45.1075 45.419 43.234 40.9213 45.4123 38.4276ZM52.9211 68.4953C52.1331 72.8727 54.8095 77.5287 58.9059 79.0807C62.4373 80.3613 66.2883 79.5553 69.9539 79.796C71.5299 79.638 73.7452 80.3233 74.6672 78.576C75.1872 72.488 74.2505 66.3557 74.8305 60.2608C70.4665 60.4943 66.0951 60.1629 61.731 60.3437C57.3893 60.5245 53.5457 64.1633 52.9211 68.4953Z" fill="url(#paint2_linear_618_223)" stroke="url(#paint3_linear_618_223)" stroke-width="4"/>
<defs>
<linearGradient id="paint0_linear_618_223" x1="8.01641" y1="62.0185" x2="120.019" y2="62.0185" gradientUnits="userSpaceOnUse">
<stop stop-color="#9000FF"/>
<stop offset="0.96875" stop-color="#FF12FF"/>
</linearGradient>
<linearGradient id="paint1_linear_618_223" x1="8.01641" y1="62.0185" x2="120.019" y2="62.0185" gradientUnits="userSpaceOnUse">
<stop stop-color="#9000FF"/>
<stop offset="0.96875" stop-color="#FF12FF"/>
</linearGradient>
<linearGradient id="paint2_linear_618_223" x1="44.1796" y1="61.8628" x2="83.5572" y2="61.8628" gradientUnits="userSpaceOnUse">
<stop stop-color="#9000FF"/>
<stop offset="1" stop-color="#FF13FF"/>
</linearGradient>
<linearGradient id="paint3_linear_618_223" x1="44.1796" y1="61.8627" x2="83.5574" y2="61.8627" gradientUnits="userSpaceOnUse">
<stop stop-color="#9000FF"/>
<stop offset="0.96875" stop-color="#FF12FF"/>
</linearGradient>
</defs>
</svg>
