<svg width="128" height="128" viewBox="0 0 128 128" fill="none" xmlns="http://www.w3.org/2000/svg">
<path d="M46.2292 20C43.3856 20 41.45 22.884 42.5276 25.5157L42.6916 25.916C44.002 29.108 45.7204 36.453 45.8432 41.174C45.8752 42.408 45.1608 43.4984 44.1312 44.1792C40.7696 46.4004 38.221 48.5704 36.1439 50.5708C34.6378 52.0212 32.3076 52.168 30.5563 51.0252C26.7216 48.524 20.8025 45.8152 12.3026 45.8152H12C9.79088 45.8152 8 47.606 8 49.8152V50.118C8 56.8188 9.96836 62.4968 11.2744 65.6108C11.7348 66.7084 11.729 67.9452 11.2604 69.0392C9.95064 72.0976 8 77.6476 8 84.5384V84.8408C8 87.05 9.79088 88.8408 12 88.8408H12.3026C20.7841 88.8408 26.7546 86.092 30.61 83.582C32.3383 82.4568 34.6371 82.5844 36.1577 83.9776C40.424 87.8864 45.8496 91.8052 52.3296 95.0648C53.9292 95.8696 54.8416 97.5912 54.736 99.3788C54.6048 101.598 54.7128 104.224 55.4616 107.127L55.5116 107.326C55.9576 109.106 57.5572 110.354 59.3916 110.354H59.6308C64.94 110.354 69.5136 107.716 73.2096 105.38C75.2012 104.116 76.5156 103.103 77.3976 102.375C78.09 101.803 78.9448 101.466 79.8412 101.409C96.158 100.372 106.65 91.3972 112.337 82.5204C118.108 73.5268 119.721 64.5608 119.857 63.7556C119.864 63.712 119.87 63.6748 119.875 63.6312L119.88 63.5912C119.959 62.954 119.883 62.3072 119.659 61.7052L119.605 61.5584C119.602 61.55 119.602 61.552 119.599 61.5436C119.5 61.274 110.05 35.6736 84.7992 33.3009C83.6788 33.1956 82.6324 32.6676 81.8548 31.8539C79.1224 28.9945 75.49 26.5739 70.6584 24.5693C64.084 21.8501 55.8144 20 46.7232 20H46.2292ZM53.744 34.0906C53.468 31.643 55.5012 29.4482 57.9248 29.8884C61.3864 30.517 64.5824 31.3816 67.2936 32.5032C72.7924 34.775 76.6216 38.032 77.512 39.4949L77.5596 39.5744C78.2832 40.7772 79.584 41.5128 80.9876 41.5128H81.1436C100.499 41.5128 108.695 58.014 110.59 62.54C110.871 63.2088 110.929 63.94 110.768 64.6468C110.214 67.0844 108.747 72.234 105.079 77.9512C100.084 85.7304 91.9988 93.1436 76.8408 93.1436H76.7492C75.7692 93.1436 74.8232 93.5036 74.0908 94.1548L74.05 94.1912C74.0288 94.21 74.0088 94.2276 73.9872 94.2456C73.704 94.484 71.5344 96.2892 68.6404 98.1172C68.4472 98.2388 68.2576 98.3484 68.0704 98.4484C66.2808 99.4056 64.0488 97.25 63.9368 95.2236C63.9212 94.9464 63.9676 95.0244 64.0348 94.7552L64.0688 94.62C64.5256 92.7956 63.5136 90.9244 61.7368 90.3076L61.3776 90.1832C50.7244 86.1176 41.6632 78.4548 37.0423 73.1108L36.8112 72.8376C35.3421 71.1016 32.7029 70.992 31.0947 72.6C30.9354 72.7596 30.7642 72.9036 30.5763 73.028C29.7689 73.5624 27.2654 75.1464 23.8121 76.6396C21.0786 77.8216 18.4797 75.3308 19.3806 72.4924C19.873 70.9408 20.2824 69.8088 20.437 69.39C20.4813 69.2704 20.5321 69.1552 20.5892 69.0408C21.1268 67.9656 21.129 66.6952 20.5913 65.6196C20.5326 65.5024 20.4812 65.3852 20.436 65.262C20.2508 64.7564 19.7057 63.2352 19.0908 61.2044C18.2501 58.4288 20.7516 55.9924 23.397 57.1812C27.5669 59.0552 30.2966 61.3328 30.7786 61.7496C30.8316 61.7956 30.88 61.8416 30.9296 61.8912L31.0084 61.97C32.663 63.6244 35.3785 63.5116 36.8901 61.7252L37.0423 61.5456C40.5484 57.5852 49.4576 48.2432 62.5164 45.0788C64.6796 44.5544 66.2316 42.5368 65.916 40.3336L65.8364 39.7783C65.5256 37.6091 63.52 36.0758 61.3892 36.5876C60.426 36.819 59.4884 37.0818 58.57 37.3684C56.344 38.0632 54.0052 36.4079 53.744 34.0906ZM91.9 58.7232C90.1884 58.7232 88.5468 59.4032 87.3364 60.6132C86.126 61.8236 85.446 63.4652 85.446 65.1768C85.446 66.8884 86.126 68.53 87.3364 69.7404C88.5468 70.9508 90.1884 71.6308 91.9 71.6308C93.6116 71.6308 95.2532 70.9508 96.4636 69.7404C97.674 68.53 98.354 66.8884 98.354 65.1768C98.354 63.4652 97.674 61.8236 96.4636 60.6132C95.2532 59.4032 93.6116 58.7232 91.9 58.7232Z" fill="url(#paint0_linear_680_58)" stroke="url(#paint1_linear_680_58)"/>
<defs>
<linearGradient id="paint0_linear_680_58" x1="8" y1="110.354" x2="132.48" y2="43.1004" gradientUnits="userSpaceOnUse">
<stop stop-color="#0357D1"/>
<stop offset="1" stop-color="#27CDFC"/>
</linearGradient>
<linearGradient id="paint1_linear_680_58" x1="8" y1="110.354" x2="132.48" y2="43.1004" gradientUnits="userSpaceOnUse">
<stop stop-color="#0357D1"/>
<stop offset="1" stop-color="#27CDFC"/>
</linearGradient>
</defs>
</svg>
