<svg width="24" height="24" viewBox="0 0 24 24" fill="none" xmlns="http://www.w3.org/2000/svg">
<path d="M10.4 2C10.2895 2 10.2 2.08954 10.2 2.2V9.11769C10.2 9.29582 9.98467 9.38507 9.85865 9.25918L6.34135 5.74532C6.21533 5.61942 6 5.70867 6 5.88681V9.01696C6 9.07 6.02107 9.12088 6.05858 9.15838L9.25886 12.3587C9.33693 12.4367 9.33697 12.5633 9.25894 12.6414L6.05849 15.8457C6.02104 15.8832 6 15.9341 6 15.9871V19.1129C6 19.291 6.21543 19.3803 6.34142 19.2543L6.92285 18.6729L9.85867 15.7407C9.9847 15.6148 10.2 15.7041 10.2 15.8822V22.8C10.2 22.9105 10.2895 23 10.4 23H13.7567C13.8184 23 13.8767 22.9715 13.9145 22.9228L18.2542 17.3478C18.3104 17.2756 18.3105 17.1744 18.2543 17.1022L14.7703 12.6228C14.7141 12.5506 14.7141 12.4494 14.7703 12.3772L18.2543 7.89784C18.3105 7.82559 18.3104 7.72442 18.2542 7.6522L13.9145 2.07715C13.8767 2.02847 13.8184 2 13.7567 2H10.4ZM12.3 4.3C12.3 4.18954 12.3895 4.1 12.5 4.1H12.7476C12.8094 4.1 12.8677 4.12853 12.9056 4.17731L15.6049 7.65231C15.661 7.72449 15.661 7.82551 15.6049 7.89769L12.9056 11.3727C12.8677 11.4215 12.8094 11.45 12.7476 11.45H12.5C12.3895 11.45 12.3 11.3605 12.3 11.25V4.3ZM12.3 13.75C12.3 13.6395 12.3895 13.55 12.5 13.55H12.7476C12.8094 13.55 12.8677 13.5785 12.9056 13.6273L15.6049 17.1023C15.661 17.1745 15.661 17.2755 15.6049 17.3477L12.9056 20.8227C12.8677 20.8715 12.8094 20.9 12.7476 20.9H12.5C12.3895 20.9 12.3 20.8105 12.3 20.7V13.75Z" fill="url(#paint0_linear_680_50)"/>
<defs>
<linearGradient id="paint0_linear_680_50" x1="7.14882" y1="12.5" x2="16.2436" y2="12.5" gradientUnits="userSpaceOnUse">
<stop stop-color="#5570FF"/>
<stop offset="1" stop-color="#4DD3FF"/>
</linearGradient>
</defs>
</svg>
