<svg width="128" height="128" viewBox="0 0 128 128" fill="none" xmlns="http://www.w3.org/2000/svg">
<g clip-path="url(#clip0)">
<path d="M124.25 15.25H110.362C107.483 12.9502 99.5623 7.75 86.5 7.75C75.1112 7.75 67.6562 11.7105 64 14.258C60.3438 11.7105 52.8888 7.75 41.5 7.75C28.4377 7.75 20.5175 12.9502 17.6378 15.25H3.75C1.67725 15.25 0 16.9272 0 19V109C0 111.073 1.67725 112.75 3.75 112.75H53.3908C54.9398 117.115 59.111 120.25 64 120.25C68.889 120.25 73.06 117.115 74.6093 112.75H124.25C126.323 112.75 128 111.073 128 109V19C128 16.9272 126.323 15.25 124.25 15.25ZM67.75 20.7467C70.1377 18.9635 76.334 15.25 86.5 15.25C96.747 15.25 102.904 18.9907 105.25 20.7577V87.0123C101.049 84.8735 94.8075 82.75 86.5 82.75C78.2052 82.75 71.9505 84.8667 67.75 87.0017V20.7467ZM22.75 20.7577C25.096 18.9907 31.253 15.25 41.5 15.25C51.7655 15.25 57.9237 19.0045 60.25 20.756V87.0123C56.0495 84.8735 49.8075 82.75 41.5 82.75C33.2052 82.75 26.9505 84.8667 22.75 87.0017V20.7577ZM120.5 105.25H71.5C69.4272 105.25 67.75 106.927 67.75 109C67.75 111.069 66.069 112.75 64 112.75C61.931 112.75 60.25 111.069 60.25 109C60.25 106.927 58.5728 105.25 56.5 105.25H7.5V22.75H15.25V94C15.25 95.5052 16.1617 96.8565 17.5497 97.4425C18.9377 98.032 20.5562 97.7208 21.6292 96.6735C21.9005 96.4098 28.408 90.25 41.5 90.25C54.592 90.25 61.0995 96.4097 61.3705 96.6732C62.8645 98.145 65.3188 97.9047 66.5798 96.699C66.594 96.6857 66.6155 96.6867 66.6292 96.6732C66.9005 96.4097 73.408 90.25 86.5 90.25C99.576 90.25 106.081 96.3922 106.345 96.6482C107.356 97.662 108.952 98.074 110.432 97.4617C111.844 96.8775 112.75 95.4933 112.75 94V22.75H120.5V105.25Z" fill="url(#paint0_linear)"/>
<path d="M95.9998 113.25C103.513 113.25 109.625 107.138 109.625 99.625C109.625 92.1117 103.513 86 95.9998 86C88.4865 86 82.3748 92.1117 82.3748 99.625C82.3748 107.138 88.4865 113.25 95.9998 113.25ZM95.9998 90.75C100.893 90.75 104.875 94.7318 104.875 99.625C104.875 104.518 100.893 108.5 95.9998 108.5C91.1065 108.5 87.1248 104.518 87.1248 99.625C87.1248 94.7318 91.1065 90.75 95.9998 90.75Z" fill="url(#paint1_linear)" stroke="url(#paint2_linear)"/>
<path d="M95.9998 105.75C99.3775 105.75 102.125 103.003 102.125 99.625C102.125 96.2472 99.3775 93.5 95.9998 93.5C92.622 93.5 89.8748 96.2472 89.8748 99.625C89.8748 103.003 92.622 105.75 95.9998 105.75ZM95.9998 98.25C96.7575 98.25 97.3748 98.8673 97.3748 99.625C97.3748 100.383 96.7575 101 95.9998 101C95.242 101 94.6248 100.383 94.6248 99.625C94.6248 98.8673 95.242 98.25 95.9998 98.25Z" fill="url(#paint3_linear)" stroke="url(#paint4_linear)"/>
<path d="M96 121.25C102.524 121.25 109 118.515 114.628 114.697C120.263 110.873 125.13 105.908 128.455 101.31C129.182 100.304 129.182 98.9459 128.455 97.9406C125.018 93.1871 120.081 88.221 114.438 84.4357C108.803 80.6559 102.384 78 96 78C89.4758 78 82.9998 80.7347 77.3722 84.5531C71.7368 88.3769 66.8695 93.3423 63.5452 97.9405C62.8182 98.9458 62.8183 100.304 63.5453 101.309C66.9818 106.063 71.9193 111.029 77.562 114.814C83.1965 118.594 89.6157 121.25 96 121.25ZM96 83.75C101.022 83.75 106.111 85.8028 110.804 88.9277C115.248 91.8872 119.274 95.7668 122.462 99.6232C120.714 101.726 117.371 105.427 113.033 108.731C108.208 112.406 102.269 115.5 96 115.5C90.9782 115.5 85.8893 113.447 81.1962 110.322C76.7516 107.363 72.7254 103.483 69.5379 99.6268C71.2857 97.524 74.6293 93.8228 78.9674 90.5188C83.792 86.8444 89.7306 83.75 96 83.75Z" fill="url(#paint5_linear)" stroke="url(#paint6_linear)" stroke-width="2"/>
</g>
<defs>
<linearGradient id="paint0_linear" x1="64" y1="120.25" x2="64" y2="7.75" gradientUnits="userSpaceOnUse">
<stop stop-color="#FD5900"/>
<stop offset="1" stop-color="#FFDE00"/>
</linearGradient>
<linearGradient id="paint1_linear" x1="95.9998" y1="112.75" x2="95.9998" y2="86.5" gradientUnits="userSpaceOnUse">
<stop stop-color="#A93AFF"/>
<stop offset="1" stop-color="#FF81FF"/>
</linearGradient>
<linearGradient id="paint2_linear" x1="95.9998" y1="112.75" x2="95.9998" y2="86.5" gradientUnits="userSpaceOnUse">
<stop stop-color="#A93AFF"/>
<stop offset="1" stop-color="#FF81FF"/>
</linearGradient>
<linearGradient id="paint3_linear" x1="95.9998" y1="105.25" x2="95.9998" y2="94" gradientUnits="userSpaceOnUse">
<stop stop-color="#A93AFF"/>
<stop offset="1" stop-color="#FF81FF"/>
</linearGradient>
<linearGradient id="paint4_linear" x1="95.9998" y1="105.25" x2="95.9998" y2="94" gradientUnits="userSpaceOnUse">
<stop stop-color="#A93AFF"/>
<stop offset="1" stop-color="#FF81FF"/>
</linearGradient>
<linearGradient id="paint5_linear" x1="96" y1="120.25" x2="96" y2="79" gradientUnits="userSpaceOnUse">
<stop stop-color="#A93AFF"/>
<stop offset="1" stop-color="#FF81FF"/>
</linearGradient>
<linearGradient id="paint6_linear" x1="96" y1="120.25" x2="96" y2="79" gradientUnits="userSpaceOnUse">
<stop stop-color="#A93AFF"/>
<stop offset="1" stop-color="#FF81FF"/>
</linearGradient>
<clipPath id="clip0">
<rect width="128" height="128" fill="white"/>
</clipPath>
</defs>
</svg>
