<svg width="64" height="64" viewBox="0 0 64 64" fill="none" xmlns="http://www.w3.org/2000/svg">
<path d="M26.4114 5.66921C29.3695 3.51462 33.5516 3.44532 36.5921 5.46446C38.6618 6.7906 39.9989 8.97984 41.0612 11.1817C41.513 12.1645 41.9923 13.1347 42.5173 14.0765C45.8051 20.5371 48.9676 27.0639 52.005 33.6505C52.3561 34.5073 52.7468 35.3452 53.165 36.1673C54.438 38.9897 55.8667 41.7554 56.813 44.7195C58.2966 49.5138 56.3765 55.1491 52.2981 57.9085C50.0757 59.2315 47.5542 60.1481 44.9534 59.9717C43.0241 59.9371 41.1986 59.2283 39.4036 58.5605C39.2723 58.4692 39.0037 58.2833 38.8724 58.192C38.613 57.7951 38.2344 57.4706 37.7491 57.458C37.1843 57.4139 36.7936 56.9572 36.3692 56.6296C35.8839 56.2012 35.3863 55.7917 34.8704 55.4042C34.7941 55.3349 34.6414 55.1995 34.5651 55.1302C34.095 54.6419 33.6035 54.1726 33.0846 53.7379C32.5626 53.2969 32.1199 52.7677 31.6987 52.2259C30.8256 52.8811 30.1113 53.7221 29.3908 54.5443C29.0856 54.8624 28.765 55.1617 28.4628 55.483C28.359 55.5145 28.1545 55.5775 28.0507 55.609C27.66 55.6783 27.315 55.9712 27.2082 56.3713L27.1471 56.5319L26.8235 56.6044C26.2313 56.6705 25.6727 57.0202 25.4498 57.6092L25.3735 57.7541L25.1263 57.8707C23.1817 58.8062 21.1883 59.7575 19.0148 59.9213C16.3498 60.2647 13.7001 59.4488 11.3648 58.1699C8.07404 56.0626 5.94022 52.1346 6.00128 48.1278C5.9677 45.8598 6.72781 43.6926 7.63446 41.6609C12.1921 31.5022 16.997 21.4632 22.037 11.5471C23.1451 9.35468 24.3631 7.0741 26.4114 5.66921ZM28.3132 8.61129C26.5732 9.94688 25.7154 12.0826 24.7172 13.9946C20.0466 23.1484 15.6233 32.4377 11.3862 41.8121C10.4857 43.8123 9.46911 45.8724 9.49659 48.1341C9.42027 51.303 11.3435 54.3647 14.1153 55.694C16.185 56.7493 18.6485 56.7839 20.8189 56.0374C24.2379 54.8404 26.9945 52.2385 29.3573 49.5075C26.9609 46.4646 24.7325 43.1981 23.3862 39.5031C22.3697 36.7658 21.8691 33.6788 22.7482 30.8312C23.6274 27.8545 26.1611 25.5676 29.0581 24.8274C32.764 23.7879 37.1324 25.1109 39.367 28.4247C41.2016 31.0486 41.3298 34.5451 40.5056 37.5753C39.3761 41.7806 37.0164 45.5038 34.4125 48.8901C34.2782 49.161 33.7562 49.5106 34.1622 49.8004C36.0243 51.8952 38.1032 53.845 40.5422 55.2026C42.7921 56.4406 45.5089 56.9824 47.9877 56.176C51.2632 55.2278 53.7298 51.955 53.8153 48.4459C53.9038 46.2693 53.0094 44.247 52.1485 42.3192C47.6214 32.2991 42.8806 22.383 37.8803 12.6086C37.2454 11.4085 36.6135 10.1768 35.658 9.20978C33.7928 7.20955 30.4623 6.967 28.3132 8.61129ZM26.967 30.1792C25.6025 31.9054 25.575 34.3277 26.0848 36.391C27.0372 40.278 29.2962 43.6359 31.6376 46.767C33.9454 43.7493 36.0915 40.467 37.1141 36.7312C37.6972 34.586 37.7552 32.0471 36.357 30.2107C34.0981 27.3127 29.2443 27.2907 26.967 30.1792Z" fill="url(#paint0_linear)" stroke="url(#paint1_linear)" stroke-width="2"/>
<defs>
<linearGradient id="paint0_linear" x1="5.87926" y1="62.6082" x2="45.887" y2="11.5279" gradientUnits="userSpaceOnUse">
<stop stop-color="#E80058"/>
<stop offset="0.9997" stop-color="#FF001D"/>
<stop offset="0.9998" stop-color="#FF867E"/>
</linearGradient>
<linearGradient id="paint1_linear" x1="-0.226076" y1="80.8781" x2="53.1081" y2="13.1933" gradientUnits="userSpaceOnUse">
<stop stop-color="#E80058"/>
<stop offset="0.9997" stop-color="#FF001D"/>
<stop offset="0.9998" stop-color="#FF867E"/>
</linearGradient>
</defs>
</svg>
