<svg width="16" height="16" viewBox="0 0 16 16" fill="none" xmlns="http://www.w3.org/2000/svg">
<path fill-rule="evenodd" clip-rule="evenodd" d="M1.7 15H14.3C14.6866 15 15 14.6866 15 14.3V1.7C15 1.3134 14.6866 1 14.3 1H1.7C1.3134 1 1 1.3134 1 1.7V14.3C1 14.6866 1.3134 15 1.7 15ZM1.93333 2.86668V1.93335H2.86667V2.86668H1.93333ZM4.73333 2.86668V1.93335H5.66667V2.86668H4.73333ZM7.53333 2.86668V1.93335H8.46667V2.86668H7.53333ZM10.3333 2.86668V1.93335H11.2667V2.86668H10.3333ZM13.1333 2.86668V1.93335H14.0667V2.86668H13.1333ZM2.86667 12.2V3.80002H7.53333V12.2H2.86667ZM8.46667 12.2V3.80002H13.1333V12.2H8.46667ZM1.93333 14.0667V13.1333H2.86667V14.0667H1.93333ZM4.73333 14.0667V13.1333H5.66667V14.0667H4.73333ZM7.53333 14.0667V13.1333H8.46667V14.0667H7.53333ZM10.3333 14.0667V13.1333H11.2667V14.0667H10.3333ZM13.1333 14.0667V13.1333H14.0667V14.0667H13.1333Z" fill="url(#paint0_linear)"/>
<defs>
<linearGradient id="paint0_linear" x1="8" y1="15" x2="8" y2="1" gradientUnits="userSpaceOnUse">
<stop stop-color="#FDA700"/>
<stop offset="1" stop-color="#FFDE00"/>
</linearGradient>
</defs>
</svg>
