<svg width="24" height="24" viewBox="0 0 24 24" fill="none" xmlns="http://www.w3.org/2000/svg">
<path fill-rule="evenodd" clip-rule="evenodd" d="M12.895 1.00008C12.8919 1.0001 12.8899 1.00011 12.9051 1.00011C12.9252 1.00011 12.9218 1.00009 12.917 1.00008C12.9112 1.00005 12.9035 1.00003 12.9345 1C12.9489 0.999994 12.9739 1.00007 13.0029 1.00122C13.0496 1.00307 13.1729 1.0091 13.3161 1.05494C13.476 1.10611 13.6974 1.21926 13.8634 1.45694C13.8929 1.49908 13.918 1.54144 13.9393 1.58348C15.1246 3.11332 16.1606 4.75289 17.0333 6.4797C20.8849 7.59573 24 10.2239 24 13.6367C24 15.8634 22.6406 17.7695 20.6911 19.1077C20.7784 19.8108 20.8537 20.5155 20.9169 21.2214L20.9215 21.2721L20.9208 21.323C20.9171 21.6239 20.7959 21.9114 20.5831 22.1241C20.3704 22.3369 20.0829 22.4581 19.782 22.4618L19.7695 22.462L19.7375 22.462C19.7211 22.4621 19.6983 22.462 19.6725 22.4615C19.6257 22.4604 19.5448 22.4571 19.4528 22.4423C19.3788 22.4303 19.1969 22.3963 19.0095 22.2774C18.8581 22.1813 18.6935 22.0188 18.5982 21.7929C18.2011 21.094 17.8293 20.4453 17.4492 19.8073L16.6222 18.4516C16.0676 17.5608 15.4849 16.6879 14.8748 15.8343C14.7989 15.8743 14.7096 15.9211 14.6091 15.972C13.1602 16.8903 11.9248 17.9976 10.7352 19.2621L9.49252 20.6288C8.74416 21.5256 8.01878 22.4413 7.31707 23.3751L7.27452 23.4318L7.22442 23.4818C7.21989 23.4863 7.18225 23.5246 7.15532 23.5498C7.12652 23.5768 7.03058 23.6668 6.8871 23.7381C6.71675 23.8227 6.5629 23.8421 6.47279 23.8475C6.43524 23.8498 6.40356 23.8497 6.39213 23.8497C6.36597 23.8497 6.37207 23.8497 6.37642 23.8496C6.37985 23.8496 6.3821 23.8496 6.36625 23.8496H6.291C5.89641 23.8496 5.61295 23.6477 5.46509 23.5004C5.31807 23.3538 5.11338 23.0699 5.11338 22.6729V22.6453L5.11491 22.6177C5.16796 21.6588 5.24492 20.7015 5.34572 19.7466C2.82737 18.3935 1 16.2372 1 13.6367C1 11.7365 1.98878 10.0581 3.48647 8.78243C4.87425 7.60037 6.7428 6.71895 8.8583 6.24559C9.7015 4.52073 10.752 2.9044 11.9868 1.43261L12.0165 1.39719L12.0494 1.36467C12.0494 1.36467 12.0508 1.36325 12.0523 1.3618C12.0623 1.35173 12.0945 1.31954 12.1169 1.29867L12.1179 1.29773C12.146 1.27139 12.2411 1.18256 12.3836 1.11171C12.5543 1.02686 12.7085 1.00753 12.7985 1.00218C12.836 0.999955 12.8676 0.99999 12.879 1C12.9041 1.00003 12.8988 1.00006 12.895 1.00008ZM16.6193 8.44217C16.4463 8.39028 16.2696 8.3412 16.0892 8.29507L15.6404 8.18033L15.4377 7.76379C14.7126 6.27357 13.8583 4.85043 12.8851 3.51057C11.9315 4.76185 11.1166 6.11418 10.4554 7.54388L10.2395 8.01067L10.209 8.01645L9.69743 9.35034C9.34676 10.2646 9.03685 11.1941 8.76859 12.1358C8.28438 13.9399 7.9052 15.7705 7.63295 17.6185L7.49416 18.5605L7.41012 19.2812C7.37698 19.5623 7.34597 19.8437 7.31712 20.1253C7.53307 19.8589 7.75096 19.594 7.97077 19.3308L7.9843 19.3146L9.26676 17.9042L9.27249 17.8981C10.55 16.5395 11.9281 15.2967 13.5832 14.2544L13.6246 14.2283L13.6684 14.2064C13.7742 14.1534 13.867 14.1046 13.958 14.0568L13.9713 14.0498C14.0615 14.0024 14.1618 13.9496 14.2578 13.904C14.4437 13.8157 14.7264 13.6964 15.0751 13.6964C15.41 13.6964 15.6793 13.8438 15.8475 13.9636C16.0378 14.0991 16.2138 14.2808 16.3783 14.4995L16.3845 14.5078L16.3905 14.5161C17.0668 15.4549 17.7111 16.4163 18.3225 17.3985L18.3272 17.4061L18.4377 17.5873L18.3541 17.0965C18.0235 15.1559 17.5864 13.2731 16.9572 11.4688L16.956 11.4655C16.743 10.8479 16.5666 10.3599 16.2721 9.65686L15.9159 8.80654L16.6193 8.44217ZM19.0409 11.3898C19.4176 12.548 19.7218 13.7252 19.9739 14.913C20.2543 14.4823 20.3856 14.0507 20.3856 13.6429C20.3856 12.9149 19.9457 12.1082 19.0409 11.3898ZM4.61437 13.6363C4.61467 13.0193 4.94585 12.322 5.7219 11.6349ZM5.7219 11.6349C6.10023 11.2999 6.56724 10.9845 7.10963 10.7035ZM7.10963 10.7035C7.01681 10.9996 6.9279 11.297 6.84295 11.5955L6.84091 11.6026L6.83897 11.6098C6.46702 12.9948 6.15452 14.3948 5.90224 15.8059C5.0215 15.087 4.61455 14.3086 4.61437 13.6363" fill="url(#paint0_linear_637_118)"/>
<defs>
<linearGradient id="paint0_linear_637_118" x1="12.5" y1="22.8497" x2="12.5" y2="2.00001" gradientUnits="userSpaceOnUse">
<stop stop-color="#FDA700"/>
<stop offset="1" stop-color="#FFDE00"/>
</linearGradient>
</defs>
</svg>
