<svg width="128" height="128" viewBox="0 0 128 128" fill="none" xmlns="http://www.w3.org/2000/svg">
<path fill-rule="evenodd" clip-rule="evenodd" d="M119.016 22.3042C117.797 18.0121 113.217 15.0238 109.105 16.2953C107.769 16.7399 106.551 17.4907 105.343 18.2354C105.121 18.3724 104.899 18.5092 104.677 18.6438C100.178 21.4565 95.6694 24.2504 91.1617 27.0441L91.1614 27.0442L91.1612 27.0443L91.1604 27.0449L91.1599 27.0452C85.428 30.5975 79.6965 34.1496 73.984 37.7397C70.3197 40.0153 70.1683 46.3077 73.7493 48.7454C79.6991 52.5546 85.7032 56.266 91.708 59.9778L91.709 59.9784L91.7093 59.9786L91.7096 59.9788C96.2106 62.7611 100.712 65.5435 105.191 68.3676L105.346 68.4658C107.095 69.572 108.949 70.7448 111.059 70.619C114.738 70.7809 118.062 67.8574 119.084 64.1565C123.013 50.6241 122.953 35.8204 119.016 22.3042ZM101.676 54.9872C95.4186 51.1696 89.1591 47.3506 83.0994 43.2223C86.4508 41.1569 89.7931 39.0755 93.1355 36.9939C98.9671 33.3622 104.799 29.7302 110.68 26.1834C113.784 37.3267 113.64 49.3851 110.718 60.5528C107.72 58.675 104.699 56.8316 101.677 54.9879L101.676 54.9872ZM64.086 44.87C65.6651 38.6014 58.799 32.6456 53.383 35.5359C48.2948 37.6129 47.1368 45.5456 51.2309 49.3117C55.2897 53.741 63.2322 51.0009 64.086 44.87ZM43.8449 56.5763C47.6378 54.7542 52.3848 58.3742 52.1729 62.7877C52.2053 72.4251 52.1991 82.0665 52.1929 91.7062C52.1905 95.5617 52.188 99.4169 52.188 103.271C52.4302 108.438 47.6908 113.313 42.8303 112.245C30.2626 109.523 18.6111 102.454 9.6471 92.6788C7.29256 90.4436 5.49825 87.1557 6.12664 83.6815C6.48247 80.7419 8.36762 78.2394 10.8055 76.9275C15.2995 74.1927 19.7648 71.4004 24.2297 68.6082L24.2298 68.6082C30.7392 64.5375 37.2481 60.4672 43.8449 56.5763ZM15.5902 85.034C22.6539 93.8692 32.7535 99.6275 43.2013 102.486C43.2013 98.6472 43.2022 94.809 43.203 90.9712V90.9703C43.2047 83.296 43.2064 75.623 43.2013 67.9465L40.9186 69.3751C32.5041 74.642 24.0885 79.9095 15.5902 85.034ZM70.6 57.3943C68.7906 56.1391 66.4436 55.645 64.4297 56.6412C62.2191 57.6939 60.6443 60.164 60.7124 62.7797C60.6594 76.5307 60.6519 90.2817 60.7275 104.024C60.8184 109.021 65.6033 113.265 70.2139 112.236C83.4781 109.232 95.7732 101.554 104.874 90.8243C108.235 86.8642 107.152 79.8996 102.731 77.3729C97.0664 73.8284 91.3872 70.3067 85.7076 66.7848C80.6685 63.6601 75.6293 60.5353 70.6 57.3943ZM69.6901 82.8957C69.6892 78.02 69.6882 73.1444 69.6915 68.2704C75.4073 71.4452 80.962 74.95 86.5172 78.4551C90.1301 80.7348 93.7434 83.0147 97.4014 85.204C89.9437 93.6101 80.2378 99.7482 69.6839 102.437C69.6926 95.925 69.6913 89.4101 69.6901 82.8957Z" fill="url(#paint0_linear_678_135)"/>
<path d="M109.105 16.2953L108.662 14.8623L108.647 14.867L108.631 14.8721L109.105 16.2953ZM119.016 22.3042L117.573 22.7139L117.576 22.7237L119.016 22.3042ZM105.343 18.2354L106.13 19.5123L106.13 19.5123L105.343 18.2354ZM104.677 18.6438L103.9 17.3609L103.891 17.3663L103.882 17.3719L104.677 18.6438ZM91.1617 27.0441L90.3715 25.7691L90.3627 25.7745L90.3541 25.78L91.1617 27.0441ZM91.1614 27.0442L90.3539 25.7802L90.3497 25.7828L91.1614 27.0442ZM91.1612 27.0443L91.95 28.3202L91.9616 28.3131L91.973 28.3057L91.1612 27.0443ZM91.1604 27.0449L90.3716 25.769L90.3637 25.7739L91.1604 27.0449ZM91.1599 27.0452L91.9501 28.3202L91.9566 28.3161L91.1599 27.0452ZM73.984 37.7397L74.7754 39.014L74.7822 39.0097L73.984 37.7397ZM73.7493 48.7454L72.9052 49.9853L72.9227 49.9972L72.9405 50.0086L73.7493 48.7454ZM91.708 59.9778L90.9193 61.2537L90.9235 61.2563L91.708 59.9778ZM91.709 59.9784L90.9245 61.2569L90.9305 61.2606L91.709 59.9784ZM91.7096 59.9788L92.4983 58.7029L92.4881 58.6967L91.7096 59.9788ZM105.191 68.3676L105.993 67.0999L105.991 67.0988L105.191 68.3676ZM105.346 68.4658L106.148 67.1982L106.148 67.198L105.346 68.4658ZM111.059 70.619L111.125 69.1204L111.047 69.117L110.97 69.1216L111.059 70.619ZM119.084 64.1565L117.643 63.7382L117.64 63.7477L117.638 63.7572L119.084 64.1565ZM83.0994 43.2223L82.3125 41.9453L80.3427 43.1592L82.2549 44.4619L83.0994 43.2223ZM101.676 54.9872L100.894 56.2677L100.897 56.2693L101.676 54.9872ZM93.1355 36.9939L92.3425 35.7207L93.1355 36.9939ZM110.68 26.1834L112.125 25.7809L111.596 23.8796L109.905 24.8989L110.68 26.1834ZM110.718 60.5528L109.922 61.824L111.653 62.9079L112.169 60.9324L110.718 60.5528ZM101.677 54.9879L102.458 53.7075L102.455 53.7058L101.677 54.9879ZM53.383 35.5359L53.9499 36.9247L54.0213 36.8956L54.0893 36.8593L53.383 35.5359ZM64.086 44.87L62.6314 44.5036L62.6116 44.5825L62.6003 44.6631L64.086 44.87ZM51.2309 49.3117L52.3368 48.2983L52.2935 48.2511L52.2464 48.2077L51.2309 49.3117ZM52.1729 62.7877L50.6746 62.7158L50.6727 62.7543L50.6729 62.7928L52.1729 62.7877ZM43.8449 56.5763L43.1954 55.2242L43.1378 55.2519L43.0829 55.2843L43.8449 56.5763ZM52.1929 91.7062L53.6929 91.7072L53.6929 91.7072L52.1929 91.7062ZM52.188 103.271H50.688V103.307L50.6896 103.342L52.188 103.271ZM42.8303 112.245L43.1523 110.78L43.1478 110.779L42.8303 112.245ZM9.6471 92.6788L10.7526 91.665L10.7175 91.6267L10.6798 91.5909L9.6471 92.6788ZM6.12664 83.6815L7.60269 83.9484L7.6105 83.9053L7.61577 83.8617L6.12664 83.6815ZM10.8055 76.9275L11.5163 78.2483L11.5513 78.2295L11.5852 78.2089L10.8055 76.9275ZM24.2297 68.6082L25.0251 69.88L25.0436 69.8684L25.0618 69.8563L24.2297 68.6082ZM24.2298 68.6082L23.4345 67.3364L23.4159 67.348L23.3977 67.3601L24.2298 68.6082ZM43.2013 102.486L42.8054 103.933L44.7013 104.452V102.486H43.2013ZM15.5902 85.034L14.8157 83.7494L13.3496 84.6335L14.4186 85.9706L15.5902 85.034ZM43.203 90.9712L44.703 90.9716V90.9712H43.203ZM43.203 90.9703L41.703 90.9699V90.9703H43.203ZM43.2013 67.9465L44.7013 67.9455L44.6995 65.2392L42.4055 66.6749L43.2013 67.9465ZM40.9186 69.3751L40.1228 68.1036L40.1228 68.1036L40.9186 69.3751ZM64.4297 56.6412L65.0746 57.9955L65.0847 57.9907L65.0948 57.9857L64.4297 56.6412ZM70.6 57.3943L69.745 58.6268L69.7748 58.6474L69.8054 58.6665L70.6 57.3943ZM60.7124 62.7797L62.2124 62.7854L62.2125 62.763L62.2119 62.7406L60.7124 62.7797ZM60.7275 104.024L59.2276 104.032L59.2276 104.042L59.2278 104.051L60.7275 104.024ZM70.2139 112.236L70.5405 113.7L70.5453 113.699L70.2139 112.236ZM104.874 90.8243L103.73 89.8537L103.73 89.854L104.874 90.8243ZM102.731 77.3729L101.935 78.6444L101.961 78.6604L101.987 78.6752L102.731 77.3729ZM85.7076 66.7848L84.9171 68.0596L84.9171 68.0596L85.7076 66.7848ZM69.6915 68.2704L70.4198 66.9591L68.1931 65.7223L68.1915 68.2694L69.6915 68.2704ZM69.6901 82.8957L71.1901 82.8954L69.6901 82.8957ZM86.5172 78.4551L87.3176 77.1866L87.3176 77.1866L86.5172 78.4551ZM97.4014 85.204L98.5235 86.1995L99.7242 84.8461L98.1717 83.9169L97.4014 85.204ZM69.6839 102.437L68.1839 102.435L68.1814 104.368L70.0543 103.891L69.6839 102.437ZM109.548 17.7284C112.7 16.7537 116.537 19.0663 117.573 22.7139L120.459 21.8945C119.057 16.9579 113.733 13.294 108.662 14.8623L109.548 17.7284ZM106.13 19.5123C107.366 18.7509 108.436 18.0988 109.579 17.7186L108.631 14.8721C107.102 15.381 105.737 16.2306 104.556 16.9585L106.13 19.5123ZM105.454 19.9267C105.682 19.7886 105.909 19.6488 106.13 19.5123L104.556 16.9585C104.333 17.096 104.116 17.2298 103.9 17.3609L105.454 19.9267ZM91.9518 28.3191C96.4592 25.5256 100.97 22.7302 105.472 19.9157L103.882 17.3719C99.3853 20.1828 94.8797 22.9751 90.3715 25.7691L91.9518 28.3191ZM91.969 28.3083L91.9692 28.3081L90.3541 25.78L90.3539 25.7802L91.969 28.3083ZM91.973 28.3057L91.9732 28.3056L90.3497 25.7828L90.3495 25.783L91.973 28.3057ZM91.9492 28.3207L91.95 28.3202L90.3724 25.7685L90.3716 25.769L91.9492 28.3207ZM91.9566 28.3161L91.9571 28.3158L90.3637 25.7739L90.3632 25.7743L91.9566 28.3161ZM74.7822 39.0097C80.49 35.4225 86.2175 31.8729 91.9501 28.3202L90.3697 25.7702C84.6385 29.3221 78.903 32.8766 73.1859 36.4697L74.7822 39.0097ZM74.5934 47.5054C73.3223 46.6401 72.6094 45.0024 72.6493 43.2152C72.6892 41.4272 73.4754 39.8213 74.7754 39.014L73.1927 36.4654C70.8284 37.9337 69.7067 40.6118 69.6501 43.1483C69.5934 45.6857 70.5953 48.4129 72.9052 49.9853L74.5934 47.5054ZM92.4967 58.7019C86.4902 54.9891 80.4962 51.2839 74.5581 47.4821L72.9405 50.0086C78.9019 53.8254 84.9162 57.543 90.9193 61.2537L92.4967 58.7019ZM92.4935 58.7L92.4925 58.6993L90.9235 61.2563L90.9245 61.2569L92.4935 58.7ZM92.4878 58.6965L92.4875 58.6963L90.9305 61.2606L90.9308 61.2608L92.4878 58.6965ZM92.4881 58.6967L92.4878 58.6965L90.9308 61.2608L90.9312 61.261L92.4881 58.6967ZM105.991 67.0988C101.505 64.2705 96.9984 61.4846 92.4983 58.7029L90.9209 61.2547C95.4229 64.0376 99.9186 66.8165 104.391 69.6365L105.991 67.0988ZM106.148 67.198L105.993 67.0999L104.389 69.6354L104.545 69.7335L106.148 67.198ZM110.97 69.1216C109.426 69.2136 107.989 68.363 106.148 67.1982L104.544 69.7334C106.2 70.7811 108.471 72.2759 111.148 72.1163L110.97 69.1216ZM117.638 63.7572C116.758 66.9437 113.952 69.2449 111.125 69.1204L110.993 72.1175C115.524 72.3169 119.366 68.7712 120.529 64.5557L117.638 63.7572ZM117.576 22.7237C121.434 35.97 121.492 50.4831 117.643 63.7382L120.524 64.5748C124.534 50.7651 124.472 35.6708 120.456 21.8847L117.576 22.7237ZM82.2549 44.4619C88.3509 48.615 94.6427 52.4533 100.894 56.2677L102.457 53.7067C96.1944 49.8858 89.9674 46.0862 83.944 41.9826L82.2549 44.4619ZM92.3425 35.7207C88.9996 37.8025 85.6603 39.8821 82.3125 41.9453L83.8864 44.4992C87.2413 42.4318 90.5865 40.3484 93.9284 38.2672L92.3425 35.7207ZM109.905 24.8989C104.014 28.4522 98.1727 32.0899 92.3425 35.7207L93.9284 38.2672C99.7616 34.6345 105.585 31.0083 111.455 27.4679L109.905 24.8989ZM112.169 60.9324C115.153 49.5289 115.306 37.1997 112.125 25.7809L109.235 26.5859C112.262 37.4537 112.127 49.2414 109.267 60.1731L112.169 60.9324ZM100.896 56.2684C103.919 58.1129 106.933 59.9517 109.922 61.824L111.514 59.2815C108.508 57.3983 105.479 55.5504 102.458 53.7075L100.896 56.2684ZM100.897 56.2693L100.899 56.2701L102.455 53.7058L102.454 53.705L100.897 56.2693ZM54.0893 36.8593C56.1137 35.7789 58.5194 36.2868 60.3729 37.8999C62.224 39.5108 63.2585 42.0143 62.6314 44.5036L65.5405 45.2364C66.4926 41.4571 64.8836 37.8484 62.3424 35.6368C59.8037 33.4275 56.0683 32.4026 52.6768 34.2126L54.0893 36.8593ZM52.2464 48.2077C50.6451 46.7347 49.9903 44.352 50.3464 42.0165C50.7026 39.6804 52.0158 37.7142 53.9499 36.9247L52.8161 34.1472C49.6619 35.4347 47.852 38.4733 47.3807 41.5643C46.9093 44.6559 47.7226 48.1225 50.2153 50.4156L52.2464 48.2077ZM62.6003 44.6631C62.2624 47.0894 60.5182 48.8915 58.3707 49.6331C56.2243 50.3743 53.8882 49.9914 52.3368 48.2983L50.125 50.3251C52.6323 53.0613 56.2969 53.523 59.3499 52.4688C62.4018 51.4149 65.0557 48.7815 65.5717 45.0769L62.6003 44.6631ZM53.6711 62.8597C53.8043 60.0864 52.384 57.6274 50.4122 56.1448C48.4402 54.6619 45.7101 54.0162 43.1954 55.2242L44.4944 57.9284C45.7727 57.3143 47.3126 57.5675 48.6092 58.5425C49.9062 59.5178 50.7534 61.0756 50.6746 62.7158L53.6711 62.8597ZM53.6929 91.7072C53.6991 82.068 53.7053 72.4235 53.6728 62.7827L50.6729 62.7928C50.7053 72.4266 50.6991 82.0651 50.6929 91.7053L53.6929 91.7072ZM53.688 103.271C53.688 99.4175 53.6905 95.5627 53.6929 91.7072L50.6929 91.7053C50.6905 95.5607 50.688 99.4163 50.688 103.271H53.688ZM42.5083 113.71C45.5434 114.377 48.4384 113.166 50.4739 111.166C52.5069 109.169 53.8296 106.256 53.6863 103.201L50.6896 103.342C50.7887 105.454 49.8628 107.561 48.3715 109.026C46.8828 110.489 44.9778 111.181 43.1523 110.78L42.5083 113.71ZM8.54157 93.6926C17.6932 103.672 29.6118 110.917 42.5129 113.711L43.1478 110.779C30.9134 108.13 19.5289 101.235 10.7526 91.665L8.54157 93.6926ZM4.65059 83.4145C3.8982 87.5743 6.05768 91.3396 8.61438 93.7667L10.6798 91.5909C8.52744 89.5477 7.0983 86.7371 7.60269 83.9484L4.65059 83.4145ZM10.0946 75.6066C7.26378 77.13 5.05674 80.0378 4.63751 83.5012L7.61577 83.8617C7.9082 81.4459 9.47145 79.3488 11.5163 78.2483L10.0946 75.6066ZM23.4344 67.3364C18.9681 70.1294 14.5107 72.9169 10.0257 75.6461L11.5852 78.2089C16.0884 75.4686 20.5614 72.6714 25.0251 69.88L23.4344 67.3364ZM23.3977 67.3601L23.3977 67.3601L25.0618 69.8563L25.0618 69.8563L23.3977 67.3601ZM43.0829 55.2843C36.4665 59.1867 29.9411 63.2674 23.4345 67.3364L25.0251 69.88C31.5373 65.8076 38.0297 61.7476 44.6069 57.8683L43.0829 55.2843ZM43.5972 101.039C33.3917 98.247 23.5898 92.6378 16.7618 84.0973L14.4186 85.9706C21.718 95.1007 32.1152 101.008 42.8054 103.933L43.5972 101.039ZM41.703 90.9709C41.7022 94.8087 41.7013 98.647 41.7013 102.486H44.7013C44.7013 98.6473 44.7022 94.8094 44.703 90.9716L41.703 90.9709ZM41.703 90.9703V90.9712H44.703V90.9703H41.703ZM41.7013 67.9474C41.7064 75.6233 41.7047 83.2955 41.703 90.9699L44.703 90.9706C44.7047 83.2964 44.7064 75.6228 44.7013 67.9455L41.7013 67.9474ZM41.7144 70.6466L43.9971 69.218L42.4055 66.6749L40.1228 68.1036L41.7144 70.6466ZM16.3648 86.3185C24.8756 81.1865 33.3017 75.9123 41.7145 70.6466L40.1228 68.1036C31.7065 73.3716 23.3015 78.6324 14.8157 83.7494L16.3648 86.3185ZM65.0948 57.9857C66.4791 57.3009 68.2389 57.5819 69.745 58.6268L71.455 56.1618C69.3423 54.6962 66.4081 53.9891 63.7646 55.2967L65.0948 57.9857ZM62.2119 62.7406C62.1593 60.7199 63.3969 58.7944 65.0746 57.9955L63.7848 55.2869C61.0412 56.5934 59.1293 59.6081 59.2129 62.8187L62.2119 62.7406ZM62.2275 104.016C62.1519 90.2794 62.1594 76.5333 62.2124 62.7854L59.2124 62.7739C59.1594 76.5281 59.1519 90.284 59.2276 104.032L62.2275 104.016ZM69.8874 110.772C68.1397 111.162 66.2638 110.57 64.7621 109.26C63.2613 107.95 62.2642 106.026 62.2273 103.997L59.2278 104.051C59.2818 107.019 60.7225 109.716 62.7895 111.52C64.8557 113.323 67.6775 114.339 70.5405 113.7L69.8874 110.772ZM103.73 89.854C94.8263 100.352 82.8102 107.845 69.8825 110.773L70.5453 113.699C84.146 110.619 96.7202 102.757 106.018 91.7945L103.73 89.854ZM101.987 78.6752C103.721 79.6663 104.891 81.5912 105.239 83.7951C105.587 85.9975 105.078 88.2653 103.73 89.8537L106.018 91.7949C108.03 89.4232 108.661 86.2286 108.202 83.327C107.744 80.4269 106.162 77.6061 103.475 76.0705L101.987 78.6752ZM84.9171 68.0596C90.5971 71.5818 96.2738 75.1019 101.935 78.6444L103.526 76.1013C97.8591 72.555 92.1772 69.0316 86.4981 65.51L84.9171 68.0596ZM69.8054 58.6665C74.8371 61.809 79.8784 64.9351 84.9171 68.0596L86.4981 65.51C81.4587 62.3851 76.4215 59.2615 71.3946 56.122L69.8054 58.6665ZM68.1915 68.2694C68.1882 73.1442 68.1892 78.0203 68.1901 82.896L71.1901 82.8954C71.1892 78.0196 71.1882 73.1447 71.1915 68.2714L68.1915 68.2694ZM87.3176 77.1866C81.7684 73.6852 76.1785 70.1576 70.4198 66.9591L68.9631 69.5817C74.6362 72.7327 80.1555 76.2148 85.7167 79.7237L87.3176 77.1866ZM98.1717 83.9169C94.5314 81.7382 90.9331 79.4678 87.3176 77.1866L85.7167 79.7237C89.3272 82.0018 92.9554 84.2912 96.6311 86.4911L98.1717 83.9169ZM70.0543 103.891C80.9207 101.122 90.8821 94.8126 98.5235 86.1995L96.2793 84.2085C89.0052 92.4076 79.5549 98.3743 69.3136 100.983L70.0543 103.891ZM68.1901 82.896C68.1913 89.4106 68.1926 95.9243 68.1839 102.435L71.1839 102.439C71.1926 95.9256 71.1913 89.4097 71.1901 82.8954L68.1901 82.896Z" fill="url(#paint1_linear_678_135)"/>
<defs>
<linearGradient id="paint0_linear_678_135" x1="83.7582" y1="112.391" x2="83.7582" y2="56.1105" gradientUnits="userSpaceOnUse">
<stop stop-color="#FD5900"/>
<stop offset="1" stop-color="#FFDE00"/>
</linearGradient>
<linearGradient id="paint1_linear_678_135" x1="83.7582" y1="112.391" x2="83.7582" y2="56.1105" gradientUnits="userSpaceOnUse">
<stop stop-color="#FD5900"/>
<stop offset="1" stop-color="#FFDE00"/>
</linearGradient>
</defs>
</svg>
