<svg width="192" height="192" viewBox="0 0 192 192" fill="none" xmlns="http://www.w3.org/2000/svg">
<g clip-path="url(#clip0_640_160)">
<path d="M4.06794 42.7477C0.918844 38.1675 5.225 31.708 10.5928 32.0251C31.3123 32.0017 52.0439 32.0017 72.7634 32.0251C75.9603 31.9077 78.9781 33.9394 80.3141 36.7581C86.1232 49.0075 92.0874 61.1864 97.7057 73.518C103.18 61.4565 109.36 49.7239 115.061 37.7799C116.278 34.5854 119.367 32.0134 122.934 32.0368C142.377 31.9781 161.821 32.0017 181.264 32.0251C186.083 31.8372 190.818 37.3453 188.302 41.8669C184.02 50.1585 179.701 58.4265 175.442 66.7415C174.333 68.7146 173.427 71.0752 171.221 72.1204C167.784 74.4341 162.667 72.2731 161.522 68.4797C160.449 65.7668 161.94 62.9834 163.132 60.5874C165.793 55.6549 168.25 50.6048 170.934 45.6838C156.06 45.813 141.196 45.7778 126.334 45.7073C119.463 60.2117 112.318 74.5985 105.125 88.9501C112.664 105.005 120.799 120.836 127.753 137.138C134.278 125.006 139.741 112.345 146.04 100.107C147.316 98.4279 149.033 96.6779 151.359 96.8072C156.274 95.9498 160.497 101.94 158.146 106.202C150.668 122.139 142.783 137.901 135.197 153.791C133.92 156.939 130.902 159.839 127.324 159.874C124.914 158.853 122.398 157.42 121.419 154.883C113.427 138.135 105.351 121.423 97.5506 104.593C89.2723 121.318 81.1253 138.112 72.8469 154.837C71.8092 157.361 69.34 158.959 66.8469 159.874C63.3161 159.922 60.4415 156.974 59.0816 153.967C40.7597 116.878 22.3899 79.8248 4.06794 42.7477ZM20.7319 45.5899C35.857 76.1135 50.9822 106.637 66.0358 137.184C74.4692 121.318 81.7694 104.875 90.1073 88.9501C82.9265 74.622 76.4374 59.9533 69.2327 45.6251C53.0697 45.813 36.8948 45.8953 20.7319 45.5899Z" fill="url(#paint0_linear_640_160)" stroke="url(#paint1_linear_640_160)" stroke-width="6"/>
</g>
<defs>
<linearGradient id="paint0_linear_640_160" x1="180.573" y1="34.1978" x2="73.357" y2="198.146" gradientUnits="userSpaceOnUse">
<stop stop-color="#D800BD"/>
<stop offset="0.408098" stop-color="#F92D7A"/>
<stop offset="0.590073" stop-color="#FF4A52"/>
<stop offset="1" stop-color="#FFB243"/>
</linearGradient>
<linearGradient id="paint1_linear_640_160" x1="180.573" y1="34.1978" x2="73.357" y2="198.146" gradientUnits="userSpaceOnUse">
<stop stop-color="#D800BD"/>
<stop offset="0.408098" stop-color="#F92D7A"/>
<stop offset="0.590073" stop-color="#FF4A52"/>
<stop offset="1" stop-color="#FFB243"/>
</linearGradient>
<clipPath id="clip0_640_160">
<rect width="192" height="192" fill="white"/>
</clipPath>
</defs>
</svg>
