<svg width="128" height="128" viewBox="0 0 128 128" fill="none" xmlns="http://www.w3.org/2000/svg">
<path d="M24.165 5.00053L24.1592 5.00056C22.6663 5.00807 21.15 5.10543 19.6404 5.40706C11.0139 7.01781 4.07753 14.9708 4.03832 23.7584L4.03831 23.7597C4.00135 35.7368 3.97175 78.7184 4.04566 90.6935C4.01736 92.8204 5.41723 94.4543 7.08434 95.2373C8.73854 96.0143 10.8761 96.0598 12.5149 94.7792C14.5147 93.4645 14.876 91.0604 14.8543 89.2785C14.867 84.339 14.8633 48.4051 14.8597 43.4724C14.8549 36.897 14.85 30.3238 14.8838 23.7422C14.9379 19.3963 19.08 15.6195 23.4955 15.6983L23.505 15.6985H23.5145C36.99 15.6831 50.4589 15.6879 63.9276 15.6928C76.0499 15.6972 88.1721 15.7016 100.299 15.6912C100.65 15.6912 100.996 15.688 101.337 15.6848C103.586 15.6642 105.601 15.6456 107.396 16.5573L107.416 16.5676L107.437 16.5769C110.679 18.0428 112.69 21.6301 112.45 25.168L112.448 25.2015V25.2351C112.442 35.4016 112.444 45.5669 112.446 55.7319C112.45 71.7039 112.453 87.6749 112.426 103.647V103.66V103.672C112.531 108.161 108.53 112.291 103.977 112.277L103.965 112.278C97.5037 112.333 91.0731 112.324 84.6368 112.316C79.063 112.309 41.4849 112.302 35.8788 112.336C33.9212 112.226 32.253 113.308 31.2998 114.758C30.3498 116.204 30.02 118.153 30.902 119.89C31.4438 121.239 32.5 122.086 33.6618 122.563C34.8122 123.036 36.1027 123.166 37.2517 123.085C42.2675 123.054 79.3008 123.064 84.3389 123.074C91.1903 123.087 98.0507 123.101 104.889 123.012H104.904L104.92 123.011C114.657 122.586 123.15 114.025 123.197 104.299V104.295C123.218 89.8072 123.213 75.3133 123.209 60.8206C123.206 48.9763 123.202 37.1328 123.212 25.294C123.963 14.6939 114.656 4.8955 103.954 5.0152C89.3249 4.99506 74.6946 4.99929 60.0663 5.00352C48.0973 5.00698 36.1296 5.01044 24.165 5.00053Z" fill="url(#paint0_linear_575_28)"/>
<path d="M19.5991 116.157C19.975 113.413 18.6109 110.92 16.6138 109.387C14.616 107.852 11.8456 107.169 9.26603 108.202C6.42414 109.09 4.7208 111.593 4.29457 114.206C3.86874 116.816 4.68767 119.723 7.10214 121.457C9.37821 123.434 12.4496 123.509 14.9129 122.454C17.3746 121.399 19.4389 119.126 19.5991 116.157Z" fill="url(#paint1_linear_575_28)"/>
<path d="M78.8605 63.3124L78.8533 63.3121L78.8462 63.3119C74.2001 63.2067 69.5267 63.2224 64.8643 63.238C61.7162 63.2485 58.5729 63.2591 55.4462 63.2324C58.5 58.5 60.6652 55.6181 63.8415 51C69 43.5 69 43.5 74.07 35.2793C75.1469 33.5332 73.9599 30.7734 72.0551 29.6488C70.7261 28.7765 69.1028 28.7465 67.7463 29.2857C66.3924 29.824 64.8643 32.5 64.8643 32.5C64.8643 32.5 55.4462 46.5 48.7724 57.5C47.5 60 45.2524 63.4157 44.4131 66.0601C43.7111 67.594 43.9537 69.3182 44.7649 70.6363C45.5831 71.9648 47.0245 72.9494 48.7724 72.9028C53.3493 72.9546 57.9308 72.9455 62.5072 72.9364C64.5903 72.9325 66.6723 72.9287 68.7526 72.93C65.6461 77.0456 62.5605 81.182 59.4762 85.3165C56.9051 88.7631 54.335 92.2083 51.7546 95.64C50.5095 96.8986 50.1504 98.6954 50.5106 100.273C50.8746 101.868 51.9949 103.323 53.7879 103.805C55.969 104.464 58.2678 103.385 59.414 101.564C62.5631 97.33 65.7269 93.1016 68.8913 88.8725C73.358 82.9037 77.8267 76.9323 82.2572 70.9395C83.4108 69.519 83.4334 67.6445 82.7728 66.1462C82.1095 64.6431 80.7033 63.3954 78.8605 63.3124Z" fill="url(#paint2_linear_575_28)" stroke="url(#paint3_linear_575_28)" stroke-width="2"/>
<defs>
<linearGradient id="paint0_linear_575_28" x1="63.6273" y1="123.107" x2="63.6273" y2="5" gradientUnits="userSpaceOnUse">
<stop stop-color="#FD5900"/>
<stop offset="1" stop-color="#FFDE00"/>
</linearGradient>
<linearGradient id="paint1_linear_575_28" x1="11.9242" y1="123.129" x2="11.9242" y2="107.709" gradientUnits="userSpaceOnUse">
<stop stop-color="#FD5900"/>
<stop offset="1" stop-color="#FFDE00"/>
</linearGradient>
<linearGradient id="paint2_linear_575_28" x1="63.6052" y1="104" x2="63.6052" y2="28.9275" gradientUnits="userSpaceOnUse">
<stop stop-color="#FD5900"/>
<stop offset="1" stop-color="#FFDE00"/>
</linearGradient>
<linearGradient id="paint3_linear_575_28" x1="63.6052" y1="104" x2="63.6052" y2="28.9275" gradientUnits="userSpaceOnUse">
<stop stop-color="#FD5900"/>
<stop offset="1" stop-color="#FFDE00"/>
</linearGradient>
</defs>
</svg>
