<svg width="64" height="64" viewBox="0 0 64 64" fill="none" xmlns="http://www.w3.org/2000/svg">
<g clip-path="url(#clip0)">
<path d="M27.4297 53.2568L28.0521 50.25H24.9816H12V37.4463C14.0735 37.9706 15.9431 38.25 17 38.25C20.448 38.25 23.25 35.448 23.25 32C23.25 28.552 20.448 25.75 17 25.75C15.9431 25.75 14.0735 26.0294 12 26.5537V13.75H24.9816H28.0521L27.4297 10.7432C27.1381 9.3343 27 8.18818 27 7.5C27 4.74434 29.2443 2.5 32 2.5C34.7557 2.5 37 4.74434 37 7.5C37 8.18818 36.8619 9.3343 36.5703 10.7432L35.9479 13.75H39.0184H52V26.5537C49.9265 26.0294 48.0569 25.75 47 25.75C43.552 25.75 40.75 28.552 40.75 32C40.75 35.448 43.552 38.25 47 38.25C48.0569 38.25 49.9265 37.9706 52 37.4463V50.25H39.0184H35.9481L36.5702 53.2566C36.8618 54.6658 37 55.8119 37 56.5C37 59.2557 34.7557 61.5 32 61.5C29.2443 61.5 27 59.2557 27 56.5C27 55.8118 27.1381 54.6657 27.4297 53.2568Z" stroke="url(#paint0_linear)" stroke-width="5"/>
</g>
<defs>
<linearGradient id="paint0_linear" x1="32" y1="64" x2="32" y2="0" gradientUnits="userSpaceOnUse">
<stop stop-color="#FD2E00"/>
<stop offset="1" stop-color="#FF9900"/>
</linearGradient>
<clipPath id="clip0">
<rect width="64" height="64" fill="white"/>
</clipPath>
</defs>
</svg>
