<svg width="128" height="128" viewBox="0 0 128 128" fill="none" xmlns="http://www.w3.org/2000/svg">
<path d="M79.0687 19.4834C86.1169 22.8977 91.9081 28.6052 95.5694 35.7455C103.483 37.2486 110.57 41.7803 115.436 48.4493C120.303 55.1181 122.597 63.4417 121.867 71.7829C121.139 80.1241 117.438 87.8793 111.494 93.5232C109.294 95.6122 108.098 96.8275 107.035 97.8118C106.057 98.7175 104.518 98.2891 104.036 97.0462L103.146 94.7511C102.787 93.8261 103.165 92.7846 103.995 92.2398C107.274 90.0855 110.07 87.2091 112.18 83.8051C114.599 79.902 116.041 75.4295 116.374 70.7966C116.707 66.1636 115.919 61.5177 114.082 57.2835C112.246 53.0493 109.42 49.3617 105.862 46.5577C102.304 43.7536 98.1293 41.9226 93.7167 41.2317C89.3044 40.5409 84.7962 41.0123 80.6041 42.6029C76.4119 44.1936 72.6693 46.8527 69.7183 50.3374C69.4825 50.6351 69.1918 50.8805 68.863 51.0587C68.5344 51.237 68.1747 51.3447 67.8052 51.3752C67.4358 51.4056 67.0643 51.3585 66.7127 51.2363C66.3612 51.1143 66.0368 50.9198 65.7589 50.6644C65.4811 50.4091 65.2554 50.0981 65.0954 49.7501C64.9353 49.4021 64.8441 49.0241 64.8274 48.6386C64.8105 48.2531 64.8684 47.868 64.9974 47.5063C65.1265 47.1446 65.3242 46.8137 65.5786 46.5331C68.5047 43.0895 72.0789 40.3084 76.0798 38.3624C80.0806 36.4164 84.4227 35.3469 88.8369 35.2201C84.3872 28.628 77.6897 24.0521 70.1108 22.4258C62.5318 20.7995 54.6424 22.2453 48.0523 26.4683C41.4621 30.6914 36.6675 37.3735 34.6469 45.1513C32.6263 52.9291 33.5319 61.2167 37.1787 68.3231C37.3504 68.656 37.4575 69.0208 37.4938 69.3968C37.5301 69.7727 37.4949 70.1525 37.3902 70.5143C37.2856 70.8761 37.1135 71.2129 36.8838 71.5054C36.6542 71.798 36.3714 72.0406 36.0518 72.2194C35.7321 72.3982 35.3817 72.5097 35.0206 72.5474C34.6595 72.5852 34.2948 72.5486 33.9474 72.4396C33.5999 72.3306 33.2764 72.1514 32.9955 71.9123C32.7145 71.6732 32.4815 71.3788 32.3098 71.0458C30.0169 66.5473 28.6331 61.6074 28.2437 56.5307C23.3784 57.1912 18.9377 59.7576 15.8256 63.7072C12.7135 67.6569 11.1641 72.6932 11.4926 77.7905C11.8212 82.8879 14.0031 87.6633 17.5941 91.1446C20.6928 94.1489 24.6397 95.9942 28.8162 96.4295C29.9183 96.5444 30.8219 97.4302 30.8219 98.5382V100.278C30.8219 101.384 29.9227 102.289 28.8209 102.194C23.1911 101.712 17.8639 99.2438 13.7393 95.1641C9.12891 90.6045 6.37174 84.3784 6.03493 77.7668C5.69812 71.155 7.80728 64.6603 11.9286 59.6182C16.05 54.5762 21.8701 51.3701 28.1921 50.6595C28.7474 42.5859 31.8081 34.919 36.9129 28.8146C42.0177 22.7101 48.8899 18.499 56.4936 16.8158C64.0973 15.1328 72.0205 16.069 79.0687 19.4834Z" stroke="url(#paint0_linear_640_20)" stroke-width="6"/>
<path d="M52.4375 77C42.807 77 35 84.807 35 94.4375C35 104.068 42.807 111.875 52.4375 111.875C59.3443 111.864 65.5453 107.787 68.3293 101.561C68.6749 100.788 69.419 100.249 70.2657 100.248L79.4976 100.237C80.6031 100.236 81.5 101.132 81.5 102.237V105.985C81.5 107.089 82.3954 107.985 83.5 107.985H91.125C92.2296 107.985 93.125 107.089 93.125 105.985V102.157C93.125 101.088 93.9937 100.223 95.0625 100.227V100.227C96.1313 100.231 97 99.3662 97 98.2973V90.6109C97 89.5059 96.1039 88.6103 94.9989 88.6109L70.2683 88.6242C69.4203 88.6247 68.6745 88.0852 68.3282 87.3112C65.5437 81.0865 59.3434 77.0098 52.4375 77ZM52.4375 88.625C55.6477 88.625 58.25 91.2273 58.25 94.4375C58.25 97.6477 55.6477 100.25 52.4375 100.25C49.2273 100.25 46.625 97.6477 46.625 94.4375C46.625 91.2273 49.2273 88.625 52.4375 88.625Z" fill="url(#paint1_linear_640_20)"/>
<defs>
<linearGradient id="paint0_linear_640_20" x1="64.0002" y1="102.281" x2="64.0002" y2="16" gradientUnits="userSpaceOnUse">
<stop stop-color="#5570FF"/>
<stop offset="1" stop-color="#4DD3FF"/>
</linearGradient>
<linearGradient id="paint1_linear_640_20" x1="46.2375" y1="107.758" x2="75.1485" y2="62.9127" gradientUnits="userSpaceOnUse">
<stop stop-color="#FE0844"/>
<stop offset="1" stop-color="#FEB302"/>
</linearGradient>
</defs>
</svg>
