<svg width="128" height="128" viewBox="0 0 128 128" fill="none" xmlns="http://www.w3.org/2000/svg">
<path fill-rule="evenodd" clip-rule="evenodd" d="M76.2709 15.7948C59.6692 12.7718 43.502 18.5749 32.5939 29.8796C31.4434 31.0719 29.5442 31.1058 28.3519 29.9554C27.1596 28.8049 27.1257 26.9057 28.2762 25.7134C40.5188 13.0257 58.6866 6.49416 77.3458 9.8919C106.989 15.2897 126.643 43.6956 121.245 73.3384C115.847 102.981 87.4415 122.636 57.7987 117.238C50.4429 115.898 43.6953 113.139 37.7929 109.292C36.4049 108.387 36.0131 106.529 36.9178 105.14C37.8226 103.752 39.6812 103.361 41.0693 104.265C46.3154 107.685 52.3165 110.141 58.8736 111.335C85.2563 116.139 110.538 98.6462 115.342 72.2635C120.146 45.8808 102.654 20.599 76.2709 15.7948Z" fill="url(#paint0_linear_579_158)" stroke="url(#paint1_linear_579_158)" stroke-width="2" stroke-linecap="round"/>
<path fill-rule="evenodd" clip-rule="evenodd" d="M99.7707 53.6181C102.159 76.4176 85.6134 96.8368 62.8139 99.2256C53.7999 100.17 45.158 98.1548 37.8553 93.9635C35.5895 95.3066 33.0405 96.1621 30.3705 96.4418C25.5044 96.9517 20.6351 95.5076 16.8337 92.4272C13.0323 89.3469 10.6103 84.8826 10.1005 80.0166C9.59065 75.1505 11.0347 70.2811 14.1151 66.4798C15.0664 65.3058 16.1497 64.2633 17.3362 63.3681C17.2883 63.0033 17.245 62.6369 17.2064 62.2688C16.4855 55.3884 34.2473 46.5715 57.0468 44.1827C79.8463 41.7939 98.5692 42.1509 99.7707 53.6181ZM19.2743 79.0554C19.105 77.4399 19.5101 75.8235 20.4067 74.4848C22.1137 78.4177 24.4048 82.0147 27.1606 85.179C27.066 85.1929 26.971 85.2049 26.8755 85.2149C25.0508 85.406 23.2248 84.8645 21.7993 83.7094C20.3737 82.5543 19.4655 80.8802 19.2743 79.0554ZM78.8517 45.8133C79.5549 45.1958 80.34 44.8337 81.1621 44.7476C82.3098 44.6274 83.4919 45.0488 84.5792 45.9658C85.6665 46.8828 86.6172 48.26 87.3275 49.9471L88.3407 54.1328L88.5898 58.023C88.4193 60.2394 87.8245 62.2231 86.8919 63.6854C85.9594 65.1477 84.7377 66.0122 83.4049 66.1531C82.5827 66.2392 81.7396 66.0477 80.9237 65.5894C80.1078 65.1311 79.335 64.4151 78.6496 63.4822C77.9641 62.5492 77.3793 61.4177 76.9286 60.1521C76.478 58.8866 76.1702 57.5118 76.023 56.1063C75.8757 54.7008 75.8918 53.2921 76.0704 51.9606C76.2489 50.6291 76.5865 49.4009 77.0637 48.3462C77.5409 47.2914 78.1485 46.4307 78.8517 45.8133ZM56.2887 47.3537C54.6283 47.5276 53.1541 48.8221 52.1903 50.9522C51.2265 53.0824 50.8521 55.8738 51.1495 58.7124C51.447 61.5509 52.3918 64.2041 53.7762 66.0883C55.1605 67.9724 56.8711 68.9332 58.5315 68.7592C59.8643 68.6183 61.086 67.7538 62.0185 66.2915C62.9511 64.8292 63.5459 62.8455 63.7164 60.6291L63.3105 56.7553L62.4541 52.5532C61.7438 50.8661 60.7931 49.4888 59.7058 48.5719C58.6185 47.6549 57.4364 47.2334 56.2887 47.3537ZM84.5759 75.305C84.9298 78.6827 82.4785 81.7077 79.1008 82.0616C75.7231 82.4155 72.6981 79.9642 72.3442 76.5865C71.9903 73.2088 74.4416 70.1838 77.8193 69.8299C81.197 69.476 84.222 71.9273 84.5759 75.305Z" fill="url(#paint2_linear_579_158)"/>
<circle cx="24" cy="40.837" r="6" fill="url(#paint3_linear_579_158)"/>
<defs>
<linearGradient id="paint0_linear_579_158" x1="74.7862" y1="118.13" x2="74.7862" y2="9" gradientUnits="userSpaceOnUse">
<stop stop-color="#FD2E00"/>
<stop offset="1" stop-color="#FF9900"/>
</linearGradient>
<linearGradient id="paint1_linear_579_158" x1="74.7862" y1="118.13" x2="74.7862" y2="9" gradientUnits="userSpaceOnUse">
<stop stop-color="#FD2E00"/>
<stop offset="1" stop-color="#FF9900"/>
</linearGradient>
<linearGradient id="paint2_linear_579_158" x1="55" y1="99.4549" x2="55" y2="43" gradientUnits="userSpaceOnUse">
<stop stop-color="#FDA700"/>
<stop offset="1" stop-color="#FFDE00"/>
</linearGradient>
<linearGradient id="paint3_linear_579_158" x1="24" y1="46.837" x2="24" y2="34.837" gradientUnits="userSpaceOnUse">
<stop stop-color="#FD2E00"/>
<stop offset="1" stop-color="#FF9900"/>
</linearGradient>
</defs>
</svg>
