<svg width="64" height="64" viewBox="0 0 64 64" fill="none" xmlns="http://www.w3.org/2000/svg">
<path fill-rule="evenodd" clip-rule="evenodd" d="M44.6047 6.98988C39.4302 4.36124 33.423 3.43992 27.6901 4.32902C18.4161 5.67879 10.117 12.07 6.38221 20.6389C3.47703 27.1429 3.22201 34.7646 5.65591 41.4522C7.60561 46.8545 11.2791 51.6188 16.0048 54.8918C20.666 58.1551 26.3505 59.9107 32.0382 59.8978C38.0519 59.901 44.0463 57.9102 48.8334 54.2797C53.7076 50.6266 57.3456 45.3598 58.9693 39.4936C60.6963 33.3472 60.2475 26.6113 57.6651 20.7677C55.0924 14.8436 50.3828 9.88268 44.6047 6.98988ZM10.1945 21.5183C13.6774 14.1897 21.0727 8.83251 29.1814 8.0014C34.3042 7.36679 39.6304 8.47172 44.0915 11.0649C48.5203 13.6259 52.1163 17.6204 54.1531 22.3108C56.3901 27.3812 56.7549 33.2313 55.2377 38.553C53.8399 43.5526 50.7282 48.0271 46.5932 51.1582C42.2838 54.4504 36.8286 56.1997 31.4023 56.0418C25.6985 55.9452 20.0689 53.7128 15.8499 49.8826C12.0441 46.4936 9.36163 41.8742 8.3319 36.8875C7.30541 31.7429 7.87999 26.2505 10.1945 21.5183ZM24.8525 23.7539C25.3463 21.2895 22.5444 19.099 20.2526 20.1008C17.9284 20.9029 17.3313 24.3144 19.2712 25.8414C21.1208 27.6486 24.649 26.3213 24.8525 23.7539ZM41.7786 19.9367C44.1059 19.3536 46.4527 21.7148 45.8168 24.0342C45.3681 26.5533 41.8237 27.597 40.1001 25.6836C38.1568 23.9504 39.2188 20.3715 41.7786 19.9367ZM37.569 33.6371C36.2746 30.6735 32.3461 29.9454 29.5184 30.8765C27.6268 31.4498 25.8482 33.199 26.1193 35.309C26.4809 36.9487 27.8527 38.0955 29.0923 39.1199C28.1398 39.7176 27.0081 39.6093 25.9423 39.5073L25.8998 39.5033C24.4989 39.8319 24.0277 42.5507 25.6222 42.963C27.8431 43.5686 30.2318 42.8406 32.0136 41.4683C33.8794 43.0467 36.5587 43.6298 38.8892 42.8309C39.6704 42.0062 39.3379 40.7435 38.744 39.9188C38.3643 39.4768 37.8139 39.5338 37.2874 39.5884C37.1425 39.6035 36.9993 39.6183 36.8621 39.6225C36.1325 39.6998 35.4095 39.4614 34.8123 39.0555C36.4941 37.8604 38.4954 35.9017 37.569 33.6371ZM31.0408 36.2279C30.4252 35.7811 29.7977 35.3256 29.8154 34.5359C31.1711 33.8787 32.8336 33.8852 34.1248 34.7002C33.6018 35.6408 32.6883 36.2722 31.8135 36.865C31.6001 36.6338 31.3217 36.4318 31.0408 36.2279Z" fill="url(#paint0_linear_644_72)"/>
<path d="M27.6901 4.32902L27.9062 5.81345L27.92 5.8113L27.6901 4.32902ZM44.6047 6.98988L43.9254 8.32724L43.9332 8.33117L44.6047 6.98988ZM6.38221 20.6389L7.75184 21.2507L7.75727 21.2382L6.38221 20.6389ZM5.65591 41.4522L7.06684 40.943L7.06546 40.9392L5.65591 41.4522ZM16.0048 54.8918L16.865 53.663L16.8588 53.6587L16.0048 54.8918ZM32.0382 59.8978L32.039 58.3978L32.0348 58.3978L32.0382 59.8978ZM48.8334 54.2797L47.9338 53.0794L47.927 53.0845L48.8334 54.2797ZM58.9693 39.4936L57.5252 39.0879L57.5236 39.0935L58.9693 39.4936ZM57.6651 20.7677L56.2892 21.3652L56.2931 21.374L57.6651 20.7677ZM29.1814 8.0014L29.3344 9.49358L29.3501 9.49196L29.3658 9.49002L29.1814 8.0014ZM10.1945 21.5183L11.5419 22.1773L11.5456 22.1698L11.5492 22.1622L10.1945 21.5183ZM44.0915 11.0649L43.3377 12.3617L43.3406 12.3635L44.0915 11.0649ZM54.1531 22.3108L52.7772 22.9083L52.7807 22.9162L54.1531 22.3108ZM55.2377 38.553L53.7951 38.1417L53.793 38.1491L55.2377 38.553ZM46.5932 51.1582L45.6877 49.9624L45.6826 49.9662L46.5932 51.1582ZM31.4023 56.0418L31.4459 54.5424L31.4368 54.5422L31.4277 54.542L31.4023 56.0418ZM15.8499 49.8826L16.8581 48.772L16.8528 48.7671L16.8474 48.7623L15.8499 49.8826ZM8.3319 36.8875L6.86087 37.181L6.8629 37.1909L8.3319 36.8875ZM20.2526 20.1008L20.7419 21.5187L20.7985 21.4992L20.8534 21.4752L20.2526 20.1008ZM24.8525 23.7539L23.3817 23.4591L23.3642 23.5465L23.3571 23.6354L24.8525 23.7539ZM19.2712 25.8414L20.3195 24.7685L20.2621 24.7124L20.199 24.6627L19.2712 25.8414ZM45.8168 24.0342L44.3702 23.6376L44.3521 23.7037L44.3401 23.7712L45.8168 24.0342ZM41.7786 19.9367L42.0298 21.4155L42.0869 21.4058L42.1431 21.3917L41.7786 19.9367ZM40.1001 25.6836L41.2146 24.6796L41.1597 24.6187L41.0985 24.5641L40.1001 25.6836ZM29.5184 30.8765L29.9535 32.312L29.9706 32.3068L29.9875 32.3012L29.5184 30.8765ZM37.569 33.6371L38.9573 33.0692L38.9506 33.0529L38.9436 33.0367L37.569 33.6371ZM26.1193 35.309L24.6315 35.5002L24.6401 35.5666L24.6545 35.632L26.1193 35.309ZM29.0923 39.1199L29.8896 40.3905L31.6487 39.2866L30.0478 37.9636L29.0923 39.1199ZM25.9423 39.5073L26.0852 38.0141L26.085 38.0141L25.9423 39.5073ZM25.8998 39.5033L26.0425 38.0101L25.7972 37.9866L25.5572 38.0429L25.8998 39.5033ZM25.6222 42.963L26.0169 41.5159L26.0073 41.5133L25.9978 41.5108L25.6222 42.963ZM32.0136 41.4683L32.9824 40.3232L32.0578 39.541L31.0984 40.2799L32.0136 41.4683ZM38.8892 42.8309L39.3756 44.2499L39.7246 44.1302L39.9782 43.8625L38.8892 42.8309ZM38.744 39.9188L39.9611 39.0422L39.9237 38.9902L39.8819 38.9415L38.744 39.9188ZM37.2874 39.5884L37.4421 41.0804L37.4421 41.0804L37.2874 39.5884ZM36.8621 39.6225L36.8163 38.1232L36.76 38.1249L36.7041 38.1308L36.8621 39.6225ZM34.8123 39.0555L33.9434 37.8328L32.1841 39.083L33.9691 40.2961L34.8123 39.0555ZM29.8154 34.5359L29.1611 33.1862L28.3364 33.586L28.3158 34.5022L29.8154 34.5359ZM31.0408 36.2279L30.1597 37.4418L30.1597 37.4418L31.0408 36.2279ZM34.1248 34.7002L35.4358 35.4291L36.1252 34.189L34.9254 33.4317L34.1248 34.7002ZM31.8135 36.865L30.7114 37.8825L31.5867 38.8305L32.6549 38.1068L31.8135 36.865ZM27.92 5.8113C33.3485 4.96941 39.037 5.84391 43.9254 8.32722L45.2841 5.65255C39.8235 2.87857 33.4975 1.91043 27.4603 2.84674L27.92 5.8113ZM7.75727 21.2382C11.2866 13.1408 19.1501 7.08777 27.9062 5.81338L27.4741 2.84466C17.6822 4.2698 8.94739 10.9993 5.00714 20.0396L7.75727 21.2382ZM7.06546 40.9392C4.76397 34.6154 5.00631 27.3971 7.75179 21.2507L5.01263 20.0271C1.94774 26.8886 1.68005 34.9138 4.24636 41.9652L7.06546 40.9392ZM16.8588 53.6587C12.3883 50.5625 8.91021 46.0506 7.06684 40.943L4.24499 41.9614C6.30101 47.6583 10.1698 52.6752 15.1507 56.125L16.8588 53.6587ZM32.0348 58.3978C26.6509 58.41 21.269 56.7462 16.865 53.663L15.1445 56.1206C20.063 59.564 26.05 61.4114 32.0416 61.3978L32.0348 58.3978ZM47.927 53.0845C43.4041 56.5146 37.7292 58.4008 32.039 58.3978L32.0374 61.3978C38.3746 61.4012 44.6885 59.3057 49.7398 55.4749L47.927 53.0845ZM57.5236 39.0935C55.9902 44.6337 52.5477 49.6215 47.9338 53.0794L49.733 55.48C54.8676 51.6318 58.701 46.0858 60.4149 39.8938L57.5236 39.0935ZM56.2931 21.374C58.7326 26.8943 59.1593 33.2721 57.5252 39.0879L60.4133 39.8994C62.2332 33.4223 61.7624 26.3283 59.0371 20.1614L56.2931 21.374ZM43.9332 8.33117C49.3979 11.067 53.8574 15.7654 56.2892 21.3652L59.041 20.1702C56.3274 13.9218 51.3678 8.69832 45.2763 5.64859L43.9332 8.33117ZM29.0285 6.50921C20.3841 7.39524 12.5413 13.0857 8.83967 20.8744L11.5492 22.1622C14.8136 15.2936 21.7614 10.2698 29.3344 9.49358L29.0285 6.50921ZM44.8453 9.76811C40.1036 7.01176 34.4482 5.83748 28.997 6.51277L29.3658 9.49002C34.1602 8.89609 39.1572 9.93167 43.3377 12.3617L44.8453 9.76811ZM55.529 21.7133C53.3621 16.7234 49.5444 12.4854 44.8424 9.7664L43.3406 12.3635C47.4961 14.7664 50.8705 18.5174 52.7772 22.9083L55.529 21.7133ZM56.6802 38.9642C58.2914 33.3127 57.9067 27.1026 55.5255 21.7053L52.7807 22.9162C54.8735 27.6598 55.2183 33.1498 53.7951 38.1417L56.6802 38.9642ZM47.4987 52.354C51.8864 49.0316 55.1933 44.2827 56.6823 38.9568L53.793 38.1491C52.4865 42.8224 49.57 47.0225 45.6877 49.9624L47.4987 52.354ZM31.3586 57.5412C37.1272 57.709 42.9197 55.8523 47.5038 52.3502L45.6826 49.9662C41.648 53.0486 36.53 54.6904 31.4459 54.5424L31.3586 57.5412ZM14.8416 50.9932C19.3299 55.0679 25.3087 57.4388 31.3768 57.5416L31.4277 54.542C26.0882 54.4516 20.8078 52.3577 16.8581 48.772L14.8416 50.9932ZM6.8629 37.1909C7.95848 42.4964 10.8079 47.4014 14.8523 51.0028L16.8474 48.7623C13.2802 45.5859 10.7648 41.2519 9.80091 36.5842L6.8629 37.1909ZM8.84698 20.8593C6.37652 25.9104 5.7754 31.7407 6.8609 37.181L9.80291 36.594C8.83543 31.7452 9.38347 26.5905 11.5419 22.1773L8.84698 20.8593ZM20.8534 21.4752C21.3926 21.2395 22.0848 21.3447 22.6677 21.8048C23.2482 22.2632 23.4951 22.8934 23.3817 23.4591L26.3232 24.0486C26.7037 22.15 25.7965 20.4527 24.5266 19.4502C23.259 18.4494 21.4044 17.9603 19.6518 18.7264L20.8534 21.4752ZM20.199 24.6627C19.7458 24.306 19.5176 23.6698 19.641 22.9542C19.7647 22.2372 20.196 21.7071 20.7419 21.5187L19.7632 18.6829C17.985 19.2966 16.9556 20.8734 16.6847 22.4443C16.4135 24.0168 16.8567 25.8498 18.3435 27.02L20.199 24.6627ZM23.3571 23.6354C23.3118 24.2072 22.8817 24.7603 22.1527 25.0336C21.4246 25.3065 20.7345 25.174 20.3195 24.7685L18.2229 26.9143C19.6575 28.316 21.6564 28.4234 23.2057 27.8427C24.754 27.2623 26.1897 25.868 26.3478 23.8723L23.3571 23.6354ZM47.2634 24.4308C47.7493 22.6587 47.0753 20.9548 45.9757 19.8425C44.877 18.7311 43.1845 18.0381 41.414 18.4816L42.1431 21.3917C42.7 21.2522 43.3446 21.4482 43.8422 21.9516C44.3388 22.4539 44.5203 23.0903 44.3702 23.6376L47.2634 24.4308ZM38.9856 26.6875C40.3146 28.1629 42.2737 28.4214 43.8554 27.9614C45.4348 27.5022 46.9481 26.2371 47.2936 24.2973L44.3401 23.7712C44.2369 24.3504 43.7536 24.8668 43.0177 25.0808C42.2841 25.2941 41.6092 25.1177 41.2146 24.6796L38.9856 26.6875ZM41.5273 18.4579C39.5655 18.7911 38.2795 20.3081 37.8116 21.9004C37.3431 23.4943 37.6062 25.4692 39.1017 26.803L41.0985 24.5641C40.6507 24.1648 40.4731 23.4836 40.6898 22.7462C40.9071 22.007 41.4319 21.5171 42.0298 21.4155L41.5273 18.4579ZM29.9875 32.3012C31.1205 31.9282 32.4997 31.8871 33.6992 32.2365C34.8852 32.5819 35.7684 33.2623 36.1944 34.2375L38.9436 33.0367C38.0751 31.0483 36.3469 29.8829 34.5381 29.3561C32.7428 28.8333 30.744 28.8937 29.0493 29.4517L29.9875 32.3012ZM27.6071 35.1178C27.4673 34.0297 28.4332 32.7727 29.9535 32.312L29.0834 29.4409C26.8203 30.1268 24.2291 32.3684 24.6315 35.5002L27.6071 35.1178ZM30.0478 37.9636C28.7197 36.866 27.8154 36.0349 27.5841 34.986L24.6545 35.632C25.1463 37.8625 26.9858 39.325 28.1368 40.2762L30.0478 37.9636ZM25.7994 41.0005C26.7578 41.0922 28.4322 41.305 29.8896 40.3905L28.295 37.8493C27.8474 38.1302 27.2585 38.1264 26.0852 38.0141L25.7994 41.0005ZM25.7571 40.9965L25.7996 41.0005L26.085 38.0141L26.0425 38.0101L25.7571 40.9965ZM25.9978 41.5108C26.0062 41.513 26.041 41.5252 26.0806 41.5583C26.1181 41.5897 26.135 41.6188 26.1389 41.6267C26.1403 41.6294 26.1065 41.5495 26.1268 41.3822C26.1465 41.2201 26.2062 41.0755 26.2682 40.9873C26.3296 40.9 26.3358 40.9417 26.2424 40.9636L25.5572 38.0429C23.9886 38.4109 23.2806 39.9322 23.1486 41.0213C23.0117 42.1513 23.3975 43.9371 25.2467 44.4153L25.9978 41.5108ZM31.0984 40.2799C29.59 41.4416 27.6767 41.9685 26.0169 41.5159L25.2276 44.4102C28.0094 45.1688 30.8736 44.2396 32.9288 42.6568L31.0984 40.2799ZM38.4028 41.412C36.6037 42.0287 34.4717 41.583 32.9824 40.3232L31.0448 42.6135C33.2871 44.5105 36.5136 45.231 39.3756 44.2499L38.4028 41.412ZM37.5268 40.7955C37.7041 41.0416 37.8168 41.3252 37.842 41.5454C37.8641 41.7388 37.8163 41.7824 37.8002 41.7994L39.9782 43.8625C40.7434 43.0547 40.9198 42.0546 40.8225 41.2043C40.7283 40.3808 40.3778 39.6207 39.9611 39.0422L37.5268 40.7955ZM37.4421 41.0804C37.5812 41.066 37.6717 41.057 37.7535 41.0532C37.8319 41.0496 37.8641 41.0531 37.8684 41.0537C37.8689 41.0537 37.827 41.0481 37.7656 41.0177C37.699 40.9848 37.6433 40.9396 37.606 40.8961L39.8819 38.9415C38.91 37.8099 37.4803 38.0604 37.1327 38.0964L37.4421 41.0804ZM36.9078 41.1218C37.1095 41.1156 37.3083 41.0943 37.4421 41.0804L37.1327 38.0964C36.9766 38.1126 36.8892 38.121 36.8163 38.1232L36.9078 41.1218ZM33.9691 40.2961C34.7915 40.855 35.8633 41.2367 37.0201 41.1141L36.7041 38.1308C36.4018 38.1629 36.0276 38.0678 35.6554 37.8149L33.9691 40.2961ZM36.1806 34.2051C36.4048 34.7531 36.3243 35.2891 35.9082 35.9343C35.4654 36.6208 34.7244 37.2778 33.9434 37.8328L35.6812 40.2782C36.582 39.6381 37.6825 38.7182 38.4293 37.5604C39.2026 36.3614 39.6595 34.7858 38.9573 33.0692L36.1806 34.2051ZM28.3158 34.5022C28.2965 35.3585 28.6469 36.0175 29.055 36.4904C29.4214 36.9151 29.8843 37.2419 30.1597 37.4418L31.9219 35.0139C31.762 34.8979 31.6409 34.8095 31.5328 34.7217C31.427 34.6358 31.364 34.5743 31.3263 34.5306C31.2908 34.4894 31.292 34.4804 31.3005 34.5011C31.3116 34.5281 31.3153 34.5567 31.315 34.5697L28.3158 34.5022ZM34.9254 33.4317C33.1444 32.3075 30.9257 32.3307 29.1611 33.1862L30.4698 35.8857C31.4165 35.4267 32.5227 35.4628 33.3241 35.9686L34.9254 33.4317ZM32.6549 38.1068C33.4815 37.5467 34.7116 36.7316 35.4358 35.4291L32.8138 33.9713C32.492 34.5501 31.8951 34.9978 30.9721 35.6232L32.6549 38.1068ZM30.1597 37.4418C30.4694 37.6666 30.6178 37.7811 30.7114 37.8825L32.9156 35.8474C32.5824 35.4865 32.174 35.1969 31.9219 35.0139L30.1597 37.4418Z" fill="url(#paint1_linear_644_72)"/>
<defs>
<linearGradient id="paint0_linear_644_72" x1="25.75" y1="33.9453" x2="43.4746" y2="19.6897" gradientUnits="userSpaceOnUse">
<stop stop-color="#0072FF"/>
<stop offset="1" stop-color="#00E5A1"/>
</linearGradient>
<linearGradient id="paint1_linear_644_72" x1="25.75" y1="33.9453" x2="43.4746" y2="19.6897" gradientUnits="userSpaceOnUse">
<stop stop-color="#0072FF"/>
<stop offset="1" stop-color="#00E5A1"/>
</linearGradient>
</defs>
</svg>
