<svg width="64" height="64" viewBox="0 0 64 64" fill="none" xmlns="http://www.w3.org/2000/svg">
<path d="M6 6.89536C6 6.40087 6.4014 6 6.89655 6H27.0973C27.3633 6 27.6156 6.11803 27.786 6.32217L31.731 11.0501C31.9014 11.2541 32.1537 11.3722 32.4198 11.3722L57.1035 11.3725C57.5985 11.3725 58 13.5642 58 14.0587C57.9963 14.1658 57.6766 14.2571 57.5861 14.1992C57.4468 14.1103 57.2811 14.0586 57.1035 14.0586L32.3714 14.0583C32.1336 14.0583 31.9055 14.1526 31.7374 14.3206L26.8833 19.1683C26.7152 19.3363 26.4871 19.4306 26.2493 19.4306L6.89655 19.4305C6.4014 19.4305 6 19.8314 6 20.3259V6.89536Z" stroke="url(#paint0_linear)" stroke-width="5"/>
<path d="M6 21.2202V21.232C6 21.232 6.00044 21.2285 6.0009 21.2267L6.0018 21.2221L6.00092 21.2211L6 21.2202Z" stroke="url(#paint1_linear)" stroke-width="5"/>
<path d="M32.3996 14.0581C32.1438 14.0581 31.8985 14.1599 31.7179 14.341L26.9028 19.168C26.7222 19.349 26.4769 19.4508 26.2211 19.4508H6.89876C6.40239 19.4508 6 19.8532 6 20.3495V21.2475C6 21.248 6.00039 21.2484 6.00089 21.2484C6.00138 21.2484 6.00177 21.2487 6.00173 21.2492C6.00145 21.2525 6 21.2558 6 21.2589V53.6038C6 54.099 6.4014 54.5025 6.89655 54.5025H57.1035C57.5986 54.5025 58 54.099 58 53.6038V21.2589V21.2484V15.0214C58 14.4896 57.5689 14.0584 57.037 14.0584L32.3996 14.0581Z" stroke="url(#paint2_linear)" stroke-width="5"/>
<path d="M13.7037 32C13.1718 32 12.7407 32.4311 12.7407 32.963V56.1072C12.7407 56.639 13.1718 57.0702 13.7037 57.0702H22.5364C23.0682 57.0702 23.4993 56.639 23.4993 56.1072V43.7073C23.4993 43.1755 23.9304 42.7444 24.4623 42.7444H40.4674C40.9993 42.7444 41.4304 43.1755 41.4304 43.7073V56.1072C41.4304 56.639 41.8615 57.0702 42.3933 57.0702H51.226C51.7579 57.0702 52.189 56.639 52.189 56.1072V32.963C52.189 32.4311 51.7579 32 51.226 32H13.7037Z" fill="url(#paint3_linear)"/>
<defs>
<linearGradient id="paint0_linear" x1="32" y1="21.2318" x2="32" y2="6" gradientUnits="userSpaceOnUse">
<stop stop-color="#5570FF"/>
<stop offset="1" stop-color="#4DD3FF"/>
</linearGradient>
<linearGradient id="paint1_linear" x1="33.0009" y1="21.232" x2="33.0009" y2="5.41339" gradientUnits="userSpaceOnUse">
<stop stop-color="#5570FF"/>
<stop offset="1" stop-color="#4DD3FF"/>
</linearGradient>
<linearGradient id="paint2_linear" x1="32" y1="54.5025" x2="32" y2="14.0581" gradientUnits="userSpaceOnUse">
<stop stop-color="#5570FF"/>
<stop offset="1" stop-color="#4DD3FF"/>
</linearGradient>
<linearGradient id="paint3_linear" x1="32.4649" y1="57.0702" x2="32.4649" y2="32" gradientUnits="userSpaceOnUse">
<stop stop-color="#FFA800"/>
<stop offset="1" stop-color="#FFF737"/>
</linearGradient>
</defs>
</svg>
