<svg width="32" height="32" viewBox="0 0 32 32" fill="none" xmlns="http://www.w3.org/2000/svg">
<path d="M24.5706 14.1069L24.5712 14.1069C25.5432 14.1064 26.5015 14.3353 27.3683 14.775C28.2352 15.2147 28.9859 15.8528 29.5596 16.6374C30.1333 17.422 30.5137 18.331 30.6698 19.2903C30.8259 20.2496 30.7534 21.2323 30.4581 22.1583C30.1628 23.0843 29.6531 23.9276 28.9704 24.6194C28.2878 25.3113 27.4514 25.8323 26.5295 26.1399C25.6075 26.4476 24.6259 26.5333 23.6646 26.39C22.8373 26.2668 22.0452 25.977 21.3356 25.5398C21.0377 25.3563 20.6379 25.38 20.3766 25.6413L15.5487 30.4692C15.4511 30.5669 15.2928 30.5669 15.1951 30.4692L14.3873 29.6614C14.2896 29.5637 14.2896 29.4054 14.3873 29.3078L19.2145 24.4805C19.4762 24.2188 19.4996 23.8182 19.3152 23.5202C18.7921 22.6749 18.48 21.7137 18.4082 20.7182C18.3267 19.587 18.5586 18.4553 19.0785 17.4474C19.5983 16.4395 20.386 15.5944 21.355 15.0051C22.3239 14.4158 23.4366 14.105 24.5706 14.1069ZM29.1067 20.2857V20.2854C29.1067 19.3884 28.8407 18.5114 28.3423 17.7655C27.8439 17.0197 27.1356 16.4383 26.3068 16.095C25.478 15.7517 24.566 15.6619 23.6862 15.8369C22.8064 16.0119 21.9982 16.4439 21.3639 17.0782C20.7296 17.7126 20.2976 18.5207 20.1226 19.4006C19.9476 20.2804 20.0374 21.1924 20.3807 22.0211C20.724 22.8499 21.3053 23.5583 22.0512 24.0567C22.7971 24.5551 23.674 24.8211 24.5711 24.8211H24.5714C25.7738 24.8196 26.9265 24.3413 27.7767 23.491C28.6269 22.6408 29.1052 21.4881 29.1067 20.2857Z" fill="url(#paint0_linear)" stroke="url(#paint1_linear)" stroke-width="0.5"/>
<path d="M18.718 10.9646C18.2306 11.2902 17.6576 11.4641 17.0714 11.4641C16.2854 11.4633 15.5319 11.1508 14.9761 10.595C14.4203 10.0392 14.1077 9.2857 14.1069 8.49976C14.107 7.91353 14.2808 7.34047 14.6065 6.85304C14.9322 6.36558 15.3952 5.98564 15.9368 5.76129C16.4785 5.53693 17.0745 5.47823 17.6495 5.5926C18.2245 5.70698 18.7527 5.9893 19.1672 6.40385C19.5818 6.81841 19.8641 7.34659 19.9785 7.92159C20.0928 8.4966 20.0341 9.09261 19.8098 9.63425C19.5854 10.1759 19.2055 10.6388 18.718 10.9646ZM17.8053 7.40117C17.588 7.25597 17.3325 7.17847 17.0712 7.17847C16.7207 7.17847 16.3846 7.31769 16.1368 7.56551C15.889 7.81332 15.7498 8.14943 15.7498 8.49989C15.7498 8.76124 15.8273 9.01672 15.9725 9.23402C16.1177 9.45133 16.324 9.6207 16.5655 9.72071C16.8069 9.82073 17.0726 9.8469 17.329 9.79591C17.5853 9.74492 17.8208 9.61907 18.0056 9.43427C18.1904 9.24946 18.3162 9.01401 18.3672 8.75768C18.4182 8.50135 18.392 8.23566 18.292 7.9942C18.192 7.75275 18.0226 7.54637 17.8053 7.40117Z" fill="url(#paint2_linear)" stroke="url(#paint3_linear)" stroke-width="0.5"/>
<path d="M3.64283 24.8211H11.2141C11.3522 24.8211 11.4641 24.933 11.4641 25.0711V26.2139C11.4641 26.352 11.3522 26.4639 11.2141 26.4639H3.14308C2.64115 26.4634 2.15993 26.2638 1.80502 25.9089C1.45014 25.554 1.25053 25.0728 1.25 24.571V3.14296C1.25053 2.64108 1.45014 2.15991 1.80502 1.80502C2.15991 1.45014 2.64108 1.25053 3.14296 1.25H24.571C25.0728 1.25053 25.554 1.45014 25.9089 1.80502C26.2638 2.15993 26.4634 2.64115 26.4639 3.14308V9.07131C26.4639 9.20938 26.352 9.32131 26.2139 9.32131H25.0711C24.933 9.32131 24.8211 9.20938 24.8211 9.07131V3.64283C24.8211 3.22861 24.4853 2.89283 24.0711 2.89283H3.64283C3.22861 2.89283 2.89283 3.22861 2.89283 3.64283V13.9015C2.89283 14.5696 3.70058 14.9043 4.17308 14.4319L7.16166 11.4442C7.51662 11.0893 7.99798 10.89 8.49989 10.89C9.0018 10.89 9.48315 11.0893 9.83811 11.4441C9.83811 11.4441 9.83812 11.4442 9.83812 11.4442L15.4699 17.0749C15.5675 17.1725 15.5676 17.3306 15.4702 17.4283L14.6613 18.2394C14.5637 18.3372 14.4053 18.3374 14.3075 18.2396L9.03012 12.9622C8.73729 12.6694 8.26254 12.6693 7.96962 12.9621L3.11266 17.8161C2.97191 17.9568 2.89283 18.1476 2.89283 18.3466V24.0711C2.89283 24.4853 3.22861 24.8211 3.64283 24.8211Z" fill="url(#paint4_linear)" stroke="url(#paint5_linear)" stroke-width="0.5"/>
<defs>
<linearGradient id="paint0_linear" x1="13.8594" y1="22.1742" x2="31.0028" y2="22.1742" gradientUnits="userSpaceOnUse">
<stop stop-color="#A93AFF"/>
<stop offset="1" stop-color="#FF81FF"/>
</linearGradient>
<linearGradient id="paint1_linear" x1="13.8594" y1="22.1742" x2="31.0028" y2="22.1742" gradientUnits="userSpaceOnUse">
<stop stop-color="#A93AFF"/>
<stop offset="1" stop-color="#FF81FF"/>
</linearGradient>
<linearGradient id="paint2_linear" x1="13.8579" y1="8.40464" x2="20.2865" y2="8.40464" gradientUnits="userSpaceOnUse">
<stop stop-color="#A93AFF"/>
<stop offset="1" stop-color="#FF81FF"/>
</linearGradient>
<linearGradient id="paint3_linear" x1="13.8579" y1="8.40464" x2="20.2865" y2="8.40464" gradientUnits="userSpaceOnUse">
<stop stop-color="#A93AFF"/>
<stop offset="1" stop-color="#FF81FF"/>
</linearGradient>
<linearGradient id="paint4_linear" x1="1" y1="1" x2="26.7139" y2="26.7139" gradientUnits="userSpaceOnUse">
<stop stop-color="#FFC823"/>
<stop offset="1" stop-color="#FF2F78"/>
</linearGradient>
<linearGradient id="paint5_linear" x1="1" y1="1" x2="26.7139" y2="26.7139" gradientUnits="userSpaceOnUse">
<stop stop-color="#FFC823"/>
<stop offset="1" stop-color="#FF2F78"/>
</linearGradient>
</defs>
</svg>
