<svg width="128" height="128" viewBox="0 0 128 128" fill="none" xmlns="http://www.w3.org/2000/svg">
<path fill-rule="evenodd" clip-rule="evenodd" d="M25.6927 16.9526C23.8449 16.9526 21.99 17.0897 20.2075 17.5009C12.7298 19.098 6.99103 25.0337 6.94755 31.4103C6.93306 53.0673 6.93306 74.7242 6.94031 96.3755C6.94031 103.98 15.0557 110.72 24.287 110.869C43.02 110.906 61.7565 110.9 80.4939 110.892C88.0654 110.889 95.637 110.886 103.209 110.886C112.599 110.941 121.128 104.134 121.041 96.363C121.062 83.7141 121.059 71.0649 121.055 58.4159C121.052 49.6227 121.049 40.8294 121.056 32.0362C121.302 25.9455 116.36 20.0634 109.44 17.9477C106.332 16.9167 102.927 16.899 99.6296 16.9526C91.4155 16.9526 83.2006 16.9532 74.9855 16.9539C58.5542 16.9552 42.1218 16.9565 25.6927 16.9526ZM15.6498 31.3985C15.5557 27.8884 19.1135 24.825 23.1856 24.1516C24.058 24.0141 24.9452 24.0102 25.8309 24.0064C26.0193 24.0056 26.2075 24.0048 26.3956 24.0027C37.7637 24.0107 49.1318 24.0092 60.4993 24.0077C74.7083 24.0058 88.9164 24.004 103.122 24.0206C108.172 24.0206 112.724 27.7929 112.469 31.9826C112.506 53.2521 112.492 74.5216 112.477 95.7915C112.715 99.9684 108.281 103.801 103.195 103.771C81.8667 103.814 60.5338 103.807 39.204 103.799C34.4899 103.797 29.776 103.795 25.0623 103.795C20.2075 103.908 15.5339 100.469 15.6426 96.4049C15.6455 87.7428 15.6438 79.0806 15.6421 70.4185C15.6395 57.4118 15.6368 44.4051 15.6498 31.3985ZM68.4728 80.562C67.7109 80.5699 66.935 80.578 66.234 80.9571C64.915 81.6018 64.0158 83.2424 64.0039 84.94C63.9019 87.3686 65.8204 89.7325 67.8827 89.489C73.8892 89.5091 79.8986 89.5045 85.9069 89.5C88.4806 89.4981 91.0541 89.4962 93.6269 89.4962C95.8032 89.84 97.8363 87.4616 97.6674 84.8684C97.6376 82.4184 95.7007 80.3769 93.6688 80.5702C89.4223 80.548 85.1742 80.5527 80.9262 80.5574C76.9755 80.5617 73.025 80.5661 69.0759 80.5488C68.877 80.5578 68.6754 80.5599 68.4728 80.562Z" fill="url(#paint0_linear_640_226)" stroke="url(#paint1_linear_640_226)" stroke-width="6"/>
<path d="M35.9355 46.8716L52.7742 63.7103L35.9355 80.5489" stroke="url(#paint2_linear_640_226)" stroke-width="12" stroke-linecap="round" stroke-linejoin="round"/>
<defs>
<linearGradient id="paint0_linear_640_226" x1="100.411" y1="16.936" x2="27.6387" y2="124.858" gradientUnits="userSpaceOnUse">
<stop stop-color="#DE00C0"/>
<stop offset="1" stop-color="#8720FF"/>
</linearGradient>
<linearGradient id="paint1_linear_640_226" x1="100.411" y1="16.936" x2="27.6387" y2="124.858" gradientUnits="userSpaceOnUse">
<stop stop-color="#DE00C0"/>
<stop offset="1" stop-color="#8720FF"/>
</linearGradient>
<linearGradient id="paint2_linear_640_226" x1="35.9355" y1="46.8716" x2="62.8774" y2="60.3425" gradientUnits="userSpaceOnUse">
<stop stop-color="#FFC823"/>
<stop offset="1" stop-color="#FF2F78"/>
</linearGradient>
</defs>
</svg>
