<svg width="64" height="64" viewBox="0 0 64 64" fill="none" xmlns="http://www.w3.org/2000/svg">
<path d="M58.0764 5.92354C55.512 3.35898 51.3609 3.35866 48.7961 5.92354C47.5371 7.18242 38.8121 15.9074 37.5933 17.1262H5.64058C4.73454 17.1262 4 17.8607 4 18.7668V58.3595C4 59.2655 4.73454 60.0001 5.64058 60.0001H45.2333C46.1394 60.0001 46.8739 59.2655 46.8739 58.3595V26.4068C48.0691 25.2115 56.8368 16.4438 58.0764 15.2043C60.641 12.6396 60.6414 8.48843 58.0764 5.92354ZM43.5927 56.7188H7.28116V20.4072H34.3123L32.7481 21.9715C27.6412 27.0783 23.6356 33.324 21.1127 40.0943H12.2029C11.2969 40.0943 10.5623 40.8288 10.5623 41.7348C10.5623 42.6408 11.2969 43.3743 12.2029 43.3743H22.2643H22.2653C22.4465 43.3743 22.6457 43.339 22.8014 43.2852C29.9964 40.7964 36.6451 36.6353 42.0285 31.252L43.5927 29.6879V56.7188ZM39.7084 28.9319C35.5408 33.0995 30.5623 36.4838 25.1543 38.8459C27.5163 33.4379 30.9005 28.4593 35.0682 24.2917L46.4759 12.884L51.1161 17.5242C49.9292 18.7111 40.8377 27.8025 39.7084 28.9319ZM55.7563 12.884L53.4363 15.2042L48.7961 10.5639L51.1161 8.24366C52.3984 6.96138 54.4739 6.96126 55.7563 8.24366C57.0387 9.52605 57.0387 11.6015 55.7563 12.884Z" fill="url(#paint0_linear)" stroke="url(#paint1_linear)"/>
<defs>
<linearGradient id="paint0_linear" x1="7.36784" y1="44.2529" x2="58.9067" y2="31.542" gradientUnits="userSpaceOnUse">
<stop stop-color="#F5F013"/>
<stop offset="1" stop-color="#F9A60D"/>
</linearGradient>
<linearGradient id="paint1_linear" x1="7.36784" y1="44.2529" x2="58.9067" y2="31.542" gradientUnits="userSpaceOnUse">
<stop stop-color="#F5F013"/>
<stop offset="1" stop-color="#F9A60D"/>
</linearGradient>
</defs>
</svg>
