<svg width="180" height="192" viewBox="0 0 180 192" fill="none" xmlns="http://www.w3.org/2000/svg">
<path fill-rule="evenodd" clip-rule="evenodd" d="M56.9521 52.9598L56.9547 52.9497C57.645 50.2101 58.6226 46.3307 62.1804 46.4852C63.42 46.5371 64.7173 46.4575 66.0272 46.3771C69.1768 46.1837 72.3998 45.9859 75.0705 47.6012C77.0505 50.4055 77.7888 53.8646 78.5133 57.2592L78.5198 57.2899C78.7437 58.3387 78.9663 59.3813 79.2244 60.3961C80.7732 64.5613 81.8626 68.8823 82.9522 73.2043C83.7441 76.3457 84.5362 79.4877 85.505 82.571C86.5237 86.5314 87.6905 90.4553 88.8573 94.3787L88.858 94.381C90.7669 100.801 92.6755 107.219 93.934 113.795C89.451 115.088 84.5844 115.154 80.1561 113.607L79.7177 111.53C79.5829 110.88 79.4596 110.224 79.3362 109.567L79.336 109.566C78.8473 106.965 78.3559 104.35 77.1309 101.995C76.6334 101.982 76.1355 101.969 75.6374 101.956C75.3815 101.949 75.1254 101.942 74.8693 101.935L74.8648 101.934L74.8612 101.934C69.0748 101.775 63.2574 101.615 57.4999 102.172C56.7984 104.105 56.3709 106.126 55.9873 108.149C55.8887 108.635 55.7132 109.596 55.6256 110.082C55.4479 110.441 55.2887 110.821 55.1282 111.205L55.1277 111.206C54.6351 112.383 54.1299 113.589 53.0388 114.28C49.9078 114.88 46.7193 114.72 43.5489 114.561L43.5477 114.561C42.8007 114.523 42.0547 114.486 41.3106 114.458C40.3558 112.323 41.0005 110.087 41.6171 107.949C41.7437 107.51 41.8691 107.075 41.9792 106.646C42.4603 105.121 42.8769 103.579 43.2934 102.037L43.2954 102.029C43.8652 99.9206 44.4349 97.8124 45.1689 95.7523L45.5747 95.4868C47.5861 86.2344 50.1833 77.1066 52.7806 67.9782L52.7819 67.9738C54.204 62.9762 55.626 57.9784 56.9521 52.9598ZM67.5524 65.6505C67.9259 65.6152 68.3081 65.5791 68.5595 65.5556C69.1191 70.1579 70.3316 74.6204 71.5441 79.0823L71.5447 79.0845C72.5646 82.8378 73.5844 86.5908 74.2153 90.4268C69.7433 90.7251 65.2492 90.703 60.7881 90.4489C61.0974 88.0372 61.6845 85.6804 62.2715 83.3241L62.2824 83.2802C62.4824 82.4773 62.6824 81.6741 62.871 80.8691C64.3457 76.046 65.461 71.1298 66.5746 66.2205L66.6854 65.7322C66.9053 65.7116 67.2255 65.6814 67.5524 65.6505ZM118.929 60.0837C114.087 60.2351 108.683 60.4041 104.873 63.8208C101.256 67.2459 100.784 72.5936 101.036 77.3004C105.125 78.4936 111.198 80.2062 114.036 75.9524C114.245 74.8364 114.497 73.7427 114.804 72.6599C117.15 69.7651 121.742 70.4722 124.909 71.345C127.437 73.3627 127.256 76.8314 127.091 79.9841C127.046 80.8369 127.003 81.6665 127.014 82.438L125.984 82.5485C123.897 82.7244 121.775 82.7055 119.648 82.6866L119.647 82.6866C115.229 82.6474 110.8 82.6081 106.671 84.3164C102.516 85.9185 99.9738 90.349 99.9409 94.7244C99.9295 95.2153 99.9154 95.7087 99.9013 96.2037L99.9005 96.2341V96.2343C99.7653 100.965 99.6259 105.842 101.705 110.204C108.239 116.645 119.44 117.021 126.971 112.204C130.248 115.043 134.555 114.922 138.633 114.458C139.807 113.075 139.802 111.266 139.796 109.517L139.796 109.462C139.795 108.995 139.794 108.531 139.817 108.082C139.777 102.364 139.781 96.646 139.786 90.9279V90.9246C139.79 85.584 139.794 80.2433 139.761 74.9027C139.739 70.4059 138.545 65.2903 134.544 62.716C130.333 60.1258 125.259 60.1035 120.457 60.0825L120.4 60.0822C119.997 60.0804 119.597 60.0786 119.199 60.0752L118.929 60.0837L118.929 60.0837ZM112.948 97.1233L112.952 97.0557C112.765 95.1221 114.157 93.2991 116.053 93.0118C119.583 92.5588 123.178 92.6804 126.741 92.8682C127.321 96.1828 127.365 99.7295 126.148 102.9C123.981 105.304 120.475 104.938 117.431 104.62L117.428 104.62C116.933 104.568 116.45 104.518 115.987 104.481C112.477 103.932 112.76 99.8315 112.948 97.1233Z" fill="url(#paint0_linear_637_62)"/>
<path fill-rule="evenodd" clip-rule="evenodd" d="M111.657 9.18449C116.526 8.96881 121.402 9.00394 126.276 9.03906C129.392 9.06151 132.507 9.08395 135.619 9.04087C137.112 9.07752 138.617 9.05374 140.124 9.02993L140.124 9.02993C144.523 8.96042 148.94 8.89077 153.145 10.3227C162.297 13.4273 168.842 22.0565 170.485 31.5143C170.726 34.7958 170.781 38.0885 170.726 41.3699C170.821 53.4122 170.81 65.4513 170.799 77.4907V77.4963C170.789 87.68 170.78 97.8639 170.835 108.05C170.879 111.386 170.616 114.734 169.762 117.96C166.353 121.761 159.151 119.927 158.976 114.513C158.832 100.388 158.858 86.2596 158.884 72.1298V72.129V72.1282V72.1228V71.87V71.8659C158.908 59.2045 158.931 46.5414 158.834 33.8788C158.308 32.2987 157.672 30.7409 156.894 29.2714C154.286 23.5812 147.795 21.4488 141.964 21.9238C132.908 22.093 123.852 22.0566 114.796 22.0201H114.794C111.432 22.0066 108.07 21.9931 104.708 21.9901C91.9223 22.0717 79.1262 22.0406 66.3382 22.0093L63.1339 22.0014C58.7057 22.0812 54.2753 22.0551 49.8448 22.0289C44.4709 21.9972 39.0967 21.9655 33.7258 22.1229C27.7521 22.3107 23.0171 27.2713 21.3729 32.7847C21.1756 34.663 21.0878 36.5413 21.0549 38.4306C21.0549 50.5751 21.0585 62.7208 21.0622 74.8673V74.8817C21.0695 99.1866 21.0768 123.495 21.0549 147.803C21.067 148.735 21.0556 149.673 21.0441 150.613C21.0038 153.925 20.9633 157.256 21.9537 160.432C23.5978 165.459 28.2452 169.614 33.6051 169.879C39.5643 170.018 45.5301 169.981 51.4965 169.943H51.4991H51.5654C58.8657 169.898 66.1675 169.853 73.4588 170.132C91.347 169.823 109.269 169.812 127.167 170.121C130.571 169.872 133.984 169.912 137.396 169.952H137.397C140.489 169.988 143.582 170.024 146.667 169.845C151.983 169.481 156.379 165.271 158.045 160.332C159.151 155.747 159.371 150.852 158.373 146.235C153.007 146.159 147.64 146.175 142.273 146.191C137.457 146.206 132.641 146.22 127.825 146.168C112.074 146.235 96.3236 146.235 80.584 146.146C75.3463 146.228 70.1122 146.216 64.8797 146.203L64.5872 146.202C60.8615 146.193 57.1366 146.185 53.4118 146.212C52.548 146.21 51.6824 146.217 50.8159 146.224H50.8102H50.7973C46.9968 146.255 43.1804 146.286 39.4365 145.549C37.7814 143.505 35.9729 140.776 37.0689 138.058C37.6608 134.555 41.3547 132.755 44.6211 133.086C50.1054 133.123 55.5928 133.101 61.0809 133.078H61.0826C70.3463 133.04 79.613 133.002 88.8702 133.251C104.84 132.92 120.854 133.053 136.846 133.186C144.817 133.001 152.798 133.055 160.771 133.109H160.776C161.324 133.113 161.872 133.116 162.42 133.12L164.149 133.131C167.91 132.942 170.869 136.368 170.846 140.014C170.836 141.866 170.878 143.75 170.921 145.646V145.647V145.65L170.922 145.679V145.683C171.118 154.453 171.32 163.505 166.495 171.127C162.439 177.005 156.235 181.723 149.045 182.629C145.703 183.034 142.342 183.012 138.985 182.989L138.798 182.988C137.737 182.981 136.678 182.975 135.619 182.983L120.182 182.977H120.175C115.034 182.974 109.894 182.972 104.753 182.97C82.1364 182.959 59.5203 182.949 36.9042 182.949C34.9861 182.927 33.0678 182.838 31.1606 182.629C22.2275 181.612 14.6644 174.873 11.3543 166.619C11.2354 166.342 11.0553 165.924 10.8743 165.505L10.7414 165.197L10.6362 164.953C10.5376 164.724 10.4479 164.516 10.3788 164.354C8.88724 159.607 8.96035 154.642 9.03312 149.701C9.05875 147.961 9.08433 146.224 9.04151 144.5C9.10036 138.759 9.06896 133.012 9.03755 127.266L9.03754 127.264C8.98706 118.027 8.93669 108.79 9.26102 99.575C8.9389 86.8846 8.98656 74.1818 9.03422 61.4792C9.06441 53.4343 9.09459 45.3896 9.03084 37.3482C8.76778 27.2385 14.0071 16.8857 22.995 12.0574C27.1931 9.53831 32.1693 8.88644 36.9702 9.03007C41.715 9.08361 46.4616 9.06147 51.2085 9.03933L51.209 9.03933C58.2172 9.00665 65.2264 8.97407 72.2314 9.18486C85.3626 8.94179 98.5269 8.94142 111.657 9.18449ZM142.673 20.7557C142.904 20.3644 143.135 19.9665 143.366 19.5656L143.365 19.5666L143.314 19.6551L143.312 19.6582C143.098 20.0277 142.885 20.3945 142.673 20.7557ZM143.408 19.4929L143.409 19.4908L143.414 19.4827L143.466 19.3927L143.491 19.3485L143.598 19.164C143.533 19.2754 143.469 19.3866 143.405 19.4977L143.408 19.4929ZM159.832 45.9732C159.777 48.6404 159.722 51.3092 160.017 53.9435L160.018 53.9427C159.723 51.3091 159.778 48.6407 159.833 45.9742L159.832 45.9732ZM20.2348 150.86C20.2636 150.305 20.2715 149.747 20.2792 149.196L20.2789 149.2L20.2788 149.209L20.2788 149.21C20.2711 149.756 20.2633 150.309 20.2348 150.86Z" fill="url(#paint1_linear_637_62)"/>
<path d="M126.276 9.03906L126.262 11.039L126.262 11.039L126.276 9.03906ZM111.657 9.18449L111.62 11.1841L111.683 11.1853L111.746 11.1825L111.657 9.18449ZM135.619 9.04087L135.668 7.04147L135.63 7.04053L135.591 7.04106L135.619 9.04087ZM140.124 9.02993L140.155 11.0297L140.161 11.0296L140.124 9.02993ZM140.124 9.02993L140.092 7.03017L140.087 7.03026L140.124 9.02993ZM153.145 10.3227L152.5 12.2159L152.503 12.2167L153.145 10.3227ZM170.485 31.5143L172.48 31.3678L172.472 31.2693L172.455 31.172L170.485 31.5143ZM170.726 41.3699L168.726 41.3364L168.726 41.361L168.726 41.3857L170.726 41.3699ZM170.799 77.4907L168.799 77.4889V77.4907H170.799ZM170.799 77.4963L172.799 77.4983V77.4963H170.799ZM170.835 108.05L168.835 108.061L168.835 108.069L168.835 108.076L170.835 108.05ZM169.762 117.96L171.251 119.295L171.572 118.937L171.695 118.472L169.762 117.96ZM158.976 114.513L156.976 114.533L156.976 114.556L156.977 114.578L158.976 114.513ZM158.884 72.1298L160.884 72.1335V72.1298H158.884ZM158.884 71.8659L156.884 71.8621V71.8659H158.884ZM158.834 33.8788L160.834 33.8635L160.832 33.5472L160.732 33.2471L158.834 33.8788ZM156.894 29.2714L155.076 30.1047L155.1 30.1567L155.126 30.2072L156.894 29.2714ZM141.964 21.9238L142.001 23.9234L142.064 23.9223L142.126 23.9172L141.964 21.9238ZM114.796 22.0201L114.804 20.0201H114.796V22.0201ZM114.794 22.0201L114.786 24.0201H114.794V22.0201ZM104.708 21.9901L104.71 19.9901L104.703 19.9901L104.695 19.9901L104.708 21.9901ZM66.3382 22.0093L66.3333 24.0093L66.3333 24.0093L66.3382 22.0093ZM63.1339 22.0014L63.1388 20.0014L63.1183 20.0014L63.0979 20.0017L63.1339 22.0014ZM49.8448 22.0289L49.8566 20.0289L49.8566 20.0289L49.8448 22.0289ZM33.7258 22.1229L33.6672 20.1238L33.663 20.1239L33.7258 22.1229ZM21.3729 32.7847L19.4563 32.2131L19.4032 32.3911L19.3838 32.5758L21.3729 32.7847ZM21.0549 38.4306L19.0552 38.3958L19.0549 38.4132V38.4306H21.0549ZM21.0622 74.8673L23.0622 74.8673L23.0622 74.8667L21.0622 74.8673ZM21.0622 74.8817L19.0622 74.8817L19.0622 74.8823L21.0622 74.8817ZM21.0549 147.803L19.0549 147.801L19.0549 147.815L19.0551 147.829L21.0549 147.803ZM21.0441 150.613L19.0443 150.589L19.0442 150.589L21.0441 150.613ZM21.9537 160.432L20.0444 161.027L20.0485 161.041L20.0528 161.054L21.9537 160.432ZM33.6051 169.879L33.5063 171.877L33.5324 171.878L33.5585 171.878L33.6051 169.879ZM51.4965 169.943V167.943L51.4838 167.943L51.4965 169.943ZM51.5654 169.943L51.5654 171.943L51.5777 171.943L51.5654 169.943ZM73.4588 170.132L73.3823 172.131L73.4378 172.133L73.4933 172.132L73.4588 170.132ZM127.167 170.121L127.132 172.121L127.223 172.122L127.313 172.116L127.167 170.121ZM137.396 169.952L137.373 171.952L137.384 171.952H137.396V169.952ZM137.397 169.952L137.42 167.952L137.408 167.952H137.397V169.952ZM146.667 169.845L146.783 171.842L146.793 171.841L146.804 171.84L146.667 169.845ZM158.045 160.332L159.94 160.971L159.968 160.887L159.989 160.801L158.045 160.332ZM158.373 146.235L160.328 145.812L159.992 144.258L158.401 144.235L158.373 146.235ZM142.273 146.191L142.267 144.191L142.267 144.191L142.273 146.191ZM127.825 146.168L127.847 144.168L127.832 144.168L127.816 144.168L127.825 146.168ZM80.584 146.146L80.5953 144.146L80.574 144.146L80.5526 144.146L80.584 146.146ZM64.8797 146.203L64.8728 148.203L64.8747 148.203L64.8797 146.203ZM64.5872 146.202L64.5941 144.202L64.5921 144.202L64.5872 146.202ZM53.4118 146.212L53.4071 148.212L53.4167 148.212L53.4262 148.212L53.4118 146.212ZM50.8159 146.224V148.224H50.824L50.8321 148.224L50.8159 146.224ZM50.7973 146.224V144.224H50.7892L50.781 144.224L50.7973 146.224ZM39.4365 145.549L37.8822 146.808L38.3386 147.371L39.0503 147.511L39.4365 145.549ZM37.0689 138.058L38.9238 138.806L39.0049 138.605L39.041 138.391L37.0689 138.058ZM44.6211 133.086L44.4195 135.076L44.5133 135.085L44.6077 135.086L44.6211 133.086ZM61.0809 133.078L61.0809 131.078L61.0726 131.078L61.0809 133.078ZM61.0826 133.078V135.078L61.0909 135.078L61.0826 133.078ZM88.8702 133.251L88.8165 135.25L88.8641 135.252L88.9117 135.251L88.8702 133.251ZM136.846 133.186L136.83 135.186L136.861 135.186L136.893 135.185L136.846 133.186ZM160.771 133.109L160.757 135.109H160.771V133.109ZM160.776 133.109L160.791 131.109L160.783 131.109H160.776V133.109ZM162.42 133.12L162.405 135.12L162.407 135.12L162.42 133.12ZM164.149 133.131L164.136 135.131L164.193 135.131L164.249 135.128L164.149 133.131ZM170.846 140.014L168.846 140.001L168.846 140.003L170.846 140.014ZM170.921 145.646H172.921V145.623L172.92 145.601L170.921 145.646ZM170.921 145.65H168.921V145.684L168.922 145.718L170.921 145.65ZM170.922 145.679H172.922V145.645L172.921 145.611L170.922 145.679ZM170.922 145.683H168.922V145.705L168.922 145.728L170.922 145.683ZM166.495 171.127L168.141 172.263L168.164 172.23L168.185 172.197L166.495 171.127ZM149.045 182.629L149.286 184.614L149.295 184.613L149.045 182.629ZM138.985 182.989L138.999 180.989L138.996 180.989L138.985 182.989ZM138.798 182.988L138.785 184.988L138.787 184.988L138.798 182.988ZM135.619 182.983L135.618 184.983L135.626 184.983L135.634 184.983L135.619 182.983ZM120.182 182.977L120.183 180.977H120.182V182.977ZM120.175 182.977L120.174 184.977H120.175V182.977ZM104.753 182.97L104.752 184.97L104.752 184.97L104.753 182.97ZM36.9042 182.949L36.8813 184.949L36.8927 184.949H36.9042V182.949ZM31.1606 182.629L30.9344 184.616L30.9427 184.617L31.1606 182.629ZM11.3543 166.619L13.2106 165.875L13.2016 165.852L13.1921 165.83L11.3543 166.619ZM10.8743 165.505L9.03796 166.297L9.03828 166.298L10.8743 165.505ZM10.7414 165.197L8.90467 165.988L8.90506 165.989L10.7414 165.197ZM10.6362 164.953L12.4729 164.161L12.4728 164.161L10.6362 164.953ZM10.3788 164.354L8.47077 164.954L8.50041 165.048L8.53921 165.139L10.3788 164.354ZM9.03312 149.701L7.03334 149.672L7.03334 149.672L9.03312 149.701ZM9.04151 144.5L7.04162 144.479L7.04126 144.515L7.04213 144.55L9.04151 144.5ZM9.03755 127.266L7.03757 127.276L7.03758 127.277L9.03755 127.266ZM9.03754 127.264L11.0375 127.254L11.0375 127.253L9.03754 127.264ZM9.26102 99.575L11.2598 99.6453L11.2619 99.5848L11.2604 99.5242L9.26102 99.575ZM9.03422 61.4792L7.03423 61.4717L7.03423 61.4717L9.03422 61.4792ZM9.03084 37.3482L11.0308 37.3323L11.0306 37.3143L11.0302 37.2962L9.03084 37.3482ZM22.995 12.0574L23.9415 13.8193L23.9833 13.7968L24.0241 13.7723L22.995 12.0574ZM36.9702 9.03007L36.9104 11.0292L36.929 11.0297L36.9476 11.0299L36.9702 9.03007ZM51.2085 9.03933L51.1992 7.03935L51.1992 7.03935L51.2085 9.03933ZM51.209 9.03933L51.2183 11.0393L51.2183 11.0393L51.209 9.03933ZM72.2314 9.18486L72.1712 11.184L72.2198 11.1854L72.2684 11.1845L72.2314 9.18486ZM143.366 19.5656L145.098 20.5648L141.876 18.2311L143.366 19.5656ZM142.673 20.7557L140.949 19.7417L144.395 21.7734L142.673 20.7557ZM143.365 19.5666L141.875 18.2321L141.738 18.3856L141.634 18.5641L143.365 19.5666ZM143.314 19.6551L145.044 20.6581L145.044 20.6576L143.314 19.6551ZM143.312 19.6582L141.582 18.6552L141.581 18.6558L143.312 19.6582ZM143.409 19.4908L141.708 18.4396L141.649 18.5351L141.601 18.6367L143.409 19.4908ZM143.408 19.4929L145.103 20.5546L145.166 20.4542L145.216 20.347L143.408 19.4929ZM143.414 19.4827L145.115 20.5339L145.131 20.5088L145.146 20.4833L143.414 19.4827ZM143.466 19.3927L145.198 20.3933L145.199 20.3904L143.466 19.3927ZM143.491 19.3485L141.758 18.3507L141.758 18.3508L143.491 19.3485ZM143.598 19.164L145.331 20.1618L141.867 18.1623L143.598 19.164ZM143.405 19.4977L141.671 18.5005L145.1 20.5594L143.405 19.4977ZM160.017 53.9435L158.029 54.1661L158.432 57.76L161.262 55.5087L160.017 53.9435ZM159.832 45.9732L161.252 44.5644L157.93 41.2169L157.832 45.932L159.832 45.9732ZM160.018 53.9427L161.263 55.5079L162.129 54.8193L162.006 53.7201L160.018 53.9427ZM159.833 45.9742L161.833 46.0154L161.85 45.1675L161.253 44.5654L159.833 45.9742ZM20.2792 149.196L22.279 149.224L18.2848 149.047L20.2792 149.196ZM20.2348 150.86L18.2375 150.757L22.2321 150.964L20.2348 150.86ZM20.2789 149.2L18.2845 149.051L18.2797 149.114L18.279 149.178L20.2789 149.2ZM20.2788 149.209L22.2786 149.236L22.2787 149.231L20.2788 149.209ZM20.2788 149.21L22.2786 149.238L22.2786 149.237L20.2788 149.21ZM126.29 7.03911C121.425 7.00405 116.498 6.96811 111.568 7.18645L111.746 11.1825C116.554 10.9695 121.379 11.0038 126.262 11.039L126.29 7.03911ZM135.591 7.04106C132.504 7.0838 129.41 7.06159 126.29 7.03911L126.262 11.039C129.374 11.0614 132.51 11.0841 135.647 11.0407L135.591 7.04106ZM140.092 7.03018C138.578 7.0541 137.114 7.07696 135.668 7.04147L135.57 11.0403C137.11 11.0781 138.656 11.0534 140.155 11.0297L140.092 7.03018ZM140.087 7.03026L140.087 7.03027L140.161 11.0296L140.161 11.0296L140.087 7.03026ZM153.79 8.42946C149.201 6.86696 144.431 6.96163 140.092 7.03018L140.156 11.0297C144.615 10.9592 148.679 10.9146 152.5 12.2159L153.79 8.42946ZM172.455 31.172C170.705 21.0951 163.726 11.8 153.787 8.42871L152.503 12.2167C160.868 15.0546 166.979 23.0179 168.515 31.8566L172.455 31.172ZM172.726 41.4034C172.781 38.0783 172.726 34.7236 172.48 31.3678L168.49 31.6608C168.726 34.868 168.781 38.0987 168.726 41.3364L172.726 41.4034ZM172.799 77.4925C172.81 65.4546 172.821 53.4067 172.726 41.3541L168.726 41.3857C168.821 53.4177 168.81 65.448 168.799 77.4889L172.799 77.4925ZM172.799 77.4963V77.4907H168.799V77.4963H172.799ZM172.835 108.039C172.78 97.8605 172.789 87.6828 172.799 77.4983L168.799 77.4943C168.789 87.6772 168.78 97.8673 168.835 108.061L172.835 108.039ZM171.695 118.472C172.61 115.017 172.88 111.476 172.835 108.024L168.835 108.076C168.878 111.296 168.622 114.451 167.829 117.448L171.695 118.472ZM156.977 114.578C157.098 118.314 159.687 120.758 162.593 121.611C165.452 122.45 168.948 121.863 171.251 119.295L168.273 116.625C167.167 117.858 165.358 118.254 163.72 117.773C162.128 117.306 161.029 116.126 160.975 114.448L156.977 114.578ZM156.884 72.1262C156.858 86.2539 156.832 100.394 156.976 114.533L160.976 114.493C160.832 100.381 160.858 86.2653 160.884 72.1335L156.884 72.1262ZM156.884 72.129V72.1298H160.884V72.129H156.884ZM156.884 72.1282V72.129H160.884V72.1282H156.884ZM156.884 72.1228V72.1282H160.884V72.1228H156.884ZM156.884 71.87V72.1228H160.884V71.87H156.884ZM156.884 71.8659V71.87H160.884V71.8659H156.884ZM156.834 33.8941C156.931 46.5456 156.908 59.1993 156.884 71.8621L160.884 71.8697C160.908 59.2097 160.931 46.5372 160.834 33.8635L156.834 33.8941ZM155.126 30.2072C155.843 31.5603 156.438 33.0129 156.936 34.5105L160.732 33.2471C160.178 31.5845 159.501 29.9215 158.662 28.3356L155.126 30.2072ZM142.126 23.9172C147.515 23.4782 152.959 25.4866 155.076 30.1047L158.712 28.4381C155.613 21.6758 148.075 19.4194 141.802 19.9304L142.126 23.9172ZM114.788 24.0201C123.84 24.0566 132.919 24.0931 142.001 23.9234L141.927 19.9241C132.897 20.0929 123.864 20.0566 114.804 20.0201L114.788 24.0201ZM114.794 24.0201H114.796V20.0201H114.794V24.0201ZM104.706 23.9901C108.065 23.9931 111.423 24.0066 114.786 24.0201L114.802 20.0201C111.441 20.0066 108.075 19.9931 104.71 19.9901L104.706 23.9901ZM66.3333 24.0093C79.1199 24.0406 91.9248 24.0717 104.721 23.9901L104.695 19.9901C91.9198 20.0717 79.1325 20.0406 66.3431 20.0093L66.3333 24.0093ZM63.129 24.0014L66.3333 24.0093L66.3431 20.0093L63.1388 20.0014L63.129 24.0014ZM49.833 24.0289C54.2595 24.055 58.7138 24.0814 63.1699 24.0011L63.0979 20.0017C58.6976 20.081 54.2911 20.0552 49.8566 20.0289L49.833 24.0289ZM33.7844 24.122C39.1142 23.9658 44.4532 23.9971 49.833 24.0289L49.8566 20.0289C44.4886 19.9973 39.0792 19.9652 33.6672 20.1238L33.7844 24.122ZM23.2895 33.3563C24.7714 28.3869 28.9366 24.2744 33.7886 24.1219L33.663 20.1239C26.5676 20.3469 21.2628 26.1557 19.4563 32.2131L23.2895 33.3563ZM23.0546 38.4654C23.0868 36.6136 23.1726 34.7966 23.362 32.9936L19.3838 32.5758C19.1786 34.5294 19.0888 36.469 19.0552 38.3958L23.0546 38.4654ZM23.0622 74.8667C23.0585 62.7202 23.0549 50.5747 23.0549 38.4306H19.0549C19.0549 50.5754 19.0585 62.7214 19.0622 74.8679L23.0622 74.8667ZM23.0622 74.8817V74.8673H19.0622V74.8817H23.0622ZM23.0549 147.805C23.0768 123.495 23.0695 99.1858 23.0622 74.8811L19.0622 74.8823C19.0695 99.1874 19.0768 123.495 19.0549 147.801L23.0549 147.805ZM23.044 150.637C23.0554 149.702 23.0672 148.738 23.0547 147.777L19.0551 147.829C19.0668 148.732 19.0558 149.644 19.0443 150.589L23.044 150.637ZM23.863 159.837C22.9828 157.014 23.003 154.006 23.044 150.637L19.0442 150.589C19.0046 153.844 18.9438 157.498 20.0444 161.027L23.863 159.837ZM33.7039 167.881C29.3076 167.664 25.2861 164.187 23.8546 159.81L20.0528 161.054C21.9095 166.731 27.1828 171.564 33.5063 171.877L33.7039 167.881ZM51.4838 167.943C45.5127 167.981 39.5764 168.018 33.6517 167.88L33.5585 171.878C39.5522 172.018 45.5475 171.981 51.5092 171.943L51.4838 167.943ZM51.4991 167.943H51.4965V171.943H51.4991V167.943ZM51.5654 167.943H51.4991V171.943H51.5654V167.943ZM73.5353 168.133C66.1922 167.852 58.8459 167.898 51.5531 167.943L51.5777 171.943C58.8855 171.898 66.1428 171.854 73.3823 172.131L73.5353 168.133ZM127.202 168.121C109.28 167.812 91.3347 167.823 73.4243 168.132L73.4933 172.132C91.3593 171.823 109.258 171.812 127.132 172.121L127.202 168.121ZM137.419 167.952C134.022 167.912 130.524 167.87 127.021 168.126L127.313 172.116C130.618 171.874 133.946 171.912 137.373 171.952L137.419 167.952ZM137.397 167.952H137.396V171.952H137.397V167.952ZM146.551 167.848C143.547 168.023 140.524 167.988 137.42 167.952L137.373 171.952C140.454 171.988 143.617 172.025 146.783 171.842L146.551 167.848ZM156.15 159.693C154.679 164.053 150.86 167.553 146.53 167.85L146.804 171.84C153.106 171.409 158.079 166.489 159.94 160.971L156.15 159.693ZM156.418 146.658C157.343 150.937 157.147 155.524 156.101 159.863L159.989 160.801C161.155 155.97 161.399 150.767 160.328 145.812L156.418 146.658ZM142.279 148.191C147.649 148.175 152.999 148.159 158.345 148.235L158.401 144.235C153.015 144.159 147.631 144.175 142.267 144.191L142.279 148.191ZM127.803 148.168C132.635 148.22 137.465 148.206 142.279 148.191L142.267 144.191C137.449 144.206 132.647 144.22 127.847 144.168L127.803 148.168ZM80.5726 148.146C96.3198 148.235 112.077 148.235 127.834 148.168L127.816 144.168C112.071 144.235 96.3274 144.235 80.5953 144.146L80.5726 148.146ZM64.8747 148.203C70.1046 148.216 75.3565 148.228 80.6153 148.146L80.5526 144.146C75.336 144.228 70.1197 144.216 64.8846 144.203L64.8747 148.203ZM64.5804 148.202L64.8728 148.203L64.8865 144.203L64.5941 144.202L64.5804 148.202ZM53.4262 148.212C57.14 148.185 60.8556 148.193 64.5824 148.202L64.5921 144.202C60.8675 144.193 57.1331 144.185 53.3973 144.212L53.4262 148.212ZM50.8321 148.224C51.7003 148.217 52.5556 148.21 53.4071 148.212L53.4164 144.212C52.5405 144.21 51.6645 144.217 50.7998 144.224L50.8321 148.224ZM50.8102 148.224H50.8159V144.224H50.8102V148.224ZM50.7973 148.224H50.8102V144.224H50.7973V148.224ZM39.0503 147.511C43.0268 148.294 47.0478 148.255 50.8137 148.224L50.781 144.224C46.9459 144.255 43.3341 144.278 39.8228 143.587L39.0503 147.511ZM35.2141 137.31C34.4123 139.298 34.7199 141.223 35.3697 142.813C36.0062 144.37 37.0249 145.749 37.8822 146.808L40.9909 144.29C40.1931 143.305 39.48 142.297 39.0725 141.3C38.6783 140.335 38.6296 139.536 38.9238 138.806L35.2141 137.31ZM44.8228 131.096C40.9278 130.701 35.9267 132.814 35.0969 137.725L39.041 138.391C39.395 136.296 41.7817 134.808 44.4195 135.076L44.8228 131.096ZM61.0726 131.078C55.5829 131.101 50.1063 131.123 44.6346 131.086L44.6077 135.086C50.1046 135.123 55.6026 135.101 61.0893 135.078L61.0726 131.078ZM61.0826 131.078H61.0809V135.078H61.0826V131.078ZM88.924 131.252C79.6307 131.002 70.333 131.04 61.0744 131.078L61.0909 135.078C70.3597 135.04 79.5954 135.002 88.8165 135.25L88.924 131.252ZM136.863 131.186C120.876 131.053 104.833 130.92 88.8288 131.251L88.9117 135.251C104.848 134.92 120.833 135.053 136.83 135.186L136.863 131.186ZM160.785 131.109C152.817 131.055 144.806 131.001 136.8 131.187L136.893 135.185C144.829 135.001 152.78 135.055 160.757 135.109L160.785 131.109ZM160.776 131.109H160.771V135.109H160.776V131.109ZM162.435 131.12C162.16 131.118 161.885 131.116 161.611 131.115C161.337 131.113 161.064 131.111 160.791 131.109L160.761 135.109C161.036 135.111 161.311 135.113 161.585 135.114C161.859 135.116 162.132 135.118 162.405 135.12L162.435 131.12ZM164.162 131.131L162.433 131.12L162.407 135.12L164.136 135.131L164.162 131.131ZM172.846 140.027C172.875 135.449 169.163 130.876 164.049 131.134L164.249 135.128C166.657 135.008 168.863 137.287 168.846 140.001L172.846 140.027ZM172.92 145.601C172.877 143.7 172.836 141.844 172.846 140.025L168.846 140.003C168.836 141.888 168.879 143.8 168.922 145.691L172.92 145.601ZM172.921 145.647V145.646H168.921V145.647H172.921ZM172.921 145.65V145.647H168.921V145.65H172.921ZM172.921 145.611L172.92 145.582L168.922 145.718L168.923 145.747L172.921 145.611ZM172.922 145.683V145.679H168.922V145.683H172.922ZM168.185 172.197C173.387 163.979 173.115 154.286 172.921 145.638L168.922 145.728C169.121 154.62 169.253 163.031 164.805 170.057L168.185 172.197ZM149.295 184.613C157.2 183.617 163.859 178.469 168.141 172.263L164.849 169.991C161.019 175.541 155.27 179.829 148.795 180.645L149.295 184.613ZM138.971 184.989C142.308 185.012 145.796 185.037 149.286 184.614L148.804 180.644C145.61 181.031 142.376 181.012 138.999 180.989L138.971 184.989ZM138.787 184.988L138.974 184.989L138.996 180.989L138.809 180.988L138.787 184.988ZM135.634 184.983C136.677 184.975 137.723 184.981 138.785 184.988L138.811 180.988C137.751 180.981 136.679 180.975 135.604 180.983L135.634 184.983ZM120.181 184.977L135.618 184.983L135.62 180.983L120.183 180.977L120.181 184.977ZM120.175 184.977H120.182V180.977H120.175V184.977ZM104.752 184.97C109.893 184.972 115.033 184.974 120.174 184.977L120.176 180.977C115.035 180.974 109.895 180.972 104.754 180.97L104.752 184.97ZM36.9042 184.949C59.5198 184.949 82.1354 184.959 104.752 184.97L104.754 180.97C82.1374 180.959 59.5208 180.949 36.9042 180.949V184.949ZM30.9427 184.617C32.9319 184.835 34.918 184.926 36.8813 184.949L36.9271 180.949C35.0542 180.928 33.2037 180.841 31.3785 180.641L30.9427 184.617ZM9.49801 167.363C13.0314 176.174 21.1456 183.502 30.9344 184.616L31.3868 180.642C23.3094 179.722 16.2974 173.572 13.2106 165.875L9.49801 167.363ZM9.03828 166.298C9.21893 166.716 9.39838 167.133 9.51646 167.408L13.1921 165.83C13.0724 165.551 12.8917 165.132 12.7103 164.712L9.03828 166.298ZM8.90506 165.989L9.03796 166.297L12.7106 164.713L12.5777 164.405L8.90506 165.989ZM8.79942 165.744L8.90467 165.988L12.5781 164.406L12.4729 164.161L8.79942 165.744ZM8.53921 165.139C8.61004 165.305 8.70145 165.517 8.79949 165.744L12.4728 164.161C12.3737 163.931 12.2857 163.727 12.2184 163.569L8.53921 165.139ZM7.03334 149.672C6.9614 154.556 6.86665 159.848 8.47077 164.954L12.2868 163.754C10.9078 159.366 10.9593 154.728 11.0329 149.73L7.03334 149.672ZM7.04213 144.55C7.0838 146.227 7.05907 147.925 7.03334 149.672L11.0329 149.73C11.0584 147.997 11.0849 146.221 11.0409 144.45L7.04213 144.55ZM7.03758 127.277C7.06901 133.026 7.10028 138.757 7.04162 144.479L11.0414 144.521C11.1004 138.761 11.0689 132.998 11.0375 127.255L7.03758 127.277ZM7.03756 127.274L7.03757 127.276L11.0375 127.256L11.0375 127.254L7.03756 127.274ZM7.26226 99.5046C6.93626 108.767 6.98713 118.045 7.03757 127.275L11.0375 127.253C10.987 118.009 10.9371 108.813 11.2598 99.6453L7.26226 99.5046ZM7.03423 61.4717C6.98659 74.1694 6.93868 86.9014 7.26166 99.6257L11.2604 99.5242C10.9391 86.8678 10.9865 74.1942 11.0342 61.4867L7.03423 61.4717ZM7.0309 37.3641C7.09455 45.3918 7.06443 53.4248 7.03423 61.4717L11.0342 61.4867C11.0644 53.4438 11.0946 45.3874 11.0308 37.3323L7.0309 37.3641ZM22.0485 10.2955C12.3101 15.527 6.75147 26.6375 7.03152 37.4002L11.0302 37.2962C10.7841 27.8395 15.7041 18.2444 23.9415 13.8193L22.0485 10.2955ZM37.03 7.03096C32.0419 6.88173 26.6272 7.54545 21.9659 10.3425L24.0241 13.7723C27.759 11.5312 32.2967 10.8911 36.9104 11.0292L37.03 7.03096ZM51.1992 7.03935C46.4496 7.0615 41.719 7.08352 36.9928 7.0302L36.9476 11.0299C41.7111 11.0837 46.4736 11.0614 51.2178 11.0393L51.1992 7.03935ZM51.1997 7.03935L51.1992 7.03935L51.2178 11.0393L51.2183 11.0393L51.1997 7.03935ZM72.2916 7.18576C65.246 6.97375 58.2021 7.0067 51.1997 7.03935L51.2183 11.0393C58.2323 11.0066 65.2068 10.9744 72.1712 11.184L72.2916 7.18576ZM111.694 7.18483C98.5392 6.9413 85.3502 6.94168 72.1944 7.1852L72.2684 11.1845C85.375 10.9419 98.5146 10.9415 111.62 11.1841L111.694 7.18483ZM141.633 18.5665C141.403 18.9661 141.177 19.3564 140.951 19.738L144.395 21.7734C144.632 21.3725 144.866 20.967 145.098 20.5648L141.633 18.5665ZM144.855 20.9011L144.856 20.9002L141.876 18.2311L141.875 18.2321L144.855 20.9011ZM145.044 20.6576L145.096 20.5691L141.634 18.5641L141.583 18.6525L145.044 20.6576ZM145.042 20.6613L145.044 20.6581L141.583 18.652L141.582 18.6552L145.042 20.6613ZM144.397 21.7697C144.613 21.4018 144.829 21.0291 145.043 20.6607L141.581 18.6558C141.367 19.0264 141.158 19.3873 140.949 19.7417L144.397 21.7697ZM141.601 18.6367L141.6 18.6388L145.216 20.347L145.217 20.3449L141.601 18.6367ZM141.713 18.4315L141.708 18.4396L145.11 20.542L145.115 20.5339L141.713 18.4315ZM141.734 18.3921L141.682 18.4821L145.146 20.4833L145.198 20.3933L141.734 18.3921ZM141.758 18.3508L141.733 18.395L145.199 20.3904L145.225 20.3461L141.758 18.3508ZM141.864 18.1662L141.758 18.3507L145.225 20.3463L145.331 20.1618L141.864 18.1662ZM145.139 20.4949C145.201 20.3862 145.264 20.2768 145.329 20.1657L141.867 18.1623C141.802 18.2739 141.737 18.3871 141.671 18.5005L145.139 20.4949ZM141.713 18.4312L141.71 18.436L145.1 20.5594L145.103 20.5546L141.713 18.4312ZM162.005 53.7209C161.727 51.2403 161.776 48.7046 161.832 46.0144L157.832 45.932C157.778 48.5762 157.717 51.3781 158.029 54.1661L162.005 53.7209ZM158.773 52.3775L158.772 52.3783L161.262 55.5087L161.263 55.5079L158.773 52.3775ZM157.833 45.933C157.779 48.5765 157.718 51.378 158.03 54.1653L162.006 53.7201C161.728 51.2402 161.777 48.7049 161.833 46.0154L157.833 45.933ZM158.412 47.382L158.413 47.383L161.253 44.5654L161.252 44.5644L158.412 47.382ZM18.2794 149.168C18.2716 149.725 18.264 150.245 18.2375 150.756L22.2321 150.964C22.2632 150.365 22.2714 149.769 22.279 149.224L18.2794 149.168ZM22.2733 149.349L22.2736 149.345L18.2848 149.047L18.2845 149.051L22.2733 149.349ZM22.2787 149.231L22.2788 149.222L18.279 149.178L18.2789 149.187L22.2787 149.231ZM22.2786 149.237L22.2786 149.236L18.279 149.182L18.279 149.183L22.2786 149.237ZM22.2321 150.963C22.2629 150.369 22.271 149.778 22.2786 149.238L18.279 149.182C18.2712 149.734 18.2637 150.25 18.2375 150.757L22.2321 150.963Z" fill="url(#paint2_linear_637_62)"/>
<defs>
<linearGradient id="paint0_linear_637_62" x1="86.0165" y1="113.614" x2="91.5289" y2="50.5674" gradientUnits="userSpaceOnUse">
<stop stop-color="#8D01A2"/>
<stop offset="1" stop-color="#FF33DB"/>
</linearGradient>
<linearGradient id="paint1_linear_637_62" x1="38.3625" y1="162.458" x2="193.37" y2="36.5377" gradientUnits="userSpaceOnUse">
<stop stop-color="#FE0844"/>
<stop offset="1" stop-color="#FEB302"/>
</linearGradient>
<linearGradient id="paint2_linear_637_62" x1="38.3625" y1="162.458" x2="193.37" y2="36.5377" gradientUnits="userSpaceOnUse">
<stop stop-color="#FE0844"/>
<stop offset="1" stop-color="#FEB302"/>
</linearGradient>
</defs>
</svg>
