<svg width="64" height="64" viewBox="0 0 64 64" fill="none" xmlns="http://www.w3.org/2000/svg">
<path d="M6.06362 33.8363C5.24534 22.1462 31.2683 12.937 38.5865 26.0641M33.8387 57.9798C25.1847 58.5869 18.9132 44.3177 23.525 29.794M53.3762 46.8969C49.8667 51.9352 44.6886 55.5703 38.7576 57.1594C32.8266 58.7485 26.5248 58.1891 20.9664 55.5803C15.408 52.9715 10.9511 48.4812 8.38383 42.9035C5.81655 37.3257 5.30426 31.0199 6.93753 25.101C8.57082 19.1819 12.2445 14.0312 17.3088 10.5593C22.3733 7.08749 28.5022 5.51828 34.6119 6.12915C40.7216 6.74002 46.4186 9.49163 50.6953 13.8974C54.9721 18.3032 57.5532 24.0794 57.9823 30.2045C58.5895 38.8587 43.4268 37.1816 37.9938 34.5012C42.0187 29.8749 39.1561 22.8256 31.4186 23.3662C26.3731 23.719 22.9554 26.7117 23.3688 32.6247C24.1784 44.1615 36.2184 50.566 53.3242 46.4746L53.3762 46.8969Z" stroke="url(#paint0_linear)" stroke-width="5" stroke-linecap="round" stroke-linejoin="round"/>
<defs>
<linearGradient id="paint0_linear" x1="32" y1="58.046" x2="32" y2="6" gradientUnits="userSpaceOnUse">
<stop stop-color="#CC00FF"/>
<stop offset="1" stop-color="#4B9EFF"/>
</linearGradient>
</defs>
</svg>
