<svg width="64" height="64" viewBox="0 0 64 64" fill="none" xmlns="http://www.w3.org/2000/svg">
<path d="M34.736 4V9.6645C47.0584 11.1788 55.788 22.3676 54.2723 34.678C52.9811 44.8853 44.9532 52.9895 34.736 54.1953V59.8037C50.1741 58.2614 61.4019 44.5769 59.8581 29.1537C58.595 15.8338 48.0128 5.31798 34.736 4ZM29.1221 4.08413C23.6486 4.61693 18.4277 6.72008 14.1611 10.2534L18.175 14.4036C21.3188 11.8798 25.1082 10.2534 29.1221 9.69254V4.08413ZM10.2033 14.2073C6.6937 18.4623 4.53389 23.6661 4 29.1537H9.61388C10.1472 25.1718 11.7191 21.3861 14.2173 18.2173L10.2033 14.2073ZM4.02807 34.7621C4.58946 40.2584 6.7508 45.4462 10.2314 49.7086L14.2173 45.6985C11.7385 42.5287 10.1583 38.7514 9.64195 34.7621H4.02807ZM18.175 49.8207L14.1611 53.6625C18.413 57.2034 23.6185 59.4084 29.1221 60V54.3916C25.129 53.8757 21.348 52.297 18.175 49.8207Z" fill="url(#paint0_linear)"/>
<path d="M33.9222 29.378L45.4587 40.9033C45.964 41.2959 45.964 42.1933 45.3464 42.698L42.4272 45.5864C41.922 46.1192 41.1641 46.1192 40.6588 45.5864L29.1223 34.0891C26.2031 35.2108 22.7786 34.5939 20.3647 32.1822C17.8946 29.6304 17.1928 25.8447 18.7086 22.7881L24.2944 28.2564L28.0838 24.4426L22.6383 19.0025C25.6979 17.6004 29.4872 18.1051 32.0135 20.657C34.4274 23.0405 35.073 26.4617 33.9222 29.378Z" fill="url(#paint1_linear)"/>
<defs>
<linearGradient id="paint0_linear" x1="32" y1="60" x2="32" y2="4" gradientUnits="userSpaceOnUse">
<stop stop-color="#02AA93"/>
<stop offset="1" stop-color="#67FF80"/>
</linearGradient>
<linearGradient id="paint1_linear" x1="31.8686" y1="45.986" x2="31.8686" y2="18.2361" gradientUnits="userSpaceOnUse">
<stop stop-color="#FDA700"/>
<stop offset="1" stop-color="#FFDE00"/>
</linearGradient>
</defs>
</svg>
