<svg width="128" height="128" viewBox="0 0 128 128" fill="none" xmlns="http://www.w3.org/2000/svg">
<path fill-rule="evenodd" clip-rule="evenodd" d="M66.918 74.8885C66.918 76.387 65.561 77.6015 63.888 77.6015H33.5853C31.9121 77.6015 30.5552 76.387 30.5552 74.8885C30.5552 73.3895 31.9121 72.175 33.5853 72.175H63.888C65.561 72.175 66.918 73.3895 66.918 74.8885ZM66.918 85.7415C66.918 87.24 65.561 88.4545 63.888 88.4545H33.5853C31.9121 88.4545 30.5552 87.24 30.5552 85.7415C30.5552 84.2435 31.9121 83.0285 33.5853 83.0285H63.888C65.561 83.0285 66.918 84.2435 66.918 85.7415ZM106.311 99.308H76.0085C74.335 99.308 72.978 98.0935 72.978 96.5945V64.035C72.978 62.5365 74.335 61.322 76.0085 61.322H106.311C107.984 61.322 109.341 62.5365 109.341 64.035V96.5945C109.341 98.0935 107.984 99.308 106.311 99.308ZM103.28 66.7485H79.039V93.8815H103.28V66.7485ZM45.7064 66.7485H33.5853C31.9121 66.7485 30.5552 65.534 30.5552 64.035C30.5552 62.5365 31.9121 61.322 33.5853 61.322H45.7064C47.3797 61.322 48.7366 62.5365 48.7366 64.035C48.7366 65.534 47.3797 66.7485 45.7064 66.7485ZM36.6155 42.3289C36.6155 43.8271 35.2586 45.042 33.5853 45.042C31.9121 45.042 30.5552 43.8271 30.5552 42.3289C30.5552 40.8301 31.9121 39.6152 33.5853 39.6152C35.2586 39.6152 36.6155 40.8301 36.6155 42.3289ZM21.2624 28.7622H118.634C120.307 28.7622 121.664 29.9771 121.664 31.4753V107.448C121.664 108.947 120.307 110.161 118.634 110.161H21.2624C19.5889 110.161 18.2322 108.947 18.2322 107.448V31.4753C18.2322 29.9771 19.5889 28.7622 21.2624 28.7622ZM24.2926 104.735H115.603V55.895H24.2926V104.735ZM24.2926 50.4688H115.603V34.189H24.2926V50.4688ZM66.918 96.5945C66.918 98.0935 65.561 99.308 63.888 99.308H33.5853C31.9121 99.308 30.5552 98.0935 30.5552 96.5945C30.5552 95.0965 31.9121 93.8815 33.5853 93.8815H63.888C65.561 93.8815 66.918 95.0965 66.918 96.5945ZM48.7366 42.3289C48.7366 43.8271 47.3797 45.042 45.7064 45.042C44.0326 45.042 42.6757 43.8271 42.6757 42.3289C42.6757 40.8301 44.0326 39.6152 45.7064 39.6152C47.3797 39.6152 48.7366 40.8301 48.7366 42.3289ZM60.857 42.3289C60.857 43.8271 59.501 45.042 57.827 45.042C56.1535 45.042 54.797 43.8271 54.797 42.3289C54.797 40.8301 56.1535 39.6152 57.827 39.6152C59.501 39.6152 60.857 40.8301 60.857 42.3289Z" fill="url(#paint0_linear)" stroke="url(#paint1_linear)" stroke-width="2"/>
<path d="M7 22C7 19.2385 9.2386 17 12 17H83.4425C85.0995 17 86.4425 18.3432 86.4425 20C86.4425 21.6568 85.0995 23 83.4425 23H13V86.0985C13 87.755 11.6568 89.0985 10 89.0985C8.34315 89.0985 7 87.755 7 86.0985V22Z" fill="url(#paint2_linear)" stroke="url(#paint3_linear)" stroke-width="2"/>
<defs>
<linearGradient id="paint0_linear" x1="59" y1="29" x2="131.358" y2="92.5004" gradientUnits="userSpaceOnUse">
<stop stop-color="#ECD935"/>
<stop offset="1" stop-color="#3BCAB9"/>
</linearGradient>
<linearGradient id="paint1_linear" x1="59" y1="29" x2="131.358" y2="92.5004" gradientUnits="userSpaceOnUse">
<stop stop-color="#ECD935"/>
<stop offset="1" stop-color="#3BCAB9"/>
</linearGradient>
<linearGradient id="paint2_linear" x1="7" y1="17" x2="78.7606" y2="96.0702" gradientUnits="userSpaceOnUse">
<stop stop-color="#FFC823"/>
<stop offset="1" stop-color="#FF2F78"/>
</linearGradient>
<linearGradient id="paint3_linear" x1="7" y1="17" x2="78.7606" y2="96.0702" gradientUnits="userSpaceOnUse">
<stop stop-color="#FFC823"/>
<stop offset="1" stop-color="#FF2F78"/>
</linearGradient>
</defs>
</svg>
