<svg width="64" height="64" viewBox="0 0 64 64" fill="none" xmlns="http://www.w3.org/2000/svg">
<path d="M36.7489 4.00207C34.8098 3.96148 32.8611 4.51974 31.2377 5.58852C29.6187 6.65279 28.3299 8.2141 27.5948 10.0089C26.8597 11.8083 26.6803 13.8239 27.0907 15.7224C27.501 17.6165 28.4932 19.385 29.9047 20.7153C29.1877 19.5338 28.8172 18.1351 28.8623 16.7506C28.9028 15.3662 29.3576 14.0009 30.1468 12.86C30.936 11.7236 32.0646 10.8197 33.3453 10.2966C34.6261 9.77348 36.0592 9.63059 37.4211 9.89215C39.2077 10.2299 40.8387 11.284 41.9099 12.7517H59.2407L45.4075 9.77537C44.6679 8.0978 43.441 6.64021 41.9213 5.62554C40.397 4.61088 38.5798 4.03814 36.7489 4.00207Z" fill="url(#paint0_linear)"/>
<path d="M30.9758 26.5145L8.46381 7.46582C6.24508 9.75671 4.97337 12.936 5.00042 16.1243C5.02749 19.3577 6.3939 22.5595 8.70733 24.8188C11.0208 27.0782 14.2542 28.3679 17.4876 28.3228C15.7108 28.0793 14.0242 27.2089 12.793 25.9011C11.5619 24.5979 10.7953 22.8617 10.6555 21.0759C10.5247 19.3442 10.9802 17.5764 11.9272 16.1243L30.9758 26.5145Z" fill="url(#paint1_linear)"/>
<path d="M29.3164 31.008L6.80442 24.0812C6.20464 26.3721 6.38954 28.8569 7.31852 31.0351C8.25201 33.2087 9.92508 35.0577 11.9995 36.2031C13.5824 37.078 15.3862 37.5425 17.1946 37.5425C19.0029 37.5425 20.8068 37.078 22.3897 36.2031C20.9331 36.3339 19.4494 36.0949 18.11 35.5086C16.7707 34.9269 15.5801 33.9979 14.6872 32.8434C13.659 31.5086 13.0232 29.8716 12.8924 28.194L29.3164 31.008" fill="url(#paint2_linear)"/>
<path d="M40.2181 18.8171C39.2345 19.9799 38.591 21.4278 38.3842 22.9354C38.1912 24.3602 38.3842 25.8173 38.7611 27.2053C39.138 28.5888 39.6987 29.9218 40.2503 31.2501C40.8019 32.5784 41.3488 33.9114 41.7073 35.304C42.0613 36.6967 42.2221 38.1629 41.9831 39.5786C41.5832 41.9503 40.0711 44.06 38.0992 45.4343C36.1274 46.8086 33.7235 47.4889 31.3243 47.6451C28.2953 47.8428 25.2204 47.2269 22.4994 45.8801L22.5683 60L26.0983 52.9768C30.7635 54.342 35.9803 53.6709 40.1492 51.1751C42.2543 49.9157 44.102 48.2013 45.389 46.1146C46.6805 44.0278 47.393 41.5688 47.2781 39.1236C47.1126 35.635 45.3338 32.4543 43.6332 29.407C41.928 26.3596 40.2135 23.1284 40.1906 19.6352C40.1906 19.364 40.1997 19.0883 40.2181 18.8171" fill="url(#paint3_linear)"/>
<defs>
<linearGradient id="paint0_linear" x1="26.8798" y1="12.11" x2="59.2461" y2="12.11" gradientUnits="userSpaceOnUse">
<stop stop-color="#A93AFF"/>
<stop offset="1" stop-color="#FF81FF"/>
</linearGradient>
<linearGradient id="paint1_linear" x1="17.9879" y1="28.324" x2="17.9879" y2="7.46582" gradientUnits="userSpaceOnUse">
<stop stop-color="#5558FF"/>
<stop offset="1" stop-color="#00C0FF"/>
</linearGradient>
<linearGradient id="paint2_linear" x1="17.8874" y1="37.5425" x2="17.8874" y2="24.0812" gradientUnits="userSpaceOnUse">
<stop stop-color="#5558FF"/>
<stop offset="1" stop-color="#00C0FF"/>
</linearGradient>
<linearGradient id="paint3_linear" x1="34.8947" y1="60" x2="34.8947" y2="18.8171" gradientUnits="userSpaceOnUse">
<stop stop-color="#5558FF"/>
<stop offset="1" stop-color="#00C0FF"/>
</linearGradient>
</defs>
</svg>
