<svg width="48" height="48" viewBox="0 0 48 48" fill="none" xmlns="http://www.w3.org/2000/svg">
<path d="M1.29826 11.0054C1.19748 11.2029 1.0967 11.399 1 11.5965C2.53215 12.4477 6.94747 14.6663 9.04345 15.9805C11.6924 17.6025 15.2728 20.912 15.5547 21.469C12.7996 26.267 14.0498 30.5135 13.7243 30.9656C13.4901 31.3429 11.3247 33.7208 12.0219 34.0721C12.7138 34.4181 13.8142 33.8747 13.9804 33.7684C14.3263 33.556 14.6831 33.2468 14.5333 33.8583C14.2405 35.1086 12.9113 38.1143 14.7458 37.4756C14.9691 37.3475 17.9217 34.0926 18.2786 33.9809C24.1525 35.513 30.7224 34.8103 31.9385 34.241C32.5718 34.2832 34.3641 35.4109 35.3855 35.9489C36.407 36.4814 39.1894 37.816 38.3654 35.3905C38.1094 34.6237 36.2803 32.6666 36.5772 32.5386C37.2309 32.2785 38.8489 33.2141 39.4713 33.3898C41.333 33.9114 41.5836 33.1883 40.4083 31.5975C39.2479 30.0068 39.0736 30.252 38.7059 29.5179C38.4185 28.9268 38.7059 28.2731 38.9183 28.1138C39.2956 27.8264 44.8549 24.7403 46.1583 23.5595C48.0895 21.804 46.1583 19.6127 45.6843 19.3036C41.6789 16.4204 37.566 17.0374 37.5128 16.5797C37.4856 16.0581 37.4965 14.5532 37.427 14.0316C37.028 10.4988 35.3951 11.3881 35.1717 11.3881C33.5388 11.6442 34.1394 14.1433 34.8312 16.4953C34.8844 17.0959 34.262 16.8303 33.8942 16.1971C32.6386 12.829 32.1115 12.8876 31.7656 12.7868C31.4305 12.7119 30.2498 13.431 30.2702 14.7929C30.2756 15.1811 30.7387 17.0333 30.7387 17.6025C29.9679 18.2781 29.9297 19.8102 29.1207 20.3686C26.7646 20.8575 21.1032 19.2042 20.3963 19.1293C17.949 18.6716 16.8799 20.5075 16.4863 20.0662C13.3103 16.4272 8.45783 13.7252 6.3564 13.2567C5.54197 13.081 2.79228 11.8675 1.80217 11.256C1.64282 11.1607 1.46169 11.0912 1.286 11L1.29826 11.0054ZM36.7066 19.4752C36.7338 19.4479 36.7652 19.4861 36.7965 19.5174C37.0307 20.2937 37.2909 21.0332 38.8339 21.2198C39.015 21.2416 37.9773 21.8476 37.265 21.4758C36.6153 21.0822 36.5568 19.6509 36.7066 19.4752ZM40.7079 23.3852C40.8509 23.3634 40.953 23.3689 41.0538 23.3852C41.4311 23.4806 38.3164 25.104 38.074 24.8806C37.9255 24.7376 39.7341 23.5664 40.7133 23.3852H40.7079ZM41.5223 24.4121C41.8464 24.4393 39.7191 26.6416 39.4794 26.4128C39.3038 26.2534 40.8577 24.359 41.5223 24.4121Z" fill="url(#paint0_linear)"/>
<defs>
<linearGradient id="paint0_linear" x1="24" y1="37.5636" x2="24" y2="11" gradientUnits="userSpaceOnUse">
<stop stop-color="#5570FF"/>
<stop offset="1" stop-color="#4DD3FF"/>
</linearGradient>
</defs>
</svg>
