<svg width="128" height="128" viewBox="0 0 128 128" fill="none" xmlns="http://www.w3.org/2000/svg">
<path fill-rule="evenodd" clip-rule="evenodd" d="M45 20.67C44.5291 20.8121 44.0684 20.9512 43.6266 21.0598C31.9799 24.6731 20.5866 32.0065 15.4332 43.4531C9.1399 57.6465 7.59324 73.3398 6.8399 88.6865C6.66505 90.7191 8.1917 92.0798 9.6071 93.3411C9.91877 93.6191 10.225 93.8925 10.5066 94.1665C19.0066 101.793 30.0199 106.533 41.3999 107.48C43.4666 107.76 45.5466 105.953 45.6399 103.887C45.7094 102.706 45.6996 101.519 45.69 100.333C45.6848 99.6971 45.6796 99.0611 45.6866 98.4265C57.6666 101.333 70.3266 101.32 82.3066 98.4465C82.3186 99.1098 82.3172 99.7731 82.3166 100.437C82.3146 101.587 82.3126 102.737 82.3799 103.887C82.4932 105.947 84.5199 107.733 86.5932 107.493C98.5399 106.693 110.1 101.653 118.907 93.5531C119.05 93.4151 119.198 93.2771 119.349 93.1371V93.1358C120.465 92.0958 121.683 90.9591 121.653 89.3265C120.873 72.9865 118.913 56.2998 112.033 41.2731C110.12 36.8331 106.44 33.5198 102.773 30.5198C96.1732 25.1998 88.2732 21.5865 79.9799 19.8998C78.1199 19.5798 76.2332 20.9065 75.7266 22.6931C75.0732 24.7265 76.3999 27.1998 78.5199 27.6465C87.4866 29.6465 96.0399 34.1531 102.253 40.9931C105.255 44.1889 106.534 48.3745 107.791 52.4918C108.092 53.4765 108.391 54.4573 108.713 55.4198C111.947 65.7198 113.44 76.5131 113.56 87.2931C107.18 93.3465 98.9732 97.4065 90.3199 98.9265C90.3199 97.8731 90.3199 96.8265 90.3266 95.7798C96.0132 93.5798 101.407 90.5665 106.12 86.6931C107.92 85.0331 107.56 81.7598 105.453 80.5198C103.887 79.4331 101.753 79.8198 100.38 81.0398C89.9932 88.8131 76.9399 92.8531 63.9866 92.4865C51.2399 92.7731 38.4066 88.8331 28.1666 81.2131C26.8666 80.1131 25.0199 79.4198 23.3932 80.2465C20.9799 81.2398 20.2466 84.7398 22.1199 86.5798C26.7932 90.5665 32.2732 93.4931 37.9399 95.7998C37.9399 96.8531 37.9399 97.8998 37.9466 98.9531C29.2999 97.4131 21.1066 93.4065 14.7132 87.3665C14.7332 74.8198 16.9399 62.2731 21.1799 50.4665L21.2886 50.1478C22.4337 46.7921 23.6193 43.3173 26.1266 40.7131C32.4266 34.3598 40.4932 29.7265 49.2599 27.8065C52.3732 27.3131 53.5466 22.9198 51.0932 20.9398C49.344 19.359 47.0725 20.0445 45 20.67ZM95.3399 40.5932C83.6532 34.8132 70.3332 33.1265 57.4265 34.0665C49.0132 34.6465 40.6998 36.7999 33.0732 40.3932C31.2065 41.1265 30.0798 43.3532 30.7798 45.2732C31.4332 47.5665 34.3465 48.7865 36.4132 47.5865C41.8198 45.0999 47.5665 43.3599 53.4532 42.4932C66.1398 40.8599 79.4599 41.9199 91.1466 47.4132C92.7532 48.3399 94.8999 48.3599 96.2532 46.9599C98.1666 45.2199 97.6999 41.7132 95.3399 40.5932ZM45.5999 56.4665C49.4866 54.6998 54.0066 56.1865 57.0732 58.8531C63.4666 64.2465 63.3266 75.5531 56.6999 80.6998C53.8132 82.9665 49.7932 84.3865 46.2132 82.9665C40.7266 81.2665 36.8132 75.7131 37.0132 69.9798C36.5866 64.2331 40.1599 58.4465 45.5999 56.4665ZM47.6799 63.7931C43.6266 66.3465 43.7732 73.6931 48.2932 75.6531C52.1599 76.6865 54.4866 71.8131 53.8732 68.5865C53.7399 65.6131 50.8599 62.1798 47.6799 63.7931ZM87.3799 59.9531C84.4599 56.8732 79.7999 54.8198 75.6066 56.3531C71.3932 57.6665 67.9866 61.2265 66.8199 65.4799C65.8732 69.5331 66.1066 74.1131 68.4599 77.6731C71.5066 82.5665 78.3332 85.4465 83.6266 82.3798C91.8732 78.5531 93.4999 66.3332 87.3799 59.9531ZM77.9332 75.8931C72.8866 74.2465 72.7999 65.6931 77.6066 63.6865C80.8866 62.7532 83.1866 66.4398 83.2332 69.2998C83.5332 72.3131 81.4799 76.5131 77.9332 75.8931Z" fill="url(#paint0_linear_637_228)" stroke="url(#paint1_linear_637_228)" stroke-width="2"/>
<defs>
<linearGradient id="paint0_linear_637_228" x1="64.24" y1="107.515" x2="64.24" y2="19.852" gradientUnits="userSpaceOnUse">
<stop stop-color="#9000FF"/>
<stop offset="1" stop-color="#FF81FF"/>
</linearGradient>
<linearGradient id="paint1_linear_637_228" x1="64.24" y1="107.515" x2="64.24" y2="19.852" gradientUnits="userSpaceOnUse">
<stop stop-color="#9000FF"/>
<stop offset="1" stop-color="#FF81FF"/>
</linearGradient>
</defs>
</svg>
