<svg width="64" height="64" viewBox="0 0 64 64" fill="none" xmlns="http://www.w3.org/2000/svg">
<path d="M49.0731 53.6H17.3696C15.6861 53.6 14.3213 54.8089 14.3213 56.3C14.3213 57.7912 15.6861 59.0001 17.3696 59.0001H49.0731C50.7567 59.0001 52.1214 57.7912 52.1214 56.3C52.1214 54.8089 50.7567 53.6 49.0731 53.6Z" fill="#56CCF2"/>
<path d="M37.8122 24.5114C35.9051 28.6392 32.7266 31.9577 28.2768 33.5764L32.0909 43.6936C32.8061 45.5552 33.4417 47.4977 32.8856 49.2783C32.3293 51.059 29.7865 51.6255 27.9588 49.683C24.4625 45.879 12.7024 21.9215 11.8276 20.1409C10.9535 18.3602 10 16.9034 10 15.1228C10.0795 12.4518 14.1321 9.69993 16.1186 8.324C18.1052 6.94808 21.9988 5.08656 25.4157 5.00556C28.8326 4.92462 30.2629 5.73399 32.2494 7.02894C35.269 9.05233 37.4145 12.2089 38.2092 15.8511C39.0038 19.4933 38.7654 22.3261 37.8118 24.3495M28.8326 19.9789C28.1174 17.4697 26.6076 15.0416 24.6211 13.423C24.2238 13.0992 23.747 12.6945 23.1907 12.5327C19.5355 11.3186 21.1247 17.5508 21.6809 19.1696C22.2371 20.7883 23.7469 24.1877 25.4157 25.8873C25.813 26.292 26.2103 26.6157 26.6871 26.6967C27.1639 26.7776 28.1174 26.292 28.5147 25.6445C28.912 24.997 28.9915 24.5114 28.9915 23.8638C29.1798 22.5702 29.1258 21.2521 28.8326 19.9789Z" fill="#56CCF2"/>
<path d="M46.6035 49.0477C46.4391 49.7052 46.0281 50.2897 45.3705 50.655C44.7129 51.0203 43.151 51.0203 42.2467 50.3628C41.3425 49.7053 41.1781 48.6094 41.4247 47.7327C41.6713 46.856 42.4933 45.9062 43.6442 45.614C46.0281 44.9565 47.0967 47.2943 46.6035 49.0477Z" fill="#56CCF2"/>
<path d="M44.1825 41.3392C42.8061 40.7802 43.2649 33.1138 44.5649 23.7702C44.9473 21.2148 45.559 19.937 46.2473 19.2982C46.9355 18.6593 49.0003 18.3399 50.2238 18.5795C51.6327 18.798 52.942 19.4677 53.9711 20.4961C54.8887 21.3745 54.9652 22.3328 54.6593 23.5308C54.3534 24.7286 53.2828 27.2842 52.4416 29.1209L50.3004 33.3534C46.1709 41.0198 45.3296 41.8185 44.1825 41.3392Z" fill="#56CCF2"/>
</svg>
