<svg width="64" height="64" viewBox="0 0 64 64" fill="none" xmlns="http://www.w3.org/2000/svg">
<path d="M52.597 31.9396C52.4631 33.5458 50.2822 36.3882 49.235 35.404C51.4081 32.5695 50.4948 28.806 49.3295 25.7274C47.7233 21.4914 46.495 16.7043 43.0622 13.6494C39.897 10.8228 35.2752 12.2873 31.4959 13.2242C27.4647 14.2321 22.8666 10.8464 19.1581 13.4211C16.0874 15.5548 16.552 19.8616 15.5127 23.1606C14.434 26.5463 18.1976 28.7902 20.9848 29.7508C24.5279 30.9712 28.7481 30.5775 31.7243 32.9789C33.362 34.3174 34.4958 36.9944 34.4958 39.4982C27.0002 39.4982 19.3471 36.459 14.6072 31.8373C13.0168 30.2389 15.0324 26.995 11.4893 26.995C8.49737 26.995 5.52905 26.8376 3.32446 28.6721C1.07263 30.546 1.96234 34.1442 3.97796 36.0968C10.5445 42.4901 18.8432 46.6316 27.3623 49.4346C36.2122 52.3478 46.2588 53.3163 54.9905 49.4582C58.9824 47.6867 62.8168 43.4586 61.8484 38.7896C60.9823 34.5772 56.3369 32.8057 52.597 31.9396ZM33.173 15.1375C35.5587 13.5392 39.7946 12.744 41.637 14.9407C43.8101 17.5389 37.9444 18.8774 36.1256 17.5626C37.1491 17.3106 39.3301 15.3029 36.8342 15.0666C35.5508 14.9092 34.2517 15.0588 33.173 15.1375ZM28.6457 22.1843C25.6302 21.8458 22.9925 25.3416 20.1738 22.5465C18.5597 20.9482 18.7802 17.1925 21.4178 19.2947C24.0397 21.3812 28.5985 17.7358 30.5511 20.8379C31.2755 21.9717 29.5906 22.2945 28.6457 22.1843Z" fill="url(#paint0_linear_674_180)"/>
<defs>
<linearGradient id="paint0_linear_674_180" x1="32" y1="51.9991" x2="32" y2="12" gradientUnits="userSpaceOnUse">
<stop stop-color="#E80058"/>
<stop offset="0.9997" stop-color="#FF001D"/>
<stop offset="0.9998" stop-color="#FF867E"/>
</linearGradient>
</defs>
</svg>
