<svg width="64" height="64" viewBox="0 0 64 64" fill="none" xmlns="http://www.w3.org/2000/svg">
<path d="M39.1053 4V20.8L53.3158 12.4L39.1053 4ZM33.4211 6.8C28.2405 6.80126 23.1824 8.35223 18.9162 11.2477C14.65 14.1431 11.3768 18.2465 9.5296 23.0148L12.0275 24.4914C13.5995 20.1388 16.499 16.3714 20.3289 13.7056C24.1588 11.0397 28.7317 9.60567 33.4211 9.6C34.3717 9.60703 35.3209 9.67278 36.2632 9.79688V6.98594C35.32 6.872 34.3712 6.80992 33.4211 6.8ZM33.4211 15.2C29.7061 15.2007 26.093 16.3966 23.1312 18.6058C20.1694 20.815 18.0209 23.9166 17.0123 27.4391L19.5658 28.943C20.2706 25.8399 22.0265 23.0657 24.5448 21.0768C27.063 19.0879 30.1935 18.0028 33.4211 18C34.3757 18.0005 35.3279 18.0958 36.2632 18.2844V15.4406C35.3243 15.2824 34.3736 15.2019 33.4211 15.2ZM53.0327 15.8289L50.5403 17.3055C54.1512 21.3754 56.1464 26.5945 56.1579 32C56.1537 37.4072 54.1643 42.6303 50.5569 46.7055L53.016 48.1602C56.8729 43.6316 58.991 37.9114 59 32C58.9983 26.0868 56.886 20.3626 53.0327 15.8289ZM45.5777 20.2367L43.052 21.7297C44.4928 23.038 45.6434 24.6258 46.4315 26.3932C47.2197 28.1606 47.6282 30.0695 47.6316 32C47.6289 33.93 47.2212 35.8387 46.4341 37.6061C45.647 39.3735 44.4974 40.9615 43.0576 42.2703L45.5833 43.7687C48.7157 40.6287 50.4718 36.4027 50.4737 32C50.4689 27.5984 48.7108 23.3745 45.5777 20.2367ZM5 23.6V40.4L19.2105 32L5 23.6ZM19.5713 35.0516L17.0234 36.5555C18.0305 40.0771 20.1769 43.1786 23.1365 45.3887C26.0962 47.5988 29.7073 48.7965 33.4211 48.8C34.3739 48.7945 35.3246 48.7104 36.2632 48.5484V45.7047C35.3283 45.897 34.3761 45.9959 33.4211 46C30.1937 45.9957 27.0639 44.9093 24.5467 42.9194C22.0295 40.9295 20.2748 38.1547 19.5713 35.0516ZM12.022 39.5141L9.55181 40.9742C11.3958 45.7411 14.6649 49.8444 18.9269 52.7416C23.1889 55.6388 28.243 57.1935 33.4211 57.2C34.3709 57.1955 35.3197 57.1389 36.2632 57.0305V54.1977C35.321 54.3236 34.3718 54.3912 33.4211 54.4C28.7314 54.3959 24.1578 52.9632 20.3268 50.2982C16.4959 47.6333 13.5951 43.8665 12.022 39.5141ZM39.1053 43.2V60L53.3158 51.6L39.1053 43.2Z" fill="url(#paint0_linear)" stroke="url(#paint1_linear)" stroke-width="2"/>
<defs>
<linearGradient id="paint0_linear" x1="32" y1="4" x2="32" y2="59.9999" gradientUnits="userSpaceOnUse">
<stop stop-color="#BAFA52"/>
<stop offset="1" stop-color="#3F8F5B"/>
</linearGradient>
<linearGradient id="paint1_linear" x1="32" y1="4" x2="32" y2="59.9999" gradientUnits="userSpaceOnUse">
<stop stop-color="#BAFA52"/>
<stop offset="1" stop-color="#3F8F5B"/>
</linearGradient>
</defs>
</svg>
