<svg width="128" height="128" viewBox="0 0 128 128" fill="none" xmlns="http://www.w3.org/2000/svg">
<path d="M6.06707 23.2009C6.41312 14.1319 14.4755 6.23346 23.5541 6.08623C32.4191 5.99054 41.284 6.07887 50.1416 6.04943C47.896 8.79514 45.7755 11.6513 43.9421 14.6988C37.2418 14.7503 30.5341 14.6178 23.8339 14.7356C19.3425 14.8534 15.2486 18.5708 14.7995 23.0464C14.4461 34.3311 14.9247 45.6378 14.586 56.9225C14.4167 59.8227 11.2432 61.1699 8.69564 60.5736C7.18624 59.6461 5.90508 58.1002 6.03025 56.2305C6.02289 45.2255 5.97135 34.2132 6.06707 23.2009Z" fill="url(#paint0_linear)"/>
<path d="M50.1416 6.04943C56.0468 6.04943 61.9518 6.04207 67.8569 6.04943C65.7732 8.92028 63.6601 11.7764 61.6353 14.6988C55.7375 14.7061 49.8398 14.6915 43.9421 14.6988C45.7755 11.6513 47.896 8.79514 50.1416 6.04943Z" fill="url(#paint1_linear)"/>
<path d="M67.8569 6.04943C74.0197 6.04943 80.1898 6.04211 86.3527 6.05682C84.4015 8.92032 82.2 11.6219 80.5727 14.6915C74.2627 14.7135 67.9453 14.6914 61.6353 14.6988C63.6601 11.7764 65.7732 8.92028 67.8569 6.04943Z" fill="url(#paint2_linear)"/>
<path d="M86.3527 6.05682C91.7423 6.02738 97.132 6.07893 102.522 6.02004C100.548 8.83937 98.5605 11.6514 96.948 14.6915C91.4847 14.7063 86.0287 14.6989 80.5727 14.6915C82.2 11.6219 84.4015 8.92032 86.3527 6.05682Z" fill="url(#paint3_linear)"/>
<path d="M102.522 6.02004C107.889 5.76977 113.191 7.87503 116.968 11.6808C114.995 13.8817 113.198 16.2446 111.623 18.7475C111.386 18.5046 110.908 18.0187 110.665 17.7758C107.241 13.764 101.601 14.7871 96.948 14.6915C98.5605 11.6514 100.548 8.83937 102.522 6.02004Z" fill="url(#paint4_linear)"/>
<path d="M87.8841 26.3001C88.6719 25.2474 90.093 25.4387 91.249 25.3357C94.2384 25.3284 97.2278 25.2326 100.195 24.8793C101.888 25.321 102.846 26.8816 103.516 28.3685C103.214 30.4444 102.345 32.9398 99.9447 33.2858C94.312 33.6833 88.6425 33.3299 82.9951 33.4478C84.5266 31.0038 85.8887 28.4127 87.8841 26.3001Z" fill="url(#paint5_linear)"/>
<path d="M111.623 18.7475C113.198 16.2446 114.995 13.8817 116.968 11.6808C118.559 13.5578 119.994 15.6041 120.884 17.9156C122.431 22.5531 121.901 27.4778 121.953 32.2773C118.352 35.2879 116.364 39.6458 113.301 43.1276C113.279 36.9148 113.323 30.7019 113.286 24.4965C113.382 22.4427 112.55 20.5289 111.623 18.7475Z" fill="url(#paint6_linear)"/>
<path d="M50.4141 26.3442C51.8499 24.3788 54.5005 24.7174 56.6285 24.6953C71.1482 24.8425 85.69 24.4377 100.195 24.8793C97.2278 25.2326 94.2384 25.3284 91.249 25.3357C90.093 25.4387 88.6719 25.2474 87.8841 26.3001C85.8887 28.4127 84.5266 31.0038 82.9951 33.4478C72.8931 33.3889 62.7765 33.5655 52.6745 33.3521C49.7441 32.6085 48.4335 28.6557 50.4141 26.3442Z" fill="url(#paint7_linear)"/>
<path d="M113.301 43.1276C116.364 39.6458 118.352 35.2879 121.953 32.2773C121.975 40.6323 121.982 48.9872 121.96 57.342C118.441 60.4043 116.129 64.4971 113.293 68.1409C113.301 59.8007 113.286 51.4678 113.301 43.1276Z" fill="url(#paint8_linear)"/>
<path d="M69.4989 50.6213C65.9868 49.0239 65.9646 43.3411 69.8523 42.259C75.5585 41.707 81.3311 42.1707 87.0668 42.0235C85.2262 44.703 83.6579 47.6621 81.206 49.8411C77.3699 50.6287 73.3571 49.7822 69.4989 50.6213Z" fill="url(#paint9_linear)"/>
<path d="M87.0668 42.0235C91.168 42.0751 95.284 41.9131 99.3851 42.0898C101.123 42.1633 102.411 43.5178 103.244 44.9238C103.788 47.5443 102.183 50.6729 99.2673 50.7171C89.6587 50.798 80.0279 50.8274 70.4193 50.6802C70.1836 50.6655 69.7271 50.6361 69.4989 50.6213C73.3571 49.7822 77.3699 50.6287 81.206 49.8411C83.6579 47.6621 85.2262 44.703 87.0668 42.0235Z" fill="url(#paint10_linear)"/>
<path d="M113.293 68.1409C116.129 64.4971 118.441 60.4043 121.96 57.342C121.968 65.1816 121.99 73.0287 121.96 80.8683C118.308 83.5773 116.423 87.8614 113.301 91.0782C113.286 83.43 113.301 75.7892 113.293 68.1409Z" fill="url(#paint11_linear)"/>
<path d="M87.8473 59.4694C91.6687 59.3223 95.5122 59.3738 99.3409 59.4327C102.72 59.4989 104.701 64.1365 102.301 66.573C100.129 69.12 96.3884 67.8685 93.4874 68.1556C90.6231 67.9495 86.846 69.0463 84.9316 66.227C83.0688 63.7831 84.7623 59.7565 87.8473 59.4694Z" fill="url(#paint12_linear)"/>
<path d="M21.2568 61.479C25.5273 60.0362 30.166 60.2055 34.4954 61.3391L34.4144 61.4054C31.0642 63.5917 29.4812 67.8685 25.6377 69.3186C21.9121 70.1651 18.4515 72.3809 16.574 75.7671C14.7259 78.844 14.505 82.6129 15.3223 86.0432C12.3034 89.6428 9.77797 93.6179 6.84015 97.2838C6.59718 96.0692 6.35421 94.8546 6.11122 93.64C6.86961 93.1467 7.62799 92.6535 8.39374 92.1604C6.74443 88.5387 5.77253 84.5489 6.17013 80.5592C6.71499 71.9172 12.9956 64.0333 21.2568 61.479Z" fill="url(#paint13_linear)"/>
<path d="M25.6377 69.3186C29.4812 67.8685 31.0642 63.5917 34.4144 61.4054C37.3449 62.3402 40.0692 63.8714 42.3959 65.8736C43.5665 67.0145 44.6637 68.2365 45.6723 69.5321C43.7948 71.8361 41.689 73.9561 39.2224 75.6345C39.1268 75.4873 38.9279 75.1855 38.8322 75.0382C36.0564 70.7099 30.6741 68.5089 25.6377 69.3186Z" fill="url(#paint14_linear)"/>
<path d="M6.84015 97.2838C9.77797 93.6179 12.3034 89.6428 15.3223 86.0432C16.2942 88.7226 17.9067 91.1739 20.2408 92.8522C21.7354 93.8534 23.3847 94.6042 25.115 95.0974C23.2816 97.5046 21.5955 100.022 20.145 102.68C18.216 101.892 16.4194 100.817 14.6669 99.7055C14.6523 102.783 14.4829 106.021 16.0512 108.803C13.4079 110.431 11.8912 113.169 10.5805 115.878C8.03296 112.735 6.21432 108.899 6.06706 104.807C5.97134 101.082 5.97132 97.3574 6.11122 93.64C6.35421 94.8546 6.59718 96.0692 6.84015 97.2838Z" fill="url(#paint15_linear)"/>
<path d="M45.6723 69.5321C50.392 76.0025 51.0105 84.9538 47.5131 92.1162C48.4114 92.7419 49.3096 93.3676 50.2006 94.0081C52.5715 95.6937 54.6331 97.7622 56.5695 99.9191C54.0882 101.568 51.9824 103.695 50.2522 106.109C49.6041 105.345 48.9415 104.593 48.2273 103.887C46.3939 101.98 44.244 100.427 42.0056 99.0357C35.9974 103.982 27.427 105.507 20.145 102.68C21.5955 100.022 23.2816 97.5046 25.115 95.0974C29.8199 96.0175 34.9814 94.3908 38.0002 90.5998C41.5344 86.507 41.9541 80.2574 39.2224 75.6345C41.689 73.9561 43.7948 71.8361 45.6723 69.5321Z" fill="url(#paint16_linear)"/>
<path d="M113.301 91.0782C116.423 87.8614 118.308 83.5773 121.96 80.8683C121.931 88.833 122.055 96.7979 121.916 104.763C121.622 113.559 114.044 121.325 105.26 121.877C98.7961 122.128 92.324 121.907 85.8593 121.966C87.6339 118.594 90.8293 116.371 93.0677 113.346C96.8596 113.257 100.666 113.434 104.458 113.257C109.148 113 113.206 108.803 113.264 104.1C113.36 99.7644 113.256 95.4213 113.301 91.0782Z" fill="url(#paint17_linear)"/>
<path d="M50.2522 106.109C51.9824 103.695 54.0882 101.568 56.5695 99.9191C59.7945 103.879 62.3126 108.399 63.7999 113.287C64.9412 113.302 66.0824 113.316 67.2238 113.331C64.8234 116.018 62.2758 118.66 60.7369 121.973C53.86 121.988 46.9904 121.98 40.1134 121.973C41.8215 118.786 44.266 116.121 46.5191 113.324C49.1918 113.331 51.8646 113.331 54.5373 113.309C53.3519 110.777 52.0118 108.296 50.2522 106.109Z" fill="url(#paint18_linear)"/>
<path d="M10.5805 115.878C11.8912 113.169 13.4079 110.431 16.0512 108.803C16.7065 109.599 17.3986 110.372 18.1202 111.101C21.3599 113.817 25.7335 113.338 29.6579 113.338C27.2724 116.379 24.3492 118.933 21.7869 121.811C19.6223 121.45 17.5238 120.736 15.5431 119.794C13.6877 118.771 12.1047 117.336 10.5805 115.878Z" fill="url(#paint19_linear)"/>
<path d="M29.6579 113.338C35.2759 113.316 40.8938 113.324 46.5191 113.324C44.266 116.121 41.8215 118.786 40.1134 121.973C34.0021 121.899 27.8908 122.164 21.7869 121.811C24.3492 118.933 27.2724 116.379 29.6579 113.338Z" fill="url(#paint20_linear)"/>
<path d="M67.2238 113.331C75.8383 113.331 84.453 113.302 93.0677 113.346C90.8293 116.371 87.6339 118.594 85.8593 121.966C77.4803 121.988 69.1086 121.973 60.7369 121.973C62.2758 118.66 64.8234 116.018 67.2238 113.331Z" fill="url(#paint21_linear)"/>
<path d="M50.1416 6.04943C41.284 6.07887 32.4191 5.99054 23.5541 6.08623C14.4755 6.23346 6.41312 14.1319 6.06707 23.2009C5.97135 34.2132 6.02289 45.2255 6.03025 56.2305C5.90508 58.1002 7.18624 59.6461 8.69564 60.5736C11.2432 61.1699 14.4167 59.8227 14.586 56.9225C14.9247 45.6378 14.4461 34.3311 14.7995 23.0464C15.2486 18.5708 19.3425 14.8534 23.8339 14.7356C30.5341 14.6178 37.2418 14.7503 43.9421 14.6988M50.1416 6.04943C47.896 8.79514 45.7755 11.6513 43.9421 14.6988M50.1416 6.04943C56.0468 6.04943 61.9518 6.04207 67.8569 6.04943M43.9421 14.6988C49.8398 14.6915 55.7375 14.7061 61.6353 14.6988M67.8569 6.04943C65.7732 8.92028 63.6601 11.7764 61.6353 14.6988M67.8569 6.04943C74.0197 6.04943 80.1898 6.04211 86.3527 6.05682M61.6353 14.6988C67.9453 14.6914 74.2627 14.7135 80.5727 14.6915M86.3527 6.05682C84.4015 8.92032 82.2 11.6219 80.5727 14.6915M86.3527 6.05682C91.7423 6.02738 97.132 6.07893 102.522 6.02004M80.5727 14.6915C86.0287 14.6989 91.4847 14.7063 96.948 14.6915M102.522 6.02004C100.548 8.83937 98.5605 11.6514 96.948 14.6915M102.522 6.02004C107.889 5.76977 113.191 7.87503 116.968 11.6808M96.948 14.6915C101.601 14.7871 107.241 13.764 110.665 17.7758C110.908 18.0187 111.386 18.5046 111.623 18.7475M116.968 11.6808C114.995 13.8817 113.198 16.2446 111.623 18.7475M116.968 11.6808C118.559 13.5578 119.994 15.6041 120.884 17.9156C122.431 22.5531 121.901 27.4778 121.953 32.2773M111.623 18.7475C112.55 20.5289 113.382 22.4427 113.286 24.4965C113.323 30.7019 113.279 36.9148 113.301 43.1276M100.195 24.8793C97.2278 25.2326 94.2384 25.3284 91.249 25.3357C90.093 25.4387 88.6719 25.2474 87.8841 26.3001C85.8887 28.4127 84.5266 31.0038 82.9951 33.4478M100.195 24.8793C101.888 25.321 102.846 26.8816 103.516 28.3685C103.214 30.4444 102.345 32.9398 99.9447 33.2858C94.312 33.6833 88.6425 33.3299 82.9951 33.4478M100.195 24.8793C85.69 24.4377 71.1482 24.8425 56.6285 24.6953C54.5005 24.7174 51.8499 24.3788 50.4141 26.3442C48.4335 28.6557 49.7441 32.6085 52.6745 33.3521C62.7765 33.5655 72.8931 33.3889 82.9951 33.4478M121.953 32.2773C118.352 35.2879 116.364 39.6458 113.301 43.1276M121.953 32.2773C121.975 40.6323 121.982 48.9872 121.96 57.342M113.301 43.1276C113.286 51.4678 113.301 59.8007 113.293 68.1409M121.96 57.342C118.441 60.4043 116.129 64.4971 113.293 68.1409M121.96 57.342C121.968 65.1816 121.99 73.0287 121.96 80.8683M113.293 68.1409C113.301 75.7892 113.286 83.43 113.301 91.0782M69.4989 50.6213C65.9868 49.0239 65.9646 43.3411 69.8523 42.259C75.5585 41.707 81.3311 42.1707 87.0668 42.0235M69.4989 50.6213C73.3571 49.7822 77.3699 50.6287 81.206 49.8411C83.6579 47.6621 85.2262 44.703 87.0668 42.0235M69.4989 50.6213C69.7271 50.6361 70.1836 50.6655 70.4193 50.6802C80.0279 50.8274 89.6587 50.798 99.2673 50.7171C102.183 50.6729 103.788 47.5443 103.244 44.9238C102.411 43.5178 101.123 42.1633 99.3851 42.0898C95.284 41.9131 91.168 42.0751 87.0668 42.0235M121.96 80.8683C118.308 83.5773 116.423 87.8614 113.301 91.0782M121.96 80.8683C121.931 88.833 122.055 96.7979 121.916 104.763C121.622 113.559 114.044 121.325 105.26 121.877C98.7961 122.128 92.324 121.907 85.8593 121.966M113.301 91.0782C113.256 95.4213 113.36 99.7644 113.264 104.1C113.206 108.803 109.148 113 104.458 113.257C100.666 113.434 96.8596 113.257 93.0677 113.346M34.4144 61.4054L34.4954 61.3391C30.166 60.2055 25.5273 60.0362 21.2568 61.479C12.9956 64.0333 6.71499 71.9172 6.17013 80.5592C5.77253 84.5489 6.74443 88.5387 8.39374 92.1604C7.62799 92.6535 6.86961 93.1467 6.11122 93.64M34.4144 61.4054C31.0642 63.5917 29.4812 67.8685 25.6377 69.3186M34.4144 61.4054C37.3449 62.3402 40.0692 63.8714 42.3959 65.8736C43.5665 67.0145 44.6637 68.2365 45.6723 69.5321M25.6377 69.3186C21.9121 70.1651 18.4515 72.3809 16.574 75.7671C14.7259 78.844 14.505 82.6129 15.3223 86.0432M25.6377 69.3186C30.6741 68.5089 36.0564 70.7099 38.8322 75.0382C38.9279 75.1855 39.1268 75.4873 39.2224 75.6345M15.3223 86.0432C12.3034 89.6428 9.77797 93.6179 6.84015 97.2838C6.59718 96.0692 6.35421 94.8546 6.11122 93.64M15.3223 86.0432C16.2942 88.7226 17.9067 91.1739 20.2408 92.8522C21.7354 93.8534 23.3847 94.6042 25.115 95.0974M6.11122 93.64C5.97132 97.3574 5.97134 101.082 6.06706 104.807C6.21432 108.899 8.03296 112.735 10.5805 115.878M45.6723 69.5321C43.7948 71.8361 41.689 73.9561 39.2224 75.6345M45.6723 69.5321C50.392 76.0025 51.0105 84.9538 47.5131 92.1162C48.4114 92.7419 49.3096 93.3676 50.2006 94.0081C52.5715 95.6937 54.6331 97.7622 56.5695 99.9191M39.2224 75.6345C41.9541 80.2574 41.5344 86.507 38.0002 90.5998C34.9814 94.3908 29.8199 96.0175 25.115 95.0974M25.115 95.0974C23.2816 97.5046 21.5955 100.022 20.145 102.68M20.145 102.68C18.216 101.892 16.4194 100.817 14.6669 99.7055C14.6523 102.783 14.4829 106.021 16.0512 108.803M20.145 102.68C27.427 105.507 35.9974 103.982 42.0056 99.0357C44.244 100.427 46.3939 101.98 48.2273 103.887C48.9415 104.593 49.6041 105.345 50.2522 106.109M16.0512 108.803C13.4079 110.431 11.8912 113.169 10.5805 115.878M16.0512 108.803C16.7065 109.599 17.3986 110.372 18.1202 111.101C21.3599 113.817 25.7335 113.338 29.6579 113.338M10.5805 115.878C12.1047 117.336 13.6877 118.771 15.5431 119.794C17.5238 120.736 19.6223 121.45 21.7869 121.811M56.5695 99.9191C54.0882 101.568 51.9824 103.695 50.2522 106.109M56.5695 99.9191C59.7945 103.879 62.3126 108.399 63.7999 113.287C64.9412 113.302 66.0824 113.316 67.2238 113.331M50.2522 106.109C52.0118 108.296 53.3519 110.777 54.5373 113.309C51.8646 113.331 49.1918 113.331 46.5191 113.324M85.8593 121.966C87.6339 118.594 90.8293 116.371 93.0677 113.346M85.8593 121.966C77.4803 121.988 69.1086 121.973 60.7369 121.973M93.0677 113.346C84.453 113.302 75.8383 113.331 67.2238 113.331M67.2238 113.331C64.8234 116.018 62.2758 118.66 60.7369 121.973M60.7369 121.973C53.86 121.988 46.9904 121.98 40.1134 121.973M40.1134 121.973C41.8215 118.786 44.266 116.121 46.5191 113.324M40.1134 121.973C34.0021 121.899 27.8908 122.164 21.7869 121.811M46.5191 113.324C40.8938 113.324 35.2759 113.316 29.6579 113.338M29.6579 113.338C27.2724 116.379 24.3492 118.933 21.7869 121.811M87.8473 59.4694C91.6687 59.3223 95.5122 59.3738 99.3409 59.4327C102.72 59.4989 104.701 64.1365 102.301 66.573C100.129 69.12 96.3884 67.8685 93.4874 68.1556C90.6231 67.9495 86.846 69.0463 84.9316 66.227C83.0688 63.7831 84.7623 59.7565 87.8473 59.4694Z" stroke="url(#paint22_linear)" stroke-width="2"/>
<defs>
<linearGradient id="paint0_linear" x1="58.9558" y1="118.885" x2="72.0615" y2="14.0666" gradientUnits="userSpaceOnUse">
<stop stop-color="#8D01A2"/>
<stop offset="1" stop-color="#FF33DB"/>
</linearGradient>
<linearGradient id="paint1_linear" x1="58.9558" y1="118.885" x2="72.0615" y2="14.0666" gradientUnits="userSpaceOnUse">
<stop stop-color="#8D01A2"/>
<stop offset="1" stop-color="#FF33DB"/>
</linearGradient>
<linearGradient id="paint2_linear" x1="58.9558" y1="118.885" x2="72.0615" y2="14.0666" gradientUnits="userSpaceOnUse">
<stop stop-color="#8D01A2"/>
<stop offset="1" stop-color="#FF33DB"/>
</linearGradient>
<linearGradient id="paint3_linear" x1="58.9558" y1="118.885" x2="72.0615" y2="14.0666" gradientUnits="userSpaceOnUse">
<stop stop-color="#8D01A2"/>
<stop offset="1" stop-color="#FF33DB"/>
</linearGradient>
<linearGradient id="paint4_linear" x1="58.9558" y1="118.885" x2="72.0615" y2="14.0666" gradientUnits="userSpaceOnUse">
<stop stop-color="#8D01A2"/>
<stop offset="1" stop-color="#FF33DB"/>
</linearGradient>
<linearGradient id="paint5_linear" x1="58.9558" y1="118.885" x2="72.0615" y2="14.0666" gradientUnits="userSpaceOnUse">
<stop stop-color="#8D01A2"/>
<stop offset="1" stop-color="#FF33DB"/>
</linearGradient>
<linearGradient id="paint6_linear" x1="58.9558" y1="118.885" x2="72.0615" y2="14.0666" gradientUnits="userSpaceOnUse">
<stop stop-color="#8D01A2"/>
<stop offset="1" stop-color="#FF33DB"/>
</linearGradient>
<linearGradient id="paint7_linear" x1="58.9558" y1="118.885" x2="72.0615" y2="14.0666" gradientUnits="userSpaceOnUse">
<stop stop-color="#8D01A2"/>
<stop offset="1" stop-color="#FF33DB"/>
</linearGradient>
<linearGradient id="paint8_linear" x1="58.9558" y1="118.885" x2="72.0615" y2="14.0666" gradientUnits="userSpaceOnUse">
<stop stop-color="#8D01A2"/>
<stop offset="1" stop-color="#FF33DB"/>
</linearGradient>
<linearGradient id="paint9_linear" x1="58.9558" y1="118.885" x2="72.0615" y2="14.0666" gradientUnits="userSpaceOnUse">
<stop stop-color="#8D01A2"/>
<stop offset="1" stop-color="#FF33DB"/>
</linearGradient>
<linearGradient id="paint10_linear" x1="58.9558" y1="118.885" x2="72.0615" y2="14.0666" gradientUnits="userSpaceOnUse">
<stop stop-color="#8D01A2"/>
<stop offset="1" stop-color="#FF33DB"/>
</linearGradient>
<linearGradient id="paint11_linear" x1="58.9558" y1="118.885" x2="72.0615" y2="14.0666" gradientUnits="userSpaceOnUse">
<stop stop-color="#8D01A2"/>
<stop offset="1" stop-color="#FF33DB"/>
</linearGradient>
<linearGradient id="paint12_linear" x1="58.9558" y1="118.885" x2="72.0615" y2="14.0666" gradientUnits="userSpaceOnUse">
<stop stop-color="#8D01A2"/>
<stop offset="1" stop-color="#FF33DB"/>
</linearGradient>
<linearGradient id="paint13_linear" x1="58.9558" y1="118.885" x2="72.0615" y2="14.0666" gradientUnits="userSpaceOnUse">
<stop stop-color="#8D01A2"/>
<stop offset="1" stop-color="#FF33DB"/>
</linearGradient>
<linearGradient id="paint14_linear" x1="58.9558" y1="118.885" x2="72.0615" y2="14.0666" gradientUnits="userSpaceOnUse">
<stop stop-color="#8D01A2"/>
<stop offset="1" stop-color="#FF33DB"/>
</linearGradient>
<linearGradient id="paint15_linear" x1="58.9558" y1="118.885" x2="72.0615" y2="14.0666" gradientUnits="userSpaceOnUse">
<stop stop-color="#8D01A2"/>
<stop offset="1" stop-color="#FF33DB"/>
</linearGradient>
<linearGradient id="paint16_linear" x1="58.9558" y1="118.885" x2="72.0615" y2="14.0666" gradientUnits="userSpaceOnUse">
<stop stop-color="#8D01A2"/>
<stop offset="1" stop-color="#FF33DB"/>
</linearGradient>
<linearGradient id="paint17_linear" x1="58.9558" y1="118.885" x2="72.0615" y2="14.0666" gradientUnits="userSpaceOnUse">
<stop stop-color="#8D01A2"/>
<stop offset="1" stop-color="#FF33DB"/>
</linearGradient>
<linearGradient id="paint18_linear" x1="58.9558" y1="118.885" x2="72.0615" y2="14.0666" gradientUnits="userSpaceOnUse">
<stop stop-color="#8D01A2"/>
<stop offset="1" stop-color="#FF33DB"/>
</linearGradient>
<linearGradient id="paint19_linear" x1="58.9558" y1="118.885" x2="72.0615" y2="14.0666" gradientUnits="userSpaceOnUse">
<stop stop-color="#8D01A2"/>
<stop offset="1" stop-color="#FF33DB"/>
</linearGradient>
<linearGradient id="paint20_linear" x1="58.9558" y1="118.885" x2="72.0615" y2="14.0666" gradientUnits="userSpaceOnUse">
<stop stop-color="#8D01A2"/>
<stop offset="1" stop-color="#FF33DB"/>
</linearGradient>
<linearGradient id="paint21_linear" x1="58.9558" y1="118.885" x2="72.0615" y2="14.0666" gradientUnits="userSpaceOnUse">
<stop stop-color="#8D01A2"/>
<stop offset="1" stop-color="#FF33DB"/>
</linearGradient>
<linearGradient id="paint22_linear" x1="58.9558" y1="118.885" x2="72.0615" y2="14.0666" gradientUnits="userSpaceOnUse">
<stop stop-color="#8D01A2"/>
<stop offset="1" stop-color="#FF33DB"/>
</linearGradient>
</defs>
</svg>
