<svg width="64" height="64" viewBox="0 0 64 64" fill="none" xmlns="http://www.w3.org/2000/svg">
<path d="M32.0002 4C24.2683 4 18.0002 10.268 18.0002 18C18.0076 22.3671 20.0525 26.4807 23.5295 29.123C13.7371 40.4295 10.1057 53.6387 10.1057 53.6387C9.74903 54.9017 10.3174 56.243 11.4729 56.8652C11.4729 56.8652 13.2461 57.7771 16.5237 58.5293C19.8013 59.2815 24.8136 60 32.0002 60C39.1869 60 44.1992 59.2815 47.4768 58.5293C50.7544 57.7771 52.5276 56.8652 52.5276 56.8652C53.6831 56.243 54.2514 54.9017 53.8948 53.6387C53.8948 53.6387 50.2652 40.434 40.4768 29.1289C43.9533 26.4841 45.9961 22.3682 46.0002 18C46.0002 10.268 39.7322 4 32.0002 4Z" stroke="url(#paint0_linear)" stroke-width="6"/>
<path d="M31.5 10C24.5 10 24.5 18 24.5 18C24.5 19.3333 24.5 26 32.2 26C36.6253 26 38.1959 24.4464 38.4587 24.1454C38.4867 24.1133 38.5 24.0723 38.5 24.0296V22.0493C38.5 21.8404 38.1051 21.6895 37.9383 21.8153C37.1949 22.3759 35.5632 23.1429 32.2 23.1429C28.7 23.1429 28.7 19.3333 28.7 19.3333H38.3C38.4105 19.3333 38.5 19.2438 38.5 19.1333V16.4762C38.5 16.4762 38.5 10 31.5 10ZM31.5 12.6667C34.3 12.6667 34.5 16.4762 34.5 16.4762H28.5C28.5 16.4762 28.7 12.6667 31.5 12.6667Z" fill="url(#paint1_linear)" stroke="url(#paint2_linear)"/>
<defs>
<linearGradient id="paint0_linear" x1="32.0002" y1="60" x2="32.0002" y2="4" gradientUnits="userSpaceOnUse">
<stop stop-color="#5558FF"/>
<stop offset="1" stop-color="#00C0FF"/>
</linearGradient>
<linearGradient id="paint1_linear" x1="31.5" y1="26" x2="31.5" y2="10" gradientUnits="userSpaceOnUse">
<stop stop-color="#5570FF"/>
<stop offset="1" stop-color="#4DD3FF"/>
</linearGradient>
<linearGradient id="paint2_linear" x1="31.5" y1="26" x2="31.5" y2="10" gradientUnits="userSpaceOnUse">
<stop stop-color="#5570FF"/>
<stop offset="1" stop-color="#4DD3FF"/>
</linearGradient>
</defs>
</svg>
