<svg width="16" height="16" viewBox="0 0 16 16" fill="none" xmlns="http://www.w3.org/2000/svg">
<path d="M6.88005 1C6.41613 1 6.04036 1.37576 6.04036 1.83968C6.04036 2.3036 6.41613 2.6805 6.88005 2.6805C9.04503 2.6805 10.8005 4.43482 10.8005 6.59977C10.8005 7.0637 11.1762 7.43945 11.6401 7.43945C12.1041 7.43945 12.4798 7.0637 12.4798 6.59977C12.4798 3.50698 9.97282 1 6.88005 1ZM6.59977 3.52018C3.50698 3.52019 1 6.02715 1 9.11995C1 9.58388 1.37576 9.95964 1.83968 9.95964C2.3036 9.95964 2.6805 9.58388 2.6805 9.11995C2.6805 6.95497 4.43482 5.19954 6.59977 5.19954C7.0637 5.19954 7.43945 4.82378 7.43945 4.35986C7.43945 3.89594 7.0637 3.52018 6.59977 3.52018V3.52018ZM14.1603 6.04036C13.6964 6.04036 13.3195 6.41613 13.3195 6.88005C13.3195 9.04503 11.5652 10.8005 9.40023 10.8005C8.9363 10.8005 8.56055 11.1762 8.56055 11.6401C8.56055 12.1041 8.9363 12.4798 9.40023 12.4798C12.493 12.4798 15 9.97282 15 6.88005C15 6.41613 14.6242 6.04036 14.1603 6.04036V6.04036ZM4.35986 8.56055C3.89594 8.56055 3.52018 8.9363 3.52018 9.40023C3.52018 12.493 6.02715 15 9.11995 15C9.58388 15 9.95964 14.6242 9.95964 14.1603C9.95964 13.6964 9.58388 13.3195 9.11995 13.3195C6.95497 13.3195 5.19954 11.5652 5.19954 9.40023C5.19954 8.9363 4.82378 8.56055 4.35986 8.56055V8.56055Z" fill="url(#paint0_linear)"/>
<defs>
<linearGradient id="paint0_linear" x1="8" y1="15" x2="8" y2="1" gradientUnits="userSpaceOnUse">
<stop stop-color="#00B59C"/>
<stop offset="1" stop-color="#9CFFAC"/>
</linearGradient>
</defs>
</svg>
