<svg id="Capa_1" enable-background="new 0 0 512 512" height="512" viewBox="0 0 512 512" width="512" xmlns="http://www.w3.org/2000/svg" xmlns:xlink="http://www.w3.org/1999/xlink"><linearGradient id="SVGID_1_" gradientUnits="userSpaceOnUse" x1="256" x2="256" y1="512" y2="0"><stop offset="0" stop-color="#5558ff"/><stop offset="1" stop-color="#00c0ff"/></linearGradient><g><g><path d="m406 242h-195v-107c0-24.813 20.187-45 45-45s45 20.187 45 45v62c0 8.284 6.716 15 15 15h60c8.284 0 15-6.716 15-15v-62c0-74.439-60.561-135-135-135s-135 60.561-135 135v107h-15c-8.284 0-15 6.716-15 15v90c0 90.981 74.019 165 165 165s165-74.019 165-165v-90c0-8.284-6.716-15-15-15zm-255-107c0-57.897 47.103-105 105-105s105 47.103 105 105v47h-30v-47c0-41.355-33.645-75-75-75s-75 33.645-75 75v107h-30zm240 212c0 74.439-60.561 135-135 135s-135-60.561-135-135v-75h270zm-150 42.42v47.58c0 8.284 6.716 15 15 15s15-6.716 15-15v-47.58c17.459-6.192 30-22.865 30-42.42 0-24.813-20.187-45-45-45s-45 20.187-45 45c0 19.555 12.541 36.228 30 42.42zm15-57.42c8.271 0 15 6.729 15 15s-6.729 15-15 15-15-6.729-15-15 6.729-15 15-15z" fill="url(#SVGID_1_)"/></g></g></svg>