<svg width="128" height="128" viewBox="0 0 128 128" fill="none" xmlns="http://www.w3.org/2000/svg">
<path d="M103.664 21.1263C91.1898 21.1263 79.1139 17.5406 68.7343 10.7572L65.3616 8.55274C64.2374 7.81575 62.7731 7.81575 61.6488 8.55274L58.2763 10.7572C47.8967 17.5408 35.8211 21.1263 23.3466 21.1263C21.4968 21.1263 20 22.5939 20 24.4075V62.0886C20 88.3287 37.0597 111.534 62.4464 119.83C62.7896 119.943 63.149 120 63.5053 120C63.8616 120 64.2211 119.942 64.5642 119.83C89.9512 111.534 107.011 88.3287 107.011 62.0886V24.4075C107.011 22.5939 105.514 21.1263 103.664 21.1263ZM100.318 62.0886C100.318 85.1341 85.5718 105.555 63.5053 113.248C41.4391 105.555 26.6932 85.1341 26.6932 62.0886V27.612C39.2983 27.0225 51.4394 23.1132 61.9888 16.2174L63.5053 15.2274L65.0218 16.2174C75.5714 23.1129 87.7124 27.0225 100.318 27.612V62.0886ZM55.8318 65.1809C54.5245 63.8992 52.4066 63.8992 51.0994 65.1809C49.7922 66.4624 49.7922 68.5392 51.0994 69.8206L57.7926 76.3832C58.4463 77.0241 59.3026 77.3445 60.1586 77.3445C61.0147 77.3445 61.8711 77.0241 62.5245 76.3832L75.911 63.2584C77.2181 61.9766 77.2181 59.9002 75.911 58.6184C74.6038 57.3369 72.4858 57.3369 71.1786 58.6184L60.1584 69.4236L55.8318 65.1809ZM33.3862 64.2196C33.3862 80.5037 46.8967 93.7503 63.5053 93.7503C80.1139 93.7503 93.6246 80.5037 93.6246 64.2196C93.6246 47.9354 80.1139 34.6886 63.5053 34.6886C46.8967 34.6886 33.3862 47.9354 33.3862 64.2196ZM86.9314 64.2196C86.9314 76.8829 76.4213 87.188 63.5053 87.188C50.5896 87.188 40.0795 76.8829 40.0795 64.2196C40.0795 51.556 50.5896 41.2511 63.5053 41.2511C76.4213 41.2511 86.9314 51.5562 86.9314 64.2196Z" fill="url(#paint0_linear_640_211)" stroke="url(#paint1_linear_640_211)" stroke-width="4"/>
<defs>
<linearGradient id="paint0_linear_640_211" x1="104.071" y1="11.2013" x2="52.4791" y2="111.844" gradientUnits="userSpaceOnUse">
<stop stop-color="#FF77E1"/>
<stop offset="1" stop-color="#DF0066"/>
</linearGradient>
<linearGradient id="paint1_linear_640_211" x1="104.071" y1="11.2013" x2="52.4791" y2="111.844" gradientUnits="userSpaceOnUse">
<stop stop-color="#FF77E1"/>
<stop offset="1" stop-color="#DF0066"/>
</linearGradient>
</defs>
</svg>
