<svg width="192" height="192" viewBox="0 0 192 192" fill="none" xmlns="http://www.w3.org/2000/svg">
<path d="M135.426 14.7931C135.397 14.6799 135.355 14.5698 135.315 14.4601C134.544 12.3625 137.155 10.1554 138.931 11.5483C151.749 19.7451 161.075 33.195 164.963 48.1981C165.489 50.2277 168.404 50.4457 168.999 48.4354C169.774 45.8205 170.565 43.2125 171.572 40.6825C171.97 39.2859 174.22 38.9286 174.828 40.4118C181.967 52.8515 185.861 67.1858 185.924 81.6609C185.935 104.386 180.093 127.609 166.756 145.96C154.257 163.802 134.722 175.722 113.89 179.804C92.9527 183.896 70.6964 181.038 51.4655 171.489C32.8523 162.005 17.097 145.732 9.68524 125.498C5.88512 115.007 3.85421 103.758 4.23108 92.5524C4.19967 83.6313 6.72261 75.0351 9.22462 66.6012C10.9728 62.2165 8.08354 57.8642 8.08354 53.4145C6.41811 38.0856 17.0685 23.1313 31.1541 18.8851C31.3153 18.8365 31.4685 18.7643 31.6233 18.6982C33.0471 18.09 35.0568 19.2479 35.0026 20.8811C34.9986 21.0036 34.9916 21.1264 34.9983 21.2488C35.1685 24.3615 35.0952 27.4806 35.068 30.6012C35.057 31.8626 36.2154 32.8064 37.4668 32.6468C40.6412 32.2422 43.8608 32.2031 47.001 31.6992C47.4586 31.6258 47.8689 31.3821 48.1748 31.034C53.9989 24.4057 62.3177 20.1808 71.0733 20.3178C73.1147 20.1879 76.8101 20.2095 76.7368 23.1868C75.5434 30.852 72.7273 38.2357 72.2562 46.02C71.6804 49.9825 74.8943 53.5228 78.506 54.2265C81.856 54.9302 85.4781 55.1359 88.336 57.312C95.5803 62.0324 95.7688 74.3422 88.9746 79.5606C83.4472 83.3932 76.4856 83.6963 70.508 86.4787C69.3887 86.9826 68.8734 87.9948 68.5759 89.1233C68.2266 90.4482 69.4873 91.661 70.8254 91.3662C76.2864 90.1632 81.46 87.8857 86.7029 85.9266C91.6755 84.0211 97.6113 85.3744 101.233 89.4127C106.059 94.5553 106.279 103.563 101.275 108.662C98.6848 111.149 95.8039 113.289 92.7642 115.152C91.1674 116.131 91.512 118.601 93.3694 118.843C99.0099 119.578 104.816 119.277 109.88 116.414C118.747 111.607 123.374 101.354 124.882 91.5239C125.771 83.9128 126.054 76.1069 124.798 68.5175C123.615 61.3287 119.689 55.1467 116.748 48.6616C116.109 47.6331 116.8 45.7276 118.182 45.9767C124.712 46.8232 131.302 48.4438 137.124 51.7024C138.485 52.4638 140.254 51.5973 140.289 50.0387C140.561 38.1113 138.366 26.2796 135.426 14.7931ZM54.2777 45.4653C53.7417 46.5973 52.3422 47.0496 51.2256 46.482C48.2883 44.9888 45.0265 44.1325 41.7716 45.0023C37.198 45.5843 33.2647 48.0819 29.5749 50.7865C28.5812 51.5149 27.1695 51.2027 26.6103 50.1049C25.845 48.6028 25.1018 47.0895 24.3781 45.5668C23.6425 44.019 21.4925 44.049 21.0652 45.7085C20.1225 49.369 20.0821 53.2505 21.3054 56.8898C21.8916 59.6614 23.7655 62.4113 22.7291 65.302C21.7974 68.4634 20.447 71.484 19.5781 74.6778C13.5272 95.3781 17.1703 118.969 29.5233 136.476C38.4949 149.251 51.7482 158.27 65.9436 163.726C85.363 171.067 107.336 170.233 126.504 162.438C141.998 156.148 154.749 143.654 162.548 128.54C170.712 113.473 173.924 96.0364 173.277 78.8703C173.206 76.9685 170.689 76.2884 169.488 77.7646C166.333 81.6423 162.681 85.083 158.779 88.1352C157.435 89.4834 155.021 87.9216 155.064 86.1711C155.066 86.0731 155.071 85.9749 155.067 85.8769C154.669 76.528 155.078 67.1262 153.89 57.8209C153.524 55.8996 152.248 56.1631 152.1 58.1134C151.537 65.5205 149.511 72.7681 147.106 79.7734C146.828 80.5854 146.057 81.1238 145.198 81.1164C144.909 81.114 144.613 81.1115 144.331 81.109C143.653 81.103 143.022 80.7536 142.682 80.1666C142.289 79.4882 141.922 78.7956 141.571 78.0936C140.604 76.1561 137.929 76.7959 137.968 78.9612C138.068 84.644 137.845 90.3263 136.805 95.9195C134.628 107.352 129.216 118.742 119.731 125.476C111.796 131.366 101.61 133.065 92.0629 131.766C80.2741 130.672 69.6033 124.099 61.2365 115.735C60.9204 115.419 60.699 115 60.7385 114.554C60.9715 111.93 64.6182 112.13 66.6504 111.452C66.7664 111.414 66.8836 111.38 67.0038 111.358C75.6497 109.773 84.041 106.352 90.9414 100.702C92.0022 99.8337 91.6971 98.2168 90.3388 98.4031C88.3128 98.6809 86.3141 100.081 84.3492 100.645C84.2575 100.671 84.1673 100.702 84.0794 100.739C76.0054 104.16 67.2597 105.093 58.6428 105.782C58.548 105.789 58.4536 105.805 58.3596 105.82C56.5693 106.105 55.4814 103.976 55.7263 102.361C55.7786 96.9047 55.3389 91.3398 56.4486 85.9591C57.8094 79.5566 63.0968 74.7957 69.1101 73.2097C69.2043 73.1848 69.2967 73.1539 69.3869 73.1172C72.3305 71.9202 75.7291 71.5873 78.6683 70.3597C80.192 69.7234 79.7101 67.836 78.0986 67.4759C72.9766 66.3313 67.9705 64.3745 64.6141 59.9645C60.3033 55.4599 59.1439 49.2896 59.6365 43.2221C59.8006 41.2001 57.4471 39.9908 56.3551 41.7005C55.5858 42.905 54.8939 44.1639 54.2777 45.4653Z" fill="url(#paint0_linear_625_110)"/>
<defs>
<linearGradient id="paint0_linear_625_110" x1="37.1265" y1="161.489" x2="191.906" y2="17.5439" gradientUnits="userSpaceOnUse">
<stop stop-color="#FE0844"/>
<stop offset="1" stop-color="#FEB302"/>
</linearGradient>
</defs>
</svg>
