<svg width="64" height="64" viewBox="0 0 64 64" fill="none" xmlns="http://www.w3.org/2000/svg">
<path d="M56.1071 5H7.89286C6.29518 5 5 6.29518 5 7.89286V56.1071C5 57.7049 6.29518 59 7.89286 59H56.1071C57.7049 59 59 57.7049 59 56.1071V7.89286C59 6.29518 57.7049 5 56.1071 5Z" stroke="url(#paint0_linear_678_365)" stroke-width="6" stroke-linejoin="round"/>
<path d="M38.1907 28.1399H44.3561V35.9912H34.521H34.1575L34.0454 36.337C30.9776 45.8009 25.9401 50.0541 21.723 51.9626C19.6056 52.9209 17.6785 53.2954 16.2839 53.4306C15.5868 53.4982 15.0239 53.5059 14.6383 53.497C14.5893 53.4959 14.5432 53.4945 14.5 53.4929V45.6534C14.7703 45.6613 15.1253 45.654 15.5477 45.6054C16.5325 45.4921 17.8809 45.1548 19.3724 44.2687C22.3637 42.4917 25.8505 38.5581 28.1874 30.0239C31.0462 19.5808 36.3309 14.7306 40.8461 12.4715C43.1126 11.3375 45.2017 10.8483 46.7213 10.6425C47.4808 10.5396 48.0969 10.5077 48.52 10.5013C48.5844 10.5003 48.6444 10.5 48.6997 10.5V18.3837C44.3769 18.6129 41.6372 20.8264 39.9828 23.0094C39.1278 24.1376 38.5609 25.2584 38.2074 26.0967C38.0304 26.5164 37.9062 26.8671 37.8258 27.1149C37.7855 27.2388 37.7562 27.3371 37.7366 27.4056C37.7268 27.4399 37.7194 27.4667 37.7143 27.4856L37.7084 27.5078L37.7068 27.5144L37.7062 27.5165C37.7062 27.5165 37.7059 27.5178 38.1907 27.6399L37.7059 27.5178L37.5491 28.1399H38.1907Z" fill="url(#paint1_linear_678_365)" stroke="url(#paint2_linear_678_365)"/>
<defs>
<linearGradient id="paint0_linear_678_365" x1="32" y1="5" x2="32" y2="59" gradientUnits="userSpaceOnUse">
<stop stop-color="#F75050"/>
<stop offset="1" stop-color="#A00909"/>
</linearGradient>
<linearGradient id="paint1_linear_678_365" x1="31.5998" y1="10" x2="31.5998" y2="54" gradientUnits="userSpaceOnUse">
<stop stop-color="#F75050"/>
<stop offset="1" stop-color="#A00909"/>
</linearGradient>
<linearGradient id="paint2_linear_678_365" x1="31.5998" y1="10" x2="31.5998" y2="54" gradientUnits="userSpaceOnUse">
<stop stop-color="#F75050"/>
<stop offset="1" stop-color="#A00909"/>
</linearGradient>
</defs>
</svg>
