<svg width="24" height="24" viewBox="0 0 24 24" fill="none" xmlns="http://www.w3.org/2000/svg">
<path d="M22.1878 14.0279C22.2845 15.718 21.5211 17.3427 20.1554 18.335L20.9834 19.9597C21.2307 20.4503 21.263 21.0282 21.0479 21.5407C20.8436 22.0532 20.4243 22.4567 19.9081 22.6311L19.0586 22.9037C18.7049 23.0246 18.323 23.0318 17.9651 22.9245C17.6072 22.8172 17.2906 22.6005 17.0586 22.304L14.7789 19.578C13.8219 19.4145 12.9187 19.0001 12.1552 18.3786C11.6176 18.5421 11.0799 18.6294 10.5423 18.6294C9.59602 18.6294 8.64975 18.335 7.85403 17.7679C7.28413 17.9424 6.70347 18.0187 6.11205 18.0078C5.26257 18.0187 4.42383 17.8443 3.63887 17.5172C2.8833 17.1753 2.23769 16.625 1.77568 15.929C1.31367 15.233 1.05386 14.4193 1.02589 13.5808C0.93987 12.7957 1.06891 11.9997 1.40225 11.2801C1.09041 10.4623 1.05815 9.56813 1.32698 8.73942C1.72484 7.70354 2.47755 6.84212 3.41305 6.29692C4.03673 4.45414 5.78946 3.22199 7.71424 3.35284C9.43472 1.71723 12.0692 1.54277 13.9832 2.94939C14.4349 2.82944 14.908 2.76402 15.3811 2.76402C16.8435 2.73131 18.2307 3.38555 19.1447 4.55228C21.3383 5.13019 22.9082 7.11472 22.9942 9.42637C23.048 10.6367 22.7254 11.8253 22.0695 12.8393C22.1447 13.2319 22.1878 13.6244 22.1878 14.0279ZM16.8113 12.4904C17.4242 12.5667 17.9081 13.0356 17.9081 13.6571C17.9081 13.9463 17.7948 14.2237 17.5931 14.4282C17.3915 14.6327 17.118 14.7475 16.8328 14.7475H16.1553C15.8112 15.7289 15.2091 16.5903 14.4133 17.2446C14.6822 17.3427 14.9618 17.3972 15.2413 17.4735C20.7576 17.3972 20.1124 13.9843 20.1124 13.9297C20.0839 13.1807 19.7631 12.4739 19.2207 11.9647C18.6782 11.4555 17.9585 11.1857 17.2199 11.2146C16.9347 11.2146 16.6612 11.0998 16.4595 10.8953C16.2579 10.6908 16.1446 10.4134 16.1446 10.1242C16.1446 9.83504 16.2579 9.55769 16.4595 9.3532C16.6612 9.14871 16.9347 9.03383 17.2199 9.03383C18.5425 9.06654 19.8113 9.56813 20.8006 10.4514C20.8544 10.1351 20.8866 9.80801 20.8866 9.48089C20.8221 8.1288 20.22 6.95116 17.8005 6.72218C16.4564 3.49459 13.0692 5.28285 13.0692 6.28602C13.037 6.53681 13.295 7.07111 13.3381 7.10382C13.6232 7.10382 13.8967 7.2187 14.0984 7.42319C14.3001 7.62768 14.4133 7.90503 14.4133 8.19422C14.4133 8.79394 13.9295 9.28462 13.3381 9.28462C12.7681 9.26281 12.2305 9.04473 11.8004 8.674C11.2842 9.01202 10.6928 9.2192 10.0799 9.28462C9.46698 9.33914 8.96159 8.90298 8.92933 8.30326C8.90952 8.16082 8.91863 8.01578 8.9561 7.87705C8.99357 7.73831 9.05861 7.6088 9.14722 7.49648C9.23584 7.38415 9.34616 7.29138 9.47141 7.22386C9.59666 7.15634 9.73421 7.11549 9.87559 7.10382C10.0476 7.08201 10.8864 6.95116 10.8864 6.26421C10.8864 5.54454 11.1552 4.85759 11.6176 4.31239C10.6283 4.03979 9.56376 4.39962 8.48846 5.71901C6.50991 5.40279 5.70344 5.67539 5.11202 7.80168C4.09049 8.31416 3.55284 8.674 3.31628 9.7644C4.4776 9.52451 5.67118 9.62265 6.77874 10.037C7.31638 10.2442 7.61747 10.8548 7.41316 11.4436C7.20886 12.0106 6.58518 12.2941 6.02603 12.087C5.24106 11.738 4.35932 11.7162 3.55284 12.0215C3.20875 12.3159 3.20875 12.9266 3.20875 13.4063C3.20875 14.2132 3.60661 14.9656 4.28405 15.4018C4.85395 15.6962 5.48838 15.8488 6.1228 15.8379C5.96151 15.5544 5.82172 15.26 5.70344 14.9547C5.61879 14.6746 5.64457 14.372 5.77537 14.1108C5.90617 13.8495 6.13179 13.6499 6.40478 13.5538C6.67776 13.4578 6.97684 13.4728 7.23911 13.5958C7.50137 13.7188 7.70638 13.9401 7.81102 14.2132C8.24114 15.4563 9.33794 16.3068 10.6283 16.4486C12.1015 16.3722 13.4133 15.489 14.0585 14.126C14.3058 12.6213 15.4994 12.4904 16.8113 12.4904ZM18.9619 20.6357L18.2952 19.2182L17.5317 19.3926L18.607 20.7556L18.9619 20.6357V20.6357ZM13.9617 11.2473C13.9711 10.9688 13.8749 10.6972 13.6929 10.4883C13.5109 10.2794 13.257 10.1492 12.9832 10.1242C12.2197 10.0806 11.4778 10.3423 10.9079 10.8548C10.295 11.4872 9.97237 12.3596 10.0046 13.2428C10.0046 13.532 10.1179 13.8093 10.3196 14.0138C10.5212 14.2183 10.7947 14.3332 11.0799 14.3332C11.6928 14.3332 12.1552 13.8425 12.1552 13.2428C12.1552 12.9484 12.2305 12.654 12.4025 12.4141C12.5316 12.305 12.6929 12.2505 12.8649 12.2505C13.4563 12.2832 13.9617 11.8362 13.9617 11.2473Z" fill="url(#paint0_linear)"/>
<defs>
<linearGradient id="paint0_linear" x1="12" y1="2" x2="12" y2="23" gradientUnits="userSpaceOnUse">
<stop stop-color="#00FFE0"/>
<stop offset="1" stop-color="#078AA7"/>
</linearGradient>
</defs>
</svg>
