<svg width="192" height="192" viewBox="0 0 192 192" fill="none" xmlns="http://www.w3.org/2000/svg">
<path d="M56.3798 18.6069C71.2782 10.8581 88.4403 7.71372 105.101 9.47685C122.664 11.2512 139.592 18.6743 152.907 30.3311C167.794 43.2345 178.131 61.3374 181.611 80.8103C185.179 100.193 182.101 120.767 172.834 138.151C161.683 159.354 141.555 175.648 118.438 181.623C114.702 182.869 109.717 181.421 108.847 177.12C108.223 167.147 108.959 157.096 108.491 147.102C108.279 143.867 106.45 141.15 104.487 138.713C101.755 135.681 103.127 130.155 106.974 128.796C110.844 127.404 114.813 126.146 118.259 123.844C127.337 118.454 134.05 107.493 131.15 96.7009C130.559 92.1078 126.333 88.9072 126.121 84.3029C127.158 78.8563 128.251 73.4097 128.474 67.8396C123.545 69.6364 118.204 70.9616 114.133 74.4766C111.725 76.8012 108.301 75.5547 105.491 74.9145C98.3205 73.1402 90.849 73.7466 83.7344 75.4873C80.5228 76.4306 78.2144 73.5332 75.6161 72.253C71.7577 70.3439 67.6651 68.9738 63.5502 67.761C63.7844 73.3311 64.2416 78.89 65.2341 84.3703C65.8697 87.0093 63.9963 89.2104 62.8923 91.4115C59.3684 97.7453 59.3461 105.82 62.725 112.221C66.8845 120.295 74.947 125.663 83.4444 128.201C86.1542 128.819 88.6633 130.941 88.9086 133.872C89.5666 138.78 83.8905 141.329 83.6786 146.124C82.9872 156.164 83.9574 166.282 83.5783 176.345C83.3887 179.568 80.2551 182.151 77.0881 181.904C73.9768 181.982 71.0886 179.321 70.9102 176.187C70.6426 171.482 70.7875 166.765 70.6983 162.049C63.7733 160.769 56.4802 159.825 50.425 155.94C48.0274 154.502 47.0015 151.796 45.6745 149.482C42.251 143.396 37.612 137.949 31.8801 133.951C38.4929 134.153 47.0015 134.614 50.5476 141.262C54.038 148.629 63.1488 150.179 70.453 149.662C70.4641 145.653 71.3228 141.745 72.4937 137.927C61.6768 133.041 52.3876 123.889 48.8861 112.311C45.9532 103.023 47.2022 92.6131 52.0085 84.1681C50.9156 75.4985 50.0904 66.6829 51.1833 57.9796C51.7408 54.2624 55.9226 51.7469 59.4465 53.0159C67.8993 55.217 76.4079 57.7213 84.1024 61.9775C92.1426 60.4165 100.45 60.4165 108.468 62.1122C116.029 57.8448 124.381 55.2731 132.712 53.0046C136.436 51.6683 140.874 54.5544 141.086 58.5523C141.978 66.7952 141.131 75.1504 139.525 83.2585C144.644 91.9169 146.238 102.687 143.138 112.344C139.637 124.001 130.225 133.03 119.452 138.073C122.954 147.326 121.014 157.399 121.516 167.046C136.882 161.352 150.253 150.403 158.873 136.388C168.062 121.665 171.842 103.652 169.366 86.4478C166.991 68.9064 158.103 52.3758 144.878 40.7189C133.782 30.8252 119.676 24.4129 104.967 22.6385C87.2359 20.37 68.7803 24.9744 54.105 35.2274C39.6304 45.2222 28.8692 60.5176 24.4086 77.621C20.8625 90.8163 21.1524 104.955 24.9327 118.061C26.3713 121.654 24.0852 126.191 20.2268 126.809C17.0041 127.584 13.4914 125.472 12.6996 122.227C6.63321 102.08 8.06059 79.7098 16.7364 60.54C24.7543 42.5944 38.9836 27.5573 56.3798 18.6069Z" fill="url(#paint0_linear)"/>
<defs>
<linearGradient id="paint0_linear" x1="96.0283" y1="182.053" x2="96.0283" y2="9" gradientUnits="userSpaceOnUse">
<stop stop-color="#A93AFF"/>
<stop offset="1" stop-color="#FF81FF"/>
</linearGradient>
</defs>
</svg>
