<svg width="128" height="128" viewBox="0 0 128 128" fill="none" xmlns="http://www.w3.org/2000/svg">
<path d="M122.313 34.2588C121.816 32.9399 120.302 32.2696 119.005 32.8318C117.773 33.3507 117.167 34.7561 117.643 35.9886C120 42.2588 121.297 49.0696 121.297 56.1615C121.297 85.2642 99.6106 109.286 71.5241 112.962V86.2156C73.2322 85.8912 74.8754 85.4372 76.4971 84.875V107.362C99.5673 101.762 116.692 80.9615 116.692 56.1615C116.692 36.3129 105.708 19.0156 89.4917 10.0426C88.2592 9.35072 86.6808 9.84802 86.0538 11.1237C85.47 12.3129 85.9241 13.7615 87.07 14.3886C101.751 22.5183 111.697 38.1723 111.697 56.1615C111.697 76.3345 99.1781 93.5885 81.47 100.572V80.6372C84.5403 79.6642 86.8538 76.8102 86.8538 73.394C86.8538 70.5615 85.3835 68.1183 83.1133 66.7994C84.9079 49.6102 92.7349 54.1291 92.7349 48.6588V45.4804C92.7349 37.2642 73.7295 10.4967 64.843 9.86964C64.3025 9.8264 63.7619 9.8264 63.1998 9.86964C54.2917 10.5183 35.2862 37.2642 35.2862 45.4804V48.6804C35.2862 54.1507 43.1349 49.6102 44.9079 66.821C42.616 68.1399 41.1673 70.5831 41.1673 73.4156C41.1673 76.8318 43.4592 79.6858 46.5295 80.6588V100.594C28.8214 93.6318 16.3025 76.3777 16.3025 56.1831C16.3025 38.2156 26.2484 22.5615 40.9295 14.4102C42.0971 13.7615 42.5295 12.3345 41.9457 11.1453C41.3187 9.86964 39.7619 9.37235 38.5079 10.0642C22.2917 19.0372 11.3079 36.3345 11.3079 56.1831C11.3079 80.9831 28.4322 101.762 51.5025 107.383V84.8967C53.1457 85.4372 54.7673 85.8912 56.4754 86.2372V112.983C28.4106 109.307 6.70247 85.2858 6.70247 56.1831C6.70247 49.0913 7.99976 42.2804 10.3565 36.0102C10.8322 34.7561 10.2268 33.3723 8.99436 32.8534C7.69706 32.2913 6.18355 32.9399 5.68625 34.2804C3.1349 41.0913 1.72949 48.4642 1.72949 56.1831C1.72949 89.7183 28.2376 117.07 61.47 118.41V86.8642C62.9403 86.9507 64.7133 86.9723 66.5295 86.8642V118.389C99.7619 117.07 126.27 89.7183 126.27 56.1831C126.27 48.4642 124.865 41.0913 122.313 34.2588ZM79.1133 68.2913C81.9241 68.2913 84.2376 70.5615 84.2376 73.4156C84.2376 76.248 81.9457 78.5399 79.1133 78.5399C76.3025 78.5399 73.989 76.2696 73.989 73.4156C73.989 70.5831 76.2808 68.2913 79.1133 68.2913ZM48.8863 78.5183C46.0322 78.5183 43.7619 76.2048 43.7619 73.394C43.7619 70.5831 46.0322 68.2696 48.8863 68.2696C51.7187 68.2696 54.0106 70.5615 54.0106 73.394C54.0106 76.2048 51.7403 78.5183 48.8863 78.5183Z" fill="url(#paint0_radial)"/>
<defs>
<radialGradient id="paint0_radial" cx="0" cy="0" r="1" gradientUnits="userSpaceOnUse" gradientTransform="translate(64 10) rotate(90) scale(108 107.006)">
<stop stop-color="#BAFA52"/>
<stop offset="0.380208" stop-color="#6CE97A"/>
<stop offset="1" stop-color="#00A3FF"/>
</radialGradient>
</defs>
</svg>
