<svg width="128" height="128" viewBox="0 0 128 128" fill="none" xmlns="http://www.w3.org/2000/svg">
<path fill-rule="evenodd" clip-rule="evenodd" d="M117.333 106.667V24C117.333 21.0453 114.954 18.6666 112 18.6666H15.9998C13.0452 18.6666 10.6665 21.0453 10.6665 24V106.667C10.6665 109.621 13.0452 112 15.9998 112H112C114.954 112 117.333 109.621 117.333 106.667ZM113 40C113 37.7909 111.209 36 109 36H68C65.7909 36 64 37.7909 64 40V104C64 106.209 65.7909 108 68 108H108.1C110.815 108 113 105.859 113 103.2V40ZM31 45.6667C31 44.7462 30.2538 44 29.3333 44H23C21.8954 44 21 44.8954 21 46V52C21 53.1046 21.8954 54 23 54H32.3333C33.4379 54 34.3333 53.1046 34.3333 52V49C34.3333 48.0795 33.5871 47.3333 32.6667 47.3333C31.7462 47.3333 31 46.5871 31 45.6667ZM29.3333 64C30.2538 64 31 64.7462 31 65.6667C31 66.5871 31.7462 67.3333 32.6667 67.3333C33.5871 67.3333 34.3333 68.0795 34.3333 69V72C34.3333 73.1046 33.4379 74 32.3333 74H23C21.8954 74 21 73.1046 21 72V66C21 64.8954 21.8954 64 23 64H29.3333ZM31 85.6667C31 84.7462 30.2538 84 29.3333 84H23C21.8954 84 21 84.8954 21 86V92C21 93.1046 21.8954 94 23 94H32.3333C33.4379 94 34.3333 93.1046 34.3333 92V89C34.3333 88.0795 33.5871 87.3333 32.6667 87.3333C31.7462 87.3333 31 86.5871 31 85.6667Z" fill="url(#paint0_linear_576_94)"/>
<g opacity="0.8">
<path d="M78.3333 44C79.2538 44 80 44.7462 80 45.6667V45.6667C80 46.5871 80.7462 47.3333 81.6667 47.3333V47.3333C82.5871 47.3333 83.3333 48.0795 83.3333 49V52C83.3333 53.1046 82.4379 54 81.3333 54H72C70.8954 54 70 53.1046 70 52V46C70 44.8954 70.8954 44 72 44H78.3333Z" fill="url(#paint1_linear_576_94)"/>
<path d="M78.3333 64C79.2538 64 80 64.7462 80 65.6667V65.6667C80 66.5871 80.7462 67.3333 81.6667 67.3333V67.3333C82.5871 67.3333 83.3333 68.0795 83.3333 69V72C83.3333 73.1046 82.4379 74 81.3333 74H72C70.8954 74 70 73.1046 70 72V66C70 64.8954 70.8954 64 72 64H78.3333Z" fill="url(#paint2_linear_576_94)"/>
<path d="M78.3333 84C79.2538 84 80 84.7462 80 85.6667V85.6667C80 86.5871 80.7462 87.3333 81.6667 87.3333V87.3333C82.5871 87.3333 83.3333 88.0795 83.3333 89V92C83.3333 93.1046 82.4379 94 81.3333 94H72C70.8954 94 70 93.1046 70 92V86C70 84.8954 70.8954 84 72 84H78.3333Z" fill="url(#paint3_linear_576_94)"/>
</g>
<path d="M117.333 32V21.3333C117.333 18.3787 114.954 16 112 16H15.9998C13.0452 16 10.6665 18.3787 10.6665 21.3333V32H117.333Z" fill="url(#paint4_linear_576_94)"/>
<defs>
<linearGradient id="paint0_linear_576_94" x1="10.6821" y1="63.9504" x2="117.351" y2="63.9504" gradientUnits="userSpaceOnUse">
<stop stop-color="#A93AFF"/>
<stop offset="1" stop-color="#FF81FF"/>
</linearGradient>
<linearGradient id="paint1_linear_576_94" x1="69" y1="48.7" x2="81.5" y2="48.7" gradientUnits="userSpaceOnUse">
<stop stop-color="#5570FF"/>
<stop offset="1" stop-color="#4DD3FF"/>
</linearGradient>
<linearGradient id="paint2_linear_576_94" x1="69" y1="68.7" x2="81.5" y2="68.7" gradientUnits="userSpaceOnUse">
<stop stop-color="#5570FF"/>
<stop offset="1" stop-color="#4DD3FF"/>
</linearGradient>
<linearGradient id="paint3_linear_576_94" x1="69" y1="88.7" x2="81.5" y2="88.7" gradientUnits="userSpaceOnUse">
<stop stop-color="#5570FF"/>
<stop offset="1" stop-color="#4DD3FF"/>
</linearGradient>
<linearGradient id="paint4_linear_576_94" x1="63.9998" y1="32" x2="63.9998" y2="16" gradientUnits="userSpaceOnUse">
<stop stop-color="#5570FF"/>
<stop offset="1" stop-color="#4DD3FF"/>
</linearGradient>
</defs>
</svg>
