<svg width="512" height="512" viewBox="0 0 512 512" fill="none" xmlns="http://www.w3.org/2000/svg">
<path d="M64 408H448" stroke="url(#paint0_linear_608_32)" stroke-width="32" stroke-linecap="round" stroke-linejoin="round"/>
<path fill-rule="evenodd" clip-rule="evenodd" d="M496 351C496 368.673 481.673 383 464 383H400H112H48C30.3269 383 16 368.673 16 351V287V191V127C16 109.327 30.3269 95 48 95H112H400H464C481.673 95 496 109.327 496 127V191V287V351ZM385.964 130.323C385.571 128.411 383.914 127 381.962 127H130.038C128.086 127 126.428 128.411 126.035 130.323C124.813 136.27 123.027 142.102 120.692 147.738C115.868 159.385 108.797 169.968 99.8822 178.882C90.9678 187.797 80.3849 194.868 68.7376 199.692C63.1015 202.027 57.2697 203.813 51.3227 205.035C49.4108 205.428 48 207.086 48 209.038V268.962C48 270.914 49.4108 272.572 51.3227 272.965C57.2697 274.187 63.1015 275.973 68.7376 278.308C80.3849 283.132 90.9678 290.203 99.8822 299.118C108.797 308.032 115.868 318.615 120.692 330.262C123.027 335.898 124.813 341.73 126.035 347.677C126.428 349.589 128.086 351 130.038 351H381.962C383.914 351 385.571 349.589 385.964 347.677C389.717 329.418 398.739 312.497 412.118 299.118C425.497 285.739 442.418 276.717 460.677 272.964C462.589 272.571 464 270.914 464 268.962V209.038C464 207.086 462.589 205.429 460.677 205.036C442.418 201.283 425.497 192.261 412.118 178.882C398.739 165.503 389.717 148.582 385.964 130.323ZM464 167.804C464 170.419 461.528 172.332 459.057 171.477C449.991 168.337 441.659 163.168 434.745 156.255C427.832 149.341 422.663 141.009 419.523 131.943C418.668 129.472 420.581 127 423.196 127H460C462.209 127 464 128.791 464 131V167.804ZM464 310.196C464 307.581 461.528 305.668 459.057 306.523C449.991 309.663 441.659 314.832 434.745 321.745C427.832 328.659 422.663 336.991 419.523 346.057C418.668 348.528 420.581 351 423.196 351H460C462.209 351 464 349.209 464 347V310.196ZM88.8038 351C91.4188 351 93.3322 348.529 92.4765 346.057C92.0628 344.863 91.6133 343.679 91.1283 342.508C87.912 334.743 83.1978 327.688 77.2548 321.745C71.3119 315.802 64.2566 311.088 56.4917 307.872C55.3208 307.387 54.1372 306.937 52.9425 306.523C50.4715 305.668 48 307.581 48 310.196V347C48 349.209 49.7909 351 52 351H88.8038ZM48 167.804C48 170.419 50.4715 172.332 52.9425 171.477C54.1372 171.063 55.3208 170.613 56.4917 170.128C64.2566 166.912 71.3119 162.198 77.2548 156.255C83.1978 150.312 87.912 143.257 91.1283 135.492C91.6133 134.321 92.0628 133.137 92.4765 131.943C93.3322 129.471 91.4188 127 88.8038 127H52C49.7909 127 48 128.791 48 131V167.804ZM256 175C220.654 175 192 203.654 192 239C192 274.346 220.654 303 256 303C291.346 303 320 274.346 320 239C320 203.654 291.346 175 256 175ZM160 239C160 185.981 202.981 143 256 143C309.019 143 352 185.981 352 239C352 292.019 309.019 335 256 335C202.981 335 160 292.019 160 239Z" fill="url(#paint1_linear_608_32)"/>
<defs>
<linearGradient id="paint0_linear_608_32" x1="92.5" y1="408" x2="448" y2="408.002" gradientUnits="userSpaceOnUse">
<stop stop-color="#02AA93"/>
<stop offset="1" stop-color="#67FF80"/>
</linearGradient>
<linearGradient id="paint1_linear_608_32" x1="27" y1="254.5" x2="573.5" y2="251" gradientUnits="userSpaceOnUse">
<stop stop-color="#02AA93"/>
<stop offset="1" stop-color="#67FF80"/>
</linearGradient>
</defs>
</svg>
