<svg width="256" height="262" viewBox="0 0 256 262" fill="none" xmlns="http://www.w3.org/2000/svg">
<path d="M190.44 132.422C190.44 128.874 190.246 125.973 189.836 123.238C189.491 120.938 187.442 119.338 185.116 119.338H134C131.238 119.338 129 121.576 129 124.338V138.089C129 140.85 131.238 143.089 134 143.089H158.632C161.631 143.089 163.946 145.731 162.928 148.552C161.074 153.689 157.358 159.533 151.186 163.853L151.067 164.648L170.066 179.366L171.382 179.498C183.471 168.333 190.44 151.906 190.44 132.422Z" fill="url(#paint0_linear)"/>
<path d="M129 195C146.279 195 160.786 189.311 171.382 179.498L151.186 163.853C145.782 167.622 138.528 170.253 129 170.253C112.075 170.253 97.7109 159.089 92.5905 143.658L91.8399 143.722L72.0845 159.01L71.8261 159.729C82.3505 180.635 103.968 195 129 195Z" fill="url(#paint1_linear)"/>
<path d="M92.5905 143.658C91.2394 139.676 90.4578 135.409 90.4578 131C90.4578 126.591 91.2397 122.324 92.5197 118.342L92.484 117.494L72.481 101.96L71.8265 102.271C67.4889 110.946 65 120.689 65 131C65 141.311 67.4886 151.053 71.8261 159.729L92.5905 143.658Z" fill="url(#paint2_linear)"/>
<path d="M129 91.7465C138.282 91.7465 145.23 94.8432 150.043 98.2518C152.227 99.7989 155.256 99.8018 157.171 97.9319L168.053 87.3066C170.097 85.311 170.067 81.9943 167.825 80.2248C157.337 71.9492 144.28 67 129 67C103.968 67 82.3508 81.3643 71.8265 102.271L92.5197 118.342C97.7113 102.911 112.075 91.7465 129 91.7465Z" fill="url(#paint3_linear)"/>
<path d="M210.597 211.567C212.609 213.529 212.615 216.771 210.522 218.646C199.515 228.507 186.732 236.32 172.804 241.685C157.267 247.669 140.634 250.477 123.938 249.934C107.243 249.392 90.8388 245.511 75.7437 238.531C62.2147 232.276 49.9953 223.652 39.6861 213.101C37.7225 211.091 37.9446 207.857 40.0818 206.033L59.092 189.809C61.1559 188.048 64.2377 188.266 66.1619 190.179C73.2957 197.271 81.6656 203.09 90.8935 207.356C101.612 212.312 113.26 215.068 125.116 215.453C136.971 215.838 148.782 213.845 159.815 209.595C169.316 205.936 178.067 200.671 185.67 194.055C187.717 192.274 190.806 192.262 192.748 194.156L210.597 211.567Z" fill="url(#paint4_linear)"/>
<path d="M214.299 53.842C216.321 52.0337 219.426 52.1617 221.202 54.2126C238.557 74.2537 248.668 99.3702 249.877 125.668C251.087 151.96 243.325 177.854 227.885 199.328C226.3 201.532 223.217 201.938 221.04 200.316L200.953 185.351C198.701 183.673 198.285 180.477 199.88 178.165C210.209 163.189 215.377 145.334 214.543 127.214C213.71 109.09 206.923 91.757 195.257 77.7417C193.46 75.5819 193.588 72.3595 195.682 70.4866L214.299 53.842Z" fill="url(#paint5_linear)"/>
<path d="M45.4019 50.4336C43.3903 48.4714 43.384 45.2288 45.4771 43.3537C66.819 24.2345 94.4955 13.1097 123.567 12.0787C152.641 11.0475 181.076 20.1848 203.787 37.7459C206.009 39.4646 206.238 42.6984 204.375 44.8013L187.881 63.4167C186.082 65.4477 182.999 65.6595 180.829 64.0306C164.869 52.0517 145.078 45.8385 124.852 46.5558C104.627 47.2731 85.3536 54.8701 70.3291 67.9449C68.2825 69.7258 65.1934 69.7384 63.2513 67.8441L45.4019 50.4336Z" fill="url(#paint6_linear)"/>
<path d="M32.3964 196.916C30.1606 198.457 27.0933 197.938 25.5914 195.676C12.0457 175.27 5.21002 151.267 6.07267 126.894C6.93548 102.517 15.4547 79.0279 30.4157 59.5797C32.0704 57.4286 35.1636 57.1224 37.2872 58.8123L56.8661 74.3929C59.0642 76.1421 59.3774 79.3504 57.7085 81.6101C47.7045 95.1556 42.0145 111.325 41.4213 128.085C40.8282 144.843 45.3607 161.355 54.3818 175.541C55.8883 177.91 55.3552 181.086 53.044 182.68L32.3964 196.916Z" fill="url(#paint7_linear)"/>
<defs>
<linearGradient id="paint0_linear" x1="127.72" y1="195" x2="127.72" y2="67" gradientUnits="userSpaceOnUse">
<stop stop-color="#A93AFF"/>
<stop offset="1" stop-color="#FF81FF"/>
</linearGradient>
<linearGradient id="paint1_linear" x1="127.72" y1="195" x2="127.72" y2="67" gradientUnits="userSpaceOnUse">
<stop stop-color="#A93AFF"/>
<stop offset="1" stop-color="#FF81FF"/>
</linearGradient>
<linearGradient id="paint2_linear" x1="127.72" y1="195" x2="127.72" y2="67" gradientUnits="userSpaceOnUse">
<stop stop-color="#A93AFF"/>
<stop offset="1" stop-color="#FF81FF"/>
</linearGradient>
<linearGradient id="paint3_linear" x1="127.72" y1="195" x2="127.72" y2="67" gradientUnits="userSpaceOnUse">
<stop stop-color="#A93AFF"/>
<stop offset="1" stop-color="#FF81FF"/>
</linearGradient>
<linearGradient id="paint4_linear" x1="207" y1="216" x2="47.5" y2="200.5" gradientUnits="userSpaceOnUse">
<stop stop-color="#00B59C"/>
<stop offset="1" stop-color="#9CFFAC"/>
</linearGradient>
<linearGradient id="paint5_linear" x1="209.5" y1="206" x2="204" y2="50" gradientUnits="userSpaceOnUse">
<stop stop-color="#5570FF"/>
<stop offset="1" stop-color="#4DD3FF"/>
</linearGradient>
<linearGradient id="paint6_linear" x1="53" y1="59" x2="190.5" y2="46" gradientUnits="userSpaceOnUse">
<stop stop-color="#FD3A84"/>
<stop offset="1" stop-color="#FFA68D"/>
</linearGradient>
<linearGradient id="paint7_linear" x1="50" y1="203" x2="42" y2="56.5" gradientUnits="userSpaceOnUse">
<stop stop-color="#FD5900"/>
<stop offset="1" stop-color="#FFDE00"/>
</linearGradient>
</defs>
</svg>
