<svg width="192" height="192" viewBox="0 0 192 192" fill="none" xmlns="http://www.w3.org/2000/svg">
<path d="M33.3535 39.9753C32.6584 38.203 33.0246 36.181 34.3599 34.8241C48.5079 20.447 67.7749 11.1706 87.9105 9.42995C113.961 6.87995 140.961 17.07 158.651 36.39C161.841 40 158.891 46.79 153.951 46.5C151.111 46.87 149.081 44.53 147.251 42.75C139.181 34.74 129.811 27.59 118.851 24.11C108.251 20.74 96.9105 21.02 86.0005 22.38C71.6105 23.93 58.0405 30.48 47.1105 39.85C51.2705 52.63 57.1105 64.84 61.6805 77.5C62.2005 77.38 63.2605 77.13 63.7905 77.01C58.7305 85.32 57.4005 95.5 59.5905 104.94L59.5805 105.92C50.9966 83.8758 41.9905 61.9968 33.3535 39.9753Z" fill="url(#paint0_linear_625_97)" stroke="url(#paint1_linear_625_97)" stroke-width="8"/>
<path d="M102.27 58.8699C125.128 58.5926 147.996 58.7998 170.855 58.7399C172.782 58.7349 174.555 59.8304 175.323 61.5976C183.262 79.847 184.531 100.879 179.06 119.99C170.85 149.17 146.34 173.08 116.88 180.35C113.97 180.97 111 182.13 107.99 181.48C104.05 180.35 102.15 175.02 104.73 171.74C106.49 169 109.99 169 112.85 168.39C121.23 167.1 129.51 164.32 136.46 159.38C143.27 154.68 148.76 148.38 153.92 141.99C163.09 130.3 169.08 115.94 169.82 101.03C170.28 90.9899 168.95 80.8199 165.61 71.3299C151.65 71.0899 137.69 71.3499 123.72 71.1999C118.38 64.6599 110.44 60.6199 102.27 58.8699Z" fill="url(#paint2_linear_625_97)" stroke="url(#paint3_linear_625_97)" stroke-width="8"/>
<path d="M28.1203 59.8899C26.1503 55.3499 18.7903 55.39 16.9903 60.06C9.69029 75.87 7.5303 93.94 10.5003 111.08C13.7203 129.78 23.4303 147.19 37.3403 160.06C49.6011 171.213 65.0197 179.072 81.4308 181.683C81.8023 181.742 82.1645 181.879 82.5405 181.894C83.6684 181.937 84.2003 180.54 84.8003 179.74C97.7503 159.96 111.21 140.49 123.99 120.6C117.73 126.94 109.77 131.75 100.83 132.95C93.1103 144.68 85.2003 156.3 77.5903 168.11C65.4103 164.98 54.0403 158.72 44.7803 150.22C24.5703 130.93 16.2703 99.93 25.2203 73.3C26.1203 68.85 30.2103 64.5699 28.1203 59.8899Z" fill="url(#paint4_linear_625_97)" stroke="url(#paint5_linear_625_97)" stroke-width="8"/>
<path d="M82.0401 60.5976C88.5596 57.9465 95.7228 57.7936 102.651 58.1301C111 59.9144 119.113 64.0338 124.57 70.7022C129.986 77.6255 133.982 86.017 133.961 94.949C134.431 104.442 130.589 113.669 124.846 121.072C118.449 127.536 110.315 132.441 101.18 133.664C92.0748 134.857 82.3875 132.879 74.8257 127.567C67.0595 122.275 61.9093 113.904 59.0379 105.105C56.8 95.4792 58.1591 85.0994 63.3297 76.6262C67.9179 69.7029 74.1615 63.5851 82.0401 60.5976ZM90.7361 71.2935C83.44 72.8536 76.9001 77.7478 73.6301 84.4876C68.6434 93.6949 70.493 105.92 77.7993 113.384C84.1349 120.205 94.4353 123.009 103.336 120.103C115.476 116.657 123.518 103.218 120.759 90.9113C118.255 77.6662 103.99 68.0613 90.7361 71.2935Z" fill="url(#paint6_linear_625_97)" stroke="url(#paint7_linear_625_97)" stroke-width="8"/>
<defs>
<linearGradient id="paint0_linear_625_97" x1="51.9998" y1="78" x2="147" y2="34" gradientUnits="userSpaceOnUse">
<stop stop-color="#FD3A84"/>
<stop offset="1" stop-color="#FFA68D"/>
</linearGradient>
<linearGradient id="paint1_linear_625_97" x1="51.9998" y1="78" x2="147" y2="34" gradientUnits="userSpaceOnUse">
<stop stop-color="#FD3A84"/>
<stop offset="1" stop-color="#FFA68D"/>
</linearGradient>
<linearGradient id="paint2_linear_625_97" x1="129.5" y1="66.5" x2="105.5" y2="175" gradientUnits="userSpaceOnUse">
<stop stop-color="#FD5900"/>
<stop offset="1" stop-color="#FFDE00"/>
</linearGradient>
<linearGradient id="paint3_linear_625_97" x1="129.5" y1="66.5" x2="105.5" y2="175" gradientUnits="userSpaceOnUse">
<stop stop-color="#FD5900"/>
<stop offset="1" stop-color="#FFDE00"/>
</linearGradient>
<linearGradient id="paint4_linear_625_97" x1="110" y1="138" x2="9" y2="93" gradientUnits="userSpaceOnUse">
<stop stop-color="#00B59C"/>
<stop offset="1" stop-color="#9CFFAC"/>
</linearGradient>
<linearGradient id="paint5_linear_625_97" x1="110" y1="138" x2="9" y2="93" gradientUnits="userSpaceOnUse">
<stop stop-color="#00B59C"/>
<stop offset="1" stop-color="#9CFFAC"/>
</linearGradient>
<linearGradient id="paint6_linear_625_97" x1="95.9999" y1="134" x2="96.243" y2="68.9688" gradientUnits="userSpaceOnUse">
<stop stop-color="#5570FF"/>
<stop offset="1" stop-color="#4DD3FF"/>
</linearGradient>
<linearGradient id="paint7_linear_625_97" x1="95.9999" y1="134" x2="96.243" y2="68.9688" gradientUnits="userSpaceOnUse">
<stop stop-color="#5570FF"/>
<stop offset="1" stop-color="#4DD3FF"/>
</linearGradient>
</defs>
</svg>
