<svg width="64" height="64" viewBox="0 0 64 64" fill="none" xmlns="http://www.w3.org/2000/svg">
<path d="M27.1281 60.0161C10.3746 51.2223 3.28589 41.6059 6.93572 32.6236C10.442 23.9946 23.0836 15.3679 45.3078 6.43854C50.1176 4.50603 57.1956 1.89035 57.3088 2.00355C57.345 2.03973 55.0948 3.3097 52.3082 4.82558C39.9295 11.5596 26.7202 20.9204 23.0409 25.566V25.566C22.8592 25.7954 23.1418 26.1012 23.3848 25.9381L24.7729 25.0066C28.5894 22.4453 34.1232 19.4496 39.0223 17.2926C43.3447 15.3896 52.9144 11.7181 53.5344 11.725C53.7316 11.7268 52.7202 12.3653 51.2868 13.143C42.6832 17.8107 32.6493 25.8023 28.8359 31.0242C27.731 32.5373 27.6929 32.551 31.3569 30.1153C32.7903 29.1625 35.381 27.5906 37.1141 26.6223C40.4156 24.7775 47.3155 21.4452 47.4842 21.6139C47.5382 21.6679 46.5187 22.4231 45.2187 23.2921C39.9116 26.8395 32.7989 33.2088 30.4775 36.4926C29.792 37.4624 29.8656 37.4355 32.3699 35.8032C34.783 34.2302 43.4005 29.8112 44.0548 29.8112C44.2131 29.8112 43.3179 30.5732 42.0656 31.5047C36.971 35.294 31.2221 41.1201 29.1548 44.589C28.5163 45.6603 27.7639 47.4692 27.4827 48.6086C27.0152 50.5028 27.0117 50.8849 27.4419 53.0683C27.8936 55.361 28.8205 57.578 30.5891 60.5959C31.0435 61.3712 31.2986 62.003 31.1561 62C31.0137 61.997 29.201 61.1042 27.1281 60.0161Z" fill="url(#paint0_linear_583_254)"/>
<defs>
<linearGradient id="paint0_linear_583_254" x1="31.6546" y1="62" x2="31.6546" y2="2" gradientUnits="userSpaceOnUse">
<stop stop-color="#AC3E00"/>
<stop offset="1" stop-color="#FF620A"/>
</linearGradient>
</defs>
</svg>
