<svg width="128" height="128" viewBox="0 0 128 128" fill="none" xmlns="http://www.w3.org/2000/svg">
<path d="M111.374 33.5385H86.1637L80.33 21.871C79.7564 20.7243 78.5847 20 77.3026 20H50.2256C48.9435 20 47.7718 20.7243 47.1982 21.871L41.3645 33.5385H26.3077V30.1538C26.3077 28.2846 24.7923 26.7692 22.9231 26.7692C21.0539 26.7692 19.5385 28.2846 19.5385 30.1538V33.5385H16.1538C10.555 33.5385 6 38.0935 6 43.6923V97.8462C6 103.445 10.555 108 16.1538 108H111.374C116.973 108 121.528 103.445 121.528 97.8462V43.6923C121.528 38.0935 116.973 33.5385 111.374 33.5385ZM114.759 97.8462C114.759 99.7124 113.241 101.231 111.374 101.231H16.1538C14.2876 101.231 12.7692 99.7124 12.7692 97.8462V43.6923C12.7692 41.826 14.2876 40.3077 16.1538 40.3077H43.4564C44.7385 40.3077 45.9103 39.5834 46.4838 38.4367L52.3176 26.7692H75.2109L81.0446 38.4367C81.618 39.5834 82.7897 40.3077 84.0718 40.3077H111.374C113.241 40.3077 114.759 41.826 114.759 43.6923V97.8462ZM63.7641 47.0769C50.7002 47.0769 40.0718 57.7053 40.0718 70.7692C40.0718 83.8332 50.7002 94.4615 63.7641 94.4615C76.828 94.4615 87.4564 83.8332 87.4564 70.7692C87.4564 57.7053 76.828 47.0769 63.7641 47.0769ZM63.7641 87.6923C54.4327 87.6923 46.841 80.1006 46.841 70.7692C46.841 61.4378 54.4327 53.8462 63.7641 53.8462C73.0955 53.8462 80.6872 61.4378 80.6872 70.7692C80.6872 80.1006 73.0955 87.6923 63.7641 87.6923ZM63.7641 60.6154C58.1653 60.6154 53.6103 65.1704 53.6103 70.7692C53.6103 76.3681 58.1653 80.9231 63.7641 80.9231C69.3629 80.9231 73.9179 76.3681 73.9179 70.7692C73.9179 65.1704 69.3629 60.6154 63.7641 60.6154ZM63.7641 74.1538C61.8978 74.1538 60.3795 72.6355 60.3795 70.7692C60.3795 68.903 61.8978 67.3846 63.7641 67.3846C65.6304 67.3846 67.1487 68.903 67.1487 70.7692C67.1487 72.6355 65.6304 74.1538 63.7641 74.1538ZM56.9949 40.3077H70.5333C72.4025 40.3077 73.9179 38.7923 73.9179 36.9231C73.9179 35.0539 72.4025 33.5385 70.5333 33.5385H56.9949C55.1257 33.5385 53.6103 35.0539 53.6103 36.9231C53.6103 38.7923 55.1257 40.3077 56.9949 40.3077ZM104.605 47.0769H97.8359C95.9667 47.0769 94.4513 48.5923 94.4513 50.4615C94.4513 52.3307 95.9667 53.8462 97.8359 53.8462H104.605C106.474 53.8462 107.99 52.3307 107.99 50.4615C107.99 48.5923 106.474 47.0769 104.605 47.0769Z" fill="url(#paint0_linear)" stroke="url(#paint1_linear)" stroke-width="3"/>
<defs>
<linearGradient id="paint0_linear" x1="100.621" y1="20" x2="34.5918" y2="125.838" gradientUnits="userSpaceOnUse">
<stop stop-color="#DE00C0"/>
<stop offset="1" stop-color="#8720FF"/>
</linearGradient>
<linearGradient id="paint1_linear" x1="100.621" y1="20" x2="34.5918" y2="125.838" gradientUnits="userSpaceOnUse">
<stop stop-color="#DE00C0"/>
<stop offset="1" stop-color="#8720FF"/>
</linearGradient>
</defs>
</svg>
