<?xml version="1.0" encoding="UTF-8" ?>
<!DOCTYPE svg PUBLIC "-//W3C//DTD SVG 1.1//EN" "http://www.w3.org/Graphics/SVG/1.1/DTD/svg11.dtd">
<svg width="192pt" height="192pt" viewBox="0 0 192 192" version="1.1" xmlns="http://www.w3.org/2000/svg">
<g id="#c975fbff">
<path fill="#c975fb" opacity="1.00" d=" M 65.44 31.59 C 69.02 30.71 73.42 28.50 76.64 31.41 C 80.32 34.38 78.56 40.97 73.89 41.71 C 60.74 44.59 48.64 51.54 39.19 61.07 C 35.31 65.10 33.54 70.52 31.77 75.70 C 25.41 93.41 22.10 112.23 22.07 131.05 C 31.66 140.11 43.95 146.12 56.92 148.43 C 56.91 146.85 56.91 145.28 56.91 143.70 C 48.41 140.24 40.19 135.85 33.18 129.87 C 30.37 127.11 31.47 121.86 35.09 120.37 C 37.53 119.13 40.30 120.17 42.25 121.82 C 57.61 133.25 76.86 139.16 95.98 138.73 C 115.41 139.28 134.99 133.22 150.57 121.56 C 152.63 119.73 155.83 119.15 158.18 120.78 C 161.34 122.64 161.88 127.55 159.18 130.04 C 152.11 135.85 144.02 140.37 135.49 143.67 C 135.48 145.24 135.48 146.81 135.48 148.39 C 148.46 146.11 160.77 140.02 170.34 130.94 C 170.16 114.77 167.92 98.58 163.07 83.13 C 160.57 75.65 158.96 67.43 153.38 61.49 C 144.06 51.23 131.23 44.47 117.78 41.47 C 114.60 40.80 112.61 37.09 113.59 34.04 C 114.35 31.36 117.18 29.37 119.97 29.85 C 132.41 32.38 144.26 37.80 154.16 45.78 C 159.66 50.28 165.18 55.25 168.05 61.91 C 178.37 84.45 181.31 109.48 182.48 133.99 C 182.53 136.77 180.17 138.59 178.36 140.33 C 165.15 152.48 147.81 160.04 129.89 161.24 C 126.78 161.60 123.74 158.92 123.57 155.83 C 123.41 153.11 123.51 150.39 123.46 147.67 C 105.49 151.98 86.50 152.00 68.53 147.64 C 68.50 150.37 68.62 153.11 68.46 155.83 C 68.32 158.93 65.20 161.64 62.10 161.22 C 45.03 159.80 28.51 152.69 15.76 141.25 C 13.42 138.97 9.94 136.75 10.26 133.03 C 11.39 110.01 13.71 86.47 23.15 65.18 C 30.88 48.01 47.97 37.01 65.44 31.59 Z" />
<path fill="#c975fb" opacity="1.00" d=" M 86.14 51.10 C 105.50 49.69 125.48 52.22 143.01 60.89 C 146.55 62.57 147.25 67.83 144.38 70.44 C 142.35 72.54 139.13 72.51 136.72 71.12 C 119.19 62.88 99.21 61.29 80.18 63.74 C 71.35 65.04 62.73 67.65 54.62 71.38 C 51.52 73.18 47.15 71.35 46.17 67.91 C 45.12 65.03 46.81 61.69 49.61 60.59 C 61.05 55.20 73.52 51.97 86.14 51.10 Z" />
<path fill="#c975fb" opacity="1.00" d=" M 68.40 84.70 C 74.23 82.05 81.01 84.28 85.61 88.28 C 95.20 96.37 94.99 113.33 85.05 121.05 C 80.72 124.45 74.69 126.58 69.32 124.45 C 61.09 121.90 55.22 113.57 55.52 104.97 C 54.88 96.35 60.24 87.67 68.40 84.70 M 71.52 95.69 C 65.44 99.52 65.66 110.54 72.44 113.48 C 78.24 115.03 81.73 107.72 80.81 102.88 C 80.61 98.42 76.29 93.27 71.52 95.69 Z" />
<path fill="#c975fb" opacity="1.00" d=" M 113.41 84.53 C 119.70 82.23 126.69 85.31 131.07 89.93 C 140.25 99.50 137.81 117.83 125.44 123.57 C 117.50 128.17 107.26 123.85 102.69 116.51 C 99.16 111.17 98.81 104.30 100.23 98.22 C 101.98 91.84 107.09 86.50 113.41 84.53 M 116.41 95.53 C 109.20 98.54 109.33 111.37 116.90 113.84 C 122.22 114.77 125.30 108.47 124.85 103.95 C 124.78 99.66 121.33 94.13 116.41 95.53 Z" />
</g>
</svg>
