<svg width="192" height="192" viewBox="0 0 192 192" fill="none" xmlns="http://www.w3.org/2000/svg">
<path d="M61.4671 13.4689C83.3581 4.29248 108.886 4.26925 130.777 13.4573C150.166 21.4606 166.532 36.4914 176.238 55.1116C190.96 82.6758 189.709 117.732 173.493 144.379C175.937 154.194 178.381 164.021 180.628 173.883C181.798 178.448 177.061 183.013 172.544 181.619C163.567 179.412 154.707 176.659 145.742 174.348C144.294 173.639 143.031 174.894 141.792 175.451C125.437 185.267 105.828 189.39 86.9023 187.392C68.0344 185.58 49.8729 177.449 35.8002 164.73C23.3605 153.567 14.0713 138.896 9.40356 122.82C2.9405 100.796 5.11802 76.2755 15.7045 55.8898C17.6851 51.4758 24.4724 50.9996 27.1017 55.0186C29.1286 57.5973 28.3178 61.0124 26.8816 63.6492C19.1792 79.3653 17.187 97.788 21.2293 114.817C25.6075 133.901 37.6302 151.035 53.9616 161.745C77.9143 177.879 111.087 178.68 135.642 163.429C138.491 161.814 141.398 159.05 144.931 160.176C151.614 161.803 158.17 163.87 164.841 165.531C163.278 157.482 160.034 149.594 159.756 141.405C163.891 133.623 168.432 125.887 170.47 117.186C175.173 99.7394 173.493 80.6547 165.722 64.3461C157.197 46.0977 141.259 31.5315 122.356 24.7014C104.23 17.9991 83.6476 18.638 65.88 26.2231C61.6987 28.4766 56.1507 25.0499 56.2318 20.3223C56.0349 17.0931 58.5251 14.3866 61.4671 13.4689Z" fill="url(#paint0_linear_674_206)" stroke="url(#paint1_linear_674_206)" stroke-width="6"/>
<path d="M69.8646 59.1306C77.1268 47.0153 93.2729 41.5326 106.465 46.4229C119.241 50.6743 128.241 63.986 127.302 77.4835C126.955 91.2947 116.311 103.724 102.91 106.628C102.632 110.414 103.987 115.2 100.709 118.057C97.1878 121.6 90.2382 119.3 89.6939 114.282C89.3348 109.427 89.358 104.525 89.5665 99.6581C89.7749 96.394 92.8559 93.8385 96.0643 93.8966C102.979 93.734 109.697 89.5988 112.419 83.1288C116.033 75.4043 112.928 65.4031 105.701 60.9659C98.902 56.4008 88.9642 57.516 83.4393 63.6026C81.4123 65.6819 79.8024 68.8646 76.5361 69.0272C71.3587 69.9565 67.05 63.6026 69.8646 59.1306Z" fill="url(#paint2_linear_674_206)" stroke="url(#paint3_linear_674_206)" stroke-width="6"/>
<path d="M91.057 128.088C98.8578 124.235 108.969 131.2 107.927 139.799C107.805 148.45 96.8424 154.074 89.6149 149.189C81.5014 144.735 82.3527 131.406 91.057 128.088Z" fill="url(#paint4_linear_674_206)"/>
<defs>
<linearGradient id="paint0_linear_674_206" x1="96.1406" y1="187.883" x2="96.1406" y2="6.57642" gradientUnits="userSpaceOnUse">
<stop stop-color="#FD3A84"/>
<stop offset="1" stop-color="#FFA68D"/>
</linearGradient>
<linearGradient id="paint1_linear_674_206" x1="96.1406" y1="187.883" x2="96.1406" y2="6.57642" gradientUnits="userSpaceOnUse">
<stop stop-color="#FD3A84"/>
<stop offset="1" stop-color="#FFA68D"/>
</linearGradient>
<linearGradient id="paint2_linear_674_206" x1="98.172" y1="119.768" x2="98.172" y2="44.6414" gradientUnits="userSpaceOnUse">
<stop stop-color="#FD3A84"/>
<stop offset="1" stop-color="#FFA68D"/>
</linearGradient>
<linearGradient id="paint3_linear_674_206" x1="98.172" y1="119.768" x2="98.172" y2="44.6414" gradientUnits="userSpaceOnUse">
<stop stop-color="#FD3A84"/>
<stop offset="1" stop-color="#FFA68D"/>
</linearGradient>
<linearGradient id="paint4_linear_674_206" x1="96.0007" y1="151" x2="96.0007" y2="127" gradientUnits="userSpaceOnUse">
<stop stop-color="#FD3A84"/>
<stop offset="1" stop-color="#FFA68D"/>
</linearGradient>
</defs>
</svg>
