<svg width="192" height="192" viewBox="0 0 192 192" fill="none" xmlns="http://www.w3.org/2000/svg">
<circle cx="96" cy="96" r="83" stroke="url(#paint0_linear)" stroke-width="18"/>
<path d="M101.991 54.808C109.081 55.5168 114.938 57.9976 119.561 62.2503C124.185 66.4018 126.497 72.4265 126.497 80.3244H105.112C105.035 77.4893 104.149 75.5148 102.453 74.401C100.835 73.1859 98.9853 72.5784 96.9046 72.5784C91.356 72.5784 88.5816 74.2997 88.5816 77.7424C88.5816 79.6663 89.545 81.0332 91.4716 81.8433C93.3982 82.6533 96.5578 83.514 100.95 84.4253C106.345 85.4378 110.853 86.6529 114.475 88.0705C118.097 89.3868 121.257 91.8169 123.954 95.3609C126.651 98.8036 128 103.664 128 109.942C128 119.156 125.611 125.991 120.833 130.446C116.132 134.901 109.851 137.483 101.991 138.192L102.916 159H89.8532L90.6624 138.04C83.2642 137.028 77.1376 134.243 72.2826 129.687C67.4275 125.029 65 118.599 65 110.397H86.3853V111.005C86.4624 114.448 87.5413 116.878 89.622 118.295C91.7798 119.612 94.0532 120.27 96.4422 120.27C102.839 120.27 106.037 118.295 106.037 114.346C106.037 112.321 105.035 110.853 103.031 109.942C101.028 109.03 97.7523 108.068 93.2055 107.056C87.7339 105.841 83.2257 104.525 79.6807 103.107C76.2128 101.689 73.1688 99.3098 70.5486 95.9684C67.9284 92.5257 66.6183 87.7667 66.6183 81.6914C66.6183 73.1859 68.7761 66.8068 73.0917 62.5541C77.4844 58.3013 83.3413 55.7699 90.6624 54.9599L89.8532 34H102.916L101.991 54.808Z" fill="url(#paint1_linear)"/>
<defs>
<linearGradient id="paint0_linear" x1="96" y1="179" x2="96" y2="13" gradientUnits="userSpaceOnUse">
<stop stop-color="#FD5900"/>
<stop offset="1" stop-color="#FFDE00"/>
</linearGradient>
<linearGradient id="paint1_linear" x1="96.5" y1="159" x2="96.5" y2="34" gradientUnits="userSpaceOnUse">
<stop stop-color="#00B59C"/>
<stop offset="1" stop-color="#9CFFAC"/>
</linearGradient>
</defs>
</svg>
