<svg width="64" height="64" viewBox="0 0 64 64" fill="none" xmlns="http://www.w3.org/2000/svg">
<g clip-path="url(#clip0)">
<path d="M11.88 5.4C12.2555 4.96094 12.7217 4.60844 13.2465 4.36676C13.7713 4.12509 14.3422 3.99996 14.92 4H49.08C49.6578 3.99996 50.2287 4.12509 50.7535 4.36676C51.2783 4.60844 51.7445 4.96094 52.12 5.4L62.556 17.576C63.4878 18.6633 63.9999 20.048 64 21.48V22.5C64.0002 24.4799 63.3818 26.4104 62.2313 28.0217C61.0807 29.633 59.4555 30.8445 57.5827 31.487C55.7099 32.1294 53.6832 32.1707 51.7859 31.6051C49.8885 31.0394 48.2152 29.8951 47 28.332C46.1126 29.4751 44.9753 30.3999 43.6753 31.0357C42.3754 31.6715 40.9471 32.0013 39.5 32C38.0528 32.0016 36.6245 31.6719 35.3245 31.0361C34.0244 30.4003 32.8872 29.4753 32 28.332C31.1128 29.4753 29.9756 30.4003 28.6755 31.0361C27.3755 31.6719 25.9472 32.0016 24.5 32C23.0528 32.0016 21.6245 31.6719 20.3245 31.0361C19.0244 30.4003 17.8872 29.4753 17 28.332C15.7848 29.8951 14.1115 31.0394 12.2141 31.6051C10.3168 32.1707 8.29006 32.1294 6.4173 31.487C4.54453 30.8445 2.91929 29.633 1.76873 28.0217C0.618167 26.4104 -0.000218394 24.4799 5.78582e-08 22.5V21.48C5.04301e-05 20.048 0.512226 18.6633 1.444 17.576L11.884 5.396L11.88 5.4ZM19 22.5C19 23.9587 19.5795 25.3576 20.6109 26.3891C21.6424 27.4205 23.0413 28 24.5 28C25.9587 28 27.3576 27.4205 28.3891 26.3891C29.4205 25.3576 30 23.9587 30 22.5C30 21.9696 30.2107 21.4609 30.5858 21.0858C30.9609 20.7107 31.4696 20.5 32 20.5C32.5304 20.5 33.0391 20.7107 33.4142 21.0858C33.7893 21.4609 34 21.9696 34 22.5C34 23.9587 34.5795 25.3576 35.6109 26.3891C36.6424 27.4205 38.0413 28 39.5 28C40.9587 28 42.3576 27.4205 43.3891 26.3891C44.4205 25.3576 45 23.9587 45 22.5C45 21.9696 45.2107 21.4609 45.5858 21.0858C45.9609 20.7107 46.4696 20.5 47 20.5C47.5304 20.5 48.0391 20.7107 48.4142 21.0858C48.7893 21.4609 49 21.9696 49 22.5C49 23.9587 49.5795 25.3576 50.6109 26.3891C51.6424 27.4205 53.0413 28 54.5 28C55.9587 28 57.3576 27.4205 58.3891 26.3891C59.4205 25.3576 60 23.9587 60 22.5V21.48C60 21.0033 59.8298 20.5423 59.52 20.18L49.08 8H14.92L4.48 20.18C4.17019 20.5423 3.99996 21.0033 4 21.48V22.5C4 23.9587 4.57946 25.3576 5.61091 26.3891C6.64236 27.4205 8.04131 28 9.5 28C10.9587 28 12.3576 27.4205 13.3891 26.3891C14.4205 25.3576 15 23.9587 15 22.5C15 21.9696 15.2107 21.4609 15.5858 21.0858C15.9609 20.7107 16.4696 20.5 17 20.5C17.5304 20.5 18.0391 20.7107 18.4142 21.0858C18.7893 21.4609 19 21.9696 19 22.5ZM6 34C6.53043 34 7.03914 34.2107 7.41421 34.5858C7.78929 34.9609 8 35.4696 8 36V60H12V40C12 38.9391 12.4214 37.9217 13.1716 37.1716C13.9217 36.4214 14.9391 36 16 36H28C29.0609 36 30.0783 36.4214 30.8284 37.1716C31.5786 37.9217 32 38.9391 32 40V60H56V36C56 35.4696 56.2107 34.9609 56.5858 34.5858C56.9609 34.2107 57.4696 34 58 34C58.5304 34 59.0391 34.2107 59.4142 34.5858C59.7893 34.9609 60 35.4696 60 36V60H62C62.5304 60 63.0391 60.2107 63.4142 60.5858C63.7893 60.9609 64 61.4696 64 62C64 62.5304 63.7893 63.0391 63.4142 63.4142C63.0391 63.7893 62.5304 64 62 64H2C1.46957 64 0.960859 63.7893 0.585787 63.4142C0.210714 63.0391 5.78582e-08 62.5304 5.78582e-08 62C5.78582e-08 61.4696 0.210714 60.9609 0.585787 60.5858C0.960859 60.2107 1.46957 60 2 60H4V36C4 35.4696 4.21071 34.9609 4.58579 34.5858C4.96086 34.2107 5.46957 34 6 34ZM16 60H28V40H16V60Z" fill="url(#paint0_linear)"/>
<path fill-rule="evenodd" clip-rule="evenodd" d="M36 40C36 38.9391 36.4214 37.9217 37.1716 37.1716C37.9217 36.4214 38.9391 36 40 36H48C49.0609 36 50.0783 36.4214 50.8284 37.1716C51.5786 37.9217 52 38.9391 52 40V52C52 53.0609 51.5786 54.0783 50.8284 54.8284C50.0783 55.5786 49.0609 56 48 56H40C38.9391 56 37.9217 55.5786 37.1716 54.8284C36.4214 54.0783 36 53.0609 36 52V40ZM48 40H40V52H48V40Z" fill="url(#paint1_linear)"/>
</g>
<defs>
<linearGradient id="paint0_linear" x1="32" y1="4" x2="32" y2="64" gradientUnits="userSpaceOnUse">
<stop stop-color="#DC18FC"/>
<stop offset="1" stop-color="#8E1EFF"/>
</linearGradient>
<linearGradient id="paint1_linear" x1="44" y1="56" x2="44" y2="36" gradientUnits="userSpaceOnUse">
<stop stop-color="#5570FF"/>
<stop offset="1" stop-color="#4DD3FF"/>
</linearGradient>
<clipPath id="clip0">
<rect width="64" height="64" fill="white"/>
</clipPath>
</defs>
</svg>
