<svg width="128" height="128" viewBox="0 0 128 128" fill="none" xmlns="http://www.w3.org/2000/svg">
<path d="M60.2185 8.12869C29.4091 10.2124 6.04748 36.9665 8.13119 67.7731C10.2122 98.5826 36.9663 121.955 67.7757 119.871C98.585 117.788 121.955 91.0253 119.871 60.2159C117.788 29.4093 91.0277 6.04498 60.2185 8.12869ZM60.7727 16.3244C87.152 14.5403 109.892 34.3917 111.677 60.7723C113.276 84.4217 97.479 105.149 75.1834 110.47C75.2801 110.102 75.356 109.714 75.4225 109.313C76.0119 107.283 76.3694 104.255 76.1522 103.997C75.5585 103.292 78.5459 95.9244 79.9669 94.5884C81.8497 92.8185 82.7361 88.8457 82.2056 84.5743C81.8117 81.403 82.0165 79.7539 83.3764 75.1299C84.4292 71.5499 85.5091 68.9979 86.3708 68.0494C87.1123 67.2333 88.5141 64.9644 89.4777 63.0111C91.325 59.2664 94.9351 55.212 97.178 54.3687C99.425 53.5236 101.48 50.0824 101.269 47.5141C101.018 44.4877 100.161 43.2281 98.7836 43.8743C97.9848 44.2493 97.4423 44.1084 96.688 43.3214C95.7973 42.3913 95.6389 42.435 95.409 43.6823C95.2645 44.4659 94.743 45.1478 94.2499 45.1843C93.5533 45.2361 93.5966 44.6874 94.4541 42.7521C95.0613 41.382 95.5391 39.2314 95.5199 37.9716C95.4867 35.7408 93.5337 30.6022 92.6107 30.3298C92.3572 30.2549 90.4517 31.7087 88.386 33.5484C82.8241 38.502 74.0821 44.7709 72.5668 44.8924C71.8378 44.9511 70.4591 44.8378 69.5056 44.645C67.7518 44.2905 65.1093 45.4853 58.8614 49.4471C56.1621 51.1587 54.5429 51.6282 50.7188 51.7988C47.7795 51.93 45.0718 52.5234 43.6709 53.3475C41.5882 54.5728 41.4361 54.8231 41.8239 56.3454C42.057 57.26 43.5135 59.2649 45.0582 60.8007L47.8629 63.5955L46.1512 66.3098C45.2065 67.8044 44.1596 69.9189 43.8357 71.0032C43.5117 72.0874 42.253 74.0469 41.0343 75.3606C38.6845 77.8941 34.238 85.254 32.8121 88.9611C32.4587 89.8794 28.8469 92.2677 26.3506 93.4719C20.6476 86.1894 16.9977 77.1687 16.325 67.2208C14.5409 40.8415 34.3926 18.1097 60.7727 16.3244Z" fill="url(#paint0_linear_678_468)" stroke="url(#paint1_linear_678_468)" stroke-width="3"/>
<defs>
<linearGradient id="paint0_linear_678_468" x1="64.0011" y1="120.001" x2="64.0011" y2="7.99947" gradientUnits="userSpaceOnUse">
<stop stop-color="#5570FF"/>
<stop offset="1" stop-color="#4DD3FF"/>
</linearGradient>
<linearGradient id="paint1_linear_678_468" x1="64.0011" y1="120.001" x2="64.0011" y2="7.99947" gradientUnits="userSpaceOnUse">
<stop stop-color="#5570FF"/>
<stop offset="1" stop-color="#4DD3FF"/>
</linearGradient>
</defs>
</svg>
