<svg width="64" height="64" viewBox="0 0 64 64" fill="none" xmlns="http://www.w3.org/2000/svg">
<path fill-rule="evenodd" clip-rule="evenodd" d="M9.97208 7.01826C6.43399 6.96768 3.19176 9.86616 3.0767 13.2199C2.99365 25.4323 3.00262 37.6417 3.01159 49.8534C3.01283 51.538 3.01407 53.2226 3.01506 54.9073C2.79316 56.4947 5.07792 57.4984 6.22852 56.3469C9.05663 54.0083 11.8731 51.6544 14.6902 49.3C15.6226 48.5208 16.555 47.7415 17.4879 46.9627C25.3094 46.9539 33.1308 46.9551 40.9522 46.9564C46.8064 46.9574 52.6607 46.9583 58.515 46.955C59.5341 47.0484 60.6272 46.4998 60.8861 45.5193C61.3586 44.3133 60.2943 42.8543 58.926 42.8971C50.2107 42.8759 41.4939 42.879 32.7765 42.8821C27.1326 42.8841 21.4884 42.8861 15.8443 42.8815C15.2182 43.4031 14.5919 43.9245 13.9655 44.4459C11.7513 46.2892 9.53681 48.1328 7.32981 49.9857C7.31794 41.2436 7.33393 32.5035 7.34993 23.764C7.35608 20.4035 7.36223 17.0431 7.36679 13.6828C7.32159 12.1577 8.85846 10.9438 10.4241 11.0956H53.5962C55.129 10.9361 56.674 12.1071 56.6494 13.6011C56.6768 17.2817 56.6725 20.9611 56.6682 24.6406C56.6647 27.5809 56.6613 30.5213 56.674 33.4625C56.5179 34.6607 57.5863 35.8591 58.889 35.7657C60.1464 35.7968 61.1244 34.6336 60.9806 33.4858C60.9888 26.8563 60.9929 20.2267 60.9764 13.5972C61.0053 10.9866 59.2095 8.49279 56.6659 7.51237C55.4016 6.97964 54.0111 6.9917 52.6507 7.00349C52.4016 7.00564 52.1535 7.00779 51.9073 7.00659C45.9174 7.01159 39.9267 7.01016 33.9356 7.00874C25.9483 7.00683 17.9602 7.00493 9.97208 7.01826ZM28.9198 14.5785C28.2427 12.8432 25.6071 12.9699 25.0604 14.7512C24.8658 15.7256 24.8906 16.7248 24.9155 17.7227C24.9285 18.2465 24.9415 18.7699 24.9228 19.2892C24.4847 19.3094 24.0439 19.3012 23.6029 19.2931C22.7868 19.278 21.9701 19.2629 21.1686 19.4274C19.4598 19.9457 19.2788 22.7713 20.9079 23.5276C21.7378 23.8527 22.6246 23.8162 23.5081 23.7799C23.9813 23.7605 24.4535 23.7411 24.9156 23.7772C24.9174 24.8926 24.9174 26.0081 24.9174 27.124C24.9174 28.2396 24.9174 29.3556 24.9192 30.4727C24.3822 30.5124 23.8373 30.4939 23.292 30.4753C22.363 30.4437 21.4329 30.4121 20.5387 30.6685C18.8045 31.3672 18.9493 34.308 20.7233 34.8417C21.6055 34.996 22.501 34.9769 23.3956 34.9577C23.9034 34.9469 24.4109 34.936 24.9156 34.9569C24.9326 35.4095 24.9223 35.866 24.9121 36.3231C24.8918 37.2306 24.8714 38.1404 25.064 39.0264C25.6288 40.7886 28.2246 40.8961 28.9125 39.1876C29.193 38.2877 29.1687 37.3356 29.1444 36.3859C29.132 35.9014 29.1196 35.4175 29.1478 34.9415C30.5511 34.9568 31.9544 34.9551 33.3578 34.9534C34.0579 34.9526 34.758 34.9517 35.4581 34.953C35.4707 35.4689 35.4626 35.9862 35.4546 36.5035C35.4396 37.472 35.4246 38.4403 35.5449 39.3988C36.0265 41.2685 38.7887 41.4489 39.4622 39.6407C39.7165 38.6719 39.6887 37.6609 39.661 36.6506C39.6453 36.0793 39.6296 35.5084 39.6649 34.9454C40.1034 34.9219 40.5489 34.9387 40.9955 34.9555C41.8652 34.9882 42.7388 35.0211 43.5712 34.7572C45.233 34.0815 45.2004 31.279 43.5205 30.6531C42.6885 30.4268 41.8264 30.4515 40.9656 30.4761C40.5266 30.4886 40.0881 30.5011 39.654 30.4804C39.654 30.0328 39.6539 29.5853 39.6537 29.1377C39.6531 27.347 39.6526 25.5563 39.6613 23.7656C40.1492 23.7459 40.6417 23.7608 41.1348 23.7757C42.0831 23.8044 43.0331 23.8332 43.955 23.6159C45.7217 23.0132 45.6963 20.0071 43.9115 19.4427C42.9938 19.2511 42.0559 19.2747 41.1192 19.2983C40.6294 19.3106 40.14 19.323 39.654 19.3045C39.6383 18.8567 39.6488 18.4059 39.6592 17.955C39.6802 17.0528 39.7011 16.1501 39.5128 15.2695C39.0132 13.5342 36.4898 13.3231 35.726 14.9471C35.3755 15.8359 35.4169 16.8069 35.4581 17.7741C35.4799 18.2857 35.5016 18.7963 35.4653 19.293C34.2314 19.302 32.9986 19.3018 31.7656 19.3016C30.8896 19.3015 30.0136 19.3013 29.1369 19.3045C29.1083 18.7656 29.1237 18.2195 29.1391 17.6729C29.1685 16.627 29.1979 15.5795 28.9198 14.5785ZM29.1345 28.2423C29.1345 26.75 29.1345 25.2578 29.1441 23.7656C30.4979 23.778 31.8531 23.776 33.2079 23.7741C33.9582 23.773 34.7084 23.772 35.4581 23.7733C35.4599 24.8905 35.4599 26.0077 35.4599 27.1245C35.4599 28.2412 35.4599 29.3574 35.4617 30.4727C33.8815 30.4842 32.2992 30.4828 30.7164 30.4813C30.1888 30.4809 29.661 30.4804 29.1333 30.4804C29.1345 29.7343 29.1345 28.9883 29.1345 28.2423Z" fill="url(#paint0_linear_678_46)"/>
<path d="M3.0767 13.2199L2.57681 13.2027L2.57672 13.2165L3.0767 13.2199ZM9.97208 7.01826L9.96493 7.51827L9.97292 7.51826L9.97208 7.01826ZM3.01159 49.8534L3.51159 49.8531L3.01159 49.8534ZM3.01506 54.9073L3.51025 54.9765L3.51509 54.9419L3.51506 54.907L3.01506 54.9073ZM6.22852 56.3469L5.9099 55.9615L5.8916 55.9767L5.87482 55.9934L6.22852 56.3469ZM14.6902 49.3L15.0109 49.6837L15.0109 49.6837L14.6902 49.3ZM17.4879 46.9627L17.4874 46.4627L17.3064 46.4629L17.1675 46.5789L17.4879 46.9627ZM40.9522 46.9564L40.9523 46.4564L40.9523 46.4564L40.9522 46.9564ZM58.515 46.955L58.5606 46.4571L58.5377 46.455L58.5147 46.455L58.515 46.955ZM60.8861 45.5193L60.4205 45.3369L60.41 45.3638L60.4027 45.3917L60.8861 45.5193ZM58.926 42.8971L58.9247 43.3971L58.9332 43.3971L58.9416 43.3969L58.926 42.8971ZM32.7765 42.8821L32.7767 43.3821L32.7767 43.3821L32.7765 42.8821ZM15.8443 42.8815L15.8447 42.3815L15.6635 42.3814L15.5243 42.4974L15.8443 42.8815ZM13.9655 44.4459L13.6456 44.0616L13.6456 44.0616L13.9655 44.4459ZM7.32981 49.9857L6.82981 49.9864L6.83126 51.0571L7.65131 50.3686L7.32981 49.9857ZM7.34993 23.764L7.84993 23.7649L7.34993 23.764ZM7.36679 13.6828L7.86679 13.6835L7.8668 13.6757L7.86657 13.668L7.36679 13.6828ZM10.4241 11.0956L10.3759 11.5932L10.3999 11.5956H10.4241V11.0956ZM53.5962 11.0956V11.5956H53.6222L53.648 11.5929L53.5962 11.0956ZM56.6494 13.6011L56.1493 13.5929L56.1494 13.6049L56.6494 13.6011ZM56.6682 24.6406L56.1682 24.64L56.1682 24.64L56.6682 24.6406ZM56.674 33.4625L57.1698 33.5271L57.1742 33.4939L57.174 33.4603L56.674 33.4625ZM58.889 35.7657L58.9013 35.2659L58.8773 35.2653L58.8532 35.267L58.889 35.7657ZM60.9806 33.4858L60.4806 33.4852L60.4806 33.5167L60.4845 33.548L60.9806 33.4858ZM60.9764 13.5972L60.4764 13.5917L60.4764 13.5985L60.9764 13.5972ZM56.6659 7.51237L56.4717 7.97313L56.4788 7.97613L56.486 7.97891L56.6659 7.51237ZM52.6507 7.00349L52.655 7.50347L52.655 7.50347L52.6507 7.00349ZM51.9073 7.00659L51.9098 6.50659L51.9069 6.50659L51.9073 7.00659ZM33.9356 7.00874L33.9355 7.50874L33.9356 7.00874ZM25.0604 14.7512L24.5824 14.6045L24.575 14.6286L24.5701 14.6533L25.0604 14.7512ZM28.9198 14.5785L29.4015 14.4446L29.3947 14.4203L29.3856 14.3968L28.9198 14.5785ZM24.9155 17.7227L25.4153 17.7103L25.4153 17.7103L24.9155 17.7227ZM24.9228 19.2892L24.9458 19.7887L25.4059 19.7675L25.4225 19.3072L24.9228 19.2892ZM23.6029 19.2931L23.6122 18.7932L23.6122 18.7932L23.6029 19.2931ZM21.1686 19.4274L21.0681 18.9376L21.0455 18.9422L21.0235 18.9489L21.1686 19.4274ZM20.9079 23.5276L20.6973 23.9811L20.7112 23.9876L20.7255 23.9932L20.9079 23.5276ZM23.5081 23.7799L23.4876 23.2803L23.4876 23.2803L23.5081 23.7799ZM24.9156 23.7772L25.4156 23.7764L25.4148 23.3147L24.9546 23.2787L24.9156 23.7772ZM24.9192 30.4727L24.9561 30.9713L25.42 30.937L25.4192 30.4719L24.9192 30.4727ZM23.292 30.4753L23.275 30.975L23.275 30.975L23.292 30.4753ZM20.5387 30.6685L20.4008 30.1879L20.3759 30.1951L20.3518 30.2047L20.5387 30.6685ZM20.7233 34.8417L20.5792 35.3205L20.6078 35.3291L20.6371 35.3342L20.7233 34.8417ZM23.3956 34.9577L23.385 34.4578L23.385 34.4578L23.3956 34.9577ZM24.9156 34.9569L25.4152 34.9381L25.3979 34.4764L24.9362 34.4573L24.9156 34.9569ZM24.9121 36.3231L24.4122 36.3119L24.4122 36.3119L24.9121 36.3231ZM25.064 39.0264L24.5754 39.1326L24.5805 39.1561L24.5879 39.179L25.064 39.0264ZM28.9125 39.1876L29.3763 39.3744L29.3839 39.3557L29.3899 39.3364L28.9125 39.1876ZM29.1444 36.3859L28.6445 36.3987L28.6445 36.3987L29.1444 36.3859ZM29.1478 34.9415L29.1532 34.4415L28.6768 34.4363L28.6486 34.912L29.1478 34.9415ZM33.3578 34.9534L33.3572 34.4534L33.3572 34.4534L33.3578 34.9534ZM35.4581 34.953L35.9579 34.9408L35.946 34.4539L35.459 34.453L35.4581 34.953ZM35.4546 36.5035L35.9546 36.5112L35.9546 36.5112L35.4546 36.5035ZM35.5449 39.3988L35.0488 39.4611L35.0528 39.4927L35.0607 39.5235L35.5449 39.3988ZM39.4622 39.6407L39.9307 39.8152L39.9394 39.7918L39.9458 39.7677L39.4622 39.6407ZM39.661 36.6506L39.1612 36.6643L39.1612 36.6643L39.661 36.6506ZM39.6649 34.9454L39.6382 34.4461L39.1937 34.4699L39.1659 34.9141L39.6649 34.9454ZM40.9955 34.9555L41.0143 34.4558L41.0143 34.4558L40.9955 34.9555ZM43.5712 34.7572L43.7223 35.2339L43.7412 35.2279L43.7595 35.2204L43.5712 34.7572ZM43.5205 30.6531L43.6951 30.1846L43.6737 30.1766L43.6517 30.1706L43.5205 30.6531ZM40.9656 30.4761L40.9798 30.9759L40.9798 30.9759L40.9656 30.4761ZM39.654 30.4804H39.154V30.957L39.6301 30.9798L39.654 30.4804ZM39.6537 29.1377L39.1537 29.1379L39.1537 29.1379L39.6537 29.1377ZM39.6613 23.7656L39.6411 23.266L39.1636 23.2853L39.1613 23.7632L39.6613 23.7656ZM41.1348 23.7757L41.1499 23.276L41.1499 23.276L41.1348 23.7757ZM43.955 23.6159L44.0697 24.1026L44.0934 24.097L44.1164 24.0891L43.955 23.6159ZM43.9115 19.4427L44.0622 18.966L44.0383 18.9584L44.0137 18.9533L43.9115 19.4427ZM41.1192 19.2983L41.1318 19.7982L41.1318 19.7982L41.1192 19.2983ZM39.654 19.3045L39.1543 19.322L39.1706 19.7865L39.635 19.8041L39.654 19.3045ZM39.6592 17.955L39.1594 17.9434L39.1594 17.9434L39.6592 17.955ZM39.5128 15.2695L40.0018 15.165L39.9981 15.1479L39.9933 15.1312L39.5128 15.2695ZM35.726 14.9471L35.2735 14.7343L35.2667 14.7488L35.2608 14.7637L35.726 14.9471ZM35.4581 17.7741L34.9585 17.7954L34.9585 17.7954L35.4581 17.7741ZM35.4653 19.293L35.469 19.793L35.9304 19.7896L35.964 19.3294L35.4653 19.293ZM31.7656 19.3016L31.7657 18.8016L31.7657 18.8016L31.7656 19.3016ZM29.1369 19.3045L28.6376 19.331L28.6628 19.8062L29.1387 19.8045L29.1369 19.3045ZM29.1391 17.6729L29.6389 17.687L29.6389 17.687L29.1391 17.6729ZM29.1441 23.7656L29.1487 23.2656L28.6474 23.2611L28.6442 23.7624L29.1441 23.7656ZM29.1345 28.2423L28.6345 28.2422L28.6345 28.2422L29.1345 28.2423ZM33.2079 23.7741L33.2072 23.2741L33.2072 23.2741L33.2079 23.7741ZM35.4581 23.7733L35.9581 23.7725L35.9573 23.2742L35.459 23.2733L35.4581 23.7733ZM35.4599 27.1245L34.9599 27.1245L34.9599 27.1245L35.4599 27.1245ZM35.4617 30.4727L35.4654 30.9727L35.9625 30.969L35.9617 30.4719L35.4617 30.4727ZM30.7164 30.4813L30.7169 29.9813L30.7169 29.9813L30.7164 30.4813ZM29.1333 30.4804L28.6333 30.4796L28.6325 30.9804H29.1333V30.4804ZM3.57641 13.237C3.6812 10.1826 6.67103 7.47112 9.96493 7.51821L9.97923 6.51831C6.19695 6.46424 2.70233 9.54975 2.577 13.2027L3.57641 13.237ZM3.51159 49.8531C3.50262 37.6411 3.49365 25.4335 3.57669 13.2233L2.57672 13.2165C2.49365 25.4311 2.50262 37.6424 2.51159 49.8538L3.51159 49.8531ZM3.51506 54.907C3.51407 53.2223 3.51283 51.5376 3.51159 49.8531L2.51159 49.8538C2.51283 51.5384 2.51407 53.223 2.51506 54.9076L3.51506 54.907ZM5.87482 55.9934C5.48314 56.3855 4.86168 56.4423 4.31015 56.1973C3.75881 55.9522 3.43938 55.4835 3.51025 54.9765L2.51988 54.8381C2.36885 55.9184 3.08085 56.7453 3.90406 57.1111C4.72709 57.4768 5.82331 57.4598 6.58223 56.7003L5.87482 55.9934ZM14.3696 48.9163C11.5523 51.2709 8.73683 53.624 5.9099 55.9615L6.54715 56.7322C9.37644 54.3927 12.1939 52.0379 15.0109 49.6837L14.3696 48.9163ZM17.1675 46.5789C16.2345 47.3578 15.3019 48.1371 14.3696 48.9163L15.0109 49.6837C15.9433 48.9044 16.8756 48.1252 17.8084 47.3466L17.1675 46.5789ZM40.9523 46.4564C33.1309 46.4551 25.3092 46.4539 17.4874 46.4627L17.4885 47.4627C25.3095 47.4539 33.1306 47.4551 40.9521 47.4564L40.9523 46.4564ZM58.5147 46.455C52.6606 46.4583 46.8066 46.4574 40.9523 46.4564L40.9521 47.4564C46.8063 47.4574 52.6608 47.4583 58.5153 47.455L58.5147 46.455ZM60.4027 45.3917C60.2251 46.064 59.4194 46.5358 58.5606 46.4571L58.4694 47.4529C59.6489 47.561 61.0292 46.9357 61.3695 45.647L60.4027 45.3917ZM58.9416 43.3969C59.4381 43.3813 59.899 43.6387 60.1946 44.0376C60.4913 44.438 60.582 44.9248 60.4205 45.3369L61.3516 45.7017C61.6627 44.9078 61.4575 44.0621 60.9981 43.4422C60.5376 42.8208 59.7822 42.3701 58.9103 42.3974L58.9416 43.3969ZM32.7767 43.3821C41.4942 43.379 50.2103 43.3759 58.9247 43.3971L58.9272 42.3971C50.2111 42.3759 41.4936 42.379 32.7763 42.3821L32.7767 43.3821ZM15.8439 43.3815C21.4884 43.3861 27.1328 43.3841 32.7767 43.3821L32.7763 42.3821C27.1324 42.3841 21.4885 42.3861 15.8447 42.3815L15.8439 43.3815ZM14.2854 44.8302C14.9117 44.3088 15.5381 43.7873 16.1643 43.2657L15.5243 42.4974C14.8982 43.0189 14.272 43.5402 13.6456 44.0616L14.2854 44.8302ZM7.65131 50.3686C9.85738 48.5165 12.0711 46.6736 14.2854 44.8302L13.6456 44.0616C11.4315 45.9048 9.21624 47.749 7.00831 49.6028L7.65131 50.3686ZM6.84993 23.763C6.83393 32.5025 6.81793 41.2434 6.82981 49.9864L7.82981 49.985C7.81794 41.2439 7.83393 32.5046 7.84993 23.7649L6.84993 23.763ZM6.86679 13.6821C6.86223 17.0423 6.85608 20.4026 6.84993 23.763L7.84993 23.7649C7.85608 20.4044 7.86223 17.044 7.86679 13.6835L6.86679 13.6821ZM10.4723 10.5979C8.66949 10.4232 6.81112 11.812 6.86701 13.6976L7.86657 13.668C7.83206 12.5034 9.04744 11.4645 10.3759 11.5932L10.4723 10.5979ZM53.5962 10.5956H10.4241V11.5956H53.5962V10.5956ZM57.1493 13.6094C57.1647 12.6789 56.6904 11.8746 56.0191 11.3378C55.3491 10.8021 54.4506 10.504 53.5445 10.5983L53.648 11.5929C54.2746 11.5277 54.915 11.7354 55.3946 12.1188C55.8728 12.5012 56.1587 13.0294 56.1494 13.5929L57.1493 13.6094ZM57.1682 24.6412C57.1725 20.962 57.1768 17.2805 57.1494 13.5974L56.1494 13.6049C56.1768 17.2829 56.1725 20.9601 56.1682 24.64L57.1682 24.6412ZM57.174 33.4603C57.1613 30.5208 57.1647 27.5817 57.1682 24.6412L56.1682 24.64C56.1647 27.5801 56.1613 30.5219 56.174 33.4647L57.174 33.4603ZM58.8532 35.267C57.8693 35.3375 57.0541 34.415 57.1698 33.5271L56.1782 33.3979C55.9816 34.9065 57.3033 36.3806 58.9247 36.2645L58.8532 35.267ZM60.4845 33.548C60.5912 34.3998 59.8456 35.2892 58.9013 35.2659L58.8766 36.2656C60.4472 36.3044 61.6576 34.8674 61.4767 33.4236L60.4845 33.548ZM60.4764 13.5985C60.4929 20.227 60.4888 26.8558 60.4806 33.4852L61.4806 33.4864C61.4888 26.8568 61.4929 20.2264 61.4764 13.596L60.4764 13.5985ZM56.486 7.97891C58.8523 8.89098 60.5028 11.208 60.4765 13.5917L61.4764 13.6027C61.5077 10.7653 59.5667 8.09461 56.8457 7.04582L56.486 7.97891ZM52.655 7.50347C54.0351 7.49151 55.3188 7.48732 56.4717 7.97313L56.86 7.0516C55.4844 6.47197 53.987 6.49188 52.6463 6.5035L52.655 7.50347ZM51.9049 7.50658C52.155 7.50781 52.4065 7.50562 52.655 7.50347L52.6463 6.5035C52.3966 6.50567 52.1519 6.50778 51.9098 6.5066L51.9049 7.50658ZM33.9355 7.50874C39.9265 7.51016 45.9175 7.51159 51.9077 7.50659L51.9069 6.50659C45.9173 6.51159 39.9269 6.51016 33.9357 6.50874L33.9355 7.50874ZM9.97292 7.51826C17.9605 7.50493 25.9481 7.50683 33.9355 7.50874L33.9357 6.50874C25.9485 6.50683 17.9599 6.50493 9.97125 6.51826L9.97292 7.51826ZM25.5384 14.8979C25.739 14.2443 26.3241 13.8751 26.9642 13.8456C27.6034 13.8161 28.2075 14.1286 28.454 14.7602L29.3856 14.3968C28.955 13.2932 27.9027 12.8013 26.9182 12.8467C25.9346 12.892 24.9285 13.4769 24.5824 14.6045L25.5384 14.8979ZM25.4153 17.7103C25.3902 16.7025 25.3688 15.7597 25.5507 14.8492L24.5701 14.6533C24.3627 15.6916 24.391 16.7471 24.4156 17.7352L25.4153 17.7103ZM25.4225 19.3072C25.4419 18.7701 25.4283 18.2314 25.4153 17.7103L24.4156 17.7352C24.4287 18.2615 24.4412 18.7697 24.4232 19.2712L25.4225 19.3072ZM23.5937 19.793C24.0319 19.8011 24.4889 19.8097 24.9458 19.7887L24.8998 18.7897C24.4805 18.809 24.0559 18.8014 23.6122 18.7932L23.5937 19.793ZM21.2691 19.9172C22.0072 19.7657 22.7681 19.7777 23.5937 19.793L23.6122 18.7932C22.8055 18.7782 21.9329 18.7601 21.0681 18.9376L21.2691 19.9172ZM21.1184 23.0741C20.547 22.8088 20.239 22.1496 20.2855 21.4201C20.3321 20.69 20.7204 20.0858 21.3137 19.9059L21.0235 18.9489C19.908 19.2872 19.3514 20.3551 19.2875 21.3564C19.2236 22.3583 19.6396 23.4901 20.6973 23.9811L21.1184 23.0741ZM23.4876 23.2803C22.5848 23.3174 21.806 23.3424 21.0902 23.0621L20.7255 23.9932C21.6697 24.3629 22.6643 24.315 23.5287 24.2795L23.4876 23.2803ZM24.9546 23.2787C24.4576 23.2399 23.9553 23.2611 23.4876 23.2803L23.5287 24.2795C24.0073 24.2598 24.4493 24.2423 24.8766 24.2757L24.9546 23.2787ZM25.4174 27.124C25.4174 26.0081 25.4174 24.8923 25.4156 23.7764L24.4156 23.778C24.4174 24.893 24.4174 26.008 24.4174 27.124H25.4174ZM25.4192 30.4719C25.4174 29.3553 25.4174 28.2396 25.4174 27.124H24.4174C24.4174 28.2395 24.4174 29.356 24.4192 30.4735L25.4192 30.4719ZM23.275 30.975C23.8155 30.9934 24.3876 31.0134 24.9561 30.9713L24.8823 29.974C24.3768 30.0115 23.8591 29.9943 23.309 29.9756L23.275 30.975ZM20.6765 31.1491C21.4821 30.9181 22.332 30.9429 23.275 30.975L23.309 29.9756C22.3941 29.9445 21.3836 29.906 20.4008 30.1879L20.6765 31.1491ZM20.8673 34.3629C20.2455 34.1758 19.8496 33.5441 19.8149 32.7939C19.7802 32.0448 20.115 31.3783 20.7255 31.1323L20.3518 30.2047C19.2281 30.6575 18.7683 31.8107 18.8159 32.8401C18.8635 33.8684 19.4271 34.9739 20.5792 35.3205L20.8673 34.3629ZM23.385 34.4578C22.482 34.4772 21.6356 34.4937 20.8094 34.3492L20.6371 35.3342C21.5754 35.4983 22.52 35.4766 23.4063 35.4576L23.385 34.4578ZM24.9362 34.4573C24.4133 34.4357 23.8901 34.447 23.385 34.4578L23.4063 35.4576C23.9168 35.4467 24.4086 35.4364 24.8949 35.4565L24.9362 34.4573ZM25.412 36.3343C25.4222 35.8798 25.4329 35.4083 25.4152 34.9381L24.4159 34.9757C24.4323 35.4108 24.4225 35.8522 24.4122 36.3119L25.412 36.3343ZM25.5526 38.9202C25.3747 38.102 25.3914 37.2523 25.412 36.3343L24.4122 36.3119C24.3921 37.209 24.3681 38.1789 24.5754 39.1326L25.5526 38.9202ZM28.4487 39.0009C28.1976 39.6244 27.5966 39.9354 26.9629 39.909C26.3291 39.8825 25.7477 39.5215 25.5402 38.8738L24.5879 39.179C24.9451 40.2935 25.944 40.8673 26.9212 40.9081C27.8987 40.9488 28.9394 40.4593 29.3763 39.3744L28.4487 39.0009ZM28.6445 36.3987C28.6692 37.3638 28.6869 38.2312 28.4352 39.0389L29.3899 39.3364C29.6991 38.3441 29.6681 37.3074 29.6442 36.3731L28.6445 36.3987ZM28.6486 34.912C28.619 35.4127 28.6323 35.918 28.6445 36.3987L29.6442 36.3731C29.6317 35.8848 29.6202 35.4223 29.6469 34.971L28.6486 34.912ZM33.3572 34.4534C31.9533 34.4551 30.553 34.4568 29.1532 34.4415L29.1423 35.4415C30.5492 35.4569 31.9556 35.4551 33.3584 35.4534L33.3572 34.4534ZM35.459 34.453C34.758 34.4517 34.0572 34.4526 33.3572 34.4534L33.3584 35.4534C34.0586 35.4526 34.758 35.4517 35.4572 35.453L35.459 34.453ZM35.9546 36.5112C35.9626 35.9957 35.9708 35.4684 35.9579 34.9408L34.9582 34.9652C34.9705 35.4695 34.9627 35.9768 34.9547 36.4957L35.9546 36.5112ZM36.041 39.3365C35.9258 38.4187 35.9394 37.4858 35.9546 36.5112L34.9547 36.4957C34.9397 37.4582 34.9233 38.4618 35.0488 39.4611L36.041 39.3365ZM38.9936 39.4662C38.7486 40.1241 38.1233 40.4417 37.4631 40.3999C36.8017 40.3581 36.206 39.9609 36.0291 39.2741L35.0607 39.5235C35.3654 40.7064 36.3915 41.3342 37.4 41.398C38.4097 41.4618 39.5023 40.9655 39.9307 39.8152L38.9936 39.4662ZM39.1612 36.6643C39.1893 37.6877 39.2117 38.6259 38.9786 39.5137L39.9458 39.7677C40.2214 38.7179 40.1882 37.634 40.1608 36.6368L39.1612 36.6643ZM39.1659 34.9141C39.1289 35.5034 39.1456 36.0971 39.1612 36.6643L40.1608 36.6368C40.145 36.0616 40.1302 35.5133 40.1639 34.9767L39.1659 34.9141ZM41.0143 34.4558C40.5718 34.4392 40.1033 34.4212 39.6382 34.4461L39.6916 35.4447C40.1034 35.4226 40.526 35.4382 40.9767 35.4551L41.0143 34.4558ZM43.4201 34.2806C42.6845 34.5138 41.8997 34.4892 41.0143 34.4558L40.9767 35.4551C41.8307 35.4873 42.793 35.5284 43.7223 35.2339L43.4201 34.2806ZM43.346 31.1216C43.9354 31.3413 44.2903 31.9676 44.299 32.6925C44.3077 33.4174 43.9679 34.0562 43.3829 34.2941L43.7595 35.2204C44.8363 34.7826 45.311 33.6822 45.2989 32.6805C45.2868 31.6787 44.7855 30.5908 43.6951 30.1846L43.346 31.1216ZM40.9798 30.9759C41.8537 30.9509 42.6407 30.932 43.3893 31.1356L43.6517 30.1706C42.7363 29.9217 41.799 29.952 40.9513 29.9763L40.9798 30.9759ZM39.6301 30.9798C40.0865 31.0016 40.5442 30.9883 40.9798 30.9759L40.9513 29.9763C40.509 29.9889 40.0896 30.0006 39.6779 29.981L39.6301 30.9798ZM39.1537 29.1379C39.1539 29.5854 39.154 30.0329 39.154 30.4804H40.154C40.154 30.0327 40.1539 29.5851 40.1537 29.1375L39.1537 29.1379ZM39.1613 23.7632C39.1526 25.5554 39.1531 27.3474 39.1537 29.1379L40.1537 29.1375C40.1531 27.3466 40.1526 25.5572 40.1613 23.768L39.1613 23.7632ZM41.1499 23.276C40.6599 23.2612 40.1496 23.2455 39.6411 23.266L39.6814 24.2652C40.1487 24.2464 40.6235 24.2605 41.1196 24.2755L41.1499 23.276ZM43.8403 23.1292C42.9933 23.3289 42.1099 23.305 41.1499 23.276L41.1196 24.2755C42.0563 24.3039 43.073 24.3375 44.0697 24.1026L43.8403 23.1292ZM43.7607 19.9194C44.3808 20.1155 44.7578 20.7601 44.7651 21.5197C44.7724 22.2797 44.4073 22.9333 43.7935 23.1427L44.1164 24.0891C45.2694 23.6958 45.775 22.5449 45.7651 21.5101C45.7551 20.475 45.227 19.3343 44.0622 18.966L43.7607 19.9194ZM41.1318 19.7982C42.0785 19.7743 42.9579 19.7544 43.8093 19.9322L44.0137 18.9533C43.0297 18.7479 42.0333 18.7752 41.1066 18.7985L41.1318 19.7982ZM39.635 19.8041C40.1395 19.8233 40.6447 19.8104 41.1318 19.7982L41.1066 18.7985C40.6142 18.8109 40.1406 18.8226 39.673 18.8049L39.635 19.8041ZM39.1594 17.9434C39.149 18.3919 39.1381 18.8572 39.1543 19.322L40.1537 19.287C40.1386 18.8562 40.1486 18.42 40.1591 17.9666L39.1594 17.9434ZM39.0239 15.3741C39.1978 16.1876 39.1805 17.031 39.1594 17.9434L40.1591 17.9666C40.1798 17.0747 40.2044 16.1126 40.0018 15.165L39.0239 15.3741ZM36.1784 15.1599C36.4556 14.5705 37.0565 14.2944 37.6764 14.3468C38.2961 14.3992 38.8497 14.7734 39.0323 15.4079L39.9933 15.1312C39.6764 14.0303 38.7184 13.4313 37.7606 13.3503C36.803 13.2694 35.7602 13.6996 35.2735 14.7343L36.1784 15.1599ZM35.9576 17.7528C35.9155 16.7645 35.8862 15.9037 36.1911 15.1305L35.2608 14.7637C34.8647 15.7682 34.9182 16.8493 34.9585 17.7954L35.9576 17.7528ZM35.964 19.3294C36.0028 18.7989 35.9792 18.259 35.9576 17.7528L34.9585 17.7954C34.9806 18.3124 35.0005 18.7936 34.9667 19.2566L35.964 19.3294ZM31.7655 19.8016C32.9982 19.8018 34.2328 19.802 35.469 19.793L35.4617 18.793C34.2299 18.802 32.999 18.8018 31.7657 18.8016L31.7655 19.8016ZM29.1387 19.8045C30.0143 19.8013 30.8894 19.8015 31.7655 19.8016L31.7657 18.8016C30.8899 18.8015 30.0129 18.8013 29.1351 18.8045L29.1387 19.8045ZM28.6393 17.6589C28.624 18.2019 28.6078 18.7684 28.6376 19.331L29.6362 19.2781C29.6089 18.7628 29.6234 18.2371 29.6389 17.687L28.6393 17.6589ZM28.438 14.7124C28.6926 15.6285 28.669 16.5991 28.6393 17.6589L29.6389 17.687C29.6679 16.6548 29.7032 15.5306 29.4015 14.4446L28.438 14.7124ZM28.6442 23.7624C28.6345 25.2565 28.6345 26.7503 28.6345 28.2422L29.6345 28.2423C29.6345 26.7498 29.6345 25.2592 29.6441 23.7688L28.6442 23.7624ZM33.2072 23.2741C31.8519 23.276 30.4993 23.278 29.1487 23.2656L29.1396 24.2656C30.4964 24.278 31.8542 24.276 33.2086 24.2741L33.2072 23.2741ZM35.459 23.2733C34.7083 23.272 33.9573 23.273 33.2072 23.2741L33.2086 24.2741C33.959 24.273 34.7084 24.272 35.4572 24.2733L35.459 23.2733ZM35.9599 27.1245C35.9599 26.0078 35.9599 24.8902 35.9581 23.7725L34.9581 23.7741C34.9599 24.8909 34.9599 26.0077 34.9599 27.1245H35.9599ZM35.9617 30.4719C35.9599 29.3571 35.9599 28.2412 35.9599 27.1245L34.9599 27.1245C34.9599 28.2411 34.9599 29.3577 34.9617 30.4735L35.9617 30.4719ZM30.716 30.9813C32.2984 30.9828 33.8827 30.9842 35.4654 30.9727L35.458 29.9727C33.8802 29.9842 32.3 29.9828 30.7169 29.9813L30.716 30.9813ZM29.1333 30.9804C29.6608 30.9804 30.1883 30.9809 30.716 30.9813L30.7169 29.9813C30.1893 29.9809 29.6613 29.9804 29.1333 29.9804V30.9804ZM28.6345 28.2422C28.6345 28.9884 28.6345 29.734 28.6333 30.4796L29.6333 30.4812C29.6345 29.7347 29.6345 28.9882 29.6345 28.2423L28.6345 28.2422Z" fill="url(#paint1_linear_678_46)"/>
<defs>
<linearGradient id="paint0_linear_678_46" x1="32" y1="56.8437" x2="32" y2="7" gradientUnits="userSpaceOnUse">
<stop stop-color="#02AA93"/>
<stop offset="1" stop-color="#67FF80"/>
</linearGradient>
<linearGradient id="paint1_linear_678_46" x1="32" y1="56.8437" x2="32" y2="7" gradientUnits="userSpaceOnUse">
<stop stop-color="#02AA93"/>
<stop offset="1" stop-color="#67FF80"/>
</linearGradient>
</defs>
</svg>
