<svg width="128" height="128" viewBox="0 0 128 128" fill="none" xmlns="http://www.w3.org/2000/svg">
<path d="M51.7644 33C51.7644 30.2386 54.003 28 56.7644 28H70.7644C73.5258 28 75.7644 30.2386 75.7644 33V76C75.7644 82.6274 70.3918 88 63.7644 88V88C57.137 88 51.7644 82.6274 51.7644 76V33Z" fill="url(#paint0_linear)"/>
<path fill-rule="evenodd" clip-rule="evenodd" d="M102.764 28C100.003 28 97.7644 30.2386 97.7644 33V74C97.7644 78.4476 96.7563 82.8517 95.0543 86.9607C93.3523 91.0697 90.8576 94.8033 87.7126 97.9482C84.5677 101.093 80.8342 103.588 76.7251 105.29C72.6161 106.992 68.212 107.868 63.7644 107.868C59.3168 107.868 54.9128 106.992 50.8037 105.29C46.6947 103.588 42.9611 101.093 39.8162 97.9482C36.6713 94.8033 34.1766 91.0697 32.4746 86.9607C31.4121 84.3957 30.6715 81.7157 30.2649 78.9819C29.8587 76.2505 27.6579 74 24.8965 74H20.7644C18.003 74 15.7375 76.2446 16.0246 78.991C16.5046 83.5818 17.6451 88.0883 19.4182 92.3688C21.8304 98.1924 25.3661 103.484 29.8233 107.941C34.2805 112.398 39.572 115.934 45.3956 118.346C51.2192 120.758 57.461 122 63.7644 122C70.0679 122 76.3096 120.758 82.1332 118.346C87.9569 115.934 93.2483 112.398 97.7055 107.941C102.163 103.484 105.698 98.1924 108.111 92.3688C110.523 86.5452 111.764 80.3035 111.764 74V33C111.764 30.2386 109.526 28 106.764 28H102.764Z" fill="url(#paint1_linear)"/>
<circle cx="87.7644" cy="18" r="12" fill="url(#paint2_linear)"/>
<defs>
<linearGradient id="paint0_linear" x1="63.7644" y1="63.5555" x2="63.7644" y2="28" gradientUnits="userSpaceOnUse">
<stop stop-color="#5558FF"/>
<stop offset="1" stop-color="#00C0FF"/>
</linearGradient>
<linearGradient id="paint1_linear" x1="63.8822" y1="83.7036" x2="63.8822" y2="28" gradientUnits="userSpaceOnUse">
<stop stop-color="#5558FF"/>
<stop offset="1" stop-color="#00C0FF"/>
</linearGradient>
<linearGradient id="paint2_linear" x1="87.7644" y1="30" x2="87.7644" y2="6" gradientUnits="userSpaceOnUse">
<stop stop-color="#5570FF"/>
<stop offset="1" stop-color="#4DD3FF"/>
</linearGradient>
</defs>
</svg>
