<svg width="128" height="128" viewBox="0 0 128 128" fill="none" xmlns="http://www.w3.org/2000/svg">
<path d="M19.1765 14.3774C19.1765 11.9598 16.2268 10 12.5882 10C8.94966 10 6 11.9598 6 14.3774V114.328C6 116.746 8.94966 118.706 12.5882 118.706C16.2268 118.706 19.1765 116.746 19.1765 114.328V14.3774Z" fill="url(#paint0_linear_672_42)"/>
<path d="M109.216 14.3922H38.2091C33.3577 14.3922 29.4248 18.325 29.4248 23.1765V105.163C29.4248 110.015 33.3577 113.948 38.2091 113.948H109.216C114.067 113.948 118 110.015 118 105.163V23.1765C118 18.325 114.067 14.3922 109.216 14.3922Z" stroke="url(#paint1_linear_672_42)" stroke-width="12"/>
<path fill-rule="evenodd" clip-rule="evenodd" d="M57.5828 55.1044C57.9732 55.1044 58.3636 55.1044 58.754 54.9093V53.738C58.754 52.762 58.754 51.7859 58.9492 51.0051C58.5588 51.2003 57.9732 51.2003 57.5828 51.2003C55.045 51.2003 52.8977 49.053 52.8977 46.5154C52.8977 43.9777 55.045 41.8304 57.5828 41.8304C59.5348 41.8304 61.2917 43.0017 62.0725 44.7585C62.8534 43.7825 64.0246 42.8065 65.0006 42.0257C62.4629 37.9263 57.1923 36.5598 53.0929 39.0976C48.9935 41.6353 47.6271 46.9058 50.1648 51.0051C51.7265 53.5428 54.4594 55.1044 57.5828 55.1044ZM83.1552 44.759C84.131 42.4165 86.8644 41.2453 89.4016 42.2213C91.7441 43.1973 92.9153 45.9302 91.9395 48.4679C91.1585 50.2247 89.4016 51.3959 87.6447 51.3959C87.2546 51.3959 86.669 51.3959 86.2788 51.2007C86.4735 52.1767 86.4735 53.1528 86.4735 53.9336V55.1049C86.669 55.1049 86.8644 55.1537 87.0591 55.2024C87.2546 55.2513 87.45 55.3001 87.6447 55.3001C92.5252 55.3001 96.4291 51.3959 96.4291 46.7111C96.4291 41.8309 92.5252 37.9268 87.8402 37.9268C84.7166 37.9268 81.984 39.4884 80.4226 42.2213C81.3984 42.8069 82.3742 43.5877 83.1552 44.759ZM81.7885 53.7382C81.7885 59.0088 77.6892 63.3033 72.4189 63.3033C67.1483 63.3033 62.8538 59.0088 62.8538 53.7382C62.8538 48.6628 66.9531 44.3682 72.2237 44.3682C77.4945 44.3682 81.7885 48.4676 81.7885 53.7382ZM77.8846 53.9334C77.8846 50.8101 75.347 48.2723 72.2237 48.2723C69.2956 48.2723 66.7579 50.8101 66.7579 53.9334C66.7579 56.8615 69.1004 59.3992 72.2237 59.3992C75.347 59.3992 77.8846 57.0567 77.8846 53.9334ZM87.6447 57.2511C92.7206 57.0558 97.6003 58.8127 101.309 62.1313L101.895 62.7169V78.3331H97.9912V64.2785C95.0631 62.1313 91.3539 60.96 87.6447 61.1552C86.4735 61.1552 85.4977 61.1552 84.3265 61.3504C85.1075 60.1792 85.6932 58.8127 86.0833 57.2511H87.6447ZM59.1448 57.4467C59.5352 59.0083 60.1208 60.3748 60.9016 61.546C59.9256 61.3508 58.7544 61.1556 57.5831 61.1556C53.8742 60.9604 50.3605 62.1316 47.2371 64.2789V78.3339H43.333V62.7173L43.9186 62.1316C47.6276 59.0083 52.5077 57.2514 57.5831 57.4467H59.1448ZM88.0357 73.2587L88.4258 73.8444H88.6213V88.6796C88.6213 90.4365 87.0591 91.9986 85.3023 91.9986H60.316C58.3639 91.9986 56.9974 90.4365 56.9974 88.6796V73.8444L57.3879 73.2587C61.292 68.9639 66.953 66.4261 72.8092 66.6214C78.6657 66.4261 84.131 68.9639 88.0357 73.2587ZM60.9016 88.094H84.5219V75.2103C81.3984 72.0875 77.1036 70.3306 72.8092 70.5253C68.3195 70.5253 64.0249 72.0875 60.9016 75.2103V88.094Z" fill="url(#paint2_linear_672_42)"/>
<path d="M60.2183 54.9092L60.7093 55.8913L61.3163 55.5878V54.9092H60.2183ZM60.4134 51.0051L61.4787 51.2714L62.0577 48.9553L59.9224 50.023L60.4134 51.0051ZM63.5368 44.7585L62.5334 45.2045L63.2665 46.8541L64.3942 45.4445L63.5368 44.7585ZM66.4649 42.0257L67.1508 42.8831L67.9107 42.2751L67.3985 41.4477L66.4649 42.0257ZM51.629 51.0051L52.5642 50.4296L52.5627 50.4271L51.629 51.0051ZM90.8659 42.2213L91.2882 41.2077L91.2743 41.2019L91.2604 41.1964L90.8659 42.2213ZM84.6195 44.759L83.7059 45.3681L84.8435 47.0752L85.6326 45.1813L84.6195 44.759ZM93.4038 48.4679L94.4074 48.9139L94.4184 48.8883L94.4286 48.8621L93.4038 48.4679ZM87.743 51.2007L88.2335 50.2186L86.2255 49.2145L86.6662 51.416L87.743 51.2007ZM87.9378 55.1049H86.8397V56.2029H87.9378V55.1049ZM81.8868 42.2213L80.933 41.6765L80.4001 42.6098L81.3217 43.1629L81.8868 42.2213ZM102.774 62.1313L103.55 61.3548L103.528 61.3333L103.506 61.3129L102.774 62.1313ZM89.109 57.2511V58.3491H89.1302L89.1515 58.3483L89.109 57.2511ZM103.359 62.7169H104.457V62.262L104.136 61.9404L103.359 62.7169ZM103.359 78.3331V79.4312H104.457V78.3331H103.359ZM99.4555 78.3331H98.3574V79.4312H99.4555V78.3331ZM99.4555 64.2785H100.554V63.7221L100.105 63.3931L99.4555 64.2785ZM89.109 61.1552V62.2532H89.1383L89.1668 62.2518L89.109 61.1552ZM85.7907 61.3504L84.8772 60.7413L83.4709 62.8502L85.9715 62.4335L85.7907 61.3504ZM87.5476 57.2511V56.153H86.6904L86.4825 56.9848L87.5476 57.2511ZM62.3659 61.546L62.1505 62.6228L64.7499 63.1426L63.2795 60.9369L62.3659 61.546ZM60.609 57.4467L61.6743 57.1804L61.4664 56.3486H60.609V57.4467ZM59.0474 61.1556L58.9896 62.2521L59.0185 62.2536H59.0474V61.1556ZM48.7014 64.2789L48.0793 63.3741L47.6033 63.7013V64.2789H48.7014ZM48.7014 78.3339V79.4319H49.7994V78.3339H48.7014ZM44.7973 78.3339H43.6992V79.4319H44.7973V78.3339ZM44.7973 62.7173L44.0208 61.9408L43.6992 62.2625V62.7173H44.7973ZM45.3829 62.1316L44.6756 61.2917L44.6397 61.3219L44.6064 61.3552L45.3829 62.1316ZM59.0474 57.4467L59.0052 58.5439L59.0262 58.5447H59.0474V57.4467ZM89.8901 73.8444L88.9765 74.4534L89.3023 74.9424H89.8901V73.8444ZM89.4999 73.2587L90.4135 72.6497L90.3673 72.5809L90.3124 72.5201L89.4999 73.2587ZM90.0855 73.8444H91.1836V72.7463H90.0855V73.8444ZM58.4617 73.8444L57.5481 73.2353L57.3637 73.5113V73.8444H58.4617ZM58.8522 73.2587L58.0397 72.5201L57.9842 72.5809L57.9385 72.6497L58.8522 73.2587ZM74.2735 66.6214L74.2369 67.7188L74.2735 67.7202L74.3101 67.7188L74.2735 66.6214ZM85.9862 88.094V89.192H87.0842V88.094H85.9862ZM62.3659 88.094H61.2678V89.192H62.3659V88.094ZM85.9862 75.2103H87.0842V74.7557L86.7621 74.4344L85.9862 75.2103ZM74.2735 70.5253V71.6234H74.2984L74.3234 71.6227L74.2735 70.5253ZM62.3659 75.2103L61.5894 74.4344L61.2678 74.7557V75.2103H62.3659ZM59.7272 53.9271C59.6007 53.9903 59.4651 54.0064 59.047 54.0064V56.2024C59.4097 56.2024 60.055 56.2185 60.7093 55.8913L59.7272 53.9271ZM59.1202 53.738V54.9092H61.3163V53.738H59.1202ZM59.3482 50.7388C59.1133 51.6782 59.1202 52.8045 59.1202 53.738H61.3163C61.3163 52.7195 61.3232 51.8936 61.4787 51.2714L59.3482 50.7388ZM59.047 52.2983C59.2361 52.2983 59.5329 52.2991 59.8394 52.2685C60.134 52.239 60.5332 52.1729 60.9045 51.9872L59.9224 50.023C59.9224 50.023 59.9208 50.0238 59.917 50.0253C59.9133 50.0269 59.9078 50.029 59.9005 50.0315C59.8854 50.0367 59.8646 50.043 59.8371 50.0495C59.7807 50.0628 59.7088 50.0745 59.6209 50.0833C59.4395 50.1015 59.2483 50.1023 59.047 50.1023V52.2983ZM53.2639 46.5154C53.2639 49.6595 55.9028 52.2983 59.047 52.2983V50.1023C57.1156 50.1023 55.46 48.4466 55.46 46.5154H53.2639ZM59.047 40.7324C55.9028 40.7324 53.2639 43.3713 53.2639 46.5154H55.46C55.46 44.5842 57.1156 42.9285 59.047 42.9285V40.7324ZM64.5401 44.3126C63.5862 42.1664 61.4408 40.7324 59.047 40.7324V42.9285C60.5573 42.9285 61.9256 43.837 62.5334 45.2045L64.5401 44.3126ZM65.7789 41.1682C64.8099 41.9435 63.5464 42.9887 62.6793 44.0726L64.3942 45.4445C65.0887 44.5763 66.1677 43.6695 67.1508 42.8831L65.7789 41.1682ZM55.1352 40.0312C58.6946 37.8277 63.2975 38.9953 65.5312 42.6036L67.3985 41.4477C64.5568 36.8573 58.6185 35.292 53.9792 38.1639L55.1352 40.0312ZM52.5627 50.4271C50.3593 46.8678 51.5268 42.2649 55.1352 40.0312L53.9792 38.1639C49.3889 41.0056 47.8235 46.9439 50.6954 51.5831L52.5627 50.4271ZM59.047 54.0064C56.3035 54.0064 53.9253 52.6414 52.5642 50.4296L50.6939 51.5806C52.4562 54.4442 55.5437 56.2024 59.047 56.2024V54.0064ZM91.2604 41.1964C88.1918 40.0163 84.8208 41.4215 83.6056 44.3367L85.6326 45.1813C86.3705 43.4115 88.4648 42.4742 90.472 43.2462L91.2604 41.1964ZM94.4286 48.8621C95.6087 45.7938 94.2032 42.4224 91.2882 41.2077L90.4435 43.2349C92.2135 43.9723 93.1505 46.0667 92.379 48.0737L94.4286 48.8621ZM89.109 52.4939C91.3329 52.4939 93.4638 51.0363 94.4074 48.9139L92.4002 48.0219C91.7816 49.4131 90.3988 50.2979 89.109 50.2979V52.4939ZM87.2518 52.1828C87.623 52.3685 88.0219 52.4346 88.3169 52.4641C88.6229 52.4947 88.9201 52.4939 89.109 52.4939V50.2979C88.9077 50.2979 88.7166 50.2971 88.5351 50.2789C88.4472 50.2701 88.3755 50.2584 88.3191 50.2451C88.2913 50.2386 88.2708 50.2323 88.2555 50.2271C88.2481 50.2247 88.243 50.2225 88.2393 50.2209C88.235 50.2194 88.2335 50.2186 88.2335 50.2186L87.2518 52.1828ZM89.0358 53.9336C89.0358 53.1641 89.0387 52.0833 88.8191 50.9854L86.6662 51.416C86.8368 52.2702 86.8397 53.1415 86.8397 53.9336H89.0358ZM89.0358 55.1049V53.9336H86.8397V55.1049H89.0358ZM88.7898 54.1372C88.62 54.0949 88.2921 54.0068 87.9378 54.0068V56.2029C87.9744 56.2029 88.0366 56.2125 88.2569 56.2677L88.7898 54.1372ZM89.109 54.202C89.0724 54.202 89.0109 54.1925 88.7898 54.1372L88.2569 56.2677C88.4268 56.3101 88.7554 56.3981 89.109 56.3981V54.202ZM96.7953 46.7111C96.7953 50.7735 93.3987 54.202 89.109 54.202V56.3981C94.5794 56.3981 98.9914 52.0183 98.9914 46.7111H96.7953ZM89.3044 39.0248C93.3672 39.0248 96.7953 42.4212 96.7953 46.7111H98.9914C98.9914 41.2406 94.6116 36.8287 89.3044 36.8287V39.0248ZM82.8399 42.766C84.2037 40.3791 86.5711 39.0248 89.3044 39.0248V36.8287C85.7915 36.8287 82.6921 38.5977 80.933 41.6765L82.8399 42.766ZM85.5331 44.1499C84.6378 42.8066 83.5229 41.9228 82.4512 41.2797L81.3217 43.1629C82.2016 43.691 83.0398 44.3689 83.7059 45.3681L85.5331 44.1499ZM73.8831 64.4014C79.7896 64.4014 84.3508 59.5854 84.3508 53.7382H82.1547C82.1547 58.4321 78.518 62.2053 73.8831 62.2053V64.4014ZM63.22 53.7382C63.22 59.6152 68.0061 64.4014 73.8831 64.4014V62.2053C69.219 62.2053 65.4161 58.4023 65.4161 53.7382H63.22ZM73.688 43.2702C67.7961 43.2702 63.22 48.0713 63.22 53.7382H65.4161C65.4161 49.2543 69.0387 45.4663 73.688 45.4663V43.2702ZM84.3508 53.7382C84.3508 47.8318 79.5356 43.2702 73.688 43.2702V45.4663C78.3819 45.4663 82.1547 49.1033 82.1547 53.7382H84.3508ZM73.688 49.3704C76.2048 49.3704 78.2509 51.4165 78.2509 53.9334H80.4469C80.4469 50.2036 77.4178 47.1743 73.688 47.1743V49.3704ZM69.3202 53.9334C69.3202 51.3914 71.3911 49.3704 73.688 49.3704V47.1743C70.1287 47.1743 67.1241 50.2287 67.1241 53.9334H69.3202ZM73.688 58.3012C71.1965 58.3012 69.3202 56.2808 69.3202 53.9334H67.1241C67.1241 57.4422 69.9328 60.4972 73.688 60.4972V58.3012ZM78.2509 53.9334C78.2509 56.4004 76.2559 58.3012 73.688 58.3012V60.4972C77.3666 60.4972 80.4469 57.713 80.4469 53.9334H78.2509ZM103.506 61.3129C99.5821 57.8024 94.4235 55.9478 89.0673 56.1538L89.1515 58.3483C93.9455 58.1639 98.547 59.8231 102.042 62.9495L103.506 61.3129ZM104.136 61.9404L103.55 61.3548L101.997 62.9077L102.583 63.4933L104.136 61.9404ZM104.457 78.3331V62.7169H102.261V78.3331H104.457ZM99.4555 79.4312H103.359V77.2351H99.4555V79.4312ZM98.3574 64.2785V78.3331H100.554V64.2785H98.3574ZM89.1668 62.2518C92.6132 62.0704 96.0735 63.1605 98.8061 65.164L100.105 63.3931C96.9805 61.102 93.0231 59.8496 89.0512 60.0587L89.1668 62.2518ZM85.9715 62.4335C87.041 62.2552 87.9319 62.2532 89.109 62.2532V60.0572C87.9443 60.0572 86.8829 60.0552 85.6099 60.2673L85.9715 62.4335ZM86.4825 56.9848C86.1179 58.4416 85.5792 59.6887 84.8772 60.7413L86.7043 61.9595C87.5644 60.6696 88.1962 59.1838 88.6127 57.5174L86.4825 56.9848ZM89.109 56.153H87.5476V58.3491H89.109V56.153ZM63.2795 60.9369C62.5777 59.8843 62.0384 58.6372 61.6743 57.1804L59.5438 57.713C59.9604 59.3794 60.5924 60.8652 61.4522 62.1551L63.2795 60.9369ZM59.0474 62.2536C60.1078 62.2536 61.1937 62.4313 62.1505 62.6228L62.5812 60.4693C61.586 60.2702 60.3294 60.0575 59.0474 60.0575V62.2536ZM49.3234 65.1838C52.2813 63.1502 55.5603 62.0716 58.9896 62.2521L59.1051 60.0591C55.1166 59.8492 51.3681 61.1131 48.0793 63.3741L49.3234 65.1838ZM49.7994 78.3339V64.2789H47.6033V78.3339H49.7994ZM44.7973 79.4319H48.7014V77.2358H44.7973V79.4319ZM43.6992 62.7173V78.3339H45.8953V62.7173H43.6992ZM44.6064 61.3552L44.0208 61.9408L45.5737 63.4937L46.1593 62.908L44.6064 61.3552ZM59.0896 56.3494C53.7354 56.1435 48.5893 57.996 44.6756 61.2917L46.0902 62.9716C49.5944 60.0206 54.2085 58.3594 59.0052 58.5439L59.0896 56.3494ZM60.609 56.3486H59.0474V58.5447H60.609V56.3486ZM90.8036 73.2353L90.4135 72.6497L88.5863 73.8678L88.9765 74.4534L90.8036 73.2353ZM90.0855 72.7463H89.8901V74.9424H90.0855V72.7463ZM91.1836 88.6796V73.8444H88.9875V88.6796H91.1836ZM86.7665 93.0966C89.1302 93.0966 91.1836 91.0433 91.1836 88.6796H88.9875C88.9875 89.8303 87.9173 90.9006 86.7665 90.9006V93.0966ZM61.7803 93.0966H86.7665V90.9006H61.7803V93.0966ZM57.3637 88.6796C57.3637 91.0001 59.18 93.0966 61.7803 93.0966V90.9006C60.4764 90.9006 59.5597 89.8728 59.5597 88.6796H57.3637ZM57.3637 73.8444V88.6796H59.5597V73.8444H57.3637ZM57.9385 72.6497L57.5481 73.2353L59.3753 74.4534L59.7658 73.8678L57.9385 72.6497ZM74.3101 65.5239C68.115 65.3174 62.1488 67.9999 58.0397 72.5201L59.6646 73.9973C63.3638 69.928 68.7196 67.535 74.2369 67.7188L74.3101 65.5239ZM90.3124 72.5201C86.2109 68.0079 80.4425 65.3171 74.2369 65.5239L74.3101 67.7188C79.8167 67.535 84.9804 69.9192 88.6874 73.9973L90.3124 72.5201ZM85.9862 86.9959H62.3659V89.192H85.9862V86.9959ZM84.8881 75.2103V88.094H87.0842V75.2103H84.8881ZM74.3234 71.6227C78.2897 71.4418 82.2902 73.0669 85.2095 75.987L86.7621 74.4344C83.4351 71.1073 78.846 69.2187 74.2236 69.4288L74.3234 71.6227ZM63.1423 75.987C66.0328 73.0962 70.0346 71.6234 74.2735 71.6234V69.4273C69.5329 69.4273 64.9455 71.078 61.5894 74.4344L63.1423 75.987ZM63.4639 88.094V75.2103H61.2678V88.094H63.4639Z" fill="url(#paint3_linear_672_42)"/>
<path d="M60.7093 55.8913L60.2183 54.9092H61.3163M60.7093 55.8913L61.3163 55.5878V54.9092M60.7093 55.8913C60.055 56.2185 59.4097 56.2024 59.047 56.2024M60.7093 55.8913L59.7272 53.9271C59.6007 53.9903 59.4651 54.0064 59.047 54.0064M61.3163 54.9092H59.1202V53.738M61.3163 54.9092V53.738M61.4787 51.2714L60.4134 51.0051L59.9224 50.023M61.4787 51.2714L62.0577 48.9553L59.9224 50.023M61.4787 51.2714C61.3232 51.8936 61.3163 52.7195 61.3163 53.738M61.4787 51.2714L59.3482 50.7388C59.1133 51.6782 59.1202 52.8045 59.1202 53.738M59.9224 50.023L60.9045 51.9872C60.5332 52.1729 60.134 52.239 59.8394 52.2685C59.5329 52.2991 59.2361 52.2983 59.047 52.2983M59.9224 50.023C59.9224 50.023 59.9208 50.0238 59.917 50.0253C59.9133 50.0269 59.9078 50.029 59.9005 50.0315C59.8854 50.0367 59.8646 50.043 59.8371 50.0495C59.7807 50.0628 59.7088 50.0745 59.6209 50.0833C59.4395 50.1015 59.2483 50.1023 59.047 50.1023M62.5334 45.2045L63.5368 44.7585L64.3942 45.4445M62.5334 45.2045L63.2665 46.8541L64.3942 45.4445M62.5334 45.2045C61.9256 43.837 60.5573 42.9285 59.047 42.9285M62.5334 45.2045L64.5401 44.3126C63.5862 42.1664 61.4408 40.7324 59.047 40.7324M64.3942 45.4445L62.6793 44.0726C63.5464 42.9887 64.8099 41.9435 65.7789 41.1682L67.1508 42.8831M64.3942 45.4445C65.0887 44.5763 66.1677 43.6695 67.1508 42.8831M67.1508 42.8831L66.4649 42.0257L67.3985 41.4477M67.1508 42.8831L67.9107 42.2751L67.3985 41.4477M67.3985 41.4477L65.5312 42.6036C63.2975 38.9953 58.6946 37.8277 55.1352 40.0312M67.3985 41.4477C64.5568 36.8573 58.6185 35.292 53.9792 38.1639M54.5571 39.0976L53.9792 38.1639M53.9792 38.1639L55.1352 40.0312M53.9792 38.1639C49.3889 41.0056 47.8235 46.9439 50.6954 51.5831L52.5627 50.4271M52.5642 50.4296L51.629 51.0051L52.5627 50.4271M52.5642 50.4296L52.5627 50.4271M52.5642 50.4296C53.9253 52.6414 56.3035 54.0064 59.047 54.0064M52.5642 50.4296L50.6939 51.5806C52.4562 54.4442 55.5437 56.2024 59.047 56.2024M52.5627 50.4271C50.3593 46.8678 51.5268 42.2649 55.1352 40.0312M91.2882 41.2077L90.8659 42.2213L91.2604 41.1964M91.2882 41.2077L91.2743 41.2019L91.2604 41.1964M91.2882 41.2077C94.2032 42.4224 95.6087 45.7938 94.4286 48.8621M91.2882 41.2077L90.4435 43.2349C92.2135 43.9723 93.1505 46.0667 92.379 48.0737L94.4286 48.8621M91.2604 41.1964C88.1918 40.0163 84.8208 41.4215 83.6056 44.3367L85.6326 45.1813M91.2604 41.1964L90.472 43.2462C88.4648 42.4742 86.3705 43.4115 85.6326 45.1813M83.7059 45.3681L84.6195 44.759L85.6326 45.1813M83.7059 45.3681L84.8435 47.0752L85.6326 45.1813M83.7059 45.3681C83.0398 44.3689 82.2016 43.691 81.3217 43.1629M83.7059 45.3681L85.5331 44.1499C84.6378 42.8066 83.5229 41.9228 82.4512 41.2797L81.3217 43.1629M94.4074 48.9139L93.4038 48.4679L94.4286 48.8621M94.4074 48.9139L94.4184 48.8883L94.4286 48.8621M94.4074 48.9139C93.4638 51.0363 91.3329 52.4939 89.109 52.4939M94.4074 48.9139L92.4002 48.0219C91.7816 49.4131 90.3988 50.2979 89.109 50.2979M88.2335 50.2186L87.743 51.2007L86.6662 51.416M88.2335 50.2186L86.2255 49.2145L86.6662 51.416M88.2335 50.2186C88.2335 50.2186 88.235 50.2194 88.2393 50.2209C88.243 50.2225 88.2481 50.2247 88.2555 50.2271C88.2708 50.2323 88.2913 50.2386 88.3191 50.2451C88.3755 50.2584 88.4472 50.2701 88.5351 50.2789C88.7166 50.2971 88.9077 50.2979 89.109 50.2979M88.2335 50.2186L87.2518 52.1828C87.623 52.3685 88.0219 52.4346 88.3169 52.4641C88.6229 52.4947 88.9201 52.4939 89.109 52.4939M86.6662 51.416L88.8191 50.9854C89.0387 52.0833 89.0358 53.1641 89.0358 53.9336M86.6662 51.416C86.8368 52.2702 86.8397 53.1415 86.8397 53.9336M86.8397 55.1049H87.9378V56.2029M86.8397 55.1049V56.2029H87.9378M86.8397 55.1049V53.9336M86.8397 55.1049H89.0358V53.9336M87.9378 56.2029V54.0068C88.2921 54.0068 88.62 54.0949 88.7898 54.1372M87.9378 56.2029C87.9744 56.2029 88.0366 56.2125 88.2569 56.2677M80.933 41.6765L81.8868 42.2213L81.3217 43.1629M80.933 41.6765L80.4001 42.6098L81.3217 43.1629M80.933 41.6765C82.6921 38.5977 85.7915 36.8287 89.3044 36.8287M80.933 41.6765L82.8399 42.766C84.2037 40.3791 86.5711 39.0248 89.3044 39.0248M103.55 61.3548L102.774 62.1313L103.506 61.3129M103.55 61.3548L103.528 61.3333L103.506 61.3129M103.55 61.3548L104.136 61.9404M103.55 61.3548L101.997 62.9077L102.583 63.4933L104.136 61.9404M103.506 61.3129C99.5821 57.8024 94.4235 55.9478 89.0673 56.1538L89.1515 58.3483M103.506 61.3129L102.042 62.9495C98.547 59.8231 93.9455 58.1639 89.1515 58.3483M89.109 58.3491V57.2511L89.1515 58.3483M89.109 58.3491H89.1302L89.1515 58.3483M89.109 58.3491H87.5476V56.153M89.109 58.3491V56.153H87.5476M104.457 62.7169H103.359L104.136 61.9404M104.457 62.7169V62.262L104.136 61.9404M104.457 62.7169V78.3331M104.457 62.7169H102.261V78.3331H104.457M103.359 79.4312V78.3331H104.457M103.359 79.4312H104.457V78.3331M103.359 79.4312H99.4555M103.359 79.4312V77.2351H99.4555V79.4312M98.3574 78.3331H99.4555V79.4312M98.3574 78.3331V79.4312H99.4555M98.3574 78.3331V64.2785H100.554M98.3574 78.3331H100.554V64.2785M100.554 64.2785H99.4555L100.105 63.3931M100.554 64.2785V63.7221L100.105 63.3931M100.105 63.3931L98.8061 65.164C96.0735 63.1605 92.6132 62.0704 89.1668 62.2518M100.105 63.3931C96.9805 61.102 93.0231 59.8496 89.0512 60.0587L89.1668 62.2518M89.109 62.2532V61.1552L89.1668 62.2518M89.109 62.2532H89.1383L89.1668 62.2518M89.109 62.2532V60.0572C87.9443 60.0572 86.8829 60.0552 85.6099 60.2673L85.9715 62.4335M89.109 62.2532C87.9319 62.2532 87.041 62.2552 85.9715 62.4335M84.8772 60.7413L85.7907 61.3504L85.9715 62.4335M84.8772 60.7413L83.4709 62.8502L85.9715 62.4335M84.8772 60.7413C85.5792 59.6887 86.1179 58.4416 86.4825 56.9848M84.8772 60.7413L86.7043 61.9595C87.5644 60.6696 88.1962 59.1838 88.6127 57.5174L86.4825 56.9848M87.5476 56.153V57.2511L86.4825 56.9848M87.5476 56.153H86.6904L86.4825 56.9848M62.1505 62.6228L62.3659 61.546L63.2795 60.9369M62.1505 62.6228L64.7499 63.1426L63.2795 60.9369M62.1505 62.6228C61.1937 62.4313 60.1078 62.2536 59.0474 62.2536M62.1505 62.6228L62.5812 60.4693C61.586 60.2702 60.3294 60.0575 59.0474 60.0575V62.2536M63.2795 60.9369C62.5777 59.8843 62.0384 58.6372 61.6743 57.1804M63.2795 60.9369L61.4522 62.1551C60.5924 60.8652 59.9604 59.3794 59.5438 57.713L61.6743 57.1804M61.6743 57.1804L60.609 57.4467V56.3486M61.6743 57.1804L61.4664 56.3486H60.609M60.609 56.3486H59.0474V58.5447M60.609 56.3486V58.5447H59.0474M58.9896 62.2521L59.0474 61.1556V62.2536M58.9896 62.2521L59.0185 62.2536H59.0474M58.9896 62.2521C55.5603 62.0716 52.2813 63.1502 49.3234 65.1838L48.0793 63.3741M58.9896 62.2521L59.1051 60.0591C55.1166 59.8492 51.3681 61.1131 48.0793 63.3741M48.0793 63.3741L48.7014 64.2789H47.6033M48.0793 63.3741L47.6033 63.7013V64.2789M47.6033 64.2789H49.7994V78.3339M47.6033 64.2789V78.3339H49.7994M48.7014 79.4319V78.3339H49.7994M48.7014 79.4319H49.7994V78.3339M48.7014 79.4319H44.7973M48.7014 79.4319V77.2358H44.7973V79.4319M43.6992 78.3339H44.7973V79.4319M43.6992 78.3339V79.4319H44.7973M43.6992 78.3339V62.7173M43.6992 78.3339H45.8953V62.7173H43.6992M44.0208 61.9408L44.7973 62.7173H43.6992M44.0208 61.9408L43.6992 62.2625V62.7173M44.0208 61.9408L44.6064 61.3552M44.0208 61.9408L45.5737 63.4937L46.1593 62.908L44.6064 61.3552M44.6756 61.2917L45.3829 62.1316L44.6064 61.3552M44.6756 61.2917L44.6397 61.3219L44.6064 61.3552M44.6756 61.2917C48.5893 57.996 53.7354 56.1435 59.0896 56.3494L59.0052 58.5439M44.6756 61.2917L46.0902 62.9716C49.5944 60.0206 54.2085 58.3594 59.0052 58.5439M59.0052 58.5439L59.0474 57.4467V58.5447M59.0052 58.5439L59.0262 58.5447H59.0474M88.9765 74.4534L89.8901 73.8444V74.9424M88.9765 74.4534L89.3023 74.9424H89.8901M88.9765 74.4534L88.5863 73.8678L90.4135 72.6497M88.9765 74.4534L90.8036 73.2353L90.4135 72.6497M89.8901 74.9424V72.7463H90.0855M89.8901 74.9424H90.0855V72.7463M90.4135 72.6497L89.4999 73.2587L90.3124 72.5201M90.4135 72.6497L90.3673 72.5809L90.3124 72.5201M90.3124 72.5201C86.2109 68.0079 80.4425 65.3171 74.2369 65.5239L74.3101 67.7188M90.3124 72.5201L88.6874 73.9973C84.9804 69.9192 79.8167 67.535 74.3101 67.7188M91.1836 73.8444H90.0855V72.7463M91.1836 73.8444V72.7463H90.0855M91.1836 73.8444V88.6796M91.1836 73.8444H88.9875V88.6796M57.5481 73.2353L58.4617 73.8444H57.3637M57.5481 73.2353L57.3637 73.5113V73.8444M57.5481 73.2353L57.9385 72.6497M57.5481 73.2353L59.3753 74.4534L59.7658 73.8678L57.9385 72.6497M57.3637 73.8444V88.6796M57.3637 73.8444H59.5597V88.6796M58.0397 72.5201L58.8522 73.2587L57.9385 72.6497M58.0397 72.5201L57.9842 72.5809L57.9385 72.6497M58.0397 72.5201C62.1488 67.9999 68.115 65.3174 74.3101 65.5239L74.2369 67.7188M58.0397 72.5201L59.6646 73.9973C63.3638 69.928 68.7196 67.535 74.2369 67.7188M74.2369 67.7188L74.2735 66.6214L74.3101 67.7188M74.2369 67.7188L74.2735 67.7202L74.3101 67.7188M85.9862 89.192V88.094H87.0842M85.9862 89.192H87.0842V88.094M85.9862 89.192H62.3659M85.9862 89.192V86.9959H62.3659V89.192M87.0842 88.094H84.8881V75.2103H87.0842M87.0842 88.094V75.2103M61.2678 88.094H62.3659V89.192M61.2678 88.094V89.192H62.3659M61.2678 88.094V75.2103M61.2678 88.094H63.4639V75.2103H61.2678M87.0842 75.2103H85.9862L86.7621 74.4344M87.0842 75.2103V74.7557L86.7621 74.4344M86.7621 74.4344L85.2095 75.987C82.2902 73.0669 78.2897 71.4418 74.3234 71.6227M86.7621 74.4344C83.4351 71.1073 78.846 69.2187 74.2236 69.4288L74.3234 71.6227M74.2735 71.6234V70.5253L74.3234 71.6227M74.2735 71.6234H74.2984L74.3234 71.6227M74.2735 71.6234C70.0346 71.6234 66.0328 73.0962 63.1423 75.987L61.5894 74.4344M74.2735 71.6234V69.4273C69.5329 69.4273 64.9455 71.078 61.5894 74.4344M61.5894 74.4344L62.3659 75.2103H61.2678M61.5894 74.4344L61.2678 74.7557V75.2103M59.047 54.0064V56.2024M59.1202 53.738H61.3163M59.047 52.2983V50.1023M59.047 52.2983C55.9028 52.2983 53.2639 49.6595 53.2639 46.5154M59.047 50.1023C57.1156 50.1023 55.46 48.4466 55.46 46.5154M53.2639 46.5154H55.46M53.2639 46.5154C53.2639 43.3713 55.9028 40.7324 59.047 40.7324M55.46 46.5154C55.46 44.5842 57.1156 42.9285 59.047 42.9285M59.047 40.7324V42.9285M89.109 52.4939V50.2979M89.0358 53.9336H86.8397M88.7898 54.1372L88.2569 56.2677M88.7898 54.1372C89.0109 54.1925 89.0724 54.202 89.109 54.202M88.2569 56.2677C88.4268 56.3101 88.7554 56.3981 89.109 56.3981M89.109 54.202V56.3981M89.109 54.202C93.3987 54.202 96.7953 50.7735 96.7953 46.7111M89.109 56.3981C94.5794 56.3981 98.9914 52.0183 98.9914 46.7111M96.7953 46.7111H98.9914M96.7953 46.7111C96.7953 42.4212 93.3672 39.0248 89.3044 39.0248M98.9914 46.7111C98.9914 41.2406 94.6116 36.8287 89.3044 36.8287M89.3044 39.0248V36.8287M73.8831 64.4014C79.7896 64.4014 84.3508 59.5854 84.3508 53.7382M73.8831 64.4014V62.2053M73.8831 64.4014C68.0061 64.4014 63.22 59.6152 63.22 53.7382M84.3508 53.7382H82.1547M84.3508 53.7382C84.3508 47.8318 79.5356 43.2702 73.688 43.2702M82.1547 53.7382C82.1547 58.4321 78.518 62.2053 73.8831 62.2053M82.1547 53.7382C82.1547 49.1033 78.3819 45.4663 73.688 45.4663M73.8831 62.2053C69.219 62.2053 65.4161 58.4023 65.4161 53.7382M63.22 53.7382H65.4161M63.22 53.7382C63.22 48.0713 67.7961 43.2702 73.688 43.2702M65.4161 53.7382C65.4161 49.2543 69.0387 45.4663 73.688 45.4663M73.688 43.2702V45.4663M73.688 49.3704C76.2048 49.3704 78.2509 51.4165 78.2509 53.9334M73.688 49.3704V47.1743M73.688 49.3704C71.3911 49.3704 69.3202 51.3914 69.3202 53.9334M78.2509 53.9334H80.4469M78.2509 53.9334C78.2509 56.4004 76.2559 58.3012 73.688 58.3012M80.4469 53.9334C80.4469 50.2036 77.4178 47.1743 73.688 47.1743M80.4469 53.9334C80.4469 57.713 77.3666 60.4972 73.688 60.4972M73.688 47.1743C70.1287 47.1743 67.1241 50.2287 67.1241 53.9334M69.3202 53.9334H67.1241M69.3202 53.9334C69.3202 56.2808 71.1965 58.3012 73.688 58.3012M67.1241 53.9334C67.1241 57.4422 69.9328 60.4972 73.688 60.4972M73.688 58.3012V60.4972M91.1836 88.6796H88.9875M91.1836 88.6796C91.1836 91.0433 89.1302 93.0966 86.7665 93.0966M88.9875 88.6796C88.9875 89.8303 87.9173 90.9006 86.7665 90.9006M86.7665 93.0966V90.9006M86.7665 93.0966H61.7803M86.7665 90.9006H61.7803M61.7803 93.0966V90.9006M61.7803 93.0966C59.18 93.0966 57.3637 91.0001 57.3637 88.6796M61.7803 90.9006C60.4764 90.9006 59.5597 89.8728 59.5597 88.6796M57.3637 88.6796H59.5597" stroke="url(#paint4_linear_672_42)"/>
<defs>
<linearGradient id="paint0_linear_672_42" x1="12.5882" y1="118.706" x2="12.5882" y2="10" gradientUnits="userSpaceOnUse">
<stop stop-color="#5570FF"/>
<stop offset="1" stop-color="#4DD3FF"/>
</linearGradient>
<linearGradient id="paint1_linear_672_42" x1="73.7124" y1="108.091" x2="73.7124" y2="20.2484" gradientUnits="userSpaceOnUse">
<stop stop-color="#5570FF"/>
<stop offset="1" stop-color="#4DD3FF"/>
</linearGradient>
<linearGradient id="paint2_linear_672_42" x1="48.7807" y1="64.9076" x2="91.9081" y2="64.9076" gradientUnits="userSpaceOnUse">
<stop stop-color="#5570FF"/>
<stop offset="1" stop-color="#4DD3FF"/>
</linearGradient>
<linearGradient id="paint3_linear_672_42" x1="50.2449" y1="64.9076" x2="93.3723" y2="64.9076" gradientUnits="userSpaceOnUse">
<stop stop-color="#5570FF"/>
<stop offset="1" stop-color="#4DD3FF"/>
</linearGradient>
<linearGradient id="paint4_linear_672_42" x1="50.2449" y1="64.9076" x2="93.3723" y2="64.9076" gradientUnits="userSpaceOnUse">
<stop stop-color="#5570FF"/>
<stop offset="1" stop-color="#4DD3FF"/>
</linearGradient>
</defs>
</svg>
