<svg width="128" height="128" viewBox="0 0 128 128" fill="none" xmlns="http://www.w3.org/2000/svg">
<path d="M101.76 54.0295H13.3985C11.52 54.0295 10 55.5496 10 57.4281V77.8192C10 102.18 29.8202 122 54.1808 122C65.4238 122 75.6677 117.743 83.474 110.802C86.2001 109.447 118.753 92.8129 118.753 71.0222C118.753 61.6532 111.129 54.0295 101.76 54.0295ZM91.5645 77.8192C91.5645 98.4331 74.7942 115.203 54.1808 115.203C33.5674 115.203 16.797 98.4331 16.797 77.8192V60.8266H91.5645V77.8192ZM94.411 95.9808C96.9263 90.4328 98.3616 84.2961 98.3616 77.8195V60.8269H101.76C107.382 60.8269 111.955 65.4004 111.955 71.0225C111.955 80.732 102.858 89.7134 94.411 95.9808Z" fill="url(#paint0_linear_678_51)" stroke="url(#paint1_linear_678_51)" stroke-width="3"/>
<path fill-rule="evenodd" clip-rule="evenodd" d="M45.7971 34.8846C45.7971 37.3538 43.8755 40.3275 43.1353 41.2669C41.9771 42.737 42.2193 44.8711 43.6863 46.0361C45.1565 47.2029 47.2836 46.963 48.4522 45.5051C48.8736 44.974 52.5941 40.1716 52.5941 34.8846C52.5941 29.5977 48.8736 24.7954 48.4522 24.2643C47.7618 23.4046 45.7971 20.3879 45.7971 17.892C45.7971 15.4229 47.7186 12.4492 48.4588 11.5098C49.617 10.0396 49.3748 7.90559 47.9077 6.74057C46.4342 5.56899 44.3101 5.81799 43.1419 7.27165C42.7205 7.80272 39 12.6051 39 17.892C39 23.179 42.7205 27.9814 43.1419 28.5124C43.8322 29.372 45.7971 32.389 45.7971 34.8846ZM66.1877 34.8846C66.1877 37.3538 64.2662 40.3275 63.5259 41.2669C62.3678 42.737 62.6099 44.8711 64.0769 46.0361C65.5471 47.2029 67.6742 46.963 68.8428 45.5051C69.2642 44.974 72.9847 40.1716 72.9847 34.8846C72.9847 29.5977 69.2642 24.7954 68.8428 24.2643C68.1524 23.4046 66.1877 20.3879 66.1877 17.892C66.1877 15.4229 68.1092 12.4492 68.8493 11.5098C70.0076 10.0396 69.7654 7.90559 68.2983 6.74057C66.8281 5.56899 64.7041 5.81799 63.5325 7.27165C63.1111 7.80272 59.3906 12.6051 59.3906 17.892C59.3906 23.179 63.1111 27.9814 63.5325 28.5124C64.2228 29.372 66.1877 32.389 66.1877 34.8846Z" fill="url(#paint2_linear_678_51)"/>
<path d="M43.1353 41.2669L41.5644 40.0291L41.5643 40.0292L43.1353 41.2669ZM43.6863 46.0361L42.4426 47.6024L42.443 47.6027L43.6863 46.0361ZM48.4522 45.5051L50.0128 46.7559L50.0189 46.7483L48.4522 45.5051ZM48.4522 24.2643L50.0189 23.0211L50.0116 23.012L48.4522 24.2643ZM48.4588 11.5098L50.0297 12.7477L50.0299 12.7475L48.4588 11.5098ZM47.9077 6.74057L46.663 8.30607L46.6639 8.30678L47.9077 6.74057ZM43.1419 7.27165L41.5829 6.01882L41.5752 6.02848L43.1419 7.27165ZM43.1419 28.5124L41.5752 29.7556L41.5825 29.7647L43.1419 28.5124ZM63.5259 41.2669L61.955 40.0291L61.9549 40.0292L63.5259 41.2669ZM64.0769 46.0361L62.8332 47.6024L62.8336 47.6027L64.0769 46.0361ZM68.8428 45.5051L70.4034 46.7559L70.4095 46.7483L68.8428 45.5051ZM68.8428 24.2643L70.4095 23.0211L70.4022 23.012L68.8428 24.2643ZM68.8493 11.5098L70.4203 12.7476L70.4204 12.7475L68.8493 11.5098ZM68.2983 6.74057L67.0519 8.30469L67.0546 8.30678L68.2983 6.74057ZM63.5325 7.27165L61.9753 6.01661L61.9705 6.02252L61.9658 6.02847L63.5325 7.27165ZM63.5325 28.5124L61.9658 29.7556L61.9731 29.7648L63.5325 28.5124ZM44.7062 42.5047C45.1597 41.9292 45.9019 40.8316 46.5398 39.5293C47.1608 38.2616 47.7971 36.5731 47.7971 34.8846H43.7971C43.7971 35.6653 43.4725 36.6982 42.9477 37.7696C42.4398 38.8063 41.8511 39.6652 41.5644 40.0291L44.7062 42.5047ZM44.9301 44.4699C44.331 43.9942 44.2256 43.1148 44.7063 42.5046L41.5643 40.0292C39.7286 42.3593 40.1076 45.7481 42.4426 47.6024L44.9301 44.4699ZM46.8916 44.2542C46.4133 44.851 45.5398 44.9538 44.9296 44.4695L42.443 47.6027C44.7732 49.4521 48.1539 49.0751 50.0128 46.7559L46.8916 44.2542ZM50.5941 34.8846C50.5941 37.0858 49.8101 39.2834 48.8994 41.07C47.9992 42.8357 47.0509 44.0534 46.8855 44.2619L50.0189 46.7483C50.2749 46.4256 51.3975 44.9767 52.463 42.8867C53.5179 40.8175 54.5941 37.9704 54.5941 34.8846H50.5941ZM46.8855 25.5075C47.0509 25.7159 47.9992 26.9337 48.8994 28.6994C49.8101 30.4859 50.5941 32.6835 50.5941 34.8846H54.5941C54.5941 31.7988 53.5179 28.9518 52.463 26.8826C51.3975 24.7927 50.2749 23.3437 50.0189 23.0211L46.8855 25.5075ZM43.7971 17.892C43.7971 19.5971 44.4464 21.305 45.0712 22.5747C45.7122 23.8775 46.4544 24.9707 46.8928 25.5166L50.0116 23.012C49.7596 22.6982 49.1742 21.8533 48.6603 20.8087C48.13 19.7312 47.7971 18.6828 47.7971 17.892H43.7971ZM46.8879 10.272C46.4344 10.8475 45.6922 11.9451 45.0543 13.2474C44.4333 14.515 43.7971 16.2036 43.7971 17.892H47.7971C47.7971 17.1113 48.1216 16.0785 48.6464 15.0071C49.1543 13.9704 49.743 13.1115 50.0297 12.7477L46.8879 10.272ZM46.6639 8.30678C47.2631 8.78261 47.3684 9.66199 46.8877 10.2722L50.0299 12.7475C51.8655 10.4173 51.4864 7.02857 49.1515 5.17436L46.6639 8.30678ZM44.7009 8.52445C45.1837 7.92373 46.0558 7.82328 46.663 8.30607L49.1524 5.17508C46.8125 3.31469 43.4365 3.71224 41.5829 6.01885L44.7009 8.52445ZM41 17.892C41 15.6909 41.784 13.4932 42.6948 11.7067C43.5949 9.94105 44.5432 8.72328 44.7086 8.51482L41.5752 6.02848C41.3192 6.35109 40.1966 7.80003 39.1311 9.89001C38.0763 11.9592 37 14.8062 37 17.892H41ZM44.7086 27.2692C44.5432 27.0608 43.5949 25.843 42.6948 24.0773C41.784 22.2908 41 20.0932 41 17.892H37C37 20.9778 38.0763 23.8249 39.1311 25.894C40.1966 27.984 41.3192 29.433 41.5752 29.7556L44.7086 27.2692ZM47.7971 34.8846C47.7971 33.1796 47.1476 31.4717 46.5229 30.202C45.8819 28.8993 45.1397 27.806 44.7013 27.2601L41.5825 29.7647C41.8344 30.0784 42.4198 30.9234 42.9338 31.968C43.4641 33.0456 43.7971 34.094 43.7971 34.8846H47.7971ZM65.0969 42.5047C65.5503 41.9292 66.2925 40.8316 66.9305 39.5293C67.5514 38.2616 68.1877 36.5731 68.1877 34.8846H64.1877C64.1877 35.6653 63.8632 36.6982 63.3383 37.7696C62.8305 38.8063 62.2418 39.6652 61.955 40.0291L65.0969 42.5047ZM65.3207 44.4699C64.7216 43.9942 64.6163 43.1148 65.097 42.5046L61.9549 40.0292C60.1192 42.3593 60.4982 45.7481 62.8332 47.6024L65.3207 44.4699ZM67.2822 44.2542C66.8039 44.851 65.9304 44.9538 65.3202 44.4695L62.8336 47.6027C65.1639 49.4521 68.5445 49.0751 70.4034 46.7559L67.2822 44.2542ZM70.9847 34.8846C70.9847 37.0858 70.2007 39.2834 69.29 41.07C68.3898 42.8357 67.4415 44.0534 67.2761 44.2619L70.4095 46.7483C70.6655 46.4256 71.7882 44.9767 72.8536 42.8867C73.9085 40.8175 74.9847 37.9704 74.9847 34.8846H70.9847ZM67.2761 25.5075C67.4415 25.7159 68.3898 26.9337 69.29 28.6994C70.2007 30.4859 70.9847 32.6835 70.9847 34.8846H74.9847C74.9847 31.7988 73.9085 28.9518 72.8536 26.8826C71.7882 24.7927 70.6655 23.3437 70.4095 23.0211L67.2761 25.5075ZM64.1877 17.892C64.1877 19.5971 64.8371 21.305 65.4618 22.5747C66.1028 23.8775 66.845 24.9707 67.2834 25.5166L70.4022 23.012C70.1502 22.6982 69.5648 21.8533 69.0509 20.8087C68.5207 19.7312 68.1877 18.6828 68.1877 17.892H64.1877ZM67.2784 10.272C66.825 10.8475 66.0828 11.9452 65.4449 13.2474C64.8239 14.515 64.1877 16.2036 64.1877 17.892H68.1877C68.1877 17.1113 68.5122 16.0785 69.037 15.0071C69.5449 13.9704 70.1336 13.1115 70.4203 12.7476L67.2784 10.272ZM67.0546 8.30678C67.6537 8.7826 67.7591 9.66194 67.2783 10.2721L70.4204 12.7475C72.2562 10.4173 71.877 7.02858 69.5421 5.17436L67.0546 8.30678ZM65.0897 8.52669C65.5778 7.92106 66.4508 7.82567 67.0519 8.30469L69.5448 5.17646C67.2054 3.3123 63.8303 3.71492 61.9753 6.01661L65.0897 8.52669ZM61.3906 17.892C61.3906 15.6909 62.1746 13.4932 63.0853 11.7067C63.9855 9.94103 64.9338 8.72327 65.0992 8.51483L61.9658 6.02847C61.7098 6.35111 60.5871 7.80005 59.5217 9.89003C58.4669 11.9592 57.3906 14.8062 57.3906 17.892H61.3906ZM65.0991 27.2692C64.9338 27.0608 63.9855 25.8431 63.0853 24.0773C62.1746 22.2908 61.3906 20.0932 61.3906 17.892H57.3906C57.3906 20.9778 58.4669 23.8248 59.5217 25.894C60.5871 27.984 61.7098 29.433 61.9658 29.7556L65.0991 27.2692ZM68.1877 34.8846C68.1877 33.1796 67.5382 31.4717 66.9135 30.202C66.2725 28.8993 65.5302 27.8059 65.0918 27.26L61.9731 29.7648C62.2251 30.0785 62.8105 30.9234 63.3244 31.968C63.8547 33.0456 64.1877 34.094 64.1877 34.8846H68.1877Z" fill="url(#paint3_linear_678_51)"/>
<defs>
<linearGradient id="paint0_linear_678_51" x1="64.3763" y1="122" x2="64.3763" y2="54.0295" gradientUnits="userSpaceOnUse">
<stop stop-color="#02AA93"/>
<stop offset="1" stop-color="#67FF80"/>
</linearGradient>
<linearGradient id="paint1_linear_678_51" x1="64.3763" y1="122" x2="64.3763" y2="54.0295" gradientUnits="userSpaceOnUse">
<stop stop-color="#02AA93"/>
<stop offset="1" stop-color="#67FF80"/>
</linearGradient>
<linearGradient id="paint2_linear_678_51" x1="55.9926" y1="46.776" x2="55.9926" y2="6" gradientUnits="userSpaceOnUse">
<stop stop-color="#AC3E00"/>
<stop offset="1" stop-color="#FF620A"/>
</linearGradient>
<linearGradient id="paint3_linear_678_51" x1="55.9926" y1="46.776" x2="55.9926" y2="6" gradientUnits="userSpaceOnUse">
<stop stop-color="#AC3E00"/>
<stop offset="1" stop-color="#FF620A"/>
</linearGradient>
</defs>
</svg>
