<svg width="64" height="64" viewBox="0 0 64 64" fill="none" xmlns="http://www.w3.org/2000/svg">
<path d="M4.65087 9.31332C14.5509 7.40332 24.4543 5.49998 34.3609 3.60332C35.4976 3.25665 36.8076 4.13332 36.8543 5.33332C36.9109 7.88998 36.8543 10.4467 36.8776 13.0067C37.5276 12.8967 38.2209 12.8267 38.7709 12.42C39.5276 11.9267 39.8309 11.03 40.3543 10.3333C41.4909 8.82665 43.4676 8.02998 45.3343 8.28332C47.8676 8.51665 49.8843 10.8533 50.0543 13.34C50.1609 14.5833 49.5643 15.7667 49.6276 17.0067C49.7809 18.72 51.7343 19.83 53.3209 19.3533C54.6043 18.9333 56.0343 18.71 57.3043 19.3033C60.5176 20.6033 61.7009 25.17 59.5776 27.89C58.9709 28.7666 57.9443 29.15 57.1209 29.77C55.5876 30.9133 55.6743 33.64 57.3476 34.6166C58.2476 35.1533 59.2176 35.6733 59.7709 36.6033C61.3276 38.8766 60.7476 42.25 58.6076 43.9533C57.2309 45.04 55.2609 45.4533 53.6143 44.75C51.9976 43.96 49.9276 45.0067 49.5009 46.72C49.1143 48.0666 49.9943 49.33 49.9176 50.6733C49.8209 52.5833 48.6309 54.41 46.9009 55.23C44.9843 56.2433 42.4143 56 40.8209 54.4933C40.1009 53.8366 39.7443 52.9 39.1343 52.1566C38.5709 51.5 37.6909 51.32 36.8876 51.14C36.8509 53.65 36.9009 56.1633 36.8643 58.6766C36.9043 59.67 36.0276 60.6267 35.0176 60.6067C34.2009 60.5967 33.4043 60.3966 32.6043 60.24C23.2743 58.4366 13.9343 56.6633 4.60421 54.85C3.22421 54.7133 2.41754 52.9833 3.20087 51.8366C3.62754 51.1233 4.52754 50.76 5.33421 50.96C14.5276 52.7033 23.7109 54.4933 32.9043 56.2467C32.8976 40.1633 32.9243 24.0766 32.8876 7.99332C24.1843 9.50665 15.5309 11.3267 6.83754 12.92C6.79087 23.7233 6.84754 34.5267 6.80754 45.33C6.81754 46.4267 5.76754 47.3967 4.66421 47.22C3.53754 47.21 2.74754 46.0533 2.85087 44.99C2.84421 33.89 2.84754 22.7833 2.84754 11.6833C2.71087 10.5567 3.49087 9.42332 4.65087 9.31332ZM42.3243 13.3067C41.2976 15.2933 39.0109 16.2467 36.8809 16.42C36.8709 18.23 36.8809 20.04 36.8676 21.85C42.1643 21.84 47.0709 26.31 47.2209 31.66C47.6243 37.2933 42.4509 42.3566 36.8843 42.24C36.8676 44.0933 36.8809 45.9433 36.8709 47.7966C38.9143 47.9133 40.9709 48.8 42.1509 50.5266C42.7509 51.26 42.9943 52.4033 43.9943 52.71C45.2109 53.0333 46.6876 51.9666 46.5676 50.66C46.4643 49.55 46.0909 48.46 46.2143 47.3333C46.3776 44.5966 48.5743 42.2733 51.1443 41.54C52.4209 41.1633 53.7609 41.3933 55.0243 41.7166C56.3709 42.2466 57.6176 40.6033 57.2843 39.3533C57.1609 38.3033 56.0243 37.96 55.3043 37.3933C52.6843 35.6033 51.9976 31.8033 53.3876 29.0433C54.0743 27.54 55.5209 26.68 56.8276 25.79C58.0376 24.6133 56.9409 22.3933 55.3043 22.4266C53.8909 22.63 52.4509 23.0467 51.0276 22.6367C48.2643 22.0567 46.1243 19.4833 45.9709 16.6767C45.8443 15.5267 46.3309 14.4433 46.4543 13.32C46.4309 12.02 44.8609 11.18 43.7109 11.6C42.9509 11.86 42.7009 12.6833 42.3243 13.3067ZM36.8776 25.3467C36.8709 29.8667 36.8776 34.3866 36.8743 38.9066C38.7043 38.87 40.5309 38.16 41.7909 36.8066C43.8876 34.6833 44.2743 31.12 42.7043 28.5833C41.5143 26.5733 39.2143 25.3067 36.8776 25.3467Z" fill="url(#paint0_linear_678_60)" stroke="url(#paint1_linear_678_60)"/>
<path d="M19.1416 35.6811C18.789 35.1305 18.0116 35.0608 17.5667 35.5399L15.6656 37.5872C15.4939 37.7722 15.3984 38.0153 15.3984 38.2677V45C15.3984 45.5523 14.9507 46 14.3984 46H10.5391C9.98678 46 9.53906 45.5523 9.53906 45V18.5625C9.53906 18.0102 9.98678 17.5625 10.5391 17.5625H14.3984C14.9507 17.5625 15.3984 18.0102 15.3984 18.5625V27.3849C15.3984 28.3527 16.6361 28.7561 17.2064 27.9741L17.9766 26.918L24.9224 17.9502C25.1118 17.7056 25.4037 17.5625 25.713 17.5625H30.3506C31.1888 17.5625 31.6551 18.5319 31.1318 19.1868L22.7852 29.6321C22.5149 29.9703 22.493 30.444 22.7309 30.8058L31.7038 44.4505C32.141 45.1155 31.6641 46 30.8682 46H26.2971C25.9562 46 25.6388 45.8264 25.455 45.5393L19.1416 35.6811Z" fill="url(#paint2_linear_678_60)"/>
<defs>
<linearGradient id="paint0_linear_678_60" x1="31.7419" y1="60.607" x2="31.7419" y2="3.52686" gradientUnits="userSpaceOnUse">
<stop stop-color="#5558FF"/>
<stop offset="1" stop-color="#00C0FF"/>
</linearGradient>
<linearGradient id="paint1_linear_678_60" x1="31.7419" y1="60.607" x2="31.7419" y2="3.52686" gradientUnits="userSpaceOnUse">
<stop stop-color="#5558FF"/>
<stop offset="1" stop-color="#00C0FF"/>
</linearGradient>
<linearGradient id="paint2_linear_678_60" x1="18.5" y1="48" x2="18.5" y2="9" gradientUnits="userSpaceOnUse">
<stop stop-color="#5570FF"/>
<stop offset="1" stop-color="#4DD3FF"/>
</linearGradient>
</defs>
</svg>
