<svg width="64" height="64" viewBox="0 0 64 64" fill="none" xmlns="http://www.w3.org/2000/svg">
<path fill-rule="evenodd" clip-rule="evenodd" d="M20.8327 7.83274C23.9271 4.73839 28.1239 3 32.5 3C36.8761 3 41.0729 4.73839 44.1673 7.83274C47.2616 10.9271 49 15.1239 49 19.5V23.2324C52.85 27.3852 54.9926 32.8371 55 38.5C55 41.4547 54.418 44.3806 53.2873 47.1104C52.1566 49.8402 50.4992 52.3206 48.4099 54.4099C46.3206 56.4992 43.8402 58.1566 41.1104 59.2873C38.3806 60.418 35.4547 61 32.5 61C26.5326 61 20.8097 58.6295 16.5901 54.4099C12.3705 50.1903 10 44.4674 10 38.5C10.0104 32.8411 12.1527 27.394 16 23.2441V19.5C16 15.1239 17.7384 10.9271 20.8327 7.83274ZM42.9551 18.5938C42.506 13.1612 38.0639 9 32.5 9C26.9368 9 22.4949 13.1602 22.0449 18.5918C25.2687 16.8941 28.8565 16.0047 32.5 16C36.1436 16.0053 39.7315 16.8954 42.9551 18.5938ZM44.1673 50.1673C47.2616 47.0729 49 42.8761 49 38.5C49 34.1239 47.2616 29.9271 44.1673 26.8327C41.0729 23.7384 36.8761 22 32.5 22C28.1239 22 23.9271 23.7384 20.8327 26.8327C17.7384 29.9271 16 34.1239 16 38.5C16 42.8761 17.7384 47.0729 20.8327 50.1673C23.9271 53.2616 28.1239 55 32.5 55C36.8761 55 41.0729 53.2616 44.1673 50.1673Z" fill="url(#paint0_linear)"/>
<path d="M32 23C31.4477 23 31 23.4477 31 24V26C31 26.5523 31.4477 27 32 27H33C33.5523 27 34 26.5523 34 26V24C34 23.4477 33.5523 23 33 23H32ZM23.6602 27.5385C23.2697 27.1483 22.6367 27.1484 22.2463 27.5388L21.5388 28.2463C21.1484 28.6367 21.1483 29.2697 21.5385 29.6602L22.246 30.3684C22.6365 30.7592 23.2699 30.7594 23.6606 30.3687L24.3687 29.6606C24.7594 29.2699 24.7592 28.6365 24.3684 28.246L23.6602 27.5385ZM42.7537 27.5388C42.3633 27.1484 41.7303 27.1483 41.3398 27.5385L40.6316 28.246C40.2408 28.6365 40.2406 29.2699 40.6313 29.6606L41.3394 30.3687C41.7301 30.7594 42.3635 30.7592 42.754 30.3684L43.4615 29.6602C43.8517 29.2697 43.8516 28.6367 43.4612 28.2463L42.7537 27.5388ZM18 37C17.4477 37 17 37.4477 17 38V39C17 39.5523 17.4477 40 18 40H20C20.5523 40 21 39.5523 21 39V38C21 37.4477 20.5523 37 20 37H18ZM45 37C44.4477 37 44 37.4477 44 38V39C44 39.5523 44.4477 40 45 40H47C47.5523 40 48 39.5523 48 39V38C48 37.4477 47.5523 37 47 37H45ZM23.6606 46.6313C23.2699 46.2406 22.6365 46.2408 22.246 46.6316L21.5385 47.3398C21.1483 47.7303 21.1484 48.3633 21.5388 48.7537L22.2463 49.4612C22.6367 49.8516 23.2697 49.8517 23.6602 49.4615L24.3684 48.754C24.7592 48.3635 24.7594 47.7301 24.3687 47.3394L23.6606 46.6313ZM42.754 46.6316C42.3635 46.2408 41.7301 46.2406 41.3394 46.6313L40.6313 47.3394C40.2406 47.7301 40.2408 48.3635 40.6316 48.754L41.3398 49.4615C41.7303 49.8517 42.3633 49.8516 42.7537 49.4612L43.4612 48.7537C43.8516 48.3633 43.8517 47.7303 43.4615 47.3398L42.754 46.6316ZM32 50C31.4477 50 31 50.4477 31 51V53C31 53.5523 31.4477 54 32 54H33C33.5523 54 34 53.5523 34 53V51C34 50.4477 33.5523 50 33 50H32Z" fill="url(#paint1_linear)"/>
<path d="M41 38.5C41 39.6162 40.7801 40.7215 40.353 41.7528C39.9258 42.7841 39.2997 43.7211 38.5104 44.5104C37.7211 45.2997 36.7841 45.9258 35.7528 46.353C34.7215 46.7801 33.6162 47 32.5 47C31.3838 47 30.2785 46.7801 29.2472 46.353C28.2159 45.9258 27.2789 45.2997 26.4896 44.5104C25.7003 43.7211 25.0742 42.7841 24.647 41.7528C24.2199 40.7215 24 39.6162 24 38.5C24 37.3838 24.2199 36.2785 24.647 35.2472C25.0742 34.2159 25.7003 33.2789 26.4896 32.4896C27.2789 31.7003 28.2159 31.0742 29.2472 30.647C30.2785 30.2199 31.3838 30 32.5 30C33.6162 30 34.7215 30.2199 35.7528 30.647C36.7841 31.0742 37.7211 31.7003 38.5104 32.4896C39.2997 33.2789 39.9258 34.2159 40.353 35.2472C40.7801 36.2785 41 37.3838 41 38.5V38.5Z" fill="url(#paint2_linear)"/>
<defs>
<linearGradient id="paint0_linear" x1="32.5" y1="61" x2="32.5" y2="3" gradientUnits="userSpaceOnUse">
<stop stop-color="#02AA93"/>
<stop offset="1" stop-color="#67FF80"/>
</linearGradient>
<linearGradient id="paint1_linear" x1="32.5" y1="54" x2="32.5" y2="23" gradientUnits="userSpaceOnUse">
<stop stop-color="#5570FF"/>
<stop offset="1" stop-color="#4DD3FF"/>
</linearGradient>
<linearGradient id="paint2_linear" x1="32.5" y1="47" x2="32.5" y2="30" gradientUnits="userSpaceOnUse">
<stop stop-color="#02AA93"/>
<stop offset="1" stop-color="#67FF80"/>
</linearGradient>
</defs>
</svg>
