<svg width="64" height="64" viewBox="0 0 64 64" fill="none" xmlns="http://www.w3.org/2000/svg">
<path d="M48.0468 4.65846C50.3466 3.80633 52.9852 3.74052 55.2653 4.70123C57.9796 5.86264 59.8648 8.6658 59.9866 11.6072C60.1742 14.6439 58.4962 17.6116 55.9596 19.2303C52.8438 21.3228 48.82 20.905 45.5496 22.6158C44.7929 22.9284 45.0002 23.764 44.9838 24.4155C45.0759 26.1691 43.5131 27.7385 41.789 27.8175C39.7689 28.028 37.9068 26.0934 38.1272 24.0898C38.1995 22.1848 40.065 20.6286 41.9536 20.8787C44.1678 18.4769 47.5862 18.0261 50.6065 17.3221C52.8174 16.9799 55.1995 15.8613 56.0253 13.6306C56.8741 11.6137 55.9299 9.08693 53.9493 8.15255C51.9291 7.26422 49.4583 7.70509 47.7178 9.00797C46.9051 9.54755 46.8229 10.5872 46.4906 11.4196C45.4838 11.3999 44.4244 11.6401 43.4604 11.2946C42.9307 10.7583 43.1906 9.94894 43.3025 9.30408C43.8947 7.02733 45.9148 5.43163 48.0468 4.65846Z" fill="url(#paint0_linear_678_447)" stroke="url(#paint1_linear_678_447)"/>
<path d="M30.1947 14.1274C30.4744 13.8542 30.7869 13.5285 31.2212 13.5845C34.4159 13.5418 37.6107 13.5911 40.8086 13.5581C41.6706 13.5285 42.7267 13.5418 43.2433 14.3741C44.1217 15.4862 43.1742 17.276 41.7923 17.2562C38.6569 17.299 35.5214 17.2431 32.3859 17.2826C24.3021 25.4387 16.1526 33.5356 8.04577 41.6754C7.52264 42.0768 7.572 42.9124 8.08854 43.2974C12.5433 47.7588 16.9949 52.23 21.476 56.6651C21.9629 57.2145 22.7426 56.9349 23.1342 56.4184C31.1291 48.2918 39.1406 40.185 47.1256 32.0452C47.1322 30.3706 47.0927 28.6927 47.1322 27.018C47.0993 26.1297 47.7935 25.3005 48.6687 25.1755C49.7577 24.9682 50.8599 25.9454 50.7842 27.0508C50.8236 29.2684 50.771 31.4826 50.8039 33.7002C42.8781 41.8136 34.8075 49.7888 26.8454 57.8726C25.8485 58.8332 24.9536 60.021 23.585 60.4586C21.9234 61.0639 19.9658 60.5605 18.7616 59.2807C14.2805 54.77 9.78953 50.2692 5.32157 45.7452C3.5153 43.985 3.57452 40.7969 5.41368 39.0828C13.6686 30.7588 21.9431 22.4546 30.1947 14.1274Z" fill="url(#paint2_linear_678_447)" stroke="url(#paint3_linear_678_447)" stroke-width="2"/>
<defs>
<linearGradient id="paint0_linear_678_447" x1="49.0551" y1="27.8333" x2="49.0551" y2="4" gradientUnits="userSpaceOnUse">
<stop stop-color="#FD2E00"/>
<stop offset="1" stop-color="#FF9900"/>
</linearGradient>
<linearGradient id="paint1_linear_678_447" x1="49.0551" y1="27.8333" x2="49.0551" y2="4" gradientUnits="userSpaceOnUse">
<stop stop-color="#FD2E00"/>
<stop offset="1" stop-color="#FF9900"/>
</linearGradient>
<linearGradient id="paint2_linear_678_447" x1="27.402" y1="60.7137" x2="27.402" y2="13.5503" gradientUnits="userSpaceOnUse">
<stop stop-color="#FD2E00"/>
<stop offset="1" stop-color="#FF9900"/>
</linearGradient>
<linearGradient id="paint3_linear_678_447" x1="27.402" y1="60.7137" x2="27.402" y2="13.5503" gradientUnits="userSpaceOnUse">
<stop stop-color="#FD2E00"/>
<stop offset="1" stop-color="#FF9900"/>
</linearGradient>
</defs>
</svg>
