<svg width="128" height="128" viewBox="0 0 128 128" fill="none" xmlns="http://www.w3.org/2000/svg">
<path fill-rule="evenodd" clip-rule="evenodd" d="M21.0837 18.931C21.0837 18.4411 21.2783 17.9712 21.6247 17.6247C21.9712 17.2783 22.4411 17.0837 22.931 17.0837H85.7387C86.2286 17.0837 86.6985 17.2783 87.0451 17.6247C87.3916 17.9712 87.5859 18.4411 87.5859 18.931V76.0934C87.5859 77.5631 88.1697 78.9728 89.2093 80.0118C90.2482 81.0515 91.6581 81.6352 93.1278 81.6352C94.5975 81.6352 96.0073 81.0515 97.0463 80.0118C98.0859 78.9728 98.6696 77.5631 98.6696 76.0934V18.931C98.6696 15.5015 97.3071 12.2124 94.882 9.7874C92.4569 7.36236 89.168 6 85.7387 6H22.931C19.5015 6 16.2124 7.36236 13.7874 9.7874C11.3623 12.2124 10 15.5015 10 18.931V103.906C10 111.044 15.7931 116.837 22.931 116.837H46.3546C47.8243 116.837 49.234 116.253 50.2732 115.214C51.3125 114.175 51.8964 112.765 51.8964 111.295C51.8964 109.826 51.3125 108.416 50.2732 107.377C49.234 106.337 47.8243 105.753 46.3546 105.753H22.931C22.4411 105.753 21.9712 105.559 21.6247 105.212C21.2783 104.866 21.0837 104.396 21.0837 103.906V18.931Z" fill="url(#paint0_linear_625_152)"/>
<path fill-rule="evenodd" clip-rule="evenodd" d="M21.0837 18.931C21.0837 18.4411 21.2783 17.9712 21.6247 17.6247C21.9712 17.2783 22.4411 17.0837 22.931 17.0837H85.7387C86.2286 17.0837 86.6985 17.2783 87.0451 17.6247C87.3916 17.9712 87.5859 18.4411 87.5859 18.931V76.0934C87.5859 77.5631 88.1697 78.9728 89.2093 80.0118C90.2482 81.0515 91.6581 81.6352 93.1278 81.6352C94.5975 81.6352 96.0073 81.0515 97.0463 80.0118C98.0859 78.9728 98.6696 77.5631 98.6696 76.0934V18.931C98.6696 15.5015 97.3071 12.2124 94.882 9.7874C92.4569 7.36236 89.168 6 85.7387 6H22.931C19.5015 6 16.2124 7.36236 13.7874 9.7874C11.3623 12.2124 10 15.5015 10 18.931V103.906C10 111.044 15.7931 116.837 22.931 116.837H46.3546C47.8243 116.837 49.234 116.253 50.2732 115.214C51.3125 114.175 51.8964 112.765 51.8964 111.295C51.8964 109.826 51.3125 108.416 50.2732 107.377C49.234 106.337 47.8243 105.753 46.3546 105.753H22.931C22.4411 105.753 21.9712 105.559 21.6247 105.212C21.2783 104.866 21.0837 104.396 21.0837 103.906V18.931Z" stroke="url(#paint1_linear_625_152)" stroke-width="3"/>
<path d="M33.7902 37.1798C34.8294 36.1405 36.2391 35.5566 37.7088 35.5566H70.96C72.4297 35.5566 73.8394 36.1405 74.8786 37.1798C75.9179 38.2191 76.5018 39.6287 76.5018 41.0985C76.5018 42.5683 75.9179 43.9779 74.8786 45.0172C73.8394 46.0565 72.4297 46.6403 70.96 46.6403H37.7088C36.2391 46.6403 34.8294 46.0565 33.7902 45.0172C32.7509 43.9779 32.167 42.5683 32.167 41.0985C32.167 39.6287 32.7509 38.2191 33.7902 37.1798Z" fill="url(#paint2_linear_625_152)"/>
<path d="M33.7902 59.3472C32.7509 60.3865 32.167 61.7961 32.167 63.2659C32.167 64.7357 32.7509 66.1453 33.7902 67.1846C34.8294 68.2239 36.2391 68.8078 37.7088 68.8078H52.4871C53.9569 68.8078 55.3665 68.2239 56.4058 67.1846C57.4451 66.1453 58.029 64.7357 58.029 63.2659C58.029 61.7961 57.4451 60.3865 56.4058 59.3472C55.3665 58.3079 53.9569 57.7241 52.4871 57.7241H37.7088C36.2391 57.7241 34.8294 58.3079 33.7902 59.3472Z" fill="url(#paint3_linear_625_152)"/>
<path d="M33.7902 37.1798C34.8294 36.1405 36.2391 35.5566 37.7088 35.5566H70.96C72.4297 35.5566 73.8394 36.1405 74.8786 37.1798C75.9179 38.2191 76.5018 39.6287 76.5018 41.0985C76.5018 42.5683 75.9179 43.9779 74.8786 45.0172C73.8394 46.0565 72.4297 46.6403 70.96 46.6403H37.7088C36.2391 46.6403 34.8294 46.0565 33.7902 45.0172C32.7509 43.9779 32.167 42.5683 32.167 41.0985C32.167 39.6287 32.7509 38.2191 33.7902 37.1798Z" stroke="url(#paint4_linear_625_152)" stroke-width="4"/>
<path d="M33.7902 59.3472C32.7509 60.3865 32.167 61.7961 32.167 63.2659C32.167 64.7357 32.7509 66.1453 33.7902 67.1846C34.8294 68.2239 36.2391 68.8078 37.7088 68.8078H52.4871C53.9569 68.8078 55.3665 68.2239 56.4058 67.1846C57.4451 66.1453 58.029 64.7357 58.029 63.2659C58.029 61.7961 57.4451 60.3865 56.4058 59.3472C55.3665 58.3079 53.9569 57.7241 52.4871 57.7241H37.7088C36.2391 57.7241 34.8294 58.3079 33.7902 59.3472Z" stroke="url(#paint5_linear_625_152)" stroke-width="4"/>
<path d="M117.62 85.7687C117.333 86.4382 116.918 87.0441 116.396 87.5525L82.7237 120.427C81.6788 121.446 80.2734 122.011 78.8141 122C77.3547 121.989 75.9582 121.402 74.9281 120.368L60.5713 105.959C59.5943 104.907 59.0639 103.516 59.0919 102.08C59.1199 100.645 59.7041 99.2761 60.7214 98.2623C61.7387 97.2485 63.1097 96.6699 64.5455 96.647C65.9813 96.6248 67.3699 97.1598 68.4185 98.1411L76.1083 105.864C77.6564 107.418 80.1679 107.436 81.7375 105.903L108.652 79.6165C109.173 79.1082 109.789 78.7069 110.465 78.4372C111.142 78.1668 111.864 78.032 112.592 78.0409C113.32 78.05 114.04 78.2022 114.708 78.4889C115.378 78.7756 115.984 79.1917 116.492 79.7126C117 80.2335 117.402 80.8498 117.672 81.5259C117.943 82.202 118.077 82.9246 118.068 83.6525C118.059 84.3803 117.907 85.0993 117.62 85.7687Z" fill="url(#paint6_linear_625_152)" stroke="url(#paint7_linear_625_152)" stroke-width="2"/>
<defs>
<linearGradient id="paint0_linear_625_152" x1="54.3348" y1="116.837" x2="54.3348" y2="6" gradientUnits="userSpaceOnUse">
<stop stop-color="#FD3D00"/>
<stop offset="1" stop-color="#FFF500"/>
</linearGradient>
<linearGradient id="paint1_linear_625_152" x1="54.3348" y1="116.837" x2="54.3348" y2="6" gradientUnits="userSpaceOnUse">
<stop stop-color="#FD3D00"/>
<stop offset="1" stop-color="#FFF500"/>
</linearGradient>
<linearGradient id="paint2_linear_625_152" x1="44.2192" y1="48.7322" x2="61.7182" y2="54.4097" gradientUnits="userSpaceOnUse">
<stop stop-color="#0357D1"/>
<stop offset="1" stop-color="#27CDFC"/>
</linearGradient>
<linearGradient id="paint3_linear_625_152" x1="44.2192" y1="48.7322" x2="61.7182" y2="54.4097" gradientUnits="userSpaceOnUse">
<stop stop-color="#0357D1"/>
<stop offset="1" stop-color="#27CDFC"/>
</linearGradient>
<linearGradient id="paint4_linear_625_152" x1="44.2192" y1="48.7322" x2="61.7182" y2="54.4097" gradientUnits="userSpaceOnUse">
<stop stop-color="#0357D1"/>
<stop offset="1" stop-color="#27CDFC"/>
</linearGradient>
<linearGradient id="paint5_linear_625_152" x1="44.2192" y1="48.7322" x2="61.7182" y2="54.4097" gradientUnits="userSpaceOnUse">
<stop stop-color="#0357D1"/>
<stop offset="1" stop-color="#27CDFC"/>
</linearGradient>
<linearGradient id="paint6_linear_625_152" x1="75.5784" y1="112.219" x2="118.078" y2="99.3692" gradientUnits="userSpaceOnUse">
<stop stop-color="#9000FF"/>
<stop offset="1" stop-color="#FF00FF"/>
</linearGradient>
<linearGradient id="paint7_linear_625_152" x1="75.5784" y1="112.219" x2="118.078" y2="99.3692" gradientUnits="userSpaceOnUse">
<stop stop-color="#9000FF"/>
<stop offset="1" stop-color="#FF00FF"/>
</linearGradient>
</defs>
</svg>
