<svg width="16" height="16" viewBox="0 0 16 16" fill="none" xmlns="http://www.w3.org/2000/svg">
<g clip-path="url(#clip0)">
<path fill-rule="evenodd" clip-rule="evenodd" d="M3.27346 0.0481866C3.30074 0.0209443 3.33559 0.00455519 3.3719 0.000861037L3.37268 0.000861117C3.40899 -0.00284896 3.44649 0.00538272 3.47893 0.0264634L5.86958 1.58355C5.79725 1.61616 5.73617 1.64987 5.88911 1.59674L6.82284 2.49762C5.1521 3.30701 4 5.01896 4 7C4 9.76142 6.23858 12 9 12C10.9051 12 12.5614 10.9345 13.4054 9.36689L13.4743 9.43882C13.5473 9.51622 13.5932 9.56446 13.6368 9.61471C13.7505 9.74567 13.8484 9.89024 14.3696 10.6002L15.9759 12.6205C16.0151 12.6843 16.0059 12.7661 15.9525 12.8191L14.69 14.0728C14.635 14.1274 14.55 14.1353 14.4853 14.093L12.1313 12.5608C11.6508 12.8418 11.1294 13.0624 10.5782 13.2101L9.92195 15.8759C9.90404 15.949 9.8384 16 9.76336 16H7.97819C7.90122 16 7.83371 15.9466 7.81803 15.8712L7.26099 13.2101C6.72623 13.0666 6.22077 12.8552 5.75161 12.5864L3.36253 14.0271C3.29781 14.0657 3.21559 14.0556 3.16252 14.003L1.90001 12.7493C1.84507 12.6949 1.8364 12.6097 1.87892 12.5452L3.40315 10.2371C3.11555 9.73491 2.89826 9.18899 2.75783 8.61256L0.12422 7.97328C0.0514872 7.95582 0 7.89074 0 7.81578V6.04379C0 5.96687 0.0542043 5.90026 0.129689 5.88475L2.84299 5.32382C2.99313 4.82611 3.20277 4.35483 3.46487 3.91724L1.98752 1.49976C1.94839 1.43577 1.95866 1.354 2.01173 1.30115L3.27346 0.0481866ZM5.86958 1.58355L5.88755 1.59519ZM5.88755 1.59519L5.8891 1.59674ZM5.8891 1.59674C6.04599 1.51187 5.95037 1.54712 5.86958 1.58355Z" fill="url(#paint0_linear)"/>
<path d="M8.93407 2.50047C9.53614 2.4918 10.1338 2.60402 10.6917 2.83048C11.2497 3.05694 11.7565 3.39303 12.1821 3.81886C13.026 4.66276 13.5 5.80724 13.5 7.00057C13.5 8.19391 13.026 9.33838 12.1821 10.1823C11.3381 11.026 10.1935 11.5 9 11.5C7.80651 11.5 6.66189 11.026 5.81788 10.1823C4.97405 9.33838 4.5 8.19391 4.5 7.00057C4.5 5.80724 4.97405 4.66276 5.81788 3.81886C6.64556 2.99084 7.76338 2.51792 8.93407 2.50047V2.50047ZM9.05714 3.06298C8.09092 3.05068 7.15391 3.394 6.42442 4.0276L7.21445 4.81754C7.67846 4.38925 8.19001 4.03054 8.71576 3.76476C9.24152 3.49898 9.76967 3.33211 10.2658 3.27502C9.87648 3.14163 9.46864 3.07008 9.05714 3.06298ZM10.7603 3.79798C10.2981 3.77176 9.76548 3.88856 9.21412 4.13706C8.66276 4.38557 8.11134 4.75734 7.61331 5.21635L9 6.60286L11.5602 4.04298C11.3391 3.90012 11.0685 3.81723 10.7603 3.79798V3.79798ZM6.02335 4.42202C5.5758 4.94015 5.27108 5.56601 5.13928 6.23784C5.00748 6.90967 5.05315 7.60425 5.27177 8.25304C5.33199 7.75831 5.50078 7.23255 5.76726 6.70969C6.03374 6.18683 6.39199 5.67848 6.81889 5.21745L6.02335 4.42202ZM11.9591 4.4396L9.39777 7.00058L10.7855 8.38818C11.4007 7.71988 11.8538 6.96133 12.0677 6.24149C12.2817 5.52164 12.2433 4.88493 11.9591 4.4396V4.4396ZM7.21445 5.61297C6.59926 6.28127 6.14619 7.03982 5.93225 7.75966C5.71831 8.47951 5.75672 9.11622 6.04094 9.56155L8.60223 7.00058L7.21445 5.61297ZM12.7282 5.7481C12.668 6.24284 12.4992 6.7686 12.2327 7.29146C11.9663 7.81432 11.608 8.32266 11.1811 8.7837L11.9766 9.57913C12.4242 9.061 12.7289 8.43514 12.8607 7.76331C12.9925 7.09148 12.9469 6.3969 12.7282 5.7481V5.7481ZM9 7.39829L6.4398 9.95817C6.88526 10.2417 7.52174 10.2797 8.24118 10.0658C8.96062 9.85196 9.71869 9.39933 10.3867 8.7848L9 7.39829ZM10.7855 9.18361C10.3215 9.6119 9.80999 9.97061 9.28424 10.2364C8.75849 10.5022 8.23033 10.669 7.73418 10.7261C8.38453 10.9464 9.08118 10.9929 9.75503 10.8609C10.4289 10.7288 11.0565 10.423 11.5756 9.97355L10.7855 9.18361Z" fill="url(#paint1_linear)"/>
</g>
<defs>
<linearGradient id="paint0_linear" x1="8" y1="16" x2="8" y2="0" gradientUnits="userSpaceOnUse">
<stop stop-color="#5570FF"/>
<stop offset="1" stop-color="#4DD3FF"/>
</linearGradient>
<linearGradient id="paint1_linear" x1="9" y1="11.5" x2="9" y2="2.5" gradientUnits="userSpaceOnUse">
<stop stop-color="#ADDCFF"/>
<stop offset="0.5028" stop-color="#EAF6FF"/>
<stop offset="1" stop-color="#EAF6FF"/>
</linearGradient>
<clipPath id="clip0">
<rect width="16" height="16" fill="white"/>
</clipPath>
</defs>
</svg>
