<svg width="128" height="128" viewBox="0 0 128 128" fill="none" xmlns="http://www.w3.org/2000/svg">
<path d="M120.826 54.6334L103.702 39.8152C102.229 38.5405 101.383 36.6887 101.383 34.7408V9.39844C101.383 7.52159 99.8613 6 97.9844 6H30.0156C28.1387 6 26.6172 7.52159 26.6172 9.39844V34.7408C26.6172 36.6887 25.7708 38.5405 24.2978 39.8152L7.1745 54.6334C6.42865 55.2789 6 56.2167 6 57.2032V118.601C6 120.479 7.52159 122 9.39844 122H118.601C120.479 122 122 120.479 122 118.601V57.2032C122 56.2167 121.571 55.2789 120.826 54.6334ZM101.383 57.239C101.383 53.1506 106.188 50.9544 109.279 53.6298C111.47 55.5261 111.48 58.9213 109.299 60.8301C106.214 63.5318 101.383 61.3404 101.383 57.239ZM33.4141 19.5076C33.4141 15.8014 36.4186 12.7969 40.1248 12.7969H87.8752C91.5814 12.7969 94.5859 15.8014 94.5859 19.5076V70.6686C94.5859 72.603 93.7511 74.4434 92.2958 75.7176L68.4206 96.6206C65.8899 98.8361 62.1101 98.8361 59.5794 96.6205L35.7042 75.7174C34.2489 74.4432 33.4141 72.6028 33.4141 70.6684V19.5076ZM18.721 53.6297C21.8125 50.9543 26.6172 53.1505 26.6172 57.2388C26.6172 61.3401 21.786 63.5316 18.7002 60.8298C16.5201 58.9211 16.5299 55.5259 18.721 53.6297ZM115.203 108.492C115.203 112.198 112.198 115.203 108.492 115.203H19.5076C15.8013 115.203 12.7968 112.198 12.7968 108.492V79.49C12.7968 73.7236 19.5895 70.6425 23.9281 74.4411L61.7613 107.565C62.4023 108.126 63.2009 108.406 64 108.406C64.7989 108.406 65.5979 108.126 66.2387 107.565L104.072 74.4411C108.411 70.6425 115.203 73.7235 115.203 79.49V108.492Z" fill="url(#paint0_linear_678_452)"/>
<path d="M70.8042 78.4555C70.8883 79.606 69.9232 80.6857 68.7795 80.7134C67.7536 80.7714 66.8078 79.9852 66.6051 78.9836C66.506 73.5854 66.4462 68.1901 66.3614 62.7917C67.411 61.4165 68.3852 59.985 69.381 58.5711C69.7112 58.064 70.1123 57.5415 70.1245 56.9026C70.2683 52.8319 70.1208 48.7547 70.2363 44.6809C70.3019 45.0459 70.3392 45.4149 70.3445 45.7843C70.4942 56.6748 70.6652 67.5649 70.8042 78.4555Z" fill="url(#paint1_linear_678_452)"/>
<path d="M60.4541 78.9268C60.2737 81.2042 56.7301 81.3602 56.2967 79.1421C56.1365 71.9688 56.0794 64.794 55.9619 57.62C56.9964 56.428 57.8406 55.0881 58.7925 53.8328C59.2488 53.2018 59.7757 52.5339 59.7603 51.709C59.8357 49.5444 59.7192 47.3718 59.9083 45.2092C59.9739 45.5706 60.0076 45.9361 60.0093 46.302C60.1446 57.1784 60.3437 68.0537 60.4541 78.9268Z" fill="url(#paint2_linear_678_452)"/>
<path d="M69.381 58.5711C68.3852 59.985 67.411 61.4165 66.3614 62.7917C66.2908 56.9016 66.1633 51.0122 66.1282 45.1215C66.2277 43.6419 67.9917 42.7692 69.2525 43.4791C69.7181 43.7305 70.0374 44.1995 70.2363 44.6809C70.1208 48.7547 70.2683 52.8319 70.1245 56.9026C70.1123 57.5415 69.7112 58.064 69.381 58.5711Z" fill="url(#paint3_linear_678_452)"/>
<path d="M58.7925 53.8328C57.8406 55.0881 56.9964 56.428 55.9619 57.62C55.8631 54.4534 55.9734 51.2586 55.7469 48.1118C55.6786 47.8151 55.3473 47.5006 55.6023 47.1991C56.2815 46.0015 57.1578 44.9303 57.9876 43.8346C58.155 43.8608 58.4897 43.9133 58.6571 43.9395C59.2429 44.1569 59.6411 44.6606 59.9083 45.2092C59.7192 47.3718 59.8357 49.5444 59.7603 51.709C59.7757 52.5339 59.2488 53.2018 58.7925 53.8328Z" fill="url(#paint4_linear_678_452)"/>
<path d="M55.7469 48.1118C55.6333 48.1135 55.4059 48.1168 55.2922 48.115C51.3168 48.1446 47.3329 48.3179 43.3595 48.2327C44.5078 48.0364 45.6722 47.9691 46.8166 47.7442C47.9379 46.6586 48.6922 45.2555 49.526 43.9444C52.3466 43.9101 55.1667 43.8401 57.9876 43.8346C57.1578 44.9303 56.2815 46.0015 55.6023 47.1991C55.3473 47.5006 55.6786 47.8151 55.7469 48.1118Z" fill="url(#paint5_linear_678_452)"/>
<path d="M46.8166 47.7442C45.6722 47.9691 44.5078 48.0364 43.3595 48.2327C41.1315 47.9712 39.4543 45.4843 40.1655 43.3032C40.3429 42.5508 40.7956 41.9055 41.3279 41.3703C47.5871 34.8813 53.8248 28.3711 60.0841 21.8821C61.0607 20.8596 62.6148 20.4673 63.9568 20.8925C65.7059 21.4588 66.7217 23.166 68.0847 24.3013C67.4029 25.5599 66.5239 26.6993 65.5296 27.7221C64.6289 26.8599 63.7598 25.9649 62.8486 25.1136C57.09 31.0894 51.3459 37.0829 45.5836 43.0551C45.2756 43.3682 44.9746 43.6883 44.6736 44.0085C46.2937 43.999 47.9098 43.9646 49.526 43.9444C48.6922 45.2555 47.9379 46.6586 46.8166 47.7442Z" fill="url(#paint6_linear_678_452)"/>
<path d="M86.7202 45.5404C85.9227 46.4167 84.43 46.3848 83.6498 45.4957C81.3219 43.2265 79.0009 40.9464 76.6835 38.6627C77.7035 37.6898 78.6801 36.6708 79.6062 35.6025C81.9484 37.8822 84.2593 40.1983 86.6189 42.4563C87.4934 43.2292 87.5539 44.7172 86.7202 45.5404Z" fill="url(#paint7_linear_678_452)"/>
<path d="M79.6062 35.6025C78.6801 36.6708 77.7035 37.6898 76.6835 38.6627C74.8998 36.9236 73.1195 35.1774 71.3462 33.4275C72.5464 32.6385 73.4179 31.4811 74.168 30.2682C75.9843 32.0462 77.7935 33.8244 79.6062 35.6025Z" fill="url(#paint8_linear_678_452)"/>
<path d="M74.168 30.2682C73.4179 31.4811 72.5464 32.6385 71.3462 33.4275C69.4038 31.5294 67.4615 29.6312 65.5296 27.7221C66.5239 26.6993 67.4029 25.5599 68.0847 24.3013C70.1136 26.2878 72.139 28.2816 74.168 30.2682Z" fill="url(#paint9_linear_678_452)"/>
<path d="M66.3614 62.7917C66.4462 68.1901 66.506 73.5854 66.6051 78.9836C66.8078 79.9852 67.7536 80.7714 68.7795 80.7134C69.9232 80.6857 70.8883 79.606 70.8042 78.4555C70.6652 67.5649 70.4942 56.6748 70.3445 45.7843C70.3392 45.4149 70.3019 45.0459 70.2363 44.6809M66.3614 62.7917C67.411 61.4165 68.3852 59.985 69.381 58.5711C69.7112 58.064 70.1123 57.5415 70.1245 56.9026C70.2683 52.8319 70.1208 48.7547 70.2363 44.6809M66.3614 62.7917C66.2908 56.9016 66.1633 51.0122 66.1282 45.1215C66.2277 43.6419 67.9917 42.7692 69.2525 43.4791C69.7181 43.7305 70.0374 44.1995 70.2363 44.6809M55.9619 57.62C56.0794 64.794 56.1365 71.9688 56.2967 79.1421C56.7301 81.3602 60.2737 81.2042 60.4541 78.9268C60.3437 68.0537 60.1446 57.1784 60.0093 46.302C60.0076 45.9361 59.9739 45.5706 59.9083 45.2092M55.9619 57.62C56.9964 56.428 57.8406 55.0881 58.7925 53.8328C59.2488 53.2018 59.7757 52.5339 59.7603 51.709C59.8357 49.5444 59.7192 47.3718 59.9083 45.2092M55.9619 57.62C55.8631 54.4534 55.9734 51.2586 55.7469 48.1118M59.9083 45.2092C59.6411 44.6606 59.2429 44.1569 58.6571 43.9395C58.4897 43.9133 58.155 43.8608 57.9876 43.8346M55.7469 48.1118C55.6786 47.8151 55.3473 47.5006 55.6023 47.1991C56.2815 46.0015 57.1578 44.9303 57.9876 43.8346M55.7469 48.1118C55.6333 48.1135 55.4059 48.1168 55.2922 48.115C51.3168 48.1446 47.3329 48.3179 43.3595 48.2327M57.9876 43.8346C55.1667 43.8401 52.3466 43.9101 49.526 43.9444M43.3595 48.2327C44.5078 48.0364 45.6722 47.9691 46.8166 47.7442C47.9379 46.6586 48.6922 45.2555 49.526 43.9444M43.3595 48.2327C41.1315 47.9712 39.4543 45.4843 40.1655 43.3032C40.3429 42.5508 40.7956 41.9055 41.3279 41.3703C47.5871 34.8813 53.8248 28.3711 60.0841 21.8821C61.0607 20.8596 62.6148 20.4673 63.9568 20.8925C65.7059 21.4588 66.7217 23.166 68.0847 24.3013M49.526 43.9444C47.9098 43.9646 46.2937 43.999 44.6736 44.0085C44.9746 43.6883 45.2756 43.3682 45.5836 43.0551C51.3459 37.0829 57.09 31.0894 62.8486 25.1136C63.7598 25.9649 64.6289 26.8599 65.5296 27.7221M68.0847 24.3013C67.4029 25.5599 66.5239 26.6993 65.5296 27.7221M68.0847 24.3013C70.1136 26.2878 72.139 28.2816 74.168 30.2682M65.5296 27.7221C67.4615 29.6312 69.4038 31.5294 71.3462 33.4275M76.6835 38.6627C79.0009 40.9464 81.3219 43.2265 83.6498 45.4957C84.43 46.3848 85.9227 46.4167 86.7202 45.5404C87.5539 44.7172 87.4934 43.2292 86.6189 42.4563C84.2593 40.1983 81.9484 37.8822 79.6062 35.6025M76.6835 38.6627C77.7035 37.6898 78.6801 36.6708 79.6062 35.6025M76.6835 38.6627C74.8998 36.9236 73.1195 35.1774 71.3462 33.4275M79.6062 35.6025C77.7935 33.8244 75.9843 32.0462 74.168 30.2682M71.3462 33.4275C72.5464 32.6385 73.4179 31.4811 74.168 30.2682" stroke="url(#paint10_linear_678_452)" stroke-width="4"/>
<defs>
<linearGradient id="paint0_linear_678_452" x1="64" y1="122" x2="64" y2="6" gradientUnits="userSpaceOnUse">
<stop stop-color="#FD3A84"/>
<stop offset="1" stop-color="#FFA68D"/>
</linearGradient>
<linearGradient id="paint1_linear_678_452" x1="63.2853" y1="20.5307" x2="64.4154" y2="80.9785" gradientUnits="userSpaceOnUse">
<stop stop-color="#A93AFF"/>
<stop offset="1" stop-color="#FF81FF"/>
</linearGradient>
<linearGradient id="paint2_linear_678_452" x1="63.2853" y1="20.5307" x2="64.4154" y2="80.9785" gradientUnits="userSpaceOnUse">
<stop stop-color="#A93AFF"/>
<stop offset="1" stop-color="#FF81FF"/>
</linearGradient>
<linearGradient id="paint3_linear_678_452" x1="63.2853" y1="20.5307" x2="64.4154" y2="80.9785" gradientUnits="userSpaceOnUse">
<stop stop-color="#A93AFF"/>
<stop offset="1" stop-color="#FF81FF"/>
</linearGradient>
<linearGradient id="paint4_linear_678_452" x1="63.2853" y1="20.5307" x2="64.4154" y2="80.9785" gradientUnits="userSpaceOnUse">
<stop stop-color="#A93AFF"/>
<stop offset="1" stop-color="#FF81FF"/>
</linearGradient>
<linearGradient id="paint5_linear_678_452" x1="63.2853" y1="20.5307" x2="64.4154" y2="80.9785" gradientUnits="userSpaceOnUse">
<stop stop-color="#A93AFF"/>
<stop offset="1" stop-color="#FF81FF"/>
</linearGradient>
<linearGradient id="paint6_linear_678_452" x1="63.2853" y1="20.5307" x2="64.4154" y2="80.9785" gradientUnits="userSpaceOnUse">
<stop stop-color="#A93AFF"/>
<stop offset="1" stop-color="#FF81FF"/>
</linearGradient>
<linearGradient id="paint7_linear_678_452" x1="63.2853" y1="20.5307" x2="64.4154" y2="80.9785" gradientUnits="userSpaceOnUse">
<stop stop-color="#A93AFF"/>
<stop offset="1" stop-color="#FF81FF"/>
</linearGradient>
<linearGradient id="paint8_linear_678_452" x1="63.2853" y1="20.5307" x2="64.4154" y2="80.9785" gradientUnits="userSpaceOnUse">
<stop stop-color="#A93AFF"/>
<stop offset="1" stop-color="#FF81FF"/>
</linearGradient>
<linearGradient id="paint9_linear_678_452" x1="63.2853" y1="20.5307" x2="64.4154" y2="80.9785" gradientUnits="userSpaceOnUse">
<stop stop-color="#A93AFF"/>
<stop offset="1" stop-color="#FF81FF"/>
</linearGradient>
<linearGradient id="paint10_linear_678_452" x1="63.2853" y1="20.5307" x2="64.4154" y2="80.9785" gradientUnits="userSpaceOnUse">
<stop stop-color="#A93AFF"/>
<stop offset="1" stop-color="#FF81FF"/>
</linearGradient>
</defs>
</svg>
