<svg width="128" height="128" viewBox="0 0 128 128" fill="none" xmlns="http://www.w3.org/2000/svg">
<path fill-rule="evenodd" clip-rule="evenodd" d="M55 54C55 51.7909 56.7909 50 59 50H99C101.209 50 103 51.7909 103 54C103 56.2091 101.209 58 99 58H59C56.7909 58 55 56.2091 55 54ZM55 72C55 69.7909 56.7909 68 59 68H99C101.209 68 103 69.7909 103 72C103 74.2091 101.209 76 99 76H59C56.7909 76 55 74.2091 55 72ZM59 86C56.7909 86 55 87.7909 55 90C55 92.2091 56.7909 94 59 94H99C101.209 94 103 92.2091 103 90C103 87.7909 101.209 86 99 86H59Z" fill="url(#paint0_linear_618_272)"/>
<path d="M47 74H29V92H47V74Z" stroke="url(#paint1_linear_618_272)" stroke-width="6" stroke-linejoin="round"/>
<path d="M22 40C22 36.6863 19.3137 34 16 34C12.6863 34 10 36.6863 10 40H22ZM40 10C36.6863 10 34 12.6863 34 16C34 19.3137 36.6863 22 40 22V10ZM106 22V106H118V22H106ZM106 106H22V118H106V106ZM22 106V64H10V106H22ZM22 64V40H10V64H22ZM64 22H106V10H64V22ZM40 22H64V10H40V22ZM22 106H10C10 112.627 15.3726 118 22 118V106ZM106 106V118C112.627 118 118 112.627 118 106H106ZM118 22C118 15.3726 112.627 10 106 10V22H118Z" fill="url(#paint2_linear_618_272)"/>
<path d="M54.1936 38.4141C53.4125 37.6331 52.1462 37.6331 51.3651 38.4141L37.8885 51.8908C37.1075 52.6718 35.8411 52.6718 35.0601 51.8908L32.6004 49.4311C31.8193 48.65 30.553 48.65 29.7719 49.4311L27.4139 51.7891C26.6329 52.5701 26.6329 53.8365 27.4139 54.6175L31.2878 58.4914L35.0939 62.2976C35.875 63.0786 37.1413 63.0786 37.9224 62.2976L41.6946 58.5253L56.5855 43.6345C57.3665 42.8534 57.3665 41.5871 56.5855 40.8061L54.1936 38.4141Z" fill="url(#paint3_linear_618_272)"/>
<defs>
<linearGradient id="paint0_linear_618_272" x1="55" y1="72" x2="99.5" y2="72" gradientUnits="userSpaceOnUse">
<stop stop-color="#66FFF6"/>
<stop offset="1" stop-color="#00B2FF"/>
</linearGradient>
<linearGradient id="paint1_linear_618_272" x1="37.2173" y1="91.5166" x2="39.2509" y2="75.2517" gradientUnits="userSpaceOnUse">
<stop stop-color="#8D01A2"/>
<stop offset="1" stop-color="#FF33DB"/>
</linearGradient>
<linearGradient id="paint2_linear_618_272" x1="41.5" y1="111" x2="78.3989" y2="31.393" gradientUnits="userSpaceOnUse">
<stop stop-color="#FE0844"/>
<stop offset="1" stop-color="#FED602"/>
</linearGradient>
<linearGradient id="paint3_linear_618_272" x1="26.8281" y1="50.3559" x2="54.9587" y2="50.3559" gradientUnits="userSpaceOnUse">
<stop stop-color="#66FFF6"/>
<stop offset="1" stop-color="#00B2FF"/>
</linearGradient>
</defs>
</svg>
