<svg width="192" height="192" viewBox="0 0 192 192" fill="none" xmlns="http://www.w3.org/2000/svg">
<g clip-path="url(#clip0_642_20)">
<path fill-rule="evenodd" clip-rule="evenodd" d="M108.368 4.4151C102.583 1.43356 95.6628 1.40018 89.5439 3.29147C89.2476 3.40942 88.9593 3.51227 88.6705 3.6153C87.7879 3.93014 86.9008 4.24656 85.7707 5L85.7706 5.00017C79.7107 7.16468 76.7405 13.0812 74.0092 18.5218L74.0088 18.5226L74.0083 18.5236L74.0078 18.5246C73.5847 19.3674 73.1674 20.1987 72.7452 21.0028C61.3308 24.93 49.983 29.9475 41.0828 38.3471C26.4643 51.8865 17.553 71.3556 16.1178 91.1585C15.5059 94.318 17.375 96.91 19.4888 98.98C19.8891 98.9587 20.3042 98.9468 20.727 98.9346L20.7277 98.9346C23.4063 98.8575 26.3956 98.7714 27.9328 96.254C28.984 94.3191 29.2268 92.1286 29.4682 89.9504C29.5794 88.9474 29.6903 87.947 29.8797 86.9754C32.0603 72.6128 38.7354 58.773 49.2821 48.7047C54.2217 43.8652 60.2739 40.4052 66.3705 37.2345L66.3705 37.2344C68.8507 36.3001 71.3867 35.5104 73.9226 34.7207L73.9241 34.7202C74.269 35.3544 74.9699 36.6115 75.3259 37.2345C77.3952 41.2841 80.5103 44.7441 84.2372 47.3363C92.1695 51.7196 102.394 52.376 110.204 47.3474C118.87 42.2854 123.22 31.7832 121.874 21.9819C120.127 14.5613 115.232 7.8528 108.368 4.4151ZM87.1012 29.8759C86.5297 26.4039 85.9185 22.6905 88.1644 19.8013C91.8914 14.2164 100.747 13.4266 105.342 18.3662C110.193 22.7495 109.848 31.2269 104.597 35.1541C99.3227 40.027 89.3882 37.7908 87.2521 30.8042C87.2037 30.4984 87.1529 30.1899 87.1018 29.8794L87.1012 29.8759ZM136.086 48.9085C132.67 45.0258 135.974 37.9502 141.27 38.4842C145.093 38.9505 148.005 41.5986 150.833 44.1701C151.783 45.0339 152.724 45.8891 153.686 46.6501L153.686 46.6501C166.168 57.7197 175.369 72.8834 178.184 89.4154C178.289 91.6579 178.559 93.8846 178.828 96.1086L178.828 96.109C179.273 99.7767 179.716 103.437 179.418 107.149C179.286 111.052 178.59 114.88 177.895 118.708L177.895 118.708C177.481 120.991 177.066 123.274 176.771 125.572C177.193 126.073 178.039 127.052 178.473 127.542C181.31 130.823 182.923 134.973 183.835 139.179C185.026 149.514 179.697 160.428 170.173 164.956C162.541 168.994 153.252 167.692 145.909 163.654C139.056 159.07 134.606 151.038 134.795 142.75C134.717 132.793 141.437 123.303 150.793 119.943C154.572 118.357 158.687 118.435 162.73 118.512C163.34 118.524 163.949 118.535 164.555 118.541C166.079 111.655 166.658 104.624 166.38 97.5924C164.755 82.5845 157.246 68.767 146.788 58.0645L146.788 58.0642C145.141 56.4771 143.355 55.0456 141.568 53.6144C139.686 52.1061 137.804 50.5981 136.086 48.9085ZM156 132.5C148.435 133.257 145.642 144.752 150.593 150.081C155.288 156.567 166.424 155.021 169.628 147.834C173.422 140.792 167.125 130.868 159.059 131.947C158.375 132.039 158.003 132.081 157.766 132.107L157.765 132.108H157.765L157.765 132.108C157.586 132.128 157.485 132.139 157.385 132.157C157.254 132.18 157.125 132.213 156.829 132.289L156.829 132.289C156.637 132.339 156.376 132.406 156 132.5ZM28.8496 111.555C19.4265 112.979 11.1938 120.366 8.89091 129.622C6.25429 138.344 9.69176 148.157 16.2777 154.209L16.2773 154.209C22.3294 159.883 30.9848 161.028 38.9171 159.972C39.9272 160.907 40.9228 161.862 41.9191 162.817C44.6207 165.407 47.3273 168.002 50.3427 170.229C52.7346 171.842 55.1822 173.411 57.6631 174.902C75.3635 185.493 97.3358 187.273 117.072 182.066C121.255 180.909 125.516 179.73 129.309 177.549C131.273 176.573 131.908 174.444 132.493 172.479C132.581 172.184 132.668 171.892 132.758 171.609C131.824 167.114 126.862 164.032 122.568 166.302C103.899 173.867 81.6047 173.967 63.9822 163.532C59.3319 160.316 54.6704 157.046 50.8545 152.829C53.2798 149.38 55.7607 145.798 56.673 141.604C59.165 131.346 54.3591 119.732 45.0143 114.647L45.0145 114.647C40.1194 111.966 34.3899 110.72 28.8496 111.555ZM63.9822 163.532C63.7741 163.742 63.5636 163.953 63.3519 164.165C63.5637 163.953 63.7742 163.742 63.9822 163.532ZM24.3439 143.829L24.3436 143.829C27.4141 146.232 31.4078 147.923 35.3348 146.899C41.3758 145.576 45.3586 138.745 43.5674 132.826C42.8202 129.496 40.1081 127.284 37.5971 125.237L37.5042 125.161L37.5044 125.161C32.7207 123.948 27.0027 124.604 23.8432 128.788C20.1274 133.093 20.9507 139.601 24.3439 143.829Z" fill="url(#paint0_linear_642_20)"/>
<path d="M89.5439 3.29147L88.658 0.42526L88.5445 0.460335L88.4341 0.50427L89.5439 3.29147ZM108.368 4.4151L106.993 7.08176L107.009 7.08972L107.024 7.09749L108.368 4.4151ZM88.6705 3.6153L89.6784 6.44091L89.6784 6.44091L88.6705 3.6153ZM85.7707 5L84.1066 2.50385L83.3346 3.01851L82.9879 3.87912L85.7707 5ZM85.7706 5.00017L86.7797 7.82536L88.0495 7.3718L88.5533 6.12105L85.7706 5.00017ZM74.0092 18.5218L71.3281 17.1758L71.3225 17.1872L74.0092 18.5218ZM74.0088 18.5226L76.6859 19.8766L76.6908 19.8669L76.6956 19.8573L74.0088 18.5226ZM74.0078 18.5246L71.3307 17.1707L71.3267 17.1787L74.0078 18.5246ZM72.7452 21.0028L73.7212 23.8396L74.8476 23.4521L75.4013 22.3974L72.7452 21.0028ZM41.0828 38.3471L43.1213 40.5481L43.1316 40.5385L43.1418 40.5289L41.0828 38.3471ZM16.1178 91.1585L19.063 91.7289L19.097 91.5535L19.1099 91.3754L16.1178 91.1585ZM19.4888 98.98L17.3898 101.123L18.3316 102.046L19.6479 101.976L19.4888 98.98ZM20.727 98.9346L20.8134 101.933L20.8211 101.933L20.727 98.9346ZM20.7277 98.9346L20.6414 95.9358L20.6336 95.9361L20.7277 98.9346ZM27.9328 96.254L30.4932 97.8175L30.5327 97.7528L30.5688 97.6862L27.9328 96.254ZM29.4682 89.9504L26.4865 89.6199L26.4865 89.6199L29.4682 89.9504ZM29.8797 86.9754L32.8243 87.5494L32.8363 87.4878L32.8457 87.4257L29.8797 86.9754ZM49.2821 48.7047L51.3536 50.8747L51.3677 50.8612L51.3816 50.8476L49.2821 48.7047ZM66.3705 37.2345L67.7547 39.8961L69.4175 39.0313L69.3695 37.1576L66.3705 37.2345ZM66.3705 37.2344L65.313 34.4269L63.3168 35.1788L63.3715 37.3112L66.3705 37.2344ZM73.9226 34.7207L73.0327 31.8557L73.0306 31.8563L73.9226 34.7207ZM73.9241 34.7202L76.5595 33.2869L75.384 31.1254L73.0342 31.8552L73.9241 34.7202ZM75.3259 37.2345L77.9973 35.8694L77.9654 35.807L77.9306 35.7461L75.3259 37.2345ZM84.2372 47.3363L82.5242 49.7991L82.651 49.8874L82.7862 49.9621L84.2372 47.3363ZM110.204 47.3474L108.691 44.757L108.634 44.7898L108.58 44.825L110.204 47.3474ZM121.874 21.9819L124.846 21.5737L124.826 21.4329L124.794 21.2944L121.874 21.9819ZM88.1644 19.8013L90.5329 21.6425L90.5995 21.5568L90.6597 21.4666L88.1644 19.8013ZM87.1012 29.8759L90.062 29.3921L90.0614 29.3887L87.1012 29.8759ZM105.342 18.3662L103.145 20.4095L103.234 20.5048L103.33 20.5921L105.342 18.3662ZM104.597 35.1541L102.8 32.7517L102.675 32.845L102.561 32.9506L104.597 35.1541ZM87.2521 30.8042L84.2889 31.2729L84.3217 31.4804L84.3832 31.6813L87.2521 30.8042ZM87.1018 29.8794L84.1411 30.3632L84.1416 30.3667L87.1018 29.8794ZM141.27 38.4842L141.633 35.5062L141.602 35.5024L141.571 35.4993L141.27 38.4842ZM136.086 48.9085L133.834 50.8901L133.905 50.9713L133.982 51.0472L136.086 48.9085ZM150.833 44.1701L152.852 41.9505L152.852 41.9505L150.833 44.1701ZM153.686 46.6501L155.95 48.6186L158.013 46.2465L155.547 44.2968L153.686 46.6501ZM153.686 46.6501L151.422 44.6816L149.473 46.9234L151.696 48.8946L153.686 46.6501ZM178.184 89.4154L181.181 89.2752L181.172 89.0923L181.141 88.9118L178.184 89.4154ZM178.828 96.1086L175.85 96.4695L175.851 96.4807L178.828 96.1086ZM178.828 96.109L181.806 95.7481L181.805 95.7369L178.828 96.109ZM179.418 107.149L176.427 106.909L176.422 106.978L176.42 107.047L179.418 107.149ZM177.895 118.708L174.943 118.172L174.94 118.194L174.936 118.215L177.895 118.708ZM177.895 118.708L180.847 119.245L180.851 119.223L180.854 119.202L177.895 118.708ZM176.771 125.572L173.795 125.19L173.627 126.497L174.476 127.505L176.771 125.572ZM178.473 127.542L180.742 125.58L180.73 125.566L180.719 125.553L178.473 127.542ZM183.835 139.179L186.815 138.836L186.798 138.688L186.767 138.543L183.835 139.179ZM170.173 164.956L168.885 162.247L168.827 162.274L168.77 162.304L170.173 164.956ZM145.909 163.654L144.241 166.148L144.349 166.22L144.463 166.283L145.909 163.654ZM134.795 142.75L137.794 142.818L137.795 142.772L137.795 142.726L134.795 142.75ZM150.793 119.943L151.807 122.766L151.881 122.74L151.953 122.709L150.793 119.943ZM162.73 118.512L162.786 115.513L162.786 115.513L162.73 118.512ZM164.555 118.541L164.526 121.541L166.958 121.564L167.484 119.189L164.555 118.541ZM166.38 97.5924L169.378 97.4739L169.374 97.3714L169.362 97.2695L166.38 97.5924ZM146.788 58.0645L144.079 59.3543L144.294 59.8045L144.642 60.1612L146.788 58.0645ZM146.788 58.0642L149.496 56.7744L149.262 56.2824L148.87 55.9042L146.788 58.0642ZM141.568 53.6144L143.444 51.2732L143.444 51.2732L141.568 53.6144ZM150.593 150.081L153.023 148.322L152.915 148.173L152.791 148.039L150.593 150.081ZM156 132.5L156.299 135.485L156.516 135.463L156.728 135.41L156 132.5ZM169.628 147.834L166.987 146.411L166.934 146.51L166.888 146.612L169.628 147.834ZM159.059 131.947L158.661 128.973L158.661 128.974L159.059 131.947ZM157.766 132.107L157.429 129.126L157.385 129.131L157.342 129.138L157.766 132.107ZM157.765 132.108V135.108H157.979L158.19 135.077L157.765 132.108ZM157.765 132.108V129.108H157.64L157.516 129.118L157.765 132.108ZM157.765 132.108L157.515 129.118L157.471 129.122L157.427 129.127L157.765 132.108ZM157.385 132.157L157.902 135.112L157.902 135.112L157.385 132.157ZM156.829 132.289L156.08 129.384L155.979 129.41L155.88 129.443L156.829 132.289ZM156.829 132.289L157.577 135.194L157.678 135.168L157.777 135.135L156.829 132.289ZM8.89091 129.622L11.7626 130.49L11.7841 130.419L11.8022 130.346L8.89091 129.622ZM28.8496 111.555L28.4025 108.588L28.4013 108.589L28.8496 111.555ZM16.2777 154.209L18.6472 156.048L20.3404 153.868L18.3076 152L16.2777 154.209ZM16.2773 154.209L13.9078 152.369L12.2314 154.528L14.2255 156.398L16.2773 154.209ZM38.9171 159.972L40.9552 157.771L39.9199 156.812L38.5213 156.998L38.9171 159.972ZM41.9191 162.817L39.8429 164.982L39.8429 164.982L41.9191 162.817ZM50.3427 170.229L48.5606 172.642L48.6122 172.68L48.6654 172.716L50.3427 170.229ZM57.6631 174.902L56.1178 177.473L56.1228 177.476L57.6631 174.902ZM117.072 182.066L117.838 184.967L117.855 184.962L117.872 184.957L117.072 182.066ZM129.309 177.549L127.974 174.863L127.893 174.903L127.814 174.948L129.309 177.549ZM132.493 172.479L129.618 171.622L129.618 171.622L132.493 172.479ZM132.758 171.609L135.617 172.518L135.856 171.769L135.696 170.999L132.758 171.609ZM122.568 166.302L123.695 169.082L123.836 169.025L123.97 168.954L122.568 166.302ZM50.8545 152.829L48.4005 151.103L47.0216 153.064L48.6301 154.842L50.8545 152.829ZM56.673 141.604L53.7578 140.896L53.7493 140.931L53.7416 140.966L56.673 141.604ZM45.0143 114.647L42.5384 112.953L40.6627 115.695L43.5804 117.282L45.0143 114.647ZM45.0145 114.647L47.4904 116.341L49.361 113.607L46.4556 112.016L45.0145 114.647ZM63.3519 164.165L61.2288 162.046L65.4747 166.285L63.3519 164.165ZM24.3436 143.829L21.9873 141.972L20.1242 144.337L22.4948 146.192L24.3436 143.829ZM24.3439 143.829L26.7002 145.686L28.1769 143.812L26.6836 141.951L24.3439 143.829ZM35.3348 146.899L34.693 143.968L34.6352 143.981L34.5779 143.996L35.3348 146.899ZM43.5674 132.826L40.6402 133.483L40.6643 133.59L40.696 133.695L43.5674 132.826ZM37.5971 125.237L35.701 127.562L35.7012 127.562L37.5971 125.237ZM37.5042 125.161L35.0898 123.38L33.3939 125.68L35.6081 127.486L37.5042 125.161ZM37.5044 125.161L39.9188 126.941L42.5678 123.35L38.2416 122.253L37.5044 125.161ZM23.8432 128.788L26.1142 130.748L26.1782 130.674L26.2373 130.596L23.8432 128.788ZM90.4298 6.15768C95.9856 4.44042 102.063 4.54096 106.993 7.08176L109.742 1.74844C103.102 -1.67384 95.3399 -1.64006 88.658 0.42526L90.4298 6.15768ZM89.6784 6.44091C89.9602 6.34038 90.2989 6.21989 90.6536 6.07867L88.4341 0.50427C88.1964 0.598943 87.9583 0.68417 87.6625 0.789695L89.6784 6.44091ZM87.4348 7.49615C88.2413 6.95849 88.8349 6.74179 89.6784 6.44091L87.6625 0.78969C86.7408 1.11849 85.5604 1.53462 84.1066 2.50385L87.4348 7.49615ZM88.5533 6.12105L88.5534 6.12088L82.9879 3.87912L82.9879 3.87929L88.5533 6.12105ZM76.6904 19.8677C79.5498 14.1718 82.0471 9.51576 86.7797 7.82536L84.7615 2.17498C77.3743 4.81359 73.9312 11.9906 71.3281 17.1758L76.6904 19.8677ZM76.6956 19.8573L76.696 19.8564L71.3225 17.1872L71.322 17.188L76.6956 19.8573ZM76.6854 19.8776L76.6859 19.8766L71.3317 17.1687L71.3312 17.1697L76.6854 19.8776ZM76.6849 19.8786L76.6854 19.8776L71.3312 17.1697L71.3307 17.1707L76.6849 19.8786ZM75.4013 22.3974C75.8384 21.5649 76.2681 20.7088 76.6889 19.8706L71.3267 17.1787C70.9013 18.0259 70.4963 18.8324 70.089 19.6082L75.4013 22.3974ZM43.1418 40.5289C51.5686 32.5761 62.4238 27.7265 73.7212 23.8396L71.7692 18.166C60.2378 22.1335 48.3973 27.3189 39.0237 36.1653L43.1418 40.5289ZM19.1099 91.3754C20.4932 72.2885 29.091 53.5427 43.1213 40.5481L39.0442 36.1461C23.8376 50.2303 14.6127 70.4227 13.1256 90.9416L19.1099 91.3754ZM21.5878 96.8366C19.5835 94.8739 18.7622 93.2825 19.063 91.7289L13.1725 90.5881C12.2496 95.3535 15.1664 98.9462 17.3898 101.123L21.5878 96.8366ZM20.6406 95.9359C20.225 95.9478 19.7728 95.9607 19.3297 95.9842L19.6479 101.976C20.0055 101.957 20.3834 101.946 20.8134 101.933L20.6406 95.9359ZM20.6336 95.9361L20.6329 95.9361L20.8211 101.933L20.8218 101.933L20.6336 95.9361ZM25.3724 94.6905C25.1087 95.1224 24.728 95.4091 23.9725 95.6141C23.1036 95.8499 22.0562 95.8951 20.6414 95.9358L20.8141 101.933C22.0777 101.897 23.8643 101.861 25.544 101.405C27.3371 100.918 29.2196 99.903 30.4932 97.8175L25.3724 94.6905ZM26.4865 89.6199C26.2332 91.9055 26.02 93.4905 25.2967 94.8218L30.5688 97.6862C31.948 95.1477 32.2204 92.3517 32.45 90.2809L26.4865 89.6199ZM26.9351 86.4014C26.7181 87.5147 26.5952 88.6391 26.4865 89.6199L32.45 90.2809C32.5636 89.2558 32.6625 88.3793 32.8243 87.5494L26.9351 86.4014ZM47.2105 46.5347C36.1369 57.1061 29.1838 71.573 26.9137 86.5251L32.8457 87.4257C34.9368 73.6526 41.3339 60.4399 51.3536 50.8747L47.2105 46.5347ZM64.9863 34.5729C58.8576 37.7603 52.462 41.3893 47.1826 46.5618L51.3816 50.8476C55.9813 46.3411 61.6902 43.0501 67.7547 39.8961L64.9863 34.5729ZM63.3715 37.3112L63.3715 37.3114L69.3695 37.1576L69.3695 37.1575L63.3715 37.3112ZM73.0306 31.8563C70.5088 32.6417 67.8889 33.4566 65.313 34.4269L67.428 40.0418C69.8126 39.1436 72.2646 38.3791 74.8145 37.585L73.0306 31.8563ZM73.0342 31.8552L73.0327 31.8557L74.8124 37.5856L74.8139 37.5852L73.0342 31.8552ZM77.9306 35.7461C77.5851 35.1414 76.8944 33.9027 76.5595 33.2869L71.2886 36.1535C71.6435 36.8061 72.3547 38.0816 72.7211 38.7229L77.9306 35.7461ZM85.9502 44.8735C82.6016 42.5444 79.8279 39.4519 77.9973 35.8694L72.6544 38.5996C74.9624 43.1163 78.419 46.9438 82.5242 49.7991L85.9502 44.8735ZM108.58 44.825C101.892 49.1306 92.8759 48.6824 85.6881 44.7105L82.7862 49.9621C91.4631 54.7568 102.895 55.6214 111.828 49.8698L108.58 44.825ZM118.902 22.3901C120.104 31.1487 116.176 40.3848 108.691 44.757L111.717 49.9378C121.564 44.186 126.335 32.4177 124.846 21.5737L118.902 22.3901ZM107.024 7.09749C113.015 10.0977 117.389 16.0257 118.954 22.6694L124.794 21.2944C122.864 13.0969 117.449 5.6079 109.711 1.73271L107.024 7.09749ZM85.7958 17.9601C82.6052 22.0646 83.6235 27.2191 84.1411 30.3632L90.0614 29.3887C89.4359 25.5888 89.2317 23.3164 90.5329 21.6425L85.7958 17.9601ZM107.538 16.3229C104.514 13.0717 100.191 11.8045 96.1721 12.148C92.1555 12.4912 88.1154 14.4701 85.669 18.136L90.6597 21.4666C91.9404 19.5476 94.1914 18.3391 96.683 18.1262C99.1721 17.9134 101.574 18.7211 103.145 20.4095L107.538 16.3229ZM106.393 37.5565C113.173 32.486 113.59 21.7764 107.353 16.1403L103.33 20.5921C106.795 23.7226 106.522 29.9678 102.8 32.7517L106.393 37.5565ZM84.3832 31.6813C85.8276 36.4056 89.8429 39.3285 94.0436 40.3427C98.2315 41.3538 103.121 40.6016 106.633 37.3576L102.561 32.9506C100.798 34.5795 98.0836 35.1457 95.4517 34.5103C92.8326 33.8779 90.8127 32.1893 90.121 29.9271L84.3832 31.6813ZM84.1416 30.3667C84.193 30.6787 84.2422 30.978 84.2889 31.2729L90.2152 30.3354C90.1651 30.0188 90.1128 29.701 90.062 29.3922L84.1416 30.3667ZM84.1405 30.3597L84.1411 30.3632L90.0625 29.3956L90.062 29.3921L84.1405 30.3597ZM141.571 35.4993C137.367 35.0753 134.176 37.7126 132.712 40.7308C131.259 43.7253 131.141 47.829 133.834 50.8901L138.338 46.9268C137.616 46.1052 137.441 44.7298 138.11 43.3493C138.768 41.9925 139.878 41.359 140.969 41.469L141.571 35.4993ZM152.852 41.9505C150.18 39.5212 146.568 36.1082 141.633 35.5062L140.907 41.4621C143.617 41.7927 145.831 43.676 148.815 46.3897L152.852 41.9505ZM155.547 44.2968C154.68 43.6113 153.817 42.828 152.852 41.9505L148.815 46.3897C149.75 47.2399 150.768 48.167 151.825 49.0033L155.547 44.2968ZM155.95 48.6187L155.95 48.6186L151.422 44.6815L151.422 44.6816L155.95 48.6187ZM181.141 88.9118C178.198 71.6255 168.605 55.871 155.677 44.4056L151.696 48.8946C163.731 59.5685 172.54 74.1413 175.226 89.919L181.141 88.9118ZM181.806 95.7478C181.535 93.5055 181.28 91.3886 181.181 89.2752L175.187 89.5556C175.298 91.9272 175.583 94.2638 175.85 96.4695L181.806 95.7478ZM181.805 95.7369L181.805 95.7365L175.851 96.4807L175.851 96.4811L181.805 95.7369ZM182.408 107.389C182.735 103.326 182.245 99.3665 181.806 95.7481L175.85 96.4699C176.3 100.187 176.697 103.548 176.427 106.909L182.408 107.389ZM180.847 119.244C181.536 115.452 182.275 111.408 182.416 107.251L176.42 107.047C176.296 110.695 175.645 114.308 174.943 118.172L180.847 119.244ZM180.854 119.202L180.854 119.201L174.936 118.215L174.936 118.215L180.854 119.202ZM179.746 125.954C180.03 123.746 180.43 121.54 180.847 119.245L174.943 118.172C174.531 120.442 174.102 122.802 173.795 125.19L179.746 125.954ZM180.719 125.553C180.301 125.081 179.471 124.121 179.065 123.639L174.476 127.505C174.915 128.025 175.777 129.023 176.227 129.531L180.719 125.553ZM186.767 138.543C185.793 134.055 184.023 129.374 180.742 125.58L176.204 129.504C178.597 132.272 180.052 135.891 180.903 139.815L186.767 138.543ZM171.461 167.665C182.268 162.527 188.137 150.303 186.815 138.836L180.855 139.522C181.915 148.725 177.126 158.329 168.885 162.247L171.461 167.665ZM144.463 166.283C152.398 170.646 162.79 172.256 171.576 167.608L168.77 162.304C162.291 165.732 154.106 164.738 147.354 161.025L144.463 166.283ZM131.796 142.682C131.582 152.059 136.59 161.03 144.241 166.148L147.577 161.16C141.522 157.11 137.63 150.017 137.794 142.818L131.796 142.682ZM149.779 117.12C139.242 120.904 131.707 131.523 131.795 142.773L137.795 142.726C137.727 134.063 143.632 125.702 151.807 122.766L149.779 117.12ZM162.786 115.513C158.862 115.438 154.093 115.305 149.632 117.177L151.953 122.709C155.051 121.41 158.512 121.433 162.673 121.512L162.786 115.513ZM164.583 115.541C163.994 115.535 163.399 115.524 162.786 115.513L162.673 121.512C163.281 121.523 163.904 121.535 164.526 121.541L164.583 115.541ZM163.382 97.7109C163.651 104.499 163.091 111.272 161.626 117.893L167.484 119.189C169.067 112.038 169.665 104.749 169.378 97.4739L163.382 97.7109ZM144.642 60.1612C154.72 70.475 161.857 83.6934 163.397 97.9154L169.362 97.2695C167.652 81.4756 159.771 67.059 148.934 55.9679L144.642 60.1612ZM144.079 59.354L144.079 59.3543L149.496 56.7747L149.496 56.7744L144.079 59.354ZM139.692 55.9555C141.497 57.4012 143.175 58.7483 144.706 60.2242L148.87 55.9042C147.108 54.2059 145.212 52.69 143.444 51.2732L139.692 55.9555ZM133.982 51.0472C135.827 52.8617 137.83 54.4633 139.692 55.9555L143.444 51.2732C141.542 49.7489 139.781 48.3344 138.19 46.7697L133.982 51.0472ZM152.791 148.039C151.223 146.352 150.661 143.329 151.49 140.39C152.314 137.469 154.169 135.698 156.299 135.485L155.701 129.515C150.266 130.059 146.942 134.414 145.715 138.762C144.494 143.092 145.012 148.481 148.395 152.123L152.791 148.039ZM166.888 146.612C165.796 149.061 163.245 150.737 160.295 151.108C157.359 151.477 154.592 150.489 153.023 148.322L148.163 151.84C151.289 156.159 156.437 157.641 161.044 157.061C165.637 156.484 170.256 153.794 172.368 149.056L166.888 146.612ZM159.457 134.921C162.074 134.57 164.639 135.976 166.279 138.486C167.928 141.01 168.25 144.067 166.987 146.411L172.269 149.257C174.8 144.559 173.87 139.133 171.302 135.204C168.726 131.262 164.11 128.245 158.661 128.973L159.457 134.921ZM158.103 135.089C158.352 135.06 158.746 135.016 159.457 134.92L158.661 128.974C158.003 129.062 157.653 129.101 157.429 129.126L158.103 135.089ZM158.19 135.077L158.19 135.077L157.342 129.138L157.341 129.138L158.19 135.077ZM157.765 135.108H157.765V129.108H157.765V135.108ZM158.014 135.097L158.014 135.097L157.516 129.118L157.515 129.118L158.014 135.097ZM157.902 135.112C157.89 135.114 157.89 135.114 157.92 135.11C157.958 135.105 158.006 135.099 158.102 135.089L157.427 129.127C157.279 129.143 157.077 129.165 156.868 129.202L157.902 135.112ZM157.577 135.194C157.735 135.154 157.816 135.133 157.874 135.119C157.923 135.107 157.921 135.109 157.902 135.112L156.868 129.202C156.592 129.25 156.328 129.32 156.08 129.384L157.577 135.194ZM157.777 135.135L157.777 135.135L155.88 129.443L155.88 129.443L157.777 135.135ZM156.728 135.41C157.115 135.314 157.384 135.244 157.577 135.194L156.08 129.384C155.891 129.433 155.638 129.498 155.272 129.59L156.728 135.41ZM11.8022 130.346C13.8077 122.285 21.054 115.767 29.2979 114.521L28.4013 108.589C17.799 110.191 8.5799 118.447 5.97966 128.898L11.8022 130.346ZM18.3076 152C12.434 146.602 9.50928 137.944 11.7626 130.49L6.01925 128.754C2.99929 138.744 6.94948 149.711 14.2478 156.418L18.3076 152ZM18.6469 156.049L18.6472 156.048L13.9081 152.369L13.9078 152.369L18.6469 156.049ZM38.5213 156.998C31.033 157.995 23.4536 156.825 18.3292 152.02L14.2255 156.398C21.2052 162.941 30.9367 164.061 39.313 162.946L38.5213 156.998ZM43.9953 160.651C43.0022 159.699 41.9878 158.726 40.9552 157.771L36.8791 162.173C37.8667 163.088 38.8434 164.024 39.8429 164.982L43.9953 160.651ZM52.1249 167.816C49.2903 165.722 46.7203 163.264 43.9953 160.651L39.8429 164.982C42.521 167.55 45.3644 170.282 48.5606 172.642L52.1249 167.816ZM59.2085 172.331C56.777 170.869 54.3735 169.329 52.0201 167.742L48.6654 172.716C51.0958 174.355 53.5875 175.953 56.1178 177.473L59.2085 172.331ZM116.307 179.165C97.2161 184.202 76.0989 182.437 59.2035 172.328L56.1228 177.476C74.6282 188.549 97.4556 190.344 117.838 184.967L116.307 179.165ZM127.814 174.948C124.406 176.908 120.52 178 116.273 179.175L117.872 184.957C121.99 183.818 126.627 182.552 130.805 180.15L127.814 174.948ZM129.618 171.622C129.309 172.661 129.081 173.389 128.768 173.979C128.489 174.504 128.237 174.732 127.974 174.863L130.645 180.235C133.973 178.581 134.871 175.004 135.368 173.336L129.618 171.622ZM129.899 170.7C129.8 171.014 129.705 171.332 129.618 171.622L135.368 173.336C135.458 173.036 135.537 172.771 135.617 172.518L129.899 170.7ZM123.97 168.954C126.121 167.817 129.202 169.24 129.821 172.219L135.696 170.999C134.447 164.988 127.603 160.247 121.166 163.65L123.97 168.954ZM62.4537 166.113C81.0355 177.116 104.339 176.926 123.695 169.082L121.442 163.522C103.46 170.808 82.174 170.818 65.5108 160.951L62.4537 166.113ZM48.6301 154.842C52.7129 159.354 57.6581 162.806 62.2758 165.999L65.6886 161.065C61.0058 157.826 56.628 154.738 53.079 150.816L48.6301 154.842ZM53.7416 140.966C52.9783 144.475 50.8789 147.579 48.4005 151.103L53.3086 154.555C55.6808 151.181 58.5432 147.121 59.6045 142.242L53.7416 140.966ZM43.5804 117.282C51.671 121.685 55.9451 131.892 53.7578 140.896L59.5883 142.312C62.3849 130.8 57.0472 117.78 46.4482 112.012L43.5804 117.282ZM42.5386 112.953L42.5384 112.953L47.4902 116.341L47.4904 116.341L42.5386 112.953ZM29.2967 114.521C34.1074 113.796 39.1784 114.871 43.5734 117.278L46.4556 112.016C41.0604 109.061 34.6724 107.644 28.4025 108.588L29.2967 114.521ZM61.8498 161.422C61.6471 161.627 61.4412 161.833 61.2288 162.046L65.4751 166.285C65.686 166.073 65.9012 165.858 66.1147 165.642L61.8498 161.422ZM65.4747 166.285C65.6859 166.074 65.9013 165.858 66.1151 165.642L61.8494 161.422C61.6471 161.627 61.4414 161.833 61.2292 162.045L65.4747 166.285ZM26.6999 145.686L26.7002 145.686L21.9876 141.972L21.9873 141.972L26.6999 145.686ZM34.5779 143.996C31.9545 144.68 28.9256 143.606 26.1925 141.467L22.4948 146.192C25.9025 148.859 30.8612 151.166 36.0918 149.802L34.5779 143.996ZM40.696 133.695C41.9837 137.95 39.0147 143.022 34.693 143.968L35.9766 149.83C43.737 148.13 48.7336 139.54 46.4388 131.957L40.696 133.695ZM35.7012 127.562C38.3889 129.753 40.1589 131.338 40.6402 133.483L46.4946 132.169C45.4815 127.654 41.8273 124.815 39.4931 122.912L35.7012 127.562ZM35.6081 127.486L35.701 127.562L39.4933 122.912L39.4004 122.836L35.6081 127.486ZM35.0899 123.38L35.0898 123.38L39.9187 126.942L39.9188 126.941L35.0899 123.38ZM26.2373 130.596C28.3535 127.794 32.5441 126.998 36.7671 128.069L38.2416 122.253C32.8973 120.898 25.6518 121.415 21.4491 126.98L26.2373 130.596ZM26.6836 141.951C23.9259 138.515 23.6003 133.661 26.1142 130.748L21.5722 126.828C16.6545 132.525 17.9755 140.687 22.0042 145.707L26.6836 141.951Z" fill="url(#paint1_linear_642_20)"/>
</g>
<defs>
<linearGradient id="paint0_linear_642_20" x1="7.99932" y1="184.888" x2="220.706" y2="92.644" gradientUnits="userSpaceOnUse">
<stop stop-color="#0357D1"/>
<stop offset="1" stop-color="#27CDFC"/>
</linearGradient>
<linearGradient id="paint1_linear_642_20" x1="7.99932" y1="184.888" x2="220.706" y2="92.644" gradientUnits="userSpaceOnUse">
<stop stop-color="#0357D1"/>
<stop offset="1" stop-color="#27CDFC"/>
</linearGradient>
<clipPath id="clip0_642_20">
<rect width="192" height="192" fill="white"/>
</clipPath>
</defs>
</svg>
