<svg width="24" height="24" viewBox="0 0 24 24" fill="none" xmlns="http://www.w3.org/2000/svg">
<path d="M20.0292 15.1045C20.7441 15.1049 21.4321 15.377 21.9538 15.8657C22.4756 16.3544 22.7921 17.0231 22.8393 17.7365L22.8461 17.9213V20.1813C22.8435 20.9109 22.558 21.6111 22.0497 22.1345C21.5413 22.658 20.8498 22.9638 20.1206 22.9878C19.3914 23.0117 18.6813 22.7519 18.1397 22.2629C17.5981 21.774 17.2673 21.0941 17.2169 20.3662L17.2113 20.1813V17.9213C17.2116 17.1741 17.5086 16.4577 18.037 15.9294C18.5655 15.4012 19.282 15.1045 20.0292 15.1045ZM11.5753 3.83036C12.8945 3.83032 14.1995 4.10271 15.4086 4.63046C16.6176 5.15821 17.7047 5.92996 18.6016 6.89736C19.4985 7.86475 20.186 9.00694 20.6209 10.2524C21.0559 11.4978 21.229 12.8197 21.1294 14.1351C20.5821 13.9735 20.0059 13.9347 19.442 14.0213C19.5696 12.3669 19.1725 10.7144 18.3071 9.29864C17.4416 7.88292 16.1519 6.77608 14.6212 6.13548C13.0906 5.49488 11.3969 5.35314 9.78109 5.7304C8.16526 6.10766 6.70947 6.98472 5.62074 8.23689C4.53201 9.48905 3.86573 11.0526 3.71666 12.7052C3.56758 14.3577 3.94329 16.0153 4.79036 17.4421C5.63743 18.8689 6.91275 19.9923 8.43499 20.6526C9.95723 21.313 11.6489 21.4766 13.2695 21.1203V22.146L13.2819 22.3545V22.8415C11.9731 23.0776 10.6294 23.0386 9.33651 22.727C8.04358 22.4155 6.82967 21.8381 5.77206 21.0318C4.71445 20.2254 3.83629 19.2077 3.19348 18.0435C2.55067 16.8792 2.15729 15.5938 2.03838 14.2692C1.91946 12.9446 2.07762 11.6098 2.50279 10.3496C2.92795 9.08947 3.61081 7.93164 4.5079 6.94982C5.40499 5.968 6.49665 5.18369 7.71342 4.64683C8.93018 4.10996 10.2454 3.83229 11.5753 3.83149V3.83036ZM16.0796 15.8372L16.0874 15.9499V22.146C16.0896 22.3617 16.0093 22.5701 15.8628 22.7285C15.7164 22.8869 15.5149 22.9833 15.2997 22.998C15.0845 23.0127 14.8718 22.9446 14.7051 22.8076C14.5385 22.6705 14.4306 22.475 14.4034 22.261L14.3955 22.146V17.1244L13.8184 17.3194C13.6247 17.3845 13.4139 17.3772 13.2251 17.2989C13.0363 17.2206 12.8823 17.0765 12.7916 16.8933L12.7476 16.7874C12.6825 16.5936 12.6898 16.3828 12.7681 16.194C12.8464 16.0053 12.9905 15.8512 13.1737 15.7605L13.2796 15.7165L14.9727 15.1484C15.0907 15.1088 15.216 15.0957 15.3396 15.1101C15.4633 15.1245 15.5822 15.166 15.6879 15.2317C15.7937 15.2974 15.8836 15.3856 15.9513 15.4901C16.019 15.5945 16.0628 15.7127 16.0796 15.836V15.8372ZM20.0281 16.7953C19.7522 16.7956 19.486 16.8971 19.2799 17.0805C19.0738 17.2639 18.9422 17.5166 18.9099 17.7906L18.902 17.9213V20.1813C18.9048 20.467 19.016 20.7409 19.2131 20.9478C19.4102 21.1546 19.6784 21.2789 19.9636 21.2955C20.2488 21.3121 20.5297 21.2198 20.7495 21.0372C20.9692 20.8547 21.1114 20.5955 21.1474 20.3121L21.1541 20.1813V17.9213C21.1538 17.6228 21.0351 17.3365 20.824 17.1254C20.6129 16.9143 20.3266 16.7956 20.0281 16.7953ZM11.5753 7.21418C11.7796 7.21419 11.977 7.28817 12.1309 7.42244C12.2849 7.55672 12.385 7.7422 12.4128 7.94459L12.4207 8.05957V13.1319C12.4206 13.3461 12.3393 13.5523 12.1931 13.7088C12.0468 13.8653 11.8466 13.9605 11.6329 13.9751C11.4193 13.9897 11.208 13.9226 11.0418 13.7874C10.8757 13.6523 10.767 13.4591 10.7378 13.2469L10.7299 13.1319V8.05957C10.7299 7.83536 10.819 7.62033 10.9775 7.46179C11.1361 7.30324 11.3511 7.21418 11.5753 7.21418ZM19.6482 3.96901L19.7384 4.03889L21.0144 5.1503C21.1761 5.2911 21.2782 5.48808 21.3001 5.70135C21.3221 5.91463 21.2622 6.12827 21.1325 6.29903C21.0029 6.4698 20.8132 6.58492 20.6018 6.6211C20.3905 6.65728 20.1733 6.61181 19.9943 6.4939L19.903 6.42402L18.6293 5.31261C18.4689 5.17152 18.368 4.97499 18.3466 4.7625C18.3253 4.55001 18.3851 4.33731 18.5142 4.16715C18.6432 3.99699 18.8319 3.88198 19.0423 3.84522C19.2526 3.80846 19.4691 3.85269 19.6482 3.96901ZM14.1115 1C14.3257 1.00007 14.5319 1.08143 14.6884 1.22766C14.8449 1.37389 14.9401 1.57407 14.9547 1.78777C14.9693 2.00146 14.9022 2.21273 14.767 2.37889C14.6319 2.54504 14.4387 2.65369 14.2265 2.68289L14.1115 2.69078H9.03915C8.82496 2.69071 8.61878 2.60935 8.46227 2.46312C8.30576 2.31689 8.21059 2.11671 8.19599 1.90301C8.18139 1.68932 8.24845 1.47805 8.38362 1.31189C8.51879 1.14574 8.71199 1.03709 8.92418 1.00789L9.03915 1H14.1115Z" fill="url(#paint0_linear_637_176)" stroke="url(#paint1_linear_637_176)"/>
<defs>
<linearGradient id="paint0_linear_637_176" x1="12.423" y1="23" x2="12.423" y2="1" gradientUnits="userSpaceOnUse">
<stop stop-color="#FD5900"/>
<stop offset="1" stop-color="#FF007A"/>
</linearGradient>
<linearGradient id="paint1_linear_637_176" x1="12.423" y1="23" x2="12.423" y2="1" gradientUnits="userSpaceOnUse">
<stop stop-color="#FD5900"/>
<stop offset="1" stop-color="#FF007A"/>
</linearGradient>
</defs>
</svg>
