<svg width="128" height="128" viewBox="0 0 128 128" fill="none" xmlns="http://www.w3.org/2000/svg">
<path d="M92.5094 28.3647C96.4455 28.3647 99.6363 31.6019 99.6363 35.5952V46.7431C99.6363 48.43 98.2687 49.7975 96.5819 49.7975C94.895 49.7975 93.5275 48.43 93.5275 46.7431V35.5952C93.5275 35.0247 93.0716 34.5623 92.5094 34.5623H81.3539C79.6426 34.5623 78.2552 33.1749 78.2552 31.4634C78.2552 29.7521 79.6426 28.3647 81.3539 28.3647H92.5094Z" fill="url(#paint0_linear_614_91)"/>
<path d="M99.6363 92.4048C99.6363 96.3981 96.4455 99.6351 92.5094 99.6351H81.3539C79.6426 99.6351 78.2552 98.2479 78.2552 96.5364C78.2552 94.8251 79.6426 93.4377 81.3539 93.4377H92.5094C93.0716 93.4377 93.5275 92.9753 93.5275 92.4048V81.2569C93.5275 79.5699 94.895 78.2023 96.5819 78.2023C98.2687 78.2023 99.6363 79.5699 99.6363 81.2569V92.4048Z" fill="url(#paint1_linear_614_91)"/>
<path d="M35.4928 99.6351C31.5567 99.6351 28.3657 96.3981 28.3657 92.4048V81.2569C28.3657 79.5699 29.7332 78.2023 31.4201 78.2023C33.1072 78.2023 34.4747 79.5699 34.4747 81.2569V92.4048C34.4747 92.9753 34.9304 93.4377 35.4928 93.4377H46.6481C48.3596 93.4377 49.7468 94.8251 49.7468 96.5364C49.7468 98.2479 48.3596 99.6351 46.6481 99.6351H35.4928Z" fill="url(#paint2_linear_614_91)"/>
<path d="M28.3657 35.5952C28.3657 31.6019 31.5567 28.3647 35.4928 28.3647H46.6481C48.3596 28.3647 49.7468 29.7521 49.7468 31.4634C49.7468 33.1749 48.3596 34.5623 46.6481 34.5623H35.4928C34.9304 34.5623 34.4747 35.0247 34.4747 35.5952V46.7431C34.4747 48.43 33.1072 49.7975 31.4201 49.7975C29.7332 49.7975 28.3657 48.43 28.3657 46.7431V35.5952Z" fill="url(#paint3_linear_614_91)"/>
<path d="M92.5094 28.3647C96.4455 28.3647 99.6363 31.6019 99.6363 35.5952V46.7431C99.6363 48.43 98.2687 49.7975 96.5819 49.7975C94.895 49.7975 93.5275 48.43 93.5275 46.7431V35.5952C93.5275 35.0247 93.0716 34.5623 92.5094 34.5623H81.3539C79.6426 34.5623 78.2552 33.1749 78.2552 31.4634C78.2552 29.7521 79.6426 28.3647 81.3539 28.3647H92.5094Z" stroke="url(#paint4_linear_614_91)" stroke-width="6"/>
<path d="M99.6363 92.4048C99.6363 96.3981 96.4455 99.6351 92.5094 99.6351H81.3539C79.6426 99.6351 78.2552 98.2479 78.2552 96.5364C78.2552 94.8251 79.6426 93.4377 81.3539 93.4377H92.5094C93.0716 93.4377 93.5275 92.9753 93.5275 92.4048V81.2569C93.5275 79.5699 94.895 78.2023 96.5819 78.2023C98.2687 78.2023 99.6363 79.5699 99.6363 81.2569V92.4048Z" stroke="url(#paint5_linear_614_91)" stroke-width="6"/>
<path d="M35.4928 99.6351C31.5567 99.6351 28.3657 96.3981 28.3657 92.4048V81.2569C28.3657 79.5699 29.7332 78.2023 31.4201 78.2023C33.1072 78.2023 34.4747 79.5699 34.4747 81.2569V92.4048C34.4747 92.9753 34.9304 93.4377 35.4928 93.4377H46.6481C48.3596 93.4377 49.7468 94.8251 49.7468 96.5364C49.7468 98.2479 48.3596 99.6351 46.6481 99.6351H35.4928Z" stroke="url(#paint6_linear_614_91)" stroke-width="6"/>
<path d="M28.3657 35.5952C28.3657 31.6019 31.5567 28.3647 35.4928 28.3647H46.6481C48.3596 28.3647 49.7468 29.7521 49.7468 31.4634C49.7468 33.1749 48.3596 34.5623 46.6481 34.5623H35.4928C34.9304 34.5623 34.4747 35.0247 34.4747 35.5952V46.7431C34.4747 48.43 33.1072 49.7975 31.4201 49.7975C29.7332 49.7975 28.3657 48.43 28.3657 46.7431V35.5952Z" stroke="url(#paint7_linear_614_91)" stroke-width="6"/>
<path fill-rule="evenodd" clip-rule="evenodd" d="M28.8496 20.5789C24.2819 20.5789 20.5789 24.2819 20.5789 28.8496V99.1504C20.5789 103.718 24.2819 107.421 28.8496 107.421H99.1504C103.718 107.421 107.421 103.718 107.421 99.1504V28.8496C107.421 24.2819 103.718 20.5789 99.1504 20.5789H28.8496ZM9 28.8496C9 17.887 17.887 9 28.8496 9H99.1504C110.113 9 119 17.887 119 28.8496V99.1504C119 110.113 110.113 119 99.1504 119H28.8496C17.887 119 9 110.113 9 99.1504V28.8496Z" fill="url(#paint8_linear_614_91)"/>
<defs>
<linearGradient id="paint0_linear_614_91" x1="64" y1="100" x2="64.0023" y2="28" gradientUnits="userSpaceOnUse">
<stop stop-color="#5558FF"/>
<stop offset="1" stop-color="#00FFFF"/>
</linearGradient>
<linearGradient id="paint1_linear_614_91" x1="64" y1="100" x2="64.0023" y2="28" gradientUnits="userSpaceOnUse">
<stop stop-color="#5558FF"/>
<stop offset="1" stop-color="#00FFFF"/>
</linearGradient>
<linearGradient id="paint2_linear_614_91" x1="64" y1="100" x2="64.0023" y2="28" gradientUnits="userSpaceOnUse">
<stop stop-color="#5558FF"/>
<stop offset="1" stop-color="#00FFFF"/>
</linearGradient>
<linearGradient id="paint3_linear_614_91" x1="64" y1="100" x2="64.0023" y2="28" gradientUnits="userSpaceOnUse">
<stop stop-color="#5558FF"/>
<stop offset="1" stop-color="#00FFFF"/>
</linearGradient>
<linearGradient id="paint4_linear_614_91" x1="64" y1="100" x2="64" y2="28" gradientUnits="userSpaceOnUse">
<stop stop-color="#5558FF"/>
<stop offset="1" stop-color="#00FFFF"/>
</linearGradient>
<linearGradient id="paint5_linear_614_91" x1="64" y1="100" x2="64" y2="28" gradientUnits="userSpaceOnUse">
<stop stop-color="#5558FF"/>
<stop offset="1" stop-color="#00FFFF"/>
</linearGradient>
<linearGradient id="paint6_linear_614_91" x1="64" y1="100" x2="64" y2="28" gradientUnits="userSpaceOnUse">
<stop stop-color="#5558FF"/>
<stop offset="1" stop-color="#00FFFF"/>
</linearGradient>
<linearGradient id="paint7_linear_614_91" x1="64" y1="100" x2="64" y2="28" gradientUnits="userSpaceOnUse">
<stop stop-color="#5558FF"/>
<stop offset="1" stop-color="#00FFFF"/>
</linearGradient>
<linearGradient id="paint8_linear_614_91" x1="66.5" y1="93.5" x2="67" y2="17.5" gradientUnits="userSpaceOnUse">
<stop stop-color="#5558FF"/>
<stop offset="1" stop-color="#00FFFF"/>
</linearGradient>
</defs>
</svg>
