<svg width="64" height="64" viewBox="0 0 64 64" fill="none" xmlns="http://www.w3.org/2000/svg">
<path d="M3.00944 13.3222C2.87666 11.6422 4.16375 10.0072 5.70013 10.0223C7.61315 10.0102 9.52888 10.0162 11.4419 10.0223C12.8753 9.99517 14.1516 11.4228 14.1488 13.0066C14.1651 17.8273 14.1678 22.6479 14.1488 27.4686C14.1624 28.4183 13.3685 29.2538 12.5122 29.1727C11.7074 29.1667 10.9975 28.3462 11.0327 27.4536C11.0138 22.8072 11.0382 18.1579 11.0192 13.5115C9.3961 13.5115 7.77302 13.5115 6.15264 13.5115C6.13638 26.0741 6.15535 38.6367 6.13638 51.1962C6.17974 51.9987 5.6649 52.7861 4.95497 52.9574C3.99575 53.282 2.93627 52.3323 3.02298 51.2173C2.99589 38.5856 3.02298 25.9539 3.00944 13.3222Z" fill="url(#paint0_linear)" stroke="url(#paint1_linear)" stroke-width="2"/>
<path d="M29.0495 10.9359C29.464 10.1665 30.3718 9.74571 31.1251 10.1665C32.0653 10.6053 32.32 12.0719 31.6588 12.9104C27.7082 18.8611 23.7602 24.8148 19.8041 30.7625C19.5738 31.0119 19.5223 31.4267 19.7526 31.7002C23.538 37.5367 27.364 43.3401 31.1413 49.1796C32.0761 50.4659 31.3527 52.6148 29.8434 52.7951C27.4074 52.9033 24.9606 52.8191 22.5192 52.8372C21.1345 52.9033 19.7905 52.0978 19.0644 50.7965C17.444 48.1006 15.7748 45.4379 14.1816 42.721C14.168 45.5581 14.187 48.3952 14.168 51.2323C14.2195 52.3172 13.2223 53.2459 12.2712 52.9784C11.5451 52.8191 11.0058 52.0407 11.0383 51.2263C11.0275 46.7182 11.0167 42.2071 11.0411 37.699C11.0085 36.6561 11.8133 35.6583 12.7779 35.7124C13.4472 35.7004 14.0108 36.2053 14.3523 36.8063C16.7584 40.7585 19.1592 44.7106 21.5572 48.6687C21.7496 48.9361 21.9095 49.3629 22.2861 49.3148C23.9851 49.3809 25.6868 49.3419 27.3884 49.3449C23.9688 44.1425 20.5791 38.9161 17.1703 33.7078C16.2111 32.2922 16.2219 30.1794 17.2082 28.7879C21.1562 22.8372 25.1042 16.8866 29.0495 10.9359Z" fill="url(#paint2_linear)" stroke="url(#paint3_linear)" stroke-width="2"/>
<path d="M32.0206 20.1924C32.0947 19.5174 32.7376 18.9802 33.4187 19.0206C35.3448 19.0111 37.271 19.0183 39.1972 19.0159C40.1316 18.985 41.0994 19.3415 41.7017 20.0712C42.2465 20.701 42.4043 21.5376 42.6193 22.3148C44.2253 28.2019 45.8479 34.0843 47.4491 39.9738C47.7191 40.6939 47.3176 41.6042 46.541 41.7825C45.8192 42.0106 44.9828 41.5543 44.8132 40.8152C43.1905 34.9399 41.5917 29.0551 39.9786 23.1751C39.8639 22.6903 39.7157 22.215 39.5293 21.7539C37.498 21.7729 35.4691 21.7681 33.4402 21.7586C32.6109 21.8252 31.8653 21.0052 32.0206 20.1924Z" fill="url(#paint4_linear)" stroke="url(#paint5_linear)" stroke-width="2"/>
<path d="M57.9426 19.1812C58.9224 18.5728 60.2846 19.6019 59.9476 20.7047C57.5889 30.2211 55.1919 39.728 52.8261 49.242C52.47 50.908 51.1628 52.3246 49.521 52.8118C48.491 53.1303 47.4013 52.9996 46.3426 53.0233C45.1453 52.9948 43.9098 53.154 42.7555 52.7548C41.1496 52.2176 39.7778 50.8724 39.3931 49.2087C37.5386 41.9835 35.6603 34.763 33.8034 27.5378C33.5357 26.82 33.9109 25.9263 34.6733 25.7124C35.4738 25.4225 36.37 26.0238 36.4871 26.8438C38.3488 34.0619 40.2176 41.2776 42.0744 48.498C42.2441 49.4083 43.114 50.0144 43.9624 50.2426C45.3126 50.3115 46.67 50.2544 48.0226 50.2735C48.9546 50.3162 49.8866 49.6199 50.0969 48.7143C52.4078 39.4546 54.7259 30.1973 57.0369 20.9376C57.2017 20.3078 57.2758 19.5021 57.9426 19.1812Z" fill="url(#paint6_linear)" stroke="url(#paint7_linear)" stroke-width="2"/>
<defs>
<linearGradient id="paint0_linear" x1="8.58104" y1="53.0219" x2="8.58104" y2="10.0153" gradientUnits="userSpaceOnUse">
<stop stop-color="#5570FF"/>
<stop offset="1" stop-color="#4DD3FF"/>
</linearGradient>
<linearGradient id="paint1_linear" x1="8.58103" y1="53.0219" x2="8.58103" y2="10.0153" gradientUnits="userSpaceOnUse">
<stop stop-color="#5570FF"/>
<stop offset="1" stop-color="#4DD3FF"/>
</linearGradient>
<linearGradient id="paint2_linear" x1="21.5274" y1="53.0248" x2="21.5274" y2="9.99999" gradientUnits="userSpaceOnUse">
<stop stop-color="#5570FF"/>
<stop offset="1" stop-color="#4DD3FF"/>
</linearGradient>
<linearGradient id="paint3_linear" x1="21.5274" y1="53.0248" x2="21.5274" y2="10" gradientUnits="userSpaceOnUse">
<stop stop-color="#5570FF"/>
<stop offset="1" stop-color="#4DD3FF"/>
</linearGradient>
<linearGradient id="paint4_linear" x1="39.7666" y1="41.8415" x2="39.7666" y2="19.014" gradientUnits="userSpaceOnUse">
<stop stop-color="#FD2E00"/>
<stop offset="1" stop-color="#FF9900"/>
</linearGradient>
<linearGradient id="paint5_linear" x1="39.7666" y1="41.8415" x2="39.7666" y2="19.014" gradientUnits="userSpaceOnUse">
<stop stop-color="#FD2E00"/>
<stop offset="1" stop-color="#FF9900"/>
</linearGradient>
<linearGradient id="paint6_linear" x1="46.8587" y1="53.0315" x2="46.8587" y2="19" gradientUnits="userSpaceOnUse">
<stop stop-color="#FD2E00"/>
<stop offset="1" stop-color="#FF9900"/>
</linearGradient>
<linearGradient id="paint7_linear" x1="46.8586" y1="53.0315" x2="46.8586" y2="19" gradientUnits="userSpaceOnUse">
<stop stop-color="#FD2E00"/>
<stop offset="1" stop-color="#FF9900"/>
</linearGradient>
</defs>
</svg>
