<svg width="128" height="128" viewBox="0 0 128 128" fill="none" xmlns="http://www.w3.org/2000/svg">
<path fill-rule="evenodd" clip-rule="evenodd" d="M49.1303 6.07292C42.9446 6.38725 37.2202 10.5466 34.8798 16.2576C33.2971 20.2951 33.4272 24.6127 33.5567 28.9096C33.6149 30.84 33.6729 32.7661 33.5755 34.6608C31.9731 34.6702 30.3695 34.6597 28.7661 34.6491C25.8258 34.6298 22.8848 34.6104 19.9465 34.7143C13.5535 35.062 8.10336 40.8131 8.06333 47.2128C8.01428 52.937 8.02466 58.664 8.03505 64.3921C8.04024 67.2564 8.04544 70.1209 8.0432 72.9855C8.07178 74.0523 8.05021 75.1391 8.02859 76.2319C7.95414 79.9956 7.87829 83.8301 9.84248 87.1625C11.5074 89.5764 13.841 91.4754 16.5157 92.6658C20.3224 93.5314 24.2151 93.4482 28.1043 93.3649C29.9538 93.3252 31.8034 93.2856 33.6416 93.3481H33.6428C33.6778 95.2532 33.6542 97.1593 33.6306 99.0657C33.5956 101.89 33.5606 104.716 33.7163 107.539C33.9703 109.304 34.4451 111.042 35.2143 112.661C37.0464 116.111 39.962 118.967 43.5128 120.625C45.0508 121.187 46.6221 121.709 48.2605 121.843C53.4255 121.5 58.5979 121.466 63.7702 121.432C67.0624 121.411 70.355 121.389 73.6451 121.288C73.9056 120.92 74.1582 120.539 74.4121 120.155C75.3904 118.678 76.3895 117.169 77.9451 116.271C80.3121 115.118 82.983 115.033 85.5821 114.949C85.9201 114.939 86.2569 114.928 86.5916 114.915C88.336 114.889 90.0664 114.698 91.7969 114.507C93.2377 114.348 94.6786 114.189 96.1277 114.125C86.8674 114.093 77.6104 114.106 68.3521 114.119C64.3992 114.125 60.4461 114.13 56.4924 114.132C55.7753 114.126 55.0564 114.134 54.337 114.142C51.9707 114.169 49.5994 114.197 47.2712 113.705C44.4358 112.44 41.9884 109.939 41.6339 106.742C41.422 104.305 41.4519 101.858 41.4817 99.4091C41.499 97.9947 41.5163 96.5798 41.4869 95.167C41.4935 94.7123 41.5 93.7962 41.5 93.3415C42.9283 93.3372 44.3573 93.3497 45.7863 93.3623H45.7874C48.874 93.3892 51.9612 93.4162 55.0418 93.2746C59.1477 93.0204 62.692 90.4325 65.0459 87.1892C66.1492 84.9623 66.8046 82.5147 66.7912 80.0204C66.8061 75.765 66.8004 71.5096 66.7947 67.2542C66.7901 63.8527 66.7855 60.4512 66.7914 57.0497C66.7398 55.6923 66.772 54.2935 66.8048 52.8833C66.9166 48.0894 67.0315 43.164 63.8487 39.2887C61.9093 37.2357 59.4689 35.5169 56.6602 34.9685C54.7886 34.9991 52.9247 35.1425 51.0597 35.286C50.4794 35.3306 49.8983 35.3753 49.3175 35.4166C47.8062 37.7638 46.3618 40.1578 44.9775 42.5853C46.0851 42.6017 47.1943 42.5852 48.3037 42.5687C50.356 42.5381 52.4089 42.5076 54.4534 42.6856C56.1049 42.7726 57.3486 43.9693 58.3518 45.1595C58.4117 45.3264 58.507 45.6031 58.5926 45.8507L58.593 45.8518C58.641 45.9907 58.6858 46.1204 58.7195 46.2165L58.7199 46.2194C58.8281 54.1494 58.8105 62.0795 58.7928 70.0097L58.7928 70.0144C58.7854 73.3565 58.778 76.6985 58.7799 80.0405C59.014 82.7889 56.7938 85.3903 53.9986 85.397C53.2943 85.4832 52.5892 85.5626 51.8832 85.6349C52.5887 85.5626 53.2935 85.4831 53.9973 85.397C47.3045 85.4416 40.6118 85.437 33.9206 85.4325C29.5738 85.4295 25.2276 85.4266 20.8824 85.4371C18.8498 85.2496 16.8703 84.0393 16.2284 82.0267C15.9561 74.5756 15.9961 67.114 16.036 59.6534C16.0598 55.2022 16.0837 50.7514 16.0412 46.3033C16.8036 44.7117 17.9471 43.0198 19.8462 42.7725C21.8775 42.4924 23.9294 42.5285 25.9804 42.5645L25.9819 42.5646C27.0158 42.5827 28.0504 42.6009 29.0811 42.5785C31.7292 42.5819 34.3774 42.5819 37.0263 42.5819C39.6753 42.5819 42.326 42.5819 44.9775 42.5853C46.3618 40.1578 47.8062 37.7638 49.3175 35.4166C49.8983 35.3753 50.4779 35.3306 51.0582 35.286L51.0597 35.286C52.9247 35.1425 54.7886 34.9991 56.6602 34.9685C53.5428 34.5523 50.3987 34.5971 47.2553 34.642C45.3484 34.6692 43.4413 34.6964 41.54 34.6207C41.6152 32.8976 41.5552 31.1533 41.4949 29.4071C41.3731 25.8742 41.2511 22.3336 42.2491 18.9458C43.4127 16.8528 45.1848 14.9469 47.5721 14.3049C49.8025 13.7413 52.1022 13.785 54.3938 13.8285C55.2835 13.8454 56.1719 13.8622 57.0546 13.8435C60.9769 13.8563 64.8991 13.8538 68.8213 13.8513C73.1374 13.8487 77.4535 13.846 81.7696 13.8635C82.6802 12.5012 83.5442 11.1109 84.4079 9.72115C85.1806 8.47773 85.953 7.23476 86.7583 6.01269C83.7886 6.01022 80.8199 6.01411 77.8513 6.018C72.7649 6.02467 67.6791 6.03133 62.5908 6.00598C60.7611 6.0305 58.9314 6.02063 57.1017 6.01069C54.4446 5.99624 51.7874 5.9818 49.1303 6.07292ZM36.9326 93.3147C38.3303 90.8872 39.768 88.4798 41.3129 86.1393L41.3116 86.1393C39.7668 88.4798 38.3291 90.8872 36.9314 93.3147H36.9326Z" fill="url(#paint0_linear_670_2)"/>
<path d="M75.6706 42.3161C78.3389 41.828 81.1743 41.7945 83.8358 42.3428C86.9921 43.3125 87.2997 48.1742 84.3239 49.5785C81.5486 50.4478 78.4726 50.3007 75.6372 49.7724C72.1598 48.8295 72.2066 43.2524 75.6706 42.3161Z" fill="url(#paint1_linear_670_2)"/>
<path d="M102.174 42.316C99.4988 41.8212 96.6701 41.8078 94.0086 42.3361C90.8188 43.279 90.5245 48.2008 93.5137 49.5918C96.2956 50.4344 99.365 50.3007 102.2 49.7724C105.657 48.8161 105.611 43.2723 102.174 42.316Z" fill="url(#paint2_linear_670_2)"/>
<path d="M24.0861 50.1351C24.6262 50.1219 25.1923 50.0563 25.7658 49.9899C27.2303 49.8202 28.7434 49.6448 29.9977 50.3224C31.2138 52.2667 32.1636 54.3547 33.1142 56.4445C33.7787 57.9053 34.4437 59.367 35.2003 60.7812C35.9439 59.4136 36.5825 57.9842 37.2208 56.5553C38.2241 54.3092 39.227 52.0642 40.637 50.0616C42.2734 49.7588 43.9452 49.8869 45.5951 50.0134C45.84 50.0322 46.0843 50.0509 46.328 50.0682C45.4737 52.7688 44.1951 55.2843 42.9167 57.7991C41.9033 59.7927 40.8901 61.7859 40.0888 63.8707C40.9956 66.0412 42.0611 68.1417 43.1265 70.242C44.4573 72.8655 45.7881 75.4889 46.8094 78.2483C46.4819 78.2695 46.1533 78.2947 45.824 78.3199C44.1831 78.4455 42.5253 78.5724 40.9045 78.2216C39.5743 76.2003 38.5376 74.0048 37.5007 71.809C36.8019 70.329 36.1029 68.8487 35.314 67.4217C34.6588 68.6913 34.0481 69.9858 33.4376 71.2799C32.3406 73.6051 31.2438 75.9299 29.8907 78.1079C28.4493 78.6068 26.9092 78.4753 25.3934 78.3458C24.8979 78.3035 24.4049 78.2614 23.9189 78.2416C24.7884 75.718 26.0012 73.3429 27.2129 70.9697C28.387 68.6704 29.56 66.3729 30.4189 63.9443C29.5459 61.6173 28.4248 59.3966 27.3031 57.1747C26.1393 54.8695 24.9749 52.563 24.0861 50.1351Z" fill="url(#paint3_linear_670_2)"/>
<path d="M81.9298 59.8046C79.62 59.6517 77.2344 59.4939 75.0633 60.2396C72.0474 61.7108 72.5288 66.773 75.819 67.5287L75.9611 67.5402C78.6669 67.7576 81.5028 67.9856 84.1513 67.3414C87.4883 66.0041 86.9466 60.4738 83.3756 59.892C82.8988 59.8687 82.416 59.8368 81.9298 59.8046Z" fill="url(#paint4_linear_670_2)"/>
<path d="M93.9352 60.0256C96.6701 59.5575 99.5524 59.591 102.294 60.0056C105.712 61.1625 105.557 66.6861 102.02 67.5287C99.4186 67.8162 96.7504 67.8296 94.1558 67.5153C90.665 66.6393 90.5179 61.1223 93.9352 60.0256Z" fill="url(#paint5_linear_670_2)"/>
<path d="M82.2872 77.3147C79.9774 77.1619 77.5918 77.004 75.4207 77.7498C72.4048 79.221 72.8862 84.2833 76.1764 85.0389L76.3164 85.0501C79.0228 85.2678 81.8595 85.4959 84.5087 84.8517C87.8457 83.5143 87.304 77.9838 83.733 77.4021C83.2579 77.3789 82.7768 77.3471 82.2923 77.315L82.2872 77.3147Z" fill="url(#paint6_linear_670_2)"/>
<path d="M94.2925 77.5359C97.0276 77.0678 99.9098 77.1012 102.652 77.5158C106.069 78.6727 105.915 84.1963 102.377 85.0389C99.776 85.3265 97.1078 85.3398 94.5132 85.0256C91.0225 84.1496 90.8753 78.6325 94.2925 77.5359Z" fill="url(#paint7_linear_670_2)"/>
<path fill-rule="evenodd" clip-rule="evenodd" d="M95.4602 6.02127C92.5599 6.0298 89.6586 6.03832 86.7583 6.01269C85.953 7.23476 85.1806 8.47773 84.4079 9.72115L84.4076 9.72295C83.5444 11.112 82.6798 12.5019 81.7696 13.8635C84.2724 13.8549 86.7762 13.8537 89.2791 13.8525C92.621 13.8508 95.9629 13.8492 99.3047 13.8301C101.545 13.8234 103.799 13.8635 106.005 14.3249C107.691 15.3147 109.189 16.6053 110.426 18.1233C111.606 20.8918 111.563 23.8866 111.52 26.8455C111.509 27.6246 111.497 28.4013 111.509 29.1706C111.465 39.6511 111.478 50.1315 111.491 60.6115C111.509 76.0168 111.528 91.4211 111.369 106.823C110.8 110.501 107.624 113.664 103.885 114.025C102.245 114.17 100.602 114.15 98.9587 114.129H98.9577C98.0147 114.118 97.0711 114.106 96.1277 114.125C94.6786 114.189 93.2377 114.348 91.7969 114.507C90.0664 114.698 88.336 114.889 86.5916 114.915C86.2569 114.928 85.9201 114.939 85.5821 114.949C82.983 115.033 80.3121 115.118 77.9451 116.271C76.3895 117.169 75.3904 118.678 74.4121 120.155C74.1582 120.539 73.9056 120.92 73.6451 121.288C70.355 121.389 67.0624 121.411 63.7702 121.432C58.5979 121.466 53.4255 121.5 48.2605 121.843C59.6667 122.024 71.081 122.006 82.4948 121.988C89.2087 121.977 95.9226 121.967 102.635 121.997C108.486 122.124 114.076 118.786 117.113 113.845C119.025 110.722 119.52 106.99 119.433 103.386C119.399 97.9695 119.413 92.5512 119.427 87.1324V87.1295C119.448 78.861 119.469 70.5907 119.319 62.3262C119.478 55.6167 119.453 48.9001 119.429 42.1835C119.412 37.5403 119.395 32.8962 119.439 28.2552C119.432 27.5858 119.436 26.9098 119.44 26.2316C119.459 22.7162 119.478 19.1255 117.942 15.8965C116.35 12.1315 113.18 9.30952 109.63 7.40371C107.376 6.62799 105.035 5.98586 102.628 6.01929C100.239 6.00722 97.8496 6.01424 95.4602 6.02127Z" fill="url(#paint8_linear_670_2)"/>
<path d="M48.2605 121.843C46.6221 121.709 45.0508 121.187 43.5128 120.625C39.962 118.967 37.0464 116.111 35.2143 112.661C34.4451 111.042 33.9703 109.304 33.7163 107.539C33.5606 104.716 33.5956 101.89 33.6306 99.0657C33.6542 97.1593 33.6778 95.2532 33.6428 93.3481H33.6416C31.8034 93.2856 29.9538 93.3252 28.1043 93.3649C24.2151 93.4482 20.3224 93.5314 16.5157 92.6658C13.841 91.4754 11.5074 89.5764 9.84248 87.1625C7.87829 83.8301 7.95414 79.9956 8.02859 76.2319C8.05021 75.1391 8.07178 74.0523 8.0432 72.9855C8.04544 70.1209 8.04024 67.2564 8.03505 64.3921C8.02466 58.664 8.01428 52.937 8.06333 47.2128C8.10336 40.8131 13.5535 35.062 19.9465 34.7143C22.8848 34.6104 25.8258 34.6298 28.7661 34.6491C30.3695 34.6597 31.9731 34.6702 33.5755 34.6608C33.6729 32.7661 33.6149 30.84 33.5567 28.9096C33.4272 24.6127 33.2971 20.2951 34.8798 16.2576C37.2202 10.5466 42.9446 6.38725 49.1303 6.07292C51.7874 5.9818 54.4446 5.99624 57.1017 6.01069C58.9314 6.02063 60.7611 6.0305 62.5908 6.00598C67.6791 6.03133 72.7649 6.02467 77.8513 6.018C80.8199 6.01411 83.7886 6.01022 86.7583 6.01269M48.2605 121.843C53.4255 121.5 58.5979 121.466 63.7702 121.432C67.0624 121.411 70.355 121.389 73.6451 121.288C73.9056 120.92 74.1582 120.539 74.4121 120.155C75.3904 118.678 76.3895 117.169 77.9451 116.271C80.3121 115.118 82.983 115.033 85.5821 114.949C85.9201 114.939 86.2569 114.928 86.5916 114.915C88.336 114.889 90.0664 114.698 91.7969 114.507C93.2377 114.348 94.6786 114.189 96.1277 114.125M48.2605 121.843C59.6667 122.024 71.081 122.006 82.4948 121.988C89.2087 121.977 95.9226 121.967 102.635 121.997C108.486 122.124 114.076 118.786 117.113 113.845C119.025 110.722 119.52 106.99 119.433 103.386C119.399 97.9695 119.413 92.5512 119.427 87.1324V87.1295C119.448 78.861 119.469 70.5907 119.319 62.3262M96.1277 114.125C86.8674 114.093 77.6104 114.106 68.3521 114.119C64.3992 114.125 60.4461 114.13 56.4924 114.132C55.7753 114.126 55.0564 114.134 54.337 114.142C51.9707 114.169 49.5994 114.197 47.2712 113.705C44.4358 112.44 41.9884 109.939 41.6339 106.742C41.422 104.305 41.4519 101.858 41.4817 99.4091C41.499 97.9947 41.5163 96.5798 41.4869 95.167C41.4935 94.7123 41.5 93.7962 41.5 93.3415M96.1277 114.125C97.0711 114.106 98.0147 114.118 98.9577 114.129H98.9587C100.602 114.15 102.245 114.17 103.885 114.025C107.624 113.664 110.8 110.501 111.369 106.823C111.528 91.4211 111.509 76.0168 111.491 60.6115C111.478 50.1315 111.465 39.6511 111.509 29.1706C111.497 28.4013 111.509 27.6246 111.52 26.8455C111.563 23.8866 111.606 20.8918 110.426 18.1233C109.189 16.6053 107.691 15.3147 106.005 14.3249C103.799 13.8635 101.545 13.8234 99.3047 13.8301C95.9629 13.8492 92.621 13.8508 89.2791 13.8525C86.7762 13.8537 84.2724 13.8549 81.7696 13.8635M41.5 93.3415C41.1954 93.3388 40.8911 93.3359 40.587 93.3329M41.5 93.3415C42.9283 93.3372 44.3573 93.3497 45.7863 93.3623H45.7874C48.874 93.3892 51.9612 93.4162 55.0418 93.2746C59.1477 93.0204 62.692 90.4325 65.0459 87.1892C66.1492 84.9623 66.8046 82.5147 66.7912 80.0204C66.8061 75.765 66.8004 71.5096 66.7947 67.2542C66.7901 63.8527 66.7855 60.4512 66.7914 57.0497M66.7914 57.0497C64.1968 59.9319 61.6423 62.8676 59.4823 66.0976M66.7914 57.0497C66.7398 55.6923 66.772 54.2935 66.8048 52.8833C66.9166 48.0894 67.0315 43.164 63.8487 39.2887C61.9093 37.2357 59.4689 35.5169 56.6602 34.9685M56.6602 34.9685C54.7886 34.9991 52.9247 35.1425 51.0597 35.286M56.6602 34.9685C53.5428 34.5523 50.3987 34.5971 47.2553 34.642C45.3484 34.6692 43.4413 34.6964 41.54 34.6207C41.6152 32.8976 41.5552 31.1533 41.4949 29.4071C41.3731 25.8742 41.2511 22.3336 42.2491 18.9458C43.4127 16.8528 45.1848 14.9469 47.5721 14.3049C49.8025 13.7413 52.1022 13.785 54.3938 13.8285C55.2835 13.8454 56.1719 13.8622 57.0546 13.8435C60.9769 13.8563 64.8991 13.8538 68.8213 13.8513C73.1374 13.8487 77.4535 13.846 81.7696 13.8635M51.0597 35.286C50.4794 35.3306 49.8983 35.3753 49.3175 35.4166M51.0597 35.286L51.0582 35.286C50.4779 35.3306 49.8983 35.3753 49.3175 35.4166M49.3175 35.4166C47.8062 37.7638 46.3618 40.1578 44.9775 42.5853M44.9775 42.5853C46.0851 42.6017 47.1943 42.5852 48.3037 42.5687C50.356 42.5381 52.4089 42.5076 54.4534 42.6856C56.1049 42.7726 57.3486 43.9693 58.3518 45.1595C58.4117 45.3264 58.507 45.6031 58.5926 45.8507L58.593 45.8518C58.641 45.9907 58.6858 46.1204 58.7195 46.2165L58.7199 46.2194C58.8281 54.1494 58.8105 62.0795 58.7928 70.0097L58.7928 70.0144C58.7854 73.3565 58.778 76.6985 58.7799 80.0405C59.014 82.7889 56.7938 85.3903 53.9986 85.397C53.2943 85.4832 52.5892 85.5626 51.8832 85.6349C52.5887 85.5626 53.2935 85.4831 53.9973 85.397C47.3045 85.4416 40.6118 85.437 33.9206 85.4325C29.5738 85.4295 25.2276 85.4266 20.8824 85.4371C18.8498 85.2496 16.8703 84.0393 16.2284 82.0267M44.9775 42.5853C42.326 42.5819 39.6753 42.5819 37.0263 42.5819C34.3774 42.5819 31.7292 42.5819 29.0811 42.5785C28.0504 42.6009 27.0158 42.5827 25.9819 42.5646L25.9804 42.5645C23.9294 42.5285 21.8775 42.4924 19.8462 42.7725C17.9471 43.0198 16.8036 44.7117 16.0412 46.3033C16.0837 50.7514 16.0598 55.2022 16.036 59.6534C15.9961 67.114 15.9561 74.5756 16.2284 82.0267M16.2284 82.0267C15.5135 78.6854 15.5132 75.2894 15.513 71.8901C15.5128 69.3432 15.5127 66.7945 15.2119 64.2654M81.7696 13.8635C82.6802 12.5012 83.5442 11.1109 84.4079 9.72115M81.7696 13.8635C82.6798 12.5019 83.5444 11.112 84.4076 9.72295L84.4079 9.72115M84.4079 9.72115C85.1806 8.47773 85.953 7.23476 86.7583 6.01269M86.7583 6.01269C89.6586 6.03832 92.5599 6.0298 95.4602 6.02127C97.8496 6.01424 100.239 6.00722 102.628 6.01929C105.035 5.98586 107.376 6.62799 109.63 7.40371C113.18 9.30952 116.35 12.1315 117.942 15.8965C119.478 19.1255 119.459 22.7162 119.44 26.2316C119.436 26.9098 119.432 27.5858 119.439 28.2552C119.395 32.8962 119.412 37.5403 119.429 42.1835C119.453 48.9001 119.478 55.6167 119.319 62.3262M119.319 62.3262C117.755 64.6943 115.918 66.8564 114.081 69.0171C113.397 69.8216 112.714 70.6261 112.044 71.4407M41.3129 86.1393C39.768 88.4798 38.3303 90.8872 36.9326 93.3147H36.9314C38.3291 90.8872 39.7668 88.4798 41.3116 86.1393L41.3129 86.1393ZM83.8358 42.3428C81.1743 41.7945 78.3389 41.828 75.6706 42.3161C72.2066 43.2524 72.1598 48.8295 75.6372 49.7724C78.4726 50.3007 81.5486 50.4478 84.3239 49.5785C87.2997 48.1742 86.9921 43.3125 83.8358 42.3428ZM94.0086 42.3361C96.6701 41.8078 99.4988 41.8212 102.174 42.316C105.611 43.2723 105.657 48.8161 102.2 49.7724C99.365 50.3007 96.2956 50.4344 93.5137 49.5918C90.5245 48.2008 90.8188 43.279 94.0086 42.3361ZM25.7658 49.9899C25.1923 50.0563 24.6262 50.1219 24.0861 50.1351C24.9749 52.563 26.1393 54.8695 27.3031 57.1747C28.4248 59.3966 29.5459 61.6173 30.4189 63.9443C29.56 66.3729 28.387 68.6704 27.2129 70.9697C26.0012 73.3429 24.7884 75.718 23.9189 78.2416C24.4049 78.2614 24.8979 78.3035 25.3934 78.3458C26.9092 78.4753 28.4493 78.6068 29.8907 78.1079C31.2438 75.9299 32.3406 73.6051 33.4376 71.2799C34.0481 69.9858 34.6588 68.6913 35.314 67.4217C36.1029 68.8487 36.8019 70.329 37.5007 71.809C38.5376 74.0048 39.5743 76.2003 40.9045 78.2216C42.5253 78.5724 44.1831 78.4455 45.824 78.3199C46.1533 78.2947 46.4819 78.2695 46.8094 78.2483C45.7881 75.4889 44.4573 72.8655 43.1265 70.242C42.0611 68.1417 40.9956 66.0412 40.0888 63.8707C40.8901 61.7859 41.9033 59.7927 42.9167 57.7991C44.1951 55.2843 45.4737 52.7688 46.328 50.0682C46.0843 50.0509 45.84 50.0322 45.5951 50.0134C43.9452 49.8869 42.2734 49.7588 40.637 50.0616C39.227 52.0642 38.2241 54.3092 37.2208 56.5553C36.5825 57.9842 35.9439 59.4136 35.2003 60.7812C34.4437 59.367 33.7787 57.9053 33.1142 56.4445C32.1636 54.3547 31.2138 52.2667 29.9977 50.3224C28.7434 49.6448 27.2303 49.8202 25.7658 49.9899ZM75.0633 60.2396C77.2344 59.4939 79.62 59.6517 81.9298 59.8046C82.416 59.8368 82.8988 59.8687 83.3756 59.892C86.9466 60.4738 87.4883 66.0041 84.1513 67.3414C81.5028 67.9856 78.6669 67.7576 75.9611 67.5402L75.819 67.5287C72.5288 66.773 72.0474 61.7108 75.0633 60.2396ZM102.294 60.0056C99.5524 59.591 96.6701 59.5575 93.9352 60.0256C90.5179 61.1223 90.665 66.6393 94.1558 67.5153C96.7504 67.8296 99.4186 67.8162 102.02 67.5287C105.557 66.6861 105.712 61.1625 102.294 60.0056ZM75.4207 77.7498C77.5918 77.004 79.9774 77.1619 82.2872 77.3147L82.2923 77.315C82.7768 77.3471 83.2579 77.3789 83.733 77.4021C87.304 77.9838 87.8457 83.5143 84.5087 84.8517C81.8595 85.4959 79.0228 85.2678 76.3164 85.0501L76.1764 85.0389C72.8862 84.2833 72.4048 79.221 75.4207 77.7498ZM102.652 77.5158C99.9098 77.1012 97.0276 77.0678 94.2925 77.5359C90.8753 78.6325 91.0225 84.1496 94.5132 85.0256C97.1078 85.3398 99.776 85.3265 102.377 85.0389C105.915 84.1963 106.069 78.6727 102.652 77.5158Z" stroke="url(#paint9_linear_670_2)" stroke-width="4"/>
<defs>
<linearGradient id="paint0_linear_670_2" x1="71.5" y1="117.5" x2="51.9663" y2="9.72152" gradientUnits="userSpaceOnUse">
<stop stop-color="#37CE90"/>
<stop offset="1" stop-color="#9FF66A"/>
</linearGradient>
<linearGradient id="paint1_linear_670_2" x1="71.5" y1="117.5" x2="51.9663" y2="9.72152" gradientUnits="userSpaceOnUse">
<stop stop-color="#37CE90"/>
<stop offset="1" stop-color="#9FF66A"/>
</linearGradient>
<linearGradient id="paint2_linear_670_2" x1="71.5" y1="117.5" x2="51.9663" y2="9.72152" gradientUnits="userSpaceOnUse">
<stop stop-color="#37CE90"/>
<stop offset="1" stop-color="#9FF66A"/>
</linearGradient>
<linearGradient id="paint3_linear_670_2" x1="71.5" y1="117.5" x2="51.9663" y2="9.72152" gradientUnits="userSpaceOnUse">
<stop stop-color="#37CE90"/>
<stop offset="1" stop-color="#9FF66A"/>
</linearGradient>
<linearGradient id="paint4_linear_670_2" x1="71.5" y1="117.5" x2="51.9663" y2="9.72152" gradientUnits="userSpaceOnUse">
<stop stop-color="#37CE90"/>
<stop offset="1" stop-color="#9FF66A"/>
</linearGradient>
<linearGradient id="paint5_linear_670_2" x1="71.5" y1="117.5" x2="51.9663" y2="9.72152" gradientUnits="userSpaceOnUse">
<stop stop-color="#37CE90"/>
<stop offset="1" stop-color="#9FF66A"/>
</linearGradient>
<linearGradient id="paint6_linear_670_2" x1="71.5" y1="117.5" x2="51.9663" y2="9.72152" gradientUnits="userSpaceOnUse">
<stop stop-color="#37CE90"/>
<stop offset="1" stop-color="#9FF66A"/>
</linearGradient>
<linearGradient id="paint7_linear_670_2" x1="71.5" y1="117.5" x2="51.9663" y2="9.72152" gradientUnits="userSpaceOnUse">
<stop stop-color="#37CE90"/>
<stop offset="1" stop-color="#9FF66A"/>
</linearGradient>
<linearGradient id="paint8_linear_670_2" x1="71.5" y1="117.5" x2="51.9663" y2="9.72152" gradientUnits="userSpaceOnUse">
<stop stop-color="#37CE90"/>
<stop offset="1" stop-color="#9FF66A"/>
</linearGradient>
<linearGradient id="paint9_linear_670_2" x1="71.5" y1="117.5" x2="51.9663" y2="9.72152" gradientUnits="userSpaceOnUse">
<stop stop-color="#37CE90"/>
<stop offset="1" stop-color="#9FF66A"/>
</linearGradient>
</defs>
</svg>
