<svg width="128" height="128" viewBox="0 0 128 128" fill="none" xmlns="http://www.w3.org/2000/svg">
<path d="M39.3125 94.1855V101.885C39.3125 108.366 56.2548 113.625 77.1563 113.625C98.0577 113.625 115 108.366 115 101.885V78.4019M115 78.4019C115 84.8865 89.5839 90.2619 68.6824 90.2619M115 78.4019V56.1395M73.0695 64.2234C93.971 64.2234 115 59.0538 115 52.5727V26.74M115 26.74C115 33.2238 98.057 38.4798 77.1563 38.4798C56.2558 38.4798 39.3125 33.2237 39.3125 26.7399C39.3125 20.2561 56.2558 15 77.1563 15C98.057 15 115 20.2562 115 26.74Z" stroke="url(#paint0_linear_614_109)" stroke-width="10"/>
<path d="M20.5806 37.8282H20.5623L20.5438 37.8285C19.567 37.8397 18.5977 38.0431 17.6899 38.4315C16.7818 38.82 15.9473 39.3886 15.2388 40.1137C14.5298 40.8393 13.9603 41.7083 13.5724 42.6764C13.1874 43.6372 12.9914 44.6711 13.0003 45.718V88.7309C12.9914 89.7775 13.1874 90.8119 13.5724 91.7728C13.9603 92.7408 14.5298 93.6098 15.2388 94.3353C15.9473 95.0601 16.7818 95.6286 17.6899 96.0174C18.5977 96.4055 19.567 96.6095 20.5438 96.6202L20.5623 96.6209H20.5806H62.6302H62.6485L62.667 96.6202C63.6437 96.6095 64.6131 96.4055 65.5209 96.0174C66.429 95.6286 67.2635 95.0601 67.972 94.3353C68.681 93.6098 69.2505 92.7408 69.6384 91.7728C70.0233 90.8119 70.2194 89.7782 70.2105 88.7309V45.7178C70.2194 44.671 70.0233 43.6372 69.6384 42.6764C69.2505 41.7083 68.681 40.8393 67.972 40.1137C67.2635 39.3886 66.429 38.82 65.5209 38.4315C64.6131 38.0431 63.6437 37.8397 62.667 37.8285L62.6485 37.8282H62.6302H20.5806Z" stroke="url(#paint1_linear_614_109)" stroke-width="10"/>
<path d="M27.1738 49.9557H43.8988C47.0799 49.9557 49.584 50.788 51.4108 52.4526C53.2691 54.1171 54.1983 56.4975 54.1983 59.5935C54.1983 61.0583 53.8833 62.4233 53.2534 63.6884C52.6235 64.9534 51.7258 65.9521 50.5604 66.6846C52.1667 67.3504 53.3479 68.3159 54.1038 69.5809C54.8597 70.8127 55.2377 72.4273 55.2377 74.4248C55.2377 76.5554 54.7652 78.4197 53.8203 80.0177C52.8754 81.5821 51.5998 82.7806 49.9934 83.6131C48.4186 84.4456 46.6547 84.8615 44.7019 84.8615H27.1738V49.9557ZM42.0562 63.7882C44.513 63.7882 45.7413 62.5731 45.7413 60.1428C45.7413 58.7779 45.4263 57.8458 44.7964 57.3464C44.1665 56.8137 43.2058 56.5474 41.9144 56.5474H35.5363V63.7882H42.0562ZM42.5759 78.2699C43.9933 78.2699 45.0484 77.9869 45.7413 77.421C46.4343 76.855 46.7807 75.8563 46.7807 74.4248C46.7807 72.9932 46.4185 71.9612 45.6941 71.3287C44.9697 70.6629 43.8672 70.3299 42.3869 70.3299H35.5363V78.2699H42.5759Z" fill="url(#paint2_linear_614_109)"/>
<defs>
<linearGradient id="paint0_linear_614_109" x1="39.3125" y1="64.3126" x2="115" y2="64.3126" gradientUnits="userSpaceOnUse">
<stop stop-color="#5800E2"/>
<stop offset="1" stop-color="#FF00E6"/>
</linearGradient>
<linearGradient id="paint1_linear_614_109" x1="13" y1="67.2246" x2="70.2108" y2="67.2246" gradientUnits="userSpaceOnUse">
<stop stop-color="#5800E2"/>
<stop offset="1" stop-color="#FF00E6"/>
</linearGradient>
<linearGradient id="paint2_linear_614_109" x1="40.9088" y1="107.69" x2="40.9088" y2="30.6445" gradientUnits="userSpaceOnUse">
<stop stop-color="#A93AFF"/>
<stop offset="1" stop-color="#FF81FF"/>
</linearGradient>
</defs>
</svg>
