<svg width="128" height="128" viewBox="0 0 128 128" fill="none" xmlns="http://www.w3.org/2000/svg">
<g clip-path="url(#clip0)">
<path d="M59.6785 0.147075C24.4678 2.52846 -2.23118 33.1046 0.150204 68.3121C2.52845 103.523 33.1046 130.234 68.3153 127.853C103.526 125.472 130.234 94.886 127.853 59.6753C125.472 24.4678 94.8891 -2.23431 59.6785 0.147075ZM60.3119 9.51363C90.4597 7.47466 116.448 30.1619 118.488 60.3112C120.316 87.3391 102.262 111.027 76.7813 117.108C76.8918 116.688 76.9785 116.244 77.0546 115.786C77.7281 113.466 78.1367 110.006 77.8885 109.711C77.21 108.905 80.6241 100.485 82.2482 98.9582C84.3999 96.9354 85.4129 92.3951 84.8067 87.5135C84.3565 83.8891 84.5906 82.0044 86.1447 76.7199C87.3479 72.6284 88.5821 69.7119 89.5669 68.6279C90.4143 67.6952 92.0164 65.1022 93.1177 62.8698C95.2288 58.5902 99.3547 53.9566 101.918 52.9928C104.486 52.027 106.835 48.0942 106.593 45.159C106.307 41.7002 105.327 40.2607 103.753 40.9992C102.84 41.4278 102.22 41.2668 101.358 40.3673C100.34 39.3044 100.159 39.3543 99.8963 40.7798C99.7311 41.6753 99.1351 42.4546 98.5716 42.4964C97.7755 42.5555 97.8249 41.9284 98.805 39.7167C99.4989 38.1509 100.045 35.693 100.023 34.2533C99.9851 31.7038 97.7531 25.8311 96.6982 25.5198C96.4085 25.4342 94.2308 27.0957 91.87 29.1982C85.5135 34.8594 75.5227 42.0239 73.7909 42.1628C72.9578 42.2298 71.3821 42.1003 70.2924 41.88C68.2881 41.4748 65.268 42.8404 58.1276 47.3681C55.0427 49.3242 53.1921 49.8608 48.8218 50.0558C45.4625 50.2057 42.368 50.8839 40.767 51.8257C38.3868 53.2261 38.213 53.5121 38.6562 55.2519C38.9225 56.2971 40.5871 58.5884 42.3525 60.3436L45.5579 63.5377L43.6016 66.6398C42.522 68.3479 41.3255 70.7645 40.9553 72.0037C40.5851 73.2427 39.1465 75.4822 37.7538 76.9836C35.0683 79.879 29.9866 88.2903 28.3569 92.527C27.9531 93.5765 23.8253 96.306 20.9724 97.6822C14.4547 89.3593 10.2834 79.0499 9.51453 67.6809C7.47556 37.5331 30.1632 11.5539 60.3119 9.51363Z" fill="url(#paint0_linear)"/>
</g>
<defs>
<linearGradient id="paint0_linear" x1="64.0015" y1="128.001" x2="64.0015" y2="-0.000610352" gradientUnits="userSpaceOnUse">
<stop stop-color="#5570FF"/>
<stop offset="1" stop-color="#4DD3FF"/>
</linearGradient>
<clipPath id="clip0">
<rect width="128" height="128" fill="white"/>
</clipPath>
</defs>
</svg>
