<svg width="64" height="64" viewBox="0 0 64 64" fill="none" xmlns="http://www.w3.org/2000/svg">
<path fill-rule="evenodd" clip-rule="evenodd" d="M24.7802 5.46789C25.4618 5.28649 26.1503 5.1275 26.8438 5V5.16343C26.7566 5.288 26.6713 5.41441 26.5878 5.54257C21.3534 6.60763 16.6693 9.18712 13.0132 12.8036C12.9862 12.6602 12.9624 12.5178 12.9418 12.3766C13.0236 12.2881 13.1078 12.1992 13.1908 12.1123C13.8366 11.485 14.5115 10.891 15.2167 10.3315C15.9219 9.77167 16.6547 9.24872 17.4123 8.76189C18.1698 8.27564 18.9529 7.82726 19.7552 7.41868C20.5574 7.01028 21.3758 6.64304 22.2148 6.31675C23.054 5.99065 23.9126 5.7086 24.7802 5.46789ZM6.54117 22.9864C7.91416 19.1085 10.1481 15.6377 13.0132 12.8036C13.6605 16.2505 16.1102 20.2984 18.7517 23.5564C17.2749 26.0034 16.5055 28.812 16.5292 31.6702C16.5306 31.9899 16.5419 32.3095 16.5632 32.6285C12.5507 30.4381 8.46484 27.0218 6.54117 22.9864ZM5.00056 31.824C5.00018 31.7651 4.99999 31.7063 5 31.6475C4.99992 30.7471 5.04601 29.8496 5.13581 28.9535C5.22575 28.058 5.36056 27.1682 5.53948 26.2859C5.71828 25.4034 5.93747 24.5312 6.20346 23.6711C6.29496 23.4078 6.39434 23.1467 6.49395 22.8863C6.50954 22.9197 6.52528 22.953 6.54117 22.9864C5.56168 25.7529 5.02034 28.7265 5.00056 31.824ZM58.9994 31.8209C58.9998 31.8805 59 31.9402 59 32C59 46.9117 46.9117 59 32 59C17.0883 59 5 46.9117 5 32C5 31.9413 5.00019 31.8826 5.00056 31.824C5.00433 32.4028 5.02707 32.9833 5.06791 33.5604C5.13171 34.4585 5.23921 35.352 5.39236 36.2393C5.53377 37.0347 5.71221 37.822 5.92429 38.6015C9.23948 39.9222 14.1789 39.8512 18.491 39.1674C20.0133 41.9054 22.3315 44.116 25.1384 45.5063C21.2043 47.9069 16.147 49.752 11.6625 49.3624C11.9753 49.7387 12.2992 50.1052 12.632 50.4641C13.2592 51.11 13.9203 51.7254 14.6088 52.3054C15.2973 52.8855 16.0125 53.4307 16.7554 53.9392C17.4984 54.4476 18.2666 54.9188 19.0567 55.3504C19.8467 55.7819 20.657 56.1731 21.4862 56.5238C22.3155 56.8744 23.1613 57.186 24.0214 57.452C24.3466 57.5409 24.6741 57.6201 25.0024 57.6974C27.7948 55.4881 30.1948 51.1811 31.7553 47.1136C31.8307 47.1205 31.9062 47.1269 31.9817 47.1329C35.0387 47.1283 38.0256 46.217 40.5645 44.5142C40.6785 49.1292 39.7493 54.4467 37.1616 58.1429C37.8552 58.0154 38.5438 57.8603 39.2254 57.6788C40.0929 57.4379 40.9478 57.1522 41.787 56.8261C42.6261 56.4998 43.4483 56.1328 44.2506 55.7243C45.0528 55.316 45.8322 54.8676 46.5895 54.3812C47.3471 53.8947 48.0799 53.3714 48.7851 52.8115C49.4903 52.2521 50.169 51.6576 50.8149 51.0305C50.8979 50.9436 50.9821 50.8547 51.0639 50.7665C50.5482 47.2267 47.9975 42.9742 45.2427 39.5789C46.6742 37.1849 47.431 34.4479 47.4331 31.6583C47.433 31.3172 47.4217 30.9762 47.3991 30.6359C51.458 32.8427 55.5997 36.3114 57.5099 40.4045C57.6094 40.144 57.705 39.8831 57.7966 39.6197C58.0625 38.7594 58.2855 37.8872 58.4643 37.0049C58.6432 36.1227 58.778 35.2292 58.868 34.3336C58.9516 33.4988 58.9941 32.6597 58.9994 31.8209ZM57.9854 24.6425C58.0155 24.653 58.0457 24.6636 58.0758 24.6743C58.2889 25.4573 58.4695 26.2486 58.6115 27.0476C58.7646 27.9349 58.8721 28.8282 58.9359 29.7265C58.9808 30.3623 59.0001 30.9984 59 31.6358C59 31.6975 58.9998 31.7592 58.9994 31.8209C58.9833 29.3338 58.6309 26.9267 57.9854 24.6425ZM52.0366 13.9018C54.7791 16.9361 56.842 20.5963 57.9854 24.6425C53.9913 23.2475 49.2571 23.4985 45.4487 24.1197C43.924 21.396 41.6105 19.1979 38.8126 17.8147C42.6662 15.4517 47.6077 13.6161 52.0366 13.9018ZM52.0366 13.9018C48.5345 10.027 43.9241 7.17283 38.7054 5.83918C38.806 5.75335 38.9072 5.67018 39.0089 5.58979C39.3344 5.66687 39.6559 5.74994 39.9784 5.83881C40.8385 6.10482 41.6843 6.41237 42.5136 6.7632C43.3429 7.11383 44.1569 7.50484 44.947 7.93661C45.737 8.36818 46.5053 8.84322 47.2483 9.35149C47.9913 9.85996 48.7102 10.4014 49.3987 10.9816C50.0872 11.5615 50.7408 12.177 51.368 12.8228C51.7008 13.1818 52.0247 13.548 52.3376 13.9246C52.2375 13.9159 52.1372 13.9083 52.0366 13.9018ZM38.7054 5.83918C36.0312 8.1202 33.738 12.283 32.2332 16.2149C32.1495 16.2143 32.0658 16.2143 31.9821 16.2149C28.9412 16.218 25.9688 17.1184 23.4371 18.8033C23.3253 14.3411 24.1924 9.22057 26.5878 5.54257C28.3364 5.18679 30.1464 5 32 5C34.3147 5 36.5614 5.29128 38.7054 5.83918Z" fill="url(#paint0_linear)"/>
<path d="M26.8438 5H27.8438V3.79941L26.663 4.01648L26.8438 5ZM24.7802 5.46789L24.523 4.50148L24.5129 4.50429L24.7802 5.46789ZM26.8438 5.16343L27.6631 5.73692L27.8438 5.47867V5.16343H26.8438ZM12.9418 12.3766L12.2076 11.6976L11.8834 12.0482L11.9523 12.5207L12.9418 12.3766ZM13.1908 12.1123L12.4941 11.395L12.4806 11.4081L12.4676 11.4217L13.1908 12.1123ZM15.2167 10.3315L15.8382 11.1149L15.8385 11.1147L15.2167 10.3315ZM17.4123 8.76189L16.8721 7.92037L16.8717 7.92061L17.4123 8.76189ZM19.7552 7.41868L19.3015 6.52751L19.3013 6.52759L19.7552 7.41868ZM22.2148 6.31675L21.8526 5.38465L21.8523 5.38475L22.2148 6.31675ZM18.7517 23.5564L19.6079 24.0731L19.9706 23.472L19.5285 22.9266L18.7517 23.5564ZM16.5292 31.6702L17.5292 31.6657L17.5291 31.6619L16.5292 31.6702ZM16.5632 32.6285L16.084 33.5063L17.682 34.3786L17.561 32.562L16.5632 32.6285ZM5 31.6475L6 31.6477L6 31.6475L5 31.6475ZM5.13581 28.9535L4.14082 28.8536L4.1408 28.8538L5.13581 28.9535ZM5.53948 26.2859L6.51953 26.4846L6.51956 26.4845L5.53948 26.2859ZM6.20346 23.6711L5.25887 23.3429L5.2532 23.3592L5.2481 23.3757L6.20346 23.6711ZM6.49395 22.8863L7.40015 22.4634L6.40272 20.3259L5.55996 22.529L6.49395 22.8863ZM5.06791 33.5604L4.0704 33.631L4.07042 33.6313L5.06791 33.5604ZM5.39236 36.2393L4.40691 36.4094L4.4078 36.4144L5.39236 36.2393ZM5.92429 38.6015L4.95937 38.864L5.09043 39.3457L5.55419 39.5304L5.92429 38.6015ZM18.491 39.1674L19.365 38.6815L19.0251 38.0702L18.3344 38.1798L18.491 39.1674ZM25.1384 45.5063L25.6593 46.3599L27.2074 45.4151L25.5822 44.6102L25.1384 45.5063ZM11.6625 49.3624L11.749 48.3661L9.36158 48.1587L10.8934 50.0016L11.6625 49.3624ZM12.632 50.4641L11.8987 51.144L11.9066 51.1525L11.9146 51.1608L12.632 50.4641ZM14.6088 52.3054L15.2531 51.5406L15.253 51.5405L14.6088 52.3054ZM16.7554 53.9392L16.1906 54.7644L16.1906 54.7644L16.7554 53.9392ZM19.0567 55.3504L19.5361 54.4728L19.5361 54.4728L19.0567 55.3504ZM21.4862 56.5238L21.0967 57.4448L21.0968 57.4449L21.4862 56.5238ZM24.0214 57.452L23.726 58.4074L23.7418 58.4123L23.7577 58.4166L24.0214 57.452ZM25.0024 57.6974L24.7731 58.6708L25.2437 58.7816L25.6228 58.4816L25.0024 57.6974ZM31.7553 47.1136L31.847 46.1178L31.0929 46.0484L30.8217 46.7554L31.7553 47.1136ZM31.9817 47.1329L31.9036 48.1298L31.9433 48.1329L31.9832 48.1329L31.9817 47.1329ZM40.5645 44.5142L41.5642 44.4895L41.5192 42.6698L40.0075 43.6837L40.5645 44.5142ZM37.1616 58.1429L36.3424 57.5694L34.9438 59.5672L37.3424 59.1264L37.1616 58.1429ZM39.2254 57.6788L39.4827 58.6452L39.4929 58.6424L39.2254 57.6788ZM41.787 56.8261L42.1492 57.7582L42.1494 57.7581L41.787 56.8261ZM44.2506 55.7243L43.797 54.8331L43.7969 54.8332L44.2506 55.7243ZM46.5895 54.3812L46.0492 53.5398L46.0491 53.5398L46.5895 54.3812ZM48.7851 52.8115L48.1636 52.0281L48.1633 52.0283L48.7851 52.8115ZM50.8149 51.0305L51.5115 51.748L51.525 51.7349L51.538 51.7213L50.8149 51.0305ZM51.0639 50.7665L51.7976 51.4459L52.1223 51.0953L52.0534 50.6223L51.0639 50.7665ZM45.2427 39.5789L44.3844 39.0657L44.0255 39.666L44.4661 40.209L45.2427 39.5789ZM47.4331 31.6583L48.4331 31.6591L48.4331 31.6581L47.4331 31.6583ZM47.3991 30.6359L47.8768 29.7573L46.2809 28.8896L46.4013 30.7022L47.3991 30.6359ZM57.5099 40.4045L56.6037 40.8274L57.6015 42.9655L58.444 40.7615L57.5099 40.4045ZM57.7966 39.6197L58.7411 39.9481L58.7468 39.9317L58.752 39.9151L57.7966 39.6197ZM58.4643 37.0049L57.4842 36.8062L57.4842 36.8063L58.4643 37.0049ZM58.868 34.3336L59.8629 34.4335L59.863 34.4333L58.868 34.3336ZM58.0758 24.6743L59.0406 24.4117L58.9035 23.9078L58.4116 23.7324L58.0758 24.6743ZM58.6115 27.0476L59.5969 26.8775L59.596 26.8727L58.6115 27.0476ZM58.9359 29.7265L59.9334 29.656L59.9334 29.6557L58.9359 29.7265ZM59 31.6358L58 31.6357L58 31.6359L59 31.6358ZM45.4487 24.1197L44.5761 24.6081L44.9183 25.2194L45.6097 25.1066L45.4487 24.1197ZM38.8126 17.8147L38.2899 16.9622L36.7463 17.9087L38.3694 18.7112L38.8126 17.8147ZM39.0089 5.58979L39.2393 4.6167L38.7683 4.50519L38.3887 4.80534L39.0089 5.58979ZM39.9784 5.83881L40.2739 4.88346L40.259 4.87887L40.2441 4.87474L39.9784 5.83881ZM42.5136 6.7632L42.124 7.68419L42.1242 7.68425L42.5136 6.7632ZM44.947 7.93661L44.4675 8.81412L44.4676 8.81419L44.947 7.93661ZM47.2483 9.35149L47.8131 8.52623L47.8129 8.52613L47.2483 9.35149ZM49.3987 10.9816L48.7544 11.7463L48.7545 11.7464L49.3987 10.9816ZM51.368 12.8228L52.1014 12.143L52.0935 12.1344L52.0854 12.1261L51.368 12.8228ZM52.3376 13.9246L52.251 14.9208L54.6379 15.1283L53.1067 13.2855L52.3376 13.9246ZM32.2332 16.2149L32.225 17.2149L32.9191 17.2206L33.1672 16.5724L32.2332 16.2149ZM31.9821 16.2149L31.9831 17.215L31.9903 17.2149L31.9821 16.2149ZM23.4371 18.8033L22.4374 18.8283L22.4828 20.6396L23.9912 19.6357L23.4371 18.8033ZM26.663 4.01648C25.94 4.1494 25.2258 4.31449 24.523 4.50153L25.0374 6.43425C25.6978 6.2585 26.3605 6.1056 27.0246 5.98352L26.663 4.01648ZM27.8438 5.16343V5H25.8438V5.16343H27.8438ZM27.4258 6.08831C27.5033 5.96933 27.5824 5.85217 27.6631 5.73692L26.0246 4.58995C25.9309 4.72383 25.8393 4.85949 25.7499 4.99683L27.4258 6.08831ZM26.3885 4.56265C20.9581 5.66757 16.1004 8.34336 12.3099 12.0927L13.7164 13.5146C17.2383 10.0309 21.7487 7.54768 26.7872 6.52249L26.3885 4.56265ZM11.9523 12.5207C11.9749 12.676 12.001 12.8319 12.0303 12.9882L13.996 12.6191C13.9715 12.4885 13.9499 12.3596 13.9314 12.2324L11.9523 12.5207ZM12.4676 11.4217C12.3829 11.5104 12.2946 11.6036 12.2076 11.6976L13.676 13.0555C13.7527 12.9726 13.8327 12.8881 13.914 12.8029L12.4676 11.4217ZM14.5952 9.54811C13.8633 10.1287 13.1633 10.7449 12.4941 11.395L13.8876 12.8296C14.5099 12.2251 15.1597 11.6532 15.8382 11.1149L14.5952 9.54811ZM16.8717 7.92061C16.0868 8.42498 15.3269 8.96725 14.595 9.54831L15.8385 11.1147C16.517 10.5761 17.2226 10.0725 17.9529 9.60317L16.8717 7.92061ZM19.3013 6.52759C18.47 6.95097 17.658 7.41584 16.8721 7.92037L17.9525 9.60341C18.6815 9.13544 19.4358 8.70355 20.209 8.30976L19.3013 6.52759ZM21.8523 5.38475C20.9817 5.72334 20.1329 6.10427 19.3015 6.52751L20.2088 8.30985C20.9819 7.91629 21.7698 7.56274 22.5772 7.24876L21.8523 5.38475ZM24.5129 4.50429C23.6152 4.75332 22.7248 5.0457 21.8526 5.38465L22.577 7.24885C23.3831 6.9356 24.2099 6.66388 25.0475 6.4315L24.5129 4.50429ZM12.3099 12.0927C9.33961 15.0308 7.02278 18.6299 5.59851 22.6526L7.48383 23.3201C8.80555 19.5871 10.9565 16.2445 13.7164 13.5146L12.3099 12.0927ZM12.0303 12.9882C12.7239 16.6816 15.2999 20.8868 17.9749 24.1862L19.5285 22.9266C16.9205 19.71 14.597 15.8195 13.996 12.6191L12.0303 12.9882ZM17.8955 23.0397C16.3232 25.6451 15.504 28.6354 15.5292 31.6784L17.5291 31.6619C17.507 28.9887 18.2266 26.3618 19.6079 24.0731L17.8955 23.0397ZM15.5292 31.6747C15.5307 32.015 15.5427 32.3553 15.5654 32.695L17.561 32.562C17.5411 32.2638 17.5305 31.9648 17.5292 31.6657L15.5292 31.6747ZM17.0423 31.7508C13.1252 29.6124 9.24121 26.3266 7.44386 22.5561L5.63849 23.4167C7.68846 27.7171 11.9763 31.2638 16.084 33.5063L17.0423 31.7508ZM4 31.6474C3.99999 31.7084 4.00019 31.7694 4.00058 31.8305L6.00054 31.8175C6.00017 31.7608 5.99999 31.7043 6 31.6477L4 31.6474ZM4.1408 28.8538C4.04776 29.7821 3.99991 30.7129 4 31.6476L6 31.6475C5.99992 30.7813 6.04425 29.9171 6.13083 29.0533L4.1408 28.8538ZM4.55942 26.0871C4.37393 27.0019 4.2341 27.9247 4.14082 28.8536L6.13081 29.0535C6.21739 28.1913 6.3472 27.3345 6.51953 26.4846L4.55942 26.0871ZM5.2481 23.3757C4.97153 24.2699 4.74432 25.1746 4.5594 26.0873L6.51956 26.4845C6.69225 25.6322 6.9034 24.7925 7.15881 23.9666L5.2481 23.3757ZM5.55996 22.529C5.46065 22.7886 5.35609 23.0631 5.25887 23.3429L7.14805 23.9994C7.23384 23.7525 7.32803 23.5047 7.42795 23.2435L5.55996 22.529ZM7.44386 22.5561C7.42914 22.5252 7.41457 22.4943 7.40015 22.4634L5.58776 23.3091C5.60451 23.345 5.62142 23.3809 5.63849 23.4167L7.44386 22.5561ZM5.59851 22.6526C4.5823 25.5228 4.02108 28.6071 4.00058 31.8176L6.00054 31.8304C6.01959 28.846 6.54105 25.9829 7.48383 23.3201L5.59851 22.6526ZM60 32C60 31.9381 59.9998 31.8762 59.9994 31.8143L57.9994 31.8274C57.9998 31.8849 58 31.9424 58 32H60ZM32 60C47.464 60 60 47.464 60 32H58C58 46.3594 46.3594 58 32 58V60ZM4 32C4 47.464 16.536 60 32 60V58C17.6406 58 6 46.3594 6 32H4ZM4.00058 31.8176C4.00019 31.8783 4 31.9392 4 32H6C6 31.9434 6.00018 31.8869 6.00054 31.8304L4.00058 31.8176ZM4.00058 31.8305C4.0045 32.4311 4.02808 33.033 4.0704 33.631L6.06541 33.4898C6.02606 32.9337 6.00417 32.3746 6.00054 31.8175L4.00058 31.8305ZM4.07042 33.6313C4.13653 34.5619 4.24797 35.4885 4.40693 36.4094L6.37779 36.0693C6.23044 35.2156 6.12689 34.3552 6.06539 33.4896L4.07042 33.6313ZM4.4078 36.4144C4.55468 37.2405 4.73981 38.057 4.95937 38.864L6.88922 38.3389C6.68461 37.5869 6.51285 36.8288 6.37692 36.0643L4.4078 36.4144ZM5.55419 39.5304C9.12658 40.9537 14.2876 40.8464 18.6476 40.1551L18.3344 38.1798C14.0702 38.8559 9.35238 38.8908 6.2944 37.6725L5.55419 39.5304ZM17.617 39.6534C19.2378 42.5685 21.706 44.9221 24.6945 46.4024L25.5822 44.6102C22.957 43.3098 20.7888 41.2423 19.365 38.6815L17.617 39.6534ZM24.6175 44.6526C20.7759 46.9969 15.9361 48.7299 11.749 48.3661L11.5759 50.3586C16.3579 50.7741 21.6327 48.817 25.6593 46.3599L24.6175 44.6526ZM10.8934 50.0016C11.2192 50.3935 11.5552 50.7735 11.8987 51.144L13.3653 49.7842C13.0432 49.4368 12.7314 49.084 12.4315 48.7231L10.8934 50.0016ZM11.9146 51.1608C12.5653 51.8308 13.2507 52.4689 13.9646 53.0702L15.253 51.5405C14.5899 50.9819 13.9532 50.3892 13.3494 49.7675L11.9146 51.1608ZM13.9644 53.0701C14.6778 53.6712 15.4195 54.2367 16.1906 54.7644L17.3202 53.1139C16.6054 52.6248 15.9168 52.0998 15.2531 51.5406L13.9644 53.0701ZM16.1906 54.7644C16.9611 55.2917 17.7579 55.7804 18.5773 56.228L19.5361 54.4728C18.7754 54.0572 18.0356 53.6035 17.3201 53.1139L16.1906 54.7644ZM18.5773 56.228C19.3967 56.6756 20.237 57.0813 21.0967 57.4448L21.8757 55.6028C21.0771 55.265 20.2967 54.8883 19.5361 54.4728L18.5773 56.228ZM21.0968 57.4449C21.9549 57.8076 22.832 58.1309 23.726 58.4074L24.3168 56.4966C23.4906 56.2411 22.6761 55.9411 21.8756 55.6027L21.0968 57.4449ZM23.7577 58.4166C24.1007 58.5103 24.4422 58.5928 24.7731 58.6708L25.2316 56.724C24.9059 56.6473 24.5925 56.5714 24.2851 56.4874L23.7577 58.4166ZM25.6228 58.4816C28.6321 56.1008 31.1113 51.584 32.689 47.4718L30.8217 46.7554C29.2783 50.7782 26.9575 54.8754 24.3819 56.9132L25.6228 58.4816ZM31.6637 48.1094C31.7436 48.1167 31.8235 48.1235 31.9036 48.1298L32.0598 46.1359C31.9888 46.1304 31.9179 46.1243 31.847 46.1178L31.6637 48.1094ZM31.9832 48.1329C35.238 48.128 38.4182 47.1577 41.1215 45.3447L40.0075 43.6837C37.6329 45.2763 34.8393 46.1286 31.9802 46.1329L31.9832 48.1329ZM39.5648 44.5389C39.6761 49.046 38.7583 54.1185 36.3424 57.5694L37.9808 58.7164C40.7402 54.7749 41.6808 49.2125 41.5642 44.4895L39.5648 44.5389ZM37.3424 59.1264C38.0621 58.9941 38.7762 58.8332 39.4826 58.6451L38.9681 56.7125C38.3114 56.8873 37.6483 57.0367 36.9809 57.1593L37.3424 59.1264ZM39.4929 58.6424C40.3937 58.3923 41.2801 58.0959 42.1492 57.7582L41.4248 55.894C40.6154 56.2085 39.7921 56.4836 38.9579 56.7152L39.4929 58.6424ZM42.1494 57.7581C43.019 57.42 43.8716 57.0394 44.7042 56.6155L43.7969 54.8332C43.0249 55.2262 42.2332 55.5796 41.4246 55.8941L42.1494 57.7581ZM44.7042 56.6155C45.5369 56.1917 46.3452 55.7266 47.1299 55.2226L46.0491 53.5398C45.3192 54.0086 44.5688 54.4403 43.797 54.8331L44.7042 56.6155ZM47.1299 55.2226C47.9151 54.7184 48.6751 54.1757 49.4069 53.5947L48.1633 52.0283C47.4847 52.5671 46.7791 53.071 46.0492 53.5398L47.1299 55.2226ZM49.4066 53.5949C50.1373 53.0153 50.841 52.3989 51.5115 51.748L50.1183 50.3131C49.4969 50.9163 48.8434 51.4888 48.1636 52.0281L49.4066 53.5949ZM51.538 51.7213C51.6227 51.6326 51.7108 51.5396 51.7976 51.4459L50.3302 50.087C50.2534 50.1699 50.1731 50.2547 50.0918 50.3398L51.538 51.7213ZM52.0534 50.6223C51.4977 46.8074 48.8036 42.3805 46.0192 38.9489L44.4661 40.209C47.1914 43.5678 49.5988 47.6461 50.0743 50.9106L52.0534 50.6223ZM46.1009 40.0921C47.6251 37.5431 48.4309 34.6291 48.4331 31.6591L46.4331 31.6576C46.4311 34.2667 45.7233 36.8266 44.3844 39.0657L46.1009 40.0921ZM48.4331 31.6581C48.433 31.295 48.421 30.932 48.3969 30.5696L46.4013 30.7022C46.4225 31.0204 46.433 31.3394 46.4331 31.6586L48.4331 31.6581ZM46.9214 31.5144C50.8843 33.6691 54.8199 37.0052 56.6037 40.8274L58.416 39.9816C56.3794 35.6176 52.0317 32.0164 47.8768 29.7573L46.9214 31.5144ZM58.444 40.7615C58.5468 40.4924 58.6459 40.2219 58.7411 39.9481L56.852 39.2914C56.7641 39.5442 56.672 39.7956 56.5758 40.0474L58.444 40.7615ZM58.752 39.9151C59.0276 39.0232 59.2589 38.1187 59.4444 37.2036L57.4842 36.8063C57.3121 37.6557 57.0974 38.4956 56.8412 39.3244L58.752 39.9151ZM59.4444 37.2036C59.6299 36.2885 59.7697 35.3621 59.8629 34.4335L57.873 34.2337C57.7863 35.0963 57.6565 35.9568 57.4842 36.8062L59.4444 37.2036ZM59.863 34.4333C59.9499 33.5658 59.9938 32.6955 59.9994 31.8272L57.9994 31.8145C57.9943 32.6238 57.9533 33.4318 57.8729 34.2339L59.863 34.4333ZM58.4116 23.7324C58.3794 23.721 58.3473 23.7096 58.3151 23.6984L57.6556 25.5865C57.6838 25.5964 57.7119 25.6063 57.7399 25.6163L58.4116 23.7324ZM59.596 26.8727C59.4485 26.0418 59.261 25.2212 59.0406 24.4117L57.1109 24.937C57.3168 25.6935 57.4906 26.4554 57.6269 27.2225L59.596 26.8727ZM59.9334 29.6557C59.8673 28.7249 59.7558 27.7985 59.5969 26.8775L57.626 27.2177C57.7734 28.0714 57.8769 28.9316 57.9384 29.7973L59.9334 29.6557ZM60 31.6359C60.0001 30.9784 59.9802 30.3184 59.9334 29.656L57.9384 29.7971C57.9814 30.4061 58.0001 31.0184 58 31.6357L60 31.6359ZM59.9994 31.8272C59.9998 31.7634 60 31.6996 60 31.6357L58 31.6359C58 31.6954 57.9998 31.7549 57.9994 31.8145L59.9994 31.8272ZM59.9994 31.8144C59.9826 29.2367 59.6173 26.7403 58.9477 24.3705L57.0231 24.9144C57.6444 27.113 57.9839 29.431 57.9994 31.8274L59.9994 31.8144ZM58.9477 24.3705C57.7616 20.173 55.6218 16.3771 52.7785 13.2313L51.2948 14.5723C53.9364 17.4951 55.9225 21.0196 57.0231 24.9144L58.9477 24.3705ZM58.3151 23.6984C54.0839 22.2207 49.1501 22.5027 45.2877 23.1327L45.6097 25.1066C49.364 24.4943 53.8987 24.2744 57.6557 25.5865L58.3151 23.6984ZM46.3213 23.6312C44.698 20.7314 42.2347 18.391 39.2558 16.9183L38.3694 18.7112C40.9862 20.0048 43.1501 22.0607 44.5761 24.6081L46.3213 23.6312ZM39.3354 18.6672C43.0965 16.3609 47.8293 14.6325 51.9723 14.8997L52.101 12.9039C47.3862 12.5997 42.236 14.5424 38.2899 16.9622L39.3354 18.6672ZM52.7785 13.2313C49.1479 9.21428 44.3671 6.25388 38.953 4.87031L38.4578 6.80804C43.4812 8.09178 47.9211 10.8397 51.2948 14.5723L52.7785 13.2313ZM38.3887 4.80534C38.2769 4.8937 38.1662 4.98476 38.0564 5.07836L39.3544 6.6C39.4459 6.52194 39.5374 6.44667 39.629 6.37425L38.3887 4.80534ZM40.2441 4.87474C39.9113 4.78304 39.5779 4.69689 39.2393 4.6167L38.7784 6.56289C39.0908 6.63686 39.4006 6.71685 39.7127 6.80287L40.2441 4.87474ZM42.9032 5.84222C42.0423 5.47803 41.1651 5.15909 40.2739 4.88346L39.6829 6.79416C40.512 7.05056 41.3263 7.34672 42.124 7.68419L42.9032 5.84222ZM45.4266 7.05909C44.6058 6.61059 43.7616 6.20517 42.9031 5.84215L42.1242 7.68425C42.9241 8.02248 43.708 8.39909 44.4675 8.81412L45.4266 7.05909ZM47.8129 8.52613C47.0446 8.0005 46.2479 7.50776 45.4264 7.05902L44.4676 8.81419C45.2262 9.22859 45.9661 9.68594 46.6837 10.1769L47.8129 8.52613ZM50.0431 10.2169C49.3268 9.61331 48.581 9.05177 47.8131 8.52623L46.6836 10.1767C47.4016 10.6681 48.0937 11.1896 48.7544 11.7463L50.0431 10.2169ZM52.0854 12.1261C51.4375 11.459 50.7596 10.8204 50.0429 10.2168L48.7545 11.7464C49.4148 12.3026 50.0441 12.895 50.6507 13.5195L52.0854 12.1261ZM53.1067 13.2855C52.7808 12.8932 52.4447 12.5133 52.1014 12.143L50.6347 13.5027C50.9569 13.8502 51.2687 14.2029 51.5684 14.5637L53.1067 13.2855ZM51.9723 14.8997C52.0655 14.9057 52.1584 14.9128 52.251 14.9208L52.4242 12.9283C52.3167 12.919 52.2089 12.9108 52.101 12.9039L51.9723 14.8997ZM38.0564 5.07836C35.19 7.52337 32.8232 11.8758 31.2993 15.8575L33.1672 16.5724C34.6529 12.6903 36.8724 8.71702 39.3544 6.6L38.0564 5.07836ZM32.2414 15.215C32.1522 15.2142 32.0631 15.2142 31.9739 15.215L31.9903 17.2149C32.0685 17.2143 32.1468 17.2143 32.225 17.2149L32.2414 15.215ZM31.9811 15.2149C28.7433 15.2182 25.5786 16.1768 22.8831 17.9708L23.9912 19.6357C26.359 18.0599 29.139 17.2178 31.9831 17.2149L31.9811 15.2149ZM24.4368 18.7782C24.3277 14.425 25.1826 9.53256 27.4258 6.08831L25.7499 4.99682C23.2022 8.90858 22.3228 14.2572 22.4374 18.8283L24.4368 18.7782ZM32 4C30.079 4 28.2023 4.19359 26.3885 4.56265L26.7872 6.52249C28.4705 6.17999 30.2137 6 32 6V4ZM38.953 4.87031C36.7288 4.30191 34.3989 4 32 4V6C34.2305 6 36.394 6.28065 38.4578 6.80804L38.953 4.87031Z" fill="url(#paint1_linear)"/>
<path d="M25.0149 24.0012C24.4584 23.9812 24.0002 24.3838 24 24.874V39.1255C24 39.7976 24.8263 40.2177 25.4874 39.8818L32.4957 36.3189L39.5044 32.756C40.1652 32.4198 40.1652 31.58 39.5044 31.2438L32.4957 27.6808L25.4874 24.118C25.3435 24.044 25.181 24.004 25.0149 24V24.0012Z" fill="url(#paint2_linear)"/>
<defs>
<linearGradient id="paint0_linear" x1="32" y1="59" x2="32" y2="5" gradientUnits="userSpaceOnUse">
<stop stop-color="#FD5900"/>
<stop offset="1" stop-color="#FFDE00"/>
</linearGradient>
<linearGradient id="paint1_linear" x1="32" y1="59" x2="32" y2="5" gradientUnits="userSpaceOnUse">
<stop stop-color="#FD5900"/>
<stop offset="1" stop-color="#FFDE00"/>
</linearGradient>
<linearGradient id="paint2_linear" x1="32" y1="40" x2="32" y2="24" gradientUnits="userSpaceOnUse">
<stop stop-color="#FD5900"/>
<stop offset="1" stop-color="#FFDE00"/>
</linearGradient>
</defs>
</svg>
