<svg width="128" height="128" viewBox="0 0 128 128" fill="none" xmlns="http://www.w3.org/2000/svg">
<path fill-rule="evenodd" clip-rule="evenodd" d="M97.75 15H109C111.071 15 112.75 16.679 112.75 18.75V124.25C112.75 126.321 111.071 128 109 128H34C31.929 128 30.25 126.321 30.25 124.25V113H19C16.929 113 15.25 111.321 15.25 109.25V3.75C15.25 1.679 16.929 0 19 0H94C96.071 0 97.75 1.679 97.75 3.75V15ZM22.75 7.5V105.5H90.25V7.5H22.75ZM37.75 120.5H105.25V22.5H97.75V109.25C97.75 111.321 96.071 113 94 113H37.75V120.5ZM34 15C36.071 15 37.75 16.679 37.75 18.75V26.5C37.75 28.571 36.071 30.25 34 30.25C31.929 30.25 30.25 28.571 30.25 26.5V18.75C30.25 16.679 31.929 15 34 15ZM75.25 86.5C75.25 84.429 76.929 82.75 79 82.75C81.071 82.75 82.75 84.429 82.75 86.5V94.25C82.75 96.321 81.071 98 79 98C76.929 98 75.25 96.321 75.25 94.25V86.5ZM39.8778 56.6274L58.6274 33.7347L77.3771 56.6274L58.6274 79.5202L39.8778 56.6274ZM61.722 28.0437C60.1216 26.0897 57.1332 26.0897 55.5329 28.0437L34.198 54.0929C32.9908 55.567 32.9908 57.6879 34.198 59.1619L55.5329 85.2112C57.1332 87.1651 60.1216 87.1651 61.722 85.2112L83.0568 59.1619C84.2641 57.6879 84.2641 55.567 83.0568 54.0929L61.722 28.0437Z" fill="url(#paint0_linear)"/>
<defs>
<linearGradient id="paint0_linear" x1="64" y1="128" x2="64" y2="0" gradientUnits="userSpaceOnUse">
<stop stop-color="#AC3E00"/>
<stop offset="1" stop-color="#FF620A"/>
</linearGradient>
</defs>
</svg>
