<svg width="64" height="64" viewBox="0 0 64 64" fill="none" xmlns="http://www.w3.org/2000/svg">
<path d="M4.00946 31.2678C4.39453 16.0504 16.4638 3.98688 31.112 4.00001C31.3445 4.00022 31.5755 4.00462 31.8093 4.01095C35.6182 4.11359 39.2209 5.02435 42.4715 6.5793C42.7473 6.71124 43.0726 6.57173 43.1928 6.29059C43.3323 5.96434 43.5166 5.65201 43.7609 5.53844C43.8152 5.51323 43.8731 5.49186 43.9332 5.47554C43.9882 5.46061 44.0412 5.4472 44.0945 5.43726C44.1468 5.42751 44.2023 5.42071 44.2532 5.41539C44.3048 5.40998 44.3559 5.40566 44.4063 5.40445C44.7473 5.39628 45.0646 5.74176 45.4033 6.11038C45.7193 6.4544 46.0538 6.81857 46.4434 6.93427C46.4677 6.9415 46.4884 6.94923 46.5089 6.95689C46.5429 6.96959 46.5796 6.97244 46.6155 6.96696L46.8084 6.93749C46.9543 6.91503 47.0996 6.89265 47.25 6.87138C49.3662 6.57312 51.0843 7.06591 52.7842 7.73272C54.3831 8.36028 56.0479 9.58135 56.5555 9.9537L56.6369 10.0132L56.7241 10.0756C57.1704 10.3915 58.2021 11.1219 58.4005 12.7858C58.6134 14.5701 58.6686 15.8212 58.6001 16.7972C58.5825 17.0519 58.5967 17.3408 58.6274 17.6286C58.6312 17.6638 58.6791 17.6615 58.6822 17.6263C58.6853 17.591 58.7356 17.5909 58.7405 17.626C58.7792 17.8984 58.8066 18.1297 58.8139 18.1924C58.8152 18.2035 58.8184 18.2142 58.8234 18.2243L58.9786 18.5376L59.2484 19.1439L59.7955 20.5113C59.8082 20.543 59.8176 20.5759 59.8236 20.6095L59.9907 21.5494C59.9969 21.5843 59.9995 21.6172 59.997 21.6526C59.9573 22.2159 59.4291 27.2687 53.2859 26.2956C53.1374 26.2588 53.0135 26.2265 52.9101 26.1981C52.6229 26.1192 52.144 25.9227 51.8634 25.8227C51.442 25.6724 51.0327 25.525 50.6314 25.3805C48.0911 24.4656 45.8766 23.6681 43.0009 23.0192C42.7632 22.9656 42.5211 23.1424 42.4983 23.3851C42.3866 24.5772 41.6241 25.4181 40.0559 24.781C39.0981 24.4114 38.5196 23.5162 37.9243 22.595C37.8892 22.5407 37.854 22.4863 37.8187 22.432C37.7283 22.2927 37.5738 22.2084 37.4078 22.2087C34.2651 22.2153 31.0264 22.8839 28.0977 23.9057L27.9785 23.9476L27.8667 23.995C26.9707 24.3785 25.5332 25.1949 25.1314 25.4258C25.0758 25.4578 25.0654 25.5324 25.1083 25.58C25.5811 26.1053 26.2317 26.9474 26.3791 27.0645C27.1717 27.6942 27.8197 28.2892 28.231 29.3013L28.2899 29.4461C28.7716 30.6734 28.7018 31.4198 27.4451 31.8605C25.9537 32.3907 24.8222 31.5399 23.6826 30.6831C23.4176 30.4838 23.1522 30.2842 22.8817 30.1016C21.419 29.1141 20.9582 29.1141 20.9582 29.1141C18.8567 31.756 18.1093 34.4858 17.9999 36.1C17.8088 38.8779 19.5299 43.0186 23.1524 46.0711C31 52.6839 40.9853 50.7276 47.025 48.4766C50.3955 46.7201 51.1515 46.7405 51.5356 46.7508C51.5615 46.7515 51.5857 46.7521 51.6089 46.7522C52.0174 46.7533 51.7463 46.7524 52.2658 46.9065C52.3776 46.9397 52.4767 47.008 52.5439 47.1033C52.65 47.2537 52.7314 47.3692 52.7939 47.4578C52.9172 47.6326 53.0037 47.8946 52.98 48.1073C52.8037 49.6927 51.516 50.9573 51.2501 51.2501C50.8719 51.6665 49.8966 52.2392 49.3636 52.6839C44.3717 57.391 37.6822 60.1871 30.3929 59.9903C15.4308 59.5862 3.61783 46.7268 4.00946 31.2678Z" stroke="url(#paint0_linear_637_223)" stroke-width="6"/>
<path d="M51.9716 17.5465C51.1213 18.6315 49.5504 18.8182 48.4622 17.9663C47.374 17.1099 47.1791 15.5384 48.03 14.4528C48.8784 13.3698 50.4505 13.1824 51.5381 14.0356C52.627 14.8907 52.8194 16.4616 51.9716 17.5465Z" stroke="url(#paint1_linear_637_223)" stroke-width="3"/>
<defs>
<linearGradient id="paint0_linear_637_223" x1="32" y1="60.0001" x2="32" y2="4" gradientUnits="userSpaceOnUse">
<stop stop-color="#FD5900"/>
<stop offset="1" stop-color="#FFDE00"/>
</linearGradient>
<linearGradient id="paint1_linear_637_223" x1="48.4062" y1="17.9102" x2="52.915" y2="13.9762" gradientUnits="userSpaceOnUse">
<stop stop-color="#FE0844"/>
<stop offset="1" stop-color="#FEB302"/>
</linearGradient>
</defs>
</svg>
