<svg width="64" height="64" viewBox="0 0 64 64" fill="none" xmlns="http://www.w3.org/2000/svg">
<path d="M56.7184 47.5184L54.598 45.3962L54.5962 45.398L56.7184 47.5184ZM56.7184 9.2816L54.5962 11.402L54.598 11.4038L56.7184 9.2816ZM7.2816 9.2816L9.40202 11.4038L9.40383 11.402L7.2816 9.2816ZM7.2816 47.5184L9.40454 45.3987L9.40201 45.3962L7.2816 47.5184ZM14.9083 53.5002C16.5573 53.6613 18.0247 52.4551 18.1858 50.8061C18.3469 49.1571 17.1407 47.6897 15.4917 47.5286L14.9083 53.5002ZM26.8452 54.006L25.4634 51.3432L25.4632 51.3433L26.8452 54.006ZM17.076 57.436L18.7506 54.9469L18.7471 54.9445L17.076 57.436ZM16.4824 47.9048L19.47 48.1775L19.4703 48.1741L16.4824 47.9048ZM19.5879 46.8693C19.7366 45.2191 18.5194 43.7608 16.8693 43.6121C15.2191 43.4634 13.7608 44.6805 13.6121 46.3307L19.5879 46.8693ZM37.6 53.8C42.7946 53.8 46.9927 53.8064 50.2891 53.363C53.6717 52.9081 56.5507 51.9307 58.8406 49.6388L54.5962 45.398C53.6073 46.3877 52.2065 47.0511 49.4893 47.4166C46.6859 47.7936 42.9642 47.8 37.6 47.8V53.8ZM58.8388 49.6406C61.1307 47.3507 62.1081 44.4717 62.563 41.0891C63.0064 37.7927 63 33.5946 63 28.4H57C57 33.7642 56.9936 37.4859 56.6166 40.2893C56.2511 43.0065 55.5877 44.4073 54.598 45.3962L58.8388 49.6406ZM63 28.4C63 23.2054 63.0064 19.0073 62.563 15.7109C62.1081 12.3283 61.1307 9.44926 58.8388 7.15937L54.598 11.4038C55.5877 12.3927 56.2511 13.7935 56.6166 16.5107C56.9936 19.3141 57 23.0358 57 28.4H63ZM58.8406 7.16118C56.5507 4.86934 53.6717 3.89192 50.2891 3.43697C46.9927 2.99362 42.7946 3 37.6 3V9C42.9642 9 46.6859 9.00638 49.4893 9.38343C52.2065 9.74888 53.6073 10.4123 54.5962 11.402L58.8406 7.16118ZM37.6 3H26.4V9H37.6V3ZM26.4 3C21.2054 3 17.0073 2.99362 13.7109 3.43697C10.3283 3.89192 7.44926 4.86934 5.15937 7.16118L9.40383 11.402C10.3927 10.4123 11.7935 9.74888 14.5107 9.38343C17.3141 9.00638 21.0358 9 26.4 9V3ZM5.16118 7.15937C2.86934 9.44926 1.89192 12.3283 1.43697 15.7109C0.993624 19.0073 1 23.2054 1 28.4H7C7 23.0358 7.00638 19.3141 7.38343 16.5107C7.74888 13.7935 8.41226 12.3927 9.40201 11.4038L5.16118 7.15937ZM1 28.4C1 33.5946 0.993624 37.7927 1.43697 41.0891C1.89192 44.4717 2.86934 47.3507 5.16118 49.6406L9.40201 45.3962C8.41226 44.4073 7.74888 43.0065 7.38343 40.2893C7.00638 37.4859 7 33.7642 7 28.4H1ZM5.15866 49.6381C7.71466 52.198 11.004 53.1188 14.9083 53.5002L15.4917 47.5286C12.116 47.1988 10.5053 46.5012 9.40454 45.3987L5.15866 49.6381ZM37.6 47.8C33.4208 47.8 29.093 49.4598 25.4634 51.3432L28.227 56.6688C31.5582 54.9402 34.8576 53.8 37.6 53.8V47.8ZM25.4632 51.3433C22.5968 52.831 20.6742 53.8243 19.2927 54.3611C18.6081 54.6271 18.254 54.6995 18.1151 54.7126C18.0156 54.722 18.3437 54.6731 18.7506 54.9469L15.4014 59.9251C16.4971 60.6623 17.6914 60.7793 18.6787 60.6861C19.6266 60.5967 20.5797 60.2981 21.4659 59.9537C23.226 59.2697 25.4992 58.0846 28.2272 56.6687L25.4632 51.3433ZM18.7471 54.9445C19.4291 55.402 19.1069 55.9496 19.0652 54.3948C19.0294 53.0656 19.2006 51.129 19.47 48.1775L13.4948 47.6321C13.2406 50.4178 13.0197 52.7848 13.0673 54.5559C13.1088 56.1014 13.3453 58.5461 15.4049 59.9275L18.7471 54.9445ZM19.4703 48.1741L19.5879 46.8693L13.6121 46.3307L13.4945 47.6355L19.4703 48.1741Z" fill="url(#paint0_linear)"/>
<path d="M19 15V41.6666H24.875V20.0408H34.475L36.0666 15H19Z" fill="url(#paint1_linear)"/>
<path d="M29.892 41.6667V24.6001H34.892V41.6667H29.892Z" fill="url(#paint2_linear)"/>
<path d="M39.4921 41.6666V15H44.4921V41.6666H39.4921Z" fill="url(#paint3_linear)"/>
<defs>
<linearGradient id="paint0_linear" x1="32" y1="57.714" x2="32" y2="6" gradientUnits="userSpaceOnUse">
<stop stop-color="#02AA93"/>
<stop offset="1" stop-color="#67FF80"/>
</linearGradient>
<linearGradient id="paint1_linear" x1="27.5333" y1="41.6666" x2="27.5333" y2="15" gradientUnits="userSpaceOnUse">
<stop stop-color="#02AA93"/>
<stop offset="1" stop-color="#67FF80"/>
</linearGradient>
<linearGradient id="paint2_linear" x1="32.392" y1="41.6667" x2="32.392" y2="24.6001" gradientUnits="userSpaceOnUse">
<stop stop-color="#02AA93"/>
<stop offset="1" stop-color="#67FF80"/>
</linearGradient>
<linearGradient id="paint3_linear" x1="41.9921" y1="41.6666" x2="41.9921" y2="15" gradientUnits="userSpaceOnUse">
<stop stop-color="#02AA93"/>
<stop offset="1" stop-color="#67FF80"/>
</linearGradient>
</defs>
</svg>
