<svg width="64" height="64" viewBox="0 0 64 64" fill="none" xmlns="http://www.w3.org/2000/svg">
<path d="M21.6804 1.43749C23.4987 0.988009 25.4434 2.04028 26.2298 3.68488C30.9371 12.5037 35.6444 21.319 40.2921 30.1692C41.4259 32.2981 41.9068 34.8417 41.2258 37.1866C40.3166 40.2041 37.705 42.542 34.6194 43.2285C31.6637 43.6431 28.4764 42.6988 26.486 40.434C24.6255 38.4514 24.2043 35.6779 23.6778 33.1274C22.0525 24.1483 20.3219 15.1866 18.6791 6.21101C18.2017 4.16223 19.5637 1.84864 21.6804 1.43749ZM23.074 6.46536C24.4957 15.2912 26.3421 24.0473 27.8831 32.8521C28.3359 34.6291 28.4728 36.7302 29.9858 37.995C31.8252 39.6152 35.0582 39.448 36.4658 37.3469C37.6488 35.9462 37.5154 33.9218 36.6975 32.3783C32.9274 25.11 29.0415 17.8974 25.2083 10.657C24.4957 9.25979 23.6427 7.93226 23.074 6.46536Z" fill="url(#paint0_linear)"/>
<path d="M31.4953 1.79289C31.6532 1.75108 31.9691 1.66049 32.1236 1.61868C38.056 1.57338 43.9674 3.40962 48.8959 6.67095C55.067 10.7581 59.655 17.1553 61.4733 24.2981C63.3128 31.1901 62.5686 38.7128 59.4549 45.1344C56.601 51.1483 51.655 56.1379 45.6734 59.117C41.0854 61.4584 35.8691 62.5072 30.73 62.3191C24.4536 62.0124 18.2859 59.7685 13.3504 55.8975C6.9055 50.887 2.65451 43.2145 1.8366 35.1274C0.744894 25.1274 4.9678 14.65 12.9503 8.39917C14.207 7.54899 16.0674 8.59429 16.0815 10.0751C16.1657 11.0298 15.418 11.7267 14.7475 12.2842C10.4369 16.0089 7.46364 21.1901 6.35789 26.7511C5.02748 33.3121 6.2596 40.3852 9.93841 46.0194C12.4342 49.9741 16.0253 53.2459 20.2236 55.3504C25.6997 58.1135 32.1763 58.894 38.1508 57.4549C44.5852 55.9288 50.3562 51.8661 53.9718 46.3713C57.2926 41.3609 58.7669 35.1971 58.1561 29.2354C57.605 23.7859 55.2531 18.542 51.5813 14.4584C46.7546 8.96015 39.4918 5.80683 32.1727 5.71624C30.1333 5.67095 29.6032 2.53157 31.4953 1.79289Z" fill="#1CB5FF"/>
<defs>
<linearGradient id="paint0_linear" x1="30.0615" y1="43.3235" x2="30.0615" y2="1.33331" gradientUnits="userSpaceOnUse">
<stop stop-color="#5558FF"/>
<stop offset="1" stop-color="#00C0FF"/>
</linearGradient>
</defs>
</svg>
