<svg width="128" height="128" viewBox="0 0 128 128" fill="none" xmlns="http://www.w3.org/2000/svg">
<path fill-rule="evenodd" clip-rule="evenodd" d="M117.333 106.514V21.4857C117.333 18.4466 114.954 16 112 16H15.9998C13.0452 16 10.6665 18.4466 10.6665 21.4857V106.514C10.6665 109.553 13.0452 112 15.9998 112H112C114.954 112 117.333 109.553 117.333 106.514ZM113 24.8286C113 22.6195 111.209 20.8286 109 20.8286H68C65.7909 20.8286 64 22.6195 64 24.8286V103.886C64 106.095 65.7909 107.886 68 107.886H108.1C110.815 107.886 113 105.684 113 102.949V24.8286ZM31 39.7143C31 38.7675 30.2325 38 29.2857 38H23C21.8954 38 21 38.8954 21 40V46.2857C21 47.3903 21.8954 48.2857 23 48.2857H32.3333C33.4379 48.2857 34.3333 47.3903 34.3333 46.2857V43.0952C34.3333 42.1748 33.5871 41.4286 32.6667 41.4286C31.7462 41.4286 31 40.6824 31 39.7619V39.7143ZM29.2857 58.5715C30.2325 58.5715 31 59.339 31 60.2858V60.3334C31 61.2538 31.7462 62 32.6667 62C33.5871 62 34.3333 62.7462 34.3333 63.6667V66.8572C34.3333 67.9617 33.4379 68.8572 32.3333 68.8572H23C21.8954 68.8572 21 67.9617 21 66.8572V60.5715C21 59.4669 21.8954 58.5715 23 58.5715H29.2857ZM31 80.8572C31 79.9104 30.2325 79.1429 29.2857 79.1429H23C21.8954 79.1429 21 80.0383 21 81.1429V87.4286C21 88.5332 21.8954 89.4286 23 89.4286H32.3333C33.4379 89.4286 34.3333 88.5332 34.3333 87.4286V84.2381C34.3333 83.3176 33.5871 82.5715 32.6667 82.5715C31.7462 82.5715 31 81.8253 31 80.9048V80.8572Z" fill="url(#paint0_linear_576_94)"/>
<g opacity="0.8">
<path d="M82 29C83.1046 29 84 29.8954 84 31V31.6667C84 32.7712 84.8954 33.6667 86 33.6667H86.6667C87.7712 33.6667 88.6667 34.5621 88.6667 35.6667V41C88.6667 42.1046 87.7712 43 86.6667 43H72C70.8954 43 70 42.1046 70 41V31C70 29.8954 70.8954 29 72 29H82Z" fill="url(#paint1_linear_576_94)"/>
<path d="M82 57C83.1046 57 84 57.8954 84 59V59.6667C84 60.7712 84.8954 61.6667 86 61.6667H86.6667C87.7712 61.6667 88.6667 62.5621 88.6667 63.6667V69C88.6667 70.1046 87.7712 71 86.6667 71H72C70.8954 71 70 70.1046 70 69V59C70 57.8954 70.8954 57 72 57H82Z" fill="url(#paint2_linear_576_94)"/>
<path d="M82 85C83.1046 85 84 85.8954 84 87V87.6667C84 88.7712 84.8954 89.6667 86 89.6667H86.6667C87.7712 89.6667 88.6667 90.5621 88.6667 91.6667V97C88.6667 98.1046 87.7712 99 86.6667 99H72C70.8954 99 70 98.1046 70 97V87C70 85.8954 70.8954 85 72 85H82Z" fill="url(#paint3_linear_576_94)"/>
</g>
<defs>
<linearGradient id="paint0_linear_576_94" x1="63.9998" y1="112" x2="63.9998" y2="16" gradientUnits="userSpaceOnUse">
<stop stop-color="#5570FF"/>
<stop offset="1" stop-color="#4DD3FF"/>
</linearGradient>
<linearGradient id="paint1_linear_576_94" x1="70.0027" y1="35.7926" x2="88.6698" y2="35.7926" gradientUnits="userSpaceOnUse">
<stop stop-color="#A93AFF"/>
<stop offset="1" stop-color="#FF81FF"/>
</linearGradient>
<linearGradient id="paint2_linear_576_94" x1="70.0027" y1="63.7926" x2="88.6698" y2="63.7926" gradientUnits="userSpaceOnUse">
<stop stop-color="#A93AFF"/>
<stop offset="1" stop-color="#FF81FF"/>
</linearGradient>
<linearGradient id="paint3_linear_576_94" x1="70.0027" y1="91.7926" x2="88.6698" y2="91.7926" gradientUnits="userSpaceOnUse">
<stop stop-color="#A93AFF"/>
<stop offset="1" stop-color="#FF81FF"/>
</linearGradient>
</defs>
</svg>
