<svg width="64" height="64" viewBox="0 0 64 64" fill="none" xmlns="http://www.w3.org/2000/svg">
<path fill-rule="evenodd" clip-rule="evenodd" d="M4.00067 28.2144C3.90116 14.2743 14.8601 5.66803 23.8781 5.04149C23.881 5.04129 23.8839 5.04069 23.8866 5.03971V5.03971C23.8894 5.03873 23.8922 5.03813 23.8951 5.03793C27.1036 4.81631 30.6245 5.573 33.8823 7.12263C33.9273 7.14403 33.9787 7.14806 34.0264 7.13391C35.8302 6.59966 37.7106 6.30233 39.6212 6.30233C48.4144 6.30233 60.0947 15.6188 59.9994 29.3096C59.9021 42.8967 56.1289 51.0068 52.5353 58.2201C52.4878 58.3153 52.3743 58.3563 52.2767 58.3138L45.0479 55.1679C44.9428 55.1222 44.8975 54.9977 44.949 54.8952C45.8293 53.1428 46.7352 51.4676 47.6239 49.824C51.3341 42.9625 54.7454 36.6541 54.7521 27.5905C54.7548 23.4371 53.1572 18.7302 49.3702 15.2303C46.8014 12.8578 43.6503 11.2099 39.9927 10.8482C39.8042 10.8296 39.7048 11.0608 39.8427 11.1907C43.8609 14.9744 46.8577 20.3286 46 26.5C46.0016 26.0807 45.9933 26.8552 46 26.5C45.9661 35.3897 38.9905 41.0045 32.7789 41.0398C26.3627 41.0781 22.8141 38.5908 20.7566 35.2203C18.6992 31.8499 18.1442 27.405 18.374 23.7726C18.6095 20.0843 21.1771 15.6247 25.0649 12.1778C26.1005 11.2583 27.2308 10.4113 28.4353 9.66353C28.5895 9.56781 28.5503 9.3328 28.3719 9.29943C23.5338 8.3945 18.3828 9.74985 14.1088 13.8521C10.8381 16.9901 8.95522 20.8854 8.72574 26.4458C8.38363 34.7988 14.2512 47.4036 18.2692 53.7739C18.3345 53.8774 18.2909 54.0114 18.1791 54.0611L11.5385 57.0091C11.4352 57.055 11.3144 57.0062 11.2718 56.9014C10.858 55.8829 10.4369 54.8788 10.0167 53.8766C7.03053 46.7557 4.08245 39.7254 4.00067 28.2144ZM33.9342 11.4289C33.8888 11.4018 33.8342 11.3941 33.783 11.4073C29.4151 12.532 26.2977 14.8638 24.2408 17.4674C21.6964 20.9632 20.5836 25.1124 21.0633 28.9307C23.0393 37.8323 34.8187 41.1773 40.1644 32.9763C43.4905 27.8743 42.8684 20.8883 39.241 16.1324C37.6986 14.183 35.8946 12.6008 33.9342 11.4289Z" fill="url(#paint0_linear_501:60)"/>
<path d="M46 26.5C46.8577 20.3286 43.8609 14.9744 39.8427 11.1907C39.7048 11.0608 39.8042 10.8296 39.9927 10.8482C43.6503 11.2099 46.8014 12.8578 49.3702 15.2303C53.1572 18.7302 54.7548 23.4371 54.7521 27.5905C54.7454 36.6541 51.3341 42.9625 47.6239 49.824C46.7352 51.4676 45.8293 53.1428 44.949 54.8952C44.8975 54.9977 44.9428 55.1222 45.0479 55.1679L52.2767 58.3138C52.3743 58.3563 52.4878 58.3153 52.5353 58.2201C56.1289 51.0068 59.9021 42.8967 59.9994 29.3096C60.0947 15.6188 48.4144 6.30233 39.6212 6.30233C37.7106 6.30233 35.8302 6.59966 34.0264 7.13391C33.9787 7.14806 33.9273 7.14403 33.8823 7.12263C30.6245 5.573 27.1036 4.81631 23.8951 5.03793C23.8922 5.03813 23.8894 5.03873 23.8866 5.03971V5.03971C23.8839 5.04069 23.881 5.04129 23.8781 5.04149C14.8601 5.66803 3.90116 14.2743 4.00067 28.2144C4.08245 39.7254 7.03053 46.7557 10.0167 53.8766C10.4369 54.8788 10.858 55.8829 11.2718 56.9014C11.3144 57.0062 11.4352 57.055 11.5385 57.0091L18.1791 54.0611C18.2909 54.0114 18.3345 53.8774 18.2692 53.7739C14.2512 47.4036 8.38363 34.7988 8.72574 26.4458C8.95522 20.8854 10.8381 16.9901 14.1088 13.8521C18.3828 9.74985 23.5338 8.3945 28.3719 9.29943C28.5503 9.3328 28.5895 9.56781 28.4353 9.66353C27.2308 10.4113 26.1005 11.2583 25.0649 12.1778C21.1771 15.6247 18.6095 20.0843 18.374 23.7726C18.1442 27.405 18.6992 31.8499 20.7566 35.2203C22.8141 38.5908 26.3627 41.0781 32.7789 41.0398C38.9905 41.0045 45.9661 35.3897 46 26.5ZM46 26.5C45.9933 26.8552 46.0016 26.0807 46 26.5ZM24.2408 17.4674C26.2977 14.8638 29.4151 12.532 33.783 11.4073C33.8342 11.3941 33.8888 11.4018 33.9342 11.4289C35.8946 12.6008 37.6986 14.183 39.241 16.1324C42.8684 20.8883 43.4905 27.8743 40.1644 32.9763C34.8187 41.1773 23.0393 37.8323 21.0633 28.9307C20.5836 25.1124 21.6964 20.9632 24.2408 17.4674Z" stroke="url(#paint1_linear_501:60)" stroke-width="3"/>
<defs>
<linearGradient id="paint0_linear_501:60" x1="9.2093" y1="31.6948" x2="50.4496" y2="31.6948" gradientUnits="userSpaceOnUse">
<stop stop-color="#5570FF"/>
<stop offset="1" stop-color="#4DD3FF"/>
</linearGradient>
<linearGradient id="paint1_linear_501:60" x1="9.2093" y1="31.6948" x2="50.4496" y2="31.6948" gradientUnits="userSpaceOnUse">
<stop stop-color="#5570FF"/>
<stop offset="1" stop-color="#4DD3FF"/>
</linearGradient>
</defs>
</svg>
