<svg width="192" height="192" viewBox="0 0 192 192" fill="none" xmlns="http://www.w3.org/2000/svg">
<path d="M168.526 73.131L168.547 73.1638L168.571 73.1949C169.917 74.9721 172.017 75.8567 174.093 75.9289C176.164 76.0009 178.316 75.2702 179.808 73.6786C181.909 71.5342 182.275 68.2868 181.29 65.6667C173.717 44.586 157.509 26.779 137.254 16.9468C121.398 9.14725 103.153 6.40602 85.6482 8.88522C57.2148 12.7063 31.4842 31.3713 18.9962 56.9438C8.35653 78.2191 7.11186 103.805 15.4888 126.026C22.3446 144.475 35.7263 160.41 52.7072 170.529C69.2074 180.465 89.0663 184.682 108.235 182.5C141.503 179.17 171.667 155.203 181.828 123.573L181.835 123.552L181.841 123.531C182.604 120.734 181.375 118.075 179.417 116.417C177.469 114.768 174.647 113.973 172.003 115.035C169.977 115.693 168.774 117.158 167.939 118.717C167.521 119.496 167.182 120.322 166.877 121.107C166.799 121.307 166.724 121.502 166.65 121.694C166.427 122.274 166.218 122.819 165.989 123.339L165.983 123.352L165.977 123.366C155.982 147.992 131.29 165.898 104.575 167.916L104.563 167.917C86.8161 169.478 68.5397 164.379 54.3589 153.691L54.3509 153.685C39.3547 142.613 28.9471 125.65 25.9782 107.36L25.9766 107.351C22.8388 89.1155 27.1147 69.7364 37.7525 54.5352L37.757 54.5287C47.1612 40.8604 61.4313 30.554 77.4527 25.8931L77.4587 25.8913C94.5723 20.7953 113.56 22.2126 129.68 29.8496L129.683 29.8509C145.324 37.2 158.186 50.2061 165.204 65.8781L165.207 65.8846C165.559 66.6555 165.868 67.4268 166.187 68.2228C166.351 68.633 166.518 69.0498 166.694 69.4765C167.202 70.7014 167.77 71.9534 168.526 73.131Z" fill="url(#paint0_linear)" stroke="url(#paint1_linear)" stroke-width="2"/>
<path d="M87.4984 52.6976C83.8397 50.3996 79.0297 49.6113 74.8857 51.5055C69.7011 53.5956 66.6405 59.085 66.9581 64.4713C66.9659 71.7039 66.9589 78.9402 66.952 86.1781C66.9386 100.01 66.9253 113.849 67.015 127.678C66.8006 132.387 69.5622 136.414 73.2919 138.67C77.0284 140.93 81.9012 141.511 86.0202 139.124C98.7696 131.927 111.469 124.64 124.166 117.355C130.229 113.876 136.292 110.398 142.359 106.929C147.509 104.256 150.377 98.0327 148.841 92.4081C148 88.4777 145.039 85.4906 141.712 83.7307C123.633 73.4052 105.566 63.0571 87.4984 52.6976ZM82.0096 78.0743C81.9632 74.3963 81.9174 70.7733 82.2142 67.1343C91.2496 71.9518 100.089 77.066 108.943 82.1892C115.111 85.758 121.287 89.3313 127.542 92.8116C128.025 93.1567 128.553 93.4423 129.046 93.6965C129.178 93.7644 129.306 93.8295 129.431 93.8932C129.812 94.0872 130.166 94.2675 130.51 94.4679C131.11 94.8174 131.565 95.1669 131.872 95.5848C115.459 105.2 98.9901 114.771 82.2987 123.895C81.8644 116.034 81.9383 108.187 82.0125 100.304C82.0608 95.1789 82.1092 90.0383 82.0181 84.8689C82.0664 82.573 82.0379 80.3135 82.0096 78.0743Z" fill="url(#paint2_linear)" stroke="url(#paint3_linear)" stroke-width="2"/>
<defs>
<linearGradient id="paint0_linear" x1="96.035" y1="183.061" x2="96.035" y2="8" gradientUnits="userSpaceOnUse">
<stop stop-color="#5570FF"/>
<stop offset="1" stop-color="#4DD3FF"/>
</linearGradient>
<linearGradient id="paint1_linear" x1="96.035" y1="183.061" x2="96.035" y2="8" gradientUnits="userSpaceOnUse">
<stop stop-color="#5570FF"/>
<stop offset="1" stop-color="#4DD3FF"/>
</linearGradient>
<linearGradient id="paint2_linear" x1="108.095" y1="140.661" x2="108.095" y2="50.4436" gradientUnits="userSpaceOnUse">
<stop stop-color="#5570FF"/>
<stop offset="1" stop-color="#4DD3FF"/>
</linearGradient>
<linearGradient id="paint3_linear" x1="108.095" y1="140.661" x2="108.095" y2="50.4436" gradientUnits="userSpaceOnUse">
<stop stop-color="#5570FF"/>
<stop offset="1" stop-color="#4DD3FF"/>
</linearGradient>
</defs>
</svg>
