<svg width="24" height="24" viewBox="0 0 24 24" fill="none" xmlns="http://www.w3.org/2000/svg">
<path d="M4.32995 10.7497C3.28896 11.0116 2.37945 11.6447 1.7723 12.5299C1.16515 13.4152 0.90215 14.4916 1.03272 15.5571C1.16328 16.6226 1.67842 17.6037 2.48136 18.3162C3.28429 19.0286 4.31975 19.4233 5.39319 19.4262H17.5004C18.2776 19.4256 19.0457 19.2605 19.7544 18.9417C20.4631 18.6229 21.0963 18.1576 21.6122 17.5765C22.1281 16.9953 22.5151 16.3115 22.7477 15.57C22.9803 14.8286 23.0532 14.0462 22.9617 13.2745C22.8701 12.5028 22.6162 11.7593 22.2165 11.0928C21.8169 10.4263 21.2807 9.85203 20.6431 9.40773C20.0055 8.96344 19.2811 8.65921 18.5175 8.51507C17.7538 8.37093 16.9683 8.39015 16.2127 8.57147M4.32995 10.7497C4.15303 9.22346 4.56306 7.68813 5.47691 6.45302C6.39076 5.21791 7.74006 4.37649 9.25128 4.09933C10.7625 3.82217 12.3226 4.13001 13.6153 4.96044C14.9079 5.79087 15.8365 7.0818 16.2127 8.57147M4.32995 10.7497C4.32995 10.7497 4.49835 11.7215 4.84286 12.2718M16.2127 8.57147L14.7488 8.96991" stroke="url(#paint0_linear)" stroke-width="2" stroke-linecap="round" stroke-linejoin="round"/>
<defs>
<linearGradient id="paint0_linear" x1="12" y1="19.4262" x2="12" y2="4" gradientUnits="userSpaceOnUse">
<stop stop-color="#5570FF"/>
<stop offset="1" stop-color="#4DD3FF"/>
</linearGradient>
</defs>
</svg>
