<svg width="128" height="128" viewBox="0 0 128 128" fill="none" xmlns="http://www.w3.org/2000/svg">
<path d="M118.462 42.4492H103.308C101.651 42.4492 100.308 41.1061 100.308 39.4492V24.7246C100.308 23.8053 99.8442 22.8942 98.9783 22.2178L80.8243 8.03819C79.9735 7.3734 78.8193 7 77.6154 7H50.3846C49.1811 7 48.0267 7.3734 47.1757 8.03819L29.0217 22.2178C28.1918 22.8661 27.6924 23.7665 27.6924 24.7246V39.4492C27.6924 41.1061 26.3492 42.4492 24.6924 42.4492H9.53843C7.03201 42.4492 5 44.0364 5 45.9941V124.455C5 126.413 7.03201 128 9.53843 128H118.462C120.967 128 123 126.413 123 124.455V45.9941C123 44.0364 120.967 42.4492 118.462 42.4492ZM51.4505 14.7256C51.9779 14.3136 52.6279 14.0898 53.2972 14.0898H74.7027C75.372 14.0898 76.022 14.3136 76.5494 14.7256L77.9447 15.8154C80.1934 17.5718 78.9514 21.1797 76.098 21.1797H51.9019C49.0485 21.1797 47.8065 17.5719 50.0552 15.8154L51.4505 14.7256ZM88.2308 28.2695C89.8876 28.2695 91.2308 29.6127 91.2308 31.2695V53.6289C91.2308 55.2858 89.8876 56.6289 88.2308 56.6289H85.1538C83.497 56.6289 82.1538 55.2858 82.1538 53.6289V31.2695C82.1538 29.6127 83.497 28.2695 85.1538 28.2695H88.2308ZM70.077 28.2695C71.7338 28.2695 73.077 29.6127 73.077 31.2695V39.4492C73.077 41.1061 71.7338 42.4492 70.077 42.4492H57.923C56.2662 42.4492 54.923 41.1061 54.923 39.4492V31.2695C54.923 29.6127 56.2662 28.2695 57.923 28.2695H70.077ZM36.7692 31.2695C36.7692 29.6127 38.1124 28.2695 39.7692 28.2695H42.8462C44.503 28.2695 45.8462 29.6127 45.8462 31.2695V53.6289C45.8462 55.2858 44.503 56.6289 42.8462 56.6289H39.7692C38.1124 56.6289 36.7692 55.2858 36.7692 53.6289V31.2695ZM113.924 117.91C113.924 119.567 112.58 120.91 110.924 120.91H17.077C15.4201 120.91 14.077 119.567 14.077 117.91V52.5391C14.077 50.8822 15.4201 49.5391 17.077 49.5391H24.6924C26.3492 49.5391 27.6924 50.8822 27.6924 52.5391V60.1738C27.6924 62.1316 29.7244 63.7188 32.2308 63.7188H50.3846C52.891 63.7188 54.923 62.1316 54.923 60.1738V52.5391C54.923 50.8822 56.2662 49.5391 57.923 49.5391H70.077C71.7338 49.5391 73.077 50.8822 73.077 52.5391V60.1738C73.077 62.1316 75.109 63.7188 77.6154 63.7188H95.7692C98.2756 63.7188 100.308 62.1316 100.308 60.1738V52.5391C100.308 50.8822 101.651 49.5391 103.308 49.5391H110.924C112.58 49.5391 113.924 50.8822 113.924 52.5391V117.91Z" fill="url(#paint0_linear_678_398)"/>
<path fill-rule="evenodd" clip-rule="evenodd" d="M67.291 59.2961C65.0209 56.6523 60.049 58.3066 60.0118 61.9708C59.924 66.736 59.9394 71.5043 59.9548 76.2737C59.9642 79.1872 59.9736 82.1011 59.9595 85.0149C57.568 83.255 56.1616 81.5201 53.7565 79.7862C53.1826 79.3725 52.6088 78.9587 52.0353 78.5448C50.6062 77.4856 48.6189 76.9909 47.026 77.965C44.3837 79.2017 44.0711 83.3299 46.2965 85.1773C48.9602 87.2571 50.7073 89.2186 53.4546 91.1803C56.1501 93.105 58.8459 95.0299 61.4631 97.0668C62.9072 98.4039 65.2517 98.3573 66.8296 97.2905C72.1293 93.7813 75.4362 90.2794 80.7432 86.7853C80.836 86.7223 80.9295 86.6593 81.0234 86.5961C82.1276 85.8528 83.2834 85.0749 83.8322 83.7783C84.9858 81.4591 83.5196 78.2819 81.0707 77.7563C79.344 77.1765 77.6468 78.1968 76.2401 79.1322C74.8811 80.0644 74.502 80.9659 73.1228 81.8675C71.2536 83.0894 70.3841 84.3114 68.564 85.6103C68.5022 81.7784 68.5245 77.9445 68.5468 74.1095C68.5676 70.5482 68.5883 66.9861 68.5416 63.424C68.5118 61.963 68.1918 60.4557 67.291 59.2961ZM45.6559 105.168C45.3785 105.218 45.0862 105.272 44.9022 105.308C40.7564 106.297 41.1583 113.455 45.4307 113.888C52.2349 113.994 59.0416 113.979 65.8479 113.964C70.9544 113.952 76.0605 113.941 81.1653 113.981C82.9665 114.112 85.0209 113.579 85.8842 111.754C87.8865 108.91 85.1474 104.758 81.932 105.052C77.7194 105.055 73.5059 105.052 69.2921 105.049C61.5934 105.044 53.8938 105.038 46.1973 105.068C46.0581 105.094 45.8611 105.13 45.6559 105.168Z" fill="url(#paint1_linear_678_398)"/>
<defs>
<linearGradient id="paint0_linear_678_398" x1="64" y1="128" x2="64" y2="7" gradientUnits="userSpaceOnUse">
<stop stop-color="#FDA700"/>
<stop offset="1" stop-color="#FFDE00"/>
</linearGradient>
<linearGradient id="paint1_linear_678_398" x1="64.2828" y1="114" x2="63.8533" y2="58.0002" gradientUnits="userSpaceOnUse">
<stop stop-color="#02AA93"/>
<stop offset="1" stop-color="#67FF80"/>
</linearGradient>
</defs>
</svg>
