<svg width="24" height="24" viewBox="0 0 24 24" fill="none" xmlns="http://www.w3.org/2000/svg">
<path d="M20.6 3.2V20.8C20.6 22.021 19.621 23 18.4 23H5.2C3.979 23 3 22.021 3 20.8V3.2C3 2.61652 3.23178 2.05695 3.64437 1.64437C4.05695 1.23178 4.61652 1 5.2 1H18.4C18.9835 1 19.5431 1.23178 19.9556 1.64437C20.3682 2.05695 20.6 2.61652 20.6 3.2ZM18.4 13.6C18.4 13.3239 18.1761 13.1 17.9 13.1H5.7C5.42386 13.1 5.2 13.3239 5.2 13.6V20.3C5.2 20.5761 5.42386 20.8 5.7 20.8H17.9C18.1761 20.8 18.4 20.5761 18.4 20.3V13.6ZM18.4 3.7C18.4 3.42386 18.1761 3.2 17.9 3.2H5.7C5.42386 3.2 5.2 3.42386 5.2 3.7V10.4C5.2 10.6761 5.42386 10.9 5.7 10.9H17.9C18.1761 10.9 18.4 10.6761 18.4 10.4V3.7Z" fill="url(#paint0_linear_637_113)"/>
<path fill-rule="evenodd" clip-rule="evenodd" d="M14.6 9.54545H9.4C9.17909 9.54545 9 9.36637 9 9.14545V7.4C9 7.17909 9.17909 7 9.4 7H14.6C14.8209 7 15 7.17909 15 7.4V9.14545C15 9.36637 14.8209 9.54545 14.6 9.54545ZM14.6 16.4545H9.4C9.17909 16.4545 9 16.6336 9 16.8545V18.6C9 18.8209 9.17909 19 9.4 19H14.6C14.8209 19 15 18.8209 15 18.6V16.8545C15 16.6336 14.8209 16.4545 14.6 16.4545Z" fill="url(#paint1_linear_637_113)"/>
<defs>
<linearGradient id="paint0_linear_637_113" x1="3" y1="23" x2="25.5316" y2="15.1436" gradientUnits="userSpaceOnUse">
<stop stop-color="#0357D1"/>
<stop offset="1" stop-color="#27CDFC"/>
</linearGradient>
<linearGradient id="paint1_linear_637_113" x1="10.0875" y1="17.5833" x2="18.0934" y2="14.0907" gradientUnits="userSpaceOnUse">
<stop stop-color="#FE0844"/>
<stop offset="1" stop-color="#FEB302"/>
</linearGradient>
</defs>
</svg>
