<svg width="192" height="192" viewBox="0 0 192 192" fill="none" xmlns="http://www.w3.org/2000/svg">
<path d="M83.3737 23.5516C85.2057 22.8506 87.2358 23.046 89.1669 23C118.071 23.0689 146.963 22.9425 175.854 23.0575C184.854 23.0575 192.528 30.8832 191.971 39.1685C191.947 77.4811 192.021 115.782 191.934 154.083C191.897 161.955 184.42 168.93 175.953 169.045C146.17 169.114 116.387 169.057 86.6045 169.068C82.9652 169.298 79.5115 166.632 79.2268 163.231C78.6203 159.369 82.4329 155.623 86.6416 155.979C115.917 155.91 145.205 156.002 174.48 155.945C176.473 156.301 178.244 154.704 177.847 152.842C177.885 115.346 177.835 77.8374 177.872 40.3292C177.897 38.7663 177.971 36.1348 175.57 36.1807C145.539 35.9394 115.496 36.2727 85.478 36.0199C78.5212 35.7785 76.912 25.7924 83.3737 23.5516Z" fill="url(#paint0_linear)"/>
<path d="M55.5342 50.66C71.9854 46.0519 89.9591 47.6033 105.779 53.5788C123.716 60.3358 139.152 71.9997 151.481 85.7205C153.437 87.6511 154.699 90.5239 153.486 93.098C152.397 96.1777 148.795 97.3269 146.183 99.0506C126.377 110.289 104.244 120.092 80.539 119.873C62.1443 119.816 43.6754 110.393 35.456 94.8562C33.6859 92.0638 34.3791 88.2027 37.2138 86.2721C46.7206 79.1474 58.2327 74.0337 70.4752 72.8041C82.5939 71.5745 95.3191 73.9302 105.63 80.0667C110.235 82.7787 109.183 90.0758 103.959 91.5467C99.1812 93.144 95.5048 89.053 91.197 87.9843C77.8528 83.2039 62.5528 85.9273 50.9045 93.2359C58.4926 102.843 71.6759 107.393 84.2526 106.704C102.944 105.842 120.225 98.0394 136.094 89.4093C124.322 77.6075 109.579 67.8857 92.8557 63.2432C77.3948 59.0028 60.3123 61.1172 46.2254 68.2534C34.2429 74.183 24.0429 82.7672 15.0932 92.1672C21.6415 106.555 33.3888 119.23 48.7754 125.906C63.8897 132.502 81.3807 133.065 97.4977 129.779C120.423 125.136 141.727 115.357 161.631 104.061C165.865 101.234 172.463 104.383 172.488 109.198C172.896 112.84 169.529 115.219 166.459 116.69C140.613 130.939 112.265 143.362 81.7769 144.81C62.0701 145.637 41.831 140.11 26.5929 128.285C14.9817 119.402 6.16816 107.485 0.882482 94.4425C-0.318245 91.9374 -0.479168 88.8002 1.57569 86.6283C15.8606 70.7241 33.7601 56.5321 55.5342 50.66Z" fill="url(#paint1_linear)"/>
<defs>
<linearGradient id="paint0_linear" x1="135.582" y1="169.082" x2="135.582" y2="23" gradientUnits="userSpaceOnUse">
<stop stop-color="#02AA93"/>
<stop offset="1" stop-color="#67FF80"/>
</linearGradient>
<linearGradient id="paint1_linear" x1="86.2607" y1="144.891" x2="86.2607" y2="47.9755" gradientUnits="userSpaceOnUse">
<stop stop-color="#02AA93"/>
<stop offset="1" stop-color="#67FF80"/>
</linearGradient>
</defs>
</svg>
