<svg width="128" height="128" viewBox="0 0 128 128" fill="none" xmlns="http://www.w3.org/2000/svg">
<path fill-rule="evenodd" clip-rule="evenodd" d="M35.5556 5.11108C34.0821 5.11108 32.6691 5.6964 31.6272 6.73827C30.5853 7.78014 30 9.19321 30 10.6666V32C30 33.4734 30.5853 34.8865 31.6272 35.9283C32.6691 36.9702 34.0821 37.5555 35.5556 37.5555C37.029 37.5555 38.4421 36.9702 39.4839 35.9283C40.5258 34.8865 41.1111 33.4734 41.1111 32V10.6666C41.1111 9.19321 40.5258 7.78014 39.4839 6.73827C38.4421 5.6964 37.029 5.11108 35.5556 5.11108ZM22.889 19.3334H13.3168L13.3001 19.3337C12.2063 19.3519 11.1268 19.5855 10.1232 20.0211C9.11971 20.4566 8.21182 21.0856 7.45142 21.872C6.69101 22.6585 6.09299 23.5871 5.69151 24.6047C5.29226 25.6167 5.09515 26.6971 5.11127 27.7848V107.326C5.09515 108.414 5.29226 109.494 5.69151 110.506C6.09299 111.524 6.69101 112.453 7.45142 113.239C8.21182 114.026 9.11972 114.655 10.1232 115.09C11.1268 115.526 12.2063 115.759 13.3001 115.778L13.3168 115.778H114.684L114.7 115.778C115.794 115.759 116.874 115.526 117.877 115.09C118.881 114.655 119.788 114.026 120.549 113.239C121.309 112.453 121.907 111.524 122.309 110.506C122.708 109.494 122.905 108.414 122.889 107.326V47.4973C122.889 44.2594 119.437 42.6088 116.877 43.7672C116.133 44.1038 115.373 44.4031 114.599 44.6639C112.996 45.2039 111.778 46.7045 111.778 48.5304V104.667H16.2224V30.4445L22.889 30.4445C25.0982 30.4445 26.889 28.6536 26.889 26.4445V23.3334C26.889 21.1242 25.0982 19.3334 22.889 19.3334ZM48.2222 19.3334C46.013 19.3334 44.2222 21.1242 44.2222 23.3334V26.4445C44.2222 28.6536 46.013 30.4445 48.2222 30.4445H78.355C81.0599 30.4445 82.8002 27.9159 82.3767 25.5229C82.2386 24.7428 82.1382 23.9563 82.076 23.1663C81.9148 21.1227 80.2455 19.3334 78.0077 19.3334H48.2222ZM28 42C25.7909 42 24 43.7909 24 46V54C24 56.2091 25.7909 58 28 58H36C38.2091 58 40 56.2091 40 54V46C40 43.7909 38.2091 42 36 42H28ZM49.3335 42C47.1244 42 45.3335 43.7909 45.3335 46V54C45.3335 56.2091 47.1244 58 49.3335 58H57.3335C59.5426 58 61.3335 56.2091 61.3335 54V46C61.3335 43.7909 59.5426 42 57.3335 42H49.3335ZM70.6667 42C68.4576 42 66.6667 43.7909 66.6667 46V54C66.6667 56.2091 68.4576 58 70.6667 58H78.6667C80.8759 58 82.6667 56.2091 82.6667 54V46C82.6667 43.7909 80.8759 42 78.6667 42H70.6667ZM92 42C89.7909 42 88 43.7909 88 46V54C88 56.2091 89.7909 58 92 58H100C102.209 58 104 56.2091 104 54V46C104 43.7909 102.209 42 100 42H92ZM28 59.7777C25.7909 59.7777 24 61.5686 24 63.7777V71.7777C24 73.9868 25.7909 75.7777 28 75.7777H36C38.2091 75.7777 40 73.9868 40 71.7777V63.7777C40 61.5686 38.2091 59.7777 36 59.7777H28ZM49.3335 59.7777C47.1244 59.7777 45.3335 61.5686 45.3335 63.7777V71.7777C45.3335 73.9868 47.1244 75.7777 49.3335 75.7777H57.3335C59.5426 75.7777 61.3335 73.9868 61.3335 71.7777V63.7777C61.3335 61.5686 59.5426 59.7777 57.3335 59.7777H49.3335ZM70.6667 59.7777C68.4576 59.7777 66.6667 61.5686 66.6667 63.7777V71.7777C66.6667 73.9868 68.4576 75.7777 70.6667 75.7777H78.6667C80.8759 75.7777 82.6667 73.9868 82.6667 71.7777V63.7777C82.6667 61.5686 80.8759 59.7777 78.6667 59.7777H70.6667ZM92 59.7777C89.7909 59.7777 88 61.5686 88 63.7777V71.7777C88 73.9868 89.7909 75.7777 92 75.7777H100C102.209 75.7777 104 73.9868 104 71.7777V63.7777C104 61.5686 102.209 59.7777 100 59.7777H92ZM28 77.5555C25.7909 77.5555 24 79.3464 24 81.5555V89.5555C24 91.7647 25.7909 93.5555 28 93.5555H36C38.2091 93.5555 40 91.7647 40 89.5555V81.5555C40 79.3464 38.2091 77.5555 36 77.5555H28ZM49.3335 77.5555C47.1244 77.5555 45.3335 79.3464 45.3335 81.5555V89.5555C45.3335 91.7647 47.1244 93.5555 49.3335 93.5555H57.3335C59.5426 93.5555 61.3335 91.7647 61.3335 89.5555V81.5555C61.3335 79.3464 59.5426 77.5555 57.3335 77.5555H49.3335ZM70.6667 77.5555C68.4576 77.5555 66.6667 79.3464 66.6667 81.5555V89.5555C66.6667 91.7647 68.4576 93.5555 70.6667 93.5555H78.6667C80.8759 93.5555 82.6667 91.7647 82.6667 89.5555V81.5555C82.6667 79.3464 80.8759 77.5555 78.6667 77.5555H70.6667ZM92 77.5555C89.7909 77.5555 88 79.3464 88 81.5555V89.5555C88 91.7647 89.7909 93.5555 92 93.5555H100C102.209 93.5555 104 91.7647 104 89.5555V81.5555C104 79.3464 102.209 77.5555 100 77.5555H92Z" fill="url(#paint0_linear)"/>
<path d="M106.667 39.1111C116.485 39.1111 124.444 31.1517 124.444 21.3333C124.444 11.5149 116.485 3.55554 106.667 3.55554C96.8483 3.55554 88.8889 11.5149 88.8889 21.3333C88.8889 31.1517 96.8483 39.1111 106.667 39.1111Z" fill="url(#paint1_linear)"/>
<defs>
<linearGradient id="paint0_linear" x1="64.0002" y1="115.778" x2="64.0002" y2="5.11108" gradientUnits="userSpaceOnUse">
<stop stop-color="#A93AFF"/>
<stop offset="1" stop-color="#FF81FF"/>
</linearGradient>
<linearGradient id="paint1_linear" x1="106.667" y1="39.1111" x2="106.667" y2="3.55554" gradientUnits="userSpaceOnUse">
<stop stop-color="#FD5900"/>
<stop offset="1" stop-color="#FFDE00"/>
</linearGradient>
</defs>
</svg>
