<svg width="64" height="64" viewBox="0 0 64 64" fill="none" xmlns="http://www.w3.org/2000/svg">
<path d="M39.2001 16.4C44.7166 16.4 50.0071 18.5914 53.9079 22.4921C57.8086 26.3929 60.0001 31.6835 60.0001 37.2C60.0001 42.7165 57.8086 48.007 53.9079 51.9078C50.0071 55.8085 44.7166 58 39.2001 58H35.7334V57.6885V54.1677V20.2187V16.6979V16.6979C35.7334 16.5333 35.8668 16.4 36.0313 16.4H39.2001ZM41.1958 19.9818C40.0985 19.8547 39.2001 20.7621 39.2001 21.8666V52.5333C39.2001 53.6379 40.0985 54.5452 41.1958 54.4181C45.0581 53.9705 48.6799 52.2332 51.4566 49.4565C54.7072 46.2059 56.5334 41.7971 56.5334 37.2C56.5334 32.6029 54.7072 28.1941 51.4566 24.9434C48.6799 22.1667 45.0581 20.4294 41.1958 19.9818Z" fill="url(#paint0_linear_588_294)" stroke="url(#paint1_linear_588_294)" stroke-width="2"/>
<path d="M25.8 6C20.2835 6 14.9929 8.19142 11.0922 12.0922C7.19142 15.9929 5 21.2835 5 26.8C5 32.3165 7.19142 37.6071 11.0922 41.5078C14.9929 45.4086 20.2835 47.6 25.8 47.6H28.9552C29.1272 47.6 29.2667 47.4606 29.2667 47.2885V47.2885V43.7677V9.81875V6.29792V6.29792C29.2667 6.13338 29.1333 6 28.9688 6H25.8ZM23.8043 9.58188C24.9015 9.45473 25.8 10.3621 25.8 11.4667V42.1333C25.8 43.2379 24.9015 44.1453 23.8043 44.0181C19.942 43.5706 16.3202 41.8332 13.5435 39.0565C10.2929 35.8059 8.46667 31.3971 8.46667 26.8C8.46667 22.2029 10.2929 17.7941 13.5435 14.5435C16.3202 11.7668 19.942 10.0294 23.8043 9.58188Z" fill="url(#paint2_linear_588_294)" stroke="url(#paint3_linear_588_294)" stroke-width="2"/>
<defs>
<linearGradient id="paint0_linear_588_294" x1="35.7298" y1="36.5836" x2="59.9948" y2="36.5836" gradientUnits="userSpaceOnUse">
<stop stop-color="#FD3A84"/>
<stop offset="1" stop-color="#FFA68D"/>
</linearGradient>
<linearGradient id="paint1_linear_588_294" x1="35.7298" y1="36.5836" x2="59.9948" y2="36.5836" gradientUnits="userSpaceOnUse">
<stop stop-color="#FD3A84"/>
<stop offset="1" stop-color="#FFA68D"/>
</linearGradient>
<linearGradient id="paint2_linear_588_294" x1="17.1333" y1="47.6" x2="17.1333" y2="6" gradientUnits="userSpaceOnUse">
<stop stop-color="#5570FF"/>
<stop offset="1" stop-color="#4DD3FF"/>
</linearGradient>
<linearGradient id="paint3_linear_588_294" x1="17.1333" y1="47.6" x2="17.1333" y2="6" gradientUnits="userSpaceOnUse">
<stop stop-color="#5570FF"/>
<stop offset="1" stop-color="#4DD3FF"/>
</linearGradient>
</defs>
</svg>
