<svg width="48" height="48" viewBox="0 0 48 48" fill="none" xmlns="http://www.w3.org/2000/svg">
<path d="M19 31C21.5 34.5 29 38 35 33M12 8.00002C8.948 12.517 6.013 13.81 4 13C4.543 14.833 8.443 17.375 10.927 18.838C11.997 19.468 12.31 20.903 11.565 21.897C10.202 23.717 8.315 26.289 8 27C0.954 39.79 16.482 44.648 24 44C46.144 42.092 45.355 24.803 42 18C33.948 31.994 21.519 23.915 22 21C22.481 18.085 25.792 18.665 27 14C29.013 4.76801 16.374 0.399016 12 8.00002Z" stroke="url(#paint0_linear_610_6)" stroke-width="4" stroke-linecap="round" stroke-linejoin="round"/>
<path d="M17 14C18.1046 14 19 13.1046 19 12C19 10.8954 18.1046 10 17 10C15.8954 10 15 10.8954 15 12C15 13.1046 15.8954 14 17 14Z" fill="url(#paint1_linear_610_6)"/>
<defs>
<linearGradient id="paint0_linear_610_6" x1="11.2095" y1="39.3411" x2="47.2089" y2="8.06262" gradientUnits="userSpaceOnUse">
<stop stop-color="#FE0844"/>
<stop offset="1" stop-color="#FEB302"/>
</linearGradient>
<linearGradient id="paint1_linear_610_6" x1="15.725" y1="13.5278" x2="19.332" y2="10.3806" gradientUnits="userSpaceOnUse">
<stop stop-color="#FE0844"/>
<stop offset="1" stop-color="#FEB302"/>
</linearGradient>
</defs>
</svg>
