<svg width="16" height="16" viewBox="0 0 16 16" fill="none" xmlns="http://www.w3.org/2000/svg">
<path d="M6.25 1C6.25 1 7.125 2.75 7.125 3.625C7.125 5.375 4.5 6.25 3.625 7.125C2.5938 8.1562 1 8.875 1 10.625C1 11.5 1.875 12.375 3.625 13.25C5.83859 14.3568 8.875 15 8.875 15C8.875 15 5.375 14.125 5.375 12.375C5.375 10.625 6.20267 9.79733 7.125 8.875C8 8 9.75 6.25 9.75 5.375C9.75 2.75 6.25 1 6.25 1ZM10.625 5.375V6.25C10.625 6.25 10.625 8 9.75 8.875C8.875 9.75 7.125 10.625 7.125 11.5C7.125 12.375 8.875 13.25 8.875 13.25V12.375C8.875 12.375 9.88139 10.4936 10.625 9.75C11.5 8.875 12.375 8.875 12.375 7.125C12.375 6.25 10.625 5.375 10.625 5.375ZM13.25 7.57617C13.25 7.57617 13.25 9.75 12.375 10.625C11.5 11.5 9.75 14.125 9.75 14.125C9.75 14.125 12.6313 12.9937 13.25 12.375C14.125 11.5 15 10.625 15 9.75C15 8.875 13.25 7.57617 13.25 7.57617Z" fill="url(#paint0_linear_457:37)"/>
<defs>
<linearGradient id="paint0_linear_457:37" x1="8" y1="15" x2="8" y2="1" gradientUnits="userSpaceOnUse">
<stop stop-color="#FD2E00"/>
<stop offset="1" stop-color="#FF9900"/>
</linearGradient>
</defs>
</svg>
