<svg width="512" height="512" viewBox="0 0 512 512" fill="none" xmlns="http://www.w3.org/2000/svg">
<g clip-path="url(#clip0)">
<path d="M497 181.006H452V46.006C452 34.859 440.227 27.62 430.291 32.588L191.455 151.006H45C20.186 151.006 0 171.192 0 196.006V286.006C0 310.82 20.186 331.006 45 331.006H60V466.006C60 474.297 66.709 481.006 75 481.006H135C142.148 481.006 148.301 475.952 149.707 468.95L177.296 331.006H191.456L430.292 449.424C440.355 454.421 452.001 447.066 452.001 436.006V301.006H497.001C505.292 301.006 512.001 294.297 512.001 286.006V196.006C512 187.715 505.291 181.006 497 181.006V181.006ZM122.71 451.006H90V331.006H146.704L122.71 451.006ZM180 301.006H45C36.724 301.006 30 294.282 30 286.006V196.006C30 187.73 36.724 181.006 45 181.006H180V301.006ZM422 411.734L210 306.734V175.279L422 70.279V411.734ZM482 271.006H452V211.006H482V271.006Z" fill="url(#paint0_linear)"/>
</g>
<defs>
<linearGradient id="paint0_linear" x1="0" y1="481.006" x2="590.058" y2="188.4" gradientUnits="userSpaceOnUse">
<stop stop-color="#0357D1"/>
<stop offset="1" stop-color="#27CDFC"/>
</linearGradient>
<clipPath id="clip0">
<rect width="512" height="512" fill="white"/>
</clipPath>
</defs>
</svg>
