<svg width="256" height="256" viewBox="0 0 256 256" fill="none" xmlns="http://www.w3.org/2000/svg">
<path d="M223.274 189.326C220.355 190.878 217.35 192.257 214.259 193.377C204.385 197.083 193.996 198.978 183.435 198.978C142.824 198.978 107.45 170.971 107.45 134.948C107.536 125.124 112.945 116.075 121.531 111.421C84.7834 112.973 75.3389 151.408 75.3389 173.901C75.3389 237.586 133.809 244.05 146.43 244.05C153.213 244.05 163.43 242.067 169.612 240.085L170.728 239.741C194.425 231.554 214.516 215.525 227.91 194.239C228.941 192.601 228.425 190.533 226.88 189.499C225.764 188.809 224.39 188.723 223.274 189.326Z" stroke="url(#paint0_linear)" stroke-width="16"/>
<path d="M104.122 233.399C96.19 228.677 89.3274 222.41 83.8908 215.113C60.4509 184.207 67.4917 140.853 99.5768 118.274C102.964 115.956 106.439 113.81 110.183 112.093C112.946 110.805 117.669 108.573 123.997 108.659C132.999 108.745 141.466 112.866 146.902 119.82C150.467 124.456 152.517 130.036 152.606 135.874C152.606 135.702 174.442 67.5372 81.3061 67.5372C42.1802 67.5372 10.0061 103.337 10.0061 134.672C9.82781 151.241 13.5711 167.724 20.7902 182.747C45.3887 233.227 105.281 257.952 160.182 240.353C141.376 246.019 120.878 243.529 104.122 233.399Z" stroke="url(#paint1_linear)" stroke-width="16"/>
<path d="M150.397 147.073C149.66 147.994 147.355 149.374 147.355 152.32C147.355 154.714 148.922 157.015 151.688 158.948C164.962 168.154 189.944 166.957 190.037 166.957C199.9 166.957 209.488 164.288 217.969 159.317C235.299 149.19 245.993 130.687 245.993 110.618C246.269 89.9976 238.618 76.2811 235.576 70.2053C216.033 32.0016 173.812 10 127.996 10C63.4671 10 10.9218 61.7361 10 126.176C10.4609 92.5752 43.924 65.4184 83.7477 65.4184C86.9742 65.4184 105.411 65.6945 122.465 74.7161C137.491 82.633 145.419 92.1149 150.858 101.597C156.574 111.447 157.588 123.783 157.588 128.754C157.588 133.633 155.099 140.997 150.397 147.073Z" stroke="url(#paint2_linear)" stroke-width="16"/>
<defs>
<linearGradient id="paint0_linear" x1="183" y1="231" x2="103" y2="123" gradientUnits="userSpaceOnUse">
<stop stop-color="#263CFF"/>
<stop offset="1" stop-color="#4BC0FE"/>
</linearGradient>
<linearGradient id="paint1_linear" x1="144" y1="246" x2="129.999" y2="155.99" gradientUnits="userSpaceOnUse">
<stop stop-color="#263CFF"/>
<stop offset="1" stop-color="#46B8F5"/>
</linearGradient>
<linearGradient id="paint2_linear" x1="44.5616" y1="144.015" x2="162.434" y2="16.6967" gradientUnits="userSpaceOnUse">
<stop stop-color="#36B9FF"/>
<stop offset="1" stop-color="#00FFE0"/>
</linearGradient>
</defs>
</svg>
