<svg width="128" height="128" viewBox="0 0 128 128" fill="none" xmlns="http://www.w3.org/2000/svg">
<path fill-rule="evenodd" clip-rule="evenodd" d="M99.9958 40.8125H114.023C116.341 40.8125 118.223 42.2816 118.223 44.0937V116.719C118.223 118.531 116.341 120 114.023 120H13.2009C10.8809 120 9 118.531 9 116.719V44.0937C9 42.2816 10.8809 40.8125 13.2009 40.8125H27.2277C28.7612 40.8125 30.0045 39.5693 30.0045 38.0356V24.4062C30.0045 23.5194 30.4668 22.686 31.235 22.0859L48.0387 8.96097C48.8264 8.34563 49.8949 8 51.0089 8H76.2143C77.3286 8 78.397 8.34563 79.1845 8.96097L95.9882 22.0859C96.7897 22.712 97.219 23.5553 97.219 24.4062V38.0356C97.219 39.5693 98.4621 40.8125 99.9958 40.8125ZM53.7048 14.5625C53.0853 14.5625 52.4837 14.7696 51.9955 15.151L50.704 16.1597C48.6225 17.7856 49.7722 21.125 52.4133 21.125H74.8097C77.4509 21.125 78.6005 17.7855 76.5191 16.1597L75.2275 15.151C74.7394 14.7696 74.1377 14.5625 73.5182 14.5625H53.7048ZM88.8169 30.4643C88.8169 28.9308 87.5736 27.6875 86.0401 27.6875H83.1919C81.6584 27.6875 80.4151 28.9308 80.4151 30.4643V51.1606C80.4151 52.6943 81.6584 53.9375 83.1919 53.9375H86.0401C87.5736 53.9375 88.8169 52.6943 88.8169 51.1606V30.4643ZM72.0134 30.4643C72.0134 28.9308 70.7701 27.6875 69.2366 27.6875H57.9866C56.453 27.6875 55.2097 28.9308 55.2097 30.4643V38.0356C55.2097 39.5693 56.453 40.8125 57.9866 40.8125H69.2366C70.7701 40.8125 72.0134 39.5693 72.0134 38.0356V30.4643ZM41.1831 27.6875C39.6495 27.6875 38.4062 28.9308 38.4062 30.4643V51.1606C38.4062 52.6943 39.6495 53.9375 41.1831 53.9375H44.0312C45.5648 53.9375 46.808 52.6943 46.808 51.1606V30.4643C46.808 28.9308 45.5648 27.6875 44.0312 27.6875H41.1831ZM107.045 113.437C108.578 113.437 109.822 112.194 109.822 110.66V50.1519C109.822 48.6182 108.578 47.375 107.045 47.375H99.9958C98.4621 47.375 97.219 48.6182 97.219 50.1519V57.2187C97.219 59.0309 95.3377 60.5 93.0178 60.5H76.2143C73.8943 60.5 72.0134 59.0309 72.0134 57.2187V50.1519C72.0134 48.6182 70.7701 47.375 69.2366 47.375H57.9866C56.453 47.375 55.2097 48.6182 55.2097 50.1519V57.2187C55.2097 59.0309 53.3289 60.5 51.0089 60.5H34.2054C31.8854 60.5 30.0045 59.0309 30.0045 57.2187V50.1519C30.0045 48.6182 28.7612 47.375 27.2277 47.375H20.1787C18.6451 47.375 17.4019 48.6182 17.4019 50.1519V110.66C17.4019 112.194 18.6451 113.437 20.1787 113.437H107.045Z" fill="url(#paint0_linear_674_264)" stroke="url(#paint1_linear_674_264)" stroke-width="3"/>
<path d="M65.4798 66.4628L58.4956 67.1313V95.8923L65.4063 94.8528V82.5906L74.6952 96.1915L81.9787 93.8868L72.4657 80.8057L82.0539 68.4683L74.6217 66.7603L65.4081 79.0977L65.4798 66.4628Z" fill="url(#paint2_linear_674_264)"/>
<path d="M49.6477 73.4715C49.5661 73.4801 49.4901 73.5166 49.4325 73.5747L46.692 76.3152C46.6361 76.3714 46.6005 76.4445 46.5911 76.5232C46.5815 76.6017 46.5986 76.6814 46.6395 76.7492L49.849 82.0376C49.2742 83.0045 48.8204 84.0383 48.4979 85.1159L42.6058 86.3408C42.5256 86.3574 42.4537 86.401 42.402 86.4645C42.3503 86.5279 42.3222 86.6073 42.3223 86.6891V90.5653C42.3223 90.7281 42.4343 90.8699 42.5936 90.9083L48.3125 92.3083C48.6117 93.5521 49.0835 94.7478 49.7142 95.8608L46.4032 100.908C46.3591 100.976 46.3396 101.057 46.3482 101.139C46.3568 101.219 46.3929 101.295 46.4505 101.352L49.1909 104.095C49.2474 104.15 49.3209 104.186 49.3998 104.196C49.4788 104.204 49.5587 104.188 49.6267 104.147L54.8137 100.997C55.8322 101.585 56.9312 102.047 58.0931 102.362L59.3041 108.181C59.3391 108.346 59.4826 108.463 59.6506 108.463H63.5268C63.6064 108.463 63.6838 108.436 63.7463 108.387C63.8089 108.337 63.8531 108.268 63.8716 108.192L65.2978 102.36C66.4804 102.04 67.6147 101.563 68.67 100.941L73.7835 104.292C73.9235 104.385 74.1089 104.366 74.2279 104.247L76.9702 101.506C77.0263 101.451 77.0621 101.377 77.0716 101.298C77.0811 101.219 77.0639 101.14 77.0226 101.072L75.1555 97.9957L74.5517 98.1882C74.5087 98.2014 74.4626 98.2014 74.42 98.1865C74.3775 98.1716 74.3408 98.1436 74.3155 98.106L71.5872 94.1125C70.7803 95.6945 69.6059 97.0595 68.1627 98.0928C66.7194 99.1271 65.0492 99.8008 63.2921 100.056C61.5351 100.311 59.7424 100.142 58.0643 99.562C56.3862 98.9819 54.8716 98.008 53.6477 96.7218C52.4236 95.4355 51.5257 93.8747 51.0294 92.1699C50.5329 90.4652 50.4523 88.6664 50.7945 86.9242C51.1367 85.1819 51.8916 83.547 52.9959 82.1566C54.1001 80.7663 55.5216 79.6609 57.1411 78.9331V76.0667C56.4394 76.3117 55.7586 76.6092 55.1129 76.961L55.1112 76.9575L49.8787 73.5275C49.8107 73.4822 49.7291 73.4618 49.6477 73.4698V73.4715Z" fill="url(#paint3_linear_674_264)"/>
<path d="M65.4798 66.4628L58.4956 67.1313V95.8923L65.4063 94.8528V82.5906L74.6952 96.1915L81.9787 93.8868L72.4657 80.8057L82.0539 68.4683L74.6217 66.7603L65.4081 79.0977L65.4798 66.4628Z" stroke="url(#paint4_linear_674_264)" stroke-width="2"/>
<path d="M49.6477 73.4715C49.5661 73.4801 49.4901 73.5166 49.4325 73.5747L46.692 76.3152C46.6361 76.3714 46.6005 76.4445 46.5911 76.5232C46.5815 76.6017 46.5986 76.6814 46.6395 76.7492L49.849 82.0376C49.2742 83.0045 48.8204 84.0383 48.4979 85.1159L42.6058 86.3408C42.5256 86.3574 42.4537 86.401 42.402 86.4645C42.3503 86.5279 42.3222 86.6073 42.3223 86.6891V90.5653C42.3223 90.7281 42.4343 90.8699 42.5936 90.9083L48.3125 92.3083C48.6117 93.5521 49.0835 94.7478 49.7142 95.8608L46.4032 100.908C46.3591 100.976 46.3396 101.057 46.3482 101.139C46.3568 101.219 46.3929 101.295 46.4505 101.352L49.1909 104.095C49.2474 104.15 49.3209 104.186 49.3998 104.196C49.4788 104.204 49.5587 104.188 49.6267 104.147L54.8137 100.997C55.8322 101.585 56.9312 102.047 58.0931 102.362L59.3041 108.181C59.3391 108.346 59.4826 108.463 59.6506 108.463H63.5268C63.6064 108.463 63.6838 108.436 63.7463 108.387C63.8089 108.337 63.8531 108.268 63.8716 108.192L65.2978 102.36C66.4804 102.04 67.6147 101.563 68.67 100.941L73.7835 104.292C73.9235 104.385 74.1089 104.366 74.2279 104.247L76.9702 101.506C77.0263 101.451 77.0621 101.377 77.0716 101.298C77.0811 101.219 77.0639 101.14 77.0226 101.072L75.1555 97.9957L74.5517 98.1882C74.5087 98.2014 74.4626 98.2014 74.42 98.1865C74.3775 98.1716 74.3408 98.1436 74.3155 98.106L71.5872 94.1125C70.7803 95.6945 69.6059 97.0595 68.1627 98.0928C66.7194 99.1271 65.0492 99.8008 63.2921 100.056C61.5351 100.311 59.7424 100.142 58.0643 99.562C56.3862 98.9819 54.8716 98.008 53.6477 96.7218C52.4236 95.4355 51.5257 93.8747 51.0294 92.1699C50.5329 90.4652 50.4523 88.6664 50.7945 86.9242C51.1367 85.1819 51.8916 83.547 52.9959 82.1566C54.1001 80.7663 55.5216 79.6609 57.1411 78.9331V76.0667C56.4394 76.3117 55.7586 76.6092 55.1129 76.961L55.1112 76.9575L49.8787 73.5275C49.8107 73.4822 49.7291 73.4618 49.6477 73.4698V73.4715Z" stroke="url(#paint5_linear_674_264)" stroke-width="2"/>
<defs>
<linearGradient id="paint0_linear_674_264" x1="43.5" y1="99" x2="63.6116" y2="8" gradientUnits="userSpaceOnUse">
<stop stop-color="#0057FF"/>
<stop offset="0.752844" stop-color="#00E0E0"/>
</linearGradient>
<linearGradient id="paint1_linear_674_264" x1="43.5" y1="99" x2="63.6116" y2="8" gradientUnits="userSpaceOnUse">
<stop stop-color="#0057FF"/>
<stop offset="0.752844" stop-color="#00E0E0"/>
</linearGradient>
<linearGradient id="paint2_linear_674_264" x1="43.4356" y1="99.1109" x2="62.4471" y2="13.0883" gradientUnits="userSpaceOnUse">
<stop stop-color="#0057FF"/>
<stop offset="0.752844" stop-color="#00E0E0"/>
</linearGradient>
<linearGradient id="paint3_linear_674_264" x1="43.4356" y1="99.1109" x2="62.4471" y2="13.0883" gradientUnits="userSpaceOnUse">
<stop stop-color="#0057FF"/>
<stop offset="0.752844" stop-color="#00E0E0"/>
</linearGradient>
<linearGradient id="paint4_linear_674_264" x1="43.4356" y1="99.1109" x2="62.4471" y2="13.0883" gradientUnits="userSpaceOnUse">
<stop stop-color="#0057FF"/>
<stop offset="0.752844" stop-color="#00E0E0"/>
</linearGradient>
<linearGradient id="paint5_linear_674_264" x1="43.4356" y1="99.1109" x2="62.4471" y2="13.0883" gradientUnits="userSpaceOnUse">
<stop stop-color="#0057FF"/>
<stop offset="0.752844" stop-color="#00E0E0"/>
</linearGradient>
</defs>
</svg>
