<svg width="64" height="64" viewBox="0 0 64 64" fill="none" xmlns="http://www.w3.org/2000/svg">
<g clip-path="url(#clip0)">
<path d="M32.1931 32.5012C38.7664 43.821 35.7384 65.3527 24.263 59.0802C20.9076 57.2434 19.5983 55.3128 19.3766 53.5092C17.615 54.2311 15.1952 54.1261 11.8317 52.2937C-0.912756 45.3318 18.5453 32.7745 32.1851 32.5055" stroke="url(#paint0_linear)" stroke-width="5"/>
<path d="M32.1917 32.5011C32.6535 32.4919 33.1207 32.4678 33.5915 32.4296C47.0373 31.3369 63.6454 18.7661 52.5533 12.7119C49.1949 10.8807 46.7727 10.7731 45.0118 11.4931C44.7912 9.68872 43.4846 7.75839 40.1258 5.91855C27.9474 -0.734906 25.7965 19.266 31.3655 30.925C31.624 31.466 31.513 32.0499 31.8044 32.5516" stroke="url(#paint1_linear)" stroke-width="5"/>
<path d="M31.7487 32.6118C32.0376 45.5249 46.0388 62.7398 52.6616 51.8779C54.597 48.6999 54.7107 46.4087 53.9496 44.7417C55.8566 44.5334 57.8967 43.2976 59.8414 40.1196C67.1995 28.0607 43.7128 26.3915 31.7578 32.6115" stroke="url(#paint2_linear)" stroke-width="5"/>
<path d="M31.7498 32.6115C19.7871 38.832 -2.96989 35.9669 3.6593 25.1089C5.60136 21.933 7.64189 20.6944 9.54801 20.4858C8.78501 18.8183 8.89609 16.5286 10.8326 13.3463C18.1907 1.28761 31.4608 19.6984 31.7473 32.6053" stroke="url(#paint3_linear)" stroke-width="5"/>
<path d="M31.9206 31.4229C31.8489 31.427 31.7778 31.4308 31.7069 31.4335C31.7075 31.4595 31.7108 31.4866 31.711 31.5129L31.7135 31.5192H31.7242C31.7882 31.4861 31.8563 31.4557 31.9206 31.4229ZM31.7135 31.5192C28.0636 33.4221 23.41 34.4643 18.8922 34.6999C9.55245 38.9654 3.06038 46.4228 11.826 51.2241C15.1844 53.0587 17.6006 53.1639 19.3595 52.4412C19.5809 54.247 20.8867 56.1795 24.2371 58.0182C32.0178 62.2828 35.896 53.7085 35.5376 44.2188C33.3198 40.2533 31.8061 35.6691 31.7135 31.5192Z" stroke="url(#paint4_linear)" stroke-width="5"/>
<path d="M31.7679 31.5536C19.7978 37.7858 -2.97327 34.9152 3.66004 24.0372C5.60328 20.8555 7.6451 19.6146 9.55238 19.4057C8.78894 17.735 8.9001 15.4412 10.8378 12.253C18.2004 0.172195 31.4789 18.6169 31.7657 31.5474" stroke="url(#paint5_linear)" stroke-width="5"/>
<path d="M36.0147 3.53517C30.8859 3.25229 28.4945 9.16671 28.4495 16.1379C28.7915 8.01406 32.4952 1.75937 40.1272 5.91909C43.495 7.75949 44.8066 9.69053 45.0277 11.4955C46.7933 10.7752 49.2209 10.8838 52.5885 12.7156C54.9153 13.9826 56.0151 15.5348 56.1942 17.2077C56.437 15.1306 55.4048 13.1772 52.5885 11.6438C49.2209 9.81194 46.7933 9.70547 45.0277 10.4257C44.8066 8.62081 43.495 6.68977 40.1272 4.84936C38.6008 4.01742 37.2315 3.60229 36.0147 3.53517Z" stroke="url(#paint6_linear)" stroke-width="5"/>
<path d="M31.7149 31.5195L31.7127 31.5132C31.7121 31.4869 31.7088 31.4595 31.7083 31.4335C31.7791 31.4308 31.8506 31.427 31.9222 31.4229C31.8577 31.4557 31.7896 31.4861 31.7258 31.5195H31.7149ZM31.7149 31.5195C28.0636 33.4283 23.4084 34.4735 18.8889 34.7097C12.37 37.6949 7.24533 42.2389 7.71665 46.349C8.14229 42.5394 12.9335 38.5106 18.8889 35.7836C23.4084 35.5474 28.0636 34.5022 31.7149 32.5934V31.5195ZM31.7149 31.5195C31.722 31.8435 31.7525 32.1744 31.7764 32.503C31.7539 32.5044 31.7308 32.5066 31.7083 32.5074C31.7088 32.5337 31.7121 32.5608 31.7127 32.5871L31.7149 32.5934V31.5195ZM31.7149 32.5934C31.8077 36.7561 33.322 41.3543 35.5403 45.3318C35.5516 45.6287 35.5463 45.9219 35.5491 46.2167C35.5648 45.5699 35.5653 44.9174 35.5403 44.2579C33.5055 40.6096 32.0774 36.4434 31.7811 32.566C31.7627 32.5752 31.7437 32.5841 31.7258 32.5934H31.7149Z" stroke="url(#paint7_linear)" stroke-width="5"/>
<path d="M47.8626 28.0469C42.3691 28.029 36.2635 29.2502 31.7791 31.5775H31.7679C31.7758 31.9224 31.8006 32.2715 31.8275 32.6218C41.9804 27.3833 60.3558 27.7942 61.2301 35.3665C61.6834 30.4054 55.3512 28.0719 47.8626 28.0469ZM54.2948 44.6907C54.1888 44.7086 54.0816 44.7357 53.9767 44.7471C54.1846 45.2014 54.3206 45.7077 54.3786 46.2603C54.4261 45.6917 54.3953 45.1699 54.2948 44.6907Z" stroke="url(#paint8_linear)" stroke-width="5"/>
<path d="M31.7679 31.5805C32.0568 44.4781 46.055 61.6724 52.6764 50.8233C54.6115 47.6493 54.7249 45.3605 53.9641 43.6954C55.8706 43.4877 57.9104 42.2533 59.8545 39.0793C67.211 27.0351 43.7296 25.3674 31.7769 31.5799" stroke="url(#paint9_linear)" stroke-width="5"/>
<path d="M32.1948 31.4614C32.6573 31.4519 33.1248 31.4281 33.5967 31.3898C47.0642 30.2961 63.6995 17.7118 52.5893 11.6512C49.2253 9.81794 46.7994 9.71023 45.0357 10.431C44.8148 8.62475 43.5057 6.69233 40.1417 4.85057C27.9433 -1.80998 25.7889 18.2121 31.3671 29.8837C31.6262 30.4252 31.5149 31.0099 31.8066 31.5116" stroke="url(#paint10_linear)" stroke-width="5"/>
<path d="M16.3124 8.32985C14.3324 8.42848 12.4385 9.61164 10.827 12.2565C9.42138 14.5696 8.98368 16.4079 9.13621 17.8836C9.2435 16.6111 9.74198 15.1142 10.827 13.3287C17.9995 1.5573 30.7755 18.7419 31.7105 31.6005C31.7289 31.5911 31.7492 31.5829 31.7679 31.5734L31.7657 31.5672C31.5416 21.4568 23.3841 7.97764 16.3124 8.32985ZM9.2202 19.471C7.40403 19.7792 5.48082 21.0431 3.64408 24.051C2.69531 25.6071 2.36537 26.9931 2.50145 28.2183C2.60576 27.2702 2.96199 26.2421 3.64408 25.1233C5.58852 21.939 7.63221 20.6958 9.54067 20.4867C9.39729 20.1729 9.29563 19.8305 9.2202 19.471Z" stroke="url(#paint11_linear)" stroke-width="5"/>
</g>
<defs>
<linearGradient id="paint0_linear" x1="7.68586" y1="46.3523" x2="35.6167" y2="46.3523" gradientUnits="userSpaceOnUse">
<stop stop-color="#5433FF"/>
<stop offset="0.517391" stop-color="#00C1FE"/>
<stop offset="0.982609" stop-color="#39DBFF"/>
</linearGradient>
<linearGradient id="paint1_linear" x1="42.3197" y1="32.5516" x2="42.3197" y2="4.59484" gradientUnits="userSpaceOnUse">
<stop stop-color="#FD5900"/>
<stop offset="1" stop-color="#FFDE00"/>
</linearGradient>
<linearGradient id="paint2_linear" x1="31.7443" y1="41.8055" x2="61.234" y2="41.8055" gradientUnits="userSpaceOnUse">
<stop stop-color="#FD3A84"/>
<stop offset="1" stop-color="#FFA68D"/>
</linearGradient>
<linearGradient id="paint3_linear" x1="17.1109" y1="35.8511" x2="17.1109" y2="9.42352" gradientUnits="userSpaceOnUse">
<stop stop-color="#02AA93"/>
<stop offset="1" stop-color="#67FF80"/>
</linearGradient>
<linearGradient id="paint4_linear" x1="7.68659" y1="45.2827" x2="35.5606" y2="45.2827" gradientUnits="userSpaceOnUse">
<stop stop-color="#5433FF"/>
<stop offset="0.517391" stop-color="#00C1FE"/>
<stop offset="0.982609" stop-color="#39DBFF"/>
</linearGradient>
<linearGradient id="paint5_linear" x1="17.12" y1="34.7992" x2="17.12" y2="8.32306" gradientUnits="userSpaceOnUse">
<stop stop-color="#02AA93"/>
<stop offset="1" stop-color="#67FF80"/>
</linearGradient>
<linearGradient id="paint6_linear" x1="42.3389" y1="17.2077" x2="42.3389" y2="3.52543" gradientUnits="userSpaceOnUse">
<stop stop-color="#FD5900"/>
<stop offset="1" stop-color="#FFDE00"/>
</linearGradient>
<linearGradient id="paint7_linear" x1="7.68657" y1="38.886" x2="35.5606" y2="38.886" gradientUnits="userSpaceOnUse">
<stop stop-color="#5433FF"/>
<stop offset="0.517391" stop-color="#00C1FE"/>
<stop offset="0.982609" stop-color="#39DBFF"/>
</linearGradient>
<linearGradient id="paint8_linear" x1="31.7635" y1="36.8835" x2="61.2466" y2="36.8835" gradientUnits="userSpaceOnUse">
<stop stop-color="#FD3A84"/>
<stop offset="1" stop-color="#FFA68D"/>
</linearGradient>
<linearGradient id="paint9_linear" x1="31.7635" y1="40.7631" x2="61.2469" y2="40.7631" gradientUnits="userSpaceOnUse">
<stop stop-color="#FD3A84"/>
<stop offset="1" stop-color="#FFA68D"/>
</linearGradient>
<linearGradient id="paint10_linear" x1="42.3389" y1="31.5116" x2="42.3389" y2="3.52542" gradientUnits="userSpaceOnUse">
<stop stop-color="#FD5900"/>
<stop offset="1" stop-color="#FFDE00"/>
</linearGradient>
<linearGradient id="paint11_linear" x1="17.12" y1="31.6005" x2="17.12" y2="8.32307" gradientUnits="userSpaceOnUse">
<stop stop-color="#02AA93"/>
<stop offset="1" stop-color="#67FF80"/>
</linearGradient>
<clipPath id="clip0">
<rect width="64" height="64" fill="white"/>
</clipPath>
</defs>
</svg>
