<svg width="128" height="128" viewBox="0 0 128 128" fill="none" xmlns="http://www.w3.org/2000/svg">
<path d="M28.7287 10.6878C29.063 8.03452 31.3486 5.87602 33.7975 6.02106C44.1525 5.98693 54.5154 6.01253 64.8783 6.01253C67.0784 5.8419 68.9985 7.43731 70.1413 9.38251C81.1261 26.5311 92.1731 43.6369 103.104 60.8195C104.487 62.56 104.448 65.256 103.088 67.005C92.0487 84.1962 80.8618 101.294 69.8071 118.476C68.6409 120.183 66.9928 122.017 64.9171 122C54.2588 121.991 43.5928 122.008 32.9345 121.991C29.475 121.906 26.381 117.017 28.9464 113.758C36.464 101.874 44.1603 90.1171 51.7556 78.2923C52.9528 76.023 55.8215 74.82 57.9593 76.2532C60.5092 77.5074 60.7424 81.5088 59.2343 83.7696C53.186 93.1373 47.1533 102.514 41.0973 111.873C48.4516 111.592 55.8448 112.077 63.1758 111.642C73.4998 95.6713 83.917 79.7768 94.14 63.7374C83.7304 47.9369 73.6475 31.8804 63.3857 15.9689C56.1791 16.0542 48.9647 16.1736 41.7659 15.9007C47.6043 25.4816 53.8002 34.8067 59.693 44.345C61.0146 46.5718 60.4782 50.0612 58.2237 51.2898C56.1635 52.9023 53.2871 51.6225 52.0277 49.4555C44.79 38.0658 37.5679 26.659 30.3069 15.2778C29.5062 13.9043 28.5733 12.4027 28.7287 10.6878Z" fill="url(#paint0_linear_677_32)" stroke="url(#paint1_linear_677_32)" stroke-width="3"/>
<defs>
<linearGradient id="paint0_linear_677_32" x1="66.0625" y1="122" x2="66.0625" y2="6" gradientUnits="userSpaceOnUse">
<stop stop-color="#FD2E00"/>
<stop offset="1" stop-color="#FF9900"/>
</linearGradient>
<linearGradient id="paint1_linear_677_32" x1="66.0625" y1="122" x2="66.0625" y2="6" gradientUnits="userSpaceOnUse">
<stop stop-color="#FD2E00"/>
<stop offset="1" stop-color="#FF9900"/>
</linearGradient>
</defs>
</svg>
