<svg width="192" height="192" viewBox="0 0 192 192" fill="none" xmlns="http://www.w3.org/2000/svg">
<path d="M97.01 15.02C96.65 10.67 101.79 7.33002 105.65 9.28002C108.43 10.33 109.25 13.4 109.81 16C112.16 26.64 114.97 37.18 117.38 47.8C117.82 51.17 117.67 54.78 115.67 57.67C108.59 68.74 101.54 79.84 94.61 91.01C83.51 83.28 71.79 76.48 60.58 68.93C62.34 65.12 64.82 61.61 68.5 59.44C76.06 63.94 83.28 69 90.91 73.38C95.58 65.9 100.67 58.63 104.99 50.94C103.1 38.83 99.01 27.12 97.01 15.02Z" fill="url(#paint0_linear)"/>
<path d="M47.21 19.39C58.41 16.16 69.93 14.05 81.29 11.42C84.9 10.27 87.85 13.04 89.47 15.96C88.91 18.75 88.23 22.27 85 23.08C77.42 25.28 69.6 26.53 61.94 28.43C62.17 29.62 62.39 30.81 62.6 32.01C64.84 41.09 66.53 50.3 68.5 59.44C64.82 61.61 62.34 65.12 60.58 68.93C55.12 64.17 55.46 56.4 53.83 49.93C52.01 39.66 48.67 29.7 47.21 19.39Z" fill="url(#paint1_linear)"/>
<path d="M146.9 52.29C155.28 50.59 163.49 47.91 171.97 46.75C175.03 56.89 176.7 67.4 179.34 77.65C179.92 80.77 180.94 84.77 178.06 87.11C175.94 89.29 172.82 88.42 170.2 88.04C169.16 86.31 167.96 84.61 167.59 82.57C166.17 76.3 164.8 70.01 163.39 63.73C163.26 63.17 162.99 62.06 162.86 61.5C154.81 62.87 146.95 65.19 138.88 66.45C140.61 61.23 144.09 56.94 146.9 52.29Z" fill="url(#paint2_linear)"/>
<path d="M128.84 55.99C134.8 54.47 140.89 53.59 146.9 52.29C144.09 56.94 140.61 61.23 138.88 66.45C136.63 66.94 134.26 67.18 132.18 68.23C130.59 69.68 129.59 71.64 128.46 73.44C125.14 79.26 121.08 84.61 117.9 90.51C118.39 90.81 119.35 91.42 119.84 91.72C122.45 93.38 125.08 95.02 127.66 96.72C126.01 96.75 123.93 96.29 122.7 97.71C120.64 99.87 119.22 102.52 117.67 105.04C116.84 104.54 116.01 104.04 115.19 103.54C110.35 100.35 105.23 97.58 100.54 94.16C106.87 84.27 113.42 74.5 119.47 64.43C121.72 60.85 124.52 57.09 128.84 55.99Z" fill="url(#paint3_linear)"/>
<path d="M41.56 75.41C45.32 74.61 49.11 73.38 53.01 73.65C56.05 73.92 58.53 75.84 60.99 77.45C58.14 80.47 55.91 84.02 54.53 87.94C52.96 86.98 51.23 85.78 49.29 86.41C42.48 87.72 35.82 89.73 29.05 91.22C23.45 92.39 17.92 94.46 12.11 94.07C10.66 92.09 8.65004 90.05 9.16004 87.36C9.41004 84.34 12.11 82.22 14.95 81.8C23.84 79.74 32.7 77.6 41.56 75.41Z" fill="url(#paint4_linear)"/>
<path d="M54.53 87.94C55.91 84.02 58.14 80.47 60.99 77.45C71.02 83.83 81.02 90.25 91.18 96.42C91.01 96.72 90.67 97.33 90.5 97.63C85.15 105.92 79.72 114.16 74.53 122.56C72.27 126.18 70.26 130.15 66.82 132.82C63.45 135.2 59.2 135.6 55.27 136.43C43.35 138.53 31.67 141.71 19.85 144.3C19.26 142.59 18.48 140.89 18.38 139.06C20.37 134.67 22.56 129.63 27.49 127.92C30.09 129.73 33.12 128.43 35.89 127.87C43.06 126.06 50.35 124.75 57.6 123.31C60.26 123.11 61.18 120.33 62.51 118.46C65.79 112.61 69.89 107.25 73.13 101.38C73.26 101.09 73.53 100.53 73.66 100.25C67.35 96.04 60.84 92.15 54.53 87.94Z" fill="url(#paint5_linear)"/>
<path d="M122.7 97.71C123.93 96.29 126.01 96.75 127.66 96.72C131.99 99.2 135.95 102.29 140.36 104.63C152.37 102.56 164.05 98.75 176.03 96.53C179.14 96.07 181.2 98.71 182.77 100.95C182.32 102.97 182.47 105.36 180.91 106.94C179.19 108.62 176.67 108.94 174.45 109.55C165.52 111.5 156.66 113.76 147.78 115.92C143.42 116.9 138.46 118.16 134.37 115.61C128.73 112.21 123.31 108.45 117.67 105.04C119.22 102.52 120.64 99.87 122.7 97.71Z" fill="url(#paint6_linear)"/>
<path d="M76.11 133.09C83.18 122.2 90.01 111.15 96.96 100.18C105.99 105.78 114.75 111.83 123.87 117.3C119.36 118.64 117.15 122.77 115.57 126.85C112.78 125.17 110.05 123.38 107.33 121.59C105.22 120.17 103.05 118.87 100.9 117.54C96.33 124.17 92.18 131.08 87.8 137.83C85.71 140.27 87.23 143.43 87.71 146.18C90.19 155.75 92.55 165.37 94.63 175.04C95.71 179.55 90.49 183.8 86.3 181.85C83.14 180.78 82.32 177.26 81.73 174.38C79.54 164.14 76.68 154.04 74.53 143.79C73.66 140.18 73.89 136.19 76.11 133.09Z" fill="url(#paint7_linear)"/>
<path d="M15.48 102.53C18.92 101.05 23.14 103.47 23.82 107.1C25.49 113.86 26.83 120.69 28.45 127.46L27.49 127.92C22.56 129.63 20.37 134.67 18.38 139.06C16.08 129.39 13.91 119.69 11.79 109.99C10.9 107.01 12.54 103.59 15.48 102.53Z" fill="url(#paint8_linear)"/>
<path d="M115.57 126.85C117.15 122.77 119.36 118.64 123.87 117.3C128.68 120.17 134.33 123.41 135.51 129.4C138.27 142.66 140.75 156 144.49 169.04C144.79 172.57 140.93 172.69 138.42 173.31C129.14 175.28 119.92 177.55 110.64 179.48C108.27 180.17 106.03 179.03 103.89 178.19C103.3 176.2 102.06 174.19 102.75 172.06C103.37 169.52 105.71 167.81 108.19 167.35C115.4 165.65 122.67 164.25 129.84 162.4C127.5 152.55 125.51 142.62 123.47 132.71C121.84 129.84 118.2 128.72 115.57 126.85Z" fill="url(#paint9_linear)"/>
<defs>
<linearGradient id="paint0_linear" x1="95.9246" y1="182.336" x2="95.9246" y2="8.71057" gradientUnits="userSpaceOnUse">
<stop stop-color="#FD5900"/>
<stop offset="1" stop-color="#FFDE00"/>
</linearGradient>
<linearGradient id="paint1_linear" x1="95.9246" y1="182.336" x2="95.9246" y2="8.71057" gradientUnits="userSpaceOnUse">
<stop stop-color="#FD5900"/>
<stop offset="1" stop-color="#FFDE00"/>
</linearGradient>
<linearGradient id="paint2_linear" x1="95.9246" y1="182.336" x2="95.9246" y2="8.71057" gradientUnits="userSpaceOnUse">
<stop stop-color="#FD5900"/>
<stop offset="1" stop-color="#FFDE00"/>
</linearGradient>
<linearGradient id="paint3_linear" x1="95.9246" y1="182.336" x2="95.9246" y2="8.71057" gradientUnits="userSpaceOnUse">
<stop stop-color="#FD5900"/>
<stop offset="1" stop-color="#FFDE00"/>
</linearGradient>
<linearGradient id="paint4_linear" x1="95.9246" y1="182.336" x2="95.9246" y2="8.71057" gradientUnits="userSpaceOnUse">
<stop stop-color="#FD5900"/>
<stop offset="1" stop-color="#FFDE00"/>
</linearGradient>
<linearGradient id="paint5_linear" x1="95.9246" y1="182.336" x2="95.9246" y2="8.71057" gradientUnits="userSpaceOnUse">
<stop stop-color="#FD5900"/>
<stop offset="1" stop-color="#FFDE00"/>
</linearGradient>
<linearGradient id="paint6_linear" x1="95.9246" y1="182.336" x2="95.9246" y2="8.71057" gradientUnits="userSpaceOnUse">
<stop stop-color="#FD5900"/>
<stop offset="1" stop-color="#FFDE00"/>
</linearGradient>
<linearGradient id="paint7_linear" x1="95.9246" y1="182.336" x2="95.9246" y2="8.71057" gradientUnits="userSpaceOnUse">
<stop stop-color="#FD5900"/>
<stop offset="1" stop-color="#FFDE00"/>
</linearGradient>
<linearGradient id="paint8_linear" x1="95.9246" y1="182.336" x2="95.9246" y2="8.71057" gradientUnits="userSpaceOnUse">
<stop stop-color="#FD5900"/>
<stop offset="1" stop-color="#FFDE00"/>
</linearGradient>
<linearGradient id="paint9_linear" x1="95.9246" y1="182.336" x2="95.9246" y2="8.71057" gradientUnits="userSpaceOnUse">
<stop stop-color="#FD5900"/>
<stop offset="1" stop-color="#FFDE00"/>
</linearGradient>
</defs>
</svg>
