<svg width="128" height="128" viewBox="0 0 128 128" fill="none" xmlns="http://www.w3.org/2000/svg">
<path d="M81.2187 6C58.7306 6 40.4375 24.2931 40.4375 46.7812C40.4375 56.8048 44.0881 65.9808 50.1086 73.0892L42.4786 80.7192L40.076 78.3164C38.7484 76.9891 36.5977 76.9891 35.2703 78.3164L6.99574 106.587C6.35842 107.224 6 108.087 6 108.991C6 109.892 6.35842 110.757 6.99574 111.393L16.6069 121.004C17.2708 121.668 18.1404 122 19.0097 122C19.879 122 20.7488 121.668 21.4123 121.004L49.687 92.7331C51.0145 91.4054 51.0137 89.2543 49.687 87.9275L47.2842 85.5249L54.9142 77.8949C62.0221 83.9134 71.1967 87.5625 81.2187 87.5625C103.707 87.5625 122 69.2694 122 46.7812C122 24.2931 103.707 6 81.2187 6ZM19.0097 113.796L14.2041 108.991L37.6729 85.5249L42.4786 90.3305L19.0097 113.796ZM81.2187 80.7656C62.4809 80.7656 47.2343 65.5191 47.2343 46.7812C47.2343 28.0434 62.4809 12.7968 81.2187 12.7968C99.9561 12.7968 115.203 28.0434 115.203 46.7812C115.203 65.5191 99.9561 80.7656 81.2187 80.7656ZM81.2187 19.5937C66.2278 19.5937 54.0312 31.7903 54.0312 46.7812C54.0312 61.7722 66.2278 73.9687 81.2187 73.9687C96.2097 73.9687 108.406 61.7722 108.406 46.7812C108.406 31.7903 96.2097 19.5937 81.2187 19.5937ZM81.2187 67.1718C69.9747 67.1718 60.8281 58.0252 60.8281 46.7812C60.8281 35.5372 69.9747 26.3906 81.2187 26.3906C92.4627 26.3906 101.609 35.5372 101.609 46.7812C101.609 58.0252 92.4627 67.1718 81.2187 67.1718Z" fill="url(#paint0_linear_678_351)" stroke="url(#paint1_linear_678_351)" stroke-width="4"/>
<defs>
<linearGradient id="paint0_linear_678_351" x1="30.8572" y1="87.8215" x2="103.875" y2="32.9285" gradientUnits="userSpaceOnUse">
<stop stop-color="#9000FF"/>
<stop offset="1" stop-color="#FF37FF"/>
</linearGradient>
<linearGradient id="paint1_linear_678_351" x1="30.8572" y1="87.8215" x2="103.875" y2="32.9285" gradientUnits="userSpaceOnUse">
<stop stop-color="#9000FF"/>
<stop offset="1" stop-color="#FF37FF"/>
</linearGradient>
</defs>
</svg>
