<svg width="192" height="192" viewBox="0 0 192 192" fill="none" xmlns="http://www.w3.org/2000/svg">
<path d="M78.7383 8.24901C88.4631 7.65021 98.2137 8.34683 107.965 8.13903C113.905 7.3935 119.032 12.2942 120.517 17.3904C122.506 22.8045 122.52 28.7439 124.74 34.0725C128.602 37.1155 133.122 39.3276 137.462 41.7229C143.17 39.8409 148.697 37.4333 154.573 36.0279C159.571 34.7446 165.602 36.5045 168.224 40.9042C172.499 47.5647 176.413 54.4453 180.21 61.3747C182.263 65.7254 185.091 71.1272 181.746 75.5636C177.678 81.1487 171.079 84.4972 166.494 89.6424C165.435 93.541 165.821 97.7084 165.848 101.717C169.748 108.67 178.891 111.689 182.327 119.034C184.226 122.359 183.618 126.478 181.527 129.581C176.812 137.355 172.15 145.164 167.101 152.74C163.742 157.69 156.485 158.387 151.28 155.784C146.773 153.633 140.884 153.279 137.809 149.062C134.465 144.846 138.559 138.014 144.1 138.564C148.388 138.967 152.171 141.167 156.122 142.622C160.294 136.462 163.976 130.022 167.928 123.74C161.767 117.91 152.714 113.23 151.306 104.357C150.867 98.4173 150.944 92.4044 151.616 86.5015C154.057 78.6921 162.219 74.7569 167.823 69.2207C164.26 62.8046 160.372 56.5717 156.886 50.119C148.168 52.221 139.115 58.7348 130.075 54.0297C122.984 49.5078 113.375 46.6114 110.301 38.2888C108.855 33.0703 107.848 27.7297 106.428 22.4989C99.1306 22.5479 91.8339 22.5722 84.537 22.4867C83.8009 28.2429 82.6644 34.1213 79.7457 39.291C76.9174 44.3628 71.377 47.1247 66.4436 50.0823C62.9307 52.0744 59.3921 54.5553 55.1432 54.7508C47.9238 55.203 41.6344 50.9256 34.9058 49.459C30.9539 55.5819 27.3249 61.8757 23.3213 67.9619C27.5574 71.6649 32.1033 75.0747 35.9906 79.1078C39.8909 83.1896 40.5883 88.9214 40.2783 94.2009C39.9813 99.5902 40.95 105.677 37.1401 110.235C33.3432 114.978 28.0353 118.386 23.4118 122.371C26.9633 128.945 31.0056 135.276 34.5313 141.876C42.0735 139.836 49.2283 134.788 57.4291 136.412C62.2721 137.598 66.1853 140.751 70.473 143.024C75.1352 145.407 79.6165 148.866 81.1017 153.889C82.4448 158.973 83.7363 164.082 84.6662 169.264C92.0404 169.325 99.4277 169.264 106.815 169.288C107.848 164.901 107.048 158.864 111.774 156.26C116.398 153.4 123.32 157.434 122.687 162.639C122.687 170.84 120.363 181.631 110.56 183.881C99.6987 184.234 88.8118 183.661 77.9376 183.953C75.9488 182.548 73.3916 181.399 72.436 179.065C69.7368 172.124 68.6778 164.767 66.8697 157.592C62.595 154.94 58.3073 152.276 53.8001 149.99C47.9884 152.02 42.293 154.403 36.2749 155.87C31.1477 157.067 25.349 154.819 22.8177 150.393C18.6333 143.696 14.6943 136.853 10.9232 129.936C8.7278 125.45 6.64848 119.804 10.1613 115.393C14.6686 110.26 20.8159 106.655 25.4523 101.607C25.3232 97.5251 25.9818 93.4188 25.3748 89.3736C20.4802 82.6274 10.9878 79.2299 8.44363 70.9562C6.98429 66.7887 9.41225 62.719 11.569 59.2115C15.805 52.5754 19.6794 45.7315 24.1221 39.2176C26.9633 35.099 32.6846 33.327 37.5534 35.0746C42.9387 37.1155 48.3372 39.071 53.7872 40.9286C57.7778 38.4599 62.0784 36.4068 65.7462 33.498C69.6205 29.2696 68.4971 23.1589 70.318 18.136C71.7127 14.1274 73.637 8.90896 78.7383 8.24901Z" fill="url(#paint0_linear_674_197)" stroke="url(#paint1_linear_674_197)" stroke-width="6"/>
<path d="M120.311 62C104.503 62 101.615 84.534 110.431 84.534C119.323 84.534 136.119 62 120.311 62ZM95.915 64.774C95.611 64.774 95.3449 64.774 95.0789 64.812C86.1869 65.952 89.303 81.456 94.015 81.722C98.651 82.026 103.667 64.774 95.915 64.774ZM80.4489 70.892C79.9929 70.892 79.461 71.006 78.929 71.234C71.785 74.198 77.827 86.358 81.855 85.56C85.541 84.8 85.997 70.74 80.4489 70.892ZM69.0489 80.43C68.4409 80.392 67.7569 80.62 67.0729 81.114C61.3349 85.066 68.973 94.604 72.355 93.122C75.281 91.83 73.4189 80.582 69.0489 80.43ZM100.817 87.726C88.695 87.84 73.229 93.996 70.531 106.042C67.529 119.418 82.843 138 98.803 138C106.669 138 115.713 130.894 117.423 121.926C118.715 115.086 102.185 117.822 102.793 122.344C103.515 127.778 98.803 130.4 94.205 126.98C79.537 115.808 118.449 110.26 115.865 95.022C115.029 90.082 108.607 87.688 100.817 87.726Z" fill="url(#paint2_linear_674_197)"/>
<defs>
<linearGradient id="paint0_linear_674_197" x1="8" y1="184" x2="219.93" y2="91.9075" gradientUnits="userSpaceOnUse">
<stop stop-color="#0357D1"/>
<stop offset="1" stop-color="#27CDFC"/>
</linearGradient>
<linearGradient id="paint1_linear_674_197" x1="8" y1="184" x2="219.93" y2="91.9075" gradientUnits="userSpaceOnUse">
<stop stop-color="#0357D1"/>
<stop offset="1" stop-color="#27CDFC"/>
</linearGradient>
<linearGradient id="paint2_linear_674_197" x1="65" y1="138" x2="143.862" y2="110.036" gradientUnits="userSpaceOnUse">
<stop stop-color="#0357D1"/>
<stop offset="1" stop-color="#27CDFC"/>
</linearGradient>
</defs>
</svg>
