<svg width="128" height="128" viewBox="0 0 128 128" fill="none" xmlns="http://www.w3.org/2000/svg">
<path d="M108.252 109.43L117.449 45.7905C118.049 41.6346 115.989 37.5462 112.292 35.5555L68.332 11.8852C65.3493 10.2792 61.7563 10.2924 58.7856 11.9204L15.6391 35.5636C11.9804 37.5685 9.9508 41.6342 10.5475 45.7635L19.748 109.43C20.4589 114.35 24.6748 118 29.6452 118H98.3548C103.325 118 107.541 114.349 108.252 109.43Z" stroke="url(#paint0_linear)" stroke-width="10"/>
<path d="M63.502 33C60.7605 33 58.1312 34.0891 56.1927 36.0276C54.2541 37.9662 53.1651 40.5954 53.1651 43.337C53.1651 46.0785 54.2541 48.7078 56.1927 50.6463C58.1312 52.5849 60.7605 53.6739 63.502 53.6739C66.2436 53.6739 68.8728 52.5849 70.8114 50.6463C72.7499 48.7078 73.839 46.0785 73.839 43.337C73.839 40.5954 72.7499 37.9662 70.8114 36.0276C68.8728 34.0891 66.2436 33 63.502 33ZM94.5569 49.2549C93.7934 47.5613 92.4153 46.2208 90.7011 45.5045C88.987 44.7883 87.0649 44.7497 85.3234 45.3966L80.7028 47.1125C80.3439 47.2457 80.0192 47.4569 79.7519 47.7308C79.4847 48.0048 79.2816 48.3347 79.1574 48.6967C78.0383 51.9589 75.928 54.79 73.1214 56.7944C70.3148 58.7988 66.9522 59.8762 63.5033 59.8762C60.0545 59.8762 56.6918 58.7988 53.8852 56.7944C51.0786 54.79 48.9683 51.9589 47.8493 48.6967C47.7251 48.3347 47.522 48.0048 47.2547 47.7308C46.9875 47.4569 46.6627 47.2457 46.3039 47.1125L41.8047 45.4405C40.0318 44.7829 38.0725 44.8414 36.3419 45.6037C34.6114 46.3661 33.2458 47.7723 32.5344 49.5243C31.823 51.2764 31.8218 53.2366 32.5311 54.9896C33.2403 56.7425 34.6043 58.1504 36.3339 58.9148L46.8035 63.5313C47.5286 63.8511 47.9966 64.5688 47.9966 65.3613V77.2433C47.9966 78.4473 47.7792 79.6414 47.3548 80.7681L41.7427 95.6679C41.1148 97.3065 41.1539 99.1259 41.8517 100.736C42.5495 102.346 43.8503 103.619 45.4754 104.281C47.1004 104.943 48.9203 104.942 50.5447 104.279C52.1692 103.615 53.4689 102.341 54.1652 100.73L62.0109 82.863C62.1279 82.5973 62.3201 82.3718 62.564 82.2144C62.8078 82.057 63.0924 81.9745 63.3826 81.9773C63.6728 81.98 63.9559 82.0679 64.1967 82.2299C64.4375 82.3919 64.6254 82.621 64.7373 82.8888L72.1644 100.635C72.8541 102.343 74.1913 103.709 75.8844 104.435C77.5775 105.161 79.489 105.188 81.2019 104.51C82.9149 103.833 84.2902 102.505 85.028 100.817C85.7657 99.1287 85.8059 97.2175 85.1399 95.4999L79.6388 80.7606C79.2213 79.6421 79.0075 78.4579 79.0075 77.264V65.3721C79.0075 64.5728 79.4834 63.8503 80.2177 63.5347L90.7684 59.0001C91.663 58.6158 92.4721 58.0572 93.1484 57.3569C93.8247 56.6565 94.3547 55.8284 94.7074 54.9209C95.0601 54.0134 95.2284 53.0447 95.2026 52.0714C95.1767 51.0982 94.9572 50.1398 94.5569 49.2523V49.2549Z" fill="url(#paint1_linear)"/>
<defs>
<linearGradient id="paint0_linear" x1="64" y1="113" x2="64" y2="15" gradientUnits="userSpaceOnUse">
<stop stop-color="#5570FF"/>
<stop offset="1" stop-color="#4DD3FF"/>
</linearGradient>
<linearGradient id="paint1_linear" x1="63.6026" y1="105" x2="63.6026" y2="33" gradientUnits="userSpaceOnUse">
<stop stop-color="#5570FF"/>
<stop offset="1" stop-color="#4DD3FF"/>
</linearGradient>
</defs>
</svg>
