<svg width="128" height="128" viewBox="0 0 128 128" fill="none" xmlns="http://www.w3.org/2000/svg">
<path d="M57.4389 7.31C60.8771 3.9945 67.1212 4.28589 70.1864 7.9401C71.938 9.7436 72.3596 12.2558 72.3678 14.6421C82.5852 17.1937 91.408 24.3604 95.7463 33.7007C97.2223 36.52 97.6276 39.7016 98.9089 42.5919C99.5251 48.3567 98.9008 54.161 99.3548 59.9415C99.6307 64.3832 99.071 68.8801 99.6064 73.2982C103.904 79.5514 108.607 85.5523 112.889 91.8213C115.419 95.1289 111.283 99.531 107.578 98.956C103.247 98.775 98.9251 99.145 94.5948 99.208C69.4241 99.075 44.2372 99.429 19.0827 98.909C15.6607 98.909 12.5224 94.7587 14.7443 91.7818C19.0178 85.2767 23.9401 79.1655 28.1243 72.6131C28.3189 64.4857 28.2703 56.3425 28.1325 48.2149C27.6864 45.9153 28.5137 43.1905 30.7761 42.08C33.5332 40.4026 37.3687 42.7495 37.5147 45.7737C37.4012 55.1217 37.4336 64.4935 37.4743 73.8494C37.4661 76.1413 35.7956 77.9211 34.5791 79.7325C32.1546 82.985 30.0219 86.4344 27.3622 89.5137C47.5943 89.8446 67.8509 89.561 88.0912 89.6555C92.0811 89.5689 96.0708 89.8288 100.052 89.5059C97.4573 86.3951 95.2192 83.0323 92.8026 79.7955C91.4161 77.8503 89.6321 75.8814 89.7538 73.3534C89.5186 64.6983 89.9645 56.0354 89.7699 47.3723C89.5347 39.8829 85.8127 32.5824 79.6903 27.9987C71.9298 21.919 60.5123 20.84 51.6895 25.3684C49.354 26.3922 47.6025 28.2823 45.3482 29.4164C42.9235 30.5662 39.7691 28.9832 39.1366 26.4788C38.5284 24.5966 39.5421 22.5726 41.0827 21.415C45.0887 18.3514 49.6866 15.9888 54.6251 14.7208C54.6251 12.0274 55.2899 9.1765 57.4389 7.31Z" fill="url(#paint0_linear_637_165)" stroke="url(#paint1_linear_637_165)" stroke-width="4"/>
<path d="M51.795 107.736L52.3383 107.406C58.8501 107.193 65.3698 107.406 71.8814 107.303C73.2193 107.445 75.0926 106.878 75.8304 108.359C76.9009 114.604 71.8896 120.959 65.467 121.818C58.7933 123.039 51.86 117.967 51.1707 111.422C51.1544 110.233 50.6111 108.556 51.795 107.736Z" fill="url(#paint2_linear_637_165)" stroke="url(#paint3_linear_637_165)" stroke-width="4"/>
<defs>
<linearGradient id="paint0_linear_637_165" x1="63.8336" y1="99.208" x2="63.8336" y2="4.99999" gradientUnits="userSpaceOnUse">
<stop stop-color="#8000E3"/>
<stop offset="1" stop-color="#FF00FF"/>
</linearGradient>
<linearGradient id="paint1_linear_637_165" x1="63.8336" y1="99.208" x2="63.8336" y2="4.99999" gradientUnits="userSpaceOnUse">
<stop stop-color="#8000E3"/>
<stop offset="1" stop-color="#FF00FF"/>
</linearGradient>
<linearGradient id="paint2_linear_637_165" x1="63.5038" y1="122" x2="63.5038" y2="107.303" gradientUnits="userSpaceOnUse">
<stop stop-color="#FF00F5"/>
<stop offset="1" stop-color="#FF81FF"/>
</linearGradient>
<linearGradient id="paint3_linear_637_165" x1="63.5038" y1="122" x2="63.5038" y2="107.303" gradientUnits="userSpaceOnUse">
<stop stop-color="#FF00F5"/>
<stop offset="1" stop-color="#FF81FF"/>
</linearGradient>
</defs>
</svg>
