<svg width="128" height="128" viewBox="0 0 128 128" fill="none" xmlns="http://www.w3.org/2000/svg">
<path d="M101.268 8.22167C105.762 7.70587 106.588 7.96732 110.569 10.3344C114.107 12.2847 116.717 15.5633 118.356 19.2236C117.839 19.2772 117.317 19.3054 116.8 19.3571C115.666 19.4704 114.648 20.0632 113.93 20.9479C112.923 22.1896 112.107 23.5933 111.181 24.8976C110.766 21.8451 109.036 18.9268 106.257 17.4994C103.451 15.8813 104.117 16.7716 101.099 16.1498C100.552 16.0114 100.117 15.7353 99.7541 15.377C98.1434 13.7846 98.0567 10.8422 99.598 9.18256C100.032 8.71571 100.571 8.36478 101.268 8.22167Z" fill="url(#paint0_linear_644_96)"/>
<path d="M8.02656 25.4488C7.98435 16.5314 15.6234 8.43369 24.5074 8.09449C32.3081 8.00261 40.109 8.0521 47.9098 8.07333C46.2005 10.8573 44.3505 13.5566 42.6271 16.3335C36.81 16.4113 30.9928 16.2276 25.1897 16.3972C21.7993 16.4819 18.6972 18.6371 17.2693 21.7038C16.9528 22.3963 16.6995 23.1099 16.5026 23.8519C15.3772 31.8012 16.2494 39.8919 15.8766 47.8978C13.1685 51.0281 11.0301 54.6317 8.04766 57.5288C7.97028 46.8379 8.00547 36.1398 8.02656 25.4488Z" fill="url(#paint1_linear_644_96)"/>
<path d="M47.9098 8.07333C57.2299 8.03797 60.55 8.04507 69.8701 8.0521C71.8048 7.87546 73.7739 9.07671 74.3085 10.9846C74.3818 11.1802 74.4317 11.375 74.4619 11.5689C74.8751 14.2276 71.7986 16.1322 69.113 16.2967C66.7888 16.4391 64.4429 16.3433 62.1187 16.3477C53.6215 16.3335 51.1243 16.3548 42.6271 16.3335C44.3505 13.5566 46.2005 10.8573 47.9098 8.07333Z" fill="url(#paint2_linear_644_96)"/>
<path d="M82.3748 14.1139C82.3541 13.7018 82.32 13.3 82.3328 12.8875C82.3788 11.4126 82.5942 9.63966 84.2892 9.3313C85.7843 9.1346 87.3443 9.03845 88.8429 9.30155C89.398 9.399 89.9672 9.57913 90.329 10.0112C91.0066 10.8203 90.9952 12.0489 91.0067 13.0975C90.9583 13.4895 90.9688 13.9143 90.9821 14.3454C91.041 16.2457 89.3604 17.3372 87.4599 17.3853C87.0253 17.3963 86.5903 17.3974 86.1554 17.3893C84.1282 17.3516 82.4763 16.1389 82.3748 14.1139V14.1139Z" fill="url(#paint3_linear_644_96)"/>
<path d="M113.93 20.9479C114.648 20.0632 115.666 19.4704 116.8 19.3571C117.317 19.3054 117.839 19.2772 118.356 19.2236C118.933 21.1951 119.453 23.2089 119.51 25.2722C119.453 35.8713 119.531 46.4633 119.46 57.0554C117.146 59.7547 114.874 62.5034 112.954 65.4994C111.646 67.4213 111.779 69.8449 111.744 72.0641C111.835 77.95 111.723 83.843 111.687 89.736C111.631 94.2304 111.983 98.7735 111.139 103.218C111.223 77.1087 111.188 50.9998 111.181 24.8976C112.107 23.5933 112.923 22.1896 113.93 20.9479Z" fill="url(#paint4_linear_644_96)"/>
<path d="M82.1897 33.2902C82.2136 30.8979 84.1501 29.0495 86.5424 29.0483V29.0483C88.8302 29.0472 90.7519 30.7227 90.7806 33.0103C90.7965 34.2848 90.7459 35.5636 90.7598 36.8336C90.8022 48.3867 90.8237 59.9397 90.8653 71.4928C91.1694 74.5464 89.2199 77.0949 87.6708 79.5601C87.4818 79.8608 87.1881 80.0686 86.8388 80.1335V80.1335C86.3857 80.2176 85.9078 80.0503 85.6326 79.6806C84.4953 78.1529 83.5129 76.4707 82.7973 74.7069C82.4935 73.958 82.3676 73.1522 82.3547 72.3441C82.1613 60.2775 82.3221 48.1921 82.2068 36.1199C82.1953 35.179 82.1803 34.2344 82.1897 33.2902Z" fill="url(#paint5_linear_644_96)"/>
<path d="M15.8766 47.8978C16.2494 39.8919 15.3772 31.8012 16.5026 23.8519C16.2142 49.8127 16.4675 75.7803 16.383 101.749C16.1861 104.653 17.5507 107.317 19.4428 109.415C17.7195 111.549 16.0735 113.74 14.4979 115.979C13.6116 115.223 12.7675 114.411 11.9656 113.577C9.49669 110.418 8.04063 106.468 8.01953 102.441C7.99842 98.0742 7.99139 93.7003 8.04766 89.3265C10.6855 86.8247 13.0489 84.0123 14.9411 80.9037C16.0524 79.1156 15.8696 76.925 15.9118 74.9116C15.7218 65.9092 15.9751 56.9 15.8766 47.8978Z" fill="url(#paint6_linear_644_96)"/>
<path d="M119.51 25.2722C119.742 26.4805 119.945 27.6958 119.981 28.9324C119.903 49.9045 119.981 70.8835 119.938 91.8562C119.882 95.4383 120.297 99.0705 119.524 102.61C119.44 87.4257 119.538 72.2406 119.46 57.0554C119.531 46.4633 119.453 35.8713 119.51 25.2722Z" fill="url(#paint7_linear_644_96)"/>
<path d="M8.04766 57.5288C11.0301 54.6317 13.1685 51.0281 15.8766 47.8978C15.9751 56.9 15.7218 65.9092 15.9118 74.9116C15.8696 76.925 16.0524 79.1156 14.9411 80.9037C13.0489 84.0123 10.6855 86.8247 8.04766 89.3265C7.98435 78.7268 7.98435 68.1278 8.04766 57.5288Z" fill="url(#paint8_linear_644_96)"/>
<path d="M112.954 65.4994C114.874 62.5034 117.146 59.7547 119.46 57.0554C119.538 72.2406 119.44 87.4257 119.524 102.61C119.453 106.85 117.786 110.998 115.029 114.192C112.124 117.131 108.353 119.385 104.182 119.802C96.8188 119.417 89.4415 119.51 82.0675 119.429C77.9502 119.384 75.6075 114.968 78.0437 111.648V111.648C86.0133 111.627 93.9829 111.669 101.945 111.627C105.955 111.669 109.718 108.765 110.794 104.9C110.886 104.483 111.054 103.635 111.139 103.218C111.983 98.7735 111.631 94.2304 111.687 89.736C111.723 83.843 111.835 77.95 111.744 72.0641C111.779 69.8449 111.646 67.4213 112.954 65.4994Z" fill="url(#paint9_linear_644_96)"/>
<path d="M14.4979 115.979C16.0735 113.74 17.7195 111.549 19.4428 109.415C21.3561 110.666 23.5015 111.733 25.8509 111.641C32.7373 111.669 39.6236 111.613 46.51 111.655C45.2754 113.65 44.2204 115.829 42.727 117.651C42.0266 118.506 41.0531 119.108 39.96 119.27C38.3506 119.508 36.6757 119.384 35.0515 119.421C31.232 119.294 27.4124 119.541 23.6 119.809C20.2588 119.527 17.1005 118.057 14.4979 115.979Z" fill="url(#paint10_linear_644_96)"/>
<path d="M46.51 111.655C57.0259 111.641 67.5346 111.634 78.0437 111.648V111.648C75.6075 114.968 77.9502 119.384 82.0675 119.429C89.4415 119.51 96.8188 119.417 104.182 119.802C102.733 119.951 101.27 119.993 99.8141 120C77.291 119.986 54.768 119.979 32.2519 119.972C29.3679 119.951 26.4769 120.064 23.6 119.809C27.4124 119.541 31.232 119.294 35.0515 119.421C36.6757 119.384 38.3506 119.508 39.96 119.27C41.0531 119.108 42.0266 118.506 42.727 117.651C44.2204 115.829 45.2754 113.65 46.51 111.655Z" fill="url(#paint11_linear_644_96)"/>
<path d="M118.356 19.2236C116.717 15.5633 114.107 12.2847 110.569 10.3344C106.588 7.96732 105.762 7.70587 101.268 8.22167C100.571 8.36478 100.032 8.71571 99.598 9.18256C98.0567 10.8422 98.1434 13.7846 99.7541 15.377C100.117 15.7353 100.552 16.0114 101.099 16.1498C104.117 16.7716 103.451 15.8813 106.257 17.4994C109.036 18.9268 110.766 21.8451 111.181 24.8976M118.356 19.2236C117.839 19.2772 117.317 19.3054 116.8 19.3571C115.666 19.4704 114.648 20.0632 113.93 20.9479C112.923 22.1896 112.107 23.5933 111.181 24.8976M118.356 19.2236C118.933 21.1951 119.453 23.2089 119.51 25.2722M111.181 24.8976C111.188 50.9998 111.223 77.1087 111.139 103.218M47.9098 8.07333C40.109 8.0521 32.3081 8.00261 24.5074 8.09449C15.6234 8.43369 7.98435 16.5314 8.02656 25.4488C8.00547 36.1398 7.97028 46.8379 8.04766 57.5288M47.9098 8.07333C46.2005 10.8573 44.3505 13.5566 42.6271 16.3335M47.9098 8.07333C57.2299 8.03797 60.55 8.04507 69.8701 8.0521C71.8048 7.87546 73.7739 9.07671 74.3085 10.9846C74.3818 11.1802 74.4317 11.375 74.4619 11.5689C74.8751 14.2276 71.7986 16.1322 69.113 16.2967C66.7888 16.4391 64.4429 16.3433 62.1187 16.3477C53.6215 16.3335 51.1243 16.3548 42.6271 16.3335M42.6271 16.3335C36.81 16.4113 30.9928 16.2276 25.1897 16.3972C21.7993 16.4819 18.6972 18.6371 17.2693 21.7038C16.9528 22.3963 16.6995 23.1099 16.5026 23.8519M16.5026 23.8519C15.3772 31.8012 16.2494 39.8919 15.8766 47.8978M16.5026 23.8519C16.2142 49.8127 16.4675 75.7803 16.383 101.749C16.1861 104.653 17.5507 107.317 19.4428 109.415M15.8766 47.8978C13.1685 51.0281 11.0301 54.6317 8.04766 57.5288M15.8766 47.8978C15.9751 56.9 15.7218 65.9092 15.9118 74.9116C15.8696 76.925 16.0524 79.1156 14.9411 80.9037C13.0489 84.0123 10.6855 86.8247 8.04766 89.3265M8.04766 57.5288C7.98435 68.1278 7.98435 78.7268 8.04766 89.3265M119.51 25.2722C119.453 35.8713 119.531 46.4633 119.46 57.0554M119.51 25.2722C119.742 26.4805 119.945 27.6958 119.981 28.9324C119.903 49.9045 119.981 70.8835 119.938 91.8562C119.882 95.4383 120.297 99.0705 119.524 102.61M119.46 57.0554C117.146 59.7547 114.874 62.5034 112.954 65.4994C111.646 67.4213 111.779 69.8449 111.744 72.0641C111.835 77.95 111.723 83.843 111.687 89.736C111.631 94.2304 111.983 98.7735 111.139 103.218M119.46 57.0554C119.538 72.2406 119.44 87.4257 119.524 102.61M111.139 103.218C111.054 103.635 110.886 104.483 110.794 104.9C109.718 108.765 105.955 111.669 101.945 111.627C93.9829 111.669 86.0133 111.627 78.0437 111.648M19.4428 109.415C17.7195 111.549 16.0735 113.74 14.4979 115.979M19.4428 109.415C21.3561 110.666 23.5015 111.733 25.8509 111.641C32.7373 111.669 39.6236 111.613 46.51 111.655M14.4979 115.979C13.6116 115.223 12.7675 114.411 11.9656 113.577C9.49669 110.418 8.04063 106.468 8.01953 102.441C7.99842 98.0742 7.99139 93.7003 8.04766 89.3265M14.4979 115.979C17.1005 118.057 20.2588 119.527 23.6 119.809M119.524 102.61C119.453 106.85 117.786 110.998 115.029 114.192C112.124 117.131 108.353 119.385 104.182 119.802M104.182 119.802C96.8188 119.417 89.4415 119.51 82.0675 119.429C77.9502 119.384 75.6075 114.968 78.0437 111.648V111.648M104.182 119.802C102.733 119.951 101.27 119.993 99.8141 120C77.291 119.986 54.768 119.979 32.2519 119.972C29.3679 119.951 26.4769 120.064 23.6 119.809M78.0437 111.648C67.5346 111.634 57.0259 111.641 46.51 111.655M46.51 111.655C45.2754 113.65 44.2204 115.829 42.727 117.651C42.0266 118.506 41.0531 119.108 39.96 119.27C38.3506 119.508 36.6757 119.384 35.0515 119.421C31.232 119.294 27.4124 119.541 23.6 119.809M84.2892 9.3313C82.5942 9.63966 82.3788 11.4126 82.3328 12.8875C82.32 13.3 82.3541 13.7018 82.3748 14.1139V14.1139C82.4763 16.1389 84.1282 17.3516 86.1554 17.3893C86.5903 17.3974 87.0253 17.3963 87.4599 17.3853C89.3604 17.3372 91.041 16.2457 90.9821 14.3454C90.9688 13.9143 90.9583 13.4895 91.0067 13.0975C90.9952 12.0489 91.0066 10.8203 90.329 10.0112C89.9672 9.57913 89.398 9.399 88.8429 9.30155C87.3443 9.03845 85.7843 9.1346 84.2892 9.3313ZM90.7598 36.8336C90.7459 35.5636 90.7965 34.2848 90.7806 33.0103C90.7519 30.7227 88.8302 29.0472 86.5424 29.0483V29.0483C84.1501 29.0495 82.2136 30.8979 82.1897 33.2902C82.1803 34.2344 82.1953 35.179 82.2068 36.1199C82.3221 48.1921 82.1613 60.2775 82.3547 72.3441C82.3676 73.1522 82.4935 73.958 82.7973 74.7069C83.5129 76.4707 84.4953 78.1529 85.6326 79.6806C85.9078 80.0503 86.3857 80.2176 86.8388 80.1335V80.1335C87.1881 80.0686 87.4818 79.8608 87.6708 79.5601C89.2199 77.0949 91.1694 74.5464 90.8653 71.4928C90.8237 59.9397 90.8022 48.3867 90.7598 36.8336Z" stroke="url(#paint12_linear_644_96)" stroke-width="5"/>
<defs>
<linearGradient id="paint0_linear_644_96" x1="7.99996" y1="120" x2="143.143" y2="61.0972" gradientUnits="userSpaceOnUse">
<stop stop-color="#0357D1"/>
<stop offset="1" stop-color="#27CDFC"/>
</linearGradient>
<linearGradient id="paint1_linear_644_96" x1="7.99996" y1="120" x2="143.143" y2="61.0972" gradientUnits="userSpaceOnUse">
<stop stop-color="#0357D1"/>
<stop offset="1" stop-color="#27CDFC"/>
</linearGradient>
<linearGradient id="paint2_linear_644_96" x1="7.99996" y1="120" x2="143.143" y2="61.0972" gradientUnits="userSpaceOnUse">
<stop stop-color="#0357D1"/>
<stop offset="1" stop-color="#27CDFC"/>
</linearGradient>
<linearGradient id="paint3_linear_644_96" x1="7.99996" y1="120" x2="143.143" y2="61.0972" gradientUnits="userSpaceOnUse">
<stop stop-color="#0357D1"/>
<stop offset="1" stop-color="#27CDFC"/>
</linearGradient>
<linearGradient id="paint4_linear_644_96" x1="7.99996" y1="120" x2="143.143" y2="61.0972" gradientUnits="userSpaceOnUse">
<stop stop-color="#0357D1"/>
<stop offset="1" stop-color="#27CDFC"/>
</linearGradient>
<linearGradient id="paint5_linear_644_96" x1="7.99996" y1="120" x2="143.143" y2="61.0972" gradientUnits="userSpaceOnUse">
<stop stop-color="#0357D1"/>
<stop offset="1" stop-color="#27CDFC"/>
</linearGradient>
<linearGradient id="paint6_linear_644_96" x1="7.99996" y1="120" x2="143.143" y2="61.0972" gradientUnits="userSpaceOnUse">
<stop stop-color="#0357D1"/>
<stop offset="1" stop-color="#27CDFC"/>
</linearGradient>
<linearGradient id="paint7_linear_644_96" x1="7.99996" y1="120" x2="143.143" y2="61.0972" gradientUnits="userSpaceOnUse">
<stop stop-color="#0357D1"/>
<stop offset="1" stop-color="#27CDFC"/>
</linearGradient>
<linearGradient id="paint8_linear_644_96" x1="7.99996" y1="120" x2="143.143" y2="61.0972" gradientUnits="userSpaceOnUse">
<stop stop-color="#0357D1"/>
<stop offset="1" stop-color="#27CDFC"/>
</linearGradient>
<linearGradient id="paint9_linear_644_96" x1="7.99996" y1="120" x2="143.143" y2="61.0972" gradientUnits="userSpaceOnUse">
<stop stop-color="#0357D1"/>
<stop offset="1" stop-color="#27CDFC"/>
</linearGradient>
<linearGradient id="paint10_linear_644_96" x1="7.99996" y1="120" x2="143.143" y2="61.0972" gradientUnits="userSpaceOnUse">
<stop stop-color="#0357D1"/>
<stop offset="1" stop-color="#27CDFC"/>
</linearGradient>
<linearGradient id="paint11_linear_644_96" x1="7.99996" y1="120" x2="143.143" y2="61.0972" gradientUnits="userSpaceOnUse">
<stop stop-color="#0357D1"/>
<stop offset="1" stop-color="#27CDFC"/>
</linearGradient>
<linearGradient id="paint12_linear_644_96" x1="7.99996" y1="120" x2="143.143" y2="61.0972" gradientUnits="userSpaceOnUse">
<stop stop-color="#0357D1"/>
<stop offset="1" stop-color="#27CDFC"/>
</linearGradient>
</defs>
</svg>
