<svg width="192" height="192" viewBox="0 0 192 192" fill="none" xmlns="http://www.w3.org/2000/svg">
<path d="M55.1458 8.4019C67.3111 -1.75667 85.7489 -2.79761 98.9923 5.79328C110.079 12.6785 117.136 25.6965 117.124 38.9654C117.136 51.0804 117.234 63.1955 117.087 75.2979C117.369 81.832 109.234 85.9958 104.187 82.0954C90.6003 73.4544 72.873 72.3382 58.2821 78.9851C46.8518 84.0644 37.3573 93.6085 32.3343 105.31C26.4661 118.666 26.5151 134.632 32.6651 147.875C39.3419 162.737 53.3081 173.911 69.0507 176.821C82.2083 179.442 96.297 176.244 107.176 168.268C120.542 158.699 129.167 142.219 128.664 125.439C128.652 122.241 128.125 118.365 130.906 116.133C134.667 112.358 142.006 114.904 142.41 120.372C144.444 140.087 136.799 160.429 122.686 173.936C109.001 187.343 89.3262 193.953 70.5454 191.494C53.1121 189.525 36.8305 179.618 26.4783 165.17C15.9547 150.785 11.8506 131.847 15.0726 114.227C17.9271 97.6719 27.4339 82.6472 40.6406 72.7395C40.6773 61.4647 40.6038 50.19 40.6528 38.9152C40.6651 27.189 46.1535 15.6508 55.1458 8.4019ZM64.5178 19.1248C58.4413 23.6523 54.6802 31.2273 54.6925 38.9278C54.619 47.5814 54.717 56.235 54.6557 64.8885C70.1166 58.7182 87.7826 58.9063 103.145 65.3024C103.035 56.1095 103.256 46.9292 103.035 37.7489C102.643 27.7157 95.5987 18.435 86.2389 15.4878C78.9863 13.0924 70.6189 14.3967 64.5178 19.1248Z" fill="#BE58EF"/>
<path d="M164.241 30.688C167.243 25.7718 175.476 27.051 176.774 32.7448C178.109 36.8835 174.74 40.1819 172.609 43.242C144.468 81.7191 116.45 120.309 88.2848 158.774C85.5651 163.176 78.6923 162.737 76.2666 158.234C66.6127 144.727 56.8977 131.27 47.3051 117.713C44.2913 114.001 46.227 107.78 50.7721 106.551C53.8104 105.485 57.1672 107.003 58.8701 109.674C66.7965 120.648 74.6249 131.709 82.5391 142.696C109.798 105.372 136.958 67.9863 164.241 30.688Z" fill="#FF4A7E"/>
</svg>
