<svg width="192" height="192" viewBox="0 0 192 192" fill="none" xmlns="http://www.w3.org/2000/svg">
<path d="M7.57081 34.05C7.42081 26.33 14.2408 19.32 21.9908 19.41C34.7708 19.37 47.5608 19.41 60.3508 19.4C57.9008 23.48 55.3208 27.46 52.6908 31.41C43.4408 31.43 34.1908 31.41 24.9408 31.39C23.1708 31.59 20.6008 30.98 19.8608 33.15C18.9208 34.6 19.6408 36.39 19.5708 37.98C19.6808 47.78 19.6108 57.57 19.6008 67.37C15.1008 71.99 11.6308 77.45 7.5608 82.43C7.5408 66.3 7.51081 50.18 7.57081 34.05Z" fill="url(#paint0_linear_641_47)"/>
<path d="M60.3508 19.4C72.0408 19.4 83.7408 19.39 95.4408 19.4C92.8008 23.41 90.0608 27.35 87.4908 31.41C75.8908 31.42 64.2908 31.41 52.6908 31.41C55.3208 27.46 57.9008 23.48 60.3508 19.4Z" fill="url(#paint1_linear_641_47)"/>
<path d="M95.4408 19.4C105.091 19.39 114.751 19.39 124.401 19.4C121.811 23.39 119.201 27.37 116.681 31.41C106.951 31.42 97.2208 31.41 87.4908 31.41C90.0608 27.35 92.8008 23.41 95.4408 19.4Z" fill="url(#paint2_linear_641_47)"/>
<path d="M20.3408 115.13C32.9708 115.75 45.6408 115.22 58.3008 115.4C55.6908 119.31 53.0808 123.22 50.5608 127.18C40.3208 127.2 30.0808 127.26 19.8508 127.24C17.4808 126.87 15.3208 125.74 13.3308 124.45C15.5208 121.24 17.8608 118.12 20.3408 115.13Z" fill="url(#paint3_linear_641_47)"/>
<path d="M124.401 19.4C136.921 19.42 149.441 19.36 161.971 19.42C165.501 19.36 168.691 21.07 171.511 23.04C169.411 26.78 167.111 30.42 164.341 33.71C163.591 31.96 161.901 31.22 160.071 31.42C145.611 31.38 131.141 31.43 116.681 31.41C119.201 27.37 121.811 23.39 124.401 19.4Z" fill="url(#paint4_linear_641_47)"/>
<path d="M171.511 23.04C173.931 25.87 176.101 29.18 176.201 33.04C176.391 39.69 176.271 46.35 176.261 53.01C176.481 56.09 174.111 59.21 170.971 59.46C167.751 59.95 164.361 57.36 164.301 54.04C164.111 47.61 164.191 41.18 164.321 34.75L164.341 33.71C167.111 30.42 169.411 26.78 171.511 23.04Z" fill="url(#paint5_linear_641_47)"/>
<path d="M101.691 77.75C109.091 67.18 121.201 60.06 134.051 58.83C142.571 57.89 151.241 59.63 158.941 63.32C156.881 66.18 154.871 69.07 152.901 71.99C142.501 67.36 129.851 68.12 120.231 74.26C108.171 81.54 101.441 96.51 104.201 110.36C104.341 111.32 104.531 112.28 104.761 113.23C101.761 116.05 99.2608 119.36 97.3508 123.01C96.4008 120.84 95.5808 118.62 94.8408 116.38C91.2708 103.34 93.6908 88.71 101.691 77.75Z" fill="url(#paint6_linear_641_47)"/>
<path d="M152.901 71.99C154.871 69.07 156.881 66.18 158.941 63.32C165.331 66.67 170.941 71.41 175.301 77.17C173.351 80.23 171.091 83.1 168.491 85.64C164.751 79.71 159.271 74.91 152.901 71.99Z" fill="url(#paint7_linear_641_47)"/>
<path d="M143.261 90.22C146.591 87.19 149.361 83.49 153.071 80.91C156.881 78.92 161.541 83.08 160.221 87.11C158.191 91.51 153.121 93.7 151.011 97.98C154.021 102.48 161.361 105.35 159.681 111.8C157.671 113.91 154.241 115.71 151.691 113.34C146.981 109.07 142.521 104.48 138.231 99.79C136.841 95.58 140.721 92.82 143.261 90.22Z" fill="url(#paint8_linear_641_47)"/>
<path d="M7.5608 82.43C11.6308 77.45 15.1008 71.99 19.6008 67.37C19.6508 81.61 19.6108 95.85 19.6108 110.09C19.5808 111.8 19.9308 113.47 20.3408 115.13C17.8608 118.12 15.5208 121.24 13.3308 124.45C12.5208 123.76 11.7408 123.05 10.9808 122.32C8.6708 119.44 7.44081 115.75 7.54081 112.06C7.54081 102.18 7.5408 92.3 7.5608 82.43Z" fill="url(#paint9_linear_641_47)"/>
<path d="M175.301 77.17C179.811 83.53 182.791 90.96 183.791 98.71C185.321 112.45 180.471 126.85 170.491 136.5C157.601 149.73 136.321 153.39 119.681 145.49C121.631 142.59 123.551 139.65 125.421 136.69C132.321 139.46 140.081 140.03 147.291 138.18C161.061 134.86 171.921 122.36 173.431 108.3C174.431 100.45 172.591 92.38 168.491 85.64C171.091 83.1 173.351 80.23 175.301 77.17Z" fill="url(#paint10_linear_641_47)"/>
<path d="M118.121 102.94C116.101 98.95 120.811 94.13 124.851 96.08C128.251 98.26 130.681 101.62 133.651 104.32C136.231 107.11 140.271 109.61 139.711 113.98C136.741 117.89 133.001 121.1 129.641 124.64C127.861 126.36 126.231 128.37 123.961 129.45C121.791 130.29 119.771 128.79 117.911 127.89C117.301 125.8 116.741 123.24 118.341 121.45C121.071 118.28 124.251 115.54 127.041 112.43C124.071 109.27 120.471 106.61 118.121 102.94Z" fill="url(#paint11_linear_641_47)"/>
<path d="M97.3508 123.01C99.2608 119.36 101.761 116.05 104.761 113.23C107.601 123.68 115.401 132.57 125.421 136.69C123.551 139.65 121.631 142.59 119.681 145.49C109.881 140.95 101.881 132.79 97.3508 123.01Z" fill="url(#paint12_linear_641_47)"/>
<path d="M81.4008 131.96C83.5708 128.53 85.9208 125.22 88.4408 122.04C90.5708 127.35 94.5308 131.56 97.4008 136.4C98.8408 144.13 97.1808 152.14 98.3008 159.92C99.3008 160.89 100.761 160.66 102.021 160.74C107.681 160.86 113.361 160.47 119.011 160.9C122.431 161.24 124.211 164.74 124.301 167.86C123.261 169.54 122.291 171.54 120.341 172.32C118.301 172.99 116.111 172.79 114.001 172.85C98.0008 172.73 81.9908 172.9 65.9908 172.77C63.1608 173.05 61.2408 170.79 59.7508 168.74C59.2308 165.3 61.2208 161.31 64.9508 160.91C71.5408 160.34 78.1908 161.14 84.7708 160.53C86.2508 159.52 85.6808 157.52 85.8508 156.01C85.7408 150.98 86.0308 145.94 85.6808 140.92C84.9208 137.67 82.7508 134.98 81.4008 131.96Z" fill="url(#paint13_linear_641_47)"/>
<path d="M58.3008 115.4C65.8708 115.4 73.4508 115.41 81.0208 115.37C82.7908 115.44 85.0408 115.19 86.1708 116.88C87.1808 118.47 87.7408 120.3 88.4408 122.04C85.9208 125.22 83.5708 128.53 81.4008 131.96C81.2108 131.63 80.8308 130.95 80.6408 130.62C79.9608 129.53 79.3408 128.35 78.3008 127.54C69.0708 126.85 59.8008 127.4 50.5608 127.18C53.0808 123.22 55.6908 119.31 58.3008 115.4Z" fill="url(#paint14_linear_641_47)"/>
<path d="M60.3508 19.4C47.5608 19.41 34.7708 19.37 21.9908 19.41C14.2408 19.32 7.42081 26.33 7.57081 34.05C7.51081 50.18 7.5408 66.3 7.5608 82.43M60.3508 19.4C57.9008 23.48 55.3208 27.46 52.6908 31.41M60.3508 19.4C72.0408 19.4 83.7408 19.39 95.4408 19.4M52.6908 31.41C43.4408 31.43 34.1908 31.41 24.9408 31.39C23.1708 31.59 20.6008 30.98 19.8608 33.15C18.9208 34.6 19.6408 36.39 19.5708 37.98C19.6808 47.78 19.6108 57.57 19.6008 67.37M52.6908 31.41C64.2908 31.41 75.8908 31.42 87.4908 31.41M19.6008 67.37C15.1008 71.99 11.6308 77.45 7.5608 82.43M19.6008 67.37C19.6508 81.61 19.6108 95.85 19.6108 110.09C19.5808 111.8 19.9308 113.47 20.3408 115.13M7.5608 82.43C7.5408 92.3 7.54081 102.18 7.54081 112.06C7.44081 115.75 8.6708 119.44 10.9808 122.32C11.7408 123.05 12.5208 123.76 13.3308 124.45M95.4408 19.4C92.8008 23.41 90.0608 27.35 87.4908 31.41M95.4408 19.4C105.091 19.39 114.751 19.39 124.401 19.4M87.4908 31.41C97.2208 31.41 106.951 31.42 116.681 31.41M124.401 19.4C121.811 23.39 119.201 27.37 116.681 31.41M124.401 19.4C136.921 19.42 149.441 19.36 161.971 19.42C165.501 19.36 168.691 21.07 171.511 23.04M116.681 31.41C131.141 31.43 145.611 31.38 160.071 31.42C161.901 31.22 163.591 31.96 164.341 33.71M20.3408 115.13C32.9708 115.75 45.6408 115.22 58.3008 115.4M20.3408 115.13C17.8608 118.12 15.5208 121.24 13.3308 124.45M58.3008 115.4C55.6908 119.31 53.0808 123.22 50.5608 127.18M58.3008 115.4C65.8708 115.4 73.4508 115.41 81.0208 115.37C82.7908 115.44 85.0408 115.19 86.1708 116.88C87.1808 118.47 87.7408 120.3 88.4408 122.04M50.5608 127.18C40.3208 127.2 30.0808 127.26 19.8508 127.24C17.4808 126.87 15.3208 125.74 13.3308 124.45M50.5608 127.18C59.8008 127.4 69.0708 126.85 78.3008 127.54C79.3408 128.35 79.9608 129.53 80.6408 130.62C80.8308 130.95 81.2108 131.63 81.4008 131.96M171.511 23.04C169.411 26.78 167.111 30.42 164.341 33.71M171.511 23.04C173.931 25.87 176.101 29.18 176.201 33.04C176.391 39.69 176.271 46.35 176.261 53.01C176.481 56.09 174.111 59.21 170.971 59.46C167.751 59.95 164.361 57.36 164.301 54.04C164.111 47.61 164.191 41.18 164.321 34.75L164.341 33.71M158.941 63.32C151.241 59.63 142.571 57.89 134.051 58.83C121.201 60.06 109.091 67.18 101.691 77.75C93.6908 88.71 91.2708 103.34 94.8408 116.38C95.5808 118.62 96.4008 120.84 97.3508 123.01M158.941 63.32C156.881 66.18 154.871 69.07 152.901 71.99M158.941 63.32C165.331 66.67 170.941 71.41 175.301 77.17M152.901 71.99C142.501 67.36 129.851 68.12 120.231 74.26C108.171 81.54 101.441 96.51 104.201 110.36C104.341 111.32 104.531 112.28 104.761 113.23M152.901 71.99C159.271 74.91 164.751 79.71 168.491 85.64M104.761 113.23C101.761 116.05 99.2608 119.36 97.3508 123.01M104.761 113.23C107.601 123.68 115.401 132.57 125.421 136.69M97.3508 123.01C101.881 132.79 109.881 140.95 119.681 145.49M175.301 77.17C173.351 80.23 171.091 83.1 168.491 85.64M175.301 77.17C179.811 83.53 182.791 90.96 183.791 98.71C185.321 112.45 180.471 126.85 170.491 136.5C157.601 149.73 136.321 153.39 119.681 145.49M168.491 85.64C172.591 92.38 174.431 100.45 173.431 108.3C171.921 122.36 161.061 134.86 147.291 138.18C140.081 140.03 132.321 139.46 125.421 136.69M119.681 145.49C121.631 142.59 123.551 139.65 125.421 136.69M81.4008 131.96C83.5708 128.53 85.9208 125.22 88.4408 122.04M81.4008 131.96C82.7508 134.98 84.9208 137.67 85.6808 140.92C86.0308 145.94 85.7408 150.98 85.8508 156.01C85.6808 157.52 86.2508 159.52 84.7708 160.53C78.1908 161.14 71.5408 160.34 64.9508 160.91C61.2208 161.31 59.2308 165.3 59.7508 168.74C61.2408 170.79 63.1608 173.05 65.9908 172.77C81.9908 172.9 98.0008 172.73 114.001 172.85C116.111 172.79 118.301 172.99 120.341 172.32C122.291 171.54 123.261 169.54 124.301 167.86C124.211 164.74 122.431 161.24 119.011 160.9C113.361 160.47 107.681 160.86 102.021 160.74C100.761 160.66 99.3008 160.89 98.3008 159.92C97.1808 152.14 98.8408 144.13 97.4008 136.4C94.5308 131.56 90.5708 127.35 88.4408 122.04M143.261 90.22C146.591 87.19 149.361 83.49 153.071 80.91C156.881 78.92 161.541 83.08 160.221 87.11C158.191 91.51 153.121 93.7 151.011 97.98C154.021 102.48 161.361 105.35 159.681 111.8C157.671 113.91 154.241 115.71 151.691 113.34C146.981 109.07 142.521 104.48 138.231 99.79C136.841 95.58 140.721 92.82 143.261 90.22ZM118.121 102.94C116.101 98.95 120.811 94.13 124.851 96.08C128.251 98.26 130.681 101.62 133.651 104.32C136.231 107.11 140.271 109.61 139.711 113.98C136.741 117.89 133.001 121.1 129.641 124.64C127.861 126.36 126.231 128.37 123.961 129.45C121.791 130.29 119.771 128.79 117.911 127.89C117.301 125.8 116.741 123.24 118.341 121.45C121.071 118.28 124.251 115.54 127.041 112.43C124.071 109.27 120.471 106.61 118.121 102.94Z" stroke="url(#paint15_linear_641_47)" stroke-width="4"/>
<defs>
<linearGradient id="paint0_linear_641_47" x1="39.5318" y1="154.733" x2="179.202" y2="14.544" gradientUnits="userSpaceOnUse">
<stop stop-color="#FE0844"/>
<stop offset="1" stop-color="#FEB302"/>
</linearGradient>
<linearGradient id="paint1_linear_641_47" x1="39.5318" y1="154.733" x2="179.202" y2="14.544" gradientUnits="userSpaceOnUse">
<stop stop-color="#FE0844"/>
<stop offset="1" stop-color="#FEB302"/>
</linearGradient>
<linearGradient id="paint2_linear_641_47" x1="39.5318" y1="154.733" x2="179.202" y2="14.544" gradientUnits="userSpaceOnUse">
<stop stop-color="#FE0844"/>
<stop offset="1" stop-color="#FEB302"/>
</linearGradient>
<linearGradient id="paint3_linear_641_47" x1="39.5318" y1="154.733" x2="179.202" y2="14.544" gradientUnits="userSpaceOnUse">
<stop stop-color="#FE0844"/>
<stop offset="1" stop-color="#FEB302"/>
</linearGradient>
<linearGradient id="paint4_linear_641_47" x1="39.5318" y1="154.733" x2="179.202" y2="14.544" gradientUnits="userSpaceOnUse">
<stop stop-color="#FE0844"/>
<stop offset="1" stop-color="#FEB302"/>
</linearGradient>
<linearGradient id="paint5_linear_641_47" x1="39.5318" y1="154.733" x2="179.202" y2="14.544" gradientUnits="userSpaceOnUse">
<stop stop-color="#FE0844"/>
<stop offset="1" stop-color="#FEB302"/>
</linearGradient>
<linearGradient id="paint6_linear_641_47" x1="39.5318" y1="154.733" x2="179.202" y2="14.544" gradientUnits="userSpaceOnUse">
<stop stop-color="#FE0844"/>
<stop offset="1" stop-color="#FEB302"/>
</linearGradient>
<linearGradient id="paint7_linear_641_47" x1="39.5318" y1="154.733" x2="179.202" y2="14.544" gradientUnits="userSpaceOnUse">
<stop stop-color="#FE0844"/>
<stop offset="1" stop-color="#FEB302"/>
</linearGradient>
<linearGradient id="paint8_linear_641_47" x1="39.5318" y1="154.733" x2="179.202" y2="14.544" gradientUnits="userSpaceOnUse">
<stop stop-color="#FE0844"/>
<stop offset="1" stop-color="#FEB302"/>
</linearGradient>
<linearGradient id="paint9_linear_641_47" x1="39.5318" y1="154.733" x2="179.202" y2="14.544" gradientUnits="userSpaceOnUse">
<stop stop-color="#FE0844"/>
<stop offset="1" stop-color="#FEB302"/>
</linearGradient>
<linearGradient id="paint10_linear_641_47" x1="39.5318" y1="154.733" x2="179.202" y2="14.544" gradientUnits="userSpaceOnUse">
<stop stop-color="#FE0844"/>
<stop offset="1" stop-color="#FEB302"/>
</linearGradient>
<linearGradient id="paint11_linear_641_47" x1="39.5318" y1="154.733" x2="179.202" y2="14.544" gradientUnits="userSpaceOnUse">
<stop stop-color="#FE0844"/>
<stop offset="1" stop-color="#FEB302"/>
</linearGradient>
<linearGradient id="paint12_linear_641_47" x1="39.5318" y1="154.733" x2="179.202" y2="14.544" gradientUnits="userSpaceOnUse">
<stop stop-color="#FE0844"/>
<stop offset="1" stop-color="#FEB302"/>
</linearGradient>
<linearGradient id="paint13_linear_641_47" x1="39.5318" y1="154.733" x2="179.202" y2="14.544" gradientUnits="userSpaceOnUse">
<stop stop-color="#FE0844"/>
<stop offset="1" stop-color="#FEB302"/>
</linearGradient>
<linearGradient id="paint14_linear_641_47" x1="39.5318" y1="154.733" x2="179.202" y2="14.544" gradientUnits="userSpaceOnUse">
<stop stop-color="#FE0844"/>
<stop offset="1" stop-color="#FEB302"/>
</linearGradient>
<linearGradient id="paint15_linear_641_47" x1="39.5318" y1="154.733" x2="179.202" y2="14.544" gradientUnits="userSpaceOnUse">
<stop stop-color="#FE0844"/>
<stop offset="1" stop-color="#FEB302"/>
</linearGradient>
</defs>
</svg>
