<svg width="128" height="128" viewBox="0 0 128 128" fill="none" xmlns="http://www.w3.org/2000/svg">
<path fill-rule="evenodd" clip-rule="evenodd" d="M25.0557 8.05252C16.0261 8.17321 8.02746 16.1903 8.02042 25.2229C8.0071 41.1943 8.00763 57.1684 8.00817 73.1435C8.00849 82.7382 8.00881 92.3333 8.00613 101.928C7.80713 109.094 12.4712 116.337 19.3251 118.644C21.97 119.354 23.8541 117.046 24.5722 114.809C24.1598 113.19 23.5981 111.416 21.9202 110.705C18.8986 109.201 16.4385 106.147 16.5665 102.646C16.5765 90.4994 16.5739 78.3516 16.5714 66.2029C16.5685 52.5483 16.5656 38.8926 16.5806 25.237C16.5024 20.1811 21.5007 16.0695 26.4207 16.4388C36.7795 16.4475 47.1394 16.4456 57.4995 16.4436H57.4996H57.4997H57.5009C72.462 16.4408 87.4234 16.4379 102.382 16.4673C107.324 16.4956 111.796 20.9266 111.561 25.9259C111.583 51.2836 111.59 76.6487 111.561 102.013C111.633 105.095 110.075 108.135 107.516 109.853C104.967 111.664 101.853 111.579 98.8234 111.497H98.8232H98.8231C97.9325 111.472 97.0492 111.448 96.1899 111.473C96.2014 103.871 96.1977 96.2683 96.1941 88.6654V88.6653V88.6651V88.6599C96.1887 77.564 96.1833 66.4677 96.2254 55.3739L96.593 55.3889H96.593C98.7471 55.4777 100.912 55.567 103.05 55.2177C100.653 54.9852 98.2562 55.1207 95.8589 55.2562C93.5709 55.3856 91.2828 55.5149 88.9947 55.3242C86.4494 55.1112 83.8969 55.0899 81.3445 55.1679C83.0661 55.5245 84.8203 55.4852 86.5694 55.446C86.9801 55.4368 87.3905 55.4277 87.8002 55.4236C87.8334 67.8929 87.8287 80.3621 87.8239 92.8314C87.8216 99.0522 87.8192 105.273 87.8215 111.494H87.8106H87.8055C80.7011 111.501 73.6037 111.507 66.5062 111.486C66.4849 103.334 66.4919 95.1895 66.5062 87.0375C65.038 86.9587 63.5697 86.9196 62.1025 86.9211C63.7901 86.9057 65.4794 86.9438 67.1686 87.0337C67.7997 87.0302 68.4456 87.0643 69.096 87.0988C71.0412 87.2018 73.0273 87.3069 74.7811 86.4116C77.5135 84.7647 76.9642 80.2409 73.9535 79.2443C72.4485 78.8727 70.8948 78.9057 69.345 78.9386H69.3448C68.5951 78.9545 67.8464 78.9704 67.1044 78.9404C67.1044 74.8926 67.1052 70.8447 67.106 66.7969V66.7968C67.1076 58.7012 67.1091 50.6056 67.1044 42.5099C67.3327 40.2904 65.5991 38.0427 63.2947 37.9508C61.1186 37.7176 58.9498 39.5836 58.9782 41.7748C58.9212 48.8614 58.9293 55.9479 58.9375 63.0344C58.9436 68.3458 58.9498 73.6572 58.9284 78.9686C58.2048 78.9929 57.4742 78.9731 56.7428 78.9533C55.1305 78.9096 53.5139 78.8659 51.958 79.2938C49.1113 80.3823 48.6405 84.6022 51.1519 86.3127C52.8303 87.3364 54.8095 87.214 56.7465 87.0943L56.7472 87.0942C57.2282 87.0645 57.7066 87.0349 58.1771 87.0231L58.1734 87.0233C58.3379 92.263 58.3174 97.5056 58.2968 102.749V102.749V102.75V102.75V102.751C58.2854 105.665 58.274 108.579 58.2944 111.494C52.2011 111.507 46.1151 111.515 40.029 111.479C40.0445 105.174 40.041 98.8689 40.0375 92.5632V92.5628V92.5625C40.0331 84.5964 40.0287 76.6293 40.0627 68.6601C42.3637 68.5351 44.6718 68.5001 46.9751 68.5472C49.4764 67.5787 50.3815 64.0633 48.55 62.0545C47.0717 60.3803 44.9041 60.4959 42.7877 60.6088H42.7876C41.884 60.657 40.9896 60.7047 40.1623 60.6124C40.1532 58.1609 40.1582 55.7094 40.1632 53.2578C40.17 49.9198 40.1768 46.5817 40.1481 43.2436C40.1765 41.3999 39.6206 39.2548 37.8177 38.4155C35.3876 36.9519 31.9313 39.0109 31.9669 41.8375C31.8998 45.3093 31.9114 48.781 31.923 52.2516V52.2517V52.2519C31.9324 55.0493 31.9417 57.846 31.9099 60.6412C31.0941 60.7256 30.2009 60.6741 29.2941 60.6219C27.0401 60.4921 24.7017 60.3574 23.2586 62.2913C21.6479 64.3503 22.7382 67.2558 24.7622 68.5615C27.0449 68.4155 29.326 68.5384 31.6079 68.6613L31.6856 68.6655C31.7675 77.5863 31.7548 86.5092 31.742 95.4319V95.4324V95.4325V95.4326C31.7325 102.115 31.7229 108.797 31.7532 115.478C31.6038 117.941 33.8719 120.241 36.3675 119.964C44.58 119.939 52.7934 119.958 61.0071 119.976H61.0074H61.0077C75.7974 120.009 90.588 120.042 105.375 119.823C113.347 118.218 120.05 111.011 119.986 102.71C120.008 76.89 120.001 51.0636 119.986 25.237C119.916 18.2354 115.131 11.6243 108.575 9.2029C105.753 8.05956 102.667 7.96018 99.6594 8.00992C88.7827 8.03163 77.9058 8.02484 67.0296 8.01804C53.0369 8.0093 39.0451 8.00056 25.0557 8.05252ZM95.5004 40.1055C94.2266 37.3418 89.7935 37.1603 88.349 39.8613C87.6091 41.407 87.6769 43.118 87.7443 44.8184C87.7767 45.6364 87.8091 46.4519 87.7513 47.2453C86.9473 47.3237 86.0872 47.2831 85.2184 47.2421C83.1501 47.1444 81.0324 47.0443 79.5041 48.5433C77.5543 50.5813 78.5363 54.2384 81.2617 55.0619C83.8163 54.9852 86.3708 55.0062 88.9183 55.2155C91.2083 55.4029 93.4983 55.2758 95.7882 55.1487C98.1874 55.0155 100.587 54.8823 102.986 55.1109C105.029 53.8964 106.423 51.1885 104.821 49.0738C103.433 47.0213 101.02 47.1279 98.6875 47.231C97.7205 47.2737 96.7671 47.3159 95.906 47.2034C95.8693 46.446 95.8976 45.6748 95.9259 44.9017C95.9855 43.2743 96.0455 41.6386 95.5004 40.1055Z" fill="url(#paint0_linear_678_368)"/>
<path d="M8.02042 25.2229L9.52042 25.2241L9.52042 25.2241L8.02042 25.2229ZM25.0557 8.05252L25.0501 6.55253L25.0429 6.55256L25.0356 6.55266L25.0557 8.05252ZM8.00817 73.1435L9.50817 73.1435L8.00817 73.1435ZM8.00613 101.928L9.50555 101.97L9.50612 101.949L9.50613 101.929L8.00613 101.928ZM19.3251 118.644L18.8465 120.066L18.891 120.081L18.9364 120.093L19.3251 118.644ZM24.5722 114.809L26.0004 115.268L26.1323 114.857L26.0258 114.439L24.5722 114.809ZM21.9202 110.705L21.2516 112.048L21.2928 112.068L21.3352 112.086L21.9202 110.705ZM16.5665 102.646L18.0655 102.701L18.0664 102.674L18.0665 102.647L16.5665 102.646ZM16.5714 66.2029L15.0714 66.2032L15.0714 66.2032L16.5714 66.2029ZM16.5806 25.237L18.0806 25.2386L18.0807 25.2262L18.0805 25.2138L16.5806 25.237ZM26.4207 16.4388L26.3084 17.9346L26.3639 17.9388L26.4195 17.9388L26.4207 16.4388ZM57.4995 16.4436L57.4995 14.9436L57.4992 14.9436L57.4995 16.4436ZM57.5009 16.4436L57.5009 17.9436L57.5012 17.9436L57.5009 16.4436ZM102.382 16.4673L102.391 14.9673L102.385 14.9673L102.382 16.4673ZM111.561 25.9259L110.063 25.8556L110.061 25.8913L110.061 25.9271L111.561 25.9259ZM111.561 102.013L110.061 102.012L110.061 102.03L110.062 102.048L111.561 102.013ZM107.516 109.853L106.68 108.608L106.663 108.619L106.647 108.631L107.516 109.853ZM98.8234 111.497L98.8643 109.997L98.8438 109.997H98.8234V111.497ZM98.8231 111.497L98.7822 112.996L98.8026 112.997H98.8231V111.497ZM96.1899 111.473L94.6899 111.47L94.6875 113.016L96.2323 112.972L96.1899 111.473ZM96.1941 88.6654L94.6941 88.6654L94.6941 88.6661L96.1941 88.6654ZM96.1941 88.6599L97.6941 88.6599L97.6941 88.6592L96.1941 88.6599ZM96.2254 55.3739L96.2869 53.8751L94.7313 53.8113L94.7254 55.3682L96.2254 55.3739ZM96.593 55.3889L96.5315 56.8877L96.5622 56.8889H96.593V55.3889ZM96.593 55.3889L96.6548 53.8902L96.6239 53.8889H96.593V55.3889ZM103.05 55.2177L103.292 56.6981L103.195 53.7248L103.05 55.2177ZM95.8589 55.2562L95.7743 53.7586L95.7742 53.7586L95.8589 55.2562ZM88.9947 55.3242L88.8696 56.819L88.8702 56.8191L88.9947 55.3242ZM81.3445 55.1679L81.2986 53.6686L81.0403 56.6368L81.3445 55.1679ZM86.5694 55.446L86.603 56.9457L86.603 56.9457L86.5694 55.446ZM87.8002 55.4236L89.3002 55.4196L89.2962 53.9087L87.7853 53.9237L87.8002 55.4236ZM87.8239 92.8314L89.3239 92.832L89.3239 92.832L87.8239 92.8314ZM87.8215 111.494V112.994H89.3221L89.3215 111.493L87.8215 111.494ZM87.8055 111.494L87.8055 109.994L87.8041 109.994L87.8055 111.494ZM66.5062 111.486L65.0062 111.49L65.0101 112.982L66.5017 112.986L66.5062 111.486ZM66.5062 87.0375L68.0062 87.0402L68.0087 85.616L66.5866 85.5397L66.5062 87.0375ZM62.1025 86.9211L62.0888 85.4212L62.104 88.4211L62.1025 86.9211ZM67.1686 87.0337L67.0889 88.5316L67.1329 88.5339L67.177 88.5337L67.1686 87.0337ZM69.096 87.0988L69.0167 88.5967L69.0167 88.5967L69.096 87.0988ZM74.7811 86.4116L75.4631 87.7476L75.5101 87.7236L75.5554 87.6963L74.7811 86.4116ZM73.9535 79.2443L74.4249 77.8203L74.3696 77.802L74.313 77.788L73.9535 79.2443ZM69.345 78.9386V80.4386H69.3609L69.3768 80.4382L69.345 78.9386ZM69.3448 78.9386V77.4386H69.3289L69.313 77.4389L69.3448 78.9386ZM67.1044 78.9404H65.6044V80.3811L67.0439 80.4392L67.1044 78.9404ZM67.106 66.7969L68.606 66.7971V66.7969H67.106ZM67.106 66.7968L65.606 66.7965V66.7968H67.106ZM67.1044 42.5099L65.6123 42.3565L65.6044 42.4334L65.6044 42.5108L67.1044 42.5099ZM63.2947 37.9508L63.1348 39.4423L63.1848 39.4477L63.235 39.4497L63.2947 37.9508ZM58.9782 41.7748L60.4782 41.7869L60.4783 41.7711L60.4781 41.7553L58.9782 41.7748ZM58.9375 63.0344L60.4375 63.0327L60.4375 63.0327L58.9375 63.0344ZM58.9284 78.9686L58.9787 80.4678L60.4226 80.4193L60.4284 78.9747L58.9284 78.9686ZM56.7428 78.9533L56.7834 77.4539L56.7834 77.4539L56.7428 78.9533ZM51.958 79.2938L51.5602 77.8475L51.4901 77.8668L51.4222 77.8927L51.958 79.2938ZM51.1519 86.3127L50.3075 87.5525L50.3386 87.5737L50.3708 87.5933L51.1519 86.3127ZM56.7465 87.0943L56.6544 85.5971L56.6539 85.5971L56.7465 87.0943ZM56.7472 87.0942L56.8394 88.5914L56.8398 88.5914L56.7472 87.0942ZM58.1771 87.0231L58.2546 88.5211L58.1395 85.5236L58.1771 87.0231ZM58.1734 87.0233L58.0959 85.5253L56.628 85.6013L56.6741 87.0704L58.1734 87.0233ZM58.2968 102.749L56.7968 102.743V102.749H58.2968ZM58.2968 102.751L59.7968 102.757V102.751H58.2968ZM58.2944 111.494L58.2977 112.994L59.8049 112.99L59.7943 111.483L58.2944 111.494ZM40.029 111.479L38.529 111.476L38.5253 112.971L40.0202 112.979L40.029 111.479ZM40.0375 92.5632L38.5375 92.5632L38.5375 92.564L40.0375 92.5632ZM40.0375 92.5625L41.5375 92.5625L41.5375 92.5617L40.0375 92.5625ZM40.0627 68.6601L39.9813 67.1623L38.5687 67.2391L38.5627 68.6537L40.0627 68.6601ZM46.9751 68.5472L46.9444 70.0469L47.2405 70.053L47.5167 69.946L46.9751 68.5472ZM48.55 62.0545L47.4256 63.0473L47.4335 63.0563L47.4416 63.0651L48.55 62.0545ZM42.7877 60.6088V62.1088H42.8276L42.8676 62.1067L42.7877 60.6088ZM42.7876 60.6088V59.1088H42.7476L42.7077 59.111L42.7876 60.6088ZM40.1623 60.6124L38.6623 60.618L38.6672 61.9549L39.9959 62.1032L40.1623 60.6124ZM40.1632 53.2578L38.6632 53.2548L38.6632 53.2548L40.1632 53.2578ZM40.1481 43.2436L38.6482 43.2205L38.648 43.2385L38.6481 43.2565L40.1481 43.2436ZM37.8177 38.4155L37.0438 39.7004L37.1122 39.7416L37.1846 39.7753L37.8177 38.4155ZM31.9669 41.8375L33.4666 41.8665L33.467 41.8426L33.4667 41.8187L31.9669 41.8375ZM31.923 52.2516L33.423 52.2516L33.423 52.2466L31.923 52.2516ZM31.923 52.2519L30.423 52.2519L30.423 52.2569L31.923 52.2519ZM31.9099 60.6412L32.0642 62.1332L33.3946 61.9956L33.4098 60.6583L31.9099 60.6412ZM29.2941 60.6219L29.3803 59.1244L29.3803 59.1244L29.2941 60.6219ZM23.2586 62.2913L24.44 63.2154L24.4505 63.202L24.4607 63.1884L23.2586 62.2913ZM24.7622 68.5615L23.949 69.822L24.3645 70.09L24.8579 70.0585L24.7622 68.5615ZM31.6079 68.6613L31.5272 70.1591L31.5272 70.1591L31.6079 68.6613ZM31.6856 68.6655L33.1855 68.6517L33.1726 67.2434L31.7663 67.1677L31.6856 68.6655ZM31.742 95.4319L30.242 95.4298V95.4319H31.742ZM31.742 95.4326L33.242 95.4347V95.4326H31.742ZM31.7532 115.478L33.2504 115.568L33.2534 115.52L33.2532 115.471L31.7532 115.478ZM36.3675 119.964L36.3629 118.464L36.2822 118.465L36.2019 118.473L36.3675 119.964ZM61.0071 119.976L61.0037 121.476H61.0071V119.976ZM61.0077 119.976L61.0111 118.476H61.0077V119.976ZM105.375 119.823L105.398 121.323L105.536 121.321L105.672 121.294L105.375 119.823ZM119.986 102.71L118.486 102.708L118.487 102.721L119.986 102.71ZM119.986 25.237L121.486 25.2361L121.486 25.229L121.486 25.2219L119.986 25.237ZM108.575 9.2029L108.012 10.5931L108.033 10.6019L108.055 10.61L108.575 9.2029ZM99.6594 8.00992L99.6624 9.50992L99.6733 9.5099L99.6843 9.50972L99.6594 8.00992ZM67.0296 8.01804L67.0306 6.51804L67.0296 8.01804ZM88.349 39.8613L87.0263 39.1539L87.0105 39.1834L86.996 39.2136L88.349 39.8613ZM95.5004 40.1055L96.9137 39.603L96.891 39.5391L96.8627 39.4776L95.5004 40.1055ZM87.7443 44.8184L89.2431 44.759L89.2431 44.759L87.7443 44.8184ZM87.7513 47.2453L87.897 48.7382L89.1556 48.6154L89.2474 47.3541L87.7513 47.2453ZM85.2184 47.2421L85.1477 48.7404L85.1477 48.7404L85.2184 47.2421ZM79.5041 48.5433L78.4538 47.4724L78.4367 47.4891L78.4202 47.5064L79.5041 48.5433ZM81.2617 55.0619L80.8278 56.4978L81.0621 56.5686L81.3067 56.5612L81.2617 55.0619ZM88.9183 55.2155L88.7954 56.7105L88.7959 56.7105L88.9183 55.2155ZM95.7882 55.1487L95.7051 53.651L95.7051 53.651L95.7882 55.1487ZM102.986 55.1109L102.843 56.6041L103.331 56.6506L103.752 56.4003L102.986 55.1109ZM104.821 49.0738L103.579 49.9142L103.601 49.9474L103.625 49.9794L104.821 49.0738ZM98.6875 47.231L98.7538 48.7295L98.7538 48.7295L98.6875 47.231ZM95.906 47.2034L94.4078 47.2759L94.4684 48.5283L95.7117 48.6907L95.906 47.2034ZM95.9259 44.9017L94.4269 44.8468L94.4269 44.8468L95.9259 44.9017ZM9.52042 25.2241C9.52681 17.0207 16.8571 9.66224 25.0757 9.55239L25.0356 6.55266C15.195 6.68418 6.52811 15.3599 6.52042 25.2217L9.52042 25.2241ZM9.50817 73.1435C9.50763 57.1682 9.5071 41.1948 9.52042 25.2241L6.52042 25.2216C6.5071 41.1938 6.50763 57.1685 6.50817 73.1436L9.50817 73.1435ZM9.50613 101.929C9.50881 92.3334 9.50849 82.7381 9.50817 73.1435L6.50817 73.1436C6.50849 82.7383 6.50881 92.3332 6.50613 101.928L9.50613 101.929ZM19.8038 117.223C13.6231 115.142 9.3234 108.529 9.50555 101.97L6.50671 101.887C6.29086 109.658 11.3193 117.532 18.8465 120.066L19.8038 117.223ZM23.144 114.351C22.8459 115.28 22.3228 116.152 21.6922 116.695C21.1061 117.2 20.473 117.399 19.7139 117.196L18.9364 120.093C20.8221 120.599 22.4535 119.999 23.6501 118.968C24.8024 117.976 25.5804 116.576 26.0004 115.268L23.144 114.351ZM21.3352 112.086C22.2446 112.471 22.6829 113.469 23.1187 115.18L26.0258 114.439C25.6366 112.911 24.9516 110.36 22.5051 109.324L21.3352 112.086ZM15.0675 102.591C14.9118 106.852 17.8757 110.367 21.2516 112.048L22.5887 109.362C19.9214 108.034 17.9653 105.442 18.0655 102.701L15.0675 102.591ZM15.0714 66.2032C15.0739 78.352 15.0765 90.4991 15.0665 102.645L18.0665 102.647C18.0765 90.4998 18.0739 78.3511 18.0714 66.2025L15.0714 66.2032ZM15.0806 25.2353C15.0656 38.8921 15.0685 52.5487 15.0714 66.2032L18.0714 66.2025C18.0685 52.5478 18.0656 38.8931 18.0806 25.2386L15.0806 25.2353ZM26.533 14.943C23.6285 14.725 20.7631 15.8262 18.6418 17.6718C16.5156 19.5216 15.0337 22.2139 15.0808 25.2602L18.0805 25.2138C18.0494 23.2042 19.0275 21.3127 20.6109 19.9351C22.1992 18.5532 24.293 17.7833 26.3084 17.9346L26.533 14.943ZM57.4992 14.9436C47.139 14.9456 36.7798 14.9475 26.422 14.9388L26.4195 17.9388C36.7791 17.9475 47.1398 17.9456 57.4998 17.9436L57.4992 14.9436ZM57.4996 14.9436H57.4995V17.9436H57.4996V14.9436ZM57.4997 14.9436H57.4996V17.9436H57.4997V14.9436ZM57.5009 14.9436H57.4997V17.9436H57.5009V14.9436ZM102.385 14.9673C87.4245 14.9379 72.4614 14.9408 57.5006 14.9436L57.5012 17.9436C72.4625 17.9408 87.4224 17.9379 102.379 17.9673L102.385 14.9673ZM113.06 25.9962C113.337 20.0947 108.133 15.0002 102.391 14.9673L102.374 17.9673C106.514 17.991 110.255 21.7586 110.063 25.8556L113.06 25.9962ZM113.061 102.015C113.09 76.649 113.083 51.2829 113.061 25.9246L110.061 25.9271C110.083 51.2844 110.09 76.6483 110.061 102.012L113.061 102.015ZM108.352 111.099C111.342 109.091 113.144 105.567 113.061 101.979L110.062 102.048C110.121 104.624 108.809 107.178 106.68 108.608L108.352 111.099ZM98.7825 112.996C101.708 113.076 105.359 113.226 108.385 111.076L106.647 108.631C104.575 110.103 101.997 110.083 98.8643 109.997L98.7825 112.996ZM98.8232 112.997H98.8234V109.997H98.8232V112.997ZM98.8231 112.997H98.8232V109.997H98.8231V112.997ZM96.2323 112.972C97.0428 112.949 97.8837 112.972 98.7822 112.996L98.864 109.997C97.9813 109.973 97.0557 109.947 96.1474 109.973L96.2323 112.972ZM94.6941 88.6661C94.6977 96.2693 94.7014 103.87 94.6899 111.47L97.6899 111.475C97.7014 103.872 97.6977 96.2673 97.6941 88.6647L94.6941 88.6661ZM94.6941 88.6653V88.6654H97.6941V88.6653H94.6941ZM94.6941 88.6651V88.6653H97.6941V88.6651H94.6941ZM94.6941 88.6599V88.6651H97.6941V88.6599H94.6941ZM94.7254 55.3682C94.6833 66.4658 94.6887 77.5653 94.6941 88.6607L97.6941 88.6592C97.6887 77.5628 97.6833 66.4697 97.7254 55.3796L94.7254 55.3682ZM96.6544 53.8902L96.2869 53.8751L96.1639 56.8726L96.5315 56.8877L96.6544 53.8902ZM96.593 53.8889H96.593V56.8889H96.593V53.8889ZM102.809 53.7374C100.846 54.0579 98.8349 53.9801 96.6548 53.8902L96.5312 56.8877C98.6593 56.9754 100.978 57.0761 103.292 56.6981L102.809 53.7374ZM95.9436 56.7538C98.3601 56.6172 100.642 56.4911 102.905 56.7107L103.195 53.7248C100.665 53.4792 98.1523 53.6242 95.7743 53.7586L95.9436 56.7538ZM88.8702 56.8191C91.2802 57.0199 93.6731 56.8822 95.9436 56.7538L95.7742 53.7586C93.4687 53.8889 91.2855 54.0099 89.1193 53.8294L88.8702 56.8191ZM81.3903 56.6672C83.9053 56.5904 86.3978 56.6121 88.8696 56.819L89.1199 53.8295C86.501 53.6102 83.8885 53.5895 81.2986 53.6686L81.3903 56.6672ZM86.5358 53.9464C84.7576 53.9862 83.1753 54.0153 81.6487 53.6991L81.0403 56.6368C82.9568 57.0337 84.883 56.9842 86.603 56.9457L86.5358 53.9464ZM87.7853 53.9237C87.3648 53.9278 86.945 53.9373 86.5358 53.9464L86.603 56.9457C87.0153 56.9364 87.4163 56.9275 87.8151 56.9235L87.7853 53.9237ZM89.3239 92.832C89.3287 80.3631 89.3334 67.8915 89.3002 55.4196L86.3002 55.4276C86.3334 67.8942 86.3287 80.3612 86.3239 92.8309L89.3239 92.832ZM89.3215 111.493C89.3192 105.273 89.3216 99.0529 89.3239 92.832L86.3239 92.8309C86.3216 99.0515 86.3192 105.273 86.3215 111.494L89.3215 111.493ZM87.8106 112.994H87.8215V109.994H87.8106V112.994ZM87.8055 112.994H87.8106V109.994H87.8055V112.994ZM66.5017 112.986C73.6027 113.007 80.703 113.001 87.807 112.994L87.8041 109.994C80.6992 110.001 73.6047 110.007 66.5107 109.986L66.5017 112.986ZM65.0062 87.0349C64.9919 95.1875 64.9849 103.335 65.0062 111.49L68.0062 111.482C67.9849 103.334 67.9919 95.1914 68.0062 87.0402L65.0062 87.0349ZM62.104 88.4211C63.5435 88.4196 64.9844 88.458 66.4258 88.5354L66.5866 85.5397C65.0915 85.4595 63.5959 85.4195 62.1009 85.4211L62.104 88.4211ZM67.2484 85.5358C65.5285 85.4443 63.8081 85.4055 62.0888 85.4212L62.1161 88.421C63.7721 88.4059 65.4302 88.4433 67.0889 88.5316L67.2484 85.5358ZM69.1753 85.6009C68.5331 85.5669 67.8428 85.5299 67.1602 85.5337L67.177 88.5337C67.7566 88.5304 68.3581 88.5618 69.0167 88.5967L69.1753 85.6009ZM74.099 85.0756C72.7651 85.7566 71.2017 85.7081 69.1753 85.6009L69.0167 88.5967C70.8808 88.6954 73.2895 88.8572 75.4631 87.7476L74.099 85.0756ZM73.4821 80.6683C74.3222 80.9464 74.9123 81.7495 75.0312 82.7595C75.1499 83.7668 74.7646 84.6701 74.0067 85.1269L75.5554 87.6963C77.5299 86.5062 78.2362 84.3242 78.0106 82.4087C77.7854 80.4959 76.5955 78.5388 74.4249 77.8203L73.4821 80.6683ZM69.3768 80.4382C70.9616 80.4046 72.3141 80.3846 73.594 80.7006L74.313 77.788C72.5829 77.3609 70.8281 77.4068 69.3132 77.4389L69.3768 80.4382ZM69.3448 80.4386H69.345V77.4386H69.3448V80.4386ZM67.0439 80.4392C67.8398 80.4713 68.635 80.454 69.3766 80.4382L69.313 77.4389C68.5553 77.455 67.8529 77.4694 67.1649 77.4417L67.0439 80.4392ZM65.606 66.7966C65.6052 70.8444 65.6044 74.8924 65.6044 78.9404H68.6044C68.6044 74.8927 68.6052 70.845 68.606 66.7971L65.606 66.7966ZM65.606 66.7968V66.7969H68.606V66.7968H65.606ZM65.6044 42.5108C65.6091 50.6058 65.6076 58.7008 65.606 66.7965L68.606 66.7971C68.6076 58.7016 68.6091 50.6054 68.6044 42.5091L65.6044 42.5108ZM63.235 39.4497C64.5861 39.5035 65.7614 40.907 65.6123 42.3565L68.5966 42.6634C68.904 39.6738 66.6121 36.5818 63.3544 36.452L63.235 39.4497ZM60.4781 41.7553C60.4705 41.1706 60.7595 40.5545 61.299 40.0812C61.8399 39.6066 62.5205 39.3765 63.1348 39.4423L63.4546 36.4594C61.8927 36.292 60.4009 36.8782 59.3205 37.8261C58.2386 38.7753 57.4575 40.1878 57.4784 41.7943L60.4781 41.7553ZM60.4375 63.0327C60.4293 55.945 60.4212 48.8654 60.4782 41.7869L57.4783 41.7627C57.4212 48.8573 57.4294 55.9508 57.4375 63.0361L60.4375 63.0327ZM60.4284 78.9747C60.4498 73.6587 60.4436 68.3434 60.4375 63.0327L57.4375 63.0361C57.4436 68.3482 57.4498 73.6557 57.4284 78.9626L60.4284 78.9747ZM56.7022 80.4528C57.4257 80.4724 58.202 80.4939 58.9787 80.4678L58.8781 77.4695C58.2076 77.492 57.5228 77.4739 56.7834 77.4539L56.7022 80.4528ZM52.3558 80.7401C53.6603 80.3813 55.0501 80.408 56.7022 80.4528L56.7834 77.4539C55.2108 77.4113 53.3674 77.3504 51.5602 77.8475L52.3558 80.7401ZM51.9963 85.073C51.2844 84.5881 50.927 83.6994 51.0361 82.7394C51.145 81.7806 51.69 81.0022 52.4937 80.6949L51.4222 77.8927C49.3793 78.6739 48.2656 80.5497 48.0552 82.4007C47.8451 84.2503 48.5079 86.3268 50.3075 87.5525L51.9963 85.073ZM56.6539 85.5971C54.6171 85.7231 53.14 85.7683 51.9329 85.0321L50.3708 87.5933C52.5205 88.9044 55.002 88.705 56.8391 88.5914L56.6539 85.5971ZM56.6551 85.5971L56.6544 85.5971L56.8386 88.5915L56.8394 88.5914L56.6551 85.5971ZM58.1395 85.5236C57.6368 85.5362 57.1307 85.5677 56.6547 85.5971L56.8398 88.5914C57.3258 88.5613 57.7764 88.5337 58.2147 88.5227L58.1395 85.5236ZM58.2509 88.5213L58.2546 88.5211L58.0995 85.5251L58.0959 85.5253L58.2509 88.5213ZM59.7968 102.755C59.8174 97.5159 59.8381 92.2468 59.6727 86.9763L56.6741 87.0704C56.8377 92.2792 56.8174 97.4953 56.7969 102.743L59.7968 102.755ZM59.7968 102.749V102.749H56.7968V102.749H59.7968ZM59.7968 102.75V102.749H56.7968V102.75H59.7968ZM59.7968 102.75V102.75H56.7968V102.75H59.7968ZM59.7968 102.751V102.75H56.7968V102.751H59.7968ZM59.7943 111.483C59.774 108.578 59.7854 105.672 59.7968 102.757L56.7969 102.745C56.7855 105.658 56.774 108.58 56.7944 111.504L59.7943 111.483ZM40.0202 112.979C46.1129 113.015 52.2041 113.007 58.2977 112.994L58.291 109.994C52.1981 110.007 46.1174 110.015 40.0378 109.979L40.0202 112.979ZM38.5375 92.564C38.541 98.8701 38.5445 105.173 38.529 111.476L41.529 111.483C41.5445 105.175 41.541 98.8677 41.5375 92.5623L38.5375 92.564ZM38.5375 92.5628V92.5632H41.5375V92.5628H38.5375ZM38.5375 92.5625V92.5628H41.5375V92.5625H38.5375ZM38.5627 68.6537C38.5287 76.6272 38.5331 84.5978 38.5375 92.5633L41.5375 92.5617C41.5331 84.595 41.5287 76.6315 41.5626 68.6665L38.5627 68.6537ZM47.0057 67.0475C44.6669 66.9997 42.3214 67.0352 39.9813 67.1623L40.144 70.1579C42.4061 70.035 44.6767 70.0005 46.9444 70.0469L47.0057 67.0475ZM47.4416 63.0651C47.9632 63.6373 48.1425 64.4784 47.9314 65.3302C47.7193 66.1859 47.1575 66.8681 46.4334 67.1484L47.5167 69.946C49.294 69.2579 50.4354 67.6981 50.8433 66.0517C51.2522 64.4015 50.9683 62.4805 49.6584 61.0439L47.4416 63.0651ZM42.8676 62.1067C45.156 61.9846 46.5064 62.0063 47.4256 63.0473L49.6744 61.0617C47.6371 58.7543 44.6522 59.0072 42.7078 59.111L42.8676 62.1067ZM42.7876 62.1088H42.7877V59.1088H42.7876V62.1088ZM39.9959 62.1032C40.9688 62.2117 41.9918 62.1534 42.8675 62.1067L42.7077 59.111C41.7761 59.1607 41.0104 59.1978 40.3286 59.1217L39.9959 62.1032ZM38.6632 53.2548C38.6582 55.7056 38.6532 58.1614 38.6623 60.618L41.6623 60.6069C41.6532 58.1604 41.6582 55.7132 41.6632 53.2609L38.6632 53.2548ZM38.6481 43.2565C38.6768 46.5853 38.67 49.9154 38.6632 53.2548L41.6632 53.2609C41.67 49.9242 41.6768 46.5781 41.648 43.2307L38.6481 43.2565ZM37.1846 39.7753C38.1377 40.219 38.6744 41.5198 38.6482 43.2205L41.6479 43.2667C41.6785 41.2799 41.1035 38.2906 38.4508 37.0556L37.1846 39.7753ZM33.4667 41.8187C33.4571 41.0505 33.9286 40.2814 34.7288 39.8102C35.5269 39.3402 36.3996 39.3124 37.0438 39.7004L38.5916 37.1305C36.8057 36.055 34.7352 36.3249 33.2065 37.2252C31.6799 38.1242 30.4411 39.7979 30.467 41.8564L33.4667 41.8187ZM33.423 52.2466C33.4114 48.7732 33.3999 45.3184 33.4666 41.8665L30.4671 41.8086C30.3997 45.3002 30.4114 48.7889 30.423 52.2566L33.423 52.2466ZM33.423 52.2517V52.2516H30.423V52.2517H33.423ZM33.423 52.2519V52.2517H30.423V52.2519H33.423ZM33.4098 60.6583C33.4418 57.8502 33.4324 55.0425 33.423 52.2469L30.423 52.2569C30.4324 55.0562 30.4417 57.8418 30.41 60.6241L33.4098 60.6583ZM29.2078 62.1194C30.086 62.17 31.1057 62.2324 32.0642 62.1332L31.7556 59.1491C31.0825 59.2188 30.3158 59.1783 29.3803 59.1244L29.2078 62.1194ZM24.4607 63.1884C24.9035 62.595 25.4724 62.2993 26.2427 62.1581C27.0798 62.0047 28.0401 62.0522 29.2078 62.1194L29.3803 59.1244C28.294 59.0618 26.9582 58.977 25.7019 59.2073C24.3787 59.4498 23.0568 60.0537 22.0564 61.3941L24.4607 63.1884ZM25.5753 67.3011C24.8685 66.8451 24.3152 66.0945 24.0908 65.3009C23.8738 64.533 23.978 63.8062 24.44 63.2154L22.0771 61.3671C20.9285 62.8354 20.7725 64.5908 21.204 66.117C21.6281 67.6172 22.6319 68.9723 23.949 69.822L25.5753 67.3011ZM31.6886 67.1635C29.4215 67.0413 27.0521 66.9119 24.6664 67.0646L24.8579 70.0585C27.0378 69.919 29.2305 70.0354 31.5272 70.1591L31.6886 67.1635ZM31.7663 67.1677L31.6886 67.1635L31.5272 70.1591L31.6049 70.1633L31.7663 67.1677ZM33.242 95.4341C33.2548 86.5127 33.2675 77.5818 33.1855 68.6517L30.1856 68.6793C30.2675 77.5907 30.2548 86.5057 30.242 95.4298L33.242 95.4341ZM33.242 95.4324V95.4319H30.242V95.4324H33.242ZM33.242 95.4325V95.4324H30.242V95.4325H33.242ZM33.242 95.4326V95.4325H30.242V95.4326H33.242ZM33.2532 115.471C33.223 108.795 33.2325 102.118 33.242 95.4347L30.242 95.4304C30.2325 102.112 30.2229 108.798 30.2532 115.484L33.2532 115.471ZM36.2019 118.473C34.6866 118.642 33.154 117.159 33.2504 115.568L30.2559 115.387C30.0536 118.722 33.0572 121.841 36.533 121.455L36.2019 118.473ZM61.0104 118.476C52.7974 118.458 44.5801 118.439 36.3629 118.464L36.372 121.464C44.5799 121.439 52.7894 121.458 61.0037 121.476L61.0104 118.476ZM61.0074 118.476H61.0071V121.476H61.0074V118.476ZM61.0077 118.476H61.0074V121.476H61.0077V118.476ZM105.353 118.323C90.5807 118.542 75.8029 118.509 61.0111 118.476L61.0043 121.476C75.7919 121.509 90.5953 121.542 105.398 121.323L105.353 118.323ZM118.487 102.721C118.544 110.209 112.443 116.869 105.079 118.353L105.672 121.294C114.25 119.566 121.556 111.813 121.486 102.698L118.487 102.721ZM118.486 25.2378C118.501 51.0642 118.508 76.8898 118.486 102.708L121.486 102.711C121.508 76.8903 121.501 51.063 121.486 25.2361L118.486 25.2378ZM108.055 10.61C114.044 12.822 118.423 18.8907 118.487 25.2521L121.486 25.2219C121.409 17.5802 116.218 10.4267 109.095 7.79581L108.055 10.61ZM99.6843 9.50972C102.677 9.46022 105.494 9.57318 108.012 10.5931L109.138 7.81265C106.012 6.54594 102.657 6.46014 99.6346 6.51013L99.6843 9.50972ZM67.0287 9.51804C77.9046 9.52484 88.7834 9.53163 99.6624 9.50992L99.6565 6.50993C88.782 6.53163 77.9071 6.52484 67.0306 6.51804L67.0287 9.51804ZM25.0612 9.55251C39.0469 9.50057 53.0354 9.5093 67.0287 9.51804L67.0306 6.51804C53.0384 6.5093 39.0434 6.50056 25.0501 6.55253L25.0612 9.55251ZM89.6717 40.5687C90.0627 39.8375 90.9168 39.3958 91.9336 39.4331C92.9531 39.4706 93.7901 39.9783 94.1381 40.7333L96.8627 39.4776C95.9368 37.4689 93.9204 36.5041 92.0438 36.4352C90.1645 36.3661 88.0798 37.1841 87.0263 39.1539L89.6717 40.5687ZM89.2431 44.759C89.1729 42.9871 89.1496 41.6629 89.702 40.509L86.996 39.2136C86.0686 41.1511 86.1809 43.249 86.2455 44.8778L89.2431 44.759ZM89.2474 47.3541C89.3123 46.4621 89.2749 45.5611 89.2431 44.759L86.2455 44.8778C86.2786 45.7116 86.3059 46.4416 86.2553 47.1364L89.2474 47.3541ZM85.1477 48.7404C85.9927 48.7803 86.9652 48.8291 87.897 48.7382L87.6057 45.7524C86.9294 45.8183 86.1817 45.7859 85.2892 45.7437L85.1477 48.7404ZM80.5544 49.6142C81.5369 48.6506 82.9255 48.6354 85.1477 48.7404L85.2892 45.7437C83.3746 45.6533 80.528 45.4381 78.4538 47.4724L80.5544 49.6142ZM81.6956 53.626C80.0197 53.1196 79.4275 50.7932 80.588 49.5802L78.4202 47.5064C75.6811 50.3695 77.053 55.3572 80.8278 56.4978L81.6956 53.626ZM89.0411 53.7206C86.4214 53.5053 83.808 53.4848 81.2167 53.5626L81.3067 56.5612C83.8245 56.4857 86.3201 56.5071 88.7954 56.7105L89.0411 53.7206ZM95.7051 53.651C93.3979 53.7791 91.2109 53.8981 89.0406 53.7205L88.7959 56.7105C91.2056 56.9077 93.5986 56.7725 95.8714 56.6464L95.7051 53.651ZM103.128 53.6176C100.598 53.3765 98.0854 53.5188 95.7051 53.651L95.8714 56.6464C98.2895 56.5121 100.576 56.388 102.843 56.6041L103.128 53.6176ZM103.625 49.9794C104.067 50.5625 104.12 51.2135 103.863 51.9103C103.589 52.6511 102.974 53.3729 102.219 53.8215L103.752 56.4003C105.04 55.6344 106.143 54.395 106.677 52.9496C107.227 51.4602 107.177 49.6998 106.017 48.1681L103.625 49.9794ZM98.7538 48.7295C99.9631 48.6761 100.956 48.6405 101.81 48.814C102.592 48.9728 103.155 49.2879 103.579 49.9142L106.064 48.2333C105.099 46.8071 103.762 46.1493 102.407 45.8741C101.125 45.6135 99.7448 45.6828 98.6213 45.7325L98.7538 48.7295ZM95.7117 48.6907C96.7273 48.8234 97.8186 48.7709 98.7538 48.7295L98.6213 45.7325C97.6224 45.7766 96.807 45.8083 96.1003 45.716L95.7117 48.6907ZM94.4269 44.8468C94.399 45.6083 94.3675 46.4439 94.4078 47.2759L97.4042 47.1308C97.3712 46.448 97.3961 45.7413 97.4249 44.9567L94.4269 44.8468ZM94.0871 40.608C94.5197 41.8249 94.4885 43.1658 94.4269 44.8468L97.4249 44.9567C97.4826 43.3828 97.5712 41.4523 96.9137 39.603L94.0871 40.608Z" fill="url(#paint1_linear_678_368)"/>
<defs>
<linearGradient id="paint0_linear_678_368" x1="114.926" y1="9.92497" x2="12.5503" y2="117.55" gradientUnits="userSpaceOnUse">
<stop stop-color="#D800BD"/>
<stop offset="0.408098" stop-color="#F92D7A"/>
<stop offset="0.590073" stop-color="#FF4A52"/>
<stop offset="1" stop-color="#FFB243"/>
</linearGradient>
<linearGradient id="paint1_linear_678_368" x1="114.926" y1="9.92497" x2="12.5503" y2="117.55" gradientUnits="userSpaceOnUse">
<stop stop-color="#D800BD"/>
<stop offset="0.408098" stop-color="#F92D7A"/>
<stop offset="0.590073" stop-color="#FF4A52"/>
<stop offset="1" stop-color="#FFB243"/>
</linearGradient>
</defs>
</svg>
