<svg width="64" height="64" viewBox="0 0 64 64" fill="none" xmlns="http://www.w3.org/2000/svg">
<path d="M32 4H57.2C58.7512 4 60 5.2488 60 6.8V32" stroke="url(#paint0_linear_678_204)" stroke-width="6"/>
<path fill-rule="evenodd" clip-rule="evenodd" d="M6.8 1C3.59195 1 1 3.59195 1 6.8V32V57.2C1 60.4081 3.59195 63 6.8 63H32V57H7V32V7H32V1H6.8Z" fill="url(#paint1_linear_678_204)"/>
<path d="M32 60H57.2C58.7512 60 60 58.7512 60 57.2V32" stroke="url(#paint2_linear_678_204)" stroke-width="6"/>
<path d="M20 46.0701H36" stroke="url(#paint3_linear_678_204)" stroke-width="4" stroke-linecap="round"/>
<path fill-rule="evenodd" clip-rule="evenodd" d="M18 26.0695L18.0002 18.0698V18.0697L19.7694 16.0831L20.0002 18.0698C19.7694 16.0831 19.7701 16.0831 19.7707 16.083L19.7722 16.0828L19.7757 16.0824L19.7848 16.0814L19.8119 16.0785C19.8338 16.0761 19.8632 16.0731 19.8997 16.0696C19.9726 16.0627 20.0741 16.0538 20.2 16.0447C20.4514 16.0265 20.8034 16.0074 21.2232 16.0018C22.0515 15.9906 23.1976 16.0308 24.3771 16.2572C25.53 16.4784 26.8947 16.9107 28.007 17.8096C29.2034 18.7763 30 20.2036 30 22.0696C30 23.9356 29.2034 25.3629 28.007 26.3296C26.8947 27.2285 25.5299 27.6608 24.377 27.8821C23.5329 28.0441 22.7059 28.1108 22.0002 28.1315V34.0698C22.0002 35.1744 21.1048 36.0698 20.0002 36.0698C18.8956 36.0698 18.0002 35.1744 18.0002 34.0698V26.0698L18 26.0695ZM23.623 23.9538C23.0756 24.0589 22.5133 24.1097 22.0002 24.1292V20.0101C22.5134 20.0296 23.0757 20.0804 23.6231 20.1855C24.4702 20.348 25.1054 20.6076 25.493 20.9208C25.7966 21.1661 26 21.4711 26 22.0696C26 22.6681 25.7966 22.973 25.493 23.2184C25.1053 23.5316 24.4701 23.7912 23.623 23.9538ZM38 26.0696C38 23.9562 38.0224 22.3269 38.3974 21.202C38.5658 20.6967 38.7575 20.4586 38.9154 20.3358C39.056 20.2264 39.3458 20.0696 40 20.0696C40.8393 20.0696 41.3673 20.1752 41.68 20.2795C41.8695 20.3426 41.9784 20.4044 42.0349 20.4433C42.2099 21.3693 43.0232 22.0696 44 22.0696C45.1046 22.0696 46 21.1742 46 20.0696H44C46 20.0696 46 20.0676 46 20.0656L46 20.0617L45.9999 20.0535L45.9997 20.0364C45.9995 20.0247 45.9993 20.0123 45.9988 19.9994C45.998 19.9734 45.9967 19.9449 45.9946 19.9141C45.9905 19.8524 45.9835 19.7809 45.9721 19.7008C45.9493 19.541 45.9082 19.3446 45.8349 19.1246C45.6859 18.6777 45.4085 18.1497 44.9142 17.6554C43.9069 16.648 42.3083 16.0696 40 16.0696C38.6542 16.0696 37.444 16.4128 36.4596 17.1784C35.4925 17.9306 34.9342 18.9424 34.6026 19.9371C33.9983 21.75 33.9992 24.0262 34 25.8802V25.8803L34 26.0696L34 26.2589C33.9992 28.1129 33.9983 30.3892 34.6026 32.202C34.9342 33.1967 35.4925 34.2086 36.4596 34.9608C37.444 35.7264 38.6542 36.0696 40 36.0696C42.3083 36.0696 43.9069 35.4912 44.9142 34.4838C45.4085 33.9895 45.6859 33.4615 45.8349 33.0145C45.9082 32.7946 45.9493 32.5981 45.9721 32.4384C45.9835 32.3583 45.9905 32.2867 45.9946 32.2251C45.9967 32.1942 45.998 32.1657 45.9988 32.1398C45.9993 32.1268 45.9995 32.1145 45.9997 32.1028L45.9999 32.0857L46 32.0775L46 32.0735C46 32.0715 46 32.0696 44 32.0696H46C46 30.965 45.1046 30.0696 44 30.0696C43.0232 30.0696 42.2099 30.7699 42.0349 31.6959C41.9784 31.7347 41.8695 31.7966 41.68 31.8597C41.3673 31.964 40.8393 32.0696 40 32.0696C39.3458 32.0696 39.056 31.9128 38.9154 31.8034C38.7575 31.6806 38.5658 31.4424 38.3974 30.9371C38.0224 29.8122 38 28.183 38 26.0696Z" fill="url(#paint4_linear_678_204)"/>
<defs>
<linearGradient id="paint0_linear_678_204" x1="46" y1="4" x2="46" y2="32" gradientUnits="userSpaceOnUse">
<stop stop-color="#44BCFF"/>
<stop offset="1" stop-color="#0F6596"/>
</linearGradient>
<linearGradient id="paint1_linear_678_204" x1="16.5" y1="63" x2="16.5" y2="1" gradientUnits="userSpaceOnUse">
<stop stop-color="#02AA93"/>
<stop offset="1" stop-color="#67FF80"/>
</linearGradient>
<linearGradient id="paint2_linear_678_204" x1="46" y1="60" x2="46" y2="32" gradientUnits="userSpaceOnUse">
<stop stop-color="#FDA700"/>
<stop offset="1" stop-color="#FFDE00"/>
</linearGradient>
<linearGradient id="paint3_linear_678_204" x1="nan" y1="nan" x2="nan" y2="nan" gradientUnits="userSpaceOnUse">
<stop stop-color="#43E97B"/>
<stop offset="0.978261" stop-color="#38F9D7"/>
</linearGradient>
<linearGradient id="paint4_linear_678_204" x1="29.1944" y1="20.0627" x2="28.6944" y2="38.4618" gradientUnits="userSpaceOnUse">
<stop stop-color="#43E97B"/>
<stop offset="0.978261" stop-color="#38F9D7"/>
</linearGradient>
</defs>
</svg>
