<svg width="192" height="192" viewBox="0 0 192 192" fill="none" xmlns="http://www.w3.org/2000/svg">
<path fill-rule="evenodd" clip-rule="evenodd" d="M30.1394 12.7281C33.2474 11.9684 36.4466 11.9871 39.6257 12.0058C40.2339 12.0093 40.8414 12.0129 41.4474 12.011C57.7488 12.0261 74.0502 12.0218 90.3516 12.0175C112.077 12.0118 133.802 12.006 155.527 12.0463C167.552 11.9288 178.484 22.3325 178.954 34.3586C179.092 41.1548 179.068 47.9566 179.043 54.7601V54.7608V54.7616V54.7624V54.7632V54.764C179.032 57.7976 179.021 60.8315 179.024 63.8654C179.248 66.9219 177.261 69.9314 174.275 70.7543C170.455 72.0944 165.8 69.0144 165.73 64.9234C165.58 60.175 165.614 55.4213 165.647 50.6673V50.6671V50.6669V50.6668V50.6666V50.6665C165.685 45.3696 165.723 40.0725 165.506 34.7818C165.071 29.2919 159.794 25.0951 154.386 25.4125C141.674 25.4163 128.961 25.4092 116.248 25.402H116.247C89.4132 25.387 62.577 25.3719 35.7464 25.4596C29.8573 25.4243 25.0144 30.926 25.4258 36.7215C25.4023 75.9385 25.4023 115.156 25.4258 154.373C25.0966 159.78 29.2696 165.047 34.7472 165.505C39.8021 165.755 44.8708 165.705 49.9386 165.655H49.9389H49.9392H49.9396H49.9399H49.9402H49.9407C55.3369 165.602 60.7322 165.549 66.1088 165.858C72.1272 167.092 72.7502 176.461 67.0021 178.507C63.6523 179.262 60.2122 179.161 56.7725 179.061C54.8047 179.003 52.837 178.945 50.8864 179.048C48.5552 178.961 46.2106 179.007 43.8644 179.054C39.2661 179.146 34.6615 179.237 30.1394 178.319C22.0052 176.332 15.2109 169.737 12.9423 161.685C11.9611 158.251 11.9841 154.665 12.0069 151.122C12.0103 150.59 12.0137 150.059 12.0137 149.529C12.0346 132.644 12.0276 115.756 12.0206 98.8696C12.0119 77.7585 12.0032 56.6486 12.0489 35.546C12.0137 24.9893 19.9246 15.1616 30.1394 12.7281ZM53.5316 40.6362C56.7759 37.3093 63.0882 38.814 64.4517 43.2577C64.9564 45.7403 64.9031 48.2737 64.8499 50.8031C64.8262 51.9268 64.8026 53.0497 64.8279 54.167C66.1486 54.2844 67.5323 54.2278 68.925 54.1708C71.9947 54.0451 75.1081 53.9176 77.6875 55.6482C81.9075 58.6576 80.5792 66.0402 75.5482 67.3451C73.0745 67.7561 70.5662 67.7131 68.0597 67.6701H68.0596H68.0594H68.0593H68.0592H68.059C66.9807 67.6516 65.9027 67.6331 64.8279 67.6508C64.81 68.7383 64.8302 69.8292 64.8505 70.9203C64.8967 73.4146 64.9429 75.9103 64.534 78.3719C63.288 83.0625 56.6701 84.673 53.3788 81.0993C51.0702 78.5439 51.2423 75.1502 51.4106 71.8291C51.4831 70.3986 51.5549 68.9815 51.4275 67.6508C50.1085 67.556 48.7549 67.6111 47.3976 67.6664C44.7151 67.7757 42.0179 67.8856 39.5435 66.8396C34.8417 64.606 34.971 57.0706 39.6964 54.9428C42.2542 54.0097 44.9826 54.0894 47.6971 54.1687H47.6972H47.6973H47.6973H47.6974H47.6975C48.9499 54.2053 50.1992 54.2418 51.4275 54.1787C51.5484 52.8702 51.4776 51.4725 51.406 50.0597C51.234 46.6619 51.0575 43.1769 53.5316 40.6362ZM118.698 54.1923C116.958 54.1995 115.187 54.2068 113.621 54.9898C108.108 57.482 109.343 66.675 115.384 67.4861C122.597 67.7337 129.826 67.6937 137.053 67.6536C140.461 67.6347 143.87 67.6159 147.275 67.6272C150.778 67.8506 154.081 64.9469 154.21 61.432C154.645 57.5996 151.213 54.0376 147.381 54.2375C142.52 54.1553 137.652 54.1716 132.784 54.1878C128.589 54.2018 124.394 54.2158 120.204 54.1669C119.709 54.1881 119.205 54.1902 118.698 54.1923H118.698H118.698H118.698H118.698ZM96.0603 89.3401C98.423 88.1057 101.126 87.8118 103.759 87.8236C113.926 87.8588 124.095 87.853 134.264 87.8471H134.27C144.44 87.8412 154.611 87.8353 164.779 87.8706C172.477 87.8353 179.248 94.877 179.013 102.553C179.051 115.604 179.045 128.654 179.039 141.705C179.035 149.039 179.032 156.373 179.036 163.707C179.542 171.512 172.9 178.895 165.036 178.989C153.346 179.083 141.652 179.07 129.956 179.056C121.201 179.046 112.445 179.036 103.689 179.071C98.1409 179.4 92.5457 176.544 89.7951 171.677C88.1024 168.914 87.738 165.611 87.832 162.449C87.8723 151.035 87.8665 139.62 87.8608 128.208V128.197V128.196V128.196V128.195C87.8565 119.63 87.8522 111.067 87.8673 102.506C87.7732 97.0165 91.1351 91.7265 96.0603 89.3401ZM105.17 101.637C102.337 102.553 101.009 105.645 101.208 108.455C101.212 114.068 101.207 119.683 101.202 125.299V125.3V125.301V125.303V125.305C101.192 136.54 101.182 147.778 101.244 159.016C100.951 162.461 103.818 165.752 107.333 165.599C122.517 165.703 137.701 165.67 152.885 165.636C154.945 165.632 157.005 165.627 159.065 165.623C162.697 165.964 165.965 162.731 165.624 159.098C165.629 156.119 165.634 153.14 165.639 150.161V150.155C165.664 135.879 165.688 121.603 165.602 107.326C165.753 103.811 162.462 100.955 159.018 101.237C150.621 101.17 142.223 101.179 133.823 101.188H133.822H133.822H133.821C126.138 101.197 118.453 101.205 110.765 101.155C110.408 101.164 110.049 101.167 109.689 101.171H109.688H109.688H109.688H109.688C108.167 101.185 106.634 101.2 105.17 101.637ZM49.6295 116.46C44.5985 114.321 38.921 119.764 40.8723 124.878C42.0315 127.317 44.0123 129.167 45.9839 131.008C46.8911 131.855 47.7963 132.7 48.6186 133.6C47.7551 134.566 46.8148 135.474 45.8739 136.382L45.8738 136.382L45.8737 136.382C44.1119 138.082 42.3481 139.784 41.0839 141.876C38.8387 146.555 43.4348 152.362 48.5128 151.14C51.3538 150.319 53.3462 148.148 55.3238 145.992L55.324 145.992L55.3241 145.992C56.2348 144.999 57.1423 144.01 58.1282 143.158C59.0932 144.01 59.9888 144.968 60.8864 145.929C62.7766 147.953 64.6754 149.986 67.2498 151.046C72.4924 152.75 77.6997 146.59 75.1254 141.712C73.8162 139.585 72.009 137.86 70.2061 136.139L70.2059 136.139C69.338 135.31 68.471 134.483 67.6612 133.612C68.5164 132.612 69.5221 131.695 70.532 130.775C72.7285 128.772 74.9451 126.751 75.6779 123.82C76.7241 118.741 70.835 114.286 66.2271 116.649C64.1504 117.973 62.4499 119.747 60.7494 121.521C59.8992 122.407 59.0489 123.294 58.1517 124.125C57.2754 123.315 56.4464 122.438 55.6163 121.56L55.6162 121.56C53.7961 119.635 51.9706 117.704 49.6295 116.46ZM115.599 113.336C122.627 112.917 129.69 112.983 136.753 113.048H136.753C140.569 113.084 144.385 113.119 148.195 113.078C152.38 112.749 156 117.039 154.954 121.13C154.343 124.786 150.522 126.891 147.019 126.479C143.044 126.416 139.066 126.449 135.09 126.481C128.72 126.533 122.353 126.585 115.999 126.244C109.534 125.115 109.275 114.912 115.599 113.336ZM120.256 140.018C118.276 139.989 116.267 139.96 114.467 140.833C108.977 143.361 110.305 152.589 116.359 153.306C121.893 153.59 127.441 153.548 132.99 153.506C136.869 153.477 140.75 153.447 144.629 153.529C144.755 153.531 144.882 153.533 145.01 153.535C148.169 153.586 151.914 153.646 153.88 150.72C156.866 146.923 154.256 140.492 149.355 140.163C144.102 139.958 138.842 139.992 133.583 140.026C129.815 140.05 126.047 140.074 122.284 140.01C121.617 140.037 120.938 140.028 120.256 140.018Z" fill="url(#paint0_linear_642_11)"/>
<path d="M39.6257 12.0058L39.6139 14.0057L39.6257 12.0058ZM30.1394 12.7281L30.6029 14.6737L30.6143 14.6709L30.1394 12.7281ZM41.4474 12.011L41.4492 10.011L41.4411 10.011L41.4474 12.011ZM90.3516 12.0175L90.3511 10.0175L90.3516 12.0175ZM155.527 12.0463L155.523 14.0463L155.535 14.0463L155.547 14.0462L155.527 12.0463ZM178.954 34.3586L180.954 34.3179L180.953 34.2992L180.952 34.2805L178.954 34.3586ZM179.043 54.7601L177.043 54.7528V54.7601H179.043ZM179.043 54.764L181.043 54.7713V54.764H179.043ZM179.024 63.8654L177.024 63.8676L177.024 63.9397L177.029 64.0116L179.024 63.8654ZM174.275 70.7543L173.744 68.8262L173.678 68.8444L173.613 68.8671L174.275 70.7543ZM165.73 64.9234L167.73 64.8892L167.729 64.8746L167.729 64.8601L165.73 64.9234ZM165.647 50.6673L167.647 50.6815L167.647 50.6744V50.6673H165.647ZM165.647 50.6665L163.648 50.6522L163.647 50.6593V50.6665H165.647ZM165.506 34.7818L167.504 34.6998L167.503 34.6618L167.5 34.6238L165.506 34.7818ZM154.386 25.4125L154.387 27.4125L154.445 27.4125L154.503 27.4091L154.386 25.4125ZM116.248 25.402L116.249 23.402H116.248V25.402ZM116.247 25.402L116.246 27.402H116.247V25.402ZM35.7464 25.4596L35.7344 27.4596L35.7437 27.4596L35.7529 27.4596L35.7464 25.4596ZM25.4258 36.7215L27.4258 36.7227L27.4258 36.6512L27.4208 36.5799L25.4258 36.7215ZM25.4258 154.373L27.4221 154.495L27.4258 154.433L27.4258 154.372L25.4258 154.373ZM34.7472 165.505L34.5805 167.498L34.6143 167.501L34.6482 167.503L34.7472 165.505ZM49.9386 165.655V163.655H49.9287L49.9188 163.655L49.9386 165.655ZM49.9407 165.655V167.655H49.9505L49.9604 167.655L49.9407 165.655ZM66.1088 165.858L66.5105 163.899L66.3684 163.87L66.2237 163.861L66.1088 165.858ZM67.0021 178.507L67.4419 180.458L67.5593 180.432L67.6727 180.391L67.0021 178.507ZM56.7725 179.061L56.831 177.061L56.831 177.061L56.7725 179.061ZM50.8864 179.048L50.8114 181.047L50.9014 181.05L50.9914 181.045L50.8864 179.048ZM43.8644 179.054L43.9043 181.054L43.9043 181.054L43.8644 179.054ZM30.1394 178.319L29.6648 180.262L29.7029 180.271L29.7413 180.279L30.1394 178.319ZM12.9423 161.685L14.8673 161.143L14.8653 161.136L12.9423 161.685ZM12.0069 151.122L10.0069 151.109L10.0069 151.109L12.0069 151.122ZM12.0137 149.529L10.0137 149.527V149.529H12.0137ZM12.0206 98.8696L10.0206 98.8705L12.0206 98.8696ZM12.0489 35.546L14.0489 35.5503L14.0489 35.5393L12.0489 35.546ZM64.4517 43.2577L66.4116 42.8593L66.3923 42.764L66.3637 42.671L64.4517 43.2577ZM53.5316 40.6362L52.0997 39.2399L52.0988 39.2409L53.5316 40.6362ZM64.8499 50.8031L62.8503 50.7611L62.8503 50.7611L64.8499 50.8031ZM64.8279 54.167L62.8284 54.2123L62.869 56.0007L64.6508 56.1591L64.8279 54.167ZM68.925 54.1708L69.0068 56.1691L69.0068 56.1691L68.925 54.1708ZM77.6875 55.6482L78.8488 54.0198L78.8255 54.0033L78.8018 53.9873L77.6875 55.6482ZM75.5482 67.3451L75.876 69.3181L75.964 69.3034L76.0503 69.281L75.5482 67.3451ZM68.0597 67.6701L68.094 65.6704L68.0769 65.6701H68.0597V67.6701ZM68.059 67.6701L68.0247 69.6698L68.0419 69.6701H68.059V67.6701ZM64.8279 67.6508L64.795 65.6511L62.86 65.6829L62.8282 67.6179L64.8279 67.6508ZM64.8505 70.9203L66.8501 70.8832L66.8501 70.8832L64.8505 70.9203ZM64.534 78.3719L66.467 78.8854L66.4914 78.7935L66.507 78.6996L64.534 78.3719ZM53.3788 81.0993L51.8948 82.44L51.9012 82.4471L51.9077 82.4542L53.3788 81.0993ZM51.4106 71.8291L53.408 71.9304L53.408 71.9304L51.4106 71.8291ZM51.4275 67.6508L53.4184 67.4602L53.2573 65.7772L51.5709 65.6559L51.4275 67.6508ZM47.3976 67.6664L47.3162 65.6681L47.3162 65.6681L47.3976 67.6664ZM39.5435 66.8396L38.6853 68.6461L38.7247 68.6648L38.7648 68.6817L39.5435 66.8396ZM39.6964 54.9428L39.011 53.0639L38.9421 53.089L38.8753 53.1191L39.6964 54.9428ZM47.6971 54.1687L47.6387 56.1679L47.6679 56.1687H47.6971V54.1687ZM47.6975 54.1687L47.7559 52.1696L47.7267 52.1687H47.6975V54.1687ZM51.4275 54.1787L51.5302 56.1761L53.2598 56.0872L53.419 54.3626L51.4275 54.1787ZM51.406 50.0597L49.4086 50.1608L49.4086 50.1608L51.406 50.0597ZM113.621 54.9898L114.445 56.8122L114.481 56.7961L114.516 56.7786L113.621 54.9898ZM118.698 54.1923V52.1923L118.69 52.1923L118.698 54.1923ZM115.384 67.4861L115.118 69.4683L115.217 69.4815L115.316 69.4849L115.384 67.4861ZM137.053 67.6536L137.041 65.6537L137.041 65.6537L137.053 67.6536ZM147.275 67.6272L147.403 65.6312L147.342 65.6274L147.282 65.6272L147.275 67.6272ZM154.21 61.432L152.223 61.2064L152.214 61.2823L152.212 61.3586L154.21 61.432ZM147.381 54.2375L147.348 56.2372L147.417 56.2383L147.486 56.2348L147.381 54.2375ZM132.784 54.1878L132.777 52.1879L132.777 52.1879L132.784 54.1878ZM120.204 54.1669L120.228 52.167L120.173 52.1664L120.119 52.1687L120.204 54.1669ZM118.698 54.1923L118.698 56.1923L118.706 56.1923L118.698 54.1923ZM103.759 87.8236L103.751 89.8236L103.753 89.8236L103.759 87.8236ZM96.0603 89.3401L96.9324 91.1399L96.9596 91.1267L96.9864 91.1127L96.0603 89.3401ZM134.264 87.8471L134.264 85.8471L134.263 85.8471L134.264 87.8471ZM134.27 87.8471L134.27 89.8471L134.271 89.8471L134.27 87.8471ZM164.779 87.8706L164.772 89.8706L164.78 89.8706L164.788 89.8706L164.779 87.8706ZM179.013 102.553L177.014 102.492L177.013 102.525L177.013 102.559L179.013 102.553ZM179.039 141.705L181.039 141.706L181.039 141.706L179.039 141.705ZM179.036 163.707L177.036 163.708L177.037 163.772L177.041 163.836L179.036 163.707ZM165.036 178.989L165.053 180.989L165.06 180.989L165.036 178.989ZM129.956 179.056L129.958 177.056L129.958 177.056L129.956 179.056ZM103.689 179.071L103.681 177.071L103.626 177.071L103.571 177.074L103.689 179.071ZM89.7951 171.677L91.5363 170.693L91.5189 170.662L91.5005 170.632L89.7951 171.677ZM87.832 162.449L89.8311 162.508L89.8319 162.482L89.832 162.456L87.832 162.449ZM87.8608 128.208L85.8608 128.208L85.8608 128.209L87.8608 128.208ZM87.8608 128.195H89.8608L89.8608 128.194L87.8608 128.195ZM87.8673 102.506L89.8673 102.51L89.8673 102.491L89.867 102.472L87.8673 102.506ZM101.208 108.455L103.208 108.454L103.208 108.384L103.203 108.314L101.208 108.455ZM105.17 101.637L104.598 99.7207L104.576 99.7271L104.555 99.734L105.17 101.637ZM101.202 125.299L99.2023 125.297V125.299H101.202ZM101.202 125.305L103.202 125.307V125.305H101.202ZM101.244 159.016L103.237 159.186L103.245 159.096L103.244 159.005L101.244 159.016ZM107.333 165.599L107.347 163.599L107.297 163.599L107.247 163.601L107.333 165.599ZM152.885 165.636L152.881 163.636L152.881 163.636L152.885 165.636ZM159.065 165.623L159.252 163.632L159.157 163.623L159.061 163.623L159.065 165.623ZM165.624 159.098L163.624 159.095L163.624 159.19L163.633 159.285L165.624 159.098ZM165.639 150.161L167.639 150.164V150.161H165.639ZM165.639 150.155L163.639 150.152V150.155H165.639ZM165.602 107.326L163.603 107.24L163.601 107.289L163.602 107.338L165.602 107.326ZM159.018 101.237L159.002 103.237L159.092 103.238L159.182 103.23L159.018 101.237ZM133.823 101.188L133.823 103.188L133.825 103.188L133.823 101.188ZM133.821 101.188V99.1882L133.819 99.1882L133.821 101.188ZM110.765 101.155L110.779 99.155L110.747 99.1548L110.715 99.1556L110.765 101.155ZM109.689 101.171V103.171H109.698L109.708 103.171L109.689 101.171ZM109.688 101.171V99.1708H109.678L109.669 99.1709L109.688 101.171ZM40.8723 124.878L39.0037 125.591L39.0319 125.665L39.0659 125.737L40.8723 124.878ZM49.6295 116.46L50.5678 114.694L50.4915 114.653L50.412 114.619L49.6295 116.46ZM45.9839 131.008L47.3489 129.546L47.3489 129.546L45.9839 131.008ZM48.6186 133.6L50.1098 134.933L51.3142 133.585L50.0951 132.251L48.6186 133.6ZM45.8739 136.382L44.485 134.942L44.4243 135.001L44.3687 135.065L45.8739 136.382ZM45.8737 136.382L47.2626 137.821L47.3233 137.762L47.3789 137.699L45.8737 136.382ZM41.0839 141.876L39.3722 140.841L39.3224 140.924L39.2807 141.011L41.0839 141.876ZM48.5128 151.14L48.9807 153.084L49.0246 153.074L49.068 153.061L48.5128 151.14ZM55.3238 145.992L53.9096 144.578L53.8792 144.608L53.8501 144.64L55.3238 145.992ZM55.324 145.992L56.7382 147.406L56.7689 147.375L56.7983 147.343L55.324 145.992ZM55.3241 145.992L53.8504 144.64L53.8498 144.64L55.3241 145.992ZM58.1282 143.158L59.4515 141.658L58.1417 140.503L56.8202 141.645L58.1282 143.158ZM60.8864 145.929L59.4248 147.294L59.4248 147.294L60.8864 145.929ZM67.2498 151.046L66.488 152.895L66.5588 152.924L66.6315 152.948L67.2498 151.046ZM75.1254 141.712L76.8942 140.779L76.8633 140.72L76.8286 140.664L75.1254 141.712ZM70.2061 136.139L71.5871 134.692L71.5816 134.687L70.2061 136.139ZM70.2059 136.139L68.825 137.586L68.8304 137.591L70.2059 136.139ZM67.6612 133.612L66.1414 132.312L64.9817 133.667L66.1965 134.974L67.6612 133.612ZM70.532 130.775L69.1846 129.297L69.1846 129.297L70.532 130.775ZM75.6779 123.82L77.6181 124.305L77.6283 124.264L77.6367 124.223L75.6779 123.82ZM66.2271 116.649L65.3144 114.869L65.231 114.912L65.1519 114.963L66.2271 116.649ZM60.7494 121.521L59.3057 120.136L59.3057 120.136L60.7494 121.521ZM58.1517 124.125L56.7941 125.594L58.1527 126.849L59.5104 125.593L58.1517 124.125ZM55.6163 121.56L57.0696 120.186L57.0503 120.166L57.0305 120.146L55.6163 121.56ZM55.6162 121.56L54.1628 122.934L54.1821 122.954L54.202 122.974L55.6162 121.56ZM136.753 113.048L136.734 115.048L136.743 115.048H136.753V113.048ZM115.599 113.336L115.48 111.34L115.295 111.351L115.115 111.396L115.599 113.336ZM136.753 113.048L136.772 111.048L136.762 111.048H136.753V113.048ZM148.195 113.078L148.217 115.078L148.284 115.077L148.352 115.072L148.195 113.078ZM154.954 121.13L153.016 120.635L152.995 120.717L152.981 120.801L154.954 121.13ZM147.019 126.479L147.253 124.493L147.152 124.481L147.051 124.48L147.019 126.479ZM135.09 126.481L135.106 128.481L135.106 128.481L135.09 126.481ZM115.999 126.244L115.655 128.215L115.773 128.235L115.892 128.241L115.999 126.244ZM114.467 140.833L115.303 142.65L115.321 142.641L115.34 142.633L114.467 140.833ZM120.256 140.018L120.285 138.018L120.285 138.018L120.256 140.018ZM116.359 153.306L116.123 155.292L116.19 155.3L116.256 155.304L116.359 153.306ZM132.99 153.506L133.005 155.506L133.005 155.506L132.99 153.506ZM144.629 153.529L144.586 155.529L144.599 155.529L144.629 153.529ZM145.01 153.535L145.043 151.535L145.042 151.535L145.01 153.535ZM153.88 150.72L152.307 149.484L152.261 149.543L152.219 149.605L153.88 150.72ZM149.355 140.163L149.488 138.168L149.461 138.166L149.433 138.165L149.355 140.163ZM133.583 140.026L133.571 138.026L133.571 138.026L133.583 140.026ZM122.284 140.01L122.317 138.011L122.26 138.01L122.202 138.012L122.284 140.01ZM39.6374 10.0058C36.5008 9.98742 33.0523 9.9572 29.6645 10.7853L30.6143 14.6709C33.4426 13.9796 36.3924 13.9869 39.6139 14.0057L39.6374 10.0058ZM41.4411 10.011C40.8456 10.0129 40.2471 10.0094 39.6374 10.0058L39.6139 14.0057C40.2207 14.0093 40.8372 14.0129 41.4536 14.011L41.4411 10.011ZM90.3511 10.0175C74.0495 10.0218 57.7493 10.0261 41.4492 10.011L41.4455 14.011C57.7483 14.0261 74.0509 14.0218 90.3521 14.0175L90.3511 10.0175ZM155.531 10.0463C133.803 10.006 112.076 10.0118 90.3511 10.0175L90.3521 14.0175C112.077 14.0118 133.8 14.006 155.523 14.0463L155.531 10.0463ZM180.952 34.2805C180.44 21.1732 168.614 9.91834 155.507 10.0464L155.547 14.0462C166.49 13.9393 176.528 23.4918 176.956 34.4367L180.952 34.2805ZM181.043 54.7673C181.067 47.9679 181.092 41.1421 180.954 34.3179L176.954 34.3993C177.092 41.1675 177.068 47.9453 177.043 54.7528L181.043 54.7673ZM181.043 54.7608V54.7601H177.043V54.7608H181.043ZM181.043 54.7616V54.7608H177.043V54.7616H181.043ZM181.043 54.7624V54.7616H177.043V54.7624H181.043ZM181.043 54.7632V54.7624H177.043V54.7632H181.043ZM181.043 54.764V54.7632H177.043V54.764H181.043ZM181.024 63.8632C181.021 60.8348 181.032 57.8057 181.043 54.7713L177.043 54.7567C177.032 57.7895 177.021 60.8282 177.024 63.8676L181.024 63.8632ZM174.806 72.6824C178.768 71.5906 181.308 67.6692 181.019 63.7192L177.029 64.0116C177.188 66.1746 175.754 68.2722 173.744 68.8262L174.806 72.6824ZM163.73 64.9576C163.779 67.7806 165.399 70.1303 167.477 71.5332C169.552 72.9337 172.326 73.5577 174.937 72.6416L173.613 68.8671C172.404 69.2911 170.941 69.0451 169.715 68.2179C168.493 67.393 167.751 66.1572 167.73 64.8892L163.73 64.9576ZM163.648 50.653C163.614 55.4005 163.579 60.193 163.731 64.9867L167.729 64.8601C167.58 60.1569 167.613 55.442 167.647 50.6815L163.648 50.653ZM163.647 50.6671V50.6673H167.647V50.6671H163.647ZM163.647 50.6669V50.6671H167.647V50.6669H163.647ZM163.647 50.6668V50.6669H167.647V50.6668H163.647ZM163.647 50.6666V50.6668H167.647V50.6666H163.647ZM163.647 50.6665V50.6666H167.647V50.6665H163.647ZM163.508 34.8638C163.722 40.0983 163.685 45.3473 163.648 50.6522L167.647 50.6807C167.685 45.392 167.724 40.0466 167.504 34.6998L163.508 34.8638ZM154.503 27.4091C158.92 27.1498 163.171 30.6282 163.512 34.9398L167.5 34.6238C166.971 27.9556 160.668 23.0404 154.269 23.4159L154.503 27.4091ZM116.247 27.402C128.96 27.4092 141.674 27.4163 154.387 27.4125L154.385 23.4125C141.675 23.4163 128.962 23.4092 116.249 23.402L116.247 27.402ZM116.247 27.402H116.248V23.402H116.247V27.402ZM35.7529 27.4596C62.5791 27.3719 89.4114 27.387 116.246 27.402L116.248 23.402C89.415 23.387 62.575 23.3719 35.7398 23.4596L35.7529 27.4596ZM27.4208 36.5799C27.0869 31.8769 31.079 27.4317 35.7344 27.4596L35.7584 23.4596C28.6355 23.417 22.9418 29.9751 23.4308 36.8631L27.4208 36.5799ZM27.4258 154.372C27.4023 115.156 27.4023 75.9389 27.4258 36.7227L23.4258 36.7203C23.4023 75.9381 23.4023 115.156 23.4258 154.374L27.4258 154.372ZM34.9138 163.512C30.6102 163.152 27.1533 158.91 27.4221 154.495L23.4295 154.251C23.0399 160.65 27.929 166.942 34.5805 167.498L34.9138 163.512ZM49.9188 163.655C44.841 163.706 39.8318 163.754 34.8461 163.507L34.6482 167.503C39.7724 167.756 44.9006 167.705 49.9584 167.655L49.9188 163.655ZM49.9389 163.655H49.9386V167.655H49.9389V163.655ZM49.9392 163.655H49.9389V167.655H49.9392V163.655ZM49.9396 163.655H49.9392V167.655H49.9396V163.655ZM49.9399 163.655H49.9396V167.655H49.9399V163.655ZM49.9402 163.655H49.9399V167.655H49.9402V163.655ZM49.9407 163.655H49.9402V167.655H49.9407V163.655ZM66.2237 163.861C60.7686 163.547 55.3058 163.602 49.9209 163.655L49.9604 167.655C55.3681 167.602 60.6959 167.55 65.9939 167.855L66.2237 163.861ZM67.6727 180.391C71.6152 178.988 73.1963 175.126 72.9631 171.741C72.7297 168.351 70.6304 164.744 66.5105 163.899L65.7071 167.817C67.6056 168.207 68.827 169.901 68.9726 172.015C69.1185 174.134 68.1371 175.98 66.3314 176.623L67.6727 180.391ZM56.7139 181.06C60.1094 181.159 63.8047 181.278 67.4419 180.458L66.5623 176.556C63.4999 177.246 60.3151 177.164 56.831 177.061L56.7139 181.06ZM50.9914 181.045C52.8465 180.948 54.7319 181.002 56.7139 181.06L56.831 177.061C54.8774 177.004 52.8274 176.943 50.7813 177.051L50.9914 181.045ZM43.9043 181.054C46.2603 181.007 48.5473 180.962 50.8114 181.047L50.9614 177.049C48.5632 176.959 46.161 177.008 43.8246 177.054L43.9043 181.054ZM29.7413 180.279C34.5163 181.249 39.3437 181.144 43.9043 181.054L43.8246 177.054C39.1885 177.147 34.8067 177.226 30.5374 176.359L29.7413 180.279ZM11.0172 162.227C13.4803 170.97 20.8258 178.103 29.6648 180.262L30.614 176.376C23.1845 174.561 16.9415 168.505 14.8673 161.143L11.0172 162.227ZM10.0069 151.109C9.98449 154.602 9.94615 158.478 11.0192 162.234L14.8653 161.136C13.9761 158.023 13.9838 154.729 14.0068 151.135L10.0069 151.109ZM10.0137 149.529C10.0137 150.051 10.0103 150.576 10.0069 151.109L14.0068 151.135C14.0102 150.604 14.0137 150.066 14.0137 149.529H10.0137ZM10.0206 98.8705C10.0276 115.758 10.0346 132.643 10.0137 149.527L14.0137 149.531C14.0346 132.644 14.0276 115.755 14.0206 98.8688L10.0206 98.8705ZM10.0489 35.5417C10.0032 56.6473 10.0119 77.7598 10.0206 98.8705L14.0206 98.8688C14.0119 77.7573 14.0032 56.6499 14.0489 35.5503L10.0489 35.5417ZM29.6759 10.7826C18.5771 13.4267 10.0105 24.0478 10.0489 35.5527L14.0489 35.5393C14.0168 25.9308 21.2721 16.8966 30.6029 14.6737L29.6759 10.7826ZM66.3637 42.671C65.4344 39.6423 62.8619 37.7343 60.1627 37.088C57.4641 36.4418 54.3068 36.9767 52.0997 39.2399L54.9635 42.0325C56.0008 40.9688 57.6218 40.5926 59.2313 40.978C60.8401 41.3632 62.1055 42.4294 62.5397 43.8444L66.3637 42.671ZM66.8494 50.8452C66.9018 48.3541 66.968 45.5964 66.4116 42.8593L62.4918 43.6561C62.9447 45.8843 62.9043 48.1933 62.8503 50.7611L66.8494 50.8452ZM66.8274 54.1217C66.8033 53.0554 66.8256 51.9763 66.8494 50.8452L62.8503 50.7611C62.8268 51.8773 62.802 53.044 62.8284 54.2123L66.8274 54.1217ZM68.8432 52.1724C67.4242 52.2305 66.1735 52.2787 65.005 52.1748L64.6508 56.1591C66.1238 56.2901 67.6404 56.225 69.0068 56.1691L68.8432 52.1724ZM78.8018 53.9873C75.5874 51.8308 71.7736 52.0525 68.8432 52.1724L69.0068 56.1691C72.2157 56.0377 74.6288 56.0045 76.5733 57.309L78.8018 53.9873ZM76.0503 69.281C79.4826 68.3908 81.5147 65.4651 82.0548 62.4935C82.5945 59.5236 81.7242 56.0704 78.8488 54.0198L76.5263 57.2766C77.8708 58.2354 78.4464 59.9782 78.1192 61.7782C77.7924 63.5765 76.6449 64.9945 75.0461 65.4092L76.0503 69.281ZM68.0254 69.6698C70.5009 69.7122 73.1924 69.7639 75.876 69.3181L75.2205 65.3721C72.9565 65.7482 70.6316 65.7139 68.094 65.6704L68.0254 69.6698ZM68.0596 69.6701H68.0597V65.6701H68.0596V69.6701ZM68.0594 69.6701H68.0596V65.6701H68.0594V69.6701ZM68.0593 69.6701H68.0594V65.6701H68.0593V69.6701ZM68.0592 69.6701H68.0593V65.6701H68.0592V69.6701ZM68.059 69.6701H68.0592V65.6701H68.059V69.6701ZM64.8608 69.6505C65.8964 69.6335 66.9408 69.6512 68.0247 69.6698L68.0933 65.6704C67.0207 65.652 65.909 65.6327 64.795 65.6511L64.8608 69.6505ZM66.8501 70.8832C66.8298 69.7862 66.8104 68.7304 66.8277 67.6837L62.8282 67.6179C62.8096 68.7463 62.8307 69.8721 62.8508 70.9573L66.8501 70.8832ZM66.507 78.6996C66.951 76.0266 66.8958 73.3461 66.8501 70.8832L62.8508 70.9573C62.8976 73.483 62.9349 75.794 62.5611 78.0441L66.507 78.6996ZM51.9077 82.4542C54.1399 84.8779 57.4137 85.4571 60.1976 84.7777C62.9819 84.0981 65.6198 82.0747 66.467 78.8854L62.6011 77.8584C62.2023 79.3597 60.9082 80.4868 59.2492 80.8917C57.5898 81.2967 55.9091 80.8944 54.85 79.7444L51.9077 82.4542ZM49.4132 71.7279C49.2543 74.8624 48.9382 79.1674 51.8948 82.44L54.8629 79.7586C53.2022 77.9204 53.2302 75.4379 53.408 71.9304L49.4132 71.7279ZM49.4366 67.8414C49.5476 69 49.4873 70.2658 49.4132 71.7279L53.408 71.9304C53.4789 70.5314 53.5623 68.9631 53.4184 67.4602L49.4366 67.8414ZM47.479 69.6648C48.8574 69.6086 50.0968 69.5603 51.2841 69.6456L51.5709 65.6559C50.1201 65.5517 48.6525 65.6136 47.3162 65.6681L47.479 69.6648ZM38.7648 68.6817C41.7214 69.9317 44.8824 69.7706 47.479 69.6648L47.3162 65.6681C44.5477 65.7809 42.3143 65.8396 40.3223 64.9974L38.7648 68.6817ZM38.8753 53.1191C35.651 54.571 34.1289 57.8011 34.085 60.8225C34.0411 63.8464 35.4724 67.1198 38.6853 68.6461L40.4017 65.0331C38.9128 64.3258 38.0579 62.7147 38.0846 60.8806C38.1112 59.0438 39.0164 57.4424 40.5176 56.7664L38.8753 53.1191ZM47.7555 52.1696C45.1116 52.0923 41.9897 51.9773 39.011 53.0639L40.3818 56.8217C42.5187 56.0422 44.8536 56.0865 47.6387 56.1679L47.7555 52.1696ZM47.6972 52.1687H47.6971V56.1687H47.6972V52.1687ZM47.6973 52.1687H47.6972V56.1687H47.6973V52.1687ZM47.6973 52.1687H47.6973V56.1687H47.6973V52.1687ZM47.6974 52.1687H47.6973V56.1687H47.6974V52.1687ZM47.6975 52.1687H47.6974V56.1687H47.6975V52.1687ZM51.3249 52.1813C50.1908 52.2396 49.0228 52.2066 47.7559 52.1696L47.6391 56.1679C48.8769 56.204 50.2076 56.244 51.5302 56.1761L51.3249 52.1813ZM49.4086 50.1608C49.4817 51.6048 49.5413 52.8546 49.436 53.9948L53.419 54.3626C53.5555 52.8858 53.4735 51.3401 53.4035 49.9585L49.4086 50.1608ZM52.0988 39.2409C48.9147 42.5107 49.2467 46.9633 49.4086 50.1608L53.4035 49.9585C53.2213 46.3605 53.2003 43.8432 54.9645 42.0315L52.0988 39.2409ZM114.516 56.7786C115.592 56.2403 116.875 56.1998 118.706 56.1923L118.69 52.1923C117.041 52.1991 114.782 52.1732 112.727 53.2009L114.516 56.7786ZM115.65 65.5039C113.752 65.249 112.438 63.6709 112.151 61.5945C111.863 59.5119 112.705 57.599 114.445 56.8122L112.797 53.1673C109.025 54.8727 107.727 58.8025 108.189 62.1422C108.651 65.4881 110.975 68.912 115.118 69.4683L115.65 65.5039ZM137.041 65.6537C129.808 65.6937 122.619 65.7333 115.453 65.4872L115.316 69.4849C122.575 69.7342 129.844 69.6936 137.064 69.6536L137.041 65.6537ZM147.282 65.6272C143.866 65.6158 140.449 65.6348 137.041 65.6537L137.064 69.6536C140.474 69.6347 143.873 69.6159 147.269 69.6272L147.282 65.6272ZM152.212 61.3586C152.125 63.7156 149.815 65.7851 147.403 65.6312L147.148 69.6231C151.741 69.916 156.037 66.1781 156.209 61.5053L152.212 61.3586ZM147.486 56.2348C150.112 56.0978 152.516 58.6301 152.223 61.2064L156.198 61.6575C156.775 56.569 152.315 51.9774 147.277 52.2402L147.486 56.2348ZM132.791 56.1878C137.662 56.1716 142.51 56.1555 147.348 56.2372L147.415 52.2378C142.53 52.1552 137.642 52.1716 132.777 52.1879L132.791 56.1878ZM120.181 56.1667C124.388 56.2159 128.598 56.2018 132.791 56.1878L132.777 52.1879C128.58 52.2019 124.4 52.2158 120.228 52.167L120.181 56.1667ZM118.706 56.1923C119.206 56.1902 119.749 56.1882 120.29 56.165L120.119 52.1687C119.668 52.188 119.203 52.1902 118.69 52.1923L118.706 56.1923ZM118.698 56.1923H118.698V52.1923H118.698V56.1923ZM118.698 56.1923H118.698V52.1923H118.698V56.1923ZM118.698 56.1923H118.698V52.1923H118.698V56.1923ZM118.698 56.1923H118.698V52.1923H118.698V56.1923ZM103.768 85.8236C101.016 85.8113 97.9249 86.1094 95.1342 87.5674L96.9864 91.1127C98.9211 90.102 101.237 89.8123 103.751 89.8236L103.768 85.8236ZM134.263 85.8471C124.093 85.853 113.928 85.8588 103.766 85.8236L103.753 89.8236C113.924 89.8588 124.097 89.853 134.265 89.8471L134.263 85.8471ZM134.27 85.8471H134.264V89.8471H134.27V85.8471ZM164.785 85.8706C154.613 85.8353 144.438 85.8412 134.269 85.8471L134.271 89.8471C144.442 89.8412 154.609 89.8353 164.772 89.8706L164.785 85.8706ZM181.013 102.614C181.282 93.8211 173.615 85.83 164.769 85.8706L164.788 89.8706C171.34 89.8405 177.215 95.9328 177.014 102.492L181.013 102.614ZM181.039 141.706C181.045 128.656 181.051 115.602 181.013 102.547L177.013 102.559C177.051 115.606 177.045 128.653 177.039 141.704L181.039 141.706ZM181.036 163.706C181.032 156.373 181.035 149.04 181.039 141.706L177.039 141.704C177.035 149.038 177.032 156.373 177.036 163.708L181.036 163.706ZM165.06 180.989C174.103 180.881 181.61 172.494 181.032 163.578L177.041 163.836C177.475 170.53 171.698 176.909 165.013 176.989L165.06 180.989ZM129.953 181.056C141.648 181.07 153.351 181.083 165.053 180.989L165.02 176.989C153.341 177.083 141.656 177.07 129.958 177.056L129.953 181.056ZM103.698 181.071C112.447 181.036 121.198 181.046 129.953 181.056L129.958 177.056C121.204 177.046 112.443 177.036 103.681 177.071L103.698 181.071ZM88.0539 172.661C91.2023 178.232 97.5427 181.439 103.808 181.067L103.571 177.074C98.7391 177.361 93.8891 174.856 91.5363 170.693L88.0539 172.661ZM85.8329 162.39C85.7344 165.701 86.0971 169.469 88.0897 172.722L91.5005 170.632C90.1076 168.359 89.7416 165.521 89.8311 162.508L85.8329 162.39ZM85.8608 128.209C85.8665 139.622 85.8723 151.032 85.832 162.442L89.832 162.456C89.8723 151.037 89.8665 139.618 89.8608 128.207L85.8608 128.209ZM85.8608 128.197V128.208H89.8608V128.197H85.8608ZM85.8608 128.196V128.197H89.8608V128.196H85.8608ZM85.8608 128.196V128.196H89.8608V128.196H85.8608ZM85.8608 128.195V128.196H89.8608V128.195H85.8608ZM85.8673 102.502C85.8522 111.066 85.8565 119.632 85.8608 128.196L89.8608 128.194C89.8565 119.629 89.8522 111.068 89.8673 102.51L85.8673 102.502ZM95.1882 87.5402C89.5854 90.255 85.7597 96.2464 85.8676 102.54L89.867 102.472C89.7867 97.7866 92.6848 93.198 96.9324 91.1399L95.1882 87.5402ZM103.203 108.314C103.043 106.05 104.139 104.073 105.786 103.54L104.555 99.734C100.536 101.033 98.9758 105.24 99.2135 108.596L103.203 108.314ZM103.202 125.3C103.207 119.685 103.212 114.069 103.208 108.454L99.2085 108.456C99.2125 114.068 99.2074 119.681 99.2023 125.297L103.202 125.3ZM103.202 125.3V125.299H99.2023V125.3H103.202ZM103.202 125.301V125.3H99.2023V125.301H103.202ZM103.202 125.303V125.301H99.2023V125.303H103.202ZM103.202 125.305V125.303H99.2023V125.305H103.202ZM103.244 159.005C103.182 147.774 103.192 136.542 103.202 125.307L99.2023 125.303C99.1921 136.537 99.1818 147.781 99.2445 159.027L103.244 159.005ZM107.247 163.601C105.048 163.697 103.036 161.542 103.237 159.186L99.2517 158.846C98.8648 163.38 102.589 167.807 107.42 167.597L107.247 163.601ZM152.881 163.636C137.695 163.67 122.521 163.703 107.347 163.599L107.32 167.599C122.514 167.703 137.707 167.67 152.89 167.636L152.881 163.636ZM159.061 163.623C157.001 163.627 154.941 163.632 152.881 163.636L152.89 167.636C154.95 167.632 157.01 167.627 159.07 167.623L159.061 163.623ZM163.633 159.285C163.856 161.655 161.651 163.857 159.252 163.632L158.879 167.614C163.744 168.071 168.075 163.807 167.616 158.911L163.633 159.285ZM163.639 150.157C163.634 153.136 163.629 156.116 163.624 159.095L167.624 159.101C167.629 156.122 167.634 153.143 167.639 150.164L163.639 150.157ZM163.639 150.155V150.161H167.639V150.155H163.639ZM163.602 107.338C163.688 121.606 163.664 135.874 163.639 150.152L167.639 150.159C167.664 135.884 167.688 121.6 167.601 107.314L163.602 107.338ZM159.182 103.23C161.549 103.036 163.698 105.046 163.603 107.24L167.6 107.412C167.809 102.576 163.376 98.8735 158.855 99.2436L159.182 103.23ZM133.825 103.188C142.227 103.179 150.615 103.17 159.002 103.237L159.035 99.237C150.626 99.1696 142.219 99.1789 133.821 99.1882L133.825 103.188ZM133.822 103.188H133.823V99.1882H133.822V103.188ZM133.822 103.188H133.822V99.1882H133.822V103.188ZM133.821 103.188H133.822V99.1882H133.821V103.188ZM110.752 103.155C118.449 103.205 126.141 103.197 133.823 103.188L133.819 99.1882C126.134 99.1967 118.457 99.2051 110.779 99.155L110.752 103.155ZM109.708 103.171C110.065 103.167 110.44 103.164 110.816 103.154L110.715 99.1556C110.376 99.1641 110.032 99.1674 109.67 99.1709L109.708 103.171ZM109.688 103.171H109.689V99.1708H109.688V103.171ZM109.688 103.171H109.688V99.1708H109.688V103.171ZM109.688 103.171H109.688V99.1708H109.688V103.171ZM109.688 103.171H109.688V99.1708H109.688V103.171ZM105.743 103.553C106.89 103.21 108.135 103.185 109.707 103.171L109.669 99.1709C108.198 99.1847 106.378 99.1888 104.598 99.7207L105.743 103.553ZM42.7409 124.165C42.1102 122.512 42.664 120.692 44.0177 119.392C45.3722 118.091 47.219 117.608 48.8469 118.301L50.412 114.619C47.009 113.173 43.5015 114.342 41.2472 116.507C38.9923 118.672 37.683 122.13 39.0037 125.591L42.7409 124.165ZM47.3489 129.546C45.3259 127.657 43.647 126.057 42.6786 124.019L39.0659 125.737C40.4159 128.577 42.6987 130.676 44.6189 132.469L47.3489 129.546ZM50.0951 132.251C49.2101 131.282 48.2457 130.383 47.3489 129.546L44.6189 132.469C45.5365 133.326 46.3824 134.118 47.1421 134.949L50.0951 132.251ZM47.2627 137.821C48.1944 136.922 49.1888 135.963 50.1098 134.933L47.1273 132.267C46.3215 133.169 45.4352 134.025 44.485 134.942L47.2627 137.821ZM47.379 137.699L47.379 137.699L44.3687 135.065L44.3687 135.065L47.379 137.699ZM47.3789 137.699L47.379 137.699L44.3687 135.065L44.3686 135.065L47.3789 137.699ZM42.7955 142.91C43.9021 141.08 45.4676 139.553 47.2626 137.821L44.4849 134.943C42.7562 136.611 40.7941 138.489 39.3722 140.841L42.7955 142.91ZM48.0448 149.195C46.4119 149.588 44.7393 148.882 43.6155 147.473C42.4892 146.062 42.1616 144.253 42.887 142.741L39.2807 141.011C37.7609 144.178 38.6088 147.612 40.4888 149.968C42.3712 152.327 45.5356 153.914 48.9807 153.084L48.0448 149.195ZM53.8501 144.64C51.7975 146.877 50.1691 148.58 47.9575 149.219L49.068 153.061C52.5384 152.059 54.8949 149.418 56.7975 147.344L53.8501 144.64ZM53.9098 144.578L53.9096 144.578L56.738 147.406L56.7382 147.406L53.9098 144.578ZM53.8498 144.64L53.8497 144.641L56.7983 147.343L56.7984 147.343L53.8498 144.64ZM56.8202 141.645C55.7316 142.586 54.7461 143.663 53.8504 144.64L56.7978 147.344C57.7234 146.335 58.553 145.434 59.4361 144.671L56.8202 141.645ZM62.3479 144.564C61.4624 143.616 60.5013 142.585 59.4515 141.658L56.8049 144.658C57.6851 145.434 58.5152 146.321 59.4248 147.294L62.3479 144.564ZM68.0115 149.197C65.9072 148.33 64.2936 146.647 62.3479 144.564L59.4248 147.294C61.2596 149.259 63.4436 151.641 66.488 152.895L68.0115 149.197ZM73.3566 142.645C74.1787 144.203 73.8276 146.092 72.5908 147.557C71.3536 149.022 69.5452 149.689 67.868 149.144L66.6315 152.948C70.1969 154.107 73.6135 152.546 75.647 150.138C77.6809 147.729 78.6463 144.099 76.8942 140.779L73.3566 142.645ZM68.8252 137.586C70.6606 139.338 72.271 140.89 73.4221 142.76L76.8286 140.664C75.3614 138.28 73.3574 136.382 71.5871 134.692L68.8252 137.586ZM68.8304 137.591L68.8307 137.591L71.5816 134.687L71.5814 134.687L68.8304 137.591ZM66.1965 134.974C67.0538 135.896 67.9645 136.764 68.825 137.586L71.5869 134.692C70.7114 133.857 69.8882 133.07 69.1258 132.25L66.1965 134.974ZM69.1846 129.297C68.1925 130.201 67.0914 131.201 66.1414 132.312L69.1809 134.912C69.9414 134.023 70.8517 133.19 71.8795 132.253L69.1846 129.297ZM73.7376 123.335C73.1757 125.582 71.4702 127.213 69.1846 129.297L71.8795 132.253C73.9868 130.331 76.7144 127.92 77.6181 124.305L73.7376 123.335ZM67.1397 118.429C68.6229 117.668 70.4268 117.948 71.8647 119.038C73.3019 120.127 74.0553 121.784 73.719 123.416L77.6367 124.223C78.3466 120.777 76.6785 117.667 74.2808 115.85C71.8837 114.033 68.4391 113.267 65.3144 114.869L67.1397 118.429ZM62.1931 122.905C63.9221 121.101 65.4617 119.509 67.3022 118.335L65.1519 114.963C62.8391 116.437 60.9777 118.392 59.3057 120.136L62.1931 122.905ZM59.5104 125.593C60.4587 124.715 61.3499 123.784 62.1931 122.905L59.3057 120.136C58.4484 121.031 57.6391 121.874 56.793 122.657L59.5104 125.593ZM54.1629 122.934C54.9849 123.803 55.8599 124.73 56.7941 125.594L59.5092 122.656C58.6908 121.9 57.9079 121.073 57.0696 120.186L54.1629 122.934ZM54.202 122.974L54.2021 122.974L57.0305 120.146L57.0304 120.146L54.202 122.974ZM48.6911 118.226C50.694 119.29 52.3021 120.966 54.1628 122.934L57.0696 120.186C55.29 118.304 53.2472 116.117 50.5678 114.694L48.6911 118.226ZM136.771 111.048C129.721 110.983 122.588 110.916 115.48 111.34L115.718 115.333C122.666 114.918 129.66 114.982 136.734 115.048L136.771 111.048ZM136.753 111.048H136.753V115.048H136.753V111.048ZM148.174 111.078C144.387 111.119 140.591 111.084 136.772 111.048L136.734 115.048C140.547 115.084 144.383 115.12 148.217 115.078L148.174 111.078ZM156.892 121.626C157.599 118.858 156.711 116.114 155.067 114.16C153.424 112.206 150.876 110.861 148.038 111.084L148.352 115.072C149.7 114.966 151.054 115.602 152.005 116.734C152.957 117.865 153.355 119.312 153.016 120.635L156.892 121.626ZM146.785 128.466C151.047 128.967 156.094 126.443 156.927 121.46L152.981 120.801C152.592 123.13 149.997 124.816 147.253 124.493L146.785 128.466ZM135.106 128.481C139.087 128.449 143.04 128.416 146.987 128.479L147.051 124.48C143.047 124.416 139.046 124.449 135.074 124.481L135.106 128.481ZM115.892 128.241C122.318 128.586 128.747 128.533 135.106 128.481L135.074 124.481C128.694 124.533 122.388 124.584 116.106 124.247L115.892 128.241ZM115.115 111.396C110.788 112.474 108.903 116.476 109.004 120.015C109.105 123.561 111.225 127.441 115.655 128.215L116.343 124.274C114.308 123.919 113.066 122.133 113.002 119.901C112.939 117.662 114.086 115.775 116.083 115.277L115.115 111.396ZM115.34 142.633C116.641 142.001 118.155 141.987 120.227 142.017L120.285 138.018C118.396 137.99 115.893 137.918 113.593 139.034L115.34 142.633ZM116.594 151.32C114.702 151.096 113.371 149.538 113.062 147.455C112.752 145.366 113.578 143.444 115.303 142.65L113.63 139.017C109.865 140.75 108.61 144.707 109.105 148.042C109.601 151.385 111.961 154.799 116.123 155.292L116.594 151.32ZM132.975 151.506C127.416 151.548 121.927 151.589 116.461 151.309L116.256 155.304C121.86 155.591 127.466 155.548 133.005 155.506L132.975 151.506ZM144.671 151.53C140.759 151.447 136.85 151.477 132.975 151.506L133.005 155.506C136.889 155.477 140.741 155.448 144.586 155.529L144.671 151.53ZM145.042 151.535C144.914 151.533 144.786 151.531 144.658 151.53L144.599 155.529C144.724 155.531 144.85 155.533 144.978 155.535L145.042 151.535ZM152.219 149.605C151.61 150.512 150.713 151.018 149.466 151.29C148.156 151.576 146.669 151.562 145.043 151.535L144.978 155.535C146.51 155.56 148.475 155.601 150.319 155.198C152.226 154.782 154.184 153.855 155.54 151.835L152.219 149.605ZM149.221 142.159C150.755 142.262 152.064 143.328 152.731 144.916C153.401 146.513 153.263 148.269 152.307 149.484L155.452 151.957C157.482 149.375 157.532 146.017 156.419 143.367C155.302 140.708 152.855 138.394 149.488 138.168L149.221 142.159ZM133.596 142.026C138.863 141.992 144.077 141.958 149.276 142.162L149.433 138.165C144.127 137.957 138.822 137.992 133.571 138.026L133.596 142.026ZM122.25 142.01C126.04 142.074 129.832 142.05 133.596 142.026L133.571 138.026C129.798 138.05 126.054 138.074 122.317 138.011L122.25 142.01ZM120.227 142.017C120.899 142.027 121.634 142.038 122.365 142.009L122.202 138.012C121.601 138.036 120.977 138.028 120.285 138.018L120.227 142.017Z" fill="url(#paint1_linear_642_11)"/>
<defs>
<linearGradient id="paint0_linear_642_11" x1="49" y1="172" x2="143" y2="31.5" gradientUnits="userSpaceOnUse">
<stop stop-color="#5570FF"/>
<stop offset="1" stop-color="#4DD3FF"/>
</linearGradient>
<linearGradient id="paint1_linear_642_11" x1="49" y1="172" x2="143" y2="31.5" gradientUnits="userSpaceOnUse">
<stop stop-color="#5570FF"/>
<stop offset="1" stop-color="#4DD3FF"/>
</linearGradient>
</defs>
</svg>
