<svg width="192" height="192" viewBox="0 0 192 192" fill="none" xmlns="http://www.w3.org/2000/svg">
<path d="M69.1088 21.4028C82.1588 17.2055 95.3047 12.6992 109.015 11.293C116.099 10.4408 123.248 11.5274 130.055 13.5195C126.422 16.4917 123.429 20.1457 121.277 24.3217C113.021 22.8622 104.605 24.3217 96.583 26.3565C84.9605 29.3926 73.5192 33.0679 62.2163 37.1267C61.6304 36.7538 60.4372 36.0294 59.8406 35.6566C63.3881 31.2249 66.6266 26.5269 69.1088 21.4028Z" fill="url(#paint0_linear)"/>
<path d="M55.3663 51.4551C66.0407 47.9396 76.7364 44.5306 87.5279 41.4199C88.1032 41.8673 89.2537 42.7728 89.829 43.2309C86.8675 46.7784 84.0018 50.7413 84.0124 55.5778C76.6831 57.9428 69.3112 60.1799 62.0032 62.6088C62.3121 63.8765 62.6211 65.1549 62.93 66.4333C63.7929 70.0234 64.6132 73.6134 65.4015 77.2248C62.0991 80.7829 58.9777 85.0122 59.3719 90.147C58.9884 90.0191 58.2107 89.7422 57.8272 89.6143C53.9175 87.1961 53.5979 82.2531 52.5966 78.2262C51.446 72.5588 49.8374 66.9766 48.8786 61.2772C48.0477 56.8668 51.1797 52.6056 55.3663 51.4551Z" fill="url(#paint1_linear)"/>
<path d="M121.277 24.3217C123.429 20.1457 126.422 16.4917 130.055 13.5195C144.138 18.2814 155.281 31.1823 156.794 46.1179C157.423 53.0637 156.421 60.2012 153.417 66.5185C149.348 65.1869 145.129 64.3559 140.868 63.9724C142.913 59.0613 144.777 53.8946 144.181 48.4829C143.733 41.9525 140.633 35.6885 135.733 31.3527C131.738 27.6242 126.582 25.419 121.277 24.3217Z" fill="url(#paint2_linear)"/>
<path d="M30.4382 34.9535C43.3604 30.5218 56.1227 25.664 69.1088 21.4028C66.6266 26.5269 63.3881 31.2249 59.8406 35.6566C60.4372 36.0294 61.6304 36.7538 62.2163 37.1267C51.8402 40.9085 41.3576 44.4027 31.0135 48.2698C26.8481 50.0382 21.8199 51.9558 20.1793 56.6111C19.0607 60.6913 19.9556 64.9738 20.2858 69.1072C21.447 79.7602 23.3433 90.3174 24.4618 100.97C23.8439 99.3512 23.1408 97.7639 22.4484 96.1766C19.114 100.15 15.9181 104.23 12.7967 108.374C10.9964 94.6426 8.69529 80.964 7.37431 67.179C6.78839 61.1707 6.49011 54.6936 9.63276 49.2925C13.7555 41.3666 22.523 37.8724 30.4382 34.9535Z" fill="url(#paint3_linear)"/>
<path d="M87.5279 41.4199C91.8744 41.0257 96.4765 41.079 100.418 43.1989C105.755 45.777 109.111 51.2313 110.411 56.8668C111.071 62.5982 109.867 68.7556 105.99 73.1873C101.025 79.3128 93.1208 81.4647 86.0898 84.2558C77.4714 87.1854 68.6401 90.6051 59.3719 90.147C58.9777 85.0122 62.0991 80.7829 65.4015 77.2248C73.9133 75.4031 82.1162 72.399 90.1379 69.0752C93.0356 67.8608 96.1782 66.2628 97.414 63.1628C98.5539 60.5954 97.3501 57.8789 96.4765 55.4393C92.6627 52.7547 88.018 54.2355 84.0124 55.5778C84.0018 50.7413 86.8675 46.7784 89.829 43.2309C89.2537 42.7728 88.1032 41.8673 87.5279 41.4199Z" fill="url(#paint4_linear)"/>
<path d="M140.218 63.8978L140.868 63.9724C145.129 64.3559 149.348 65.1869 153.417 66.5185C149.316 74.7959 143.627 82.1785 137.288 88.858C138.034 89.5717 138.79 90.2855 139.536 90.9992C144.277 95.5055 149.049 99.9904 153.79 104.507C150.743 107.448 147.75 110.441 144.809 113.488C138.428 107.565 132.186 101.503 125.836 95.5374C123.716 93.6199 121.852 90.946 122.353 87.9311C122.79 84.5754 125.677 82.4661 127.882 80.2077C132.697 75.3712 137.203 70.0553 140.218 63.8978Z" fill="url(#paint5_linear)"/>
<path d="M12.7967 108.374C15.9181 104.23 19.114 100.15 22.4484 96.1766C23.1408 97.7639 23.8439 99.3512 24.4618 100.97C27.5725 120.838 29.9055 140.856 32.9843 160.734C32.5262 159.818 32.0575 158.912 31.5781 158.007C28.6591 162.002 25.8361 166.071 23.0237 170.141C21.6068 166.572 20.5521 162.865 19.9556 159.072C17.2497 142.219 15.2363 125.259 12.7967 108.374Z" fill="url(#paint6_linear)"/>
<path d="M68.3631 110.441C65.6466 107.128 67.6813 101.546 71.836 100.64C74.7549 99.7454 77.5673 101.524 79.2505 103.804C88.6572 115.203 98.2662 126.442 107.758 137.777C104.701 140.738 101.697 143.753 98.7456 146.821C88.6572 134.666 78.2491 122.767 68.3631 110.441Z" fill="url(#paint7_linear)"/>
<path d="M144.809 113.488C147.75 110.441 150.743 107.448 153.79 104.507C159.841 110.313 166.169 115.821 172.369 121.467C177.61 126.421 182.82 131.971 184.982 139.023C185.078 142.113 184.844 145.447 182.883 147.993C179.4 152.723 173.392 154.46 167.905 155.589C155.09 157.964 142.349 160.724 129.533 163.067C123.173 164.218 116.685 162.3 111.295 158.912C106.512 155.567 102.495 151.264 98.7456 146.821C101.697 143.753 104.701 140.738 107.758 137.777C112.776 143.466 118.315 151.189 126.816 150.667C139.419 148.441 151.926 145.66 164.518 143.37C167.192 142.901 169.78 142.038 172.337 141.101C169.716 136.616 166.105 132.844 162.238 129.425C156.357 124.184 150.509 118.921 144.809 113.488Z" fill="url(#paint8_linear)"/>
<path d="M66.9675 136.903C67.4256 131.289 75.735 129.531 78.5154 134.357C80.401 138.8 80.6461 143.774 81.6155 148.472C82.2547 154.843 82.5103 161.895 78.8244 167.456C75.703 172.282 70.1528 174.796 64.6878 175.872C56.9324 177.417 49.1982 179.057 41.4108 180.474C37.2242 181.358 32.9204 180.357 29.2557 178.248C26.6244 176.021 24.7495 173.081 23.0237 170.141C25.8361 166.071 28.6591 162.002 31.5781 158.007C32.0575 158.912 32.5262 159.818 32.9843 160.734C34.1455 163.184 34.9231 165.88 36.7448 167.968C39.227 168.34 41.6878 167.499 44.1167 167.094C50.3275 165.773 56.5701 164.654 62.7809 163.323C65.2524 162.748 68.4057 161.725 68.949 158.87C70.4937 151.455 67.1699 144.243 66.9675 136.903Z" fill="url(#paint9_linear)"/>
<defs>
<linearGradient id="paint0_linear" x1="7" y1="180.796" x2="218.44" y2="84.186" gradientUnits="userSpaceOnUse">
<stop stop-color="#0357D1"/>
<stop offset="1" stop-color="#27CDFC"/>
</linearGradient>
<linearGradient id="paint1_linear" x1="7" y1="180.796" x2="218.44" y2="84.186" gradientUnits="userSpaceOnUse">
<stop stop-color="#0357D1"/>
<stop offset="1" stop-color="#27CDFC"/>
</linearGradient>
<linearGradient id="paint2_linear" x1="7" y1="180.796" x2="218.44" y2="84.186" gradientUnits="userSpaceOnUse">
<stop stop-color="#0357D1"/>
<stop offset="1" stop-color="#27CDFC"/>
</linearGradient>
<linearGradient id="paint3_linear" x1="7" y1="180.796" x2="218.44" y2="84.186" gradientUnits="userSpaceOnUse">
<stop stop-color="#0357D1"/>
<stop offset="1" stop-color="#27CDFC"/>
</linearGradient>
<linearGradient id="paint4_linear" x1="7" y1="180.796" x2="218.44" y2="84.186" gradientUnits="userSpaceOnUse">
<stop stop-color="#0357D1"/>
<stop offset="1" stop-color="#27CDFC"/>
</linearGradient>
<linearGradient id="paint5_linear" x1="7" y1="180.796" x2="218.44" y2="84.186" gradientUnits="userSpaceOnUse">
<stop stop-color="#0357D1"/>
<stop offset="1" stop-color="#27CDFC"/>
</linearGradient>
<linearGradient id="paint6_linear" x1="7" y1="180.796" x2="218.44" y2="84.186" gradientUnits="userSpaceOnUse">
<stop stop-color="#0357D1"/>
<stop offset="1" stop-color="#27CDFC"/>
</linearGradient>
<linearGradient id="paint7_linear" x1="7" y1="180.796" x2="218.44" y2="84.186" gradientUnits="userSpaceOnUse">
<stop stop-color="#0357D1"/>
<stop offset="1" stop-color="#27CDFC"/>
</linearGradient>
<linearGradient id="paint8_linear" x1="7" y1="180.796" x2="218.44" y2="84.186" gradientUnits="userSpaceOnUse">
<stop stop-color="#0357D1"/>
<stop offset="1" stop-color="#27CDFC"/>
</linearGradient>
<linearGradient id="paint9_linear" x1="7" y1="180.796" x2="218.44" y2="84.186" gradientUnits="userSpaceOnUse">
<stop stop-color="#0357D1"/>
<stop offset="1" stop-color="#27CDFC"/>
</linearGradient>
</defs>
</svg>
