<svg width="32" height="32" viewBox="0 0 32 32" fill="none" xmlns="http://www.w3.org/2000/svg">
<path d="M28.0714 3H3.92857C3.41574 3 3 3.41574 3 3.92857V28.0714C3 28.5843 3.41574 29 3.92857 29H28.0714C28.5843 29 29 28.5843 29 28.0714V3.92857C29 3.41574 28.5843 3 28.0714 3Z" stroke="url(#paint0_linear)" stroke-width="3" stroke-linejoin="round"/>
<path d="M21.5716 7.64307V8.57164H10.4288C10.1491 8.57096 9.87286 8.6338 9.62097 8.7554C9.36908 8.877 9.14808 9.0542 8.97464 9.27364C8.71356 9.60204 8.5715 10.0092 8.57164 10.4288V15.0716C8.57192 15.1775 8.58124 15.2831 8.59949 15.3874C8.63081 15.5702 8.68934 15.7474 8.77314 15.9129C8.92845 16.2186 9.16533 16.4753 9.45756 16.6546C9.74978 16.8339 10.0859 16.9288 10.4288 16.9288H20.6431C20.8026 16.9294 20.9592 16.971 21.0981 17.0495C21.1632 17.0861 21.2237 17.1303 21.2782 17.1814C21.3708 17.2679 21.4447 17.3726 21.4952 17.4889C21.5456 17.6052 21.5717 17.7306 21.5716 17.8574V20.6431C21.5716 20.8893 21.4738 21.1255 21.2997 21.2997C21.1255 21.4738 20.8893 21.5716 20.6431 21.5716H10.4288V20.6431L7.64307 22.5002L10.4288 24.3574V23.4288H21.5716C21.8204 23.4294 22.0667 23.3798 22.2958 23.283C22.525 23.1861 22.7322 23.044 22.9051 22.8651C23.1216 22.642 23.2787 22.368 23.3619 22.0684C23.4065 21.9066 23.429 21.7395 23.4288 21.5716V16.9288C23.4285 16.8229 23.4192 16.7173 23.4009 16.6131C23.3696 16.4302 23.3111 16.253 23.2273 16.0875C23.072 15.7818 22.8351 15.5252 22.5429 15.3459C22.2506 15.1666 21.9145 15.0716 21.5716 15.0716H11.3574C11.1979 15.071 11.0412 15.0295 10.9024 14.9509C10.8372 14.9144 10.7767 14.8701 10.7222 14.8191C10.6296 14.7325 10.5557 14.6278 10.5053 14.5116C10.4548 14.3953 10.4287 14.2698 10.4288 14.1431V11.3574C10.4288 11.1111 10.5266 10.8749 10.7008 10.7008C10.8749 10.5266 11.1111 10.4288 11.3574 10.4288H21.5716V11.3574L24.3574 9.50021L21.5716 7.64307Z" fill="url(#paint1_linear)" stroke="url(#paint2_linear)" stroke-width="2"/>
<defs>
<linearGradient id="paint0_linear" x1="16" y1="29" x2="16" y2="3" gradientUnits="userSpaceOnUse">
<stop stop-color="#5570FF"/>
<stop offset="1" stop-color="#4DD3FF"/>
</linearGradient>
<linearGradient id="paint1_linear" x1="16.0002" y1="24.3574" x2="16.0002" y2="7.64307" gradientUnits="userSpaceOnUse">
<stop stop-color="#5570FF"/>
<stop offset="1" stop-color="#4DD3FF"/>
</linearGradient>
<linearGradient id="paint2_linear" x1="16.0002" y1="24.3574" x2="16.0002" y2="7.64307" gradientUnits="userSpaceOnUse">
<stop stop-color="#5570FF"/>
<stop offset="1" stop-color="#4DD3FF"/>
</linearGradient>
</defs>
</svg>
