<svg width="128" height="128" viewBox="0 0 128 128" fill="none" xmlns="http://www.w3.org/2000/svg">
<path fill-rule="evenodd" clip-rule="evenodd" d="M69.4748 8.85573C80.2251 15.8813 92.7323 19.5951 105.652 19.5951C107.568 19.5951 109.118 21.1151 109.118 22.9935V62.0204C109.118 89.1977 91.4494 113.232 65.1558 121.824C64.8004 121.94 64.4281 122 64.0591 122C63.69 122 63.3178 121.94 62.9624 121.824C36.669 113.232 19 89.1977 19 62.0204V22.9935C19 21.1151 20.5503 19.5951 22.4661 19.5951C35.386 19.5951 47.893 15.8816 58.6433 8.85573L62.1363 6.57246C63.3007 5.80918 64.8172 5.80918 65.9816 6.57246L69.4748 8.85573ZM64.0591 115.007C86.9136 107.039 102.186 85.8889 102.186 62.0204V26.3124C89.1308 25.7018 76.5561 21.6527 65.6297 14.5109L64.0591 13.4855L62.4884 14.5109C51.5623 21.6529 38.9876 25.7018 25.9322 26.3124V62.0204C25.9322 85.8889 41.2048 107.039 64.0591 115.007ZM64.0591 94.8128C46.8573 94.8128 32.8643 81.0931 32.8643 64.2274C32.8643 47.3616 46.8573 33.6417 64.0591 33.6417C81.2608 33.6417 95.2541 47.3616 95.2541 64.2274C95.2541 81.0931 81.2608 94.8128 64.0591 94.8128ZM64.0591 88.0162C77.4363 88.0162 88.3218 77.343 88.3218 64.2274C88.3218 51.1118 77.4363 40.4386 64.0591 40.4386C50.6821 40.4386 39.7966 51.1115 39.7966 64.2274C39.7966 77.343 50.6821 88.0162 64.0591 88.0162ZM69.6051 64L78.5773 72.9722C78.6633 73.0579 78.7314 73.1598 78.7781 73.2719C78.8246 73.384 78.8486 73.5041 78.8486 73.6257C78.8486 73.747 78.8246 73.8672 78.7781 73.9795C78.7314 74.0915 78.6633 74.1934 78.5773 74.2789L74.3389 78.5176C74.1654 78.6906 73.9304 78.7882 73.6854 78.7882C73.4403 78.7882 73.2053 78.6906 73.032 78.5176L64.0598 69.5454L55.0876 78.5176C55.0018 78.6035 54.8999 78.6717 54.7878 78.7184C54.6758 78.7648 54.5556 78.7888 54.4341 78.7888C54.3128 78.7888 54.1926 78.7648 54.0803 78.7184C53.9682 78.6717 53.8663 78.6035 53.7806 78.5176L49.5422 74.2789C49.3691 74.1056 49.2716 73.8706 49.2716 73.6257C49.2716 73.3805 49.3691 73.1455 49.5422 72.9722L58.5144 64L49.5422 55.0278C49.4562 54.9421 49.3881 54.8402 49.3414 54.7281C49.2949 54.616 49.2709 54.4959 49.2709 54.3743C49.2709 54.253 49.2949 54.1328 49.3414 54.0205C49.3881 53.9085 49.4562 53.8066 49.5422 53.7208L53.7806 49.4824C53.9541 49.3094 54.1891 49.2119 54.4341 49.2119C54.6792 49.2119 54.9142 49.3094 55.0876 49.4824L64.0598 58.4546L73.032 49.4824C73.1177 49.3965 73.2196 49.3283 73.3317 49.2816C73.4437 49.2352 73.5639 49.2112 73.6854 49.2112C73.8068 49.2112 73.9269 49.2352 74.0392 49.2816C74.1513 49.3283 74.2532 49.3965 74.3389 49.4824L78.5773 53.7208C78.7492 53.8951 78.8456 54.1298 78.8456 54.3743C78.8456 54.619 78.7492 54.8538 78.5773 55.0278L69.6051 64Z" fill="url(#paint0_linear_678_232)" stroke="url(#paint1_linear_678_232)" stroke-width="3"/>
<defs>
<linearGradient id="paint0_linear_678_232" x1="64.0593" y1="122" x2="64.0593" y2="6" gradientUnits="userSpaceOnUse">
<stop stop-color="#E80058"/>
<stop offset="0.9997" stop-color="#FF001D"/>
<stop offset="0.9998" stop-color="#FF867E"/>
</linearGradient>
<linearGradient id="paint1_linear_678_232" x1="64.0593" y1="122" x2="64.0593" y2="6" gradientUnits="userSpaceOnUse">
<stop stop-color="#E80058"/>
<stop offset="0.9997" stop-color="#FF001D"/>
<stop offset="0.9998" stop-color="#FF867E"/>
</linearGradient>
</defs>
</svg>
