<svg width="64" height="64" viewBox="0 0 64 64" fill="none" xmlns="http://www.w3.org/2000/svg">
<path d="M1.60738 25.74C21.2871 17.2334 40.9585 8.69833 60.6508 0.21622C62.3601 -0.618955 64.4497 1.1125 63.9147 2.89285C60.8556 18.5208 57.7922 34.1528 54.6871 49.7767C54.5032 51.2678 52.6895 52.1437 51.327 51.4837C43.8881 48.5178 36.4534 45.5356 29.0228 42.5494C27.5726 42.0931 26.9248 40.2028 27.8693 39.0172C30.3518 35.6561 32.8718 32.3236 35.4002 28.991C31.0288 32.1403 26.6407 35.2691 22.2567 38.3939C21.425 39.1191 20.2549 39.0131 19.2937 38.6261C16.8238 37.7543 14.3121 36.9883 11.8547 36.0798C10.275 35.5095 9.96992 33.2199 11.2655 32.2136C11.9467 31.6025 12.9664 31.5169 13.8022 31.851C15.9838 32.5477 18.136 33.3339 20.3217 34.0265C28.5631 28.1029 36.8169 22.1956 45.0792 16.3045C46.0905 15.5142 47.7246 15.7545 48.4476 16.7975C49.1288 17.6775 48.9867 18.9404 48.2763 19.7593C43.3657 26.2818 38.4552 32.8043 33.5321 39.3187C39.2074 41.6001 44.8828 43.8816 50.5706 46.1345C53.1492 32.9103 55.7695 19.69 58.3397 6.46577C40.0725 14.3001 21.8095 22.1548 3.53816 29.9851C2.2468 30.7184 0.395422 29.9851 0.086163 28.5429C-0.25653 27.3859 0.458109 26.1351 1.60738 25.74Z" fill="#E15AF4"/>
<path d="M24.572 45.1731C25.8132 43.8938 28.3458 44.6883 28.5213 46.4605C28.6425 49.3978 28.5338 52.3474 28.5673 55.2889C30.1971 53.317 31.8855 51.3941 33.5196 49.4264C34.0629 48.8071 34.6229 48.0616 35.5214 47.9556C36.8838 47.6786 38.288 48.7908 38.3047 50.1393C38.405 51.1008 37.6695 51.8341 37.1053 52.5267C34.0462 56.0711 31.0622 59.6725 27.9947 63.2047C26.8246 64.708 23.966 63.9502 23.8741 62.0191C23.7654 57.3911 23.8573 52.7589 23.8072 48.1267C23.8448 47.1205 23.686 45.8982 24.572 45.1731Z" fill="#E15AF4"/>
</svg>
