<svg width="64" height="64" viewBox="0 0 64 64" fill="none" xmlns="http://www.w3.org/2000/svg">
<g clip-path="url(#clip0)">
<path d="M25.5512 0.668199C32.0035 -0.704296 38.8841 0.0518096 44.8878 2.80502C45.626 3.11732 46.1277 3.83644 46.2623 4.6172C46.5233 6.31844 44.6594 7.83887 43.0769 7.09509C38.9575 5.21716 34.3773 4.39119 29.8664 4.7487C28.9283 2.94473 26.8441 2.19274 25.5512 0.668199Z" fill="#2588FF"/>
<path d="M14.9224 5.11444C18.1404 2.9694 21.7744 1.45719 25.5512 0.668213C26.8441 2.19275 28.9282 2.94475 29.8663 4.74871C25.8693 5.06513 21.9539 6.30202 18.4952 8.35254C17.549 7.02114 16.358 5.89109 14.9224 5.11444Z" fill="#3182FF"/>
<path opacity="0.12" d="M18.4952 8.35251C21.9539 6.30199 25.8693 5.0651 29.8663 4.74869C34.3773 4.39118 38.9575 5.21714 43.0769 7.09508C44.6594 7.83885 46.5233 6.31843 46.2623 4.61719C47.0617 4.46515 46.7109 5.5993 46.6905 6.0431C46.2949 7.6375 44.4473 8.57852 42.9219 8.06076C40.9723 7.44437 39.0717 6.64717 37.0487 6.28555C31.4937 4.98291 25.6409 6.05543 20.4978 8.37306C14.3106 11.6687 9.10225 17.3148 7.22202 24.2061C6.29618 27.2798 5.86793 30.5097 6.02699 33.7231C6.26763 36.1188 6.88757 38.457 7.58093 40.7541C7.54015 40.9924 7.46265 41.4691 7.42187 41.7115C6.76929 40.1952 6.30841 38.609 5.95358 36.9982C5.08484 32.8232 5.21127 28.4427 6.3288 24.3293C7.25057 20.9638 8.83714 17.7874 10.9662 15.0301C13.0381 12.359 15.6035 10.0825 18.4952 8.35251Z" fill="black"/>
<path opacity="0.12" d="M23.2142 18.4778C23.3896 17.849 22.9165 16.5423 23.8464 16.4807C22.9858 20.4338 25.0903 24.7732 28.7366 26.4785C30.6862 27.5264 32.9824 27.2182 35.0176 27.9989C42.4529 30.2344 48.0813 37.4543 48.375 45.2825L47.8937 45.1222C47.1596 40.602 45.2712 36.1517 41.8452 33.0328C40.6175 32.0753 39.3899 31.0891 38.0399 30.3042C35.8293 29.1783 33.3943 28.5865 30.9513 28.2496C26.4567 27.4524 22.8308 23.1459 23.2142 18.4778Z" fill="black"/>
<path opacity="0.12" d="M10.7663 23.5938L11.2231 23.5773C10.8602 24.6827 10.5339 25.8046 10.3299 26.951C9.31845 32.3753 10.3544 38.1734 13.2951 42.8416C16.7374 48.4137 22.7288 52.334 29.222 53.0777C29.7848 53.2832 30.2865 53.7311 30.9023 53.7476C31.6324 53.5503 32.338 53.2832 33.0599 53.0736C33.8797 52.8764 34.6954 52.6216 35.4418 52.2189C38.9943 50.4191 40.9683 46.0879 40.0547 42.1964L40.5523 42.0115C41.1518 45.1469 40.7807 48.7712 38.3947 51.093C36.5471 53.2175 33.741 54.405 30.9431 54.2242C19.6046 54.1831 9.48975 43.8771 9.36739 32.4862C9.34292 29.4988 9.40817 26.3018 10.7663 23.5938Z" fill="black"/>
<path opacity="0.12" d="M17.5204 33.8916C17.704 33.8053 18.0751 33.6327 18.2627 33.5423C21.5623 36.6612 25.7388 38.8268 30.1885 39.6446C31.1633 39.8459 32.2074 39.7596 33.1129 40.2281C35.1481 41.128 36.2167 43.7538 35.3113 45.8167C35.1073 44.0949 34.7606 41.9334 32.9416 41.202C30.9023 40.5363 28.7325 40.3678 26.7054 39.6487C23.2876 38.4077 20.1022 36.4763 17.5204 33.8916Z" fill="black"/>
<path d="M7.80524 11.5577C9.83637 9.06341 12.2305 6.86496 14.9224 5.11441C16.358 5.89106 17.549 7.02111 18.4952 8.35251C15.6035 10.0825 13.0381 12.359 10.9661 15.0301C9.5264 14.3109 8.46597 13.0083 7.80524 11.5577Z" fill="#3C7CFF"/>
<path d="M28.4388 10.325C31.2326 8.75525 34.5404 9.21138 37.5055 9.96748C44.125 11.64 49.782 16.6533 52.3516 23.0144C54.1094 27.3045 54.4439 32.1452 53.3957 36.653C52.5392 35.1614 51.1769 34.1135 49.9533 32.9629C49.7576 31.9274 49.6964 30.8672 49.3212 29.8728C48.95 23.6842 45.0264 17.9066 39.4714 15.2561C36.8488 14.1302 33.8266 13.1111 30.9838 13.8836C30.1192 13.4932 29.8541 12.6138 29.4829 11.829C29.1118 11.6112 28.708 11.4715 28.3246 11.2866C28.345 10.966 28.3858 10.6414 28.4388 10.325Z" fill="#2B85FF"/>
<path d="M23.8463 16.4807C24.3684 13.8754 26.1059 11.566 28.4388 10.325C28.3858 10.6414 28.345 10.966 28.3246 11.2865C28.708 11.4715 29.1118 11.6112 29.483 11.829C29.8541 12.6138 30.1192 13.4932 30.9839 13.8836C28.8875 14.7548 27.6843 17.3806 28.6101 19.5174C29.124 20.8899 30.3517 21.9295 31.7751 22.2377C37.9093 22.7596 43.7417 25.9443 47.6408 30.7316C48.2118 31.4507 48.7421 32.1986 49.2845 32.9342C49.3334 31.9151 49.3824 30.8919 49.3212 29.8728C49.6964 30.8672 49.7576 31.9274 49.9534 32.9629C51.177 34.1135 52.5392 35.1614 53.3957 36.653C52.5882 40.0637 50.9445 43.2443 48.6972 45.9153C48.6238 45.9359 48.4688 45.9729 48.3954 45.9934C48.3913 45.8167 48.3791 45.4592 48.375 45.2825C48.0813 37.4544 42.4529 30.2344 35.0176 27.9989C32.9824 27.2182 30.6861 27.5264 28.7366 26.4785C25.0903 24.7732 22.9858 20.4338 23.8463 16.4807Z" fill="#367FFF"/>
<path d="M2.76001 20.3475C3.9428 17.1628 5.66804 14.1836 7.80522 11.5577C8.46595 13.0083 9.52639 14.3109 10.9661 15.0301C8.83711 17.7874 7.25054 20.9638 6.32877 24.3293C5.25203 22.9075 4.26501 21.3583 2.76001 20.3475Z" fill="#4776FF"/>
<path opacity="0.11" d="M30.9839 13.8836C33.8266 13.1111 36.8489 14.1301 39.4714 15.2561C45.0264 17.9066 48.95 23.6842 49.3212 29.8727C49.3824 30.8918 49.3334 31.915 49.2845 32.9341C48.742 32.1986 48.2118 31.4507 47.6408 30.7316C48.9215 30.0577 48.4932 28.5167 48.2526 27.3866C47.2044 23.2075 44.59 19.3448 40.8744 17.1381C37.999 15.3835 34.4792 14.1795 31.1144 15.0136C29.4258 15.8396 28.8589 17.7874 28.6101 19.5174C27.6843 17.3806 28.8875 14.7548 30.9839 13.8836Z" fill="black"/>
<path d="M55.2841 16.6245C55.9162 15.0136 58.3634 14.8041 59.2892 16.2423C60.5251 18.4243 61.4387 20.7871 62.1035 23.2116C62.964 26.5031 63.3148 29.9303 63.119 33.3327C61.2266 32.9013 60.5373 30.8425 58.8651 30.0864C58.8161 31.2247 58.7835 32.3712 58.4735 33.4724C58.7835 28.9523 58.0004 24.354 56.1039 20.2365C55.6022 19.1147 54.6478 17.9065 55.2841 16.6245Z" fill="#2389FF"/>
<path d="M11.2231 23.5773C12.1734 20.9269 13.6091 18.4284 15.5097 16.3574C15.575 21.5967 17.8263 26.7743 21.6806 30.3042C24.6743 33.0739 28.5653 34.923 32.6316 35.2394C36.2167 35.7325 39.3083 38.6337 40.0546 42.1964C40.9683 46.0879 38.9942 50.4191 35.4418 52.2189C33.9082 50.8053 32.6275 48.9274 30.4414 48.5124C32.4358 48.8986 34.5812 47.7275 35.3112 45.8167C36.2167 43.7538 35.1481 41.128 33.1129 40.2281C32.2074 39.7596 31.1633 39.8459 30.1885 39.6446C25.7388 38.8268 21.5623 36.6612 18.2627 33.5423C16.9291 32.2397 15.6606 30.8261 14.7348 29.1947C14.5798 30.3206 14.5268 31.463 14.6614 32.5972C14.1189 31.3726 13.8864 29.8892 12.7893 29.0139C12.0021 28.2866 11.2109 27.5633 10.3299 26.951C10.5338 25.8046 10.8601 24.6827 11.2231 23.5773Z" fill="#4577FF"/>
<path d="M2.76005 20.3475C4.26505 21.3584 5.25207 22.9075 6.32881 24.3293C5.21128 28.4427 5.08484 32.8232 5.95358 36.9982C3.99586 36.049 3.11896 33.267 0.798248 33.1314C0.631026 29.807 0.977706 26.4662 1.82605 23.2527C2.08708 22.2665 2.40113 21.2967 2.76005 20.3475Z" fill="#5171FF"/>
<path opacity="0.11" d="M1.3896 23.1705L1.82601 23.2527C0.977664 26.4662 0.630983 29.807 0.798205 33.1314C1.1612 40.7048 4.39144 48.0809 9.67729 53.4723C14.7796 58.7485 21.7785 62.1223 29.0669 62.7633C32.9905 63.1249 36.9875 62.7592 40.7724 61.6415C43.5867 60.8114 46.2908 59.5868 48.7583 57.9924C51.336 56.3405 53.6689 54.3023 55.6552 51.9683C57.4539 49.8725 58.967 47.5261 60.1498 45.0277C61.8791 41.3705 62.8947 37.3763 63.119 33.3327C63.3148 29.9303 62.964 26.5031 62.1035 23.2116L62.5562 23.1459C63.7145 25.9813 63.4575 29.1166 64 32.0835C63.7471 33.8012 63.5024 35.5189 63.4168 37.2571C62.1198 44.21 58.7142 50.8382 53.4691 55.5967C48.0568 60.4991 40.9805 63.618 33.6798 63.9344C23.0183 64.6577 12.2305 59.3444 6.0759 50.5629C2.86605 45.9893 0.651376 40.5692 0.316932 34.9477C0.170103 33.5793 -0.131712 32.2068 0.0640598 30.8261C0.406661 28.266 0.361797 25.5786 1.3896 23.1705Z" fill="black"/>
<path d="M10.3299 26.951C11.2109 27.5633 12.0021 28.2866 12.7893 29.0139C13.8864 29.8892 14.1189 31.3726 14.6614 32.5972C15.212 40.8239 22.2679 47.9617 30.4414 48.5124C32.6275 48.9274 33.9082 50.8053 35.4418 52.2189C34.6954 52.6216 33.8797 52.8764 33.0599 53.0736C31.7792 53.2092 30.4985 53.0161 29.2219 53.0778C22.7288 52.334 16.7374 48.4137 13.295 42.8416C10.3544 38.1735 9.31841 32.3753 10.3299 26.951Z" fill="#5071FF"/>
<path d="M58.8651 30.0864C60.5373 30.8425 61.2266 32.9013 63.1191 33.3327C62.8947 37.3763 61.8792 41.3705 60.1498 45.0277C59.5462 44.2675 59.0364 43.3922 58.2533 42.8046C57.5803 42.7142 56.9196 42.5539 56.3119 42.2334C57.5028 39.4597 58.237 36.4887 58.4735 33.4725C58.7835 32.3712 58.8161 31.2247 58.8651 30.0864Z" fill="#2D84FF"/>
<path d="M0.798218 33.1314C3.11893 33.267 3.99583 36.049 5.95355 36.9982C6.30839 38.609 6.76927 40.1952 7.42184 41.7115C10.4645 49.2068 17.0636 55.1036 24.8129 57.261L24.817 57.2733C25.0821 57.9924 25.3391 58.7814 26.0365 59.2006C27.0562 59.8868 27.7862 60.8977 28.7406 61.6661C28.8222 61.9414 28.9853 62.488 29.0669 62.7633C21.7785 62.1222 14.7796 58.7485 9.6773 53.4722C4.39145 48.0809 1.16121 40.7048 0.798218 33.1314Z" fill="#5A6CFF"/>
<path d="M56.3119 42.2334C56.9196 42.5539 57.5803 42.7142 58.2533 42.8046C59.0364 43.3922 59.5462 44.2675 60.1498 45.0277C58.967 47.5261 57.4539 49.8725 55.6552 51.9682C54.346 51.1135 53.2693 49.9711 52.0824 48.9644C53.7954 46.9344 55.2311 44.6702 56.3119 42.2334Z" fill="#377EFF"/>
<path d="M45.8666 54.2941C48.1792 52.8271 50.2797 51.0313 52.0824 48.9644C53.2693 49.9712 54.346 51.1135 55.6553 51.9683C53.669 54.3023 51.336 56.3405 48.7584 57.9924C48.2975 56.4022 46.6905 55.6543 45.8666 54.2941Z" fill="#407AFF"/>
<path opacity="0.44" d="M29.2219 53.0778C30.4985 53.0161 31.7791 53.2093 33.0598 53.0737C32.3379 53.2832 31.6323 53.5503 30.9022 53.7476C30.2864 53.7311 29.7847 53.2832 29.2219 53.0778Z" fill="#1A2656"/>
<path d="M37.2771 57.7089C40.3075 57.0638 43.2196 55.9132 45.8666 54.2941C46.6905 55.6543 48.2975 56.4022 48.7583 57.9925C46.2908 59.5869 43.5867 60.8114 40.7725 61.6415C39.5693 60.3635 38.0357 59.3485 37.2771 57.7089Z" fill="#4975FF"/>
<path d="M24.817 57.2733C28.8711 58.3623 33.1577 58.5225 37.2771 57.7089C38.0357 59.3485 39.5693 60.3635 40.7724 61.6415C36.9875 62.7592 32.9905 63.1249 29.0669 62.7633C28.9853 62.488 28.8222 61.9414 28.7406 61.6661C27.7862 60.8977 27.0562 59.8868 26.0365 59.2006C25.3391 58.7814 25.0821 57.9924 24.817 57.2733Z" fill="#5270FF"/>
</g>
<defs>
<clipPath id="clip0">
<rect width="64" height="64" fill="white"/>
</clipPath>
</defs>
</svg>
