<svg width="128" height="128" viewBox="0 0 128 128" fill="none" xmlns="http://www.w3.org/2000/svg">
<path d="M118.443 57.8652C117.478 57.2627 116.27 57.2116 115.251 57.7211L93.75 68.4717V54.0938C93.75 52.2801 92.2824 50.8125 90.4688 50.8125H81.8483C84.9965 47.3215 86.9688 42.7481 86.9688 37.6875C86.9688 26.8311 78.1376 18 67.2812 18C56.4249 18 47.5938 26.8311 47.5938 37.6875C47.5938 42.7481 49.566 47.3215 52.7143 50.8125H44.2288C46.3108 48.0619 47.5938 44.6761 47.5938 40.9688C47.5938 31.9227 40.2335 24.5625 31.1875 24.5625C22.1415 24.5625 14.7812 31.9227 14.7812 40.9688C14.7812 44.6761 16.0642 48.0619 18.1462 50.8125H11.2812C9.46759 50.8125 8 52.2801 8 54.0938V106.594C8 108.408 9.46759 109.875 11.2812 109.875H90.4688C92.2824 109.875 93.75 108.408 93.75 106.594V92.2158L115.251 102.966C116.287 103.48 117.493 103.413 118.443 102.823C119.41 102.223 120 101.169 120 100.031V60.6562C120 59.5188 119.41 58.4644 118.443 57.8652ZM67.2812 24.5625C74.5199 24.5625 80.4062 30.4489 80.4062 37.6875C80.4062 44.9261 74.5199 50.8125 67.2812 50.8125C60.0426 50.8125 54.1562 44.9261 54.1562 37.6875C54.1562 30.4489 60.0426 24.5625 67.2812 24.5625ZM31.1875 31.125C36.6156 31.125 41.0312 35.5407 41.0312 40.9688C41.0312 46.3968 36.6156 50.8125 31.1875 50.8125C25.7594 50.8125 21.3438 46.3968 21.3438 40.9688C21.3438 35.5407 25.7594 31.125 31.1875 31.125ZM87.1875 103.312H14.5625V57.375H87.1875V103.312ZM113.438 94.7217L93.75 84.878V75.8098L113.438 65.966V94.7217ZM24.625 96.75H64C65.8137 96.75 67.2812 95.2824 67.2812 93.4688V67.2188C67.2812 65.4051 65.8137 63.9375 64 63.9375H24.625C22.8113 63.9375 21.3438 65.4051 21.3438 67.2188V93.4688C21.3438 95.2824 22.8113 96.75 24.625 96.75ZM27.9062 70.5H60.7188V90.1875H27.9062V70.5ZM77.125 70.5C78.9371 70.5 80.4062 69.0309 80.4062 67.2188C80.4062 65.4066 78.9371 63.9375 77.125 63.9375C75.3129 63.9375 73.8438 65.4066 73.8438 67.2188C73.8438 69.0309 75.3129 70.5 77.125 70.5Z" fill="url(#paint0_linear_640_123)" stroke="url(#paint1_linear_640_123)" stroke-width="3"/>
<defs>
<linearGradient id="paint0_linear_640_123" x1="73.625" y1="83.625" x2="10.5" y2="68" gradientUnits="userSpaceOnUse">
<stop stop-color="#D5085E"/>
<stop offset="1" stop-color="#FF9678"/>
</linearGradient>
<linearGradient id="paint1_linear_640_123" x1="73.625" y1="83.625" x2="10.5" y2="68" gradientUnits="userSpaceOnUse">
<stop stop-color="#D5085E"/>
<stop offset="1" stop-color="#FF9678"/>
</linearGradient>
</defs>
</svg>
