<svg width="128" height="128" viewBox="0 0 128 128" fill="none" xmlns="http://www.w3.org/2000/svg">
<path d="M99.7504 0.438924C103.042 -1.20075 107.16 1.97991 106.992 6.22332C107.115 8.57656 105.734 10.4288 104.34 11.8863C95.4323 21.656 86.6348 31.5623 77.8308 41.4459C77.082 42.3568 75.9848 42.5618 75.023 43.0021C73.0673 42.539 71.1632 40.7627 71.26 38.2197C71.1632 36.6332 72.041 35.3351 72.9834 34.3331C79.3347 27.2278 85.6988 20.1454 91.9985 12.987C74.6228 20.5705 57.2537 28.1767 39.8909 35.8057C56.208 42.2658 72.538 48.6878 88.8616 55.125C92.4568 56.4687 96.394 58.6777 97.5365 63.3082C99.8408 72.9413 99.2663 83.212 97.5171 92.9058C97.0266 95.5703 95.7937 98.3486 93.5153 99.381C72.0604 108.839 50.6765 118.564 29.0731 127.567C26.0459 128.994 22.4185 126.732 21.3987 123.187C20.4563 120.454 21.2502 117.212 23.0898 115.284C30.6997 106.76 38.2515 98.1512 45.913 89.6796C48.0818 87.1214 52.2127 89.2014 52.2385 92.7768C52.4967 95.426 50.457 97.0505 49.0499 98.6826C43.712 104.361 38.7614 110.525 33.3525 116.112C50.812 108.726 68.1167 100.831 85.531 93.293C70.7888 87.4782 56.0918 81.504 41.3497 75.6741C38.0256 74.3077 34.6434 73.0324 31.5517 71.0207C29.0408 69.4342 27.2917 66.4585 26.6978 63.2095C25.0584 54.1913 25.7426 44.8391 27.2594 35.8665C27.6015 33.4981 28.8085 31.2056 30.719 30.2263C53.7424 20.3427 76.5076 9.58617 99.7504 0.438924ZM33.9657 43.4424C33.2621 49.0142 33.1395 54.7227 34.0108 60.2794C34.1722 61.2814 34.3207 62.5415 35.1985 63.0577C37.3285 64.4545 39.6392 65.4261 41.937 66.375C58.2218 72.7895 74.4873 79.2647 90.7786 85.6563C91.424 78.9838 91.7919 71.9393 89.933 65.4944C87.4416 63.9459 84.6984 63.0805 82.0456 61.995C67.213 56.0587 52.2966 50.4337 37.4834 44.4216C36.3474 43.9206 35.1598 43.6473 33.9657 43.4424Z" fill="url(#paint0_linear)"/>
<defs>
<linearGradient id="paint0_linear" x1="64" y1="128" x2="64" y2="0" gradientUnits="userSpaceOnUse">
<stop stop-color="#FD2E00"/>
<stop offset="1" stop-color="#FF9900"/>
</linearGradient>
</defs>
</svg>
