<svg width="128" height="128" viewBox="0 0 128 128" fill="none" xmlns="http://www.w3.org/2000/svg">
<path d="M45.1684 11.2211C57.8587 6.69736 72.1774 6.93647 84.6867 11.9513C96.1559 16.488 106.01 24.9538 112.251 35.5845C118.939 46.8162 121.44 60.4583 119.197 73.3315C117.498 83.4194 112.878 92.9644 106.139 100.648C97.2026 110.95 84.4153 117.89 70.8591 119.544C60.7404 120.889 50.2665 119.221 40.9749 115.027C38.4873 113.929 38.1189 110.135 40.3351 108.578C41.5694 107.57 43.301 107.615 44.6774 108.287C56.0431 113.25 69.3279 113.593 80.9327 109.224C91.1934 105.405 100.046 97.947 105.59 88.5054C110.681 79.9168 112.995 69.7255 112.116 59.7799C111.224 48.8067 106.372 38.2211 98.6694 30.3627C91.9883 23.4286 83.1683 18.6141 73.741 16.6689C62.7307 14.336 50.9191 16.055 41.0395 21.4317C30.3198 27.2028 21.907 37.1548 18.1271 48.7419C13.3004 62.9981 15.633 79.4838 24.4141 91.7366C26.6692 95.013 29.4282 97.8952 32.3812 100.551C33.8932 101.779 34.2937 104.228 32.9174 105.715C29.4541 109.347 25.8162 112.824 22.172 116.281C19.3224 119.028 14.373 118.944 11.6333 116.093C8.70625 113.347 8.67394 108.313 11.4201 105.431C13.9659 102.774 16.6991 100.299 19.2514 97.6432C11.9176 87.9948 7.89856 75.8842 8.00195 63.7671C8.00195 52.3028 11.6333 40.8708 18.2951 31.5454C24.8858 22.2201 34.4099 15.021 45.1684 11.2211Z" fill="url(#paint0_linear_619_23)" stroke="url(#paint1_linear_619_23)" stroke-width="4"/>
<path d="M49.4562 50.1674C51.4934 47.4168 48.0982 41.7034 52.1808 40.1584C58.9715 39.8358 65.7789 40.1246 72.5778 40.0142C74.4367 40.031 77.1188 39.8103 77.7641 42.0855C78.1884 44.7511 77.9677 47.4594 78.1374 50.1419C81.8977 50.804 85.7513 50.0401 89.503 50.7022C91.6759 51.2371 92.0748 53.7075 91.9815 55.6006C91.9307 65.2359 92.0918 74.8714 91.9136 84.4982C92.0833 86.697 89.9782 88.2166 87.9242 88.0807C72.3486 88.1488 56.773 88.0977 41.1972 88.0977C38.9565 88.3184 36.1639 87.1299 36.1724 84.5407C35.8243 75.2194 36.1301 65.8727 36.0197 56.5429C36.0705 54.5732 35.9009 51.8314 38.0993 50.9229C41.7745 49.7684 45.7469 51.0079 49.4562 50.1674ZM56.0939 45.9906C56.0091 47.3488 56.0176 48.7157 55.9836 50.0824C60.0749 50.7702 64.234 50.3116 68.3591 50.4474C69.4286 50.3201 70.8038 50.7107 71.5592 49.7005C71.9242 48.4185 71.5166 47.1451 71.2451 45.9058C66.1947 45.9228 61.1358 45.7699 56.0939 45.9906Z" fill="url(#paint2_linear_619_23)"/>
<defs>
<linearGradient id="paint0_linear_619_23" x1="72.9898" y1="36.6734" x2="6.63085" y2="127.695" gradientUnits="userSpaceOnUse">
<stop stop-color="#43E97B"/>
<stop offset="0.978261" stop-color="#38F9D7"/>
</linearGradient>
<linearGradient id="paint1_linear_619_23" x1="72.9898" y1="36.6734" x2="6.63085" y2="127.695" gradientUnits="userSpaceOnUse">
<stop stop-color="#43E97B"/>
<stop offset="0.978261" stop-color="#38F9D7"/>
</linearGradient>
<linearGradient id="paint2_linear_619_23" x1="64" y1="88.1237" x2="64" y2="40" gradientUnits="userSpaceOnUse">
<stop stop-color="#02AA93"/>
<stop offset="1" stop-color="#67FF80"/>
</linearGradient>
</defs>
</svg>
