<svg width="64" height="64" viewBox="0 0 64 64" fill="none" xmlns="http://www.w3.org/2000/svg">
<path fill-rule="evenodd" clip-rule="evenodd" d="M31.4526 4H23.263C22.9868 4 22.763 4.22386 22.763 4.5V12.6896V12.6897V21.3792V21.3793V29.5688C22.763 29.845 22.5391 30.0688 22.263 30.0688H16.0435C15.5927 30.0688 15.3721 30.6185 15.6979 30.9302L23.125 38.0344L31.107 45.6693C31.3003 45.8542 31.6049 45.8542 31.7982 45.6693L39.7802 38.0344L47.2073 30.9302C47.5331 30.6185 47.3125 30.0688 46.8617 30.0688H40.6423C40.3661 30.0688 40.1423 29.845 40.1423 29.5688V21.3793V21.3792V12.6897V12.6896V4.5C40.1423 4.22386 39.9184 4 39.6423 4H31.4526Z" fill="url(#paint0_linear)"/>
<path d="M54.7502 49.5C53.6665 49.5025 52.6102 49.8402 51.7261 50.4668C50.8421 51.0935 50.1735 51.9783 49.8123 53H32.4673V56.5H49.8123C50.1735 57.5217 50.8421 58.4065 51.7261 59.0332C52.6102 59.6598 53.6665 59.9975 54.7502 60C56.1425 60 57.4779 59.4469 58.4625 58.4623C59.447 57.4777 60.0002 56.1424 60.0002 54.75C60.0002 53.3576 59.447 52.0223 58.4625 51.0377C57.4779 50.0531 56.1425 49.5 54.7502 49.5Z" fill="url(#paint1_linear)" stroke="url(#paint2_linear)"/>
<path fill-rule="evenodd" clip-rule="evenodd" d="M9.25 60C11.5359 60 13.4806 58.5391 14.2013 56.5H26.4654C27.1861 58.5391 29.1308 60 31.4167 60C34.3162 60 36.6667 57.6495 36.6667 54.75C36.6667 51.8505 34.3162 49.5 31.4167 49.5C29.1308 49.5 27.1861 50.9609 26.4654 53H14.2013C13.4806 50.9609 11.5359 49.5 9.25 49.5C6.3505 49.5 4 51.8505 4 54.75C4 57.6495 6.3505 60 9.25 60Z" fill="url(#paint3_linear)"/>
<path d="M14.2013 56.5V55H13.1405L12.787 56.0001L14.2013 56.5ZM26.4654 56.5L27.8797 56.0001L27.5262 55H26.4654V56.5ZM26.4654 53V54.5H27.5262L27.8797 53.4999L26.4654 53ZM14.2013 53L12.787 53.4999L13.1405 54.5H14.2013V53ZM12.787 56.0001C12.2715 57.4586 10.8804 58.5 9.25 58.5V61.5C12.1913 61.5 14.6896 59.6195 15.6155 56.9999L12.787 56.0001ZM26.4654 55H14.2013V58H26.4654V55ZM25.0511 56.9999C25.9771 59.6195 28.4753 61.5 31.4167 61.5V58.5C29.7862 58.5 28.3952 57.4586 27.8797 56.0001L25.0511 56.9999ZM31.4167 61.5C35.1446 61.5 38.1667 58.4779 38.1667 54.75H35.1667C35.1667 56.8211 33.4877 58.5 31.4167 58.5V61.5ZM38.1667 54.75C38.1667 51.0221 35.1446 48 31.4167 48V51C33.4877 51 35.1667 52.6789 35.1667 54.75H38.1667ZM31.4167 48C28.4753 48 25.9771 49.8805 25.0511 52.5001L27.8797 53.4999C28.3952 52.0414 29.7862 51 31.4167 51V48ZM14.2013 54.5H26.4654V51.5H14.2013V54.5ZM9.25 51C10.8804 51 12.2715 52.0414 12.787 53.4999L15.6155 52.5001C14.6896 49.8805 12.1913 48 9.25 48V51ZM5.5 54.75C5.5 52.6789 7.17893 51 9.25 51V48C5.52208 48 2.5 51.0221 2.5 54.75H5.5ZM9.25 58.5C7.17893 58.5 5.5 56.8211 5.5 54.75H2.5C2.5 58.4779 5.52208 61.5 9.25 61.5V58.5Z" fill="url(#paint4_linear)"/>
<defs>
<linearGradient id="paint0_linear" x1="41.6042" y1="4" x2="6.77133" y2="36.3693" gradientUnits="userSpaceOnUse">
<stop stop-color="#DE00C0"/>
<stop offset="1" stop-color="#8720FF"/>
</linearGradient>
<linearGradient id="paint1_linear" x1="32.4713" y1="54.5944" x2="60.0047" y2="54.5944" gradientUnits="userSpaceOnUse">
<stop stop-color="#A93AFF"/>
<stop offset="1" stop-color="#FF81FF"/>
</linearGradient>
<linearGradient id="paint2_linear" x1="32.4713" y1="54.5944" x2="60.0047" y2="54.5944" gradientUnits="userSpaceOnUse">
<stop stop-color="#A93AFF"/>
<stop offset="1" stop-color="#FF81FF"/>
</linearGradient>
<linearGradient id="paint3_linear" x1="3.99522" y1="54.5944" x2="36.6595" y2="54.5944" gradientUnits="userSpaceOnUse">
<stop stop-color="#FD3A84"/>
<stop offset="1" stop-color="#FFA68D"/>
</linearGradient>
<linearGradient id="paint4_linear" x1="3.99522" y1="54.5944" x2="36.6595" y2="54.5944" gradientUnits="userSpaceOnUse">
<stop stop-color="#FD3A84"/>
<stop offset="1" stop-color="#FFA68D"/>
</linearGradient>
</defs>
</svg>
