<svg width="256" height="256" viewBox="0 0 256 256" fill="none" xmlns="http://www.w3.org/2000/svg">
<path d="M218.666 170.667H176C174.585 170.667 173.229 171.229 172.228 172.229C171.228 173.229 170.666 174.586 170.666 176C170.666 177.415 171.228 178.771 172.228 179.772C173.229 180.772 174.585 181.334 176 181.334H207.744C199 194.427 187.169 205.168 173.294 212.608C159.418 220.049 143.925 223.961 128.181 224C114.284 224.01 100.551 221.005 87.9273 215.193C75.3043 209.381 64.0918 200.9 55.0633 190.335C46.0348 179.771 39.4052 167.374 35.6315 153.999C31.8579 140.624 31.03 126.59 33.205 112.864C33.3746 111.497 33.0082 110.117 32.1827 109.013C31.3572 107.91 30.1367 107.169 28.7769 106.945C27.4171 106.722 26.0236 107.034 24.8885 107.815C23.7533 108.596 22.9647 109.786 22.6877 111.136C21.7834 116.712 21.3304 122.352 21.333 128C21.397 186.88 69.1198 234.603 128 234.667C144.557 234.661 160.886 230.804 175.696 223.401C190.506 215.997 203.391 205.251 213.333 192.011V218.678C213.333 220.092 213.895 221.449 214.895 222.449C215.895 223.449 217.252 224.011 218.666 224.011C220.081 224.011 221.437 223.449 222.438 222.449C223.438 221.449 224 220.092 224 218.678V175.99C223.997 174.577 223.434 173.223 222.434 172.225C221.434 171.227 220.079 170.667 218.666 170.667ZM178.528 34.0908C131.413 8.7255 73.8238 22.4748 42.6664 64.0321V37.3335C42.6664 35.919 42.1045 34.5624 41.1043 33.5622C40.1041 32.562 38.7475 32.0001 37.333 32.0001C35.9186 32.0001 34.562 32.562 33.5618 33.5622C32.5616 34.5624 31.9997 35.919 31.9997 37.3335V80.0001C31.9997 81.4146 32.5616 82.7711 33.5618 83.7716C34.562 84.7716 35.9186 85.3336 37.333 85.3336H79.9998C81.4143 85.3336 82.7708 84.7716 83.7708 83.7716C84.7713 82.7711 85.3333 81.4146 85.3333 80.0001C85.3333 78.5856 84.7713 77.2291 83.7708 76.2291C82.7708 75.2286 81.4143 74.6666 79.9998 74.6666H48.2557C56.9993 61.5736 68.8308 50.8331 82.7058 43.3921C96.5813 35.9513 112.074 32.039 127.818 32.0001C141.716 31.9919 155.451 34.9984 168.075 40.8123C180.698 46.6263 191.911 55.1091 200.938 65.6761C209.966 76.2431 216.594 88.6426 220.365 102.019C224.137 115.396 224.962 129.431 222.784 143.158C222.672 143.849 222.697 144.556 222.858 145.237C223.019 145.919 223.313 146.562 223.722 147.13C224.132 147.698 224.649 148.18 225.245 148.548C225.841 148.916 226.503 149.163 227.194 149.275C227.886 149.387 228.592 149.362 229.274 149.201C229.955 149.04 230.598 148.746 231.166 148.337C231.735 147.927 232.216 147.41 232.584 146.814C232.953 146.218 233.2 145.556 233.312 144.864C234.216 139.289 234.669 133.649 234.666 128C234.652 108.739 229.426 89.8396 219.542 73.3066C209.659 56.7741 195.487 43.2232 178.528 34.0908Z" fill="url(#paint0_linear_637_127)" stroke="url(#paint1_linear_637_127)" stroke-width="12"/>
<path fill-rule="evenodd" clip-rule="evenodd" d="M160 128C160 119.513 156.629 111.374 150.628 105.372C144.627 99.3715 136.487 96 128 96C119.513 96 111.373 99.3715 105.372 105.372C99.3715 111.374 96 119.513 96 128C96 136.487 99.3715 144.627 105.372 150.628C111.373 156.629 119.513 160 128 160C136.487 160 144.627 156.629 150.628 150.628C156.629 144.627 160 136.487 160 128ZM106.666 128C106.666 122.342 108.915 116.916 112.915 112.915C116.916 108.915 122.342 106.666 128 106.666C133.658 106.666 139.084 108.915 143.085 112.915C147.086 116.916 149.333 122.342 149.333 128C149.333 133.658 147.086 139.084 143.085 143.085C139.084 147.086 133.658 149.333 128 149.333C122.342 149.333 116.916 147.086 112.915 143.085C108.915 139.084 106.666 133.658 106.666 128Z" fill="url(#paint2_linear_637_127)" stroke="url(#paint3_linear_637_127)" stroke-width="16"/>
<defs>
<linearGradient id="paint0_linear_637_127" x1="128" y1="234.667" x2="128" y2="21.3386" gradientUnits="userSpaceOnUse">
<stop stop-color="#A93AFF"/>
<stop offset="1" stop-color="#FF81FF"/>
</linearGradient>
<linearGradient id="paint1_linear_637_127" x1="128" y1="234.667" x2="128" y2="21.3386" gradientUnits="userSpaceOnUse">
<stop stop-color="#A93AFF"/>
<stop offset="1" stop-color="#FF81FF"/>
</linearGradient>
<linearGradient id="paint2_linear_637_127" x1="128" y1="96" x2="128" y2="160" gradientUnits="userSpaceOnUse">
<stop stop-color="#DC18FC"/>
<stop offset="1" stop-color="#8E1EFF"/>
</linearGradient>
<linearGradient id="paint3_linear_637_127" x1="128" y1="96" x2="128" y2="160" gradientUnits="userSpaceOnUse">
<stop stop-color="#DC18FC"/>
<stop offset="1" stop-color="#8E1EFF"/>
</linearGradient>
</defs>
</svg>
