<svg width="64" height="64" viewBox="0 0 64 64" fill="none" xmlns="http://www.w3.org/2000/svg">
<path d="M35.3984 26.9024H28.6016C27.6631 26.9024 26.9024 27.6631 26.9024 28.6016V48.9922C26.9024 49.9306 27.6631 50.6914 28.6016 50.6914H35.3984C36.3369 50.6914 37.0976 49.9306 37.0976 48.9922V28.6016C37.0976 27.6631 36.3369 26.9024 35.3984 26.9024ZM33.6992 47.293H30.3008V30.3008H33.6992V47.293ZM32 13.3086C29.1892 13.3086 26.9024 15.5954 26.9024 18.4063C26.9024 21.2171 29.1892 23.5039 32 23.5039C34.8108 23.5039 37.0976 21.2171 37.0976 18.4063C37.0976 15.5954 34.8108 13.3086 32 13.3086ZM32 20.1055C31.063 20.1055 30.3008 19.3432 30.3008 18.4063C30.3008 17.4693 31.063 16.707 32 16.707C32.937 16.707 33.6992 17.4693 33.6992 18.4063C33.6992 19.3432 32.937 20.1055 32 20.1055ZM32 3C15.953 3 3 15.9667 3 32C3 48.047 15.9664 61 32 61C48.047 61 61 48.0333 61 32C61 15.953 48.0336 3 32 3ZM32 57.6016C17.8833 57.6016 6.39844 46.1167 6.39844 32C6.39844 17.8833 17.8833 6.39844 32 6.39844C46.1167 6.39844 57.6016 17.8833 57.6016 32C57.6016 46.1167 46.1167 57.6016 32 57.6016Z" fill="url(#paint0_linear_637_138)" stroke="url(#paint1_linear_637_138)" stroke-width="3"/>
<defs>
<linearGradient id="paint0_linear_637_138" x1="32" y1="61" x2="32" y2="3" gradientUnits="userSpaceOnUse">
<stop stop-color="#FD3A84"/>
<stop offset="1" stop-color="#FFA68D"/>
</linearGradient>
<linearGradient id="paint1_linear_637_138" x1="32" y1="61" x2="32" y2="3" gradientUnits="userSpaceOnUse">
<stop stop-color="#FD3A84"/>
<stop offset="1" stop-color="#FFA68D"/>
</linearGradient>
</defs>
</svg>
