<svg width="128" height="128" viewBox="0 0 128 128" fill="none" xmlns="http://www.w3.org/2000/svg">
<path d="M9.98671 20.329C11.8197 16.2462 16.1038 14.3831 20.1333 14.4516C28.9999 14.4516 28.9999 14.4516 47.0403 14.0035C48.9196 13.9264 50.5825 15.1419 51.8354 16.5885C54.1566 19.2944 56.4194 22.0599 58.7504 24.7564C60.141 26.3651 62.1771 27.2551 64.3036 27.2448C79.7336 27.1707 95.1693 27.1899 110.598 27.2538C115.78 27.3223 119.903 32.5693 119.98 38.1502C120.002 58.9844 119.957 79.81 119.995 100.645C120.087 104.719 118.896 109.145 115.928 111.763C114.349 113.149 112.066 114.318 110.553 114.656C78.3166 114.759 46.0658 114.743 13.8228 114.743C11.0076 115.152 7.8676 112.524 8.01454 109.255C8.02227 95.2687 7.9604 81.2822 8.04547 67.2957C8.03001 64.0773 8.01438 61.5848 8.01472 57.7346C8.01454 50.8099 16.3827 50.7671 20.7911 50.8014C42.949 50.8014 65.1147 50.7928 87.2726 50.8099C90.428 50.3905 93.4829 54.4991 91.882 57.7346C91.155 59.7547 89.1674 60.7648 87.3034 60.7648C65.1534 60.8161 46.9503 60.7648 24.8 60.7648C18.8706 60.7648 17.1698 63.4514 17.1407 66.611C17.0421 77.3138 17.1835 88.0229 17.1003 98.7276C17.0761 101.856 19.5958 104.42 22.7243 104.423C49.7619 104.445 78.0507 104.566 105.079 104.528C108.167 104.524 110.666 102.005 110.666 98.918C110.652 79.0506 110.866 62.0639 110.743 42.6914C110.723 39.6284 108.238 37.1557 105.175 37.1487C89.9085 37.1142 74.6431 37.1774 59.3838 37.1316C57.2105 37.2257 55.4859 35.5138 54.1246 33.8447C52.1751 31.4575 50.1768 29.1154 48.1945 26.7563C46.7609 25.0501 44.6469 24.0428 42.4184 24.0676C37.6887 24.1201 37.3874 24.2872 30.3999 24.2515C29.8208 24.283 25.6097 24.4653 22.4429 24.6014C20.4448 24.6872 18.869 26.3309 18.7377 28.3266C18.531 31.4689 18.0023 35.7394 16.651 37.0374C14.0755 39.5111 8.81888 37.6367 8.31617 33.9046C8.10734 29.3509 8.03001 24.4891 9.98671 20.329Z" fill="url(#paint0_linear_616_333)" stroke="url(#paint1_linear_616_333)" stroke-width="4"/>
<defs>
<linearGradient id="paint0_linear_616_333" x1="100.459" y1="58.7557" x2="58.2139" y2="113.306" gradientUnits="userSpaceOnUse">
<stop stop-color="#FD2E00"/>
<stop offset="1" stop-color="#FF9900"/>
</linearGradient>
<linearGradient id="paint1_linear_616_333" x1="100.459" y1="58.7557" x2="58.2139" y2="113.306" gradientUnits="userSpaceOnUse">
<stop stop-color="#FD2E00"/>
<stop offset="1" stop-color="#FF9900"/>
</linearGradient>
</defs>
</svg>
