<svg width="128" height="128" viewBox="0 0 128 128" fill="none" xmlns="http://www.w3.org/2000/svg">
<path fill-rule="evenodd" clip-rule="evenodd" d="M21 16H107.532C116.369 16 123.532 23.1634 123.532 32V96.4264C123.532 105.263 116.369 112.426 107.532 112.426H21C12.1634 112.426 5 105.263 5 96.4264V32C5 23.1634 12.1635 16 21 16ZM21 28C18.7909 28 17 29.7909 17 32V96.4264C17 98.6356 18.7909 100.426 21 100.426H107.532C109.742 100.426 111.532 98.6356 111.532 96.4264V32C111.532 29.7909 109.742 28 107.532 28H21Z" fill="url(#paint0_linear_301_50)"/>
<path d="M30.2985 39.548C32.7934 38.5555 36.04 39.2685 37.5956 41.0252C44.4567 47.9666 51.2803 54.9365 58.1265 61.8893C58.7652 62.6592 59.8699 63.4122 59.6219 64.4217C58.9381 65.4426 57.9912 66.3381 57.1045 67.2621C50.6566 73.7871 44.2538 80.3349 37.8285 86.877C36.7313 88.0406 35.0555 89.0216 33.0941 89.0558C28.1718 89.3182 25.1883 84.2876 28.7053 81.6525C34.056 76.1826 39.4743 70.7528 44.7723 65.2601C45.7869 64.4559 45.4112 63.2524 44.5243 62.4938C39.1736 57.0468 33.8005 51.6112 28.4724 46.1528C26.2104 44.1394 27.082 40.6659 30.2985 39.548Z" fill="url(#paint1_linear_301_50)"/>
<path d="M62.3386 81.9604C63.4508 81.5783 64.7133 81.6696 65.9006 81.6353C76.1736 81.6639 86.4541 81.6182 96.7271 81.6524C99.2742 81.4984 101.702 83.1239 101.74 85.0746C101.95 87.1394 99.4028 89.033 96.6745 88.7593C85.9205 88.7593 75.1591 88.7764 64.4052 88.7535C61.82 88.9474 59.4152 87.0652 59.543 85.1317C59.558 83.78 60.6852 82.4738 62.3386 81.9604Z" fill="url(#paint2_linear_301_50)"/>
<defs>
<linearGradient id="paint0_linear_301_50" x1="6.71687" y1="108.369" x2="54.5492" y2="84.9076" gradientUnits="userSpaceOnUse">
<stop stop-color="#F35C58"/>
<stop offset="1" stop-color="#B118F0"/>
</linearGradient>
<linearGradient id="paint1_linear_301_50" x1="53.9895" y1="61.2909" x2="33.1827" y2="77.0116" gradientUnits="userSpaceOnUse">
<stop stop-color="#FD2E00"/>
<stop offset="1" stop-color="#FF9900"/>
</linearGradient>
<linearGradient id="paint2_linear_301_50" x1="90.0547" y1="83.4848" x2="56.3015" y2="87.6461" gradientUnits="userSpaceOnUse">
<stop stop-color="#FD2E00"/>
<stop offset="1" stop-color="#FF9900"/>
</linearGradient>
</defs>
</svg>
