<svg width="128" height="128" viewBox="0 0 128 128" fill="none" xmlns="http://www.w3.org/2000/svg">
<path d="M108 10H36C30.1652 10 24.5695 12.3179 20.4437 16.4437C16.3179 20.5695 14 26.1652 14 32V68C14.0132 71.709 15.4924 75.2623 18.1151 77.8849C20.7377 80.5076 24.291 81.9868 28 82H47.55L46 103.55V104C46 108.774 47.8964 113.352 51.2721 116.728C54.6477 120.104 59.2261 122 64 122C68.7739 122 73.3523 120.104 76.7279 116.728C80.1036 113.352 82 108.774 82 104V103.55L80.45 82H100C103.709 81.9868 107.262 80.5076 109.885 77.8849C112.508 75.2623 113.987 71.709 114 68V16C114 14.4087 113.368 12.8826 112.243 11.7574C111.117 10.6321 109.591 10 108 10ZM36 22H82V36C82 37.5913 82.6321 39.1174 83.7574 40.2426C84.8826 41.3679 86.4087 42 88 42C89.5913 42 91.1174 41.3679 92.2426 40.2426C93.3679 39.1174 94 37.5913 94 36V22H102V50H26V32C26.0131 29.3519 27.0709 26.816 28.9435 24.9435C30.816 23.0709 33.3519 22.0131 36 22ZM100 70H78.3C76.9301 70.0111 75.5767 70.3009 74.3222 70.8516C73.0678 71.4023 71.9385 72.2024 71.0031 73.2033C70.0676 74.2043 69.3456 75.385 68.8809 76.6738C68.4162 77.9626 68.2186 79.3324 68.3 80.7L70 104.2C70 105.791 69.3679 107.317 68.2426 108.443C67.1174 109.568 65.5913 110.2 64 110.2C62.4087 110.2 60.8826 109.568 59.7574 108.443C58.6321 107.317 58 105.791 58 104.2L59.7 80.7C59.7814 79.3324 59.5838 77.9626 59.1191 76.6738C58.6544 75.385 57.9324 74.2043 56.9969 73.2033C56.0615 72.2024 54.9322 71.4023 53.6778 70.8516C52.4233 70.3009 51.07 70.0111 49.7 70H28C27.4696 70 26.9609 69.7893 26.5858 69.4142C26.2107 69.0391 26 68.5304 26 68V62H102V68C102 68.5304 101.789 69.0391 101.414 69.4142C101.039 69.7893 100.53 70 100 70Z" fill="url(#paint0_linear_619_31)"/>
<defs>
<linearGradient id="paint0_linear_619_31" x1="41.5" y1="98" x2="98.5" y2="25" gradientUnits="userSpaceOnUse">
<stop stop-color="#F35C58"/>
<stop offset="0.572864" stop-color="#BA09B2"/>
<stop offset="1" stop-color="#7900D9"/>
</linearGradient>
</defs>
</svg>
