<svg width="128" height="128" viewBox="0 0 128 128" fill="none" xmlns="http://www.w3.org/2000/svg">
<g clip-path="url(#clip0)">
<path d="M126.56 54.5587C125.302 48.1186 122.898 41.9567 119.461 36.3667C118.501 34.6387 117.237 33.0067 116.16 31.4654C108.96 21.3694 103.264 17.972 102.165 17.3694C101.19 16.6682 100.19 16.0011 99.168 15.3694C89.872 9.57203 83.872 8.77203 83.872 8.77203C80.1471 7.23015 76.2563 6.12414 72.2773 5.47603C65.5787 4.67603 59.9787 4.77737 55.0827 5.47603C55.8827 4.07337 56.5813 3.57737 56.7787 3.47603C56.8693 3.47603 56.9067 3.47603 56.7787 3.47603C54.3787 3.67337 51.4827 5.27337 48.8853 6.87337C50.6827 3.3747 54.4853 1.38003 54.9813 1.07603H55.0827C52.08 0.878703 43.584 2.77737 36.288 10.8734C13.5947 20.372 0 41.172 0 63.8547C0 81.0494 6.69867 93.444 13.9947 101.641C20.8907 109.14 28.4907 113.14 32.0907 114.239C32.464 114.388 33.2907 114.436 33.2907 114.436C33.3867 114.137 28.688 106.639 26.592 97.6414C30.7893 101.94 35.7867 105.241 41.3867 105.839C41.984 105.945 39.3867 102.745 36.5867 98.5427L40.384 99.844L82.0747 113.737C77.9733 117.935 72.4747 122.036 64.976 125.631C64.976 125.631 81.776 124.233 90.0693 114.937C86.672 122.735 77.376 126.937 77.376 126.937C84.1707 125.935 102.165 120.633 113.563 106.34C126.56 90.148 130.459 74.9534 126.56 54.5534V54.5587ZM93.3707 92.4467C92.0693 98.74 89.3707 105.743 83.2747 112.441L9.59467 87.9454C7.49867 81.252 6.50133 73.4547 7.09867 64.356C8.39467 66.756 12.2933 68.756 14.6933 68.852C9.09333 56.356 11.296 47.7587 15.4933 42.0627C17.3301 44.7587 19.163 47.4574 20.992 50.1587V49.5614C21.0933 48.7614 21.1947 48.1587 21.392 47.5614C19.4933 44.7614 17.8933 42.3614 16.6987 40.6654C18.7615 38.3486 21.1923 36.3881 23.8933 34.8627C23.9893 35.9667 24.192 36.964 24.4907 38.164C24.8907 39.8654 24.992 42.3614 24.7893 44.3614V44.2654C24.7893 44.6654 24.6933 45.0654 24.592 45.4654C24.4907 45.8654 23.392 46.964 23.0933 49.8654C22.7893 52.964 23.8933 54.6654 24.992 55.9614C26.288 54.7614 28.688 51.764 33.088 50.0627C37.488 48.2654 40.384 45.668 45.984 42.868C49.2853 41.1667 52.784 41.3694 57.184 41.5667C65.0773 42.9694 75.4773 45.7694 85.1733 46.2654C87.3707 51.4654 88.2667 58.9587 88.2667 59.1614C88.2667 59.86 88.3733 60.4627 88.3733 61.06C71.1733 67.5614 50.9867 74.9587 42.4853 77.156C41.7867 77.3587 34.3893 66.66 27.488 56.4627C27.392 56.6654 27.1893 56.7614 27.088 56.8627C26.8907 57.0654 26.688 57.2627 26.592 57.4654H25.9893C33.3867 68.3614 41.2853 79.652 42.0853 79.652C49.584 76.9587 71.9733 69.2574 88.272 63.6627C88.1653 75.956 85.1733 80.5534 85.1733 80.5534C85.1733 80.5534 89.2693 78.9534 93.4667 74.756C93.4667 78.1534 92.5707 86.9534 85.4667 95.4494C85.4667 95.4494 89.168 94.452 93.3653 92.452L93.3707 92.4467Z" fill="url(#paint0_linear)"/>
</g>
<defs>
<linearGradient id="paint0_linear" x1="64.186" y1="101.479" x2="74.7387" y2="10.096" gradientUnits="userSpaceOnUse">
<stop stop-color="#B400CF"/>
<stop offset="1" stop-color="#339DFF"/>
</linearGradient>
<clipPath id="clip0">
<rect width="128" height="128" fill="white"/>
</clipPath>
</defs>
</svg>
