<svg width="128" height="128" viewBox="0 0 128 128" fill="none" xmlns="http://www.w3.org/2000/svg">
<path d="M86.5746 12.0686C86.1288 11.9007 85.6685 11.6895 85.1211 11.4382L84.8402 11.3095C84.2023 11.0179 83.4615 10.6873 82.6883 10.4365C81.1308 9.93139 79.1485 9.65718 77.1761 10.8015C74.9398 12.0428 74.1445 14.48 74.3388 16.5397C74.5325 18.5945 75.7683 20.8362 78.2354 21.5965C85.6236 24.3139 92.3033 28.984 97.2517 35.153L97.2577 35.1605L97.2638 35.1679C104.078 43.4972 107.651 54.493 107.036 65.3153L107.035 65.3252L107.034 65.3351C106.585 74.9193 102.867 84.3027 96.6755 91.5432L96.6708 91.5487L96.6661 91.5542C89.9973 99.468 80.4509 104.816 70.3101 106.312L70.2983 106.314C60.9509 107.75 51.1345 105.955 42.9045 101.22L42.8957 101.215C33.8027 96.0448 26.666 87.4078 23.2704 77.3935L23.2659 77.3805C19.5445 66.6495 20.1762 54.4303 25.0194 44.185L25.0225 44.1783C29.7486 34.0838 38.4054 25.9543 48.6839 22.0278C50.8369 21.3584 53.3929 19.418 53.3739 16.2632C53.5151 14.0816 52.3695 12.2424 50.8508 11.1748C49.3328 10.1075 47.2147 9.65169 45.2299 10.5068C31.1234 15.6044 19.3873 26.8807 13.4916 40.8161C7.71023 54.2673 7.51104 70.0335 12.888 83.6464C17.3998 95.213 25.8614 105.104 36.4818 111.315C46.7777 117.413 59.0468 119.854 70.8493 118.355C91.062 116.024 109.11 101.271 115.788 81.8309C120.222 69.3366 120.064 55.2394 115.319 42.8516C110.225 29.3353 99.7097 18.0575 86.7003 12.1208L86.6384 12.0926L86.5746 12.0686Z" fill="url(#paint0_linear_616_309)"/>
<path d="M53.0758 92.2817C65.3467 97.2939 80.3653 92.835 88.2127 82.1169C93.8299 74.7647 95.8502 64.8153 93.6436 55.804C91.7045 47.4605 86.1389 40.0954 78.7242 35.9805C69.4489 30.7049 57.4647 30.8512 48.3256 36.3796C39.7797 41.3996 34.0251 50.7676 33.2606 60.7272L33.1257 60.7257C31.7356 60.7093 30.2373 60.6916 28.7899 60.8407L28.7034 60.8496L28.6186 60.8685C27.2915 61.163 26.3859 62.1555 25.9898 63.2282C25.6013 64.2801 25.6358 65.5859 26.3824 66.6652C29.3279 71.6191 32.314 76.5447 35.3338 81.4486C36.0359 82.854 37.4561 83.447 38.7252 83.4075C39.978 83.3685 41.339 82.7077 41.9867 81.3336C44.9917 76.452 47.9623 71.5433 50.8984 66.6212C52.3035 64.5333 51.1736 61.6692 48.9175 60.9287L48.775 60.8819L48.6261 60.8643C47.1485 60.6894 45.6226 60.7048 44.2076 60.7256C44.9022 55.5709 47.5163 50.7032 51.5287 47.5191L51.5394 47.5106L51.5499 47.5019C56.4107 43.4984 63.2202 42.097 69.218 43.8795L69.2326 43.8838L69.2472 43.8878C77.903 46.2709 84.2953 55.2755 83.5639 64.3996L83.5614 64.4304L83.5602 64.4612C83.1874 74.0423 75.0669 82.508 65.6982 83.2028L65.6382 83.2073L65.5788 83.2165C64.0292 83.4574 62.4633 83.3184 60.798 83.0163C59.9694 82.8659 59.1395 82.6799 58.2753 82.4863L58.2586 82.4825C57.399 82.2899 56.5048 82.0898 55.6039 81.9284L55.4727 81.9049H55.3395C52.5321 81.9049 50.805 84.0709 50.3272 86.198C49.8501 88.3219 50.4794 91.0182 52.9851 92.2411L53.0298 92.2629L53.0758 92.2817Z" fill="url(#paint1_linear_616_309)"/>
<defs>
<linearGradient id="paint0_linear_616_309" x1="64" y1="10" x2="64" y2="118.785" gradientUnits="userSpaceOnUse">
<stop offset="0.119792" stop-color="#7730F6"/>
<stop offset="0.84375" stop-color="#39D9FD"/>
</linearGradient>
<linearGradient id="paint1_linear_616_309" x1="60.1321" y1="94.335" x2="60.1321" y2="32.126" gradientUnits="userSpaceOnUse">
<stop offset="0.119792" stop-color="#7730F6"/>
<stop offset="0.84375" stop-color="#39D9FD"/>
</linearGradient>
</defs>
</svg>
