<svg width="64" height="64" viewBox="0 0 64 64" fill="none" xmlns="http://www.w3.org/2000/svg">
<g clip-path="url(#clip0)">
<path d="M4.88434 18.23C9.61572 7.73534 20.4736 0.599639 31.5746 1.01742C32.9418 1.18871 33.8027 2.83477 33.3204 4.15914C32.9776 5.29132 31.8058 5.84279 30.7335 5.75088C25.3763 5.83026 20.075 7.83979 15.8897 11.3366C11.0387 15.3306 7.72237 21.3174 6.84147 27.7178C6.00042 33.454 7.12846 39.4742 9.94257 44.4708C13.0198 50.0064 18.1378 54.2427 23.9852 56.0977C29.4022 57.8566 35.3932 57.5474 40.6228 55.2496C46.1434 52.8599 50.7671 48.2768 53.354 42.6326C56.224 36.462 56.5707 29.0672 54.2947 22.6334C53.8124 21.1628 53.0471 19.8218 52.501 18.3804C51.9271 20.0056 51.656 21.7811 50.8269 23.2893C49.5474 25.1401 46.3865 23.7698 46.817 21.4887C47.6541 18.2843 48.7263 15.1468 49.667 11.9758C49.954 10.6222 51.4248 9.7574 52.6724 10.2796C55.6819 11.2698 58.7033 12.239 61.6888 13.3127C63.5781 14.048 63.3669 17.2315 61.4337 17.7621C59.7675 18.0336 58.217 17.0017 56.6385 16.5714C59.7436 22.3284 60.9633 29.1675 60.0705 35.71C59.066 43.6353 54.8887 51.0384 48.7861 55.8303C39.9053 63.0454 26.9668 64.0272 17.1652 58.2743C10.8753 54.6856 5.9207 48.5902 3.59686 41.4837C1.08569 33.9553 1.55205 25.3991 4.88434 18.23Z" fill="url(#paint0_linear)" stroke="url(#paint1_linear)" stroke-width="3"/>
<path d="M29.7211 20.0932C34.4883 18.702 39.9332 21.0792 42.3408 25.6121C44.6925 29.7774 44.2142 35.4467 41.1768 39.1023C38.0199 43.1338 32.1964 44.4373 27.7361 42.127C23.3834 40.0339 20.6769 34.8116 21.4302 29.84C21.9883 25.2319 25.4242 21.217 29.7211 20.0932ZM30.9488 24.693C28.1825 25.3907 26.042 28.0812 25.8906 31.06C25.5916 34.8409 28.6847 38.4213 32.308 38.4839C36.1226 38.7597 39.6104 35.0456 39.2636 31.0474C39.1201 26.832 34.8311 23.5315 30.9488 24.693Z" fill="url(#paint2_linear)" stroke="url(#paint3_linear)" stroke-width="3"/>
</g>
<defs>
<linearGradient id="paint0_linear" x1="1.99904" y1="31.5" x2="63" y2="31.5" gradientUnits="userSpaceOnUse">
<stop stop-color="#FF823B"/>
<stop offset="0.986957" stop-color="#FF005B"/>
</linearGradient>
<linearGradient id="paint1_linear" x1="1.99904" y1="31.5" x2="63" y2="31.5" gradientUnits="userSpaceOnUse">
<stop stop-color="#FF823B"/>
<stop offset="0.986957" stop-color="#FF005B"/>
</linearGradient>
<linearGradient id="paint2_linear" x1="21.3044" y1="31.4814" x2="43.8265" y2="31.4814" gradientUnits="userSpaceOnUse">
<stop stop-color="#FF823B"/>
<stop offset="0.986957" stop-color="#FF005B"/>
</linearGradient>
<linearGradient id="paint3_linear" x1="21.3044" y1="31.4814" x2="43.8265" y2="31.4814" gradientUnits="userSpaceOnUse">
<stop stop-color="#FF823B"/>
<stop offset="0.986957" stop-color="#FF005B"/>
</linearGradient>
<clipPath id="clip0">
<rect width="64" height="64" fill="white"/>
</clipPath>
</defs>
</svg>
