<svg width="128" height="128" viewBox="0 0 128 128" fill="none" xmlns="http://www.w3.org/2000/svg">
<path d="M118.153 32C117.677 32 117.265 32.3495 117.16 32.8146C111.345 58.6667 80.0002 58.6667 80.0002 58.6667C80.0002 58.6667 80.0002 58.6667 80.0002 58.6667H21.3335C16.7443 58.6667 12.155 54.7177 10.9638 53.6158C10.7691 53.4357 10.5178 53.3333 10.2526 53.3333H6.3335C5.78121 53.3333 5.3335 53.781 5.3335 54.3333V73.6667C5.3335 74.219 5.78121 74.6667 6.3335 74.6667H10.2526C10.5178 74.6667 10.7691 74.5643 10.9638 74.3842C12.155 73.2823 16.7443 69.3333 21.3335 69.3333V69.3333C22.0174 69.3333 22.4335 70.1038 22.1464 70.7246C21.6045 71.8964 21.3335 73.146 21.3335 74.6667V85.3333C21.3335 91.2 26.1335 96 32.0002 96H36.3335C36.8858 96 37.3335 96.4477 37.3335 97V100.333C37.3335 100.886 37.7812 101.333 38.3335 101.333H47.0002C47.5524 101.333 48.0002 100.886 48.0002 100.333V97C48.0002 96.4477 48.4479 96 49.0002 96H52.3335C52.8858 96 53.3335 96.4477 53.3335 97V100.333C53.3335 100.886 53.7812 101.333 54.3335 101.333H63.0002C63.5524 101.333 64.0002 100.886 64.0002 100.333V97C64.0002 96.4477 64.4479 96 65.0002 96H68.3335C68.8858 96 69.3335 96.4477 69.3335 97V100.333C69.3335 100.886 69.7812 101.333 70.3335 101.333H79.0002C79.5525 101.333 80.0002 100.886 80.0002 100.333V97C80.0002 96.4477 80.4479 96 81.0002 96H85.3335C91.2002 96 96.0002 91.2 96.0002 85.3333V74.6667V74.6667C96.0002 74.1226 97.0679 73.1274 97.5716 73.3331C105.805 76.6951 114.037 82.9411 117.146 95.2229C117.26 95.6743 117.663 96 118.129 96H121.667C122.219 96 122.667 95.5523 122.667 95V33C122.667 32.4477 122.219 32 121.667 32H118.153ZM32.0002 88C30.4002 88 29.3335 86.9333 29.3335 85.3333V74.6667C29.3335 73.0667 30.4002 72 32.0002 72H36.3335C36.8858 72 37.3335 72.4477 37.3335 73V87C37.3335 87.5523 36.8858 88 36.3335 88H32.0002ZM49.0002 88C48.4479 88 48.0002 87.5523 48.0002 87V73C48.0002 72.4477 48.4479 72 49.0002 72H52.3335C52.8858 72 53.3335 72.4477 53.3335 73V87C53.3335 87.5523 52.8858 88 52.3335 88H49.0002ZM65.0002 88C64.4479 88 64.0002 87.5523 64.0002 87V73C64.0002 72.4477 64.4479 72 65.0002 72H68.3335C68.8858 72 69.3335 72.4477 69.3335 73V87C69.3335 87.5523 68.8858 88 68.3335 88H65.0002ZM88.0002 85.3333C88.0002 86.9333 86.9335 88 85.3335 88H81.0002C80.4479 88 80.0002 87.5523 80.0002 87V73C80.0002 72.4477 80.4479 72 81.0002 72H85.3335C86.9335 72 88.0002 73.0667 88.0002 74.6667V85.3333Z" fill="url(#paint0_linear_608_38)"/>
<path d="M38 55H46.75C47.3023 55 47.75 54.5523 47.75 54V47C47.75 46.4477 47.3023 46 46.75 46H38C37.4477 46 37 46.4477 37 47V54C37 54.5523 37.4477 55 38 55Z" fill="url(#paint1_linear_608_38)"/>
<path d="M54.125 55H62.875C63.4273 55 63.875 54.5523 63.875 54V47C63.875 46.4477 63.4273 46 62.875 46H54.125C53.5727 46 53.125 46.4477 53.125 47V54C53.125 54.5523 53.5727 55 54.125 55Z" fill="url(#paint2_linear_608_38)"/>
<path d="M70.25 55H79C79.5523 55 80 54.5523 80 54V47C80 46.4477 79.5523 46 79 46H70.25C69.6977 46 69.25 46.4477 69.25 47V54C69.25 54.5523 69.6977 55 70.25 55Z" fill="url(#paint3_linear_608_38)"/>
<defs>
<linearGradient id="paint0_linear_608_38" x1="64.0001" y1="101.333" x2="64.0001" y2="32" gradientUnits="userSpaceOnUse">
<stop stop-color="#02AA93"/>
<stop offset="1" stop-color="#67FF80"/>
</linearGradient>
<linearGradient id="paint1_linear_608_38" x1="58.5" y1="55" x2="58.5" y2="46" gradientUnits="userSpaceOnUse">
<stop stop-color="#FDA700"/>
<stop offset="1" stop-color="#FFDE00"/>
</linearGradient>
<linearGradient id="paint2_linear_608_38" x1="58.5" y1="55" x2="58.5" y2="46" gradientUnits="userSpaceOnUse">
<stop stop-color="#FDA700"/>
<stop offset="1" stop-color="#FFDE00"/>
</linearGradient>
<linearGradient id="paint3_linear_608_38" x1="58.5" y1="55" x2="58.5" y2="46" gradientUnits="userSpaceOnUse">
<stop stop-color="#FDA700"/>
<stop offset="1" stop-color="#FFDE00"/>
</linearGradient>
</defs>
</svg>
