<svg width="64" height="64" viewBox="0 0 64 64" fill="none" xmlns="http://www.w3.org/2000/svg">
<g clip-path="url(#clip0_637_180)">
<path d="M16.7611 13.2937C17.4228 13.1148 18.1203 13.1551 18.8 13.1416C28.0286 13.1774 37.2617 13.1193 46.4903 13.1729C47.8227 13.1327 49.0389 14.3132 48.9852 15.6546C49.0076 18.7399 49.0389 21.8297 48.9718 24.915C49.0031 25.5813 48.2028 26.0418 47.6126 25.8048C46.9419 25.6975 46.933 24.8479 46.6781 24.3605C45.7928 21.2886 43.1592 18.5029 39.8416 18.3017C38.3482 18.2525 36.8101 18.0871 35.3435 18.4135C34.5924 18.6147 34.6013 19.4956 34.5879 20.1127C34.5968 27.2715 34.57 34.4347 34.6013 41.598C34.5789 44.4106 37.0158 46.8252 39.7879 46.9727C40.9102 46.691 41.4825 48.5109 40.2574 48.6629C34.8875 48.7747 29.5041 48.6987 24.1297 48.7032C23.222 48.9178 22.6452 47.7061 23.3696 47.1695C24.4382 46.8565 25.6141 46.8699 26.5978 46.302C28.2969 45.3809 29.4504 43.5252 29.4504 41.5846C29.4773 34.4347 29.4549 27.2894 29.4639 20.144C29.5488 19.3436 29.2716 18.3062 28.2879 18.2972C25.784 18.2078 22.9985 17.9574 20.8299 19.4866C18.8536 20.8147 17.7269 22.9967 17.0651 25.2191C16.7924 26.2877 14.9458 25.9524 15.0665 24.839C15.0173 21.8029 15.0441 18.7578 15.0576 15.7217C15.0307 14.653 15.7372 13.6201 16.7611 13.2937Z" fill="url(#paint0_linear_637_180)"/>
<path fill-rule="evenodd" clip-rule="evenodd" d="M10.3051 0C9.18279 0.00447146 8.04262 0.0402432 6.95164 0.33536C3.1198 1.3325 0.150907 4.9678 0.0346554 8.94293C-0.00826717 12.1194 -0.000735538 15.2979 0.00679765 18.4771C0.0102507 19.9344 0.013704 21.3918 0.0122987 22.8492C-0.117367 24.1861 0.902074 25.5097 2.25685 25.6349C3.67423 25.8585 5.09608 24.6467 5.10503 23.2158C5.15147 20.6981 5.14313 18.1777 5.13478 15.6576C5.12787 13.5677 5.12095 11.478 5.14527 9.39007C5.10055 7.12751 7.14838 5.08852 9.41082 5.13771C24.4699 5.1243 39.529 5.1243 54.5837 5.13324C56.8551 5.07958 58.9118 7.13198 58.8582 9.39902C58.8804 11.4749 58.8734 13.5508 58.8665 15.6267C58.8581 18.1564 58.8497 20.6861 58.8939 23.2158C58.9073 24.6422 60.3203 25.8495 61.7376 25.6349C63.0879 25.5008 64.1029 24.204 63.9822 22.8626C63.9833 21.673 63.9871 20.483 63.991 19.2929C64.002 15.8488 64.013 12.4036 63.9598 8.96081C63.8615 4.1048 59.426 -0.107316 54.5703 0.0178854C47.1927 0.00447102 39.8152 0.00670687 32.4376 0.00894271C25.0601 0.0111786 17.6826 0.0134144 10.3051 0ZM5.10888 40.3503C5.18042 38.3918 2.66312 37.104 1.10713 38.2979C0.329137 38.8121 -0.0375038 39.7511 0.0116797 40.6633C0.0116797 42.0329 0.00875977 43.4024 0.00583985 44.7719C-0.00146001 48.1958 -0.00875987 51.6197 0.029565 55.0435C0.127932 59.8995 4.55445 64.1027 9.40573 63.9954L9.67693 63.9955C24.65 63.9999 39.6188 64.0042 54.592 63.9909C59.4433 64.0937 63.8698 59.8906 63.9637 55.0301C64.0072 51.4478 63.998 47.8629 63.9889 44.2793C63.9858 43.0812 63.9827 41.8833 63.9816 40.6856C64.1112 39.3353 63.1097 37.9849 61.7281 37.8641C60.2883 37.6585 58.8665 38.8926 58.8888 40.3503C58.8497 42.9398 58.8574 45.5293 58.865 48.1188C58.8714 50.2646 58.8778 52.4103 58.8575 54.5561C58.9291 56.8366 56.8857 58.8934 54.6099 58.8577C39.5508 58.8711 24.4917 58.8711 9.43256 58.8577C7.14776 58.9113 5.08205 56.8589 5.14465 54.5695C5.12223 52.4088 5.12861 50.2481 5.135 48.0873C5.14262 45.5083 5.15024 42.9293 5.10888 40.3503Z" fill="url(#paint1_linear_637_180)"/>
</g>
<defs>
<linearGradient id="paint0_linear_637_180" x1="32.0253" y1="48.7284" x2="32.0253" y2="13.1416" gradientUnits="userSpaceOnUse">
<stop stop-color="#A93AFF"/>
<stop offset="1" stop-color="#FF81FF"/>
</linearGradient>
<linearGradient id="paint1_linear_637_180" x1="31.9983" y1="63.9998" x2="31.9983" y2="37.8379" gradientUnits="userSpaceOnUse">
<stop stop-color="#A93AFF"/>
<stop offset="1" stop-color="#FF81FF"/>
</linearGradient>
<clipPath id="clip0_637_180">
<rect width="64" height="64" fill="white"/>
</clipPath>
</defs>
</svg>
