<svg width="128" height="128" viewBox="0 0 128 128" fill="none" xmlns="http://www.w3.org/2000/svg">
<path d="M95.0473 36.8802C92.9504 36.8802 91.2507 35.1803 91.2507 33.0836C91.2507 29.5269 90.5502 26.0051 89.1892 22.7191C87.8281 19.4333 85.8331 16.4475 83.3181 13.9326C80.8032 11.4176 77.8176 9.42265 74.5316 8.06167C71.2456 6.70057 67.7238 6 64.1671 6C60.6105 6 57.0886 6.70057 53.8027 8.06167C50.5168 9.42265 47.5311 11.4176 45.0161 13.9326C42.5012 16.4475 40.5063 19.4333 39.1452 22.7191C37.7841 26.0051 37.0835 29.5269 37.0835 33.0836V52.55C37.0835 53.5761 37.4911 54.5602 38.2167 55.2857C38.9423 56.0113 39.9265 56.419 40.9526 56.419C41.9788 56.419 42.9629 56.0113 43.6885 55.2857C44.4141 54.5602 44.8218 53.5761 44.8218 52.55C44.8218 48.1694 48.3728 44.6183 52.7533 44.6183H71.9053C74.0421 44.6183 75.7744 42.886 75.7744 40.7492C75.7744 38.6124 74.0421 36.8802 71.9053 36.8802H48.6182C46.5215 36.8802 44.8218 35.1803 44.8218 33.0836C44.8218 27.9528 46.8599 23.0323 50.4878 19.4043C54.1158 15.7763 59.0364 13.7382 64.1671 13.7382C69.2979 13.7382 74.2184 15.7763 77.8464 19.4043C81.4744 23.0323 83.5126 27.9528 83.5126 33.0836V52.3565C83.5126 53.3826 83.9202 54.3668 84.6458 55.0924C85.3714 55.818 86.3555 56.2256 87.3817 56.2256C88.4078 56.2256 89.3919 55.818 90.1175 55.0924C90.8431 54.3668 91.2507 53.3826 91.2507 52.3565C91.2507 48.0828 94.7153 44.6183 98.9889 44.6183H101.891C106.698 44.6183 110.596 48.5159 110.596 53.3238V105.557C110.596 110.364 106.698 114.262 101.891 114.262H26.4436C21.6357 114.262 17.7382 110.364 17.7382 105.557V52.3565C17.7382 48.0828 21.2026 44.6183 25.4763 44.6183C27.6132 44.6183 29.3453 42.886 29.3453 40.7492C29.3453 38.6124 27.6132 36.8802 25.4763 36.8802H18.7054C13.8975 36.8802 10 40.7777 10 45.5856V114.61C10 116.57 10.7785 118.449 12.1644 119.836C13.5503 121.222 15.43 122 17.3899 122H110.944C112.904 122 114.784 121.222 116.17 119.836C117.556 118.449 118.334 116.57 118.334 114.61V45.5856C118.334 40.7777 114.436 36.8802 109.629 36.8802H95.0473Z" fill="url(#paint0_linear_640_107)" stroke="url(#paint1_linear_640_107)" stroke-width="4"/>
<path fill-rule="evenodd" clip-rule="evenodd" d="M52.2657 59.1458C55.987 57.2422 60.1401 56.3824 64.2859 56.637C65.1806 56.692 65.5583 57.7967 65.0637 58.5443C64.4618 59.4538 64.0082 60.4563 63.7227 61.5143C63.5806 62.0407 63.1106 62.4251 62.5654 62.4344C59.8536 62.481 57.1853 63.1598 54.7751 64.4223C52.4118 65.6603 51.8279 66.5947 50.6139 68.5374L50.6041 68.5531C50.3018 69.0369 49.6779 69.1938 49.1517 68.973C48.1585 68.5563 47.1074 68.2996 46.038 68.2105C45.1735 68.1385 44.5411 67.2088 44.96 66.4492C46.7787 63.1498 48.5317 61.056 52.2657 59.1458ZM45.1646 87.5044L45.163 87.506L45.1626 87.5071L45.1615 87.5075C43.2758 87.5071 41.4673 86.7579 40.1339 85.4244C38.8001 84.0905 38.0508 82.2815 38.0508 80.3953C38.0508 78.5089 38.8001 76.6999 40.1339 75.366C41.4678 74.0323 43.2768 73.2829 45.163 73.2829C47.0489 73.2829 48.8576 74.0321 50.1911 75.3656C51.5246 76.6992 52.2738 78.5078 52.2738 80.3936C52.2738 82.2796 51.5246 84.0882 50.1911 85.4217C48.8579 86.7548 47.0499 87.5039 45.1646 87.5044ZM79.8072 69.83C78.4736 71.1636 76.665 71.9127 74.7791 71.9127C72.8932 71.9127 71.0846 71.1636 69.7511 69.83C68.4175 68.4966 67.6683 66.6879 67.6683 64.802C67.6683 62.9162 68.4175 61.1075 69.7511 59.7739C71.0846 58.4405 72.8932 57.6913 74.7791 57.6913C76.665 57.6913 78.4736 58.4405 79.8072 59.7739C81.1406 61.1075 81.8899 62.9162 81.8899 64.802C81.8899 66.6879 81.1406 68.4966 79.8072 69.83ZM75.8986 105.305C75.0358 105.662 74.1112 105.846 73.1773 105.846C71.2915 105.846 69.4829 105.096 68.1493 103.763C66.8158 102.43 66.0666 100.621 66.0666 98.7351C66.0666 96.8492 66.8158 95.0407 68.1493 93.7071C69.4829 92.3735 71.2915 91.6244 73.1773 91.6244C74.1112 91.6244 75.0358 91.8083 75.8986 92.1657C76.7613 92.5231 77.5451 93.0468 78.2054 93.7071C78.8657 94.3674 79.3894 95.1512 79.7468 96.014C80.1042 96.8768 80.2881 97.8014 80.2881 98.7351C80.2881 99.6689 80.1042 100.594 79.7468 101.456C79.3894 102.319 78.8657 103.103 78.2054 103.763C77.5451 104.424 76.7613 104.947 75.8986 105.305ZM86.2514 93.5592C88.517 90.0778 89.8166 86.0408 89.9952 81.8645C90.1743 77.6742 89.2168 75.1167 87.2432 71.9077C86.7886 71.1688 85.6681 71.2607 85.1792 71.9772C84.5745 72.8638 83.8329 73.6516 82.9806 74.3103C82.5293 74.6592 82.3581 75.2794 82.6299 75.781L82.6387 75.7973C83.7304 77.8112 84.2555 78.7799 84.1673 81.4462C84.0773 84.1657 83.3524 86.8219 82.0559 89.204C81.7953 89.683 81.8979 90.2814 82.286 90.6646C83.0655 91.4347 83.7141 92.3235 84.2087 93.2956C84.6152 94.0945 85.7625 94.3106 86.2514 93.5592ZM42.7238 94.1444C44.5658 97.8672 47.3781 101.042 50.8813 103.322C54.3961 105.611 57.0846 106.09 60.8515 106.026C61.7189 106.01 62.2106 104.999 61.8429 104.214C61.388 103.242 61.0877 102.202 60.9548 101.133C60.8845 100.567 60.4379 100.104 59.8678 100.083L59.8493 100.082C57.5602 99.9955 56.4592 99.954 54.2094 98.5201C51.9148 97.0577 49.9983 95.081 48.6085 92.752C48.3291 92.2838 47.7618 92.0673 47.2345 92.2061C46.1747 92.4847 45.0794 92.5902 43.991 92.5208C43.0965 92.4636 42.3262 93.3409 42.7238 94.1444Z" fill="url(#paint2_linear_640_107)"/>
<path d="M45.1629 87.5071L45.9399 88.2688L45.9409 88.2678L45.1629 87.5071ZM64.3529 55.5509C60.0132 55.2844 55.6659 56.1844 51.7703 58.177L52.7615 60.1147C56.3088 58.3 60.2676 57.4805 64.2195 57.7233L64.3529 55.5509ZM65.9714 59.1448C66.4244 58.4602 66.4747 57.6257 66.2121 56.9412C65.9421 56.2374 65.2965 55.6089 64.3529 55.5509L64.2195 57.7233C64.2211 57.7233 64.2143 57.7229 64.2025 57.7184C64.1911 57.7139 64.1813 57.7079 64.1744 57.7024C64.1612 57.6918 64.1692 57.6925 64.1801 57.7207C64.191 57.7491 64.1981 57.7897 64.1937 57.8343C64.1896 57.877 64.1761 57.9139 64.1564 57.9438L65.9714 59.1448ZM64.7735 61.7979C65.0286 60.8528 65.4338 59.9573 65.9714 59.1448L64.1564 57.9438C63.4904 58.9504 62.9885 60.0598 62.6723 61.2307L64.7735 61.7979ZM62.5843 63.5224C63.6388 63.5043 64.5116 62.7683 64.7735 61.7979L62.6723 61.2307C62.6627 61.2666 62.6415 61.2978 62.6148 61.3193C62.5892 61.3397 62.5656 61.346 62.547 61.3464L62.5843 63.5224ZM55.2803 65.3863C57.5402 64.2026 60.0419 63.5661 62.5843 63.5224L62.547 61.3464C59.6659 61.3959 56.8311 62.1171 54.2705 63.4584L55.2803 65.3863ZM51.5371 69.114C52.1575 68.1212 52.5506 67.4994 53.0569 66.9608C53.5426 66.4438 54.1697 65.9681 55.2803 65.3863L54.2705 63.4584C53.0177 64.1146 52.1713 64.7251 51.4708 65.4705C50.7907 66.1941 50.2849 67.0109 49.6914 67.9608L51.5371 69.114ZM51.5273 69.1297L51.5371 69.114L49.6914 67.9608L49.6816 67.9763L51.5273 69.1297ZM48.7311 69.9765C49.6836 70.3761 50.9062 70.1236 51.5273 69.1297L49.6816 67.9763C49.6815 67.9765 49.682 67.9758 49.683 67.9748C49.6838 67.9738 49.6846 67.9733 49.6847 67.9732C49.685 67.973 49.681 67.9759 49.6709 67.9787C49.6481 67.9851 49.6115 67.9857 49.573 67.9696L48.7311 69.9765ZM45.9479 69.2949C46.9039 69.3745 47.8433 69.604 48.7311 69.9765L49.573 67.9696C48.4742 67.5086 47.3116 67.2246 46.1286 67.126L45.9479 69.2949ZM44.0072 65.9238C43.5745 66.7088 43.7098 67.5581 44.0996 68.1714C44.4822 68.7733 45.1518 69.2286 45.9479 69.2949L46.1286 67.126C46.0602 67.1204 45.9814 67.0748 45.9364 67.0039C45.917 66.9735 45.9157 66.9559 45.9158 66.9575C45.9159 66.9587 45.916 66.9628 45.9148 66.9685C45.9135 66.9744 45.9119 66.9768 45.9132 66.9744L44.0072 65.9238ZM51.7703 58.177C47.8 60.2082 45.9048 62.4818 44.0072 65.9238L45.9132 66.9744C47.6533 63.8178 49.264 61.9038 52.7615 60.1147L51.7703 58.177ZM46.2515 87.506C46.2515 88.1075 45.7637 88.5925 45.1649 88.5925V86.4162C44.5645 86.4162 44.0751 86.9027 44.0751 87.506H46.2515ZM45.9409 88.2678C46.1317 88.0728 46.2515 87.8025 46.2515 87.506H44.0751C44.0751 87.2102 44.1947 86.9407 44.3849 86.7462L45.9409 88.2678ZM45.1616 88.5957C45.4667 88.5957 45.7439 88.4689 45.9399 88.2688L44.3859 86.7453C44.5815 86.5458 44.8575 86.4193 45.1618 86.4193L45.1616 88.5957ZM39.3647 86.1939C40.9022 87.7314 42.9873 88.5953 45.1616 88.5957L45.1618 86.4193C43.5646 86.419 42.033 85.7844 40.9036 84.655L39.3647 86.1939ZM36.9629 80.3953C36.9629 82.5701 37.8269 84.6559 39.3647 86.1939L40.9036 84.655C39.774 83.5252 39.1393 81.993 39.1393 80.3953H36.9629ZM39.3647 74.5966C37.8269 76.1345 36.9629 78.2203 36.9629 80.3953H39.1393C39.1393 78.7975 39.774 77.2652 40.9036 76.1355L39.3647 74.5966ZM45.1633 72.1948C42.9885 72.1948 40.9026 73.0588 39.3647 74.5966L40.9036 76.1355C42.0334 75.0059 43.5656 74.3711 45.1633 74.3711V72.1948ZM50.9609 74.5962C49.4233 73.0586 47.3378 72.1948 45.1633 72.1948V74.3711C46.7606 74.3711 48.2925 75.0056 49.4219 76.1351L50.9609 74.5962ZM53.3623 80.3937C53.3623 78.2191 52.4984 76.1338 50.9609 74.5962L49.4219 76.1351C50.5514 77.2645 51.1859 78.7964 51.1859 80.3937H53.3623ZM50.9609 86.1912C52.4984 84.6536 53.3623 82.5682 53.3623 80.3937H51.1859C51.1859 81.991 50.5514 83.5228 49.4219 84.6522L50.9609 86.1912ZM45.1649 88.5925C47.3388 88.5921 49.4236 87.7283 50.9609 86.1912L49.4219 84.6522C48.2928 85.7813 46.7617 86.4159 45.1649 86.4162V88.5925ZM74.7794 73.0009C76.9538 73.0009 79.0393 72.1371 80.5769 70.5995L79.0379 69.0606C77.9085 70.19 76.3767 70.8245 74.7794 70.8245V73.0009ZM68.9819 70.5995C70.5194 72.1371 72.6049 73.0009 74.7794 73.0009V70.8245C73.1821 70.8245 71.6503 70.19 70.5208 69.0606L68.9819 70.5995ZM66.5804 64.802C66.5804 66.9765 67.4443 69.0619 68.9819 70.5995L70.5208 69.0606C69.3913 67.9312 68.7568 66.3993 68.7568 64.802H66.5804ZM68.9819 59.0045C67.4443 60.5421 66.5804 62.6275 66.5804 64.802H68.7568C68.7568 63.2048 69.3913 61.6729 70.5208 60.5434L68.9819 59.0045ZM74.7794 56.6031C72.6049 56.6031 70.5194 57.4669 68.9819 59.0045L70.5208 60.5434C71.6503 59.414 73.1821 58.7795 74.7794 58.7795V56.6031ZM80.5769 59.0045C79.0393 57.4669 76.9538 56.6031 74.7794 56.6031V58.7795C76.3767 58.7795 77.9085 59.414 79.0379 60.5434L80.5769 59.0045ZM82.9783 64.802C82.9783 62.6275 82.1145 60.5421 80.5769 59.0045L79.0379 60.5434C80.1674 61.6728 80.802 63.2048 80.802 64.802H82.9783ZM80.5769 70.5995C82.1145 69.0619 82.9783 66.9765 82.9783 64.802H80.802C80.802 66.3993 80.1674 67.9312 79.0379 69.0606L80.5769 70.5995ZM73.1776 106.934C74.2544 106.934 75.3205 106.722 76.3153 106.31L75.4824 104.3C74.7517 104.602 73.9685 104.758 73.1776 104.758V106.934ZM67.3801 104.533C68.9177 106.07 71.0032 106.934 73.1776 106.934V104.758C71.5804 104.758 70.0486 104.123 68.919 102.994L67.3801 104.533ZM64.9787 98.7351C64.9787 100.91 65.8425 102.995 67.3801 104.533L68.919 102.994C67.7896 101.864 67.1551 100.332 67.1551 98.7351H64.9787ZM67.3801 92.9376C65.8425 94.4752 64.9787 96.5606 64.9787 98.7351H67.1551C67.1551 97.1379 67.7896 95.606 68.919 94.4766L67.3801 92.9376ZM73.1776 90.5362C71.0032 90.5362 68.9177 91.4 67.3801 92.9376L68.919 94.4766C70.0486 93.3471 71.5804 92.7126 73.1776 92.7126V90.5362ZM76.3153 91.1603C75.3205 90.7483 74.2544 90.5362 73.1776 90.5362V92.7126C73.9685 92.7126 74.7517 92.8683 75.4824 93.1711L76.3153 91.1603ZM78.9751 92.9376C78.2138 92.1764 77.31 91.5724 76.3153 91.1603L75.4824 93.1711C76.2131 93.4737 76.877 93.9173 77.4362 94.4766L78.9751 92.9376ZM80.7525 95.5976C80.3405 94.6028 79.7365 93.6989 78.9751 92.9376L77.4362 94.4766C77.9956 95.0358 78.4391 95.6998 78.7418 96.4304L80.7525 95.5976ZM81.3765 98.7351C81.3765 97.6585 81.1645 96.5923 80.7525 95.5976L78.7418 96.4304C79.0445 97.1611 79.2002 97.9443 79.2002 98.7351H81.3765ZM80.7525 101.873C81.1645 100.878 81.3765 99.8119 81.3765 98.7351H79.2002C79.2002 99.526 79.0445 100.309 78.7418 101.04L80.7525 101.873ZM78.9751 104.533C79.7365 103.771 80.3405 102.868 80.7525 101.873L78.7418 101.04C78.4391 101.771 77.9956 102.435 77.4362 102.994L78.9751 104.533ZM76.3153 106.31C77.31 105.898 78.2138 105.294 78.9751 104.533L77.4362 102.994C76.877 103.553 76.2131 103.996 75.4824 104.3L76.3153 106.31ZM88.9083 81.8181C88.7381 85.799 87.4993 89.6471 85.3397 92.9656L87.1638 94.1527C89.5354 90.5085 90.8957 86.2827 91.0826 81.911L88.9083 81.8181ZM86.3165 72.4778C88.2049 75.5481 89.0761 77.893 88.9083 81.8181L91.0826 81.911C91.2731 77.4553 90.2294 74.6855 88.1704 71.3377L86.3165 72.4778ZM86.0784 72.5905C86.1172 72.5338 86.1956 72.4877 86.2794 72.4835C86.3156 72.4816 86.3314 72.4892 86.33 72.4886C86.3289 72.488 86.3254 72.486 86.321 72.4822C86.3164 72.4781 86.3151 72.4756 86.3165 72.4778L88.1704 71.3377C87.7007 70.5741 86.895 70.2731 86.1693 70.3099C85.457 70.3459 84.7308 70.7041 84.2807 71.364L86.0784 72.5905ZM83.6464 75.1714C84.5892 74.4426 85.4094 73.5711 86.0784 72.5905L84.2807 71.364C83.7401 72.1563 83.0772 72.8605 82.3154 73.4493L83.6464 75.1714ZM83.587 75.2626C83.5868 75.2625 83.5872 75.263 83.5876 75.2644C83.588 75.2656 83.5881 75.2666 83.5881 75.2667C83.5883 75.267 83.5876 75.2621 83.5901 75.2519C83.5959 75.2289 83.6134 75.1968 83.6464 75.1714L82.3154 73.4493C81.4982 74.081 81.115 75.2691 81.6735 76.2996L83.587 75.2626ZM83.5958 75.2789L83.587 75.2626L81.6735 76.2996L81.6823 76.3157L83.5958 75.2789ZM85.2551 81.4823C85.3019 80.0688 85.1881 79.0315 84.885 78.0546C84.5907 77.106 84.1295 76.2636 83.5958 75.2789L81.6823 76.3157C82.2402 77.345 82.5873 77.9937 82.8064 78.6996C83.0166 79.3772 83.1214 80.1573 83.08 81.4103L85.2551 81.4823ZM83.0121 89.7243C84.3894 87.1933 85.1596 84.3714 85.2551 81.4823L83.08 81.4103C82.9956 83.9601 82.316 86.4504 81.1005 88.6838L83.0121 89.7243ZM83.0509 89.8904C83.0244 89.8642 83.0077 89.8305 83.0023 89.7966C82.9969 89.7642 83.0031 89.7406 83.0121 89.7243L81.1005 88.6838C80.5963 89.6102 80.8063 90.7324 81.5215 91.4388L83.0509 89.8904ZM85.1788 92.8021C84.6315 91.7263 83.9137 90.7426 83.0509 89.8904L81.5215 91.4388C82.2179 92.1266 82.7973 92.9207 83.2392 93.789L85.1788 92.8021ZM85.3397 92.9656C85.3387 92.9669 85.3424 92.9613 85.3522 92.9533C85.3617 92.9456 85.3718 92.94 85.3799 92.9367C85.3956 92.9305 85.3912 92.9371 85.3612 92.9326C85.3312 92.9282 85.2925 92.9143 85.2557 92.8885C85.2205 92.8639 85.1951 92.8339 85.1788 92.8021L83.2392 93.789C83.6114 94.5206 84.3127 94.9758 85.0376 95.0848C85.7831 95.1969 86.6481 94.9451 87.1638 94.1527L85.3397 92.9656ZM51.4753 102.41C48.136 100.237 45.4553 97.2105 43.6994 93.6618L41.7487 94.6269C43.6771 98.5239 46.6208 101.847 50.2878 104.234L51.4753 102.41ZM60.8332 104.937C57.2293 104.998 54.7676 104.554 51.4753 102.41L50.2878 104.234C54.0253 106.668 56.9405 107.18 60.8703 107.114L60.8332 104.937ZM60.8575 104.675C60.8866 104.737 60.8863 104.829 60.8472 104.903C60.8305 104.934 60.8159 104.944 60.8171 104.944C60.8182 104.943 60.8218 104.941 60.8272 104.938C60.8331 104.937 60.8359 104.937 60.8332 104.937L60.8703 107.114C61.7667 107.098 62.436 106.558 62.774 105.915C63.1057 105.283 63.1674 104.476 62.8287 103.752L60.8575 104.675ZM59.8753 101.268C60.0222 102.45 60.3544 103.6 60.8575 104.675L62.8287 103.752C62.4222 102.884 62.1537 101.955 62.035 100.999L59.8753 101.268ZM59.827 101.17C59.8272 101.17 59.8264 101.17 59.8251 101.17C59.8238 101.169 59.8229 101.169 59.8228 101.169C59.8225 101.169 59.8271 101.171 59.8345 101.178C59.8513 101.195 59.8701 101.226 59.8753 101.268L62.035 100.999C61.9077 99.9741 61.0803 99.0393 59.9091 98.9951L59.827 101.17ZM59.8086 101.169L59.827 101.17L59.9091 98.9951L59.8907 98.9945L59.8086 101.169ZM53.6248 99.4378C54.8173 100.198 55.7681 100.628 56.7631 100.865C57.7293 101.095 58.6893 101.127 59.8086 101.169L59.8907 98.9945C58.7208 98.9503 57.9858 98.9187 57.2667 98.7477C56.5765 98.5836 55.8517 98.2763 54.7946 97.6025L53.6248 99.4378ZM47.6744 93.3096C49.1509 95.784 51.1871 97.8841 53.6248 99.4378L54.7946 97.6025C52.6432 96.2313 50.8463 94.3781 49.5433 92.1944L47.6744 93.3096ZM47.5116 93.2584C47.5476 93.249 47.5852 93.2518 47.617 93.2643C47.6476 93.2763 47.6648 93.2936 47.6744 93.3096L49.5433 92.1944C49.0028 91.2887 47.9301 90.898 46.9579 91.1537L47.5116 93.2584ZM43.9221 93.6068C45.1266 93.6836 46.3388 93.5669 47.5116 93.2584L46.9579 91.1537C46.0113 91.4027 45.0329 91.4968 44.0607 91.4348L43.9221 93.6068ZM43.6994 93.6618C43.6986 93.6603 43.7018 93.6664 43.7036 93.6789C43.7055 93.691 43.7051 93.7025 43.7037 93.7112C43.7011 93.7279 43.6977 93.7206 43.7168 93.6972C43.7359 93.6737 43.7676 93.6474 43.8085 93.6289C43.8477 93.6111 43.8864 93.6045 43.9221 93.6068L44.0607 91.4348C43.2414 91.3825 42.4926 91.7541 42.0296 92.3225C41.5534 92.907 41.3294 93.7797 41.7487 94.6269L43.6994 93.6618Z" fill="url(#paint3_linear_640_107)"/>
<defs>
<linearGradient id="paint0_linear_640_107" x1="64.1672" y1="122" x2="64.1672" y2="6" gradientUnits="userSpaceOnUse">
<stop stop-color="#BE55FF"/>
<stop offset="0.505208" stop-color="#E7335D"/>
<stop offset="1" stop-color="#FF5C00"/>
</linearGradient>
<linearGradient id="paint1_linear_640_107" x1="64.1672" y1="122" x2="64.1672" y2="6" gradientUnits="userSpaceOnUse">
<stop stop-color="#BE55FF"/>
<stop offset="0.505208" stop-color="#E7335D"/>
<stop offset="1" stop-color="#FF5C00"/>
</linearGradient>
<linearGradient id="paint2_linear_640_107" x1="61.9596" y1="57.5871" x2="67.7924" y2="104.03" gradientUnits="userSpaceOnUse">
<stop stop-color="#E00094"/>
<stop offset="1" stop-color="#F46A06"/>
</linearGradient>
<linearGradient id="paint3_linear_640_107" x1="61.9599" y1="57.5871" x2="67.7927" y2="104.03" gradientUnits="userSpaceOnUse">
<stop stop-color="#E00094"/>
<stop offset="1" stop-color="#F46A06"/>
</linearGradient>
</defs>
</svg>
