<svg width="64" height="64" viewBox="0 0 64 64" fill="none" xmlns="http://www.w3.org/2000/svg">
<path fill-rule="evenodd" clip-rule="evenodd" d="M25.4048 8.86016C27.4858 8.31576 29.7273 7.98138 32.0782 8.0008H32.0899C36.9153 8.01751 42.0076 9.32224 46.3022 12.5281C46.7162 12.8379 47.0993 13.1876 47.4458 13.571C48.3188 14.5348 48.8261 15.7533 49.2591 16.9889C50.4517 17.5419 51.6577 18.1248 52.4548 19.1843L52.4588 19.1882L58.4742 27.2193C61.6825 31.5118 59.5419 37.4634 54.7498 39.2855C52.4501 46.7158 46.7557 53.0335 38.595 55.1367C38.5445 55.1504 38.4936 55.1621 38.4422 55.1719C38.057 55.2395 37.6798 55.3199 37.287 55.4037C35.9762 55.6833 34.4916 56 31.9529 56C31.9476 56 31.9423 56 31.937 56C31.9305 56 31.9241 56 31.9177 56C31.6747 55.9956 31.8496 55.9958 31.9059 55.996C27.0762 55.9783 21.9867 54.6666 17.6975 51.4648C17.2835 51.155 16.9005 50.8053 16.5539 50.4219C15.6826 49.4599 15.1742 48.2422 14.7407 47.0079C13.5481 46.4548 12.3421 45.8719 11.545 44.8126L11.5411 44.8086L5.5256 36.7775C2.31753 32.4854 4.45836 26.5338 9.25002 24.7114C11.5496 17.2811 17.244 10.9634 25.4048 8.86016ZM42.3712 17.7323C39.2884 15.4268 35.8047 14.5088 32.0444 14.4999C30.3378 14.4835 28.6598 14.7271 27.052 15.1499C19.8515 17.0063 15.0621 23.4572 14.5449 30.4726H9.00635L18.0002 42.5054L26.9941 30.4726H21.5452C21.696 28.3099 22.2489 26.4341 23.576 25.005L23.5884 24.9916L23.6004 24.978C26.6509 21.5284 32.7193 20.1084 37.0692 22.4802C38.5169 24.0315 40.6386 23.8187 41.9335 22.9721C42.6334 22.5146 43.2653 21.7785 43.4638 20.8125C43.6744 19.7874 43.3433 18.7656 42.5856 17.9275L42.4879 17.8195L42.3712 17.7323ZM54.9941 33.4999L46.0002 21.4671L37.0064 33.4999H42.4553C42.3045 35.6626 41.7516 37.5384 40.4245 38.9675L40.4069 38.9865L40.3899 39.0061C37.1044 42.7991 31.3104 43.8973 26.9321 41.4932C25.4851 39.9417 23.3636 40.1521 22.0679 40.9978C21.3678 41.4547 20.7354 42.1904 20.5367 43.1565C20.3259 44.1816 20.6575 45.2033 21.4149 46.041L21.5126 46.1491L21.6292 46.2363C24.7128 48.5424 28.1981 49.4646 31.9619 49.4726L32.5851 49.4739L32.596 49.463C34.081 49.4226 35.5392 49.1931 36.9484 48.8226C44.1489 46.9663 48.9384 40.5153 49.4555 33.4999H54.9941Z" fill="url(#paint0_linear)"/>
<defs>
<linearGradient id="paint0_linear" x1="32" y1="56" x2="32" y2="8" gradientUnits="userSpaceOnUse">
<stop stop-color="#00B59C"/>
<stop offset="1" stop-color="#9CFFAC"/>
</linearGradient>
</defs>
</svg>
