<svg width="128" height="128" viewBox="0 0 128 128" fill="none" xmlns="http://www.w3.org/2000/svg">
<path d="M107 12H21.6667C15.8 12 11 16.8 11 22.6667V34.6667C11 36.8758 12.7909 38.6667 15 38.6667H17.6667C19.8758 38.6667 21.6667 36.8758 21.6667 34.6667V26.6667C21.6667 24.4575 23.4575 22.6667 25.6667 22.6667H103C105.209 22.6667 107 24.4575 107 26.6667V34.6667C107 36.8758 108.791 38.6667 111 38.6667H113.667C115.876 38.6667 117.667 36.8758 117.667 34.6667V22.6667C117.667 16.8 112.867 12 107 12ZM107 100.667C107 102.876 105.209 104.667 103 104.667H25.6667C23.4575 104.667 21.6667 102.876 21.6667 100.667V92.6667C21.6667 90.4575 19.8758 88.6667 17.6667 88.6667H15C12.7909 88.6667 11 90.4575 11 92.6667V104.667C11 110.533 15.8 115.333 21.6667 115.333H107C112.867 115.333 117.667 110.533 117.667 104.667V92.6667C117.667 90.4575 115.876 88.6667 113.667 88.6667H111C108.791 88.6667 107 90.4575 107 92.6667V100.667Z" fill="url(#paint0_linear_625_165)" stroke="url(#paint1_linear_625_165)" stroke-width="4"/>
<path d="M79.7467 39.72C77.9333 36.0933 72.0133 36.0933 70.2 39.72L57.2346 65.6927C55.7633 68.6399 51.5597 68.6451 50.0812 65.7014L47.7467 61.0533C47.3094 60.1691 46.6326 59.4254 45.7935 58.9068C44.9543 58.3882 43.9864 58.1156 43 58.12H15C12.7909 58.12 11 59.9109 11 62.12V64.7867C11 66.9958 12.7909 68.7867 15 68.7867H37.218C38.7348 68.7867 40.121 69.6445 40.7978 71.002L48.8667 87.1867C49.8267 89 51.64 90.12 53.6667 90.12C55.6933 90.12 57.5067 89 58.4133 87.1867L71.4286 61.1979C72.9026 58.2547 77.1023 58.2523 78.5797 61.1937L80.92 65.8533C81.8267 67.6667 83.64 68.7867 85.6667 68.7867H113.667C115.876 68.7867 117.667 66.9958 117.667 64.7867V62.12C117.667 59.9109 115.876 58.12 113.667 58.12H91.4423C89.9288 58.12 88.545 57.2659 87.8666 55.913L79.7467 39.72Z" fill="url(#paint2_linear_625_165)" stroke="url(#paint3_linear_625_165)" stroke-width="4"/>
<defs>
<linearGradient id="paint0_linear_625_165" x1="18.619" y1="67.6667" x2="104.919" y2="56.9962" gradientUnits="userSpaceOnUse">
<stop stop-color="#8D01A2"/>
<stop offset="1" stop-color="#FF00D2"/>
</linearGradient>
<linearGradient id="paint1_linear_625_165" x1="18.619" y1="67.6667" x2="104.919" y2="56.9962" gradientUnits="userSpaceOnUse">
<stop stop-color="#8D01A2"/>
<stop offset="1" stop-color="#FF00D2"/>
</linearGradient>
<linearGradient id="paint2_linear_625_165" x1="30.3333" y1="83.8489" x2="71.962" y2="10.9135" gradientUnits="userSpaceOnUse">
<stop stop-color="#FE0844"/>
<stop offset="1" stop-color="#FEB302"/>
</linearGradient>
<linearGradient id="paint3_linear_625_165" x1="30.3333" y1="83.8489" x2="71.962" y2="10.9135" gradientUnits="userSpaceOnUse">
<stop stop-color="#FE0844"/>
<stop offset="1" stop-color="#FEB302"/>
</linearGradient>
</defs>
</svg>
