<svg width="128" height="128" viewBox="0 0 128 128" fill="none" xmlns="http://www.w3.org/2000/svg">
<g clip-path="url(#clip0)">
<path opacity="0.25" d="M9.40687 24.3879C9.36683 20.7487 11.7767 17.1244 15.4196 15.6628L16.2363 16.6003C14.8512 18.1431 13.1538 19.4718 12.097 21.2433C10.9201 26.6319 10.84 32.2199 11.6166 37.6601C11.0242 42.0743 10.9361 46.5623 11.5045 50.9913C10.776 57.3469 11.3444 63.7689 11.1523 70.1539C10.9841 72.7597 11.3764 75.3433 11.7928 77.9121C11.4725 78.2589 10.84 78.9455 10.5198 79.2851L10.3036 79.2481C10.0874 78.9749 9.65507 78.4287 9.43889 78.1557C9.35883 60.2331 9.40687 42.3105 9.40687 24.3879Z" fill="url(#paint0_linear)"/>
<path opacity="0.25" d="M41.5039 55.6417C41.8801 55.6935 42.6489 55.7967 43.0331 55.8559C50.7271 62.4403 57.1723 70.1539 64.9865 76.6277C64.7543 76.8269 64.2739 77.2329 64.0417 77.4323C62.4085 75.9191 60.8631 74.3393 59.2539 72.8113C54.6823 68.3825 50.1107 63.9535 45.5471 59.5245C44.2101 58.2179 42.8809 56.9041 41.5039 55.6417Z" fill="url(#paint1_linear)"/>
<path opacity="0.25" d="M124.474 17.1318C124.93 17.154 125.835 17.1983 126.283 17.2204C127.316 19.4718 128.021 21.893 127.941 24.351C127.957 44.7908 127.973 65.223 127.941 85.6554C128.637 89.4126 123.025 91.2432 120.183 89.2872C123.089 89.981 126.259 87.7148 126.051 84.9098C126.059 75.9854 126.051 67.061 126.051 58.1294C126.059 46.8724 126.059 35.6154 126.051 24.3584C126.075 21.8708 125.435 19.4349 124.474 17.1318Z" fill="url(#paint2_linear)"/>
<path fill-rule="evenodd" clip-rule="evenodd" d="M95.4673 28.6839C91.6643 26.1447 86.4923 25.4507 82.0887 27.0009C76.4203 28.8611 72.4651 34.3161 72.8255 39.8597C72.9775 45.1893 77.0447 50.0979 82.4971 51.7809C82.682 51.8217 82.9598 51.8811 83.2372 51.9404C83.5123 51.9992 83.7869 52.0579 83.9703 52.0983C84.7605 51.0623 85.5471 50.0227 86.3341 48.9825C90.4984 43.4782 94.6734 37.9599 99.4545 32.9061C98.4777 31.2453 97.0285 29.8871 95.4673 28.6839ZM86.3345 48.9827C85.5475 50.0228 84.7609 51.0625 83.9707 52.0984C90.5197 53.5674 97.7895 50.0464 100.215 44.2519C101.841 40.6201 101.552 36.3314 99.4549 32.9062C94.6738 37.96 90.4988 43.4784 86.3345 48.9827Z" fill="url(#paint3_linear)"/>
<path fill-rule="evenodd" clip-rule="evenodd" d="M81.1216 5.98683C76.2149 6.01865 71.1774 6.05131 65.5781 6.03714C65.578 6.03718 65.5778 6.03723 65.5776 6.03728C53.5285 5.99593 41.4792 6.01129 29.4259 6.02665L29.4258 6.02665C26.4145 6.03049 23.4029 6.03432 20.391 6.03728C10.5032 6.02988 1.60814 13.8544 1.06371 22.9486C0.98154 28.8831 0.996821 34.8175 1.0121 40.7519C1.01915 43.4906 1.02621 46.2294 1.02368 48.9681L1.02307 48.9687C0.999054 62.3811 0.999053 75.8009 1.01507 89.2133C1.98016 88.2292 2.97554 87.2681 3.97097 86.3069C6.17141 84.1821 8.37209 82.0572 10.2463 79.6837C9.75208 77.6011 9.80819 75.473 9.8643 73.3448C9.89272 72.2669 9.92113 71.1891 9.87807 70.1171C9.80419 64.9939 9.79452 59.869 9.78485 54.7449V54.7445V54.7443V54.7442C9.77462 49.3185 9.76439 43.8937 9.67792 38.4728L9.67852 38.472C9.765 43.8933 9.77523 49.3183 9.78546 54.7443V54.7444V54.7444V54.7444V54.7445V54.7449C9.79513 59.8689 9.8048 64.9938 9.87868 70.117C9.92174 71.189 9.89333 72.2669 9.86491 73.3447C9.8088 75.473 9.75269 77.6011 10.247 79.6836C10.3784 79.6285 10.5753 79.5478 10.7724 79.467L10.7727 79.467L10.7739 79.4665L10.7749 79.466C10.9732 79.3848 11.1716 79.3035 11.3038 79.248L10.4391 78.1556C10.3809 65.1212 10.3904 52.0867 10.4 39.0523V39.0523V39.0522V39.0522V39.0522C10.4035 34.1641 10.4071 29.2761 10.4071 24.388C10.3671 20.7488 12.777 17.1245 16.4198 15.6629C17.909 14.9764 19.6064 14.8066 21.2396 14.6959C26.374 14.6933 31.5075 14.6979 36.6403 14.7025H36.6411H36.6419H36.6428H36.6436C46.2688 14.7111 55.8917 14.7197 65.5146 14.6811C60.7664 13.9805 55.9652 13.9453 51.1691 13.9101C49.2449 13.896 47.3216 13.8819 45.4028 13.8249C45.4028 13.8248 45.4029 13.8248 45.4029 13.8248C47.3215 13.8818 49.2447 13.8959 51.1687 13.91C55.9647 13.9452 60.766 13.9803 65.5141 14.681C79.6373 14.7031 93.7525 14.7179 107.868 14.7031C107.866 14.7028 107.864 14.7024 107.863 14.7021C107.865 14.7025 107.867 14.7029 107.869 14.7033C111.391 15.0502 114.697 16.8732 116.419 19.781L116.418 19.7819C117.043 21.0368 117.563 22.3654 117.611 23.768C117.626 30.9662 117.621 38.1644 117.617 45.3627C117.611 53.2155 117.606 61.0684 117.627 68.9213C119.369 67.3331 120.777 65.4976 122.184 63.6627L122.184 63.6624C120.777 65.4974 119.369 67.3329 117.627 68.9211C117.611 74.2359 117.611 79.5507 117.627 84.8579C117.531 86.8731 119.084 88.7629 121.182 89.2869C124.088 89.9809 127.259 87.7147 127.051 84.9097C127.056 78.9612 127.054 73.0127 127.052 67.062V67.0603C127.052 64.0839 127.051 61.1069 127.051 58.1291L127.05 58.1293C127.058 46.8723 127.058 35.6154 127.05 24.3584C127.074 21.8708 126.434 19.4349 125.473 17.1319C124.777 15.6189 123.84 14.1944 122.735 12.9102L122.736 12.9096C119.486 9.11544 114.538 6.62045 109.326 6.12589L109.051 6.43882C108.09 7.53439 107.127 8.63261 106.21 9.76123C106.047 9.40917 105.775 9.1015 105.509 8.80092C104.833 8.03748 104.198 7.31985 105.5 6.03702C96.5247 5.88697 88.9913 5.93581 81.1216 5.98683Z" fill="url(#paint4_linear)"/>
<path d="M65.5781 6.03714L65.5819 4.53714L65.3845 4.53664L65.1937 4.58724L65.5781 6.03714ZM81.1216 5.98683L81.1313 7.4868L81.1216 5.98683ZM65.5776 6.03728L65.5725 7.53727L65.7706 7.53795L65.9621 7.48717L65.5776 6.03728ZM29.4259 6.02665L29.424 4.52665L29.424 4.52665L29.4259 6.02665ZM29.4258 6.02665L29.4277 7.52665L29.4278 7.52665L29.4258 6.02665ZM20.391 6.03728L20.3899 7.53728L20.3925 7.53728L20.391 6.03728ZM1.06371 22.9486L-0.433609 22.859L-0.435669 22.8934L-0.436146 22.9279L1.06371 22.9486ZM1.0121 40.7519L-0.487893 40.7558L1.0121 40.7519ZM1.02368 48.9681L2.09979 50.013L2.52312 49.5771L2.52368 48.9694L1.02368 48.9681ZM1.02307 48.9687L-0.0530366 47.9237L-0.475838 48.3591L-0.476925 48.966L1.02307 48.9687ZM1.01507 89.2133L-0.484933 89.2151L-0.480557 92.8806L2.08601 90.2636L1.01507 89.2133ZM3.97097 86.3069L5.01291 87.3859L5.01291 87.3859L3.97097 86.3069ZM10.2463 79.6837L11.4236 80.6133L11.8734 80.0436L11.7058 79.3373L10.2463 79.6837ZM9.8643 73.3448L11.3638 73.3843L11.3638 73.3843L9.8643 73.3448ZM9.87807 70.1171L8.37823 70.1387L8.3785 70.158L8.37928 70.1773L9.87807 70.1171ZM9.78485 54.7449L8.28485 54.7449L8.28486 54.7477L9.78485 54.7449ZM9.78485 54.7442L11.2849 54.7442L11.2849 54.7414L9.78485 54.7442ZM9.67792 38.4728L8.52735 37.5104L8.16921 37.9385L8.17811 38.4967L9.67792 38.4728ZM9.67852 38.472L11.1783 38.4481L11.114 34.4179L8.52795 37.5097L9.67852 38.472ZM9.78546 54.7443L11.2855 54.7443L11.2855 54.7415L9.78546 54.7443ZM9.78546 54.7449L8.28546 54.7449L8.28547 54.7477L9.78546 54.7449ZM9.87868 70.117L8.37884 70.1387L8.37911 70.158L8.37989 70.1772L9.87868 70.117ZM9.86491 73.3447L8.36543 73.3052L8.36543 73.3052L9.86491 73.3447ZM10.247 79.6836L8.7875 80.03L9.19596 81.751L10.8271 81.0669L10.247 79.6836ZM10.7724 79.467L10.2598 78.0574L10.2315 78.0676L10.2037 78.0791L10.7724 79.467ZM10.7727 79.467L11.2853 80.8766L11.3156 80.8656L11.3454 80.8533L10.7727 79.467ZM10.7739 79.4665L10.21 78.0764L10.2011 78.0801L10.7739 79.4665ZM10.7749 79.466L11.3387 80.856L11.3437 80.854L10.7749 79.466ZM11.3038 79.248L11.8839 80.6313L13.7067 79.8669L12.4799 78.3171L11.3038 79.248ZM10.4391 78.1556L8.93914 78.1623L8.94145 78.6804L9.26298 79.0866L10.4391 78.1556ZM10.4 39.0523L11.9 39.0534V39.0523H10.4ZM10.4 39.0522L8.89995 39.0511V39.0522H10.4ZM10.4071 24.388H11.9071V24.3798L11.907 24.3715L10.4071 24.388ZM16.4198 15.6629L16.9784 17.055L17.0135 17.041L17.0478 17.0251L16.4198 15.6629ZM21.2396 14.6959L21.2388 13.1959L21.1884 13.1959L21.1381 13.1993L21.2396 14.6959ZM36.6403 14.7025L36.6389 16.2025H36.6403V14.7025ZM36.6436 14.7025L36.6449 13.2025H36.6436V14.7025ZM65.5146 14.6811L65.5206 16.1811L65.7336 13.1972L65.5146 14.6811ZM51.1691 13.9101L51.1582 15.4101L51.1582 15.4101L51.1691 13.9101ZM45.4028 13.8249L44.185 12.9491L42.5374 15.2403L45.3582 15.3242L45.4028 13.8249ZM45.4029 13.8248L45.4475 12.3254L44.6506 12.3017L44.1851 12.949L45.4029 13.8248ZM51.1687 13.91L51.1797 12.41L51.1797 12.41L51.1687 13.91ZM65.5141 14.681L65.2952 16.1649L65.4029 16.1808L65.5118 16.181L65.5141 14.681ZM107.868 14.7031L107.869 16.2031L108.181 13.2363L107.868 14.7031ZM107.863 14.7021L108.176 13.2353L107.543 16.1677L107.863 14.7021ZM107.869 14.7033L107.555 16.1701L107.637 16.1878L107.722 16.1961L107.869 14.7033ZM116.419 19.781L117.505 20.8153L118.288 19.9933L117.71 19.0168L116.419 19.781ZM116.418 19.7819L115.332 18.7476L114.607 19.5091L115.075 20.4502L116.418 19.7819ZM117.611 23.768L119.111 23.7649L119.111 23.7408L119.11 23.7167L117.611 23.768ZM117.617 45.3627L116.117 45.3616L116.117 45.3616L117.617 45.3627ZM117.627 68.9213L116.127 68.9252L116.136 72.3104L118.638 70.0297L117.627 68.9213ZM122.184 63.6627L121.095 62.6311L121.042 62.6878L120.994 62.7498L122.184 63.6627ZM122.184 63.6624L123.375 64.5753L121.096 62.6308L122.184 63.6624ZM117.627 68.9211L116.617 67.8126L116.129 68.257L116.127 68.9166L117.627 68.9211ZM117.627 84.8579L119.126 84.9292L119.127 84.8913L119.127 84.8534L117.627 84.8579ZM121.182 89.2869L120.818 90.7422L120.826 90.744L120.834 90.7459L121.182 89.2869ZM127.051 84.9097L125.551 84.9083L125.551 84.9646L125.555 85.0207L127.051 84.9097ZM127.052 67.062L125.552 67.062L125.552 67.0624L127.052 67.062ZM127.052 67.0603L128.552 67.0603L128.552 67.0599L127.052 67.0603ZM127.051 58.1291H128.551V54.8417L126.068 56.9961L127.051 58.1291ZM127.05 58.1293L125.55 58.1282L125.548 61.4187L128.033 59.2623L127.05 58.1293ZM127.05 24.3584L125.55 24.344L125.55 24.3517L125.55 24.3595L127.05 24.3584ZM125.473 17.1319L126.858 16.5544L126.847 16.5293L126.836 16.5046L125.473 17.1319ZM122.735 12.9102L121.848 11.7008L120.541 12.6595L121.598 13.8883L122.735 12.9102ZM122.736 12.9096L123.624 14.119L124.928 13.1621L123.875 11.9337L122.736 12.9096ZM109.326 6.12589L109.467 4.6326L108.704 4.56014L108.198 5.13688L109.326 6.12589ZM109.051 6.43882L110.179 7.42796L110.179 7.42783L109.051 6.43882ZM106.21 9.76123L104.849 10.391L105.858 12.5733L107.374 10.707L106.21 9.76123ZM105.509 8.80092L106.632 7.80674L106.632 7.80674L105.509 8.80092ZM105.5 6.03702L106.553 7.10556L109.099 4.59697L105.525 4.53723L105.5 6.03702ZM65.5743 7.53713C71.1813 7.55132 76.2251 7.51861 81.1313 7.4868L81.1119 4.48687C76.2046 4.51868 71.1735 4.55129 65.5819 4.53714L65.5743 7.53713ZM65.9621 7.48717L65.9626 7.48703L65.1937 4.58724L65.1932 4.58738L65.9621 7.48717ZM29.4278 7.52665C41.4817 7.51128 53.5274 7.49594 65.5725 7.53727L65.5828 4.53728C53.5295 4.49593 41.4767 4.51129 29.424 4.52665L29.4278 7.52665ZM29.4278 7.52665L29.4279 7.52665L29.424 4.52665L29.4239 4.52665L29.4278 7.52665ZM20.3925 7.53728C23.4046 7.53432 26.4164 7.53049 29.4277 7.52665L29.4239 4.52665C26.4125 4.53049 23.4012 4.53433 20.3895 4.53728L20.3925 7.53728ZM2.56103 23.0383C3.05229 14.8321 11.1968 7.5304 20.3899 7.53728L20.3921 4.53728C9.80953 4.52936 0.163986 12.8767 -0.433609 22.859L2.56103 23.0383ZM2.5121 40.748C2.49681 34.8116 2.4816 28.8895 2.56357 22.9694L-0.436146 22.9279C-0.518515 28.8767 -0.503169 34.8234 -0.487893 40.7558L2.5121 40.748ZM2.52368 48.9694C2.52621 46.2277 2.51915 43.4863 2.5121 40.748L-0.487893 40.7558C-0.480839 43.4949 -0.473795 46.231 -0.476319 48.9667L2.52368 48.9694ZM2.09918 50.0137L2.09979 50.013L-0.0524291 47.9231L-0.0530366 47.9237L2.09918 50.0137ZM2.51506 89.2115C2.49905 75.8003 2.49905 62.382 2.52307 48.9714L-0.476925 48.966C-0.500947 62.3802 -0.500947 75.8015 -0.484933 89.2151L2.51506 89.2115ZM2.92904 85.2278C1.93609 86.1866 0.925918 87.1619 -0.0558759 88.163L2.08601 90.2636C3.03439 89.2965 4.01498 88.3495 5.01291 87.3859L2.92904 85.2278ZM9.06914 78.7541C7.2681 81.0348 5.14236 83.0906 2.92904 85.2278L5.01291 87.3859C7.20046 85.2736 9.47608 83.0795 11.4236 80.6133L9.06914 78.7541ZM8.36482 73.3052C8.30959 75.4001 8.23995 77.7256 8.78689 80.0301L11.7058 79.3373C11.2642 77.4767 11.3068 75.5459 11.3638 73.3843L8.36482 73.3052ZM8.37928 70.1773C8.42 71.1911 8.39346 72.2189 8.36482 73.3052L11.3638 73.3843C11.392 72.315 11.4223 71.1871 11.3769 70.0569L8.37928 70.1773ZM8.28486 54.7477C8.29452 59.8703 8.30419 65.0046 8.37823 70.1387L11.3779 70.0955C11.3042 64.9832 11.2945 59.8677 11.2849 54.7421L8.28486 54.7477ZM8.28485 54.7445V54.7449H11.2849V54.7445H8.28485ZM8.28485 54.7443V54.7445H11.2849V54.7443H8.28485ZM8.28485 54.7442V54.7443H11.2849V54.7442H8.28485ZM8.17811 38.4967C8.26438 43.9053 8.27462 49.3196 8.28486 54.7471L11.2849 54.7414C11.2746 49.3175 11.2644 43.8821 11.1777 38.4488L8.17811 38.4967ZM8.52795 37.5097L8.52735 37.5104L10.8285 39.4351L10.8291 39.4344L8.52795 37.5097ZM11.2855 54.7415C11.2752 49.3173 11.265 43.8816 11.1783 38.4481L8.17871 38.496C8.26499 43.9049 8.27523 49.3194 8.28547 54.7471L11.2855 54.7415ZM11.2855 54.7444V54.7443H8.28546V54.7444H11.2855ZM11.2855 54.7444V54.7444H8.28546V54.7444H11.2855ZM11.2855 54.7444V54.7444H8.28546V54.7444H11.2855ZM11.2855 54.7445V54.7444H8.28546V54.7445H11.2855ZM11.2855 54.7449V54.7445H8.28546V54.7449H11.2855ZM11.3785 70.0954C11.3048 64.9832 11.2951 59.8677 11.2855 54.742L8.28547 54.7477C8.29513 59.8702 8.3048 65.0045 8.37884 70.1387L11.3785 70.0954ZM11.3644 73.3842C11.3926 72.315 11.4229 71.1871 11.3775 70.0568L8.37989 70.1772C8.42061 71.191 8.39407 72.2188 8.36543 73.3052L11.3644 73.3842ZM11.7064 79.3373C11.2648 77.4766 11.3074 75.5459 11.3644 73.3842L8.36543 73.3052C8.3102 75.4001 8.24056 77.7256 8.7875 80.03L11.7064 79.3373ZM10.2037 78.0791C10.009 78.1588 9.80533 78.2423 9.66682 78.3004L10.8271 81.0669C10.9515 81.0147 11.1415 80.9369 11.3412 80.855L10.2037 78.0791ZM10.2601 78.0573L10.2598 78.0574L11.285 80.8767L11.2853 80.8766L10.2601 78.0573ZM10.2011 78.0801L10.1999 78.0806L11.3454 80.8533L11.3467 80.8528L10.2011 78.0801ZM10.2111 78.076L10.2101 78.0765L11.3377 80.8565L11.3387 80.856L10.2111 78.076ZM10.7237 77.8648C10.5985 77.9172 10.407 77.9958 10.2061 78.0781L11.3437 80.854C11.5395 80.7738 11.7447 80.6897 11.8839 80.6313L10.7237 77.8648ZM9.26298 79.0866L10.1277 80.179L12.4799 78.3171L11.6153 77.2247L9.26298 79.0866ZM8.89995 39.0512C8.89042 52.085 8.88089 65.1233 8.93914 78.1623L11.9391 78.1489C11.8809 65.119 11.8904 52.0884 11.9 39.0534L8.89995 39.0512ZM8.89995 39.0523V39.0523H11.9V39.0523H8.89995ZM8.89995 39.0522V39.0523H11.9V39.0522H8.89995ZM8.89995 39.0522V39.0522H11.9V39.0522H8.89995ZM8.89995 39.0522V39.0522H11.9V39.0522H8.89995ZM8.9071 24.388C8.9071 29.2754 8.90353 34.1629 8.89995 39.0511L11.9 39.0533C11.9035 34.1653 11.9071 29.2767 11.9071 24.388H8.9071ZM15.8613 14.2708C11.6655 15.9542 8.86009 20.1239 8.90719 24.4045L11.907 24.3715C11.874 21.3738 13.8884 18.2947 16.9784 17.055L15.8613 14.2708ZM21.1381 13.1993C19.5118 13.3096 17.5594 13.4859 15.7919 14.3007L17.0478 17.0251C18.2586 16.4669 19.7009 16.3036 21.3411 16.1925L21.1381 13.1993ZM36.6416 13.2025C31.509 13.1979 26.3745 13.1933 21.2388 13.1959L21.2403 16.1959C26.3736 16.1933 31.5059 16.1979 36.6389 16.2025L36.6416 13.2025ZM36.6411 13.2025H36.6403V16.2025H36.6411V13.2025ZM36.6419 13.2025H36.6411V16.2025H36.6419V13.2025ZM36.6428 13.2025H36.6419V16.2025H36.6428V13.2025ZM36.6436 13.2025H36.6428V16.2025H36.6436V13.2025ZM65.5086 13.1812C55.89 13.2196 46.2707 13.2111 36.6449 13.2025L36.6422 16.2025C46.2668 16.2111 55.8934 16.2197 65.5206 16.1811L65.5086 13.1812ZM51.1582 15.4101C55.9718 15.4454 60.6681 15.4822 65.2956 16.1651L65.7336 13.1972C60.8647 12.4787 55.9585 12.4452 51.1801 12.4102L51.1582 15.4101ZM45.3582 15.3242C47.2966 15.3819 49.2368 15.396 51.1582 15.4101L51.1801 12.4102C49.2531 12.3961 47.3466 12.382 45.4474 12.3255L45.3582 15.3242ZM44.1851 12.949C44.195 12.9352 44.2033 12.9242 44.2082 12.9178C44.2107 12.9144 44.2128 12.9118 44.214 12.9102C44.2151 12.9087 44.2161 12.9074 44.2159 12.9076C44.2159 12.9076 44.2159 12.9076 44.2159 12.9076C44.2159 12.9076 44.2159 12.9076 44.2159 12.9076C44.2159 12.9076 44.2159 12.9077 44.2159 12.9077C44.2159 12.9077 44.2159 12.9077 44.2159 12.9077C44.2159 12.9077 44.2158 12.9078 44.2158 12.9078C44.2157 12.9079 44.2156 12.9081 44.2154 12.9083C44.2151 12.9087 44.2146 12.9094 44.214 12.9102C44.2127 12.9118 44.2107 12.9145 44.2081 12.9178C44.2032 12.9243 44.1949 12.9353 44.185 12.9491L46.6206 14.7006C46.6107 14.7144 46.6024 14.7254 46.5975 14.7319C46.595 14.7352 46.5929 14.7379 46.5917 14.7395C46.5906 14.7409 46.5896 14.7422 46.5898 14.742C46.5898 14.742 46.5898 14.742 46.5898 14.742C46.5898 14.742 46.5898 14.742 46.5898 14.742C46.5898 14.742 46.5898 14.742 46.5898 14.742C46.5898 14.742 46.5898 14.742 46.5898 14.7419C46.5898 14.7419 46.5899 14.7419 46.5899 14.7418C46.59 14.7417 46.5901 14.7416 46.5903 14.7413C46.5906 14.7409 46.5911 14.7403 46.5917 14.7394C46.593 14.7378 46.595 14.7351 46.5976 14.7318C46.6025 14.7253 46.6108 14.7143 46.6207 14.7005L44.1851 12.949ZM51.1797 12.41C49.2528 12.3959 47.3465 12.3819 45.4475 12.3254L45.3583 15.3241C47.2965 15.3817 49.2365 15.3959 51.1577 15.41L51.1797 12.41ZM65.7331 13.1971C60.8643 12.4786 55.958 12.4451 51.1797 12.41L51.1577 15.41C55.9714 15.4452 60.6677 15.4821 65.2952 16.1649L65.7331 13.1971ZM107.866 13.2031C93.7529 13.2179 79.6393 13.2031 65.5165 13.181L65.5118 16.181C79.6354 16.2031 93.7521 16.2179 107.869 16.2031L107.866 13.2031ZM107.543 16.1677C107.545 16.168 107.549 16.1689 107.554 16.17L108.181 13.2363L108.182 13.2364L107.543 16.1677ZM108.182 13.2365C108.182 13.2365 108.182 13.2364 108.181 13.2361C108.18 13.2359 108.178 13.2356 108.176 13.2353L107.549 16.1689C107.549 16.1689 107.549 16.169 107.551 16.1693C107.551 16.1694 107.553 16.1698 107.555 16.1701L108.182 13.2365ZM117.71 19.0168C115.701 15.6235 111.92 13.5951 108.016 13.2106L107.722 16.1961C110.861 16.5053 113.694 18.1228 115.128 20.5452L117.71 19.0168ZM117.504 20.8161L117.505 20.8153L115.332 18.7468L115.332 18.7476L117.504 20.8161ZM119.11 23.7167C119.051 21.9883 118.414 20.4265 117.761 19.1135L115.075 20.4502C115.671 21.6472 116.075 22.7426 116.112 23.8193L119.11 23.7167ZM119.117 45.3637C119.121 38.1658 119.126 30.9655 119.111 23.7649L116.111 23.7712C116.126 30.967 116.121 38.1631 116.117 45.3616L119.117 45.3637ZM119.127 68.9173C119.106 61.0674 119.111 53.217 119.117 45.3637L116.117 45.3616C116.111 53.2141 116.106 61.0695 116.127 68.9252L119.127 68.9173ZM120.994 62.7498C119.574 64.6012 118.244 66.329 116.616 67.8128L118.638 70.0297C120.494 68.3372 121.98 66.394 123.374 64.5756L120.994 62.7498ZM121.096 62.6308L121.095 62.6311L123.273 64.6943L123.273 64.694L121.096 62.6308ZM118.638 70.0296C120.494 68.337 121.98 66.3938 123.375 64.5753L120.994 62.7495C119.574 64.601 118.244 66.3288 116.617 67.8126L118.638 70.0296ZM119.127 84.8534C119.111 79.5492 119.111 74.2374 119.127 68.9256L116.127 68.9166C116.111 74.2344 116.111 79.5522 116.127 84.8624L119.127 84.8534ZM121.546 87.8316C120.037 87.4548 119.068 86.1278 119.126 84.9292L116.129 84.7865C115.994 87.6184 118.132 90.0709 120.818 90.7422L121.546 87.8316ZM125.555 85.0207C125.612 85.794 125.211 86.6027 124.396 87.2017C123.581 87.8009 122.508 88.0613 121.53 87.8279L120.834 90.7459C122.763 91.2065 124.728 90.6807 126.173 89.6191C127.617 88.5572 128.697 86.8304 128.547 84.7986L125.555 85.0207ZM125.552 67.0624C125.554 73.0133 125.556 78.9609 125.551 84.9083L128.551 84.911C128.556 78.9615 128.554 73.0121 128.552 67.0615L125.552 67.0624ZM125.552 67.0603V67.062H128.552V67.0603H125.552ZM125.551 58.1291C125.551 61.1071 125.552 64.0844 125.552 67.0608L128.552 67.0599C128.552 64.0834 128.551 61.1066 128.551 58.1291H125.551ZM128.033 59.2623L128.034 59.2621L126.068 56.9961L126.067 56.9963L128.033 59.2623ZM125.55 24.3595C125.558 35.6158 125.558 46.872 125.55 58.1282L128.55 58.1304C128.558 46.8727 128.558 35.615 128.55 24.3574L125.55 24.3595ZM124.089 17.7094C124.999 19.8918 125.572 22.1211 125.55 24.344L128.55 24.3729C128.577 21.6206 127.869 18.9781 126.858 16.5544L124.089 17.7094ZM121.598 13.8883C122.62 15.0761 123.478 16.3838 124.111 17.7591L126.836 16.5046C126.076 14.8539 125.06 13.3128 123.873 11.9321L121.598 13.8883ZM121.849 11.7002L121.848 11.7008L123.623 14.1196L123.624 14.119L121.849 11.7002ZM109.184 7.61919C114.032 8.07921 118.614 10.4036 121.597 13.8855L123.875 11.9337C120.357 7.82732 115.044 5.1617 109.467 4.6326L109.184 7.61919ZM110.179 7.42783L110.453 7.11491L108.198 5.13688L107.924 5.4498L110.179 7.42783ZM107.374 10.707C108.27 9.60412 109.215 8.52716 110.179 7.42796L107.924 5.44967C106.966 6.54163 105.984 7.6611 105.046 8.81543L107.374 10.707ZM104.386 9.79511C104.683 10.1309 104.795 10.2744 104.849 10.391L107.571 9.13145C107.3 8.54389 106.867 8.07208 106.632 7.80674L104.386 9.79511ZM104.447 4.96847C103.629 5.77513 103.078 6.75064 103.288 7.88659C103.459 8.81209 104.128 9.50427 104.386 9.79511L106.632 7.80674C106.45 7.60114 106.347 7.48223 106.274 7.37592C106.207 7.27822 106.226 7.27538 106.238 7.34089C106.255 7.43387 106.232 7.50282 106.232 7.50137C106.244 7.4738 106.312 7.34274 106.553 7.10556L104.447 4.96847ZM81.1313 7.4868C89.0018 7.43578 96.5192 7.38709 105.475 7.53681L105.525 4.53723C96.5302 4.38685 88.9808 4.43585 81.1119 4.48687L81.1313 7.4868Z" fill="url(#paint5_linear)"/>
<path d="M34.7232 56.2397C36.3566 54.4681 39.559 54.1137 41.5046 55.6417C42.8816 56.9039 44.2108 58.2179 45.5478 59.5245C43.5942 62.0121 41.5926 64.4775 39.8954 67.1201C39.407 66.6477 38.9106 66.1901 38.4062 65.7397C28.7024 74.7527 19.2631 84.0093 9.47134 92.9337C9.2952 96.4031 9.45532 99.8945 9.39928 103.379C9.26316 106.759 11.0566 110.251 14.2591 112C15.1158 112.532 16.1006 112.849 17.0533 113.203C15.2279 115.639 13.3864 118.083 11.6491 120.578L11.1366 120.386C4.7476 117.514 0.280076 111.329 0.0318801 104.766C-0.00815152 99.5845 0.00786078 94.3953 0.0158671 89.2133C3.11432 86.0539 6 83.5 9.5 80C10.6773 78.9006 10.0664 79.5 10.304 79.2481C10.6243 78.9085 11.4729 78.2591 11.7932 77.9121C19.4392 70.6929 27.0772 63.4663 34.7232 56.2397Z" fill="url(#paint6_linear)"/>
<path d="M45.5478 59.5245C50.1114 63.9535 54.6826 68.3824 59.2542 72.8114C57.4528 75.3948 55.4752 77.8604 53.4336 80.2816C49.0142 75.9928 44.5706 71.7261 40.1832 67.4227L39.8954 67.1201C41.5926 64.4775 43.5942 62.0121 45.5478 59.5245Z" fill="url(#paint7_linear)"/>
<path d="M76.0837 67.0316C79.2063 65.105 82.5049 67.4672 84.3703 69.7554C81.7763 71.7928 79.8547 74.369 78.5657 77.2626C74.7387 80.444 71.0879 83.8026 67.3169 87.0432C66.0679 88.2094 64.2023 88.5122 62.5051 88.2538C58.8141 86.3788 56.5 82.88 53.4336 80.2816C55.4752 77.8604 57.4528 75.3948 59.2542 72.8114C60.8634 74.3394 62.4089 75.919 64.0423 77.4322C64.2745 77.233 64.7549 76.827 64.9869 76.6276C68.6939 73.4388 72.2487 70.0802 76.0837 67.0316Z" fill="url(#paint8_linear)"/>
<path d="M78.5657 77.2626C79.8547 74.369 81.7763 71.7928 84.3703 69.7554C88.0933 73.306 91.8087 76.8711 95.4755 80.4807C93.6901 83.0791 91.7767 85.6035 89.7271 88.0247C86.6045 85.0425 83.5061 82.0457 80.3917 79.0635C79.7831 78.4581 79.1743 77.8606 78.5657 77.2626Z" fill="url(#paint9_linear)"/>
<path d="M95.4755 80.4807C99.7909 84.5481 104.082 88.6449 108.333 92.7785C106.34 95.2219 104.514 97.7981 102.152 99.9681C98.0051 95.9895 93.8583 92.0109 89.7271 88.0247C91.7767 85.6035 93.6901 83.0791 95.4755 80.4807Z" fill="url(#paint10_linear)"/>
<path d="M102.152 99.9681C104.514 97.7981 106.34 95.2219 108.333 92.7785C112.224 96.5283 116.123 100.264 120.014 104.013C121.928 106.132 125.451 108.118 124.298 111.343C121.383 117.721 114.146 122.143 106.652 122.216C101.528 122.239 96.4037 122.224 91.2797 122.224C92.9769 119.153 95.2989 116.444 97.2923 113.543C102.697 113.203 109.158 114.835 113.417 110.819C109.686 107.187 105.907 103.585 102.152 99.9681Z" fill="url(#paint11_linear)"/>
<path d="M17.0533 113.203C23.7066 113.949 30.4715 113.329 37.1649 113.543C35.0993 116.407 32.6893 119.087 31.0881 122.224C24.6109 121.929 17.7419 123.206 11.6491 120.578C13.3864 118.083 15.2279 115.639 17.0533 113.203Z" fill="url(#paint12_linear)"/>
<path d="M37.1649 113.543C43.8261 113.536 50.4874 113.528 57.1488 113.536C54.8028 116.341 52.7292 119.316 50.5436 122.224C44.0584 122.231 37.5731 122.224 31.0881 122.224C32.6893 119.087 35.0993 116.407 37.1649 113.543Z" fill="url(#paint13_linear)"/>
<path d="M57.1488 113.536C63.5458 113.536 69.9428 113.536 76.3398 113.543C73.994 116.333 71.9042 119.301 69.7506 122.224C63.3454 122.231 56.9486 122.224 50.5436 122.224C52.7292 119.316 54.8028 116.341 57.1488 113.536Z" fill="url(#paint14_linear)"/>
<path d="M76.3398 113.543C83.3292 113.536 90.3109 113.528 97.2923 113.543C95.2989 116.444 92.9769 119.153 91.2797 122.224C84.1059 122.231 76.9242 122.224 69.7506 122.224C71.9042 119.301 73.994 116.333 76.3398 113.543Z" fill="url(#paint15_linear)"/>
<path d="M45.5478 59.5245C44.2108 58.2179 42.8816 56.9039 41.5046 55.6417C39.559 54.1137 36.3566 54.4681 34.7232 56.2397C27.0772 63.4663 19.4392 70.6929 11.7932 77.9121C11.4729 78.2591 10.6243 78.9085 10.304 79.2481C10.0664 79.5 10.6773 78.9006 9.5 80C6 83.5 3.11432 86.0539 0.0158671 89.2133C0.00786078 94.3953 -0.00815152 99.5845 0.0318801 104.766C0.280076 111.329 4.7476 117.514 11.1366 120.386L11.6491 120.578M45.5478 59.5245C43.5942 62.0121 41.5926 64.4775 39.8954 67.1201M45.5478 59.5245C50.1114 63.9535 54.6826 68.3824 59.2542 72.8114M39.8954 67.1201C39.407 66.6477 38.9106 66.1901 38.4062 65.7397C28.7024 74.7527 19.2631 84.0093 9.47134 92.9337C9.2952 96.4031 9.45532 99.8945 9.39928 103.379C9.26316 106.759 11.0566 110.251 14.2591 112C15.1158 112.532 16.1006 112.849 17.0533 113.203M39.8954 67.1201L40.1832 67.4227C44.5706 71.7261 49.0142 75.9928 53.4336 80.2816M17.0533 113.203C15.2279 115.639 13.3864 118.083 11.6491 120.578M17.0533 113.203C23.7066 113.949 30.4715 113.329 37.1649 113.543M11.6491 120.578C17.7419 123.206 24.6109 121.929 31.0881 122.224M59.2542 72.8114C57.4528 75.3948 55.4752 77.8604 53.4336 80.2816M59.2542 72.8114C60.8634 74.3394 62.4089 75.919 64.0423 77.4322C64.2745 77.233 64.7549 76.827 64.9869 76.6276C68.6939 73.4388 72.2487 70.0802 76.0837 67.0316C79.2063 65.105 82.5049 67.4672 84.3703 69.7554M53.4336 80.2816C56.5 82.88 58.8141 86.3788 62.5051 88.2538C64.2023 88.5122 66.0679 88.2094 67.3169 87.0432C71.0879 83.8026 74.7387 80.444 78.5657 77.2626M84.3703 69.7554C81.7763 71.7928 79.8547 74.369 78.5657 77.2626M84.3703 69.7554C88.0933 73.306 91.8087 76.8711 95.4755 80.4807M78.5657 77.2626C79.1743 77.8606 79.7831 78.4581 80.3917 79.0635C83.5061 82.0457 86.6045 85.0425 89.7271 88.0247M95.4755 80.4807C93.6901 83.0791 91.7767 85.6035 89.7271 88.0247M95.4755 80.4807C99.7909 84.5481 104.082 88.6449 108.333 92.7785M89.7271 88.0247C93.8583 92.0109 98.0051 95.9895 102.152 99.9681M108.333 92.7785C106.34 95.2219 104.514 97.7981 102.152 99.9681M108.333 92.7785C112.224 96.5283 116.123 100.264 120.014 104.013C121.928 106.132 125.451 108.118 124.298 111.343C121.383 117.721 114.146 122.143 106.652 122.216C101.528 122.239 96.4037 122.224 91.2797 122.224M102.152 99.9681C105.907 103.585 109.686 107.187 113.417 110.819C109.158 114.835 102.697 113.203 97.2923 113.543M91.2797 122.224C92.9769 119.153 95.2989 116.444 97.2923 113.543M91.2797 122.224C84.1059 122.231 76.9242 122.224 69.7506 122.224M97.2923 113.543C90.3109 113.528 83.3292 113.536 76.3398 113.543M37.1649 113.543C35.0993 116.407 32.6893 119.087 31.0881 122.224M37.1649 113.543C43.8261 113.536 50.4874 113.528 57.1488 113.536M31.0881 122.224C37.5731 122.224 44.0584 122.231 50.5436 122.224M57.1488 113.536C54.8028 116.341 52.7292 119.316 50.5436 122.224M57.1488 113.536C63.5458 113.536 69.9428 113.536 76.3398 113.543M50.5436 122.224C56.9486 122.224 63.3454 122.231 69.7506 122.224M76.3398 113.543C73.994 116.333 71.9042 119.301 69.7506 122.224" stroke="url(#paint16_linear)" stroke-width="2"/>
</g>
<defs>
<linearGradient id="paint0_linear" x1="12.8144" y1="79.2851" x2="12.8144" y2="15.6628" gradientUnits="userSpaceOnUse">
<stop stop-color="#FD5900"/>
<stop offset="1" stop-color="#FFDE00"/>
</linearGradient>
<linearGradient id="paint1_linear" x1="53.2452" y1="77.4323" x2="53.2452" y2="55.6417" gradientUnits="userSpaceOnUse">
<stop stop-color="#FD5900"/>
<stop offset="1" stop-color="#FFDE00"/>
</linearGradient>
<linearGradient id="paint2_linear" x1="124.091" y1="90.0805" x2="124.091" y2="17.1318" gradientUnits="userSpaceOnUse">
<stop stop-color="#FD5900"/>
<stop offset="1" stop-color="#FFDE00"/>
</linearGradient>
<linearGradient id="paint3_linear" x1="87.0308" y1="52.432" x2="87.0308" y2="26.1805" gradientUnits="userSpaceOnUse">
<stop stop-color="#FD5900"/>
<stop offset="1" stop-color="#FFDE00"/>
</linearGradient>
<linearGradient id="paint4_linear" x1="64.0302" y1="89.4131" x2="64.0302" y2="5.93652" gradientUnits="userSpaceOnUse">
<stop stop-color="#5570FF"/>
<stop offset="1" stop-color="#4DD3FF"/>
</linearGradient>
<linearGradient id="paint5_linear" x1="64.0302" y1="89.4131" x2="64.0302" y2="5.93652" gradientUnits="userSpaceOnUse">
<stop stop-color="#5570FF"/>
<stop offset="1" stop-color="#4DD3FF"/>
</linearGradient>
<linearGradient id="paint6_linear" x1="62.2652" y1="122.281" x2="62.2652" y2="54.6777" gradientUnits="userSpaceOnUse">
<stop stop-color="#02AA93"/>
<stop offset="1" stop-color="#67FF80"/>
</linearGradient>
<linearGradient id="paint7_linear" x1="62.2652" y1="122.281" x2="62.2652" y2="54.6777" gradientUnits="userSpaceOnUse">
<stop stop-color="#02AA93"/>
<stop offset="1" stop-color="#67FF80"/>
</linearGradient>
<linearGradient id="paint8_linear" x1="62.2652" y1="122.281" x2="62.2652" y2="54.6777" gradientUnits="userSpaceOnUse">
<stop stop-color="#02AA93"/>
<stop offset="1" stop-color="#67FF80"/>
</linearGradient>
<linearGradient id="paint9_linear" x1="62.2652" y1="122.281" x2="62.2652" y2="54.6777" gradientUnits="userSpaceOnUse">
<stop stop-color="#02AA93"/>
<stop offset="1" stop-color="#67FF80"/>
</linearGradient>
<linearGradient id="paint10_linear" x1="62.2652" y1="122.281" x2="62.2652" y2="54.6777" gradientUnits="userSpaceOnUse">
<stop stop-color="#02AA93"/>
<stop offset="1" stop-color="#67FF80"/>
</linearGradient>
<linearGradient id="paint11_linear" x1="62.2652" y1="122.281" x2="62.2652" y2="54.6777" gradientUnits="userSpaceOnUse">
<stop stop-color="#02AA93"/>
<stop offset="1" stop-color="#67FF80"/>
</linearGradient>
<linearGradient id="paint12_linear" x1="62.2652" y1="122.281" x2="62.2652" y2="54.6777" gradientUnits="userSpaceOnUse">
<stop stop-color="#02AA93"/>
<stop offset="1" stop-color="#67FF80"/>
</linearGradient>
<linearGradient id="paint13_linear" x1="62.2652" y1="122.281" x2="62.2652" y2="54.6777" gradientUnits="userSpaceOnUse">
<stop stop-color="#02AA93"/>
<stop offset="1" stop-color="#67FF80"/>
</linearGradient>
<linearGradient id="paint14_linear" x1="62.2652" y1="122.281" x2="62.2652" y2="54.6777" gradientUnits="userSpaceOnUse">
<stop stop-color="#02AA93"/>
<stop offset="1" stop-color="#67FF80"/>
</linearGradient>
<linearGradient id="paint15_linear" x1="62.2652" y1="122.281" x2="62.2652" y2="54.6777" gradientUnits="userSpaceOnUse">
<stop stop-color="#02AA93"/>
<stop offset="1" stop-color="#67FF80"/>
</linearGradient>
<linearGradient id="paint16_linear" x1="62.2652" y1="122.281" x2="62.2652" y2="54.6777" gradientUnits="userSpaceOnUse">
<stop stop-color="#02AA93"/>
<stop offset="1" stop-color="#67FF80"/>
</linearGradient>
<clipPath id="clip0">
<rect width="128" height="128" fill="white"/>
</clipPath>
</defs>
</svg>
