<svg width="64" height="64" viewBox="0 0 64 64" fill="none" xmlns="http://www.w3.org/2000/svg">
<path d="M41.3399 10.7416C44.3125 8.59941 47.8503 7.02565 51.5742 7.00434C54.343 6.94394 57.4623 7.49813 59.3545 9.69714C61.254 11.9032 61.2612 15.0685 60.6102 17.7542C59.7875 20.9905 58.4997 24.0919 57.1582 27.147C53.9673 34.1419 50.0145 40.8562 44.9099 46.6503C41.8479 50.0536 38.403 53.2152 34.3286 55.3823C31.6851 56.6115 28.4728 57.6346 25.6718 56.3131C22.8172 54.8565 21.2326 51.876 20.0914 49.0304C17.9523 43.3713 17.0902 37.3356 15.1227 31.6232C14.2893 29.3069 13.742 26.909 13.0981 24.5395C12.7474 23.6016 13.1159 22.4613 14.0102 21.9746C15.1049 21.2605 16.7647 21.8609 17.1045 23.1255C17.8164 25.4241 18.285 27.79 19.1042 30.0566C21.0322 35.5878 21.9516 41.4068 23.8761 46.938C24.706 49.0056 25.6003 51.368 27.668 52.5012C29.3671 52.9347 31.1092 52.1673 32.6223 51.4461C37.3728 48.7995 41.1324 44.7461 44.4234 40.5044C49.0916 34.22 52.7976 27.2358 55.484 19.8999C56.1995 17.7684 57.1081 15.4735 56.5107 13.207C56.0671 11.7469 54.3501 11.4521 53.0373 11.2958C48.2689 10.8091 43.7187 13.5374 40.7997 17.1148C43.1285 17.9283 45.0816 19.7969 45.7542 22.1878C46.8309 25.9107 45.7577 29.8647 43.9941 33.2041C42.5418 35.9252 41.1682 38.8845 38.6105 40.7673C36.872 42.0711 34.4181 42.334 32.4828 41.3144C30.0896 40.0568 28.5121 37.6624 27.6322 35.1828C26.1905 31.1578 26.2979 26.8238 25.5288 22.6637C25.0566 20.1451 24.7525 17.5624 23.776 15.1751C23.3217 14.2621 22.7994 13.271 21.8836 12.7452C19.6479 12.5498 17.7091 13.9423 15.9562 15.1396C12.7761 17.4735 9.76412 20.0456 6.98465 22.845C6.27279 23.6088 5.03866 23.8716 4.13006 23.2926C2.79577 22.6176 2.59902 20.5607 3.77591 19.6406C7.17781 16.7417 10.6477 13.9068 14.232 11.2318C16.5143 9.5053 19.3581 8.19087 22.2878 8.52481C24.3697 8.7344 25.9401 10.3614 26.9561 12.056C28.7733 15.065 29.1238 18.6388 29.7606 22.0172C30.5296 25.9747 30.3795 30.1098 31.7459 33.9465C32.286 35.3533 33.0981 36.8134 34.486 37.5416C35.4161 37.9928 36.3283 37.2432 36.9185 36.5895C38.4352 34.8027 39.444 32.6605 40.4993 30.5894C41.6368 28.1701 42.5633 25.2109 41.3328 22.6531C40.3419 20.8271 37.9774 20.8697 36.1852 21.1184C35.4125 21.3813 34.511 20.685 34.7006 19.8679C35.7845 16.1911 38.2528 12.9974 41.3399 10.7416Z" fill="url(#paint0_linear_678_122)" stroke="url(#paint1_linear_678_122)" stroke-width="2"/>
<defs>
<linearGradient id="paint0_linear_678_122" x1="3" y1="8.387" x2="57.4361" y2="50.6302" gradientUnits="userSpaceOnUse">
<stop stop-color="#37CE90"/>
<stop offset="1" stop-color="#9FF66A"/>
</linearGradient>
<linearGradient id="paint1_linear_678_122" x1="3" y1="8.387" x2="57.4361" y2="50.6302" gradientUnits="userSpaceOnUse">
<stop stop-color="#37CE90"/>
<stop offset="1" stop-color="#9FF66A"/>
</linearGradient>
</defs>
</svg>
