<svg width="128" height="128" viewBox="0 0 128 128" fill="none" xmlns="http://www.w3.org/2000/svg">
<path d="M55.7978 8.59238C67.0785 6.94209 78.8544 8.75023 89.0443 13.8877C100.461 19.5776 109.805 29.2784 115.043 40.9093C120.554 52.9995 121.494 67.0701 117.741 79.8059C114.713 90.2028 108.549 99.6525 100.289 106.655C91.5846 114.103 80.5263 118.781 69.1022 119.757C57.5847 120.848 45.7442 118.243 35.7695 112.381C25.2781 106.275 16.8678 96.6746 12.2393 85.4456C5.73067 69.897 6.7353 51.3421 15.1241 36.6976C16.5019 34.2507 20.3841 34.1718 21.9413 36.4751C23.2043 38.0608 22.7881 40.2348 21.7978 41.8349C16.1072 52.4829 14.7868 65.3407 18.1093 76.943C21.0873 87.5622 27.9045 97.0334 37.0038 103.269C46.2536 109.683 57.843 112.639 69.0376 111.398C78.4381 110.415 87.5015 106.533 94.7062 100.42C103.102 93.367 108.958 83.3433 110.881 72.5446C113.027 61.1505 110.73 49.01 104.645 39.1514C98.5884 29.1995 88.7573 21.6225 77.5771 18.3147C66.1384 14.8563 53.4512 15.9828 42.766 21.2924C40.8932 22.3687 38.2524 21.7516 37.1832 19.8502C35.8054 17.834 36.7599 14.8204 38.9843 13.8805C44.2516 11.2328 49.9636 9.46057 55.7978 8.59238Z" fill="url(#paint0_linear_618_237)" stroke="url(#paint1_linear_618_237)" stroke-width="4"/>
<path d="M40.4416 40.522C43.2404 39.2951 46.8213 40.3713 48.2277 43.1481C52.2821 50.2013 55.8271 57.7065 61.3956 63.7337C63.2758 65.9579 66.0601 67.2494 68.9952 67.0485C75.03 67.4503 79.386 61.6027 80.24 56.1854C80.7996 53.5019 79.3286 51.1627 78.123 48.9169C77.0179 44.7911 80.4839 40.0054 84.8397 40.0843C87.9183 40.1489 91.37 42.0431 91.944 45.3007C92.4823 48.3214 91.2337 51.3062 89.7337 53.8679C83.6772 63.9848 78.3598 74.6183 71.0474 83.9175C69.2176 85.9911 67.1221 88.9543 63.9359 88.1866C61.3884 88.1149 59.3506 86.3139 58.023 84.2906C50.9905 74.1735 44.8047 63.5112 38.4109 52.9925C36.8751 50.4883 35.806 47.525 36.1791 44.5472C36.4303 42.3588 38.5975 41.2252 40.4416 40.522Z" fill="url(#paint2_linear_618_237)" stroke="url(#paint3_linear_618_237)" stroke-width="4"/>
<defs>
<linearGradient id="paint0_linear_618_237" x1="116.216" y1="11.2013" x2="72.5311" y2="120.894" gradientUnits="userSpaceOnUse">
<stop stop-color="#FF7AE2"/>
<stop offset="0.0001" stop-color="#FA00FF"/>
<stop offset="1" stop-color="#FF0000"/>
</linearGradient>
<linearGradient id="paint1_linear_618_237" x1="116.216" y1="11.2013" x2="72.5311" y2="120.894" gradientUnits="userSpaceOnUse">
<stop stop-color="#FF7AE2"/>
<stop offset="0.0001" stop-color="#FA00FF"/>
<stop offset="1" stop-color="#FF0000"/>
</linearGradient>
<linearGradient id="paint2_linear_618_237" x1="90.1807" y1="41.4001" x2="73.3393" y2="90.4102" gradientUnits="userSpaceOnUse">
<stop stop-color="#FF7AE2"/>
<stop offset="0.0001" stop-color="#FA00FF"/>
<stop offset="1" stop-color="#FF0000"/>
</linearGradient>
<linearGradient id="paint3_linear_618_237" x1="90.1807" y1="41.4001" x2="73.3393" y2="90.4102" gradientUnits="userSpaceOnUse">
<stop stop-color="#FF7AE2"/>
<stop offset="0.0001" stop-color="#FA00FF"/>
<stop offset="1" stop-color="#FF0000"/>
</linearGradient>
</defs>
</svg>
