<svg width="128" height="128" viewBox="0 0 128 128" fill="none" xmlns="http://www.w3.org/2000/svg">
<path d="M28.7486 25.0374C36.4184 19.0264 47.0226 16.6421 56.6978 18.7577C64.5224 20.3896 71.6292 24.8494 76.3438 31.0282C78.9756 30.3432 81.6776 29.9 84.4148 29.826C82.9722 33.0564 80.017 35.4342 78.8066 38.772L78.687 39.081C77.0616 39.5378 75.408 40.4108 73.677 40.0214C71.939 39.7258 71.151 38.1004 70.229 36.8646C66.2182 30.8806 59.252 26.8104 51.8214 26.206C41.5482 25.1516 31.0778 31.0886 27.0248 40.1422C25.2234 43.7824 24.787 47.8458 24.8292 51.8286C24.8222 53.9642 22.5986 54.985 20.8958 55.8246C15.6184 58.491 12.2901 64.193 12.5294 69.8682C12.5294 76.336 17.2931 82.4478 23.7386 84.3956C25.7722 85.1072 27.9606 85.0736 30.0786 85.423C33.0058 86.0476 34.1668 89.9564 32.0488 91.9916C30.8738 93.4422 28.8048 93.3348 27.095 93.2272C17.7927 92.7236 9.20108 86.652 5.81652 78.3912C1.10203 67.7928 5.8939 54.515 16.3784 48.8464C16.6669 39.6988 21.2266 30.7528 28.7486 25.0374Z" fill="url(#paint0_linear_673_67)"/>
<path d="M84.4148 29.826C96.1236 29.6514 107.227 37.4962 110.471 48.2284C115.199 50.68 119.252 54.4208 121.553 59.1088C125.079 66.0534 124.79 74.6166 120.716 81.2926C116.67 88.2572 108.698 92.9452 100.359 93.2676C98.5366 93.516 96.503 92.9788 95.5392 91.387C93.773 88.9692 95.8206 85.1812 98.9448 85.2552C104.553 85.2284 110.091 82.4544 113.011 77.8472C116.205 73.1794 116.367 66.866 113.567 61.9968C111.843 58.8132 108.852 56.429 105.468 54.9784C102.252 53.8098 102.709 50.0218 101.14 47.6374C97.249 39.9744 87.2506 36.1058 78.8066 38.772C80.017 35.4342 82.9722 33.0564 84.4148 29.826Z" fill="url(#paint1_linear_673_67)"/>
<path d="M84.4148 29.826C81.6776 29.9 78.9756 30.3432 76.3438 31.0282C71.6292 24.8494 64.5224 20.3896 56.6978 18.7577C47.0226 16.6421 36.4184 19.0264 28.7486 25.0374C21.2266 30.7528 16.6669 39.6988 16.3784 48.8464C5.8939 54.515 1.10203 67.7928 5.81652 78.3912C9.20108 86.652 17.7927 92.7236 27.095 93.2272C28.8048 93.3348 30.8738 93.4422 32.0488 91.9916C34.1668 89.9564 33.0058 86.0476 30.0786 85.423C27.9606 85.0736 25.7722 85.1072 23.7386 84.3956C17.2931 82.4478 12.5294 76.336 12.5294 69.8682C12.2901 64.193 15.6184 58.491 20.8958 55.8246C22.5986 54.985 24.8222 53.9642 24.8292 51.8286C24.787 47.8458 25.2234 43.7824 27.0248 40.1422C31.0778 31.0886 41.5482 25.1516 51.8214 26.206C59.252 26.8104 66.2182 30.8806 70.229 36.8646C71.151 38.1004 71.939 39.7258 73.677 40.0214C75.408 40.4108 77.0616 39.5378 78.687 39.081L78.8066 38.772M84.4148 29.826C82.9722 33.0564 80.017 35.4342 78.8066 38.772M84.4148 29.826C96.1236 29.6514 107.227 37.4962 110.471 48.2284C115.199 50.68 119.252 54.4208 121.553 59.1088C125.079 66.0534 124.79 74.6166 120.716 81.2926C116.67 88.2572 108.698 92.9452 100.359 93.2676C98.5366 93.516 96.503 92.9788 95.5392 91.387C93.773 88.9692 95.8206 85.1812 98.9448 85.2552C104.553 85.2284 110.091 82.4544 113.011 77.8472C116.205 73.1794 116.367 66.866 113.567 61.9968C111.843 58.8132 108.852 56.429 105.468 54.9784C102.252 53.8098 102.709 50.0218 101.14 47.6374C97.249 39.9744 87.2506 36.1058 78.8066 38.772" stroke="url(#paint2_linear_673_67)" stroke-width="4"/>
<path d="M52.4676 74.4821C55.1696 73.0207 58.975 75.0767 59.0124 78.0355C59.23 79.5613 58.2844 80.8508 57.3912 82.0114C51.0114 90.2928 44.6994 98.6316 38.3646 106.956C37.0662 108.976 33.9662 109.714 31.9396 108.239C29.7406 106.92 29.388 103.797 31.0016 101.92C37.3964 93.488 43.8438 85.0991 50.2236 76.6527C50.8766 75.8505 51.5294 75.0051 52.4676 74.4821Z" fill="url(#paint3_linear_673_67)" stroke="url(#paint4_linear_673_67)" stroke-width="2"/>
<path d="M70.4932 74.4462C72.7148 73.343 75.6346 74.4748 76.5502 76.667C77.4134 78.3148 76.7228 80.2132 75.567 81.5528C69.007 90.0922 62.5372 98.6962 55.9698 107.228C54.6188 109.041 51.7742 109.6 49.8602 108.26C47.676 106.949 47.1808 103.833 48.832 101.949C55.2642 93.4808 61.7342 85.0346 68.159 76.5596C68.812 75.75 69.48 74.8688 70.4932 74.4462Z" fill="url(#paint5_linear_673_67)" stroke="url(#paint6_linear_673_67)" stroke-width="2"/>
<path d="M87.8589 74.6323C90.5611 72.9561 94.5915 74.8831 94.7267 77.9637C95.0269 79.6615 93.7886 81.0155 92.8504 82.3049C86.5006 90.5649 80.2333 98.8823 73.8911 107.142C72.8177 108.633 70.7312 109.478 68.8998 108.812C66.0778 108.102 64.6668 104.513 66.453 102.257C72.6302 94.0395 78.9349 85.9085 85.1195 77.6913C85.9601 76.6239 86.7181 75.4419 87.8589 74.6323Z" fill="url(#paint7_linear_673_67)" stroke="url(#paint8_linear_673_67)" stroke-width="2"/>
<defs>
<linearGradient id="paint0_linear_673_67" x1="63.9998" y1="93.3256" x2="63.9998" y2="18" gradientUnits="userSpaceOnUse">
<stop stop-color="#5570FF"/>
<stop offset="1" stop-color="#4DD3FF"/>
</linearGradient>
<linearGradient id="paint1_linear_673_67" x1="63.9998" y1="93.3256" x2="63.9998" y2="18" gradientUnits="userSpaceOnUse">
<stop stop-color="#5570FF"/>
<stop offset="1" stop-color="#4DD3FF"/>
</linearGradient>
<linearGradient id="paint2_linear_673_67" x1="63.9998" y1="93.3256" x2="63.9998" y2="18" gradientUnits="userSpaceOnUse">
<stop stop-color="#5570FF"/>
<stop offset="1" stop-color="#4DD3FF"/>
</linearGradient>
<linearGradient id="paint3_linear_673_67" x1="44.522" y1="74.0001" x2="44.522" y2="109.015" gradientUnits="userSpaceOnUse">
<stop stop-color="#FC1878"/>
<stop offset="1" stop-color="#FF1E1E"/>
</linearGradient>
<linearGradient id="paint4_linear_673_67" x1="44.522" y1="74.0001" x2="44.522" y2="109.015" gradientUnits="userSpaceOnUse">
<stop stop-color="#FC1878"/>
<stop offset="1" stop-color="#FF1E1E"/>
</linearGradient>
<linearGradient id="paint5_linear_673_67" x1="62.3944" y1="109" x2="62.3944" y2="74.0182" gradientUnits="userSpaceOnUse">
<stop stop-color="#FD5900"/>
<stop offset="1" stop-color="#FFDE00"/>
</linearGradient>
<linearGradient id="paint6_linear_673_67" x1="62.3944" y1="109" x2="62.3944" y2="74.0182" gradientUnits="userSpaceOnUse">
<stop stop-color="#FD5900"/>
<stop offset="1" stop-color="#FFDE00"/>
</linearGradient>
<linearGradient id="paint7_linear_673_67" x1="80.2163" y1="74.0121" x2="80.2163" y2="109.042" gradientUnits="userSpaceOnUse">
<stop stop-color="#97EB0E"/>
<stop offset="1" stop-color="#19B90B"/>
</linearGradient>
<linearGradient id="paint8_linear_673_67" x1="80.2163" y1="74.0121" x2="80.2163" y2="109.042" gradientUnits="userSpaceOnUse">
<stop stop-color="#97EB0E"/>
<stop offset="1" stop-color="#19B90B"/>
</linearGradient>
</defs>
</svg>
