<svg width="63" height="63" viewBox="0 0 63 63" fill="none" xmlns="http://www.w3.org/2000/svg">
<path d="M54.9755 47.0039C51.1994 52.425 45.6279 56.3363 39.2463 58.0461C32.8647 59.7559 26.0841 59.154 20.1034 56.347C14.1227 53.54 9.32725 48.7086 6.56493 42.7071C3.80261 36.7056 3.2514 29.9207 5.00876 23.5521C6.76613 17.1834 10.7189 11.6413 16.168 7.90571C21.6172 4.17011 28.2117 2.48168 34.7856 3.13896C41.3595 3.79624 47.4893 6.7569 52.0909 11.4974C56.6926 16.2379 59.4698 22.4529 59.9315 29.0434C60.5848 38.355 44.2702 36.5505 38.4244 33.6665C42.7551 28.6887 39.6751 21.1039 31.3497 21.6856C25.9209 22.0652 22.2435 25.2852 22.6884 31.6474C23.5595 44.0607 36.5142 50.9518 54.9195 46.5496M4.06845 32.9511C3.18801 20.3729 31.188 10.464 39.0622 24.5884M33.9537 58.9288C24.6422 59.5821 17.8942 44.2288 22.8564 28.6017" stroke="url(#paint0_linear)" stroke-width="6" stroke-linecap="round" stroke-linejoin="round"/>
<defs>
<linearGradient id="paint0_linear" x1="12.1938" y1="50.799" x2="51.7917" y2="11.236" gradientUnits="userSpaceOnUse">
<stop stop-color="#0072FF"/>
<stop offset="1" stop-color="#00E5A1"/>
</linearGradient>
</defs>
</svg>
