<svg width="128" height="128" viewBox="0 0 128 128" fill="none" xmlns="http://www.w3.org/2000/svg">
<path d="M113.355 107.724C112.919 108.419 112.452 109.091 111.95 109.735C111.795 109.935 111.623 110.118 111.462 110.312C111.183 110.648 110.915 110.99 110.619 111.31H110.589C109.217 112.793 108.482 113.795 105.968 115.214C103.454 116.634 22.0318 115.214 22.0318 115.214C20.3198 114.118 18.7831 112.793 17.4106 111.31H17.381C17.0846 110.99 16.817 110.648 16.5381 110.312C16.3774 110.118 16.2048 109.935 16.0501 109.735C15.5481 109.091 15.0806 108.419 14.6452 107.724C14.6275 107.696 14.6112 107.672 14.5935 107.643C12.3237 103.988 11 99.6832 11 95.0436V36.9564C11 23.6792 21.6793 13 34.9564 13H93.0436C106.321 13 117 23.6792 117 36.9564V95.0436C117 99.6832 115.625 104.069 113.355 107.724ZM113.355 107.724C113.373 107.696 113.396 107.671 113.414 107.643L113.355 107.724Z" stroke="url(#paint0_linear_625_119)" stroke-width="12"/>
<path d="M51.0156 48.2063C51.8706 48.6572 51.9952 49.8363 51.3105 50.5186C49.3438 52.4789 47.7382 54.8069 46.6107 57.3968C46.0664 58.6473 45.0252 59.6206 43.7662 60.1448C43.2758 60.349 42.7966 60.5773 42.3301 60.829C36.635 63.5899 32.4719 69.246 32.4719 76.1479C32.4719 77.0531 32.5514 77.9303 32.694 78.7777C32.7268 78.9725 32.5844 79.1551 32.3869 79.156C31.4175 79.1558 30.4579 78.9648 29.5622 78.594C28.6653 78.2227 27.8505 77.6783 27.1641 76.9919C26.4778 76.3056 25.9334 75.4907 25.562 74.5939C25.1908 73.6974 24.9998 72.7366 25 71.7665C25.0023 69.9507 25.6729 68.199 26.8843 66.8464C28.0958 65.4934 29.7634 64.6338 31.5682 64.4322C33.2382 64.2456 34.3817 62.6574 34.0289 61.0145C33.8591 60.2235 33.7713 59.4169 33.767 58.6077C33.77 55.4887 35.0109 52.4982 37.2174 50.293C39.4251 48.0867 42.4186 46.8472 45.54 46.8474C47.4483 46.8499 49.3274 47.3163 51.0156 48.2063ZM54.2621 48.0433C54.2104 48.0795 54.146 48.0134 54.184 47.9632L54.6041 47.4079C56.108 45.4202 58.0514 43.8075 60.2823 42.6958C62.5121 41.5847 64.9686 41.0044 67.46 41C71.1121 41.0045 74.6548 42.2464 77.5105 44.523C79.2433 45.9045 80.6613 47.6173 81.6912 49.5461C81.8299 49.8059 81.6627 50.1217 81.375 50.1843C81.2309 50.2157 81.0853 50.1747 80.9768 50.0748C77.1571 46.5588 72.2488 44.0944 66.5978 44.0884H66.5948C66.4863 44.0884 66.39 44.0937 66.3105 44.1005L66.3052 44.1001C66.2279 44.0943 66.1255 44.0884 66.007 44.0884H65.9999H65.9953C61.5268 44.0884 57.5146 45.6167 54.2621 48.0433Z" stroke="url(#paint1_linear_625_119)" stroke-width="8"/>
<path d="M48.8137 66.0572C48.8132 66.0451 48.8126 66.0329 48.8122 66.0208L48.8137 66.0572ZM58.0117 57.6205C60.2767 55.4059 63.3619 54.1505 66.5918 54.1501C68.6781 54.1526 70.7254 54.6794 72.5369 55.6762C73.9429 56.4498 75.1686 57.4854 76.1479 58.7155C77.5011 60.4153 79.7601 61.0468 81.7606 60.421C82.6523 60.142 83.5861 59.9974 84.5293 59.9947C85.7339 59.9951 86.9253 60.2274 88.0349 60.6769C89.1454 61.1266 90.1503 61.7842 90.9942 62.6091C91.8376 63.434 92.5033 64.4096 92.9561 65.4789C93.2224 66.1075 93.4125 66.7617 93.5238 67.4282C93.8995 69.6771 95.6746 71.3774 97.7776 71.8183C98.9349 72.0609 99.9981 72.6237 100.836 73.4425C101.978 74.5593 102.607 76.0603 102.607 77.6115C102.607 79.1627 101.978 80.6638 100.836 81.7806C99.6913 82.8994 98.1259 83.5392 96.4806 83.5392H50.1554C48.1138 83.5392 46.1683 82.7455 44.7437 81.3526C43.3212 79.9617 42.5342 78.0891 42.5342 76.1504C42.5342 74.2116 43.3212 72.339 44.7435 70.9483C46.1651 69.5584 48.1052 68.7651 50.142 68.7617C50.4781 68.7653 50.8135 68.7906 51.1461 68.8372C53.0127 69.0988 54.4493 67.6246 54.4881 65.9907C54.5726 62.9816 55.8033 59.7797 58.0117 57.6205Z" stroke="url(#paint2_linear_625_119)" stroke-width="8"/>
<defs>
<linearGradient id="paint0_linear_625_119" x1="30.2125" y1="103.704" x2="123.293" y2="19.9978" gradientUnits="userSpaceOnUse">
<stop stop-color="#FE0844"/>
<stop offset="1" stop-color="#FEB302"/>
</linearGradient>
<linearGradient id="paint1_linear_625_119" x1="54.0567" y1="81.9953" x2="54.0567" y2="38.1607" gradientUnits="userSpaceOnUse">
<stop stop-color="#0028FF"/>
<stop offset="1" stop-color="#4DD3FF"/>
</linearGradient>
<linearGradient id="paint2_linear_625_119" x1="72.5708" y1="86.3785" x2="72.5708" y2="51.3109" gradientUnits="userSpaceOnUse">
<stop stop-color="#0028FF"/>
<stop offset="1" stop-color="#4DD3FF"/>
</linearGradient>
</defs>
</svg>
