<svg width="128" height="128" viewBox="0 0 128 128" fill="none" xmlns="http://www.w3.org/2000/svg">
<path d="M75.956 81.4261C69.2357 74.862 58.7643 74.862 52.044 81.4261C45.4799 87.9902 45.4799 98.6178 52.044 105.338C58.7643 111.902 69.2357 111.902 75.956 105.338C82.5201 98.6178 82.5201 87.9902 75.956 81.4261ZM40.6349 70.0171C36.6961 73.9559 34.0234 78.5279 32.503 83.505C32.2778 84.2419 31.3466 84.5052 30.7935 83.9687L22.0542 75.4902C21.7604 75.2052 21.6689 74.7695 21.8312 74.3939C24.0158 69.3362 27.2101 64.8498 31.4139 60.7961C49.3871 42.6667 78.6129 42.6667 96.5861 60.7961C100.64 64.8499 103.972 69.3364 106.168 74.3941C106.331 74.7695 106.24 75.2052 105.946 75.4902L97.2065 83.9687C96.6534 84.5052 95.7222 84.2419 95.497 83.505C93.9766 78.5279 91.3039 73.9559 87.3651 70.0171C74.3932 57.0452 53.4506 57.0452 40.6349 70.0171ZM19.8486 49.2308C16.1111 53.1121 12.7702 57.2578 10.1908 61.6679C9.85425 62.2434 9.06217 62.3564 8.59077 61.885L0.565967 53.8602C0.235119 53.5294 0.177217 53.013 0.432261 52.6207C3.31592 48.1855 6.75931 44.0268 10.6276 40.0098C40.0098 10.6276 88.1465 10.6276 117.529 40.0098C121.397 44.0267 124.698 48.1852 127.568 52.6202C127.823 53.013 127.765 53.5294 127.434 53.8602L119.409 61.885C118.938 62.3564 118.146 62.2434 117.809 61.6679C115.23 57.2578 111.889 53.1121 108.151 49.2308C83.7705 24.8498 44.2295 24.8498 19.8486 49.2308Z" fill="url(#paint0_linear)"/>
<defs>
<linearGradient id="paint0_linear" x1="64" y1="110.261" x2="64" y2="17.9731" gradientUnits="userSpaceOnUse">
<stop stop-color="#5558FF"/>
<stop offset="1" stop-color="#00C0FF"/>
</linearGradient>
</defs>
</svg>
