<svg width="128" height="128" viewBox="0 0 128 128" fill="none" xmlns="http://www.w3.org/2000/svg">
<path d="M77.0538 6.0941V6H76.1615H9.23846C6.89767 6 5 7.89769 5 10.2385V43.7C5 63.0565 19.6612 79.047 38.4615 81.1603V113.523H22.6231C20.2823 113.523 18.3846 115.421 18.3846 117.762C18.3846 120.102 20.2823 122 22.6231 122H62.7769C65.1177 122 67.0154 120.102 67.0154 117.762C67.0154 115.421 65.1177 113.523 62.7769 113.523H46.9385V81.1603C65.7389 79.047 80.4 63.0565 80.4 43.7V10.2385C80.4 8.20379 78.9661 6.50389 77.0538 6.0941ZM45.7551 14.4769H71.9231V43.7C71.9231 59.8128 58.8128 72.9231 42.7 72.9231C26.5872 72.9231 13.4769 59.8128 13.4769 43.7V14.4769H36.8193L31.9866 28.975L31.9865 28.9751C31.556 30.2676 31.7726 31.6884 32.5692 32.7935C33.3657 33.8985 34.645 34.5538 36.0077 34.5538H43.5116L38.6789 49.0518V49.0519C37.9386 51.2726 39.139 53.6729 41.3595 54.4132H41.3597C43.5807 55.1532 45.9806 53.9532 46.7209 51.7326L53.4132 31.6556V31.6555C53.8439 30.3629 53.6272 28.9422 52.8306 27.837C52.0341 26.732 50.7549 26.0769 49.3923 26.0769H41.8884L45.7551 14.4769Z" fill="url(#paint0_linear)" stroke="url(#paint1_linear)" stroke-width="2"/>
<path d="M86.4909 64L85.8517 71.638C83.4299 72.5351 81.1782 73.8374 79.1929 75.4893L72.2509 72.2205L65.0014 84.7775L71.3041 89.1547C71.0796 90.4236 70.9632 91.7092 70.9561 92.9978C70.9569 94.2913 71.0678 95.5825 71.2876 96.8572L65 101.221L72.2494 113.778L79.175 110.518C81.1669 112.162 83.424 113.457 85.8498 114.345L86.4877 122H100.987L101.626 114.362C104.048 113.465 106.299 112.163 108.285 110.511L115.227 113.779L122.476 101.223L116.173 96.8453C116.399 95.5769 116.517 94.2915 116.526 93.0031C116.525 91.7088 116.413 90.417 116.193 89.1416L122.479 84.7806L115.23 72.2237L108.304 75.4843C106.312 73.841 104.055 72.5483 101.63 71.6615L100.987 64.0061H86.4885L86.4909 64ZM93.7403 84.7125C94.8285 84.7121 95.9061 84.926 96.9116 85.3421C97.9171 85.7582 98.8308 86.3682 99.6004 87.1375C100.37 87.9067 100.981 88.82 101.397 89.8253C101.814 90.8305 102.029 91.908 102.029 92.9962C102.029 94.0844 101.814 95.1618 101.397 96.1671C100.981 97.1723 100.37 98.0857 99.6004 98.8549C98.8308 99.6241 97.9171 100.234 96.9116 100.65C95.9061 101.066 94.8285 101.28 93.7403 101.28C91.5435 101.279 89.4367 100.407 87.8833 98.8532C86.3299 97.2998 85.457 95.193 85.4567 92.9962C85.457 90.7993 86.3299 88.6926 87.8833 87.1392C89.4367 85.5858 91.5435 84.7129 93.7403 84.7125V84.7125Z" fill="url(#paint2_linear)"/>
<defs>
<linearGradient id="paint0_linear" x1="42.7" y1="122" x2="42.7" y2="6" gradientUnits="userSpaceOnUse">
<stop stop-color="#FD3A84"/>
<stop offset="1" stop-color="#FFA68D"/>
</linearGradient>
<linearGradient id="paint1_linear" x1="42.7" y1="122" x2="42.7" y2="6" gradientUnits="userSpaceOnUse">
<stop stop-color="#FD3A84"/>
<stop offset="1" stop-color="#FFA68D"/>
</linearGradient>
<linearGradient id="paint2_linear" x1="65" y1="122" x2="134.555" y2="91.9562" gradientUnits="userSpaceOnUse">
<stop stop-color="#0357D1"/>
<stop offset="1" stop-color="#27CDFC"/>
</linearGradient>
</defs>
</svg>
