<svg width="128" height="128" viewBox="0 0 128 128" fill="none" xmlns="http://www.w3.org/2000/svg">
<path d="M4.18183 15.5813C6.19481 11.0732 10.7898 8.50244 15.215 8.57804C25.1015 8.60637 34.988 8.54961 44.8746 8.59688C46.9385 8.5118 48.7646 9.85386 50.1406 11.4512C53.4871 15.3734 56.7231 19.4091 60.163 23.2368C78.3308 23.1328 96.507 23.1517 114.675 23.2273C120.365 23.3029 124.893 29.0964 124.978 35.2586C125.003 58.2627 124.952 81.2574 124.994 104.262C125.096 108.76 123.788 113.647 120.527 116.539C118.794 118.069 116.62 118.732 114.624 119.733C79.2226 119.847 43.8044 119.828 8.39464 119.828C5.30298 120.281 1.85459 117.379 2.01597 113.769C2.02446 98.3261 1.95651 71.8829 2.04994 56.4397C2.03295 52.8861 2.94176 49.3986 4.30074 46.2136C6.45811 41.384 11.206 38.1896 16.0474 38.2274C40.3815 38.2274 2.7241 38.2179 27.0582 38.2369C30.5235 37.7737 33.8785 42.3103 32.1203 45.8828C31.3219 48.1133 29.1391 49.2286 27.0921 49.2286C2.7665 49.2852 40.4324 49.1813 16.1068 49.2758C13.0661 49.134 12.0809 52.9429 12.0384 55.6837C11.911 69.5958 12.1488 94.5174 11.9195 108.43C45.5201 108.439 79.1207 108.581 112.713 108.505C113.842 108.618 115.15 107.569 114.87 106.171C114.853 82.1741 115.015 58.1682 114.785 34.1717C95.9974 34.0961 77.2096 34.1906 58.4303 34.1339C56.0436 34.2378 54.1496 32.3476 52.6547 30.5046C49.6989 26.8659 46.6412 23.3218 43.6685 19.6924C34.436 19.6831 25.1949 19.7209 15.9624 19.6736C14.9262 19.7302 13.7031 19.5224 12.9132 20.4675C11.0956 24.7205 13.9579 30.4574 10.4756 34.0299C7.64721 36.7613 2.8993 34.6916 2.34722 30.5708C2.11789 25.5428 2.03295 20.1746 4.18183 15.5813Z" fill="url(#paint0_linear)"/>
<path d="M83.375 40.0527V40H82.875H45.375C44.0633 40 43 41.0634 43 42.375V61.125C43 71.9713 51.2153 80.9315 61.75 82.1157V100.25H52.875C51.5633 100.25 50.5 101.314 50.5 102.625C50.5 103.936 51.5633 105 52.875 105H75.375C76.6867 105 77.75 103.936 77.75 102.625C77.75 101.314 76.6867 100.25 75.375 100.25H66.5V82.1157C77.0347 80.9315 85.25 71.9713 85.25 61.125V42.375C85.25 41.2349 84.4465 40.2824 83.375 40.0527ZM65.8369 44.75H80.5V61.125C80.5 70.1538 73.1538 77.5 64.125 77.5C55.0962 77.5 47.75 70.1538 47.75 61.125V44.75H60.8298L58.1218 52.8739L58.1217 52.874C57.8805 53.5982 58.0019 54.3944 58.4482 55.0136C58.8945 55.6328 59.6115 56 60.375 56H64.5798L61.8718 64.1238V64.1239C61.4569 65.3682 62.1296 66.7132 63.3738 67.1281H63.3739C64.6185 67.5427 65.9633 66.8703 66.3781 65.626L70.1281 54.376V54.3759C70.3694 53.6517 70.248 52.8555 69.8016 52.2362C69.3553 51.617 68.6385 51.25 67.875 51.25H63.6702L65.8369 44.75Z" fill="url(#paint1_linear)" stroke="url(#paint2_linear)" stroke-width="2"/>
<defs>
<linearGradient id="paint0_linear" x1="63.4998" y1="119.875" x2="63.4998" y2="8.57642" gradientUnits="userSpaceOnUse">
<stop stop-color="#FD3A84"/>
<stop offset="1" stop-color="#FFA68D"/>
</linearGradient>
<linearGradient id="paint1_linear" x1="64.125" y1="105" x2="64.125" y2="40" gradientUnits="userSpaceOnUse">
<stop stop-color="#FD3A84"/>
<stop offset="1" stop-color="#FFA68D"/>
</linearGradient>
<linearGradient id="paint2_linear" x1="64.125" y1="105" x2="64.125" y2="40" gradientUnits="userSpaceOnUse">
<stop stop-color="#FD3A84"/>
<stop offset="1" stop-color="#FFA68D"/>
</linearGradient>
</defs>
</svg>
