<svg width="128" height="128" viewBox="0 0 128 128" fill="none" xmlns="http://www.w3.org/2000/svg">
<path d="M16.2328 83.4803L16.2297 83.4649L16.2261 83.4497C15.5143 80.4272 15.54 77.3448 15.5667 74.1376C15.5738 73.2885 15.5809 72.4307 15.5745 71.5629C15.5683 64.19 15.571 56.815 15.5738 49.4399C15.5777 38.9107 15.5816 28.3811 15.5595 17.8571C15.6962 15.3005 13.9744 12.7328 11.4719 12.1783C9.77253 11.7018 8.07908 12.2812 6.8796 13.3486C5.68071 14.4155 4.88462 16.0439 5.01359 17.8273C4.99749 31.9572 5.00056 46.0874 5.00364 60.2168C5.00487 65.8733 5.0061 71.5296 5.0061 77.1858C4.99848 85.7555 7.68192 94.304 12.5843 101.14C18.6453 109.723 28.1572 115.543 38.294 116.496C47.2683 117.481 56.4441 114.709 63.6995 109.104C74.7039 117.851 90.4247 119.204 102.558 112.228C114.341 105.702 122.212 92.1143 122.351 78.0377V78.0282C122.359 57.9705 122.359 37.9208 122.351 17.8711C122.569 15.1033 120.511 12.343 117.759 12.0692C116.101 11.7727 114.536 12.4527 113.449 13.543C112.362 14.6342 111.666 16.2161 111.791 17.8917C111.763 28.2169 111.768 38.5672 111.773 48.9156C111.778 58.6258 111.782 68.3343 111.761 78.019C111.575 89.1899 104.597 99.7944 94.8301 103.704L94.8229 103.706L94.8157 103.709C87.2019 106.896 78.1523 105.899 71.3405 101.07C76.1083 94.2002 78.7696 85.7475 78.7258 77.2007C78.7484 60.9079 78.7484 44.6151 78.7334 28.3226C78.826 23.0091 76.269 17.7395 72.052 14.7876C67.2846 11.3175 60.6251 11.196 55.7496 14.4868C51.2785 17.3811 48.5315 22.8316 48.6242 28.3308C48.6167 44.5906 48.6092 60.8514 48.6318 77.1125C48.5952 85.6796 51.2228 94.2207 56.0561 101.095C49.4669 105.635 40.9478 106.849 33.5357 104.103L33.5357 104.103L33.5225 104.098C24.9481 101.058 18.1504 92.9418 16.2328 83.4803ZM59.2529 28.2838L59.2529 28.2523L59.251 28.2209C59.0803 25.4502 61.5147 23.0307 63.933 23.2736L63.9605 23.2764L63.9881 23.2776C66.2211 23.3779 68.239 25.6836 68.106 28.2221L68.1047 28.2487L68.1047 28.2753C68.1197 44.8592 68.1273 61.4426 68.1122 78.0258C68.0919 83.3354 66.4181 88.5356 63.7309 93.0358C60.5345 88.3131 59.0948 82.268 59.23 76.3836L59.2303 76.3728L59.2303 76.362C59.2416 68.3495 59.2416 60.3371 59.2416 52.3245C59.2416 44.3117 59.2416 36.2987 59.2529 28.2838Z" fill="url(#paint0_linear)" stroke="url(#paint1_linear)" stroke-width="2"/>
<defs>
<linearGradient id="paint0_linear" x1="63.6838" y1="115.692" x2="63.6838" y2="13" gradientUnits="userSpaceOnUse">
<stop stop-color="#A93AFF"/>
<stop offset="1" stop-color="#FF81FF"/>
</linearGradient>
<linearGradient id="paint1_linear" x1="63.6838" y1="115.692" x2="63.6838" y2="13" gradientUnits="userSpaceOnUse">
<stop stop-color="#A93AFF"/>
<stop offset="1" stop-color="#FF81FF"/>
</linearGradient>
</defs>
</svg>
