<svg width="48" height="48" viewBox="0 0 48 48" fill="none" xmlns="http://www.w3.org/2000/svg">
<path d="M42 4H6C4.89543 4 4 4.89543 4 6V42C4 43.1046 4.89543 44 6 44H42C43.1046 44 44 43.1046 44 42V6C44 4.89543 43.1046 4 42 4Z" stroke="url(#paint0_linear)" stroke-width="4" stroke-linecap="round" stroke-linejoin="round"/>
<path d="M30 10L27 22L26 16L18 18L16 24L14 14L8 16L12 35L19 36L21 31L22.5 36.5L32 38L40 12L30 10Z" fill="url(#paint1_linear)"/>
<defs>
<linearGradient id="paint0_linear" x1="14.8738" y1="19.8497" x2="42.3131" y2="16.1884" gradientUnits="userSpaceOnUse">
<stop stop-color="#0357D1"/>
<stop offset="1" stop-color="#27CDFC"/>
</linearGradient>
<linearGradient id="paint1_linear" x1="8" y1="38" x2="44.8131" y2="19.6626" gradientUnits="userSpaceOnUse">
<stop stop-color="#0357D1"/>
<stop offset="1" stop-color="#27CDFC"/>
</linearGradient>
</defs>
</svg>
