<svg width="256" height="256" viewBox="0 0 256 256" fill="none" xmlns="http://www.w3.org/2000/svg">
<path d="M229.562 91.0818C233.687 102.439 235.957 114.687 236 127.476V127.85C236 140.775 233.727 153.152 229.561 164.619C226.664 172.593 222.852 180.135 218.239 187.116L218.232 187.128C216.304 190.057 214.227 192.892 212.018 195.62C204.953 204.346 196.552 211.95 187.116 218.124L187.114 218.125C183.637 220.403 180.029 222.481 176.298 224.342L176.288 224.347C161.776 231.61 145.381 235.704 128 235.704C110.618 235.704 94.2236 231.61 79.7114 224.347L79.702 224.342C75.9685 222.479 72.3556 220.401 68.8812 218.125C59.3232 211.866 50.8207 204.141 43.6983 195.271L43.6935 195.265C41.4881 192.524 39.4163 189.665 37.4834 186.702L37.4785 186.695C32.9911 179.832 29.2753 172.43 26.4347 164.608L26.4343 164.606C22.2701 153.145 20 140.774 20 127.852C20 68.427 68.2138 20 128 20C157.991 20 185.089 32.1957 204.651 51.8714L204.652 51.8725C210.287 57.5389 215.293 63.8273 219.55 70.6184L219.558 70.631C223.582 77.026 226.945 83.876 229.561 91.0802L229.562 91.0818Z" stroke="url(#paint0_linear_625_116)" stroke-width="28"/>
<path fill-rule="evenodd" clip-rule="evenodd" d="M93.8184 185.154C93.8184 187.762 92.7254 190.274 90.7997 192.095C88.8219 193.966 86.1676 195 83.4092 195C80.6507 195 77.9964 193.966 76.0707 192.095C74.145 190.274 73 187.762 73 185.154V121.154H156.221C157.314 121.105 158.459 121.006 159.552 120.809C162.363 120.465 165.121 119.676 167.671 118.593C170.274 117.51 172.564 115.837 174.281 113.72C175.114 112.588 175.791 111.308 176.207 109.978C176.832 108.009 177.144 105.941 177.092 103.923C177.144 101.855 176.832 99.7877 176.207 97.8184C175.791 96.4891 175.114 95.2091 174.281 94.0769C172.564 91.96 170.274 90.2861 167.671 89.203C165.121 88.1199 162.363 87.3323 159.552 86.9877C158.459 86.7908 157.314 86.6922 156.221 86.6922H83.4092C80.6507 86.6922 77.9964 85.6584 76.0707 83.7877C74.145 81.9661 73 79.4554 73 76.8462C73 74.2369 74.145 71.7261 76.0707 69.8554C77.9964 68.0338 80.6507 67 83.4092 67H156.273C156.325 67 156.43 67 156.482 67C158.563 67 160.697 67.1969 162.779 67.5415C167.411 68.1815 171.887 69.4123 176.155 71.2338C182.036 73.6462 187.137 77.5354 191.04 82.4092C193.278 85.3631 194.996 88.6122 196.141 92.1077C197.338 95.9476 197.962 99.8861 197.91 103.923C197.962 107.911 197.338 111.898 196.141 115.689C194.996 119.185 193.278 122.483 191.04 125.388C187.137 130.261 182.036 134.15 176.155 136.612C171.887 138.385 167.411 139.615 162.779 140.304C160.697 140.6 158.563 140.797 156.482 140.846C156.43 140.846 156.325 140.846 156.273 140.846H93.8184V185.154Z" fill="url(#paint1_linear_625_116)" stroke="url(#paint2_linear_625_116)" stroke-width="8"/>
<defs>
<linearGradient id="paint0_linear_625_116" x1="59.15" y1="210.239" x2="253.699" y2="40.2574" gradientUnits="userSpaceOnUse">
<stop stop-color="#FE0844"/>
<stop offset="1" stop-color="#FEB302"/>
</linearGradient>
<linearGradient id="paint1_linear_625_116" x1="95.6405" y1="179.889" x2="210.651" y2="81.96" gradientUnits="userSpaceOnUse">
<stop stop-color="#FE0844"/>
<stop offset="1" stop-color="#FEB302"/>
</linearGradient>
<linearGradient id="paint2_linear_625_116" x1="95.6405" y1="179.889" x2="210.651" y2="81.96" gradientUnits="userSpaceOnUse">
<stop stop-color="#FE0844"/>
<stop offset="1" stop-color="#FEB302"/>
</linearGradient>
</defs>
</svg>
