<svg width="128" height="128" viewBox="0 0 128 128" fill="none" xmlns="http://www.w3.org/2000/svg">
<path d="M71.5 60.25H56.5C54.429 60.25 52.75 61.929 52.75 64V94C52.75 96.071 54.429 97.75 56.5 97.75H71.5C73.571 97.75 75.25 96.071 75.25 94V64C75.25 61.929 73.571 60.25 71.5 60.25ZM67.75 90.25H60.25V67.75H67.75V90.25ZM64 0C28.7622 0 0 28.7603 0 64C0 99.2378 28.7603 128 64 128C99.2378 128 128 99.2397 128 64C128 28.7622 99.2397 0 64 0ZM64 120.5C32.8458 120.5 7.5 95.1542 7.5 64C7.5 32.8458 32.8458 7.5 64 7.5C95.1542 7.5 120.5 32.8458 120.5 64C120.5 95.1542 95.1542 120.5 64 120.5ZM64 15.25C37.1192 15.25 15.25 37.1192 15.25 64C15.25 90.8808 37.1192 112.75 64 112.75C90.8808 112.75 112.75 90.8808 112.75 64C112.75 37.1192 90.8808 15.25 64 15.25ZM64 105.25C41.2547 105.25 22.75 86.7453 22.75 64C22.75 41.2547 41.2547 22.75 64 22.75C86.7453 22.75 105.25 41.2547 105.25 64C105.25 86.7453 86.7453 105.25 64 105.25ZM64 30.25C57.7968 30.25 52.75 35.2968 52.75 41.5C52.75 47.7032 57.7968 52.75 64 52.75C70.2032 52.75 75.25 47.7032 75.25 41.5C75.25 35.2968 70.2032 30.25 64 30.25ZM64 45.25C61.9323 45.25 60.25 43.5677 60.25 41.5C60.25 39.4323 61.9323 37.75 64 37.75C66.0677 37.75 67.75 39.4323 67.75 41.5C67.75 43.5677 66.0677 45.25 64 45.25Z" fill="url(#paint0_linear)"/>
<defs>
<linearGradient id="paint0_linear" x1="64" y1="128" x2="64" y2="0" gradientUnits="userSpaceOnUse">
<stop stop-color="#A93AFF"/>
<stop offset="1" stop-color="#FF81FF"/>
</linearGradient>
</defs>
</svg>
