<svg width="48" height="48" viewBox="0 0 48 48" fill="none" xmlns="http://www.w3.org/2000/svg">
<path fill-rule="evenodd" clip-rule="evenodd" d="M46 24C46 36.1503 36.1503 46 24 46C11.8497 46 2 36.1503 2 24C2 11.8497 11.8497 2 24 2C36.1503 2 46 11.8497 46 24ZM41.6 24C41.6 33.7202 33.7202 41.6 24 41.6C14.2798 41.6 6.4 33.7202 6.4 24C6.4 14.2798 14.2798 6.4 24 6.4C33.7202 6.4 41.6 14.2798 41.6 24Z" fill="url(#paint0_linear)"/>
<path fill-rule="evenodd" clip-rule="evenodd" d="M18.6222 14.1006C18.3202 14.0933 18.0198 14.147 17.7387 14.2585C17.4575 14.37 17.2013 14.5371 16.985 14.7499C16.7688 14.9628 16.5968 15.2171 16.4793 15.4979C16.3618 15.7788 16.3011 16.0805 16.3008 16.3853V23.9976L16.3022 31.6098C16.3018 32.0116 16.4063 32.4064 16.605 32.7545C16.8038 33.1026 17.0899 33.3917 17.4346 33.5928C17.7792 33.7939 18.1703 33.8998 18.5684 33.9C18.9665 33.9001 19.3576 33.7945 19.7024 33.5936L26.2343 29.7853L32.7662 25.9799C33.111 25.7793 33.3974 25.4906 33.5966 25.1428C33.7957 24.795 33.9007 24.4004 33.9008 23.9987C33.9009 23.597 33.7963 23.2024 33.5974 22.8545C33.3985 22.5065 33.1123 22.2176 32.7676 22.0167L26.2343 18.2128L19.7024 14.406C19.5054 14.2916 19.2925 14.2077 19.0708 14.1572C18.9235 14.1233 18.7732 14.1044 18.6221 14.1006L18.6222 14.1006Z" fill="url(#paint1_linear)"/>
<defs>
<linearGradient id="paint0_linear" x1="24" y1="46" x2="24" y2="2" gradientUnits="userSpaceOnUse">
<stop stop-color="#FD3A84"/>
<stop offset="1" stop-color="#FFA68D"/>
</linearGradient>
<linearGradient id="paint1_linear" x1="16.2982" y1="23.7066" x2="33.897" y2="23.7066" gradientUnits="userSpaceOnUse">
<stop stop-color="#FD3A84"/>
<stop offset="1" stop-color="#FFA68D"/>
</linearGradient>
</defs>
</svg>
