<svg width="64" height="64" viewBox="0 0 64 64" fill="none" xmlns="http://www.w3.org/2000/svg">
<path fill-rule="evenodd" clip-rule="evenodd" d="M32 57C45.8071 57 57 45.8071 57 32C57 18.1929 45.8071 7 32 7C18.1929 7 7 18.1929 7 32C7 45.8071 18.1929 57 32 57ZM63 32C63 49.1208 49.1208 63 32 63C14.8792 63 1 49.1208 1 32C1 14.8792 14.8792 1 32 1C49.1208 1 63 14.8792 63 32ZM26.6448 13.3432C28.3916 12.8648 30.1905 12.5967 32.002 12.6154C36.0812 12.624 40.003 13.8958 43.234 16.412C45.4276 18.9351 41.1763 21.8303 39.2271 19.2789C33.0782 14.7692 25.0839 16.9788 20.6691 22.2867C18.3202 24.9209 16.9958 28.4693 17.0113 31.9979H21.2307L14.7692 41.6924C14.7692 41.6924 10.5368 35.2799 8.30762 32.0021H12.6805C12.5571 23.5763 18.5103 15.5253 26.6448 13.3432ZM42.7692 32L49.2307 22.3077C49.2307 22.3077 53.463 28.7201 55.6922 31.9979H51.3193C51.4428 40.4238 45.4896 48.4748 37.3551 50.6569C35.6082 51.1353 33.8093 51.4034 31.9978 51.3847C27.9186 51.376 23.9968 50.1043 20.7659 47.5881C18.5723 45.0649 22.8235 42.1698 24.7728 44.7212C30.9216 49.2309 38.916 47.0213 43.3308 41.7134C45.6797 39.0792 47.004 35.5287 46.9885 32H42.7692Z" fill="url(#paint0_linear)"/>
<defs>
<linearGradient id="paint0_linear" x1="32" y1="1" x2="32" y2="62.9999" gradientUnits="userSpaceOnUse">
<stop stop-color="#BAFA52"/>
<stop offset="1" stop-color="#3F8F5B"/>
</linearGradient>
</defs>
</svg>
