<svg width="128" height="128" viewBox="0 0 128 128" fill="none" xmlns="http://www.w3.org/2000/svg">
<path d="M113.847 41.2265H99.9768C98.4602 41.2265 97.231 40.0055 97.231 38.4993V25.1133C97.231 24.2775 96.8066 23.4493 96.014 22.8344L79.3985 9.94381C78.6198 9.33945 77.5634 9 76.4616 9H51.5384C50.4369 9 49.3804 9.33945 48.6015 9.94381L31.986 22.8344C31.2264 23.4237 30.7693 24.2423 30.7693 25.1133V38.4993C30.7693 40.0055 29.5399 41.2265 28.0236 41.2265H14.1538C11.8598 41.2265 10 42.6695 10 44.4492V115.777C10 117.557 11.8598 119 14.1538 119H113.847C116.139 119 118 117.557 118 115.777V44.4492C118 42.6695 116.139 41.2265 113.847 41.2265ZM52.514 16.0233C52.9967 15.6487 53.5916 15.4453 54.2042 15.4453H73.7957C74.4083 15.4453 75.0032 15.6487 75.4859 16.0233L76.7629 17.014C78.8211 18.6107 77.6843 21.8906 75.0727 21.8906H52.9272C50.3156 21.8906 49.1788 18.6108 51.237 17.014L52.514 16.0233ZM86.1773 28.3359C87.6937 28.3359 88.9231 29.557 88.9231 31.0632V51.3899C88.9231 52.8962 87.6937 54.1172 86.1773 54.1172H83.3611C81.8447 54.1172 80.6153 52.8962 80.6153 51.3899V31.0632C80.6153 29.557 81.8447 28.3359 83.3611 28.3359H86.1773ZM69.562 28.3359C71.0784 28.3359 72.3078 29.557 72.3078 31.0632V38.4993C72.3078 40.0055 71.0784 41.2265 69.562 41.2265H58.438C56.9216 41.2265 55.6922 40.0055 55.6922 38.4993V31.0632C55.6922 29.557 56.9216 28.3359 58.438 28.3359H69.562ZM39.0769 31.0632C39.0769 29.557 40.3063 28.3359 41.8227 28.3359H44.6389C46.1553 28.3359 47.3847 29.557 47.3847 31.0632V51.3899C47.3847 52.8962 46.1553 54.1172 44.6389 54.1172H41.8227C40.3063 54.1172 39.0769 52.8962 39.0769 51.3899V31.0632ZM109.693 109.827C109.693 111.334 108.463 112.555 106.947 112.555H21.0535C19.537 112.555 18.3078 111.334 18.3078 109.827V50.3992C18.3078 48.8929 19.537 47.6719 21.0535 47.6719H28.0236C29.5399 47.6719 30.7693 48.8929 30.7693 50.3992V57.3398C30.7693 59.1196 32.6291 60.5625 34.9231 60.5625H51.5384C53.8324 60.5625 55.6922 59.1196 55.6922 57.3398V50.3992C55.6922 48.8929 56.9216 47.6719 58.438 47.6719H69.562C71.0784 47.6719 72.3078 48.8929 72.3078 50.3992V57.3398C72.3078 59.1196 74.1676 60.5625 76.4616 60.5625H93.0769C95.3709 60.5625 97.231 59.1196 97.231 57.3398V50.3992C97.231 48.8929 98.4602 47.6719 99.9768 47.6719H106.947C108.463 47.6719 109.693 48.8929 109.693 50.3992V109.827Z" fill="url(#paint0_linear_640_92)" stroke="url(#paint1_linear_640_92)" stroke-width="3"/>
<defs>
<linearGradient id="paint0_linear_640_92" x1="63.9999" y1="119" x2="63.9999" y2="8.99999" gradientUnits="userSpaceOnUse">
<stop stop-color="#02AA93"/>
<stop offset="1" stop-color="#67FF80"/>
</linearGradient>
<linearGradient id="paint1_linear_640_92" x1="63.9999" y1="119" x2="63.9999" y2="8.99999" gradientUnits="userSpaceOnUse">
<stop stop-color="#02AA93"/>
<stop offset="1" stop-color="#67FF80"/>
</linearGradient>
</defs>
</svg>
