<svg width="16" height="16" viewBox="0 0 16 16" fill="none" xmlns="http://www.w3.org/2000/svg">
<path d="M3.5 1C3.22386 1 3 1.22386 3 1.5V14.2625C3 14.616 3.35675 14.8578 3.68509 14.727L7.48157 13.2141C7.60042 13.1667 7.73291 13.1667 7.85176 13.2141L11.6482 14.727C11.9766 14.8578 12.3333 14.616 12.3333 14.2625V1.5C12.3333 1.22386 12.1095 1 11.8333 1H4.16667H3.5ZM4.16667 2.66667C4.16667 2.39052 4.39052 2.16667 4.66667 2.16667H10.6667C10.9428 2.16667 11.1667 2.39052 11.1667 2.66667V12.6239C11.1667 12.9769 10.8108 13.2187 10.4826 13.0888L7.85076 12.0466C7.7325 11.9997 7.60084 11.9997 7.48258 12.0466L4.85076 13.0888C4.52256 13.2187 4.16667 12.9769 4.16667 12.6239V10.3333V2.66667Z" fill="url(#paint0_linear_621_106)" stroke="url(#paint1_linear_621_106)"/>
<path d="M12 6C13.6569 6 15 4.65685 15 3C15 1.34315 13.6569 0 12 0C10.3431 0 9 1.34315 9 3C9 4.65685 10.3431 6 12 6Z" fill="url(#paint2_linear_621_106)"/>
<defs>
<linearGradient id="paint0_linear_621_106" x1="4.69166" y1="13.1382" x2="15.6714" y2="6.64157" gradientUnits="userSpaceOnUse">
<stop stop-color="#FE0844"/>
<stop offset="1" stop-color="#FEB302"/>
</linearGradient>
<linearGradient id="paint1_linear_621_106" x1="4.69166" y1="13.1382" x2="15.6714" y2="6.64157" gradientUnits="userSpaceOnUse">
<stop stop-color="#FE0844"/>
<stop offset="1" stop-color="#FEB302"/>
</linearGradient>
<linearGradient id="paint2_linear_621_106" x1="12" y1="6" x2="12" y2="0" gradientUnits="userSpaceOnUse">
<stop stop-color="#FDB600"/>
<stop offset="1" stop-color="#FFDE00"/>
</linearGradient>
</defs>
</svg>
