<svg width="16" height="16" viewBox="0 0 16 16" fill="none" xmlns="http://www.w3.org/2000/svg">
<path d="M13.32 1C12.8745 1.00007 12.4472 1.17711 12.1322 1.49219L10.2457 3.37863C10.0505 3.5739 9.7339 3.5739 9.53863 3.37863L9.19355 3.03355C8.99829 2.83829 8.68171 2.83829 8.48645 3.03355L8.07355 3.44645C7.87829 3.64171 7.87829 3.95829 8.07355 4.15355L8.09051 4.17051C8.28577 4.36577 8.28577 4.68235 8.09051 4.87762L3.30344 9.66469C2.88716 10.081 2.68 10.6308 2.68 11.1806V11.9929C2.68 12.1255 2.62732 12.2527 2.53355 12.3464L1.35355 13.5264C1.15829 13.7217 1.15829 14.0383 1.35355 14.2336L1.76645 14.6464C1.96171 14.8417 2.27829 14.8417 2.47355 14.6464L3.65355 13.4664C3.74732 13.3727 3.8745 13.32 4.00711 13.32H4.81938C5.3692 13.32 5.91903 13.1128 6.33531 12.6966L11.1224 7.90949C11.3176 7.71423 11.6342 7.71423 11.8295 7.90949L11.8464 7.92645C12.0417 8.12171 12.3583 8.12171 12.5536 7.92645L12.9664 7.51355C13.1617 7.31829 13.1617 7.00171 12.9664 6.80645L12.6214 6.46137C12.4261 6.2661 12.4261 5.94952 12.6214 5.75426L14.5078 3.86781C14.8229 3.5528 14.9999 3.12554 15 2.68V2.12C15 1.50144 14.4986 1 13.88 1H13.32ZM8.88238 5.66949C9.07765 5.47423 9.39423 5.47423 9.58949 5.66949L10.3305 6.41051C10.5258 6.60577 10.5258 6.92235 10.3305 7.11762L7.63457 9.81355C7.5408 9.90732 7.41363 9.96 7.28102 9.96H5.79898C5.35353 9.96 5.13045 9.42143 5.44543 9.10645L8.88238 5.66949Z" fill="url(#paint0_linear)"/>
<defs>
<linearGradient id="paint0_linear" x1="8" y1="15" x2="8" y2="1" gradientUnits="userSpaceOnUse">
<stop stop-color="#B555FF"/>
<stop offset="1" stop-color="#FF5454"/>
</linearGradient>
</defs>
</svg>
