<svg width="16" height="16" viewBox="0 0 16 16" fill="none" xmlns="http://www.w3.org/2000/svg">
<path d="M12.6667 1H3.33333C2.04467 1 1 2.04467 1 3.33333V12.6667C1 13.9553 2.04467 15 3.33333 15H12.6667C13.9553 15 15 13.9553 15 12.6667V3.33333C15 2.04467 13.9553 1 12.6667 1Z" fill="url(#paint0_linear)"/>
<path d="M5.33656 3.68693C5.1413 3.49167 4.82472 3.49167 4.62946 3.68693L3.6869 4.62949C3.49164 4.82475 3.49163 5.14133 3.6869 5.33659L5.99679 7.64649C6.19205 7.84175 6.19205 8.15833 5.99679 8.35359L3.6869 10.6635C3.49163 10.8587 3.49163 11.1753 3.6869 11.3706L4.62946 12.3132C4.82472 12.5084 5.1413 12.5084 5.33656 12.3132L7.64646 10.0033C7.84172 9.808 8.1583 9.808 8.35356 10.0033L10.6635 12.3132C10.8587 12.5084 11.1753 12.5084 11.3706 12.3132L12.3131 11.3706C12.5084 11.1753 12.5084 10.8587 12.3131 10.6635L10.0032 8.35359C9.80797 8.15833 9.80797 7.84175 10.0032 7.64649L12.3131 5.33659C12.5084 5.14133 12.5084 4.82475 12.3131 4.62949L11.3706 3.68693C11.1753 3.49167 10.8587 3.49167 10.6635 3.68693L8.35356 5.99682C8.1583 6.19208 7.84172 6.19208 7.64646 5.99682L5.33656 3.68693Z" fill="white"/>
<defs>
<linearGradient id="paint0_linear" x1="8" y1="15" x2="8" y2="1" gradientUnits="userSpaceOnUse">
<stop stop-color="#FF1B71"/>
<stop offset="0.9998" stop-color="#FF867E"/>
<stop offset="0.9999" stop-color="#FF6678"/>
</linearGradient>
</defs>
</svg>
