<svg width="24" height="24" viewBox="0 0 24 24" fill="none" xmlns="http://www.w3.org/2000/svg">
<path d="M12 1C5.92 1 1 5.92 1 12C1 18.08 5.92 23 12 23C18.08 23 23 18.08 23 12C23 5.92 18.08 1 12 1Z" fill="url(#paint0_linear)"/>
<path d="M14 14.91C13.4 14.7 13 14.13 13 13.5C13 12.87 13.4 12.3 14 12.09V6H10V9.09C10.2134 9.16212 10.4078 9.28137 10.5688 9.43891C10.7298 9.59645 10.8533 9.78822 10.93 10C11.19 10.8 10.78 11.64 10 11.91V18H14V14.91Z" fill="white"/>
<defs>
<linearGradient id="paint0_linear" x1="12" y1="23" x2="12" y2="1" gradientUnits="userSpaceOnUse">
<stop stop-color="#00B59C"/>
<stop offset="1" stop-color="#9CFFAC"/>
</linearGradient>
</defs>
</svg>
