<svg width="16" height="16" viewBox="0 0 16 16" fill="none" xmlns="http://www.w3.org/2000/svg">
<path d="M9.65803 1.10386C9.44459 1.04651 9.22508 1.17313 9.16787 1.38661L5.70407 14.3108C5.64691 14.5241 5.77339 14.7434 5.98664 14.8007L6.34197 14.8961C6.55541 14.9535 6.77492 14.8269 6.83213 14.6134L10.2959 1.68918C10.3531 1.47589 10.2266 1.25663 10.0134 1.19933L9.65803 1.10386ZM5.1241 3.61679C4.96393 3.46099 4.70717 3.46663 4.55399 3.62931L1.37826 7.00195L1.25514 7.13397C1.11155 7.28794 1.11189 7.52685 1.2559 7.68041L1.37826 7.81087L4.53359 11.2007C4.68645 11.3649 4.94445 11.3713 5.10527 11.2149L5.36549 10.9618C5.52146 10.8101 5.52756 10.5615 5.37921 10.4024L2.84393 7.68194C2.70012 7.52763 2.70085 7.28816 2.8456 7.13473L5.39633 4.43108C5.54629 4.27212 5.54093 4.02223 5.38427 3.86985L5.1241 3.61679ZM11.446 3.62931C11.2928 3.46663 11.0361 3.46099 10.8759 3.61679L10.6157 3.86985C10.4591 4.02223 10.4537 4.27212 10.6037 4.43108L13.1544 7.13473C13.2991 7.28816 13.2999 7.52763 13.1561 7.68194L10.6208 10.4024C10.4724 10.5615 10.4785 10.8101 10.6345 10.9618L10.8947 11.2149C11.0555 11.3713 11.3136 11.3649 11.4664 11.2007L14.6217 7.81087L14.7441 7.68041C14.8881 7.52685 14.8885 7.28794 14.7449 7.13397L14.6217 7.00195L11.446 3.62931Z" fill="url(#paint0_linear)" stroke="url(#paint1_linear)" stroke-width="0.5"/>
<defs>
<linearGradient id="paint0_linear" x1="8" y1="15" x2="8" y2="1" gradientUnits="userSpaceOnUse">
<stop stop-color="#A93AFF"/>
<stop offset="1" stop-color="#FF81FF"/>
</linearGradient>
<linearGradient id="paint1_linear" x1="8" y1="15" x2="8" y2="1" gradientUnits="userSpaceOnUse">
<stop stop-color="#A93AFF"/>
<stop offset="1" stop-color="#FF81FF"/>
</linearGradient>
</defs>
</svg>
