<svg width="64" height="64" viewBox="0 0 64 64" fill="none" xmlns="http://www.w3.org/2000/svg">
<path d="M43.1133 41.0104L46.2246 37.9483C46.7107 37.4699 47.5565 37.8048 47.5565 38.4937V52.4069C47.5565 54.9427 45.4662 57 42.8898 57H8.66674C6.09032 57 4 54.9427 4 52.4069V18.7243C4 16.1886 6.09032 14.1312 8.66674 14.1312H35.2576C35.9479 14.1312 36.2979 14.9542 35.8118 15.4422L32.7007 18.5043C32.5548 18.6478 32.3604 18.7243 32.1465 18.7243H8.66674V52.4069H42.8898V41.5463C42.8898 41.3453 42.9675 41.1538 43.1133 41.0104ZM58.3387 21.7003L32.8076 46.8283L24.0185 47.7851C21.4713 48.0626 19.3031 45.9479 19.585 43.4217L20.5573 34.7715L46.0884 9.64349C48.3149 7.45217 51.9121 7.45217 54.1289 9.64349L58.329 13.7773C60.5554 15.9685 60.5554 19.5186 58.3387 21.7003ZM48.7329 24.6571L43.0842 19.0976L25.0199 36.8862L24.3101 43.1346L30.6589 42.4361L48.7329 24.6571ZM55.033 17.0306L50.8329 12.8969C50.4344 12.5045 49.7829 12.5045 49.3941 12.8969L46.3899 15.8537L52.0385 21.4132L55.0428 18.4564C55.4317 18.0546 55.4317 17.423 55.033 17.0306Z" fill="url(#paint0_linear)"/>
<defs>
<linearGradient id="paint0_linear" x1="4.00821" y1="31.7739" x2="60.0093" y2="31.7739" gradientUnits="userSpaceOnUse">
<stop stop-color="#A93AFF"/>
<stop offset="1" stop-color="#FF81FF"/>
</linearGradient>
</defs>
</svg>
