<svg width="16" height="16" viewBox="0 0 16 16" fill="none" xmlns="http://www.w3.org/2000/svg">
<path d="M2.89735 14.4907C2.57701 14.4907 2.31734 14.231 2.31734 13.9107V1.89735C2.31734 1.57701 2.57701 1.31734 2.89735 1.31734H8.32402C8.64435 1.31734 8.90403 1.57701 8.90403 1.89735V4.68935C8.90403 5.00968 9.16371 5.26936 9.48404 5.26936H12.2761C12.5964 5.26936 12.8561 5.52904 12.8561 5.84937V8.64136C12.8561 8.96169 13.1157 9.22137 13.4361 9.22137H13.5934C13.9137 9.22137 14.1734 8.96169 14.1734 8.64136V4.19227C14.1734 4.03844 14.1123 3.89091 14.0035 3.78213L10.3913 0.169885C10.2825 0.0611099 10.135 0 9.98112 0H1.58001C1.25968 0 1 0.259682 1 0.58001V15.2281C1 15.5483 1.25968 15.8081 1.58001 15.8081H7.00669C7.32702 15.8081 7.5867 15.5483 7.5867 15.2281V15.0708C7.5867 14.7504 7.32702 14.4907 7.00669 14.4907H2.89735Z" fill="url(#paint0_linear_625_45)"/>
<path d="M10.1913 11.8559H13.5935C13.9138 11.8559 14.1736 12.1157 14.1736 12.436V12.5933C14.1736 12.9136 13.9138 13.1733 13.5935 13.1733H10.1913C9.67455 13.1733 9.41577 13.798 9.78116 14.1635L10.5164 14.8987C10.7429 15.1252 10.7429 15.4925 10.5164 15.7189L10.4052 15.8302C10.1787 16.0566 9.81147 16.0566 9.58496 15.8301L6.67964 12.9248C6.45314 12.6982 6.45314 12.331 6.67964 12.1045L9.58497 9.19918C9.81148 8.97268 10.1787 8.97267 10.4052 9.19916L10.5164 9.3103C10.7429 9.53681 10.7429 9.90406 10.5164 10.1306L9.78114 10.8659C9.41576 11.2313 9.67455 11.8559 10.1913 11.8559Z" fill="url(#paint1_linear_625_45)"/>
<defs>
<linearGradient id="paint0_linear_625_45" x1="7.5867" y1="15.8081" x2="7.5867" y2="0" gradientUnits="userSpaceOnUse">
<stop stop-color="#5570FF"/>
<stop offset="1" stop-color="#4DD3FF"/>
</linearGradient>
<linearGradient id="paint1_linear_625_45" x1="10.5652" y1="8.98918" x2="9.77028" y2="15.7337" gradientUnits="userSpaceOnUse">
<stop stop-color="#8D01A2"/>
<stop offset="1" stop-color="#FF33DB"/>
</linearGradient>
</defs>
</svg>
