<svg width="16" height="16" viewBox="0 0 16 16" fill="none" xmlns="http://www.w3.org/2000/svg">
<path d="M8 1C6.01176 1 4.4 2.56699 4.4 4.5V5.16667C4.4 5.44281 4.62386 5.66667 4.9 5.66667H5.1C5.37614 5.66667 5.6 5.44281 5.6 5.16667V4.5C5.6 3.21134 6.67452 2.16667 8 2.16667C9.32548 2.16667 10.4 3.21134 10.4 4.5V7.5C10.4 7.77614 10.1761 8 9.9 8H6.8H5.6H4.4H2.5C2.22386 8 2 8.22386 2 8.5V14.5C2 14.7761 2.22386 15 2.5 15H13.5C13.7761 15 14 14.7761 14 14.5V8.5C14 8.22386 13.7761 8 13.5 8H12.1C11.8239 8 11.6 7.77614 11.6 7.5V4.5C11.6 2.56699 9.98824 1 8 1ZM3.2 9.66667C3.2 9.39052 3.42386 9.16667 3.7 9.16667H12.3C12.5761 9.16667 12.8 9.39052 12.8 9.66667V13.3333C12.8 13.6095 12.5761 13.8333 12.3 13.8333H3.7C3.42386 13.8333 3.2 13.6095 3.2 13.3333V9.66667Z" fill="url(#paint0_linear_624_6)" stroke="url(#paint1_linear_624_6)" stroke-width="0.6"/>
<defs>
<linearGradient id="paint0_linear_624_6" x1="8" y1="15" x2="8" y2="1" gradientUnits="userSpaceOnUse">
<stop stop-color="#00B59C"/>
<stop offset="1" stop-color="#9CFFAC"/>
</linearGradient>
<linearGradient id="paint1_linear_624_6" x1="8" y1="15" x2="8" y2="1" gradientUnits="userSpaceOnUse">
<stop stop-color="#00B59C"/>
<stop offset="1" stop-color="#9CFFAC"/>
</linearGradient>
</defs>
</svg>
