<svg width="24" height="24" viewBox="0 0 24 24" fill="none" xmlns="http://www.w3.org/2000/svg">
<path d="M5.63158 22.8287C4.76316 22.8287 3.90439 22.6165 3.05526 22.1919C2.20614 21.7673 1.52105 21.2077 1 20.513C1.50175 20.513 2.01316 20.3153 2.53421 19.9201C3.05526 19.5241 3.31579 18.9498 3.31579 18.1972C3.31579 17.2323 3.65351 16.4121 4.32895 15.7366C5.00439 15.0612 5.82456 14.7235 6.78947 14.7235C7.75439 14.7235 8.57456 15.0612 9.25 15.7366C9.92544 16.4121 10.2632 17.2323 10.2632 18.1972C10.2632 19.4709 9.80965 20.5612 8.90263 21.4682C7.99561 22.3752 6.90526 22.8287 5.63158 22.8287ZM12.2895 15.8814L9.10526 12.6972L19.4684 2.33401C19.6807 2.12173 19.9462 2.01057 20.2651 2.00053C20.5831 1.99127 20.8579 2.10243 21.0895 2.33401L22.6526 3.89717C22.8842 4.12874 23 4.39892 23 4.70769C23 5.01646 22.8842 5.28664 22.6526 5.51822L12.2895 15.8814Z" fill="url(#paint0_linear_622_61)"/>
<defs>
<linearGradient id="paint0_linear_622_61" x1="4.9875" y1="20.3698" x2="23.8819" y2="2.95699" gradientUnits="userSpaceOnUse">
<stop stop-color="#FE0844"/>
<stop offset="1" stop-color="#FEB302"/>
</linearGradient>
</defs>
</svg>
