<svg width="16" height="16" viewBox="0 0 16 16" fill="none" xmlns="http://www.w3.org/2000/svg">
<path d="M12.145 1.0117C12.027 1.0352 11.902 1.0977 11.777 1.2227L10.2828 2.71716C10.1266 2.87337 10.1266 3.12662 10.2828 3.28282L12.7171 5.71714C12.8734 5.87336 13.1266 5.87335 13.2828 5.71711L14.777 4.2227C15.277 3.7227 14.777 3.2227 14.777 3.2227C14.777 3.2227 14.777 3.2227 14.777 3.2227L12.7771 1.22278C12.777 1.22273 12.777 1.22275 12.777 1.2227C12.7754 1.22113 12.495 0.941612 12.145 1.0117ZM9.28284 4.28285C9.12663 4.12664 8.87337 4.12664 8.71716 4.28285L1.11716 11.8828C1.04214 11.9579 1 12.0596 1 12.1657V14.6C1 14.8209 1.17909 15 1.4 15H14.6C14.8209 15 15 14.8209 15 14.6V13.4C15 13.1791 14.8209 13 14.6 13H6.96569C6.60932 13 6.43086 12.5691 6.68284 12.3172L11.7172 7.28285C11.8734 7.12664 11.8734 6.87337 11.7172 6.71716L9.28284 4.28285Z" fill="url(#paint0_linear_621_203)"/>
<defs>
<linearGradient id="paint0_linear_621_203" x1="3.5375" y1="13.3473" x2="16.1618" y2="2.33197" gradientUnits="userSpaceOnUse">
<stop stop-color="#FE0844"/>
<stop offset="1" stop-color="#FEB302"/>
</linearGradient>
</defs>
</svg>
