<svg width="24" height="24" viewBox="0 0 24 24" fill="none" xmlns="http://www.w3.org/2000/svg">
<path d="M21.8421 13.5789H14.8947C14.5877 13.5789 14.2931 13.4569 14.076 13.2398C13.8589 13.0227 13.7368 12.7281 13.7368 12.4211C13.7368 12.114 13.8589 11.8194 14.076 11.6023C14.2931 11.3852 14.5877 11.2632 14.8947 11.2632H21.8421C22.1492 11.2632 22.4437 11.3852 22.6609 11.6023C22.878 11.8194 23 12.114 23 12.4211C23 12.7281 22.878 13.0227 22.6609 13.2398C22.4437 13.4569 22.1492 13.5789 21.8421 13.5789ZM18.3684 17.0526C18.0613 17.0526 17.7668 16.9306 17.5497 16.7135C17.3326 16.4964 17.2105 16.2018 17.2105 15.8947V8.94737C17.2105 8.64027 17.3326 8.34576 17.5497 8.12861C17.7668 7.91147 18.0613 7.78947 18.3684 7.78947C18.6755 7.78947 18.9701 7.91147 19.1872 8.12861C19.4043 8.34576 19.5263 8.64027 19.5263 8.94737V15.8947C19.5263 16.2018 19.4043 16.4964 19.1872 16.7135C18.9701 16.9306 18.6755 17.0526 18.3684 17.0526ZM7.94737 4.31579C9.86253 4.31579 11.4211 5.87432 11.4211 7.78947C11.4211 9.70463 9.86253 11.2632 7.94737 11.2632C6.03221 11.2632 4.47368 9.70463 4.47368 7.78947C4.47368 5.87432 6.03221 4.31579 7.94737 4.31579ZM7.94737 2C4.74695 2 2.15789 4.59137 2.15789 7.78947C2.15789 10.9876 4.74695 13.5789 7.94737 13.5789C11.1478 13.5789 13.7368 10.9876 13.7368 7.78947C13.7368 4.59137 11.1478 2 7.94737 2ZM7.94737 17.0526C10.2875 17.0526 11.7696 17.9454 12.3277 18.7258C11.5368 19.0268 10.0478 19.3684 7.94737 19.3684C5.65011 19.3684 4.23516 19.0153 3.52653 18.7408C4.058 17.9129 5.58411 17.0526 7.94737 17.0526ZM7.94737 14.7368C3.60526 14.7368 1 17.0526 1 19.3684C1 20.5263 3.60526 21.6842 7.94737 21.6842C12.0208 21.6842 14.8947 20.5263 14.8947 19.3684C14.8947 17.0526 12.1691 14.7368 7.94737 14.7368Z" fill="url(#paint0_linear_625_49)"/>
<defs>
<linearGradient id="paint0_linear_625_49" x1="12" y1="21.6842" x2="12" y2="2" gradientUnits="userSpaceOnUse">
<stop stop-color="#02AA93"/>
<stop offset="1" stop-color="#67FF80"/>
</linearGradient>
</defs>
</svg>
