<svg width="64" height="64" viewBox="0 0 64 64" fill="none" xmlns="http://www.w3.org/2000/svg">
<path d="M59 6H5C4.20463 6.00093 3.44211 6.31729 2.8797 6.8797C2.31729 7.44211 2.00093 8.20463 2 9V55C2.00093 55.7954 2.31729 56.5579 2.8797 57.1203C3.44211 57.6827 4.20463 57.9991 5 58H16V50.6473C16.0002 50.2016 16.1195 49.7641 16.3455 49.38C16.5715 48.9959 16.896 48.6791 17.2855 48.4625L28.7829 42.0721L25 32.6149V25C25 23.1435 25.7375 21.363 27.0503 20.0503C28.363 18.7375 30.1435 18 32 18C33.8565 18 35.637 18.7375 36.9497 20.0503C38.2625 21.363 39 23.1435 39 25V32.6149L35.2171 42.0718L46.7145 48.4625C47.104 48.6791 47.4285 48.9959 47.6545 49.38C47.8805 49.7641 47.9998 50.2016 48 50.6473V58H59C59.7954 57.9991 60.5579 57.6827 61.1203 57.1203C61.6827 56.5579 61.9991 55.7954 62 55V9C61.9991 8.20463 61.6827 7.44211 61.1203 6.8797C60.5579 6.31729 59.7954 6.00093 59 6V6ZM58 54H52V50.6473C51.9996 49.4884 51.6896 48.3506 51.102 47.3518C50.5144 46.3529 49.6705 45.5292 48.6577 44.9659L40.2394 40.2875L43 33.3851V25C43 22.0826 41.8411 19.2847 39.7782 17.2218C37.7153 15.1589 34.9174 14 32 14C29.0826 14 26.2847 15.1589 24.2218 17.2218C22.1589 19.2847 21 22.0826 21 25V33.3851L23.7606 40.2875L15.3422 44.9665C14.3296 45.5298 13.4858 46.3534 12.8982 47.3521C12.3106 48.3509 12.0005 49.4885 12 50.6473V54H6V10H58V54Z" fill="url(#paint0_linear)"/>
<defs>
<linearGradient id="paint0_linear" x1="32" y1="58" x2="32" y2="6" gradientUnits="userSpaceOnUse">
<stop stop-color="#A93AFF"/>
<stop offset="1" stop-color="#FF81FF"/>
</linearGradient>
</defs>
</svg>
