<svg width="24" height="24" viewBox="0 0 24 24" fill="none" xmlns="http://www.w3.org/2000/svg">
<path d="M21.6715 20.0942L17.8949 16.3287C19.1134 14.7765 19.7745 12.8595 19.7721 10.886C19.7721 9.12854 19.2509 7.41051 18.2745 5.94922C17.2981 4.48792 15.9103 3.34897 14.2866 2.67642C12.6629 2.00385 10.8762 1.82788 9.15245 2.17074C7.42873 2.51361 5.84539 3.35993 4.60266 4.60266C3.35993 5.84539 2.51361 7.42873 2.17074 9.15245C1.82788 10.8762 2.00385 12.6629 2.67642 14.2866C3.34897 15.9103 4.48792 17.2981 5.94922 18.2745C7.41051 19.2509 9.12854 19.7721 10.886 19.7721C12.8595 19.7745 14.7765 19.1134 16.3287 17.8949L20.0942 21.6715C20.1975 21.7755 20.3204 21.8582 20.4556 21.9145C20.591 21.971 20.7362 22 20.8828 22C21.0295 22 21.1746 21.971 21.31 21.9145C21.4453 21.8582 21.5682 21.7755 21.6715 21.6715C21.7755 21.5682 21.8582 21.4453 21.9145 21.31C21.971 21.1746 22 21.0295 22 20.8828C22 20.7362 21.971 20.591 21.9145 20.4556C21.8582 20.3204 21.7755 20.1975 21.6715 20.0942ZM4.22151 10.886C4.22151 9.56792 4.61238 8.2794 5.34469 7.18342C6.07698 6.08744 7.11785 5.23324 8.33563 4.72882C9.55341 4.22439 10.8935 4.09242 12.1862 4.34956C13.479 4.60672 14.6665 5.24145 15.5985 6.1735C16.5306 7.10555 17.1654 8.29306 17.4225 9.58585C17.6796 10.8785 17.5476 12.2186 17.0433 13.4365C16.5389 14.6543 15.6845 15.695 14.5886 16.4274C13.4926 17.1596 12.2042 17.5505 10.886 17.5505C9.11848 17.5505 7.42334 16.8485 6.1735 15.5985C4.92365 14.3487 4.22151 12.6535 4.22151 10.886Z" fill="url(#paint0_linear_650_128)" stroke="url(#paint1_linear_650_128)"/>
<defs>
<linearGradient id="paint0_linear_650_128" x1="12" y1="22" x2="12" y2="2" gradientUnits="userSpaceOnUse">
<stop stop-color="#5558FF"/>
<stop offset="1" stop-color="#00C0FF"/>
</linearGradient>
<linearGradient id="paint1_linear_650_128" x1="12" y1="22" x2="12" y2="2" gradientUnits="userSpaceOnUse">
<stop stop-color="#5558FF"/>
<stop offset="1" stop-color="#00C0FF"/>
</linearGradient>
</defs>
</svg>
