<svg width="16" height="16" viewBox="0 0 16 16" fill="none" xmlns="http://www.w3.org/2000/svg">
<path d="M1.4 1C1.17909 1 1 1.17909 1 1.4V14.6C1 14.8209 1.17909 15 1.4 15H14.6C14.8209 15 15 14.8209 15 14.6V1.4C15 1.17909 14.8209 1 14.6 1H1.4ZM4 3.2C4 3.08954 4.08954 3 4.2 3H11.8C11.9105 3 12 3.08954 12 3.2V6.8C12 6.91046 11.9105 7 11.8 7H4.2C4.08954 7 4 6.91046 4 6.8V3.2ZM2 3.2C2 3.08954 2.08954 3 2.2 3H2.8C2.91046 3 3 3.08954 3 3.2V3.8C3 3.91046 2.91046 4 2.8 4H2.2C2.08954 4 2 3.91046 2 3.8V3.2ZM13 3.2C13 3.08954 13.0895 3 13.2 3H13.8C13.9105 3 14 3.08954 14 3.2V3.8C14 3.91046 13.9105 4 13.8 4H13.2C13.0895 4 13 3.91046 13 3.8V3.2ZM2 6.2C2 6.08954 2.08954 6 2.2 6H2.8C2.91046 6 3 6.08954 3 6.2V6.8C3 6.91046 2.91046 7 2.8 7H2.2C2.08954 7 2 6.91046 2 6.8V6.2ZM13 6.2C13 6.08954 13.0895 6 13.2 6H13.8C13.9105 6 14 6.08954 14 6.2V6.8C14 6.91046 13.9105 7 13.8 7H13.2C13.0895 7 13 6.91046 13 6.8V6.2ZM2 9.2C2 9.08954 2.08954 9 2.2 9H2.8C2.91046 9 3 9.08954 3 9.2V9.8C3 9.91046 2.91046 10 2.8 10H2.2C2.08954 10 2 9.91046 2 9.8V9.2ZM4 9.2C4 9.08954 4.08954 9 4.2 9H11.8C11.9105 9 12 9.08954 12 9.2V12.8C12 12.9105 11.9105 13 11.8 13H4.2C4.08954 13 4 12.9105 4 12.8V9.2ZM13 9.2C13 9.08954 13.0895 9 13.2 9H13.8C13.9105 9 14 9.08954 14 9.2V9.8C14 9.91046 13.9105 10 13.8 10H13.2C13.0895 10 13 9.91046 13 9.8V9.2ZM2 12.2C2 12.0895 2.08954 12 2.2 12H2.8C2.91046 12 3 12.0895 3 12.2V12.8C3 12.9105 2.91046 13 2.8 13H2.2C2.08954 13 2 12.9105 2 12.8V12.2ZM13 12.2C13 12.0895 13.0895 12 13.2 12H13.8C13.9105 12 14 12.0895 14 12.2V12.8C14 12.9105 13.9105 13 13.8 13H13.2C13.0895 13 13 12.9105 13 12.8V12.2Z" fill="url(#paint0_linear_625_9)"/>
<defs>
<linearGradient id="paint0_linear_625_9" x1="1.20278" y1="14.4109" x2="7.24886" y2="11.9984" gradientUnits="userSpaceOnUse">
<stop stop-color="#F35C58"/>
<stop offset="1" stop-color="#B118F0"/>
</linearGradient>
</defs>
</svg>
