<svg width="16" height="16" viewBox="0 0 16 16" fill="none" xmlns="http://www.w3.org/2000/svg">
<path d="M3.6665 2.83333V1.5C3.6665 1.22386 3.89036 1 4.1665 1H10.6665H11.4686C11.4919 1 11.5143 1.00927 11.5308 1.02578L14.0201 3.51501C14.1138 3.60878 14.1665 3.73596 14.1665 3.86856V12.1667C14.1665 12.4428 13.9426 12.6667 13.6665 12.6667H12.3332C12.057 12.6667 11.8332 12.4428 11.8332 12.1667V12C11.8332 11.7239 12.057 11.5 12.3332 11.5H12.4998C12.776 11.5 12.9998 11.2761 12.9998 11V4.5V4.37898C12.9998 4.24637 12.9472 4.1192 12.8534 4.02543L11.1411 2.31311C11.0473 2.21935 10.9201 2.16667 10.7875 2.16667H5.33317C5.05703 2.16667 4.83317 2.39052 4.83317 2.66667V2.83333C4.83317 3.10948 4.60931 3.33333 4.33317 3.33333H4.1665C3.89036 3.33333 3.6665 3.10948 3.6665 2.83333Z" fill="url(#paint0_linear)"/>
<path d="M1.5 3.3335C1.22386 3.3335 1 3.55735 1 3.8335V14.5002C1 14.7763 1.22386 15.0002 1.5 15.0002H1.97222H2.94444H8.77778H9.75H10.7222H12.1667C12.4428 15.0002 12.6667 14.7763 12.6667 14.5002V5.75848C12.6667 5.62588 12.614 5.4987 12.5202 5.40493L10.4703 3.35498C10.4565 3.34122 10.4379 3.3335 10.4184 3.3335V3.3335H9.75H2.94444H1.97222H1.5ZM1.97222 4.80572C1.97222 4.52958 2.19608 4.30572 2.47222 4.30572H2.94444H3.41667C3.69281 4.30572 3.91667 4.52958 3.91667 4.80572V7.22239V7.69461C3.91667 7.97075 4.14052 8.19461 4.41667 8.19461H9.25C9.52614 8.19461 9.75 7.97075 9.75 7.69461V7.22239V4.49907C9.75 4.39228 9.83657 4.30572 9.94335 4.30572V4.30572C9.99463 4.30572 10.0438 4.32609 10.0801 4.36235L11.548 5.83028C11.6418 5.92405 11.6944 6.05122 11.6944 6.18383V6.25016V13.5418C11.6944 13.8103 11.4768 14.0279 11.2083 14.0279V14.0279C10.9399 14.0279 10.7222 13.8103 10.7222 13.5418V10.6391C10.7222 10.3629 10.4984 10.1391 10.2222 10.1391H9.75H3.91667H3.41406C3.13792 10.1391 2.91406 10.3629 2.91406 10.6391V13.557C2.91406 13.8171 2.70322 14.0279 2.44314 14.0279V14.0279C2.18306 14.0279 1.97222 13.8171 1.97222 13.557V4.80572ZM4.88889 4.80572C4.88889 4.52958 5.11275 4.30572 5.38889 4.30572H6.24219C6.51833 4.30572 6.74219 4.52958 6.74219 4.80572V6.72238C6.74219 6.99853 6.51833 7.22239 6.24219 7.22239H5.38889C5.11275 7.22239 4.88889 6.99853 4.88889 6.72239V4.80572ZM3.91667 11.6113C3.91667 11.3351 4.14052 11.1113 4.41667 11.1113H4.88889H8.77778H9.25C9.52614 11.1113 9.75 11.3351 9.75 11.6113V13.5279C9.75 13.8041 9.52614 14.0279 9.25 14.0279H8.77778H4.88889H4.41667C4.14052 14.0279 3.91667 13.8041 3.91667 13.5279V11.6113Z" fill="url(#paint1_linear)" stroke="url(#paint2_linear)" stroke-width="0.2"/>
<defs>
<linearGradient id="paint0_linear" x1="8.9165" y1="12.6667" x2="8.9165" y2="1" gradientUnits="userSpaceOnUse">
<stop stop-color="#5570FF"/>
<stop offset="1" stop-color="#4DD3FF"/>
</linearGradient>
<linearGradient id="paint1_linear" x1="6.83333" y1="15.0002" x2="6.83333" y2="3.3335" gradientUnits="userSpaceOnUse">
<stop stop-color="#00B59C"/>
<stop offset="1" stop-color="#9CFFAC"/>
</linearGradient>
<linearGradient id="paint2_linear" x1="6.83333" y1="15.0002" x2="6.83333" y2="3.3335" gradientUnits="userSpaceOnUse">
<stop stop-color="#00B59C"/>
<stop offset="1" stop-color="#9CFFAC"/>
</linearGradient>
</defs>
</svg>
