<svg width="16" height="16" viewBox="0 0 16 16" fill="none" xmlns="http://www.w3.org/2000/svg">
<path d="M0.598455 4.34197C0.331793 4.1896 0 4.38214 0 4.68927V11.3107C0 11.6179 0.331793 11.8104 0.598456 11.658L7 8L0.598455 4.34197ZM7 8V11.3107C7 11.6179 7.33179 11.8104 7.59846 11.658L14 8L7.59846 4.34197C7.33179 4.1896 7 4.38214 7 4.68927V8ZM14 8V11.6C14 11.8209 14.1791 12 14.4 12H15.6C15.8209 12 16 11.8209 16 11.6V4.4C16 4.17909 15.8209 4 15.6 4H14.4C14.1791 4 14 4.17909 14 4.4V8Z" fill="url(#paint0_linear_622_40)"/>
<path d="M0 11.3107V4.68927C0 4.38214 0.331793 4.1896 0.598455 4.34197L7 8V4.68927C7 4.38214 7.33179 4.1896 7.59846 4.34197L13.3922 7.6527C13.661 7.80626 13.661 8.19374 13.3922 8.3473L7.59846 11.658C7.33179 11.8104 7 11.6179 7 11.3107V8L0.598456 11.658C0.331793 11.8104 0 11.6179 0 11.3107Z" fill="url(#paint1_linear_622_40)"/>
<defs>
<linearGradient id="paint0_linear_622_40" x1="15.4595" y1="4.22866" x2="13.7208" y2="12.9603" gradientUnits="userSpaceOnUse">
<stop stop-color="#FE0F7C"/>
<stop offset="1" stop-color="#DF0066"/>
</linearGradient>
<linearGradient id="paint1_linear_622_40" x1="1" y1="8" x2="12.0854" y2="5.85622" gradientUnits="userSpaceOnUse">
<stop stop-color="#8D01A2"/>
<stop offset="1" stop-color="#FF00D2"/>
</linearGradient>
</defs>
</svg>
