<svg width="16" height="16" viewBox="0 0 16 16" fill="none" xmlns="http://www.w3.org/2000/svg">
<g clip-path="url(#clip0)">
<path fill-rule="evenodd" clip-rule="evenodd" d="M0.666687 0.583344C0.252473 0.583344 -0.083313 0.91913 -0.083313 1.33334C-0.083313 1.74756 0.252473 2.08334 0.666687 2.08334H6.58335V13.9167H0.666687C0.252473 13.9167 -0.083313 14.2525 -0.083313 14.6667C-0.083313 15.0809 0.252473 15.4167 0.666687 15.4167H7.33335C7.74757 15.4167 8.08335 15.0809 8.08335 14.6667V1.33334C8.08335 0.91913 7.74757 0.583344 7.33335 0.583344H0.666687ZM9.26498 1.31754C9.34734 0.911602 9.74319 0.649288 10.1491 0.731651C13.5345 1.41852 16.0833 4.41099 16.0833 8.00001C16.0833 11.5891 13.5344 14.5808 10.1493 15.2683C9.74336 15.3508 9.34746 15.0886 9.26501 14.6826C9.18256 14.2767 9.44479 13.8808 9.85071 13.7983C12.5509 13.2499 14.5833 10.8615 14.5833 8.00001C14.5833 5.13836 12.5508 2.74949 9.85087 2.2017C9.44493 2.11934 9.18261 1.72349 9.26498 1.31754ZM9.27221 5.81885C9.37225 5.4169 9.7792 5.17216 10.1812 5.27221C11.3579 5.56511 12.0833 6.76044 12.0833 8C12.0833 9.23956 11.3579 10.4349 10.1812 10.7278C9.7792 10.8278 9.37225 10.5831 9.27221 10.1812C9.17216 9.7792 9.4169 9.37225 9.81885 9.27221C10.1634 9.18644 10.5833 8.73511 10.5833 8C10.5833 7.26489 10.1634 6.81356 9.81885 6.72779C9.4169 6.62775 9.17216 6.2208 9.27221 5.81885ZM4.66669 5.41666H3.41669V10.3333C3.41669 10.7975 3.23231 11.2426 2.90412 11.5708C2.57594 11.8989 2.13082 12.0833 1.66669 12.0833C1.20256 12.0833 0.757438 11.8989 0.42925 11.5708C0.101062 11.2426 -0.083313 10.7975 -0.083313 10.3333C-0.083313 9.86919 0.101061 9.42407 0.42925 9.09589C0.757439 8.7677 1.20256 8.58332 1.66669 8.58332C1.75084 8.58332 1.83437 8.58938 1.91669 8.60126V5.06666C1.91669 4.76166 2.03785 4.46915 2.25351 4.25348C2.46918 4.03782 2.76169 3.91666 3.06669 3.91666H4.66669C5.0809 3.91666 5.41669 4.25244 5.41669 4.66666C5.41669 5.08087 5.0809 5.41666 4.66669 5.41666Z" fill="url(#paint0_linear)"/>
</g>
<defs>
<linearGradient id="paint0_linear" x1="8.00001" y1="0.583344" x2="8.00001" y2="15.4167" gradientUnits="userSpaceOnUse">
<stop stop-color="#DC18FC"/>
<stop offset="1" stop-color="#8E1EFF"/>
</linearGradient>
<clipPath id="clip0">
<rect width="16" height="16" fill="white"/>
</clipPath>
</defs>
</svg>
