<svg width="16" height="16" viewBox="0 0 16 16" fill="none" xmlns="http://www.w3.org/2000/svg">
<path fill-rule="evenodd" clip-rule="evenodd" d="M14.6838 1.68371C14.7589 1.6086 14.8011 1.50673 14.8011 1.40051C14.8011 1.29428 14.7589 1.19241 14.6838 1.11731C14.6087 1.0422 14.5068 1 14.4006 1C14.2944 1 14.1925 1.0422 14.1174 1.11731L11.983 3.25251C11.3619 2.7692 10.5856 2.52939 9.80011 2.57815C9.01461 2.62691 8.27397 2.96089 7.71739 3.51731L7.47739 3.75731C7.3666 3.86801 7.27872 3.99945 7.21875 4.14413C7.15879 4.28881 7.12793 4.44389 7.12793 4.60051C7.12793 4.75712 7.15879 4.9122 7.21875 5.05688C7.27872 5.20156 7.3666 5.33301 7.47739 5.44371L10.3574 8.32371C10.5809 8.5472 10.8841 8.67276 11.2002 8.67276C11.5163 8.67276 11.8195 8.5472 12.043 8.32371L12.283 8.08371C12.8395 7.52723 13.1736 6.78664 13.2226 6.00114C13.2715 5.21564 13.0318 4.43932 12.5486 3.81811L14.6838 1.68371ZM11.4775 7.75724C11.4411 7.79365 11.3979 7.82252 11.3504 7.84223C11.3028 7.86193 11.2518 7.87207 11.2003 7.87207C11.1489 7.87207 11.0979 7.86193 11.0503 7.84223C11.0028 7.82252 10.9595 7.79365 10.9231 7.75724L8.04314 4.87724C7.96986 4.80376 7.92871 4.70422 7.92871 4.60044C7.92871 4.49667 7.96986 4.39712 8.04314 4.32364L8.28314 4.08364C8.74182 3.64473 9.35412 3.40286 9.98893 3.40981C10.6237 3.41677 11.2306 3.672 11.6795 4.12085C12.1285 4.5697 12.3839 5.17649 12.391 5.8113C12.3981 6.4461 12.1563 7.05846 11.7175 7.51724L11.4775 7.75724ZM5.44371 7.47723C5.22017 7.25373 4.91701 7.12817 4.60091 7.12817C4.2848 7.12817 3.98164 7.25373 3.75811 7.47723L3.51811 7.71723C2.96157 8.27371 2.62745 9.0143 2.57854 9.7998C2.52963 10.5853 2.7693 11.3616 3.25251 11.9828L1.11731 14.1172C1.0422 14.1923 1 14.2942 1 14.4004C1 14.5067 1.0422 14.6085 1.11731 14.6836C1.19241 14.7587 1.29428 14.8009 1.40051 14.8009C1.50673 14.8009 1.6086 14.7587 1.68371 14.6836L3.81811 12.5484C4.43932 13.0316 5.21564 13.2713 6.00114 13.2224C6.78664 13.1735 7.52723 12.8394 8.08371 12.2828L8.32371 12.0428C8.5472 11.8193 8.67276 11.5161 8.67276 11.2C8.67276 10.8839 8.5472 10.5808 8.32371 10.3572L5.44371 7.47723ZM4.32371 8.04363C4.36011 8.00723 4.40332 7.97835 4.45088 7.95865C4.49845 7.93894 4.54942 7.9288 4.60091 7.9288C4.65239 7.9288 4.70336 7.93894 4.75093 7.95865C4.79849 7.97835 4.8417 8.00723 4.87811 8.04363L7.7581 10.9236C7.83138 10.9971 7.87253 11.0967 7.87253 11.2004C7.87253 11.3042 7.83138 11.4037 7.7581 11.4772L7.51811 11.7172C7.29265 11.9427 7.02499 12.1216 6.7304 12.2437C6.43581 12.3658 6.12006 12.4286 5.80119 12.4286C5.48231 12.4287 5.16655 12.3659 4.87193 12.2439C4.57732 12.1219 4.30961 11.9431 4.08411 11.7176C3.8586 11.4922 3.67971 11.2245 3.55764 10.9299C3.43558 10.6353 3.37274 10.3196 3.3727 10.0007C3.37263 9.35672 3.62838 8.73906 4.08371 8.28363L4.32371 8.04363ZM4.23202 3.4367C4.20852 3.41344 4.1768 3.40039 4.14373 3.40039C4.11067 3.40039 4.07895 3.41344 4.05545 3.4367L3.4367 4.05545C3.41344 4.07895 3.40039 4.11067 3.40039 4.14373C3.40039 4.1768 3.41344 4.20852 3.4367 4.23202L12.0992 12.8945C12.1476 12.943 12.2273 12.943 12.2758 12.8945L12.8945 12.2758C12.943 12.2273 12.943 12.1476 12.8945 12.0992L4.23202 3.4367Z" fill="url(#paint0_linear)"/>
<path d="M14.6838 1.68371L14.8605 1.86052L14.8606 1.86048L14.6838 1.68371ZM14.1174 1.11731L13.9406 0.940528L13.9406 0.940562L14.1174 1.11731ZM11.983 3.25251L11.8295 3.44981L12.0037 3.5854L12.1598 3.42925L11.983 3.25251ZM7.71739 3.51731L7.54064 3.3405L7.54061 3.34053L7.71739 3.51731ZM7.47739 3.75731L7.6541 3.93415L7.65416 3.93408L7.47739 3.75731ZM7.21875 5.05688L6.9878 5.15259L6.9878 5.15259L7.21875 5.05688ZM7.47739 5.44371L7.65416 5.26693L7.6541 5.26686L7.47739 5.44371ZM10.3574 8.32371L10.1806 8.50048L10.1806 8.5005L10.3574 8.32371ZM12.043 8.32371L12.2197 8.5005L12.2198 8.50048L12.043 8.32371ZM12.283 8.08371L12.1062 7.90692L12.1062 7.90693L12.283 8.08371ZM13.2226 6.00114L13.4721 6.01668L13.4721 6.01668L13.2226 6.00114ZM12.5486 3.81811L12.3718 3.6413L12.2157 3.79736L12.3513 3.9716L12.5486 3.81811ZM11.3504 7.84223L11.2547 7.61126L11.2547 7.61126L11.3504 7.84223ZM11.4775 7.75724L11.3008 7.58046L11.3008 7.58047L11.4775 7.75724ZM11.0503 7.84223L11.146 7.61126L11.146 7.61126L11.0503 7.84223ZM10.9231 7.75724L11.0999 7.58047L11.0999 7.58046L10.9231 7.75724ZM8.04314 4.87724L7.86612 5.05377L7.86636 5.05402L8.04314 4.87724ZM8.04314 4.32364L7.86636 4.14686L7.86612 4.14711L8.04314 4.32364ZM8.28314 4.08364L8.11026 3.90297L8.10636 3.90687L8.28314 4.08364ZM11.6795 4.12085L11.8563 3.94405L11.8563 3.94405L11.6795 4.12085ZM12.391 5.8113L12.141 5.81409L12.141 5.8141L12.391 5.8113ZM11.7175 7.51724L11.8944 7.69406L11.8982 7.69004L11.7175 7.51724ZM5.44371 7.47723L5.62048 7.30045L5.62047 7.30044L5.44371 7.47723ZM3.75811 7.47723L3.58134 7.30044L3.58133 7.30045L3.75811 7.47723ZM3.51811 7.71723L3.69487 7.89402L3.69488 7.89401L3.51811 7.71723ZM3.25251 11.9828L3.42925 12.1596L3.58537 12.0036L3.44984 11.8293L3.25251 11.9828ZM1.11731 14.1172L0.940562 13.9404L0.940529 13.9405L1.11731 14.1172ZM1.11731 14.6836L0.940528 14.8604L0.940529 14.8604L1.11731 14.6836ZM1.40051 14.8009L1.40051 14.5509H1.40051V14.8009ZM1.68371 14.6836L1.86048 14.8604L1.86052 14.8604L1.68371 14.6836ZM3.81811 12.5484L3.9716 12.3511L3.79736 12.2156L3.6413 12.3717L3.81811 12.5484ZM6.00114 13.2224L6.01668 13.4719L6.01668 13.4719L6.00114 13.2224ZM8.08371 12.2828L7.90693 12.1061L7.90692 12.1061L8.08371 12.2828ZM8.32371 12.0428L8.50048 12.2196L8.5005 12.2196L8.32371 12.0428ZM8.32371 10.3572L8.5005 10.1805L8.50048 10.1805L8.32371 10.3572ZM4.32371 8.04363L4.50048 8.22041L4.50049 8.2204L4.32371 8.04363ZM4.87811 8.04363L4.70132 8.2204L4.70133 8.22041L4.87811 8.04363ZM7.7581 10.9236L7.93513 10.7471L7.93488 10.7469L7.7581 10.9236ZM7.7581 11.4772L7.93488 11.654L7.93513 11.6538L7.7581 11.4772ZM7.51811 11.7172L7.34133 11.5405L7.34131 11.5405L7.51811 11.7172ZM6.7304 12.2437L6.8261 12.4747L6.8261 12.4747L6.7304 12.2437ZM5.80119 12.4286L5.80122 12.6786L5.80122 12.6786L5.80119 12.4286ZM4.87193 12.2439L4.96758 12.0129L4.96758 12.0129L4.87193 12.2439ZM4.08411 11.7176L4.26086 11.5408L4.26086 11.5408L4.08411 11.7176ZM3.55764 10.9299L3.7886 10.8342L3.7886 10.8342L3.55764 10.9299ZM3.3727 10.0007L3.1227 10.0007L3.1227 10.0007L3.3727 10.0007ZM4.08371 8.28363L3.90693 8.10685L3.90691 8.10688L4.08371 8.28363ZM4.23202 3.4367L4.40879 3.25992L4.40792 3.25906L4.23202 3.4367ZM4.05545 3.4367L3.87955 3.25905L3.87868 3.25993L4.05545 3.4367ZM3.4367 4.05545L3.25992 3.87867L3.25906 3.87955L3.4367 4.05545ZM3.4367 4.23202L3.25905 4.40792L3.25993 4.40879L3.4367 4.23202ZM12.0992 12.8945L11.9224 13.0713L11.9224 13.0713L12.0992 12.8945ZM12.8945 12.0992L13.0713 11.9224L13.0713 11.9224L12.8945 12.0992ZM14.5511 1.40051C14.5511 1.44042 14.5352 1.47871 14.507 1.50693L14.8606 1.86048C14.9826 1.73849 15.0511 1.57303 15.0511 1.40051H14.5511ZM14.507 1.29408C14.5352 1.32231 14.5511 1.36059 14.5511 1.40051H15.0511C15.0511 1.22798 14.9826 1.06252 14.8606 0.940528L14.507 1.29408ZM14.4006 1.25C14.4405 1.25 14.4788 1.26586 14.507 1.29408L14.8606 0.940528C14.7386 0.818535 14.5731 0.75 14.4006 0.75V1.25ZM14.2942 1.29408C14.3224 1.26586 14.3607 1.25 14.4006 1.25V0.75C14.2281 0.75 14.0626 0.818535 13.9406 0.940528L14.2942 1.29408ZM12.1598 3.42925L14.2942 1.29405L13.9406 0.940562L11.8062 3.07576L12.1598 3.42925ZM9.8156 2.82767C10.5403 2.78268 11.2564 3.00393 11.8295 3.44981L12.1365 3.0552C11.4673 2.53447 10.6309 2.27609 9.78462 2.32863L9.8156 2.82767ZM7.89414 3.69411C8.40762 3.18077 9.09092 2.87266 9.8156 2.82767L9.78462 2.32863C8.9383 2.38117 8.14031 2.741 7.54064 3.3405L7.89414 3.69411ZM7.65416 3.93408L7.89416 3.69408L7.54061 3.34053L7.30061 3.58053L7.65416 3.93408ZM7.44971 4.23985C7.49709 4.12551 7.56654 4.02163 7.6541 3.93415L7.30068 3.58046C7.16666 3.71438 7.06034 3.87339 6.9878 4.04842L7.44971 4.23985ZM7.37793 4.60051C7.37793 4.47674 7.40232 4.35418 7.44971 4.23985L6.9878 4.04842C6.91527 4.22344 6.87793 4.41104 6.87793 4.60051H7.37793ZM7.44971 4.96116C7.40232 4.84683 7.37793 4.72427 7.37793 4.60051H6.87793C6.87793 4.78997 6.91527 4.97757 6.9878 5.15259L7.44971 4.96116ZM7.6541 5.26686C7.56654 5.17938 7.49709 5.0755 7.44971 4.96116L6.9878 5.15259C7.06034 5.32762 7.16666 5.48663 7.30068 5.62055L7.6541 5.26686ZM10.5342 8.14693L7.65416 5.26693L7.30061 5.62048L10.1806 8.50048L10.5342 8.14693ZM11.2002 8.42276C10.9504 8.42276 10.7108 8.32354 10.5341 8.14691L10.1806 8.5005C10.451 8.77087 10.8178 8.92276 11.2002 8.92276V8.42276ZM11.8662 8.14691C11.6896 8.32354 11.45 8.42276 11.2002 8.42276V8.92276C11.5826 8.92276 11.9493 8.77087 12.2197 8.5005L11.8662 8.14691ZM12.1062 7.90693L11.8662 8.14693L12.2198 8.50048L12.4598 8.26048L12.1062 7.90693ZM12.973 5.9856C12.9279 6.71028 12.6197 7.39353 12.1062 7.90692L12.4598 8.26049C13.0594 7.66092 13.4194 6.86299 13.4721 6.01668L12.973 5.9856ZM12.3513 3.9716C12.797 4.54472 13.0182 5.26092 12.973 5.9856L13.4721 6.01668C13.5248 5.17036 13.2665 4.33393 12.7459 3.66461L12.3513 3.9716ZM14.507 1.5069L12.3718 3.6413L12.7253 3.99492L14.8605 1.86052L14.507 1.5069ZM11.446 8.07319C11.5239 8.04093 11.5947 7.99363 11.6543 7.93401L11.3008 7.58047C11.2876 7.59366 11.2719 7.60412 11.2547 7.61126L11.446 8.07319ZM11.2003 8.12207C11.2847 8.12207 11.3681 8.10546 11.446 8.07319L11.2547 7.61126C11.2375 7.6184 11.219 7.62207 11.2003 7.62207V8.12207ZM10.9546 8.07319C11.0325 8.10546 11.116 8.12207 11.2003 8.12207V7.62207C11.1817 7.62207 11.1632 7.6184 11.146 7.61126L10.9546 8.07319ZM10.7464 7.93401C10.806 7.99363 10.8767 8.04093 10.9546 8.07319L11.146 7.61126C11.1288 7.60412 11.1131 7.59366 11.0999 7.58047L10.7464 7.93401ZM7.86636 5.05402L10.7464 7.93402L11.0999 7.58046L8.21992 4.70047L7.86636 5.05402ZM7.67871 4.60044C7.67871 4.7704 7.74611 4.93343 7.86612 5.05377L8.22016 4.70071C8.19362 4.67409 8.17871 4.63803 8.17871 4.60044H7.67871ZM7.86612 4.14711C7.74611 4.26746 7.67871 4.43048 7.67871 4.60044H8.17871C8.17871 4.56285 8.19362 4.52679 8.22016 4.50017L7.86612 4.14711ZM8.10636 3.90687L7.86636 4.14687L8.21992 4.50042L8.45992 4.26042L8.10636 3.90687ZM9.99167 3.15983C9.29152 3.15216 8.61619 3.41893 8.1103 3.90301L8.45598 4.26427C8.86745 3.87054 9.41672 3.65356 9.98619 3.6598L9.99167 3.15983ZM11.8563 3.94405C11.3611 3.449 10.6918 3.1675 9.99167 3.15983L9.98619 3.6598C10.5557 3.66604 11.1 3.89499 11.5028 4.29764L11.8563 3.94405ZM12.641 5.8085C12.6331 5.10835 12.3515 4.4391 11.8563 3.94405L11.5028 4.29764C11.9055 4.70029 12.1346 5.24463 12.141 5.81409L12.641 5.8085ZM11.8982 7.69004C12.3822 7.18403 12.6488 6.50865 12.641 5.8085L12.141 5.8141C12.1474 6.38356 11.9305 6.93288 11.5369 7.34444L11.8982 7.69004ZM11.6543 7.93402L11.8943 7.69402L11.5408 7.34046L11.3008 7.58046L11.6543 7.93402ZM4.60091 7.37817C4.85071 7.37817 5.09029 7.4774 5.26694 7.65402L5.62047 7.30044C5.35005 7.03006 4.98331 6.87817 4.60091 6.87817V7.37817ZM3.93487 7.65402C4.11152 7.4774 4.3511 7.37817 4.60091 7.37817V6.87817C4.21851 6.87817 3.85176 7.03006 3.58134 7.30044L3.93487 7.65402ZM3.69488 7.89401L3.93488 7.65401L3.58133 7.30045L3.34133 7.54045L3.69488 7.89401ZM2.82806 9.81533C2.87318 9.09065 3.18143 8.40741 3.69487 7.89402L3.34134 7.54045C2.74171 8.14001 2.38172 8.93794 2.32902 9.78426L2.82806 9.81533ZM3.44984 11.8293C3.00405 11.2562 2.78293 10.54 2.82806 9.81533L2.32902 9.78426C2.27633 10.6306 2.53455 11.467 3.05517 12.1363L3.44984 11.8293ZM1.29405 14.294L3.42925 12.1596L3.07576 11.806L0.940562 13.9404L1.29405 14.294ZM1.25 14.4004C1.25 14.3605 1.26586 14.3222 1.29408 14.294L0.940529 13.9405C0.818535 14.0624 0.75 14.2279 0.75 14.4004H1.25ZM1.29408 14.5069C1.26586 14.4786 1.25 14.4403 1.25 14.4004H0.75C0.75 14.573 0.818535 14.7384 0.940528 14.8604L1.29408 14.5069ZM1.40051 14.5509C1.36059 14.5509 1.32231 14.5351 1.29408 14.5069L0.940529 14.8604C1.06252 14.9824 1.22798 15.0509 1.40051 15.0509V14.5509ZM1.50693 14.5069C1.4787 14.5351 1.44042 14.5509 1.40051 14.5509L1.4005 15.0509C1.57303 15.0509 1.73849 14.9824 1.86048 14.8604L1.50693 14.5069ZM3.6413 12.3717L1.5069 14.5069L1.86052 14.8604L3.99492 12.7252L3.6413 12.3717ZM5.9856 12.9729C5.26092 13.018 4.54472 12.7969 3.9716 12.3511L3.66461 12.7458C4.33393 13.2664 5.17036 13.5246 6.01668 13.4719L5.9856 12.9729ZM7.90692 12.1061C7.39353 12.6195 6.71028 12.9278 5.9856 12.9729L6.01668 13.4719C6.86299 13.4192 7.66092 13.0592 8.26049 12.4596L7.90692 12.1061ZM8.14693 11.8661L7.90693 12.1061L8.26048 12.4596L8.50048 12.2196L8.14693 11.8661ZM8.42276 11.2C8.42276 11.4498 8.32354 11.6894 8.14691 11.8661L8.5005 12.2196C8.77087 11.9492 8.92276 11.5824 8.92276 11.2H8.42276ZM8.14691 10.534C8.32354 10.7106 8.42276 10.9502 8.42276 11.2H8.92276C8.92276 10.8176 8.77087 10.4509 8.5005 10.1805L8.14691 10.534ZM5.26693 7.65401L8.14693 10.534L8.50048 10.1805L5.62048 7.30045L5.26693 7.65401ZM4.35521 7.72768C4.27731 7.75995 4.20654 7.80724 4.14692 7.86686L4.50049 8.2204C4.51368 8.20721 4.52933 8.19675 4.54656 8.18961L4.35521 7.72768ZM4.60091 7.6788C4.51659 7.6788 4.4331 7.69541 4.35521 7.72768L4.54656 8.18961C4.56379 8.18248 4.58226 8.1788 4.60091 8.1788V7.6788ZM4.8466 7.72768C4.76871 7.69541 4.68522 7.6788 4.60091 7.6788V8.1788C4.61955 8.1788 4.63802 8.18248 4.65525 8.18961L4.8466 7.72768ZM5.05489 7.86686C4.99527 7.80724 4.9245 7.75995 4.8466 7.72768L4.65525 8.18961C4.67248 8.19675 4.68813 8.20721 4.70132 8.2204L5.05489 7.86686ZM7.93488 10.7469L5.05488 7.86685L4.70133 8.22041L7.58133 11.1004L7.93488 10.7469ZM8.12253 11.2004C8.12253 11.0305 8.05514 10.8674 7.93513 10.7471L7.58108 11.1002C7.60763 11.1268 7.62253 11.1628 7.62253 11.2004H8.12253ZM7.93513 11.6538C8.05514 11.5334 8.12253 11.3704 8.12253 11.2004H7.62253C7.62253 11.238 7.60763 11.2741 7.58108 11.3007L7.93513 11.6538ZM7.69488 11.894L7.93488 11.654L7.58133 11.3005L7.34133 11.5405L7.69488 11.894ZM6.8261 12.4747C7.15102 12.34 7.44624 12.1427 7.6949 11.894L7.34131 11.5405C7.13907 11.7428 6.89896 11.9032 6.6347 12.0127L6.8261 12.4747ZM5.80122 12.6786C6.15292 12.6786 6.50118 12.6093 6.8261 12.4747L6.6347 12.0127C6.37044 12.1222 6.0872 12.1786 5.80116 12.1786L5.80122 12.6786ZM4.77629 12.4749C5.10124 12.6094 5.44951 12.6787 5.80122 12.6786L5.80116 12.1786C5.51511 12.1787 5.23186 12.1224 4.96758 12.0129L4.77629 12.4749ZM3.90735 11.8944C4.15607 12.1431 4.45134 12.3403 4.77629 12.4749L4.96758 12.0129C4.70329 11.9035 4.46315 11.7431 4.26086 11.5408L3.90735 11.8944ZM3.32669 11.0256C3.46132 11.3505 3.65863 11.6458 3.90735 11.8944L4.26086 11.5408C4.05857 11.3386 3.8981 11.0985 3.7886 10.8342L3.32669 11.0256ZM3.1227 10.0007C3.12274 10.3525 3.19206 10.7007 3.32669 11.0256L3.7886 10.8342C3.67911 10.57 3.62273 10.2867 3.6227 10.0007L3.1227 10.0007ZM3.90691 8.10688C3.40471 8.60919 3.12262 9.29044 3.1227 10.0007L3.6227 10.0007C3.62263 9.42299 3.85206 8.86893 4.2605 8.46039L3.90691 8.10688ZM4.14693 7.86685L3.90693 8.10685L4.26048 8.46041L4.50048 8.22041L4.14693 7.86685ZM4.14373 3.65039C4.11092 3.65039 4.07943 3.63744 4.05611 3.61435L4.40792 3.25906C4.33761 3.18944 4.24267 3.15039 4.14373 3.15039V3.65039ZM4.23136 3.61435C4.20804 3.63744 4.17655 3.65039 4.14373 3.65039V3.15039C4.0448 3.15039 3.94986 3.18944 3.87955 3.25906L4.23136 3.61435ZM3.61348 4.23223L4.23223 3.61348L3.87868 3.25993L3.25993 3.87868L3.61348 4.23223ZM3.65039 4.14373C3.65039 4.17655 3.63744 4.20804 3.61435 4.23136L3.25906 3.87955C3.18944 3.94986 3.15039 4.0448 3.15039 4.14373H3.65039ZM3.61435 4.05611C3.63744 4.07943 3.65039 4.11092 3.65039 4.14373H3.15039C3.15039 4.24267 3.18944 4.33761 3.25906 4.40792L3.61435 4.05611ZM12.276 12.7177L3.61348 4.05524L3.25993 4.40879L11.9224 13.0713L12.276 12.7177ZM12.099 12.7177C12.1482 12.6685 12.2268 12.6685 12.276 12.7177L11.9224 13.0713C12.0685 13.2174 12.3065 13.2174 12.4525 13.0713L12.099 12.7177ZM12.7177 12.099L12.099 12.7177L12.4525 13.0713L13.0713 12.4525L12.7177 12.099ZM12.7177 12.276C12.6685 12.2268 12.6685 12.1482 12.7177 12.099L13.0713 12.4525C13.2174 12.3065 13.2174 12.0685 13.0713 11.9224L12.7177 12.276ZM4.05524 3.61348L12.7177 12.276L13.0713 11.9224L4.40879 3.25993L4.05524 3.61348Z" fill="url(#paint1_linear)"/>
<defs>
<linearGradient id="paint0_linear" x1="0.997979" y1="7.69598" x2="14.7981" y2="7.69598" gradientUnits="userSpaceOnUse">
<stop stop-color="#FD3A84"/>
<stop offset="1" stop-color="#FFA68D"/>
</linearGradient>
<linearGradient id="paint1_linear" x1="0.997979" y1="7.69598" x2="14.7981" y2="7.69598" gradientUnits="userSpaceOnUse">
<stop stop-color="#FD3A84"/>
<stop offset="1" stop-color="#FFA68D"/>
</linearGradient>
</defs>
</svg>
