<svg width="16" height="16" viewBox="0 0 16 16" fill="none" xmlns="http://www.w3.org/2000/svg">
<g clip-path="url(#clip0_625_56)">
<path d="M8.52531 5.23828C8.31722 5.23828 8.14389 5.39783 8.12668 5.60521L8.06041 6.40406C8.04757 6.55883 7.9456 6.69064 7.80347 6.75323C7.52075 6.87772 7.25251 7.03281 7.00356 7.21572C6.87829 7.30777 6.71299 7.33032 6.57238 7.26403L5.84681 6.92197C5.6586 6.83323 5.4338 6.90362 5.32979 7.08384L4.35188 8.77838C4.24792 8.95852 4.29936 9.18828 4.47021 9.30689L5.12728 9.76305C5.25526 9.85191 5.31832 10.0068 5.30082 10.1616C5.28356 10.3143 5.27463 10.4679 5.27408 10.6216C5.27403 10.777 5.28254 10.9322 5.29954 11.0865C5.31657 11.241 5.25343 11.3954 5.12571 11.484L4.4704 11.9385C4.29946 12.0571 4.24796 12.2869 4.35195 12.4671L5.32981 14.1616C5.43381 14.3418 5.65859 14.4122 5.8468 14.3235L6.56916 13.983C6.70926 13.9169 6.87393 13.9391 6.99907 14.0304C7.24907 14.2127 7.51832 14.367 7.80198 14.4906C7.94492 14.5529 8.04762 14.685 8.06051 14.8404L8.12668 15.6381C8.14389 15.8455 8.31722 16.005 8.52531 16.005H10.4807C10.6887 16.005 10.8621 15.8455 10.8793 15.6381L10.9455 14.8413C10.9584 14.6865 11.0603 14.5548 11.2024 14.4922C11.4852 14.3677 11.7534 14.2126 12.0024 14.0297C12.1276 13.9376 12.2929 13.9151 12.4336 13.9814L13.1591 14.3234C13.3473 14.4122 13.5721 14.3418 13.6761 14.1616L14.6541 12.467C14.758 12.2869 14.7066 12.0571 14.5357 11.9385L13.8793 11.4828C13.751 11.3937 13.688 11.2382 13.7059 11.083C13.7237 10.9299 13.733 10.7759 13.734 10.6216C13.7335 10.4672 13.7246 10.313 13.7072 10.1596C13.6897 10.0048 13.7528 9.84981 13.8809 9.76097L14.5355 9.30686C14.7065 9.18828 14.758 8.95845 14.654 8.77826L13.6761 7.08381C13.5721 6.9036 13.3473 6.83321 13.1591 6.92193L12.4369 7.26235C12.2967 7.32842 12.132 7.30621 12.0068 7.21485C11.7573 7.03268 11.4885 6.8784 11.2054 6.75478C11.0628 6.69253 10.9603 6.56068 10.9472 6.40566L10.8797 5.60467C10.8622 5.39752 10.689 5.23828 10.4811 5.23828H8.52531ZM9.50297 9.08444C9.70498 9.08429 9.90504 9.12393 10.0917 9.2011C10.2784 9.27827 10.4481 9.39146 10.591 9.53421C10.734 9.67695 10.8474 9.84646 10.9248 10.033C11.0022 10.2196 11.0421 10.4196 11.0423 10.6216C11.0424 10.8238 11.0027 11.0241 10.9254 11.2109C10.8481 11.3977 10.7347 11.5675 10.5918 11.7104C10.4488 11.8534 10.279 11.9668 10.0922 12.0441C9.90539 12.1214 9.70515 12.1611 9.50297 12.161C9.30096 12.1608 9.10095 12.1209 8.91436 12.0435C8.72778 11.9661 8.55827 11.8526 8.41553 11.7097C8.27278 11.5668 8.15959 11.3971 8.08242 11.2104C8.00525 11.0237 7.96561 10.8237 7.96576 10.6216C7.96601 10.214 8.12804 9.82318 8.41627 9.53495C8.7045 9.24672 9.09535 9.08469 9.50297 9.08444Z" fill="url(#paint0_linear_625_56)"/>
<path fill-rule="evenodd" clip-rule="evenodd" d="M4.41812 0.0859224C4.35879 0.000510353 4.2439 -0.0251822 4.15385 0.0268219L3.07411 0.650307C2.98404 0.702321 2.94886 0.814697 2.99322 0.908783L3.22437 1.39916C3.25744 1.4693 3.24641 1.55182 3.20002 1.61395C3.07904 1.77598 2.97786 1.95189 2.89863 2.13794C2.86817 2.20947 2.80214 2.26056 2.72467 2.26706L2.18327 2.31251C2.07966 2.32121 2 2.40784 2 2.51181V3.75899C2 3.86296 2.07966 3.94959 2.18327 3.95829L2.72407 4.00369C2.80185 4.01022 2.86807 4.06169 2.89836 4.13362C2.9376 4.22682 2.9824 4.31762 3.03251 4.40554C3.08312 4.49324 3.13892 4.5778 3.19959 4.65878C3.24621 4.721 3.25731 4.80377 3.22408 4.87406L2.99339 5.36212C2.94894 5.45615 2.98398 5.56856 3.074 5.62067L4.15377 6.2458C4.24384 6.29795 4.35886 6.2723 4.41824 6.18681L4.72865 5.73993C4.77283 5.67632 4.8497 5.64464 4.92663 5.65367C5.12726 5.67725 5.32999 5.67679 5.53052 5.6523C5.60785 5.64285 5.68529 5.67461 5.72965 5.73866L6.03988 6.18663C6.09915 6.27221 6.21416 6.29801 6.30431 6.24596L7.38399 5.6225C7.474 5.57053 7.50919 5.45828 7.46497 5.36422L7.23352 4.87187C7.20049 4.80161 7.21167 4.719 7.25826 4.6569C7.37983 4.49483 7.48157 4.31878 7.56128 4.13253C7.59182 4.06118 7.65777 4.01026 7.7351 4.00377L8.27677 3.95829C8.38037 3.94959 8.46004 3.86296 8.46004 3.75899V2.51226C8.46004 2.40811 8.38009 2.32138 8.27628 2.31292L7.73634 2.26893C7.65837 2.26258 7.59191 2.21106 7.56154 2.13897C7.52233 2.04588 7.47758 1.95519 7.42752 1.86737C7.37646 1.77964 7.32019 1.69508 7.25903 1.61415C7.21202 1.55193 7.20067 1.46892 7.23392 1.39839L7.46472 0.908783C7.50907 0.814697 7.4739 0.702321 7.38382 0.650307L6.30419 0.0268791C6.21409 -0.0251487 6.09915 0.000593385 6.03984 0.0860812L5.73141 0.530708C5.68722 0.59441 5.61027 0.626136 5.53327 0.617059C5.33194 0.593324 5.12849 0.593799 4.92727 0.618473C4.85001 0.627946 4.77263 0.59629 4.72822 0.532362L4.41812 0.0859224ZM5.20726 2.21438C5.37304 2.21018 5.5369 2.25073 5.68159 2.33177C5.82627 2.41281 5.94645 2.53135 6.02948 2.67491C6.15147 2.88687 6.18433 3.13859 6.12085 3.37478C6.05737 3.61096 5.90274 3.81228 5.69092 3.93453C5.47921 4.05669 5.22768 4.08988 4.99152 4.0268C4.75537 3.96372 4.55389 3.80953 4.4313 3.59807C4.37048 3.49315 4.33093 3.37727 4.31493 3.25705C4.29892 3.13684 4.30677 3.01465 4.33802 2.89747C4.36926 2.78029 4.4233 2.67042 4.49704 2.57414C4.57078 2.47785 4.66277 2.39705 4.76776 2.33634C4.90174 2.25955 5.05286 2.21762 5.20726 2.21438Z" fill="url(#paint1_linear_625_56)"/>
</g>
<defs>
<linearGradient id="paint0_linear_625_56" x1="9.03899" y1="15.7158" x2="10.2661" y2="5.98972" gradientUnits="userSpaceOnUse">
<stop stop-color="#8D01A2"/>
<stop offset="1" stop-color="#FF33DB"/>
</linearGradient>
<linearGradient id="paint1_linear_625_56" x1="3.17088" y1="5.53224" x2="8.84761" y2="0.431327" gradientUnits="userSpaceOnUse">
<stop stop-color="#FE0844"/>
<stop offset="1" stop-color="#FEB302"/>
</linearGradient>
<clipPath id="clip0_625_56">
<rect width="16" height="16" fill="white"/>
</clipPath>
</defs>
</svg>
