<svg width="64" height="64" viewBox="0 0 64 64" fill="none" xmlns="http://www.w3.org/2000/svg">
<path d="M27.4297 53.2568L27.5542 52.6554C27.8111 51.4141 26.8633 50.25 25.5957 50.25H24.9816H14C12.8954 50.25 12 49.3546 12 48.25V40.015C12 38.7116 13.227 37.7626 14.5115 37.9837C15.53 38.1591 16.3972 38.25 17 38.25C20.448 38.25 23.25 35.448 23.25 32C23.25 28.552 20.448 25.75 17 25.75C16.3972 25.75 15.53 25.8409 14.5115 26.0163C13.227 26.2374 12 25.2884 12 23.985V15.75C12 14.6454 12.8954 13.75 14 13.75H24.9816H25.5957C26.8633 13.75 27.8111 12.5859 27.5542 11.3446L27.4297 10.7432C27.1381 9.3343 27 8.18818 27 7.5C27 4.74434 29.2443 2.5 32 2.5C34.7557 2.5 37 4.74434 37 7.5C37 8.18818 36.8619 9.3343 36.5703 10.7432L36.4458 11.3446C36.1889 12.5859 37.1367 13.75 38.4043 13.75H39.0184H50C51.1046 13.75 52 14.6454 52 15.75V23.985C52 25.2884 50.773 26.2374 49.4885 26.0163C48.47 25.8409 47.6028 25.75 47 25.75C43.552 25.75 40.75 28.552 40.75 32C40.75 35.448 43.552 38.25 47 38.25C47.6028 38.25 48.47 38.1591 49.4885 37.9837C50.773 37.7626 52 38.7116 52 40.015V48.25C52 49.3546 51.1046 50.25 50 50.25H39.0184H38.4043C37.1368 50.25 36.189 51.414 36.4458 52.6552L36.5702 53.2566C36.8618 54.6658 37 55.8119 37 56.5C37 59.2557 34.7557 61.5 32 61.5C29.2443 61.5 27 59.2557 27 56.5C27 55.8118 27.1381 54.6657 27.4297 53.2568Z" fill="url(#paint0_linear_621_8)" stroke="url(#paint1_linear_621_8)" stroke-width="5"/>
<defs>
<linearGradient id="paint0_linear_621_8" x1="32" y1="61.5" x2="32" y2="2.5" gradientUnits="userSpaceOnUse">
<stop stop-color="#02AA93"/>
<stop offset="1" stop-color="#67FF80"/>
</linearGradient>
<linearGradient id="paint1_linear_621_8" x1="32" y1="64" x2="32" y2="0" gradientUnits="userSpaceOnUse">
<stop stop-color="#02AA93"/>
<stop offset="1" stop-color="#67FF80"/>
</linearGradient>
</defs>
</svg>
