<svg width="16" height="16" viewBox="0 0 16 16" fill="none" xmlns="http://www.w3.org/2000/svg">
<g clip-path="url(#clip0_624_39)">
<path d="M14.4671 1.28284C14.3109 1.12663 14.0576 1.12663 13.9014 1.28284L11.375 3.80928C11.2188 3.96549 10.9655 3.96549 10.8093 3.80928L10.1331 3.1331C9.97689 2.97689 9.72363 2.97689 9.56742 3.1331L3.1331 9.56742C2.97689 9.72363 2.97689 9.97689 3.1331 10.1331L3.80928 10.8093C3.96549 10.9655 3.96549 11.2188 3.80928 11.375L1.28284 13.9014C1.12663 14.0576 1.12663 14.3109 1.28284 14.4671L1.53291 14.7172C1.68912 14.8734 1.94239 14.8734 2.0986 14.7172L4.62503 12.1907C4.78124 12.0345 5.03451 12.0345 5.19072 12.1907L5.8669 12.8669C6.02311 13.0231 6.27637 13.0231 6.43258 12.8669L12.8669 6.43258C13.0231 6.27637 13.0231 6.02311 12.8669 5.8669L12.1907 5.19072C12.0345 5.03451 12.0345 4.78124 12.1907 4.62503L14.7172 2.0986C14.8734 1.94239 14.8734 1.68912 14.7172 1.53291L14.4671 1.28284Z" fill="url(#paint0_linear_624_39)" stroke="url(#paint1_linear_624_39)" stroke-width="0.6"/>
</g>
<defs>
<linearGradient id="paint0_linear_624_39" x1="7.99999" y1="15" x2="7.99999" y2="0.999999" gradientUnits="userSpaceOnUse">
<stop stop-color="#02AA93"/>
<stop offset="1" stop-color="#67FF80"/>
</linearGradient>
<linearGradient id="paint1_linear_624_39" x1="7.99999" y1="15" x2="7.99999" y2="0.999999" gradientUnits="userSpaceOnUse">
<stop stop-color="#02AA93"/>
<stop offset="1" stop-color="#67FF80"/>
</linearGradient>
<clipPath id="clip0_624_39">
<rect width="16" height="16" fill="white"/>
</clipPath>
</defs>
</svg>
