<svg width="16" height="16" viewBox="0 0 16 16" fill="none" xmlns="http://www.w3.org/2000/svg">
<path d="M6.62768 1.93455C6.36239 1.75089 6 1.94076 6 2.26343V3.6C6 3.82091 5.82091 4 5.6 4H5C2 4 0 6 0 9C0 11.3624 1.72254 12.7774 2.90686 13.4711C3.23992 13.6662 3.55653 13.299 3.37034 12.9609C2.95986 12.2155 2.5 11.2198 2.5 10.5C2.5 9.2 4 8 5.5 8H5.6C5.82091 8 6 8.17909 6 8.4V9.73657C6 10.0592 6.36239 10.2491 6.62768 10.0654L12.025 6.32888C12.2547 6.16982 12.2547 5.83018 12.025 5.67112L6.62768 1.93455Z" fill="url(#paint0_linear_622_51)"/>
<path d="M15.525 5.67112L10.1277 1.93455C9.86239 1.75089 9.5 1.94076 9.5 2.26343V2.67521C9.5 2.80647 9.5644 2.92938 9.67233 3.00409L13.5249 5.67112C13.7547 5.83018 13.7547 6.16982 13.5249 6.32888L9.67233 8.9959C9.5644 9.07062 9.5 9.19353 9.5 9.32479V9.73657C9.5 10.0592 9.86239 10.2491 10.1277 10.0654L15.525 6.32888C15.7547 6.16982 15.7547 5.83018 15.525 5.67112Z" fill="url(#paint1_linear_622_51)"/>
<defs>
<linearGradient id="paint0_linear_622_51" x1="12.5" y1="14" x2="-2.5829" y2="7.42602" gradientUnits="userSpaceOnUse">
<stop stop-color="#0357D1"/>
<stop offset="1" stop-color="#27CDFC"/>
</linearGradient>
<linearGradient id="paint1_linear_622_51" x1="12.75" y1="10.5" x2="12.75" y2="1.5" gradientUnits="userSpaceOnUse">
<stop stop-color="#02AA93"/>
<stop offset="1" stop-color="#67FF80"/>
</linearGradient>
</defs>
</svg>
