<svg width="16" height="16" viewBox="0 0 16 16" fill="none" xmlns="http://www.w3.org/2000/svg">
<path d="M9.37232 1.93455C9.63761 1.75089 10 1.94076 10 2.26343V3.6C10 3.82091 10.1791 4 10.4 4H11C14 4 16 6 16 9C16 11.3624 14.2775 12.7774 13.0931 13.4711C12.7601 13.6662 12.4435 13.299 12.6297 12.9609C13.0401 12.2155 13.5 11.2198 13.5 10.5C13.5 9.2 12 8 10.5 8H10.4C10.1791 8 10 8.17909 10 8.4V9.73657C10 10.0592 9.63761 10.2491 9.37232 10.0654L3.97504 6.32888C3.74529 6.16982 3.74529 5.83018 3.97504 5.67112L9.37232 1.93455Z" fill="url(#paint0_linear_622_51)"/>
<path d="M0.475044 5.67112L5.87232 1.93455C6.13761 1.75089 6.5 1.94076 6.5 2.26343V2.67521C6.5 2.80647 6.4356 2.92938 6.32767 3.00409L2.47508 5.67112C2.24531 5.83018 2.24531 6.16982 2.47508 6.32888L6.32767 8.9959C6.4356 9.07062 6.5 9.19353 6.5 9.32479V9.73657C6.5 10.0592 6.13761 10.2491 5.87232 10.0654L0.475044 6.32888C0.24529 6.16982 0.245289 5.83018 0.475044 5.67112Z" fill="url(#paint1_linear_622_51)"/>
<defs>
<linearGradient id="paint0_linear_622_51" x1="3.5" y1="14" x2="18.5829" y2="7.42602" gradientUnits="userSpaceOnUse">
<stop stop-color="#0357D1"/>
<stop offset="1" stop-color="#27CDFC"/>
</linearGradient>
<linearGradient id="paint1_linear_622_51" x1="3.25" y1="10.5" x2="3.25" y2="1.5" gradientUnits="userSpaceOnUse">
<stop stop-color="#02AA93"/>
<stop offset="1" stop-color="#67FF80"/>
</linearGradient>
</defs>
</svg>
