<svg width="16" height="16" viewBox="0 0 16 16" fill="none" xmlns="http://www.w3.org/2000/svg">
<path d="M1.5 1C1.22386 1 1 1.22386 1 1.5V14.5C1 14.7761 1.22386 15 1.5 15H7.5C7.77614 15 8 14.7761 8 14.5V14.3333C8 14.0572 7.77614 13.8333 7.5 13.8333H2.66667C2.39052 13.8333 2.16667 13.6095 2.16667 13.3333V5C2.16667 4.72386 2.39052 4.5 2.66667 4.5H13.3333C13.6095 4.5 13.8333 4.72386 13.8333 5V7.5C13.8333 7.77614 14.0572 8 14.3333 8H14.5C14.7761 8 15 7.77614 15 7.5V1.5C15 1.22386 14.7761 1 14.5 1H13.1667C12.8905 1 12.6667 1.22386 12.6667 1.5V2.83333C12.6667 3.10948 12.4428 3.33333 12.1667 3.33333H10.8333C10.5572 3.33333 10.3333 3.10948 10.3333 2.83333V1.5C10.3333 1.22386 10.1095 1 9.83333 1H6.16667C5.89052 1 5.66667 1.22386 5.66667 1.5V2.83333C5.66667 3.10948 5.44281 3.33333 5.16667 3.33333H3.83333C3.55719 3.33333 3.33333 3.10948 3.33333 2.83333V1.5C3.33333 1.22386 3.10948 1 2.83333 1H1.5ZM3.83333 5.66667C3.55719 5.66667 3.33333 5.89052 3.33333 6.16667V7.5C3.33333 7.77614 3.55719 8 3.83333 8H5.16667C5.44281 8 5.66667 7.77614 5.66667 7.5V6.16667C5.66667 5.89052 5.44281 5.66667 5.16667 5.66667H3.83333ZM7.33333 5.66667C7.05719 5.66667 6.83333 5.89052 6.83333 6.16667V7.5C6.83333 7.77614 7.05719 8 7.33333 8H8.66667C8.94281 8 9.16667 7.77614 9.16667 7.5V6.16667C9.16667 5.89052 8.94281 5.66667 8.66667 5.66667H7.33333ZM10.8333 5.66667C10.5572 5.66667 10.3333 5.89052 10.3333 6.16667V7.5C10.3333 7.77614 10.5572 8 10.8333 8H12.1667C12.4428 8 12.6667 7.77614 12.6667 7.5V6.16667C12.6667 5.89052 12.4428 5.66667 12.1667 5.66667H10.8333ZM3.83333 9.16667C3.55719 9.16667 3.33333 9.39052 3.33333 9.66667V11C3.33333 11.2761 3.55719 11.5 3.83333 11.5H5.16667C5.44281 11.5 5.66667 11.2761 5.66667 11V9.66667C5.66667 9.39052 5.44281 9.16667 5.16667 9.16667H3.83333Z" fill="url(#paint0_linear)"/>
<path d="M11.5 11V9.66663C11.5 9.39048 11.7238 9.16663 12 9.16663H12.1666C12.4428 9.16663 12.6666 9.39048 12.6666 9.66663V11C12.6666 11.2761 12.8905 11.5 13.1666 11.5H14.5C14.7761 11.5 15 11.7238 15 12V12.1666C15 12.4428 14.7761 12.6666 14.5 12.6666H13.1666C12.8905 12.6666 12.6666 12.8905 12.6666 13.1666V14.5C12.6666 14.7761 12.4428 15 12.1666 15H12C11.7238 15 11.5 14.7761 11.5 14.5V13.1666C11.5 12.8905 11.2761 12.6666 11 12.6666H9.66663C9.39048 12.6666 9.16663 12.4428 9.16663 12.1666V12C9.16663 11.7238 9.39048 11.5 9.66663 11.5H11C11.2761 11.5 11.5 11.2761 11.5 11Z" fill="url(#paint1_linear)"/>
<defs>
<linearGradient id="paint0_linear" x1="2" y1="8" x2="13.3613" y2="6.7445" gradientUnits="userSpaceOnUse">
<stop stop-color="#8D01A2"/>
<stop offset="1" stop-color="#FF00D2"/>
</linearGradient>
<linearGradient id="paint1_linear" x1="12.0833" y1="9.16663" x2="12.0833" y2="15" gradientUnits="userSpaceOnUse">
<stop stop-color="#97EB0E"/>
<stop offset="1" stop-color="#19B90B"/>
</linearGradient>
</defs>
</svg>
