<svg width="16" height="16" viewBox="0 0 16 16" fill="none" xmlns="http://www.w3.org/2000/svg">
<path fill-rule="evenodd" clip-rule="evenodd" d="M0 1.5C0 0.94772 0.44772 0.5 1 0.5H4.99771L5 0.50229C5 0.50433 5.00246 0.50535 5.00391 0.50391L5.00552 0.50229H5.0101L6.71492 2.20711C6.90245 2.39464 7.15681 2.5 7.42202 2.5H11C11.5523 2.5 12 2.94772 12 3.5V5.5H11.422C11.1568 5.5 10.9024 5.39464 10.7149 5.20711L9.0101 3.50229H9.00552L9.00391 3.50391C9.00246 3.50535 9 3.50433 9 3.50229L8.99771 3.5H5C4.44772 3.5 4 3.94772 4 4.5V5.5H2C1.44772 5.5 1 5.94772 1 6.5V10.5C1 11.0523 1.44772 11.5 2 11.5H4V12.5H1C0.44772 12.5 0 12.0523 0 11.5V1.5ZM2 1.5C1.44772 1.5 1 1.94772 1 2.5V3.5C1 4.05228 1.44771 4.5 2 4.5H2.57798C2.84319 4.5 3.09755 4.39464 3.28508 4.20711L4.9899 2.50229H4.99448L4.99609 2.50391C4.99754 2.50535 5 2.50433 5 2.50229L5.00229 2.5H5.17374C5.3286 2.5 5.40608 2.31269 5.29647 2.20329L4.73819 1.6461C4.64445 1.55254 4.51742 1.5 4.38498 1.5H2Z" fill="url(#paint0_linear)"/>
<path d="M5 3.5C4.44772 3.5 4 3.94772 4 4.5V7.5V8.5V14.5C4 15.0523 4.44772 15.5 5 15.5H15C15.5523 15.5 16 15.0523 16 14.5V7.5V6.5C16 5.94772 15.5523 5.5 15 5.5H11.422C11.1568 5.5 10.9025 5.39464 10.7149 5.20711L9.0101 3.50229C9.00883 3.50102 9.00679 3.50102 9.00552 3.50229L9.00391 3.50391C9.00246 3.50535 9 3.50433 9 3.50229C9 3.50102 8.99898 3.5 8.99771 3.5H5ZM5 5.5C5 4.94772 5.44772 4.5 6 4.5H8.38498C8.51742 4.5 8.64445 4.55254 8.73819 4.6461L9.29647 5.20329C9.40608 5.31269 9.3286 5.5 9.17374 5.5H9.00229C9.00102 5.5 9 5.50102 9 5.50229C9 5.50433 8.99754 5.50535 8.99609 5.50391L8.99448 5.50229C8.99321 5.50102 8.99117 5.50102 8.9899 5.50229L7.28508 7.20711C7.09755 7.39464 6.84319 7.5 6.57798 7.5H6C5.44771 7.5 5 7.05228 5 6.5V5.5ZM5 9.5C5 8.94772 5.44772 8.5 6 8.5H14C14.5523 8.5 15 8.94772 15 9.5V13.5C15 14.0523 14.5523 14.5 14 14.5H6C5.44772 14.5 5 14.0523 5 13.5V9.5Z" fill="url(#paint1_linear)"/>
<defs>
<linearGradient id="paint0_linear" x1="6" y1="12.5" x2="6" y2="0.5" gradientUnits="userSpaceOnUse">
<stop stop-color="#5570FF"/>
<stop offset="1" stop-color="#4DD3FF"/>
</linearGradient>
<linearGradient id="paint1_linear" x1="10" y1="15.5" x2="10" y2="3.5" gradientUnits="userSpaceOnUse">
<stop stop-color="#02AA93"/>
<stop offset="1" stop-color="#67FF80"/>
</linearGradient>
</defs>
</svg>
