<svg width="512" height="512" viewBox="0 0 512 512" fill="none" xmlns="http://www.w3.org/2000/svg">
<path d="M437.333 341.333H352C349.171 341.333 346.458 342.457 344.457 344.458C342.457 346.458 341.333 349.171 341.333 352C341.333 354.829 342.457 357.542 344.457 359.543C346.458 361.543 349.171 362.667 352 362.667H415.488C398 388.853 374.338 410.335 346.588 425.216C318.837 440.098 287.851 447.922 256.363 448C228.569 448.019 201.102 442.009 175.855 430.385C150.609 418.761 128.184 401.799 110.127 380.67C92.0701 359.541 78.8108 334.747 71.2635 307.997C63.7162 281.248 62.0605 253.179 66.4105 225.728C66.7496 222.993 66.0168 220.233 64.3659 218.026C62.7149 215.819 60.2738 214.337 57.5542 213.89C54.8347 213.443 52.0477 214.067 49.7774 215.629C47.5071 217.192 45.9298 219.572 45.3759 222.272C43.5673 233.424 42.6612 244.703 42.6665 256C42.7945 373.76 138.24 469.205 256 469.333C289.114 469.321 321.772 461.607 351.392 446.801C381.012 431.994 406.783 410.502 426.667 384.021V437.355C426.667 440.184 427.79 442.897 429.791 444.897C431.791 446.898 434.504 448.021 437.333 448.021C440.162 448.021 442.875 446.898 444.876 444.897C446.876 442.897 448 440.184 448 437.355V351.979C447.994 349.154 446.868 346.446 444.868 344.45C442.868 342.454 440.159 341.333 437.333 341.333ZM357.056 68.1814C262.827 17.4508 147.648 44.9494 85.3332 128.064V74.6668C85.3332 71.8378 84.2094 69.1247 82.209 67.1243C80.2086 65.1239 77.4955 64.0001 74.6665 64.0001C71.8376 64.0001 69.1244 65.1239 67.1241 67.1243C65.1237 69.1247 63.9999 71.8378 63.9999 74.6668V160C63.9999 162.829 65.1237 165.542 67.1241 167.543C69.1244 169.543 71.8376 170.667 74.6665 170.667H160C162.829 170.667 165.542 169.543 167.542 167.543C169.543 165.542 170.667 162.829 170.667 160C170.667 157.171 169.543 154.458 167.542 152.458C165.542 150.457 162.829 149.333 160 149.333H96.5119C113.999 123.147 137.662 101.666 165.412 86.784C193.163 71.9025 224.148 64.0778 255.637 64.0001C283.433 63.9836 310.902 69.9967 336.15 81.6245C361.397 93.2524 383.822 110.218 401.877 131.352C419.932 152.486 433.188 177.285 440.731 204.038C448.274 230.791 449.924 258.862 445.568 286.315C445.344 287.697 445.394 289.111 445.716 290.474C446.038 291.837 446.626 293.123 447.445 294.259C448.264 295.395 449.299 296.359 450.49 297.095C451.682 297.831 453.007 298.325 454.389 298.549C455.772 298.774 457.185 298.723 458.548 298.401C459.911 298.079 461.197 297.492 462.333 296.673C463.47 295.854 464.433 294.819 465.169 293.627C465.906 292.436 466.4 291.111 466.624 289.728C468.432 278.577 469.339 267.297 469.333 256C469.304 217.477 458.852 179.679 439.085 146.613C419.319 113.548 390.974 86.4462 357.056 68.1814Z" fill="url(#paint0_linear)" stroke="url(#paint1_linear)" stroke-width="8"/>
<path fill-rule="evenodd" clip-rule="evenodd" d="M320 256C320 239.026 313.257 222.748 301.255 210.745C289.253 198.743 272.974 192 256 192C239.026 192 222.747 198.743 210.745 210.745C198.743 222.748 192 239.026 192 256C192 272.974 198.743 289.253 210.745 301.255C222.747 313.257 239.026 320 256 320C272.974 320 289.253 313.257 301.255 301.255C313.257 289.253 320 272.974 320 256ZM213.333 256C213.333 244.684 217.829 233.832 225.83 225.83C233.832 217.829 244.684 213.333 256 213.333C267.316 213.333 278.168 217.829 286.17 225.83C294.172 233.832 298.667 244.684 298.667 256C298.667 267.316 294.172 278.168 286.17 286.17C278.168 294.172 267.316 298.667 256 298.667C244.684 298.667 233.832 294.172 225.83 286.17C217.829 278.168 213.333 267.316 213.333 256Z" fill="url(#paint2_linear)"/>
<path d="M298.426 213.574C309.679 224.826 316 240.087 316 256H324C324 237.965 316.836 220.669 304.083 207.917L298.426 213.574ZM256 196C271.913 196 287.174 202.322 298.426 213.574L304.083 207.917C291.331 195.164 274.035 188 256 188V196ZM213.574 213.574C224.826 202.322 240.087 196 256 196V188C237.965 188 220.669 195.164 207.917 207.917L213.574 213.574ZM196 256C196 240.087 202.321 224.826 213.574 213.574L207.917 207.917C195.164 220.669 188 237.965 188 256H196ZM213.574 298.427C202.321 287.174 196 271.913 196 256H188C188 274.035 195.164 291.331 207.917 304.083L213.574 298.427ZM256 316C240.087 316 224.826 309.679 213.574 298.427L207.917 304.083C220.669 316.836 237.965 324 256 324V316ZM298.426 298.427C287.174 309.679 271.913 316 256 316V324C274.035 324 291.331 316.836 304.083 304.083L298.426 298.427ZM316 256C316 271.913 309.679 287.174 298.426 298.427L304.083 304.083C316.836 291.331 324 274.035 324 256H316ZM223.002 223.002C214.25 231.753 209.333 243.623 209.333 256H217.333C217.333 245.745 221.407 235.91 228.659 228.659L223.002 223.002ZM256 209.333C243.623 209.333 231.754 214.25 223.002 223.002L228.659 228.659C235.91 221.407 245.745 217.333 256 217.333V209.333ZM288.998 223.002C280.247 214.25 268.377 209.333 256 209.333V217.333C266.255 217.333 276.09 221.407 283.342 228.659L288.998 223.002ZM302.667 256C302.667 243.623 297.75 231.753 288.998 223.002L283.342 228.659C290.593 235.91 294.667 245.745 294.667 256H302.667ZM288.998 288.998C297.75 280.247 302.667 268.377 302.667 256H294.667C294.667 266.255 290.593 276.09 283.342 283.342L288.998 288.998ZM256 302.667C268.377 302.667 280.247 297.75 288.998 288.998L283.342 283.342C276.09 290.593 266.255 294.667 256 294.667V302.667ZM223.002 288.998C231.754 297.75 243.623 302.667 256 302.667V294.667C245.745 294.667 235.91 290.593 228.659 283.342L223.002 288.998ZM209.333 256C209.333 268.377 214.25 280.247 223.002 288.998L228.659 283.342C221.407 276.09 217.333 266.255 217.333 256H209.333Z" fill="url(#paint3_linear)"/>
<defs>
<linearGradient id="paint0_linear" x1="256" y1="469.333" x2="256" y2="42.6771" gradientUnits="userSpaceOnUse">
<stop stop-color="#A93AFF"/>
<stop offset="1" stop-color="#FF81FF"/>
</linearGradient>
<linearGradient id="paint1_linear" x1="256" y1="469.333" x2="256" y2="42.6771" gradientUnits="userSpaceOnUse">
<stop stop-color="#A93AFF"/>
<stop offset="1" stop-color="#FF81FF"/>
</linearGradient>
<linearGradient id="paint2_linear" x1="256" y1="192" x2="256" y2="320" gradientUnits="userSpaceOnUse">
<stop stop-color="#DC18FC"/>
<stop offset="1" stop-color="#8E1EFF"/>
</linearGradient>
<linearGradient id="paint3_linear" x1="256" y1="192" x2="256" y2="320" gradientUnits="userSpaceOnUse">
<stop stop-color="#DC18FC"/>
<stop offset="1" stop-color="#8E1EFF"/>
</linearGradient>
</defs>
</svg>
