<svg width="16" height="16" viewBox="0 0 16 16" fill="none" xmlns="http://www.w3.org/2000/svg">
<path d="M1.5 1C1.22386 1 1 1.22386 1 1.5C1 5.83333 1 10.1667 1 14.5C1 14.7761 1.22386 15 1.5 15H2.83333C3.10948 15 3.33333 14.7761 3.33333 14.5V14.3333C3.33333 14.0572 3.10948 13.8333 2.83333 13.8333H2.66667C2.39052 13.8333 2.16667 13.6095 2.16667 13.3333V7.33333C2.16667 7.05719 2.39052 6.83333 2.66667 6.83333H13.3333C13.6095 6.83333 13.8333 7.05719 13.8333 7.33333V13.3333C13.8333 13.6095 13.6095 13.8333 13.3333 13.8333H13.1667C12.8905 13.8333 12.6667 14.0572 12.6667 14.3333V14.5C12.6667 14.7761 12.8905 15 13.1667 15H14.5C14.7761 15 15 14.7761 15 14.5V13.8333V3.83333C15 3.55719 14.7761 3.33333 14.5 3.33333H9.38289C9.25028 3.33333 9.1231 3.28065 9.02933 3.18689L6.84512 1.00267C6.84364 1.0012 6.84125 1.0012 6.83978 1.00267L6.83789 1.00456C6.83621 1.00624 6.83333 1.00505 6.83333 1.00267V1.00267C6.83333 1.0012 6.83214 1 6.83066 1H1.5ZM2.16667 2.66667C2.16667 2.39052 2.39052 2.16667 2.66667 2.16667H6.34798V2.16667C6.35382 2.16667 6.35941 2.16898 6.36354 2.17311L8.33687 4.14645C8.53213 4.34171 8.53213 4.65829 8.33687 4.85355L7.67021 5.52022C7.57644 5.61399 7.44926 5.66667 7.31665 5.66667H2.66667C2.39052 5.66667 2.16667 5.44281 2.16667 5.16667V2.66667ZM3.83333 3.33333C3.55719 3.33333 3.33333 3.55719 3.33333 3.83333V4C3.33333 4.27614 3.55719 4.5 3.83333 4.5H5.62623C6.07168 4.5 6.29476 3.96143 5.97978 3.64645L5.81311 3.47978C5.71934 3.38601 5.59217 3.33333 5.45956 3.33333H3.83333ZM5 10.3333C4.72386 10.3333 4.5 10.5572 4.5 10.8333C4.5 12.0556 4.5 13.2778 4.5 14.5C4.5 14.7761 4.72386 15 5 15H5.16667C5.44281 15 5.66667 14.7761 5.66667 14.5V12C5.66667 11.7239 5.89052 11.5 6.16667 11.5H9.83333C10.1095 11.5 10.3333 11.7239 10.3333 12V14.5C10.3333 14.7761 10.5572 15 10.8333 15H11C11.2761 15 11.5 14.7761 11.5 14.5C11.5 13.2778 11.5 12.0556 11.5 10.8333C11.5 10.5572 11.2761 10.3333 11 10.3333C9 10.3333 7 10.3333 5 10.3333Z" fill="url(#paint0_linear)"/>
<defs>
<linearGradient id="paint0_linear" x1="8" y1="15" x2="8" y2="1" gradientUnits="userSpaceOnUse">
<stop stop-color="#A93AFF"/>
<stop offset="1" stop-color="#FF81FF"/>
</linearGradient>
</defs>
</svg>
