<svg width="128" height="128" viewBox="0 0 128 128" fill="none" xmlns="http://www.w3.org/2000/svg">
<path d="M6 36.2328V36.2232V36.2328ZM6.01412 36.2184C6.0115 36.2211 6.01151 36.2254 6.01414 36.228L31.7981 62.6114C32.5577 63.3887 32.5576 64.6304 31.7977 65.4075L7.37563 90.3844C6.61603 91.1612 6.61559 92.4025 7.37464 93.1799L14.5567 100.535C15.341 101.339 16.6328 101.339 17.4177 100.536L51.7755 65.3982C52.5355 64.6209 52.5355 63.379 51.7756 62.6018L17.4224 27.4637C16.6375 26.6609 15.3457 26.6613 14.5613 27.4646L6.01412 36.2184V36.2184ZM54.1357 99.3166C54.1357 100.421 55.0311 101.317 56.1357 101.317H120C121.105 101.317 122 100.421 122 99.3166V88.877C122 87.7725 121.105 86.877 120 86.877H56.1357C55.0311 86.877 54.1357 87.7725 54.1357 88.877V99.3166ZM74.5373 69.2342C74.5373 70.3387 75.4328 71.2342 76.5373 71.2342H119.996C121.1 71.2342 121.996 70.3387 121.996 69.2342V58.7946C121.996 57.6901 121.1 56.7946 119.996 56.7946H76.5373C75.4328 56.7946 74.5373 57.6901 74.5373 58.7946V69.2342ZM56.1357 26.7123C55.0311 26.7123 54.1357 27.6078 54.1357 28.7123V39.1519C54.1357 40.2564 55.0311 41.1519 56.1357 41.1519H120C121.105 41.1519 122 40.2564 122 39.1519V28.7123C122 27.6078 121.105 26.7123 120 26.7123H56.1357Z" fill="url(#paint0_linear)"/>
<defs>
<linearGradient id="paint0_linear" x1="122" y1="64.6667" x2="36.1709" y2="79.3081" gradientUnits="userSpaceOnUse">
<stop stop-color="#BE41B4"/>
<stop offset="1" stop-color="#FE1FE8"/>
</linearGradient>
</defs>
</svg>
