<svg width="16" height="16" viewBox="0 0 16 16" fill="none" xmlns="http://www.w3.org/2000/svg">
<path d="M7.31771 1V2.3125C6.33433 2.4037 5.55942 2.65183 4.98438 3.11458C4.35159 3.61882 4.03646 4.36469 4.03646 5.33854C4.03646 6.69802 4.84967 7.57981 6.51563 8L7.31771 8.21875V12.5208C6.28268 12.4283 5.31251 12.2019 4.40104 11.7552L4 12.8125C4.37074 13.0399 4.87687 13.2543 5.49479 13.4323C6.03709 13.5829 6.64802 13.6493 7.31771 13.6875V15H7.60938H8.30208H8.48438V13.6875C9.47582 13.6077 10.2733 13.3058 10.8542 12.776C11.4771 12.2125 11.8021 11.3962 11.8021 10.3333C11.8021 9.47316 11.5691 8.82927 11.1094 8.36458C10.6496 7.89494 9.95753 7.55633 9.06771 7.34375L8.48438 7.19792V3.40625C8.93419 3.44002 9.40265 3.5032 9.83333 3.625C10.3277 3.75849 10.6984 3.93089 11 4.09896L11.3646 3.04167C10.6176 2.57658 9.65992 2.29841 8.48438 2.23958V1H8.30208H7.60938H7.31771ZM7.0625 3.44271C7.13887 3.4299 7.23627 3.45197 7.31771 3.44271V6.90625L6.98958 6.83333C6.44085 6.69987 6.02683 6.50213 5.75 6.25C5.47811 5.99295 5.34895 5.64938 5.34896 5.22917C5.34895 4.22997 5.9119 3.63575 7.0625 3.44271ZM8.48438 8.47396L8.70313 8.54687C9.37543 8.71496 9.83641 8.94298 10.0885 9.23958C10.3456 9.53126 10.4531 9.93168 10.4531 10.4062C10.4531 11.7282 9.79637 12.4301 8.48438 12.5573V8.47396Z" fill="url(#paint0_linear)"/>
<defs>
<linearGradient id="paint0_linear" x1="7.90104" y1="15" x2="7.90104" y2="1" gradientUnits="userSpaceOnUse">
<stop stop-color="#00B59C"/>
<stop offset="1" stop-color="#9CFFAC"/>
</linearGradient>
</defs>
</svg>
