<svg width="32" height="32" viewBox="0 0 32 32" fill="none" xmlns="http://www.w3.org/2000/svg">
<path d="M22.7071 4.70711C22.3165 4.31658 21.6834 4.31658 21.2928 4.70711L15.8271 10.1729C15.4365 10.5634 15.4365 11.1966 15.8271 11.5871L20.4128 16.1729C20.8034 16.5634 21.4365 16.5634 21.8271 16.1729L27.2928 10.7071C27.6834 10.3166 27.6834 9.68342 27.2928 9.29289L22.7071 4.70711ZM8.4679 12.708C8.14319 12.3833 7.61668 12.3833 7.29194 12.708V12.708L7.17132 12.8286C6.78069 13.2193 6.78081 13.8526 7.17159 14.2431L11.0522 18.1208C11.443 18.5113 11.4431 19.1448 11.0524 19.5354L6.00127 24.5849C5.61064 24.9754 5.61138 25.6094 6.00195 26V26C6.39251 26.3906 7.02655 26.3913 7.41705 26.0007L12.4667 20.9495C12.8573 20.5588 13.4906 20.5588 13.8812 20.9495L17.7588 24.8286C18.1493 25.2193 18.7826 25.2193 19.1732 24.8288L19.2939 24.708V24.708C19.6176 24.3844 19.6176 23.8596 19.294 23.536L8.4679 12.708Z" fill="url(#paint0_linear)"/>
<path d="M6.121 4.707C5.73054 4.31654 5.09747 4.31653 4.707 4.707V4.707C4.31653 5.09747 4.31653 5.73053 4.707 6.121L25.879 27.293C26.2695 27.6835 26.9025 27.6835 27.293 27.293V27.293C27.6835 26.9025 27.6835 26.2695 27.293 25.879L6.121 4.707Z" fill="url(#paint1_linear)"/>
<defs>
<linearGradient id="paint0_linear" x1="27.2328" y1="4.64906" x2="18.3751" y2="26.8887" gradientUnits="userSpaceOnUse">
<stop stop-color="#FE0F7C"/>
<stop offset="1" stop-color="#DF0066"/>
</linearGradient>
<linearGradient id="paint1_linear" x1="27.3231" y1="16" x2="7.29735" y2="8.75597" gradientUnits="userSpaceOnUse">
<stop stop-color="#FE7970"/>
<stop offset="1" stop-color="#DC3282"/>
</linearGradient>
</defs>
</svg>
