<svg width="16" height="16" viewBox="0 0 16 16" fill="none" xmlns="http://www.w3.org/2000/svg">
<path d="M1.5 1C1.22386 1 1 1.22386 1 1.5V11C1 11.2761 1.22386 11.5 1.5 11.5H5.16667C5.44281 11.5 5.66667 11.7239 5.66667 12V13.3333C5.66667 13.6095 5.44281 13.8333 5.16667 13.8333H5C4.72386 13.8333 4.5 14.0572 4.5 14.3333V14.5C4.5 14.7761 4.72386 15 5 15H11C11.2761 15 11.5 14.7761 11.5 14.5V14.3333C11.5 14.0572 11.2761 13.8333 11 13.8333H10.8333C10.5572 13.8333 10.3333 13.6095 10.3333 13.3333V12C10.3333 11.7239 10.5572 11.5 10.8333 11.5H14.5C14.7761 11.5 15 11.2761 15 11V1.5C15 1.22386 14.7761 1 14.5 1H1.5ZM2.16667 2.66667C2.16667 2.39052 2.39052 2.16667 2.66667 2.16667H13.3333C13.6095 2.16667 13.8333 2.39052 13.8333 2.66667V9.83333C13.8333 10.1095 13.6095 10.3333 13.3333 10.3333H2.66667C2.39052 10.3333 2.16667 10.1095 2.16667 9.83333V2.66667ZM7.65343 4.01674C7.32776 3.74536 6.83333 3.97694 6.83333 4.40085V8.09914C6.83333 8.52306 7.32776 8.75464 7.65343 8.48326L9.8724 6.63411C10.1123 6.43421 10.1123 6.06579 9.8724 5.86589L7.65343 4.01674ZM6.83333 12C6.83333 11.7239 7.05719 11.5 7.33333 11.5H8.66667C8.94281 11.5 9.16667 11.7239 9.16667 12V13.3333C9.16667 13.6095 8.94281 13.8333 8.66667 13.8333H7.33333C7.05719 13.8333 6.83333 13.6095 6.83333 13.3333V12Z" fill="url(#paint0_linear)"/>
<defs>
<linearGradient id="paint0_linear" x1="3.5375" y1="13.3472" x2="16.1622" y2="2.33196" gradientUnits="userSpaceOnUse">
<stop stop-color="#FE0844"/>
<stop offset="1" stop-color="#FEB302"/>
</linearGradient>
</defs>
</svg>
