<svg width="24" height="24" viewBox="0 0 24 24" fill="none" xmlns="http://www.w3.org/2000/svg">
<path d="M23.8394 11.8021C23.0717 10.4706 18.8494 3.7892 11.6762 4.00512C5.04278 4.17305 1.2043 10.0028 0.160712 11.8021C0.05543 11.9844 0 12.1912 0 12.4018C0 12.6124 0.05543 12.8192 0.160712 13.0016C0.916413 14.3091 4.95881 20.7985 12.0241 20.7985H12.3239C18.9573 20.6306 22.8078 14.8009 23.8394 13.0016C23.9446 12.8192 24 12.6124 24 12.4018C24 12.1912 23.9446 11.9844 23.8394 11.8021ZM12.264 18.3995C7.09397 18.5194 3.7233 14.0932 2.66772 12.4018C3.86725 10.4706 6.99801 6.52412 11.7961 6.40417C16.9421 6.27222 20.3248 10.7105 21.3924 12.4018C20.1568 14.3331 17.0621 18.2795 12.264 18.3995Z" fill="url(#paint0_linear_621_184)"/>
<path d="M12.0001 8.203C11.1698 8.203 10.3581 8.44923 9.66762 8.91056C8.97721 9.37187 8.4391 10.0276 8.12134 10.7947C7.80358 11.5618 7.72043 12.406 7.88243 13.2204C8.04442 14.0349 8.44427 14.7829 9.03143 15.37C9.61856 15.9572 10.3667 16.357 11.1811 16.519C11.9954 16.681 12.8396 16.5979 13.6067 16.2801C14.3738 15.9624 15.0296 15.4243 15.4908 14.7338C15.9522 14.0434 16.1984 13.2317 16.1984 12.4013C16.1984 11.2878 15.7562 10.22 14.9688 9.43267C14.1814 8.64533 13.1136 8.203 12.0001 8.203ZM12.0001 14.2006C11.6442 14.2006 11.2963 14.0951 11.0004 13.8974C10.7046 13.6997 10.4739 13.4187 10.3378 13.0899C10.2017 12.7611 10.1659 12.3993 10.2354 12.0504C10.3048 11.7013 10.4762 11.3807 10.7278 11.129C10.9794 10.8775 11.3001 10.7061 11.6491 10.6366C11.9981 10.5671 12.3598 10.6028 12.6886 10.739C13.0174 10.8752 13.2985 11.1059 13.4961 11.4017C13.6938 11.6976 13.7994 12.0454 13.7994 12.4013C13.7994 12.8785 13.6099 13.3363 13.2724 13.6737C12.935 14.0111 12.4773 14.2006 12.0001 14.2006Z" fill="url(#paint1_linear_621_184)"/>
<defs>
<linearGradient id="paint0_linear_621_184" x1="12.0001" y1="20.7985" x2="12.0001" y2="3.99999" gradientUnits="userSpaceOnUse">
<stop stop-color="#02AA93"/>
<stop offset="1" stop-color="#67FF80"/>
</linearGradient>
<linearGradient id="paint1_linear_621_184" x1="12.0001" y1="16.5997" x2="12.0001" y2="8.203" gradientUnits="userSpaceOnUse">
<stop stop-color="#02AA93"/>
<stop offset="1" stop-color="#67FF80"/>
</linearGradient>
</defs>
</svg>
