<svg width="32" height="32" viewBox="0 0 32 32" fill="none" xmlns="http://www.w3.org/2000/svg">
<path d="M28 21H14C13.4375 21 12.9635 20.8796 12.5781 20.6387C12.1927 20.3978 12 20.1016 12 19.75C12 19.3984 12.1927 19.1022 12.5781 18.8613C12.9635 18.6204 13.4375 18.5 14 18.5H28C28.5625 18.5 29.0365 18.6204 29.4219 18.8613C29.8073 19.1022 30 19.3984 30 19.75C30 20.1016 29.8073 20.3978 29.4219 20.6387C29.0365 20.8796 28.5625 21 28 21ZM28 13.5H14C13.4375 13.5 12.9635 13.3763 12.5781 13.1289C12.1927 12.8815 12 12.5853 12 12.2402C12 11.8952 12.1927 11.6022 12.5781 11.3613C12.9635 11.1204 13.4375 11 14 11H28C28.5625 11 29.0365 11.1204 29.4219 11.3613C29.8073 11.6022 30 11.8952 30 12.2402C30 12.5853 29.8073 12.8815 29.4219 13.1289C29.0365 13.3763 28.5625 13.5 28 13.5ZM28 8.5H14C13.4375 8.5 12.9635 8.3763 12.5781 8.12891C12.1927 7.88151 12 7.58529 12 7.24023C12 6.89518 12.1927 6.60221 12.5781 6.36133C12.9635 6.12044 13.4375 6 14 6H28C28.5625 6 29.0365 6.12044 29.4219 6.36133C29.8073 6.60221 30 6.89518 30 7.24023C30 7.58529 29.8073 7.88151 29.4219 8.12891C29.0365 8.3763 28.5625 8.5 28 8.5ZM14 23.5H28C28.5625 23.5 29.0365 23.6204 29.4219 23.8613C29.8073 24.1022 30 24.3984 30 24.75C30 25.1016 29.8021 25.3978 29.4062 25.6387C29.0104 25.8796 28.5417 26 28 26H14C13.4375 26 12.9635 25.8796 12.5781 25.6387C12.1927 25.3978 12 25.1016 12 24.75C12 24.3984 12.1927 24.1022 12.5781 23.8613C12.9635 23.6204 13.4375 23.5 14 23.5Z" fill="url(#paint0_linear)"/>
<path d="M3.33333 27H8.66667C9.02778 27 9.34028 26.8675 9.60417 26.6025C9.86806 26.3376 10 26.0117 10 25.625V20.125C10 19.7383 9.86806 19.4124 9.60417 19.1475C9.34028 18.8825 9.02778 18.75 8.66667 18.75H3.33333C2.95833 18.75 2.64236 18.8825 2.38542 19.1475C2.12847 19.4124 2 19.7383 2 20.125V25.625C2 26.0117 2.12847 26.3376 2.38542 26.6025C2.64236 26.8675 2.95833 27 3.33333 27Z" stroke="url(#paint1_linear)" stroke-width="2" stroke-linecap="round" stroke-linejoin="round"/>
<path d="M3.33333 13.25H8.66667C9.02778 13.25 9.34028 13.1139 9.60417 12.8418C9.86806 12.5697 10 12.2474 10 11.875V6.375C10 5.98828 9.86806 5.66243 9.60417 5.39746C9.34028 5.13249 9.02778 5 8.66667 5H3.33333C2.95833 5 2.64236 5.13249 2.38542 5.39746C2.12847 5.66243 2 5.98828 2 6.375V11.875C2 12.2474 2.12847 12.5697 2.38542 12.8418C2.64236 13.1139 2.95833 13.25 3.33333 13.25Z" stroke="url(#paint2_linear)" stroke-width="2" stroke-linecap="round" stroke-linejoin="round"/>
<defs>
<linearGradient id="paint0_linear" x1="12.0026" y1="15.7037" x2="30.003" y2="15.7037" gradientUnits="userSpaceOnUse">
<stop stop-color="#A93AFF"/>
<stop offset="1" stop-color="#FF81FF"/>
</linearGradient>
<linearGradient id="paint1_linear" x1="2.00117" y1="15.674" x2="10.0013" y2="15.674" gradientUnits="userSpaceOnUse">
<stop stop-color="#A93AFF"/>
<stop offset="1" stop-color="#FF81FF"/>
</linearGradient>
<linearGradient id="paint2_linear" x1="2.00117" y1="15.674" x2="10.0013" y2="15.674" gradientUnits="userSpaceOnUse">
<stop stop-color="#A93AFF"/>
<stop offset="1" stop-color="#FF81FF"/>
</linearGradient>
</defs>
</svg>
