<svg width="16" height="16" viewBox="0 0 16 16" fill="none" xmlns="http://www.w3.org/2000/svg">
<path d="M2 1C1.44772 1 1 1.44772 1 2V14C1 14.5523 1.44772 15 2 15H14C14.5523 15 15 14.5523 15 14V2C15 1.44772 14.5523 1 14 1H2ZM2.16667 4.33333C2.16667 3.78105 2.61438 3.33333 3.16667 3.33333H3.5C4.05228 3.33333 4.5 3.78105 4.5 4.33333V12.8333C4.5 13.3856 4.05228 13.8333 3.5 13.8333H3.16667C2.61438 13.8333 2.16667 13.3856 2.16667 12.8333V4.33333ZM5.66667 4.33333C5.66667 3.78105 6.11438 3.33333 6.66667 3.33333H12.8333C13.3856 3.33333 13.8333 3.78105 13.8333 4.33333V12.8333C13.8333 13.3856 13.3856 13.8333 12.8333 13.8333H6.66667C6.11438 13.8333 5.66667 13.3856 5.66667 12.8333V4.33333Z" fill="url(#paint0_linear_621_188)"/>
<path d="M9.16731 7.50008V6.16675C9.16731 5.89061 9.39117 5.66675 9.66731 5.66675H9.83398C10.1101 5.66675 10.334 5.89061 10.334 6.16675V7.50008C10.334 7.77622 10.5579 8.00008 10.834 8.00008H12.1673C12.4435 8.00008 12.6673 8.22394 12.6673 8.50008V8.66675C12.6673 8.94289 12.4435 9.16675 12.1673 9.16675H10.834C10.5579 9.16675 10.334 9.39061 10.334 9.66675V11.0001C10.334 11.2762 10.1101 11.5001 9.83398 11.5001H9.66731C9.39117 11.5001 9.16731 11.2762 9.16731 11.0001V9.66675C9.16731 9.39061 8.94345 9.16675 8.66731 9.16675H7.33398C7.05783 9.16675 6.83398 8.94289 6.83398 8.66675V8.50008C6.83398 8.22394 7.05783 8.00008 7.33398 8.00008H8.66731C8.94345 8.00008 9.16731 7.77622 9.16731 7.50008Z" fill="url(#paint1_linear_621_188)" stroke="url(#paint2_linear_621_188)" stroke-width="0.6"/>
<defs>
<linearGradient id="paint0_linear_621_188" x1="8" y1="1" x2="8" y2="15" gradientUnits="userSpaceOnUse">
<stop stop-color="#97EB0E"/>
<stop offset="1" stop-color="#19B90B"/>
</linearGradient>
<linearGradient id="paint1_linear_621_188" x1="9.75064" y1="5.66675" x2="9.75064" y2="11.5001" gradientUnits="userSpaceOnUse">
<stop stop-color="#97EB0E"/>
<stop offset="1" stop-color="#19B90B"/>
</linearGradient>
<linearGradient id="paint2_linear_621_188" x1="9.75064" y1="5.66675" x2="9.75064" y2="11.5001" gradientUnits="userSpaceOnUse">
<stop stop-color="#97EB0E"/>
<stop offset="1" stop-color="#19B90B"/>
</linearGradient>
</defs>
</svg>
