<svg width="64" height="64" viewBox="0 0 64 64" fill="none" xmlns="http://www.w3.org/2000/svg">
<path d="M5 3C3.89543 3 3 3.89543 3 5V59C3 60.1046 3.89543 61 5 61H59C60.1046 61 61 60.1046 61 59V5C61 3.89543 60.1046 3 59 3H5ZM7.41667 17.0833C7.41667 15.9788 8.3121 15.0833 9.41667 15.0833H54.5833C55.6879 15.0833 56.5833 15.9788 56.5833 17.0833V54.5833C56.5833 55.6879 55.6879 56.5833 54.5833 56.5833H9.41667C8.3121 56.5833 7.41667 55.6879 7.41667 54.5833V17.0833Z" fill="url(#paint0_linear)"/>
<path d="M14.0085 19.7932C13.9021 18.827 14.8129 17.9066 15.7906 18.0076C19.6508 18.0099 23.5133 18.0099 27.3734 18.0076C28.2425 17.925 29.1879 18.6709 29.1232 19.5706C29.1186 22.024 29.1255 24.4797 29.1186 26.9331C29.1995 27.4931 28.6979 27.8649 28.268 28.1105C27.4774 28.4456 26.4951 27.7502 26.5251 26.9056C26.5182 24.8148 26.5135 22.724 26.532 20.6332C23.2336 20.624 19.9351 20.6263 16.6366 20.6332C16.6505 23.9036 16.6528 27.1764 16.6343 30.4492C18.7331 30.4698 20.8343 30.4308 22.9331 30.4653C23.7675 30.4561 24.4517 31.4223 24.1119 32.1934C23.8692 32.5951 23.5225 33.0816 22.9862 33.0266C20.513 33.0449 18.0397 33.0311 15.5664 33.0311C14.6626 33.0954 13.9253 32.1475 14.0108 31.2938C14.0177 27.4587 14.0177 23.626 14.0085 19.7932Z" fill="url(#paint1_linear)"/>
<path d="M36.1234 18.108C36.4521 17.9816 36.8156 18.0138 37.1606 18C41.032 18.0184 44.9012 17.9908 48.7703 18.0161C49.5829 18.0138 50.2752 18.7651 50.2451 19.5624C50.2543 23.5488 50.2613 27.5353 50.2428 31.5217C50.2543 32.4017 49.3907 33.1278 48.5178 33.0267C44.5839 33.0244 40.65 33.0382 36.7161 33.0221C35.8941 33.0657 35.1371 32.3374 35.1439 31.5217C35.123 27.6065 35.1439 23.6913 35.1347 19.7761C35.0676 19.0799 35.4541 18.3653 36.1234 18.108ZM37.7604 20.6101C37.7719 23.882 37.7489 27.1539 37.7719 30.4257C41.0553 30.4234 44.3408 30.4303 47.6263 30.4234C47.6287 27.1516 47.6287 23.8797 47.6287 20.6078C44.3384 20.6032 41.0482 20.6032 37.7604 20.6101Z" fill="url(#paint2_linear)"/>
<path d="M41.0525 39.0749C43.699 39.0114 46.3504 39.0409 48.9992 39.059C49.4708 39.4964 50.2659 39.825 50.2382 40.5662C50.2544 44.5594 50.2429 48.5574 50.2452 52.5506C50.3399 53.2239 49.6811 53.6 49.2742 54.0283C44.8895 54.0849 40.4999 54.0895 36.1129 54.026C35.6898 53.6159 35.1095 53.2034 35.1327 52.5552C35.1236 50.1325 35.128 47.7097 35.1304 45.287C35.1257 44.5232 35.9233 43.8751 36.6929 44.0564C37.3217 44.0926 37.7586 44.709 37.7562 45.2915C37.7677 47.3472 37.7562 49.4005 37.7586 51.456C41.0525 51.456 44.3439 51.4583 47.6379 51.4539C47.6379 48.2333 47.6239 45.0105 47.6447 41.79C45.6106 41.7764 43.5765 41.79 41.5424 41.7854C40.6665 41.8671 39.8365 40.9356 40.1417 40.0994C40.3221 39.6664 40.752 39.4172 41.0525 39.0749Z" fill="url(#paint3_linear)"/>
<path d="M14.9506 39.1784C15.2887 39.0361 15.6663 39.0452 16.0252 39.0361C19.8096 39.0452 23.5939 39.0315 27.3783 39.0429C28.3024 38.9557 29.1825 39.7387 29.1199 40.6687C29.1269 44.5743 29.1222 48.4799 29.1222 52.3832C29.194 53.2374 28.4807 54.0708 27.6006 54.0617C23.5916 54.0776 19.5803 54.0731 15.5713 54.0638C14.6773 54.0937 13.9269 53.2579 14.0057 52.3877C14.0057 48.4753 13.9987 44.5627 14.0103 40.6503C13.9825 40.0281 14.367 39.4172 14.9506 39.1784ZM16.6274 41.6604C16.632 44.9301 16.6251 48.202 16.632 51.4717C19.9208 51.4717 23.2095 51.4738 26.4982 51.4717C26.5144 48.209 26.4727 44.9462 26.5191 41.6835C23.2234 41.6238 19.9254 41.6697 16.6274 41.6604Z" fill="url(#paint4_linear)"/>
<defs>
<linearGradient id="paint0_linear" x1="32" y1="61" x2="32" y2="3" gradientUnits="userSpaceOnUse">
<stop stop-color="#5570FF"/>
<stop offset="1" stop-color="#4DD3FF"/>
</linearGradient>
<linearGradient id="paint1_linear" x1="21.5636" y1="33.0361" x2="21.5636" y2="18" gradientUnits="userSpaceOnUse">
<stop stop-color="#FD3A84"/>
<stop offset="1" stop-color="#FFA68D"/>
</linearGradient>
<linearGradient id="paint2_linear" x1="42.6907" y1="33.0361" x2="42.6907" y2="18" gradientUnits="userSpaceOnUse">
<stop stop-color="#02AA93"/>
<stop offset="1" stop-color="#67FF80"/>
</linearGradient>
<linearGradient id="paint3_linear" x1="42.6908" y1="54.0723" x2="42.6908" y2="39.0361" gradientUnits="userSpaceOnUse">
<stop stop-color="#5570FF"/>
<stop offset="1" stop-color="#4DD3FF"/>
</linearGradient>
<linearGradient id="paint4_linear" x1="21.5636" y1="54.0722" x2="21.5636" y2="39.0361" gradientUnits="userSpaceOnUse">
<stop stop-color="#FDA700"/>
<stop offset="1" stop-color="#FFDE00"/>
</linearGradient>
</defs>
</svg>
