<svg width="24" height="24" viewBox="0 0 24 24" fill="none" xmlns="http://www.w3.org/2000/svg">
<path d="M3.22222 2C2.66994 2 2.22222 2.44772 2.22222 3V6.27778C2.22222 6.61528 1.94862 6.88889 1.61111 6.88889V6.88889C1.2736 6.88889 1 7.16249 1 7.5V8.11111V20.3333C1 21.0104 1.54511 21.5556 2.22222 21.5556H21.7778H22C22.5523 21.5556 23 21.1078 23 20.5556V20.3333V8.11111C23 7.434 22.4549 6.88889 21.7778 6.88889H16.6667C16.1144 6.88889 15.6667 6.44117 15.6667 5.88889V3C15.6667 2.44772 15.219 2 14.6667 2H3.22222ZM3.44444 4.22222C3.44444 3.66994 3.89216 3.22222 4.44444 3.22222H13.4444C13.9967 3.22222 14.4444 3.66994 14.4444 4.22222V5.88889C14.4444 6.44117 13.9967 6.88889 13.4444 6.88889H11.8793C11.5646 6.88889 11.2754 6.73279 11.048 6.51511C10.4863 5.97723 9.73471 5.66914 8.94444 5.66667C8.15166 5.66729 7.39722 5.97556 6.83371 6.51511C6.60636 6.73279 6.31714 6.88889 6.00239 6.88889H4.44444C3.89216 6.88889 3.44444 6.44117 3.44444 5.88889V4.22222ZM2.22222 9.11111C2.22222 8.55883 2.66994 8.11111 3.22222 8.11111H3.44444H5.95095H11.9332H14.4444H15.6667H20.7778C21.3301 8.11111 21.7778 8.55883 21.7778 9.11111V10.7778C21.7778 11.3301 21.3301 11.7778 20.7778 11.7778H19.3333H13.2222C11.868 11.7778 10.7778 12.868 10.7778 14.2222C10.7778 15.5764 11.868 16.6667 13.2222 16.6667H19.3333H20.7778C21.3301 16.6667 21.7778 17.1144 21.7778 17.6667V19.3333C21.7778 19.8856 21.3301 20.3333 20.7778 20.3333H3.22222C2.66994 20.3333 2.22222 19.8856 2.22222 19.3333V9.11111ZM14.4444 13C15.1195 13 15.6667 13.5472 15.6667 14.2222C15.6667 14.8972 15.1195 15.4444 14.4444 15.4444C13.7694 15.4444 13.2222 14.8972 13.2222 14.2222C13.2222 13.5472 13.7694 13 14.4444 13Z" fill="url(#paint0_linear)" stroke="url(#paint1_linear)"/>
<defs>
<linearGradient id="paint0_linear" x1="12" y1="21.5556" x2="12" y2="2" gradientUnits="userSpaceOnUse">
<stop stop-color="#00B59C"/>
<stop offset="1" stop-color="#9CFFAC"/>
</linearGradient>
<linearGradient id="paint1_linear" x1="12" y1="21.5556" x2="12" y2="2" gradientUnits="userSpaceOnUse">
<stop stop-color="#00B59C"/>
<stop offset="1" stop-color="#9CFFAC"/>
</linearGradient>
</defs>
</svg>
