<svg width="16" height="16" viewBox="0 0 16 16" fill="none" xmlns="http://www.w3.org/2000/svg">
<path d="M1.5 1C1.22386 1 1 1.22386 1 1.5V4.5V14.5C1 14.7761 1.22386 15 1.5 15H2.16667H14.5C14.7761 15 15 14.7761 15 14.5V13.8333V1.5C15 1.22386 14.7761 1 14.5 1H2.16667H1.5ZM2.16667 5C2.16667 4.72386 2.39052 4.5 2.66667 4.5H13.3333C13.6095 4.5 13.8333 4.72386 13.8333 5V13.3333C13.8333 13.6095 13.6095 13.8333 13.3333 13.8333H2.66667C2.39052 13.8333 2.16667 13.6095 2.16667 13.3333V5Z" fill="url(#paint0_linear)"/>
<defs>
<linearGradient id="paint0_linear" x1="3.5375" y1="13.3472" x2="16.1622" y2="2.33196" gradientUnits="userSpaceOnUse">
<stop stop-color="#FE0844"/>
<stop offset="1" stop-color="#FEB302"/>
</linearGradient>
</defs>
</svg>
