<svg width="24" height="24" viewBox="0 0 24 24" fill="none" xmlns="http://www.w3.org/2000/svg">
<path d="M21.6086 10.5749C21.7327 10.6986 21.8312 10.8456 21.8984 11.0075C21.9655 11.1694 22 11.343 22 11.5182C22 11.6933 21.9655 11.8669 21.8984 12.0288C21.8312 12.1906 21.7327 12.3377 21.6086 12.4614L12.7515 21.3185C12.653 21.4173 12.5358 21.4957 12.4069 21.5491C12.278 21.6026 12.1398 21.6302 12.0002 21.6302C11.8605 21.6302 11.7224 21.6026 11.5935 21.5491C11.4645 21.4957 11.3474 21.4173 11.2487 21.3185L2.39169 12.4614C1.86944 11.9392 1.86944 11.0972 2.39169 10.5749C2.91396 10.0526 3.75596 10.0526 4.27822 10.5749L12.0055 18.2915L19.7327 10.5642C20.2444 10.0526 21.097 10.0526 21.6086 10.5749Z" fill="url(#paint0_linear_653_2)"/>
<path d="M21.6086 2.39304C21.7327 2.51677 21.8312 2.66377 21.8984 2.82568C21.9655 2.98759 22 3.16114 22 3.33632C22 3.5115 21.9655 3.68504 21.8984 3.84695C21.8312 4.00877 21.7327 4.15586 21.6086 4.27959L12.7515 13.1366C12.653 13.2354 12.5358 13.3138 12.4069 13.3673C12.278 13.4208 12.1398 13.4483 12.0002 13.4483C11.8605 13.4483 11.7224 13.4208 11.5935 13.3673C11.4645 13.3138 11.3474 13.2354 11.2487 13.1366L2.39169 4.27959C1.86944 3.75732 1.86944 2.91532 2.39169 2.39304C2.91396 1.87077 3.75596 1.87077 4.27822 2.39304L12.0055 10.1097L19.7327 2.38241C20.2444 1.87077 21.097 1.87077 21.6086 2.39304Z" fill="url(#paint1_linear_653_2)"/>
<path d="M21.6086 10.5749C21.7327 10.6986 21.8312 10.8456 21.8984 11.0075C21.9655 11.1694 22 11.343 22 11.5182C22 11.6933 21.9655 11.8669 21.8984 12.0288C21.8312 12.1906 21.7327 12.3377 21.6086 12.4614L12.7515 21.3185C12.653 21.4173 12.5358 21.4957 12.4069 21.5491C12.278 21.6026 12.1398 21.6302 12.0002 21.6302C11.8605 21.6302 11.7224 21.6026 11.5935 21.5491C11.4645 21.4957 11.3474 21.4173 11.2487 21.3185L2.39169 12.4614C1.86944 11.9392 1.86944 11.0972 2.39169 10.5749C2.91396 10.0526 3.75596 10.0526 4.27822 10.5749L12.0055 18.2915L19.7327 10.5642C20.2444 10.0526 21.097 10.0526 21.6086 10.5749Z" stroke="url(#paint2_linear_653_2)"/>
<path d="M21.6086 2.39304C21.7327 2.51677 21.8312 2.66377 21.8984 2.82568C21.9655 2.98759 22 3.16114 22 3.33632C22 3.5115 21.9655 3.68504 21.8984 3.84695C21.8312 4.00877 21.7327 4.15586 21.6086 4.27959L12.7515 13.1366C12.653 13.2354 12.5358 13.3138 12.4069 13.3673C12.278 13.4208 12.1398 13.4483 12.0002 13.4483C11.8605 13.4483 11.7224 13.4208 11.5935 13.3673C11.4645 13.3138 11.3474 13.2354 11.2487 13.1366L2.39169 4.27959C1.86944 3.75732 1.86944 2.91532 2.39169 2.39304C2.91396 1.87077 3.75596 1.87077 4.27822 2.39304L12.0055 10.1097L19.7327 2.38241C20.2444 1.87077 21.097 1.87077 21.6086 2.39304Z" stroke="url(#paint3_linear_653_2)"/>
<defs>
<linearGradient id="paint0_linear_653_2" x1="5.625" y1="19.3127" x2="23.3685" y2="3.53947" gradientUnits="userSpaceOnUse">
<stop stop-color="#FE0844"/>
<stop offset="1" stop-color="#FEB302"/>
</linearGradient>
<linearGradient id="paint1_linear_653_2" x1="5.625" y1="19.3127" x2="23.3685" y2="3.53947" gradientUnits="userSpaceOnUse">
<stop stop-color="#FE0844"/>
<stop offset="1" stop-color="#FEB302"/>
</linearGradient>
<linearGradient id="paint2_linear_653_2" x1="5.625" y1="19.3127" x2="23.3685" y2="3.53947" gradientUnits="userSpaceOnUse">
<stop stop-color="#FE0844"/>
<stop offset="1" stop-color="#FEB302"/>
</linearGradient>
<linearGradient id="paint3_linear_653_2" x1="5.625" y1="19.3127" x2="23.3685" y2="3.53947" gradientUnits="userSpaceOnUse">
<stop stop-color="#FE0844"/>
<stop offset="1" stop-color="#FEB302"/>
</linearGradient>
</defs>
</svg>
