<svg width="24" height="24" viewBox="0 0 24 24" fill="none" xmlns="http://www.w3.org/2000/svg">
<path d="M21.6086 13.0553C21.7327 12.9315 21.8312 12.7845 21.8984 12.6226C21.9655 12.4607 22 12.2872 22 12.112C22 11.9368 21.9655 11.7633 21.8984 11.6014C21.8312 11.4395 21.7327 11.2925 21.6086 11.1687L12.7515 2.31169C12.653 2.21289 12.5358 2.1345 12.4069 2.08102C12.278 2.02753 12.1398 2 12.0002 2C11.8605 2 11.7224 2.02753 11.5935 2.08102C11.4645 2.1345 11.3474 2.21289 11.2487 2.31169L2.39169 11.1687C1.86944 11.691 1.86944 12.533 2.39169 13.0553C2.91396 13.5775 3.75596 13.5775 4.27822 13.0553L12.0055 5.33865L19.7327 13.0659C20.2444 13.5775 21.097 13.5775 21.6086 13.0553Z" fill="url(#paint0_linear_653_2)" stroke="url(#paint1_linear_653_2)"/>
<path d="M21.6086 21.2371C21.7327 21.1134 21.8312 20.9664 21.8984 20.8045C21.9655 20.6426 22 20.469 22 20.2938C22 20.1186 21.9655 19.9451 21.8984 19.7832C21.8312 19.6214 21.7327 19.4743 21.6086 19.3506L12.7515 10.4935C12.653 10.3947 12.5358 10.3163 12.4069 10.2628C12.278 10.2094 12.1398 10.1818 12.0002 10.1818C11.8605 10.1818 11.7224 10.2094 11.5935 10.2628C11.4645 10.3163 11.3474 10.3947 11.2487 10.4935L2.39169 19.3506C1.86944 19.8728 1.86944 20.7148 2.39169 21.2371C2.91396 21.7594 3.75596 21.7594 4.27822 21.2371L12.0055 13.5205L19.7327 21.2477C20.2444 21.7594 21.097 21.7594 21.6086 21.2371Z" fill="url(#paint2_linear_653_2)" stroke="url(#paint3_linear_653_2)"/>
<defs>
<linearGradient id="paint0_linear_653_2" x1="11.1303" y1="13.1408" x2="11.8785" y2="2.68794" gradientUnits="userSpaceOnUse">
<stop stop-color="#8D01A2"/>
<stop offset="1" stop-color="#FF33DB"/>
</linearGradient>
<linearGradient id="paint1_linear_653_2" x1="11.1303" y1="13.1408" x2="11.8785" y2="2.68794" gradientUnits="userSpaceOnUse">
<stop stop-color="#8D01A2"/>
<stop offset="1" stop-color="#FF33DB"/>
</linearGradient>
<linearGradient id="paint2_linear_653_2" x1="11.1303" y1="21.3226" x2="11.8785" y2="10.8698" gradientUnits="userSpaceOnUse">
<stop stop-color="#8D01A2"/>
<stop offset="1" stop-color="#FF33DB"/>
</linearGradient>
<linearGradient id="paint3_linear_653_2" x1="11.1303" y1="21.3226" x2="11.8785" y2="10.8698" gradientUnits="userSpaceOnUse">
<stop stop-color="#8D01A2"/>
<stop offset="1" stop-color="#FF33DB"/>
</linearGradient>
</defs>
</svg>
