<svg width="64" height="64" viewBox="0 0 64 64" fill="none" xmlns="http://www.w3.org/2000/svg">
<g clip-path="url(#clip0_650_119)">
<path d="M8.24717 5.28688C10.8404 4.80099 13.5052 5.09747 16.1297 5.01923C18.8839 5.09747 21.902 4.61569 24.37 6.03631C26.7218 7.40752 28.2688 9.63522 30.3702 11.2823C31.1437 11.8341 32.1453 12.04 33.1155 12.0235C42.5183 12.0235 51.921 12.0359 61.3238 12.0894C62.9423 11.9617 64.3418 13.5059 63.926 14.9471C63.6979 16.063 62.522 16.8907 61.2969 16.8166C51.7466 16.8289 42.1963 16.7836 32.646 16.7754C30.4597 16.763 28.2778 16.0177 26.6547 14.663C24.6696 13.1765 23.3506 10.8953 21.0033 9.87817C17.7483 9.63934 14.462 9.84523 11.1981 9.77522C8.9536 9.63934 6.7091 10.8252 5.75228 12.7029C5.09503 13.893 5.21128 15.2601 5.20234 16.5489C5.22469 27.3992 5.19339 38.2494 5.21575 49.1038C5.17998 51.138 6.62415 53.0815 8.66745 53.8392C9.88359 54.3169 11.2339 54.2263 12.526 54.2345C26.1093 54.2139 39.6925 54.2428 53.2713 54.218C55.3727 54.2263 57.3847 53.0157 58.2611 51.2656C58.963 49.9521 58.7618 48.4532 58.7886 47.0408C58.7976 41.0124 58.7574 34.9841 58.8065 28.9557C58.7708 27.6009 60.206 26.4603 61.6546 26.6374C63.0765 26.7239 64.1406 28.0086 63.9796 29.2975C63.9796 36.0341 64.0109 42.7707 63.9662 49.5115C63.9036 54.498 59.1016 58.8917 53.696 58.974C39.384 59.0234 25.0675 58.9864 10.7555 58.9905C6.61521 59.0317 2.60462 56.6516 0.945834 53.1557C0.163389 51.6362 -0.0243975 49.9356 0.00242916 48.272C0.0381981 37.01 -0.0243977 25.7397 0.0337268 14.4777C0.114207 10.1664 3.70004 6.22985 8.24717 5.28688Z" fill="url(#paint0_linear_650_119)"/>
<path d="M22.5645 27.1363C22.5645 26.5799 23.0155 26.1288 23.5719 26.1288H24.1214C24.6778 26.1288 25.1288 26.5799 25.1288 27.1363V28.968C25.1288 29.5245 25.5799 29.9755 26.1363 29.9755H36.9435C37.5 29.9755 37.951 29.5245 37.951 28.968V27.1363C37.951 26.5799 38.402 26.1288 38.9584 26.1288H39.5079C40.0643 26.1288 40.5154 26.5799 40.5154 27.1363V31.5324C40.5154 32.0888 40.9665 32.5399 41.5228 32.5399H42.0724C42.6288 32.5399 43.0798 32.0888 43.0798 31.5324V24.5719C43.0798 24.0155 42.6288 23.5645 42.0724 23.5645H35.8624C35.4383 23.5645 35.0702 23.2916 34.8567 22.9251C34.1884 21.7782 32.9567 21 31.5399 21C30.1231 21 28.8915 21.7782 28.2231 22.9251C28.0097 23.2916 27.6415 23.5645 27.2174 23.5645H21.0075C20.451 23.5645 20 24.0155 20 24.5719V45.6367C20 46.1932 20.451 46.6442 21.0075 46.6442H27.968C28.5245 46.6442 28.9755 46.1932 28.9755 45.6367V45.0873C28.9755 44.5309 28.5245 44.0798 27.968 44.0798H23.5719C23.0155 44.0798 22.5645 43.6288 22.5645 43.0724V27.1363ZM31.5399 23.5645C32.2451 23.5645 32.8222 24.1414 32.8222 24.8467C32.8222 25.5519 32.2451 26.1288 31.5399 26.1288C30.8346 26.1288 30.2577 25.5519 30.2577 24.8467C30.2577 24.1414 30.8346 23.5645 31.5399 23.5645Z" fill="url(#paint1_linear_650_119)" stroke="url(#paint2_linear_650_119)"/>
<path d="M42.1824 43.9516C42.6953 43.054 43.0799 42.0283 43.0799 40.8743C43.0799 37.6688 40.5155 35.1043 37.31 35.1043C34.1044 35.1043 31.54 37.6688 31.54 40.8743C31.54 44.0798 34.1044 46.6442 37.31 46.6442C38.464 46.6442 39.4897 46.2596 40.3873 45.7467L43.4931 48.8524C43.6898 49.0492 44.0088 49.0492 44.2054 48.8524L45.2881 47.7697C45.4849 47.5731 45.4849 47.2541 45.2881 47.0574L42.1824 43.9516ZM37.31 44.0798C35.5148 44.0798 34.1044 42.6694 34.1044 40.8743C34.1044 39.0792 35.5148 37.6688 37.31 37.6688C39.1051 37.6688 40.5155 39.0792 40.5155 40.8743C40.5155 42.6694 39.1051 44.0798 37.31 44.0798Z" fill="url(#paint3_linear_650_119)" stroke="url(#paint4_linear_650_119)"/>
</g>
<defs>
<linearGradient id="paint0_linear_650_119" x1="52.418" y1="5" x2="10.2202" y2="66.0629" gradientUnits="userSpaceOnUse">
<stop stop-color="#DE00C0"/>
<stop offset="1" stop-color="#8720FF"/>
</linearGradient>
<linearGradient id="paint1_linear_650_119" x1="38.9031" y1="21" x2="17.5746" y2="44.4371" gradientUnits="userSpaceOnUse">
<stop stop-color="#DE00C0"/>
<stop offset="1" stop-color="#8720FF"/>
</linearGradient>
<linearGradient id="paint2_linear_650_119" x1="38.9031" y1="21" x2="17.5746" y2="44.4371" gradientUnits="userSpaceOnUse">
<stop stop-color="#DE00C0"/>
<stop offset="1" stop-color="#8720FF"/>
</linearGradient>
<linearGradient id="paint3_linear_650_119" x1="42.921" y1="35.1043" x2="31.54" y2="49.0001" gradientUnits="userSpaceOnUse">
<stop stop-color="#DE00C0"/>
<stop offset="1" stop-color="#8720FF"/>
</linearGradient>
<linearGradient id="paint4_linear_650_119" x1="42.921" y1="35.1043" x2="31.54" y2="49.0001" gradientUnits="userSpaceOnUse">
<stop stop-color="#DE00C0"/>
<stop offset="1" stop-color="#8720FF"/>
</linearGradient>
<clipPath id="clip0_650_119">
<rect width="64" height="64" fill="white"/>
</clipPath>
</defs>
</svg>
