<svg width="64" height="64" viewBox="0 0 64 64" fill="none" xmlns="http://www.w3.org/2000/svg">
<g clip-path="url(#clip0_648_85)">
<path d="M8.25837 5.28518C10.8473 4.80758 13.5077 5.09167 16.1324 5.01756C18.8823 5.09167 21.9004 4.62643 24.3641 6.03862C26.7116 7.40552 28.2542 9.62468 30.3467 11.2633C31.1158 11.8356 32.1219 12.0332 33.0877 12.0209C42.4998 12.0209 51.912 12.0456 61.3241 12.095C63.0814 11.9468 64.5122 13.7707 63.8236 15.2652C63.4346 16.4057 62.0753 16.945 60.8502 16.8256C51.4559 16.8092 42.0572 16.7968 32.6584 16.7762C30.0248 16.7968 27.494 15.6605 25.7502 13.8654C24.1674 12.5726 23.0227 10.7034 21.0419 9.8923C17.6392 9.63703 14.1963 9.83878 10.7802 9.78937C7.80229 9.71938 5.12396 12.1856 5.21339 14.9276C5.20892 26.3157 5.20892 37.7038 5.21786 49.0878C5.13291 51.8093 7.77546 54.2508 10.7221 54.2096C24.7531 54.2343 38.7886 54.2096 52.8197 54.2261C54.957 54.3372 57.1032 53.2832 58.1137 51.5334C58.9722 50.1624 58.771 48.5279 58.7889 47.0128C58.7978 40.9976 58.7576 34.9783 58.8112 28.959C58.771 27.5797 60.2555 26.4187 61.7265 26.6451C63.144 26.7686 64.1321 28.0614 63.9801 29.3336C63.9846 36.0611 64.0159 42.7886 63.9622 49.516C63.8996 54.5019 59.1019 58.8867 53.7005 58.9732C39.3788 59.0267 25.0527 58.9814 10.731 58.9938C5.16421 59.1008 0.0713589 54.646 0.0221743 49.4996C-0.0180677 37.9673 0.00875996 26.431 0.00875996 14.8988C-0.0940807 10.4316 3.54111 6.2486 8.25837 5.28518Z" fill="url(#paint0_linear_648_85)"/>
<path fill-rule="evenodd" clip-rule="evenodd" d="M37.7801 27.1332C37.1777 26.3184 36.0718 25.7291 34.9988 26.1278C33.6434 26.5265 33.1163 28.2554 34.0811 29.2348C38.053 33.8022 42.0627 38.3435 46.0911 42.8675C46.9994 44.0939 49.3242 43.8469 49.8277 42.4125C50.2937 41.5502 49.7289 40.6619 49.1266 40.0119C47.9001 38.6199 46.6731 37.2288 45.4463 35.8379C42.8883 32.9378 40.331 30.0384 37.7801 27.1332ZM26.4458 27.5172C25.2551 27.3131 24.2968 28.0883 23.6876 28.9299C22.7091 30.1777 21.7318 31.4266 20.7545 32.6756C18.8001 35.1733 16.8456 37.6711 14.8813 40.1598C14.1391 40.986 13.6461 42.1895 14.3164 43.1891C15.0752 44.5966 17.4512 44.8415 18.4757 43.5461C19.6932 42.1134 20.8357 40.6278 21.9786 39.1418C23.3417 37.3693 24.7052 35.5963 26.1966 33.9124C27.2973 35.3309 28.4058 36.7447 29.5145 38.1589C30.7098 39.6834 31.9054 41.2084 33.0921 42.7403C33.7346 43.5868 34.6318 44.566 35.9002 44.3875C37.7168 44.3672 38.974 42.2099 37.8497 40.8381C36.2641 38.7092 34.6146 36.6215 32.9648 34.5336C31.6584 32.8802 30.3518 31.2266 29.0766 29.5521C28.9721 29.4266 28.8683 29.2946 28.7629 29.1607C28.1698 28.4071 27.5274 27.5908 26.4458 27.5172Z" fill="url(#paint1_linear_648_85)"/>
<path d="M34.9988 26.1278L35.2246 26.8953L35.2514 26.8874L35.2775 26.8777L34.9988 26.1278ZM37.7801 27.1332L37.1368 27.6087L37.1568 27.6357L37.1789 27.661L37.7801 27.1332ZM34.0811 29.2348L34.6847 28.7098L34.6684 28.6911L34.651 28.6734L34.0811 29.2348ZM46.0911 42.8675L46.734 42.3914L46.7126 42.3624L46.6886 42.3355L46.0911 42.8675ZM49.8277 42.4125L49.1239 42.0322L49.0939 42.0879L49.0729 42.1475L49.8277 42.4125ZM49.1266 40.0119L48.5263 40.5407L48.533 40.5483L48.5398 40.5556L49.1266 40.0119ZM45.4463 35.8379L46.0463 35.3087L46.0463 35.3087L45.4463 35.8379ZM23.6876 28.9299L24.3171 29.4235L24.3266 29.4114L24.3357 29.399L23.6876 28.9299ZM26.4458 27.5172L26.3107 28.3057L26.3508 28.3125L26.3915 28.3153L26.4458 27.5172ZM20.7545 32.6756L21.3846 33.1686L21.3846 33.1686L20.7545 32.6756ZM14.8813 40.1598L15.4765 40.6944L15.4935 40.6754L15.5093 40.6554L14.8813 40.1598ZM14.3164 43.1891L15.0206 42.8095L15.0023 42.7756L14.9808 42.7436L14.3164 43.1891ZM18.4757 43.5461L17.8661 43.028L17.857 43.0388L17.8483 43.0498L18.4757 43.5461ZM21.9786 39.1418L22.6127 39.6295L22.6127 39.6295L21.9786 39.1418ZM26.1966 33.9124L26.8286 33.4219L26.2372 32.6598L25.5977 33.382L26.1966 33.9124ZM29.5145 38.1589L30.1441 37.6653L30.1441 37.6653L29.5145 38.1589ZM33.0921 42.7403L33.7293 42.2566L33.7245 42.2504L33.0921 42.7403ZM35.9002 44.3875L35.8912 43.5876L35.8397 43.5881L35.7887 43.5953L35.9002 44.3875ZM37.8497 40.8381L37.2081 41.3159L37.2192 41.3308L37.231 41.3452L37.8497 40.8381ZM32.9648 34.5336L32.3371 35.0296L32.3371 35.0296L32.9648 34.5336ZM29.0766 29.5521L29.7131 29.0674L29.7025 29.0535L29.6914 29.0401L29.0766 29.5521ZM28.7629 29.1607L28.1342 29.6554L28.1342 29.6554L28.7629 29.1607ZM35.2775 26.8777C35.8996 26.6465 36.6618 26.9662 37.1368 27.6087L38.4234 26.6576C37.6937 25.6706 36.2439 24.8117 34.7202 25.3779L35.2775 26.8777ZM34.651 28.6734C34.1637 28.1787 34.3749 27.1452 35.2246 26.8953L34.7731 25.3603C32.912 25.9077 32.0689 28.3322 33.5111 29.7962L34.651 28.6734ZM46.6886 42.3355C42.6616 37.8131 38.6541 33.2742 34.6847 28.7098L33.4774 29.7598C37.4519 34.3301 41.4637 38.8739 45.4937 43.3995L46.6886 42.3355ZM49.0729 42.1475C48.9529 42.4894 48.5759 42.7786 48.0192 42.8431C47.4627 42.9076 46.9732 42.7144 46.734 42.3914L45.4483 43.3437C46.1173 44.247 47.2445 44.5435 48.2033 44.4325C49.1619 44.3215 50.1991 43.77 50.5826 42.6775L49.0729 42.1475ZM48.5398 40.5556C48.8122 40.8496 49.026 41.1466 49.1312 41.42C49.2273 41.6698 49.2198 41.8548 49.1239 42.0322L50.5316 42.7928C50.9017 42.1079 50.8447 41.4176 50.6244 40.8452C50.4131 40.2963 50.0433 39.8241 49.7134 39.4681L48.5398 40.5556ZM44.8463 36.3671C46.0732 37.758 47.3 39.1489 48.5263 40.5407L49.7268 39.483C48.5002 38.0908 47.2731 36.6996 46.0463 35.3087L44.8463 36.3671ZM37.1789 27.661C39.7305 30.5671 42.2884 33.4671 44.8463 36.3671L46.0463 35.3087C43.4882 32.4085 40.9314 29.5098 38.3813 26.6053L37.1789 27.661ZM24.3357 29.399C24.8847 28.6405 25.5784 28.1802 26.3107 28.3057L26.5809 26.7286C24.9317 26.4461 23.7089 27.5362 23.0396 28.4608L24.3357 29.399ZM21.3846 33.1686C22.3619 31.9196 23.3389 30.671 24.3171 29.4235L23.0581 28.4362C22.0793 29.6844 21.1017 30.9337 20.1245 32.1826L21.3846 33.1686ZM15.5093 40.6554C17.4748 38.1652 19.4303 35.6661 21.3846 33.1686L20.1245 32.1826C18.1699 34.6805 16.2164 37.177 14.2534 39.6641L15.5093 40.6554ZM14.9808 42.7436C14.6303 42.2209 14.8047 41.4422 15.4765 40.6944L14.2862 39.6251C13.4735 40.5298 12.6619 42.1581 13.6519 43.6346L14.9808 42.7436ZM17.8483 43.0498C17.5446 43.4338 16.9901 43.6417 16.3698 43.5846C15.7462 43.5271 15.2413 43.219 15.0206 42.8095L13.6122 43.5687C14.1502 44.5667 15.2128 45.0848 16.2231 45.1778C17.2365 45.2712 18.3824 44.9538 19.1032 44.0423L17.8483 43.0498ZM21.3444 38.6541C20.1996 40.1426 19.0688 41.6127 17.8661 43.028L19.0854 44.0641C20.3175 42.6141 21.4718 41.1129 22.6127 39.6295L21.3444 38.6541ZM25.5977 33.382C24.0849 35.0901 22.7048 36.8852 21.3444 38.6541L22.6127 39.6295C23.9786 37.8534 25.3255 36.1025 26.7955 34.4427L25.5977 33.382ZM30.1441 37.6653C29.0351 36.2508 27.9279 34.8386 26.8286 33.4219L25.5645 34.4028C26.6667 35.8232 27.7764 37.2386 28.8849 38.6525L30.1441 37.6653ZM33.7245 42.2504C32.5362 40.7164 31.3391 39.1895 30.1441 37.6653L28.8849 38.6525C30.0804 40.1773 31.2746 41.7005 32.4596 43.2302L33.7245 42.2504ZM35.7887 43.5953C35.0285 43.7023 34.3963 43.1354 33.7293 42.2567L32.4548 43.224C33.0729 44.0383 34.235 45.4297 36.0117 45.1797L35.7887 43.5953ZM37.231 41.3452C37.5393 41.7214 37.5575 42.2344 37.2803 42.7277C36.9997 43.2271 36.4753 43.581 35.8912 43.5876L35.9091 45.1875C37.1417 45.1737 38.1541 44.4388 38.6752 43.5115C39.1997 42.5781 39.2844 41.3266 38.4685 40.331L37.231 41.3452ZM32.3371 35.0296C33.9881 37.119 35.6304 39.1977 37.2081 41.3159L38.4913 40.3602C36.8977 38.2206 35.2411 36.1241 33.5925 34.0376L32.3371 35.0296ZM28.4402 30.0367C29.7204 31.7179 31.0314 33.3771 32.3371 35.0296L33.5925 34.0376C32.2854 32.3833 30.9832 30.7353 29.7131 29.0674L28.4402 30.0367ZM28.1342 29.6554C28.2383 29.7877 28.3491 29.9286 28.4619 30.064L29.6914 29.0401C29.5952 28.9246 29.4983 28.8015 29.3915 28.6659L28.1342 29.6554ZM26.3915 28.3153C27.0637 28.3611 27.4976 28.8465 28.1342 29.6554L29.3915 28.6659C28.8421 27.9677 27.9911 26.8205 26.5001 26.719L26.3915 28.3153Z" fill="url(#paint2_linear_648_85)"/>
</g>
<defs>
<linearGradient id="paint0_linear_648_85" x1="0.00937517" y1="31.1999" x2="64.0106" y2="31.1999" gradientUnits="userSpaceOnUse">
<stop stop-color="#A93AFF"/>
<stop offset="1" stop-color="#FF81FF"/>
</linearGradient>
<linearGradient id="paint1_linear_648_85" x1="14.0036" y1="35.6957" x2="38.2798" y2="35.6957" gradientUnits="userSpaceOnUse">
<stop stop-color="#A93AFF"/>
<stop offset="1" stop-color="#FF81FF"/>
</linearGradient>
<linearGradient id="paint2_linear_648_85" x1="14.0036" y1="35.6957" x2="38.2798" y2="35.6957" gradientUnits="userSpaceOnUse">
<stop stop-color="#A93AFF"/>
<stop offset="1" stop-color="#FF81FF"/>
</linearGradient>
<clipPath id="clip0_648_85">
<rect width="64" height="64" fill="white"/>
</clipPath>
</defs>
</svg>
