<svg width="128" height="128" viewBox="0 0 128 128" fill="none" xmlns="http://www.w3.org/2000/svg">
<path fill-rule="evenodd" clip-rule="evenodd" d="M13.8692 6.00081C7.14329 6.00072 0 6.00198 0 13.2268V29.743C0 36.9677 11.3548 36.9677 11.3548 29.6935V19.3709C11.3548 17.3548 13.3781 17.3548 14.4103 17.3548C17.4775 17.3548 20.6235 17.3538 23.8074 17.3527C29.6156 17.3508 35.5499 17.3488 41.3622 17.3531C42.5977 17.354 43.7667 17.9092 44.555 18.8605C45.5815 20.0994 46.6258 21.3464 47.6712 22.5948C49.4024 24.6623 51.1367 26.7335 52.7988 28.7775C54.3531 30.6919 56.3158 32.9468 58.7974 32.8387C77.0339 32.8396 95.2704 32.8397 113.507 32.8389C115.787 32.8388 117.636 34.6876 117.637 36.9681C117.641 43.8245 117.655 50.6671 117.669 57.5097C117.701 73.9964 117.734 90.4829 117.636 107.161C117.624 109.227 116.563 110.259 115.055 110.259H15.4308C13.155 110.259 11.3083 108.418 11.303 106.141C11.2862 98.8834 11.2786 91.4191 11.2752 84.0007C11.2747 82.8958 12.1702 82 13.2751 82H62C64.7614 82 67 79.7614 67 77V76C67 73.2386 64.7614 71 62 71H13.2723C12.1678 71 11.2724 70.1046 11.2724 69.0001C11.2724 67.9526 11.2724 66.9096 11.2724 65.872C11.2724 62.9796 12.5985 59.7029 17.8287 59.7029C31.792 59.6488 44.8337 59.6574 57.9714 59.6662C68.632 59.6732 79.3557 59.6804 90.6861 59.654C93.9579 59.654 96.0224 57.0968 96.0224 54C96.0224 50.9032 94.0643 48.3169 90.7562 48.3236C73.899 48.3578 53.3197 48.3456 34.0925 48.3342C24.9683 48.3288 16.1485 48.3236 8.17556 48.3236C5.07876 48.3236 1.03366e-05 49.3559 1.03366e-05 55.5494L2.06732e-05 66.9043L1.03366e-05 115.42C1.03366e-05 119.033 3.61293 121.563 6.77747 121.564C35.1692 121.564 84.3373 121.594 106.409 121.607C112.772 121.611 116.883 121.614 117.595 121.614H117.596C120.776 121.614 127.998 121.614 127.998 111.291C127.998 109.91 127.998 109.482 127.999 109.147C127.999 108.658 127.999 108.37 127.998 105.613C128 81.872 128 57.7701 128 33.872C128 26.6452 124.903 21.4839 117.402 21.4839H62.7015C61.5306 21.4839 60.4132 20.9885 59.6396 20.1095C57.6418 17.8396 55.6367 15.4529 53.6567 13.0959C52.4885 11.7054 51.3289 10.3251 50.1847 8.98529C48.7539 7.3261 46.8551 5.93201 44.7091 6.02038C39.0543 5.99337 33.3996 5.99906 27.7449 6.00474C23.1197 6.0094 18.4944 6.01405 13.8692 6.00081Z" fill="url(#paint0_linear_667_95)"/>
<defs>
<linearGradient id="paint0_linear_667_95" x1="0" y1="121.614" x2="149.076" y2="49.677" gradientUnits="userSpaceOnUse">
<stop stop-color="#0357D1"/>
<stop offset="1" stop-color="#27CDFC"/>
</linearGradient>
</defs>
</svg>
