<svg width="64" height="64" viewBox="0 0 64 64" fill="none" xmlns="http://www.w3.org/2000/svg">
<g clip-path="url(#clip0_647_62)">
<path d="M8.27138 5.27874C10.8465 4.80105 13.4931 5.10167 16.0995 5.01931C18.7818 5.11402 21.6833 4.61163 24.1287 5.91291C26.6233 7.25537 28.2014 9.59027 30.3697 11.291C31.1476 11.814 32.1222 12.0528 33.0834 12.024C42.3242 12.024 51.565 12.024 60.8058 12.0611C62.062 11.9252 63.4747 12.4976 63.8458 13.6835C64.4896 15.2031 63.0187 16.9656 61.2707 16.8256C51.7438 16.8338 42.2124 16.7926 32.6855 16.7761C30.3786 16.7803 28.0807 15.9525 26.4177 14.4742C24.9692 13.1853 23.6503 11.7769 22.2019 10.4962C21.5402 9.91559 20.6014 9.73028 19.7117 9.77146C16.6404 9.79617 13.5646 9.75087 10.4933 9.79205C7.60526 9.85794 5.11512 12.2917 5.20006 14.9519C5.20006 26.3381 5.19112 37.7243 5.19559 49.1147C5.12406 51.8408 7.78408 54.291 10.7481 54.2292C24.9111 54.2374 39.074 54.2374 53.237 54.2251C56.201 54.2786 58.8655 51.8119 58.7671 49.0735C58.7761 42.6288 58.7716 36.1883 58.7627 29.7437C58.7761 28.9901 58.7493 28.1459 59.3215 27.5364C60.2469 26.3752 62.3347 26.3093 63.3317 27.4252C63.9844 28.0347 63.9844 28.9365 63.9799 29.7354C63.9486 36.3407 64.0023 42.9459 63.9531 49.5512C63.8681 54.5298 59.0667 58.8949 53.6796 58.9772C39.3691 59.0143 25.0586 58.9978 10.7481 58.9855C6.61278 59.0266 2.60262 56.6506 0.948489 53.1544C0.157187 51.6307 -0.012696 49.9177 0.00071586 48.254C0.0364809 36.9954 -0.0350494 25.7369 0.0275394 14.4824C0.112481 10.1585 3.70687 6.21352 8.27138 5.27874Z" fill="url(#paint0_linear_647_62)"/>
<path d="M25.4571 28.5C25.4571 24.899 28.439 22 32.1429 22C35.4576 22 38.1941 24.3219 38.7325 27.3909C38.8388 27.997 38.3297 28.5 37.7143 28.5C37.0989 28.5 36.615 27.9973 36.5193 27.3894C36.154 25.0669 34.5666 24.1667 32.1429 24.1667C29.365 24.1667 27.6857 25.3492 27.6857 28.5V33C27.6857 34.1046 28.5811 35 29.6857 35H36.6H38.8286H41.2857C42.3902 35 43.2857 35.8954 43.2857 37V46C43.2857 47.1046 42.3908 48 41.2862 48H22.9999C21.8953 48 21 47.1046 21 46V36.625C21 35.7275 21.7275 35 22.625 35H23.4571C24.5617 35 25.4571 34.1046 25.4571 33V28.5Z" fill="url(#paint1_linear_647_62)" stroke="url(#paint2_linear_647_62)" stroke-width="2"/>
</g>
<defs>
<linearGradient id="paint0_linear_647_62" x1="32" y1="59" x2="32" y2="5" gradientUnits="userSpaceOnUse">
<stop stop-color="#02AA93"/>
<stop offset="1" stop-color="#67FF80"/>
</linearGradient>
<linearGradient id="paint1_linear_647_62" x1="32.1429" y1="48" x2="32.1429" y2="22" gradientUnits="userSpaceOnUse">
<stop stop-color="#02AA93"/>
<stop offset="1" stop-color="#67FF80"/>
</linearGradient>
<linearGradient id="paint2_linear_647_62" x1="32.1429" y1="48" x2="32.1429" y2="22" gradientUnits="userSpaceOnUse">
<stop stop-color="#02AA93"/>
<stop offset="1" stop-color="#67FF80"/>
</linearGradient>
<clipPath id="clip0_647_62">
<rect width="64" height="64" fill="white"/>
</clipPath>
</defs>
</svg>
