<svg width="64" height="64" viewBox="0 0 64 64" fill="none" xmlns="http://www.w3.org/2000/svg">
<g clip-path="url(#clip0)">
<path d="M8.24717 5.28688C10.8404 4.80099 13.5052 5.09747 16.1297 5.01923C18.8839 5.09747 21.902 4.61569 24.37 6.03631C26.7218 7.40752 28.2688 9.63522 30.3702 11.2823C31.1437 11.8341 32.1453 12.04 33.1155 12.0235C42.5183 12.0235 51.921 12.0359 61.3238 12.0894C62.9423 11.9617 64.3418 13.5059 63.926 14.9471C63.6979 16.063 62.522 16.8907 61.2969 16.8166C51.7466 16.8289 42.1963 16.7836 32.646 16.7754C30.4597 16.763 28.2778 16.0177 26.6547 14.663C24.6696 13.1765 23.3506 10.8953 21.0033 9.87817C17.7483 9.63934 14.462 9.84523 11.1981 9.77522C8.9536 9.63934 6.7091 10.8252 5.75228 12.7029C5.09503 13.893 5.21128 15.2601 5.20234 16.5489C5.22469 27.3992 5.19339 38.2494 5.21575 49.1038C5.17998 51.138 6.62415 53.0815 8.66745 53.8392C9.88359 54.3169 11.2339 54.2263 12.526 54.2345C26.1093 54.2139 39.6925 54.2428 53.2713 54.218C55.3727 54.2263 57.3847 53.0157 58.2611 51.2656C58.963 49.9521 58.7618 48.4532 58.7886 47.0408C58.7976 41.0124 58.7574 34.9841 58.8065 28.9557C58.7708 27.6009 60.206 26.4603 61.6546 26.6374C63.0765 26.7239 64.1406 28.0086 63.9796 29.2975C63.9796 36.0341 64.0109 42.7707 63.9662 49.5115C63.9036 54.498 59.1016 58.8917 53.696 58.974C39.384 59.0234 25.0675 58.9864 10.7555 58.9905C6.61521 59.0317 2.60462 56.6516 0.945834 53.1557C0.163389 51.6362 -0.0243975 49.9356 0.00242916 48.272C0.0381981 37.01 -0.0243977 25.7397 0.0337268 14.4777C0.114207 10.1664 3.70004 6.22985 8.24717 5.28688Z" fill="url(#paint0_linear)"/>
<path fill-rule="evenodd" clip-rule="evenodd" d="M29.8659 21.6489C30.5559 19.4504 33.4441 19.4504 34.1341 21.6489L36.8792 30.3951H45.7432C47.9466 30.3951 48.8397 33.45 47.0332 34.8087L45.2192 36.173C44.398 36.7907 43.2252 36.5831 42.6657 35.721L42.0369 34.7517C41.8839 34.516 41.9394 34.202 42.164 34.0331H36.0709C35.1047 34.0331 34.2461 33.3697 33.9368 32.3842L32 26.2134L30.0632 32.3842C29.7539 33.3697 28.8953 34.0331 27.9291 34.0331H21.836L26.6884 37.6829C27.5091 38.3001 27.853 39.4264 27.5325 40.4475L25.6464 46.4569L30.7099 42.6483C31.4848 42.0655 32.5152 42.0655 33.2901 42.6483L38.3536 46.4569L36.8195 41.5691C36.547 40.7007 37.006 39.7717 37.8612 39.4605C38.7724 39.129 39.7761 39.6248 40.0664 40.55L42.6517 48.7872C43.348 51.0052 41.0101 52.8926 39.2276 51.552L32 46.1158L24.7725 51.552C22.9899 52.8926 20.6521 51.0052 21.3482 48.7872L24.0609 40.1444L16.9668 34.8087C15.1604 33.45 16.0534 30.3951 18.2569 30.3951H27.1208L29.8659 21.6489Z" fill="url(#paint1_linear)"/>
</g>
<defs>
<linearGradient id="paint0_linear" x1="32" y1="5" x2="32" y2="59" gradientUnits="userSpaceOnUse">
<stop stop-color="#FC1878"/>
<stop offset="1" stop-color="#FF1E1E"/>
</linearGradient>
<linearGradient id="paint1_linear" x1="32" y1="20" x2="32" y2="52" gradientUnits="userSpaceOnUse">
<stop stop-color="#FC1878"/>
<stop offset="1" stop-color="#FF1E1E"/>
</linearGradient>
<clipPath id="clip0">
<rect width="64" height="64" fill="white"/>
</clipPath>
</defs>
</svg>
