<svg width="64" height="64" viewBox="0 0 64 64" fill="none" xmlns="http://www.w3.org/2000/svg">
<path fill-rule="evenodd" clip-rule="evenodd" d="M13.3036 5.02208C11.6054 4.99524 9.90543 4.96838 8.24108 5.29237C3.52845 6.25994 -0.0976836 10.4431 0.00515373 14.9022C0.00834749 19.0255 0.00583806 23.1488 0.00332874 27.2719C-0.00118791 34.6932 -0.00570418 42.114 0.0230389 49.533C0.0990491 54.5026 4.86981 58.867 10.2531 58.974C19.9639 59.0075 29.6789 59.0013 39.3937 58.9951C44.015 58.9921 48.6362 58.9892 53.257 58.9905C58.8236 59.1017 63.9118 54.6426 63.961 49.496C63.9927 44.7278 63.9862 39.9597 63.9797 35.1915C63.9771 33.2279 63.9744 31.2642 63.9744 29.3005C64.1309 28.0282 63.0981 26.7395 61.6807 26.6407C60.2231 26.4472 58.7655 27.5918 58.8057 28.9546C58.7675 32.9086 58.7737 36.8662 58.78 40.8226C58.7832 42.8853 58.7864 44.9477 58.7834 47.0091C58.7763 47.3114 58.7807 47.617 58.785 47.9238C58.7999 48.9748 58.815 50.0386 58.372 51.0235C57.5538 52.9133 55.4345 54.2474 53.2167 54.2226C46.118 54.2313 39.018 54.2297 31.918 54.228C25.6022 54.2265 19.2864 54.2251 12.9716 54.2309C12.6733 54.2266 12.3719 54.2301 12.0694 54.2337C10.9119 54.2472 9.73803 54.2608 8.6569 53.8397C6.61357 53.078 5.17385 51.1305 5.20961 49.0966C5.20067 43.6748 5.20179 38.2529 5.20291 32.8311C5.20403 27.4079 5.20515 21.9847 5.1962 16.5615C5.19765 16.3676 5.1958 16.172 5.19394 15.9757C5.18436 14.963 5.17458 13.9285 5.61649 12.9835C6.43919 11.1019 8.54512 9.75967 10.7628 9.78849C12.1375 9.77447 13.5132 9.77799 14.889 9.78151C16.3413 9.78522 17.7936 9.78894 19.2447 9.77202C19.2628 9.77194 19.2809 9.77186 19.2991 9.77177C20.2193 9.76749 21.2357 9.76276 21.9855 10.3361C22.8251 10.9943 23.5814 11.7539 24.3379 12.5135C25.7485 13.9303 27.1596 15.3474 29.1126 16.1086C30.8239 16.8276 32.7079 16.8063 34.5605 16.7853C34.978 16.7806 35.3939 16.7759 35.8059 16.7797C40.8142 16.797 45.8224 16.8054 50.8317 16.8137C54.1762 16.8194 57.5212 16.825 60.8669 16.8332C62.0652 16.9444 63.3887 16.4256 63.8 15.3222C64.5467 13.8111 63.0891 11.9377 61.3007 12.0901C55.5041 12.0551 49.7058 12.0459 43.9069 12.0367C40.1516 12.0307 36.396 12.0248 32.6403 12.0118C30.9994 12.0324 29.7877 10.9125 28.7817 9.8626C28.393 9.50551 28.014 9.1283 27.633 8.74912C26.2483 7.37073 24.8373 5.96629 22.835 5.40766C21.2514 4.94402 19.5948 4.98281 17.9435 5.02148C17.1752 5.03947 16.408 5.05743 15.6498 5.02475C14.8705 5.04685 14.0873 5.03447 13.3036 5.02208ZM20.7862 26.4636C20.7638 24.3515 22.7937 22.4575 25.0875 22.4616C28.3463 22.441 31.6068 22.4446 34.8669 22.4481H34.8675H34.8677C36.8228 22.4502 38.7777 22.4524 40.7321 22.4493C41.6264 22.3875 42.5877 22.7786 42.9186 23.5898C43.5222 24.7097 42.5117 26.2248 41.1435 26.1837C38.726 26.2241 36.3086 26.2137 33.8912 26.2033H33.8909C31.2136 26.1918 28.5363 26.1803 25.859 26.2378C25.3175 26.2495 24.8866 26.6933 24.8864 27.2349C24.8857 28.7828 24.881 30.3312 24.8763 31.8797V31.8801V31.8807C24.8643 35.881 24.8522 39.8821 24.9081 43.8784C24.9153 44.3914 25.3108 44.8156 25.8227 44.8498C28.7376 45.0442 31.716 44.9983 34.6852 44.9525H34.6853L34.6865 44.9525C35.7877 44.9355 36.8876 44.9186 37.9826 44.9139C38.5301 44.9116 38.9776 44.4731 38.9838 43.9255C39.0091 41.6918 39.004 39.4569 38.999 37.2224V37.2217V37.2215C38.9965 36.1176 38.994 35.0137 38.9951 33.9101C38.9957 33.3599 38.5529 32.9114 38.0027 32.9096C36.973 32.906 35.9436 32.9098 34.9143 32.9136C32.9864 32.9207 31.0586 32.9277 29.1294 32.8867C27.5466 32.9484 26.5317 31.0339 27.5466 29.914C28.1131 29.1278 29.1675 29.1283 30.0995 29.1288H30.0996H30.0998C30.2121 29.1289 30.3227 29.1289 30.4305 29.1276C31.7707 29.1462 33.1117 29.1412 34.4529 29.1363C36.0828 29.1303 37.7129 29.1243 39.3416 29.1605C41.3581 29.1234 43.1287 30.7786 43.0795 32.6314C43.1189 36.1277 43.1062 39.6271 43.0934 43.127L43.0885 44.5222C43.2047 46.8156 40.9512 48.8372 38.4742 48.7219C37.2158 48.7219 35.9575 48.7248 34.6991 48.7277C31.4818 48.7352 28.2645 48.7427 25.0472 48.7013C22.7267 48.6766 20.6968 46.7332 20.7817 44.5922C20.7683 38.548 20.7638 32.5038 20.7862 26.4636ZM33.2389 37.2956H33.239C33.7776 37.3016 34.3161 37.3076 34.8539 37.3087C35.8063 37.2634 36.7587 37.9057 36.9062 38.7868C37.2237 39.8985 36.1728 41.0925 34.9254 41.039C34.3482 41.039 33.7699 41.0458 33.1912 41.0527H33.1909H33.1908C31.6629 41.0707 30.1318 41.0889 28.6077 40.9813C26.6269 40.5531 26.7433 37.5969 28.7732 37.3499C30.2574 37.2622 31.749 37.2789 33.2389 37.2956Z" fill="url(#paint0_linear_667_89)"/>
<defs>
<linearGradient id="paint0_linear_667_89" x1="32" y1="59" x2="32" y2="11.5" gradientUnits="userSpaceOnUse">
<stop stop-color="#5558FF"/>
<stop offset="1" stop-color="#00C0FF"/>
</linearGradient>
</defs>
</svg>
