<svg width="64" height="64" viewBox="0 0 64 64" fill="none" xmlns="http://www.w3.org/2000/svg">
<g clip-path="url(#clip0_667_68)">
<path fill-rule="evenodd" clip-rule="evenodd" d="M13.6066 5.01538C11.8132 4.98786 10.0193 4.96033 8.25837 5.28518C3.54111 6.2486 -0.0940807 10.4316 0.00875996 14.8988C0.00875996 18.1936 0.00657016 21.4886 0.00438027 24.7839C-0.00109484 33.0225 -0.00657056 41.2621 0.0221743 49.4996C0.0713589 54.646 5.16421 59.1008 10.731 58.9938C16.0113 58.9892 21.2923 58.9925 26.5734 58.9958C35.616 59.0014 44.6591 59.007 53.7005 58.9732C59.1019 58.8867 63.8996 54.5019 63.9622 49.516C64.003 44.4012 63.9947 39.2863 63.9864 34.1714C63.9838 32.5588 63.9812 30.9462 63.9801 29.3336C64.1321 28.0614 63.144 26.7686 61.7265 26.6451C60.2555 26.4187 58.771 27.5797 58.8112 28.959C58.776 32.9103 58.7812 36.8615 58.7865 40.8116C58.7892 42.8791 58.792 44.9462 58.7889 47.0128C58.7858 47.2716 58.7892 47.5338 58.7925 47.7977C58.8088 49.0785 58.8256 50.3966 58.1137 51.5334C57.1032 53.2832 54.957 54.3372 52.8197 54.2261C46.4393 54.2186 40.058 54.2196 33.6766 54.2206C26.0247 54.2218 18.3727 54.2231 10.7221 54.2096C7.77546 54.2508 5.13291 51.8093 5.21786 49.0878C5.20892 37.7038 5.20892 26.3157 5.21339 14.9276C5.12396 12.1856 7.80229 9.71938 10.7802 9.78937C11.9916 9.80689 13.2063 9.79283 14.4214 9.77876C16.633 9.75316 18.8458 9.72755 21.0419 9.8923C22.332 10.4206 23.2675 11.3977 24.2003 12.3721C24.6997 12.8938 25.1983 13.4146 25.7502 13.8654C27.494 15.6605 30.0248 16.7968 32.6584 16.7762C38.9717 16.79 45.2851 16.8002 51.597 16.8103C54.6818 16.8153 57.7662 16.8202 60.8502 16.8256C62.0753 16.945 63.4346 16.4057 63.8236 15.2652C64.5122 13.7707 63.0814 11.9468 61.3241 12.095C51.912 12.0456 42.4998 12.0209 33.0877 12.0209C32.1219 12.0332 31.1158 11.8356 30.3467 11.2633C29.4981 10.5988 28.74 9.83883 27.982 9.07894C26.8707 7.96499 25.7596 6.85121 24.3641 6.03862C22.4488 4.94077 20.1984 4.97757 17.9995 5.01353C17.3699 5.02383 16.7445 5.03406 16.1324 5.01756C15.2929 5.04126 14.4498 5.02832 13.6066 5.01538ZM34.8857 22.1909C33.7585 22.3206 33.0199 23.3765 33.1073 24.3789C33.0733 27.6407 33.0879 30.9069 33.1122 34.1733C31.397 33.3858 29.502 32.8533 27.5683 33.0323C23.4625 33.2427 19.794 36.2852 19.1478 40.0257C18.4773 43.2921 20.1342 46.8269 23.1856 48.6122C26.3147 50.5451 30.7168 50.4511 33.7439 48.3795C36.1733 46.8089 37.5581 44.1065 37.6406 41.4039C37.5275 38.3073 37.5384 35.2105 37.5494 32.1128C37.5563 30.1528 37.5632 28.1924 37.5387 26.2313C38.5085 26.1594 39.4807 26.1458 40.453 26.1322C41.4777 26.1179 42.5025 26.1036 43.5248 26.021C45.1088 25.8689 45.8862 23.8688 44.8367 22.7815C44.1981 21.9645 43.0793 21.9865 42.0807 22.0062C41.9472 22.0088 41.8159 22.0114 41.6881 22.0119C40.7782 22.0497 39.866 22.0549 38.9536 22.0602C37.5956 22.068 36.2372 22.0758 34.8857 22.1909ZM24.9785 44.7015C22.1166 42.4644 23.6471 37.6991 27.3302 37.1756C30.2989 36.5357 33.4524 39.019 33.0199 41.8514C33.0199 45.4354 27.6169 47.2788 24.9785 44.7015Z" fill="url(#paint0_linear_667_68)"/>
</g>
<defs>
<linearGradient id="paint0_linear_667_68" x1="7.5" y1="23.5" x2="62" y2="32" gradientUnits="userSpaceOnUse">
<stop stop-color="#A93AFF"/>
<stop offset="1" stop-color="#FF81FF"/>
</linearGradient>
<clipPath id="clip0_667_68">
<rect width="64" height="64" fill="white"/>
</clipPath>
</defs>
</svg>
