<svg width="64" height="64" viewBox="0 0 64 64" fill="none" xmlns="http://www.w3.org/2000/svg">
<g clip-path="url(#clip0_648_79)">
<path d="M8.24717 5.28688C10.8404 4.80099 13.5052 5.09747 16.1297 5.01923C18.8839 5.09747 21.902 4.61569 24.37 6.03631C26.7218 7.40752 28.2688 9.63522 30.3702 11.2823C31.1437 11.8341 32.1453 12.04 33.1155 12.0235C42.5183 12.0235 51.921 12.0359 61.3238 12.0894C62.9423 11.9617 64.3418 13.5059 63.926 14.9471C63.6979 16.063 62.522 16.8907 61.2969 16.8166C51.7466 16.8289 42.1963 16.7836 32.646 16.7754C30.4597 16.763 28.2778 16.0177 26.6547 14.663C24.6696 13.1765 23.3506 10.8953 21.0033 9.87817C17.7483 9.63934 14.462 9.84523 11.1981 9.77522C8.9536 9.63934 6.7091 10.8252 5.75228 12.7029C5.09503 13.893 5.21128 15.2601 5.20234 16.5489C5.22469 27.3992 5.19339 38.2494 5.21575 49.1038C5.17998 51.138 6.62415 53.0815 8.66745 53.8392C9.88359 54.3169 11.2339 54.2263 12.526 54.2345C26.1093 54.2139 39.6925 54.2428 53.2713 54.218C55.3727 54.2263 57.3847 53.0157 58.2611 51.2656C58.963 49.9521 58.7618 48.4532 58.7886 47.0408C58.7976 41.0124 58.7574 34.9841 58.8065 28.9557C58.7708 27.6009 60.206 26.4603 61.6546 26.6374C63.0765 26.7239 64.1406 28.0086 63.9796 29.2975C63.9796 36.0341 64.0109 42.7707 63.9662 49.5115C63.9036 54.498 59.1016 58.8917 53.696 58.974C39.384 59.0234 25.0675 58.9864 10.7555 58.9905C6.61521 59.0317 2.60462 56.6516 0.945834 53.1557C0.163389 51.6362 -0.0243975 49.9356 0.00242916 48.272C0.0381981 37.01 -0.0243977 25.7397 0.0337268 14.4777C0.114207 10.1664 3.70004 6.22985 8.24717 5.28688Z" fill="url(#paint0_linear_648_79)"/>
<path d="M32 22C24.268 22 18 28.268 18 36C18 43.732 24.268 50 32 50C39.732 50 46 43.732 46 36C46 28.268 39.732 22 32 22ZM32 24.3333C38.4434 24.3333 43.6666 29.5567 43.6666 36C43.6666 42.4434 38.4434 47.6666 32 47.6666C25.5567 47.6666 20.3333 42.4434 20.3333 36C20.3333 29.5567 25.5567 24.3333 32 24.3333ZM30.6667 27.6667C30.1144 27.6667 29.6667 28.1144 29.6667 28.6667V36V37.3333C29.6667 37.8856 30.1144 38.3333 30.6667 38.3333H39.3334C39.8856 38.3333 40.3334 37.8856 40.3334 37.3333V37C40.3334 36.4477 39.8856 36 39.3334 36H33C32.4477 36 32 35.5523 32 35V28.6667C32 28.1144 31.5523 27.6667 31 27.6667H30.6667Z" fill="url(#paint1_linear_648_79)" stroke="url(#paint2_linear_648_79)" stroke-width="2"/>
</g>
<defs>
<linearGradient id="paint0_linear_648_79" x1="32" y1="59" x2="32" y2="5" gradientUnits="userSpaceOnUse">
<stop stop-color="#FDA700"/>
<stop offset="1" stop-color="#FFDE00"/>
</linearGradient>
<linearGradient id="paint1_linear_648_79" x1="32" y1="50" x2="32" y2="22" gradientUnits="userSpaceOnUse">
<stop stop-color="#FDA700"/>
<stop offset="1" stop-color="#FFDE00"/>
</linearGradient>
<linearGradient id="paint2_linear_648_79" x1="32" y1="50" x2="32" y2="22" gradientUnits="userSpaceOnUse">
<stop stop-color="#FDA700"/>
<stop offset="1" stop-color="#FFDE00"/>
</linearGradient>
<clipPath id="clip0_648_79">
<rect width="64" height="64" fill="white"/>
</clipPath>
</defs>
</svg>
