<svg width="64" height="64" viewBox="0 0 64 64" fill="none" xmlns="http://www.w3.org/2000/svg">
<path d="M8.25656 5.28057C10.8362 4.80292 13.4828 5.09939 16.0938 5.02115C18.7628 5.10762 21.633 4.62586 24.074 5.88586C26.6 7.21586 28.1737 9.58351 30.3688 11.28C31.1333 11.8359 32.1303 12.0335 33.087 12.0253C42.489 12.0376 51.8909 12.0047 61.2929 12.0788C63.0901 11.9265 64.5386 13.7959 63.8054 15.3153C63.3852 16.4312 62.0529 16.9459 60.8458 16.8388C52.338 16.8182 43.8347 16.8059 35.3313 16.7853C33.0334 16.8059 30.5923 16.9129 28.5179 15.8506C25.5046 14.4918 24.0025 11.3747 21.1189 9.91704C17.6987 9.59998 14.225 9.8594 10.7825 9.78528C7.78713 9.71528 5.10916 12.19 5.19858 14.9488C5.18964 25.6465 5.20305 36.34 5.18964 47.0377C5.20752 48.5324 5.00187 50.1424 5.84236 51.4971C6.83487 53.2759 9.00764 54.3506 11.1581 54.2395C25.1962 54.223 39.2343 54.2436 53.2724 54.2189C56.232 54.2559 58.8742 51.7936 58.7669 49.0595C58.7982 42.3559 58.7267 35.6524 58.7937 28.953C58.7535 27.5653 60.2467 26.4124 61.7221 26.6429C63.1303 26.7624 64.1273 28.0512 63.9708 29.3194C63.9574 36.06 63.9977 42.8006 63.9485 49.5453C63.877 54.5071 59.0933 58.8759 53.715 58.9665C39.9898 59.0324 26.2602 58.9665 12.5306 58.9995C10.6708 59.0036 8.74387 58.9995 6.98687 58.3571C3.59359 57.2165 0.933498 54.3959 0.236064 51.1265C-0.0590047 49.6318 0.00805613 48.1083 0.0035854 46.6012C0.0125269 36.0394 -0.00535597 25.4735 0.00805623 14.9118C-0.103712 10.44 3.53546 6.24821 8.25656 5.28057Z" fill="url(#paint0_linear)"/>
<path fill-rule="evenodd" clip-rule="evenodd" d="M24.2998 30.856C24.4998 30.856 24.6998 30.856 24.8998 30.756V30.156C24.8998 29.656 24.8998 29.156 24.9998 28.756C24.7998 28.856 24.4998 28.856 24.2998 28.856C22.9998 28.856 21.8998 27.756 21.8998 26.456C21.8998 25.156 22.9998 24.056 24.2998 24.056C25.2998 24.056 26.1998 24.656 26.5998 25.556C26.9998 25.056 27.5998 24.556 28.0998 24.156C26.7998 22.056 24.0998 21.356 21.9998 22.656C19.8998 23.956 19.1998 26.656 20.4998 28.756C21.2998 30.056 22.6998 30.856 24.2998 30.856ZM37.4 25.5562C37.9 24.3562 39.3 23.7562 40.6 24.2562C41.8 24.7562 42.4 26.1562 41.9 27.4562C41.5 28.3561 40.6 28.9561 39.7 28.9561C39.5 28.9561 39.2 28.9561 39 28.8561C39.1 29.3561 39.1 29.8561 39.1 30.2561V30.8561C39.2 30.8561 39.3 30.8811 39.4 30.9061C39.5 30.9311 39.6 30.9561 39.7 30.9561C42.2 30.9561 44.2 28.9561 44.2 26.5562C44.2 24.0562 42.2 22.0562 39.8 22.0562C38.2 22.0562 36.8 22.8562 36 24.2562C36.5 24.5562 37 24.9562 37.4 25.5562ZM36.7 30.156C36.7 32.856 34.6 35.056 31.9 35.056C29.2 35.056 27 32.856 27 30.156C27 27.556 29.1 25.356 31.8 25.356C34.5 25.356 36.7 27.456 36.7 30.156ZM34.7 30.256C34.7 28.656 33.4 27.356 31.8 27.356C30.3 27.356 29 28.656 29 30.256C29 31.756 30.2 33.056 31.8 33.056C33.4 33.056 34.7 31.856 34.7 30.256ZM39.7 31.9558C42.3 31.8558 44.8 32.7558 46.7 34.4558L47 34.7558V42.7558H45V35.5558C43.5 34.4558 41.6 33.8558 39.7 33.9558H39.7C39.1 33.9558 38.6 33.9558 38 34.0558C38.4 33.4558 38.7 32.7558 38.9 31.9558H39.7ZM25.1 32.0559C25.3 32.8559 25.6 33.5559 26 34.1559C25.5 34.0559 24.9 33.9559 24.3 33.9559C22.4 33.8559 20.6 34.4559 19 35.5559V42.7559H17V34.7559L17.3 34.4559C19.2 32.8559 21.7 31.9559 24.3 32.0559H25.1ZM39.9 40.1559L40.1 40.4559H40.2V48.0559C40.2 48.9559 39.4 49.7559 38.5 49.7559H25.7C24.7 49.7559 24 48.9559 24 48.0559V40.4559L24.2 40.1559C26.2 37.9559 29.1 36.6559 32.1 36.7559C35.1 36.6559 37.9 37.9559 39.9 40.1559ZM26 47.7559H38.1V41.1559C36.5 39.5559 34.3 38.6559 32.1 38.7559C29.8 38.7559 27.6 39.5559 26 41.1559V47.7559Z" fill="url(#paint1_linear)"/>
<path d="M24.8998 30.756L25.1234 31.2032L25.3998 31.065V30.756H24.8998ZM24.9998 28.756L25.4849 28.8772L25.7485 27.8226L24.7762 28.3088L24.9998 28.756ZM26.5998 25.556L26.1429 25.7591L26.4767 26.5102L26.9902 25.8684L26.5998 25.556ZM28.0998 24.156L28.4121 24.5465L28.7582 24.2696L28.5249 23.8928L28.0998 24.156ZM21.9998 22.656L21.7366 22.2309L21.7366 22.2309L21.9998 22.656ZM20.4998 28.756L20.9256 28.4939L20.9249 28.4928L20.4998 28.756ZM40.6 24.2562L40.7924 23.7944L40.7795 23.7895L40.6 24.2562ZM37.4 25.5562L36.984 25.8335L37.5022 26.6109L37.8615 25.7485L37.4 25.5562ZM41.9 27.4562L42.3569 27.6592L42.3621 27.6476L42.3667 27.6356L41.9 27.4562ZM39 28.8561L39.2236 28.4089L38.3092 27.9517L38.5097 28.9542L39 28.8561ZM39.1 30.8561H38.6V31.3561H39.1V30.8561ZM39.4 30.9061L39.5213 30.421L39.5213 30.421L39.4 30.9061ZM36 24.2562L35.5659 24.0081L35.323 24.4331L35.7428 24.6849L36 24.2562ZM46.7 34.4558L47.0536 34.1022L47.0437 34.0924L47.0334 34.0831L46.7 34.4558ZM39.7 31.9558V32.4558H39.7096L39.7192 32.4554L39.7 31.9558ZM47 34.7558H47.5V34.5487L47.3536 34.4022L47 34.7558ZM47 42.7558V43.2558H47.5V42.7558H47ZM45 42.7558H44.5V43.2558H45V42.7558ZM45 35.5558H45.5V35.3024L45.2957 35.1526L45 35.5558ZM39.7 33.9558V34.4558H39.7131L39.7263 34.4551L39.7 33.9558ZM38 34.0558L37.584 33.7784L36.9438 34.7387L38.0822 34.549L38 34.0558ZM38.9 31.9558V31.4558H38.5096L38.4149 31.8345L38.9 31.9558ZM26 34.1559L25.9019 34.6462L27.0856 34.8829L26.416 33.8785L26 34.1559ZM25.1 32.0559L25.5851 31.9346L25.4904 31.5559H25.1V32.0559ZM24.3 33.9559L24.2737 34.4552L24.2869 34.4559H24.3V33.9559ZM19 35.5559L18.7167 35.1439L18.5 35.2929V35.5559H19ZM19 42.7559V43.2559H19.5V42.7559H19ZM17 42.7559H16.5V43.2559H17V42.7559ZM17 34.7559L16.6464 34.4023L16.5 34.5488V34.7559H17ZM17.3 34.4559L16.9779 34.0734L16.9616 34.0872L16.9464 34.1023L17.3 34.4559ZM24.3 32.0559L24.2808 32.5555L24.2904 32.5559H24.3V32.0559ZM40.1 40.4559L39.684 40.7332L39.8324 40.9559H40.1V40.4559ZM39.9 40.1559L40.316 39.8785L40.2952 39.8473L40.27 39.8195L39.9 40.1559ZM40.2 40.4559H40.7V39.9559H40.2V40.4559ZM24 40.4559L23.584 40.1785L23.5 40.3045V40.4559H24ZM24.2 40.1559L23.83 39.8195L23.8048 39.8473L23.784 39.8785L24.2 40.1559ZM32.1 36.7559L32.0833 37.2556L32.1 37.2561L32.1167 37.2556L32.1 36.7559ZM38.1 47.7559V48.2559H38.6V47.7559H38.1ZM26 47.7559H25.5V48.2559H26V47.7559ZM38.1 41.1559H38.6V40.9488L38.4536 40.8023L38.1 41.1559ZM32.1 38.7559V39.2559H32.1114L32.1227 39.2554L32.1 38.7559ZM26 41.1559L25.6464 40.8023L25.5 40.9488V41.1559H26ZM24.6762 30.3088C24.5964 30.3487 24.5124 30.356 24.2998 30.356V31.356C24.4872 31.356 24.8032 31.3633 25.1234 31.2032L24.6762 30.3088ZM24.3998 30.156V30.756H25.3998V30.156H24.3998ZM24.5147 28.6347C24.3967 29.107 24.3998 29.6753 24.3998 30.156H25.3998C25.3998 29.6366 25.4029 29.205 25.4849 28.8772L24.5147 28.6347ZM24.2998 29.356C24.397 29.356 24.5461 29.3563 24.6996 29.341C24.8476 29.3262 25.0432 29.2933 25.2234 29.2032L24.7762 28.3088C24.7564 28.3187 24.702 28.3358 24.6 28.346C24.5035 28.3556 24.4026 28.356 24.2998 28.356V29.356ZM21.3998 26.456C21.3998 28.0321 22.7236 29.356 24.2998 29.356V28.356C23.2759 28.356 22.3998 27.4798 22.3998 26.456H21.3998ZM24.2998 23.556C22.7236 23.556 21.3998 24.8799 21.3998 26.456H22.3998C22.3998 25.4322 23.2759 24.556 24.2998 24.556V23.556ZM27.0567 25.353C26.5779 24.2756 25.5009 23.556 24.2998 23.556V24.556C25.0987 24.556 25.8217 25.0364 26.1429 25.7591L27.0567 25.353ZM27.7875 23.7656C27.2907 24.163 26.6487 24.6946 26.2094 25.2437L26.9902 25.8684C27.3509 25.4175 27.9089 24.949 28.4121 24.5465L27.7875 23.7656ZM22.2629 23.0812C24.1171 21.9333 26.5131 22.5428 27.6747 24.4192L28.5249 23.8928C27.0865 21.5693 24.0825 20.7787 21.7366 22.2309L22.2629 23.0812ZM20.9249 28.4928C19.7771 26.6387 20.3865 24.2427 22.2629 23.0812L21.7366 22.2309C19.413 23.6693 18.6224 26.6733 20.0746 29.0192L20.9249 28.4928ZM24.2998 30.356C22.8728 30.356 21.6343 29.6455 20.9256 28.4939L20.0739 29.018C20.9653 30.4664 22.5268 31.356 24.2998 31.356V30.356ZM40.7795 23.7895C39.2379 23.1966 37.5471 23.9031 36.9385 25.3638L37.8615 25.7485C38.2529 24.8092 39.3621 24.3158 40.4205 24.7228L40.7795 23.7895ZM42.3667 27.6356C42.9596 26.094 42.2531 24.4033 40.7923 23.7946L40.4077 24.7177C41.3469 25.109 41.8404 26.2183 41.4333 27.2767L42.3667 27.6356ZM39.7 29.4561C40.8126 29.4561 41.8829 28.7256 42.3569 27.6592L41.4431 27.2531C41.1171 27.9866 40.3874 28.4561 39.7 28.4561V29.4561ZM38.7764 29.3033C38.9566 29.3934 39.1522 29.4263 39.3002 29.4411C39.4537 29.4565 39.6028 29.4561 39.7 29.4561V28.4561C39.5972 28.4561 39.4963 28.4557 39.3998 28.4461C39.2978 28.4359 39.2434 28.4188 39.2236 28.4089L38.7764 29.3033ZM39.6 30.2561C39.6 29.8613 39.6014 29.3136 39.4903 28.758L38.5097 28.9542C38.5986 29.3986 38.6 29.851 38.6 30.2561H39.6ZM39.6 30.8561V30.2561H38.6V30.8561H39.6ZM39.5213 30.421C39.433 30.399 39.2723 30.3561 39.1 30.3561V31.3561C39.1277 31.3561 39.167 31.3632 39.2787 31.3912L39.5213 30.421ZM39.7 30.4561C39.6723 30.4561 39.633 30.449 39.5213 30.421L39.2787 31.3912C39.367 31.4132 39.5277 31.4561 39.7 31.4561V30.4561ZM43.7 26.5562C43.7 28.6727 41.9312 30.4561 39.7 30.4561V31.4561C42.4688 31.4561 44.7 29.2395 44.7 26.5562H43.7ZM39.8 22.5562C41.9166 22.5562 43.7 24.325 43.7 26.5562H44.7C44.7 23.7873 42.4834 21.5562 39.8 21.5562V22.5562ZM36.4341 24.5042C37.1441 23.2617 38.3775 22.5562 39.8 22.5562V21.5562C38.0225 21.5562 36.4559 22.4506 35.5659 24.0081L36.4341 24.5042ZM37.816 25.2788C37.3638 24.6005 36.8008 24.1536 36.2572 23.8274L35.7428 24.6849C36.1992 24.9587 36.6362 25.3119 36.984 25.8335L37.816 25.2788ZM31.9 35.556C34.8895 35.556 37.2 33.1186 37.2 30.156H36.2C36.2 32.5934 34.3105 34.556 31.9 34.556V35.556ZM26.5 30.156C26.5 33.1321 28.9239 35.556 31.9 35.556V34.556C29.4761 34.556 27.5 32.5798 27.5 30.156H26.5ZM31.8 24.856C28.8171 24.856 26.5 27.2866 26.5 30.156H27.5C27.5 27.8253 29.3829 25.856 31.8 25.856V24.856ZM37.2 30.156C37.2 27.1664 34.7626 24.856 31.8 24.856V25.856C34.2374 25.856 36.2 27.7455 36.2 30.156H37.2ZM31.8 27.856C33.1239 27.856 34.2 28.9321 34.2 30.256H35.2C35.2 28.3798 33.6761 26.856 31.8 26.856V27.856ZM29.5 30.256C29.5 28.9207 30.5874 27.856 31.8 27.856V26.856C30.0126 26.856 28.5 28.3913 28.5 30.256H29.5ZM31.8 32.556C30.4877 32.556 29.5 31.4915 29.5 30.256H28.5C28.5 32.0204 29.9123 33.556 31.8 33.556V32.556ZM34.2 30.256C34.2 31.5571 33.1471 32.556 31.8 32.556V33.556C33.6529 33.556 35.2 32.1548 35.2 30.256H34.2ZM47.0334 34.0831C45.0357 32.2957 42.4089 31.3512 39.6808 31.4561L39.7192 32.4554C42.1911 32.3603 44.5643 33.2158 46.3666 34.8284L47.0334 34.0831ZM47.3536 34.4022L47.0536 34.1022L46.3464 34.8093L46.6464 35.1093L47.3536 34.4022ZM47.5 42.7558V34.7558H46.5V42.7558H47.5ZM45 43.2558H47V42.2558H45V43.2558ZM44.5 35.5558V42.7558H45.5V35.5558H44.5ZM39.7263 34.4551C41.5066 34.3614 43.2936 34.9245 44.7043 35.959L45.2957 35.1526C43.7064 33.9871 41.6934 33.3502 39.6737 33.4565L39.7263 34.4551ZM39.7 34.4558H39.7V33.4558H39.7V34.4558ZM38.0822 34.549C38.636 34.4567 39.0971 34.4558 39.7 34.4558V33.4558C39.1029 33.4558 38.564 33.4549 37.9178 33.5626L38.0822 34.549ZM38.4149 31.8345C38.2269 32.5868 37.948 33.2324 37.584 33.7784L38.416 34.3331C38.852 33.6791 39.1731 32.9248 39.3851 32.077L38.4149 31.8345ZM39.7 31.4558H38.9V32.4558H39.7V31.4558ZM26.416 33.8785C26.052 33.3325 25.7731 32.6869 25.5851 31.9346L24.6149 32.1771C24.8269 33.0249 25.148 33.7792 25.584 34.4332L26.416 33.8785ZM24.3 34.4559C24.8496 34.4559 25.4107 34.5479 25.9019 34.6462L26.0981 33.6656C25.5893 33.5638 24.9504 33.4559 24.3 33.4559V34.4559ZM19.2833 35.9679C20.8079 34.9197 22.501 34.3619 24.2737 34.4552L24.3263 33.4566C22.299 33.3499 20.3921 33.9921 18.7167 35.1439L19.2833 35.9679ZM19.5 42.7559V35.5559H18.5V42.7559H19.5ZM17 43.2559H19V42.2559H17V43.2559ZM16.5 34.7559V42.7559H17.5V34.7559H16.5ZM16.9464 34.1023L16.6464 34.4023L17.3536 35.1094L17.6536 34.8094L16.9464 34.1023ZM24.3192 31.5562C21.5923 31.4514 18.9712 32.3949 16.9779 34.0734L17.6221 34.8383C19.4288 33.3168 21.8077 32.4604 24.2808 32.5555L24.3192 31.5562ZM25.1 31.5559H24.3V32.5559H25.1V31.5559ZM40.516 40.1785L40.316 39.8785L39.484 40.4332L39.684 40.7332L40.516 40.1785ZM40.2 39.9559H40.1V40.9559H40.2V39.9559ZM40.7 48.0559V40.4559H39.7V48.0559H40.7ZM38.5 50.2559C39.6761 50.2559 40.7 49.232 40.7 48.0559H39.7C39.7 48.6797 39.1239 49.2559 38.5 49.2559V50.2559ZM25.7 50.2559H38.5V49.2559H25.7V50.2559ZM23.5 48.0559C23.5 49.2126 24.4048 50.2559 25.7 50.2559V49.2559C24.9952 49.2559 24.5 48.6992 24.5 48.0559H23.5ZM23.5 40.4559V48.0559H24.5V40.4559H23.5ZM23.784 39.8785L23.584 40.1785L24.416 40.7332L24.616 40.4332L23.784 39.8785ZM32.1167 36.2561C28.9623 36.151 25.9234 37.5168 23.83 39.8195L24.57 40.4922C26.4766 38.3949 29.2377 37.1607 32.0833 37.2556L32.1167 36.2561ZM40.27 39.8195C38.1801 37.5207 35.2426 36.1508 32.0833 36.2561L32.1167 37.2556C34.9574 37.1609 37.6199 38.391 39.53 40.4922L40.27 39.8195ZM38.1 47.2559H26V48.2559H38.1V47.2559ZM37.6 41.1559V47.7559H38.6V41.1559H37.6ZM32.1227 39.2554C34.1733 39.1621 36.2392 40.0022 37.7464 41.5094L38.4536 40.8023C36.7608 39.1096 34.4267 38.1496 32.0773 38.2564L32.1227 39.2554ZM26.3536 41.5094C27.8476 40.0154 29.9142 39.2559 32.1 39.2559V38.2559C29.6858 38.2559 27.3524 39.0963 25.6464 40.8023L26.3536 41.5094ZM26.5 47.7559V41.1559H25.5V47.7559H26.5Z" fill="url(#paint2_linear)"/>
<defs>
<linearGradient id="paint0_linear" x1="17.4018" y1="46.3488" x2="45.158" y2="42.1593" gradientUnits="userSpaceOnUse">
<stop stop-color="#8D01A2"/>
<stop offset="1" stop-color="#FF00D2"/>
</linearGradient>
<linearGradient id="paint1_linear" x1="25.1571" y1="43.2532" x2="38.2168" y2="41.4555" gradientUnits="userSpaceOnUse">
<stop stop-color="#8D01A2"/>
<stop offset="1" stop-color="#FF00D2"/>
</linearGradient>
<linearGradient id="paint2_linear" x1="25.1571" y1="43.2532" x2="38.2168" y2="41.4555" gradientUnits="userSpaceOnUse">
<stop stop-color="#8D01A2"/>
<stop offset="1" stop-color="#FF00D2"/>
</linearGradient>
</defs>
</svg>
