<svg width="128" height="128" viewBox="0 0 128 128" fill="none" xmlns="http://www.w3.org/2000/svg">
<path d="M2 15.001C2 8.00191 8.92006 8.00069 15.4358 8.00078C25.3945 8.02929 35.3532 7.97217 45.3119 8.01974C47.3909 7.93413 49.2303 9.28466 50.6164 10.892C53.6037 14.3899 56.6986 18.1722 59.7759 21.6686C60.5253 22.5201 61.6078 23 62.7421 23C80.6172 23 98.0473 23 115.733 23C123 23 126 28 126 35.001C126 58.1523 126 81.501 125.998 104.5C126 109.001 125.998 106.71 125.998 110.001C125.998 120.002 119 120.001 115.92 120.001C112.84 120.001 44 119.952 8.56567 119.953C5.50003 119.952 2.00001 117.501 2.00001 114.001C2.00001 99.001 2 82.001 2.00002 67.001C2.00001 64.001 2.00001 59.501 2.00001 56.001C2.00001 50.001 6.92005 49.001 9.92007 49.001C33.9201 49.001 29.8401 49.0498 53.9201 49.001C57.1248 48.9945 59.0217 51.5 59.0217 54.5C59.0217 57.5 57.0217 59.9773 53.8522 59.9773C29.349 60.0343 40.8373 59.9297 16.3341 60.0247C12.236 60.0247 11.9201 63.199 11.9201 66.001C11.9201 78.6798 11.9201 92.1788 11.9498 105.012C11.9549 107.217 13.7439 109.001 15.9486 109.001C48.5872 109.001 81.3098 109.001 113.46 109.001C114.92 109.001 115.948 108.001 115.96 106C116.094 83.1369 115.975 60.6462 115.961 38.0003C115.96 35.7911 114.169 34.0001 111.96 34.0002C94.2932 34.001 76.6266 34.0009 58.96 34C56.5559 34.1047 54.6546 31.9203 53.1488 30.0657C50.5665 26.8899 47.8039 23.6463 45.1627 20.4586C44.399 19.537 43.2665 18.9992 42.0696 18.9983C33.3524 18.9919 24.3519 19 15.96 19C14.96 19 13 19 13 20.9531C13 24.9531 13 24.9062 13 29.9531C13 35 2 35.001 2 30.001C2 25.0479 2 20.001 2 15.001Z" fill="url(#paint0_linear)"/>
<defs>
<linearGradient id="paint0_linear" x1="64" y1="120.001" x2="64" y2="8" gradientUnits="userSpaceOnUse">
<stop stop-color="#00B59C"/>
<stop offset="1" stop-color="#9CFFAC"/>
</linearGradient>
</defs>
</svg>
