<svg width="128" height="128" viewBox="0 0 128 128" fill="none" xmlns="http://www.w3.org/2000/svg">
<path d="M0 13.2268C0 6.00197 7.14329 6.00072 13.8692 6.00081C24.1492 6.03024 34.4291 5.97128 44.7091 6.02038C46.8551 5.93201 48.7539 7.3261 50.1847 8.98529C53.2683 12.596 56.4631 16.5003 59.6396 20.1095C60.4132 20.9885 61.5306 21.4839 62.7015 21.4839C81.1532 21.4839 99.1456 21.4839 117.402 21.4839C124.903 21.4839 128 26.6452 128 33.872C128 57.7701 128 81.872 127.998 105.613C128 110.259 127.998 107.894 127.998 111.291C127.998 121.615 120.774 121.614 117.595 121.614C114.415 121.614 43.3548 121.563 6.77747 121.564C3.61293 121.563 1.03366e-05 119.033 1.03366e-05 115.42C1.03366e-05 99.9365 2.80373e-08 82.3881 2.06732e-05 66.9043C1.03506e-05 63.8075 1.03366e-05 59.1623 1.03366e-05 55.5494C1.03366e-05 49.3559 5.07876 48.3236 8.17556 48.3236C32.9498 48.3236 65.8995 48.374 90.7562 48.3236C94.0643 48.3169 96.0224 50.9032 96.0224 54C96.0224 57.0968 93.9579 59.654 90.6861 59.654C65.3925 59.7128 41.1224 59.6049 15.8287 59.7029C11.5985 59.7029 11.2724 62.9796 11.2724 65.872C11.2724 78.9598 11.2724 92.8942 11.303 106.141C11.3083 108.418 13.155 110.259 15.4308 110.259C49.1223 110.259 81.8682 110.259 115.055 110.259C116.563 110.259 117.624 109.227 117.636 107.161C117.774 83.5607 117.652 60.3445 117.637 36.9681C117.636 34.6876 115.787 32.8388 113.507 32.8389C95.2704 32.8397 77.0339 32.8396 58.7974 32.8387C56.3158 32.9468 54.3531 30.6919 52.7988 28.7775C50.1332 25.4993 47.2814 22.151 44.555 18.8605C43.7667 17.9092 42.5977 17.354 41.3622 17.3531C32.3638 17.3465 23.0729 17.3548 14.4103 17.3548C13.3781 17.3548 11.3548 17.3548 11.3548 19.3709C11.3548 23.5 11.3548 24.4838 11.3548 29.6935C11.3548 36.9677 0 36.9677 0 29.743C0 24.6301 0 18.3881 0 13.2268Z" fill="url(#paint0_linear_667_95)"/>
<defs>
<linearGradient id="paint0_linear_667_95" x1="1.14315e-06" y1="121.614" x2="149.076" y2="49.6771" gradientUnits="userSpaceOnUse">
<stop stop-color="#0357D1"/>
<stop offset="1" stop-color="#27CDFC"/>
</linearGradient>
</defs>
</svg>
