<svg width="64" height="64" viewBox="0 0 64 64" fill="none" xmlns="http://www.w3.org/2000/svg">
<g clip-path="url(#clip0)">
<path d="M8.25346 5.28453C10.8423 4.80278 13.5028 5.09924 16.1229 5.02101C18.7878 5.10336 21.6629 4.62985 24.1042 5.89803C26.6081 7.23621 28.182 9.58316 30.3595 11.2796C31.142 11.8354 32.1436 12.0413 33.1138 12.0248C42.3649 12.0125 51.6116 12.0536 60.8627 12.0742C62.1057 11.9466 63.4873 12.523 63.8495 13.6965C64.4844 15.2035 63.0133 16.9823 61.2606 16.8176C51.7189 16.8299 42.1771 16.7887 32.6354 16.7764C30.668 16.764 28.7007 16.167 27.1491 15.047C25.1818 13.5895 23.7152 11.6378 21.7523 10.1843C20.0264 9.39376 18.0009 9.92903 16.1498 9.7808C13.6727 9.92903 11.0793 9.41435 8.68271 10.1596C6.63486 10.9131 5.17721 12.8566 5.20851 14.8988C5.19957 26.296 5.19957 37.6972 5.20851 49.0985C5.17274 51.1408 6.63039 53.1007 8.68718 53.8501C9.90784 54.3236 11.2582 54.2207 12.5504 54.233C26.1163 54.2124 39.6822 54.2412 53.2436 54.2165C55.4435 54.2371 57.545 52.9113 58.3677 51.0378C58.9445 49.7697 58.7567 48.3656 58.7835 47.0274C58.7924 41.0036 58.7522 34.9797 58.8014 28.9559C58.7612 27.5642 60.2724 26.4071 61.7524 26.646C63.1475 26.7818 64.1312 28.0624 63.9747 29.3182C63.9836 35.9103 63.9836 42.4982 63.9791 49.0862C64.1401 54.2207 59.2798 58.8816 53.7131 58.9722C39.2306 59.0093 24.7436 59.0093 10.2655 58.9722C4.87317 58.8734 0.0888881 54.4965 0.02629 49.5185C-0.0228941 37.9814 0.0128758 26.4442 0.00840444 14.9071C-0.103378 10.4396 3.53178 6.25213 8.25346 5.28453Z" fill="url(#paint0_linear)"/>
<path fill-rule="evenodd" clip-rule="evenodd" d="M30.6383 32.8776C29.054 32.7414 27.5084 32.369 26.0521 31.7746C25.8887 32.7224 25.7831 33.6783 25.7341 34.6383H30.6383V32.8776ZM33.3617 32.8783C34.9447 32.7421 36.4909 32.3711 37.95 31.7787C38.112 32.7251 38.2168 33.6803 38.2659 34.6383H33.3617V32.8783ZM30.6383 39.8032C29.0928 39.9353 27.584 40.2928 26.159 40.8613C25.935 39.7066 25.7934 38.5362 25.7341 37.3617H30.6383V39.8032ZM33.3617 39.8026C34.9072 39.9353 36.416 40.2928 37.841 40.8613C38.065 39.7059 38.2066 38.5362 38.2659 37.3617H33.3617V39.8026ZM30.6383 42.5382C29.3311 42.673 28.0579 43.0012 26.8582 43.5077C27.1149 44.2689 27.4308 45.0104 27.7991 45.7294C28.0851 46.2809 28.4187 46.8119 28.8 47.3089C29.12 47.7243 29.4809 48.1055 29.8826 48.4391C30.1168 48.6298 30.3687 48.7918 30.6383 48.9287V42.5382ZM33.3617 42.5382C34.6689 42.6737 35.9421 43.0032 37.1411 43.5105C36.8844 44.2703 36.5692 45.0111 36.2009 45.7294C35.9149 46.2809 35.5813 46.8119 35.2 47.3089C34.88 47.7243 34.5191 48.1055 34.1174 48.4391C33.8832 48.6298 33.6313 48.7918 33.3617 48.9287V42.5382ZM30.6383 30.1426C29.2589 29.9997 27.9169 29.6409 26.6614 29.0853C26.9549 28.1164 27.3355 27.1755 27.7991 26.2706C28.0851 25.7191 28.4187 25.1881 28.8 24.6911C29.12 24.2757 29.4809 23.8945 29.8826 23.5609C30.1168 23.3702 30.3687 23.2082 30.6383 23.0713V30.1426ZM33.3617 30.1426C34.7397 30.0003 36.0824 29.6443 37.3406 29.0921C37.0471 28.1219 36.6659 27.1782 36.2009 26.2706C35.9149 25.7191 35.5813 25.1881 35.2 24.6911C34.88 24.2757 34.5191 23.8945 34.1174 23.5609C33.8832 23.3702 33.6313 23.2082 33.3617 23.0713V30.1426ZM45.2065 34.6383C44.9811 32.4582 44.2186 30.3721 42.9978 28.5644L42.6213 28.8987C41.9527 29.4931 41.2391 30.0262 40.4854 30.4878C40.7598 31.8557 40.9287 33.2446 40.9927 34.6383H45.2065ZM45.2065 37.3617C44.9634 39.712 44.0967 41.9534 42.7064 43.855C41.9765 43.1973 41.1915 42.6124 40.3581 42.1147C40.369 42.0691 40.3786 42.0235 40.3881 41.9779C40.7203 40.4603 40.9212 38.914 40.9927 37.3617H45.2065ZM18.7935 37.3617C19.0366 39.7134 19.904 41.9547 21.295 43.857C22.0242 43.1993 22.8085 42.6138 23.6426 42.1161C23.631 42.0698 23.6214 42.0242 23.6119 41.9779C23.2797 40.4603 23.0788 38.914 23.0073 37.3617H18.7935ZM25.8117 47.7413C24.8477 47.2381 23.9442 46.6124 23.1237 45.8778C23.5425 45.4999 23.9823 45.1513 24.4426 44.834C24.7094 45.5626 25.0226 46.2747 25.3753 46.9685C25.5108 47.232 25.6551 47.4907 25.8117 47.7413ZM39.5574 44.8347C40.0177 45.152 40.4589 45.4999 40.8776 45.8764C40.0565 46.6117 39.153 47.2381 38.1883 47.7413C38.3449 47.4907 38.4892 47.232 38.6247 46.9685C38.9774 46.2754 39.2906 45.5632 39.5574 44.8347ZM25.7988 24.2805C24.6924 24.8572 23.6746 25.5993 22.7751 26.4783C23.2381 26.927 23.7317 27.3389 24.2471 27.7161C24.5542 26.7956 24.9341 25.8996 25.3753 25.0315C25.5067 24.7755 25.647 24.5243 25.7988 24.2805ZM39.7481 27.7045C40.1185 27.4478 40.4711 27.1646 40.8102 26.863L41.2494 26.4735C40.335 25.5884 39.3069 24.8463 38.1951 24.2703C38.3496 24.5174 38.4912 24.7721 38.6247 25.0315C39.0638 25.8948 39.4424 26.7874 39.7481 27.7045ZM19.1796 32.5413C18.9767 33.263 18.2243 33.6837 17.5013 33.4809C16.7782 33.278 16.3554 32.5243 16.5583 31.7991L16.6332 31.5268C16.8402 30.8017 17.5952 30.3789 18.3183 30.5838C19.0414 30.7888 19.4614 31.5404 19.2545 32.2621L19.1796 32.5413ZM18.7234 34.6383C17.2201 34.6383 16 35.2483 16 36C16 40.2417 17.6885 44.3132 20.6843 47.3157C23.6868 50.3115 27.7583 52 32 52C36.2417 52 40.3132 50.3115 43.3157 47.3157C46.3115 44.3132 48 40.2417 48 36C48 31.7583 46.3115 27.6868 43.3157 24.6843C40.3132 21.6885 36.2417 20 32 20C26.4919 20.0068 21.3583 22.846 18.4374 27.5166C18.0391 28.1518 18.2332 28.9906 18.8698 29.3889C19.5064 29.7872 20.3472 29.5952 20.7455 28.96C20.83 28.8252 20.9171 28.6917 21.007 28.561C21.7797 29.2916 22.6186 29.9377 23.5139 30.4851C23.2402 31.8557 23.0713 33.2426 23.0073 34.6383H18.7234Z" fill="url(#paint1_linear)"/>
</g>
<defs>
<linearGradient id="paint0_linear" x1="32" y1="59" x2="32" y2="5" gradientUnits="userSpaceOnUse">
<stop stop-color="#5570FF"/>
<stop offset="1" stop-color="#4DD3FF"/>
</linearGradient>
<linearGradient id="paint1_linear" x1="32" y1="52" x2="32" y2="20" gradientUnits="userSpaceOnUse">
<stop stop-color="#5570FF"/>
<stop offset="1" stop-color="#4DD3FF"/>
</linearGradient>
<clipPath id="clip0">
<rect width="64" height="64" fill="white"/>
</clipPath>
</defs>
</svg>
