<svg width="64" height="64" viewBox="0 0 64 64" fill="none" xmlns="http://www.w3.org/2000/svg">
<g clip-path="url(#clip0_647_49)">
<path d="M8.25837 5.28518C10.8473 4.80758 13.5077 5.09167 16.1324 5.01756C18.8823 5.09167 21.9004 4.62643 24.3641 6.03862C26.7116 7.40552 28.2542 9.62468 30.3467 11.2633C31.1158 11.8356 32.1219 12.0332 33.0877 12.0209C42.4998 12.0209 51.912 12.0456 61.3241 12.095C63.0814 11.9468 64.5122 13.7707 63.8236 15.2652C63.4346 16.4057 62.0753 16.945 60.8502 16.8256C51.4559 16.8092 42.0572 16.7968 32.6584 16.7762C30.0248 16.7968 27.494 15.6605 25.7502 13.8654C24.1674 12.5726 23.0227 10.7034 21.0419 9.8923C17.6392 9.63703 14.1963 9.83878 10.7802 9.78937C7.80229 9.71938 5.12396 12.1856 5.21339 14.9276C5.20892 26.3157 5.20892 37.7038 5.21786 49.0878C5.13291 51.8093 7.77546 54.2508 10.7221 54.2096C24.7531 54.2343 38.7886 54.2096 52.8197 54.2261C54.957 54.3372 57.1032 53.2832 58.1137 51.5334C58.9722 50.1624 58.771 48.5279 58.7889 47.0128C58.7978 40.9976 58.7576 34.9783 58.8112 28.959C58.771 27.5797 60.2555 26.4187 61.7265 26.6451C63.144 26.7686 64.1321 28.0614 63.9801 29.3336C63.9846 36.0611 64.0159 42.7886 63.9622 49.516C63.8996 54.5019 59.1019 58.8867 53.7005 58.9732C39.3788 59.0267 25.0527 58.9814 10.731 58.9938C5.16421 59.1008 0.0713589 54.646 0.0221743 49.4996C-0.0180677 37.9673 0.00875996 26.431 0.00875996 14.8988C-0.0940807 10.4316 3.54111 6.2486 8.25837 5.28518Z" fill="url(#paint0_linear_647_49)"/>
<path d="M32.7032 22.289C32.3136 21.9037 31.6864 21.9037 31.2968 22.289L30.3549 23.2205C30.3523 23.2231 30.3523 23.2271 30.3548 23.2297C30.3573 23.2322 30.3573 23.2362 30.3548 23.2387L18.0032 35.5858C18.0012 35.5879 18 35.5907 18 35.5936V36.9269C18 37.4792 18.4477 37.9269 19 37.9269H19.3516C19.9038 37.9269 20.3516 38.3746 20.3516 38.9269V47.2512C20.3516 47.2562 20.3475 47.2602 20.3424 47.2602C20.3374 47.2602 20.3333 47.2644 20.3333 47.2694V48.5936C20.3333 49.1458 20.781 49.5936 21.3333 49.5936H42.6666C43.219 49.5936 43.6666 49.1458 43.6666 48.5936V47.2602V38.9269C43.6666 38.3746 44.1144 37.9269 44.6666 37.9269H45C45.5522 37.9269 46 37.4792 46 36.9269V35.5936C46 35.5907 45.9988 35.5879 45.9968 35.5858L44.041 33.6301C43.6506 33.2396 43.0174 33.2396 42.6268 33.6301L42.001 34.2561C41.8336 34.4234 41.8336 34.6947 42.001 34.8621L42.0328 34.894C42.291 35.1522 42.1082 35.5936 41.7432 35.5936C41.5168 35.5936 41.3334 35.777 41.3334 36.0034V46.2602C41.3334 46.8126 40.8856 47.2602 40.3334 47.2602H35.3333C34.781 47.2602 34.3333 46.8126 34.3333 46.2602V41.2602C34.3333 40.708 33.8856 40.2602 33.3333 40.2602H30.6667C30.1144 40.2602 29.6667 40.708 29.6667 41.2602V46.2602C29.6667 46.8126 29.219 47.2602 28.6667 47.2602H23.6667C23.1144 47.2602 22.6667 46.8126 22.6667 46.2602V37.9269V36.0033C22.6667 35.777 22.4832 35.5936 22.257 35.5936C21.8919 35.5936 21.7092 35.1522 21.9673 34.8941L31.9932 24.8726H31.9977H32.0023L32.0068 24.8725L34.6607 27.5228C35.0513 27.9129 35.6841 27.9127 36.0744 27.5224L36.2964 27.3005C36.687 26.9098 36.6868 26.2763 36.2958 25.8858L33.6452 23.2387C33.6427 23.2362 33.6427 23.2322 33.6452 23.2297C33.6477 23.2271 33.6477 23.2231 33.6451 23.2205L32.7032 22.289ZM40 23.9269C39.4478 23.9269 39 24.3746 39 24.9269V29.9269C39 30.4792 39.4478 30.9269 40 30.9269H40.3516C40.9038 30.9269 41.3516 30.4792 41.3516 29.9269V24.9269C41.3516 24.3746 40.9038 23.9269 40.3516 23.9269H40Z" fill="url(#paint1_linear_647_49)" stroke="url(#paint2_linear_647_49)" stroke-width="2"/>
</g>
<defs>
<linearGradient id="paint0_linear_647_49" x1="32" y1="59" x2="32" y2="5" gradientUnits="userSpaceOnUse">
<stop stop-color="#02AA93"/>
<stop offset="1" stop-color="#67FF80"/>
</linearGradient>
<linearGradient id="paint1_linear_647_49" x1="32" y1="49.5936" x2="32" y2="22" gradientUnits="userSpaceOnUse">
<stop stop-color="#02AA93"/>
<stop offset="1" stop-color="#67FF80"/>
</linearGradient>
<linearGradient id="paint2_linear_647_49" x1="32" y1="49.5936" x2="32" y2="22" gradientUnits="userSpaceOnUse">
<stop stop-color="#02AA93"/>
<stop offset="1" stop-color="#67FF80"/>
</linearGradient>
<clipPath id="clip0_647_49">
<rect width="64" height="64" fill="white"/>
</clipPath>
</defs>
</svg>
