<svg width="32" height="32" viewBox="0 0 32 32" fill="none" xmlns="http://www.w3.org/2000/svg">
<path d="M12.7072 3.27078C13.093 2.3572 14.0967 1.83291 15.0108 2.0481C19.4279 2.85605 23.8432 3.66791 28.2585 4.48564C29.3738 4.64801 30.1947 5.89808 29.9588 7.07771C29.1946 11.855 28.4322 16.6342 27.6479 21.4075C27.4248 22.73 26.0299 23.4342 24.8781 23.0606C24.8762 22.3289 24.8762 21.5973 24.8798 20.8656C25.2748 20.7248 25.7391 20.5115 25.7593 19.9892C26.4284 15.969 27.0519 11.9391 27.7155 7.91697C27.7868 7.48852 27.8435 6.93491 27.434 6.67473C27.0592 6.48494 26.635 6.45366 26.2328 6.36954C22.7316 5.7357 19.2323 5.08426 15.7311 4.43869C15.3436 4.36239 14.8463 4.3037 14.6013 4.71452C14.3581 5.24467 14.3472 5.85504 14.2283 6.42238C13.6341 6.52016 13.04 6.61996 12.4513 6.74709C12.3232 6.75103 12.0655 6.76276 11.9375 6.76665C12.4384 5.68484 12.2812 4.38782 12.7072 3.27078Z" fill="url(#paint0_linear_650_110)"/>
<path fill-rule="evenodd" clip-rule="evenodd" d="M15.4899 6.20965C15.0702 6.28648 14.6506 6.36329 14.2289 6.42237C13.6347 6.52015 13.0405 6.61994 12.4518 6.74708C10.0068 7.1312 7.56181 7.55002 5.11902 7.96845L5.11851 7.96853L5.11803 7.96862C4.66228 8.04667 4.20661 8.12472 3.75103 8.20255C2.62664 8.35905 1.80209 9.61892 2.04159 10.8044C2.47764 13.7747 2.91881 16.7442 3.36001 19.7138C3.61622 21.4383 3.87243 23.1629 4.12766 24.8877C4.21541 25.7446 4.79132 26.5114 5.56468 26.7618C5.99212 26.922 6.44041 26.8508 6.87874 26.7812C6.95967 26.7683 7.04048 26.7555 7.12054 26.7442C7.12518 26.8993 7.12339 27.0571 7.12164 27.2157C7.11569 27.7454 7.10961 28.2844 7.34179 28.7631C7.66904 29.4791 8.3784 29.9799 9.12801 29.9878C10.4791 30.0054 11.8302 30.0015 13.1813 29.9897C13.6475 30.0171 14.1119 29.6845 14.2252 29.1935C14.4281 28.5694 13.9748 27.8202 13.3568 27.7752C12.779 27.739 12.1998 27.7468 11.6206 27.7546C11.0416 27.7625 10.4625 27.7703 9.88489 27.7341C9.41138 27.6813 9.15907 27.1394 9.21757 26.6738C9.22072 24.8813 9.2198 23.0884 9.21893 21.2955C9.2177 18.9049 9.21652 16.5143 9.22487 14.1242C9.19197 13.645 9.60152 13.2107 10.0494 13.2478C14.0223 13.238 17.997 13.2361 21.9698 13.2478C22.4086 13.2205 22.8053 13.6508 22.7761 14.1184C22.7844 16.5106 22.7833 18.9029 22.782 21.2951C22.7812 23.0893 22.7802 24.8836 22.7834 26.6777C22.8437 27.1492 22.5786 27.6969 22.0978 27.7361C21.5716 27.7694 21.0436 27.762 20.5156 27.7546C19.9577 27.7467 19.3995 27.7389 18.8434 27.7791C18.2858 27.8202 17.8635 28.4345 17.9494 29.0174C17.9933 29.5711 18.4796 30.0171 18.9988 29.9878C20.2914 30.0034 21.584 30.0054 22.8766 29.9858C23.9297 29.9858 24.8658 28.9822 24.8676 27.8574C24.881 26.9583 24.8788 26.0591 24.8765 25.1597C24.8747 24.4602 24.873 23.7605 24.8786 23.0605C24.8768 22.3289 24.8768 21.5973 24.8804 20.8656C24.8736 19.5236 24.8746 18.1817 24.8756 16.8397C24.8765 15.6757 24.8774 14.5116 24.8731 13.3476C24.9115 12.5299 24.5184 11.7141 23.8511 11.3052C23.3581 10.9832 22.7785 10.9917 22.2129 11.0001C22.057 11.0024 21.9021 11.0047 21.7504 11.0001C21.0658 11.0228 20.3817 10.9994 19.6976 10.9759C19.1467 10.957 18.5958 10.9381 18.0445 10.9433L17.9458 10.9042C18.3999 10.8162 18.8627 10.85 19.3247 10.8837C19.5304 10.8987 19.7359 10.9137 19.9404 10.9179C19.8818 10.5319 19.8271 10.1452 19.7725 9.75857C19.6757 9.07331 19.5788 8.38788 19.4596 7.70761C19.2987 6.66885 18.3535 5.8472 17.3662 5.92545C16.7359 5.98155 16.1128 6.09561 15.4899 6.20965ZM4.24467 11.4167C4.08378 10.8885 4.41653 10.288 4.94672 10.2586C7.089 9.8868 9.23306 9.52507 11.3769 9.16343C13.0001 8.8896 14.6234 8.61573 16.2455 8.33757C16.6788 8.2358 17.262 8.22018 17.4668 8.73858C17.6642 9.48784 17.7593 10.2684 17.7776 11.047C16.0362 10.9853 14.2927 10.9939 12.5493 11.0026C11.4739 11.0079 10.3985 11.0132 9.32362 11.002C8.19924 10.9062 7.12422 11.9371 7.13336 13.1519C7.12059 15.0488 7.12286 16.9461 7.12514 18.8437C7.12741 20.7427 7.12969 22.6422 7.11687 24.5415C6.65251 24.5415 6.1022 24.3224 6.07295 23.7453C5.45316 19.6371 4.84617 15.5269 4.24467 11.4167ZM12.2285 15.9928C11.9431 15.9955 11.6491 15.9982 11.4098 16.1784C10.854 16.5403 10.7791 17.4656 11.2653 17.9273C11.5262 18.2231 11.9113 18.2248 12.2687 18.2263C12.3296 18.2266 12.3897 18.2268 12.4482 18.2285C13.6277 18.2204 14.8072 18.2223 15.9867 18.2241C17.3632 18.2263 18.7396 18.2285 20.116 18.2148C20.8053 18.2344 21.3099 17.3736 21.0357 16.7085C20.8748 16.2233 20.3885 15.9553 19.9241 15.9945C18.7791 15.9909 17.6345 15.9918 16.4902 15.9927C15.1365 15.9938 13.7833 15.995 12.43 15.9886C12.3639 15.9916 12.2964 15.9922 12.2285 15.9928ZM11.4005 19.7017C11.6417 19.5154 11.938 19.5145 12.2247 19.5135C12.2964 19.5133 12.3676 19.5131 12.4371 19.5099C13.5792 19.5178 14.7213 19.5159 15.8632 19.514C17.2786 19.5117 18.6939 19.5093 20.1086 19.5256C20.849 19.5041 21.3573 20.4764 20.988 21.1493C20.796 21.568 20.3572 21.7773 19.9349 21.744C18.8638 21.7465 17.7927 21.7458 16.7215 21.7451C15.2931 21.7441 13.8645 21.7432 12.4353 21.7499C12.3846 21.7486 12.3329 21.7483 12.2805 21.748C11.917 21.7457 11.5231 21.7432 11.2579 21.4389C10.7807 20.9791 10.8538 20.0655 11.4005 19.7017ZM13.8805 23.0219C13.1796 23.0152 12.4788 23.0084 11.7808 23.0566C11.1848 23.1525 10.7808 23.89 10.9892 24.4945C11.1227 24.9757 11.5816 25.2946 12.0459 25.2613C12.3156 25.2623 12.5853 25.2641 12.855 25.2659C13.7554 25.2721 14.6558 25.2782 15.5562 25.2496C16.2894 25.2418 16.7611 24.25 16.3698 23.5946C16.1486 23.1329 15.6367 22.9901 15.1869 23.0214C14.7518 23.0304 14.3161 23.0262 13.8805 23.0219Z" fill="url(#paint1_linear_650_110)"/>
<defs>
<linearGradient id="paint0_linear_650_110" x1="11.9375" y1="23.1602" x2="34.7187" y2="14.6848" gradientUnits="userSpaceOnUse">
<stop stop-color="#0357D1"/>
<stop offset="1" stop-color="#27CDFC"/>
</linearGradient>
<linearGradient id="paint1_linear_650_110" x1="23.8438" y1="6.33415" x2="1.80588" y2="28.3483" gradientUnits="userSpaceOnUse">
<stop stop-color="#D800BD"/>
<stop offset="0.408098" stop-color="#F92D7A"/>
<stop offset="0.590073" stop-color="#FF4A52"/>
<stop offset="1" stop-color="#FFB243"/>
</linearGradient>
</defs>
</svg>
