<svg width="16" height="16" viewBox="0 0 16 16" fill="none" xmlns="http://www.w3.org/2000/svg">
<path fill-rule="evenodd" clip-rule="evenodd" d="M9.79159 4.95394C9.79159 4.26194 10.3535 3.69994 11.0459 3.69994C11.7379 3.69994 12.2999 4.26194 12.2999 4.95394C12.2999 5.64627 11.7379 6.20827 11.0459 6.20827C10.3535 6.20827 9.79159 5.64627 9.79159 4.95394ZM2.26659 9.3976L5.50892 6.69294C6.11625 6.18594 7.06359 6.22927 7.62259 6.78894L9.04492 8.21327C9.32459 8.49294 9.83025 8.56094 10.1735 8.36461L13.4222 6.50794C13.5939 6.40994 13.7332 6.16961 13.7332 5.97194V3.87927C13.7332 3.28594 13.2515 2.80394 12.6582 2.80394H3.34159C2.74825 2.80394 2.26659 3.28594 2.26659 3.87927V9.3976ZM13.7332 9.61261C13.7332 9.21694 14.0542 8.89594 14.4499 8.89594C14.8455 8.89594 15.1665 9.21694 15.1665 9.61261V12.8376C15.1665 13.8262 14.3639 14.6292 13.3749 14.6292H2.62492C1.63592 14.6292 0.833252 13.8262 0.833252 12.8376V3.16227C0.833252 2.17361 1.63592 1.37061 2.62492 1.37061H13.3749C14.3639 1.37061 15.1665 2.17361 15.1665 3.16227V6.44461C15.1665 6.84027 14.8879 7.32061 14.5442 7.51694L10.5595 9.7936C9.87259 10.1859 8.86059 10.0509 8.30092 9.49193L7.03059 8.22327C6.75092 7.94394 6.27692 7.92227 5.97292 8.17561L2.72525 10.8809L2.26659 11.2606V12.1209C2.26659 12.7139 2.74825 13.1959 3.34159 13.1959H12.6582C13.2515 13.1959 13.7332 12.7139 13.7332 12.1209V9.61261Z" fill="url(#paint0_linear)"/>
<defs>
<linearGradient id="paint0_linear" x1="7.9999" y1="14.6292" x2="7.9999" y2="1.37061" gradientUnits="userSpaceOnUse">
<stop stop-color="#FD5900"/>
<stop offset="1" stop-color="#FFDE00"/>
</linearGradient>
</defs>
</svg>
