<svg width="128" height="128" viewBox="0 0 128 128" fill="none" xmlns="http://www.w3.org/2000/svg">
<path fill-rule="evenodd" clip-rule="evenodd" d="M56.5306 13.7712C58.9457 6.07627 69.0543 6.07627 71.4694 13.7712L81.0772 44.3828H112.101C119.813 44.3828 122.939 55.0749 116.616 59.8303L110.267 64.6054C107.393 66.7675 103.288 66.041 101.33 63.0236L99.129 59.6311C98.5935 58.806 98.788 57.7071 99.5741 57.1159V57.1159H78.2481C74.8664 57.1159 71.8613 54.794 70.7787 51.3447L64 29.7468L57.2213 51.3447C56.1387 54.794 53.1336 57.1159 49.7519 57.1159H28.4259L45.4095 69.89C48.2818 72.0504 49.4853 75.9925 48.3637 79.5664L41.7625 100.599L59.4847 87.2689C62.1968 85.2291 65.8032 85.2291 68.5153 87.2689L86.2375 100.599L80.8683 83.4917C79.9145 80.4525 81.5209 77.2009 84.5143 76.1118V76.1118C87.7035 74.9515 91.2162 76.6869 92.2324 79.9249L101.281 108.755C103.718 116.518 95.5352 123.124 89.2964 118.432L64 99.4052L38.7036 118.432C32.4648 123.124 24.2825 116.518 26.7188 108.755L36.2131 78.5054L11.3839 59.8303C5.06147 55.0749 8.1868 44.3828 15.8992 44.3828H46.9228L56.5306 13.7712Z" fill="url(#paint0_linear)"/>
<defs>
<linearGradient id="paint0_linear" x1="64" y1="120" x2="64" y2="8" gradientUnits="userSpaceOnUse">
<stop stop-color="#FDA700"/>
<stop offset="1" stop-color="#FFDE00"/>
</linearGradient>
</defs>
</svg>
