<svg width="16" height="16" viewBox="0 0 16 16" fill="none" xmlns="http://www.w3.org/2000/svg">
<path d="M14.6 15C14.8209 15 15 14.8209 15 14.6V13.4C15 13.1791 14.8209 13 14.6 13H1.4C1.17909 13 1 13.1791 1 13.4V14.6C1 14.8209 1.17909 15 1.4 15H14.6ZM8.6 11C8.82091 11 9 10.8209 9 10.6V9.4C9 9.17909 8.82091 9 8.6 9H1.4C1.17909 9 1 9.17909 1 9.4V10.6C1 10.8209 1.17909 11 1.4 11H8.6ZM8.6 7C8.82091 7 9 6.82091 9 6.6V5.4C9 5.17909 8.82091 5 8.6 5H1.4C1.17909 5 1 5.17909 1 5.4V6.6C1 6.82091 1.17909 7 1.4 7H8.6ZM14.6 3C14.8209 3 15 2.82091 15 2.6V1.4C15 1.17909 14.8209 1 14.6 1H1.4C1.17909 1 1 1.17909 1 1.4V2.6C1 2.82091 1.17909 3 1.4 3H14.6Z" fill="url(#paint0_linear_622_20)"/>
<defs>
<linearGradient id="paint0_linear_622_20" x1="2" y1="7.5" x2="13.3613" y2="6.2445" gradientUnits="userSpaceOnUse">
<stop stop-color="#8D01A2"/>
<stop offset="1" stop-color="#FF00D2"/>
</linearGradient>
</defs>
</svg>
