<svg width="16" height="16" viewBox="0 0 16 16" fill="none" xmlns="http://www.w3.org/2000/svg">
<path d="M2.16667 1V2.16667V5.66667H1V6.83333V12.6667H2.16667H4.5V13.8333V15H11.5V13.8333V12.6667H15V11.5V6.83333V5.66667H13.8333V2.16667V1H2.16667ZM3.33333 2.16667H12.6667V5.66667H11.5V4.5H4.5V5.66667H3.33333V2.16667ZM4.5 2.16667V3.33333H11.5V2.16667H4.5ZM2.16667 6.83333H13.8333V11.5H12.6667V10.3333H3.33333V11.5H2.16667V6.83333ZM10.3333 8V9.16667H12.6667V8H10.3333ZM5.66667 12.6667H10.3333V13.8333H5.66667V12.6667Z" fill="url(#paint0_linear)"/>
<defs>
<linearGradient id="paint0_linear" x1="8" y1="15" x2="8" y2="1" gradientUnits="userSpaceOnUse">
<stop stop-color="#5570FF"/>
<stop offset="1" stop-color="#4DD3FF"/>
</linearGradient>
</defs>
</svg>
