<svg width="64" height="64" viewBox="0 0 64 64" fill="none" xmlns="http://www.w3.org/2000/svg">
<g clip-path="url(#clip0)">
<path d="M8.24717 5.28688C10.8404 4.80099 13.5052 5.09747 16.1297 5.01923C18.8839 5.09747 21.902 4.61569 24.37 6.03631C26.7218 7.40752 28.2688 9.63522 30.3702 11.2823C31.1437 11.8341 32.1453 12.04 33.1155 12.0235C42.5183 12.0235 51.921 12.0359 61.3238 12.0894C62.9423 11.9617 64.3418 13.5059 63.926 14.9471C63.6979 16.063 62.522 16.8907 61.2969 16.8166C51.7466 16.8289 42.1963 16.7836 32.646 16.7754C30.4597 16.763 28.2778 16.0177 26.6547 14.663C24.6696 13.1765 23.3506 10.8953 21.0033 9.87817C17.7483 9.63934 14.462 9.84523 11.1981 9.77522C8.9536 9.63934 6.7091 10.8252 5.75228 12.7029C5.09503 13.893 5.21128 15.2601 5.20234 16.5489C5.22469 27.3992 5.19339 38.2494 5.21575 49.1038C5.17998 51.138 6.62415 53.0815 8.66745 53.8392C9.88359 54.3169 11.2339 54.2263 12.526 54.2345C26.1093 54.2139 39.6925 54.2428 53.2713 54.218C55.3727 54.2263 57.3847 53.0157 58.2611 51.2656C58.963 49.9521 58.7618 48.4532 58.7886 47.0408C58.7976 41.0124 58.7574 34.9841 58.8065 28.9557C58.7708 27.6009 60.206 26.4603 61.6546 26.6374C63.0765 26.7239 64.1406 28.0086 63.9796 29.2975C63.9796 36.0341 64.0109 42.7707 63.9662 49.5115C63.9036 54.498 59.1016 58.8917 53.696 58.974C39.384 59.0234 25.0675 58.9864 10.7555 58.9905C6.61521 59.0317 2.60462 56.6516 0.945834 53.1557C0.163389 51.6362 -0.0243975 49.9356 0.00242916 48.272C0.0381981 37.01 -0.0243977 25.7397 0.0337268 14.4777C0.114207 10.1664 3.70004 6.22985 8.24717 5.28688Z" fill="url(#paint0_linear)"/>
<path d="M32 23C29.4987 23 27.4687 25.0067 27.3683 27.4847C25.2769 28.3783 23.4946 29.8677 22.2436 31.7672C20.9927 33.6667 20.3283 35.8923 20.3333 38.1667C20.3333 38.365 20.324 38.5867 20.3333 38.8235C18.9508 39.6355 18 41.1242 18 42.8333C18 45.3965 20.1035 47.5 22.6667 47.5C23.3375 47.5 23.985 47.3577 24.5625 47.0987C26.5843 48.7973 29.221 49.8333 32 49.8333C34.779 49.8333 37.4157 48.7973 39.4375 47.0987C40.0342 47.3643 40.6802 47.501 41.3333 47.5C43.8965 47.5 46 45.3965 46 42.8333C46 41.1067 45.0375 39.5935 43.6317 38.785C43.6492 38.5983 43.6667 38.4117 43.6667 38.1667C43.672 35.8922 43.0077 33.6665 41.7567 31.7669C40.5057 29.8674 38.7233 28.3781 36.6317 27.4847C36.5302 25.0067 34.5002 23 32 23ZM32 25.3333C33.302 25.3333 34.3333 26.3647 34.3333 27.6667C34.3333 28.9687 33.302 30 32 30C30.698 30 29.6667 28.9687 29.6667 27.6667C29.6667 26.3647 30.698 25.3333 32 25.3333ZM27.8817 29.818C28.6633 31.3043 30.215 32.3333 32 32.3333C33.785 32.3333 35.3367 31.3043 36.1183 29.818C37.6846 30.5785 39.0046 31.7653 39.9271 33.242C40.8495 34.7187 41.3369 36.4255 41.3333 38.1667C38.7702 38.1667 36.6667 40.2702 36.6667 42.8333C36.6667 43.8775 37.0283 44.8237 37.6152 45.6042C35.9959 46.8234 34.0269 47.4882 32 47.5C29.9731 47.4884 28.0039 46.8236 26.3848 45.6042C26.9954 44.8091 27.3286 43.8358 27.3333 42.8333C27.3333 40.2702 25.2298 38.1667 22.6667 38.1667C22.6667 34.5267 24.755 31.3347 27.8817 29.818V29.818ZM22.6667 40.5C23.9687 40.5 25 41.5313 25 42.8333C25 44.1353 23.9687 45.1667 22.6667 45.1667C21.3647 45.1667 20.3333 44.1353 20.3333 42.8333C20.3333 41.5313 21.3647 40.5 22.6667 40.5ZM41.3333 40.5C42.6353 40.5 43.6667 41.5313 43.6667 42.8333C43.6667 44.1353 42.6353 45.1667 41.3333 45.1667C40.0313 45.1667 39 44.1353 39 42.8333C39 41.5313 40.0313 40.5 41.3333 40.5Z" fill="url(#paint1_linear)" stroke="url(#paint2_linear)" stroke-width="2"/>
</g>
<defs>
<linearGradient id="paint0_linear" x1="32" y1="59" x2="32" y2="5" gradientUnits="userSpaceOnUse">
<stop stop-color="#5570FF"/>
<stop offset="1" stop-color="#4DD3FF"/>
</linearGradient>
<linearGradient id="paint1_linear" x1="32" y1="49.8333" x2="32" y2="23" gradientUnits="userSpaceOnUse">
<stop stop-color="#5570FF"/>
<stop offset="1" stop-color="#4DD3FF"/>
</linearGradient>
<linearGradient id="paint2_linear" x1="32" y1="49.8333" x2="32" y2="23" gradientUnits="userSpaceOnUse">
<stop stop-color="#5570FF"/>
<stop offset="1" stop-color="#4DD3FF"/>
</linearGradient>
<clipPath id="clip0">
<rect width="64" height="64" fill="white"/>
</clipPath>
</defs>
</svg>
