<svg width="64" height="64" viewBox="0 0 64 64" fill="none" xmlns="http://www.w3.org/2000/svg">
<g clip-path="url(#clip0_647_59)">
<path d="M8.2598 5.28516C10.8394 4.80731 13.486 5.09567 16.0969 5.02152C18.7658 5.10391 21.6405 4.63018 24.0859 5.89071C26.6029 7.21715 28.1676 9.58167 30.3582 11.2706C31.1227 11.8473 32.1286 12.0286 33.0943 12.0245C42.3351 12.0203 51.5759 12.0492 60.8168 12.0739C62.073 11.9503 63.4813 12.5023 63.8479 13.6928C64.4827 15.2046 63.0342 16.9595 61.2951 16.8276C51.8933 16.8441 42.4916 16.7823 33.0898 16.7906C31.3954 16.807 29.6787 16.4899 28.2034 15.6989C25.5076 14.2819 23.9741 11.5837 21.4169 10.0224C19.1101 9.49516 16.6691 9.91122 14.3041 9.78352C12.0509 9.85767 9.50264 9.39217 7.56238 10.7351C6.08707 11.6867 5.184 13.3097 5.21082 14.9739C5.21082 26.3599 5.19741 37.75 5.21082 49.1359C5.14376 51.867 7.8038 54.3057 10.7634 54.2439C24.9174 54.2563 39.076 54.2563 53.2345 54.2439C56.1941 54.2975 58.8586 51.8547 58.7737 49.1153C58.7915 42.6561 58.7781 36.1969 58.7692 29.7336C58.7692 28.8974 58.8094 27.9376 59.5381 27.3362C60.5306 26.3681 62.3994 26.4093 63.3293 27.4309C64.0893 28.1477 63.9552 29.2187 63.9909 30.1373C63.9462 36.6006 64.0177 43.0681 63.9552 49.5314C63.9015 54.5158 59.1 58.9112 53.704 58.9936C39.8315 59.0595 25.9546 58.9894 12.0822 59.0265C10.3655 59.0348 8.60851 58.9771 6.99461 58.388C3.48068 57.2057 0.749113 54.2151 0.172399 50.8001C-0.069016 49.2801 0.015926 47.7435 0.0114554 46.2153C0.0114554 36.6089 0.0114561 27.0025 0.00698546 17.3961C0.0114561 15.4065 -0.131605 13.3303 0.686524 11.4395C1.8936 8.39529 4.83976 6.01841 8.2598 5.28516Z" fill="url(#paint0_linear_647_59)"/>
<path d="M16.9716 25.7522C22.9863 25.5303 29.0167 25.5737 35.0419 25.4725C37.3556 25.3471 39.6798 26.4998 40.779 28.3906C41.6271 29.717 41.5276 31.3087 41.5486 32.7896C43.3964 31.4824 45.1605 30.0499 47.155 28.9404C48.1757 28.3037 49.1232 29.3938 48.9661 30.3055C48.9871 34.304 49.0447 38.3075 48.9348 42.3013C48.9924 43.1695 48.0239 43.9171 47.1497 43.3721C45.1553 42.2482 43.386 40.8156 41.5329 39.5084C41.8731 42.1179 40.8994 45.1084 38.1145 46.2613C35.6805 47.2934 32.9061 46.6905 30.3253 46.8449C27.195 46.8207 24.0595 46.8883 20.929 46.8255C17.8039 46.8159 15.0086 44.2451 15.0453 41.3559C15.019 39.4265 14.9249 37.4923 15.1238 35.5726C15.553 33.6095 18.8666 33.4021 19.6203 35.2591C20.1386 37.391 19.5471 39.6098 19.9659 41.7562C20.437 42.6099 21.6357 42.4074 22.4838 42.4604C26.6819 42.4122 30.8855 42.4845 35.0836 42.4315C36.0626 42.5473 36.8479 41.8045 36.7117 40.9073C36.7589 37.8445 36.7169 34.7816 36.7326 31.7188C36.7954 30.9855 36.5337 29.8762 35.5182 29.9245C29.247 29.7942 22.9601 30.209 16.6994 29.9871C14.3753 29.4662 14.5898 25.9789 16.9716 25.7522Z" fill="url(#paint1_linear_647_59)"/>
</g>
<defs>
<linearGradient id="paint0_linear_647_59" x1="-0.00937435" y1="31.2131" x2="63.986" y2="31.2131" gradientUnits="userSpaceOnUse">
<stop stop-color="#FD3A84"/>
<stop offset="1" stop-color="#FFA68D"/>
</linearGradient>
<linearGradient id="paint1_linear_647_59" x1="14.995" y1="35.8553" x2="48.9926" y2="35.8553" gradientUnits="userSpaceOnUse">
<stop stop-color="#FD3A84"/>
<stop offset="1" stop-color="#FFA68D"/>
</linearGradient>
<clipPath id="clip0_647_59">
<rect width="64" height="64" fill="white"/>
</clipPath>
</defs>
</svg>
