<svg width="64" height="64" viewBox="0 0 64 64" fill="none" xmlns="http://www.w3.org/2000/svg">
<path d="M8.25656 5.28057C10.8362 4.80292 13.4828 5.09939 16.0938 5.02115C18.7628 5.10762 21.633 4.62586 24.074 5.88586C26.6 7.21586 28.1737 9.58351 30.3688 11.28C31.1333 11.8359 32.1303 12.0335 33.087 12.0253C42.489 12.0376 51.8909 12.0047 61.2929 12.0788C63.0901 11.9265 64.5386 13.7959 63.8054 15.3153C63.3852 16.4312 62.0529 16.9459 60.8458 16.8388C52.338 16.8182 43.8347 16.8059 35.3313 16.7853C33.0334 16.8059 30.5923 16.9129 28.5179 15.8506C25.5046 14.4918 24.0025 11.3747 21.1189 9.91704C17.6987 9.59998 14.225 9.8594 10.7825 9.78528C7.78713 9.71528 5.10916 12.19 5.19858 14.9488C5.18964 25.6465 5.20305 36.34 5.18964 47.0377C5.20752 48.5324 5.00187 50.1424 5.84236 51.4971C6.83487 53.2759 9.00764 54.3506 11.1581 54.2395C25.1962 54.223 39.2343 54.2436 53.2724 54.2189C56.232 54.2559 58.8742 51.7936 58.7669 49.0595C58.7982 42.3559 58.7267 35.6524 58.7937 28.953C58.7535 27.5653 60.2467 26.4124 61.7221 26.6429C63.1303 26.7624 64.1273 28.0512 63.9708 29.3194C63.9574 36.06 63.9977 42.8006 63.9485 49.5453C63.877 54.5071 59.0933 58.8759 53.715 58.9665C39.9898 59.0324 26.2602 58.9665 12.5306 58.9995C10.6708 59.0036 8.74387 58.9995 6.98687 58.3571C3.59359 57.2165 0.933498 54.3959 0.236064 51.1265C-0.0590047 49.6318 0.00805613 48.1083 0.0035854 46.6012C0.0125269 36.0394 -0.00535597 25.4735 0.00805623 14.9118C-0.103712 10.44 3.53546 6.24821 8.25656 5.28057Z" fill="url(#paint0_linear)"/>
<path d="M32.4656 24.9383C32.6623 23.5383 34.7814 22.9371 35.841 23.9294C36.6994 24.5924 36.4401 25.7124 36.5384 26.6141C40.1374 25.9759 44.0672 27.9565 45.3234 31.1436C46.146 33.3424 45.6945 35.7059 45.8018 37.9789C45.7169 40.2765 46.2712 42.883 44.6126 44.8348C42.6007 47.503 38.0406 47.9107 35.5012 45.6624C34.0616 44.5836 33.6638 42.8706 33.2972 41.2895C32.9127 40.1859 30.8695 40.1942 30.5387 41.3265C30.1989 42.8706 29.8189 44.5342 28.4419 45.6089C25.9383 47.9107 21.3469 47.5648 19.2903 44.913C17.4708 42.813 18.2084 40.0048 18.0698 37.5424C18.1816 35.22 17.6406 32.7371 18.8075 30.5712C20.2739 27.6271 24.0606 26.0541 27.4539 26.6759C28.7504 27.0053 29.2914 28.6236 28.4464 29.5871C27.7937 30.4765 26.515 30.2747 25.5181 30.3859C23.5822 30.3859 22.0175 32.103 22.165 33.8447C22.174 36.4512 22.1114 39.0577 22.1963 41.6642C22.1784 43.4306 25.0576 44.0318 25.9473 42.5001C26.4614 41.1783 26.439 39.6342 27.5701 38.5677C29.6312 36.1506 34.0214 36.0847 36.1674 38.4359C37.3029 39.4736 37.446 40.9848 37.8394 42.3353C38.5279 43.8218 41.1343 43.6201 41.5993 42.0718C41.8497 40.0377 41.6261 37.983 41.7066 35.9406C41.6753 34.3265 42.0151 32.3542 40.4995 31.1889C38.5726 29.5459 35.5415 31.2177 33.5609 29.69C32.0498 28.5412 32.3404 26.5318 32.4656 24.9383Z" fill="url(#paint1_linear)"/>
<defs>
<linearGradient id="paint0_linear" x1="9.37263" y1="51.0918" x2="47.0118" y2="6.48249" gradientUnits="userSpaceOnUse">
<stop stop-color="#0072FF"/>
<stop offset="1" stop-color="#00E5A1"/>
</linearGradient>
<linearGradient id="paint1_linear" x1="22.1057" y1="43.6682" x2="38.6537" y2="24.2606" gradientUnits="userSpaceOnUse">
<stop stop-color="#0072FF"/>
<stop offset="1" stop-color="#00E5A1"/>
</linearGradient>
</defs>
</svg>
