<svg width="64" height="64" viewBox="0 0 64 64" fill="none" xmlns="http://www.w3.org/2000/svg">
<g clip-path="url(#clip0)">
<path d="M8.24717 5.28688C10.8404 4.80099 13.5052 5.09747 16.1297 5.01923C18.8839 5.09747 21.902 4.61569 24.37 6.03631C26.7218 7.40752 28.2688 9.63522 30.3702 11.2823C31.1437 11.8341 32.1453 12.04 33.1155 12.0235C42.5183 12.0235 51.921 12.0359 61.3238 12.0894C62.9423 11.9617 64.3418 13.5059 63.926 14.9471C63.6979 16.063 62.522 16.8907 61.2969 16.8166C51.7466 16.8289 42.1963 16.7836 32.646 16.7754C30.4597 16.763 28.2778 16.0177 26.6547 14.663C24.6696 13.1765 23.3506 10.8953 21.0033 9.87817C17.7483 9.63934 14.462 9.84523 11.1981 9.77522C8.9536 9.63934 6.7091 10.8252 5.75228 12.7029C5.09503 13.893 5.21128 15.2601 5.20234 16.5489C5.22469 27.3992 5.19339 38.2494 5.21575 49.1038C5.17998 51.138 6.62415 53.0815 8.66745 53.8392C9.88359 54.3169 11.2339 54.2263 12.526 54.2345C26.1093 54.2139 39.6925 54.2428 53.2713 54.218C55.3727 54.2263 57.3847 53.0157 58.2611 51.2656C58.963 49.9521 58.7618 48.4532 58.7886 47.0408C58.7976 41.0124 58.7574 34.9841 58.8065 28.9557C58.7708 27.6009 60.206 26.4603 61.6546 26.6374C63.0765 26.7239 64.1406 28.0086 63.9796 29.2975C63.9796 36.0341 64.0109 42.7707 63.9662 49.5115C63.9036 54.498 59.1016 58.8917 53.696 58.974C39.384 59.0234 25.0675 58.9864 10.7555 58.9905C6.61521 59.0317 2.60462 56.6516 0.945834 53.1557C0.163389 51.6362 -0.0243975 49.9356 0.00242916 48.272C0.0381981 37.01 -0.0243977 25.7397 0.0337268 14.4777C0.114207 10.1664 3.70004 6.22985 8.24717 5.28688Z" fill="url(#paint0_linear)"/>
<path d="M28.8771 21.6145C31.9398 21.0133 35.235 21.2851 38.0742 22.5286C39.4334 23.0722 39.5631 24.9952 38.3335 25.7281C37.4795 26.3623 36.3975 25.9299 35.4988 25.6417C31.7967 24.3487 27.3569 25.3081 24.6072 27.9188C21.7188 30.5541 20.7933 35.8242 22.4432 39.2625C24.1824 43.1909 29.0023 45.6945 33.5583 44.9821C38.338 44.3933 42.2949 40.3826 42.3709 35.9231C42.5229 34.346 41.9104 32.8595 41.4454 31.3729C40.9759 29.9647 42.8493 28.6511 44.2354 29.31C45.2324 29.6723 45.4962 30.7306 45.8226 31.5624C47.468 36.236 46.0104 41.6797 42.1474 45.0768C37.408 49.4498 29.3153 50.1046 23.8292 46.5386C18.446 43.3021 16.0942 35.5448 18.3968 30.0188C20.0377 25.8146 24.1332 22.5369 28.8771 21.6145Z" fill="url(#paint1_linear)"/>
<path d="M30.0797 29.2644C30.3838 27.5679 33.2542 27.3332 33.9115 28.9268C34.3228 30.3927 34.0232 31.9451 34.1171 33.4439C34.0322 34.5475 34.3854 35.8116 33.6432 36.7752C32.2706 37.7964 30.6118 38.4182 29.1229 39.287C28.1616 39.7605 27.1198 40.5264 25.9663 40.1147C24.625 39.6617 24.227 37.8293 25.3448 36.9893C26.7934 36.0381 28.4165 35.3381 29.9501 34.5145C30.0842 32.7686 29.9098 31.0103 30.0797 29.2644Z" fill="url(#paint2_linear)"/>
</g>
<defs>
<linearGradient id="paint0_linear" x1="32" y1="59" x2="32" y2="5" gradientUnits="userSpaceOnUse">
<stop stop-color="#FDA700"/>
<stop offset="1" stop-color="#FFDE00"/>
</linearGradient>
<linearGradient id="paint1_linear" x1="32.0033" y1="48.8375" x2="32.0033" y2="21.3079" gradientUnits="userSpaceOnUse">
<stop stop-color="#FDA700"/>
<stop offset="1" stop-color="#FFDE00"/>
</linearGradient>
<linearGradient id="paint2_linear" x1="29.4149" y1="40.2322" x2="29.4149" y2="27.8525" gradientUnits="userSpaceOnUse">
<stop stop-color="#FDA700"/>
<stop offset="1" stop-color="#FFDE00"/>
</linearGradient>
<clipPath id="clip0">
<rect width="64" height="64" fill="white"/>
</clipPath>
</defs>
</svg>
