<svg width="64" height="64" viewBox="0 0 64 64" fill="none" xmlns="http://www.w3.org/2000/svg">
<g clip-path="url(#clip0_647_62)">
<path d="M8.27138 5.27874C10.8465 4.80105 13.4931 5.10167 16.0995 5.01931C18.7818 5.11402 21.6833 4.61163 24.1287 5.91291C26.6233 7.25537 28.2014 9.59027 30.3697 11.291C31.1476 11.814 32.1222 12.0528 33.0834 12.024C42.3242 12.024 51.565 12.024 60.8058 12.0611C62.062 11.9252 63.4747 12.4976 63.8458 13.6835C64.4896 15.2031 63.0187 16.9656 61.2707 16.8256C51.7438 16.8338 42.2124 16.7926 32.6855 16.7761C30.3786 16.7803 28.0807 15.9525 26.4177 14.4742C24.9692 13.1853 23.6503 11.7769 22.2019 10.4962C21.5402 9.91559 20.6014 9.73028 19.7117 9.77146C16.6404 9.79617 13.5646 9.75087 10.4933 9.79205C7.60526 9.85794 5.11512 12.2917 5.20006 14.9519C5.20006 26.3381 5.19112 37.7243 5.19559 49.1147C5.12406 51.8408 7.78408 54.291 10.7481 54.2292C24.9111 54.2374 39.074 54.2374 53.237 54.2251C56.201 54.2786 58.8655 51.8119 58.7671 49.0735C58.7761 42.6288 58.7716 36.1883 58.7627 29.7437C58.7761 28.9901 58.7493 28.1459 59.3215 27.5364C60.2469 26.3752 62.3347 26.3093 63.3317 27.4252C63.9844 28.0347 63.9844 28.9365 63.9799 29.7354C63.9486 36.3407 64.0023 42.9459 63.9531 49.5512C63.8681 54.5298 59.0667 58.8949 53.6796 58.9772C39.3691 59.0143 25.0586 58.9978 10.7481 58.9855C6.61278 59.0266 2.60262 56.6506 0.948489 53.1544C0.157187 51.6307 -0.012696 49.9177 0.00071586 48.254C0.0364809 36.9954 -0.0350494 25.7369 0.0275394 14.4824C0.112481 10.1585 3.70687 6.21352 8.27138 5.27874Z" fill="url(#paint0_linear_647_62)"/>
<path d="M32.1429 22C28.439 22 25.4571 24.899 25.4571 28.5V33C25.4571 34.1046 24.5617 35 23.4571 35H22.625C21.7275 35 21 35.7275 21 36.625V36.625V46C21 47.1046 21.8953 48 22.9999 48C29.2915 48 35.6918 48 41.2862 48C42.3908 48 43.2857 47.1046 43.2857 46V37C43.2857 35.8954 42.3902 35 41.2857 35C41.1327 35 40.9816 35 40.8286 35C39.724 35 38.8286 34.1046 38.8286 33V28.5C38.8286 24.899 35.8467 22 32.1429 22ZM32.1429 24.1667C34.9208 24.1667 36.6 25.3492 36.6 28.5V33C36.6 34.1046 35.7046 35 34.6 35H29.6857C28.5811 35 27.6857 34.1046 27.6857 33V28.5C27.6857 25.3492 29.365 24.1667 32.1429 24.1667ZM23.2286 39.1667C23.2286 38.0621 24.124 37.1667 25.2286 37.1667H39.0571C40.1617 37.1667 41.0571 38.0621 41.0571 39.1667V43.8333C41.0571 44.9378 40.1617 45.8333 39.0571 45.8333H25.2286C24.124 45.8333 23.2286 44.9378 23.2286 43.8333V39.1667Z" fill="url(#paint1_linear_647_62)" stroke="url(#paint2_linear_647_62)" stroke-width="2"/>
</g>
<defs>
<linearGradient id="paint0_linear_647_62" x1="63.8104" y1="5.34233" x2="10.9272" y2="67.497" gradientUnits="userSpaceOnUse">
<stop stop-color="#FE7970"/>
<stop offset="1" stop-color="#DC3282"/>
</linearGradient>
<linearGradient id="paint1_linear_647_62" x1="43.2197" y1="22.1648" x2="17.7614" y2="43.8046" gradientUnits="userSpaceOnUse">
<stop stop-color="#FE7970"/>
<stop offset="1" stop-color="#DC3282"/>
</linearGradient>
<linearGradient id="paint2_linear_647_62" x1="43.2197" y1="22.1648" x2="17.7614" y2="43.8046" gradientUnits="userSpaceOnUse">
<stop stop-color="#FE7970"/>
<stop offset="1" stop-color="#DC3282"/>
</linearGradient>
<clipPath id="clip0_647_62">
<rect width="64" height="64" fill="white"/>
</clipPath>
</defs>
</svg>
