<svg width="64" height="64" viewBox="0 0 64 64" fill="none" xmlns="http://www.w3.org/2000/svg">
<g clip-path="url(#clip0_648_71)">
<path d="M8.26577 5.27904C10.8503 4.80552 13.5019 5.09787 16.1132 5.01963C18.5904 5.11434 21.2107 4.67376 23.5492 5.64962C25.7224 6.51843 27.1309 8.35486 28.7719 9.84542C29.7824 10.8995 30.9942 12.0319 32.6442 12.0071C42.1997 12.0401 51.7597 12.0195 61.3152 12.0813C62.9518 11.9577 64.3603 13.5265 63.9176 14.9841C63.6806 16.0712 62.518 16.8782 61.3197 16.8206C51.7597 16.8329 42.2042 16.7876 32.6442 16.7753C30.6812 16.7671 28.7182 16.17 27.1622 15.0583C24.922 13.543 23.5358 11.023 21.0229 9.89072C17.6245 9.63131 14.186 9.83719 10.7743 9.78366C7.77838 9.71366 5.09997 12.2089 5.19834 14.9636C5.20282 26.3445 5.19387 37.7214 5.20282 49.1023C5.17152 51.1446 6.62027 53.0964 8.67714 53.8457C9.90232 54.3357 11.2616 54.2163 12.5628 54.2328C26.1203 54.2163 39.6778 54.2369 53.2308 54.2204C56.2088 54.274 58.8783 51.8076 58.7799 49.0653C58.7844 42.6254 58.7844 36.1855 58.7709 29.7456C58.7844 28.9798 58.7665 28.1192 59.3612 27.5057C60.2912 26.3816 62.3258 26.3198 63.3184 27.4068C64.1054 28.1315 63.9623 29.2268 63.9891 30.1615C63.9578 36.6055 64.0115 43.0495 63.9623 49.4935C63.9087 54.484 59.1197 58.8733 53.7137 58.9721C39.2351 59.0051 24.7565 59.0133 10.2779 58.9721C4.70201 58.8815 -0.158468 54.2204 0.00697565 49.0817C-0.00196728 37.6925 0.00250408 26.3033 0.00250408 14.9183C-0.109282 10.4425 3.53496 6.24255 8.26577 5.27904Z" fill="url(#paint0_linear_648_71)"/>
<path d="M32 42.3C33.75 42.3 35.2377 41.6877 36.4632 40.4632C37.6877 39.2377 38.3 37.75 38.3 36C38.3 34.25 37.6877 32.7623 36.4632 31.5368C35.2377 30.3123 33.75 29.7 32 29.7C30.25 29.7 28.7623 30.3123 27.5368 31.5368C26.3123 32.7623 25.7 34.25 25.7 36C25.7 37.75 26.3123 39.2377 27.5368 40.4632C28.7623 41.6877 30.25 42.3 32 42.3ZM32 39.5C31.02 39.5 30.1917 39.1617 29.515 38.485C28.8383 37.8083 28.5 36.98 28.5 36C28.5 35.02 28.8383 34.1917 29.515 33.515C30.1917 32.8383 31.02 32.5 32 32.5C32.98 32.5 33.8083 32.8383 34.485 33.515C35.1617 34.1917 35.5 35.02 35.5 36C35.5 36.98 35.1617 37.8083 34.485 38.485C33.8083 39.1617 32.98 39.5 32 39.5ZM20.8 47.2C20.03 47.2 19.3711 46.9261 18.8232 46.3782C18.2744 45.8294 18 45.17 18 44.4V27.6C18 26.83 18.2744 26.1711 18.8232 25.6232C19.3711 25.0744 20.03 24.8 20.8 24.8H24.7728C25.0515 24.8 25.3176 24.6837 25.5069 24.479L27.5031 22.321C27.6924 22.1163 27.9585 22 28.2372 22H35.7628C36.0415 22 36.3076 22.1163 36.4969 22.321L38.4931 24.479C38.6824 24.6837 38.9485 24.8 39.2272 24.8H43.2C43.97 24.8 44.6294 25.0744 45.1782 25.6232C45.7261 26.1711 46 26.83 46 27.6V44.4C46 45.17 45.7261 45.8294 45.1782 46.3782C44.6294 46.9261 43.97 47.2 43.2 47.2H20.8ZM42.2 44.4C42.7523 44.4 43.2 43.9523 43.2 43.4V28.6C43.2 28.0477 42.7523 27.6 42.2 27.6H37.9713C37.6902 27.6 37.422 27.4817 37.2326 27.2741L35.2724 25.1259C35.083 24.9183 34.8148 24.8 34.5337 24.8H29.4663C29.1852 24.8 28.917 24.9183 28.7276 25.1259L26.7674 27.2741C26.578 27.4817 26.3098 27.6 26.0287 27.6H21.8C21.2477 27.6 20.8 28.0477 20.8 28.6V43.4C20.8 43.9523 21.2477 44.4 21.8 44.4H42.2Z" fill="url(#paint1_linear_648_71)" stroke="url(#paint2_linear_648_71)"/>
</g>
<defs>
<linearGradient id="paint0_linear_648_71" x1="32" y1="59" x2="32" y2="5" gradientUnits="userSpaceOnUse">
<stop stop-color="#FD2E00"/>
<stop offset="1" stop-color="#FF9900"/>
</linearGradient>
<linearGradient id="paint1_linear_648_71" x1="32" y1="47.2" x2="32" y2="22" gradientUnits="userSpaceOnUse">
<stop stop-color="#FD2E00"/>
<stop offset="1" stop-color="#FF9900"/>
</linearGradient>
<linearGradient id="paint2_linear_648_71" x1="32" y1="47.2" x2="32" y2="22" gradientUnits="userSpaceOnUse">
<stop stop-color="#FD2E00"/>
<stop offset="1" stop-color="#FF9900"/>
</linearGradient>
<clipPath id="clip0_648_71">
<rect width="64" height="64" fill="white"/>
</clipPath>
</defs>
</svg>
