<svg width="64" height="64" viewBox="0 0 64 64" fill="none" xmlns="http://www.w3.org/2000/svg">
<g clip-path="url(#clip0_649_91)">
<path d="M8.25346 5.28453C10.8423 4.80278 13.5028 5.09924 16.1229 5.02101C18.7878 5.10336 21.6629 4.62985 24.1042 5.89803C26.6081 7.23621 28.182 9.58316 30.3595 11.2796C31.142 11.8354 32.1436 12.0413 33.1138 12.0248C42.3649 12.0125 51.6116 12.0536 60.8627 12.0742C62.1057 11.9466 63.4873 12.523 63.8495 13.6965C64.4844 15.2035 63.0133 16.9823 61.2606 16.8176C51.7189 16.8299 42.1771 16.7887 32.6354 16.7764C30.668 16.764 28.7007 16.167 27.1491 15.047C25.1818 13.5895 23.7152 11.6378 21.7523 10.1843C20.0264 9.39376 18.0009 9.92903 16.1498 9.7808C13.6727 9.92903 11.0793 9.41435 8.68271 10.1596C6.63486 10.9131 5.17721 12.8566 5.20851 14.8988C5.19957 26.296 5.19957 37.6972 5.20851 49.0985C5.17274 51.1408 6.63039 53.1007 8.68718 53.8501C9.90784 54.3236 11.2582 54.2207 12.5504 54.233C26.1163 54.2124 39.6822 54.2412 53.2436 54.2165C55.4435 54.2371 57.545 52.9113 58.3677 51.0378C58.9445 49.7697 58.7567 48.3656 58.7835 47.0274C58.7924 41.0036 58.7522 34.9797 58.8014 28.9559C58.7612 27.5642 60.2724 26.4071 61.7524 26.646C63.1475 26.7818 64.1312 28.0624 63.9747 29.3182C63.9836 35.9103 63.9836 42.4982 63.9791 49.0862C64.1401 54.2207 59.2798 58.8816 53.7131 58.9722C39.2306 59.0093 24.7436 59.0093 10.2655 58.9722C4.87317 58.8734 0.0888881 54.4965 0.02629 49.5185C-0.0228941 37.9814 0.0128758 26.4442 0.00840442 14.9071C-0.103378 10.4396 3.53178 6.25213 8.25346 5.28453Z" fill="url(#paint0_linear_649_91)"/>
<path fill-rule="evenodd" clip-rule="evenodd" d="M30.7234 33.0728C29.2381 32.9451 27.7891 32.5959 26.4238 32.0387C26.2707 32.9272 26.1717 33.8234 26.1257 34.7234H30.7234V33.0728ZM33.2766 33.0734C34.7607 32.9457 36.2102 32.5979 37.5781 32.0425C37.73 32.9298 37.8282 33.8253 37.8743 34.7234H33.2766V33.0734ZM30.7234 39.5655C29.2745 39.6893 27.86 40.0245 26.5241 40.5575C26.3141 39.4749 26.1813 38.3777 26.1257 37.2766H30.7234V39.5655ZM33.2766 39.5649C34.7255 39.6893 36.14 40.0245 37.4759 40.5575C37.6859 39.4743 37.8187 38.3777 37.8743 37.2766H33.2766V39.5649ZM30.7234 42.1296C29.4979 42.2559 28.3043 42.5636 27.1796 43.0385C27.4202 43.7521 27.7164 44.4473 28.0617 45.1213C28.3298 45.6383 28.6425 46.1362 29 46.6021C29.3 46.9915 29.6383 47.3489 30.0149 47.6617C30.2345 47.8404 30.4707 47.9923 30.7234 48.1207V42.1296ZM33.2766 42.1296C34.5021 42.2566 35.6957 42.5655 36.8198 43.0411C36.5791 43.7534 36.2836 44.4479 35.9383 45.1213C35.6702 45.6383 35.3575 46.1362 35 46.6021C34.7 46.9915 34.3617 47.3489 33.9851 47.6617C33.7655 47.8404 33.5293 47.9923 33.2766 48.1207V42.1296ZM30.7234 30.5087C29.4302 30.3747 28.1721 30.0383 26.9951 29.5175C27.2702 28.6091 27.627 27.727 28.0617 26.8787C28.3298 26.3617 28.6425 25.8638 29 25.3979C29.3 25.0085 29.6383 24.6511 30.0149 24.3383C30.2345 24.1596 30.4707 24.0077 30.7234 23.8793V30.5087ZM33.2766 30.5087C34.5685 30.3753 35.8272 30.0415 37.0068 29.5238C36.7317 28.6143 36.3743 27.7296 35.9383 26.8787C35.6702 26.3617 35.3575 25.8638 35 25.3979C34.7 25.0085 34.3617 24.6511 33.9851 24.3383C33.7655 24.1596 33.5293 24.0077 33.2766 23.8793V30.5087ZM44.3811 34.7234C44.1698 32.6796 43.4549 30.7238 42.3104 29.0291L41.9575 29.3425C41.3307 29.8998 40.6617 30.3996 39.9551 30.8323C40.2123 32.1147 40.3707 33.4168 40.4307 34.7234H44.3811ZM44.3811 37.2766C44.1532 39.48 43.3407 41.5813 42.0373 43.3641C41.353 42.7475 40.617 42.1991 39.8357 41.7325C39.8459 41.6898 39.8549 41.647 39.8638 41.6043C40.1753 40.1815 40.3636 38.7319 40.4307 37.2766H44.3811ZM19.6189 37.2766C19.8468 39.4813 20.66 41.5825 21.9641 43.3659C22.6477 42.7493 23.383 42.2004 24.1649 41.7338C24.1541 41.6904 24.1451 41.6477 24.1362 41.6043C23.8247 40.1815 23.6364 38.7319 23.5693 37.2766H19.6189ZM26.1985 47.0075C25.2947 46.5357 24.4477 45.9491 23.6785 45.2604C24.0711 44.9062 24.4834 44.5793 24.9149 44.2819C25.1651 44.9649 25.4587 45.6325 25.7893 46.283C25.9164 46.53 26.0517 46.7725 26.1985 47.0075ZM39.0851 44.2825C39.5166 44.58 39.9302 44.9062 40.3228 45.2591C39.553 45.9485 38.7059 46.5357 37.8015 47.0075C37.9483 46.7725 38.0836 46.53 38.2107 46.283C38.5413 45.6332 38.8349 44.9655 39.0851 44.2825ZM26.1864 25.013C25.1491 25.5536 24.1949 26.2493 23.3517 27.0734C23.7857 27.4941 24.2485 27.8802 24.7317 28.2338C25.0196 27.3709 25.3757 26.5309 25.7893 25.717C25.9125 25.477 26.0441 25.2415 26.1864 25.013ZM39.2638 28.223C39.6111 27.9823 39.9417 27.7168 40.2596 27.4341L40.6713 27.0689C39.8141 26.2391 38.8502 25.5434 37.8079 25.0034C37.9527 25.2351 38.0855 25.4738 38.2107 25.717C38.6223 26.5264 38.9773 27.3632 39.2638 28.223ZM19.9809 32.7575C19.7907 33.4341 19.0853 33.8285 18.4075 33.6383C17.7296 33.4481 17.3332 32.7415 17.5234 32.0617L17.5936 31.8064C17.7877 31.1266 18.4955 30.7302 19.1734 30.9223C19.8513 31.1145 20.2451 31.8191 20.0511 32.4957L19.9809 32.7575ZM19.5532 34.7234C18.1438 34.7234 17 35.2953 17 36C17 39.9766 18.583 43.7936 21.3915 46.6085C24.2064 49.417 28.0234 51 32 51C35.9766 51 39.7936 49.417 42.6085 46.6085C45.417 43.7936 47 39.9766 47 36C47 32.0234 45.417 28.2064 42.6085 25.3915C39.7936 22.583 35.9766 21 32 21C26.8362 21.0064 22.0234 23.6681 19.2851 28.0468C18.9117 28.6423 19.0936 29.4287 19.6904 29.8021C20.2873 30.1755 21.0755 29.9955 21.4489 29.4C21.5281 29.2736 21.6098 29.1485 21.6941 29.0259C22.4185 29.7109 23.2049 30.3166 24.0443 30.8298C23.7877 32.1147 23.6293 33.4149 23.5693 34.7234H19.5532Z" fill="url(#paint1_linear_649_91)"/>
</g>
<defs>
<linearGradient id="paint0_linear_649_91" x1="32" y1="5" x2="32" y2="59" gradientUnits="userSpaceOnUse">
<stop stop-color="#DC18FC"/>
<stop offset="1" stop-color="#8E1EFF"/>
</linearGradient>
<linearGradient id="paint1_linear_649_91" x1="32" y1="21" x2="32" y2="51" gradientUnits="userSpaceOnUse">
<stop stop-color="#DC18FC"/>
<stop offset="1" stop-color="#8E1EFF"/>
</linearGradient>
<clipPath id="clip0_649_91">
<rect width="64" height="64" fill="white"/>
</clipPath>
</defs>
</svg>
