<svg width="64" height="64" viewBox="0 0 64 64" fill="none" xmlns="http://www.w3.org/2000/svg">
<g clip-path="url(#clip0_649_98)">
<path d="M8.25837 5.28518C10.8473 4.80758 13.5077 5.09167 16.1324 5.01756C18.8823 5.09167 21.9004 4.62643 24.3641 6.03862C26.7116 7.40552 28.2542 9.62468 30.3467 11.2633C31.1158 11.8356 32.1219 12.0332 33.0877 12.0209C42.4998 12.0209 51.912 12.0456 61.3241 12.095C63.0814 11.9468 64.5122 13.7707 63.8236 15.2652C63.4346 16.4057 62.0753 16.945 60.8502 16.8256C51.4559 16.8092 42.0572 16.7968 32.6584 16.7762C30.0248 16.7968 27.494 15.6605 25.7502 13.8654C24.1674 12.5726 23.0227 10.7034 21.0419 9.8923C17.6392 9.63703 14.1963 9.83878 10.7802 9.78937C7.80229 9.71938 5.12396 12.1856 5.21339 14.9276C5.20892 26.3157 5.20892 37.7038 5.21786 49.0878C5.13291 51.8093 7.77546 54.2508 10.7221 54.2096C24.7531 54.2343 38.7886 54.2096 52.8197 54.2261C54.957 54.3372 57.1032 53.2832 58.1137 51.5334C58.9722 50.1624 58.771 48.5279 58.7889 47.0128C58.7978 40.9976 58.7576 34.9783 58.8112 28.959C58.771 27.5797 60.2555 26.4187 61.7265 26.6451C63.144 26.7686 64.1321 28.0614 63.9801 29.3336C63.9846 36.0611 64.0159 42.7886 63.9622 49.516C63.8996 54.5019 59.1019 58.8867 53.7005 58.9732C39.3788 59.0267 25.0527 58.9814 10.731 58.9938C5.16421 59.1008 0.0713589 54.646 0.0221743 49.4996C-0.0180677 37.9673 0.00875996 26.431 0.00875996 14.8988C-0.0940807 10.4316 3.54111 6.2486 8.25837 5.28518Z" fill="url(#paint0_linear_649_98)"/>
<path fill-rule="evenodd" clip-rule="evenodd" d="M42.9091 43.4545H21.0909C19.5909 43.4545 18.3636 42.2273 18.3636 40.7273V25.7273C18.3636 24.2273 19.5909 23 21.0909 23H42.9091C44.4091 23 45.6364 24.2273 45.6364 25.7273L45.6227 40.7273C45.6227 42.2273 44.4091 43.4545 42.9091 43.4545ZM21.4909 25.7273C21.27 25.7273 21.0909 25.9064 21.0909 26.1273V40.3273C21.0909 40.5482 21.27 40.7273 21.4909 40.7273H42.5091C42.73 40.7273 42.9091 40.5482 42.9091 40.3273V26.1273C42.9091 25.9064 42.73 25.7273 42.5091 25.7273H21.4909ZM17.2 46.1818H46.8C46.9105 46.1818 47 46.2714 47 46.3818V48.7091C47 48.8195 46.9105 48.9091 46.8 48.9091H17.2C17.0895 48.9091 17 48.8195 17 48.7091V46.3818C17 46.2714 17.0895 46.1818 17.2 46.1818Z" fill="url(#paint1_linear_649_98)"/>
<path d="M45.6364 25.7273L46.1364 25.7277V25.7273H45.6364ZM45.6227 40.7273L45.1227 40.7268V40.7273H45.6227ZM21.0909 43.9545H42.9091V42.9545H21.0909V43.9545ZM17.8636 40.7273C17.8636 42.5034 19.3148 43.9545 21.0909 43.9545V42.9545C19.8671 42.9545 18.8636 41.9511 18.8636 40.7273H17.8636ZM17.8636 25.7273V40.7273H18.8636V25.7273H17.8636ZM21.0909 22.5C19.3148 22.5 17.8636 23.9511 17.8636 25.7273H18.8636C18.8636 24.5034 19.8671 23.5 21.0909 23.5V22.5ZM42.9091 22.5H21.0909V23.5H42.9091V22.5ZM46.1364 25.7273C46.1364 23.9511 44.6852 22.5 42.9091 22.5V23.5C44.1329 23.5 45.1364 24.5034 45.1364 25.7273H46.1364ZM46.1227 40.7277L46.1364 25.7277L45.1364 25.7268L45.1227 40.7268L46.1227 40.7277ZM42.9091 43.9545C44.6885 43.9545 46.1227 42.5001 46.1227 40.7273H45.1227C45.1227 41.9544 44.1297 42.9545 42.9091 42.9545V43.9545ZM21.5909 26.1273C21.5909 26.1825 21.5461 26.2273 21.4909 26.2273V25.2273C20.9939 25.2273 20.5909 25.6302 20.5909 26.1273H21.5909ZM21.5909 40.3273V26.1273H20.5909V40.3273H21.5909ZM21.4909 40.2273C21.5461 40.2273 21.5909 40.272 21.5909 40.3273H20.5909C20.5909 40.8243 20.9939 41.2273 21.4909 41.2273V40.2273ZM42.5091 40.2273H21.4909V41.2273H42.5091V40.2273ZM42.4091 40.3273C42.4091 40.272 42.4539 40.2273 42.5091 40.2273V41.2273C43.0061 41.2273 43.4091 40.8243 43.4091 40.3273H42.4091ZM42.4091 26.1273V40.3273H43.4091V26.1273H42.4091ZM42.5091 26.2273C42.4539 26.2273 42.4091 26.1825 42.4091 26.1273H43.4091C43.4091 25.6302 43.0061 25.2273 42.5091 25.2273V26.2273ZM21.4909 26.2273H42.5091V25.2273H21.4909V26.2273ZM46.8 45.6818H17.2V46.6818H46.8V45.6818ZM47.5 46.3818C47.5 45.9952 47.1866 45.6818 46.8 45.6818V46.6818C46.6343 46.6818 46.5 46.5475 46.5 46.3818H47.5ZM47.5 48.7091V46.3818H46.5V48.7091H47.5ZM46.8 49.4091C47.1866 49.4091 47.5 49.0957 47.5 48.7091H46.5C46.5 48.5434 46.6343 48.4091 46.8 48.4091V49.4091ZM17.2 49.4091H46.8V48.4091H17.2V49.4091ZM16.5 48.7091C16.5 49.0957 16.8134 49.4091 17.2 49.4091V48.4091C17.3657 48.4091 17.5 48.5434 17.5 48.7091H16.5ZM16.5 46.3818V48.7091H17.5V46.3818H16.5ZM17.2 45.6818C16.8134 45.6818 16.5 45.9952 16.5 46.3818H17.5C17.5 46.5475 17.3657 46.6818 17.2 46.6818V45.6818Z" fill="url(#paint2_linear_649_98)"/>
</g>
<defs>
<linearGradient id="paint0_linear_649_98" x1="52.418" y1="5" x2="10.2201" y2="66.0629" gradientUnits="userSpaceOnUse">
<stop stop-color="#DE00C0"/>
<stop offset="1" stop-color="#8720FF"/>
</linearGradient>
<linearGradient id="paint1_linear_649_98" x1="41.5709" y1="23" x2="21.1619" y2="51.8531" gradientUnits="userSpaceOnUse">
<stop stop-color="#DE00C0"/>
<stop offset="1" stop-color="#8720FF"/>
</linearGradient>
<linearGradient id="paint2_linear_649_98" x1="41.5709" y1="23" x2="21.1619" y2="51.8531" gradientUnits="userSpaceOnUse">
<stop stop-color="#DE00C0"/>
<stop offset="1" stop-color="#8720FF"/>
</linearGradient>
<clipPath id="clip0_649_98">
<rect width="64" height="64" fill="white"/>
</clipPath>
</defs>
</svg>
