<svg width="128" height="128" viewBox="0 0 128 128" fill="none" xmlns="http://www.w3.org/2000/svg">
<path d="M83.0538 6.0941V6H82.1615H15.2385C12.8977 6 11 7.89769 11 10.2385V43.7C11 63.0565 25.6612 79.047 44.4615 81.1603V113.523H28.6231C26.2823 113.523 24.3846 115.421 24.3846 117.762C24.3846 120.102 26.2823 122 28.6231 122H68.7769C71.1177 122 73.0154 120.102 73.0154 117.762C73.0154 115.421 71.1177 113.523 68.7769 113.523H52.9385V81.1603C71.7389 79.047 86.4 63.0565 86.4 43.7V10.2385C86.4 8.20379 84.9661 6.50389 83.0538 6.0941ZM51.7551 14.4769H77.9231V43.7C77.9231 59.8128 64.8128 72.9231 48.7 72.9231C32.5872 72.9231 19.4769 59.8128 19.4769 43.7V14.4769H42.8193L37.9866 28.975L37.9865 28.9751C37.556 30.2676 37.7726 31.6884 38.5692 32.7935C39.3657 33.8985 40.645 34.5538 42.0077 34.5538H49.5116L44.6789 49.0518V49.0519C43.9386 51.2726 45.139 53.6729 47.3595 54.4132H47.3597C49.5807 55.1532 51.9806 53.9532 52.7209 51.7326L59.4132 31.6556V31.6555C59.8439 30.3629 59.6272 28.9422 58.8306 27.837C58.0341 26.732 56.7549 26.0769 55.3923 26.0769H47.8884L51.7551 14.4769Z" fill="url(#paint0_linear)" stroke="url(#paint1_linear)" stroke-width="2"/>
<path d="M91.9074 115.468C91.9074 114.264 92.0802 113.247 92.4258 112.414C92.7713 111.583 93.2507 110.912 93.8665 110.399C94.4795 109.886 95.2041 109.516 96.0373 109.284C96.8678 109.056 97.7568 108.939 98.7042 108.939C99.6015 108.939 100.454 109.056 101.26 109.284C102.065 109.516 102.776 109.886 103.392 110.399C104.005 110.912 104.49 111.583 104.849 112.414C105.209 113.247 105.387 114.264 105.387 115.468C105.387 116.622 105.209 117.608 104.849 118.427C104.489 119.244 104.005 119.927 103.392 120.465C102.776 121 102.065 121.39 101.26 121.635C100.454 121.877 99.6015 122 98.7042 122C97.7568 122 96.8678 121.877 96.0373 121.635C95.2041 121.39 94.4795 121 93.8665 120.465C93.2492 119.926 92.7728 119.242 92.4248 118.426C92.0809 117.61 91.9069 116.62 91.9069 115.468L91.9074 115.468ZM93.1749 102.332V99.492C93.1749 98.185 93.3087 97.0006 93.5788 95.9389C93.846 94.8744 94.256 93.8656 94.8077 92.9042C95.3567 91.9455 96.0673 91.0092 96.9368 90.1007C97.809 89.1922 98.8596 88.2503 100.089 87.2778C101.164 86.4334 102.073 85.6782 102.814 85.0094C103.558 84.3461 104.157 83.6857 104.62 83.0308C105.08 82.3787 105.414 81.696 105.617 80.9797C105.824 80.2608 105.927 79.4275 105.927 78.4828C105.927 77.0226 105.431 75.816 104.447 74.8713C103.461 73.9238 101.956 73.45 99.9326 73.45C98.1686 73.45 96.2653 73.8208 94.2283 74.5619C92.1968 75.306 90.0872 76.2145 87.9109 77.2901L84 68.8014C85.098 68.1605 86.2963 67.553 87.5893 66.9789C88.8851 66.4021 90.2283 65.8893 91.6217 65.4406C93.0178 64.9948 94.4335 64.6409 95.8657 64.3845C97.3008 64.128 98.7081 64 100.093 64C102.704 64 105.059 64.3149 107.157 64.9419C109.259 65.5689 111.039 66.4829 112.497 67.6868C113.96 68.8907 115.077 70.3537 115.858 72.0675C116.641 73.7841 117.031 75.7404 117.031 77.9421C117.031 79.5555 116.849 80.9963 116.493 82.2643C116.136 83.5323 115.601 84.7111 114.902 85.7979C114.194 86.8875 113.31 87.9381 112.249 88.9469C111.187 89.9585 109.95 91.0286 108.542 92.1544C107.467 92.9988 106.589 93.7372 105.909 94.3643C105.232 94.9913 104.699 95.5877 104.318 96.1478C103.933 96.7135 103.671 97.2959 103.529 97.8978C103.389 98.497 103.317 99.2076 103.317 100.027V102.332H93.1794L93.1749 102.332Z" fill="url(#paint2_linear)"/>
<defs>
<linearGradient id="paint0_linear" x1="48.7" y1="122" x2="48.7" y2="6" gradientUnits="userSpaceOnUse">
<stop stop-color="#FD3A84"/>
<stop offset="1" stop-color="#FFA68D"/>
</linearGradient>
<linearGradient id="paint1_linear" x1="48.7" y1="122" x2="48.7" y2="6" gradientUnits="userSpaceOnUse">
<stop stop-color="#FD3A84"/>
<stop offset="1" stop-color="#FFA68D"/>
</linearGradient>
<linearGradient id="paint2_linear" x1="100.515" y1="122" x2="100.515" y2="64" gradientUnits="userSpaceOnUse">
<stop stop-color="#02AA93"/>
<stop offset="1" stop-color="#67FF80"/>
</linearGradient>
</defs>
</svg>
