<svg width="64" height="64" viewBox="0 0 64 64" fill="none" xmlns="http://www.w3.org/2000/svg">
<path d="M21.3845 4.72912C27.3774 2.54749 34.0817 2.42113 40.1492 4.40206C46.008 6.26406 51.2597 10.0327 54.8391 15.0277C55.0551 15.325 55.301 15.5926 55.5766 15.8379C55.584 16.1724 55.5952 16.8488 55.5989 17.187C54.9434 17.7222 54.4406 18.6625 53.4945 18.6737C52.5298 18.8744 51.7737 18.1236 51.2597 17.4175C48.0268 13.0245 43.3039 9.71675 38.0299 8.26729C34.6069 7.22293 30.9531 7.16718 27.4221 7.5983C21.0679 8.56833 15.1718 12.1251 11.3354 17.2762C10.7805 18.1088 9.70032 18.7331 8.70212 18.2983C7.65177 17.8449 6.56791 16.4474 7.4283 15.3585C10.7954 10.4638 15.7975 6.73234 21.3845 4.72912Z" fill="url(#paint0_linear)"/>
<path d="M4.31081 24.0999C5.68147 22.2565 8.08013 21.1155 10.382 21.5949C12.7136 22.026 14.6541 23.8918 15.3208 26.1403C15.8721 28.1398 15.3804 30.3623 14.1289 32.0087C12.1176 34.759 10.125 37.5278 8.10993 40.2781C10.5458 40.2855 12.9817 40.2818 15.4177 40.2855C15.4251 41.59 15.4251 42.8908 15.4214 44.1954C11.328 44.2102 7.23464 44.2102 3.13755 44.1954C3.10775 42.9689 3.11148 41.7387 3.11893 40.5122C5.75224 36.8886 8.3781 33.2575 11.004 29.6338C11.7563 28.701 11.9165 27.2478 11.0896 26.3075C10.2702 25.0142 8.13228 25.0922 7.3799 26.4079C6.72437 27.3779 6.93295 28.5969 6.89943 29.697C5.60325 29.7119 4.31081 29.7379 3.01836 29.6524C2.94387 27.7347 3.04443 25.6683 4.31081 24.0999Z" fill="url(#paint1_linear)"/>
<path d="M22.3864 21.777C24.7516 21.1191 27.519 21.5726 29.3478 23.2785C30.629 24.4083 31.4075 26.0993 31.3926 27.809C31.3963 31.1724 31.374 34.5322 31.441 37.8957C31.523 39.9844 30.4801 42.0657 28.7667 43.2624C25.5151 45.6522 20.1666 44.7453 18.267 41.0659C17.2837 39.4269 17.5481 37.4609 17.5258 35.6435C17.6152 32.9155 17.5407 30.1876 17.5779 27.4596C17.6934 24.7614 19.8053 22.4348 22.3864 21.777ZM23.5485 25.4415C22.4609 25.7091 21.4627 26.6085 21.459 27.7904C21.3882 31.0238 21.4553 34.2572 21.4255 37.4906C21.3994 38.4792 21.5745 39.6574 22.5466 40.174C24.1594 41.2332 27.1502 40.7612 27.4966 38.5758C27.5674 34.9819 27.5413 31.3806 27.5078 27.7867C27.4408 25.8392 25.2023 25.0513 23.5485 25.4415Z" fill="url(#paint2_linear)"/>
<path d="M48.794 24.2782C50.4925 21.3458 54.8726 20.5542 57.4464 22.7953C60.1355 24.832 60.4186 29.0317 58.2583 31.5552C60.2957 33.6439 60.2733 36.7361 59.9493 39.4344C59.4502 41.8984 57.4128 44.0094 54.921 44.4777C52.392 44.9981 49.714 43.6192 48.4216 41.4413C47.3191 39.7317 47.4271 37.6058 47.5202 35.662C47.591 34.1159 48.3583 32.7148 49.3378 31.5552C47.6692 29.5483 47.3601 26.4933 48.794 24.2782ZM53.2673 25.4266C51.6732 25.8726 51.2225 28.1732 52.5261 29.1915C53.5392 30.2433 55.4797 29.5186 55.7256 28.1248C56.2358 26.6828 54.7907 24.9881 53.2673 25.4266ZM53.2673 33.6105C52.2133 33.8669 51.3938 34.9262 51.4385 36.0114C51.4944 37.3271 51.0921 38.9103 52.1239 39.9584C52.9321 40.8764 54.5411 40.973 55.3829 40.0476C56.4779 38.9809 56.1353 37.3233 56.1539 35.9556C56.1427 34.5173 54.7274 33.1942 53.2673 33.6105Z" fill="url(#paint3_linear)"/>
<path d="M39.7655 21.8774C41.0543 21.8662 42.3467 21.8662 43.6354 21.8885C43.6429 26.7126 43.6094 31.533 43.6839 36.3534C44.4772 36.3608 45.2705 36.3683 46.0676 36.372C46.0788 37.6728 46.0788 38.9699 46.0751 40.2707C45.278 40.2744 44.4846 40.2818 43.6876 40.2855C43.6876 41.5826 43.6876 42.876 43.6727 44.1731C42.3728 44.2177 41.0729 44.2102 39.7767 44.1916C39.7767 42.8908 39.7767 41.5863 39.7693 40.2818C37.4302 40.2818 35.0874 40.2669 32.7446 40.2892C32.8228 38.9438 32.5807 37.5539 32.8638 36.2345C35.1693 31.4513 37.4823 26.6717 39.7655 21.8774ZM36.5288 36.3571C37.609 36.3608 38.6928 36.3646 39.7767 36.3534C39.7767 34.0826 39.7693 31.8118 39.7804 29.5409C38.7189 31.8229 37.6127 34.0863 36.5288 36.3571Z" fill="url(#paint4_linear)"/>
<path d="M50.4105 47.7893C51.2188 46.6595 53.1481 46.7003 53.8856 47.8859C54.5076 48.6255 54.4294 49.7182 53.8074 50.4281C47.5984 58.1437 37.2589 62.2059 27.4445 60.9682C26.2265 60.5929 24.9564 60.4405 23.7236 60.1283C18.2446 58.664 13.2164 55.5755 9.4508 51.3461C8.33341 50.2608 8.77664 48.1052 10.3373 47.7113C11.6446 47.2318 12.6465 48.3988 13.425 49.2573C18.2446 54.3193 25.314 57.1253 32.3014 56.7462C39.2664 56.5641 46.0006 53.1412 50.4105 47.7893Z" fill="url(#paint5_linear)"/>
<defs>
<linearGradient id="paint0_linear" x1="31.3578" y1="18.7067" x2="31.3578" y2="3" gradientUnits="userSpaceOnUse">
<stop stop-color="#FD2E00"/>
<stop offset="1" stop-color="#FF9900"/>
</linearGradient>
<linearGradient id="paint1_linear" x1="9.27243" y1="44.2065" x2="9.27243" y2="21.4854" gradientUnits="userSpaceOnUse">
<stop stop-color="#FD2E00"/>
<stop offset="1" stop-color="#FF9900"/>
</linearGradient>
<linearGradient id="paint2_linear" x1="24.4774" y1="44.5878" x2="24.4774" y2="21.4885" gradientUnits="userSpaceOnUse">
<stop stop-color="#FD2E00"/>
<stop offset="1" stop-color="#FF9900"/>
</linearGradient>
<linearGradient id="paint3_linear" x1="53.7888" y1="44.5877" x2="53.7888" y2="21.5041" gradientUnits="userSpaceOnUse">
<stop stop-color="#FD2E00"/>
<stop offset="1" stop-color="#FF9900"/>
</linearGradient>
<linearGradient id="paint4_linear" x1="39.3997" y1="44.2062" x2="39.3997" y2="21.8701" gradientUnits="userSpaceOnUse">
<stop stop-color="#FD2E00"/>
<stop offset="1" stop-color="#FF9900"/>
</linearGradient>
<linearGradient id="paint5_linear" x1="31.5718" y1="61.1877" x2="31.5718" y2="46.9686" gradientUnits="userSpaceOnUse">
<stop stop-color="#FD2E00"/>
<stop offset="1" stop-color="#FF9900"/>
</linearGradient>
</defs>
</svg>
