<svg width="48" height="48" viewBox="0 0 48 48" fill="none" xmlns="http://www.w3.org/2000/svg">
<path fill-rule="evenodd" clip-rule="evenodd" d="M1.5 16C1.5 7.99187 7.99187 1.5 16 1.5H32C40.0081 1.5 46.5 7.99187 46.5 16V32C46.5 40.0081 40.0081 46.5 32 46.5H16C7.99187 46.5 1.5 40.0081 1.5 32V16ZM16 6.5C10.7533 6.5 6.5 10.7533 6.5 16V32C6.5 37.2467 10.7533 41.5 16 41.5H32C37.2467 41.5 41.5 37.2467 41.5 32V16C41.5 10.7533 37.2467 6.5 32 6.5H16ZM36 9C36.7956 9 37.5587 9.31607 38.1213 9.87868C38.6839 10.4413 39 11.2043 39 12C39 12.7956 38.6839 13.5587 38.1213 14.1213C37.5587 14.6839 36.7956 15 36 15C35.2044 15 34.4413 14.6839 33.8787 14.1213C33.3161 13.5587 33 12.7956 33 12C33 11.2043 33.3161 10.4413 33.8787 9.87868C34.4413 9.31607 35.2044 9 36 9ZM24 11C27.4478 11 30.7544 12.3696 33.1924 14.8076C35.6304 17.2456 37 20.5522 37 24C37 27.4478 35.6304 30.7544 33.1924 33.1924C30.7544 35.6304 27.4478 37 24 37C20.5522 37 17.2456 35.6304 14.8076 33.1924C12.3696 30.7544 11 27.4478 11 24C11 20.5522 12.3696 17.2456 14.8076 14.8076C17.2456 12.3696 20.5522 11 24 11ZM24 17C22.1435 17 20.363 17.7375 19.0503 19.0503C17.7375 20.363 17 22.1435 17 24C17 25.8565 17.7375 27.637 19.0503 28.9497C20.363 30.2625 22.1435 31 24 31C25.8565 31 27.637 30.2625 28.9497 28.9497C30.2625 27.637 31 25.8565 31 24C31 22.1435 30.2625 20.363 28.9497 19.0503C27.637 17.7375 25.8565 17 24 17Z" fill="url(#paint0_radial_641_19)"/>
<defs>
<radialGradient id="paint0_radial_641_19" cx="0" cy="0" r="1" gradientUnits="userSpaceOnUse" gradientTransform="translate(7 6.5) rotate(50.2739) scale(46.1573)">
<stop stop-color="#6100FF"/>
<stop offset="0.385417" stop-color="#CE04D2"/>
<stop offset="0.59375" stop-color="#F9377A"/>
<stop offset="0.841932" stop-color="#E36D00"/>
<stop offset="1" stop-color="#FEC600"/>
</radialGradient>
</defs>
</svg>
