<svg width="128" height="128" viewBox="0 0 128 128" fill="none" xmlns="http://www.w3.org/2000/svg">
<path d="M46.6413 14.7102C47.388 12.2595 49.4332 9.88139 52.217 10.0265C59.7892 10.0023 67.3613 9.97813 74.9254 10.0346C77.1085 10.0104 79.1295 11.4614 79.9491 13.4526C93.2027 46.327 106.383 79.2336 119.669 112.092C121.243 115.518 116.877 119.509 113.509 117.921C111.245 116.921 110.457 114.414 109.629 112.31C97.2122 81.3541 84.7539 50.4142 72.3037 19.4745C66.501 19.4664 60.7063 19.4825 54.9115 19.4664C42.8917 49.3017 31.4725 79.3706 19.4609 109.206C30.9856 109.182 42.5103 109.214 54.0349 109.19C50.3827 104.788 46.9821 100.185 43.4598 95.6789C42.1044 94.0427 41.2198 91.8177 42.1288 89.746C47.5827 75.0496 53.1665 60.3942 58.6529 45.7143C59.1967 43.7313 60.7793 42.1029 62.8083 41.6434C65.2674 41.2725 67.3776 43.2637 68.1647 45.4241C76.419 66.4563 84.697 87.4803 92.9837 108.497C93.8922 110.818 95.3776 113.342 94.3146 115.881C93.2108 117.421 91.4739 119.065 89.4041 118.775C87.5295 118.049 85.9715 116.55 85.322 114.639C78.099 96.1463 70.7457 77.6938 63.5631 59.185C59.5457 69.7536 55.7474 80.4024 51.5595 90.9067C56.1938 96.7914 60.7225 102.765 65.3486 108.658C66.4359 110.158 67.7993 111.657 67.9864 113.583C68.0027 116.236 65.6002 118.888 62.8651 118.823C45.9757 118.896 29.0864 118.807 12.2052 118.872C9.7217 117.687 7.01096 115.123 8.35822 112.14C21.0759 79.6447 33.8911 47.1896 46.6413 14.7102Z" fill="url(#paint0_linear_678_124)" stroke="url(#paint1_linear_678_124)" stroke-width="4"/>
<defs>
<linearGradient id="paint0_linear_678_124" x1="64.0001" y1="118.872" x2="64.0001" y2="10" gradientUnits="userSpaceOnUse">
<stop stop-color="#5570FF"/>
<stop offset="1" stop-color="#4DD3FF"/>
</linearGradient>
<linearGradient id="paint1_linear_678_124" x1="64.0001" y1="118.872" x2="64.0001" y2="10" gradientUnits="userSpaceOnUse">
<stop stop-color="#5570FF"/>
<stop offset="1" stop-color="#4DD3FF"/>
</linearGradient>
</defs>
</svg>
