<svg width="128" height="128" viewBox="0 0 128 128" fill="none" xmlns="http://www.w3.org/2000/svg">
<path fill-rule="evenodd" clip-rule="evenodd" d="M118.419 6.58034C112.98 1.14023 104.172 1.13955 98.7317 6.58031C96.4658 8.84614 81.4216 23.8902 77.9659 27.346H18.1054C15.562 27.346 13.5 29.4078 13.5 31.9513V106.895C13.5 109.438 15.5619 111.5 18.1054 111.5H93.0485C95.5922 111.5 97.654 109.438 97.654 106.895V47.0341L118.419 26.2686C123.859 20.8285 123.86 12.0212 118.419 6.58034ZM105.244 13.0933C107.086 11.2519 110.065 11.2517 111.906 13.0933C113.748 14.9349 113.748 17.9136 111.906 19.7554L108.576 23.0865L101.914 16.4244L105.244 13.0933ZM74.8682 43.4699L95.4007 22.9374L102.063 29.5993L81.5301 50.1319C74.732 56.9298 66.7721 62.6098 58.1303 66.8698C62.3902 58.2279 68.0701 50.2678 74.8682 43.4699ZM22.7108 102.289V36.5564H68.7555L68.3552 36.9568C58.7819 46.5301 51.2236 58.1813 46.3561 70.8212H30.5269C27.9835 70.8212 25.9215 72.883 25.9215 75.4265C25.9215 77.9711 27.9847 80.0298 30.5269 80.0298H49.5736C50.0859 80.0298 50.6286 79.9342 51.0786 79.7787C64.9123 74.9934 77.6925 66.995 88.0429 56.6446L88.4433 56.2444V102.289H22.7108Z" fill="url(#paint0_linear_637_171)" stroke="url(#paint1_linear_637_171)" stroke-width="3"/>
<defs>
<linearGradient id="paint0_linear_637_171" x1="35.5" y1="96.5" x2="93" y2="34" gradientUnits="userSpaceOnUse">
<stop stop-color="#DB00FF"/>
<stop offset="0.888947" stop-color="#E65300"/>
</linearGradient>
<linearGradient id="paint1_linear_637_171" x1="35.5" y1="96.5" x2="93" y2="34" gradientUnits="userSpaceOnUse">
<stop stop-color="#DB00FF"/>
<stop offset="0.888947" stop-color="#E65300"/>
</linearGradient>
</defs>
</svg>
