<svg width="64" height="64" viewBox="0 0 64 64" fill="none" xmlns="http://www.w3.org/2000/svg">
<path d="M46.2207 13.7241C48.4603 13.7241 50.2758 15.566 50.2758 17.8381V24.1811C50.2758 25.1409 49.4977 25.919 48.5379 25.919C47.5781 25.919 46.8 25.1409 46.8 24.1811V17.8381C46.8 17.5135 46.5406 17.2504 46.2207 17.2504H39.8735C38.8998 17.2504 38.1104 16.461 38.1104 15.4872C38.1104 14.5135 38.8998 13.7241 39.8735 13.7241H46.2207Z" fill="url(#paint0_linear_637_192)"/>
<path d="M50.2758 46.1621C50.2758 48.4342 48.4603 50.276 46.2207 50.276H39.8735C38.8998 50.276 38.1104 49.4867 38.1104 48.5129C38.1104 47.5392 38.8998 46.7498 39.8735 46.7498H46.2207C46.5406 46.7498 46.8 46.4867 46.8 46.1621V39.8191C46.8 38.8592 47.5781 38.0811 48.5379 38.0811C49.4977 38.0811 50.2758 38.8592 50.2758 39.8191V46.1621Z" fill="url(#paint1_linear_637_192)"/>
<path d="M17.7798 50.276C15.5402 50.276 13.7246 48.4342 13.7246 46.1621V39.8191C13.7246 38.8592 14.5027 38.0811 15.4625 38.0811C16.4224 38.0811 17.2005 38.8592 17.2005 39.8191V46.1621C17.2005 46.4867 17.4598 46.7498 17.7798 46.7498H24.127C25.1008 46.7498 25.8901 47.5392 25.8901 48.5129C25.8901 49.4867 25.1008 50.276 24.127 50.276H17.7798Z" fill="url(#paint2_linear_637_192)"/>
<path d="M13.7246 17.8381C13.7246 15.566 15.5402 13.7241 17.7798 13.7241H24.127C25.1008 13.7241 25.8901 14.5135 25.8901 15.4872C25.8901 16.461 25.1008 17.2504 24.127 17.2504H17.7798C17.4598 17.2504 17.2005 17.5135 17.2005 17.8381V24.1811C17.2005 25.1409 16.4224 25.919 15.4625 25.919C14.5027 25.919 13.7246 25.1409 13.7246 24.1811V17.8381Z" fill="url(#paint3_linear_637_192)"/>
<path d="M46.2207 13.7241C48.4603 13.7241 50.2758 15.566 50.2758 17.8381V24.1811C50.2758 25.1409 49.4977 25.919 48.5379 25.919C47.5781 25.919 46.8 25.1409 46.8 24.1811V17.8381C46.8 17.5135 46.5406 17.2504 46.2207 17.2504H39.8735C38.8998 17.2504 38.1104 16.461 38.1104 15.4872C38.1104 14.5135 38.8998 13.7241 39.8735 13.7241H46.2207Z" stroke="url(#paint4_linear_637_192)" stroke-width="2"/>
<path d="M50.2758 46.1621C50.2758 48.4342 48.4603 50.276 46.2207 50.276H39.8735C38.8998 50.276 38.1104 49.4867 38.1104 48.5129C38.1104 47.5392 38.8998 46.7498 39.8735 46.7498H46.2207C46.5406 46.7498 46.8 46.4867 46.8 46.1621V39.8191C46.8 38.8592 47.5781 38.0811 48.5379 38.0811C49.4977 38.0811 50.2758 38.8592 50.2758 39.8191V46.1621Z" stroke="url(#paint5_linear_637_192)" stroke-width="2"/>
<path d="M17.7798 50.276C15.5402 50.276 13.7246 48.4342 13.7246 46.1621V39.8191C13.7246 38.8592 14.5027 38.0811 15.4625 38.0811C16.4224 38.0811 17.2005 38.8592 17.2005 39.8191V46.1621C17.2005 46.4867 17.4598 46.7498 17.7798 46.7498H24.127C25.1008 46.7498 25.8901 47.5392 25.8901 48.5129C25.8901 49.4867 25.1008 50.276 24.127 50.276H17.7798Z" stroke="url(#paint6_linear_637_192)" stroke-width="2"/>
<path d="M13.7246 17.8381C13.7246 15.566 15.5402 13.7241 17.7798 13.7241H24.127C25.1008 13.7241 25.8901 14.5135 25.8901 15.4872C25.8901 16.461 25.1008 17.2504 24.127 17.2504H17.7798C17.4598 17.2504 17.2005 17.5135 17.2005 17.8381V24.1811C17.2005 25.1409 16.4224 25.919 15.4625 25.919C14.5027 25.919 13.7246 25.1409 13.7246 24.1811V17.8381Z" stroke="url(#paint7_linear_637_192)" stroke-width="2"/>
<path d="M50.5714 6H13.4286C9.32588 6 6 9.32588 6 13.4286V50.5714C6 54.6741 9.32588 58 13.4286 58H50.5714C54.6741 58 58 54.6741 58 50.5714V13.4286C58 9.32588 54.6741 6 50.5714 6Z" stroke="url(#paint8_linear_637_192)" stroke-width="7"/>
<defs>
<linearGradient id="paint0_linear_637_192" x1="30.0001" y1="54.2758" x2="30.0001" y2="13.7241" gradientUnits="userSpaceOnUse">
<stop stop-color="#5570FF"/>
<stop offset="1" stop-color="#4DD3FF"/>
</linearGradient>
<linearGradient id="paint1_linear_637_192" x1="30.0001" y1="50.276" x2="30.0001" y2="9.72425" gradientUnits="userSpaceOnUse">
<stop stop-color="#5570FF"/>
<stop offset="1" stop-color="#4DD3FF"/>
</linearGradient>
<linearGradient id="paint2_linear_637_192" x1="34.0005" y1="50.276" x2="34.0005" y2="9.72425" gradientUnits="userSpaceOnUse">
<stop stop-color="#5570FF"/>
<stop offset="1" stop-color="#4DD3FF"/>
</linearGradient>
<linearGradient id="paint3_linear_637_192" x1="34.0005" y1="54.2758" x2="34.0005" y2="13.7241" gradientUnits="userSpaceOnUse">
<stop stop-color="#5570FF"/>
<stop offset="1" stop-color="#4DD3FF"/>
</linearGradient>
<linearGradient id="paint4_linear_637_192" x1="30.0001" y1="54.2758" x2="30.0001" y2="13.7241" gradientUnits="userSpaceOnUse">
<stop stop-color="#5570FF"/>
<stop offset="1" stop-color="#4DD3FF"/>
</linearGradient>
<linearGradient id="paint5_linear_637_192" x1="30.0001" y1="50.276" x2="30.0001" y2="9.72425" gradientUnits="userSpaceOnUse">
<stop stop-color="#5570FF"/>
<stop offset="1" stop-color="#4DD3FF"/>
</linearGradient>
<linearGradient id="paint6_linear_637_192" x1="34.0005" y1="50.276" x2="34.0005" y2="9.72425" gradientUnits="userSpaceOnUse">
<stop stop-color="#5570FF"/>
<stop offset="1" stop-color="#4DD3FF"/>
</linearGradient>
<linearGradient id="paint7_linear_637_192" x1="34.0005" y1="54.2758" x2="34.0005" y2="13.7241" gradientUnits="userSpaceOnUse">
<stop stop-color="#5570FF"/>
<stop offset="1" stop-color="#4DD3FF"/>
</linearGradient>
<linearGradient id="paint8_linear_637_192" x1="32" y1="58" x2="32" y2="6" gradientUnits="userSpaceOnUse">
<stop stop-color="#5570FF"/>
<stop offset="1" stop-color="#4DD3FF"/>
</linearGradient>
</defs>
</svg>
