<svg width="128" height="128" viewBox="0 0 128 128" fill="none" xmlns="http://www.w3.org/2000/svg">
<path d="M118.602 19.7969H106.016C103.406 17.7127 96.2283 13 84.3906 13C74.0695 13 67.3134 16.5892 64 18.8979C60.6866 16.5892 53.9305 13 43.6094 13C31.7717 13 24.594 17.7127 21.9843 19.7969H9.39844C7.52001 19.7969 6 21.3168 6 23.1953V104.758C6 106.636 7.52001 108.156 9.39844 108.156H54.3854C55.7892 112.112 59.5693 114.953 64 114.953C68.4307 114.953 72.2106 112.112 73.6147 108.156H118.602C120.48 108.156 122 106.636 122 104.758V23.1953C122 21.3168 120.48 19.7969 118.602 19.7969ZM67.3984 24.7783C69.5623 23.1622 75.1777 19.7969 84.3906 19.7969C93.677 19.7969 99.2568 23.1869 101.383 24.7882V84.8315C97.5757 82.8932 91.9193 80.9688 84.3906 80.9688C76.8735 80.9688 71.2051 82.887 67.3984 84.8219V24.7783ZM26.6172 24.7882C28.7432 23.1869 34.323 19.7969 43.6094 19.7969C52.9125 19.7969 58.4934 23.1994 60.6016 24.7867V84.8315C56.7949 82.8932 51.138 80.9688 43.6094 80.9688C36.0922 80.9688 30.4239 82.887 26.6172 84.8219V24.7882ZM115.203 101.359H70.7969C68.9184 101.359 67.3984 102.879 67.3984 104.758C67.3984 106.633 65.875 108.156 64 108.156C62.125 108.156 60.6016 106.633 60.6016 104.758C60.6016 102.879 59.0816 101.359 57.2031 101.359H12.7969V26.5938H19.8203V91.1641C19.8203 92.5282 20.6465 93.7528 21.9044 94.2838C23.1623 94.8181 24.6291 94.536 25.6015 93.5869C25.8473 93.3479 31.7447 87.7656 43.6094 87.7656C55.474 87.7656 61.3714 93.3479 61.617 93.5867C62.971 94.9205 65.1952 94.7027 66.3379 93.61C66.3508 93.598 66.3703 93.5989 66.3827 93.5867C66.6286 93.3479 72.526 87.7656 84.3906 87.7656C96.2408 87.7656 102.136 93.332 102.375 93.564C103.291 94.4828 104.738 94.8561 106.079 94.3012C107.359 93.7718 108.18 92.5174 108.18 91.1641V26.5938H115.203V101.359Z" fill="url(#paint0_linear_625_181)" stroke="url(#paint1_linear_625_181)" stroke-width="3"/>
<defs>
<linearGradient id="paint0_linear_625_181" x1="64" y1="114.953" x2="64" y2="13" gradientUnits="userSpaceOnUse">
<stop stop-color="#FD5900"/>
<stop offset="1" stop-color="#FFDE00"/>
</linearGradient>
<linearGradient id="paint1_linear_625_181" x1="64" y1="114.953" x2="64" y2="13" gradientUnits="userSpaceOnUse">
<stop stop-color="#FD5900"/>
<stop offset="1" stop-color="#FFDE00"/>
</linearGradient>
</defs>
</svg>
