<svg width="128" height="128" viewBox="0 0 128 128" fill="none" xmlns="http://www.w3.org/2000/svg">
<path d="M40.2108 19.5938C34.5892 19.5938 30.0155 24.1673 30.0155 29.789C30.0155 31.6658 31.5371 33.1874 33.414 33.1874C35.2908 33.1874 36.8124 31.6658 36.8124 29.789C36.8124 27.9151 38.337 26.3906 40.2108 26.3906C42.0848 26.3906 43.6093 27.9151 43.6093 29.789C43.6093 30.8813 43.1036 31.88 42.2216 32.5293C38.8347 35.0233 36.8124 39.0208 36.8124 43.2223V43.3827C36.8124 45.2596 38.334 46.7812 40.2108 46.7812C42.0877 46.7812 43.6093 45.2596 43.6093 43.3827V43.2223C43.6093 41.1722 44.5971 39.2208 46.2515 38.0026C48.8531 36.0874 50.4062 33.0169 50.4062 29.789C50.4062 24.1676 45.8326 19.5938 40.2108 19.5938ZM40.2108 53.8046C38.334 53.8046 36.8124 55.3262 36.8124 57.203C36.8124 59.0799 38.334 60.6015 40.2108 60.6015C42.0877 60.6015 43.6093 59.0799 43.6093 57.203C43.6093 55.3262 42.088 53.8046 40.2108 53.8046ZM74.1952 39.9843C74.1952 21.2454 58.9498 6 40.2108 6C21.4674 6 6 21.2105 6 39.9843C6 47.9094 8.76858 55.6524 13.685 61.7041L6.99552 68.3939C6.02356 69.3658 5.73288 70.8276 6.25873 72.0974C6.78481 73.3674 8.02388 74.1952 9.39843 74.1952H40.2108C58.9571 74.1952 74.1952 58.7583 74.1952 39.9843ZM40.2108 67.3983H17.6032L20.7698 64.2315C22.0964 62.9049 22.0968 60.7525 20.7698 59.4253C15.7029 54.3588 12.7969 47.2728 12.7969 39.9843C12.7969 24.9932 25.0947 12.7969 40.2108 12.7969C55.202 12.7969 67.3983 24.9932 67.3983 39.9843C67.3983 55.1005 55.2022 67.3983 40.2108 67.3983ZM115.306 110.5C119.591 105.094 122 98.2254 122 91.1873C122 74.3223 108.178 60.6015 91.1873 60.6015C74.3223 60.6015 60.6015 74.3223 60.6015 91.1873C60.6015 108.178 74.3223 122 91.1873 122H118.602C119.976 122 121.215 121.172 121.741 119.902C122.266 118.632 121.976 117.171 121.004 116.198L115.306 110.5ZM108.236 113.042L110.397 115.203H91.1873C78.0701 115.203 67.3983 104.43 67.3983 91.1876C67.3983 78.0703 78.0701 67.3985 91.1873 67.3985C104.43 67.3985 115.203 78.0703 115.203 91.1876C115.203 97.5938 112.664 103.808 108.235 108.236C106.908 109.563 106.908 111.714 108.236 113.042ZM94.311 76.2551C93.7756 75.0056 92.547 74.1952 91.1873 74.1952C89.8278 74.1952 88.5993 75.0054 88.0637 76.2549C87.09 78.5268 78.8798 97.6835 77.8684 100.044C77.1292 101.769 77.9282 103.767 79.6533 104.507C81.379 105.246 83.3764 104.447 84.1157 102.721L86.1458 97.9844H96.2288L98.259 102.721C98.9985 104.447 100.996 105.246 102.721 104.507C104.447 103.767 105.246 101.769 104.507 100.044C103.495 97.6862 95.2816 78.5196 94.311 76.2551ZM89.059 91.1873L91.1873 86.2211L93.3159 91.1873H89.059Z" fill="url(#paint0_linear_678_276)" stroke="url(#paint1_linear_678_276)" stroke-width="2"/>
<defs>
<linearGradient id="paint0_linear_678_276" x1="63.9999" y1="122" x2="63.9999" y2="6" gradientUnits="userSpaceOnUse">
<stop stop-color="#FD2E00"/>
<stop offset="1" stop-color="#FF9900"/>
</linearGradient>
<linearGradient id="paint1_linear_678_276" x1="63.9999" y1="122" x2="63.9999" y2="6" gradientUnits="userSpaceOnUse">
<stop stop-color="#FD2E00"/>
<stop offset="1" stop-color="#FF9900"/>
</linearGradient>
</defs>
</svg>
