<svg width="36" height="36" viewBox="0 0 36 36" fill="none" xmlns="http://www.w3.org/2000/svg">
<path d="M8.92004 14C9.51339 14 10.0934 13.8241 10.5868 13.4944C11.0801 13.1648 11.4646 12.6962 11.6917 12.1481C11.9187 11.5999 11.9782 10.9967 11.8624 10.4147C11.7466 9.83279 11.4609 9.29824 11.0414 8.87868C10.6218 8.45912 10.0873 8.1734 9.50531 8.05765C8.92337 7.94189 8.32017 8.0013 7.77199 8.22836C7.22382 8.45543 6.75528 8.83994 6.42563 9.33329C6.09599 9.82664 5.92004 10.4067 5.92004 11C5.92004 11.7957 6.23611 12.5587 6.79872 13.1213C7.36133 13.6839 8.12439 14 8.92004 14V14ZM8.92004 9.4C9.23691 9.39802 9.54723 9.49017 9.81166 9.66478C10.0761 9.83938 10.2827 10.0886 10.4054 10.3807C10.528 10.6729 10.5611 10.9949 10.5005 11.306C10.4399 11.617 10.2883 11.903 10.065 12.1278C9.8416 12.3526 9.55652 12.5059 9.24588 12.5685C8.93525 12.631 8.61303 12.5999 8.32008 12.4791C8.02714 12.3583 7.77666 12.1533 7.6004 11.8899C7.42415 11.6266 7.33005 11.3169 7.33004 11C7.33267 10.5791 7.50103 10.1762 7.79864 9.8786C8.09626 9.58098 8.49916 9.41262 8.92004 9.41V9.4Z" fill="url(#paint0_linear)" stroke="url(#paint1_linear)"/>
<path fill-rule="evenodd" clip-rule="evenodd" d="M4 4H32C32.5304 4 33.0391 4.21071 33.4142 4.58579C33.7893 4.96086 34 5.46957 34 6V30C34 30.5304 33.7893 31.0391 33.4142 31.4142C33.0391 31.7893 32.5304 32 32 32H4C3.46957 32 2.96086 31.7893 2.58579 31.4142C2.21071 31.0391 2 30.5304 2 30V6C2 5.46957 2.21071 4.96086 2.58579 4.58579C2.96086 4.21071 3.46957 4 4 4ZM4 6V30H32V6H4ZM17.38 20.7699L22.78 15.3699C22.9674 15.1836 23.2209 15.0791 23.485 15.0791C23.7492 15.0791 24.0027 15.1836 24.19 15.3699L30 21.1799V23.9999L23.45 17.4799L15 25.9299H12.25L16 22.1799L12.71 18.9399L5.92004 25.7299V22.8999L11.97 16.7699C12.1574 16.5836 12.4109 16.4791 12.675 16.4791C12.9392 16.4791 13.1927 16.5836 13.38 16.7699L17.38 20.7699Z" fill="url(#paint2_linear)"/>
<path d="M33.4142 4.58579L33.0607 4.93934L33.0607 4.93934L33.4142 4.58579ZM2.58579 31.4142L2.93934 31.0607L2.93934 31.0607L2.58579 31.4142ZM2.58579 4.58579L2.93934 4.93934L2.93934 4.93934L2.58579 4.58579ZM4 30H3.5V30.5H4V30ZM4 6V5.5H3.5V6H4ZM32 30V30.5H32.5V30H32ZM32 6H32.5V5.5H32V6ZM22.78 15.3699L22.4275 15.0153L22.4265 15.0163L22.78 15.3699ZM17.38 20.7699L17.0265 21.1234L17.38 21.477L17.7336 21.1234L17.38 20.7699ZM24.19 15.3699L24.5436 15.0163L24.5425 15.0153L24.19 15.3699ZM30 21.1799H30.5V20.9728L30.3536 20.8263L30 21.1799ZM30 23.9999L29.6473 24.3543L30.5 25.2031V23.9999H30ZM23.45 17.4799L23.8028 17.1255L23.4492 16.7736L23.0965 17.1263L23.45 17.4799ZM15 25.9299V26.4299H15.2072L15.3536 26.2834L15 25.9299ZM12.25 25.9299L11.8965 25.5763L11.0429 26.4299H12.25V25.9299ZM16 22.1799L16.3536 22.5334L16.7099 22.1772L16.3509 21.8236L16 22.1799ZM12.71 18.9399L13.0609 18.5836L12.7073 18.2355L12.3565 18.5863L12.71 18.9399ZM5.92004 25.7299H5.42004V26.937L6.2736 26.0834L5.92004 25.7299ZM5.92004 22.8999L5.56418 22.5487L5.42004 22.6947V22.8999H5.92004ZM11.97 16.7699L11.6175 16.4153L11.6142 16.4187L11.97 16.7699ZM13.38 16.7699L13.7336 16.4163L13.7325 16.4153L13.38 16.7699ZM32 3.5H4V4.5H32V3.5ZM33.7678 4.23223C33.2989 3.76339 32.663 3.5 32 3.5V4.5C32.3978 4.5 32.7794 4.65804 33.0607 4.93934L33.7678 4.23223ZM34.5 6C34.5 5.33696 34.2366 4.70107 33.7678 4.23223L33.0607 4.93934C33.342 5.22064 33.5 5.60217 33.5 6H34.5ZM34.5 30V6H33.5V30H34.5ZM33.7678 31.7678C34.2366 31.2989 34.5 30.663 34.5 30H33.5C33.5 30.3978 33.342 30.7794 33.0607 31.0607L33.7678 31.7678ZM32 32.5C32.663 32.5 33.2989 32.2366 33.7678 31.7678L33.0607 31.0607C32.7794 31.342 32.3978 31.5 32 31.5V32.5ZM4 32.5H32V31.5H4V32.5ZM2.23223 31.7678C2.70107 32.2366 3.33696 32.5 4 32.5V31.5C3.60218 31.5 3.22064 31.342 2.93934 31.0607L2.23223 31.7678ZM1.5 30C1.5 30.663 1.76339 31.2989 2.23223 31.7678L2.93934 31.0607C2.65804 30.7794 2.5 30.3978 2.5 30H1.5ZM1.5 6V30H2.5V6H1.5ZM2.23223 4.23223C1.76339 4.70107 1.5 5.33696 1.5 6H2.5C2.5 5.60218 2.65804 5.22064 2.93934 4.93934L2.23223 4.23223ZM4 3.5C3.33696 3.5 2.70107 3.76339 2.23223 4.23223L2.93934 4.93934C3.22064 4.65804 3.60218 4.5 4 4.5V3.5ZM4.5 30V6H3.5V30H4.5ZM32 29.5H4V30.5H32V29.5ZM31.5 6V30H32.5V6H31.5ZM4 6.5H32V5.5H4V6.5ZM22.4265 15.0163L17.0265 20.4163L17.7336 21.1234L23.1336 15.7234L22.4265 15.0163ZM23.485 14.5791C23.0888 14.5791 22.7086 14.7359 22.4275 15.0153L23.1325 15.7245C23.2262 15.6314 23.353 15.5791 23.485 15.5791V14.5791ZM24.5425 15.0153C24.2615 14.7359 23.8813 14.5791 23.485 14.5791V15.5791C23.6171 15.5791 23.7439 15.6314 23.8375 15.7245L24.5425 15.0153ZM30.3536 20.8263L24.5436 15.0163L23.8365 15.7234L29.6465 21.5334L30.3536 20.8263ZM30.5 23.9999V21.1799H29.5V23.9999H30.5ZM23.0973 17.8343L29.6473 24.3543L30.3528 23.6455L23.8028 17.1255L23.0973 17.8343ZM15.3536 26.2834L23.8036 17.8334L23.0965 17.1263L14.6465 25.5763L15.3536 26.2834ZM12.25 26.4299H15V25.4299H12.25V26.4299ZM15.6465 21.8263L11.8965 25.5763L12.6036 26.2834L16.3536 22.5334L15.6465 21.8263ZM12.3592 19.2961L15.6492 22.5361L16.3509 21.8236L13.0609 18.5836L12.3592 19.2961ZM6.2736 26.0834L13.0636 19.2934L12.3565 18.5863L5.56649 25.3763L6.2736 26.0834ZM5.42004 22.8999V25.7299H6.42004V22.8999H5.42004ZM11.6142 16.4187L5.56418 22.5487L6.27591 23.2511L12.3259 17.1211L11.6142 16.4187ZM12.675 15.9791C12.2788 15.9791 11.8986 16.1359 11.6175 16.4153L12.3225 17.1245C12.4162 17.0314 12.543 16.9791 12.675 16.9791V15.9791ZM13.7325 16.4153C13.4515 16.1359 13.0713 15.9791 12.675 15.9791V16.9791C12.8071 16.9791 12.9339 17.0314 13.0275 17.1245L13.7325 16.4153ZM17.7336 20.4163L13.7336 16.4163L13.0265 17.1234L17.0265 21.1234L17.7336 20.4163Z" fill="url(#paint3_linear)"/>
<defs>
<linearGradient id="paint0_linear" x1="8.92004" y1="14" x2="8.92004" y2="8" gradientUnits="userSpaceOnUse">
<stop stop-color="#FD5900"/>
<stop offset="1" stop-color="#FFDE00"/>
</linearGradient>
<linearGradient id="paint1_linear" x1="8.92004" y1="14" x2="8.92004" y2="8" gradientUnits="userSpaceOnUse">
<stop stop-color="#FD5900"/>
<stop offset="1" stop-color="#FFDE00"/>
</linearGradient>
<linearGradient id="paint2_linear" x1="2.00469" y1="17.5851" x2="34.0053" y2="17.5851" gradientUnits="userSpaceOnUse">
<stop stop-color="#A93AFF"/>
<stop offset="1" stop-color="#FF1192"/>
</linearGradient>
<linearGradient id="paint3_linear" x1="2.00469" y1="17.5851" x2="34.0053" y2="17.5851" gradientUnits="userSpaceOnUse">
<stop stop-color="#A93AFF"/>
<stop offset="1" stop-color="#FF1192"/>
</linearGradient>
</defs>
</svg>
