<svg id="Capa_1" enable-background="new 0 0 512 512" height="512" viewBox="0 0 512 512" width="512" xmlns="http://www.w3.org/2000/svg" xmlns:xlink="http://www.w3.org/1999/xlink"><linearGradient id="SVGID_1_" gradientUnits="userSpaceOnUse" x1="256" x2="256" y1="512" y2="0"><stop offset="0" stop-color="#fd3a84"/><stop offset="1" stop-color="#ffa68d"/></linearGradient><g><g><path d="m253 187-45-60c-2.833-3.777-7.279-6-12-6s-9.167 2.223-12 6l-45 60c-4 5.333-4 12.667 0 18l45 60c2.833 3.777 7.279 6 12 6s9.167-2.223 12-6l45-60c4-5.333 4-12.667 0-18zm-57 44-26.25-35 26.25-35 26.25 35zm60 70c-8.284 0-15 6.716-15 15s6.716 15 15 15 15-6.716 15-15-6.716-15-15-15zm-105-225c0-8.284-6.716-15-15-15s-15 6.716-15 15 6.716 15 15 15 15-6.716 15-15zm285 45h-45v-45c0-8.284-6.716-15-15-15h-45v-46c0-8.284-6.716-15-15-15h-240c-8.284 0-15 6.716-15 15v362c0 8.284 6.716 15 15 15h45v45c0 8.284 6.716 15 15 15h45v45c0 8.284 6.716 15 15 15h240c8.284 0 15-6.716 15-15v-361c0-8.284-6.716-15-15-15zm-345 241v-332h210v332zm60 60v-30h165c8.284 0 15-6.716 15-15v-286h30v331zm270 60h-210v-30h165c8.284 0 15-6.716 15-15v-286h30z" fill="url(#SVGID_1_)"/></g></g></svg>