<svg width="24" height="24" viewBox="0 0 24 24" fill="none" xmlns="http://www.w3.org/2000/svg">
<path fill-rule="evenodd" clip-rule="evenodd" d="M10.3009 1.55908C10.918 1.17337 11.5693 1 12.3092 1C13.9139 1 14.9277 1.87089 15.9073 3.04546C15.9324 3.07562 15.9559 3.1071 15.9777 3.13978C18.9653 7.62058 20.4646 10.9933 21.5838 13.7915C22.1317 15.1612 22.625 16.5774 22.625 17.9125C22.625 19.3587 22.0495 20.6473 20.6725 21.68C19.4092 22.6274 18.2198 23 17.125 23C16.0508 23 15.1828 22.64 14.5706 22.3339C13.6213 21.8592 13.0113 21.3663 12.3125 20.6963C11.6137 21.3663 11.0037 21.8592 10.0544 22.3339C9.44217 22.64 8.57424 23 7.5 23C6.40516 23 5.21576 22.6274 3.9525 21.68C2.57551 20.6473 2 19.3587 2 17.9125C2 16.5774 2.49329 15.1612 3.04118 13.7915C4.16045 10.9933 5.6597 7.62058 8.64728 3.13978C8.66887 3.1074 8.69216 3.07618 8.71706 3.04627C9.2183 2.44409 9.72012 1.92205 10.3009 1.55908ZM13.7725 19.0471C14.4062 18.2039 15.0279 17.336 15.5285 16.4966C16.1636 15.4317 16.7125 14.2406 16.7125 13.1C16.7125 11.8304 16.3944 10.6762 15.5653 9.84718C14.7363 9.01814 13.5821 8.7 12.3125 8.7C11.0429 8.7 9.88873 9.01814 9.05968 9.84718C8.23064 10.6762 7.9125 11.8304 7.9125 13.1C7.9125 14.2406 8.46137 15.4317 9.09654 16.4966C9.59714 17.336 10.2188 18.2039 10.8525 19.0471C10.1973 19.6803 9.77589 20.0135 9.07057 20.3661C8.58283 20.61 8.07577 20.8 7.5 20.8C6.94484 20.8 6.20924 20.6226 5.2725 19.92C4.44949 19.3027 4.2 18.6663 4.2 17.9125C4.2 17.0476 4.53171 15.9888 5.08382 14.6085C6.16044 11.917 7.58698 8.704 10.4449 4.40955C10.8854 3.88466 11.1971 3.59328 11.4669 3.42467C11.7077 3.27413 11.9491 3.2 12.3092 3.2C12.9023 3.2 13.3493 3.42246 14.1805 4.41008C17.0381 8.70426 18.4646 11.9171 19.5412 14.6085C20.0933 15.9888 20.425 17.0476 20.425 17.9125C20.425 18.6663 20.1755 19.3027 19.3525 19.92C18.4158 20.6226 17.6802 20.8 17.125 20.8C16.5492 20.8 16.0422 20.61 15.5544 20.3661C14.8491 20.0135 14.4277 19.6803 13.7725 19.0471ZM12.3125 17.3242C12.8109 16.6486 13.2673 15.993 13.639 15.3697C14.2397 14.3626 14.5125 13.6094 14.5125 13.1C14.5125 12.1696 14.2806 11.6738 14.0097 11.4028C13.7387 11.1319 13.2429 10.9 12.3125 10.9C11.3821 10.9 10.8863 11.1319 10.6153 11.4028C10.3444 11.6738 10.1125 12.1696 10.1125 13.1C10.1125 13.6094 10.3853 14.3626 10.986 15.3697C11.3577 15.993 11.8141 16.6486 12.3125 17.3242Z" fill="url(#paint0_linear)"/>
<defs>
<linearGradient id="paint0_linear" x1="12.3125" y1="23" x2="12.5" y2="1" gradientUnits="userSpaceOnUse">
<stop stop-color="#C60024"/>
<stop offset="1" stop-color="#FF867E"/>
</linearGradient>
</defs>
</svg>
