<svg width="48" height="48" viewBox="0 0 48 48" fill="none" xmlns="http://www.w3.org/2000/svg">
<path fill-rule="evenodd" clip-rule="evenodd" d="M9.60254 15.9399C11.4529 11.3337 15.9297 8 21.1542 8C25.6579 8 28.9031 10.6781 31.9624 14.2824C32.6126 14.5111 33.1788 14.847 33.7622 15.1931C33.7919 15.2107 33.8216 15.2283 33.8514 15.2459C33.9317 15.2399 34.0067 15.2174 34.0815 15.1948C34.1636 15.1701 34.2455 15.1454 34.3343 15.1426L34.4241 15.1403H34.5117C41.3601 15.1403 47 20.8362 47 27.669C47 34.5015 41.3606 40.2 34.5117 40.2H13.4883C6.6399 40.2 1 34.5019 1 27.669C1 22.2075 4.65907 17.621 9.60254 15.9399ZM14.4156 20.5303C14.4156 16.7857 17.4325 13.75 21.1539 13.75L21.1542 13.7502C24.4896 13.7502 27.2587 16.1889 27.7973 19.3909C27.9357 19.3786 28.0779 19.3716 28.2241 19.3644C28.2819 19.3615 28.3404 19.3586 28.3995 19.3554C30.0401 19.3554 31.5015 20.1272 32.4448 21.3296C33.0783 21.0681 33.7701 20.9123 34.5124 20.8893C38.2339 20.8893 41.2507 23.925 41.2507 27.6696C41.2507 31.414 38.2343 34.45 34.5117 34.45H13.4886C9.76708 34.45 6.75028 31.4144 6.75028 27.6697C6.75028 23.9251 9.76719 20.8895 13.4886 20.8895C13.8245 20.924 14.1451 20.9734 14.4517 21.0354C14.433 20.8697 14.4207 20.7013 14.4156 20.5303Z" fill="url(#paint0_linear)"/>
<defs>
<linearGradient id="paint0_linear" x1="24" y1="40.2" x2="24" y2="8" gradientUnits="userSpaceOnUse">
<stop stop-color="#02AA93"/>
<stop offset="1" stop-color="#67FF80"/>
</linearGradient>
</defs>
</svg>
