<svg width="128" height="128" viewBox="0 0 128 128" fill="none" xmlns="http://www.w3.org/2000/svg">
<path fill-rule="evenodd" clip-rule="evenodd" d="M23.0508 14.0177C21.0756 14.0177 19.0927 14.1643 17.1873 14.6038C9.19385 16.3111 3.05931 22.6562 3.01283 29.4726C2.99734 52.6232 2.99734 75.7737 3.00509 98.9183C3.00509 107.047 11.6802 114.252 21.5482 114.411C41.5731 114.451 61.6019 114.444 81.6315 114.436C89.7252 114.433 97.819 114.429 105.913 114.429C115.951 114.488 125.068 107.212 124.975 98.9049C124.998 85.3836 124.994 71.8621 124.99 58.3407C124.987 48.941 124.984 39.5413 124.991 30.1416C125.254 23.6309 119.971 17.3431 112.574 15.0815C109.252 13.9794 105.612 13.9604 102.087 14.0177C93.3064 14.0177 84.5249 14.0184 75.7432 14.0191C58.1787 14.0205 40.613 14.0219 23.0508 14.0177ZM12.3153 29.4599C12.2147 25.7077 16.0178 22.4331 20.3708 21.7132C21.3034 21.5662 22.2517 21.5621 23.1985 21.558C23.3999 21.5572 23.6011 21.5563 23.8022 21.5541C35.9543 21.5626 48.1064 21.561 60.2579 21.5594C75.4469 21.5574 90.6349 21.5555 105.82 21.5732C111.219 21.5732 116.084 25.6057 115.812 30.0843C115.851 52.8207 115.836 75.5572 115.82 98.294C116.075 102.759 111.335 106.856 105.898 106.824C83.099 106.87 60.2948 106.862 37.4939 106.854C32.4547 106.852 27.4157 106.85 22.3769 106.849C17.1873 106.97 12.1914 103.294 12.3076 98.9497C12.3107 89.6902 12.3088 80.4306 12.307 71.1711C12.3042 57.2673 12.3014 43.3636 12.3153 29.4599ZM68.7814 82.0142C67.9669 82.0226 67.1375 82.0313 66.3882 82.4365C64.9782 83.1257 64.017 84.8794 64.0042 86.6941C63.8952 89.2902 65.946 91.8171 68.1506 91.5568C74.5713 91.5783 80.9952 91.5734 87.4179 91.5686C90.1691 91.5665 92.92 91.5645 95.6703 91.5645C97.9967 91.932 100.17 89.3896 99.9895 86.6175C99.9576 83.9986 97.8871 81.8163 95.7151 82.0229C91.1757 81.9992 86.6346 82.0042 82.0937 82.0092C77.8705 82.0138 73.6475 82.0185 69.426 82C69.2134 82.0097 68.9979 82.0119 68.7814 82.0142Z" fill="url(#paint0_linear)"/>
<path d="M17.1873 14.6036L17.3962 15.5816L17.4042 15.5799L17.4121 15.578L17.1873 14.6036ZM23.0508 14.0175L23.051 13.0175H23.0508V14.0175ZM3.01283 29.4724L2.01284 29.4656L2.01283 29.4718L3.01283 29.4724ZM3.00509 98.9181H4.00509V98.9177L3.00509 98.9181ZM21.5482 114.411L21.5321 115.411H21.5462L21.5482 114.411ZM81.6315 114.436L81.6319 115.436L81.6315 114.436ZM105.913 114.429L105.919 113.429H105.913V114.429ZM124.975 98.9047L123.975 98.903V98.9159L124.975 98.9047ZM124.99 58.3405L123.99 58.3408L124.99 58.3405ZM124.991 30.1414L123.991 30.101V30.1208V30.1407L124.991 30.1414ZM112.574 15.0813L112.259 16.0305L112.271 16.0342L112.282 16.0377L112.574 15.0813ZM102.087 14.0175V15.0175H102.095L102.103 15.0173L102.087 14.0175ZM75.7432 14.0189V15.0189V14.0189ZM20.3708 21.713L20.215 20.7252L20.2076 20.7264L20.3708 21.713ZM12.3153 29.4597L13.3153 29.4607V29.4468L13.315 29.4329L12.3153 29.4597ZM23.1985 21.5578L23.2028 22.5578L23.1985 21.5578ZM23.8022 21.5539L23.8029 20.5538L23.791 20.5539L23.8022 21.5539ZM60.2579 21.5592L60.258 22.5592L60.2579 21.5592ZM105.82 21.573L105.819 22.573H105.82V21.573ZM115.812 30.0841L114.814 30.0235L114.812 30.0546V30.0858L115.812 30.0841ZM115.82 98.2938L114.82 98.2931V98.322L114.821 98.3509L115.82 98.2938ZM105.898 106.824L105.903 105.824H105.895L105.898 106.824ZM37.4939 106.854L37.4943 105.854L37.4939 106.854ZM22.3769 106.849L22.3772 105.849H22.3654L22.3536 105.85L22.3769 106.849ZM12.3076 98.9495L13.3073 98.9763L13.3076 98.9631V98.9499L12.3076 98.9495ZM12.307 71.1709L11.307 71.1711L12.307 71.1709ZM66.3882 82.4363L66.8274 83.3348L66.8459 83.3257L66.864 83.3159L66.3882 82.4363ZM68.7814 82.014L68.771 81.014L68.7814 82.014ZM64.0042 86.6939L65.0033 86.7359L65.004 86.7185L65.0041 86.701L64.0042 86.6939ZM68.1506 91.5566L68.154 90.5566L68.0935 90.5564L68.0334 90.5635L68.1506 91.5566ZM87.4179 91.5684L87.4187 92.5684L87.4179 91.5684ZM95.6703 91.5643L95.8264 90.5765L95.7488 90.5643H95.6703V91.5643ZM99.9895 86.6173L98.9896 86.6295L98.9899 86.6558L98.9916 86.6821L99.9895 86.6173ZM95.7151 82.0227L95.7099 83.0227L95.76 83.023L95.8099 83.0183L95.7151 82.0227ZM82.0937 82.009L82.0926 81.009L82.0937 82.009ZM69.426 81.9998L69.4304 80.9998L69.4054 80.9997L69.3805 81.0008L69.426 81.9998ZM17.4121 15.578C19.2197 15.161 21.1217 15.0175 23.0508 15.0175V13.0175C21.0296 13.0175 18.9658 13.1671 16.9625 13.6292L17.4121 15.578ZM4.01281 29.4793C4.0552 23.2619 9.72126 17.2208 17.3962 15.5816L16.9785 13.6257C8.66644 15.401 2.06341 22.05 2.01286 29.4656L4.01281 29.4793ZM4.00509 98.9177C3.99734 75.7734 3.99734 52.6232 4.01283 29.4731L2.01283 29.4718C1.99734 52.6228 1.99734 75.7737 2.00509 98.9184L4.00509 98.9177ZM21.5643 113.412C16.863 113.336 12.4466 111.579 9.21661 108.885C5.982 106.188 4.00509 102.615 4.00509 98.9181H2.00509C2.00509 103.349 4.36574 107.444 7.93568 110.421C11.5102 113.402 16.3654 115.328 21.5321 115.411L21.5643 113.412ZM81.6312 113.436C61.6013 113.444 41.5737 113.451 21.5502 113.411L21.5462 115.411C41.5725 115.451 61.6025 115.444 81.6319 115.436L81.6312 113.436ZM105.913 113.429C97.8188 113.429 89.7248 113.433 81.6312 113.436L81.6319 115.436C89.7256 115.433 97.8193 115.429 105.913 115.429V113.429ZM123.975 98.9159C124.017 102.687 121.966 106.315 118.614 109.027C115.267 111.735 110.702 113.457 105.919 113.43L105.907 115.429C111.162 115.46 116.174 113.574 119.872 110.582C123.565 107.594 126.026 103.431 125.975 98.8936L123.975 98.9159ZM123.99 58.3408C123.994 71.8624 123.998 85.3828 123.975 98.903L125.975 98.9064C125.998 85.3839 125.994 71.8615 125.99 58.3402L123.99 58.3408ZM123.991 30.1407C123.984 39.541 123.987 48.9412 123.99 58.3408L125.99 58.3402C125.987 48.9404 125.984 39.5412 125.991 30.142L123.991 30.1407ZM112.282 16.0377C119.371 18.2052 124.231 24.1651 123.991 30.101L125.99 30.1817C126.276 23.0963 120.571 16.4807 112.867 14.125L112.282 16.0377ZM102.103 15.0173C105.64 14.9598 109.119 14.9888 112.259 16.0305L112.889 14.1322C109.384 12.9697 105.583 12.9605 102.071 13.0176L102.103 15.0173ZM75.7432 15.0189C84.525 15.0182 93.3064 15.0175 102.087 15.0175V13.0175C93.3063 13.0175 84.5248 13.0182 75.7431 13.0189L75.7432 15.0189ZM23.0506 15.0175C40.613 15.0217 58.1788 15.0203 75.7432 15.0189L75.7431 13.0189C58.1786 13.0203 40.6131 13.0217 23.051 13.0175L23.0506 15.0175ZM20.2076 20.7264C17.8466 21.1169 15.625 22.1992 13.9922 23.7168C12.3609 25.2328 11.2557 27.2489 11.3157 29.4865L13.315 29.4329C13.2743 27.9183 14.0203 26.421 15.3537 25.1817C16.6855 23.944 18.542 23.0291 20.534 22.6996L20.2076 20.7264ZM23.1942 20.5578C22.2606 20.5618 21.2355 20.5643 20.215 20.7252L20.5266 22.7008C21.3712 22.5676 22.2429 22.5619 23.2028 22.5578L23.1942 20.5578ZM23.791 20.5539C23.594 20.5561 23.3961 20.557 23.1942 20.5578L23.2028 22.5578C23.4036 22.557 23.6083 22.5561 23.8133 22.5538L23.791 20.5539ZM60.2577 20.5592C48.1062 20.5608 35.9545 20.5624 23.8029 20.5539L23.8015 22.5539C35.9541 22.5624 48.1066 22.5608 60.258 22.5592L60.2577 20.5592ZM105.821 20.573C90.6353 20.5553 75.4467 20.5572 60.2577 20.5592L60.258 22.5592C75.4471 22.5572 90.6345 22.5553 105.819 22.573L105.821 20.573ZM116.81 30.1446C116.97 27.5091 115.616 25.0979 113.588 23.385C111.554 21.6682 108.761 20.573 105.82 20.573V22.573C108.278 22.573 110.617 23.4941 112.297 24.9132C113.983 26.3362 114.926 28.1805 114.814 30.0235L116.81 30.1446ZM116.82 98.2945C116.836 75.5579 116.851 52.8202 116.812 30.0824L114.812 30.0858C114.851 52.8208 114.836 75.5561 114.82 98.2931L116.82 98.2945ZM105.892 107.824C108.858 107.841 111.635 106.735 113.646 105.003C115.652 103.276 116.968 100.854 116.818 98.2367L114.821 98.3509C114.927 100.199 114 102.059 112.341 103.488C110.686 104.912 108.375 105.838 105.903 105.824L105.892 107.824ZM37.4936 107.854C60.2943 107.862 83.0996 107.87 105.9 107.824L105.895 105.824C83.0983 105.87 60.2954 105.862 37.4943 105.854L37.4936 107.854ZM22.3767 107.849C27.4154 107.85 32.4544 107.852 37.4936 107.854L37.4943 105.854C32.4551 105.852 27.416 105.85 22.3772 105.849L22.3767 107.849ZM11.308 98.9228C11.2389 101.506 12.6887 103.788 14.7433 105.367C16.8038 106.95 19.5724 107.915 22.4003 107.849L22.3536 105.85C19.9919 105.905 17.6678 105.092 15.9619 103.781C14.2502 102.466 13.2602 100.737 13.3073 98.9763L11.308 98.9228ZM11.307 71.1711C11.3088 80.4307 11.3107 89.6899 11.3076 98.9492L13.3076 98.9499C13.3107 89.69 13.3088 80.4302 13.307 71.1707L11.307 71.1711ZM11.3153 29.4587C11.3014 43.3631 11.3042 57.2674 11.307 71.1711L13.307 71.1707C13.3042 57.2668 13.3014 43.3637 13.3153 29.4607L11.3153 29.4587ZM66.864 83.3159C67.3606 83.0473 67.9353 83.0228 68.7918 83.0139L68.771 81.014C67.9985 81.0221 66.9144 81.0148 65.9125 81.5567L66.864 83.3159ZM65.0041 86.701C65.0149 85.1777 65.8308 83.8219 66.8274 83.3348L65.9491 81.5379C64.1257 82.4292 63.0191 84.5807 63.0042 86.6868L65.0041 86.701ZM68.0334 90.5635C67.3652 90.6424 66.6074 90.3067 65.976 89.5538C65.3506 88.808 64.96 87.7679 65.0033 86.7359L63.005 86.652C62.9394 88.216 63.5197 89.7374 64.4436 90.839C65.3615 91.9335 66.7314 92.7311 68.2679 92.5497L68.0334 90.5635ZM87.4172 90.5684C80.9941 90.5732 74.5723 90.5781 68.154 90.5566L68.1473 92.5566C74.5704 92.5781 80.9963 92.5732 87.4187 92.5684L87.4172 90.5684ZM95.6703 90.5643C92.9195 90.5643 90.1682 90.5663 87.4172 90.5684L87.4187 92.5684C90.1699 92.5663 92.9204 92.5643 95.6703 92.5643V90.5643ZM98.9916 86.6821C99.0639 87.795 98.6606 88.8675 98.0142 89.6132C97.3648 90.3623 96.5621 90.6928 95.8264 90.5765L95.5143 92.552C97.105 92.8033 98.5519 92.0463 99.5255 90.9232C100.502 89.7966 101.095 88.2118 100.987 86.5525L98.9916 86.6821ZM95.8099 83.0183C96.5216 82.9505 97.2937 83.2698 97.9249 83.9439C98.5525 84.6143 98.9768 85.5771 98.9896 86.6295L100.989 86.6051C100.97 85.0387 100.343 83.6008 99.3848 82.577C98.4298 81.5569 97.0807 80.8883 95.6204 81.0272L95.8099 83.0183ZM82.0948 83.009C86.6363 83.004 91.1742 82.999 95.7099 83.0227L95.7204 81.0228C91.1773 80.999 86.633 81.004 82.0926 81.009L82.0948 83.009ZM69.4216 82.9998C73.6463 83.0183 77.8721 83.0136 82.0948 83.009L82.0926 81.009C77.869 81.0136 73.6487 81.0183 69.4304 80.9998L69.4216 82.9998ZM68.7918 83.0139C69.0052 83.0117 69.2383 83.0094 69.4714 82.9988L69.3805 81.0008C69.1884 81.0096 68.9906 81.0117 68.771 81.014L68.7918 83.0139Z" fill="url(#paint1_linear)"/>
<path d="M34 46L52 64L34 82" stroke="url(#paint2_linear)" stroke-width="12" stroke-linecap="round" stroke-linejoin="round"/>
<defs>
<linearGradient id="paint0_linear" x1="64.0002" y1="114.442" x2="64.0002" y2="14" gradientUnits="userSpaceOnUse">
<stop stop-color="#FD5900"/>
<stop offset="1" stop-color="#FFDE00"/>
</linearGradient>
<linearGradient id="paint1_linear" x1="64.0001" y1="115.442" x2="64.0001" y2="12.9995" gradientUnits="userSpaceOnUse">
<stop stop-color="#FD5900"/>
<stop offset="1" stop-color="#FFDE00"/>
</linearGradient>
<linearGradient id="paint2_linear" x1="43" y1="82" x2="43" y2="46" gradientUnits="userSpaceOnUse">
<stop stop-color="#FD5900"/>
<stop offset="1" stop-color="#FFDE00"/>
</linearGradient>
</defs>
</svg>
