<svg width="128" height="128" viewBox="0 0 128 128" fill="none" xmlns="http://www.w3.org/2000/svg">
<path d="M26.9383 8.0005L26.9329 8.00053C25.5308 8.00758 24.1067 8.09902 22.689 8.3823C14.5872 9.89507 8.07281 17.3643 8.03599 25.6173L8.03598 25.6185C8.00127 36.867 7.97347 48.1198 8.04288 59.3664C8.0163 61.3639 9.33102 62.8984 10.8967 63.6338C12.4503 64.3635 14.4578 64.4062 15.9969 63.2035C17.8751 61.9688 18.2144 59.711 18.194 58.0375C18.2059 53.3984 18.2025 48.7647 18.1991 44.132C18.1946 37.9566 18.19 31.7833 18.2217 25.6021C18.2725 21.5205 22.1626 17.9735 26.3095 18.0475L26.3185 18.0477H26.3274C38.9831 18.0332 51.6327 18.0377 64.2821 18.0423C75.6669 18.0465 87.0517 18.0506 98.4409 18.0408C98.7706 18.0408 99.0955 18.0378 99.4158 18.0348C101.528 18.0155 103.42 17.998 105.106 18.8542L105.125 18.8639L105.145 18.8727C108.189 20.2494 110.078 23.6185 109.853 26.9411L109.851 26.9726V27.0042C109.845 36.5522 109.847 46.0991 109.849 55.6458C109.853 70.6462 109.856 85.6456 109.83 100.646V100.658V100.67C109.929 104.885 106.171 108.764 101.895 108.751L101.884 108.752C95.8157 108.804 89.7763 108.795 83.7315 108.788C78.4968 108.781 73.258 108.775 67.9929 108.807C66.1544 108.703 64.5877 109.719 63.6925 111.081C62.8003 112.439 62.4905 114.27 63.3189 115.901C63.8277 117.168 64.8196 117.963 65.9108 118.411C66.9912 118.856 68.2032 118.978 69.2823 118.902C73.993 118.873 78.7201 118.882 83.4517 118.891C89.8863 118.904 96.3294 118.917 102.752 118.833H102.766L102.781 118.832C111.925 118.433 119.902 110.393 119.946 101.258V101.255C119.966 87.6482 119.961 74.036 119.957 60.4249C119.954 49.3011 119.951 38.1781 119.96 27.0595C120.665 17.1042 111.925 7.90186 101.874 8.01428C88.1344 7.99536 74.3941 7.99934 60.6557 8.00331C49.4148 8.00656 38.1751 8.00981 26.9383 8.0005Z" fill="url(#paint0_linear_618_217)" stroke="url(#paint1_linear_618_217)" stroke-width="2"/>
<path d="M15.0882 70.2927C14.1115 70.1834 12.8185 70.0388 11.6175 70.518C8.96816 71.4088 7.97714 74.0206 8.24284 76.2869C8.50986 78.5645 10.0914 80.8728 12.9292 81.076C28.6642 82.5017 42.5212 94.9086 45.6054 110.247L45.6109 110.275L45.618 110.302C45.7685 110.872 45.8563 111.51 45.9478 112.227C45.9541 112.276 45.9604 112.325 45.9668 112.375C46.05 113.03 46.1408 113.744 46.295 114.428C46.6296 115.916 47.3056 117.458 49.0553 118.34C50.781 119.358 52.8396 119.174 54.4221 118.312C56.0173 117.444 57.2854 115.799 57.2591 113.746L57.2587 113.715L57.2562 113.683C56.3979 102.994 51.6284 92.6837 44.1704 84.949C36.6356 76.959 26.2401 71.7202 15.3052 70.3169L15.2962 70.3157L15.2871 70.3147C15.2224 70.3077 15.1561 70.3003 15.0882 70.2927Z" fill="url(#paint2_linear_618_217)" stroke="url(#paint3_linear_618_217)" stroke-width="2"/>
<path d="M13.736 86.3317C12.6695 86.2735 11.6587 86.5245 10.742 87.0798C9.19971 87.9646 8.35578 89.5552 8.18313 91.1615C8.01121 92.7611 8.49186 94.4873 9.73789 95.6925C10.3946 96.3876 11.1993 96.75 11.9511 96.9851C12.3299 97.1034 12.7125 97.1945 13.0665 97.2754C13.1324 97.2904 13.1969 97.3054 13.2603 97.3195C13.5484 97.3852 13.8135 97.4454 14.0726 97.5149L14.0917 97.5205L14.111 97.5242C21.9751 99.2918 28.4057 105.994 29.8795 113.833C30.1944 116.075 31.71 118.362 34.2392 118.898C36.06 119.365 37.8882 118.745 39.1603 117.61C40.4352 116.472 41.2496 114.726 40.9021 112.847C38.9508 99.4289 27.3901 88.0622 13.803 86.3378L13.7697 86.3336L13.736 86.3317Z" fill="url(#paint4_linear_618_217)" stroke="url(#paint5_linear_618_217)" stroke-width="2"/>
<path d="M22.6493 112.395C23.0023 109.818 21.7212 107.477 19.8456 106.037C17.9693 104.595 15.3675 103.954 12.9449 104.924C10.2758 105.758 8.67612 108.109 8.27582 110.563C7.8759 113.014 8.64501 115.744 10.9126 117.373C13.0502 119.229 15.9347 119.3 18.2482 118.309C20.5601 117.318 22.4989 115.184 22.6493 112.395Z" fill="url(#paint6_linear_618_217)" stroke="url(#paint7_linear_618_217)" stroke-width="2"/>
<defs>
<linearGradient id="paint0_linear_618_217" x1="28.3" y1="105.828" x2="128.452" y2="17.5942" gradientUnits="userSpaceOnUse">
<stop stop-color="#FE0844"/>
<stop offset="1" stop-color="#FEE502"/>
</linearGradient>
<linearGradient id="paint1_linear_618_217" x1="28.3" y1="105.828" x2="128.452" y2="17.5942" gradientUnits="userSpaceOnUse">
<stop stop-color="#FE0844"/>
<stop offset="1" stop-color="#FEE502"/>
</linearGradient>
<linearGradient id="paint2_linear_618_217" x1="17.093" y1="113.266" x2="61.1687" y2="74.6449" gradientUnits="userSpaceOnUse">
<stop stop-color="#FE0844"/>
<stop offset="1" stop-color="#FEE502"/>
</linearGradient>
<linearGradient id="paint3_linear_618_217" x1="17.093" y1="113.266" x2="61.1687" y2="74.6449" gradientUnits="userSpaceOnUse">
<stop stop-color="#FE0844"/>
<stop offset="1" stop-color="#FEE502"/>
</linearGradient>
<linearGradient id="paint4_linear_618_217" x1="14.1004" y1="115.19" x2="43.6283" y2="89.3463" gradientUnits="userSpaceOnUse">
<stop stop-color="#FE0844"/>
<stop offset="1" stop-color="#FEB302"/>
</linearGradient>
<linearGradient id="paint5_linear_618_217" x1="14.1004" y1="115.19" x2="43.6283" y2="89.3463" gradientUnits="userSpaceOnUse">
<stop stop-color="#FE0844"/>
<stop offset="1" stop-color="#FEB302"/>
</linearGradient>
<linearGradient id="paint6_linear_618_217" x1="10.8089" y1="117.233" x2="23.8741" y2="105.793" gradientUnits="userSpaceOnUse">
<stop stop-color="#FE0844"/>
<stop offset="1" stop-color="#FEB302"/>
</linearGradient>
<linearGradient id="paint7_linear_618_217" x1="10.8089" y1="117.233" x2="23.8741" y2="105.793" gradientUnits="userSpaceOnUse">
<stop stop-color="#FE0844"/>
<stop offset="1" stop-color="#FEB302"/>
</linearGradient>
</defs>
</svg>
