<svg width="128" height="128" viewBox="0 0 128 128" fill="none" xmlns="http://www.w3.org/2000/svg">
<path d="M64 47.8867C62.2187 47.8867 60.7773 49.3281 60.7773 51.1094V65.8883L48.831 77.8347C47.5722 79.0934 47.5722 81.1329 48.831 82.3917C50.0897 83.6505 52.129 83.6505 53.388 82.3917L66.2786 69.5011C66.8828 68.8969 67.2227 68.0786 67.2227 67.2227V51.1094C67.2227 49.3281 65.7813 47.8867 64 47.8867ZM113.335 14.6648C106.028 7.35709 93.3006 7.35709 85.9929 14.6648C84.7341 15.9236 84.7341 17.9631 85.9929 19.2218L95.107 28.3359L91.7329 31.7101C84.8695 26.3383 76.4296 22.9242 67.2227 22.2687V15.4453H70.4453C72.2266 15.4453 73.668 14.0039 73.668 12.2227C73.668 10.4414 72.2266 9 70.4453 9H57.5547C55.7734 9 54.332 10.4414 54.332 12.2227C54.332 14.0039 55.7734 15.4453 57.5547 15.4453H60.7773V22.2687C51.5704 22.9242 43.1307 26.3383 36.2671 31.7101L32.893 28.3359L42.0071 19.2218C43.2659 17.9631 43.2659 15.9236 42.0071 14.6648C34.6994 7.35709 21.9725 7.35709 14.6648 14.6648C11.0112 18.3186 9 23.1715 9 28.3359C9 33.5004 11.0109 38.3532 14.6648 42.0071C15.2943 42.6366 16.1188 42.9513 16.9432 42.9513C17.7676 42.9513 18.5923 42.6366 19.2216 42.0071L28.3359 32.893L31.4767 36.0338C23.6964 44.1439 18.8828 55.1229 18.8828 67.2227C18.8828 83.186 27.2392 97.2058 39.7841 105.228L35.336 114.336C34.5398 115.928 35.1849 117.864 36.7774 118.66C38.3859 119.459 40.3092 118.799 41.1015 117.219L45.4521 108.305C51.1178 110.873 57.3852 112.34 64 112.34C70.6148 112.34 76.8825 110.873 82.5479 108.305L86.8985 117.219C87.6915 118.8 89.6156 119.458 91.2226 118.66C92.8151 117.864 93.4602 115.928 92.664 114.336L88.2159 105.228C100.761 97.2058 109.117 83.186 109.117 67.2227C109.117 55.1229 104.304 44.1439 96.5233 36.0338L99.6641 32.893L108.778 42.0071C109.408 42.6366 110.232 42.9513 111.057 42.9513C111.881 42.9513 112.706 42.6366 113.335 42.0071C116.989 38.3532 119 33.5004 119 28.3359C119 23.1715 116.989 18.3186 113.335 14.6648ZM17.2298 34.885C16.0654 32.9213 15.4453 30.6773 15.4453 28.3359C15.4453 24.8931 16.7859 21.6577 19.2218 19.2218C21.6577 16.7859 24.8931 15.4453 28.3359 15.4453C30.6773 15.4453 32.9213 16.0654 34.885 17.2298L17.2298 34.885ZM102.672 67.2227C102.672 88.5476 85.325 105.895 64 105.895C42.675 105.895 25.3281 88.5476 25.3281 67.2227C25.3281 45.8977 42.6753 28.5508 64 28.5508C85.3247 28.5508 102.672 45.8977 102.672 67.2227ZM110.77 34.885L93.115 17.2296C97.9711 14.3563 104.687 15.1304 108.778 19.2216C111.214 21.6577 112.555 24.8931 112.555 28.3359C112.555 30.6773 111.935 32.9213 110.77 34.885ZM64 34.9961C46.2313 34.9961 31.7734 49.454 31.7734 67.2227C31.7734 84.9913 46.2313 99.4492 64 99.4492C81.7687 99.4492 96.2266 84.9913 96.2266 67.2227C96.2266 49.454 81.7687 34.9961 64 34.9961ZM64 93.0039C49.7844 93.0039 38.2188 81.4382 38.2188 67.2227C38.2188 53.0071 49.7844 41.4414 64 41.4414C78.2156 41.4414 89.7812 53.0071 89.7812 67.2227C89.7812 81.4382 78.2156 93.0039 64 93.0039Z" fill="url(#paint0_linear_614_70)" stroke="url(#paint1_linear_614_70)" stroke-width="2"/>
<defs>
<linearGradient id="paint0_linear_614_70" x1="64" y1="119" x2="64" y2="9" gradientUnits="userSpaceOnUse">
<stop stop-color="#FF002E"/>
<stop offset="1" stop-color="#FF0099"/>
</linearGradient>
<linearGradient id="paint1_linear_614_70" x1="64" y1="119" x2="64" y2="9" gradientUnits="userSpaceOnUse">
<stop stop-color="#FF002E"/>
<stop offset="1" stop-color="#FF0099"/>
</linearGradient>
</defs>
</svg>
