<svg width="64" height="64" viewBox="0 0 64 64" fill="none" xmlns="http://www.w3.org/2000/svg">
<path fill-rule="evenodd" clip-rule="evenodd" d="M33.1554 34.2862C32.362 36.0156 31.0014 37.129 29.5291 37.5046C29.3059 37.5046 28.9649 37.6265 28.624 37.6265C26.1351 37.6265 24.6628 35.5248 24.6628 32.4349C24.6628 28.4754 26.8139 26.6241 29.5291 25.7545C31.0014 25.3855 32.7029 25.2603 34.4014 25.2603V26.746C34.4014 29.5888 34.513 31.8123 33.1554 34.2862V34.2862ZM34.4014 19.5779C32.9291 19.6998 31.2276 19.8217 29.5291 20.0654C26.9255 20.4409 24.3219 20.9351 22.1738 22.0485C17.9834 23.9031 15.1505 27.8593 15.1505 33.6668C15.1505 40.9666 19.4526 44.6725 24.8921 44.6725C26.7022 44.6725 28.1745 44.4221 29.5291 44.0565C31.6862 43.312 33.4933 41.9515 35.6444 39.4777C36.8904 41.3322 37.2343 42.2019 39.3823 44.1784C39.9495 44.4221 40.5167 44.4221 40.9662 44.0565C42.3268 42.8179 44.7072 40.5911 45.9501 39.3558C46.5173 38.8617 46.4057 38.1172 46.0618 37.5045C44.8188 35.7718 43.5698 34.2861 43.5698 30.9492V19.8216C43.5698 15.1242 43.9137 10.7958 40.743 7.584C38.1394 4.99153 34.0605 4 30.8897 4H29.5291C23.7577 4.36565 17.6455 7.08659 16.2818 14.8772C16.0555 15.8687 16.7374 16.2376 17.1899 16.3595L23.5315 17.2259C24.2103 17.1007 24.5512 16.4814 24.6628 15.8687C25.227 13.1478 27.2664 11.7873 29.5291 11.5369H29.9846C31.3453 11.5369 32.8175 12.1562 33.608 13.3948C34.513 14.8772 34.4014 16.8569 34.4014 18.5896V19.5779V19.5779ZM57.3057 45.9374V45.9341C57.2816 45.3511 57.1699 44.9064 56.9467 44.5374L56.9225 44.5012L56.8954 44.465C56.6691 44.1948 56.4519 44.0927 56.2166 43.9807C55.5137 43.6842 54.4909 43.5261 53.26 43.5228C52.3761 43.5228 51.4016 43.6151 50.4211 43.849L50.4181 43.7765L49.4316 44.1355L49.4135 44.1454L48.8553 44.3431V44.3694C48.2007 44.6659 47.6063 45.0348 47.0542 45.473C46.7103 45.753 46.4267 46.1252 46.4116 46.6951C46.4026 47.0047 46.5474 47.3605 46.7857 47.5713C47.0241 47.7821 47.3016 47.8546 47.546 47.8546C47.6033 47.8546 47.6576 47.8513 47.7059 47.8414L47.7541 47.8381L47.7904 47.8315C48.2731 47.7195 48.976 47.6438 49.7996 47.5186C50.5056 47.433 51.2538 47.3704 51.9024 47.3704C52.361 47.3671 52.7743 47.4033 53.0579 47.4692C53.1997 47.5021 53.3053 47.5417 53.3626 47.5746C53.3837 47.5812 53.3988 47.5911 53.4078 47.5977C53.4199 47.6405 53.438 47.7525 53.435 47.9073C53.441 48.5002 53.2117 49.6005 52.895 50.6744C52.5872 51.7482 52.2131 52.8254 51.9658 53.5402C51.9054 53.705 51.8662 53.8861 51.8662 54.0838C51.8602 54.3704 51.9688 54.7195 52.1981 54.9501C52.4213 55.1807 52.7109 55.273 52.9523 55.273H52.9644C53.3264 55.2697 53.6341 55.1115 53.8996 54.8842C56.4036 52.4268 57.2755 48.5002 57.3117 46.2899L57.3057 45.9374M49.8811 49.3435C49.6246 49.3402 49.3622 49.4061 49.1178 49.5313C48.8432 49.6499 48.5627 49.7882 48.2972 49.9101L47.908 50.088L47.4012 50.3087V50.3153C41.8953 52.7529 36.1119 54.1826 30.7599 54.3078C30.5638 54.3144 30.3646 54.3144 30.1746 54.3144C21.7574 54.3209 14.8909 50.0584 7.96406 45.8584C7.72271 45.72 7.4723 45.6475 7.23095 45.6475C6.92021 45.6475 6.60041 45.776 6.36811 46.0132C6.13581 46.2536 5.99703 46.5995 6.00005 46.952C5.99703 47.4099 6.2233 47.8315 6.54008 48.1049C13.0415 54.2682 20.1675 59.9934 29.7522 60C29.9393 60 30.1293 59.9934 30.3194 59.9901C36.4166 59.8419 43.3102 57.592 48.6622 53.9224L48.6954 53.8993C49.3953 53.4414 50.0953 52.9209 50.756 52.3445C51.1663 52.0118 51.4499 51.4913 51.4499 50.9511C51.4318 49.9925 50.6866 49.3435 49.8811 49.3435" fill="url(#paint0_linear)"/>
<defs>
<linearGradient id="paint0_linear" x1="31.6558" y1="60" x2="31.6558" y2="4" gradientUnits="userSpaceOnUse">
<stop stop-color="#FD2E00"/>
<stop offset="1" stop-color="#FF9900"/>
</linearGradient>
</defs>
</svg>
