<svg width="48" height="48" viewBox="0 0 48 48" fill="none" xmlns="http://www.w3.org/2000/svg">
<path d="M44 24C44 12.9543 35.0457 4 24 4C12.9543 4 4 12.9543 4 24C4 35.0457 12.9543 44 24 44C35.0457 44 44 35.0457 44 24Z" stroke="url(#paint0_linear_641_2)" stroke-width="6"/>
<path d="M21.6888 35.9896C18.9278 35.7136 17.5037 34.9444 16.0823 33.5464C15.5081 32.9818 15.118 32.4622 14.7938 31.831C14.1076 30.4948 13.8925 28.9912 14.2284 27.8788C14.5624 26.7731 15.3222 25.5539 16.3916 24.4076C16.9854 23.7711 17.4032 23.2159 17.6779 22.6968C18.0093 22.0707 18.0932 21.7369 18.0653 21.1557C18.0383 20.592 17.9242 20.52 17.6067 20.2634C17.3057 20.0202 16.5062 19.9717 15.5749 20.0149C14.6658 20.0571 14.22 20.0032 13.7858 19.7989C13.449 19.6403 13.3297 19.4612 13.4338 19.2706C13.5277 19.0985 14.0053 18.6565 14.5966 18.4807C14.8604 18.4022 15.0688 18.3189 15.0596 18.2954C15.0504 18.2719 14.8426 18.1052 14.5978 17.9249C13.5982 17.1889 13 16.3585 13 15.5397C13 15.3125 13.0248 15.238 13.1342 15.1373C13.2543 15.0267 13.3043 15.0169 13.6109 15.0443C13.7992 15.0611 14.1397 15.1477 14.3675 15.2367C14.9217 15.4531 15.6157 15.4418 16.1755 15.3679C16.409 15.337 16.6551 15.2764 16.7225 15.2331C16.7898 15.1899 16.9734 14.9334 17.1304 14.6633C17.7424 13.6103 18.3904 12.9305 19.1164 12.58C19.9529 12.1761 21.1365 11.96 22.2599 12.0061C23.6105 12.0616 24.7577 12.5165 25.6945 13.3681C26.3385 13.9535 26.7646 14.0999 27.3771 13.946C27.808 13.8378 27.8177 13.8384 27.8177 13.97C27.8177 14.143 27.676 14.3671 27.4584 14.5382L27.258 14.6958L27.4601 14.8127C27.7385 14.9737 27.7055 15.1032 27.3743 15.1496C27.0984 15.1883 26.8916 15.2774 26.8916 15.3577C26.8916 15.386 26.9312 15.6315 26.9796 15.9032C27.0984 16.5697 27.0561 17.6615 26.8946 18.2989C26.6443 19.2872 26.2655 19.9832 25.6184 20.644C25.1223 21.1505 24.5447 21.5471 23.995 21.7585C23.623 21.9015 23.5231 21.9915 23.7362 21.9915C23.7985 21.9915 24.1478 22.0172 24.5125 22.0487C25.8474 22.164 26.7963 22.7203 28.1368 23.3288C29.4029 23.9035 29.941 24.1653 30.6417 23.8172C31.0889 23.595 31.8396 22.3061 32.3179 21.6783C32.7272 21.1411 32.9126 21.0149 33.2927 21.0149C33.6649 21.0149 33.8797 21.1525 34.1614 21.5714C34.5604 22.1646 34.7781 22.8038 34.9329 23.8371C35.0436 24.5755 35.0125 26.6086 34.8754 27.3448C34.0559 31.7446 31.173 34.7068 26.772 35.671C25.5842 35.9313 25.1056 35.9781 23.4596 35.9949C22.6057 36.0036 21.8086 36.0015 21.6888 35.9896Z" fill="url(#paint1_linear_641_2)"/>
<defs>
<linearGradient id="paint0_linear_641_2" x1="24" y1="44" x2="24" y2="4" gradientUnits="userSpaceOnUse">
<stop stop-color="#5570FF"/>
<stop offset="1" stop-color="#4DD3FF"/>
</linearGradient>
<linearGradient id="paint1_linear_641_2" x1="24" y1="36" x2="24" y2="12" gradientUnits="userSpaceOnUse">
<stop stop-color="#5570FF"/>
<stop offset="1" stop-color="#4DD3FF"/>
</linearGradient>
</defs>
</svg>
