<svg width="16" height="16" viewBox="0 0 16 16" fill="none" xmlns="http://www.w3.org/2000/svg">
<g clip-path="url(#clip0_625_89)">
<path fill-rule="evenodd" clip-rule="evenodd" d="M8.66211 6.48636C9.01208 6.49906 9.3299 5.69392 9.5 6.00003L13.9492 13.471C13.9659 13.499 13.9755 13.5307 13.9771 13.5633L14.0772 15.5536C14.0858 15.7262 13.8863 15.8278 13.7518 15.7192L12.2519 14.5084C12.2338 14.4938 12.2185 14.4762 12.2065 14.4564L8.65396 8.5947C8.63502 8.56344 8.625 8.52759 8.625 8.49104V6.52763C8.625 6.507 8.64148 6.48636 8.66211 6.48636V6.48636Z" fill="url(#paint0_linear_625_89)"/>
<path d="M7 5.5C6.65003 5.5127 6.33221 5.70756 6.16211 6.01367L2.04769 13.4733C2.03302 13.4999 2.0246 13.5295 2.02307 13.5598L1.92284 15.5536C1.91416 15.7262 2.11373 15.8278 2.24821 15.7192L3.74515 14.5108C3.76512 14.4946 3.78181 14.4748 3.79429 14.4524L4.38724 13.3867C4.43856 13.2945 4.55262 13.2583 4.64895 13.3014C5.67121 13.7592 6.77891 13.9975 7.90039 14C12.2516 14 15.8885 10.5262 15.9979 6.2006C16.0006 6.09018 15.9108 6.00003 15.8004 6.00003H14.2004C14.0899 6.00003 14.0007 6.09001 13.997 6.2004C13.8874 9.42135 11.147 12 7.90039 12C7.12808 11.9967 6.36436 11.8444 5.65096 11.5521C5.54334 11.508 5.50056 11.3798 5.55622 11.2777L7.01272 8.6053C7.02872 8.57594 7.03711 8.54303 7.03711 8.50959V5.54127C7.03711 5.52064 7.02063 5.5 7 5.5V5.5Z" fill="url(#paint1_linear_625_89)"/>
<path fill-rule="evenodd" clip-rule="evenodd" d="M6.6 2C6.82091 2 7 1.82091 7 1.6V0.4C7 0.179086 7.17909 0 7.4 0H8.6C8.82091 0 9 0.179086 9 0.4V1.6C9 1.82091 9.17909 2 9.4 2H10C10.554 2 11 2.446 11 3V4V5V6.81502C11 6.93237 10.9485 7.0438 10.8591 7.1198L9 8.7C8.50698 9.19966 7.53146 9.12952 7 8.7L5.14094 7.1198C5.05153 7.0438 5 6.93237 5 6.81502V5V4V3C5 2.446 5.446 2 6 2H6.6ZM9 5C9 5.55228 8.55228 6 8 6C7.44772 6 7 5.55228 7 5C7 4.44772 7.44772 4 8 4C8.55228 4 9 4.44772 9 5Z" fill="url(#paint2_linear_625_89)"/>
</g>
<defs>
<linearGradient id="paint0_linear_625_89" x1="11.3623" y1="16" x2="11.3623" y2="5.93054" gradientUnits="userSpaceOnUse">
<stop stop-color="#FD5900"/>
<stop offset="1" stop-color="#FFDE00"/>
</linearGradient>
<linearGradient id="paint1_linear_625_89" x1="8.95038" y1="16" x2="8.95038" y2="5.5" gradientUnits="userSpaceOnUse">
<stop stop-color="#02AA93"/>
<stop offset="1" stop-color="#67FF80"/>
</linearGradient>
<linearGradient id="paint2_linear_625_89" x1="5" y1="9.04894" x2="12.9511" y2="6.75108" gradientUnits="userSpaceOnUse">
<stop stop-color="#0357D1"/>
<stop offset="1" stop-color="#27CDFC"/>
</linearGradient>
<clipPath id="clip0_625_89">
<rect width="16" height="16" fill="white"/>
</clipPath>
</defs>
</svg>
