<svg width="64" height="64" viewBox="0 0 64 64" fill="none" xmlns="http://www.w3.org/2000/svg">
<path d="M59.999 31.9995C59.999 16.5358 47.4632 4 31.9995 4C16.5358 4 4 16.5358 4 31.9995C4 47.4632 16.5358 59.999 31.9995 59.999C47.4632 59.999 59.999 47.4632 59.999 31.9995Z" stroke="url(#paint0_linear)" stroke-width="6"/>
<path fill-rule="evenodd" clip-rule="evenodd" d="M15.39 21.2378C16.1793 20.7642 17.2032 21.0201 17.6768 21.8095L20.7848 26.9896C23.9888 24.8388 27.8493 23.5833 32.0046 23.5833C36.1565 23.5833 40.014 24.8365 43.2163 26.9837L46.3208 21.8095C46.7945 21.0201 47.8183 20.7642 48.6077 21.2378C49.397 21.7114 49.653 22.7352 49.1794 23.5246L45.8441 29.0835C49.2357 32.2919 51.5028 36.6672 51.9964 41.5632C52.0978 43.5844 50.009 43.5849 50.009 43.5849H13.9417C13.9417 43.5849 11.9111 43.586 12.003 41.6609C12.4762 36.7294 14.748 32.3201 18.158 29.0909L14.8183 23.5246C14.3446 22.7352 14.6006 21.7114 15.39 21.2378ZM21.9991 33.5842C22.3274 33.5842 22.6525 33.6489 22.9559 33.7745C23.2592 33.9002 23.5348 34.0843 23.767 34.3165C23.9991 34.5486 24.1833 34.8243 24.309 35.1276C24.4346 35.4309 24.4993 35.7561 24.4993 36.0844C24.4993 36.4127 24.4346 36.7378 24.309 37.0412C24.1833 37.3445 23.9991 37.6201 23.767 37.8523C23.5348 38.0845 23.2592 38.2686 22.9559 38.3943C22.6525 38.5199 22.3274 38.5846 21.9991 38.5846C21.6707 38.5846 21.3456 38.5199 21.0423 38.3943C20.7389 38.2686 20.4633 38.0845 20.2312 37.8523C19.999 37.6201 19.8148 37.3445 19.6892 37.0412C19.5635 36.7378 19.4989 36.4127 19.4989 36.0844C19.4989 35.7561 19.5635 35.4309 19.6892 35.1276C19.8148 34.8243 19.999 34.5486 20.2312 34.3165C20.4633 34.0843 20.7389 33.9002 21.0423 33.7745C21.3456 33.6489 21.6707 33.5842 21.9991 33.5842ZM42.9574 33.7745C42.6541 33.6489 42.329 33.5842 42.0006 33.5842C41.6723 33.5842 41.3472 33.6489 41.0438 33.7745C40.7405 33.9002 40.4649 34.0843 40.2327 34.3165C40.0006 34.5486 39.8164 34.8243 39.6908 35.1276C39.5651 35.4309 39.5004 35.7561 39.5004 36.0844C39.5004 36.4127 39.5651 36.7378 39.6908 37.0412C39.8164 37.3445 40.0006 37.6201 40.2327 37.8523C40.4649 38.0845 40.7405 38.2686 41.0438 38.3943C41.3472 38.5199 41.6723 38.5846 42.0006 38.5846C42.329 38.5846 42.6541 38.5199 42.9574 38.3943C43.2608 38.2686 43.5364 38.0845 43.7685 37.8523C44.0007 37.6201 44.1849 37.3445 44.3105 37.0412C44.4362 36.7378 44.5008 36.4127 44.5008 36.0844C44.5008 35.7561 44.4362 35.4309 44.3105 35.1276C44.1849 34.8243 44.0007 34.5486 43.7685 34.3165C43.5364 34.0843 43.2608 33.9002 42.9574 33.7745Z" fill="url(#paint1_linear)"/>
<defs>
<linearGradient id="paint0_linear" x1="31.9995" y1="59.999" x2="31.9995" y2="4" gradientUnits="userSpaceOnUse">
<stop stop-color="#00B59C"/>
<stop offset="1" stop-color="#9CFFAC"/>
</linearGradient>
<linearGradient id="paint1_linear" x1="32" y1="43.5849" x2="32" y2="21" gradientUnits="userSpaceOnUse">
<stop stop-color="#02AA93"/>
<stop offset="1" stop-color="#67FF80"/>
</linearGradient>
</defs>
</svg>
