<svg width="192" height="192" viewBox="0 0 192 192" fill="none" xmlns="http://www.w3.org/2000/svg">
<path d="M48.5549 16.8759C49.1864 12.555 55.0968 10.4125 58.3261 13.3644C63.1402 18.09 67.4061 23.3273 72.0296 28.2314C72.6969 28.2433 74.0195 28.2671 74.6749 28.291C78.8694 23.3273 82.611 17.8995 87.4728 13.5668C90.3327 11.0314 95.2659 11.6742 97.2201 15.0071C99.7821 19.2803 100.473 24.3272 101.832 29.0527C123.686 33.9687 144.908 44.9196 158.898 62.7743C171.517 78.7959 176.677 99.2693 178.81 119.195C180.633 137.657 180.382 156.357 177.916 174.747C177.535 178.246 173.626 180.841 170.266 179.746C167.251 179.044 165.249 175.842 165.821 172.819C168.323 150.691 168.609 128.099 164.32 106.161C161.388 91.4608 155.764 76.7843 145.194 65.8453C132.051 51.9663 113.76 43.9436 95.1944 40.4202C90.3922 39.4442 90.2731 33.7545 89.2959 29.9574C85.3636 33.8616 82.9566 41.1939 76.3432 40.7178C73.1854 40.694 69.8966 41.0511 66.8222 40.1465C64.3198 38.7538 62.6754 36.3018 60.745 34.2663C60.745 37.873 61.4719 41.8724 59.4104 45.0982C49.8299 60.7865 40.4996 76.6533 32.3013 93.1273C29.3581 99.305 26.2599 105.495 24.5321 112.148C23.5549 117.231 25.1517 123.516 29.8347 126.301C31.8366 127.73 33.9934 126.158 35.5544 124.885C38.307 122.814 38.3309 118.267 41.9057 117.124C45.695 115.446 50.3542 118.683 50.2827 122.778C49.9491 125.694 48.6502 128.384 47.8399 131.182C51.522 125.206 54.7155 118.421 60.9953 114.684C72.4943 107.959 82.7659 99.305 92.1677 89.9253C96.2073 86.033 98.8288 80.9028 100.163 75.4987C100.962 72.5587 101.57 68.7735 104.966 67.7498C109.327 65.9762 114.344 70.4042 113.033 74.9393C111.222 83.3191 108.803 91.6275 108.052 100.21C107.468 116.957 98.1973 132.265 86.2812 143.561C77.2011 152.191 70.826 163.356 66.7269 175.116C66.0715 177.33 64.4271 179.365 62.0439 179.782C57.4919 181.103 52.9996 175.854 54.9776 171.521C59.6011 157.499 67.3823 144.358 78.1663 134.193C86.6506 126.111 93.264 115.696 95.4089 104.054C88.3665 110.482 81.0143 116.624 73.0067 121.838C69.9323 123.873 66.3218 125.373 64.1054 128.444C60.5067 133.205 58.5644 139.442 53.3451 142.823C47.8399 146.429 39.4272 144.918 36.4601 138.752C31.0382 139.823 25.1517 138.859 20.8857 135.181C11.8533 127.73 9.80381 114.101 14.2961 103.602C23.0068 81.0694 35.9477 60.5127 48.0663 39.7179C48.9839 32.1833 47.8757 24.4581 48.5549 16.8759Z" fill="url(#paint0_linear_637_134)" stroke="url(#paint1_linear_637_134)" stroke-width="6"/>
<path d="M69.9921 59.0462C72.709 57.0584 77.392 57.8797 77.7018 61.7125C78.1666 68.283 73.3644 75.4606 66.751 76.7581C63.057 77.3889 61.3172 72.9729 62.2467 70.009C63.1404 65.4977 66.0122 61.3673 69.9921 59.0462Z" fill="url(#paint2_linear_637_134)"/>
<defs>
<linearGradient id="paint0_linear_637_134" x1="96" y1="180" x2="96" y2="12" gradientUnits="userSpaceOnUse">
<stop stop-color="#A93AFF"/>
<stop offset="1" stop-color="#FF81FF"/>
</linearGradient>
<linearGradient id="paint1_linear_637_134" x1="96" y1="180" x2="96" y2="12" gradientUnits="userSpaceOnUse">
<stop stop-color="#A93AFF"/>
<stop offset="1" stop-color="#FF81FF"/>
</linearGradient>
<linearGradient id="paint2_linear_637_134" x1="69.8665" y1="76.8189" x2="69.8665" y2="58" gradientUnits="userSpaceOnUse">
<stop stop-color="#A93AFF"/>
<stop offset="1" stop-color="#FF81FF"/>
</linearGradient>
</defs>
</svg>
