<svg width="128" height="128" viewBox="0 0 128 128" fill="none" xmlns="http://www.w3.org/2000/svg">
<path d="M68.8935 9.76665C65.1468 7.30665 59.3935 8.59998 57.3002 12.64C54.6829 17.8047 52.1136 22.9947 49.5441 28.1851L49.5437 28.1861C47.9376 31.4304 46.3315 34.6748 44.7135 37.9133C44.6103 38.0975 44.5167 38.2912 44.4225 38.4858C44.1454 39.0588 43.8642 39.6401 43.3268 40.0133C41.7564 40.2944 40.1733 40.508 38.5894 40.7218L38.5881 40.722C37.3552 40.8884 36.1217 41.0549 34.8935 41.2533C32.3418 41.6308 29.7836 41.9733 27.2254 42.3158C22.4652 42.9531 17.7049 43.5904 12.987 44.4533C7.49374 45.4533 4.98707 52.7467 8.44707 57.0333C10.3125 59.1143 12.326 61.056 14.3401 62.9981C15.3778 63.9989 16.4158 64.9998 17.4336 66.0199C20.8203 69.3866 24.2203 72.74 27.647 76.0733C27.997 76.5166 28.4383 76.9035 28.8803 77.291C29.7013 78.0107 30.5243 78.7323 30.767 79.82C28.987 89.6733 27.287 99.5467 25.607 109.42C25.307 111.333 25.767 113.353 26.907 114.927C27.3669 115.493 27.8735 116.027 28.4201 116.52C31.0067 118.767 34.9065 118.76 37.8599 117.247C41.1556 115.521 44.4408 113.773 47.727 112.024C49.6856 110.981 51.6447 109.938 53.6065 108.9C55.3665 108 55.5999 105.753 54.9332 104.073C54.5399 102.18 52.2732 100.973 50.4999 101.793C46.2775 103.797 42.1579 106.003 38.0415 108.208C37.0235 108.753 36.0056 109.298 34.9865 109.84C34.6055 110.052 34.198 110.214 33.7919 110.375C33.6227 110.442 33.4537 110.509 33.2871 110.58C34.1631 105.09 35.1304 99.6113 36.0976 94.1328C36.6761 90.856 37.2548 87.5785 37.8136 84.3C37.8879 83.8361 37.9742 83.3706 38.0608 82.9038C38.4097 81.0232 38.7623 79.1228 38.3403 77.2267C37.7582 74.6694 35.8394 72.9252 33.9556 71.2128C33.3152 70.6307 32.6787 70.0522 32.1003 69.4467C29.7164 67.1654 27.3782 64.8384 25.04 62.5114L25.0389 62.5104C24.0363 61.5125 23.0332 60.5142 22.027 59.52C21.1695 58.6714 20.3003 57.8357 19.4315 57.0005C18.3347 55.9461 17.2383 54.8921 16.167 53.8133C15.587 53.2733 15.0804 52.66 14.627 52.02C17.5779 51.5028 20.5481 51.0941 23.5201 50.6851C25.4898 50.4141 27.4608 50.1429 29.427 49.84C30.5403 49.6824 31.654 49.5251 32.7679 49.3679C36.6965 48.8131 40.6283 48.258 44.5602 47.6867C46.9868 47.3533 49.2802 45.9267 50.4602 43.7533C52.4747 39.8683 54.4066 35.9355 56.3381 32.0034C58.9639 26.6578 61.5892 21.3134 64.4202 16.0933C64.8002 16.7267 65.1268 17.3867 65.4135 18.0667C65.6179 18.5331 65.8439 18.9888 66.0699 19.4448C66.3154 19.9401 66.5616 20.4366 66.7802 20.9467L66.9395 20.5816L66.873 21.12C68.0049 23.3506 69.1022 25.5994 70.1998 27.8486C71.0934 29.6798 71.9871 31.5112 72.8997 33.3333C74.233 30.7067 76.0331 28.36 77.9996 26.18C76.719 23.3074 75.3224 20.4836 73.9254 17.6592C73.2572 16.3082 72.5889 14.957 71.9332 13.6002C71.2732 12.0935 70.2668 10.7 68.8935 9.76665Z" fill="url(#paint0_linear_625_71)"/>
<path d="M77.9996 26.18L78.0671 26.1067C79.0836 28.2276 80.1131 30.3392 81.1428 32.4513L81.1435 32.4529C82.0653 34.3436 82.9873 36.2347 83.9004 38.1333C84.1703 38.8141 84.6376 39.3708 85.1052 39.9279L85.2271 40.0733C88.2344 40.674 91.2753 41.0968 94.3175 41.5197C96.5084 41.8242 98.6998 42.1288 100.88 42.5C99.3262 44.9333 97.7062 47.32 95.9262 49.5933C94.1462 49.2138 92.3178 49.0039 90.4892 48.794C87.2429 48.4213 83.9962 48.0487 81.0195 46.7267C79.8065 46.0533 78.867 44.9998 78.0671 43.8867C76.5477 40.9657 75.1275 37.993 73.707 35.0199C73.4384 34.4577 73.1689 33.8951 72.8997 33.3333C74.233 30.7067 76.0331 28.36 77.9996 26.18Z" fill="url(#paint1_linear_625_71)"/>
<path d="M105.609 43.2064C104.032 42.9722 102.455 42.738 100.88 42.5C99.3262 44.9333 97.7062 47.32 95.9262 49.5933C98.1329 49.9586 100.351 50.2746 102.57 50.5906C106.344 51.1281 110.12 51.6658 113.84 52.4467C113.26 53.1267 112.64 53.7667 111.987 54.3667C110.137 56.1491 108.282 57.9252 106.426 59.7014C101.639 64.2829 96.8523 68.8645 92.173 73.5533C90.0664 75.4933 89.3864 78.58 89.8997 81.3267C90.1669 82.8912 90.427 84.4576 90.6872 86.024L90.6878 86.0273C91.1413 88.7584 91.595 91.4899 92.0864 94.2133C92.6406 93.4749 93.1587 92.6993 93.6775 91.9226C95.0746 89.8312 96.4771 87.7315 98.6064 86.3267C98.5051 85.4625 98.3371 84.602 98.1691 83.7414C97.8834 82.2786 97.5977 80.8149 97.6397 79.3333C100.296 76.7279 102.981 74.1479 105.666 71.5675L105.667 71.5667C109.275 68.0995 112.884 64.6315 116.427 61.1C116.828 60.6832 117.253 60.2785 117.68 59.872C119.111 58.5099 120.563 57.1284 121.2 55.2133C121.92 53.2933 121.613 51.1733 120.953 49.2933C119.96 46.7267 117.473 44.9933 114.793 44.6C111.735 44.1161 108.671 43.661 105.609 43.2064Z" fill="url(#paint2_linear_625_71)"/>
<path d="M93.6785 91.9223C93.1596 92.6991 92.6407 93.4748 92.0864 94.2133C92.4453 96.6041 92.8589 98.9875 93.2719 101.371C93.8101 104.477 94.3484 107.584 94.7671 110.707C92.2845 109.622 89.9024 108.32 87.5195 107.017C85.3911 105.854 83.2621 104.69 81.0604 103.68C77.6204 102.52 74.5538 106.993 76.7471 109.833C78.3143 111.235 80.2045 112.18 82.0928 113.123C83.1764 113.665 84.2594 114.206 85.2804 114.833C86.1397 115.23 86.9864 115.703 87.8371 116.179C90.1872 117.493 92.5682 118.824 95.3338 118.613C99.5604 118.313 103.067 114.233 102.56 109.98C101.798 104.93 100.929 99.894 100.06 94.8575C99.5691 92.0149 99.0778 89.1721 98.6064 86.3267C96.4773 87.7315 95.0755 89.831 93.6785 91.9223Z" fill="url(#paint3_linear_625_71)"/>
<path d="M72.8997 33.3333C71.9871 31.5112 71.0934 29.6798 70.1998 27.8486C69.1022 25.5994 68.0049 23.3506 66.873 21.12L66.9395 20.5816L66.7802 20.9467C66.5616 20.4366 66.3154 19.9401 66.0699 19.4448C65.8439 18.9888 65.6179 18.5331 65.4135 18.0667C65.1268 17.3867 64.8002 16.7267 64.4202 16.0933C61.5892 21.3134 58.9639 26.6578 56.3381 32.0034C54.4066 35.9355 52.4747 39.8683 50.4602 43.7533C49.2802 45.9267 46.9868 47.3533 44.5602 47.6867C40.6283 48.258 36.6965 48.8131 32.7679 49.3679C31.654 49.5251 30.5403 49.6824 29.427 49.84C27.4608 50.1429 25.4898 50.4141 23.5201 50.6851C20.5481 51.0941 17.5779 51.5028 14.627 52.02C15.0804 52.66 15.587 53.2733 16.167 53.8133C17.2383 54.8921 18.3347 55.9461 19.4315 57.0005C20.3003 57.8357 21.1695 58.6714 22.027 59.52C23.0332 60.5142 24.0363 61.5125 25.0389 62.5104L25.04 62.5114C27.3782 64.8384 29.7164 67.1654 32.1003 69.4467C32.6787 70.0522 33.3152 70.6307 33.9556 71.2128C35.8394 72.9252 37.7582 74.6694 38.3403 77.2267C38.7623 79.1228 38.4097 81.0232 38.0608 82.9038C37.9742 83.3706 37.8879 83.8361 37.8136 84.3C37.2548 87.5785 36.6761 90.856 36.0976 94.1328C35.1304 99.6113 34.1631 105.09 33.2871 110.58C33.4537 110.509 33.6227 110.442 33.7919 110.375C34.198 110.214 34.6055 110.052 34.9865 109.84C36.0056 109.298 37.0235 108.753 38.0415 108.208C42.1579 106.003 46.2775 103.797 50.4999 101.793C52.2732 100.973 54.5399 102.18 54.9332 104.073C55.5999 105.753 55.3665 108 53.6065 108.9C51.6447 109.938 49.6856 110.981 47.727 112.024C44.4408 113.773 41.1556 115.521 37.8599 117.247C34.9065 118.76 31.0067 118.767 28.4201 116.52C27.8735 116.027 27.3669 115.493 26.907 114.927C25.767 113.353 25.307 111.333 25.607 109.42C27.287 99.5467 28.987 89.6733 30.767 79.82C30.5243 78.7323 29.7013 78.0107 28.8803 77.291C28.4383 76.9035 27.997 76.5166 27.647 76.0733C24.2203 72.74 20.8203 69.3866 17.4336 66.0199C16.4158 64.9998 15.3778 63.9989 14.3401 62.9981C12.326 61.056 10.3125 59.1143 8.44707 57.0333C4.98707 52.7467 7.49374 45.4533 12.987 44.4533C17.7049 43.5904 22.4652 42.9531 27.2254 42.3158C29.7836 41.9733 32.3418 41.6308 34.8935 41.2533C36.1217 41.0549 37.3552 40.8884 38.5881 40.722L38.5894 40.7218C40.1733 40.508 41.7564 40.2944 43.3268 40.0133C43.8642 39.6401 44.1454 39.0588 44.4225 38.4858C44.5167 38.2912 44.6103 38.0975 44.7135 37.9133C46.3315 34.6748 47.9376 31.4304 49.5437 28.1861L49.5441 28.1851C52.1136 22.9947 54.6829 17.8047 57.3002 12.64C59.3935 8.59998 65.1468 7.30665 68.8935 9.76665C70.2668 10.7 71.2732 12.0935 71.9332 13.6002C72.5889 14.957 73.2572 16.3082 73.9254 17.6592C75.3224 20.4836 76.719 23.3074 77.9996 26.18M72.8997 33.3333C74.233 30.7067 76.0331 28.36 77.9996 26.18M72.8997 33.3333C73.1689 33.8951 73.4384 34.4577 73.707 35.0199C75.1275 37.993 76.5477 40.9657 78.0671 43.8867C78.867 44.9998 79.8065 46.0533 81.0195 46.7267C83.9962 48.0487 87.2429 48.4213 90.4892 48.794C92.3178 49.0039 94.1462 49.2138 95.9262 49.5933M77.9996 26.18L78.0671 26.1067C79.0836 28.2276 80.1131 30.3392 81.1428 32.4513L81.1435 32.4529C82.0653 34.3436 82.9873 36.2347 83.9004 38.1333C84.1703 38.8141 84.6376 39.3708 85.1052 39.9279L85.2271 40.0733C88.2344 40.674 91.2753 41.0968 94.3175 41.5197C96.5084 41.8242 98.6998 42.1288 100.88 42.5M100.88 42.5C99.3262 44.9333 97.7062 47.32 95.9262 49.5933M100.88 42.5C102.455 42.738 104.032 42.9722 105.609 43.2064C108.671 43.661 111.735 44.1161 114.793 44.6C117.473 44.9933 119.96 46.7267 120.953 49.2933C121.613 51.1733 121.92 53.2933 121.2 55.2133C120.563 57.1284 119.111 58.5099 117.68 59.872C117.253 60.2785 116.828 60.6832 116.427 61.1C112.884 64.6315 109.275 68.0995 105.667 71.5667L105.666 71.5675C102.981 74.1479 100.296 76.7279 97.6397 79.3333C97.5977 80.8149 97.8834 82.2786 98.1691 83.7414C98.3371 84.602 98.5051 85.4625 98.6064 86.3267M95.9262 49.5933C98.1329 49.9586 100.351 50.2746 102.57 50.5906C106.344 51.1281 110.12 51.6658 113.84 52.4467C113.26 53.1267 112.64 53.7667 111.987 54.3667C110.137 56.1491 108.282 57.9252 106.426 59.7014C101.639 64.2829 96.8523 68.8645 92.173 73.5533C90.0664 75.4933 89.3864 78.58 89.8997 81.3267C90.1669 82.8912 90.427 84.4576 90.6872 86.024L90.6878 86.0273C91.1413 88.7584 91.595 91.4899 92.0864 94.2133M92.0864 94.2133C92.6406 93.4749 93.1587 92.6993 93.6775 91.9226C95.0746 89.8312 96.4771 87.7315 98.6064 86.3267M92.0864 94.2133C92.6407 93.4748 93.1596 92.6991 93.6785 91.9223C95.0755 89.831 96.4773 87.7315 98.6064 86.3267M92.0864 94.2133C92.4453 96.6041 92.8589 98.9875 93.2719 101.371C93.8101 104.477 94.3484 107.584 94.7671 110.707C92.2845 109.622 89.9024 108.32 87.5195 107.017C85.3911 105.854 83.2621 104.69 81.0604 103.68C77.6204 102.52 74.5538 106.993 76.7471 109.833C78.3143 111.235 80.2045 112.18 82.0928 113.123C83.1764 113.665 84.2594 114.206 85.2804 114.833C86.1397 115.23 86.9864 115.703 87.8371 116.179C90.1872 117.493 92.5682 118.824 95.3338 118.613C99.5604 118.313 103.067 114.233 102.56 109.98C101.798 104.93 100.929 99.894 100.06 94.8575C99.5691 92.0149 99.0778 89.1721 98.6064 86.3267" stroke="url(#paint4_linear_625_71)" stroke-width="3"/>
<defs>
<linearGradient id="paint0_linear_625_71" x1="59.2471" y1="115.678" x2="71.1998" y2="16.0554" gradientUnits="userSpaceOnUse">
<stop stop-color="#8D01A2"/>
<stop offset="1" stop-color="#FF33DB"/>
</linearGradient>
<linearGradient id="paint1_linear_625_71" x1="59.2471" y1="115.678" x2="71.1998" y2="16.0554" gradientUnits="userSpaceOnUse">
<stop stop-color="#8D01A2"/>
<stop offset="1" stop-color="#FF33DB"/>
</linearGradient>
<linearGradient id="paint2_linear_625_71" x1="59.2471" y1="115.678" x2="71.1998" y2="16.0554" gradientUnits="userSpaceOnUse">
<stop stop-color="#8D01A2"/>
<stop offset="1" stop-color="#FF33DB"/>
</linearGradient>
<linearGradient id="paint3_linear_625_71" x1="59.2471" y1="115.678" x2="71.1998" y2="16.0554" gradientUnits="userSpaceOnUse">
<stop stop-color="#8D01A2"/>
<stop offset="1" stop-color="#FF33DB"/>
</linearGradient>
<linearGradient id="paint4_linear_625_71" x1="59.2471" y1="115.678" x2="71.1998" y2="16.0554" gradientUnits="userSpaceOnUse">
<stop stop-color="#8D01A2"/>
<stop offset="1" stop-color="#FF33DB"/>
</linearGradient>
</defs>
</svg>
