<svg width="512" height="512" viewBox="0 0 512 512" fill="none" xmlns="http://www.w3.org/2000/svg">
<path d="M485.057 394.359L456.642 266.227C448.529 221.323 409.537 188.766 363.812 188.766C348.87 188.766 334.572 192.162 321.317 198.86C303.835 207.694 286.455 213.074 269.477 214.952V175.289C269.477 167.858 275.522 161.812 282.953 161.812H336.859C359.152 161.812 377.289 143.676 377.289 121.383C377.289 99.0899 359.152 80.9531 336.859 80.9531H175.141C167.71 80.9531 161.664 74.9075 161.664 67.4766C161.664 60.0339 155.63 54 148.188 54C140.745 54 134.711 60.0339 134.711 67.4766C134.711 89.7695 152.848 107.906 175.141 107.906H336.859C344.29 107.906 350.336 113.952 350.336 121.383C350.336 128.814 344.29 134.859 336.859 134.859H282.953C260.66 134.859 242.523 152.996 242.523 175.289V214.951C225.545 213.073 208.164 207.693 190.68 198.858C177.425 192.162 163.129 188.766 148.188 188.766C102.463 188.766 63.4711 221.323 55.3591 266.227L26.9434 394.359C26.5031 396.333 26 400.4 26 404.391C26 434.115 50.1823 458.297 79.9062 458.297C103.562 458.297 106.776 452.86 174.185 393.171C181.448 400.113 191.277 404.391 202.094 404.391C219.663 404.391 234.642 393.122 240.205 377.438H271.795C277.359 393.122 292.338 404.391 309.907 404.391C320.723 404.391 330.553 400.113 337.816 393.171C405.213 452.852 408.355 458.297 432.094 458.297C461.818 458.297 486 434.115 486 404.391C486 400.57 485.522 396.446 485.057 394.359ZM215.57 363.965C215.568 371.395 209.524 377.438 202.094 377.438C194.663 377.438 188.617 371.392 188.617 363.961C188.617 356.53 194.663 350.484 202.094 350.484C209.523 350.484 215.568 356.528 215.57 363.956V363.961C215.57 363.961 215.57 363.964 215.57 363.965ZM309.906 377.438C302.477 377.438 296.432 371.394 296.43 363.965C296.43 363.964 296.43 363.963 296.43 363.961C296.43 363.959 296.43 363.958 296.43 363.956C296.432 356.527 302.476 350.484 309.906 350.484C317.337 350.484 323.383 356.53 323.383 363.961C323.383 371.392 317.337 377.438 309.906 377.438ZM432.094 431.344C419.598 431.344 421.198 430.882 350.128 368.078C350.265 366.725 350.336 365.351 350.336 363.961C350.336 341.668 332.199 323.531 309.906 323.531C292.337 323.531 277.358 334.799 271.795 350.484H240.205C234.642 334.799 219.663 323.531 202.094 323.531C179.801 323.531 161.664 341.668 161.664 363.961C161.664 365.35 161.735 366.724 161.872 368.078C91.1403 430.574 92.4323 431.344 79.9062 431.344C65.0443 431.344 52.9531 419.253 52.9531 404.391C52.9531 402.877 53.0789 401.363 53.326 399.885C53.326 399.885 81.8118 271.417 81.8451 271.229C87.5546 239.064 115.456 215.719 148.188 215.719C158.867 215.719 169.074 218.14 178.525 222.915C204.47 236.025 230.536 242.672 256 242.672H256.001C281.465 242.672 307.531 236.025 333.474 222.916C342.924 218.14 353.132 215.719 363.812 215.719C396.544 215.719 424.445 239.064 430.155 271.23C430.188 271.417 430.226 271.605 430.267 271.792L458.674 399.886C458.921 401.363 459.047 402.877 459.047 404.391C459.047 419.253 446.956 431.344 432.094 431.344ZM175.141 269.625H161.664V256.148C161.664 248.706 155.63 242.672 148.188 242.672C140.745 242.672 134.711 248.706 134.711 256.148V269.625H121.234C113.792 269.625 107.758 275.659 107.758 283.102C107.758 290.544 113.792 296.578 121.234 296.578H134.711V310.055C134.711 317.497 140.745 323.531 148.188 323.531C155.63 323.531 161.664 317.497 161.664 310.055V296.578H175.141C182.583 296.578 188.617 290.544 188.617 283.102C188.617 275.659 182.583 269.625 175.141 269.625ZM390.766 269.625H377.289V256.148C377.289 248.706 371.255 242.672 363.812 242.672C356.37 242.672 350.336 248.706 350.336 256.148V269.625H336.859C329.417 269.625 323.383 275.659 323.383 283.102C323.383 290.544 329.417 296.578 336.859 296.578H350.336V310.055C350.336 317.497 356.37 323.531 363.812 323.531C371.255 323.531 377.289 317.497 377.289 310.055V296.578H390.766C398.208 296.578 404.242 290.544 404.242 283.102C404.242 275.659 398.208 269.625 390.766 269.625ZM229.047 269.625C221.604 269.625 215.57 275.659 215.57 283.102C215.57 290.544 221.604 296.578 229.047 296.578C236.49 296.578 242.523 290.544 242.523 283.102C242.523 275.659 236.49 269.625 229.047 269.625ZM282.953 269.625C275.51 269.625 269.477 275.659 269.477 283.102C269.477 290.544 275.51 296.578 282.953 296.578C290.396 296.578 296.43 290.544 296.43 283.102C296.43 275.659 290.396 269.625 282.953 269.625Z" fill="url(#paint0_linear_641_13)" stroke="url(#paint1_linear_641_13)" stroke-width="12"/>
<defs>
<linearGradient id="paint0_linear_641_13" x1="256" y1="458.297" x2="256" y2="54" gradientUnits="userSpaceOnUse">
<stop stop-color="#FDA700"/>
<stop offset="1" stop-color="#FFDE00"/>
</linearGradient>
<linearGradient id="paint1_linear_641_13" x1="256" y1="458.297" x2="256" y2="54" gradientUnits="userSpaceOnUse">
<stop stop-color="#FDA700"/>
<stop offset="1" stop-color="#FFDE00"/>
</linearGradient>
</defs>
</svg>
