<svg width="64" height="64" viewBox="0 0 64 64" fill="none" xmlns="http://www.w3.org/2000/svg">
<path fill-rule="evenodd" clip-rule="evenodd" d="M4 9.77708C4 8.23819 5.24768 7 6.8 7H57.2C58.7526 7 60 8.23819 60 9.77708V11V13V51.2778C60 53.827 57.9319 55.8571 55.4013 55.8571H8.6C6.06914 55.8571 4 53.8274 4 51.2778V13V11V9.77708ZM8 51.2778V15H56V51.2778C56 51.5891 55.7515 51.8571 55.4013 51.8571H8.6C8.24811 51.8571 8 51.5882 8 51.2778Z" fill="url(#paint0_linear_678_225)"/>
<path d="M51.905 41H12.095C10.938 41 10 42.1139 10 43.488V44.512C10 45.8861 10.938 47 12.095 47H51.905C53.062 47 54 45.8861 54 44.512V43.488C54 42.1139 53.062 41 51.905 41Z" fill="url(#paint1_linear_678_225)"/>
<path fill-rule="evenodd" clip-rule="evenodd" d="M48 44C48 47.864 44.864 51 41 51C37.136 51 34 47.864 34 44C34 40.136 37.136 37 41 37C44.864 37 48 40.136 48 44Z" fill="url(#paint2_linear_678_225)"/>
<path fill-rule="evenodd" clip-rule="evenodd" d="M23.3333 25.6667C23.3333 29.3486 20.3486 32.3333 16.6667 32.3333C12.9848 32.3333 10 29.3486 10 25.6667C10 21.9848 12.9848 19 16.6667 19C20.3486 19 23.3333 21.9848 23.3333 25.6667ZM38.7644 19H47.9022C49.0608 19 50 20.0258 50 21.2911V30.0422C50 31.3076 49.0608 32.3333 47.9022 32.3333H38.7644C37.6059 32.3333 36.6667 31.3076 36.6667 30.0422V21.2911C36.6667 20.0258 37.6059 19 38.7644 19Z" fill="url(#paint3_linear_678_225)"/>
<defs>
<linearGradient id="paint0_linear_678_225" x1="60" y1="31.8571" x2="18.0479" y2="37.2314" gradientUnits="userSpaceOnUse">
<stop stop-color="#BE41B4"/>
<stop offset="1" stop-color="#FE1FE8"/>
</linearGradient>
<linearGradient id="paint1_linear_678_225" x1="54" y1="44.0526" x2="33.9592" y2="60.4782" gradientUnits="userSpaceOnUse">
<stop stop-color="#BE41B4"/>
<stop offset="1" stop-color="#FE1FE8"/>
</linearGradient>
<linearGradient id="paint2_linear_678_225" x1="41" y1="51" x2="41" y2="37" gradientUnits="userSpaceOnUse">
<stop stop-color="#5570FF"/>
<stop offset="1" stop-color="#4DD3FF"/>
</linearGradient>
<linearGradient id="paint3_linear_678_225" x1="30" y1="32.3333" x2="30" y2="19" gradientUnits="userSpaceOnUse">
<stop stop-color="#5570FF"/>
<stop offset="1" stop-color="#4DD3FF"/>
</linearGradient>
</defs>
</svg>
