<svg width="32" height="32" viewBox="0 0 32 32" fill="none" xmlns="http://www.w3.org/2000/svg">
<path d="M27.9999 25V22C27.9999 21.2043 27.6838 20.4413 27.1212 19.8787C26.5586 19.316 25.7956 19 24.9999 19H21.9999C21.2043 19 20.4412 19.316 19.8786 19.8787C19.316 20.4413 18.9999 21.2043 18.9999 22V25C18.9999 25.7956 19.316 26.5587 19.8786 27.1213C20.4412 27.6839 21.2043 28 21.9999 28H24.9999M4 7C4 6.20435 4.31607 5.44129 4.87868 4.87868C5.44129 4.31607 6.20435 4 7 4H10C10.7956 4 11.5587 4.31607 12.1213 4.87868C12.6839 5.44129 13 6.20435 13 7V10C13 10.7956 12.6839 11.5587 12.1213 12.1213C11.5587 12.6839 10.7956 13 10 13H7C6.20435 13 5.44129 12.6839 4.87868 12.1213C4.31607 11.5587 4 10.7956 4 10V7ZM18.9999 7C18.9999 6.20435 19.316 5.44129 19.8786 4.87868C20.4412 4.31607 21.2043 4 21.9999 4H24.9999C25.7956 4 26.5586 4.31607 27.1212 4.87868C27.6838 5.44129 27.9999 6.20435 27.9999 7V10C27.9999 10.7956 27.6838 11.5587 27.1212 12.1213C26.5586 12.6839 25.7956 13 24.9999 13H21.9999C21.2043 13 20.4412 12.6839 19.8786 12.1213C19.316 11.5587 18.9999 10.7956 18.9999 10V7ZM4 22C4 21.2043 4.31607 20.4413 4.87868 19.8787C5.44129 19.316 6.20435 19 7 19H10C10.7956 19 11.5587 19.316 12.1213 19.8787C12.6839 20.4413 13 21.2043 13 22V25C13 25.7956 12.6839 26.5587 12.1213 27.1213C11.5587 27.6839 10.7956 28 10 28H7C6.20435 28 5.44129 27.6839 4.87868 27.1213C4.31607 26.5587 4 25.7956 4 25V22Z" stroke="url(#paint0_linear)" stroke-width="3" stroke-linecap="round" stroke-linejoin="round"/>
<defs>
<linearGradient id="paint0_linear" x1="15.0421" y1="4.48244" x2="18.0137" y2="26.9921" gradientUnits="userSpaceOnUse">
<stop stop-color="#F70FA8"/>
<stop offset="1" stop-color="#F40631"/>
</linearGradient>
</defs>
</svg>
