<svg width="128" height="128" viewBox="0 0 128 128" fill="none" xmlns="http://www.w3.org/2000/svg">
<path fill-rule="evenodd" clip-rule="evenodd" d="M82.461 9.05479C79.3439 8.01357 75.882 7.49297 72.7259 8.68386C71.9502 8.96993 71.1745 9.25424 70.3988 9.53855C67.2226 10.7027 64.0475 11.8666 60.9146 13.148C52.7992 16.0635 44.7219 19.0918 36.6446 22.1199C30.9849 24.2417 25.3243 26.3638 19.6513 28.4469C19.4645 28.5272 19.2722 28.6034 19.0783 28.6803C18.2191 29.021 17.3313 29.3731 16.7685 30.1324C16.0416 31.0805 16.0395 32.2801 16.0375 33.4345C16.0371 33.7064 16.0366 33.9756 16.0267 34.2385C16.0571 39.6094 16.0475 44.9804 16.038 50.3513C16.0251 57.6178 16.0122 64.8843 16.0982 72.1508C16.0982 74.5012 16.0738 76.853 16.0492 79.2061C15.9862 85.2379 15.9231 91.2735 16.2741 97.289L16.3332 97.3358C17.8435 98.5377 19.3831 99.7631 21.2523 100.367C23.485 101.159 25.7085 101.979 27.9323 102.799C29.435 103.353 30.9386 103.908 32.4447 104.454C38.5901 106.737 44.7449 109.001 50.8993 111.265C54.8658 112.724 58.832 114.183 62.7952 115.646C62.8633 113.527 64.2655 111.967 65.6209 110.459C65.9508 110.092 66.2781 109.729 66.5829 109.36C65.6932 109.036 64.8098 108.7 63.9269 108.365L63.9264 108.364C63.2138 108.093 62.5015 107.822 61.7866 107.558C58.5459 106.425 55.3117 105.28 52.1426 103.966C55.1392 104.301 58.1227 104.731 61.1072 105.161C63.6899 105.534 66.2734 105.906 68.867 106.217C69.7214 106.308 70.5823 106.449 71.4452 106.59C73.9454 107 76.4664 107.414 78.934 106.601C79.4676 105.319 79.9361 103.985 79.8971 102.58C79.8906 79.8035 79.9296 57.0211 79.9817 34.2385C79.955 33.4063 79.9745 32.5691 79.9947 31.7315C80.0383 29.8842 80.0819 28.0353 79.6303 26.2357V26.2343C78.5631 24.5033 76.4351 24.0022 74.5805 24.653C62.581 27.4902 50.5878 30.347 38.6011 33.2037C37.2215 33.477 35.8094 34.2905 35.471 35.7546C35.2344 36.9714 35.245 38.2132 35.2557 39.4535C35.2594 39.8848 35.263 40.316 35.2563 40.7458C35.2754 48.1449 35.2721 55.5439 35.2687 62.9443V62.9468C35.2663 68.1266 35.264 73.3071 35.2693 78.489L35.2724 78.7831C35.2979 81.1974 35.3235 83.6169 35.0546 86.0246L34.4507 86.2524C30.9275 87.5818 27.3902 88.9165 23.9984 90.5538C23.2499 89.4208 23.2677 88.0797 23.2854 86.7651C23.2904 86.3884 23.2955 86.0142 23.2824 85.6472C23.3215 69.3526 23.3215 53.0645 23.2759 36.7764C22.8341 34.764 24.5876 34.1933 26.1486 33.6852C26.4956 33.5722 26.8331 33.4624 27.1348 33.3405C28.5354 32.8231 29.9363 32.3067 31.3371 31.7904C38.2871 29.2289 45.2356 26.668 52.1299 23.9763C56.3944 22.4674 60.6288 20.8789 64.8614 19.291L64.8626 19.2906C67.1461 18.4341 69.4299 17.5772 71.7172 16.7336C72.0908 16.6008 72.4682 16.4549 72.8489 16.3078C74.7256 15.5826 76.6772 14.8284 78.6737 15.4776C80.3617 15.9652 82.0432 16.48 83.7247 16.9949C86.5542 17.8612 89.3849 18.7279 92.2547 19.4667C93.1781 19.7386 94.1002 20.0153 95.0236 20.292C98.0099 21.1874 100.999 22.0838 104.027 22.8245C104.191 29.1301 104.168 35.4377 104.146 41.7451C104.129 46.6662 104.111 51.5873 104.183 56.507C105.893 55.0571 107.168 53.2364 108.444 51.4128C109.333 50.1425 110.223 48.8708 111.263 47.7219C111.473 42.6072 111.441 37.478 111.409 32.349C111.389 29.0666 111.369 25.784 111.413 22.5056C111.608 20.1109 110.567 17.2932 108.048 16.5839C107.097 16.3084 106.148 16.0293 105.199 15.7503L105.197 15.7496C102.111 14.8424 99.0263 13.9357 95.9119 13.1545C93.672 12.408 91.4068 11.7489 89.1422 11.09C86.9056 10.4392 84.669 9.78876 82.461 9.05479ZM51.371 96.5374C47.5209 95.9842 43.6714 95.4311 39.8178 94.9268C38.2105 94.699 36.6033 94.4647 35.022 94.0808C35.8942 93.3266 37.0705 92.9368 38.2373 92.5503C40.1612 91.9132 42.0593 91.2839 42.5251 89.0441C42.5272 83.7047 42.5211 78.3654 42.515 73.026C42.5023 61.901 42.4896 50.7748 42.5511 39.6461C47.6791 38.4444 52.8016 37.2244 57.9234 36.0045C62.4535 34.9256 66.9831 33.8467 71.5155 32.7807C71.6652 32.745 71.891 32.6931 72.1161 32.6412L72.1174 32.6408C72.3439 32.5888 72.5697 32.5367 72.7194 32.5009C72.7304 34.5302 72.7194 36.5595 72.7083 38.5888C72.692 41.5311 72.6758 44.4734 72.7259 47.4156C72.7207 48.9194 72.7155 50.4237 72.7103 51.9275C72.6556 67.714 72.6009 83.5004 72.6608 99.2868C65.5434 98.5742 58.4563 97.5558 51.371 96.5374ZM108.445 51.4127C107.168 53.2363 105.894 55.057 104.183 56.507C104.126 65.3973 104.133 74.2878 104.141 83.1783C104.147 90.4523 104.154 97.7263 104.124 105L103.61 105.182C101.759 105.72 99.9061 106.256 98.0541 106.792C92.0159 108.538 85.9763 110.284 79.9556 112.106C76.6232 113.539 73.4658 112.165 70.3494 110.809C69.0902 110.261 67.8375 109.716 66.5829 109.36C66.2781 109.729 65.9508 110.092 65.6209 110.459C64.2655 111.967 62.8633 113.527 62.7952 115.646C64.3836 116.194 65.9444 116.816 67.5043 117.439C69.3004 118.154 71.0958 118.87 72.9341 119.473C75.5761 120.351 78.4329 120.026 81.0619 119.271C83.8133 118.475 86.56 117.662 89.3062 116.85C95.1277 115.128 100.949 113.407 106.812 111.833C108.191 111.47 109.384 110.681 110.561 109.902C110.628 109.858 110.695 109.814 110.762 109.77C111.23 108.052 111.504 106.289 111.419 104.512C111.37 96.9402 111.389 89.3668 111.408 81.7941C111.437 70.4348 111.466 59.076 111.263 47.7219C110.224 48.8708 109.333 50.1424 108.445 51.4127Z" fill="url(#paint0_linear_640_162)"/>
<path d="M16.0982 72.1508C16.0122 64.8843 16.0251 57.6178 16.038 50.3513C16.0475 44.9804 16.0571 39.6094 16.0267 34.2385C16.0366 33.9756 16.0371 33.7064 16.0375 33.4345C16.0395 32.2801 16.0416 31.0805 16.7685 30.1324C17.3313 29.3731 18.2191 29.021 19.0783 28.6803C19.2722 28.6034 19.4645 28.5272 19.6513 28.4469C25.3243 26.3638 30.9842 24.2419 36.6439 22.1201C44.7212 19.092 52.7992 16.0635 60.9146 13.148C64.0475 11.8666 67.2226 10.7027 70.3988 9.53855C71.1745 9.25424 71.9502 8.96993 72.7259 8.68386C75.882 7.49297 79.3439 8.01357 82.461 9.05479C84.669 9.78876 86.9049 10.4392 89.1415 11.09C91.4061 11.7489 93.672 12.408 95.9119 13.1545C99.0263 13.9357 102.111 14.8424 105.197 15.7496L105.199 15.7503C106.148 16.0293 107.097 16.3084 108.048 16.5839C110.567 17.2932 111.608 20.1109 111.413 22.5056C111.369 25.784 111.389 29.0666 111.409 32.349C111.441 37.478 111.473 42.6072 111.263 47.7219M16.0982 72.1508C17.4812 71.1083 18.7127 69.9005 19.9445 68.6927C20.834 67.8207 21.7238 66.9487 22.6707 66.138M16.0982 72.1508C16.0982 74.5012 16.0738 76.853 16.0492 79.2061C15.9862 85.2379 15.9231 91.2735 16.2741 97.289L16.3332 97.3358C17.8435 98.5377 19.3831 99.7631 21.2523 100.367C23.485 101.159 25.7085 101.979 27.9323 102.799C29.435 103.353 30.9386 103.908 32.4447 104.454C38.5901 106.737 44.7449 109.001 50.8993 111.265C54.8658 112.724 58.832 114.183 62.7952 115.646M111.263 47.7219C111.466 59.076 111.437 70.4348 111.408 81.7941C111.389 89.3668 111.37 96.9402 111.419 104.512C111.504 106.289 111.23 108.052 110.762 109.77C110.695 109.814 110.628 109.858 110.561 109.902C109.384 110.681 108.191 111.47 106.812 111.833C100.949 113.407 95.1277 115.128 89.3062 116.85C86.56 117.662 83.8133 118.475 81.0619 119.271C78.4329 120.026 75.5761 120.351 72.9341 119.473C71.0958 118.87 69.3004 118.154 67.5043 117.439C65.9444 116.816 64.3836 116.194 62.7952 115.646M111.263 47.7219C110.223 48.8708 109.333 50.1425 108.444 51.4128C107.168 53.2364 105.893 55.0571 104.183 56.507M111.263 47.7219C110.224 48.8708 109.333 50.1424 108.445 51.4127C107.168 53.2363 105.894 55.057 104.183 56.507M62.7952 115.646C62.8633 113.527 64.2655 111.967 65.6209 110.459C65.9508 110.092 66.2781 109.729 66.5829 109.36M66.5829 109.36C65.6932 109.036 64.8098 108.7 63.9269 108.365L63.9264 108.364C63.2138 108.093 62.5015 107.822 61.7866 107.558C58.5459 106.425 55.3117 105.28 52.1426 103.966C55.1392 104.301 58.1227 104.731 61.1072 105.161C63.6899 105.534 66.2734 105.906 68.867 106.217C69.7214 106.308 70.5823 106.449 71.4452 106.59C73.9454 107 76.4664 107.414 78.934 106.601C79.4676 105.319 79.9361 103.985 79.8971 102.58C79.8906 79.8035 79.9296 57.0211 79.9817 34.2385C79.955 33.4063 79.9745 32.5691 79.9947 31.7315C80.0383 29.8842 80.0819 28.0353 79.6303 26.2357V26.2343C78.5631 24.5033 76.4351 24.0022 74.5805 24.653C62.581 27.4902 50.5878 30.347 38.6011 33.2037C37.2215 33.477 35.8094 34.2905 35.471 35.7546C35.2344 36.9714 35.245 38.2132 35.2557 39.4535C35.2594 39.8848 35.263 40.316 35.2563 40.7458C35.2754 48.1449 35.2721 55.5439 35.2687 62.9443V62.9468C35.2663 68.1266 35.264 73.3071 35.2693 78.489L35.2724 78.7831C35.2979 81.1974 35.3235 83.6169 35.0546 86.0246L34.4507 86.2524C30.9275 87.5818 27.3902 88.9165 23.9984 90.5538C23.2499 89.4208 23.2677 88.0797 23.2854 86.7651C23.2904 86.3884 23.2955 86.0142 23.2824 85.6472C23.3215 69.3526 23.3215 53.0645 23.2759 36.7764C22.8341 34.764 24.5876 34.1933 26.1486 33.6852C26.4956 33.5722 26.8331 33.4624 27.1348 33.3405C28.5354 32.8231 29.9363 32.3067 31.3371 31.7904C38.2871 29.2289 45.2356 26.668 52.1299 23.9763C56.3944 22.4674 60.6288 20.8789 64.8614 19.291L64.8626 19.2906C67.1461 18.4341 69.4299 17.5772 71.7172 16.7336C72.0908 16.6008 72.4682 16.4549 72.8489 16.3078C74.7256 15.5826 76.6772 14.8284 78.6737 15.4776C80.3617 15.9652 82.0432 16.48 83.7247 16.9949C86.5542 17.8612 89.3849 18.7279 92.2547 19.4667C93.1781 19.7386 94.1002 20.0153 95.0236 20.292C98.0099 21.1874 100.999 22.0838 104.027 22.8245C104.191 29.1301 104.168 35.4377 104.146 41.7451C104.129 46.6662 104.111 51.5873 104.183 56.507M66.5829 109.36C67.8375 109.716 69.0902 110.261 70.3494 110.809C73.4658 112.165 76.6232 113.539 79.9556 112.106C85.9763 110.284 92.0159 108.538 98.0541 106.792C99.9061 106.256 101.759 105.72 103.61 105.182L104.124 105C104.154 97.7263 104.147 90.4523 104.141 83.1783C104.133 74.2878 104.126 65.3973 104.183 56.507M51.371 96.5374C47.5209 95.9842 43.6714 95.4311 39.8178 94.9268C38.2105 94.699 36.6033 94.4647 35.022 94.0808C35.8942 93.3266 37.0705 92.9368 38.2373 92.5503C40.1612 91.9132 42.0593 91.2839 42.5251 89.0441C42.5272 83.7047 42.5211 78.3654 42.515 73.026C42.5023 61.901 42.4896 50.7748 42.5511 39.6461C47.6791 38.4444 52.8016 37.2244 57.9234 36.0045C62.4535 34.9256 66.9831 33.8467 71.5155 32.7807C71.6652 32.745 71.891 32.6931 72.1161 32.6412L72.1174 32.6408C72.3439 32.5888 72.5697 32.5367 72.7194 32.5009C72.7304 34.5302 72.7194 36.5595 72.7083 38.5888C72.692 41.5311 72.6758 44.4734 72.7259 47.4156C72.7207 48.9194 72.7155 50.4237 72.7103 51.9275C72.6556 67.714 72.6009 83.5004 72.6608 99.2868C65.5434 98.5742 58.4563 97.5558 51.371 96.5374Z" stroke="url(#paint1_linear_640_162)" stroke-width="3"/>
<defs>
<linearGradient id="paint0_linear_640_162" x1="63.7176" y1="120" x2="63.7176" y2="7.99999" gradientUnits="userSpaceOnUse">
<stop stop-color="#FD5900"/>
<stop offset="1" stop-color="#FFDE00"/>
</linearGradient>
<linearGradient id="paint1_linear_640_162" x1="63.7178" y1="120" x2="63.7178" y2="8" gradientUnits="userSpaceOnUse">
<stop stop-color="#FD5900"/>
<stop offset="1" stop-color="#FFDE00"/>
</linearGradient>
</defs>
</svg>
