<svg width="128" height="128" viewBox="0 0 128 128" fill="none" xmlns="http://www.w3.org/2000/svg">
<path d="M101.438 55.7811C99.8989 56.5506 99.3339 58.4496 100.049 60.0144C100.892 61.8581 101.563 63.7511 102.061 65.6934C102.816 68.6387 103.212 71.6784 103.25 74.8125V78.795C103.25 79.9299 102.61 80.9677 101.595 81.4766L68.345 98.1535C67.4986 98.5781 66.5014 98.5781 65.655 98.1535L32.405 81.4766C31.3905 80.9677 30.7489 79.9299 30.7544 78.7949C30.7619 77.2187 30.7794 75.7213 30.8066 74.3027C30.8444 72.3392 31.0143 70.4323 31.3164 68.582C31.6185 66.7318 32.0716 64.8815 32.6758 63.0312C32.993 62.0597 33.3936 61.0621 33.8774 60.0384C34.6214 58.4644 34.07 56.535 32.5128 55.7564L27.8416 53.4208C25.8469 52.4235 23.5 53.874 23.5 56.1041V82.3592C23.5 83.6391 24.3392 84.7376 25.4382 85.3936C25.7893 85.6032 26.125 85.8333 26.4453 86.084C27.3138 86.7637 28.0879 87.5566 28.7676 88.4629C29.4473 89.3691 29.9382 90.3509 30.2402 91.4082C30.5423 92.4655 30.7122 93.5794 30.75 94.75V109.875C30.75 111.532 29.4069 112.875 27.75 112.875H12C10.3431 112.875 9 111.532 9 109.875V94.75C9 93.6172 9.16992 92.5221 9.50977 91.4648C9.84961 90.4076 10.3405 89.4069 10.9824 88.4629C11.6243 87.5189 12.3796 86.7259 13.248 86.084C13.5937 85.8285 13.9603 85.5909 14.3479 85.3713C15.4429 84.7508 16.25 83.6613 16.25 82.4027V49.4791C16.25 48.3428 15.608 47.304 14.5916 46.7958L14.3666 46.6833C12.1554 45.5777 12.1554 42.4223 14.3666 41.3167L65.6584 15.6708C66.5029 15.2485 67.4971 15.2485 68.3416 15.6708L119.633 41.3167C121.845 42.4223 121.845 45.5777 119.633 46.6833L101.438 55.7811ZM23.5 94.75C23.5 93.7682 23.1413 92.9186 22.4238 92.2012C21.7064 91.4837 20.8568 91.125 19.875 91.125C18.8932 91.125 18.0436 91.4837 17.3262 92.2012C16.6087 92.9186 16.25 93.7682 16.25 94.75V102.625C16.25 104.282 17.5931 105.625 19.25 105.625H20.5C22.1569 105.625 23.5 104.282 23.5 102.625V94.75ZM30.5658 41.3167C28.3546 42.4223 28.3546 45.5777 30.5658 46.6833L65.6584 64.2296C66.5029 64.6519 67.4971 64.6519 68.3416 64.2296L103.434 46.6833C105.645 45.5777 105.645 42.4223 103.434 41.3167L68.3416 23.7704C67.4971 23.3481 66.5029 23.3481 65.6584 23.7704L30.5658 41.3167ZM94.3416 77.0011C95.358 76.4929 96.0097 75.4535 95.9604 74.3183C95.8646 72.1086 95.5945 70.0266 95.1504 68.0723C94.7722 66.4084 94.2005 64.7193 93.4353 63.005C92.7788 61.5343 91.0102 60.9949 89.5698 61.7151L68.3416 72.3292C67.4971 72.7515 66.5029 72.7515 65.6584 72.3292L44.3946 61.6973C42.9686 60.9843 41.2174 61.5054 40.5666 62.9609C39.9342 64.3755 39.4185 65.8338 39.0195 67.3359C38.3776 69.7526 38.0378 72.2448 38 74.8125V74.8125C38 75.6456 38.4707 76.4072 39.2159 76.7798L65.6584 90.0011C66.5029 90.4233 67.4971 90.4233 68.3416 90.0011L94.3416 77.0011Z" fill="url(#paint0_linear_678_253)" stroke="url(#paint1_linear_678_253)" stroke-width="3"/>
<defs>
<linearGradient id="paint0_linear_678_253" x1="67" y1="15" x2="67" y2="112.875" gradientUnits="userSpaceOnUse">
<stop stop-color="#0EEBB6"/>
<stop offset="1" stop-color="#04B6CE"/>
</linearGradient>
<linearGradient id="paint1_linear_678_253" x1="67" y1="15" x2="67" y2="112.875" gradientUnits="userSpaceOnUse">
<stop stop-color="#0EEBB6"/>
<stop offset="1" stop-color="#04B6CE"/>
</linearGradient>
</defs>
</svg>
