<svg width="128" height="128" viewBox="0 0 128 128" fill="none" xmlns="http://www.w3.org/2000/svg">
<path d="M42.5632 67.0703C41.0493 66.5138 39.312 67.1859 38.7029 68.5695L31.2378 85.4681C30.6288 86.8465 31.3712 88.4115 32.8938 88.9629C34.3872 89.5081 36.1384 88.8604 36.754 87.4636L44.2191 70.565C44.8281 69.1865 44.0856 67.6217 42.5632 67.0703ZM49.9674 66.4742C48.8073 65.4239 46.9278 65.4239 45.7678 66.4742C44.6078 67.5244 44.6078 69.226 45.7678 70.2761L55.1877 78.8042C56.3479 79.8544 58.2272 79.8544 59.3872 78.8042C60.5473 77.754 60.5473 76.0524 59.3872 75.0022L49.9674 66.4742ZM95.9359 53.2831L85.2457 40.3753C84.2597 39.1834 82.3976 38.9444 81.0897 39.8371C80.4287 40.285 80.0333 40.9344 79.9285 41.6204C79.6153 40.9895 79.036 40.4673 78.2648 40.2047C76.7189 39.6849 75.0166 40.3859 74.4395 41.7773L60.791 74.7241C60.2168 76.1157 60.9939 77.6647 62.5281 78.1872C64.0887 78.7096 65.7848 77.9884 66.3534 76.6145L80.002 43.6679C80.0811 43.4757 80.1322 43.2807 80.1616 43.0859C80.2503 43.264 80.3598 43.4368 80.495 43.5997L91.1854 56.5073C92.1656 57.6952 94.0267 57.9382 95.3413 57.0455C96.6552 56.1554 96.9222 54.4698 95.9359 53.2831Z" fill="url(#paint0_linear_618_20)"/>
<path d="M31.7889 99.5259C36.7018 99.5259 40.6984 95.9076 40.6984 91.4599C40.6984 87.0121 36.7018 83.394 31.7889 83.394C26.876 83.394 22.8794 87.0121 22.8794 91.4599C22.8794 95.9076 26.876 99.5259 31.7889 99.5259ZM43.6682 72.6392C48.5811 72.6392 52.5777 69.0211 52.5777 64.5733C52.5777 60.1255 48.5811 56.5073 43.6682 56.5073C38.7553 56.5073 34.7587 60.1255 34.7587 64.5733C34.7587 69.0211 38.7553 72.6392 43.6682 72.6392ZM61.4872 88.7713C66.4001 88.7713 70.3966 85.153 70.3966 80.7052C70.3966 76.2575 66.4001 72.6392 61.4872 72.6392C56.5742 72.6392 52.5777 76.2575 52.5777 80.7052C52.5777 85.153 56.5742 88.7713 61.4872 88.7713ZM79.3061 45.7526C84.219 45.7526 88.2156 42.1345 88.2156 37.6867C88.2156 33.239 84.219 29.6207 79.3061 29.6207C74.3932 29.6207 70.3966 33.239 70.3966 37.6867C70.3966 42.1345 74.3932 45.7526 79.3061 45.7526ZM97.1251 67.2619C102.038 67.2619 106.035 63.6437 106.035 59.196C106.035 54.7482 102.038 51.13 97.1251 51.13C92.2122 51.13 88.2156 54.7482 88.2156 59.196C88.2156 63.6437 92.2122 67.2619 97.1251 67.2619Z" fill="url(#paint1_linear_618_20)"/>
<path d="M110.603 15H17.3966C13.8638 15 11 17.8638 11 21.3966V107.293C11 110.826 13.8638 113.69 17.3966 113.69H110.603C114.136 113.69 117 110.826 117 107.293V21.3966C117 17.8638 114.136 15 110.603 15Z" stroke="url(#paint2_linear_618_20)" stroke-width="12" stroke-linecap="round"/>
<defs>
<linearGradient id="paint0_linear_618_20" x1="63.778" y1="89.1555" x2="63.778" y2="39.2974" gradientUnits="userSpaceOnUse">
<stop stop-color="#FFBEF9"/>
<stop offset="1" stop-color="#FFF1FF"/>
</linearGradient>
<linearGradient id="paint1_linear_618_20" x1="55.3495" y1="115.837" x2="55.3495" y2="24.0641" gradientUnits="userSpaceOnUse">
<stop stop-color="#9000FF"/>
<stop offset="1" stop-color="#FF0CFF"/>
</linearGradient>
<linearGradient id="paint2_linear_618_20" x1="64" y1="119.172" x2="64" y2="9.51724" gradientUnits="userSpaceOnUse">
<stop stop-color="#9000FF"/>
<stop offset="1" stop-color="#FF00FF"/>
</linearGradient>
</defs>
</svg>
