<svg width="64" height="64" viewBox="0 0 64 64" fill="none" xmlns="http://www.w3.org/2000/svg">
<path d="M27.0015 41.0011C24.9983 44.4821 21.0751 46.697 17.458 47.3508C15.5493 47.691 13.5574 47.366 11.7508 46.6554C9.92434 45.9257 8.28893 44.788 6.9696 43.3293C4.31254 40.4077 2.95944 36.3522 2.95944 32.3458C2.95944 28.3394 4.31254 24.2802 6.9696 21.3661C8.28745 19.9065 9.92156 18.7675 11.747 18.0363C13.5606 17.3174 15.5294 17.0804 17.4618 17.3484C20.9919 17.8548 24.1063 20.1188 26.4194 22.9233C28.7401 25.724 30.3616 29.0538 31.9603 32.3496C33.5629 35.6416 35.1843 38.9715 37.5012 41.7722C39.8181 44.5766 42.9325 46.8406 46.4589 47.3471C48.3916 47.6138 50.3604 47.3755 52.1736 46.6554C53.9987 45.9252 55.6328 44.7876 56.9511 43.3293C59.6081 40.4115 60.9612 36.356 60.9612 32.3496C60.9612 28.3432 59.6081 24.2839 56.9511 21.3699C55.6332 19.9103 53.9991 18.7713 52.1736 18.04C50.3616 17.3205 48.3941 17.0823 46.4627 17.3484C42.9325 17.8548 39.8181 20.1188 37.5012 22.9233" stroke="url(#paint0_linear)" stroke-width="5.00004" stroke-linecap="round"/>
<path d="M47.8309 28.0522V38.0493M42.8304 33.0526H52.8313H42.8304ZM11.4068 33.2378H21.4077H11.4068Z" stroke="url(#paint1_linear)" stroke-width="5.00041" stroke-linecap="round" stroke-linejoin="round"/>
<defs>
<linearGradient id="paint0_linear" x1="31.9603" y1="47.4864" x2="31.9603" y2="17.2413" gradientUnits="userSpaceOnUse">
<stop stop-color="#02AA93"/>
<stop offset="1" stop-color="#67FF80"/>
</linearGradient>
<linearGradient id="paint1_linear" x1="32.119" y1="38.0493" x2="32.119" y2="28.0522" gradientUnits="userSpaceOnUse">
<stop stop-color="#A93AFF"/>
<stop offset="1" stop-color="#FF81FF"/>
</linearGradient>
</defs>
</svg>
