<svg width="128" height="128" viewBox="0 0 128 128" fill="none" xmlns="http://www.w3.org/2000/svg">
<path d="M103.905 7.03342C107.743 7.01886 111.426 8.41177 114.586 10.5048C118.373 13.429 121.085 17.6806 121.866 22.399C122.036 25.6334 122.007 28.8752 121.977 32.1166C121.964 33.4716 121.951 34.8277 121.955 36.1821L121.953 72.7482C121.999 83.2322 122.003 93.7162 121.961 104.201C121.902 110.633 117.983 116.773 112.245 119.742C109.262 121.36 105.813 121.915 102.44 121.885C98.8087 121.879 95.1776 121.877 91.546 121.877C87.0436 121.876 83.4773 121.885 83.4194 121.885C83.4175 121.885 83.4203 121.885 83.4185 121.885C83.3596 121.885 59.4427 121.881 50.2164 121.874L45.597 121.871C42.9395 121.865 40.281 121.872 37.6223 121.879C33.1909 121.89 28.7584 121.901 24.329 121.856C20.4173 121.892 16.6898 120.471 13.4337 118.421L13.1021 118.229C12.9798 118.158 12.8652 118.075 12.7612 117.979C9.32644 114.809 6.54085 110.648 6.19245 105.907C6.05245 104.361 5.99332 102.815 6.0006 101.269C6.01674 90.1056 6.01311 78.9423 6.00947 67.7783V67.7094C6.0048 53.3789 6.00025 39.0485 6.03744 24.7181C6.01538 15.4564 14.2514 7.18661 23.5998 7.04809C34.4142 6.98236 45.236 6.98975 56.0504 7.0407C57.951 6.8949 60.0728 8.14713 60.0728 9.49C60.0728 9.82515 60.0947 10.1811 60.117 10.5449C60.2063 12.0019 60.3038 13.5954 59.0486 14.5813C58.0393 15.5074 56.5955 15.5658 55.2916 15.6096C51.1644 15.6213 47.0359 15.612 42.9068 15.6026H42.9043C36.7089 15.5885 30.5114 15.5745 24.3144 15.6314C19.0766 15.5147 14.4356 20.1893 14.7081 25.3889C14.6705 38.8165 14.6771 52.245 14.6836 65.6735V65.7345V65.8011C14.69 78.6432 14.6963 91.4858 14.664 104.33L14.6642 104.332C14.8483 106.206 15.5998 107.986 16.7122 109.51C17.0566 109.957 17.4271 110.387 17.797 110.816C17.7973 110.816 17.7975 110.817 17.7977 110.817V110.817C17.7979 110.817 17.7982 110.818 17.7984 110.818L17.802 110.822C17.8393 110.865 17.8767 110.909 17.914 110.952C18.0601 111.122 18.2322 111.267 18.4262 111.379C20.2543 112.431 22.2422 113.334 24.4027 113.272C28.6081 113.307 32.8117 113.3 37.0146 113.293H37.2128C41.8228 113.286 46.4319 113.279 51.041 113.323C61.8333 113.272 72.6264 113.272 83.4186 113.316C86.6481 113.279 89.8797 113.287 93.1112 113.295H93.1131C96.691 113.303 100.27 113.312 103.846 113.258C108.76 113.295 113.202 109.057 113.291 104.179C113.384 100.719 113.359 97.2567 113.335 93.7944V93.7357C113.305 89.54 113.275 85.3444 113.452 81.1562V46.1224C113.452 46.1053 113.432 46.0961 113.419 46.1075V46.1075C113.406 46.1188 113.386 46.1099 113.386 46.0929C113.316 42.2091 113.327 38.3231 113.339 34.4374V34.4352C113.348 31.4265 113.356 28.4179 113.327 25.4109C113.372 22.9313 112.421 20.4956 110.726 18.6797L109.81 17.6984C109.695 17.5752 109.565 17.4669 109.423 17.3771C107.562 16.2057 105.592 15.1618 103.379 15.197C100.095 15.1775 96.8835 15.1839 93.6236 15.1904H93.6125C92.5988 15.1924 91.5808 15.1944 90.5544 15.1957C89.471 15.197 88.5872 16.0595 88.5814 17.1429C88.5741 18.5086 88.5812 20.0767 88.5899 21.2825C88.5978 22.3763 89.4848 23.2555 90.5786 23.2569C92.5251 23.2594 95.5586 23.2621 98.0142 23.2587C99.1218 23.2572 100.022 24.154 100.022 25.2617V29.9821C100.022 31.0866 99.1264 31.9821 98.0219 31.9821H90.6079C89.5034 31.9821 88.6079 32.8775 88.6079 33.9821V36.6962C88.6079 37.8008 89.5034 38.6962 90.6079 38.6962H98.0123C99.1206 38.6962 100.018 39.5958 100.014 40.7041C100.01 42.0574 100.007 43.8686 100.01 45.4016C100.013 46.5154 99.112 47.4245 97.9983 47.4245H90.6079C89.5034 47.4245 88.6079 48.3199 88.6079 49.4245V52.8099C88.6079 53.9145 89.5034 54.8099 90.6079 54.8099H98.0219C99.1264 54.8099 100.022 55.7054 100.022 56.8099V93.7518C100.022 95.8895 97.6343 95.8002 96.8481 95.7707C96.7696 95.7681 96.7078 95.7653 96.6648 95.766C90.9632 95.8317 83.5743 95.868 77.8654 95.766C75.7868 95.7291 75.8096 94.1815 75.8425 91.9659C75.8471 91.6764 75.8512 91.3763 75.8512 91.0662V65.5383C75.8512 64.4337 76.7467 63.5383 77.8512 63.5383H85.2651C86.3696 63.5383 87.2651 62.6428 87.2651 61.5383V57.4814C87.2651 56.3768 86.3696 55.4814 85.2651 55.4814H77.8512C76.7467 55.4814 75.8509 54.586 75.8421 53.4814C75.836 52.7088 75.8275 51.9116 75.8189 51.1143C75.8101 50.3192 75.8015 49.5238 75.7953 48.753C75.7864 47.6485 76.6815 46.7531 77.7861 46.7531H85.2638C86.3684 46.7531 87.2638 45.8576 87.2638 44.7531V41.3676C87.2638 40.263 86.3684 39.3676 85.2638 39.3676H77.8512C76.7467 39.3676 75.8512 38.4722 75.8512 37.3676V33.3565C75.8512 32.2519 76.7467 31.3565 77.8512 31.3565H85.2638C86.3684 31.3565 87.2638 30.461 87.2638 29.3565V25.9252C87.2638 24.8206 86.3684 23.9252 85.2638 23.9252H77.79C76.6841 23.9252 75.7883 23.0278 75.7967 21.922C75.8014 21.3075 75.8071 20.6923 75.8129 20.0772V20.0753C75.8384 17.3109 75.864 14.5449 75.7935 11.8399C75.7572 9.39686 77.8493 6.99703 80.3094 7.05537C86.8584 6.97633 93.4122 6.99862 99.9673 7.02091H99.9708C101.282 7.02534 102.594 7.02978 103.905 7.03342Z" fill="url(#paint0_linear_625_65)" stroke="url(#paint1_linear_625_65)" stroke-width="3"/>
<defs>
<linearGradient id="paint0_linear_625_65" x1="64.0006" y1="6.99987" x2="64.0006" y2="121.889" gradientUnits="userSpaceOnUse">
<stop stop-color="#DCFF4F"/>
<stop offset="1" stop-color="#00BF58"/>
</linearGradient>
<linearGradient id="paint1_linear_625_65" x1="64.0006" y1="6.99987" x2="64.0006" y2="121.889" gradientUnits="userSpaceOnUse">
<stop stop-color="#DCFF4F"/>
<stop offset="1" stop-color="#00BF58"/>
</linearGradient>
</defs>
</svg>
