<svg width="512" height="512" viewBox="0 0 512 512" fill="none" xmlns="http://www.w3.org/2000/svg">
<path d="M455.822 256C481.924 217.671 499.956 168.543 476.837 128.5C453.72 88.461 402.214 79.553 356.139 82.934C336.11 40.973 302.524 0 256.001 0C209.493 0 175.903 40.948 155.863 82.934C109.801 79.554 58.2817 88.458 35.1647 128.5C12.0687 168.503 30.0297 217.6 56.1797 256C30.0777 294.33 12.0457 343.457 35.1647 383.5C58.3687 423.689 109.959 432.435 155.863 429.066C175.892 471.027 209.478 512 256.001 512C302.509 512 336.099 471.052 356.139 429.066C402.06 432.436 453.642 423.676 476.837 383.5C499.933 343.497 481.972 294.399 455.822 256ZM349.632 155.26C332.659 144.013 314.73 133.659 296.495 124.576C310.416 120.475 324.102 117.353 337.369 115.278C342.155 127.804 346.255 141.194 349.632 155.26ZM256.001 30C280.455 30 305.249 50.705 324.611 87.032C302.38 91.115 279.274 97.758 256.001 106.716C232.728 97.758 209.622 91.115 187.391 87.032C206.753 50.705 231.547 30 256.001 30ZM174.634 115.279C187.901 117.354 201.587 120.476 215.508 124.577C197.283 133.655 179.353 144.007 162.371 155.261C165.747 141.194 169.847 127.804 174.634 115.279V115.279ZM61.1457 368.5C48.9567 347.388 54.2397 315.84 75.5367 281.269C90.1457 298.402 107.386 315.015 126.695 330.623C130.538 355.14 136.271 378.393 143.762 399.656C103.237 400.791 73.3217 389.59 61.1457 368.5V368.5ZM121.936 286.641C111.46 276.67 101.944 266.415 93.5347 256C101.944 245.585 111.461 235.33 121.936 225.359C120.69 245.666 120.689 266.309 121.936 286.641ZM126.695 181.377C107.386 196.986 90.1457 213.599 75.5367 230.731C54.2397 196.16 48.9567 164.611 61.1457 143.5C76.0657 117.659 113.563 111.498 143.763 112.343C136.272 133.606 130.538 156.86 126.695 181.377ZM162.371 356.74C179.314 367.968 197.236 378.322 215.508 387.424C201.587 391.525 187.901 394.647 174.634 396.722C169.847 384.196 165.748 370.807 162.371 356.74ZM256.001 482C231.547 482 206.753 461.295 187.391 424.968C209.622 420.885 232.728 414.242 256.001 405.283C279.274 414.241 302.38 420.884 324.611 424.968C305.249 461.295 280.455 482 256.001 482V482ZM337.368 396.721C324.102 394.646 310.415 391.524 296.494 387.423C314.76 378.324 332.682 367.971 349.631 356.739C346.254 370.807 342.155 384.196 337.368 396.721ZM357.327 314.482C326.756 337.81 291.55 358.147 256.001 372.985C220.514 358.172 185.299 337.85 154.675 314.482C149.779 276.331 149.77 235.734 154.675 197.518C185.247 174.189 220.452 153.853 256.001 139.015C291.49 153.828 326.703 174.151 357.327 197.518C362.223 235.669 362.231 276.266 357.327 314.482ZM450.856 143.5C463.045 164.612 457.762 196.16 436.465 230.731C421.856 213.598 404.616 196.986 385.307 181.377C381.464 156.86 375.731 133.606 368.24 112.343C398.364 111.5 435.92 117.63 450.856 143.5V143.5ZM390.066 225.359C400.542 235.33 410.058 245.585 418.467 256C410.058 266.415 400.541 276.67 390.066 286.641C391.312 266.334 391.314 245.691 390.066 225.359ZM450.856 368.5C438.679 389.591 408.771 400.791 368.239 399.656C375.73 378.393 381.463 355.139 385.306 330.623C404.615 315.014 421.855 298.401 436.464 281.269C457.762 315.84 463.045 347.388 450.856 368.5ZM256.001 181C214.646 181 181.001 214.645 181.001 256C181.001 297.355 214.646 331 256.001 331C297.356 331 331.001 297.355 331.001 256C331.001 214.645 297.356 181 256.001 181V181ZM256.001 301C231.188 301 211.001 280.813 211.001 256C211.001 231.187 231.188 211 256.001 211C280.814 211 301.001 231.187 301.001 256C301.001 280.813 280.814 301 256.001 301V301Z" fill="url(#paint0_linear)"/>
<defs>
<linearGradient id="paint0_linear" x1="57.595" y1="256" x2="434.114" y2="218.378" gradientUnits="userSpaceOnUse">
<stop stop-color="#8D01A2"/>
<stop offset="1" stop-color="#FF00D2"/>
</linearGradient>
</defs>
</svg>
