<svg width="192" height="192" viewBox="0 0 192 192" fill="none" xmlns="http://www.w3.org/2000/svg">
<path d="M74.0139 10.2164C83.8381 8.10661 94.0007 7.47258 104.017 8.44549C101.614 12.3371 98.941 16.0648 96.8656 20.1314C86.3083 19.9127 75.6945 21.6071 65.8477 25.3348C65.374 25.0287 64.4378 24.3947 63.9754 24.0886C67.0208 19.2678 70.6301 14.8186 74.0139 10.2164Z" fill="#AE1AE2"/>
<path d="M104.017 8.4455C111.72 9.21071 119.289 10.9926 126.553 13.5615C124.184 17.0159 121.883 20.514 119.559 24.0012C112.239 21.6618 104.569 20.4156 96.8656 20.1314C98.941 16.0648 101.614 12.3371 104.017 8.4455Z" fill="#B71CDC"/>
<path d="M8.18835 138.652C16.7042 128.54 23.6747 117.302 32.2921 107.278C32.371 109.355 32.4612 111.432 32.5064 113.498C32.4838 121.795 33.0703 130.081 32.6643 138.368C32.45 139.832 32.5064 141.92 30.8258 142.609C26.3141 144.282 21.4527 142.718 16.9974 141.603C17.1328 150.206 15.6101 159.159 18.7119 167.446C16.5688 169.785 14.2791 172.004 11.8879 174.125C5.75204 163.259 8.89894 150.436 8.18835 138.652Z" fill="#B71CDC"/>
<path d="M20.7872 44.2246C33.6117 27.226 52.8428 14.9389 74.0139 10.2164C70.6301 14.8186 67.0208 19.2678 63.9754 24.0886C64.4378 24.3947 65.374 25.0287 65.8477 25.3348C38.3941 35.4903 18.1479 61.4965 15.7793 89.9187C11.1999 94.5974 8.13195 100.446 3.47363 105.059C1.12756 83.633 7.59055 61.5184 20.7872 44.2246Z" fill="#A617E8"/>
<path d="M126.553 13.5615C144.092 19.9346 159.409 31.6423 170.102 46.5312L170.045 46.6186C167.586 50.0074 165.432 53.8991 161.439 55.823C157.063 49.2531 151.694 43.3173 145.535 38.245C138.001 31.8391 129.034 27.1057 119.559 24.0012C121.883 20.514 124.184 17.0159 126.553 13.5615Z" fill="#C721D1"/>
<path opacity="0.27" d="M65.8477 25.3348C75.6945 21.6071 86.3083 19.9127 96.8656 20.1314C104.569 20.4156 112.239 21.6618 119.559 24.0012C129.034 27.1057 138.001 31.8391 145.535 38.245C142.716 38.8791 140.809 36.3539 138.633 35.1186C120.879 23.6404 98.1063 20.0221 77.4202 24.9085C63.7385 27.9912 51.2863 35.0749 40.9432 44.17C28.2766 56.7194 18.9149 73.2261 17.8321 90.9791C17.0538 91.3726 16.2868 91.7771 15.5198 92.1925C15.5762 91.624 15.7116 90.4871 15.7793 89.9187C18.1479 61.4965 38.3941 35.4903 65.8477 25.3348Z" fill="black"/>
<path opacity="0.27" d="M70.7768 57.3425C72.8521 51.3411 75.593 44.7275 81.7176 41.6447C84.3344 41.0544 86.3308 43.044 87.7407 44.8805C85.733 44.9898 83.6012 44.5635 81.695 45.3068C78.6609 47.0668 76.6307 50.073 75.0629 53.0792C68.927 66.4485 66.5696 81.1187 65.8477 95.6468C66.2087 102.523 66.6034 109.421 67.8442 116.209C67.7088 116.942 67.4381 118.406 67.3028 119.139C66.829 119.172 66.3553 119.183 65.8929 119.194C65.938 116.723 65.9605 114.241 65.8026 111.771C63.4565 93.5808 64.3927 74.7128 70.7768 57.3425Z" fill="black"/>
<path opacity="0.27" d="M96.6739 45.1319C99.9448 48.8159 99.2906 54.074 99.426 58.5778C98.6139 73.1387 93.527 87.0655 87.8309 100.424C83.3644 110.787 78.5256 120.997 73.1003 130.923C71.6904 133.241 71.3858 135.941 71.273 138.586C70.6301 135.799 69.0285 132.716 70.7993 130.016C75.3674 121.456 79.6648 112.766 83.5561 103.9C89.004 91.7224 94.2263 79.2822 96.6175 66.1534C97.892 59.2337 98.4221 52.0188 96.6739 45.1319Z" fill="black"/>
<path opacity="0.27" d="M117.394 119.04C119.221 118.035 120.236 120.145 121.342 121.172C117.642 122.09 117.101 125.621 116.503 128.715C115.837 125.49 115.612 121.981 117.394 119.04Z" fill="black"/>
<path opacity="0.27" d="M132.587 126.037C134.414 126.802 134.504 128.835 135.012 130.431C137.245 139.319 140.37 148.053 141.497 157.17C138.508 149.857 136.952 142.095 134.753 134.541C133.997 131.71 133.309 128.868 132.587 126.037Z" fill="black"/>
<path opacity="0.27" d="M50.6433 162.92C55.8092 156.503 60.2645 149.572 64.0769 142.325C64.3814 144.128 64.6747 145.943 65.0244 147.747C61.5504 151.004 59.6442 155.366 56.8695 159.138C51.3314 166.691 45.5 174.311 37.6271 179.744C32.9688 182.815 26.7765 185.319 21.3061 182.695C18.0802 180.935 13.7377 179.252 13.061 175.262C17.1892 179.339 23.3025 182.542 29.2918 180.651C38.3828 177.514 44.9248 170.113 50.6433 162.92Z" fill="black"/>
<path d="M74.8373 36.4413C78.582 33.2602 84.3006 31.7189 88.8574 34.1894C92.7036 36.1024 94.4857 40.1143 96.3468 43.6562C94.0233 45.8753 91.6885 48.0835 89.3085 50.2589C88.8799 48.4442 88.3385 46.6514 87.7407 44.8805C86.3308 43.044 84.3344 41.0545 81.7176 41.6448C75.593 44.7275 72.8522 51.3411 70.7768 57.3425C64.3927 74.7128 63.4566 93.5808 65.8026 111.771C63.6821 115.16 61.2797 118.363 58.6178 121.369C54.5572 98.8717 55.1663 75.172 63.3663 53.593C65.9718 47.2417 69.4797 40.9998 74.8373 36.4413Z" fill="#B61CDD"/>
<path d="M89.3085 50.2588C91.6884 48.0835 94.0232 45.8753 96.3468 43.6562L96.6739 45.1319C98.4221 52.0188 97.892 59.2337 96.6175 66.1534C94.2263 79.2822 89.004 91.7224 83.5561 103.9C79.6648 112.766 75.3674 121.456 70.7993 130.016C69.0285 132.716 70.6301 135.799 71.273 138.586C72.9424 144.128 74.6794 149.649 76.7773 155.06C74.4538 157.214 72.2543 159.487 70.1902 161.892C67.9457 157.378 65.9831 152.688 65.0244 147.747C64.6747 145.943 64.3814 144.128 64.0769 142.325C60.2645 149.572 55.8092 156.503 50.6434 162.92C44.9248 170.113 38.3828 177.514 29.2918 180.651C23.3025 182.542 17.1892 179.339 13.061 175.262C12.7677 174.977 12.1812 174.409 11.8879 174.125C14.2791 172.004 16.5688 169.785 18.7119 167.446C19.1292 168.003 19.9639 169.118 20.3812 169.676C21.2384 170.703 22.1972 171.654 23.1333 172.627C25.9982 172.441 29.3143 172.78 31.5927 170.703C42.7366 161.477 50.2486 149.015 57.2755 136.739C59.9713 132.027 59.5314 126.474 58.6178 121.369C61.2797 118.363 63.6821 115.16 65.8026 111.771C65.9605 114.241 65.938 116.723 65.8929 119.193C66.3553 119.183 66.829 119.172 67.3028 119.139C67.4381 118.406 67.7088 116.942 67.8442 116.209C74.905 104.108 80.3077 91.143 84.9547 78.0142C87.7069 69.0503 90.3349 59.6928 89.3085 50.2588Z" fill="#C320D4"/>
<path d="M161.439 55.823C165.432 53.8991 167.586 50.0074 170.045 46.6186C174.128 52.15 177.32 58.2499 179.982 64.5355C177.061 68.3507 174.094 72.1439 170.677 75.5655C168.466 68.6349 165.421 61.9666 161.439 55.823Z" fill="#D526C7"/>
<path d="M170.677 75.5655C174.094 72.1439 177.061 68.3507 179.982 64.5355C180.93 67.0826 181.888 69.6296 182.633 72.2532C185.87 83.3707 187.032 95.0893 185.622 106.589C184.956 111.356 186.479 116.133 185.644 120.888C184.438 129.579 178.809 137.537 170.959 141.877C166.774 144.205 161.8 142.849 157.334 142.27C156.251 140.86 156.533 138.958 156.409 137.318C156.409 123.052 156.521 108.798 156.499 94.5318C156.578 92.9577 156.499 90.6948 158.428 90.0936C163.594 88.3992 169.222 89.9624 173.655 92.7609C173.203 86.9453 172.211 81.1953 170.677 75.5655Z" fill="#E029BF"/>
<path opacity="0.24" d="M182.633 72.2532L183.795 71.9362C186.896 81.4467 188.227 91.5147 188.16 101.452C185.689 111.815 190.212 123.227 184.325 132.847C180.4 139.395 173.891 146.676 165.24 145.79C162.341 145.615 157.672 146.195 157.334 142.27C161.8 142.849 166.774 144.205 170.959 141.877C178.809 137.537 184.438 129.579 185.644 120.888C186.479 116.133 184.956 111.356 185.622 106.589C187.032 95.0893 185.87 83.3707 182.633 72.2532Z" fill="black"/>
<path d="M3.47366 105.059C8.13198 100.446 11.1999 94.5974 15.7793 89.9187C15.7116 90.4871 15.5763 91.624 15.5199 92.1925C16.2869 91.7771 17.0538 91.3726 17.8321 90.9791C21.8588 88.6944 26.7653 89.5798 31.119 90.2138C32.7207 91.6022 32.3033 93.8431 32.371 95.7015C32.2695 99.5604 32.2808 103.419 32.2921 107.278C23.6747 117.302 16.7042 128.54 8.18837 138.652C7.78232 132.825 5.61671 127.392 3.80075 121.905C1.93968 116.373 4.03762 110.678 3.47366 105.059Z" fill="#B01AE1"/>
<path opacity="0.17" d="M32.5064 113.498C33.5892 106.491 31.886 99.3199 33.7809 92.4111C34.5705 94.5865 35.2811 96.8821 34.7735 99.2106C33.6681 104.622 35.2585 110.033 35.078 115.466C34.9991 123.839 35.2359 132.224 35.1006 140.598C35.2021 143.265 33.5102 146.031 30.6453 146.501C26.9683 147.124 23.2461 146.359 19.5917 145.932C18.7908 153.858 19.3097 161.805 20.3812 169.676C19.9639 169.118 19.1292 168.003 18.7119 167.446C15.6101 159.159 17.1328 150.206 16.9974 141.603C21.4527 142.718 26.3141 144.282 30.8258 142.609C32.5064 141.92 32.45 139.832 32.6643 138.368C33.0703 130.081 32.4838 121.795 32.5064 113.498Z" fill="black"/>
<path d="M109.013 116.668C111.709 111.082 119.875 109.355 124.973 112.831C129.485 115.827 131.177 121.183 132.587 126.037C133.309 128.868 133.997 131.71 134.753 134.541C132.136 136.323 129.62 138.258 127.286 140.39L127.207 140.455C125.334 134.017 124.432 127.217 121.342 121.172C120.236 120.145 119.221 118.035 117.394 119.04C115.612 121.981 115.837 125.49 116.503 128.715C117.281 132.574 118.116 136.433 119.176 140.237C116.92 142.948 114.709 145.692 112.532 148.468C111.066 143.932 109.69 139.362 108.54 134.749C107.231 128.846 106.34 122.342 109.013 116.668Z" fill="#D425C8"/>
<path d="M103.588 128.004C104.118 128.07 105.19 128.212 105.72 128.278C106.43 132.027 107.197 135.766 107.705 139.548C108.314 144.314 108.946 149.08 109.69 153.825C107.22 156.427 104.806 159.072 102.392 161.728C100.317 152.939 99.8546 143.899 98.0274 135.066L98.1514 134.913C99.9561 132.596 101.772 130.3 103.588 128.004Z" fill="#D425C8"/>
<path d="M82.9132 122.987C84.4697 115.488 96.0422 112.809 101.005 118.658C103.396 121.413 104.592 124.9 105.72 128.278C105.19 128.212 104.118 128.07 103.588 128.004C101.772 130.3 99.9561 132.596 98.1514 134.913C97.2604 131.918 96.5498 128.868 95.467 125.949C94.8241 124.9 92.9517 121.883 91.8238 123.992C89.9402 129.163 91.8125 134.771 92.2975 140.062C89.5341 142.729 86.9963 145.593 84.7066 148.632C83.8494 140.128 81.3228 131.535 82.9132 122.987Z" fill="#CB23CE"/>
<path opacity="0.24" d="M91.8238 123.992C92.9517 121.883 94.8241 124.9 95.467 125.949C94.2939 127.37 92.4554 128.638 92.7261 130.715C93.2224 142.379 97.0009 153.836 95.9181 165.587C95.5121 170.321 92.2637 175.458 87.0414 176.103C80.725 177.415 74.0929 172.824 72.9875 166.735C75.4012 170.441 79.2136 173.983 84.0975 173.589C89.286 173.644 93.3126 169.216 94.012 164.472C95.1512 156.317 93.3465 148.14 92.2975 140.062C91.8125 134.771 89.9402 129.163 91.8238 123.992Z" fill="black"/>
<path opacity="0.07" d="M107.705 139.548C107.592 137.908 108.201 136.334 108.54 134.749C109.69 139.362 111.066 143.932 112.532 148.468C114.766 155.071 116.627 161.958 115.928 168.976C111.765 164.942 110.671 159.203 109.69 153.825C108.946 149.08 108.314 144.314 107.705 139.548Z" fill="black"/>
<path d="M127.286 140.39C129.62 138.258 132.136 136.323 134.753 134.541C136.952 142.095 138.508 149.857 141.497 157.17C142.716 159.99 144.588 162.472 146.483 164.899C144.577 167.566 142.659 170.222 140.742 172.879C139.535 171.807 138.373 170.681 137.268 169.523C135.17 166.997 134.155 163.849 133.241 160.777C131.233 153.989 129.102 147.233 127.286 140.39Z" fill="#DF29C0"/>
<path d="M84.7066 148.632C86.9963 145.593 89.5341 142.729 92.2975 140.062C93.3465 148.14 95.1512 156.317 94.012 164.472C93.3127 169.217 89.286 173.644 84.0975 173.589C79.2136 173.983 75.4013 170.441 72.9875 166.735C71.9949 165.15 71.1151 163.51 70.1902 161.892C72.2543 159.487 74.4538 157.214 76.7773 155.06C78.4128 158.58 79.8227 162.461 82.947 165.052C84.6389 164.92 85.4849 164.024 85.4849 162.351C86.1278 157.771 85.2367 153.18 84.7066 148.632Z" fill="#D225C9"/>
<path d="M112.532 148.468C114.709 145.692 116.92 142.948 119.176 140.237C120.811 145.298 122.537 150.359 123.699 155.552C124.613 162.177 126.192 170.714 120.214 175.622C116.187 178.683 110.953 176.147 107.919 172.999C105.224 169.697 103.622 165.74 102.392 161.728C104.806 159.072 107.22 156.427 109.69 153.825C110.671 159.203 111.765 164.942 115.928 168.976C116.627 161.958 114.766 155.071 112.532 148.468Z" fill="#DB28C3"/>
<path opacity="0.25" d="M123.699 155.552C126.045 158.821 125.628 162.953 125.932 166.724C125.932 170.332 126.282 174.781 123.079 177.328C118.691 181.941 108.923 179.088 107.919 172.999C110.953 176.147 116.187 178.683 120.214 175.622C126.192 170.714 124.612 162.177 123.699 155.552Z" fill="black"/>
<path opacity="0.25" d="M137.268 169.523C138.373 170.681 139.535 171.807 140.742 172.879C151.153 182.662 167.722 183.526 180.603 178.301C183.174 177.35 183.276 174.42 183.332 172.179C185.577 174.529 185.78 178.541 182.892 180.498C175.301 185.133 165.894 183.919 157.379 183.734C150.532 182.083 143.923 178.683 139.163 173.534C138.023 172.485 137.448 171.02 137.268 169.523Z" fill="black"/>
<path d="M146.483 164.899C153.882 172.321 165.635 173.185 175.256 169.818C178.256 168.418 181.595 169.468 183.332 172.179C183.276 174.42 183.174 177.35 180.603 178.301C167.722 183.526 151.153 182.662 140.742 172.879C142.659 170.222 144.577 167.566 146.483 164.899Z" fill="#EB2CB8"/>
</svg>
