<svg width="24" height="24" viewBox="0 0 24 24" fill="none" xmlns="http://www.w3.org/2000/svg">
<path d="M6.38998 8.48298H2.45229C2.33233 8.48298 2.21729 8.5301 2.13247 8.61401C2.04765 8.69791 2 8.81169 2 8.93034V15.1935C2 15.3122 2.04765 15.426 2.13247 15.5099C2.21729 15.5938 2.33233 15.6409 2.45229 15.6409H6.38998C6.59904 15.641 6.80161 15.7128 6.96324 15.8439L12.1345 20.038C12.202 20.0871 12.2819 20.1168 12.3653 20.1235C12.4487 20.1303 12.5324 20.1141 12.6071 20.0766C12.6817 20.0391 12.7444 19.9819 12.7881 19.9114C12.8319 19.8408 12.855 19.7596 12.8548 19.6767V4.44712C12.8548 4.36441 12.8315 4.28334 12.7877 4.21291C12.7439 4.14247 12.6812 4.08543 12.6066 4.04812C12.5319 4.01081 12.4483 3.99468 12.365 4.00154C12.2817 4.00841 12.2019 4.03799 12.1345 4.08699L6.96324 8.2811C6.80146 8.41186 6.59891 8.48319 6.38998 8.48298Z" stroke="url(#paint0_linear_656_4)" stroke-width="2.4" stroke-linecap="round" stroke-linejoin="round"/>
<path fill-rule="evenodd" clip-rule="evenodd" d="M20.5554 5.52477C20.2564 5.01765 19.603 4.8489 19.0959 5.14783C18.5888 5.44677 18.42 6.10019 18.719 6.60729C19.7238 8.31192 20.2854 9.69912 20.2854 12C20.2854 14.2955 19.6997 15.6994 18.7148 17.3997C18.4198 17.909 18.5936 18.5612 19.103 18.8563C19.6122 19.1513 20.2643 18.9776 20.5595 18.4681C21.6613 16.5657 22.4171 14.7907 22.4171 12C22.4171 9.21461 21.693 7.45467 20.5554 5.52477ZM18.0133 8.12054C17.7435 7.59739 17.1007 7.39203 16.5775 7.66189C16.0543 7.93172 15.8489 8.57459 16.1189 9.09775C16.5892 10.0096 16.8572 10.9499 16.8572 12C16.8572 13.0292 16.5773 13.9983 16.1156 14.9086C15.8492 15.4335 16.0589 16.075 16.5839 16.3413C17.1088 16.6076 17.7503 16.398 18.0167 15.873C18.5983 14.7265 18.9889 13.4281 18.9889 12C18.9889 10.5589 18.6143 9.28561 18.0133 8.12054Z" fill="url(#paint1_linear_656_4)"/>
<defs>
<linearGradient id="paint0_linear_656_4" x1="6.95539" y1="19.6919" x2="9.61236" y2="5.38704" gradientUnits="userSpaceOnUse">
<stop stop-color="#8D01A2"/>
<stop offset="1" stop-color="#FF33DB"/>
</linearGradient>
<linearGradient id="paint1_linear_656_4" x1="18.9295" y1="18.624" x2="22.1915" y2="6.6656" gradientUnits="userSpaceOnUse">
<stop stop-color="#8D01A2"/>
<stop offset="1" stop-color="#FF33DB"/>
</linearGradient>
</defs>
</svg>
