<svg width="192" height="192" viewBox="0 0 192 192" fill="none" xmlns="http://www.w3.org/2000/svg">
<g clip-path="url(#clip0_644_2)">
<path d="M176.239 12.3626C179.988 11.1257 184.513 13.1552 185.529 16.9019C186.958 20.9608 183.586 25.284 179.298 25.7763C143.582 34.2425 107.904 42.9248 72.1377 51.2348C104.958 51.3429 137.778 51.2468 170.598 51.3069C181.617 51.0427 191.722 60.1813 191.922 70.761C192.06 100.026 191.972 129.292 191.972 158.557C192.135 166.843 186.381 174.793 178.295 177.675C173.883 179.392 169.018 179.044 164.367 179.068C116.729 179.02 69.0913 179.104 21.4532 179.032C13.2921 179.14 5.43181 174.276 2.05953 167.179C-0.0967162 163.036 0.041183 158.269 0.0537193 153.765C0.179082 133.687 -0.0841799 113.608 0.179083 93.5415C0.166547 88.9902 5.83297 85.8079 10.0452 87.7774C12.9536 88.8942 14.5708 91.9444 14.3326 94.8625C14.4078 116.07 14.2699 137.265 14.3953 158.461C14.1822 162.64 18.4195 165.846 22.6066 165.378C71.5234 165.378 120.44 165.378 169.344 165.378C173.544 165.846 177.844 162.7 177.669 158.485C177.731 129.688 177.731 100.867 177.669 72.0699C177.869 68.4073 174.56 64.9368 170.673 65.0929C115.889 64.9728 61.0931 65.1049 6.30935 65.0208C2.71142 65.4651 -0.748607 62.3909 0.141473 58.8483C0.442345 55.7021 3.27556 53.3604 6.42218 52.88C63.0237 39.3702 119.625 25.8484 176.239 12.3626Z" fill="url(#paint0_linear_644_2)"/>
<path fill-rule="evenodd" clip-rule="evenodd" d="M78.5483 84.134C83.4688 84.1487 88.3896 84.1634 93.3077 84.1441C102.077 84.1107 110.847 84.1304 119.616 84.1505C120.513 84.0903 121.438 84.7321 121.416 85.5812C121.408 87.2732 121.422 88.9666 121.435 90.66C121.462 94.179 121.489 97.6982 121.335 101.205C123.471 100.265 125.551 99.2514 127.63 98.2387C129.689 97.2359 131.747 96.2334 133.859 95.302C134.947 96.31 136.026 97.3237 137.103 98.337L137.106 98.3393C138.036 99.2138 138.966 100.088 139.902 100.958C137.052 102.506 134.095 103.899 131.138 105.293L131.136 105.294C127.862 106.836 124.589 108.378 121.461 110.131C121.29 110.385 121.122 110.639 120.953 110.893L120.95 110.897L120.949 110.899L120.949 110.9L120.948 110.901C120.781 111.152 120.615 111.403 120.446 111.654L120.447 111.655C120.617 111.402 120.785 111.149 120.953 110.896L120.954 110.893C121.123 110.639 121.291 110.385 121.462 110.131C121.407 113.794 121.426 117.459 121.444 121.125C121.471 126.396 121.498 131.668 121.306 136.933C121.092 135.597 121.024 134.246 120.957 132.896C120.874 131.253 120.792 129.612 120.447 128.001C118.958 125.193 115.899 123.495 113.055 121.944V121.939C113.048 116.339 113.041 110.738 113.055 105.131L113.054 105.13C113.035 102.9 113.039 100.672 113.043 98.4444C113.046 96.2164 113.05 93.9883 113.032 91.7587C111.551 91.725 110.072 91.7311 108.593 91.7371H108.59C107.423 91.7419 106.255 91.7466 105.086 91.7319C102.861 91.7319 100.638 91.7336 98.4141 91.7351H98.3951C93.9551 91.7381 89.5162 91.7411 85.0741 91.7322C83.8705 90.3147 82.5162 89.0175 81.1618 87.7203C80.1909 86.7903 79.22 85.8604 78.3047 84.8861C78.633 84.856 78.9615 84.8289 79.29 84.8046C78.9609 84.8289 78.6318 84.8559 78.3029 84.8862C79.2183 85.8604 80.1891 86.7902 81.1599 87.7201C82.5143 89.0174 83.8688 90.3147 85.0724 91.7322C82.3025 91.7322 79.5327 91.7329 76.7626 91.7337L76.6666 91.7337C71.0616 91.7352 65.4556 91.7367 59.8462 91.7322C59.6067 91.7247 59.3622 91.716 59.1138 91.7073C54.9376 91.5607 49.6403 91.3747 47.8789 95.583C47.3354 97.0226 47.3769 98.5314 47.4186 100.038C47.4377 100.729 47.4567 101.419 47.4195 102.102C47.4556 107.109 47.4355 112.117 47.4153 117.125V117.126C47.3818 125.474 47.3482 133.821 47.575 142.161C47.3879 140.985 47.2885 139.799 47.1894 138.615L47.1892 138.614C47.1628 138.299 47.1364 137.984 47.1084 137.669C47.397 133.346 47.1454 129.029 46.8937 124.712C46.8612 124.155 46.8287 123.598 46.7974 123.041C46.7931 121.753 46.8278 120.46 46.8624 119.167C46.9478 115.979 47.0334 112.784 46.5382 109.636C44.768 106.728 41.9388 104.448 39.0355 102.463L39.0235 101.896C38.9393 98.0295 38.8504 93.9474 41.2722 90.5822L41.3241 90.6156C43.657 87.0927 47.9003 84.6794 52.4103 84.2445C61.1147 84.0822 69.8248 84.108 78.5335 84.134H78.5483ZM94.1959 84.5534C95.077 84.6191 95.9601 84.6848 96.8272 84.8184C95.9607 84.685 95.0782 84.6193 94.1977 84.5537L94.1959 84.5534ZM92.5239 84.4113C93.077 84.4701 93.6356 84.5117 94.1949 84.5534L94.1959 84.5534C93.6369 84.5119 93.0777 84.4703 92.5249 84.4114L92.5239 84.4113Z" fill="#FF5E75"/>
<path d="M153.96 92.7149C154.227 89.8936 150.508 87.2862 147.568 88.6434C145.623 89.6146 143.652 90.5477 141.681 91.4806L141.679 91.4815C139.051 92.7254 136.423 93.969 133.859 95.302C134.935 96.2986 136.002 97.301 137.068 98.3029L137.076 98.3111C138.017 99.1951 138.957 100.079 139.903 100.958C140.953 100.724 141.865 100.206 142.779 99.6872C143.56 99.2437 144.343 98.7994 145.213 98.5313C145.168 102.27 145.179 106.016 145.19 109.76V109.769C145.193 110.937 145.197 112.105 145.198 113.273C147.085 114.841 149.004 116.376 150.923 117.912L150.926 117.915C151.936 118.724 152.946 119.532 153.952 120.346C153.974 115.017 153.968 109.691 153.962 104.364V104.36C153.958 100.479 153.954 96.5974 153.96 92.7149Z" fill="#FF5E75"/>
<path d="M46.5362 109.636C44.7661 106.728 41.9369 104.448 39.0336 102.463C39.0113 107.169 39.0187 111.883 39.0336 116.596C39.0113 121.536 39.0187 126.47 39.0336 131.404L39.0345 131.405C39.0197 134.56 39.0197 137.716 39.0345 140.871C39.0049 144.903 41.1083 148.86 44.5596 151.401C48.8041 154.724 54.3084 154.601 59.6545 154.482C61.2769 154.445 62.8848 154.409 64.4384 154.47C62.0461 151.107 58.854 147.543 54.1954 146.928C51.0847 146.928 48.2638 144.889 47.575 142.161C47.3879 140.985 47.2885 139.799 47.1894 138.615C47.1629 138.3 47.1365 137.984 47.1084 137.669L47.1066 137.668C47.3951 133.345 47.1435 129.029 46.8918 124.712C46.8593 124.155 46.8268 123.598 46.7955 123.041C46.7912 121.753 46.8258 120.46 46.8605 119.166C46.9458 115.979 47.0314 112.784 46.5362 109.636Z" fill="#FF5E75"/>
<path fill-rule="evenodd" clip-rule="evenodd" d="M63.8021 107.697C65.4389 103.546 71.327 101.44 75.6375 103.572C79.0484 105.336 82.4421 107.132 85.8365 108.927L85.8451 108.932C87.902 110.02 89.9591 111.108 92.0204 112.19C93.8942 113.106 95.3755 114.63 96.1087 116.435C97.4049 119.678 96.1384 123.616 92.9462 125.554C91.4089 126.435 89.8341 127.256 88.2603 128.077C87.4082 128.521 86.5563 128.965 85.7109 129.419C84.4485 130.071 83.1969 130.741 81.9451 131.411C79.6717 132.627 77.3993 133.842 75.0684 134.954C70.1135 137.014 63.818 133.671 63.3218 128.797C63.2181 122.325 63.2107 115.841 63.3292 109.37L63.3281 109.369C63.4466 108.948 63.6836 108.112 63.8021 107.697ZM80.9113 125.347C80.4603 125.585 80.0093 125.822 79.5584 126.059L79.5554 126.061C77.5935 127.092 75.6335 128.123 73.6834 129.171C72.2984 130.402 69.6172 129.827 69.4987 127.948C69.4564 125.465 69.4625 122.984 69.4685 120.502C69.473 118.641 69.4776 116.78 69.4617 114.918L69.4605 114.917C69.4689 114.346 69.4647 113.774 69.4606 113.202V113.201C69.4536 112.248 69.4467 111.294 69.4976 110.338C69.5568 108.968 71.4529 107.925 72.7786 108.68C78.3186 111.542 83.8215 114.45 89.3023 117.391C90.8206 118.14 90.6725 120.36 89.1245 121.002C87.4814 121.885 85.8275 122.755 84.1742 123.625C83.085 124.198 81.9967 124.771 80.9113 125.347Z" fill="#FF5E75"/>
<path d="M150.926 117.915L150.923 117.912L150.921 117.912C149.003 116.376 147.085 114.84 145.198 113.273C145.183 117.024 145.176 120.774 145.198 124.525L145.2 124.527C145.185 128.999 145.185 133.471 145.193 137.943C145.296 138.819 145.252 139.681 145.067 140.517C142.238 138.986 139.393 137.535 136.438 136.218C133.631 134.821 129.832 137.368 130.358 140.176C130.558 141.219 131.306 142.148 132.224 142.79C133.521 143.44 134.815 144.102 136.109 144.764L136.11 144.765C140.192 146.852 144.283 148.945 148.511 150.706C151.799 151.321 154.658 148.112 153.954 145.317C153.969 140.864 153.969 136.412 153.954 131.959L153.952 131.958C153.975 128.087 153.967 124.216 153.952 120.346C152.947 119.533 151.937 118.725 150.928 117.917L150.926 117.915Z" fill="#FF5E75"/>
<path d="M120.445 128.001C118.956 125.194 115.897 123.495 113.053 121.944C113.047 123.875 113.048 125.806 113.049 127.735C113.05 130.093 113.051 132.45 113.039 134.807C113.016 136.693 112.498 138.551 111.609 140.256C111.609 140.256 111.609 140.256 111.609 140.256C109.372 144.201 104.707 146.881 99.7743 146.928C97.445 147.236 95.0998 147.303 92.7538 147.37C90.8702 147.424 88.9861 147.478 87.1094 147.657C88.1613 148.658 89.2639 149.614 90.3666 150.57C91.8259 151.834 93.2852 153.099 94.6268 154.47C100.767 154.77 107.329 154.269 112.38 150.759C114.365 149.522 116.076 147.938 117.439 146.139C117.439 146.139 117.439 146.139 117.439 146.139C119.565 143.432 120.926 140.229 121.304 136.933C121.091 135.597 121.023 134.246 120.955 132.896C120.873 131.253 120.791 129.612 120.445 128.001Z" fill="#FF5E75"/>
<path d="M54.1954 146.928C69.3859 146.935 84.5838 146.928 99.7743 146.928C95.5749 147.483 91.3236 147.256 87.1094 147.657C89.5535 149.984 92.2716 152.063 94.6268 154.47C84.5616 154.476 74.5037 154.476 64.4384 154.47C62.0461 151.107 58.854 147.543 54.1954 146.928Z" fill="#FF5E75"/>
<path d="M133.859 95.302C131.747 96.2334 129.689 97.2359 127.63 98.2387C125.551 99.2514 123.471 100.265 121.335 101.205C121.489 97.6982 121.462 94.179 121.435 90.66C121.422 88.9666 121.408 87.2732 121.416 85.5812C121.438 84.7321 120.513 84.0903 119.616 84.1505C110.847 84.1304 102.077 84.1107 93.3077 84.1441C88.3896 84.1634 83.4688 84.1487 78.5483 84.134H78.5335C69.8248 84.108 61.1147 84.0822 52.4103 84.2445C47.9003 84.6794 43.657 87.0927 41.3241 90.6156L41.2722 90.5822C38.8504 93.9474 38.9393 98.0295 39.0235 101.896L39.0355 102.463C41.9388 104.448 44.768 106.728 46.5382 109.636C47.0334 112.784 46.9478 115.979 46.8624 119.167C46.8278 120.46 46.7931 121.753 46.7974 123.041C46.8287 123.598 46.8612 124.155 46.8937 124.712C47.1454 129.029 47.397 133.346 47.1084 137.669M133.859 95.302C134.947 96.31 136.026 97.3237 137.103 98.337L137.106 98.3393C138.036 99.2138 138.966 100.088 139.902 100.958C137.052 102.506 134.095 103.899 131.138 105.293L131.136 105.294C127.862 106.836 124.589 108.378 121.461 110.131C121.29 110.385 121.122 110.639 120.953 110.893L120.95 110.897L120.949 110.899L120.949 110.9L120.948 110.901C120.781 111.152 120.615 111.403 120.446 111.654L120.447 111.655C120.617 111.402 120.785 111.149 120.953 110.896L120.954 110.893C121.123 110.639 121.291 110.385 121.462 110.131C121.407 113.794 121.426 117.459 121.444 121.125C121.471 126.396 121.498 131.668 121.306 136.933C121.092 135.597 121.024 134.246 120.957 132.896C120.874 131.253 120.792 129.612 120.447 128.001C118.958 125.193 115.899 123.495 113.055 121.944V121.939C113.048 116.339 113.041 110.738 113.055 105.131L113.054 105.13C113.035 102.9 113.039 100.672 113.043 98.4444C113.046 96.2164 113.05 93.9883 113.032 91.7587C111.551 91.725 110.072 91.7311 108.593 91.7371H108.59C107.423 91.7419 106.255 91.7466 105.086 91.7319C102.861 91.7319 100.638 91.7336 98.4141 91.7351H98.3951C93.9551 91.7381 89.5162 91.7411 85.0741 91.7322C83.8705 90.3147 82.5162 89.0175 81.1618 87.7203C80.1909 86.7903 79.22 85.8604 78.3047 84.8861C78.633 84.856 78.9615 84.8289 79.29 84.8046C78.9609 84.8289 78.6318 84.8559 78.3029 84.8862C79.2183 85.8604 80.1891 86.7902 81.1599 87.7201C82.5143 89.0174 83.8688 90.3147 85.0724 91.7322C82.3025 91.7322 79.5327 91.7329 76.7626 91.7337L76.6666 91.7337C71.0616 91.7352 65.4556 91.7367 59.8462 91.7322C59.6067 91.7247 59.3622 91.716 59.1138 91.7073C54.9376 91.5607 49.6403 91.3747 47.8789 95.583M133.859 95.302C136.423 93.969 139.051 92.7254 141.679 91.4815L141.681 91.4806C143.652 90.5477 145.623 89.6146 147.568 88.6434C150.508 87.2862 154.227 89.8936 153.96 92.7149C153.954 96.5974 153.958 100.479 153.962 104.36V104.364C153.968 109.691 153.974 115.017 153.952 120.346M133.859 95.302C134.935 96.2986 136.002 97.301 137.068 98.3029L137.076 98.3111C138.017 99.1951 138.957 100.079 139.903 100.958C140.953 100.724 141.865 100.206 142.779 99.6872C143.56 99.2437 144.343 98.7994 145.213 98.5313C145.168 102.27 145.179 106.016 145.19 109.76V109.769C145.193 110.937 145.197 112.105 145.198 113.273M47.8789 95.583C47.6462 95.3714 47.4107 95.1624 47.1728 94.9559M47.8789 95.583C47.3354 97.0226 47.3769 98.5314 47.4186 100.038C47.4377 100.729 47.4567 101.419 47.4195 102.102C47.4556 107.109 47.4355 112.117 47.4153 117.125V117.126C47.3818 125.474 47.3482 133.821 47.575 142.161M47.575 142.161C47.3879 140.985 47.2885 139.799 47.1894 138.615M47.575 142.161C48.2638 144.889 51.0847 146.928 54.1954 146.928M47.1894 138.615L47.1892 138.614C47.1628 138.299 47.1364 137.984 47.1084 137.669M47.1894 138.615C47.1629 138.3 47.1365 137.984 47.1084 137.669M47.1084 137.669L47.1066 137.668C47.3951 133.345 47.1435 129.029 46.8918 124.712C46.8593 124.155 46.8268 123.598 46.7955 123.041C46.7912 121.753 46.8258 120.46 46.8605 119.166C46.9458 115.979 47.0314 112.784 46.5362 109.636C44.7661 106.728 41.9369 104.448 39.0336 102.463C39.0113 107.169 39.0187 111.883 39.0336 116.596C39.0113 121.536 39.0187 126.47 39.0336 131.404L39.0345 131.405C39.0197 134.56 39.0197 137.716 39.0345 140.871C39.0049 144.903 41.1083 148.86 44.5596 151.401C48.8041 154.724 54.3084 154.601 59.6545 154.482C61.2769 154.445 62.8848 154.409 64.4384 154.47M94.1959 84.5534C95.077 84.6191 95.9601 84.6848 96.8272 84.8184C95.9607 84.685 95.0782 84.6193 94.1977 84.5537L94.1959 84.5534ZM94.1959 84.5534L94.1949 84.5534C93.6356 84.5117 93.077 84.4701 92.5239 84.4113L92.5249 84.4114C93.0777 84.4703 93.6369 84.5119 94.1959 84.5534ZM145.198 113.273C147.085 114.841 149.004 116.376 150.923 117.912M145.198 113.273C147.085 114.84 149.003 116.376 150.921 117.912L150.923 117.912M145.198 113.273C145.183 117.024 145.176 120.774 145.198 124.525L145.2 124.527C145.185 128.999 145.185 133.471 145.193 137.943C145.296 138.819 145.252 139.681 145.067 140.517C142.238 138.986 139.393 137.535 136.438 136.218C133.631 134.821 129.832 137.368 130.358 140.176C130.558 141.219 131.306 142.148 132.224 142.79C133.521 143.44 134.815 144.102 136.109 144.764L136.11 144.765C140.192 146.852 144.283 148.945 148.511 150.706C151.799 151.321 154.658 148.112 153.954 145.317C153.969 140.864 153.969 136.412 153.954 131.959L153.952 131.958C153.975 128.087 153.967 124.216 153.952 120.346M150.923 117.912L150.926 117.915M150.926 117.915C151.936 118.724 152.946 119.532 153.952 120.346M150.926 117.915L150.928 117.917C151.937 118.725 152.947 119.533 153.952 120.346M64.4384 154.47C62.0461 151.107 58.854 147.543 54.1954 146.928M64.4384 154.47C74.5037 154.476 84.5616 154.476 94.6268 154.47M54.1954 146.928C69.3859 146.935 84.5838 146.928 99.7743 146.928M111.609 140.256C112.498 138.551 113.016 136.693 113.039 134.807C113.051 132.45 113.05 130.093 113.049 127.735C113.048 125.806 113.047 123.875 113.053 121.944C115.897 123.495 118.956 125.194 120.445 128.001C120.791 129.612 120.873 131.253 120.955 132.896C121.023 134.246 121.091 135.597 121.304 136.933C120.926 140.229 119.565 143.432 117.439 146.139M111.609 140.256C111.609 140.256 111.609 140.256 111.609 140.256ZM111.609 140.256C109.372 144.201 104.707 146.881 99.7743 146.928M99.7743 146.928C97.445 147.236 95.0998 147.303 92.7538 147.37C90.8702 147.424 88.9861 147.478 87.1094 147.657M99.7743 146.928C95.5749 147.483 91.3236 147.256 87.1094 147.657M87.1094 147.657C88.1613 148.658 89.2639 149.614 90.3666 150.57C91.8259 151.834 93.2852 153.099 94.6268 154.47M87.1094 147.657C89.5535 149.984 92.2716 152.063 94.6268 154.47M94.6268 154.47C100.767 154.77 107.329 154.269 112.38 150.759C114.365 149.522 116.076 147.938 117.439 146.139M117.439 146.139C117.439 146.139 117.439 146.139 117.439 146.139ZM75.6375 103.572C71.327 101.44 65.4389 103.546 63.8021 107.697C63.6836 108.112 63.4466 108.948 63.3281 109.369L63.3292 109.37C63.2107 115.841 63.2181 122.325 63.3218 128.797C63.818 133.671 70.1135 137.014 75.0684 134.954C77.3993 133.842 79.6717 132.627 81.9451 131.411C83.1969 130.741 84.4485 130.071 85.7109 129.419C86.5563 128.965 87.4082 128.521 88.2603 128.077C89.8341 127.256 91.4089 126.435 92.9462 125.554C96.1384 123.616 97.4049 119.678 96.1087 116.435C95.3755 114.63 93.8942 113.106 92.0204 112.19C89.9591 111.108 87.902 110.02 85.8451 108.932L85.8365 108.927C82.4421 107.132 79.0484 105.336 75.6375 103.572ZM80.9113 125.347C80.4603 125.585 80.0093 125.822 79.5584 126.059L79.5554 126.061C77.5935 127.092 75.6335 128.123 73.6834 129.171C72.2984 130.402 69.6172 129.827 69.4987 127.948C69.4564 125.465 69.4625 122.984 69.4685 120.502C69.473 118.641 69.4776 116.78 69.4617 114.918L69.4605 114.917C69.4689 114.346 69.4647 113.774 69.4606 113.202V113.201C69.4536 112.248 69.4467 111.294 69.4976 110.338C69.5568 108.968 71.4529 107.925 72.7786 108.68C78.3186 111.542 83.8215 114.45 89.3023 117.391C90.8206 118.14 90.6725 120.36 89.1245 121.002C87.4814 121.885 85.8275 122.755 84.1742 123.625C83.085 124.198 81.9967 124.771 80.9113 125.347Z" stroke="#FF5E75" stroke-width="4"/>
</g>
<defs>
<linearGradient id="paint0_linear_644_2" x1="191.431" y1="13.0592" x2="27.0703" y2="200.36" gradientUnits="userSpaceOnUse">
<stop stop-color="#FE7970"/>
<stop offset="1" stop-color="#DC3282"/>
</linearGradient>
<clipPath id="clip0_644_2">
<rect width="192" height="192" fill="white"/>
</clipPath>
</defs>
</svg>
