<svg width="128" height="128" viewBox="0 0 128 128" fill="none" xmlns="http://www.w3.org/2000/svg">
<path fill-rule="evenodd" clip-rule="evenodd" d="M44 20C44 17.2386 46.2386 15 49 15H71C73.7614 15 76 17.2386 76 20V28C76 30.7614 73.7614 33 71 33H49C46.2386 33 44 30.7614 44 28V20ZM50 21V27H70V21H50ZM10 40C7.23858 40 5 42.2386 5 45V53C5 55.7614 7.23858 58 10 58H32C34.7614 58 37 55.7614 37 53V45C37 42.2386 34.7614 40 32 40H10ZM11 52V46H31V52H11ZM5 70C5 67.2386 7.23858 65 10 65H32C34.7614 65 37 67.2386 37 70V78C37 80.7614 34.7614 83 32 83H10C7.23858 83 5 80.7614 5 78V70ZM11 71V77H31V71H11ZM4 104C4 101.791 5.79086 100 8 100H121C123.209 100 125 101.791 125 104V108C125 110.209 123.209 112 121 112H8C5.79086 112 4 110.209 4 108V104ZM88 65C85.2386 65 83 67.2386 83 70V78C83 80.7614 85.2386 83 88 83H110C112.761 83 115 80.7614 115 78V70C115 67.2386 112.761 65 110 65H88ZM89 77V71H109V77H89ZM44 70C44 67.2386 46.2386 65 49 65H71C73.7614 65 76 67.2386 76 70V78C76 80.7614 73.7614 83 71 83H49C46.2386 83 44 80.7614 44 78V70ZM50 71V77H70V71H50ZM49 40C46.2386 40 44 42.2386 44 45V53C44 55.7614 46.2386 58 49 58H71C73.7614 58 76 55.7614 76 53V45C76 42.2386 73.7614 40 71 40H49ZM50 52V46H70V52H50Z" fill="url(#paint0_linear)"/>
<defs>
<linearGradient id="paint0_linear" x1="64.5" y1="112" x2="64.5" y2="15" gradientUnits="userSpaceOnUse">
<stop stop-color="#E80058"/>
<stop offset="0.9997" stop-color="#FF001D"/>
<stop offset="0.9998" stop-color="#FF867E"/>
</linearGradient>
</defs>
</svg>
