<svg width="128" height="128" viewBox="0 0 128 128" fill="none" xmlns="http://www.w3.org/2000/svg">
<g clip-path="url(#clip0)">
<path fill-rule="evenodd" clip-rule="evenodd" d="M78.1231 0.027998C78.7088 -0.0449142 79.3033 0.025094 79.8559 0.232024L110.928 11.8806C113.947 13.0125 116.549 15.0389 118.385 17.689C120.221 22.2495 121.204 25.397 121.204 28.621V31.1642C121.203 31.7543 121.059 32.3355 120.786 32.8582C120.512 33.3809 120.116 33.8295 119.63 34.1656C119.145 34.5017 118.586 34.7154 118.001 34.7883C117.415 34.8612 116.821 34.7911 116.268 34.5842L82.2285 21.82V79.1657C82.228 79.4731 82.1888 79.7792 82.1116 80.0767C81.6386 84.3756 79.7489 88.395 76.7403 91.5019C73.7317 94.6091 69.7751 96.6266 65.4936 97.2369C61.2122 97.8483 56.8491 97.0172 53.0917 94.8756C49.3343 92.7345 46.396 89.4039 44.7396 85.4089C43.0832 81.4138 42.8028 76.9812 43.9427 72.8093C45.0826 68.6374 47.5778 64.9632 51.0354 62.3654C54.4931 59.7675 58.7167 58.3937 63.041 58.4602C67.3653 58.5268 71.5446 60.0299 74.9208 62.7329V3.65206C74.9211 3.06197 75.0642 2.48072 75.3381 1.95804C75.612 1.43535 76.0084 0.986765 76.4934 0.650651C76.9784 0.314536 77.5376 0.100901 78.1231 0.027998ZM100.389 77.3618C100.709 74.7435 102.818 72.5974 105.456 72.5974H112.03C114.667 72.5974 116.827 74.7396 116.601 77.3675C116.406 79.6216 116.073 81.8564 115.607 84.06C114.155 90.9244 111.406 97.4857 107.469 103.378C101.381 112.488 92.7283 119.59 82.6048 123.783C72.4812 127.976 61.3415 129.073 50.5944 126.936C39.8473 124.798 29.9754 119.522 22.2271 111.773C14.4789 104.025 9.20231 94.153 7.06458 83.4059C4.92684 72.6588 6.024 61.5191 10.2173 51.3956C14.4106 41.272 21.5118 32.6193 30.6228 26.5315C36.5147 22.5947 43.0759 19.8448 49.9403 18.3931C52.144 17.9272 54.3788 17.5949 56.6328 17.4001C59.2608 17.173 61.403 19.3328 61.403 21.9705V28.5445C61.403 31.1822 59.2568 33.2907 56.6385 33.6106C50.5579 34.3537 44.712 36.5121 39.582 39.9399C33.123 44.2557 28.0888 50.3899 25.116 57.5668C22.1432 64.7437 21.3654 72.6409 22.8809 80.2599C24.3964 87.8788 28.1371 94.8773 33.6301 100.37C39.123 105.863 46.1215 109.604 53.7404 111.12C61.3594 112.635 69.2566 111.857 76.4336 108.884C83.6105 105.912 89.7446 100.877 94.0604 94.4184C97.4882 89.2883 99.6463 83.4424 100.389 77.3618Z" fill="url(#paint0_linear)"/>
</g>
<defs>
<linearGradient id="paint0_linear" x1="61.4029" y1="128" x2="61.4029" y2="17.1942" gradientUnits="userSpaceOnUse">
<stop stop-color="#FD5900"/>
<stop offset="1" stop-color="#FFDE00"/>
</linearGradient>
<clipPath id="clip0">
<rect width="128" height="128" fill="white"/>
</clipPath>
</defs>
</svg>
