<svg width="128" height="128" viewBox="0 0 128 128" fill="none" xmlns="http://www.w3.org/2000/svg">
<path d="M102.428 67.8374H60.1951V27.5844C60.1951 25.8745 58.7405 24.4882 56.9463 24.4882C30.071 24.4882 8 45.2808 8 70.9336C8 96.5728 30.0509 117.586 56.9463 117.586C83.8251 117.586 105.676 96.5866 105.676 70.9336C105.676 69.2239 104.222 67.8374 102.428 67.8374ZM56.9463 111.393C33.5398 111.393 14.4973 93.2431 14.4973 70.9336C14.4973 49.7744 31.803 32.3762 53.6978 30.7975V70.9336C53.6978 72.6437 55.1524 74.03 56.9463 74.0281H99.0565C97.4002 94.8984 79.1462 111.393 56.9463 111.393Z" fill="url(#paint0_linear_618_83)" stroke="url(#paint1_linear_618_83)" stroke-width="4"/>
<path fill-rule="evenodd" clip-rule="evenodd" d="M70.1577 11.896C68.3635 11.896 66.9089 13.2823 66.9089 14.9924V58.548C66.9089 60.258 68.3635 61.6444 70.1577 61.6444H115.855C117.649 61.6444 119.104 60.258 119.104 58.548C119.104 32.8733 97.093 11.896 70.1577 11.896ZM73.8393 54.3395V17.0938C94.6618 18.6028 111.334 34.4935 112.917 54.3395H73.8393Z" fill="url(#paint2_linear_618_83)"/>
<path d="M73.8393 17.0938L73.9042 16.2002L72.9433 16.1306V17.0938H73.8393ZM73.8393 54.3395H72.9433V55.2355H73.8393V54.3395ZM112.917 54.3395V55.2355H113.887L113.81 54.2684L112.917 54.3395ZM67.8049 14.9924C67.8049 13.8172 68.8172 12.792 70.1577 12.792V11C67.9096 11 66.0129 12.7475 66.0129 14.9924H67.8049ZM67.8049 58.548V14.9924H66.0129V58.548H67.8049ZM70.1577 60.7484C68.8172 60.7484 67.8049 59.7231 67.8049 58.548H66.0129C66.0129 60.7929 67.9096 62.5404 70.1577 62.5404V60.7484ZM115.855 60.7484H70.1577V62.5404H115.855V60.7484ZM118.208 58.548C118.208 59.7231 117.196 60.7484 115.855 60.7484V62.5404C118.103 62.5404 120 60.7929 120 58.548H118.208ZM70.1577 12.792C96.6391 12.792 118.208 33.4082 118.208 58.548H120C120 32.3384 97.5468 11 70.1577 11V12.792ZM72.9433 17.0938V54.3395H74.7353V17.0938H72.9433ZM113.81 54.2684C112.189 33.9496 95.1355 17.7388 73.9042 16.2002L73.7746 17.9875C94.188 19.4668 110.478 35.0374 112.024 54.4108L113.81 54.2684ZM73.8393 55.2355H112.917V53.4435H73.8393V55.2355Z" fill="url(#paint3_linear_618_83)"/>
<defs>
<linearGradient id="paint0_linear_618_83" x1="33.8557" y1="90.6569" x2="96.8468" y2="43.746" gradientUnits="userSpaceOnUse">
<stop stop-color="#FF5C00"/>
<stop offset="1" stop-color="#FEE502"/>
</linearGradient>
<linearGradient id="paint1_linear_618_83" x1="33.8557" y1="90.6569" x2="96.8468" y2="43.746" gradientUnits="userSpaceOnUse">
<stop stop-color="#FF5C00"/>
<stop offset="1" stop-color="#FEE502"/>
</linearGradient>
<linearGradient id="paint2_linear_618_83" x1="80.7254" y1="47.2544" x2="114.386" y2="22.1868" gradientUnits="userSpaceOnUse">
<stop stop-color="#FF5C00"/>
<stop offset="1" stop-color="#FEE502"/>
</linearGradient>
<linearGradient id="paint3_linear_618_83" x1="80.3038" y1="47.6321" x2="115.16" y2="21.7159" gradientUnits="userSpaceOnUse">
<stop stop-color="#FF5C00"/>
<stop offset="1" stop-color="#FEE502"/>
</linearGradient>
</defs>
</svg>
