<svg width="64" height="64" viewBox="0 0 64 64" fill="none" xmlns="http://www.w3.org/2000/svg">
<path fill-rule="evenodd" clip-rule="evenodd" d="M31.9485 1C29.9364 1 27.9298 1.53398 26.1424 2.59691L21.8634 5.11619L17.2012 7.83056L17.2012 7.83053L17.1896 7.83736L9.7722 12.2005L9.77086 12.2012L9.77041 12.2015C6.15951 14.323 4 18.192 4 22.3699V41.6312C4 45.7642 6.15407 49.6757 9.7722 51.8006L9.77606 51.8029L26.1893 61.4094L26.1904 61.4101C29.7912 63.5242 34.2304 63.5371 37.8164 61.4061L54.2239 51.8029L54.2278 51.8006C57.8398 49.6793 60 45.8098 60 41.6312V22.3699V22.3519L59.9998 22.3339C59.9498 18.1627 57.7497 14.321 54.2059 12.2099L54.1959 12.204L54.186 12.1982L37.7727 2.59167L37.7707 2.59049C35.9725 1.5349 33.9626 1 31.9485 1ZM29.2059 7.75591C30.0523 7.25173 30.9982 7 31.9485 7C32.8985 7 33.8597 7.25183 34.7342 7.76541L34.7381 7.76767L51.144 17.3699C52.8618 18.3974 53.9692 20.2911 54 22.3895V41.6312C54 43.7321 52.9239 45.6079 51.1898 46.6266L51.1893 46.6269L34.7761 56.2334L34.7661 56.2393L34.7562 56.2452C33.0732 57.2477 30.9698 57.2587 29.2278 56.2357L29.2239 56.2334L12.8107 46.6269L12.8098 46.6264C11.0821 45.6113 10 43.701 10 41.6312V22.3699C10 20.2687 11.0763 18.3928 12.8107 17.3742L12.8125 17.3731L17 14.9099V20.7188V28.1445V30.0316V32.9223C17 36.2128 18.7112 39.2223 21.5352 40.8676L26.4648 43.7582C27.8569 44.6009 29.4449 45.0004 30.9961 45.0004C32.5473 45.0004 34.1392 44.5608 35.5312 43.7582L40.4648 40.8676C43.2888 39.2223 45 36.1727 45 32.9223V28.1875C45 24.897 43.2888 21.8836 40.4648 20.2383L35.5312 17.3477C34.1392 16.505 32.5512 16.1055 31 16.1055V22C35.4183 22 39 25.5817 39 30C39 34.4183 35.4183 38 31 38C27 38 23 34 23 31.0312V30.6016V30V19.9961V17.3086V11.3973L24.8885 10.2978L24.8949 10.2941L24.9012 10.2904L29.1926 7.76375L29.1993 7.75985L29.2059 7.75591ZM29.303 16.4573C29.5796 16.409 29.8333 16.3646 30 16.3203V22.0742C29.3139 22.159 28.6416 22.3323 28 22.5898V16.7617C28.2861 16.6349 28.8283 16.5402 29.303 16.4573ZM25 18.1523L27 17.3516V23.082C26.2487 23.5168 25.5732 24.0709 25 24.7227V18.1523Z" fill="url(#paint0_linear)"/>
<defs>
<linearGradient id="paint0_linear" x1="32" y1="62" x2="32" y2="2" gradientUnits="userSpaceOnUse">
<stop stop-color="#FDA700"/>
<stop offset="1" stop-color="#FFDE00"/>
</linearGradient>
</defs>
</svg>
