<svg width="256" height="256" viewBox="0 0 256 256" fill="none" xmlns="http://www.w3.org/2000/svg">
<g clip-path="url(#clip0)">
<path fill-rule="evenodd" clip-rule="evenodd" d="M36.2786 39.3833C35.9484 37.9448 37.2368 36.6565 38.6753 36.9866L97.3786 50.4596C97.3786 50.4596 97.3787 50.4596 97.3787 50.4596V50.4596C97.3787 50.4596 97.3788 50.4595 97.3788 50.4596L97.379 50.4597C97.379 50.4597 97.379 50.4597 97.379 50.4597L204.641 157.722C204.906 157.987 205.092 158.322 205.176 158.688L218.52 216.832C218.85 218.27 217.562 219.559 216.124 219.228L157.98 205.884C157.614 205.8 157.279 205.614 157.013 205.349L49.7516 98.0871L49.7515 98.0869C49.7515 98.0869 49.7515 98.0868 49.7515 98.0868V98.0868C49.7515 98.0867 49.7515 98.0867 49.7515 98.0867L36.2786 39.3833Z" fill="url(#paint0_linear)"/>
<path fill-rule="evenodd" clip-rule="evenodd" d="M39.4468 222.246C38.0083 222.576 36.72 221.288 37.0501 219.849L50.523 161.146C50.523 161.146 50.5231 161.146 50.5231 161.145V161.145C50.5232 161.145 50.5232 161.145 50.5232 161.145L157.785 53.8837C158.051 53.618 158.386 53.4326 158.752 53.3486L216.895 40.0041C218.334 39.674 219.622 40.9623 219.292 42.4008L205.947 100.544C205.863 100.91 205.678 101.245 205.412 101.511L98.1505 208.773L98.1504 208.773C98.1504 208.773 98.1503 208.773 98.1503 208.773V208.773C98.1502 208.773 98.1502 208.773 98.1501 208.773L39.4468 222.246Z" fill="url(#paint1_linear)"/>
<path fill-rule="evenodd" clip-rule="evenodd" d="M125.705 0.937973C126.488 -0.312658 128.31 -0.312658 129.094 0.937974L161.077 51.9746V51.9746C161.077 51.9746 161.077 51.9747 161.077 51.9747L161.077 204.24V204.24C161.077 204.241 161.077 204.241 161.077 204.241L129.094 255.277C128.31 256.528 126.488 256.528 125.705 255.277L93.7219 204.241C93.7218 204.241 93.7217 204.241 93.7217 204.24V204.24V51.9746V51.9746C93.7217 51.9746 93.7217 51.9746 93.7217 51.9745L125.705 0.937973Z" fill="url(#paint2_linear)"/>
</g>
<defs>
<linearGradient id="paint0_linear" x1="217.985" y1="218.693" x2="36.8137" y2="37.5218" gradientUnits="userSpaceOnUse">
<stop stop-color="#5570FF"/>
<stop offset="1" stop-color="#4DD3FF"/>
</linearGradient>
<linearGradient id="paint1_linear" x1="218.757" y1="40.5392" x2="37.5852" y2="221.711" gradientUnits="userSpaceOnUse">
<stop stop-color="#5570FF"/>
<stop offset="1" stop-color="#4DD3FF"/>
</linearGradient>
<linearGradient id="paint2_linear" x1="127.399" y1="256.215" x2="127.399" y2="0" gradientUnits="userSpaceOnUse">
<stop stop-color="#FD2E00"/>
<stop offset="1" stop-color="#FF9900"/>
</linearGradient>
<clipPath id="clip0">
<rect width="256" height="256" fill="white"/>
</clipPath>
</defs>
</svg>
