<svg width="32" height="32" viewBox="0 0 32 32" fill="none" xmlns="http://www.w3.org/2000/svg">
<path d="M8 29.3332H27C27.5523 29.3332 28 28.8855 28 28.3332V27.6665C28 27.1142 27.5523 26.6665 27 26.6665H8.016C7.4 26.6505 6.66667 26.4065 6.66667 25.3332C6.66667 24.2598 7.4 24.0158 8.016 23.9998H27C27.5523 23.9998 28 23.5521 28 22.9998V5.33317C28 3.8625 26.804 2.6665 25.3333 2.6665H8C6.392 2.6665 4 3.73184 4 6.6665V25.3332C4 28.2678 6.392 29.3332 8 29.3332ZM6.66667 10.6665V6.6665C6.66667 5.59317 7.4 5.34917 8 5.33317H24.3333C24.8856 5.33317 25.3333 5.78089 25.3333 6.33317V20.3332C25.3333 20.8855 24.8856 21.3332 24.3333 21.3332H7.66667C7.11438 21.3332 6.66667 20.8855 6.66667 20.3332V10.6665Z" fill="url(#paint0_linear)"/>
<path d="M14.6667 18.5C14.6667 18.7761 14.8905 19 15.1667 19H16.8333C17.1095 19 17.3333 18.7761 17.3333 18.5V13.5C17.3333 13.2239 17.5572 13 17.8333 13H19.5C19.7761 13 20 12.7761 20 12.5V10.5C20 10.2239 19.7761 10 19.5 10H17.8333C17.5572 10 17.3333 9.77614 17.3333 9.5V7.5C17.3333 7.22386 17.1095 7 16.8333 7H15.1667C14.8905 7 14.6667 7.22386 14.6667 7.5V9.5C14.6667 9.77614 14.4428 10 14.1667 10H12.5C12.2239 10 12 10.2239 12 10.5V12.5C12 12.7761 12.2239 13 12.5 13H14.1667C14.4428 13 14.6667 13.2239 14.6667 13.5V18.5Z" fill="url(#paint1_linear)"/>
<defs>
<linearGradient id="paint0_linear" x1="16" y1="29.3332" x2="16" y2="2.6665" gradientUnits="userSpaceOnUse">
<stop stop-color="#5570FF"/>
<stop offset="1" stop-color="#4DD3FF"/>
</linearGradient>
<linearGradient id="paint1_linear" x1="16" y1="19" x2="16" y2="7" gradientUnits="userSpaceOnUse">
<stop stop-color="#FDA700"/>
<stop offset="1" stop-color="#FFDE00"/>
</linearGradient>
</defs>
</svg>
