<svg width="192" height="192" viewBox="0 0 192 192" fill="none" xmlns="http://www.w3.org/2000/svg">
<path fill-rule="evenodd" clip-rule="evenodd" d="M32.2 17.893C34.8808 15.6493 38.5017 15.1236 41.8714 15.1142C51.0183 15.1205 60.1653 15.1184 69.3123 15.1163C73.8858 15.1153 78.4592 15.1142 83.0328 15.1142C84.8684 15.1405 86.7056 15.1278 88.5425 15.115C91.2976 15.0958 94.052 15.0767 96.7998 15.1893C100.421 15.4428 102.19 19.3199 101.743 22.5868C101.725 27.2723 101.728 31.9577 101.731 36.6423C101.733 42.2634 101.736 47.8833 101.705 53.5003C101.733 65.0659 101.743 76.6221 101.705 88.1783C101.731 94.6296 101.728 101.081 101.725 107.532C101.723 112.693 101.721 117.854 101.733 123.016C101.687 128.513 101.704 134.014 101.722 139.513C101.746 147.35 101.771 155.185 101.612 163.007C114.774 155.92 127.359 147.32 137.421 136.102C146.19 126.677 152.65 114.369 152.379 101.171C152.326 92.8761 152.356 84.5844 152.386 76.294C152.407 70.1539 152.429 64.0145 152.417 57.875C152.446 53.8634 152.417 49.8489 152.388 45.8344C152.344 39.7121 152.3 33.5898 152.464 27.4778C152.403 27.351 152.31 27.1609 152.217 26.9708C152.124 26.7808 152.031 26.5907 151.971 26.4639C147.23 26.1827 142.474 26.2232 137.72 26.2638C134.858 26.2883 137.995 26.3126 135.137 26.2668C133.384 26.0725 131.552 26.1764 129.715 26.2805C126.138 26.4833 122.547 26.687 119.509 24.6896C116.529 21.7513 118.149 15.9967 122.301 15.2832C126.63 15.0406 130.975 15.0777 135.318 15.1148C137.866 15.1366 134.413 15.1583 136.956 15.1236C139.208 15.3241 141.58 15.2225 143.969 15.1201C149.745 14.8725 155.622 14.6207 160.152 18.6252C160.296 18.8348 160.443 19.0434 160.589 19.2521C161.235 20.1744 161.882 21.0975 162.367 22.1081C163.669 26.8336 163.528 31.7322 163.387 36.6264C163.316 39.1213 163.244 41.6153 163.363 44.0845C163.37 46.3482 163.379 48.6121 163.387 50.8762C163.431 63.3438 163.476 75.816 163.373 88.2816C163.381 89.1361 163.391 89.993 163.403 90.8515C163.535 101.576 163.672 112.57 159.268 122.565C155.889 130.742 150.769 138.092 144.729 144.485C133 157.234 118.432 166.969 103.083 174.714C99.6668 176.563 95.6269 177.821 91.8291 176.365C84.2801 172.77 76.9358 168.752 69.9546 164.134C64.2578 160.332 58.7566 156.22 53.7115 151.564C49.9137 147.969 46.2835 144.194 42.8673 140.223C42.6187 139.915 42.3525 139.606 42.0846 139.295C41.4398 138.549 40.7854 137.79 40.3448 136.994C36.3329 131.868 33.2797 126.011 31.1016 119.861C29.1189 114.06 27.9647 107.939 28.0019 101.781C27.9973 89.5636 28.0019 77.3438 28.0066 65.1228C28.0112 52.9007 28.0159 40.6774 28.0112 28.4541C27.9181 24.5864 29.1468 20.4276 32.2 17.893ZM61.3868 26.2649C53.9474 26.2223 46.5081 26.1799 39.0789 26.4639C38.982 40.4282 39.0002 54.3957 39.0185 68.3627C39.0318 78.5547 39.0452 88.7464 39.0138 98.9365C38.9952 101.302 39.0696 103.668 39.3116 106.024C39.3459 106.423 39.3662 106.758 39.385 107.069C39.4577 108.275 39.5081 109.107 40.2704 111.788C44.5867 126.968 55.6384 138.205 60.4788 142.721C65.3191 147.236 70.5876 151.273 76.0981 154.924C76.5922 155.233 77.0861 155.543 77.5802 155.853C81.7125 158.446 85.8609 161.049 90.284 163.12L90.6004 162.876C90.6598 157.848 90.6504 152.815 90.641 147.781C90.6342 144.12 90.6274 140.457 90.647 136.797L90.6377 101.997C90.6284 90.1309 90.6283 78.2743 90.647 66.4083C90.6181 58.611 90.6285 50.8137 90.639 43.0164C90.6419 40.7877 90.6449 38.559 90.647 36.3303C90.6527 35.2964 90.6408 34.2616 90.629 33.2266C90.6022 30.8969 90.5753 28.5655 90.7494 26.2386C86.4326 26.2797 82.1159 26.2704 77.7991 26.2611C77.1824 26.2598 76.5658 26.2585 75.9492 26.2574C71.097 26.3204 66.2419 26.2926 61.3868 26.2649Z" fill="url(#paint0_linear_674_254)" stroke="url(#paint1_linear_674_254)" stroke-width="8"/>
<defs>
<linearGradient id="paint0_linear_674_254" x1="95.7375" y1="177" x2="95.7375" y2="15" gradientUnits="userSpaceOnUse">
<stop stop-color="#5570FF"/>
<stop offset="1" stop-color="#4DD3FF"/>
</linearGradient>
<linearGradient id="paint1_linear_674_254" x1="95.7375" y1="177" x2="95.7375" y2="15" gradientUnits="userSpaceOnUse">
<stop stop-color="#5570FF"/>
<stop offset="1" stop-color="#4DD3FF"/>
</linearGradient>
</defs>
</svg>
