<svg width="64" height="64" viewBox="0 0 64 64" fill="none" xmlns="http://www.w3.org/2000/svg">
<path d="M59.7742 41.4433C59.8637 40.8398 59.9236 40.2293 59.9523 39.6133C60.6539 31.279 55.929 22.9835 48.5451 19.1042C43.3368 15.093 38.0807 11.1241 32.7566 7.27823C32.2834 7.04877 31.7641 6.91289 31.2384 6.88262C27.9805 6.52318 25.7014 10.7734 27.8092 13.2858C29.1546 14.6864 30.8502 15.7048 32.3534 16.9326C25.4338 16.9477 18.5128 16.9061 11.5941 16.9515C8.35261 17.1125 6.7733 21.5896 9.17404 23.7616C11.0435 25.5759 13.7896 24.74 16.1205 24.9323H21.1015C15.8307 28.96 10.5279 32.9476 5.27701 37.0002C2.76719 39.1033 4.26124 43.6704 7.52192 43.9011C10.0882 44.166 11.7463 41.867 13.7076 40.6157L18.0363 37.3219C17.3759 48.5572 27.2431 58.8915 38.4686 58.9138C48.4371 59.1562 54.3809 53.0041 56.8716 49.1319" stroke="url(#paint0_linear)" stroke-width="5" stroke-linecap="round"/>
<path d="M39.013 25.9319C42.1957 25.9319 45.248 27.1962 47.4985 29.4467C49.749 31.6971 51.0133 34.7494 51.0133 37.9321C51.0133 41.1147 49.749 44.167 47.4985 46.4175C45.248 48.668 42.1957 49.9324 39.013 49.9324C35.8304 49.9324 32.7781 48.668 30.5276 46.4175C28.2771 44.167 27.0128 41.1147 27.0128 37.9321C27.0128 34.7494 28.2771 31.6971 30.5276 29.4467C32.7781 27.1962 35.8304 25.9319 39.013 25.9319V25.9319Z" stroke="url(#paint1_linear)" stroke-width="5" stroke-linecap="round"/>
<defs>
<linearGradient id="paint0_linear" x1="4.57681" y1="45.6788" x2="42.3731" y2="4.18755" gradientUnits="userSpaceOnUse">
<stop stop-color="#FF5508"/>
<stop offset="1" stop-color="#FFA208"/>
</linearGradient>
<linearGradient id="paint1_linear" x1="4.57681" y1="45.6789" x2="42.3731" y2="4.18764" gradientUnits="userSpaceOnUse">
<stop stop-color="#FF5508"/>
<stop offset="1" stop-color="#FFA208"/>
</linearGradient>
</defs>
</svg>
