<svg width="128" height="128" viewBox="0 0 128 128" fill="none" xmlns="http://www.w3.org/2000/svg">
<path fill-rule="evenodd" clip-rule="evenodd" d="M30.2059 6.17448C39.1299 5.95746 48.0607 5.991 56.9916 6.02454C61.8739 6.04288 66.7562 6.06122 71.6376 6.03862C82.4591 5.92673 92.753 13.8866 95.2946 24.4118C96.1737 27.7603 92.4733 30.9491 89.2684 29.6864C87.3039 29.15 86.5538 27.2291 85.8749 25.4905C85.7749 25.2345 85.6765 24.9825 85.576 24.7394C83.2583 18.8974 77.0163 15.0454 70.7744 15.3011C66.4512 15.3039 62.1271 15.3592 57.8023 15.4146H57.8023C49.6226 15.5193 41.4408 15.624 33.2589 15.373C26.3536 15.0694 19.5682 19.3609 16.8349 25.6984C15.3733 28.6776 15.3615 31.9837 15.3498 35.2469C15.3466 36.1593 15.3433 37.0683 15.3084 37.9659C15.3112 44.8186 15.309 51.6724 15.3067 58.5265C15.3027 70.8644 15.2987 83.2032 15.3244 95.5388C15.2604 104.641 23.3725 112.721 32.4757 112.657C53.4872 112.681 74.5148 112.697 95.5263 112.649C104.254 112.609 112.078 105.081 112.446 96.3619C112.573 91.1139 112.549 85.8636 112.526 80.6134V80.6126V80.6126C112.504 75.9892 112.483 71.3659 112.566 66.7443C112.579 66.2842 112.607 65.8029 112.635 65.3097L112.635 65.3094C112.808 62.2735 113.007 58.7896 110.112 57.0503C108.066 56.0098 105.812 56.1098 103.552 56.2101C101.628 56.2954 99.7 56.3809 97.892 55.7636C94.2716 54.1652 94.6552 48.2673 98.4755 47.1804C100.731 46.8316 103.022 46.8675 105.305 46.9032L105.306 46.9032C106.057 46.9149 106.807 46.9267 107.555 46.9247C113.029 46.9486 118.248 50.3771 120.55 55.3241C122.105 58.4405 122.039 61.9502 121.974 65.3756C121.96 66.1225 121.946 66.8655 121.949 67.5995C121.746 72.6951 121.771 77.7927 121.797 82.8893V82.89V82.8904C121.821 87.849 121.846 92.8067 121.661 97.7605C120.75 110.627 109.273 121.616 96.3575 121.92C84.9843 122.009 73.6111 121.994 62.2379 121.979C55.213 121.97 48.1881 121.96 41.1632 121.976C39.953 121.958 38.733 121.97 37.5094 121.983C32.81 122.033 28.0592 122.083 23.6203 120.377C13.3583 116.821 5.99743 106.456 6.0294 95.5867C6.0262 91.316 6.02141 87.0452 6.01661 82.7744C5.99743 65.6911 5.97825 48.6078 6.06137 31.5245C6.35708 18.6097 17.3144 7.09354 30.2059 6.17448ZM39.1097 39.133C43.568 38.9033 48.04 38.9623 52.5129 39.0214C55.6655 39.063 58.8185 39.1046 61.9674 39.0451C62.4722 39.0747 62.9992 39.0688 63.5328 39.0628H63.5329C65.3059 39.0428 67.1517 39.0221 68.4971 40.2999C70.4472 41.9862 70.5031 45.303 68.625 47.0613C67.1902 48.496 65.1041 48.4734 63.1648 48.4523C62.7707 48.4481 62.3827 48.4438 62.0074 48.4519C58.4537 48.2776 54.8931 48.2926 51.3336 48.3077H51.3334C47.224 48.3251 43.116 48.3424 39.0217 48.0683C34.634 47.0933 34.69 40.0201 39.1097 39.133ZM65.5791 80.4107C56.7131 80.3656 47.8477 80.3206 39.0052 80.626C36.0881 81.3373 34.7534 85.1576 36.4237 87.6032C37.3908 89.2336 39.3329 89.841 41.1392 89.7291C47.0616 89.7167 52.9854 89.7236 58.9098 89.7306C68.1676 89.7416 77.4272 89.7525 86.6869 89.6892C90.2834 89.849 92.5452 85.1496 90.3313 82.3683C89.0059 80.3374 86.4987 80.365 84.3053 80.3892C84.0387 80.3922 83.7766 80.3951 83.5219 80.3942C77.5452 80.4715 71.562 80.4411 65.5791 80.4107Z" fill="url(#paint0_linear)"/>
<path d="M56.9916 6.02454L57.0029 3.02457L56.9916 6.02454ZM30.2059 6.17448L30.1329 3.17537L30.0627 3.17708L29.9925 3.18207L30.2059 6.17448ZM71.6376 6.03862L71.6515 9.03859L71.66 9.03855L71.6686 9.03846L71.6376 6.03862ZM95.2946 24.4118L92.3784 25.1159L92.3854 25.1448L92.3929 25.1736L95.2946 24.4118ZM89.2684 29.6864L90.3681 26.8952L90.2162 26.8353L90.0586 26.7923L89.2684 29.6864ZM85.8749 25.4905L88.6694 24.3993L88.6694 24.3993L85.8749 25.4905ZM85.576 24.7394L82.7875 25.8458L82.7954 25.8659L82.8037 25.8859L85.576 24.7394ZM70.7744 15.3011L70.7763 18.3011L70.8368 18.3011L70.8972 18.2986L70.7744 15.3011ZM57.8023 15.4146V18.4146H57.8215L57.8407 18.4143L57.8023 15.4146ZM57.8023 15.4146V12.4146H57.7831L57.7639 12.4148L57.8023 15.4146ZM33.2589 15.373L33.1271 18.3701L33.147 18.371L33.1669 18.3716L33.2589 15.373ZM16.8349 25.6984L19.5282 27.0198L19.5605 26.9539L19.5896 26.8865L16.8349 25.6984ZM15.3498 35.2469L12.3498 35.2362L12.3498 35.2362L15.3498 35.2469ZM15.3084 37.9659L12.3106 37.8492L12.3083 37.9081L12.3084 37.9671L15.3084 37.9659ZM15.3067 58.5265L12.3067 58.5255L12.3067 58.5255L15.3067 58.5265ZM15.3244 95.5388L18.3243 95.5599L18.3244 95.5462L18.3244 95.5325L15.3244 95.5388ZM32.4757 112.657L32.4791 109.657L32.4668 109.657L32.4546 109.657L32.4757 112.657ZM95.5263 112.649L95.5332 115.649L95.5401 115.649L95.5263 112.649ZM112.446 96.3619L115.443 96.4883L115.444 96.4616L115.445 96.4348L112.446 96.3619ZM112.526 80.6134L109.526 80.6134L109.526 80.627L112.526 80.6134ZM112.526 80.6126L115.526 80.6126L115.526 80.5989L112.526 80.6126ZM112.566 66.7443L109.567 66.657L109.567 66.6739L109.566 66.6909L112.566 66.7443ZM112.635 65.3097L109.641 65.1226L109.64 65.1308L109.64 65.1389L112.635 65.3097ZM112.635 65.3094L115.629 65.4965L115.629 65.4883L115.63 65.4802L112.635 65.3094ZM110.112 57.0503L111.657 54.4788L111.566 54.4242L111.472 54.3761L110.112 57.0503ZM103.552 56.2101L103.685 59.2071L103.685 59.2071L103.552 56.2101ZM97.892 55.7636L96.6804 58.508L96.7995 58.5606L96.9227 58.6027L97.892 55.7636ZM98.4755 47.1804L98.0169 44.2157L97.8333 44.2441L97.6545 44.2949L98.4755 47.1804ZM105.305 46.9032L105.399 43.9046L105.376 43.9039L105.352 43.9035L105.305 46.9032ZM105.306 46.9032L105.212 49.9017L105.235 49.9025L105.259 49.9028L105.306 46.9032ZM107.555 46.9247L107.568 43.9247L107.557 43.9247L107.547 43.9247L107.555 46.9247ZM120.55 55.3241L117.83 56.5896L117.847 56.6268L117.866 56.6635L120.55 55.3241ZM121.974 65.3756L124.973 65.4323L124.973 65.4323L121.974 65.3756ZM121.949 67.5995L124.946 67.7186L124.949 67.6532L124.949 67.5878L121.949 67.5995ZM121.797 82.8893H124.797V82.8819L124.797 82.8744L121.797 82.8893ZM121.797 82.8904H118.797V82.8978L118.797 82.9053L121.797 82.8904ZM121.661 97.7605L124.653 97.9724L124.657 97.9226L124.659 97.8726L121.661 97.7605ZM96.3575 121.92L96.381 124.92L96.4045 124.919L96.428 124.919L96.3575 121.92ZM62.2379 121.979L62.2419 118.979L62.2419 118.979L62.2379 121.979ZM41.1632 121.976L41.1182 124.975L41.144 124.976L41.1697 124.976L41.1632 121.976ZM37.5094 121.983L37.4778 118.983L37.4778 118.983L37.5094 121.983ZM23.6203 120.377L24.6964 117.577L24.6498 117.559L24.6026 117.543L23.6203 120.377ZM6.0294 95.5867L9.02941 95.5956L9.0294 95.5845L6.0294 95.5867ZM6.01661 82.7744L3.01661 82.7778L6.01661 82.7744ZM6.06137 31.5245L3.06215 31.4558L3.06154 31.4828L3.0614 31.5099L6.06137 31.5245ZM52.5129 39.0214L52.4733 42.0211L52.4733 42.0211L52.5129 39.0214ZM39.1097 39.133L38.9553 36.137L38.7353 36.1483L38.5193 36.1917L39.1097 39.133ZM61.9674 39.0451L62.143 36.0502L62.027 36.0434L61.9108 36.0456L61.9674 39.0451ZM63.5328 39.0628V36.0628H63.516L63.4991 36.0629L63.5328 39.0628ZM63.5329 39.0628V42.0628H63.5498L63.5666 42.0626L63.5329 39.0628ZM68.4971 40.2999L66.4311 42.4751L66.4818 42.5233L66.5348 42.5691L68.4971 40.2999ZM68.625 47.0613L66.5747 44.8712L66.5386 44.905L66.5036 44.94L68.625 47.0613ZM63.1648 48.4523L63.1322 51.4522L63.1323 51.4522L63.1648 48.4523ZM62.0074 48.4519L61.8604 51.4483L61.9662 51.4535L62.0721 51.4512L62.0074 48.4519ZM51.3336 48.3077L51.3336 51.3077L51.3463 51.3077L51.3336 48.3077ZM51.3334 48.3077L51.3334 45.3077L51.3207 45.3077L51.3334 48.3077ZM39.0217 48.0683L38.371 50.9969L38.5937 51.0464L38.8214 51.0616L39.0217 48.0683ZM39.0052 80.626L38.9017 77.6278L38.5938 77.6384L38.2946 77.7114L39.0052 80.626ZM65.5791 80.4107L65.5638 83.4106L65.5638 83.4106L65.5791 80.4107ZM36.4237 87.6032L39.004 86.0727L38.9551 85.9903L38.9011 85.9112L36.4237 87.6032ZM41.1392 89.7291L41.1328 86.7291L41.0432 86.7293L40.9537 86.7349L41.1392 89.7291ZM58.9098 89.7306L58.9133 86.7306L58.9133 86.7306L58.9098 89.7306ZM86.6869 89.6892L86.8201 86.6921L86.7432 86.6887L86.6663 86.6892L86.6869 89.6892ZM90.3313 82.3683L87.819 84.0079L87.8962 84.1261L87.9841 84.2366L90.3313 82.3683ZM84.3053 80.3892L84.3384 83.3891L84.3384 83.3891L84.3053 80.3892ZM83.5219 80.3942L83.5322 77.3942L83.5077 77.3941L83.4831 77.3944L83.5219 80.3942ZM57.0029 3.02457C48.079 2.99105 39.1061 2.95715 30.1329 3.17537L30.2788 9.17359C39.1537 8.95777 48.0424 8.99095 56.9803 9.02452L57.0029 3.02457ZM71.6237 3.03865C66.757 3.06118 61.8873 3.04291 57.0029 3.02457L56.9803 9.02452C61.8605 9.04285 66.7554 9.06125 71.6515 9.03859L71.6237 3.03865ZM98.2107 23.7076C95.3388 11.814 83.8146 2.91256 71.6066 3.03878L71.6686 9.03846C81.1035 8.94091 90.1673 15.9591 92.3784 25.1159L98.2107 23.7076ZM88.1687 32.4775C91.012 33.5978 93.897 32.6819 95.7823 31.0415C97.6723 29.3969 98.9834 26.6483 98.1962 23.65L92.3929 25.1736C92.4849 25.5238 92.3853 26.0439 91.8437 26.5151C91.2974 26.9905 90.7298 27.0377 90.3681 26.8952L88.1687 32.4775ZM83.0804 26.5817C83.3947 27.3865 83.8658 28.6294 84.6058 29.7218C85.4019 30.8971 86.6185 32.0726 88.4783 32.5804L90.0586 26.7923C89.9538 26.7637 89.813 26.7106 89.5733 26.3567C89.2774 25.9199 89.034 25.3331 88.6694 24.3993L83.0804 26.5817ZM82.8037 25.8859C82.8909 26.0966 82.9784 26.3204 83.0804 26.5817L88.6694 24.3993C88.5715 24.1486 88.4622 23.8684 88.3483 23.593L82.8037 25.8859ZM70.8972 18.2986C75.9286 18.0925 80.9627 21.2464 82.7875 25.8458L88.3646 23.6331C85.5538 16.5485 78.1041 11.9983 70.6516 12.3036L70.8972 18.2986ZM57.8407 18.4143C62.1685 18.3589 66.4744 18.3039 70.7763 18.3011L70.7725 12.3011C66.428 12.3039 62.0857 12.3595 57.764 12.4148L57.8407 18.4143ZM57.8023 18.4146H57.8023V12.4146H57.8023V18.4146ZM33.1669 18.3716C41.4248 18.6249 49.6719 18.5189 57.8407 18.4143L57.7639 12.4148C49.5734 12.5196 41.4567 12.6231 33.3509 12.3745L33.1669 18.3716ZM19.5896 26.8865C21.8339 21.683 27.4769 18.1217 33.1271 18.3701L33.3907 12.3759C25.2303 12.0171 17.3026 17.0389 14.0802 24.5104L19.5896 26.8865ZM18.3498 35.2576C18.3619 31.8668 18.4214 29.2758 19.5282 27.0198L14.1415 24.3771C12.3253 28.0794 12.3611 32.1006 12.3498 35.2362L18.3498 35.2576ZM18.3061 38.0825C18.3434 37.123 18.3466 36.1607 18.3498 35.2576L12.3498 35.2362C12.3465 36.1579 12.3432 37.0136 12.3106 37.8492L18.3061 38.0825ZM18.3067 58.5275C18.309 51.6736 18.3112 44.8187 18.3084 37.9646L12.3084 37.9671C12.3112 44.8186 12.309 51.6713 12.3067 58.5255L18.3067 58.5275ZM18.3244 95.5325C18.2987 83.2012 18.3027 70.866 18.3067 58.5275L12.3067 58.5255C12.3027 70.8628 12.2987 83.2053 12.3244 95.545L18.3244 95.5325ZM32.4546 109.657C25.0174 109.71 18.2722 102.982 18.3243 95.5599L12.3244 95.5177C12.2487 106.301 21.7277 115.733 32.4967 115.657L32.4546 109.657ZM95.5195 109.649C74.5135 109.697 53.4904 109.681 32.4791 109.657L32.4723 115.657C53.4841 115.681 74.5161 115.697 95.5332 115.649L95.5195 109.649ZM109.449 96.2356C109.148 103.352 102.64 109.617 95.5126 109.649L95.5401 115.649C105.868 115.602 115.008 106.81 115.443 96.4883L109.449 96.2356ZM109.526 80.627C109.55 85.8844 109.573 91.0915 109.447 96.2891L115.445 96.4348C115.574 91.1363 115.549 85.8427 115.526 80.5997L109.526 80.627ZM109.526 80.6126V80.6134H115.526V80.6126H109.526ZM109.526 80.6126V80.6126H115.526V80.6126H109.526ZM109.566 66.6909C109.483 71.3516 109.505 76.0084 109.526 80.6262L115.526 80.5989C115.504 75.9699 115.484 71.3802 115.565 66.7978L109.566 66.6909ZM109.64 65.1389C109.612 65.6235 109.582 66.1476 109.567 66.657L115.564 66.8317C115.576 66.4208 115.601 65.9823 115.63 65.4805L109.64 65.1389ZM109.641 65.1222L109.641 65.1226L115.629 65.4969L115.629 65.4965L109.641 65.1222ZM108.567 59.6217C109.095 59.939 109.405 60.3879 109.581 61.276C109.784 62.3024 109.731 63.5363 109.64 65.1386L115.63 65.4802C115.712 64.0465 115.845 62.0205 115.467 60.1112C115.062 58.0636 114.024 55.9009 111.657 54.4788L108.567 59.6217ZM103.685 59.2071C106.091 59.1004 107.526 59.1008 108.753 59.7245L111.472 54.3761C108.606 52.9189 105.532 53.1193 103.419 53.213L103.685 59.2071ZM96.9227 58.6027C99.3581 59.4342 101.869 59.2877 103.685 59.2071L103.419 53.213C101.387 53.3031 100.042 53.3276 98.8614 52.9245L96.9227 58.6027ZM97.6545 44.2949C94.2353 45.2677 92.5834 48.3365 92.4001 51.0803C92.2171 53.8207 93.442 57.0784 96.6804 58.508L99.1037 53.0192C98.7216 52.8505 98.328 52.36 98.3868 51.4801C98.4453 50.6037 98.8953 50.18 99.2964 50.0659L97.6545 44.2949ZM105.352 43.9035C103.113 43.8685 100.565 43.8215 98.0169 44.2157L98.934 50.1452C100.896 49.8418 102.931 49.8664 105.258 49.9028L105.352 43.9035ZM105.399 43.9046L105.399 43.9046L105.212 49.9017L105.212 49.9017L105.399 43.9046ZM107.547 43.9247C106.831 43.9266 106.108 43.9154 105.353 43.9035L105.259 49.9028C106.005 49.9145 106.783 49.9267 107.563 49.9247L107.547 43.9247ZM123.27 54.0585C120.49 48.0843 114.233 43.9539 107.568 43.9247L107.541 49.9246C111.825 49.9434 116.006 52.67 117.83 56.5896L123.27 54.0585ZM124.973 65.4323C125.035 62.1499 125.174 57.8716 123.234 53.9846L117.866 56.6635C119.036 59.0095 119.042 61.7506 118.974 65.3189L124.973 65.4323ZM124.949 67.5878C124.946 66.8938 124.959 66.1853 124.973 65.4323L118.974 65.3188C118.96 66.0598 118.946 66.8371 118.949 67.6112L124.949 67.5878ZM124.797 82.8744C124.771 77.7666 124.747 72.736 124.946 67.7186L118.951 67.4803C118.745 72.6541 118.772 77.8188 118.797 82.9042L124.797 82.8744ZM124.797 82.89V82.8893H118.797V82.89H124.797ZM124.797 82.8904V82.89H118.797V82.8904H124.797ZM124.659 97.8726C124.847 92.8447 124.821 87.8235 124.797 82.8754L118.797 82.9053C118.822 87.8746 118.845 92.7687 118.663 97.6484L124.659 97.8726ZM96.428 124.919C110.895 124.579 123.633 112.378 124.653 97.9724L118.668 97.5486C117.866 108.877 107.65 118.653 96.287 118.921L96.428 124.919ZM62.234 124.979C73.6049 124.994 84.9918 125.009 96.381 124.92L96.3341 118.92C84.9769 119.009 73.6173 118.994 62.2419 118.979L62.234 124.979ZM41.1697 124.976C48.1886 124.96 55.2082 124.97 62.234 124.979L62.2419 118.979C55.2178 118.97 48.1877 118.96 41.1567 118.976L41.1697 124.976ZM37.5411 124.983C38.7713 124.97 39.9528 124.958 41.1182 124.975L41.2082 118.976C39.9533 118.957 38.6947 118.971 37.4778 118.983L37.5411 124.983ZM22.5442 123.178C27.607 125.123 32.9448 125.032 37.5411 124.983L37.4778 118.983C32.6751 119.034 28.5113 119.043 24.6964 117.577L22.5442 123.178ZM3.02941 95.5779C2.99367 107.729 11.1656 119.236 22.6379 123.212L24.6026 117.543C15.5509 114.406 9.00119 105.182 9.02939 95.5956L3.02941 95.5779ZM3.01661 82.7778C3.02141 87.0487 3.0262 91.3189 3.0294 95.589L9.0294 95.5845C9.0262 91.3131 9.0214 87.0417 9.01661 82.7711L3.01661 82.7778ZM3.0614 31.5099C2.97823 48.6037 2.99743 65.696 3.01661 82.7778L9.01661 82.7711C8.99743 65.6862 8.97826 48.6119 9.06133 31.5391L3.0614 31.5099ZM29.9925 3.18207C15.5553 4.21133 3.39325 16.9958 3.06215 31.4558L9.06058 31.5931C9.32091 20.2237 19.0735 9.97574 30.4192 9.16688L29.9925 3.18207ZM52.5525 36.0216C48.0959 35.9628 43.5267 35.9014 38.9553 36.137L39.264 42.129C43.6092 41.9052 47.984 41.9618 52.4733 42.0211L52.5525 36.0216ZM61.9108 36.0456C58.818 36.104 55.7131 36.0633 52.5525 36.0216L52.4733 42.0211C55.6178 42.0626 58.819 42.1051 62.0241 42.0446L61.9108 36.0456ZM63.4991 36.0629C62.9444 36.0692 62.5246 36.0726 62.143 36.0502L61.7919 42.04C62.4198 42.0768 63.054 42.0683 63.5665 42.0626L63.4991 36.0629ZM63.5329 36.0628H63.5328V42.0628H63.5329V36.0628ZM70.5631 38.1246C68.1876 35.8685 64.9992 36.0461 63.4992 36.0629L63.5666 42.0626C64.5095 42.052 65.1241 42.0544 65.6478 42.1479C66.102 42.2291 66.3002 42.3508 66.4311 42.4751L70.5631 38.1246ZM70.6752 49.2514C73.8476 46.2815 73.7639 40.8882 70.4594 38.0307L66.5348 42.5691C67.1305 43.0842 67.1587 44.3245 66.5747 44.8712L70.6752 49.2514ZM63.1323 51.4522C64.7607 51.4698 68.2647 51.6642 70.7463 49.1826L66.5036 44.94C66.345 45.0986 66.096 45.2517 65.5488 45.3509C64.9367 45.4619 64.2237 45.4637 63.1974 45.4525L63.1323 51.4522ZM62.0721 51.4512C62.3902 51.4444 62.7286 51.4478 63.1322 51.4522L63.1974 45.4525C62.8128 45.4483 62.3751 45.4433 61.9427 45.4526L62.0721 51.4512ZM51.3463 51.3077C54.9191 51.2926 58.3998 51.2786 61.8604 51.4483L62.1544 45.4556C58.5076 45.2766 54.867 45.2927 51.3209 45.3077L51.3463 51.3077ZM51.3334 51.3077H51.3336V45.3077H51.3334V51.3077ZM38.8214 51.0616C43.0398 51.344 47.2546 51.325 51.3461 51.3077L51.3207 45.3077C47.1933 45.3252 43.1922 45.3408 39.2221 45.075L38.8214 51.0616ZM38.5193 36.1917C34.5187 36.9947 32.7897 40.572 32.763 43.5407C32.7364 46.5062 34.3969 50.1138 38.371 50.9969L39.6725 45.1398C39.3831 45.0754 39.2034 44.938 39.059 44.7215C38.8892 44.4667 38.7585 44.0686 38.7628 43.5947C38.7671 43.1207 38.9048 42.7273 39.0777 42.4785C39.224 42.2681 39.4052 42.1335 39.7001 42.0743L38.5193 36.1917ZM39.1088 83.6242C47.882 83.3212 56.6878 83.3655 65.5638 83.4106L65.5943 77.4107C56.7383 77.3657 47.8135 77.32 38.9017 77.6278L39.1088 83.6242ZM38.9011 85.9112C38.6981 85.614 38.5971 85.0863 38.8144 84.4871C39.0284 83.897 39.409 83.6154 39.7159 83.5406L38.2946 77.7114C35.6843 78.3478 33.9389 80.3321 33.1739 82.4413C32.4122 84.5416 32.4791 87.1468 33.9464 89.2952L38.9011 85.9112ZM40.9537 86.7349C40.4303 86.7673 39.9564 86.6881 39.6062 86.5443C39.2763 86.4089 39.1038 86.241 39.004 86.0727L33.8435 89.1336C35.5984 92.0924 38.8851 92.8745 41.3246 92.7234L40.9537 86.7349ZM58.9133 86.7306C52.9897 86.7237 47.0611 86.7166 41.1328 86.7291L41.1455 92.7291C47.0622 92.7167 52.981 92.7236 58.9063 92.7306L58.9133 86.7306ZM86.6663 86.6892C77.4207 86.7525 68.1732 86.7416 58.9133 86.7306L58.9063 92.7306C68.1621 92.7416 77.4337 92.7525 86.7074 92.6891L86.6663 86.6892ZM87.9841 84.2366C88.2112 84.522 88.3439 85.0994 87.9954 85.8087C87.6523 86.5071 87.1573 86.7071 86.8201 86.6921L86.5537 92.6862C89.8129 92.8311 92.2471 90.7613 93.3805 88.4546C94.5086 86.1588 94.6652 82.9959 92.6785 80.5L87.9841 84.2366ZM84.3384 83.3891C85.5096 83.3761 86.3169 83.3821 86.975 83.5326C87.524 83.6581 87.699 83.824 87.819 84.0079L92.8436 80.7287C91.6382 78.8817 89.8969 78.0459 88.3126 77.6836C86.8375 77.3463 85.2944 77.3781 84.2722 77.3894L84.3384 83.3891ZM83.5117 83.3942C83.7918 83.3951 84.0759 83.3919 84.3384 83.3891L84.2723 77.3894C84.0014 77.3924 83.7614 77.395 83.5322 77.3942L83.5117 83.3942ZM65.5638 83.4106C71.5422 83.441 77.5525 83.4716 83.5607 83.3939L83.4831 77.3944C77.5379 77.4713 71.5817 77.4411 65.5943 77.4107L65.5638 83.4106Z" fill="url(#paint1_linear)"/>
<defs>
<linearGradient id="paint0_linear" x1="64" y1="122" x2="64" y2="6" gradientUnits="userSpaceOnUse">
<stop stop-color="#FD2E00"/>
<stop offset="1" stop-color="#FF9900"/>
</linearGradient>
<linearGradient id="paint1_linear" x1="64" y1="122" x2="64" y2="6" gradientUnits="userSpaceOnUse">
<stop stop-color="#FD2E00"/>
<stop offset="1" stop-color="#FF9900"/>
</linearGradient>
</defs>
</svg>
