<svg width="256" height="256" viewBox="0 0 256 256" fill="none" xmlns="http://www.w3.org/2000/svg">
<path d="M62.3419 18.726C65.7142 18.1771 69.1178 18.0359 72.5214 18.0045C110.165 18.0202 147.793 17.9888 185.437 18.0045C198.534 18.1143 211.521 23.3217 221.042 32.3249C231.708 42.175 237.95 56.5267 237.95 71.0353C237.95 106.609 237.935 142.167 237.95 177.74C238.17 186.367 237.762 195.166 234.594 203.291C227.347 223.446 206.894 237.813 185.484 237.876C149.958 237.923 114.432 237.876 78.9052 237.892C73.039 237.892 67.1258 238.111 61.3538 236.951C43.8651 233.719 28.3997 221.156 21.8905 204.577C19.0358 197.581 17.8438 190.021 18.0163 182.492C18.0477 144.817 17.9379 107.142 18.0633 69.4668C18.377 44.8571 38.0303 22.3963 62.3419 18.726ZM68.3963 35.901C50.6253 36.9519 35.5991 53.1858 35.803 70.9569C35.7873 109.181 35.7403 147.39 35.8344 185.598C35.9442 203.369 51.3625 219.431 69.1962 219.917C107.985 220.089 146.774 219.979 185.563 219.979C199.993 219.932 213.607 209.878 218.156 196.233C219.96 191.307 220.274 186.037 220.195 180.861C220.07 143.735 220.321 106.609 220.085 69.4982C219.615 51.4919 203.491 35.7756 185.484 35.8069C146.445 35.7756 107.405 35.5873 68.3963 35.901Z" fill="#FF6F4B" stroke="#FF6F4B" stroke-width="10"/>
<path d="M84.5359 78.8776C84.1437 72.1644 90.8726 64.3219 97.9151 67.5217C111.561 74.721 124.94 82.4851 138.429 89.9825C142.727 92.2411 144.939 97.9661 142.492 102.342C140.594 107.236 134.053 108.004 129.803 105.997C121.066 101.103 112.408 96.0526 103.546 91.3785C103.656 116.27 103.703 141.162 103.53 166.054C125.003 153.632 146.476 141.225 167.87 128.677C163.698 125.038 158.396 123.015 154.302 119.282C150.303 115.753 150.883 108.271 155.667 105.667C158.71 103.236 163.008 103.879 166.113 105.84C173.673 110.279 180.967 115.188 188.574 119.564C191.758 121.196 193.436 124.474 195.664 127.109C195.46 131.799 191.978 135.704 188.056 137.931C158.286 155.279 128.563 172.721 98.6366 189.77C91.7196 193.785 84.4731 186.037 84.5359 179.277C84.5672 145.805 84.5672 112.334 84.5359 78.8776Z" fill="#FF6F4B" stroke="#FF6F4B" stroke-width="10"/>
</svg>
