<svg width="24" height="24" viewBox="0 0 24 24" fill="none" xmlns="http://www.w3.org/2000/svg">
<path d="M4 6.5C4 6.22386 3.77614 6 3.5 6H2.5C2.22386 6 2 6.22386 2 6.5V20C2 21.1 2.9 22 4 22H17.5C17.7761 22 18 21.7761 18 21.5V20.5C18 20.2239 17.7761 20 17.5 20H5C4.44772 20 4 19.5523 4 19V6.5ZM20 2H8C6.9 2 6 2.9 6 4V16C6 17.1 6.9 18 8 18H20C21.1 18 22 17.1 22 16V4C22 2.9 21.1 2 20 2ZM17 4V9L16 8.25L15 9V4H17ZM20 16H8V4H13V12C13 12.412 13.4704 12.6472 13.8 12.4L16 10.75L18.2 12.4C18.5296 12.6472 19 12.412 19 12V4H20V16Z" fill="url(#paint0_linear)"/>
<defs>
<linearGradient id="paint0_linear" x1="12" y1="2" x2="12" y2="22" gradientUnits="userSpaceOnUse">
<stop stop-color="#BAFA52"/>
<stop offset="1" stop-color="#3F8F5B"/>
</linearGradient>
</defs>
</svg>
