<svg width="128" height="128" viewBox="0 0 128 128" fill="none" xmlns="http://www.w3.org/2000/svg">
<path d="M47.0251 12.0612C52.8019 10.7308 58.303 7.7665 64.3763 8.01467C70.1394 8.07671 75.3854 10.7583 80.8865 12.0336C85.5328 11.365 90.0895 10.1999 94.7358 9.53126C98.2377 9.0625 101.816 10.6825 103.994 13.4262C109.764 20.368 115.355 27.5167 119.946 35.3065C123.144 40.6352 122.586 47.8804 118.422 52.5267C113.321 57.952 108.22 63.3773 103.07 68.7543C104.656 72.2011 105.89 76.0064 105.262 79.8461C104.159 86.9258 99.1339 92.8681 92.9779 96.2667C92.1783 98.769 90.9994 101.285 88.7521 102.809C82.8719 106.786 77.3639 111.288 72.042 115.975C69.5948 118.188 66.3548 119.719 62.9907 119.34C59.9575 119.085 57.3173 117.34 55.1527 115.314C50.3823 111.04 45.3431 107.069 40.0143 103.519C37.4774 101.878 35.8506 99.2102 35.0854 96.3356C29.8462 93.2886 25.2551 88.6561 23.4627 82.7483C21.2775 76.3855 23.5868 69.0576 28.3503 64.5009C30.7631 62.4811 34.0306 65.5212 33.7687 68.1614C33.3689 71.5462 30.5632 74.2761 30.7906 77.7987C30.9699 82.3485 34.2581 85.9607 37.7739 88.4838C40.035 86.395 42.9165 85.2369 45.5981 83.803C49.8997 81.5557 54.3323 79.5703 58.8821 77.8814C60.3022 77.4058 61.7981 76.482 62.1773 74.9309C62.3772 73.7177 61.6189 72.6423 60.6469 72.0149C56.1247 68.9197 51.4991 65.9693 46.9837 62.8602C45.8808 62.1709 44.9088 60.8197 45.5292 59.4893C47.2871 55.4979 49.7619 51.858 51.5542 47.8804C52.7123 45.316 51.3405 42.1725 48.783 41.104C42.3788 38.4086 35.6369 36.4922 29.3706 33.4797C32.7415 32.8041 36.1952 32.7489 39.6007 32.3078C44.0402 31.6253 48.3073 33.3969 52.5331 34.4586C54.2979 35.01 57.2621 35.2996 57.0277 37.8158C56.0626 44.7507 54.4564 51.5892 53.4017 58.5104C53.1742 59.7857 52.9122 61.7986 54.5529 62.2329C59.151 63.6323 64.0868 64.8456 68.8572 63.5082C70.7874 62.8602 73.3311 62.943 74.6823 61.2264C74.8477 59.8202 74.5651 58.4207 74.3583 57.042C73.276 51.0584 72.1316 45.0885 71.07 39.1049C70.8701 37.9398 70.6633 36.3957 71.8628 35.6787C73.6827 34.6998 75.7784 34.4034 77.7361 33.8037C80.8038 33.0385 83.8852 31.7425 87.1114 32.2043C90.896 32.618 94.7013 32.8179 98.4721 33.3625C97.1417 34.4999 95.3769 34.8722 93.7914 35.534C88.9658 37.3883 84.0783 39.1049 79.2734 41.0282C76.8675 41.9864 75.2269 44.8266 76.2402 47.3496C77.488 50.5069 79.3561 53.3746 80.9003 56.394C81.6241 57.9382 82.927 59.4686 82.5203 61.2885C81.9688 62.164 81.1071 62.7568 80.2799 63.3359C76.1368 66.0796 72.0213 68.8715 67.8852 71.622C66.9752 72.2907 65.7826 73.0352 65.8516 74.3312C65.755 75.9305 67.2027 77.1162 68.5745 77.6332C74.9442 80.0667 81.1347 82.962 87.1459 86.1882C88.2627 86.7811 89.2416 87.6014 90.2067 88.4148C93.5363 86.2709 96.28 82.9896 97.1279 79.0533C97.8793 75.3101 95.2183 72.1804 94.3153 68.7405C93.8396 67.1274 94.8323 65.6039 95.887 64.4802C101.236 58.793 106.669 53.1816 111.997 47.4806C114.169 45.3022 114.445 41.7382 112.783 39.1807C108.564 32.0734 103.449 25.552 98.2102 19.1823C97.5897 18.6101 97.1279 17.6106 96.1697 17.5899C90.8478 18.1345 85.6776 19.913 80.3212 20.1819C74.2204 19.3202 68.6159 15.577 62.2807 16.1905C57.1105 16.9626 52.3676 19.5684 47.1837 20.2577C41.8549 19.789 36.6709 18.0449 31.349 17.6519C29.8255 18.6998 28.8604 20.3404 27.6816 21.7261C22.994 27.496 18.5131 33.459 14.7837 39.8976C13.7634 42.2208 13.8875 45.3022 15.7212 47.198C18.1891 49.9968 20.8983 52.5819 23.3111 55.422C25.324 57.759 23.3869 61.902 20.2917 61.7917C17.8375 62.0813 16.4381 59.7857 14.9422 58.2829C12.819 55.8425 10.3856 53.6779 8.44845 51.0859C5.49799 46.7568 5.21535 40.7869 7.59364 36.1406C12.04 28.1992 17.7617 21.085 23.4421 14.0052C25.5377 11.1099 29.0741 9.19348 32.7002 9.53816C37.5119 10.1379 42.2134 11.4408 47.0251 12.0612ZM61.4741 87.2981C56.6555 91.7445 50.5271 94.2537 44.6123 96.8595C50.4236 100.596 55.7938 104.98 60.9502 109.578C61.9291 110.364 63.0045 111.439 64.3832 111.191C65.4862 110.964 66.2927 110.102 67.1476 109.433C72.2488 104.925 77.5707 100.651 83.1476 96.7354C78.7288 94.6467 74.0412 93.0198 70.0842 90.09C68.0575 88.6906 66.3617 86.8776 64.3556 85.4575C63.0803 85.361 62.391 86.6501 61.4741 87.2981Z" fill="url(#paint0_linear_625_108)" stroke="url(#paint1_linear_625_108)" stroke-width="4"/>
<defs>
<linearGradient id="paint0_linear_625_108" x1="64" y1="119.397" x2="64" y2="8" gradientUnits="userSpaceOnUse">
<stop stop-color="#FD2E00"/>
<stop offset="1" stop-color="#FF9900"/>
</linearGradient>
<linearGradient id="paint1_linear_625_108" x1="64" y1="119.397" x2="64" y2="8" gradientUnits="userSpaceOnUse">
<stop stop-color="#FD2E00"/>
<stop offset="1" stop-color="#FF9900"/>
</linearGradient>
</defs>
</svg>
