<svg width="48" height="48" viewBox="0 0 48 48" fill="none" xmlns="http://www.w3.org/2000/svg">
<path fill-rule="evenodd" clip-rule="evenodd" d="M24 6C14.0589 6 6 14.0589 6 24C6 33.9411 14.0589 42 24 42C33.9411 42 42 33.9411 42 24C42 14.0589 33.9411 6 24 6ZM2 24C2 11.8497 11.8497 2 24 2C36.1503 2 46 11.8497 46 24C46 36.1503 36.1503 46 24 46C11.8497 46 2 36.1503 2 24Z" fill="url(#paint0_linear_674_200)"/>
<path d="M27.8483 9.00057C27.4947 9.00528 27.1278 9.03862 26.6898 9.12541C25.8926 9.28333 25.0618 9.7656 24.3598 10.2545C21.9761 11.9146 21.3464 15.1589 22.9485 17.5025C24.2888 19.463 26.7941 20.1495 28.9792 19.3993C29.4403 19.2409 29.6251 19.2242 29.9827 19.1944C30.4438 19.1559 31.1862 19.2129 31.8515 19.5409C32.3926 19.8079 32.8554 20.0406 33.1557 20.6608C33.2339 20.8221 33.3715 21.1091 33.4011 21.4713C33.448 22.0486 33.333 22.3296 32.951 23.0625C33.5585 22.5725 33.8495 22.4917 34.7514 21.3949C36.5469 19.2115 36.6408 15.5637 34.6851 12.7028C33.2352 10.5821 31.0157 9.22783 28.9238 9.05274C28.5413 9.02073 28.2019 8.99587 27.8483 9.00057Z" fill="url(#paint1_linear_674_200)"/>
<path d="M15.1888 15.5636C12.7237 15.6181 10.1506 17.2664 8.86937 19.9675C7.7839 22.2558 7.73108 24.8291 8.62033 26.7133C8.94555 27.4025 9.20976 27.9297 9.79229 28.5976C10.3223 29.2052 11.1446 29.6828 11.9092 30.0461C14.5047 31.2791 17.578 30.2263 18.778 27.6986V27.6967C19.7803 25.5816 19.1234 23.0899 17.401 21.5806C17.0372 21.262 16.9317 21.1117 16.7289 20.8189C16.4672 20.4414 16.1462 19.7757 16.0953 19.0427C16.0539 18.4463 16.0205 17.9337 16.3992 17.3709C16.4979 17.2244 16.6752 16.9663 16.9688 16.7629C17.4368 16.4389 17.7321 16.3991 18.5455 16.3674C17.8269 16.086 17.6157 15.875 16.2344 15.6386C15.8907 15.5798 15.541 15.5557 15.1888 15.5636Z" fill="url(#paint2_linear_674_200)"/>
<path d="M30.2665 26.8137C30.0975 26.8098 29.9273 26.8159 29.7551 26.8297V26.8278C27.4523 27.012 25.649 28.7842 25.2089 30.9766C25.116 31.4393 25.0392 31.6021 24.8891 31.9163C24.6956 32.3216 24.2834 32.9183 23.6821 33.3189C23.1929 33.6449 22.7707 33.9218 22.1028 33.8763C21.929 33.8645 21.621 33.8412 21.3024 33.6923C20.7945 33.4549 20.6158 33.226 20.1875 32.5542C20.3015 33.2986 20.2248 33.5784 20.7042 34.8608C21.6586 37.4136 24.6762 39.2425 28.0368 38.9738C30.5279 38.7746 32.754 37.5642 33.9255 35.8936C34.354 35.2825 34.674 34.8016 34.9573 33.9836C35.215 33.2393 35.2175 32.3108 35.1506 31.4876C34.938 28.867 32.8012 26.8714 30.2665 26.8137Z" fill="url(#paint3_linear_674_200)"/>
<defs>
<linearGradient id="paint0_linear_674_200" x1="2" y1="2" x2="2" y2="46" gradientUnits="userSpaceOnUse">
<stop stop-color="white"/>
<stop offset="1" stop-color="#E0E0E0"/>
</linearGradient>
<linearGradient id="paint1_linear_674_200" x1="28.4822" y1="22.6848" x2="30.071" y2="9.97789" gradientUnits="userSpaceOnUse">
<stop stop-color="#8D01A2"/>
<stop offset="1" stop-color="#FF33DB"/>
</linearGradient>
<linearGradient id="paint2_linear_674_200" x1="13.1358" y1="30.1592" x2="15.3687" y2="16.7655" gradientUnits="userSpaceOnUse">
<stop stop-color="#8D01A2"/>
<stop offset="1" stop-color="#FF33DB"/>
</linearGradient>
<linearGradient id="paint3_linear_674_200" x1="27.0353" y1="38.6727" x2="28.1599" y2="27.6021" gradientUnits="userSpaceOnUse">
<stop stop-color="#8D01A2"/>
<stop offset="1" stop-color="#FF33DB"/>
</linearGradient>
</defs>
</svg>
