<svg width="128" height="128" viewBox="0 0 128 128" fill="none" xmlns="http://www.w3.org/2000/svg">
<path fill-rule="evenodd" clip-rule="evenodd" d="M53.2411 10.1872C55.4136 9.46106 58.0644 10.9261 58.2713 13.2183C58.6592 15.2453 57.0945 17.2408 55.0191 17.4996C44.8748 19.3435 35.3899 24.4711 28.4588 31.9477C20.3511 40.4977 15.6442 52.0916 15.7154 63.7611C15.5796 74.2246 19.2132 84.688 25.808 92.9287C30.974 99.4138 37.8856 104.58 45.683 107.674C56.3898 111.986 68.6936 112.34 79.6397 108.658C88.4393 105.754 96.2884 100.254 101.985 93.1055C108.69 84.8207 112.414 74.2877 112.29 63.7232C112.258 53.2156 108.56 42.7269 101.79 34.5367C101.686 34.3986 101.576 34.2603 101.466 34.1208C100.861 33.355 100.228 32.5541 100.2 31.5499C99.6571 27.7673 105.315 25.9803 107.273 29.2071C114.004 37.1826 118.336 47.0651 119.565 57.3327C121.304 70.5494 117.779 84.3281 109.95 95.2336C102.831 105.356 92.0729 112.953 80.0212 116.438C69.6312 119.507 58.3424 119.514 47.9717 116.356C34.1227 112.245 22.058 102.748 15.0365 90.3838C8.85545 79.6805 6.67657 66.8932 8.77786 54.7943C10.6335 43.9014 15.9998 33.6274 23.8812 25.7214C31.7433 17.7775 42.1334 12.2837 53.2411 10.1872ZM70.6012 16.3818C70.3166 14.1465 72.1076 11.7848 74.5127 11.8669C78.8123 11.81 83.1183 11.7785 87.4179 11.81C89.6614 11.6648 91.8662 13.4771 91.9049 15.7125C92.17 17.9037 90.3209 19.9812 88.0968 20.1707C86.5965 20.3268 85.0881 20.2997 83.5797 20.2726C82.0978 20.246 80.616 20.2194 79.1421 20.3665C78.4975 20.6291 78.5015 21.3206 78.5052 21.9632V21.9633C78.5066 22.2167 78.508 22.4624 78.4697 22.6713C78.4557 28.047 78.4651 33.4243 78.4745 38.802C78.4913 48.4085 78.5081 58.0165 78.392 67.6193C77.4739 72.3427 73.5494 76.3588 68.9136 77.8618C61.808 80.2045 53.2347 76.2642 50.6745 69.3496C48.1982 63.6094 50.3511 56.4486 55.4912 52.8176C59.8296 49.7803 65.7326 49.4204 70.6464 51.258C70.6717 43.6593 70.6501 36.0606 70.6285 28.462V28.4601C70.6171 24.434 70.6056 20.4079 70.6012 16.3818ZM45.45 27.6031C29.5513 35.3765 20.0923 53.6386 22.853 70.7578C22.8996 71.0448 22.9438 71.3424 22.9889 71.6466L22.9889 71.6467C23.4063 74.4618 23.9067 77.8366 27.256 78.4806C27.3623 78.4535 27.4699 78.4268 27.5783 78.3999L27.5795 78.3996L27.5807 78.3993C28.7837 78.1004 30.0825 77.7777 30.7345 76.6431C31.7016 75.2935 31.3206 73.7623 30.9496 72.2717C30.8172 71.7395 30.6861 71.2126 30.618 70.7009C28.0383 57.3264 34.6073 42.8658 46.4327 35.6922C46.789 35.4583 47.1784 35.2439 47.5717 35.0274C48.8346 34.3323 50.1377 33.615 50.5124 32.156C51.5146 29.3334 48.2495 26.435 45.45 27.6031ZM61.0447 37.9783C61.3358 37.9618 61.6382 37.9345 61.9466 37.9067C63.5284 37.7643 65.265 37.6079 66.4174 38.818C68.2731 40.8261 67.452 45.3033 64.2063 45.2717C58.4455 45.3538 52.7558 47.8607 49.1675 52.3126C43.4132 58.9809 43.6071 69.6211 49.5555 76.1126C55.0381 82.5979 65.2278 84.5365 72.786 80.4824C79.8657 76.9651 84.1459 68.8382 82.8204 61.1721C82.7596 60.4287 82.531 59.6853 82.3025 58.9424L82.3025 58.9423C81.8749 57.5524 81.448 56.1643 82.1221 54.7816C83.1502 52.4452 86.8031 51.9589 88.4454 53.9418C89.4408 55.3181 89.7978 57.0062 90.1438 58.6426C90.1978 58.8981 90.2516 59.1524 90.3075 59.404C91.9756 67.8909 88.814 77.003 82.4325 82.9325C77.6933 87.258 71.3507 90.0366 64.8205 90.087C57.3528 90.4533 49.8722 87.3591 44.7516 82.08C38.9972 76.3526 36.2688 67.9288 37.5684 60.0038C39.1718 48.6184 49.3227 39.0706 61.0447 37.9783ZM104.073 52.5335C103.323 50.4939 100.549 49.5404 98.6547 50.6833C97.2325 51.5106 96.3917 53.2471 96.8443 54.8321C98.2863 60.4269 98.4217 66.3564 96.9607 71.9639C94.6719 81.2464 88.2258 89.4366 79.6331 93.9958C76.8918 95.1198 76.7043 99.2811 79.3293 100.632C81.5566 101.932 83.7439 100.5 85.6802 99.2313C86.0765 98.9718 86.4622 98.7191 86.8357 98.4982C101.803 88.843 109.264 69.3623 104.073 52.5335Z" fill="url(#paint0_linear_678_126)"/>
<path d="M58.2713 13.2183L57.2753 13.3082L57.2798 13.3576L57.2891 13.4062L58.2713 13.2183ZM53.2411 10.1872L53.4265 11.1699L53.4935 11.1573L53.5581 11.1357L53.2411 10.1872ZM55.0191 17.4996L54.8954 16.5073L54.8677 16.5108L54.8403 16.5157L55.0191 17.4996ZM28.4588 31.9477L29.1845 32.6358L29.1922 32.6275L28.4588 31.9477ZM15.7154 63.7611L16.7153 63.7741L16.7154 63.7646L16.7154 63.755L15.7154 63.7611ZM25.808 92.9287L26.5901 92.3056L26.5887 92.3038L25.808 92.9287ZM45.683 107.674L46.0566 106.746L46.0518 106.744L45.683 107.674ZM79.6397 108.658L79.3263 107.709L79.3209 107.71L79.6397 108.658ZM101.985 93.1055L101.207 92.4764L101.203 92.4823L101.985 93.1055ZM112.29 63.7232L111.29 63.7263L111.29 63.7349L112.29 63.7232ZM101.79 34.5367L100.993 35.1403L101.006 35.1573L101.02 35.1738L101.79 34.5367ZM101.466 34.1208L102.251 33.5006L102.251 33.5006L101.466 34.1208ZM100.2 31.5499L101.199 31.5219L101.198 31.4646L101.189 31.4079L100.2 31.5499ZM107.273 29.2071L106.418 29.726L106.459 29.7926L106.509 29.8521L107.273 29.2071ZM119.565 57.3327L118.572 57.4516L118.573 57.4632L119.565 57.3327ZM109.95 95.2336L109.137 94.6504L109.132 94.6584L109.95 95.2336ZM80.0212 116.438L79.7433 115.478L79.7379 115.479L80.0212 116.438ZM47.9717 116.356L48.263 115.4L48.2563 115.398L47.9717 116.356ZM15.0365 90.3838L15.9061 89.89L15.9025 89.8837L15.0365 90.3838ZM8.77786 54.7943L9.76312 54.9654L9.76366 54.9622L8.77786 54.7943ZM23.8812 25.7214L24.5894 26.4274L24.592 26.4248L23.8812 25.7214ZM74.5127 11.8669L74.4786 12.8663L74.5023 12.8671L74.526 12.8668L74.5127 11.8669ZM70.6012 16.3818L71.6011 16.3807L71.6011 16.3179L71.5931 16.2556L70.6012 16.3818ZM87.4179 11.81L87.4106 12.81L87.4466 12.8103L87.4825 12.8079L87.4179 11.81ZM91.9049 15.7125L90.9051 15.7299L90.906 15.7814L90.9122 15.8326L91.9049 15.7125ZM88.0968 20.1707L88.0119 19.1743L88.0026 19.1751L87.9933 19.1761L88.0968 20.1707ZM83.5797 20.2726L83.5617 21.2724L83.5617 21.2724L83.5797 20.2726ZM79.1421 20.3665L79.0428 19.3714L78.8988 19.3858L78.7647 19.4404L79.1421 20.3665ZM78.5052 21.9632L79.5052 21.9632L79.5052 21.9575L78.5052 21.9632ZM78.5052 21.9633L77.5052 21.9633L77.5052 21.9691L78.5052 21.9633ZM78.4697 22.6713L77.4861 22.4906L77.4699 22.5789L77.4697 22.6687L78.4697 22.6713ZM78.4745 38.802L79.4745 38.8003L79.4745 38.8003L78.4745 38.802ZM78.392 67.6193L79.3736 67.8101L79.3908 67.7216L79.3919 67.6314L78.392 67.6193ZM68.9136 77.8618L68.6052 76.9105L68.6005 76.912L68.9136 77.8618ZM50.6745 69.3496L51.6122 69.0023L51.6031 68.9776L51.5927 68.9535L50.6745 69.3496ZM55.4912 52.8176L54.9177 51.9984L54.9143 52.0009L55.4912 52.8176ZM70.6464 51.258L70.2961 52.1946L71.6416 52.6978L71.6464 51.2613L70.6464 51.258ZM70.6285 28.462L69.6285 28.462L69.6285 28.4648L70.6285 28.462ZM70.6285 28.4601L71.6285 28.4601L71.6285 28.4573L70.6285 28.4601ZM22.853 70.7578L21.8657 70.917L21.8659 70.9183L22.853 70.7578ZM45.45 27.6031L45.0649 26.6803L45.0374 26.6917L45.0107 26.7048L45.45 27.6031ZM22.9889 71.6466L21.9997 71.7933L22.0009 71.801L22.9889 71.6466ZM22.9889 71.6467L23.9781 71.5L23.9769 71.4923L22.9889 71.6467ZM27.256 78.4806L27.0672 79.4627L27.2867 79.5049L27.5033 79.4496L27.256 78.4806ZM27.5783 78.3999L27.8194 79.3703L27.8208 79.37L27.5783 78.3999ZM27.5807 78.3993L27.3396 77.4288L27.3381 77.4291L27.5807 78.3993ZM30.7345 76.6431L29.9217 76.0606L29.8924 76.1013L29.8674 76.1448L30.7345 76.6431ZM30.9496 72.2717L31.9201 72.0302L31.9201 72.0302L30.9496 72.2717ZM30.618 70.7009L31.6093 70.5691L31.6055 70.5402L31.6 70.5115L30.618 70.7009ZM46.4327 35.6922L46.9514 36.5472L46.9667 36.5379L46.9816 36.5281L46.4327 35.6922ZM47.5717 35.0274L47.0895 34.1514L47.0895 34.1514L47.5717 35.0274ZM50.5124 32.156L49.5701 31.8214L49.555 31.8638L49.5438 31.9073L50.5124 32.156ZM61.9466 37.9067L61.8569 36.9108L61.8569 36.9108L61.9466 37.9067ZM61.0447 37.9783L60.9881 36.9799L60.97 36.9809L60.9519 36.9826L61.0447 37.9783ZM66.4174 38.818L67.1519 38.1394L67.1468 38.1339L67.1416 38.1284L66.4174 38.818ZM64.2063 45.2717L64.216 44.2717L64.204 44.2716L64.192 44.2718L64.2063 45.2717ZM49.1675 52.3126L49.9246 52.9659L49.9355 52.9532L49.946 52.9401L49.1675 52.3126ZM49.5555 76.1126L50.3191 75.467L50.3062 75.4517L50.2927 75.437L49.5555 76.1126ZM72.786 80.4824L72.341 79.5868L72.3271 79.5938L72.3133 79.6011L72.786 80.4824ZM82.8204 61.1721L81.8238 61.2536L81.8274 61.2983L81.8351 61.3425L82.8204 61.1721ZM82.3025 58.9424L83.2583 58.6484L83.2549 58.6373L83.2512 58.6262L82.3025 58.9424ZM82.3025 58.9423L81.3467 59.2363L81.3501 59.2475L81.3538 59.2586L82.3025 58.9423ZM82.1221 54.7816L83.021 55.2198L83.0296 55.2022L83.0374 55.1843L82.1221 54.7816ZM88.4454 53.9418L89.2557 53.3557L89.2365 53.3292L89.2156 53.3039L88.4454 53.9418ZM90.1438 58.6426L91.1222 58.4357L91.1222 58.4357L90.1438 58.6426ZM90.3075 59.404L91.2887 59.2111L91.2864 59.1991L91.2837 59.1872L90.3075 59.404ZM82.4325 82.9325L83.1067 83.6711L83.1132 83.6651L82.4325 82.9325ZM64.8205 90.087L64.8127 89.0871L64.7921 89.0872L64.7715 89.0882L64.8205 90.087ZM44.7516 82.08L45.4694 81.3837L45.4632 81.3774L45.457 81.3712L44.7516 82.08ZM37.5684 60.0038L38.5552 60.1657L38.557 60.1545L38.5586 60.1433L37.5684 60.0038ZM98.6547 50.6833L99.1575 51.5477L99.1645 51.5437L99.1714 51.5395L98.6547 50.6833ZM104.073 52.5335L105.028 52.2387L105.021 52.2134L105.011 52.1885L104.073 52.5335ZM96.8443 54.8321L97.8127 54.5825L97.8095 54.57L97.8059 54.5575L96.8443 54.8321ZM96.9607 71.9639L95.9929 71.7118L95.9898 71.7245L96.9607 71.9639ZM79.6331 93.9958L80.0125 94.9211L80.0582 94.9024L80.1019 94.8792L79.6331 93.9958ZM79.3293 100.632L79.8333 99.7688L79.8105 99.7554L79.787 99.7433L79.3293 100.632ZM85.6802 99.2313L85.1323 98.3948L85.1323 98.3948L85.6802 99.2313ZM86.8357 98.4982L87.3449 99.3588L87.3615 99.349L87.3777 99.3385L86.8357 98.4982ZM59.2672 13.1284C59.1294 11.6007 58.1814 10.4003 56.9984 9.70784C55.8196 9.01781 54.3154 8.77375 52.924 9.23882L53.5581 11.1357C54.3393 10.8745 55.2467 10.9999 55.9881 11.4339C56.7254 11.8655 57.2063 12.5437 57.2753 13.3082L59.2672 13.1284ZM55.1429 18.4919C57.7413 18.1679 59.7593 15.6736 59.2535 13.0303L57.2891 13.4062C57.5591 14.8171 56.4477 16.3137 54.8954 16.5073L55.1429 18.4919ZM29.1922 32.6275C35.9723 25.3137 45.2609 20.2897 55.198 18.4835L54.8403 16.5157C44.4887 18.3973 34.8074 23.6285 27.7255 31.2678L29.1922 32.6275ZM16.7154 63.755C16.6458 52.352 21.2485 41.0047 29.1844 32.6358L27.7332 31.2596C19.4537 39.9908 14.6426 51.8312 14.7154 63.7672L16.7154 63.755ZM26.5887 92.3038C20.1365 84.2413 16.5826 74.0025 16.7153 63.7741L14.7155 63.7482C14.5766 74.4466 18.2899 85.1347 25.0272 93.5535L26.5887 92.3038ZM46.0518 106.744C38.4182 103.715 31.6485 98.6556 26.5901 92.3056L25.0258 93.5517C30.2994 100.172 37.353 105.444 45.3142 108.603L46.0518 106.744ZM79.3209 107.71C68.6003 111.316 56.542 110.97 46.0566 106.746L45.3094 108.601C56.2376 113.003 68.787 113.364 79.9585 109.606L79.3209 107.71ZM101.203 92.4823C95.6271 99.4792 87.9406 104.866 79.3263 107.709L79.9532 109.608C88.938 106.642 96.9497 101.029 102.767 93.7287L101.203 92.4823ZM111.29 63.7349C111.411 74.0612 107.769 84.3687 101.207 92.4764L102.762 93.7346C109.61 85.2727 113.417 74.5141 113.29 63.7115L111.29 63.7349ZM101.02 35.1738C107.639 43.182 111.259 53.4455 111.29 63.7263L113.29 63.7201C113.257 52.9856 109.481 42.2717 102.561 33.8996L101.02 35.1738ZM100.682 34.7409C100.793 34.8819 100.896 35.0119 100.993 35.1403L102.588 33.9331C102.476 33.7852 102.36 33.6386 102.251 33.5006L100.682 34.7409ZM99.2 31.5778C99.2389 32.9704 100.121 34.0316 100.682 34.741L102.251 33.5006C101.601 32.6784 101.216 32.1378 101.199 31.5219L99.2 31.5778ZM108.128 28.6883C106.843 26.5703 104.39 26.1825 102.49 26.7988C100.582 27.4177 98.8496 29.1812 99.2098 31.6918L101.189 31.4079C101.007 30.1359 101.832 29.1147 103.107 28.7012C104.39 28.285 105.745 28.6171 106.418 29.726L108.128 28.6883ZM120.558 57.2139C119.305 46.7492 114.892 36.6845 108.037 28.5622L106.509 29.8521C113.116 37.6807 117.366 47.3809 118.572 57.4516L120.558 57.2139ZM110.762 95.8168C118.737 84.7084 122.329 70.6753 120.556 57.2023L118.573 57.4632C120.279 70.4236 116.821 83.9478 109.137 94.6504L110.762 95.8168ZM80.299 117.399C92.5643 113.851 103.515 106.122 110.768 95.8088L109.132 94.6584C102.147 104.59 91.5815 112.054 79.7433 115.478L80.299 117.399ZM47.6805 117.313C58.2415 120.528 69.7301 120.521 80.3045 117.397L79.7379 115.479C69.5323 118.494 58.4433 118.499 48.263 115.4L47.6805 117.313ZM14.1669 90.8776C21.3189 103.472 33.5958 113.132 47.6872 117.315L48.2563 115.398C34.6495 111.358 22.7972 102.025 15.9061 89.89L14.1669 90.8776ZM7.79261 54.6232C5.65202 66.9484 7.87007 79.9738 14.1705 90.8839L15.9025 89.8837C9.84083 79.3871 7.70113 66.838 9.76311 54.9654L7.79261 54.6232ZM23.173 25.0154C15.1491 33.0643 9.68316 43.5251 7.79206 54.6264L9.76366 54.9622C11.5838 44.2778 16.8506 34.1904 24.5894 26.4274L23.173 25.0154ZM53.0556 9.20459C41.7513 11.3382 31.1772 16.9279 23.1705 25.0179L24.592 26.4248C32.3094 18.6271 42.5155 13.2293 53.4265 11.1699L53.0556 9.20459ZM74.5469 10.8674C71.4316 10.7611 69.2592 13.7589 69.6092 16.5081L71.5931 16.2556C71.374 14.534 72.7836 12.8084 74.4786 12.8663L74.5469 10.8674ZM87.4253 10.8101C83.1162 10.7784 78.8027 10.8101 74.4995 10.8669L74.526 12.8668C78.8219 12.81 83.1205 12.7785 87.4106 12.81L87.4253 10.8101ZM92.9048 15.6952C92.8549 12.8177 90.0927 10.6348 87.3533 10.8121L87.4825 12.8079C89.2301 12.6948 90.8774 14.1365 90.9051 15.7299L92.9048 15.6952ZM88.1817 21.1671C90.9101 20.9347 93.2378 18.4035 92.8977 15.5924L90.9122 15.8326C91.1023 17.404 89.7316 19.0278 88.0119 19.1743L88.1817 21.1671ZM83.5617 21.2724C85.0599 21.2994 86.6294 21.3288 88.2003 21.1654L87.9933 19.1761C86.5637 19.3248 85.1163 19.3 83.5977 19.2728L83.5617 21.2724ZM79.2414 21.3615C80.647 21.2212 82.0699 21.2457 83.5617 21.2724L83.5977 19.2728C82.1257 19.2463 80.5849 19.2175 79.0428 19.3714L79.2414 21.3615ZM79.5052 21.9575C79.5042 21.791 79.5038 21.6593 79.5108 21.5371C79.5178 21.416 79.5307 21.3382 79.5443 21.2889C79.557 21.243 79.5641 21.2448 79.5483 21.2644C79.5279 21.2897 79.5084 21.297 79.5195 21.2925L78.7647 19.4404C78.0926 19.7143 77.7586 20.2428 77.6167 20.7558C77.4935 21.2011 77.5035 21.6828 77.5052 21.969L79.5052 21.9575ZM79.5052 21.9633V21.9632H77.5052V21.9633H79.5052ZM79.4532 22.8521C79.512 22.532 79.5065 22.1841 79.5052 21.9576L77.5052 21.9691C77.5068 22.2493 77.5041 22.3929 77.4861 22.4906L79.4532 22.8521ZM79.4745 38.8003C79.4651 33.4222 79.4557 28.047 79.4697 22.6739L77.4697 22.6687C77.4557 28.0469 77.4651 33.4264 77.4745 38.8038L79.4745 38.8003ZM79.3919 67.6314C79.5081 58.0205 79.4913 48.4056 79.4745 38.8003L77.4745 38.8038C77.4913 48.4114 77.5081 58.0125 77.3921 67.6072L79.3919 67.6314ZM69.222 78.813C74.1588 77.2125 78.3775 72.9347 79.3736 67.8101L77.4104 67.4285C76.5703 71.7507 72.94 75.5052 68.6052 76.9105L69.222 78.813ZM49.7367 69.6968C52.4928 77.1404 61.6349 81.3145 69.2268 78.8115L68.6005 76.912C61.9811 79.0945 53.9767 75.3879 51.6122 69.0023L49.7367 69.6968ZM54.9143 52.0009C49.4047 55.8928 47.0847 63.5529 49.7563 69.7457L51.5927 68.9535C49.3117 63.666 51.2975 57.0044 56.0682 53.6344L54.9143 52.0009ZM70.9967 50.3213C65.8263 48.3878 59.5683 48.7425 54.9177 51.9984L56.0648 53.6368C60.0909 50.818 65.6389 50.453 70.2961 52.1946L70.9967 50.3213ZM69.6285 28.4648C69.6501 36.064 69.6717 43.6596 69.6464 51.2546L71.6464 51.2613C71.6717 43.659 71.6501 36.0573 71.6285 28.4591L69.6285 28.4648ZM69.6285 28.4601V28.462H71.6285V28.4601H69.6285ZM69.6012 16.3829C69.6056 20.41 69.6171 24.437 69.6285 28.463L71.6285 28.4573C71.6171 24.431 71.6056 20.4058 71.6011 16.3807L69.6012 16.3829ZM23.8402 70.5986C21.1504 53.919 30.3817 36.0836 45.8892 28.5015L45.0107 26.7048C28.7209 34.6694 19.0341 53.3582 21.8657 70.917L23.8402 70.5986ZM23.9781 71.4999C23.9332 71.1971 23.888 70.8924 23.84 70.5973L21.8659 70.9183C21.9113 71.1971 21.9544 71.4877 21.9997 71.7933L23.9781 71.4999ZM23.9769 71.4923L23.9769 71.4922L22.0009 71.801L22.0009 71.8011L23.9769 71.4923ZM27.4448 77.4986C26.1526 77.2502 25.4214 76.5088 24.9291 75.4547C24.4063 74.3352 24.1918 72.941 23.9781 71.5L21.9997 71.7934C22.2035 73.1674 22.4478 74.8682 23.1169 76.301C23.8165 77.799 25.0101 79.0671 27.0672 79.4627L27.4448 77.4986ZM27.3371 77.4294C27.2293 77.4562 27.1186 77.4837 27.0087 77.5117L27.5033 79.4496C27.606 79.4234 27.7105 79.3974 27.8194 79.3703L27.3371 77.4294ZM27.3369 77.4294L27.3357 77.4297L27.8208 79.37L27.822 79.3697L27.3369 77.4294ZM27.3381 77.4291L27.3369 77.4294L27.822 79.3697L27.8232 79.3694L27.3381 77.4291ZM29.8674 76.1448C29.4642 76.8465 28.6432 77.1049 27.3396 77.4288L27.8218 79.3698C28.9242 79.0959 30.7007 78.709 31.6015 77.1413L29.8674 76.1448ZM29.9792 72.5131C30.3738 74.0986 30.5772 75.1458 29.9217 76.0606L31.5473 77.2256C32.8261 75.4413 32.2674 73.4259 31.9201 72.0302L29.9792 72.5131ZM29.6268 70.8328C29.7035 71.4098 29.8496 71.9923 29.9792 72.5131L31.9201 72.0302C31.7848 71.4867 31.6687 71.0154 31.6093 70.5691L29.6268 70.8328ZM45.9141 34.8373C33.7413 42.2215 26.9749 57.0933 29.6361 70.8903L31.6 70.5115C29.1017 57.5596 35.4732 43.5101 46.9514 36.5472L45.9141 34.8373ZM47.0895 34.1514C46.703 34.3641 46.2784 34.5972 45.8838 34.8564L46.9816 36.5281C47.2995 36.3194 47.6537 36.1238 48.054 35.9035L47.0895 34.1514ZM49.5438 31.9073C49.2946 32.8776 48.4393 33.4083 47.0895 34.1514L48.054 35.9035C49.2298 35.2562 50.9808 34.3523 51.481 32.4048L49.5438 31.9073ZM45.8351 28.526C46.8085 28.1198 47.9243 28.3983 48.74 29.1282C49.5547 29.8572 49.9041 30.8806 49.5701 31.8214L51.4548 32.4906C52.1229 30.6088 51.3409 28.7717 50.0736 27.6378C48.8075 26.5049 46.891 25.9183 45.0649 26.6803L45.8351 28.526ZM61.8569 36.9108C61.5452 36.9389 61.2597 36.9645 60.9881 36.9799L61.1012 38.9767C61.4119 38.9591 61.7313 38.9302 62.0363 38.9027L61.8569 36.9108ZM67.1416 38.1284C66.3582 37.3058 65.3912 36.9753 64.4637 36.8625C63.564 36.7531 62.6259 36.8415 61.8569 36.9108L62.0363 38.9027C62.8491 38.8295 63.5702 38.7685 64.2223 38.8478C64.8467 38.9238 65.3242 39.1201 65.6933 39.5077L67.1416 38.1284ZM64.1965 46.2716C66.399 46.2931 67.7259 44.7445 68.1885 43.0771C68.6388 41.4538 68.3642 39.4513 67.1519 38.1394L65.683 39.4967C66.3263 40.1929 66.569 41.433 66.2612 42.5424C65.9657 43.6077 65.2593 44.2819 64.216 44.2717L64.1965 46.2716ZM49.946 52.9401C53.3281 48.7442 58.7246 46.3499 64.2205 46.2716L64.192 44.2718C58.1664 44.3576 52.1835 46.9773 48.3889 51.685L49.946 52.9401ZM50.2927 75.437C44.6846 69.3168 44.5039 59.2476 49.9246 52.9659L48.4104 51.6593C42.3226 58.7142 42.5297 69.9254 48.8182 76.7882L50.2927 75.437ZM72.3133 79.6011C65.1685 83.4335 55.495 81.5894 50.3191 75.467L48.7918 76.7582C54.5812 83.6063 65.2871 85.6395 73.2587 81.3636L72.3133 79.6011ZM81.8351 61.3425C83.0819 68.5539 79.0422 76.2576 72.341 79.5868L73.2309 81.378C80.6892 77.6726 85.2098 69.1224 83.8058 61.0017L81.8351 61.3425ZM81.3467 59.2364C81.5817 60.0004 81.7734 60.6379 81.8238 61.2536L83.8171 61.0906C83.7459 60.2195 83.4803 59.3702 83.2583 58.6484L81.3467 59.2364ZM81.3538 59.2586L81.3538 59.2586L83.2512 58.6262L83.2512 58.6261L81.3538 59.2586ZM81.2233 54.3433C80.349 56.1365 80.9413 57.9184 81.3467 59.2363L83.2583 58.6484C82.8086 57.1864 82.547 56.1921 83.021 55.2198L81.2233 54.3433ZM89.2156 53.3039C88.1272 51.9898 86.4291 51.5503 84.9217 51.7507C83.415 51.9509 81.8933 52.8187 81.2068 54.3788L83.0374 55.1843C83.379 54.408 84.1978 53.8645 85.1852 53.7332C86.1719 53.6021 87.1214 53.9109 87.6753 54.5796L89.2156 53.3039ZM91.1222 58.4357C90.7846 56.8391 90.3964 54.9329 89.2557 53.3557L87.6351 54.5278C88.4853 55.7033 88.811 57.1734 89.1654 58.8494L91.1222 58.4357ZM91.2837 59.1872C91.2291 58.9414 91.1764 58.6921 91.1222 58.4357L89.1654 58.8494C89.2193 59.1041 89.2741 59.3634 89.3313 59.6208L91.2837 59.1872ZM83.1132 83.6651C89.7347 77.5125 93.0271 68.0556 91.2887 59.2111L89.3263 59.5968C90.9241 67.7263 87.8933 76.4934 81.7518 82.1999L83.1132 83.6651ZM64.8282 91.087C71.6321 91.0344 78.2061 88.144 83.1067 83.6711L81.7584 82.1939C77.1806 86.3721 71.0693 89.0387 64.8127 89.0871L64.8282 91.087ZM44.0338 82.7762C49.3472 88.2541 57.1041 91.4667 64.8695 91.0858L64.7715 89.0882C57.6016 89.4399 50.3972 86.4641 45.4694 81.3837L44.0338 82.7762ZM36.5816 59.842C35.2294 68.088 38.0647 76.8353 44.0461 82.7888L45.457 81.3712C39.9298 75.8699 37.3083 67.7697 38.5552 60.1657L36.5816 59.842ZM60.9519 36.9826C48.7821 38.1167 38.2481 48.0067 36.5781 59.8644L38.5586 60.1433C40.0955 49.2302 49.8633 40.0246 61.1374 38.9739L60.9519 36.9826ZM99.1714 51.5395C99.8247 51.1453 100.676 51.0899 101.469 51.3611C102.263 51.6327 102.882 52.1914 103.134 52.8786L105.011 52.1885C104.514 50.836 103.371 49.8982 102.117 49.4689C100.861 49.0392 99.3787 49.0785 98.138 49.8272L99.1714 51.5395ZM97.8059 54.5575C97.4971 53.4763 98.0703 52.1801 99.1575 51.5477L98.1519 49.8189C96.3947 50.8411 95.2863 53.018 95.8828 55.1067L97.8059 54.5575ZM97.9284 72.216C99.4364 66.4282 99.2928 60.3252 97.8127 54.5825L95.876 55.0817C97.2798 60.5286 97.407 66.2847 95.993 71.7118L97.9284 72.216ZM80.1019 94.8792C88.9405 90.1894 95.5733 81.7681 97.9316 72.2033L95.9898 71.7245C93.7706 80.7248 87.5111 88.6838 79.1644 93.1125L80.1019 94.8792ZM79.787 99.7433C78.8874 99.2802 78.4205 98.3126 78.4678 97.2743C78.515 96.2363 79.0684 95.3082 80.0125 94.9211L79.2538 93.0706C77.4565 93.8075 76.5455 95.522 76.4699 97.1834C76.3943 98.8446 77.1462 100.633 78.8716 101.522L79.787 99.7433ZM85.1323 98.3948C84.1393 99.0452 83.2196 99.6403 82.2989 99.9459C81.4284 100.235 80.6373 100.238 79.8333 99.7688L78.8252 101.496C80.2485 102.327 81.6649 102.264 82.9289 101.844C84.1428 101.441 85.2848 100.686 86.2282 100.068L85.1323 98.3948ZM86.3264 97.6375C85.9298 97.8722 85.5244 98.138 85.1323 98.3948L86.2282 100.068C86.6286 99.8056 86.9947 99.566 87.3449 99.3588L86.3264 97.6375ZM103.117 52.8283C108.171 69.2105 100.901 88.2351 86.2936 97.6578L87.3777 99.3385C102.706 89.4509 110.358 69.514 105.028 52.2387L103.117 52.8283Z" fill="url(#paint1_linear_678_126)"/>
<defs>
<linearGradient id="paint0_linear_678_126" x1="91.5913" y1="101.145" x2="91.5913" y2="50.1932" gradientUnits="userSpaceOnUse">
<stop stop-color="#5558FF"/>
<stop offset="1" stop-color="#00C0FF"/>
</linearGradient>
<linearGradient id="paint1_linear_678_126" x1="91.5913" y1="101.145" x2="91.5913" y2="50.1932" gradientUnits="userSpaceOnUse">
<stop stop-color="#5558FF"/>
<stop offset="1" stop-color="#00C0FF"/>
</linearGradient>
</defs>
</svg>
