<svg width="64" height="64" viewBox="0 0 64 64" fill="none" xmlns="http://www.w3.org/2000/svg">
<path d="M40.9062 2C29.2745 2 19.8125 11.462 19.8125 23.0938C19.8125 28.2784 21.7007 33.0246 24.8148 36.7013L20.8682 40.6479L19.6255 39.4051C18.9389 38.7185 17.8264 38.7185 17.1398 39.4051L2.51504 54.0281C2.18539 54.3576 2 54.804 2 55.2709C2 55.7377 2.18539 56.1841 2.51504 56.5136L7.48637 61.485C7.82973 61.8283 8.27949 62 8.72914 62C9.17879 62 9.62867 61.8283 9.97191 61.485L24.5967 46.862C25.2834 46.1752 25.2829 45.0625 24.5967 44.3763L23.3539 43.1335L27.3004 39.187C30.977 42.3001 35.7225 44.1875 40.9062 44.1875C52.538 44.1875 62 34.7255 62 23.0938C62 11.462 52.538 2 40.9062 2ZM8.72914 57.7565L6.24348 55.2709L18.3826 43.1335L20.8682 45.6192L8.72914 57.7565ZM40.9062 40.6719C31.2143 40.6719 23.3281 32.7857 23.3281 23.0938C23.3281 13.4018 31.2143 5.51562 40.9062 5.51562C50.5982 5.51562 58.4844 13.4018 58.4844 23.0938C58.4844 32.7857 50.5982 40.6719 40.9062 40.6719Z" fill="url(#paint0_linear_501:85)" stroke="url(#paint1_linear_501:85)"/>
<path d="M33.4523 34H47.3723C48.7928 34 49.9448 32.848 49.9448 31.426V20.011C52.3598 19.915 53.8043 17.236 52.5143 15.154L51.7613 13.939C51.4763 13.4786 51.0784 13.0986 50.6053 12.8351C50.1323 12.5715 49.5998 12.4331 49.0583 12.433H46.9058V11.479C46.9058 11.2848 46.8676 11.0925 46.7932 10.913C46.7189 10.7336 46.61 10.5705 46.4726 10.4332C46.3353 10.2959 46.1723 10.1869 45.9928 10.1126C45.8134 10.0383 45.6211 10 45.4268 10C44.9452 10.0002 44.4683 10.0953 44.0234 10.2797C43.5786 10.4642 43.1744 10.7345 42.834 11.0752C42.4935 11.4159 42.2236 11.8204 42.0394 12.2654C41.8553 12.7104 41.7606 13.1874 41.7608 13.669V18.853C39.8438 19.042 38.3963 19.948 37.3328 21.226C36.1598 22.636 35.4683 24.4735 35.0573 26.239C34.6433 28.012 34.4978 29.776 34.4528 31.087C34.4348 31.648 34.4348 32.131 34.4408 32.5H33.4523C32.876 32.5 32.3123 32.3317 31.8304 32.0156C31.3486 31.6995 30.9696 31.2495 30.7401 30.7208C30.5106 30.1922 30.4406 29.6081 30.5387 29.0402C30.6368 28.4723 30.8988 27.9455 31.2923 27.5245L32.6723 26.044C33.6234 25.0239 34.1415 23.6745 34.1174 22.28C34.0934 20.8854 33.5291 19.5547 32.5433 18.568L31.1888 17.2135C31.1196 17.1419 31.0369 17.0847 30.9454 17.0454C30.8539 17.0061 30.7555 16.9854 30.6559 16.9846C30.5563 16.9837 30.4575 17.0027 30.3654 17.0404C30.2732 17.0781 30.1894 17.1338 30.119 17.2042C30.0486 17.2746 29.9929 17.3584 29.9552 17.4505C29.9175 17.5427 29.8985 17.6415 29.8994 17.7411C29.9003 17.8406 29.9209 17.9391 29.9603 18.0306C29.9996 18.1221 30.0567 18.2048 30.1283 18.274L31.4828 19.6285C32.1944 20.3399 32.6019 21.2999 32.6193 22.306C32.6366 23.312 32.2625 24.2855 31.5758 25.021L30.1958 26.5015C29.6044 27.1366 29.2112 27.9306 29.0643 28.7859C28.9175 29.6413 29.0234 30.5209 29.3691 31.3169C29.7148 32.113 30.2853 32.7908 31.0106 33.2674C31.7359 33.744 32.5845 33.9986 33.4523 34V34ZM45.4073 11.5V13.183C45.4073 13.3819 45.4863 13.5727 45.627 13.7133C45.7676 13.854 45.9584 13.933 46.1573 13.933H49.0583C49.6403 13.933 50.1803 14.233 50.4863 14.728L51.2408 15.9445C51.3987 16.1993 51.4857 16.4917 51.4928 16.7914C51.4998 17.0911 51.4267 17.3872 51.281 17.6492C51.1352 17.9112 50.9221 18.1295 50.6638 18.2815C50.4054 18.4335 50.1111 18.5138 49.8113 18.514H49.1963C48.9974 18.514 48.8066 18.593 48.666 18.7337C48.5253 18.8743 48.4463 19.0651 48.4463 19.264V31.426C48.4463 32.0185 47.9663 32.5 47.3723 32.5H46.2983V31.426C46.2987 30.2598 45.836 29.1413 45.0118 28.3162C44.1876 27.4912 43.0695 27.0273 41.9033 27.0265H40.3823C40.1834 27.0265 39.9926 27.1055 39.852 27.2462C39.7113 27.3868 39.6323 27.5776 39.6323 27.7765C39.6323 27.9754 39.7113 28.1662 39.852 28.3068C39.9926 28.4475 40.1834 28.5265 40.3823 28.5265H41.9018C43.5023 28.5265 44.7998 29.824 44.7998 31.426V32.5H35.9408C35.9333 32.149 35.9333 31.684 35.9513 31.1365C35.9933 29.8825 36.1313 28.2265 36.5168 26.5795C36.9023 24.9235 37.5218 23.341 38.4848 22.1845C39.4253 21.058 40.7018 20.317 42.5108 20.317C42.7097 20.317 42.9005 20.238 43.0412 20.0973C43.1818 19.9567 43.2608 19.7659 43.2608 19.567V13.669C43.2608 12.478 44.2193 11.5105 45.4058 11.5H45.4073Z" fill="url(#paint2_linear_501:85)" stroke="url(#paint3_linear_501:85)" stroke-width="2"/>
<defs>
<linearGradient id="paint0_linear_501:85" x1="32" y1="62" x2="32" y2="2" gradientUnits="userSpaceOnUse">
<stop stop-color="#FD5900"/>
<stop offset="1" stop-color="#FFDE00"/>
</linearGradient>
<linearGradient id="paint1_linear_501:85" x1="32" y1="62" x2="32" y2="2" gradientUnits="userSpaceOnUse">
<stop stop-color="#FD5900"/>
<stop offset="1" stop-color="#FFDE00"/>
</linearGradient>
<linearGradient id="paint2_linear_501:85" x1="40.9985" y1="34" x2="40.9985" y2="10" gradientUnits="userSpaceOnUse">
<stop stop-color="#FD2E00"/>
<stop offset="1" stop-color="#FF9900"/>
</linearGradient>
<linearGradient id="paint3_linear_501:85" x1="40.9985" y1="34" x2="40.9985" y2="10" gradientUnits="userSpaceOnUse">
<stop stop-color="#FD2E00"/>
<stop offset="1" stop-color="#FF9900"/>
</linearGradient>
</defs>
</svg>
