<svg width="62" height="62" viewBox="0 0 62 62" fill="none" xmlns="http://www.w3.org/2000/svg">
<path d="M5.8 37C5.05739 37 4.3452 37.295 3.8201 37.8201C3.295 38.3452 3 39.0574 3 39.8C3 40.5426 3.295 41.2548 3.8201 41.7799C4.3452 42.305 5.05739 42.6 5.8 42.6C8.02782 42.6 10.1644 43.485 11.7397 45.0603C13.315 46.6356 14.2 48.7722 14.2 51C14.2 51.7426 14.495 52.4548 15.0201 52.9799C15.5452 53.505 16.2574 53.8 17 53.8C17.7426 53.8 18.4548 53.505 18.9799 52.9799C19.505 52.4548 19.8 51.7426 19.8 51C19.8 47.287 18.325 43.726 15.6995 41.1005C13.074 38.475 9.51303 37 5.8 37V37ZM3.812 49.012C3.42271 49.4045 3.15832 49.9034 3.05214 50.446C2.94596 50.9885 3.00274 51.5503 3.21534 52.0606C3.42794 52.5709 3.78683 53.0068 4.24679 53.3135C4.70675 53.6201 5.24719 53.7838 5.8 53.7838C6.35281 53.7838 6.89325 53.6201 7.35321 53.3135C7.81317 53.0068 8.17206 52.5709 8.38466 52.0606C8.59726 51.5503 8.65405 50.9885 8.54787 50.446C8.44169 49.9034 8.17729 49.4045 7.788 49.012C7.5277 48.7496 7.21802 48.5412 6.87682 48.3991C6.53561 48.2569 6.16963 48.1838 5.8 48.1838C5.43037 48.1838 5.06439 48.2569 4.72319 48.3991C4.38198 48.5412 4.0723 48.7496 3.812 49.012V49.012ZM50.6 9H11.4C9.17218 9 7.03561 9.885 5.4603 11.4603C3.885 13.0356 3 15.1722 3 17.4C3 18.1426 3.295 18.8548 3.8201 19.3799C4.3452 19.905 5.05739 20.2 5.8 20.2C6.54261 20.2 7.2548 19.905 7.7799 19.3799C8.305 18.8548 8.6 18.1426 8.6 17.4C8.6 16.6574 8.895 15.9452 9.4201 15.4201C9.9452 14.895 10.6574 14.6 11.4 14.6H50.6C51.3426 14.6 52.0548 14.895 52.5799 15.4201C53.105 15.9452 53.4 16.6574 53.4 17.4V45.4C53.4 46.1426 53.105 46.8548 52.5799 47.3799C52.0548 47.905 51.3426 48.2 50.6 48.2H39.4C38.6574 48.2 37.9452 48.495 37.4201 49.0201C36.895 49.5452 36.6 50.2574 36.6 51C36.6 51.7426 36.895 52.4548 37.4201 52.9799C37.9452 53.505 38.6574 53.8 39.4 53.8H50.6C52.8278 53.8 54.9644 52.915 56.5397 51.3397C58.115 49.7644 59 47.6278 59 45.4V17.4C59 15.1722 58.115 13.0356 56.5397 11.4603C54.9644 9.885 52.8278 9 50.6 9V9ZM5.8 25.8C5.05739 25.8 4.3452 26.095 3.8201 26.6201C3.295 27.1452 3 27.8574 3 28.6C3 29.3426 3.295 30.0548 3.8201 30.5799C4.3452 31.105 5.05739 31.4 5.8 31.4C10.9982 31.4 15.9836 33.465 19.6593 37.1407C23.335 40.8164 25.4 45.8017 25.4 51C25.4 51.7426 25.695 52.4548 26.2201 52.9799C26.7452 53.505 27.4574 53.8 28.2 53.8C28.9426 53.8 29.6548 53.505 30.1799 52.9799C30.705 52.4548 31 51.7426 31 51C31 44.3165 28.345 37.9068 23.6191 33.1809C18.8932 28.455 12.4835 25.8 5.8 25.8V25.8Z" fill="url(#paint0_linear)"/>
<defs>
<linearGradient id="paint0_linear" x1="31" y1="53.8" x2="31" y2="9" gradientUnits="userSpaceOnUse">
<stop stop-color="#02AA93"/>
<stop offset="1" stop-color="#67FF80"/>
</linearGradient>
</defs>
</svg>
