<svg width="192" height="192" viewBox="0 0 192 192" fill="none" xmlns="http://www.w3.org/2000/svg">
<path d="M122.902 70.2413C120.776 67.8498 123.024 58.729 126.224 58.7248C141.312 58.7046 156.401 58.7811 171.486 58.7383C173.028 58.7339 174.444 59.6112 175.069 61.0202C183.235 79.4025 184.588 100.677 179.06 119.99C170.85 149.17 146.34 173.08 116.88 180.35C113.97 180.97 111 182.13 107.99 181.48C104.05 180.35 102.15 175.02 104.73 171.74C106.49 169 109.99 169 112.85 168.39C121.23 167.1 129.51 164.32 136.46 159.38C143.27 154.68 148.76 148.38 153.92 141.99C163.09 130.3 169.08 115.94 169.82 101.03C170.237 91.9154 169.18 82.6937 166.482 73.9709C165.988 72.3735 164.5 71.3098 162.828 71.2885C150.214 71.1281 137.598 71.3265 124.975 71.2124C124.18 71.2052 123.431 70.836 122.902 70.2413V70.2413Z" fill="url(#paint0_linear_625_102)" stroke="url(#paint1_linear_625_102)" stroke-width="8"/>
<path d="M33.1258 39.3964C32.5701 37.9784 32.8644 36.3623 33.9246 35.2689C48.1112 20.6384 67.5673 11.1885 87.9097 9.42995C113.96 6.87995 140.96 17.07 158.65 36.39C161.757 39.9069 159.038 46.4417 154.328 46.5085C154.077 46.512 153.824 46.5216 153.573 46.5337C150.928 46.6616 148.998 44.4503 147.25 42.75C139.18 34.74 129.81 27.59 118.85 24.11C108.25 20.74 96.9097 21.02 85.9997 22.38C72.4984 23.8343 59.7189 29.6901 49.1645 38.1468C47.9034 39.1573 47.4317 40.8527 47.9571 42.3808C51.9733 54.0623 57.2439 65.3194 61.4781 76.9439C61.5936 77.2611 61.876 77.4546 62.2047 77.3779V77.3779C62.7783 77.244 63.2848 77.8568 63.0019 78.3735C58.5998 86.4118 57.5198 95.9948 59.5847 104.918C59.588 104.933 59.5896 104.947 59.5895 104.962V104.962C59.5874 105.166 59.3059 105.217 59.2319 105.027C50.6774 83.092 41.7153 61.3161 33.1258 39.3964Z" fill="url(#paint2_linear_625_102)" stroke="url(#paint3_linear_625_102)" stroke-width="8"/>
<path d="M16.9903 60.06C18.7903 55.39 26.1503 55.3499 28.1203 59.8899C30.2103 64.5699 26.1203 68.85 25.2203 73.3C16.2703 99.93 24.5703 130.93 44.7803 150.22C41.3303 152.67 39.5903 156.62 37.3403 160.06C23.4303 147.19 13.7203 129.78 10.5003 111.08C7.5303 93.94 9.69029 75.87 16.9903 60.06Z" fill="url(#paint4_linear_625_102)" stroke="url(#paint5_linear_625_102)" stroke-width="8"/>
<path d="M100.83 132.95C109.77 131.75 117.73 126.94 123.99 120.6C111.21 140.49 97.7498 159.96 84.7998 179.74C84.1098 180.66 83.5098 182.37 81.9898 181.77C65.3698 179.25 49.7398 171.34 37.3398 160.06C39.5898 156.62 41.3298 152.67 44.7798 150.22C54.0398 158.72 65.4098 164.98 77.5898 168.11C85.1998 156.3 93.1098 144.68 100.83 132.95Z" fill="url(#paint6_linear_625_102)" stroke="url(#paint7_linear_625_102)" stroke-width="8"/>
<path d="M82.0999 61.29C88.4799 58.69 95.4899 58.54 102.27 58.87C110.44 60.62 118.38 64.66 123.72 71.2C129.02 77.99 132.93 86.22 132.91 94.98C133.37 104.29 129.61 113.34 123.99 120.6C117.73 126.94 109.77 131.75 100.83 132.95C91.9199 134.12 82.4399 132.18 75.0399 126.97C67.4399 121.78 62.3999 113.57 59.5899 104.94C57.3999 95.5 58.7299 85.32 63.7899 77.01C68.2799 70.22 74.3899 64.22 82.0999 61.29ZM90.6099 71.78C83.4699 73.31 77.0699 78.11 73.8699 84.72C68.9899 93.75 70.7999 105.74 77.9499 113.06C84.1499 119.75 94.2299 122.5 102.94 119.65C114.82 116.27 122.69 103.09 119.99 91.02C117.54 78.03 103.58 68.61 90.6099 71.78Z" fill="url(#paint8_linear_625_102)" stroke="url(#paint9_linear_625_102)" stroke-width="8"/>
<defs>
<linearGradient id="paint0_linear_625_102" x1="114.004" y1="163.666" x2="193.54" y2="111.833" gradientUnits="userSpaceOnUse">
<stop stop-color="#0072FF"/>
<stop offset="1" stop-color="#00E5A1"/>
</linearGradient>
<linearGradient id="paint1_linear_625_102" x1="114.004" y1="163.666" x2="193.54" y2="111.833" gradientUnits="userSpaceOnUse">
<stop stop-color="#0072FF"/>
<stop offset="1" stop-color="#00E5A1"/>
</linearGradient>
<linearGradient id="paint2_linear_625_102" x1="31.2897" y1="156.581" x2="152.381" y2="50.9615" gradientUnits="userSpaceOnUse">
<stop stop-color="#0072FF"/>
<stop offset="1" stop-color="#00E5A1"/>
</linearGradient>
<linearGradient id="paint3_linear_625_102" x1="31.2897" y1="156.581" x2="152.381" y2="50.9615" gradientUnits="userSpaceOnUse">
<stop stop-color="#0072FF"/>
<stop offset="1" stop-color="#00E5A1"/>
</linearGradient>
<linearGradient id="paint4_linear_625_102" x1="31.2903" y1="156.581" x2="152.381" y2="50.9615" gradientUnits="userSpaceOnUse">
<stop stop-color="#0072FF"/>
<stop offset="1" stop-color="#00E5A1"/>
</linearGradient>
<linearGradient id="paint5_linear_625_102" x1="31.2903" y1="156.581" x2="152.381" y2="50.9615" gradientUnits="userSpaceOnUse">
<stop stop-color="#0072FF"/>
<stop offset="1" stop-color="#00E5A1"/>
</linearGradient>
<linearGradient id="paint6_linear_625_102" x1="31.2898" y1="156.581" x2="152.381" y2="50.9615" gradientUnits="userSpaceOnUse">
<stop stop-color="#0072FF"/>
<stop offset="1" stop-color="#00E5A1"/>
</linearGradient>
<linearGradient id="paint7_linear_625_102" x1="31.2898" y1="156.581" x2="152.381" y2="50.9615" gradientUnits="userSpaceOnUse">
<stop stop-color="#0072FF"/>
<stop offset="1" stop-color="#00E5A1"/>
</linearGradient>
<linearGradient id="paint8_linear_625_102" x1="95.7611" y1="133.279" x2="95.7611" y2="58.7424" gradientUnits="userSpaceOnUse">
<stop stop-color="#5570FF"/>
<stop offset="1" stop-color="#4DD3FF"/>
</linearGradient>
<linearGradient id="paint9_linear_625_102" x1="95.7611" y1="133.279" x2="95.7611" y2="58.7424" gradientUnits="userSpaceOnUse">
<stop stop-color="#5570FF"/>
<stop offset="1" stop-color="#4DD3FF"/>
</linearGradient>
</defs>
</svg>
