<svg width="64" height="64" viewBox="0 0 64 64" fill="none" xmlns="http://www.w3.org/2000/svg">
<path d="M24.2071 7C24.0745 7 23.9473 7.05268 23.8536 7.14645L20.1464 10.8536C20.0527 10.9473 20 11.0745 20 11.2071V17H4.5C4.22386 17 4 17.2239 4 17.5V54C4 55.662 5.338 57 7 57H57C58.662 57 60 55.662 60 54V17.5C60 17.2239 59.7761 17 59.5 17H44V11.2071C44 11.0745 43.9473 10.9473 43.8536 10.8536L40.1464 7.14645C40.0527 7.05268 39.9255 7 39.7929 7H24.2071ZM24 11.5C24 11.2239 24.2239 11 24.5 11H39.5C39.7761 11 40 11.2239 40 11.5V17H24V11.5Z" stroke="url(#paint0_linear)" stroke-width="4"/>
<path d="M21.9029 28.001C21.7905 27.7144 21.8497 27.3875 22.0656 27.1682C24.353 24.8437 27.4681 23.3439 30.7236 23.0625C34.9353 22.6502 39.3006 24.2977 42.1607 27.4213C42.6764 28.005 42.1995 29.1028 41.4008 29.0559C40.9416 29.1157 40.6134 28.7374 40.3176 28.4496C39.0128 27.1546 37.4979 25.9986 35.7259 25.4359C34.0121 24.8911 32.1787 24.9363 30.4148 25.1562C28.0882 25.4068 25.8942 26.4658 24.1271 27.9807C24.7997 30.047 25.7439 32.0211 26.4828 34.0679C26.5668 34.0485 26.7382 34.0081 26.8239 33.9887C26.0058 35.3322 25.7908 36.9781 26.1448 38.5043L26.1432 38.6628C24.7554 35.0987 23.2993 31.5614 21.9029 28.001Z" fill="url(#paint1_linear)" stroke="url(#paint2_linear)" stroke-width="2"/>
<path d="M33.0454 31.0553C36.741 31.0105 40.4383 31.044 44.1341 31.0343C44.4456 31.0335 44.7323 31.2106 44.8565 31.4963C46.14 34.4468 46.3452 37.8472 45.4606 40.9371C44.1333 45.6548 40.1705 49.5205 35.4075 50.6959C34.937 50.7962 34.4569 50.9837 33.9702 50.8786C33.3332 50.6959 33.026 49.8342 33.4431 49.3039C33.7277 48.8609 34.2936 48.8609 34.756 48.7623C36.1108 48.5537 37.4495 48.1042 38.5732 47.3055C39.6742 46.5457 40.5618 45.5271 41.3961 44.494C42.8786 42.604 43.8471 40.2823 43.9667 37.8716C44.0411 36.2484 43.8261 34.6041 43.2861 33.0698C41.0291 33.031 38.772 33.073 36.5134 33.0488C35.65 31.9914 34.3663 31.3382 33.0454 31.0553Z" fill="url(#paint3_linear)" stroke="url(#paint4_linear)" stroke-width="2"/>
<path d="M21.0572 31.221C20.7387 30.487 19.5488 30.4935 19.2577 31.2485C18.0775 33.8046 17.7283 36.7261 18.2085 39.4973C18.7291 42.5207 20.299 45.3355 22.5479 47.4163C24.5302 49.2195 27.023 50.4901 29.6763 50.9122C29.7364 50.9218 29.795 50.9439 29.8558 50.9463C30.0381 50.9533 30.1241 50.7274 30.2211 50.5981C32.3148 47.4001 34.491 44.2522 36.5572 41.0365C35.5451 42.0615 34.2582 42.8392 32.8128 43.0332C31.5647 44.9297 30.2858 46.8084 29.0554 48.7178C27.0862 48.2117 25.2479 47.1996 23.7508 45.8254C20.4833 42.7066 19.1413 37.6946 20.5884 33.3891C20.7339 32.6696 21.3951 31.9776 21.0572 31.221Z" fill="url(#paint5_linear)" stroke="url(#paint6_linear)" stroke-width="2"/>
<path d="M29.7845 31.447C30.816 31.0267 31.9494 31.0024 33.0456 31.0558C34.3665 31.3387 35.6502 31.9919 36.5136 33.0493C37.3705 34.1471 38.0026 35.4777 37.9994 36.894C38.0738 38.3992 37.4659 39.8624 36.5572 41.0361C35.5451 42.0612 34.2582 42.8389 32.8128 43.0329C31.3722 43.222 29.8395 42.9084 28.6431 42.066C27.4143 41.2269 26.5995 39.8996 26.1452 38.5043C25.7911 36.978 26.0061 35.3322 26.8242 33.9886C27.5501 32.8908 28.538 31.9208 29.7845 31.447ZM31.1604 33.143C30.006 33.3904 28.9713 34.1665 28.4539 35.2352C27.6649 36.6951 27.9576 38.6336 29.1136 39.8171C30.116 40.8987 31.7457 41.3433 33.1539 40.8826C35.0746 40.3361 36.347 38.2052 35.9105 36.2537C35.5144 34.1535 33.2574 32.6305 31.1604 33.143Z" fill="url(#paint7_linear)" stroke="url(#paint8_linear)" stroke-width="2"/>
<defs>
<linearGradient id="paint0_linear" x1="32" y1="57" x2="32" y2="7" gradientUnits="userSpaceOnUse">
<stop stop-color="#FDA700"/>
<stop offset="1" stop-color="#FFDE00"/>
</linearGradient>
<linearGradient id="paint1_linear" x1="24.9176" y1="34.1487" x2="40.277" y2="27.0349" gradientUnits="userSpaceOnUse">
<stop stop-color="#FD3A84"/>
<stop offset="1" stop-color="#FFA68D"/>
</linearGradient>
<linearGradient id="paint2_linear" x1="24.9176" y1="34.1487" x2="40.277" y2="27.0349" gradientUnits="userSpaceOnUse">
<stop stop-color="#FD3A84"/>
<stop offset="1" stop-color="#FFA68D"/>
</linearGradient>
<linearGradient id="paint3_linear" x1="37.4479" y1="32.2889" x2="33.5676" y2="49.8309" gradientUnits="userSpaceOnUse">
<stop stop-color="#FD5900"/>
<stop offset="1" stop-color="#FFDE00"/>
</linearGradient>
<linearGradient id="paint4_linear" x1="37.4479" y1="32.2889" x2="33.5676" y2="49.8309" gradientUnits="userSpaceOnUse">
<stop stop-color="#FD5900"/>
<stop offset="1" stop-color="#FFDE00"/>
</linearGradient>
<linearGradient id="paint5_linear" x1="34.2953" y1="43.8497" x2="17.9659" y2="36.5742" gradientUnits="userSpaceOnUse">
<stop stop-color="#00B59C"/>
<stop offset="1" stop-color="#9CFFAC"/>
</linearGradient>
<linearGradient id="paint6_linear" x1="34.2953" y1="43.8497" x2="17.9659" y2="36.5742" gradientUnits="userSpaceOnUse">
<stop stop-color="#00B59C"/>
<stop offset="1" stop-color="#9CFFAC"/>
</linearGradient>
<linearGradient id="paint7_linear" x1="31.9932" y1="43.0861" x2="32.0319" y2="32.7744" gradientUnits="userSpaceOnUse">
<stop stop-color="#5570FF"/>
<stop offset="1" stop-color="#4DD3FF"/>
</linearGradient>
<linearGradient id="paint8_linear" x1="31.9932" y1="43.0861" x2="32.0319" y2="32.7744" gradientUnits="userSpaceOnUse">
<stop stop-color="#5570FF"/>
<stop offset="1" stop-color="#4DD3FF"/>
</linearGradient>
</defs>
</svg>
