<svg width="1024" height="1024" viewBox="0 0 1024 1024" fill="none" xmlns="http://www.w3.org/2000/svg">
<path d="M1022 607C1022 651 1006.33 688.5 975 719.5C943.667 750.5 906 766 862 766H799C789.667 766 782 763 776 757C770 751 767 743.333 767 734C767 732 767.167 730.167 767.5 728.5C767.833 726.833 768.333 725.167 769 723.5C769.667 721.833 770.5 720.167 771.5 718.5C772.5 716.833 773.5 715.333 774.5 714C775.5 712.667 776.667 711.333 778 710C779.333 708.667 780.833 707.667 782.5 707L787.5 705L793 703.5L799 703H862C879.333 703 895.333 698.667 910 690C924.667 681.333 936.333 669.667 945 655C953.667 640.333 958 624.333 958 607C958 596.333 956.333 586.167 953 576.5C949.667 566.833 945.167 558.167 939.5 550.5C933.833 542.833 927 536 919 530C911 524 902.167 519.333 892.5 516C882.833 512.667 872.667 511 862 511C848.667 511 835.833 508.333 823.5 503C811.167 497.667 800.667 490.333 792 481C783.333 471.667 776.667 460.667 772 448V447C763.333 424.333 751 403.667 735 385C719 366.333 699.833 351.5 677.5 340.5C655.167 329.5 631.333 323 606 321C600 321 594.833 322.5 590.5 325.5C586.167 328.5 582.667 332.333 580 337C577.333 341.667 576 346.667 576 352V734C576 738.667 575.167 742.833 573.5 746.5C571.833 750.167 569.5 753.5 566.5 756.5C563.5 759.5 560 761.833 556 763.5C552 765.167 548 766 544 766C535.333 766 527.833 762.833 521.5 756.5C515.167 750.167 512 742.667 512 734V352C512 342 513.667 332.167 517 322.5C520.333 312.833 524.833 304.167 530.5 296.5C536.167 288.833 542.833 282 550.5 276C558.167 270 566.833 265.333 576.5 262C586.167 258.667 596.333 257 607 257C658.333 259.667 704.333 276.5 745 307.5C785.667 338.5 814.333 377.667 831 425L832 426C836.667 440.667 846.667 448 862 448H869C911.667 449.333 947.833 465.5 977.5 496.5C1007.17 527.5 1022 564.333 1022 607ZM416.5 766C407.5 766 400 763 394 757C388 751 385 743.333 385 734V384C385 375.333 388 367.833 394 361.5C400 355.167 407.5 352 416.5 352C425.5 352 433 355.167 439 361.5C445 367.833 448 375.333 448 384V734C448 742.667 445 750.167 439 756.5C433 762.833 425.5 766 416.5 766ZM289 766C280.333 766 272.833 763 266.5 757C260.167 751 257 743.333 257 734V368C257 359.333 260.167 351.833 266.5 345.5C272.833 339.167 280.333 336 289 336C294.333 336 299.5 337.333 304.5 340C309.5 342.667 313.5 346.5 316.5 351.5C319.5 356.5 321 362 321 368V734C321 742.667 317.833 750.167 311.5 756.5C305.167 762.833 297.667 766 289 766ZM161 766C157.667 766 154.333 765.5 151 764.5C147.667 763.5 144.833 762 142.5 760C140.167 758 138 755.667 136 753C134 750.333 132.5 747.5 131.5 744.5C130.5 741.5 130 738 130 734V479C130 476.333 130.333 473.667 131 471C131.667 468.333 132.667 465.833 134 463.5C135.333 461.167 137 459 139 457C141 455 143.167 453.333 145.5 452C147.833 450.667 150.333 449.667 153 449C155.667 448.333 158.333 448 161 448C170.333 448 178 451 184 457C190 463 193 470.333 193 479V734C193 742.667 190 750.167 184 756.5C178 762.833 170.333 766 161 766ZM34 702C25.3333 702 17.8333 699 11.5 693C5.16667 687 2 679.667 2 671V543C2 534.333 5.16667 526.833 11.5 520.5C17.8333 514.167 25.3333 511 34 511C40 511 45.3333 512.5 50 515.5C54.6667 518.5 58.5 522.5 61.5 527.5C64.5 532.5 66 537.667 66 543V671C66 679.667 62.8333 687 56.5 693C50.1667 699 42.6667 702 34 702ZM671 702C679.667 702 687.167 705.167 693.5 711.5C699.833 717.833 703 725.333 703 734C703 742.667 699.833 750.167 693.5 756.5C687.167 762.833 679.667 766 671 766C665.667 766 660.5 764.5 655.5 761.5C650.5 758.5 646.5 754.667 643.5 750C640.5 745.333 639 740.167 639 734.5C639 728.833 640.5 723.5 643.5 718.5C646.5 713.5 650.5 709.5 655.5 706.5C660.5 703.5 665.667 702 671 702Z" fill="url(#paint0_linear)"/>
<defs>
<linearGradient id="paint0_linear" x1="2" y1="619.5" x2="656.5" y2="616.5" gradientUnits="userSpaceOnUse">
<stop stop-color="#FD2E00"/>
<stop offset="1" stop-color="#FF9900"/>
</linearGradient>
</defs>
</svg>
