<svg width="64" height="64" viewBox="0 0 64 64" fill="none" xmlns="http://www.w3.org/2000/svg">
<path d="M29.7777 3.85822C31.0157 3.2084 32.4852 2.62222 33.8358 3.30554C40.9038 6.5446 47.9588 9.81716 55.0235 13.0696C56.1008 13.5084 56.9658 14.577 56.9368 15.8263C56.8275 24.12 56.6699 32.6212 53.9559 40.5196C51.8979 46.7365 47.8527 52.1796 42.6595 55.901C39.9294 57.9174 36.9068 59.4616 33.8068 60.7444C32.9162 61.0426 31.8067 61.1866 31.0125 60.567C30.4626 60.1382 30.2504 59.4013 30.289 58.7113C30.2858 53.8242 30.3115 48.9372 30.2825 44.0501C27.8323 45.0382 25.3562 45.9862 22.8417 46.78C21.2435 47.1887 19.9669 45.0315 20.9509 43.7017C26.1409 36.1584 31.4113 28.6754 36.6656 21.1824C35.7331 21.38 34.7684 21.7016 33.8197 21.4034C31.9226 21.0182 30.5109 19.119 30.4659 17.1361C30.4112 14.041 30.5591 10.946 30.4723 7.85095C24.3015 10.8321 18.0439 13.619 11.8217 16.4862C11.767 22.6294 11.9503 28.8362 13.2784 34.8487C14.3524 39.9368 16.4972 44.8674 19.9701 48.6692C21.6808 50.5952 23.6873 52.1997 25.7903 53.6299C26.7615 54.2563 26.8869 55.8574 26.0637 56.668C25.4784 57.3782 24.3562 57.4284 23.6391 56.9126C19.5488 54.2463 15.9731 50.6589 13.5099 46.3245C9.79907 39.8765 8.57071 32.2695 8.16555 24.8669C7.96296 21.8523 8.00476 18.8309 8.00154 15.8129C8.00154 14.4832 8.96944 13.3979 10.1078 12.9323C16.658 9.89755 23.2307 6.90636 29.7777 3.85822ZM34.3407 8.09212C34.3053 10.7785 34.2924 13.4648 34.2731 16.1512C34.3246 16.6001 34.0802 17.4811 34.7555 17.5212C36.1736 17.2231 37.4856 16.5164 38.9133 16.2551C40.5018 16.0608 42.0389 17.4911 42.0421 19.1525C42.1354 20.1205 41.6048 20.9546 41.0677 21.6814C36.5402 28.0289 32.1283 34.4703 27.6168 40.8278C28.8999 40.3153 30.3115 39.652 31.7006 40.1411C33.2281 40.6402 34.1252 42.3351 34.0963 43.9429C34.1413 48.0529 34.122 52.1662 34.1092 56.2761C40.3507 53.5361 46.0294 48.8568 49.0296 42.4154C52.8079 34.4501 52.898 25.3526 53.152 16.6671C52.7661 16.436 52.3771 16.2116 51.9751 16.024C46.4604 13.495 40.9552 10.946 35.4469 8.40363C35.0867 8.26965 34.7169 8.16245 34.3407 8.09212Z" fill="url(#paint0_linear_678_133)" stroke="url(#paint1_linear_678_133)" stroke-width="2"/>
<defs>
<linearGradient id="paint0_linear_678_133" x1="55.2842" y1="4.6578" x2="29.8794" y2="58.4813" gradientUnits="userSpaceOnUse">
<stop stop-color="#FE0F7C"/>
<stop offset="1" stop-color="#DF0066"/>
</linearGradient>
<linearGradient id="paint1_linear_678_133" x1="55.2842" y1="4.6578" x2="29.8794" y2="58.4813" gradientUnits="userSpaceOnUse">
<stop stop-color="#FE0F7C"/>
<stop offset="1" stop-color="#DF0066"/>
</linearGradient>
</defs>
</svg>
