<svg width="64" height="64" viewBox="0 0 64 64" fill="none" xmlns="http://www.w3.org/2000/svg">
<path d="M23.6256 5.28907C30.2076 3.18955 37.5729 3.67349 43.8198 6.60314C44.908 7.09079 45.7062 8.46069 45.0398 9.58117C44.6444 10.4113 43.7181 10.724 42.8897 10.9436C39.6363 9.32804 36.014 8.29317 32.354 8.37134C24.5783 8.10704 16.8704 12.1014 12.5326 18.4632C7.49822 25.4802 7.02377 35.3041 11.2222 42.8161C14.4003 48.6308 20.1991 52.9713 26.7321 54.4007C32.7795 55.7259 39.3653 54.665 44.5917 51.3445C48.519 48.8802 51.6708 45.2432 53.5723 41.0516C56.3587 34.794 56.2119 27.3117 53.0979 21.203C52.5669 20.2686 51.7196 19.1444 52.4389 18.0686C53.1393 16.5126 55.5416 16.5684 56.3173 18.0388C59.5593 23.7418 60.8961 30.6583 59.3711 37.076C57.3678 47.6034 48.553 56.4555 37.9419 58.6072C34.8956 59.2512 31.7364 59.7537 28.6487 59.0837C22.2174 58.3354 16.1061 55.2978 11.6666 50.6446C7.93877 46.7658 5.35944 41.7812 4.47079 36.4989C2.97214 28.9199 5.12221 20.7898 9.91187 14.722C13.3686 10.2959 18.2222 6.95305 23.6256 5.28907Z" fill="url(#paint0_linear_640_68)" stroke="url(#paint1_linear_640_68)" stroke-width="2"/>
<path d="M29.7216 19.611L29.7216 19.6077C29.7315 18.403 30.3886 17.5707 31.1437 17.2397C31.886 16.9142 32.7283 17.0586 33.2752 17.8404C33.7536 18.6111 33.9432 19.6488 33.9609 20.7179C33.9895 23.4288 33.9768 26.1401 33.964 28.8552L33.9626 29.1649C33.9495 31.9826 33.938 34.8043 33.9746 37.6253L33.9888 38.7168L34.806 37.9932C35.9238 37.0035 37.0498 36.0906 38.1852 35.1701C39.0311 34.4843 39.8821 33.7943 40.7388 33.0653C41.1709 32.7089 41.6013 32.3772 42.0348 32.1797C42.4577 31.9871 42.8323 31.9449 43.1925 32.0949L43.2236 32.1079L43.2561 32.1165C43.7911 32.259 44.2998 32.7955 44.5937 33.5891C44.8831 34.3703 44.9171 35.2875 44.6168 36.0366L44.6119 36.0488L44.6076 36.0612C44.3176 36.9114 43.7132 37.4179 43.0202 37.9986C42.9687 38.0418 42.9167 38.0853 42.8644 38.1295C39.6054 40.7917 36.3465 43.4599 33.0919 46.1341L33.0919 46.1341L33.088 46.1373C32.2912 46.8057 31.1686 46.8007 30.4903 46.0213L30.4761 46.0049L30.4605 45.9899C28.8449 44.4299 27.182 42.9567 25.5285 41.4918L25.4782 41.4472C23.8075 39.967 22.1467 38.4944 20.5371 36.9355C19.9864 36.3639 19.712 35.3871 19.7849 34.4031C19.8585 33.4093 20.2703 32.5804 20.8826 32.2249L20.9092 32.2094L20.9337 32.1908C21.6302 31.6623 22.5726 31.8693 23.3698 32.6024L23.3697 32.6024L23.3746 32.6068C23.7267 32.9221 24.0788 33.237 24.4307 33.5519C25.9086 34.8738 27.3849 36.1944 28.8525 37.5344L29.6853 38.2947L29.6897 37.1671C29.6984 34.9372 29.6926 32.7119 29.6868 30.4887C29.6773 26.8601 29.6678 23.2375 29.7216 19.611Z" fill="url(#paint2_linear_640_68)" stroke="url(#paint3_linear_640_68)"/>
<defs>
<linearGradient id="paint0_linear_640_68" x1="19.2233" y1="25.9523" x2="57.6237" y2="20.773" gradientUnits="userSpaceOnUse">
<stop stop-color="#0357D1"/>
<stop offset="1" stop-color="#27CDFC"/>
</linearGradient>
<linearGradient id="paint1_linear_640_68" x1="19.2233" y1="25.9523" x2="57.6237" y2="20.773" gradientUnits="userSpaceOnUse">
<stop stop-color="#0357D1"/>
<stop offset="1" stop-color="#27CDFC"/>
</linearGradient>
<linearGradient id="paint2_linear_640_68" x1="26.3559" y1="28.6809" x2="44.3138" y2="26.6372" gradientUnits="userSpaceOnUse">
<stop stop-color="#0357D1"/>
<stop offset="1" stop-color="#27CDFC"/>
</linearGradient>
<linearGradient id="paint3_linear_640_68" x1="26.3559" y1="28.6809" x2="44.3138" y2="26.6372" gradientUnits="userSpaceOnUse">
<stop stop-color="#0357D1"/>
<stop offset="1" stop-color="#27CDFC"/>
</linearGradient>
</defs>
</svg>
