<svg width="192" height="192" viewBox="0 0 192 192" fill="none" xmlns="http://www.w3.org/2000/svg">
<path d="M14.0437 22.3021C13.4954 17.2898 18.1914 12.5156 23.233 13.0395C43.137 13.0513 63.0529 13.0513 82.9569 13.0395C87.4383 12.6109 92.313 16.4802 91.9792 21.1473C91.9554 33.8745 91.9912 46.6136 91.9553 59.3408C92.3725 62.2458 89.7861 64.1746 87.5694 65.4484C83.4932 67.1866 78.4278 63.5792 78.5828 59.1979C78.547 48.3519 78.5231 37.5057 78.6185 26.6596C61.6108 26.612 44.6029 26.6239 27.5951 26.6596C27.6666 43.6253 27.6786 60.6028 27.5832 77.5803C38.4053 77.6876 49.2393 77.4851 60.0613 77.6637C64.3639 77.6161 67.8918 82.6284 66.1398 86.6287C64.8883 88.7122 63.1005 91.2362 60.3355 90.9505C47.5826 91.0457 34.8297 90.9743 22.0769 90.9743C17.4167 91.3077 13.6147 86.3906 14.0557 81.9617C14.0914 62.0672 14.0914 42.1847 14.0437 22.3021Z" fill="url(#paint0_linear)"/>
<path d="M106.136 13.5602C107.832 12.9046 109.706 13.0715 111.485 13C131.447 13.0953 151.397 12.9523 171.347 13.0834C175.538 13.0715 179.107 16.9691 178.952 21.105C178.999 41.7847 179.036 62.4644 178.94 83.144C178.999 87.7091 174.547 91.4755 170.045 90.9511C149.761 90.9391 129.477 91.0107 109.193 90.9273C104.954 91.1537 101.051 87.3753 101.086 83.144C100.978 62.8338 101.086 42.5237 101.039 22.2134C100.693 18.6019 102.686 14.8951 106.136 13.5602ZM114.577 26.5401C114.637 43.5129 114.518 60.4858 114.637 77.4586C131.567 77.4467 148.508 77.4825 165.449 77.4467C165.461 60.4738 165.461 43.501 165.461 26.5282C148.496 26.5044 131.53 26.5044 114.577 26.5401Z" fill="url(#paint1_linear)"/>
<path d="M131.553 101.201C145.199 100.872 158.87 101.025 172.528 101.119C174.959 103.387 179.059 105.092 178.916 108.937C179 129.652 178.941 150.392 178.953 171.107C179.441 174.599 176.044 176.55 173.946 178.772C151.337 179.066 128.703 179.09 106.082 178.76C103.901 176.633 100.909 174.493 101.028 171.131C100.981 158.562 101.004 145.994 101.016 133.426C100.992 129.464 105.105 126.102 109.073 127.043C112.315 127.231 114.568 130.428 114.556 133.45C114.615 144.114 114.556 154.765 114.568 165.428C131.553 165.428 148.524 165.44 165.508 165.417C165.508 148.711 165.436 131.992 165.544 115.286C155.055 115.215 144.567 115.286 134.078 115.262C129.562 115.686 125.282 110.854 126.856 106.516C127.786 104.27 130.003 102.977 131.553 101.201Z" fill="url(#paint2_linear)"/>
<path d="M18.9016 101.738C20.6451 101 22.5916 101.047 24.4427 101C43.9558 101.047 63.4689 100.976 82.9821 101.035C87.7469 100.583 92.2848 104.645 91.9624 109.469C91.9982 129.729 91.9743 149.99 91.9743 170.238C92.3445 174.669 88.6664 178.993 84.1285 178.945C63.457 179.028 42.7736 179.005 22.1021 178.956C17.4924 179.111 13.6233 174.776 14.0293 170.261C14.0293 149.966 13.9935 129.669 14.0532 109.373C13.9099 106.146 15.8922 102.977 18.9016 101.738ZM27.5475 114.614C27.5715 131.575 27.5357 148.548 27.5715 165.51C44.529 165.51 61.4866 165.521 78.4441 165.51C78.5277 148.584 78.3128 131.659 78.5516 114.733C61.5582 114.424 44.5528 114.662 27.5475 114.614Z" fill="url(#paint3_linear)"/>
<defs>
<linearGradient id="paint0_linear" x1="53" y1="91" x2="53" y2="13" gradientUnits="userSpaceOnUse">
<stop stop-color="#FD3A84"/>
<stop offset="1" stop-color="#FFA68D"/>
</linearGradient>
<linearGradient id="paint1_linear" x1="139.999" y1="91" x2="139.999" y2="13" gradientUnits="userSpaceOnUse">
<stop stop-color="#02AA93"/>
<stop offset="1" stop-color="#67FF80"/>
</linearGradient>
<linearGradient id="paint2_linear" x1="140" y1="179" x2="140" y2="101" gradientUnits="userSpaceOnUse">
<stop stop-color="#5570FF"/>
<stop offset="1" stop-color="#4DD3FF"/>
</linearGradient>
<linearGradient id="paint3_linear" x1="53" y1="179" x2="53" y2="101" gradientUnits="userSpaceOnUse">
<stop stop-color="#FDA700"/>
<stop offset="1" stop-color="#FFDE00"/>
</linearGradient>
</defs>
</svg>
