<svg width="192" height="192" viewBox="0 0 192 192" fill="none" xmlns="http://www.w3.org/2000/svg">
<path d="M152.13 19.11C146.1 18.31 139.76 20.44 135.46 24.74C131.18 29.36 126.07 33.36 122.38 38.42C120.17 43.17 126.13 48.37 130.51 45.48C135.04 41.52 139.12 37.04 143.4 32.8C145.89 30.43 149.67 29.68 152.91 30.83C158.69 32.5 162.48 39.6 159.87 45.19C159.39 46.36 158.52 47.3 157.71 48.24C153.82 52.11 149.92 55.99 146.07 59.91C144.03 62.01 144.12 65.7 146.18 67.76C148.33 70.2 152.51 70.15 154.66 67.73C158.4 63.61 162.21 59.56 165.98 55.47C171.94 49.95 173.64 40.8 170.53 33.37C167.68 25.68 160.28 19.98 152.13 19.11Z" fill="url(#paint0_linear)"/>
<path d="M100.63 65.48C98.3904 64.16 95.3604 64.7 93.6104 66.59C86.7804 73.5 79.8804 80.34 73.0404 87.23C65.9304 94.31 58.8304 101.4 51.7604 108.51C48.0504 112.19 44.3304 115.88 40.6904 119.62C39.1604 121.19 37.2304 122.62 36.8804 124.93C36.7804 130.88 36.8404 136.84 36.8504 142.8C36.5204 144.5 37.5804 146.77 35.9404 148C31.1304 152.83 26.2904 157.62 21.5004 162.47C19.2204 164.72 19.5104 168.91 22.0904 170.81C24.2604 172.47 27.5204 172.43 29.5004 170.47C35.3004 164.84 40.8704 158.97 46.7204 153.4C53.4904 153.4 60.2704 153.48 67.0404 153.36C70.9204 152.59 72.8704 148.64 75.7604 146.3C82.0004 140.07 88.2404 133.83 94.4704 127.59C99.5804 122.49 104.68 117.39 109.78 112.28C114.72 107.43 119.51 102.42 124.47 97.58C126.52 95.85 127.02 92.6 125.53 90.36C123.89 87.42 119.47 86.72 117 89.02C112.03 93.82 107.25 98.82 102.35 103.69C96.7704 109.22 91.2204 114.77 85.6904 120.34C79.8404 126.15 74.0104 131.98 68.2004 137.83C66.2504 139.34 64.9004 142.32 62.0404 142.06C57.4404 141.92 52.8104 142.33 48.2404 141.83C48.4304 137.23 47.7704 132.53 48.5904 128C52.1304 124.14 56.0104 120.6 59.6204 116.8C66.7304 109.64 73.9104 102.54 81.0104 95.37C88.1204 88.28 95.2704 81.23 102.27 74.04C104.47 71.45 103.64 67.06 100.63 65.48Z" fill="url(#paint1_linear)"/>
<path d="M96.1306 34.96C98.2906 33.26 101.631 33.52 103.551 35.47C120.831 52.84 138.241 70.08 155.481 87.5C157.731 89.63 157.611 93.53 155.371 95.62C153.191 97.59 149.581 97.67 147.481 95.54C130.171 78.16 112.771 60.87 95.4806 43.47C93.0606 41.19 93.4306 36.87 96.1306 34.96Z" fill="url(#paint2_linear)"/>
<path d="M152.13 19.11C146.1 18.31 139.76 20.44 135.46 24.74C131.18 29.36 126.07 33.36 122.38 38.42C120.17 43.17 126.13 48.37 130.51 45.48C135.04 41.52 139.12 37.04 143.4 32.8C145.89 30.43 149.67 29.68 152.91 30.83C158.69 32.5 162.48 39.6 159.87 45.19C159.39 46.36 158.52 47.3 157.71 48.24C153.82 52.11 149.92 55.99 146.07 59.91C144.03 62.01 144.12 65.7 146.18 67.76C148.33 70.2 152.51 70.15 154.66 67.73C158.4 63.61 162.21 59.56 165.98 55.47C171.94 49.95 173.64 40.8 170.53 33.37C167.68 25.68 160.28 19.98 152.13 19.11Z" stroke="url(#paint3_linear)" stroke-width="6"/>
<path d="M100.63 65.48C98.3904 64.16 95.3604 64.7 93.6104 66.59C86.7804 73.5 79.8804 80.34 73.0404 87.23C65.9304 94.31 58.8304 101.4 51.7604 108.51C48.0504 112.19 44.3304 115.88 40.6904 119.62C39.1604 121.19 37.2304 122.62 36.8804 124.93C36.7804 130.88 36.8404 136.84 36.8504 142.8C36.5204 144.5 37.5804 146.77 35.9404 148C31.1304 152.83 26.2904 157.62 21.5004 162.47C19.2204 164.72 19.5104 168.91 22.0904 170.81C24.2604 172.47 27.5204 172.43 29.5004 170.47C35.3004 164.84 40.8704 158.97 46.7204 153.4C53.4904 153.4 60.2704 153.48 67.0404 153.36C70.9204 152.59 72.8704 148.64 75.7604 146.3C82.0004 140.07 88.2404 133.83 94.4704 127.59C99.5804 122.49 104.68 117.39 109.78 112.28C114.72 107.43 119.51 102.42 124.47 97.58C126.52 95.85 127.02 92.6 125.53 90.36C123.89 87.42 119.47 86.72 117 89.02C112.03 93.82 107.25 98.82 102.35 103.69C96.7704 109.22 91.2204 114.77 85.6904 120.34C79.8404 126.15 74.0104 131.98 68.2004 137.83C66.2504 139.34 64.9004 142.32 62.0404 142.06C57.4404 141.92 52.8104 142.33 48.2404 141.83C48.4304 137.23 47.7704 132.53 48.5904 128C52.1304 124.14 56.0104 120.6 59.6204 116.8C66.7304 109.64 73.9104 102.54 81.0104 95.37C88.1204 88.28 95.2704 81.23 102.27 74.04C104.47 71.45 103.64 67.06 100.63 65.48Z" stroke="url(#paint4_linear)" stroke-width="6"/>
<path d="M96.1306 34.96C98.2906 33.26 101.631 33.52 103.551 35.47C120.831 52.84 138.241 70.08 155.481 87.5C157.731 89.63 157.611 93.53 155.371 95.62C153.191 97.59 149.581 97.67 147.481 95.54C130.171 78.16 112.771 60.87 95.4806 43.47C93.0606 41.19 93.4306 36.87 96.1306 34.96Z" stroke="url(#paint5_linear)" stroke-width="6"/>
<defs>
<linearGradient id="paint0_linear" x1="22.5" y1="169" x2="155" y2="48" gradientUnits="userSpaceOnUse">
<stop stop-color="#A93AFF"/>
<stop offset="1" stop-color="#557AFF"/>
</linearGradient>
<linearGradient id="paint1_linear" x1="22.5" y1="169" x2="155" y2="48" gradientUnits="userSpaceOnUse">
<stop stop-color="#A93AFF"/>
<stop offset="1" stop-color="#557AFF"/>
</linearGradient>
<linearGradient id="paint2_linear" x1="22.5" y1="169" x2="155" y2="48" gradientUnits="userSpaceOnUse">
<stop stop-color="#A93AFF"/>
<stop offset="1" stop-color="#557AFF"/>
</linearGradient>
<linearGradient id="paint3_linear" x1="22.5" y1="169" x2="155" y2="48" gradientUnits="userSpaceOnUse">
<stop stop-color="#A93AFF"/>
<stop offset="1" stop-color="#557AFF"/>
</linearGradient>
<linearGradient id="paint4_linear" x1="22.5" y1="169" x2="155" y2="48" gradientUnits="userSpaceOnUse">
<stop stop-color="#A93AFF"/>
<stop offset="1" stop-color="#557AFF"/>
</linearGradient>
<linearGradient id="paint5_linear" x1="22.5" y1="169" x2="155" y2="48" gradientUnits="userSpaceOnUse">
<stop stop-color="#A93AFF"/>
<stop offset="1" stop-color="#557AFF"/>
</linearGradient>
</defs>
</svg>
