<?xml version="1.0" encoding="UTF-8" ?>
<!DOCTYPE svg PUBLIC "-//W3C//DTD SVG 1.1//EN" "http://www.w3.org/Graphics/SVG/1.1/DTD/svg11.dtd">
<svg width="192pt" height="192pt" viewBox="0 0 192 192" version="1.1" xmlns="http://www.w3.org/2000/svg">
<g id="#950fffff">
<path fill="#950fff" opacity="1.00" d=" M 88.54 14.56 C 90.31 12.83 92.39 10.99 95.02 10.97 C 97.98 10.66 100.44 12.65 102.38 14.62 C 105.00 17.32 107.89 19.78 110.20 22.77 C 108.47 22.29 106.74 21.85 105.02 21.38 C 102.85 23.53 101.16 26.08 99.78 28.80 C 98.40 27.52 97.05 26.22 95.71 24.90 C 93.60 25.96 92.08 27.81 90.43 29.44 C 86.52 33.37 82.51 37.19 78.61 41.14 C 85.62 48.98 93.56 55.93 100.86 63.51 C 97.39 65.70 95.01 69.08 93.59 72.89 C 84.30 64.03 75.23 54.93 66.08 45.92 C 63.46 43.67 63.23 39.21 65.85 36.88 C 73.37 29.40 81.02 22.05 88.54 14.56 Z" />
</g>
<g id="#a016ffff">
<path fill="#a016ff" opacity="1.00" d=" M 105.02 21.38 C 106.74 21.85 108.47 22.29 110.20 22.77 C 113.45 25.14 116.00 28.33 118.94 31.06 C 125.01 37.21 131.39 43.06 137.28 49.39 C 134.47 52.10 131.65 54.80 128.81 57.49 C 119.05 48.01 109.44 38.37 99.78 28.80 C 101.16 26.08 102.85 23.53 105.02 21.38 Z" />
</g>
<g id="#940effff">
<path fill="#940eff" opacity="1.00" d=" M 46.86 55.86 C 49.86 53.29 52.27 48.53 56.86 49.17 C 60.25 49.54 61.72 52.90 62.38 55.82 C 59.07 61.23 53.95 65.12 49.86 69.89 C 38.23 82.44 32.70 100.40 35.89 117.29 C 37.15 125.62 40.22 133.58 44.51 140.82 C 41.59 143.65 38.79 146.61 36.43 149.94 C 24.74 133.39 20.52 111.77 24.99 92.02 C 28.24 78.00 36.54 65.69 46.86 55.86 Z" />
</g>
<g id="#ad1fffff">
<path fill="#ad1fff" opacity="1.00" d=" M 128.81 57.49 C 131.65 54.80 134.47 52.10 137.28 49.39 C 143.83 56.06 151.03 62.32 156.01 70.32 C 152.11 72.65 149.82 76.67 148.66 80.96 C 143.84 71.74 135.75 65.02 128.81 57.49 Z" />
</g>
<g id="#01000143">
<path fill="#010001" opacity="0.26" d=" M 62.38 55.82 C 63.58 58.50 61.57 60.97 59.80 62.79 C 53.56 68.94 47.56 75.48 43.05 83.02 C 39.37 89.22 37.64 96.34 36.32 103.37 C 35.37 107.97 36.45 112.65 35.89 117.29 C 32.70 100.40 38.23 82.44 49.86 69.89 C 53.95 65.12 59.07 61.23 62.38 55.82 Z" />
<path fill="#010001" opacity="0.26" d=" M 71.21 106.09 C 71.71 96.44 79.77 90.22 85.95 83.85 C 86.30 85.32 86.03 86.85 84.85 87.88 C 81.91 91.23 78.27 93.92 75.63 97.53 C 73.68 100.13 73.13 103.47 71.21 106.09 Z" />
<path fill="#010001" opacity="0.26" d=" M 131.27 103.80 C 132.74 106.66 132.18 109.95 132.14 113.03 C 131.85 119.98 129.98 127.07 125.59 132.59 C 119.41 140.57 109.82 145.40 99.96 146.98 C 93.33 147.98 86.59 146.24 80.65 143.34 C 79.41 142.86 78.54 141.87 78.29 140.57 C 85.01 144.03 92.75 145.79 100.28 144.46 C 111.23 142.49 121.85 136.12 127.13 126.08 C 130.84 119.31 131.82 111.41 131.27 103.80 Z" />
<path fill="#010001" opacity="0.26" d=" M 106.58 179.34 C 136.19 174.97 162.59 150.78 166.90 120.74 C 168.17 129.68 164.14 138.30 159.94 145.94 C 149.20 164.33 130.18 177.60 109.22 181.40 C 92.08 184.25 73.86 181.23 59.03 171.98 C 58.14 171.44 57.55 170.65 57.28 169.62 C 61.87 172.20 66.61 174.57 71.64 176.18 C 82.80 180.06 94.91 181.10 106.58 179.34 Z" />
</g>
<g id="#ae1fffff">
<path fill="#ae1fff" opacity="1.00" d=" M 93.59 72.89 C 95.01 69.08 97.39 65.70 100.86 63.51 C 108.95 71.62 117.66 79.19 124.92 88.08 C 128.45 92.61 130.44 98.16 131.27 103.80 C 131.82 111.41 130.84 119.31 127.13 126.08 C 121.85 136.12 111.23 142.49 100.28 144.46 C 92.75 145.79 85.01 144.03 78.29 140.57 C 74.28 138.31 70.73 135.31 67.62 131.92 C 68.29 127.60 70.80 123.85 74.62 121.70 C 79.76 128.64 88.15 133.80 97.02 132.90 C 105.35 131.91 113.66 127.09 117.31 119.31 C 120.89 111.13 120.47 100.59 114.24 93.77 C 107.76 86.42 100.39 79.93 93.59 72.89 Z" />
</g>
<g id="#ba27ffff">
<path fill="#ba27ff" opacity="1.00" d=" M 148.66 80.96 C 149.82 76.67 152.11 72.65 156.01 70.32 C 165.84 84.99 168.28 103.47 166.90 120.74 C 162.59 150.78 136.19 174.97 106.58 179.34 C 94.91 181.10 82.80 180.06 71.64 176.18 C 73.54 172.62 75.78 169.25 78.09 165.95 C 93.56 170.27 110.73 168.67 124.82 160.81 C 141.12 151.76 154.34 135.06 155.36 115.96 C 155.66 104.02 154.16 91.71 148.66 80.96 Z" />
</g>
<g id="#9f15ffff">
<path fill="#9f15ff" opacity="1.00" d=" M 76.58 76.59 C 78.83 74.25 82.99 74.49 85.03 76.98 C 86.73 78.79 86.98 81.64 85.95 83.85 C 79.77 90.22 71.71 96.44 71.21 106.09 C 70.41 111.55 72.01 116.95 74.62 121.70 C 70.80 123.85 68.29 127.60 67.62 131.92 C 59.32 122.34 56.78 108.24 61.38 96.41 C 64.17 88.31 70.56 82.36 76.58 76.59 Z" />
</g>
<g id="#a81bffff">
<path fill="#a81bff" opacity="1.00" d=" M 44.51 140.82 C 52.33 152.81 64.41 161.76 78.09 165.95 C 75.78 169.25 73.54 172.62 71.64 176.18 C 66.61 174.57 61.87 172.20 57.28 169.62 C 49.14 164.50 41.93 157.85 36.43 149.94 C 38.79 146.61 41.59 143.65 44.51 140.82 Z" />
</g>
</svg>
