<svg width="128" height="128" viewBox="0 0 128 128" fill="none" xmlns="http://www.w3.org/2000/svg">
<path fill-rule="evenodd" clip-rule="evenodd" d="M19.4895 16.58C21.3012 16.1578 23.1866 16.017 25.0646 16.017C41.763 16.0211 58.4648 16.0197 75.1654 16.0184C83.5154 16.0177 91.865 16.017 100.214 16.017C103.565 15.9619 107.026 15.9803 110.185 17.0389C117.219 19.2114 122.241 25.2515 121.991 31.5057C121.985 40.5274 121.988 49.5492 121.991 58.571V58.5947C121.995 71.5832 121.998 84.5717 121.977 97.5602C122.064 105.54 113.396 112.529 103.852 112.473C96.1809 112.473 88.5102 112.476 80.8397 112.479H80.8392C61.7696 112.487 42.7009 112.494 23.6359 112.455C14.2533 112.303 6.00484 105.381 6.00484 97.5725C5.99747 75.3401 5.99747 53.1016 6.0122 30.8631C6.05639 24.3152 11.8892 18.22 19.4895 16.58ZM22.5164 23.4094C18.3775 24.1009 14.7614 27.2464 14.8572 30.8508C14.8439 44.2024 14.8466 57.554 14.8492 70.9056C14.851 79.8048 14.8528 88.7039 14.8498 97.6031C14.7393 101.777 19.4895 105.308 24.4239 105.192C29.1725 105.193 33.9213 105.195 38.6702 105.196H38.6716C60.393 105.204 82.1176 105.212 103.837 105.167C109.007 105.198 113.514 101.263 113.271 96.9727C113.287 75.132 113.301 53.2912 113.264 31.4506C113.522 27.1485 108.897 23.2748 103.764 23.2748C89.3192 23.2578 74.8724 23.2597 60.4247 23.2616C48.8765 23.2631 37.3278 23.2646 25.779 23.2565C25.5883 23.2586 25.3973 23.2594 25.2062 23.2603H25.2062C24.3056 23.2641 23.4035 23.268 22.5164 23.4094ZM33.4234 37.87C35.8685 36.8052 39.0501 37.5702 40.5746 39.455C44.7768 44.1094 48.9646 48.7758 53.1525 53.4422L53.1531 53.4428C55.666 56.2429 58.1789 59.0429 60.6949 61.8404C60.8397 62.0315 61.009 62.2217 61.1807 62.4145L61.1807 62.4146C61.7509 63.0551 62.3472 63.725 62.1604 64.5575C61.6146 65.4496 60.8978 66.2524 60.1812 67.0551C60.0179 67.2381 59.8546 67.421 59.6933 67.6049C55.235 72.5443 50.7988 77.4959 46.3612 82.4489C44.5092 84.516 42.657 86.5834 40.8029 88.6502C39.7276 89.8986 38.0853 90.9512 36.1631 90.9879C31.3393 91.2693 28.4155 85.8719 31.8622 83.0447C33.8026 80.873 35.752 78.7072 37.7012 76.5417L37.7026 76.5401C41.0204 72.8541 44.3375 69.1689 47.6078 65.457C48.6021 64.5942 48.2339 63.303 47.3648 62.489C45.6234 60.5482 43.8796 58.6087 42.1357 56.6692L42.1308 56.6638C38.6253 52.765 35.1197 48.8661 31.6339 44.9564C29.4171 42.7963 30.2713 39.0694 33.4234 37.87ZM63.3637 83.4598C62.4277 83.4666 61.4747 83.4734 60.6136 83.7973C58.9933 84.3481 57.8887 85.7495 57.8739 87.1998C57.7487 89.2743 60.1054 91.2938 62.6389 91.0857C70.0188 91.1029 77.4024 91.0991 84.7845 91.0952C87.9443 91.0936 91.1039 91.0919 94.2628 91.0919C96.9365 91.3856 99.4332 89.3539 99.2266 87.1386C99.1895 85.0457 96.8105 83.3016 94.3144 83.4668C89.0964 83.4478 83.8765 83.4518 78.6567 83.4558C73.8053 83.4595 68.954 83.4633 64.1044 83.4485C63.8601 83.4562 63.6125 83.458 63.3637 83.4598Z" fill="url(#paint0_linear_678_244)"/>
<path d="M25.0646 16.017L25.065 14.517H25.0646V16.017ZM19.4895 16.58L19.8059 18.0463L19.818 18.0437L19.83 18.0409L19.4895 16.58ZM75.1654 16.0184L75.1653 14.5184L75.1654 16.0184ZM100.214 16.017V17.517H100.226L100.238 17.5168L100.214 16.017ZM110.185 17.0389L109.709 18.4612L109.726 18.4669L109.743 18.4721L110.185 17.0389ZM121.991 31.5057L120.492 31.4457L120.491 31.4752L120.491 31.5047L121.991 31.5057ZM121.991 58.571L123.491 58.571L123.491 58.5705L121.991 58.571ZM121.991 58.5947L120.491 58.5947L120.491 58.5952L121.991 58.5947ZM121.977 97.5602L120.477 97.5577L120.477 97.5672L120.477 97.5767L121.977 97.5602ZM103.852 112.473L103.86 110.973H103.852V112.473ZM80.8397 112.479L80.8397 113.979L80.8403 113.979L80.8397 112.479ZM80.8392 112.479L80.8392 110.979L80.8386 110.979L80.8392 112.479ZM23.6359 112.455L23.6115 113.955L23.6222 113.955L23.6329 113.955L23.6359 112.455ZM6.00484 97.5725L7.50484 97.5725L7.50484 97.572L6.00484 97.5725ZM6.0122 30.8631L4.51221 30.853L4.5122 30.8621L6.0122 30.8631ZM14.8572 30.8508L16.3572 30.8523L16.3572 30.8316L16.3567 30.811L14.8572 30.8508ZM22.5164 23.4094L22.2804 21.928L22.2692 21.9299L22.5164 23.4094ZM14.8492 70.9056L16.3492 70.9053L16.3492 70.9053L14.8492 70.9056ZM14.8498 97.6031L16.3493 97.6427L16.3498 97.6232L16.3498 97.6036L14.8498 97.6031ZM24.4239 105.192L24.4243 103.692L24.4064 103.692L24.3886 103.692L24.4239 105.192ZM38.6702 105.196L38.6697 106.696H38.6702V105.196ZM38.6716 105.196L38.6721 103.696H38.6716V105.196ZM103.837 105.167L103.846 103.667L103.834 103.667L103.837 105.167ZM113.271 96.9727L111.771 96.9717L111.771 97.0146L111.774 97.0575L113.271 96.9727ZM113.264 31.4506L111.767 31.3607L111.764 31.4068L111.764 31.4531L113.264 31.4506ZM103.764 23.2748L103.762 24.7748H103.764V23.2748ZM60.4247 23.2616L60.4249 24.7616L60.4249 24.7616L60.4247 23.2616ZM25.779 23.2565L25.7801 21.7565L25.7711 21.7565L25.7622 21.7566L25.779 23.2565ZM25.2062 23.2603L25.2062 24.7603L25.2127 24.7602L25.2062 23.2603ZM25.2062 23.2603L25.2062 21.7602L25.1997 21.7603L25.2062 23.2603ZM40.5746 39.455L39.4083 40.3983L39.4339 40.43L39.4612 40.4602L40.5746 39.455ZM33.4234 37.87L33.9569 39.2719L33.9899 39.2594L34.0224 39.2453L33.4234 37.87ZM53.1525 53.4422L54.2703 52.442L54.2688 52.4403L53.1525 53.4422ZM53.1531 53.4428L52.0352 54.443L52.0367 54.4447L53.1531 53.4428ZM60.6949 61.8404L61.8905 60.9345L61.8524 60.8842L61.8102 60.8373L60.6949 61.8404ZM61.1807 62.4145L62.3807 61.5145L62.3429 61.4642L62.301 61.4171L61.1807 62.4145ZM61.1807 62.4146L59.9807 63.3146L60.0185 63.3649L60.0603 63.4119L61.1807 62.4146ZM62.1604 64.5575L63.4399 65.3403L63.5696 65.1284L63.624 64.8859L62.1604 64.5575ZM60.1812 67.0551L61.3001 68.0541L61.3001 68.0541L60.1812 67.0551ZM59.6933 67.6049L60.8068 68.61L60.8141 68.6019L60.8213 68.5937L59.6933 67.6049ZM46.3612 82.4489L45.244 81.448L45.244 81.448L46.3612 82.4489ZM40.8029 88.6502L39.6863 87.6485L39.6762 87.6598L39.6663 87.6713L40.8029 88.6502ZM36.1631 90.9879L36.1345 89.4881L36.1051 89.4887L36.0758 89.4904L36.1631 90.9879ZM31.8622 83.0447L32.8135 84.2044L32.9033 84.1308L32.9807 84.0441L31.8622 83.0447ZM37.7012 76.5417L36.5879 75.5364L36.5863 75.5382L37.7012 76.5417ZM37.7026 76.5401L38.8159 77.5454L38.8175 77.5436L37.7026 76.5401ZM47.6078 65.457L46.6247 64.3241L46.5488 64.39L46.4823 64.4654L47.6078 65.457ZM47.3648 62.489L46.2483 63.4907L46.2918 63.5392L46.3394 63.5838L47.3648 62.489ZM42.1357 56.6692L43.2512 55.6663L43.2508 55.6659L42.1357 56.6692ZM42.1308 56.6638L41.0154 57.6667L41.0157 57.6671L42.1308 56.6638ZM31.6339 44.9564L32.7535 43.9582L32.7184 43.9189L32.6807 43.8821L31.6339 44.9564ZM60.6136 83.7973L61.0963 85.2175L61.1191 85.2098L61.1417 85.2013L60.6136 83.7973ZM63.3637 83.4598L63.3746 84.9598L63.3746 84.9598L63.3637 83.4598ZM57.8739 87.1998L59.3712 87.2902L59.3735 87.2527L59.3738 87.2151L57.8739 87.1998ZM62.6389 91.0857L62.6424 89.5858L62.5791 89.5856L62.5161 89.5908L62.6389 91.0857ZM84.7845 91.0952L84.7837 89.5952L84.7837 89.5952L84.7845 91.0952ZM94.2628 91.0919L94.4266 89.6009L94.3449 89.5919H94.2628V91.0919ZM99.2266 87.1386L97.7268 87.1652L97.7278 87.2217L97.7331 87.2779L99.2266 87.1386ZM94.3144 83.4668L94.3089 84.9668L94.3612 84.967L94.4134 84.9636L94.3144 83.4668ZM78.6567 83.4558L78.6555 81.9558L78.6555 81.9558L78.6567 83.4558ZM64.1044 83.4485L64.109 81.9485L64.083 81.9484L64.057 81.9492L64.1044 83.4485ZM25.0646 14.517C23.1168 14.517 21.1089 14.6624 19.1491 15.1192L19.83 18.0409C21.4936 17.6531 23.2564 17.517 25.0646 17.517V14.517ZM75.1653 14.5184C58.4646 14.5197 41.7631 14.5211 25.065 14.517L25.0643 17.517C41.763 17.5211 58.4649 17.5197 75.1655 17.5184L75.1653 14.5184ZM100.214 14.517C91.8649 14.517 83.5152 14.5177 75.1653 14.5184L75.1655 17.5184C83.5155 17.5177 91.8651 17.517 100.214 17.517V14.517ZM110.662 15.6167C107.227 14.4657 103.522 14.4624 100.189 14.5172L100.238 17.5168C103.608 17.4614 106.825 17.4948 109.709 18.4612L110.662 15.6167ZM123.49 31.5656C123.774 24.46 118.131 17.9232 110.628 15.6057L109.743 18.4721C116.307 20.4996 120.708 26.043 120.492 31.4457L123.49 31.5656ZM123.491 58.5705C123.488 49.5486 123.485 40.5276 123.491 31.5066L120.491 31.5047C120.485 40.5273 120.488 49.5498 120.491 58.5714L123.491 58.5705ZM123.491 58.5947V58.571H120.491V58.5947H123.491ZM123.477 97.5627C123.498 84.5725 123.495 71.5825 123.491 58.5942L120.491 58.5952C120.495 71.5839 120.498 84.5709 120.477 97.5577L123.477 97.5627ZM103.843 113.973C108.974 114.003 113.864 112.144 117.476 109.191C121.081 106.244 123.527 102.102 123.476 97.5437L120.477 97.5767C120.514 100.999 118.67 104.34 115.577 106.869C112.491 109.392 108.274 110.999 103.86 110.973L103.843 113.973ZM80.8403 113.979C88.5108 113.976 96.1812 113.973 103.852 113.973V110.973C96.1805 110.973 88.5096 110.976 80.8391 110.979L80.8403 113.979ZM80.8392 113.979H80.8397V110.979H80.8392V113.979ZM23.6329 113.955C42.6999 113.994 61.7705 113.987 80.8398 113.979L80.8386 110.979C61.7687 110.987 42.7018 110.994 23.639 110.955L23.6329 113.955ZM4.50484 97.5725C4.50484 102.021 6.84875 106.094 10.3354 109.032C13.8283 111.975 18.567 113.873 23.6115 113.955L23.6603 110.956C19.3222 110.885 15.2454 109.246 12.2684 106.738C9.28515 104.224 7.50484 100.933 7.50484 97.5725H4.50484ZM4.5122 30.8621C4.49747 53.1012 4.49747 75.3403 4.50484 97.573L7.50484 97.572C7.49747 75.3399 7.49747 53.1019 7.5122 30.8641L4.5122 30.8621ZM19.1732 15.1138C11.0851 16.859 4.56242 23.417 4.51224 30.853L7.51217 30.8732C7.55036 25.2133 12.6933 19.581 19.8059 18.0463L19.1732 15.1138ZM16.3567 30.811C16.323 29.5451 16.9394 28.2451 18.1256 27.1313C19.3099 26.0193 20.974 25.1879 22.7636 24.8889L22.2692 21.9299C19.9199 22.3224 17.7065 23.4096 16.072 24.9443C14.4394 26.4772 13.2956 28.5522 13.3577 30.8906L16.3567 30.811ZM16.3492 70.9053C16.3466 57.5536 16.3439 44.2029 16.3572 30.8523L13.3572 30.8493C13.3439 44.202 13.3466 57.5545 13.3492 70.9059L16.3492 70.9053ZM16.3498 97.6036C16.3528 88.7039 16.351 79.8044 16.3492 70.9053L13.3492 70.9059C13.351 79.8051 13.3528 88.7039 13.3498 97.6026L16.3498 97.6036ZM24.3886 103.692C22.2751 103.742 20.1896 103.005 18.6649 101.821C17.1325 100.632 16.3102 99.1196 16.3493 97.6427L13.3503 97.5634C13.279 100.26 14.7766 102.601 16.8252 104.191C18.8816 105.787 21.6383 106.758 24.4592 106.691L24.3886 103.692ZM38.6707 103.696C33.9218 103.695 29.1729 103.693 24.4243 103.692L24.4235 106.692C29.172 106.693 33.9207 106.695 38.6697 106.696L38.6707 103.696ZM38.6716 103.696H38.6702V106.696H38.6716V103.696ZM103.834 103.667C82.1166 103.712 60.3939 103.704 38.6721 103.696L38.6711 106.696C60.3922 106.704 82.1186 106.712 103.84 106.667L103.834 103.667ZM111.774 97.0575C111.863 98.6327 111.082 100.269 109.599 101.558C108.124 102.842 106.055 103.68 103.846 103.667L103.828 106.667C106.789 106.684 109.559 105.57 111.569 103.822C113.571 102.079 114.922 99.6027 114.769 96.8879L111.774 97.0575ZM111.764 31.4531C111.801 53.2917 111.787 75.1307 111.771 96.9717L114.771 96.9738C114.787 75.1333 114.801 53.2908 114.764 31.448L111.764 31.4531ZM103.764 24.7748C105.964 24.7748 108.06 25.6097 109.562 26.8906C111.07 28.177 111.86 29.7971 111.767 31.3607L114.761 31.5405C114.926 28.8019 113.532 26.3342 111.509 24.6082C109.479 22.8768 106.697 21.7748 103.764 21.7748V24.7748ZM60.4249 24.7616C74.8728 24.7597 89.3185 24.7578 103.762 24.7748L103.765 21.7748C89.3198 21.7578 74.8721 21.7597 60.4245 21.7616L60.4249 24.7616ZM25.778 24.7565C37.3274 24.7646 48.8769 24.7631 60.4249 24.7616L60.4245 21.7616C48.8762 21.7631 37.3281 21.7646 25.7801 21.7565L25.778 24.7565ZM25.2127 24.7602C25.4029 24.7594 25.599 24.7586 25.7958 24.7564L25.7622 21.7566C25.5775 21.7586 25.3917 21.7594 25.1998 21.7603L25.2127 24.7602ZM25.2062 24.7603H25.2062V21.7603H25.2062V24.7603ZM22.7525 24.8907C23.5063 24.7706 24.2922 24.7642 25.2126 24.7602L25.1997 21.7603C24.319 21.7641 23.3006 21.7655 22.2804 21.9281L22.7525 24.8907ZM41.7409 38.5117C39.7665 36.0707 35.8501 35.1772 32.8245 36.4948L34.0224 39.2453C35.887 38.4332 38.3337 39.0697 39.4083 40.3983L41.7409 38.5117ZM54.2688 52.4403C50.0812 47.7742 45.8919 43.1061 41.6879 38.4498L39.4612 40.4602C43.6617 45.1127 47.848 49.7774 52.0361 54.444L54.2688 52.4403ZM54.2709 52.4426L54.2703 52.442L52.0346 54.4424L52.0352 54.443L54.2709 52.4426ZM61.8102 60.8373C59.2948 58.0406 56.7824 55.2411 54.2694 52.4409L52.0367 54.4447C54.5495 57.2446 57.063 60.0453 59.5796 62.8435L61.8102 60.8373ZM62.301 61.4171C62.1209 61.2148 61.993 61.0698 61.8905 60.9345L59.4993 62.7463C59.6865 62.9933 59.8971 63.2286 60.0603 63.4119L62.301 61.4171ZM62.3807 61.5146L62.3807 61.5145L59.9807 63.3145L59.9807 63.3146L62.3807 61.5146ZM63.624 64.8859C63.8224 64.0016 63.5788 63.2444 63.263 62.6808C62.9715 62.1605 62.5613 61.7095 62.3011 61.4172L60.0603 63.4119C60.3703 63.7602 60.5434 63.9643 60.6458 64.1472C60.7241 64.2868 60.6852 64.2808 60.6968 64.229L63.624 64.8859ZM61.3001 68.0541C61.9995 67.2707 62.8113 66.3677 63.4399 65.3403L60.8809 63.7746C60.4179 64.5314 59.7962 65.2341 59.0622 66.0562L61.3001 68.0541ZM60.8213 68.5937C60.9773 68.4157 61.1361 68.2379 61.3001 68.0541L59.0622 66.0562C58.8997 66.2382 58.7319 66.4262 58.5654 66.6161L60.8213 68.5937ZM47.4784 83.4498C51.9163 78.4965 56.3507 73.547 60.8068 68.61L58.5798 66.5999C54.1194 71.5417 49.6813 76.4953 45.244 81.448L47.4784 83.4498ZM41.9194 89.6518C43.7739 87.5846 45.6265 85.5169 47.4784 83.4498L45.244 81.448C43.392 83.5151 41.5401 85.5821 39.6863 87.6485L41.9194 89.6518ZM36.1918 92.4876C38.6544 92.4406 40.6699 91.103 41.9394 89.6291L39.6663 87.6713C38.7853 88.6941 37.5162 89.4617 36.1345 89.4881L36.1918 92.4876ZM30.9109 81.885C28.545 83.8256 28.4032 86.7008 29.5922 88.8964C30.7626 91.0576 33.2373 92.6611 36.2505 92.4853L36.0758 89.4904C34.2651 89.5961 32.8659 88.6416 32.2302 87.4677C31.613 86.3281 31.7327 85.091 32.8135 84.2044L30.9109 81.885ZM36.5863 75.5382C34.6374 77.7033 32.6861 79.8712 30.7436 82.0453L32.9807 84.0441C34.919 81.8748 36.8666 79.711 38.8161 77.5452L36.5863 75.5382ZM36.5893 75.5348L36.5879 75.5364L38.8145 77.5469L38.8159 77.5454L36.5893 75.5348ZM46.4823 64.4654C43.2182 68.1703 39.9064 71.8496 36.5877 75.5366L38.8175 77.5436C42.1344 73.8586 45.4568 70.1675 48.7333 66.4486L46.4823 64.4654ZM46.3394 63.5838C46.5827 63.8117 46.6825 64.0437 46.7003 64.1678C46.7041 64.1943 46.7037 64.2117 46.7028 64.2211C46.7021 64.2299 46.7007 64.2342 46.7 64.2362C46.6993 64.238 46.6969 64.2445 46.6885 64.2566C46.6798 64.2689 46.6612 64.2924 46.6247 64.3241L48.5909 66.5899C49.493 65.8071 49.8149 64.7523 49.6698 63.7416C49.5348 62.8009 49.0159 61.9802 48.3901 61.3942L46.3394 63.5838ZM41.0203 57.6722C42.7642 59.6117 44.5075 61.5506 46.2483 63.4907L48.4812 61.4872C46.7392 59.5458 44.9949 57.6057 43.2512 55.6663L41.0203 57.6722ZM41.0157 57.6671L41.0207 57.6726L43.2508 55.6659L43.2459 55.6604L41.0157 57.6671ZM30.5143 45.9547C34.0026 49.8671 37.5102 53.7683 41.0154 57.6667L43.2462 55.6609C39.7403 51.7617 36.2369 47.8652 32.7535 43.9582L30.5143 45.9547ZM32.89 36.4681C28.8376 38.0101 27.4921 43.0148 30.587 46.0307L32.6807 43.8821C31.3421 42.5777 31.7051 40.1288 33.9569 39.2719L32.89 36.4681ZM61.1417 85.2013C61.709 84.9879 62.3842 84.9669 63.3746 84.9598L63.3529 81.9598C62.4712 81.9662 61.2404 81.959 60.0855 82.3934L61.1417 85.2013ZM59.3738 87.2151C59.381 86.5157 59.9633 85.6027 61.0963 85.2175L60.1309 82.3771C58.0234 83.0935 56.3964 84.9834 56.374 87.1845L59.3738 87.2151ZM62.5161 89.5908C61.6774 89.6597 60.8354 89.357 60.2168 88.8441C59.5827 88.3182 59.3452 87.7214 59.3712 87.2902L56.3766 87.1094C56.2774 88.7527 57.1556 90.2029 58.3019 91.1534C59.4638 92.1169 61.0669 92.7199 62.7617 92.5807L62.5161 89.5908ZM84.7837 89.5952C77.4012 89.5991 70.0198 89.6029 62.6424 89.5858L62.6354 92.5857C70.0178 92.6029 77.4035 92.5991 84.7853 92.5952L84.7837 89.5952ZM94.2628 89.5919C91.1034 89.5919 87.9435 89.5936 84.7837 89.5952L84.7853 92.5952C87.9452 92.5936 91.1043 92.5919 94.2628 92.5919V89.5919ZM97.7331 87.2779C97.7777 87.7561 97.5371 88.3639 96.8862 88.8861C96.2456 89.4 95.3451 89.7018 94.4266 89.6009L94.099 92.5829C95.8542 92.7757 97.5389 92.2085 98.7635 91.2262C99.9777 90.2521 100.882 88.7364 100.72 86.9993L97.7331 87.2779ZM94.4134 84.9636C95.2935 84.9053 96.1624 85.1878 96.7982 85.6601C97.442 86.1383 97.7186 86.7016 97.7268 87.1652L100.726 87.112C100.697 85.4827 99.766 84.1275 98.5871 83.2518C97.4001 82.3701 95.8314 81.8632 94.2153 81.9701L94.4134 84.9636ZM78.6578 84.9558C83.8782 84.9518 89.0948 84.9478 94.3089 84.9668L94.3198 81.9668C89.098 81.9478 83.8748 81.9518 78.6555 81.9558L78.6578 84.9558ZM64.0998 84.9485C68.9528 84.9633 73.8069 84.9595 78.6578 84.9558L78.6555 81.9558C73.8037 81.9595 68.9552 81.9633 64.109 81.9485L64.0998 84.9485ZM63.3746 84.9598C63.6201 84.958 63.8861 84.9561 64.1518 84.9477L64.057 81.9492C63.834 81.9563 63.6049 81.958 63.3529 81.9598L63.3746 84.9598Z" fill="url(#paint1_linear_678_244)"/>
<defs>
<linearGradient id="paint0_linear_678_244" x1="27.025" y1="101.095" x2="114.742" y2="9.08075" gradientUnits="userSpaceOnUse">
<stop stop-color="#FE0844"/>
<stop offset="1" stop-color="#FEB302"/>
</linearGradient>
<linearGradient id="paint1_linear_678_244" x1="27.025" y1="101.095" x2="114.742" y2="9.08075" gradientUnits="userSpaceOnUse">
<stop stop-color="#FE0844"/>
<stop offset="1" stop-color="#FEB302"/>
</linearGradient>
</defs>
</svg>
