<svg width="128" height="128" viewBox="0 0 128 128" fill="none" xmlns="http://www.w3.org/2000/svg">
<path d="M120.1 87.6H77.9838C85.5056 80.2231 90.2 69.9644 90.2 58.6C90.2 36.1794 72.0206 18 49.6 18C27.1794 18 9 36.1794 9 58.6C9 81.0206 27.1794 99.2 49.6 99.2H120.1C121.695 99.2 123 97.895 123 96.3V90.5C123 88.905 121.695 87.6 120.1 87.6ZM44.5 87.6C34.8937 87.6 24 72.1062 24 62.5C24 52.8938 39.9938 41.2 49.6 41.2C59.2063 41.2 67 48.9937 67 58.6C67 68.2062 54.1063 87.6 44.5 87.6Z" fill="url(#paint0_linear_573_28)"/>
<path d="M119.1 92.6H74.9838C82.5056 85.2231 87.2 74.9644 87.2 63.6C87.2 41.1794 69.0206 23 46.6 23C24.1794 23 6 41.1794 6 63.6C6 86.0206 24.1794 104.2 46.6 104.2H119.1C120.695 104.2 122 102.895 122 101.3V95.5C122 93.905 120.695 92.6 119.1 92.6ZM46.6 81C36.9938 81 29.2 73.2062 29.2 63.6C29.2 53.9937 36.9938 46.2 46.6 46.2C56.2063 46.2 64 53.9937 64 63.6C64 73.2062 56.2063 81 46.6 81Z" fill="url(#paint1_linear_573_28)"/>
<defs>
<linearGradient id="paint0_linear_573_28" x1="66" y1="90.3259" x2="66" y2="18" gradientUnits="userSpaceOnUse">
<stop stop-color="#FFE59A"/>
<stop offset="1" stop-color="#FFFFD5"/>
</linearGradient>
<linearGradient id="paint1_linear_573_28" x1="64" y1="104.2" x2="64" y2="23" gradientUnits="userSpaceOnUse">
<stop stop-color="#FD5900"/>
<stop offset="1" stop-color="#FFDE00"/>
</linearGradient>
</defs>
</svg>
