<svg width="192" height="192" viewBox="0 0 192 192" fill="none" xmlns="http://www.w3.org/2000/svg">
<path d="M74.5845 8.46294C90.9095 6.62396 107.849 10.2795 121.751 19.1492C124.553 21.0667 127.87 22.7038 129.444 25.8884C130.941 31.282 124.788 36.6981 119.931 33.3565C110.484 26.3482 99.2061 21.7844 87.4368 20.9994C85.4046 18.8913 83.2383 16.8954 80.6589 15.4713C77.8338 13.9463 76.3376 10.9972 74.5845 8.46294Z" fill="#FF7C3B"/>
<path d="M46.0103 18.0728C54.7534 12.9707 64.5239 9.66278 74.5847 8.46295C76.3378 10.9972 77.8341 13.9463 80.6592 15.4713C83.2386 16.8954 85.4048 18.8913 87.4371 20.9994C76.2931 20.1696 64.9594 22.5469 55.0773 27.7723C52.4197 24.1504 47.808 22.3675 46.0103 18.0728Z" fill="#FF7642"/>
<path d="M15.3811 53.4619C21.489 38.7725 32.3873 26.2136 46.0101 18.0727C47.8079 22.3674 52.4196 24.1504 55.0771 27.7723C41.499 34.96 30.7794 47.4404 25.8662 62.0625C24.5263 60.2348 22.8178 58.8219 20.4394 59.0125C19.2111 56.7811 17.8488 54.5048 15.3811 53.4619Z" fill="#FF6E4C"/>
<path opacity="0.13" d="M55.0772 27.7722C64.9594 22.5468 76.2931 20.1696 87.437 20.9994C99.2063 21.7843 110.484 26.3482 119.931 33.3565C124.788 36.698 130.941 31.282 129.444 25.8884C132.873 29.8916 128.797 36.5074 123.873 36.4289C119.239 36.7093 115.688 33.2668 111.846 31.2484C96.6269 22.3114 77.2757 21.2685 61.0177 27.9292C39.5115 36.485 24.0797 58.7098 24.3253 82.0559C24.1355 85.5656 24.9618 89.2548 23.6219 92.6076C21.6566 82.4708 22.5387 71.8293 25.8663 62.0625C30.7794 47.4404 41.499 34.96 55.0772 27.7722Z" fill="black"/>
<path opacity="0.13" d="M181.859 90.948C183.858 93.3701 182.987 97.1265 181.401 99.5598C168.973 117.299 156.422 134.949 143.916 152.644C137.004 161.794 131.186 171.785 123.683 180.486C120.199 185.196 111.4 183.222 110.641 177.268C110.719 175.508 109.658 172.469 111.891 171.751C111.188 174.454 111.545 177.683 113.957 179.421C116.737 181.697 121.26 180.98 123.18 177.918C130.941 167.098 138.579 156.187 146.294 145.321C157.628 129.253 169.04 113.24 180.374 97.1714C181.803 95.4221 182.038 93.1234 181.859 90.948Z" fill="black"/>
<path d="M81.7757 29.8916C89.4804 26.7743 98.2013 34.9712 95.5884 42.8766C93.8911 50.6586 82.9482 53.4507 77.6665 47.575C72.1839 42.3944 74.5288 32.067 81.7757 29.8916Z" fill="#2BC882"/>
<path d="M43.7659 48.9766C51.4371 45.8257 60.1691 53.9329 57.6455 61.8495C56.0488 69.3064 45.8763 72.4012 40.3602 67.2319C34.174 62.3429 36.2063 51.2529 43.7659 48.9766Z" fill="#FF4A7B"/>
<path d="M15.3809 53.4619C17.8487 54.5048 19.211 56.7811 20.4392 59.0125C22.8177 58.8219 24.5261 60.2348 25.866 62.0626C22.5385 71.8293 21.6564 82.4708 23.6216 92.6076C28.2221 119.217 50.8673 142.092 77.845 145.243C80.9269 150.536 85.3264 154.763 90.6638 157.734C72.6527 160.246 54.1278 153.956 39.9467 142.854C16.799 125.014 4.85115 93.4037 11.8189 64.7313C12.6787 60.8739 13.9851 57.1399 15.3809 53.4619Z" fill="#FF635A"/>
<path d="M141.068 64.0361C140.376 59.248 146.093 55.4131 150.27 57.7903C154.68 60.2124 154.234 66.1106 155.361 70.3492C156.042 76.4268 157.014 82.796 155.183 88.7614C153.876 92.9664 151.096 96.5659 147.701 99.3019C143.994 96.8911 141.191 93.4037 140.287 88.9857C141.549 87.4607 143.023 85.9132 143.313 83.85C143.994 77.1669 142.453 70.5398 141.068 64.0361Z" fill="#FF7A3D"/>
<path opacity="0.11" d="M10.4233 64.4734L11.8191 64.7313C4.85133 93.4038 16.7992 125.014 39.9469 142.854C54.128 153.956 72.6528 160.246 90.664 157.734C98.9159 156.254 108.586 154.729 113.242 146.768C116.614 141.128 117.564 134.254 116.179 127.851C116.592 128.008 117.418 128.333 117.843 128.49C118.289 133.794 119.116 139.502 116.693 144.469C115.04 149.089 111.444 152.644 107.726 155.66C86.2757 166.077 59.9791 160.941 41.2198 147.138C20.2943 132.258 7.56473 106.568 8.01138 80.8897C8.98284 75.44 8.71485 69.7885 10.4233 64.4734Z" fill="black"/>
<path opacity="0.12" d="M155.361 70.3492L156.857 70.0352C156.88 74.0608 157.907 77.9854 158.197 81.9774C157.661 85.6441 157.014 89.3445 155.774 92.8431C151.888 101.04 143.112 106.86 133.955 106.344C127.345 105.615 121.181 102.935 114.749 101.432C111.578 100.591 108.016 102.128 106.252 104.853C105.314 107.802 106.475 110.852 106.821 113.801C102.701 110.538 102.556 104.337 105.984 100.524C111.679 95.1979 119.171 100.233 125.424 101.567C132.694 104.426 141.325 104.135 147.701 99.3019C151.096 96.5659 153.876 92.9664 155.183 88.7614C157.014 82.7959 156.042 76.4268 155.361 70.3492Z" fill="black"/>
<path d="M97.3528 91.0826C102.043 86.7879 108.519 84.3882 114.884 85.3526C121.383 86.4964 127.513 89.1651 133.967 90.5219C136.211 90.9592 138.311 89.9052 140.287 88.9857C141.192 93.4037 143.994 96.8911 147.701 99.3019C141.326 104.135 132.694 104.426 125.425 101.567C119.172 100.233 111.679 95.1979 105.984 100.524C103.215 97.2723 100.658 93.8074 97.3528 91.0826Z" fill="#FF7445"/>
<path d="M170.257 89.3109C173.049 84.848 180.173 86.1375 181.859 90.948C182.037 93.1234 181.803 95.4221 180.374 97.1714C169.04 113.24 157.628 129.253 146.294 145.321C143 142.552 139.851 139.625 136.591 136.822C147.835 121 158.979 105.099 170.257 89.3109Z" fill="#CB5CF1"/>
<path d="M42.705 90.4434C50.4097 87.3261 59.1194 95.5343 56.4953 103.44C54.8427 110.818 44.7707 113.857 39.2769 108.755C33.0461 103.866 35.0784 92.6973 42.705 90.4434Z" fill="#FF6755"/>
<path d="M92.5845 115.584C88.7657 107.42 91.1329 97.3845 97.3525 91.0826C100.658 93.8074 103.215 97.2723 105.984 100.524C102.556 104.337 102.701 110.538 106.821 113.801C110.998 117.647 114.973 122.11 116.179 127.851C117.563 134.254 116.614 141.128 113.242 146.768C110.54 142.843 106.9 139.737 104.008 135.981C104.22 133.076 104.086 129.836 102.143 127.481C98.8488 123.624 94.5498 120.439 92.5845 115.584Z" fill="#FF6D4E"/>
<path d="M72.8874 115.101C80.1454 112.231 88.5313 119.351 86.8787 126.999C85.9854 135.005 75.2434 138.862 69.4258 133.413C63.1839 128.513 65.2608 117.344 72.8874 115.101Z" fill="#B856EE"/>
<path d="M104.008 135.981C106.9 139.737 110.54 142.843 113.242 146.768C108.586 154.729 98.9159 156.254 90.6641 157.734C85.3266 154.763 80.9271 150.536 77.8452 145.243C85.0363 146.162 92.2497 144.693 99.1058 142.597C102.02 141.733 103.193 138.616 104.008 135.981Z" fill="#FF6754"/>
<path d="M111.891 171.751C120.087 160.078 128.361 148.461 136.591 136.822C139.851 139.625 143 142.552 146.294 145.321C138.578 156.187 130.941 167.098 123.18 177.918C121.259 180.98 116.737 181.697 113.957 179.421C111.545 177.683 111.187 174.454 111.891 171.751Z" fill="#BB57EF"/>
</svg>
