<svg width="128" height="128" viewBox="0 0 128 128" fill="none" xmlns="http://www.w3.org/2000/svg">
<path d="M32 62C32 63.1046 32.8955 64 34 64H64C65.4145 64 66.7711 64.5619 67.7713 65.5621C68.7715 66.5623 69.3334 67.9189 69.3334 69.3334V83.3334C69.3334 84.4379 70.2288 85.3334 71.3334 85.3334H72.6667C73.7713 85.3334 74.6667 86.2288 74.6667 87.3334V115.333C74.6667 116.438 73.7713 117.333 72.6667 117.333H55.3334C54.2288 117.333 53.3334 116.438 53.3334 115.333V87.3334C53.3334 86.2288 54.2288 85.3334 55.3334 85.3334H56.6667C57.7713 85.3334 58.6667 84.4379 58.6667 83.3334V76.6667C58.6667 75.5621 57.7713 74.6667 56.6667 74.6667H26.6667C25.2522 74.6667 23.8957 74.1048 22.8955 73.1046C21.8953 72.1044 21.3334 70.7478 21.3334 69.3334V60.6667C21.3334 59.5621 22.2288 58.6667 23.3334 58.6667H30C31.1046 58.6667 32 59.5621 32 60.6667V62ZM94.5707 73.2374L102.586 65.2222C103.367 64.4412 104.633 64.4412 105.414 65.2222L113.429 73.2374C115.294 75.1022 116.563 77.478 117.077 80.0643C117.592 82.6506 117.327 85.3313 116.318 87.7675C115.309 90.2036 113.6 92.2858 111.407 93.7507C109.215 95.2156 106.637 95.9975 104 95.9975C101.363 95.9975 98.7854 95.2156 96.5928 93.7507C94.4002 92.2858 92.6913 90.2036 91.682 87.7675C90.6727 85.3313 90.4085 82.6506 90.9226 80.0643C91.4368 77.478 92.7064 75.1022 94.5707 73.2374Z" fill="url(#paint0_linear_603_4)"/>
<path fill-rule="evenodd" clip-rule="evenodd" d="M21.3333 16H106.667C108.081 16 109.438 16.5619 110.438 17.5621C111.438 18.5623 112 19.9188 112 21.3333V48C112 49.4145 111.438 50.771 110.438 51.7712C109.438 52.7714 108.081 53.3333 106.667 53.3333H21.3333C19.9188 53.3333 18.5623 52.7714 17.5621 51.7712C16.5619 50.771 16 49.4145 16 48V21.3333C16 19.9188 16.5619 18.5623 17.5621 17.5621C18.5623 16.5619 19.9188 16 21.3333 16ZM26.6666 28.6667V40.6667C26.6666 41.7713 27.5621 42.6667 28.6666 42.6667H99.3333C100.438 42.6667 101.333 41.7713 101.333 40.6667V28.6667C101.333 27.5621 100.438 26.6667 99.3333 26.6667H28.6666C27.5621 26.6667 26.6666 27.5621 26.6666 28.6667Z" fill="url(#paint1_linear_603_4)"/>
<defs>
<linearGradient id="paint0_linear_603_4" x1="31.5" y1="65.5" x2="95" y2="91.5" gradientUnits="userSpaceOnUse">
<stop stop-color="#A93AFF"/>
<stop offset="1" stop-color="#FF81FF"/>
</linearGradient>
<linearGradient id="paint1_linear_603_4" x1="35" y1="20" x2="112" y2="43.5" gradientUnits="userSpaceOnUse">
<stop stop-color="#FD5900"/>
<stop offset="1" stop-color="#FFDE00"/>
</linearGradient>
</defs>
</svg>
