<svg width="512" height="512" viewBox="0 0 512 512" fill="none" xmlns="http://www.w3.org/2000/svg">
<g clip-path="url(#clip0_575_33)">
<path d="M510.95 409.834L479.323 267.218C470.293 217.238 426.893 181 376 181C359.368 181 343.454 184.78 328.701 192.235C309.242 202.068 289.898 208.056 271 210.147V166C271 157.729 277.729 151 286 151H346C370.813 151 391 130.813 391 106C391 81.187 370.813 61 346 61H166C157.729 61 151 54.271 151 46C151 37.716 144.284 31 136 31C127.716 31 121 37.716 121 46C121 70.813 141.187 91 166 91H346C354.271 91 361 97.729 361 106C361 114.271 354.271 121 346 121H286C261.187 121 241 141.187 241 166V210.146C222.102 208.055 202.757 202.067 183.296 192.233C168.543 184.78 152.63 181 136 181C85.107 181 41.707 217.238 32.678 267.218L1.05 409.834C0.56 412.032 0 416.558 0 421C0 454.084 26.916 481 60 481C86.33 481 89.907 474.949 164.936 408.512C173.02 416.239 183.961 421 196 421C215.555 421 232.228 408.458 238.42 391H273.581C279.773 408.458 296.446 421 316.001 421C328.04 421 338.981 416.239 347.065 408.512C422.08 474.94 425.578 481 452 481C485.084 481 512 454.084 512 421C512 416.748 511.468 412.157 510.95 409.834V409.834ZM211 376.005C210.997 384.274 204.27 391 196 391C187.729 391 181 384.271 181 376C181 367.729 187.729 361 196 361C204.269 361 210.997 367.727 211 375.995V376C211 376 211 376.003 211 376.005ZM316 391C307.731 391 301.003 384.273 301 376.005C301 376.003 301 376.002 301 376C301 375.998 301 375.997 301 375.995C301.003 367.726 307.73 361 316 361C324.271 361 331 367.729 331 376C331 384.271 324.271 391 316 391ZM452 451C438.092 451 439.872 450.486 360.768 380.583C360.921 379.076 361 377.547 361 376C361 351.187 340.813 331 316 331C296.445 331 279.772 343.542 273.58 361H238.42C232.228 343.542 215.555 331 196 331C171.187 331 151 351.187 151 376C151 377.546 151.079 379.075 151.232 380.582C72.504 450.143 73.942 451 60 451C43.458 451 30 437.542 30 421C30 419.315 30.14 417.63 30.415 415.985C30.415 415.985 62.121 272.995 62.158 272.785C68.513 236.984 99.568 211 136 211C147.887 211 159.248 213.695 169.767 219.01C198.645 233.602 227.658 241 256 241H256.001C284.344 241 313.356 233.602 342.232 219.011C352.75 213.695 364.112 211 376 211C412.432 211 443.487 236.984 449.842 272.786C449.879 272.995 449.921 273.204 449.967 273.412L481.585 415.986C481.86 417.63 482 419.315 482 421C482 437.542 468.542 451 452 451V451ZM166 271H151V256C151 247.716 144.284 241 136 241C127.716 241 121 247.716 121 256V271H106C97.716 271 91 277.716 91 286C91 294.284 97.716 301 106 301H121V316C121 324.284 127.716 331 136 331C144.284 331 151 324.284 151 316V301H166C174.284 301 181 294.284 181 286C181 277.716 174.284 271 166 271ZM406 271H391V256C391 247.716 384.284 241 376 241C367.716 241 361 247.716 361 256V271H346C337.716 271 331 277.716 331 286C331 294.284 337.716 301 346 301H361V316C361 324.284 367.716 331 376 331C384.284 331 391 324.284 391 316V301H406C414.284 301 421 294.284 421 286C421 277.716 414.284 271 406 271ZM226 271C217.716 271 211 277.716 211 286C211 294.284 217.716 301 226 301C234.284 301 241 294.284 241 286C241 277.716 234.284 271 226 271ZM286 271C277.716 271 271 277.716 271 286C271 294.284 277.716 301 286 301C294.284 301 301 294.284 301 286C301 277.716 294.284 271 286 271Z" fill="url(#paint0_linear_575_33)"/>
</g>
<defs>
<linearGradient id="paint0_linear_575_33" x1="256" y1="481" x2="256" y2="31" gradientUnits="userSpaceOnUse">
<stop stop-color="#8D00FA"/>
<stop offset="1" stop-color="#FF00FF"/>
</linearGradient>
<clipPath id="clip0_575_33">
<rect width="512" height="512" fill="white"/>
</clipPath>
</defs>
</svg>
