<svg width="24" height="24" viewBox="0 0 24 24" fill="none" xmlns="http://www.w3.org/2000/svg">
<path d="M10.6231 22.9962H4.20798C3.60029 22.9956 3.01765 22.7539 2.58794 22.3242C2.15824 21.8945 1.91657 21.3119 1.91599 20.7042V10.0361C1.48198 9.72808 1.17599 9.27161 1.05599 8.75312C0.935998 8.23463 1.01033 7.69013 1.26491 7.22278C2.25473 5.45429 3.26435 3.7111 4.25748 2.0405C4.45328 1.71989 4.72886 1.45551 5.05731 1.27317C5.38577 1.09082 5.75588 0.996734 6.13154 1.00009C6.59786 1.00449 7.05098 1.15296 7.42931 1.42351L7.45571 1.44001C7.90882 1.70396 12.286 4.3094 15.8043 6.40232L18.9278 8.25879L19.0707 8.34348C20.0792 8.93599 21.0852 9.53282 22.0886 10.134C22.5223 10.441 22.8275 10.8973 22.9458 11.4153C23.0641 11.9334 22.9872 12.4769 22.7298 12.9418C21.7587 14.6762 20.7501 16.4193 19.7383 18.124C19.5449 18.4413 19.2737 18.704 18.9503 18.887C18.627 19.0701 18.2622 19.1675 17.8906 19.1699C17.7411 19.1699 17.5937 19.1535 17.4507 19.1205C17.322 19.1963 16.6182 19.6484 15.7262 20.2203C14.1392 21.2376 11.9704 22.6288 11.7196 22.7575C11.3813 22.9317 11.0032 23.014 10.6231 22.9962ZM3.74937 13.1309V20.7042C3.74937 20.9571 3.95503 21.1628 4.20798 21.1628H8.41253C6.8349 18.4991 5.28045 15.8217 3.74937 13.1309ZM5.2429 12.0311C5.68282 12.7867 10.4296 20.9747 10.4692 21.0297C10.5168 21.0919 10.585 21.1351 10.6615 21.1517C10.7381 21.1682 10.8181 21.1569 10.8871 21.1199C11.0345 21.0363 15.4986 18.168 15.5426 18.1394C15.1972 17.936 12.6985 16.4468 10.0523 14.8708L5.2209 11.9981L5.2286 12.0102L5.2396 12.0289V12.0355L5.2429 12.0311ZM5.76421 3.08971C4.87556 4.51946 2.88712 8.06963 2.86072 8.13452C2.82916 8.20992 2.82556 8.29412 2.85056 8.37195C2.87556 8.44978 2.92753 8.51612 2.9971 8.55904C3.14337 8.64592 17.6839 17.3091 17.8225 17.3311C17.84 17.3324 17.8577 17.3324 17.8752 17.3311C17.934 17.3313 17.9918 17.3163 18.0431 17.2876C18.0943 17.2589 18.1373 17.2174 18.1678 17.1672C19.1665 15.4627 20.1542 13.7518 21.1307 12.0344C21.1615 11.9586 21.1646 11.8744 21.1395 11.7966C21.1144 11.7187 21.0625 11.6522 20.9932 11.6088C20.8535 11.5252 6.3405 2.90055 6.24702 2.85986C6.17281 2.82891 6.09013 2.82484 6.01323 2.84833C5.93634 2.87182 5.87005 2.9214 5.8258 2.98853L5.8181 3.00173L5.8093 3.01493L5.7961 3.03692V3.04242L5.7796 3.06882L5.76421 3.08971Z" fill="url(#paint0_linear)"/>
<path d="M6.23511 8.8186C6.53619 9.01987 6.89016 9.1274 7.25231 9.12762V9.12432C7.73837 9.12374 8.20436 8.9304 8.54806 8.5867C8.89176 8.243 9.0851 7.77701 9.08569 7.29095C9.08482 6.92879 8.97664 6.57502 8.77483 6.27431C8.57302 5.97359 8.28662 5.73943 7.9518 5.60139C7.61699 5.46336 7.24877 5.42763 6.89367 5.49874C6.53856 5.56984 6.21249 5.74459 5.95664 6.0009C5.70079 6.25721 5.52663 6.5836 5.45616 6.93883C5.3857 7.29406 5.42208 7.66221 5.56072 7.99678C5.69936 8.33135 5.93404 8.61733 6.23511 8.8186Z" fill="url(#paint1_linear)"/>
<defs>
<linearGradient id="paint0_linear" x1="14.1975" y1="5.39932" x2="2.64982" y2="22.4464" gradientUnits="userSpaceOnUse">
<stop offset="0.0729167" stop-color="#93D83C"/>
<stop offset="0.338542" stop-color="#DEE200"/>
<stop offset="0.630208" stop-color="#FF912B"/>
<stop offset="1" stop-color="#BD00FF"/>
</linearGradient>
<linearGradient id="paint1_linear" x1="7.25341" y1="9.12762" x2="7.25341" y2="5.46307" gradientUnits="userSpaceOnUse">
<stop stop-color="#FD5900"/>
<stop offset="1" stop-color="#FFDE00"/>
</linearGradient>
</defs>
</svg>
