<svg width="192" height="192" viewBox="0 0 192 192" fill="none" xmlns="http://www.w3.org/2000/svg">
<path d="M32.8174 12.512C40.6494 11.8841 48.5224 11.9737 56.3967 12.0634C61.1812 12.1179 65.9662 12.1724 70.7427 12.0659C73.7551 11.7373 76.8381 13.9087 77.3676 16.9135C78.2502 20.4113 75.4261 24.2377 71.8136 24.3551C66.5635 24.4557 61.309 24.427 56.0548 24.3983C49.0502 24.3599 42.046 24.3217 35.0535 24.5899C29.4876 25.7871 25.122 31.0573 25.3691 36.7969C25.4098 52.0084 25.3897 67.2242 25.3695 82.4393V82.4404C25.3372 106.777 25.3049 131.115 25.5221 155.439L25.5222 155.44C26.5695 160.734 31.2881 165.053 36.7363 165.311C39.1908 165.347 41.6481 165.338 44.1055 165.329C46.5491 165.32 48.9929 165.311 51.4336 165.346C63.9655 165.311 76.4975 165.323 89.0294 165.346C100.502 165.323 111.963 165.323 123.436 165.346C130.759 165.321 138.082 165.326 145.409 165.331H145.417C148.401 165.333 151.386 165.335 154.372 165.335C156.49 165.429 158.49 164.689 160.42 163.891C164.197 161.649 166.81 157.459 166.668 153.01C166.628 137.807 166.648 122.602 166.668 107.398V107.395C166.701 83.0189 166.733 58.6431 166.516 34.2768L166.516 34.2733C165.468 29.0149 160.797 24.719 155.396 24.4256C149.523 24.3903 143.653 24.3962 137.784 24.4021H137.781C131.915 24.4079 126.052 24.4138 120.188 24.3786C117.682 24.3669 115.176 22.7119 114.47 20.2822C112.846 16.5966 116.046 11.9955 120.059 12.0777C124.54 12.0949 129.022 12.0837 133.506 12.0724H133.508C141.233 12.053 148.962 12.0336 156.69 12.1598C168.61 12.9228 178.742 23.5335 179.024 35.4354C179.024 39.1288 179.025 42.8213 179.027 46.5134V46.5368C179.032 55.8374 179.037 65.1353 179.012 74.4392C179.047 86.5406 179.036 98.642 179.012 110.755C179.036 122.516 179.036 134.277 179.024 146.038C179.377 153.585 179.118 161.802 174.105 167.964C172.14 170.347 169.881 172.53 167.198 174.114C163.327 176.438 158.808 177.706 154.278 177.6C149.58 177.593 144.877 177.595 140.172 177.598H140.145C137.788 177.599 135.431 177.6 133.073 177.6C128.594 177.596 124.113 177.599 119.632 177.601C112.811 177.606 105.99 177.61 99.1726 177.589C90.4236 177.606 81.6747 177.604 72.9208 177.602L72.7409 177.601C69.7928 177.601 66.8441 177.6 63.8947 177.6C60.025 177.595 56.1546 177.597 52.284 177.598H52.2506C47.0227 177.6 41.7932 177.602 36.5598 177.589C29.3112 177.436 22.3922 173.68 17.9678 167.999C14.6965 163.703 12.9314 158.327 13.002 152.94C13.0128 149.358 13.0113 145.779 13.0099 142.201L13.0099 142.199C13.0081 137.911 13.0064 133.624 13.0256 129.337L13.0253 129.336C13.0001 114.787 13.0049 100.231 13.0097 85.6786L13.0107 82.6359C13.0124 77.8335 13.014 73.0314 13.014 68.23C13.0062 60.8872 13.0088 53.5495 13.0114 46.2101L13.0114 46.197C13.0127 42.5245 13.0137 38.8514 13.0137 35.1771C13.4609 24.2848 22.0271 14.4018 32.8174 12.512Z" fill="url(#paint0_linear_637_85)"/>
<path d="M53.1282 78.7351C48.3272 77.3031 43.8204 82.7142 45.8562 87.2096C46.8093 88.6181 47.9272 90.0149 49.6216 90.5431C57.5997 93.7827 65.5778 97.0105 73.5677 100.238C72.5804 100.637 71.5948 101.04 70.609 101.444L70.6042 101.446C69.042 102.084 67.4791 102.723 65.9073 103.349C60.2708 105.602 54.6336 107.868 49.0207 110.192C46.8673 111.084 45.5141 113.373 45.3964 115.65C45.3258 119.535 49.2443 122.845 53.0803 121.753C57.6416 120.02 62.1531 118.178 66.6633 116.337C69.0877 115.347 71.5129 114.357 73.9442 113.384C78.0869 111.707 82.2297 110.035 86.3691 108.364L86.4093 108.347C88.5703 107.475 90.7305 106.603 92.8892 105.731C95.525 104.722 96.6547 101.635 96.2546 99.0059C95.8545 97.2452 94.7602 95.4494 93.0069 94.7803C87.1844 92.4664 81.3821 90.1077 75.5804 87.7491C68.1093 84.712 60.6393 81.6752 53.1282 78.7351Z" fill="url(#paint1_linear_637_85)"/>
<path d="M103.715 131.448C98.8074 130.944 95.195 137.012 98.0544 141.038C99.49 142.611 101.385 143.949 103.632 143.679C108.03 143.675 112.428 143.685 116.826 143.695H116.831C126.715 143.716 136.599 143.738 146.476 143.608C152.56 142.259 152.301 132.587 146.123 131.601C137.118 131.354 128.1 131.394 119.082 131.433C113.958 131.456 108.835 131.478 103.715 131.448Z" fill="url(#paint2_linear_637_85)"/>
<path d="M32.8174 12.512C40.6494 11.8841 48.5224 11.9737 56.3967 12.0634C61.1812 12.1179 65.9662 12.1724 70.7427 12.0659C73.7551 11.7373 76.8381 13.9087 77.3676 16.9135C78.2502 20.4113 75.4261 24.2377 71.8136 24.3551C66.5635 24.4557 61.309 24.427 56.0548 24.3983C49.0502 24.3599 42.046 24.3217 35.0535 24.5899C29.4876 25.7871 25.122 31.0573 25.3691 36.7969C25.4098 52.0084 25.3897 67.2242 25.3695 82.4393V82.4404C25.3372 106.777 25.3049 131.115 25.5221 155.439L25.5222 155.44C26.5695 160.734 31.2881 165.053 36.7363 165.311C39.1908 165.347 41.6481 165.338 44.1055 165.329C46.5491 165.32 48.9929 165.311 51.4336 165.346C63.9655 165.311 76.4975 165.323 89.0294 165.346C100.502 165.323 111.963 165.323 123.436 165.346C130.759 165.321 138.082 165.326 145.409 165.331H145.417C148.401 165.333 151.386 165.335 154.372 165.335C156.49 165.429 158.49 164.689 160.42 163.891C164.197 161.649 166.81 157.459 166.668 153.01C166.628 137.807 166.648 122.602 166.668 107.398V107.395C166.701 83.0189 166.733 58.6431 166.516 34.2768L166.516 34.2733C165.468 29.0149 160.797 24.719 155.396 24.4256C149.523 24.3903 143.653 24.3962 137.784 24.4021H137.781C131.915 24.4079 126.052 24.4138 120.188 24.3786C117.682 24.3669 115.176 22.7119 114.47 20.2822C112.846 16.5966 116.046 11.9955 120.059 12.0777C124.54 12.0949 129.022 12.0837 133.506 12.0724H133.508C141.233 12.053 148.962 12.0336 156.69 12.1598C168.61 12.9228 178.742 23.5335 179.024 35.4354C179.024 39.1288 179.025 42.8213 179.027 46.5134V46.5368C179.032 55.8374 179.037 65.1353 179.012 74.4392C179.047 86.5406 179.036 98.642 179.012 110.755C179.036 122.516 179.036 134.277 179.024 146.038C179.377 153.585 179.118 161.802 174.105 167.964C172.14 170.347 169.881 172.53 167.198 174.114C163.327 176.438 158.808 177.706 154.278 177.6C149.58 177.593 144.877 177.595 140.172 177.598H140.145C137.788 177.599 135.431 177.6 133.073 177.6C128.594 177.596 124.113 177.599 119.632 177.601C112.811 177.606 105.99 177.61 99.1726 177.589C90.4236 177.606 81.6747 177.604 72.9208 177.602L72.7409 177.601C69.7928 177.601 66.8441 177.6 63.8947 177.6C60.025 177.595 56.1546 177.597 52.284 177.598H52.2506C47.0227 177.6 41.7932 177.602 36.5598 177.589C29.3112 177.436 22.3922 173.68 17.9678 167.999C14.6965 163.703 12.9314 158.327 13.002 152.94C13.0128 149.358 13.0113 145.779 13.0099 142.201L13.0099 142.199C13.0081 137.911 13.0064 133.624 13.0256 129.337L13.0253 129.336C13.0001 114.787 13.0049 100.231 13.0097 85.6786L13.0107 82.6359C13.0124 77.8335 13.014 73.0314 13.014 68.23C13.0062 60.8872 13.0088 53.5495 13.0114 46.2101L13.0114 46.197C13.0127 42.5245 13.0137 38.8514 13.0137 35.1771C13.4609 24.2848 22.0271 14.4018 32.8174 12.512Z" stroke="url(#paint3_linear_637_85)" stroke-width="3"/>
<path d="M53.1282 78.7351C48.3272 77.3031 43.8204 82.7142 45.8562 87.2096C46.8093 88.6181 47.9272 90.0149 49.6216 90.5431C57.5997 93.7827 65.5778 97.0105 73.5677 100.238C72.5804 100.637 71.5948 101.04 70.609 101.444L70.6042 101.446C69.042 102.084 67.4791 102.723 65.9073 103.349C60.2708 105.602 54.6336 107.868 49.0207 110.192C46.8673 111.084 45.5141 113.373 45.3964 115.65C45.3258 119.535 49.2443 122.845 53.0803 121.753C57.6416 120.02 62.1531 118.178 66.6633 116.337C69.0877 115.347 71.5129 114.357 73.9442 113.384C78.0869 111.707 82.2297 110.035 86.3691 108.364L86.4093 108.347C88.5703 107.475 90.7305 106.603 92.8892 105.731C95.525 104.722 96.6547 101.635 96.2546 99.0059C95.8545 97.2452 94.7602 95.4494 93.0069 94.7803C87.1844 92.4664 81.3821 90.1077 75.5804 87.7491C68.1093 84.712 60.6393 81.6752 53.1282 78.7351Z" stroke="url(#paint4_linear_637_85)" stroke-width="3"/>
<path d="M103.715 131.448C98.8074 130.944 95.195 137.012 98.0544 141.038C99.49 142.611 101.385 143.949 103.632 143.679C108.03 143.675 112.428 143.685 116.826 143.695H116.831C126.715 143.716 136.599 143.738 146.476 143.608C152.56 142.259 152.301 132.587 146.123 131.601C137.118 131.354 128.1 131.394 119.082 131.433C113.958 131.456 108.835 131.478 103.715 131.448Z" stroke="url(#paint5_linear_637_85)" stroke-width="3"/>
<defs>
<linearGradient id="paint0_linear_637_85" x1="96.0656" y1="177.606" x2="96.0656" y2="11.9998" gradientUnits="userSpaceOnUse">
<stop stop-color="#5570FF"/>
<stop offset="1" stop-color="#4DD3FF"/>
</linearGradient>
<linearGradient id="paint1_linear_637_85" x1="96.0656" y1="177.606" x2="96.0656" y2="11.9998" gradientUnits="userSpaceOnUse">
<stop stop-color="#5570FF"/>
<stop offset="1" stop-color="#4DD3FF"/>
</linearGradient>
<linearGradient id="paint2_linear_637_85" x1="96.0656" y1="177.606" x2="96.0656" y2="11.9998" gradientUnits="userSpaceOnUse">
<stop stop-color="#5570FF"/>
<stop offset="1" stop-color="#4DD3FF"/>
</linearGradient>
<linearGradient id="paint3_linear_637_85" x1="96.0657" y1="177.606" x2="96.0657" y2="11.9998" gradientUnits="userSpaceOnUse">
<stop stop-color="#5570FF"/>
<stop offset="1" stop-color="#4DD3FF"/>
</linearGradient>
<linearGradient id="paint4_linear_637_85" x1="96.0657" y1="177.606" x2="96.0657" y2="11.9998" gradientUnits="userSpaceOnUse">
<stop stop-color="#5570FF"/>
<stop offset="1" stop-color="#4DD3FF"/>
</linearGradient>
<linearGradient id="paint5_linear_637_85" x1="96.0657" y1="177.606" x2="96.0657" y2="11.9998" gradientUnits="userSpaceOnUse">
<stop stop-color="#5570FF"/>
<stop offset="1" stop-color="#4DD3FF"/>
</linearGradient>
</defs>
</svg>
