<svg width="64" height="64" viewBox="0 0 64 64" fill="none" xmlns="http://www.w3.org/2000/svg">
<g clip-path="url(#clip0_637_230)">
<path d="M24.7102 3.81388C25.5644 1.79094 27.7869 0.630023 29.811 1.10652C39.5918 2.89554 49.3685 4.69322 59.1453 6.50391C61.6147 6.86345 63.4325 9.63146 62.9102 12.2435C61.218 22.8217 59.5299 33.4042 57.7931 43.9738C57.2992 46.9021 54.2104 48.4615 51.6599 47.6341C51.6559 46.014 51.6559 44.394 51.6639 42.7739C52.5384 42.462 53.5666 41.9898 53.6112 40.8333C55.0929 31.9314 56.4734 23.008 57.9429 14.1019C58.1008 13.1532 58.2263 11.9273 57.3195 11.3512C56.4895 10.9309 55.5503 10.8617 54.6597 10.6754C46.9072 9.27191 39.1587 7.82944 31.4061 6.39995C30.5479 6.23101 29.4467 6.10106 28.9043 7.01073C28.3659 8.18464 28.3415 9.53615 28.0784 10.7924C26.7627 11.0089 25.447 11.2299 24.1435 11.5114C23.86 11.5201 23.2892 11.5461 23.0059 11.5547C24.1151 9.15929 23.7669 6.28732 24.7102 3.81388Z" fill="url(#paint0_linear_637_230)" stroke="url(#paint1_linear_637_230)"/>
<path fill-rule="evenodd" clip-rule="evenodd" d="M30.8705 10.3214C29.9412 10.4915 29.012 10.6616 28.0782 10.7924C26.7626 11.0089 25.4468 11.2299 24.1432 11.5114C18.7294 12.362 13.3154 13.2894 7.9064 14.2159L7.90528 14.2161L7.90421 14.2163C6.89506 14.3891 5.88606 14.5619 4.87729 14.7343C2.38756 15.0808 0.561769 17.8705 1.0921 20.4955C2.05763 27.0725 3.03451 33.6478 4.01146 40.2235C4.57877 44.042 5.1461 47.8608 5.71124 51.68C5.90556 53.5773 7.18078 55.2754 8.89323 55.8298C9.8397 56.1844 10.8323 56.0268 11.8029 55.8727C11.9821 55.8442 12.1611 55.8158 12.3383 55.7908C12.3486 56.1343 12.3446 56.4836 12.3408 56.8349C12.3276 58.0076 12.3141 59.2012 12.8282 60.2612C13.5529 61.8467 15.1236 62.9556 16.7835 62.973C19.7752 63.0119 22.7668 63.0033 25.7585 62.9772C26.7908 63.0379 27.8192 62.3015 28.0702 61.2142C28.5195 59.8324 27.5156 58.1733 26.1472 58.0737C24.8678 57.9935 23.5852 58.0108 22.3028 58.0282C21.0207 58.0455 19.7384 58.0629 18.4594 57.9827C17.4109 57.8658 16.8522 56.6658 16.9818 55.6349C16.9887 51.6657 16.9867 47.6959 16.9848 43.7258C16.9821 38.4324 16.9794 33.1388 16.9979 27.8466C16.9251 26.7853 17.8319 25.8236 18.8237 25.906C27.6208 25.8843 36.4219 25.8799 45.2189 25.906C46.1904 25.8453 47.0689 26.7983 47.0042 27.8336C47.0227 33.1307 47.0201 38.4278 47.0174 43.725C47.0154 47.6978 47.0134 51.6708 47.0204 55.6436C47.154 56.6875 46.567 57.9004 45.5022 57.9871C44.337 58.0608 43.1679 58.0444 41.9989 58.028C40.7634 58.0106 39.5276 57.9933 38.2962 58.0823C37.0615 58.1733 36.1263 59.5335 36.3166 60.8244C36.4137 62.0502 37.4906 63.0379 38.6403 62.973C41.5025 63.0075 44.3646 63.0119 47.2268 62.9686C49.5587 62.9686 51.6314 60.7464 51.6355 58.2556C51.665 56.2648 51.6601 54.2738 51.6551 52.2821C51.6512 50.7334 51.6473 49.1841 51.6597 47.6341C51.6557 46.014 51.6557 44.394 51.6638 42.7738C51.6487 39.8023 51.6509 36.8309 51.6531 33.8593C51.6551 31.2819 51.657 28.7043 51.6476 26.1268C51.7327 24.3162 50.8622 22.5098 49.3846 21.6044C48.2928 20.8913 47.0095 20.9103 45.757 20.9288C45.4119 20.934 45.0689 20.939 44.7331 20.9287C43.2171 20.9791 42.2401 20.9455 40.7252 20.8935C40.6951 20.5476 40.7252 20.8935 40.7252 20.7468C40.7252 20.8935 40.5978 19.8906 40.7252 20.7468C40.5953 19.8922 40.4743 19.0359 40.3533 18.1797C40.139 16.6624 39.9245 15.1446 39.6605 13.6383C39.3043 11.3382 37.2113 9.51882 35.0252 9.69209C33.6295 9.81631 32.2498 10.0689 30.8705 10.3214ZM5.97034 21.8514C5.61408 20.6818 6.35088 19.352 7.52489 19.287C12.2685 18.4636 17.0161 17.6627 21.763 16.8619C25.3574 16.2556 28.9517 15.6491 32.5436 15.0332C33.503 14.8079 34.7945 14.7733 35.2478 15.9212C35.685 17.5802 35.8955 19.3086 35.936 21.0327C32.0801 20.8961 28.2195 20.9152 24.3592 20.9342C21.978 20.9461 19.5966 20.9579 17.2166 20.9331C14.7269 20.7208 12.3465 23.0036 12.3667 25.6936C12.3384 29.8938 12.3435 34.095 12.3485 38.2968C12.3536 42.5018 12.3586 46.7077 12.3302 50.9133C11.302 50.9133 10.0834 50.4281 10.0187 49.1503C8.64628 40.0535 7.30223 30.9525 5.97034 21.8514ZM23.6489 31.9841C23.017 31.99 22.3658 31.996 21.836 32.395C20.6053 33.1963 20.4393 35.2452 21.5161 36.2675C22.0938 36.9227 22.9464 36.9263 23.7378 36.9297C23.8727 36.9303 24.0058 36.9308 24.1354 36.9346C26.7471 36.9166 29.3589 36.9208 31.9706 36.9249C35.0184 36.9298 38.0663 36.9346 41.1141 36.9043C42.6404 36.9476 43.7576 35.0417 43.1504 33.5689C42.7942 32.4945 41.7173 31.9011 40.689 31.9878C38.1538 31.9798 35.6193 31.9819 33.0854 31.9839C30.0881 31.9863 27.0915 31.9889 24.0949 31.9747C23.9486 31.9814 23.7992 31.9827 23.6489 31.9841ZM21.8153 40.1966C22.3495 39.7842 23.0055 39.7821 23.6404 39.7799C23.7992 39.7794 23.9568 39.779 24.1108 39.772C26.6396 39.7894 29.1685 39.7853 31.6971 39.7811C34.8312 39.7759 37.9652 39.7707 41.0975 39.8067C42.7371 39.759 43.8625 41.912 43.0448 43.4021C42.6197 44.3291 41.6481 44.7925 40.7129 44.7189C38.3412 44.7245 35.9696 44.7229 33.5976 44.7213C30.4348 44.7192 27.2713 44.7171 24.1067 44.7319C23.9945 44.7292 23.8799 44.7284 23.764 44.7277C22.959 44.7226 22.0869 44.7171 21.4996 44.0432C20.443 43.0251 20.6049 41.0023 21.8153 40.1966ZM27.3069 47.5486C25.7548 47.5336 24.2031 47.5186 22.6576 47.6254C21.3378 47.8377 20.4431 49.4707 20.9046 50.8092C21.2002 51.8749 22.2163 52.581 23.2445 52.5073C23.8417 52.5093 24.4389 52.5134 25.036 52.5174C27.0298 52.531 29.0236 52.5447 31.0174 52.4813C32.6407 52.464 33.6852 50.2678 32.8189 48.8166C32.329 47.7943 31.1955 47.4781 30.1996 47.5475C29.2361 47.5673 28.2714 47.558 27.3069 47.5486Z" fill="url(#paint2_linear_637_230)"/>
<path d="M40.7252 20.7468C40.7252 20.8935 40.6951 20.5476 40.7252 20.8935C42.2401 20.9455 43.2171 20.9791 44.7331 20.9287C45.0689 20.939 45.4119 20.934 45.757 20.9288C47.0095 20.9103 48.2928 20.8913 49.3846 21.6044C50.8622 22.5098 51.7327 24.3162 51.6476 26.1268C51.657 28.7043 51.6551 31.2819 51.6531 33.8593C51.6509 36.8309 51.6487 39.8023 51.6638 42.7738C51.6557 44.394 51.6557 46.014 51.6597 47.6341C51.6473 49.1841 51.6512 50.7334 51.6551 52.2821C51.6601 54.2738 51.665 56.2648 51.6355 58.2556C51.6314 60.7464 49.5587 62.9686 47.2268 62.9686C44.3646 63.0119 41.5025 63.0075 38.6403 62.973C37.4906 63.0379 36.4137 62.0502 36.3166 60.8244C36.1263 59.5335 37.0615 58.1733 38.2962 58.0823C39.5276 57.9933 40.7634 58.0106 41.9989 58.028C43.1679 58.0444 44.337 58.0608 45.5022 57.9871C46.567 57.9004 47.154 56.6875 47.0204 55.6436C47.0134 51.6708 47.0154 47.6978 47.0174 43.725C47.0201 38.4278 47.0227 33.1307 47.0042 27.8336C47.0689 26.7983 46.1904 25.8453 45.2189 25.906C36.4219 25.8799 27.6208 25.8843 18.8237 25.906C17.8319 25.8236 16.9251 26.7853 16.9979 27.8466C16.9794 33.1388 16.9821 38.4324 16.9848 43.7258C16.9867 47.6959 16.9887 51.6657 16.9818 55.6349C16.8522 56.6658 17.4109 57.8658 18.4594 57.9827C19.7384 58.0629 21.0207 58.0455 22.3028 58.0282C23.5852 58.0108 24.8678 57.9935 26.1472 58.0737C27.5156 58.1733 28.5195 59.8324 28.0702 61.2142C27.8192 62.3015 26.7908 63.0379 25.7585 62.9772C22.7668 63.0033 19.7752 63.0119 16.7835 62.973C15.1236 62.9556 13.5529 61.8467 12.8282 60.2612C12.3141 59.2012 12.3276 58.0076 12.3408 56.8349C12.3446 56.4836 12.3486 56.1343 12.3383 55.7908C12.1611 55.8158 11.9821 55.8442 11.8029 55.8727C10.8323 56.0268 9.8397 56.1844 8.89323 55.8298C7.18078 55.2754 5.90556 53.5773 5.71124 51.68C5.1461 47.8608 4.57877 44.042 4.01146 40.2235C3.03451 33.6478 2.05763 27.0725 1.0921 20.4955C0.561769 17.8705 2.38756 15.0808 4.87729 14.7343C5.88606 14.5619 6.89506 14.3891 7.90421 14.2163L7.90528 14.2161L7.9064 14.2159C13.3154 13.2894 18.7294 12.362 24.1432 11.5114C25.4468 11.2299 26.7626 11.0089 28.0782 10.7924C29.012 10.6616 29.9412 10.4915 30.8705 10.3214C32.2498 10.0689 33.6295 9.81631 35.0252 9.69209C37.2113 9.51882 39.3043 11.3382 39.6605 13.6383C39.9245 15.1446 40.139 16.6624 40.3533 18.1797C40.4743 19.0359 40.5953 19.8922 40.7252 20.7468ZM40.7252 20.7468C40.5978 19.8906 40.7252 20.8935 40.7252 20.7468ZM5.97034 21.8514C5.61408 20.6818 6.35088 19.352 7.52489 19.287C12.2685 18.4636 17.0161 17.6627 21.763 16.8619C25.3574 16.2556 28.9517 15.6491 32.5436 15.0332C33.503 14.8079 34.7945 14.7733 35.2478 15.9212C35.685 17.5802 35.8955 19.3086 35.936 21.0327C32.0801 20.8961 28.2195 20.9152 24.3592 20.9342C21.978 20.9461 19.5966 20.9579 17.2166 20.9331C14.7269 20.7208 12.3465 23.0036 12.3667 25.6936C12.3384 29.8938 12.3435 34.095 12.3485 38.2968C12.3536 42.5018 12.3586 46.7077 12.3302 50.9133C11.302 50.9133 10.0834 50.4281 10.0187 49.1503C8.64628 40.0535 7.30223 30.9525 5.97034 21.8514ZM23.6489 31.9841C23.017 31.99 22.3658 31.996 21.836 32.395C20.6053 33.1963 20.4393 35.2452 21.5161 36.2675C22.0938 36.9227 22.9464 36.9263 23.7378 36.9297C23.8727 36.9303 24.0058 36.9308 24.1354 36.9346C26.7471 36.9166 29.3589 36.9208 31.9706 36.9249C35.0184 36.9298 38.0663 36.9346 41.1141 36.9043C42.6404 36.9476 43.7576 35.0417 43.1504 33.5689C42.7942 32.4945 41.7173 31.9011 40.689 31.9878C38.1538 31.9798 35.6193 31.9819 33.0854 31.9839C30.0881 31.9863 27.0915 31.9889 24.0949 31.9747C23.9486 31.9814 23.7992 31.9827 23.6489 31.9841ZM21.8153 40.1966C22.3495 39.7842 23.0055 39.7821 23.6404 39.7799C23.7992 39.7794 23.9568 39.779 24.1108 39.772C26.6396 39.7894 29.1685 39.7853 31.6971 39.7811C34.8312 39.7759 37.9652 39.7707 41.0975 39.8067C42.7371 39.759 43.8625 41.912 43.0448 43.4021C42.6197 44.3291 41.6481 44.7925 40.7129 44.7189C38.3412 44.7245 35.9696 44.7229 33.5976 44.7213C30.4348 44.7192 27.2713 44.7171 24.1067 44.7319C23.9945 44.7292 23.8799 44.7284 23.764 44.7277C22.959 44.7226 22.0869 44.7171 21.4996 44.0432C20.443 43.0251 20.6049 41.0023 21.8153 40.1966ZM27.3069 47.5486C25.7548 47.5336 24.2031 47.5186 22.6576 47.6254C21.3378 47.8377 20.4431 49.4707 20.9046 50.8092C21.2002 51.8749 22.2163 52.581 23.2445 52.5073C23.8417 52.5093 24.4389 52.5134 25.036 52.5174C27.0298 52.531 29.0236 52.5447 31.0174 52.4813C32.6407 52.464 33.6852 50.2678 32.8189 48.8166C32.329 47.7943 31.1955 47.4781 30.1996 47.5475C29.2361 47.5673 28.2714 47.558 27.3069 47.5486Z" stroke="url(#paint3_linear_637_230)"/>
</g>
<defs>
<linearGradient id="paint0_linear_637_230" x1="43.003" y1="47.8549" x2="43.003" y2="1" gradientUnits="userSpaceOnUse">
<stop stop-color="#A93AFF"/>
<stop offset="1" stop-color="#FF81FF"/>
</linearGradient>
<linearGradient id="paint1_linear_637_230" x1="43.003" y1="47.8549" x2="43.003" y2="1" gradientUnits="userSpaceOnUse">
<stop stop-color="#A93AFF"/>
<stop offset="1" stop-color="#FF81FF"/>
</linearGradient>
<linearGradient id="paint2_linear_637_230" x1="26.3318" y1="63" x2="26.3318" y2="9.68066" gradientUnits="userSpaceOnUse">
<stop stop-color="#02AA93"/>
<stop offset="1" stop-color="#67FF80"/>
</linearGradient>
<linearGradient id="paint3_linear_637_230" x1="26.3318" y1="63" x2="26.3318" y2="9.68066" gradientUnits="userSpaceOnUse">
<stop stop-color="#02AA93"/>
<stop offset="1" stop-color="#67FF80"/>
</linearGradient>
<clipPath id="clip0_637_230">
<rect width="64" height="64" fill="white"/>
</clipPath>
</defs>
</svg>
