<svg width="64" height="64" viewBox="0 0 64 64" fill="none" xmlns="http://www.w3.org/2000/svg">
<path fill-rule="evenodd" clip-rule="evenodd" d="M6 6C6 4.89543 6.89543 4 8 4H15.8182C16.9228 4 17.8182 4.89543 17.8182 6V26.3333C17.8182 26.8856 18.2659 27.3333 18.8182 27.3333H45.1818C45.7341 27.3333 46.1818 26.8856 46.1818 26.3333V6C46.1818 4.89543 47.0772 4 48.1818 4H56C57.1046 4 58 4.89543 58 6V58C58 59.1046 57.1046 60 56 60H48.1818C47.0772 60 46.1818 59.1046 46.1818 58V40C46.1818 39.4477 45.7341 39 45.1818 39H18.8217C18.268 39 17.8198 39.4498 17.8217 40.0035L17.8845 57.993C17.8883 59.1003 16.9918 60 15.8845 60H8C6.89543 60 6 59.1046 6 58V6ZM8.3638 12C8.3638 11.4477 8.81152 11 9.3638 11H14.4547C15.007 11 15.4547 11.4477 15.4547 12V17C15.4547 17.5523 15.007 18 14.4547 18H9.3638C8.81152 18 8.3638 17.5523 8.3638 17V12ZM48.5456 12C48.5456 11.4477 48.9933 11 49.5456 11H54.6365C55.1888 11 55.6365 11.4477 55.6365 12V17C55.6365 17.5523 55.1888 18 54.6365 18H49.5456C48.9933 18 48.5456 17.5523 48.5456 17V12ZM8.3638 30.6667C8.3638 30.1144 8.81152 29.6667 9.3638 29.6667H14.4547C15.007 29.6667 15.4547 30.1144 15.4547 30.6667V35.6667C15.4547 36.219 15.007 36.6667 14.4547 36.6667H9.3638C8.81152 36.6667 8.3638 36.219 8.3638 35.6667V30.6667ZM48.5456 30.6667C48.5456 30.1144 48.9933 29.6667 49.5456 29.6667H54.6365C55.1888 29.6667 55.6365 30.1144 55.6365 30.6667V35.6667C55.6365 36.219 55.1888 36.6667 54.6365 36.6667H49.5456C48.9933 36.6667 48.5456 36.219 48.5456 35.6667V30.6667ZM8.3638 47C8.3638 46.4477 8.81152 46 9.3638 46H14.4547C15.007 46 15.4547 46.4477 15.4547 47V52C15.4547 52.5523 15.007 53 14.4547 53H9.3638C8.81152 53 8.3638 52.5523 8.3638 52V47ZM48.5456 47C48.5456 46.4477 48.9933 46 49.5456 46H54.6365C55.1888 46 55.6365 46.4477 55.6365 47V52C55.6365 52.5523 55.1888 53 54.6365 53H49.5456C48.9933 53 48.5456 52.5523 48.5456 52V47Z" fill="url(#paint0_linear)"/>
<defs>
<linearGradient id="paint0_linear" x1="32" y1="60" x2="32" y2="4" gradientUnits="userSpaceOnUse">
<stop stop-color="#B555FF"/>
<stop offset="1" stop-color="#FF5454"/>
</linearGradient>
</defs>
</svg>
