<svg width="16" height="16" viewBox="0 0 16 16" fill="none" xmlns="http://www.w3.org/2000/svg">
<path fill-rule="evenodd" clip-rule="evenodd" d="M3.05025 3.05025C4.36301 1.7375 6.14348 1 8 1C8.9365 1 9.85365 1.18766 10.7012 1.54216C10.7266 1.55245 10.7513 1.5629 10.775 1.57354C10.8601 1.61031 10.9446 1.64877 11.0282 1.68891H11.4722C11.7858 1.67298 12.2294 1.63625 12.6455 1.59681C12.6922 1.59216 12.7408 1.58627 12.7907 1.58021C13.0122 1.55334 13.2601 1.52327 13.4901 1.58457C13.5775 1.60741 13.665 1.6481 13.7381 1.73385C13.8027 1.79534 13.8571 1.86508 13.8941 1.93605C13.9498 2.04274 13.9563 2.08083 13.9541 2.281C13.9534 2.34468 13.9519 2.47307 13.9502 2.6271C13.9485 2.77259 13.9465 2.94094 13.9447 3.09921C13.9395 3.56309 13.9467 3.75031 13.9784 3.9637C14.0175 4.22743 14.0448 4.39405 14.0743 4.52104C14.6757 5.5711 15 6.76883 15 8C15 9.85651 14.2625 11.637 12.9497 12.9497C11.637 14.2625 9.85651 15 8 15C6.14348 15 4.36301 14.2625 3.05025 12.9497C1.7375 11.637 1 9.85651 1 8C1 6.14348 1.7375 4.36301 3.05025 3.05025ZM10.9698 5.03015C10.1822 4.2425 9.11391 3.8 8 3.8C6.88609 3.8 5.8178 4.2425 5.03015 5.03015C4.2425 5.8178 3.8 6.88609 3.8 8C3.8 9.11391 4.2425 10.1822 5.03015 10.9698C5.8178 11.7575 6.88609 12.2 8 12.2C9.11391 12.2 10.1822 11.7575 10.9698 10.9698C11.7575 10.1822 12.2 9.11391 12.2 8C12.2 6.88609 11.7575 5.8178 10.9698 5.03015Z" fill="url(#paint0_linear_457:31)"/>
<defs>
<linearGradient id="paint0_linear_457:31" x1="8" y1="1" x2="8" y2="15" gradientUnits="userSpaceOnUse">
<stop stop-color="#DC18FC"/>
<stop offset="1" stop-color="#614EFF"/>
</linearGradient>
</defs>
</svg>
