<svg width="512" height="512" viewBox="0 0 512 512" fill="none" xmlns="http://www.w3.org/2000/svg">
<path d="M379.383 34.4224C390.613 23.1925 408.85 23.1925 420.08 34.4224L477.578 91.9196C488.807 103.15 488.807 121.387 477.578 132.617C466.977 143.218 449.997 143.847 438.767 134.324L430.232 142.859L386.391 186.7C378.125 194.965 376.059 207.273 378.664 218.683C387.109 255.427 376.957 295.585 348.299 324.244L203.208 469.155C180.748 491.615 144.363 491.615 121.904 469.155L42.8449 390.096C20.385 367.637 20.385 331.252 42.8449 308.792L187.846 163.701C216.504 135.043 256.663 124.981 293.407 133.336C304.727 135.941 317.124 133.785 325.3 125.609L369.141 81.7678L377.676 73.233C368.153 61.9133 368.692 45.0235 379.383 34.4224ZM115.166 337.99L173.92 396.745C179.491 402.315 188.654 402.315 194.224 396.745L281.728 309.241C287.298 303.671 287.298 294.507 281.728 288.937L222.973 230.182C217.403 224.612 208.239 224.612 202.669 230.182L115.166 317.686C109.596 323.256 109.596 332.42 115.166 337.99Z" fill="url(#paint0_linear_610_18)"/>
<defs>
<linearGradient id="paint0_linear_610_18" x1="470.459" y1="39.1481" x2="291.038" y2="489.671" gradientUnits="userSpaceOnUse">
<stop stop-color="#FE0F7C"/>
<stop offset="1" stop-color="#DF0066"/>
</linearGradient>
</defs>
</svg>
