<svg width="16" height="16" viewBox="0 0 16 16" fill="none" xmlns="http://www.w3.org/2000/svg">
<path fill-rule="evenodd" clip-rule="evenodd" d="M14.125 5.5H1.875V12.5C1.875 12.7321 1.96719 12.9546 2.13128 13.1187C2.29538 13.2828 2.51794 13.375 2.75 13.375H13.25C13.4821 13.375 13.7046 13.2828 13.8687 13.1187C14.0328 12.9546 14.125 12.7321 14.125 12.5V5.5ZM14.125 4.625H1.875V3.75C1.875 3.51794 1.96719 3.29538 2.13128 3.13128C2.29538 2.96719 2.51794 2.875 2.75 2.875H13.25C13.4821 2.875 13.7046 2.96719 13.8687 3.13128C14.0328 3.29538 14.125 3.51794 14.125 3.75V4.625ZM15 3.75C15 3.28587 14.8156 2.84075 14.4874 2.51256C14.1592 2.18437 13.7141 2 13.25 2H2.75C2.28587 2 1.84075 2.18437 1.51256 2.51256C1.18437 2.84075 1 3.28587 1 3.75L1 12.5C1 12.9641 1.18437 13.4092 1.51256 13.7374C1.84075 14.0656 2.28587 14.25 2.75 14.25H13.25C13.7141 14.25 14.1592 14.0656 14.4874 13.7374C14.8156 13.4092 15 12.9641 15 12.5V3.75Z" fill="url(#paint0_linear)" stroke="url(#paint1_linear)" stroke-width="0.5"/>
<path d="M3.625 11.1875C3.625 11.0715 3.67109 10.9602 3.75314 10.8781C3.83519 10.7961 3.94647 10.75 4.0625 10.75H4.9375C5.05353 10.75 5.16481 10.7961 5.24686 10.8781C5.32891 10.9602 5.375 11.0715 5.375 11.1875V12.0625C5.375 12.1785 5.32891 12.2898 5.24686 12.3719C5.16481 12.4539 5.05353 12.5 4.9375 12.5H4.0625C3.94647 12.5 3.83519 12.4539 3.75314 12.3719C3.67109 12.2898 3.625 12.1785 3.625 12.0625V11.1875ZM7.125 11.1875C7.125 11.0715 7.17109 10.9602 7.25314 10.8781C7.33519 10.7961 7.44647 10.75 7.5625 10.75H8.4375C8.55353 10.75 8.66481 10.7961 8.74686 10.8781C8.82891 10.9602 8.875 11.0715 8.875 11.1875V12.0625C8.875 12.1785 8.82891 12.2898 8.74686 12.3719C8.66481 12.4539 8.55353 12.5 8.4375 12.5H7.5625C7.44647 12.5 7.33519 12.4539 7.25314 12.3719C7.17109 12.2898 7.125 12.1785 7.125 12.0625V11.1875ZM10.625 11.1875C10.625 11.0715 10.6711 10.9602 10.7531 10.8781C10.8352 10.7961 10.9465 10.75 11.0625 10.75H11.9375C12.0535 10.75 12.1648 10.7961 12.2469 10.8781C12.3289 10.9602 12.375 11.0715 12.375 11.1875V12.0625C12.375 12.1785 12.3289 12.2898 12.2469 12.3719C12.1648 12.4539 12.0535 12.5 11.9375 12.5H11.0625C10.9465 12.5 10.8352 12.4539 10.7531 12.3719C10.6711 12.2898 10.625 12.1785 10.625 12.0625V11.1875Z" fill="url(#paint2_linear)" stroke="url(#paint3_linear)" stroke-width="0.5"/>
<defs>
<linearGradient id="paint0_linear" x1="8" y1="14.25" x2="8" y2="2" gradientUnits="userSpaceOnUse">
<stop stop-color="#5570FF"/>
<stop offset="1" stop-color="#4DD3FF"/>
</linearGradient>
<linearGradient id="paint1_linear" x1="8" y1="14.25" x2="8" y2="2" gradientUnits="userSpaceOnUse">
<stop stop-color="#5570FF"/>
<stop offset="1" stop-color="#4DD3FF"/>
</linearGradient>
<linearGradient id="paint2_linear" x1="8" y1="12.5" x2="8" y2="10.75" gradientUnits="userSpaceOnUse">
<stop stop-color="#FFA800"/>
<stop offset="1" stop-color="#FFF737"/>
</linearGradient>
<linearGradient id="paint3_linear" x1="8" y1="12.5" x2="8" y2="10.75" gradientUnits="userSpaceOnUse">
<stop stop-color="#FFA800"/>
<stop offset="1" stop-color="#FFF737"/>
</linearGradient>
</defs>
</svg>
