<svg width="128" height="128" viewBox="0 0 128 128" fill="none" xmlns="http://www.w3.org/2000/svg">
<path d="M55.0452 6.51316C67.6918 4.53983 80.9718 6.89316 92.1252 13.1865C102.871 19.1732 111.611 28.6932 116.651 39.9199C122.398 52.5532 123.311 67.2799 119.251 80.5465C115.271 93.7465 106.351 105.353 94.6785 112.66C85.3785 118.553 74.3585 121.64 63.3585 121.533C49.5718 121.42 35.8785 116.207 25.5985 107.007C16.6318 99.1065 10.2052 88.3599 7.55182 76.6999C4.57182 63.8065 6.13182 49.8999 12.0452 38.0465C20.1585 21.3998 36.7052 9.19983 55.0452 6.51316ZM55.0718 14.5465C39.4985 17.2065 25.6518 27.8665 18.8785 42.0999C12.4852 55.3265 12.3985 71.4198 18.6252 84.7265C22.9318 93.9932 30.1852 101.853 39.0318 106.96C47.7052 111.987 57.9318 114.22 67.9185 113.407C78.1585 112.633 88.1052 108.547 95.9385 101.92C104.051 95.1399 109.958 85.7465 112.405 75.4532C114.985 64.7732 113.978 53.2265 109.431 43.2065C104.851 32.9732 96.6918 24.4132 86.7318 19.2865C77.0852 14.2798 65.7652 12.6132 55.0718 14.5465Z" fill="#FF3662" stroke="#FF3662" stroke-width="6"/>
<path d="M63.6523 27.68C73.6123 27.1066 83.5123 31.9733 89.5656 39.8066C90.1523 40.8133 88.999 41.7866 88.659 42.6866C85.7656 47.3066 83.459 52.3066 80.2723 56.7266C74.7257 47.0533 68.9857 37.48 63.6523 27.68Z" fill="url(#paint0_linear_644_78)"/>
<path d="M31.4883 44.8C35.815 35.8267 44.9883 29.7867 54.7283 28.3601C55.735 28.2601 56.0683 29.4201 56.575 30.0534C59.3883 34.9934 62.2883 39.8867 65.035 44.8667C53.855 44.9667 42.6616 45.0934 31.4883 44.8Z" fill="url(#paint1_linear_644_78)"/>
<path d="M78.6719 74.3465C84.1919 64.6132 89.8786 54.9798 95.4719 45.2998C101.459 53.5732 101.912 64.9265 98.0786 74.2132C95.6986 75.2198 93.1453 74.4265 90.6653 74.5532C86.6719 74.7598 82.6386 75.0198 78.6719 74.3465Z" fill="url(#paint2_linear_644_78)"/>
<path d="M29.708 52.2533C30.128 51.4467 31.2213 51.7267 31.948 51.6267C37.5747 51.6734 43.1947 51.6067 48.8213 51.6734C45.748 58.1067 41.7747 64.08 38.3413 70.3333C36.2147 73.7667 34.5347 77.5 32.068 80.7133C26.6813 72.34 25.7547 61.3933 29.708 52.2533Z" fill="#FF3662"/>
<path d="M38.9753 83.5931C41.7219 79.2665 43.8353 74.5065 46.9419 70.4331C52.5086 80.1465 58.3019 89.7465 63.6753 99.5598C53.9419 100.327 44.2219 95.4798 38.0619 88.0798C36.5619 86.6465 38.3219 84.9731 38.9753 83.5931Z" fill="url(#paint3_linear_644_78)"/>
<path d="M62.7734 81.9668C73.9334 81.9468 85.1 81.9268 96.2667 81.9868C92.14 91.3268 82.4734 97.4134 72.5667 98.7667C71.2 97.6267 70.5867 95.8801 69.66 94.4068C67.3934 90.2401 64.76 86.2734 62.7734 81.9668Z" fill="url(#paint4_linear_644_78)"/>
<defs>
<linearGradient id="paint0_linear_644_78" x1="76.6908" y1="56.7266" x2="76.6908" y2="27.6343" gradientUnits="userSpaceOnUse">
<stop stop-color="#5570FF"/>
<stop offset="1" stop-color="#4DD3FF"/>
</linearGradient>
<linearGradient id="paint1_linear_644_78" x1="48.2616" y1="44.9817" x2="48.2616" y2="28.354" gradientUnits="userSpaceOnUse">
<stop stop-color="#FD2E00"/>
<stop offset="1" stop-color="#FF9900"/>
</linearGradient>
<linearGradient id="paint2_linear_644_78" x1="89.6098" y1="74.7801" x2="89.6098" y2="45.2998" gradientUnits="userSpaceOnUse">
<stop stop-color="#00B59C"/>
<stop offset="1" stop-color="#9CFFAC"/>
</linearGradient>
<linearGradient id="paint3_linear_644_78" x1="50.574" y1="70.4331" x2="50.574" y2="99.6393" gradientUnits="userSpaceOnUse">
<stop stop-color="#00FFE0"/>
<stop offset="1" stop-color="#078AA7"/>
</linearGradient>
<linearGradient id="paint4_linear_644_78" x1="62.7783" y1="90.1075" x2="96.2723" y2="90.1075" gradientUnits="userSpaceOnUse">
<stop stop-color="#A93AFF"/>
<stop offset="1" stop-color="#FF81FF"/>
</linearGradient>
</defs>
</svg>
