<svg width="64" height="64" viewBox="0 0 64 64" fill="none" xmlns="http://www.w3.org/2000/svg">
<path fill-rule="evenodd" clip-rule="evenodd" d="M22.3805 57.5381C20.6566 56.9078 19.0463 56.106 17.5295 55.1906C25.0665 55.7697 34.9021 54.0325 41.5349 47.8252C41.5349 47.8252 54.179 37.7225 45.0317 21.143C45.0317 21.143 46.5061 27.8247 44.6263 33.3215C44.6263 33.3215 42.8334 40.6206 34.8642 42.7921C23.1266 45.9904 9.7519 37.9497 4.16148 33.9696C3.74053 29.8782 4.11471 25.6509 5.61366 21.5261C7.83646 15.4146 11.665 10.6461 16.7699 7.4433C15.4937 16.3723 16.5026 24.593 17.9526 28.0363C19.8992 32.6533 23.6322 37.8632 30.2315 38.5537C36.8309 39.2464 40.4702 33.2457 40.4702 33.2457C43.8557 28.1008 44.3858 20.7131 44.3345 20.535C44.2832 20.3545 43.4325 19.8668 43.4325 19.8668C41.154 29.0875 37.3966 31.8185 37.3966 31.8185C31.4721 37.5381 27.276 33.5714 27.276 33.5714C22.7658 28.7271 26.274 21.2031 26.274 21.2031C28.0402 15.84 32.8374 7.9912 38.6706 4C39.6417 4.24054 40.6195 4.38977 41.5794 4.73944C45.1096 6.02678 48.2011 7.9667 50.8159 10.3498C46.5507 11.9067 39.664 15.1985 39.664 15.1985C28.7482 19.7955 28.011 26.7489 28.011 26.7489C26.8817 33.9161 32.5679 30.5334 32.5679 30.5334C38.4212 27.6826 41.2966 19.1474 41.2966 19.1474C39.4702 18.7999 38.0314 19.3545 38.0314 19.3545C35.695 25.1208 30.9287 27.4928 30.9287 27.4928C29.0533 28.4862 28.6168 26.7311 28.6168 26.7311C28.3005 25.417 29.9732 25.1921 29.9732 25.1921C32.5702 24.1832 34.2317 21.4548 34.6081 20.339C34.9823 19.2209 35.6794 19.134 35.6794 19.134C39.2386 17.9981 42.4837 17.3946 42.4837 17.3946C46.9026 16.8511 53.6667 18.9581 53.6667 18.9581C55.1835 19.5684 56.6379 20.0249 57.9297 20.3902C60.4087 26.5841 60.8007 33.9874 58.344 40.7493C53.0476 55.3265 36.9445 62.8456 22.3805 57.5381Z" fill="url(#paint0_linear_457:16)"/>
<defs>
<linearGradient id="paint0_linear_457:16" x1="32" y1="59.2403" x2="32" y2="4" gradientUnits="userSpaceOnUse">
<stop stop-color="#FD5900"/>
<stop offset="1" stop-color="#FFDE00"/>
</linearGradient>
</defs>
</svg>
