<svg width="128" height="128" viewBox="0 0 128 128" fill="none" xmlns="http://www.w3.org/2000/svg">
<path fill-rule="evenodd" clip-rule="evenodd" d="M43.112 5.00116C56.2301 -0.308966 71.5711 -0.342101 84.6999 4.95252C97.5082 10.0346 108.089 20.0168 113.572 32.224C118.901 43.8641 119.414 57.3889 115.143 69.3997C111.42 80.0238 103.933 89.3023 94.3078 95.6058C94.5741 96.0453 94.8391 96.4856 95.1032 96.9256C95.9285 96.4573 96.8543 95.9356 97.7933 95.565C99.0977 95.0501 100.579 94.7556 102.178 95.2035C104.094 95.6006 105.363 96.7805 106.316 98.0706C106.792 98.715 107.203 99.4064 107.579 100.059C107.656 100.193 107.731 100.324 107.805 100.454C108.1 100.97 108.375 101.45 108.666 101.9L108.682 101.923L108.696 101.948C109.215 102.859 109.768 103.745 110.333 104.65L110.336 104.654C110.545 104.989 110.756 105.328 110.968 105.671C111.743 106.927 112.512 108.228 113.155 109.604L113.166 109.628L113.176 109.653C114.429 112.754 112.857 116.37 109.887 117.84C108.623 118.539 107.359 119.244 106.092 119.951C102.912 121.725 99.7194 123.506 96.4891 125.202C93.3181 126.954 88.9228 125.706 87.2212 122.583C85.8894 120.443 84.5909 118.276 83.2975 116.117C82.653 115.042 82.0098 113.968 81.3644 112.901C80.0675 110.938 79.6981 108.282 80.9037 106.067C81.4694 104.951 82.3564 104.166 83.2581 103.551C83.8276 103.163 84.4741 102.799 85.0682 102.468C84.7055 101.867 84.3317 101.272 83.9527 100.668L83.951 100.666C83.7233 100.303 83.4937 99.9373 83.2636 99.5656C82.4764 98.2946 81.6984 96.9784 81.0505 95.5851L81.0458 95.575C79.7227 92.6451 81.6493 89.498 84.2862 88.4055C95.2356 82.7314 103.321 72.2789 105.626 60.6128L105.628 60.6039C107.603 51.0636 105.881 40.8539 100.744 32.4596L100.739 32.4526C94.6127 22.2546 83.6451 14.7835 71.4802 12.7974L71.469 12.7955C59.9671 10.7842 47.6425 13.5703 38.3858 20.3854L38.3748 20.3934C27.9246 27.87 21.484 40.1689 21.5577 52.6133L21.5577 52.6233L21.5576 52.6333C21.4021 63.653 26.3411 74.6134 34.7537 82.1746L34.7636 82.1836C42.5006 89.327 53.1924 93.3469 63.9621 93.3759C67.166 93.2473 70.125 96.0267 69.8068 99.2514C69.7267 102.223 66.9282 104.581 63.985 104.496C52.0067 104.524 40.0719 100.584 30.6671 93.4714C21.7589 86.791 15.1133 77.3732 12.0487 66.9309C8.44613 54.8132 9.61165 41.437 15.4121 30.1025C21.074 18.8887 31.1067 9.78914 43.112 5.00116ZM95.0769 113.196C94.475 112.476 93.9794 111.664 93.489 110.788C95.264 109.693 97.0081 108.654 98.8686 107.856C99.3183 108.653 99.7769 109.444 100.244 110.231C99.0699 110.952 97.8727 111.623 96.6556 112.306C96.133 112.599 95.6067 112.894 95.0769 113.196Z" fill="url(#paint0_linear)"/>
<path d="M88.4955 26.7558C80.1909 19.9041 68.4143 17.062 57.5437 18.829C56.3176 19.0118 54.7975 19.2508 53.4669 19.8033C52.1245 20.3606 50.8476 21.2908 50.2797 22.9166C49.4533 24.8457 50.0723 26.904 51.3171 28.3066C52.5768 29.7259 54.5948 30.6178 56.7556 30.1123L56.7596 30.1114C64.1101 28.3598 72.2544 29.3247 78.4665 33.3328L78.4887 33.3471L78.5116 33.3602C78.925 33.597 79.3374 33.8828 79.7983 34.2022C80.2459 34.5124 80.7385 34.8538 81.2576 35.1498C82.2981 35.7433 83.5429 36.2128 85.0349 35.9768C87.3253 35.7972 89.0166 34.2524 89.7347 32.4314C90.4586 30.596 90.2442 28.3278 88.5279 26.7838L88.512 26.7695L88.4955 26.7558Z" fill="url(#paint1_linear)"/>
<path d="M46.0291 35.101C46.9086 32.8013 45.8404 30.5662 44.1844 29.2548C42.5241 27.9398 40.0654 27.3706 37.8461 28.5297L37.7873 28.5604L37.7332 28.5985C35.4292 30.2212 33.385 32.4605 32.2683 35.0405L32.2516 35.0789L32.2383 35.1187C31.4217 37.5443 32.7415 39.7607 34.549 40.9502C36.3617 42.1432 38.9564 42.5157 41.0645 41.0366L41.1153 41.001L41.1613 40.9594C42.9672 39.3246 44.7823 37.4362 45.9758 35.2175L46.0062 35.161L46.0291 35.101Z" fill="url(#paint2_linear)"/>
<defs>
<linearGradient id="paint0_linear" x1="59.3037" y1="122.642" x2="75.564" y2="10.2797" gradientUnits="userSpaceOnUse">
<stop stop-color="#8D01A2"/>
<stop offset="1" stop-color="#FF33DB"/>
</linearGradient>
<linearGradient id="paint1_linear" x1="59.3037" y1="122.642" x2="75.564" y2="10.2797" gradientUnits="userSpaceOnUse">
<stop stop-color="#8D01A2"/>
<stop offset="1" stop-color="#FF33DB"/>
</linearGradient>
<linearGradient id="paint2_linear" x1="59.3037" y1="122.642" x2="75.564" y2="10.2797" gradientUnits="userSpaceOnUse">
<stop stop-color="#8D01A2"/>
<stop offset="1" stop-color="#FF33DB"/>
</linearGradient>
</defs>
</svg>
