<svg width="128" height="128" viewBox="0 0 128 128" fill="none" xmlns="http://www.w3.org/2000/svg">
<path fill-rule="evenodd" clip-rule="evenodd" d="M71.1149 6.47086C66.2595 5.77613 61.3106 5.90974 56.4488 6.48422C44.4779 8.01396 33.022 13.3847 24.2479 21.6747C15.6944 29.6574 9.67556 40.3054 7.2747 51.7551C4.59297 64.2268 6.16456 77.5939 11.7822 89.0634C17.8612 101.675 28.7085 111.916 41.6624 117.267C53.0113 122.05 65.905 122.985 77.8492 120.039C90.7761 116.879 102.506 109.097 110.444 98.4286C119.025 87.1194 123.111 72.5634 121.74 58.4418C121.72 56.6115 121.038 54.5473 119.185 53.8192C116.263 52.3563 112.712 55.3223 113.501 58.4552C114.945 71.528 110.999 85.1152 102.573 95.249C95.237 104.261 84.6507 110.539 73.2148 112.657C62.8421 114.601 51.8477 113.218 42.3512 108.609C31.9119 103.599 23.3317 94.8283 18.6102 84.2667C13.9289 73.9732 12.9124 62.0624 15.8482 51.1338C18.9111 39.3502 26.5885 28.8825 36.7938 22.2492C46.424 15.9098 58.3414 13.1576 69.7773 14.5404C71.8905 14.8811 74.0505 13.2311 74.3179 11.1202C74.726 9.03601 73.2078 6.81154 71.1149 6.47086ZM88.1958 11.2872C85.5947 9.85764 82.1438 12.1355 82.3377 15.0614C82.2947 22.2109 82.3028 29.3603 82.311 36.5097C82.3142 39.3604 82.3175 42.211 82.3175 45.0616C77.8636 40.793 71.9251 38.0609 65.7456 37.6935C57.453 37.0723 48.9931 40.7463 43.7501 47.1792C39.7107 51.9755 37.5239 58.2681 37.7379 64.534C37.8315 71.4545 40.9212 78.2414 45.9837 82.9443C51.7217 88.3683 60.0009 91.0739 67.8255 89.8117C79.89 88.2416 89.9015 77.3467 90.2424 65.162C90.2808 57.6108 90.2755 50.0579 90.2702 42.504C90.2654 35.577 90.2605 28.6492 90.2893 21.7214C98.3809 26.7048 104.975 34.093 109.048 42.6768C109.703 44.3402 111.409 45.6562 113.261 45.3956C115.983 45.3355 117.882 42.0756 116.672 39.6508C110.961 27.2124 100.661 16.9519 88.1958 11.2872ZM49.4211 52.7972C52.4506 48.8225 57.132 46.1906 62.1075 45.6562C68.7214 44.9347 75.6167 48.1745 79.2411 53.7524C84.5175 61.2608 82.7521 72.557 75.4494 78.1077C68.461 83.9594 57.1922 83.2985 50.9392 76.6719C44.5927 70.5192 43.9106 59.7044 49.4211 52.7972Z" fill="url(#paint0_linear_678_240)"/>
<path d="M56.4488 6.48422L56.2141 4.49804L56.2046 4.49915L56.1952 4.50035L56.4488 6.48422ZM71.1149 6.47086L71.4362 4.49684L71.4172 4.49375L71.3982 4.49102L71.1149 6.47086ZM24.2479 21.6747L25.6125 23.1369L25.6214 23.1285L24.2479 21.6747ZM7.2747 51.7551L9.23004 52.1755L9.23213 52.1655L7.2747 51.7551ZM11.7822 89.0634L13.5838 88.195L13.5783 88.1837L11.7822 89.0634ZM41.6624 117.267L42.4391 115.424L42.4326 115.421L42.426 115.418L41.6624 117.267ZM77.8492 120.039L77.3743 118.096L77.3703 118.097L77.8492 120.039ZM110.444 98.4286L108.851 97.2198L108.845 97.2272L108.84 97.2347L110.444 98.4286ZM121.74 58.4418L119.74 58.4633L119.741 58.5494L119.749 58.6351L121.74 58.4418ZM119.185 53.8192L118.29 55.6076L118.37 55.6478L118.454 55.6805L119.185 53.8192ZM113.501 58.4552L115.489 58.2356L115.474 58.0994L115.44 57.9664L113.501 58.4552ZM102.573 95.249L101.035 93.9703L101.029 93.9783L101.022 93.9863L102.573 95.249ZM73.2148 112.657L72.8506 110.69L72.8464 110.691L73.2148 112.657ZM42.3512 108.609L43.2245 106.81L43.2166 106.806L42.3512 108.609ZM18.6102 84.2667L20.4361 83.4505L20.4308 83.4388L18.6102 84.2667ZM15.8482 51.1338L17.7798 51.6527L17.7819 51.6448L17.7839 51.637L15.8482 51.1338ZM36.7938 22.2492L37.8838 23.9262L37.8935 23.9198L36.7938 22.2492ZM69.7773 14.5404L70.0956 12.5659L70.0566 12.5596L70.0174 12.5549L69.7773 14.5404ZM74.3179 11.1202L72.3552 10.7359L72.3423 10.802L72.3338 10.8689L74.3179 11.1202ZM82.3377 15.0614L84.3377 15.0735L84.3381 15.0012L84.3334 14.9292L82.3377 15.0614ZM88.1958 11.2872L87.2325 13.0399L87.2991 13.0766L87.3683 13.108L88.1958 11.2872ZM82.311 36.5097L84.311 36.5075L84.311 36.5075L82.311 36.5097ZM82.3175 45.0616L80.9336 46.5055L84.3175 49.7486V45.0616H82.3175ZM65.7456 37.6935L65.5962 39.6879L65.6115 39.6891L65.6269 39.69L65.7456 37.6935ZM43.7501 47.1792L45.2798 48.4675L45.2902 48.4552L45.3004 48.4427L43.7501 47.1792ZM37.7379 64.534L39.7377 64.507L39.7374 64.4864L39.7367 64.4658L37.7379 64.534ZM45.9837 82.9443L47.3576 81.4909L47.3513 81.4849L47.3449 81.479L45.9837 82.9443ZM67.8255 89.8117L67.5673 87.8284L67.5371 87.8324L67.5069 87.8372L67.8255 89.8117ZM90.2424 65.162L92.2416 65.2179L92.2423 65.195L92.2424 65.1721L90.2424 65.162ZM90.2702 42.504L92.2702 42.5026L92.2702 42.5026L90.2702 42.504ZM90.2893 21.7214L91.3381 20.0185L88.3041 18.15L88.2893 21.7131L90.2893 21.7214ZM109.048 42.6768L110.908 41.9432L110.883 41.8805L110.855 41.8196L109.048 42.6768ZM113.261 45.3956L113.217 43.3961L113.099 43.3987L112.983 43.4151L113.261 45.3956ZM116.672 39.6508L114.854 40.4853L114.868 40.515L114.882 40.5443L116.672 39.6508ZM62.1075 45.6562L62.3211 47.6447L62.3244 47.6444L62.1075 45.6562ZM49.4211 52.7972L50.9846 54.0445L50.9984 54.0272L51.0118 54.0096L49.4211 52.7972ZM79.2411 53.7524L77.5641 54.8421L77.5839 54.8726L77.6048 54.9023L79.2411 53.7524ZM75.4494 78.1077L74.2392 76.5155L74.2016 76.544L74.1654 76.5743L75.4494 78.1077ZM50.9392 76.6719L52.3939 75.2993L52.3633 75.2669L52.3313 75.2359L50.9392 76.6719ZM56.6834 8.4704C61.4298 7.90957 66.1964 7.78748 70.8316 8.45069L71.3982 4.49102C66.3225 3.76478 61.1914 3.90991 56.2141 4.49804L56.6834 8.4704ZM25.6214 23.1285C34.0839 15.1329 45.1462 9.94483 56.7023 8.46809L56.1952 4.50035C43.8097 6.08309 31.9602 11.6365 22.8743 20.2209L25.6214 23.1285ZM9.23213 52.1655C11.5481 41.1208 17.3589 30.8396 25.6124 23.1369L22.8833 20.2125C14.0299 28.4752 7.80305 39.49 5.31727 51.3446L9.23213 52.1655ZM13.5783 88.1837C8.1612 77.1235 6.64122 64.215 9.23001 52.1755L5.3194 51.3346C2.54472 64.2386 4.16792 78.0642 9.98604 89.9431L13.5783 88.1837ZM42.426 115.418C29.9265 110.255 19.449 100.363 13.5838 88.195L9.98053 89.9318C16.2734 102.987 27.4905 113.576 40.8988 119.115L42.426 115.418ZM77.3703 118.097C65.8358 120.942 53.383 120.036 42.4391 115.424L40.8857 119.11C52.6396 124.063 65.9742 125.028 78.3281 121.981L77.3703 118.097ZM108.84 97.2347C101.179 107.529 89.8487 115.047 77.3743 118.096L78.3241 121.982C91.7036 118.711 103.833 110.664 112.049 99.6226L108.84 97.2347ZM119.749 58.6351C121.072 72.2595 117.125 86.3142 108.851 97.2198L112.038 99.6375C120.924 87.9246 125.15 72.8673 123.73 58.2485L119.749 58.6351ZM118.454 55.6805C119.145 55.9521 119.723 56.9027 119.74 58.4633L123.74 58.4203C123.717 56.3202 122.931 53.1425 119.917 51.9579L118.454 55.6805ZM115.44 57.9664C115.271 57.2955 115.54 56.52 116.222 55.958C116.899 55.4008 117.678 55.3011 118.29 55.6076L120.081 52.0308C117.771 50.8744 115.312 51.5263 113.68 52.8696C112.054 54.2081 110.941 56.482 111.562 58.9439L115.44 57.9664ZM104.111 96.5277C112.893 85.9658 116.991 71.8345 115.489 58.2356L111.513 58.6748C112.899 71.2215 109.106 84.2646 101.035 93.9703L104.111 96.5277ZM73.5789 114.624C85.4813 112.42 96.4883 105.891 104.124 96.5117L101.022 93.9863C93.9857 102.63 83.8202 108.659 72.8506 110.69L73.5789 114.624ZM41.478 110.409C51.3706 115.21 62.8014 116.644 73.5832 114.623L72.8464 110.691C62.8829 112.559 52.3248 111.227 43.2245 106.81L41.478 110.409ZM16.7844 85.083C21.7007 96.0805 30.6233 105.199 41.4859 110.412L43.2166 106.806C33.2005 101.999 24.9626 93.5761 20.4361 83.4505L16.7844 85.083ZM13.9167 50.6149C10.8594 61.9959 11.9179 74.3826 16.7897 85.0947L20.4308 83.4388C15.9398 73.5639 14.9654 62.129 17.7798 51.6527L13.9167 50.6149ZM35.7039 20.5723C25.0909 27.4706 17.1042 38.3516 13.9126 50.6307L17.7839 51.637C20.718 40.3487 28.0862 30.2944 37.8838 23.9261L35.7039 20.5723ZM70.0174 12.5549C58.1174 11.116 45.7244 13.976 35.6941 20.5787L37.8935 23.9198C47.1237 17.8437 58.5654 15.1993 69.5372 16.5259L70.0174 12.5549ZM72.3338 10.8689C72.206 11.8777 71.0722 12.7233 70.0956 12.5659L69.459 16.5149C72.7087 17.0388 75.8951 14.5845 76.3021 11.3715L72.3338 10.8689ZM70.7936 8.44488C71.7481 8.60026 72.5508 9.73692 72.3552 10.7359L76.2807 11.5045C76.9012 8.3351 74.6675 5.02282 71.4362 4.49684L70.7936 8.44488ZM84.3334 14.9292C84.2933 14.3239 84.6293 13.6595 85.3088 13.2178C85.9834 12.7792 86.7027 12.7488 87.2325 13.0399L89.1591 9.53447C87.0877 8.39605 84.7811 8.78981 83.1285 9.86424C81.4807 10.9355 80.1883 12.873 80.3421 15.1937L84.3334 14.9292ZM84.311 36.5075C84.3028 29.3568 84.2947 22.2146 84.3377 15.0735L80.3378 15.0494C80.2947 22.2072 80.3029 29.3638 80.311 36.512L84.311 36.5075ZM84.3175 45.0616C84.3175 42.2097 84.3142 39.3579 84.311 36.5075L80.311 36.512C80.3142 39.3628 80.3175 42.2123 80.3175 45.0616H84.3175ZM65.6269 39.69C71.3045 40.0275 76.8017 42.5455 80.9336 46.5055L83.7013 43.6177C78.9255 39.0405 72.5457 36.0943 65.8643 35.697L65.6269 39.69ZM45.3004 48.4427C50.1338 42.5125 57.9609 39.1159 65.5962 39.6879L65.895 35.6991C56.9451 35.0286 47.8525 38.9801 42.1998 45.9156L45.3004 48.4427ZM39.7367 64.4658C39.5397 58.6969 41.5578 52.8871 45.2798 48.4675L42.2203 45.8909C37.8637 51.0639 35.5081 57.8393 35.739 64.6023L39.7367 64.4658ZM47.3449 81.479C42.6724 77.1385 39.8238 70.8668 39.7377 64.507L35.7381 64.5611C35.8393 72.0421 39.1699 79.3444 44.6225 84.4096L47.3449 81.479ZM67.5069 87.8372C60.3232 88.9961 52.663 86.506 47.3576 81.4909L44.6098 84.3977C50.7804 90.2306 59.6786 93.1518 68.144 91.7862L67.5069 87.8372ZM88.2432 65.1061C87.9303 76.2905 78.6737 86.383 67.5673 87.8284L68.0836 91.795C81.1063 90.1001 91.8728 78.403 92.2416 65.2179L88.2432 65.1061ZM88.2702 42.5054C88.2755 50.0602 88.2808 57.6074 88.2424 65.1518L92.2424 65.1721C92.2808 57.6143 92.2755 50.0555 92.2702 42.5026L88.2702 42.5054ZM88.2893 21.7131C88.2605 28.6465 88.2654 35.5792 88.2702 42.5054L92.2702 42.5026C92.2654 35.5748 92.2605 28.6518 92.2893 21.7297L88.2893 21.7131ZM110.855 41.8196C106.618 32.8893 99.7615 25.2062 91.3381 20.0185L89.2405 23.4244C97.0003 28.2034 103.333 35.2966 107.241 43.5341L110.855 41.8196ZM112.983 43.4151C112.272 43.515 111.317 42.9791 110.908 41.9432L107.187 43.4105C108.09 45.7012 110.545 47.7973 113.54 47.3761L112.983 43.4151ZM114.882 40.5443C115.129 41.0386 115.106 41.7364 114.718 42.3941C114.332 43.0493 113.751 43.3843 113.217 43.3961L113.305 47.3951C115.493 47.3468 117.223 46.0219 118.164 44.4259C119.104 42.8324 119.425 40.6878 118.461 38.7573L114.882 40.5443ZM87.3683 13.108C99.396 18.5737 109.344 28.4841 114.854 40.4853L118.489 38.8162C112.577 25.9408 101.927 15.3301 89.0232 9.46638L87.3683 13.108ZM61.8939 43.6676C56.3743 44.2604 51.1942 47.1717 47.8305 51.5848L51.0118 54.0096C53.7071 50.4734 57.8896 48.1207 62.3211 47.6447L61.8939 43.6676ZM80.9182 52.6627C76.8789 46.4463 69.2481 42.8654 61.8907 43.668L62.3244 47.6444C68.1947 47.004 74.3545 49.9027 77.5641 54.8421L80.9182 52.6627ZM76.6597 79.7C84.8173 73.4995 86.7732 60.9922 80.8775 52.6025L77.6048 54.9023C82.2617 61.5293 80.687 71.6145 74.2392 76.5155L76.6597 79.7ZM49.4846 78.0445C56.4643 85.4413 68.9337 86.1721 76.7334 79.6411L74.1654 76.5743C67.9883 81.7467 57.9201 81.1557 52.3939 75.2993L49.4846 78.0445ZM47.8577 51.5499C41.7058 59.261 42.46 71.2373 49.5471 78.1079L52.3313 75.2359C46.7253 69.8012 46.1154 60.1477 50.9846 54.0445L47.8577 51.5499Z" fill="url(#paint1_linear_678_240)"/>
<defs>
<linearGradient id="paint0_linear_678_240" x1="77.3833" y1="90.1178" x2="77.3833" y2="10.8488" gradientUnits="userSpaceOnUse">
<stop stop-color="#02AA93"/>
<stop offset="1" stop-color="#67FF80"/>
</linearGradient>
<linearGradient id="paint1_linear_678_240" x1="77.3833" y1="90.1178" x2="77.3833" y2="10.8488" gradientUnits="userSpaceOnUse">
<stop stop-color="#02AA93"/>
<stop offset="1" stop-color="#67FF80"/>
</linearGradient>
</defs>
</svg>
