<svg width="64" height="64" viewBox="0 0 64 64" fill="none" xmlns="http://www.w3.org/2000/svg">
<path fill-rule="evenodd" clip-rule="evenodd" d="M14.1844 4C13.1865 4 12.1807 4.02739 11.2063 4.26221C7.08536 5.1819 3.9311 9.1659 4.00545 13.3965L4.00361 18.0926C3.99978 27.4852 3.99595 36.8778 4.00936 46.2704C3.97023 50.9783 7.98546 55.2559 12.6895 55.4868C16.3313 55.5366 19.9732 55.5217 23.6122 55.5068L24.696 55.5025C25.8505 55.5221 26.8524 54.4849 26.8719 53.35C26.9619 52.172 25.964 51.0332 24.7782 51.0019C22.8138 50.9471 20.8475 50.9578 18.8806 50.9686C16.9135 50.9794 14.9457 50.9901 12.9791 50.9353C10.4588 50.7984 8.41594 48.4032 8.53335 45.9064C8.5259 40.9976 8.52732 36.088 8.52874 31.1782C8.5303 25.7777 8.53186 20.377 8.52161 14.9775C8.52338 14.8061 8.52293 14.6336 8.52248 14.4604C8.51993 13.4832 8.51734 12.4876 8.91295 11.5767C9.63304 9.78424 11.4919 8.52408 13.4291 8.55538C18.1123 8.55182 22.7964 8.55231 27.4809 8.5528C33.0994 8.55338 38.7186 8.55396 44.3378 8.54756C44.5792 8.55168 44.8229 8.54904 45.0674 8.54638C45.9841 8.53643 46.9119 8.52635 47.7738 8.87238C49.6053 9.54552 50.9202 11.4084 50.9046 13.3651C50.9218 15.1622 50.9175 16.9593 50.9132 18.7563C50.9087 20.6299 50.9042 22.5043 50.9242 24.3779C50.8694 25.4033 51.5503 26.409 52.5522 26.683C53.9845 27.18 55.6203 25.8729 55.4599 24.3622C55.4721 22.6024 55.4695 20.8436 55.467 19.0847V19.0833C55.4646 17.4476 55.4622 15.8119 55.4716 14.1753C55.5068 12.5668 55.2955 10.9231 54.595 9.45942C53.151 6.26987 49.8088 4.04305 46.2984 4.01565C40.5644 4.00098 34.8294 4.00315 29.0944 4.00532C24.124 4.0072 19.1538 4.00909 14.1844 4ZM23.5394 14.2674C21.9149 14.2207 20.2796 14.1737 18.6887 14.4807C16.775 15.009 15.1783 16.5275 14.5561 18.4138C14.1548 19.7987 14.1978 21.2511 14.2403 22.6884C14.253 23.1154 14.2656 23.5411 14.2665 23.9632C14.2508 25.2117 15.6205 26.1314 16.7867 25.7713C17.9295 25.5052 18.403 24.2646 18.2739 23.2001C18.3096 22.7992 18.2884 22.3546 18.2667 21.9001C18.2052 20.6107 18.1398 19.2404 19.3579 18.5547C20.3694 18.1879 21.4561 18.2401 22.5433 18.2923C23.6603 18.3459 24.778 18.3996 25.8152 17.999C27.4041 17.1849 26.9188 14.4611 25.1225 14.3007C24.5973 14.2978 24.0689 14.2826 23.5394 14.2674ZM34.6755 14.3471C35.7413 14.2184 36.8185 14.2373 37.8951 14.2562C38.3565 14.2643 38.8177 14.2724 39.2778 14.2689C42.3812 14.2493 45.1637 16.9927 45.2068 20.0923C45.2087 20.4357 45.2162 20.7803 45.2237 21.1254C45.247 22.1922 45.2704 23.2643 45.1284 24.3228C44.7136 25.9195 42.3186 26.2092 41.5045 24.7885C41.1166 23.9898 41.1675 23.0412 41.218 22.0995C41.2882 20.7896 41.3578 19.4931 40.2445 18.6325C39.2939 18.1803 38.2432 18.2349 37.191 18.2895C36.1942 18.3412 35.196 18.3931 34.2803 18.0142C32.7893 17.2471 33.0554 14.7776 34.6755 14.3471ZM18.2701 35.3125C18.634 33.6139 16.6264 32.0877 15.151 33.1286C14.2026 33.6822 14.2166 34.8202 14.2287 35.8014C14.23 35.9094 14.2313 36.0154 14.2313 36.1186C14.2528 36.6148 14.2439 37.1181 14.235 37.6226C14.2115 38.9565 14.1878 40.2991 14.7244 41.5428C15.6441 43.7931 18.0078 45.3429 20.4459 45.2724C21.0372 45.2532 21.6313 45.2653 22.2255 45.2775C23.3224 45.2999 24.4193 45.3224 25.4982 45.1472C27.1928 44.6032 27.1889 41.942 25.5178 41.3785C24.579 41.1719 23.6123 41.207 22.6473 41.242C21.5649 41.2813 20.4845 41.3205 19.448 41.0184C18.0585 40.2108 18.1635 38.6721 18.2651 37.1819C18.3097 36.5274 18.3537 35.8822 18.2701 35.3125Z" fill="url(#paint0_linear_640_134)" stroke="url(#paint1_linear_640_134)" stroke-width="2"/>
<path d="M40.9843 30.1466C47.7076 28.2485 55.3898 31.7316 58.3993 38.0246C60.45 42.0634 60.5321 47.0296 58.638 51.1428C57.1861 54.3363 54.5875 56.9858 51.4255 58.5042C47.5433 60.3945 42.8432 60.5002 38.8828 58.7821C35.4741 57.3419 32.6486 54.5907 31.0988 51.2289C29.3103 47.4289 29.2203 42.8852 30.8366 39.0108C32.6016 34.6941 36.4681 31.3089 40.9843 30.1466ZM43.2737 34.3301C38.9493 34.9289 35.2471 38.4629 34.4409 42.7561C33.5408 46.9475 35.525 51.5381 39.1645 53.7923C43.3441 56.5788 49.4139 55.7374 52.7012 51.9451C56.0825 48.3485 56.3642 42.3608 53.3196 38.4707C51.0537 35.3907 47.0502 33.7274 43.2737 34.3301Z" fill="url(#paint2_linear_640_134)" stroke="url(#paint3_linear_640_134)"/>
<defs>
<linearGradient id="paint0_linear_640_134" x1="29.7377" y1="55.5211" x2="29.7377" y2="4" gradientUnits="userSpaceOnUse">
<stop stop-color="#FD7900"/>
<stop offset="1" stop-color="#FF0000"/>
</linearGradient>
<linearGradient id="paint1_linear_640_134" x1="29.7377" y1="55.5211" x2="29.7377" y2="4" gradientUnits="userSpaceOnUse">
<stop stop-color="#FD7900"/>
<stop offset="1" stop-color="#FF0000"/>
</linearGradient>
<linearGradient id="paint2_linear_640_134" x1="54.5147" y1="29.6294" x2="29.6308" y2="59.9536" gradientUnits="userSpaceOnUse">
<stop stop-color="#DE00C0"/>
<stop offset="1" stop-color="#8720FF"/>
</linearGradient>
<linearGradient id="paint3_linear_640_134" x1="54.5147" y1="29.6294" x2="29.6308" y2="59.9536" gradientUnits="userSpaceOnUse">
<stop stop-color="#DE00C0"/>
<stop offset="1" stop-color="#8720FF"/>
</linearGradient>
</defs>
</svg>
