<svg width="192" height="192" viewBox="0 0 192 192" fill="none" xmlns="http://www.w3.org/2000/svg">
<path d="M94.0504 10.05C97.3904 8.79995 100.73 10.65 102.73 13.28C114.74 26.43 132.29 33.82 150.02 34.11C159.11 34.03 167.46 41.84 167.6 51.01C167.71 62.65 167.65 74.3 167.63 85.95C166.56 99.15 164.91 112.51 160.02 124.92C153.68 141.92 141.69 156.7 126.44 166.53C117.92 172.2 108.39 176.12 98.8504 179.72C95.0004 181.42 91.3504 178.4 87.7604 177.34C68.0704 170.01 49.9804 156.92 39.2804 138.56C29.5904 122.47 26.1504 103.51 25.1504 84.99C25.1504 73.98 25.1504 62.96 25.1604 51.95C24.9304 44.86 29.5604 37.99 36.1504 35.43C40.2404 33.74 44.7704 34.26 49.0704 33.67C64.1904 32.15 78.6504 25.13 89.1504 14.13C90.7004 12.7 91.9504 10.71 94.0504 10.05ZM92.9304 26.85C79.7904 38.47 62.5204 45.23 45.0004 45.82C42.1204 45.86 38.5504 46.45 37.4304 49.56C36.3204 53.97 37.4004 58.55 36.9404 63.03C37.3204 71.73 36.4304 80.45 37.3204 89.13C38.0504 96.55 38.8604 103.99 40.7704 111.22C44.2104 125.16 51.4204 138.29 61.9804 148.1C71.6704 157.33 83.8704 163.3 96.3004 167.92C112.41 162.17 128.05 153.37 138.5 139.48C150.97 123.48 154.93 102.76 155.76 82.95C155.7 72.6 155.8 62.25 155.71 51.91C155.75 49.48 154.14 47.05 151.77 46.38C149.21 45.82 146.58 45.83 143.98 45.6C126.27 44.2 109.18 36.39 96.5504 23.89C95.2504 24.77 94.0704 25.79 92.9304 26.85Z" fill="url(#paint0_linear)" stroke="url(#paint1_linear)" stroke-width="4"/>
<path d="M108.44 63.3098C111.7 59.8298 118.1 62.3098 118.4 66.9898C118.85 69.5898 116.99 71.6698 115.27 73.3298C109.09 79.3498 103.16 85.6298 96.8705 91.5298C102.9 91.6898 108.94 91.4198 114.97 91.7198C119.34 92.2598 121.47 98.2498 118.42 101.41C108.33 111.64 98.1005 121.75 87.9605 131.93C86.0705 134.18 82.4405 134.53 80.0605 132.9C77.2305 130.95 76.6405 126.49 79.1105 124.01C85.8605 117.08 92.8005 110.34 99.5805 103.44C93.3605 103.4 87.1205 103.7 80.9105 103.3C76.7505 102.16 75.1705 96.3298 78.3705 93.3698C88.3705 83.3298 98.3805 73.2898 108.44 63.3098Z" fill="url(#paint2_linear)" stroke="url(#paint3_linear)" stroke-width="4"/>
<defs>
<linearGradient id="paint0_linear" x1="141.874" y1="9.65039" x2="-0.600007" y2="154.985" gradientUnits="userSpaceOnUse">
<stop stop-color="#DE00C0"/>
<stop offset="1" stop-color="#8720FF"/>
</linearGradient>
<linearGradient id="paint1_linear" x1="141.874" y1="9.65039" x2="-0.600007" y2="154.985" gradientUnits="userSpaceOnUse">
<stop stop-color="#DE00C0"/>
<stop offset="1" stop-color="#8720FF"/>
</linearGradient>
<linearGradient id="paint2_linear" x1="112.038" y1="61.6763" x2="54.5646" y2="103.627" gradientUnits="userSpaceOnUse">
<stop stop-color="#DE00C0"/>
<stop offset="1" stop-color="#8720FF"/>
</linearGradient>
<linearGradient id="paint3_linear" x1="112.038" y1="61.6763" x2="54.5646" y2="103.627" gradientUnits="userSpaceOnUse">
<stop stop-color="#DE00C0"/>
<stop offset="1" stop-color="#8720FF"/>
</linearGradient>
</defs>
</svg>
