<svg width="64" height="64" viewBox="0 0 64 64" fill="none" xmlns="http://www.w3.org/2000/svg">
<path d="M42.1641 33.6778L26.8402 42.569C25.5397 43.3229 23.8708 42.4101 23.8708 40.8905V23.1079C23.8708 21.5906 25.5374 20.6755 26.8402 21.4317L42.1641 30.323C42.4599 30.4919 42.7057 30.736 42.8768 31.0306C43.0479 31.3251 43.1379 31.6597 43.1379 32.0004C43.1379 32.341 43.0479 32.6755 42.8768 32.9702C42.7057 33.2647 42.4599 33.5089 42.1641 33.6778Z" fill="url(#paint0_linear)"/>
<path fill-rule="evenodd" clip-rule="evenodd" d="M9.41935 13.9355C9.41935 11.4413 11.4413 9.41935 13.9355 9.41935H25.4051L9.41935 25.4051V13.9355ZM33.8606 9.59087C33.9133 9.53818 33.9599 9.48084 34.0004 9.41935H50.0645C52.5587 9.41935 54.5806 11.4413 54.5806 13.9355V30.9329L30.9329 54.5806H13.9355C11.4413 54.5806 9.41935 52.5587 9.41935 50.0645V34.0004C9.48084 33.9599 9.53818 33.9133 9.59087 33.8606L33.8606 9.59087ZM39.5468 54.5806H50.0645C52.5587 54.5806 54.5806 52.5587 54.5806 50.0645V39.5468L39.5468 54.5806ZM13.9355 4C8.44827 4 4 8.44827 4 13.9355V50.0645C4 55.5517 8.44827 60 13.9355 60H50.0645C55.5517 60 60 55.5517 60 50.0645V13.9355C60 8.44827 55.5517 4 50.0645 4H13.9355Z" fill="url(#paint1_linear)"/>
<defs>
<linearGradient id="paint0_linear" x1="23.8708" y1="21.1611" x2="45.3985" y2="40.2951" gradientUnits="userSpaceOnUse">
<stop stop-color="#FFC823"/>
<stop offset="1" stop-color="#FF2F78"/>
</linearGradient>
<linearGradient id="paint1_linear" x1="32" y1="60" x2="32" y2="4" gradientUnits="userSpaceOnUse">
<stop stop-color="#A93AFF"/>
<stop offset="1" stop-color="#FF81FF"/>
</linearGradient>
</defs>
</svg>
