<svg width="192" height="192" viewBox="0 0 192 192" fill="none" xmlns="http://www.w3.org/2000/svg">
<path fill-rule="evenodd" clip-rule="evenodd" d="M30.1394 12.7281C33.2474 11.9684 36.4466 11.9871 39.6257 12.0058C40.2339 12.0093 40.8414 12.0129 41.4474 12.011C57.7488 12.0261 74.0502 12.0218 90.3516 12.0175C112.077 12.0118 133.802 12.006 155.527 12.0463C167.552 11.9288 178.484 22.3325 178.954 34.3586C179.092 41.1548 179.068 47.9566 179.043 54.7601V54.7616V54.7632C179.032 57.7968 179.021 60.8315 179.024 63.8654C179.248 66.9219 177.261 69.9314 174.275 70.7543C170.455 72.0944 165.8 69.0144 165.73 64.9234C165.58 60.175 165.614 55.4213 165.647 50.6673C165.685 45.3704 165.723 40.0725 165.506 34.7818C165.071 29.2919 159.794 25.0951 154.386 25.4125C141.674 25.4163 128.961 25.4092 116.248 25.402C89.4142 25.387 62.577 25.3719 35.7464 25.4596C29.8573 25.4243 25.0144 30.926 25.4258 36.7215C25.4023 75.9385 25.4023 115.156 25.4258 154.373C25.0966 159.78 29.2696 165.047 34.7472 165.505C39.8021 165.755 44.8708 165.705 49.9386 165.655H49.9396H49.9407C55.3369 165.602 60.7322 165.549 66.1088 165.858C72.1272 167.092 72.7502 176.461 67.0021 178.507C63.6523 179.262 60.2122 179.161 56.7725 179.061C54.8047 179.003 52.837 178.945 50.8864 179.048C48.5552 178.961 46.2106 179.007 43.8644 179.054C39.2661 179.146 34.6615 179.237 30.1394 178.319C22.0052 176.332 15.2109 169.737 12.9423 161.685C11.9611 158.251 11.9841 154.665 12.0069 151.122C12.0103 150.59 12.0137 150.059 12.0137 149.529C12.0346 132.644 12.0276 115.756 12.0206 98.8696C12.0119 77.7585 12.0032 56.6486 12.0489 35.546C12.0137 24.9893 19.9246 15.1616 30.1394 12.7281ZM53.5316 40.6362C56.7759 37.3093 63.0882 38.814 64.4517 43.2577C64.9564 45.7403 64.9031 48.2737 64.8499 50.8031C64.8262 51.9268 64.8026 53.0497 64.8279 54.167C66.1486 54.2844 67.5323 54.2278 68.925 54.1708C71.9947 54.0451 75.1081 53.9176 77.6875 55.6482C81.9075 58.6576 80.5792 66.0402 75.5482 67.3451C73.0745 67.7561 70.5662 67.7131 68.0597 67.6701C66.9814 67.6516 65.9027 67.6331 64.8279 67.6508C64.81 68.7383 64.8302 69.8292 64.8505 70.9203C64.8967 73.4146 64.9429 75.9103 64.534 78.3719C63.288 83.0625 56.6701 84.673 53.3788 81.0993C51.0702 78.5439 51.2423 75.1502 51.4106 71.8291C51.4831 70.3986 51.5549 68.9815 51.4275 67.6508C50.1085 67.556 48.7549 67.6111 47.3976 67.6664C44.7151 67.7757 42.0179 67.8856 39.5435 66.8396C34.8417 64.606 34.971 57.0706 39.6964 54.9428C42.2542 54.0097 44.9826 54.0894 47.6971 54.1687C48.9495 54.2053 50.1992 54.2418 51.4275 54.1787C51.5484 52.8702 51.4776 51.4725 51.406 50.0597C51.234 46.6619 51.0575 43.1769 53.5316 40.6362ZM118.698 54.1923C116.958 54.1995 115.187 54.2068 113.621 54.9898C108.108 57.482 109.343 66.675 115.384 67.4861C122.597 67.7337 129.826 67.6937 137.053 67.6536C140.461 67.6347 143.87 67.6159 147.275 67.6272C150.778 67.8506 154.081 64.9469 154.21 61.432C154.645 57.5996 151.213 54.0376 147.381 54.2375C142.52 54.1553 137.652 54.1716 132.784 54.1878C128.589 54.2018 124.394 54.2158 120.204 54.1669C119.709 54.1881 119.205 54.1902 118.698 54.1923ZM49.6285 116.46C44.5975 114.321 38.92 119.764 40.8713 124.878C42.0305 127.317 44.0114 129.167 45.983 131.008C46.8901 131.855 47.7953 132.7 48.6176 133.6C47.7542 134.566 46.8138 135.474 45.8729 136.382C44.1111 138.082 42.3472 139.784 41.0829 141.876C38.8377 146.555 43.4338 152.362 48.5118 151.14C51.3528 150.319 53.3452 148.148 55.3228 145.992C56.2335 144.999 57.1413 144.01 58.1272 143.158C59.0922 144.01 59.9879 144.968 60.8854 145.929C62.7756 147.953 64.6744 149.986 67.2488 151.046C72.4914 152.75 77.6987 146.59 75.1244 141.712C73.8152 139.585 72.008 137.86 70.2052 136.139C69.3372 135.31 68.47 134.483 67.6602 133.612C68.5154 132.612 69.5211 131.695 70.531 130.775C72.7275 128.772 74.9441 126.751 75.6769 123.82C76.7231 118.741 70.834 114.286 66.2261 116.649C64.1494 117.973 62.4489 119.747 60.7484 121.521C59.8982 122.407 59.0479 123.294 58.1507 124.125C57.2744 123.315 56.4454 122.438 55.6153 121.56C53.7952 119.635 51.9696 117.704 49.6285 116.46Z" fill="url(#paint0_linear)"/>
<path fill-rule="evenodd" clip-rule="evenodd" d="M103.941 88.0003C101.309 87.9886 98.6045 88.2821 96.2417 89.5164C91.3169 91.9032 87.9551 97.1932 88.0488 102.682C88.0435 105.703 88.0405 108.725 88.0391 111.747C88.0366 117.287 88.0396 122.828 88.0425 128.371L88.0425 128.373V128.385V128.457C88.0484 139.845 88.0537 151.236 88.0137 162.626C87.9194 165.787 88.2842 169.091 89.9766 171.853C92.7276 176.721 98.3228 179.576 103.872 179.247C112.626 179.213 121.383 179.222 130.138 179.233C141.834 179.246 153.528 179.26 165.219 179.165C173.083 179.072 179.725 171.689 179.219 163.884L179.217 160.519C179.215 155.04 179.217 149.561 179.22 144.082L179.221 141.882V141.867C179.223 136.889 179.226 131.911 179.226 126.933C179.225 118.865 179.218 110.798 179.196 102.73C179.431 95.0536 172.66 88.012 164.96 88.0472C162.71 88.0394 160.46 88.0335 158.21 88.0296C150.292 88.015 142.372 88.0194 134.452 88.0238H134.446C124.277 88.0296 114.107 88.0355 103.941 88.0003ZM102 110C102 105.581 105.582 102 110 102H157C161.418 102 165 105.581 165 110V158C165 162.418 161.418 166 157 166H110C105.582 166 102 162.418 102 158V110ZM116.63 117.336C123.658 116.917 130.721 116.982 137.784 117.048C141.6 117.084 145.416 117.119 149.226 117.078C153.411 116.749 157.031 121.039 155.984 125.13C155.373 128.786 151.552 130.891 148.049 130.479C144.075 130.416 140.096 130.448 136.12 130.481C129.75 130.533 123.384 130.584 117.03 130.244C110.565 129.115 110.306 118.912 116.63 117.336ZM121.256 137.598L121.245 137.598C119.268 137.57 117.264 137.542 115.467 138.414C109.977 140.942 111.305 150.17 117.359 150.887C122.893 151.171 128.44 151.129 133.989 151.087L133.991 151.087C137.87 151.057 141.751 151.028 145.629 151.11L146.01 151.116C149.168 151.167 152.915 151.227 154.88 148.301C157.866 144.504 155.256 138.073 150.355 137.744C145.103 137.538 139.842 137.572 134.583 137.606C130.814 137.631 127.048 137.655 123.284 137.591C122.619 137.618 121.941 137.608 121.259 137.598H121.259H121.259H121.259L121.256 137.598Z" fill="url(#paint1_linear)"/>
<defs>
<linearGradient id="paint0_linear" x1="95.5311" y1="179.13" x2="95.5311" y2="12" gradientUnits="userSpaceOnUse">
<stop stop-color="#A93AFF"/>
<stop offset="1" stop-color="#FF81FF"/>
</linearGradient>
<linearGradient id="paint1_linear" x1="133.623" y1="179.273" x2="133.623" y2="88" gradientUnits="userSpaceOnUse">
<stop stop-color="#00B59C"/>
<stop offset="1" stop-color="#9CFFAC"/>
</linearGradient>
</defs>
</svg>
