<svg width="64" height="64" viewBox="0 0 64 64" fill="none" xmlns="http://www.w3.org/2000/svg">
<path d="M18.3312 13.7021L12.0942 16.011C10.5435 16.5851 9.28051 17.7615 8.58307 19.2816C7.88563 20.8018 7.81082 22.5412 8.37508 24.1173L19.0191 53.8385C19.2987 54.6191 19.727 55.3363 20.2794 55.9487C20.8319 56.5612 21.4975 57.0571 22.2386 57.4081C22.9796 57.7591 23.7814 57.9582 24.5982 57.9943C25.415 58.0303 26.2307 57.9024 26.9989 57.618L44.3281 50.6661" stroke="url(#paint0_linear)" stroke-width="5" stroke-linecap="round" stroke-linejoin="round"/>
<path fill-rule="evenodd" clip-rule="evenodd" d="M26.0508 18.8488C26.0508 17.5667 27.0902 16.5273 28.3722 16.5273H43.9336C45.2157 16.5273 46.255 17.5667 46.255 18.8488C46.255 20.1308 45.2157 21.1702 43.9336 21.1702H28.3722C27.0902 21.1702 26.0508 20.1308 26.0508 18.8488ZM25.9536 28.1396C25.9536 26.8575 26.9929 25.8182 28.275 25.8182H46.9486C48.2307 25.8182 49.27 26.8575 49.27 28.1396C49.27 29.4217 48.2307 30.461 46.9486 30.461H28.275C26.9929 30.461 25.9536 29.4217 25.9536 28.1396ZM28.3722 35.2077C27.0902 35.2077 26.0508 36.247 26.0508 37.5291C26.0508 38.8112 27.0902 39.8505 28.3722 39.8505H37.7091C38.9911 39.8505 40.0305 38.8112 40.0305 37.5291C40.0305 36.247 38.9911 35.2077 37.7091 35.2077H28.3722Z" fill="url(#paint1_linear)"/>
<path fill-rule="evenodd" clip-rule="evenodd" d="M56.2858 43.9539V12.3257C56.2858 10.648 55.6299 9.03903 54.4626 7.85274C53.2952 6.66645 51.712 6 50.0612 6H25.163C23.5121 6 21.9289 6.66645 20.7616 7.85274C19.5942 9.03903 18.9385 10.648 18.9385 12.3257V43.9539C18.9385 45.6317 19.5942 47.2406 20.7616 48.4268C21.9289 49.6132 23.5121 50.2796 25.163 50.2796H50.0612C51.712 50.2796 53.2952 49.6132 54.4626 48.4268C55.6299 47.2406 56.2858 45.6317 56.2858 43.9539Z" stroke="url(#paint2_linear)" stroke-width="5" stroke-linecap="round" stroke-linejoin="round"/>
<defs>
<linearGradient id="paint0_linear" x1="26.164" y1="58.0002" x2="26.164" y2="13.7021" gradientUnits="userSpaceOnUse">
<stop stop-color="#FD5900"/>
<stop offset="1" stop-color="#FFDE00"/>
</linearGradient>
<linearGradient id="paint1_linear" x1="37.6118" y1="39.8505" x2="37.6118" y2="16.5273" gradientUnits="userSpaceOnUse">
<stop stop-color="#5570FF"/>
<stop offset="1" stop-color="#4DD3FF"/>
</linearGradient>
<linearGradient id="paint2_linear" x1="37.6121" y1="50.2796" x2="37.6121" y2="6" gradientUnits="userSpaceOnUse">
<stop stop-color="#5570FF"/>
<stop offset="1" stop-color="#4DD3FF"/>
</linearGradient>
</defs>
</svg>
