<svg width="128" height="128" viewBox="0 0 128 128" fill="none" xmlns="http://www.w3.org/2000/svg">
<path d="M105.381 6.75139L105.376 6.75221L105.372 6.75308C98.2603 8.14488 91.1424 9.51551 84.0219 10.8865C72.5229 13.1006 61.0194 15.3156 49.5343 17.6221C47.6981 17.7324 46.2419 18.7915 45.2857 20.172C44.329 21.553 43.8328 23.306 43.9312 24.9219C43.9433 32.5501 43.9414 40.18 43.9394 47.8105C43.9364 59.529 43.9334 71.2489 43.9814 82.9674C39.1616 80.2803 33.2601 79.6353 27.9644 81.211C20.0077 83.4795 13.8401 90.8233 13.129 99.0551C12.2883 106.236 15.6134 113.655 21.4674 117.914C26.7469 121.849 33.9637 123.084 40.2481 120.995C46.5895 119.041 51.6923 113.845 53.7407 107.603C54.6708 105.451 54.8648 103.209 54.8419 101.007C54.8314 99.9985 54.7748 98.9851 54.7194 97.9915C54.7142 97.8967 54.7089 97.8032 54.7037 97.709C54.6433 96.6186 54.5895 95.5518 54.5991 94.5041V94.4984C54.6021 89.2921 54.6017 84.0871 54.6014 78.8821C54.6008 70.3786 54.6002 61.8775 54.614 53.3783C57.5764 52.7454 60.5722 52.2805 63.5899 51.8121L63.6184 51.8077C66.8083 51.3126 70.0228 50.8132 73.2061 50.1082L73.2086 50.1078C75.2863 49.6404 77.392 49.3123 79.5212 48.9804C79.7705 48.9416 80.0199 48.9026 80.2699 48.8634C82.646 48.491 85.0449 48.0939 87.4063 47.475L87.4196 47.4715L87.4324 47.4675C88.7015 47.076 89.8669 46.2057 90.6169 45.092C91.3708 43.9723 91.7302 42.5642 91.2887 41.1353L91.2715 41.0801L91.2448 41.0288C90.6729 39.9329 89.7804 38.85 88.6748 38.1303C87.5679 37.4097 86.2148 37.0369 84.7758 37.4435C83.9024 37.617 83.0321 37.795 82.1644 37.9726C78.5924 38.7031 75.0528 39.4271 71.4535 39.8069L71.4357 39.8088L71.4179 39.8116C69.0679 40.1933 66.7307 40.6501 64.4053 41.1044C63.8123 41.2203 63.2201 41.336 62.6287 41.4503C59.9505 41.9677 57.2826 42.457 54.5967 42.8068C54.6136 40.306 54.6109 37.8071 54.6083 35.3112L54.608 35.0159C54.6052 32.353 54.6033 29.6934 54.6259 27.0329C55.9442 26.7839 57.2628 26.5351 58.5814 26.2863C73.9408 23.3885 89.3186 20.4872 104.635 17.3002C104.692 27.2762 104.684 37.2362 104.675 47.1975C104.668 55.8 104.661 64.4035 104.696 73.0193C98.8837 70.3379 91.6564 70.8494 86.4559 74.714C80.4538 78.9126 77.621 86.9504 79.6497 93.9557C81.3336 100.35 86.8687 105.529 93.3931 106.789C99.2024 108.012 105.519 106.084 109.671 101.876C113.883 97.7166 115.538 91.5778 115.109 85.8791C115.079 72.2273 115.087 58.5763 115.094 44.9248C115.101 33.8343 115.108 22.7434 115.094 11.6508C115.29 9.29839 113.522 7.51761 111.915 6.48962L111.877 6.46532L111.835 6.44662C110.689 5.92453 109.526 5.93601 108.443 6.10037C107.903 6.18237 107.368 6.30496 106.859 6.42506C106.802 6.43852 106.745 6.45194 106.689 6.46528C106.235 6.57274 105.804 6.67473 105.381 6.75139ZM94.0859 82.0183L94.0941 82.0151L94.1018 82.0113C96.2806 81.0348 98.8074 81.351 100.856 82.5508C102.904 83.7506 104.399 85.7869 104.577 88.1565L104.579 88.1953L104.587 88.2329C105.054 90.5892 104.143 92.9582 102.469 94.6561C100.794 96.3546 98.4162 97.3197 96.0344 96.9354L96.0147 96.9323L95.9943 96.9304C91.6278 96.506 88.3249 91.8685 89.3567 87.6343L89.3593 87.6234L89.3618 87.6126C89.8746 85.1342 91.7277 82.9986 94.0859 82.0183ZM30.5263 91.0129L30.5313 91.011L30.5362 91.0097C35.7084 89.2208 42.0954 92.1261 43.7406 97.3292C44.1046 99.8573 44.0563 102.473 43.8076 105.053C42.082 110.062 36.1007 113.023 30.9834 111.484L30.9723 111.48L30.9612 111.477C25.7884 110.123 22.247 104.473 23.34 99.258L23.3418 99.2491L23.3434 99.2409C24.0249 95.4755 26.879 92.2069 30.5263 91.0129Z" fill="url(#paint0_linear)" stroke="url(#paint1_linear)" stroke-width="2"/>
<defs>
<linearGradient id="paint0_linear" x1="64.0872" y1="122" x2="64.0872" y2="6" gradientUnits="userSpaceOnUse">
<stop stop-color="#FFA800"/>
<stop offset="1" stop-color="#FFF737"/>
</linearGradient>
<linearGradient id="paint1_linear" x1="64.0872" y1="122" x2="64.0872" y2="6" gradientUnits="userSpaceOnUse">
<stop stop-color="#FFA800"/>
<stop offset="1" stop-color="#FFF737"/>
</linearGradient>
</defs>
</svg>
