<svg width="64" height="64" viewBox="0 0 64 64" fill="none" xmlns="http://www.w3.org/2000/svg">
<path d="M26.6168 2.55161C33.2931 1.17212 40.3979 2.43771 46.367 5.70293C53.8836 9.81187 59.545 17.3168 61.3212 25.8005C63.871 36.0728 60.1523 47.4631 52.5816 54.639C49.1249 57.997 44.8196 60.2624 40.323 61.8233C39.4994 61.4057 38.4844 61.0471 38.1558 60.081C37.7481 59.1951 38.0892 58.1827 38.6674 57.4739C39.3579 56.896 40.2731 56.7568 41.0884 56.4404C47.7356 53.9303 53.1557 48.3828 55.6889 41.6752C57.7688 36.2416 57.8686 30.095 56.1548 24.5518C53.9626 17.5784 48.6632 11.7145 42.0326 8.84159C37.4736 6.79555 32.3156 6.41166 27.4279 7.20476C20.2275 8.49144 13.7467 13.1868 10.1028 19.5991C7.19514 24.5728 6.15522 30.576 6.99964 36.2753C8.16019 45.3074 14.6244 53.3312 23.0228 56.4741C24.1459 56.8411 25.5852 57.1322 25.9263 58.478C26.5211 60.0557 25.0777 61.3508 23.7258 61.7854C19.2 60.2878 14.9114 57.9591 11.4422 54.6179C6.59615 49.9774 3.30998 43.679 2.36157 36.9798C1.02631 28.7113 3.45141 19.9619 8.60944 13.4483C13.0686 7.79537 19.5661 3.77924 26.6168 2.55161Z" fill="url(#paint0_linear)"/>
<path fill-rule="evenodd" clip-rule="evenodd" d="M33.842 15.1734C32.5733 13.7306 29.7947 14.6334 29.7739 16.633C29.7248 19.2335 29.7335 21.8356 29.7421 24.4384C29.7474 26.0283 29.7526 27.6185 29.7447 29.2087C28.4081 28.2482 27.0633 27.3015 25.7192 26.3552C25.3985 26.1294 25.0778 25.9037 24.7573 25.6778C23.9586 25.0998 22.848 24.8298 21.9578 25.3614C20.4811 26.0363 20.3064 28.2891 21.5501 29.2973C23.0388 30.4322 24.574 31.5027 26.1093 32.5732C27.6158 33.6236 29.1224 34.6741 30.585 35.7856C31.392 36.5154 32.7023 36.4901 33.5841 35.9079C36.5459 33.9927 39.5117 32.0816 42.4776 30.1748C42.5295 30.1404 42.5818 30.106 42.6342 30.0715C43.2514 29.6659 43.8972 29.2414 44.2039 28.5338C44.8486 27.2682 44.0292 25.5343 42.6606 25.2475C41.6956 24.9311 40.7471 25.4879 39.961 25.9984C39.2016 26.5071 38.4308 26.999 37.66 27.4911C36.6154 28.1578 35.5706 28.8247 34.5534 29.5336C34.5189 27.4424 34.5314 25.3501 34.5438 23.2573C34.5554 21.3139 34.567 19.37 34.5409 17.4261C34.5242 16.6288 34.3454 15.8062 33.842 15.1734ZM21.7512 40.2063C21.5961 40.234 21.4328 40.2632 21.3299 40.2826C19.013 40.8225 19.2376 44.729 21.6253 44.9652C25.4279 45.0231 29.2319 45.0148 33.0357 45.0066C35.8895 45.0004 38.7431 44.9942 41.596 45.0159C42.6026 45.0876 43.7507 44.7965 44.2332 43.8009C45.3522 42.2484 43.8214 39.983 42.0244 40.1433C39.6702 40.1448 37.3155 40.1432 34.9606 40.1415C30.658 40.1385 26.355 40.1355 22.0537 40.1518C21.9759 40.1661 21.8658 40.1858 21.7512 40.2063Z" fill="url(#paint1_linear)"/>
<path d="M29.7739 16.633L30.7738 16.6519L30.7739 16.6434L29.7739 16.633ZM33.842 15.1734L34.6246 14.5508L34.6093 14.5315L34.593 14.513L33.842 15.1734ZM29.7421 24.4384L28.7421 24.4417L28.7421 24.4417L29.7421 24.4384ZM29.7447 29.2087L29.1612 30.0208L30.7351 31.1517L30.7447 29.2136L29.7447 29.2087ZM25.7192 26.3552L25.1435 27.1729L25.1435 27.1729L25.7192 26.3552ZM24.7573 25.6778L24.171 26.488L24.1812 26.4951L24.7573 25.6778ZM21.9578 25.3614L22.3735 26.2709L22.4234 26.2481L22.4705 26.2199L21.9578 25.3614ZM21.5501 29.2973L20.9204 30.0741L20.932 30.0835L20.9438 30.0925L21.5501 29.2973ZM26.1093 32.5732L26.6813 31.7529L26.6813 31.7529L26.1093 32.5732ZM30.585 35.7856L31.2558 35.0439L31.2241 35.0152L31.1901 34.9894L30.585 35.7856ZM33.5841 35.9079L33.0411 35.0681L33.0332 35.0734L33.5841 35.9079ZM42.4776 30.1748L43.0184 31.0159L43.0244 31.0121L43.0304 31.0081L42.4776 30.1748ZM42.6342 30.0715L42.085 29.2359L42.085 29.2359L42.6342 30.0715ZM44.2039 28.5338L43.3129 28.0799L43.2988 28.1076L43.2864 28.1361L44.2039 28.5338ZM42.6606 25.2475L42.3491 26.1977L42.4015 26.2149L42.4555 26.2262L42.6606 25.2475ZM39.961 25.9984L39.4164 25.1597L39.4104 25.1636L39.4045 25.1675L39.961 25.9984ZM37.66 27.4911L37.122 26.6482L37.122 26.6482L37.66 27.4911ZM34.5534 29.5336L33.5536 29.5501L33.5846 31.4276L35.1252 30.354L34.5534 29.5336ZM34.5438 23.2573L35.5438 23.2633L35.5438 23.2633L34.5438 23.2573ZM34.5409 17.4261L35.5409 17.4127L35.5407 17.4051L34.5409 17.4261ZM21.3299 40.2826L21.1443 39.3L21.1235 39.3039L21.103 39.3087L21.3299 40.2826ZM21.7512 40.2063L21.9271 41.1907L21.9271 41.1907L21.7512 40.2063ZM21.6253 44.9652L21.5269 45.9604L21.5684 45.9645L21.6101 45.9651L21.6253 44.9652ZM33.0357 45.0066L33.0378 46.0066L33.0378 46.0066L33.0357 45.0066ZM41.596 45.0159L41.6671 44.0184L41.6354 44.0162L41.6036 44.0159L41.596 45.0159ZM44.2332 43.8009L43.422 43.2162L43.3712 43.2866L43.3333 43.3648L44.2332 43.8009ZM42.0244 40.1433L42.0251 41.1433L42.0692 41.1433L42.1133 41.1394L42.0244 40.1433ZM34.9606 40.1415L34.9613 39.1415L34.9613 39.1415L34.9606 40.1415ZM22.0537 40.1518L22.0499 39.1518L21.9605 39.1522L21.8726 39.1684L22.0537 40.1518ZM30.7739 16.6434C30.7788 16.1679 31.1046 15.7514 31.6662 15.5576C32.2386 15.3601 32.7884 15.4895 33.0911 15.8337L34.593 14.513C33.627 13.4145 32.1532 13.2739 31.0139 13.667C29.8638 14.0638 28.7898 15.0984 28.774 16.6226L30.7739 16.6434ZM30.7421 24.4351C30.7334 21.8305 30.7249 19.2394 30.7738 16.6519L28.7741 16.6141C28.7248 19.2276 28.7335 21.8408 28.7421 24.4417L30.7421 24.4351ZM30.7447 29.2136C30.7526 27.6186 30.7474 26.0243 30.7421 24.4351L28.7421 24.4417C28.7474 26.0323 28.7526 27.6184 28.7448 29.2037L30.7447 29.2136ZM25.1435 27.1729C26.4883 28.1196 27.8292 29.0636 29.1612 30.0208L30.3283 28.3966C28.9871 27.4329 27.6383 26.4833 26.2949 25.5375L25.1435 27.1729ZM24.1812 26.4951C24.502 26.7212 24.8229 26.9471 25.1435 27.1729L26.2949 25.5375C25.9741 25.3117 25.6537 25.0861 25.3335 24.8604L24.1812 26.4951ZM22.4705 26.2199C22.8857 25.972 23.55 26.0385 24.1711 26.4879L25.3436 24.8677C24.3673 24.1611 22.8104 23.6875 21.4451 24.5028L22.4705 26.2199ZM22.1799 28.5205C21.8645 28.2648 21.6819 27.803 21.7294 27.298C21.7765 26.7977 22.0296 26.4281 22.3735 26.2709L21.5422 24.4519C20.4094 24.9696 19.8368 26.0638 19.7382 27.1106C19.6402 28.1529 19.9921 29.3216 20.9204 30.0741L22.1799 28.5205ZM26.6813 31.7529C25.1431 30.6804 23.6254 29.622 22.1564 28.502L20.9438 30.0925C22.4522 31.2425 24.005 32.325 25.5374 33.3935L26.6813 31.7529ZM31.1901 34.9894C29.7084 33.8634 28.185 32.8014 26.6813 31.7529L25.5374 33.3935C27.0467 34.4459 28.5363 35.4847 29.98 36.5818L31.1901 34.9894ZM33.0332 35.0734C32.4545 35.4554 31.66 35.4094 31.2558 35.0439L29.9143 36.5273C31.1241 37.6213 32.9502 37.5247 34.1351 36.7424L33.0332 35.0734ZM41.9369 29.3336C38.9704 31.2408 36.0038 33.1524 33.0411 35.0681L34.1271 36.7476C37.0881 34.833 40.0531 32.9224 43.0184 31.0159L41.9369 29.3336ZM42.085 29.2359C42.0328 29.2702 41.9788 29.3057 41.9249 29.3414L43.0304 31.0081C43.0802 30.9751 43.1307 30.9419 43.1835 30.9072L42.085 29.2359ZM43.2864 28.1361C43.1182 28.5242 42.7513 28.7979 42.085 29.2359L43.1835 30.9072C43.7514 30.5339 44.6763 29.9586 45.1215 28.9315L43.2864 28.1361ZM42.4555 26.2262C42.7755 26.2933 43.0937 26.5483 43.2825 26.9494C43.4708 27.3496 43.4707 27.7701 43.3129 28.0799L45.095 28.9877C45.5819 28.0318 45.4944 26.9526 45.0921 26.0977C44.6902 25.2438 43.9143 24.4885 42.8657 24.2687L42.4555 26.2262ZM40.5057 26.837C40.8967 26.5831 41.245 26.3747 41.5812 26.2542C41.9027 26.1389 42.1427 26.13 42.3491 26.1977L42.9722 24.2972C42.2136 24.0485 41.4968 24.1598 40.9063 24.3715C40.3305 24.5779 39.8115 24.9031 39.4164 25.1597L40.5057 26.837ZM38.198 28.334C38.9673 27.843 39.7474 27.3451 40.5176 26.8292L39.4045 25.1675C38.6557 25.6691 37.8943 26.1551 37.122 26.6482L38.198 28.334ZM35.1252 30.354C36.123 29.6587 37.1506 29.0026 38.198 28.334L37.122 26.6482C36.0802 27.3131 35.0183 27.9908 33.9817 28.7131L35.1252 30.354ZM33.5439 23.2513C33.5314 25.3423 33.5188 27.4458 33.5536 29.5501L35.5533 29.5171C35.519 27.439 35.5313 25.358 35.5438 23.2633L33.5439 23.2513ZM33.541 17.4395C33.5669 19.3721 33.5554 21.3063 33.5439 23.2513L35.5438 23.2633C35.5554 21.3214 35.5671 19.3678 35.5409 17.4127L33.541 17.4395ZM33.0595 15.7959C33.3727 16.1897 33.5268 16.7626 33.5412 17.447L35.5407 17.4051C35.5217 16.4949 35.3182 15.4227 34.6246 14.5508L33.0595 15.7959ZM21.5156 41.2652C21.6123 41.247 21.7697 41.2188 21.9271 41.1907L21.5753 39.2219C21.4226 39.2492 21.2532 39.2794 21.1443 39.3L21.5156 41.2652ZM21.7238 43.9701C21.1827 43.9166 20.7581 43.4459 20.7116 42.6774C20.6648 41.9055 21.0334 41.3785 21.5569 41.2565L21.103 39.3087C19.3095 39.7266 18.6319 41.4228 18.7152 42.7982C18.7987 44.177 19.6802 45.7777 21.5269 45.9604L21.7238 43.9701ZM33.0335 44.0066C29.2283 44.0148 25.433 44.0231 21.6405 43.9653L21.6101 45.9651C25.4228 46.0231 29.2355 46.0148 33.0378 46.0066L33.0335 44.0066ZM41.6036 44.0159C38.745 43.9942 35.8865 44.0004 33.0335 44.0066L33.0378 46.0066C35.8924 46.0004 38.7412 45.9942 41.5884 46.0159L41.6036 44.0159ZM43.3333 43.3648C43.1201 43.8048 42.5237 44.0795 41.6671 44.0184L41.525 46.0134C42.6816 46.0958 44.3813 45.7882 45.1331 44.237L43.3333 43.3648ZM42.1133 41.1394C42.5563 41.0998 43.0614 41.3642 43.3767 41.8637C43.6838 42.3501 43.6857 42.8503 43.422 43.2162L45.0444 44.3856C45.8997 43.199 45.6957 41.7903 45.0679 40.7959C44.4483 39.8147 43.2895 39.0265 41.9356 39.1473L42.1133 41.1394ZM34.9599 41.1415C37.3146 41.1432 39.6701 41.1448 42.0251 41.1433L42.0238 39.1433C39.6703 39.1448 37.3163 39.1432 34.9613 39.1415L34.9599 41.1415ZM22.0575 41.1518C26.3562 41.1355 30.657 41.1385 34.9599 41.1415L34.9613 39.1415C30.6591 39.1385 26.3538 39.1355 22.0499 39.1518L22.0575 41.1518ZM21.9271 41.1907C22.0406 41.1704 22.1538 41.1502 22.2348 41.1353L21.8726 39.1684C21.7981 39.1821 21.6911 39.2012 21.5753 39.2219L21.9271 41.1907Z" fill="url(#paint2_linear)"/>
<defs>
<linearGradient id="paint0_linear" x1="32.0603" y1="2" x2="32.0603" y2="61.8232" gradientUnits="userSpaceOnUse">
<stop stop-color="#BAFA52"/>
<stop offset="1" stop-color="#3F8F5B"/>
</linearGradient>
<linearGradient id="paint1_linear" x1="32.161" y1="14.4661" x2="32.161" y2="45.0262" gradientUnits="userSpaceOnUse">
<stop stop-color="#BAFA52"/>
<stop offset="1" stop-color="#3F8F5B"/>
</linearGradient>
<linearGradient id="paint2_linear" x1="32.161" y1="14.4661" x2="32.161" y2="45.0262" gradientUnits="userSpaceOnUse">
<stop stop-color="#BAFA52"/>
<stop offset="1" stop-color="#3F8F5B"/>
</linearGradient>
</defs>
</svg>
