<svg width="128" height="128" viewBox="0 0 128 128" fill="none" xmlns="http://www.w3.org/2000/svg">
<path fill-rule="evenodd" clip-rule="evenodd" d="M42.2857 88.518C42.2857 92.5829 38.633 95.8902 34.1428 95.8902C29.6527 95.8902 26 92.5829 26 88.518C26 84.4529 29.6527 81.146 34.1428 81.146C34.2536 81.146 34.364 81.148 34.4737 81.152L39.6291 69.4817C37.9307 68.1297 36.8571 66.1487 36.8571 63.9449C36.8571 59.8798 40.5097 56.573 45 56.573C49.4901 56.573 53.1427 59.8798 53.1427 63.9449C53.1427 65.0818 52.857 66.1595 52.3472 67.122L57.7761 72.0371C58.8394 71.5755 60.0297 71.3168 61.2856 71.3168C61.3364 71.3168 61.3872 71.3172 61.4378 71.318L72.3348 45.0132C70.5587 43.66 69.4284 41.6332 69.4284 39.3718C69.4284 35.3069 73.0811 32 77.5712 32C82.0614 32 85.7141 35.3069 85.7141 39.3718C85.7141 40.8814 85.2103 42.2865 84.347 43.4564L91.4192 51.9957C92.1891 51.7765 93.008 51.6584 93.8569 51.6584C98.3464 51.6584 102 54.9653 102 59.0303C102 63.0953 98.3464 66.4022 93.8569 66.4022C89.3667 66.4022 85.7141 63.0953 85.7141 59.0303C85.7141 57.521 86.2176 56.1162 87.0807 54.9464L80.008 46.4068C79.2383 46.6257 78.4197 46.7438 77.5712 46.7438C77.5201 46.7438 77.4691 46.7433 77.4182 46.7425L66.5212 73.0467C68.2978 74.4 69.4284 76.4271 69.4284 78.6887C69.4284 82.7538 65.7757 86.0607 61.2856 86.0607C56.7954 86.0607 53.1427 82.7538 53.1427 78.6887C53.1427 77.5519 53.4283 76.4745 53.9381 75.512L48.5088 70.5967C47.4457 71.0582 46.2556 71.3168 45 71.3168C44.8889 71.3168 44.7784 71.3147 44.6683 71.3108L39.5131 82.9807C41.2119 84.3327 42.2857 86.3139 42.2857 88.518Z" fill="url(#paint0_linear_678_348)" stroke="url(#paint1_linear_678_348)" stroke-width="2"/>
<path d="M108.845 17H19.1551C15.7558 17 13 19.7558 13 23.1551V105.81C13 109.21 15.7558 111.966 19.1551 111.966H108.845C112.244 111.966 115 109.21 115 105.81V23.1551C115 19.7558 112.244 17 108.845 17Z" stroke="url(#paint2_linear_678_348)" stroke-width="12" stroke-linecap="round"/>
<defs>
<linearGradient id="paint0_linear_678_348" x1="39.775" y1="88.3475" x2="97.8854" y2="28.0353" gradientUnits="userSpaceOnUse">
<stop stop-color="#FE0844"/>
<stop offset="1" stop-color="#FEB302"/>
</linearGradient>
<linearGradient id="paint1_linear_678_348" x1="39.775" y1="88.3475" x2="97.8854" y2="28.0353" gradientUnits="userSpaceOnUse">
<stop stop-color="#FE0844"/>
<stop offset="1" stop-color="#FEB302"/>
</linearGradient>
<linearGradient id="paint2_linear_678_348" x1="110.379" y1="18.6322" x2="24.1026" y2="116.051" gradientUnits="userSpaceOnUse">
<stop stop-color="#D800BD"/>
<stop offset="0.408098" stop-color="#F92D7A"/>
<stop offset="0.590073" stop-color="#FF4A52"/>
<stop offset="1" stop-color="#FFB243"/>
</linearGradient>
</defs>
</svg>
