<svg width="128" height="128" viewBox="0 0 128 128" fill="none" xmlns="http://www.w3.org/2000/svg">
<path d="M28.5474 69.6294C26.9406 69.6294 25.6379 70.932 25.6379 72.5388C25.6379 74.1456 26.9406 75.4483 28.5474 75.4483C30.1542 75.4483 31.4569 74.1456 31.4569 72.5388C31.4569 70.932 30.1542 69.6294 28.5474 69.6294ZM40.1853 69.6294C38.5785 69.6294 37.2759 70.932 37.2759 72.5388C37.2759 74.1456 38.5785 75.4483 40.1853 75.4483C41.7922 75.4483 43.0948 74.1456 43.0948 72.5388C43.0948 70.932 41.7922 69.6294 40.1853 69.6294ZM110.401 52.1725H95.6595V46.2371C95.6595 45.2644 95.1738 44.3559 94.3638 43.8163L76.9069 32.1783C76.429 31.8596 75.8674 31.6897 75.2931 31.6897H34.3664C32.7596 31.6897 31.4569 32.9924 31.4569 34.5992V52.1725H16.9095C15.3027 52.1725 14 53.4751 14 55.0819V95.8147C14 97.4215 15.3027 98.724 16.9095 98.724H31.4569V119.091C31.4569 120.697 32.7596 122 34.3664 122H92.75C94.3568 122 95.6595 120.697 95.6595 119.091V98.724H110.401C112.008 98.724 113.31 97.4215 113.31 95.8147V55.0819C113.31 53.4751 112.008 52.1725 110.401 52.1725ZM78.2026 40.0356L83.1406 43.3276H78.2026V40.0356ZM37.2759 37.5087H72.3836V46.2371C72.3836 47.8439 73.6863 49.1466 75.2931 49.1466H89.8405V55.0819C89.8405 56.6862 88.5353 57.9914 86.931 57.9914H40.1853C38.5811 57.9914 37.2759 56.6862 37.2759 55.0819V37.5087ZM89.8405 116.181H37.2759V89.9957C37.2759 88.3915 38.5811 87.0863 40.1853 87.0863H86.931C88.5353 87.0863 89.8405 88.3915 89.8405 89.9957V116.181ZM107.491 92.9052H95.6595V89.9957C95.6595 85.1829 91.7437 81.2673 86.931 81.2673H40.1853C35.3725 81.2673 31.4569 85.1829 31.4569 89.9957V92.9052H19.819V57.9914H31.9573C33.1584 61.3778 36.3923 63.8104 40.1853 63.8104H86.931C90.7241 63.8104 93.958 61.3778 95.1591 57.9914H107.491V92.9052ZM81.1121 92.9052H46.0043C44.3975 92.9052 43.0948 94.2079 43.0948 95.8147C43.0948 97.4215 44.3975 98.724 46.0043 98.724H81.1121C82.7189 98.724 84.0216 97.4215 84.0216 95.8147C84.0216 94.2079 82.7189 92.9052 81.1121 92.9052ZM81.1121 104.543H46.0043C44.3975 104.543 43.0948 105.846 43.0948 107.453C43.0948 109.059 44.3975 110.362 46.0043 110.362H81.1121C82.7189 110.362 84.0216 109.059 84.0216 107.453C84.0216 105.846 82.7189 104.543 81.1121 104.543Z" fill="url(#paint0_linear_678_337)" stroke="url(#paint1_linear_678_337)" stroke-width="3"/>
<path d="M45.9248 13.2472C50.5775 9.23511 56.5118 7.01927 62.6555 7C75.1779 7 85.5729 16.3103 86.7041 28.316C94.1151 29.3634 99.8965 35.5688 99.8965 43.1847C99.8965 51.5453 92.9234 58.2069 84.4742 58.2069H43.0153C33.3651 58.2069 25.4141 50.6003 25.4141 41.0666C25.4141 32.8595 31.3075 26.0629 39.1096 24.3405C39.7753 20.3231 42.3589 16.3197 45.9248 13.2472Z" fill="url(#paint2_linear_678_337)"/>
<defs>
<linearGradient id="paint0_linear_678_337" x1="63.6551" y1="22.6897" x2="63.6551" y2="122" gradientUnits="userSpaceOnUse">
<stop stop-color="#BAFA52"/>
<stop offset="1" stop-color="#3F8F5B"/>
</linearGradient>
<linearGradient id="paint1_linear_678_337" x1="63.6551" y1="22.6897" x2="63.6551" y2="122" gradientUnits="userSpaceOnUse">
<stop stop-color="#BAFA52"/>
<stop offset="1" stop-color="#3F8F5B"/>
</linearGradient>
<linearGradient id="paint2_linear_678_337" x1="62.6555" y1="58.2069" x2="62.6555" y2="7" gradientUnits="userSpaceOnUse">
<stop stop-color="#5570FF"/>
<stop offset="1" stop-color="#4DD3FF"/>
</linearGradient>
</defs>
</svg>
