<svg width="32" height="32" viewBox="0 0 32 32" fill="none" xmlns="http://www.w3.org/2000/svg">
<path fill-rule="evenodd" clip-rule="evenodd" d="M4.12121 4H27.8788C28.4413 4 28.9809 4.22348 29.3787 4.62129C29.7765 5.01909 30 5.55863 30 6.12121V26.4848C30 27.0474 29.7765 27.5869 29.3787 27.9848C28.9809 28.3826 28.4413 28.6061 27.8788 28.6061H4.12121C3.55863 28.6061 3.01909 28.3826 2.62129 27.9848C2.22348 27.5869 2 27.0474 2 26.4848V6.12121C2 5.55863 2.22348 5.01909 2.62129 4.62129C3.01909 4.22348 3.55863 4 4.12121 4ZM6.54545 6.54545C5.44088 6.54545 4.54545 7.44089 4.54545 8.54545V24.0606C4.54545 25.1652 5.44089 26.0606 6.54545 26.0606H25.4545C26.5591 26.0606 27.4545 25.1652 27.4545 24.0606V8.54546C27.4545 7.44089 26.5591 6.54545 25.4545 6.54545H6.54545Z" fill="url(#paint0_linear)"/>
<path fill-rule="evenodd" clip-rule="evenodd" d="M9.70988 12.4803C9.29123 12.76 8.79909 12.9093 8.29564 12.9093C7.62054 12.9093 6.9731 12.6411 6.49573 12.1637C6.01836 11.6863 5.75018 11.039 5.75018 10.3638C5.75018 9.86041 5.89947 9.36823 6.17917 8.94963C6.45887 8.53103 6.85642 8.20478 7.32153 8.01212C7.78666 7.81946 8.29846 7.76905 8.79223 7.86727C9.28606 7.96549 9.73957 8.20792 10.0956 8.56391C10.4515 8.9199 10.6939 9.37345 10.7922 9.86719C10.8905 10.361 10.84 10.8728 10.6474 11.338C10.4547 11.803 10.1284 12.2006 9.70988 12.4803ZM9.05216 9.2309C8.8278 9.08274 8.5645 9.00456 8.29564 9.00624V9.01472C7.93853 9.01694 7.59667 9.1598 7.34415 9.41232C7.09163 9.66483 6.94878 10.0067 6.94655 10.3638C6.94656 10.6327 7.0264 10.8955 7.17594 11.1189C7.3255 11.3424 7.53803 11.5163 7.78658 11.6188C8.03514 11.7213 8.30854 11.7477 8.57211 11.6947C8.83568 11.6415 9.07757 11.5115 9.26714 11.3207C9.4566 11.13 9.58523 10.8873 9.63665 10.6234C9.68807 10.3595 9.65998 10.0863 9.55596 9.83835C9.45185 9.5905 9.27655 9.37904 9.05216 9.2309ZM20.6538 13.4006C20.3176 13.4006 19.995 13.5336 19.7565 13.7707L15.6152 17.912C15.5371 17.9901 15.4105 17.9901 15.3324 17.912L12.3799 14.9594L12.3789 14.9586C12.1405 14.7215 11.8179 14.5885 11.4817 14.5885C11.1455 14.5885 10.8229 14.7215 10.5844 14.9586L10.5816 14.9615L5.38358 20.2281C5.34664 20.2656 5.32593 20.316 5.32593 20.3686V23.4032C5.32593 23.5814 5.54136 23.6706 5.66735 23.5446L6.05016 23.1618L11.3733 17.8387C11.451 17.761 11.5768 17.7605 11.6551 17.8376L13.557 19.7106C13.6362 19.7886 13.6366 19.916 13.5581 19.9945L10.8211 22.7315L10.4383 23.1144C10.3123 23.2404 10.4015 23.4558 10.5797 23.4558H13.5473C13.6004 23.4558 13.6513 23.4347 13.6888 23.3972L13.7544 23.3315L20.4837 16.6023C20.5617 16.5243 20.688 16.5241 20.7662 16.6019L26.2648 22.0754C26.3909 22.2009 26.6059 22.1116 26.6059 21.9336V18.9084C26.6059 18.8553 26.5848 18.8045 26.5473 18.767L21.552 13.7715L21.5511 13.7707C21.3126 13.5336 20.99 13.4006 20.6538 13.4006Z" fill="url(#paint1_linear)"/>
<defs>
<linearGradient id="paint0_linear" x1="24.9328" y1="4" x2="5.44031" y2="31.0822" gradientUnits="userSpaceOnUse">
<stop stop-color="#DE00C0"/>
<stop offset="1" stop-color="#8720FF"/>
</linearGradient>
<linearGradient id="paint1_linear" x1="5.32593" y1="7.81836" x2="20.4323" y2="28.1831" gradientUnits="userSpaceOnUse">
<stop stop-color="#FFC823"/>
<stop offset="1" stop-color="#FF2F78"/>
</linearGradient>
</defs>
</svg>
