<svg width="128" height="128" viewBox="0 0 128 128" fill="none" xmlns="http://www.w3.org/2000/svg">
<path d="M115.773 39.9844H101.246C99.6572 39.9844 98.3697 38.6968 98.3697 37.1083V22.9922C98.3697 22.1109 97.925 21.2374 97.0949 20.589L79.6911 6.99529C78.8754 6.35797 77.7689 6 76.6148 6H50.5092C49.3554 6 48.2487 6.35797 47.4329 6.99529L30.0291 20.589C29.2335 21.2105 28.7547 22.0737 28.7547 22.9922V37.1083C28.7547 38.6968 27.467 39.9844 25.8787 39.9844H11.3509C8.94804 39.9844 7 41.506 7 43.3828V118.601C7 120.479 8.94804 122 11.3509 122H115.773C118.175 122 120.124 120.479 120.124 118.601V43.3828C120.124 41.506 118.175 39.9844 115.773 39.9844ZM51.5311 13.4064C52.0367 13.0114 52.6598 12.7968 53.3014 12.7968H73.8224C74.4641 12.7968 75.0872 13.0114 75.5928 13.4064L76.9305 14.4511C79.0862 16.1349 77.8956 19.5938 75.1601 19.5938H51.9638C49.2283 19.5938 48.0376 16.135 50.1934 14.4511L51.5311 13.4064ZM86.7915 26.3906C88.3798 26.3906 89.6675 27.6783 89.6675 29.2666V50.7021C89.6675 52.2905 88.3798 53.5781 86.7915 53.5781H83.8417C82.2533 53.5781 80.9656 52.2905 80.9656 50.7021V29.2666C80.9656 27.6783 82.2533 26.3906 83.8417 26.3906H86.7915ZM69.3879 26.3906C70.9762 26.3906 72.2639 27.6783 72.2639 29.2666V37.1083C72.2639 38.6968 70.9762 39.9844 69.3879 39.9844H57.7361C56.1478 39.9844 54.8601 38.6968 54.8601 37.1083V29.2666C54.8601 27.6783 56.1478 26.3906 57.7361 26.3906H69.3879ZM37.4564 29.2666C37.4564 27.6783 38.7441 26.3906 40.3325 26.3906H43.2823C44.8706 26.3906 46.1583 27.6783 46.1583 29.2666V50.7021C46.1583 52.2905 44.8706 53.5781 43.2823 53.5781H40.3325C38.7441 53.5781 37.4564 52.2905 37.4564 50.7021V29.2666ZM111.423 112.327C111.423 113.915 110.135 115.203 108.547 115.203H18.578C16.9895 115.203 15.7019 113.915 15.7019 112.327V49.6573C15.7019 48.0689 16.9895 46.7813 18.578 46.7813H25.8787C27.467 46.7813 28.7547 48.0689 28.7547 49.6573V56.9765C28.7547 58.8534 30.7027 60.375 33.1056 60.375H50.5092C52.912 60.375 54.8601 58.8534 54.8601 56.9765V49.6573C54.8601 48.0689 56.1478 46.7813 57.7361 46.7813H69.3879C70.9762 46.7813 72.2639 48.0689 72.2639 49.6573V56.9765C72.2639 58.8534 74.2119 60.375 76.6148 60.375H94.0184C96.4212 60.375 98.3697 58.8534 98.3697 56.9765V49.6573C98.3697 48.0689 99.6572 46.7813 101.246 46.7813H108.547C110.135 46.7813 111.423 48.0689 111.423 49.6573V112.327Z" fill="url(#paint0_linear)"/>
<path fill-rule="evenodd" clip-rule="evenodd" d="M73.2851 69.6001C76.2047 72.5183 77.9984 76.3735 78.3496 80.4851C78.7009 84.5966 77.587 88.6999 75.2046 92.0703L74.7034 92.7452L89.6932 107.727L89.9598 108.037C90.3504 108.565 90.5383 109.217 90.4891 109.873C90.4401 110.529 90.1573 111.144 89.6921 111.609C89.2269 112.074 88.6103 112.357 87.9543 112.406C87.2983 112.455 86.6465 112.267 86.1172 111.877L85.8079 111.61L70.676 96.4926C67.0648 98.9046 62.6856 99.8902 58.3884 99.2565C54.0912 98.6238 50.1829 96.4169 47.4222 93.0662C44.6615 89.7151 43.2454 85.4585 43.4489 81.1228C43.6525 76.7871 45.4611 72.6817 48.5236 69.6036C51.8074 66.3226 56.2608 64.4795 60.9044 64.4795C65.5479 64.4795 70.0013 66.3226 73.2851 69.6036V69.6001ZM60.7108 94.6567C67.6996 94.6567 73.365 88.9912 73.365 82.0026C73.365 75.0138 67.6996 69.3484 60.7108 69.3484C53.7221 69.3484 48.0566 75.0138 48.0566 82.0026C48.0566 88.9912 53.7221 94.6567 60.7108 94.6567Z" fill="url(#paint1_linear)"/>
<path d="M78.3497 80.4851L76.9169 80.6074V80.6075L78.3497 80.4851ZM73.2852 69.6001L74.3018 68.583L71.8472 66.1296V69.6001H73.2852ZM75.2046 92.0704L76.3591 92.9278L76.3691 92.9142L76.3789 92.9004L75.2046 92.0704ZM74.7034 92.7453L73.5489 91.8879L72.8087 92.8847L73.6869 93.7623L74.7034 92.7453ZM89.6932 107.727L90.782 106.789L90.7474 106.749L90.7098 106.711L89.6932 107.727ZM89.9598 108.037L91.1164 107.183L91.0841 107.139L91.0486 107.098L89.9598 108.037ZM89.6922 111.609L88.6757 110.592L89.6922 111.609ZM87.9544 112.406L88.0617 113.84L87.9544 112.406ZM86.1173 111.877L85.1787 112.967L85.2199 113.002L85.2636 113.034L86.1173 111.877ZM85.808 111.61L84.7917 112.627L84.8292 112.666L84.8695 112.7L85.808 111.61ZM70.676 96.4926L71.6924 95.4755L70.858 94.6418L69.8773 95.2972L70.676 96.4926ZM58.3885 99.2565L58.598 97.8338L58.3885 99.2565ZM43.449 81.1228L42.0125 81.0554L43.449 81.1228ZM48.5237 69.6037L47.5073 68.5864L47.5043 68.5894L48.5237 69.6037ZM73.2852 69.6037L72.2687 70.6209L74.7232 73.0733V69.6037H73.2852ZM79.7825 80.3627C79.4024 75.9131 77.4612 71.7409 74.3018 68.583L72.2685 70.6172C74.9483 73.2957 76.5946 76.8341 76.9169 80.6074L79.7825 80.3627ZM76.3789 92.9004C78.9571 89.253 80.1626 84.8123 79.7825 80.3627L76.9169 80.6075C77.2392 84.3809 76.2169 88.1469 74.0304 91.2403L76.3789 92.9004ZM75.8579 93.6026L76.3591 92.9278L74.0501 91.213L73.5489 91.8879L75.8579 93.6026ZM90.7098 106.711L75.72 91.7282L73.6869 93.7623L88.6767 108.745L90.7098 106.711ZM91.0486 107.098L90.782 106.789L88.6044 108.667L88.871 108.977L91.0486 107.098ZM91.9233 109.98C91.9981 108.981 91.7117 107.988 91.1164 107.183L88.8032 108.891C88.9893 109.143 89.0786 109.453 89.0552 109.766L91.9233 109.98ZM90.7086 112.626C91.4173 111.918 91.8484 110.979 91.9233 109.98L89.0552 109.766C89.0319 110.077 88.8973 110.37 88.6757 110.592L90.7086 112.626ZM88.0617 113.84C89.0607 113.765 89.9999 113.335 90.7087 112.626L88.6757 110.592C88.454 110.813 88.16 110.949 87.8471 110.972L88.0617 113.84ZM85.2636 113.034C86.0698 113.629 87.0626 113.915 88.0617 113.84L87.8471 110.972C87.5341 110.996 87.2232 110.905 86.971 110.719L85.2636 113.034ZM84.8695 112.7L85.1787 112.967L87.0558 110.787L86.7465 110.521L84.8695 112.7ZM69.6598 97.5098L84.7917 112.627L86.8244 110.593L71.6924 95.4755L69.6598 97.5098ZM58.1788 100.679C62.8285 101.365 67.5672 100.299 71.4748 97.6881L69.8773 95.2972C66.5626 97.5108 62.5427 98.4158 58.598 97.8338L58.1788 100.679ZM46.3123 93.9806C49.2998 97.6066 53.5291 99.9947 58.1788 100.679L58.598 97.8338C54.6535 97.2529 51.066 95.2272 48.5321 92.1518L46.3123 93.9806ZM42.0125 81.0554C41.7922 85.7477 43.3248 90.3542 46.3123 93.9806L48.5321 92.1518C45.9982 89.0761 44.6987 85.1695 44.8854 81.1903L42.0125 81.0554ZM47.5043 68.5894C44.1903 71.9203 42.2328 76.3631 42.0125 81.0554L44.8854 81.1903C45.0723 77.2111 46.7321 73.4431 49.5431 70.6179L47.5043 68.5894ZM60.9044 63.0415C55.8798 63.0415 51.0608 65.0359 47.5073 68.5864L49.5402 70.6209C52.5541 67.6095 56.6419 65.9175 60.9044 65.9175V63.0415ZM74.3016 68.5864C70.748 65.0359 65.9291 63.0415 60.9044 63.0415V65.9175C65.167 65.9175 69.2548 67.6095 72.2687 70.6209L74.3016 68.5864ZM71.8472 69.6001V69.6037H74.7232V69.6001H71.8472ZM71.927 82.0026C71.927 88.1971 66.9054 93.2188 60.7109 93.2188V96.0948C68.4938 96.0948 74.8031 89.7855 74.8031 82.0026H71.927ZM60.7109 70.7865C66.9054 70.7865 71.927 75.8081 71.927 82.0026H74.8031C74.8031 74.2197 68.4938 67.9104 60.7109 67.9104V70.7865ZM49.4947 82.0026C49.4947 75.8081 54.5164 70.7865 60.7109 70.7865V67.9104C52.9279 67.9104 46.6187 74.2197 46.6187 82.0026H49.4947ZM60.7109 93.2188C54.5164 93.2188 49.4947 88.1971 49.4947 82.0026H46.6187C46.6187 89.7855 52.9279 96.0948 60.7109 96.0948V93.2188Z" fill="url(#paint2_linear)"/>
<defs>
<linearGradient id="paint0_linear" x1="63.562" y1="122" x2="63.562" y2="6" gradientUnits="userSpaceOnUse">
<stop stop-color="#FD5900"/>
<stop offset="1" stop-color="#FFDE00"/>
</linearGradient>
<linearGradient id="paint1_linear" x1="66.9633" y1="112.413" x2="66.9633" y2="64.4795" gradientUnits="userSpaceOnUse">
<stop stop-color="#FFA800"/>
<stop offset="1" stop-color="#FFF737"/>
</linearGradient>
<linearGradient id="paint2_linear" x1="66.9633" y1="113.852" x2="66.9633" y2="63.0415" gradientUnits="userSpaceOnUse">
<stop stop-color="#FFA800"/>
<stop offset="1" stop-color="#FFF737"/>
</linearGradient>
</defs>
</svg>
