<svg width="48" height="48" viewBox="0 0 48 48" fill="none" xmlns="http://www.w3.org/2000/svg">
<path d="M23.3305 3.00139C21.5096 3.01657 20.1273 3.1568 19.0133 3.43498C15.2842 4.36615 13.3739 6.11715 13.4294 8.54721C13.4776 10.6584 14.5174 12.0318 19.3728 15.5783C21.7781 17.3353 23.6938 18.92 23.6325 19.0998C23.5712 19.2796 22.4717 19.6867 21.1892 20.005C16.1219 21.2628 11.9133 24.2218 10.121 27.7803C8.61159 31.3045 8.64502 35.0342 10.1093 37.9608C12.4992 42.7058 17.7656 45.3638 23.9665 44.9597C25.2576 44.8756 27.2256 44.5337 28.3375 44.198C30.8121 43.451 33.3232 41.8731 35.2779 39.9559C38.9393 36.4282 39.9596 30.1701 38.064 26.1133C36.5239 23.0138 33.4214 20.3205 27.4059 16.8615C18.9203 11.9823 17.8465 11.2099 16.8073 10.053C16.26 9.44377 15.8141 8.61359 15.8141 8.2103C15.8141 5.43568 21.2239 3.88036 25.0092 5.62342C25.8945 6.03109 27.5614 7.1085 28.7123 8.01987C32.0935 10.6974 33.7049 11.0557 35.3948 9.51399C37.3182 7.75917 35.5755 5.12567 31.6771 3.892C29.7956 3.29662 26.3653 2.97609 23.3305 3.00139ZM25.6305 21.0011C26.3542 21.0029 26.7401 21.3513 28.2321 22.7237C31.6767 25.8924 33.3337 29.7228 32.9429 33.622C32.4087 38.0474 29.3538 41.8861 24.1833 42.0008C18.8067 42.0461 15.0296 36.6685 14.9989 32.1162C14.9794 28.2175 15.6179 26.4078 17.7439 24.338C19.3735 22.7514 22.1818 21.4475 24.7428 21.089C25.1122 21.0373 25.3893 21.0005 25.6305 21.0011Z" fill="url(#paint0_linear_640_75)" stroke="url(#paint1_linear_640_75)" stroke-width="2"/>
<defs>
<linearGradient id="paint0_linear_640_75" x1="23.9989" y1="3" x2="23.9989" y2="45" gradientUnits="userSpaceOnUse">
<stop stop-color="#8637FB"/>
<stop offset="1" stop-color="#00A0C9"/>
</linearGradient>
<linearGradient id="paint1_linear_640_75" x1="23.9989" y1="3" x2="23.9989" y2="45" gradientUnits="userSpaceOnUse">
<stop stop-color="#8637FB"/>
<stop offset="1" stop-color="#00A0C9"/>
</linearGradient>
</defs>
</svg>
