<svg width="64" height="64" viewBox="0 0 64 64" fill="none" xmlns="http://www.w3.org/2000/svg">
<path fill-rule="evenodd" clip-rule="evenodd" d="M34.1518 5.83696C33.9673 4.20882 31.8302 3.40655 30.6539 4.50771C25.7684 9.33707 20.9367 14.2333 16.2241 19.2435C12.9759 22.3819 10.5659 26.4797 9.62027 30.963C8.10194 37.0784 9.44345 43.7719 12.853 48.9867C16.2701 54.052 21.4171 58.0516 27.3712 59.3336C30.1004 60.2106 33.0102 60.0533 35.8201 59.8056C36.361 59.6108 36.9193 59.4755 37.4774 59.3402C37.5618 59.3197 37.6462 59.2993 37.7305 59.2786C44.2612 57.7881 49.9732 53.1002 52.9368 46.9771C55.3085 42.0297 56.0388 36.17 54.4935 30.849C53.6249 27.2073 51.7068 23.8803 49.3159 21.0722C47.8552 19.8532 45.4797 21.3318 45.7372 23.192C45.9235 24.0219 46.4497 24.6461 46.9778 25.2725C47.3105 25.6672 47.644 26.0628 47.8937 26.5112C50.9918 31.2147 51.7259 37.4048 49.9386 42.7533C48.2742 47.8343 44.3381 52.0463 39.4948 54.0638C34.4516 56.2229 28.5205 55.8925 23.708 53.2576C20.3254 51.3542 17.4579 48.4676 15.5744 45.0185C12.5608 39.4263 12.6685 32.2215 15.8742 26.7393C17.2225 24.3372 19.1837 22.4407 21.1366 20.5521C21.7671 19.9424 22.3967 19.3336 23.0046 18.7088C24.0431 17.6302 25.0927 16.563 26.1423 15.4959C28.1772 13.4269 30.2119 11.3582 32.1646 9.2073C32.3307 9.02764 32.5145 8.84897 32.7016 8.66714C33.5013 7.88972 34.3605 7.05449 34.1518 5.83696ZM38.9921 15.3335C38.9139 15.4155 38.8368 15.4963 38.7605 15.5743C37.1389 17.2761 35.4878 18.9483 33.8368 20.6203C31.2376 23.2525 28.6388 25.8844 26.1564 28.6309C24.5151 30.1253 23.2343 32.0996 22.8807 34.3491C22.8116 35.4031 22.7969 36.4689 22.843 37.5267C23.6349 42.7808 29.1585 46.8629 34.2747 45.6477C36.9423 44.755 39.4869 43.0286 40.6593 40.3308C41.6434 38.4548 41.6434 36.2446 41.3589 34.1956C41.0398 32.7602 40.3903 31.0456 38.8719 30.5933C37.4075 30.2748 35.9659 31.8715 36.358 33.3423C36.4371 33.5486 36.5254 33.7533 36.614 33.9584C36.9169 34.6603 37.2218 35.3668 37.1653 36.1581C37.3305 38.2739 35.8853 40.2678 33.971 40.9639C30.7652 42.3757 26.7369 39.2374 27.1289 35.7137C27.096 33.8075 28.4448 32.5103 29.7313 31.2731C30.0957 30.9226 30.4552 30.577 30.7767 30.2237C32.9663 27.7994 35.2578 25.4725 37.5488 23.1462C38.7327 21.944 39.9165 20.7419 41.086 19.5267C41.3127 19.2777 41.5556 19.0407 41.7987 18.8035C42.3429 18.2725 42.8885 17.7401 43.2578 17.0688C43.8882 15.7867 42.9771 14.0602 41.5664 13.9579C40.4776 13.7776 39.6904 14.6022 38.9921 15.3335Z" fill="url(#paint0_linear_678_431)"/>
<path d="M30.6539 4.50771L29.9705 3.77767L29.9605 3.78697L29.9509 3.79653L30.6539 4.50771ZM34.1518 5.83696L33.1582 5.94954L33.1614 5.97785L33.1662 6.00592L34.1518 5.83696ZM16.2241 19.2435L16.9189 19.9627L16.9361 19.9461L16.9525 19.9287L16.2241 19.2435ZM9.62027 30.963L10.5908 31.204L10.5951 31.1868L10.5987 31.1694L9.62027 30.963ZM12.853 48.9867L12.016 49.5339L12.0199 49.5399L12.024 49.5459L12.853 48.9867ZM27.3712 59.3336L27.6772 58.3816L27.6301 58.3664L27.5817 58.356L27.3712 59.3336ZM35.8201 59.8056L35.9079 60.8017L36.037 60.7904L36.1589 60.7465L35.8201 59.8056ZM37.4774 59.3402L37.2418 58.3683L37.2418 58.3683L37.4774 59.3402ZM37.7305 59.2786L37.508 58.3037L37.5002 58.3055L37.4925 58.3073L37.7305 59.2786ZM52.9368 46.9771L53.8369 47.4127L53.8386 47.4093L52.9368 46.9771ZM54.4935 30.849L53.5208 31.081L53.5264 31.1046L53.5332 31.1279L54.4935 30.849ZM49.3159 21.0722L50.0773 20.424L50.0221 20.3591L49.9567 20.3045L49.3159 21.0722ZM45.7372 23.192L44.7466 23.3292L44.7524 23.3704L44.7615 23.4111L45.7372 23.192ZM46.9778 25.2725L47.7423 24.6279L47.7423 24.6279L46.9778 25.2725ZM47.8937 26.5112L47.0199 26.9976L47.038 27.0302L47.0585 27.0613L47.8937 26.5112ZM49.9386 42.7533L48.9901 42.4363L48.9883 42.442L49.9386 42.7533ZM39.4948 54.0638L39.1103 53.1406L39.1012 53.1445L39.4948 54.0638ZM23.708 53.2576L23.2176 54.1292L23.2278 54.1348L23.708 53.2576ZM15.5744 45.0185L14.6941 45.4929L14.6967 45.4978L15.5744 45.0185ZM15.8742 26.7393L16.7375 27.2441L16.7419 27.2365L16.7462 27.2288L15.8742 26.7393ZM21.1366 20.5521L21.8318 21.271L21.8318 21.271L21.1366 20.5521ZM23.0046 18.7088L23.7214 19.4061L23.725 19.4024L23.0046 18.7088ZM26.1423 15.4959L25.4293 14.7947L26.1423 15.4959ZM32.1646 9.2073L31.4303 8.52837L31.4242 8.53512L32.1646 9.2073ZM32.7016 8.66714L32.0045 7.95009L32.0045 7.95009L32.7016 8.66714ZM38.7605 15.5743L38.0453 14.8753L38.0365 14.8845L38.7605 15.5743ZM38.9921 15.3335L39.7154 16.0241L39.7154 16.0241L38.9921 15.3335ZM33.8368 20.6203L34.5483 21.3229L34.5483 21.3229L33.8368 20.6203ZM26.1564 28.6309L26.8296 29.3704L26.8656 29.3376L26.8983 29.3015L26.1564 28.6309ZM22.8807 34.3491L21.8928 34.1938L21.8858 34.2385L21.8828 34.2837L22.8807 34.3491ZM22.843 37.5267L21.844 37.5702L21.8463 37.6232L21.8542 37.6757L22.843 37.5267ZM34.2747 45.6477L34.5058 46.6207L34.5495 46.6103L34.592 46.596L34.2747 45.6477ZM40.6593 40.3308L39.7738 39.8663L39.7568 39.8986L39.7422 39.9322L40.6593 40.3308ZM41.3589 34.1956L42.3495 34.0582L42.3439 34.0181L42.3351 33.9786L41.3589 34.1956ZM38.8719 30.5933L39.1574 29.635L39.1213 29.6242L39.0845 29.6162L38.8719 30.5933ZM36.358 33.3423L35.3917 33.5999L35.4054 33.651L35.4243 33.7003L36.358 33.3423ZM36.614 33.9584L35.6958 34.3546L35.6958 34.3547L36.614 33.9584ZM37.1653 36.1581L36.1678 36.0869L36.1625 36.1615L36.1683 36.236L37.1653 36.1581ZM33.971 40.9639L33.6292 40.0241L33.5982 40.0354L33.568 40.0487L33.971 40.9639ZM27.1289 35.7137L28.1228 35.8243L28.1299 35.7605L28.1288 35.6964L27.1289 35.7137ZM29.7313 31.2731L30.4245 31.9939L30.4245 31.9939L29.7313 31.2731ZM30.7767 30.2237L31.5163 30.8968L31.5189 30.8939L30.7767 30.2237ZM37.5488 23.1462L36.8363 22.4445L36.8363 22.4445L37.5488 23.1462ZM41.086 19.5267L41.8066 20.2201L41.8161 20.2101L41.8254 20.2L41.086 19.5267ZM41.7987 18.8035L42.4971 19.5192L42.4971 19.5192L41.7987 18.8035ZM43.2578 17.0688L44.134 17.5507L44.145 17.5306L44.1552 17.51L43.2578 17.0688ZM41.5664 13.9579L41.403 14.9445L41.4483 14.952L41.4941 14.9553L41.5664 13.9579ZM31.3373 5.23775C31.5927 4.99866 31.9977 4.92407 32.421 5.08417C32.8429 5.24378 33.1158 5.57528 33.1582 5.94954L35.1454 5.72438C35.0034 4.4705 34.1154 3.5868 33.1286 3.21352C32.143 2.84075 30.8913 2.9156 29.9705 3.77767L31.3373 5.23775ZM16.9525 19.9287C21.6543 14.9298 26.477 10.0427 31.3569 5.21889L29.9509 3.79653C25.0597 8.6315 20.219 13.5367 15.4957 18.5584L16.9525 19.9287ZM10.5987 31.1694C11.4995 26.8986 13.8014 22.9748 16.9189 19.9627L15.5292 18.5244C12.1505 21.7889 9.6322 26.0609 8.6418 30.7566L10.5987 31.1694ZM13.6899 48.4394C10.4203 43.4386 9.1447 37.0285 10.5908 31.204L8.64974 30.7221C7.05919 37.1283 8.46657 44.1052 12.016 49.5339L13.6899 48.4394ZM27.5817 58.356C21.9278 57.1386 16.9846 53.3229 13.682 48.4274L12.024 49.5459C15.5557 54.7811 20.9064 58.9645 27.1607 60.3112L27.5817 58.356ZM35.7323 58.8095C32.9183 59.0576 30.1934 59.1902 27.6772 58.3816L27.0653 60.2857C30.0073 61.2311 33.1021 61.0491 35.9079 60.8017L35.7323 58.8095ZM37.2418 58.3683C36.6925 58.5015 36.0814 58.6486 35.4813 58.8647L36.1589 60.7465C36.6406 60.573 37.1461 60.4495 37.713 60.312L37.2418 58.3683ZM37.4925 58.3073C37.4096 58.3277 37.3264 58.3478 37.2418 58.3683L37.713 60.3121C37.7972 60.2916 37.8828 60.2709 37.9685 60.2499L37.4925 58.3073ZM52.0367 46.5414C49.1989 52.4046 43.7285 56.884 37.508 58.3037L37.953 60.2535C44.7939 58.6922 50.7475 53.7959 53.8369 47.4127L52.0367 46.5414ZM53.5332 31.1279C55.0016 36.1841 54.314 41.7908 52.0351 46.5448L53.8386 47.4093C56.3029 42.2686 57.0761 36.1558 55.4538 30.5701L53.5332 31.1279ZM48.5545 21.7205C50.868 24.4377 52.6967 27.6262 53.5208 31.081L55.4662 30.6169C54.553 26.7883 52.5455 23.3229 50.0773 20.424L48.5545 21.7205ZM46.7278 23.0549C46.6658 22.6074 46.9154 22.1258 47.3994 21.8333C47.8769 21.5447 48.3528 21.571 48.6752 21.84L49.9567 20.3045C48.8183 19.3545 47.3761 19.5105 46.365 20.1216C45.3605 20.7286 44.5511 21.9165 44.7466 23.3292L46.7278 23.0549ZM47.7423 24.6279C47.1885 23.971 46.8372 23.5266 46.7129 22.973L44.7615 23.4111C45.0098 24.5173 45.711 25.3213 46.2132 25.9171L47.7423 24.6279ZM48.7674 26.0249C48.4629 25.4778 48.0641 25.0096 47.7423 24.6279L46.2132 25.9171C46.557 26.3248 46.8252 26.6478 47.0199 26.9976L48.7674 26.0249ZM50.887 43.0702C52.7685 37.4402 52.0012 30.9292 48.7288 25.9612L47.0585 27.0613C49.9824 31.5002 50.6834 37.3695 48.9902 42.4363L50.887 43.0702ZM39.8793 54.9869C44.9901 52.858 49.1335 48.4234 50.8889 43.0646L48.9883 42.442C47.4148 47.2453 43.6861 51.2346 39.1103 53.1407L39.8793 54.9869ZM23.2278 54.1348C28.3043 56.9142 34.5574 57.2654 39.8884 54.9831L39.1012 53.1445C34.3459 55.1803 28.7368 54.8708 24.1882 52.3805L23.2278 54.1348ZM14.6967 45.4978C16.6705 49.1122 19.6726 52.1343 23.2176 54.1291L24.1984 52.3861C20.9782 50.5741 18.2453 47.823 16.452 44.5392L14.6967 45.4978ZM15.011 26.2345C11.6281 32.0197 11.5161 39.5956 14.6941 45.4929L16.4547 44.5441C13.6056 39.257 13.7089 32.4233 16.7375 27.2441L15.011 26.2345ZM20.4415 19.8333C18.5062 21.7047 16.4339 23.6991 15.0022 26.2499L16.7462 27.2288C18.0111 24.9753 19.8611 23.1767 21.8318 21.271L20.4415 19.8333ZM22.2879 18.0114C21.6924 18.6235 21.0738 19.2218 20.4415 19.8333L21.8318 21.271C22.4604 20.6631 23.1011 20.0437 23.7214 19.4061L22.2879 18.0114ZM25.4293 14.7947C24.3804 15.8612 23.3271 16.9321 22.2843 18.0152L23.725 19.4024C24.7592 18.3282 25.8051 17.2648 26.8552 16.1971L25.4293 14.7947ZM31.4242 8.53512C29.4871 10.6687 27.4666 12.7233 25.4293 14.7947L26.8552 16.1971C28.8878 14.1305 30.9366 12.0476 32.905 9.87948L31.4242 8.53512ZM32.0045 7.95009C31.8214 8.1281 31.6178 8.32566 31.4304 8.5284L32.8988 9.8862C33.0436 9.72962 33.2076 9.56984 33.3986 9.38418L32.0045 7.95009ZM33.1662 6.00592C33.2716 6.62082 32.8949 7.08454 32.0045 7.95009L33.3986 9.38418C34.1077 8.6949 35.4494 7.48816 35.1374 5.66801L33.1662 6.00592ZM39.4756 16.2733C39.5567 16.1903 39.638 16.1052 39.7154 16.0241L38.2688 14.643C38.1899 14.7257 38.1168 14.8022 38.0454 14.8753L39.4756 16.2733ZM34.5483 21.3229C36.1983 19.652 37.8557 17.9735 39.4845 16.2641L38.0365 14.8845C36.4221 16.5788 34.7772 18.2446 33.1252 19.9177L34.5483 21.3229ZM26.8983 29.3015C29.3634 26.574 31.9465 23.9578 34.5483 21.3229L33.1252 19.9177C30.5286 22.5473 27.9142 25.1947 25.4145 27.9604L26.8983 29.3015ZM23.8685 34.5044C24.1784 32.5332 25.3116 30.7525 26.8296 29.3704L25.4832 27.8915C23.7185 29.4982 22.2902 31.6659 21.8928 34.1938L23.8685 34.5044ZM23.8421 37.4832C23.7977 36.4634 23.8117 35.434 23.8785 34.4145L21.8828 34.2837C21.8114 35.3721 21.7962 36.4743 21.844 37.5702L23.8421 37.4832ZM34.0436 44.6748C31.8166 45.2037 29.4494 44.5892 27.5214 43.2015C25.5925 41.8133 24.1827 39.7059 23.8319 37.3777L21.8542 37.6757C22.2951 40.6015 24.0431 43.1623 26.3531 44.8248C28.6639 46.488 31.6165 47.3069 34.5058 46.6207L34.0436 44.6748ZM39.7422 39.9322C38.7222 42.2793 36.467 43.8595 33.9573 44.6994L34.592 46.596C37.4176 45.6504 40.2516 43.7779 41.5765 40.7293L39.7422 39.9322ZM40.3684 34.3331C40.6436 36.3157 40.6111 38.2699 39.7738 39.8663L41.5449 40.7953C42.6756 38.6396 42.6431 36.1736 42.3495 34.0582L40.3684 34.3331ZM38.5865 31.5517C39.0279 31.6832 39.3932 32.0073 39.7038 32.5339C40.0192 33.0684 40.2332 33.7398 40.3828 34.4127L42.3351 33.9786C42.1656 33.216 41.8953 32.3124 41.4264 31.5177C40.9529 30.7151 40.2343 29.9557 39.1574 29.635L38.5865 31.5517ZM37.3243 33.0847C37.233 32.7422 37.344 32.3152 37.6583 31.9699C37.9727 31.6245 38.3556 31.5044 38.6594 31.5705L39.0845 29.6162C37.9238 29.3637 36.8536 29.8827 36.1792 30.6237C35.5046 31.3648 35.091 32.4715 35.3917 33.5999L37.3243 33.0847ZM37.5321 33.5621C37.4422 33.3538 37.3622 33.1681 37.2917 32.9843L35.4243 33.7003C35.512 33.9292 35.6087 34.1529 35.6958 34.3546L37.5321 33.5621ZM38.1627 36.2294C38.2394 35.1556 37.8187 34.2262 37.5321 33.5621L35.6958 34.3547C36.0151 35.0944 36.2042 35.5779 36.1678 36.0869L38.1627 36.2294ZM34.3128 41.9037C36.6064 41.0696 38.3659 38.6877 38.1622 36.0802L36.1683 36.236C36.2952 37.86 35.1641 39.4659 33.6292 40.0241L34.3128 41.9037ZM26.1351 35.6031C25.8923 37.7852 27.0185 39.7687 28.5898 40.9813C30.1611 42.1938 32.3551 42.7682 34.374 41.8791L33.568 40.0487C32.3811 40.5714 30.9581 40.2826 29.8117 39.3979C28.6654 38.5134 27.9735 37.1659 28.1228 35.8243L26.1351 35.6031ZM29.0382 30.5523C27.8215 31.7224 26.0873 33.3175 26.1291 35.731L28.1288 35.6964C28.1046 34.2975 29.0682 33.2983 30.4245 31.9939L29.0382 30.5523ZM30.0372 29.5505C29.742 29.8749 29.4074 30.1972 29.0382 30.5523L30.4245 31.9939C30.7841 31.6481 31.1683 31.2791 31.5163 30.8968L30.0372 29.5505ZM36.8363 22.4445C34.5478 24.7683 32.2411 27.1104 30.0346 29.5534L31.5189 30.8939C33.6916 28.4884 35.9678 26.1768 38.2613 23.8479L36.8363 22.4445ZM40.3655 18.8332C39.2006 20.0437 38.0209 21.2416 36.8363 22.4445L38.2613 23.8479C39.4445 22.6464 40.6324 21.4402 41.8066 20.2201L40.3655 18.8332ZM41.1003 18.0878C40.8609 18.3214 40.5966 18.5789 40.3466 18.8533L41.8254 20.2C42.0289 19.9765 42.2503 19.76 42.4971 19.5192L41.1003 18.0878ZM42.3816 16.5868C42.0957 17.1065 41.6628 17.5389 41.1003 18.0878L42.4971 19.5192C43.023 19.0061 43.6812 18.3738 44.134 17.5507L42.3816 16.5868ZM41.4941 14.9553C41.7901 14.9768 42.0985 15.1759 42.2969 15.5447C42.4959 15.9147 42.5099 16.3235 42.3604 16.6275L44.1552 17.51C44.6361 16.532 44.5097 15.4365 44.0582 14.5972C43.606 13.7567 42.7535 13.0414 41.6388 12.9605L41.4941 14.9553ZM39.7154 16.0241C40.0811 15.641 40.3737 15.3413 40.6805 15.1406C40.9582 14.9588 41.1754 14.9068 41.403 14.9445L41.7299 12.9714C40.8687 12.8287 40.1479 13.0988 39.5852 13.4671C39.0515 13.8164 38.6014 14.2947 38.2688 14.643L39.7154 16.0241Z" fill="url(#paint1_linear_678_431)"/>
<defs>
<linearGradient id="paint0_linear_678_431" x1="32.9818" y1="45.8635" x2="32.9818" y2="13.9328" gradientUnits="userSpaceOnUse">
<stop stop-color="#5558FF"/>
<stop offset="1" stop-color="#00C0FF"/>
</linearGradient>
<linearGradient id="paint1_linear_678_431" x1="32.9818" y1="45.8635" x2="32.9818" y2="13.9328" gradientUnits="userSpaceOnUse">
<stop stop-color="#5558FF"/>
<stop offset="1" stop-color="#00C0FF"/>
</linearGradient>
</defs>
</svg>
