<svg width="48" height="48" viewBox="0 0 48 48" fill="none" xmlns="http://www.w3.org/2000/svg">
<path fill-rule="evenodd" clip-rule="evenodd" d="M40 35H8C5.8 35 4 33.2 4 31V9C4 6.8 5.8 5 8 5H40C42.2 5 44 6.8 44 9L43.98 31C43.98 33.2 42.2 35 40 35ZM8.4 9C8.17909 9 8 9.17909 8 9.4V30.6C8 30.8209 8.17909 31 8.4 31H39.6C39.8209 31 40 30.8209 40 30.6V9.4C40 9.17909 39.8209 9 39.6 9H8.4ZM2.2 39H45.8C45.9105 39 46 39.0895 46 39.2V42.8C46 42.9105 45.9105 43 45.8 43H2.2C2.08954 43 2 42.9105 2 42.8V39.2C2 39.0895 2.08954 39 2.2 39Z" fill="url(#paint0_linear_646_12)"/>
<path d="M44 9L44.5 9.00045V9H44ZM43.98 31L43.48 30.9995V31H43.98ZM8 35.5H40V34.5H8V35.5ZM3.5 31C3.5 33.4761 5.52386 35.5 8 35.5V34.5C6.07614 34.5 4.5 32.9239 4.5 31H3.5ZM3.5 9V31H4.5V9H3.5ZM8 4.5C5.52386 4.5 3.5 6.52386 3.5 9H4.5C4.5 7.07614 6.07614 5.5 8 5.5V4.5ZM40 4.5H8V5.5H40V4.5ZM44.5 9C44.5 6.52386 42.4761 4.5 40 4.5V5.5C41.9239 5.5 43.5 7.07614 43.5 9H44.5ZM44.48 31.0005L44.5 9.00045L43.5 8.99955L43.48 30.9995L44.48 31.0005ZM40 35.5C42.4794 35.5 44.48 33.4729 44.48 31H43.48C43.48 32.9271 41.9206 34.5 40 34.5V35.5ZM8.5 9.4C8.5 9.45523 8.45523 9.5 8.4 9.5V8.5C7.90294 8.5 7.5 8.90294 7.5 9.4H8.5ZM8.5 30.6V9.4H7.5V30.6H8.5ZM8.4 30.5C8.45523 30.5 8.5 30.5448 8.5 30.6H7.5C7.5 31.0971 7.90294 31.5 8.4 31.5V30.5ZM39.6 30.5H8.4V31.5H39.6V30.5ZM39.5 30.6C39.5 30.5448 39.5448 30.5 39.6 30.5V31.5C40.0971 31.5 40.5 31.0971 40.5 30.6H39.5ZM39.5 9.4V30.6H40.5V9.4H39.5ZM39.6 9.5C39.5448 9.5 39.5 9.45523 39.5 9.4H40.5C40.5 8.90294 40.0971 8.5 39.6 8.5V9.5ZM8.4 9.5H39.6V8.5H8.4V9.5ZM45.8 38.5H2.2V39.5H45.8V38.5ZM46.5 39.2C46.5 38.8134 46.1866 38.5 45.8 38.5V39.5C45.6343 39.5 45.5 39.3657 45.5 39.2H46.5ZM46.5 42.8V39.2H45.5V42.8H46.5ZM45.8 43.5C46.1866 43.5 46.5 43.1866 46.5 42.8H45.5C45.5 42.6343 45.6343 42.5 45.8 42.5V43.5ZM2.2 43.5H45.8V42.5H2.2V43.5ZM1.5 42.8C1.5 43.1866 1.8134 43.5 2.2 43.5V42.5C2.36569 42.5 2.5 42.6343 2.5 42.8H1.5ZM1.5 39.2V42.8H2.5V39.2H1.5ZM2.2 38.5C1.8134 38.5 1.5 38.8134 1.5 39.2H2.5C2.5 39.3657 2.36569 39.5 2.2 39.5V38.5Z" fill="url(#paint1_linear_646_12)"/>
<defs>
<linearGradient id="paint0_linear_646_12" x1="38.0372" y1="5" x2="8.10426" y2="47.3179" gradientUnits="userSpaceOnUse">
<stop stop-color="#DE00C0"/>
<stop offset="1" stop-color="#8720FF"/>
</linearGradient>
<linearGradient id="paint1_linear_646_12" x1="38.0372" y1="5" x2="8.10426" y2="47.3179" gradientUnits="userSpaceOnUse">
<stop stop-color="#DE00C0"/>
<stop offset="1" stop-color="#8720FF"/>
</linearGradient>
</defs>
</svg>
