<svg width="24" height="24" viewBox="0 0 24 24" fill="none" xmlns="http://www.w3.org/2000/svg">
<path d="M18.3132 2C14.2225 2 13.4751 7.93 15.7565 7.93C18.0575 7.93 22.404 2 18.3132 2ZM12.0001 2.73C11.9214 2.73 11.8526 2.73 11.7837 2.74C9.4827 3.04 10.2891 7.12 11.5084 7.19C12.7081 7.27 14.0061 2.73 12.0001 2.73V2.73ZM7.99784 4.34C7.87983 4.34 7.74216 4.37 7.6045 4.43C5.75579 5.21 7.31932 8.41 8.36168 8.2C9.31553 8 9.43353 4.3 7.99784 4.34V4.34ZM5.04777 6.85C4.89044 6.84 4.71343 6.9 4.53643 7.03C3.05157 8.07 5.02811 10.58 5.90329 10.19C6.66048 9.85 6.17863 6.89 5.04777 6.85V6.85ZM13.2686 8.77C10.1317 8.8 6.12946 10.42 5.43128 13.59C4.65443 17.11 8.61735 22 12.7474 22C14.783 22 17.1234 20.13 17.5659 17.77C17.9002 15.97 13.6226 16.69 13.78 17.88C13.9668 19.31 12.7474 20 11.5576 19.1C7.76183 16.16 17.8314 14.7 17.1627 10.69C16.9464 9.39 15.2845 8.76 13.2686 8.77V8.77Z" fill="url(#paint0_linear)"/>
<defs>
<linearGradient id="paint0_linear" x1="12" y1="2" x2="12" y2="22" gradientUnits="userSpaceOnUse">
<stop stop-color="#BAFA52"/>
<stop offset="1" stop-color="#3F8F5B"/>
</linearGradient>
</defs>
</svg>
