<svg width="32" height="32" viewBox="0 0 32 32" fill="none" xmlns="http://www.w3.org/2000/svg">
<g clip-path="url(#clip0)">
<path d="M28.5001 32C28.0403 32.0014 27.5847 31.9115 27.1599 31.7355C26.7351 31.5596 26.3493 31.3011 26.0251 30.975L21.8971 26.847C20.7257 27.1057 19.5055 27.0349 18.3719 26.6426C17.2382 26.2502 16.2354 25.5516 15.4745 24.6242C14.7136 23.6967 14.2243 22.5767 14.061 21.3883C13.8977 20.1998 14.0666 18.9893 14.5491 17.891L15.1371 16.551L19.2931 20.707C19.4834 20.8888 19.7365 20.9902 19.9996 20.9902C20.2628 20.9902 20.5158 20.8888 20.7061 20.707C20.7991 20.6143 20.8729 20.5041 20.9233 20.3829C20.9737 20.2616 20.9997 20.1316 20.9998 20.0002C20.9999 19.8689 20.9741 19.7388 20.9239 19.6175C20.8737 19.4961 20.8 19.3859 20.7071 19.293L16.5511 15.136L17.8911 14.548C18.9895 14.0658 20.2 13.8971 21.3884 14.0606C22.5768 14.2242 23.6967 14.7135 24.6241 15.4745C25.5514 16.2354 26.25 17.2383 26.6424 18.3719C27.0347 19.5055 27.1056 20.7256 26.8471 21.897L30.9751 26.025C31.4646 26.5145 31.798 27.1382 31.9331 27.8171C32.0682 28.4961 31.9989 29.1999 31.7339 29.8394C31.469 30.479 31.0204 31.0257 30.4447 31.4102C29.8691 31.7948 29.1924 32.0001 28.5001 32V32ZM22.4701 24.591L27.4401 29.561C27.7257 29.8337 28.1053 29.9858 28.5001 29.9858C28.8949 29.9858 29.2746 29.8337 29.5601 29.561C29.6996 29.4219 29.8102 29.2566 29.8858 29.0746C29.9613 28.8926 30.0001 28.6975 30.0001 28.5005C30.0001 28.3035 29.9613 28.1084 29.8858 27.9264C29.8102 27.7445 29.6996 27.5792 29.5601 27.44L24.5911 22.47L24.7791 21.887C24.9988 21.2119 25.0554 20.4943 24.9444 19.7931C24.8334 19.0919 24.5579 18.4269 24.1405 17.8526C23.7231 17.2783 23.1756 16.811 22.5428 16.489C21.9101 16.167 21.2101 15.9995 20.5001 16C20.4161 16 20.3328 16.0024 20.2501 16.007L22.1221 17.879C22.6845 18.4416 23.0005 19.2045 23.0005 20C23.0005 20.7955 22.6845 21.5584 22.1221 22.121C21.5506 22.6667 20.7908 22.9712 20.0006 22.9712C19.2104 22.9712 18.4506 22.6667 17.8791 22.121L16.0071 20.249C16.0024 20.3324 16.0001 20.416 16.0001 20.5C15.9996 21.2101 16.1672 21.9102 16.4892 22.5431C16.8113 23.176 17.2786 23.7236 17.853 24.1411C18.4274 24.5586 19.0924 24.8342 19.7938 24.9452C20.4952 25.0563 21.2128 24.9997 21.8881 24.78L22.4701 24.591Z" fill="url(#paint0_linear)"/>
<path d="M25 5H22V4C21.9984 3.47005 21.7872 2.96227 21.4125 2.58753C21.0377 2.2128 20.5299 2.00158 20 2H12C11.4701 2.00158 10.9623 2.2128 10.5875 2.58753C10.2128 2.96227 10.0016 3.47005 10 4V5H7C6.47005 5.00158 5.96227 5.2128 5.58753 5.58753C5.2128 5.96227 5.00158 6.47005 5 7V28C5.00158 28.5299 5.2128 29.0377 5.58753 29.4125C5.96227 29.7872 6.47005 29.9984 7 30H14V28H7V7H10V10H22V7H25V12H27V7C26.9984 6.47005 26.7872 5.96227 26.4125 5.58753C26.0377 5.2128 25.5299 5.00158 25 5ZM20 8H12V4H20V8Z" fill="url(#paint1_linear)"/>
</g>
<defs>
<linearGradient id="paint0_linear" x1="23.0004" y1="32" x2="23.0004" y2="14" gradientUnits="userSpaceOnUse">
<stop stop-color="#FDA700"/>
<stop offset="1" stop-color="#FFDE00"/>
</linearGradient>
<linearGradient id="paint1_linear" x1="16" y1="30" x2="16" y2="2" gradientUnits="userSpaceOnUse">
<stop stop-color="#FD2E00"/>
<stop offset="1" stop-color="#FF9900"/>
</linearGradient>
<clipPath id="clip0">
<rect width="32" height="32" fill="white"/>
</clipPath>
</defs>
</svg>
