<svg width="192" height="192" viewBox="0 0 192 192" fill="none" xmlns="http://www.w3.org/2000/svg">
<path d="M82.3111 6.0709C102.278 2.96166 123.245 6.66964 140.855 16.5856C157.822 26.0184 171.621 41.0184 179.578 58.7074C188.651 78.6129 190.093 101.817 183.683 122.72C177.399 143.518 163.316 161.806 144.886 173.319C130.203 182.604 112.804 187.468 95.4366 187.3C73.6696 187.121 52.05 178.907 35.8195 164.411C21.6626 151.964 11.5159 135.031 7.32673 116.659C2.62178 96.344 5.08477 74.4322 14.421 55.7557C27.2306 29.5268 53.3552 10.3041 82.3111 6.0709ZM82.3532 18.7285C57.7654 22.9196 35.9037 39.7158 25.2097 62.1423C15.1157 82.9826 14.9788 108.34 24.8098 129.306C31.6093 143.907 43.0612 156.291 57.0286 164.338C70.7224 172.258 86.8687 175.777 102.636 174.495C118.803 173.277 134.508 166.838 146.875 156.396C159.685 145.714 169.011 130.913 172.873 114.695C176.947 97.8671 175.357 79.6738 168.179 63.886C160.948 47.762 148.065 34.2747 132.339 26.1969C117.109 18.3083 99.2363 15.6822 82.3532 18.7285Z" fill="url(#paint0_linear_644_29)" stroke="url(#paint1_linear_644_29)" stroke-width="6"/>
<path fill-rule="evenodd" clip-rule="evenodd" d="M136.812 58.5288C127.254 46.1864 111.624 38.5184 95.8984 39.4217C101.636 49.9427 107.671 60.2979 113.705 70.6501L113.706 70.6507L113.706 70.6516L113.706 70.6519L113.706 70.6523L113.707 70.6526L113.707 70.6529C116.528 75.4932 119.349 80.3329 122.139 85.1885C125.163 81.0022 127.685 76.4856 130.208 71.9674C131.883 68.9693 133.558 65.9704 135.38 63.0667C135.543 62.6366 135.824 62.1959 136.11 61.7463C136.769 60.7135 137.457 59.6339 136.812 58.5288ZM81.8056 40.4931C66.4277 42.741 51.9445 52.2578 45.1133 66.3965C61.7057 66.8312 78.326 66.6805 94.9304 66.5299H94.9305H94.9306H94.9306L98.0782 66.5015C95.2959 61.4673 92.4141 56.4894 89.5327 51.5121L89.5321 51.5111C87.9225 48.7308 86.3131 45.9507 84.7212 43.1612C84.5171 42.9066 84.3309 42.598 84.1402 42.2822C83.5836 41.36 82.9895 40.3758 81.8056 40.4931ZM119.613 112.951C125.29 102.961 131.079 93.038 136.866 83.1179L136.87 83.1109L136.874 83.1038L136.878 83.0968C139.971 77.7951 143.063 72.4942 146.137 67.1843C155.589 80.22 156.305 98.1087 150.253 112.741C147.768 113.79 145.163 113.598 142.551 113.406H142.55H142.55H142.55C141.213 113.308 139.874 113.209 138.548 113.277L137.964 113.307L137.551 113.329L137.55 113.329C131.572 113.641 125.546 113.956 119.613 112.951ZM44.8587 77.1949C43.8682 77.1967 42.7936 77.1987 42.3024 78.1402C36.0607 92.5414 37.5238 109.789 46.0285 122.983C48.5082 119.759 50.4843 116.203 52.4596 112.649L52.4596 112.649L52.4597 112.649C53.5866 110.621 54.7133 108.593 55.9331 106.628C57.9704 102.925 60.1282 99.2839 62.2856 95.6435C65.8685 89.5977 69.4507 83.5532 72.4793 77.2263C67.6774 77.1696 62.8785 77.1742 58.0794 77.1788H58.077C53.9985 77.1827 49.9199 77.1866 45.839 77.1528C45.5416 77.1937 45.2053 77.1943 44.8587 77.1949ZM61.6892 119.365L61.6893 119.365L61.6893 119.365C64.1022 115.036 66.5145 110.708 69.5129 106.785C72.5876 112.139 75.706 117.472 78.8246 122.804L78.8247 122.804L78.825 122.805C84.6206 132.715 90.4165 142.625 95.9322 152.678C80.5648 153.886 65.2185 146.249 55.4928 134.59C53.6667 132.848 54.9007 130.882 56.0343 129.076C56.3709 128.54 56.6986 128.018 56.9348 127.52C58.6204 124.87 60.1549 122.117 61.6892 119.365ZM94.9194 124.956L94.5117 124.957C96.5063 129.272 98.914 133.371 101.323 137.471C102.702 139.819 104.082 142.168 105.384 144.558C105.822 145.252 106.215 145.984 106.608 146.717C107.532 148.439 108.461 150.169 109.973 151.428C125.614 149.296 140.877 139.705 147.392 124.989C129.898 124.895 112.403 124.926 94.9194 124.956Z" fill="url(#paint2_linear_644_29)"/>
<defs>
<linearGradient id="paint0_linear_644_29" x1="96.3115" y1="187.304" x2="96.3115" y2="5" gradientUnits="userSpaceOnUse">
<stop stop-color="#5570FF"/>
<stop offset="1" stop-color="#4DD3FF"/>
</linearGradient>
<linearGradient id="paint1_linear_644_29" x1="96.3115" y1="187.304" x2="96.3115" y2="5" gradientUnits="userSpaceOnUse">
<stop stop-color="#5570FF"/>
<stop offset="1" stop-color="#4DD3FF"/>
</linearGradient>
<linearGradient id="paint2_linear_644_29" x1="120.952" y1="151.428" x2="120.952" y2="124.926" gradientUnits="userSpaceOnUse">
<stop stop-color="#5570FF"/>
<stop offset="1" stop-color="#4DD3FF"/>
</linearGradient>
</defs>
</svg>
