<svg width="128" height="128" viewBox="0 0 128 128" fill="none" xmlns="http://www.w3.org/2000/svg">
<path d="M37.4062 80.4062C35.5941 80.4062 34.125 81.8754 34.125 83.6875C34.125 85.4996 35.5941 86.9688 37.4062 86.9688C39.2184 86.9688 40.6875 85.4996 40.6875 83.6875C40.6875 81.8754 39.2184 80.4062 37.4062 80.4062ZM37.4062 67.2812C35.5941 67.2812 34.125 68.7504 34.125 70.5625C34.125 72.3746 35.5941 73.8438 37.4062 73.8438C39.2184 73.8438 40.6875 72.3746 40.6875 70.5625C40.6875 68.7504 39.2184 67.2812 37.4062 67.2812ZM56.401 51.9677L58.347 52.6001L57.1443 54.2556C56.0792 55.7216 56.404 57.7737 57.8701 58.8388C59.3296 59.8993 61.3834 59.5856 62.4533 58.113L63.6562 56.4575L64.8592 58.113C65.9273 59.5834 67.9805 59.9011 69.4424 58.8388C70.9085 57.7735 71.2335 55.7216 70.1682 54.2556L68.9655 52.6001L70.9115 51.9677C72.6351 51.4077 73.5781 49.5566 73.0181 47.8331C72.4581 46.1097 70.6081 45.1663 68.8835 45.7265L66.9375 46.3587V44.3125C66.9375 42.5004 65.4684 41.0312 63.6562 41.0312C61.8441 41.0312 60.375 42.5004 60.375 44.3125V46.3587L58.429 45.7263C56.7048 45.1656 54.8542 46.1095 54.2944 47.8328C53.7344 49.5566 54.6774 51.4079 56.401 51.9677ZM49.7549 58.8388C51.221 57.7735 51.546 55.7216 50.4807 54.2556L49.278 52.6001L51.224 51.9677C52.9476 51.4077 53.8906 49.5566 53.3306 47.8331C52.7708 46.1097 50.9202 45.1663 49.196 45.7265L47.25 46.3587V44.3125C47.25 42.5004 45.7809 41.0312 43.9688 41.0312C42.1566 41.0312 40.6875 42.5004 40.6875 44.3125V46.3587L38.7415 45.7263C37.0173 45.1656 35.1667 46.1095 34.6069 47.8328C34.0469 49.5564 34.9899 51.4074 36.7135 51.9674L38.6595 52.5998L37.4568 54.2553C36.3917 55.7214 36.7165 57.7735 38.1826 58.8386C39.6421 59.8991 41.6959 59.5854 42.7658 58.1128L43.9688 56.4575L45.1717 58.113C46.2398 59.5832 48.2928 59.9008 49.7549 58.8388ZM37.4062 93.5312C35.5941 93.5312 34.125 95.0004 34.125 96.8125C34.125 98.6246 35.5941 100.094 37.4062 100.094C39.2184 100.094 40.6875 98.6246 40.6875 96.8125C40.6875 95.0004 39.2184 93.5312 37.4062 93.5312ZM103.031 14.5625H83.3438V11.2812C83.3438 9.46912 81.8746 8 80.0625 8H47.25C45.4379 8 43.9688 9.46912 43.9688 11.2812V14.5625H24.2812C22.4691 14.5625 21 16.0316 21 17.8438V116.719C21 118.531 22.4691 120 24.2812 120H103.031C104.843 120 106.312 118.531 106.312 116.719V17.8438C106.312 16.0316 104.843 14.5625 103.031 14.5625ZM50.5312 14.5625H76.7812V17.8438C76.7812 19.653 75.3093 21.125 73.5 21.125H53.8125C52.0032 21.125 50.5312 19.653 50.5312 17.8438V14.5625ZM99.75 113.438H27.5625V21.125H44.5331C45.8876 24.9439 49.5348 27.6875 53.8125 27.6875H73.5C77.7777 27.6875 81.4249 24.9439 82.7794 21.125H99.75V113.438ZM89.9062 93.5312H50.5312C48.7191 93.5312 47.25 95.0004 47.25 96.8125C47.25 98.6246 48.7191 100.094 50.5312 100.094H89.9062C91.7184 100.094 93.1875 98.6246 93.1875 96.8125C93.1875 95.0004 91.7184 93.5312 89.9062 93.5312ZM80.0625 44.3125V46.3587L78.1165 45.7263C76.3923 45.1656 74.5417 46.1095 73.9819 47.8328C73.4219 49.5564 74.3649 51.4074 76.0885 51.9674L78.0345 52.5998L76.8318 54.2553C75.7667 55.7214 76.0915 57.7735 77.5576 58.8386C79.0171 59.8991 81.0709 59.5854 82.1408 58.1128L83.3438 56.4575L84.5467 58.113C85.6148 59.5834 87.668 59.9011 89.1299 58.8388C90.596 57.7735 90.921 55.7216 89.8557 54.2556L88.653 52.6001L90.599 51.9677C92.3226 51.4077 93.2656 49.5566 92.7056 47.8331C92.1456 46.1097 90.2952 45.1663 88.571 45.7265L86.625 46.3587V44.3125C86.625 42.5004 85.1559 41.0312 83.3438 41.0312C81.5316 41.0312 80.0625 42.5004 80.0625 44.3125ZM89.9062 67.2812H50.5312C48.7191 67.2812 47.25 68.7504 47.25 70.5625C47.25 72.3746 48.7191 73.8438 50.5312 73.8438H89.9062C91.7184 73.8438 93.1875 72.3746 93.1875 70.5625C93.1875 68.7504 91.7184 67.2812 89.9062 67.2812ZM89.9062 80.4062H50.5312C48.7191 80.4062 47.25 81.8754 47.25 83.6875C47.25 85.4996 48.7191 86.9688 50.5312 86.9688H89.9062C91.7184 86.9688 93.1875 85.4996 93.1875 83.6875C93.1875 81.8754 91.7184 80.4062 89.9062 80.4062Z" fill="url(#paint0_linear_618_29)" stroke="url(#paint1_linear_618_29)" stroke-width="2"/>
<defs>
<linearGradient id="paint0_linear_618_29" x1="59.9465" y1="116.992" x2="76.3756" y2="16.9031" gradientUnits="userSpaceOnUse">
<stop stop-color="#8D01A2"/>
<stop offset="1" stop-color="#FF33DB"/>
</linearGradient>
<linearGradient id="paint1_linear_618_29" x1="59.9465" y1="116.992" x2="76.3756" y2="16.9031" gradientUnits="userSpaceOnUse">
<stop stop-color="#8D01A2"/>
<stop offset="1" stop-color="#FF33DB"/>
</linearGradient>
</defs>
</svg>
