<svg width="192" height="192" viewBox="0 0 192 192" fill="none" xmlns="http://www.w3.org/2000/svg">
<path d="M65.44 31.59C69.02 30.71 73.42 28.5 76.64 31.41C80.32 34.38 78.56 40.97 73.89 41.71C60.74 44.59 48.64 51.54 39.19 61.07C35.31 65.1 33.54 70.52 31.77 75.7C25.41 93.41 22.1 112.23 22.07 131.05C31.66 140.11 43.95 146.12 56.92 148.43C56.91 146.85 56.91 145.28 56.91 143.7C48.41 140.24 40.19 135.85 33.18 129.87C30.37 127.11 31.47 121.86 35.09 120.37C37.53 119.13 40.3 120.17 42.25 121.82C57.61 133.25 76.86 139.16 95.98 138.73C115.41 139.28 134.99 133.22 150.57 121.56C152.63 119.73 155.83 119.15 158.18 120.78C161.34 122.64 161.88 127.55 159.18 130.04C152.11 135.85 144.02 140.37 135.49 143.67C135.48 145.24 135.48 146.81 135.48 148.39C148.46 146.11 160.77 140.02 170.34 130.94C170.16 114.77 167.92 98.58 163.07 83.13C160.57 75.65 158.96 67.43 153.38 61.49C144.06 51.23 131.23 44.47 117.78 41.47C114.6 40.8 112.61 37.09 113.59 34.04C114.35 31.36 117.18 29.37 119.97 29.85C132.41 32.38 144.26 37.8 154.16 45.78C159.66 50.28 165.18 55.25 168.05 61.91C178.37 84.45 181.31 109.48 182.48 133.99C182.53 136.77 180.17 138.59 178.36 140.33C165.15 152.48 147.81 160.04 129.89 161.24C126.78 161.6 123.74 158.92 123.57 155.83C123.41 153.11 123.51 150.39 123.46 147.67C105.49 151.98 86.5 152 68.53 147.64C68.5 150.37 68.62 153.11 68.46 155.83C68.32 158.93 65.2 161.64 62.1 161.22C45.03 159.8 28.51 152.69 15.76 141.25C13.42 138.97 9.93998 136.75 10.26 133.03C11.39 110.01 13.71 86.47 23.15 65.18C30.88 48.01 47.97 37.01 65.44 31.59Z" fill="url(#paint0_linear)"/>
<path d="M86.1399 51.1C105.5 49.69 125.48 52.22 143.01 60.89C146.55 62.57 147.25 67.83 144.38 70.44C142.35 72.54 139.13 72.51 136.72 71.12C119.19 62.88 99.2099 61.29 80.1799 63.74C71.3499 65.04 62.7299 67.65 54.6199 71.38C51.5199 73.18 47.1499 71.35 46.1699 67.91C45.1199 65.03 46.8099 61.69 49.6099 60.59C61.0499 55.2 73.5199 51.97 86.1399 51.1Z" fill="url(#paint1_linear)"/>
<path d="M68.4 84.7C74.23 82.05 81.01 84.28 85.61 88.28C95.2 96.37 94.99 113.33 85.05 121.05C80.72 124.45 74.69 126.58 69.32 124.45C61.09 121.9 55.22 113.57 55.52 104.97C54.88 96.35 60.24 87.67 68.4 84.7ZM71.52 95.69C65.44 99.52 65.66 110.54 72.44 113.48C78.24 115.03 81.73 107.72 80.81 102.88C80.61 98.42 76.29 93.27 71.52 95.69Z" fill="url(#paint2_linear)"/>
<path d="M113.41 84.53C119.7 82.23 126.69 85.3101 131.07 89.9301C140.25 99.5001 137.81 117.83 125.44 123.57C117.5 128.17 107.26 123.85 102.69 116.51C99.1599 111.17 98.8099 104.3 100.23 98.2201C101.98 91.8401 107.09 86.5 113.41 84.53ZM116.41 95.53C109.2 98.54 109.33 111.37 116.9 113.84C122.22 114.77 125.3 108.47 124.85 103.95C124.78 99.66 121.33 94.13 116.41 95.53Z" fill="url(#paint3_linear)"/>
<defs>
<linearGradient id="paint0_linear" x1="96.3601" y1="161.273" x2="96.3601" y2="29.7783" gradientUnits="userSpaceOnUse">
<stop stop-color="#FDA700"/>
<stop offset="1" stop-color="#FFDE00"/>
</linearGradient>
<linearGradient id="paint1_linear" x1="96.0083" y1="72.1002" x2="96.0083" y2="50.7333" gradientUnits="userSpaceOnUse">
<stop stop-color="#FDA700"/>
<stop offset="1" stop-color="#FFDE00"/>
</linearGradient>
<linearGradient id="paint2_linear" x1="74.0624" y1="125.303" x2="74.0624" y2="83.5486" gradientUnits="userSpaceOnUse">
<stop stop-color="#FDA700"/>
<stop offset="1" stop-color="#FFDE00"/>
</linearGradient>
<linearGradient id="paint3_linear" x1="118.034" y1="125.466" x2="118.034" y2="83.75" gradientUnits="userSpaceOnUse">
<stop stop-color="#FDA700"/>
<stop offset="1" stop-color="#FFDE00"/>
</linearGradient>
</defs>
</svg>
