<svg width="128" height="128" viewBox="0 0 128 128" fill="none" xmlns="http://www.w3.org/2000/svg">
<path d="M49.4212 98.5482C44.9607 96.6585 40.9472 93.9522 37.4974 90.5025C34.0477 87.0527 31.3414 83.039 29.4517 78.5787C28.6459 76.6672 26.4267 75.7772 24.5372 76.5865C22.6292 77.3922 21.7394 79.593 22.5449 81.501C24.8117 86.855 28.0564 91.667 32.1947 95.8052C36.3329 99.9435 41.1449 103.188 46.4989 105.455C48.4039 106.261 50.6077 105.372 51.4134 103.463C52.2189 101.555 51.3289 99.354 49.4212 98.5482ZM105.455 46.4987C103.188 41.1447 99.9434 36.3327 95.8052 32.1945C91.6669 28.0562 86.8549 24.8117 81.5009 22.5447C79.6039 21.7427 77.3919 22.6217 76.5864 24.537C75.7807 26.445 76.6707 28.646 78.5787 29.4515C83.0392 31.3412 87.0527 34.0475 90.5024 37.4972C93.9522 40.947 96.6584 44.9607 98.5482 49.421C99.3559 51.3352 101.563 52.217 103.463 51.4132C105.371 50.6077 106.261 48.4067 105.455 46.4987ZM63.9999 37.75C49.5272 37.75 37.7499 49.5272 37.7499 64C37.7499 78.4727 49.5272 90.25 63.9999 90.25C78.4727 90.25 90.2499 78.4727 90.2499 64C90.2499 49.5272 78.4727 37.75 63.9999 37.75ZM63.9999 82.75C53.6617 82.75 45.2499 74.3382 45.2499 64C45.2499 53.6617 53.6617 45.25 63.9999 45.25C74.3382 45.25 82.7499 53.6617 82.7499 64C82.7499 74.3382 74.3382 82.75 63.9999 82.75ZM63.9999 52.75C57.7964 52.75 52.7499 57.7965 52.7499 64C52.7499 70.2035 57.7964 75.25 63.9999 75.25C70.2034 75.25 75.2499 70.2035 75.2499 64C75.2499 57.7965 70.2034 52.75 63.9999 52.75ZM63.9999 67.75C61.9309 67.75 60.2499 66.069 60.2499 64C60.2499 61.931 61.9309 60.25 63.9999 60.25C66.0689 60.25 67.7499 61.931 67.7499 64C67.7499 66.069 66.0689 67.75 63.9999 67.75Z" fill="url(#paint0_linear_618_226)"/>
<path d="M125 64C125 50.4291 120.475 37.2456 112.14 26.5358C103.805 15.8259 92.1368 8.20131 78.9815 4.86833C65.8262 1.53536 51.9351 2.6844 39.5063 8.13364C27.0775 13.5829 16.8207 23.0211 10.3589 34.9549C3.89706 46.8887 1.59931 60.6365 3.82917 74.023C6.05904 87.4095 12.6892 99.6702 22.6705 108.865C32.6518 118.06 45.4142 123.664 58.9384 124.79C72.4625 125.916 85.976 122.5 97.3405 115.082L91.8983 106.744C82.3888 112.951 71.0812 115.809 59.7646 114.867C48.448 113.925 37.7688 109.236 29.4168 101.542C21.0647 93.8477 15.5168 83.5883 13.6509 72.387C11.7851 61.1856 13.7077 49.6818 19.1148 39.696C24.5218 29.7101 33.1044 21.8125 43.5044 17.2527C53.9045 12.693 65.5281 11.7315 76.5361 14.5204C87.544 17.3094 97.3076 23.6894 104.282 32.6511C111.256 41.6128 115.043 52.6443 115.043 64H125Z" fill="url(#paint1_linear_618_226)"/>
<path d="M101.147 54.5718L100.459 55.2561C101.699 57.3353 102.561 59.6547 102.36 62.0176L102.359 62.024C102.07 66.0364 99.4673 69.5232 96.3613 72.081C92.554 74.9735 89.7624 79.2419 88.8245 83.9591L88.8227 83.9683C88.102 87.9886 88.597 92.2352 90.2228 95.9823L90.2281 95.9939C90.2485 96.0378 90.2698 96.0848 90.2922 96.1342C90.4007 96.3731 90.5342 96.6671 90.7038 96.9241C90.9123 97.24 91.2071 97.5539 91.6522 97.7175C92.3097 98.0382 93.064 98.0047 93.6888 97.7364C94.319 97.4658 94.8674 96.9343 95.0639 96.2043C95.2104 95.7647 95.1647 95.3462 95.0651 94.9861C94.9855 94.6987 94.8597 94.4132 94.7553 94.1765C94.7326 94.1248 94.7108 94.0755 94.6908 94.029L94.6875 94.0213L94.684 94.0138C93.7277 91.9796 93.3679 89.6905 93.3482 87.4134C93.3293 83.1471 95.5393 79.026 98.8327 76.3313C102.247 73.6908 105.179 70.1734 106.516 65.9622C106.557 65.8462 106.608 65.7363 106.67 65.6321C108.086 67.2826 109.155 69.2434 109.655 71.3424L109.656 71.3441C110.166 73.4541 109.769 75.7235 108.759 77.6647C108.043 79.023 107.287 80.361 106.527 81.7066C106.455 81.8354 106.382 81.9643 106.309 82.0933C105.477 83.5673 104.645 85.0521 103.87 86.569L103.742 86.8181L103.888 87.0569C103.97 87.192 104.136 87.4671 104.219 87.6056L104.424 87.9501L104.804 87.8249C106.201 87.3655 107.563 86.8213 108.907 86.2672C109.197 86.1476 109.485 86.0278 109.773 85.9082C110.825 85.4717 111.868 85.0387 112.925 84.6388C115.17 83.8244 117.193 82.4434 118.752 80.6362C118.788 80.6382 118.825 80.6401 118.861 80.6421C118.867 80.6424 118.872 80.6427 118.878 80.643C119.452 81.8495 119.993 83.0409 120.37 84.2878L120.372 84.2964C121.323 87.2503 121.191 90.5373 120.04 93.4212L120.039 93.4252C118.742 96.7583 116.05 99.516 112.761 100.931L112.756 100.933C108.836 102.668 104.086 102.439 100.39 100.264C99.7599 99.8627 98.7668 99.4303 97.8267 99.9545C96.9681 100.356 96.525 101.23 96.4773 102.067C96.4293 102.91 96.7773 103.832 97.6402 104.301C101.151 106.418 105.384 107.302 109.449 106.803C114.469 106.264 119.168 103.517 122.175 99.48C125.329 95.3172 126.55 89.7941 125.495 84.6854L125.493 84.6803C124.469 79.9705 121.975 75.6102 118.498 72.2942C118.223 71.9163 117.769 71.8361 117.416 71.9505C117.053 72.0681 116.723 72.4171 116.754 72.9089C116.676 74.5964 116.151 76.2492 115.04 77.4678C114.918 77.5902 114.793 77.7245 114.674 77.8527C114.624 77.9068 114.574 77.9598 114.527 78.0104C114.356 78.1912 114.193 78.3562 114.025 78.4976C113.894 78.6076 113.766 78.6984 113.637 78.7679C113.721 78.4446 113.833 78.1176 113.953 77.7717C113.962 77.7468 113.971 77.7217 113.98 77.6965C114.174 77.1381 114.387 76.5261 114.478 75.8745C115.305 71.8509 114.043 67.7024 111.833 64.408C109.103 60.3329 105.296 57.0761 101.147 54.5718Z" fill="#FF0046" stroke="#FF0046"/>
<defs>
<linearGradient id="paint0_linear_618_226" x1="61.5" y1="93" x2="106" y2="77" gradientUnits="userSpaceOnUse">
<stop stop-color="#9000FF"/>
<stop offset="1" stop-color="#FF00FF"/>
</linearGradient>
<linearGradient id="paint1_linear_618_226" x1="64.0001" y1="125" x2="64.0001" y2="3.00003" gradientUnits="userSpaceOnUse">
<stop stop-color="#9000FF"/>
<stop offset="1" stop-color="#FF1FFF"/>
</linearGradient>
</defs>
</svg>
