<svg width="512" height="512" viewBox="0 0 512 512" fill="none" xmlns="http://www.w3.org/2000/svg">
<path d="M186.575 162.152C204.721 177.464 234.004 193.426 259.419 203.385C237.557 187.519 215.801 169.636 194.085 146.23C212.161 107.684 233.745 54.4437 255.997 0.0976562C292.277 92.7957 359.897 232.3 450.483 397.816C425.873 384.303 403.575 376.609 380.553 370.664C388.183 375.019 406.218 384.861 417.79 392.772C436.07 405.269 452.988 418.935 468.897 432.021C483.097 458.131 497.471 484.781 512 511.901C439.744 470.064 369.527 436.174 312 425.706C330.833 321.235 257.12 259.599 215.24 326.096C199.114 351.699 194.753 393.883 202.4 425.229C129.667 439.235 58.503 478.44 0 511.902C68.143 388.425 137.038 263.253 186.575 162.152Z" fill="url(#paint0_linear)"/>
<defs>
<linearGradient id="paint0_linear" x1="74.981" y1="436.949" x2="436.88" y2="74.9114" gradientUnits="userSpaceOnUse">
<stop stop-color="#0072FF"/>
<stop offset="1" stop-color="#00E5A1"/>
</linearGradient>
</defs>
</svg>
