<svg width="192" height="192" viewBox="0 0 192 192" fill="none" xmlns="http://www.w3.org/2000/svg">
<path d="M80.2102 158.85L88.8977 143.807C96.2698 146.91 104.26 148.265 112.243 147.764C120.226 147.264 127.984 144.923 134.911 140.924C141.838 136.926 147.746 131.377 152.171 124.714C156.596 118.052 159.419 110.455 160.419 102.52H177.794C176.864 112.413 173.803 121.988 168.821 130.585C165.441 136.454 161.216 141.793 156.282 146.432C153.456 145.57 150.482 145.3 147.546 145.637C144.611 145.974 141.775 146.913 139.218 148.392C136.66 149.866 134.432 151.85 132.673 154.221C130.914 156.592 129.661 159.3 128.993 162.176C112.87 167.07 95.5119 165.888 80.2016 158.85H80.2102ZM68.9838 152.373C55.2433 142.63 45.5477 128.191 41.7293 111.785C43.8829 109.769 45.599 107.33 46.7711 104.622C47.9432 101.914 48.5463 98.9936 48.5429 96.0428C48.5429 89.825 45.9177 84.2204 41.7121 80.2825C43.2623 73.6902 45.7734 67.3616 49.1647 61.4998C54.1204 52.889 60.8816 45.4532 68.9838 39.7032L77.6713 54.7467C71.2981 59.5799 66.1304 65.8227 62.5724 72.9864C59.0145 80.1499 57.163 88.0399 57.163 96.0384C57.163 104.037 59.0145 111.927 62.5724 119.091C66.1304 126.254 71.2981 132.497 77.6713 137.33L68.9923 152.373H68.9838ZM80.2102 33.2351C95.519 26.2188 112.862 25.0305 128.985 29.893C129.652 32.7727 130.904 35.4846 132.663 37.8601C134.422 40.2356 136.65 42.2242 139.211 43.7021C141.771 45.1801 144.607 46.116 147.544 46.4516C150.481 46.7873 153.455 46.5155 156.282 45.6533C168.559 57.1836 176.204 72.7981 177.785 89.5659H160.402C159.408 81.6304 156.589 74.0333 152.164 67.3714C147.739 60.7095 141.83 55.1644 134.9 51.1715C127.978 47.1658 120.221 44.8199 112.239 44.3178C104.257 43.8159 96.2673 45.1716 88.8977 48.2785L80.2102 33.2351ZM143.536 36.2144C142.051 35.37 140.748 34.2403 139.701 32.8901C138.654 31.5401 137.884 29.9962 137.438 28.3475C136.99 26.6989 136.873 24.9781 137.093 23.2839C137.313 21.5899 137.866 19.9561 138.72 18.4767C139.574 16.9972 140.713 15.7014 142.07 14.6637C143.427 13.626 144.976 12.8669 146.628 12.4303C148.279 11.9936 150.001 11.888 151.694 12.1194C153.386 12.3508 155.016 12.9148 156.49 13.7788C159.44 15.5087 161.588 18.3356 162.462 21.6426C163.336 24.9496 162.866 28.4682 161.156 31.4306C159.447 34.3929 156.633 36.5584 153.332 37.4547C150.031 38.3509 146.51 37.9051 143.536 36.2144ZM39.9072 96.0428C39.9072 99.4783 38.5424 102.773 36.1132 105.202C33.6839 107.632 30.3891 108.997 26.9536 108.997C23.5181 108.997 20.2233 107.632 17.794 105.202C15.3647 102.773 14 99.4783 14 96.0428C14 92.6073 15.3647 89.3124 17.794 86.8831C20.2233 84.4539 23.5181 83.0891 26.9536 83.0891C30.3891 83.0891 33.6839 84.4539 36.1132 86.8831C38.5424 89.3124 39.9072 92.6073 39.9072 96.0428ZM143.536 155.871C145.01 155.007 146.64 154.443 148.333 154.212C150.025 153.98 151.746 154.086 153.399 154.523C155.05 154.96 156.599 155.718 157.956 156.756C159.312 157.794 160.451 159.09 161.305 160.569C162.16 162.049 162.713 163.682 162.933 165.376C163.153 167.071 163.036 168.791 162.588 170.44C162.141 172.088 161.371 173.633 160.325 174.983C159.278 176.333 157.975 177.463 156.49 178.307C153.516 179.998 149.995 180.444 146.693 179.547C143.392 178.651 140.58 176.485 138.869 173.523C137.159 170.56 136.69 167.042 137.564 163.735C138.439 160.428 140.585 157.601 143.536 155.871Z" fill="url(#paint0_linear_640_198)" stroke="url(#paint1_linear_640_198)" stroke-width="4"/>
<defs>
<linearGradient id="paint0_linear_640_198" x1="95.8969" y1="180" x2="95.8969" y2="12" gradientUnits="userSpaceOnUse">
<stop stop-color="#FD5900"/>
<stop offset="1" stop-color="#FFDE00"/>
</linearGradient>
<linearGradient id="paint1_linear_640_198" x1="95.8969" y1="180" x2="95.8969" y2="12" gradientUnits="userSpaceOnUse">
<stop stop-color="#FD5900"/>
<stop offset="1" stop-color="#FFDE00"/>
</linearGradient>
</defs>
</svg>
