<svg width="64" height="64" viewBox="0 0 64 64" fill="none" xmlns="http://www.w3.org/2000/svg">
<path d="M32 4C24.5739 4 17.452 6.94999 12.201 12.201C6.94999 17.452 4 24.5739 4 32C4 39.4261 6.94999 46.548 12.201 51.799C17.452 57.05 24.5739 60 32 60C39.4261 60 46.548 57.05 51.799 51.799C57.05 46.548 60 39.4261 60 32C60 24.5739 57.05 17.452 51.799 12.201C46.548 6.94999 39.4261 4 32 4ZM32 10.2237C34.8916 10.1733 37.7644 10.6993 40.4505 11.771C43.1367 12.8428 45.5825 14.4388 47.6453 16.4659C49.708 18.493 51.3464 20.9106 52.4648 23.5777C53.5831 26.2448 54.1591 29.1079 54.1591 32C54.1591 34.8921 53.5831 37.7552 52.4648 40.4223C51.3464 43.0894 49.708 45.507 47.6453 47.5341C45.5825 49.5612 43.1367 51.1572 40.4505 52.229C37.7644 53.3007 34.8916 53.8267 32 53.7763C26.5106 53.7795 21.2257 51.6939 17.2179 47.9428C18.4745 47.7709 20.4587 47.7444 23.0514 48.042C26.8411 48.472 28.9179 48.6175 31.4114 48.4323C37.0993 48.0024 40.856 47.0632 45.0228 45.0261C47.2054 43.9679 47.6684 43.4851 48.1313 42.2086C48.5877 40.9982 48.753 39.8739 48.5282 39.8739C48.4422 39.8739 47.7279 40.1517 46.8747 40.5551C43.6669 42.0763 40.856 42.8237 38.4089 42.698C35.8758 42.5657 31.7817 41.0842 26.8478 38.7098L24.5131 37.6384L22.7604 33.2666L24.4138 34.3314C27.6146 36.3741 31.0414 38.0387 34.6257 39.2918C38.8719 40.6345 42.1854 40.4493 45.6048 38.7098C46.8152 38.0947 49.1102 36.5934 49.1102 36.3751C49.1102 35.9783 47.9329 32.0364 47.2583 30.2506C45.5784 25.7928 44.3945 24.2849 41.6232 22.9621C38.5412 21.4938 35.1284 20.4951 28.8848 19.0731C25.9086 18.4382 22.972 17.7966 19.9428 17.4196L19.8436 21.1102C17.9479 20.5358 16.0357 20.0175 14.1094 19.5559C16.121 16.6767 18.7978 14.3254 21.9125 12.7019C25.0271 11.0783 28.4876 10.2305 32 10.2303V10.2237ZM37.1522 25.9714C38.2094 25.9599 39.2386 26.3106 40.0689 26.9652C40.8991 27.6198 41.4803 28.5387 41.7158 29.5694C42.0135 30.7268 41.9209 31.5536 41.3322 32.7771C40.9021 33.6607 40.1928 34.3779 39.314 34.8178C38.4353 35.2578 37.4361 35.396 36.471 35.2111C35.7306 35.0887 35.032 34.7849 34.4376 34.3267C33.8432 33.8685 33.3716 33.2703 33.0648 32.5853C32.2579 30.8326 32.6349 28.5045 34.0371 27.2347C34.8889 26.4564 35.9922 26.0104 37.1456 25.978L37.1522 25.9714ZM38.2171 28.4053C36.5901 28.4053 35.5715 29.5958 36.471 30.4424C37.1985 31.1303 38.4155 31.2361 39.3811 30.7401C40.0161 30.416 40.2277 29.9265 40.069 29.285C39.9499 28.8022 39.0107 28.4053 38.2171 28.4053Z" fill="url(#paint0_linear_674_139)"/>
<defs>
<linearGradient id="paint0_linear_674_139" x1="35.9076" y1="57.8276" x2="26.8255" y2="5.66892" gradientUnits="userSpaceOnUse">
<stop stop-color="#37CE90"/>
<stop offset="1" stop-color="#9FF66A"/>
</linearGradient>
</defs>
</svg>
