<svg width="48" height="48" viewBox="0 0 48 48" fill="none" xmlns="http://www.w3.org/2000/svg">
<path d="M24 44C35.0457 44 44 35.0457 44 24C44 12.9543 35.0457 4 24 4C12.9543 4 4 12.9543 4 24C4 35.0457 12.9543 44 24 44Z" fill="url(#paint0_linear)"/>
<path d="M28.1715 8.00061C27.7944 8.00563 27.403 8.0412 26.9358 8.13377C26.0855 8.30222 25.1993 8.81664 24.4505 9.33817C21.9079 11.1089 21.2362 14.5695 22.9451 17.0694C24.3747 19.1606 27.0471 19.8928 29.3778 19.0926C29.8697 18.9237 30.0668 18.9058 30.4482 18.874C30.9401 18.833 31.732 18.8938 32.4416 19.2437C33.0188 19.5284 33.5125 19.7767 33.8328 20.4382C33.9162 20.6103 34.063 20.9164 34.0945 21.3027C34.1446 21.9185 34.0219 22.2183 33.6144 23C34.2624 22.4774 34.5728 22.3912 35.5349 21.2212C37.4501 18.8923 37.5502 15.0013 35.4641 11.9497C33.9176 9.68758 31.5501 8.24302 29.3187 8.05626C28.9107 8.02211 28.5487 7.9956 28.1715 8.00061H28.1715Z" fill="url(#paint1_linear)"/>
<path d="M14.6686 15.0012C12.0391 15.0594 9.29451 16.8175 7.92782 19.6987C6.76998 22.1396 6.71364 24.8844 7.66217 26.8943C8.00908 27.6294 8.2909 28.1918 8.91227 28.9042C9.47764 29.5523 10.3547 30.0617 11.1703 30.4492C13.9388 31.7645 17.217 30.6415 18.497 27.9452V27.9432C19.5662 25.6871 18.8655 23.0293 17.0282 21.4194C16.6402 21.0795 16.5277 20.9192 16.3113 20.6069C16.0322 20.2042 15.6898 19.4941 15.6355 18.7123C15.5913 18.0761 15.5557 17.5293 15.9597 16.929C16.0649 16.7727 16.254 16.4974 16.5672 16.2805C17.0664 15.9349 17.3814 15.8924 18.249 15.8586C17.4825 15.5584 17.2572 15.3334 15.7839 15.0812C15.4173 15.0185 15.0442 14.9928 14.6686 15.0012V15.0012Z" fill="url(#paint2_linear)"/>
<path d="M30.751 27.0013C30.5707 26.9972 30.3891 27.0037 30.2055 27.0184V27.0164C27.7491 27.2128 25.8256 29.1032 25.3562 31.4417C25.2571 31.9353 25.1752 32.1089 25.0151 32.4441C24.8086 32.8764 24.369 33.5129 23.7276 33.9402C23.2058 34.2879 22.7554 34.5833 22.043 34.5348C21.8576 34.5222 21.5291 34.4973 21.1892 34.3385C20.6475 34.0853 20.4569 33.8411 20 33.1245C20.1216 33.9186 20.0398 34.217 20.5512 35.5849C21.5692 38.3079 24.788 40.2587 28.3726 39.9721C31.0298 39.7596 33.4043 38.4685 34.6539 36.6865C35.111 36.0347 35.4523 35.5217 35.7545 34.6492C36.0294 33.8553 36.032 32.8649 35.9607 31.9868C35.7339 29.1915 33.4546 27.0628 30.751 27.0012V27.0013Z" fill="url(#paint3_linear)"/>
<defs>
<linearGradient id="paint0_linear" x1="24.0475" y1="43.9937" x2="40.3706" y2="13.1946" gradientUnits="userSpaceOnUse">
<stop stop-color="#343434"/>
<stop offset="1" stop-color="#8C8C8C"/>
</linearGradient>
<linearGradient id="paint1_linear" x1="22" y1="8" x2="22" y2="23" gradientUnits="userSpaceOnUse">
<stop stop-color="white"/>
<stop offset="1" stop-color="#E0E0E0"/>
</linearGradient>
<linearGradient id="paint2_linear" x1="7.00049" y1="14.9996" x2="7.00049" y2="30.9996" gradientUnits="userSpaceOnUse">
<stop stop-color="white"/>
<stop offset="1" stop-color="#E0E0E0"/>
</linearGradient>
<linearGradient id="paint3_linear" x1="20" y1="27.0001" x2="20" y2="40" gradientUnits="userSpaceOnUse">
<stop stop-color="white"/>
<stop offset="1" stop-color="#E0E0E0"/>
</linearGradient>
</defs>
</svg>
