<svg width="64" height="64" viewBox="0 0 64 64" fill="none" xmlns="http://www.w3.org/2000/svg">
<path fill-rule="evenodd" clip-rule="evenodd" d="M5.00427 7.00429C4.45032 7.00193 4 7.45033 4 8.00428V22.0454C4 22.5976 4.44772 23.0454 5 23.0454H9.6073C10.1596 23.0454 10.6073 23.4931 10.6073 24.0454V26.2663L10.6139 38.8989C10.6139 49.3026 19.6485 57.1996 30.0588 57.1996H59C59.5523 57.1996 60 56.7519 60 56.1996V25.4396C60 15.0227 50.972 7.13889 40.5551 7.13889L31.8446 7.11905L5.00427 7.00429ZM8.25275 12.2705C8.25275 11.7164 8.7032 11.268 9.25724 11.2705L31.8215 11.3718C31.8269 11.3718 31.8313 11.3762 31.8313 11.3817V11.3817C31.8313 11.3872 31.8358 11.3916 31.8413 11.3916H40.5551C48.9548 11.3916 55.7671 17.6815 55.7671 25.4462V48.6809C55.7671 51.2603 53.439 52.9469 50.7868 52.9469H30.0654C21.6724 52.9469 14.8667 46.657 14.8667 38.8923L14.8468 22.966C14.8387 21.9012 14.4264 20.8792 13.6933 20.1069C12.9603 19.3346 11.9612 18.8695 10.8983 18.8058H9.25275C8.70046 18.8058 8.25275 18.3581 8.25275 17.8058V12.2705ZM19.9342 15.9883C19.3819 15.9883 18.9342 16.436 18.9342 16.9883V39.0709C18.9342 41.518 19.8271 43.6675 21.5732 45.4004C23.0613 46.8753 24.8537 47.8277 26.8643 48.0459H31.5589C32.1112 48.0459 32.5589 47.5982 32.5589 47.0459V44.5114C32.5589 43.9607 32.1136 43.5136 31.5629 43.5114L27.6646 43.4956C25.2968 43.4956 23.2597 41.1807 23.2597 38.2111V16.9883C23.2597 16.436 22.812 15.9883 22.2597 15.9883H19.9342ZM35.2574 19.7847C33.2864 19.7847 31.5403 20.5122 30.1316 21.9342C29.4462 22.6113 28.904 23.4192 28.537 24.31C28.17 25.2007 27.9858 26.1562 27.9953 27.1195V36.2124C27.9953 36.7646 28.443 37.2124 28.9953 37.2124H31.5721C32.1244 37.2124 32.5721 36.7646 32.5721 36.2124V27.1195C32.5721 26.3523 32.8234 25.7504 33.3658 25.2015C33.605 24.9395 33.8977 24.7319 34.224 24.5928C34.5503 24.4536 34.9027 24.386 35.2574 24.3946C36.0246 24.3946 36.6 24.6459 37.1489 25.2015C37.6979 25.7504 37.9426 26.3523 37.9426 27.1195V36.2124C37.9426 36.7646 38.3903 37.2124 38.9426 37.2124H41.526C42.0783 37.2124 42.526 36.7646 42.526 36.2124V27.1195C42.526 26.3523 42.7774 25.7504 43.3197 25.2015C43.5587 24.9392 43.8513 24.7314 44.1777 24.5921C44.5041 24.4529 44.8566 24.3855 45.2113 24.3946C45.9653 24.3946 46.5473 24.6459 47.0963 25.2015C47.6452 25.7504 47.8899 26.3523 47.8899 27.1195L47.9197 36.1627C47.9215 36.7137 48.3687 37.1594 48.9197 37.1594H51.4853C52.0381 37.1594 52.486 36.7109 52.4853 36.1581L52.4734 27.1195C52.4734 25.1221 51.7458 23.3496 50.3371 21.9342C49.6739 21.2461 48.8772 20.7005 47.9959 20.3309C47.1145 19.9613 46.167 19.7754 45.2113 19.7847C43.6181 19.7847 42.1914 20.2708 40.9759 21.1799C40.5401 21.5059 39.9259 21.5016 39.49 21.1758C39.0159 20.8214 38.4975 20.5279 37.947 20.3031C37.0934 19.9546 36.1793 19.7784 35.2574 19.7847Z" fill="url(#paint0_linear_674_135)" stroke="url(#paint1_linear_674_135)" stroke-width="2"/>
<defs>
<linearGradient id="paint0_linear_674_135" x1="32" y1="57.1996" x2="32" y2="7" gradientUnits="userSpaceOnUse">
<stop stop-color="#02AA93"/>
<stop offset="1" stop-color="#67FF80"/>
</linearGradient>
<linearGradient id="paint1_linear_674_135" x1="32" y1="57.1996" x2="32" y2="7" gradientUnits="userSpaceOnUse">
<stop stop-color="#02AA93"/>
<stop offset="1" stop-color="#67FF80"/>
</linearGradient>
</defs>
</svg>
