<svg width="128" height="128" viewBox="0 0 128 128" fill="none" xmlns="http://www.w3.org/2000/svg">
<path fill-rule="evenodd" clip-rule="evenodd" d="M64.6753 46.4507C72.0416 62.0891 72.0482 77.5607 67.7323 88.9818C73.8095 89.0196 83.7263 89.7219 94.4811 84.2561C85.6416 63.4555 64.6753 46.4507 64.6753 46.4507Z" fill="url(#paint0_linear)"/>
<path fill-rule="evenodd" clip-rule="evenodd" d="M45.6015 19.8384C40.7229 40.6999 26.6787 66.3715 17.8374 82.7403L25.6523 84.7026C30.5831 85.4406 36.6553 86.1693 42.5506 86.811C53.3637 87.9882 61.9906 88.8918 63.6107 89.0305C63.3793 85.8784 61.1538 51.604 60.6091 44.9992C55.1515 34.6379 50.7251 29.283 45.6015 19.8384V19.8384Z" fill="url(#paint1_linear)"/>
<path fill-rule="evenodd" clip-rule="evenodd" d="M78.5137 57.0957C83.1298 60.1074 87.5281 62.8557 90.8618 66.1126C95.3767 70.5234 97.684 76.4661 97.0359 82.6436C103.085 79.6842 107.084 74.7496 109.384 70.621C105.362 67.015 98.3787 63.4475 90.8618 60.8527C86.717 59.422 82.3532 58.123 78.5137 57.0957V57.0957Z" fill="url(#paint2_linear)"/>
<path fill-rule="evenodd" clip-rule="evenodd" d="M113.272 70.4088L112.156 69.2547V65.8109C112.156 37.2097 89.8076 14.516 62.8361 14.516C35.8646 14.516 13.516 37.2097 13.516 65.8109C13.516 71.6259 14.4434 77.1964 16.1443 82.3815L16.9112 84.7196L17.8934 86.9717C19.0972 89.7318 20.5292 92.3607 22.1637 94.8327C22.272 94.9082 22.4857 95.044 22.8478 95.2227C23.7754 95.6805 25.1937 96.1805 27.1597 96.6456C31.0926 97.576 36.1407 98.1214 41.4099 98.3915C51.8806 98.9281 61.8474 98.3178 62.4796 98.2777C62.6044 98.2697 62.7519 98.2626 62.9206 98.2595C62.9927 98.2582 63.0512 98.2579 63.0831 98.2579L63.1189 98.2579L63.7107 98.2579C77.339 98.2588 87.8744 98.1693 95.9115 95.5385C99.6876 94.3025 102.573 92.59 104.811 90.2627C107.043 87.9409 109.038 84.5852 110.396 79.447C110.83 77.8047 111.374 76.4046 111.677 75.6213C111.738 75.4647 111.789 75.3328 111.828 75.2285C112.045 74.647 112.14 74.3283 112.209 73.7139L112.374 72.2404L113.272 70.4088ZM11.2851 92.9546C11.2613 92.9065 11.2377 92.8584 11.2141 92.8102C10.8215 92.009 10.4458 91.1975 10.0876 90.3761C9.61452 90.2782 9.21341 90.2002 8.8628 90.132C8.5584 90.0728 8.29206 90.021 8.04975 89.9701C7.28521 89.8093 6.75986 89.6571 6.03275 89.308C4.72937 88.6341 4.72598 86.7713 6.02689 86.0926L8.05253 85.0358C6.07334 79.0022 5 72.5362 5 65.8109C5 32.7782 30.8941 6 62.8361 6C94.7781 6 120.672 32.7782 120.672 65.8109L122.662 67.8688C123.421 68.6536 123.449 69.8586 122.798 70.6747C122.764 70.717 122.73 70.7591 122.696 70.8011C122.532 71.0025 122.367 71.2046 122.253 71.4371L120.672 74.6599C120.466 76.5002 120.038 77.6125 119.563 78.8459C119.255 79.6444 118.928 80.4936 118.629 81.6239C111.979 106.777 90.0701 106.776 63.7102 106.774L63.1314 106.774C63.0848 106.774 63.0662 106.774 63.0197 106.776C61.5534 106.87 21.6163 109.317 15.2636 99.8353C13.7951 97.6436 12.4646 95.3456 11.2851 92.9546Z" fill="url(#paint3_linear)"/>
<path d="M118.314 82.0063C106.279 90.5439 92.0635 95.7249 77.5298 97.9569C57.2733 100.815 36.64 100.106 16.3121 98.5507C16.163 98.903 16.0658 99.2473 15.957 99.5927C21.4804 106.508 28.4743 112.107 36.431 115.983C44.3877 119.858 53.1076 121.913 61.9576 121.999C62.472 121.998 62.9948 122.005 63.5003 121.993C64.0749 121.982 64.6493 121.963 65.2234 121.935C66.0395 121.898 66.832 121.842 67.616 121.778C69.0911 121.654 70.561 121.476 72.0228 121.242C72.3027 121.196 72.6116 121.165 72.8844 121.114C83.2168 119.28 92.8819 114.751 100.903 107.984C108.924 101.217 115.016 92.4528 118.565 82.5769C118.476 82.3866 118.412 82.1972 118.314 82.0064V82.0063Z" fill="url(#paint4_linear)"/>
<path fill-rule="evenodd" clip-rule="evenodd" d="M120.519 76.0071C111.357 86.4503 95.1951 92.1922 77.0331 94.8104C57.0931 97.6848 33.4318 96.8565 12.7393 95.1264C13.6983 96.6014 14.7223 98.0332 15.808 99.4176C35.7507 100.968 58.2372 101.587 77.6152 98.7939C93.0674 96.5664 107.883 92.1429 117.991 84.1405C119.027 81.4931 119.872 78.775 120.519 76.0071V76.0071Z" fill="url(#paint5_linear)"/>
<defs>
<linearGradient id="paint0_linear" x1="79.5782" y1="89.0305" x2="79.5782" y2="46.4507" gradientUnits="userSpaceOnUse">
<stop stop-color="#00B59C"/>
<stop offset="1" stop-color="#9CFFAC"/>
</linearGradient>
<linearGradient id="paint1_linear" x1="40.724" y1="89.0305" x2="40.724" y2="19.8384" gradientUnits="userSpaceOnUse">
<stop stop-color="#00B59C"/>
<stop offset="1" stop-color="#9CFFAC"/>
</linearGradient>
<linearGradient id="paint2_linear" x1="93.9488" y1="82.6436" x2="93.9488" y2="57.0957" gradientUnits="userSpaceOnUse">
<stop stop-color="#00B59C"/>
<stop offset="1" stop-color="#9CFFAC"/>
</linearGradient>
<linearGradient id="paint3_linear" x1="64.1303" y1="107.127" x2="64.1303" y2="6" gradientUnits="userSpaceOnUse">
<stop stop-color="#5570FF"/>
<stop offset="1" stop-color="#4DD3FF"/>
</linearGradient>
<linearGradient id="paint4_linear" x1="67.2609" y1="122" x2="67.2609" y2="82.0063" gradientUnits="userSpaceOnUse">
<stop stop-color="#5570FF"/>
<stop offset="1" stop-color="#4DD3FF"/>
</linearGradient>
<linearGradient id="paint5_linear" x1="66.6293" y1="100.735" x2="66.6293" y2="76.0071" gradientUnits="userSpaceOnUse">
<stop stop-color="#ADDCFF"/>
<stop offset="0.5028" stop-color="#EAF6FF"/>
<stop offset="1" stop-color="#EAF6FF"/>
</linearGradient>
</defs>
</svg>
