<svg width="128" height="128" viewBox="0 0 128 128" fill="none" xmlns="http://www.w3.org/2000/svg">
<path fill-rule="evenodd" clip-rule="evenodd" d="M22.1969 19H105.803C113.644 19 120 25.3562 120 33.1969V95.5924C120 103.433 113.644 109.789 105.803 109.789H22.1969C14.3562 109.789 8 103.433 8 95.5924V33.1969C8 25.3561 14.3562 19 22.1969 19ZM22.1969 29.6477C20.2367 29.6477 18.6477 31.2367 18.6477 33.1969V95.5924C18.6477 97.5522 20.2367 99.1413 22.1969 99.1413H38.0503C39.0304 99.1413 39.8249 98.3472 39.8249 97.3667V95.5006C39.8249 94.5205 39.0304 93.726 38.0503 93.726H31.8965C29.479 93.726 27.5192 91.7662 27.5192 89.3487C27.5192 86.9311 29.479 84.9714 31.8965 84.9714H94.339C96.7562 84.9714 98.7162 86.9311 98.7162 89.3487C98.7162 91.7662 96.7562 93.726 94.339 93.726H90.8221C89.842 93.726 89.0475 94.5205 89.0475 95.5006V97.3667C89.0475 98.3472 89.842 99.1413 90.8221 99.1413H105.803C107.763 99.1413 109.352 97.5522 109.352 95.5924V33.1969C109.352 31.2367 107.763 29.6477 105.803 29.6477H22.1969ZM78.4998 95.5006C78.4998 94.5205 77.7052 93.726 76.7252 93.726H71.4847C70.5046 93.726 69.7101 94.5205 69.7101 95.5006V97.3667C69.7101 98.3472 70.5046 99.1413 71.4847 99.1413H76.7252C77.7052 99.1413 78.4998 98.3472 78.4998 97.3667V95.5006ZM59.1623 95.5006C59.1623 94.5205 58.3678 93.726 57.3877 93.726H52.1472C51.1671 93.726 50.3726 94.5205 50.3726 95.5006V97.3667C50.3726 98.3472 51.1671 99.1413 52.1472 99.1413H57.3877C58.3678 99.1413 59.1623 98.3472 59.1623 97.3667V95.5006Z" fill="url(#paint0_linear_618_191)"/>
<defs>
<linearGradient id="paint0_linear_618_191" x1="13.3238" y1="104.625" x2="53.5" y2="39.5" gradientUnits="userSpaceOnUse">
<stop stop-color="#FF231D"/>
<stop offset="1" stop-color="#8E00D1"/>
</linearGradient>
</defs>
</svg>
