<svg width="192" height="192" viewBox="0 0 192 192" fill="none" xmlns="http://www.w3.org/2000/svg">
<path d="M83.86 6.64C87.13 7.01 89.24 9.78 92.17 10.92C94.87 11.77 95.97 8.74 97.17 7C99.41 8.47 101.49 10.25 104.03 11.18C106.81 11.15 110.14 9.08 112.46 11.52C116.46 15.95 118.16 22.27 123.18 25.83C126.81 28.62 131.89 27.8 135.62 30.37C137.1 31.34 137.82 33.06 137.91 34.78C137.74 37.52 137.26 40.23 136.77 42.93C129.77 42.76 122.69 41.71 116.24 38.88C113.21 37.48 109.82 38.31 107.09 39.98C108.58 40.68 110.08 41.38 111.61 42.01C117.02 43.98 123.03 46.08 126.32 51.11C126.51 54.45 122.92 56.67 122.63 59.87C123.93 61.34 126.25 62.33 125.93 64.66C119.74 65.05 117.38 57.79 111.8 56.54C108.45 55.72 104.85 55.83 101.69 54.3C98.92 52.94 97.11 50.33 95.05 48.12C92.03 49.71 90.56 53.52 92.53 56.53C96.46 63.02 103.26 67.09 109.91 70.36C103.65 71.97 101.37 78.58 97.23 82.82C97.74 83.61 98.25 84.4 98.75 85.19C97.68 87.51 96.73 89.88 95.59 92.17C89.7 81.5 81.23 72.62 74.43 62.58C70.06 56.09 66.35 48.16 68.26 40.16C69.23 35.22 72.49 31.28 75.42 27.36C77.28 25.4 74.35 23.82 73.25 22.47C75.52 21.26 78.09 21.28 80.58 21.11C80.59 17.1 76.02 17.29 73.23 16.5C72.33 14.84 74.28 14.15 75.44 13.52C78.87 12.18 82.61 13 86.18 12.81C85.46 10.74 84.72 8.67 83.86 6.64ZM103.38 18.42C100.41 21.22 104.26 26.27 107.71 23.97C111.84 21.47 106.94 15.1 103.38 18.42Z" fill="url(#paint0_linear)"/>
<path d="M125.61 46.77C130.44 46.62 135.18 47.89 139.99 48.28C143.04 48.5 145.45 50.46 147.73 52.28C150.67 54.87 155.48 53.74 157.98 57.02C160.45 59.52 159.71 63.49 161.65 66.23C164.23 68.44 168.59 67.72 170.33 71.02C167.8 71.99 165.14 73.2 162.36 72.75C158.58 72.15 155.8 69.26 153.33 66.58C151.91 65.07 150.71 63.1 148.62 62.45C146.48 61.78 144.29 62.6 142.16 62.91C140.57 60.23 139.18 57.3 136.68 55.32C133.19 52.19 128.39 50.68 125.61 46.77Z" fill="url(#paint1_linear)"/>
<path d="M97.23 82.82C101.37 78.58 103.65 71.97 109.91 70.36C112.91 71.91 116.09 73.13 118.94 74.96C120.25 78.43 122.89 81.01 125.69 83.32C124.88 89.16 130.29 93.01 132.14 98.05C132.04 98.45 131.83 99.26 131.73 99.66C130.72 102.32 131.58 105.1 132.24 107.72C134.46 116.12 135.41 124.91 134.59 133.59C133.46 129.79 133.69 125.78 132.92 121.92C132.31 120.37 132.23 117.92 130.07 117.88C128.26 120.24 128.02 123.31 127.22 126.09C124.39 137.25 118.38 148.08 108.8 154.78C105.14 157.36 101.27 160.11 99.34 164.31C97.95 167.06 98.05 170.26 98.69 173.21C99.81 177.08 102.29 180.41 103.17 184.36C95.47 179.6 90.87 169.05 94.35 160.34C97.06 153.02 103.17 147.87 108 142C116.27 130.64 118.88 115.48 115.04 101.98C114.38 99.33 113.5 96.66 111.54 94.68C112.17 103.25 113.13 112.05 110.47 120.4C108.15 128.32 103.27 136.06 95.55 139.6C91.4 141.6 86.61 141.58 82.2 140.53C77.54 138.34 72.39 135.18 70.92 129.91C76.77 130.8 81.83 135.2 88.02 134.29C92.63 133.96 95.56 129.35 95.5 125.02C95.58 115.82 90.81 107.02 84.09 100.92C81.35 98.35 78.1 96.36 74.59 95.03C73.55 89.17 79.17 85.24 82.76 81.53C86.43 85.46 89.86 89.62 92.88 94.06C94.36 96.03 95.52 98.53 98.02 99.37C97.51 96.88 96.61 94.49 95.59 92.17C96.73 89.88 97.68 87.51 98.75 85.19C98.25 84.4 97.74 83.61 97.23 82.82Z" fill="url(#paint2_linear)"/>
<path d="M19.72 69.77C29.91 64.31 41.87 61.34 53.37 63.72C64.89 66.01 74.79 73.16 82.76 81.53C79.17 85.24 73.55 89.17 74.59 95.03C67.43 92.51 59.4 93.31 52.6 96.55C48.9 98.18 45.74 100.88 41.85 102.11L41 102.44C40.77 98.31 42.97 94.71 44.28 90.95C44.62 89.86 44.95 88.77 45.26 87.68C38.17 87.9 31.29 89.91 24.42 91.52C19.94 92.5 16.13 95.1 12.55 97.83L11.72 98.4C12.26 96.58 13.29 94.95 14.71 93.69C20.53 88.2 28.07 85.15 34.57 80.63C35.48 78.9 33.28 78.46 32.16 77.82C25.78 74.71 18.57 77.08 11.87 75.86C13.36 72.66 16.87 71.43 19.72 69.77Z" fill="url(#paint3_linear)"/>
<path d="M53.66 20.62C55.96 19.15 58.73 17.24 61.56 18.47C63.59 19.16 64.44 21.29 65.58 22.91C64.89 25.47 63.83 28.06 61.29 29.28C50.05 36.1 40.84 46.09 34.77 57.74C33.67 60.48 30.77 61.22 28.2 61.9C25.43 60.43 22.58 57.59 24.09 54.18C30.35 40.41 41.1 28.92 53.66 20.62Z" fill="url(#paint4_linear)"/>
<path d="M169.9 82.93C169.22 79.43 172.46 75.96 175.99 76.42C178.81 76.6 180.94 79.06 181.26 81.77C182.66 98.22 179.66 115.14 171.7 129.68C162.09 147.59 145.71 161.76 126.53 168.53C120.6 170.57 114.44 172.42 108.1 172.26C106.43 169.97 104.31 167.07 106.02 164.18C107.17 161.42 110.37 161.07 112.93 160.58C131.99 156.89 149.13 144.8 159.36 128.34C167.79 114.92 171.47 98.69 169.9 82.93Z" fill="url(#paint5_linear)"/>
<path d="M18.6 112.51C17.27 108.76 20.91 104.59 24.8 105.32C27.68 105.59 29.33 108.34 29.97 110.89C33.34 122.57 39.97 133.16 48.53 141.75C45.93 144.48 43.34 147.22 40.77 149.98C30.23 139.75 22.43 126.71 18.6 112.51Z" fill="url(#paint6_linear)"/>
<path d="M48.53 141.75C58.41 151.15 70.86 157.87 84.26 160.57C86.46 160.87 88.07 162.42 89.66 163.82C90.09 167.47 88.34 172.21 83.97 171.92C75.27 170.8 67.03 167.4 59.21 163.55C52.5 159.87 46.29 155.28 40.77 149.98C43.34 147.22 45.93 144.48 48.53 141.75Z" fill="url(#paint7_linear)"/>
<defs>
<linearGradient id="paint0_linear" x1="169.86" y1="7.76666" x2="-5.15364" y2="162.661" gradientUnits="userSpaceOnUse">
<stop stop-color="#FE7970"/>
<stop offset="1" stop-color="#DC3282"/>
</linearGradient>
<linearGradient id="paint1_linear" x1="169.86" y1="7.76666" x2="-5.15364" y2="162.661" gradientUnits="userSpaceOnUse">
<stop stop-color="#FE7970"/>
<stop offset="1" stop-color="#DC3282"/>
</linearGradient>
<linearGradient id="paint2_linear" x1="169.86" y1="7.76666" x2="-5.15364" y2="162.661" gradientUnits="userSpaceOnUse">
<stop stop-color="#FE7970"/>
<stop offset="1" stop-color="#DC3282"/>
</linearGradient>
<linearGradient id="paint3_linear" x1="169.86" y1="7.76666" x2="-5.15364" y2="162.661" gradientUnits="userSpaceOnUse">
<stop stop-color="#FE7970"/>
<stop offset="1" stop-color="#DC3282"/>
</linearGradient>
<linearGradient id="paint4_linear" x1="99.9562" y1="172.27" x2="99.9562" y2="18.0759" gradientUnits="userSpaceOnUse">
<stop stop-color="#FD5900"/>
<stop offset="1" stop-color="#FFDE00"/>
</linearGradient>
<linearGradient id="paint5_linear" x1="99.9562" y1="172.27" x2="99.9562" y2="18.0759" gradientUnits="userSpaceOnUse">
<stop stop-color="#FD5900"/>
<stop offset="1" stop-color="#FFDE00"/>
</linearGradient>
<linearGradient id="paint6_linear" x1="99.9562" y1="172.27" x2="99.9562" y2="18.0759" gradientUnits="userSpaceOnUse">
<stop stop-color="#FD5900"/>
<stop offset="1" stop-color="#FFDE00"/>
</linearGradient>
<linearGradient id="paint7_linear" x1="99.9562" y1="172.27" x2="99.9562" y2="18.0759" gradientUnits="userSpaceOnUse">
<stop stop-color="#FD5900"/>
<stop offset="1" stop-color="#FFDE00"/>
</linearGradient>
</defs>
</svg>
