<svg width="64" height="64" viewBox="0 0 64 64" fill="none" xmlns="http://www.w3.org/2000/svg">
<path d="M15.0813 4.38667C15.7653 3.86427 16.6787 4.08423 17.3116 4.55949C21.7681 7.50532 26.2033 10.4787 30.6469 13.4402C31.3351 13.9744 32.3505 14.1747 33.0854 13.5973C37.236 10.8871 41.3143 8.09056 45.4521 5.36861C46.1276 4.9287 46.7733 4.43773 47.5168 4.09601C48.12 3.80143 48.7148 4.25312 49.2033 4.53199C53.7192 7.5446 58.2351 10.5572 62.7723 13.5423C63.2523 13.8369 63.6601 14.2061 64 14.6382C58.9531 18.3342 53.4388 21.4804 48.4344 25.2157C53.1584 28.6171 58.1417 31.7005 62.9804 34.9566C63.3543 35.2237 63.6686 35.5418 63.9278 35.911C63.4605 36.3706 62.9507 36.7869 62.3814 37.1365C57.8868 40.0548 53.4516 43.0517 48.9909 46.0211C48.3749 46.52 47.4445 46.4493 46.8455 45.9622C42.1342 42.8593 37.4569 39.7092 32.7498 36.6023C32.3717 36.347 31.9596 36.292 31.5051 36.4334C26.6068 39.6542 21.7596 42.9496 16.8401 46.139C15.9097 46.7674 14.9496 45.9544 14.2062 45.4673C9.5076 42.2151 4.60086 39.2222 0 35.8639C4.93648 32.0854 10.4847 29.0099 15.4849 25.2982C14.9029 24.328 13.7516 23.8645 12.8425 23.2047C8.57298 20.357 4.21852 17.6115 0.0467311 14.646C0.522536 13.9469 1.31271 13.5423 2.01367 13.0631C6.39363 10.2037 10.7141 7.2618 15.0813 4.38667ZM15.7228 9.72059C13.2843 11.2838 10.9435 12.9885 8.44978 14.4811C10.9053 16.2878 13.5349 17.8747 16.0627 19.595C18.5946 17.9022 21.1606 16.2525 23.6713 14.5321C21.2243 12.9414 18.8283 11.2956 16.377 9.70881C16.2156 9.71274 15.8885 9.71667 15.7228 9.72059ZM47.6315 9.72059C45.1845 11.2878 42.8224 12.9767 40.3415 14.4968C42.8309 16.2486 45.4139 17.8904 47.9586 19.5793C50.4948 17.9022 53.0437 16.2446 55.5502 14.5243C53.3581 13.1142 51.1958 11.6609 49.0334 10.2037C48.6213 9.94448 48.1837 9.50849 47.6315 9.72059ZM18.5606 23.6839C17.8639 24.167 17.044 24.5597 16.6149 25.2982C21.3305 28.6682 26.2925 31.7397 31.1015 34.9998C32.1806 35.8011 33.2766 34.7248 34.1517 34.1867C38.519 31.1388 43.1538 28.4011 47.4148 25.2314C47.0962 24.9093 46.8073 24.5597 46.4037 24.3241C42.2957 21.6139 38.1961 18.8959 34.0923 16.1779C33.4125 15.683 32.6861 15.2509 31.9172 14.8974C27.4267 17.7765 23.0383 20.793 18.5606 23.6839ZM8.45403 35.8246C10.9648 37.5371 13.5137 39.2064 16.0457 40.8954C18.5904 39.2064 21.1436 37.5332 23.6628 35.8168C21.1096 34.175 18.6074 32.4585 16.0542 30.8206C13.5095 32.4742 10.9987 34.171 8.45403 35.8246ZM40.3457 35.8168C42.8607 37.5332 45.4096 39.2025 47.9458 40.8875C50.4693 39.1907 53.0522 37.5568 55.5162 35.7853C52.9503 34.1828 50.4948 32.4389 47.9416 30.8167C45.4096 32.4821 42.9032 34.1828 40.3457 35.8168Z" fill="url(#paint0_linear)"/>
<path d="M30.6002 39.5481C31.1864 39.2378 31.8704 38.4365 32.5629 39.0296C37.3506 42.0776 42.0237 45.2748 46.7775 48.3699C47.1981 48.6998 47.8353 48.9512 47.8523 49.5443C47.5592 50.0942 46.9347 50.3809 46.4334 50.7462C41.9727 53.6606 37.5461 56.6104 33.1194 59.5719C32.5671 60.0079 31.7387 60.2082 31.1524 59.6976C26.6195 56.7125 22.1206 53.6724 17.5708 50.7069C17.0185 50.2906 16.2708 49.9489 16.1263 49.2379C20.8419 45.8758 25.7996 42.8082 30.6002 39.5481ZM24.5124 49.344C26.8574 51.2411 29.5296 52.7612 32.0276 54.4776C34.5553 52.7808 37.1212 51.1311 39.6235 49.3951C37.1637 47.9064 34.8527 46.2175 32.4227 44.6935C32.2612 44.6739 31.9426 44.6346 31.7812 44.6189C29.3002 46.1075 26.9806 47.8318 24.5124 49.344Z" fill="url(#paint1_linear)"/>
<defs>
<linearGradient id="paint0_linear" x1="32" y1="46.3679" x2="32" y2="4" gradientUnits="userSpaceOnUse">
<stop stop-color="#5558FF"/>
<stop offset="1" stop-color="#00C0FF"/>
</linearGradient>
<linearGradient id="paint1_linear" x1="31.9893" y1="60" x2="31.9893" y2="38.8167" gradientUnits="userSpaceOnUse">
<stop stop-color="#5558FF"/>
<stop offset="1" stop-color="#00C0FF"/>
</linearGradient>
</defs>
</svg>
