<svg width="64" height="64" viewBox="0 0 64 64" fill="none" xmlns="http://www.w3.org/2000/svg">
<path fill-rule="evenodd" clip-rule="evenodd" d="M41.0889 8H53.2285C55.0243 8 56.7463 8.71332 58.0161 9.98306C59.2859 11.2528 59.9991 12.9749 59.9991 14.7706V26.9102C59.9989 27.808 59.6421 28.6688 59.0073 29.3036L34.3185 53.9924C33.0487 55.2616 31.3269 55.9748 29.5317 55.9748C27.7363 55.9748 26.0145 55.2616 24.7449 53.9924L14.0068 43.2544C12.7375 41.9846 12.0244 40.2628 12.0244 38.4676C12.0244 36.6722 12.7375 34.9504 14.0068 33.6808L38.6955 8.99188C39.3303 8.35698 40.1913 8.0002 41.0889 8Z" stroke="url(#paint0_linear)" stroke-width="4" stroke-linecap="round" stroke-linejoin="round"/>
<path d="M22.762 52.0086L19.705 54.0466C18.8564 54.6122 17.8909 54.9788 16.8807 55.1192C15.8705 55.2594 14.8416 55.1696 13.871 54.8564C12.9003 54.5434 12.013 54.015 11.2752 53.3108C10.5374 52.6066 9.96818 51.7448 9.61012 50.79L4.43064 36.978C3.87494 35.4952 3.8565 33.8646 4.3785 32.3698C4.90052 30.875 5.92996 29.6102 7.28782 28.7958L36.2996 11.3853" stroke="url(#paint1_linear)" stroke-width="4" stroke-linecap="round" stroke-linejoin="round"/>
<path d="M54.922 16.4632C54.922 14.5935 53.4062 13.0779 51.5366 13.0779C49.667 13.0779 48.1514 14.5935 48.1514 16.4632C48.1514 18.3328 49.667 19.8484 51.5366 19.8484C53.4062 19.8484 54.922 18.3328 54.922 16.4632Z" fill="url(#paint2_linear)"/>
<path d="M39.004 20C35.7641 20.8033 32.5381 21.669 29.3396 22.6076C28.9821 22.7124 28.6628 22.834 28.3654 22.9668C27.4253 23.3867 26.4927 24.6466 26.4461 24.643C26.0599 25.3709 25.9226 26.2631 26.0415 27.3755C26.3781 30.5293 26.8353 33.6711 27.2924 36.8111C27.3786 37.4032 27.4749 37.9956 27.5675 38.5875L33.2914 44C36.6158 43.1197 39.9372 42.2282 43.2585 41.3354C44.0113 40.609 45.2399 39.4227 45.9918 38.697L46 38.6892C45.9331 37.7447 45.8662 36.8157 45.7961 35.8226C45.2923 35.9577 44.9264 36.0561 44.5613 36.1541C41.4624 36.9861 38.356 37.7962 35.2675 38.663C34.3807 38.912 34.0347 38.6507 33.9647 37.8226C33.8966 37.0261 33.7786 36.2328 33.6637 35.2891C34.1358 35.1625 34.5359 35.0601 34.9325 34.9483C37.3138 34.2751 39.7149 33.6587 42.0692 32.9082C44.2291 32.2198 45.1646 30.9857 45.0274 28.8295C44.954 27.6777 44.8406 26.5242 44.6876 25.3754L39.004 20ZM37.7353 24.9283C38.0369 24.9258 38.2163 25.0912 38.2677 25.4988C38.4092 26.626 38.6145 27.7473 38.6949 28.8774C38.7161 29.1717 38.4387 29.6874 38.1852 29.7656C36.5269 30.2789 34.8361 30.6988 33.0341 31.1827C32.8349 29.7106 32.609 28.3906 32.513 27.0625C32.4914 26.7663 32.8594 26.2568 33.1587 26.1588C34.5488 25.7076 35.9805 25.3743 37.3922 24.9838C37.5196 24.9487 37.6347 24.9291 37.7353 24.9283Z" fill="url(#paint3_linear)"/>
<defs>
<linearGradient id="paint0_linear" x1="36.0118" y1="8" x2="36.0118" y2="55.9747" gradientUnits="userSpaceOnUse">
<stop stop-color="#BAFA52"/>
<stop offset="1" stop-color="#3F8F5B"/>
</linearGradient>
<linearGradient id="paint1_linear" x1="20.1498" y1="11.3853" x2="20.1498" y2="55.1834" gradientUnits="userSpaceOnUse">
<stop stop-color="#BAFA52"/>
<stop offset="1" stop-color="#3F8F5B"/>
</linearGradient>
<linearGradient id="paint2_linear" x1="51.5367" y1="13.0779" x2="51.5367" y2="19.8484" gradientUnits="userSpaceOnUse">
<stop stop-color="#BAFA52"/>
<stop offset="1" stop-color="#3F8F5B"/>
</linearGradient>
<linearGradient id="paint3_linear" x1="36" y1="20" x2="36" y2="44" gradientUnits="userSpaceOnUse">
<stop stop-color="#BAFA52"/>
<stop offset="1" stop-color="#3F8F5B"/>
</linearGradient>
</defs>
</svg>
