<svg width="16" height="16" viewBox="0 0 16 16" fill="none" xmlns="http://www.w3.org/2000/svg">
<path d="M4.61879 12C3.87498 12 3.40858 12.7836 3.90829 13.3345C4.20699 13.6638 4.53991 13.9524 4.9008 14.193C5.69055 14.7195 6.58651 14.9978 7.49899 15C8.41147 14.9978 9.30744 14.7195 10.0972 14.193C10.4581 13.9524 10.791 13.6638 11.0897 13.3345C11.5894 12.7836 11.123 12 10.3792 12H4.61879Z" fill="url(#paint0_linear)"/>
<path d="M2.107 4C1.71317 4 1.37165 4.26586 1.29902 4.65294V4.65294C1.20591 5.14915 1.59563 5.6 2.1005 5.6H14.8995C15.4043 5.6 15.794 5.14914 15.7009 4.65294V4.65294C15.6283 4.26586 15.2868 4 14.8929 4H2.107ZM1.82486 7.2C1.37757 7.2 0.998993 7.55271 0.998993 8V8V8C0.998993 8.44729 1.37757 8.8 1.82486 8.8H15.1751C15.6224 8.8 15.999 8.44725 15.999 8V8V8C15.999 7.55275 15.6224 7.2 15.1751 7.2H1.82486ZM2.1005 10.4C1.59563 10.4 1.20591 10.8508 1.29902 11.3471V11.3471C1.37165 11.7341 1.71317 12 2.107 12H14.8929C15.2868 12 15.6283 11.7341 15.7009 11.3471V11.3471C15.794 10.8509 15.4043 10.4 14.8995 10.4H2.1005Z" fill="url(#paint1_linear)"/>
<path fill-rule="evenodd" clip-rule="evenodd" d="M7.56033 0.597336C7.86733 0.466481 7.83372 0 7.5 0V0H7.499C3.35742 0 0 3.35786 0 7.5C0 11.6421 3.35742 15 7.499 15H7.5V15C7.83372 15 7.86733 14.5335 7.56033 14.4027C4.87879 13.2597 2.99899 10.5994 2.99899 7.5C2.99899 4.40061 4.87879 1.74032 7.56033 0.597336Z" fill="url(#paint2_linear)"/>
<defs>
<linearGradient id="paint0_linear" x1="4.31702" y1="14.5607" x2="5.58981" y2="10.7423" gradientUnits="userSpaceOnUse">
<stop stop-color="#0072FF"/>
<stop offset="1" stop-color="#00E5A1"/>
</linearGradient>
<linearGradient id="paint1_linear" x1="1.00119" y1="7.88147" x2="16.0015" y2="7.88147" gradientUnits="userSpaceOnUse">
<stop stop-color="#A93AFF"/>
<stop offset="1" stop-color="#FF81FF"/>
</linearGradient>
<linearGradient id="paint2_linear" x1="3.88586" y1="15" x2="3.88586" y2="0" gradientUnits="userSpaceOnUse">
<stop stop-color="#FD5900"/>
<stop offset="1" stop-color="#FFDE00"/>
</linearGradient>
</defs>
</svg>
