<svg width="128" height="128" viewBox="0 0 128 128" fill="none" xmlns="http://www.w3.org/2000/svg">
<path fill-rule="evenodd" clip-rule="evenodd" d="M58.7513 9.59523C61.8499 7.4719 66.322 7.46462 69.4283 9.59523C74.2284 12.7875 76.9991 17.8995 79.1376 22.8806C80.1678 25.1712 78.4429 27.9999 75.8284 28.4289C73.721 28.8652 71.4498 27.6727 70.7474 25.7747C69.1708 22.2553 67.3445 18.6412 64.0899 16.1834C60.6792 18.7358 58.884 22.5606 57.2215 26.2183C56.3084 28.4435 53.1552 29.4178 50.9699 28.2108C48.9875 27.2509 48.1055 24.844 49.0109 22.9388C51.1806 17.9504 53.9279 12.8021 58.7513 9.59523ZM99.0329 29.5489C103.95 29.258 109.515 29.3962 113.472 32.5157C116.836 35.2208 116.867 39.8747 115.556 43.5324C112.785 51.3858 106.651 57.6103 100.726 63.5513C105.885 67.9361 110.608 72.8736 114.089 78.5456C116.141 82.036 117.89 86.1008 116.914 90.1366C116.188 93.1908 113.347 95.4014 110.248 96.3249C105.34 97.8447 100.032 97.5465 94.9744 96.9066C84.7267 95.4668 74.9082 92.1 65.5424 88.0496C64.7056 87.479 63.8311 87.9005 63.0141 88.2942C62.7795 88.4072 62.5497 88.518 62.3268 88.6024C52.0713 93.3434 41.16 97.2556 29.7026 98.4118C24.606 98.7608 18.7836 98.7099 14.686 95.445C11.3143 92.6963 11.3768 87.9915 12.7036 84.3265C15.4821 76.6404 21.4528 70.4958 27.2675 64.6711C27.1725 64.1451 26.7066 63.78 26.2464 63.4194C25.9876 63.2167 25.7308 63.0154 25.5426 62.7878C20.1261 57.7994 14.9826 52.2511 12.1494 45.583C10.6119 41.9326 10.2373 37.2206 13.4372 34.2319C17.3241 30.7415 23.1699 30.4797 28.2665 30.6469C40.2938 31.4032 51.8059 35.3153 62.678 39.9765C63.4802 40.5104 64.3245 40.1105 65.1134 39.7368C65.3452 39.6269 65.5723 39.5194 65.7921 39.4384C76.2273 34.6173 87.3491 30.596 99.0329 29.5489ZM73.5034 45.1976C80.6214 48.9788 87.4584 53.2183 93.8662 57.9885C99.6105 52.4839 105.737 46.5137 107.619 38.7912C105.006 37.5841 102.017 37.7744 99.1779 37.9551L99.1768 37.9552C98.9035 37.9726 98.6317 37.9899 98.3617 38.0058C89.6906 38.9803 81.4331 41.9107 73.5034 45.1976ZM19.8763 39.7947C20.0246 42.2671 21.2889 44.4995 22.647 46.5646C25.7611 51.1967 29.8275 55.2034 34.1357 58.8902C40.3328 53.8799 47.123 49.5606 54.0069 45.4303C47.1854 42.9361 40.2469 40.5728 32.9884 39.4893C28.6568 38.8276 24.1221 38.5294 19.8763 39.7947ZM41.004 64.3512C48.2625 69.6014 56.0673 74.1535 64.1687 78.182C70.1082 75.3533 75.6107 71.8047 80.996 68.1616C81.5815 67.7197 82.1928 67.3011 82.8047 66.8821C84.297 65.8602 85.7929 64.8359 86.9277 63.464C79.6769 58.3448 72.0048 53.7563 63.9346 49.837C55.7707 53.9018 48.1844 58.9265 41.004 64.3512ZM73.995 82.4796C82.3306 85.6282 90.9783 88.4569 100.024 89.0387C102.826 89.2495 105.644 88.9659 108.329 88.1878C106.996 81.3456 101.623 76.2205 96.5244 71.3567L96.5242 71.3565C95.7437 70.612 94.9696 69.8735 94.2174 69.136C87.7394 73.9135 81.2224 78.7129 73.995 82.4796ZM23.763 81.8978C22.249 84.2393 20.8363 86.7699 20.7035 89.5621C23.3884 90.1803 26.1747 90.4348 28.9299 90.1221C37.9366 89.2568 46.4986 86.2317 54.7092 82.8213C47.5757 79.04 40.723 74.8007 34.323 70.0086C30.3894 73.6299 26.6743 77.5058 23.763 81.8978ZM56.7847 101.306C54.2326 97.8664 47.7 100.586 48.9409 104.709C50.9077 109.712 53.6941 114.744 58.2833 118.089C61.2647 120.343 65.7214 120.678 68.9525 118.692C73.8071 115.755 76.57 110.759 78.8022 105.952C79.6529 104.36 79.6998 102.281 78.3261 100.92C76.4452 98.7244 72.215 99.168 71.0208 101.786C70.9509 101.932 70.8811 102.079 70.8111 102.226C69.1373 105.737 67.3939 109.393 64.0901 111.85C61.2233 109.784 59.6658 106.781 58.1264 103.813C57.6877 102.967 57.2504 102.123 56.7847 101.306Z" fill="url(#paint0_linear_678_421)"/>
<path d="M69.4283 9.59523L68.8627 10.4199L68.8686 10.4239L68.8746 10.4279L69.4283 9.59523ZM58.7513 9.59523L59.305 10.4281L59.3166 10.4201L58.7513 9.59523ZM79.1376 22.8806L78.2187 23.2751L78.2221 23.283L78.2256 23.2908L79.1376 22.8806ZM75.8284 28.4289L75.6664 27.4421L75.646 27.4455L75.6256 27.4497L75.8284 28.4289ZM70.7474 25.7747L71.6853 25.4277L71.6737 25.3964L71.66 25.3659L70.7474 25.7747ZM64.0899 16.1834L64.6925 15.3853L64.0926 14.9323L63.4907 15.3827L64.0899 16.1834ZM57.2215 26.2183L56.3112 25.8045L56.3035 25.8215L56.2964 25.8387L57.2215 26.2183ZM50.9699 28.2108L51.4534 27.3355L51.4299 27.3225L51.4057 27.3108L50.9699 28.2108ZM49.0109 22.9388L49.9141 23.368L49.9212 23.3529L49.9279 23.3376L49.0109 22.9388ZM113.472 32.5157L114.099 31.7364L114.091 31.7304L113.472 32.5157ZM99.0329 29.5489L98.9739 28.5506L98.9588 28.5515L98.9437 28.5528L99.0329 29.5489ZM115.556 43.5324L114.615 43.195L114.613 43.1996L115.556 43.5324ZM100.726 63.5513L100.018 62.8452L99.2535 63.612L100.079 64.3133L100.726 63.5513ZM114.089 78.5456L114.951 78.0388L114.946 78.0306L114.941 78.0225L114.089 78.5456ZM116.914 90.1366L115.942 89.9016L115.941 89.9055L116.914 90.1366ZM110.248 96.3249L109.963 95.3665L109.953 95.3696L110.248 96.3249ZM94.9744 96.9066L94.8353 97.897L94.8489 97.8987L94.9744 96.9066ZM65.5424 88.0496L64.979 88.8759L65.0579 88.9296L65.1455 88.9675L65.5424 88.0496ZM63.0141 88.2942L62.5799 87.3934L62.5799 87.3934L63.0141 88.2942ZM62.3268 88.6024L61.9729 87.6671L61.9396 87.6797L61.9072 87.6947L62.3268 88.6024ZM29.7026 98.4118L29.7709 99.4095L29.787 99.4084L29.803 99.4068L29.7026 98.4118ZM14.686 95.445L14.0541 96.2201L14.0628 96.2271L14.686 95.445ZM12.7036 84.3265L13.6439 84.6669L13.6441 84.6665L12.7036 84.3265ZM27.2675 64.6711L27.9752 65.3776L28.3444 65.0078L28.2516 64.4936L27.2675 64.6711ZM26.2464 63.4194L25.6296 64.2066L25.6296 64.2066L26.2464 63.4194ZM25.5426 62.7878L26.3134 62.1507L26.27 62.0983L26.22 62.0522L25.5426 62.7878ZM12.1494 45.583L11.2278 45.9711L11.2291 45.974L12.1494 45.583ZM13.4372 34.2319L12.7691 33.4878L12.7618 33.4944L12.7547 33.501L13.4372 34.2319ZM28.2665 30.6469L28.3292 29.6489L28.3143 29.6479L28.2993 29.6475L28.2665 30.6469ZM62.678 39.9765L63.232 39.144L63.156 39.0934L63.072 39.0574L62.678 39.9765ZM65.1134 39.7368L65.5415 40.6405L65.5415 40.6405L65.1134 39.7368ZM65.7921 39.4384L66.1376 40.3769L66.1752 40.363L66.2116 40.3462L65.7921 39.4384ZM93.8662 57.9885L93.269 58.7906L93.9474 59.2956L94.558 58.7105L93.8662 57.9885ZM73.5034 45.1976L73.1205 44.2738L71.1614 45.0858L73.0342 46.0807L73.5034 45.1976ZM107.619 38.7912L108.59 39.028L108.785 38.2285L108.038 37.8834L107.619 38.7912ZM99.1779 37.9551L99.1143 36.9571L99.1142 36.9572L99.1779 37.9551ZM99.1768 37.9552L99.2403 38.9532L99.2405 38.9532L99.1768 37.9552ZM98.3617 38.0058L98.3027 37.0076L98.2763 37.0091L98.2501 37.0121L98.3617 38.0058ZM22.647 46.5646L21.8114 47.1141L21.8171 47.1225L22.647 46.5646ZM19.8763 39.7947L19.5907 38.8364L18.8306 39.0629L18.8781 39.8546L19.8763 39.7947ZM34.1357 58.8902L33.4855 59.65L34.1176 60.1908L34.7644 59.6678L34.1357 58.8902ZM54.0069 45.4303L54.5214 46.2878L56.3172 45.2103L54.3503 44.4911L54.0069 45.4303ZM32.9884 39.4893L32.8374 40.4779L32.8408 40.4784L32.9884 39.4893ZM64.1687 78.182L63.7235 79.0774L64.1593 79.2941L64.5987 79.0848L64.1687 78.182ZM41.004 64.3512L40.4012 63.5533L39.3219 64.3687L40.4179 65.1614L41.004 64.3512ZM80.996 68.1616L81.5563 68.9899L81.5778 68.9754L81.5985 68.9598L80.996 68.1616ZM82.8047 66.8821L83.3697 67.7072L83.3697 67.7072L82.8047 66.8821ZM86.9277 63.464L87.6982 64.1014L88.3862 63.2697L87.5044 62.6471L86.9277 63.464ZM63.9346 49.837L64.3715 48.9374L63.9291 48.7226L63.4889 48.9418L63.9346 49.837ZM100.024 89.0387L100.099 88.0414L100.088 88.0407L100.024 89.0387ZM73.995 82.4796L73.5328 81.5928L71.5514 82.6255L73.6416 83.4151L73.995 82.4796ZM108.329 88.1878L108.607 89.1483L109.485 88.8939L109.31 87.9966L108.329 88.1878ZM96.5244 71.3567L95.8173 72.0638L95.8257 72.0722L95.8342 72.0803L96.5244 71.3567ZM96.5242 71.3565L97.2313 70.6494L97.223 70.6411L97.2145 70.6329L96.5242 71.3565ZM94.2174 69.136L94.9175 68.4219L94.3093 67.8256L93.6238 68.3312L94.2174 69.136ZM20.7035 89.5621L19.7047 89.5147L19.665 90.3492L20.4792 90.5367L20.7035 89.5621ZM23.763 81.8978L22.9295 81.3453L22.9233 81.3548L23.763 81.8978ZM28.9299 90.1221L28.8343 89.1266L28.8257 89.1275L28.8171 89.1284L28.9299 90.1221ZM54.7092 82.8213L55.0928 83.7448L57.0517 82.9311L55.1776 81.9377L54.7092 82.8213ZM34.323 70.0086L34.9224 69.2082L34.2572 68.7101L33.6458 69.2729L34.323 70.0086ZM48.9409 104.709L47.9833 104.997L47.9952 105.037L48.0102 105.075L48.9409 104.709ZM56.7847 101.306L57.6537 100.811L57.6238 100.758L57.5878 100.71L56.7847 101.306ZM58.2833 118.089L58.8863 117.292L58.8794 117.286L58.8723 117.281L58.2833 118.089ZM68.9525 118.692L68.4348 117.837L68.4289 117.84L68.9525 118.692ZM78.8022 105.952L77.9202 105.481L77.907 105.506L77.8952 105.531L78.8022 105.952ZM78.3261 100.92L77.5667 101.571L77.5933 101.602L77.6224 101.631L78.3261 100.92ZM71.0208 101.786L71.9231 102.217L71.9269 102.209L71.9306 102.201L71.0208 101.786ZM70.8111 102.226L69.9084 101.795L69.9084 101.795L70.8111 102.226ZM64.0901 111.85L63.5054 112.662L64.0994 113.09L64.6868 112.653L64.0901 111.85ZM58.1264 103.813L57.2387 104.273L57.2387 104.273L58.1264 103.813ZM69.994 8.77057C66.546 6.40563 61.6245 6.41407 58.186 8.77033L59.3166 10.4201C62.0752 8.52972 66.0981 8.52362 68.8627 10.4199L69.994 8.77057ZM80.0565 22.4861C77.9044 17.4734 75.039 12.1256 69.9821 8.76256L68.8746 10.4279C73.4177 13.4493 76.0937 18.3256 78.2187 23.2751L80.0565 22.4861ZM75.9903 29.4157C79.1467 28.8978 81.3918 25.4547 80.0496 22.4704L78.2256 23.2908C78.9438 24.8878 77.7392 27.102 75.6664 27.4421L75.9903 29.4157ZM69.8096 26.1218C70.698 28.5226 73.4815 29.936 76.0311 29.4081L75.6256 27.4497C73.9604 27.7944 72.2015 26.8227 71.6853 25.4277L69.8096 26.1218ZM63.4872 16.9814C66.518 19.2702 68.2588 22.6653 69.8348 26.1836L71.66 25.3659C70.0829 21.8452 68.1709 18.0122 64.6925 15.3853L63.4872 16.9814ZM58.1319 26.6321C59.808 22.9445 61.5132 19.3606 64.689 16.984L63.4907 15.3827C59.8451 18.1109 57.96 22.1768 56.3112 25.8045L58.1319 26.6321ZM50.4864 29.0862C51.8543 29.8417 53.4783 29.8955 54.8737 29.4553C56.2673 29.0157 57.554 28.0423 58.1467 26.5979L56.2964 25.8387C55.976 26.6195 55.2295 27.2459 54.272 27.548C53.3161 27.8495 52.2708 27.787 51.4534 27.3355L50.4864 29.0862ZM48.1077 22.5096C46.9535 24.9383 48.0849 27.9249 50.5341 29.1109L51.4057 27.3108C49.8901 26.5769 49.2575 24.7496 49.9141 23.368L48.1077 22.5096ZM58.1977 8.76248C53.1155 12.1413 50.2733 17.5292 48.0939 22.5399L49.9279 23.3376C52.0879 18.3715 54.7403 13.4628 59.305 10.428L58.1977 8.76248ZM114.091 31.7304C109.808 28.3532 103.88 28.2604 98.9739 28.5506L99.092 30.5471C104.02 30.2556 109.223 30.4392 112.853 33.301L114.091 31.7304ZM116.498 43.8698C117.867 40.048 117.956 34.8381 114.099 31.7364L112.846 33.295C115.716 35.6034 115.867 39.7014 114.615 43.195L116.498 43.8698ZM101.434 64.2574C107.329 58.3466 113.64 51.9676 116.499 43.8652L114.613 43.1996C111.93 50.804 105.973 56.874 100.018 62.8452L101.434 64.2574ZM114.941 78.0225C111.386 72.2308 106.582 67.2154 101.374 62.7894L100.079 64.3133C105.189 68.6568 109.829 73.5165 113.237 79.0687L114.941 78.0225ZM117.886 90.3717C118.961 85.925 117.018 81.5546 114.951 78.0388L113.227 79.0523C115.264 82.5174 116.818 86.2766 115.942 89.9016L117.886 90.3717ZM110.534 97.2832C113.832 96.3002 117.049 93.8939 117.887 90.3677L115.941 89.9055C115.328 92.4876 112.862 94.5025 109.963 95.3665L110.534 97.2832ZM94.8489 97.8987C99.9317 98.5418 105.42 98.8667 110.544 97.2801L109.953 95.3696C105.26 96.8226 100.132 96.5512 95.0999 95.9145L94.8489 97.8987ZM65.1455 88.9675C74.5554 93.0369 84.4653 96.4399 94.8353 97.8969L95.1135 95.9163C84.9881 94.4937 75.261 91.1631 65.9393 87.1318L65.1455 88.9675ZM63.4482 89.195C63.8828 88.9856 64.1869 88.8457 64.4629 88.7917C64.6871 88.7478 64.8283 88.7731 64.979 88.8759L66.1057 87.2234C65.4196 86.7556 64.7052 86.7063 64.0787 86.8289C63.504 86.9414 62.9623 87.2091 62.5799 87.3934L63.4482 89.195ZM62.6808 89.5376C62.952 89.435 63.2225 89.3039 63.4482 89.195L62.5799 87.3934C62.3366 87.5106 62.1473 87.6011 61.9729 87.6671L62.6808 89.5376ZM29.803 99.4068C41.4168 98.2348 52.4428 94.2734 62.7465 89.5101L61.9072 87.6947C51.6998 92.4135 40.9032 96.2764 29.6022 97.4169L29.803 99.4068ZM14.0628 96.2271C18.4963 99.7597 24.6961 99.757 29.7709 99.4095L29.6343 97.4142C24.5159 97.7647 19.0709 97.6602 15.3092 94.6629L14.0628 96.2271ZM11.7633 83.9861C10.3831 87.7985 10.1848 93.0657 14.0542 96.2201L15.3179 94.6699C12.4439 92.327 12.3704 88.1845 13.6439 84.6669L11.7633 83.9861ZM26.5598 63.9646C20.7688 69.7655 14.629 76.0588 11.7632 83.9866L13.6441 84.6665C16.3352 77.2219 22.1368 71.2261 27.9752 65.3776L26.5598 63.9646ZM25.6296 64.2066C25.8738 64.3979 26.0372 64.529 26.1579 64.6602C26.2693 64.7813 26.2814 64.8377 26.2834 64.8487L28.2516 64.4936C28.1586 63.9786 27.8903 63.5894 27.6299 63.3063C27.3788 63.0333 27.0792 62.8016 26.8631 62.6323L25.6296 64.2066ZM24.7718 63.4249C25.042 63.7518 25.392 64.0204 25.6296 64.2066L26.8631 62.6323C26.5833 62.413 26.4195 62.2791 26.3134 62.1507L24.7718 63.4249ZM11.2291 45.974C14.1488 52.8461 19.425 58.5132 24.8652 63.5234L26.22 62.0522C20.8271 57.0856 15.8163 51.6561 13.0698 45.1919L11.2291 45.974ZM12.7547 33.501C9.08666 36.9269 9.63488 42.1891 11.2278 45.9711L13.071 45.1948C11.5889 41.6761 11.3879 37.5142 14.1198 34.9627L12.7547 33.501ZM28.2993 29.6475C23.2303 29.4811 16.9877 29.6995 12.7691 33.4878L14.1054 34.9759C17.6605 31.7835 23.1095 31.4783 28.2337 31.6464L28.2993 29.6475ZM63.072 39.0574C52.1609 34.3795 40.5253 30.4158 28.3292 29.6489L28.2037 31.6449C40.0622 32.3906 51.4508 36.2512 62.2839 40.8956L63.072 39.0574ZM64.6853 38.833C64.2654 39.0319 63.9734 39.164 63.7093 39.2155C63.4935 39.2576 63.3649 39.2325 63.232 39.144L62.124 40.809C62.7933 41.2544 63.488 41.2963 64.0921 41.1785C64.6479 41.0701 65.1725 40.8153 65.5415 40.6405L64.6853 38.833ZM65.4467 38.5C65.177 38.5993 64.908 38.7275 64.6853 38.833L65.5415 40.6405C65.7825 40.5263 65.9677 40.4394 66.1376 40.3769L65.4467 38.5ZM98.9437 28.5528C87.095 29.6148 75.853 33.6886 65.3727 38.5306L66.2116 40.3462C76.6015 35.5459 87.6032 31.5773 99.1222 30.5449L98.9437 28.5528ZM94.4633 57.1863C88.0101 52.3823 81.1294 48.1164 73.9725 44.3144L73.0342 46.0807C80.1133 49.8413 86.9067 54.0542 93.269 58.7906L94.4633 57.1863ZM106.647 38.5545C104.846 45.945 98.963 51.7193 93.1743 57.2665L94.558 58.7105C100.258 53.2484 106.628 47.0825 108.59 39.028L106.647 38.5545ZM99.2414 38.9531C102.134 38.769 104.857 38.6167 107.199 39.699L108.038 37.8834C105.155 36.5515 101.899 36.7799 99.1143 36.9571L99.2414 38.9531ZM99.2405 38.9532L99.2416 38.9531L99.1142 36.9572L99.1131 36.9572L99.2405 38.9532ZM98.4208 39.0041C98.6934 38.988 98.9675 38.9705 99.2403 38.9532L99.1133 36.9572C98.8396 36.9746 98.5701 36.9918 98.3027 37.0076L98.4208 39.0041ZM73.8863 46.1214C81.7929 42.8441 89.9455 39.958 98.4734 38.9996L98.2501 37.0121C89.4358 38.0026 81.0733 40.9774 73.1205 44.2738L73.8863 46.1214ZM23.4825 46.0151C22.1301 43.9586 21.0056 41.9204 20.8745 39.7349L18.8781 39.8546C19.0436 42.6138 20.4477 45.0403 21.8115 47.1141L23.4825 46.0151ZM34.7859 58.1304C30.5078 54.4694 26.5184 50.5308 23.4769 46.0067L21.8171 47.1225C25.0038 51.8627 29.1471 55.9373 33.4855 59.65L34.7859 58.1304ZM53.4924 44.5728C46.5978 48.7095 39.7595 53.0575 33.507 58.1125L34.7644 59.6678C40.9061 54.7024 47.6481 50.4117 54.5214 46.2878L53.4924 44.5728ZM32.8408 40.4784C39.9904 41.5456 46.8463 43.8768 53.6635 46.3695L54.3503 44.4911C47.5246 41.9953 40.5033 39.6 33.1361 38.5003L32.8408 40.4784ZM20.1619 40.7531C24.1902 39.5526 28.545 39.8221 32.8374 40.4779L33.1394 38.5008C28.7685 37.833 24.0541 37.5063 19.5907 38.8364L20.1619 40.7531ZM64.614 77.2866C56.5516 73.2774 48.7957 68.7528 41.5901 63.5409L40.4179 65.1614C47.7293 70.4499 55.5831 75.0295 63.7235 79.0774L64.614 77.2866ZM80.4357 67.3333C75.0575 70.9716 69.6067 74.4846 63.7388 77.2792L64.5987 79.0848C70.6097 76.2221 76.1638 72.6378 81.5563 68.9899L80.4357 67.3333ZM82.2397 66.057C81.6311 66.4737 81.0006 66.9053 80.3936 67.3634L81.5985 68.9598C82.1624 68.5341 82.7545 68.1285 83.3697 67.7072L82.2397 66.057ZM86.1571 62.8267C85.1273 64.0716 83.7539 65.0201 82.2397 66.057L83.3697 67.7072C84.8401 66.7003 86.4585 65.6002 87.6982 64.1014L86.1571 62.8267ZM63.4978 50.7365C71.5161 54.6307 79.1416 59.191 86.3509 64.2809L87.5044 62.6471C80.2122 57.4987 72.4936 52.882 64.3715 48.9374L63.4978 50.7365ZM41.6068 65.1491C48.7553 59.7485 56.2882 54.7612 64.3803 50.7321L63.4889 48.9418C55.2532 53.0424 47.6135 58.1045 40.4012 63.5533L41.6068 65.1491ZM100.088 88.0407C91.199 87.469 82.6676 84.6866 74.3484 81.5441L73.6416 83.4151C81.9936 86.5699 90.7577 89.4448 99.96 90.0366L100.088 88.0407ZM108.05 87.2273C105.482 87.9715 102.784 88.2435 100.099 88.0415L99.9491 90.0358C102.867 90.2554 105.805 89.9603 108.607 89.1483L108.05 87.2273ZM95.8342 72.0803C100.99 76.9983 106.086 81.9059 107.347 88.3791L109.31 87.9966C107.905 80.7852 102.257 75.4428 97.2147 70.6332L95.8342 72.0803ZM95.8171 72.0636L95.8173 72.0638L97.2315 70.6496L97.2313 70.6494L95.8171 72.0636ZM93.5173 69.85C94.2752 70.5932 95.0543 71.3364 95.834 72.0801L97.2145 70.6329C96.433 69.8875 95.664 69.1538 94.9175 68.4219L93.5173 69.85ZM74.4572 83.3664C81.7645 79.558 88.3426 74.7112 94.8109 69.9408L93.6238 68.3312C87.1362 73.1158 80.6802 77.8678 73.5328 81.5928L74.4572 83.3664ZM21.7024 89.6096C21.8213 87.1081 23.0931 84.7755 24.6028 82.4408L22.9233 81.3548C21.4049 83.7031 19.8512 86.4317 19.7047 89.5147L21.7024 89.6096ZM28.8171 89.1284C26.1965 89.4259 23.5261 89.1859 20.9279 88.5876L20.4792 90.5367C23.2507 91.1748 26.1529 91.4437 29.0427 91.1157L28.8171 89.1284ZM54.3256 81.8978C46.1386 85.2984 37.6885 88.276 28.8343 89.1266L29.0255 91.1175C38.1848 90.2375 46.8585 87.165 55.0928 83.7448L54.3256 81.8978ZM33.7237 70.8091C40.171 75.6366 47.0686 79.903 54.2409 83.7048L55.1776 81.9377C48.0828 78.177 41.275 73.9647 34.9224 69.2082L33.7237 70.8091ZM24.5966 82.4503C27.4439 78.1547 31.0929 74.3415 35.0003 70.7444L33.6458 69.2729C29.6859 72.9183 25.9046 76.8569 22.9295 81.3453L24.5966 82.4503ZM49.8984 104.421C49.4785 103.026 50.3102 101.74 51.8323 101.092C53.3594 100.441 55.0704 100.673 55.9817 101.901L57.5878 100.71C55.9469 98.4985 53.1156 98.3711 51.0486 99.2515C48.9765 100.134 47.1623 102.269 47.9833 104.997L49.8984 104.421ZM58.8723 117.281C54.5102 114.101 51.812 109.279 49.8715 104.343L48.0102 105.075C50.0035 110.145 52.878 115.387 57.6942 118.897L58.8723 117.281ZM68.4289 117.84C65.5675 119.599 61.5572 119.311 58.8863 117.292L57.6802 118.887C60.9722 121.376 65.8752 121.757 69.4761 119.544L68.4289 117.84ZM77.8952 105.531C75.6687 110.326 73.0102 115.068 68.4348 117.837L69.4702 119.548C74.604 116.441 77.4714 111.192 79.7092 106.373L77.8952 105.531ZM77.6224 101.631C78.5826 102.582 78.6368 104.139 77.9202 105.481L79.6842 106.423C80.6691 104.58 80.8169 101.979 79.0298 100.21L77.6224 101.631ZM71.9306 102.201C72.3435 101.296 73.3324 100.677 74.5287 100.542C75.725 100.406 76.8918 100.783 77.5667 101.571L79.0855 100.269C77.8795 98.8616 75.9907 98.3627 74.3031 98.5543C72.6155 98.7459 70.8922 99.6584 70.1109 101.371L71.9306 102.201ZM71.7138 102.656C71.7838 102.509 71.8534 102.363 71.9231 102.217L70.1185 101.355C70.0484 101.502 69.9784 101.649 69.9084 101.795L71.7138 102.656ZM64.6868 112.653C68.2219 110.024 70.0584 106.128 71.7138 102.656L69.9084 101.795C68.2163 105.345 66.566 108.763 63.4933 111.048L64.6868 112.653ZM57.2387 104.273C58.7608 107.208 60.4151 110.434 63.5054 112.662L64.6747 111.039C62.0315 109.134 60.5707 106.354 59.0142 103.352L57.2387 104.273ZM55.9158 101.8C56.3701 102.598 56.7984 103.424 57.2387 104.273L59.0142 103.352C58.577 102.509 58.1308 101.648 57.6537 100.811L55.9158 101.8Z" fill="url(#paint1_linear_678_421)"/>
<defs>
<linearGradient id="paint0_linear_678_421" x1="64.0959" y1="120" x2="64" y2="8" gradientUnits="userSpaceOnUse">
<stop stop-color="#5570FF"/>
<stop offset="1" stop-color="#4DD3FF"/>
</linearGradient>
<linearGradient id="paint1_linear_678_421" x1="64.0959" y1="120" x2="64" y2="8" gradientUnits="userSpaceOnUse">
<stop stop-color="#5570FF"/>
<stop offset="1" stop-color="#4DD3FF"/>
</linearGradient>
</defs>
</svg>
