<svg width="128" height="128" viewBox="0 0 128 128" fill="none" xmlns="http://www.w3.org/2000/svg">
<path d="M20.6908 63.8222C23.7042 55.6635 32.5144 50.3621 40.9618 51.5734C49.5766 52.5282 56.7754 60.0884 57.7869 68.8315C58.4984 76.3274 54.9408 84.1374 48.5303 87.9847C42.1267 92.0681 33.5607 91.6047 27.3873 87.2794C20.3071 82.1921 17.3216 72.0094 20.6908 63.8222ZM33.4561 61.2C28.8034 63.6084 26.1527 69.8504 28.3151 74.8167C30.1287 81.6221 39.0714 84.6147 44.6239 80.5101C50.316 76.9827 51.3833 67.556 46.0889 63.2237C43.1521 59.5326 37.4182 58.9483 33.4561 61.2Z" fill="url(#paint0_linear_618_168)" stroke="url(#paint1_linear_618_168)" stroke-width="4"/>
<path d="M73.8605 56.5632C78.4925 51.8603 85.5799 49.9365 91.8999 51.5753C98.8612 53.2712 104.484 59.2567 106.095 66.3465C107.623 73.9069 104.749 82.2436 98.4919 86.7183C92.0045 91.6283 82.6992 91.4856 76.0859 86.8896C71.9079 83.7403 68.9219 78.9016 68.2179 73.6216C67.2759 67.4439 69.4312 60.8813 73.8605 56.5632ZM80.4665 61.9145C76.9025 64.6721 75.0819 70.2086 77.0485 74.3629C78.7299 81.2176 87.8192 84.2103 93.3299 80.0703C99.0285 76.5289 100.019 67.1589 94.8012 62.7838C91.3065 58.6296 84.4845 58.4087 80.4665 61.9145Z" fill="url(#paint2_linear_618_168)" stroke="url(#paint3_linear_618_168)" stroke-width="4"/>
<path fill-rule="evenodd" clip-rule="evenodd" d="M105.003 21.1314C108.532 20.8924 112.349 20.7764 115.518 22.654C118.211 24.1561 120.19 26.7301 121.352 29.5977C121.42 30.0211 121.547 30.8813 121.607 31.3047C121.989 33.032 121.988 34.7979 121.987 36.5588C121.987 37.1367 121.987 37.7141 122 38.2893C121.965 47.2463 121.972 56.2049 121.98 65.1635C121.988 75.1005 121.996 85.0375 121.946 94.9725C121.9 101.636 116.078 107.46 109.561 107.385C94.1548 107.447 78.7349 107.433 63.3282 107.385C54.1436 107.432 44.9616 107.426 35.7806 107.419C30.2894 107.416 24.7985 107.412 19.3076 107.419C16.2062 107.467 13.0246 106.594 10.6385 104.504C10.6384 104.504 10.6385 104.504 10.6385 104.504C9.42865 103.473 8.43935 102.196 7.52365 100.892C6.39406 98.6456 5.93955 96.1128 6.00639 93.6074C6.02101 84.8341 6.01772 76.0621 6.01443 67.2904C6.0102 56.0128 6.00597 44.7348 6.03981 33.4554C6.03313 26.7165 12.0621 20.8174 18.6458 21.0427C23.9198 21.0571 29.1947 21.0453 34.4696 21.0335C44.169 21.0117 53.8685 20.9899 63.5621 21.1314C77.371 20.9608 91.1934 20.9744 105.003 21.1314ZM68.2675 99.3425C75.6586 99.2726 83.0496 99.284 90.4407 99.2955C96.7518 99.3053 103.063 99.3151 109.374 99.2742C111.961 99.3489 114.207 96.9387 114.026 94.3101C114.065 88.0835 114.056 81.8554 114.046 75.6272C114.035 68.0193 114.023 60.4112 114.1 52.805C113.981 49.9746 114.02 47.1338 114.059 44.2935C114.114 40.2617 114.169 36.2309 113.773 32.2332C113.091 30.6424 111.674 29.2973 109.916 29.2017C108.11 29.0859 106.3 29.1009 104.489 29.1159C102.989 29.1283 101.489 29.1407 99.9896 29.0788C86.1807 29.1675 72.3648 29.1676 58.5558 29.072C50.7726 29.156 42.9894 29.144 35.2076 29.1319C29.704 29.1234 24.2011 29.1149 18.6993 29.1403C16.0792 29.0106 13.7531 31.4822 13.9603 34.1518C13.9244 44.1739 13.9309 54.196 13.9374 64.2192V64.2204C13.943 72.8723 13.9486 81.5255 13.9269 90.1797C13.928 90.5858 13.9205 90.997 13.9131 91.4104C13.8736 93.5894 13.8331 95.8302 15.0297 97.7245L15.1835 98.0861C15.1835 98.0861 15.1835 98.086 15.1835 98.0861C16.4601 98.776 17.8237 99.3898 19.3009 99.308C24.8895 99.3128 30.478 99.3063 36.0666 99.2998C46.8003 99.2874 57.5339 99.2749 68.2675 99.3425Z" fill="url(#paint4_linear_618_168)"/>
<path d="M10.6385 104.504C13.0246 106.594 16.2062 107.467 19.3076 107.419C24.7985 107.412 30.2894 107.416 35.7806 107.419C44.9616 107.426 54.1436 107.432 63.3282 107.385C78.7349 107.433 94.1548 107.447 109.561 107.385C116.078 107.46 121.9 101.636 121.946 94.9725C121.996 85.0375 121.988 75.1005 121.98 65.1635C121.972 56.2049 121.965 47.2463 122 38.2893C121.987 37.7141 121.987 37.1367 121.987 36.5588C121.988 34.7979 121.989 33.032 121.607 31.3047C121.547 30.8813 121.42 30.0211 121.352 29.5977C120.19 26.7301 118.211 24.1561 115.518 22.654C112.349 20.7764 108.532 20.8924 105.003 21.1314C91.1934 20.9744 77.371 20.9608 63.5621 21.1314C53.8685 20.9899 44.169 21.0117 34.4696 21.0335C29.1947 21.0453 23.9198 21.0571 18.6458 21.0427C12.0621 20.8174 6.03313 26.7165 6.03981 33.4554C6.00597 44.7348 6.0102 56.0128 6.01443 67.2904C6.01772 76.0621 6.02101 84.8341 6.00639 93.6074C5.93955 96.1128 6.39406 98.6456 7.52365 100.892C8.43935 102.196 9.42865 103.473 10.6385 104.504ZM10.6385 104.504C10.6385 104.504 10.6384 104.504 10.6385 104.504ZM15.1835 98.0861L15.0297 97.7245C13.8331 95.8302 13.8736 93.5894 13.9131 91.4104C13.9205 90.997 13.928 90.5858 13.9269 90.1797C13.9486 81.5255 13.943 72.8723 13.9374 64.2204V64.2192C13.9309 54.196 13.9244 44.1739 13.9603 34.1518C13.7531 31.4822 16.0792 29.0106 18.6993 29.1403C24.2011 29.1149 29.704 29.1234 35.2076 29.1319C42.9894 29.144 50.7726 29.156 58.5558 29.072C72.3648 29.1676 86.1807 29.1675 99.9896 29.0788C101.489 29.1407 102.989 29.1283 104.489 29.1159C106.3 29.1009 108.11 29.0859 109.916 29.2017C111.674 29.2973 113.091 30.6424 113.773 32.2332C114.169 36.2309 114.114 40.2617 114.059 44.2935C114.02 47.1338 113.981 49.9746 114.1 52.805C114.023 60.4112 114.035 68.0193 114.046 75.6272C114.056 81.8554 114.065 88.0835 114.026 94.3101C114.207 96.9387 111.961 99.3489 109.374 99.2742C103.063 99.3151 96.7518 99.3053 90.4407 99.2955C83.0496 99.284 75.6586 99.2726 68.2675 99.3425C57.5339 99.2749 46.8003 99.2874 36.0666 99.2998C30.478 99.3063 24.8895 99.3128 19.3009 99.308C17.8237 99.3898 16.4601 98.776 15.1835 98.0861ZM15.1835 98.0861C15.1835 98.086 15.1835 98.0861 15.1835 98.0861Z" stroke="url(#paint5_linear_618_168)" stroke-width="3"/>
<path d="M37.3494 32.1424C34.1223 26.8108 37.9612 20 44.1934 20H83.2491C89.2692 20 93.1323 26.3987 90.3284 31.726L88.7495 34.726C87.3661 37.3544 84.6404 39 81.6701 39H46.0092C43.2101 39 40.6145 37.537 39.1651 35.1424L37.3494 32.1424Z" fill="#D9D9D9"/>
<path d="M37.3494 32.1424C34.1223 26.8108 37.9612 20 44.1934 20H83.2491C89.2692 20 93.1323 26.3987 90.3284 31.726L88.7495 34.726C87.3661 37.3544 84.6404 39 81.6701 39H46.0092C43.2101 39 40.6145 37.537 39.1651 35.1424L37.3494 32.1424Z" fill="url(#paint6_linear_618_168)"/>
<defs>
<linearGradient id="paint0_linear_618_168" x1="38.5911" y1="90.8005" x2="38.5911" y2="51.4014" gradientUnits="userSpaceOnUse">
<stop stop-color="#02AA93"/>
<stop offset="1" stop-color="#67FF80"/>
</linearGradient>
<linearGradient id="paint1_linear_618_168" x1="38.5911" y1="90.8005" x2="38.5911" y2="51.4014" gradientUnits="userSpaceOnUse">
<stop stop-color="#02AA93"/>
<stop offset="1" stop-color="#67FF80"/>
</linearGradient>
<linearGradient id="paint2_linear_618_168" x1="87.2491" y1="90.3687" x2="87.2491" y2="51" gradientUnits="userSpaceOnUse">
<stop stop-color="#02AA93"/>
<stop offset="1" stop-color="#67FF80"/>
</linearGradient>
<linearGradient id="paint3_linear_618_168" x1="87.2491" y1="90.3687" x2="87.2491" y2="51" gradientUnits="userSpaceOnUse">
<stop stop-color="#02AA93"/>
<stop offset="1" stop-color="#67FF80"/>
</linearGradient>
<linearGradient id="paint4_linear_618_168" x1="64" y1="20.9999" x2="64" y2="107.427" gradientUnits="userSpaceOnUse">
<stop stop-color="#00FFE0"/>
<stop offset="1" stop-color="#078AA7"/>
</linearGradient>
<linearGradient id="paint5_linear_618_168" x1="64" y1="20.9999" x2="64" y2="107.427" gradientUnits="userSpaceOnUse">
<stop stop-color="#00FFE0"/>
<stop offset="1" stop-color="#078AA7"/>
</linearGradient>
<linearGradient id="paint6_linear_618_168" x1="64.5" y1="20" x2="65.5" y2="108.5" gradientUnits="userSpaceOnUse">
<stop stop-color="#00FFE0"/>
<stop offset="1" stop-color="#078AA7"/>
</linearGradient>
</defs>
</svg>
