<svg width="64" height="64" viewBox="0 0 64 64" fill="none" xmlns="http://www.w3.org/2000/svg">
<path d="M15.3492 56.8871C15.3492 56.8871 18.6872 58.4574 23.1305 59.0115C24.9299 59.2358 31.7764 60.0201 37.0257 59.9996C37.0257 59.9996 43.419 60.0055 46.948 59.5055C50.6407 58.981 52.7324 58.3116 53.8969 56.9756C53.9273 56.6571 54.4588 55.6188 53.0234 54.6175C49.3538 52.0576 44.61 51.357 35.3954 49.1685C25.2059 46.6066 22.0046 44.1533 20.4831 42.3782C19.0408 40.5989 20.9102 36.9037 29.1207 35.0909C33.2778 34.0793 47.9004 33.5546 47.9004 33.5546C43.4583 30.028 35.9793 24.053 34.2749 22.7103C32.7799 21.5326 30.3707 19.7255 30.1118 18.1105C29.7625 16.5384 32.237 15.7815 33.5472 15.6941C37.7684 15.403 43.533 16.5196 48.6566 17.5385C51.2322 18.0507 51.6843 17.9752 51.6843 17.9752C55.3524 18.1499 58.9345 15.6068 58.7889 11.5601C58.7597 7.45525 53.9267 4.16359 49.3844 4.01986C44.7894 4 33.9009 4 33.9009 4C46.1865 6.53281 48.8602 7.81027 49.5011 9.2892C49.8806 10.1631 48.8696 11.0313 45.4849 10.8618C41.7985 10.677 34.2452 9.78446 34.2452 9.78446C27.0558 8.67821 22.6695 7.63015 20.4856 10.4832C19.0591 12.3471 20.6894 14.6173 21.3299 15.9562C24.1829 20.9346 28.4943 24.3501 31.6248 26.757C32.8028 27.6627 36.3991 29.6683 36.3991 29.6683C25.2201 26.6114 15.6897 28.3291 10.0418 31.2986C3.54967 35.1415 4.66027 41.6262 14.9618 47.6891C21.0464 51.27 24.6977 52.9901 34.6598 54.2133C40.4828 55.1418 41.6619 55.5217 41.6177 56.0063C41.5553 56.6888 34.4141 56.9473 32.5369 57.0768C27.761 57.4062 15.4095 56.8871 15.3479 56.8871H15.3492Z" fill="url(#paint0_linear)"/>
<defs>
<linearGradient id="paint0_linear" x1="32.3966" y1="60" x2="32.3966" y2="4" gradientUnits="userSpaceOnUse">
<stop stop-color="#9000FF"/>
<stop offset="1" stop-color="#DE13FF"/>
</linearGradient>
</defs>
</svg>
