<svg width="64" height="64" viewBox="0 0 64 64" fill="none" xmlns="http://www.w3.org/2000/svg">
<path d="M3.0767 13.2199C3.19176 9.86616 6.43399 6.96768 9.97208 7.01826C23.9519 6.99493 37.9316 7.01826 51.9073 7.00659C53.4976 7.01437 55.1701 6.8821 56.6659 7.51237C59.2095 8.49279 61.0053 10.9866 60.9764 13.5972C60.9929 20.2267 60.9888 26.8563 60.9806 33.4858C61.1244 34.6336 60.1464 35.7968 58.889 35.7657C57.5863 35.8591 56.5179 34.6607 56.674 33.4625C56.6453 26.8407 56.6988 20.2228 56.6494 13.6011C56.674 12.1071 55.129 10.9361 53.5962 11.0956C39.2055 11.0956 24.8148 11.0956 10.4241 11.0956C8.85846 10.9438 7.32159 12.1577 7.36679 13.6828C7.35035 25.7825 7.31337 37.8822 7.32981 49.9857C10.1611 47.6086 13.0047 45.247 15.8443 42.8815C30.2062 42.8932 44.5681 42.8621 58.926 42.8971C60.2943 42.8543 61.3586 44.3133 60.8861 45.5193C60.6272 46.4998 59.5341 47.0484 58.515 46.955C44.8393 46.9627 31.1636 46.9472 17.4879 46.9627C13.7362 50.0946 9.99263 53.2343 6.22852 56.3469C5.07792 57.4984 2.79316 56.4947 3.01506 54.9073C3.00685 41.0102 2.98219 27.1169 3.0767 13.2199Z" fill="url(#paint0_linear_678_220)" stroke="url(#paint1_linear_678_220)"/>
<path d="M32 15C28.8174 15 25.7651 16.2643 23.5147 18.5147C21.2643 20.7651 20 23.8174 20 27C20.0001 28.5759 20.3105 30.1363 20.9137 31.5921C21.5168 33.048 22.4008 34.3708 23.5151 35.4851C24.6295 36.5993 25.9524 37.4832 27.4084 38.0862C28.8643 38.6891 30.4247 38.9995 32.0006 38.9994C33.5765 38.9993 35.1369 38.6889 36.5927 38.0857C38.0487 37.4826 39.3715 36.5985 40.4857 35.4843C41.6 34.3699 42.4838 33.047 43.0868 31.591C43.6898 30.1351 44.0001 28.5746 44 26.9987C44 20.3725 38.6262 15 32 15ZM32 36.4988C30.7433 36.5132 29.4964 36.2781 28.3312 35.8071C27.1661 35.3362 26.1059 34.6389 25.2121 33.7553C24.3185 32.8718 23.6089 31.8197 23.1246 30.66C22.6403 29.5004 22.391 28.2561 22.391 26.9994C22.391 25.7427 22.6403 24.4984 23.1246 23.3387C23.6089 22.1791 24.3185 21.1269 25.2121 20.2435C26.1059 19.3599 27.1661 18.6625 28.3312 18.1916C29.4964 17.7207 30.7433 17.4855 32 17.5C33.2567 17.4855 34.5036 17.7207 35.6688 18.1916C36.8339 18.6625 37.8941 19.3599 38.7879 20.2435C39.6815 21.1269 40.3911 22.1791 40.8754 23.3387C41.3597 24.4984 41.609 25.7427 41.609 26.9994C41.609 28.2561 41.3597 29.5004 40.8754 30.66C40.3911 31.8197 39.6815 32.8718 38.7879 33.7553C37.8941 34.6389 36.8339 35.3362 35.6688 35.8071C34.5036 36.2781 33.2567 36.5132 32 36.4988ZM28.8762 26.6875C29.9112 26.6875 30.75 25.7087 30.75 24.5C30.75 23.2912 29.91 22.3125 28.875 22.3125C27.84 22.3125 27 23.2912 27 24.5C27 25.7087 27.84 26.6875 28.8762 26.6875ZM35.125 26.6875C36.1613 26.6875 37 25.7087 37 24.5C37 23.2912 36.16 22.3125 35.125 22.3125C34.09 22.3125 33.25 23.2925 33.25 24.5C33.25 25.7075 34.09 26.6875 35.125 26.6875ZM37.4262 28.67C37.2056 28.5587 36.9502 28.5382 36.7146 28.613C36.4792 28.6878 36.2823 28.8519 36.1662 29.07C36.1237 29.1525 35.08 31.0612 32.0013 31.0612C28.9375 31.0612 27.8875 29.17 27.835 29.0713C27.7226 28.8493 27.5267 28.6811 27.2903 28.6036C27.0539 28.5261 26.7963 28.5458 26.5744 28.6581C26.3525 28.7705 26.1842 28.9665 26.1067 29.2029C26.0292 29.4393 26.0489 29.6968 26.1612 29.9187C26.2237 30.0425 27.7212 32.9362 32.0013 32.9362C36.2825 32.9362 37.7775 30.0412 37.8388 29.9175C37.9489 29.6973 37.9673 29.4423 37.89 29.2086C37.8127 28.9748 37.646 28.7811 37.4262 28.67Z" fill="url(#paint2_linear_678_220)" stroke="url(#paint3_linear_678_220)"/>
<defs>
<linearGradient id="paint0_linear_678_220" x1="3" y1="56.8438" x2="69.2406" y2="23.248" gradientUnits="userSpaceOnUse">
<stop stop-color="#0357D1"/>
<stop offset="1" stop-color="#27CDFC"/>
</linearGradient>
<linearGradient id="paint1_linear_678_220" x1="3" y1="56.8438" x2="69.2406" y2="23.248" gradientUnits="userSpaceOnUse">
<stop stop-color="#0357D1"/>
<stop offset="1" stop-color="#27CDFC"/>
</linearGradient>
<linearGradient id="paint2_linear_678_220" x1="20" y1="38.9994" x2="48.9589" y2="26.3772" gradientUnits="userSpaceOnUse">
<stop stop-color="#0357D1"/>
<stop offset="1" stop-color="#27CDFC"/>
</linearGradient>
<linearGradient id="paint3_linear_678_220" x1="20" y1="38.9994" x2="48.9589" y2="26.3772" gradientUnits="userSpaceOnUse">
<stop stop-color="#0357D1"/>
<stop offset="1" stop-color="#27CDFC"/>
</linearGradient>
</defs>
</svg>
