<svg width="128" height="128" viewBox="0 0 128 128" fill="none" xmlns="http://www.w3.org/2000/svg">
<path d="M64 8C33.1215 8 8 33.1215 8 64C8 94.8785 33.1215 120 64 120C94.8785 120 120 94.8785 120 64C120 33.1215 94.8785 8 64 8ZM43.6933 18.9277L51.9112 25.1125L46.4889 27.2592C45.6988 27.572 45.0608 28.1792 44.7093 28.9527L41.8103 35.3344L29.7203 41.3773C28.7123 41.8811 28.0336 42.867 27.9222 43.9885L26.865 54.6473L21.4875 51.0623L18.9907 43.5578C23.9604 32.6579 32.7759 23.8659 43.6933 18.9277ZM40.997 76.2264L32.8719 67.8717V63.6462L40.0655 63.5511L48.4471 72.7699C48.9188 73.2886 49.544 73.6425 50.2313 73.7801L55.5261 74.8395L52.6189 77.7476C52.0038 78.363 51.6581 79.1972 51.6581 80.0674V83.8584L45.728 88.3055C44.9049 88.9228 44.4192 89.8904 44.4155 90.9188L41.9262 87.9315V78.5141C41.9259 77.6596 41.5926 76.8389 40.997 76.2264ZM64 113.438C36.7401 113.438 14.5625 91.2599 14.5625 64C14.5625 60.5952 14.9086 57.2695 15.5672 54.0565L15.6162 54.2035C15.8468 54.8965 16.302 55.4926 16.9097 55.8977L26.3094 62.1643V69.2041C26.3094 70.0585 26.6425 70.8792 27.2384 71.4917L35.3634 79.8465V89.1191C35.3634 89.8866 35.6325 90.63 36.1241 91.2198L45.176 102.082C45.8118 102.845 46.7419 103.263 47.6973 103.263C48.0709 103.263 48.4484 103.199 48.8137 103.066C50.1126 102.596 50.978 101.363 50.978 99.9809V92.5709L56.9081 88.1237C57.7344 87.504 58.2206 86.5314 58.2206 85.4987V81.4261L64.5005 75.1443C65.356 74.2885 65.6711 73.0316 65.3204 71.8735C64.9695 70.7154 64.0101 69.8443 62.8236 69.607L52.5767 67.5569L43.9271 58.0434C43.2951 57.3485 42.3962 56.9615 41.4558 56.9698L33.2181 57.0788L34.2739 46.4383L45.7838 40.6852C46.4564 40.3489 46.9931 39.7921 47.3041 39.1074L50.1361 32.8736L59.7674 29.0606C60.871 28.6237 61.6525 27.6247 61.8114 26.4485C61.9702 25.2722 61.481 24.1018 60.5328 23.3882L51.085 16.2775C55.2039 15.1617 59.533 14.5625 64 14.5625C81.1023 14.5625 96.2026 23.2928 105.082 36.5298L98.1101 38.9311L89.4699 37.4904L86.6358 33.2409C85.7041 31.844 83.8684 31.3759 82.3813 32.156L59.5242 44.15C58.3123 44.7859 57.6226 46.107 57.7932 47.4647C57.9638 48.8225 58.9591 49.9318 60.2904 50.2481L75.081 53.7621L79.3379 60.3751C80.0989 61.5577 81.5289 62.1236 82.8932 61.7823L88.7258 60.3233L91.4879 62.1644V67.6509C91.4879 68.4761 91.7987 69.271 92.3586 69.8772L101.968 80.2833L101.97 95.6234C92.8938 106.502 79.2423 113.438 64 113.438ZM108.531 78.9995C108.531 78.1746 108.22 77.3796 107.66 76.7735L98.0506 66.3675V60.4081C98.0506 59.3109 97.502 58.2863 96.5894 57.6779L91.1576 54.0575C90.3883 53.5448 89.4384 53.3801 88.5416 53.6048L83.5829 54.8451L79.8841 49.0989C79.4252 48.3861 78.7083 47.8786 77.8834 47.6826L70.3339 45.8891L82.8154 39.3396L84.7987 42.3138C85.3019 43.0681 86.0946 43.5806 86.9891 43.7297L97.852 45.541C98.391 45.6309 98.944 45.5848 99.4603 45.407L108.423 42.3204C111.632 48.8699 113.438 56.2276 113.438 64C113.438 71.6857 111.674 78.967 108.531 85.4616V78.9995Z" fill="url(#paint0_linear_637_226)" stroke="url(#paint1_linear_637_226)" stroke-width="4"/>
<defs>
<linearGradient id="paint0_linear_637_226" x1="24.4021" y1="103.598" x2="103.598" y2="24.4021" gradientUnits="userSpaceOnUse">
<stop stop-color="#0029FF"/>
<stop offset="1" stop-color="#44FFC7"/>
</linearGradient>
<linearGradient id="paint1_linear_637_226" x1="24.4021" y1="103.598" x2="103.598" y2="24.4021" gradientUnits="userSpaceOnUse">
<stop stop-color="#0029FF"/>
<stop offset="1" stop-color="#44FFC7"/>
</linearGradient>
</defs>
</svg>
