<svg width="64" height="64" viewBox="0 0 64 64" fill="none" xmlns="http://www.w3.org/2000/svg">
<path fill-rule="evenodd" clip-rule="evenodd" d="M28.2661 3.86644C29.2946 3.27223 30.4665 2.97313 31.6534 3.0019C32.7365 3.02695 33.7953 3.32366 34.7339 3.86587L53.7657 14.8753C54.7491 15.4441 55.5657 16.2623 56.1335 17.2476C56.7012 18.2329 57.0001 19.3506 57 20.4884V42.5087C57.0001 43.6464 56.7012 44.7641 56.1335 45.7494C55.5657 46.7347 54.7491 47.5529 53.7657 48.1217L34.7339 59.1317C33.7506 59.7006 32.6352 60 31.4999 60C30.3645 60 29.2491 59.7006 28.2658 59.1317L9.23402 48.1217C8.25075 47.5529 7.43424 46.7348 6.86655 45.7496C6.29886 44.7644 6 43.6469 6 42.5093V20.4889C5.99993 19.3512 6.29879 18.2335 6.86653 17.2482C7.43428 16.2629 8.2509 15.4447 9.2343 14.8759L28.2661 3.86644ZM31.5614 9.00079C31.0845 8.98903 30.6117 9.10898 30.1928 9.35492L13.3266 19.2696L31.5 29.8517L49.6724 19.2689L32.8072 9.35492H32.8047C32.4209 9.12957 31.9985 9.01099 31.5639 9.00079H31.5614ZM12 41.4402V21.7912L30.0833 32.3231V53.5881L13.2949 43.7182C12.5496 43.28 12 42.318 12 41.4402ZM49.7051 43.7182L32.9167 53.5881V32.3231L51 21.7903V41.4402C51.0001 42.3179 50.4504 43.2801 49.7051 43.7182Z" fill="url(#paint0_linear_643_58)" stroke="url(#paint1_linear_643_58)" stroke-width="2"/>
<defs>
<linearGradient id="paint0_linear_643_58" x1="31.5" y1="60" x2="31.5" y2="3" gradientUnits="userSpaceOnUse">
<stop stop-color="#00C24E"/>
<stop offset="1" stop-color="#D7FF67"/>
</linearGradient>
<linearGradient id="paint1_linear_643_58" x1="31.5" y1="60" x2="31.5" y2="3" gradientUnits="userSpaceOnUse">
<stop stop-color="#00C24E"/>
<stop offset="1" stop-color="#D7FF67"/>
</linearGradient>
</defs>
</svg>
