<svg width="64" height="64" viewBox="0 0 64 64" fill="none" xmlns="http://www.w3.org/2000/svg">
<path d="M34.736 4V9.6645C47.0584 11.1788 55.788 22.3676 54.2723 34.678C52.9811 44.8853 44.9532 52.9895 34.736 54.1953V59.8037C50.1741 58.2614 61.4019 44.5769 59.8581 29.1537C58.595 15.8338 48.0128 5.31798 34.736 4ZM29.1221 4.08413C23.6486 4.61693 18.4277 6.72008 14.1611 10.2534L18.175 14.4036C21.3188 11.8798 25.1082 10.2534 29.1221 9.69254V4.08413ZM18.175 49.8207L14.1611 53.6625C18.413 57.2034 23.6185 59.4084 29.1221 60V54.3916C25.129 53.8757 21.348 52.297 18.175 49.8207Z" fill="url(#paint0_linear_576_15)"/>
<path d="M11.7251 30.7815L11.5161 46.6003C11.5849 47.2172 10.961 47.8243 10.1922 47.7363L6.20892 47.6606C5.49667 47.6698 4.98393 47.1428 5.01255 46.431L5.20213 30.6312C2.44727 29.3603 0.559445 26.5618 0.603287 23.2518C0.706523 19.8079 2.86402 16.7588 6.01483 15.7449L5.99154 23.3283L11.207 23.383L11.3056 15.9162C14.3504 17.0951 16.563 20.0713 16.4978 23.5543C16.4735 26.8453 14.5314 29.6087 11.7251 30.7815Z" fill="url(#paint1_linear_576_15)"/>
<path d="M48.5118 35.538C47.5626 34.5245 45.6224 33.9385 42.8732 33.9385C41.4019 33.9385 39.7012 34.085 37.8493 34.4302C36.7175 33.3118 35.6875 32.0945 34.7716 30.7928C34.0625 29.8054 33.4415 28.7599 32.8726 27.7304C33.9573 24.3338 34.4841 21.5634 34.4841 19.5675C34.4841 17.3309 33.6759 15 31.3592 15C30.6441 15 29.935 15.4335 29.5544 16.0716C28.5108 17.953 28.9805 22.0821 30.7803 26.158C30.0938 28.2372 29.3369 30.2924 28.5108 32.32C27.7287 34.1801 26.8706 36.0071 25.9388 37.7966C20.7277 39.9189 17.3524 42.3903 17.0399 44.3349C16.8987 45.0663 17.1391 45.7357 17.6499 46.2735C17.8272 46.4201 18.4952 47 19.627 47C23.0854 47 26.727 41.2775 28.5839 37.8227C30.0031 37.3421 31.4274 36.9026 32.8455 36.4641C34.3443 36.0495 35.8625 35.7093 37.3946 35.4446C41.0463 38.795 44.2644 39.3228 45.882 39.3228C47.8751 39.3228 48.584 38.497 48.8243 37.8227C49.2002 36.9498 48.9187 35.9885 48.4909 35.4918L48.5171 35.544L48.5118 35.538ZM46.665 36.9488C46.5239 37.6752 45.8098 38.1609 44.8132 38.1609C44.5318 38.1609 44.2914 38.1087 44.0049 38.0666C42.1891 37.6271 40.4895 36.7029 38.7938 35.244C40.1091 35.0227 41.4404 34.9109 42.774 34.9098C43.7596 34.9098 44.6159 34.957 45.1887 35.1035C45.8457 35.245 46.8893 35.6885 46.6552 36.9538H46.681L46.665 36.9488ZM36.6184 34.665C35.2987 34.9349 33.9871 35.2434 32.6853 35.5901C31.553 35.8983 30.431 36.2433 29.3211 36.6247C29.8973 35.4812 30.4348 34.3186 30.9326 33.1388C31.5065 31.7752 31.9762 30.3693 32.4509 29.0619C32.9157 29.8827 33.4365 30.7085 33.9583 31.445C34.8136 32.61 35.706 33.7188 36.6034 34.6851V34.659L36.6184 34.665ZM30.4048 16.6245C30.4883 16.4533 30.617 16.3083 30.7769 16.2051C30.9369 16.102 31.122 16.0447 31.3122 16.0395C32.3087 16.0395 32.496 17.1995 32.496 18.1297C32.496 19.692 32.0213 22.0651 31.213 24.7723C29.7938 20.9994 29.7007 17.8427 30.4098 16.6245H30.4048ZM25.1936 39.2326C22.7789 43.3033 20.4572 45.8281 19.033 45.8281C18.7566 45.8281 18.5162 45.7288 18.3289 45.5871C18.0425 45.2942 17.9013 44.9549 17.9954 44.5677C18.2819 43.1097 20.9841 41.0718 25.1996 39.2315L25.1936 39.2326Z" fill="url(#paint2_linear_576_15)" stroke="url(#paint3_linear_576_15)" stroke-width="1.4"/>
<defs>
<linearGradient id="paint0_linear_576_15" x1="37.0806" y1="60" x2="37.0806" y2="4" gradientUnits="userSpaceOnUse">
<stop stop-color="#A70000"/>
<stop offset="1" stop-color="#FF0000"/>
</linearGradient>
<linearGradient id="paint1_linear_576_15" x1="8.55085" y1="47.7449" x2="8.55085" y2="15.7449" gradientUnits="userSpaceOnUse">
<stop stop-color="#7500D0"/>
<stop offset="1" stop-color="#E714FA"/>
</linearGradient>
<linearGradient id="paint2_linear_576_15" x1="33" y1="47" x2="33" y2="15" gradientUnits="userSpaceOnUse">
<stop stop-color="#A70000"/>
<stop offset="1" stop-color="#FF0000"/>
</linearGradient>
<linearGradient id="paint3_linear_576_15" x1="33" y1="47" x2="33" y2="15" gradientUnits="userSpaceOnUse">
<stop stop-color="#A70000"/>
<stop offset="1" stop-color="#FF0000"/>
</linearGradient>
</defs>
</svg>
