<svg width="192" height="192" viewBox="0 0 192 192" fill="none" xmlns="http://www.w3.org/2000/svg">
<path d="M23.7194 17.9912C28.5821 15.6183 34.1565 15.8675 39.4101 16.2364C39.9114 20.2444 35.9712 22.2982 33.6753 24.9104C26.9679 31.2114 20.8721 38.1905 13.8639 44.1426C10.3548 44.671 11.0666 40.3739 11.0466 38.1905C10.826 29.7458 15.9393 21.4408 23.7194 17.9912Z" fill="url(#paint0_linear_678_319)"/>
<path d="M48.1723 23.371C51.2603 20.2304 55.5615 18.3561 60.003 18.3561C69.1467 18.2364 78.3004 18.3561 87.4542 18.3162C82.4111 20.37 79.5537 25.1756 75.5934 28.5853C71.3825 29.3431 67.0613 29.2633 62.8604 30.1407C56.2532 30.9183 51.9421 36.362 47.5407 40.6989C43.5904 44.7368 39.4296 48.5753 35.5395 52.6829C32.6119 55.7338 31.108 59.9312 31.1381 64.1286C31.0579 71.3469 31.1782 78.5652 31.108 85.7835C26.7868 90.0008 23.6487 95.2152 19.3776 99.4724C19.3475 85.7037 19.2874 71.9251 19.3977 58.1565C19.4578 53.5802 21.7538 49.333 25.0824 46.2722C32.7924 38.6551 40.4623 30.9981 48.1723 23.371Z" fill="url(#paint1_linear_678_319)"/>
<path d="M87.4551 18.3162C101.823 18.2962 116.2 18.3062 130.577 18.3162C125.705 20.5495 122.005 24.5873 119.228 29.0539C130.647 29.6721 142.197 28.3859 153.537 30.1407C123.318 30.0111 93.0797 30.0011 62.8613 30.1407C67.0622 29.2633 71.3834 29.3431 75.5943 28.5853C79.5546 25.1756 82.412 20.37 87.4551 18.3162Z" fill="url(#paint2_linear_678_319)"/>
<path d="M130.576 18.3162C138.186 18.3461 145.806 18.1766 153.425 18.4259C159.872 18.6153 165.778 21.7957 170.369 26.1427C167.612 29.1935 164.925 32.374 163.281 36.1825C161.938 34.5873 160.434 33.1317 158.819 31.8256C157.125 31.0679 155.371 30.4398 153.536 30.1407C142.196 28.3859 130.646 29.6721 119.227 29.0539C122.004 24.5873 125.704 20.5495 130.576 18.3162Z" fill="url(#paint3_linear_678_319)"/>
<path d="M163.281 36.1825C164.925 32.374 167.612 29.1935 170.369 26.1427C172.515 29.014 174.721 31.9652 175.834 35.4148C177.287 40.5494 176.967 45.9133 176.977 51.1775C176.946 63.3609 177.007 75.5443 176.946 87.7277C172.214 91.5163 169.216 96.8503 165.176 101.277C165.146 82.2342 165.176 63.1814 165.176 44.1386C165.216 41.3769 164.514 38.6551 163.281 36.1825Z" fill="url(#paint4_linear_678_319)"/>
<path d="M19.3783 99.4724C23.6494 95.2152 26.7875 90.0008 31.1087 85.7835C31.1288 93.1913 31.1589 100.589 31.0887 107.997C31.0987 111.696 30.9884 115.454 31.9208 119.073C33.0437 122.483 35.821 125.016 38.8989 126.711C36.2521 128.685 33.906 131.008 31.8507 133.59C32.4422 134.776 33.0337 135.973 33.6152 137.169C25.815 133.42 20.1804 125.594 19.4886 116.97C19.1577 111.137 19.4184 105.305 19.3783 99.4724Z" fill="url(#paint5_linear_678_319)"/>
<path d="M123.608 90.4096C128.832 84.2182 139.519 84.4974 144.412 90.948C148.382 95.4844 147.419 101.855 147.539 107.399C138.395 107.359 129.253 107.438 120.099 107.349C120.169 101.616 119.217 94.936 123.608 90.4096Z" fill="url(#paint6_linear_678_319)"/>
<path d="M165.176 101.277C169.216 96.8503 172.214 91.5163 176.946 87.7277C176.997 107.448 176.946 127.169 176.987 146.88C177.007 150.15 176.716 153.42 176.054 156.631C173.728 162.393 169.868 167.737 164.304 170.768C160.404 173.071 155.842 173.949 151.35 173.949C138.958 173.998 126.556 173.879 114.164 173.998C117.101 170.23 119.818 166.282 122.445 162.294C132.381 162.274 142.307 162.334 152.232 162.274C158.298 162.403 163.983 157.648 164.925 151.695C165.507 146.501 164.955 141.267 165.186 136.052C164.705 136.252 163.732 136.661 163.241 136.86C157.867 139.402 151.871 139.702 146.026 139.502C148.342 135.494 150.618 131.436 153.405 127.708C159.15 127.04 164.334 122.493 164.985 116.661C165.437 111.546 165.056 106.402 165.176 101.277Z" fill="url(#paint7_linear_678_319)"/>
<path d="M31.8496 133.59C33.9049 131.008 36.251 128.685 38.8978 126.711C41.5046 127.558 44.2517 127.817 46.9888 127.787C57.3858 127.737 67.7827 127.757 78.1897 127.747C75.2521 131.516 72.5451 135.454 69.9684 139.482C61.316 139.512 52.6535 139.502 44.0011 139.333C40.5521 139.313 37.2034 138.405 33.8648 137.668L33.6141 137.169C33.0326 135.973 32.4411 134.776 31.8496 133.59Z" fill="url(#paint8_linear_678_319)"/>
<path d="M78.19 127.747C90.913 127.757 103.636 127.757 116.359 127.737C113.672 131.506 111.406 135.534 109.02 139.482C96.0062 139.492 82.9825 139.492 69.9688 139.482C72.5454 135.454 75.2524 131.516 78.19 127.747Z" fill="url(#paint9_linear_678_319)"/>
<path d="M116.359 127.737C128.701 127.728 141.053 127.817 153.405 127.708C150.618 131.436 148.342 135.494 146.026 139.502C133.694 139.472 121.352 139.502 109.02 139.482C111.406 135.534 113.672 131.506 116.359 127.737Z" fill="url(#paint10_linear_678_319)"/>
<path d="M98.4934 153.022C98.5536 148.106 105.471 145.793 108.629 149.492C112.118 152.792 108.399 158.844 112.128 161.805C115.457 162.782 119.026 162.124 122.445 162.294C119.818 166.282 117.101 170.23 114.164 173.998C110.815 174.018 107.426 173.849 104.198 172.882C102.824 171.875 101.601 170.688 100.438 169.452C97.3605 164.557 98.5335 158.485 98.4934 153.022Z" fill="url(#paint11_linear_678_319)"/>
<path d="M87.4544 18.3162C78.3006 18.3561 69.1469 18.2364 60.0032 18.3561C55.5617 18.3561 51.2605 20.2304 48.1725 23.371C40.4625 30.9981 32.7926 38.6551 25.0826 46.2722C21.754 49.333 19.458 53.5802 19.3979 58.1565C19.2876 71.9251 19.3477 85.7037 19.3778 99.4724M87.4544 18.3162C82.499 20.3343 79.654 25.0092 75.7993 28.4061C75.6653 28.5242 75.5009 28.6023 75.3248 28.6325C71.199 29.3402 66.9722 29.282 62.8606 30.1407M87.4544 18.3162C101.822 18.2962 116.199 18.3062 130.576 18.3162M19.3778 99.4724C23.6489 95.2152 26.787 90.0008 31.1082 85.7835M19.3778 99.4724C19.4179 105.305 19.1572 111.137 19.4881 116.97C20.1799 125.594 25.8145 133.42 33.6147 137.169M62.8606 30.1407C56.2534 30.9183 51.9423 36.362 47.5409 40.6989C43.5906 44.7368 39.4298 48.5753 35.5397 52.6829C32.6121 55.7338 31.1082 59.9312 31.1383 64.1286C31.0581 71.3469 31.1784 78.5652 31.1082 85.7835M62.8606 30.1407C93.079 30.0011 123.317 30.0111 153.536 30.1407M130.576 18.3162C126.225 20.3108 122.808 23.7448 120.149 27.6381C119.721 28.2659 120.155 29.1026 120.915 29.132C131.783 29.5528 142.754 28.4723 153.536 30.1407M130.576 18.3162C138.186 18.3461 145.806 18.1766 153.425 18.4259C159.872 18.6153 165.778 21.7957 170.369 26.1427M31.1082 85.7835C31.1283 93.1913 31.1584 100.589 31.0882 107.997C31.0982 111.696 30.9879 115.454 31.9203 119.073C33.0432 122.483 35.8205 125.016 38.8984 126.711M153.536 30.1407C155.328 30.4328 157.043 31.0387 158.7 31.7726C158.779 31.8076 158.853 31.8531 158.92 31.9078C160.497 33.1927 161.966 34.6207 163.281 36.1825M38.8984 126.711C36.4221 128.558 34.209 130.71 32.251 133.094C32.0042 133.395 31.9612 133.812 32.1343 134.161C32.6309 135.159 33.1263 136.165 33.6147 137.169M38.8984 126.711C41.5052 127.558 44.2523 127.817 46.9894 127.787C57.3864 127.737 67.7833 127.757 78.1903 127.747M33.6147 137.169L33.6519 137.243C33.787 137.512 34.036 137.705 34.3296 137.771C37.5146 138.487 40.7125 139.314 44.0017 139.333C52.6541 139.502 61.3166 139.512 69.969 139.482M170.369 26.1427C167.612 29.1935 164.925 32.374 163.281 36.1825M170.369 26.1427C172.515 29.014 174.721 31.9652 175.834 35.4148C177.287 40.5494 176.967 45.9133 176.977 51.1775C176.946 63.3609 177.007 75.5443 176.946 87.7277M163.281 36.1825C164.514 38.6551 165.216 41.3769 165.176 44.1386C165.176 63.1814 165.146 82.2342 165.176 101.277M176.946 87.7277C172.214 91.5163 169.216 96.8503 165.176 101.277M176.946 87.7277C176.997 107.448 176.946 127.169 176.987 146.88C177.007 150.12 176.721 153.36 176.072 156.542C176.06 156.601 176.043 156.659 176.02 156.715C173.691 162.445 169.841 167.752 164.304 170.768C160.404 173.071 155.842 173.949 151.35 173.949C138.958 173.998 126.556 173.879 114.164 173.998M165.176 101.277C165.056 106.402 165.437 111.546 164.985 116.661C164.334 122.493 159.15 127.04 153.405 127.708M114.164 173.998C117.101 170.23 119.818 166.282 122.445 162.294M114.164 173.998C110.872 174.018 107.542 173.855 104.363 172.931C104.254 172.899 104.151 172.848 104.059 172.779C102.768 171.814 101.608 170.692 100.505 169.523C100.46 169.476 100.42 169.424 100.386 169.369C97.3733 164.489 98.5329 158.454 98.493 153.022C98.5532 148.106 105.471 145.793 108.629 149.492C112.069 152.746 108.502 158.675 111.976 161.679C112.073 161.763 112.192 161.824 112.316 161.858C115.591 162.758 119.09 162.127 122.445 162.294M153.405 127.708C150.618 131.436 148.342 135.494 146.026 139.502M153.405 127.708C141.053 127.817 128.701 127.728 116.359 127.737M78.1903 127.747C75.2527 131.516 72.5457 135.454 69.969 139.482M78.1903 127.747C90.9133 127.757 103.636 127.757 116.359 127.737M69.969 139.482C82.9828 139.492 96.0065 139.492 109.02 139.482M122.445 162.294C132.381 162.274 142.307 162.334 152.232 162.274C158.298 162.403 163.983 157.648 164.925 151.695C165.449 147.023 165.054 142.318 165.138 137.624C165.151 136.892 164.41 136.377 163.734 136.657C163.547 136.735 163.376 136.805 163.241 136.86C157.867 139.402 151.871 139.702 146.026 139.502M146.026 139.502C133.694 139.472 121.352 139.502 109.02 139.482M109.02 139.482C111.406 135.534 113.672 131.506 116.359 127.737M22.7194 15.9912C27.3298 13.7414 32.58 13.8487 37.59 14.1803C38.0667 14.2119 38.4642 14.5802 38.452 15.0578C38.3626 18.5375 34.8089 20.4828 32.6753 22.9104C26.0371 29.1464 19.998 36.0465 13.0806 41.958C12.9391 42.0789 12.7653 42.1608 12.5799 42.1757C9.39396 42.4328 10.066 38.313 10.0466 36.1905C9.826 27.7458 14.9393 19.4408 22.7194 15.9912ZM123.608 90.4096C128.832 84.2182 139.519 84.4974 144.412 90.948C148.139 95.2069 147.519 101.082 147.529 106.373C147.53 106.935 147.076 107.397 146.514 107.395C138.046 107.366 129.578 107.43 121.101 107.358C120.548 107.353 120.105 106.9 120.102 106.347C120.077 100.852 119.471 94.6746 123.608 90.4096Z" stroke="url(#paint12_linear_678_319)" stroke-width="8"/>
<defs>
<linearGradient id="paint0_linear_678_319" x1="96" y1="18" x2="96" y2="174" gradientUnits="userSpaceOnUse">
<stop stop-color="#97EB0E"/>
<stop offset="1" stop-color="#19B90B"/>
</linearGradient>
<linearGradient id="paint1_linear_678_319" x1="95.9998" y1="18" x2="95.9998" y2="174" gradientUnits="userSpaceOnUse">
<stop stop-color="#97EB0E"/>
<stop offset="1" stop-color="#19B90B"/>
</linearGradient>
<linearGradient id="paint2_linear_678_319" x1="96.0007" y1="18" x2="96.0007" y2="174" gradientUnits="userSpaceOnUse">
<stop stop-color="#97EB0E"/>
<stop offset="1" stop-color="#19B90B"/>
</linearGradient>
<linearGradient id="paint3_linear_678_319" x1="95.9996" y1="18" x2="95.9996" y2="174" gradientUnits="userSpaceOnUse">
<stop stop-color="#97EB0E"/>
<stop offset="1" stop-color="#19B90B"/>
</linearGradient>
<linearGradient id="paint4_linear_678_319" x1="96.0003" y1="18" x2="96.0003" y2="174" gradientUnits="userSpaceOnUse">
<stop stop-color="#97EB0E"/>
<stop offset="1" stop-color="#19B90B"/>
</linearGradient>
<linearGradient id="paint5_linear_678_319" x1="96.0005" y1="18" x2="96.0005" y2="174" gradientUnits="userSpaceOnUse">
<stop stop-color="#97EB0E"/>
<stop offset="1" stop-color="#19B90B"/>
</linearGradient>
<linearGradient id="paint6_linear_678_319" x1="95.9995" y1="18" x2="95.9995" y2="174" gradientUnits="userSpaceOnUse">
<stop stop-color="#97EB0E"/>
<stop offset="1" stop-color="#19B90B"/>
</linearGradient>
<linearGradient id="paint7_linear_678_319" x1="96.0001" y1="18" x2="96.0001" y2="174" gradientUnits="userSpaceOnUse">
<stop stop-color="#97EB0E"/>
<stop offset="1" stop-color="#19B90B"/>
</linearGradient>
<linearGradient id="paint8_linear_678_319" x1="95.9994" y1="18" x2="95.9994" y2="174" gradientUnits="userSpaceOnUse">
<stop stop-color="#97EB0E"/>
<stop offset="1" stop-color="#19B90B"/>
</linearGradient>
<linearGradient id="paint9_linear_678_319" x1="95.9998" y1="18" x2="95.9998" y2="174" gradientUnits="userSpaceOnUse">
<stop stop-color="#97EB0E"/>
<stop offset="1" stop-color="#19B90B"/>
</linearGradient>
<linearGradient id="paint10_linear_678_319" x1="95.9995" y1="18" x2="95.9995" y2="174" gradientUnits="userSpaceOnUse">
<stop stop-color="#97EB0E"/>
<stop offset="1" stop-color="#19B90B"/>
</linearGradient>
<linearGradient id="paint11_linear_678_319" x1="96.0004" y1="18" x2="96.0004" y2="174" gradientUnits="userSpaceOnUse">
<stop stop-color="#97EB0E"/>
<stop offset="1" stop-color="#19B90B"/>
</linearGradient>
<linearGradient id="paint12_linear_678_319" x1="96" y1="18" x2="96" y2="174" gradientUnits="userSpaceOnUse">
<stop stop-color="#97EB0E"/>
<stop offset="1" stop-color="#19B90B"/>
</linearGradient>
</defs>
</svg>
