<svg width="192" height="192" viewBox="0 0 192 192" fill="none" xmlns="http://www.w3.org/2000/svg">
<path d="M10.1044 32.3885C13.3066 29.0784 18.1996 28.0294 22.7334 28.06C74.8767 28.0905 127.01 28.06 179.143 28.0192C183.517 27.6628 187.238 32.3274 185.61 36.2791C184.659 39.3346 181.235 40.6993 178.17 40.6178C129.546 40.6484 80.9218 40.6178 32.2976 40.6383C27.859 40.6586 23.3992 40.5058 18.9606 40.8216C18.7809 42.7567 18.6646 44.6918 18.6646 46.6371C18.6963 81.6016 18.633 116.567 18.6963 151.531C18.8654 154.464 18.2102 158.029 15.0609 159.312C11.0556 161.553 5.67637 157.968 6.04626 153.629C5.95115 117.279 6.03569 80.9192 6.01455 44.5594C5.95115 40.241 6.87057 35.5866 10.1044 32.3885Z" fill="url(#paint0_linear)" stroke="url(#paint1_linear)" stroke-width="4"/>
<path d="M155.273 60.606C160.623 55.7708 168.579 53.444 175.422 56.2832C181.863 58.6527 185.571 65.6119 185.72 72.2829C186.08 93.2672 185.529 114.262 185.879 135.247C185.953 143.241 181.916 150.926 175.772 155.868C169.744 160.831 161.936 163.361 154.192 163.307C115.726 163.318 77.2483 163.318 38.7817 163.307C36.4192 163.617 34.5229 162.048 32.8914 160.554C29.9993 156.829 32.9656 150.574 37.7223 150.713C76.1783 150.585 114.645 150.723 153.101 150.627C159.542 150.734 166.396 148.525 170.464 143.241C172.774 140.402 173.357 136.634 173.261 133.069C173.219 112.811 173.272 92.5521 173.102 72.2936C173.314 69.7213 171.132 68.2376 169.024 67.4264C166.947 68.1629 164.839 68.9634 163.197 70.5004C146.564 85.0699 129.964 99.693 113.299 114.23C108.32 118.617 101.625 121.446 94.9296 120.57C89.7703 119.951 85.1196 117.133 81.5706 113.408C66.9298 98.561 52.289 83.725 37.6269 68.9101V68.9101C36.0351 67.2072 36.2907 64.7311 37.9177 63.0619C38.1279 62.8463 38.3397 62.6321 38.553 62.4193C41.464 59.5138 46.2187 59.6544 49.1281 62.5614C63.0163 76.4388 76.6617 90.5748 90.5331 104.475C92.5671 106.385 95.0991 108.242 98.0336 108.018C100.905 107.901 103.288 106.086 105.418 104.314C122.039 89.7556 138.63 75.1328 155.273 60.606Z" fill="url(#paint2_linear)" stroke="url(#paint3_linear)" stroke-width="4"/>
<defs>
<linearGradient id="paint0_linear" x1="6" y1="160" x2="196.988" y2="46.4866" gradientUnits="userSpaceOnUse">
<stop stop-color="#0357D1"/>
<stop offset="1" stop-color="#27CDFC"/>
</linearGradient>
<linearGradient id="paint1_linear" x1="6" y1="160" x2="196.988" y2="46.4866" gradientUnits="userSpaceOnUse">
<stop stop-color="#0357D1"/>
<stop offset="1" stop-color="#27CDFC"/>
</linearGradient>
<linearGradient id="paint2_linear" x1="31.7498" y1="163.347" x2="191.562" y2="64.2108" gradientUnits="userSpaceOnUse">
<stop stop-color="#0357D1"/>
<stop offset="1" stop-color="#27CDFC"/>
</linearGradient>
<linearGradient id="paint3_linear" x1="31.7498" y1="163.347" x2="191.562" y2="64.2108" gradientUnits="userSpaceOnUse">
<stop stop-color="#0357D1"/>
<stop offset="1" stop-color="#27CDFC"/>
</linearGradient>
</defs>
</svg>
