<svg width="64" height="64" viewBox="0 0 64 64" fill="none" xmlns="http://www.w3.org/2000/svg">
<path d="M39.184 0.213826C39.7935 -0.094974 40.495 -0.0367941 41.122 0.182499C47.6592 2.15166 53.5343 6.31822 57.625 11.8811C64.8725 21.5076 66.0607 35.3678 60.5714 46.14C57.3225 52.6785 51.8595 58.049 45.3047 61.0654C38.6053 64.1892 30.8448 64.847 23.7289 62.9047C16.1043 60.864 9.3128 55.8113 5.05551 49.0445C-1.63078 38.6885 -1.70093 24.3942 4.94151 14.0024C9.01905 7.42811 15.4642 2.36648 22.8081 0.236204C24.4479 -0.242661 26.1622 1.43113 25.8422 3.11834C25.7106 4.17005 24.8907 4.98457 23.8911 5.20386C17.6827 7.14617 12.2679 11.5007 8.90067 17.162C5.24404 23.1859 4.08216 30.7 5.66933 37.5921C7.12935 44.2514 11.1806 50.2395 16.6962 54.0748C22.111 57.9147 28.9376 59.584 35.466 58.6845C42.4899 57.8118 49.0797 53.9451 53.3809 48.2166C57.9846 42.242 59.9312 34.2535 58.6203 26.7751C57.0814 16.9114 49.7549 8.32319 40.438 5.32022C39.6137 5.00247 38.6009 4.84135 38.123 3.98656C37.268 2.74241 37.7898 0.786673 39.184 0.213826Z" fill="url(#paint0_linear)"/>
<path d="M17.8318 13.8368C17.5731 11.4828 20.5457 10.3058 22.1592 11.7871C30.6037 16.7816 39.0788 21.7224 47.5188 26.7169C50.1539 28.0953 50.2109 32.3783 47.6065 33.8193C38.9429 38.9973 30.266 44.1574 21.5805 49.2951C20.1599 50.2573 17.9633 49.2146 17.8668 47.4558C17.7835 43.7233 17.8405 39.9864 17.8405 36.2495C17.7572 35.1351 18.5377 34.24 19.4584 33.7701C22.7555 31.8725 26 29.8765 29.319 28.0193C30.7571 27.2092 32.7213 28.3146 32.866 29.975C33.0283 31.0446 32.4188 32.0963 31.4937 32.5797C28.6131 34.3027 25.7062 35.9765 22.8169 37.6905C22.8169 39.3509 22.8169 41.0112 22.8213 42.6716C29.7575 38.5498 36.6893 34.428 43.6211 30.3017C36.6893 26.2246 29.7531 22.1476 22.8213 18.0705C22.8213 19.6772 22.8213 21.2794 22.8037 22.886C23.8954 23.5842 25.4169 24.1123 25.7194 25.5533C26.1841 27.2674 24.4917 29.0441 22.7993 28.619C21.4796 28.1401 20.3046 27.3166 19.1032 26.5961C18.2395 26.1351 17.7528 25.155 17.8318 24.1704C17.8274 20.7244 17.823 17.2784 17.8318 13.8368Z" fill="url(#paint1_linear)"/>
<defs>
<linearGradient id="paint0_linear" x1="31.9999" y1="0" x2="31.9999" y2="64" gradientUnits="userSpaceOnUse">
<stop stop-color="#00FFE0"/>
<stop offset="1" stop-color="#078AA7"/>
</linearGradient>
<linearGradient id="paint1_linear" x1="33.6719" y1="11.1315" x2="33.6719" y2="49.6617" gradientUnits="userSpaceOnUse">
<stop stop-color="#00FFE0"/>
<stop offset="1" stop-color="#078AA7"/>
</linearGradient>
</defs>
</svg>
