<svg width="64" height="64" viewBox="0 0 64 64" fill="none" xmlns="http://www.w3.org/2000/svg">
<path d="M43.9999 24.0018L44 26.5018L43.9999 24.0018ZM49.7188 34.2497L47.2381 33.9396L49.7188 34.2497ZM49.2188 38.2495L51.6995 38.5596L49.2188 38.2495ZM55.8 1.5H8.2V6.5H55.8V1.5ZM62.5 8.2C62.5 4.49969 59.5003 1.5 55.8 1.5V6.5C56.7389 6.5 57.5 7.26112 57.5 8.2H62.5ZM62.5 55.8V8.2H57.5V55.8H62.5ZM55.8 62.5C59.5003 62.5 62.5 59.5003 62.5 55.8H57.5C57.5 56.7389 56.7389 57.5 55.8 57.5V62.5ZM44 62.5H55.8V57.5H44V62.5ZM44.5 58V42.0014H39.5V58H44.5ZM44 42.5014H47.2343V37.5014H44V42.5014ZM51.6995 38.5596L52.1995 34.5598L47.2381 33.9396L46.7381 37.9394L51.6995 38.5596ZM47.7343 29.5016H44V34.5016H47.7343V29.5016ZM44.5 30.0016V26.0017H39.5V30.0016H44.5ZM44.5 26.0017C44.5 25.9613 44.5048 25.9756 44.4897 26.0284C44.4741 26.0832 44.4437 26.1556 44.3926 26.2323C44.2872 26.3904 44.1646 26.4646 44.118 26.4878C44.0812 26.5062 44.0747 26.503 44.0985 26.499C44.1155 26.4962 44.0974 26.5018 44 26.5018L43.9999 21.5018C43.8722 21.5018 42.9043 21.5045 41.8819 22.0157C41.3353 22.289 40.7127 22.7382 40.2323 23.4588C39.7415 24.195 39.5 25.0643 39.5 26.0017H44.5ZM43.9999 26.5018H47.9998V21.5018H43.9999V26.5018ZM52.4998 22.0018V18.002H47.4998V22.0018H52.4998ZM47.9998 13.502H42V18.502H47.9998V13.502ZM42 16.002C42 13.502 41.9987 13.502 41.9975 13.502C41.997 13.502 41.9957 13.502 41.9947 13.502C41.9928 13.502 41.9908 13.502 41.9887 13.502C41.9844 13.502 41.9796 13.502 41.9743 13.5021C41.9638 13.5021 41.9512 13.5023 41.9367 13.5025C41.9077 13.503 41.8709 13.5038 41.8269 13.5053C41.7388 13.5082 41.6212 13.5137 41.4781 13.5239C41.1929 13.5443 40.8018 13.5838 40.339 13.661C39.4253 13.8133 38.1688 14.1225 36.882 14.7659C35.5855 15.4141 34.2129 16.4258 33.17 17.9901C32.1167 19.5701 31.5002 21.5644 31.5002 24.0018H36.5002C36.5002 22.4393 36.8836 21.4336 37.3303 20.7636C37.7874 20.078 38.4147 19.5897 39.1181 19.238C39.8313 18.8814 40.5748 18.6906 41.161 18.5929C41.4482 18.5451 41.6821 18.5221 41.8344 18.5112C41.9101 18.5058 41.9643 18.5035 41.9934 18.5025C42.008 18.502 42.0161 18.5019 42.0174 18.5019C42.018 18.5019 42.0169 18.5019 42.014 18.5019C42.0126 18.5019 42.0107 18.5019 42.0084 18.5019C42.0072 18.5019 42.0059 18.5019 42.0045 18.5019C42.0038 18.502 42.0027 18.502 42.0023 18.502C42.0012 18.502 42 18.502 42 16.002ZM31.5002 24.0018V30.0016H36.5002V24.0018H31.5002ZM32.0002 29.5016H30.0003V34.5016H32.0002V29.5016ZM25.5003 34.0016V38.0014H30.5003V34.0016H25.5003ZM30.0003 42.5014H32.0002V37.5014H30.0003V42.5014ZM31.5002 42.0014V58H36.5002V42.0014H31.5002ZM8.2 62.5H32.0002V57.5H8.2V62.5ZM1.5 55.8C1.5 59.5003 4.49969 62.5 8.2 62.5V57.5C7.26112 57.5 6.5 56.7389 6.5 55.8H1.5ZM1.5 8.2V55.8H6.5V8.2H1.5ZM8.2 1.5C4.49969 1.5 1.5 4.49969 1.5 8.2H6.5C6.5 7.26112 7.26112 6.5 8.2 6.5V1.5ZM31.5002 58C31.5002 57.7239 31.724 57.5 32.0002 57.5V62.5C34.4854 62.5 36.5002 60.4853 36.5002 58H31.5002ZM32.0002 42.5014C31.724 42.5014 31.5002 42.2776 31.5002 42.0014H36.5002C36.5002 39.5162 34.4854 37.5014 32.0002 37.5014V42.5014ZM25.5003 38.0014C25.5003 40.4867 27.515 42.5014 30.0003 42.5014V37.5014C30.2764 37.5014 30.5003 37.7253 30.5003 38.0014H25.5003ZM42 18.502C42 18.502 42 18.502 42 18.502C42 18.502 42 18.502 42 18.502C42 18.502 42 18.502 42 18.502C42 18.502 42 18.502 42 18.502C42 18.502 42 18.502 42 18.502C42 18.502 42 18.502 42 18.502C42 18.502 42 18.502 42 18.502C42 18.502 42 18.502 42 18.502C42 18.502 42 18.502 42 18.502C42 18.502 42 18.502 42 18.502C42 18.502 42 18.502 42 18.502C42 18.502 42 18.502 42 18.502C42 18.502 42 18.502 42 18.502C42 18.502 42 18.502 42 18.502C42 18.502 42 18.502 42 18.502C42 18.502 42 18.502 42 18.502C42 18.502 42 18.502 42 18.502C42 18.502 42 18.502 42 18.502C42 18.502 42 18.502 42 18.502C42 18.502 42 18.502 42 18.502C42 18.502 42 18.502 42 18.502C42 18.502 42 18.502 42 18.502C42 18.502 42 18.502 42 18.502C42 18.502 42 18.502 42 18.502C42 18.502 42 18.502 42 18.502C42 18.502 42 18.502 42 18.502C42 18.502 42 18.502 42 18.502C42 18.502 42 18.502 42 18.502C42 18.502 42 18.502 42 18.502C42 18.502 42 18.502 42 18.502C42 18.502 42 18.502 42 18.502C42 18.502 42 18.502 42 18.502C42 18.502 42 18.502 42 18.502C42 18.502 42 18.502 42 18.502C42 18.502 42 18.502 42 18.502C42 18.502 42 18.502 42 18.502C42 18.502 42 18.502 42 18.502C42 18.502 42 18.502 42 18.502C42 18.502 42 18.502 42 18.502C42 18.502 42 18.502 42 18.502C42 18.502 42 18.502 42 18.502C42 18.502 42 18.502 42 18.502C42 18.502 42 18.502 42 18.502C42 18.502 42 18.502 42 18.502C42 18.502 42 18.502 42 18.502C42 18.502 42 18.502 42 18.502C42 18.502 42 18.502 42 18.502C42 18.502 42 18.502 42 18.502C42 18.502 42 18.502 42 18.502C42 18.502 42 18.502 42 18.502C42 18.502 42 18.502 42 18.502C42 18.502 42 18.502 42 18.502C42 18.502 42 18.502 42 18.502C42 18.502 42 18.502 42 18.502C42 18.502 42 18.502 42 18.502C42 18.502 42 18.502 42 18.502C42 18.502 42 18.502 42 18.502C42 18.502 42 18.502 42 18.502C42 18.502 42 18.502 42 18.502C42 18.502 42 18.502 42 18.502C42 18.502 42 18.502 42 18.502C42 18.502 42 18.502 42 18.502C42 18.502 42 18.502 42 18.502C42 18.502 42 18.502 42 18.502C42 18.502 42 18.502 42 18.502C42 18.502 42 18.502 42 18.502C42 18.502 42 18.502 42 18.502C42 18.502 42 18.502 42 18.502C42 18.502 42 18.502 42 18.502C42 18.502 42 18.502 42 18.502C42 18.502 42 18.502 42 18.502C42 18.502 42 18.502 42 18.502C42 18.502 42 18.502 42 18.502C42 18.502 42 18.502 42 18.502C42 18.502 42 18.502 42 18.502C42 18.502 42 18.502 42 18.502C42 18.502 42 18.502 42 18.502C42 18.502 42 18.502 42 18.502C42 18.502 42 18.502 42 18.502C42 18.502 42 18.502 42 18.502C42 18.502 42 18.502 42 18.502C42 18.502 42 18.502 42 18.502C42 18.502 42 18.502 42 18.502C42 18.502 42 18.502 42 18.502C42 18.502 42 18.502 42 18.502C42 18.502 42 18.502 42 18.502C42 18.502 42 18.502 42 18.502C42 18.502 42 18.502 42 18.502C42 18.502 42 18.502 42 18.502C42 18.502 42 18.502 42 18.502C42 18.502 42 18.502 42 18.502C42 18.502 42 18.502 42 18.502C42 18.502 42 18.502 42 18.502C42 18.502 42 18.502 42 18.502C42 18.502 42 18.502 42 18.502C42 18.502 42 18.502 42 18.502C42 18.502 42 18.502 42 18.502C42 18.502 42 18.502 42 18.502C42 18.502 42 18.502 42 18.502C42 18.502 42 18.502 42 18.502C42 18.502 42 18.502 42 18.502C42 18.502 42 18.502 42 18.502C42 18.502 42 18.502 42 18.502C42 18.502 42 18.502 42 18.502C42 18.502 42 18.502 42 18.502C42 18.502 42 18.502 42 18.502C42 18.502 42 18.502 42 18.502C42 18.502 42 18.502 42 18.502C42 18.502 42 18.502 42 18.502C42 18.502 42 18.502 42 18.502C42 18.502 42 18.502 42 18.502C42 18.502 42 18.502 42 18.502C42 18.502 42 18.502 42 18.502C42 18.502 42 18.502 42 18.502C42 18.502 42 18.502 42 18.502C42 18.502 42 18.502 42 18.502C42 18.502 42 18.502 42 18.502C42 18.502 42 18.502 42 18.502C42 18.502 42 18.502 42 18.502C42 18.502 42 18.502 42 18.502C42 18.502 42 18.502 42 18.502C42 18.502 42 18.502 42 18.502C42 18.502 42 18.502 42 18.502C42 18.502 42 18.502 42 18.502C42 18.502 42 18.502 42 18.502C42 18.502 42 18.502 42 18.502C42 18.502 42 18.502 42 18.502C42 18.502 42 18.502 42 18.502C42 18.502 42 18.502 42 18.502C42 18.502 42 18.502 42 18.502C42 18.502 42 18.502 42 18.502C42 18.502 42 18.502 42 18.502C42 18.502 42 18.502 42 18.502C42 18.502 42 18.502 42 18.502C42 18.502 42 18.502 42 18.502C42 18.502 42 18.502 42 18.502C42 18.502 42 18.502 42 18.502C42 18.502 42 18.502 42 18.502C42 18.502 42 18.502 42 18.502C42 18.502 42 18.502 42 18.502C42 18.502 42 18.502 42 18.502C42 18.502 42 18.502 42 18.502C42 18.502 42 18.502 42 18.502C42 18.502 42 18.502 42 18.502C42 18.502 42 18.502 42 18.502C42 18.502 42 18.502 42 18.502C42 18.502 42 18.502 42 18.502C42 18.502 42 18.502 42 18.502C42 18.502 42 18.502 42 18.502C42 18.502 42 18.502 42 18.502C42 18.502 42 18.502 42 18.502C42 18.502 42 18.502 42 18.502C42 18.502 42 18.502 42 18.502C42 18.502 42 18.502 42 18.502C42 18.502 42 18.502 42 18.502C42 18.502 42 18.502 42 18.502C42 18.502 42 18.502 42 18.502C42 18.502 42 18.502 42 18.502C42 18.502 42 18.502 42 18.502C42 18.502 42 18.502 42 18.502C42 18.502 42 18.502 42 18.502C42 18.502 42 18.502 42 18.502C42 18.502 42 18.502 42 18.502C42 18.502 42 18.502 42 18.502C42 18.502 42 18.502 42 18.502C42 18.502 42 18.502 42 18.502C42 18.502 42 18.502 42 18.502C42 18.502 42 18.502 42 18.502C42 18.502 42 18.502 42 18.502C42 18.502 42 18.502 42 18.502C42 18.502 42 16.002 42 13.502C42 13.502 42 13.502 42 13.502C42 13.502 42 13.502 42 13.502C42 13.502 42 13.502 42 13.502C42 13.502 42 13.502 42 13.502C42 13.502 42 13.502 42 13.502C42 13.502 42 13.502 42 13.502C42 13.502 42 13.502 42 13.502C42 13.502 42 13.502 42 13.502C42 13.502 42 13.502 42 13.502C42 13.502 42 13.502 42 13.502C42 13.502 42 13.502 42 13.502C42 13.502 42 13.502 42 13.502C42 13.502 42 13.502 42 13.502C42 13.502 42 13.502 42 13.502C42 13.502 42 13.502 42 13.502C42 13.502 42 13.502 42 13.502C42 13.502 42 13.502 42 13.502C42 13.502 42 13.502 42 13.502C42 13.502 42 13.502 42 13.502C42 13.502 42 13.502 42 13.502C42 13.502 42 13.502 42 13.502C42 13.502 42 13.502 42 13.502C42 13.502 42 13.502 42 13.502C42 13.502 42 13.502 42 13.502C42 13.502 42 13.502 42 13.502C42 13.502 42 13.502 42 13.502C42 13.502 42 13.502 42 13.502C42 13.502 42 13.502 42 13.502C42 13.502 42 13.502 42 13.502C42 13.502 42 13.502 42 13.502C42 13.502 42 13.502 42 13.502C42 13.502 42 13.502 42 13.502C42 13.502 42 13.502 42 13.502C42 13.502 42 13.502 42 13.502C42 13.502 42 13.502 42 13.502C42 13.502 42 13.502 42 13.502C42 13.502 42 13.502 42 13.502C42 13.502 42 13.502 42 13.502C42 13.502 42 13.502 42 13.502C42 13.502 42 13.502 42 13.502C42 13.502 42 13.502 42 13.502C42 13.502 42 13.502 42 13.502C42 13.502 42 13.502 42 13.502C42 13.502 42 13.502 42 13.502C42 13.502 42 13.502 42 13.502C42 13.502 42 13.502 42 13.502C42 13.502 42 13.502 42 13.502C42 13.502 42 13.502 42 13.502C42 13.502 42 13.502 42 13.502C42 13.502 42 13.502 42 13.502C42 13.502 42 13.502 42 13.502C42 13.502 42 13.502 42 13.502C42 13.502 42 13.502 42 13.502C42 13.502 42 13.502 42 13.502C42 13.502 42 13.502 42 13.502C42 13.502 42 13.502 42 13.502C42 13.502 42 13.502 42 13.502C42 13.502 42 13.502 42 13.502C42 13.502 42 13.502 42 13.502C42 13.502 42 13.502 42 13.502C42 13.502 42 13.502 42 13.502C42 13.502 42 13.502 42 13.502C42 13.502 42 13.502 42 13.502C42 13.502 42 13.502 42 13.502C42 13.502 42 13.502 42 13.502C42 13.502 42 13.502 42 13.502C42 13.502 42 13.502 42 13.502C42 13.502 42 13.502 42 13.502C42 13.502 42 13.502 42 13.502C42 13.502 42 13.502 42 13.502C42 13.502 42 13.502 42 13.502C42 13.502 42 13.502 42 13.502C42 13.502 42 13.502 42 13.502C42 13.502 42 13.502 42 13.502C42 13.502 42 13.502 42 13.502C42 13.502 42 13.502 42 13.502C42 13.502 42 13.502 42 13.502C42 13.502 42 13.502 42 13.502C42 13.502 42 13.502 42 13.502C42 13.502 42 13.502 42 13.502C42 13.502 42 13.502 42 13.502C42 13.502 42 13.502 42 13.502C42 13.502 42 13.502 42 13.502C42 13.502 42 13.502 42 13.502C42 13.502 42 13.502 42 13.502C42 13.502 42 13.502 42 13.502C42 13.502 42 13.502 42 13.502C42 13.502 42 13.502 42 13.502C42 13.502 42 13.502 42 13.502C42 13.502 42 13.502 42 13.502C42 13.502 42 13.502 42 13.502C42 13.502 42 13.502 42 13.502C42 13.502 42 13.502 42 13.502C42 13.502 42 13.502 42 13.502C42 13.502 42 13.502 42 13.502C42 13.502 42 13.502 42 13.502C42 13.502 42 13.502 42 13.502C42 13.502 42 13.502 42 13.502C42 13.502 42 13.502 42 13.502C42 13.502 42 13.502 42 13.502C42 13.502 42 13.502 42 13.502C42 13.502 42 13.502 42 13.502C42 13.502 42 13.502 42 13.502C42 13.502 42 13.502 42 13.502C42 13.502 42 13.502 42 13.502C42 13.502 42 13.502 42 13.502C42 13.502 42 13.502 42 13.502C42 13.502 42 13.502 42 13.502C42 13.502 42 13.502 42 13.502C42 13.502 42 13.502 42 13.502C42 13.502 42 13.502 42 13.502C42 13.502 42 13.502 42 13.502C42 13.502 42 13.502 42 13.502C42 13.502 42 13.502 42 13.502C42 13.502 42 13.502 42 13.502C42 13.502 42 13.502 42 13.502C42 13.502 42 13.502 42 13.502C42 13.502 42 13.502 42 13.502C42 13.502 42 13.502 42 13.502C42 13.502 42 13.502 42 13.502C42 13.502 42 13.502 42 13.502C42 13.502 42 13.502 42 13.502C42 13.502 42 13.502 42 13.502C42 13.502 42 13.502 42 13.502C42 13.502 42 13.502 42 13.502C42 13.502 42 13.502 42 13.502C42 13.502 42 13.502 42 13.502C42 13.502 42 13.502 42 13.502C42 13.502 42 13.502 42 13.502C42 13.502 42 13.502 42 13.502C42 13.502 42 13.502 42 13.502C42 13.502 42 13.502 42 13.502C42 13.502 42 13.502 42 13.502C42 13.502 42 13.502 42 13.502C42 13.502 42 13.502 42 13.502C42 13.502 42 13.502 42 13.502C42 13.502 42 13.502 42 13.502C42 13.502 42 13.502 42 13.502C42 13.502 42 13.502 42 13.502C42 13.502 42 13.502 42 13.502C42 13.502 42 13.502 42 13.502C42 13.502 42 13.502 42 13.502C42 13.502 42 13.502 42 13.502C42 13.502 42 13.502 42 13.502C42 13.502 42 13.502 42 13.502C42 13.502 42 13.502 42 13.502C42 13.502 42 13.502 42 13.502C42 13.502 42 13.502 42 13.502C42 13.502 42 13.502 42 13.502C42 13.502 42 13.502 42 13.502C42 13.502 42 13.502 42 13.502C42 13.502 42 13.502 42 13.502C42 13.502 42 13.502 42 13.502C42 13.502 42 13.502 42 13.502C42 13.502 42 13.502 42 13.502C42 13.502 42 13.502 42 13.502C42 13.502 42 13.502 42 13.502C42 13.502 42 13.502 42 13.502C42 13.502 42 13.502 42 13.502C42 13.502 42 13.502 42 13.502C42 13.502 42 13.502 42 13.502C42 13.502 42 13.502 42 13.502C42 13.502 42 13.502 42 13.502C42 13.502 42 13.502 42 13.502C42 13.502 42 13.502 42 13.502C42 13.502 42 13.502 42 13.502C42 13.502 42 13.502 42 13.502C42 13.502 42 13.502 42 13.502C42 13.502 42 13.502 42 13.502C42 13.502 42 13.502 42 13.502C42 13.502 42 13.502 42 13.502C42 13.502 42 13.502 42 13.502C42 13.502 42 13.502 42 13.502C42 13.502 42 13.502 42 13.502C42 13.502 42 13.502 42 13.502C42 13.502 42 13.502 42 13.502C42 13.502 42 13.502 42 13.502C42 13.502 42 13.502 42 13.502C42 13.502 42 13.502 42 13.502C42 13.502 42 13.502 42 13.502C42 13.502 42 13.502 42 13.502C42 13.502 42 13.502 42 13.502C42 13.502 42 13.502 42 13.502C42 13.502 42 13.502 42 13.502C42 13.502 42 13.502 42 13.502C42 13.502 42 13.502 42 13.502C42 13.502 42 13.502 42 13.502C42 13.502 42 13.502 42 13.502C42 13.502 42 13.502 42 13.502C42 13.502 42 13.502 42 13.502C42 13.502 42 13.502 42 13.502C42 13.502 42 13.502 42 13.502C42 13.502 42 13.502 42 13.502C42 13.502 42 13.502 42 13.502C42 13.502 42 13.502 42 13.502C42 13.502 42 13.502 42 13.502C42 13.502 42 13.502 42 13.502C42 13.502 42 13.502 42 13.502C42 13.502 42 13.502 42 13.502C42 13.502 42 13.502 42 13.502C42 13.502 42 13.502 42 13.502C42 13.502 42 13.502 42 13.502C42 13.502 42 13.502 42 13.502C42 13.502 42 13.502 42 13.502C42 13.502 42 13.502 42 13.502C42 13.502 42 13.502 42 13.502C42 13.502 42 13.502 42 13.502C42 13.502 42 13.502 42 13.502C42 13.502 42 13.502 42 13.502C42 13.502 42 13.502 42 13.502C42 13.502 42 13.502 42 13.502C42 13.502 42 13.502 42 13.502C42 13.502 42 13.502 42 13.502C42 13.502 42 13.502 42 13.502C42 13.502 42 13.502 42 13.502C42 13.502 42 13.502 42 13.502C42 13.502 42 13.502 42 13.502C42 13.502 42 13.502 42 13.502C42 13.502 42 13.502 42 13.502C42 13.502 42 13.502 42 13.502C42 13.502 42 13.502 42 13.502C42 13.502 42 13.502 42 13.502C42 13.502 42 13.502 42 13.502C42 13.502 42 13.502 42 13.502C42 13.502 42 13.502 42 13.502C42 13.502 42 13.502 42 13.502C42 13.502 42 13.502 42 13.502C42 13.502 42 13.502 42 13.502C42 13.502 42 13.502 42 13.502C42 13.502 42 13.502 42 13.502C42 13.502 42 13.502 42 13.502C42 13.502 42 13.502 42 13.502C42 13.502 42 13.502 42 13.502C42 13.502 42 13.502 42 13.502C42 13.502 42 13.502 42 13.502C42 13.502 42 13.502 42 13.502C42 13.502 42 13.502 42 13.502C42 13.502 42 13.502 42 13.502C42 13.502 42 13.502 42 13.502C42 13.502 42 13.502 42 13.502C42 13.502 42 13.502 42 13.502C42 13.502 42 13.502 42 13.502C42 13.502 42 13.502 42 13.502C42 13.502 42 13.502 42 13.502C42 13.502 42 13.502 42 13.502C42 13.502 42 13.502 42 13.502C42 13.502 42 13.502 42 13.502C42 13.502 42 13.502 42 13.502C42 13.502 42 13.502 42 13.502C42 13.502 42 13.502 42 13.502C42 13.502 42 13.502 42 13.502C42 13.502 42 13.502 42 13.502C42 13.502 42 13.502 42 13.502C42 13.502 42 13.502 42 13.502C42 13.502 42 13.502 42 13.502C42 13.502 42 13.502 42 13.502C42 13.502 42 13.502 42 13.502C42 13.502 42 13.502 42 13.502C42 13.502 42 13.502 42 13.502C42 13.502 42 13.502 42 13.502C42 13.502 42 13.502 42 13.502C42 13.502 42 13.502 42 13.502C42 13.502 42 13.502 42 13.502C42 13.502 42 13.502 42 13.502C42 13.502 42 13.502 42 13.502C42 13.502 42 13.502 42 13.502C42 13.502 42 13.502 42 13.502C42 13.502 42 13.502 42 13.502C42 13.502 42 13.502 42 13.502C42 13.502 42 13.502 42 13.502C42 13.502 42 13.502 42 13.502C42 13.502 42 13.502 42 13.502C42 13.502 42 13.502 42 13.502C42 13.502 42 13.502 42 13.502C42 13.502 42 13.502 42 13.502C42 13.502 42 13.502 42 13.502C42 13.502 42 13.502 42 13.502C42 13.502 42 13.502 42 13.502C42 13.502 42 13.502 42 13.502C42 13.502 42 13.502 42 13.502C42 13.502 42 13.502 42 13.502C42 13.502 42 13.502 42 13.502C42 13.502 42 13.502 42 13.502C42 13.502 42 13.502 42 13.502C42 13.502 42 13.502 42 13.502C42 13.502 42 13.502 42 13.502C42 13.502 42 13.502 42 13.502C42 13.502 42 13.502 42 13.502C42 13.502 42 13.502 42 13.502C42 13.502 42 13.502 42 13.502C42 13.502 42 13.502 42 13.502C42 13.502 42 13.502 42 13.502C42 13.502 42 13.502 42 13.502C42 13.502 42 13.502 42 13.502C42 13.502 42 13.502 42 13.502C42 13.502 42 13.502 42 13.502C42 13.502 42 13.502 42 13.502C42 13.502 42 13.502 42 13.502C42 13.502 42 13.502 42 13.502C42 13.502 42 13.502 42 13.502C42 13.502 42 13.502 42 13.502C42 13.502 42 13.502 42 13.502C42 13.502 42 13.502 42 13.502C42 13.502 42 13.502 42 13.502C42 13.502 42 13.502 42 13.502C42 13.502 42 13.502 42 13.502C42 13.502 42 13.502 42 13.502C42 13.502 42 13.502 42 13.502C42 13.502 42 13.502 42 13.502C42 13.502 42 13.502 42 13.502C42 13.502 42 13.502 42 13.502C42 13.502 42 13.502 42 13.502C42 13.502 42 13.502 42 13.502C42 13.502 42 13.502 42 13.502C42 13.502 42 13.502 42 13.502C42 13.502 42 13.502 42 13.502C42 13.502 42 13.502 42 13.502C42 13.502 42 13.502 42 13.502C42 13.502 42 13.502 42 13.502C42 13.502 42 13.502 42 13.502C42 13.502 42 13.502 42 13.502C42 13.502 42 13.502 42 13.502C42 13.502 42 13.502 42 13.502C42 13.502 42 13.502 42 13.502C42 13.502 42 13.502 42 13.502C42 13.502 42 13.502 42 13.502C42 13.502 42 13.502 42 13.502C42 13.502 42 13.502 42 13.502C42 13.502 42 13.502 42 13.502C42 13.502 42 13.502 42 13.502C42 13.502 42 13.502 42 13.502C42 13.502 42 13.502 42 13.502C42 13.502 42 13.502 42 13.502C42 13.502 42 13.502 42 13.502C42 13.502 42 13.502 42 13.502C42 13.502 42 13.502 42 13.502C42 13.502 42 13.502 42 13.502C42 13.502 42 13.502 42 13.502C42 13.502 42 13.502 42 13.502C42 13.502 42 13.502 42 13.502C42 13.502 42 13.502 42 16.002C42 18.502 42 18.502 42 18.502C42 18.502 42 18.502 42 18.502C42 18.502 42 18.502 42 18.502C42 18.502 42 18.502 42 18.502C42 18.502 42 18.502 42 18.502C42 18.502 42 18.502 42 18.502C42 18.502 42 18.502 42 18.502C42 18.502 42 18.502 42 18.502C42 18.502 42 18.502 42 18.502C42 18.502 42 18.502 42 18.502C42 18.502 42 18.502 42 18.502C42 18.502 42 18.502 42 18.502C42 18.502 42 18.502 42 18.502C42 18.502 42 18.502 42 18.502C42 18.502 42 18.502 42 18.502C42 18.502 42 18.502 42 18.502C42 18.502 42 18.502 42 18.502C42 18.502 42 18.502 42 18.502C42 18.502 42 18.502 42 18.502C42 18.502 42 18.502 42 18.502C42 18.502 42 18.502 42 18.502C42 18.502 42 18.502 42 18.502C42 18.502 42 18.502 42 18.502C42 18.502 42 18.502 42 18.502C42 18.502 42 18.502 42 18.502C42 18.502 42 18.502 42 18.502C42 18.502 42 18.502 42 18.502C42 18.502 42 18.502 42 18.502C42 18.502 42 18.502 42 18.502C42 18.502 42 18.502 42 18.502C42 18.502 42 18.502 42 18.502C42 18.502 42 18.502 42 18.502C42 18.502 42 18.502 42 18.502C42 18.502 42 18.502 42 18.502C42 18.502 42 18.502 42 18.502C42 18.502 42 18.502 42 18.502C42 18.502 42 18.502 42 18.502C42 18.502 42 18.502 42 18.502C42 18.502 42 18.502 42 18.502C42 18.502 42 18.502 42 18.502C42 18.502 42 18.502 42 18.502C42 18.502 42 18.502 42 18.502C42 18.502 42 18.502 42 18.502C42 18.502 42 18.502 42 18.502C42 18.502 42 18.502 42 18.502C42 18.502 42 18.502 42 18.502C42 18.502 42 18.502 42 18.502C42 18.502 42 18.502 42 18.502C42 18.502 42 18.502 42 18.502C42 18.502 42 18.502 42 18.502C42 18.502 42 18.502 42 18.502C42 18.502 42 18.502 42 18.502C42 18.502 42 18.502 42 18.502C42 18.502 42 18.502 42 18.502C42 18.502 42 18.502 42 18.502C42 18.502 42 18.502 42 18.502C42 18.502 42 18.502 42 18.502C42 18.502 42 18.502 42 18.502C42 18.502 42 18.502 42 18.502C42 18.502 42 18.502 42 18.502C42 18.502 42 18.502 42 18.502C42 18.502 42 18.502 42 18.502C42 18.502 42 18.502 42 18.502C42 18.502 42 18.502 42 18.502C42 18.502 42 18.502 42 18.502C42 18.502 42 18.502 42 18.502C42 18.502 42 18.502 42 18.502C42 18.502 42 18.502 42 18.502C42 18.502 42 18.502 42 18.502C42 18.502 42 18.502 42 18.502C42 18.502 42 18.502 42 18.502C42 18.502 42 18.502 42 18.502C42 18.502 42 18.502 42 18.502C42 18.502 42 18.502 42 18.502C42 18.502 42 18.502 42 18.502C42 18.502 42 18.502 42 18.502C42 18.502 42 18.502 42 18.502C42 18.502 42 18.502 42 18.502C42 18.502 42 18.502 42 18.502C42 18.502 42 18.502 42 18.502C42 18.502 42 18.502 42 18.502C42 18.502 42 18.502 42 18.502C42 18.502 42 18.502 42 18.502C42 18.502 42 18.502 42 18.502C42 18.502 42 18.502 42 18.502C42 18.502 42 18.502 42 18.502C42 18.502 42 18.502 42 18.502C42 18.502 42 18.502 42 18.502C42 18.502 42 18.502 42 18.502C42 18.502 42 18.502 42 18.502C42 18.502 42 18.502 42 18.502C42 18.502 42 18.502 42 18.502C42 18.502 42 18.502 42 18.502C42 18.502 42 18.502 42 18.502C42 18.502 42 18.502 42 18.502C42 18.502 42 18.502 42 18.502C42 18.502 42 18.502 42 18.502C42 18.502 42 18.502 42 18.502C42 18.502 42 18.502 42 18.502C42 18.502 42 18.502 42 18.502C42 18.502 42 18.502 42 18.502C42 18.502 42 18.502 42 18.502C42 18.502 42 18.502 42 18.502C42 18.502 42 18.502 42 18.502C42 18.502 42 18.502 42 18.502C42 18.502 42 18.502 42 18.502C42 18.502 42 18.502 42 18.502C42 18.502 42 18.502 42 18.502C42 18.502 42 18.502 42 18.502C42 18.502 42 18.502 42 18.502C42 18.502 42 18.502 42 18.502C42 18.502 42 18.502 42 18.502C42 18.502 42 18.502 42 18.502C42 18.502 42 18.502 42 18.502C42 18.502 42 18.502 42 18.502C42 18.502 42 18.502 42 18.502C42 18.502 42 18.502 42 18.502C42 18.502 42 18.502 42 18.502C42 18.502 42 18.502 42 18.502C42 18.502 42 18.502 42 18.502C42 18.502 42 18.502 42 18.502C42 18.502 42 18.502 42 18.502C42 18.502 42 18.502 42 18.502C42 18.502 42 18.502 42 18.502C42 18.502 42 18.502 42 18.502C42 18.502 42 18.502 42 18.502C42 18.502 42 18.502 42 18.502C42 18.502 42 18.502 42 18.502C42 18.502 42 18.502 42 18.502C42 18.502 42 18.502 42 18.502C42 18.502 42 18.502 42 18.502C42 18.502 42 18.502 42 18.502C42 18.502 42 18.502 42 18.502C42 18.502 42 18.502 42 18.502C42 18.502 42 18.502 42 18.502C42 18.502 42 18.502 42 18.502C42 18.502 42 18.502 42 18.502C42 18.502 42 18.502 42 18.502C42 18.502 42 18.502 42 18.502C42 18.502 42 18.502 42 18.502C42 18.502 42 18.502 42 18.502C42 18.502 42 18.502 42 18.502C42 18.502 42 18.502 42 18.502C42 18.502 42 18.502 42 18.502C42 18.502 42 18.502 42 18.502C42 18.502 42 18.502 42 18.502C42 18.502 42 18.502 42 18.502C42 18.502 42 18.502 42 18.502C42 18.502 42 18.502 42 18.502C42 18.502 42 18.502 42 18.502C42 18.502 42 18.502 42 18.502C42 18.502 42 18.502 42 18.502C42 18.502 42 18.502 42 18.502C42 18.502 42 18.502 42 18.502C42 18.502 42 18.502 42 18.502C42 18.502 42 18.502 42 18.502C42 18.502 42 18.502 42 18.502C42 18.502 42 18.502 42 18.502C42 18.502 42 18.502 42 18.502C42 18.502 42 18.502 42 18.502C42 18.502 42 18.502 42 18.502C42 18.502 42 18.502 42 18.502C42 18.502 42 18.502 42 18.502C42 18.502 42 18.502 42 18.502C42 18.502 42 18.502 42 18.502C42 18.502 42 18.502 42 18.502C42 18.502 42 18.502 42 18.502C42 18.502 42 18.502 42 18.502C42 18.502 42 18.502 42 18.502C42 18.502 42 18.502 42 18.502C42 18.502 42 18.502 42 18.502C42 18.502 42 18.502 42 18.502C42 18.502 42 18.502 42 18.502C42 18.502 42 18.502 42 18.502C42 18.502 42 18.502 42 18.502C42 18.502 42 18.502 42 18.502C42 18.502 42 18.502 42 18.502C42 18.502 42 18.502 42 18.502C42 18.502 42 18.502 42 18.502C42 18.502 42 18.502 42 18.502C42 18.502 42 18.502 42 18.502C42 18.502 42 18.502 42 18.502C42 18.502 42 18.502 42 18.502C42 18.502 42 18.502 42 18.502C42 18.502 42 18.502 42 18.502C42 18.502 42 18.502 42 18.502C42 18.502 42 18.502 42 18.502C42 18.502 42 18.502 42 18.502C42 18.502 42 18.502 42 18.502C42 18.502 42 18.502 42 18.502C42 18.502 42 18.502 42 18.502C42 18.502 42 18.502 42 18.502C42 18.502 42 18.502 42 18.502C42 18.502 42 18.502 42 18.502C42 18.502 42 18.502 42 18.502C42 18.502 42 18.502 42 18.502C42 18.502 42 18.502 42 18.502C42 18.502 42 18.502 42 18.502C42 18.502 42 18.502 42 18.502C42 18.502 42 18.502 42 18.502C42 18.502 42 18.502 42 18.502C42 18.502 42 18.502 42 18.502C42 18.502 42 18.502 42 18.502C42 18.502 42 18.502 42 18.502C42 18.502 42 18.502 42 18.502C42 18.502 42 18.502 42 18.502C42 18.502 42 18.502 42 18.502C42 18.502 42 18.502 42 18.502C42 18.502 42 18.502 42 18.502C42 18.502 42 18.502 42 18.502C42 18.502 42 18.502 42 18.502C42 18.502 42 18.502 42 18.502C42 18.502 42 18.502 42 18.502C42 18.502 42 18.502 42 18.502C42 18.502 42 18.502 42 18.502C42 18.502 42 18.502 42 18.502C42 18.502 42 18.502 42 18.502C42 18.502 42 18.502 42 18.502C42 18.502 42 18.502 42 18.502C42 18.502 42 18.502 42 18.502C42 18.502 42 18.502 42 18.502C42 18.502 42 18.502 42 18.502C42 18.502 42 18.502 42 18.502C42 18.502 42 18.502 42 18.502C42 18.502 42 18.502 42 18.502C42 18.502 42 18.502 42 18.502C42 18.502 42 18.502 42 18.502C42 18.502 42 18.502 42 18.502C42 18.502 42 18.502 42 18.502C42 18.502 42 18.502 42 18.502C42 18.502 42 18.502 42 18.502C42 18.502 42 18.502 42 18.502C42 18.502 42 18.502 42 18.502C42 18.502 42 18.502 42 18.502C42 18.502 42 18.502 42 18.502C42 18.502 42 18.502 42 18.502C42 18.502 42 18.502 42 18.502C42 18.502 42 18.502 42 18.502C42 18.502 42 18.502 42 18.502C42 18.502 42 18.502 42 18.502C42 18.502 42 18.502 42 18.502C42 18.502 42 18.502 42 18.502C42 18.502 42 18.502 42 18.502C42 18.502 42 18.502 42 18.502C42 18.502 42 18.502 42 18.502C42 18.502 42 18.502 42 18.502C42 18.502 42 18.502 42 18.502C42 18.502 42 18.502 42 18.502C42 18.502 42 18.502 42 18.502C42 18.502 42 18.502 42 18.502C42 18.502 42 18.502 42 18.502C42 18.502 42 18.502 42 18.502C42 18.502 42 18.502 42 18.502C42 18.502 42 18.502 42 18.502C42 18.502 42 18.502 42 18.502C42 18.502 42 18.502 42 18.502C42 18.502 42 18.502 42 18.502C42 18.502 42 18.502 42 18.502C42 18.502 42 18.502 42 18.502C42 18.502 42 18.502 42 18.502C42 18.502 42 18.502 42 18.502C42 18.502 42 18.502 42 18.502C42 18.502 42 18.502 42 18.502C42 18.502 42 18.502 42 18.502C42 18.502 42 18.502 42 18.502C42 18.502 42 18.502 42 18.502C42 18.502 42 18.502 42 18.502C42 18.502 42 18.502 42 18.502C42 18.502 42 18.502 42 18.502C42 18.502 42 18.502 42 18.502C42 18.502 42 18.502 42 18.502C42 18.502 42 18.502 42 18.502C42 18.502 42 18.502 42 18.502C42 18.502 42 18.502 42 18.502C42 18.502 42 18.502 42 18.502C42 18.502 42 18.502 42 18.502C42 18.502 42 18.502 42 18.502C42 18.502 42 18.502 42 18.502C42 18.502 42 18.502 42 18.502C42 18.502 42 18.502 42 18.502C42 18.502 42 18.502 42 18.502C42 18.502 42 18.502 42 18.502C42 18.502 42 18.502 42 18.502C42 18.502 42 18.502 42 18.502C42 18.502 42 18.502 42 18.502C42 18.502 42 18.502 42 18.502C42 18.502 42 18.502 42 18.502C42 18.502 42 18.502 42 18.502C42 18.502 42 18.502 42 18.502C42 18.502 42 18.502 42 18.502C42 18.502 42 18.502 42 18.502C42 18.502 42 18.502 42 18.502C42 18.502 42 18.502 42 18.502C42 18.502 42 18.502 42 18.502C42 18.502 42 18.502 42 18.502C42 18.502 42 18.502 42 18.502C42 18.502 42 18.502 42 18.502C42 18.502 42 18.502 42 18.502C42 18.502 42 18.502 42 18.502C42 18.502 42 18.502 42 18.502C42 18.502 42 18.502 42 18.502C42 18.502 42 18.502 42 18.502C42 18.502 42 18.502 42 18.502C42 18.502 42 18.502 42 18.502C42 18.502 42 18.502 42 18.502C42 18.502 42 18.502 42 18.502C42 18.502 42 18.502 42 18.502C42 18.502 42 18.502 42 18.502C42 18.502 42 18.502 42 18.502C42 18.502 42 18.502 42 18.502C42 18.502 42 18.502 42 18.502C42 18.502 42 18.502 42 18.502C42 18.502 42 18.502 42 18.502C42 18.502 42 18.502 42 18.502C42 18.502 42 18.502 42 18.502C42 18.502 42 18.502 42 18.502C42 18.502 42 18.502 42 18.502C42 18.502 42 18.502 42 18.502C42 18.502 42 18.502 42 18.502C42 18.502 42 18.502 42 18.502C42 18.502 42 18.502 42 18.502C42 18.502 42 18.502 42 18.502C42 18.502 42 18.502 42 18.502C42 18.502 42 18.502 42 18.502C42 18.502 42 18.502 42 18.502C42 18.502 42 18.502 42 18.502C42 18.502 42 18.502 42 18.502C42 18.502 42 18.502 42 18.502C42 18.502 42 18.502 42 18.502C42 18.502 42 18.502 42 18.502C42 18.502 42 18.502 42 18.502C42 18.502 42 18.502 42 18.502C42 18.502 42 18.502 42 18.502C42 18.502 42 18.502 42 18.502C42 18.502 42 18.502 42 18.502C42 18.502 42 18.502 42 18.502C42 18.502 42 18.502 42 18.502C42 18.502 42 18.502 42 18.502C42 18.502 42 18.502 42 18.502C42 18.502 42 18.502 42 18.502C42 18.502 42 18.502 42 18.502C42 16.002 42 13.502 42 13.502C42 13.502 42 13.502 42 13.502C42 13.502 42 13.502 42 13.502C42 13.502 42 13.502 42 13.502C42 13.502 42 13.502 42 13.502C42 13.502 42 13.502 42 13.502C42 13.502 42 13.502 42 13.502C42 13.502 42 13.502 42 13.502C42 13.502 42 13.502 42 13.502C42 13.502 42 13.502 42 13.502C42 13.502 42 13.502 42 13.502C42 13.502 42 13.502 42 13.502C42 13.502 42 13.502 42 13.502C42 13.502 42 13.502 42 13.502C42 13.502 42 13.502 42 13.502C42 13.502 42 13.502 42 13.502C42 13.502 42 13.502 42 13.502C42 13.502 42 13.502 42 13.502C42 13.502 42 13.502 42 13.502C42 13.502 42 13.502 42 13.502C42 13.502 42 13.502 42 13.502C42 13.502 42 13.502 42 13.502C42 13.502 42 13.502 42 13.502C42 13.502 42 13.502 42 13.502C42 13.502 42 13.502 42 13.502C42 13.502 42 13.502 42 13.502C42 13.502 42 13.502 42 13.502C42 13.502 42 13.502 42 13.502C42 13.502 42 13.502 42 13.502C42 13.502 42 13.502 42 13.502C42 13.502 42 13.502 42 13.502C42 13.502 42 13.502 42 13.502C42 13.502 42 13.502 42 13.502C42 13.502 42 13.502 42 13.502C42 13.502 42 13.502 42 13.502C42 13.502 42 13.502 42 13.502C42 13.502 42 13.502 42 13.502C42 13.502 42 13.502 42 13.502C42 13.502 42 13.502 42 13.502C42 13.502 42 13.502 42 13.502C42 13.502 42 13.502 42 13.502C42 13.502 42 13.502 42 13.502C42 13.502 42 13.502 42 13.502C42 13.502 42 13.502 42 13.502C42 13.502 42 13.502 42 13.502C42 13.502 42 13.502 42 13.502C42 13.502 42 13.502 42 13.502C42 13.502 42 13.502 42 13.502C42 13.502 42 13.502 42 13.502C42 13.502 42 13.502 42 13.502C42 13.502 42 13.502 42 13.502C42 13.502 42 13.502 42 13.502C42 13.502 42 13.502 42 13.502C42 13.502 42 13.502 42 13.502C42 13.502 42 13.502 42 13.502C42 13.502 42 13.502 42 13.502C42 13.502 42 13.502 42 13.502C42 13.502 42 13.502 42 13.502C42 13.502 42 13.502 42 13.502C42 13.502 42 13.502 42 13.502C42 13.502 42 13.502 42 13.502C42 13.502 42 13.502 42 13.502C42 13.502 42 13.502 42 13.502C42 13.502 42 13.502 42 13.502C42 13.502 42 13.502 42 13.502C42 13.502 42 13.502 42 13.502C42 13.502 42 13.502 42 13.502C42 13.502 42 13.502 42 13.502C42 13.502 42 13.502 42 13.502C42 13.502 42 13.502 42 13.502C42 13.502 42 13.502 42 13.502C42 13.502 42 13.502 42 13.502C42 13.502 42 13.502 42 13.502C42 13.502 42 13.502 42 13.502C42 13.502 42 13.502 42 13.502C42 13.502 42 13.502 42 13.502C42 13.502 42 13.502 42 13.502C42 13.502 42 13.502 42 13.502C42 13.502 42 13.502 42 13.502C42 13.502 42 13.502 42 13.502C42 13.502 42 13.502 42 13.502C42 13.502 42 13.502 42 13.502C42 13.502 42 13.502 42 13.502C42 13.502 42 13.502 42 13.502C42 13.502 42 13.502 42 13.502C42 13.502 42 13.502 42 13.502C42 13.502 42 13.502 42 13.502C42 13.502 42 13.502 42 13.502C42 13.502 42 13.502 42 13.502C42 13.502 42 13.502 42 13.502C42 13.502 42 13.502 42 13.502C42 13.502 42 13.502 42 13.502C42 13.502 42 13.502 42 13.502C42 13.502 42 13.502 42 13.502C42 13.502 42 13.502 42 13.502C42 13.502 42 13.502 42 13.502C42 13.502 42 13.502 42 13.502C42 13.502 42 13.502 42 13.502C42 13.502 42 13.502 42 13.502C42 13.502 42 13.502 42 13.502C42 13.502 42 13.502 42 13.502C42 13.502 42 13.502 42 13.502C42 13.502 42 13.502 42 13.502C42 13.502 42 13.502 42 13.502C42 13.502 42 13.502 42 13.502C42 13.502 42 13.502 42 13.502C42 13.502 42 13.502 42 13.502C42 13.502 42 13.502 42 13.502C42 13.502 42 13.502 42 13.502C42 13.502 42 13.502 42 13.502C42 13.502 42 13.502 42 13.502C42 13.502 42 13.502 42 13.502C42 13.502 42 13.502 42 13.502C42 13.502 42 13.502 42 13.502C42 13.502 42 13.502 42 13.502C42 13.502 42 13.502 42 13.502C42 13.502 42 13.502 42 13.502C42 13.502 42 13.502 42 13.502C42 13.502 42 13.502 42 13.502C42 13.502 42 13.502 42 13.502C42 13.502 42 13.502 42 13.502C42 13.502 42 13.502 42 13.502C42 13.502 42 13.502 42 13.502C42 13.502 42 13.502 42 13.502C42 13.502 42 13.502 42 13.502C42 13.502 42 13.502 42 13.502C42 13.502 42 13.502 42 13.502C42 13.502 42 13.502 42 13.502C42 13.502 42 13.502 42 13.502C42 13.502 42 13.502 42 13.502C42 13.502 42 13.502 42 13.502C42 13.502 42 13.502 42 13.502C42 13.502 42 13.502 42 13.502C42 13.502 42 13.502 42 13.502C42 13.502 42 13.502 42 13.502C42 13.502 42 13.502 42 13.502C42 13.502 42 13.502 42 13.502C42 13.502 42 13.502 42 13.502C42 13.502 42 13.502 42 13.502C42 13.502 42 13.502 42 13.502C42 13.502 42 13.502 42 13.502C42 13.502 42 13.502 42 13.502C42 13.502 42 13.502 42 13.502C42 13.502 42 13.502 42 13.502C42 13.502 42 13.502 42 13.502C42 13.502 42 13.502 42 13.502C42 13.502 42 13.502 42 13.502C42 13.502 42 13.502 42 13.502C42 13.502 42 13.502 42 13.502C42 13.502 42 13.502 42 13.502C42 13.502 42 13.502 42 13.502C42 13.502 42 13.502 42 13.502C42 13.502 42 13.502 42 13.502C42 13.502 42 13.502 42 13.502C42 13.502 42 13.502 42 13.502C42 13.502 42 13.502 42 13.502C42 13.502 42 13.502 42 13.502C42 13.502 42 13.502 42 13.502C42 13.502 42 13.502 42 13.502C42 13.502 42 13.502 42 13.502C42 13.502 42 13.502 42 13.502C42 13.502 42 13.502 42 13.502C42 13.502 42 13.502 42 13.502C42 13.502 42 13.502 42 13.502C42 13.502 42 13.502 42 13.502C42 13.502 42 13.502 42 13.502C42 13.502 42 13.502 42 13.502C42 13.502 42 13.502 42 13.502C42 13.502 42 13.502 42 13.502C42 13.502 42 13.502 42 13.502C42 13.502 42 13.502 42 13.502V18.502ZM52.4998 18.002C52.4998 15.5167 50.4851 13.502 47.9998 13.502V18.502C47.7237 18.502 47.4998 18.2781 47.4998 18.002H52.4998ZM47.9998 26.5018C50.4851 26.5018 52.4998 24.4871 52.4998 22.0018H47.4998C47.4998 21.7256 47.7237 21.5018 47.9998 21.5018V26.5018ZM44 26.5018L43.9999 26.5018V21.5018L43.9999 21.5018L44 26.5018ZM44 29.5016C44.2761 29.5016 44.5 29.7255 44.5 30.0016H39.5C39.5 32.4869 41.5147 34.5016 44 34.5016V29.5016ZM52.1995 34.5598C52.5352 31.8739 50.441 29.5016 47.7343 29.5016V34.5016C47.4335 34.5016 47.2008 34.238 47.2381 33.9396L52.1995 34.5598ZM47.2343 42.5014C49.5037 42.5014 51.418 40.8115 51.6995 38.5596L46.7381 37.9394C46.7694 37.6892 46.9821 37.5014 47.2343 37.5014V42.5014ZM30.0003 29.5016C27.515 29.5016 25.5003 31.5163 25.5003 34.0016H30.5003C30.5003 34.2777 30.2764 34.5016 30.0003 34.5016V29.5016ZM44.5 42.0014C44.5 42.2776 44.2761 42.5014 44 42.5014V37.5014C41.5147 37.5014 39.5 39.5162 39.5 42.0014H44.5ZM31.5002 30.0016C31.5002 29.7255 31.724 29.5016 32.0002 29.5016V34.5016C34.4854 34.5016 36.5002 32.4869 36.5002 30.0016H31.5002ZM44 57.5C44.2761 57.5 44.5 57.7239 44.5 58H39.5C39.5 60.4853 41.5147 62.5 44 62.5V57.5Z" fill="url(#paint0_linear)"/>
<defs>
<linearGradient id="paint0_linear" x1="1.5" y1="35" x2="60" y2="35.5" gradientUnits="userSpaceOnUse">
<stop stop-color="#5558FF"/>
<stop offset="1" stop-color="#00C0FF"/>
</linearGradient>
</defs>
</svg>
