<svg width="48" height="48" viewBox="0 0 48 48" fill="none" xmlns="http://www.w3.org/2000/svg">
<path fill-rule="evenodd" clip-rule="evenodd" d="M24 0C10.7453 0.000264409 0.000288451 9.84969 0 21.9997C0.00432676 26.513 1.52293 30.9158 4.34977 34.6112C4.63178 33.2323 5.0265 31.8979 5.52113 30.6863C5.42919 30.7652 5.25328 30.8987 5.1831 30.9618C4.40749 31.6588 4.32395 31.7046 4.32395 31.4287C4.32395 31.2601 4.41279 30.4267 4.52113 29.576C4.70162 28.1613 4.94024 26.851 5.23005 25.6146C4.95509 24.4289 4.81069 23.2181 4.80751 21.9997C4.80777 12.2835 13.4004 4.40705 24 4.40682C33.0304 4.40701 40.5795 10.1297 42.6197 17.8317C44.639 18.7884 46.0189 20.0312 47.0751 21.834C47.3344 22.2764 47.6375 22.9703 47.9108 23.6522C47.9613 23.1027 47.9947 22.5514 48 21.9997C47.9997 9.84969 37.2547 0.000264409 24 0H24ZM46.8028 25.733C46.4557 25.7297 45.6972 25.744 45.6972 25.744L45.1855 25.7484C45.1855 25.7484 43.5393 25.7882 42.716 25.8238C41.1906 32.0933 36.059 37.1024 29.3287 38.8914C29.3109 39.1331 29.2842 39.356 29.27 39.6058L29.101 42.5817L28.1362 41.1637C27.6948 40.5153 27.1947 39.9126 26.7113 39.3992C25.8137 39.5225 24.9077 39.5872 24 39.5929C21.6269 39.5863 19.2758 39.1762 17.0658 38.3836C17.0557 38.3869 17.0453 38.3902 17.0353 38.3946C15.8974 38.8197 14.1797 39.8674 12.3498 41.2049C15.911 43.029 19.9206 43.991 24 44C35.6696 43.9989 45.6467 36.303 47.6432 25.7638C47.3491 25.7561 47.1359 25.7361 46.8029 25.7337L46.8028 25.733Z" fill="url(#paint0_linear)"/>
<path fill-rule="evenodd" clip-rule="evenodd" d="M5.00017 29.8513C5.00017 29.6916 5.09029 28.9019 5.20016 28.0961C5.8311 23.4772 7.09907 19.9219 9.15238 17.0144C10.0341 15.766 11.8813 13.9134 13.0404 13.1153L13.7718 12.6116L14.9809 12.736C16.3118 12.873 18.9299 13.347 19.9415 13.6344L20.5883 13.8181L20.2649 13.5729C20.0872 13.438 19.593 13.157 19.167 12.9484C17.4441 12.1041 16.1368 11.7721 12.5035 11.2558C11.4721 11.1091 10.6103 10.9726 10.5886 10.9516C10.5082 10.8753 12.87 10.1187 14.2495 9.77851C16.9135 9.12148 17.9241 8.99987 20.7177 9C22.9132 9.00017 23.5106 9.04363 24.6633 9.27621C29.2556 10.2095 32.8976 12.141 36.7829 15.7033L38.23 17.0302L39.836 17.5478C42.5323 18.4169 44.2375 19.5742 45.4983 21.3909C46.1862 22.3821 47.2673 24.8661 46.9396 24.7025C41.8589 22.1654 36.8236 20.9047 31.0668 20.7282C22.7411 20.4729 15.0431 22.8031 8.19086 27.6528C7.39642 28.2151 6.35348 29.005 5.87322 29.4081C5.08657 30.0684 5 30.1123 5 29.851L5.00017 29.8513ZM34.2364 18.5023C34.2364 17.8572 33.7479 17.0294 33.1982 16.7431C32.837 16.5551 32.5411 16.5162 31.6922 16.5463C31.111 16.5682 30.595 16.6223 30.5454 16.6694C30.4017 16.8055 30.9594 17.7829 31.4238 18.2093C31.9547 18.6966 32.6798 18.9534 33.5572 18.9645L34.2364 18.9733V18.5023Z" fill="url(#paint1_linear)"/>
<path fill-rule="evenodd" clip-rule="evenodd" d="M6.85928 47.485C6.42926 46.6793 5.7792 45.02 5.51601 44.056C5.13542 42.6621 5 41.4542 5 39.4537C5 36.0571 5.73061 32.3879 6.95409 29.64C7.31564 28.828 7.38839 28.7521 8.65634 27.8637C10.7977 26.3633 12.293 25.5072 14.7677 24.3645C19.6826 22.0949 23.8724 21.1385 29.4516 21.0127C33.6371 20.9186 37.148 21.3429 40.8322 22.3885C42.8003 22.9472 46.1433 24.1812 45.9952 24.2945C45.9685 24.3161 45.3937 24.2815 44.7178 24.219C42.8449 24.0476 38.2343 24.1887 36.1786 24.4809C24.196 26.1824 14.9026 32.6293 9.26272 43.1525C8.02645 45.4592 7.78456 46.0064 7.53288 47.0661C7.41096 47.5798 7.27126 48 7.22265 48C7.17408 48 7.01061 47.7682 6.8593 47.485H6.85928Z" fill="url(#paint2_linear)"/>
<path fill-rule="evenodd" clip-rule="evenodd" d="M11.4027 41.2648C14.1818 36.8708 18.1583 32.9507 22.4911 30.3336C24.9013 28.878 27.3049 27.7997 29.9288 26.9971C31.1191 26.633 33.699 26.0005 33.9955 26C34.0478 25.9999 33.6371 26.5455 33.0827 27.2125C30.187 30.6959 29.0641 33.6419 28.7691 38.5295L28.62 41.0001L27.7739 39.8236C26.8962 38.6033 25.7476 37.5021 25.1276 37.2866C23.1762 36.6083 20.3627 36.7026 18.0391 37.5241C16.6318 38.0217 14.2276 39.5171 11.9364 41.32C11.4611 41.6941 11.0419 42 11.0049 42C10.9678 42 11.1468 41.669 11.4026 41.2647L11.4027 41.2648Z" fill="url(#paint3_linear)"/>
<defs>
<linearGradient id="paint0_linear" x1="24" y1="44" x2="24" y2="0" gradientUnits="userSpaceOnUse">
<stop stop-color="#A93AFF"/>
<stop offset="1" stop-color="#FF81FF"/>
</linearGradient>
<linearGradient id="paint1_linear" x1="5.00615" y1="19.1889" x2="47.007" y2="19.1889" gradientUnits="userSpaceOnUse">
<stop stop-color="#A93AFF"/>
<stop offset="1" stop-color="#FF81FF"/>
</linearGradient>
<linearGradient id="paint2_linear" x1="5.00601" y1="34.1" x2="46.0068" y2="34.1" gradientUnits="userSpaceOnUse">
<stop stop-color="#A93AFF"/>
<stop offset="1" stop-color="#FF81FF"/>
</linearGradient>
<linearGradient id="paint3_linear" x1="11.0034" y1="33.7629" x2="34.0038" y2="33.7629" gradientUnits="userSpaceOnUse">
<stop stop-color="#A93AFF"/>
<stop offset="1" stop-color="#FF81FF"/>
</linearGradient>
</defs>
</svg>
