<svg width="32" height="32" viewBox="0 0 32 32" fill="none" xmlns="http://www.w3.org/2000/svg">
<path d="M15.6193 1C7.59086 1 1 7.25827 1 15.0102C1 19.0595 2.83876 22.6661 5.70096 25.2146C5.80951 25.3112 5.8731 25.449 5.8731 25.5944V30.191C5.8731 30.5627 6.26425 30.8044 6.5967 30.6382L11.1021 28.3855C11.2162 28.3284 11.3478 28.3174 11.4702 28.3532C12.7867 28.7387 14.162 29.0203 15.6193 29.0203C23.6477 29.0203 30.2386 22.762 30.2386 15.0102C30.2386 7.25827 23.6477 1 15.6193 1ZM15.6193 3.43655C22.3917 3.43655 27.802 8.63371 27.802 15.0102C27.802 21.3866 22.3917 26.5838 15.6193 26.5838C14.1635 26.5838 12.7734 26.3072 11.4698 25.8601L11.1667 25.7668C11.0438 25.7289 10.911 25.7399 10.796 25.7974L9.03325 26.6788C8.7008 26.845 8.30964 26.6033 8.30964 26.2316V24.5334C8.30964 24.3852 8.24385 24.2446 8.13004 24.1496L7.85279 23.9182C5.14944 21.7874 3.43655 18.5943 3.43655 15.0102C3.43655 8.63371 8.8469 3.43655 15.6193 3.43655ZM14.6122 11.5327C14.4134 11.3318 14.0878 11.3354 13.8935 11.5407L9.126 16.5802C8.73317 16.9954 9.23203 17.6384 9.73183 17.361L13.1449 15.4669C13.346 15.3554 13.5973 15.3953 13.7538 15.5638L16.6223 18.6507C16.8205 18.8641 17.1585 18.8635 17.356 18.6494L22.116 13.4899C22.5023 13.0712 22 12.4358 21.5035 12.715L18.1592 14.5954C17.9629 14.7058 17.717 14.6714 17.5586 14.5113L14.6122 11.5327Z" fill="url(#paint0_linear)"/>
<defs>
<linearGradient id="paint0_linear" x1="15.6193" y1="31" x2="15.6193" y2="1" gradientUnits="userSpaceOnUse">
<stop stop-color="#5570FF"/>
<stop offset="1" stop-color="#4DD3FF"/>
</linearGradient>
</defs>
</svg>
