<svg width="64" height="64" viewBox="0 0 64 64" fill="none" xmlns="http://www.w3.org/2000/svg">
<path d="M8 14C6.89543 14 6 14.8954 6 16V19.4167V29.1667V34.5833V48.8333C6 49.9379 6.89543 50.8333 8 50.8333H9.41667C10.5212 50.8333 11.4167 49.9379 11.4167 48.8333V36.5833C11.4167 35.4788 12.3121 34.5833 13.4167 34.5833H19.1667C20.2712 34.5833 21.1667 33.6879 21.1667 32.5833V31.1667C21.1667 30.0621 20.2712 29.1667 19.1667 29.1667H13.4167C12.3121 29.1667 11.4167 28.2712 11.4167 27.1667V21.4167C11.4167 20.3121 12.3121 19.4167 13.4167 19.4167H19.1667C20.2712 19.4167 21.1667 18.5212 21.1667 17.4167V16C21.1667 14.8954 20.2712 14 19.1667 14H11.4167H8ZM26.4167 14C25.3121 14 24.4167 14.8954 24.4167 16V48.8333C24.4167 49.9379 25.3121 50.8333 26.4167 50.8333H29.8333H37.5833C38.6879 50.8333 39.5833 49.9379 39.5833 48.8333V47.4167C39.5833 46.3121 38.6879 45.4167 37.5833 45.4167H31.8333C30.7288 45.4167 29.8333 44.5212 29.8333 43.4167V36.5833C29.8333 35.4788 30.7288 34.5833 31.8333 34.5833H37.5833C38.6879 34.5833 39.5833 33.6879 39.5833 32.5833V31.1667C39.5833 30.0621 38.6879 29.1667 37.5833 29.1667H31.8333C30.7288 29.1667 29.8333 28.2712 29.8333 27.1667V21.4167C29.8333 20.3121 30.7288 19.4167 31.8333 19.4167H37.5833C38.6879 19.4167 39.5833 18.5212 39.5833 17.4167V16C39.5833 14.8954 38.6879 14 37.5833 14H29.8333H26.4167ZM44.8333 14C43.7288 14 42.8333 14.8954 42.8333 16V48.8333C42.8333 49.9379 43.7288 50.8333 44.8333 50.8333H46.25C47.3546 50.8333 48.25 49.9379 48.25 48.8333V36.5833C48.25 35.4788 49.1454 34.5833 50.25 34.5833H50.5833C51.6879 34.5833 52.5833 35.4788 52.5833 36.5833V48.8333C52.5833 49.9379 53.4788 50.8333 54.5833 50.8333H56C57.1046 50.8333 58 49.9379 58 48.8333V34.5833V29.1667V16C58 14.8954 57.1046 14 56 14H54.5833C53.4788 14 52.5833 14.8954 52.5833 16V27.1667C52.5833 28.2712 51.6879 29.1667 50.5833 29.1667H50.25C49.1454 29.1667 48.25 28.2712 48.25 27.1667V16C48.25 14.8954 47.3546 14 46.25 14H44.8333Z" fill="url(#paint0_linear_581_201)"/>
<defs>
<linearGradient id="paint0_linear_581_201" x1="32" y1="14" x2="32" y2="50.8333" gradientUnits="userSpaceOnUse">
<stop stop-color="#F75050"/>
<stop offset="1" stop-color="#A00909"/>
</linearGradient>
</defs>
</svg>
