<svg width="64" height="64" viewBox="0 0 64 64" fill="none" xmlns="http://www.w3.org/2000/svg">
<g clip-path="url(#clip0)">
<path d="M20.0126 46.5889C17.3572 46.5889 14.8105 47.4518 12.9327 48.9875C11.055 50.5233 10 52.6062 10 54.7782C10 56.95 11.055 59.0331 12.9327 60.5688C14.8105 62.1046 17.3572 62.9674 20.0126 62.9674C22.6682 62.9674 25.2149 62.1046 27.0925 60.5688C28.9703 59.0331 30.0252 56.95 30.0252 54.7782V46.5889H20.0126Z" stroke="url(#paint0_linear)" stroke-width="5"/>
<path d="M20.0126 23.7228H30.0252V41.2712H20.0126C14.4658 41.2712 10 37.3579 10 32.4972C10 27.6363 14.4658 23.7232 20.0126 23.7232V23.7228Z" stroke="url(#paint1_linear)" stroke-width="4"/>
<path d="M21.1559 2.00046C15.6091 2.00046 11.1433 5.65275 11.1433 10.1896C11.1433 14.7262 15.6091 18.3785 21.1559 18.3785H31.1685V2L21.1559 2.00046Z" stroke="url(#paint2_linear)" stroke-width="5"/>
<path d="M35.1527 2H44.5763C49.7971 2 54 5.65252 54 10.1893C54 14.7261 49.7971 18.3785 44.5763 18.3785H35.1527V2Z" stroke="url(#paint3_linear)" stroke-width="5"/>
<path d="M44.5763 41.2712C49.7808 41.2712 54 37.3429 54 32.497C54 27.6511 49.7808 23.7228 44.5763 23.7228C39.3719 23.7228 35.1527 27.6511 35.1527 32.497C35.1527 37.3429 39.3719 41.2712 44.5763 41.2712Z" stroke="url(#paint4_linear)" stroke-width="5"/>
</g>
<defs>
<linearGradient id="paint0_linear" x1="12.9326" y1="60.5689" x2="24.2839" y2="46.6903" gradientUnits="userSpaceOnUse">
<stop stop-color="#0072FF"/>
<stop offset="1" stop-color="#00E5A1"/>
</linearGradient>
<linearGradient id="paint1_linear" x1="10.0029" y1="32.237" x2="30.0286" y2="32.237" gradientUnits="userSpaceOnUse">
<stop stop-color="#A93AFF"/>
<stop offset="1" stop-color="#FF81FF"/>
</linearGradient>
<linearGradient id="paint2_linear" x1="21.1559" y1="18.3785" x2="21.1559" y2="2" gradientUnits="userSpaceOnUse">
<stop stop-color="#FD2E00"/>
<stop offset="1" stop-color="#FF9900"/>
</linearGradient>
<linearGradient id="paint3_linear" x1="44.5763" y1="18.3785" x2="44.5763" y2="2" gradientUnits="userSpaceOnUse">
<stop stop-color="#FD5900"/>
<stop offset="1" stop-color="#FFDE00"/>
</linearGradient>
<linearGradient id="paint4_linear" x1="44.5763" y1="41.2712" x2="44.5763" y2="23.7228" gradientUnits="userSpaceOnUse">
<stop stop-color="#00B59C"/>
<stop offset="1" stop-color="#9CFFAC"/>
</linearGradient>
<clipPath id="clip0">
<rect width="64" height="64" fill="white"/>
</clipPath>
</defs>
</svg>
