<svg width="128" height="128" viewBox="0 0 128 128" fill="none" xmlns="http://www.w3.org/2000/svg">
<path d="M4.18183 15.5813C6.19481 11.0732 10.7898 8.50244 15.215 8.57804C25.1015 8.60637 34.988 8.54961 44.8746 8.59688C46.9385 8.5118 48.7646 9.85386 50.1406 11.4512C53.4871 15.3734 56.7231 19.4091 60.163 23.2368C78.3308 23.1328 96.507 23.1517 114.675 23.2273C120.365 23.3029 124.893 29.0964 124.978 35.2586C125.003 58.2627 124.952 81.2574 124.994 104.262C125.096 108.76 123.788 113.647 120.527 116.539C118.794 118.069 116.62 118.732 114.624 119.733C79.2226 119.847 43.8044 119.828 8.39464 119.828C5.30298 120.281 1.85459 117.379 2.01597 113.769C2.02446 98.3261 1.95651 82.8829 2.04994 67.4397C2.03295 63.8861 2.94176 60.3986 4.30074 57.2136C6.45811 52.384 11.206 49.1896 16.0474 49.2274C40.3815 49.2274 64.7241 49.2179 89.0582 49.2369C92.5235 48.7737 95.8785 53.3103 94.1203 56.8828C93.3219 59.1133 91.1391 60.2286 89.0921 60.2286C64.7665 60.2852 40.4324 60.1813 16.1068 60.2758C13.0661 60.134 12.0809 63.9429 12.0384 66.6837C11.911 80.5958 12.1488 94.5174 11.9195 108.43C45.5201 108.439 79.1207 108.581 112.713 108.505C113.842 108.618 115.15 107.569 114.87 106.171C114.853 82.1741 115.015 58.1682 114.785 34.1717C95.9974 34.0961 77.2096 34.1906 58.4303 34.1339C56.0436 34.2378 54.1496 32.3476 52.6547 30.5046C49.6989 26.8659 46.6412 23.3218 43.6685 19.6924C34.436 19.6831 25.1949 19.7209 15.9624 19.6736C14.9262 19.7302 13.7031 19.5224 12.9132 20.4675C11.0956 24.7205 13.9579 30.4574 10.4756 34.0299C7.64721 36.7613 2.8993 34.6916 2.34722 30.5708C2.11789 25.5428 2.03295 20.1746 4.18183 15.5813Z" fill="url(#paint0_linear)"/>
<path d="M25.0139 76.7508C25.0232 73.4647 27.9076 70.6944 30.9037 71.0279C38.0498 71.0077 45.1864 70.9768 52.3231 71.0279C55.8774 70.7445 58.8551 74.8808 57.7756 78.5611C57.3481 80.8466 55.4773 82.4438 53.4674 82.9798C45.5862 82.7677 37.7054 82.7368 29.8244 83C27.0888 82.5547 24.7999 79.8248 25.0139 76.7508Z" fill="url(#paint1_linear)"/>
<path d="M50.0207 93.7508C50.0345 90.4647 53.3174 87.6944 57.7661 88.0279C68.3769 88.0077 78.9738 87.9768 89.5707 88.0279C94.8483 87.7445 98.2697 91.8808 96.6668 95.5611C96.032 97.8466 94.2542 99.4438 91.2697 99.9798C79.5674 99.7677 67.8657 99.7368 56.1635 100C52.1016 99.5547 49.7028 96.8248 50.0207 93.7508Z" fill="url(#paint2_linear)"/>
<defs>
<linearGradient id="paint0_linear" x1="63.4998" y1="119.875" x2="63.4998" y2="8.57642" gradientUnits="userSpaceOnUse">
<stop stop-color="#A93AFF"/>
<stop offset="1" stop-color="#FF81FF"/>
</linearGradient>
<linearGradient id="paint1_linear" x1="25.0048" y1="76.8222" x2="58.0055" y2="76.8222" gradientUnits="userSpaceOnUse">
<stop stop-color="#A93AFF"/>
<stop offset="1" stop-color="#FF81FF"/>
</linearGradient>
<linearGradient id="paint2_linear" x1="49.9994" y1="93.8222" x2="97.0721" y2="93.8222" gradientUnits="userSpaceOnUse">
<stop stop-color="#A93AFF"/>
<stop offset="1" stop-color="#FF81FF"/>
</linearGradient>
</defs>
</svg>
