<svg width="64" height="64" viewBox="0 0 64 64" fill="none" xmlns="http://www.w3.org/2000/svg">
<path d="M12.7056 3.3477C14.5631 2.88645 16.4876 3.02186 18.3787 3.00917C30.8109 3.00494 43.2431 3.01763 55.6753 3.0007C56.4971 3.0007 57.4238 2.99647 58.0527 3.61853C59.1681 4.55796 59.1177 6.49607 57.9563 7.38049C57.3357 7.95177 56.451 7.90522 55.6711 7.93061C42.4003 7.91368 29.1253 7.93484 15.8503 7.91792C13.5316 7.84598 10.9739 8.89967 9.94658 11.1171C9.12895 12.8267 10.3365 15.1922 8.69707 16.5421C7.38886 17.71 5.06175 16.8679 4.81017 15.1202C4.66342 13.3895 4.66761 11.5995 5.20012 9.9322C6.28191 6.56378 9.35956 4.14749 12.7056 3.3477Z" fill="url(#paint0_linear)"/>
<path d="M37.3897 12.9747C37.9851 12.6193 38.7105 12.7124 39.373 12.6785C44.6729 12.6997 49.9729 12.6785 55.2728 12.687C57.2603 12.6743 59.4239 13.2964 60.665 14.9721C61.948 16.6098 62.0445 18.7975 62.0193 20.8034C61.9984 31.3826 62.0235 41.9617 62.0067 52.5452C62.0738 55.8036 60.0654 58.9604 57.1135 60.2722C55.2476 61.1863 53.1176 61.017 51.1008 61.0212C38.3751 61.017 25.6494 61.017 12.9236 61.0212C10.9152 61.0128 8.79775 61.1863 6.93606 60.2807C3.96743 58.9689 1.94641 55.7951 2.02188 52.524C2.01769 46.7309 2.00092 40.9377 2.03027 35.1445C1.9506 33.93 2.89402 32.7832 4.09322 32.6394C5.5398 32.3728 6.9738 33.6931 6.86059 35.1699C6.89413 40.9504 6.83962 46.7351 6.88155 52.5156C6.80189 54.4452 8.50843 56.1675 10.4162 56.0871C24.8191 56.0956 39.2262 56.0998 53.6292 56.0829C55.2267 56.1294 56.7487 54.9403 57.059 53.345C57.2309 52.2363 57.1513 51.1106 57.1638 49.9935C57.1555 39.9813 57.168 29.9692 57.1555 19.9612C57.1093 19.0938 57.21 17.6254 55.9898 17.6719C50.8618 17.5111 45.7212 17.6719 40.5932 17.5957C40.0774 17.6296 39.4694 17.4857 39.0711 17.9089C35.7922 20.6764 32.5678 23.5116 29.3014 26.2876C28.7438 26.825 28.0016 27.1001 27.2301 27.0366C19.6492 26.9308 12.0641 26.8716 4.48316 26.7192C2.94014 26.8123 1.66128 25.1874 2.08058 23.6936C2.31958 22.5637 3.42653 21.7386 4.56702 21.819C11.7035 21.8909 18.8399 22.0178 25.9722 22.1109C26.9827 22.1744 27.5907 21.1927 28.3287 20.6595C31.3602 18.1162 34.2701 15.4037 37.3897 12.9747Z" fill="url(#paint1_linear)"/>
<path d="M30.5303 43.167H23.0908V51H19.8789V32.5156H31.6221V35.1055H23.0908V40.6025H30.5303V43.167ZM39.2949 49.4219H45.373V51H36.9043V49.7188L42.7871 41.2188H36.9434V39.625H45.1855V40.875L39.2949 49.4219Z" fill="url(#paint2_linear)"/>
<path d="M30.5303 43.167V44.167L31.5303 43.167H30.5303ZM23.0908 43.167V42.167L22.0908 43.167H23.0908ZM23.0908 51V52L24.0908 51H23.0908ZM19.8789 51H18.8789L19.8789 52V51ZM19.8789 32.5156V31.5156L18.8789 32.5156H19.8789ZM31.6221 32.5156H32.6221L31.6221 31.5156V32.5156ZM31.6221 35.1055V36.1055L32.6221 35.1055H31.6221ZM23.0908 35.1055V34.1055L22.0908 35.1055H23.0908ZM23.0908 40.6025H22.0908L23.0908 41.6025V40.6025ZM30.5303 40.6025H31.5303L30.5303 39.6025V40.6025ZM30.5303 42.167H23.0908V44.167H30.5303V42.167ZM22.0908 43.167V51H24.0908V43.167H22.0908ZM23.0908 50H19.8789V52H23.0908V50ZM20.8789 51V32.5156H18.8789V51H20.8789ZM19.8789 33.5156H31.6221V31.5156H19.8789V33.5156ZM30.6221 32.5156V35.1055H32.6221V32.5156H30.6221ZM31.6221 34.1055H23.0908V36.1055H31.6221V34.1055ZM22.0908 35.1055V40.6025H24.0908V35.1055H22.0908ZM23.0908 41.6025H30.5303V39.6025H23.0908V41.6025ZM29.5303 40.6025V43.167H31.5303V40.6025H29.5303ZM39.2949 49.4219L38.4715 48.8544L39.2949 50.4219V49.4219ZM45.373 49.4219H46.373L45.373 48.4219V49.4219ZM45.373 51V52L46.373 51H45.373ZM36.9043 51H35.9043L36.9043 52V51ZM36.9043 49.7188L36.082 49.1497L35.9043 49.7188H36.9043ZM42.7871 41.2188L43.6094 41.7878L42.7871 40.2188V41.2188ZM36.9434 41.2188H35.9434L36.9434 42.2188V41.2188ZM36.9434 39.625V38.625L35.9434 39.625H36.9434ZM45.1855 39.625H46.1855L45.1855 38.625V39.625ZM45.1855 40.875L46.0089 41.4425L46.1855 40.875H45.1855ZM39.2949 50.4219H45.373V48.4219H39.2949V50.4219ZM44.373 49.4219V51H46.373V49.4219H44.373ZM45.373 50H36.9043V52H45.373V50ZM37.9043 51V49.7188H35.9043V51H37.9043ZM37.7266 50.2878L43.6094 41.7878L41.9648 40.6497L36.082 49.1497L37.7266 50.2878ZM42.7871 40.2188H36.9434V42.2188H42.7871V40.2188ZM37.9434 41.2188V39.625H35.9434V41.2188H37.9434ZM36.9434 40.625H45.1855V38.625H36.9434V40.625ZM44.1855 39.625V40.875H46.1855V39.625H44.1855ZM44.3622 40.3075L38.4715 48.8544L40.1183 49.9894L46.0089 41.4425L44.3622 40.3075Z" fill="url(#paint3_linear)"/>
<defs>
<linearGradient id="paint0_linear" x1="4.72681" y1="10.041" x2="58.8592" y2="10.041" gradientUnits="userSpaceOnUse">
<stop stop-color="#FF823B"/>
<stop offset="0.986957" stop-color="#FF005B"/>
</linearGradient>
<linearGradient id="paint1_linear" x1="1.99905" y1="36.8548" x2="62.0225" y2="36.8548" gradientUnits="userSpaceOnUse">
<stop stop-color="#FF823B"/>
<stop offset="0.986957" stop-color="#FF005B"/>
</linearGradient>
<linearGradient id="paint2_linear" x1="18" y1="51" x2="46" y2="51" gradientUnits="userSpaceOnUse">
<stop stop-color="#FD5900"/>
<stop offset="1" stop-color="#FF007A"/>
</linearGradient>
<linearGradient id="paint3_linear" x1="12.9091" y1="51" x2="44.7415" y2="49.9196" gradientUnits="userSpaceOnUse">
<stop stop-color="#FD5900"/>
<stop offset="1" stop-color="#FF007A"/>
</linearGradient>
</defs>
</svg>
