<svg width="192" height="192" viewBox="0 0 192 192" fill="none" xmlns="http://www.w3.org/2000/svg">
<path d="M165.499 118.907C165.51 114.837 164.997 110.77 163.927 106.835C159.648 91.1015 147.384 78.8995 140.218 64.2535C136.524 56.7031 134.199 47.9143 136.733 39.8997C130.754 45.981 127.91 54.9933 129.316 63.4045C130.851 72.5972 136.948 80.3465 139.921 89.1795C145.422 105.525 138.606 125.176 124.165 134.604C126.636 126.448 125.246 117.59 122.613 109.484C119.98 101.379 116.144 93.7009 113.581 85.5734C109.552 72.7955 110.34 59.2117 111.543 45.889C114.364 14.623 132.74 6.01756 132.74 6.01756C132.74 6.01756 113.956 5.01745 100.175 18.1138C91.5007 26.3583 84.1845 36.3384 80.7792 47.8068C79.7689 51.2109 79.0633 54.7077 78.7091 58.2415C78.629 59.0379 78.0812 61.249 78.4653 61.9414C73.5496 53.0797 64.6085 46.2504 54.5453 45.058C44.4822 43.8661 33.6489 48.9329 29.1084 57.9924C24.568 67.0524 27.5444 79.5166 36.2705 84.6701C34.7834 81.0616 36.0691 76.7452 38.65 73.8177C44.7988 66.8427 56.7917 67.7664 63.7398 73.9456C70.6879 80.1243 73.3298 89.9191 73.561 99.2152C73.8263 109.857 71.8075 120.435 71.7167 131.077C71.596 145.199 75.039 158.608 85.6237 168.601C98.456 180.716 117.088 183.977 134.619 186C117.099 182.3 100.156 172.593 91.2533 157.056C83.6773 143.836 82.593 127.936 82.8236 112.7C82.9992 101.103 83.8965 89.4442 86.5002 78.1181C89.1587 66.5524 94.3205 57.0825 99.7518 46.7098C93.6186 58.4243 97.5144 75.4852 101.792 87.2713C106.405 99.9817 113.925 112.174 114.537 126C114.562 126.544 114.575 127.088 114.576 127.632C114.602 135.868 111.955 143.851 109.338 151.66C121.822 150.757 133.132 143.01 140.489 132.883C147.846 122.757 151.657 110.458 153.825 98.1303C157.24 110.681 156.656 124.287 152.178 136.499C147.699 148.71 139.347 159.467 128.627 166.833C140.914 163.113 151.866 154.902 158.504 143.913C163.032 136.414 165.475 127.652 165.499 118.907" fill="url(#paint0_linear)"/>
<defs>
<linearGradient id="paint0_linear" x1="96.2491" y1="186.296" x2="96.2491" y2="48.1401" gradientUnits="userSpaceOnUse">
<stop stop-color="#E8202A"/>
<stop offset="1" stop-color="#F48517"/>
</linearGradient>
</defs>
</svg>
