<svg width="192" height="192" viewBox="0 0 192 192" fill="none" xmlns="http://www.w3.org/2000/svg">
<path d="M82.352 3.97833C102.46 1.04659 123.605 4.71721 141.305 14.8115C145.058 16.9328 145.595 22.7485 142.389 25.5969C140.1 27.9923 136.298 28.028 133.581 26.3596C118.503 18.1841 100.72 15.0855 83.7823 17.8028C64.7712 20.6869 47.0235 30.8764 34.854 45.7377C22.7322 60.3248 16.1647 79.4049 16.7965 98.3659C17.154 111.499 20.8848 124.513 27.5118 135.858C29.3712 138.611 29.4427 142.616 26.9636 145.024C24.2459 147.931 18.8943 147.705 16.6058 144.392C-1.57101 115.539 -1.47566 76.4851 16.5342 47.573C30.6108 24.274 55.3669 7.78004 82.352 3.97833Z" fill="url(#paint0_linear)" stroke="url(#paint1_linear)" stroke-width="4"/>
<path d="M89.7539 52.6856C91.7921 47.4657 100.171 47.4776 102.185 52.7094C112.865 79.107 123.27 105.623 133.831 132.057C135.666 135.477 134.439 140.196 130.803 141.818C127.443 143.45 122.865 141.949 121.495 138.373C118.503 131.175 115.714 123.893 112.806 116.648C101.578 116.588 90.3498 116.612 79.122 116.635C76.2018 123.906 73.4007 131.247 70.3733 138.469C68.7523 142.628 62.8046 143.736 59.5864 140.793C56.9999 138.659 56.6781 134.822 58.1442 131.949C68.7164 105.54 79.0862 79.0474 89.7539 52.6856ZM84.6525 102.74C92.1854 102.775 99.7302 102.775 107.263 102.74C103.497 93.2651 99.6825 83.8144 95.9638 74.3399C92.233 83.8144 88.4308 93.277 84.6525 102.74Z" fill="url(#paint2_linear)" stroke="url(#paint3_linear)" stroke-width="4"/>
<path d="M170.089 51.041C173.415 49.4322 177.729 51.0529 179.208 54.4256C188.218 72.2901 191.09 93.1221 187.492 112.786C184.428 129.852 176.383 145.965 164.666 158.74C149.505 175.437 128.062 186.342 105.583 188.499C88.7645 190.251 71.434 187.403 56.1774 180.073C51.0999 178.095 50.8734 170.122 55.7602 167.786C58.4301 166.117 61.553 167.31 64.1275 168.524C84.6404 177.726 109.111 177.38 129.421 167.762C148.348 158.978 163.474 142.414 170.482 122.762C177.754 102.8 176.43 79.965 166.978 60.9446C164.916 57.5123 166.347 52.5903 170.089 51.041Z" fill="url(#paint4_linear)" stroke="url(#paint5_linear)" stroke-width="4"/>
<defs>
<linearGradient id="paint0_linear" x1="23.7212" y1="125.956" x2="125.564" y2="25.9217" gradientUnits="userSpaceOnUse">
<stop stop-color="#0072FF"/>
<stop offset="1" stop-color="#00E5A1"/>
</linearGradient>
<linearGradient id="paint1_linear" x1="23.7212" y1="125.955" x2="125.564" y2="25.9213" gradientUnits="userSpaceOnUse">
<stop stop-color="#0072FF"/>
<stop offset="1" stop-color="#00E5A1"/>
</linearGradient>
<linearGradient id="paint2_linear" x1="68.6082" y1="128.753" x2="133.671" y2="75.0066" gradientUnits="userSpaceOnUse">
<stop stop-color="#0072FF"/>
<stop offset="1" stop-color="#00E5A1"/>
</linearGradient>
<linearGradient id="paint3_linear" x1="68.6082" y1="128.753" x2="133.671" y2="75.0066" gradientUnits="userSpaceOnUse">
<stop stop-color="#0072FF"/>
<stop offset="1" stop-color="#00E5A1"/>
</linearGradient>
<linearGradient id="paint4_linear" x1="72.2581" y1="168.705" x2="170.244" y2="72.001" gradientUnits="userSpaceOnUse">
<stop stop-color="#0072FF"/>
<stop offset="1" stop-color="#00E5A1"/>
</linearGradient>
<linearGradient id="paint5_linear" x1="72.2582" y1="168.704" x2="170.244" y2="72.0007" gradientUnits="userSpaceOnUse">
<stop stop-color="#0072FF"/>
<stop offset="1" stop-color="#00E5A1"/>
</linearGradient>
</defs>
</svg>
