<svg width="128" height="128" viewBox="0 0 128 128" fill="none" xmlns="http://www.w3.org/2000/svg">
<path d="M117.332 63.9998C117.332 34.5447 93.4545 10.6665 63.9993 10.6665C34.5441 10.6665 10.666 34.5447 10.666 63.9998C10.666 93.455 34.5441 117.333 63.9993 117.333C93.4545 117.333 117.332 93.455 117.332 63.9998Z" stroke="url(#paint0_linear_678_476)" stroke-width="10"/>
<path fill-rule="evenodd" clip-rule="evenodd" d="M101.333 52.6762L101.33 52.6756C94.3305 23.1038 67.4602 23.3521 51.2343 31.0717C34.1597 39.7011 21.797 61.8211 28.5383 80.3411C38.9623 108.28 77.333 107.861 90.3143 81.8797C94.1204 72.9605 94.5771 67.75 89.7745 59.0048C89.2904 58.1233 87.9997 58.4799 87.9997 59.4855V63.3471C87.9997 64.3364 86.7166 64.725 86.1677 63.902L83.7784 60.3195C83.3208 59.6332 82.262 59.7589 81.9595 60.5263C80.8006 63.467 78.3704 69.0947 75.833 71.6701C70.9346 76.6411 63.5437 72.9239 63.9997 74.6453C64.8467 77.8475 69.0627 80.2535 71.9337 81.5532C72.804 81.9472 72.7708 83.289 71.8564 83.5656C47.9791 90.7866 47.717 74.0444 47.9997 69.3141C48.8423 55.1856 61.2682 44.5051 76.2317 45.2917C79.4643 45.5391 84.9388 47.911 88.136 49.4163C88.9882 49.8176 89.8576 48.9559 89.372 48.1489C86.5074 43.3886 82.3493 40.5937 79.4457 38.9739C78.6706 38.5415 78.7798 37.4306 79.6572 37.2963C89.6602 35.7646 96.5752 46.3773 101.333 52.6743V52.6762Z" fill="url(#paint1_linear_678_476)"/>
<defs>
<linearGradient id="paint0_linear_678_476" x1="63.9993" y1="117.333" x2="63.9993" y2="10.6665" gradientUnits="userSpaceOnUse">
<stop stop-color="#FD5900"/>
<stop offset="1" stop-color="#FFDE00"/>
</linearGradient>
<linearGradient id="paint1_linear_678_476" x1="40.1994" y1="92.518" x2="107.53" y2="33.7698" gradientUnits="userSpaceOnUse">
<stop stop-color="#FE0844"/>
<stop offset="1" stop-color="#FEB302"/>
</linearGradient>
</defs>
</svg>
