<svg width="64" height="64" viewBox="0 0 64 64" fill="none" xmlns="http://www.w3.org/2000/svg">
<path fill-rule="evenodd" clip-rule="evenodd" d="M13.028 4C12.0343 4 11.0288 4.02739 10.0664 4.29346C6.58051 5.20123 3.95534 8.60537 4.0062 12.2169C3.99642 23.1994 4.00022 34.182 4.00403 45.1623C4.00479 47.3576 4.00555 49.5528 4.0062 51.7479C3.88492 56.1537 7.82853 60.1017 12.2299 59.9961H12.2329C25.4164 60 38.5959 60.0039 51.7755 59.9922C56.0243 60.0744 59.8936 56.3885 59.964 52.1314C59.9998 49.2275 59.9947 46.3224 59.9896 43.4175C59.9857 41.2377 59.9819 39.0581 59.9954 36.8793C60.0266 35.9402 59.921 34.8367 59.0407 34.2929C57.7497 33.2873 55.6135 34.2342 55.5392 35.8815C55.4857 38.8959 55.4944 41.9129 55.5032 44.9303C55.5098 47.2081 55.5164 49.4862 55.4962 51.7635C55.547 53.7591 53.7395 55.5551 51.7443 55.5042C38.5754 55.512 25.4027 55.512 12.2338 55.5003C10.2463 55.5433 8.4545 53.7591 8.49362 51.7714C8.4858 38.5774 8.48189 25.3834 8.49362 12.1934C8.47015 10.2174 10.2581 8.44885 12.2299 8.49189C24.7532 8.47233 37.2765 8.49189 49.7999 8.51537C49.8777 8.51491 49.9556 8.51466 50.0335 8.51442C50.6175 8.51259 51.2035 8.51076 51.7834 8.41755C52.9258 8.08105 53.6808 6.75852 53.2896 5.61598C53.0275 4.6104 52.0103 3.94131 50.9892 4.01565C44.2908 3.99908 37.5914 4.00225 30.892 4.00542C24.937 4.00823 18.982 4.01105 13.028 4ZM38.9356 13.3516C35.6062 12.1426 31.9443 11.8804 28.4663 12.5378C22.3161 13.6842 16.8702 17.9374 14.2254 23.6031C11.5846 29.1045 11.7059 35.8267 14.5384 41.2304C17.0619 46.1682 21.7449 49.9363 27.1126 51.3293C31.8778 52.6048 37.1163 52.0335 41.4786 49.7211C46.9245 46.8882 50.9776 41.3907 51.8384 35.2907C51.9362 33.6591 49.9527 32.4891 48.5521 33.303C47.6697 33.7021 47.4417 34.6735 47.2397 35.5341C47.2259 35.5931 47.2122 35.6516 47.1984 35.7094C46.2399 39.853 43.4269 43.5075 39.7063 45.5578C35.9074 47.6982 31.1814 48.1051 27.0774 46.6222C23.0477 45.2057 19.6831 42.0325 18.0282 38.0923C16.3732 34.2577 16.4046 29.7462 18.083 25.9235C19.5383 22.5428 22.2535 19.7334 25.5789 18.1605C29.0335 16.4975 33.1219 16.2041 36.776 17.3623C37.6484 17.6557 38.7126 17.8592 39.4833 17.2135C40.8448 16.2745 40.5396 13.8564 38.9356 13.3516Z" fill="url(#paint0_linear_678_441)"/>
<path d="M10.0664 4.29346L10.1924 4.77738L10.1996 4.77538L10.0664 4.29346ZM13.028 4L13.0289 3.5H13.028V4ZM4.0062 12.2169L4.50625 12.2173L4.50615 12.2098L4.0062 12.2169ZM4.00403 45.1623L4.50403 45.1622L4.00403 45.1623ZM4.0062 51.7479L4.5062 51.7616L4.5062 51.7477L4.0062 51.7479ZM12.2299 59.9961L12.2299 59.4959L12.2179 59.4962L12.2299 59.9961ZM12.2329 59.9961L12.233 59.4961H12.2329V59.9961ZM51.7755 59.9922L51.7852 59.4922L51.7751 59.4922L51.7755 59.9922ZM59.964 52.1314L60.464 52.1397L60.464 52.1375L59.964 52.1314ZM59.9896 43.4175L60.4896 43.4166L60.4896 43.4166L59.9896 43.4175ZM59.9954 36.8793L59.4954 36.8626L59.4954 36.8762L59.9954 36.8793ZM59.0407 34.2929L58.7335 34.6874L58.7549 34.7041L58.7779 34.7183L59.0407 34.2929ZM55.5392 35.8815L55.0395 35.8589L55.0392 35.8726L55.5392 35.8815ZM55.5032 44.9303L56.0032 44.9288L56.0032 44.9288L55.5032 44.9303ZM55.4962 51.7635L54.9962 51.7591L54.9961 51.7677L54.9964 51.7763L55.4962 51.7635ZM51.7443 55.5042L51.757 55.0041L51.744 55.0042L51.7443 55.5042ZM12.2338 55.5003L12.2342 55.0002L12.223 55.0004L12.2338 55.5003ZM8.49362 51.7714L8.99363 51.7812L8.99362 51.7711L8.49362 51.7714ZM8.49362 12.1934L8.99366 12.1938L8.99359 12.1875L8.49362 12.1934ZM12.2299 8.49189L12.219 8.99191L12.2307 8.99189L12.2299 8.49189ZM49.7999 8.51537L49.7989 9.01538L49.8028 9.01536L49.7999 8.51537ZM50.0335 8.51442L50.0319 8.01442L50.0319 8.01442L50.0335 8.51442ZM51.7834 8.41755L51.8627 8.91121L51.8941 8.90617L51.9247 8.89718L51.7834 8.41755ZM53.2896 5.61598L52.8058 5.74212L52.8105 5.76024L52.8166 5.77796L53.2896 5.61598ZM50.9892 4.01565L50.9879 4.51565L51.0067 4.5157L51.0255 4.51433L50.9892 4.01565ZM30.892 4.00542L30.8922 4.50542L30.892 4.00542ZM28.4663 12.5378L28.5579 13.0293L28.5591 13.0291L28.4663 12.5378ZM38.9356 13.3516L38.7649 13.8216L38.7751 13.8253L38.7855 13.8286L38.9356 13.3516ZM14.2254 23.6031L14.6762 23.8195L14.6785 23.8146L14.2254 23.6031ZM14.5384 41.2304L14.9836 41.0028L14.9812 40.9982L14.5384 41.2304ZM27.1126 51.3293L27.2419 50.8462L27.2381 50.8453L27.1126 51.3293ZM41.4786 49.7211L41.2478 49.2775L41.2444 49.2793L41.4786 49.7211ZM51.8384 35.2907L52.3335 35.3605L52.3363 35.3407L52.3375 35.3206L51.8384 35.2907ZM48.5521 33.303L48.7581 33.7586L48.7813 33.7481L48.8033 33.7353L48.5521 33.303ZM47.2397 35.5341L46.753 35.4199L46.753 35.4199L47.2397 35.5341ZM47.1984 35.7094L46.712 35.5931L46.7112 35.5967L47.1984 35.7094ZM39.7063 45.5578L39.465 45.1199L39.4609 45.1222L39.7063 45.5578ZM27.0774 46.6222L27.2473 46.1519L27.2432 46.1505L27.0774 46.6222ZM18.0282 38.0923L18.4892 37.8986L18.4873 37.8941L18.0282 38.0923ZM18.083 25.9235L18.5408 26.1245L18.5423 26.1212L18.083 25.9235ZM25.5789 18.1605L25.7927 18.6125L25.7958 18.611L25.5789 18.1605ZM36.776 17.3623L36.9354 16.8883L36.927 16.8857L36.776 17.3623ZM39.4833 17.2135L39.1994 16.8019L39.1802 16.8152L39.1622 16.8303L39.4833 17.2135ZM10.1996 4.77538C11.0905 4.52908 12.0356 4.5 13.028 4.5V3.5C12.0329 3.5 10.9671 3.5257 9.93314 3.81154L10.1996 4.77538ZM4.50615 12.2098C4.45857 8.83121 6.92673 5.62774 10.1924 4.77732L9.94037 3.8096C6.23429 4.77471 3.45211 8.37953 3.50625 12.2239L4.50615 12.2098ZM4.50403 45.1622C4.50022 34.1818 4.49642 23.1995 4.5062 12.2173L3.5062 12.2164C3.49642 23.1993 3.50022 34.1823 3.50403 45.1625L4.50403 45.1622ZM4.5062 51.7477C4.50555 49.5526 4.50479 47.3574 4.50403 45.1622L3.50403 45.1625C3.50479 47.3578 3.50555 49.553 3.5062 51.748L4.5062 51.7477ZM12.2179 59.4962C8.10215 59.595 4.39262 55.8807 4.50601 51.7616L3.50639 51.7341C3.37721 56.4266 7.5549 60.6085 12.2419 60.4959L12.2179 59.4962ZM12.2329 59.4961H12.2299V60.4961H12.2329V59.4961ZM51.7751 59.4922C38.5958 59.5039 25.4166 59.5 12.233 59.4961L12.2327 60.4961C25.4162 60.5 38.596 60.5039 51.776 60.4922L51.7751 59.4922ZM59.4641 52.1231C59.3983 56.1001 55.7609 59.5692 51.7852 59.4923L51.7658 60.4921C56.2878 60.5796 60.3889 56.6769 60.464 52.1397L59.4641 52.1231ZM59.4896 43.4183C59.4947 46.3239 59.4998 49.2255 59.4641 52.1252L60.464 52.1375C60.4998 49.2296 60.4947 46.3209 60.4896 43.4166L59.4896 43.4183ZM59.4954 36.8762C59.4819 39.0574 59.4857 41.239 59.4896 43.4183L60.4896 43.4166C60.4857 41.2365 60.4819 39.0589 60.4953 36.8823L59.4954 36.8762ZM58.7779 34.7183C59.0847 34.9078 59.271 35.199 59.3793 35.576C59.4903 35.9622 59.5106 36.4111 59.4956 36.8626L60.4951 36.8959C60.5113 36.4083 60.4945 35.8361 60.3404 35.2998C60.1837 34.7544 59.877 34.2218 59.3035 33.8676L58.7779 34.7183ZM56.0386 35.904C56.0656 35.3076 56.4676 34.8053 57.0388 34.5484C57.611 34.291 58.2632 34.3211 58.7335 34.6874L59.348 33.8985C58.5272 33.2591 57.4658 33.2598 56.6286 33.6364C55.7904 34.0134 55.0871 34.8081 55.0397 35.8589L56.0386 35.904ZM56.0032 44.9288C55.9944 41.9106 55.9857 38.8988 56.0391 35.8904L55.0392 35.8726C54.9856 38.8931 54.9944 41.9152 55.0032 44.9317L56.0032 44.9288ZM55.9962 51.768C56.0164 49.4872 56.0098 47.2062 56.0032 44.9288L55.0032 44.9317C55.0098 47.2101 55.0164 49.4852 54.9962 51.7591L55.9962 51.768ZM51.7315 56.004C54.0109 56.0622 56.0542 54.0343 55.996 51.7508L54.9964 51.7763C55.0398 53.4838 53.4682 55.048 51.757 55.0043L51.7315 56.004ZM12.2333 56.0003C25.4025 56.012 38.5755 56.012 51.7446 56.0042L51.744 55.0042C38.5753 55.012 25.4028 55.012 12.2342 55.0003L12.2333 56.0003ZM7.99372 51.7616C7.94899 54.0341 9.97369 56.0493 12.2446 56.0002L12.223 55.0004C10.519 55.0373 8.96001 53.484 8.99353 51.7812L7.99372 51.7616ZM7.99362 12.193C7.98189 25.3833 7.9858 38.5776 7.99362 51.7717L8.99362 51.7711C8.9858 38.5771 8.98189 25.3835 8.99362 12.1938L7.99362 12.193ZM12.2408 7.99201C9.98626 7.9428 7.96682 9.94071 7.99366 12.1993L8.99359 12.1875C8.97347 10.4942 10.5299 8.9549 12.219 8.99177L12.2408 7.99201ZM49.8008 8.01537C37.2774 7.99189 24.7533 7.97232 12.2291 7.99189L12.2307 8.99189C24.753 8.97233 37.2756 8.99189 49.7989 9.01537L49.8008 8.01537ZM50.0319 8.01442C49.9541 8.01466 49.8755 8.01491 49.7969 8.01538L49.8028 9.01536C49.8798 9.0149 49.957 9.01466 50.0351 9.01442L50.0319 8.01442ZM51.704 7.92389C51.1692 8.00985 50.6225 8.01257 50.0319 8.01442L50.0351 9.01442C50.6125 9.01261 51.2378 9.01167 51.8627 8.91121L51.704 7.92389ZM52.8166 5.77796C53.1081 6.62927 52.5342 7.67516 51.6421 7.93792L51.9247 8.89718C53.3174 8.48695 54.2536 6.88778 53.7627 5.45401L52.8166 5.77796ZM51.0255 4.51433C51.825 4.45612 52.6091 4.98781 52.8058 5.74212L53.7734 5.48985C53.4458 4.23299 52.1956 3.42649 50.9528 3.51697L51.0255 4.51433ZM30.8922 4.50542C37.5917 4.50225 44.2904 4.49908 50.9879 4.51565L50.9904 3.51565C44.2912 3.49908 37.591 3.50225 30.8917 3.50542L30.8922 4.50542ZM13.0271 4.5C18.9818 4.51105 24.9373 4.50823 30.8922 4.50542L30.8917 3.50542C24.9366 3.50823 18.9823 3.51105 13.0289 3.5L13.0271 4.5ZM28.5591 13.0291C31.9523 12.3878 35.5229 12.6443 38.7649 13.8216L39.1062 12.8817C35.6894 11.6409 31.9363 11.3731 28.3734 12.0465L28.5591 13.0291ZM14.6785 23.8146C17.2556 18.2937 22.5678 14.1459 28.5579 13.0293L28.3746 12.0462C22.0643 13.2225 16.4847 17.5812 13.7723 23.3916L14.6785 23.8146ZM14.9812 40.9982C12.222 35.7343 12.1038 29.1784 14.6761 23.8195L13.7746 23.3868C11.0654 29.0306 11.1898 35.9191 14.0955 41.4625L14.9812 40.9982ZM27.2381 50.8453C22.0093 49.4884 17.4423 45.814 14.9836 41.0028L14.0931 41.4579C16.6814 46.5225 21.4804 50.3843 26.987 51.8132L27.2381 50.8453ZM41.2444 49.2793C36.9952 51.5319 31.8866 52.0896 27.2418 50.8463L26.9833 51.8122C31.869 53.1201 37.2375 52.5352 41.7127 50.1629L41.2444 49.2793ZM51.3433 35.2208C50.5062 41.1532 46.5575 46.5155 41.2478 49.2775L41.7093 50.1647C47.2915 47.2609 51.4491 41.6283 52.3335 35.3605L51.3433 35.2208ZM48.8033 33.7353C49.3157 33.4376 49.9647 33.4879 50.5001 33.8087C51.0344 34.1288 51.3748 34.669 51.3393 35.2608L52.3375 35.3206C52.3998 34.2807 51.7973 33.4202 51.0141 32.9509C50.2321 32.4823 49.1891 32.3546 48.3008 32.8707L48.8033 33.7353ZM47.7265 35.6484C47.83 35.2074 47.9267 34.8046 48.0913 34.4622C48.2496 34.1332 48.4544 33.896 48.7581 33.7586L48.346 32.8475C47.7673 33.1092 47.417 33.5572 47.1901 34.0288C46.9697 34.4871 46.8514 35.0002 46.753 35.4199L47.7265 35.6484ZM47.6846 35.8256C47.6987 35.7667 47.7127 35.7072 47.7265 35.6484L46.753 35.4199C46.7391 35.4791 46.7256 35.5365 46.7121 35.5931L47.6846 35.8256ZM39.9477 45.9958C43.7897 43.8785 46.6942 40.1074 47.6855 35.8221L46.7112 35.5967C45.7855 39.5986 43.0642 43.1366 39.465 45.1199L39.9477 45.9958ZM26.9075 47.0924C31.1493 48.6252 36.027 48.2047 39.9518 45.9935L39.4609 45.1222C35.7879 47.1916 31.2135 47.5851 27.2473 46.152L26.9075 47.0924ZM17.5672 38.2859C19.2767 42.3561 22.7483 45.6305 26.9116 47.0939L27.2432 46.1505C23.347 44.781 20.0895 41.7089 18.4892 37.8986L17.5672 38.2859ZM17.6252 25.7225C15.8915 29.671 15.8586 34.3271 17.5692 38.2904L18.4873 37.8941C16.8879 34.1884 16.9176 29.8215 18.5408 26.1245L17.6252 25.7225ZM25.3651 17.7085C21.9298 19.3334 19.1273 22.2331 17.6237 25.7258L18.5423 26.1212C19.9493 22.8525 22.5772 20.1335 25.7927 18.6124L25.3651 17.7085ZM36.927 16.8857C33.1512 15.6888 28.9312 15.9919 25.3621 17.7099L25.7958 18.611C29.1359 17.0032 33.0926 16.7193 36.6249 17.8389L36.927 16.8857ZM39.1622 16.8303C38.6209 17.2838 37.8134 17.1836 36.9353 16.8884L36.6166 17.8362C37.4834 18.1277 38.8043 18.4346 39.8044 17.5968L39.1622 16.8303ZM38.7855 13.8286C39.3599 14.0094 39.7389 14.545 39.8261 15.187C39.9135 15.8311 39.6903 16.4634 39.1994 16.8019L39.7672 17.6251C40.6378 17.0247 40.9427 15.9784 40.817 15.0524C40.6909 14.1244 40.1153 13.1987 39.0856 12.8747L38.7855 13.8286Z" fill="url(#paint1_linear_678_441)"/>
<path d="M47.2563 11.054C48.1835 10.8114 49.0872 11.4179 49.4628 12.2474C52.2562 17.1541 55.0965 22.0372 57.8781 26.9478C58.6958 28.1294 57.6904 29.945 56.2389 29.8198C50.4722 29.8354 44.7093 29.8354 38.9465 29.8198C37.4754 29.9528 36.4661 28.1177 37.3033 26.9282C40.0576 22.1429 42.8744 17.3927 45.6288 12.6074C46.0121 11.9578 46.4269 11.1753 47.2563 11.054ZM43.4261 25.3161C46.2117 25.3239 48.9973 25.3239 51.7828 25.3161C50.3939 22.9137 49.0207 20.4994 47.6318 18.097C46.2351 20.5073 44.8267 22.9097 43.4261 25.3161Z" fill="url(#paint2_linear_678_441)"/>
<defs>
<linearGradient id="paint0_linear_678_441" x1="32.084" y1="51.9944" x2="32.084" y2="12.1866" gradientUnits="userSpaceOnUse">
<stop stop-color="#FD2E00"/>
<stop offset="1" stop-color="#FF9900"/>
</linearGradient>
<linearGradient id="paint1_linear_678_441" x1="32.084" y1="51.9944" x2="32.084" y2="12.1866" gradientUnits="userSpaceOnUse">
<stop stop-color="#FD2E00"/>
<stop offset="1" stop-color="#FF9900"/>
</linearGradient>
<linearGradient id="paint2_linear_678_441" x1="47.5856" y1="29.8315" x2="47.5856" y2="11" gradientUnits="userSpaceOnUse">
<stop stop-color="#FDA700"/>
<stop offset="1" stop-color="#FFDE00"/>
</linearGradient>
</defs>
</svg>
