<svg width="24" height="24" viewBox="0 0 24 24" fill="none" xmlns="http://www.w3.org/2000/svg">
<path d="M19.995 7.995C19.995 3.6 16.396 0 12 0C7.604 0 4.005 3.6 4.005 7.995C4.005 10.376 5.05124 12.574 6.81319 14.0881C7.05025 14.2919 7.199 14.5835 7.199 14.8961V21.5685C7.199 22.0161 7.56188 22.379 8.0095 22.379V22.379C8.45713 22.379 8.82 22.7419 8.82 23.1895V23.1895C8.82 23.6371 9.18288 24 9.6305 24H14.369C14.8164 24 15.179 23.6374 15.179 23.19V23.19C15.179 22.7426 15.5419 22.38 15.9893 22.38V22.38C16.4369 22.38 16.8 22.0171 16.8 21.5695V14.9005C16.8 14.5855 16.9511 14.2919 17.191 14.0876C18.0072 13.3924 18.6763 12.5386 19.1564 11.5761C19.7112 10.464 19.9983 9.23772 19.995 7.995ZM9.5925 20.774C9.15758 20.774 8.80501 20.4214 8.80501 19.9865V19.9865C8.80501 19.5516 9.15758 19.199 9.59251 19.199H14.4085C14.8434 19.199 15.196 19.5516 15.196 19.9865V19.9865C15.196 20.4214 14.8434 20.774 14.4085 20.774H9.5925ZM9.5925 17.58C9.15758 17.58 8.80501 17.2274 8.80501 16.7925V16.7925C8.80501 16.3576 9.15758 16.005 9.59251 16.005H14.4085C14.8434 16.005 15.196 16.3576 15.196 16.7925V16.7925C15.196 17.2274 14.8434 17.58 14.4085 17.58H9.5925ZM15.5476 13.3195C15.5496 13.3194 15.5505 13.322 15.5488 13.3232L15.2409 13.529C15.2128 13.5477 15.196 13.5793 15.196 13.613V13.8519C15.196 14.1546 14.9506 14.4 14.6479 14.4H9.35672C9.05202 14.4 8.80501 14.153 8.80501 13.8483V13.8483C8.80501 13.6677 8.71661 13.4985 8.56835 13.3954L8.46 13.32C7.58096 12.7383 6.8603 11.9472 6.36282 11.0178C5.86534 10.0885 5.60665 9.0501 5.61 7.996C5.61 4.471 8.46 1.605 12 1.605C15.54 1.605 18.39 4.456 18.39 7.996C18.3952 9.05043 18.1372 10.0895 17.6396 11.0191C17.1432 11.9465 16.4238 12.7358 15.5463 13.3158C15.5446 13.317 15.5455 13.3196 15.5476 13.3195V13.3195Z" fill="url(#paint0_linear)"/>
<defs>
<linearGradient id="paint0_linear" x1="12" y1="24" x2="12" y2="0" gradientUnits="userSpaceOnUse">
<stop stop-color="#FD0000"/>
<stop offset="1" stop-color="#FA00FF"/>
</linearGradient>
</defs>
</svg>
