<svg width="16" height="16" viewBox="0 0 16 16" fill="none" xmlns="http://www.w3.org/2000/svg">
<path d="M8.00001 1C5.90061 1 4.1134 1.7814 3.3712 2.87501C3.303 2.96881 3.2522 3.06241 3.2032 3.15621C3.1544 3.25021 3.1192 3.34361 3.09 3.43761C3.08 3.46881 3.0764 3.49881 3.0664 3.51961C3.047 3.59261 3.0294 3.65641 3.0196 3.71881C3.0098 3.81261 3 3.90621 3 4.00001C3 4.09387 3.0078 4.19911 3.02734 4.29297C3.03714 4.38657 3.06816 4.48062 3.09766 4.57421C3.12692 4.66808 3.16412 4.76186 3.20312 4.85545C3.25212 4.94945 3.31252 5.03125 3.37092 5.12505C4.13272 6.26046 5.96873 7.00006 7.99993 7.00006C10.0311 7.00006 11.8671 6.26052 12.6289 5.12505C12.6874 5.04159 12.7267 4.96765 12.7657 4.89459C12.7757 4.87379 12.7872 4.86461 12.7969 4.84381C12.8262 4.78141 12.8516 4.70699 12.8711 4.64459C12.8809 4.61339 12.9005 4.58231 12.9102 4.55084C12.93 4.49884 12.9434 4.43904 12.9532 4.38678C12.963 4.34518 12.971 4.30206 12.9805 4.25006C12.9903 4.16659 13.0001 4.08326 13.0001 4.00006C13.0001 3.89579 12.9921 3.80354 12.9728 3.69928C12.9248 3.40748 12.8048 3.13568 12.6288 2.87507C11.8868 1.78147 10.1004 1.00007 8.00077 1.00007L8.00001 1ZM3.3712 7.00002C3.1272 7.34376 3.0001 7.71858 3.0001 8.09378C3.0001 9.69858 5.23631 11 8.00011 11C10.7639 11 13.0001 9.69854 13.0001 8.09378C13.0001 7.71858 12.873 7.34376 12.629 7.00002C11.869 8.09382 10.042 9.00002 8.00101 9.00002C5.96001 9.00002 4.134 8.09382 3.3722 7.00002H3.3712ZM3.3712 11C3.1272 11.344 3.0001 11.7205 3.0001 12.0938C3.0001 13.6991 5.23631 15 8.00011 15C10.7639 15 13.0001 13.6978 13.0001 12.0938C13.0001 11.7205 12.873 11.344 12.629 11C11.8673 12.0934 10.041 13 8.00001 13C5.95901 13 4.1328 12.0934 3.371 11H3.3712Z" fill="url(#paint0_linear_457:28)"/>
<defs>
<linearGradient id="paint0_linear_457:28" x1="12.9705" y1="1.08875" x2="-0.132518" y2="10.3703" gradientUnits="userSpaceOnUse">
<stop stop-color="#FE7970"/>
<stop offset="1" stop-color="#DC3282"/>
</linearGradient>
</defs>
</svg>
