<svg width="16" height="16" viewBox="0 0 16 16" fill="none" xmlns="http://www.w3.org/2000/svg">
<path d="M3.58122 1.00073C3.34744 1.0047 3.11455 1.02335 2.89058 1.04538C1.82737 1.11168 2.48929 1.90383 3.1381 2.06181C4.20077 2.36497 4.19482 3.57166 3.56351 4.32916C2.98579 5.31013 2.11781 4.37815 1.44388 4.05724C0.43917 3.89068 1.40958 5.28664 1.72891 5.62882C2.20753 6.3689 3.02212 6.72387 3.85975 6.5962C4.91133 6.44567 5.65089 7.34165 6.34501 8.01708C8.30046 9.83996 10.291 11.8346 12.2581 13.8344C12.5473 14.082 12.8631 14.3643 13.0857 14.681C14.1664 15.6961 15.7779 14.0773 14.5707 12.7806C12.0705 10.478 9.50122 7.82691 7.19098 5.57344C6.81287 5.20312 6.45981 4.81155 6.21844 4.32947C5.81036 3.48425 6.24553 2.35509 5.48905 1.67838C4.99161 1.11118 4.28258 0.98913 3.58122 1.00073Z" fill="url(#paint0_linear_457:22)"/>
<path d="M14 3L13.0128 3.51575L8.01025 8.51828C7.7952 8.3914 7.54873 8.32775 7.29914 8.33464C6.95405 8.34495 6.62655 8.48931 6.38615 8.73709L2.4047 12.7185C2.27804 12.841 2.17703 12.9874 2.10755 13.1493C2.03808 13.3112 2.00153 13.4854 2.00005 13.6615C1.99856 13.8377 2.03216 14.0124 2.0989 14.1754C2.16563 14.3385 2.26416 14.4866 2.38874 14.6112C2.51331 14.7358 2.66145 14.8343 2.8245 14.901C2.98755 14.9678 3.16226 15.0014 3.33844 14.9999C3.51461 14.9984 3.68873 14.9619 3.85064 14.8924C4.01254 14.823 4.159 14.722 4.28147 14.5953L8.26291 10.6139C8.47591 10.4067 8.61324 10.1341 8.65291 9.8396C8.69259 9.54514 8.6323 9.24589 8.48172 8.98975L13.5507 3.9208L14 3Z" fill="url(#paint1_linear_457:22)" stroke="url(#paint2_linear_457:22)"/>
<defs>
<linearGradient id="paint0_linear_457:22" x1="7.99999" y1="15" x2="7.99999" y2="1" gradientUnits="userSpaceOnUse">
<stop stop-color="#5570FF"/>
<stop offset="1" stop-color="#4DD3FF"/>
</linearGradient>
<linearGradient id="paint1_linear_457:22" x1="8" y1="15" x2="8" y2="3" gradientUnits="userSpaceOnUse">
<stop stop-color="#5570FF"/>
<stop offset="1" stop-color="#4DD3FF"/>
</linearGradient>
<linearGradient id="paint2_linear_457:22" x1="8" y1="15" x2="8" y2="3" gradientUnits="userSpaceOnUse">
<stop stop-color="#5570FF"/>
<stop offset="1" stop-color="#4DD3FF"/>
</linearGradient>
</defs>
</svg>
