<svg width="192" height="192" viewBox="0 0 192 192" fill="none" xmlns="http://www.w3.org/2000/svg">
<path d="M125.429 20C122.43 20 120 22.4305 120 25.4286V27.2381C120 30.2362 122.43 32.6667 125.429 32.6667H133.029C140.224 32.6667 146.057 38.3375 146.057 45.3333V67.1041V70.6667V83.3333C146.057 86.4162 146.792 89.3452 148.118 91.9327C149.399 94.4352 149.399 97.5648 148.118 100.067C146.792 102.655 146.057 105.584 146.057 108.667V121.333V134V146.667C146.057 153.662 140.224 159.333 133.029 159.333H125.429C122.43 159.333 120 161.764 120 164.762V166.571C120 169.569 122.43 172 125.429 172H133.029C147.42 172 159.086 160.659 159.086 146.667V134V121.333V108.667C159.086 105.169 162.002 102.333 165.6 102.333H166.686C169.683 102.333 172.114 99.9029 172.114 96.9047V95.0953C172.114 92.0971 169.683 89.6667 166.686 89.6667H165.6C162.002 89.6667 159.086 86.8312 159.086 83.3333V70.6667V45.3333C159.086 31.3427 147.419 20 133.029 20H125.429Z" fill="url(#paint0_linear_581_234)"/>
<path d="M33.0286 45.3333C33.0286 31.3427 44.6953 20 59.0857 20H66.6857C69.6838 20 72.1143 22.4305 72.1143 25.4286V27.2381C72.1143 30.2362 69.6838 32.6667 66.6857 32.6667H59.0857C51.891 32.6667 46.0571 38.3375 46.0571 45.3333V67.1041V70.6667V83.3333C46.0571 86.4162 45.3224 89.3452 43.9969 91.9327C42.7149 94.4352 42.7149 97.5648 43.9969 100.067C45.3224 102.655 46.0571 105.584 46.0571 108.667V121.333V134V146.667C46.0571 153.662 51.8903 159.333 59.0857 159.333H66.6857C69.6838 159.333 72.1143 161.764 72.1143 164.762V166.571C72.1143 169.569 69.6838 172 66.6857 172H59.0857C44.6948 172 33.0286 160.659 33.0286 146.667V134V121.333V108.667C33.0286 105.169 30.112 102.333 26.5143 102.333H25.4286C22.4305 102.333 20 99.9029 20 96.9047V95.0953C20 92.0971 22.4305 89.6667 25.4286 89.6667H26.5143C30.112 89.6667 33.0286 86.8312 33.0286 83.3333V70.6667V45.3333Z" fill="url(#paint1_linear_581_234)"/>
<path d="M79.9278 43.6723C77.5529 45.2555 77.5529 48.7454 79.9278 50.3287L93.7174 59.5217C95.061 60.4174 96.8114 60.4174 98.155 59.5217L111.945 50.3286C114.32 48.7454 114.32 45.2555 111.945 43.6722L98.155 34.4792C96.8114 33.5835 95.061 33.5835 93.7174 34.4792L79.9278 43.6723Z" fill="url(#paint2_linear_581_234)"/>
<path d="M79.9278 141.671C77.5529 143.255 77.5529 146.744 79.9278 148.328L93.7174 157.521C95.061 158.417 96.8114 158.417 98.155 157.521L111.945 148.328C114.319 146.744 114.319 143.255 111.945 141.671L98.155 132.478C96.8114 131.583 95.061 131.583 93.7174 132.478L79.9278 141.671Z" fill="url(#paint3_linear_581_234)"/>
<path d="M66.7165 92.5477C64.1272 94.1013 64.1272 97.854 66.7165 99.4076L93.9449 115.745C95.2117 116.505 96.7942 116.505 98.0609 115.745L125.289 99.4076C127.879 97.854 127.879 94.1013 125.289 92.5477L98.0609 76.2104C96.7942 75.4504 95.2117 75.4504 93.9449 76.2104L66.7165 92.5477Z" fill="url(#paint4_linear_581_234)"/>
<defs>
<linearGradient id="paint0_linear_581_234" x1="146.057" y1="172" x2="146.057" y2="20" gradientUnits="userSpaceOnUse">
<stop stop-color="#FD5900"/>
<stop offset="1" stop-color="#FFDE00"/>
</linearGradient>
<linearGradient id="paint1_linear_581_234" x1="46.0571" y1="172" x2="46.0571" y2="20" gradientUnits="userSpaceOnUse">
<stop stop-color="#FD5900"/>
<stop offset="1" stop-color="#FFDE00"/>
</linearGradient>
<linearGradient id="paint2_linear_581_234" x1="96.0029" y1="159" x2="96.0029" y2="33" gradientUnits="userSpaceOnUse">
<stop stop-color="#FD5900"/>
<stop offset="1" stop-color="#FF007A"/>
</linearGradient>
<linearGradient id="paint3_linear_581_234" x1="96.0029" y1="159" x2="96.0029" y2="33" gradientUnits="userSpaceOnUse">
<stop stop-color="#FD5900"/>
<stop offset="1" stop-color="#FF007A"/>
</linearGradient>
<linearGradient id="paint4_linear_581_234" x1="96.0029" y1="159" x2="96.0029" y2="33" gradientUnits="userSpaceOnUse">
<stop stop-color="#FD5900"/>
<stop offset="1" stop-color="#FF007A"/>
</linearGradient>
</defs>
</svg>
