<svg width="64" height="64" viewBox="0 0 64 64" fill="none" xmlns="http://www.w3.org/2000/svg">
<path d="M1.08771 5.64632C2.49882 2.40025 5.78254 -0.0254288 9.38576 0.0144819C13.5437 0.00561286 17.706 -0.0165594 21.8683 0.0277858C23.2883 -0.0476011 24.5175 1.3138 24.3666 2.7151C24.3222 4.04103 23.0753 5.13192 21.7574 5.06096C17.6439 5.10531 13.5303 5.01218 9.41682 5.09201C7.07828 5.0654 5.41423 7.29596 5.4941 9.50879C4.19837 8.01879 2.41895 7.08754 1.08771 5.64632Z" fill="url(#paint0_linear)"/>
<path d="M39.3433 2.64415C39.2545 1.32266 40.3728 0.0189148 41.7262 0.0366529C46.0217 -0.0298649 50.3216 0.0144798 54.617 0.0144798C58.6995 -0.0387345 62.3826 3.06986 63.35 6.97668C63.6872 10.7416 63.4387 14.5287 63.5142 18.3024C63.0393 18.2359 62.5645 18.1694 62.0942 18.1029C62.0187 17.655 61.9433 17.2027 61.8678 16.7548C61.0514 16.1561 60.2393 15.5486 59.4627 14.9012C59.2142 14.2449 58.9125 13.6063 58.5131 13.0298C58.3756 11.3402 58.6462 9.61521 58.2913 7.95227C57.8653 6.3381 56.3077 5.11861 54.6348 5.092C50.3526 5.00775 46.0705 5.11861 41.7927 5.05209C40.5014 5.0654 39.3699 3.92129 39.3433 2.64415Z" fill="url(#paint1_linear)"/>
<path d="M0.674784 7.00772C0.794596 6.54653 0.950146 6.09864 1.08771 5.64632C2.41895 7.08754 4.19837 8.01879 5.4941 9.50879C5.62279 15.4023 5.48943 21.3002 5.56486 27.1981C4.73949 26.5773 3.82094 26.0939 2.97339 25.5041C2.04596 24.5507 1.39365 23.3667 0.515036 22.3689C0.586036 17.2515 0.2976 12.1118 0.674784 7.00772Z" fill="url(#paint2_linear)"/>
<path d="M0.0980205 8.87022C0.164583 8.22721 0.0136015 7.41126 0.674784 7.00772C0.2976 12.1118 0.586036 17.2515 0.515036 22.3689C0.488412 27.6371 0.506268 32.9053 0.50183 38.1735C0.510705 43.4905 0.48408 48.8119 0.510705 54.1289C0.444143 58.6654 4.37574 62.8073 8.91527 62.9625C14.1825 63.0334 19.4498 62.9758 24.7171 62.9802C30.0376 62.9935 35.3581 63.0024 40.6787 62.9758C45.3424 62.9935 50.0062 63.0024 54.6656 62.9847C56.9597 63.0068 59.1385 61.9869 60.8115 60.4614C62.3246 58.8827 63.4074 56.8118 63.4828 54.599C63.5627 51.8895 63.4873 49.18 63.5139 46.4705C63.5139 41.7877 63.5139 37.1048 63.5139 32.4264C63.5139 27.7169 63.5142 23.0119 63.5142 18.3024C63.4387 14.5287 63.6872 10.7416 63.35 6.97668C63.7937 7.35804 63.9976 7.84141 63.9621 8.42677C63.9177 16.4089 63.9532 24.3955 63.9443 32.382C63.789 40.0759 64.1706 47.7743 63.8999 55.4681C63.6337 60.3106 58.9477 64.1997 54.173 63.9913C39.3829 63.9824 24.5928 64.0002 9.80276 63.9957C5.1878 64.1421 0.648267 60.5058 0.13352 55.8628C0.0137086 50.1024 0.027021 44.3375 0.0225835 38.5726C0.266644 33.402 -0.154915 28.2269 0.0669583 23.0518C0.129083 18.3246 0.0447709 13.5974 0.0980205 8.87022Z" fill="url(#paint3_linear)"/>
<path d="M38.7742 9.4334C39.8125 8.4312 41.592 8.35582 42.7102 9.2782C44.2456 10.5509 45.6301 11.9921 47.1122 13.3225C48.0174 14.2005 49.109 14.9766 49.6105 16.1739C49.7214 17.1849 49.677 18.298 48.936 19.0829C47.2719 21.0075 45.457 22.8035 43.7486 24.6926C43.5755 24.36 43.4024 24.0274 43.2294 23.6948C42.8611 23.717 42.4928 23.7347 42.1245 23.7569C41.6985 22.7015 41.1127 21.717 40.4205 20.8124C41.521 19.6328 42.6215 18.4532 43.6909 17.247C42.8566 16.2803 41.9159 15.4067 40.8953 14.6395C39.8658 15.6595 38.8851 16.7149 37.9044 17.7792C36.5466 16.7858 34.4743 16.236 34.0749 14.3868C35.6813 12.7726 37.1412 11.0165 38.7742 9.4334Z" fill="url(#paint4_linear)"/>
<path d="M58.5131 13.0298C58.9125 13.6063 59.2142 14.2449 59.4627 14.9012C60.2393 15.5486 61.0514 16.1561 61.8678 16.7548C61.9433 17.2027 62.0187 17.655 62.0942 18.1029C62.5645 18.1694 63.0393 18.2359 63.5142 18.3024C63.5142 23.0119 63.5139 27.7169 63.5139 32.4264C61.619 31.1492 60.2347 29.3089 58.4864 27.8633C58.473 22.9188 58.4288 17.9743 58.5131 13.0298Z" fill="url(#paint5_linear)"/>
<path d="M26.5806 22.4531C29.07 19.757 31.6032 17.1007 34.0749 14.3868C34.4743 16.236 36.5466 16.7858 37.9044 17.7792C35.3795 20.4887 32.8463 23.1937 30.3214 25.9076C29.8244 25.6637 29.3274 25.4198 28.8304 25.1715C28.6085 25.2558 28.3911 25.3445 28.1692 25.4287C27.7166 24.3955 27.1886 23.4021 26.5806 22.4531Z" fill="url(#paint6_linear)"/>
<path d="M49.6105 16.1739L50.1217 16.0674C50.1706 17.2204 50.388 18.4887 49.7534 19.5308C47.3395 22.5684 44.637 25.3578 41.8858 28.0894C39.9467 30.7058 37.4439 32.8033 35.2829 35.2157C33.2727 37.9119 30.5703 39.9739 28.4536 42.577C27.6416 43.6147 26.4967 44.3951 25.1788 44.608C22.5829 45.047 19.9559 45.2555 17.3467 45.588C16.3039 45.7699 15.0791 45.5747 14.5822 44.5282L15.0614 44.5193C18.7844 44.3464 22.4941 43.7876 26.1817 43.2555C27.6371 42.3065 28.6178 40.7633 29.8692 39.566C32.0569 37.2334 34.2312 34.8875 36.4144 32.5506C38.8639 29.9342 41.2991 27.309 43.7486 24.6926C45.457 22.8035 47.2719 21.0075 48.936 19.0829C49.677 18.298 49.7214 17.1849 49.6105 16.1739Z" fill="url(#paint7_linear)"/>
<path d="M32.7307 29.0473C35.2956 26.3067 37.8512 23.5529 40.4205 20.8124C41.1127 21.717 41.6985 22.7015 42.1245 23.7569C42.4928 23.7347 42.8611 23.717 43.2294 23.6948C43.4024 24.0274 43.5755 24.36 43.7486 24.6926C41.2991 27.309 38.8639 29.9342 36.4144 32.5506C35.2296 31.3399 34.0043 30.1692 32.7307 29.0473Z" fill="url(#paint8_linear)"/>
<path d="M0.515036 22.3689C1.39365 23.3667 2.04596 24.5507 2.97339 25.5041C3.82094 26.0939 4.73949 26.5773 5.56486 27.1981C5.52049 32.484 5.56052 37.77 5.54277 43.0559C3.49709 41.8453 1.90407 40.0626 0.50183 38.1735C0.506268 32.9053 0.488412 27.6371 0.515036 22.3689Z" fill="url(#paint9_linear)"/>
<path d="M20.7894 57.9559C25.4576 57.9692 30.1258 57.916 34.7984 57.9825C35.9566 59.477 38.0688 59.8406 38.9874 61.57C39.5598 62.0312 40.124 62.4969 40.6787 62.9758C35.3581 63.0024 30.0376 62.9935 24.7171 62.9802C24.3399 61.8938 23.4963 61.1266 22.5555 60.5235C22.4579 60.0756 22.3603 59.6277 22.2627 59.1843C21.9742 59.3262 21.6902 59.4681 21.4018 59.6144C21.1977 59.0601 20.9936 58.5058 20.7894 57.9559Z" fill="url(#paint10_linear)"/>
<path d="M19.5699 29.9652C21.9041 27.4597 24.2376 24.9542 26.5806 22.4531C27.1886 23.4021 27.7166 24.3955 28.1692 25.4287C28.3911 25.3445 28.6085 25.2558 28.8304 25.1715C29.3274 25.4198 29.8244 25.6637 30.3214 25.9076C27.9562 28.4309 25.6093 30.9719 23.2397 33.4951C22.4676 31.9031 21.2695 30.5816 19.5699 29.9652Z" fill="url(#paint11_linear)"/>
<path d="M26.1378 36.1115C28.3387 33.7612 30.5308 31.402 32.7318 29.0473C34.0054 30.1692 35.2296 31.3399 36.4144 32.5506C34.2312 34.8875 32.0569 37.2334 29.8692 39.566C28.7288 38.311 27.5001 37.1314 26.1378 36.1115Z" fill="url(#paint12_linear)"/>
<path d="M58.4864 27.8633C60.2347 29.3089 61.619 31.1492 63.5139 32.4264C63.5139 37.1048 63.5139 41.7877 63.5139 46.4705C62.7284 46.1291 61.8988 45.8541 61.2287 45.3131C60.501 44.1158 60.3146 42.1424 58.473 42.2843C58.473 37.4773 58.4509 32.6703 58.4864 27.8633Z" fill="url(#paint13_linear)"/>
<path d="M15.8956 35.0871C16.0154 32.8122 18.3363 31.6503 19.5699 29.9652C21.2695 30.5816 22.4676 31.9031 23.2397 33.4951C22.4898 34.3199 21.6332 35.0694 21.0164 36.0095C20.7191 36.9274 20.688 37.9075 20.5549 38.8609C21.6776 38.75 22.7958 38.6258 23.9185 38.4928C24.6596 37.699 25.4011 36.9052 26.1378 36.1115C27.5001 37.1314 28.7288 38.311 29.8692 39.566C28.6178 40.7633 27.6371 42.3065 26.1817 43.2555C22.4941 43.7876 18.7844 44.3464 15.0614 44.5193C14.8795 43.8941 14.8306 43.2644 14.9237 42.6258C15.2521 40.1114 15.5938 37.6015 15.8956 35.0871Z" fill="url(#paint14_linear)"/>
<path d="M14.8662 50.8917C14.4536 49.2864 15.5718 47.384 17.3423 47.455C26.9583 47.3885 36.5788 47.455 46.1992 47.4195C47.2908 47.384 48.5777 47.4816 49.2256 48.506C50.0465 49.5835 49.6604 51.0824 48.8306 52.0403C47.8455 52.395 46.7983 52.5458 45.751 52.5148C36.2859 52.4616 26.8208 52.5502 17.3557 52.4748C16.2463 52.5458 15.4786 51.6899 14.8662 50.8917Z" fill="url(#paint15_linear)"/>
<path d="M0.50183 38.1735C1.90407 40.0626 3.49709 41.8453 5.54277 43.0559C5.56939 46.7366 5.50799 50.4172 5.57011 54.0979C5.58343 56.1333 7.37173 57.9204 9.40409 57.9293C13.1981 57.9958 16.9966 57.9337 20.7906 57.9559C20.9948 58.5058 21.1989 59.0601 21.403 59.6144C21.6914 59.4681 21.9754 59.3262 22.2639 59.1843C22.3615 59.6277 22.4591 60.0756 22.5567 60.5235C23.4975 61.1266 24.3399 61.8938 24.7171 62.9802C19.4498 62.9758 14.1825 63.0334 8.91527 62.9625C4.37574 62.8073 0.444143 58.6654 0.510705 54.1289C0.48408 48.8119 0.510705 43.4905 0.50183 38.1735Z" fill="url(#paint16_linear)"/>
<path d="M58.473 42.2843C60.3146 42.1424 60.501 44.1158 61.2287 45.3131C61.8988 45.8541 62.7284 46.1291 63.5139 46.4705C63.4873 49.18 63.5627 51.8895 63.4828 54.599C63.4074 56.8118 62.3246 58.8827 60.8115 60.4614C59.8619 59.5036 58.912 58.5413 57.9845 57.5612C57.8692 57.6322 57.634 57.7785 57.5186 57.8539C57.3722 57.6898 57.0838 57.3617 56.9418 57.202C57.7316 56.3417 58.4505 55.3174 58.446 54.1023C58.5126 50.1645 58.442 46.2222 58.473 42.2843Z" fill="url(#paint17_linear)"/>
<path d="M14.8662 50.8917C15.4786 51.6899 16.2463 52.5458 17.3557 52.4748C26.8208 52.5502 36.2859 52.4616 45.751 52.5148C46.7983 52.5458 47.8455 52.395 48.8306 52.0403L49.3449 51.8806C48.5772 53.5879 46.4605 53.4904 44.8808 53.6633C36.4496 53.721 28.0228 53.6101 19.5916 53.6367C17.7856 53.5746 14.7021 53.3529 14.8662 50.8917Z" fill="url(#paint18_linear)"/>
<path d="M54.2046 57.9515C55.1764 57.9958 56.0765 57.5923 56.9418 57.202C57.0838 57.3617 57.3722 57.6898 57.5186 57.8539C57.634 57.7785 57.8692 57.6322 57.9845 57.5612C58.912 58.5413 59.8619 59.5036 60.8115 60.4614C59.1385 61.9869 56.9597 63.0068 54.6656 62.9847C50.0062 63.0024 45.3424 62.9935 40.6787 62.9758C40.124 62.4969 39.5609 62.0312 38.9884 61.5701C38.0699 59.8406 35.9566 59.477 34.7984 57.9825C41.2639 57.9116 47.7347 57.9825 54.2046 57.9515Z" fill="url(#paint19_linear)"/>
<defs>
<linearGradient id="paint0_linear" x1="32" y1="64" x2="32" y2="0" gradientUnits="userSpaceOnUse">
<stop stop-color="#5570FF"/>
<stop offset="1" stop-color="#4DD3FF"/>
</linearGradient>
<linearGradient id="paint1_linear" x1="32" y1="64" x2="32" y2="0" gradientUnits="userSpaceOnUse">
<stop stop-color="#5570FF"/>
<stop offset="1" stop-color="#4DD3FF"/>
</linearGradient>
<linearGradient id="paint2_linear" x1="32" y1="64" x2="32" y2="0" gradientUnits="userSpaceOnUse">
<stop stop-color="#5570FF"/>
<stop offset="1" stop-color="#4DD3FF"/>
</linearGradient>
<linearGradient id="paint3_linear" x1="32" y1="64" x2="32" y2="0" gradientUnits="userSpaceOnUse">
<stop stop-color="#5570FF"/>
<stop offset="1" stop-color="#4DD3FF"/>
</linearGradient>
<linearGradient id="paint4_linear" x1="32" y1="64" x2="32" y2="0" gradientUnits="userSpaceOnUse">
<stop stop-color="#5570FF"/>
<stop offset="1" stop-color="#4DD3FF"/>
</linearGradient>
<linearGradient id="paint5_linear" x1="32" y1="64" x2="32" y2="0" gradientUnits="userSpaceOnUse">
<stop stop-color="#5570FF"/>
<stop offset="1" stop-color="#4DD3FF"/>
</linearGradient>
<linearGradient id="paint6_linear" x1="32" y1="64" x2="32" y2="0" gradientUnits="userSpaceOnUse">
<stop stop-color="#5570FF"/>
<stop offset="1" stop-color="#4DD3FF"/>
</linearGradient>
<linearGradient id="paint7_linear" x1="32" y1="64" x2="32" y2="0" gradientUnits="userSpaceOnUse">
<stop stop-color="#5570FF"/>
<stop offset="1" stop-color="#4DD3FF"/>
</linearGradient>
<linearGradient id="paint8_linear" x1="32" y1="64" x2="32" y2="0" gradientUnits="userSpaceOnUse">
<stop stop-color="#5570FF"/>
<stop offset="1" stop-color="#4DD3FF"/>
</linearGradient>
<linearGradient id="paint9_linear" x1="32" y1="64" x2="32" y2="0" gradientUnits="userSpaceOnUse">
<stop stop-color="#5570FF"/>
<stop offset="1" stop-color="#4DD3FF"/>
</linearGradient>
<linearGradient id="paint10_linear" x1="32" y1="64" x2="32" y2="0" gradientUnits="userSpaceOnUse">
<stop stop-color="#5570FF"/>
<stop offset="1" stop-color="#4DD3FF"/>
</linearGradient>
<linearGradient id="paint11_linear" x1="32" y1="64" x2="32" y2="0" gradientUnits="userSpaceOnUse">
<stop stop-color="#5570FF"/>
<stop offset="1" stop-color="#4DD3FF"/>
</linearGradient>
<linearGradient id="paint12_linear" x1="32" y1="64" x2="32" y2="0" gradientUnits="userSpaceOnUse">
<stop stop-color="#5570FF"/>
<stop offset="1" stop-color="#4DD3FF"/>
</linearGradient>
<linearGradient id="paint13_linear" x1="32" y1="64" x2="32" y2="0" gradientUnits="userSpaceOnUse">
<stop stop-color="#5570FF"/>
<stop offset="1" stop-color="#4DD3FF"/>
</linearGradient>
<linearGradient id="paint14_linear" x1="32" y1="64" x2="32" y2="0" gradientUnits="userSpaceOnUse">
<stop stop-color="#5570FF"/>
<stop offset="1" stop-color="#4DD3FF"/>
</linearGradient>
<linearGradient id="paint15_linear" x1="32" y1="64" x2="32" y2="0" gradientUnits="userSpaceOnUse">
<stop stop-color="#5570FF"/>
<stop offset="1" stop-color="#4DD3FF"/>
</linearGradient>
<linearGradient id="paint16_linear" x1="32" y1="64" x2="32" y2="0" gradientUnits="userSpaceOnUse">
<stop stop-color="#5570FF"/>
<stop offset="1" stop-color="#4DD3FF"/>
</linearGradient>
<linearGradient id="paint17_linear" x1="32" y1="64" x2="32" y2="0" gradientUnits="userSpaceOnUse">
<stop stop-color="#5570FF"/>
<stop offset="1" stop-color="#4DD3FF"/>
</linearGradient>
<linearGradient id="paint18_linear" x1="32" y1="64" x2="32" y2="0" gradientUnits="userSpaceOnUse">
<stop stop-color="#5570FF"/>
<stop offset="1" stop-color="#4DD3FF"/>
</linearGradient>
<linearGradient id="paint19_linear" x1="32" y1="64" x2="32" y2="0" gradientUnits="userSpaceOnUse">
<stop stop-color="#5570FF"/>
<stop offset="1" stop-color="#4DD3FF"/>
</linearGradient>
</defs>
</svg>
