<svg width="64" height="64" viewBox="0 0 64 64" fill="none" xmlns="http://www.w3.org/2000/svg">
<path d="M45.64 15C43.3603 15 41.1028 15.449 38.9966 16.3214C36.8904 17.1939 34.9767 18.4726 33.3646 20.0846C31.7526 21.6966 30.4739 23.6104 29.6015 25.7166C28.729 27.8228 28.28 30.0802 28.28 32.36C28.28 34.6397 28.729 36.8972 29.6015 39.0034C30.4739 41.1096 31.7526 43.0233 33.3646 44.6354C34.9766 46.2474 36.8904 47.5261 38.9966 48.3985C41.1028 49.271 43.3603 49.72 45.64 49.72C47.9198 49.72 50.1772 49.271 52.2834 48.3985C54.3896 47.5261 56.3034 46.2474 57.9154 44.6354C59.5274 43.0233 60.8061 41.1096 61.6786 39.0034C62.551 36.8972 63 34.6397 63 32.36C63 27.7558 61.171 23.3403 57.9154 20.0846C54.6597 16.829 50.2442 15 45.64 15V15ZM13.4 19.96C11.7716 19.96 10.1592 20.2807 8.65473 20.9039C7.15029 21.5271 5.78332 22.4404 4.63188 23.5919C3.48043 24.7433 2.56705 26.1103 1.94389 27.6147C1.32074 29.1192 1 30.7316 1 32.36C1 33.9884 1.32074 35.6008 1.94389 37.1053C2.56705 38.6097 3.48043 39.9767 4.63188 41.1281C5.78332 42.2796 7.15029 43.1929 8.65473 43.8161C10.1592 44.4393 11.7716 44.76 13.4 44.76C15.0284 44.76 16.6408 44.4393 18.1453 43.8161C19.6497 43.1929 21.0167 42.2796 22.1681 41.1281C23.3196 39.9767 24.2329 38.6097 24.8561 37.1053C25.4793 35.6008 25.8 33.9884 25.8 32.36C25.8 29.0713 24.4936 25.9173 22.1681 23.5919C19.8427 21.2664 16.6887 19.96 13.4 19.96V19.96ZM45.64 19.96C48.9287 19.96 52.0827 21.2664 54.4081 23.5919C56.7336 25.9173 58.04 29.0713 58.04 32.36C58.04 33.9884 57.7193 35.6008 57.0961 37.1053C56.4729 38.6097 55.5596 39.9767 54.4081 41.1281C53.2567 42.2796 51.8897 43.1929 50.3853 43.8161C48.8808 44.4393 47.2684 44.76 45.64 44.76C44.0116 44.76 42.3992 44.4393 40.8947 43.8161C39.3903 43.1929 38.0233 42.2796 36.8719 41.1281C35.7204 39.9767 34.8071 38.6097 34.1839 37.1053C33.5607 35.6008 33.24 33.9884 33.24 32.36C33.24 30.7316 33.5607 29.1192 34.1839 27.6147C34.8071 26.1103 35.7204 24.7433 36.8719 23.5919C38.0233 22.4404 39.3903 21.5271 40.8947 20.9039C42.3992 20.2807 44.0116 19.96 45.64 19.96V19.96ZM13.4 24.92C15.3732 24.92 17.2656 25.7039 18.6609 27.0991C20.0561 28.4944 20.84 30.3868 20.84 32.36C20.84 33.337 20.6476 34.3045 20.2737 35.2072C19.8998 36.1098 19.3517 36.93 18.6609 37.6209C17.97 38.3117 17.1498 38.8598 16.2472 39.2337C15.3445 39.6076 14.377 39.8 13.4 39.8C12.423 39.8 11.4555 39.6076 10.5528 39.2337C9.65017 38.8598 8.82999 38.3117 8.13913 37.6209C7.44826 36.93 6.90023 36.1098 6.52634 35.2072C6.15244 34.3045 5.96 33.337 5.96 32.36C5.96 30.3868 6.74386 28.4944 8.13913 27.0991C9.5344 25.7039 11.4268 24.92 13.4 24.92V24.92Z" fill="url(#paint0_linear)"/>
<defs>
<linearGradient id="paint0_linear" x1="32" y1="49.72" x2="32" y2="15" gradientUnits="userSpaceOnUse">
<stop stop-color="#FD3AAF"/>
<stop offset="1" stop-color="#FF8DD1"/>
</linearGradient>
</defs>
</svg>
