<svg width="64" height="64" viewBox="0 0 64 64" fill="none" xmlns="http://www.w3.org/2000/svg">
<g clip-path="url(#clip0)">
<g clip-path="url(#clip1)">
<path d="M57.1079 58.3714L57.0337 58.5491L57.0979 58.7306L58.3224 62.194C58.3225 62.1941 58.3225 62.1941 58.3225 62.1942C58.5531 62.8474 58.2235 63.5493 57.6238 63.7752L57.623 63.7756C57.0379 63.9971 56.358 63.6928 56.1293 63.0445L56.1292 63.0441L49.2666 43.6363L49.1457 43.2944L48.7831 43.3032L45.0701 43.3926L44.5703 43.4046L44.5823 43.9045L44.6239 45.6325C44.6406 46.3279 44.1145 46.8736 43.4839 46.8888C42.8533 46.904 42.3015 46.3842 42.2847 45.6888L42.2431 43.9608L42.2311 43.4609L41.7312 43.473L38.0182 43.5624L37.6557 43.5711L37.5514 43.9184L31.6309 63.6341L31.6308 63.6345C31.4336 64.293 30.769 64.6297 30.174 64.4366L30.1733 64.4363C29.5634 64.2394 29.2004 63.5543 29.3992 62.8907C29.3992 62.8907 29.3993 62.8906 29.3993 62.8905L30.4557 59.3722L30.5111 59.1878L30.4285 59.0139C27.7582 53.3924 27.2275 46.8164 29.0231 40.8398L29.0232 40.8397L36.5301 15.8392L36.553 15.763L36.5511 15.6834L36.5275 14.7052C36.5108 14.0098 37.0369 13.4641 37.6675 13.4489L41.0064 13.3685L41.5062 13.3565L41.4942 12.8566L41.3638 7.44222C41.3471 6.74676 41.8733 6.20109 42.5038 6.1859C43.1344 6.17072 43.6862 6.69044 43.703 7.38589L43.8334 12.8003L43.8454 13.3002L44.3452 13.2881L47.6841 13.2077C48.3147 13.1926 48.8665 13.7123 48.8833 14.4077L48.9068 15.3859L48.9087 15.4655L48.9353 15.5405L57.6368 40.1506L57.6369 40.1507C59.718 46.034 59.5044 52.6278 57.1079 58.3714ZM39.3961 15.865L38.8962 15.8771L38.9083 16.3769L38.9915 19.8329C39.0436 21.9978 40.7927 23.7477 42.9255 23.6964C45.0582 23.645 46.721 21.8129 46.6689 19.6481L46.5857 16.1921L46.5737 15.6922L46.0738 15.7042L39.3961 15.865ZM31.0905 54.0389L31.544 55.7482L32.0526 54.0544L40.4491 26.0938L40.5704 25.69L40.1928 25.5023C39.1511 24.9845 38.2717 24.1844 37.649 23.1791L37.0643 22.2354L36.7451 23.2987L31.2547 41.5829C30.0387 45.6323 30.0139 49.9811 31.0905 54.0389ZM38.5974 40.4352L38.3991 41.0955L39.0883 41.0789L47.5948 40.8741L48.284 40.8575L48.0542 40.2075L43.4875 27.2927L42.9773 25.85L42.5372 27.3156L38.5974 40.4352ZM45.7419 25.3685L45.3738 25.5742L45.5143 25.9717L55.2468 53.496L55.7182 53.3293L56.2071 53.4341C57.0871 49.3293 56.853 44.9868 55.4435 41.0004L49.0795 23.0015L48.7095 21.9549L48.1709 22.9257C47.5972 23.9598 46.7575 24.8012 45.7419 25.3685Z" fill="url(#paint0_linear)" stroke="url(#paint1_linear)"/>
</g>
<path d="M31.5623 20.3705C32.1753 19.5543 31.8276 17.9409 31.0436 17.6844C30.5638 17.6871 30.0847 17.7137 29.6054 17.7349C28.8028 18.8742 27.8022 19.6685 27.08 20.9391C27.509 20.9383 27.936 20.927 28.3623 20.8894C27.8145 21.7925 27.2523 22.6778 26.6991 23.5732C26.494 23.2916 26.2889 23.01 26.0855 22.723C25.8421 22.3823 25.6038 22.0361 25.3705 21.6767C25.0409 22.2107 24.7078 22.7422 24.3765 23.2763C24.8216 23.904 25.265 24.5318 25.705 25.1676C25.3768 25.6857 25.0504 26.2064 24.7222 26.7272C24.5569 26.4941 24.3898 26.2584 24.2227 26.0227C24.0446 25.7689 23.8664 25.5152 23.6883 25.2615C23.355 25.7851 23.0236 26.314 22.6865 26.8299C23.0286 27.3299 23.3755 27.8193 23.7208 28.3113C23.3996 28.8292 23.0783 29.3445 22.7589 29.8623C22.4119 29.373 22.0598 28.8864 21.6943 28.4267C21.3697 28.95 21.0451 29.4733 20.7277 30.0042C21.0779 30.4829 21.4197 30.9751 21.7311 31.5106C21.4212 31.9912 21.1167 32.4768 20.8194 32.9727C20.0547 32.1021 19.4005 31.035 18.6877 30.0754L18.649 30.1348C18.3346 30.6445 18.02 31.1491 17.7055 31.6562C18.4015 32.6453 19.1043 33.6263 19.8004 34.6181C19.4722 35.1389 19.1458 35.6596 18.8177 36.1831C18.7015 36.0191 18.5834 35.8525 18.4671 35.6885C18.2383 35.3683 18.0128 35.0428 17.7873 34.7172C17.7587 34.7631 17.6999 34.8575 17.6713 34.9033C17.3736 35.3808 17.0759 35.861 16.7764 36.3385C17.1398 36.7851 17.4782 37.28 17.8198 37.7644C17.4952 38.285 17.1705 38.8057 16.8459 39.3263C16.5007 38.8395 16.1556 38.358 15.8122 37.8711L15.7802 37.9197C15.4642 38.4349 15.1463 38.9447 14.8284 39.4572C15.1736 39.9466 15.5188 40.4334 15.8623 40.9229C15.5342 41.4463 15.2061 41.9698 14.8781 42.4932C14.7635 42.3291 14.6491 42.1677 14.5329 42.0064C13.9479 41.1814 13.3647 40.3563 12.7798 39.534C12.4429 40.0551 12.1116 40.5865 11.7837 41.1205C12.4385 42.0744 13.1407 42.9607 13.7668 43.9578C13.6853 44.6743 13.1961 45.0593 12.9212 45.6069C12.5645 45.1496 12.2161 44.6734 11.8762 44.1864C11.5447 44.7126 11.213 45.2335 10.8869 45.7647C11.2338 46.2488 11.5772 46.7358 11.924 47.2198C11.5978 47.7484 11.2698 48.2745 10.9417 48.7979C10.811 48.6161 10.6803 48.4342 10.5495 48.2498C10.3333 47.9449 10.1152 47.6348 9.90402 47.3192C9.58153 47.8555 9.25187 48.3843 8.92216 48.9131C9.26731 49.3998 9.60906 49.8894 9.95089 50.3816C9.62624 50.9023 9.2999 51.4256 8.97526 51.9463C8.83913 51.7594 8.70129 51.5726 8.5634 51.3857C8.26394 50.9735 7.96599 50.5533 7.685 50.1114C7.34831 50.6405 7.01345 51.172 6.68041 51.7062C7.1162 52.3132 7.55031 52.9229 7.98442 53.5326C7.53007 54.2531 7.08302 54.9865 6.61781 55.6942C6.5875 55.7401 6.52854 55.8319 6.49818 55.8778C6.41611 53.5592 6.37774 51.2388 6.30791 48.9196C5.62127 49.5965 4.96977 50.3457 4.283 51.0173C4.35965 53.8758 4.41704 56.7351 4.50593 59.5932C4.4945 60.1728 4.71201 60.6672 4.9642 61.0786C5.44938 61.4257 6.05407 61.3101 6.39137 60.6679C14.7823 47.2354 23.1768 33.8107 31.5623 20.3705Z" fill="url(#paint2_linear)"/>
<path d="M31.0436 17.6844C30.8533 17.2969 30.5307 17.3515 30.2522 17.3492C23.3108 17.6261 16.3691 17.8873 9.42762 18.1591C8.81036 18.1935 8.18404 18.1467 7.57314 18.2941C6.57141 18.7015 6.7457 21.4063 7.81018 21.4676C7.63795 21.1689 7.47411 20.8568 7.34956 20.5062C7.31069 19.8075 7.37529 18.9784 7.86671 18.6803C8.15309 18.5797 8.45004 18.5523 8.7438 18.5357C12.2062 18.4147 15.6679 18.2699 19.1302 18.1436C22.6217 17.9977 26.1137 17.8729 29.6054 17.7349C30.0847 17.7137 30.5638 17.6871 31.0436 17.6844Z" fill="url(#paint3_linear)"/>
<path d="M25.705 25.1676C25.265 24.5318 24.8216 23.904 24.3765 23.2763C24.7078 22.7422 25.0409 22.2107 25.3705 21.6767C24.8572 21.257 24.4233 22.024 24.1666 22.5999C23.9552 23.6454 24.7741 24.1691 25.1434 24.8471C24.9624 25.4385 24.6661 25.9028 24.2227 26.0227C24.3898 26.2584 24.5569 26.4941 24.7222 26.7272C25.0504 26.2064 25.3768 25.6857 25.705 25.1676Z" fill="url(#paint4_linear)"/>
<path d="M18.8177 36.1831C19.1458 35.6596 19.4722 35.1389 19.8004 34.6181C19.1043 33.6263 18.4015 32.6453 17.7055 31.6562C18.02 31.1491 18.3346 30.6445 18.649 30.1348C18.0724 29.5675 17.6681 30.6757 17.3893 31.2762C17.3913 31.3551 17.3954 31.5156 17.3974 31.5945C17.9531 32.5759 18.6523 33.3491 19.2317 34.298C19.0388 34.8346 18.7667 35.2847 18.4671 35.6885C18.5834 35.8525 18.7015 36.0191 18.8177 36.1831Z" fill="url(#paint5_linear)"/>
<path d="M14.8781 42.4932C15.2061 41.9698 15.5342 41.4463 15.8623 40.9229C15.5188 40.4334 15.1736 39.9466 14.8284 39.4572C15.1463 38.9447 15.4642 38.4349 15.7802 37.9197C15.2374 37.717 14.7212 38.211 14.5841 39.0114C14.4454 39.8196 15.2869 40.1292 15.1927 40.8963C15.0143 41.3165 14.7618 41.6474 14.5329 42.0064C14.6491 42.1677 14.7635 42.3291 14.8781 42.4932Z" fill="url(#paint6_linear)"/>
<path d="M11.8762 44.1864L11.9519 44.065C11.3418 43.628 10.9002 44.6429 10.5781 45.2608C10.4823 46.0359 11.0757 46.4367 11.3432 46.9686C11.0884 47.4102 10.8243 47.8364 10.5495 48.2498C10.6803 48.4342 10.811 48.6161 10.9417 48.7979C11.2698 48.2745 11.5978 47.7484 11.924 47.2198C11.5772 46.7358 11.2338 46.2488 10.8869 45.7647C11.213 45.2335 11.5447 44.7126 11.8762 44.1864Z" fill="url(#paint7_linear)"/>
<path d="M8.97526 51.9463C9.2999 51.4256 9.62624 50.9023 9.95089 50.3816C9.60906 49.8894 9.26731 49.3998 8.92216 48.9131C9.25187 48.3843 9.58153 47.8555 9.90402 47.3192C9.29652 47.1874 8.59941 47.8673 8.68096 48.8645C8.88238 49.3463 9.15025 49.7546 9.39758 50.182C9.16793 50.6516 8.88412 51.0547 8.5634 51.3857C8.70129 51.5726 8.83913 51.7594 8.97526 51.9463Z" fill="url(#paint8_linear)"/>
<path d="M4.73194 18.6017C4.37371 17.947 3.73243 18.0692 3.3923 18.6694C2.99964 19.0637 3.06953 19.8113 3.07655 20.427C3.42299 33.4892 3.7397 46.5526 4.08958 59.612C4.04088 60.3773 4.47913 61.0105 4.9642 61.0786C4.71201 60.6672 4.4945 60.1728 4.50593 59.5932C4.41704 56.7351 4.35965 53.8758 4.283 51.0173C4.21853 48.5662 4.15404 46.1153 4.09491 43.6667C4.02587 41.0369 3.9569 38.4097 3.89319 35.7823C3.83895 33.7311 3.78822 31.6797 3.73399 29.6285C3.6597 26.725 3.589 23.8242 3.50769 20.921C3.50837 20.3313 3.4466 19.6282 3.74838 19.1716C3.98379 18.7228 4.37768 18.6497 4.73194 18.6017Z" fill="url(#paint9_linear)"/>
<path d="M27.08 20.9391C27.8022 19.6685 28.8028 18.8742 29.6054 17.7349C26.1137 17.8729 22.6217 17.9977 19.1302 18.1436C18.382 19.3573 17.3826 20.1305 16.6363 21.3466C20.1178 21.2222 23.5991 21.0873 27.08 20.9391Z" fill="url(#paint10_linear)"/>
<path d="M26.6991 23.5732C27.2523 22.6778 27.8145 21.7925 28.3623 20.8894C27.9958 21.0063 27.5339 20.9557 27.2804 21.4499C26.9443 22.0026 26.6418 22.7014 26.0855 22.723C26.2889 23.01 26.494 23.2916 26.6991 23.5732Z" fill="url(#paint11_linear)"/>
<path d="M16.6363 21.3466C17.3826 20.1305 18.382 19.3573 19.1302 18.1436C15.6679 18.2699 12.2062 18.4147 8.7438 18.5357C8.45004 18.5523 8.15309 18.5797 7.86671 18.6803C7.48737 19.1162 7.29433 19.7844 7.34956 20.5062C7.47411 20.8568 7.63795 21.1689 7.81018 21.4676C8.07861 21.6231 8.36568 21.6883 8.65057 21.6667C11.3128 21.553 13.974 21.4603 16.6363 21.3466Z" fill="url(#paint12_linear)"/>
<path d="M17.6713 34.9033C17.3736 35.3808 17.0759 35.861 16.7764 36.3385C16.4394 35.6225 17.1801 34.7328 17.6713 34.9033Z" fill="url(#paint13_linear)"/>
<path d="M6.61781 55.6942C7.08302 54.9865 7.53007 54.2531 7.98442 53.5326C7.55031 52.9229 7.1162 52.3132 6.68041 51.7062C7.01345 51.172 7.34831 50.6405 7.685 50.1114C7.20047 49.5169 6.64175 50.4704 6.48476 51.1109C6.2478 52.1836 7.22536 52.5433 7.28833 53.4306C6.9909 54.1239 6.29895 54.7299 6.61781 55.6942Z" fill="url(#paint14_linear)"/>
<path d="M6.30791 48.9196C6.24695 46.4685 6.1859 44.0148 6.11961 41.5613C5.42742 42.2252 4.77776 42.9795 4.09491 43.6667C4.15404 46.1153 4.21853 48.5662 4.283 51.0173C4.96977 50.3457 5.62127 49.5965 6.30791 48.9196Z" fill="url(#paint15_linear)"/>
<path d="M6.11961 41.5613C6.05219 38.9261 5.99014 36.2933 5.91577 33.6611C5.23473 34.3509 4.59827 35.1416 3.89319 35.7823C3.9569 38.4097 4.02587 41.0369 4.09491 43.6667C4.77776 42.9795 5.42742 42.2252 6.11961 41.5613Z" fill="url(#paint16_linear)"/>
<path d="M5.91577 33.6611C5.86547 31.5597 5.81169 29.4584 5.75618 27.3572C5.071 28.0893 4.39874 28.8498 3.73399 29.6285C3.78822 31.6797 3.83895 33.7311 3.89319 35.7823C4.59827 35.1416 5.23473 34.3509 5.91577 33.6611Z" fill="url(#paint17_linear)"/>
<path d="M5.75618 27.3572C5.68699 24.9274 5.64759 22.4965 5.56265 20.0674C5.55306 19.3491 5.14608 18.8411 4.73194 18.6017C4.37768 18.6497 3.98379 18.7228 3.74838 19.1716C3.4466 19.6282 3.50837 20.3313 3.50769 20.921C3.589 23.8242 3.6597 26.725 3.73399 29.6285C4.39874 28.8498 5.071 28.0893 5.75618 27.3572Z" fill="url(#paint18_linear)"/>
</g>
<defs>
<linearGradient id="paint0_linear" x1="43.912" y1="64.6691" x2="42.4918" y2="5.68605" gradientUnits="userSpaceOnUse">
<stop stop-color="#FD5900"/>
<stop offset="1" stop-color="#FFDE00"/>
</linearGradient>
<linearGradient id="paint1_linear" x1="43.912" y1="64.6691" x2="42.4918" y2="5.68605" gradientUnits="userSpaceOnUse">
<stop stop-color="#FD5900"/>
<stop offset="1" stop-color="#FFDE00"/>
</linearGradient>
<linearGradient id="paint2_linear" x1="-5.42623" y1="47.1762" x2="32.6096" y2="19.5669" gradientUnits="userSpaceOnUse">
<stop stop-color="#FD5900"/>
<stop offset="1" stop-color="#FFDE00"/>
</linearGradient>
<linearGradient id="paint3_linear" x1="-5.42623" y1="47.1762" x2="32.6096" y2="19.5669" gradientUnits="userSpaceOnUse">
<stop stop-color="#FD5900"/>
<stop offset="1" stop-color="#FFDE00"/>
</linearGradient>
<linearGradient id="paint4_linear" x1="-5.42623" y1="47.1762" x2="32.6096" y2="19.5669" gradientUnits="userSpaceOnUse">
<stop stop-color="#FD5900"/>
<stop offset="1" stop-color="#FFDE00"/>
</linearGradient>
<linearGradient id="paint5_linear" x1="-5.42623" y1="47.1762" x2="32.6096" y2="19.5669" gradientUnits="userSpaceOnUse">
<stop stop-color="#FD5900"/>
<stop offset="1" stop-color="#FFDE00"/>
</linearGradient>
<linearGradient id="paint6_linear" x1="-5.42623" y1="47.1762" x2="32.6096" y2="19.5669" gradientUnits="userSpaceOnUse">
<stop stop-color="#FD5900"/>
<stop offset="1" stop-color="#FFDE00"/>
</linearGradient>
<linearGradient id="paint7_linear" x1="-5.42623" y1="47.1762" x2="32.6096" y2="19.5669" gradientUnits="userSpaceOnUse">
<stop stop-color="#FD5900"/>
<stop offset="1" stop-color="#FFDE00"/>
</linearGradient>
<linearGradient id="paint8_linear" x1="-5.42623" y1="47.1762" x2="32.6096" y2="19.5669" gradientUnits="userSpaceOnUse">
<stop stop-color="#FD5900"/>
<stop offset="1" stop-color="#FFDE00"/>
</linearGradient>
<linearGradient id="paint9_linear" x1="-5.42623" y1="47.1762" x2="32.6096" y2="19.5669" gradientUnits="userSpaceOnUse">
<stop stop-color="#FD5900"/>
<stop offset="1" stop-color="#FFDE00"/>
</linearGradient>
<linearGradient id="paint10_linear" x1="-5.42623" y1="47.1762" x2="32.6096" y2="19.5669" gradientUnits="userSpaceOnUse">
<stop stop-color="#FD5900"/>
<stop offset="1" stop-color="#FFDE00"/>
</linearGradient>
<linearGradient id="paint11_linear" x1="-5.42623" y1="47.1762" x2="32.6096" y2="19.5669" gradientUnits="userSpaceOnUse">
<stop stop-color="#FD5900"/>
<stop offset="1" stop-color="#FFDE00"/>
</linearGradient>
<linearGradient id="paint12_linear" x1="-5.42623" y1="47.1762" x2="32.6096" y2="19.5669" gradientUnits="userSpaceOnUse">
<stop stop-color="#FD5900"/>
<stop offset="1" stop-color="#FFDE00"/>
</linearGradient>
<linearGradient id="paint13_linear" x1="-5.42623" y1="47.1762" x2="32.6096" y2="19.5669" gradientUnits="userSpaceOnUse">
<stop stop-color="#FD5900"/>
<stop offset="1" stop-color="#FFDE00"/>
</linearGradient>
<linearGradient id="paint14_linear" x1="-5.42623" y1="47.1762" x2="32.6096" y2="19.5669" gradientUnits="userSpaceOnUse">
<stop stop-color="#FD5900"/>
<stop offset="1" stop-color="#FFDE00"/>
</linearGradient>
<linearGradient id="paint15_linear" x1="-5.42623" y1="47.1762" x2="32.6096" y2="19.5669" gradientUnits="userSpaceOnUse">
<stop stop-color="#FD5900"/>
<stop offset="1" stop-color="#FFDE00"/>
</linearGradient>
<linearGradient id="paint16_linear" x1="-5.42623" y1="47.1762" x2="32.6096" y2="19.5669" gradientUnits="userSpaceOnUse">
<stop stop-color="#FD5900"/>
<stop offset="1" stop-color="#FFDE00"/>
</linearGradient>
<linearGradient id="paint17_linear" x1="-5.42623" y1="47.1762" x2="32.6096" y2="19.5669" gradientUnits="userSpaceOnUse">
<stop stop-color="#FD5900"/>
<stop offset="1" stop-color="#FFDE00"/>
</linearGradient>
<linearGradient id="paint18_linear" x1="-5.42623" y1="47.1762" x2="32.6096" y2="19.5669" gradientUnits="userSpaceOnUse">
<stop stop-color="#FD5900"/>
<stop offset="1" stop-color="#FFDE00"/>
</linearGradient>
<clipPath id="clip0">
<rect width="64" height="64" fill="white"/>
</clipPath>
<clipPath id="clip1">
<rect width="57" height="59" fill="white" transform="translate(14 6.37207) rotate(-1.37932)"/>
</clipPath>
</defs>
</svg>
