<svg width="128" height="128" viewBox="0 0 128 128" fill="none" xmlns="http://www.w3.org/2000/svg">
<path d="M102.796 95.5589C105.321 91.4815 106.741 86.7162 106.425 81.4746C105.741 70.0911 96.7484 60.4544 85.5463 59.2368C82.2295 58.8485 78.8689 59.1706 75.6855 60.1829C72.5015 61.1952 69.566 62.8741 67.0727 65.1093C64.5793 67.3445 62.5836 70.0858 61.2172 73.1525C59.8508 76.2197 59.1447 79.5429 59.1447 82.9045C59.1447 96.0879 69.7159 106.731 82.7585 106.731C87.3868 106.731 91.6993 105.354 95.3281 103.024L108.003 115.784C110.055 117.85 113.42 117.85 115.471 115.784C117.522 113.719 117.522 110.331 115.471 108.266L102.796 95.5589ZM82.8113 96.1413C79.3244 96.1413 75.9799 94.7466 73.5143 92.2639C71.0481 89.7818 69.6631 86.4149 69.6631 82.9045C69.6631 79.3935 71.0481 76.0266 73.5143 73.5445C75.9799 71.0618 79.3244 69.6672 82.8113 69.6672C86.2983 69.6672 89.6428 71.0618 92.1084 73.5445C94.574 76.0266 95.9596 79.3935 95.9596 82.9045C95.9596 86.4149 94.574 89.7818 92.1084 92.2639C89.6428 94.7466 86.2983 96.1413 82.8113 96.1413ZM80.918 51.1358C77.0263 51.2417 73.2919 52.0889 69.8737 53.5184L66.9809 49.1238L50.7824 75.6506C50.3496 76.361 49.7563 76.9584 49.0508 77.3946C48.3453 77.8309 47.5475 78.0927 46.7224 78.1599C45.8972 78.2271 45.068 78.097 44.3021 77.7808C43.5362 77.464 42.8554 76.9701 42.315 76.3386L31.1653 63.2607L15.072 89.2048C13.4417 91.7994 9.97052 92.488 7.49868 90.6874C5.28979 89.0464 4.65868 85.9754 6.13126 83.5925L26.0113 51.5594C27.9046 48.5414 32.1646 48.2237 34.4787 50.924L45.5757 63.9493L62.3004 36.5753C62.7601 35.8188 63.4017 35.1913 64.1665 34.7508C64.9313 34.3103 65.7937 34.071 66.6748 34.0552C67.5553 34.0394 68.4263 34.2475 69.206 34.6602C69.9857 35.0729 70.6492 35.677 71.1356 36.4164L80.918 51.1358ZM94.5393 53.7834C91.1735 52.3006 87.5447 51.4005 83.758 51.1888L107.635 13.1196C109.265 10.5252 112.737 9.88982 115.156 11.69C117.417 13.3314 117.996 16.4553 116.523 18.785L94.5393 53.7834Z" fill="url(#paint0_linear_678_223)" stroke="url(#paint1_linear_678_223)" stroke-width="3"/>
<defs>
<linearGradient id="paint0_linear_678_223" x1="61.334" y1="117.333" x2="61.334" y2="10.6666" gradientUnits="userSpaceOnUse">
<stop stop-color="#FD5900"/>
<stop offset="1" stop-color="#FFDE00"/>
</linearGradient>
<linearGradient id="paint1_linear_678_223" x1="61.334" y1="117.333" x2="61.334" y2="10.6666" gradientUnits="userSpaceOnUse">
<stop stop-color="#FD5900"/>
<stop offset="1" stop-color="#FFDE00"/>
</linearGradient>
</defs>
</svg>
