<svg width="64" height="64" viewBox="0 0 64 64" fill="none" xmlns="http://www.w3.org/2000/svg">
<path d="M47.5765 46.5386H16.4227C14.8296 46.5386 13.5381 46.8461 13.5381 47.2254V57.3902C13.5381 57.7695 14.8296 58.077 16.4227 58.077H47.5765C49.1697 58.077 50.4612 57.7695 50.4612 57.3902V47.2254C50.4612 46.8461 49.1697 46.5386 47.5765 46.5386Z" fill="url(#paint0_linear)"/>
<path opacity="0.1" d="M4.88462 5C3.28654 5 2 6.28654 2 7.88462V9.03846C2 7.44038 3.28654 6.15385 4.88462 6.15385H59.1154C60.7135 6.15385 62 7.44038 62 9.03846V7.88462C62 6.28654 60.7135 5 59.1154 5H4.88462Z" fill="white"/>
<path d="M31.9998 14.231C28.1645 14.231 25.0768 17.3186 25.0768 21.154V23.4617H23.346C22.3872 23.4617 21.6152 24.2336 21.6152 25.1925V35.5771C21.6152 36.536 22.3872 37.3079 23.346 37.3079H40.6537C41.6125 37.3079 42.3845 36.536 42.3845 35.5771V25.1925C42.3845 24.2336 41.6125 23.4617 40.6537 23.4617H38.9229V21.154C38.9229 17.3186 35.8352 14.231 31.9998 14.231ZM31.9998 17.6925C33.9175 17.6925 35.4614 19.2363 35.4614 21.154V23.4617H28.5383V21.154C28.5383 19.2363 30.0822 17.6925 31.9998 17.6925Z" fill="url(#paint1_linear)"/>
<path fill-rule="evenodd" clip-rule="evenodd" d="M8 40.5385V11H56V40.5385H8ZM62 7.96703V40.5385V45.3847V46.5385V48.2693C62 49.8674 60.7135 51.1539 59.1154 51.1539H4.88462C3.28654 51.1539 2 49.8674 2 48.2693V46.5385V45.3847V40.5385V7.96703C2 6.3233 3.28654 5 4.88462 5H59.1154C60.7135 5 62 6.3233 62 7.96703Z" fill="url(#paint2_linear)"/>
<defs>
<linearGradient id="paint0_linear" x1="31.9996" y1="58.077" x2="31.9996" y2="46.5386" gradientUnits="userSpaceOnUse">
<stop stop-color="#A93AFF"/>
<stop offset="1" stop-color="#FF81FF"/>
</linearGradient>
<linearGradient id="paint1_linear" x1="31.9998" y1="37.3079" x2="31.9998" y2="14.231" gradientUnits="userSpaceOnUse">
<stop stop-color="#5570FF"/>
<stop offset="1" stop-color="#4DD3FF"/>
</linearGradient>
<linearGradient id="paint2_linear" x1="32" y1="51.1538" x2="32" y2="5" gradientUnits="userSpaceOnUse">
<stop stop-color="#A93AFF"/>
<stop offset="1" stop-color="#FF81FF"/>
</linearGradient>
</defs>
</svg>
