<svg width="64" height="64" viewBox="0 0 64 64" fill="none" xmlns="http://www.w3.org/2000/svg">
<g clip-path="url(#clip0)">
<path d="M22.0189 3.46875C22.6232 1.41625 24.8313 -0.0663419 27.1194 0.0121238C30.2384 0.00799403 33.3618 -0.020914 36.4807 0.0286433C38.6044 0.0699411 40.5904 1.49058 41.1813 3.38615C41.9322 5.77729 42.4965 8.21386 43.2207 10.6091C43.625 10.8032 44.0337 10.9973 44.438 11.1914C47.1082 10.5678 49.7429 9.84099 52.4131 9.22153C54.639 8.61445 57.207 9.58495 58.3311 11.4723C59.855 13.9047 61.3656 16.3495 62.8718 18.7943C64.0892 20.6404 63.8004 23.2132 62.1343 24.7454C60.2993 26.4551 58.4377 28.14 56.5673 29.8167C56.6472 30.4155 56.4562 31.1465 57.0782 31.5595C58.9176 33.3105 60.8325 34.9996 62.6585 36.7671C64.2402 38.3282 64.4224 40.8556 63.2095 42.6562C61.6855 45.1052 60.1883 47.5706 58.6377 50.0031C57.5092 51.7871 55.07 52.7122 52.9196 52.1671C50.396 51.5683 47.9035 50.8621 45.3888 50.2343C44.9889 50.4573 44.5935 50.6804 44.1937 50.9075C43.4472 53.4143 42.7764 55.9376 42.0122 58.4402C41.4346 60.534 39.2087 62.0455 36.8895 61.9836C33.6328 61.9629 30.3672 62.062 27.1105 61.9299C24.0805 61.6821 22.2366 58.7706 22.3433 56.144C22.5388 54.6532 24.4714 53.7323 25.9065 54.4013C27.1461 54.8762 27.3727 56.2142 27.6837 57.2756C30.8248 57.288 33.9704 57.2921 37.1116 57.2715C37.7514 55.0827 38.3823 52.898 38.9999 50.7051C39.342 49.5281 39.2398 47.9382 40.6437 47.3435C42.2165 46.7075 43.4961 45.229 45.2911 45.2414C48.2545 46.1169 51.2668 46.8397 54.2569 47.645C55.8475 45.1052 57.4159 42.5571 58.9931 40.009C56.7005 37.9193 54.5324 35.7099 52.0977 33.7607C51.2535 32.9058 51.6089 31.6503 51.5112 30.6014C51.5467 29.4244 51.0802 27.9459 52.2221 27.0787C54.4391 25.2698 56.4562 23.2628 58.5977 21.3755C57.056 18.8109 55.4565 16.2711 53.8704 13.7312C50.8714 14.5242 47.8147 15.1395 44.869 16.0976C43.5272 16.5767 42.4209 15.4864 41.288 15.0073C40.315 14.4581 38.9421 14.1566 38.5556 13.0251C37.9202 10.2292 37.1161 7.46637 36.3252 4.70768C33.184 4.71181 30.0429 4.70355 26.9017 4.71181C26.2486 6.8882 25.631 9.07698 25.009 11.2575C24.6669 12.4593 24.7647 14.0823 23.3118 14.6728C21.5391 15.3666 19.9618 17.3778 17.8648 16.5312C15.199 15.7714 12.5244 14.9495 9.78307 14.4746C8.01033 16.8492 6.63746 19.4964 5.01135 21.9701C7.29502 24.0681 9.47206 26.2692 11.8979 28.2226C12.751 29.0734 12.3866 30.3412 12.4933 31.3902C12.4577 32.5589 12.9198 34.025 11.8046 34.8881C9.58314 36.7093 7.55715 38.7205 5.40677 40.6078C6.66856 42.7388 8.00589 44.8285 9.30323 46.9388C13.3374 44.8161 17.345 42.6479 21.3703 40.5087C22.1389 40.0627 23.0897 39.8356 23.9561 40.1949C26.9639 41.1282 30.2028 41.9005 33.3707 41.2314C37.6448 40.4013 40.5682 36.412 40.9947 32.563C38.5067 33.6739 36.303 35.2515 33.8683 36.4615C32.6598 37.0232 31.1181 36.4657 30.5361 35.3548C28.9233 32.7778 27.306 30.2008 25.7155 27.6114C24.9246 26.5336 25.2845 24.894 26.5463 24.2828C28.9499 23.0067 31.5757 22.1147 33.8771 20.6734C31.2469 19.3395 27.8481 19.0793 25.1956 20.4999C22.5565 21.8917 20.7927 24.3283 19.522 26.8226C19.091 27.6156 18.7578 28.5943 17.7937 28.9619C16.523 29.5483 14.808 28.933 14.346 27.6775C13.8128 26.4179 14.7547 25.2203 15.2923 24.1176C17.5316 19.9879 21.2414 16.1141 26.293 15.1065C31.5179 14.0327 36.7739 16.1554 40.9548 18.9389C42.5053 19.8474 42.3232 22.2634 40.6437 22.953C37.5914 24.4191 34.4903 25.7985 31.4424 27.2728C32.1177 28.5695 32.9041 29.8043 33.7483 31.0102C36.8095 29.3253 39.8085 27.5453 42.8608 25.8439C43.9271 25.1418 45.5443 25.3318 46.3218 26.3271C47.1038 27.3017 46.8861 28.5984 46.8372 29.7341C46.3485 34.7146 44.4913 39.9347 40.2439 43.2385C36.8406 45.9394 32.0866 46.6125 27.7681 45.9641C26.1953 45.8031 24.7114 45.2001 23.1386 45.068C18.5623 47.3394 14.146 49.8998 9.58758 52.2084C8.26358 52.8774 6.66412 52.1836 6.00657 51.0107C4.31825 48.4131 2.72767 45.7577 1.09267 43.1311C-0.0980369 41.3016 0.230741 38.7825 1.85241 37.2668C3.68735 35.5199 5.62447 33.868 7.44608 32.1087C7.41054 31.671 7.37499 31.2332 7.34389 30.7955C5.40233 29.0197 3.47853 27.2274 1.55918 25.4309C-0.106923 23.9483 -0.489016 21.4291 0.661706 19.5707C2.20785 17.0309 3.78065 14.4994 5.36678 11.9802C6.46419 10.2333 8.83228 9.32064 10.9427 9.79143C13.5196 10.3861 16.0565 11.1171 18.6201 11.7572C19.0199 11.5218 19.4243 11.2864 19.8286 11.051C20.5616 8.52359 21.2414 5.98378 22.0189 3.46875Z" fill="url(#paint0_linear)"/>
</g>
<defs>
<linearGradient id="paint0_linear" x1="4.57143" y1="31" x2="56.4676" y2="25.0801" gradientUnits="userSpaceOnUse">
<stop stop-color="#8D01A2"/>
<stop offset="1" stop-color="#FF00D2"/>
</linearGradient>
<clipPath id="clip0">
<rect width="64" height="64" fill="white"/>
</clipPath>
</defs>
</svg>
