<svg width="128" height="128" viewBox="0 0 128 128" fill="none" xmlns="http://www.w3.org/2000/svg">
<path d="M36.0005 104C34.3785 104.003 32.7726 103.678 31.28 103.043C29.7873 102.408 28.4389 101.477 27.3161 100.306C26.1933 99.1359 25.3195 97.7498 24.7475 96.232C24.1755 94.7141 23.9171 93.0961 23.988 91.4756C24.0589 89.8551 24.4576 88.2658 25.16 86.8037C25.8624 85.3417 26.854 84.0372 28.0747 82.9691C29.2954 81.901 30.72 81.0914 32.2624 80.5894C33.8048 80.0874 35.433 79.9032 37.0485 80.0481L49.9445 58.5521C48.7654 56.7412 48.0971 54.6455 48.0102 52.4863C47.9234 50.327 48.4213 48.1844 49.4512 46.2847C50.4812 44.3849 52.005 42.7985 53.8619 41.6931C55.7187 40.5876 57.8396 40.0041 60.0005 40.0041C62.1615 40.0041 64.2824 40.5876 66.1392 41.6931C67.9961 42.7985 69.5199 44.3849 70.5499 46.2847C71.5798 48.1844 72.0777 50.327 71.9909 52.4863C71.904 54.6455 71.2357 56.7412 70.0565 58.5521L82.9525 80.0481C83.5644 79.993 84.1798 79.9877 84.7925 80.0321L106.089 42.7681C104.559 40.5264 103.833 37.8321 104.032 35.1251C104.23 32.4181 105.341 29.8583 107.181 27.8637C109.022 25.869 111.485 24.5574 114.167 24.1429C116.85 23.7285 119.593 24.2356 121.95 25.5816C124.308 26.9276 126.139 29.0329 127.145 31.5538C128.151 34.0746 128.273 36.8622 127.49 39.4612C126.708 42.0603 125.068 44.3173 122.837 45.8638C120.606 47.4103 117.917 48.155 115.209 47.9761L93.9125 85.2401C95.1361 87.0347 95.8497 89.1277 95.9772 91.2959C96.1047 93.4642 95.6413 95.6264 94.6364 97.552C93.6315 99.4776 92.1229 101.094 90.2713 102.23C88.4198 103.365 86.2948 103.977 84.1229 103.999C81.951 104.022 79.8137 103.455 77.9389 102.358C76.0641 101.261 74.5221 99.6766 73.4773 97.7724C72.4326 95.8682 71.9242 93.7161 72.0065 91.5456C72.0888 89.3752 72.7586 87.2678 73.9445 85.4481L61.0485 63.9521C60.3514 64.0167 59.6497 64.0167 58.9525 63.9521L46.0565 85.4481C47.2368 87.2591 47.9059 89.3552 47.9933 91.515C48.0807 93.6749 47.5831 95.8182 46.553 97.7186C45.5229 99.619 43.9986 101.206 42.1412 102.311C40.2837 103.417 38.1622 104 36.0005 104Z" fill="url(#paint0_linear_641_24)"/>
<path d="M119.247 114.915H23C18.5 114.915 16 110.5 16 105.915V23C16 18.5817 13.4183 15 9 15C4.58172 15 2 18.5817 2 23V123C2 125 5 128 7 128H119.491C123.913 128 126.895 125.581 126.875 121.159C126.855 116.657 123.749 114.915 119.247 114.915Z" fill="url(#paint1_linear_641_24)"/>
<path fill-rule="evenodd" clip-rule="evenodd" d="M128 36C128 42.6274 122.627 48 116 48C109.373 48 104 42.6274 104 36C104 29.3726 109.373 24 116 24C122.627 24 128 29.3726 128 36ZM72 52C72 58.6274 66.6274 64 60 64C53.3726 64 48 58.6274 48 52C48 45.3726 53.3726 40 60 40C66.6274 40 72 45.3726 72 52ZM48 92C48 98.6274 42.6274 104 36 104C29.3726 104 24 98.6274 24 92C24 85.3726 29.3726 80 36 80C42.6274 80 48 85.3726 48 92ZM84 104C90.6274 104 96 98.6274 96 92C96 85.3726 90.6274 80 84 80C77.3726 80 72 85.3726 72 92C72 98.6274 77.3726 104 84 104Z" fill="url(#paint2_linear_641_24)"/>
<defs>
<linearGradient id="paint0_linear_641_24" x1="109.174" y1="24.0022" x2="48.899" y2="119.698" gradientUnits="userSpaceOnUse">
<stop stop-color="#DE00C0"/>
<stop offset="1" stop-color="#8720FF"/>
</linearGradient>
<linearGradient id="paint1_linear_641_24" x1="104.276" y1="15" x2="13.9589" y2="136.863" gradientUnits="userSpaceOnUse">
<stop stop-color="#DE00C0"/>
<stop offset="1" stop-color="#8720FF"/>
</linearGradient>
<linearGradient id="paint2_linear_641_24" x1="39.6558" y1="86" x2="87.7981" y2="49.9252" gradientUnits="userSpaceOnUse">
<stop stop-color="#F502A3"/>
<stop offset="1" stop-color="#FFBB37"/>
</linearGradient>
</defs>
</svg>
