<?xml version="1.0" encoding="UTF-8" ?>
<!DOCTYPE svg PUBLIC "-//W3C//DTD SVG 1.1//EN" "http://www.w3.org/Graphics/SVG/1.1/DTD/svg11.dtd">
<svg width="192pt" height="192pt" viewBox="0 0 192 192" version="1.1" xmlns="http://www.w3.org/2000/svg">
<g id="#b118f0ff">
<path fill="#b118f0" opacity="1.00" d=" M 13.66 32.83 C 15.60 23.47 24.40 16.05 33.97 15.80 C 43.43 15.66 52.90 15.72 62.37 15.78 C 58.49 20.09 53.39 23.08 49.71 27.57 C 44.55 27.70 39.39 27.43 34.24 27.72 C 29.42 27.87 25.25 32.15 25.07 36.93 C 24.82 42.05 25.08 47.18 24.97 52.30 C 21.52 55.07 18.08 57.86 14.30 60.17 C 13.66 51.07 13.75 41.95 13.66 32.83 Z" />
</g>
<g id="#bb19e4ff">
<path fill="#bb19e4" opacity="1.00" d=" M 62.37 15.78 C 72.04 15.70 81.71 15.69 91.38 15.79 C 87.53 20.13 82.18 22.86 78.70 27.57 C 69.04 27.63 59.37 27.63 49.71 27.57 C 53.39 23.08 58.49 20.09 62.37 15.78 Z" />
</g>
<g id="#c619d6ff">
<path fill="#c619d6" opacity="1.00" d=" M 91.38 15.79 C 100.02 15.68 108.66 15.72 117.30 15.77 C 113.13 19.73 108.09 22.81 104.71 27.57 C 96.04 27.62 87.37 27.64 78.70 27.57 C 82.18 22.86 87.53 20.13 91.38 15.79 Z" />
</g>
<g id="#d21ac8ff">
<path fill="#d21ac8" opacity="1.00" d=" M 117.30 15.77 C 126.07 15.72 134.83 15.66 143.59 15.81 C 140.19 20.31 134.88 22.86 131.71 27.57 C 122.71 27.63 113.71 27.63 104.71 27.57 C 108.09 22.81 113.13 19.73 117.30 15.77 Z" />
</g>
<g id="#df1db8ff">
<path fill="#df1db8" opacity="1.00" d=" M 143.59 15.81 C 152.28 15.98 161.76 14.28 169.56 19.13 C 167.01 23.02 163.40 26.18 158.90 27.58 C 149.83 27.63 140.77 27.63 131.71 27.57 C 134.88 22.86 140.19 20.31 143.59 15.81 Z" />
</g>
<g id="#e922a5ff">
<path fill="#e922a5" opacity="1.00" d=" M 169.56 19.13 C 174.57 22.59 178.15 27.87 179.42 33.83 C 179.47 36.53 179.99 39.76 177.85 41.86 C 175.83 44.01 172.70 43.28 170.10 43.20 C 167.07 39.59 168.13 34.36 165.08 30.80 C 163.28 29.28 161.17 28.16 158.90 27.58 C 163.40 26.18 167.01 23.02 169.56 19.13 Z" />
</g>
<g id="#0000003e">
<path fill="#000000" opacity="0.24" d=" M 25.07 36.93 C 25.25 32.15 29.42 27.87 34.24 27.72 C 39.39 27.43 44.55 27.70 49.71 27.57 C 59.37 27.63 69.04 27.63 78.70 27.57 C 87.37 27.64 96.04 27.62 104.71 27.57 C 113.71 27.63 122.71 27.63 131.71 27.57 C 140.77 27.63 149.83 27.63 158.90 27.58 C 161.17 28.16 163.28 29.28 165.08 30.80 C 161.73 30.49 158.37 30.17 155.01 30.12 C 116.00 30.13 76.99 30.15 37.98 30.11 C 34.81 30.12 31.14 30.27 28.98 32.98 C 24.21 38.26 26.42 45.91 26.01 52.33 L 24.97 52.30 C 25.08 47.18 24.82 42.05 25.07 36.93 Z" />
<path fill="#000000" opacity="0.24" d=" M 150.37 42.85 C 151.20 45.76 151.34 48.78 151.32 51.78 C 160.85 52.53 170.41 51.75 179.95 52.15 C 180.15 54.76 180.35 57.38 180.38 60.00 C 180.34 90.68 180.35 121.37 180.38 152.05 C 180.37 153.48 179.87 154.84 179.42 156.19 C 179.67 146.37 179.48 136.54 179.50 126.71 C 179.54 116.69 179.56 106.68 179.50 96.66 C 179.55 87.68 179.54 78.69 179.50 69.71 C 179.53 63.94 179.57 58.18 179.46 52.41 C 175.41 52.34 171.35 52.36 167.30 52.44 C 161.66 52.45 156.01 52.41 150.37 52.45 C 150.36 49.25 150.43 46.05 150.37 42.85 Z" />
<path fill="#000000" opacity="0.24" d=" M 113.48 93.87 C 113.75 96.18 114.61 98.93 112.83 100.86 C 108.36 105.99 101.77 108.44 96.38 112.41 C 92.96 114.63 89.46 118.05 85.03 117.25 C 83.57 117.24 82.88 115.94 82.13 114.93 C 84.71 115.13 87.49 115.28 89.71 113.69 C 96.44 109.44 103.15 105.15 109.79 100.77 C 112.31 99.37 112.86 96.43 113.48 93.87 Z" />
<path fill="#000000" opacity="0.24" d=" M 169.01 171.01 C 173.98 168.17 177.16 163.11 179.07 157.84 C 179.52 161.50 178.18 165.06 175.85 167.83 C 171.89 173.00 165.58 176.36 159.02 176.37 C 118.01 176.35 76.99 176.35 35.97 176.37 C 31.29 176.09 25.94 174.83 23.09 170.76 C 30.15 175.31 38.80 174.12 46.75 174.19 C 57.10 174.25 67.44 174.24 77.79 174.20 C 91.11 174.24 104.43 174.25 117.75 174.19 C 130.50 174.25 143.26 174.22 156.02 174.23 C 160.53 174.29 165.15 173.46 169.01 171.01 Z" />
</g>
<g id="#be19dfff">
<path fill="#be19df" opacity="1.00" d=" M 13.11 52.00 C 13.30 45.61 12.61 39.16 13.66 32.83 C 13.75 41.95 13.66 51.07 14.30 60.17 C 18.08 57.86 21.52 55.07 24.97 52.30 L 26.01 52.33 C 31.42 52.46 36.85 52.39 42.27 52.37 C 42.38 49.07 41.97 45.71 42.59 42.45 C 45.14 38.57 51.92 38.78 54.20 42.85 C 54.29 46.81 54.20 50.76 54.21 54.72 C 49.79 56.94 45.59 59.77 42.57 63.75 C 36.84 64.88 30.97 64.15 25.18 64.31 L 25.11 65.10 C 24.92 69.30 25.01 73.50 24.98 77.70 C 21.17 79.78 17.02 81.84 14.50 85.52 C 13.41 89.12 13.91 92.97 13.80 96.69 L 13.38 97.49 C 12.79 82.35 13.27 67.16 13.11 52.00 Z" />
</g>
<g id="#00000039">
<path fill="#000000" opacity="0.22" d=" M 179.42 33.83 C 181.10 36.80 181.70 40.71 179.66 43.67 C 177.28 46.64 171.90 46.93 170.10 43.20 C 172.70 43.28 175.83 44.01 177.85 41.86 C 179.99 39.76 179.47 36.53 179.42 33.83 Z" />
</g>
<g id="#eb24a1ff">
<path fill="#eb24a1" opacity="1.00" d=" M 138.47 44.97 C 138.02 38.78 148.00 37.95 150.37 42.85 C 150.43 46.05 150.36 49.25 150.37 52.45 C 156.01 52.41 161.66 52.45 167.30 52.44 C 163.97 56.99 158.66 59.56 155.57 64.30 C 153.84 64.32 152.11 64.35 150.39 64.38 C 150.39 65.80 150.39 67.23 150.40 68.65 C 146.37 71.15 142.61 74.06 138.51 76.45 C 138.42 65.96 138.45 55.46 138.47 44.97 Z" />
</g>
<g id="#00000019">
<path fill="#000000" opacity="0.10" d=" M 54.20 42.85 C 57.82 45.85 56.88 50.86 56.98 55.01 C 56.90 82.34 56.93 109.67 56.96 137.00 C 56.87 141.30 57.45 145.80 55.98 149.93 C 53.58 155.98 42.26 155.38 42.26 148.11 C 45.46 150.92 51.44 151.94 53.91 147.71 C 54.69 137.14 54.00 126.46 54.22 115.84 C 54.23 108.50 54.24 101.15 54.21 93.80 C 54.24 86.84 54.23 79.87 54.22 72.91 C 54.23 66.85 54.23 60.78 54.21 54.72 C 54.20 50.76 54.29 46.81 54.20 42.85 Z" />
</g>
<g id="#ef2e91ff">
<path fill="#ef2e91" opacity="1.00" d=" M 167.30 52.44 C 171.35 52.36 175.41 52.34 179.46 52.41 C 179.57 58.18 179.53 63.94 179.50 69.71 C 175.31 71.74 171.48 74.40 167.70 77.10 C 167.55 72.90 167.95 68.67 167.55 64.48 C 163.57 64.10 159.55 64.47 155.57 64.30 C 158.66 59.56 163.97 56.99 167.30 52.44 Z" />
</g>
<g id="#ca19d1ff">
<path fill="#ca19d1" opacity="1.00" d=" M 42.57 63.75 C 45.59 59.77 49.79 56.94 54.21 54.72 C 54.23 60.78 54.23 66.85 54.22 72.91 C 50.58 75.87 46.73 78.65 42.31 80.32 C 42.28 74.79 42.18 69.27 42.57 63.75 Z" />
</g>
<g id="#0000002b">
<path fill="#000000" opacity="0.17" d=" M 25.11 65.10 C 30.60 64.77 36.31 63.73 41.69 65.25 C 41.81 65.59 42.06 66.26 42.18 66.60 C 37.29 67.53 32.28 67.17 27.34 67.35 C 26.67 74.55 26.91 81.78 26.99 89.00 C 26.49 88.99 25.50 88.99 25.00 88.98 C 25.01 85.22 24.99 81.46 24.98 77.70 C 25.01 73.50 24.92 69.30 25.11 65.10 Z" />
</g>
<g id="#00000027">
<path fill="#000000" opacity="0.15" d=" M 150.84 64.84 C 156.17 64.73 161.70 63.92 166.90 65.28 C 166.88 65.59 166.82 66.22 166.79 66.53 C 162.39 68.52 156.50 65.57 152.71 68.72 C 151.24 75.51 152.90 82.55 151.70 89.40 L 151.34 88.73 C 150.84 80.78 151.10 72.80 150.84 64.84 Z" />
</g>
<g id="#f02f90ff">
<path fill="#f02f90" opacity="1.00" d=" M 138.51 76.45 C 142.61 74.06 146.37 71.15 150.40 68.65 C 150.44 73.45 150.44 78.25 150.38 83.06 C 150.42 84.97 150.20 87.06 151.34 88.73 L 151.70 89.40 C 148.02 93.58 143.36 96.74 138.50 99.40 C 138.44 91.75 138.42 84.10 138.51 76.45 Z" />
</g>
<g id="#f23c7eff">
<path fill="#f23c7e" opacity="1.00" d=" M 167.70 77.10 C 171.48 74.40 175.31 71.74 179.50 69.71 C 179.54 78.69 179.55 87.68 179.50 96.66 C 175.40 98.64 171.65 101.24 167.66 103.41 C 167.62 102.77 167.55 101.49 167.52 100.85 C 161.79 100.92 156.07 100.77 150.35 101.04 C 150.38 106.97 150.36 112.91 150.34 118.85 C 146.39 121.32 142.53 123.92 138.50 126.24 C 138.44 117.29 138.42 108.34 138.50 99.40 C 143.36 96.74 148.02 93.58 151.70 89.40 C 157.01 88.68 162.38 89.10 167.71 88.97 C 167.68 85.01 167.68 81.06 167.70 77.10 Z" />
</g>
<g id="#d61bc3ff">
<path fill="#d61bc3" opacity="1.00" d=" M 42.31 80.32 C 46.73 78.65 50.58 75.87 54.22 72.91 C 54.23 79.87 54.24 86.84 54.21 93.80 C 50.01 95.91 46.96 100.20 42.23 101.16 C 36.51 100.79 30.78 100.84 25.05 100.90 C 24.99 106.51 25.00 112.13 24.96 117.74 C 21.27 119.98 17.19 122.03 14.57 125.57 C 13.28 129.15 14.01 133.08 14.03 136.80 L 13.11 136.81 C 13.32 123.71 12.73 110.54 13.38 97.49 L 13.80 96.69 C 13.92 99.08 14.07 101.48 14.18 103.87 C 20.34 99.08 27.02 94.82 32.32 89.03 C 35.66 89.02 39.00 89.00 42.34 88.93 C 42.29 86.05 42.29 83.18 42.31 80.32 Z" />
</g>
<g id="#ff4775ff">
<path fill="#ff4775" opacity="1.00" d=" M 78.66 80.98 C 78.72 76.37 84.45 73.09 88.42 75.52 C 92.68 77.90 96.68 80.72 100.80 83.34 C 95.70 87.56 92.72 93.57 88.69 98.70 C 85.33 102.98 82.31 107.51 79.57 112.21 C 78.13 108.64 78.63 104.75 78.56 101.00 C 78.65 94.33 78.42 87.65 78.66 80.98 Z" />
</g>
<g id="#cb1ad1ff">
<path fill="#cb1ad1" opacity="1.00" d=" M 14.50 85.52 C 17.02 81.84 21.17 79.78 24.98 77.70 C 24.99 81.46 25.01 85.22 25.00 88.98 C 25.50 88.99 26.49 88.99 26.99 89.00 C 28.76 89.01 30.54 89.02 32.32 89.03 C 27.02 94.82 20.34 99.08 14.18 103.87 C 14.07 101.48 13.92 99.08 13.80 96.69 C 13.91 92.97 13.41 89.12 14.50 85.52 Z" />
</g>
<g id="#ff5580ff">
<path fill="#ff5580" opacity="1.00" d=" M 88.69 98.70 C 92.72 93.57 95.70 87.56 100.80 83.34 C 105.19 86.62 111.19 88.46 113.48 93.87 C 112.86 96.43 112.31 99.37 109.79 100.77 C 103.15 105.15 96.44 109.44 89.71 113.69 C 87.49 115.28 84.71 115.13 82.13 114.93 C 81.31 114.00 80.45 113.10 79.57 112.21 C 82.31 107.51 85.33 102.98 88.69 98.70 Z" />
</g>
<g id="#e21eb3ff">
<path fill="#e21eb3" opacity="1.00" d=" M 42.23 101.16 C 46.96 100.20 50.01 95.91 54.21 93.80 C 54.24 101.15 54.23 108.50 54.22 115.84 C 50.75 118.03 47.17 120.20 44.48 123.36 C 40.24 128.44 35.08 132.81 29.42 136.21 C 24.40 137.41 19.15 136.58 14.03 136.80 C 14.01 133.08 13.28 129.15 14.57 125.57 C 17.19 122.03 21.27 119.98 24.96 117.74 C 24.97 120.25 25.12 122.76 25.35 125.26 L 25.15 125.87 C 30.83 125.49 36.52 125.70 42.21 125.69 C 42.35 118.42 42.27 111.16 42.27 103.90 C 42.26 103.21 42.24 101.85 42.23 101.16 Z" />
</g>
<g id="#f34f68ff">
<path fill="#f34f68" opacity="1.00" d=" M 167.66 103.41 C 171.65 101.24 175.40 98.64 179.50 96.66 C 179.56 106.68 179.54 116.69 179.50 126.71 C 173.97 128.86 169.05 132.50 165.68 137.43 C 160.58 137.58 155.49 137.57 150.39 137.50 C 150.20 141.15 150.97 145.03 149.64 148.51 C 146.98 151.45 142.82 150.38 139.49 149.52 C 138.91 147.74 138.33 145.92 138.44 144.02 C 138.46 138.09 138.43 132.17 138.50 126.24 C 142.53 123.92 146.39 121.32 150.34 118.85 C 150.35 121.15 150.37 123.44 150.42 125.73 L 151.38 125.71 C 156.81 125.63 162.25 125.68 167.69 125.68 C 167.64 118.25 167.76 110.83 167.66 103.41 Z" />
</g>
<g id="#00000035">
<path fill="#000000" opacity="0.21" d=" M 25.05 100.90 C 30.78 100.84 36.51 100.79 42.23 101.16 C 42.24 101.85 42.26 103.21 42.27 103.90 C 37.20 103.58 32.11 103.63 27.04 104.02 C 25.88 111.05 28.35 118.60 25.35 125.26 C 25.12 122.76 24.97 120.25 24.96 117.74 C 25.00 112.13 24.99 106.51 25.05 100.90 Z" />
<path fill="#000000" opacity="0.21" d=" M 150.35 101.04 C 156.07 100.77 161.79 100.92 167.52 100.85 C 167.28 101.57 166.80 103.00 166.57 103.72 C 161.80 103.57 157.02 103.72 152.28 104.25 C 151.51 111.38 152.25 118.59 151.38 125.71 L 150.42 125.73 C 150.37 123.44 150.35 121.15 150.34 118.85 C 150.36 112.91 150.38 106.97 150.35 101.04 Z" />
</g>
<g id="#ea22a4ff">
<path fill="#ea22a4" opacity="1.00" d=" M 44.48 123.36 C 47.17 120.20 50.75 118.03 54.22 115.84 C 54.00 126.46 54.69 137.14 53.91 147.71 C 51.44 151.94 45.46 150.92 42.26 148.11 C 42.33 144.62 42.28 141.12 42.25 137.63 C 32.57 137.55 22.90 137.63 13.23 137.58 L 13.11 136.81 L 14.03 136.80 C 19.15 136.58 24.40 137.41 29.42 136.21 C 35.08 132.81 40.24 128.44 44.48 123.36 Z" />
</g>
<g id="#f35c58ff">
<path fill="#f35c58" opacity="1.00" d=" M 165.68 137.43 C 169.05 132.50 173.97 128.86 179.50 126.71 C 179.48 136.54 179.67 146.37 179.42 156.19 C 179.33 156.60 179.15 157.43 179.07 157.84 C 177.16 163.11 173.98 168.17 169.01 171.01 C 165.15 173.46 160.53 174.29 156.02 174.23 C 143.26 174.22 130.50 174.25 117.75 174.19 C 121.40 170.01 126.13 166.88 129.40 162.34 C 138.85 162.15 148.29 162.35 157.74 162.25 C 162.84 162.41 167.40 158.02 167.61 152.95 C 167.80 148.01 167.74 143.06 167.52 138.12 L 167.49 137.41 C 167.03 137.42 166.13 137.43 165.68 137.43 Z" />
</g>
<g id="#0000003d">
<path fill="#000000" opacity="0.24" d=" M 150.39 137.50 C 155.49 137.57 160.58 137.58 165.68 137.43 C 166.13 137.43 167.03 137.42 167.49 137.41 L 167.52 138.12 C 167.42 138.59 167.23 139.54 167.14 140.01 C 162.23 140.51 156.81 139.04 152.26 141.31 C 151.58 144.25 151.99 147.34 151.18 150.25 C 148.29 154.14 141.94 153.67 139.49 149.52 C 142.82 150.38 146.98 151.45 149.64 148.51 C 150.97 145.03 150.20 141.15 150.39 137.50 Z" />
</g>
<g id="#eb23a1ff">
<path fill="#eb23a1" opacity="1.00" d=" M 13.22 151.19 C 13.89 146.81 19.88 145.14 23.05 147.98 C 25.23 149.74 24.81 152.82 25.56 155.25 C 26.26 158.21 28.77 160.14 31.13 161.80 C 27.87 164.38 24.68 167.05 21.67 169.91 C 16.31 165.30 12.52 158.42 13.22 151.19 Z" />
</g>
<g id="#f0308eff">
<path fill="#f0308e" opacity="1.00" d=" M 21.67 169.91 C 24.68 167.05 27.87 164.38 31.13 161.80 C 40.51 162.86 50.00 161.92 59.42 162.34 C 55.87 166.98 50.75 169.99 46.75 174.19 C 38.80 174.12 30.15 175.31 23.09 170.76 C 22.73 170.55 22.02 170.12 21.67 169.91 Z" />
</g>
<g id="#f23d7dff">
<path fill="#f23d7d" opacity="1.00" d=" M 59.42 162.34 C 69.75 162.21 80.08 162.23 90.41 162.34 C 86.98 167.08 81.95 170.20 77.79 174.20 C 67.44 174.24 57.10 174.25 46.75 174.19 C 50.75 169.99 55.87 166.98 59.42 162.34 Z" />
</g>
<g id="#f34d6aff">
<path fill="#f34d6a" opacity="1.00" d=" M 90.41 162.34 C 103.40 162.21 116.40 162.22 129.40 162.34 C 126.13 166.88 121.40 170.01 117.75 174.19 C 104.43 174.25 91.11 174.24 77.79 174.20 C 81.95 170.20 86.98 167.08 90.41 162.34 Z" />
</g>
</svg>
