<svg width="128" height="128" viewBox="0 0 128 128" fill="none" xmlns="http://www.w3.org/2000/svg">
<path d="M91.7353 73.7922C91.3691 72.571 89.8629 72 88.3162 72C86.81 72 85.3038 72.571 84.9377 73.7922L77.0811 99.3953C77.0406 99.5586 77 99.7209 77 99.8021C77 101.105 78.9129 102 80.338 102C81.2335 102 81.9253 101.716 82.1291 100.942L83.6749 95.528H92.997L94.5448 100.942C94.7477 101.716 95.4394 102 96.335 102C97.76 102 99.6729 101.065 99.6729 99.8021C99.6729 99.6804 99.6324 99.5576 99.5918 99.3953L91.7353 73.7922ZM84.7744 91.3756L88.3152 78.8798L91.858 91.3756H84.7744Z" fill="url(#paint0_linear_637_76)"/>
<path d="M109.502 53.3215H74.6776V38.448L85.9951 30.3643C86.8881 29.7262 87.4182 28.697 87.4182 27.5995C87.4182 26.5013 86.8881 25.472 85.9951 24.8339L74.5414 16.6529C73.6466 10.633 68.4436 6 62.1795 6H18.499C11.6065 6 6 11.6065 6 18.499V62.1804C6 69.072 11.6065 74.6785 18.499 74.6785H53.3224V89.552L42.0049 97.6357C41.1119 98.2738 40.5818 99.3039 40.5818 100.401C40.5818 101.499 41.1119 102.529 42.0049 103.166L53.4586 111.347C54.3534 117.367 59.5564 122 65.8205 122H109.502C116.393 122 122 116.393 122 109.501V65.8205C122 58.928 116.393 53.3215 109.502 53.3215ZM18.499 67.8817C15.3546 67.8817 12.7969 65.324 12.7969 62.1795V18.4981C12.7969 15.3546 15.3546 12.7969 18.499 12.7969H62.1795C65.3231 12.7969 67.8808 15.3546 67.8808 18.4981C67.8808 19.5964 68.4109 20.6266 69.3039 21.2638L78.1725 27.5987L69.3039 33.9336C68.4109 34.5717 67.8808 35.6018 67.8808 36.6992V53.3215H65.8205C58.9289 53.3215 53.3224 58.928 53.3224 65.8196V67.8817H18.499ZM115.203 109.501C115.203 112.645 112.645 115.203 109.502 115.203H65.8205C62.6769 115.203 60.1192 112.645 60.1192 109.501C60.1192 108.404 59.5891 107.373 58.6961 106.736L49.8275 100.401L58.6961 94.0664C59.5891 93.4283 60.1192 92.3982 60.1192 91.3008V65.8205C60.1192 62.676 62.6769 60.1183 65.8205 60.1183H71.2704H71.2792H71.2881H109.502C112.645 60.1183 115.203 62.676 115.203 65.8205V109.501Z" fill="url(#paint1_linear_637_76)" stroke="url(#paint2_linear_637_76)" stroke-width="2"/>
<path d="M51.4935 35.6335C52.676 35.6335 53.6359 34.6736 53.6359 33.49C53.6359 32.3065 52.676 31.3466 51.4935 31.3466H41.9609V26.1434C41.9609 24.9599 41.001 24 39.8175 24C38.6349 24 37.675 24.9599 37.675 26.1434V31.3466H28.1424C26.9599 31.3466 26 32.3065 26 33.49C26 34.6736 26.9599 35.6335 28.1424 35.6335H31.0963C31.5683 40.1588 33.5198 44.2487 36.4549 47.4163C34.0215 48.873 31.1794 49.7141 28.1424 49.7141C26.9599 49.7141 26 50.673 26 51.8566C26 53.0401 26.9599 54 28.1424 54C32.4788 54 36.5014 52.6443 39.8175 50.3386C43.1345 52.6443 47.1571 54 51.4935 54C52.676 54 53.6359 53.0401 53.6359 51.8566C53.6359 50.673 52.676 49.7141 51.4935 49.7141C48.4565 49.7141 45.6144 48.875 43.181 47.4163C46.1161 44.2487 48.0676 40.1588 48.5396 35.6335H51.4935ZM39.8175 44.7386C37.4731 42.3052 35.8809 39.1455 35.4148 35.6335H44.2211C43.755 39.1455 42.1628 42.3052 39.8175 44.7386Z" fill="url(#paint3_linear_637_76)"/>
<defs>
<linearGradient id="paint0_linear_637_76" x1="88.3365" y1="102" x2="88.3365" y2="72" gradientUnits="userSpaceOnUse">
<stop stop-color="#5558FF"/>
<stop offset="1" stop-color="#00C0FF"/>
</linearGradient>
<linearGradient id="paint1_linear_637_76" x1="64" y1="122" x2="64" y2="6" gradientUnits="userSpaceOnUse">
<stop stop-color="#5558FF"/>
<stop offset="1" stop-color="#00C0FF"/>
</linearGradient>
<linearGradient id="paint2_linear_637_76" x1="64" y1="122" x2="64" y2="6" gradientUnits="userSpaceOnUse">
<stop stop-color="#5558FF"/>
<stop offset="1" stop-color="#00C0FF"/>
</linearGradient>
<linearGradient id="paint3_linear_637_76" x1="39.818" y1="54" x2="39.818" y2="24" gradientUnits="userSpaceOnUse">
<stop stop-color="#5558FF"/>
<stop offset="1" stop-color="#00C0FF"/>
</linearGradient>
</defs>
</svg>
