<svg width="256" height="256" viewBox="0 0 256 256" fill="none" xmlns="http://www.w3.org/2000/svg">
<path d="M231 128C231 184.885 184.885 231 128 231C71.1147 231 25 184.885 25 128C25 71.1147 71.1147 25 128 25C184.885 25 231 71.1147 231 128Z" stroke="url(#paint0_linear)" stroke-width="18"/>
<path d="M194.273 88.7367L196.492 89.1012L198.622 88.3787L218.673 81.5772C226.744 96.3638 231 112.995 231 129.791C231 141.522 228.979 153.03 224.995 164.012C221.925 172.472 217.748 180.474 212.533 187.881V162.225V158.665L210.099 156.069L191.338 136.06V126.134V121.277L187.278 118.611L181.691 114.943L178.41 112.788L174.598 113.728L164.383 116.245L156.69 104.474L154.718 101.456L151.207 100.634L127.803 95.1579L166.24 75.2925L170.804 82.0322L172.976 85.2393L176.798 85.867L194.273 88.7367ZM162.803 116.634C162.803 116.634 162.803 116.634 162.804 116.634L162.803 116.634ZM165.296 117.641C165.297 117.642 165.298 117.644 165.299 117.646L165.296 117.641ZM121.827 98.2466L121.83 98.2452C121.829 98.2457 121.828 98.2462 121.827 98.2467L121.827 98.2466ZM97.0313 142.98L99.0232 145.137L101.904 145.705L118.077 148.892L108.741 158.091L106.057 160.735V164.502V171.341L95.0631 179.462L91.4104 182.16V186.702V194.945L77.8322 178.895V161.355V157.661L75.2363 155.032L59.5214 139.116V126.134V125.069L64.6112 125.003L80.2486 124.799L97.0313 142.98ZM121.442 145.577L121.441 145.578L121.442 145.577ZM77.2413 178.197C77.2418 178.197 77.2423 178.198 77.2427 178.198L77.2413 178.197ZM58.8044 138.39C58.8047 138.39 58.805 138.391 58.8054 138.391L58.8044 138.39ZM55.5393 115.101L55.2029 118.441L37.1484 106.586L31.1828 88.9269C41.8328 65.0227 61.8404 45.541 86.3046 35.3177L110.746 53.436L95.4389 59.4048L92.0566 60.7237L90.536 64.0202L85.1724 75.6485L62.6539 86.7345L58.1747 88.9396L57.6743 93.907L55.5393 115.101Z" stroke="url(#paint1_linear)" stroke-width="18"/>
<defs>
<linearGradient id="paint0_linear" x1="118.26" y1="233.984" x2="143.567" y2="31.5769" gradientUnits="userSpaceOnUse">
<stop stop-color="#8D01A2"/>
<stop offset="1" stop-color="#FF33DB"/>
</linearGradient>
<linearGradient id="paint1_linear" x1="121.52" y1="203.112" x2="138.768" y2="37.8856" gradientUnits="userSpaceOnUse">
<stop stop-color="#8D01A2"/>
<stop offset="1" stop-color="#FF33DB"/>
</linearGradient>
</defs>
</svg>
