<svg width="64" height="64" viewBox="0 0 64 64" fill="none" xmlns="http://www.w3.org/2000/svg">
<g clip-path="url(#clip0)">
<path opacity="0.182" d="M4.99533 51.6008H4.48535V51.6779H4.99533V51.6008Z" fill="url(#paint0_linear)"/>
<path fill-rule="evenodd" clip-rule="evenodd" d="M6.29478 0C8.87851 0 11.0967 1.53725 12.0533 3.73147L51.9874 3.74656C52.9483 1.56193 55.1615 0.0330811 57.7381 0.0330811C61.1963 0.0330811 63.9997 2.78696 63.9997 6.18403C63.9997 8.74365 62.4081 10.9381 60.1441 11.8645V52.2141C62.3504 53.1654 63.8914 55.3305 63.8914 57.8491C63.8914 61.2461 61.088 64 57.6298 64C55.0497 64 52.834 62.4671 51.8752 60.2778L12.0027 60.3008C11.0367 62.4738 8.82965 63.9925 6.26158 63.9925C2.8034 63.9925 0 61.2385 0 57.8414C0 55.3067 1.56091 53.1299 3.79004 52.1883V11.79C1.57863 10.8409 0.0332031 8.67319 0.0332031 6.15095C0.0332031 2.75387 2.83661 0 6.29478 0ZM51.9371 55.2838L43.8643 46.9305L47.4264 43.6908L55.1348 51.6669V12.8436L46.2585 21.0698L42.9717 17.5606L52.1826 9.02428C52.1176 8.90182 52.0567 8.77695 52 8.64983L12.2117 8.6348L19.7167 15.6734L16.3208 19.081L8.79931 12.0269V51.9504L16.3127 44.4409L19.732 47.8258L12.1473 55.4066L51.8914 55.3837C51.9064 55.3502 51.9216 55.3169 51.9371 55.2838Z" fill="url(#paint1_linear)"/>
<path fill-rule="evenodd" clip-rule="evenodd" d="M22.5747 39.9406V24.1839C23.4505 23.7158 24.1682 22.9985 24.6294 22.129L39.6062 22.1622C40.0054 22.9507 40.6135 23.6191 41.3594 24.0975V39.8133C40.6107 40.3207 40.0095 41.0231 39.6318 41.8459L24.581 41.8179C24.1058 41.0221 23.4094 40.3692 22.5747 39.9406ZM46.3687 24.3595V39.4292C48.0496 40.2232 49.2099 41.9117 49.2099 43.8665C49.2099 46.5842 46.9672 48.7873 44.2006 48.7873C42.5226 48.7873 41.0373 47.9768 40.1282 46.7325L24.6318 46.7037C23.7748 48.2081 22.137 49.225 20.2573 49.225C17.4908 49.225 15.248 47.0219 15.248 44.3042C15.248 42.5599 16.172 41.0276 17.5654 40.1537V24.0543C16.1312 23.1886 15.1748 21.6333 15.1748 19.8585C15.1748 17.1408 17.4175 14.9377 20.1841 14.9377C21.975 14.9377 23.5465 15.861 24.432 17.2495L39.8992 17.2838C40.7937 15.9407 42.3384 15.0533 44.0942 15.0533C46.8608 15.0533 49.1035 17.2564 49.1035 19.9741C49.1035 21.8873 47.992 23.5455 46.3687 24.3595Z" fill="url(#paint2_linear)"/>
</g>
<defs>
<linearGradient id="paint0_linear" x1="4.74034" y1="51.6779" x2="4.74034" y2="51.6008" gradientUnits="userSpaceOnUse">
<stop stop-color="#A93AFF"/>
<stop offset="1" stop-color="#FF81FF"/>
</linearGradient>
<linearGradient id="paint1_linear" x1="0.00937513" y1="31.0517" x2="64.0103" y2="31.0517" gradientUnits="userSpaceOnUse">
<stop stop-color="#A93AFF"/>
<stop offset="1" stop-color="#FF81FF"/>
</linearGradient>
<linearGradient id="paint2_linear" x1="32.1924" y1="49.225" x2="32.1924" y2="14.9377" gradientUnits="userSpaceOnUse">
<stop stop-color="#5570FF"/>
<stop offset="1" stop-color="#4DD3FF"/>
</linearGradient>
<clipPath id="clip0">
<rect width="64" height="64" fill="white"/>
</clipPath>
</defs>
</svg>
