<svg width="64" height="64" viewBox="0 0 64 64" fill="none" xmlns="http://www.w3.org/2000/svg">
<path fill-rule="evenodd" clip-rule="evenodd" d="M47.6009 7.59656C41.8973 5.19371 35.0866 5.50409 29.6723 8.52104C25.4626 10.8104 22.1817 14.6317 20.442 19.057C17.2318 18.5965 13.8365 19.0636 11.0166 20.7022C6.94158 22.995 4.14525 27.417 4.01401 32.0826C3.85249 35.5401 5.09418 39.0142 7.37566 41.624C9.19277 43.5864 11.4978 45.1349 14.1023 45.8457C16.0164 46.4172 18.0068 46.3993 19.9894 46.3814C20.7045 46.3749 21.4187 46.3685 22.1278 46.3897C22.3006 46.3815 22.4804 46.3811 22.663 46.3807C23.4376 46.379 24.2624 46.3772 24.8098 45.7723C25.3308 45.2921 25.3494 44.5681 25.3664 43.9082C25.368 43.8436 25.3696 43.7796 25.3717 43.7165C24.9343 43.1025 24.3522 42.455 23.5277 42.4583C22.5119 42.4126 21.4946 42.4227 20.4772 42.4327C19.3376 42.444 18.198 42.4552 17.0602 42.3882C13.6211 42.1479 10.458 39.9286 8.97404 36.8616C6.95167 32.9303 8.15634 27.7574 11.6459 25.0442C13.7759 23.242 16.6597 22.6212 19.4056 22.8515C19.3887 22.9917 19.3728 23.131 19.3567 23.2703C19.3408 23.4097 19.3248 23.5491 19.308 23.6892C19.2923 23.9511 19.2634 24.2211 19.2342 24.4945C19.1133 25.6255 18.986 26.8162 19.7555 27.7407C20.5766 28.1211 21.6298 28.3814 22.387 27.7207C23.065 27.2346 23.1106 26.4098 23.1533 25.6388C23.1634 25.4571 23.1732 25.2782 23.1912 25.1076C23.4772 19.384 27.1485 14.0076 32.3609 11.5613C36.3316 9.64571 41.0762 9.42879 45.2253 10.9072C46.9583 11.548 48.6038 12.449 50.0102 13.6439C54.9232 17.5518 57.1946 24.3968 55.4481 30.4172C53.8968 36.1675 48.9401 40.8798 43.0413 42.0478C42.9092 42.0778 42.7722 42.1048 42.6333 42.1322C41.8911 42.2786 41.0929 42.436 40.6791 43.1191C40.1541 43.7933 40.3359 44.691 40.6454 45.4119C41.231 45.8358 41.8972 46.313 42.6678 46.1294C49.5694 45.1749 55.7611 40.3825 58.4194 33.9982C60.2736 29.6863 60.4721 24.7572 59.1429 20.2684C57.3998 14.6384 53.0556 9.916 47.6009 7.59656Z" fill="url(#paint0_linear_640_11)" stroke="url(#paint1_linear_640_11)" stroke-width="2"/>
<path d="M28.3568 38.5971C29.1307 37.7728 30.5541 37.8829 31.2775 38.7172C32.9735 40.3792 34.6594 42.0512 36.3486 43.7166C37.1293 44.3907 37.3817 45.6889 36.6414 46.4832C35.4468 47.7881 34.1378 48.9895 32.8793 50.2377C34.2219 51.7862 35.9313 53.0176 37.099 54.7097C37.0351 55.534 36.8971 56.4951 36.0862 56.9323C35.2718 57.4463 34.1715 57.2127 33.5422 56.5218C31.8664 54.9133 30.2546 53.2413 28.5687 51.6393C27.8318 50.8951 27.8419 49.5902 28.6091 48.8693C29.7936 47.6446 31.0555 46.4899 32.2231 45.2483C30.9175 43.9401 29.5648 42.6787 28.2995 41.337C27.5659 40.6028 27.5861 39.2946 28.3568 38.5971Z" fill="url(#paint2_linear_640_11)" stroke="url(#paint3_linear_640_11)"/>
<path d="M17.8567 53.0412C17.0054 51.4125 19.1321 49.5036 20.6665 50.5581C22.1 51.7529 23.4191 53.1012 24.6473 54.4995C24.691 55.2738 24.7045 56.1783 24.0214 56.7089C23.2138 57.4731 21.9587 57.2362 21.178 56.562C20.1146 55.3472 18.772 54.3694 17.8567 53.0412Z" fill="url(#paint4_linear_640_11)"/>
<path d="M40.6889 53.6484C39.6995 52.7073 40.0629 50.8951 41.3484 50.4179C42.2838 49.9907 43.29 50.508 43.9126 51.2122C45.0062 52.3769 46.3353 53.3548 47.1833 54.7231C47.1329 55.4906 47.0454 56.3817 46.3219 56.8355C45.5883 57.3562 44.4812 57.3462 43.8284 56.6987C42.7415 55.7242 41.7522 54.6463 40.6889 53.6484Z" fill="url(#paint5_linear_640_11)"/>
<defs>
<linearGradient id="paint0_linear_640_11" x1="4.88145" y1="35.0879" x2="54.2427" y2="40.3766" gradientUnits="userSpaceOnUse">
<stop stop-color="#5570FF"/>
<stop offset="1" stop-color="#4DD3FF"/>
</linearGradient>
<linearGradient id="paint1_linear_640_11" x1="4.88145" y1="35.0879" x2="54.2427" y2="40.3766" gradientUnits="userSpaceOnUse">
<stop stop-color="#5570FF"/>
<stop offset="1" stop-color="#4DD3FF"/>
</linearGradient>
<linearGradient id="paint2_linear_640_11" x1="32.4313" y1="57.2106" x2="32.4313" y2="38.0322" gradientUnits="userSpaceOnUse">
<stop stop-color="#FD5900"/>
<stop offset="1" stop-color="#FFDE00"/>
</linearGradient>
<linearGradient id="paint3_linear_640_11" x1="32.4313" y1="57.2106" x2="32.4313" y2="38.0322" gradientUnits="userSpaceOnUse">
<stop stop-color="#FD5900"/>
<stop offset="1" stop-color="#FFDE00"/>
</linearGradient>
<linearGradient id="paint4_linear_640_11" x1="21.1634" y1="57.1843" x2="21.1634" y2="50.255" gradientUnits="userSpaceOnUse">
<stop stop-color="#00B59C"/>
<stop offset="1" stop-color="#9CFFAC"/>
</linearGradient>
<linearGradient id="paint5_linear_640_11" x1="43.6532" y1="57.2069" x2="43.6532" y2="50.2627" gradientUnits="userSpaceOnUse">
<stop stop-color="#00B59C"/>
<stop offset="1" stop-color="#9CFFAC"/>
</linearGradient>
</defs>
</svg>
