<svg width="192" height="192" viewBox="0 0 192 192" fill="none" xmlns="http://www.w3.org/2000/svg">
<path d="M161.218 6.18115L161.211 6.18243L161.204 6.18381C150.025 8.37165 138.836 10.5262 127.643 12.6813C109.567 16.1618 91.4842 19.6437 73.4302 23.2694C70.5438 23.4428 68.2547 25.1076 66.7515 27.2777C65.2477 29.4486 64.4677 32.2042 64.6223 34.7443C64.6414 46.7354 64.6383 58.7292 64.6352 70.724C64.6305 89.1449 64.6258 107.568 64.7013 125.989C57.1248 121.765 47.8479 120.751 39.5233 123.228C27.0158 126.794 17.3207 138.338 16.2028 151.278C14.8812 162.566 20.1081 174.228 29.3104 180.924C37.6094 187.109 48.9539 189.05 58.8327 185.767C68.801 182.695 76.8224 174.527 80.0424 164.715C81.5044 161.332 81.8094 157.807 81.7734 154.347C81.7569 152.761 81.668 151.168 81.5809 149.606C81.5726 149.457 81.5644 149.31 81.5562 149.162C81.4613 147.448 81.3767 145.771 81.3918 144.124V144.115C81.3965 135.931 81.3959 127.749 81.3953 119.567C81.3944 106.2 81.3934 92.8366 81.4152 79.4764C86.0719 78.4815 90.7812 77.7506 95.5248 77.0144L95.5697 77.0075C100.584 76.2292 105.637 75.4441 110.641 74.3359L110.645 74.3352C113.911 73.6005 117.221 73.0847 120.568 72.5631C120.96 72.502 121.352 72.4408 121.745 72.3792C125.48 71.7937 129.251 71.1695 132.963 70.1966L132.984 70.1912L133.004 70.1849C134.999 69.5695 136.831 68.2013 138.01 66.4506C139.195 64.6905 139.76 62.4771 139.066 60.231L139.039 60.1441L138.997 60.0635C138.098 58.3408 136.695 56.6385 134.957 55.5073C133.217 54.3745 131.09 53.7885 128.828 54.4276C127.455 54.7003 126.087 54.9801 124.723 55.2593C119.108 56.4077 113.544 57.5458 107.886 58.1428L107.858 58.1457L107.83 58.1502C104.136 58.7502 100.462 59.4682 96.8066 60.1824C95.8744 60.3646 94.9435 60.5465 94.0138 60.7261C89.8039 61.5395 85.6101 62.3086 81.388 62.8584C81.4145 58.9273 81.4103 54.9992 81.4062 51.0757L81.4057 50.6115C81.4014 46.4256 81.3984 42.2448 81.4338 38.0626C83.5062 37.6713 85.5789 37.2802 87.6518 36.8891C111.796 32.3338 135.969 27.7731 160.045 22.7633C160.136 38.4452 160.122 54.1017 160.109 69.7605C160.097 83.2831 160.086 96.8074 160.142 110.351C151.005 106.136 139.644 106.94 131.469 113.015C122.034 119.615 117.581 132.25 120.77 143.262C123.417 153.313 132.118 161.455 142.374 163.435C151.506 165.358 161.435 162.327 167.962 155.712C174.583 149.174 177.184 139.524 176.51 130.566C176.463 109.106 176.475 87.6473 176.487 66.1878C176.498 48.7542 176.508 31.3198 176.486 13.8827C176.795 10.1849 174.015 7.38561 171.489 5.76966L171.429 5.73145L171.364 5.70206C169.563 4.88136 167.734 4.89941 166.032 5.15778C165.183 5.28667 164.342 5.47938 163.542 5.66817C163.452 5.68933 163.363 5.71042 163.275 5.73139C162.561 5.90031 161.884 6.06064 161.218 6.18115ZM143.463 124.497L143.476 124.492L143.488 124.486C146.913 122.951 150.885 123.448 154.105 125.334C157.325 127.22 159.674 130.421 159.954 134.146L159.958 134.207L159.97 134.266C160.704 137.97 159.272 141.694 156.641 144.363C154.008 147.033 150.27 148.55 146.526 147.946L146.495 147.941L146.463 147.938C139.599 147.271 134.407 139.981 136.029 133.325L136.033 133.308L136.037 133.291C136.843 129.395 139.756 126.038 143.463 124.497ZM43.5505 138.636L43.5583 138.633L43.566 138.631C51.6965 135.819 61.7366 140.386 64.3227 148.565C64.8949 152.539 64.819 156.65 64.428 160.706C61.7155 168.58 52.3132 173.235 44.269 170.815L44.2516 170.809L44.2341 170.805C36.1027 168.676 30.5358 159.795 32.254 151.597L32.2568 151.583L32.2593 151.57C33.3306 145.651 37.8171 140.513 43.5505 138.636Z" fill="url(#paint0_linear)" stroke="url(#paint1_linear)" stroke-width="2"/>
<defs>
<linearGradient id="paint0_linear" x1="96.3067" y1="187.346" x2="96.3067" y2="5" gradientUnits="userSpaceOnUse">
<stop stop-color="#FD5900"/>
<stop offset="1" stop-color="#FFDE00"/>
</linearGradient>
<linearGradient id="paint1_linear" x1="96.3067" y1="187.346" x2="96.3067" y2="5" gradientUnits="userSpaceOnUse">
<stop stop-color="#FD5900"/>
<stop offset="1" stop-color="#FFDE00"/>
</linearGradient>
</defs>
</svg>
