<svg width="64" height="64" viewBox="0 0 64 64" fill="none" xmlns="http://www.w3.org/2000/svg">
<path d="M32 60C47.464 60 60 47.464 60 32C60 16.536 47.464 4 32 4C16.536 4 4 16.536 4 32C4 47.464 16.536 60 32 60Z" stroke="url(#paint0_linear)" stroke-width="6"/>
<path fill-rule="evenodd" clip-rule="evenodd" d="M34.2917 12.7507C34.7455 12.2335 35.2516 11.9849 35.944 12.0007C36.1747 12.006 36.4286 12.0425 36.7057 12.1062L36.7017 12.1101C37.0711 12.1949 37.4835 12.3327 37.9556 12.5202C39.3727 13.0818 39.5874 13.6193 39.436 16.2545C39.3041 18.549 39.7328 19.4718 41.3773 20.4262C42.7767 21.2387 43.9163 21.2128 46.045 20.3168C46.8167 19.9922 47.6753 19.7834 47.959 19.8598C48.5714 20.0248 50.3762 22.8747 50.369 23.6644C50.3657 24.0182 49.7881 24.7015 48.7636 25.5784C46.7656 27.2885 46.3404 28.1344 46.6075 29.8439C46.9287 31.8999 47.5329 32.6242 49.744 33.6094C52.0678 34.6448 52.3087 35.0802 51.74 37.1835C51.1707 39.2894 50.6336 39.5987 47.9121 39.4217C46.1096 39.3045 45.5345 39.3871 44.7833 39.8826C42.8218 41.1767 42.2444 43.3963 43.299 45.609C44.4069 47.9338 44.1834 48.6494 41.9436 49.8198C40.4541 50.5981 39.7782 50.5386 38.9282 49.5659C37.768 48.2385 37.4753 47.9342 36.7213 47.3003C35.8119 46.5359 34.7128 46.4211 33.1316 46.9253C31.5745 47.4218 31.3294 47.6725 30.6435 49.4331C29.8933 51.3585 28.9258 52.1529 27.5616 51.9759C27.0385 51.9084 26.3905 51.7315 26.1202 51.5853C25.8495 51.441 25.3953 51.2027 25.1125 51.058C24.4907 50.739 24.3158 49.8133 24.5305 48.0073C24.619 47.2627 24.6205 46.2924 24.5305 45.8511C24.3392 44.9142 22.7281 43.4099 21.5971 43.1051C20.8468 42.903 18.3549 43.3095 16.8082 43.8864C16.2805 44.0833 15.9377 44.0465 15.5271 43.7457C14.8101 43.2208 13.6813 41.2378 13.6482 40.4451C13.6225 39.8263 14.4497 38.7088 15.3083 38.203C16.0961 37.7388 17.0699 36.5134 17.2731 35.7265C17.5538 34.6427 17.151 32.5749 16.5231 31.8594C16.2257 31.5206 15.2867 30.949 14.4334 30.5821C13.58 30.2153 12.6428 29.6442 12.3553 29.3165C11.8849 28.7806 11.8849 28.5332 12.3319 26.8557C12.906 24.7013 13.6007 24.0558 14.9607 24.4222C16.3908 24.8075 18.1808 24.681 19.0347 24.1331C20.0765 23.4647 21.1137 21.6127 21.0971 20.4418C21.0905 19.9683 20.8043 18.8956 20.4682 18.0591C19.6548 16.0353 19.8738 15.3714 21.6752 14.3444C23.5712 13.2636 24.2341 13.2425 25.007 14.2311C26.7052 16.4031 27.1999 16.8468 28.249 17.1294C30.3872 17.7055 32.8088 16.4573 33.3269 14.5162C33.4681 13.9872 33.9035 13.1932 34.2917 12.7507ZM40 32C40 36.4183 36.4183 40 32 40C27.5817 40 24 36.4183 24 32C24 27.5817 27.5817 24 32 24C36.4183 24 40 27.5817 40 32Z" fill="url(#paint1_linear)"/>
<defs>
<linearGradient id="paint0_linear" x1="32" y1="60" x2="32" y2="4" gradientUnits="userSpaceOnUse">
<stop stop-color="#A93AFF"/>
<stop offset="1" stop-color="#FF81FF"/>
</linearGradient>
<linearGradient id="paint1_linear" x1="31.9995" y1="52" x2="31.9995" y2="12" gradientUnits="userSpaceOnUse">
<stop stop-color="#A93AFF"/>
<stop offset="1" stop-color="#FF81FF"/>
</linearGradient>
</defs>
</svg>
