<svg width="64" height="64" viewBox="0 0 64 64" fill="none" xmlns="http://www.w3.org/2000/svg">
<path fill-rule="evenodd" clip-rule="evenodd" d="M28.2458 19.4429C29.1101 20.1307 29.2531 21.389 28.5652 22.2532L25.0899 26.6198L25.0899 26.6199C24.0788 27.8901 22.2409 28.1255 20.9424 27.1515L20.9422 27.1513L18.8233 25.5615C17.9397 24.8986 17.7609 23.645 18.4238 22.7615C19.0867 21.8779 20.3403 21.6991 21.2239 22.362L22.5654 23.3685L25.4355 19.7623C26.1233 18.8981 27.3816 18.755 28.2458 19.4429ZM28.2458 31.5181C29.1101 32.2059 29.2531 33.4642 28.5652 34.3284L25.0899 38.695L25.0899 38.6951C24.0788 39.9653 22.2409 40.2007 20.9424 39.2267L20.9422 39.2265L18.8233 37.6367C17.9397 36.9738 17.7609 35.7202 18.4238 34.8367C19.0867 33.9531 20.3403 33.7743 21.2239 34.4372L22.5654 35.4437L25.4355 31.8375C26.1233 30.9732 27.3816 30.8302 28.2458 31.5181ZM28.5652 47.3035C29.2531 46.4393 29.1101 45.181 28.2458 44.4932C27.3816 43.8053 26.1233 43.9483 25.4355 44.8126L22.5654 48.4188L21.2239 47.4123C20.3403 46.7494 19.0867 46.9282 18.4238 47.8118C17.7609 48.6953 17.9397 49.9489 18.8233 50.6118L20.9422 52.2016L20.9424 52.2018C22.2409 53.1758 24.0788 52.9404 25.0899 51.6702L25.0899 51.6701L28.5652 47.3035Z" fill="url(#paint0_linear_641_82)"/>
<path fill-rule="evenodd" clip-rule="evenodd" d="M32.0273 24C32.0273 22.8954 32.9228 22 34.0273 22H44.8898C45.9944 22 46.8898 22.8954 46.8898 24C46.8898 25.1046 45.9944 26 44.8898 26H34.0273C32.9228 26 32.0273 25.1046 32.0273 24ZM32.0273 36C32.0273 34.8954 32.9228 34 34.0273 34H44.8898C45.9944 34 46.8898 34.8954 46.8898 36C46.8898 37.1046 45.9944 38 44.8898 38H34.0273C32.9228 38 32.0273 37.1046 32.0273 36ZM32.0273 48C32.0273 46.8954 32.9228 46 34.0273 46H44.8898C45.9944 46 46.8898 46.8954 46.8898 48C46.8898 49.1046 45.9944 50 44.8898 50H34.0273C32.9228 50 32.0273 49.1046 32.0273 48Z" fill="url(#paint1_linear_641_82)"/>
<path fill-rule="evenodd" clip-rule="evenodd" d="M22.834 4C21.8183 4 21 5.39864 21 7.13979V11.8602V12H14.3613C11.9455 12 10 13.905 10 16.2715V55.7285C10 58.095 11.9455 60 14.3613 60H49.6387C52.0545 60 54 58.095 54 55.7285V16.2715C54 13.905 52.0545 12 49.6387 12H43V11.8602V7.13979C43 5.39864 42.1817 4 41.166 4H35C32.5 4 30 4.00014 29 4.00027L22.834 4ZM21 15H16C14.8954 15 14 15.8954 14 17V54C14 55.1046 14.8954 56 16 56H48C49.1046 56 50 55.1046 50 54V17C50 15.8954 49.1046 15 48 15H43H21Z" fill="url(#paint2_linear_641_82)" stroke="url(#paint3_linear_641_82)" stroke-width="2"/>
<defs>
<linearGradient id="paint0_linear_641_82" x1="23.5119" y1="55.5312" x2="23.5119" y2="19.0077" gradientUnits="userSpaceOnUse">
<stop stop-color="#5570FF"/>
<stop offset="1" stop-color="#4DD3FF"/>
</linearGradient>
<linearGradient id="paint1_linear_641_82" x1="39.4586" y1="50" x2="39.4586" y2="22" gradientUnits="userSpaceOnUse">
<stop stop-color="#A93AFF"/>
<stop offset="1" stop-color="#FF81FF"/>
</linearGradient>
<linearGradient id="paint2_linear_641_82" x1="32" y1="60" x2="32" y2="4" gradientUnits="userSpaceOnUse">
<stop stop-color="#A93AFF"/>
<stop offset="1" stop-color="#FF81FF"/>
</linearGradient>
<linearGradient id="paint3_linear_641_82" x1="32" y1="60" x2="32" y2="4" gradientUnits="userSpaceOnUse">
<stop stop-color="#A93AFF"/>
<stop offset="1" stop-color="#FF81FF"/>
</linearGradient>
</defs>
</svg>
