<svg width="128" height="128" viewBox="0 0 128 128" fill="none" xmlns="http://www.w3.org/2000/svg">
<path d="M109 15H97.75V3.75C97.75 1.679 96.071 0 94 0H19C16.929 0 15.25 1.679 15.25 3.75V109.25C15.25 111.321 16.929 113 19 113H30.25V124.25C30.25 126.321 31.929 128 34 128H109C111.071 128 112.75 126.321 112.75 124.25V18.75C112.75 16.679 111.071 15 109 15ZM22.75 105.5V7.5H90.25V105.5H22.75ZM105.25 120.5H37.75V113H94C96.071 113 97.75 111.321 97.75 109.25V22.5H105.25V120.5ZM37.75 18.75C37.75 16.679 36.071 15 34 15C31.929 15 30.25 16.679 30.25 18.75V26.5C30.25 28.571 31.929 30.25 34 30.25C36.071 30.25 37.75 28.571 37.75 26.5V18.75ZM79 82.75C76.929 82.75 75.25 84.429 75.25 86.5V94.25C75.25 96.321 76.929 98 79 98C81.071 98 82.75 96.321 82.75 94.25V86.5C82.75 84.429 81.071 82.75 79 82.75ZM72.455 42.2868C70.3418 39.3613 67.339 37.75 64 37.75C60.9053 37.75 58.3757 38.9532 56.5 40.434C54.6243 38.9535 52.0947 37.75 49 37.75C45.661 37.75 42.6582 39.3612 40.5452 42.2865C38.7427 44.782 37.75 48.0543 37.75 51.5C37.75 56.4552 39.9377 66.062 54.591 74.7278C55.1797 75.076 55.8397 75.25 56.5 75.25C57.1603 75.25 57.8203 75.076 58.409 74.7278C73.0623 66.062 75.25 56.4552 75.25 51.5C75.25 48.054 74.2573 44.782 72.455 42.2868ZM56.5 67.0827C49.3203 62.366 45.25 56.7635 45.25 51.5C45.25 48.0538 46.9323 45.25 49 45.25C51.565 45.25 53.0745 47.585 53.2378 47.8507C53.8893 49.0702 55.116 49.8325 56.5 49.8325C57.884 49.8325 59.1105 49.0702 59.7622 47.8507C59.9255 47.585 61.435 45.25 64 45.25C66.0677 45.25 67.75 48.0538 67.75 51.5C67.75 56.7635 63.6797 62.366 56.5 67.0827Z" fill="url(#paint0_linear)"/>
<defs>
<linearGradient id="paint0_linear" x1="109.456" y1="3.6586" x2="49.8189" y2="117.724" gradientUnits="userSpaceOnUse">
<stop stop-color="#FE0F7C"/>
<stop offset="1" stop-color="#DF0066"/>
</linearGradient>
</defs>
</svg>
