<svg width="128" height="128" viewBox="0 0 128 128" fill="none" xmlns="http://www.w3.org/2000/svg">
<path fill-rule="evenodd" clip-rule="evenodd" d="M21 16H107.532C116.369 16 123.532 23.1634 123.532 32V96.4264C123.532 105.263 116.369 112.426 107.532 112.426H21C12.1634 112.426 5 105.263 5 96.4264V32C5 23.1634 12.1635 16 21 16ZM21 28C18.7909 28 17 29.7909 17 32V96.4264C17 98.6356 18.7909 100.426 21 100.426H107.532C109.742 100.426 111.532 98.6356 111.532 96.4264V32C111.532 29.7909 109.742 28 107.532 28H21Z" fill="url(#paint0_linear_640_50)"/>
<path fill-rule="evenodd" clip-rule="evenodd" d="M33.927 36.4664C32.744 35.1305 30.275 34.5882 28.3777 35.343C25.9317 36.1931 25.2688 38.8347 26.989 40.3658C29.6929 43.1358 32.4121 45.8981 35.1312 48.6604C36.4868 50.0376 37.8424 51.4147 39.1961 52.7927C39.8706 53.3696 40.1563 54.2849 39.3847 54.8964C36.847 57.5274 34.273 60.1394 31.6984 62.752C30.1854 64.2873 28.6723 65.8228 27.1661 67.3625C24.4915 69.3664 26.7604 73.192 30.5037 72.9925C31.9953 72.9665 33.2697 72.2205 34.1041 71.3356C35.5405 69.8731 36.9754 68.4102 38.4101 66.9475C41.856 63.4344 45.301 59.9224 48.763 56.4189C48.8884 56.2883 49.0153 56.1584 49.1422 56.0286C49.6981 55.4598 50.2541 54.8909 50.6775 54.2589C50.8224 53.6688 50.3597 53.194 49.9172 52.74C49.784 52.6033 49.6526 52.4685 49.5403 52.333C47.5847 50.347 45.6315 48.3591 43.6784 46.3713C40.4316 43.0668 37.1849 39.7624 33.927 36.4664ZM50.3204 64.0103C49.7548 64.0165 49.1789 64.0228 48.6585 64.3183C47.6793 64.8209 47.0118 66.0996 47.0029 67.4228C46.9272 69.3157 48.3514 71.1583 49.8824 70.9684C54.3439 70.9841 58.8075 70.9806 63.2704 70.9771C65.1781 70.9756 67.0857 70.9741 68.9929 70.9741C70.6087 71.2421 72.1172 69.3883 71.9928 67.3669C71.9703 65.4573 70.5325 63.866 69.0241 64.0167C65.8717 63.9994 62.7181 64.003 59.5645 64.0067C56.632 64.0101 53.6995 64.0135 50.768 64C50.6203 64.0071 50.4707 64.0087 50.3204 64.0103Z" fill="url(#paint1_linear_640_50)"/>
<defs>
<linearGradient id="paint0_linear_640_50" x1="64.4371" y1="92.9237" x2="71.1524" y2="22.6281" gradientUnits="userSpaceOnUse">
<stop stop-color="#B400CF"/>
<stop offset="1" stop-color="#339DFF"/>
</linearGradient>
<linearGradient id="paint1_linear_640_50" x1="26" y1="73" x2="77.6666" y2="45.7399" gradientUnits="userSpaceOnUse">
<stop stop-color="#0357D1"/>
<stop offset="1" stop-color="#27CDFC"/>
</linearGradient>
</defs>
</svg>
