<svg width="64" height="64" viewBox="0 0 64 64" fill="none" xmlns="http://www.w3.org/2000/svg">
<path opacity="0.35" fill-rule="evenodd" clip-rule="evenodd" d="M28.3311 19.8577C28.3311 11.1871 35.4682 4.07892 44.1685 4.07892C52.8685 4.07892 60.0009 11.1871 60.0009 19.8577C60.0009 28.5283 52.8685 35.6365 44.1685 35.6365H35.6648V44.1423C35.6648 52.8129 28.5327 59.9211 19.8324 59.9211C11.1324 59.9211 4 52.8129 4 44.1423C4 35.4717 11.1324 28.3635 19.8324 28.3635H28.3311V19.8577ZM35.6648 28.3886V28.3635H35.6037V19.8576C35.6037 15.1084 39.4029 11.3266 44.1685 11.3266C48.9338 11.3266 52.7285 15.1082 52.7285 19.8576C52.7285 24.6068 48.9336 28.3886 44.1685 28.3886H35.6648ZM28.3311 35.6111H19.8324C15.0671 35.6111 11.2722 39.393 11.2722 44.1422C11.2722 48.8916 15.0671 52.6732 19.8324 52.6732C24.5977 52.6732 28.3924 48.8913 28.3924 44.1422V35.6365H28.3311V35.6111Z" fill="url(#paint0_linear_674_147)"/>
<path fill-rule="evenodd" clip-rule="evenodd" d="M35.7576 35.7135V44.126C35.7576 52.8923 28.6258 60.0001 19.8296 60.0001C18.4951 60.0001 17.5463 59.8501 16.3108 59.5283C14.5095 59.0583 13.0375 57.5865 13.0371 55.8744C13.0371 53.8049 14.5442 52.2996 16.7974 52.2996C17.2825 52.2996 17.6278 52.3416 18.0059 52.3876C18.4636 52.4432 18.9695 52.5047 19.8296 52.5047C24.467 52.5047 28.2286 48.761 28.2372 44.1394V36.8584C28.237 36.7031 28.2061 36.5494 28.1463 36.406C28.0865 36.2626 27.9989 36.1324 27.8886 36.0228C27.7783 35.9131 27.6474 35.8262 27.5033 35.7669C27.3593 35.7077 27.205 35.6773 27.0492 35.6775L21.5261 35.6765C19.4683 35.6765 17.8055 34.0406 17.8055 31.9843C17.8045 29.9153 19.4856 28.286 21.5655 28.286L28.2384 28.2865V19.874C28.2384 11.1077 35.3701 4 44.1663 4C45.5008 4 46.4497 4.14991 47.6851 4.4718C49.4865 4.94181 50.9585 6.41359 50.9588 8.12563C50.9588 10.1952 49.4518 11.7004 47.1986 11.7004C46.7135 11.7004 46.3682 11.6585 45.99 11.6125C45.5323 11.5569 45.0265 11.4954 44.1663 11.4954C39.529 11.4954 35.7673 15.239 35.7588 19.8607V27.1417C35.759 27.2969 35.7899 27.4507 35.8497 27.594C35.9095 27.7374 35.997 27.8676 36.1074 27.9773C36.2177 28.087 36.3486 28.1739 36.4926 28.2331C36.6366 28.2924 36.7909 28.3227 36.9467 28.3225L42.4699 28.3236C44.5276 28.3236 46.1904 29.9595 46.1904 32.0157C46.1914 34.0848 44.5104 35.714 42.4304 35.714L35.7576 35.7135Z" fill="#2F80ED"/>
<defs>
<linearGradient id="paint0_linear_674_147" x1="32.0005" y1="59.9211" x2="32.0005" y2="4.07892" gradientUnits="userSpaceOnUse">
<stop stop-color="#5570FF"/>
<stop offset="1" stop-color="#4DD3FF"/>
</linearGradient>
</defs>
</svg>
