<svg width="64" height="64" viewBox="0 0 64 64" fill="none" xmlns="http://www.w3.org/2000/svg">
<g clip-path="url(#clip0)">
<path d="M19.3208 2.66066C26.0423 -0.306865 33.7959 -0.820634 40.8369 1.26321C47.5338 3.21142 53.5221 7.49419 57.5525 13.2032C58.3102 14.3047 59.3752 15.5131 58.9082 16.9599C58.1505 18.6286 55.6151 18.9738 54.6894 17.2763C51.8796 12.9031 47.8942 9.26566 43.1593 7.10372C37.0686 4.27595 29.9089 3.89781 23.5478 6.03509C22.6508 5.02399 21.7661 4.00879 20.8814 2.98947C20.6643 3.10044 20.2342 3.32239 20.0212 3.43337C19.7877 3.17854 19.5543 2.9196 19.3208 2.66066Z" fill="#008AFF"/>
<path d="M5.5993 14.4075C8.96618 9.3027 13.7298 5.13501 19.3208 2.66071C19.5542 2.91964 19.7877 3.17858 20.0212 3.43341C20.2342 3.32244 20.6642 3.10049 20.8813 2.98952C21.7661 4.00883 22.6508 5.02404 23.5478 6.03513C17.6578 7.98745 12.5501 12.1017 9.28157 17.3873C8.14289 16.2899 6.91411 15.2871 5.5993 14.4075Z" fill="#007EFF"/>
<path opacity="0.12" d="M23.5478 6.0351C29.9088 3.89783 37.0685 4.27596 43.1592 7.10374C47.8942 9.26568 51.8795 12.9032 54.6894 17.2763C55.615 18.9738 58.1504 18.6286 58.9082 16.9599C59.1417 16.6516 59.3792 16.3433 59.6168 16.0351C59.5717 17.2887 59.0147 18.6039 57.7736 19.0807C56.3523 19.8 54.7098 18.9533 53.9193 17.6997C52.367 15.3364 50.3272 13.3594 48.2505 11.4646C41.4799 5.85837 31.7069 4.26363 23.4659 7.22293C18.563 8.69437 14.4916 12.114 11.3009 16.0351C10.281 17.3216 9.46179 19.1547 7.63499 19.3848C5.89011 19.3807 4.20258 17.8682 4.45243 16.0351C4.61627 16.2653 4.94804 16.7215 5.11598 16.9516C5.84915 18.6163 8.25348 18.9368 9.28157 17.3873C12.5501 12.1017 17.6578 7.98742 23.5478 6.0351Z" fill="black"/>
<path d="M5.11598 16.9517C4.80468 16.0556 5.15694 15.1761 5.5993 14.4075C6.9141 15.287 8.14289 16.2899 9.28156 17.3873C8.25348 18.9368 5.84915 18.6163 5.11598 16.9517Z" fill="#1678FF"/>
<path d="M18.092 26.4009C20.1728 19.8041 27.4677 15.5584 34.2219 16.7051C39.5057 17.4408 44.1915 21.2879 45.961 26.3352C47.9598 23.195 51.8591 21.4153 55.5291 22.1099C59.1868 22.6689 62.2137 25.6241 63.1394 29.1794C63.5285 31.4523 63.3811 33.8814 62.2301 35.92C60.4647 39.3109 56.5121 41.3618 52.7316 40.8152C49.9709 40.511 47.5174 38.83 45.965 36.5571C44.2202 41.3331 39.944 45.0815 34.9469 46.0227C33.4437 44.5883 31.7889 43.2977 30.5888 41.5715C35.0944 42.2373 39.8375 39.5123 41.439 35.2213C42.5982 32.4675 42.3934 29.1999 40.9639 26.5859C39.2723 23.3964 35.8071 21.2509 32.2026 21.218C27.0909 21.0043 22.4215 25.1925 21.848 30.2562C20.3202 29.2739 19.1365 27.8723 18.092 26.4009ZM50.8556 27.7778C49.209 29.0972 48.7994 31.4317 49.4958 33.3594C50.4255 35.1226 52.3056 36.4461 54.3536 36.1995C56.1025 36.0885 57.532 34.8596 58.3553 33.3758C58.8755 31.7893 58.8305 29.9439 57.7614 28.5916C56.2377 26.4009 52.8381 25.994 50.8556 27.7778Z" fill="#0082FF"/>
<path opacity="0.12" d="M21.848 30.2562C22.4215 25.1925 27.0909 21.0043 32.2026 21.218C35.8071 21.2509 39.2722 23.3964 40.9639 26.5858C42.3934 29.1999 42.5982 32.4674 41.439 35.2212C41.4062 33.0305 41.8199 30.7371 40.9434 28.6532C39.6163 24.876 35.762 22.2044 31.7807 22.2743C27.6233 22.4099 23.724 25.509 22.7819 29.6068C22.315 31.4399 22.5935 33.3511 22.573 35.2212C22.3109 34.5143 22.0815 33.7991 21.9136 33.0634C21.8357 32.1304 21.8071 31.1933 21.848 30.2562Z" fill="black"/>
<path opacity="0.12" d="M7.2459 27.5188C8.8597 26.4954 11.0428 26.294 12.6648 27.4119C14.6309 28.6244 15.4214 31.3371 14.4097 33.421C14.1967 31.7564 14.1722 29.7588 12.7468 28.6162C11.2968 27.3174 8.92933 27.3256 7.46708 28.6039C5.97615 29.7383 6.01301 31.7975 5.72629 33.4785C5.55426 32.9524 5.39452 32.4222 5.25936 31.8838C5.2184 30.1986 5.96386 28.5957 7.2459 27.5188Z" fill="black"/>
<path opacity="0.12" d="M50.8555 27.7778C52.838 25.994 56.2376 26.4009 57.7613 28.5916C58.8304 29.9439 58.8754 31.7893 58.3552 33.3758C57.9456 31.6619 57.9743 29.4876 56.3236 28.4149C54.4805 26.9434 51.4413 27.6422 50.3558 29.7178C49.8561 30.8686 49.7496 32.1428 49.4957 33.3594C48.7994 31.4317 49.209 29.0972 50.8555 27.7778Z" fill="black"/>
<path d="M4.2558 23.9348C6.13584 22.5497 8.44187 21.8715 10.7684 21.9455C12.8164 23.5813 14.5694 25.5295 16.3635 27.4325C18.3049 29.2163 20.0334 31.2138 21.9135 33.0634C22.0814 33.7991 22.3108 34.5143 22.5729 35.2212C23.8468 38.5916 27.058 41.0371 30.5887 41.5714C31.7888 43.2977 33.4436 44.5883 34.9468 46.0227C27.9796 47.6051 20.3939 43.3018 18.0469 36.5529C17.8994 36.742 17.6127 37.116 17.4694 37.3051C16.1955 36.4255 15.0855 35.3404 14.0779 34.169C14.1598 33.98 14.3278 33.6059 14.4097 33.421C15.4214 31.3371 14.6309 28.6244 12.6648 27.412C11.0428 26.294 8.85966 26.4954 7.24585 27.5188C6.39389 26.2118 5.3699 25.0281 4.2558 23.9348Z" fill="#2775FF"/>
<path d="M10.7684 21.9455C13.7297 22.2414 16.4945 23.8732 18.0919 26.4009C19.1364 27.8723 20.3201 29.2739 21.8479 30.2562C21.807 31.1933 21.8357 32.1304 21.9135 33.0634C20.0334 31.2139 18.3049 29.2163 16.3635 27.4325C14.5694 25.5295 12.8164 23.5813 10.7684 21.9455Z" fill="#1478FF"/>
<path d="M1.04877 28.5299C1.71231 26.7502 2.81412 25.1678 4.2559 23.9348C5.37 25.0281 6.39399 26.2118 7.24595 27.5188C5.96392 28.5957 5.21845 30.1986 5.25941 31.8838C3.70704 30.9508 2.62161 29.4341 1.04877 28.5299Z" fill="#3A72FF"/>
<path d="M9.07269 36.2117C10.9896 36.4584 12.8819 35.6733 14.078 34.169C15.0856 35.3404 16.1956 36.4255 17.4694 37.305C16.3143 38.7888 14.7005 39.8698 12.9311 40.474C11.8498 38.8587 10.0025 37.9503 9.07269 36.2117Z" fill="#3A72FF"/>
<path opacity="0.11" d="M0.45066 28.904L0.954463 29.0149C0.135271 32.2661 1.07325 35.9118 3.52263 38.2299C5.93924 40.6467 9.68705 41.4728 12.931 40.474C14.7005 39.8698 16.3143 38.7889 17.4694 37.3051C17.6127 37.116 17.8994 36.742 18.0469 36.553C20.3939 43.3018 27.9796 47.6051 34.9468 46.0227C39.9439 45.0815 44.2201 41.333 45.965 36.5571C47.5173 38.83 49.9708 40.511 52.7315 40.8152C56.5121 41.3618 60.4646 39.3109 62.23 35.92C63.381 33.8814 63.5284 31.4523 63.1393 29.1794L63.4301 28.6902C64.5115 31.5961 64.024 34.9993 62.2218 37.5065C59.9199 41.3166 54.7999 42.8744 50.6712 41.4358C48.9755 40.9796 47.7877 39.5246 46.1329 39.0067C45.5554 39.4136 45.2154 40.0507 44.814 40.6138C42.3196 44.4568 37.9655 46.9434 33.4231 47.3133C27.5127 47.9298 21.4793 44.8143 18.5343 39.6438C17.9035 38.382 16.728 39.5575 15.9825 40.0425C12.9884 42.2825 8.72859 42.5784 5.43954 40.8316C1.22889 38.7313 -1.01979 33.4005 0.45066 28.904Z" fill="black"/>
<path d="M0.954478 29.0149L1.04868 28.5299C2.62153 29.4341 3.70696 30.9508 5.25933 31.8838C5.3945 32.4222 5.55424 32.9524 5.72627 33.4785C6.42668 34.8102 7.68004 35.7144 9.07267 36.2118C10.0024 37.9504 11.8497 38.8587 12.9311 40.474C9.68706 41.4727 5.93926 40.6466 3.52264 38.2298C1.07326 35.9117 0.135286 32.266 0.954478 29.0149Z" fill="#4670FF"/>
<path d="M5.21423 46.8036C5.64431 45.8336 6.47989 44.8595 7.64314 44.9458C8.96613 44.8719 9.68702 46.1296 10.3424 47.0708C13.7871 51.9618 18.9521 55.5336 24.6618 57.2311C25.0755 58.0408 25.3418 59.0066 26.1118 59.5615C26.8778 60.1164 27.7256 60.6055 28.2253 61.4439C28.6267 61.6906 29.0281 61.9372 29.4377 62.1838C28.7168 62.3112 27.996 62.4427 27.271 62.5455C18.5794 61.2754 10.5431 56.0884 5.78357 48.682C5.41903 48.123 5.32482 47.4489 5.21423 46.8036Z" fill="#536BFF"/>
<path d="M54.0176 46.5776C54.5419 45.7391 55.3079 44.8842 56.3892 44.9418C57.5483 44.8678 58.3675 45.846 58.8099 46.8078C58.6952 48.4066 57.6139 49.6396 56.6882 50.8521C54.6197 53.5155 52.1048 55.8254 49.3032 57.6955C48.1645 56.5529 46.9767 55.4678 45.7315 54.4444C48.9919 52.4304 51.8673 49.7671 54.0176 46.5776Z" fill="#007CFF"/>
<path opacity="0.11" d="M5.97606 50.5562C5.20192 49.5451 4.16155 47.975 5.21421 46.8036C5.3248 47.4489 5.41901 48.123 5.78355 48.682C10.5431 56.0885 18.5793 61.2755 27.2709 62.5455C30.0521 62.9688 32.8865 63.0099 35.684 62.6894C37.9286 62.4304 40.1445 61.9166 42.2826 61.1809C43.7818 60.6507 45.244 60.0178 46.653 59.2738C47.5582 58.7888 48.443 58.2586 49.3031 57.6955C52.1047 55.8254 54.6197 53.5155 56.6881 50.8521C57.6138 49.6396 58.6951 48.4066 58.8098 46.8078C59.3792 47.5394 59.2932 48.5463 58.8262 49.3067C52.6946 59.1135 40.8531 64.9951 29.3558 63.8607C20.1112 63.1949 11.3459 58.1148 5.97606 50.5562Z" fill="black"/>
<path d="M43.5688 55.6239C44.2897 55.2335 45.0106 54.843 45.7315 54.4443C46.9767 55.4678 48.1645 56.5528 49.3032 57.6955C48.443 58.2586 47.5583 58.7888 46.6531 59.2738C45.4817 58.1887 44.2774 57.083 43.5688 55.6239Z" fill="#1677FF"/>
<path d="M38.3793 57.4817C40.1569 57.0132 41.8936 56.3926 43.5689 55.624C44.2775 57.0831 45.4817 58.1887 46.6531 59.2738C45.2441 60.0177 43.7818 60.6507 42.2827 61.1809C40.8041 60.1492 39.5302 58.8669 38.3793 57.4817Z" fill="#2875FF"/>
<path d="M24.6619 57.2311C27.1154 57.8682 29.6344 58.2545 32.1739 58.2422C33.6976 59.4053 34.8732 60.9549 35.6842 62.6894C32.8866 63.0099 30.0522 62.9688 27.2711 62.5455C27.996 62.4427 28.7169 62.3112 29.4378 62.1838C29.0282 61.9372 28.6268 61.6906 28.2254 61.444C27.7257 60.6055 26.8778 60.1164 26.1119 59.5615C25.3419 59.0067 25.0756 58.0408 24.6619 57.2311Z" fill="#4470FF"/>
<path d="M32.1738 58.2421C34.2628 58.2134 36.3435 57.9503 38.3792 57.4818C39.5302 58.8669 40.804 60.1492 42.2826 61.1809C40.1446 61.9166 37.9286 62.4304 35.6841 62.6893C34.8731 60.9548 33.6975 59.4053 32.1738 58.2421Z" fill="#3773FF"/>
</g>
<defs>
<clipPath id="clip0">
<rect width="64" height="64" fill="white"/>
</clipPath>
</defs>
</svg>
