<svg width="64" height="64" viewBox="0 0 64 64" fill="none" xmlns="http://www.w3.org/2000/svg">
<path fill-rule="evenodd" clip-rule="evenodd" d="M20.5 10.7995L25.0762 9.88431L26.1055 12.9722C26.4594 14.0339 27.4529 14.75 28.5721 14.75H35.4279C36.547 14.75 37.5406 14.0339 37.8945 12.9722L38.9238 9.88431L43.5 10.7995V15.6965C43.5 16.5658 43.9345 17.3776 44.6578 17.8598L49.8078 21.2932C50.6811 21.8754 51.8189 21.8754 52.6922 21.2932L55.5304 19.401L56.9581 22.2564L54.7615 24.453C54.2739 24.9406 54 25.6019 54 26.2915V42.9749H47.225C46.1204 42.9749 45.225 43.8703 45.225 44.9749V47.5249H39.775V44.9749C39.775 43.8703 38.8796 42.9749 37.775 42.9749H32H26.225C25.1204 42.9749 24.225 43.8703 24.225 44.9749V47.5249H18.775V44.9749C18.775 43.8703 17.8796 42.9749 16.775 42.9749H9.99999V26.2915C9.99999 25.6019 9.72608 24.9406 9.23847 24.453L7.04189 22.2564L8.46957 19.401L11.3078 21.2932C12.1811 21.8754 13.3189 21.8754 14.1922 21.2932L19.3422 17.8598C20.0655 17.3776 20.5 16.5658 20.5 15.6965V10.7995ZM9.99999 46.9749V46.9834C10.1092 47.3746 10.5414 48.5968 11.9434 49.9981C13.7983 51.8521 17.5713 54.24 25.1634 55.25H38.9816C46.6202 55.1356 50.2728 52.7443 52.041 50.7785C53.5515 49.0992 53.9276 47.4629 54 47.0678V46.9749H49.225V49.5249C49.225 50.6295 48.3296 51.5249 47.225 51.5249H37.775C36.6704 51.5249 35.775 50.6295 35.775 49.5249V46.9749H32H28.225V49.5249C28.225 50.6295 27.3296 51.5249 26.225 51.5249H16.775C15.6704 51.5249 14.775 50.6295 14.775 49.5249V46.9749H9.99999ZM54.0015 47.3329C54.0008 47.3123 54.0003 47.2885 54.0001 47.2618C54.0009 47.3227 54.005 47.4365 54.0015 47.3329ZM29.1496 6.29321C28.735 5.04927 27.4589 4.30874 26.1731 4.5659L17.5901 6.28251C16.3748 6.52557 15.5 7.59264 15.5 8.83202V14.4121L12.75 16.2454L8.98099 13.7327C7.67974 12.8652 5.91265 13.3345 5.21326 14.7333L1.79615 21.5675C1.29567 22.5685 1.49185 23.7774 2.28319 24.5688L4.99999 27.2856V47.2243C4.9993 47.298 5.00181 47.3751 5.00843 47.4552C5.01431 47.5263 5.02204 47.5824 5.02593 47.6093C5.09261 48.071 5.59035 50.7175 8.40879 53.5345C11.2312 56.3555 16.1584 59.125 24.6786 60.2293L24.8386 60.25H25H39H39.0181L39.0363 60.2498C47.7956 60.1227 52.8832 57.3188 55.7584 54.1223C58.5683 50.9984 58.9523 47.8444 58.987 47.5048C58.9887 47.4883 58.9933 47.4422 58.9965 47.3831C58.9982 47.3505 58.9996 47.3131 59 47.2718C59.0001 47.2562 59.0001 47.2412 59 47.2271V27.2856L61.7168 24.5688C62.5081 23.7774 62.7043 22.5685 62.2038 21.5675L58.7867 14.7333C58.0873 13.3345 56.3202 12.8653 55.019 13.7327L51.25 16.2454L48.5 14.4121V8.83202C48.5 7.59264 47.6252 6.52557 46.4099 6.28251L37.8268 4.5659C36.5411 4.30874 35.265 5.04927 34.8504 6.29321L33.6981 9.75004H30.3019L29.1496 6.29321ZM23.25 26.25H16.25V33.25H23.25V26.25ZM40.75 26.25H47.75V33.25H40.75V26.25Z" fill="url(#paint0_linear_501:37)"/>
<defs>
<linearGradient id="paint0_linear_501:37" x1="7.59898" y1="32.3826" x2="51.7532" y2="32.3826" gradientUnits="userSpaceOnUse">
<stop stop-color="#5570FF"/>
<stop offset="1" stop-color="#4DD3FF"/>
</linearGradient>
</defs>
</svg>
