<svg width="48" height="48" viewBox="0 0 48 48" fill="none" xmlns="http://www.w3.org/2000/svg">
<path fill-rule="evenodd" clip-rule="evenodd" d="M5.39122 3.09611C6.97073 1.57665 9.1878 1.80146 10.9214 2.77253L10.93 2.77735L25.7994 11.2031L33.5 14L36.9515 17.5224L40.6688 19.6288L40.6731 19.6278L41.3504 20.0148C42.7936 20.8393 43.9998 22.2034 43.9998 23.9994C43.9998 25.7992 42.7893 27.1587 41.3407 27.9726L41.3368 27.9748L10.9363 45.2021C9.17694 46.2147 6.98084 46.4223 5.38556 44.8811L5.37412 44.8701L5.36285 44.8588C4.4068 43.9053 4 42.5615 4 41.1918V6.79083C4 5.46843 4.35991 4.08123 5.39122 3.09611ZM8.12469 6.00479L8.12571 6.00449ZM8.14648 6.00133C8.15468 6.00053 8.16547 5.99982 8.17928 5.99953C8.28625 5.99729 8.55061 6.03003 8.96281 6.26021L8.9666 6.26233L18.8403 11.0509L33 13L39.3901 23.5017C39.786 23.7317 39.9308 23.9121 39.9809 23.9987C39.9768 24.005 39.9721 24.0119 39.9666 24.0195C39.8991 24.1132 39.7323 24.2884 39.3798 24.4862L39.3722 24.4904L36.3265 30.814L25.6094 36.8872L16.5565 37.4197L8.95125 41.7294L8.94429 41.7334C8.52584 41.975 8.27437 42.002 8.18817 42.0002C8.17969 42 8.17264 41.9996 8.16692 41.9991C8.11823 41.9256 8 41.6951 8 41.1918V6.79083C8 6.27039 8.11023 6.05781 8.14648 6.00133ZM8.14676 41.9959L8.14817 41.9963ZM40.0057 24.055C40.0057 24.055 40.0042 24.0517 40.003 24.0446C40.0054 24.0514 40.0057 24.055 40.0057 24.055Z" fill="url(#paint0_linear)"/>
<path fill-rule="evenodd" clip-rule="evenodd" d="M26.1274 8.11547C22.0698 8.11188 18.3735 9.64883 15.5511 12.1637L15.5446 12.1702C15.1582 12.515 14.7878 12.8771 14.4354 13.2575C14.4075 13.289 14.3798 13.3206 14.3521 13.3524C14.0308 13.7059 13.7243 14.0723 13.4338 14.4539C13.3885 14.5146 13.3437 14.5757 13.2993 14.6371C13.0301 15.0003 12.777 15.3733 12.5399 15.7592C12.4933 15.8354 12.4474 15.9119 12.4021 15.9889C12.1777 16.3651 11.9694 16.7521 11.776 17.1489C11.7306 17.2411 11.686 17.3339 11.6424 17.427C11.4629 17.8119 11.2993 18.2065 11.1494 18.6076C11.11 18.7125 11.0718 18.8178 11.0346 18.9235C10.8997 19.3106 10.7811 19.7031 10.6751 20.1032C10.6378 20.2411 10.6022 20.3795 10.5685 20.5184C10.4846 20.8721 10.4134 21.2312 10.3531 21.5946C10.3194 21.7924 10.2893 21.9909 10.2629 22.1899C10.2243 22.4908 10.1968 22.7928 10.1745 23.098C10.1398 23.4911 10.1193 23.8854 10.1131 24.28C10.1127 24.787 10.1422 25.2853 10.1868 25.7804C10.1975 25.8844 10.2092 25.9884 10.2219 26.0922C10.2695 26.5258 10.3337 26.9541 10.4146 27.3769C10.426 27.4388 10.4377 27.5007 10.4499 27.5625C10.6623 28.6078 10.9748 29.6166 11.3758 30.5779L11.3758 30.5822C12.0049 32.0853 12.8517 33.472 13.8767 34.7025C15.4676 36.613 17.479 38.1539 19.7789 39.1569C19.8312 39.1796 19.8845 39.1861 19.9378 39.1861C20.2888 39.3406 20.6452 39.4823 21.0062 39.611L40.455 28.4907C40.7175 28.4133 40.9501 28.283 41.154 28.0912L41.7314 27.7606C41.863 27.1427 41.9586 26.5176 42.0179 25.8884C42.0399 25.7164 42.0502 25.5159 42.0606 25.3155L42.0606 25.3151C42.0639 25.2517 42.0672 25.1883 42.0708 25.1259C42.0917 24.8538 42.1058 24.5812 42.1131 24.3084C42.121 15.3734 34.9637 8.12329 26.1274 8.11547ZM37.4372 23.6718C37.4316 29.9238 32.2784 34.9876 25.9271 34.9819C19.5759 34.9763 14.4316 29.9035 14.4372 23.6515C14.4427 17.3994 19.5959 12.3357 25.9472 12.3413C32.2984 12.3469 37.4427 17.4198 37.4372 23.6718Z" fill="url(#paint1_linear)"/>
<path d="M28 16V23.6281C27.1208 22.8389 25.9815 22.4016 24.8 22.4C23.527 22.4 22.3061 22.9057 21.4059 23.8059C20.5057 24.7061 20 25.927 20 27.2C20 28.473 20.5057 29.6939 21.4059 30.5941C22.3061 31.4943 23.527 32 24.8 32C26.073 32 27.2939 31.4943 28.1941 30.5941C29.0943 29.6939 29.6 28.473 29.6 27.2V19.2H32.8V16H29.6H28Z" fill="url(#paint2_linear)"/>
<defs>
<linearGradient id="paint0_linear" x1="23.9999" y1="45.9997" x2="23.9999" y2="2" gradientUnits="userSpaceOnUse">
<stop stop-color="#FD5900"/>
<stop offset="1" stop-color="#FFDE00"/>
</linearGradient>
<linearGradient id="paint1_linear" x1="26.0996" y1="39.6155" x2="26.1274" y2="8.11547" gradientUnits="userSpaceOnUse">
<stop stop-color="#FD2E00"/>
<stop offset="1" stop-color="#FF9900"/>
</linearGradient>
<linearGradient id="paint2_linear" x1="26.4" y1="32" x2="26.4" y2="16" gradientUnits="userSpaceOnUse">
<stop stop-color="#FD5900"/>
<stop offset="1" stop-color="#FFDE00"/>
</linearGradient>
</defs>
</svg>
