<svg width="64" height="64" viewBox="0 0 64 64" fill="none" xmlns="http://www.w3.org/2000/svg">
<path fill-rule="evenodd" clip-rule="evenodd" d="M46.2399 28H51.9999C52.6132 28 53.1999 28.28 53.5732 28.7733C53.9599 29.2533 54.0932 29.88 53.9465 30.48C53.4932 32.2533 52.8132 33.96 51.9065 35.5333C51.0399 37.0133 49.9332 38.3333 48.6265 39.4533C47.3065 40.56 45.8132 41.4267 44.2132 42.04C42.4932 42.6933 40.6932 43.1067 38.8532 43.28C38.2932 43.3333 37.7199 43.1467 37.3065 42.76C36.8932 42.3733 36.6532 41.8267 36.6665 41.2533L36.7999 34.6267C36.8132 34.16 36.9865 33.72 37.2799 33.36C37.5865 33.0133 37.9999 32.7733 38.4665 32.6933C39.7865 32.4667 41.0532 32 42.1999 31.3067C43.1465 30.7067 43.9465 29.9067 44.5332 28.9467C44.9065 28.36 45.5465 28 46.2399 28ZM47.2799 32H49.2132C48.9865 32.52 48.7332 33.04 48.4399 33.5333C47.8132 34.6133 46.9999 35.5733 46.0532 36.4C45.0799 37.2 43.9732 37.8533 42.7865 38.3067C42.1199 38.56 41.4132 38.7733 40.7199 38.9333L40.7732 36.2667C42.0132 35.9067 43.1999 35.3733 44.3065 34.7067C45.4532 33.9867 46.4665 33.0667 47.2799 32Z" fill="url(#paint0_linear_641_131)"/>
<path fill-rule="evenodd" clip-rule="evenodd" d="M55.9473 30H46.6673C46.1473 30 45.6407 29.8 45.2673 29.4267C44.894 29.0534 44.6807 28.56 44.6673 28.04C44.654 26.88 44.454 25.7334 44.0673 24.64C43.8007 23.84 43.3473 23.1067 42.7607 22.5067C42.1607 21.92 41.4407 21.48 40.654 21.2134C39.5873 20.8534 38.454 20.6667 37.334 20.6667C36.8007 20.6667 36.294 20.4534 35.9207 20.08C35.5473 19.7067 35.334 19.2 35.334 18.6667V8.00002C35.334 7.44002 35.574 6.89336 35.9873 6.52002C36.4007 6.14669 36.9607 5.96002 37.5207 6.01336C39.0807 6.16002 40.6273 6.41336 42.1473 6.77336C43.5473 7.10669 44.9073 7.54669 46.2407 8.10669C48.694 9.12002 50.9073 10.64 52.734 12.56C54.5207 14.5067 55.8673 16.8134 56.6673 19.3334C57.1073 20.6667 57.4273 22.04 57.6273 23.44C57.8407 24.9467 57.9473 26.48 57.9473 28C57.9473 28.5334 57.734 29.04 57.3607 29.4134C56.9873 29.7867 56.4807 30 55.9473 30ZM53.8807 26H48.5073C48.374 25.0934 48.1473 24.2 47.854 23.3334C47.374 21.96 46.6006 20.7067 45.5873 19.68C44.5606 18.6534 43.3073 17.8934 41.934 17.4134C41.094 17.1334 40.214 16.9334 39.334 16.8134V10.28C39.974 10.3867 40.6007 10.52 41.2273 10.6667C42.414 10.9467 43.574 11.32 44.694 11.8C46.6273 12.5867 48.374 13.7867 49.814 15.2934C51.2007 16.8134 52.2407 18.6134 52.8673 20.56C53.2407 21.68 53.5073 22.8267 53.6673 24C53.7607 24.6667 53.8407 25.3334 53.8807 26Z" fill="url(#paint1_linear_641_131)"/>
<path fill-rule="evenodd" clip-rule="evenodd" d="M39.3325 4.02667V18.6667C39.3325 19.2 39.1192 19.7067 38.7458 20.0933C38.3592 20.4667 37.8525 20.6667 37.3058 20.6667C36.0392 20.6533 34.7725 20.8533 33.5592 21.24C32.6392 21.56 31.7858 22.08 31.0792 22.76C30.3592 23.4933 29.8125 24.3733 29.4525 25.3333C28.9858 26.6533 28.7192 28.0267 28.6658 29.4133C28.6392 29.9333 28.4258 30.4133 28.0525 30.7733C27.6792 31.1333 27.1858 31.3333 26.6658 31.3333H11.9992C11.4392 31.3333 10.9192 31.1067 10.5325 30.6933C10.1592 30.2933 9.95918 29.7467 9.99918 29.1867C10.1458 27.2133 10.4258 25.2533 10.8258 23.32C11.1992 21.5467 11.7192 19.8 12.3858 18.1067C13.5992 14.96 15.4392 12.0933 17.8125 9.69334C20.1992 7.33334 23.0658 5.50667 26.1992 4.30667C27.8792 3.65334 29.6125 3.14667 31.3858 2.78667C33.3058 2.40001 35.2525 2.14667 37.2125 2.02667C37.7592 2.00001 38.3058 2.18667 38.7058 2.57334C39.1058 2.94667 39.3325 3.46667 39.3325 4.02667ZM35.3325 6.20001V16.7733C34.3058 16.9067 33.2792 17.12 32.3058 17.4533C30.7858 17.96 29.3992 18.8 28.2658 19.92C27.1192 21.0667 26.2392 22.4533 25.6925 23.9867C25.3058 25.0667 25.0258 26.1867 24.8525 27.3333H14.2125C14.3458 26.2667 14.5192 25.2 14.7458 24.1467C15.0792 22.5733 15.5325 21.04 16.1192 19.5467C17.1325 16.92 18.6658 14.5333 20.6392 12.52C22.6392 10.56 25.0125 9.02667 27.6258 8.04001C29.1058 7.46667 30.6258 7.02667 32.1858 6.70667C33.2258 6.49334 34.2792 6.33334 35.3325 6.20001Z" fill="url(#paint2_linear_641_131)"/>
<path fill-rule="evenodd" clip-rule="evenodd" d="M40.6662 42.6666V59.9999C40.6662 60.5733 40.4262 61.1199 39.9995 61.4933C39.5729 61.8666 38.9995 62.0533 38.4395 61.9866C36.1195 61.7199 33.8395 61.3066 31.5729 60.7333C29.4929 60.2133 27.4529 59.5199 25.4662 58.6799C21.7862 57.1333 18.4395 54.8933 15.5862 52.0933C12.7995 49.2666 10.5862 45.9333 9.0662 42.2666C8.25287 40.3199 7.59954 38.3066 7.11954 36.2533C6.5862 34.0399 6.2262 31.7866 6.01287 29.5199C5.95954 28.9599 6.1462 28.3999 6.51954 27.9866C6.89287 27.5733 7.43954 27.3333 7.99954 27.3333H26.6662C27.1862 27.3333 27.6929 27.5466 28.0662 27.9066C28.4395 28.2799 28.6529 28.7733 28.6662 29.3066C28.6929 30.9733 28.9595 32.6266 29.4662 34.2133C29.8529 35.4399 30.4929 36.5733 31.3329 37.5333C32.1729 38.4399 33.1862 39.1599 34.3195 39.6399C35.7462 40.2266 37.2529 40.5733 38.7995 40.6666C39.3062 40.7066 39.7729 40.9333 40.1195 41.2933C40.4662 41.6666 40.6662 42.1599 40.6662 42.6666ZM36.6662 44.4399V57.7066C35.2795 57.4799 33.9062 57.1999 32.5462 56.8533C30.6662 56.3866 28.8262 55.7599 27.0395 54.9999C23.8262 53.6533 20.8929 51.7066 18.4129 49.2533C15.9995 46.8133 14.0795 43.9199 12.7595 40.7333C12.0262 38.9866 11.4395 37.1733 11.0129 35.3333C10.6929 34.0133 10.4395 32.6799 10.2529 31.3333H24.7862C24.9329 32.7199 25.2262 34.0933 25.6529 35.4266C26.2129 37.1866 27.1329 38.8133 28.3595 40.2133C29.5862 41.5599 31.0929 42.6266 32.7862 43.3333C34.0262 43.8399 35.3329 44.2133 36.6662 44.4399Z" fill="url(#paint3_linear_641_131)"/>
<defs>
<linearGradient id="paint0_linear_641_131" x1="45.3353" y1="43.2889" x2="45.3353" y2="28" gradientUnits="userSpaceOnUse">
<stop stop-color="#02AA93"/>
<stop offset="1" stop-color="#67FF80"/>
</linearGradient>
<linearGradient id="paint1_linear_641_131" x1="35.334" y1="18.002" x2="57.9473" y2="18.002" gradientUnits="userSpaceOnUse">
<stop stop-color="#FFE031"/>
<stop offset="1" stop-color="#FA0075"/>
</linearGradient>
<linearGradient id="paint2_linear_641_131" x1="9.99385" y1="16.6787" x2="39.3325" y2="16.6787" gradientUnits="userSpaceOnUse">
<stop stop-color="#5433FF"/>
<stop offset="0.517391" stop-color="#20BDFF"/>
<stop offset="0.982609" stop-color="#A5FECB"/>
</linearGradient>
<linearGradient id="paint3_linear_641_131" x1="6.00354" y1="44.6666" x2="40.6662" y2="44.6666" gradientUnits="userSpaceOnUse">
<stop stop-color="#F7F206"/>
<stop offset="0.978261" stop-color="#FFBB24"/>
</linearGradient>
</defs>
</svg>
