<svg width="128" height="128" viewBox="0 0 128 128" fill="none" xmlns="http://www.w3.org/2000/svg">
<path d="M97.5625 115.203H92.8663L83.7857 96.5887C99.9308 88.9713 111.156 72.582 111.156 53.5781C111.156 27.3431 89.8132 6 63.5781 6C37.3431 6 16 27.3431 16 53.5781C16 72.6538 27.3095 89.0975 43.5529 96.6767L35.0802 115.203H29.5938C27.7153 115.203 26.1953 116.723 26.1953 118.602C26.1953 120.48 27.7153 122 29.5938 122H97.5625C99.4409 122 100.961 120.48 100.961 118.602C100.961 116.723 99.4409 115.203 97.5625 115.203ZM22.7969 53.5781C22.7969 31.09 41.09 12.7969 63.5781 12.7969C86.0663 12.7969 104.359 31.09 104.359 53.5781C104.359 76.0663 86.0663 94.3594 63.5781 94.3594C41.09 94.3594 22.7969 76.0663 22.7969 53.5781ZM42.5869 115.203L49.908 99.1326C54.2419 100.436 58.8255 101.156 63.5781 101.156C68.3973 101.156 73.0466 100.424 77.434 99.085L85.2665 115.203H42.5869ZM87.3672 53.5781C87.3672 40.4622 76.6941 29.7891 63.5781 29.7891C50.4622 29.7891 39.7891 40.4622 39.7891 53.5781C39.7891 66.6941 50.4622 77.3672 63.5781 77.3672C76.6941 77.3672 87.3672 66.6941 87.3672 53.5781ZM46.5859 53.5781C46.5859 44.2091 54.2091 36.5859 63.5781 36.5859C72.9472 36.5859 80.5703 44.2091 80.5703 53.5781C80.5703 62.9472 72.9472 70.5703 63.5781 70.5703C54.2091 70.5703 46.5859 62.9472 46.5859 53.5781ZM73.7734 53.5781C73.7734 47.9562 69.2 43.3828 63.5781 43.3828C57.9562 43.3828 53.3828 47.9562 53.3828 53.5781C53.3828 59.2 57.9562 63.7734 63.5781 63.7734C69.2 63.7734 73.7734 59.2 73.7734 53.5781ZM60.1797 53.5781C60.1797 51.7031 61.7031 50.1797 63.5781 50.1797C65.4532 50.1797 66.9766 51.7031 66.9766 53.5781C66.9766 55.4532 65.4532 56.9766 63.5781 56.9766C61.7031 56.9766 60.1797 55.4532 60.1797 53.5781Z" fill="url(#paint0_linear_678_333)" stroke="url(#paint1_linear_678_333)" stroke-width="3"/>
<defs>
<linearGradient id="paint0_linear_678_333" x1="63.5781" y1="122" x2="63.5781" y2="6" gradientUnits="userSpaceOnUse">
<stop stop-color="#FD3A84"/>
<stop offset="1" stop-color="#FFA68D"/>
</linearGradient>
<linearGradient id="paint1_linear_678_333" x1="63.5781" y1="122" x2="63.5781" y2="6" gradientUnits="userSpaceOnUse">
<stop stop-color="#FD3A84"/>
<stop offset="1" stop-color="#FFA68D"/>
</linearGradient>
</defs>
</svg>
