<svg width="64" height="64" viewBox="0 0 64 64" fill="none" xmlns="http://www.w3.org/2000/svg">
<path d="M17.7172 6C17.4204 6 17.1389 6.13187 16.9489 6.35992L5.13997 20.5346L4.51595 21.276C4.21441 21.6342 4.20183 22.1537 4.48568 22.5261L5.13997 23.3846L30.2194 55.3038L30.4238 55.5655C31.2245 56.5908 32.7755 56.5908 33.5762 55.5655L33.7806 55.3038L58.86 23.3846L59.5143 22.5261C59.7982 22.1537 59.7856 21.6342 59.484 21.276L58.86 20.5346L47.0488 6.35985C46.8588 6.13184 46.5774 6 46.2806 6H17.7172ZM19.0875 10.9185C19.2775 10.6912 19.5585 10.5599 19.8548 10.5599H25.846C26.6464 10.5599 27.1224 11.4533 26.676 12.1177L21.8915 19.2374C21.7058 19.5139 21.3946 19.6797 21.0615 19.6797H13.9026C13.0541 19.6797 12.5911 18.6893 13.1354 18.0383L19.0875 10.9185ZM37.3189 12.1175C36.8727 11.4532 37.3488 10.5599 38.149 10.5599H44.1407C44.4369 10.5599 44.7179 10.6912 44.9079 10.9185L50.86 18.0383C51.4043 18.6893 50.9414 19.6797 50.0928 19.6797H42.9318C42.5986 19.6797 42.2874 19.5138 42.1017 19.2373L37.3189 12.1175ZM31.1682 13.7161C31.5646 13.1275 32.4309 13.1275 32.8272 13.7161L35.7932 18.1212C36.2405 18.7854 35.7645 19.6797 34.9637 19.6797H29.0317C28.2309 19.6797 27.755 18.7854 28.2022 18.1212L31.1682 13.7161ZM12.8175 25.8568C12.3027 25.2005 12.7702 24.2396 13.6043 24.2396H20.4114C20.8589 24.2396 21.252 24.537 21.3737 24.9677L25.2056 38.5302C25.5036 39.5847 24.1328 40.2815 23.4565 39.4193L12.8175 25.8568ZM26.24 25.5168C26.0555 24.8774 26.5354 24.2396 27.2008 24.2396H36.7282C37.3924 24.2396 37.872 24.8751 37.6898 25.5138L32.9538 42.1203C32.6783 43.0864 31.3098 43.0885 31.0313 42.1232L26.24 25.5168ZM42.6212 24.9667C42.7433 24.5365 43.1361 24.2396 43.5833 24.2396H50.3864C51.2213 24.2396 51.6886 25.2022 51.1721 25.8582L40.5393 39.3629C39.8617 40.2235 38.4927 39.5252 38.7916 38.4714L42.6212 24.9667Z" fill="url(#paint0_linear)"/>
<defs>
<linearGradient id="paint0_linear" x1="32" y1="57.5837" x2="32" y2="6" gradientUnits="userSpaceOnUse">
<stop stop-color="#5570FF"/>
<stop offset="1" stop-color="#4DD3FF"/>
</linearGradient>
</defs>
</svg>
