<svg width="64" height="64" viewBox="0 0 64 64" fill="none" xmlns="http://www.w3.org/2000/svg">
<path d="M32.0208 18C31.7508 17.9995 31.4768 18.0147 31.2025 18.0416C26.8132 18.4806 23.6001 22.4074 24.0403 26.7969C24.4794 31.184 28.406 34.3998 32.7977 33.9596C37.187 33.5206 40.3989 29.5915 39.9598 25.2044C39.5483 21.0892 36.0707 18.0075 32.0208 18.0001V18Z" fill="url(#paint0_linear)"/>
<path fill-rule="evenodd" clip-rule="evenodd" d="M25.0157 7.65385C28.1713 6.53872 31.4204 6.05979 34.5857 6.00546C48.2456 5.77093 60.7053 13.1748 60.807 13.2353C60.8102 13.2372 60.8092 13.2366 60.8124 13.2385C61.2808 13.5126 61.6409 13.9256 61.8367 14.4137C62.0138 14.8551 62.0475 15.3354 61.9355 15.7932C61.9111 15.8932 61.8829 15.979 61.8518 16.0772C61.2915 17.8493 55.0145 36.6314 38.984 42.2974C29.3203 45.7124 18.9541 43.3655 11.878 40.7476C10.8126 40.3534 9.935 41.7068 10.8258 42.4118C15.8955 46.4242 22.8681 50.5103 30.6362 50.9995C38.613 51.5022 46.5587 49.1394 51.1638 47.4138C52.1586 47.0411 52.9364 48.1361 52.1435 48.843C48.0651 52.4789 39.9735 57.9996 28.4404 57.9996C13.0021 57.9996 4.31257 40.9676 2.13762 36.1015C2.04872 35.9026 1.95399 35.4899 1.97651 35.1655C1.98642 35.0228 2.00257 34.8789 1.9999 34.7359C1.99629 34.5423 2.01767 34.3482 2.06418 34.158C2.08862 34.0581 2.11684 33.9722 2.14786 33.8741C2.70818 32.1019 8.98514 13.3194 25.0157 7.65385ZM56.6331 16.1321C56.8472 15.6356 56.6041 15.085 56.0949 14.9033C53.7113 14.0527 46.8902 11.9087 38.9333 12.0053C35.0536 12.0524 30.9054 12.6308 26.8672 14.1537C14.5418 18.8014 7.26463 30.7238 5.45054 34.0077C5.18911 34.4809 5.37397 35.0496 5.86298 35.2802C9.44953 36.9716 23.5782 42.9234 35.9997 38.2389C48.4191 33.5551 55.0647 19.7701 56.6331 16.1321Z" fill="url(#paint1_linear)"/>
<path d="M34.5857 6.00546L34.6029 7.00531L34.6029 7.00531L34.5857 6.00546ZM25.0157 7.65385L24.6825 6.71099L24.6825 6.711L25.0157 7.65385ZM61.8367 14.4137L62.7648 14.0414L62.7648 14.0414L61.8367 14.4137ZM38.984 42.2974L39.3172 43.2402L39.3173 43.2402L38.984 42.2974ZM30.6362 50.9995L30.6991 50.0015L30.6991 50.0015L30.6362 50.9995ZM2.13762 36.1015L1.22465 36.5095L1.22466 36.5096L2.13762 36.1015ZM38.9333 12.0053L38.9454 13.0052L38.9454 13.0052L38.9333 12.0053ZM26.8672 14.1537L27.22 15.0893L27.22 15.0893L26.8672 14.1537ZM35.9997 38.2389L36.3526 39.1746L36.3526 39.1746L35.9997 38.2389ZM5.45054 34.0077L4.57522 33.5242L5.45054 34.0077ZM2.06418 34.158L3.03556 34.3955L2.06418 34.158ZM2.14786 33.8741L1.19438 33.5726L2.14786 33.8741ZM51.1638 47.4138L50.8129 46.4774L51.1638 47.4138ZM52.1435 48.843L51.478 48.0966L52.1435 48.843ZM1.9999 34.7359L1.00008 34.7545L1.9999 34.7359ZM11.878 40.7476L11.5311 41.6855L11.878 40.7476ZM10.8258 42.4118L11.4464 41.6277L10.8258 42.4118ZM61.9355 15.7932L62.9069 16.0308L61.9355 15.7932ZM61.8518 16.0772L60.8984 15.7757L61.8518 16.0772ZM60.807 13.2353L61.3187 12.3762L60.807 13.2353ZM60.8124 13.2385L60.3074 14.1016L60.8124 13.2385ZM34.5686 5.0056C31.3152 5.06145 27.9567 5.55394 24.6825 6.71099L25.3489 8.59671C28.3858 7.5235 31.5256 7.05814 34.6029 7.00531L34.5686 5.0056ZM61.3187 12.3762C61.1997 12.3053 48.5299 4.7659 34.5686 5.0056L34.6029 7.00531C47.9613 6.77596 60.2108 14.0442 60.2953 14.0945L61.3187 12.3762ZM62.7648 14.0414C62.4835 13.3402 61.9707 12.7576 61.3174 12.3754L60.3074 14.1016C60.5909 14.2675 60.7983 14.5111 60.9086 14.786L62.7648 14.0414ZM62.9069 16.0308C63.0686 15.3697 63.0195 14.6762 62.7648 14.0414L60.9086 14.786C61.0081 15.034 61.0264 15.3011 60.9642 15.5557L62.9069 16.0308ZM39.3173 43.2402C47.6224 40.3048 53.3532 33.9921 57.0586 28.2707C60.7689 22.5416 62.5108 17.3102 62.8053 16.3786L60.8984 15.7757C60.6326 16.6163 58.9558 21.662 55.3799 27.1835C51.799 32.7126 46.376 38.6241 38.6508 41.3545L39.3173 43.2402ZM11.5311 41.6855C18.6814 44.3309 29.3218 46.7724 39.3172 43.2402L38.6508 41.3545C29.3189 44.6523 19.2268 42.4001 12.225 39.8097L11.5311 41.6855ZM30.6991 50.0015C23.2271 49.5309 16.4493 45.5872 11.4464 41.6277L10.2052 43.196C15.3417 47.2612 22.5092 51.4896 30.5734 51.9976L30.6991 50.0015ZM50.8129 46.4774C46.2556 48.1851 38.4669 50.491 30.6991 50.0015L30.5734 51.9976C38.7592 52.5134 46.8619 50.0937 51.5147 48.3502L50.8129 46.4774ZM28.4404 58.9996C40.3077 58.9996 48.6267 53.3179 52.8089 49.5895L51.478 48.0966C47.5034 51.6399 39.6392 56.9996 28.4404 56.9996V58.9996ZM1.22466 36.5096C2.33115 38.9851 5.09768 44.5665 9.57153 49.5438C14.0426 54.5181 20.3236 58.9996 28.4404 58.9996V56.9996C21.1189 56.9996 15.3359 52.9651 11.059 48.2068C6.78474 43.4516 4.11904 38.0839 3.05057 35.6934L1.22466 36.5096ZM0.97891 35.0963C0.943911 35.6003 1.0757 36.1763 1.22465 36.5095L3.05058 35.6935C3.05168 35.6959 3.04367 35.6775 3.03138 35.6356C3.01988 35.5964 3.00792 35.5477 2.99776 35.4942C2.97577 35.3782 2.97066 35.2845 2.9741 35.2348L0.97891 35.0963ZM1.0928 33.9205C1.02576 34.1946 0.994863 34.4748 1.00008 34.7545L2.99973 34.7172C2.99773 34.6098 3.00957 34.5018 3.03556 34.3955L1.0928 33.9205ZM24.6825 6.711C16.3772 9.64624 10.6465 15.9589 6.94108 21.6804C3.23079 27.4095 1.48892 32.6411 1.19438 33.5726L3.10133 34.1755C3.36711 33.335 5.04389 28.2892 8.61979 22.7676C12.2006 17.2384 17.6236 11.327 25.3489 8.59669L24.6825 6.711ZM38.9454 13.0052C46.7336 12.9106 53.4272 15.0131 55.7588 15.8451L56.4309 13.9614C53.9954 13.0924 47.0468 10.9067 38.9211 11.0054L38.9454 13.0052ZM27.22 15.0893C31.1256 13.6165 35.1539 13.0512 38.9454 13.0052L38.9211 11.0054C34.9533 11.0535 30.6851 11.6451 26.5143 13.218L27.22 15.0893ZM6.32586 34.4912C8.12342 31.2373 15.2528 19.602 27.22 15.0893L26.5144 13.218C13.8308 18.0008 6.40584 30.2103 4.57522 33.5242L6.32586 34.4912ZM35.6469 37.3032C29.6785 39.554 23.2503 39.2642 17.8156 38.1702C12.3894 37.0779 8.04094 35.2017 6.28952 34.3757L5.43643 36.1846C7.27157 37.0501 11.7807 38.9955 17.4209 40.1308C23.0525 41.2645 29.8994 41.6082 36.3526 39.1746L35.6469 37.3032ZM55.7148 15.7362C54.949 17.5126 52.9329 21.789 49.5894 26.1882C46.2406 30.5944 41.6139 35.0529 35.6469 37.3032L36.3526 39.1746C42.805 36.7412 47.7107 31.9652 51.1817 27.3984C54.6578 22.8247 56.7488 18.3897 57.5514 16.5281L55.7148 15.7362ZM4.57522 33.5242C4.03362 34.5046 4.4269 35.7085 5.43643 36.1846L6.28952 34.3757C6.28925 34.3756 6.29117 34.3765 6.29449 34.379C6.29777 34.3814 6.30177 34.385 6.30596 34.3897C6.31449 34.3994 6.32186 34.4119 6.32654 34.4263C6.33122 34.4408 6.33267 34.4555 6.3314 34.4688C6.33077 34.4754 6.32956 34.4808 6.32826 34.485C6.32695 34.4892 6.32582 34.4913 6.32586 34.4912L4.57522 33.5242ZM55.7588 15.8451C55.7589 15.8451 55.7569 15.8444 55.7535 15.8424C55.7502 15.8403 55.7461 15.8374 55.7418 15.8334C55.7332 15.8253 55.7253 15.8145 55.7196 15.8017C55.714 15.7888 55.711 15.7748 55.711 15.7613C55.7109 15.7472 55.714 15.7382 55.7148 15.7362L57.5514 16.5281C57.9966 15.4953 57.4782 14.3351 56.4309 13.9614L55.7588 15.8451ZM3.03556 34.3955C3.05021 34.3356 3.066 34.2873 3.10133 34.1755L1.19438 33.5726C1.16768 33.6571 1.12703 33.7805 1.0928 33.9205L3.03556 34.3955ZM51.5147 48.3502C51.5663 48.3309 51.5752 48.3427 51.5556 48.3367C51.5424 48.3327 51.5219 48.3215 51.5033 48.2949C51.4841 48.2673 51.4641 48.2166 51.4716 48.1525C51.4753 48.1217 51.4843 48.0987 51.4913 48.0857C51.4982 48.0731 51.4985 48.0784 51.478 48.0966L52.8089 49.5895C53.5836 48.8988 53.6531 47.8824 53.1447 47.1522C52.6588 46.4542 51.73 46.1337 50.8129 46.4774L51.5147 48.3502ZM2.9741 35.2348C2.98004 35.1493 3.00349 34.9189 2.99973 34.7172L1.00008 34.7545C1.00165 34.8389 0.992793 34.8963 0.97891 35.0963L2.9741 35.2348ZM12.225 39.8097C11.1923 39.4276 10.2349 39.9109 9.77585 40.6287C9.30459 41.3657 9.29289 42.4739 10.2052 43.196L11.4464 41.6277C11.4287 41.6137 11.4317 41.6115 11.4401 41.6261C11.4485 41.6409 11.4551 41.6601 11.4575 41.6799C11.4619 41.7171 11.4495 41.7238 11.4608 41.7062C11.4718 41.689 11.4865 41.6798 11.4924 41.6776C11.4938 41.6771 11.4942 41.677 11.4957 41.677C11.4966 41.677 11.5077 41.6768 11.5311 41.6855L12.225 39.8097ZM60.9642 15.5557C60.9495 15.6156 60.9337 15.6639 60.8984 15.7757L62.8053 16.3786C62.832 16.2942 62.8727 16.1707 62.9069 16.0308L60.9642 15.5557ZM60.2953 14.0945C60.2967 14.0953 60.2988 14.0966 60.3013 14.0981C60.3044 14.0999 60.3071 14.1015 60.3096 14.1029C60.3103 14.1033 60.3112 14.1038 60.3109 14.1036C60.3108 14.1036 60.3104 14.1033 60.3098 14.103C60.3087 14.1024 60.3078 14.1019 60.3074 14.1016L61.3174 12.3754C61.3154 12.3742 61.3135 12.3731 61.3115 12.3719C61.3105 12.3714 61.3098 12.371 61.3094 12.3707C61.3087 12.3704 61.3094 12.3707 61.3098 12.371C61.3117 12.3721 61.3139 12.3733 61.3162 12.3747C61.3178 12.3757 61.3189 12.3763 61.3187 12.3762L60.2953 14.0945Z" fill="url(#paint2_linear)"/>
<defs>
<linearGradient id="paint0_linear" x1="24.0023" y1="25.7629" x2="40.0027" y2="25.7629" gradientUnits="userSpaceOnUse">
<stop stop-color="#A93AFF"/>
<stop offset="1" stop-color="#FF81FF"/>
</linearGradient>
<linearGradient id="paint1_linear" x1="31.9867" y1="6" x2="31.9867" y2="57.9996" gradientUnits="userSpaceOnUse">
<stop stop-color="#DC18FC"/>
<stop offset="1" stop-color="#8E1EFF"/>
</linearGradient>
<linearGradient id="paint2_linear" x1="31.9867" y1="6" x2="31.9867" y2="57.9996" gradientUnits="userSpaceOnUse">
<stop stop-color="#DC18FC"/>
<stop offset="1" stop-color="#8E1EFF"/>
</linearGradient>
</defs>
</svg>
