<svg width="64" height="64" viewBox="0 0 64 64" fill="none" xmlns="http://www.w3.org/2000/svg">
<path d="M30.4292 3.00032C27.9365 3.14573 25.5313 3.59319 23.246 4.30236C18.8341 16.6902 14.403 30.2734 10 42.256C10.3201 42.3485 10.6359 42.3105 10.9668 42.3158C12.789 42.3051 14.6184 42.3209 16.4461 42.3158C16.6936 42.3158 16.6625 41.9643 16.7674 41.8097C18.9636 35.7216 21.1947 29.6646 23.4017 23.581C23.5335 23.2046 23.6797 22.8016 23.8532 22.441C24.9991 22.4621 26.1284 22.4251 27.2688 22.441C24.8736 29.0403 22.4867 35.6785 20.0499 42.2563C20.3067 42.354 20.5609 42.3107 20.8285 42.316C22.7408 42.3001 24.6473 42.3424 26.5596 42.316C28.7235 36.3203 30.96 30.3354 33.136 24.3392C33.5986 23.116 33.6645 21.5483 32.8755 20.5438C31.2008 18.4116 27.4827 18.056 25.0777 17.9681C26.8315 13.0894 28.6503 7.98621 30.4296 3L30.4292 3.00032ZM39.1244 18.8389C39.0777 18.9378 39.0467 19.1823 38.9999 19.2795C34.335 32.1339 28.7976 46.9202 24.0037 60.0163C25.6325 60.4751 27.3104 60.8196 29.043 61C31.2032 55.311 34.1556 48.6852 36.1578 43.2051C38.5476 43.1589 40.9235 43.1831 43.3187 43.1369C44.837 43.0854 47.1301 42.1889 47.6344 40.7345C49.6517 35.1563 51.6692 29.6297 53.6232 24.0256C53.9432 23.1788 54.139 22.25 53.8808 21.3702C53.5392 20.2448 52.4955 19.39 51.3712 19.0901C50.3935 18.7903 49.4105 18.9208 48.4072 18.8997C45.3396 18.8945 42.1922 18.8688 39.1244 18.8371L39.1244 18.8389ZM44.8932 22.3726C44.9903 22.3829 45.0878 22.3972 45.1826 22.384C46.0702 22.3999 46.9431 22.3629 47.8253 22.384C45.7664 28.1577 43.6707 33.9353 41.6426 39.7262C40.4927 39.8041 39.3087 39.7314 38.1575 39.7262C40.2541 33.9882 42.3197 28.252 44.4098 22.5034C44.4568 22.4518 44.5405 22.3941 44.6037 22.3783V22.384C44.6985 22.3556 44.796 22.3622 44.8931 22.3726L44.8932 22.3726Z" fill="url(#paint0_linear)"/>
<defs>
<linearGradient id="paint0_linear" x1="32" y1="61" x2="32" y2="3" gradientUnits="userSpaceOnUse">
<stop stop-color="#5570FF"/>
<stop offset="1" stop-color="#4DD3FF"/>
</linearGradient>
</defs>
</svg>
