<svg width="64" height="64" viewBox="0 0 64 64" fill="none" xmlns="http://www.w3.org/2000/svg">
<path d="M28.3847 10.0002C26.7515 10.0955 25.1756 10.3886 23.6784 10.8533C20.7879 18.9695 17.8847 27.8688 15 35.7195C15.2097 35.7801 15.4166 35.7551 15.6334 35.7586C16.8273 35.7516 18.0258 35.762 19.2233 35.7586C19.3855 35.7586 19.3651 35.5283 19.4338 35.427C20.8727 31.4383 22.3345 27.4699 23.7804 23.4841C23.8668 23.2375 23.9626 22.9735 24.0763 22.7372C24.827 22.7511 25.5669 22.7268 26.314 22.7372C24.7448 27.0609 23.1809 31.4101 21.5844 35.7196C21.7527 35.7837 21.9192 35.7553 22.0945 35.7587C23.3475 35.7484 24.5965 35.7761 25.8494 35.7587C27.2671 31.8305 28.7324 27.9094 30.158 23.9808C30.4612 23.1794 30.5043 22.1523 29.9874 21.4942C28.8902 20.0973 26.4542 19.8643 24.8785 19.8067C26.0275 16.6103 27.2192 13.2668 28.3849 10L28.3847 10.0002ZM34.0815 20.3772C34.0509 20.442 34.0306 20.6022 33.9999 20.6659C30.9437 29.0877 27.3157 38.7753 24.1748 47.3555C25.242 47.6561 26.3413 47.8818 27.4765 48C28.8917 44.2727 30.8261 39.9317 32.1378 36.3413C33.7036 36.311 35.2602 36.3269 36.8295 36.2966C37.8243 36.2628 39.3266 35.6755 39.657 34.7226C40.9787 31.068 42.3005 27.447 43.5807 23.7754C43.7904 23.2206 43.9186 22.6121 43.7495 22.0357C43.5257 21.2983 42.8419 20.7383 42.1052 20.5418C41.4647 20.3454 40.8207 20.4309 40.1633 20.417C38.1535 20.4136 36.0914 20.3968 34.0815 20.376L34.0815 20.3772ZM37.861 22.6924C37.9247 22.6992 37.9886 22.7085 38.0507 22.6999C38.6322 22.7103 39.2041 22.686 39.7821 22.6999C38.4331 26.4826 37.0601 30.268 35.7313 34.062C34.978 34.113 34.2023 34.0654 33.448 34.062C34.8217 30.3026 36.175 26.5444 37.5443 22.7781C37.5752 22.7443 37.63 22.7065 37.6714 22.6961V22.6999C37.7335 22.6812 37.7974 22.6856 37.861 22.6924L37.861 22.6924Z" fill="url(#paint0_linear)"/>
<path fill-rule="evenodd" clip-rule="evenodd" d="M29.0526 7C23.2039 7 17.5947 9.3234 13.4591 13.4591C9.3234 17.5947 7 23.2039 7 29.0526C7 34.9014 9.3234 40.5105 13.4591 44.6462C17.5947 48.7819 23.2039 51.1053 29.0526 51.1053C34.8744 51.1053 40.4588 48.8032 44.5889 44.7032C44.6117 44.679 44.6349 44.655 44.6587 44.6313C44.6801 44.6099 44.7019 44.5888 44.7238 44.5682C48.8109 40.4402 51.1053 34.8647 51.1053 29.0526C51.1053 23.2039 48.7819 17.5947 44.6462 13.4591C40.5105 9.3234 34.9014 7 29.0526 7ZM50.9054 46.6427C54.8988 41.6819 57.1053 35.481 57.1053 29.0526C57.1053 21.6126 54.1497 14.4773 48.8888 9.21643C43.6279 3.95554 36.4927 1 29.0526 1C21.6126 1 14.4773 3.95554 9.21643 9.21643C3.95554 14.4773 1 21.6126 1 29.0526C1 36.4927 3.95554 43.6279 9.21643 48.8888C14.4773 54.1497 21.6126 57.1053 29.0526 57.1053C35.4906 57.1053 41.7003 54.8923 46.6649 50.8875L57.8768 62.1194C59.0473 63.292 60.9468 63.2937 62.1194 62.1232C63.292 60.9527 63.2937 59.0532 62.1232 57.8806L50.9054 46.6427Z" fill="url(#paint1_linear)"/>
<defs>
<linearGradient id="paint0_linear" x1="29.4138" y1="48" x2="29.4138" y2="10" gradientUnits="userSpaceOnUse">
<stop stop-color="#5570FF"/>
<stop offset="1" stop-color="#4DD3FF"/>
</linearGradient>
<linearGradient id="paint1_linear" x1="32" y1="63" x2="32" y2="1" gradientUnits="userSpaceOnUse">
<stop stop-color="#5570FF"/>
<stop offset="1" stop-color="#4DD3FF"/>
</linearGradient>
</defs>
</svg>
