<svg width="64" height="64" viewBox="0 0 64 64" fill="none" xmlns="http://www.w3.org/2000/svg">
<path fill-rule="evenodd" clip-rule="evenodd" d="M7.02898 7.52519C7.08442 7.46617 7.14098 7.41373 7.19861 7.36752C7.11826 7.44966 7.03915 7.53302 6.96133 7.61758C7.64125 11.3637 11.5359 18.6768 16.1009 23.5533C14.7599 26.0722 14 28.9473 14 32C14 32.9375 14.0717 33.8582 14.2098 34.757C9.98616 32.5582 5.2672 29.4648 4 27.882V15.2C4 12.2244 5.14884 9.52691 7.02898 7.52519ZM16.7214 41.5211C12.2945 42.4412 6.65428 42.6867 4 42.5027V48.8C4 51.3925 4.872 53.7737 6.3399 55.6678C6.40767 55.7552 6.47949 55.8376 6.55515 55.9153C6.43535 55.7696 6.31913 55.6208 6.20664 55.4691C11.7716 55.917 20.4626 52.3134 25.4329 48.7644C21.8089 47.3437 18.7577 44.7819 16.7214 41.5211ZM32.5062 49.993C31.5953 53.4773 29.7666 56.8241 28.6435 58.8794L28.6434 58.8797C28.4057 59.3146 28.1997 59.6917 28.0406 60H42.016C43.0726 56.5954 43.6336 49.9304 43.1798 46.108C40.2322 48.447 36.5345 49.8818 32.5062 49.993ZM47.8678 40.5053C51.8929 44.529 56.5484 52.2605 57.0387 56.3824C56.9472 56.4819 56.8539 56.5796 56.7589 56.6757C56.8319 56.6145 56.903 56.5472 56.9723 56.4735C58.8517 54.4719 60 51.775 60 48.8V36.118C57.4605 33.5563 53.2362 30.9228 49.797 29.2875C49.9307 30.1722 50 31.078 50 32C50 35.0764 49.2282 37.9725 47.8678 40.5053ZM47.2715 22.4675C51.5536 21.626 57.0689 21.1113 60 21.5137V15.2C60 12.6343 59.1459 10.2754 57.7053 8.39097C57.6511 8.32003 57.592 8.25226 57.5284 8.18753C57.6189 8.30021 57.7072 8.41467 57.7934 8.53086C50.6122 8.27652 43.9167 11.6641 38.5777 15.2397C42.1928 16.6596 45.2371 19.2153 47.2715 22.4675ZM31.3925 14.0101C32.6781 10.0824 34.6 5.79198 35.9676 4H21.984C21.984 4 19.8748 13.2224 20.8885 17.838C23.8 15.5504 27.4345 14.1413 31.3925 14.0101Z" fill="url(#paint0_linear)"/>
<path d="M24 44V20L45.6 32L24 44Z" fill="url(#paint1_linear)"/>
<defs>
<linearGradient id="paint0_linear" x1="4" y1="32" x2="43.5" y2="32" gradientUnits="userSpaceOnUse">
<stop stop-color="#5558FF"/>
<stop offset="1" stop-color="#00C0FF"/>
</linearGradient>
<linearGradient id="paint1_linear" x1="24" y1="32" x2="38.5" y2="32" gradientUnits="userSpaceOnUse">
<stop stop-color="#5558FF"/>
<stop offset="1" stop-color="#00C0FF"/>
</linearGradient>
</defs>
</svg>
