<svg width="128" height="128" viewBox="0 0 128 128" fill="none" xmlns="http://www.w3.org/2000/svg">
<path d="M95.5694 40.7455C91.9081 33.6052 86.1169 27.8977 79.0687 24.4834C72.0205 21.069 64.0973 20.1328 56.4936 21.8158C48.8899 23.499 42.0177 27.7101 36.9129 33.8146C31.8081 39.919 28.7474 47.5859 28.1921 55.6595C21.8701 56.3701 16.05 59.5762 11.9286 64.6182C7.80728 69.6603 5.69812 76.155 6.03493 82.7668C6.37174 89.3784 9.12891 95.6045 13.7393 100.164C18.3498 104.725 24.4631 107.271 30.8219 107.281H89.7503C97.7942 107.291 105.55 104.168 111.494 98.5232C117.438 92.8793 121.139 85.1241 121.867 76.7829C122.597 68.4417 120.303 60.1181 115.436 53.4493C110.57 46.7803 103.483 42.2486 95.5694 40.7455ZM89.7503 101.529H30.8219C25.9154 101.551 21.1851 99.6262 17.5941 96.1446C14.0031 92.6633 11.8212 87.8879 11.4926 82.7905C11.1641 77.6932 12.7135 72.6569 15.8256 68.7072C18.9377 64.7576 23.3784 62.1912 28.2437 61.5307C28.6331 66.6074 30.0169 71.5473 32.3098 76.0459C32.4815 76.3788 32.7145 76.6732 32.9955 76.9123C33.2764 77.1514 33.5999 77.3306 33.9474 77.4396C34.2948 77.5486 34.6595 77.5852 35.0206 77.5474C35.3817 77.5097 35.7321 77.3982 36.0518 77.2194C36.3714 77.0406 36.6542 76.798 36.8838 76.5054C37.1135 76.2129 37.2856 75.8761 37.3902 75.5143C37.4949 75.1525 37.5301 74.7727 37.4938 74.3968C37.4575 74.0208 37.3504 73.656 37.1787 73.3231C33.5319 66.2167 32.6263 57.9291 34.6469 50.1513C36.6675 42.3735 41.4621 35.6914 48.0523 31.4683C54.6424 27.2453 62.5318 25.7995 70.1108 27.4258C77.6897 29.0521 84.3872 33.628 88.8369 40.2201C84.4227 40.3469 80.0806 41.4164 76.0798 43.3624C72.0789 45.3084 68.5047 48.0895 65.5786 51.5331C65.3242 51.8136 65.1265 52.1446 64.9974 52.5063C64.8684 52.868 64.8105 53.2531 64.8274 53.6386C64.8441 54.0241 64.9353 54.4021 65.0954 54.7501C65.2554 55.0981 65.4811 55.4091 65.7589 55.6644C66.0368 55.9198 66.3612 56.1143 66.7127 56.2363C67.0643 56.3585 67.4358 56.4056 67.8052 56.3752C68.1747 56.3447 68.5344 56.237 68.863 56.0587C69.1918 55.8805 69.4825 55.6351 69.7183 55.3374C72.6693 51.8527 76.4119 49.1936 80.6041 47.6029C84.7962 46.0123 89.3044 45.5409 93.7167 46.2317C98.1293 46.9226 102.304 48.7536 105.862 51.5577C109.42 54.3617 112.246 58.0493 114.082 62.2835C115.919 66.5177 116.707 71.1636 116.374 75.7966C116.041 80.4295 114.599 84.902 112.18 88.8051C109.76 92.7084 106.439 95.918 102.521 98.1406C98.6029 100.363 94.2121 101.528 89.7503 101.529Z" fill="url(#paint0_linear_640_20)" stroke="url(#paint1_linear_640_20)" stroke-width="6"/>
<defs>
<linearGradient id="paint0_linear_640_20" x1="64.0002" y1="107.281" x2="64.0002" y2="21" gradientUnits="userSpaceOnUse">
<stop stop-color="#5570FF"/>
<stop offset="1" stop-color="#4DD3FF"/>
</linearGradient>
<linearGradient id="paint1_linear_640_20" x1="64.0002" y1="107.281" x2="64.0002" y2="21" gradientUnits="userSpaceOnUse">
<stop stop-color="#5570FF"/>
<stop offset="1" stop-color="#4DD3FF"/>
</linearGradient>
</defs>
</svg>
