<svg width="128" height="128" viewBox="0 0 128 128" fill="none" xmlns="http://www.w3.org/2000/svg">
<path d="M37.3851 13.1108C34.6089 10.6765 36.8859 5.18578 40.7151 6.10204C47.7991 7.98244 54.6574 10.6424 61.6662 12.7894C63.362 13.439 65.509 13.6852 66.5347 15.381C67.5536 16.8101 66.9655 18.6221 66.9177 20.229C63.5466 22.0615 59.6353 21.6512 55.9839 22.3282C44.5716 24.1539 34.2602 31.2721 28.1472 41.0228C24.2223 47.1973 21.9316 54.4318 21.7265 61.7551C21.6171 62.9654 21.747 64.2851 21.1658 65.4065C19.764 67.5535 16.2699 67.9433 14.5057 66.0424C13.61 65.0714 13.6783 63.6628 13.6236 62.4388C13.3501 49.5496 19.0734 36.9338 28.072 27.8463C33.0431 22.7385 39.3749 19.3195 45.7682 16.3246C42.9647 15.2852 39.9356 14.704 37.3851 13.1108Z" fill="url(#paint0_linear_660_17)" stroke="url(#paint1_linear_660_17)" stroke-width="3"/>
<path d="M107.678 65.427C107.514 63.3415 108.793 61.1328 110.974 60.7909C113.101 60.3465 115.446 61.9192 115.672 64.1141C116.287 75.1504 112.861 86.296 106.475 95.2809C100.929 102.898 93.2025 108.656 84.621 112.43C85.5509 112.69 86.474 112.964 87.404 113.237C89.0861 113.784 90.9528 114.187 92.2725 115.452C93.5649 117.059 92.717 119.138 92.464 120.943C90.8434 121.565 89.1066 122.407 87.3493 121.777C80.9012 120.13 74.5079 118.29 68.0871 116.54C66.0084 116 64.0117 115.186 62.1382 114.14C61.9672 111.924 62.2818 109.709 63.6425 107.883C74.2275 107.856 85.0108 104.669 93.0452 97.5853C102.372 89.7149 107.562 77.5504 107.678 65.427Z" fill="url(#paint2_linear_660_17)" stroke="url(#paint3_linear_660_17)" stroke-width="3"/>
<path fill-rule="evenodd" clip-rule="evenodd" d="M77.8862 16.7964C85.23 9.02182 97.8253 7.54485 106.967 12.9878C111.323 15.7502 115.043 19.6751 116.855 24.571C119.72 31.8738 118.817 40.5852 114.359 47.0674C110.598 52.4146 104.595 56.0797 98.1125 56.9755C91.7259 57.9396 85.0727 56.0045 79.9922 52.0659C78.4537 50.7804 77.0656 49.3171 75.7938 47.7649C68.8056 38.7458 69.7765 24.8103 77.8862 16.7964ZM102.728 20.1128C96.0748 15.8186 86.5155 17.9862 82.2008 24.5642C77.6127 30.7319 78.7819 40.045 84.5257 45.0776C86.8437 47.0264 89.6541 48.4419 92.6764 48.8384C100.212 50.0487 108.082 44.6674 109.874 37.2894C110.742 33.2619 110.332 28.7694 107.959 25.3027C106.612 23.2171 104.786 21.4872 102.728 20.1128Z" fill="url(#paint4_linear_660_17)" stroke="url(#paint5_linear_660_17)" stroke-width="3"/>
<path fill-rule="evenodd" clip-rule="evenodd" d="M9.06327 79.8C8.95386 77.6872 10.2325 75.1572 12.6873 75.4307C18.1543 75.3944 23.6212 75.4382 29.0882 75.482C34.8831 75.5291 40.6781 75.5756 46.473 75.5264C46.9248 75.5435 47.3888 75.5408 47.8572 75.538C49.6289 75.5271 51.4623 75.5155 52.9279 76.5863C53.9809 77.2906 54.0972 78.6513 54.1108 79.8C54.1871 86.5025 54.1762 93.207 54.1652 99.9128C54.1575 104.625 54.1498 109.338 54.1724 114.051C54.1929 115.658 54.0493 117.258 53.8031 118.851C52.1073 119.719 50.2611 120.328 48.326 120.205C43.1155 120.173 37.9035 120.178 32.6907 120.183C26.6436 120.189 20.5954 120.194 14.5472 120.143C13.2699 120.124 11.9984 119.971 10.7328 119.818C10.6298 119.805 10.5269 119.793 10.424 119.781C10.3302 119.566 10.2326 119.351 10.1347 119.135C9.59689 117.952 9.05014 116.749 9.09062 115.418C9.00173 103.548 8.95386 91.6705 9.06327 79.8ZM31.0335 83.392C26.4287 83.3961 21.8236 83.4008 17.2208 83.3694C17.2952 90.7775 17.2828 98.1904 17.2704 105.603C17.2669 107.722 17.2633 109.84 17.2618 111.958C18.013 111.964 18.7637 111.969 19.5142 111.973C21.3935 111.986 23.2713 111.997 25.1527 112.027C32.0862 112.061 39.0198 112.081 45.9533 112.02C45.9328 102.467 45.9191 92.915 45.9601 83.3626C44.4353 83.3831 42.9173 83.3899 41.3925 83.3967C37.9403 83.3851 34.487 83.3885 31.0335 83.392Z" fill="url(#paint6_linear_660_17)" stroke="url(#paint7_linear_660_17)" stroke-width="3"/>
<defs>
<linearGradient id="paint0_linear_660_17" x1="40.372" y1="67.2666" x2="40.372" y2="5.99995" gradientUnits="userSpaceOnUse">
<stop stop-color="#02AA93"/>
<stop offset="1" stop-color="#67FF80"/>
</linearGradient>
<linearGradient id="paint1_linear_660_17" x1="40.372" y1="67.2666" x2="40.372" y2="5.99995" gradientUnits="userSpaceOnUse">
<stop stop-color="#02AA93"/>
<stop offset="1" stop-color="#67FF80"/>
</linearGradient>
<linearGradient id="paint2_linear_660_17" x1="88.919" y1="122" x2="88.919" y2="60.7155" gradientUnits="userSpaceOnUse">
<stop stop-color="#02AA93"/>
<stop offset="1" stop-color="#67FF80"/>
</linearGradient>
<linearGradient id="paint3_linear_660_17" x1="88.919" y1="122" x2="88.919" y2="60.7155" gradientUnits="userSpaceOnUse">
<stop stop-color="#02AA93"/>
<stop offset="1" stop-color="#67FF80"/>
</linearGradient>
<linearGradient id="paint4_linear_660_17" x1="94.8105" y1="57.2202" x2="94.8105" y2="9.73794" gradientUnits="userSpaceOnUse">
<stop stop-color="#02AA93"/>
<stop offset="1" stop-color="#67FF80"/>
</linearGradient>
<linearGradient id="paint5_linear_660_17" x1="94.8105" y1="57.2202" x2="94.8105" y2="9.73794" gradientUnits="userSpaceOnUse">
<stop stop-color="#02AA93"/>
<stop offset="1" stop-color="#67FF80"/>
</linearGradient>
<linearGradient id="paint6_linear_660_17" x1="17.1878" y1="114.93" x2="57.6391" y2="79.3493" gradientUnits="userSpaceOnUse">
<stop stop-color="#FE0844"/>
<stop offset="1" stop-color="#FEB302"/>
</linearGradient>
<linearGradient id="paint7_linear_660_17" x1="17.1878" y1="114.93" x2="57.6391" y2="79.3493" gradientUnits="userSpaceOnUse">
<stop stop-color="#FE0844"/>
<stop offset="1" stop-color="#FEB302"/>
</linearGradient>
</defs>
</svg>
