<svg width="192" height="192" viewBox="0 0 192 192" fill="none" xmlns="http://www.w3.org/2000/svg">
<path fill-rule="evenodd" clip-rule="evenodd" d="M113.955 13.1612C106.182 6.14186 93.4037 6.29884 85.7937 13.5313C83.8948 15.2016 81.987 16.8613 80.0794 18.5209L80.0792 18.521C76.4033 21.7191 72.7282 24.9164 69.119 28.1867C64.3732 32.2392 59.6851 36.3674 54.9964 40.4962L54.9958 40.4967C52.9385 42.3084 50.881 44.1202 48.8185 45.9257C46.9671 47.6302 45.0455 49.2622 43.1231 50.8948L43.123 50.8949L43.123 50.895C39.5445 53.9341 35.9633 56.9755 32.8278 60.4914C27.5844 67.1855 26.5964 77.0755 30.4177 84.734C30.5725 85.0032 30.7296 85.281 30.8897 85.5642C32.817 88.974 35.1882 93.169 39.5584 92.5271C44.6607 92.2019 46.9838 85.0592 43.3688 81.415C40.264 78.0286 39.8732 72.6351 42.4461 68.8002C45.3376 65.9515 48.4099 63.3022 51.481 60.654L51.4812 60.6539L51.4813 60.6538C53.4026 58.997 55.3234 57.3406 57.1993 55.6361C62.3187 51.1693 67.4245 46.6887 72.5276 42.2105L72.5292 42.209C73.9076 40.9995 75.2857 39.7901 76.6639 38.5812C78.615 36.8672 80.5699 35.1595 82.5243 33.4522L82.5247 33.4519C86.3877 30.0773 90.249 26.7042 94.0768 23.2866C97.3553 20.203 102.86 20.1694 106.084 23.3427C122.759 37.942 139.423 52.5414 156.086 67.152C159.745 70.1346 160.581 76.1784 157.747 80.0245C157.623 80.1964 157.497 80.3699 157.37 80.5449C155.819 82.6758 154.094 85.0457 154.816 87.8848C155.5 92.2131 160.83 94.4781 164.326 92.0897C173.847 83.9042 174.759 67.3089 165.564 58.4843C154.531 48.6584 143.407 38.9351 132.283 29.2122L132.282 29.2106C126.167 23.8664 120.054 18.5223 113.955 13.1612ZM89.5612 78.4547C102.697 77.7034 116.148 77.9501 128.849 81.8298C133.875 83.5342 134.136 91.6973 129.272 93.7717C127.045 94.7849 124.811 94.1476 122.588 93.5131L122.588 93.5131C121.637 93.2417 120.687 92.9709 119.741 92.8298C106.942 90.5087 93.7082 90.4526 80.8873 92.6504C79.7737 92.7847 78.6589 93.1127 77.543 93.441C75.2106 94.1273 72.8731 94.815 70.5308 93.738C66.1233 91.6973 65.8953 84.4873 70.2485 82.2447C76.3713 79.733 83.0477 79.0826 89.5612 78.4547ZM51.6846 114.774C49.9368 108.595 58.3719 104.043 62.3886 108.819C69.1245 118.352 75.7867 127.943 82.4488 137.533C88.3166 145.979 94.1843 154.426 100.102 162.833C101.052 161.492 101.984 160.135 102.917 158.778C104.481 156.504 106.046 154.228 107.691 152.023C108.566 150.751 109.44 149.476 110.314 148.202C114.393 142.253 118.475 136.299 122.748 130.528L122.618 130.416C124.895 127.253 127.114 124.044 129.333 120.837C132.022 116.948 134.711 113.06 137.501 109.257C141.29 104.648 149.334 108.517 148.422 114.493C148.053 116.363 146.965 117.888 145.891 119.395C145.638 119.749 145.386 120.102 145.144 120.459C143.149 123.315 141.161 126.176 139.173 129.037C136.735 132.544 134.296 136.053 131.845 139.554C126.927 146.63 122.01 153.694 117.081 160.758C116.022 162.279 114.965 163.8 113.908 165.322C110.998 169.511 108.089 173.699 105.15 177.869C103.641 180.067 100.895 180.841 98.3976 180.729C88.8226 181.121 78.9981 177.634 72.1046 170.659C70.5034 169.063 68.9681 167.365 67.4296 165.665C63.2833 161.081 59.1131 156.47 53.5627 153.739C48.1999 151.014 41.8166 151.552 36.4212 153.918C35.4073 154.262 34.4266 154.801 33.4445 155.34C31.3562 156.486 29.2611 157.636 26.8246 156.935C23.2204 156.06 21.2555 151.721 22.5474 148.211C23.5862 145.762 25.9066 144.621 28.1222 143.531C28.4534 143.369 28.7824 143.207 29.1043 143.042C36.5081 139.409 45.0843 137.715 53.1285 139.846C60.5865 141.786 67.0241 146.563 72.3435 152.147C73.6617 153.469 74.9148 154.877 76.1688 156.285C79.2319 159.726 82.3007 163.173 86.3367 165.4C81.8891 159.095 77.4859 152.755 73.0822 146.414C68.5108 139.832 63.9389 133.249 59.3163 126.704C58.4249 125.245 57.3972 123.858 56.3688 122.469C54.567 120.037 52.7628 117.601 51.6846 114.774Z" fill="url(#paint0_linear_674_210)"/>
<path d="M85.7937 13.5313L87.775 15.7839L87.8185 15.7457L87.8604 15.7059L85.7937 13.5313ZM113.955 13.1612L111.944 15.3877L111.959 15.4012L111.974 15.4144L113.955 13.1612ZM80.0794 18.5209L78.1103 16.2576L78.1039 16.2632L80.0794 18.5209ZM80.0792 18.521L82.0483 20.7844L82.0548 20.7788L80.0792 18.521ZM69.119 28.1867L71.0671 30.4681L71.1006 30.4395L71.1333 30.4098L69.119 28.1867ZM54.9964 40.4962L56.9719 42.754L56.979 42.7477L54.9964 40.4962ZM54.9958 40.4967L53.0203 38.239L53.0132 38.2452L54.9958 40.4967ZM48.8185 45.9257L46.8425 43.6684L46.8141 43.6932L46.7865 43.7187L48.8185 45.9257ZM43.1231 50.8948L41.1811 48.6082L41.1708 48.6171L43.1231 50.8948ZM43.123 50.8949L41.1707 48.6172L41.1501 48.6348L41.1299 48.6527L43.123 50.8949ZM43.123 50.895L45.065 53.1816L45.0908 53.1597L45.1161 53.1372L43.123 50.895ZM32.8278 60.4914L30.5888 58.4947L30.5251 58.5661L30.466 58.6415L32.8278 60.4914ZM30.4177 84.734L27.7333 86.0734L27.773 86.153L27.8173 86.23L30.4177 84.734ZM30.8897 85.5642L28.278 87.0404L28.278 87.0405L30.8897 85.5642ZM39.5584 92.5271L39.3676 89.5332L39.2445 89.541L39.1224 89.5589L39.5584 92.5271ZM43.3688 81.415L41.1575 83.4424L41.1974 83.4859L41.2389 83.5278L43.3688 81.415ZM42.4461 68.8002L40.3407 66.6631L40.1242 66.8764L39.9548 67.1288L42.4461 68.8002ZM51.481 60.654L49.5287 58.3762L49.5219 58.382L51.481 60.654ZM51.4812 60.6539L53.4335 62.9317L53.4452 62.9217L53.4567 62.9116L51.4812 60.6539ZM51.4813 60.6538L49.5221 58.3818L49.5139 58.3889L49.5057 58.3961L51.4813 60.6538ZM57.1993 55.6361L55.2269 53.3756L55.2041 53.3955L55.1818 53.4158L57.1993 55.6361ZM72.5276 42.2105L74.5063 44.4654L74.5063 44.4654L72.5276 42.2105ZM72.5292 42.209L70.5505 39.9541L70.5505 39.9542L72.5292 42.209ZM76.6639 38.5812L78.6422 40.8365L78.6438 40.8351L76.6639 38.5812ZM82.5243 33.4522L80.5582 31.1863L80.5506 31.1929L82.5243 33.4522ZM82.5247 33.4519L84.4907 35.7179L84.4983 35.7112L82.5247 33.4519ZM94.0768 23.2866L96.0748 25.5244L96.1038 25.4985L96.1322 25.4719L94.0768 23.2866ZM106.084 23.3427L103.979 25.4808L104.042 25.5422L104.108 25.5998L106.084 23.3427ZM156.086 67.152L154.108 69.4077L154.148 69.4433L154.19 69.4773L156.086 67.152ZM157.747 80.0245L155.332 78.2449L155.321 78.2591L155.311 78.2735L157.747 80.0245ZM157.37 80.5449L159.795 82.3102L159.795 82.3102L157.37 80.5449ZM154.816 87.8848L157.779 87.4165L157.757 87.2798L157.723 87.1457L154.816 87.8848ZM164.326 92.0897L166.018 94.5668L166.155 94.473L166.282 94.3646L164.326 92.0897ZM165.564 58.4843L167.641 56.3198L167.601 56.2811L167.559 56.244L165.564 58.4843ZM132.283 29.2122L130.308 31.4699L130.309 31.4709L132.283 29.2122ZM132.282 29.2106L134.257 26.9529L134.256 26.9519L132.282 29.2106ZM128.849 81.8298L129.813 78.9887L129.769 78.974L129.726 78.9607L128.849 81.8298ZM89.5612 78.4547L89.3899 75.4596L89.3315 75.4629L89.2733 75.4685L89.5612 78.4547ZM129.272 93.7717L128.095 91.0122L128.062 91.0262L128.03 91.0409L129.272 93.7717ZM122.588 93.5131L123.411 90.6282L123.295 90.5951L123.176 90.5714L122.588 93.5131ZM122.588 93.5131L121.764 96.3979L121.881 96.4311L121.999 96.4548L122.588 93.5131ZM119.741 92.8298L119.206 95.7817L119.252 95.7901L119.299 95.797L119.741 92.8298ZM80.8873 92.6504L81.2464 95.6288L81.3205 95.6199L81.3941 95.6073L80.8873 92.6504ZM77.543 93.441L76.6962 90.563L76.6962 90.563L77.543 93.441ZM70.5308 93.738L69.2703 96.4604L69.2775 96.4637L70.5308 93.738ZM70.2485 82.2447L69.1099 79.4692L68.9899 79.5184L68.8746 79.5778L70.2485 82.2447ZM62.3886 108.819L64.8387 107.088L64.7659 106.985L64.6846 106.888L62.3886 108.819ZM51.6846 114.774L48.7979 115.591L48.8341 115.719L48.8816 115.843L51.6846 114.774ZM82.4488 137.533L84.9126 135.821L84.9126 135.821L82.4488 137.533ZM100.102 162.833L97.6488 164.56L100.095 168.035L102.55 164.566L100.102 162.833ZM102.917 158.778L105.389 160.478L105.389 160.478L102.917 158.778ZM107.691 152.023L110.096 153.817L110.13 153.771L110.162 153.724L107.691 152.023ZM110.314 148.202L107.84 146.505L107.84 146.505L110.314 148.202ZM122.748 130.528L125.159 132.313L126.817 130.074L124.706 128.255L122.748 130.528ZM122.618 130.416L120.183 128.663L118.577 130.894L120.66 132.689L122.618 130.416ZM129.333 120.837L126.866 119.13L126.866 119.13L129.333 120.837ZM137.501 109.257L135.184 107.352L135.131 107.416L135.082 107.483L137.501 109.257ZM148.422 114.493L151.365 115.074L151.378 115.01L151.388 114.946L148.422 114.493ZM145.891 119.395L148.333 121.137L148.333 121.137L145.891 119.395ZM145.144 120.459L147.604 122.177L147.615 122.16L147.627 122.143L145.144 120.459ZM139.173 129.037L141.636 130.749L141.636 130.749L139.173 129.037ZM131.845 139.554L129.388 137.833L129.382 137.842L131.845 139.554ZM117.081 160.758L114.621 159.041L114.619 159.044L117.081 160.758ZM113.908 165.322L116.372 167.033L116.372 167.033L113.908 165.322ZM105.15 177.869L102.698 176.141L102.687 176.156L102.677 176.171L105.15 177.869ZM98.3976 180.729L98.532 177.732L98.4035 177.726L98.2749 177.731L98.3976 180.729ZM72.1046 170.659L74.2384 168.55L74.2305 168.542L74.2226 168.534L72.1046 170.659ZM67.4296 165.665L69.6544 163.652L69.6544 163.652L67.4296 165.665ZM53.5627 153.739L52.2037 156.413L52.2208 156.422L52.2381 156.431L53.5627 153.739ZM36.4212 153.918L37.3863 156.758L37.5082 156.717L37.626 156.665L36.4212 153.918ZM33.4445 155.34L32.0009 152.71L32.0009 152.71L33.4445 155.34ZM26.8246 156.935L27.6543 154.052L27.5937 154.035L27.5324 154.02L26.8246 156.935ZM22.5474 148.211L19.7856 147.039L19.7572 147.106L19.7321 147.175L22.5474 148.211ZM28.1222 143.531L29.446 146.224L29.4461 146.224L28.1222 143.531ZM29.1043 143.042L27.7828 140.349L27.7599 140.36L27.7373 140.372L29.1043 143.042ZM53.1285 139.846L52.3603 142.746L52.3733 142.749L53.1285 139.846ZM72.3435 152.147L70.1714 154.216L70.1948 154.241L70.2189 154.265L72.3435 152.147ZM76.1688 156.285L78.4095 154.291L78.4095 154.291L76.1688 156.285ZM86.3367 165.4L84.8873 168.027L88.7882 163.671L86.3367 165.4ZM73.0822 146.414L70.6182 148.126L70.6182 148.126L73.0822 146.414ZM59.3163 126.704L56.7566 128.269L56.8085 128.353L56.8659 128.435L59.3163 126.704ZM56.3688 122.469L58.7796 120.684L58.7796 120.684L56.3688 122.469ZM87.8604 15.7059C94.3342 9.55317 105.336 9.41984 111.944 15.3877L115.965 10.9347C107.028 2.86389 92.4731 3.04451 83.727 11.3567L87.8604 15.7059ZM82.0485 20.7843C83.955 19.1256 85.869 17.4604 87.775 15.7839L83.8123 11.2787C81.9205 12.9427 80.0189 14.5971 78.1103 16.2576L82.0485 20.7843ZM82.0548 20.7788L82.0549 20.7786L78.1039 16.2632L78.1037 16.2633L82.0548 20.7788ZM71.1333 30.4098C74.7164 27.1633 78.3686 23.9857 82.0483 20.7844L78.1102 16.2577C74.438 19.4524 70.74 22.6696 67.1046 25.9636L71.1333 30.4098ZM56.979 42.7477C61.6706 38.6164 66.3416 34.5033 71.0671 30.4681L67.1709 25.9053C62.4048 29.9751 57.6996 34.1185 53.0137 38.2448L56.979 42.7477ZM56.9713 42.7544L56.9719 42.754L53.0209 38.2385L53.0203 38.239L56.9713 42.7544ZM50.7945 48.183C52.8609 46.3741 54.9216 44.5594 56.9784 42.7482L53.0132 38.2452C50.9553 40.0574 48.9011 41.8663 46.8425 43.6684L50.7945 48.183ZM45.0651 53.1815C46.9798 51.5554 48.9475 49.8848 50.8505 48.1327L46.7865 43.7187C44.9867 45.3757 43.1113 46.969 41.1812 48.6082L45.0651 53.1815ZM45.0754 53.1727L45.0755 53.1726L41.1708 48.6171L41.1707 48.6172L45.0754 53.1727ZM45.1161 53.1372L45.1161 53.1372L41.1299 48.6527L41.1299 48.6528L45.1161 53.1372ZM35.0667 62.4882C38.0408 59.1533 41.46 56.2432 45.065 53.1816L41.181 48.6083C37.6289 51.625 33.8858 54.7977 30.5888 58.4947L35.0667 62.4882ZM33.1021 83.3946C29.7945 76.7656 30.6649 68.1178 35.1895 62.3413L30.466 58.6415C24.5039 66.2532 23.3983 77.3854 27.7333 86.0734L33.1021 83.3946ZM33.5013 84.088C33.3423 83.8067 33.1796 83.5188 33.018 83.238L27.8173 86.23C27.9655 86.4876 28.1168 86.7553 28.278 87.0404L33.5013 84.088ZM39.1224 89.5589C38.1603 89.7003 37.3763 89.4008 36.4405 88.455C35.3944 87.3977 34.5101 85.8727 33.5013 84.088L28.278 87.0405C29.1966 88.6656 30.4615 90.9429 32.1754 92.6751C33.9996 94.5188 36.5862 95.9958 39.9943 95.4953L39.1224 89.5589ZM41.2389 83.5278C42.0801 84.3757 42.3766 85.8084 41.8888 87.2602C41.4044 88.7019 40.4016 89.4673 39.3676 89.5332L39.7492 95.521C43.8174 95.2617 46.5274 92.2931 47.5763 89.1712C48.6219 86.0593 48.2725 82.0985 45.4986 79.3022L41.2389 83.5278ZM39.9548 67.1288C36.6183 72.1019 37.1076 79.0251 41.1575 83.4424L45.58 79.3876C43.4204 77.0321 43.1281 73.1683 44.9373 70.4716L39.9548 67.1288ZM49.5219 58.382C46.4634 61.0195 43.3149 63.7329 40.3407 66.6631L44.5515 70.9373C47.3603 68.1701 50.3565 65.585 53.4402 62.9259L49.5219 58.382ZM49.5288 58.3761L49.5287 58.3762L53.4334 62.9318L53.4335 62.9317L49.5288 58.3761ZM49.5057 58.3961L49.5057 58.3962L53.4567 62.9116L53.4568 62.9115L49.5057 58.3961ZM55.1818 53.4158C53.3396 55.0898 51.4484 56.7208 49.5221 58.3818L53.4404 62.9258C55.3568 61.2732 57.3073 59.5915 59.2168 57.8564L55.1818 53.4158ZM70.5488 39.9556C65.4452 44.4342 60.3426 48.9121 55.2269 53.3756L59.1716 57.8966C64.2948 53.4265 69.4038 48.9431 74.5063 44.4654L70.5488 39.9556ZM70.5505 39.9542L70.5488 39.9556L74.5063 44.4654L74.508 44.4639L70.5505 39.9542ZM74.6856 36.3259C73.3072 37.535 71.9288 38.7446 70.5505 39.9541L74.508 44.4639C75.8864 43.2543 77.2643 42.0451 78.6422 40.8365L74.6856 36.3259ZM80.5506 31.1929C78.5967 32.8997 76.6388 34.6101 74.684 36.3273L78.6438 40.8351C80.5913 39.1243 82.543 37.4193 84.4979 35.7116L80.5506 31.1929ZM80.5586 31.1859L80.5582 31.1863L84.4903 35.7182L84.4907 35.7179L80.5586 31.1859ZM92.0788 21.0488C88.2651 24.4538 84.416 27.8162 80.551 31.1926L84.4983 35.7112C88.3593 32.3384 92.2329 28.9547 96.0748 25.5244L92.0788 21.0488ZM108.188 21.2046C103.776 16.8617 96.4331 16.9519 92.0214 21.1013L96.1322 25.4719C98.2774 23.4541 101.944 23.4771 103.979 25.4808L108.188 21.2046ZM158.064 64.8963C141.4 50.2852 124.735 35.6853 108.06 21.0856L104.108 25.5998C120.782 40.1987 137.446 54.7976 154.108 69.4077L158.064 64.8963ZM160.162 81.8041C163.962 76.6465 162.858 68.8015 157.981 64.8267L154.19 69.4773C156.632 71.4677 157.199 75.7103 155.332 78.2449L160.162 81.8041ZM159.795 82.3102C159.922 82.1364 160.053 81.9558 160.183 81.7755L155.311 78.2735C155.193 78.4371 155.072 78.6033 154.944 78.7797L159.795 82.3102ZM157.723 87.1457C157.572 86.5488 157.639 85.9459 157.986 85.159C158.368 84.2917 158.983 83.4264 159.795 82.3102L154.944 78.7797C153.588 80.6433 150.782 84.1944 151.908 88.6239L157.723 87.1457ZM162.633 89.6126C161.878 90.1288 160.79 90.2246 159.715 89.756C158.65 89.2917 157.937 88.4178 157.779 87.4165L151.853 88.3531C152.378 91.6801 154.672 94.1029 157.317 95.256C159.952 96.4049 163.278 96.439 166.018 94.5668L162.633 89.6126ZM163.486 60.6488C167.358 64.3643 169.205 69.8284 168.966 75.3983C168.727 80.9739 166.41 86.3418 162.37 89.8148L166.282 94.3646C171.763 89.6521 174.662 82.6296 174.961 75.655C175.259 68.6748 172.965 61.4289 167.641 56.3198L163.486 60.6488ZM130.309 31.4709C141.434 41.1954 152.548 50.9095 163.569 60.7246L167.559 56.244C156.514 46.4072 145.379 36.6749 134.258 26.9534L130.309 31.4709ZM130.306 31.4683L130.308 31.4699L134.259 26.9544L134.257 26.9529L130.306 31.4683ZM111.974 15.4144C118.077 20.7787 124.194 26.1256 130.307 31.4694L134.256 26.9519C128.141 21.6072 122.03 16.2658 115.935 10.908L111.974 15.4144ZM129.726 78.9607C116.515 74.9254 102.643 74.7016 89.3899 75.4596L89.7325 81.4498C102.751 80.7052 115.781 80.9748 127.973 84.6989L129.726 78.9607ZM130.449 96.5312C134.336 94.8737 135.882 90.9303 135.768 87.56C135.653 84.1865 133.836 80.3532 129.813 78.9887L127.886 84.6709C128.888 85.0108 129.715 86.1113 129.771 87.764C129.827 89.42 129.073 90.5953 128.095 91.0122L130.449 96.5312ZM121.765 96.3979C123.792 96.9764 127.125 98.0441 130.514 96.5025L128.03 91.0409C126.964 91.5256 125.831 91.3188 123.411 90.6282L121.765 96.3979ZM121.999 96.4548L121.999 96.4548L123.176 90.5714L123.176 90.5713L121.999 96.4548ZM119.299 95.797C120.018 95.9043 120.777 96.1163 121.764 96.3979L123.411 90.6282C122.496 90.3672 121.357 90.0375 120.183 89.8626L119.299 95.797ZM81.3941 95.6073C93.8712 93.4684 106.752 93.5232 119.206 95.7817L120.276 89.878C107.132 87.4942 93.5451 87.4368 80.3804 89.6935L81.3941 95.6073ZM78.3898 96.319C79.5528 95.9768 80.4244 95.7279 81.2464 95.6288L80.5282 89.672C79.123 89.8414 77.765 90.2485 76.6962 90.563L78.3898 96.319ZM69.2775 96.4637C72.8008 98.0837 76.2564 96.9467 78.3899 96.319L76.6962 90.563C74.1647 91.3078 72.9455 91.5464 71.784 91.0123L69.2775 96.4637ZM68.8746 79.5778C65.425 81.3549 64.0186 84.9668 64.1055 88.1489C64.1921 91.3253 65.7856 94.8469 69.2703 96.4604L71.7912 91.0156C70.8685 90.5884 70.1441 89.4846 70.1032 87.9852C70.0625 86.4915 70.7188 85.3771 71.6223 84.9116L68.8746 79.5778ZM89.2733 75.4685C82.8364 76.0891 75.7107 76.7614 69.1099 79.4692L71.387 85.0202C77.0319 82.7046 83.2589 82.0761 89.849 81.4409L89.2733 75.4685ZM64.6846 106.888C61.522 103.128 56.7293 103.248 53.4312 105.059C50.1183 106.877 47.4566 110.849 48.7979 115.591L54.5714 113.957C54.1649 112.52 54.8468 111.126 56.3186 110.318C57.8053 109.502 59.2385 109.734 60.0927 110.75L64.6846 106.888ZM84.9126 135.821C78.2517 126.233 71.5827 116.632 64.8387 107.088L59.9385 110.55C66.6663 120.072 73.3218 129.652 79.9849 139.244L84.9126 135.821ZM102.555 161.106C96.6438 152.708 90.7814 144.269 84.9126 135.821L79.9849 139.244C85.8519 147.69 91.7249 156.144 97.6488 164.56L102.555 161.106ZM100.445 157.079C99.5102 158.438 98.5892 159.778 97.6536 161.099L102.55 164.566C103.514 163.206 104.458 161.832 105.389 160.478L100.445 157.079ZM105.287 150.229C103.601 152.489 102.003 154.812 100.445 157.079L105.389 160.478C106.959 158.195 108.491 155.968 110.096 153.817L105.287 150.229ZM107.84 146.505C106.966 147.78 106.093 149.053 105.22 150.322L110.162 153.724C111.04 152.449 111.915 151.172 112.788 149.898L107.84 146.505ZM120.337 128.743C116.026 134.565 111.913 140.564 107.84 146.505L112.788 149.898C116.872 143.942 120.924 138.033 125.159 132.313L120.337 128.743ZM120.66 132.689L120.79 132.801L124.706 128.255L124.576 128.143L120.66 132.689ZM126.866 119.13C124.644 122.342 122.441 125.527 120.183 128.663L125.053 132.169C127.349 128.979 129.584 125.747 131.8 122.543L126.866 119.13ZM135.082 107.483C132.264 111.325 129.551 115.247 126.866 119.13L131.8 122.543C134.494 118.649 137.159 114.796 139.92 111.031L135.082 107.483ZM151.388 114.946C152.085 110.376 149.309 106.779 146.023 105.201C142.731 103.621 138.165 103.725 135.184 107.352L139.818 111.162C140.626 110.179 141.977 109.914 143.426 110.61C144.881 111.308 145.671 112.634 145.456 114.04L151.388 114.946ZM148.333 121.137C149.343 119.72 150.85 117.682 151.365 115.074L145.479 113.912C145.255 115.044 144.587 116.055 143.448 117.652L148.333 121.137ZM147.627 122.143C147.846 121.82 148.077 121.496 148.333 121.137L143.448 117.652C143.199 118.002 142.926 118.384 142.661 118.775L147.627 122.143ZM141.636 130.749C143.625 127.887 145.611 125.029 147.604 122.177L142.685 118.741C140.688 121.6 138.697 124.464 136.709 127.325L141.636 130.749ZM134.303 141.275C136.757 137.769 139.199 134.256 141.636 130.749L136.709 127.325C134.271 130.833 131.835 134.337 129.388 137.833L134.303 141.275ZM119.541 162.475C124.472 155.409 129.39 148.343 134.308 141.266L129.382 137.842C124.464 144.917 119.548 151.979 114.621 159.041L119.541 162.475ZM116.372 167.033C117.429 165.512 118.486 163.991 119.543 162.472L114.619 159.044C113.559 160.566 112.501 162.089 111.445 163.61L116.372 167.033ZM107.602 179.597C110.548 175.417 113.463 171.221 116.372 167.033L111.445 163.61C108.534 167.8 105.63 171.98 102.698 176.141L107.602 179.597ZM98.2632 183.726C101.316 183.863 105.299 182.952 107.623 179.567L102.677 176.171C101.983 177.182 100.474 177.819 98.532 177.732L98.2632 183.726ZM69.9709 172.768C77.5065 180.393 88.1732 184.15 98.5203 183.726L98.2749 177.731C89.472 178.092 80.4897 174.875 74.2384 168.55L69.9709 172.768ZM65.2047 167.677C66.7341 169.368 68.3212 171.123 69.9866 172.784L74.2226 168.534C72.6856 167.002 71.2022 165.363 69.6544 163.652L65.2047 167.677ZM52.2381 156.431C57.1866 158.866 60.9869 163.014 65.2047 167.677L69.6544 163.652C65.5797 159.147 61.0397 154.075 54.8874 151.047L52.2381 156.431ZM37.626 156.665C42.4524 154.549 47.8593 154.206 52.2037 156.413L54.9217 151.064C48.5406 147.822 41.1809 148.555 35.2164 151.171L37.626 156.665ZM34.8881 157.97C35.9169 157.405 36.6649 157.004 37.3863 156.758L35.4561 151.077C34.1496 151.521 32.9363 152.197 32.0009 152.71L34.8881 157.97ZM25.9949 159.818C29.8059 160.915 33.0103 159 34.8881 157.97L32.0009 152.71C29.7021 153.972 28.7164 154.358 27.6543 154.052L25.9949 159.818ZM19.7321 147.175C17.9145 152.113 20.5175 158.491 26.1169 159.85L27.5324 154.02C25.9233 153.629 24.5965 151.329 25.3628 149.247L19.7321 147.175ZM26.7983 140.839C24.7774 141.833 21.33 143.399 19.7856 147.039L25.3092 149.382C25.8424 148.126 27.0358 147.409 29.446 146.224L26.7983 140.839ZM27.7373 140.372C27.4405 140.523 27.1334 140.675 26.7982 140.839L29.4461 146.224C29.7735 146.063 30.1243 145.89 30.4714 145.712L27.7373 140.372ZM53.8968 136.946C44.9603 134.579 35.6299 136.498 27.7828 140.349L30.4259 145.735C37.3864 142.32 45.2083 140.851 52.3603 142.746L53.8968 136.946ZM74.5157 150.078C68.9848 144.272 62.0834 139.076 53.8838 136.943L52.3733 142.749C59.0897 144.496 65.0634 148.854 70.1714 154.216L74.5157 150.078ZM78.4095 154.291C77.1652 152.893 75.8562 151.421 74.4682 150.029L70.2189 154.265C71.4672 155.517 72.6643 156.861 73.9282 158.28L78.4095 154.291ZM87.7861 162.773C84.2752 160.836 81.5342 157.8 78.4095 154.291L73.9282 158.28C76.9295 161.651 80.3261 165.51 84.8873 168.027L87.7861 162.773ZM70.6182 148.126C75.0208 154.465 79.4302 160.814 83.8853 167.129L88.7882 163.671C84.3479 157.376 79.951 151.045 75.5462 144.703L70.6182 148.126ZM56.8659 128.435C61.4805 134.968 66.0456 141.542 70.6182 148.126L75.5462 144.703C70.976 138.122 66.3973 131.53 61.7668 124.973L56.8659 128.435ZM53.958 124.255C55.0003 125.662 55.9465 126.943 56.7566 128.269L61.8761 125.139C60.9033 123.548 59.7941 122.054 58.7796 120.684L53.958 124.255ZM48.8816 115.843C50.1314 119.12 52.1995 121.881 53.958 124.255L58.7796 120.684C56.9345 118.193 55.3943 116.082 54.4876 113.705L48.8816 115.843Z" fill="url(#paint1_linear_674_210)"/>
<defs>
<linearGradient id="paint0_linear_674_210" x1="97" y1="200.5" x2="97" y2="55.5" gradientUnits="userSpaceOnUse">
<stop stop-color="#A93AFF"/>
<stop offset="0.31697" stop-color="#019BDE"/>
<stop offset="1" stop-color="#0175FD"/>
</linearGradient>
<linearGradient id="paint1_linear_674_210" x1="97" y1="200.5" x2="97" y2="55.5" gradientUnits="userSpaceOnUse">
<stop stop-color="#A93AFF"/>
<stop offset="0.31697" stop-color="#019BDE"/>
<stop offset="1" stop-color="#0175FD"/>
</linearGradient>
</defs>
</svg>
