<svg width="128" height="128" viewBox="0 0 128 128" fill="none" xmlns="http://www.w3.org/2000/svg">
<path d="M72.4835 73.4479C74.375 72.7788 75.3661 70.7031 74.6969 68.8116C74.0275 66.9201 71.9515 65.9291 70.0605 66.5985C68.1201 67.2848 66.0812 67.6328 64 67.6328C53.9844 67.6328 45.8359 59.4844 45.8359 49.4688C45.8359 39.4531 53.9844 31.3047 64 31.3047C74.0156 31.3047 82.1641 39.4531 82.1641 49.4688C82.1641 51.4718 80.5343 53.1016 78.5312 53.1016C76.5282 53.1016 74.8984 51.4718 74.8984 49.4688C74.8984 43.4594 70.0093 38.5703 64 38.5703C57.9907 38.5703 53.1016 43.4594 53.1016 49.4688C53.1016 55.4781 57.9907 60.3672 64 60.3672C66.7893 60.3672 69.3359 59.3127 71.2656 57.5833C73.1954 59.313 75.7419 60.3672 78.5312 60.3672C84.5406 60.3672 89.4297 55.4781 89.4297 49.4688C89.4297 35.4469 78.0219 24.0391 64 24.0391C49.9781 24.0391 38.5703 35.4469 38.5703 49.4688C38.5703 63.4906 49.9781 74.8984 64 74.8984C66.9087 74.8984 69.7631 74.4104 72.4835 73.4479ZM64 53.1016C61.9969 53.1016 60.3672 51.4718 60.3672 49.4688C60.3672 47.4657 61.9969 45.8359 64 45.8359C66.0031 45.8359 67.6328 47.4657 67.6328 49.4688C67.6328 51.4718 66.0031 53.1016 64 53.1016ZM124.745 53.9875L103.961 36.0017V5.63281C103.961 3.62653 102.334 2 100.328 2H27.6719C25.6656 2 24.0391 3.62653 24.0391 5.63281V36.0017L3.2555 53.9875C2.45822 54.6775 2 55.6799 2 56.7344V122.367C2 124.373 3.62653 126 5.63281 126H122.367C124.373 126 126 124.373 126 122.367V56.7344C126 55.6799 125.542 54.6775 124.745 53.9875ZM103.961 45.61L116.834 56.7504L103.961 68.021V45.61ZM31.3047 9.26562H96.6953V74.3823L64 103.008L31.3047 74.3821V9.26562ZM24.0391 45.61V68.0208L11.1661 56.7502L24.0391 45.61ZM118.734 118.734H9.26562V64.7433L61.607 110.57C62.2921 111.169 63.1459 111.469 64 111.469C64.854 111.469 65.7082 111.169 66.3931 110.57L118.734 64.7433V118.734Z" fill="url(#paint0_linear)" stroke="url(#paint1_linear)" stroke-width="2"/>
<defs>
<linearGradient id="paint0_linear" x1="126" y1="70.4583" x2="2" y2="70.4583" gradientUnits="userSpaceOnUse">
<stop stop-color="#FFCD1A"/>
<stop offset="1" stop-color="#FD9C0C"/>
</linearGradient>
<linearGradient id="paint1_linear" x1="126" y1="70.4583" x2="2" y2="70.4583" gradientUnits="userSpaceOnUse">
<stop stop-color="#FFCD1A"/>
<stop offset="1" stop-color="#FD9C0C"/>
</linearGradient>
</defs>
</svg>
