<svg width="48" height="48" viewBox="0 0 48 48" fill="none" xmlns="http://www.w3.org/2000/svg">
<path d="M21 17C19.555 17 18.789 17.214 18.063 17.656C17.343 18.092 17 18.787 17 19.719V21.5C17 22.056 16.752 22.444 16.313 22.719C15.88 22.988 15.899 23.156 15 23.156V24.844C16.772 24.844 17 25.42 17 26.531V28.063C17 29.084 17.327 29.858 18 30.313C18.679 30.773 19.461 30.988 21 31V29.375C20.234 29.363 19.84 29.22 19.5 28.969C19.16 28.718 19 28.365 19 27.875V26.188C19 24.987 18.4 24.278 16.875 24.063V23.938C18.4 23.704 19 22.97 19 21.781V20.125C19 19.635 19.16 19.307 19.5 19.063C19.846 18.812 20.241 18.655 21 18.625V17ZM27 17V18.625C27.759 18.655 28.154 18.812 28.5 19.063C28.84 19.307 29 19.635 29 20.125V21.781C29 22.97 29.6 23.704 31.125 23.938V24.063C29.6 24.278 29 24.987 29 26.188V27.875C29 28.365 28.84 28.718 28.5 28.969C28.16 29.22 27.766 29.363 27 29.375V31C28.539 30.988 29.321 30.773 30 30.313C30.673 29.858 31 29.084 31 28.063V26.531C31 25.42 31.228 24.844 33 24.844V23.156C32.101 23.156 32.12 22.988 31.688 22.719C31.248 22.444 31 22.056 31 21.5V19.719C31 18.787 30.657 18.092 29.938 17.656C29.211 17.214 28.445 17 27 17Z" fill="url(#paint0_linear)" stroke="url(#paint1_linear)"/>
<path fill-rule="evenodd" clip-rule="evenodd" d="M8 24C8 25.104 7.104 26 6 26C4.896 26 4 25.104 4 24V6C4 3.792 5.792 2 8 2H40C42.208 2 44 3.792 44 6V14C44 15.104 43.104 16 42 16C40.896 16 40 15.104 40 14V9C40 7.344 38.656 6 37 6H11C9.344 6 8 7.344 8 9V24ZM40 23C40 21.896 40.896 21 42 21C43.104 21 44 21.896 44 23V41C44 43.76 41.76 46 39 46H9C6.24 46 4 43.76 4 41V34C4 32.896 4.896 32 6 32C7.104 32 8 32.896 8 34V39C8 40.656 9.344 42 11 42H37C38.656 42 40 40.656 40 39V23Z" fill="url(#paint2_linear)"/>
<defs>
<linearGradient id="paint0_linear" x1="17.6361" y1="28.9497" x2="27.2309" y2="16.6135" gradientUnits="userSpaceOnUse">
<stop stop-color="#0072FF"/>
<stop offset="1" stop-color="#00E5A1"/>
</linearGradient>
<linearGradient id="paint1_linear" x1="17.6361" y1="28.9497" x2="27.2309" y2="16.6135" gradientUnits="userSpaceOnUse">
<stop stop-color="#0072FF"/>
<stop offset="1" stop-color="#00E5A1"/>
</linearGradient>
<linearGradient id="paint2_linear" x1="9.85789" y1="39.5563" x2="40.8298" y2="11.4001" gradientUnits="userSpaceOnUse">
<stop stop-color="#0072FF"/>
<stop offset="1" stop-color="#00E5A1"/>
</linearGradient>
</defs>
</svg>
