<svg width="128" height="128" viewBox="0 0 128 128" fill="none" xmlns="http://www.w3.org/2000/svg">
<path fill-rule="evenodd" clip-rule="evenodd" d="M2.01284 29.4661C2.06337 22.0538 8.66046 15.4075 16.9672 13.6286C18.969 13.1673 21.0314 13.018 23.051 13.018C40.6131 13.0222 58.1786 13.0208 75.7431 13.0194C84.5213 13.0187 93.2999 13.018 102.077 13.018C105.581 12.9611 109.373 12.9708 112.87 14.1265C120.564 16.4803 126.262 23.0822 125.991 30.1571C125.984 39.5441 125.987 48.931 125.99 58.3186V58.3516C125.994 71.8656 125.998 85.3806 125.975 98.8958C126.025 103.432 123.565 107.595 119.872 110.582C116.174 113.574 111.162 115.46 105.907 115.429C99.434 115.429 92.9611 115.432 86.4881 115.434C84.8694 115.435 83.2506 115.436 81.6319 115.436C61.6025 115.444 41.5725 115.451 21.5462 115.411H21.5321C16.3654 115.328 11.5102 113.402 7.93568 110.421C4.36574 107.444 2.00509 103.35 2.00509 98.9189C1.99734 75.7742 1.99734 52.6233 2.01283 29.4723L3.01283 29.4729H3.00504L2.01283 29.4723L2.01284 29.4661ZM112.575 15.0816C112.574 15.0816 112.575 15.0817 112.575 15.0816ZM23.8042 22.5544C23.6023 22.5566 23.4006 22.5575 23.2028 22.5583C22.2441 22.5624 21.3734 22.568 20.5298 22.7008C18.5394 23.0308 16.6846 23.9453 15.3537 25.1822C14.0203 26.4215 13.2743 27.9188 13.315 29.4334L13.3153 29.4473V29.4612C13.3014 43.364 13.3042 57.267 13.307 71.1708L13.3071 71.7212C13.3089 80.7974 13.3106 89.8738 13.3076 98.9504V98.9636L13.3073 98.9768C13.2602 100.737 14.2502 102.466 15.9619 103.781C17.6678 105.092 19.9919 105.905 22.3536 105.85L22.3654 105.849H22.3772C27.4158 105.85 32.4547 105.852 37.4937 105.854C60.2948 105.862 83.0983 105.87 105.895 105.824L105.897 106.824L105.898 106.765L105.895 105.824H105.903C108.375 105.838 110.686 104.912 112.341 103.488C114 102.059 114.927 100.199 114.821 98.3514L114.82 98.3225V98.2936C114.836 75.5566 114.851 52.8213 114.812 30.0863V30.0551L114.814 30.024C114.926 28.181 113.983 26.3367 112.297 24.9137C110.617 23.4946 108.277 22.5735 105.819 22.5735C90.6345 22.5558 75.4471 22.5577 60.258 22.5597C48.1075 22.5613 35.9559 22.5629 23.8042 22.5544Z" fill="url(#paint0_linear_614_29)"/>
<path fill-rule="evenodd" clip-rule="evenodd" d="M38.2426 41.7574C35.8995 39.4142 32.1005 39.4142 29.7574 41.7574C27.4142 44.1005 27.4142 47.8995 29.7574 50.2426L43.5147 64L29.7574 77.7574C27.4142 80.1005 27.4142 83.8995 29.7574 86.2426C32.1005 88.5858 35.8995 88.5858 38.2426 86.2426L56.2426 68.2426C58.5858 65.8995 58.5858 62.1005 56.2426 59.7574L38.2426 41.7574ZM69.4304 81.0001L69.4054 81L69.3805 81.0011C69.1884 81.0099 68.9906 81.012 68.771 81.0143C68.7458 81.0146 68.7204 81.0148 68.6946 81.0151C67.9326 81.0225 66.8943 81.0326 65.93 81.5476C64.1235 82.4418 63.0258 84.5754 63.0044 86.668C62.9433 88.2265 63.5228 89.7414 64.4436 90.8393C65.3486 91.9184 66.6929 92.7088 68.203 92.5571C74.5619 92.5782 80.9236 92.5735 87.2818 92.5688L87.3499 92.5688L87.4187 92.5687C90.1458 92.5666 92.8722 92.5646 95.5979 92.5646C97.1557 92.7769 98.569 92.0269 99.5255 90.9235C100.497 89.8027 101.089 88.2284 100.989 86.5784C100.963 85.0225 100.338 83.5952 99.3848 82.5773C98.4413 81.5694 97.113 80.9047 95.6728 81.0229C91.1456 80.9993 86.6172 81.0043 82.0926 81.0093L82.0369 81.0094L81.9829 81.0095C77.7959 81.0139 73.6122 81.0184 69.4304 81.0001Z" fill="url(#paint1_linear_614_29)"/>
<defs>
<linearGradient id="paint0_linear_614_29" x1="-20.5" y1="64" x2="99.5" y2="64" gradientUnits="userSpaceOnUse">
<stop stop-color="#FD5900"/>
<stop offset="1" stop-color="#FFDE00"/>
</linearGradient>
<linearGradient id="paint1_linear_614_29" x1="34.7906" y1="66.3003" x2="88.5502" y2="66.3003" gradientUnits="userSpaceOnUse">
<stop stop-color="#5570FF"/>
<stop offset="1" stop-color="#4DD3FF"/>
</linearGradient>
</defs>
</svg>
