<svg width="64" height="64" viewBox="0 0 64 64" fill="none" xmlns="http://www.w3.org/2000/svg">
<path d="M7.01084 20.7231C7.00454 20.8297 7.00094 20.9364 7 21.0431V42.817C7.00065 45.0913 8.20941 47.1926 10.1711 48.3295L28.8289 59.1467C30.7911 60.2844 33.2089 60.2844 35.1711 59.1467L53.8289 48.3295C55.7914 47.1921 57.0003 45.0896 57 42.8143V21.0431C56.997 20.9628 56.9924 20.8826 56.9864 20.8024" stroke="url(#paint0_linear)" stroke-width="4"/>
<path d="M32.1484 4V4.00391C32.0989 4.00462 32.0495 4.00592 32 4.00781V37.9844C33.1122 37.9889 34.206 37.6966 35.1719 37.1367L53.8438 26.1914C54.748 25.6605 55.5092 24.9113 56.0597 24.0101C56.6103 23.1089 56.9333 22.0837 57 21.0254C56.9417 19.9579 56.6227 18.922 56.0717 18.011C55.5207 17.0999 54.755 16.3424 53.8438 15.8066L35.1719 4.86133C34.251 4.3216 33.2114 4.02543 32.1484 4Z" fill="url(#paint1_linear)"/>
<path d="M5.01266 21C5.00818 21.0697 5.00618 21.1397 5.00422 21.2094C5.01072 21.1395 5.01846 21.0697 5.02742 21H5.01266ZM5.00211 21.2657C5.00179 21.2831 5.00017 21.3006 5 21.318V42.9373C5.0007 45.1955 6.30699 47.2831 8.42563 48.412L28.5744 59.1518C29.6648 59.7331 30.7831 60.0162 32 59.9993V38.1492C30.7972 38.1511 29.615 37.8575 28.5723 37.2979L8.40664 26.43C7.4258 25.8992 6.60135 25.1496 6.00718 24.2483C5.41301 23.347 5.06767 22.3222 5.00211 21.2657Z" fill="url(#paint2_linear)"/>
<path d="M32.1493 4V4.00278C30.9852 3.97375 29.8356 4.27049 28.8265 4.86051L10.1545 15.8064C9.25064 16.3375 8.48982 17.0868 7.93954 17.9879C7.38927 18.8891 7.06654 19.9141 7 20.9722C7.05819 22.0395 7.37698 23.0752 7.92767 23.9862C8.47835 24.8972 9.24362 25.6547 10.1545 26.1906L28.8265 37.1365C29.7913 37.7022 30.8858 38 32 38C33.1142 38 34.2087 37.7022 35.1735 37.1365L53.8455 26.1906C54.7494 25.6596 55.5102 24.9102 56.0605 24.0091C56.6107 23.108 56.9335 22.0829 57 21.0248C56.9418 19.9576 56.623 18.9218 56.0723 18.0109C55.5217 17.0999 54.7564 16.3423 53.8455 15.8064L35.1735 4.86051C34.2524 4.32094 33.2125 4.02505 32.1493 4Z" stroke="url(#paint3_linear)" stroke-width="4"/>
<defs>
<linearGradient id="paint0_linear" x1="32" y1="60" x2="32" y2="20.7231" gradientUnits="userSpaceOnUse">
<stop stop-color="#FDA700"/>
<stop offset="1" stop-color="#FFDE00"/>
</linearGradient>
<linearGradient id="paint1_linear" x1="44.5" y1="37.9844" x2="44.5" y2="4" gradientUnits="userSpaceOnUse">
<stop stop-color="#FDA700"/>
<stop offset="1" stop-color="#FFDE00"/>
</linearGradient>
<linearGradient id="paint2_linear" x1="18.5" y1="60" x2="18.5" y2="21" gradientUnits="userSpaceOnUse">
<stop stop-color="#FDA700"/>
<stop offset="1" stop-color="#FFDE00"/>
</linearGradient>
<linearGradient id="paint3_linear" x1="32" y1="38" x2="32" y2="4" gradientUnits="userSpaceOnUse">
<stop stop-color="#FDA700"/>
<stop offset="1" stop-color="#FFDE00"/>
</linearGradient>
</defs>
</svg>
