<svg width="64" height="64" viewBox="0 0 64 64" fill="none" xmlns="http://www.w3.org/2000/svg">
<g clip-path="url(#clip0)">
<path fill-rule="evenodd" clip-rule="evenodd" d="M11.6393 0C10.4988 0 9.34938 0.0313085 8.23572 0.299667C3.52612 1.35074 -0.0787484 5.90388 0.00622999 10.7388L0.00413068 16.1059C-0.000250581 26.8402 -0.00463184 37.5746 0.0107027 48.309C-0.0340228 53.6895 4.55481 58.5781 9.93081 58.842C14.0925 58.8989 18.2542 58.8819 22.4127 58.8649H22.4129H22.4132L23.6526 58.8599C24.972 58.8823 26.117 57.697 26.1393 56.4C26.2422 55.0537 25.1017 53.7522 23.7465 53.7164C21.5015 53.6538 19.2542 53.666 17.0064 53.6783H17.0061C14.758 53.6907 12.5093 53.703 10.2618 53.6403C7.38146 53.4838 5.04679 50.7465 5.18097 47.893C5.17245 42.283 5.17407 36.6719 5.17569 31.0608V31.0607V31.0607C5.17748 24.8887 5.17926 18.7166 5.16755 12.5457C5.16957 12.3498 5.16906 12.1526 5.16854 11.9547C5.16564 10.838 5.16267 9.70008 5.6148 8.65903C6.43775 6.61056 8.56221 5.17037 10.7761 5.20615C16.1283 5.20208 21.4814 5.20264 26.835 5.20319H26.8352H26.8353H26.8363C33.2572 5.20386 39.6787 5.20452 46.1003 5.19721C46.3762 5.20192 46.6547 5.19889 46.934 5.19586H46.9341H46.9341C47.9817 5.18448 49.0421 5.17297 50.0272 5.56843C52.1203 6.33773 53.6231 8.4667 53.6052 10.703C53.6249 12.7568 53.62 14.8105 53.6151 16.8643C53.6099 19.0058 53.6048 21.1474 53.6276 23.289C53.565 24.4609 54.3432 25.6103 55.4882 25.9234C57.1251 26.4914 58.9946 24.9976 58.8113 23.2711C58.8252 21.2593 58.8223 19.2487 58.8193 17.2381C58.8166 15.3687 58.8139 13.4993 58.8247 11.6289C58.8649 9.7906 58.6234 7.9121 57.8228 6.23933C56.1725 2.59413 52.3529 0.0491994 48.341 0.017891C41.7879 0.00111855 35.2335 0.00360011 28.6792 0.00608163C22.9989 0.00823227 17.3186 0.0103829 11.6393 0ZM22.3311 11.7342C20.4745 11.6808 18.6056 11.6271 16.7874 11.9779C14.6003 12.5817 12.7755 14.3171 12.0644 16.4729C11.6058 18.0557 11.6549 19.7155 11.7036 21.3582C11.718 21.8462 11.7324 22.3326 11.7334 22.8151C11.7155 24.2419 13.2809 25.293 14.6137 24.8815C15.9197 24.5773 16.4609 23.1595 16.3133 21.9429C16.3541 21.4848 16.3299 20.9768 16.3051 20.4573V20.4572V20.4572C16.2349 18.9837 16.1602 17.4176 17.5522 16.6339C18.7082 16.2148 19.9501 16.2744 21.1927 16.334C22.4693 16.3953 23.7466 16.4567 24.9319 15.9988C26.7479 15.0685 26.1932 11.9555 24.1403 11.7722C23.54 11.7689 22.9362 11.7516 22.3311 11.7342ZM35.0576 11.8254C36.2756 11.6783 37.5067 11.6999 38.7372 11.7215C39.2644 11.7308 39.7915 11.7401 40.3174 11.736C43.8641 11.7136 47.0441 14.8489 47.0933 18.3913C47.0955 18.7837 47.1041 19.1774 47.1127 19.5718L47.1127 19.5722C47.1393 20.7913 47.166 22.0165 47.0038 23.2262C46.5297 25.051 43.7925 25.382 42.8622 23.7584C42.4189 22.8456 42.477 21.7615 42.5347 20.6853C42.615 19.1882 42.6944 17.7066 41.4221 16.723C40.3357 16.2062 39.135 16.2686 37.9325 16.331C36.7932 16.3901 35.6525 16.4494 34.6059 16.0163C32.9019 15.1397 33.206 12.3174 35.0576 11.8254ZM16.3086 35.7858C16.7245 33.8446 14.4301 32.1003 12.7439 33.29C11.66 33.9226 11.6761 35.2232 11.6899 36.3446C11.6914 36.468 11.6929 36.5892 11.6929 36.7071C11.7174 37.2742 11.7073 37.8494 11.6971 38.426C11.6702 39.9505 11.6431 41.4848 12.2564 42.9062C13.3075 45.478 16.0089 47.2491 18.7953 47.1686C19.471 47.1466 20.15 47.1605 20.829 47.1744C22.0826 47.2 23.3363 47.2257 24.5693 47.0255C26.506 46.4038 26.5015 43.3624 24.5917 42.7184C23.5187 42.4823 22.414 42.5224 21.3111 42.5624C20.0741 42.6073 18.8394 42.6521 17.6548 42.3069C16.0668 41.3839 16.1867 39.6254 16.3028 37.9223C16.3539 37.1743 16.4041 36.4369 16.3086 35.7858Z" fill="url(#paint0_linear)"/>
<path d="M42.2675 29.8816C49.9513 27.7124 58.731 31.693 62.1704 38.885C64.514 43.5008 64.6079 49.1765 62.4432 53.8773C60.7839 57.527 57.8141 60.5549 54.2003 62.2903C49.7635 64.4506 44.392 64.5714 39.8658 62.6079C35.9702 60.9619 32.741 57.8177 30.9699 53.9757C28.9259 49.6328 28.823 44.44 30.6702 40.0121C32.6873 35.0788 37.1062 31.21 42.2675 29.8816ZM44.884 34.6628C39.9418 35.3471 35.7108 39.3859 34.7894 44.2924C33.7607 49.0826 36.0283 54.329 40.1878 56.9053C44.9645 60.0898 51.9014 59.1282 55.6583 54.7942C59.5226 50.6838 59.8446 43.8407 56.365 39.3949C53.7754 35.8749 49.2 33.974 44.884 34.6628Z" fill="url(#paint1_linear)"/>
</g>
<defs>
<linearGradient id="paint0_linear" x1="58.8289" y1="32.5073" x2="-4.67891e-07" y2="32.5073" gradientUnits="userSpaceOnUse">
<stop stop-color="#FFCD1A"/>
<stop offset="1" stop-color="#FD9C0C"/>
</linearGradient>
<linearGradient id="paint1_linear" x1="46.6786" y1="63.9999" x2="46.6786" y2="29.2905" gradientUnits="userSpaceOnUse">
<stop stop-color="#FD5900"/>
<stop offset="1" stop-color="#FFDE00"/>
</linearGradient>
<clipPath id="clip0">
<rect width="64" height="64" fill="white"/>
</clipPath>
</defs>
</svg>
