<svg width="64" height="64" viewBox="0 0 64 64" fill="none" xmlns="http://www.w3.org/2000/svg">
<path d="M28.8409 37.5847C30.7396 37.5847 32.5606 38.3428 33.9031 39.6922C35.2457 41.0417 36 42.8719 36 44.7803V49.5839L35.9745 49.9292C34.9882 56.7316 28.9109 60 18.7132 60C8.55364 60 2.37773 56.7699 1.04455 50.0476L1 49.5775V44.7803C1 42.8719 1.75426 41.0417 3.09685 39.6922C4.43944 38.3428 6.26038 37.5847 8.15909 37.5847H28.8409ZM28.8409 42.3818H8.15909C7.52619 42.3818 6.91921 42.6345 6.47168 43.0843C6.02415 43.5341 5.77273 44.1442 5.77273 44.7803V49.3216C6.66364 53.1593 10.7045 55.2029 18.7132 55.2029C26.7186 55.2029 30.5814 53.1849 31.2273 49.3952V44.7803C31.2273 44.1442 30.9759 43.5341 30.5283 43.0843C30.0808 42.6345 29.4738 42.3818 28.8409 42.3818ZM18.5 12C19.9624 12 21.4106 12.2895 22.7617 12.852C24.1128 13.4146 25.3405 14.239 26.3746 15.2784C27.4087 16.3178 28.229 17.5518 28.7887 18.9098C29.3483 20.2678 29.6364 21.7234 29.6364 23.1933C29.6364 24.6632 29.3483 26.1187 28.7887 27.4768C28.229 28.8348 27.4087 30.0687 26.3746 31.1081C25.3405 32.1475 24.1128 32.972 22.7617 33.5345C21.4106 34.097 19.9624 34.3866 18.5 34.3866C15.5465 34.3866 12.7139 33.2073 10.6254 31.1081C8.53693 29.009 7.36364 26.1619 7.36364 23.1933C7.36364 20.2246 8.53693 17.3776 10.6254 15.2784C12.7139 13.1793 15.5465 12 18.5 12ZM18.5 16.7971C16.8123 16.7971 15.1936 17.471 14.0002 18.6705C12.8068 19.87 12.1364 21.4969 12.1364 23.1933C12.1364 24.8897 12.8068 26.5165 14.0002 27.7161C15.1936 28.9156 16.8123 29.5894 18.5 29.5894C20.1877 29.5894 21.8064 28.9156 22.9998 27.7161C24.1932 26.5165 24.8636 24.8897 24.8636 23.1933C24.8636 21.4969 24.1932 19.87 22.9998 18.6705C21.8064 17.471 20.1877 16.7971 18.5 16.7971Z" fill="url(#paint0_linear)"/>
<path fill-rule="evenodd" clip-rule="evenodd" d="M56.8 4C58.7096 4 60.5409 4.76743 61.8912 6.13348C63.2414 7.49952 64 9.35227 64 11.2841V22.615C64 23.5716 63.8138 24.5188 63.4519 25.4026C63.0901 26.2863 62.5597 27.0893 61.8912 27.7657C61.2226 28.4421 60.4289 28.9787 59.5553 29.3447C58.6818 29.7108 57.7455 29.8992 56.8 29.8992H52.144L45.2128 36.8305C44.6518 37.3918 43.9392 37.7727 43.1647 37.9254C42.3902 38.078 41.5884 37.9954 40.8602 37.6881C40.1319 37.3808 39.5098 36.8625 39.072 36.1984C38.6343 35.5342 38.4005 34.7539 38.4 33.9556V29.8539C36.64 29.6548 35.0142 28.8064 33.8335 27.471C32.6528 26.1356 32.0001 24.4067 32 22.615V11.2841C32 9.35227 32.7586 7.49952 34.1088 6.13348C35.4591 4.76743 37.2904 4 39.2 4H56.8ZM56.8002 8.85645H39.2002C38.5637 8.85645 37.9532 9.11226 37.5031 9.5676C37.0531 10.023 36.8002 10.6405 36.8002 11.2845V22.6154C36.8002 23.9557 37.8754 25.0434 39.2002 25.0434H43.197V32.0168L50.1762 25.0434H56.8034C57.4399 25.0434 58.0504 24.7876 58.5005 24.3323C58.9505 23.8769 59.2034 23.2593 59.2034 22.6154V11.2845C59.2034 10.6405 58.9505 10.023 58.5005 9.5676C58.0504 9.11226 57.4399 8.85645 56.8034 8.85645H56.8002Z" fill="url(#paint1_linear)"/>
<defs>
<linearGradient id="paint0_linear" x1="18.5" y1="60" x2="18.5" y2="12" gradientUnits="userSpaceOnUse">
<stop stop-color="#5570FF"/>
<stop offset="1" stop-color="#4DD3FF"/>
</linearGradient>
<linearGradient id="paint1_linear" x1="48" y1="4" x2="48" y2="38" gradientUnits="userSpaceOnUse">
<stop stop-color="#BAFA52"/>
<stop offset="1" stop-color="#3F8F5B"/>
</linearGradient>
</defs>
</svg>
