<svg width="64" height="64" viewBox="0 0 64 64" fill="none" xmlns="http://www.w3.org/2000/svg">
<path d="M57.2 4H6.8C5.2536 4 4 5.2536 4 6.8V57.2C4 58.7464 5.2536 60 6.8 60H57.2C58.7464 60 60 58.7464 60 57.2V6.8C60 5.2536 58.7464 4 57.2 4Z" stroke="url(#paint0_linear)" stroke-width="5"/>
<path d="M12 14V16H14V28H12V30H22V28H24V16H22V14H12ZM28 14V16H26V28H28V30H36V28H38V16H36V14H28ZM42 14V16H40V20H42V22H46V24H48V28H44V24H40V28H42V30H50V28H52V24H50V22H48V20H44V16H48V20H52V16H50V14H42ZM18 16H20V28H18V16ZM30 16H34V28H30V16Z" fill="url(#paint1_linear)"/>
<path fill-rule="evenodd" clip-rule="evenodd" d="M12 34V36H14V48H12V50H22V48H24V42H22V40H24V36H22V34H12ZM28 34V36H26V48H28V50H36V48H38V50H42V48H44V46H46V48H48V50H52V48H50V44H48V40H50V36H52V34H48V36H46V38H44V36H42V34H38V36H36V34H28ZM38 36V48H40V44H42V40H40V36H38ZM18 36H20V40H18V36ZM18 42H20V48H18V42ZM34 36H30V48H34V36Z" fill="url(#paint2_linear)"/>
<defs>
<linearGradient id="paint0_linear" x1="32" y1="60" x2="32" y2="4" gradientUnits="userSpaceOnUse">
<stop stop-color="#FD2E00"/>
<stop offset="1" stop-color="#FF9900"/>
</linearGradient>
<linearGradient id="paint1_linear" x1="32" y1="30" x2="32" y2="14" gradientUnits="userSpaceOnUse">
<stop stop-color="#5570FF"/>
<stop offset="1" stop-color="#4DD3FF"/>
</linearGradient>
<linearGradient id="paint2_linear" x1="32" y1="50" x2="32" y2="34" gradientUnits="userSpaceOnUse">
<stop stop-color="#00B59C"/>
<stop offset="1" stop-color="#9CFFAC"/>
</linearGradient>
</defs>
</svg>
