<svg width="64" height="64" viewBox="0 0 64 64" fill="none" xmlns="http://www.w3.org/2000/svg">
<path d="M26.6168 2.55161C33.2931 1.17212 40.3979 2.43771 46.367 5.70293C53.8836 9.81187 59.545 17.3168 61.3212 25.8005C63.871 36.0728 60.1523 47.4631 52.5816 54.639C49.1249 57.997 44.8196 60.2624 40.323 61.8233C39.4994 61.4057 38.4844 61.0471 38.1558 60.081C37.7481 59.1951 38.0892 58.1827 38.6674 57.4739C39.3579 56.896 40.2731 56.7568 41.0884 56.4404C47.7356 53.9303 53.1557 48.3828 55.6889 41.6752C57.7688 36.2416 57.8686 30.095 56.1548 24.5518C53.9626 17.5784 48.6632 11.7145 42.0326 8.84159C37.4736 6.79555 32.3156 6.41166 27.4279 7.20476C20.2275 8.49144 13.7467 13.1868 10.1028 19.5991C7.19514 24.5728 6.15522 30.576 6.99964 36.2753C8.16019 45.3074 14.6244 53.3312 23.0228 56.4741C24.1459 56.8411 25.5852 57.1322 25.9263 58.478C26.5211 60.0557 25.0777 61.3508 23.7258 61.7854C19.2 60.2878 14.9114 57.9591 11.4422 54.6179C6.59615 49.9774 3.30998 43.679 2.36157 36.9798C1.02631 28.7113 3.45141 19.9619 8.60944 13.4483C13.0686 7.79537 19.5661 3.77924 26.6168 2.55161Z" fill="url(#paint0_linear)"/>
<path d="M29.774 18.633C29.7948 16.6334 32.5734 15.7306 33.8421 17.1734C34.3455 17.8062 34.5243 18.6288 34.541 19.4261C34.5951 23.4633 34.4869 27.5006 34.5535 31.5336C36.3213 30.3017 38.1724 29.1965 39.9611 27.9984C40.7472 27.4879 41.6957 26.9311 42.6607 27.2475C44.0293 27.5343 44.8487 29.2682 44.204 30.5338C43.8712 31.3016 43.1391 31.7361 42.4777 32.1748C39.5118 34.0816 36.546 35.9927 33.5842 37.9079C32.7024 38.4901 31.3921 38.5154 30.5851 37.7856C27.6317 35.5413 24.4995 33.5459 21.5502 31.2973C20.3065 30.2891 20.4812 28.0363 21.9579 27.3614C22.8481 26.8298 23.9587 27.0998 24.7574 27.6778C26.4212 28.8505 28.0893 30.0191 29.7448 31.2087C29.7656 27.0154 29.6949 22.8221 29.774 18.633Z" fill="url(#paint1_linear)"/>
<path d="M21.3298 42.2827C21.5087 42.2489 21.8706 42.1856 22.0536 42.1519C28.7091 42.1266 35.3688 42.1477 42.0243 42.1434C43.8213 41.9831 45.3521 44.2485 44.2331 45.801C43.7506 46.7966 42.6025 47.0877 41.5959 47.016C34.9404 46.9653 28.2807 47.0666 21.6252 46.9653C19.2375 46.7291 19.0129 42.8226 21.3298 42.2827Z" fill="url(#paint2_linear)"/>
<defs>
<linearGradient id="paint0_linear" x1="32.0603" y1="61.8233" x2="32.0603" y2="2" gradientUnits="userSpaceOnUse">
<stop stop-color="#02AA93"/>
<stop offset="1" stop-color="#67FF80"/>
</linearGradient>
<linearGradient id="paint1_linear" x1="32.575" y1="38.3394" x2="32.575" y2="16.4661" gradientUnits="userSpaceOnUse">
<stop stop-color="#02AA93"/>
<stop offset="1" stop-color="#67FF80"/>
</linearGradient>
<linearGradient id="paint2_linear" x1="32.1609" y1="47.0263" x2="32.1609" y2="42.1354" gradientUnits="userSpaceOnUse">
<stop stop-color="#02AA93"/>
<stop offset="1" stop-color="#67FF80"/>
</linearGradient>
</defs>
</svg>
