<svg width="24" height="24" viewBox="0 0 24 24" fill="none" xmlns="http://www.w3.org/2000/svg">
<g clip-path="url(#clip0)">
<path d="M18.948 7.82799C18.31 7.42199 17.421 7.48199 17.148 7.51099L16.992 7.51399C16.857 7.45599 16.996 7.11699 17.033 6.76099C17.084 6.26499 16.902 5.58399 16.572 5.03899C16.413 4.77699 16.356 4.75199 16.474 4.62599C17.343 3.69799 17.479 2.66999 17.203 1.81399C16.664 0.138992 16.555 -0.125008 16.572 0.0429922C16.64 0.725992 16.488 1.67999 16.384 2.06799C16.236 2.61799 15.73 3.31599 14.405 3.95199C14.094 4.10099 12.84 4.69199 12.617 4.94999C12.341 5.27099 12.273 5.59399 12.143 6.23299C12.005 6.90899 11.954 7.53999 12.116 8.26299C12.147 8.40399 12.179 8.50899 12.197 8.59199C12.1966 8.59023 12.1959 8.58854 12.195 8.58699C12.232 8.73399 12.172 8.82099 12.09 8.87299C12.0086 8.90725 11.9242 8.93403 11.838 8.95299L11.835 8.95399C11.632 8.98599 11.437 9.02099 11.25 9.05799C9.87099 9.29499 6.84899 10.016 7.92199 13.762C8.30299 15.033 9.04599 15.84 9.47599 15.988L9.49099 15.993C9.56199 16.025 9.63899 16.053 9.71399 16.068C9.72199 16.07 9.72599 16.192 9.70999 16.364L9.69899 16.438C9.63899 16.872 9.39099 17.542 9.02599 17.551C8.87999 17.555 8.23599 17.165 8.05399 17.046C7.03399 16.376 6.66999 15.998 5.94599 15.917C5.34899 15.85 4.00699 17.01 3.97799 19.466C3.94299 22.465 4.78399 23.956 4.80799 24C5.43099 21.176 5.87999 20.9 7.49699 19.795C7.62499 19.708 9.14399 20.986 9.50899 20.979C11.336 20.945 14.611 21.062 16.198 17.783C16.229 17.72 16.747 18.257 16.793 18.256C16.812 18.255 19.581 17.022 19.992 11.357C20.18 8.76999 19.456 8.15099 18.948 7.82799V7.82799ZM16.776 5.98199C16.856 6.30899 16.833 6.64899 16.735 6.92899C16.557 7.35599 16.285 7.57999 15.945 7.55599C15.8352 7.54086 15.7297 7.50342 15.635 7.44599C15.257 7.22499 15.052 6.65999 15.213 6.22099C15.2167 6.21454 15.2201 6.20786 15.223 6.20099C15.265 6.08899 15.367 5.96399 15.498 5.83699C15.767 5.59899 16.295 5.19699 16.352 5.19699C16.424 5.19899 16.693 5.63999 16.776 5.98199V5.98199ZM16.772 1.07099C16.778 1.01299 16.925 1.45599 16.973 1.60999C17.182 2.27499 17.154 2.56999 17.107 2.90699C16.985 3.76499 16.528 4.32899 16.183 4.67299C15.642 5.21299 15.515 5.29099 15.751 4.86399C16.504 3.50299 16.663 2.22299 16.772 1.07099ZM12.669 5.25699C12.766 5.01799 13.253 4.75399 13.658 4.51799C14.076 4.27399 15.405 3.92799 16.224 2.84899C16.477 2.51599 16.01 4.76399 14.807 5.85099C14.401 6.21799 13.285 6.40799 12.322 7.09299C12.223 7.16399 12.344 5.93999 12.669 5.25699V5.25699ZM12.411 7.24999C12.647 7.05399 13.075 6.77299 14.62 6.26299C14.811 6.19999 14.797 6.26499 14.89 6.71999C14.989 7.20599 15.087 7.65299 16.097 7.89799C16.169 7.91599 15.769 8.66999 15.654 8.76899C15.429 9.12899 14.239 10.161 13.735 10.063C13.39 9.99599 12.648 9.16799 12.446 8.71099C12.301 8.38299 12.041 7.55699 12.411 7.24999V7.24999ZM8.10999 11.537C8.27499 10.754 8.89299 10.357 8.91099 10.341C9.22399 10.069 9.82999 9.82299 10.461 9.63699C10.556 9.61199 10.615 9.59899 10.629 9.59599C11.019 9.51599 11.509 9.38299 11.833 9.34999C12.079 9.32499 12.382 9.19699 12.631 9.38599C12.901 9.71399 13.495 10.257 13.822 10.285C13.933 10.294 14.68 10.061 15.905 8.96399C16.058 8.82699 16.219 8.69199 16.389 8.56599L16.438 8.52999C16.814 8.25699 17.23 8.02999 17.682 7.92999C17.822 7.89899 17.182 8.53499 17.73 9.86599C18.089 10.738 19.081 13.729 18.918 14.208C18.821 14.494 18.733 14.547 18.486 14.433C17.794 14.112 16.942 13.164 15.305 12.525C13.986 12.01 12.893 12.022 12.185 12.161C10.556 12.482 9.71199 13.191 9.23899 13.587C9.16699 13.648 9.93999 13.342 10.973 13.225C11.909 13.119 12.848 13.221 14.01 14.011C14.752 14.632 14.571 14.584 14.236 14.677C12.956 15.033 10.517 15.769 9.66599 15.645C8.78599 15.516 7.69999 13.257 8.10999 11.537V11.537ZM14.959 14.687C13.931 13.462 12.758 13.083 12.011 13.033C11.084 12.971 10.417 13.09 9.78499 13.3C9.71699 13.323 13.172 10.831 16.977 13.789C17.662 14.322 18.071 14.619 18.431 14.855C18.483 14.889 17.514 15.145 17.35 15.191C15.775 15.452 15.342 15.143 14.959 14.687V14.687ZM14.079 14.936C13.703 15.071 13.176 15.257 12.602 15.435C13.0922 15.2625 13.5846 15.0961 14.079 14.936V14.936ZM6.62399 18.347C6.68399 17.746 6.81699 17.201 6.75799 16.594C6.75699 16.582 8.47199 17.757 8.93699 17.838C9.01299 17.851 8.13599 18.65 7.23999 19.026C6.93299 18.986 6.59899 18.598 6.62399 18.347V18.347ZM4.74199 23.282C4.64999 23.153 4.04799 20.772 4.21499 19.248C4.44499 17.148 5.62299 16.404 5.84999 16.377C6.03799 16.355 6.40999 16.477 6.23599 18.575C6.21499 18.828 7.35299 19.615 7.35299 19.615C5.03099 20.979 5.21699 22.006 4.74199 23.282V23.282ZM9.49599 20.747C9.37899 20.742 7.23199 19.274 7.30399 19.246C9.78099 18.282 9.95999 16.779 10.131 16.397C10.111 16.365 10.615 16.161 11.301 15.906C12.405 15.51 13.932 15.015 14.459 14.82L14.486 14.812C14.725 14.743 14.735 14.788 14.799 14.872C14.989 15.119 15.308 15.284 15.343 15.301C15.813 15.524 16.419 15.503 16.433 15.522C16.527 15.658 16.587 21.058 9.49599 20.747ZM16.806 18.066C16.785 18.067 16.278 17.594 16.278 17.594C16.278 17.594 16.474 17.167 16.573 16.624C16.653 16.182 16.693 15.527 16.693 15.527C16.693 15.527 19.024 15.249 19.128 14.445C19.246 13.527 18.582 11.618 18.483 11.306C18.441 11.174 17.862 9.61599 17.777 9.21299C17.681 8.75899 17.864 8.02599 18.137 7.91899C18.78 7.66599 19.727 8.74699 19.784 10.32C20.001 16.35 16.827 18.065 16.806 18.066Z" fill="url(#paint0_linear)" stroke="url(#paint1_linear)"/>
</g>
<defs>
<linearGradient id="paint0_linear" x1="11.9997" y1="24" x2="11.9997" y2="-0.000488281" gradientUnits="userSpaceOnUse">
<stop stop-color="#5558FF"/>
<stop offset="1" stop-color="#00C0FF"/>
</linearGradient>
<linearGradient id="paint1_linear" x1="11.9997" y1="24" x2="11.9997" y2="-0.000488281" gradientUnits="userSpaceOnUse">
<stop stop-color="#5558FF"/>
<stop offset="1" stop-color="#00C0FF"/>
</linearGradient>
<clipPath id="clip0">
<rect width="24" height="24" fill="white"/>
</clipPath>
</defs>
</svg>
