<svg width="64" height="64" viewBox="0 0 64 64" fill="none" xmlns="http://www.w3.org/2000/svg">
<path d="M12.6436 11.9766C11.1656 11.9766 9.97656 13.2116 9.97656 14.7456V45.2056C9.97656 46.7396 11.1656 47.9756 12.6436 47.9756H16.9766C17.5288 47.9756 17.9766 47.5279 17.9766 46.9756V42.9756C17.9766 42.4233 18.4243 41.9756 18.9766 41.9756H28.9766C29.5288 41.9756 29.9766 42.4233 29.9766 42.9756V46.9756C29.9766 47.5279 30.4243 47.9756 30.9766 47.9756H55.3106C56.7866 47.9756 57.9766 46.7396 57.9766 45.2056V14.7456C57.9766 13.2106 56.7866 11.9756 55.3106 11.9756L12.6436 11.9766Z" stroke="url(#paint0_linear)" stroke-width="6"/>
<path d="M6 8H10V57" stroke="url(#paint1_linear)" stroke-width="6" stroke-linecap="round" stroke-linejoin="round"/>
<path d="M47 45H41V55C41 55.5523 41.4477 56 42 56H46C46.5523 56 47 55.5523 47 55V45Z" fill="url(#paint2_linear)"/>
<path d="M39 45H33V55C33 55.5523 33.4477 56 34 56H38C38.5523 56 39 55.5523 39 55V45Z" fill="url(#paint3_linear)"/>
<path d="M55 45H49V55C49 55.5523 49.4477 56 50 56H54C54.5523 56 55 55.5523 55 55V45Z" fill="url(#paint4_linear)"/>
<path fill-rule="evenodd" clip-rule="evenodd" d="M32 18C32 17.4477 31.5523 17 31 17V17C30.4477 17 30 17.4477 30 18V20.1003C30 20.6102 29.6072 21.0237 29.1327 21.2103C28.2552 21.5554 27.5559 22.2548 27.211 23.1324C27.0245 23.607 26.611 24 26.1009 24H24C23.4477 24 23 24.4477 23 25V25C23 25.5523 23.4477 26 24 26H25.9766C26.5288 26 26.9766 26.4477 26.9766 27V29C26.9766 29.5523 26.5288 30 25.9766 30H24C23.4477 30 23 30.4477 23 31V31C23 31.5523 23.4477 32 24 32H26.1196C26.6241 32 27.0349 32.3849 27.2245 32.8524C27.5739 33.7142 28.2665 34.4002 29.1327 34.7409C29.6072 34.9275 30 35.3409 30 35.8508V37C30 37.5523 30.4477 38 31 38V38C31.5523 38 32 37.5523 32 37V35.9756C32 35.4233 32.4477 34.9756 33 34.9756H35C35.5523 34.9756 36 35.4233 36 35.9756V37C36 37.5523 36.4477 38 37 38V38C37.5523 38 38 37.5523 38 37V35.8329C38 35.3283 38.3851 34.9175 38.8527 34.728C39.7039 34.3831 40.3836 33.7035 40.7287 32.8524C40.9182 32.3849 41.329 32 41.8335 32H44C44.5523 32 45 31.5523 45 31V31C45 30.4477 44.5523 30 44 30H41.9766C41.4243 30 40.9766 29.5523 40.9766 29V27C40.9766 26.4477 41.4243 26 41.9766 26H44C44.5523 26 45 25.5523 45 25V25C45 24.4477 44.5523 24 44 24H41.8522C41.3422 24 40.9287 23.607 40.7421 23.1324C40.4014 22.2656 39.7151 21.5726 38.8527 21.2232C38.3851 21.0337 38 20.6229 38 20.1182V18C38 17.4477 37.5523 17 37 17V17C36.4477 17 36 17.4477 36 18V19.9756C36 20.5279 35.5523 20.9756 35 20.9756H33C32.4477 20.9756 32 20.5279 32 19.9756V18ZM29 31.7403C29 31.8013 29.0046 31.8626 29.0197 31.9217C29.1738 32.5275 29.7228 32.9756 30.3766 32.9756H37.5766C38.3498 32.9756 38.9766 32.3488 38.9766 31.5756V24.3756C38.9766 23.7244 38.5319 23.177 37.9297 23.0205C37.8694 23.0048 37.8069 23 37.7445 23H36.0122C36.0055 23 36 22.9945 36 22.9878V22.9878C36 22.9811 35.9945 22.9756 35.9878 22.9756H32.0122C32.0055 22.9756 32 22.9811 32 22.9878V22.9878C32 22.9945 31.9945 23 31.9878 23H30.2086C30.1463 23 30.0838 23.0048 30.0234 23.0205C29.5317 23.1483 29.145 23.5367 29.0197 24.0295C29.0046 24.0886 29 24.1498 29 24.2109V25.9883C29 25.9948 28.9948 26 28.9883 26V26C28.9818 26 28.9766 26.0052 28.9766 26.0117V29.9883C28.9766 29.9948 28.9818 30 28.9883 30V30C28.9948 30 29 30.0052 29 30.0117V31.7403Z" fill="url(#paint5_linear)"/>
<path d="M29.0197 24.0295L29.5043 24.1527L29.0197 24.0295ZM30.0234 23.0205L29.8977 22.5366L30.0234 23.0205ZM37.9297 23.0205L37.8039 23.5044L37.9297 23.0205ZM29.0197 31.9217L28.5351 32.045L29.0197 31.9217ZM40.7287 32.8524L41.192 33.0403L40.7287 32.8524ZM29.1327 34.7409L28.9497 35.2062L29.1327 34.7409ZM27.2245 32.8524L27.6878 32.6646L27.2245 32.8524ZM30.5 20.1003V18H29.5V20.1003H30.5ZM27.6764 23.3153C27.9705 22.567 28.5675 21.9699 29.3157 21.6756L28.9497 20.745C27.943 21.1409 27.1414 21.9427 26.7457 22.9495L27.6764 23.3153ZM24 24.5H26.1009V23.5H24V24.5ZM25.9766 25.5H24V26.5H25.9766V25.5ZM27.4766 29V27H26.4766V29H27.4766ZM25.9766 29.5H24V30.5H25.9766V29.5ZM24 32.5H26.1196V31.5H24V32.5ZM29.3157 34.2755C28.5771 33.9851 27.9858 33.3994 27.6878 32.6646L26.7611 33.0403C27.162 34.029 27.9558 34.8153 28.9497 35.2062L29.3157 34.2755ZM30.5 37V35.8508H29.5V37H30.5ZM31.5 35.9756V37H32.5V35.9756H31.5ZM35 34.4756H33V35.4756H35V34.4756ZM36.5 37V35.9756H35.5V37H36.5ZM37.5 35.8329V37H38.5V35.8329H37.5ZM40.2653 32.6646C39.971 33.3903 39.3907 33.9705 38.665 34.2646L39.0405 35.1914C40.017 34.7957 40.7961 34.0167 41.192 33.0403L40.2653 32.6646ZM44 31.5H41.8335V32.5H44V31.5ZM41.9766 30.5H44V29.5H41.9766V30.5ZM40.4766 27V29H41.4766V27H40.4766ZM44 25.5H41.9766V26.5H44V25.5ZM41.8522 24.5H44V23.5H41.8522V24.5ZM38.665 21.6866C39.4003 21.9846 39.9863 22.5762 40.2768 23.3153L41.2074 22.9495C40.8166 21.955 40.0298 21.1607 39.0405 20.7598L38.665 21.6866ZM37.5 18V20.1182H38.5V18H37.5ZM36.5 19.9756V18H35.5V19.9756H36.5ZM33 21.4756H35V20.4756H33V21.4756ZM31.5 18V19.9756H32.5V18H31.5ZM30.3766 32.4756C29.957 32.4756 29.6033 32.188 29.5043 31.7985L28.5351 32.045C28.7442 32.867 29.4887 33.4756 30.3766 33.4756V32.4756ZM37.5766 32.4756H30.3766V33.4756H37.5766V32.4756ZM38.4766 31.5756C38.4766 32.0726 38.0736 32.4756 37.5766 32.4756V33.4756C38.6259 33.4756 39.4766 32.6249 39.4766 31.5756H38.4766ZM38.4766 24.3756V31.5756H39.4766V24.3756H38.4766ZM37.8039 23.5044C38.1912 23.6051 38.4766 23.9576 38.4766 24.3756H39.4766C39.4766 23.4911 38.8727 22.749 38.0555 22.5366L37.8039 23.5044ZM36.0122 23.5H37.7445V22.5H36.0122V23.5ZM32.0122 23.4756H35.9878V22.4756H32.0122V23.4756ZM30.2086 23.5H31.9878V22.5H30.2086V23.5ZM29.5043 24.1527C29.5846 23.8367 29.8337 23.5864 30.1492 23.5044L29.8977 22.5366C29.2296 22.7102 28.7054 23.2367 28.5351 23.9062L29.5043 24.1527ZM29.5 25.9883V24.2109H28.5V25.9883H29.5ZM29.4766 29.9883V26.0117H28.4766V29.9883H29.4766ZM29.5 31.7403V30.0117H28.5V31.7403H29.5ZM28.4766 29.9883C28.4766 30.2709 28.7057 30.5 28.9883 30.5V29.5C29.258 29.5 29.4766 29.7186 29.4766 29.9883H28.4766ZM28.9883 25.5C28.7057 25.5 28.4766 25.7291 28.4766 26.0117H29.4766C29.4766 26.2814 29.258 26.5 28.9883 26.5V25.5ZM28.5 25.9883C28.5 25.7186 28.7186 25.5 28.9883 25.5V26.5C29.2709 26.5 29.5 26.2709 29.5 25.9883H28.5ZM28.5351 23.9062C28.5061 24.0202 28.5 24.1265 28.5 24.2109H29.5C29.5 24.1732 29.5031 24.1571 29.5043 24.1527L28.5351 23.9062ZM30.2086 22.5C30.1224 22.5 30.0139 22.5064 29.8977 22.5366L30.1492 23.5044C30.1537 23.5033 30.1701 23.5 30.2086 23.5V22.5ZM31.5 22.9878C31.5 22.7184 31.7184 22.5 31.9878 22.5V23.5C32.2707 23.5 32.5 23.2707 32.5 22.9878H31.5ZM32.0122 22.4756C31.7293 22.4756 31.5 22.7049 31.5 22.9878H32.5C32.5 23.2572 32.2816 23.4756 32.0122 23.4756V22.4756ZM36.5 22.9878C36.5 22.7049 36.2707 22.4756 35.9878 22.4756V23.4756C35.7184 23.4756 35.5 23.2572 35.5 22.9878H36.5ZM36.0122 22.5C36.2816 22.5 36.5 22.7184 36.5 22.9878H35.5C35.5 23.2707 35.7293 23.5 36.0122 23.5V22.5ZM38.0555 22.5366C37.9393 22.5064 37.8307 22.5 37.7445 22.5V23.5C37.783 23.5 37.7995 23.5033 37.8039 23.5044L38.0555 22.5366ZM29.5043 31.7985C29.5031 31.7941 29.5 31.778 29.5 31.7403H28.5C28.5 31.8247 28.5061 31.931 28.5351 32.045L29.5043 31.7985ZM33 20.4756C32.7239 20.4756 32.5 20.2517 32.5 19.9756H31.5C31.5 20.804 32.1716 21.4756 33 21.4756V20.4756ZM35.5 19.9756C35.5 20.2517 35.2761 20.4756 35 20.4756V21.4756C35.8284 21.4756 36.5 20.804 36.5 19.9756H35.5ZM37 16.5C36.1716 16.5 35.5 17.1716 35.5 18H36.5C36.5 17.7239 36.7239 17.5 37 17.5V16.5ZM38.5 18C38.5 17.1716 37.8284 16.5 37 16.5V17.5C37.2761 17.5 37.5 17.7239 37.5 18H38.5ZM39.0405 20.7598C38.6885 20.6172 38.5 20.3505 38.5 20.1182H37.5C37.5 20.8952 38.0816 21.4502 38.665 21.6866L39.0405 20.7598ZM41.8522 23.5C41.6176 23.5 41.3481 23.3074 41.2074 22.9495L40.2768 23.3153C40.5092 23.9067 41.0668 24.5 41.8522 24.5V23.5ZM45.5 25C45.5 24.1716 44.8284 23.5 44 23.5V24.5C44.2761 24.5 44.5 24.7239 44.5 25H45.5ZM44 26.5C44.8284 26.5 45.5 25.8284 45.5 25H44.5C44.5 25.2761 44.2761 25.5 44 25.5V26.5ZM41.4766 27C41.4766 26.7239 41.7004 26.5 41.9766 26.5V25.5C41.1481 25.5 40.4766 26.1716 40.4766 27H41.4766ZM41.9766 29.5C41.7004 29.5 41.4766 29.2761 41.4766 29H40.4766C40.4766 29.8284 41.1481 30.5 41.9766 30.5V29.5ZM45.5 31C45.5 30.1716 44.8284 29.5 44 29.5V30.5C44.2761 30.5 44.5 30.7239 44.5 31H45.5ZM44 32.5C44.8284 32.5 45.5 31.8284 45.5 31H44.5C44.5 31.2761 44.2761 31.5 44 31.5V32.5ZM41.192 33.0403C41.3347 32.6885 41.6013 32.5 41.8335 32.5V31.5C41.0567 31.5 40.5018 32.0814 40.2653 32.6646L41.192 33.0403ZM38.5 35.8329C38.5 35.6007 38.6886 35.334 39.0405 35.1914L38.665 34.2646C38.0816 34.501 37.5 35.056 37.5 35.8329H38.5ZM37 38.5C37.8284 38.5 38.5 37.8284 38.5 37H37.5C37.5 37.2761 37.2761 37.5 37 37.5V38.5ZM35.5 37C35.5 37.8284 36.1716 38.5 37 38.5V37.5C36.7239 37.5 36.5 37.2761 36.5 37H35.5ZM35 35.4756C35.2761 35.4756 35.5 35.6994 35.5 35.9756H36.5C36.5 35.1472 35.8284 34.4756 35 34.4756V35.4756ZM32.5 35.9756C32.5 35.6994 32.7239 35.4756 33 35.4756V34.4756C32.1716 34.4756 31.5 35.1472 31.5 35.9756H32.5ZM31 38.5C31.8284 38.5 32.5 37.8284 32.5 37H31.5C31.5 37.2761 31.2761 37.5 31 37.5V38.5ZM29.5 37C29.5 37.8284 30.1716 38.5 31 38.5V37.5C30.7239 37.5 30.5 37.2761 30.5 37H29.5ZM28.9497 35.2062C29.3075 35.3469 29.5 35.6163 29.5 35.8508H30.5C30.5 35.0656 29.9069 34.5081 29.3157 34.2755L28.9497 35.2062ZM26.1196 32.5C26.3518 32.5 26.6184 32.6885 26.7611 33.0403L27.6878 32.6646C27.4513 32.0813 26.8964 31.5 26.1196 31.5V32.5ZM22.5 31C22.5 31.8284 23.1716 32.5 24 32.5V31.5C23.7239 31.5 23.5 31.2761 23.5 31H22.5ZM24 29.5C23.1716 29.5 22.5 30.1716 22.5 31H23.5C23.5 30.7239 23.7239 30.5 24 30.5V29.5ZM26.4766 29C26.4766 29.2761 26.2527 29.5 25.9766 29.5V30.5C26.805 30.5 27.4766 29.8284 27.4766 29H26.4766ZM25.9766 26.5C26.2527 26.5 26.4766 26.7239 26.4766 27H27.4766C27.4766 26.1716 26.805 25.5 25.9766 25.5V26.5ZM22.5 25C22.5 25.8284 23.1716 26.5 24 26.5V25.5C23.7239 25.5 23.5 25.2761 23.5 25H22.5ZM24 23.5C23.1716 23.5 22.5 24.1716 22.5 25H23.5C23.5 24.7239 23.7239 24.5 24 24.5V23.5ZM26.7457 22.9495C26.605 23.3074 26.3356 23.5 26.1009 23.5V24.5C26.8863 24.5 27.4439 23.9067 27.6764 23.3153L26.7457 22.9495ZM29.5 20.1003C29.5 20.3349 29.3075 20.6043 28.9497 20.745L29.3157 21.6756C29.907 21.4431 30.5 20.8856 30.5 20.1003H29.5ZM31 17.5C31.2761 17.5 31.5 17.7239 31.5 18H32.5C32.5 17.1716 31.8284 16.5 31 16.5V17.5ZM28.9883 30.5C28.7186 30.5 28.5 30.2814 28.5 30.0117H29.5C29.5 29.7291 29.2709 29.5 28.9883 29.5V30.5ZM31 16.5C30.1716 16.5 29.5 17.1716 29.5 18H30.5C30.5 17.7239 30.7239 17.5 31 17.5V16.5Z" fill="url(#paint6_linear)"/>
<defs>
<linearGradient id="paint0_linear" x1="33.9765" y1="11.9756" x2="33.9765" y2="47.9755" gradientUnits="userSpaceOnUse">
<stop stop-color="#BAFA52"/>
<stop offset="1" stop-color="#3F8F5B"/>
</linearGradient>
<linearGradient id="paint1_linear" x1="8" y1="8" x2="8" y2="56.9999" gradientUnits="userSpaceOnUse">
<stop stop-color="#BAFA52"/>
<stop offset="1" stop-color="#3F8F5B"/>
</linearGradient>
<linearGradient id="paint2_linear" x1="44" y1="56" x2="44" y2="45" gradientUnits="userSpaceOnUse">
<stop stop-color="#FDA700"/>
<stop offset="1" stop-color="#FFDE00"/>
</linearGradient>
<linearGradient id="paint3_linear" x1="36" y1="56" x2="36" y2="45" gradientUnits="userSpaceOnUse">
<stop stop-color="#FDA700"/>
<stop offset="1" stop-color="#FFDE00"/>
</linearGradient>
<linearGradient id="paint4_linear" x1="52" y1="56" x2="52" y2="45" gradientUnits="userSpaceOnUse">
<stop stop-color="#FDA700"/>
<stop offset="1" stop-color="#FFDE00"/>
</linearGradient>
<linearGradient id="paint5_linear" x1="34" y1="17" x2="34" y2="38" gradientUnits="userSpaceOnUse">
<stop stop-color="#BAFA52"/>
<stop offset="1" stop-color="#3F8F5B"/>
</linearGradient>
<linearGradient id="paint6_linear" x1="34" y1="17" x2="34" y2="38" gradientUnits="userSpaceOnUse">
<stop stop-color="#BAFA52"/>
<stop offset="1" stop-color="#3F8F5B"/>
</linearGradient>
</defs>
</svg>
