<svg width="192" height="192" viewBox="0 0 192 192" fill="none" xmlns="http://www.w3.org/2000/svg">
<path d="M84.28 13.7162C102.838 11.3867 122.208 14.7354 138.659 23.8247C157.227 34.1723 171.388 51.7894 178.951 71.6943C185.804 89.7584 185.352 110.058 179.577 128.352C173.309 149.546 157.998 167.277 139.215 178.218C135.032 179.934 130.171 175.473 131.302 171.084C131.898 167.673 135.402 166.269 137.837 164.387C152.203 154.788 163.598 140.259 168.192 123.349C173.104 107.469 173.042 89.852 166.795 74.3566C159.931 57.5196 147.65 42.6376 131.61 34.11C117.337 26.5078 100.659 24.0326 84.7424 26.2167C66.6366 28.9829 49.5789 38.5298 37.8439 52.7773C26.0782 66.6816 19.5531 85.089 20.2929 103.413C20.7245 127.8 33.8775 151.398 54.1721 164.511C57.1212 166.029 59.3922 169.524 58.0152 172.883C56.9157 176.221 52.939 177.709 49.8152 176.408C34.3296 166.914 21.8344 152.437 14.8571 135.506C6.4207 115.372 5.69112 92.0048 13.0999 71.4447C19.1729 54.7012 30.2912 39.8506 44.667 29.5237C56.3403 21.1 70.0687 15.6194 84.28 13.7162Z" fill="url(#paint0_linear_642_31)" stroke="url(#paint1_linear_642_31)" stroke-width="12"/>
<path d="M111.871 67.3992C113.577 65.8393 116.424 67.9192 115.715 70.0616C114.173 82.6243 111.635 95.0311 109.139 107.428C107.114 117.12 96.0262 122.58 86.963 120.042C80.0269 117.889 75.2178 110.683 75.2383 103.434C75.4747 97.2255 79.1842 91.5576 84.1166 88.0425C93.3647 81.1476 102.572 74.2006 111.871 67.3992Z" fill="url(#paint2_linear_642_31)" stroke="url(#paint3_linear_642_31)" stroke-width="12"/>
<defs>
<linearGradient id="paint0_linear_642_31" x1="39.9" y1="159.045" x2="190.189" y2="19.6744" gradientUnits="userSpaceOnUse">
<stop stop-color="#FE0844"/>
<stop offset="1" stop-color="#FEB302"/>
</linearGradient>
<linearGradient id="paint1_linear_642_31" x1="39.9" y1="159.045" x2="190.189" y2="19.6744" gradientUnits="userSpaceOnUse">
<stop stop-color="#FE0844"/>
<stop offset="1" stop-color="#FEB302"/>
</linearGradient>
<linearGradient id="paint2_linear_642_31" x1="82.5948" y1="114.31" x2="127.574" y2="84.7061" gradientUnits="userSpaceOnUse">
<stop stop-color="#FE0844"/>
<stop offset="1" stop-color="#FEB302"/>
</linearGradient>
<linearGradient id="paint3_linear_642_31" x1="82.5948" y1="114.31" x2="127.574" y2="84.7061" gradientUnits="userSpaceOnUse">
<stop stop-color="#FE0844"/>
<stop offset="1" stop-color="#FEB302"/>
</linearGradient>
</defs>
</svg>
