<svg width="128" height="128" viewBox="0 0 128 128" fill="none" xmlns="http://www.w3.org/2000/svg">
<path d="M105.223 6.75139L105.219 6.75221L105.214 6.75308C98.1147 8.14488 91.009 9.51551 83.9007 10.8865C72.4212 13.1006 60.9374 15.3156 49.472 17.6221C47.6389 17.7324 46.1852 18.7915 45.2305 20.172C44.2755 21.553 43.7802 23.306 43.8784 24.9219C43.8905 32.5501 43.8885 40.18 43.8865 47.8105C43.8836 59.529 43.8806 71.2489 43.9285 82.9674C39.1169 80.2803 33.2255 79.6353 27.9388 81.211C19.9957 83.4795 13.8387 90.8233 13.1288 99.0551C12.2895 106.236 15.6089 113.655 21.453 117.914C26.7234 121.849 33.9279 123.084 40.2016 120.995C46.5321 119.041 51.6262 113.845 53.6711 107.603C54.5996 105.451 54.7933 103.209 54.7704 101.007C54.76 99.9985 54.7035 98.9851 54.6482 97.9915C54.6429 97.8967 54.6377 97.8032 54.6325 97.709C54.5722 96.6186 54.5185 95.5518 54.5281 94.5041V94.4984C54.5311 89.2921 54.5307 84.0871 54.5303 78.8821C54.5298 70.3786 54.5291 61.8775 54.543 53.3783C57.5003 52.7454 60.491 52.2805 63.5035 51.8121L63.532 51.8077C66.7164 51.3126 69.9254 50.8132 73.1033 50.1082L73.1058 50.1078C75.1799 49.6404 77.282 49.3123 79.4076 48.9804C79.6565 48.9416 79.9055 48.9026 80.1551 48.8634C82.527 48.491 84.9219 48.0939 87.2792 47.475L87.2926 47.4715L87.3053 47.4675C88.5722 47.076 89.7357 46.2057 90.4844 45.092C91.237 43.9723 91.5958 42.5642 91.155 41.1353L91.1379 41.0801L91.1112 41.0288C90.5403 39.9329 89.6493 38.85 88.5455 38.1303C87.4405 37.4097 86.0897 37.0369 84.6532 37.4435C83.7813 37.617 82.9125 37.795 82.0463 37.9726C78.4804 38.7031 74.9469 39.4271 71.3537 39.8069L71.3359 39.8088L71.3181 39.8116C68.9722 40.1933 66.6389 40.6501 64.3175 41.1044C63.7255 41.2203 63.1343 41.336 62.5439 41.4503C59.8703 41.9677 57.207 42.457 54.5257 42.8068C54.5425 40.306 54.5398 37.8071 54.5372 35.3112L54.5369 35.0159C54.5342 32.353 54.5323 29.6934 54.5548 27.0329C55.8709 26.7839 57.1872 26.5351 58.5036 26.2863C73.8368 23.3885 89.1882 20.4872 104.478 17.3002C104.536 27.2762 104.527 37.2362 104.519 47.1975C104.511 55.8 104.504 64.4035 104.54 73.0193C98.7371 70.3379 91.5221 70.8494 86.3304 74.714C80.3386 78.9126 77.5106 86.9504 79.5359 93.9557C81.2169 100.35 86.7426 105.529 93.2558 106.789C99.0553 108.012 105.361 106.084 109.506 101.876C113.711 97.7166 115.362 91.5778 114.934 85.8791C114.905 72.2273 114.912 58.5763 114.92 44.9248C114.927 33.8343 114.933 22.7434 114.919 11.6508C115.115 9.29839 113.35 7.51761 111.746 6.48962L111.708 6.46532L111.666 6.44662C110.523 5.92453 109.361 5.93601 108.28 6.10037C107.741 6.18237 107.207 6.30496 106.699 6.42506C106.642 6.43852 106.585 6.45194 106.529 6.46528C106.076 6.57274 105.646 6.67473 105.223 6.75139ZM93.9474 82.0183L93.9557 82.0151L93.9633 82.0113C96.1384 81.0348 98.6609 81.351 100.706 82.5508C102.751 83.7506 104.242 85.7869 104.42 88.1565L104.423 88.1953L104.43 88.2329C104.897 90.5892 103.987 92.9582 102.316 94.6561C100.644 96.3546 98.2703 97.3197 95.8926 96.9354L95.8729 96.9323L95.8526 96.9304C91.4935 96.506 88.1963 91.8685 89.2263 87.6343L89.2289 87.6234L89.2314 87.6126C89.7433 85.1342 91.5932 82.9986 93.9474 82.0183ZM30.4964 91.0129L30.5013 91.011L30.5062 91.0097C35.6696 89.2208 42.0457 92.1261 43.6881 97.3292C44.0515 99.8573 44.0033 102.473 43.755 105.053C42.0323 110.062 36.0613 113.023 30.9527 111.484L30.9416 111.48L30.9305 111.477C25.7665 110.123 22.2312 104.473 23.3223 99.258L23.3241 99.2491L23.3257 99.2409C24.0061 95.4755 26.8553 92.2069 30.4964 91.0129Z" fill="url(#paint0_linear_618_88)" stroke="url(#paint1_linear_618_88)" stroke-width="2"/>
<defs>
<linearGradient id="paint0_linear_618_88" x1="64" y1="122" x2="64" y2="6" gradientUnits="userSpaceOnUse">
<stop stop-color="#9000FF"/>
<stop offset="1" stop-color="#FF00FF"/>
</linearGradient>
<linearGradient id="paint1_linear_618_88" x1="64" y1="122" x2="64" y2="6" gradientUnits="userSpaceOnUse">
<stop stop-color="#9000FF"/>
<stop offset="1" stop-color="#FF00FF"/>
</linearGradient>
</defs>
</svg>
