<svg width="64" height="64" viewBox="0 0 64 64" fill="none" xmlns="http://www.w3.org/2000/svg">
<g clip-path="url(#clip0_614_34)">
<path d="M7.02155 7.85484C7.07722 3.74345 10.6618 0.106272 14.7003 0.0236087C26.8458 -0.0155475 38.9913 0.0279589 51.1325 0.00620551C53.1282 -0.0895096 55.1196 0.928552 56.2417 2.60792C57.3766 4.23507 57.4836 6.37561 57.171 8.28121C56.6485 9.94753 54.3488 10.5044 53.1282 9.29492C52.0832 8.37693 52.3488 6.84549 52.2845 5.60119C51.9291 5.33145 51.5822 4.99209 51.1025 5.04865C39.1112 5.03995 27.1156 5.03125 15.1243 5.04865C13.6596 5.02255 12.2849 6.17113 12.0365 7.64166C11.908 8.56836 11.9637 9.50811 11.9551 10.4435C11.9723 25.5447 11.9294 40.6416 11.968 55.7429C11.9209 57.4657 13.4412 59.0233 15.1414 58.9624C23.8565 58.9798 32.5759 58.9667 41.2953 58.9624C42.0105 59.0015 42.6743 58.5926 43.0983 58.0313C45.8135 54.6726 48.5244 51.3139 51.2438 47.9638C51.7963 47.3286 52.1903 46.5368 52.246 45.6797C52.3359 43.5087 52.1989 41.3334 52.2931 39.158C52.3188 37.8006 53.6721 36.7086 54.9826 36.8739C56.1303 36.9566 57.1753 37.9834 57.201 39.1667C57.2609 41.2072 57.2053 43.252 57.2267 45.2969C57.2823 47.4156 56.5072 49.5083 55.1453 51.1094C52.3745 54.5203 49.6122 57.94 46.8413 61.3509C45.518 63.0433 43.4324 64.0353 41.3039 63.9961C32.5888 63.9961 23.8694 64.0092 15.1542 63.9874C12.0665 64.0396 9.06436 62.1384 7.77957 59.2843C7.09007 57.9139 6.99585 56.3433 7.00013 54.8336C7.02583 39.1711 6.97872 23.513 7.02155 7.85484Z" fill="url(#paint0_linear_614_34)"/>
<path d="M17.878 11.479C18.4819 11.1222 19.2056 11.2005 19.878 11.1788C27.4454 11.2049 35.0128 11.157 42.5801 11.2005C44.3018 11.1396 45.5352 13.2453 44.73 14.7724C44.306 15.7818 43.1968 16.3082 42.1519 16.2212C34.4389 16.2125 26.7216 16.243 19.0086 16.2038C16.5461 16.33 15.6553 12.5275 17.878 11.479Z" fill="url(#paint1_linear_614_34)"/>
<path d="M19.1587 22.3992C23.6726 22.2469 28.195 22.3905 32.7132 22.3296C33.7624 22.36 34.9916 22.1643 35.8309 22.9691C36.923 23.8915 36.9444 25.771 35.8695 26.7107C35.1629 27.446 34.0879 27.3677 33.1629 27.3894C28.7304 27.3633 24.2936 27.3981 19.8611 27.3677C18.5206 27.4982 17.2273 26.4105 17.1673 25.0357C17.0602 23.8175 17.9596 22.5863 19.1587 22.3992Z" fill="url(#paint2_linear_614_34)"/>
<path d="M17.908 33.7893C18.7902 33.3716 19.7966 33.5457 20.7345 33.5021C23.0386 33.5674 25.3512 33.4064 27.6467 33.5848C29.3597 33.9155 30.1349 36.2692 28.9914 37.5918C28.1606 38.7447 26.636 38.5316 25.4112 38.5403C23.1028 38.475 20.7816 38.6447 18.4819 38.4576C16.302 38.0791 15.9123 34.7116 17.908 33.7893Z" fill="url(#paint3_linear_614_34)"/>
<path d="M55.1668 14.2417C56.8413 13.4803 58.9355 13.8327 60.2716 15.1118C61.2267 15.9993 62.2416 16.8347 63.0939 17.831C64.49 19.5756 64.2331 22.3513 62.5971 23.848C55.6721 30.883 48.7514 37.9181 41.8007 44.9271C38.9442 47.7942 34.8543 48.5077 31.2441 49.9303C30.2248 50.3785 28.91 50.4481 28.0835 49.5779C27.1113 48.7035 27.1841 47.2199 27.7666 46.1453C29.4154 42.4994 30.4732 38.3967 33.3811 35.5122C40.0748 28.8208 46.7985 22.1686 53.4965 15.4816C53.9933 14.9987 54.5244 14.5244 55.1668 14.2417ZM37.1284 38.8622C35.8051 40.1413 34.9185 41.7902 34.2719 43.5087C35.9378 43.0171 37.5352 42.1905 38.7386 40.9027C45.4281 34.1374 52.1004 27.3459 58.7684 20.5589C58.2074 20.0455 57.6464 19.5321 57.0854 19.0187C50.4131 25.61 43.775 32.2404 37.1284 38.8622Z" fill="url(#paint4_linear_614_34)"/>
</g>
<defs>
<linearGradient id="paint0_linear_614_34" x1="6.99921" y1="32" x2="57.3227" y2="32" gradientUnits="userSpaceOnUse">
<stop stop-color="#FFA800"/>
<stop offset="0.986957" stop-color="#FF1B7B"/>
</linearGradient>
<linearGradient id="paint1_linear_614_34" x1="16.606" y1="13.7046" x2="44.982" y2="13.7046" gradientUnits="userSpaceOnUse">
<stop stop-color="#FFA800"/>
<stop offset="0.986957" stop-color="#FF1B7B"/>
</linearGradient>
<linearGradient id="paint2_linear_614_34" x1="17.1583" y1="24.8579" x2="36.663" y2="24.8579" gradientUnits="userSpaceOnUse">
<stop stop-color="#FFA800"/>
<stop offset="0.986957" stop-color="#FF1B7B"/>
</linearGradient>
<linearGradient id="paint3_linear_614_34" x1="16.6082" y1="36.024" x2="29.532" y2="36.024" gradientUnits="userSpaceOnUse">
<stop stop-color="#FFA800"/>
<stop offset="0.986957" stop-color="#FF1B7B"/>
</linearGradient>
<linearGradient id="paint4_linear_614_34" x1="27.3378" y1="32.0485" x2="63.9999" y2="32.0485" gradientUnits="userSpaceOnUse">
<stop stop-color="#FFA800"/>
<stop offset="0.986957" stop-color="#FF1B7B"/>
</linearGradient>
<clipPath id="clip0_614_34">
<rect width="64" height="64" fill="white"/>
</clipPath>
</defs>
</svg>
