<svg width="64" height="64" viewBox="0 0 64 64" fill="none" xmlns="http://www.w3.org/2000/svg">
<path d="M7.45059 0.373735C8.58024 0.0610814 9.76271 -0.0038856 10.9289 0.000174833C25.2893 0.020477 39.6497 -0.0120062 54.006 0.0123564C59.256 -0.0404292 63.9859 4.59659 63.9818 9.85079C64.0062 23.9364 63.9818 38.0221 63.9981 52.1037C63.994 53.5898 64.0631 55.1084 63.6405 56.5499C62.6856 60.0946 59.6501 62.9735 56.058 63.7328C54.7252 64.0495 53.3477 63.9967 51.9864 63.9967C37.8942 63.9723 23.8021 64.0211 9.70989 63.9723C4.56145 63.8668 0.0266012 59.3028 0.0103472 54.1461C-0.00590673 39.3783 -0.00184315 24.6064 0.0144108 9.83861C0.0428552 5.49395 3.25707 1.46193 7.45059 0.373735ZM9.46202 4.8524C6.82075 5.12444 4.71993 7.58913 4.79713 10.2325C4.81339 24.7201 4.76463 39.2159 4.79713 53.7116C4.67117 56.6026 7.20272 59.2419 10.1122 59.1648C24.6148 59.1932 39.1173 59.1729 53.6199 59.1729C56.5944 59.3556 59.3251 56.7245 59.195 53.74C59.2113 39.5245 59.1869 25.3048 59.2072 11.0892C59.6948 7.82463 56.9357 4.57629 53.5874 4.79961C38.8817 4.83615 24.1678 4.72652 9.46202 4.8524Z" fill="url(#paint0_linear)"/>
<path d="M17.5496 7.11537C18.2633 6.83943 19.0182 7.16181 19.6876 7.3995C21.7311 8.19179 23.2704 9.81188 24.2259 11.6314C27.3487 10.6779 30.6485 10.1916 33.9394 10.3747C32.465 10.973 31.9076 12.5193 30.9611 13.6231C24.6181 14.0875 18.4225 17.1364 14.8514 22.076C15.3586 21.9503 15.8688 21.8219 16.376 21.6935C16.5913 21.6443 17.0218 21.5432 17.2371 21.4913C16.6001 22.9611 15.0372 23.9665 14.645 25.5183C13.5421 25.8653 12.4599 26.3352 11.2686 26.3161C10.6788 26.0374 10.089 25.644 9.89735 25.0238C9.52874 23.9747 10.2748 23.0103 10.7555 22.1169C13.032 18.1582 16.7004 14.9618 20.9939 12.9155C20.4071 11.9019 19.5932 10.9293 18.4255 10.4594C17.7856 10.1944 16.9923 10.0359 16.6561 9.39934C16.1401 8.5852 16.6001 7.43775 17.5496 7.11537Z" fill="url(#paint1_linear)"/>
<path d="M40.8604 11.7543C41.9839 9.57145 43.9685 7.62625 46.5782 7.05798C47.4482 6.81483 48.2827 7.37217 48.666 8.06337C48.8725 8.97587 48.3888 9.97033 47.3597 10.1971C45.841 10.6342 44.7381 11.7817 44.057 13.0712C44.2103 13.1477 44.517 13.3061 44.6703 13.3826C44.8532 13.4783 45.2188 13.664 45.3987 13.7597C44.7234 14.6421 44.0275 15.5191 43.5527 16.5163C41.7804 15.5546 39.8784 14.7978 37.9056 14.276C38.5249 13.358 39.1972 12.4756 39.9109 11.6177L40.0141 11.503C40.2264 11.5658 40.6481 11.6915 40.8604 11.7543Z" fill="url(#paint2_linear)"/>
<path d="M48.666 8.06337C49.6568 8.89391 49.0789 10.484 47.8846 10.8528C46.5252 11.3336 45.3957 12.2161 44.6703 13.3826C44.517 13.3061 44.2103 13.1477 44.057 13.0712C44.7381 11.7817 45.841 10.6342 47.3597 10.1971C48.3888 9.97033 48.8725 8.97587 48.666 8.06337Z" fill="url(#paint3_linear)"/>
<path d="M18.3783 29.2885C20.6607 28.7749 22.9756 28.3815 25.3052 28.1083C26.0512 28.0236 26.8002 27.9526 27.5492 27.887C27.4932 28.0864 27.3871 28.4798 27.334 28.6793C22.8635 29.0454 18.452 29.9415 14.1997 31.2692C13.781 31.425 13.1912 31.5971 13.1853 32.1107C12.7017 34.0341 13.0143 36.012 13.4095 37.9217C13.666 38.8561 13.9874 39.785 14.0464 40.7576C13.4625 39.5582 13.0644 38.2851 12.8079 36.9928C12.4186 34.9657 12.3803 32.8811 12.7548 30.8485C14.6185 30.2939 16.4822 29.7475 18.3783 29.2885Z" fill="url(#paint4_linear)"/>
<path d="M30.9611 13.6231C31.9076 12.5193 32.465 10.973 33.9394 10.3747C36.0095 10.5004 38.0443 10.9129 40.0229 11.4811L39.9109 11.6177C39.1972 12.4756 38.5249 13.358 37.9056 14.276C35.6498 13.7077 33.2936 13.4591 30.9611 13.6231Z" fill="url(#paint5_linear)"/>
<path d="M14.8514 22.076C18.4225 17.1364 24.6181 14.0875 30.9611 13.6231C33.2936 13.4591 35.6498 13.7077 37.9056 14.276C39.8784 14.7978 41.7804 15.5546 43.5527 16.5163C44.4197 16.9834 45.2483 17.5107 45.9944 18.1309C45.5019 18.008 44.9918 17.9014 44.5642 17.6309C41.1612 15.5628 37.136 14.3552 33.0636 14.235C27.5168 14.2296 21.9523 16.1912 17.936 19.7592C17.3344 20.3356 16.5116 20.8438 16.376 21.6935C15.8688 21.8219 15.3586 21.9503 14.8514 22.076Z" fill="url(#paint6_linear)"/>
<path d="M45.3987 13.7597C47.3331 14.7978 49.0376 16.1556 50.5297 17.691C49.8043 18.568 49.0818 19.4477 48.3299 20.3056C47.5986 19.5406 46.8407 18.7893 45.9944 18.1309C45.2483 17.5107 44.4197 16.9834 43.5527 16.5163C44.0275 15.5191 44.7234 14.6421 45.3987 13.7597Z" fill="url(#paint7_linear)"/>
<path d="M38.2005 19.9996C41.8306 20.3356 45.4311 20.9585 48.9432 21.8656C48.4065 22.8791 47.2476 23.5922 47.0383 24.7451C43.4849 23.8818 39.8489 23.3163 36.1835 23.0922C36.6199 21.9311 37.6727 21.1143 38.2005 19.9996Z" fill="url(#paint8_linear)"/>
<path d="M48.3299 20.3056C49.0818 19.4477 49.8043 18.568 50.5297 17.691C52.2312 19.4122 53.6142 21.3848 54.7201 23.4775C54.9235 23.8545 55.0061 24.2698 55.0503 24.6851C54.7436 25.6631 53.7263 26.5565 52.5585 26.2642C50.7037 25.8079 48.9138 25.1413 47.0383 24.7451C47.2476 23.5922 48.4065 22.8791 48.9432 21.8656C49.2499 21.9421 49.5537 22.0186 49.8603 22.0951C49.359 21.4913 48.8666 20.882 48.3299 20.3056Z" fill="url(#paint9_linear)"/>
<path d="M17.2371 21.4913C21.9405 20.3712 26.7855 19.792 31.6393 19.7237C30.8667 20.8711 29.9378 21.9175 29.1298 23.0431C24.2111 23.2835 19.3455 24.1714 14.645 25.5183C15.0372 23.9665 16.6001 22.9611 17.2371 21.4913Z" fill="url(#paint10_linear)"/>
<path d="M31.6393 19.7237C33.8303 19.7046 36.0184 19.8275 38.2005 19.9996C37.6727 21.1143 36.6199 21.9311 36.1835 23.0922C33.8362 22.9392 31.4801 22.9174 29.1298 23.0431C29.9378 21.9175 30.8667 20.8711 31.6393 19.7237Z" fill="url(#paint11_linear)"/>
<path d="M14.645 25.5183C19.3455 24.1714 24.2111 23.2835 29.1298 23.0431C31.4801 22.9174 33.8362 22.9392 36.1835 23.0922C39.8489 23.3163 43.4849 23.8818 47.0383 24.7451C48.9138 25.1413 50.7037 25.8079 52.5585 26.2642C53.7263 26.5565 54.7436 25.6631 55.0503 24.6851C55.2037 25.2779 55.1506 25.9718 54.5785 26.3652C53.6349 27.2613 52.1988 26.6931 51.1254 26.327C46.7994 25.0429 42.3319 24.0949 37.7936 23.7889C36.505 23.8463 35.2458 23.513 33.9601 23.5294C26.93 23.4502 19.8645 24.4501 13.2296 26.6357C12.4806 26.8734 11.5369 27.0127 10.9236 26.4335L11.2686 26.3161C12.4599 26.3352 13.5421 25.8653 14.645 25.5183Z" fill="url(#paint12_linear)"/>
<path d="M37.0299 32.8456C37.0417 31.1845 37.0299 29.5235 37.0446 27.8597C38.4512 27.9799 39.8578 28.1055 41.2585 28.3022C43.712 28.6629 46.1536 29.1246 48.5393 29.7748C49.6628 30.1026 50.7922 30.4196 51.8951 30.802C51.9128 30.925 51.9541 31.1736 51.9718 31.2965C48.2002 30.0808 44.3018 29.212 40.3414 28.7366C39.4126 28.6519 38.4778 28.6519 37.5489 28.6656C37.2599 29.8923 37.3837 31.149 37.3719 32.3948C37.3719 37.6786 37.3719 42.9596 37.3719 48.2406C37.3778 49.3279 37.2274 50.4563 37.6757 51.4944C37.5164 51.5327 37.2039 51.6146 37.0476 51.6556C37.024 48.8553 37.0446 46.055 37.0328 43.2546C37.0387 39.785 37.0417 36.3153 37.0299 32.8456Z" fill="url(#paint13_linear)"/>
<path d="M27.8589 24.6222C28.891 24.5566 29.9231 24.4747 30.9552 24.5184C31.1793 26.2942 31.023 28.0891 31.0643 29.8731C29.8671 31.1927 28.9795 32.7636 27.5552 33.8974C27.5434 31.8949 27.5463 29.8896 27.5492 27.887C26.8002 27.9526 26.0512 28.0236 25.3052 28.1083C26.0925 26.9062 27.1069 25.8461 27.8589 24.6222Z" fill="url(#paint14_linear)"/>
<path d="M33.6298 24.5129C36.8883 24.4993 40.1733 24.8216 43.364 25.3735L43.4288 25.5347C42.671 26.4363 41.9043 27.3296 41.2585 28.3022C39.8578 28.1055 38.4512 27.9799 37.0446 27.8597C37.0299 29.5235 37.0417 31.1845 37.0299 32.8456C35.5554 33.8592 34.9332 35.5448 33.559 36.6459C33.5855 32.6025 33.447 28.5509 33.6298 24.5129Z" fill="url(#paint15_linear)"/>
<path d="M19.835 25.5975C22.5067 25.2533 25.1607 24.7697 27.8589 24.6222C27.1069 25.8461 26.0925 26.9062 25.3052 28.1083C22.9756 28.3815 20.6607 28.7749 18.3783 29.2885C18.2367 29.2311 17.9596 29.1164 17.821 29.0617C18.6083 27.9635 19.4546 26.9034 20.3186 25.8543L20.1181 25.786C20.0474 25.7396 19.9058 25.644 19.835 25.5975Z" fill="url(#paint16_linear)"/>
<path d="M31.43 25.0265C31.5627 31.3922 31.4447 37.766 31.483 44.1371C31.4653 47.869 31.5096 51.6037 31.4359 55.3357C31.5007 55.8192 30.8284 56.0105 30.4155 55.9996C25.9893 55.5242 21.6751 53.9341 18.1601 51.3824C17.6116 50.9289 16.8714 50.5355 16.7358 49.8033C17.9389 50.7568 19.1922 51.6611 20.5575 52.4069C23.7128 54.1582 27.3251 55.1909 30.9965 55.3821C31.0142 54.9423 31.023 54.5024 31.0466 54.0625C31.1616 53.5872 31.3385 53.12 31.3385 52.6282C31.3326 44.5223 31.3444 36.4164 31.3444 28.3077C31.3356 27.2149 31.2943 26.1166 31.43 25.0265Z" fill="url(#paint17_linear)"/>
<path d="M55.2508 29.5972C55.5192 29.8295 55.6489 30.1436 55.6784 30.4797C56.5129 35.2525 55.7285 40.2877 53.2633 44.5687C52.2489 46.2899 51.0369 47.9128 49.6097 49.3635C45.6169 53.232 40.0436 55.7018 34.2579 55.9531C34.0131 55.7919 33.7802 55.6225 33.5531 55.4395C34.426 55.2783 35.3047 55.169 36.1835 55.0679C41.5475 54.3303 46.5723 51.6884 50.052 47.8417C54.3455 43.1235 56.3154 36.6978 55.3865 30.589C55.3452 30.2584 55.298 29.9278 55.2508 29.5972Z" fill="url(#paint18_linear)"/>
<path d="M43.4288 25.5347L43.6648 25.4691C46.0681 25.7259 48.4095 26.368 50.7214 27.01C49.8043 27.7914 49.0583 28.7257 48.5393 29.7748C46.1536 29.1246 43.712 28.6629 41.2585 28.3022C41.9043 27.3296 42.671 26.4363 43.4288 25.5347Z" fill="url(#paint19_linear)"/>
<path d="M17.4022 26.1849C18.2898 25.9773 19.1892 25.7013 20.1181 25.786L20.3186 25.8543C19.4546 26.9034 18.6083 27.9635 17.821 29.0617C17.9596 29.1164 18.2367 29.2311 18.3783 29.2885C16.4822 29.7475 14.6185 30.2939 12.7548 30.8485C12.3803 32.8811 12.4186 34.9657 12.8079 36.9928C11.8023 38.0447 10.8262 39.1347 10.1303 40.3915C8.86525 36.6486 8.58216 32.5669 9.69093 28.7612C9.79414 28.3268 10.3456 28.2613 10.7083 28.0946C12.9081 27.3706 15.1434 26.7341 17.4022 26.1849Z" fill="url(#paint20_linear)"/>
<path d="M48.5393 29.7748C49.0583 28.7257 49.8043 27.7914 50.7214 27.01C51.9687 27.4143 53.2456 27.7449 54.4635 28.223C55.0533 28.447 55.1329 29.0918 55.2508 29.5972C55.298 29.9278 55.3452 30.2584 55.3865 30.589C54.0359 31.578 53.458 33.168 52.1192 34.1624C52.1221 33.2062 52.0927 32.2473 51.9718 31.2965C51.9541 31.1736 51.9128 30.925 51.8951 30.802C50.7922 30.4196 49.6628 30.1026 48.5393 29.7748Z" fill="url(#paint21_linear)"/>
<path d="M27.5552 33.8974C28.9795 32.7636 29.8671 31.1927 31.0643 29.8731C31.0672 33.3182 31.0761 36.7633 31.0614 40.2084C29.8051 41.4843 28.9677 43.0743 27.5522 44.2218C27.5463 40.7794 27.5434 37.3398 27.5552 33.8974Z" fill="url(#paint22_linear)"/>
<path d="M52.1192 34.1624C53.458 33.168 54.0359 31.578 55.3865 30.589C56.3154 36.6978 54.3455 43.1235 50.052 47.8417C46.5723 51.6884 41.5475 54.3303 36.1835 55.0679C36.7172 53.5926 38.1563 52.631 38.7638 51.1884C41.4443 50.3251 43.9597 48.9755 45.9885 47.1259C49.7866 43.7847 51.9481 38.9927 52.1192 34.1624Z" fill="url(#paint23_linear)"/>
<path d="M33.559 36.6459C34.9332 35.5448 35.5554 33.8592 37.0299 32.8456C37.0417 36.3153 37.0387 39.785 37.0328 43.2546C35.7058 44.4649 34.8949 46.055 33.5708 47.268C33.5561 43.7273 33.5266 40.1866 33.559 36.6459Z" fill="url(#paint24_linear)"/>
<path d="M10.1303 40.3915C10.8262 39.1347 11.8023 38.0447 12.8079 36.9928C13.0644 38.2851 13.4625 39.5582 14.0464 40.7576C14.6686 42.2028 15.5268 43.5579 16.5382 44.7955C15.5445 45.4485 14.2794 46.5413 14.707 47.7816C14.592 47.798 14.3561 47.8308 14.2381 47.8472L14.5507 47.6915C12.5749 45.5605 11.1005 43.0497 10.1303 40.3915Z" fill="url(#paint25_linear)"/>
<path d="M27.5522 44.2218C28.9677 43.0743 29.8051 41.4843 31.0614 40.2084C31.0614 44.8256 31.0908 49.4454 31.0466 54.0625C31.023 54.5024 31.0142 54.9423 30.9965 55.3821C27.3251 55.1909 23.7128 54.1582 20.5575 52.4069C21.2121 51.5081 21.8963 50.6284 22.601 49.7623C24.1463 50.5929 25.8212 51.1994 27.5433 51.6392C27.5551 49.1667 27.5404 46.6943 27.5522 44.2218Z" fill="url(#paint26_linear)"/>
<path d="M33.5708 47.268C34.8949 46.055 35.7058 44.4649 37.0328 43.2546C37.0446 46.055 37.024 48.8553 37.0476 51.6556C37.2039 51.6146 37.5164 51.5327 37.6757 51.4944C37.947 51.4179 38.4925 51.2649 38.7638 51.1884C38.1563 52.631 36.7172 53.5926 36.1835 55.0679C35.3047 55.169 34.426 55.2783 33.5531 55.4395C33.5826 52.7157 33.5472 49.9918 33.5708 47.268Z" fill="url(#paint27_linear)"/>
<path d="M14.707 47.7816C14.2794 46.5413 15.5445 45.4485 16.5382 44.7955C18.1807 46.7981 20.2479 48.5029 22.601 49.7623C21.8963 50.6284 21.2121 51.5081 20.5575 52.4069C19.1922 51.6611 17.9389 50.7568 16.7358 49.8033C16.0222 49.1667 15.2525 48.5575 14.707 47.7816Z" fill="url(#paint28_linear)"/>
<defs>
<linearGradient id="paint0_linear" x1="-0.00937432" y1="31.0517" x2="63.986" y2="31.0517" gradientUnits="userSpaceOnUse">
<stop stop-color="#FD3A84"/>
<stop offset="1" stop-color="#FFA68D"/>
</linearGradient>
<linearGradient id="paint1_linear" x1="55.8607" y1="7.31064" x2="7.30744" y2="53.4945" gradientUnits="userSpaceOnUse">
<stop stop-color="#FE7970"/>
<stop offset="1" stop-color="#DC3282"/>
</linearGradient>
<linearGradient id="paint2_linear" x1="55.8607" y1="7.31064" x2="7.30744" y2="53.4945" gradientUnits="userSpaceOnUse">
<stop stop-color="#FE7970"/>
<stop offset="1" stop-color="#DC3282"/>
</linearGradient>
<linearGradient id="paint3_linear" x1="55.8607" y1="7.31064" x2="7.30744" y2="53.4945" gradientUnits="userSpaceOnUse">
<stop stop-color="#FE7970"/>
<stop offset="1" stop-color="#DC3282"/>
</linearGradient>
<linearGradient id="paint4_linear" x1="55.8607" y1="7.31064" x2="7.30744" y2="53.4945" gradientUnits="userSpaceOnUse">
<stop stop-color="#FE7970"/>
<stop offset="1" stop-color="#DC3282"/>
</linearGradient>
<linearGradient id="paint5_linear" x1="55.8607" y1="7.31064" x2="7.30744" y2="53.4945" gradientUnits="userSpaceOnUse">
<stop stop-color="#FE7970"/>
<stop offset="1" stop-color="#DC3282"/>
</linearGradient>
<linearGradient id="paint6_linear" x1="55.8607" y1="7.31064" x2="7.30744" y2="53.4945" gradientUnits="userSpaceOnUse">
<stop stop-color="#FE7970"/>
<stop offset="1" stop-color="#DC3282"/>
</linearGradient>
<linearGradient id="paint7_linear" x1="55.8607" y1="7.31064" x2="7.30744" y2="53.4945" gradientUnits="userSpaceOnUse">
<stop stop-color="#FE7970"/>
<stop offset="1" stop-color="#DC3282"/>
</linearGradient>
<linearGradient id="paint8_linear" x1="55.8607" y1="7.31064" x2="7.30744" y2="53.4945" gradientUnits="userSpaceOnUse">
<stop stop-color="#FE7970"/>
<stop offset="1" stop-color="#DC3282"/>
</linearGradient>
<linearGradient id="paint9_linear" x1="55.8607" y1="7.31064" x2="7.30744" y2="53.4945" gradientUnits="userSpaceOnUse">
<stop stop-color="#FE7970"/>
<stop offset="1" stop-color="#DC3282"/>
</linearGradient>
<linearGradient id="paint10_linear" x1="55.8607" y1="7.31064" x2="7.30744" y2="53.4945" gradientUnits="userSpaceOnUse">
<stop stop-color="#FE7970"/>
<stop offset="1" stop-color="#DC3282"/>
</linearGradient>
<linearGradient id="paint11_linear" x1="55.8607" y1="7.31064" x2="7.30744" y2="53.4945" gradientUnits="userSpaceOnUse">
<stop stop-color="#FE7970"/>
<stop offset="1" stop-color="#DC3282"/>
</linearGradient>
<linearGradient id="paint12_linear" x1="55.8607" y1="7.31064" x2="7.30744" y2="53.4945" gradientUnits="userSpaceOnUse">
<stop stop-color="#FE7970"/>
<stop offset="1" stop-color="#DC3282"/>
</linearGradient>
<linearGradient id="paint13_linear" x1="55.8607" y1="7.31064" x2="7.30744" y2="53.4945" gradientUnits="userSpaceOnUse">
<stop stop-color="#FE7970"/>
<stop offset="1" stop-color="#DC3282"/>
</linearGradient>
<linearGradient id="paint14_linear" x1="55.8607" y1="7.31064" x2="7.30744" y2="53.4945" gradientUnits="userSpaceOnUse">
<stop stop-color="#FE7970"/>
<stop offset="1" stop-color="#DC3282"/>
</linearGradient>
<linearGradient id="paint15_linear" x1="55.8607" y1="7.31064" x2="7.30744" y2="53.4945" gradientUnits="userSpaceOnUse">
<stop stop-color="#FE7970"/>
<stop offset="1" stop-color="#DC3282"/>
</linearGradient>
<linearGradient id="paint16_linear" x1="55.8607" y1="7.31064" x2="7.30744" y2="53.4945" gradientUnits="userSpaceOnUse">
<stop stop-color="#FE7970"/>
<stop offset="1" stop-color="#DC3282"/>
</linearGradient>
<linearGradient id="paint17_linear" x1="55.8607" y1="7.31064" x2="7.30744" y2="53.4945" gradientUnits="userSpaceOnUse">
<stop stop-color="#FE7970"/>
<stop offset="1" stop-color="#DC3282"/>
</linearGradient>
<linearGradient id="paint18_linear" x1="55.8607" y1="7.31064" x2="7.30744" y2="53.4945" gradientUnits="userSpaceOnUse">
<stop stop-color="#FE7970"/>
<stop offset="1" stop-color="#DC3282"/>
</linearGradient>
<linearGradient id="paint19_linear" x1="55.8607" y1="7.31064" x2="7.30744" y2="53.4945" gradientUnits="userSpaceOnUse">
<stop stop-color="#FE7970"/>
<stop offset="1" stop-color="#DC3282"/>
</linearGradient>
<linearGradient id="paint20_linear" x1="55.8607" y1="7.31064" x2="7.30744" y2="53.4945" gradientUnits="userSpaceOnUse">
<stop stop-color="#FE7970"/>
<stop offset="1" stop-color="#DC3282"/>
</linearGradient>
<linearGradient id="paint21_linear" x1="55.8607" y1="7.31064" x2="7.30744" y2="53.4945" gradientUnits="userSpaceOnUse">
<stop stop-color="#FE7970"/>
<stop offset="1" stop-color="#DC3282"/>
</linearGradient>
<linearGradient id="paint22_linear" x1="55.8607" y1="7.31064" x2="7.30744" y2="53.4945" gradientUnits="userSpaceOnUse">
<stop stop-color="#FE7970"/>
<stop offset="1" stop-color="#DC3282"/>
</linearGradient>
<linearGradient id="paint23_linear" x1="55.8607" y1="7.31064" x2="7.30744" y2="53.4945" gradientUnits="userSpaceOnUse">
<stop stop-color="#FE7970"/>
<stop offset="1" stop-color="#DC3282"/>
</linearGradient>
<linearGradient id="paint24_linear" x1="55.8607" y1="7.31064" x2="7.30744" y2="53.4945" gradientUnits="userSpaceOnUse">
<stop stop-color="#FE7970"/>
<stop offset="1" stop-color="#DC3282"/>
</linearGradient>
<linearGradient id="paint25_linear" x1="55.8607" y1="7.31064" x2="7.30744" y2="53.4945" gradientUnits="userSpaceOnUse">
<stop stop-color="#FE7970"/>
<stop offset="1" stop-color="#DC3282"/>
</linearGradient>
<linearGradient id="paint26_linear" x1="55.8607" y1="7.31064" x2="7.30744" y2="53.4945" gradientUnits="userSpaceOnUse">
<stop stop-color="#FE7970"/>
<stop offset="1" stop-color="#DC3282"/>
</linearGradient>
<linearGradient id="paint27_linear" x1="55.8607" y1="7.31064" x2="7.30744" y2="53.4945" gradientUnits="userSpaceOnUse">
<stop stop-color="#FE7970"/>
<stop offset="1" stop-color="#DC3282"/>
</linearGradient>
<linearGradient id="paint28_linear" x1="55.8607" y1="7.31064" x2="7.30744" y2="53.4945" gradientUnits="userSpaceOnUse">
<stop stop-color="#FE7970"/>
<stop offset="1" stop-color="#DC3282"/>
</linearGradient>
</defs>
</svg>
