<svg width="64" height="64" viewBox="0 0 64 64" fill="none" xmlns="http://www.w3.org/2000/svg">
<path d="M32 4C24.5739 4 17.452 6.94999 12.201 12.201C6.94999 17.452 4 24.5739 4 32V57.2C4 58.7512 5.2488 60 6.8 60H32C39.4261 60 46.548 57.05 51.799 51.799C57.05 46.548 60 39.4261 60 32V6.8C60 5.2488 58.7512 4 57.2 4H32Z" stroke="url(#paint0_linear)" stroke-width="6"/>
<path d="M36 11L28 12.2109V41.1484L36 39V27.8203L44 41L52 38L42 26L52.0039 13.0039L44.2422 11L36 24.1172V11ZM19.7109 18.8477C19.5218 18.8477 19.3326 18.9213 19.1875 19.0664L16.043 22.2109C15.7528 22.5011 15.8227 22.9156 16.043 23.2617L19.2969 28.3711C19.0558 28.8715 18.847 29.3869 18.6719 29.9141C18.6642 29.9367 18.6521 29.9577 18.6445 29.9805L12.7422 31.293C12.3416 31.382 12 31.6248 12 32.0352V34V35.9648C12 36.3752 12.3416 36.618 12.7422 36.707L18.6445 38.0195C18.6575 38.0583 18.6781 38.0942 18.6914 38.1328C18.8619 38.6449 19.0641 39.1459 19.2969 39.6328L16.043 44.7383C15.8227 45.0844 15.7528 45.4989 16.043 45.7891L19.1875 48.9336C19.4776 49.2237 19.9442 49.2237 20.2344 48.9336L25.3359 45.6836C25.8375 45.9275 26.3541 46.1389 26.8828 46.3164C26.9175 46.3286 26.9496 46.3475 26.9844 46.3594L28.293 52.2578C28.293 52.6681 28.6248 53 29.0351 53H33.4766C33.8869 53 34.1297 52.6583 34.2187 52.2578L35.5273 46.1797C36.1285 45.9537 36.7122 45.6834 37.2734 45.3711L42.2539 48.9336C42.544 49.2237 43.0106 49.2237 43.3008 48.9336L46.4453 45.7891C46.7354 45.4989 46.6656 45.0844 46.4453 44.7383L44.5508 41.8633L44.3516 41.9375C43.9011 42.1067 43.3939 41.9311 43.1445 41.5195L41.1523 38.2383C39.4925 42.2087 35.5725 45 31 45C24.9249 45 20 40.0751 20 34C20 29.3382 22.9056 25.3633 27 23.7617V21.5703L26.9844 21.6406C26.9402 21.6556 26.8995 21.6798 26.8555 21.6953C26.3338 21.8686 25.8237 22.0747 25.3282 22.3125L20.2344 19.0664C20.0893 18.9213 19.9001 18.8477 19.7109 18.8477V18.8477Z" fill="url(#paint1_linear)"/>
<defs>
<linearGradient id="paint0_linear" x1="32" y1="60" x2="32" y2="4" gradientUnits="userSpaceOnUse">
<stop stop-color="#5570FF"/>
<stop offset="1" stop-color="#4DD3FF"/>
</linearGradient>
<linearGradient id="paint1_linear" x1="32.002" y1="53" x2="32.002" y2="11" gradientUnits="userSpaceOnUse">
<stop stop-color="#5558FF"/>
<stop offset="1" stop-color="#00C0FF"/>
</linearGradient>
</defs>
</svg>
