<svg width="64" height="64" viewBox="0 0 64 64" fill="none" xmlns="http://www.w3.org/2000/svg">
<path fill-rule="evenodd" clip-rule="evenodd" d="M20.5582 22.9337C19.1774 22.9337 18.0581 24.053 18.0581 25.4338C18.0581 26.8145 19.1774 27.9338 20.5582 27.9338H26.1224C27.5031 27.9338 28.6225 26.8145 28.6225 25.4338C28.6225 24.053 27.5031 22.9337 26.1224 22.9337H20.5582ZM14.539 29.5757C13.1582 29.5757 12.0389 30.695 12.0389 32.0758C12.0389 33.4565 13.1582 34.5758 14.539 34.5758H26.1224C27.5031 34.5758 28.6225 33.4565 28.6225 32.0758C28.6225 30.695 27.5031 29.5757 26.1224 29.5757H14.539ZM10.3263 35.5355C8.9455 35.5355 7.82617 36.6548 7.82617 38.0355C7.82617 39.4163 8.9455 40.5356 10.3263 40.5356H26.1224C27.5031 40.5356 28.6225 39.4163 28.6225 38.0355C28.6225 36.6548 27.5031 35.5355 26.1224 35.5355H10.3263ZM14.539 41.4944C13.1582 41.4944 12.0389 42.6137 12.0389 43.9944C12.0389 45.3752 13.1582 46.4945 14.539 46.4945H26.1224C27.5031 46.4945 28.6225 45.3752 28.6225 43.9944C28.6225 42.6137 27.5031 41.4944 26.1224 41.4944H14.539ZM19.8038 47.2949C18.423 47.2949 17.3037 48.4142 17.3037 49.7949C17.3037 51.1757 18.423 52.295 19.8038 52.295H26.1224C27.5031 52.295 28.6225 51.1757 28.6225 49.7949C28.6225 48.4142 27.5031 47.2949 26.1224 47.2949H19.8038ZM42.9652 24.5754C42.3427 24.0929 41.5652 23.858 40.7825 23.9127L37.3786 27.5132L37.3594 44.1976L37.3594 44.2005C37.3594 45.6546 38.2537 46.7138 39.0827 47.2411C39.8849 47.7514 41.5169 48.2653 42.9615 47.1259L42.9651 47.123L53.6111 38.7592C54.6419 37.9541 54.9968 36.7692 54.9968 35.8293C54.9968 34.8869 54.6404 33.7022 53.6099 32.8967L53.6098 32.8966L42.9732 24.5817L42.9652 24.5754ZM42.363 41.2373L42.3754 30.461L49.2446 35.8309L42.363 41.2373Z" fill="url(#paint0_linear_678_412)"/>
<path fill-rule="evenodd" clip-rule="evenodd" d="M31.8999 6.00104C38.2833 5.97681 44.4525 8.30177 49.2322 12.5329C54.0118 16.7642 57.0678 22.6058 57.8179 28.9449C58.5681 35.2841 56.9601 41.6776 53.3001 46.9075C49.6399 52.1373 44.1836 55.8379 37.9707 57.3041C31.7579 58.7703 25.2228 57.8997 19.6106 54.8581C13.9985 51.8164 9.70159 46.8162 7.53839 40.8106C5.37521 34.8049 5.49698 28.2132 7.88052 22.2915C8.39607 21.0106 7.77567 19.5544 6.49482 19.0388C5.21398 18.5233 3.75771 19.1437 3.24216 20.4245C0.400248 27.485 0.255061 35.3443 2.83424 42.505L5.18044 41.6599L2.83424 42.505C5.41343 49.6656 10.5367 55.6272 17.2281 59.2539L17.2281 59.254C23.9197 62.8805 31.7116 63.9185 39.1191 62.1705L39.1191 62.1705C46.5267 60.4223 53.0324 56.0101 57.3965 49.7745L57.3966 49.7744C61.7604 43.5387 63.6777 35.9155 62.7833 28.3573C61.8889 20.7992 58.2451 13.8341 52.5465 8.78913L52.5464 8.78908C46.8475 3.74426 39.4919 0.972188 31.8809 1.00108C24.2699 1.02997 16.9356 3.85777 11.2751 8.9457C10.2482 9.8687 10.164 11.4494 11.087 12.4762C12.01 13.5031 13.5907 13.5873 14.6176 12.6643C19.3651 8.39697 25.5165 6.02527 31.8999 6.00104ZM25.2222 13.7196C25.6454 12.8718 26.5115 12.3361 27.4591 12.3361H40.0963C41.0439 12.3361 41.9101 12.8718 42.3333 13.7197C42.7564 14.5676 42.6639 15.5819 42.0942 16.3392L38.9348 20.5387L38.9345 20.5392L36.2072 24.166V50.2586C36.2072 51.6394 35.0879 52.7587 33.7071 52.7587C32.3264 52.7587 31.207 51.6394 31.207 50.2586V23.9785L28.62 20.539L28.62 20.5389L25.4611 16.3389C24.8915 15.5816 24.799 14.5674 25.2222 13.7196ZM32.4678 17.3363L32.616 17.5334L32.616 17.5334L33.7774 19.0775L34.9384 17.5336L34.9387 17.5331L35.0869 17.3363H32.4678Z" fill="url(#paint1_linear_678_412)"/>
<defs>
<linearGradient id="paint0_linear_678_412" x1="31.4114" y1="52.2951" x2="31.4114" y2="22.9336" gradientUnits="userSpaceOnUse">
<stop stop-color="#4EC1FF"/>
<stop offset="0.53125" stop-color="#5570FF"/>
<stop offset="1" stop-color="#4DD3FF"/>
</linearGradient>
<linearGradient id="paint1_linear_678_412" x1="0.999996" y1="32.0008" x2="62.9981" y2="32.0008" gradientUnits="userSpaceOnUse">
<stop stop-color="#F237EF"/>
<stop offset="0.986957" stop-color="#FC5252"/>
</linearGradient>
</defs>
</svg>
