<svg width="24" height="24" viewBox="0 0 24 24" fill="none" xmlns="http://www.w3.org/2000/svg">
<path d="M19.6575 8.32875C19.6575 4.3 16.3584 1 12.3288 1C8.29908 1 5 4.3 5 8.32875C5 10.5113 5.95905 12.5262 7.57417 13.9141C7.79148 14.1009 7.92783 14.3682 7.92783 14.6548V20.7711C7.92783 21.1814 8.26047 21.5141 8.67079 21.5141C9.08112 21.5141 9.41375 21.8467 9.41375 22.257C9.41375 22.6673 9.74639 23 10.1567 23H14.5003C14.9105 23 15.2428 22.6676 15.2428 22.2575C15.2428 21.8474 15.5755 21.515 15.9856 21.515C16.3959 21.515 16.7287 21.1823 16.7287 20.772V14.6588C16.7287 14.37 16.8673 14.1009 17.0872 13.9136C17.8354 13.2764 18.4487 12.4937 18.8888 11.6114C19.3974 10.592 19.6605 9.46791 19.6575 8.32875ZM10.1219 20.0428C9.7232 20.0428 9.40001 19.7196 9.40001 19.321C9.40001 18.9223 9.7232 18.5991 10.1219 18.5991H14.5365C14.9352 18.5991 15.2584 18.9223 15.2584 19.321C15.2584 19.7196 14.9352 20.0428 14.5365 20.0428H10.1219ZM10.1219 17.115C9.7232 17.115 9.40001 16.7918 9.40001 16.3931C9.40001 15.9945 9.7232 15.6712 10.1219 15.6712H14.5365C14.9352 15.6712 15.2584 15.9945 15.2584 16.3931C15.2584 16.7918 14.9352 17.115 14.5365 17.115H10.1219ZM15.5807 13.2095C15.5825 13.2095 15.5834 13.2118 15.5818 13.2129L15.2996 13.4016C15.2738 13.4187 15.2584 13.4477 15.2584 13.4786V13.6976C15.2584 13.9751 15.0335 14.2 14.756 14.2H9.90574C9.62643 14.2 9.40001 13.9736 9.40001 13.6943C9.40001 13.5287 9.31898 13.3736 9.18307 13.2791L9.08375 13.21C8.27796 12.6768 7.61736 11.9516 7.16134 11.0997C6.70531 10.2478 6.46818 9.29593 6.47125 8.32967C6.47125 5.09842 9.08375 2.47125 12.3288 2.47125C15.5738 2.47125 18.1862 5.08467 18.1862 8.32967C18.191 9.29623 17.9545 10.2487 17.4984 11.1008C17.0434 11.951 16.3839 12.6745 15.5795 13.2062C15.578 13.2073 15.5788 13.2096 15.5807 13.2095Z" fill="url(#paint0_linear_678_278)" stroke="url(#paint1_linear_678_278)" stroke-width="0.6"/>
<defs>
<linearGradient id="paint0_linear_678_278" x1="12.3287" y1="23" x2="12.3287" y2="1" gradientUnits="userSpaceOnUse">
<stop stop-color="#FD5900"/>
<stop offset="1" stop-color="#FFDE00"/>
</linearGradient>
<linearGradient id="paint1_linear_678_278" x1="12.3287" y1="23" x2="12.3287" y2="1" gradientUnits="userSpaceOnUse">
<stop stop-color="#FD5900"/>
<stop offset="1" stop-color="#FFDE00"/>
</linearGradient>
</defs>
</svg>
