<svg width="128" height="128" viewBox="0 0 128 128" fill="none" xmlns="http://www.w3.org/2000/svg">
<path d="M97 124V89C97 84.5817 93.4183 81 89 81H39C34.5817 81 31 84.5817 31 89V124" stroke="url(#paint0_linear)" stroke-width="14"/>
<path d="M33 115.667H95L91.7708 123.74H33V115.667ZM105.333 115.667H115.667V43.3333C115.667 42.5799 115.398 41.5438 114.859 40.2253C114.321 38.9067 113.783 37.9783 113.245 37.4401L90.5599 14.7552C90.0217 14.217 89.1068 13.6788 87.8151 13.1406C86.5234 12.6024 85.474 12.3333 84.6667 12.3333V45.9167C84.6667 48.0694 83.9132 49.8993 82.4062 51.4062C80.8993 52.9132 79.0694 53.6667 76.9167 53.6667H30.4167C28.2639 53.6667 26.434 52.9132 24.9271 51.4062C23.4201 49.8993 22.6667 48.0694 22.6667 45.9167V12.3333H12.3333V115.667H22.6667H33C35.9062 115.667 21.1597 119.757 22.6667 118.25C24.1736 116.743 26.0035 115.99 28.1562 115.99H95.3229C97.4757 115.99 99.3056 116.743 100.812 118.25C102.319 119.757 91.7708 115.667 95 115.667H105.333ZM74.3333 40.75V14.9167C74.3333 14.217 74.0777 13.6115 73.5664 13.1003C73.0551 12.589 72.4497 12.3333 71.75 12.3333H56.25C55.5503 12.3333 54.9449 12.589 54.4336 13.1003C53.9223 13.6115 53.6667 14.217 53.6667 14.9167V40.75C53.6667 41.4497 53.9223 42.0551 54.4336 42.5664C54.9449 43.0777 55.5503 43.3333 56.25 43.3333H71.75C72.4497 43.3333 73.0551 43.0777 73.5664 42.5664C74.0777 42.0551 74.3333 41.4497 74.3333 40.75ZM126 43.3333V118.25C126 120.403 125.247 122.233 123.74 123.74C122.233 125.247 120.403 126 118.25 126H9.75C7.59722 126 5.76736 125.247 4.26042 123.74C2.75347 122.233 2 120.403 2 118.25V9.75C2 7.59722 2.75347 5.76736 4.26042 4.26042C5.76736 2.75347 7.59722 2 9.75 2H84.6667C86.8194 2 89.1875 2.53819 91.7708 3.61458C94.3542 4.69097 96.3993 5.98264 97.9062 7.48958L120.51 30.0938C122.017 31.6007 123.309 33.6458 124.385 36.2292C125.462 38.8125 126 41.1806 126 43.3333Z" fill="url(#paint1_linear)"/>
<defs>
<linearGradient id="paint0_linear" x1="42.9625" y1="118.924" x2="80.4873" y2="68.6699" gradientUnits="userSpaceOnUse">
<stop stop-color="#FE0844"/>
<stop offset="1" stop-color="#FEB302"/>
</linearGradient>
<linearGradient id="paint1_linear" x1="2" y1="126" x2="151.622" y2="60.7862" gradientUnits="userSpaceOnUse">
<stop stop-color="#0357D1"/>
<stop offset="1" stop-color="#27CDFC"/>
</linearGradient>
</defs>
</svg>
