<svg width="128" height="128" viewBox="0 0 128 128" fill="none" xmlns="http://www.w3.org/2000/svg">
<path d="M78.5613 16C78.5613 14.8954 79.4567 14 80.5613 14H120C121.105 14 122 14.8954 122 16V24.5C122 25.6046 121.105 26.5 120 26.5H80.5613C79.4567 26.5 78.5613 25.6046 78.5613 24.5V16ZM84.7668 41C84.7668 39.8954 85.6622 39 86.7668 39H120C121.105 39 122 39.8954 122 41V49.5C122 50.6046 121.105 51.5 120 51.5H86.7668C85.6622 51.5 84.7668 50.6046 84.7668 49.5V41ZM97.1779 66C97.1779 64.8954 98.0733 64 99.1779 64H120C121.105 64 122 64.8954 122 66V74.5C122 75.6046 121.105 76.5 120 76.5H99.1779C98.0733 76.5 97.1779 75.6046 97.1779 74.5V66ZM44.6227 14C43.7873 14 43.0399 14.5192 42.7484 15.3021L7.0045 111.302C6.51795 112.609 7.48437 114 8.8788 114H17.8718C18.7072 114 19.4545 113.481 19.746 112.698L30.4118 84.0521C30.7033 83.2692 31.4507 82.75 32.2861 82.75H68.9929C69.8283 82.75 70.5757 83.2692 70.8672 84.0521L81.5329 112.698C81.8244 113.481 82.5718 114 83.4072 114H92.4002C93.7946 114 94.761 112.609 94.2745 111.302L58.5306 15.3021C58.2391 14.5193 57.4917 14 56.6563 14H44.6227ZM38.4234 70.25C37.0289 70.25 36.0625 68.8589 36.5491 67.5521L48.7621 34.7524C49.4086 33.0163 51.8642 33.0163 52.5107 34.7524L64.7237 67.5521C65.2103 68.8589 64.2438 70.25 62.8494 70.25H38.4234Z" fill="url(#paint0_linear_660_42)" stroke="url(#paint1_linear_660_42)" stroke-width="3"/>
<defs>
<linearGradient id="paint0_linear_660_42" x1="6" y1="114" x2="138.651" y2="46.9327" gradientUnits="userSpaceOnUse">
<stop stop-color="#0357D1"/>
<stop offset="1" stop-color="#27CDFC"/>
</linearGradient>
<linearGradient id="paint1_linear_660_42" x1="6" y1="114" x2="138.651" y2="46.9327" gradientUnits="userSpaceOnUse">
<stop stop-color="#0357D1"/>
<stop offset="1" stop-color="#27CDFC"/>
</linearGradient>
</defs>
</svg>
