<svg width="256" height="256" viewBox="0 0 256 256" fill="none" xmlns="http://www.w3.org/2000/svg">
<path d="M231 128C231 184.885 184.885 231 128 231C71.1147 231 25 184.885 25 128C25 71.1147 71.1147 25 128 25C184.885 25 231 71.1147 231 128Z" stroke="url(#paint0_linear)" stroke-width="18"/>
<path d="M123.366 96.1047L123.369 96.1033M122.987 142.063L122.986 142.064M79.4091 173.737L79.4105 173.738M61.2322 135.084L61.2332 135.085M194.791 86.8705L196.735 87.1851C196.895 87.2109 197.059 87.1976 197.212 87.1464L199.078 86.5229L218.058 80.182C218.515 80.0293 219.017 80.2241 219.247 80.6476C226.945 94.8221 231 110.701 231 126.735C231 138.126 229.007 149.3 225.08 159.964C222.409 167.211 218.89 174.112 214.567 180.576C214.026 181.385 212.793 180.995 212.793 180.022V158.228V155.172C212.793 154.915 212.695 154.668 212.518 154.482L210.394 152.251L192.173 133.112C191.996 132.926 191.897 132.679 191.897 132.422V123.184V119.012C191.897 118.672 191.725 118.356 191.44 118.172L187.894 115.879L182.386 112.317L179.513 110.458C179.282 110.309 179 110.261 178.733 110.326L175.393 111.137L166.004 113.416C165.595 113.515 165.167 113.348 164.935 112.997L157.738 102.152L156.014 99.5531C155.872 99.3399 155.655 99.189 155.405 99.1315L152.332 98.4229L131.939 93.7233C131.028 93.5135 130.877 92.2813 131.71 91.8576L166.372 74.2136C166.819 73.9861 167.365 74.1249 167.65 74.5382L171.653 80.3603L173.552 83.1222C173.707 83.3472 173.947 83.4991 174.216 83.5427L177.562 84.084L194.791 86.8705ZM98.9201 139.541L100.663 141.4C100.806 141.553 100.995 141.657 101.202 141.697L103.724 142.187L117.788 144.917C118.582 145.071 118.874 146.053 118.294 146.616L110.465 154.214L108.122 156.487C107.928 156.675 107.819 156.934 107.819 157.205V160.439V166.571C107.819 166.891 107.666 167.192 107.407 167.38L96.9797 174.966L93.7902 177.286C93.5315 177.474 93.3785 177.775 93.3785 178.095V181.996V187.301C93.3785 188.229 92.2245 188.657 91.6199 187.953L80.2331 174.696C80.0773 174.515 79.9917 174.284 79.9917 174.045V157.384V154.212C79.9917 153.946 79.886 153.691 79.6979 153.504L77.4324 151.244L62.2328 136.082C62.0448 135.895 61.9391 135.64 61.9391 135.374V123.184V123.137C61.9391 122.59 62.379 122.144 62.9263 122.137L66.9571 122.085L81.9331 121.893C82.214 121.889 82.4835 122.004 82.6756 122.209L98.9201 139.541ZM58.0131 112.471L57.8476 114.089C57.7716 114.832 56.9371 115.232 56.3098 114.827L40.1721 104.39C39.9838 104.269 39.8419 104.087 39.7692 103.875L34.1287 87.4304C34.046 87.1894 34.0583 86.9258 34.1643 86.6941C44.6288 63.8137 64.0681 45.146 87.827 35.2147C88.148 35.0805 88.516 35.1251 88.797 35.3303L110.958 51.5103C111.598 51.9774 111.467 52.9674 110.727 53.2514L97.3502 58.3889L94.3917 59.5251C94.1504 59.6178 93.9543 59.8003 93.8446 60.0344L92.5164 62.8705L87.3788 73.8407C87.2815 74.0483 87.1158 74.2163 86.9094 74.3163L65.0274 84.9263L61.1131 86.8242C60.8012 86.9754 60.5899 87.2774 60.5546 87.6223L60.118 91.8909L58.0131 112.471Z" stroke="url(#paint1_linear)" stroke-width="18"/>
<defs>
<linearGradient id="paint0_linear" x1="128" y1="231" x2="128" y2="25" gradientUnits="userSpaceOnUse">
<stop stop-color="#5570FF"/>
<stop offset="1" stop-color="#4DD3FF"/>
</linearGradient>
<linearGradient id="paint1_linear" x1="132.5" y1="190" x2="132.5" y2="35" gradientUnits="userSpaceOnUse">
<stop stop-color="#5570FF"/>
<stop offset="1" stop-color="#4DD3FF"/>
</linearGradient>
</defs>
</svg>
