<svg width="64" height="64" viewBox="0 0 64 64" fill="none" xmlns="http://www.w3.org/2000/svg">
<g clip-path="url(#clip0)">
<path d="M22.8452 2.43486C30.1716 0.0978952 38.3698 0.636558 45.3232 3.89754C46.5345 4.44034 47.423 5.96517 46.6812 7.21238C46.2411 8.13639 45.21 8.48445 44.2879 8.72892C40.6666 6.93062 36.6346 5.77871 32.5607 5.86572C23.9056 5.57153 15.326 10.0176 10.4976 17.0989C4.89385 24.9095 4.36574 35.8444 9.03905 44.206C12.5765 50.6783 19.0311 55.5097 26.303 57.1008C33.0343 58.5759 40.3649 57.395 46.1824 53.6989C50.5539 50.9559 54.0621 46.9076 56.1787 42.242C59.2802 35.2767 59.1168 26.9481 55.6506 20.1486C55.0596 19.1085 54.1165 17.8572 54.9171 16.6597C55.6967 14.9277 58.3707 14.9898 59.2341 16.6265C62.8428 22.9745 64.3308 30.6732 62.6333 37.8167C60.4035 49.5347 50.5917 59.388 38.7806 61.783C35.3898 62.4999 31.8733 63.0592 28.4364 62.3134C21.2777 61.4805 14.4752 58.0994 9.53363 52.9199C5.38423 48.6024 2.51319 43.0541 1.52404 37.1744C-0.144101 28.7382 2.24913 19.6886 7.58048 12.9346C11.4281 8.00794 16.8307 4.28703 22.8452 2.43486Z" fill="url(#paint0_linear)" stroke="url(#paint1_linear)" stroke-width="3"/>
<path d="M29.0733 18.3683C29.0988 15.2601 32.4981 13.8568 34.0501 16.0994C34.6658 17.083 34.8847 18.3617 34.905 19.6011C34.9712 25.8766 34.8389 32.152 34.9203 38.421C37.083 36.5062 39.3475 34.7881 41.5356 32.9258C42.4974 32.1324 43.6576 31.2668 44.8382 31.7586C46.5124 32.2045 47.5149 34.8996 46.7261 36.8669C46.319 38.0603 45.4234 38.7357 44.6143 39.4177C40.986 42.3817 37.3578 45.3522 33.7346 48.3293C32.6558 49.2342 31.0529 49.2735 30.0656 48.1391C26.4527 44.6505 22.6208 41.5489 19.0129 38.0538C17.4914 36.4865 17.7051 32.9848 19.5116 31.9357C20.6006 31.1094 21.9593 31.5291 22.9363 32.4275C24.9718 34.2504 27.0124 36.0668 29.0377 37.916C29.0632 31.3979 28.9767 24.8798 29.0733 18.3683Z" fill="url(#paint2_linear)"/>
</g>
<defs>
<linearGradient id="paint0_linear" x1="10.1285" y1="53.6358" x2="53.7309" y2="9.56206" gradientUnits="userSpaceOnUse">
<stop stop-color="#0072FF"/>
<stop offset="1" stop-color="#00E5A1"/>
</linearGradient>
<linearGradient id="paint1_linear" x1="10.1285" y1="53.6358" x2="53.7309" y2="9.56206" gradientUnits="userSpaceOnUse">
<stop stop-color="#0072FF"/>
<stop offset="1" stop-color="#00E5A1"/>
</linearGradient>
<linearGradient id="paint2_linear" x1="22.247" y1="44.0208" x2="45.9876" y2="23.7714" gradientUnits="userSpaceOnUse">
<stop stop-color="#0072FF"/>
<stop offset="1" stop-color="#00E5A1"/>
</linearGradient>
<clipPath id="clip0">
<rect width="64" height="64" fill="white"/>
</clipPath>
</defs>
</svg>
