<svg width="64" height="64" viewBox="0 0 64 64" fill="none" xmlns="http://www.w3.org/2000/svg">
<path fill-rule="evenodd" clip-rule="evenodd" d="M10.5193 4.32702C11.5077 4.05345 12.5424 3.9966 13.5628 4.00015C19.6129 4.00871 25.6629 4.00655 31.7126 4.0044C38.2274 4.00208 44.7418 3.99976 51.2552 4.01081C55.849 3.96462 59.9877 8.02202 59.9841 12.6194C59.9957 19.3397 59.9947 26.0599 59.9936 32.7796C59.9927 38.3838 59.9919 43.9876 59.9983 49.5907C59.9979 49.7589 59.9985 49.9276 59.9991 50.0965V50.097C60.0032 51.234 60.0073 52.3831 59.6854 53.4812C58.8499 56.5828 56.1938 59.1018 53.0508 59.7662C52.0303 60.0087 50.9798 60.0036 49.9351 59.9986H49.9351C49.7859 59.9978 49.6369 59.9971 49.4881 59.9971C44.2051 59.988 38.9221 59.9906 33.6391 59.9932H33.634C26.5881 59.9967 19.5421 60.0002 12.4962 59.9758C7.99127 59.8834 4.02328 55.8899 4.00905 51.3778C3.99483 38.456 3.99839 25.5306 4.01261 12.6088C4.0375 8.80721 6.84994 5.27919 10.5193 4.32702ZM12.2793 8.24585C9.96816 8.48388 8.12994 10.6405 8.19749 12.9534C8.20381 18.5877 8.1989 24.2234 8.19398 29.8599C8.18784 36.905 8.18169 43.9514 8.19749 50.9977C8.08727 53.5273 10.3024 55.8367 12.8482 55.7692C21.8046 55.7867 30.761 55.7831 39.7174 55.7794C43.4508 55.7778 47.1841 55.7763 50.9174 55.7763C53.5201 55.9361 55.9095 53.6339 55.7956 51.0225C55.8024 45.0944 55.8011 39.1654 55.7998 33.2364C55.7984 26.725 55.797 20.2135 55.8063 13.703C56.2329 10.8466 53.8187 8.00425 50.889 8.19966C45.9613 8.2119 41.0325 8.20539 36.1035 8.19888H36.1035C28.1616 8.18838 20.2191 8.17789 12.2793 8.24585ZM13.6594 15.8794C13.5118 14.4368 15.1974 14.4804 16.2897 14.5087C16.3429 14.5101 16.3947 14.5114 16.4448 14.5125C16.5675 14.5172 16.7032 14.5173 16.846 14.5175C17.7036 14.5186 18.8176 14.52 18.9208 15.49C19.0143 19.1805 19.0233 22.8726 19.0323 26.5653V26.5655C19.0374 28.6435 19.0425 30.7217 19.0626 32.7999C20.7261 32.808 22.3896 32.812 24.0532 32.808C24.5292 31.8975 25.0057 30.9879 25.482 30.0785L25.4826 30.0776C26.4298 28.2694 27.3764 26.4625 28.3172 24.6519L28.3185 24.6496C28.7223 23.8956 29.2166 22.9727 30.2258 22.8714C31.3434 22.7498 32.4911 22.7335 33.6087 22.8998C34.3351 23.0418 34.434 23.9016 34.1331 24.4288C33.2692 26.1677 32.3482 27.8805 31.4272 29.5932C30.46 31.3918 29.4929 33.1901 28.5923 35.0183C29.5723 37.0323 30.7116 38.9782 31.851 40.9243L31.8511 40.9244C32.5358 42.0939 33.2206 43.2635 33.8708 44.4479C34.0463 44.8054 34.2617 45.1539 34.4777 45.5036L34.4778 45.5037C34.9604 46.2847 35.4466 47.0716 35.5 47.9765C35.2566 48.5769 34.6221 48.588 34.0358 48.5983H34.0357C33.8973 48.6007 33.7616 48.6031 33.6344 48.6132C33.4305 48.6104 33.225 48.6128 33.0189 48.6151H33.0186C32.33 48.623 31.6353 48.631 30.9737 48.4469C30.3259 48.0876 29.9506 47.4542 29.5924 46.8496C29.5744 46.8193 29.5565 46.7891 29.5386 46.759C29.5226 46.7321 29.5067 46.7053 29.4907 46.6786C28.3608 44.6512 27.2155 42.6302 26.0709 40.6105L26.0707 40.6101C25.3997 39.426 24.7289 38.2425 24.0617 37.0584C23.62 37.0573 23.1784 37.0574 22.7367 37.0575C21.5191 37.0577 20.3016 37.0579 19.084 37.0341C18.965 38.6086 19.0002 40.1901 19.0354 41.7705C19.0854 44.0126 19.1353 46.2524 18.7445 48.4672C18.5393 48.482 18.3332 48.4985 18.1265 48.5149L18.126 48.515C16.809 48.6199 15.468 48.7268 14.1752 48.4428C13.6367 48.0389 13.637 47.4089 13.6372 46.8054V46.8053C13.6373 46.6333 13.6374 46.4634 13.625 46.3015C13.6399 41.9015 13.6362 37.5008 13.6325 33.1001V33.1C13.6277 27.3595 13.6229 21.6188 13.6594 15.8794ZM36.4581 45.3162C36.8767 45.7721 37.3836 46 37.9789 46C38.5741 46 39.0868 45.7674 39.5207 45.3046C39.9547 44.8396 40.1697 44.287 40.1697 43.6469C40.1697 42.9884 39.9566 42.4335 39.5323 41.9753C39.106 41.5126 38.5875 41.28 37.9789 41.28C37.3702 41.28 36.8595 41.5079 36.4485 41.9638C36.0376 42.4128 35.8321 42.9723 35.8321 43.6469C35.8321 44.2939 36.0395 44.8511 36.4581 45.3162ZM41.4485 45.7836H52.5718V41.4965H41.4485V45.7836ZM35.5 38.0957H52.5718V33.8085H35.5V38.0957ZM44.058 23.0101C44.4401 22.5611 44.947 22.2963 45.5787 22.2158V27.1292C44.8798 26.9933 44.3595 26.7217 44.0138 26.3118C43.6624 25.895 43.4858 25.3402 43.4858 24.6426C43.4858 23.9932 43.6759 23.4499 44.058 23.0101ZM47.7907 27.2259V18H47.6045C45.5845 18 43.9946 18.5802 42.8349 19.7429C41.6751 20.9033 41.0953 22.4898 41.0953 24.4998C41.0953 26.4522 41.6674 28.0709 42.8138 29.351C43.9581 30.6243 45.3983 31.262 47.1301 31.262C48.8928 31.262 50.3138 30.6243 51.3929 29.351C52.4643 28.0709 53 26.3717 53 24.258C53 22.8421 52.7696 21.6447 52.3068 20.6662C51.8441 19.69 51.1874 19.0084 50.3348 18.624L49.6628 21.8451C49.9359 21.9881 49.969 22.1737 50.0096 22.4014C50.0344 22.5403 50.062 22.6949 50.1486 22.8651C50.3675 23.3049 50.4789 23.8505 50.4789 24.4998C50.4789 25.3632 50.2465 26.0332 49.7838 26.5053C49.3153 26.9772 48.6509 27.2166 47.7907 27.2259Z" fill="url(#paint0_linear_678_407)"/>
<path d="M13.5628 4.00015L13.561 4.50015L13.5621 4.50015L13.5628 4.00015ZM10.5193 4.32702L10.6449 4.81105L10.6526 4.8089L10.5193 4.32702ZM31.7126 4.0044L31.7124 3.5044L31.7126 4.0044ZM51.2552 4.01081L51.2544 4.51085L51.2603 4.51079L51.2552 4.01081ZM59.9841 12.6194L59.4841 12.6191L59.4841 12.6203L59.9841 12.6194ZM59.9936 32.7796L60.4936 32.7796L60.4936 32.7796L59.9936 32.7796ZM59.9983 49.5907L60.4983 49.5921L60.4983 49.5902L59.9983 49.5907ZM59.9991 50.0965L60.4991 50.0965L60.4991 50.0947L59.9991 50.0965ZM59.9991 50.097L59.4991 50.097L59.4991 50.0988L59.9991 50.097ZM59.6854 53.4812L59.2055 53.3405L59.2026 53.3511L59.6854 53.4812ZM53.0508 59.7662L52.9473 59.2769L52.9352 59.2797L53.0508 59.7662ZM49.9351 59.9986L49.9375 59.4986H49.9351V59.9986ZM49.9351 59.9986L49.9327 60.4986H49.9351V59.9986ZM49.4881 59.9971L49.4872 60.4971H49.4881V59.9971ZM33.6391 59.9932L33.6391 60.4932L33.6394 60.4932L33.6391 59.9932ZM33.634 59.9932L33.634 59.4932L33.6338 59.4932L33.634 59.9932ZM12.4962 59.9758L12.4859 60.4757L12.4944 60.4758L12.4962 59.9758ZM4.00905 51.3778L3.50905 51.3784L3.50906 51.3794L4.00905 51.3778ZM4.01261 12.6088L3.51261 12.6055L3.51261 12.6082L4.01261 12.6088ZM8.19749 12.9534L8.69769 12.9529L8.69728 12.9388L8.19749 12.9534ZM12.2793 8.24585L12.275 7.74587L12.2515 7.74607L12.228 7.74848L12.2793 8.24585ZM8.19398 29.8599L7.69398 29.8595L7.69398 29.8595L8.19398 29.8599ZM8.19749 50.9977L8.69701 51.0194L8.69751 51.008L8.69749 50.9965L8.19749 50.9977ZM12.8482 55.7692L12.8492 55.2692L12.842 55.2692L12.8349 55.2694L12.8482 55.7692ZM39.7174 55.7794L39.7172 55.2794L39.7172 55.2794L39.7174 55.7794ZM50.9174 55.7763L50.9481 55.2772L50.9328 55.2763H50.9174V55.7763ZM55.7956 51.0225L55.2956 51.0219L55.2956 51.0331L55.2961 51.0443L55.7956 51.0225ZM55.7998 33.2364L55.2998 33.2365L55.2998 33.2365L55.7998 33.2364ZM55.8063 13.703L55.3118 13.6292L55.3064 13.6656L55.3063 13.7023L55.8063 13.703ZM50.889 8.19966L50.8902 8.69966L50.9062 8.69962L50.9222 8.69855L50.889 8.19966ZM36.1035 8.19888L36.1041 7.69888H36.1035V8.19888ZM36.1035 8.19888L36.1028 8.69888H36.1035V8.19888ZM16.2897 14.5087L16.3026 14.0089L16.3026 14.0089L16.2897 14.5087ZM13.6594 15.8794L14.1594 15.8825L14.1595 15.8554L14.1568 15.8285L13.6594 15.8794ZM16.4448 14.5125L16.4636 14.0128L16.456 14.0127L16.4448 14.5125ZM16.846 14.5175L16.8467 14.0175L16.8467 14.0175L16.846 14.5175ZM18.9208 15.49L19.4206 15.4773L19.4201 15.4572L19.418 15.4371L18.9208 15.49ZM19.0323 26.5653L19.5323 26.5653L19.5323 26.5641L19.0323 26.5653ZM19.0323 26.5655L18.5323 26.5655L18.5323 26.5668L19.0323 26.5655ZM19.0626 32.7999L18.5626 32.8047L18.5674 33.2974L19.0602 33.2998L19.0626 32.7999ZM24.0532 32.808L24.0544 33.308L24.3564 33.3073L24.4963 33.0396L24.0532 32.808ZM25.482 30.0785L25.9249 30.3106L25.9251 30.3104L25.482 30.0785ZM25.4826 30.0776L25.0396 29.8455L25.0395 29.8457L25.4826 30.0776ZM28.3172 24.6519L27.8766 24.4154L27.8735 24.4214L28.3172 24.6519ZM28.3185 24.6496L28.759 24.8861L28.7592 24.8857L28.3185 24.6496ZM30.2258 22.8714L30.2757 23.3689L30.2799 23.3685L30.2258 22.8714ZM33.6087 22.8998L33.7046 22.4091L33.6935 22.407L33.6823 22.4053L33.6087 22.8998ZM34.1331 24.4288L33.6988 24.181L33.6917 24.1935L33.6853 24.2064L34.1331 24.4288ZM31.4272 29.5932L31.8675 29.83L31.8675 29.83L31.4272 29.5932ZM28.5923 35.0183L28.1438 34.7974L28.0356 35.017L28.1427 35.2371L28.5923 35.0183ZM31.851 40.9243L32.2834 40.6732L32.2825 40.6716L31.851 40.9243ZM31.8511 40.9244L31.4187 41.1754L31.4196 41.177L31.8511 40.9244ZM33.8708 44.4479L34.3197 44.2276L34.3146 44.2173L34.3091 44.2073L33.8708 44.4479ZM34.4777 45.5036L34.0524 45.7664L34.0569 45.7738L34.0617 45.781L34.4777 45.5036ZM34.4778 45.5037L34.9031 45.2409L34.8986 45.2335L34.8938 45.2263L34.4778 45.5037ZM35.5 47.9765L35.9634 48.1643L36.0058 48.0597L35.9991 47.947L35.5 47.9765ZM34.0358 48.5983V49.0984L34.0446 49.0982L34.0358 48.5983ZM34.0357 48.5983V48.0982L34.0269 48.0984L34.0357 48.5983ZM33.6344 48.6132L33.6275 49.1132L33.6507 49.1135L33.6739 49.1116L33.6344 48.6132ZM33.0189 48.6151V49.1152L33.0247 49.1151L33.0189 48.6151ZM33.0186 48.6151V48.1151L33.0129 48.1152L33.0186 48.6151ZM30.9737 48.4469L30.7312 48.8841L30.7828 48.9127L30.8396 48.9285L30.9737 48.4469ZM29.5924 46.8496L29.1622 47.1045L29.1622 47.1045L29.5924 46.8496ZM29.5386 46.759L29.9684 46.5035L29.9684 46.5035L29.5386 46.759ZM29.4907 46.6786L29.0539 46.922L29.0577 46.9288L29.0618 46.9355L29.4907 46.6786ZM26.0709 40.6105L25.6343 40.8542L25.6359 40.8571L26.0709 40.6105ZM26.0707 40.6101L26.5073 40.3664L26.5057 40.3635L26.0707 40.6101ZM24.0617 37.0584L24.4973 36.8129L24.3543 36.5591L24.063 36.5584L24.0617 37.0584ZM22.7367 37.0575L22.7368 37.5575L22.7368 37.5575L22.7367 37.0575ZM19.084 37.0341L19.0938 36.5342L18.6211 36.5249L18.5855 36.9964L19.084 37.0341ZM19.0354 41.7705L18.5356 41.7816L18.5356 41.7816L19.0354 41.7705ZM18.7445 48.4672L18.7806 48.9659L19.1692 48.9377L19.2369 48.554L18.7445 48.4672ZM18.1265 48.5149L18.1611 49.0138L18.1662 49.0133L18.1265 48.5149ZM18.126 48.515L18.0914 48.0161L18.0863 48.0165L18.126 48.515ZM14.1752 48.4428L13.8752 48.8428L13.962 48.9079L14.0679 48.9312L14.1752 48.4428ZM13.6372 46.8054L14.1372 46.8056V46.8054H13.6372ZM13.6372 46.8053L13.1372 46.8051V46.8053H13.6372ZM13.625 46.3015L13.125 46.2998L13.1249 46.3197L13.1265 46.3396L13.625 46.3015ZM13.6325 33.1001H13.1325L13.1325 33.1005L13.6325 33.1001ZM13.6325 33.1L14.1325 33.1L14.1325 33.0996L13.6325 33.1ZM36.4581 45.3162L36.0865 45.6507L36.0898 45.6544L36.4581 45.3162ZM39.5207 45.3046L39.8855 45.6466L39.8863 45.6458L39.5207 45.3046ZM39.5323 41.9753L39.1645 42.3141L39.1654 42.3151L39.5323 41.9753ZM36.4485 41.9638L36.8174 42.3014L36.8199 42.2986L36.4485 41.9638ZM52.5718 45.7836V46.2836H53.0718V45.7836H52.5718ZM41.4485 45.7836H40.9485V46.2836H41.4485V45.7836ZM52.5718 41.4965H53.0718V40.9965H52.5718V41.4965ZM41.4485 41.4965V40.9965H40.9485V41.4965H41.4485ZM52.5718 38.0957V38.5957H53.0718V38.0957H52.5718ZM35.5 38.0957H35V38.5957H35.5V38.0957ZM52.5718 33.8085H53.0718V33.3085H52.5718V33.8085ZM35.5 33.8085V33.3085H35V33.8085H35.5ZM45.5787 22.2158H46.0787V21.6479L45.5154 21.7198L45.5787 22.2158ZM44.058 23.0101L44.4355 23.338L44.4388 23.3341L44.058 23.0101ZM45.5787 27.1292L45.4833 27.62L46.0787 27.7358V27.1292H45.5787ZM44.0138 26.3118L43.6316 26.6341L43.6316 26.6341L44.0138 26.3118ZM47.7907 18H48.2907V17.5H47.7907V18ZM47.7907 27.2259H47.2907V27.7313L47.7961 27.7259L47.7907 27.2259ZM42.8349 19.7429L43.1885 20.0964L43.1889 20.096L42.8349 19.7429ZM42.8138 29.351L42.4413 29.6846L42.4419 29.6852L42.8138 29.351ZM51.3929 29.351L51.7743 29.6743L51.7763 29.6719L51.3929 29.351ZM52.3068 20.6662L52.7588 20.4524L52.7586 20.4521L52.3068 20.6662ZM50.3348 18.624L50.5404 18.1682L49.9726 17.9121L49.8454 18.5218L50.3348 18.624ZM49.6628 21.8451L49.1734 21.743L49.0962 22.1128L49.4309 22.2881L49.6628 21.8451ZM50.0096 22.4014L49.5174 22.4892L49.5174 22.4892L50.0096 22.4014ZM50.1486 22.8651L50.5963 22.6423L50.5942 22.6383L50.1486 22.8651ZM49.7838 26.5053L50.1386 26.8575L50.1408 26.8553L49.7838 26.5053ZM13.5645 3.50016C12.5288 3.49655 11.4403 3.55332 10.3859 3.84513L10.6526 4.8089C11.5752 4.55357 12.5559 4.49665 13.561 4.50015L13.5645 3.50016ZM31.7124 3.5044C25.6627 3.50655 19.613 3.50871 13.5635 3.50015L13.5621 4.50015C19.6127 4.50871 25.6632 4.50655 31.7128 4.5044L31.7124 3.5044ZM51.2561 3.51081C44.7421 3.49976 38.2272 3.50208 31.7124 3.5044L31.7128 4.5044C38.2277 4.50208 44.7416 4.49976 51.2544 4.51081L51.2561 3.51081ZM60.4841 12.6198C60.4879 7.74107 56.1191 3.46188 51.2502 3.51084L51.2603 4.51079C55.5789 4.46737 59.4874 8.30297 59.4841 12.6191L60.4841 12.6198ZM60.4936 32.7796C60.4947 26.0601 60.4957 19.3393 60.4841 12.6186L59.4841 12.6203C59.4957 19.34 59.4947 26.0597 59.4936 32.7795L60.4936 32.7796ZM60.4983 49.5902C60.4919 43.9874 60.4927 38.3839 60.4936 32.7796L59.4936 32.7795C59.4927 38.3837 59.4919 43.9878 59.4983 49.5913L60.4983 49.5902ZM60.4991 50.0947C60.4985 49.9255 60.4979 49.7584 60.4983 49.5921L59.4983 49.5894C59.4979 49.7594 59.4985 49.9297 59.4991 50.0983L60.4991 50.0947ZM60.4991 50.097V50.0965H59.4991V50.097H60.4991ZM60.1652 53.6218C60.511 52.4423 60.5031 51.2193 60.4991 50.0952L59.4991 50.0988C59.5032 51.2487 59.5037 52.3239 59.2056 53.3405L60.1652 53.6218ZM53.1542 60.2554C56.4816 59.552 59.2839 56.8939 60.1682 53.6112L59.2026 53.3511C58.4159 56.2716 55.9061 58.6516 52.9473 59.277L53.1542 60.2554ZM49.9327 60.4985C50.967 60.5036 52.0779 60.5113 53.1663 60.2527L52.9352 59.2797C51.9826 59.5061 50.9926 59.5037 49.9375 59.4986L49.9327 60.4985ZM49.9351 60.4986H49.9351V59.4986H49.9351V60.4986ZM49.4881 60.4971C49.6355 60.4971 49.7833 60.4978 49.9327 60.4985L49.9375 59.4986C49.7886 59.4978 49.6383 59.4971 49.4881 59.4971V60.4971ZM33.6394 60.4932C38.9225 60.4906 44.2049 60.488 49.4872 60.4971L49.489 59.4971C44.2053 59.488 38.9218 59.4906 33.6389 59.4932L33.6394 60.4932ZM33.634 60.4932H33.6391V59.4932H33.634V60.4932ZM12.4944 60.4758C19.5415 60.5002 26.5885 60.4967 33.6343 60.4932L33.6338 59.4932C26.5876 59.4967 19.5427 59.5002 12.4979 59.4758L12.4944 60.4758ZM3.50906 51.3794C3.52414 56.1661 7.71255 60.3778 12.4859 60.4757L12.5064 59.4759C8.26998 59.3891 4.52241 55.6138 4.50905 51.3763L3.50906 51.3794ZM3.51261 12.6082C3.49839 25.5303 3.49483 38.4561 3.50905 51.3784L4.50905 51.3773C4.49483 38.4559 4.49839 25.5309 4.51261 12.6093L3.51261 12.6082ZM10.3937 3.84305C6.51023 4.85078 3.53903 8.57208 3.51262 12.6055L4.5126 12.6121C4.53597 9.04233 7.18964 5.7076 10.6449 4.81099L10.3937 3.84305ZM8.69728 12.9388C8.63716 10.8806 10.287 8.9537 12.3305 8.74322L12.228 7.74848C9.64936 8.01407 7.62271 10.4004 7.6977 12.968L8.69728 12.9388ZM8.69398 29.8604C8.6989 24.224 8.70381 18.5878 8.69749 12.9529L7.69749 12.954C7.70381 18.5877 7.6989 24.2229 7.69398 29.8595L8.69398 29.8604ZM8.69749 50.9965C8.68169 43.9511 8.68784 36.9056 8.69398 29.8604L7.69398 29.8595C7.68784 36.9045 7.68169 43.9516 7.69749 50.9988L8.69749 50.9965ZM12.8349 55.2694C10.5857 55.329 8.59913 53.2662 8.69701 51.0194L7.69796 50.9759C7.57542 53.7884 10.0191 56.3443 12.8614 56.269L12.8349 55.2694ZM39.7172 55.2794C30.7607 55.2831 21.8049 55.2867 12.8492 55.2692L12.8472 56.2692C21.8043 56.2867 30.7613 56.2831 39.7177 56.2794L39.7172 55.2794ZM50.9174 55.2763C47.184 55.2763 43.4505 55.2778 39.7172 55.2794L39.7177 56.2794C43.451 56.2778 47.1842 56.2763 50.9174 56.2763V55.2763ZM55.2961 51.0443C55.3968 53.3533 53.2603 55.4193 50.9481 55.2772L50.8868 56.2753C53.7799 56.453 56.4222 53.9146 56.2951 51.0007L55.2961 51.0443ZM55.2998 33.2365C55.3011 39.1656 55.3024 45.0942 55.2956 51.0219L56.2956 51.0231C56.3024 45.0945 56.3011 39.1652 56.2998 33.2363L55.2998 33.2365ZM55.3063 13.7023C55.297 20.2133 55.2984 26.7252 55.2998 33.2365L56.2998 33.2363C56.2984 26.7248 56.297 20.2138 56.3063 13.7038L55.3063 13.7023ZM50.9222 8.69855C53.5087 8.52605 55.6951 11.0631 55.3118 13.6292L56.3008 13.7769C56.7708 10.63 54.1288 7.48246 50.8557 7.70077L50.9222 8.69855ZM36.1028 8.69888C41.0317 8.70539 45.9614 8.7119 50.8902 8.69966L50.8877 7.69966C45.9611 7.7119 41.0333 7.70539 36.1041 7.69888L36.1028 8.69888ZM36.1035 8.69888H36.1035V7.69888H36.1035V8.69888ZM12.2835 8.74583C20.2205 8.67789 28.1605 8.68838 36.1028 8.69888L36.1041 7.69888C28.1627 7.68838 20.2177 7.67788 12.275 7.74587L12.2835 8.74583ZM16.3026 14.0089C15.7792 13.9953 14.9957 13.9699 14.3626 14.1646C14.0365 14.2648 13.6996 14.4375 13.4599 14.7456C13.2115 15.0647 13.1147 15.4679 13.162 15.9303L14.1568 15.8285C14.1303 15.5695 14.1888 15.4372 14.2491 15.3597C14.318 15.2712 14.4431 15.186 14.6565 15.1204C15.1024 14.9833 15.7079 14.9938 16.2767 15.0085L16.3026 14.0089ZM16.456 14.0127C16.4069 14.0115 16.356 14.0102 16.3026 14.0089L16.2767 15.0085C16.3298 15.0099 16.3824 15.0113 16.4335 15.0124L16.456 14.0127ZM16.8467 14.0175C16.7015 14.0173 16.5755 14.0171 16.4636 14.0129L16.4259 15.0122C16.5595 15.0172 16.7049 15.0173 16.8454 15.0175L16.8467 14.0175ZM19.418 15.4371C19.3813 15.0929 19.249 14.8042 19.0327 14.581C18.8232 14.3649 18.563 14.2388 18.3123 14.1622C17.8287 14.0145 17.2555 14.018 16.8467 14.0175L16.8454 15.0175C17.2941 15.0181 17.7066 15.0228 18.0202 15.1186C18.1681 15.1638 18.2593 15.2199 18.3146 15.277C18.363 15.3269 18.4086 15.4021 18.4236 15.5429L19.418 15.4371ZM19.5323 26.5641C19.5233 22.8723 19.5143 19.1745 19.4206 15.4773L18.4209 15.5027C18.5143 19.1864 18.5233 22.8729 18.5323 26.5666L19.5323 26.5641ZM19.5323 26.5655V26.5653H18.5323V26.5655H19.5323ZM19.5626 32.795C19.5425 30.719 19.5374 28.6426 19.5323 26.5643L18.5323 26.5668C18.5374 28.6444 18.5425 30.7244 18.5626 32.8047L19.5626 32.795ZM24.052 32.308C22.39 32.312 20.7277 32.308 19.065 32.2999L19.0602 33.2998C20.7244 33.308 22.3892 33.312 24.0544 33.308L24.052 32.308ZM25.0391 29.8465C24.5628 30.7558 24.0862 31.6656 23.6101 32.5763L24.4963 33.0396C24.9722 32.1293 25.4486 31.2199 25.9249 30.3106L25.0391 29.8465ZM25.0395 29.8457L25.039 29.8467L25.9251 30.3104L25.9256 30.3094L25.0395 29.8457ZM27.8735 24.4214C26.9331 26.231 25.9869 28.0373 25.0396 29.8455L25.9255 30.3096C26.8726 28.5015 27.8196 26.6939 28.7609 24.8825L27.8735 24.4214ZM27.8779 24.4131L27.8767 24.4155L28.7578 24.8884L28.759 24.8861L27.8779 24.4131ZM30.1758 22.3739C29.5116 22.4406 29.0284 22.782 28.6715 23.1835C28.3253 23.5728 28.0744 24.0462 27.8777 24.4135L28.7592 24.8857C28.9663 24.499 29.1645 24.1339 29.4188 23.848C29.6622 23.5742 29.9307 23.4035 30.2757 23.3689L30.1758 22.3739ZM33.6823 22.4053C32.5118 22.2311 31.3197 22.2494 30.1717 22.3743L30.2799 23.3685C31.3671 23.2502 32.4703 23.2359 33.5351 23.3944L33.6823 22.4053ZM34.5673 24.6767C34.7805 24.3032 34.8518 23.8225 34.7399 23.3936C34.6219 22.9412 34.2869 22.5229 33.7046 22.4091L33.5128 23.3906C33.6569 23.4187 33.7346 23.5013 33.7723 23.6461C33.8162 23.8144 33.7866 24.0273 33.6988 24.181L34.5673 24.6767ZM31.8675 29.83C32.7879 28.1185 33.7128 26.3986 34.5809 24.6513L33.6853 24.2064C32.8257 25.9368 31.9084 27.6425 30.9868 29.3564L31.8675 29.83ZM29.0408 35.2393C29.9368 33.4204 30.8996 31.6299 31.8675 29.83L30.9868 29.3564C30.0203 31.1536 29.049 32.9598 28.1438 34.7974L29.0408 35.2393ZM32.2825 40.6716C31.1414 38.7227 30.0121 36.7933 29.0419 34.7996L28.1427 35.2371C29.1325 37.2713 30.2818 39.2337 31.4195 41.1769L32.2825 40.6716ZM32.2835 40.6733L32.2834 40.6732L31.4186 41.1753L31.4187 41.1754L32.2835 40.6733ZM34.3091 44.2073C33.655 43.0158 32.9667 41.8403 32.2826 40.6717L31.4196 41.177C32.1049 42.3475 32.7862 43.5112 33.4325 44.6886L34.3091 44.2073ZM34.9031 45.2408C34.6846 44.8872 34.4826 44.5594 34.3197 44.2276L33.422 44.6683C33.6101 45.0513 33.8387 45.4207 34.0524 45.7664L34.9031 45.2408ZM34.8938 45.2263L34.8938 45.2263L34.0617 45.781L34.0618 45.781L34.8938 45.2263ZM35.9991 47.947C35.937 46.8943 35.3719 45.9995 34.9031 45.2409L34.0524 45.7665C34.5489 46.57 34.9562 47.2488 35.0009 48.0059L35.9991 47.947ZM34.0446 49.0982C34.3207 49.0934 34.6996 49.0903 35.0408 48.9874C35.4147 48.8746 35.7729 48.6342 35.9634 48.1643L35.0366 47.7886C34.9837 47.9192 34.9029 47.9845 34.7521 48.03C34.5687 48.0853 34.3372 48.0929 34.027 48.0984L34.0446 49.0982ZM34.0357 49.0983H34.0358V48.0983H34.0357V49.0983ZM33.6739 49.1116C33.783 49.103 33.9028 49.1007 34.0445 49.0982L34.0269 48.0984C33.8919 48.1008 33.7403 48.1033 33.5949 48.1148L33.6739 49.1116ZM33.0247 49.1151C33.2318 49.1127 33.431 49.1105 33.6275 49.1132L33.6413 48.1132C33.43 48.1103 33.2181 48.1128 33.0132 48.1152L33.0247 49.1151ZM33.0186 49.1151H33.0189V48.1151H33.0186V49.1151ZM30.8396 48.9285C31.5815 49.1351 32.3488 49.1229 33.0244 49.1151L33.0129 48.1152C32.3113 48.1232 31.6892 48.127 31.1078 47.9652L30.8396 48.9285ZM29.1622 47.1045C29.5078 47.6877 29.9455 48.4483 30.7312 48.8841L31.2162 48.0096C30.7063 47.7268 30.3935 47.2208 30.0226 46.5948L29.1622 47.1045ZM29.1088 47.0144C29.1265 47.0442 29.1443 47.0742 29.1622 47.1045L30.0226 46.5948C30.0046 46.5645 29.9865 46.534 29.9684 46.5035L29.1088 47.0144ZM29.0618 46.9355C29.0774 46.9616 29.093 46.9879 29.1088 47.0144L29.9684 46.5035C29.9522 46.4762 29.936 46.4489 29.9196 46.4216L29.0618 46.9355ZM25.6359 40.8571C26.7806 42.877 27.925 44.8964 29.0539 46.922L29.9274 46.4352C28.7965 44.4059 27.6503 42.3834 26.5059 40.364L25.6359 40.8571ZM25.6341 40.8537L25.6343 40.8542L26.5075 40.3669L26.5072 40.3664L25.6341 40.8537ZM23.6261 37.3038C24.2937 38.4886 24.9647 39.6727 25.6356 40.8566L26.5057 40.3635C25.8346 39.1794 25.1642 37.9964 24.4973 36.8129L23.6261 37.3038ZM22.7368 37.5575C23.1786 37.5574 23.6196 37.5573 24.0605 37.5584L24.063 36.5584C23.6205 36.5573 23.1782 36.5574 22.7366 36.5575L22.7368 37.5575ZM19.0743 37.534C20.2976 37.5579 21.52 37.5577 22.7368 37.5575L22.7366 36.5575C21.5182 36.5577 20.3056 36.5579 19.0938 36.5342L19.0743 37.534ZM19.5353 41.7594C19.5 40.1748 19.4657 38.6179 19.5826 37.0718L18.5855 36.9964C18.4642 38.5994 18.5004 40.2054 18.5356 41.7816L19.5353 41.7594ZM19.2369 48.554C19.6377 46.2826 19.5851 43.9931 19.5353 41.7594L18.5356 41.7816C18.5857 44.032 18.6329 46.2223 18.2521 48.3803L19.2369 48.554ZM18.1662 49.0133C18.3732 48.9968 18.5775 48.9806 18.7806 48.9659L18.7084 47.9685C18.5011 47.9835 18.2931 48.0001 18.0868 48.0165L18.1662 49.0133ZM18.1606 49.0138L18.1611 49.0137L18.0919 48.0161L18.0914 48.0162L18.1606 49.0138ZM14.0679 48.9312C15.4459 49.2339 16.8624 49.1173 18.1657 49.0134L18.0863 48.0165C16.7555 48.1226 15.4902 48.2198 14.2825 47.9545L14.0679 48.9312ZM13.1372 46.8051C13.137 47.3564 13.106 48.2658 13.8752 48.8428L14.4752 48.0429C14.1674 47.8119 14.1369 47.4615 14.1372 46.8056L13.1372 46.8051ZM13.1372 46.8053V46.8054H14.1372V46.8053H13.1372ZM13.1265 46.3396C13.1371 46.479 13.1373 46.6291 13.1372 46.8051L14.1372 46.8055C14.1373 46.6374 14.1377 46.4478 14.1235 46.2633L13.1265 46.3396ZM13.1325 33.1005C13.1362 37.5014 13.1399 41.9011 13.125 46.2998L14.125 46.3031C14.1399 41.902 14.1362 37.5002 14.1325 33.0996L13.1325 33.1005ZM13.1325 33.1V33.1001H14.1325V33.1H13.1325ZM13.1594 15.8762C13.1229 21.6177 13.1277 27.3602 13.1325 33.1004L14.1325 33.0996C14.1277 27.3587 14.1229 21.6199 14.1594 15.8825L13.1594 15.8762ZM37.9789 45.5C37.5298 45.5 37.1546 45.3354 36.8264 44.978L36.0898 45.6544C36.5989 46.2087 37.2374 46.5 37.9789 46.5V45.5ZM39.156 44.9626C38.8088 45.333 38.4249 45.5 37.9789 45.5V46.5C38.7234 46.5 39.3648 46.2019 39.8855 45.6466L39.156 44.9626ZM39.6697 43.6469C39.6697 44.1624 39.5014 44.5925 39.1552 44.9635L39.8863 45.6458C40.408 45.0867 40.6697 44.4116 40.6697 43.6469H39.6697ZM39.1654 42.3151C39.5 42.6763 39.6697 43.1081 39.6697 43.6469H40.6697C40.6697 42.8687 40.4132 42.1907 39.8991 41.6356L39.1654 42.3151ZM37.9789 41.78C38.4421 41.78 38.829 41.9498 39.1645 42.3141L39.9 41.6366C39.383 41.0753 38.7329 40.78 37.9789 40.78V41.78ZM36.8199 42.2986C37.1368 41.9471 37.5129 41.78 37.9789 41.78V40.78C37.2275 40.78 36.5822 41.0688 36.0771 41.629L36.8199 42.2986ZM36.3321 43.6469C36.3321 43.0831 36.4999 42.6482 36.8173 42.3014L36.0797 41.6262C35.5753 42.1773 35.3321 42.8615 35.3321 43.6469H36.3321ZM36.8298 44.9817C36.4977 44.6128 36.3321 44.1764 36.3321 43.6469H35.3321C35.3321 44.4115 35.5813 45.0895 36.0865 45.6507L36.8298 44.9817ZM52.5718 45.2836H41.4485V46.2836H52.5718V45.2836ZM52.0718 41.4965V45.7836H53.0718V41.4965H52.0718ZM41.4485 41.9965H52.5718V40.9965H41.4485V41.9965ZM41.9485 45.7836V41.4965H40.9485V45.7836H41.9485ZM52.5718 37.5957H35.5V38.5957H52.5718V37.5957ZM52.0718 33.8085V38.0957H53.0718V33.8085H52.0718ZM35.5 34.3085H52.5718V33.3085H35.5V34.3085ZM36 38.0957V33.8085H35V38.0957H36ZM45.5154 21.7198C44.771 21.8147 44.1469 22.1342 43.6773 22.686L44.4388 23.3341C44.7334 22.988 45.1231 22.7779 45.642 22.7117L45.5154 21.7198ZM46.0787 27.1292V22.2158H45.0787V27.1292H46.0787ZM43.6316 26.6341C44.0719 27.1562 44.7093 27.4696 45.4833 27.62L45.6741 26.6384C45.0503 26.5171 44.647 26.2871 44.3961 25.9895L43.6316 26.6341ZM42.9858 24.6426C42.9858 25.4255 43.1855 26.105 43.6316 26.6341L44.3961 25.9895C44.1394 25.6851 43.9858 25.2549 43.9858 24.6426H42.9858ZM43.6806 22.6821C43.2101 23.2237 42.9858 23.8878 42.9858 24.6426H43.9858C43.9858 24.0986 44.1418 23.676 44.4355 23.338L43.6806 22.6821ZM47.2907 18V27.2259H48.2907V18H47.2907ZM47.6045 18.5H47.7907V17.5H47.6045V18.5ZM43.1889 20.096C44.234 19.0482 45.6846 18.5 47.6045 18.5V17.5C45.4843 17.5 43.7552 18.1122 42.4809 19.3898L43.1889 20.096ZM41.5953 24.4998C41.5953 22.5905 42.1428 21.1427 43.1885 20.0964L42.4812 19.3895C41.2074 20.664 40.5953 22.3891 40.5953 24.4998H41.5953ZM43.1863 29.0175C42.1335 27.8418 41.5953 26.3475 41.5953 24.4998H40.5953C40.5953 26.557 41.2014 28.3 42.4413 29.6846L43.1863 29.0175ZM47.1301 30.762C45.5383 30.762 44.2339 30.1832 43.1857 29.0168L42.4419 29.6852C43.6823 31.0654 45.2583 31.762 47.1301 31.762V30.762ZM51.0114 29.0278C50.0331 30.1821 48.7551 30.762 47.1301 30.762V31.762C49.0306 31.762 50.5944 31.0665 51.7743 29.6743L51.0114 29.0278ZM52.5 24.258C52.5 26.2865 51.9872 27.8619 51.0095 29.0301L51.7763 29.6719C52.9414 28.2799 53.5 26.4568 53.5 24.258H52.5ZM51.8548 20.88C52.2777 21.7742 52.5 22.8938 52.5 24.258H53.5C53.5 22.7903 53.2615 21.5153 52.7588 20.4524L51.8548 20.88ZM50.1293 19.0798C50.8567 19.4078 51.4345 19.9932 51.855 20.8804L52.7586 20.4521C52.2537 19.3867 51.5181 18.6091 50.5404 18.1682L50.1293 19.0798ZM50.1523 21.9472L50.8243 18.7261L49.8454 18.5218L49.1734 21.743L50.1523 21.9472ZM50.5019 22.3136C50.4843 22.215 50.456 22.0346 50.3684 21.8636C50.2684 21.6683 50.1117 21.5158 49.8948 21.4021L49.4309 22.2881C49.4632 22.305 49.4753 22.3162 49.4775 22.3184C49.4787 22.3196 49.478 22.3187 49.4784 22.3194C49.4797 22.3221 49.4848 22.3329 49.492 22.3613C49.4999 22.3925 49.5066 22.4287 49.5174 22.4892L50.5019 22.3136ZM50.5942 22.6383C50.5446 22.5408 50.5267 22.4525 50.5019 22.3136L49.5174 22.4892C49.5422 22.6282 49.5794 22.8491 49.7031 23.0919L50.5942 22.6383ZM50.9789 24.4998C50.9789 23.7959 50.8584 23.1691 50.5963 22.6423L49.701 23.0878C49.8766 23.4406 49.9789 23.9052 49.9789 24.4998H50.9789ZM50.1408 26.8553C50.7207 26.2638 50.9789 25.4526 50.9789 24.4998H49.9789C49.9789 25.2738 49.7724 25.8026 49.4267 26.1552L50.1408 26.8553ZM47.7961 27.7259C48.7468 27.7156 49.5523 27.4482 50.1386 26.8575L49.4289 26.153C49.0782 26.5063 48.555 26.7176 47.7853 26.7259L47.7961 27.7259Z" fill="url(#paint1_linear_678_407)"/>
<defs>
<linearGradient id="paint0_linear_678_407" x1="44.25" y1="46" x2="44.25" y2="18" gradientUnits="userSpaceOnUse">
<stop stop-color="#5558FF"/>
<stop offset="1" stop-color="#00C0FF"/>
</linearGradient>
<linearGradient id="paint1_linear_678_407" x1="44.25" y1="46" x2="44.25" y2="18" gradientUnits="userSpaceOnUse">
<stop stop-color="#5558FF"/>
<stop offset="1" stop-color="#00C0FF"/>
</linearGradient>
</defs>
</svg>
