<svg width="128" height="128" viewBox="0 0 128 128" fill="none" xmlns="http://www.w3.org/2000/svg">
<path d="M97.3454 3.74493C99.4004 2.56156 102.374 4.08104 102.476 6.37775C102.563 10.0889 102.621 13.8141 102.439 17.5252C101.718 20.4662 97.0685 20.9143 95.8443 18.0994C95.0718 15.4456 95.6694 12.5817 95.4799 9.84384C95.5309 7.75719 94.9625 4.88629 97.3454 3.74493Z" fill="url(#paint0_linear)"/>
<path d="M83.3612 9.31167C84.6948 8.82852 86.2105 9.31867 87.1433 10.306C89.5627 12.6377 92.0476 14.9064 94.3795 17.3222C96.3616 19.1848 94.8459 22.8469 92.0622 22.8889C90.357 23.148 89.1181 21.8176 88.0396 20.7813C86.0065 18.7226 83.8203 16.818 81.8309 14.7244C80.1403 13.0578 81.0512 9.94887 83.3612 9.31167Z" fill="url(#paint1_linear)"/>
<path d="M111.993 9.47272C114.806 7.92524 118.289 11.3353 116.722 14.0031C115.017 16.3139 112.612 18.0434 110.652 20.1441C109.289 21.3484 107.97 23.225 105.857 22.8819C103.037 22.7279 101.572 18.8416 103.809 17.0771C106.549 14.5633 109.027 11.7344 111.993 9.47272Z" fill="url(#paint2_linear)"/>
<path d="M46.6117 21.5095C50.2772 16.699 56.7628 14.0452 62.9133 14.9694C70.2296 15.8727 76.5039 21.7616 77.5606 28.7848C77.9322 30.8224 77.5169 33.1891 79.0618 34.8627C81.0585 37.5725 85.6203 37.7125 87.8137 35.1707C89.3368 33.7493 89.293 31.6276 89.5918 29.7581C90.3205 25.2136 95.1593 21.4885 99.9688 22.3427C102.993 22.8889 104.596 26.7751 102.585 29.0718C101.652 30.4233 99.9251 30.6893 98.4312 31.0815C98.3583 35.3318 96.5365 39.6031 93.0678 42.32C88.1125 46.4373 80.2787 46.7384 75.0174 42.9712C70.9511 40.2543 68.7358 35.5139 68.7868 30.8084C68.6337 25.3257 61.689 21.5515 56.7264 24.2753C52.7621 26.1169 51.6399 30.6613 52.15 34.5476C55.2617 34.7856 59.3352 33.5602 61.536 36.3541C63.1027 38.7699 62.17 41.7948 62.4104 44.4837C73.181 48.2788 82.2026 56.3454 86.8591 66.4215C90.8889 74.9292 91.7415 84.7742 89.2493 93.8071C86.5239 103.778 79.7832 112.692 70.6887 118.175C61.3684 123.972 49.6141 126.073 38.7707 123.769C27.5629 121.564 17.4774 114.758 11.378 105.48C5.51903 96.748 3.38387 85.8386 5.41701 75.6504C7.72706 63.6136 15.9471 52.7392 27.1985 46.9904C30.128 45.2469 34.2672 47.9147 33.7935 51.1707C33.6477 53.0053 32.1393 54.2797 30.5434 55.071C20.6473 60.4837 14.0451 71.0079 13.6443 81.9384C13.2581 90.1379 16.2458 98.4495 21.857 104.646C28.3426 111.964 38.3261 116.312 48.3461 116.025C57.3604 115.906 66.1998 112.076 72.3648 105.774C79.1565 98.9257 82.6325 89.1506 81.4738 79.7397C80.2569 68.7182 72.7947 58.537 62.3303 53.8386C60.1587 52.7462 57.7466 52.2421 55.524 51.2828C52.6383 49.5322 53.6148 45.8841 53.3233 43.1392C47.7777 43.1112 42.2248 43.2513 36.6792 43.0832C33.3198 42.7821 31.6802 38.3497 34.0121 36.025C36.3659 33.6023 40.1771 34.8206 43.2086 34.5336C42.9098 29.9891 43.6021 25.1856 46.6117 21.5095Z" fill="url(#paint3_linear)"/>
<path d="M106.214 24.7655C107.416 22.5388 110.309 23.071 112.452 23.071C115.265 23.246 118.165 22.7419 120.92 23.3721C123.856 24.3944 123.703 28.9528 120.686 29.7371C117.181 30.1292 113.64 29.8001 110.12 29.8771C109.078 29.562 108.342 30.3532 107.533 30.7804C109.209 30.8784 110.054 32.4539 111.198 33.3992C113.035 35.4088 115.44 36.9913 116.875 39.302C118.143 42.1239 114.441 45.1069 111.789 43.4193C109.493 41.6548 107.606 39.4631 105.456 37.5445C104.174 36.2631 102.344 34.9117 102.774 32.888C103.095 30.6964 105.784 29.485 107.868 30.2972C106.629 28.7427 104.88 26.7961 106.214 24.7655Z" fill="url(#paint4_linear)"/>
<path d="M31.8842 60.0215C33.9028 58.9852 36.7011 60.2736 37.2768 62.3742C37.8889 64.0478 36.9561 65.8613 35.4768 66.7926C30.0406 70.5668 26.6156 76.9108 26.7832 83.3808C26.703 87.4981 28.2698 91.4613 30.5652 94.8784C32.4381 97.2521 30.2227 100.998 27.1548 100.69C24.0869 100.655 22.9501 97.3782 21.6748 95.2285C15.3787 83.2267 19.8749 67.0447 31.8842 60.0215Z" fill="url(#paint5_linear)"/>
<defs>
<linearGradient id="paint0_linear" x1="98.9974" y1="19.9877" x2="98.9974" y2="3.33334" gradientUnits="userSpaceOnUse">
<stop stop-color="#A93AFF"/>
<stop offset="1" stop-color="#FF81FF"/>
</linearGradient>
<linearGradient id="paint1_linear" x1="88.1206" y1="22.9217" x2="88.1206" y2="9.12376" gradientUnits="userSpaceOnUse">
<stop stop-color="#A93AFF"/>
<stop offset="1" stop-color="#FF81FF"/>
</linearGradient>
<linearGradient id="paint2_linear" x1="109.915" y1="22.9231" x2="109.915" y2="9.08519" gradientUnits="userSpaceOnUse">
<stop stop-color="#A93AFF"/>
<stop offset="1" stop-color="#FF81FF"/>
</linearGradient>
<linearGradient id="paint3_linear" x1="54.0727" y1="124.686" x2="54.0727" y2="14.7872" gradientUnits="userSpaceOnUse">
<stop stop-color="#A93AFF"/>
<stop offset="1" stop-color="#FF81FF"/>
</linearGradient>
<linearGradient id="paint4_linear" x1="112.874" y1="43.9101" x2="112.874" y2="23.0153" gradientUnits="userSpaceOnUse">
<stop stop-color="#A93AFF"/>
<stop offset="1" stop-color="#FF81FF"/>
</linearGradient>
<linearGradient id="paint5_linear" x1="28.15" y1="100.708" x2="28.15" y2="59.6561" gradientUnits="userSpaceOnUse">
<stop stop-color="#A93AFF"/>
<stop offset="1" stop-color="#FF81FF"/>
</linearGradient>
</defs>
</svg>
