<svg width="64" height="64" viewBox="0 0 64 64" fill="none" xmlns="http://www.w3.org/2000/svg">
<path fill-rule="evenodd" clip-rule="evenodd" d="M54.1053 42.3158C54.1053 40.6888 55.4257 39.3684 57.0526 39.3684C58.6796 39.3684 60 40.6888 60 42.3158V52.6316C60 56.6989 56.6989 60 52.6316 60H11.3684C7.30105 60 4 56.6989 4 52.6316V11.3684C4 7.30105 7.30105 4 11.3684 4H52.6316C56.6989 4 60 7.30105 60 11.3684V21.6842C60 23.3112 58.6796 24.6316 57.0526 24.6316C55.4257 24.6316 54.1053 23.3112 54.1053 21.6842V14.3158C54.1053 11.8754 52.1246 9.89474 49.6842 9.89474H14.3158C11.8754 9.89474 9.89474 11.8754 9.89474 14.3158V49.6842C9.89474 52.1246 11.8754 54.1053 14.3158 54.1053H49.6842C52.1246 54.1053 54.1053 52.1246 54.1053 49.6842V42.3158ZM44.5985 30.9891C44.5469 29.6981 45.5535 28.612 46.8444 28.5648C48.1368 28.5192 49.2274 29.5286 49.2789 30.8211L49.3158 31.9057C49.3158 31.944 49.3158 31.9632 49.3158 32C49.3158 36.5861 47.4811 41.0042 44.2434 44.2434C41.0042 47.4811 36.5861 49.3158 32 49.3158C27.4139 49.3158 22.9958 47.4811 19.7566 44.2434C16.5189 41.0042 14.6842 36.5861 14.6842 32C14.6842 27.4139 16.5189 22.9958 19.7566 19.7566C22.9958 16.5189 27.4139 14.6842 32 14.6842C36.8293 14.6842 41.4345 16.7061 44.7105 20.2444C45.5888 21.1949 45.5299 22.6789 44.5794 23.5573C43.6288 24.4356 42.1448 24.3766 41.2665 23.4261C38.8895 20.8427 35.5192 19.3646 32 19.3646C28.6488 19.3646 25.4288 20.6939 23.0709 23.0709C20.6939 25.4288 19.3646 28.6488 19.3646 32C19.3646 35.3512 20.6939 38.5712 23.0709 40.9291C25.4288 43.3061 28.6488 44.6354 32 44.6354C35.3512 44.6354 38.552 43.3061 40.9291 40.9482C43.2884 38.5888 44.6177 35.388 44.6354 32.0368L44.5985 30.9891ZM28.7785 32C28.7785 31.1467 29.116 30.3244 29.7291 29.7291C30.3244 29.116 31.1467 28.7785 32 28.7785C32.8533 28.7785 33.6756 29.116 34.2709 29.7291C34.884 30.3244 35.2215 31.1467 35.2215 32C35.2215 32.8533 34.884 33.6756 34.2709 34.2709C33.6756 34.884 32.8533 35.2215 32 35.2215C31.1467 35.2215 30.3244 34.884 29.7291 34.2709C29.116 33.6756 28.7785 32.8533 28.7785 32ZM54.1053 32C54.1053 30.3731 55.4257 29.0526 57.0526 29.0526C58.6796 29.0526 60 30.3731 60 32C60 33.6269 58.6796 34.9474 57.0526 34.9474C55.4257 34.9474 54.1053 33.6269 54.1053 32ZM25.5571 32C25.5571 30.292 26.2335 28.6503 27.4419 27.4419C28.6503 26.2335 30.292 25.5571 32 25.5571C33.708 25.5571 35.3497 26.2335 36.5581 27.4419C37.7665 28.6503 38.4429 30.292 38.4429 32C38.4429 33.708 37.7665 35.3497 36.5581 36.5581C35.3497 37.7665 33.708 38.4429 32 38.4429C30.292 38.4429 28.6503 37.7665 27.4419 36.5581C26.2335 35.3497 25.5571 33.708 25.5571 32ZM48.2105 48.9474C48.2105 47.7272 49.2008 46.7368 50.4211 46.7368C51.6413 46.7368 52.6316 47.7272 52.6316 48.9474C52.6316 50.1676 51.6413 51.1579 50.4211 51.1579C49.2008 51.1579 48.2105 50.1676 48.2105 48.9474ZM11.3684 48.9474C11.3684 47.7272 12.3587 46.7368 13.5789 46.7368C14.7992 46.7368 15.7895 47.7272 15.7895 48.9474C15.7895 50.1676 14.7992 51.1579 13.5789 51.1579C12.3587 51.1579 11.3684 50.1676 11.3684 48.9474Z" fill="url(#paint0_linear_644_135)"/>
<defs>
<linearGradient id="paint0_linear_644_135" x1="4" y1="32" x2="60" y2="32" gradientUnits="userSpaceOnUse">
<stop stop-color="#5800E2"/>
<stop offset="1" stop-color="#FF00E6"/>
</linearGradient>
</defs>
</svg>
