<svg width="64" height="64" viewBox="0 0 64 64" fill="none" xmlns="http://www.w3.org/2000/svg">
<path d="M8.05691 2.65096C11.2028 1.55574 14.6086 2.21587 17.8712 2.03583C17.0085 3.32609 16.3341 4.79263 15.1511 5.83159C13.6856 6.33419 12.0768 6.18416 10.5661 6.51047C8.21514 6.8818 6.34646 9.09098 6.44819 11.4727C6.47456 25.1217 6.39544 38.7706 6.48963 52.4196C6.15809 45.0531 6.50093 37.6566 6.02623 30.2939C4.54936 32.3643 2.36798 34.2735 2.34538 37.0115C2.08165 42.2063 2.22482 47.4198 2.05528 52.6184V52.9109C1.94602 39.1044 2.03644 25.2942 2.01384 11.4877C1.91211 7.66195 4.44764 3.96372 8.05691 2.65096Z" fill="url(#paint0_linear)"/>
<path d="M17.8712 2.03583C20.3616 2.05834 22.8556 1.99459 25.346 2.05836C26.5629 2.03585 27.403 3.13107 27.5876 4.23754C27.354 5.23523 26.7362 6.3417 25.5833 6.40172C20.5801 6.5555 15.5655 6.31543 10.5661 6.51047C12.0768 6.18416 13.6856 6.33419 15.1511 5.83159C16.3341 4.79263 17.0085 3.32609 17.8712 2.03583Z" fill="url(#paint1_linear)"/>
<path d="M32.5155 5.86161C32.4552 3.85871 34.2373 2.0546 36.2453 2.0546C38.8374 2.00209 41.4294 2.05085 44.0215 2.0396C43.0532 3.65617 42.0021 5.22398 40.7588 6.64927C39.7454 6.64927 38.5925 6.66052 37.8428 7.45192C36.7992 8.3521 37.0177 9.8374 36.9649 11.0639C36.7841 14.3383 34.3164 16.6975 32.4778 19.173C32.4929 14.7359 32.4477 10.2987 32.5155 5.86161Z" fill="url(#paint2_linear)"/>
<path d="M44.0215 2.0396C46.6964 2.0471 49.3713 2.02085 52.05 2.04335C54.48 2.08086 56.9628 3.0448 58.6092 4.84891L58.5828 5.08896C57.7728 6.26294 56.8837 7.38441 56.0398 8.53589C55.0602 7.33565 53.6286 6.43172 52.0312 6.45423C51.3116 6.39797 50.6108 7.03559 50.6673 7.76699C50.5769 9.72488 50.6673 11.6865 50.6372 13.6444C49.586 14.9159 48.4784 16.1499 47.5365 17.5077C46.0258 19.4731 46.719 22.0948 46.1086 24.3528C46.2179 19.6981 46.1162 15.0434 46.1652 10.3888C46.2141 9.43232 46.0408 8.47213 45.5397 7.64321C44.2814 6.35296 42.3788 6.72428 40.7588 6.64927C42.0021 5.22398 43.0532 3.65617 44.0215 2.0396Z" fill="url(#paint3_linear)"/>
<path d="M27.5876 4.23754C28.0586 4.99519 27.9908 6.09791 27.2599 6.67928C26.382 7.61321 24.9504 7.16687 23.8164 7.27939C21.5559 7.09561 19.3029 7.65072 17.0499 7.33941C15.1662 7.18188 13.2937 7.60571 11.4062 7.52319C9.74099 7.35816 8.36585 8.5809 7.5596 9.90116C6.9568 10.8276 7.03592 11.9678 7.01708 13.0218C7.04345 26.7157 7.01331 40.4135 7.03215 54.1074C6.7948 53.5673 6.54991 53.0122 6.48963 52.4196C6.39544 38.7706 6.47456 25.1217 6.44819 11.4727C6.34646 9.09098 8.21514 6.8818 10.5661 6.51047C15.5655 6.31543 20.5801 6.5555 25.5833 6.40172C26.7362 6.3417 27.354 5.23523 27.5876 4.23754Z" fill="url(#paint4_linear)"/>
<path d="M61.1598 9.39481C61.8644 10.4638 61.9812 11.7653 62 13.0105C61.9887 25.7556 61.9887 38.5043 62 51.2531C61.9435 53.4435 61.627 55.7465 60.3762 57.6106C58.6545 60.3862 55.3617 62.1378 52.0839 61.9915C38.5209 61.9765 24.9542 61.999 11.3911 61.984C8.49771 62.0065 5.81902 60.3787 4.05583 58.1695C3.76573 57.8732 3.71675 57.4493 3.6301 57.0668C4.72644 58.5108 6.15432 59.7148 7.83463 60.4199C10.9956 61.5827 14.4202 60.945 17.7017 61.1063C20.84 61.1063 23.9784 61.1063 27.1129 61.1063C30.1156 61.1026 33.1146 61.1063 36.1173 61.1063C39.2857 61.1063 42.4542 61.1063 45.6264 61.1063C48.5877 60.9788 51.6092 61.4251 54.5215 60.7425C58.3757 59.7073 61.2955 55.9978 61.3105 52.0108C61.3407 48.5751 61.3068 45.1394 61.3181 41.7C61.3256 37.6979 61.3181 33.6996 61.3181 29.6976C61.3218 25.0767 61.3181 20.4558 61.3181 15.8348C61.2955 13.6894 61.4236 11.5327 61.1598 9.39481Z" fill="url(#paint5_linear)"/>
<path d="M58.5828 5.08896L58.8277 5.05516C60.0258 6.19164 60.719 7.81575 61.1598 9.39481C61.4236 11.5327 61.2955 13.6894 61.3181 15.8348C59.6943 17.5639 58.3267 19.5068 56.9025 21.3972C56.8988 18.344 56.8988 15.2947 56.9063 12.2453C56.9025 11.4052 56.8988 10.55 56.6313 9.74359C56.4504 9.33476 56.2508 8.92972 56.0398 8.53589C56.8837 7.38441 57.7728 6.26294 58.5828 5.08896Z" fill="url(#paint6_linear)"/>
<path d="M37.8428 7.45192C38.5925 6.66052 39.7454 6.64927 40.7588 6.64927C42.3788 6.72428 44.2814 6.35296 45.5397 7.64321C43.4337 7.65822 41.2938 7.32436 39.2066 7.70694C37.3643 8.41208 37.4245 10.6363 37.3115 12.2678C37.2399 16.6 37.353 20.9358 37.2324 25.2679C36.8255 23.9777 36.9423 22.6086 36.931 21.2734C36.9649 17.8715 36.9536 14.4696 36.9649 11.0639C37.0177 9.8374 36.7992 8.3521 37.8428 7.45192Z" fill="url(#paint7_linear)"/>
<path d="M50.6673 7.76699C50.6108 7.03559 51.3116 6.39797 52.0312 6.45423C53.6286 6.43172 55.0602 7.33565 56.0398 8.53589C56.2508 8.92972 56.4504 9.33476 56.6313 9.74359C55.4294 8.69713 54.1787 7.28311 52.4117 7.4969C51.4962 7.37688 51.1835 8.53961 51.176 9.2485C51.1533 14.3833 51.1873 19.5218 51.1684 24.6603C51.353 30.3202 45.0726 35.1474 39.6323 33.392C37.677 32.8032 35.4014 31.783 34.7233 29.7051C34.9003 29.8701 35.2507 30.2076 35.4278 30.3764C37.7976 32.5369 41.3277 33.3208 44.3794 32.2893C47.966 31.1716 50.6071 27.6459 50.6259 23.9026C50.6636 20.482 50.6221 17.0651 50.6372 13.6444C50.6673 11.6865 50.5769 9.72488 50.6673 7.76699Z" fill="url(#paint8_linear)"/>
<path d="M32.4778 19.173C34.3164 16.6975 36.7841 14.3383 36.9649 11.0639C36.9536 14.4696 36.9649 17.8715 36.931 21.2734C36.9423 22.6086 36.8255 23.9777 37.2324 25.2679C37.4472 25.8155 37.7712 26.3144 38.1027 26.7982C37.1985 27.9797 36.3056 29.1724 35.4278 30.3764C35.2507 30.2076 34.9003 29.8701 34.7233 29.7051C33.4272 28.1822 32.5871 26.2581 32.4891 24.259C32.41 22.5637 32.4703 20.8683 32.4778 19.173Z" fill="url(#paint9_linear)"/>
<path d="M47.5365 17.5077C48.4784 16.1499 49.586 14.9159 50.6372 13.6444C50.6221 17.0651 50.6636 20.482 50.6259 23.9026C50.6071 27.6459 47.966 31.1716 44.3794 32.2893C41.3277 33.3208 37.7976 32.5369 35.4278 30.3764C36.3056 29.1724 37.1985 27.9797 38.1027 26.7982C38.8863 27.4734 39.7906 28.0923 40.8455 28.231C43.2943 28.6774 45.747 26.7608 46.1086 24.3528C46.719 22.0948 46.0258 19.4731 47.5365 17.5077Z" fill="url(#paint10_linear)"/>
<path d="M56.9025 21.3972C58.3267 19.5068 59.6943 17.5639 61.3181 15.8348C61.3181 20.4558 61.3218 25.0767 61.3181 29.6976C59.6792 31.3104 58.3493 33.182 56.9026 34.9561C56.8988 30.4365 56.9025 25.9168 56.9025 21.3972Z" fill="url(#paint11_linear)"/>
<path d="M40.4725 19.7656C42.6237 18.9329 45.163 20.8908 44.8654 23.175C44.839 25.7293 41.4144 27.2033 39.4967 25.5267C37.4359 24.0527 38.0425 20.4857 40.4725 19.7656Z" fill="url(#paint12_linear)"/>
<path d="M56.9026 34.9561C58.3493 33.182 59.6792 31.3104 61.3181 29.6976C61.3181 33.6996 61.3256 37.6979 61.3181 41.7C59.6868 43.324 58.4322 45.2632 56.9063 46.9735C56.895 42.9677 56.9026 38.9619 56.9026 34.9561Z" fill="url(#paint13_linear)"/>
<path d="M2.34538 37.0115C2.36798 34.2735 4.54936 32.3643 6.02623 30.2939C6.50093 37.6566 6.15809 45.0531 6.48963 52.4196C6.54991 53.0122 6.7948 53.5673 7.03215 54.1074C7.75928 55.4277 9.09297 56.3316 10.5661 56.6316L10.5322 56.6767C9.64302 57.9294 8.74636 59.1822 7.83463 60.4199C6.15432 59.7148 4.72644 58.5108 3.6301 57.0668C2.76734 55.7352 2.1683 54.2049 2.05528 52.6184C2.22482 47.4198 2.08165 42.2063 2.34538 37.0115Z" fill="url(#paint14_linear)"/>
<path d="M56.9063 46.9735C58.4322 45.2632 59.6868 43.324 61.3181 41.7C61.3068 45.1394 61.3407 48.5751 61.3105 52.0108C61.2955 55.9978 58.3757 59.7073 54.5215 60.7425C51.6092 61.4251 48.5877 60.9788 45.6264 61.1063C46.7379 59.6773 47.7739 58.192 48.7911 56.6954C51.0215 56.6654 53.6625 57.0855 55.3805 55.3114C57.6975 53.151 56.6803 49.7528 56.9063 46.9735Z" fill="url(#paint15_linear)"/>
<path d="M7.83463 60.4199C8.74636 59.1822 9.64302 57.9294 10.5322 56.6767C13.8739 56.7217 17.2119 56.6879 20.5499 56.6954C19.5817 58.1544 18.6511 59.636 17.7017 61.1063C14.4202 60.945 10.9956 61.5827 7.83463 60.4199Z" fill="url(#paint16_linear)"/>
<path d="M20.5499 56.6954C23.692 56.6991 26.8379 56.6954 29.98 56.6954C29.023 58.1657 28.0887 59.6473 27.1129 61.1063C23.9784 61.1063 20.84 61.1063 17.7017 61.1063C18.6511 59.636 19.5817 58.1544 20.5499 56.6954Z" fill="url(#paint17_linear)"/>
<path d="M29.98 56.6954C32.9789 56.6992 35.9741 56.6954 38.973 56.6954C37.952 58.1207 37.0215 59.606 36.1173 61.1063C33.1146 61.1063 30.1156 61.1026 27.1129 61.1063C28.0887 59.6473 29.023 58.1657 29.98 56.6954Z" fill="url(#paint18_linear)"/>
<path d="M38.973 56.6954C42.2432 56.7029 45.5172 56.6954 48.7911 56.6954C47.7739 58.192 46.7379 59.6773 45.6264 61.1063C42.4542 61.1063 39.2857 61.1063 36.1173 61.1063C37.0215 59.606 37.952 58.1207 38.973 56.6954Z" fill="url(#paint19_linear)"/>
<path d="M11.0314 19.3743C10.89 17.867 12.5917 17.9882 13.5781 18.0125C14.3641 18.0448 15.7318 17.8589 15.8418 18.9863C15.9754 24.7325 15.9204 30.4827 15.9715 36.2328C17.4924 36.2409 19.0134 36.2449 20.5343 36.2409C21.8351 33.5295 23.1399 30.8261 24.4329 28.1147C24.8023 27.3631 25.2543 26.4418 26.1778 26.3408C27.1996 26.2195 28.249 26.2034 29.2708 26.369C29.935 26.5105 30.0253 27.3671 29.7502 27.8924C28.1311 31.4444 26.2918 34.8872 24.6844 38.4432C26.1189 41.6557 27.9267 44.6944 29.5105 47.8382C30.0293 48.9899 30.9293 50.0486 31 51.3538C30.7249 52.0933 29.9035 51.9357 29.2944 51.9882C28.4848 51.9761 27.6477 52.061 26.8617 51.8225C26.2132 51.4306 25.8634 50.7113 25.5058 50.0607C23.867 46.8563 22.1928 43.668 20.5421 40.4758C19.0252 40.4717 17.5082 40.4838 15.9912 40.4515C15.7278 44.2459 16.2898 48.0807 15.6807 51.8427C14.2973 51.9519 12.8707 52.1458 11.503 51.8185C10.8703 51.3013 11.0511 50.4123 11 49.6849C11.0314 39.5827 10.9725 29.4765 11.0314 19.3743Z" fill="url(#paint20_linear)"/>
<defs>
<linearGradient id="paint0_linear" x1="32" y1="62" x2="32" y2="2" gradientUnits="userSpaceOnUse">
<stop stop-color="#FD2E00"/>
<stop offset="1" stop-color="#FF9900"/>
</linearGradient>
<linearGradient id="paint1_linear" x1="32" y1="62" x2="32" y2="2" gradientUnits="userSpaceOnUse">
<stop stop-color="#FD2E00"/>
<stop offset="1" stop-color="#FF9900"/>
</linearGradient>
<linearGradient id="paint2_linear" x1="32" y1="62" x2="32" y2="2" gradientUnits="userSpaceOnUse">
<stop stop-color="#FD2E00"/>
<stop offset="1" stop-color="#FF9900"/>
</linearGradient>
<linearGradient id="paint3_linear" x1="32" y1="62" x2="32" y2="2" gradientUnits="userSpaceOnUse">
<stop stop-color="#FD2E00"/>
<stop offset="1" stop-color="#FF9900"/>
</linearGradient>
<linearGradient id="paint4_linear" x1="32" y1="62" x2="32" y2="2" gradientUnits="userSpaceOnUse">
<stop stop-color="#FD2E00"/>
<stop offset="1" stop-color="#FF9900"/>
</linearGradient>
<linearGradient id="paint5_linear" x1="32" y1="62" x2="32" y2="2" gradientUnits="userSpaceOnUse">
<stop stop-color="#FD2E00"/>
<stop offset="1" stop-color="#FF9900"/>
</linearGradient>
<linearGradient id="paint6_linear" x1="32" y1="62" x2="32" y2="2" gradientUnits="userSpaceOnUse">
<stop stop-color="#FD2E00"/>
<stop offset="1" stop-color="#FF9900"/>
</linearGradient>
<linearGradient id="paint7_linear" x1="32" y1="62" x2="32" y2="2" gradientUnits="userSpaceOnUse">
<stop stop-color="#FD2E00"/>
<stop offset="1" stop-color="#FF9900"/>
</linearGradient>
<linearGradient id="paint8_linear" x1="32" y1="62" x2="32" y2="2" gradientUnits="userSpaceOnUse">
<stop stop-color="#FD2E00"/>
<stop offset="1" stop-color="#FF9900"/>
</linearGradient>
<linearGradient id="paint9_linear" x1="32" y1="62" x2="32" y2="2" gradientUnits="userSpaceOnUse">
<stop stop-color="#FD2E00"/>
<stop offset="1" stop-color="#FF9900"/>
</linearGradient>
<linearGradient id="paint10_linear" x1="32" y1="62" x2="32" y2="2" gradientUnits="userSpaceOnUse">
<stop stop-color="#FD2E00"/>
<stop offset="1" stop-color="#FF9900"/>
</linearGradient>
<linearGradient id="paint11_linear" x1="32" y1="62" x2="32" y2="2" gradientUnits="userSpaceOnUse">
<stop stop-color="#FD2E00"/>
<stop offset="1" stop-color="#FF9900"/>
</linearGradient>
<linearGradient id="paint12_linear" x1="32" y1="62" x2="32" y2="2" gradientUnits="userSpaceOnUse">
<stop stop-color="#FD2E00"/>
<stop offset="1" stop-color="#FF9900"/>
</linearGradient>
<linearGradient id="paint13_linear" x1="32" y1="62" x2="32" y2="2" gradientUnits="userSpaceOnUse">
<stop stop-color="#FD2E00"/>
<stop offset="1" stop-color="#FF9900"/>
</linearGradient>
<linearGradient id="paint14_linear" x1="32" y1="62" x2="32" y2="2" gradientUnits="userSpaceOnUse">
<stop stop-color="#FD2E00"/>
<stop offset="1" stop-color="#FF9900"/>
</linearGradient>
<linearGradient id="paint15_linear" x1="32" y1="62" x2="32" y2="2" gradientUnits="userSpaceOnUse">
<stop stop-color="#FD2E00"/>
<stop offset="1" stop-color="#FF9900"/>
</linearGradient>
<linearGradient id="paint16_linear" x1="32" y1="62" x2="32" y2="2" gradientUnits="userSpaceOnUse">
<stop stop-color="#FD2E00"/>
<stop offset="1" stop-color="#FF9900"/>
</linearGradient>
<linearGradient id="paint17_linear" x1="32" y1="62" x2="32" y2="2" gradientUnits="userSpaceOnUse">
<stop stop-color="#FD2E00"/>
<stop offset="1" stop-color="#FF9900"/>
</linearGradient>
<linearGradient id="paint18_linear" x1="32" y1="62" x2="32" y2="2" gradientUnits="userSpaceOnUse">
<stop stop-color="#FD2E00"/>
<stop offset="1" stop-color="#FF9900"/>
</linearGradient>
<linearGradient id="paint19_linear" x1="32" y1="62" x2="32" y2="2" gradientUnits="userSpaceOnUse">
<stop stop-color="#FD2E00"/>
<stop offset="1" stop-color="#FF9900"/>
</linearGradient>
<linearGradient id="paint20_linear" x1="21" y1="52" x2="21" y2="18" gradientUnits="userSpaceOnUse">
<stop stop-color="#FD2E00"/>
<stop offset="1" stop-color="#FF9900"/>
</linearGradient>
</defs>
</svg>
