<svg width="64" height="64" viewBox="0 0 64 64" fill="none" xmlns="http://www.w3.org/2000/svg">
<g clip-path="url(#clip0)">
<path d="M28.3169 1.90214C29.3005 1.03571 30.3795 -0.0746275 31.8108 0.0200245C33.2678 -0.154718 34.4679 0.846409 35.4551 1.76745C34.4716 2.6812 33.7339 3.80246 32.8935 4.83271C32.7246 4.78539 32.3833 4.69074 32.2145 4.64341L31.9026 4.45411C29.4436 6.82769 27.0655 9.28136 24.6322 11.6841C24.0194 12.3029 23.3624 12.9036 22.9183 13.6608C22.4229 14.6474 22.7826 15.8815 22.0816 16.788C21.0136 18.3971 19.8025 19.9079 18.5841 21.4077C18.5767 18.7029 18.5584 15.9944 18.5951 13.2859C18.8116 11.8406 19.63 10.5628 20.665 9.55439C23.2046 6.99151 25.7663 4.45047 28.3169 1.90214Z" fill="#0E99FF"/>
<path d="M32.8935 4.83272C33.7339 3.80247 34.4716 2.68121 35.4552 1.76746C37.4003 3.72238 39.3674 5.65547 41.3125 7.6104C40.2776 8.62608 39.4151 9.79467 38.5673 10.9633C36.4424 8.85907 34.3358 6.74397 32.2145 4.64342C32.3834 4.69075 32.7247 4.7854 32.8935 4.83272Z" fill="#13A2FF"/>
<path d="M22.0816 16.788C22.7826 15.8816 22.4229 14.6475 22.9184 13.6609L22.9147 14.196C22.9221 20.272 22.9184 26.3443 22.9221 32.4202C23.4028 31.9542 23.8873 31.4882 24.3717 31.0222C24.2396 32.4457 22.9808 33.3267 22.2798 34.477C21.377 35.5583 20.8485 37.1928 19.3181 37.5387C18.874 36.8433 18.5731 36.057 18.5951 35.2233C18.5804 30.6182 18.6171 26.013 18.5841 21.4078C19.8026 19.9079 21.0137 18.3971 22.0816 16.788Z" fill="#13A2FF"/>
<path d="M12.3928 34.1494C13.5562 32.7915 14.3415 31.1314 15.7215 29.9628C15.7839 33.2793 15.7031 36.5921 15.7288 39.9086C15.7545 41.0699 15.6848 42.3076 15.0315 43.3124C14.1801 44.6339 12.1322 44.9652 10.9321 43.9167C9.80174 42.9083 8.78514 41.7761 7.68781 40.735C8.42915 39.4754 9.29527 38.2995 10.2605 37.2001C10.6495 37.586 11.0459 37.9682 11.4386 38.3505C12.0294 36.9962 11.233 35.2706 12.3928 34.1494Z" fill="#13A2FF"/>
<path opacity="0.23" d="M24.6322 11.6841C27.0655 9.28135 29.4436 6.82768 31.9025 4.4541L32.2145 4.64341C34.3358 6.74395 36.4424 8.85906 38.5673 10.9632C39.5252 11.9535 40.5748 12.8599 41.4556 13.9266L41.0813 14.3088C37.9691 11.5239 35.2092 8.38216 32.1117 5.58264C31.719 5.80835 31.308 6.00494 30.9704 6.31438C28.2656 8.91731 25.7626 11.7423 22.9147 14.196L22.9183 13.6608C23.3624 12.9036 24.0193 12.3029 24.6322 11.6841Z" fill="black"/>
<path opacity="0.23" d="M18.3455 15.532C18.3822 14.7857 18.2464 13.9848 18.5951 13.2858C18.5584 15.9943 18.5767 18.7028 18.584 21.4077C18.6171 26.0129 18.5804 30.6181 18.5951 35.2232C18.573 36.0569 18.874 36.8433 19.318 37.5386C20.1108 38.2303 21.1787 38.7618 22.2541 38.4815C23.678 38.1538 24.5221 36.8687 25.5351 35.9404C30.563 30.9639 35.5652 25.9656 40.5381 20.9344C42.1272 19.2562 43.9549 17.7854 45.3165 15.9106C45.2908 16.4749 45.177 17.0573 44.7513 17.4724C43.4337 18.9249 41.9143 20.1954 40.6482 21.6989C39.3417 23.3299 37.6351 24.5895 36.3983 26.2823C32.6145 30.1776 28.6803 33.9272 24.8634 37.7898C24.0047 38.6962 22.8816 39.5809 21.5494 39.4389C19.8062 39.6318 18.3528 37.939 18.3859 36.2899C18.3859 29.373 18.3859 22.4525 18.3455 15.532Z" fill="black"/>
<path opacity="0.23" d="M40.1931 31.5901C43.2906 28.3719 46.5239 25.2848 49.7131 22.1613L50.0471 22.3761C51.9775 24.2728 53.8896 26.1877 55.82 28.0843C56.9871 29.2457 58.1652 30.396 59.3249 31.5646C59.1818 31.7284 58.8955 32.0524 58.7524 32.2163C58.0221 31.004 56.8954 30.1303 55.9118 29.1401C54.1832 27.4436 52.4803 25.718 50.7628 24.0034C50.3958 23.6939 49.8856 23.0168 49.3755 23.4974C47.8561 24.7752 46.5606 26.2896 45.1036 27.6402C43.665 29.1656 41.9547 30.4616 40.784 32.2199C40.5821 32.016 40.384 31.8049 40.1931 31.5901Z" fill="black"/>
<path opacity="0.23" d="M4.64536 31.6301C6.83269 29.3512 9.08975 27.1341 11.3541 24.9353C11.3541 25.2957 11.3541 26.0238 11.3541 26.3879C10.0513 26.8684 9.21453 28.0042 8.25298 28.9325C7.22171 30.0065 6.0106 30.9348 5.24724 32.2308C5.09677 32.0815 4.79583 31.7794 4.64536 31.6301Z" fill="black"/>
<path opacity="0.23" d="M15.7141 25.6525C15.9343 26.1294 15.9306 26.6646 15.938 27.1815C15.9526 32.0488 15.993 36.9161 15.9086 41.7834C15.9453 43.1486 15.248 44.4992 14.0589 45.2054C12.7818 45.4821 11.2844 45.4712 10.3155 44.4701C8.22359 42.5588 6.29316 40.4692 4.24529 38.507C2.80298 37.1382 1.42305 35.6893 0.259654 34.0729C-0.0889981 33.647 -0.0266079 33.0791 0.101843 32.5876C0.457834 33.3375 0.927597 34.0329 1.52214 34.6153C3.57368 36.6576 5.63256 38.6927 7.68777 40.735C8.7851 41.7761 9.8017 42.9083 10.9321 43.9167C12.1322 44.9652 14.18 44.6339 15.0315 43.3124C15.6847 42.3076 15.7545 41.0699 15.7288 39.9086C15.7031 36.5921 15.7838 33.2793 15.7214 29.9628C15.7178 28.5249 15.7178 27.0869 15.7141 25.6525Z" fill="black"/>
<path opacity="0.23" d="M63.773 30.731C64.2905 32.3 63.9161 34.0838 62.7234 35.2524C59.5378 38.5288 56.2715 41.7288 53.0162 44.936C51.8418 46.1265 49.9517 46.7381 48.3479 46.0937C47.0451 45.5586 45.9991 44.5756 44.9935 43.6218C42.4979 41.1245 39.9362 38.689 37.4993 36.137C36.802 35.165 35.6056 34.1821 36.013 32.8497C36.6406 34.4624 38.0462 35.5473 39.2169 36.7523C41.1987 38.7145 43.1732 40.6803 45.155 42.6462C46.2597 43.7456 47.379 45.0489 49.0085 45.3292C50.5059 45.6496 52.0179 44.9652 53.0675 43.9313C55.2292 41.8198 57.3651 39.6828 59.5011 37.5459C60.8443 36.2098 62.316 34.9539 63.3436 33.3448C63.8794 32.5803 63.7326 31.6047 63.773 30.731Z" fill="black"/>
<path opacity="0.23" d="M22.3201 49.3264C25.5057 46.1519 28.7096 42.9884 31.8952 39.8139C33.077 40.9206 34.2 42.0856 35.356 43.2141C37.3525 45.1945 39.36 47.1676 41.3382 49.1662L41.2905 49.523C40.8134 49.2536 40.3252 48.9842 39.9325 48.5983C37.4736 46.1847 35.0698 43.7128 32.5888 41.3247C31.9833 40.7786 31.2456 41.3829 30.8162 41.8453C28.1775 44.5283 25.4213 47.1021 22.8339 49.8397C22.7055 49.7123 22.4486 49.4575 22.3201 49.3264Z" fill="black"/>
<path opacity="0.23" d="M43.9255 53.0251C44.5458 52.4317 45.1073 51.7764 45.5404 51.0338C45.9477 52.1587 44.9788 53.036 44.3146 53.8005C41.4887 56.5818 38.7031 59.3995 35.8845 62.1808C35.1138 63.0254 33.9871 63.3676 32.9485 63.7608C31.4145 64.4634 29.7042 63.4951 28.5812 62.4466C25.5718 59.476 22.5807 56.4908 19.564 53.5311C19.197 53.1889 18.8116 52.7229 19.0759 52.1841C20.8301 53.9461 22.5991 55.6935 24.3644 57.4446C25.9278 58.959 27.4215 60.539 29.0143 62.0207C30.5924 63.5679 33.3779 63.5205 34.9157 61.9406C37.9434 58.9954 40.9125 55.9848 43.9255 53.0251Z" fill="black"/>
<path d="M38.5673 10.9633C39.4151 9.79469 40.2776 8.6261 41.3125 7.61041C42.5053 8.83725 43.8045 9.96943 44.9091 11.28C45.9808 12.5724 46.1386 14.4545 45.3165 15.9107C43.9549 17.7855 42.1273 19.2562 40.5381 20.9345C35.5653 25.9656 30.563 30.964 25.5351 35.9405C24.5222 36.8688 23.6781 38.1539 22.2541 38.4815C21.1788 38.7618 20.1108 38.2303 19.3181 37.5386C20.8485 37.1928 21.377 35.5582 22.2798 34.477C22.9808 33.3266 24.2396 32.4456 24.3717 31.0222C29.9869 25.496 35.4662 19.8351 41.0813 14.3089L41.4557 13.9266C40.5748 12.86 39.5252 11.9535 38.5673 10.9633Z" fill="#18ADFF"/>
<path d="M46.8983 18.8959C48.4874 17.3487 51.1445 17.4397 52.7299 18.9541C51.673 19.9625 50.8546 21.1711 50.0472 22.3761L49.7132 22.1613C46.5239 25.2849 43.2907 28.372 40.1932 31.5901C40.384 31.8049 40.5822 32.0161 40.784 32.2199C41.2281 32.6641 41.6685 33.1119 42.1236 33.5487C41.063 34.5353 40.2592 35.7475 39.2169 36.7523C38.0462 35.5473 36.6406 34.4625 36.013 32.8497C35.5212 31.2225 36.1598 29.4787 37.3416 28.3137C40.4758 25.1247 43.6687 21.9902 46.8983 18.8959Z" fill="#1DB7FF"/>
<path d="M10.5577 19.5766C11.266 18.8194 12.378 18.4189 13.402 18.6992C14.6094 18.9941 15.4462 20.1481 15.5599 21.3422C15.6627 22.7766 15.6517 24.2145 15.7141 25.6525C15.7178 27.0869 15.7178 28.5249 15.7214 29.9628C14.3415 31.1314 13.5561 32.7915 12.3927 34.1494C11.233 35.2706 12.0294 36.9962 11.4385 38.3505C11.3358 34.3642 11.4348 30.3742 11.3541 26.3879C11.3541 26.0239 11.3541 25.2958 11.3541 24.9354C9.08971 27.1342 6.83265 29.3512 4.64532 31.6302C4.79579 31.7794 5.09673 32.0816 5.2472 32.2308C6.9244 33.88 8.59059 35.5437 10.2604 37.2001C9.29523 38.2995 8.42911 39.4754 7.68776 40.735C5.63255 38.6927 3.57367 36.6576 1.52213 34.6153C0.927589 34.0329 0.457827 33.3375 0.101835 32.5876C0.0944949 31.6229 -0.114696 30.498 0.567927 29.6971C3.73882 26.1731 7.27672 22.995 10.5577 19.5766Z" fill="#0D96FF"/>
<path d="M50.0471 22.3761C50.8545 21.1711 51.6729 19.9625 52.7299 18.9541C54.6713 20.869 56.6091 22.7875 58.5432 24.7133C57.5413 25.7618 56.7779 26.9995 55.8201 28.0844C53.8896 26.1877 51.9775 24.2728 50.0471 22.3761Z" fill="#21C0FF"/>
<path d="M39.2169 36.7523C40.2592 35.7475 41.0629 34.5353 42.1236 33.5487C44.0577 35.4818 46.0138 37.4003 47.9479 39.3334C46.8139 40.2617 46.0542 41.5177 45.155 42.6462C43.1732 40.6804 41.1987 38.7145 39.2169 36.7523Z" fill="#21C0FF"/>
<path d="M55.8201 28.0844C56.7779 26.9995 57.5413 25.7618 58.5432 24.7133C60.2828 26.701 62.7858 28.2045 63.773 30.731C63.7326 31.6047 63.8794 32.5804 63.3436 33.3449C62.316 34.9539 60.8443 36.2099 59.5011 37.5459C57.3652 39.6829 55.2292 41.8199 53.0676 43.9313C52.0179 44.9652 50.5059 45.6496 49.0085 45.3293C47.379 45.0489 46.2597 43.7457 45.155 42.6462C46.0542 41.5177 46.8138 40.2617 47.9479 39.3334C48.5424 39.9341 49.1443 40.5275 49.7682 41.0954C52.8033 38.1757 55.743 35.1614 58.7524 32.2163C58.8955 32.0525 59.1818 31.7285 59.3249 31.5647C58.1652 30.3961 56.9871 29.2457 55.8201 28.0844Z" fill="#26CBFF"/>
<path d="M28.9225 36.7086C30.2584 35.3216 32.5852 34.9284 34.178 36.1152C35.723 37.3129 36.9929 38.8237 38.4095 40.1598C37.3599 41.1464 36.3286 42.1511 35.356 43.2141C34.2 42.0856 33.077 40.9206 31.8952 39.8139C28.7096 42.9884 25.5057 46.152 22.3201 49.3265C22.4486 49.4575 22.7055 49.7124 22.8339 49.8398C24.2286 51.2268 25.6268 52.6029 27.0178 53.9899C25.9938 55.0311 25.1314 56.2106 24.3643 57.4447C22.5991 55.6936 20.8301 53.9462 19.0758 52.1842C17.5087 50.6006 17.6152 47.863 19.208 46.3413C22.4376 43.1195 25.6635 39.8977 28.9225 36.7086Z" fill="#1BB3FF"/>
<path d="M35.3561 43.2141C36.3286 42.1511 37.3599 41.1463 38.4095 40.1597C40.5088 42.2603 42.6374 44.3281 44.7183 46.4432C45.9404 47.619 46.1643 49.5084 45.5404 51.0338C45.1073 51.7764 44.5458 52.4317 43.9256 53.0251C40.9125 55.9848 37.9434 58.9955 34.9157 61.9406C33.3779 63.5206 30.5924 63.5679 29.0143 62.0207C27.4215 60.539 25.9278 58.9591 24.3644 57.4446C25.1314 56.2105 25.9939 55.031 27.0178 53.9898C28.6436 55.6135 30.2804 57.2298 31.9099 58.8535C35.0405 55.7482 38.1857 52.6574 41.2905 49.523L41.3382 49.1662C39.3601 47.1676 37.3526 45.1945 35.3561 43.2141Z" fill="#24C6FF"/>
</g>
<defs>
<clipPath id="clip0">
<rect width="64" height="64" fill="white"/>
</clipPath>
</defs>
</svg>
