<svg width="128" height="128" viewBox="0 0 128 128" fill="none" xmlns="http://www.w3.org/2000/svg">
<path fill-rule="evenodd" clip-rule="evenodd" d="M30.6079 8C25.6595 8 21.6479 12.0115 21.6479 16.96V50.56C21.6479 53.0343 23.6537 55.04 26.1279 55.04C28.6022 55.04 30.6079 53.0343 30.6079 50.56V21.44C30.6079 18.9658 32.6137 16.96 35.0879 16.96H92.4319C94.9062 16.96 96.9119 18.9658 96.9119 21.44V88.64C96.9119 91.1143 94.9062 93.12 92.4319 93.12H68.2399C65.7656 93.12 63.7599 95.1257 63.7599 97.6C63.7599 100.074 65.7656 102.08 68.2399 102.08H96.9119C101.861 102.08 105.872 98.0686 105.872 93.12V16.96C105.872 12.0115 101.861 8 96.9119 8H30.6079ZM50 20.544H73.0403C74.1012 20.544 74.96 21.9464 74.96 23.68C74.96 25.4136 74.1012 26.816 73.0403 26.816H50C48.9388 26.816 48.08 25.4136 48.08 23.68C48.08 21.9464 48.9388 20.544 50 20.544ZM50.64 33.984H81.3601C82.7749 33.984 83.92 35.3864 83.92 37.12C83.92 38.8536 82.7749 40.256 81.3601 40.256H50.64C49.225 40.256 48.08 38.8536 48.08 37.12C48.08 35.3864 49.225 33.984 50.64 33.984ZM89.6799 47.424H51.2801C49.5112 47.424 48.08 48.8264 48.08 50.56C48.08 52.2938 49.5112 53.696 51.2801 53.696H89.6799C91.4486 53.696 92.88 52.2938 92.88 50.56C92.88 48.8264 91.4486 47.424 89.6799 47.424ZM36.6764 32.64H41.5636C42.6883 32.64 43.6 33.4757 43.6 34.5067V39.7333C43.6 40.7643 42.6883 41.6 41.5636 41.6H36.6764C35.5517 41.6 34.64 40.7643 34.64 39.7333V34.5067C34.64 33.4757 35.5517 32.64 36.6764 32.64ZM41.5636 20.544H36.6764C35.5517 20.544 34.64 21.3797 34.64 22.4107V27.6373C34.64 28.6683 35.5517 29.504 36.6764 29.504H41.5636C42.6883 29.504 43.6 28.6683 43.6 27.6373V22.4107C43.6 21.3797 42.6883 20.544 41.5636 20.544Z" fill="url(#paint0_linear_614_80)"/>
<path fill-rule="evenodd" clip-rule="evenodd" d="M10.759 73.7512L36.7185 92.6106C37.2344 92.961 41.55 96.256 42.2317 96.256C45.472 96.256 44.8682 93.8547 44.5257 92.9502C44.4387 92.7204 44.3458 92.4919 44.2762 92.2567L42.0015 84.5547C41.2261 81.929 43.2227 79.3041 45.9955 79.3041H75.5178C77.9343 79.3041 79.888 77.7944 79.888 75.9276V69.1708C79.8835 68.7233 79.7666 68.2811 79.5444 67.8689C79.3222 67.4568 78.9992 67.0831 78.5928 66.7695C78.1869 66.4559 77.7062 66.2086 77.1785 66.0411C76.6512 65.8735 76.0867 65.7898 75.5178 65.7947H46.0317C43.2533 65.7947 41.2558 63.1596 42.0415 60.5311L44.3386 52.8457C44.3667 52.7516 44.3977 52.6607 44.4279 52.5675C44.6168 51.9829 45.2333 49.6923 43.5873 48.917C42.7727 48.5333 41.8379 48.9511 41.117 49.4871C36.8543 52.6566 37.2592 52.3798 36.784 52.7046L10.7634 71.1241C10.5241 71.2872 10.3322 71.4888 10.2005 71.7155C10.0688 71.9417 10.0004 72.1877 10 72.4367C9.99959 72.6858 10.0671 72.9318 10.1981 73.1589C10.329 73.3856 10.5203 73.5872 10.759 73.7512Z" fill="url(#paint1_linear_614_80)"/>
<path fill-rule="evenodd" clip-rule="evenodd" d="M116.761 97.4952L90.8011 116.355C90.2855 116.705 85.9699 120 85.288 120C82.0476 120 82.6516 117.599 82.9943 116.694C83.0812 116.464 83.1739 116.236 83.2438 116.001L85.5183 108.299C86.2938 105.673 84.2971 103.048 81.5244 103.048H52.0021C49.5854 103.048 47.6318 101.538 47.6318 99.6715V92.9148C47.6363 92.4673 47.7532 92.0251 47.9754 91.6129C48.1974 91.2008 48.5208 90.8271 48.9268 90.5135C49.3328 90.1999 49.8135 89.9526 50.3412 89.7851C50.8686 89.6175 51.4331 89.5338 52.0021 89.5387H81.4881C84.2666 89.5387 86.2642 86.9036 85.4784 84.2751L83.1811 76.5897C83.1533 76.4956 83.1224 76.4047 83.0919 76.3115C82.9029 75.7269 82.2864 73.4362 83.9324 72.6612C84.7473 72.2772 85.6818 72.6952 86.4027 73.231C90.6654 76.4006 90.2608 76.1238 90.7357 76.4486L116.756 94.8681C116.996 95.0312 117.188 95.2328 117.319 95.4595C117.451 95.6857 117.519 95.9316 117.52 96.1807C117.52 96.4298 117.453 96.6758 117.322 96.9029C117.191 97.1296 117 97.3312 116.761 97.4952Z" fill="url(#paint2_linear_614_80)"/>
<defs>
<linearGradient id="paint0_linear_614_80" x1="63.7599" y1="55.04" x2="105.872" y2="8.448" gradientUnits="userSpaceOnUse">
<stop stop-color="#EB07FF"/>
<stop offset="1" stop-color="#001AFF"/>
</linearGradient>
<linearGradient id="paint1_linear_614_80" x1="31.504" y1="72.96" x2="60.176" y2="83.264" gradientUnits="userSpaceOnUse">
<stop stop-color="#00B59C"/>
<stop offset="1" stop-color="#9CFFAC"/>
</linearGradient>
<linearGradient id="paint2_linear_614_80" x1="88.8478" y1="106.112" x2="62.8638" y2="96.256" gradientUnits="userSpaceOnUse">
<stop stop-color="#FD3A84"/>
<stop offset="1" stop-color="#FFA68D"/>
</linearGradient>
</defs>
</svg>
