<svg width="192" height="192" viewBox="0 0 192 192" fill="none" xmlns="http://www.w3.org/2000/svg">
<path d="M68.9103 20.3044C74.7775 16.9226 81.8602 18.3032 88.3352 18.1641C85.7938 22.9692 81.7055 26.8005 79.1752 31.6163C69.4628 35.4476 66.7004 47.7548 56.4355 50.9546C45.1982 54.0796 33.3201 51.6288 21.8397 52.7739C17.2211 53.4803 14.0057 57.9965 14.2709 62.4056C14.2267 76.9709 14.3151 91.5469 14.1383 106.123C8.39257 110.232 6.06114 117.167 0.635873 121.555C0.470131 98.9419 0.425933 76.3181 0.569576 53.705C0.459081 47.6049 4.17169 41.0554 10.7682 39.8996C23.8949 38.9792 37.1653 39.8033 50.2589 38.594C57.5183 33.5855 61.1867 24.842 68.9103 20.3044Z" fill="#920DFF"/>
<path d="M88.3352 18.1641C96.3571 17.9928 104.379 18.1426 112.401 18.0677C117.771 18.0677 123.539 18.4958 128.08 21.578C131.837 24.1999 135.063 27.464 138.168 30.7602C134.433 34.0564 130.831 37.4917 127.505 41.1731C125.075 38.5832 122.997 35.6402 120.158 33.4463C117.66 31.5735 114.346 31.627 111.351 31.5735C100.622 31.627 89.9042 31.5842 79.1752 31.6163C81.7055 26.8005 85.7938 22.9692 88.3352 18.1641Z" fill="#9E14FF"/>
<path opacity="0.2" d="M56.4355 50.9546C66.7004 47.7548 69.4628 35.4476 79.1752 31.6163C89.9042 31.5842 100.622 31.627 111.351 31.5735C114.346 31.627 117.66 31.5735 120.158 33.4464C122.997 35.6402 125.075 38.5833 127.505 41.1731C131.008 44.983 134.688 48.7715 139.229 51.4255C144.522 54.208 150.753 54.0261 156.599 54.0796C165.781 53.9298 174.963 54.0796 184.134 53.8227C187.139 53.8549 189.106 51.4576 191.128 49.6811C190.73 52.988 188.211 56.0273 184.708 56.5303C179.062 57.2902 173.327 56.7337 167.648 56.9049C159.924 56.7872 152.101 57.5791 144.477 56.113C139.273 55.1605 135.417 51.3613 131.483 48.2364C127.041 44.6726 124.467 39.3645 119.727 36.1218C117.296 34.4202 114.136 34.6557 111.307 34.5058C102.456 34.5165 93.6168 34.5272 84.7773 34.4951C82.1585 34.5915 79.352 34.4309 76.9874 35.6723C69.5622 40.1885 66.391 49.2316 58.3139 52.9345C51.0765 56.3698 42.8115 55.0749 35.0548 55.321C29.276 55.5565 22.8894 54.2401 17.7183 57.4507C15.1438 59.3235 14.9338 62.7695 14.9117 65.6269C14.9559 94.8859 14.8565 124.156 14.8012 153.415C14.6686 157.064 15.3648 160.81 14.2156 164.363C13.9283 144.949 14.3372 125.536 14.1383 106.123C14.3151 91.5469 14.2267 76.9709 14.2709 62.4057C14.0057 57.9965 17.2211 53.4803 21.8397 52.774C33.3201 51.6289 45.1982 54.0796 56.4355 50.9546Z" fill="black"/>
<path d="M127.505 41.1731C130.831 37.4917 134.433 34.0564 138.168 30.7602C142.08 34.0242 144.466 39.9424 150.168 40.4775C161.88 40.7878 173.604 40.3491 185.305 40.8092C189.791 41.2694 191.327 45.9247 191.128 49.6811C189.106 51.4576 187.139 53.8548 184.134 53.8227C174.963 54.0796 165.781 53.9298 156.599 54.0796C150.753 54.0261 144.522 54.208 139.229 51.4255C134.688 48.7714 131.008 44.983 127.505 41.1731Z" fill="#AB1DFF"/>
<path d="M36.889 160.617C38.9884 157.759 42.9331 158.177 46.1043 158.134C65.717 158.262 85.3297 158.123 104.931 158.305C102.545 162.458 99.4067 166.15 96.9648 170.281C110.578 170.27 124.191 170.441 137.815 170.463C145.638 170.58 153.483 170.174 161.272 171.019C122.124 171.501 82.9652 171.201 43.806 171.329C40.8447 171.651 38.1929 170.313 36.0714 168.429C35.2537 165.893 34.8118 162.714 36.889 160.617Z" fill="#AB1DFF"/>
<path opacity="0.47" d="M0.0502524 57.0547C0.116549 55.9203 0.29334 54.8073 0.569576 53.705C0.425933 76.3181 0.470131 98.9419 0.635873 121.555C0.459082 136.495 0.425933 151.435 0.481181 166.374C-0.325428 163.175 0.138649 159.868 0.0834015 156.625C0.0613026 123.428 0.138648 90.2413 0.0502524 57.0547Z" fill="#36055D"/>
<path d="M51.0544 76.9923C55.1096 67.8743 64.9214 62.5448 74.5455 60.49C76.5233 62.3628 75.4626 65.3915 75.993 67.778C78.3244 68.2596 80.6558 68.8054 82.9652 69.394C81.363 71.9089 79.9708 74.5416 78.9542 77.3348C77.7277 76.8853 76.5012 76.4679 75.2637 76.0506C75.109 74.456 74.9433 72.8614 74.7775 71.2668C69.4959 73.5142 62.9988 75.1088 60.0486 80.3741C58.4686 85.8214 59.2641 91.5576 59.0431 97.144C57.4741 97.6363 55.9051 98.1071 54.4024 98.7493C53.872 101.146 54.9659 103.34 56.7117 104.978C54.9438 107.643 53.1428 110.275 51.2864 112.886C48.281 109.323 45.0988 105.513 44.0491 100.932C43.353 97.6363 46.5573 95.7527 48.1595 93.3662C48.734 87.8654 48.5793 82.1185 51.0544 76.9923Z" fill="#9C13FF"/>
<path d="M82.9652 69.394C88.1694 70.9029 92.9649 74.2526 95.2521 79.1327C97.3626 83.2315 97.451 87.8761 97.7603 92.3495C98.8321 94.9715 102.744 96.4912 102.003 99.7445C100.147 108.531 93.1527 114.898 87.2413 121.298C89.3959 125.001 92.3351 128.436 96.0587 130.748C99.926 133.199 104.854 131.615 108.964 133.209C112.268 134.75 112.6 138.753 111.462 141.749C107.594 144.842 102.125 144.436 97.6498 142.98C89.849 139.577 84.932 132.471 79.0316 126.842C75.5289 127.527 71.9599 127.826 68.5015 126.735C63.5292 132.985 58.0377 140.026 49.6622 141.867C44.4248 142.702 38.668 143.291 33.8394 140.658C33.519 137.768 33.5411 134.023 36.878 132.792C41.1652 131.872 45.7617 132.931 49.9384 131.422C54.5571 129.421 57.5736 125.258 60.3138 121.33C57.1095 118.719 54.0378 115.947 51.2864 112.886C53.1428 110.275 54.9438 107.643 56.7117 104.978C61.1425 109.087 65.0651 113.871 70.3246 117.039C73.6615 119.019 77.5951 116.942 79.8492 114.385C84.3353 109.59 90.092 105.47 92.2025 99.0596C90.9428 98.1928 89.6832 97.3366 88.4346 96.4591C88.0147 91.1509 90.4346 83.8736 85.0314 80.3741C83.1751 79.0685 81.0647 78.1695 78.9542 77.3348C79.9708 74.5416 81.363 71.9089 82.9652 69.394Z" fill="#A519FF"/>
<path d="M178.543 81.5299C179.394 76.8318 185.791 74.5844 189.493 77.7308C191.747 79.411 192.023 82.3326 191.979 84.8796C191.99 102.366 192.067 119.864 191.835 137.362C191.625 146.737 191.935 157.385 184.996 164.812C178.322 169.949 169.526 171.041 161.272 171.019C153.483 170.174 145.638 170.58 137.815 170.463C124.191 170.441 110.578 170.27 96.9648 170.281C99.4067 166.15 102.545 162.458 104.931 158.305C124.356 158.188 143.781 158.402 163.195 158.198C171.438 157.952 177.703 150.771 178.2 143.076C178.841 138.346 178.719 133.552 178.675 128.789C178.587 113.036 178.565 97.2831 178.543 81.5299Z" fill="#BC28FF"/>
<path d="M116.997 86.9772C116.799 83.36 118.036 78.7474 122.378 78.116C133.395 77.6773 144.444 78.1909 155.483 77.9876C157.958 78.0625 161.206 77.7736 162.72 80.1387C164.51 82.4503 164.035 85.5431 163.272 88.1223C161.438 89.7383 159.284 91.3115 156.654 91.076C146.345 91.0225 136.025 91.1295 125.715 91.0118C122.246 91.1509 119.362 89.2139 116.997 86.9772Z" fill="#AE1FFF"/>
<path opacity="0.25" d="M177.902 87.0307C177.813 85.1793 177.957 83.3064 178.543 81.5299C178.565 97.2831 178.587 113.036 178.675 128.789C178.72 133.552 178.841 138.346 178.2 143.076C177.615 124.412 178.189 105.716 177.902 87.0307Z" fill="#1A0525"/>
<path opacity="0.23" d="M116.997 86.9772C119.362 89.2139 122.246 91.1509 125.715 91.0118C136.025 91.1295 146.345 91.0225 156.654 91.076C159.284 91.3115 161.438 89.7383 163.272 88.1223C162.93 91.4078 160.079 93.8371 156.643 93.698C146.676 93.8371 136.687 93.7301 126.721 93.7301C122.489 93.8906 117.506 91.4078 116.997 86.9772Z" fill="#030004"/>
<path d="M122.787 97.2724C133.328 96.9942 143.881 97.0691 154.422 96.8336C156.786 96.8871 159.626 96.641 161.339 98.5673C163.549 100.601 163.206 103.758 163.482 106.433C161.538 108.135 159.527 110.211 156.643 109.879C145.936 109.965 135.218 109.911 124.5 109.901C122.025 110.104 120.025 108.574 118.036 107.396C116.843 103.512 117.903 97.9359 122.787 97.2724Z" fill="#B020FF"/>
<path d="M0.635871 121.555C6.06114 117.167 8.39257 110.232 14.1383 106.123C14.3372 125.536 13.9283 144.949 14.2156 164.363C14.1604 167.841 11.177 171.233 7.43127 171.094C4.28218 171.319 1.74081 168.943 0.481179 166.374C0.425932 151.435 0.45908 136.495 0.635871 121.555Z" fill="#9A12FF"/>
<path opacity="0.22" d="M156.643 109.879C159.527 110.211 161.538 108.135 163.482 106.433C163.25 110.372 159.427 112.961 155.527 112.715C145.196 112.758 134.842 112.822 124.511 112.705C121.196 113.1 118.489 110.425 118.036 107.396C120.025 108.574 122.025 110.104 124.5 109.901C135.218 109.911 145.936 109.965 156.643 109.879Z" fill="black"/>
<path opacity="0.22" d="M68.5015 126.735C71.9599 127.826 75.5289 127.527 79.0316 126.842C84.932 132.471 89.849 139.577 97.6499 142.98C102.125 144.436 107.594 144.842 111.462 141.749C110.766 144.767 107.937 146.886 104.699 146.383C97.8819 147.272 92.755 142.413 87.9595 138.582C84.8546 136.227 83.3519 132.364 79.9929 130.277C76.225 129.795 72.3577 129.967 68.5788 130.277C64.4574 133.37 61.4188 137.597 57.3526 140.765C52.303 144.489 45.6954 145.816 39.4636 145.099C36.878 144.789 34.3919 143.248 33.8394 140.658C38.668 143.291 44.4248 142.702 49.6622 141.867C58.0377 140.026 63.5292 132.985 68.5015 126.735Z" fill="black"/>
<path opacity="0.24" d="M161.272 171.019C169.526 171.04 178.322 169.949 184.996 164.812C183.526 169.51 178.034 171.169 173.648 172.303C165.825 173.523 157.891 174.112 149.969 173.876C114.964 174.037 79.9597 173.93 44.9551 173.984C41.2204 174.198 36.8006 172.325 36.0714 168.429C38.1929 170.313 40.8447 171.651 43.806 171.329C82.9652 171.201 122.124 171.501 161.272 171.019Z" fill="#030105"/>
</svg>
