<svg width="32" height="32" viewBox="0 0 32 32" fill="none" xmlns="http://www.w3.org/2000/svg">
<path fill-rule="evenodd" clip-rule="evenodd" d="M27.4912 28.2845C26.4064 27.6005 25.5751 26.5398 25.1368 25.28L25.1247 25.2392C25.084 25.1203 25.0822 24.9902 25.1198 24.8701C25.1573 24.75 25.232 24.647 25.3315 24.5779L25.3337 24.5767C28.163 22.3922 29.9858 18.8862 30 14.9253V14.923C30 7.79318 23.7319 2 16 2C8.26805 2.07465 2 7.8655 2 14.9195C2 22.0458 8.26805 27.8378 16 27.8378L16.1619 27.839C17.14 27.839 18.0952 27.7293 19.0164 27.5229L18.9267 27.5392C19.0232 27.5053 19.1269 27.5012 19.2255 27.5277C19.3241 27.5541 19.4136 27.6099 19.4836 27.6885C21.6626 29.1094 24.1505 29.9028 26.7035 29.9909L26.7287 29.992C26.8671 30.0103 27.0077 29.9971 27.1411 29.9534C27.2744 29.9097 27.3976 29.8365 27.5026 29.7384C27.6075 29.6404 27.6919 29.5199 27.7501 29.3847C27.8083 29.2495 27.839 29.1027 27.8403 28.954C27.9607 28.7604 27.7696 28.5677 27.5808 28.3773C27.5501 28.3463 27.5194 28.3154 27.4902 28.2845H27.4912ZM23.7287 27.0972C23.769 27.1343 23.7945 27.1865 23.7998 27.243V27.2441C23.7977 27.283 23.7823 27.3197 23.7564 27.3472C23.7306 27.3748 23.6962 27.3912 23.6597 27.3934C22.1808 26.9533 20.8027 26.1937 19.6108 25.162C19.5177 25.0746 19.4046 25.0149 19.2829 24.9892C19.1589 24.9629 19.0306 24.9727 18.9114 25.0176L18.9168 25.0164C17.9599 25.2587 16.9802 25.3839 15.9967 25.3897H15.9912C9.51532 25.3897 4.28993 20.7885 4.28993 15.0664C4.28993 9.34441 9.51532 4.74322 15.9912 4.74322C22.4672 4.74322 27.6937 9.34441 27.6937 15.0664C27.6487 16.7527 27.1923 18.3973 26.3694 19.8382C25.5466 21.2791 24.3856 22.4664 23.0011 23.2833L22.954 23.3089C22.8384 23.3755 22.7398 23.4712 22.6667 23.5876C22.5937 23.7041 22.5485 23.8379 22.535 23.9772V23.9807C22.7027 25.1121 23.1139 26.1868 23.7363 27.1205L23.7221 27.0972H23.7287ZM23.6597 17.9636V17.96L23.66 17.9566L23.6597 17.9636ZM23.66 17.9566L23.6608 17.931C23.6608 17.9368 23.6607 17.9427 23.6604 17.9486C23.6603 17.9513 23.6601 17.9539 23.66 17.9566ZM23.6597 17.9508V17.96C23.6498 18.095 23.574 18.2536 23.5014 18.4055C23.4556 18.5013 23.4111 18.5945 23.3851 18.6774L23.3709 18.6984C22.5087 19.8733 21.3977 20.8138 20.1289 21.4429C18.8601 22.0719 17.4695 22.3717 16.0711 22.3175H16.0098L15.8151 22.3199C14.4545 22.3204 13.1106 22.0012 11.8789 21.3849C10.6473 20.7686 9.55821 19.8705 8.68928 18.7544L8.68709 18.7532C8.5846 18.6646 8.50069 18.554 8.44076 18.4286C8.38083 18.3033 8.34622 18.1659 8.33917 18.0254V18.0278C8.33048 17.9439 8.33831 17.859 8.36215 17.7785C8.386 17.698 8.42533 17.6238 8.47764 17.5604C8.52996 17.4971 8.59409 17.4461 8.66595 17.4107C8.73781 17.3753 8.81581 17.3562 8.89497 17.3548H8.89825C9.02407 17.3715 9.14362 17.423 9.24508 17.5041L9.22553 17.4874C11.1494 19.1277 13.5365 20.0275 16 20.0409H15.9902L16.1805 20.0432C18.5818 20.0481 20.9084 19.1536 22.7538 17.5157C22.8497 17.4224 22.9741 17.3694 23.1039 17.3665H23.1116C23.1836 17.3663 23.255 17.3813 23.3215 17.4106C23.3881 17.4399 23.4486 17.483 23.4995 17.5373C23.5504 17.5916 23.5908 17.656 23.6183 17.727C23.6458 17.798 23.6599 17.874 23.6597 17.9508ZM13 12C13 13.1046 12.1046 14 11 14C9.89543 14 9 13.1046 9 12C9 10.8954 9.89543 10 11 10C12.1046 10 13 10.8954 13 12ZM21 14C22.1046 14 23 13.1046 23 12C23 10.8954 22.1046 10 21 10C19.8954 10 19 10.8954 19 12C19 13.1046 19.8954 14 21 14Z" fill="url(#paint0_linear)"/>
<defs>
<linearGradient id="paint0_linear" x1="16" y1="30" x2="16" y2="2" gradientUnits="userSpaceOnUse">
<stop stop-color="#5570FF"/>
<stop offset="1" stop-color="#4DD3FF"/>
</linearGradient>
</defs>
</svg>
