<svg width="128" height="128" viewBox="0 0 128 128" fill="none" xmlns="http://www.w3.org/2000/svg">
<path fill-rule="evenodd" clip-rule="evenodd" d="M120.613 14.4266C118.638 8.94427 112.15 5.75374 106.551 7.46135C104.26 8.08298 102.255 9.47602 100.703 11.2435C92.3593 20.3532 84.0091 29.4562 75.6584 38.5598L75.6499 38.569C68.7827 46.0555 61.915 53.5423 55.0503 61.0337C50.4836 65.6247 50.9433 73.9531 56.0828 77.9375C60.544 81.7871 67.9442 81.3527 71.9232 77.0237C87.3868 60.2098 102.821 43.3735 118.254 26.5371C121.291 23.3765 122.188 18.4859 120.613 14.4266ZM81.4703 44.9613C90.287 35.3202 99.1044 25.6784 108.043 16.1566C109.339 15.1381 111.419 15.565 112.263 16.9655C113.318 18.3436 112.58 20.1935 111.419 21.257C105.338 27.8748 99.2649 34.5011 93.1919 41.1275L93.1893 41.1304L93.1868 41.1332C84.0519 51.1006 74.9166 61.0687 65.7513 71.0097C64.3798 72.7173 61.2373 72.1331 60.6646 69.9986C59.9783 68.3312 61.2435 66.9681 62.3129 65.8159C62.406 65.7157 62.4976 65.617 62.5862 65.5199C68.9093 58.6968 75.1892 51.8297 81.4695 44.9621L81.4703 44.9613ZM79.3723 9.21379C71.3921 6.89205 62.8845 6.51008 54.6783 7.71589C34.0761 10.6967 15.9004 25.7805 9.22389 45.3655C5.43351 56.098 5.00398 67.9388 7.83735 78.9409C8.2518 81.1428 10.6406 82.6931 12.8334 82.1914C15.2523 81.8468 16.8951 79.1656 16.1566 76.8588C13.6397 66.9278 14.1371 56.2103 17.935 46.6687C22.7427 34.2811 32.9081 24.0879 45.3116 19.1673C54.8742 15.2802 65.6877 14.5687 75.6949 17.0927C77.413 17.602 79.5154 17.6619 80.8191 16.2464C83.027 14.2841 82.2056 10.1275 79.3723 9.21379ZM113.906 49.1254C116.197 47.9046 119.43 49.3051 119.972 51.859C122.806 64.2916 121.329 77.6678 115.76 89.1642C106.611 108.584 85.6994 122.193 63.9961 121.699C60.8763 121.916 58.6231 118.186 60.1604 115.52C61.0948 113.49 63.5063 113.101 65.5108 113.146C80.6956 112.973 95.3002 104.757 103.906 92.4221C111.607 81.5998 114.471 67.587 111.773 54.6152C111.155 52.5631 111.849 50.0765 113.906 49.1254ZM57.2254 87.921C54.3393 79.7724 45.0781 74.5597 36.5629 76.4546C29.3966 77.8102 23.4209 83.8617 22.2981 91.0366C21.6425 95.7325 20.3916 100.646 17.0986 104.233C14.4762 107.049 10.7235 108.307 7.12908 109.356C6.20974 109.521 5.96861 110.944 6.48856 111.573C9.36714 115.422 14.0768 117.692 18.8393 118.014C30.3612 118.658 42.4482 115.849 51.4456 108.39C57.5419 103.739 60.006 95.0435 57.2254 87.921ZM30.6626 93.2535C30.9263 90.3476 32.6218 87.6439 35.1161 86.1235C38.9366 83.637 44.4225 84.4458 47.3463 87.921C50.6996 91.486 50.4962 97.5824 46.9243 100.923C40.7226 106.577 32.2677 109.184 23.9786 109.506C27.7991 104.915 29.8488 99.1028 30.6626 93.2535Z" fill="url(#paint0_linear_641_139)" stroke="url(#paint1_linear_641_139)" stroke-width="3"/>
<defs>
<linearGradient id="paint0_linear_641_139" x1="112.5" y1="9" x2="11.5" y2="117.5" gradientUnits="userSpaceOnUse">
<stop stop-color="#FFC700"/>
<stop offset="0.1987" stop-color="#FF49AB"/>
<stop offset="0.37955" stop-color="#BA49FF"/>
<stop offset="0.53125" stop-color="#5849FF"/>
<stop offset="0.84375" stop-color="#1EFFD6"/>
<stop offset="0.9999" stop-color="#00FFFF"/>
</linearGradient>
<linearGradient id="paint1_linear_641_139" x1="112.5" y1="9" x2="11.5" y2="117.5" gradientUnits="userSpaceOnUse">
<stop stop-color="#FFC700"/>
<stop offset="0.1987" stop-color="#FF49AB"/>
<stop offset="0.37955" stop-color="#BA49FF"/>
<stop offset="0.53125" stop-color="#5849FF"/>
<stop offset="0.84375" stop-color="#1EFFD6"/>
<stop offset="0.9999" stop-color="#00FFFF"/>
</linearGradient>
</defs>
</svg>
