<svg width="64" height="64" viewBox="0 0 64 64" fill="none" xmlns="http://www.w3.org/2000/svg">
<path d="M63.1307 1.64995C62.6344 0.00305139 60.2978 -0.620439 59.1474 0.757495C39.7015 20.1369 20.2791 39.5357 0.844896 58.9267C-0.0365799 59.6687 -0.207118 60.9141 0.234491 61.9411C0.285606 62.06 0.367801 62.1625 0.468388 62.2439C1.0611 62.7236 1.7559 63.1051 2.5467 63.0514C6.78951 63.0864 11.0323 63.0514 15.2751 63.0592C18.9129 63.0631 22.5507 63.067 26.1846 63.0592L26.1962 63.0592C30.0956 63.0631 33.9911 63.067 37.8865 63.0592C40.9311 63.0631 43.9756 63.0593 47.0201 63.0631C51.3292 63.0631 55.6345 63.0554 59.9437 63.0709C60.818 63.0359 61.8641 63.1331 62.5237 62.4372C63.1118 61.9427 63.2392 61.1792 63.2958 60.455C63.3078 60.3014 63.2833 60.1464 63.2153 60.0081C62.8093 59.1832 62.0728 58.4423 61.0912 58.4603C57.4846 58.4097 53.8781 58.4604 50.2715 58.4448C47.1528 58.4409 44.0341 58.4409 40.9154 58.4486C37.0083 58.433 33.1012 58.4447 29.1901 58.4447C25.5484 58.4369 21.9067 58.4408 18.2689 58.4447C14.9539 58.4223 11.6389 58.4646 8.32385 58.4227C8.17754 58.4209 8.10565 58.2476 8.20639 58.1415C8.99782 57.3111 9.81263 56.504 10.6237 55.695C11.0157 55.3039 11.6511 55.3029 12.0425 55.6946C12.4985 56.151 12.9544 56.6077 13.4095 57.065C13.7997 57.4571 14.4342 57.4592 14.8249 57.0676C15.1121 56.7799 15.3987 56.4916 15.6848 56.2027C16.087 55.7966 16.0649 55.1368 15.6524 54.7411C15.2552 54.36 14.8668 53.9695 14.4828 53.5775L14.3174 53.4061C13.9365 53.0113 13.9411 52.3832 14.3297 51.9961L15.1935 51.1357C15.5808 50.75 16.2062 50.7465 16.5967 51.129C16.872 51.3987 17.1468 51.6687 17.4211 51.9394C17.813 52.3263 18.4436 52.3261 18.8345 51.9381C19.1157 51.659 19.3974 51.3805 19.6801 51.1035C20.0889 50.7029 20.0853 50.0415 19.6764 49.641C19.4553 49.4246 19.2359 49.207 19.0183 48.9902L18.884 48.8561C18.495 48.4671 18.497 47.836 18.8866 47.4474C19.1765 47.1582 19.467 46.8692 19.7581 46.5806C20.1492 46.1928 20.7804 46.1961 21.1699 46.5855C21.4405 46.8559 21.7113 47.126 21.9818 47.3965C22.3707 47.7851 23.0004 47.7892 23.3895 47.4008C23.6797 47.1111 23.9686 46.8203 24.2576 46.5289C24.6485 46.1349 24.6434 45.4984 24.2534 45.1035C23.9957 44.8425 23.7404 44.5791 23.488 44.3133C23.1054 43.9103 23.1396 43.2734 23.5513 42.9001C23.8681 42.6129 24.065 42.4276 24.3348 42.1623C24.7111 41.7923 25.3088 41.7709 25.6963 42.129C26.7453 43.0984 27.802 44.1646 28.8216 45.1667C29.2078 45.5461 29.826 45.5437 30.2104 45.1626C30.5164 44.859 30.8213 44.5541 31.1243 44.2475C31.5083 43.859 31.5029 43.2339 31.1161 42.8482C30.0943 41.8293 29.0704 40.8121 28.0465 39.7923L28.0201 39.7656C27.6291 39.3705 27.6253 38.7329 28.0181 38.3396L28.8746 37.4822C29.2631 37.0933 29.8926 37.0908 30.2831 37.4777C30.5444 37.7365 30.8054 37.9956 31.0667 38.2549L31.1058 38.2937C31.4952 38.6802 32.1231 38.6802 32.5127 38.2938C33.0186 37.7919 33.5245 37.2906 34.0341 36.7911C34.0731 36.75 34.0721 36.6853 34.0319 36.6454C33.5522 36.1697 33.0756 35.6924 32.5977 35.2146C32.2061 34.823 32.2062 34.1875 32.5986 33.7967L33.4434 32.9553C33.8329 32.5674 34.4636 32.5653 34.854 32.9523C35.1038 33.2 35.3524 33.4493 35.5962 33.7026C35.9977 34.1197 36.6685 34.1421 37.0788 33.7336C37.5187 33.2955 37.9591 32.8585 38.3979 32.4215C38.5458 32.274 38.5445 32.034 38.3948 31.8883C37.9901 31.4943 37.5864 31.0994 37.1879 30.6993L37.1442 30.6557C36.7524 30.2656 36.7516 29.6316 37.1423 29.2404C37.4271 28.9551 37.7116 28.67 37.9959 28.3847C38.3846 27.9946 39.0156 27.9912 39.4067 28.3789C40.4428 29.4058 41.4734 30.4377 42.5076 31.4646C42.8966 31.8508 43.5239 31.8504 43.913 31.4643L43.9498 31.4278C44.436 30.9452 44.9223 30.4627 45.412 29.9801C45.46 29.9301 45.46 29.8512 45.4119 29.8014C44.1837 28.5288 42.8524 27.346 41.6755 26.0236C41.3298 25.6351 41.3687 25.0467 41.7395 24.6821C42.0127 24.4135 42.284 24.1427 42.5537 23.8701C42.9183 23.5016 43.5047 23.4654 43.891 23.8112C44.1967 24.0849 44.4948 24.3671 44.7878 24.6548C45.1793 25.0392 45.806 25.0525 46.1991 24.6696C46.4985 24.3781 46.7966 24.0849 47.0941 23.791C47.473 23.4168 47.4915 22.8105 47.1267 22.4226C46.8518 22.1305 46.5728 21.842 46.2917 21.556C45.9019 21.1597 45.9027 20.5222 46.2977 20.131C46.5529 19.8782 46.8079 19.6251 47.0631 19.3718L47.1226 19.3127C47.5113 18.927 48.1377 18.9263 48.5274 19.3111C48.8049 19.5852 49.0827 19.8591 49.3618 20.1321C49.7569 20.5185 50.3903 20.5053 50.7768 20.1103C51.0655 19.8151 51.356 19.5209 51.6465 19.2268C52.0343 18.8342 52.0297 18.2019 51.6367 17.8145L51.1887 17.3728L50.8231 17.0087C50.4321 16.6192 50.4305 15.9868 50.8198 15.5957L50.8711 15.5442C51.1387 15.2753 51.4062 15.0065 51.6734 14.7376C52.0603 14.3482 52.6889 14.3417 53.0808 14.7261C53.5716 15.2074 54.06 15.6904 54.5476 16.1746C54.9377 16.562 55.5671 16.5628 55.9569 16.1751C56.2435 15.89 56.53 15.6048 56.8167 15.3201C57.2235 14.9161 57.2098 14.2538 56.7959 13.8569C56.5187 13.5911 56.2453 13.3221 55.9741 13.0499C55.7729 12.8495 55.5734 12.6483 55.3747 12.4467C54.9885 12.0546 54.9948 11.4235 55.385 11.0354C55.8566 10.5665 56.327 10.0963 56.7986 9.62711C57.436 8.99284 58.5357 9.46622 58.5535 10.3653C58.556 10.4904 58.5588 10.6155 58.5619 10.7407C58.5423 18.4769 58.5423 26.2131 58.558 33.9493C58.5424 39.8661 58.558 45.7791 58.5424 51.6959C58.5289 52.2456 58.6122 52.7952 58.7951 53.3144C58.8502 53.4709 58.953 53.6055 59.0838 53.7075C59.4266 53.975 59.7831 54.226 60.1679 54.4315C60.2791 54.4909 60.4025 54.5251 60.5286 54.5271C61.4556 54.5418 62.2992 54.1451 62.8852 53.4354C62.9747 53.327 63.0313 53.1955 63.055 53.0569C63.1531 52.4816 63.1725 51.8932 63.1795 51.311C63.16 43.6176 63.1755 35.9242 63.1638 28.2307C63.1794 20.4712 63.1638 12.7117 63.1677 4.95215C63.1715 3.9237 63.1826 2.89525 63.1622 1.8668C63.1608 1.79355 63.1519 1.7201 63.1307 1.64995Z" fill="url(#paint0_linear)"/>
<defs>
<linearGradient id="paint0_linear" x1="9.2719" y1="53.8343" x2="53.8694" y2="9.06626" gradientUnits="userSpaceOnUse">
<stop stop-color="#0072FF"/>
<stop offset="1" stop-color="#00E5A1"/>
</linearGradient>
</defs>
</svg>
