<svg width="64" height="64" viewBox="0 0 64 64" fill="none" xmlns="http://www.w3.org/2000/svg">
<path d="M5 5.9298C5 5.41629 5.41684 5 5.93103 5H26.9087C27.185 5 27.447 5.12257 27.6239 5.33456L31.7207 10.2443C31.8976 10.4562 32.1596 10.5788 32.4359 10.5788L58.069 10.5791C58.5831 10.5791 59 12.8551 59 13.3686C58.9962 13.4799 58.6642 13.5747 58.5702 13.5146C58.4255 13.4222 58.2535 13.3685 58.069 13.3685L32.3857 13.3682C32.1387 13.3682 31.9019 13.4662 31.7273 13.6406L26.6865 18.6748C26.5119 18.8492 26.2751 18.9472 26.0281 18.9472L5.93103 18.9471C5.41684 18.9471 5 19.3634 5 19.8769V5.9298Z" stroke="url(#paint0_linear)" stroke-width="5"/>
<path d="M5 20.8058V20.8176C5 20.8176 5.00044 20.8141 5.0009 20.8123L5.0018 20.8077L5.00092 20.8067L5 20.8058Z" stroke="url(#paint1_linear)" stroke-width="5"/>
<path d="M32.415 13.3684C32.1493 13.3684 31.8946 13.4741 31.707 13.6622L26.7068 18.6748C26.5192 18.8628 26.2645 18.9685 25.9988 18.9685L5.93333 18.9685C5.41787 18.9685 5 19.3864 5 19.9018V20.8343C5 20.8348 5.00041 20.8352 5.00092 20.8352V20.8352C5.00143 20.8352 5.00184 20.8356 5.0018 20.8361C5.00151 20.8395 5 20.8429 5 20.8461V54.4351V54.4351C5 54.9493 5.41684 55.3684 5.93103 55.3684V55.3684H58.069V55.3684C58.5832 55.3684 59 54.9493 59 54.4351V54.4351V20.8461V20.8352V14.3687C59 13.8165 58.5523 13.3687 58 13.3687L32.415 13.3684Z" stroke="url(#paint2_linear)" stroke-width="5"/>
<path d="M22 29L30.3176 49L33.2706 40.3059L42 37.3176L22 29Z" fill="url(#paint3_linear)" stroke="url(#paint4_linear)" stroke-width="2" stroke-linecap="round" stroke-linejoin="round"/>
<defs>
<linearGradient id="paint0_linear" x1="4.99209" y1="12.6744" x2="58.9882" y2="12.6744" gradientUnits="userSpaceOnUse">
<stop stop-color="#FD3A84"/>
<stop offset="1" stop-color="#FFA68D"/>
</linearGradient>
<linearGradient id="paint1_linear" x1="4.99209" y1="12.6744" x2="58.9882" y2="12.6744" gradientUnits="userSpaceOnUse">
<stop stop-color="#FD3A84"/>
<stop offset="1" stop-color="#FFA68D"/>
</linearGradient>
<linearGradient id="paint2_linear" x1="32" y1="55.3684" x2="32" y2="13.3684" gradientUnits="userSpaceOnUse">
<stop stop-color="#FD3A84"/>
<stop offset="1" stop-color="#FFA68D"/>
</linearGradient>
<linearGradient id="paint3_linear" x1="32" y1="49" x2="32" y2="29" gradientUnits="userSpaceOnUse">
<stop stop-color="#FD3A84"/>
<stop offset="1" stop-color="#FFA68D"/>
</linearGradient>
<linearGradient id="paint4_linear" x1="32" y1="49" x2="32" y2="29" gradientUnits="userSpaceOnUse">
<stop stop-color="#FD3A84"/>
<stop offset="1" stop-color="#FFA68D"/>
</linearGradient>
</defs>
</svg>
