<svg width="64" height="64" viewBox="0 0 64 64" fill="none" xmlns="http://www.w3.org/2000/svg">
<path fill-rule="evenodd" clip-rule="evenodd" d="M51.2321 11.6816C45.1723 5.80477 36.3257 3.05468 27.9912 4.29076C22.3154 5.10262 16.8956 7.70277 12.7593 11.6816C11.8706 12.4971 12.0206 14.0733 12.9824 14.7718C13.8674 15.4776 15.1913 15.2289 15.9227 14.4207C20.2053 10.4675 25.9835 8.1855 31.8129 8.18184C37.6057 8.10504 43.3986 10.2481 47.7176 14.1136C48.3649 14.706 49.133 15.3752 50.0911 15.1521C51.6673 14.9766 52.4023 12.7531 51.2321 11.6816ZM21.5618 15.4338C20.6512 15.3863 19.7222 15.964 19.4736 16.8637C19.0054 18.0632 19.9965 19.5115 21.2656 19.5699C22.5957 19.6281 23.9278 19.6158 25.2593 19.6035C26.6075 19.5911 27.9553 19.5787 29.3002 19.6394C29.7681 19.8892 29.7606 20.3755 29.7534 20.8384C29.7514 20.9652 29.7495 21.0903 29.7573 21.2083C29.7472 24.8134 29.7483 28.4175 29.7495 32.0216C29.7504 34.9069 29.7513 37.7923 29.7464 40.6783C29.3138 40.686 28.8812 40.6803 28.4488 40.6746C27.6419 40.664 26.8355 40.6533 26.0307 40.7295C25.4822 40.9672 25.815 41.6072 26.0272 41.9619C26.7488 43.2556 27.4646 44.5533 28.1806 45.8513C29.1627 47.6316 30.1451 49.4126 31.1434 51.1849C31.4067 51.8433 32.2478 51.814 32.5112 51.1704C33.4302 49.6126 34.3354 48.0459 35.2405 46.479C36.0715 45.0406 36.9025 43.6022 37.7444 42.1704C37.7832 42.0854 37.8378 41.9914 37.8953 41.8924C38.1196 41.5064 38.3873 41.0454 37.9273 40.7514C37.0755 40.6461 36.2161 40.6607 35.3569 40.6752C34.8735 40.6833 34.3901 40.6915 33.9082 40.6783C33.9033 37.7955 33.9042 34.9126 33.9051 32.0297C33.9062 28.4214 33.9074 24.813 33.8972 21.2046C33.9031 21.0946 33.9017 20.9794 33.9004 20.8627C33.895 20.3973 33.8894 19.9092 34.3397 19.6431C35.7798 19.5783 37.222 19.5894 38.6646 19.6006C39.9074 19.6102 41.1504 19.6198 42.3926 19.5809C43.6178 19.6284 44.6418 18.3887 44.415 17.1892C44.2651 16.0774 43.1423 15.3351 42.0635 15.4302C39.9628 15.4302 37.8617 15.4288 35.7604 15.4274C31.0283 15.4243 26.2951 15.4211 21.5618 15.4338Z" fill="url(#paint0_linear_678_401)"/>
<path d="M27.9912 4.29076L28.1328 5.2807L28.1379 5.27994L27.9912 4.29076ZM51.2321 11.6816L50.536 12.3995L50.5463 12.4095L50.5568 12.4191L51.2321 11.6816ZM12.7593 11.6816L13.4355 12.4184L13.4441 12.4105L13.4526 12.4023L12.7593 11.6816ZM12.9824 14.7718L13.6059 13.99L13.5883 13.9759L13.5701 13.9627L12.9824 14.7718ZM15.9227 14.4207L15.2444 13.6859L15.2114 13.7164L15.1813 13.7497L15.9227 14.4207ZM31.8129 8.18184L31.8135 9.18192L31.8261 9.18175L31.8129 8.18184ZM47.7176 14.1136L48.3928 13.3758L48.3845 13.3684L47.7176 14.1136ZM50.0911 15.1521L49.9804 14.1583L49.9218 14.1648L49.8643 14.1782L50.0911 15.1521ZM19.4736 16.8637L20.4052 17.2273L20.4238 17.1795L20.4375 17.1301L19.4736 16.8637ZM21.5618 15.4338L21.5097 16.4325L21.5371 16.4339L21.5645 16.4338L21.5618 15.4338ZM21.2656 19.5699L21.2196 20.5688L21.2219 20.5689L21.2656 19.5699ZM25.2593 19.6035L25.2685 20.6035L25.2685 20.6035L25.2593 19.6035ZM29.3002 19.6394L29.7711 18.7572L29.5714 18.6506L29.3453 18.6404L29.3002 19.6394ZM29.7534 20.8384L30.7533 20.8539L30.7533 20.8539L29.7534 20.8384ZM29.7573 21.2083L30.7573 21.2111L30.7574 21.1764L30.7551 21.1417L29.7573 21.2083ZM29.7495 32.0216L30.7495 32.0213L30.7495 32.0213L29.7495 32.0216ZM29.7464 40.6783L29.7641 41.6782L30.7447 41.6608L30.7464 40.68L29.7464 40.6783ZM28.4488 40.6746L28.4356 41.6745L28.4356 41.6745L28.4488 40.6746ZM26.0307 40.7295L25.9365 39.7339L25.7786 39.7489L25.6331 39.8119L26.0307 40.7295ZM26.0272 41.9619L26.9005 41.4748L26.8931 41.4616L26.8854 41.4487L26.0272 41.9619ZM28.1806 45.8513L29.0562 45.3682L29.0562 45.3682L28.1806 45.8513ZM31.1434 51.1849L32.072 50.8136L32.0473 50.752L32.0147 50.6942L31.1434 51.1849ZM32.5112 51.1704L31.6499 50.6622L31.6131 50.7246L31.5857 50.7917L32.5112 51.1704ZM35.2405 46.479L34.3747 45.9788L34.3747 45.9788L35.2405 46.479ZM37.7444 42.1704L38.6064 42.6773L38.6327 42.6326L38.6543 42.5854L37.7444 42.1704ZM37.8953 41.8924L37.0306 41.3901L37.0306 41.3901L37.8953 41.8924ZM37.9273 40.7514L38.4659 39.9088L38.2749 39.7868L38.05 39.759L37.9273 40.7514ZM35.3569 40.6752L35.3738 41.675L35.3738 41.675L35.3569 40.6752ZM33.9082 40.6783L32.9082 40.68L32.9098 41.6514L33.8808 41.678L33.9082 40.6783ZM33.9051 32.0297L32.9051 32.0294L32.9051 32.0294L33.9051 32.0297ZM33.8972 21.2046L32.8986 21.1512L32.8971 21.1793L32.8972 21.2074L33.8972 21.2046ZM33.9004 20.8627L32.9005 20.8742L32.9005 20.8743L33.9004 20.8627ZM34.3397 19.6431L34.2948 18.6441L34.0457 18.6553L33.8311 18.7821L34.3397 19.6431ZM38.6646 19.6006L38.6724 18.6006L38.6724 18.6006L38.6646 19.6006ZM42.3926 19.5809L42.4314 18.5816L42.3964 18.5803L42.3613 18.5814L42.3926 19.5809ZM44.415 17.1892L43.424 17.3229L43.4275 17.349L43.4324 17.375L44.415 17.1892ZM42.0635 15.4302V16.4302H42.1074L42.1512 16.4263L42.0635 15.4302ZM35.7604 15.4274L35.761 14.4274L35.761 14.4274L35.7604 15.4274ZM28.1379 5.27994C36.1724 4.08836 44.7052 6.74479 50.536 12.3995L51.9283 10.9637C45.6394 4.86476 36.4791 2.021 27.8445 3.30158L28.1379 5.27994ZM13.4526 12.4023C17.4343 8.57215 22.6598 6.06354 28.1328 5.28068L27.8496 3.30084C21.9711 4.1417 16.3569 6.83339 12.0661 10.9609L13.4526 12.4023ZM13.5701 13.9627C13.3589 13.8093 13.2006 13.5267 13.1738 13.1909C13.1471 12.858 13.2569 12.5823 13.4355 12.4184L12.0832 10.9448C11.3731 11.5964 11.1135 12.5166 11.1801 13.3503C11.2465 14.181 11.6441 15.0357 12.3948 15.5809L13.5701 13.9627ZM15.1813 13.7497C14.7299 14.2485 13.9967 14.3017 13.6059 13.99L12.3589 15.5536C13.7381 16.6536 15.6527 16.2094 16.6642 15.0917L15.1813 13.7497ZM31.8122 7.18184C25.7293 7.18566 19.7098 9.56391 15.2444 13.6859L16.601 15.1555C20.7007 11.3711 26.2376 9.18534 31.8135 9.18184L31.8122 7.18184ZM48.3845 13.3684C43.8765 9.33374 37.8401 7.10185 31.7996 7.18193L31.8261 9.18175C37.3714 9.10824 42.9207 11.1624 47.0507 14.8587L48.3845 13.3684ZM49.8643 14.1782C49.6894 14.2189 49.5105 14.1933 49.2654 14.0601C48.9948 13.913 48.7244 13.6794 48.3928 13.3759L47.0425 14.8512C47.3582 15.1402 47.7954 15.5374 48.3102 15.8172C48.8504 16.1109 49.5346 16.3084 50.3178 16.1261L49.8643 14.1782ZM50.5568 12.4191C50.783 12.6262 50.8853 13.0043 50.7418 13.4399C50.5981 13.8759 50.2885 14.124 49.9804 14.1583L50.2017 16.146C51.4698 16.0048 52.3159 15.0533 52.6413 14.0658C52.9668 13.0779 52.8515 11.8085 51.9075 10.9441L50.5568 12.4191ZM20.4375 17.1301C20.5445 16.7428 21.0023 16.406 21.5097 16.4325L21.614 14.4352C20.3001 14.3666 18.8999 15.1853 18.5097 16.5974L20.4375 17.1301ZM21.3116 18.5709C21.05 18.5589 20.7539 18.3941 20.5489 18.0881C20.3453 17.7842 20.3127 17.4641 20.4052 17.2273L18.5421 16.5001C18.1663 17.4628 18.3952 18.4666 18.8873 19.2013C19.3781 19.9339 20.2121 20.5224 21.2196 20.5688L21.3116 18.5709ZM25.2501 18.6036C23.9141 18.6159 22.6086 18.6277 21.3093 18.5708L21.2219 20.5689C22.5829 20.6285 23.9414 20.6157 25.2685 20.6035L25.2501 18.6036ZM29.3453 18.6404C27.9687 18.5783 26.5937 18.5912 25.2501 18.6036L25.2685 20.6035C26.6213 20.591 27.9418 20.5791 29.2551 20.6384L29.3453 18.6404ZM30.7533 20.8539C30.7564 20.6546 30.7692 20.2721 30.6718 19.9033C30.5578 19.4724 30.2912 19.0348 29.7711 18.7572L28.8293 20.5216C28.8212 20.5172 28.7925 20.4982 28.7652 20.4612C28.7403 20.4275 28.7356 20.4047 28.7382 20.4146C28.7418 20.4283 28.749 20.4648 28.7526 20.5396C28.7564 20.6166 28.7554 20.7013 28.7535 20.8228L30.7533 20.8539ZM30.7551 21.1417C30.7505 21.0722 30.7512 20.9895 30.7533 20.8539L28.7535 20.8228C28.7517 20.9409 28.7485 21.1084 28.7596 21.2748L30.7551 21.1417ZM30.7495 32.0213C30.7483 28.4169 30.7472 24.8144 30.7573 21.2111L28.7573 21.2055C28.7472 24.8124 28.7483 28.418 28.7495 32.0219L30.7495 32.0213ZM30.7464 40.68C30.7513 37.7928 30.7504 34.9064 30.7495 32.0213L28.7495 32.0219C28.7504 34.9074 28.7513 37.7917 28.7464 40.6766L30.7464 40.68ZM28.4356 41.6745C28.8655 41.6802 29.3135 41.6861 29.7641 41.6782L29.7287 39.6785C29.3141 39.6858 28.897 39.6804 28.462 39.6747L28.4356 41.6745ZM26.1249 41.725C26.8673 41.6548 27.6198 41.6637 28.4356 41.6745L28.462 39.6747C27.664 39.6642 26.8038 39.6519 25.9365 39.7339L26.1249 41.725ZM26.8854 41.4487C26.8399 41.3726 26.7998 41.3008 26.7689 41.2339C26.7539 41.2013 26.7434 41.1749 26.7364 41.1546C26.7293 41.1338 26.7281 41.1256 26.7286 41.1286C26.7291 41.1313 26.7331 41.1548 26.7306 41.1944C26.7279 41.2355 26.7179 41.2971 26.6874 41.368C26.6558 41.4413 26.6095 41.5074 26.5541 41.5602C26.5004 41.6114 26.4523 41.6367 26.4284 41.647L25.6331 39.8119C25.2967 39.9577 25.0078 40.2115 24.8505 40.5769C24.7046 40.9158 24.7181 41.2437 24.7588 41.475C24.8353 41.9098 25.0641 42.2999 25.1689 42.4751L26.8854 41.4487ZM29.0562 45.3682C28.3404 44.0706 27.6235 42.7709 26.9005 41.4748L25.1538 42.4491C25.8741 43.7404 26.5888 45.036 27.305 46.3343L29.0562 45.3682ZM32.0147 50.6942C31.019 48.9263 30.0387 47.1492 29.0562 45.3682L27.305 46.3343C28.2867 48.114 29.2713 49.8988 30.2721 51.6757L32.0147 50.6942ZM31.5857 50.7917C31.6027 50.75 31.6788 50.6686 31.8074 50.6661C31.8666 50.6649 31.9298 50.6816 31.9848 50.7182C32.0428 50.7567 32.0667 50.8004 32.072 50.8136L30.2149 51.5562C30.5002 52.2696 31.1525 52.6795 31.8471 52.6657C32.528 52.6522 33.1563 52.2344 33.4367 51.5491L31.5857 50.7917ZM34.3747 45.9788C33.4691 47.5463 32.5662 49.1091 31.6499 50.6622L33.3725 51.6785C34.2942 50.1161 35.2016 48.5454 36.1064 46.9792L34.3747 45.9788ZM36.8824 41.6635C36.0382 43.0991 35.2053 44.541 34.3747 45.9788L36.1064 46.9792C36.9377 45.5403 37.7668 44.1052 38.6064 42.6773L36.8824 41.6635ZM37.0306 41.3901C36.9804 41.4767 36.898 41.6165 36.8346 41.7554L38.6543 42.5854C38.6685 42.5543 38.6953 42.5061 38.76 42.3947L37.0306 41.3901ZM37.3888 41.594C37.3614 41.5765 37.274 41.5079 37.2189 41.3695C37.1666 41.2381 37.1793 41.1337 37.185 41.1035C37.1893 41.0803 37.1904 41.0931 37.1596 41.1567C37.1294 41.2192 37.0901 41.2878 37.0306 41.3901L38.76 42.3947C38.8467 42.2455 39.0753 41.8753 39.1509 41.4713C39.194 41.2409 39.2014 40.942 39.0769 40.6294C38.9497 40.3099 38.7232 40.0733 38.4659 39.9088L37.3888 41.594ZM35.3738 41.675C36.2449 41.6603 37.0339 41.6486 37.8047 41.7439L38.05 39.759C37.117 39.6437 36.1873 39.661 35.34 39.6753L35.3738 41.675ZM33.8808 41.678C34.3886 41.6918 34.8941 41.6831 35.3738 41.675L35.34 39.6753C34.8529 39.6835 34.3916 39.6912 33.9355 39.6787L33.8808 41.678ZM32.9051 32.0294C32.9042 34.9121 32.9033 37.796 32.9082 40.68L34.9081 40.6766C34.9033 37.795 34.9042 34.9131 34.9051 32.0301L32.9051 32.0294ZM32.8972 21.2074C32.9074 24.814 32.9062 28.4208 32.9051 32.0294L34.9051 32.0301C34.9062 28.422 34.9074 24.812 34.8972 21.2018L32.8972 21.2074ZM32.9005 20.8743C32.9019 20.9976 32.9024 21.0795 32.8986 21.1512L34.8958 21.258C34.9037 21.1098 34.9016 20.9613 34.9003 20.8512L32.9005 20.8743ZM33.8311 18.7821C33.3331 19.0764 33.0861 19.514 32.9799 19.932C32.8876 20.2957 32.8981 20.6713 32.9005 20.8742L34.9003 20.8512C34.8989 20.7294 34.8982 20.6426 34.9022 20.5631C34.9061 20.4857 34.9134 20.4442 34.9184 20.4243C34.9226 20.4076 34.9212 20.4228 34.9021 20.4502C34.8807 20.4811 34.857 20.499 34.8484 20.504L33.8311 18.7821ZM38.6724 18.6006C37.2342 18.5895 35.7656 18.5779 34.2948 18.6441L34.3847 20.6421C35.7941 20.5786 37.2099 20.5894 38.6569 20.6005L38.6724 18.6006ZM42.3613 18.5814C41.1418 18.6196 39.9184 18.6102 38.6724 18.6006L38.6569 20.6005C39.8964 20.6101 41.1589 20.62 42.424 20.5804L42.3613 18.5814ZM43.4324 17.375C43.5452 17.9713 42.986 18.6031 42.4314 18.5816L42.3538 20.5801C44.2495 20.6537 45.7384 18.8062 45.3976 17.0034L43.4324 17.375ZM42.1512 16.4263C42.7928 16.3698 43.3576 16.8303 43.424 17.3229L45.4061 17.0555C45.1726 15.3246 43.4918 14.3005 41.9757 14.434L42.1512 16.4263ZM35.7597 16.4274C37.861 16.4288 39.9624 16.4302 42.0635 16.4302V14.4302C39.9631 14.4302 37.8624 14.4288 35.761 14.4274L35.7597 16.4274ZM21.5645 16.4338C26.2958 16.4211 31.0274 16.4243 35.7597 16.4274L35.761 14.4274C31.0293 14.4243 26.2943 14.4211 21.5591 14.4338L21.5645 16.4338Z" fill="url(#paint1_linear_678_401)"/>
<path d="M6.07342 22.5613C7.41923 21.5482 9.60252 22.7916 9.30264 24.4776C8.91865 26.2 8.39933 27.8968 8.27865 29.6669C7.70083 35.4413 9.30264 41.4133 12.7659 46.0796C16.3974 51.0605 22.022 54.542 28.1185 55.5148C34.0064 56.5022 40.26 55.1893 45.2081 51.8358C50.3536 48.4274 54.062 42.9456 55.309 36.9005C56.1794 32.918 55.9088 28.7417 54.7605 24.8432C54.3399 23.6145 55.3639 22.1919 56.6658 22.2102C57.6569 22.1261 58.5748 22.8794 58.7906 23.8339C60.7691 30.2776 60.3047 37.4344 57.5106 43.5636C54.9323 49.2649 50.3865 54.041 44.8204 56.8972C40.1723 59.3035 34.8292 60.3493 29.6142 59.8849C22.4902 59.3327 15.6843 55.8365 10.9885 50.4681C5.04577 43.8233 2.65402 34.2491 4.74223 25.5857C5.0604 24.547 5.1116 23.2451 6.07342 22.5613Z" fill="url(#paint2_linear_678_401)" stroke="url(#paint3_linear_678_401)" stroke-width="2"/>
<defs>
<linearGradient id="paint0_linear_678_401" x1="31.9011" y1="51.666" x2="31.9011" y2="15.422" gradientUnits="userSpaceOnUse">
<stop stop-color="#5570FF"/>
<stop offset="1" stop-color="#4DD3FF"/>
</linearGradient>
<linearGradient id="paint1_linear_678_401" x1="31.9011" y1="51.666" x2="31.9011" y2="15.422" gradientUnits="userSpaceOnUse">
<stop stop-color="#5570FF"/>
<stop offset="1" stop-color="#4DD3FF"/>
</linearGradient>
<linearGradient id="paint2_linear_678_401" x1="32" y1="59.9926" x2="32" y2="22.1963" gradientUnits="userSpaceOnUse">
<stop stop-color="#A93AFF"/>
<stop offset="1" stop-color="#FF81FF"/>
</linearGradient>
<linearGradient id="paint3_linear_678_401" x1="32" y1="59.9926" x2="32" y2="22.1963" gradientUnits="userSpaceOnUse">
<stop stop-color="#A93AFF"/>
<stop offset="1" stop-color="#FF81FF"/>
</linearGradient>
</defs>
</svg>
