<svg width="24" height="24" viewBox="0 0 24 24" fill="none" xmlns="http://www.w3.org/2000/svg">
<path d="M4 7C4 6.44772 3.55228 6 3 6V6C2.44772 6 2 6.44772 2 7V20C2 21.1 2.9 22 4 22H17C17.5523 22 18 21.5523 18 21V21C18 20.4477 17.5523 20 17 20H5C4.44772 20 4 19.5523 4 19V7ZM20 2H8C6.9 2 6 2.9 6 4V16C6 17.1 6.9 18 8 18H20C21.1 18 22 17.1 22 16V4C22 2.9 21.1 2 20 2ZM20 15C20 15.5523 19.5523 16 19 16H9C8.44772 16 8 15.5523 8 15V5C8 4.44772 8.44772 4 9 4H19C19.5523 4 20 4.44772 20 5V15Z" fill="url(#paint0_linear)"/>
<path d="M15.1399 8.36C14.6899 9 13.9199 9.43 13.5099 10.16C13.3504 10.4491 13.2878 10.7606 13.2638 11.0511C13.2292 11.4715 13.5974 11.82 14.0191 11.82C14.4338 11.82 14.7446 11.4807 14.8043 11.0704C14.8326 10.8764 14.8795 10.7699 14.9499 10.64C15.2799 10.04 15.8799 9.76 16.5099 8.83C17.0799 7.99 16.8699 6.86 16.4999 6.26C16.0699 5.56 15.2199 5 13.9899 5C12.8021 5 11.9146 5.62677 11.4172 6.45828C11.2189 6.78969 11.4068 7.19523 11.7634 7.34358C12.1598 7.50852 12.5988 7.28085 12.8725 6.95007C13.1222 6.64846 13.486 6.42 13.9999 6.42C15.3499 6.42 15.6199 7.68 15.1399 8.36Z" fill="url(#paint1_linear)"/>
<path d="M13.9999 12.91C13.4199 12.91 12.9499 13.36 12.9499 13.95C12.9499 14.53 13.4199 15 13.9999 15C14.5999 15 15.0399 14.53 15.0399 13.95C15.0399 13.36 14.5899 12.91 13.9999 12.91Z" fill="url(#paint2_linear)"/>
<defs>
<linearGradient id="paint0_linear" x1="12" y1="22" x2="12" y2="2" gradientUnits="userSpaceOnUse">
<stop stop-color="#5570FF"/>
<stop offset="1" stop-color="#4DD3FF"/>
</linearGradient>
<linearGradient id="paint1_linear" x1="13.996" y1="5" x2="13.996" y2="15" gradientUnits="userSpaceOnUse">
<stop stop-color="#DC18FC"/>
<stop offset="1" stop-color="#8E1EFF"/>
</linearGradient>
<linearGradient id="paint2_linear" x1="13.996" y1="5" x2="13.996" y2="15" gradientUnits="userSpaceOnUse">
<stop stop-color="#DC18FC"/>
<stop offset="1" stop-color="#8E1EFF"/>
</linearGradient>
</defs>
</svg>
