<svg width="128" height="128" viewBox="0 0 128 128" fill="none" xmlns="http://www.w3.org/2000/svg">
<path d="M92.2857 44.2422C92.2857 44.5279 92.5238 45.5041 93 47.1708C93.4762 48.5517 94.0714 49.7303 94.7857 50.7065C95.5 51.6827 96.4762 52.4922 97.7143 53.1351C98.9524 53.7779 100 54.2541 100.857 54.5636C101.714 54.8731 103.024 55.266 104.786 55.7422C120.262 60.0755 128 67.9803 128 79.4565C128 86.4089 125.488 92.1827 120.464 96.778C115.44 101.373 109.381 103.671 102.286 103.671C99.4762 103.671 96.8214 103.23 94.3214 102.349C91.8214 101.468 89.6429 100.385 87.7857 99.0994C85.9286 97.8137 84.0952 96.0399 82.2857 93.778C80.4762 91.5161 78.9762 89.4327 77.7857 87.528C76.5952 85.6232 75.3214 83.1589 73.9643 80.1351C72.6071 77.1113 71.5714 74.6589 70.8571 72.7779C70.1429 70.897 69.2024 68.3613 68.0357 65.1708C66.8691 61.9803 66.0238 59.7184 65.5 58.3851C63.9762 54.5279 62.5119 51.3493 61.1071 48.8493C59.7024 46.3493 57.9524 44.0517 55.8571 41.9565C53.7619 39.8612 51.2857 38.3374 48.4286 37.385C45.5714 36.4326 42.1905 35.9565 38.2857 35.9565C33.7143 35.9565 29.3571 37.2779 25.2143 39.9207C21.0714 42.5636 17.7857 46.0041 15.3571 50.2422C12.9286 54.4803 11.7143 58.8851 11.7143 63.4565C11.7143 71.0756 14.25 77.7303 19.3214 83.4208C24.3929 89.1113 30.6667 91.9565 38.1429 91.9565C46.5714 91.9565 52.7143 89.6946 56.5714 85.1708C58.67 82.81 60.3409 80.5966 61.5842 78.5306C61.9976 77.8436 63.0234 77.8321 63.4112 78.5339L68.2603 87.3084C68.4113 87.5818 68.4276 87.9108 68.2933 88.1927C67.5949 89.6577 66.6266 91.1613 65.3884 92.7034C65.3707 92.7255 65.3723 92.7574 65.3923 92.7774V92.7774C65.4127 92.7978 65.4139 92.8307 65.3949 92.8526C59.1573 100.065 49.9304 103.671 37.7143 103.671C30.7143 103.671 24.2976 101.79 18.4643 98.028C12.631 94.2661 8.09524 89.3256 4.85714 83.2065C1.61905 77.0875 0 70.5517 0 63.5994C0 58.5993 1.03571 53.6946 3.10714 48.885C5.17857 44.0755 7.94048 39.8731 11.3929 36.2779C14.8452 32.6826 18.9405 29.7898 23.6786 27.5993C28.4167 25.4088 33.2857 24.3136 38.2857 24.3136C42.4286 24.3136 46.2143 24.766 49.6429 25.6707C53.0714 26.5755 56.0119 27.766 58.4643 29.2422C60.9167 30.7184 63.1786 32.6231 65.25 34.9565C67.3214 37.2898 69.0476 39.6469 70.4286 42.0279C71.8095 44.4088 73.2024 47.1946 74.6071 50.385C76.0119 53.5755 77.2143 56.5398 78.2143 59.2779C79.2143 62.016 80.4048 65.1232 81.7857 68.5994C83.1667 72.0756 84.4762 75.0994 85.7143 77.6708C90.2857 87.1946 95.8333 91.9565 102.357 91.9565C106.214 91.9565 109.512 90.8018 112.25 88.4922C114.988 86.1827 116.357 83.1232 116.357 79.3137C116.357 77.3137 115.905 75.5994 115 74.1708C114.095 72.7422 112.893 71.647 111.393 70.8851C109.893 70.1232 108.167 69.3732 106.214 68.6351C104.262 67.897 102.25 67.2541 100.179 66.7065C98.1071 66.1589 96.0238 65.3494 93.9286 64.2779C91.8333 63.2065 89.9048 61.9684 88.1429 60.5636C86.381 59.1589 84.8333 57.2065 83.5 54.7065C82.1667 52.2065 81.2381 49.2898 80.7143 45.9565C80.5714 45.1946 80.5 44.4088 80.5 43.5993C80.5 38.3612 82.5833 33.7898 86.75 29.885C90.9167 25.9803 95.6429 24.1231 100.929 24.3136C104.643 24.4564 107.512 24.8017 109.536 25.3493C111.551 25.8947 113.697 27.1605 115.973 29.1467C115.982 29.155 115.976 29.1707 115.964 29.1707V29.1707C115.951 29.1707 115.945 29.186 115.954 29.1945C116.517 29.7121 117.056 30.2876 117.571 30.9207C118.095 31.5636 118.714 32.4207 119.429 33.4922C119.73 33.9445 119.985 34.3226 120.193 34.6264C120.51 35.0885 120.421 35.7366 119.976 36.0777L112.509 41.808C112.019 42.1847 111.309 42.0286 110.995 41.4956C109.945 39.7122 108.861 38.3972 107.744 37.5506C107.725 37.5362 107.714 37.5138 107.714 37.4899V37.4899C107.714 37.4686 107.706 37.4484 107.69 37.4342C106.585 36.449 104.283 35.9565 100.786 35.9565C98.4524 35.9565 96.4524 36.7422 94.7857 38.3136C93.1191 39.885 92.2857 41.8612 92.2857 44.2422Z" fill="url(#paint0_linear)"/>
<defs>
<linearGradient id="paint0_linear" x1="0.0187504" y1="62.8096" x2="128.021" y2="62.8096" gradientUnits="userSpaceOnUse">
<stop stop-color="#FF3ADF"/>
<stop offset="1" stop-color="#FF0000"/>
</linearGradient>
</defs>
</svg>
