<svg width="128" height="128" viewBox="0 0 128 128" fill="none" xmlns="http://www.w3.org/2000/svg">
<path fill-rule="evenodd" clip-rule="evenodd" d="M17 13H111.225C120.062 13 127.225 20.1635 127.225 29V99.3203C127.225 108.157 120.062 115.32 111.225 115.32H17C8.16344 115.32 1 108.157 1 99.3203V29C1 20.1634 8.16344 13 17 13ZM17 25C14.7909 25 13 26.7909 13 29V99.3203C13 101.529 14.7909 103.32 17 103.32H34.8669C35.9715 103.32 36.8669 102.425 36.8669 101.32V99.2169C36.8669 98.1123 35.9715 97.2169 34.8669 97.2169H27.9316C25.207 97.2169 22.9983 95.0082 22.9983 92.2836C22.9983 89.559 25.207 87.3503 27.9316 87.3503H98.3048C101.029 87.3503 103.238 89.559 103.238 92.2836C103.238 95.0082 101.029 97.2169 98.3048 97.2169H94.3412C93.2367 97.2169 92.3412 98.1123 92.3412 99.2169V101.32C92.3412 102.425 93.2367 103.32 94.3412 103.32H111.225C113.434 103.32 115.225 101.529 115.225 99.3203V29C115.225 26.7909 113.434 25 111.225 25H17ZM80.4539 99.2169C80.4539 98.1123 79.5584 97.2169 78.4539 97.2169H72.5478C71.4432 97.2169 70.5478 98.1123 70.5478 99.2169V101.32C70.5478 102.425 71.4432 103.32 72.5478 103.32H78.4539C79.5584 103.32 80.4539 102.425 80.4539 101.32V99.2169ZM58.6604 99.2169C58.6604 98.1123 57.765 97.2169 56.6604 97.2169H50.7543C49.6497 97.2169 48.7543 98.1123 48.7543 99.2169V101.32C48.7543 102.425 49.6497 103.32 50.7543 103.32H56.6604C57.765 103.32 58.6604 102.425 58.6604 101.32V99.2169Z" fill="url(#paint0_linear)"/>
<path d="M89.015 32.1938C86.1266 32.1938 83.3493 32.8709 80.6915 34.2251C78.0891 35.5276 75.6313 37.4284 73.3206 39.9276C71.0654 42.3775 69.013 45.3986 67.1633 48.9909C65.3137 52.5316 63.7251 56.54 62.3947 61.0188C61.4699 64.1975 60.5451 66.8788 59.6202 69.0677C58.6954 71.2541 57.7428 73.0762 56.7596 74.5338C54.6211 73.805 52.5076 72.5197 50.4274 72.0519C48.4028 71.5299 46.3254 71.2714 44.1869 71.2714C42.5094 71.2714 40.9763 71.5053 39.5905 71.9756C38.2602 72.4434 37.1048 73.0146 36.1217 73.6917C35.1413 74.3688 34.3609 75.0976 33.7804 75.8806C33.2611 76.6611 33 78.0744 33 78.7515C33 79.8448 33.5805 80.7607 34.7358 81.4895C35.8911 82.2183 37.6242 82.5803 39.9376 82.5803C46.0643 82.5803 51.2384 81.1473 55.4571 78.2813C58.1177 79.3228 60.8367 80.315 63.6112 81.2531C66.444 82.1371 69.5657 82.5803 72.9762 82.5803C76.8505 82.5803 79.9416 81.8515 82.2551 80.3938C84.5685 78.8845 85.8989 76.9517 87.2847 74.1398C87.343 73.8247 87.2597 73.6154 87.0292 73.5144C86.8542 73.3569 86.6487 73.3569 86.4182 73.5144C85.435 75.2848 84.713 76.41 83.2077 77.3481C81.7052 78.2837 79.5083 78.7515 76.62 78.7515C73.1511 78.7515 69.9684 78.4142 67.0772 77.7371C64.2444 77.0083 61.531 76.2007 58.9287 75.3168C62.5142 71.5151 65.3164 66.1229 67.3411 59.145C68.5547 54.7697 69.7351 51.1257 70.8932 48.208C72.0486 45.2927 73.2928 42.9758 74.6203 41.2572C75.9506 39.4868 77.4004 38.4896 78.9612 37.8125C80.5804 37.0837 82.4856 36.7218 84.6824 36.7218C86.3016 36.7218 87.6263 36.9828 88.6678 37.5048C89.7676 37.9726 90.5786 38.598 91.1007 39.3785C91.6201 40.159 91.9061 40.7893 91.9617 41.7274C92.02 42.6655 91.8811 44.5147 91.534 45.4527C91.4756 45.7162 91.559 45.8959 91.7922 45.9994C92.0811 46.1052 92.3421 46.0781 92.5727 45.923C93.1503 45.0366 93.6975 43.0004 94.2196 41.6462C94.7389 40.2403 95 39.0141 95 37.9726C95 36.3598 94.4501 35.0056 93.3503 33.9124C92.2533 32.765 90.8091 32.1938 89.015 32.1938ZM40.3709 73.8493C42.8566 73.8493 45.1978 74.1595 47.3946 74.7849C49.5915 75.4079 51.7605 76.8261 53.899 77.6608C52.5687 78.8057 51.0634 79.5862 49.3887 80.0048C47.7696 80.3667 45.9199 80.5489 43.8369 80.5489C41.4679 80.5489 39.6183 80.2116 38.2879 79.5345C37.0159 78.8574 36.38 77.3112 36.38 76.2696C36.38 74.6544 37.713 73.8493 40.3709 73.8493Z" fill="url(#paint1_linear)" stroke="url(#paint2_linear)" stroke-width="4"/>
<defs>
<linearGradient id="paint0_linear" x1="19.4853" y1="100.336" x2="90.2707" y2="13.013" gradientUnits="userSpaceOnUse">
<stop stop-color="#0072FF"/>
<stop offset="1" stop-color="#00E5A1"/>
</linearGradient>
<linearGradient id="paint1_linear" x1="64" y1="82.5803" x2="64" y2="32.1938" gradientUnits="userSpaceOnUse">
<stop stop-color="#5570FF"/>
<stop offset="1" stop-color="#4DD3FF"/>
</linearGradient>
<linearGradient id="paint2_linear" x1="64" y1="82.5803" x2="64" y2="32.1938" gradientUnits="userSpaceOnUse">
<stop stop-color="#5570FF"/>
<stop offset="1" stop-color="#4DD3FF"/>
</linearGradient>
</defs>
</svg>
