<svg width="128" height="128" viewBox="0 0 128 128" fill="none" xmlns="http://www.w3.org/2000/svg">
<path fill-rule="evenodd" clip-rule="evenodd" d="M25.9045 25.9021C26.5099 25.2948 27.178 25 28.1667 25H42.5C43.4887 25 44.1567 25.2948 44.7622 25.9021C45.4224 26.5644 45.6667 27.1999 45.6667 28V31H25V28C25 27.1999 25.2442 26.5644 25.9045 25.9021ZM28.1667 17C25.1241 17 22.3955 18.0907 20.2388 20.2541C18.1368 22.3627 17 25.0084 17 28V35C17 37.2091 18.7909 39 21 39H49.6667C51.8758 39 53.6667 37.2091 53.6667 35V28C53.6667 25.0084 52.5298 22.3627 50.4279 20.2541C48.2712 18.0907 45.5425 17 42.5 17H28.1667ZM83.2378 25.9021C83.8433 25.2948 84.5113 25 85.5 25H99.8333C100.705 25 101.388 25.2666 102.077 25.9396C102.765 26.611 103 27.2353 103 28V31H82.3333V28C82.3333 27.1999 82.5776 26.5644 83.2378 25.9021ZM85.5 17C82.4575 17 79.7288 18.0907 77.5721 20.2541C75.4702 22.3627 74.3333 25.0084 74.3333 28V35C74.3333 37.2091 76.1242 39 78.3333 39H107C109.209 39 111 37.2091 111 35V28C111 24.973 109.817 22.3161 107.667 20.2166C105.52 18.1189 102.844 17 99.8333 17H85.5ZM11.6312 53.6312C12.0577 53.2048 12.4896 53 13.25 53H114.75C115.382 53 115.837 53.1697 116.36 53.6781C116.808 54.1149 117 54.5326 117 55.25V101H11V55.25C11 54.4896 11.2048 54.0577 11.6312 53.6312ZM13.25 43C9.93229 43 6.928 44.1923 4.56017 46.5602C2.19234 48.928 1 51.9323 1 55.25V106C1 108.761 3.23858 111 6 111H122C124.761 111 127 108.761 127 106V55.25C127 51.8893 125.757 48.8708 123.336 46.5133C120.988 44.2275 118.045 43 114.75 43H13.25Z" fill="url(#paint0_linear)"/>
<defs>
<linearGradient id="paint0_linear" x1="64" y1="111" x2="64" y2="17" gradientUnits="userSpaceOnUse">
<stop stop-color="#FDA700"/>
<stop offset="1" stop-color="#FFDE00"/>
</linearGradient>
</defs>
</svg>
