<svg width="128" height="128" viewBox="0 0 128 128" fill="none" xmlns="http://www.w3.org/2000/svg">
<path fill-rule="evenodd" clip-rule="evenodd" d="M34.7871 22.6132C35.3489 14.9742 42.0646 8.38122 49.7294 8.06481C53.5962 7.98046 57.4629 7.99683 61.3296 8.0132C63.0872 8.02064 64.8447 8.02808 66.6023 8.02606C66.6023 8.02609 66.6024 8.02604 66.6023 8.02606C68.515 8.02463 70.4277 8.02271 72.3404 8.02064L72.3444 8.02063C79.0381 8.01338 85.733 8.00613 92.4318 8.02622C93.7601 8.04749 95.0903 8.03336 96.4205 8.01916C98.7251 7.99456 101.031 7.96995 103.332 8.12961C109.092 8.67204 114.096 12.7078 116.421 17.9253C117.686 21.3614 117.65 25.0145 117.613 28.6319C117.604 29.4266 117.597 30.2195 117.602 31.008C117.601 33.5761 117.603 36.1442 117.604 38.7123L117.605 39.8202C117.61 45.2063 117.615 50.5924 117.59 55.9785C117.608 64.6266 117.606 73.2745 117.604 81.9228C117.602 88.8432 117.601 95.7642 117.609 102.684C117.674 105.958 117.06 109.297 115.388 112.144C112.417 116.891 107.045 120.119 101.382 119.997C94.9204 119.966 88.4573 119.977 81.9941 119.988C70.9521 120.008 59.9086 120.026 48.8705 119.835C46.9526 119.687 45.1381 118.996 43.3946 118.227C40.3598 116.587 37.9317 113.985 36.2593 110.989C35.5425 109.419 35.0906 107.747 34.813 106.049C34.6927 103.393 34.7124 100.734 34.7321 98.0752C34.7462 96.1639 34.7603 94.2518 34.7226 92.3398C33.7363 92.3424 32.7504 92.3495 31.7649 92.3566L31.4004 92.3592H31.3985L31.3286 92.3598H31.3245C28.3982 92.3805 25.4742 92.4005 22.5503 92.3398C20.1805 92.3205 17.8688 91.6166 15.8153 90.4543C14.2462 89.3307 12.9031 87.9166 11.773 86.3539C9.83964 82.976 9.94361 79.1307 10.0463 75.3331L10.0463 75.3312L10.0464 75.3292C10.0832 73.9661 10.1198 72.6094 10.0618 71.2824L10.0576 69.6042C10.0392 62.3309 10.0208 55.0576 10.0748 47.7843C10.107 41.6111 15.3698 36.0513 21.5365 35.722C24.0326 35.6229 26.5327 35.6364 29.0323 35.65C30.93 35.6603 32.8276 35.6701 34.7226 35.6311C34.7166 34.6323 34.7048 33.6331 34.693 32.6338L34.6926 32.5994C34.6532 29.2689 34.6138 25.9372 34.7871 22.6132ZM42.4391 35.6763C44.1786 35.7397 45.9314 35.6951 47.6848 35.65L47.6861 35.65C51.2959 35.5572 54.9095 35.4643 58.4209 36.3161C61.3461 37.4784 63.9484 39.5835 65.369 42.4312C66.9563 45.4454 66.8626 48.8441 66.7703 52.1786L66.769 52.2328C66.7425 53.1801 66.7167 54.1226 66.7315 55.0488C66.7987 58.4069 66.791 61.7672 66.7832 65.1261V65.2142C66.7748 68.6007 66.7671 71.9869 66.8349 75.3699C66.9253 79.0635 66.9963 83.0348 64.9751 86.2893C62.9023 89.8085 59.0085 92.1719 54.9145 92.3075C52.0114 92.4109 49.1078 92.3863 46.2046 92.3618L46.1997 92.3617C44.9268 92.3508 43.6538 92.3398 42.3808 92.3398C42.3615 93.1341 42.3487 93.9283 42.3422 94.729C42.3678 95.9947 42.3523 97.2623 42.3368 98.5292L42.3368 98.5311C42.3093 100.78 42.2819 103.029 42.4843 105.267C42.8265 108.412 45.2737 110.84 48.0633 112.048C50.3355 112.458 52.6423 112.434 54.9456 112.409L54.9555 112.409C55.7969 112.4 56.6394 112.391 57.4781 112.403C61.2336 112.403 64.9896 112.395 68.7456 112.387H68.7495C76.8896 112.371 85.0304 112.354 93.1679 112.416C94.4452 112.374 95.725 112.388 97.0049 112.402C98.8878 112.423 100.771 112.444 102.647 112.287C106.257 111.925 109.227 108.871 109.847 105.358C110.015 77.8108 109.97 50.2573 109.912 22.7168C109.602 21.7159 109.266 20.7214 108.775 19.7916C107.342 17.4282 104.817 15.7105 102.002 15.6331C99.068 15.5226 96.1318 15.5447 93.1963 15.5669C91.1567 15.5822 89.117 15.5976 87.0786 15.5685C81.9538 15.5801 76.831 15.5777 71.7081 15.5754L71.0658 15.5751C67.8242 15.5737 64.5821 15.5722 61.3398 15.5746C61.3398 15.5746 61.3398 15.5746 61.3398 15.5746C59.9202 15.6008 58.4987 15.5815 57.0773 15.5621L57.0711 15.562C54.6345 15.5286 52.1974 15.4953 49.7682 15.6909C46.8495 15.9105 44.3763 17.9445 43.0977 20.5081C42.0919 23.8773 42.2272 27.4151 42.3619 30.9377C42.4226 32.526 42.4832 34.1112 42.4391 35.6763ZM54.4238 84.675C55.8767 84.5652 57.3231 83.9195 58.1497 82.6861C59.0571 81.4779 59.0594 79.9508 59.0615 78.4888C59.062 78.1608 59.0624 77.8366 59.0731 77.5202C59.0276 73.3068 59.0442 69.0934 59.0609 64.8802V64.8733C59.0844 58.9325 59.1079 52.9923 58.9568 47.0546C58.5888 45.6275 57.575 44.42 56.2835 43.7291C55.4053 43.516 54.5077 43.361 53.6037 43.2706C46.8752 43.2771 40.1466 43.2771 33.4245 43.2706C31.9257 43.3362 30.4169 43.3028 28.9093 43.2694C26.111 43.2075 23.3121 43.1455 20.5679 43.7162C18.5468 44.6589 17.5846 46.8996 17.7655 49.0435C17.8074 53.1702 17.7889 57.2979 17.7704 61.425L17.7703 61.4512C17.7403 68.1067 17.7103 74.761 17.9333 81.4075C18.3785 82.4259 19.169 83.2188 19.9453 83.9969L19.9885 84.0402C20.0984 84.1506 20.208 84.261 20.3161 84.3715C22.15 84.6039 23.9903 84.7266 25.8371 84.7073C31.5558 84.6801 37.2721 84.6808 42.9889 84.6814H43.0055C46.8111 84.6821 50.617 84.6827 54.4238 84.675Z" fill="url(#paint0_linear_618_152)"/>
<path d="M66.6023 8.02606C64.8447 8.02808 63.0872 8.02064 61.3296 8.0132C57.4629 7.99683 53.5962 7.98046 49.7294 8.06481C42.0646 8.38122 35.3489 14.9742 34.7871 22.6132C34.6138 25.9372 34.6532 29.2689 34.6926 32.5994L34.693 32.6338C34.7048 33.6331 34.7166 34.6323 34.7226 35.6311C32.8276 35.6701 30.93 35.6603 29.0323 35.65C26.5327 35.6364 24.0326 35.6229 21.5365 35.722C15.3698 36.0513 10.107 41.6111 10.0748 47.7843C10.0208 55.0576 10.0392 62.3309 10.0576 69.6042L10.0618 71.2824C10.1198 72.6094 10.0832 73.9661 10.0464 75.3292L10.0463 75.3312L10.0463 75.3331C9.94361 79.1307 9.83964 82.976 11.773 86.3539C12.9031 87.9166 14.2462 89.3307 15.8153 90.4543C17.8688 91.6166 20.1805 92.3205 22.5503 92.3398C25.4742 92.4005 28.3982 92.3805 31.3245 92.3598H31.3286L31.3985 92.3592H31.4004L31.7649 92.3566C32.7504 92.3495 33.7363 92.3424 34.7226 92.3398C34.7603 94.2518 34.7462 96.1639 34.7321 98.0752C34.7124 100.734 34.6927 103.393 34.813 106.049C35.0906 107.747 35.5425 109.419 36.2593 110.989C37.9317 113.985 40.3598 116.587 43.3946 118.227C45.1381 118.996 46.9526 119.687 48.8705 119.835C59.9086 120.026 70.9521 120.008 81.9941 119.988C88.4573 119.977 94.9204 119.966 101.382 119.997C107.045 120.119 112.417 116.891 115.388 112.144C117.06 109.297 117.674 105.958 117.609 102.684C117.601 95.7642 117.602 88.8432 117.604 81.9228C117.606 73.2745 117.608 64.6266 117.59 55.9785C117.615 50.5924 117.61 45.2063 117.605 39.8202L117.604 38.7123C117.603 36.1442 117.601 33.5761 117.602 31.008C117.597 30.2195 117.604 29.4266 117.613 28.6319C117.65 25.0145 117.686 21.3614 116.421 17.9253C114.096 12.7078 109.092 8.67204 103.332 8.12961C101.031 7.96995 98.7251 7.99456 96.4205 8.01916C95.0903 8.03336 93.7601 8.04749 92.4318 8.02622C85.733 8.00613 79.0381 8.01338 72.3444 8.02063L72.3404 8.02064C70.4277 8.02271 68.515 8.02463 66.6023 8.02606ZM66.6023 8.02606C66.6024 8.02604 66.6023 8.02609 66.6023 8.02606ZM61.3398 15.5746C64.5821 15.5722 67.8242 15.5737 71.0658 15.5751L71.7081 15.5754C76.831 15.5777 81.9538 15.5801 87.0786 15.5685C89.117 15.5976 91.1567 15.5822 93.1963 15.5669C96.1318 15.5447 99.068 15.5226 102.002 15.6331C104.817 15.7105 107.342 17.4282 108.775 19.7916C109.266 20.7214 109.602 21.7159 109.912 22.7168C109.97 50.2573 110.015 77.8108 109.847 105.358C109.227 108.871 106.257 111.925 102.647 112.287C100.771 112.444 98.8878 112.423 97.0049 112.402C95.725 112.388 94.4452 112.374 93.1679 112.416C85.0304 112.354 76.8896 112.371 68.7495 112.387H68.7456C64.9896 112.395 61.2336 112.403 57.4781 112.403C56.6394 112.391 55.7969 112.4 54.9555 112.409L54.9456 112.409C52.6423 112.434 50.3355 112.458 48.0633 112.048C45.2737 110.84 42.8265 108.412 42.4843 105.267C42.2819 103.029 42.3093 100.78 42.3368 98.5311L42.3368 98.5292C42.3523 97.2623 42.3678 95.9947 42.3422 94.729C42.3487 93.9283 42.3615 93.1341 42.3808 92.3398C43.6538 92.3398 44.9268 92.3508 46.1997 92.3617L46.2046 92.3618C49.1078 92.3863 52.0114 92.4109 54.9145 92.3075C59.0085 92.1719 62.9023 89.8085 64.9751 86.2893C66.9963 83.0348 66.9253 79.0635 66.8349 75.3699C66.7671 71.9869 66.7748 68.6007 66.7832 65.2142V65.1261C66.791 61.7672 66.7987 58.4069 66.7315 55.0488C66.7167 54.1226 66.7425 53.1801 66.769 52.2328L66.7703 52.1786C66.8626 48.8441 66.9563 45.4454 65.369 42.4312C63.9484 39.5835 61.3461 37.4784 58.4209 36.3161C54.9095 35.4643 51.2959 35.5572 47.6861 35.65L47.6848 35.65C45.9314 35.6951 44.1786 35.7397 42.4391 35.6763C42.4832 34.1112 42.4226 32.526 42.3619 30.9377C42.2272 27.4151 42.0919 23.8773 43.0977 20.5081C44.3763 17.9445 46.8495 15.9105 49.7682 15.6909C52.1974 15.4953 54.6345 15.5286 57.0711 15.562L57.0773 15.5621C58.4987 15.5815 59.9202 15.6008 61.3398 15.5746ZM61.3398 15.5746C61.3398 15.5746 61.3398 15.5746 61.3398 15.5746ZM58.1497 82.6861C57.3231 83.9195 55.8767 84.5652 54.4238 84.675C50.617 84.6827 46.8111 84.6821 43.0055 84.6814H42.9889C37.2721 84.6808 31.5558 84.6801 25.8371 84.7073C23.9903 84.7266 22.15 84.6039 20.3161 84.3715C20.208 84.261 20.0984 84.1506 19.9885 84.0402L19.9453 83.9969C19.169 83.2188 18.3785 82.4259 17.9333 81.4075C17.7103 74.761 17.7403 68.1067 17.7703 61.4512L17.7704 61.425C17.7889 57.2979 17.8074 53.1702 17.7655 49.0435C17.5846 46.8996 18.5468 44.6589 20.5679 43.7162C23.3121 43.1455 26.111 43.2075 28.9093 43.2694C30.4169 43.3028 31.9257 43.3362 33.4245 43.2706C40.1466 43.2771 46.8752 43.2771 53.6037 43.2706C54.5077 43.361 55.4053 43.516 56.2835 43.7291C57.575 44.42 58.5888 45.6275 58.9568 47.0546C59.1079 52.9923 59.0844 58.9325 59.0609 64.8733V64.8802C59.0442 69.0934 59.0276 73.3068 59.0731 77.5202C59.0624 77.8366 59.062 78.1608 59.0615 78.4888C59.0594 79.9508 59.0571 81.4779 58.1497 82.6861Z" stroke="url(#paint1_linear_618_152)" stroke-width="2"/>
<path d="M83.2932 69.7728C83.6076 68.688 84.5769 67.7962 85.7444 67.8453C90.8495 67.8292 95.9599 67.7685 101.059 67.884C103.797 68.0771 103.851 72.5708 101.098 72.8129C96.5766 72.9563 92.0442 72.8407 87.5176 72.8678C85.1161 79.0468 82.8198 85.2704 80.3744 91.4327C79.6641 93.1452 76.9766 93.2556 76.0571 91.6748C74.229 88.5688 72.3893 85.4519 70.66 82.291C69.5255 80.1814 72.2459 77.7857 74.2232 79.0856C75.8588 80.4513 76.3547 82.7095 77.7534 84.2902C79.5705 79.4382 81.4431 74.6081 83.2932 69.7728Z" fill="url(#paint2_linear_618_152)"/>
<path d="M83.2932 36.8407C83.6076 35.7558 84.5769 34.8636 85.7444 34.9132C90.8495 34.8967 95.9599 34.8361 101.059 34.9517C103.797 35.1445 103.851 39.6383 101.098 39.8806C96.5766 40.0238 92.0442 39.9081 87.5176 39.9357C85.1161 46.1147 82.8198 52.3377 80.3744 58.5002C79.6641 60.213 76.9766 60.3231 76.0571 58.7426C74.229 55.6365 72.3893 52.5195 70.66 49.3584C69.5255 47.2492 72.2459 44.8536 74.2232 46.1532C75.8588 47.519 76.3547 49.777 77.7534 51.3575C79.5705 46.5057 81.4431 41.676 83.2932 36.8407Z" fill="url(#paint3_linear_618_152)"/>
<path d="M87.323 79.5336C86.541 77.4136 89.1737 75.3369 91.0405 76.5871C92.5657 77.876 93.7661 79.5006 95.1706 80.9161C96.5693 79.5058 97.7755 77.8921 99.2846 76.6039C101.151 75.3208 103.778 77.4078 103.013 79.5278C101.857 81.4721 100.034 82.9314 98.6014 84.6775C99.9949 86.3131 101.625 87.7557 102.864 89.5179C103.998 91.5668 101.476 93.9896 99.4499 92.8719C97.8194 91.6107 96.619 89.8815 95.1706 88.4221C93.7222 89.8924 92.516 91.6275 90.8752 92.8887C88.854 93.9735 86.3479 91.5559 87.4825 89.5128C88.7275 87.7615 90.3412 86.3073 91.745 84.6775C90.3076 82.9372 88.4963 81.4721 87.323 79.5336Z" fill="url(#paint4_linear_618_152)"/>
<path d="M51.3995 76.8552H45.989V57.4832C45.989 57.1048 45.9133 56.7517 45.762 56.4238C45.6232 56.0959 45.4278 55.8121 45.1755 55.5724C44.9359 55.3202 44.6521 55.1247 44.3242 54.986C43.9963 54.8473 43.6431 54.7779 43.2648 54.7779C42.8864 54.7779 42.5333 54.8473 42.2054 54.986C41.8774 55.1247 41.5874 55.3202 41.3352 55.5724C41.0955 55.8121 40.9063 56.0959 40.7676 56.4238C40.6289 56.7517 40.5595 57.1048 40.5595 57.4832V76.8552H35.13V57.4832C35.13 57.1048 35.0607 56.7517 34.922 56.4238C34.7832 56.0959 34.5878 55.8121 34.3355 55.5724C34.0959 55.3202 33.8121 55.1247 33.4842 54.986C33.1563 54.8473 32.8031 54.7779 32.4248 54.7779C32.0464 54.7779 31.6933 54.8473 31.3653 54.986C31.0374 55.1247 30.7474 55.3202 30.4952 55.5724C30.2555 55.8121 30.0663 56.0959 29.9276 56.4238C29.7889 56.7517 29.7195 57.1048 29.7195 57.4832V76.8552H24.29V57.4832C24.29 56.3607 24.4982 55.3076 24.9143 54.3238C25.3432 53.3275 25.9233 52.4636 26.6548 51.7321C27.3989 50.988 28.2629 50.4078 29.2466 49.9916C30.2429 49.5628 31.3023 49.3484 32.4248 49.3484C33.4338 49.3484 34.4049 49.5313 35.3382 49.8971C36.2714 50.2502 37.1101 50.7673 37.8543 51.4483C38.5983 50.7673 39.4308 50.2502 40.3515 49.8971C41.2847 49.5313 42.2559 49.3484 43.2648 49.3484C44.3873 49.3484 45.4404 49.5628 46.4241 49.9916C47.4204 50.4078 48.2844 50.988 49.0158 51.7321C49.76 52.4636 50.3401 53.3275 50.7563 54.3238C51.1851 55.3076 51.3995 56.3607 51.3995 57.4832V76.8552Z" fill="url(#paint5_linear_618_152)"/>
<path d="M94.9293 47.1516C91.3526 47.1516 88.4727 50.0313 88.4727 53.6084C88.4727 57.1855 91.3526 60.0652 94.9293 60.0652C96.1776 60.0652 97.3321 59.7043 98.3136 59.0906C98.6914 58.8546 99.2338 59.1056 99.2338 59.5508C99.2338 59.8349 99.4643 60.0652 99.7485 60.0652H100.74C101.097 60.0652 101.386 59.7761 101.386 59.4195V47.7973C101.386 47.4407 101.097 47.1516 100.74 47.1516H99.7485C99.4643 47.1516 99.2338 47.3819 99.2338 47.666C99.2338 48.1112 98.6914 48.3622 98.3136 48.1262C97.3321 47.5125 96.1776 47.1516 94.9293 47.1516ZM94.9293 49.3039C97.314 49.3039 99.2338 51.2237 99.2338 53.6084C99.2338 55.9931 97.314 57.913 94.9293 57.913C92.5447 57.913 90.6249 55.9931 90.6249 53.6084C90.6249 51.2237 92.5447 49.3039 94.9293 49.3039Z" fill="url(#paint6_linear_618_152)" stroke="url(#paint7_linear_618_152)" stroke-width="3"/>
<defs>
<linearGradient id="paint0_linear_618_152" x1="72.6529" y1="4.21002" x2="70.7157" y2="120.119" gradientUnits="userSpaceOnUse">
<stop stop-color="#43F4FF"/>
<stop offset="1" stop-color="#007CA3"/>
</linearGradient>
<linearGradient id="paint1_linear_618_152" x1="72.6529" y1="4.21002" x2="70.7157" y2="120.119" gradientUnits="userSpaceOnUse">
<stop stop-color="#43F4FF"/>
<stop offset="1" stop-color="#007CA3"/>
</linearGradient>
<linearGradient id="paint2_linear_618_152" x1="86.7653" y1="67.8149" x2="86.7653" y2="92.7926" gradientUnits="userSpaceOnUse">
<stop stop-color="#00F0FF"/>
<stop offset="1" stop-color="#0094C2"/>
</linearGradient>
<linearGradient id="paint3_linear_618_152" x1="86.7653" y1="34.8826" x2="86.7653" y2="59.8599" gradientUnits="userSpaceOnUse">
<stop stop-color="#00F0FF"/>
<stop offset="1" stop-color="#0094C2"/>
</linearGradient>
<linearGradient id="paint4_linear_618_152" x1="95.1654" y1="76.2093" x2="95.1654" y2="93.1573" gradientUnits="userSpaceOnUse">
<stop stop-color="#00F0FF"/>
<stop offset="1" stop-color="#0094C2"/>
</linearGradient>
<linearGradient id="paint5_linear_618_152" x1="37.8448" y1="49.3485" x2="38" y2="74" gradientUnits="userSpaceOnUse">
<stop stop-color="#12F1FF"/>
<stop offset="1" stop-color="#0081C9"/>
</linearGradient>
<linearGradient id="paint6_linear_618_152" x1="94.9294" y1="47.1516" x2="94.9294" y2="60.0652" gradientUnits="userSpaceOnUse">
<stop stop-color="#00F0FF"/>
<stop offset="1" stop-color="#00C3FF"/>
</linearGradient>
<linearGradient id="paint7_linear_618_152" x1="94.9294" y1="47.1516" x2="94.9294" y2="60.0652" gradientUnits="userSpaceOnUse">
<stop stop-color="#00F0FF"/>
<stop offset="1" stop-color="#00C3FF"/>
</linearGradient>
</defs>
</svg>
