<svg width="128" height="128" viewBox="0 0 128 128" fill="none" xmlns="http://www.w3.org/2000/svg">
<path d="M83.6875 86.9688H96.8125C98.6264 86.9688 100.094 85.5012 100.094 83.6875V44.3125C100.094 42.4988 98.6264 41.0312 96.8125 41.0312H83.6875C81.8738 41.0312 80.4062 42.4988 80.4062 44.3125V83.6875C80.4062 85.5012 81.8738 86.9688 83.6875 86.9688ZM86.9688 47.5938H93.5312V80.4062H86.9688V47.5938ZM116.719 14.7812H67.2812V11.2812C67.2812 9.46759 65.8137 8 64 8C62.1863 8 60.7188 9.46759 60.7188 11.2812V14.7812H11.2812C9.46759 14.7812 8 16.2488 8 18.0625V31.1875C8 33.0012 9.46759 34.4688 11.2812 34.4688H14.5625V97.0312C14.5625 98.8451 16.0301 100.312 17.8438 100.312H46.3237L41.949 113.438H37.75C35.9363 113.438 34.4688 114.905 34.4688 116.719C34.4688 118.533 35.9363 120 37.75 120H44.3125C45.5189 120 46.9 119.122 47.3697 117.83C47.6826 116.97 53.0675 100.904 53.2414 100.312H60.7188V116.719C60.7188 118.533 62.1863 120 64 120C65.8137 120 67.2812 118.533 67.2812 116.719V100.312H74.7614C75.3614 102.104 72.5896 93.8231 80.6302 117.83C81.0975 119.115 82.4768 120 83.6875 120H90.25C92.0637 120 93.5312 118.533 93.5312 116.719C93.5312 114.905 92.0637 113.438 90.25 113.438H86.0511L81.6763 100.312H110.156C111.97 100.312 113.438 98.8451 113.438 97.0312V34.4688H116.719C118.533 34.4688 120 33.0012 120 31.1875V18.0625C120 16.2488 118.533 14.7812 116.719 14.7812ZM106.875 93.75H21.125V34.4688H106.875V93.75ZM113.438 27.9062H14.5625V21.3438H113.438V27.9062ZM57.4375 86.9688H70.5625C72.3762 86.9688 73.8438 85.5012 73.8438 83.6875V57.4375C73.8438 55.6238 72.3762 54.1562 70.5625 54.1562H57.4375C55.6238 54.1562 54.1562 55.6238 54.1562 57.4375V83.6875C54.1562 85.5012 55.6238 86.9688 57.4375 86.9688ZM60.7188 60.7188H67.2812V80.4062H60.7188V60.7188ZM31.1875 86.9688H44.3125C46.1262 86.9688 47.5938 85.5012 47.5938 83.6875V70.5625C47.5938 68.7488 46.1262 67.2812 44.3125 67.2812H31.1875C29.3738 67.2812 27.9062 68.7488 27.9062 70.5625V83.6875C27.9062 85.5012 29.3738 86.9688 31.1875 86.9688ZM34.4688 73.8438H41.0312V80.4062H34.4688V73.8438Z" fill="url(#paint0_linear_618_150)" stroke="url(#paint1_linear_618_150)" stroke-width="2"/>
<defs>
<linearGradient id="paint0_linear_618_150" x1="64" y1="120" x2="64" y2="8" gradientUnits="userSpaceOnUse">
<stop stop-color="#FF00B8"/>
<stop offset="1" stop-color="#FAFF00"/>
</linearGradient>
<linearGradient id="paint1_linear_618_150" x1="64" y1="120" x2="64" y2="8" gradientUnits="userSpaceOnUse">
<stop stop-color="#FF00B8"/>
<stop offset="1" stop-color="#FAFF00"/>
</linearGradient>
</defs>
</svg>
