<svg width="192" height="192" viewBox="0 0 192 192" fill="none" xmlns="http://www.w3.org/2000/svg">
<path d="M94.6969 23.6414C96.9969 13.7914 106.387 6.15137 116.527 6.02137C124.947 5.64137 133.277 10.3614 137.407 17.6914C141.647 24.8414 141.337 34.1714 137.177 41.2914C132.817 47.7614 125.447 52.3714 117.517 52.2814C110.707 52.5014 104.277 49.2014 99.5969 44.4214C94.8969 38.7314 92.7969 30.8614 94.6969 23.6414ZM107.067 24.2914C105.217 27.9714 105.707 32.6314 108.177 35.9114C111.837 41.0514 119.917 41.9514 124.617 37.7214C127.937 35.1014 128.857 30.6914 128.447 26.6714C127.177 22.4514 123.777 18.7314 119.297 18.0214C114.407 17.0514 109.137 19.7514 107.067 24.2914Z" fill="url(#paint0_linear_640_165)" stroke="url(#paint1_linear_640_165)" stroke-width="2"/>
<path d="M178.13 74.4114C178.42 75.7814 178.7 77.1614 178.73 78.5714C178.66 96.6014 178.62 114.651 178.73 132.681C178.71 134.071 178.43 135.431 178.13 136.781C177.94 119.311 178.18 101.841 177.99 84.3814C178 81.0514 178.12 77.7314 178.13 74.4114Z" fill="url(#paint2_linear_640_165)"/>
<path fill-rule="evenodd" clip-rule="evenodd" d="M142.286 61.8002C140.767 61.8041 139.249 61.808 137.73 61.8114C137.809 61.8316 137.903 61.8556 138.005 61.8819C138.459 61.9984 139.087 62.1598 139.43 62.2414C143.41 63.4014 147.55 65.0514 150.09 68.5114C150.643 69.1466 151.083 69.873 151.521 70.5969C152.207 71.7306 152.889 72.8585 154 73.6213C156.24 73.9387 158.601 73.9298 160.945 73.9209C162.515 73.915 164.077 73.9091 165.59 74.0014C166.095 78.939 166.035 83.8956 165.975 88.8549C165.938 91.9507 165.9 95.0475 166 98.1414C167.24 97.6714 168.56 97.1614 169.27 95.9414C169.821 95.1474 170.364 94.3455 170.908 93.5429C173.074 90.3423 175.248 87.1317 177.99 84.3814C177.995 82.7149 178.028 81.0509 178.06 79.3882C178.093 77.7284 178.125 76.0699 178.13 74.4114C178.01 67.6114 171.76 61.8814 165.05 61.8114C157.467 61.7614 149.877 61.7808 142.286 61.8002ZM170.908 93.5429C170.364 94.3455 169.821 95.1474 169.27 95.9414C168.56 97.1614 167.24 97.6714 166 98.1414C165.943 106.273 165.962 114.405 165.982 122.537C165.993 127.245 166.004 131.953 166 136.661C166.06 144.381 160.04 151.231 152.53 152.641C151.561 154.613 150.611 156.59 149.662 158.566C148.661 160.648 147.661 162.729 146.64 164.801C157.15 166.131 167.65 160.831 173.6 152.231C176.42 147.601 178.31 142.261 178.13 136.781C178.035 128.046 178.048 119.311 178.06 110.577C178.073 101.844 178.085 93.1113 177.99 84.3814C175.248 87.1317 173.074 90.3423 170.908 93.5429Z" fill="url(#paint3_linear_640_165)"/>
<path d="M86.7698 61.7214C95.2498 61.8514 103.73 61.7614 112.21 61.7514C115.39 61.8314 118.58 61.8114 121.76 61.7314C127.08 61.8814 132.42 61.5814 137.73 61.8114C138.16 61.9214 139.01 62.1414 139.43 62.2414C136.94 66.1614 134.23 69.9414 131.86 73.9414C118.71 74.0214 105.57 74.1114 92.4198 73.8914C91.5298 69.4614 89.7198 65.1914 86.7698 61.7214Z" fill="url(#paint4_linear_640_165)"/>
<path d="M139.43 62.2414C143.41 63.4014 146.681 64.76 150 68.1213C152.588 70.743 155 72.6213 155 76.1213C154.747 84.9337 154.947 93 154.942 102C154.222 100.04 154.94 104.363 154.939 107.681C151 107.681 146.64 107.681 143.38 107.681C142.72 97.9514 143.15 88.6213 143 78.6213C143 77.1213 140.19 74.9614 138.19 74.5014C136.11 74.0414 133.98 73.9514 131.86 73.9414C134.23 69.9414 136.94 66.1614 139.43 62.2414Z" fill="url(#paint5_linear_640_165)"/>
<path d="M155 76.1213C154.967 80.5812 154.95 85.1614 154.95 89.6214C154.94 100.291 154.94 110.951 154.93 121.621C154.79 131.991 155.8 142.611 152.53 152.641C150.54 156.691 148.63 160.761 146.64 164.801C139.52 174.521 129.39 182.241 117.56 185.091C105.19 188.221 91.6698 186.711 80.3898 180.691C80.2198 175.841 83.6598 170.571 89.0598 171.411C102.14 177.031 118.23 175.031 129.18 165.811C137.77 158.761 143.22 147.751 143 136.621C142.87 117.231 143.45 98.0013 143 78.6213C143.15 88.6213 142.72 97.9514 143.38 107.681C146.64 107.681 151 107.681 154.939 107.681C154.94 104.363 154.222 100.04 154.942 102C154.947 93 154.747 84.9337 155 76.1213Z" fill="url(#paint6_linear_640_165)"/>
<path d="M54.8398 143.621C58.8798 143.531 62.9198 143.471 66.9498 143.571C67.1298 144.181 67.4798 145.401 67.6598 146.001C70.3298 157.241 78.5298 166.771 89.0598 171.411C83.6598 170.571 80.2198 175.841 80.3898 180.691C70.5398 175.361 62.6898 166.641 58.1698 156.411C57.1098 153.911 56.3098 151.291 55.7398 148.631C55.3798 146.971 55.0998 145.291 54.8398 143.621Z" fill="url(#paint7_linear_640_165)"/>
<path d="M178.13 74.4114C178.42 75.7814 178.7 77.1614 178.73 78.5714C178.66 96.6014 178.62 114.651 178.73 132.681C178.71 134.071 178.43 135.431 178.13 136.781M178.13 74.4114C178.12 77.7314 178 81.0514 177.99 84.3814M178.13 74.4114C178.125 76.0699 178.093 77.7284 178.06 79.3882C178.028 81.0509 177.995 82.7149 177.99 84.3814M178.13 74.4114C178.01 67.6114 171.76 61.8814 165.05 61.8114C157.467 61.7614 149.877 61.7808 142.286 61.8002C140.767 61.8041 139.249 61.808 137.73 61.8114M178.13 136.781C177.94 119.311 178.18 101.841 177.99 84.3814M178.13 136.781C178.31 142.261 176.42 147.601 173.6 152.231C167.65 160.831 157.15 166.131 146.64 164.801M178.13 136.781C178.035 128.046 178.048 119.311 178.06 110.577C178.073 101.844 178.085 93.1113 177.99 84.3814M177.99 84.3814C175.248 87.1317 173.074 90.3423 170.908 93.5429C170.364 94.3455 169.821 95.1474 169.27 95.9414C168.56 97.1614 167.24 97.6714 166 98.1414M137.73 61.8114C137.809 61.8316 137.903 61.8556 138.005 61.8819C138.459 61.9984 139.087 62.1598 139.43 62.2414M137.73 61.8114C132.42 61.5814 127.08 61.8814 121.76 61.7314C118.58 61.8114 115.39 61.8314 112.21 61.7514C103.73 61.7614 95.2498 61.8514 86.7698 61.7214C89.7198 65.1914 91.5298 69.4614 92.4198 73.8914C105.57 74.1114 118.71 74.0214 131.86 73.9414M137.73 61.8114C138.16 61.9214 139.01 62.1414 139.43 62.2414M139.43 62.2414C143.41 63.4014 147.55 65.0514 150.09 68.5114C150.643 69.1466 151.083 69.873 151.521 70.5969C152.207 71.7306 152.889 72.8585 154 73.6213C156.24 73.9387 158.601 73.9298 160.945 73.9209C162.515 73.915 164.077 73.9091 165.59 74.0014C166.095 78.939 166.035 83.8956 165.975 88.8549C165.938 91.9507 165.9 95.0475 166 98.1414M139.43 62.2414C136.94 66.1614 134.23 69.9414 131.86 73.9414M139.43 62.2414C143.41 63.4014 146.681 64.76 150 68.1213C152.588 70.743 155 72.6213 155 76.1213M166 98.1414C165.943 106.273 165.962 114.405 165.982 122.537C165.993 127.245 166.004 131.953 166 136.661C166.06 144.381 160.04 151.231 152.53 152.641M152.53 152.641C151.561 154.613 150.611 156.59 149.662 158.566C148.661 160.648 147.661 162.729 146.64 164.801M152.53 152.641C155.8 142.611 154.79 131.991 154.93 121.621C154.94 110.951 154.94 100.291 154.95 89.6214C154.95 85.1614 154.967 80.5812 155 76.1213M152.53 152.641C150.54 156.691 148.63 160.761 146.64 164.801M146.64 164.801C139.52 174.521 129.39 182.241 117.56 185.091C105.19 188.221 91.6698 186.711 80.3898 180.691M131.86 73.9414C133.98 73.9514 136.11 74.0414 138.19 74.5014C140.19 74.9614 143 77.1213 143 78.6213M155 76.1213C154.747 84.9337 154.947 93 154.942 102C154.222 100.04 154.94 104.363 154.939 107.681C151 107.681 146.64 107.681 143.38 107.681C142.72 97.9514 143.15 88.6213 143 78.6213M143 78.6213C143.45 98.0013 142.87 117.231 143 136.621C143.22 147.751 137.77 158.761 129.18 165.811C118.23 175.031 102.14 177.031 89.0598 171.411M80.3898 180.691C80.2198 175.841 83.6598 170.571 89.0598 171.411M80.3898 180.691C70.5398 175.361 62.6898 166.641 58.1698 156.411C57.1098 153.911 56.3098 151.291 55.7398 148.631C55.3798 146.971 55.0998 145.291 54.8398 143.621C58.8798 143.531 62.9198 143.471 66.9498 143.571C67.1298 144.181 67.4798 145.401 67.6598 146.001C70.3298 157.241 78.5298 166.771 89.0598 171.411" stroke="url(#paint8_linear_640_165)" stroke-width="2"/>
<path d="M57.2518 85.9004C56.6996 85.9004 56.2518 86.3481 56.2518 86.9004V121.621C56.2518 122.726 55.3564 123.621 54.2518 123.621H46.8002C45.6957 123.621 44.8002 122.726 44.8002 121.621V86.9004C44.8002 86.3481 44.3525 85.9004 43.8002 85.9004H35C33.8954 85.9004 33 85.005 33 83.9004V77.6213C33 76.5168 33.8954 75.6213 35 75.6213H66C67.1046 75.6213 68 76.5168 68 77.6213V83.9004C68 85.005 67.1046 85.9004 66 85.9004H57.2518Z" fill="#A117FF"/>
<path d="M73 61.6213H30C21.1634 61.6213 14 68.7848 14 77.6213V122.621C14 131.458 21.1634 138.621 30 138.621H73C81.8366 138.621 89 131.458 89 122.621V77.6213C89 68.7848 81.8366 61.6213 73 61.6213Z" stroke="url(#paint9_linear_640_165)" stroke-width="14"/>
<defs>
<linearGradient id="paint0_linear_640_165" x1="105.417" y1="179.68" x2="105.417" y2="6" gradientUnits="userSpaceOnUse">
<stop stop-color="#A93AFF"/>
<stop offset="1" stop-color="#FF81FF"/>
</linearGradient>
<linearGradient id="paint1_linear_640_165" x1="105.417" y1="179.68" x2="105.417" y2="6" gradientUnits="userSpaceOnUse">
<stop stop-color="#A93AFF"/>
<stop offset="1" stop-color="#FF81FF"/>
</linearGradient>
<linearGradient id="paint2_linear_640_165" x1="92.5" y1="182" x2="116.785" y2="61.7211" gradientUnits="userSpaceOnUse">
<stop stop-color="#C41BFF"/>
<stop offset="1" stop-color="#FF78C8"/>
</linearGradient>
<linearGradient id="paint3_linear_640_165" x1="92.5" y1="182" x2="116.785" y2="61.7211" gradientUnits="userSpaceOnUse">
<stop stop-color="#C41BFF"/>
<stop offset="1" stop-color="#FF78C8"/>
</linearGradient>
<linearGradient id="paint4_linear_640_165" x1="92.5" y1="182" x2="116.785" y2="61.7211" gradientUnits="userSpaceOnUse">
<stop stop-color="#C41BFF"/>
<stop offset="1" stop-color="#FF78C8"/>
</linearGradient>
<linearGradient id="paint5_linear_640_165" x1="92.5" y1="182" x2="116.785" y2="61.7211" gradientUnits="userSpaceOnUse">
<stop stop-color="#C41BFF"/>
<stop offset="1" stop-color="#FF78C8"/>
</linearGradient>
<linearGradient id="paint6_linear_640_165" x1="92.5" y1="182" x2="116.785" y2="61.7211" gradientUnits="userSpaceOnUse">
<stop stop-color="#C41BFF"/>
<stop offset="1" stop-color="#FF78C8"/>
</linearGradient>
<linearGradient id="paint7_linear_640_165" x1="92.5" y1="182" x2="116.785" y2="61.7211" gradientUnits="userSpaceOnUse">
<stop stop-color="#C41BFF"/>
<stop offset="1" stop-color="#FF78C8"/>
</linearGradient>
<linearGradient id="paint8_linear_640_165" x1="92.5" y1="182" x2="116.785" y2="61.7211" gradientUnits="userSpaceOnUse">
<stop stop-color="#C41BFF"/>
<stop offset="1" stop-color="#FF78C8"/>
</linearGradient>
<linearGradient id="paint9_linear_640_165" x1="51.5" y1="132.621" x2="51.5" y2="67.6213" gradientUnits="userSpaceOnUse">
<stop stop-color="#A93AFF"/>
<stop offset="1" stop-color="#FF81FF"/>
</linearGradient>
</defs>
</svg>
