<svg width="128" height="128" viewBox="0 0 128 128" fill="none" xmlns="http://www.w3.org/2000/svg">
<path d="M60.871 48.6525C61.6323 53.8766 61.0454 59.1761 61.2197 64.435C61.0395 69.7113 61.6264 75.0341 60.871 80.2872C60.9001 69.7404 60.9001 59.1936 60.871 48.6525Z" fill="url(#paint0_linear_614_153)"/>
<path d="M13.0313 49.9135C13.0546 44.4861 17.5987 39.4887 23.0319 39.0819C30.0515 39.6805 37.0944 39.1865 44.1256 39.2737C42.6903 41.447 41.2492 43.6145 39.8778 45.8284C35.8508 45.8401 31.8297 45.8517 27.8085 45.8168C26.0187 45.811 24.1999 45.7703 22.4683 46.2701C20.3821 47.1591 19.7604 49.559 19.9173 51.6335C20.0277 61.1518 19.7662 70.6818 20.0625 80.1942C19.4582 78.2883 19.435 76.2777 19.3769 74.302C17.1687 76.853 15.0593 79.5434 13.7577 82.6871L13.806 82.8205C13.5271 81.083 12.9616 79.5609 13.0023 77.7885C13.0371 68.4969 12.9732 59.2052 13.0313 49.9135Z" fill="url(#paint1_linear_614_153)"/>
<path d="M44.1256 39.2737C47.833 39.3086 48.5403 39.1052 52.2419 39.2679C55.5948 39.9884 58.4421 42.3942 59.9181 45.4623C58.1167 47.3974 56.4664 49.4661 54.8335 51.5406C54.543 50.7793 54.2524 50.0181 53.9503 49.2627C53.4854 47.8971 52.5556 46.6071 51.132 46.1597C46.4193 45.4623 44.6253 46.0028 39.8778 45.8284C41.2492 43.6145 42.6903 41.447 44.1256 39.2737Z" fill="url(#paint2_linear_614_153)"/>
<path d="M54.8335 51.5406C56.4664 49.4661 58.1167 47.3974 59.9181 45.4623C60.3249 46.4967 60.6851 47.5543 60.871 48.6525C60.9001 59.1936 60.9001 69.7404 60.871 80.2872C60.6618 81.6295 60.226 82.9312 59.7263 84.2038C57.646 87.3766 54.2582 89.8694 50.3532 89.9566C44.6469 90.1077 41.9348 89.945 36.2284 90.0322C34.3457 90.0205 32.463 89.945 30.5802 89.9799C31.9284 87.8647 33.3288 85.7844 34.6886 83.6692C31.0044 83.4716 27.2564 83.9132 23.6245 83.0881C33.352 83.1113 40.0912 83.1578 49.8186 83.059C52.2825 83.1404 54.2291 80.8044 54.0316 78.4103C54.0083 68.6944 54.1653 58.9727 53.9503 49.2627C54.2524 50.0181 54.543 50.7793 54.8335 51.5406Z" fill="url(#paint3_linear_614_153)"/>
<path d="M13.7577 82.6871C15.0593 79.5434 17.1687 76.853 19.3769 74.302C19.435 76.2777 19.4582 78.2883 20.0625 80.1942C20.725 81.6354 22.0265 82.815 23.6245 83.0881C27.2564 83.9132 31.0044 83.4716 34.6886 83.6692C33.3288 85.7844 31.9284 87.8647 30.5802 89.9799C29.6156 89.9973 28.657 90.0263 27.6923 90.0438C24.5428 90.0554 21.1376 90.16 18.3949 88.3528C16.8608 87.4114 15.6289 86.0633 14.5538 84.6396C14.2633 84.0004 13.9959 83.3496 13.7577 82.6871Z" fill="url(#paint4_linear_614_153)"/>
<path fill-rule="evenodd" clip-rule="evenodd" d="M66.7591 17.0062C74.1099 16.8842 81.4317 18.5578 88.0736 21.6898C92.3272 23.8456 96.3367 26.507 99.8058 29.7902C104.919 34.5436 108.946 40.4475 111.573 46.9151C111.618 47.0285 111.664 47.1436 111.711 47.2602C112.337 48.8216 113.068 50.6429 111.997 52.1623C110.713 54.3414 107.069 54.1845 106.07 51.8311C104.716 48.5073 103.333 45.1602 101.259 42.1966C99.6605 39.6921 97.7429 37.4026 95.6103 35.3397C92.0831 31.9461 87.969 29.1743 83.4771 27.2277C80.3683 25.8737 78.0735 25.0079 74.738 24.4152C74.7264 25.1009 74.7206 25.7865 74.7206 26.4664C74.7165 27.8881 74.7217 29.3098 74.727 30.7316C74.7374 33.575 74.7479 36.4186 74.6857 39.2621C74.1151 40.0056 73.4793 40.7404 72.8372 41.4837C70.5617 44.1153 68.1949 46.853 68.2762 50.4597C68.2443 52.1289 68.2472 53.7999 68.2495 55.4713C68.2547 58.9902 67.9204 62.4786 68 66C68 57.9786 67.7614 49.5225 67.7974 41.0908C67.8189 36.0316 67.8404 30.9722 67.8056 25.9144C67.8027 25.5715 67.8015 25.2287 67.7997 24.8858C67.7986 24.543 67.7968 24.2002 67.7939 23.8573C56.1198 24.1479 43.6026 29.5811 36.3099 38.774C35.8897 38.7902 35.4694 38.8076 35.049 38.8249C32.6088 38.9257 30.1651 39.0266 27.7213 38.9076C35.9205 25.6296 51.18 17.1864 66.7591 17.0062ZM68 66C67.9204 62.4786 68.2547 58.9902 68.2495 55.4713C68.2472 53.7999 68.2443 52.1289 68.2762 50.4597C68.1949 46.853 70.5617 44.1153 72.8372 41.4837C73.4793 40.7404 74.1151 40.0056 74.6857 39.2621C74.7484 43.4715 74.7386 47.6833 74.7293 51.8945C74.7235 54.339 74.7176 56.7848 74.7264 59.2285V59.2285C74.8343 60.3834 75.7516 61.265 76.9104 61.3146C76.9783 61.3175 77.0475 61.3211 77.1187 61.3257C77.4924 61.3497 77.8648 61.3736 78.2129 61.3262C80.5478 61.3421 81.8826 61.3386 84.218 61.3351C86.9904 61.3309 89.7634 61.3268 92.5363 61.3552C91.6444 63.1086 90.6588 64.8136 89.6739 66.5183C89.3368 67.1015 88.9998 67.6851 88.6663 68.2702C82.4544 68.2818 77.2367 68.2877 71.0248 68.2702C69.636 68.1308 68.0226 67 68 66ZM92.5363 61.3552C98.8586 61.3319 105.181 61.3146 111.503 61.3495C113.049 61.2797 114.542 62.4013 114.879 63.9179C115.066 65.1146 114.996 66.3255 114.926 67.534V67.5351C114.907 67.8699 114.887 68.204 114.874 68.5375C114.054 77.7014 110.585 86.5979 104.914 93.8499C99.3351 100.765 91.9494 106.256 83.5468 109.22C73.2557 112.933 61.6978 112.863 51.4125 109.156C41.7257 105.571 33.1662 98.8415 27.6923 90.0438C28.1747 90.0351 28.6554 90.0234 29.1363 90.0118C29.6171 90.0002 30.0979 89.9886 30.5802 89.9799C31.7726 89.9578 32.9652 89.9798 34.1576 90.0019C34.8479 90.0153 35.5381 90.0281 36.2284 90.0322C36.7689 90.7411 37.321 91.4442 37.9195 92.1008C42.4578 97.0459 48.2629 100.811 54.6143 102.961C67.1193 107.256 81.6757 104.926 92.1238 96.7961C100.55 90.4099 106.285 80.6417 107.714 70.1588C107.813 69.5486 107.918 68.9327 108.028 68.3225C103.997 68.2609 99.9633 68.2673 95.9293 68.2737C93.5085 68.2772 91.0871 68.2813 88.6663 68.2702C88.9992 67.6856 89.3363 67.1022 89.6733 66.5195L89.6739 66.5183C90.6588 64.8136 91.6444 63.1086 92.5363 61.3552Z" fill="url(#paint5_linear_614_153)"/>
<path d="M60.871 48.6525C61.6323 53.8766 61.0454 59.1761 61.2197 64.435C61.0395 69.7113 61.6264 75.0341 60.871 80.2872M60.871 48.6525C60.9001 59.1936 60.9001 69.7404 60.871 80.2872M60.871 48.6525C60.6851 47.5543 60.3249 46.4967 59.9181 45.4623M60.871 80.2872C60.6618 81.6295 60.226 82.9312 59.7263 84.2038C57.646 87.3766 54.2582 89.8694 50.3532 89.9566C44.6469 90.1077 41.9348 89.945 36.2284 90.0322M44.1256 39.2737C37.0944 39.1865 30.0515 39.6805 23.0319 39.0819C17.5987 39.4887 13.0546 44.4861 13.0313 49.9135C12.9732 59.2052 13.0371 68.4969 13.0023 77.7885C12.9616 79.5609 13.5271 81.083 13.806 82.8205L13.7577 82.6871M44.1256 39.2737C42.6903 41.447 41.2492 43.6145 39.8778 45.8284M44.1256 39.2737C47.833 39.3086 48.5403 39.1052 52.2419 39.2679C55.5948 39.9884 58.4421 42.3942 59.9181 45.4623M39.8778 45.8284C35.8508 45.8401 31.8297 45.8517 27.8085 45.8168C26.0187 45.811 24.1999 45.7703 22.4683 46.2701C20.3821 47.1591 19.7604 49.559 19.9173 51.6335C20.0277 61.1518 19.7662 70.6818 20.0625 80.1942M39.8778 45.8284C44.6253 46.0028 46.4193 45.4623 51.132 46.1597C52.5556 46.6071 53.4854 47.8971 53.9503 49.2627M20.0625 80.1942C19.4582 78.2883 19.435 76.2777 19.3769 74.302C17.1687 76.853 15.0593 79.5434 13.7577 82.6871M20.0625 80.1942C20.725 81.6354 22.0265 82.815 23.6245 83.0881M13.7577 82.6871C13.9959 83.3496 14.2633 84.0004 14.5538 84.6396C15.6289 86.0633 16.8608 87.4114 18.3949 88.3528C21.1376 90.16 24.5428 90.0554 27.6923 90.0438M59.9181 45.4623C58.1167 47.3974 56.4664 49.4661 54.8335 51.5406C54.543 50.7793 54.2524 50.0181 53.9503 49.2627M53.9503 49.2627C54.1653 58.9727 54.0083 68.6944 54.0316 78.4103C54.2291 80.8044 52.2825 83.1404 49.8186 83.059C40.0912 83.1578 33.352 83.1113 23.6245 83.0881M36.2284 90.0322C34.3457 90.0205 32.463 89.945 30.5802 89.9799M36.2284 90.0322C35.5381 90.0281 34.8479 90.0153 34.1576 90.0019C32.9652 89.9798 31.7726 89.9578 30.5802 89.9799M36.2284 90.0322C36.7689 90.7411 37.321 91.4442 37.9195 92.1008C42.4578 97.0459 48.2629 100.811 54.6143 102.961C67.1193 107.256 81.6757 104.926 92.1238 96.7961C100.55 90.4099 106.285 80.6417 107.714 70.1588C107.813 69.5486 107.918 68.9327 108.028 68.3225C103.997 68.2609 99.9633 68.2673 95.9293 68.2737C93.5085 68.2772 91.0871 68.2813 88.6663 68.2702M30.5802 89.9799C31.9284 87.8647 33.3288 85.7844 34.6886 83.6692C31.0044 83.4716 27.2564 83.9132 23.6245 83.0881M30.5802 89.9799C29.6156 89.9973 28.657 90.0263 27.6923 90.0438M30.5802 89.9799C30.0979 89.9886 29.6171 90.0002 29.1363 90.0118C28.6554 90.0234 28.1747 90.0351 27.6923 90.0438M27.6923 90.0438C33.1662 98.8415 41.7257 105.571 51.4125 109.156C61.6978 112.863 73.2557 112.933 83.5468 109.22C91.9494 106.256 99.3351 100.765 104.914 93.8499C110.585 86.5979 114.054 77.7014 114.874 68.5375C114.887 68.204 114.907 67.8699 114.926 67.5351V67.534C114.996 66.3255 115.066 65.1146 114.879 63.9179C114.542 62.4013 113.049 61.2797 111.503 61.3495C105.181 61.3146 98.8586 61.3319 92.5363 61.3552M74.6857 39.2621C74.7479 36.4186 74.7374 33.575 74.727 30.7316C74.7217 29.3098 74.7165 27.8881 74.7206 26.4664C74.7206 25.7865 74.7264 25.1009 74.738 24.4152C78.0735 25.0079 80.3683 25.8737 83.4771 27.2277C87.969 29.1743 92.0831 31.9461 95.6103 35.3397C97.7429 37.4026 99.6605 39.6921 101.259 42.1966C103.333 45.1602 104.716 48.5073 106.07 51.8311C107.069 54.1845 110.713 54.3414 111.997 52.1623C113.068 50.6429 112.337 48.8216 111.711 47.2602C111.664 47.1436 111.618 47.0285 111.573 46.9151C108.946 40.4475 104.919 34.5436 99.8058 29.7902C96.3367 26.507 92.3272 23.8456 88.0736 21.6898C81.4317 18.5578 74.1099 16.8842 66.7591 17.0062C51.18 17.1864 35.9205 25.6296 27.7213 38.9076C30.1651 39.0266 32.6088 38.9257 35.049 38.8249C35.4694 38.8076 35.8897 38.7902 36.3099 38.774C43.6026 29.5811 56.1198 24.1479 67.7939 23.8573C67.7968 24.2002 67.7986 24.543 67.7997 24.8858C67.8015 25.2287 67.8027 25.5715 67.8056 25.9144C67.8404 30.9722 67.8189 36.0316 67.7974 41.0908C67.7614 49.5225 68 57.9786 68 66M74.6857 39.2621C74.1151 40.0056 73.4793 40.7404 72.8372 41.4837C70.5617 44.1153 68.1949 46.853 68.2762 50.4597C68.2443 52.1289 68.2472 53.7999 68.2495 55.4713C68.2547 58.9902 67.9204 62.4786 68 66M74.6857 39.2621C74.7484 43.4715 74.7386 47.6833 74.7293 51.8945C74.7235 54.339 74.7176 56.7848 74.7264 59.2285V59.2285C74.8343 60.3834 75.7516 61.265 76.9104 61.3146C76.9783 61.3175 77.0475 61.3211 77.1187 61.3257C77.4924 61.3497 77.8648 61.3736 78.2129 61.3262C80.5478 61.3421 81.8826 61.3386 84.218 61.3351C86.9904 61.3309 89.7634 61.3268 92.5363 61.3552M68 66C68.0226 67 69.636 68.1308 71.0248 68.2702C77.2367 68.2877 82.4544 68.2818 88.6663 68.2702M92.5363 61.3552C91.6444 63.1086 90.6588 64.8136 89.6739 66.5183M89.6739 66.5183C89.3368 67.1015 88.9998 67.6851 88.6663 68.2702M89.6739 66.5183L89.6733 66.5195C89.3363 67.1022 88.9992 67.6856 88.6663 68.2702" stroke="url(#paint6_linear_614_153)" stroke-width="4"/>
<path d="M28.9876 55.1145C29.0305 53.1972 30.6529 51.7838 32.5694 51.7124C36.641 51.5608 40.7464 51.4547 44.7187 52.4238C43.3996 53.6674 42.5 54.5 41.3949 56.6832C40.4885 56.622 39.5822 56.5789 38.6755 56.5505C36.468 56.4813 34.6861 58.2988 34.6849 60.5074C34.684 62.3159 34.6847 64.1241 34.7181 65.9342C33.0039 68.3516 30.9814 70.7977 28.9999 73C29 69 29.0815 64.5338 29.0002 60.3674C29.0323 58.6198 28.9484 56.8635 28.9876 55.1145Z" fill="url(#paint7_linear_614_153)"/>
<path d="M41.3949 56.6832C42.5 54.5 43.3996 53.6674 44.7187 52.4238C48.0368 54.1497 48.0542 58.2754 48.0077 61.5237C47.9612 64.3188 48.0135 67.9041 45.3172 69.5603C42.6284 70.9623 39.5549 70.7258 36.5816 70.7095C35.5339 70.7037 34.7091 71.5563 34.7014 72.604C34.696 73.3476 34.6928 74.0915 34.6853 74.8354C34.6659 76.7397 33.2632 78.5337 31.3589 78.527C31.137 78.5262 30.9175 78.514 30.7019 78.4873C29.8221 78.378 29.1656 77.6545 29.0317 76.778C28.8357 75.4941 29.0001 74.1066 28.9999 73C30.9814 70.7977 33.0039 68.3516 34.7181 65.9342C36.5998 65.7596 38.6919 66.2165 40.5115 65.6698C41.2275 65.4546 41.7648 64.8694 41.9962 64.1585C42.7725 61.7737 42.3682 58.9527 41.3949 56.6832Z" fill="url(#paint8_linear_614_153)"/>
<path d="M44.7187 52.4238C40.7464 51.4547 36.641 51.5608 32.5694 51.7124C30.6529 51.7838 29.0305 53.1972 28.9876 55.1145C28.9484 56.8635 29.0323 58.6198 29.0002 60.3674C29.0815 64.5338 29 69 28.9999 73M44.7187 52.4238C43.3996 53.6674 42.5 54.5 41.3949 56.6832M44.7187 52.4238C48.0368 54.1497 48.0542 58.2754 48.0077 61.5237C47.9612 64.3188 48.0135 67.9041 45.3172 69.5603C42.6284 70.9623 39.5549 70.7258 36.5816 70.7095C35.5339 70.7037 34.7091 71.5563 34.7014 72.604C34.696 73.3476 34.6928 74.0915 34.6853 74.8354C34.6659 76.7397 33.2632 78.5337 31.3589 78.527C31.137 78.5262 30.9175 78.514 30.7019 78.4873C29.8221 78.378 29.1656 77.6545 29.0317 76.778C28.8357 75.4941 29.0001 74.1066 28.9999 73M41.3949 56.6832C40.4885 56.622 39.5822 56.5789 38.6755 56.5505C36.468 56.4813 34.6861 58.2988 34.6849 60.5074C34.684 62.3159 34.6847 64.1241 34.7181 65.9342M41.3949 56.6832C42.3682 58.9527 42.7725 61.7737 41.9962 64.1585C41.7648 64.8694 41.2275 65.4546 40.5115 65.6698C38.6919 66.2165 36.5998 65.7596 34.7181 65.9342M34.7181 65.9342C33.0039 68.3516 30.9814 70.7977 28.9999 73" stroke="url(#paint9_linear_614_153)" stroke-width="2"/>
<defs>
<linearGradient id="paint0_linear_614_153" x1="40" y1="84.5" x2="104.674" y2="35.1961" gradientUnits="userSpaceOnUse">
<stop stop-color="#FF5C00"/>
<stop offset="1" stop-color="#FEE502"/>
</linearGradient>
<linearGradient id="paint1_linear_614_153" x1="40" y1="84.5" x2="104.674" y2="35.1961" gradientUnits="userSpaceOnUse">
<stop stop-color="#FF5C00"/>
<stop offset="1" stop-color="#FEE502"/>
</linearGradient>
<linearGradient id="paint2_linear_614_153" x1="40" y1="84.5" x2="104.674" y2="35.1961" gradientUnits="userSpaceOnUse">
<stop stop-color="#FF5C00"/>
<stop offset="1" stop-color="#FEE502"/>
</linearGradient>
<linearGradient id="paint3_linear_614_153" x1="40" y1="84.5" x2="104.674" y2="35.1961" gradientUnits="userSpaceOnUse">
<stop stop-color="#FF5C00"/>
<stop offset="1" stop-color="#FEE502"/>
</linearGradient>
<linearGradient id="paint4_linear_614_153" x1="40" y1="84.5" x2="104.674" y2="35.1961" gradientUnits="userSpaceOnUse">
<stop stop-color="#FF5C00"/>
<stop offset="1" stop-color="#FEE502"/>
</linearGradient>
<linearGradient id="paint5_linear_614_153" x1="40" y1="84.5" x2="104.674" y2="35.1961" gradientUnits="userSpaceOnUse">
<stop stop-color="#FF5C00"/>
<stop offset="1" stop-color="#FEE502"/>
</linearGradient>
<linearGradient id="paint6_linear_614_153" x1="31.4873" y1="100.759" x2="100.975" y2="27.8596" gradientUnits="userSpaceOnUse">
<stop offset="0.184158" stop-color="#FF5C00"/>
<stop offset="1" stop-color="#FEE502"/>
</linearGradient>
<linearGradient id="paint7_linear_614_153" x1="32.394" y1="75.3498" x2="54.3121" y2="61.7912" gradientUnits="userSpaceOnUse">
<stop stop-color="#FE0844"/>
<stop offset="1" stop-color="#FEB302"/>
</linearGradient>
<linearGradient id="paint8_linear_614_153" x1="32.394" y1="75.3498" x2="54.3121" y2="61.7912" gradientUnits="userSpaceOnUse">
<stop stop-color="#FE0844"/>
<stop offset="1" stop-color="#FEB302"/>
</linearGradient>
<linearGradient id="paint9_linear_614_153" x1="32.394" y1="75.3498" x2="54.3121" y2="61.7912" gradientUnits="userSpaceOnUse">
<stop stop-color="#FE0844"/>
<stop offset="1" stop-color="#FEB302"/>
</linearGradient>
</defs>
</svg>
