<svg width="128" height="128" viewBox="0 0 128 128" fill="none" xmlns="http://www.w3.org/2000/svg">
<path fill-rule="evenodd" clip-rule="evenodd" d="M47.0321 34.6372C45.2154 34.6838 43.3997 34.7304 41.5976 34.6649C38.9357 34.598 36.274 34.5846 33.6054 34.6181C31.6427 34.6585 29.6776 34.6479 27.7121 34.6372C25.1232 34.6231 22.5338 34.6091 19.9486 34.7117C13.5616 35.0527 8.11092 40.8111 8.07749 47.2049C8.02153 54.7379 8.04064 62.271 8.05974 69.8041L8.06407 71.5423C8.12423 72.9181 8.08613 74.3245 8.04792 75.7376C7.94158 79.671 7.834 83.6536 9.83636 87.152C11.0068 88.7706 12.3979 90.2352 14.023 91.3989C16.1498 92.6028 18.5441 93.3318 20.9986 93.3518C24.0525 93.4154 27.1064 93.3933 30.1628 93.3719H30.1648C31.3112 93.3638 32.4582 93.3552 33.6054 93.3518C33.7677 93.3485 34.0121 93.3451 34.2564 93.3418C34.4953 93.3385 34.7341 93.3351 34.8962 93.3318C37.11 93.3183 39.3236 93.3251 41.5374 93.3518C42.8575 93.3518 44.1777 93.3631 45.4977 93.3745C48.5046 93.4 51.5118 93.4254 54.5187 93.3183C58.7589 93.1779 62.7918 90.7302 64.9386 87.0852C67.0319 83.7145 66.9585 79.6014 66.8647 75.7759C66.7946 72.272 66.8025 68.7648 66.8113 65.2573V65.2557C66.8193 61.7469 66.828 58.2367 66.7577 54.7288C66.7424 53.751 66.7705 52.7564 66.7979 51.756C66.8935 48.3025 66.9905 44.7824 65.3465 41.6605C63.8751 38.7111 61.18 36.5308 58.1503 35.327C54.5135 34.4449 50.7708 34.541 47.0321 34.6372ZM54.0105 85.4132C55.5152 85.2995 57.0133 84.6307 57.8694 83.3533C58.8092 82.1019 58.8116 80.5203 58.8138 79.0061C58.8142 78.6664 58.8147 78.3306 58.8257 78.0029C58.7786 73.6391 58.7959 69.2751 58.8132 64.9113C58.8376 58.7558 58.862 52.6012 58.7054 46.449C58.3242 44.9711 57.2742 43.7204 55.9365 43.0048C55.027 42.7841 54.0974 42.6236 53.1611 42.53C46.1922 42.5367 39.2233 42.5367 32.2612 42.53C30.7086 42.5979 29.1472 42.5633 27.5854 42.5287C24.6868 42.4646 21.7879 42.4003 18.9454 42.9915C16.8521 43.9679 15.8556 46.2886 16.0428 48.509C16.0865 52.7919 16.0671 57.0758 16.0478 61.3591C16.0168 68.2525 15.9857 75.1451 16.2167 82.0291C16.6781 83.0844 17.4974 83.9057 18.3017 84.7123C18.4302 84.8414 18.5584 84.9698 18.6845 85.0988C20.584 85.3396 22.49 85.4667 24.4028 85.4466C30.3257 85.4185 36.2462 85.4192 42.1672 85.4199C46.1144 85.4206 50.0619 85.4213 54.0105 85.4132ZM66.9785 48.6628C71.7671 48.6427 76.5623 48.6294 81.351 48.6561C82.7059 48.6766 84.0616 48.6618 85.4179 48.6469C87.6022 48.623 89.7857 48.5993 91.9647 48.723C93.9845 48.8836 95.3756 51.2177 94.7 53.1036C94.3055 54.5817 92.814 55.5648 91.3093 55.4979C88.618 55.5457 85.9295 55.5342 83.2403 55.5227C81.4118 55.515 79.5826 55.5072 77.7528 55.518C74.1346 55.5314 70.5163 55.5314 66.8916 55.5113C66.8995 54.0851 66.9209 52.6563 66.943 51.2281C66.9557 50.3728 66.9685 49.517 66.9785 48.6628ZM74.2656 62.0754H74.2644C71.8306 62.0828 69.3975 62.0903 66.9651 62.0922C66.9585 64.3796 66.9585 66.6668 66.9651 68.9542C72.6011 68.9735 78.2403 68.9755 83.8783 68.9775H83.8796C86.1355 68.9782 88.392 68.9788 90.6472 68.9809C92.1653 69.1012 93.8775 68.5328 94.5196 67.028C95.7166 64.8411 93.8039 61.8983 91.316 62.0922C85.6319 62.0408 79.9478 62.0581 74.2656 62.0754ZM67.1858 75.7759C75.0094 75.749 82.8323 75.749 90.6559 75.749H90.6605C92.4664 75.5083 93.8975 76.6653 94.9944 77.9561C94.8405 79.8354 94.2921 82.3902 91.9447 82.4906C86.8317 82.6377 81.7114 82.6076 76.5911 82.5769C73.3461 82.5574 70.1011 82.5381 66.858 82.5641C66.9076 81.6392 66.9464 80.7129 66.9859 79.7866V79.7853C67.042 78.4483 67.0989 77.1108 67.1858 75.7759Z" fill="url(#paint0_linear_671_27)"/>
<path d="M33.6721 21.1351C34.2541 13.2233 41.2095 6.39486 49.1481 6.06711C54.9734 5.94007 60.7986 6.03367 66.6237 6.02696C64.8783 8.68211 63.0524 11.2838 61.1731 13.8452C57.1804 13.9188 53.1743 13.6446 49.1883 13.9657C46.1653 14.193 43.6038 16.2998 42.2796 18.9548C40.7681 24.0176 41.7445 29.4482 41.5973 34.6649C38.9355 34.598 36.2737 34.5847 33.6051 34.6181C33.5784 30.1238 33.4381 25.6228 33.6721 21.1351Z" fill="url(#paint1_linear_671_27)"/>
<path d="M66.6235 6.02694C75.5385 6.02035 84.4536 6.00022 93.3753 6.02694C91.4692 8.58849 89.6033 11.1834 87.831 13.8385C78.9427 13.8586 70.0611 13.8385 61.1729 13.8452C63.0522 11.2838 64.878 8.68209 66.6235 6.02694Z" fill="url(#paint2_linear_671_27)"/>
<path d="M93.3754 6.02696C97.134 6.08723 100.906 5.8732 104.665 6.13397C110.63 6.69578 115.814 10.8758 118.221 16.2796C117.472 15.9386 116.723 15.5975 115.974 15.2565C114.328 17.1358 112.677 19.0418 111.479 21.2422C111.159 20.2056 110.811 19.1755 110.302 18.2125C108.818 15.7647 106.203 13.9857 103.287 13.9054C98.1372 13.7115 92.9808 13.9121 87.8311 13.8385C89.6034 11.1834 91.4692 8.58851 93.3754 6.02696Z" fill="url(#paint3_linear_671_27)"/>
<path d="M115.974 15.2565C116.723 15.5975 117.471 15.9386 118.221 16.2797C119.82 20.6202 119.412 25.295 119.445 29.8295C119.438 38.4503 119.472 47.071 119.431 55.6919C117.125 57.9324 114.697 60.1795 113.158 63.0486C111.927 65.3693 112.068 68.0846 112.041 70.6261C112.215 79.5412 111.908 88.4563 112.027 97.3713C112.068 100.535 112.034 103.718 111.412 106.835C111.586 78.3039 111.539 49.7663 111.479 21.2422C112.677 19.0418 114.328 17.1358 115.974 15.2565Z" fill="url(#paint4_linear_671_27)"/>
<path d="M47.4224 113.764C50.6392 114.345 53.9231 114.085 57.1734 114.131C69.4926 114.131 81.8185 114.052 94.1377 114.145C88.4196 114.96 82.5609 114.553 76.9096 115.83C74.0404 116.378 72.4487 119.02 70.8503 121.194C63.3263 121.662 55.7756 121.161 48.2584 121.829C46.2721 121.676 44.3928 120.959 42.5869 120.164C43.8711 117.803 45.523 115.663 47.4224 113.764Z" fill="url(#paint5_linear_671_27)"/>
<path d="M113.158 63.0486C114.697 60.1795 117.125 57.9324 119.431 55.6919C119.466 71.8165 119.433 87.9413 119.452 104.066C119.519 107.457 118.883 110.914 117.151 113.864C114.075 118.779 108.51 122.124 102.645 121.996C84.5208 121.909 66.3832 122.143 48.2588 121.829C55.776 121.161 63.3267 121.662 70.8507 121.194C72.4491 119.02 74.0408 116.378 76.91 115.83C82.5613 114.553 88.42 114.96 94.1381 114.145C97.4086 114.038 100.692 114.285 103.956 114.011C107.695 113.637 110.771 110.473 111.413 106.835C112.035 103.718 112.069 100.535 112.028 97.3713C111.908 88.4563 112.216 79.5412 112.042 70.6261C112.069 68.0846 111.928 65.3693 113.158 63.0486Z" fill="url(#paint6_linear_671_27)"/>
<path d="M33.6059 93.3518C33.9269 93.3451 34.569 93.3385 34.8967 93.3318C37.1104 93.3183 39.3241 93.325 41.5379 93.3518C41.5178 94.1745 41.5045 94.997 41.4979 95.8263C41.5714 99.4646 41.3173 103.116 41.6449 106.741C41.9994 109.998 44.5342 112.513 47.4234 113.764C45.524 115.663 43.8721 117.803 42.5879 120.164C39.4447 118.465 36.93 115.77 35.1977 112.666C34.4554 111.041 33.9872 109.309 33.6996 107.55C33.4857 102.822 33.6996 98.0868 33.6059 93.3518Z" fill="url(#paint7_linear_671_27)"/>
<path d="M41.5976 34.6649C43.3997 34.7304 45.2154 34.6838 47.0321 34.6372C50.7708 34.541 54.5135 34.4449 58.1503 35.3271C61.18 36.5308 63.8751 38.7111 65.3465 41.6605C66.9905 44.7824 66.8935 48.3025 66.7979 51.756C66.7705 52.7564 66.7424 53.751 66.7577 54.7288C66.828 58.2367 66.8193 61.7469 66.8113 65.2557V65.2573C66.8025 68.7648 66.7946 72.272 66.8647 75.7759C66.9585 79.6014 67.0319 83.7145 64.9386 87.0852C62.7918 90.7302 58.7589 93.1779 54.5187 93.3184C51.5118 93.4254 48.5046 93.4 45.4977 93.3745C44.1777 93.3632 42.8575 93.3518 41.5374 93.3518M41.5976 34.6649C38.9357 34.598 36.274 34.5847 33.6054 34.6181M41.5976 34.6649C41.7447 29.4482 40.7684 24.0176 42.2798 18.9548C43.604 16.2998 46.1656 14.193 49.1885 13.9657C53.1746 13.6446 57.1807 13.9188 61.1734 13.8452M41.5374 93.3518C39.3236 93.3251 37.11 93.3184 34.8962 93.3318M41.5374 93.3518C41.5173 94.1745 41.504 94.9971 41.4974 95.8263C41.571 99.4646 41.3168 103.116 41.6444 106.741C41.9989 109.998 44.5337 112.513 47.4229 113.764M33.6054 34.6181C31.6427 34.6585 29.6776 34.6479 27.7121 34.6372C25.1232 34.6231 22.5338 34.6091 19.9486 34.7117C13.5616 35.0527 8.11092 40.8111 8.07749 47.2049C8.02153 54.7379 8.04064 62.271 8.05974 69.8042L8.06407 71.5423C8.12423 72.9181 8.08613 74.3245 8.04792 75.7377C7.94158 79.671 7.834 83.6536 9.83636 87.1521C11.0068 88.7706 12.3979 90.2353 14.023 91.3989C16.1498 92.6028 18.5441 93.3318 20.9986 93.3518C24.0525 93.4154 27.1064 93.3933 30.1628 93.3719H30.1648C31.3112 93.3638 32.4582 93.3552 33.6054 93.3518M33.6054 34.6181C33.5787 30.1238 33.4384 25.6228 33.6724 21.1351C34.2543 13.2233 41.2098 6.39486 49.1484 6.06711C54.9736 5.94007 60.7989 6.03367 66.624 6.02696M61.1734 13.8452C63.0527 11.2838 64.8785 8.68211 66.624 6.02696M61.1734 13.8452C70.0616 13.8385 78.9432 13.8587 87.8315 13.8385M33.6054 93.3518C33.7677 93.3485 34.0121 93.3451 34.2564 93.3418C34.4953 93.3385 34.7341 93.3351 34.8962 93.3318M33.6054 93.3518C33.9265 93.3451 34.5686 93.3385 34.8962 93.3318M33.6054 93.3518C33.6991 98.0869 33.4852 102.822 33.6991 107.55C33.9867 109.309 34.4549 111.041 35.1972 112.666C36.9295 115.77 39.4442 118.465 42.5875 120.164M66.624 6.02696C75.539 6.02036 84.4541 6.00023 93.3758 6.02696M42.5875 120.164C43.8716 117.803 45.5235 115.663 47.4229 113.764M42.5875 120.164C44.3933 120.959 46.2726 121.676 48.2589 121.829M47.4229 113.764C50.6398 114.345 53.9236 114.085 57.174 114.131C69.4932 114.131 81.8191 114.052 94.1383 114.145M93.3758 6.02696C91.4697 8.58851 89.6038 11.1834 87.8315 13.8385M93.3758 6.02696C97.1345 6.08723 100.906 5.8732 104.665 6.13398C110.63 6.69578 115.814 10.8758 118.222 16.2796M87.8315 13.8385C92.9812 13.9121 98.1376 13.7115 103.287 13.9054C106.203 13.9857 108.819 15.7647 110.303 18.2125C110.811 19.1755 111.159 20.2056 111.48 21.2422M118.222 16.2796C117.472 15.9386 116.724 15.5975 115.974 15.2565C114.329 17.1358 112.677 19.0418 111.48 21.2422M118.222 16.2796C119.821 20.6202 119.412 25.295 119.445 29.8295C119.438 38.4503 119.473 47.071 119.432 55.6919M111.48 21.2422C111.54 49.7663 111.587 78.3039 111.413 106.835M119.432 55.6919C117.125 57.9324 114.697 60.1795 113.158 63.0486C111.928 65.3693 112.069 68.0846 112.042 70.626C112.216 79.5412 111.909 88.4563 112.028 97.3713C112.069 100.535 112.035 103.718 111.413 106.835M119.432 55.6919C119.466 71.8165 119.433 87.9413 119.452 104.066C119.519 107.457 118.883 110.914 117.151 113.864C114.075 118.779 108.511 122.124 102.645 121.996C84.521 121.909 66.3834 122.143 48.2589 121.829M111.413 106.835C110.771 110.473 107.695 113.637 103.956 114.011C100.692 114.285 97.4088 114.038 94.1383 114.145M48.2589 121.829C55.7762 121.161 63.3269 121.662 70.8508 121.194C72.4492 119.02 74.0409 116.378 76.9101 115.83C82.5615 114.553 88.4201 114.96 94.1383 114.145M54.0105 85.4132C55.5152 85.2995 57.0133 84.6308 57.8694 83.3533C58.8092 82.102 58.8116 80.5203 58.8138 79.0061C58.8142 78.6664 58.8147 78.3306 58.8257 78.003C58.7786 73.6391 58.7959 69.2751 58.8132 64.9113C58.8376 58.7558 58.862 52.6013 58.7054 46.4491C58.3242 44.9711 57.2742 43.7204 55.9365 43.0048C55.027 42.7841 54.0974 42.6236 53.1611 42.53C46.1922 42.5367 39.2233 42.5367 32.2612 42.53C30.7086 42.5979 29.1472 42.5633 27.5854 42.5287C24.6868 42.4646 21.7879 42.4003 18.9454 42.9915C16.8521 43.9679 15.8556 46.2886 16.0428 48.509C16.0865 52.7919 16.0671 57.0758 16.0478 61.3591C16.0168 68.2525 15.9857 75.1452 16.2167 82.0291C16.6781 83.0844 17.4974 83.9058 18.3017 84.7123C18.4302 84.8414 18.5584 84.9698 18.6845 85.0988C20.584 85.3396 22.49 85.4668 24.4028 85.4466C30.3257 85.4185 36.2462 85.4192 42.1672 85.4199C46.1144 85.4206 50.0619 85.4213 54.0105 85.4132ZM66.9785 48.6628C71.7671 48.6427 76.5623 48.6294 81.351 48.6561C82.7059 48.6766 84.0616 48.6618 85.4179 48.6469C87.6022 48.623 89.7858 48.5993 91.9647 48.723C93.9845 48.8836 95.3756 51.2177 94.7001 53.1036C94.3055 54.5817 92.814 55.5648 91.3093 55.498C88.618 55.5457 85.9296 55.5342 83.2403 55.5227C81.4118 55.515 79.5827 55.5072 77.7528 55.518C74.1346 55.5314 70.5164 55.5314 66.8916 55.5113C66.8995 54.0851 66.9209 52.6563 66.943 51.2281C66.9557 50.3728 66.9685 49.517 66.9785 48.6628ZM74.2657 62.0754H74.2644C71.8306 62.0828 69.3975 62.0903 66.9651 62.0922C66.9585 64.3796 66.9585 66.6668 66.9651 68.9542C72.6011 68.9735 78.2403 68.9756 83.8783 68.9775H83.8797C86.1355 68.9782 88.392 68.9788 90.6472 68.9809C92.1653 69.1012 93.8775 68.5328 94.5196 67.028C95.7166 64.8411 93.8039 61.8983 91.316 62.0922C85.6319 62.0408 79.9478 62.0581 74.2657 62.0754ZM67.1858 75.7759C75.0094 75.749 82.8324 75.749 90.6559 75.749H90.6605C92.4664 75.5083 93.8975 76.6653 94.9944 77.9561C94.8405 79.8354 94.2921 82.3903 91.9447 82.4906C86.8317 82.6377 81.7114 82.6076 76.5911 82.5769C73.3461 82.5574 70.1011 82.5381 66.858 82.5641C66.9076 81.6392 66.9464 80.7129 66.9859 79.7866V79.7853C67.042 78.4483 67.0989 77.1108 67.1858 75.7759Z" stroke="url(#paint8_linear_671_27)" stroke-width="4"/>
<path d="M22.4733 53.9559L22.4712 53.9561C22.0281 53.9915 21.7067 54.3973 21.7839 54.835C22.3993 58.3217 23.3543 61.7363 24.309 65.1504L24.3093 65.1516L24.3134 65.1662C24.8968 67.2526 25.48 69.3382 25.9855 71.4407C26.2123 72.1319 26.3757 72.8542 26.5395 73.5779C26.8067 74.7594 27.0751 75.9454 27.6207 77.0048C27.8586 77.4666 28.3004 77.7845 28.8079 77.8958C30.1679 78.1942 31.6228 78.2322 32.9652 77.8766C33.5625 77.7184 34.0091 77.2393 34.1996 76.6513C34.8516 74.6393 35.2481 72.3984 35.6414 70.1768L35.6415 70.1757C35.9681 68.3296 36.2927 66.4964 36.7592 64.8185C36.8593 64.4586 37.0444 64.0007 37.4161 64.0374C37.4784 64.0437 37.5393 64.0646 37.5985 64.101C37.7906 64.2193 37.8653 64.4541 37.9264 64.6714C38.3987 66.3494 38.7605 68.0614 39.1225 69.7731C39.6123 72.0898 40.1019 74.4055 40.8644 76.6359C41.0773 77.2585 41.5692 77.7549 42.2108 77.9007C43.546 78.2039 44.9637 78.1898 46.3033 77.9071C46.8306 77.7957 47.2844 77.4582 47.5249 76.9759C48.0967 75.8294 48.3874 74.561 48.6778 73.2939C48.8618 72.4909 49.0457 71.6884 49.3009 70.9179C49.7886 68.8753 50.3567 66.8485 50.9249 64.8211L50.926 64.8171C51.8692 61.4522 52.8128 58.0861 53.3889 54.6466C53.4455 54.3085 53.1983 53.9965 52.8567 53.9684C51.5129 53.8579 50.1507 53.7459 48.8109 53.8804C48.0792 53.9539 47.4785 54.4655 47.2294 55.1574C46.4415 57.3458 45.9703 59.6403 45.4985 61.9372C45.1319 63.7224 43.0037 63.7686 42.5926 61.9931C42.5028 61.605 42.4128 61.2166 42.3221 60.8286C42.1515 60.1736 42.008 59.5089 41.8644 58.8437C41.5908 57.5763 41.3169 56.3074 40.855 55.1018C40.6375 54.5336 40.1581 54.1037 39.5637 53.974C38.3046 53.6991 36.969 53.7017 35.6992 53.9418C35.0199 54.0701 34.4832 54.5747 34.2545 55.227C33.4878 57.4134 32.9924 59.687 32.4968 61.9623C32.0987 63.7901 29.9735 63.7464 29.5952 61.9144C29.1239 59.6324 28.653 57.3521 27.8799 55.1691C27.6378 54.4857 27.0542 53.972 26.3335 53.8917C25.0589 53.7497 23.7589 53.8535 22.4733 53.9559Z" fill="url(#paint9_linear_671_27)" stroke="url(#paint10_linear_671_27)" stroke-width="2"/>
<defs>
<linearGradient id="paint0_linear_671_27" x1="63.7343" y1="122" x2="63.7343" y2="6" gradientUnits="userSpaceOnUse">
<stop stop-color="#5570FF"/>
<stop offset="1" stop-color="#4DD3FF"/>
</linearGradient>
<linearGradient id="paint1_linear_671_27" x1="63.7341" y1="122" x2="63.7341" y2="6.00001" gradientUnits="userSpaceOnUse">
<stop stop-color="#5570FF"/>
<stop offset="1" stop-color="#4DD3FF"/>
</linearGradient>
<linearGradient id="paint2_linear_671_27" x1="63.7338" y1="122" x2="63.7338" y2="5.99999" gradientUnits="userSpaceOnUse">
<stop stop-color="#5570FF"/>
<stop offset="1" stop-color="#4DD3FF"/>
</linearGradient>
<linearGradient id="paint3_linear_671_27" x1="63.7339" y1="122" x2="63.7339" y2="6" gradientUnits="userSpaceOnUse">
<stop stop-color="#5570FF"/>
<stop offset="1" stop-color="#4DD3FF"/>
</linearGradient>
<linearGradient id="paint4_linear_671_27" x1="63.7336" y1="122" x2="63.7336" y2="6.00002" gradientUnits="userSpaceOnUse">
<stop stop-color="#5570FF"/>
<stop offset="1" stop-color="#4DD3FF"/>
</linearGradient>
<linearGradient id="paint5_linear_671_27" x1="63.7338" y1="122" x2="63.7338" y2="6.00007" gradientUnits="userSpaceOnUse">
<stop stop-color="#5570FF"/>
<stop offset="1" stop-color="#4DD3FF"/>
</linearGradient>
<linearGradient id="paint6_linear_671_27" x1="63.7342" y1="122" x2="63.7342" y2="6.00002" gradientUnits="userSpaceOnUse">
<stop stop-color="#5570FF"/>
<stop offset="1" stop-color="#4DD3FF"/>
</linearGradient>
<linearGradient id="paint7_linear_671_27" x1="63.7348" y1="122" x2="63.7348" y2="5.99999" gradientUnits="userSpaceOnUse">
<stop stop-color="#5570FF"/>
<stop offset="1" stop-color="#4DD3FF"/>
</linearGradient>
<linearGradient id="paint8_linear_671_27" x1="63.7343" y1="122" x2="63.7343" y2="6.00001" gradientUnits="userSpaceOnUse">
<stop stop-color="#5570FF"/>
<stop offset="1" stop-color="#4DD3FF"/>
</linearGradient>
<linearGradient id="paint9_linear_671_27" x1="37.5681" y1="78.1315" x2="37.5681" y2="53.7646" gradientUnits="userSpaceOnUse">
<stop stop-color="#5570FF"/>
<stop offset="1" stop-color="#4DD3FF"/>
</linearGradient>
<linearGradient id="paint10_linear_671_27" x1="37.5681" y1="78.1315" x2="37.5681" y2="53.7646" gradientUnits="userSpaceOnUse">
<stop stop-color="#5570FF"/>
<stop offset="1" stop-color="#4DD3FF"/>
</linearGradient>
</defs>
</svg>
