<svg width="16" height="16" viewBox="0 0 16 16" fill="none" xmlns="http://www.w3.org/2000/svg">
<path fill-rule="evenodd" clip-rule="evenodd" d="M14.125 5.42857H1.875V12.2857C1.875 12.513 1.96719 12.7311 2.13128 12.8918C2.29538 13.0526 2.51794 13.1429 2.75 13.1429H13.25C13.4821 13.1429 13.7046 13.0526 13.8687 12.8918C14.0328 12.7311 14.125 12.513 14.125 12.2857V5.42857ZM14.125 4.57143H1.875V3.71429C1.875 3.48696 1.96719 3.26894 2.13128 3.10819C2.29538 2.94745 2.51794 2.85714 2.75 2.85714H13.25C13.4821 2.85714 13.7046 2.94745 13.8687 3.10819C14.0328 3.26894 14.125 3.48696 14.125 3.71429V4.57143ZM15 3.71429C15 3.25963 14.8156 2.82359 14.4874 2.5021C14.1592 2.18061 13.7141 2 13.25 2H2.75C2.28587 2 1.84075 2.18061 1.51256 2.5021C1.18437 2.82359 1 3.25963 1 3.71429L1 12.2857C1 12.7404 1.18437 13.1764 1.51256 13.4979C1.84075 13.8194 2.28587 14 2.75 14H13.25C13.7141 14 14.1592 13.8194 14.4874 13.4979C14.8156 13.1764 15 12.7404 15 12.2857V3.71429Z" fill="url(#paint0_linear)" stroke="url(#paint1_linear)" stroke-width="0.5"/>
<path d="M9.2 7.7999H10.6V10.5999H9.2V11.1599C9.2 11.2342 9.2295 11.3054 9.28201 11.3579C9.33452 11.4104 9.40574 11.4399 9.48 11.4399H10.04V11.9999H9.34C9.186 11.9999 8.92 11.8739 8.92 11.7199C8.92 11.8739 8.654 11.9999 8.5 11.9999H7.8V11.4399H8.36C8.43426 11.4399 8.50548 11.4104 8.55799 11.3579C8.6105 11.3054 8.64 11.2342 8.64 11.1599V7.2399C8.64 7.16564 8.6105 7.09442 8.55799 7.04191C8.50548 6.9894 8.43426 6.9599 8.36 6.9599H7.8V6.3999H8.5C8.654 6.3999 8.92 6.5259 8.92 6.6799C8.92 6.5259 9.186 6.3999 9.34 6.3999H10.04V6.9599H9.48C9.40574 6.9599 9.33452 6.9894 9.28201 7.04191C9.2295 7.09442 9.2 7.16564 9.2 7.2399V7.7999ZM5 7.7999H8.08V8.3599H5.56V10.0399H8.08V10.5999H5V7.7999ZM10.04 10.0399V8.3599H9.2V10.0399H10.04ZM6.82 9.1999C6.82 9.08851 6.77575 8.98168 6.69698 8.90292C6.61822 8.82415 6.51139 8.7799 6.4 8.7799C6.28861 8.7799 6.18178 8.82415 6.10302 8.90292C6.02425 8.98168 5.98 9.08851 5.98 9.1999C5.98 9.31129 6.02425 9.41812 6.10302 9.49689C6.18178 9.57565 6.28861 9.6199 6.4 9.6199C6.51139 9.6199 6.61822 9.57565 6.69698 9.49689C6.77575 9.41812 6.82 9.31129 6.82 9.1999V9.1999ZM8.08 8.8891C7.9092 8.7323 7.6432 8.7463 7.4864 8.9199C7.3296 9.0879 7.3436 9.3539 7.52 9.5107C7.674 9.6563 7.9204 9.6563 8.08 9.5107V8.8891V8.8891Z" fill="url(#paint2_linear)" stroke="url(#paint3_linear)" stroke-width="0.3"/>
<defs>
<linearGradient id="paint0_linear" x1="8" y1="14" x2="8" y2="2" gradientUnits="userSpaceOnUse">
<stop stop-color="#00B59C"/>
<stop offset="1" stop-color="#9CFFAC"/>
</linearGradient>
<linearGradient id="paint1_linear" x1="8" y1="14" x2="8" y2="2" gradientUnits="userSpaceOnUse">
<stop stop-color="#00B59C"/>
<stop offset="1" stop-color="#9CFFAC"/>
</linearGradient>
<linearGradient id="paint2_linear" x1="7.8" y1="11.9999" x2="7.8" y2="6.3999" gradientUnits="userSpaceOnUse">
<stop stop-color="#00B59C"/>
<stop offset="1" stop-color="#9CFFAC"/>
</linearGradient>
<linearGradient id="paint3_linear" x1="7.8" y1="11.9999" x2="7.8" y2="6.3999" gradientUnits="userSpaceOnUse">
<stop stop-color="#00B59C"/>
<stop offset="1" stop-color="#9CFFAC"/>
</linearGradient>
</defs>
</svg>
