<svg width="48" height="48" viewBox="0 0 48 48" fill="none" xmlns="http://www.w3.org/2000/svg">
<path fill-rule="evenodd" clip-rule="evenodd" d="M30 4C28.9391 4 27.9217 4.42143 27.1716 5.17157C26.4214 5.92172 26 6.93913 26 8V18C26 19.0609 26.4214 20.0783 27.1716 20.8284C27.9217 21.5786 28.9391 22 30 22H40C41.0609 22 42.0783 21.5786 42.8284 20.8284C43.5786 20.0783 44 19.0609 44 18V8C44 6.93914 43.5786 5.92172 42.8284 5.17157C42.0783 4.42143 41.0609 4 40 4H30ZM30 8H40V18H30V8ZM8 26C6.93913 26 5.92172 26.4214 5.17157 27.1716C4.42143 27.9217 4 28.9391 4 30V40C4 41.0609 4.42143 42.0783 5.17157 42.8284C5.92172 43.5786 6.93914 44 8 44H18C19.0609 44 20.0783 43.5786 20.8284 42.8284C21.5786 42.0783 22 41.0609 22 40V30C22 28.9391 21.5786 27.9217 20.8284 27.1716C20.0783 26.4214 19.0609 26 18 26H8ZM8 30H18V40H8V30Z" fill="url(#paint0_linear)"/>
<path fill-rule="evenodd" clip-rule="evenodd" d="M8 4C6.93913 4 5.92172 4.42143 5.17157 5.17157C4.42143 5.92172 4 6.93913 4 8V18C4 19.0609 4.42143 20.0783 5.17157 20.8284C5.92172 21.5786 6.93913 22 8 22H18C19.0609 22 20.0783 21.5786 20.8284 20.8284C21.5786 20.0783 22 19.0609 22 18V8C22 6.93913 21.5786 5.92172 20.8284 5.17157C20.0783 4.42143 19.0609 4 18 4H8ZM8 8H18V18H8V8ZM30 26C28.9391 26 27.9217 26.4214 27.1716 27.1716C26.4214 27.9217 26 28.9391 26 30V40C26 41.0609 26.4214 42.0783 27.1716 42.8284C27.9217 43.5786 28.9391 44 30 44H40C41.0609 44 42.0783 43.5786 42.8284 42.8284C43.5786 42.0783 44 41.0609 44 40V30C44 28.9391 43.5786 27.9217 42.8284 27.1716C42.0783 26.4214 41.0609 26 40 26H30ZM30 30H40V40H30V30Z" fill="url(#paint1_linear)"/>
<defs>
<linearGradient id="paint0_linear" x1="7.72093" y1="24" x2="37.1783" y2="24" gradientUnits="userSpaceOnUse">
<stop stop-color="#5570FF"/>
<stop offset="1" stop-color="#4DD3FF"/>
</linearGradient>
<linearGradient id="paint1_linear" x1="4" y1="25.5" x2="44" y2="26" gradientUnits="userSpaceOnUse">
<stop stop-color="#44BCFF"/>
<stop offset="1" stop-color="#0F6596"/>
</linearGradient>
</defs>
</svg>
