<svg width="192" height="192" viewBox="0 0 192 192" fill="none" xmlns="http://www.w3.org/2000/svg">
<path d="M28.8574 9.57103C31.8334 8.14697 35.1642 9.58233 37.1787 11.8879C41.9632 16.8043 47.2283 21.3026 51.658 26.5354C55.2291 31.7795 48.3386 38.6286 42.959 35.3849C37.2245 30.5815 32.0738 25.0774 26.7742 19.7994C23.6724 16.8495 24.8627 11.1194 28.8574 9.57103Z" fill="#FF4A7E"/>
<path d="M157.259 9.92153C161.014 7.45768 166.691 10.238 167 14.6684C167.606 18.1042 164.653 20.5002 162.49 22.6815C158.198 26.7277 154.18 31.0564 149.751 34.9443C146.099 37.7924 139.964 35.2607 139.575 30.6382C138.831 26.8859 142.231 24.4107 144.543 22.0373C148.858 18.0816 152.646 13.5382 157.259 9.92153Z" fill="#FF4B8B"/>
<path d="M77.7435 32.9438C91.021 27.7109 106.565 28.1969 119.27 34.7521C131.254 40.7309 140.388 51.7278 144.371 64.3521C147.404 74.9761 147.084 86.5381 143.009 96.8568C139.85 93.3193 136.359 90.0643 132.376 87.4309L132.41 87.2388C135.329 75.1117 131.54 61.7075 122.532 52.9597C113.81 44.2006 100.533 40.5048 88.4227 43.1495C84.9317 39.6685 80.7424 36.8995 77.7435 32.9438Z" fill="#FF7A3E"/>
<path d="M56.0189 49.9194C61.5703 42.4714 69.1132 36.5491 77.7435 32.9437C80.7424 36.8994 84.9317 39.6684 88.4227 43.1495C79.9183 45.2517 72.135 50.1794 66.9499 57.1979C63.207 54.9036 59.5672 52.4737 56.0189 49.9194Z" fill="#FF7346"/>
<path d="M132.376 87.4309C136.359 90.0643 139.85 93.3193 143.009 96.8568C139.724 105.175 134.047 112.42 127.03 118.003C124.112 114.68 120.93 111.425 116.729 109.73C124.043 104.022 130.258 96.5743 132.376 87.4309Z" fill="#FF7346"/>
<path opacity="0.13" d="M88.4227 43.1495C100.533 40.5048 113.81 44.2006 122.532 52.9597C131.54 61.7075 135.329 75.1117 132.41 87.2388C131.7 79.576 131.803 71.4724 128.152 64.4539C123.505 54.9714 114.199 47.6929 103.657 45.8733C96.1259 45.0369 88.0335 44.9691 81.1659 48.5858C71.5855 53.1857 64.0655 62.2726 62.3485 72.7609C61.6961 77.7111 61.3299 82.6954 60.9636 87.6683C58.1822 77.293 60.563 65.844 66.9499 57.1979C72.1349 50.1794 79.9182 45.2517 88.4227 43.1495Z" fill="black"/>
<path d="M48.8307 64.3182C50.4675 59.1871 53.0085 54.3837 56.0188 49.9194C59.5671 52.4737 63.2069 54.9036 66.9498 57.198C60.5629 65.844 58.1821 77.293 60.9635 87.6683C62.8635 95.2406 67.3046 102.225 73.5427 107.051C76.1753 109.221 79.3115 111.256 80.4332 114.646C82.0586 119.484 82.6309 124.603 83.764 129.554C92.3257 129.554 100.887 129.554 109.438 129.565C111.864 122.953 113.169 115.878 116.729 109.73C120.929 111.425 124.111 114.68 127.03 118.003C124.695 124.377 122.99 130.966 120.529 137.296C119.304 140.652 115.721 142.641 112.185 142.438C101.391 142.461 90.6088 142.551 79.8266 142.393C76.0265 142.483 72.5927 139.624 71.8372 135.996C70.4294 130.548 69.6167 124.965 68.3004 119.495C50.6391 107.707 42.5697 84.3907 48.8307 64.3182Z" fill="#FF6A51"/>
<path opacity="0.1" d="M46.1066 68.1835C46.4042 66.5447 47.4801 65.2563 48.8308 64.3182C42.5698 84.3907 50.6392 107.707 68.3005 119.495C69.6168 124.965 70.4295 130.548 71.8373 135.996C72.5928 139.624 76.0266 142.483 79.8267 142.393C90.6089 142.551 101.391 142.461 112.185 142.438C115.722 142.641 119.304 140.652 120.529 137.296C122.99 130.966 124.695 124.377 127.03 118.003C134.047 112.42 139.724 105.175 143.009 96.8568C147.084 86.5381 147.404 74.9761 144.371 64.3522C147.141 66.0475 147.358 69.4946 147.896 72.3427C150.3 88.6742 144.279 105.808 132.295 117.268C125.954 122.897 125.943 131.871 122.326 138.968C120.586 142.574 116.912 145.128 112.837 145.343C104.55 145.896 96.2289 145.32 87.9419 145.58C82.9286 145.546 77.0796 146.213 73.1422 142.461C66.492 136.03 70.4409 124.456 62.772 118.738C48.2241 106.712 41.8258 86.3233 46.1066 68.1835Z" fill="black"/>
<path d="M43.7259 116.918C48.7049 114.771 54.3592 120.342 52.1158 125.248C50.3302 128.536 47.1024 130.763 44.5843 133.475C41.4138 136.482 38.5408 139.793 35.1184 142.517C31.4328 145.343 25.3435 142.596 25.0573 137.996C24.4507 133.6 28.8002 131.079 31.3641 128.231C35.5534 124.547 38.9643 119.879 43.7259 116.918Z" fill="#FF4972"/>
<path d="M143.444 117.02C146.019 115.912 149.087 116.692 150.952 118.726C155.748 123.439 160.67 128.05 165.329 132.922C168.614 136.086 166.897 142.336 162.399 143.365C159.583 144.416 156.79 142.8 154.913 140.822C150.334 136.256 145.607 131.825 141.155 127.146C138.133 124.14 139.472 118.5 143.444 117.02Z" fill="#FF4A7F"/>
<path d="M74.5729 153.763C76.1983 151.853 78.3616 150.123 81.0514 150.361C91.4215 150.293 101.792 150.293 112.162 150.349C114.84 150.112 116.992 151.864 118.629 153.751C118.8 155.989 119.304 158.555 117.702 160.442C115.39 163.708 110.926 163.008 107.446 163.132C98.2434 162.895 89.0293 163.415 79.8496 162.895C75.3169 162.623 73.4398 157.605 74.5729 153.763Z" fill="#B655EE"/>
<path opacity="0.07" d="M73.0391 161.719C71.4137 159.041 71.8716 155.548 74.5729 153.763C73.4397 157.605 75.3168 162.623 79.8495 162.895C89.0292 163.415 98.2433 162.895 107.446 163.132C110.926 163.008 115.389 163.708 117.702 160.442C119.304 158.555 118.8 155.989 118.629 153.751C121.341 155.514 121.742 159.097 120.105 161.731C117.736 166.297 111.28 165.392 108.327 169.393C100.51 169.19 92.692 169.201 84.8743 169.393C81.9556 165.313 75.3397 166.398 73.0391 161.719Z" fill="black"/>
<path d="M84.8744 169.393C92.6921 169.201 100.51 169.19 108.327 169.393C110.823 169.891 112.402 172.004 113.593 174.039C113.535 177.26 112.196 181.136 108.533 181.746C102.478 182.334 96.3777 181.814 90.3113 182.018C87.4612 181.882 84.0617 182.459 81.8298 180.277C79.9984 178.729 79.9297 176.175 79.5978 174.005C80.8111 171.993 82.3792 169.891 84.8744 169.393Z" fill="#B254EE"/>
<path opacity="0.14" d="M84.0501 173.92C81.0201 172.49 80.9301 168.75 81.6501 165.93C81.9401 167.85 82 170.11 83.6 171.48C85.5501 173.41 88.5201 172.9 91.0101 173.02C96.3101 172.84 101.64 173.3 106.93 172.78C110.13 172.24 111.3 168.81 111.35 165.96C111.72 168.15 112.19 170.71 110.58 172.56C108.01 175.58 103.59 175.19 100.01 175.39C94.6901 175.22 89.0701 176.01 84.0501 173.92Z" fill="#060307"/>
</svg>
