<svg width="64" height="64" viewBox="0 0 64 64" fill="none" xmlns="http://www.w3.org/2000/svg">
<path d="M21.6882 1.87716C23.1233 1.22927 24.9151 2.47241 24.7803 4.08808C24.8081 5.22998 23.8685 6.05199 22.8695 6.35164C16.6853 8.71643 11.4921 13.6201 8.65768 19.7103C5.75585 25.8854 5.37924 33.2349 7.60715 39.6976C9.64082 45.7311 13.9103 50.9304 19.3612 54.0483C24.3006 56.9071 30.1836 57.9883 35.7891 57.1217C41.8742 56.2187 47.5907 52.9955 51.5866 48.2254C55.2972 43.8603 57.5211 38.2115 57.7907 32.4372C58.1594 25.9178 56.0226 19.3013 51.9394 14.2802C48.9623 10.5467 44.9505 7.73244 40.5224 6.10058C38.7702 5.58227 38.5323 2.85304 40.118 1.97839C41.5808 1.11589 43.1507 2.26184 44.5302 2.7842C51.7016 6.07628 57.5092 12.3405 60.3199 19.8439C62.9403 26.7237 63.0275 34.5631 60.5776 41.5036C56.8948 52.295 46.9207 60.4867 35.793 61.7744C29.2797 62.6085 22.5088 61.252 16.8359 57.8708C10.9768 54.4249 6.30291 48.93 3.81336 42.5078C0.84413 34.9478 0.95513 26.181 4.14636 18.7141C7.40498 10.9638 13.9024 4.69547 21.6882 1.87716Z" fill="url(#paint0_linear)"/>
<path d="M26.0806 15.2398C32.7326 12.5066 40.9188 14.9442 45.1843 20.8117C48.2448 24.8367 49.3508 30.3032 48.1456 35.2474C47.0912 39.8191 44.0545 43.8603 40.0189 46.1117C34.9764 48.9988 28.4433 48.9178 23.4761 45.893C18.6 43.014 15.3811 37.4988 15.2265 31.7448C14.1323 31.7367 13.0342 31.8015 11.9401 31.6881C11.0878 31.4978 10.6794 30.3802 11.1948 29.6634C12.8915 26.7925 14.612 23.9377 16.3523 21.0951C16.7923 20.1476 18.2433 20.2083 18.6476 21.1518C20.38 23.9823 22.0925 26.8289 23.7853 29.6837C24.2729 30.3883 23.8923 31.4168 23.1074 31.6759C21.9855 31.8096 20.8557 31.7367 19.7338 31.7407C19.932 35.2717 21.597 38.7096 24.3363 40.8962C27.3373 43.3825 31.5314 44.2531 35.242 43.1435C40.5937 41.6615 44.5184 36.0978 44.0664 30.4288C43.8365 24.4803 38.8534 19.2405 33.0458 18.8073C31.0002 18.4874 29.03 19.196 27.0518 19.5523C24.8755 19.5523 24.1341 16.1955 26.0806 15.2398Z" fill="url(#paint1_linear)"/>
<defs>
<linearGradient id="paint0_linear" x1="1.67558" y1="30.9461" x2="62.3624" y2="30.9461" gradientUnits="userSpaceOnUse">
<stop stop-color="#A93AFF"/>
<stop offset="1" stop-color="#FF81FF"/>
</linearGradient>
<linearGradient id="paint1_linear" x1="10.9729" y1="30.666" x2="48.6297" y2="30.666" gradientUnits="userSpaceOnUse">
<stop stop-color="#A93AFF"/>
<stop offset="1" stop-color="#FF81FF"/>
</linearGradient>
</defs>
</svg>
