<svg width="128" height="128" viewBox="0 0 128 128" fill="none" xmlns="http://www.w3.org/2000/svg">
<path d="M46.9333 59.7333C41.2754 59.7333 35.8491 57.4857 31.8484 53.4849C27.8476 49.4842 25.6 44.0579 25.6 38.4V21.3333C25.6 20.2017 26.0495 19.1165 26.8497 18.3163C27.6498 17.5162 28.7351 17.0667 29.8667 17.0667H34.1333C35.2649 17.0667 36.3502 16.6171 37.1503 15.817C37.9505 15.0168 38.4 13.9316 38.4 12.8C38.4 11.6684 37.9505 10.5832 37.1503 9.783C36.3502 8.98285 35.2649 8.53333 34.1333 8.53333H29.8667C26.4719 8.53333 23.2161 9.88189 20.8157 12.2824C18.4152 14.6828 17.0667 17.9386 17.0667 21.3333V38.4C17.0721 43.2202 18.2475 47.9671 20.4919 52.2329C22.7363 56.4987 25.9826 60.156 29.952 62.8907C33.7657 66.2529 36.8585 70.3531 39.0438 74.9436C41.229 79.5342 42.4615 84.52 42.6667 89.6C42.6667 97.5211 45.8133 105.118 51.4144 110.719C57.0155 116.32 64.6122 119.467 72.5333 119.467C80.4545 119.467 88.0512 116.32 93.6522 110.719C99.2533 105.118 102.4 97.5211 102.4 89.6V84.736C106.422 83.6975 109.927 81.2278 112.259 77.7898C114.59 74.3518 115.587 70.1816 115.064 66.0608C114.541 61.94 112.532 58.1515 109.415 55.4056C106.299 52.6596 102.287 51.1446 98.1333 51.1446C93.9794 51.1446 89.9681 52.6596 86.8513 55.4056C83.7344 58.1515 81.7261 61.94 81.2027 66.0608C80.6793 70.1816 81.6767 74.3518 84.0081 77.7898C86.3394 81.2278 89.8446 83.6975 93.8667 84.736V89.6C93.8667 95.2579 91.619 100.684 87.6183 104.685C83.6175 108.686 78.1913 110.933 72.5333 110.933C66.8754 110.933 61.4492 108.686 57.4484 104.685C53.4476 100.684 51.2 95.2579 51.2 89.6C51.416 84.5137 52.6617 79.5241 54.8618 74.9331C57.062 70.3422 60.1707 66.2454 64 62.8907C67.9536 60.1465 71.1833 56.485 73.4125 52.2198C75.6417 47.9546 76.804 43.2126 76.8 38.4V21.3333C76.8 17.9386 75.4514 14.6828 73.051 12.2824C70.6505 9.88189 67.3948 8.53333 64 8.53333H59.7333C58.6017 8.53333 57.5165 8.98285 56.7163 9.783C55.9162 10.5832 55.4667 11.6684 55.4667 12.8C55.4667 13.9316 55.9162 15.0168 56.7163 15.817C57.5165 16.6171 58.6017 17.0667 59.7333 17.0667H64C65.1316 17.0667 66.2168 17.5162 67.017 18.3163C67.8171 19.1165 68.2667 20.2017 68.2667 21.3333V38.4C68.2667 41.2015 67.7149 43.9756 66.6428 46.5639C65.5707 49.1522 63.9992 51.504 62.0183 53.4849C60.0373 55.4659 57.6855 57.0373 55.0972 58.1094C52.509 59.1815 49.7349 59.7333 46.9333 59.7333ZM98.1333 76.8C95.8701 76.8 93.6997 75.9009 92.0993 74.3006C90.499 72.7003 89.6 70.5298 89.6 68.2667C89.6 66.0035 90.499 63.833 92.0993 62.2327C93.6997 60.6324 95.8701 59.7333 98.1333 59.7333C100.397 59.7333 102.567 60.6324 104.167 62.2327C105.768 63.833 106.667 66.0035 106.667 68.2667C106.667 70.5298 105.768 72.7003 104.167 74.3006C102.567 75.9009 100.397 76.8 98.1333 76.8Z" fill="url(#paint0_linear_604_2)"/>
<defs>
<linearGradient id="paint0_linear_604_2" x1="66.1333" y1="119.467" x2="66.1333" y2="8.53333" gradientUnits="userSpaceOnUse">
<stop stop-color="#FDA700"/>
<stop offset="1" stop-color="#FFDE00"/>
</linearGradient>
</defs>
</svg>
