<svg width="64" height="64" viewBox="0 0 64 64" fill="none" xmlns="http://www.w3.org/2000/svg">
<path d="M7.02155 7.85484C7.07722 3.74345 10.6618 0.106272 14.7003 0.0236087C26.8458 -0.0155475 38.9913 0.0279589 51.1325 0.00620551C53.1282 -0.0895096 55.1196 0.928552 56.2417 2.60792C57.3766 4.23507 57.4836 6.37561 57.171 8.28121C56.6485 9.94753 54.3488 10.5044 53.1282 9.29492C52.0832 8.37693 52.3488 6.84549 52.2845 5.60119C51.9291 5.33145 51.5822 4.99209 51.1025 5.04865C39.1112 5.03995 27.1156 5.03125 15.1243 5.04865C13.6596 5.02255 12.2849 6.17113 12.0365 7.64166C11.908 8.56836 11.9637 9.50811 11.9551 10.4435C11.9723 25.5447 11.9294 40.6416 11.968 55.7429C11.9209 57.4657 13.4412 59.0233 15.1414 58.9624C23.8565 58.9798 32.5759 58.9667 41.2953 58.9624C42.0105 59.0015 42.6743 58.5926 43.0983 58.0313C45.8135 54.6726 48.5244 51.3139 51.2438 47.9638C51.7963 47.3286 52.1903 46.5368 52.246 45.6797C52.3359 43.5087 52.1989 41.3334 52.2931 39.158C52.3188 37.8006 53.6721 36.7086 54.9826 36.8739C56.1303 36.9566 57.1753 37.9834 57.201 39.1667C57.2609 41.2072 57.2053 43.252 57.2267 45.2969C57.2823 47.4156 56.5072 49.5083 55.1453 51.1094C52.3745 54.5203 49.6122 57.94 46.8413 61.3509C45.518 63.0433 43.4324 64.0353 41.3039 63.9961C32.5888 63.9961 23.8694 64.0092 15.1542 63.9874C12.0665 64.0396 9.06436 62.1384 7.77957 59.2843C7.09007 57.9139 6.99585 56.3433 7.00013 54.8336C7.02583 39.1711 6.97872 23.513 7.02155 7.85484Z" fill="url(#paint0_linear)"/>
<path d="M16.2996 49.2919C17.1818 48.8742 18.1882 49.0483 19.1261 49.0047C21.4302 49.07 23.7428 48.909 26.0383 49.0874C27.7513 49.4181 28.5265 51.7718 27.383 53.0944C26.5522 54.2473 25.0276 54.0342 23.8028 54.0429C21.4944 53.9776 19.1732 54.1473 16.8735 53.9602C14.6936 53.5817 14.3039 50.2142 16.2996 49.2919Z" fill="url(#paint1_linear)"/>
<path d="M40.36 27.789C41.7336 26.4153 43.4559 24.8596 45.5268 23.1217C47.5977 21.3838 49.32 19.9945 50.6936 18.9539L52.7853 17.3617C53.0351 17.1119 53.3369 16.987 53.6907 16.987C54.0445 16.987 54.3463 17.1119 54.5961 17.3617C54.6585 17.4241 54.7001 17.497 54.7209 17.5802C54.7417 17.6635 54.7365 17.7571 54.7053 17.8612C54.6741 17.9652 54.6325 18.0537 54.5804 18.1265C54.5284 18.1994 54.4504 18.2931 54.3463 18.4075C54.2422 18.522 54.159 18.6157 54.0965 18.6885C54.0341 18.7613 53.9457 18.8498 53.8312 18.9539C53.7167 19.0579 53.6387 19.1308 53.597 19.1724C53.0767 19.547 52.3951 20.057 51.5522 20.7022C50.7092 21.3474 49.2575 22.5337 47.197 24.2612C45.1365 25.9887 43.3987 27.5601 41.9834 28.9753C41.1092 29.8495 39.9489 31.0046 38.5024 32.4407C37.0559 33.8768 35.8123 35.1152 34.7717 36.1559C33.731 37.1965 32.8048 38.1331 31.9931 38.9656C30.786 40.2352 29.6309 41.4632 28.5278 42.6495C27.4247 43.8359 26.6234 44.7048 26.1239 45.2564L25.3746 46.0837C25.1248 46.3334 25 46.4687 25 46.4895C25 46.5103 25.1248 46.6456 25.3746 46.8954C25.5827 47.1243 26.3268 46.7861 27.6068 45.8807C28.8868 44.9754 29.7453 44.3042 30.1824 43.8671C31.4312 42.5975 33.117 40.8908 35.24 38.7471C36.7177 38.3724 38.544 37.5815 40.719 36.3744C42.8939 35.1672 44.9284 33.8924 46.8224 32.55C48.7164 31.2075 50.3606 29.9952 51.7551 28.9129C53.1496 27.8306 54.0341 27.1022 54.4087 26.7275C54.9499 26.1864 55.4806 25.2342 56.0009 23.8709C56.5213 22.5077 56.8387 21.1444 56.9531 19.7812C57.0676 18.4179 56.8022 17.3513 56.157 16.5812C55.1788 15.5822 53.8052 15.0566 52.0361 15.0046C50.267 14.9526 48.6643 15.3428 47.2283 16.1753C45.6465 17.0703 43.8565 18.4387 41.8585 20.2807C39.8604 22.1227 38.0289 24.0687 36.3639 26.1188C34.6988 28.1688 33.346 30.2137 32.3053 32.2534C31.2647 34.2931 30.8484 35.9165 31.0565 37.1237C34.1161 34.0433 37.2172 30.9318 40.36 27.789Z" fill="url(#paint2_linear)"/>
<defs>
<linearGradient id="paint0_linear" x1="32.1613" y1="64" x2="32.1613" y2="-2.28882e-05" gradientUnits="userSpaceOnUse">
<stop stop-color="#FD2E00"/>
<stop offset="1" stop-color="#FF9900"/>
</linearGradient>
<linearGradient id="paint1_linear" x1="21.4618" y1="54.0532" x2="21.4618" y2="49" gradientUnits="userSpaceOnUse">
<stop stop-color="#FD2E00"/>
<stop offset="1" stop-color="#FF9900"/>
</linearGradient>
<linearGradient id="paint2_linear" x1="40.9895" y1="46.9647" x2="40.9895" y2="15" gradientUnits="userSpaceOnUse">
<stop stop-color="#FD2E00"/>
<stop offset="1" stop-color="#FF9900"/>
</linearGradient>
</defs>
</svg>
