<svg width="64" height="64" viewBox="0 0 64 64" fill="none" xmlns="http://www.w3.org/2000/svg">
<g clip-path="url(#clip0_586_277)">
<path d="M30.9969 0.0509033C29.374 0.100731 27.7832 0.261186 26.2312 0.541867L27.5569 0.37227L28.6677 1.32768L25.7444 2.89017L29.4677 3.77405L29.9454 2.52401H31.5728L32.1443 1.43488L30.9969 1.1446V0.0509033V0.0509033ZM24.9352 0.800835C13.0033 3.4728 3.65212 12.7625 0.873871 24.6519L0.976041 24.805L0.703588 25.3079C0.654217 25.5433 0.618561 25.781 0.574219 26.0187L1.78403 27.8839L5.13209 28.7181V28.1741L6.4715 28.3661L6.34648 29.3261L7.3956 29.5181L9.02049 29.9638L11.3197 32.5992L14.257 32.8164L14.5384 35.2277L12.5338 36.6334L12.4401 38.7866L12.15 40.0985L15.0561 43.7602L15.2748 45.0036C15.2748 45.0036 16.329 45.2939 16.4579 45.2939C16.5852 45.2939 18.8187 46.9967 18.8187 46.9967V53.6023L19.6187 53.8263L19.0793 56.8709L20.4141 58.6651L20.1673 61.6868L20.1947 61.7371C21.8587 62.3931 23.5798 62.9393 25.3695 63.3119L25.4358 63.1199L25.5021 62.2399L24.3638 62.2056L23.7878 61.4856L24.7341 60.5714L24.8644 59.8834L23.8107 59.5794L23.8724 58.9417L25.3741 58.7154L27.6552 57.6114L28.4186 56.2011L30.8094 53.1246L30.27 50.7155L31.0014 49.4333L33.198 49.5041L34.6814 48.3224L35.1636 43.6733L36.8048 41.5751L37.0905 40.2288L35.5911 39.7465L34.6059 38.1168L31.2254 38.0803L28.542 37.054L28.4186 35.134L27.5249 33.5638L25.0952 33.5272L23.6987 31.3124L22.453 30.7067L22.3867 31.3764L20.1239 31.5135L19.2919 30.3524L16.9356 29.8701L14.9891 32.1307L11.9267 31.6118L11.7034 28.1399L9.46688 27.7559L10.3642 26.053L10.1098 25.0725L7.17229 27.0496L5.32409 26.821L4.66353 25.3719L5.06535 23.8748L6.08751 21.9914L8.43581 20.796H12.9624L12.9491 22.1834L14.574 22.9422L14.4446 20.572L15.6186 19.3811L17.9847 17.8211L18.15 16.7229L20.5124 14.2498L23.0198 12.8523L22.8027 12.6695L24.4987 11.0578L25.1181 11.2231L25.4084 11.589L26.0506 10.8658L26.2083 10.7945L25.5021 10.6962L24.7844 10.4551V9.76322L25.1684 9.45076H26.0026L26.3866 9.62036L26.7158 10.2944L27.1272 10.232V10.174L27.2392 10.2096L28.4232 10.0311L28.5877 9.4551L29.2574 9.6247V10.2498L28.6357 10.6784L28.7295 11.3659L30.8551 12.0265C30.8551 12.0265 30.8597 12.0359 30.8643 12.0532L31.3557 12.0132L31.3854 11.0846L29.6986 10.3079L29.6003 9.86584L31.0014 9.38379L31.0654 8.03547L29.6003 7.13811L29.502 4.86157L27.4929 5.85242H26.7615L26.9489 4.12033L24.2175 3.47302L23.0884 4.33472V6.95526L21.0519 7.60256L20.2336 9.31225L19.3513 9.45968V7.26771L17.4357 7.0044L16.4803 6.37927L16.0963 4.95963L19.5159 2.9464L21.189 2.43738L21.3604 3.56674L22.293 3.52217L22.3638 2.95075L23.3421 2.80789L23.3558 2.61155L22.9398 2.43738L22.8415 1.83465L24.0415 1.73659L24.7661 0.973175L24.8027 0.919461L24.8141 0.924033L24.9352 0.799006V0.800835ZM12.1768 7.64896L13.0831 7.8677L12.7704 9.091L11.7885 9.40779L11.1679 8.12667L12.1768 7.64896ZM53.2665 8.09993L52.8185 8.17581L51.4356 10.149L49.4494 10.4658L49.1591 12.1757L49.9979 12.3721L49.7556 13.4704L47.7831 13.0731L45.9797 13.4704L45.5911 14.4793L45.9043 16.6043L46.9671 17.1041L48.7477 17.0952L49.9477 16.988L50.3156 16.0239L52.1945 13.5684L53.4356 13.823L54.6493 12.7159L54.8779 13.5776L57.8721 15.6132L57.5064 16.1087L56.1578 16.0372L56.6767 16.7739L57.5064 16.9569L58.4847 16.5505L58.4572 15.372L58.8961 15.1533L58.5418 14.7828L56.5418 13.6624L56.0253 12.1757H57.1224C55.959 10.7019 54.6676 9.34631 53.2665 8.09993V8.09993ZM14.6636 10.5552H16.168V11.0151H16.5029V11.8096H14.2037L13.3468 11.5684L13.561 11.0151L14.6638 10.5552H14.6636ZM16.9134 10.8944L17.6992 11.6132L16.9134 11.8096V10.8944V10.8944ZM18.6498 12.0016L19.2304 12.3721L18.7618 12.7604L18.2978 12.3721L18.6498 12.0016ZM14.235 12.122H15.5029L13.8734 14.4077L13.204 14.0461L13.3468 13.0864L14.2353 12.122H14.235ZM16.2707 12.122H17.5607V12.89L16.9849 13.2605L16.2707 13.3988V12.122ZM17.8688 12.9659H17.9671L19.427 13.3988V14.1444H18.2037L17.8688 13.6578V12.9659V12.9659ZM17.2707 13.6578V14.4077L16.7216 14.9613H15.5029L15.6949 14.122L16.2709 14.0729L16.387 13.7872L17.2709 13.6578H17.2707ZM55.2107 16.8363L50.9067 17.1757L49.5719 17.8943H47.8622L47.0234 17.8095L44.948 18.9706V21.1534L40.7034 24.23L41.0554 25.542H41.9126L41.6931 26.7922L41.0829 27.0139L41.0509 30.287L44.7194 34.4881H46.3148L46.4176 34.2344H49.2816L50.109 33.4618H51.7387L52.6301 34.3624L55.0598 34.6184L54.7375 37.8572L57.4255 42.6343L56.0106 45.3588L56.1044 46.6433L57.2198 47.7633V50.849L57.5329 51.2696C61.574 45.9119 63.9968 39.2583 63.9968 32.0013C63.9968 27.3865 63.014 23.0163 61.27 19.0598L59.9077 19.1923V20.3946H59.286L58.6163 19.9123L55.2107 19.0506V16.8363V16.8363Z" fill="url(#paint0_linear_586_277)"/>
<path d="M5.31488 60.0883C4.38579 60.8109 3.18895 59.6141 3.91158 58.685L27.8596 27.8942C28.2289 27.4194 28.9308 27.3757 29.3561 27.801L32.5545 30.9994L36.1983 34.6432C36.6236 35.0685 36.58 35.7704 36.1052 36.1397L5.31488 60.0883Z" fill="url(#paint1_linear_586_277)"/>
<path d="M60.089 5.31488C60.8116 4.38578 59.6148 3.18895 58.6857 3.91158L27.8942 27.8602C27.4194 28.2295 27.3757 28.9313 27.801 29.3566L34.6434 36.199C35.0687 36.6243 35.7705 36.5806 36.1398 36.1059L60.089 5.31488Z" fill="url(#paint2_linear_586_277)"/>
</g>
<defs>
<linearGradient id="paint0_linear_586_277" x1="32.2855" y1="63.3119" x2="32.2855" y2="0.0509033" gradientUnits="userSpaceOnUse">
<stop stop-color="#5570FF"/>
<stop offset="1" stop-color="#4DD3FF"/>
</linearGradient>
<linearGradient id="paint1_linear_586_277" x1="17.9997" y1="65" x2="17.9997" y2="27" gradientUnits="userSpaceOnUse">
<stop stop-color="#FDA700"/>
<stop offset="1" stop-color="#FFDE00"/>
</linearGradient>
<linearGradient id="paint2_linear_586_277" x1="46.0003" y1="37" x2="46.0003" y2="-1" gradientUnits="userSpaceOnUse">
<stop stop-color="#FD2E00"/>
<stop offset="1" stop-color="#FF9900"/>
</linearGradient>
<clipPath id="clip0_586_277">
<rect width="64" height="64" fill="white"/>
</clipPath>
</defs>
</svg>
