<svg width="192" height="192" viewBox="0 0 192 192" fill="none" xmlns="http://www.w3.org/2000/svg">
<path d="M8.45184 23.3772C15.2628 23.003 22.1839 22.6509 28.9398 23.6632C32.6369 24.1474 35.7288 27.4999 35.7288 30.9144C35.7288 36.5 36.5 43.9642 33.1541 48.3215C28.4777 51.9745 22.0188 50.5551 16.4952 51.0393C16.5282 54.7143 16.4842 58.3784 16.2641 62.0425C13.8874 62.1525 11.5107 62.2626 9.13404 62.2846C7.89068 61.0632 8.42983 59.0936 8.20977 57.5312C8.37482 46.1538 7.95669 34.7545 8.45184 23.3772ZM16.6492 30.2102C16.6492 35 16.7923 39.5 16.7923 43.9642C18.5 43.9642 26.5411 45.6037 27.4874 40.7843C27.5534 37.5603 28.6208 33.3681 26.09 30.8483C23.0861 29.77 20 30.2102 16.6492 30.2102Z" fill="url(#paint0_linear)"/>
<path d="M40.9884 23.2891C47.9204 23.0691 54.9185 22.684 61.8175 23.5642C65.6686 23.9493 68.6065 27.0852 69.0906 30.8704C69.3107 39.2658 70.1029 47.8483 68.4965 56.1448C67.7923 60.0509 63.7101 61.6134 60.222 62.0095C53.8292 62.4386 47.3923 62.3726 40.9774 62.0645C40.5813 49.1577 40.5593 36.1959 40.9884 23.2891ZM48.9547 30.0121C49.0317 38.3305 48.7787 46.649 49.0648 54.9564C49.4609 55.0885 50.2641 55.3635 50.6602 55.4956C54 55.4956 60.189 56.7169 60.8932 51.9085C61.3444 45.1415 61.3444 38.3085 60.6622 31.5636L60.6402 31.2004C56.9651 29.528 52.8719 30.0011 48.9547 30.0121Z" fill="url(#paint1_linear)"/>
<path d="M75.2304 23.3111C83.2738 22.959 91.3502 22.893 99.3935 23.3441C99.4815 25.5558 99.4815 27.7674 99.3935 29.9791C94.0349 30.4522 88.6654 30.2432 83.2958 30.2212C83.3398 33.5992 83.3068 36.9771 83.3618 40.3661C87.268 40.3331 91.1851 40.2011 95.0913 40.3661C96.6207 40.4432 97.4459 41.3124 97.556 42.9849C97.3139 44.3823 98 46 96.7858 47.1661C92.2854 47.3312 87.7851 47.3092 83.2848 47.3862C83.2628 52.2716 83.2958 57.1571 82.9987 62.0425C80.7871 62.1195 78.5644 62.1525 76.3528 62.1195L75.1864 62.1085C74.8563 49.1797 74.7793 36.2289 75.2304 23.3111Z" fill="url(#paint2_linear)"/>
<path d="M156.852 84.137C161.144 80.3739 164.39 74.7072 170.177 73.1558C176.174 71.9454 180.08 77.359 183.799 81.0451C187.276 84.181 188.157 89.9137 185.263 93.7098C182.424 97.2088 179.09 100.29 175.756 103.316C169.539 96.8347 163.036 90.6399 156.852 84.137Z" fill="url(#paint3_linear)"/>
<path d="M5.51398 91.036C6.54828 88.1862 9.64019 86.7337 12.534 86.9758C31.6466 86.9978 50.7593 86.9208 69.8609 87.0088C73.1068 86.6677 75.2964 89.1985 77.068 91.5091C76.4958 93.9078 76.5728 96.8567 74.4492 98.5292C72.2486 100.323 69.2227 99.9706 66.5819 100.092C47.5463 99.9266 28.4997 100.213 9.47514 99.9376C6.10815 98.5622 3.96252 94.48 5.51398 91.036Z" fill="url(#paint4_linear)"/>
<path d="M99.6356 141.486C117.692 123.65 135.385 105.439 153.452 87.614C159.779 93.9409 166.403 100.037 172.312 106.76L171.883 107.365C156.808 122.516 141.712 137.657 126.616 152.797C124.052 155.438 121.18 157.848 119.177 160.973C112.289 154.888 105.874 148.231 99.6356 141.486Z" fill="url(#paint5_linear)"/>
<path d="M5.02984 127.996C4.95281 124.552 8.02271 121.383 11.5217 121.559C35.7398 121.482 59.969 121.526 84.1981 121.526C87.29 121.163 89.4576 123.573 91.3392 125.63C90.877 128.073 91.1631 131.11 89.0395 132.859C87.1799 134.686 84.3961 134.477 82.0084 134.554C63.633 134.466 45.2686 134.532 26.9043 134.51C20.5004 134.455 14.0745 134.807 7.70362 134.004C6.55928 132.144 4.94181 130.318 5.02984 127.996Z" fill="url(#paint6_linear)"/>
<path d="M95.6304 145.216C99.2065 147.329 101.726 150.718 104.697 153.534C108.229 157.297 112.3 160.598 115.348 164.791C108.229 165.88 101.264 168.092 94.057 168.576C85.7055 168.631 77.3541 168.62 69.0026 168.521C61.8725 167.046 54.5114 167.123 47.4033 165.616C46.1049 162.722 49.7029 159.861 52.0906 158.706C60.8272 156.296 70.0699 157.165 78.9605 155.592C83.846 155.262 88.7534 155.603 93.6388 155.328C94.244 151.95 94.8932 148.572 95.6304 145.216Z" fill="url(#paint7_linear)"/>
<path d="M5.01883 162.018C4.88679 158.101 8.69391 155.053 12.479 155.471C34.6395 155.526 56.811 155.273 78.9605 155.592C70.0699 157.165 60.8272 156.296 52.0906 158.706C49.7029 159.861 46.1049 162.722 47.4033 165.616C54.5114 167.123 61.8725 167.046 69.0026 168.521C54.5994 168.653 40.2072 168.543 25.8039 168.576C19.8402 168.565 13.8654 168.807 7.93469 168.07C6.68032 166.221 4.86479 164.428 5.01883 162.018Z" fill="url(#paint8_linear)"/>
<defs>
<linearGradient id="paint0_linear" x1="12.6002" y1="23.3772" x2="124.261" y2="137.767" gradientUnits="userSpaceOnUse">
<stop stop-color="#FF28D0"/>
<stop offset="1" stop-color="#EB006B"/>
</linearGradient>
<linearGradient id="paint1_linear" x1="12.6002" y1="23.3772" x2="124.261" y2="137.767" gradientUnits="userSpaceOnUse">
<stop stop-color="#FF28D0"/>
<stop offset="1" stop-color="#EB006B"/>
</linearGradient>
<linearGradient id="paint2_linear" x1="12.6002" y1="23.3772" x2="124.261" y2="137.767" gradientUnits="userSpaceOnUse">
<stop stop-color="#FF28D0"/>
<stop offset="1" stop-color="#EB006B"/>
</linearGradient>
<linearGradient id="paint3_linear" x1="12.6002" y1="23.3772" x2="124.261" y2="137.767" gradientUnits="userSpaceOnUse">
<stop stop-color="#FF28D0"/>
<stop offset="1" stop-color="#EB006B"/>
</linearGradient>
<linearGradient id="paint4_linear" x1="12.6002" y1="23.3772" x2="124.261" y2="137.767" gradientUnits="userSpaceOnUse">
<stop stop-color="#FF28D0"/>
<stop offset="1" stop-color="#EB006B"/>
</linearGradient>
<linearGradient id="paint5_linear" x1="12.6002" y1="23.3772" x2="124.261" y2="137.767" gradientUnits="userSpaceOnUse">
<stop stop-color="#FF28D0"/>
<stop offset="1" stop-color="#EB006B"/>
</linearGradient>
<linearGradient id="paint6_linear" x1="12.6002" y1="23.3772" x2="124.261" y2="137.767" gradientUnits="userSpaceOnUse">
<stop stop-color="#FF28D0"/>
<stop offset="1" stop-color="#EB006B"/>
</linearGradient>
<linearGradient id="paint7_linear" x1="12.6002" y1="23.3772" x2="124.261" y2="137.767" gradientUnits="userSpaceOnUse">
<stop stop-color="#FF28D0"/>
<stop offset="1" stop-color="#EB006B"/>
</linearGradient>
<linearGradient id="paint8_linear" x1="12.6002" y1="23.3772" x2="124.261" y2="137.767" gradientUnits="userSpaceOnUse">
<stop stop-color="#FF28D0"/>
<stop offset="1" stop-color="#EB006B"/>
</linearGradient>
</defs>
</svg>
