<svg width="48" height="48" viewBox="0 0 48 48" fill="none" xmlns="http://www.w3.org/2000/svg">
<path d="M28 24L44 24.013M4 24.013L20 24M4 14V5C4 4.73478 4.10536 4.48043 4.29289 4.29289C4.48043 4.10536 4.73478 4 5 4H19C19.2652 4 19.5196 4.10536 19.7071 4.29289C19.8946 4.48043 20 4.73478 20 5V43C20 43.2652 19.8946 43.5196 19.7071 43.7071C19.5196 43.8946 19.2652 44 19 44H5C4.73478 44 4.48043 43.8946 4.29289 43.7071C4.10536 43.5196 4 43.2652 4 43V34V14ZM44 34V43C44 43.2652 43.8946 43.5196 43.7071 43.7071C43.5196 43.8946 43.2652 44 43 44H29C28.7348 44 28.4804 43.8946 28.2929 43.7071C28.1054 43.5196 28 43.2652 28 43V5C28 4.73478 28.1054 4.48043 28.2929 4.29289C28.4804 4.10536 28.7348 4 29 4H43C43.2652 4 43.5196 4.10536 43.7071 4.29289C43.8946 4.48043 44 4.73478 44 5V14V34Z" stroke="url(#paint0_linear)" stroke-width="4" stroke-linecap="round"/>
<path d="M8.75493 28.7859L7.16493 27.1959L3.98193 24.0129L7.16393 20.8309L8.75493 19.2409M39.2269 28.7779L40.8189 27.1869L43.9999 24.0049L40.8189 20.8229L39.2269 19.2319V28.7779Z" stroke="url(#paint1_linear)" stroke-width="4" stroke-linecap="round" stroke-linejoin="round"/>
<defs>
<linearGradient id="paint0_linear" x1="24" y1="44" x2="24" y2="4" gradientUnits="userSpaceOnUse">
<stop stop-color="#FD5900"/>
<stop offset="1" stop-color="#FFDE00"/>
</linearGradient>
<linearGradient id="paint1_linear" x1="23.9909" y1="28.7859" x2="23.9909" y2="19.2319" gradientUnits="userSpaceOnUse">
<stop stop-color="#A93AFF"/>
<stop offset="1" stop-color="#FF81FF"/>
</linearGradient>
</defs>
</svg>
