<svg width="64" height="64" viewBox="0 0 64 64" fill="none" xmlns="http://www.w3.org/2000/svg">
<path d="M31.9453 4.00001C27.6363 4.00919 23.3875 5.01276 19.5298 6.93261C15.6721 8.85246 12.3095 11.6368 9.70391 15.0688L14.5383 17.9727C16.6371 15.3596 19.2955 13.2509 22.3176 11.8018C25.3397 10.3528 28.6485 9.60036 32 9.60001C37.9408 9.60001 43.6384 11.96 47.8392 16.1608C52.04 20.3616 54.4 26.0592 54.4 32C54.4 37.9409 52.04 43.6384 47.8392 47.8392C43.6384 52.04 37.9408 54.4 32 54.4C28.6457 54.4 25.3343 53.6466 22.3101 52.1956C19.2859 50.7446 16.6262 48.6329 14.5273 46.0164L9.69297 48.9203C12.3042 52.3631 15.6767 55.1549 19.5467 57.0771C23.4166 58.9992 27.679 59.9997 32 60C39.4261 60 46.548 57.05 51.799 51.799C57.05 46.548 60 39.4261 60 32C60 24.5739 57.05 17.452 51.799 12.201C46.548 6.95 39.4261 4.00001 32 4.00001C31.9818 4 31.9635 4 31.9453 4.00001V4.00001ZM4 14.5875V49.3961L33.0008 31.9945L4 14.5875ZM32 15.2C29.6161 15.2007 27.2596 15.7086 25.0872 16.6902C22.9147 17.6717 20.9761 19.1044 19.4 20.893L24.3219 23.8461C26.3568 21.9292 29.0352 20.8427 31.8305 20.8C31.887 20.7996 31.9435 20.7996 32 20.8C34.9704 20.8 37.8192 21.98 39.9196 24.0804C42.02 26.1808 43.2 29.0296 43.2 32C43.2 34.9704 42.02 37.8192 39.9196 39.9196C37.8192 42.02 34.9704 43.2 32 43.2C29.1407 43.1998 26.3898 42.1061 24.3109 40.143L19.3891 43.1016C20.9659 44.8925 22.9061 46.327 25.0805 47.3096C27.255 48.2921 29.6138 48.8002 32 48.8C36.4556 48.8 40.7288 47.03 43.8794 43.8794C47.03 40.7288 48.8 36.4556 48.8 32C48.8 27.5444 47.03 23.2712 43.8794 20.1206C40.7288 16.97 36.4556 15.2 32 15.2Z" fill="url(#paint0_linear)"/>
<defs>
<linearGradient id="paint0_linear" x1="32" y1="4" x2="32" y2="59.9999" gradientUnits="userSpaceOnUse">
<stop stop-color="#BAFA52"/>
<stop offset="1" stop-color="#3F8F5B"/>
</linearGradient>
</defs>
</svg>
