<svg width="252" height="231" viewBox="0 0 252 231" fill="none" xmlns="http://www.w3.org/2000/svg">
<path fill-rule="evenodd" clip-rule="evenodd" d="M23 23C17.4772 23 13 27.4771 13 33V161.197C13 164.51 15.6863 167.197 19 167.197C22.3137 167.197 25 164.51 25 161.197V35H165.885C169.199 35 171.885 32.3137 171.885 29C171.885 25.6863 169.199 23 165.885 23H23ZM129.836 137.777C129.836 140.774 127.122 143.203 123.776 143.203H63.1708C59.8243 143.203 57.1106 140.774 57.1106 137.777C57.1106 134.779 59.8243 132.35 63.1708 132.35H123.776C127.122 132.35 129.836 134.779 129.836 137.777ZM129.836 159.483C129.836 162.48 127.122 164.909 123.776 164.909H63.1708C59.8243 164.909 57.1106 162.48 57.1106 159.483C57.1106 156.487 59.8243 154.057 63.1708 154.057H123.776C127.122 154.057 129.836 156.487 129.836 159.483ZM208.622 186.616H148.017C144.67 186.616 141.956 184.187 141.956 181.189V116.07C141.956 113.073 144.67 110.644 148.017 110.644H208.622C211.968 110.644 214.682 113.073 214.682 116.07V181.189C214.682 184.187 211.968 186.616 208.622 186.616ZM202.561 121.497H154.078V175.763H202.561V121.497ZM87.413 121.497H63.1708C59.8243 121.497 57.1106 119.068 57.1106 116.07C57.1106 113.073 59.8243 110.644 63.1708 110.644H87.413C90.7596 110.644 93.4733 113.073 93.4733 116.07C93.4733 119.068 90.7596 121.497 87.413 121.497ZM69.2311 72.658C69.2311 75.6544 66.5174 78.0842 63.1708 78.0842C59.8243 78.0842 57.1106 75.6544 57.1106 72.658C57.1106 69.6603 59.8243 67.2306 63.1708 67.2306C66.5174 67.2306 69.2311 69.6603 69.2311 72.658ZM38.525 45.5246H233.268C236.614 45.5246 239.328 47.9543 239.328 50.9508V202.896C239.328 205.893 236.614 208.322 233.268 208.322H38.525C35.1779 208.322 32.4645 205.893 32.4645 202.896V50.9508C32.4645 47.9543 35.1779 45.5246 38.525 45.5246ZM44.5853 197.469H227.207V99.7901H44.5853V197.469ZM44.5853 88.9378H227.207V56.3782H44.5853V88.9378ZM129.836 181.189C129.836 184.187 127.122 186.616 123.776 186.616H63.1708C59.8243 186.616 57.1106 184.187 57.1106 181.189C57.1106 178.193 59.8243 175.763 63.1708 175.763H123.776C127.122 175.763 129.836 178.193 129.836 181.189ZM93.4733 72.658C93.4733 75.6544 90.7596 78.0842 87.413 78.0842C84.0653 78.0842 81.3516 75.6544 81.3516 72.658C81.3516 69.6603 84.0653 67.2306 87.413 67.2306C90.7596 67.2306 93.4733 69.6603 93.4733 72.658ZM117.714 72.658C117.714 75.6544 115.002 78.0842 111.654 78.0842C108.307 78.0842 105.594 75.6544 105.594 72.658C105.594 69.6603 108.307 67.2306 111.654 67.2306C115.002 67.2306 117.714 69.6603 117.714 72.658Z" fill="url(#paint0_linear)"/>
<defs>
<linearGradient id="paint0_linear" x1="126.164" y1="208.322" x2="126.164" y2="23" gradientUnits="userSpaceOnUse">
<stop stop-color="#02AA93"/>
<stop offset="1" stop-color="#67FF80"/>
</linearGradient>
</defs>
</svg>
