<svg width="128" height="128" viewBox="0 0 128 128" fill="none" xmlns="http://www.w3.org/2000/svg">
<g clip-path="url(#clip0_576_73)">
<mask id="path-1-inside-1_576_73" fill="white">
<path fill-rule="evenodd" clip-rule="evenodd" d="M106.444 14H21.1111C19.2251 14 17.4164 14.7492 16.0828 16.0828C14.7492 17.4164 14 19.2251 14 21.1111V106.444C14 108.33 14.7492 110.139 16.0828 111.473C17.4164 112.806 19.2251 113.556 21.1111 113.556H106.444C108.33 113.556 110.139 112.806 111.473 111.473C112.806 110.139 113.556 108.33 113.556 106.444V21.1111C113.556 19.2251 112.806 17.4164 111.473 16.0828C110.139 14.7492 108.33 14 106.444 14ZM106.444 104.444C106.444 105.549 105.549 106.444 104.444 106.444H23.1111C22.0065 106.444 21.1111 105.549 21.1111 104.444V23.1111C21.1111 22.0065 22.0065 21.1111 23.1111 21.1111H104.444C105.549 21.1111 106.444 22.0065 106.444 23.1111V104.444ZM28.2217 26.6667C28.2217 25.5622 29.1171 24.6667 30.2217 24.6667H33.3328C34.4374 24.6667 35.3328 25.5622 35.3328 26.6667V33.3334C35.3328 34.438 34.4374 35.3334 33.3328 35.3334H30.2217C29.1171 35.3334 28.2217 34.438 28.2217 33.3334V26.6667ZM56.6658 26.6667C56.6658 25.5622 55.7704 24.6667 54.6658 24.6667H51.5547C50.4501 24.6667 49.5547 25.5622 49.5547 26.6667V33.3334C49.5547 34.438 50.4501 35.3334 51.5547 35.3334H54.6658C55.7704 35.3334 56.6658 34.438 56.6658 33.3334V26.6667ZM70.8887 26.6667C70.8887 25.5622 71.7841 24.6667 72.8887 24.6667H75.9998C77.1044 24.6667 77.9998 25.5622 77.9998 26.6667V33.3334C77.9998 34.438 77.1044 35.3334 75.9998 35.3334H72.8887C71.7841 35.3334 70.8887 34.438 70.8887 33.3334V26.6667ZM99.3328 26.6667C99.3328 25.5622 98.4374 24.6667 97.3328 24.6667H94.2217C93.1171 24.6667 92.2217 25.5622 92.2217 26.6667V33.3334C92.2217 34.438 93.1171 35.3334 94.2217 35.3334H97.3328C98.4374 35.3334 99.3328 34.438 99.3328 33.3334V26.6667ZM28.2217 94.2223C28.2217 93.1177 29.1171 92.2223 30.2217 92.2223H33.3328C34.4374 92.2223 35.3328 93.1177 35.3328 94.2223V100.889C35.3328 101.994 34.4374 102.889 33.3328 102.889H30.2217C29.1171 102.889 28.2217 101.994 28.2217 100.889V94.2223ZM56.6658 94.2223C56.6658 93.1177 55.7704 92.2223 54.6658 92.2223H51.5547C50.4501 92.2223 49.5547 93.1177 49.5547 94.2223V100.889C49.5547 101.994 50.4501 102.889 51.5547 102.889H54.6658C55.7704 102.889 56.6658 101.994 56.6658 100.889V94.2223ZM70.8887 94.2223C70.8887 93.1177 71.7841 92.2223 72.8887 92.2223H75.9998C77.1044 92.2223 77.9998 93.1177 77.9998 94.2223V100.889C77.9998 101.994 77.1044 102.889 75.9998 102.889H72.8887C71.7841 102.889 70.8887 101.994 70.8887 100.889V94.2223ZM99.3328 94.2223C99.3328 93.1177 98.4374 92.2223 97.3328 92.2223H94.2217C93.1171 92.2223 92.2217 93.1177 92.2217 94.2223V100.889C92.2217 101.994 93.1171 102.889 94.2217 102.889H97.3328C98.4374 102.889 99.3328 101.994 99.3328 100.889V94.2223Z"/>
</mask>
<path fill-rule="evenodd" clip-rule="evenodd" d="M106.444 14H21.1111C19.2251 14 17.4164 14.7492 16.0828 16.0828C14.7492 17.4164 14 19.2251 14 21.1111V106.444C14 108.33 14.7492 110.139 16.0828 111.473C17.4164 112.806 19.2251 113.556 21.1111 113.556H106.444C108.33 113.556 110.139 112.806 111.473 111.473C112.806 110.139 113.556 108.33 113.556 106.444V21.1111C113.556 19.2251 112.806 17.4164 111.473 16.0828C110.139 14.7492 108.33 14 106.444 14ZM106.444 104.444C106.444 105.549 105.549 106.444 104.444 106.444H23.1111C22.0065 106.444 21.1111 105.549 21.1111 104.444V23.1111C21.1111 22.0065 22.0065 21.1111 23.1111 21.1111H104.444C105.549 21.1111 106.444 22.0065 106.444 23.1111V104.444ZM28.2217 26.6667C28.2217 25.5622 29.1171 24.6667 30.2217 24.6667H33.3328C34.4374 24.6667 35.3328 25.5622 35.3328 26.6667V33.3334C35.3328 34.438 34.4374 35.3334 33.3328 35.3334H30.2217C29.1171 35.3334 28.2217 34.438 28.2217 33.3334V26.6667ZM56.6658 26.6667C56.6658 25.5622 55.7704 24.6667 54.6658 24.6667H51.5547C50.4501 24.6667 49.5547 25.5622 49.5547 26.6667V33.3334C49.5547 34.438 50.4501 35.3334 51.5547 35.3334H54.6658C55.7704 35.3334 56.6658 34.438 56.6658 33.3334V26.6667ZM70.8887 26.6667C70.8887 25.5622 71.7841 24.6667 72.8887 24.6667H75.9998C77.1044 24.6667 77.9998 25.5622 77.9998 26.6667V33.3334C77.9998 34.438 77.1044 35.3334 75.9998 35.3334H72.8887C71.7841 35.3334 70.8887 34.438 70.8887 33.3334V26.6667ZM99.3328 26.6667C99.3328 25.5622 98.4374 24.6667 97.3328 24.6667H94.2217C93.1171 24.6667 92.2217 25.5622 92.2217 26.6667V33.3334C92.2217 34.438 93.1171 35.3334 94.2217 35.3334H97.3328C98.4374 35.3334 99.3328 34.438 99.3328 33.3334V26.6667ZM28.2217 94.2223C28.2217 93.1177 29.1171 92.2223 30.2217 92.2223H33.3328C34.4374 92.2223 35.3328 93.1177 35.3328 94.2223V100.889C35.3328 101.994 34.4374 102.889 33.3328 102.889H30.2217C29.1171 102.889 28.2217 101.994 28.2217 100.889V94.2223ZM56.6658 94.2223C56.6658 93.1177 55.7704 92.2223 54.6658 92.2223H51.5547C50.4501 92.2223 49.5547 93.1177 49.5547 94.2223V100.889C49.5547 101.994 50.4501 102.889 51.5547 102.889H54.6658C55.7704 102.889 56.6658 101.994 56.6658 100.889V94.2223ZM70.8887 94.2223C70.8887 93.1177 71.7841 92.2223 72.8887 92.2223H75.9998C77.1044 92.2223 77.9998 93.1177 77.9998 94.2223V100.889C77.9998 101.994 77.1044 102.889 75.9998 102.889H72.8887C71.7841 102.889 70.8887 101.994 70.8887 100.889V94.2223ZM99.3328 94.2223C99.3328 93.1177 98.4374 92.2223 97.3328 92.2223H94.2217C93.1171 92.2223 92.2217 93.1177 92.2217 94.2223V100.889C92.2217 101.994 93.1171 102.889 94.2217 102.889H97.3328C98.4374 102.889 99.3328 101.994 99.3328 100.889V94.2223Z" fill="url(#paint0_linear_576_73)"/>
<path d="M16.0828 111.473L16.7899 110.766L16.7899 110.766L16.0828 111.473ZM111.473 111.473L110.766 110.766L110.766 110.766L111.473 111.473ZM111.473 16.0828L110.766 16.7899L110.766 16.7899L111.473 16.0828ZM21.1111 15H106.444V13H21.1111V15ZM16.7899 16.7899C17.936 15.6438 19.4903 15 21.1111 15V13C18.9599 13 16.8968 13.8546 15.3757 15.3757L16.7899 16.7899ZM15 21.1111C15 19.4903 15.6438 17.936 16.7899 16.7899L15.3757 15.3757C13.8546 16.8968 13 18.9599 13 21.1111H15ZM15 106.444V21.1111H13V106.444H15ZM16.7899 110.766C15.6438 109.62 15 108.065 15 106.444H13C13 108.596 13.8546 110.659 15.3757 112.18L16.7899 110.766ZM21.1111 112.556C19.4903 112.556 17.936 111.912 16.7899 110.766L15.3757 112.18C16.8968 113.701 18.9599 114.556 21.1111 114.556V112.556ZM106.444 112.556H21.1111V114.556H106.444V112.556ZM110.766 110.766C109.62 111.912 108.065 112.556 106.444 112.556V114.556C108.596 114.556 110.659 113.701 112.18 112.18L110.766 110.766ZM112.556 106.444C112.556 108.065 111.912 109.62 110.766 110.766L112.18 112.18C113.701 110.659 114.556 108.596 114.556 106.444H112.556ZM112.556 21.1111V106.444H114.556V21.1111H112.556ZM110.766 16.7899C111.912 17.936 112.556 19.4903 112.556 21.1111H114.556C114.556 18.9599 113.701 16.8968 112.18 15.3757L110.766 16.7899ZM106.444 15C108.065 15 109.62 15.6438 110.766 16.7899L112.18 15.3757C110.659 13.8546 108.596 13 106.444 13V15ZM23.1111 107.444H104.444V105.444H23.1111V107.444ZM20.1111 23.1111V104.444H22.1111V23.1111H20.1111ZM104.444 20.1111H23.1111V22.1111H104.444V20.1111ZM107.444 104.444V23.1111H105.444V104.444H107.444ZM33.3328 23.6667H30.2217V25.6667H33.3328V23.6667ZM36.3328 33.3334V26.6667H34.3328V33.3334H36.3328ZM30.2217 36.3334H33.3328V34.3334H30.2217V36.3334ZM27.2217 26.6667V33.3334H29.2217V26.6667H27.2217ZM51.5547 25.6667H54.6658V23.6667H51.5547V25.6667ZM50.5547 33.3334V26.6667H48.5547V33.3334H50.5547ZM54.6658 34.3334H51.5547V36.3334H54.6658V34.3334ZM55.6658 26.6667V33.3334H57.6658V26.6667H55.6658ZM75.9998 23.6667H72.8887V25.6667H75.9998V23.6667ZM78.9998 33.3334V26.6667H76.9998V33.3334H78.9998ZM72.8887 36.3334H75.9998V34.3334H72.8887V36.3334ZM69.8887 26.6667V33.3334H71.8887V26.6667H69.8887ZM94.2217 25.6667H97.3328V23.6667H94.2217V25.6667ZM93.2217 33.3334V26.6667H91.2217V33.3334H93.2217ZM97.3328 34.3334H94.2217V36.3334H97.3328V34.3334ZM98.3328 26.6667V33.3334H100.333V26.6667H98.3328ZM33.3328 91.2223H30.2217V93.2223H33.3328V91.2223ZM36.3328 100.889V94.2223H34.3328V100.889H36.3328ZM30.2217 103.889H33.3328V101.889H30.2217V103.889ZM27.2217 94.2223V100.889H29.2217V94.2223H27.2217ZM51.5547 93.2223H54.6658V91.2223H51.5547V93.2223ZM50.5547 100.889V94.2223H48.5547V100.889H50.5547ZM54.6658 101.889H51.5547V103.889H54.6658V101.889ZM55.6658 94.2223V100.889H57.6658V94.2223H55.6658ZM75.9998 91.2223H72.8887V93.2223H75.9998V91.2223ZM78.9998 100.889V94.2223H76.9998V100.889H78.9998ZM72.8887 103.889H75.9998V101.889H72.8887V103.889ZM69.8887 94.2223V100.889H71.8887V94.2223H69.8887ZM94.2217 93.2223H97.3328V91.2223H94.2217V93.2223ZM93.2217 100.889V94.2223H91.2217V100.889H93.2217ZM97.3328 101.889H94.2217V103.889H97.3328V101.889ZM98.3328 94.2223V100.889H100.333V94.2223H98.3328ZM97.3328 103.889C98.9896 103.889 100.333 102.546 100.333 100.889H98.3328C98.3328 101.441 97.8851 101.889 97.3328 101.889V103.889ZM91.2217 100.889C91.2217 102.546 92.5648 103.889 94.2217 103.889V101.889C93.6694 101.889 93.2217 101.441 93.2217 100.889H91.2217ZM97.3328 93.2223C97.8851 93.2223 98.3328 93.67 98.3328 94.2223H100.333C100.333 92.5654 98.9896 91.2223 97.3328 91.2223V93.2223ZM94.2217 91.2223C92.5648 91.2223 91.2217 92.5654 91.2217 94.2223H93.2217C93.2217 93.67 93.6694 93.2223 94.2217 93.2223V91.2223ZM72.8887 101.889C72.3364 101.889 71.8887 101.441 71.8887 100.889H69.8887C69.8887 102.546 71.2318 103.889 72.8887 103.889V101.889ZM76.9998 100.889C76.9998 101.441 76.5521 101.889 75.9998 101.889V103.889C77.6566 103.889 78.9998 102.546 78.9998 100.889H76.9998ZM72.8887 91.2223C71.2318 91.2223 69.8887 92.5654 69.8887 94.2223H71.8887C71.8887 93.67 72.3364 93.2223 72.8887 93.2223V91.2223ZM75.9998 93.2223C76.5521 93.2223 76.9998 93.67 76.9998 94.2223H78.9998C78.9998 92.5654 77.6566 91.2223 75.9998 91.2223V93.2223ZM54.6658 103.889C56.3227 103.889 57.6658 102.546 57.6658 100.889H55.6658C55.6658 101.441 55.2181 101.889 54.6658 101.889V103.889ZM48.5547 100.889C48.5547 102.546 49.8978 103.889 51.5547 103.889V101.889C51.0024 101.889 50.5547 101.441 50.5547 100.889H48.5547ZM54.6658 93.2223C55.2181 93.2223 55.6658 93.67 55.6658 94.2223H57.6658C57.6658 92.5654 56.3227 91.2223 54.6658 91.2223V93.2223ZM51.5547 91.2223C49.8978 91.2223 48.5547 92.5654 48.5547 94.2223H50.5547C50.5547 93.67 51.0024 93.2223 51.5547 93.2223V91.2223ZM30.2217 101.889C29.6694 101.889 29.2217 101.441 29.2217 100.889H27.2217C27.2217 102.546 28.5648 103.889 30.2217 103.889V101.889ZM34.3328 100.889C34.3328 101.441 33.8851 101.889 33.3328 101.889V103.889C34.9896 103.889 36.3328 102.546 36.3328 100.889H34.3328ZM30.2217 91.2223C28.5648 91.2223 27.2217 92.5654 27.2217 94.2223H29.2217C29.2217 93.67 29.6694 93.2223 30.2217 93.2223V91.2223ZM33.3328 93.2223C33.8851 93.2223 34.3328 93.67 34.3328 94.2223H36.3328C36.3328 92.5654 34.9896 91.2223 33.3328 91.2223V93.2223ZM97.3328 36.3334C98.9896 36.3334 100.333 34.9903 100.333 33.3334H98.3328C98.3328 33.8857 97.8851 34.3334 97.3328 34.3334V36.3334ZM91.2217 33.3334C91.2217 34.9903 92.5648 36.3334 94.2217 36.3334V34.3334C93.6694 34.3334 93.2217 33.8857 93.2217 33.3334H91.2217ZM97.3328 25.6667C97.8851 25.6667 98.3328 26.1145 98.3328 26.6667H100.333C100.333 25.0099 98.9896 23.6667 97.3328 23.6667V25.6667ZM94.2217 23.6667C92.5648 23.6667 91.2217 25.0099 91.2217 26.6667H93.2217C93.2217 26.1145 93.6694 25.6667 94.2217 25.6667V23.6667ZM72.8887 34.3334C72.3364 34.3334 71.8887 33.8857 71.8887 33.3334H69.8887C69.8887 34.9903 71.2318 36.3334 72.8887 36.3334V34.3334ZM76.9998 33.3334C76.9998 33.8857 76.5521 34.3334 75.9998 34.3334V36.3334C77.6566 36.3334 78.9998 34.9903 78.9998 33.3334H76.9998ZM72.8887 23.6667C71.2318 23.6667 69.8887 25.0099 69.8887 26.6667H71.8887C71.8887 26.1145 72.3364 25.6667 72.8887 25.6667V23.6667ZM75.9998 25.6667C76.5521 25.6667 76.9998 26.1145 76.9998 26.6667H78.9998C78.9998 25.0099 77.6566 23.6667 75.9998 23.6667V25.6667ZM54.6658 36.3334C56.3227 36.3334 57.6658 34.9903 57.6658 33.3334H55.6658C55.6658 33.8857 55.2181 34.3334 54.6658 34.3334V36.3334ZM48.5547 33.3334C48.5547 34.9903 49.8978 36.3334 51.5547 36.3334V34.3334C51.0024 34.3334 50.5547 33.8857 50.5547 33.3334H48.5547ZM54.6658 25.6667C55.2181 25.6667 55.6658 26.1145 55.6658 26.6667H57.6658C57.6658 25.0099 56.3227 23.6667 54.6658 23.6667V25.6667ZM51.5547 23.6667C49.8978 23.6667 48.5547 25.0099 48.5547 26.6667H50.5547C50.5547 26.1145 51.0024 25.6667 51.5547 25.6667V23.6667ZM30.2217 34.3334C29.6694 34.3334 29.2217 33.8857 29.2217 33.3334H27.2217C27.2217 34.9903 28.5648 36.3334 30.2217 36.3334V34.3334ZM34.3328 33.3334C34.3328 33.8857 33.8851 34.3334 33.3328 34.3334V36.3334C34.9896 36.3334 36.3328 34.9903 36.3328 33.3334H34.3328ZM30.2217 23.6667C28.5648 23.6667 27.2217 25.0099 27.2217 26.6667H29.2217C29.2217 26.1145 29.6694 25.6667 30.2217 25.6667V23.6667ZM33.3328 25.6667C33.8851 25.6667 34.3328 26.1145 34.3328 26.6667H36.3328C36.3328 25.0099 34.9896 23.6667 33.3328 23.6667V25.6667ZM104.444 22.1111C104.997 22.1111 105.444 22.5588 105.444 23.1111H107.444C107.444 21.4543 106.101 20.1111 104.444 20.1111V22.1111ZM22.1111 23.1111C22.1111 22.5588 22.5588 22.1111 23.1111 22.1111V20.1111C21.4543 20.1111 20.1111 21.4543 20.1111 23.1111H22.1111ZM104.444 107.444C106.101 107.444 107.444 106.101 107.444 104.444H105.444C105.444 104.997 104.997 105.444 104.444 105.444V107.444ZM23.1111 105.444C22.5588 105.444 22.1111 104.997 22.1111 104.444H20.1111C20.1111 106.101 21.4543 107.444 23.1111 107.444V105.444Z" fill="url(#paint1_linear_576_73)" mask="url(#path-1-inside-1_576_73)"/>
<path d="M32.2109 47H36.7449C37.5949 47 38.352 47.5372 38.6327 48.3395L45.0419 66.6588C45.6668 68.4449 48.1926 68.4449 48.8175 66.6588L55.2267 48.3395C55.5074 47.5372 56.2645 47 57.1145 47H61.6484L49.7973 79.8045C49.5111 80.597 48.7589 81.125 47.9163 81.125H45.943C45.1005 81.125 44.3483 80.597 44.062 79.8045L32.2109 47ZM29 49C29 47.8954 29.8954 47 31 47H34.9297L36.0078 71.4219V79.125C36.0078 80.2296 35.1124 81.125 34.0078 81.125H31C29.8954 81.125 29 80.2296 29 79.125V49ZM58.9297 47H62.8828C63.9874 47 64.8828 47.8954 64.8828 49V79.125C64.8828 80.2296 63.9874 81.125 62.8828 81.125H59.8516C58.747 81.125 57.8516 80.2296 57.8516 79.125V71.4219L58.9297 47Z" fill="url(#paint2_linear_576_73)"/>
<path d="M83.6121 73.125L90.9651 48.4293C91.2175 47.5813 91.9972 47 92.8819 47H96.4045C97.7809 47 98.7459 48.3579 98.2933 49.6577L87.8033 79.7827C87.5235 80.5864 86.7656 81.125 85.9146 81.125H82.1797L83.6121 73.125ZM74.4479 47C75.3356 47 76.117 47.5851 76.367 48.4368L83.6121 73.125L85.1797 81.125H81.4007C80.5483 81.125 79.7895 80.5847 79.5107 79.7792L69.0828 49.6542C68.6331 48.3551 69.598 47 70.9728 47H74.4479Z" fill="url(#paint3_linear_576_73)"/>
</g>
<defs>
<linearGradient id="paint0_linear_576_73" x1="14.0146" y1="62.3027" x2="113.572" y2="62.3027" gradientUnits="userSpaceOnUse">
<stop stop-color="#A93AFF"/>
<stop offset="1" stop-color="#FF81FF"/>
</linearGradient>
<linearGradient id="paint1_linear_576_73" x1="14.0146" y1="62.3027" x2="113.572" y2="62.3027" gradientUnits="userSpaceOnUse">
<stop stop-color="#A93AFF"/>
<stop offset="1" stop-color="#FF81FF"/>
</linearGradient>
<linearGradient id="paint2_linear_576_73" x1="64.1094" y1="81.125" x2="64.1094" y2="47" gradientUnits="userSpaceOnUse">
<stop stop-color="#A93AFF"/>
<stop offset="1" stop-color="#FF81FF"/>
</linearGradient>
<linearGradient id="paint3_linear_576_73" x1="64.1094" y1="81.125" x2="64.1094" y2="47" gradientUnits="userSpaceOnUse">
<stop stop-color="#A93AFF"/>
<stop offset="1" stop-color="#FF81FF"/>
</linearGradient>
<clipPath id="clip0_576_73">
<rect width="128" height="128" fill="white"/>
</clipPath>
</defs>
</svg>
