<svg width="64" height="64" viewBox="0 0 64 64" fill="none" xmlns="http://www.w3.org/2000/svg">
<path d="M7.89982 33.3593L5.50484 32.6423C5.49574 32.6727 5.48721 32.7033 5.47927 32.734L7.89982 33.3593ZM16.459 52.4086L16.3513 49.9109L16.35 49.911L16.459 52.4086ZM17.4401 53.1672L19.7428 52.1938L19.7428 52.1938L17.4401 53.1672ZM51.3413 46.2621L49.1279 45.0998C49.0789 45.1931 49.0358 45.2895 48.999 45.3883L51.3413 46.2621ZM55.3958 11.1456L53.6664 9.34032L53.6661 9.34061L55.3958 11.1456ZM14.9934 53.1067C15.2892 54.4553 16.6223 55.3088 17.971 55.013C19.3196 54.7171 20.1731 53.384 19.8773 52.0354L14.9934 53.1067ZM21.3337 37.2105C21.8159 35.9167 21.158 34.477 19.8642 33.9948C18.5705 33.5126 17.1308 34.1705 16.6486 35.4643L21.3337 37.2105ZM30.7622 57.926C31.3521 59.1743 32.8423 59.7081 34.0907 59.1183C35.339 58.5284 35.8728 57.0382 35.283 55.7898L30.7622 57.926ZM34.8212 41.5076C35.4828 40.2957 35.0366 38.777 33.8247 38.1154C32.6128 37.4539 31.0941 37.9 30.4325 39.1119L34.8212 41.5076ZM54.5435 1.54288C51.1906 2.16479 40.8938 3.46173 30.5991 7.72045C20.3053 11.9788 9.46474 19.4152 5.50484 32.6423L10.2948 34.0763C13.6297 22.9369 22.8317 16.3446 32.5105 12.3407C42.1883 8.33715 51.794 7.13816 55.4554 6.45903L54.5435 1.54288ZM5.47927 32.734C4.34001 37.1442 4.03104 42.5212 5.44224 46.8985C6.15746 49.117 7.36072 51.2137 9.26385 52.7245C11.2036 54.2643 13.6675 55.0328 16.568 54.9062L16.35 49.911C14.5052 49.9915 13.2603 49.5131 12.3726 48.8084C11.4483 48.0746 10.7056 46.9292 10.2011 45.3643C9.17281 42.1749 9.32954 37.8201 10.3204 33.9846L5.47927 32.734ZM16.5666 54.9063C16.6205 54.904 16.4881 54.9172 16.2706 54.8642C16.0023 54.7989 15.6856 54.6531 15.4065 54.3926C15.1653 54.1676 15.0597 53.9541 15.0506 53.9362C15.0433 53.9217 15.0456 53.9249 15.0634 53.9659C15.0832 54.0117 15.1006 54.0535 15.1374 54.1405L19.7428 52.1938C19.7052 52.1047 19.6112 51.8745 19.5103 51.6754C19.3999 51.4576 19.19 51.0844 18.8175 50.7368C17.9347 49.9131 16.8866 49.8878 16.3513 49.9109L16.5666 54.9063ZM15.1374 54.1405C17.4487 59.6089 21.6266 62.0874 25.7156 62.4522C27.7002 62.6292 29.6303 62.3056 31.2665 61.6303C32.869 60.969 34.3782 59.8874 35.2733 58.3877L30.98 55.8251C30.7938 56.137 30.29 56.6243 29.3591 57.0084C28.4619 57.3787 27.3381 57.5771 26.1598 57.472C23.923 57.2724 21.3389 55.9698 19.7428 52.1938L15.1374 54.1405ZM35.2733 58.3877C35.4023 58.1716 35.558 57.8579 35.6415 57.4639C35.7251 57.0698 35.7608 56.4651 35.4723 55.8213C34.7843 54.2862 33.2261 54.1737 32.4527 54.3697C31.6714 54.5678 30.5333 55.3232 30.475 56.8004C30.4208 58.173 31.3743 58.9365 31.7143 59.1692L34.539 55.0436C34.6456 55.1165 35.5209 55.7356 35.4711 56.9976C35.4172 58.3642 34.3659 59.0429 33.6815 59.2164C33.005 59.3879 31.5535 59.303 30.9096 57.8662C30.6431 57.2716 30.6852 56.7337 30.7503 56.4264C30.8155 56.1192 30.928 55.9122 30.98 55.8251L35.2733 58.3877ZM31.7143 59.1692C34.4651 61.0526 37.1468 61.9782 39.7431 61.9023C42.3602 61.8257 44.57 60.7409 46.3732 59.2002C49.8459 56.2331 52.1311 51.2976 53.6836 47.1359L48.999 45.3883C47.4665 49.4962 45.5405 53.3352 43.1252 55.3989C41.9844 56.3736 40.831 56.8683 39.5969 56.9044C38.3419 56.9411 36.6843 56.5124 34.539 55.0436L31.7143 59.1692ZM53.5547 47.4243C54.689 45.2641 55.5912 41.7142 56.3043 37.9408C57.0358 34.0703 57.6231 29.6475 58.0257 25.5322C58.4275 21.4252 58.6519 17.5568 58.6428 14.8004C58.6383 13.461 58.5798 12.2277 58.4112 11.3394C58.3666 11.1049 58.3048 10.8408 58.2135 10.5772C58.1323 10.3432 57.9741 9.94779 57.6643 9.56645C57.337 9.16353 56.6427 8.55783 55.5765 8.55604C54.5981 8.5544 53.9467 9.07174 53.6664 9.34032L57.1252 12.9509C56.9709 13.0988 56.4371 13.5575 55.5681 13.556C54.6111 13.5544 54.018 13.0077 53.7836 12.7192C53.5667 12.4523 53.4934 12.2268 53.4893 12.2149C53.4749 12.1733 53.4821 12.1834 53.4989 12.2719C53.5755 12.6756 53.6385 13.5152 53.6428 14.8169C53.6512 17.3426 53.4424 21.0288 53.0494 25.0454C52.6573 29.0539 52.0884 33.3239 51.3913 37.0123C50.6759 40.7976 49.8774 43.6725 49.1279 45.0998L53.5547 47.4243ZM53.6661 9.34061C45.1586 17.4932 38.9951 21.5952 35.1388 23.1558C33.1493 23.9609 32.1644 23.9287 31.8808 23.8534C31.809 23.8343 31.9286 23.8549 32.0443 24.0137C32.1473 24.1551 32.1094 24.2185 32.1078 24.0458C32.1039 23.6162 32.3411 22.6329 33.2854 21.1461C34.1904 19.721 35.6119 18.0456 37.5939 16.2857C41.5511 12.7717 47.6016 9.04679 55.7754 6.37639L54.2226 1.62361C45.4523 4.48891 38.7866 8.53978 34.2739 12.547C32.021 14.5476 30.2691 16.5691 29.0647 18.4655C27.8995 20.3001 27.0912 22.2627 27.108 24.0917C27.1168 25.0483 27.3558 26.0691 28.0025 26.9572C28.6619 27.8627 29.5922 28.4191 30.5981 28.6861C32.47 29.1829 34.7091 28.7236 37.0145 27.7906C41.748 25.8751 48.4577 21.2569 57.1255 12.9506L53.6661 9.34061ZM19.8773 52.0354C18.6915 46.6295 18.8617 43.7403 19.2954 41.9659C19.5126 41.0774 19.8165 40.3807 20.1645 39.6818C20.4754 39.0575 20.9911 38.1298 21.3337 37.2105L16.6486 35.4643C16.4286 36.0545 16.1603 36.5061 15.6888 37.4529C15.2546 38.3249 14.7776 39.3908 14.4384 40.7787C13.7593 43.5569 13.7142 47.275 14.9934 53.1067L19.8773 52.0354ZM35.283 55.7898C32.3825 49.6516 32.9677 44.9031 34.8212 41.5076L30.4325 39.1119C27.7328 44.0575 27.2542 50.5017 30.7622 57.926L35.283 55.7898Z" fill="url(#paint0_linear_457:2)"/>
<defs>
<linearGradient id="paint0_linear_457:2" x1="31.5715" y1="60" x2="31.5715" y2="4" gradientUnits="userSpaceOnUse">
<stop stop-color="#02AA93"/>
<stop offset="1" stop-color="#67FF80"/>
</linearGradient>
</defs>
</svg>
