<svg width="128" height="128" viewBox="0 0 128 128" fill="none" xmlns="http://www.w3.org/2000/svg">
<path d="M113.847 41.2265H99.9768C98.4602 41.2265 97.231 40.0055 97.231 38.4993V25.1133C97.231 24.2775 96.8066 23.4493 96.014 22.8344L79.3985 9.94381C78.6198 9.33945 77.5634 9 76.4616 9H51.5384C50.4369 9 49.3804 9.33945 48.6015 9.94381L31.986 22.8344C31.2264 23.4237 30.7693 24.2423 30.7693 25.1133V38.4993C30.7693 40.0055 29.5399 41.2265 28.0236 41.2265H14.1538C11.8598 41.2265 10 42.6695 10 44.4492V115.777C10 117.557 11.8598 119 14.1538 119H113.847C116.139 119 118 117.557 118 115.777V44.4492C118 42.6695 116.139 41.2265 113.847 41.2265ZM52.514 16.0233C52.9967 15.6487 53.5916 15.4453 54.2042 15.4453H73.7957C74.4083 15.4453 75.0032 15.6487 75.4859 16.0233L76.7629 17.014C78.8211 18.6107 77.6843 21.8906 75.0727 21.8906H52.9272C50.3156 21.8906 49.1788 18.6108 51.237 17.014L52.514 16.0233ZM86.1773 28.3359C87.6937 28.3359 88.9231 29.557 88.9231 31.0632V51.3899C88.9231 52.8962 87.6937 54.1172 86.1773 54.1172H83.3611C81.8447 54.1172 80.6153 52.8962 80.6153 51.3899V31.0632C80.6153 29.557 81.8447 28.3359 83.3611 28.3359H86.1773ZM69.562 28.3359C71.0784 28.3359 72.3078 29.557 72.3078 31.0632V38.4993C72.3078 40.0055 71.0784 41.2265 69.562 41.2265H58.438C56.9216 41.2265 55.6922 40.0055 55.6922 38.4993V31.0632C55.6922 29.557 56.9216 28.3359 58.438 28.3359H69.562ZM39.0769 31.0632C39.0769 29.557 40.3063 28.3359 41.8227 28.3359H44.6389C46.1553 28.3359 47.3847 29.557 47.3847 31.0632V51.3899C47.3847 52.8962 46.1553 54.1172 44.6389 54.1172H41.8227C40.3063 54.1172 39.0769 52.8962 39.0769 51.3899V31.0632ZM109.693 109.827C109.693 111.334 108.463 112.555 106.947 112.555H21.0535C19.537 112.555 18.3078 111.334 18.3078 109.827V50.3992C18.3078 48.8929 19.537 47.6719 21.0535 47.6719H28.0236C29.5399 47.6719 30.7693 48.8929 30.7693 50.3992V57.3398C30.7693 59.1196 32.6291 60.5625 34.9231 60.5625H51.5384C53.8324 60.5625 55.6922 59.1196 55.6922 57.3398V50.3992C55.6922 48.8929 56.9216 47.6719 58.438 47.6719H69.562C71.0784 47.6719 72.3078 48.8929 72.3078 50.3992V57.3398C72.3078 59.1196 74.1676 60.5625 76.4616 60.5625H93.0769C95.3709 60.5625 97.231 59.1196 97.231 57.3398V50.3992C97.231 48.8929 98.4602 47.6719 99.9768 47.6719H106.947C108.463 47.6719 109.693 48.8929 109.693 50.3992V109.827Z" fill="url(#paint0_linear_640_92)"/>
<path d="M58.3284 65.3876C58.3705 61.3388 63.9967 59.5108 66.5656 62.4322C67.5849 63.7135 67.9469 65.3791 67.9807 66.9935C68.0903 75.1682 67.8712 83.3431 68.0061 91.5092C71.5856 89.0148 75.3337 86.777 78.9556 84.351C80.5473 83.3174 82.4678 82.1899 84.4218 82.8306C87.193 83.4113 88.8521 86.9222 87.5467 89.4848C86.8729 91.0395 85.3905 91.9193 84.0513 92.8076C78.0458 96.6685 72.0405 100.538 66.0434 104.416C64.2579 105.595 61.6047 105.646 59.9707 104.169C53.9905 99.6242 47.6484 95.5838 41.6765 91.0308C39.1582 88.9893 39.512 84.4278 42.502 83.0612C44.3045 81.9848 46.5533 82.5315 48.1706 83.7019C51.5395 86.0764 54.9171 88.4426 58.2692 90.8514C58.3113 82.3606 58.1682 73.8699 58.3284 65.3876Z" fill="url(#paint1_linear_640_92)"/>
<defs>
<linearGradient id="paint0_linear_640_92" x1="39.3592" y1="52.5867" x2="113.492" y2="42.8749" gradientUnits="userSpaceOnUse">
<stop stop-color="#0357D1"/>
<stop offset="1" stop-color="#27CDFC"/>
</linearGradient>
<linearGradient id="paint1_linear_640_92" x1="64" y1="105.29" x2="64" y2="61" gradientUnits="userSpaceOnUse">
<stop stop-color="#02AA93"/>
<stop offset="1" stop-color="#67FF80"/>
</linearGradient>
</defs>
</svg>
