<svg width="128" height="128" viewBox="0 0 128 128" fill="none" xmlns="http://www.w3.org/2000/svg">
<path d="M11.4254 27.3066C11.432 18.8266 18.932 11.2999 27.3987 11.1866C50.712 11.0999 74.032 11.1932 97.352 11.1466C100.172 11.0999 103.066 11.1932 105.712 12.2666C111.859 14.5399 116.346 20.7466 116.412 27.3199C116.426 51.5666 116.432 75.8132 116.412 100.053C116.472 107.847 110.186 114.613 102.712 116.12C81.1454 116.44 59.572 116.187 38.0054 116.253C35.6654 116.513 33.5387 114.353 33.6787 112.04C33.612 97.2732 33.752 82.4999 33.612 67.7332C31.3987 67.7332 29.172 67.8866 26.9854 67.4799C31.2854 67.2066 35.5787 67.9466 39.8854 67.6599C42.5054 67.4732 45.1387 67.4132 47.7654 67.4666C45.7054 67.9666 43.572 67.7132 41.472 67.6799C41.412 81.2199 41.472 94.7532 41.4387 108.287C47.1454 108.32 52.852 108.313 58.5654 108.3C58.512 100.64 58.692 92.9799 58.452 85.3266C61.052 85.1932 63.6587 85.1999 66.2654 85.3399C66.252 92.9932 66.2454 100.64 66.2654 108.293C72.9254 108.313 79.5854 108.307 86.252 108.3C86.2454 90.7533 86.2787 73.2066 86.232 55.6599C84.212 55.6799 82.172 55.8332 80.1787 55.4199C82.572 55.3466 84.9654 55.3666 87.352 55.5666C91.7454 55.9332 96.1387 55.0399 100.532 55.4666C98.412 55.8132 96.2654 55.6999 94.132 55.6132C94.0654 73.1666 94.1254 90.7266 94.0987 108.28C97.6454 108.18 101.626 108.96 104.719 106.76C107.119 105.147 108.579 102.293 108.512 99.3999C108.539 75.5866 108.532 51.7732 108.512 27.9666C108.732 23.2732 104.539 19.1132 99.9054 19.0866C76.1654 19.0399 52.4187 19.0799 28.6787 19.0599C24.0654 18.7132 19.3787 22.5732 19.452 27.3199C19.4254 51.5466 19.4587 75.7732 19.4387 99.9932C19.3187 103.28 21.6254 106.147 24.4587 107.56C26.032 108.227 26.5587 109.893 26.9454 111.413C26.272 113.513 24.5054 115.68 22.0254 115.013C15.5987 112.847 11.2254 106.047 11.412 99.3199C11.4187 75.3132 11.4054 51.3066 11.4254 27.3066Z" fill="url(#paint0_linear_644_57)" stroke="url(#paint1_linear_644_57)" stroke-width="4"/>
<path fill-rule="evenodd" clip-rule="evenodd" d="M33.7278 42.6467C33.6945 40.02 36.9278 38.1067 39.2012 39.4667C40.8878 40.2467 41.4078 42.24 41.3812 43.9533C41.4081 47.0564 41.4017 50.1595 41.3954 53.2626C41.3907 55.5395 41.386 57.8164 41.3945 60.0933C42.1685 60.1791 43.0051 60.1348 43.8505 60.09C45.8304 59.985 47.8583 59.8776 49.2412 61.4333C50.9545 63.3 50.1078 66.5667 47.7678 67.4667C45.1412 67.4133 42.5078 67.4733 39.8878 67.66C37.72 67.8043 35.5555 67.6885 33.3919 67.5727C31.2572 67.4585 29.1233 67.3443 26.9878 67.48C25.0945 66.2667 24.0745 63.5667 25.5812 61.6533C26.9313 59.8563 29.1187 59.9815 31.2273 60.1021H31.2274C32.0757 60.1506 32.9113 60.1984 33.6745 60.12C33.7042 57.5231 33.6955 54.9249 33.6868 52.3259V52.3258C33.6759 49.1002 33.665 45.8734 33.7278 42.6467ZM58.6141 42.6533C58.5875 40.5867 60.6141 38.8267 62.6475 39.0467C64.8008 39.1333 66.4208 41.2533 66.2076 43.3467C66.2119 50.9822 66.2105 58.6178 66.209 66.2533C66.2083 70.0711 66.2076 73.8889 66.2076 77.7067C66.9008 77.7349 67.6005 77.72 68.3011 77.705H68.3012C69.7494 77.6739 71.2012 77.6428 72.6075 77.9933C75.4208 78.9333 75.9341 83.2 73.3808 84.7533C71.7421 85.5977 69.8862 85.4985 68.0686 85.4014C67.4608 85.3689 66.8573 85.3367 66.2675 85.34C63.6608 85.2 61.0541 85.1933 58.4541 85.3267C57.8275 85.3161 57.1807 85.3565 56.5287 85.3972L56.5286 85.3972C54.7187 85.5101 52.8692 85.6255 51.3008 84.66C48.9541 83.0467 49.3941 79.0667 52.0541 78.04C53.508 77.6364 55.0186 77.6777 56.5253 77.7189C57.2087 77.7376 57.8914 77.7562 58.5675 77.7333C58.5875 72.7229 58.5818 67.7125 58.5761 62.7021C58.5685 56.0192 58.5608 49.3363 58.6141 42.6533ZM93.5217 41.1333C92.3283 38.4933 88.175 38.32 86.8217 40.9C86.1285 42.3764 86.192 44.0108 86.2552 45.635C86.2855 46.4164 86.3158 47.1954 86.2617 47.9533C85.5084 48.0282 84.7026 47.9894 83.8886 47.9502C81.9509 47.8569 79.9669 47.7614 78.535 49.1933C76.7083 51.14 77.6283 54.6333 80.1817 55.42C82.575 55.3467 84.9683 55.3667 87.355 55.5667C89.5005 55.7457 91.646 55.6243 93.7915 55.5028C96.0393 55.3756 98.287 55.2484 100.535 55.4667C102.449 54.3067 103.755 51.72 102.255 49.7C100.954 47.7394 98.6936 47.8412 96.5078 47.9397C95.6018 47.9805 94.7085 48.0207 93.9017 47.9133C93.8673 47.1898 93.8938 46.4532 93.9204 45.7148C93.9762 44.1602 94.0324 42.5977 93.5217 41.1333Z" fill="url(#paint2_linear_644_57)"/>
<path d="M39.2012 39.4667L38.1744 41.183L38.2654 41.2375L38.3617 41.282L39.2012 39.4667ZM33.7278 42.6467L35.7274 42.6856L35.728 42.6535L35.7276 42.6214L33.7278 42.6467ZM41.3812 43.9533L39.3814 43.9223L39.3811 43.9464L39.3813 43.9706L41.3812 43.9533ZM41.3954 53.2626L43.3953 53.2667L43.3953 53.2667L41.3954 53.2626ZM41.3945 60.0933L39.3945 60.1007L39.4011 61.8846L41.1742 62.0811L41.3945 60.0933ZM43.8505 60.09L43.9563 62.0872L43.9563 62.0871L43.8505 60.09ZM49.2412 61.4333L47.7464 62.7621L47.757 62.774L47.7677 62.7857L49.2412 61.4333ZM47.7678 67.4667L47.7271 69.4663L48.1195 69.4743L48.4857 69.3334L47.7678 67.4667ZM39.8878 67.66L40.0206 69.6556L40.0299 69.6549L39.8878 67.66ZM33.3919 67.5727L33.285 69.5699L33.285 69.5699L33.3919 67.5727ZM26.9878 67.48L25.9087 69.1639L26.4605 69.5176L27.1146 69.476L26.9878 67.48ZM25.5812 61.6533L27.1525 62.8906L27.1665 62.8728L27.1802 62.8546L25.5812 61.6533ZM31.2273 60.1021L31.1131 62.0988L31.1702 62.1021H31.2273V60.1021ZM31.2274 60.1021L31.3416 58.1053L31.2845 58.1021H31.2274V60.1021ZM33.6745 60.12L33.8789 62.1095L35.6539 61.9272L35.6744 60.1429L33.6745 60.12ZM33.6868 52.3259L31.6867 52.3259L31.6868 52.3326L33.6868 52.3259ZM33.6868 52.3258L35.6868 52.3258L35.6867 52.319L33.6868 52.3258ZM62.6475 39.0467L62.4324 41.0351L62.4996 41.0424L62.5672 41.0451L62.6475 39.0467ZM58.6141 42.6533L60.6141 42.6693L60.6142 42.6484L60.614 42.6276L58.6141 42.6533ZM66.2076 43.3467L64.2179 43.144L64.2075 43.2457L64.2076 43.3479L66.2076 43.3467ZM66.209 66.2533L64.209 66.2529L64.209 66.2529L66.209 66.2533ZM66.2076 77.7067H64.2076V79.6269L66.1262 79.7051L66.2076 77.7067ZM68.3011 77.705V75.705H68.2796L68.2582 75.7054L68.3011 77.705ZM68.3012 77.705V79.705H68.3226L68.344 79.7045L68.3012 77.705ZM72.6075 77.9933L73.2414 76.0964L73.1671 76.0716L73.0911 76.0527L72.6075 77.9933ZM73.3808 84.7533L74.2969 86.5312L74.3598 86.4988L74.4203 86.462L73.3808 84.7533ZM68.0686 85.4014L68.1753 83.4042L68.1753 83.4042L68.0686 85.4014ZM66.2675 85.34L66.1603 87.3371L66.2195 87.3403L66.2789 87.34L66.2675 85.34ZM58.4541 85.3267L58.4203 87.3264L58.4885 87.3276L58.5566 87.3241L58.4541 85.3267ZM56.5287 85.3972L56.4042 83.401L56.3834 83.4023L56.3626 83.4041L56.5287 85.3972ZM56.5286 85.3972L56.6532 87.3933L56.6739 87.392L56.6947 87.3903L56.5286 85.3972ZM51.3008 84.66L50.1678 86.3081L50.2094 86.3367L50.2524 86.3631L51.3008 84.66ZM52.0541 78.04L51.5192 76.1129L51.4251 76.139L51.334 76.1742L52.0541 78.04ZM56.5253 77.7189L56.4706 79.7181L56.4706 79.7181L56.5253 77.7189ZM58.5675 77.7333L58.6353 79.7322L60.5599 79.667L60.5675 77.7413L58.5675 77.7333ZM58.5761 62.7021L56.5761 62.7044L56.5761 62.7044L58.5761 62.7021ZM86.8217 40.9L85.0506 39.9709L85.0301 40.01L85.0113 40.05L86.8217 40.9ZM93.5217 41.1333L95.4102 40.4747L95.3808 40.3906L95.3441 40.3094L93.5217 41.1333ZM86.2552 45.635L88.2537 45.5573L88.2537 45.5573L86.2552 45.635ZM86.2617 47.9533L86.4597 49.9434L88.1366 49.7766L88.2566 48.0957L86.2617 47.9533ZM83.8886 47.9502L83.7925 49.9479L83.7925 49.9479L83.8886 47.9502ZM78.535 49.1933L77.1208 47.7791L77.0983 47.8015L77.0765 47.8247L78.535 49.1933ZM80.1817 55.42L79.5928 57.3313L79.9106 57.4292L80.2429 57.419L80.1817 55.42ZM87.355 55.5667L87.188 57.5597L87.1887 57.5597L87.355 55.5667ZM93.7915 55.5028L93.9045 57.4996L93.9045 57.4996L93.7915 55.5028ZM100.535 55.4667L100.341 57.4573L101.003 57.5216L101.571 57.1771L100.535 55.4667ZM102.255 49.7L100.588 50.8057L100.617 50.8498L100.649 50.8923L102.255 49.7ZM96.5078 47.9397L96.5978 49.9376L96.5978 49.9376L96.5078 47.9397ZM93.9017 47.9133L91.904 48.0082L91.9831 49.6754L93.6377 49.8958L93.9017 47.9133ZM93.9204 45.7148L91.9217 45.6429L91.9217 45.643L93.9204 45.7148ZM40.2279 37.7504C38.3335 36.6171 36.1635 36.9147 34.5896 37.8354C33.019 38.7541 31.7003 40.4917 31.7279 42.6721L35.7276 42.6214C35.722 42.175 36.0032 41.6426 36.6093 41.288C37.2122 40.9354 37.7954 40.9563 38.1744 41.183L40.2279 37.7504ZM43.3809 43.9844C43.4106 42.0741 42.8616 38.956 40.0407 37.6514L38.3617 41.282C38.6451 41.4131 38.8929 41.6624 39.0875 42.1293C39.2913 42.6184 39.3918 43.2561 39.3814 43.9223L43.3809 43.9844ZM43.3953 53.2667C43.4017 50.1654 43.4081 47.0516 43.3811 43.936L39.3813 43.9706C39.408 47.0612 39.4017 50.1536 39.3954 53.2585L43.3953 53.2667ZM43.3945 60.0859C43.386 57.8157 43.3907 55.5446 43.3953 53.2667L39.3954 53.2585C39.3907 55.5345 39.386 57.8171 39.3945 60.1007L43.3945 60.0859ZM43.7446 58.0928C42.8622 58.1395 42.196 58.1699 41.6148 58.1055L41.1742 62.0811C42.141 62.1883 43.148 62.13 43.9563 62.0872L43.7446 58.0928ZM50.736 60.1046C48.6078 57.7104 45.4944 58 43.7446 58.0928L43.9563 62.0871C46.1665 61.97 47.1088 62.0447 47.7464 62.7621L50.736 60.1046ZM48.4857 69.3334C50.3554 68.6143 51.5424 66.9907 51.965 65.2966C52.3889 63.5972 52.1001 61.5905 50.7146 60.0809L47.7677 62.7857C48.0955 63.1428 48.24 63.7028 48.0839 64.3284C47.9265 64.9594 47.5202 65.4191 47.0498 65.6L48.4857 69.3334ZM40.0299 69.6549C42.5857 69.4728 45.1579 69.4141 47.7271 69.4663L47.8084 65.4671C45.1244 65.4125 42.4299 65.4738 39.7456 65.6651L40.0299 69.6549ZM33.285 69.5699C35.4287 69.6846 37.7131 69.8092 40.0206 69.6556L39.7549 65.6644C37.7269 65.7994 35.6824 65.6924 33.4987 65.5756L33.285 69.5699ZM27.1146 69.476C29.1139 69.3489 31.1307 69.4546 33.285 69.5699L33.4987 65.5756C31.3836 65.4624 29.1327 65.3396 26.8609 65.484L27.1146 69.476ZM24.0099 60.416C22.7952 61.9585 22.6376 63.8014 23.0859 65.3766C23.5241 66.9163 24.5555 68.2968 25.9087 69.1639L28.0669 65.7961C27.5267 65.4499 27.1016 64.8737 26.9331 64.2818C26.7748 63.7254 26.8605 63.2615 27.1525 62.8906L24.0099 60.416ZM31.3415 58.1053C30.3412 58.0481 29.0185 57.9621 27.7616 58.1909C26.4171 58.4357 25.0306 59.0565 23.9822 60.452L27.1802 62.8546C27.4818 62.4531 27.8641 62.238 28.478 62.1262C29.1795 61.9985 30.0049 62.0354 31.1131 62.0988L31.3415 58.1053ZM31.2274 58.1021H31.2273V62.1021H31.2274V58.1021ZM33.4701 58.1305C32.8959 58.1895 32.2279 58.156 31.3416 58.1053L31.1131 62.0988C31.9235 62.1452 32.9267 62.2074 33.8789 62.1095L33.4701 58.1305ZM31.6868 52.3326C31.6955 54.9341 31.7042 57.5175 31.6746 60.0971L35.6744 60.1429C35.7043 57.5287 35.6955 54.9156 35.6867 52.3191L31.6868 52.3326ZM31.6868 52.3258V52.3259H35.6868V52.3258H31.6868ZM31.7282 42.6078C31.6649 45.8611 31.6759 49.1107 31.6868 52.3325L35.6867 52.319C35.6759 49.0896 35.6652 45.8857 35.7274 42.6856L31.7282 42.6078ZM62.8627 37.0583C59.6891 36.715 56.5716 39.3599 56.6143 42.679L60.614 42.6276C60.6035 41.8135 61.5392 40.9385 62.4324 41.0351L62.8627 37.0583ZM68.1972 43.5494C68.5131 40.4494 66.1693 37.1867 62.7279 37.0483L62.5672 41.0451C63.4324 41.0799 64.3286 42.0572 64.2179 43.144L68.1972 43.5494ZM68.209 66.2537C68.2105 58.6183 68.2119 50.982 68.2075 43.3456L64.2076 43.3479C64.2119 50.9825 64.2105 58.6172 64.209 66.2529L68.209 66.2537ZM68.2076 77.7067C68.2076 73.8891 68.2083 70.0715 68.209 66.2537L64.209 66.2529C64.2083 70.0707 64.2076 73.8887 64.2076 77.7067H68.2076ZM68.2582 75.7054C67.5469 75.7206 66.9097 75.7336 66.2889 75.7084L66.1262 79.7051C66.892 79.7362 67.6542 79.7193 68.3439 79.7045L68.2582 75.7054ZM68.3012 75.705H68.3011V79.705H68.3012V75.705ZM73.0911 76.0527C71.3821 75.6268 69.6596 75.6754 68.2584 75.7054L68.344 79.7045C69.8392 79.6725 71.0203 79.6589 72.1239 79.934L73.0911 76.0527ZM74.4203 86.462C76.5071 85.1925 77.2235 82.8858 76.9932 80.9115C76.7633 78.9409 75.5397 76.8643 73.2414 76.0964L71.9737 79.8902C72.4887 80.0623 72.9284 80.589 73.0201 81.3751C73.1114 82.1575 72.8079 82.7608 72.3414 83.0447L74.4203 86.462ZM67.9619 87.3985C69.6709 87.4899 72.0949 87.6658 74.2969 86.5312L72.4648 82.9754C71.3893 83.5296 70.1016 83.5072 68.1753 83.4042L67.9619 87.3985ZM66.2789 87.34C66.7993 87.337 67.343 87.3655 67.9619 87.3985L68.1753 83.4042C67.5785 83.3724 66.9152 83.3363 66.2562 83.34L66.2789 87.34ZM58.5566 87.3241C61.0848 87.1944 63.6215 87.2008 66.1603 87.3371L66.3748 83.3429C63.7002 83.1992 61.0234 83.1923 58.3517 83.3293L58.5566 87.3241ZM56.6533 87.3933C57.3206 87.3516 57.8868 87.3174 58.4203 87.3264L58.488 83.327C57.7681 83.3148 57.0407 83.3613 56.4042 83.401L56.6533 87.3933ZM56.6947 87.3903L56.6948 87.3902L56.3626 83.4041L56.3625 83.4041L56.6947 87.3903ZM50.2524 86.3631C52.4524 87.7175 54.9767 87.4979 56.6532 87.3933L56.404 83.401C54.4606 83.5223 53.286 83.5335 52.3493 82.9569L50.2524 86.3631ZM51.334 76.1742C49.1742 77.0078 48.0277 78.9954 47.8125 80.9063C47.5976 82.8155 48.2712 85.0042 50.1678 86.3081L52.4339 83.0119C51.9838 82.7025 51.704 82.0945 51.7874 81.3538C51.8706 80.6146 52.2741 80.0989 52.7743 79.9058L51.334 76.1742ZM56.5799 75.7196C55.1266 75.6799 53.3109 75.6155 51.5192 76.1129L52.5891 79.9671C53.7051 79.6573 54.9107 79.6755 56.4706 79.7181L56.5799 75.7196ZM58.4998 75.7345C57.8952 75.7549 57.2741 75.7386 56.5799 75.7196L56.4706 79.7181C57.1434 79.7365 57.8876 79.7575 58.6353 79.7322L58.4998 75.7345ZM56.5761 62.7044C56.5818 67.7156 56.5875 72.7209 56.5676 77.7253L60.5675 77.7413C60.5875 72.7249 60.5818 67.7094 60.5761 62.6998L56.5761 62.7044ZM56.6142 42.6374C56.5608 49.3309 56.5685 56.023 56.5761 62.7044L60.5761 62.6998C60.5684 56.0154 60.5608 49.3416 60.6141 42.6693L56.6142 42.6374ZM88.5928 41.829C88.8369 41.3638 89.3952 41.0292 90.1568 41.0577C90.9223 41.0864 91.4785 41.4687 91.6993 41.9571L95.3441 40.3094C94.3715 38.1579 92.2544 37.1335 90.3065 37.0605C88.3548 36.9874 86.1598 37.8562 85.0506 39.9709L88.5928 41.829ZM88.2537 45.5573C88.1868 43.8386 88.1808 42.7111 88.6321 41.75L85.0113 40.05C84.0761 42.0417 84.1972 44.183 84.2567 45.7127L88.2537 45.5573ZM88.2566 48.0957C88.3199 47.2088 88.2832 46.318 88.2537 45.5573L84.2567 45.7127C84.2878 46.5148 84.3117 47.1819 84.2668 47.8108L88.2566 48.0957ZM83.7925 49.9479C84.5741 49.9856 85.5327 50.0357 86.4597 49.9434L86.0637 45.9631C85.4841 46.0208 84.8311 45.9933 83.9848 45.9525L83.7925 49.9479ZM79.9492 50.6075C80.6512 49.9055 81.6512 49.8448 83.7925 49.9479L83.9848 45.9525C82.2505 45.869 79.2825 45.6173 77.1208 47.7791L79.9492 50.6075ZM80.7706 53.5086C80.261 53.3516 79.8247 52.8942 79.6495 52.231C79.4743 51.5673 79.6279 50.9514 79.9935 50.5618L77.0765 47.8247C75.6154 49.3818 75.3157 51.4859 75.7821 53.2522C76.2486 55.019 77.549 56.7016 79.5928 57.3313L80.7706 53.5086ZM87.522 53.5737C85.0372 53.3654 82.5638 53.3461 80.1205 53.4209L80.2429 57.419C82.5862 57.3473 84.8994 57.3679 87.188 57.5597L87.522 53.5737ZM93.6785 53.506C91.5096 53.6288 89.5041 53.739 87.5213 53.5736L87.1887 57.5597C89.4969 57.7524 91.7825 57.6197 93.9045 57.4996L93.6785 53.506ZM100.728 53.476C98.302 53.2404 95.9006 53.3802 93.6785 53.506L93.9045 57.4996C96.1779 57.3709 98.272 57.2563 100.341 57.4573L100.728 53.476ZM100.649 50.8923C100.932 51.2734 100.985 51.6982 100.794 52.2246C100.584 52.8052 100.097 53.3933 99.498 53.7563L101.571 57.1771C102.886 56.38 104.009 55.0948 104.555 53.587C105.121 52.0251 105.077 50.1465 103.86 48.5076L100.649 50.8923ZM96.5978 49.9376C97.749 49.8858 98.5975 49.8591 99.3074 50.0061C99.9163 50.1322 100.292 50.3602 100.588 50.8057L103.921 48.5943C102.916 47.0791 101.512 46.3777 100.119 46.0892C98.8268 45.8216 97.4524 45.8951 96.4178 45.9417L96.5978 49.9376ZM93.6377 49.8958C94.6544 50.0312 95.7351 49.9765 96.5978 49.9376L96.4178 45.9417C95.4685 45.9845 94.7627 46.0103 94.1657 45.9308L93.6377 49.8958ZM91.9217 45.643C91.8957 46.3662 91.865 47.1871 91.904 48.0082L95.8995 47.8184C95.8697 47.1925 95.892 46.5402 95.9191 45.7866L91.9217 45.643ZM91.6333 41.7919C91.9993 42.8413 91.9801 44.0178 91.9217 45.6429L95.9191 45.7866C95.9724 44.3026 96.0656 42.3541 95.4102 40.4747L91.6333 41.7919Z" fill="url(#paint3_linear_644_57)"/>
<defs>
<linearGradient id="paint0_linear_644_57" x1="97.4192" y1="11.1373" x2="11.2787" y2="116.182" gradientUnits="userSpaceOnUse">
<stop stop-color="#DE00C0"/>
<stop offset="1" stop-color="#8720FF"/>
</linearGradient>
<linearGradient id="paint1_linear_644_57" x1="97.4192" y1="11.1373" x2="11.2787" y2="116.182" gradientUnits="userSpaceOnUse">
<stop stop-color="#DE00C0"/>
<stop offset="1" stop-color="#8720FF"/>
</linearGradient>
<linearGradient id="paint2_linear_644_57" x1="39.0022" y1="79.9867" x2="78.3677" y2="22.2778" gradientUnits="userSpaceOnUse">
<stop stop-color="#FE0844"/>
<stop offset="1" stop-color="#FEB302"/>
</linearGradient>
<linearGradient id="paint3_linear_644_57" x1="39.0022" y1="79.9867" x2="78.3677" y2="22.2778" gradientUnits="userSpaceOnUse">
<stop stop-color="#FE0844"/>
<stop offset="1" stop-color="#FEB302"/>
</linearGradient>
</defs>
</svg>
