<svg width="64" height="64" viewBox="0 0 64 64" fill="none" xmlns="http://www.w3.org/2000/svg">
<path d="M52 13C52 15.6522 50.9464 18.1957 49.0711 20.0711C47.1957 21.9464 44.6522 23 42 23C39.3478 23 36.8043 21.9464 34.9289 20.0711C33.0536 18.1957 32 15.6522 32 13C32 10.3478 33.0536 7.8043 34.9289 5.92893C36.8043 4.05357 39.3478 3 42 3C44.6522 3 47.1957 4.05357 49.0711 5.92893C50.9464 7.8043 52 10.3478 52 13V13Z" fill="url(#paint0_linear_581_217)"/>
<path d="M32 13C18.7419 13 8 23.739 8 37C8 50.261 18.739 61 32 61C45.261 61 56 50.261 56 37C56 23.739 45.261 13 32 13ZM27.7076 25.6835C36.7234 25.6835 44.0967 32.9603 44.0967 41.9762C44.0967 50.992 36.723 58.3653 27.7076 58.3653C18.6918 58.3653 11.415 50.9915 11.415 41.9762C11.415 32.9603 18.6918 25.6835 27.7076 25.6835Z" fill="url(#paint1_linear_581_217)"/>
<path d="M27.1998 49.0048C27.1998 50.9144 26.4412 52.7457 25.091 54.096C23.7407 55.4462 21.9094 56.2048 19.9998 56.2048C18.0902 56.2048 16.2589 55.4462 14.9086 54.096C13.5584 52.7457 12.7998 50.9144 12.7998 49.0048C12.7998 47.0953 13.5584 45.2639 14.9086 43.9136C16.2589 42.5634 18.0902 41.8048 19.9998 41.8048C21.9094 41.8048 23.7407 42.5634 25.091 43.9136C26.4412 45.2639 27.1998 47.0953 27.1998 49.0048Z" fill="url(#paint2_linear_581_217)"/>
<defs>
<linearGradient id="paint0_linear_581_217" x1="42" y1="3" x2="42" y2="23" gradientUnits="userSpaceOnUse">
<stop stop-color="#F75050"/>
<stop offset="1" stop-color="#A00909"/>
</linearGradient>
<linearGradient id="paint1_linear_581_217" x1="32" y1="61" x2="32" y2="13" gradientUnits="userSpaceOnUse">
<stop stop-color="#5570FF"/>
<stop offset="1" stop-color="#4DD3FF"/>
</linearGradient>
<linearGradient id="paint2_linear_581_217" x1="12.8019" y1="48.7914" x2="27.2022" y2="48.7914" gradientUnits="userSpaceOnUse">
<stop stop-color="#A93AFF"/>
<stop offset="1" stop-color="#FF81FF"/>
</linearGradient>
</defs>
</svg>
