<svg width="64" height="64" viewBox="0 0 64 64" fill="none" xmlns="http://www.w3.org/2000/svg">
<path fill-rule="evenodd" clip-rule="evenodd" d="M15.5 16C15.5 11.5817 19.0817 8 23.5 8H54.5C58.9183 8 62.5 11.5817 62.5 16V48.5711C62.5 51.2217 60.6638 55.0355 56.551 55.0355H21.45C17.3376 55.0355 15.5 51.2229 15.5 48.5711V16ZM54.5 17C54.5 16.4477 54.0523 16 53.5 16L24.5 16C23.9477 16 23.5 16.4477 23.5 17V46.0355C23.5 46.5878 23.9477 47.0355 24.5 47.0355H53.5C54.0523 47.0355 54.5 46.5878 54.5 46.0355V17Z" fill="url(#paint0_linear)"/>
<path d="M10.5723 50.3764L35.5724 35.3764C37.0784 34.4728 38.0001 32.8454 38.0001 31.0891C38.0001 29.3327 37.0784 27.7054 35.5724 26.8017L10.5723 11.8017C9.02808 10.8751 7.1044 10.8504 5.53632 11.738C3.96898 12.6253 3 14.2877 3 16.0891V46.0892C3 47.8904 3.96897 49.5528 5.53661 50.4401C6.30138 50.8731 7.15103 51.0891 7.99996 51.0891C8.89096 51.0891 9.78137 50.8511 10.5723 50.3764Z" fill="#1C1C1C"/>
<path d="M10.5723 50.3764L35.5724 35.3764C37.0784 34.4728 38.0001 32.8454 38.0001 31.0891C38.0001 29.3327 37.0784 27.7054 35.5724 26.8017L10.5723 11.8017C9.02808 10.8751 7.1044 10.8504 5.53632 11.738C3.96898 12.6253 3 14.2877 3 16.0891V46.0892C3 47.8904 3.96897 49.5528 5.53661 50.4401C6.30138 50.8731 7.15103 51.0891 7.99996 51.0891C8.89096 51.0891 9.78137 50.8511 10.5723 50.3764Z" fill="url(#paint1_linear)"/>
<defs>
<linearGradient id="paint0_linear" x1="30" y1="32" x2="61" y2="32" gradientUnits="userSpaceOnUse">
<stop stop-color="#44BCFF"/>
<stop offset="1" stop-color="#0F6596"/>
</linearGradient>
<linearGradient id="paint1_linear" x1="43.0071" y1="49.2758" x2="20.5055" y2="6.02602" gradientUnits="userSpaceOnUse">
<stop stop-color="#364F6B"/>
<stop offset="0.428293" stop-color="#6B5072"/>
<stop offset="1" stop-color="#FC5185"/>
</linearGradient>
</defs>
</svg>
