<svg width="192" height="192" viewBox="0 0 192 192" fill="none" xmlns="http://www.w3.org/2000/svg">
<path d="M35 76C35 73.7909 36.7909 72 39 72H43.1579C44.4987 72 45.7503 72.6718 46.4914 73.7891L66.7352 104.312C67.7477 105.683 68.5111 106.791 69.0255 107.634C69.0412 107.659 69.069 107.675 69.0992 107.675V107.675C69.1513 107.675 69.1916 107.629 69.1847 107.577C69.1375 107.222 69.0876 106.865 69.0378 106.508C68.7961 104.78 68.5534 103.043 68.6 101.307V76C68.6 73.7909 70.3909 72 72.6 72H74.2C76.4091 72 78.2 73.7909 78.2 76V116C78.2 118.209 76.4091 120 74.2 120H70.0529C68.7149 120 67.4655 119.331 66.7238 118.217L46.7161 88.1795C45.9368 87.147 45.2466 86.0636 44.6514 84.9385C44.6328 84.9033 44.5962 84.8812 44.5564 84.8812V84.8812C44.4928 84.8812 44.4432 84.9362 44.4494 84.9995C44.6745 87.2836 44.6428 89.5768 44.6012 91.8697V116C44.6012 118.209 42.8103 120 40.6012 120H39C36.7909 120 35 118.209 35 116V76Z" fill="url(#paint0_linear_640_142)"/>
<path d="M35 76C35 73.7909 36.7909 72 39 72H43.1579C44.4987 72 45.7503 72.6718 46.4914 73.7891L66.7352 104.312C67.7477 105.683 68.5111 106.791 69.0255 107.634C69.0412 107.659 69.069 107.675 69.0992 107.675V107.675C69.1513 107.675 69.1916 107.629 69.1847 107.577C69.1375 107.222 69.0876 106.865 69.0378 106.508C68.7961 104.78 68.5534 103.043 68.6 101.307V76C68.6 73.7909 70.3909 72 72.6 72H74.2C76.4091 72 78.2 73.7909 78.2 76V116C78.2 118.209 76.4091 120 74.2 120H70.0529C68.7149 120 67.4655 119.331 66.7238 118.217L46.7161 88.1795C45.9368 87.147 45.2466 86.0636 44.6514 84.9385C44.6328 84.9033 44.5962 84.8812 44.5564 84.8812V84.8812C44.4928 84.8812 44.4432 84.9362 44.4494 84.9995C44.6745 87.2836 44.6428 89.5768 44.6012 91.8697V116C44.6012 118.209 42.8103 120 40.6012 120H39C36.7909 120 35 118.209 35 116V76Z" stroke="black" stroke-width="2"/>
<path d="M35 76C35 73.7909 36.7909 72 39 72H43.1579C44.4987 72 45.7503 72.6718 46.4914 73.7891L66.7352 104.312C67.7477 105.683 68.5111 106.791 69.0255 107.634C69.0412 107.659 69.069 107.675 69.0992 107.675V107.675C69.1513 107.675 69.1916 107.629 69.1847 107.577C69.1375 107.222 69.0876 106.865 69.0378 106.508C68.7961 104.78 68.5534 103.043 68.6 101.307V76C68.6 73.7909 70.3909 72 72.6 72H74.2C76.4091 72 78.2 73.7909 78.2 76V116C78.2 118.209 76.4091 120 74.2 120H70.0529C68.7149 120 67.4655 119.331 66.7238 118.217L46.7161 88.1795C45.9368 87.147 45.2466 86.0636 44.6514 84.9385C44.6328 84.9033 44.5962 84.8812 44.5564 84.8812V84.8812C44.4928 84.8812 44.4432 84.9362 44.4494 84.9995C44.6745 87.2836 44.6428 89.5768 44.6012 91.8697V116C44.6012 118.209 42.8103 120 40.6012 120H39C36.7909 120 35 118.209 35 116V76Z" stroke="url(#paint1_linear_640_142)" stroke-width="2"/>
<path fill-rule="evenodd" clip-rule="evenodd" d="M53.1949 24.339C56.6949 15.799 65.2549 9.57899 74.5049 9.10899C78.4779 8.9728 82.4509 8.99438 86.4239 9.01596C89.1609 9.03083 91.8979 9.0457 94.6349 9.00899C102.213 9.04672 109.787 9.0368 117.363 9.02687L117.459 9.02674C121.897 9.02092 126.335 9.01511 130.774 9.01879C135.093 9.05701 139.411 9.04433 143.73 9.03164L143.788 9.03147C147.36 9.02098 150.932 9.01049 154.504 9.02856C158.104 8.97856 161.604 9.9386 164.974 11.0986C170.284 13.9486 175.024 18.1686 177.404 23.7986C179.701 28.6258 179.672 33.9937 179.644 39.249V39.2571L179.643 39.4283C179.638 40.3837 179.634 41.3351 179.644 42.2786C179.579 49.2236 179.604 56.1715 179.629 63.1197V63.1242C179.665 73.1625 179.701 83.2007 179.465 93.2283C177.128 96.7662 174.383 99.9962 171.639 103.225L171.623 103.244L171.553 103.326C170.557 104.499 169.56 105.671 168.585 106.858C168.554 110.515 168.516 114.174 168.478 117.833L168.478 117.857V117.886L168.477 117.914V117.918C168.416 123.826 168.355 129.737 168.324 135.649C168.273 138.1 168.301 140.556 168.329 143.012V143.013C168.393 148.613 168.457 154.215 167.574 159.769C167.813 136.734 167.785 113.695 167.757 90.6561V90.6541C167.738 74.9862 167.72 59.3172 167.784 43.6486C167.768 42.5354 167.784 41.412 167.8 40.285V40.2837L167.801 40.1765V40.1732L167.801 40.1714C167.865 35.7467 167.93 31.2684 166.164 27.1286C164.314 24.8586 162.074 22.9286 159.554 21.4486C156.254 20.7586 152.884 20.6986 149.534 20.7086C144.559 20.7371 139.584 20.7396 134.608 20.7421L134.552 20.7421C130.806 20.7439 127.061 20.7457 123.315 20.7586C116.904 20.7326 110.492 20.7365 104.081 20.7405L103.877 20.7407C98.0367 20.7442 92.1958 20.7478 86.355 20.7288C85.035 20.7568 83.7063 20.7318 82.3759 20.7065C78.9494 20.6415 75.5098 20.5763 72.1749 21.419C68.6049 22.379 65.9549 25.229 64.2149 28.359C62.7225 33.4249 62.9051 38.7191 63.0873 44.0021C63.1774 46.6132 63.2673 49.2216 63.1549 51.7981C65.9982 51.9114 68.8501 51.8707 71.7018 51.83L71.7038 51.83C76.4036 51.7629 81.1035 51.6958 85.7644 52.3181C89.9644 53.1381 93.6144 55.7084 96.5144 58.7784C101.274 64.5729 101.102 71.9374 100.935 79.1056L100.935 79.1074L100.935 79.127C100.886 81.2294 100.837 83.3147 100.914 85.3383C100.906 90.427 100.913 95.5161 100.92 100.605L100.921 101.201C100.929 107.363 100.936 113.526 100.915 119.689C100.935 123.419 99.9547 127.079 98.3046 130.409C94.7847 135.259 89.4846 139.129 83.3447 139.509C78.7559 139.72 74.1579 139.68 69.5601 139.641L69.5045 139.64L69.5003 139.64H69.499C67.3638 139.621 65.2289 139.602 63.0948 139.609C63.0948 140.289 63.0848 141.658 63.0748 142.338C63.1187 144.451 63.0929 146.567 63.0671 148.683C63.0225 152.344 62.9779 156.004 63.2948 159.648C63.8248 164.428 67.4848 168.168 71.7248 170.058C69.2448 173.148 67.6348 176.788 66.1048 180.408C60.7948 177.928 56.4348 173.658 53.6948 168.498C52.5448 166.078 51.8348 163.478 51.4548 160.838C51.2219 156.617 51.2742 152.393 51.3265 148.169L51.3267 148.16L51.3268 148.15C51.362 145.305 51.3971 142.461 51.3449 139.619C48.597 139.525 45.8336 139.584 43.0689 139.644H43.0645L43.0533 139.644C37.2412 139.768 31.4237 139.892 25.7349 138.599C21.7349 136.818 18.2447 133.979 15.7547 130.369C12.8177 125.386 12.9313 119.653 13.0429 114.025L13.0432 114.012C13.0754 112.381 13.1074 110.761 13.0647 109.169C13.068 104.887 13.0603 100.604 13.0526 96.3227V96.3186C13.037 87.753 13.0215 79.1885 13.0948 70.6287C13.1548 61.0587 21.3048 52.4587 30.8648 51.9387C35.2563 51.7835 39.652 51.8124 44.0466 51.8413L44.0531 51.8413C46.451 51.8571 48.8485 51.8728 51.2448 51.8587C51.3905 49.0256 51.3037 46.1454 51.2166 43.2589C51.0229 36.8337 50.8282 30.3764 53.1949 24.339ZM77.39 52.7928C76.6371 52.8507 75.884 52.9087 75.1305 52.9633C75.8835 52.9087 76.6362 52.851 77.3887 52.7931L77.39 52.7928ZM68.2944 63.7081C64.3321 63.7031 60.3722 63.7031 56.4136 63.7031H56.3954C52.4379 63.7031 48.4816 63.7031 44.5252 63.6981C42.9825 63.7317 41.4349 63.7051 39.8873 63.6779C36.8204 63.6239 33.7521 63.57 30.7148 63.9887C27.8748 64.3587 26.1648 66.8887 25.0248 69.2687C25.0883 75.9198 25.0527 82.5751 25.0171 89.2309C24.9574 100.387 24.8977 111.546 25.3048 122.689C26.2648 125.699 29.2245 127.509 32.2644 127.789C38.7626 127.773 45.2628 127.777 51.7635 127.782L52.1814 127.782C62.0478 127.788 71.9163 127.794 81.7849 127.729C85.9649 127.719 89.2846 123.829 88.9346 119.719C88.9317 114.723 88.9428 109.727 88.9539 104.732C88.9802 92.8679 89.0065 81.0034 88.8447 69.1397L88.8444 69.1383C88.7936 68.993 88.7256 68.7963 88.6529 68.586L88.6504 68.5789L88.647 68.5691C88.5211 68.2047 88.3822 67.8029 88.2944 67.5584C86.7944 65.7784 84.9344 63.9884 82.4644 63.8584C79.4069 63.5922 76.3367 63.6379 73.2676 63.6836C71.6091 63.7082 69.9501 63.7327 68.2944 63.7081Z" fill="url(#paint2_linear_640_142)"/>
<path d="M171.623 103.244L171.623 103.245L171.469 103.426L171.467 103.428C170.5 104.567 169.532 105.706 168.585 106.858C168.554 110.52 168.517 114.182 168.479 117.846L168.478 117.886L168.477 117.914V117.918C168.416 123.826 168.355 129.737 168.324 135.649C168.273 138.1 168.301 140.557 168.329 143.013C168.393 148.613 168.457 154.215 167.574 159.769C166.724 165.269 161.976 169.998 156.386 170.538C153.933 170.754 151.477 170.724 149.02 170.694H149.019L148.93 170.693C147.549 170.676 146.167 170.66 144.786 170.688L144.782 170.689C130.953 170.64 117.129 170.659 103.302 170.679L100.748 170.682C95.6709 170.689 90.5936 170.696 85.5157 170.699C84.4916 170.689 83.4651 170.701 82.4378 170.712L82.3015 170.714C78.7597 170.755 75.2094 170.795 71.7248 170.058C69.2448 173.148 67.6348 176.788 66.1048 180.408C68.4048 181.248 70.7557 182.029 73.2057 182.229L73.2077 182.228C90.2798 182.499 107.364 182.473 124.447 182.446H124.45C134.473 182.43 144.496 182.414 154.516 182.458C163.266 182.648 171.626 177.658 176.166 170.268C179.026 165.598 179.766 160.018 179.636 154.628C179.584 146.519 179.605 138.407 179.626 130.293V130.281C179.658 117.929 179.688 105.575 179.465 93.2283C177.128 96.7662 174.383 99.9962 171.639 103.225L171.623 103.244Z" fill="url(#paint3_linear_640_142)"/>
<path d="M113 61C113 59.3431 114.343 58 116 58H146C147.657 58 149 59.3431 149 61V70C149 71.6569 147.657 73 146 73H116C114.343 73 113 71.6569 113 70V61Z" fill="url(#paint4_linear_640_142)"/>
<path d="M116 88C114.343 88 113 89.3431 113 91V100C113 101.657 114.343 103 116 103H146C147.657 103 149 101.657 149 100V91C149 89.3431 147.657 88 146 88H116Z" fill="url(#paint5_linear_640_142)"/>
<path d="M116 118C114.343 118 113 119.343 113 121V130C113 131.657 114.343 133 116 133H146C147.657 133 149 131.657 149 130V121C149 119.343 147.657 118 146 118H116Z" fill="url(#paint6_linear_640_142)"/>
<path d="M179.465 93.2283C179.701 83.2007 179.665 73.1625 179.629 63.1242V63.1197C179.604 56.1715 179.579 49.2236 179.644 42.2786C179.634 41.3351 179.638 40.3837 179.643 39.4283L179.644 39.2571V39.249C179.672 33.9937 179.701 28.6258 177.404 23.7986C175.024 18.1686 170.284 13.9486 164.974 11.0986C161.604 9.9386 158.104 8.97856 154.504 9.02856C150.932 9.01049 147.36 9.02098 143.788 9.03147L143.73 9.03164C139.411 9.04433 135.093 9.05701 130.774 9.01879C126.335 9.01511 121.897 9.02092 117.459 9.02674L117.363 9.02687C109.787 9.0368 102.213 9.04672 94.6349 9.00899C91.8979 9.0457 89.1609 9.03083 86.4239 9.01596C82.4509 8.99438 78.4779 8.9728 74.5049 9.10899C65.2549 9.57899 56.6949 15.799 53.1949 24.339C50.8282 30.3764 51.0229 36.8337 51.2166 43.2589C51.3037 46.1454 51.3905 49.0256 51.2448 51.8587C48.8485 51.8728 46.451 51.8571 44.0531 51.8413L44.0466 51.8413C39.652 51.8124 35.2563 51.7835 30.8648 51.9387C21.3048 52.4587 13.1548 61.0587 13.0948 70.6287C13.0215 79.1885 13.037 87.753 13.0526 96.3186V96.3227C13.0603 100.604 13.068 104.887 13.0647 109.169C13.1074 110.761 13.0754 112.381 13.0432 114.012L13.0429 114.025C12.9313 119.653 12.8177 125.386 15.7547 130.369C18.2447 133.979 21.7349 136.818 25.7349 138.599C31.4237 139.892 37.2412 139.768 43.0533 139.644L43.0645 139.644H43.0689C45.8336 139.584 48.597 139.525 51.3449 139.619C51.3971 142.461 51.362 145.305 51.3268 148.15L51.3267 148.16L51.3265 148.169C51.2742 152.393 51.2219 156.617 51.4548 160.838C51.8348 163.478 52.5448 166.078 53.6948 168.498C56.4348 173.658 60.7948 177.928 66.1048 180.408M179.465 93.2283C177.128 96.7662 174.383 99.9962 171.639 103.225L171.623 103.244M179.465 93.2283C179.688 105.575 179.658 117.929 179.626 130.281V130.293C179.605 138.407 179.584 146.519 179.636 154.628C179.766 160.018 179.026 165.598 176.166 170.268C171.626 177.658 163.266 182.648 154.516 182.458C144.496 182.414 134.473 182.43 124.45 182.446H124.447C107.364 182.473 90.2798 182.499 73.2077 182.228L73.2057 182.229C70.7557 182.029 68.4048 181.248 66.1048 180.408M171.623 103.244L171.553 103.326C170.557 104.499 169.56 105.671 168.585 106.858M171.623 103.244L171.623 103.245L171.469 103.426L171.467 103.428C170.5 104.567 169.532 105.706 168.585 106.858M168.585 106.858C168.554 110.515 168.516 114.174 168.478 117.833L168.478 117.857V117.886M168.585 106.858C168.554 110.52 168.517 114.182 168.479 117.846L168.478 117.886M168.478 117.886L168.477 117.914V117.918C168.416 123.826 168.355 129.737 168.324 135.649M168.324 135.649C168.273 138.1 168.301 140.556 168.329 143.012V143.013M168.324 135.649C168.273 138.1 168.301 140.557 168.329 143.013M168.329 143.013C168.393 148.613 168.457 154.215 167.574 159.769M167.574 159.769C167.813 136.734 167.785 113.695 167.757 90.6561V90.6541C167.738 74.9862 167.72 59.3172 167.784 43.6486C167.768 42.5354 167.784 41.412 167.8 40.285V40.2837L167.801 40.1765V40.1732L167.801 40.1714C167.865 35.7467 167.93 31.2684 166.164 27.1286C164.314 24.8586 162.074 22.9286 159.554 21.4486C156.254 20.7586 152.884 20.6986 149.534 20.7086C144.559 20.7371 139.584 20.7396 134.608 20.7421L134.552 20.7421C130.806 20.7439 127.061 20.7457 123.315 20.7586C116.904 20.7326 110.492 20.7365 104.081 20.7405L103.877 20.7407C98.0367 20.7442 92.1958 20.7478 86.355 20.7288C85.035 20.7568 83.7063 20.7318 82.3759 20.7065C78.9494 20.6415 75.5098 20.5763 72.1749 21.419C68.6049 22.379 65.9549 25.229 64.2149 28.359C62.7225 33.4249 62.9051 38.7191 63.0873 44.0021C63.1774 46.6132 63.2673 49.2216 63.1549 51.7981C65.9982 51.9114 68.8501 51.8707 71.7018 51.83L71.7038 51.83C76.4036 51.7629 81.1035 51.6958 85.7644 52.3181C89.9644 53.1381 93.6144 55.7084 96.5144 58.7784C101.274 64.5729 101.102 71.9374 100.935 79.1056L100.935 79.1074L100.935 79.127C100.886 81.2294 100.837 83.3147 100.914 85.3383C100.906 90.427 100.913 95.5161 100.92 100.605L100.921 101.201C100.929 107.363 100.936 113.526 100.915 119.689C100.935 123.419 99.9547 127.079 98.3046 130.409C94.7847 135.259 89.4846 139.129 83.3447 139.509C78.7559 139.72 74.1579 139.68 69.5601 139.641L69.5045 139.64L69.5003 139.64H69.499C67.3638 139.621 65.2289 139.602 63.0948 139.609C63.0948 140.289 63.0848 141.658 63.0748 142.338C63.1187 144.451 63.0929 146.567 63.0671 148.683C63.0225 152.344 62.9779 156.004 63.2948 159.648C63.8248 164.428 67.4848 168.168 71.7248 170.058M167.574 159.769C166.724 165.269 161.976 169.998 156.386 170.538C153.933 170.754 151.477 170.724 149.02 170.694H149.019L148.93 170.693C147.549 170.676 146.167 170.66 144.786 170.688L144.782 170.689C130.953 170.64 117.129 170.659 103.302 170.679L100.748 170.682C95.6709 170.689 90.5936 170.696 85.5157 170.699C84.4916 170.689 83.4651 170.701 82.4378 170.712L82.3015 170.714C78.7597 170.755 75.2094 170.795 71.7248 170.058M71.7248 170.058C69.2448 173.148 67.6348 176.788 66.1048 180.408M75.1305 52.9633C75.884 52.9087 76.6371 52.8507 77.39 52.7928L77.3887 52.7931C76.6362 52.851 75.8835 52.9087 75.1305 52.9633ZM56.4136 63.7031C60.3722 63.7031 64.3321 63.7031 68.2944 63.7081C69.9501 63.7327 71.6091 63.7082 73.2676 63.6836C76.3367 63.6379 79.4069 63.5922 82.4644 63.8584C84.9344 63.9884 86.7944 65.7784 88.2944 67.5584C88.3822 67.8029 88.5211 68.2047 88.647 68.5691L88.6504 68.5789L88.6529 68.586C88.7256 68.7963 88.7936 68.993 88.8444 69.1383L88.8447 69.1397C89.0065 81.0034 88.9802 92.8679 88.9539 104.732C88.9428 109.727 88.9317 114.723 88.9346 119.719C89.2846 123.829 85.9649 127.719 81.7849 127.729C71.9163 127.794 62.0478 127.788 52.1814 127.782L51.7635 127.782C45.2628 127.777 38.7626 127.773 32.2644 127.789C29.2245 127.509 26.2648 125.699 25.3048 122.689C24.8977 111.546 24.9574 100.387 25.0171 89.2309C25.0527 82.5751 25.0883 75.9198 25.0248 69.2687C26.1648 66.8887 27.8748 64.3587 30.7148 63.9887C33.7521 63.57 36.8204 63.6239 39.8873 63.6779C41.4349 63.7051 42.9825 63.7317 44.5252 63.6981C48.4816 63.7031 52.4379 63.7031 56.3954 63.7031H56.4136ZM116 58C114.343 58 113 59.3431 113 61V70C113 71.6569 114.343 73 116 73H146C147.657 73 149 71.6569 149 70V61C149 59.3431 147.657 58 146 58H116ZM113 91C113 89.3431 114.343 88 116 88H146C147.657 88 149 89.3431 149 91V100C149 101.657 147.657 103 146 103H116C114.343 103 113 101.657 113 100V91ZM113 121C113 119.343 114.343 118 116 118H146C147.657 118 149 119.343 149 121V130C149 131.657 147.657 133 146 133H116C114.343 133 113 131.657 113 130V121Z" stroke="url(#paint7_linear_640_142)" stroke-width="3"/>
<defs>
<linearGradient id="paint0_linear_640_142" x1="56.6" y1="120" x2="56.6" y2="72" gradientUnits="userSpaceOnUse">
<stop stop-color="#A93AFF"/>
<stop offset="1" stop-color="#FF81FF"/>
</linearGradient>
<linearGradient id="paint1_linear_640_142" x1="56.6" y1="120" x2="56.6" y2="72" gradientUnits="userSpaceOnUse">
<stop stop-color="#A93AFF"/>
<stop offset="1" stop-color="#FF81FF"/>
</linearGradient>
<linearGradient id="paint2_linear_640_142" x1="131" y1="133" x2="131" y2="58" gradientUnits="userSpaceOnUse">
<stop stop-color="#A93AFF"/>
<stop offset="1" stop-color="#FF81FF"/>
</linearGradient>
<linearGradient id="paint3_linear_640_142" x1="131" y1="133" x2="131" y2="58" gradientUnits="userSpaceOnUse">
<stop stop-color="#A93AFF"/>
<stop offset="1" stop-color="#FF81FF"/>
</linearGradient>
<linearGradient id="paint4_linear_640_142" x1="131" y1="133" x2="131" y2="58" gradientUnits="userSpaceOnUse">
<stop stop-color="#A93AFF"/>
<stop offset="1" stop-color="#FF81FF"/>
</linearGradient>
<linearGradient id="paint5_linear_640_142" x1="131" y1="133" x2="131" y2="58" gradientUnits="userSpaceOnUse">
<stop stop-color="#A93AFF"/>
<stop offset="1" stop-color="#FF81FF"/>
</linearGradient>
<linearGradient id="paint6_linear_640_142" x1="131" y1="133" x2="131" y2="58" gradientUnits="userSpaceOnUse">
<stop stop-color="#A93AFF"/>
<stop offset="1" stop-color="#FF81FF"/>
</linearGradient>
<linearGradient id="paint7_linear_640_142" x1="131" y1="133" x2="131" y2="58" gradientUnits="userSpaceOnUse">
<stop stop-color="#A93AFF"/>
<stop offset="1" stop-color="#FF81FF"/>
</linearGradient>
</defs>
</svg>
