<svg width="128" height="128" viewBox="0 0 128 128" fill="none" xmlns="http://www.w3.org/2000/svg">
<path d="M121.193 62.8706L116.562 59.7803V17.25C116.562 15.3272 115.799 13.4831 114.439 12.1235C113.079 10.7638 111.235 10 109.312 10H45.875C43.9522 10 42.1081 10.7638 40.7485 12.1235C39.3888 13.4831 38.625 15.3272 38.625 17.25V34.4688H11.5553C10.0827 34.4711 8.67106 35.0572 7.62976 36.0985C6.58845 37.1398 6.00239 38.5514 6 40.0241V88.7259C6.00239 90.1986 6.58845 91.6102 7.62976 92.6515C8.67106 93.6928 10.0827 94.2789 11.5553 94.2812H33.1875V111.5C33.1875 113.423 33.9513 115.267 35.311 116.627C36.6706 117.986 38.5147 118.75 40.4375 118.75H114.75C116.673 118.75 118.517 117.986 119.877 116.627C121.236 115.267 122 113.423 122 111.5V64.375C121.999 64.0773 121.926 63.7843 121.785 63.5219C121.644 63.2595 121.441 63.0359 121.193 62.8706ZM118.375 65.3447V66.9397L116.562 68V64.1394L118.375 65.3447ZM42.25 17.25C42.25 16.2886 42.6319 15.3666 43.3117 14.6867C43.9916 14.0069 44.9136 13.625 45.875 13.625H109.312C110.274 13.625 111.196 14.0069 111.876 14.6867C112.556 15.3666 112.938 16.2886 112.938 17.25V70.0119L78.5453 89.4509L65.8125 81.4941V40.0241C65.8101 38.5514 65.224 37.1398 64.1827 36.0985C63.1414 35.0572 61.7298 34.4711 60.2572 34.4688H42.25V17.25ZM9.625 88.7259V40.0241C9.62738 39.5128 9.83152 39.0232 10.193 38.6618C10.5545 38.3003 11.0441 38.0961 11.5553 38.0938H60.2572C60.7684 38.0961 61.258 38.3003 61.6195 38.6618C61.981 39.0232 62.1851 39.5128 62.1875 40.0241V88.7259C62.1851 89.2372 61.981 89.7268 61.6195 90.0882C61.258 90.4497 60.7684 90.6539 60.2572 90.6562H11.5553C11.0441 90.6539 10.5545 90.4497 10.193 90.0882C9.83152 89.7268 9.62738 89.2372 9.625 88.7259ZM114.75 115.125H40.4375C39.4761 115.125 38.5541 114.743 37.8742 114.063C37.1944 113.383 36.8125 112.461 36.8125 111.5V94.2812H60.2572C61.7298 94.2789 63.1414 93.6928 64.1827 92.6515C65.224 91.6102 65.8101 90.1986 65.8125 88.7259V85.7716L77.5394 93.1031C77.8149 93.2622 78.1275 93.346 78.4456 93.346C78.7638 93.346 79.0763 93.2622 79.3519 93.1031L118.321 71.0722V111.5C118.321 112.452 117.946 113.366 117.278 114.044C116.61 114.723 115.702 115.111 114.75 115.125Z" fill="url(#paint0_linear_641_42)"/>
<path fill-rule="evenodd" clip-rule="evenodd" d="M39.3343 10.7093C41.069 8.97455 43.4217 8 45.875 8H109.312C111.766 8 114.119 8.97455 115.853 10.7093C117.588 12.444 118.562 14.7967 118.562 17.25V58.7105L122.303 61.2069C122.824 61.5544 123.252 62.025 123.548 62.5769C123.843 63.1288 123.999 63.7451 124 64.3713V111.5C124 113.953 123.025 116.306 121.291 118.041C119.556 119.775 117.203 120.75 114.75 120.75H40.4375C37.9842 120.75 35.6315 119.775 33.8968 118.041C32.1621 116.306 31.1875 113.953 31.1875 111.5V96.2812H11.5521C9.55013 96.278 7.63112 95.4813 6.21554 94.0657C4.79996 92.6501 4.00326 90.7311 4 88.7292V40.0208C4.00326 38.0189 4.79996 36.0999 6.21554 34.6843C7.63112 33.2687 9.55013 32.472 11.5521 32.4688L11.5553 32.4687L36.625 32.4688V17.25C36.625 14.7967 37.5996 12.444 39.3343 10.7093ZM8 88.7241V40.0259V40.0241M7.625 88.7233L6 88.7259H7.62498L7.62502 88.7353C7.62986 89.7737 8.04451 90.7682 8.77879 91.5025C9.51307 92.2367 10.5076 92.6514 11.546 92.6562M45.875 15.625C45.444 15.625 45.0307 15.7962 44.7259 16.101C44.4212 16.4057 44.25 16.819 44.25 17.25V32.4688H60.2604C62.2624 32.472 64.1814 33.2687 65.597 34.6843C67.0125 36.0999 67.8092 38.0189 67.8125 40.0208V40.0241V80.3855L77.588 86.4943C78.2096 86.8827 78.9939 86.9 79.632 86.5394L110.938 68.8449V17.25C110.938 16.819 110.766 16.4057 110.462 16.101C110.157 15.7962 109.743 15.625 109.312 15.625H45.875ZM11.625 44.0937C11.625 41.8846 13.4159 40.0938 15.625 40.0938H56.1875C58.3966 40.0938 60.1875 41.8846 60.1875 44.0938V84.6563C60.1875 86.8654 58.3966 88.6562 56.1875 88.6562H15.625C13.4159 88.6562 11.625 86.8654 11.625 84.6562V44.0937ZM116.321 74.5004L80.3519 94.8352C80.3486 94.8371 80.3453 94.839 80.342 94.8408C79.7649 95.1718 79.1111 95.346 78.4456 95.346C77.7764 95.346 77.1189 95.1698 76.5394 94.8352L76.5089 94.8176L67.7848 89.3634C67.6331 91.1328 66.8623 92.8004 65.597 94.0657C64.1814 95.4813 62.2624 96.278 60.2604 96.2812H38.8125V111.5C38.8125 111.931 38.9837 112.344 39.2884 112.649C39.5932 112.954 40.0065 113.125 40.4375 113.125H114.732C115.154 113.116 115.557 112.942 115.853 112.641C116.153 112.337 116.321 111.927 116.321 111.5V74.5004Z" fill="url(#paint1_linear_641_42)"/>
<path d="M6 88.7259V40.0241C6.00239 38.5514 6.58845 37.1398 7.62976 36.0985C8.67106 35.0572 10.0827 34.4711 11.5553 34.4688H38.625V17.25C38.625 15.3272 39.3888 13.4831 40.7485 12.1235C42.1081 10.7638 43.9522 10 45.875 10H109.312C111.235 10 113.079 10.7638 114.439 12.1235C115.799 13.4831 116.562 15.3272 116.562 17.25V59.7803L121.193 62.8706C121.441 63.0359 121.644 63.2595 121.785 63.5219C121.926 63.7843 121.999 64.0773 122 64.375V111.5C122 113.423 121.236 115.267 119.877 116.627C118.517 117.986 116.673 118.75 114.75 118.75H40.4375C38.5147 118.75 36.6706 117.986 35.311 116.627C33.9513 115.267 33.1875 113.423 33.1875 111.5V94.2812H11.5553C10.0827 94.2789 8.67106 93.6928 7.62976 92.6515C6.58845 91.6102 6.00239 90.1986 6 88.7259ZM6 88.7259L7.625 88.7233L11.546 92.6562C10.5076 92.6514 9.51307 92.2367 8.77879 91.5025C8.04451 90.7682 7.62986 89.7737 7.62502 88.7353L7.62498 88.7259H6ZM118.375 65.3447V66.9397L116.562 68V64.1394L118.375 65.3447ZM42.25 17.25C42.25 16.2886 42.6319 15.3666 43.3117 14.6867C43.9916 14.0069 44.9136 13.625 45.875 13.625H109.312C110.274 13.625 111.196 14.0069 111.876 14.6867C112.556 15.3666 112.938 16.2886 112.938 17.25V70.0119L78.5453 89.4509L65.8125 81.4941V40.0241C65.8101 38.5514 65.224 37.1398 64.1827 36.0985C63.1414 35.0572 61.7298 34.4711 60.2572 34.4688H42.25V17.25ZM9.625 88.7259V40.0241C9.62738 39.5128 9.83152 39.0232 10.193 38.6618C10.5545 38.3003 11.0441 38.0961 11.5553 38.0938H60.2572C60.7684 38.0961 61.258 38.3003 61.6195 38.6618C61.981 39.0232 62.1851 39.5128 62.1875 40.0241V88.7259C62.1851 89.2372 61.981 89.7268 61.6195 90.0882C61.258 90.4497 60.7684 90.6539 60.2572 90.6562H11.5553C11.0441 90.6539 10.5545 90.4497 10.193 90.0882C9.83152 89.7268 9.62738 89.2372 9.625 88.7259ZM114.75 115.125H40.4375C39.4761 115.125 38.5541 114.743 37.8742 114.063C37.1944 113.383 36.8125 112.461 36.8125 111.5V94.2812H60.2572C61.7298 94.2789 63.1414 93.6928 64.1827 92.6515C65.224 91.6102 65.8101 90.1986 65.8125 88.7259V85.7716L77.5394 93.1031C77.8149 93.2622 78.1275 93.346 78.4456 93.346C78.7638 93.346 79.0763 93.2622 79.3519 93.1031L118.321 71.0722V111.5C118.321 112.452 117.946 113.366 117.278 114.044C116.61 114.723 115.702 115.111 114.75 115.125ZM45.875 8C43.4217 8 41.069 8.97455 39.3343 10.7093C37.5996 12.444 36.625 14.7967 36.625 17.25V32.4688L11.5553 32.4687L11.5521 32.4688C9.55013 32.472 7.63112 33.2687 6.21554 34.6843C4.79996 36.0999 4.00326 38.0189 4 40.0208V88.7292C4.00326 90.7311 4.79996 92.6501 6.21554 94.0657C7.63112 95.4813 9.55013 96.278 11.5521 96.2812H31.1875V111.5C31.1875 113.953 32.1621 116.306 33.8968 118.041C35.6315 119.775 37.9842 120.75 40.4375 120.75H114.75C117.203 120.75 119.556 119.775 121.291 118.041C123.025 116.306 124 113.953 124 111.5V64.3713C123.999 63.7451 123.843 63.1288 123.548 62.5769C123.252 62.025 122.824 61.5544 122.303 61.2069L118.562 58.7105V17.25C118.562 14.7967 117.588 12.444 115.853 10.7093C114.119 8.97455 111.766 8 109.312 8H45.875ZM8 88.7241V40.0259V40.0241V88.7241ZM44.7259 16.101C45.0307 15.7962 45.444 15.625 45.875 15.625H109.312C109.743 15.625 110.157 15.7962 110.462 16.101C110.766 16.4057 110.938 16.819 110.938 17.25V68.8449L79.632 86.5394C78.9939 86.9 78.2096 86.8827 77.588 86.4943L67.8125 80.3855V40.0241V40.0208C67.8092 38.0189 67.0125 36.0999 65.597 34.6843C64.1814 33.2687 62.2624 32.472 60.2604 32.4688H44.25V17.25C44.25 16.819 44.4212 16.4057 44.7259 16.101ZM80.3519 94.8352L116.321 74.5004V111.5C116.321 111.927 116.153 112.337 115.853 112.641C115.557 112.942 115.154 113.116 114.732 113.125H40.4375C40.0065 113.125 39.5932 112.954 39.2884 112.649C38.9837 112.344 38.8125 111.931 38.8125 111.5V96.2812H60.2604C62.2624 96.278 64.1814 95.4813 65.597 94.0657C66.8623 92.8004 67.6331 91.1328 67.7848 89.3634L76.5089 94.8176L76.5394 94.8352C77.1189 95.1698 77.7764 95.346 78.4456 95.346C79.1111 95.346 79.7649 95.1718 80.342 94.8408C80.3453 94.839 80.3486 94.8371 80.3519 94.8352ZM15.625 88.6562H56.1875C58.3966 88.6562 60.1875 86.8654 60.1875 84.6563V44.0938C60.1875 41.8846 58.3966 40.0938 56.1875 40.0938H15.625C13.4159 40.0938 11.625 41.8846 11.625 44.0937V84.6562C11.625 86.8654 13.4159 88.6562 15.625 88.6562Z" stroke="url(#paint2_linear_641_42)" stroke-width="3"/>
<path d="M36.0574 46.0062C33.8854 45.9473 31.723 46.3093 29.6962 47.0711C27.6695 47.8329 25.8189 48.9793 24.2522 50.4435C20.8639 53.7196 19 58.5345 19 64.0008C19 69.4671 20.8639 74.2821 24.2522 77.5581C25.7931 79.0139 27.6171 80.1561 29.6175 80.918C31.6179 81.68 33.7544 82.0462 35.9022 81.9953H36.0574C46.2609 81.9387 53.1052 74.7069 53.1052 64.0008C53.1052 53.2947 46.2609 46.0628 36.0574 46.0062ZM36.0574 78.2189H35.9603C34.3146 78.2703 32.6749 78.0011 31.1377 77.4271C29.6005 76.8532 28.1968 75.9861 27.0093 74.8768C24.359 72.3183 22.9028 68.4569 22.9028 64.0008C22.9028 59.5446 24.359 55.6833 27.0093 53.1247C28.1968 52.0154 29.6005 51.1483 31.1377 50.5744C32.6749 50.0004 34.3146 49.7312 35.9603 49.7826H36.0574C44.0571 49.8299 49.2316 55.4473 49.2316 64.0008C49.2316 72.5544 44.0473 78.1623 36.0574 78.2189Z" fill="url(#paint3_linear_641_42)" stroke="url(#paint4_linear_641_42)" stroke-width="4"/>
<defs>
<linearGradient id="paint0_linear_641_42" x1="4" y1="79" x2="107.5" y2="80.5" gradientUnits="userSpaceOnUse">
<stop stop-color="#5558FF"/>
<stop offset="1" stop-color="#6CDBFF"/>
</linearGradient>
<linearGradient id="paint1_linear_641_42" x1="4" y1="79" x2="107.5" y2="80.5" gradientUnits="userSpaceOnUse">
<stop stop-color="#5558FF"/>
<stop offset="1" stop-color="#6CDBFF"/>
</linearGradient>
<linearGradient id="paint2_linear_641_42" x1="4" y1="74.5" x2="109" y2="75.5" gradientUnits="userSpaceOnUse">
<stop stop-color="#5558FF"/>
<stop offset="1" stop-color="#6CDBFF"/>
</linearGradient>
<linearGradient id="paint3_linear_641_42" x1="19" y1="66.8421" x2="49.7894" y2="67.3158" gradientUnits="userSpaceOnUse">
<stop stop-color="#5558FF"/>
<stop offset="1" stop-color="#6CDBFF"/>
</linearGradient>
<linearGradient id="paint4_linear_641_42" x1="19" y1="64" x2="49.3157" y2="64" gradientUnits="userSpaceOnUse">
<stop stop-color="#5558FF"/>
<stop offset="1" stop-color="#6CDBFF"/>
</linearGradient>
</defs>
</svg>
