<svg width="192" height="192" viewBox="0 0 192 192" fill="none" xmlns="http://www.w3.org/2000/svg">
<path opacity="0.28" d="M96.0701 68.84C97.3801 77.83 96.3701 86.95 96.6701 96C96.3601 105.08 97.3701 114.24 96.0701 123.28C96.1201 105.13 96.1201 86.98 96.0701 68.84Z" fill="#2B0914"/>
<path d="M8.5801 71.01C8.6201 61.67 16.4401 53.07 25.7901 52.37C37.8701 53.4 49.9901 52.55 62.0901 52.7C59.6201 56.44 57.1401 60.17 54.7801 63.98C47.8501 64 40.9301 64.02 34.0101 63.96C30.9301 63.95 27.8001 63.88 24.8201 64.74C21.2301 66.27 20.1601 70.4 20.4301 73.97C20.6201 90.35 20.1701 106.75 20.6801 123.12C19.6401 119.84 19.6001 116.38 19.5001 112.98C15.7001 117.37 12.0701 122 9.8301 127.41L9.5601 128C9.0801 125.01 8.4601 122.03 8.5301 118.98C8.5901 102.99 8.4801 87 8.5801 71.01Z" fill="url(#paint0_linear)"/>
<path d="M62.0901 52.7C68.4701 52.76 74.8501 52.41 81.2201 52.69C86.9901 53.93 91.8901 58.07 94.4301 63.35C91.3301 66.68 88.4901 70.24 85.6801 73.81C85.1801 72.5 84.6801 71.19 84.1601 69.89C83.3601 67.54 81.7601 65.32 79.3101 64.55C71.2001 63.35 62.9501 64.28 54.7801 63.98C57.1401 60.17 59.6201 56.44 62.0901 52.7Z" fill="url(#paint1_linear)"/>
<path d="M85.6801 73.81C88.4901 70.24 91.3301 66.68 94.4301 63.35C95.1301 65.13 95.7501 66.95 96.0701 68.84C96.1201 86.98 96.1201 105.13 96.0701 123.28C95.7101 125.59 94.9601 127.83 94.1001 130.02C90.5201 135.48 84.6901 139.77 77.9701 139.92C68.1501 140.18 58.3201 139.9 48.5001 140.05C45.2601 140.03 42.0201 139.9 38.7801 139.96C41.1001 136.32 43.5101 132.74 45.8501 129.1C39.5101 128.76 33.0601 129.52 26.8101 128.1C43.5501 128.14 60.3101 128.22 77.0501 128.05C81.2901 128.19 84.6401 124.17 84.3001 120.05C84.2601 103.33 84.5301 86.6 84.1601 69.89C84.6801 71.19 85.1801 72.5 85.6801 73.81Z" fill="url(#paint2_linear)"/>
<path d="M38.2401 74.3C47.0801 74.08 56.1401 73.21 64.8301 75.33C62.5601 77.47 60.5701 79.9 59.1101 82.66C55.2601 82.4 51.4101 82.33 47.5501 82.36C47.5901 87.77 47.5201 93.17 47.6201 98.58C44.6701 102.74 41.4901 106.74 38.0801 110.53C37.4301 103.37 37.9201 96.17 37.7801 89C37.8701 84.1 37.4301 79.16 38.2401 74.3Z" fill="url(#paint3_linear)"/>
<path d="M59.1101 82.66C60.5701 79.9 62.5601 77.47 64.8301 75.33C70.5401 78.3 70.5701 85.4 70.4901 90.99C70.4101 95.8 70.5001 101.97 65.8601 104.82C60.2601 107.74 53.6901 106.53 47.6301 106.86C47.5501 111.08 47.6201 115.31 47.4201 119.53C44.5401 119.97 41.1201 120.92 38.4701 119.5C37.2601 116.79 37.6101 113.41 38.0801 110.53C41.4901 106.74 44.6701 102.74 47.6201 98.58C51.5001 98.22 55.9001 99.42 59.3901 97.34C61.6701 92.92 61.0401 87.16 59.1101 82.66Z" fill="url(#paint4_linear)"/>
<path d="M9.8301 127.41C12.0701 122 15.7001 117.37 19.5001 112.98C19.6001 116.38 19.6401 119.84 20.6801 123.12C21.8201 125.6 24.0601 127.63 26.8101 128.1C33.0601 129.52 39.5101 128.76 45.8501 129.1C43.5101 132.74 41.1001 136.32 38.7801 139.96C37.1201 139.99 35.4701 140.04 33.8101 140.07C28.3901 140.09 22.5301 140.27 17.8101 137.16C15.1701 135.54 13.0501 133.22 11.2001 130.77C10.7001 129.67 10.2401 128.55 9.8301 127.41Z" fill="url(#paint5_linear)"/>
<path fill-rule="evenodd" clip-rule="evenodd" d="M101.04 14.38C113.69 14.17 126.29 17.05 137.72 22.44C145.04 26.1499 151.94 30.7299 157.91 36.3799L157.91 36.38C166.71 44.56 173.64 54.72 178.16 65.85C178.237 66.0452 178.317 66.2433 178.397 66.4439C179.475 69.1309 180.732 72.2652 178.89 74.88C176.68 78.63 170.41 78.36 168.69 74.31C166.36 68.59 163.98 62.83 160.41 57.73C157.66 53.42 154.36 49.48 150.69 45.93L150.69 45.9299C144.62 40.0899 137.54 35.3199 129.81 31.97C124.46 29.64 118.79 28.15 113.05 27.13C113.03 28.31 113.02 29.49 113.02 30.66C113.013 33.1066 113.022 35.5532 113.031 37.9999C113.049 42.8932 113.067 47.7866 112.96 52.68C111.978 53.9596 110.884 55.2241 109.779 56.5032C105.863 61.0319 101.79 65.7431 101.93 71.95C101.875 74.8225 101.88 77.6981 101.884 80.5744C101.893 86.6301 101.902 92.6892 101.36 98.73L101.36 98.7301L101.37 99.34C100.983 84.8464 101.044 70.3372 101.106 55.827C101.143 47.1206 101.18 38.4139 101.12 29.71C101.115 29.12 101.113 28.53 101.11 27.94C101.108 27.35 101.105 26.76 101.1 26.17C81.0101 26.67 61.1901 36.02 48.6401 51.84C47.917 51.8679 47.1937 51.8978 46.4702 51.9277C42.271 52.1011 38.0656 52.2747 33.8601 52.07C47.9701 29.22 74.2301 14.69 101.04 14.38C101.04 14.38 101.04 14.38 101.04 14.38ZM101.36 98.7301C101.902 92.6893 101.893 86.6302 101.884 80.5745C101.88 77.6981 101.875 74.8225 101.93 71.9501C101.79 65.7431 105.863 61.032 109.779 56.5032C110.885 55.2242 111.978 53.9596 112.96 52.6801C113.068 59.924 113.051 67.172 113.035 74.419V74.4194V74.4198V74.4203V74.4207V74.4212C113.025 78.6281 113.015 82.8348 113.03 87.0401C113.01 88.49 113.26 89.9199 113.67 91.2999C114.646 90.4887 115.901 90.5693 117.147 90.6492C117.79 90.6905 118.431 90.7317 119.03 90.65C123.048 90.6774 127.066 90.6714 131.085 90.6654C135.856 90.6582 140.628 90.6511 145.4 90.7C143.865 93.7174 142.169 96.6515 140.474 99.5851L140.474 99.5854C139.894 100.589 139.314 101.593 138.74 102.6C128.05 102.62 117.35 102.63 106.66 102.6L106.66 102.6C104.27 102.36 102.66 100.57 101.36 98.7301ZM145.4 90.7001C156.28 90.66 167.16 90.6301 178.04 90.6901C180.7 90.5701 183.27 92.5001 183.85 95.1101C184.171 97.1695 184.051 99.2534 183.93 101.333L183.93 101.334L183.93 101.334L183.93 101.335C183.897 101.911 183.864 102.486 183.84 103.06C182.43 118.83 176.46 134.14 166.7 146.62C157.1 158.52 144.39 167.97 129.93 173.07C112.22 179.46 92.3301 179.34 74.6301 172.96C57.9601 166.79 43.2301 155.21 33.8101 140.07C34.6401 140.055 35.4676 140.035 36.2951 140.015C37.1226 139.995 37.9501 139.975 38.7801 139.96C40.8321 139.922 42.8842 139.96 44.9362 139.998C46.1242 140.021 47.3121 140.043 48.5001 140.05C49.4301 141.27 50.3801 142.48 51.4101 143.61C59.2201 152.12 69.2101 158.6 80.1401 162.3C101.66 169.69 126.71 165.68 144.69 151.69C159.19 140.7 169.06 123.89 171.52 105.85C171.69 104.8 171.87 103.74 172.06 102.69C165.123 102.584 158.181 102.595 151.239 102.606C147.073 102.612 142.906 102.619 138.74 102.6C139.313 101.594 139.893 100.59 140.473 99.5872L140.473 99.5867L140.473 99.5861L140.474 99.5856L140.474 99.5854C142.169 96.6518 143.865 93.7175 145.4 90.7001Z" fill="url(#paint6_linear)"/>
<defs>
<linearGradient id="paint0_linear" x1="52.3161" y1="140.078" x2="52.3161" y2="52.37" gradientUnits="userSpaceOnUse">
<stop stop-color="#FD2E00"/>
<stop offset="1" stop-color="#FF9900"/>
</linearGradient>
<linearGradient id="paint1_linear" x1="52.3161" y1="140.078" x2="52.3161" y2="52.37" gradientUnits="userSpaceOnUse">
<stop stop-color="#FD2E00"/>
<stop offset="1" stop-color="#FF9900"/>
</linearGradient>
<linearGradient id="paint2_linear" x1="52.3161" y1="140.078" x2="52.3161" y2="52.37" gradientUnits="userSpaceOnUse">
<stop stop-color="#FD2E00"/>
<stop offset="1" stop-color="#FF9900"/>
</linearGradient>
<linearGradient id="paint3_linear" x1="52.3161" y1="140.078" x2="52.3161" y2="52.37" gradientUnits="userSpaceOnUse">
<stop stop-color="#FD2E00"/>
<stop offset="1" stop-color="#FF9900"/>
</linearGradient>
<linearGradient id="paint4_linear" x1="52.3161" y1="140.078" x2="52.3161" y2="52.37" gradientUnits="userSpaceOnUse">
<stop stop-color="#FD2E00"/>
<stop offset="1" stop-color="#FF9900"/>
</linearGradient>
<linearGradient id="paint5_linear" x1="52.3161" y1="140.078" x2="52.3161" y2="52.37" gradientUnits="userSpaceOnUse">
<stop stop-color="#FD2E00"/>
<stop offset="1" stop-color="#FF9900"/>
</linearGradient>
<linearGradient id="paint6_linear" x1="108.933" y1="177.804" x2="108.933" y2="14.3693" gradientUnits="userSpaceOnUse">
<stop stop-color="#FD5900"/>
<stop offset="1" stop-color="#FFDE00"/>
</linearGradient>
</defs>
</svg>
