<svg width="128" height="128" viewBox="0 0 128 128" fill="none" xmlns="http://www.w3.org/2000/svg">
<path d="M49.7294 8.06481C42.0645 8.38122 35.3489 14.9742 34.7871 22.6132C34.6137 25.9373 34.6531 29.2689 34.6926 32.5995C34.7045 33.6102 34.7165 34.6209 34.7225 35.6312C37.299 35.5989 39.869 35.6118 42.439 35.6764C42.4832 34.1112 42.4226 32.5261 42.3618 30.9379C42.2271 27.4153 42.0918 23.8772 43.0977 20.5081C44.3762 17.9445 46.8494 15.9105 49.7681 15.6909C52.1974 15.4953 54.6344 15.5286 57.071 15.5619C58.4945 15.5814 59.918 15.6009 61.3396 15.5747C63.1542 13.1015 64.917 10.5896 66.6023 8.02606C64.8447 8.02808 63.0871 8.02064 61.3295 8.0132C57.4628 7.99683 53.5961 7.98046 49.7294 8.06481Z" fill="url(#paint0_linear_618_248)"/>
<path d="M24.4778 53.7463L24.4758 53.7465L24.4572 53.7479L24.4562 53.748C24.1903 53.7692 23.9252 53.7903 23.661 53.809C24.258 57.5352 25.275 61.172 26.292 64.8083L26.2955 64.8211C26.8723 66.8837 27.4489 68.9456 27.9487 71.0241C28.1727 71.707 28.3342 72.4209 28.496 73.1361C28.8192 74.5645 29.1438 75.9989 29.9698 77.2038C31.8231 77.7592 33.9475 77.8431 35.7491 77.0747C36.589 74.8672 37.0419 72.3086 37.4903 69.775L37.4905 69.774C37.8487 67.7496 38.2041 65.7414 38.7518 63.9406C39.0747 63.6177 39.3976 63.6177 39.6558 64.0116C40.1684 65.7729 40.5494 67.5746 40.9303 69.3762C41.4851 72.0005 42.0397 74.6235 43.0007 77.1199C44.8475 77.7914 46.9526 77.7721 48.8252 77.2103C49.6742 75.9027 50.0236 74.3781 50.3726 72.8555C50.5544 72.0618 50.7362 71.2689 50.9884 70.5076C51.47 68.4899 52.0311 66.4881 52.5924 64.4855L52.5942 64.479C53.5828 60.9521 54.5718 57.4238 55.1276 53.809C54.9279 53.7935 54.7276 53.7771 54.5268 53.7606L54.502 53.7585C52.7899 53.6177 51.0473 53.4744 49.3612 53.8542C48.3191 56.3352 47.7754 58.9824 47.231 61.633C46.8275 63.5975 46.4235 65.5642 45.8161 67.4662C45.2557 65.5585 44.8076 63.6239 44.3594 61.6884C44.2706 61.3048 44.1817 60.9211 44.092 60.5376C43.9234 59.8904 43.7816 59.2335 43.6398 58.5762C43.3032 57.017 42.966 55.4556 42.271 54.0157C40.4371 53.3893 38.345 53.428 36.4982 53.9898C35.5161 56.4562 34.9497 59.0559 34.3829 61.6579C33.9585 63.6063 33.5337 65.5567 32.9337 67.4532C32.3285 65.5464 31.9219 63.5779 31.5156 61.6106C30.9727 58.9815 30.4302 56.3548 29.4145 53.8801C27.8023 53.4811 26.1279 53.6147 24.4778 53.7463Z" fill="url(#paint1_linear_618_248)"/>
<path fill-rule="evenodd" clip-rule="evenodd" d="M47.686 35.65C51.2958 35.5573 54.9094 35.4644 58.4208 36.3161C61.346 37.4784 63.9483 39.5835 65.3689 42.4312C66.9562 45.4455 66.8625 48.8442 66.7702 52.1786L66.7687 52.2327C66.7427 53.1802 66.7169 54.1224 66.7315 55.0488C66.7987 58.4072 66.791 61.7678 66.7833 65.1271L66.7831 65.2127V65.2142C66.7747 68.6007 66.767 71.9869 66.8348 75.3699C66.9252 79.0635 66.9962 83.0348 64.975 86.2893C62.9022 89.8085 59.0084 92.1719 54.9145 92.3075C52.0113 92.4108 49.1077 92.3863 46.2046 92.3618C44.93 92.3508 43.6554 92.3398 42.3808 92.3398C42.3614 93.1341 42.3486 93.9284 42.3422 94.7291C42.3677 95.9948 42.3523 97.2622 42.3368 98.5294C42.3093 100.779 42.2818 103.029 42.4842 105.267C42.8265 108.412 45.2737 110.84 48.0633 112.048C48.0633 112.048 48.0633 112.048 48.0633 112.048C50.3386 112.459 52.6485 112.434 54.955 112.409C55.7969 112.4 56.6383 112.391 57.4774 112.403C61.2328 112.403 64.9888 112.395 68.7451 112.387H68.7465C76.887 112.371 85.0286 112.354 93.1672 112.416C94.4447 112.374 95.7243 112.388 97.0039 112.402C98.8871 112.423 100.77 112.444 102.647 112.287C106.256 111.925 109.227 108.871 109.846 105.358L109.847 105.354C110.015 77.8085 109.97 50.2562 109.912 22.7169C109.602 21.716 109.266 20.7214 108.775 19.7916C107.342 17.4282 104.817 15.7105 102.001 15.633C99.0677 15.5226 96.1318 15.5447 93.1963 15.5668L93.1941 15.5668C91.1551 15.5822 89.1162 15.5976 87.0785 15.5685C81.9299 15.5801 76.7837 15.5778 71.6369 15.5755H71.6358C68.2042 15.5739 64.7725 15.5721 61.3396 15.5747C63.1542 13.1015 64.917 10.5896 66.6023 8.02606C68.5146 8.02463 70.427 8.02279 72.3394 8.02072L72.3431 8.02071C79.0374 8.01346 85.7325 8.0062 92.4316 8.02629C93.7598 8.04756 95.0899 8.03337 96.4204 8.01916C98.7249 7.99456 101.031 7.96995 103.332 8.12961C109.091 8.67204 114.096 12.7079 116.421 17.9254C117.686 21.3614 117.649 25.0146 117.613 28.6321V28.6334C117.605 29.4276 117.597 30.22 117.602 31.0081C117.6 33.9453 117.603 36.8825 117.605 39.8197C117.61 45.206 117.615 50.5923 117.589 55.9786C117.607 64.6273 117.605 73.2767 117.603 81.9254C117.601 88.8451 117.6 95.7648 117.608 102.685C117.673 105.958 117.059 109.297 115.387 112.145C112.416 116.891 107.044 120.119 101.381 119.997C94.9199 119.966 88.4571 119.977 81.9939 119.988C70.9518 120.007 59.9081 120.027 48.8698 119.835C46.952 119.687 45.1375 118.996 43.394 118.227C43.394 118.227 43.3939 118.227 43.394 118.227C40.3593 116.587 37.9316 113.985 36.2593 110.989C35.5425 109.42 35.0906 107.747 34.8129 106.049C34.6927 103.393 34.7123 100.734 34.732 98.0753C34.7462 96.1638 34.7603 94.2519 34.7225 92.3399C33.7447 92.3427 32.7671 92.3495 31.7899 92.3565L31.7661 92.3566L31.4004 92.3592H31.3985L31.3276 92.3597H31.3266C28.3996 92.3802 25.4749 92.4007 22.5503 92.3398C20.1805 92.3204 17.8688 91.6166 15.8153 90.4543C14.2462 89.3307 12.9031 87.9165 11.773 86.3539C9.83964 82.976 9.94361 79.1307 10.0463 75.3331L10.0463 75.3312C10.0832 73.9674 10.1199 72.6101 10.0618 71.2824L10.0576 69.6042C10.0392 62.3309 10.0208 55.0576 10.0748 47.7843C10.107 41.6111 15.3698 36.0514 21.5365 35.722C24.0325 35.6229 26.5327 35.6365 29.0323 35.65C30.93 35.6604 32.8275 35.6702 34.7225 35.6312C37.299 35.5989 39.869 35.6118 42.439 35.6764C44.1786 35.7397 45.9312 35.6951 47.6849 35.6501L47.686 35.65ZM58.1496 82.6861C57.3231 83.9194 55.8766 84.5652 54.4237 84.675C50.6147 84.6827 46.8067 84.682 42.9989 84.6814H42.9889C37.2721 84.6808 31.5558 84.6801 25.8371 84.7072C23.9903 84.7266 22.15 84.6039 20.3161 84.3715C20.2076 84.2605 20.0977 84.1501 19.9874 84.0393L19.9465 83.9982L19.9452 83.997C19.169 83.2186 18.3785 82.426 17.9333 81.4075C17.7103 74.761 17.7403 68.1067 17.7703 61.4512L17.7703 61.4373C17.7889 57.3061 17.8075 53.1743 17.7654 49.0435C17.5846 46.8997 18.5468 44.659 20.5679 43.7162C23.3121 43.1456 26.1109 43.2075 28.9092 43.2694L28.9101 43.2694C30.4179 43.3028 31.9255 43.3362 33.4245 43.2707C40.1466 43.2771 46.8751 43.2771 53.6036 43.2707C54.5077 43.3611 55.4052 43.516 56.2834 43.7291C57.5749 44.4201 58.5887 45.6276 58.9568 47.0547C59.1079 52.9923 59.0844 58.9322 59.0609 64.8731L59.0609 64.8802C59.0441 69.0934 59.0275 73.3068 59.073 77.5202C59.0623 77.8366 59.0619 78.1608 59.0614 78.4888C59.0593 79.9508 59.057 81.4779 58.1496 82.6861Z" fill="url(#paint2_linear_618_248)"/>
<path d="M80.8214 49.1856C76.1979 49.1597 71.568 49.1727 66.9446 49.192C66.9349 50.0155 66.9226 50.8398 66.9104 51.6644L66.9103 51.6682C66.889 53.0471 66.8683 54.4274 66.8606 55.8043C70.3605 55.8237 73.8539 55.8237 77.3473 55.8108C79.1076 55.8004 80.8673 55.8078 82.6264 55.8153H82.6274L82.6456 55.8154C85.242 55.8265 87.8379 55.8375 90.4363 55.7914C91.8892 55.856 93.3292 54.9068 93.7102 53.4797C94.3624 51.6587 93.0193 49.4051 91.0691 49.2501C88.9654 49.1306 86.8571 49.1537 84.7482 49.1767C83.4387 49.1911 82.1296 49.2053 80.8214 49.1856Z" fill="url(#paint3_linear_618_248)"/>
<path d="M73.9792 62.1421H73.9805C79.4666 62.1254 84.9547 62.1086 90.4428 62.1584C92.8449 61.9711 94.6917 64.8123 93.5358 66.9237C92.9159 68.3766 91.2629 68.9255 89.797 68.8093C87.6219 68.8073 85.4454 68.8067 83.2695 68.8061H83.2616C77.8181 68.8041 72.3732 68.8022 66.9316 68.7835C66.9252 66.575 66.9252 64.3668 66.9316 62.1584C69.2767 62.1564 71.6225 62.1493 73.9688 62.1421L73.9715 62.1421L73.9792 62.1421Z" fill="url(#paint4_linear_618_248)"/>
<path d="M89.8035 75.3441C82.2519 75.3441 74.6964 75.3441 67.1447 75.3699C67.0608 76.6588 67.0059 77.9503 66.9517 79.2411V79.2424L66.9449 79.4006L66.9449 79.4018C66.9091 80.243 66.8733 81.0841 66.8283 81.9241C69.959 81.8989 73.0915 81.9177 76.2241 81.9364H76.2257C77.9347 81.9467 79.4901 81.9769 80.9979 82.0062C83.8517 82.0618 86.5347 82.1139 89.7648 82.021C92.0313 81.9241 93.6392 80.4067 93.6392 78.7923C93.6392 77.178 92.6706 75.2408 89.81 75.3441H89.8035Z" fill="url(#paint5_linear_618_248)"/>
<path d="M34.7225 35.6312C34.7165 34.6209 34.7045 33.6102 34.6926 32.5995C34.6531 29.2689 34.6137 25.9373 34.7871 22.6132C35.3489 14.9742 42.0645 8.38122 49.7294 8.06481C53.5961 7.98046 57.4628 7.99683 61.3295 8.0132C63.0871 8.02064 64.8447 8.02808 66.6023 8.02606M34.7225 35.6312C37.299 35.5989 39.869 35.6118 42.439 35.6764M34.7225 35.6312C32.8275 35.6702 30.93 35.6604 29.0323 35.65C26.5327 35.6365 24.0325 35.6229 21.5365 35.722C15.3698 36.0514 10.107 41.6111 10.0748 47.7843C10.0208 55.0576 10.0392 62.3309 10.0576 69.6042L10.0618 71.2824C10.1199 72.6101 10.0832 73.9674 10.0463 75.3312L10.0463 75.3331C9.94361 79.1307 9.83964 82.976 11.773 86.3539C12.9031 87.9165 14.2462 89.3307 15.8153 90.4543C17.8688 91.6166 20.1805 92.3204 22.5503 92.3398C25.4749 92.4007 28.3996 92.3802 31.3266 92.3597H31.3276L31.3985 92.3592H31.4004L31.7661 92.3566L31.7899 92.3565C32.7671 92.3495 33.7447 92.3427 34.7225 92.3399M42.439 35.6764C42.4832 34.1112 42.4226 32.5261 42.3618 30.9379C42.2271 27.4153 42.0918 23.8772 43.0977 20.5081C44.3762 17.9445 46.8494 15.9105 49.7681 15.6909C52.1974 15.4953 54.6344 15.5286 57.071 15.5619C58.4945 15.5814 59.918 15.6009 61.3396 15.5747M42.439 35.6764C44.1786 35.7397 45.9312 35.6951 47.6849 35.6501L47.686 35.65C51.2958 35.5573 54.9094 35.4644 58.4208 36.3161C61.346 37.4784 63.9483 39.5835 65.3689 42.4312C66.9562 45.4455 66.8625 48.8442 66.7702 52.1786L66.7687 52.2327C66.7427 53.1802 66.7169 54.1224 66.7315 55.0488C66.7987 58.4072 66.791 61.7678 66.7833 65.1271L66.7831 65.2127V65.2142C66.7747 68.6007 66.767 71.9869 66.8348 75.3699C66.9252 79.0635 66.9962 83.0348 64.975 86.2893C62.9022 89.8085 59.0084 92.1719 54.9145 92.3075C52.0113 92.4108 49.1077 92.3863 46.2046 92.3618C44.93 92.3508 43.6554 92.3398 42.3808 92.3398M61.3396 15.5747C63.1542 13.1015 64.917 10.5896 66.6023 8.02606M61.3396 15.5747C64.7725 15.5721 68.2042 15.5739 71.6358 15.5755H71.6369C76.7837 15.5778 81.9299 15.5801 87.0785 15.5685C89.1162 15.5976 91.1551 15.5822 93.1941 15.5668L93.1963 15.5668C96.1318 15.5447 99.0677 15.5226 102.001 15.633C104.817 15.7105 107.342 17.4282 108.775 19.7916C109.266 20.7214 109.602 21.716 109.912 22.7169M66.6023 8.02606C68.5146 8.02463 70.427 8.02279 72.3394 8.02072L72.3431 8.02071C79.0374 8.01346 85.7325 8.0062 92.4316 8.02629C93.7598 8.04756 95.0899 8.03337 96.4204 8.01916C98.7249 7.99456 101.031 7.96995 103.332 8.12961C109.091 8.67204 114.096 12.7079 116.421 17.9254C117.686 21.3614 117.649 25.0146 117.613 28.6321V28.6334C117.605 29.4276 117.597 30.22 117.602 31.0081C117.6 33.9453 117.603 36.8825 117.605 39.8197C117.61 45.206 117.615 50.5923 117.589 55.9786C117.607 64.6273 117.605 73.2767 117.603 81.9254C117.601 88.8451 117.6 95.7648 117.608 102.685C117.673 105.958 117.059 109.297 115.387 112.145C112.416 116.891 107.044 120.119 101.381 119.997C94.9199 119.966 88.4571 119.977 81.9939 119.988C70.9518 120.007 59.9081 120.027 48.8698 119.835C46.952 119.687 45.1375 118.996 43.394 118.227M42.3808 92.3398C40.2434 92.314 38.106 92.3075 35.9687 92.3204C35.828 92.3233 35.6273 92.3262 35.4206 92.3291M42.3808 92.3398C42.3614 93.1341 42.3486 93.9284 42.3422 94.7291C42.3677 95.9948 42.3523 97.2622 42.3368 98.5294C42.3093 100.779 42.2818 103.029 42.4842 105.267C42.8265 108.412 45.2737 110.84 48.0633 112.048M48.0633 112.048C48.0633 112.048 48.0633 112.048 48.0633 112.048ZM48.0633 112.048C50.3386 112.459 52.6485 112.434 54.955 112.409C55.7969 112.4 56.6383 112.391 57.4774 112.403C61.2328 112.403 64.9888 112.395 68.7451 112.387H68.7465C76.887 112.371 85.0286 112.354 93.1672 112.416C94.4447 112.374 95.7243 112.388 97.0039 112.402C98.8871 112.423 100.77 112.444 102.647 112.287C106.256 111.925 109.227 108.871 109.846 105.358L109.847 105.354C110.015 77.8085 109.97 50.2562 109.912 22.7169M109.912 22.7169C111.068 20.5924 112.663 18.7521 114.251 16.9376M43.394 118.227C43.3939 118.227 43.394 118.227 43.394 118.227ZM43.394 118.227C40.3593 116.587 37.9316 113.985 36.2593 110.989C35.5425 109.42 35.0906 107.747 34.8129 106.049C34.6927 103.393 34.7123 100.734 34.732 98.0753C34.7462 96.1638 34.7603 94.2519 34.7225 92.3399M34.7225 92.3399C34.863 92.337 35.0672 92.334 35.2779 92.3311M54.4237 84.675C55.8766 84.5652 57.3231 83.9194 58.1496 82.6861C59.057 81.4779 59.0593 79.9508 59.0614 78.4888C59.0619 78.1608 59.0623 77.8366 59.073 77.5202C59.0275 73.3068 59.0441 69.0934 59.0609 64.8802L59.0609 64.8731C59.0844 58.9322 59.1079 52.9923 58.9568 47.0547C58.5887 45.6276 57.5749 44.4201 56.2834 43.7291C55.4052 43.516 54.5077 43.3611 53.6036 43.2707C46.8751 43.2771 40.1466 43.2771 33.4245 43.2707C31.9255 43.3362 30.4179 43.3028 28.9101 43.2694L28.9092 43.2694C26.1109 43.2075 23.3121 43.1456 20.5679 43.7162C18.5468 44.659 17.5846 46.8997 17.7654 49.0435C17.8075 53.1743 17.7889 57.3061 17.7703 61.4373L17.7703 61.4512C17.7403 68.1067 17.7103 74.761 17.9333 81.4075C18.3785 82.426 19.169 83.2186 19.9452 83.997L19.9465 83.9982L19.9874 84.0393C20.0977 84.1501 20.2076 84.2605 20.3161 84.3715C22.15 84.6039 23.9903 84.7266 25.8371 84.7072C31.5558 84.6801 37.2721 84.6808 42.9889 84.6814H42.9989C46.8067 84.682 50.6147 84.6827 54.4237 84.675ZM24.4778 53.7463L24.4758 53.7465L24.4572 53.7479L24.4562 53.748C24.1903 53.7692 23.9252 53.7903 23.661 53.809C24.258 57.5352 25.275 61.172 26.292 64.8083L26.2955 64.8211C26.8723 66.8837 27.4489 68.9456 27.9487 71.0241C28.1727 71.707 28.3342 72.4209 28.496 73.1361C28.8192 74.5645 29.1438 75.9989 29.9698 77.2038C31.8231 77.7592 33.9475 77.8431 35.7491 77.0747C36.589 74.8672 37.0419 72.3086 37.4903 69.775L37.4905 69.774C37.8487 67.7496 38.2041 65.7414 38.7518 63.9406C39.0747 63.6177 39.3976 63.6177 39.6558 64.0116C40.1684 65.7729 40.5494 67.5746 40.9303 69.3762C41.4851 72.0005 42.0397 74.6235 43.0007 77.1199C44.8475 77.7914 46.9526 77.7721 48.8252 77.2103C49.6742 75.9027 50.0236 74.3781 50.3726 72.8555C50.5544 72.0618 50.7362 71.2689 50.9884 70.5076C51.47 68.4899 52.0311 66.4881 52.5924 64.4855L52.5942 64.479C53.5828 60.9521 54.5718 57.4238 55.1276 53.809C54.9279 53.7935 54.7276 53.7771 54.5268 53.7606L54.502 53.7585C52.7899 53.6177 51.0473 53.4744 49.3612 53.8542C48.3191 56.3352 47.7754 58.9824 47.231 61.633C46.8275 63.5975 46.4235 65.5642 45.8161 67.4662C45.2557 65.5585 44.8076 63.6239 44.3594 61.6884C44.2706 61.3048 44.1817 60.9211 44.092 60.5376C43.9234 59.8904 43.7816 59.2335 43.6398 58.5762C43.3032 57.017 42.966 55.4556 42.271 54.0157C40.4371 53.3893 38.345 53.428 36.4982 53.9898C35.5161 56.4562 34.9497 59.0559 34.3829 61.6579C33.9585 63.6063 33.5337 65.5567 32.9337 67.4532C32.3285 65.5464 31.9219 63.5779 31.5156 61.6106C30.9727 58.9815 30.4302 56.3548 29.4145 53.8801C27.8023 53.4811 26.1279 53.6147 24.4778 53.7463ZM66.9446 49.192C71.568 49.1727 76.1979 49.1597 80.8214 49.1856C82.1296 49.2053 83.4387 49.1911 84.7482 49.1767C86.8571 49.1537 88.9654 49.1306 91.0691 49.2501C93.0193 49.4051 94.3624 51.6587 93.7102 53.4797C93.3292 54.9068 91.8892 55.856 90.4363 55.7914C87.8379 55.8375 85.242 55.8265 82.6456 55.8154L82.6274 55.8153H82.6264C80.8673 55.8078 79.1076 55.8004 77.3473 55.8108C73.8539 55.8237 70.3605 55.8237 66.8606 55.8043C66.8683 54.4274 66.889 53.0471 66.9103 51.6682L66.9104 51.6644C66.9226 50.8398 66.9349 50.0155 66.9446 49.192ZM73.9805 62.1421H73.9792L73.9715 62.1421L73.9688 62.1421C71.6225 62.1493 69.2767 62.1564 66.9316 62.1584C66.9252 64.3668 66.9252 66.575 66.9316 68.7835C72.3732 68.8022 77.8181 68.8041 83.2616 68.8061H83.2695C85.4454 68.8067 87.6219 68.8073 89.797 68.8093C91.2629 68.9255 92.9159 68.3766 93.5358 66.9237C94.6917 64.8123 92.8449 61.9711 90.4428 62.1584C84.9547 62.1086 79.4666 62.1254 73.9805 62.1421ZM67.1447 75.3699C74.6964 75.3441 82.2519 75.3441 89.8035 75.3441H89.81C92.6706 75.2408 93.6392 77.178 93.6392 78.7923C93.6392 80.4067 92.0313 81.9241 89.7648 82.021C86.5347 82.1139 83.8517 82.0618 80.9979 82.0062C79.4901 81.9769 77.9347 81.9467 76.2257 81.9364H76.2241C73.0915 81.9177 69.959 81.8989 66.8283 81.9241C66.8733 81.0841 66.9091 80.243 66.9449 79.4018L66.9449 79.4006L66.9517 79.2424V79.2411C67.0059 77.9503 67.0608 76.6588 67.1447 75.3699Z" stroke="url(#paint6_linear_618_248)" stroke-width="3"/>
<defs>
<linearGradient id="paint0_linear_618_248" x1="47.9532" y1="78.4694" x2="78.4641" y2="34.8824" gradientUnits="userSpaceOnUse">
<stop stop-color="#5558FF"/>
<stop offset="1" stop-color="#00F0FF"/>
</linearGradient>
<linearGradient id="paint1_linear_618_248" x1="47.9532" y1="78.4694" x2="78.4641" y2="34.8824" gradientUnits="userSpaceOnUse">
<stop stop-color="#5558FF"/>
<stop offset="1" stop-color="#00F0FF"/>
</linearGradient>
<linearGradient id="paint2_linear_618_248" x1="47.9532" y1="78.4694" x2="78.4641" y2="34.8824" gradientUnits="userSpaceOnUse">
<stop stop-color="#5558FF"/>
<stop offset="1" stop-color="#00F0FF"/>
</linearGradient>
<linearGradient id="paint3_linear_618_248" x1="47.9532" y1="78.4694" x2="78.4641" y2="34.8824" gradientUnits="userSpaceOnUse">
<stop stop-color="#5558FF"/>
<stop offset="1" stop-color="#00F0FF"/>
</linearGradient>
<linearGradient id="paint4_linear_618_248" x1="47.9532" y1="78.4694" x2="78.4641" y2="34.8824" gradientUnits="userSpaceOnUse">
<stop stop-color="#5558FF"/>
<stop offset="1" stop-color="#00F0FF"/>
</linearGradient>
<linearGradient id="paint5_linear_618_248" x1="47.9532" y1="78.4694" x2="78.4641" y2="34.8824" gradientUnits="userSpaceOnUse">
<stop stop-color="#5558FF"/>
<stop offset="1" stop-color="#00F0FF"/>
</linearGradient>
<linearGradient id="paint6_linear_618_248" x1="47.9532" y1="78.4694" x2="78.4641" y2="34.8824" gradientUnits="userSpaceOnUse">
<stop stop-color="#5558FF"/>
<stop offset="1" stop-color="#00F0FF"/>
</linearGradient>
</defs>
</svg>
