<svg width="192" height="192" viewBox="0 0 192 192" fill="none" xmlns="http://www.w3.org/2000/svg">
<path fill-rule="evenodd" clip-rule="evenodd" d="M96.2149 3.09492C90.132 2.99254 84.0531 2.89023 77.9837 3.26395C72.5762 3.96351 70.5364 9.49518 69.058 13.7443C68.3428 15.717 68.0561 17.8481 67.7697 19.9773C67.283 23.5947 66.7971 27.2068 64.2118 30.0283C61.597 32.102 58.6787 33.7655 55.7611 35.4286C54.3406 36.2383 52.9202 37.0479 51.5351 37.9048C45.758 35.9357 40.0356 33.8629 34.327 31.6995C29.166 29.847 23.1014 31.7254 20.0897 36.0911C17.2085 40.3155 14.5528 44.6708 11.8969 49.0265C10.2116 51.7903 8.52628 54.5542 6.78317 57.285C4.49701 61.003 1.92333 65.3169 3.47026 69.7345C5.08186 74.9755 9.32363 78.3706 13.5837 81.7805C16.4525 84.0767 19.3296 86.3795 21.4175 89.2572C21.814 91.8994 21.7011 94.5662 21.5881 97.2365C21.5176 98.8997 21.4472 100.564 21.4997 102.225C19.1267 104.809 16.3803 107.036 13.6364 109.261C10.6977 111.644 7.76185 114.024 5.29098 116.838C1.56737 121.514 3.77148 127.499 6.09867 132.254C10.0961 139.586 14.2715 146.84 18.707 153.939C21.3902 158.63 27.5369 161.013 32.9718 159.744C37.5836 158.62 42.0167 156.988 46.4468 155.358C48.1446 154.733 49.842 154.108 51.5488 153.512C56.2874 155.915 60.7971 158.713 65.2915 161.501L65.4028 161.57C66.0029 163.951 66.5252 166.351 67.0473 168.751C68.1928 174.016 69.3378 179.278 71.3031 184.332C72.0944 186.265 73.9215 187.431 75.6882 188.558C76.1832 188.874 76.6735 189.187 77.1349 189.513C82.7017 189.363 88.2716 189.428 93.84 189.492C99.8019 189.561 105.762 189.63 111.715 189.436C122.106 187.052 124.57 175.613 124.57 166.92C125.241 161.402 117.903 157.126 113.002 160.158C109.268 162.215 108.788 166.293 108.333 170.162C108.177 171.485 108.024 172.783 107.745 173.968C104.52 173.957 101.296 173.962 98.0723 173.967C93.4677 173.973 88.8651 173.98 84.2673 173.942C83.2816 168.449 81.9126 163.034 80.4889 157.645C78.9146 152.32 74.1643 148.654 69.2223 146.128C67.8399 145.395 66.4942 144.576 65.1463 143.755C62.0628 141.878 58.9678 139.994 55.3956 139.119C49.3838 137.928 43.9023 140.12 38.4485 142.301C36.0162 143.273 33.5894 144.244 31.1236 144.911C29.1967 141.304 27.1241 137.773 25.0524 134.243C23.106 130.926 21.1603 127.611 19.3367 124.235C20.8388 122.94 22.409 121.703 23.9804 120.465C27.5361 117.664 31.0977 114.857 33.8889 111.371C37.081 107.552 37.1086 102.721 37.1354 98.0424C37.1425 96.8017 37.1495 95.5718 37.2155 94.3743C37.5441 88.7779 36.8048 82.7021 32.6705 78.3753C29.8684 75.4681 26.7434 72.8665 23.6184 70.2648C22.148 69.0407 20.6776 67.8165 19.2408 66.5605C21.5321 63.0774 23.7076 59.5301 25.8838 55.9818C27.7383 52.9579 29.5932 49.9334 31.5206 46.9472C34.1553 47.5215 36.7265 48.5023 39.3073 49.4868C43.713 51.1675 48.1467 52.8588 52.9725 52.5566C56.8046 52.3802 60.0917 50.4501 63.2806 48.5776C63.8397 48.2493 64.3957 47.9229 64.9511 47.6079C65.5989 47.2196 66.2565 46.8344 66.9173 46.4474C71.5914 43.7099 76.4249 40.8792 79.0515 36.1689C82.1454 30.689 83.3501 24.4578 84.1304 18.3561C91.8652 18.4468 99.5998 18.421 107.335 18.3691C108.063 21.0518 108.689 23.7618 109.315 26.4711C109.982 29.3616 110.65 32.2513 111.441 35.1066C113.885 41.7242 120.227 45.1053 126.416 48.405C128.478 49.5042 130.523 50.5944 132.401 51.7922C139.334 55.4007 146.275 52.784 153.082 50.2173C155.684 49.2364 158.266 48.2629 160.821 47.6468C162.857 51.4146 165.022 55.1117 167.187 58.8096C168.953 61.8246 170.719 64.8402 172.415 67.8949C170.624 69.6636 168.588 71.2782 166.545 72.8975C161.81 76.6508 157.043 80.4297 155.235 86.2128C154.523 92.4699 154.441 98.8437 154.906 105.14C156.023 112.179 161.68 116.729 167.193 121.163C169.046 122.654 170.883 124.131 172.526 125.686C171.032 128.061 169.574 130.457 168.117 132.853C165.487 137.177 162.857 141.5 160.012 145.701C158.802 145.256 157.607 144.744 156.41 144.232C153.462 142.971 150.5 141.704 147.268 141.4C141.395 140.817 137.055 148.059 140.6 152.528C142.817 155.569 146.414 156.715 149.992 157.854C151.674 158.39 153.351 158.924 154.879 159.653C160.396 162.412 168.089 161.674 171.649 156.427C176.334 149.397 180.704 142.179 185.073 134.962C185.695 133.934 186.318 132.906 186.941 131.878C189.158 128.588 189.802 124.222 187.789 120.698C185.886 116.63 182.333 113.815 178.783 111.002C175.537 108.43 172.295 105.861 170.321 102.341C170.315 101.498 170.295 100.648 170.274 99.7947C170.191 96.3499 170.106 92.8545 171.006 89.5422C173.166 87.1186 175.747 85.0711 178.327 83.0246C181.553 80.4655 184.777 77.9079 187.173 74.6184C190.555 70.1328 187.984 64.716 185.851 60.2233C185.748 60.0059 185.645 59.7908 185.545 59.578C181.52 52.2327 177.371 44.9392 172.84 37.8789C170.061 33.2152 163.668 31.3497 158.37 32.71C154.281 33.6878 150.352 35.1234 146.423 36.5587C144.367 37.3101 142.311 38.0613 140.232 38.7468C139.353 38.2618 138.467 37.7838 137.581 37.3055C133.826 35.2797 130.058 33.2467 126.746 30.6372C125.503 27.6542 124.913 24.4905 124.322 21.3237C123.793 18.4941 123.265 15.6621 122.27 12.954C120.696 7.55193 115.261 2.3571 108.964 3.14737C104.714 3.23795 100.463 3.16642 96.2149 3.09492ZM88.1172 54.3688L102.418 53L102.271 78.8717L121.138 53.6092L136.356 57.1065L116.723 82.369L136.202 109.154L121.288 113.874L102.268 86.024V111.132L88.1172 113.261V54.3688ZM69.5591 67.5627C69.6772 67.4435 69.8329 67.3688 69.9998 67.3512V67.3477C70.1664 67.3315 70.3335 67.3733 70.4728 67.4659L81.187 74.4893L81.1906 74.4964C82.5128 73.7762 83.9068 73.167 85.3437 72.6653V78.5348C82.0274 80.0249 79.1167 82.2883 76.8556 85.1353C74.5944 87.9823 73.0488 91.3298 72.3481 94.8974C71.6475 98.4649 71.8123 102.148 72.8288 105.639C73.8453 109.13 75.6838 112.326 78.1902 114.959C80.6966 117.593 83.7979 119.587 87.234 120.775C90.6701 121.963 94.3409 122.31 97.9387 121.787C101.536 121.264 104.956 119.885 107.912 117.768C110.867 115.65 113.272 112.855 114.924 109.617L120.51 117.794C120.562 117.87 120.637 117.928 120.725 117.958C120.812 117.988 120.906 117.99 120.994 117.962L122.23 117.568L126.054 123.868C126.138 124.006 126.174 124.169 126.154 124.331C126.135 124.492 126.061 124.642 125.946 124.756L120.331 130.368C120.088 130.611 119.708 130.651 119.421 130.461L108.951 123.599C106.79 124.873 104.467 125.85 102.046 126.505L99.1252 138.445C99.0872 138.603 98.9969 138.744 98.8688 138.845C98.7407 138.946 98.5823 139 98.4193 139H90.4822C90.1382 139 89.8443 138.76 89.7727 138.423L87.293 126.508C84.9137 125.863 82.6633 124.917 80.5778 123.713L69.9568 130.163C69.8174 130.247 69.6539 130.283 69.4922 130.263C69.3306 130.244 69.1801 130.171 69.0646 130.056L63.4531 124.441C63.3352 124.323 63.2612 124.169 63.2436 124.003C63.226 123.837 63.2658 123.671 63.3563 123.531L70.136 113.196C68.8444 110.918 67.8783 108.469 67.2657 105.922L55.5554 103.056C55.2293 102.977 55 102.687 55 102.353V94.4162C54.9998 94.2486 55.0575 94.0862 55.1633 93.9563C55.2691 93.8263 55.4164 93.7369 55.5805 93.7031L67.6456 91.1947C68.3058 88.9883 69.2349 86.8714 70.4119 84.8917L63.8401 74.0628C63.7564 73.9239 63.7215 73.761 63.741 73.6C63.7604 73.439 63.8332 73.2891 63.9476 73.1742L69.5591 67.5627Z" fill="url(#paint0_linear)"/>
<defs>
<linearGradient id="paint0_linear" x1="95.9998" y1="189.563" x2="95.9998" y2="2.99999" gradientUnits="userSpaceOnUse">
<stop stop-color="#02AA93"/>
<stop offset="1" stop-color="#67FF80"/>
</linearGradient>
</defs>
</svg>
