<svg width="64" height="64" viewBox="0 0 64 64" fill="none" xmlns="http://www.w3.org/2000/svg">
<path d="M2.52686 56V26.5H4.02296H5.51906V32V34.5H8.01906H16.0112H18.5112V32V18.5H24.0034H26.5034V16V10.5H29.4956V24V26.5H31.9956H39.9878H42.4878V24V18.5H45.48V24V26.5H47.98H55.9722H58.4722V24V18.5H59.9683H61.4644V56C61.4644 57.5456 60.947 58.7955 59.8543 59.8893C58.7617 60.9831 57.5141 61.5 55.9722 61.5H8.01906C6.47718 61.5 5.22961 60.9831 4.13696 59.8893C3.04422 58.7955 2.52686 57.5456 2.52686 56Z" stroke="url(#paint0_linear_573_34)" stroke-width="5"/>
<path fill-rule="evenodd" clip-rule="evenodd" d="M16 47.648C16 46.407 16.6576 44.9827 17.7637 43.8463C18.8662 42.7136 20.2845 42 21.6481 42C23.3 42 24.9777 42.7093 26.7498 43.9062C28.1962 44.8832 29.6331 46.1334 31.1059 47.47C29.5529 48.9498 28.0782 50.3379 26.5755 51.4028C25.0277 52.4996 23.5438 53.1832 22.0331 53.2834C21.905 53.2919 21.7766 53.2962 21.6481 53.2962C20.2845 53.2962 18.8662 52.5826 17.7637 51.4499C16.6576 50.3135 16 48.889 16 47.648ZM21.6447 55.2962C19.6044 55.2951 17.7 54.2519 16.3305 52.8448C14.9638 51.4407 14 49.541 14 47.648C14 45.7551 14.9639 43.8554 16.3305 42.4513C17.7008 41.0435 19.6066 40 21.6481 40C23.8743 40 25.9501 40.9527 27.8692 42.2488C29.4705 43.3304 31.0385 44.7049 32.5605 46.0892C34.0374 44.7034 35.5902 43.3268 37.242 42.2417C37.2996 42.2039 37.3575 42.1663 37.4155 42.129C39.3386 40.8813 41.454 40 43.8085 40C43.8175 40 43.8266 40.0001 43.8356 40.0004C43.8636 40.0001 43.8917 40 43.9198 40C45.9613 40 47.8671 41.0435 49.2374 42.4513C50.6041 43.8554 51.5679 45.7551 51.5679 47.648C51.5679 49.541 50.6041 51.4407 49.2374 52.8448C47.8671 54.2527 45.9614 55.2962 43.9198 55.2962C41.6936 55.2962 39.6178 54.3435 37.6987 53.0474C35.9544 51.8693 34.2497 50.3436 32.6008 48.8361C31.0276 50.335 29.412 51.8592 27.7448 53.0357C26.0646 54.2214 24.242 55.1214 22.2445 55.2735C22.0645 55.2872 21.8832 55.2948 21.7004 55.296C21.683 55.2962 21.6656 55.2962 21.6481 55.2962C21.647 55.2962 21.6458 55.2962 21.6447 55.2962ZM34.0557 47.4563C35.6713 48.9311 37.239 50.3234 38.8182 51.39C40.5903 52.5869 42.2679 53.2962 43.9198 53.2962C45.2834 53.2962 46.7017 52.5826 47.8042 51.4499C48.9103 50.3135 49.5679 48.889 49.5679 47.648C49.5679 46.407 48.9103 44.9827 47.8042 43.8463C46.7017 42.7136 45.2834 42 43.9198 42C42.0225 42 40.2475 42.6883 38.498 43.8108C38.4474 43.8436 38.3968 43.8769 38.3462 43.9105C36.8849 44.8813 35.4766 46.1249 34.0557 47.4563Z" fill="url(#paint1_linear_573_34)"/>
<path d="M17.7637 43.8463L16.6888 42.8001L16.6888 42.8001L17.7637 43.8463ZM16 47.648L14.5 47.648L16 47.648ZM26.7498 43.9062L27.5893 42.6632L27.5893 42.6632L26.7498 43.9062ZM31.1059 47.47L32.1406 48.556L33.3084 47.4433L32.1139 46.3593L31.1059 47.47ZM26.5755 51.4028L25.7082 50.1789L25.7082 50.1789L26.5755 51.4028ZM22.0331 53.2834L22.1323 54.7801L22.1324 54.7801L22.0331 53.2834ZM17.7637 51.4499L18.8386 50.4037L18.8386 50.4037L17.7637 51.4499ZM21.6447 55.2962L21.6438 56.7962H21.6447V55.2962ZM16.3305 52.8448L17.4054 51.7986L16.3305 52.8448ZM14 47.648L12.5 47.648L14 47.648ZM16.3305 42.4513L17.4054 43.4975L17.4054 43.4975L16.3305 42.4513ZM27.8692 42.2488L28.7087 41.0058L28.7087 41.0058L27.8692 42.2488ZM32.5605 46.0892L31.5513 47.1989L32.5765 48.1313L33.587 47.183L32.5605 46.0892ZM37.242 42.2417L36.4184 40.9881L36.4184 40.9881L37.242 42.2417ZM37.4155 42.129L38.2256 43.3915L38.2319 43.3874L37.4155 42.129ZM43.8356 40.0004L43.7957 41.4998L43.822 41.5005L43.8483 41.5003L43.8356 40.0004ZM49.2374 42.4513L48.1625 43.4975L48.1625 43.4975L49.2374 42.4513ZM51.5679 47.648L50.0679 47.648L50.0679 47.648L51.5679 47.648ZM49.2374 52.8448L48.1625 51.7986L48.1625 51.7986L49.2374 52.8448ZM37.6987 53.0474L36.8592 54.2904L36.8592 54.2904L37.6987 53.0474ZM32.6008 48.8361L33.6129 47.729L32.5796 46.7845L31.5661 47.7502L32.6008 48.8361ZM27.7448 53.0357L28.6097 54.2613L28.6097 54.2613L27.7448 53.0357ZM22.2445 55.2735L22.3583 56.7692L22.3583 56.7692L22.2445 55.2735ZM21.7004 55.296L21.7104 56.796L21.7104 56.796L21.7004 55.296ZM34.0557 47.4563L33.0301 46.3617L31.8466 47.4706L33.0444 48.5641L34.0557 47.4563ZM38.8182 51.39L39.6577 50.147L39.6577 50.147L38.8182 51.39ZM47.8042 51.4499L48.8791 52.4961L48.8791 52.4961L47.8042 51.4499ZM49.5679 47.648L51.0679 47.648L49.5679 47.648ZM47.8042 43.8463L46.7293 44.8925L46.7293 44.8925L47.8042 43.8463ZM38.498 43.8108L37.688 42.5483L37.681 42.5528L38.498 43.8108ZM38.3462 43.9105L37.5162 42.6611L37.5162 42.6611L38.3462 43.9105ZM16.6888 42.8001C15.3866 44.138 14.5 45.9189 14.5 47.648L17.5 47.648C17.5 46.8952 17.9287 45.8273 18.8386 44.8925L16.6888 42.8001ZM21.6481 40.5C19.777 40.5 17.993 41.4601 16.6888 42.8001L18.8386 44.8925C19.7394 43.9671 20.792 43.5 21.6481 43.5V40.5ZM27.5893 42.6632C25.7069 41.3918 23.7307 40.5 21.6481 40.5V43.5C22.8693 43.5 24.2484 44.0269 25.9102 45.1493L27.5893 42.6632ZM32.1139 46.3593C30.6376 45.0195 29.1323 43.7053 27.5893 42.6632L25.9102 45.1493C27.2601 46.061 28.6285 47.2474 30.0978 48.5808L32.1139 46.3593ZM27.4428 52.6266C29.0489 51.4884 30.6009 50.0231 32.1406 48.556L30.0711 46.3841C28.505 47.8764 27.1074 49.1874 25.7082 50.1789L27.4428 52.6266ZM22.1324 54.7801C24.0321 54.6542 25.7835 53.8025 27.4428 52.6266L25.7082 50.1789C24.2719 51.1967 23.0556 51.7123 21.9339 51.7867L22.1324 54.7801ZM21.6481 54.7962C21.8101 54.7962 21.9715 54.7908 22.1323 54.7801L21.934 51.7867C21.8384 51.793 21.7432 51.7962 21.6481 51.7962V54.7962ZM16.6888 52.4961C17.993 53.8361 19.777 54.7962 21.6481 54.7962V51.7962C20.792 51.7962 19.7394 51.3291 18.8386 50.4037L16.6888 52.4961ZM14.5 47.648C14.5 49.3772 15.3866 51.1581 16.6888 52.4961L18.8386 50.4037C17.9287 49.4688 17.5 48.4009 17.5 47.648L14.5 47.648ZM21.6455 53.7962C20.114 53.7953 18.5748 53.0001 17.4054 51.7986L15.2556 53.8911C16.8253 55.5038 19.0949 56.7948 21.6438 56.7962L21.6455 53.7962ZM17.4054 51.7986C16.2336 50.5947 15.5 49.0514 15.5 47.648L12.5 47.648C12.5 50.0305 13.694 52.2866 15.2556 53.8911L17.4054 51.7986ZM15.5 47.648C15.5 46.2447 16.2337 44.7014 17.4054 43.4975L15.2556 41.4051C13.694 43.0095 12.5 45.2655 12.5 47.648L15.5 47.648ZM17.4054 43.4975C18.5755 42.2954 20.1157 41.5 21.6481 41.5V38.5C19.0974 38.5 16.8262 39.7915 15.2556 41.4051L17.4054 43.4975ZM21.6481 41.5C23.4435 41.5 25.2207 42.2701 27.0296 43.4919L28.7087 41.0058C26.6795 39.6352 24.3051 38.5 21.6481 38.5V41.5ZM27.0296 43.4919C28.5332 44.5074 30.0317 45.8168 31.5513 47.1989L33.5698 44.9795C32.0452 43.5929 30.4079 42.1534 28.7087 41.0058L27.0296 43.4919ZM33.587 47.183C35.0525 45.8078 36.5275 44.5058 38.0655 43.4954L36.4184 40.9881C34.6529 42.1478 33.0222 43.5989 31.5341 44.9954L33.587 47.183ZM38.0655 43.4954C38.119 43.4603 38.1723 43.4256 38.2256 43.3914L36.6053 40.8666C36.5426 40.9069 36.4803 40.9474 36.4184 40.9881L38.0655 43.4954ZM38.2319 43.3874C40.0115 42.2327 41.8431 41.5 43.8085 41.5V38.5C41.0648 38.5 38.6657 39.5298 36.599 40.8707L38.2319 43.3874ZM43.8085 41.5C43.8042 41.5 43.8 41.4999 43.7957 41.4998L43.8754 38.5009C43.8531 38.5003 43.8308 38.5 43.8085 38.5V41.5ZM43.8483 41.5003C43.8721 41.5001 43.896 41.5 43.9198 41.5V38.5C43.8874 38.5 43.8551 38.5001 43.8228 38.5004L43.8483 41.5003ZM43.9198 41.5C45.4522 41.5 46.9924 42.2954 48.1625 43.4975L50.3123 41.4051C48.7417 39.7915 46.4705 38.5 43.9198 38.5V41.5ZM48.1625 43.4975C49.3343 44.7014 50.0679 46.2447 50.0679 47.648L53.0679 47.648C53.0679 45.2655 51.8739 43.0095 50.3123 41.4051L48.1625 43.4975ZM50.0679 47.648C50.0679 49.0514 49.3343 50.5947 48.1625 51.7986L50.3123 53.8911C51.8739 52.2866 53.0679 50.0305 53.0679 47.648L50.0679 47.648ZM48.1625 51.7986C46.9924 53.0008 45.4522 53.7962 43.9198 53.7962V56.7962C46.4705 56.7962 48.7418 55.5047 50.3123 53.8911L48.1625 51.7986ZM43.9198 53.7962C42.1244 53.7962 40.3472 53.0261 38.5383 51.8043L36.8592 54.2904C38.8885 55.661 41.2628 56.7962 43.9198 56.7962V53.7962ZM38.5383 51.8043C36.8975 50.6961 35.2682 49.2423 33.6129 47.729L31.5887 49.9433C33.2313 51.4448 35.0113 53.0424 36.8592 54.2904L38.5383 51.8043ZM31.5661 47.7502C29.9804 49.261 28.4424 50.7075 26.8799 51.8102L28.6097 54.2613C30.3815 53.0108 32.0748 51.4091 33.6355 49.9221L31.5661 47.7502ZM26.8799 51.8102C25.3093 52.9185 23.7481 53.6547 22.1306 53.7778L22.3583 56.7692C24.7358 56.5882 26.8199 55.5243 28.6097 54.2613L26.8799 51.8102ZM22.1306 53.7778C21.9847 53.7889 21.838 53.7951 21.6904 53.7961L21.7104 56.796C21.9284 56.7946 22.1443 56.7855 22.3583 56.7692L22.1306 53.7778ZM21.6904 53.7961C21.6763 53.7962 21.6622 53.7962 21.6481 53.7962V56.7962C21.6689 56.7962 21.6897 56.7961 21.7104 56.796L21.6904 53.7961ZM21.6481 53.7962C21.6479 53.7962 21.6476 53.7962 21.647 53.7962C21.6465 53.7962 21.6456 53.7962 21.6447 53.7962V56.7962C21.6449 56.7962 21.6451 56.7962 21.6458 56.7962C21.6463 56.7962 21.6472 56.7962 21.6481 56.7962V53.7962ZM33.0444 48.5641C34.655 50.0344 36.297 51.4973 37.9786 52.633L39.6577 50.147C38.181 49.1496 36.6875 47.8278 35.067 46.3485L33.0444 48.5641ZM37.9786 52.633C39.861 53.9044 41.8372 54.7962 43.9198 54.7962V51.7962C42.6987 51.7962 41.3195 51.2693 39.6577 50.147L37.9786 52.633ZM43.9198 54.7962C45.7909 54.7962 47.5749 53.8361 48.8791 52.4961L46.7293 50.4037C45.8285 51.3291 44.7759 51.7962 43.9198 51.7962V54.7962ZM48.8791 52.4961C50.1814 51.1581 51.0679 49.3772 51.0679 47.648L48.0679 47.648C48.0679 48.4009 47.6392 49.4688 46.7293 50.4037L48.8791 52.4961ZM51.0679 47.648C51.0679 45.9189 50.1814 44.138 48.8791 42.8001L46.7293 44.8925C47.6392 45.8273 48.0679 46.8952 48.0679 47.648L51.0679 47.648ZM48.8791 42.8001C47.5749 41.4601 45.7909 40.5 43.9198 40.5V43.5C44.7759 43.5 45.8285 43.9671 46.7293 44.8925L48.8791 42.8001ZM43.9198 40.5C41.6418 40.5 39.5861 41.3305 37.688 42.5483L39.308 45.0733C40.909 44.0462 42.4033 43.5 43.9198 43.5V40.5ZM37.681 42.5528C37.626 42.5885 37.571 42.6246 37.5162 42.6611L39.1762 45.1599C39.2226 45.1291 39.2688 45.0987 39.315 45.0688L37.681 42.5528ZM37.5162 42.6611C35.9451 43.7047 34.4614 45.0206 33.0301 46.3617L35.0814 48.5509C36.4919 47.2292 37.8246 46.0578 39.1762 45.1599L37.5162 42.6611Z" fill="url(#paint2_linear_573_34)"/>
<defs>
<linearGradient id="paint0_linear_573_34" x1="31.9956" y1="61.5" x2="31.9956" y2="10.5" gradientUnits="userSpaceOnUse">
<stop stop-color="#02AA93"/>
<stop offset="1" stop-color="#67FF80"/>
</linearGradient>
<linearGradient id="paint1_linear_573_34" x1="32.7839" y1="40" x2="32.7839" y2="55.2962" gradientUnits="userSpaceOnUse">
<stop stop-color="#00FFE0"/>
<stop offset="1" stop-color="#078AA7"/>
</linearGradient>
<linearGradient id="paint2_linear_573_34" x1="19.5017" y1="53.0561" x2="27.057" y2="34.5003" gradientUnits="userSpaceOnUse">
<stop stop-color="#0072FF"/>
<stop offset="1" stop-color="#00E5A1"/>
</linearGradient>
</defs>
</svg>
