<svg width="128" height="128" viewBox="0 0 128 128" fill="none" xmlns="http://www.w3.org/2000/svg">
<path d="M51.556 73.924C51.7591 74.0702 52.037 73.9893 52.1585 73.7705C52.0376 73.9896 52.1165 74.268 52.3483 74.3624C53.4692 74.8192 54.7712 74.7358 55.8473 74.0616L83.0344 57.0696C84.1591 56.3663 84.8438 55.1325 84.8438 53.8047C84.8438 52.4769 84.1592 51.2431 83.0345 50.5397L55.8482 33.5484C55.8481 33.5483 55.8483 33.5484 55.8482 33.5484C54.6593 32.7998 53.1515 32.7652 51.9385 33.4427C50.713 34.1231 49.9531 35.4131 49.9531 36.8125V70.7969C49.9531 72.0443 50.5569 73.2047 51.556 73.924ZM23.2188 88.2422H30.9609C32.0655 88.2422 32.9609 89.1376 32.9609 90.2422V91.1875C32.9609 93.3162 34.6838 95.0391 36.8125 95.0391C38.9412 95.0391 40.6641 93.3162 40.6641 91.1875V90.2422C40.6641 89.1376 41.5595 88.2422 42.6641 88.2422H104.781C106.91 88.2422 108.633 86.5193 108.633 84.3906C108.633 82.2619 106.91 80.5391 104.781 80.5391H42.6641C41.5595 80.5391 40.6641 79.6436 40.6641 78.5391V77.5938C40.6641 75.4651 38.9412 73.7422 36.8125 73.7422C34.6838 73.7422 32.9609 75.4651 32.9609 77.5938V78.5391C32.9609 79.6436 32.0655 80.5391 30.9609 80.5391H23.2188C21.0901 80.5391 19.3672 82.2619 19.3672 84.3906C19.3672 86.5193 21.0901 88.2422 23.2188 88.2422ZM60.7161 61.9342C59.384 62.7666 57.6562 61.8089 57.6562 60.2381V47.3713C57.6562 45.8005 59.384 44.8428 60.7161 45.6752L71.0111 52.1086C72.2646 52.8919 72.2646 54.7174 71.0111 55.5008L60.7161 61.9342ZM118.602 19.3672H9.39844C7.26976 19.3672 5.54688 21.0901 5.54688 23.2188V104.781C5.54688 106.91 7.26976 108.633 9.39844 108.633H118.602C120.73 108.633 122.453 106.91 122.453 104.781V23.2188C122.453 21.0901 120.73 19.3672 118.602 19.3672ZM114.75 98.9297C114.75 100.034 113.855 100.93 112.75 100.93H15.25C14.1454 100.93 13.25 100.034 13.25 98.9297V29.0703C13.25 27.9657 14.1454 27.0703 15.25 27.0703H112.75C113.855 27.0703 114.75 27.9657 114.75 29.0703V98.9297Z" fill="url(#paint0_linear_637_173)"/>
<path d="M55.8482 33.5484L83.0345 50.5397C84.1592 51.2431 84.8438 52.4769 84.8438 53.8047C84.8438 55.1325 84.1591 56.3663 83.0344 57.0696L55.8473 74.0616C54.7712 74.7358 53.4692 74.8192 52.3483 74.3624C52.1165 74.268 52.0376 73.9896 52.1585 73.7705C52.037 73.9893 51.7591 74.0702 51.556 73.924C50.5569 73.2047 49.9531 72.0443 49.9531 70.7969V36.8125C49.9531 35.4131 50.713 34.1231 51.9385 33.4427C53.1515 32.7652 54.6593 32.7998 55.8482 33.5484ZM55.8482 33.5484C55.8481 33.5483 55.8483 33.5484 55.8482 33.5484ZM23.2188 88.2422H30.9609C32.0655 88.2422 32.9609 89.1376 32.9609 90.2422V91.1875C32.9609 93.3162 34.6838 95.0391 36.8125 95.0391C38.9412 95.0391 40.6641 93.3162 40.6641 91.1875V90.2422C40.6641 89.1376 41.5595 88.2422 42.6641 88.2422H104.781C106.91 88.2422 108.633 86.5193 108.633 84.3906C108.633 82.2619 106.91 80.5391 104.781 80.5391H42.6641C41.5595 80.5391 40.6641 79.6436 40.6641 78.5391V77.5938C40.6641 75.4651 38.9412 73.7422 36.8125 73.7422C34.6838 73.7422 32.9609 75.4651 32.9609 77.5938V78.5391C32.9609 79.6436 32.0655 80.5391 30.9609 80.5391H23.2188C21.0901 80.5391 19.3672 82.2619 19.3672 84.3906C19.3672 86.5193 21.0901 88.2422 23.2188 88.2422ZM118.602 19.3672H9.39844C7.26976 19.3672 5.54688 21.0901 5.54688 23.2188V104.781C5.54688 106.91 7.26976 108.633 9.39844 108.633H118.602C120.73 108.633 122.453 106.91 122.453 104.781V23.2188C122.453 21.0901 120.73 19.3672 118.602 19.3672ZM112.75 27.0703H15.25C14.1454 27.0703 13.25 27.9657 13.25 29.0703V98.9297C13.25 100.034 14.1454 100.93 15.25 100.93H112.75C113.855 100.93 114.75 100.034 114.75 98.9297V29.0703C114.75 27.9657 113.855 27.0703 112.75 27.0703ZM71.0111 52.1086L60.7161 45.6752C59.384 44.8428 57.6562 45.8005 57.6562 47.3713V60.2381C57.6562 61.8089 59.384 62.7666 60.7161 61.9342L71.0111 55.5008C72.2646 54.7174 72.2646 52.8919 71.0111 52.1086Z" stroke="url(#paint1_linear_637_173)" stroke-width="3"/>
<defs>
<linearGradient id="paint0_linear_637_173" x1="26.7361" y1="98.0945" x2="83.5336" y2="28.6252" gradientUnits="userSpaceOnUse">
<stop stop-color="#FE0844"/>
<stop offset="1" stop-color="#FEF402"/>
</linearGradient>
<linearGradient id="paint1_linear_637_173" x1="26.7361" y1="98.0945" x2="83.5336" y2="28.6252" gradientUnits="userSpaceOnUse">
<stop stop-color="#FE0844"/>
<stop offset="1" stop-color="#FEF402"/>
</linearGradient>
</defs>
</svg>
