<svg width="192" height="192" viewBox="0 0 192 192" fill="none" xmlns="http://www.w3.org/2000/svg">
<path d="M158.164 9.14004L158.157 9.14128L158.151 9.14261C147.361 11.2543 136.561 13.3339 125.758 15.414C108.311 18.7733 90.8571 22.134 73.4314 25.6336C70.6455 25.8009 68.4361 27.4078 66.9852 29.5024C65.5337 31.5977 64.7808 34.2574 64.9301 36.7091C64.9485 48.2829 64.9455 59.8592 64.9425 71.4366C64.938 89.2164 64.9334 106.998 65.0063 124.778C57.6935 120.701 48.7395 119.722 40.7046 122.113C28.6324 125.555 19.2747 136.697 18.1957 149.187C16.9201 160.082 21.9651 171.338 30.8471 177.801C38.8573 183.771 49.807 185.644 59.342 182.476C68.9633 179.511 76.7056 171.627 79.8135 162.156C81.2246 158.891 81.519 155.489 81.4843 152.149C81.4683 150.618 81.3825 149.081 81.2985 147.573C81.2904 147.429 81.2825 147.288 81.2746 147.145C81.183 145.49 81.1014 143.872 81.1159 142.282V142.273C81.1205 134.374 81.1199 126.477 81.1193 118.58C81.1184 105.678 81.1175 92.7796 81.1385 79.8844C85.6332 78.9241 90.1786 78.2186 94.7571 77.5081L94.8004 77.5014C99.6403 76.7502 104.517 75.9924 109.347 74.9228L109.351 74.9221C112.503 74.213 115.698 73.7151 118.929 73.2117C119.307 73.1527 119.685 73.0936 120.065 73.0342C123.67 72.4691 127.31 71.8666 130.892 70.9276L130.913 70.9223L130.932 70.9163C132.858 70.3223 134.626 69.0017 135.764 67.3119C136.908 65.6131 137.453 63.4767 136.783 61.3088L136.757 61.2249L136.716 61.1471C135.849 59.4844 134.495 57.8413 132.817 56.7495C131.138 55.6561 129.085 55.0905 126.901 55.7074C125.576 55.9706 124.256 56.2406 122.939 56.5101C117.52 57.6185 112.149 58.717 106.688 59.2933L106.661 59.2961L106.634 59.3004C103.069 59.8795 99.5225 60.5725 95.9943 61.2619C95.0945 61.4377 94.196 61.6133 93.2987 61.7867C89.2353 62.5717 85.1874 63.3141 81.1123 63.8447C81.1378 60.0505 81.1338 56.2591 81.1298 52.4721L81.1294 52.0241C81.1252 47.9839 81.1223 43.9486 81.1565 39.9119C83.1567 39.5342 85.1573 39.1567 87.1581 38.7793C110.462 34.3825 133.794 29.9805 157.032 25.1451C157.12 40.2812 157.106 55.3928 157.094 70.5066C157.082 83.5586 157.071 96.6122 157.125 109.684C148.306 105.616 137.341 106.392 129.45 112.256C120.344 118.626 116.046 130.821 119.124 141.45C121.679 151.151 130.077 159.01 139.976 160.921C148.79 162.777 158.373 159.852 164.673 153.467C171.064 147.156 173.574 137.842 172.924 129.196C172.878 108.483 172.89 87.7709 172.902 67.0583C172.912 50.2314 172.922 33.4038 172.901 16.5735C173.199 13.0044 170.516 10.3026 168.078 8.74288L168.02 8.706L167.957 8.67763C166.219 7.88549 164.453 7.90291 162.81 8.15229C161.991 8.2767 161.179 8.4627 160.407 8.64492C160.32 8.66534 160.234 8.6857 160.149 8.70594C159.46 8.86898 158.807 9.02373 158.164 9.14004ZM141.027 123.338L141.04 123.333L141.051 123.328C144.357 121.846 148.191 122.326 151.299 124.146C154.407 125.966 156.674 129.056 156.944 132.651L156.948 132.71L156.959 132.767C157.668 136.342 156.286 139.937 153.746 142.513C151.205 145.09 147.597 146.554 143.983 145.971L143.953 145.966L143.923 145.963C137.297 145.32 132.286 138.283 133.852 131.859L133.856 131.842L133.859 131.826C134.637 128.066 137.449 124.825 141.027 123.338ZM44.5916 136.985L44.5992 136.982L44.6066 136.98C52.4541 134.266 62.1448 138.674 64.6409 146.568C65.1932 150.404 65.1199 154.372 64.7425 158.287C62.1244 165.887 53.0494 170.38 45.2851 168.044L45.2683 168.038L45.2514 168.034C37.403 165.98 32.0299 157.408 33.6883 149.495L33.691 149.481L33.6934 149.469C34.7274 143.756 39.0578 138.797 44.5916 136.985Z" fill="url(#paint0_linear)" stroke="url(#paint1_linear)" stroke-width="2"/>
<defs>
<linearGradient id="paint0_linear" x1="95.5117" y1="184" x2="95.5117" y2="8" gradientUnits="userSpaceOnUse">
<stop stop-color="#FD3A84"/>
<stop offset="1" stop-color="#FFA68D"/>
</linearGradient>
<linearGradient id="paint1_linear" x1="95.5117" y1="184" x2="95.5117" y2="8" gradientUnits="userSpaceOnUse">
<stop stop-color="#FD3A84"/>
<stop offset="1" stop-color="#FFA68D"/>
</linearGradient>
</defs>
</svg>
