<svg width="128" height="128" viewBox="0 0 128 128" fill="none" xmlns="http://www.w3.org/2000/svg">
<g clip-path="url(#clip0)">
<path fill-rule="evenodd" clip-rule="evenodd" d="M51.8093 29.3252C50.1507 26.6675 51.6613 22.9482 55.1818 21.025C58.7006 19.103 62.9054 19.7003 64.5641 22.358C66.2235 25.0168 64.7128 28.7363 61.1941 30.6584C57.6736 32.5815 53.4688 31.9841 51.8093 29.3252ZM34.1488 48L34.2006 47.8995C36.0736 44.2654 40.9946 41.8005 45.1786 42.3973L55.825 43.9167C57.9174 44.2139 60.6517 43.0706 61.9269 41.3629L73.9958 25.2087C74.6339 24.3555 74.7663 23.0455 74.2925 22.2863L69.2765 14.2494C67.8544 11.9707 64.2498 11.4575 61.2327 13.1055L13.8582 38.9837C10.8412 40.6318 9.5473 43.8208 10.9695 46.0995L21 62.1711V77.8304L1.9625 47.3271C-0.407252 43.5302 1.74952 38.2167 6.7785 35.4696L61.4414 5.61012C66.4703 2.86305 72.4766 3.71748 74.8463 7.51449L82.3295 19.5047L116.913 19.0014C122.748 18.9165 127.519 22.6676 127.564 27.3709L127.711 42.9856C127.729 44.8679 126.107 47.1769 124.088 48.1404L114.997 52.4802C114.902 49.9897 112.865 48 110.367 48H107.866L117.423 43.4367C118.432 42.9557 119.243 41.8005 119.234 40.8602L119.14 30.9048C119.113 28.0822 116.25 25.8306 112.749 25.8816L81.8476 26.3313L67.3149 45.7789C66.7081 46.5906 65.9366 47.3388 65.0566 48H34.1488ZM89.608 48H98.9995C98.9872 46.834 98.6774 45.6982 98.0376 44.6729L90.3072 32.2872C89.3589 30.7676 86.9572 30.4264 84.9453 31.5254C82.9334 32.6244 82.0705 34.7489 83.0189 36.2684L89.0312 45.9017C89.4337 46.5466 89.6184 47.2646 89.608 48ZM115 75.0866V82.1121L117.51 82.0756C123.344 81.9908 128.044 78.1018 128 73.3985L127.854 58.0565C127.836 56.1742 125.928 54.6748 123.594 54.7087C121.259 54.7427 119.38 56.2973 119.397 58.1796L119.511 70.1122C119.532 72.4336 117.627 74.4255 115 75.0866ZM103.277 30.2824C99.1922 30.3419 95.9021 33.0637 95.9332 36.3557C95.9644 39.6492 99.3057 42.2746 103.39 42.2152C107.473 42.1557 110.763 39.4339 110.732 36.1403C110.701 32.8483 107.359 30.2231 103.277 30.2824Z" fill="url(#paint0_linear)"/>
<path fill-rule="evenodd" clip-rule="evenodd" d="M80.375 66.3508C80.375 62.2276 84.4136 58.879 89.3887 58.879C94.3614 58.879 98.4 62.2276 98.4 66.3508C98.4 70.476 94.3614 73.8246 89.3887 73.8246C84.4136 73.8246 80.375 70.476 80.375 66.3508ZM26.3 92.8278L49.5996 76.7124C53.9639 73.6915 60.7715 73.9497 64.7885 77.2844L75.0094 85.7711C77.0191 87.4375 80.6529 87.8426 83.1201 86.6728L106.465 75.6101C107.699 75.0262 108.7 73.5942 108.7 72.4164V59.9476C108.7 56.4123 105.239 53.5403 100.975 53.5403H34.025C29.7613 53.5403 26.3 56.4123 26.3 59.9476V92.8278ZM108.7 94.1089C108.7 91.7513 111.007 89.8387 113.85 89.8387C116.693 89.8387 119 91.7513 119 94.1089V113.325C119 119.215 113.232 124 106.125 124H28.875C21.768 124 16 119.215 16 113.325V55.6754C16 49.7846 21.768 45 28.875 45H106.125C113.232 45 119 49.7846 119 55.6754V75.2328C119 77.5903 116.997 80.4523 114.528 81.6221L85.8939 95.1873C80.9571 97.525 73.6848 96.721 69.663 93.3899L60.5343 85.8307C58.5246 84.1663 55.1184 84.0372 52.9339 85.5467L29.596 101.666L26.3 103.928V109.054C26.3 112.588 29.7613 115.46 34.025 115.46H100.975C105.239 115.46 108.7 112.588 108.7 109.054V94.1089Z" fill="url(#paint1_linear)"/>
</g>
<defs>
<linearGradient id="paint0_linear" x1="18.4946" y1="68.796" x2="89.0868" y2="27.7342" gradientUnits="userSpaceOnUse">
<stop stop-color="#FD5900"/>
<stop offset="1" stop-color="#FFDE00"/>
</linearGradient>
<linearGradient id="paint1_linear" x1="67.5" y1="124" x2="67.5" y2="45" gradientUnits="userSpaceOnUse">
<stop stop-color="#FD5900"/>
<stop offset="1" stop-color="#FFDE00"/>
</linearGradient>
<clipPath id="clip0">
<rect width="128" height="128" fill="white"/>
</clipPath>
</defs>
</svg>
