<svg width="128" height="128" viewBox="0 0 128 128" fill="none" xmlns="http://www.w3.org/2000/svg">
<path d="M115.994 84.5984C120.696 67.344 116.287 49.162 104.173 35.8987C104.905 34.2772 105.203 32.4924 104.965 30.6882C104.625 28.1071 103.293 25.8115 101.206 24.2259C79.7943 7.92784 48.8218 7.92156 27.4162 24.2259C23.8916 26.9047 22.5329 31.6543 24.4501 35.8974C12.4391 49.0503 7.99924 67.0721 12.5275 84.2088C8.74585 86.6159 6.99056 91.3681 8.59316 95.719L13.0825 107.924C14.9401 112.967 20.5685 115.595 25.6983 113.745L29.3907 112.416C30.3099 113.517 31.4047 114.462 32.7514 115.083C35.0737 116.152 37.7449 116.321 40.2785 115.407C42.7492 114.516 44.7199 112.728 45.8319 110.372C46.9438 108.013 47.0591 105.368 46.1587 102.923L37.1832 78.5141C36.2828 76.0694 34.4754 74.1162 32.0914 73.0159C29.7074 71.9189 27.0349 71.7983 24.5673 72.6926C22.0967 73.5835 20.1229 75.3719 19.0109 77.7279C18.6369 78.5221 18.4177 79.3533 18.27 80.1936C15.3271 66.0389 19.2706 51.4504 29.0236 40.5665C32.9236 42.5086 36.7257 41.7269 39.4199 39.6684C53.7628 28.7416 74.8594 28.7416 89.2025 39.6684C92.1936 41.9475 96.3103 42.1337 99.5956 40.5634C109.766 51.9048 113.578 67.2472 109.917 81.9362L109.886 81.9251C109.899 80.4934 109.626 79.065 108.996 77.7281C107.884 75.3721 105.91 73.5837 103.44 72.6928C100.969 71.8081 98.2966 71.9191 95.9126 73.0162C93.5317 74.1164 91.7243 76.0696 90.8239 78.5143L81.8451 102.923C80.9447 105.368 81.06 108.013 82.1719 110.372C83.8673 113.964 87.4558 116 91.0996 116C92.5191 116 93.9322 115.692 95.2557 115.084C96.6008 114.462 97.6946 113.517 98.6136 112.416L102.306 113.746C107.358 115.568 113.042 113.044 114.921 107.924L119.411 95.7192C120.935 91.5806 119.399 87.1007 115.994 84.5984ZM26.8137 78.7931C28.5412 78.1784 30.4004 79.0633 31.018 80.7337L39.9935 105.143C40.6067 106.82 39.75 108.684 38.0324 109.306C38.0324 109.306 38.0324 109.306 38.0291 109.306C36.2716 109.934 34.4319 109.008 33.8248 107.366L24.8493 82.9563C24.2331 81.2714 25.1 79.4109 26.8137 78.7931ZM19.8057 88.2263L26.5381 106.535L23.4554 107.645C21.7539 108.247 19.8665 107.385 19.2481 105.704L14.7588 93.4994C14.1456 91.8224 15.0023 89.9578 16.7199 89.3361L19.8057 88.2263ZM97.8031 33.9289C96.736 35.3019 94.6018 35.5872 93.2016 34.5187C76.5097 21.8037 52.1191 21.8037 35.4143 34.525C33.9602 35.6307 31.9068 35.3294 30.8191 33.9289C29.702 32.4924 29.9938 30.4566 31.4152 29.3756C40.9451 22.1206 52.5813 18.4934 63.9986 18.4934C75.4159 18.4934 87.6771 22.1208 97.207 29.3756C98.6304 30.4579 98.919 32.4944 97.8031 33.9289ZM94.1788 107.366C93.5544 109.054 91.6832 109.912 89.9714 109.306C88.2518 108.684 87.3978 106.818 88.0103 105.143L96.9891 80.7337C97.6007 79.0793 99.4422 78.1743 101.196 78.7931C102.916 79.4154 103.77 81.2814 103.158 82.9563L94.1788 107.366ZM113.245 93.4994L108.753 105.704C108.137 107.388 106.277 108.251 104.552 107.645L101.469 106.535L108.201 88.2263L111.15 89.2881C111.165 89.2933 111.175 89.3056 111.191 89.3106C111.204 89.3149 111.218 89.313 111.231 89.3169L111.284 89.3359C113.004 89.9585 113.858 91.8244 113.245 93.4994Z" fill="url(#paint0_linear_644_133)" stroke="url(#paint1_linear_644_133)" stroke-width="3"/>
<defs>
<linearGradient id="paint0_linear_644_133" x1="64.1618" y1="94.9659" x2="72.4065" y2="19.3559" gradientUnits="userSpaceOnUse">
<stop stop-color="#B400CF"/>
<stop offset="1" stop-color="#339DFF"/>
</linearGradient>
<linearGradient id="paint1_linear_644_133" x1="64.1618" y1="94.9659" x2="72.4065" y2="19.3559" gradientUnits="userSpaceOnUse">
<stop stop-color="#B400CF"/>
<stop offset="1" stop-color="#339DFF"/>
</linearGradient>
</defs>
</svg>
