<svg width="192" height="192" viewBox="0 0 192 192" fill="none" xmlns="http://www.w3.org/2000/svg">
<path d="M119.132 44.4492C130.805 35.004 150.1 39.8321 156.602 53.2851C158.971 58.4999 161.866 66.328 156.718 70.7343C153.882 72.5858 149.75 72.1522 147.66 69.3866C145.443 66.8085 146.727 63.1171 145.139 60.246C142.419 53.5195 133.373 50.7187 127.361 54.8086C126.673 52.9687 124.688 52.8398 123.439 51.7148C122.225 49.1719 121.233 46.4414 119.132 44.4492Z" fill="url(#paint0_linear_678_374)"/>
<path d="M118.934 44.2852L119.132 44.4492C121.233 46.4414 122.225 49.1719 123.439 51.7148C124.688 52.8398 126.673 52.9687 127.362 54.8085C123.498 57.2226 121.478 61.7812 121.548 66.2577C121.058 70.9217 115.012 73.535 111.265 70.7342C108.137 68.7538 108.066 64.6991 108.615 61.4413C109.526 54.5976 113.506 48.4336 118.934 44.2852Z" fill="url(#paint1_linear_678_374)"/>
<path d="M132.743 62.0155C136.898 60.8553 140.995 65.8358 138.812 69.6678C137.283 73.4529 131.377 73.8162 129.404 70.2772C127.21 67.3241 129.194 62.66 132.743 62.0155Z" fill="url(#paint2_linear_678_374)"/>
<path d="M39.7344 82.9685C49.2476 72.0584 67.7839 72.5389 77.2505 83.2849C78.4411 83.7771 80.0636 83.742 80.7523 85.0427C82.5966 87.6794 85.2697 89.5544 87.3007 92.0271C84.9545 94.4529 83.6938 97.8278 83.7989 101.203C83.7639 108.34 83.7989 115.488 83.7756 122.625C80.834 122.027 79.9119 118.957 78.3244 116.824C77.0521 114.586 74.6825 113.425 72.7565 111.855C70.5504 108.175 72.6631 103.453 70.5037 99.7145C70.1652 89.824 56.8699 84.492 49.9247 91.5701C46.0727 89.2498 43.2829 85.6638 39.7344 82.9685Z" fill="url(#paint3_linear_678_374)"/>
<path d="M77.2505 83.2849C83.5304 76.113 94.0714 73.2068 103.164 75.9255C113.273 78.7146 121.082 88.3122 121.583 98.8473C121.747 107.191 121.607 115.535 121.665 123.867C119.996 121.253 120.906 117.937 119.599 115.218C118.607 112.769 115.245 113.566 113.716 111.761C112.187 109.863 110.576 108.011 108.37 106.875C108.323 102.14 109.024 96.7614 105.627 92.9176C101.343 87.2106 92.1215 86.7771 87.3007 92.0271C85.2697 89.5544 82.5966 87.6794 80.7523 85.0427C80.0636 83.742 78.4411 83.7771 77.2505 83.2849Z" fill="url(#paint4_linear_678_374)"/>
<path d="M149.948 75.5388C151.664 74.8474 153.532 74.742 155.294 75.363C157.337 76.1248 158.784 77.9529 159.391 80.0271C159.672 91.4528 159.45 102.89 159.508 114.316C155.633 113.168 154.36 109.066 151.559 106.582C149.715 104.847 147.812 103.16 146.19 101.203C146.178 94.5934 146.19 87.9841 146.19 81.363C146.225 78.8904 147.8 76.6638 149.948 75.5388Z" fill="url(#paint5_linear_678_374)"/>
<path d="M32.6023 110.308C32.2054 100.828 32.2872 89.9411 39.7344 82.9685C43.2829 85.6638 46.0727 89.2498 49.9247 91.5701C47.31 94.0193 45.839 97.5583 45.9324 101.144C45.8974 108.211 45.9442 115.277 45.9092 122.343C41.2751 119.8 36.3025 116.707 34.8784 111.234C34.3182 111 33.1742 110.543 32.6023 110.308Z" fill="url(#paint6_linear_678_374)"/>
<path d="M70.5037 99.7145C72.6631 103.453 70.5504 108.175 72.7565 111.855C74.6825 113.425 77.0521 114.586 78.3244 116.824C79.9119 118.957 80.834 122.027 83.7756 122.625C83.7873 129.175 83.7991 135.738 83.7641 142.289C83.8108 145.652 80.8109 148.675 77.4608 148.722C73.9123 149.027 70.5856 145.921 70.5272 142.371C70.4572 128.156 70.527 113.929 70.5037 99.7145Z" fill="url(#paint7_linear_678_374)"/>
<path d="M146.19 101.203C147.812 103.16 149.715 104.847 151.559 106.582C154.36 109.066 155.633 113.168 159.508 114.316C160.185 124.113 159.193 135.175 151.221 141.972C149.446 140.953 148.629 139.101 147.555 137.46C145.618 136.007 143.785 134.414 142.711 132.175L142.571 131.847C144.614 129.574 146.085 126.679 146.143 123.562C146.248 116.109 146.143 108.656 146.19 101.203Z" fill="url(#paint8_linear_678_374)"/>
<path d="M108.37 106.875C110.576 108.011 112.187 109.863 113.716 111.761C115.245 113.566 118.607 112.769 119.599 115.218C120.906 117.937 119.996 121.254 121.665 123.867C121.864 133.605 135.299 139.382 141.952 132.047L142.711 132.175C143.785 134.414 145.618 136.006 147.555 137.46C148.629 139.1 149.447 140.953 151.221 141.972C144.136 148.652 133.128 150.621 124.186 146.789C115.292 143.214 108.86 134.226 108.417 124.605C108.288 118.699 108.393 112.781 108.37 106.875Z" fill="url(#paint9_linear_678_374)"/>
<path d="M32.6023 110.308C33.1742 110.543 34.3182 111 34.8784 111.234C36.3025 116.707 41.2751 119.8 45.9092 122.343C45.8975 129.375 45.9794 136.417 45.8627 143.46C45.244 146.226 42.8511 148.558 39.9679 148.722C36.2443 149.238 32.5908 146.015 32.6375 142.23C32.5674 131.589 32.6256 120.949 32.6023 110.308Z" fill="url(#paint10_linear_678_374)"/>
<path d="M13.6575 26.6017C17.1827 17.8947 25.7738 11.4377 35.1937 11.051C44.4969 10.9573 53.7883 11.0276 63.0915 11.0158C67.7022 15.2815 73.4919 18.7385 76.5502 24.3752C63.1966 24.3986 49.843 24.3752 36.4777 24.3869C31.4234 24.3634 26.7193 28.2306 25.6337 33.1759C25.4003 34.4298 25.3186 35.6954 25.3653 36.9728C23.7428 36.1056 21.6183 35.461 21.4316 33.2814C20.7896 29.6603 16.8792 28.5822 14.0777 27.1056L13.6575 26.6017Z" fill="url(#paint11_linear_678_374)"/>
<path d="M63.0915 11.0158C77.1105 11.0041 91.1293 11.004 105.137 11.0157C106.024 12.8556 106.654 15.0118 108.545 16.0899C111.627 18.0118 112.677 21.7032 114.918 24.3868C102.125 24.3868 89.3435 24.3986 76.5502 24.3752C73.4919 18.7385 67.7022 15.2815 63.0915 11.0158Z" fill="url(#paint12_linear_678_374)"/>
<path d="M105.137 11.0157C118.49 11.004 131.832 11.0157 145.174 11.004C148.034 10.8986 150.87 12.879 151.606 15.6798C152.96 19.4063 150.193 23.918 146.26 24.3047C135.813 24.4922 125.365 24.3399 114.918 24.3868C112.677 21.7032 111.627 18.0118 108.545 16.0899C106.654 15.0118 106.024 12.8556 105.137 11.0157Z" fill="url(#paint13_linear_678_374)"/>
<path d="M165.706 45.1405C165.671 41.7655 168.589 38.707 171.951 38.5898C175.546 38.2148 178.932 41.3319 179.048 44.9179C179.037 58.7576 179.048 72.5974 179.037 86.4372C176.644 86.0036 176.725 83.5895 176.364 81.7028C176.013 82.0544 175.301 82.7575 174.939 83.1091C172.208 80.9997 170.982 77.6599 169.033 74.9177C168.204 74.7185 166.523 74.3083 165.683 74.0974C165.683 64.4412 165.636 54.785 165.706 45.1405Z" fill="url(#paint14_linear_678_374)"/>
<path d="M13.4008 27.0353L14.0777 27.1056C16.8792 28.5822 20.7896 29.6603 21.4316 33.2814C21.6183 35.461 23.7428 36.1056 25.3653 36.9728C25.412 56.8594 25.377 76.7342 25.3886 96.6091C22.774 94.3357 19.1321 93.0584 17.8481 89.5545C17.2528 87.7615 15.2684 87.492 13.8443 86.6248C13.7509 85.2069 13.8326 83.6014 12.0234 83.285C12.0117 67.4062 12.0234 51.5273 12.0117 35.6485C11.9767 32.7188 12.7121 29.8595 13.4008 27.0353Z" fill="url(#paint15_linear_678_374)"/>
<path d="M165.683 74.0974C166.524 74.3084 168.204 74.7185 169.033 74.9177C170.983 77.6599 172.208 80.9998 174.94 83.1092C175.301 82.7577 176.014 82.0543 176.364 81.7028C176.725 83.5895 176.644 86.0036 179.037 86.4372C179.06 97.7458 179.013 109.043 179.06 120.351C177.344 119.25 175.488 118.382 173.842 117.175C173.866 116.379 173.901 115.582 173.947 114.785C173.434 114.808 172.43 114.855 171.916 114.879C169.745 113.484 168.333 111 165.683 110.332C165.66 98.2498 165.671 86.1794 165.683 74.0974Z" fill="url(#paint16_linear_678_374)"/>
<path d="M12.0234 83.285C13.8326 83.6014 13.7509 85.2069 13.8443 86.6248C15.2684 87.492 17.2528 87.7615 17.8481 89.5545C19.1321 93.0584 22.774 94.3357 25.3886 96.6091C25.3653 112.98 25.4236 129.363 25.3536 145.746C25.3536 149.109 22.4354 152.156 19.0737 152.226C15.4551 152.613 12.0934 149.425 12 145.828C12.0467 124.98 12.0001 104.132 12.0234 83.285Z" fill="url(#paint17_linear_678_374)"/>
<path d="M165.683 110.332C168.333 111 169.745 113.484 171.916 114.879C172.43 114.855 173.434 114.808 173.947 114.785C173.901 115.582 173.866 116.379 173.842 117.175C175.488 118.382 177.344 119.25 179.06 120.351C179.013 131.554 179.048 142.757 179.048 153.96C179.06 160.945 175.99 167.941 170.691 172.488C170.2 172.874 169.22 173.648 168.73 174.034C164.411 172.171 162.602 167.472 160.314 163.699L160.302 163.675C163.442 161.554 165.73 157.956 165.671 154.078C165.683 139.488 165.66 124.91 165.683 110.332Z" fill="url(#paint18_linear_678_374)"/>
<path d="M154.617 165.269C156.66 165.363 158.493 164.472 160.314 163.699C162.601 167.472 164.411 172.171 168.73 174.034C164.633 176.988 159.59 178.64 154.536 178.616C131.26 178.616 107.985 178.628 84.7094 178.616C83.0169 177.503 81.3126 176.437 79.6901 175.242C78.4879 173.531 78.7913 170.894 76.7603 169.816C75.5346 168.878 73.9472 168.749 72.5464 168.245C72.2313 167.507 71.6243 166.019 71.3208 165.269C99.0785 165.245 126.848 165.269 154.617 165.269Z" fill="url(#paint19_linear_678_374)"/>
<path d="M41.3569 177.374C36.5477 174.07 38.8589 165.574 44.7303 165.327C53.5899 165.175 62.4495 165.292 71.3208 165.269C71.6243 166.019 72.2313 167.507 72.5464 168.245C73.9472 168.749 75.5346 168.878 76.7603 169.816C78.7913 170.894 78.4878 173.53 79.6901 175.241C81.3126 176.437 83.0168 177.503 84.7094 178.616C71.741 178.628 58.7843 178.616 45.8276 178.628C44.1934 178.827 42.7226 178.159 41.3569 177.374Z" fill="url(#paint20_linear_678_374)"/>
<defs>
<linearGradient id="paint0_linear_678_374" x1="95.5291" y1="178.663" x2="95.5291" y2="10.9999" gradientUnits="userSpaceOnUse">
<stop stop-color="#5558FF"/>
<stop offset="1" stop-color="#00C0FF"/>
</linearGradient>
<linearGradient id="paint1_linear_678_374" x1="95.5291" y1="178.663" x2="95.5291" y2="10.9999" gradientUnits="userSpaceOnUse">
<stop stop-color="#5558FF"/>
<stop offset="1" stop-color="#00C0FF"/>
</linearGradient>
<linearGradient id="paint2_linear_678_374" x1="95.5291" y1="178.663" x2="95.5291" y2="10.9999" gradientUnits="userSpaceOnUse">
<stop stop-color="#5558FF"/>
<stop offset="1" stop-color="#00C0FF"/>
</linearGradient>
<linearGradient id="paint3_linear_678_374" x1="95.5291" y1="178.663" x2="95.5291" y2="10.9999" gradientUnits="userSpaceOnUse">
<stop stop-color="#5558FF"/>
<stop offset="1" stop-color="#00C0FF"/>
</linearGradient>
<linearGradient id="paint4_linear_678_374" x1="95.5291" y1="178.663" x2="95.5291" y2="10.9999" gradientUnits="userSpaceOnUse">
<stop stop-color="#5558FF"/>
<stop offset="1" stop-color="#00C0FF"/>
</linearGradient>
<linearGradient id="paint5_linear_678_374" x1="95.5291" y1="178.663" x2="95.5291" y2="10.9999" gradientUnits="userSpaceOnUse">
<stop stop-color="#5558FF"/>
<stop offset="1" stop-color="#00C0FF"/>
</linearGradient>
<linearGradient id="paint6_linear_678_374" x1="95.5291" y1="178.663" x2="95.5291" y2="10.9999" gradientUnits="userSpaceOnUse">
<stop stop-color="#5558FF"/>
<stop offset="1" stop-color="#00C0FF"/>
</linearGradient>
<linearGradient id="paint7_linear_678_374" x1="95.5291" y1="178.663" x2="95.5291" y2="10.9999" gradientUnits="userSpaceOnUse">
<stop stop-color="#5558FF"/>
<stop offset="1" stop-color="#00C0FF"/>
</linearGradient>
<linearGradient id="paint8_linear_678_374" x1="95.5291" y1="178.663" x2="95.5291" y2="10.9999" gradientUnits="userSpaceOnUse">
<stop stop-color="#5558FF"/>
<stop offset="1" stop-color="#00C0FF"/>
</linearGradient>
<linearGradient id="paint9_linear_678_374" x1="95.5291" y1="178.663" x2="95.5291" y2="10.9999" gradientUnits="userSpaceOnUse">
<stop stop-color="#5558FF"/>
<stop offset="1" stop-color="#00C0FF"/>
</linearGradient>
<linearGradient id="paint10_linear_678_374" x1="95.5291" y1="178.663" x2="95.5291" y2="10.9999" gradientUnits="userSpaceOnUse">
<stop stop-color="#5558FF"/>
<stop offset="1" stop-color="#00C0FF"/>
</linearGradient>
<linearGradient id="paint11_linear_678_374" x1="95.5291" y1="178.663" x2="95.5291" y2="10.9999" gradientUnits="userSpaceOnUse">
<stop stop-color="#5558FF"/>
<stop offset="1" stop-color="#00C0FF"/>
</linearGradient>
<linearGradient id="paint12_linear_678_374" x1="95.5291" y1="178.663" x2="95.5291" y2="10.9999" gradientUnits="userSpaceOnUse">
<stop stop-color="#5558FF"/>
<stop offset="1" stop-color="#00C0FF"/>
</linearGradient>
<linearGradient id="paint13_linear_678_374" x1="95.5291" y1="178.663" x2="95.5291" y2="10.9999" gradientUnits="userSpaceOnUse">
<stop stop-color="#5558FF"/>
<stop offset="1" stop-color="#00C0FF"/>
</linearGradient>
<linearGradient id="paint14_linear_678_374" x1="95.5291" y1="178.663" x2="95.5291" y2="10.9999" gradientUnits="userSpaceOnUse">
<stop stop-color="#5558FF"/>
<stop offset="1" stop-color="#00C0FF"/>
</linearGradient>
<linearGradient id="paint15_linear_678_374" x1="95.5291" y1="178.663" x2="95.5291" y2="10.9999" gradientUnits="userSpaceOnUse">
<stop stop-color="#5558FF"/>
<stop offset="1" stop-color="#00C0FF"/>
</linearGradient>
<linearGradient id="paint16_linear_678_374" x1="95.5291" y1="178.663" x2="95.5291" y2="10.9999" gradientUnits="userSpaceOnUse">
<stop stop-color="#5558FF"/>
<stop offset="1" stop-color="#00C0FF"/>
</linearGradient>
<linearGradient id="paint17_linear_678_374" x1="95.5291" y1="178.663" x2="95.5291" y2="10.9999" gradientUnits="userSpaceOnUse">
<stop stop-color="#5558FF"/>
<stop offset="1" stop-color="#00C0FF"/>
</linearGradient>
<linearGradient id="paint18_linear_678_374" x1="95.5291" y1="178.663" x2="95.5291" y2="10.9999" gradientUnits="userSpaceOnUse">
<stop stop-color="#5558FF"/>
<stop offset="1" stop-color="#00C0FF"/>
</linearGradient>
<linearGradient id="paint19_linear_678_374" x1="95.5291" y1="178.663" x2="95.5291" y2="10.9999" gradientUnits="userSpaceOnUse">
<stop stop-color="#5558FF"/>
<stop offset="1" stop-color="#00C0FF"/>
</linearGradient>
<linearGradient id="paint20_linear_678_374" x1="95.5291" y1="178.663" x2="95.5291" y2="10.9999" gradientUnits="userSpaceOnUse">
<stop stop-color="#5558FF"/>
<stop offset="1" stop-color="#00C0FF"/>
</linearGradient>
</defs>
</svg>
