<svg width="128" height="128" viewBox="0 0 128 128" fill="none" xmlns="http://www.w3.org/2000/svg">
<path d="M105.443 6.09336L105.438 6.09418L105.434 6.09507C98.2407 7.50286 91.0407 8.88926 83.8387 10.276C72.2073 12.5155 60.5714 14.756 48.9543 17.0891C47.097 17.2006 45.6241 18.2719 44.6568 19.6683C43.6891 21.0651 43.1872 22.8383 43.2867 24.4727C43.299 32.1886 43.297 39.9061 43.295 47.6244C43.292 59.4776 43.2889 71.332 43.3375 83.1853C38.4623 80.4673 32.493 79.8147 27.1364 81.4087C19.0883 83.7033 12.8498 91.1313 12.1305 99.458C11.2801 106.721 14.6434 114.225 20.5647 118.534C25.9049 122.514 33.2047 123.763 39.5613 121.651C45.9755 119.674 51.1371 114.418 53.209 108.104C54.1497 105.927 54.346 103.659 54.3229 101.433C54.3122 100.412 54.255 99.3873 54.199 98.382C54.1936 98.286 54.1883 98.192 54.1831 98.0967C54.122 96.9933 54.0676 95.9147 54.0773 94.8547V94.8487C54.0803 89.5827 54.0799 84.318 54.0795 79.0533C54.0789 70.452 54.0783 61.8531 54.0923 53.2563C57.0888 52.6161 60.1191 52.1457 63.1714 51.6721L63.2003 51.6676C66.4269 51.1668 69.678 50.6616 72.898 49.9485L72.9007 49.9481C75.002 49.4753 77.132 49.1434 79.286 48.8078C79.538 48.7685 79.79 48.7291 80.0433 48.6895C82.4467 48.3127 84.8733 47.9111 87.2613 47.2851L87.2753 47.2815L87.288 47.2775C88.572 46.8815 89.7507 46.0011 90.5093 44.8746C91.272 43.7421 91.6353 42.3178 91.1887 40.8725L91.1713 40.8166L91.144 40.7647C90.566 39.6563 89.6633 38.5609 88.5447 37.833C87.4253 37.1041 86.0567 36.727 84.6007 37.1383C83.7173 37.3137 82.8373 37.4937 81.9593 37.6734C78.3467 38.4123 74.766 39.1447 71.1253 39.5289L71.1073 39.5307L71.0893 39.5336C68.7127 39.9197 66.3483 40.3817 63.9962 40.8413C63.3963 40.9585 62.7973 41.0755 62.1991 41.1911C59.4902 41.7145 56.7916 42.2094 54.0749 42.5631C54.0919 40.0337 54.0892 37.5061 54.0865 34.9814L54.0863 34.6827C54.0835 31.9893 54.0815 29.2991 54.1043 26.6079C55.4378 26.3561 56.7715 26.1045 58.1054 25.8529C73.6413 22.9217 89.196 19.987 104.688 16.7634C104.747 26.8541 104.737 36.9285 104.729 47.0044C104.721 55.7057 104.714 64.4081 104.75 73.1227C98.8707 70.4107 91.5607 70.928 86.3 74.8373C80.2293 79.084 77.364 87.214 79.416 94.3C81.1193 100.767 86.718 106.007 93.3173 107.281C99.1933 108.518 105.582 106.568 109.782 102.311C114.043 98.104 115.716 91.8947 115.283 86.1307C115.252 72.322 115.26 58.5139 115.268 44.7055C115.275 33.4876 115.281 22.2692 115.267 11.049C115.466 8.6696 113.677 6.8684 112.052 5.82858L112.013 5.804L111.971 5.78508C110.813 5.25699 109.635 5.2686 108.54 5.43486C107.994 5.5178 107.453 5.6418 106.938 5.76328C106.88 5.77689 106.823 5.79046 106.766 5.80396C106.307 5.91265 105.871 6.01582 105.443 6.09336ZM94.018 82.2253L94.0267 82.222L94.034 82.2187C96.238 81.2307 98.794 81.5507 100.866 82.764C102.938 83.9773 104.449 86.0373 104.629 88.434L104.632 88.4733L104.639 88.5113C105.112 90.8947 104.191 93.2913 102.497 95.0087C100.803 96.7267 98.398 97.7027 95.9887 97.314L95.9687 97.3107L95.9487 97.3087C91.5313 96.88 88.1907 92.1887 89.2347 87.906L89.2373 87.8947L89.2393 87.884C89.758 85.3773 91.6327 83.2167 94.018 82.2253ZM29.7277 91.3233L29.7328 91.3213L29.7377 91.32C34.9694 89.5107 41.4299 92.4493 43.0939 97.712C43.4621 100.269 43.4133 102.915 43.1617 105.525C41.4163 110.591 35.3663 113.587 30.1901 112.029L30.1789 112.025L30.1676 112.023C24.9353 110.653 21.3533 104.939 22.4589 99.6633L22.4607 99.654L22.4623 99.646C23.1516 95.8373 26.0385 92.5313 29.7277 91.3233Z" fill="url(#paint0_linear_618_90)" stroke="url(#paint1_linear_618_90)" stroke-width="2"/>
<defs>
<linearGradient id="paint0_linear_618_90" x1="63.6745" y1="122.667" x2="63.6745" y2="5.33333" gradientUnits="userSpaceOnUse">
<stop stop-color="#0028FF"/>
<stop offset="1" stop-color="#4DD3FF"/>
<stop offset="1" stop-color="#00C0FF"/>
</linearGradient>
<linearGradient id="paint1_linear_618_90" x1="63.6745" y1="122.667" x2="63.6745" y2="5.33333" gradientUnits="userSpaceOnUse">
<stop stop-color="#0028FF"/>
<stop offset="1" stop-color="#4DD3FF"/>
<stop offset="1" stop-color="#00C0FF"/>
</linearGradient>
</defs>
</svg>
