<svg width="128" height="128" viewBox="0 0 128 128" fill="none" xmlns="http://www.w3.org/2000/svg">
<path d="M101.5 128C107.703 128 112.75 122.953 112.75 116.75V11.5C112.75 5.28418 107.726 0 101.5 0H26.5C23.4775 0 20.6318 1.23633 18.4863 3.48047C16.3994 5.66309 15.25 8.51172 15.25 11.5V116.75C15.25 122.953 20.2969 128 26.5 128H101.5ZM34.5029 99.873C34.9336 99.126 34.5215 99.7734 47.1221 86.7568C40.9648 103.849 41.2979 103.104 40.9971 103.624C39.9609 105.419 37.6699 106.033 35.875 104.996C34.085 103.963 33.4687 101.664 34.5029 99.873ZM58.4873 68.5703C56.9902 67.6348 55.0439 67.8701 53.8135 69.1338L50.9805 72.0439C42.8682 67.3877 37.75 58.6055 37.75 49C37.75 34.5254 49.5254 22.75 64 22.75C78.4746 22.75 90.25 34.5254 90.25 49C90.25 63.6123 78.4746 75.5 64 75.5C62.4102 75.5 60.8359 75.3535 59.29 75.0742L60.0293 73.0186C60.626 71.3574 59.9844 69.5049 58.4873 68.5703ZM26.5 7.5H101.5C103.497 7.5 105.25 9.36914 105.25 11.5V116.75C105.25 118.817 103.567 120.5 101.5 120.5H52.541C52.0029 115.604 50.4111 110.924 47.8418 106.714C48.334 105.715 47.6367 107.445 56.7266 82.207C59.1045 82.7305 61.5381 83 64 83C82.6094 83 97.75 67.7471 97.75 49C97.75 30.3896 82.6094 15.25 64 15.25C45.3906 15.25 30.25 30.3896 30.25 49C30.25 60.6514 36.1455 71.3652 45.6182 77.5498L30.9062 92.6602C28.2754 91.665 25.5488 91.0107 22.75 90.7031V11.5C22.75 9.36914 24.5029 7.5 26.5 7.5ZM22.75 116.75V98.2646C24.126 98.46 25.4766 98.7637 26.7988 99.1748C25.6963 103.879 27.7305 108.954 32.125 111.491C35.3555 113.357 39.085 113.436 42.252 112.061C43.6406 114.699 44.5596 117.543 44.9814 120.5H26.5C24.4326 120.5 22.75 118.817 22.75 116.75Z" fill="url(#paint0_linear_572_15)"/>
<path d="M37.7422 19C37.7422 21.0713 36.0625 22.75 33.9922 22.75C31.9209 22.75 30.2422 21.0713 30.2422 19C30.2422 16.9287 31.9209 15.25 33.9922 15.25C36.0625 15.25 37.7422 16.9287 37.7422 19Z" fill="url(#paint1_linear_572_15)"/>
<path d="M97.7422 19C97.7422 21.0713 96.0625 22.75 93.9922 22.75C91.9209 22.75 90.2422 21.0713 90.2422 19C90.2422 16.9287 91.9209 15.25 93.9922 15.25C96.0625 15.25 97.7422 16.9287 97.7422 19Z" fill="url(#paint2_linear_572_15)"/>
<path d="M94 90.5H79C76.9287 90.5 75.25 92.1787 75.25 94.25C75.25 96.3213 76.9287 98 79 98H94C96.0713 98 97.75 96.3213 97.75 94.25C97.75 92.1787 96.0713 90.5 94 90.5Z" fill="url(#paint3_linear_572_15)"/>
<path d="M94 105.5H79C76.9287 105.5 75.25 107.179 75.25 109.25C75.25 111.321 76.9287 113 79 113H94C96.0713 113 97.75 111.321 97.75 109.25C97.75 107.179 96.0713 105.5 94 105.5Z" fill="url(#paint4_linear_572_15)"/>
<path d="M67.4281 70.1132C66.7695 70.7717 65.8514 71.1704 64.8328 71.1552C62.7906 71.1246 61.1154 69.4494 61.0848 67.4072L60.5314 30.4812C60.5008 28.439 62.1265 26.8133 64.1686 26.844C66.2108 26.8746 67.886 28.5497 67.9166 30.5919L68.47 67.5179C68.4827 68.5391 68.0865 69.4548 67.4281 70.1132Z" fill="url(#paint5_linear_572_15)"/>
<path d="M85.6124 51.9286C84.9539 52.5872 84.0357 52.9859 83.0171 52.9706L46.0911 52.4171C44.0489 52.3865 42.3738 50.7114 42.3432 48.6692C42.3125 46.627 43.9382 45.0013 45.9804 45.0319L82.9064 45.5854C84.9486 45.616 86.6238 47.2912 86.6544 49.3333C86.6698 50.3518 86.271 51.2701 85.6124 51.9286Z" fill="url(#paint6_linear_572_15)"/>
<defs>
<linearGradient id="paint0_linear_572_15" x1="64" y1="128" x2="64" y2="0" gradientUnits="userSpaceOnUse">
<stop stop-color="#A93AFF"/>
<stop offset="1" stop-color="#FF81FF"/>
</linearGradient>
<linearGradient id="paint1_linear_572_15" x1="33.9922" y1="22.75" x2="33.9922" y2="15.25" gradientUnits="userSpaceOnUse">
<stop stop-color="#FF2424"/>
<stop offset="1" stop-color="#FF8D8D"/>
</linearGradient>
<linearGradient id="paint2_linear_572_15" x1="93.9922" y1="22.75" x2="93.9922" y2="15.25" gradientUnits="userSpaceOnUse">
<stop stop-color="#FF2424"/>
<stop offset="1" stop-color="#FF8D8D"/>
</linearGradient>
<linearGradient id="paint3_linear_572_15" x1="86.5" y1="98" x2="86.5" y2="90.5" gradientUnits="userSpaceOnUse">
<stop stop-color="#FF2424"/>
<stop offset="1" stop-color="#FF8D8D"/>
</linearGradient>
<linearGradient id="paint4_linear_572_15" x1="86.5" y1="113" x2="86.5" y2="105.5" gradientUnits="userSpaceOnUse">
<stop stop-color="#FF2424"/>
<stop offset="1" stop-color="#FF8D8D"/>
</linearGradient>
<linearGradient id="paint5_linear_572_15" x1="76.5212" y1="61.0201" x2="52.4796" y2="36.9784" gradientUnits="userSpaceOnUse">
<stop stop-color="#FF2424"/>
<stop offset="1" stop-color="#FF8D8D"/>
</linearGradient>
<linearGradient id="paint6_linear_572_15" x1="76.5193" y1="61.0218" x2="52.4776" y2="36.9801" gradientUnits="userSpaceOnUse">
<stop stop-color="#FF2424"/>
<stop offset="1" stop-color="#FF8D8D"/>
</linearGradient>
</defs>
</svg>
