<svg width="128" height="128" viewBox="0 0 128 128" fill="none" xmlns="http://www.w3.org/2000/svg">
<path d="M56.5135 4.74592C59.5437 3.20981 63.0546 2.67673 66.4344 3.18877C64.2856 5.86118 62.0348 8.56165 61.0224 11.8583C47.0516 18.606 33.0443 25.2835 19.059 31.9961C19.8894 32.3889 20.7125 32.7887 21.5428 33.1815C24.0048 34.3529 26.4596 35.5383 28.9289 36.7167C26.5105 38.4281 24.6823 40.7639 23.5532 43.4293C20.2754 41.8581 16.9976 40.2799 13.7125 38.7227C13.6396 51.2361 13.7052 63.7564 13.6761 76.2698C10.2963 80.6606 5.38682 84.764 5.19744 90.6208C4.8041 73.3027 5.13916 55.9496 5.0299 38.6175C4.88422 33.2446 8.16204 28.012 13.1298 25.5781C27.5667 18.592 42.0547 11.697 56.5135 4.74592Z" fill="#A717E7"/>
<path d="M66.4344 3.18875C70.9869 4.1497 74.8839 6.76599 79.0941 8.58267L79.0868 8.5967C77.2439 10.7571 75.6341 13.0928 74.3667 15.6039C70.0691 14.0608 65.8808 9.90836 61.0224 11.8583C62.0348 8.56163 64.2856 5.86116 66.4344 3.18875Z" fill="#B31BDE"/>
<path d="M74.3667 15.6039C75.6341 13.0928 77.2439 10.7571 79.0868 8.59674C83.0202 10.4415 86.9317 12.3423 90.8578 14.2221C89.0951 16.4456 87.4999 18.7814 86.094 21.2293C82.1825 19.3495 78.271 17.4767 74.3667 15.6039Z" fill="#BB1ED9"/>
<path opacity="0.26" d="M61.0224 11.8583C65.8808 9.90839 70.0691 14.0608 74.3667 15.6039C78.271 17.4767 82.1825 19.3495 86.094 21.2293C90.5227 23.3476 94.9442 25.4729 99.3729 27.5912C102.418 29.0642 105.484 30.5091 108.529 31.9961C107.939 32.2837 107.356 32.5713 106.773 32.8519C105.178 31.8839 103.539 30.972 101.857 30.1654C92.1252 25.508 82.3937 20.8646 72.6841 16.1791C70.5135 15.155 68.4084 13.9556 66.1066 13.2121C63.9505 12.5878 61.8382 13.5277 59.9516 14.4396C51.0796 18.7884 42.1348 22.9899 33.241 27.2896C29.3076 29.1975 25.2723 30.9089 21.5428 33.1815C20.7124 32.7887 19.8893 32.3889 19.059 31.9961C33.0443 25.2835 47.0516 18.606 61.0224 11.8583Z" fill="black"/>
<path opacity="0.26" d="M13.7125 38.7227C16.9976 40.2799 20.2754 41.8581 23.5532 43.4293C27.7124 45.4213 31.8716 47.4204 36.0308 49.4194C39.8476 51.2431 43.6645 53.0738 47.4813 54.9045C51.4948 56.8615 55.5666 58.7132 59.5437 60.7403C59.5364 61.1261 59.5146 61.8977 59.5 62.2835C58.3273 61.6031 57.1472 60.9297 55.9308 60.3335C44.2181 54.7853 32.5417 49.1739 20.8873 43.5275C18.9497 42.6717 16.9466 41.1637 14.7031 41.8441C14.7395 58.4607 14.674 75.0844 14.7395 91.701C14.1932 90.7471 13.7052 89.716 13.7052 88.6007C13.6396 84.4904 13.7052 80.3801 13.6761 76.2698C13.7052 63.7564 13.6396 51.2361 13.7125 38.7227Z" fill="black"/>
<path opacity="0.26" d="M109.862 40.6517C111.209 39.9993 112.564 39.354 113.926 38.7157C114.473 41.2338 111.77 41.6827 110.037 42.6016C97.3479 48.5777 84.7611 54.7502 72.0795 60.7473C71.169 61.1892 70.3022 61.6943 69.4354 62.2133C69.0712 79.2999 69.4209 96.4146 69.2606 113.515C68.9838 113.655 68.4302 113.929 68.1534 114.069C68.1534 113.543 68.1462 112.498 68.1462 111.972C68.1534 99.1571 68.1462 86.3422 68.1462 73.5342C68.1607 69.2486 68.1389 64.9699 68.1534 60.6912C73.6456 57.9627 79.2106 55.3885 84.7246 52.7021C93.1013 48.6829 101.485 44.6778 109.862 40.6517Z" fill="black"/>
<path d="M90.8578 14.2221C95.3011 16.3544 99.7516 18.4797 104.195 20.6191C102.622 22.9618 101.012 25.2905 99.3728 27.5912C94.9442 25.4729 90.5227 23.3476 86.094 21.2293C87.4999 18.7813 89.0951 16.4456 90.8578 14.2221Z" fill="#C420D3"/>
<path d="M104.195 20.6191C108.937 23.2213 114.48 24.7154 118.45 28.4539C115.259 32.2837 111.69 35.9872 109.862 40.6516C101.485 44.6778 93.1013 48.6829 84.7246 52.702C84.9504 51.1589 85.2709 49.5597 86.3708 48.3532C88.607 45.6668 90.7777 42.9032 92.3146 39.7749C97.1367 37.4672 101.951 35.1455 106.773 32.8518C107.356 32.5713 107.939 32.2837 108.529 31.9961C105.484 30.5091 102.418 29.0642 99.3729 27.5912C101.012 25.2905 102.622 22.9618 104.195 20.6191Z" fill="#CE24CC"/>
<path d="M109.862 40.6516C111.69 35.9872 115.259 32.2837 118.45 28.4539C119.419 29.485 120.307 30.6003 120.977 31.8418C123.243 36.0503 122.449 40.8761 122.573 45.4213C119.382 48.6197 117 52.4425 113.897 55.7111C113.919 50.0436 113.854 44.3832 113.926 38.7157C112.564 39.354 111.209 39.9993 109.862 40.6516Z" fill="#D726C6"/>
<path opacity="0.18" d="M120.977 31.8418C122.594 32.2767 122.813 34.0232 123.33 35.3208C124.204 37.7548 123.942 40.3641 123.971 42.8962C123.956 56.9176 123.971 70.939 123.971 84.9603C123.913 88.3833 124.372 91.9465 122.959 95.1941C121.524 99.2272 117.765 101.914 113.955 103.751C100.043 110.45 86.1159 117.113 72.1961 123.791C67.5707 126.113 61.7435 126.218 57.089 123.91C42.6593 117.008 28.266 110.036 13.829 103.134C12.4014 102.433 11.0247 101.542 10.2307 100.153L11.3889 100.167C12.0444 100.546 12.7073 100.918 13.3774 101.275C18.7312 103.857 24.0922 106.424 29.446 108.991C34.3118 111.32 39.1702 113.662 44.036 115.984C49.0984 118.299 53.9932 120.999 59.1795 123.047C62.8506 124.177 66.9224 123.875 70.3823 122.269C74.4468 120.368 78.4749 118.397 82.5248 116.468C93.094 111.383 103.692 106.347 114.247 101.24C119.2 98.9046 122.58 93.8193 122.573 88.4955C122.587 80.9272 122.573 73.3659 122.573 65.8046C122.587 59.0148 122.573 52.2181 122.573 45.4213C122.449 40.8761 123.243 36.0503 120.977 31.8418Z" fill="black"/>
<path d="M23.5532 43.4293C24.6822 40.7639 26.5105 38.4281 28.9288 36.7167C32.9351 38.6386 36.9413 40.5605 40.9475 42.4824C39.2868 44.783 37.6697 47.1047 36.0308 49.4194C31.8716 47.4203 27.7124 45.4213 23.5532 43.4293Z" fill="#AD19E3"/>
<path d="M65.5894 52.5968C74.4978 48.3182 83.4062 44.0465 92.3146 39.7749C90.7777 42.9032 88.607 45.6668 86.3708 48.3532C85.2709 49.5597 84.9504 51.1589 84.7246 52.702C79.2106 55.3885 73.6456 57.9627 68.1534 60.6912C68.1389 64.9699 68.1607 69.2486 68.1462 73.5342C64.8319 76.6275 62.4573 80.4643 59.4854 83.8381C59.4927 76.6556 59.4563 69.466 59.5 62.2834C59.5146 61.8977 59.5364 61.1261 59.5437 60.7403C62.013 58.3625 63.9287 55.5358 65.5894 52.5968Z" fill="#C621D1"/>
<path d="M40.9475 42.4824C44.7935 44.3341 48.6468 46.1718 52.4927 48.0166C50.6644 50.205 49.011 52.5197 47.4813 54.9045C43.6645 53.0738 39.8476 51.2431 36.0308 49.4194C37.6697 47.1047 39.2868 44.783 40.9475 42.4824Z" fill="#B51CDD"/>
<path d="M113.897 55.7111C117 52.4425 119.382 48.6198 122.573 45.4213C122.573 52.2181 122.587 59.0148 122.573 65.8046C119.448 69.0592 117.059 72.8819 113.905 76.1084C113.89 69.3117 113.897 62.5079 113.897 55.7111Z" fill="#DE29C1"/>
<path d="M47.4813 54.9045C49.011 52.5197 50.6644 50.205 52.4927 48.0165C56.2586 49.8192 60.0244 51.6429 63.7976 53.4385C64.2492 53.2281 65.1451 52.8072 65.5895 52.5968C63.9287 55.5358 62.013 58.3625 59.5437 60.7403C55.5666 58.7132 51.4948 56.8615 47.4813 54.9045Z" fill="#BD1ED8"/>
<path d="M113.905 76.1084C117.059 72.8819 119.448 69.0592 122.573 65.8046C122.573 73.3659 122.587 80.9272 122.573 88.4955C122.58 93.8193 119.2 98.9046 114.247 101.24C103.692 106.347 93.094 111.383 82.5249 116.468C84.5061 111.355 89.0222 107.735 91.4842 102.868C97.7267 99.8585 103.991 96.8845 110.226 93.8614C112.331 92.9004 113.846 90.7891 113.883 88.5236C113.934 84.3852 113.875 80.2468 113.905 76.1084Z" fill="#E52BBC"/>
<path d="M59.4854 83.8381C62.4573 80.4643 64.8319 76.6275 68.1461 73.5342C68.1461 86.3422 68.1534 99.1571 68.1461 111.972C64.5333 115.164 62.0421 119.26 59.1795 123.047C53.9933 120.999 49.0984 118.299 44.036 115.984C45.6676 113.677 47.2628 111.341 48.7924 108.963C52.3543 110.667 55.9162 112.379 59.4709 114.083C59.5 104.004 59.4709 93.9175 59.4854 83.8381Z" fill="#D225C9"/>
<path d="M5.19743 90.6208C5.38681 84.7639 10.2963 80.6606 13.6761 76.2697C13.7052 80.3801 13.6396 84.4904 13.7052 88.6007C13.7052 89.716 14.1932 90.7471 14.7395 91.701C15.65 92.9285 16.9684 93.7632 18.3743 94.3874C16.5897 96.6039 14.9362 98.9046 13.3774 101.275C12.7073 100.918 12.0444 100.546 11.3889 100.167C8.11833 97.9366 5.83842 94.4365 5.19743 90.6208Z" fill="#B41BDE"/>
<path d="M18.3743 94.3874C23.6698 96.9055 28.9507 99.4517 34.2389 101.984C32.6874 104.348 31.0849 106.676 29.446 108.991C24.0922 106.424 18.7312 103.857 13.3774 101.275C14.9362 98.9046 16.5897 96.6039 18.3743 94.3874Z" fill="#BF1FD6"/>
<path d="M34.2389 101.984C39.0901 104.306 43.9413 106.634 48.7924 108.963C47.2628 111.341 45.6676 113.677 44.036 115.984C39.1702 113.662 34.3118 111.32 29.446 108.991C31.0849 106.676 32.6874 104.348 34.2389 101.984Z" fill="#C922CF"/>
<path d="M69.2606 113.515C76.6685 109.973 84.0691 106.41 91.4842 102.868C89.0222 107.735 84.5061 111.355 82.5249 116.468C78.4749 118.397 74.4468 120.368 70.3824 122.269C66.9224 123.875 62.8507 124.177 59.1795 123.047C62.0421 119.26 64.5333 115.164 68.1461 111.972C68.1461 112.498 68.1534 113.543 68.1534 114.069C68.4302 113.929 68.9838 113.655 69.2606 113.515Z" fill="#DD28C2"/>
</svg>
