<svg width="192" height="189" viewBox="0 0 192 189" fill="none" xmlns="http://www.w3.org/2000/svg">
<path d="M103.517 10.8343C109.229 1.8286 121.032 -1.4689 131.158 0.592038C138.245 2.0909 145.698 3.77713 151.587 8.16131C156.694 12.6079 151.688 21.9884 145.093 20.0773C137.526 16.8422 129.431 13.2699 120.982 14.9312C117.69 15.4183 115.37 18.2412 114.172 21.114C111.864 28.346 111.915 36.365 114.828 43.4221C118.788 45.3332 123.226 45.7329 127.426 46.882C145.748 52.128 161.284 65.9426 168.585 83.3794C172.898 93.147 174.374 103.876 173.478 114.481C171.662 132.143 162.179 148.955 147.728 159.522C132.671 170.763 113.176 174.948 94.6011 173.823C73.088 171.788 52.281 161.62 38.2584 145.208C24.5889 129.632 17.275 108.798 18.0568 88.1883C19.053 61.3336 34.1475 35.4781 57.2999 21.4138C60.5534 19.6276 63.5546 17.2794 67.0603 15.9929C71.1964 14.9562 74.8408 18.2537 76.1649 21.8759C76.5684 25.5981 73.3654 28.6708 70.2633 30.2321C51.4866 39.4626 37.3757 57.6114 33.5296 78.0584C30.6923 90.2617 32.1551 103.152 36.3291 114.881C42.9999 133.217 57.9809 148.368 76.3792 155.288C95.0298 162.619 117.009 161.308 134.386 151.266C144.487 145.732 152.356 136.464 156.353 125.772C161.461 112.52 160.414 97.094 153.554 84.6285C147.312 72.9873 136.215 64.094 123.479 60.2969C129.998 72.2628 132.558 86.5395 128.914 99.792C126.316 109.56 118.649 118.028 108.75 120.864C94.2732 125.772 77.4133 117.516 71.1082 104.039C68.4348 99.1675 67.9556 93.5842 66.6441 88.3007C66.6315 87.2889 66.6189 85.278 66.6063 84.2662C67.9178 79.0202 68.5609 73.5369 71.1586 68.6905C76.808 56.9369 87.9681 48.8305 99.8722 43.9717C96.8583 33.0675 97.5014 20.6394 103.517 10.8343ZM87.3502 69.7522C80.0741 78.4956 79.2166 92.2727 86.3035 101.341C91.3981 108.086 102.18 110.222 109.065 105.013C114.664 100.891 116.329 93.5092 116.366 86.9767C116.556 76.4471 110.818 67.1417 105.875 58.2359C98.3211 59.0353 92.0286 64.144 87.3502 69.7522Z" fill="url(#paint0_linear)"/>
<defs>
<linearGradient id="paint0_linear" x1="95.8644" y1="174" x2="95.8644" y2="0" gradientUnits="userSpaceOnUse">
<stop stop-color="#FF2424"/>
<stop offset="1" stop-color="#FF8D8D"/>
</linearGradient>
</defs>
</svg>
