<svg width="128" height="128" viewBox="0 0 128 128" fill="none" xmlns="http://www.w3.org/2000/svg">
<path d="M95.1822 14.5435C99.2127 10.7206 104.589 7.83547 110.266 8.00729C114.497 8.13615 118.363 11.2074 119.501 15.2737C121.112 20.7504 118.621 26.6279 114.884 30.6442C108.197 37.3737 101.453 44.0459 94.7455 50.761C93.6143 51.5414 94.5665 52.9589 94.5665 54.0184C97.6449 70.5486 100.652 87.1003 103.723 103.638C104.174 105.542 103.945 107.761 102.406 109.136C99.2557 112.193 95.9124 115.056 92.6479 117.992C90.8796 119.66 87.9802 119.796 86.0186 118.385C84.3577 117.254 83.7707 115.228 82.9617 113.496C77.7499 101.676 72.5668 89.8422 67.3121 78.037C62.8591 82.5758 58.3704 87.0788 53.803 91.5031C53.9533 97.3878 55.0844 103.201 55.4495 109.071C55.5641 112.071 52.7363 113.789 50.8964 115.694C49.4288 117.004 48.0113 118.793 45.8564 118.793C43.3293 119.08 40.8523 117.29 40.2223 114.856C38.0101 107.79 35.934 100.681 33.6789 93.6293C26.6129 91.4888 19.547 89.3482 12.4882 87.1862C9.93238 86.4918 8.10683 83.8 8.60796 81.1655C8.92296 78.8173 10.9848 77.3712 12.4452 75.7103C14.1061 73.985 15.9102 71.7155 18.602 72.0305C24.3292 72.5245 30.0278 73.2762 35.7479 73.8131C40.2867 69.2528 44.8398 64.7068 49.393 60.1609C36.8504 54.6627 24.3149 49.1646 11.7723 43.6736C9.58159 42.836 7.78467 40.6668 8.02092 38.2327C7.98513 35.992 9.81068 34.4671 11.1423 32.9136C13.4546 30.4365 15.6882 27.8808 18.0149 25.4109C19.4109 23.8431 21.6804 23.3777 23.6634 23.929C41.1458 27.1434 58.6496 30.3005 76.132 33.5149C82.5035 27.2078 88.8106 20.8434 95.1822 14.5435ZM100.251 20.3996C94.0725 26.6136 87.8155 32.7489 81.6516 38.9773C80.2413 40.5809 78.1651 41.8767 75.9387 41.3254C58.2487 38.0967 40.5444 34.8966 22.8616 31.5963C21.0003 33.608 19.1389 35.6054 17.2847 37.6242C29.9992 43.2655 42.7637 48.778 55.4782 54.405C58.7928 55.5862 60.0957 60.2897 57.6116 62.8741C52.0705 68.5441 46.379 74.0709 40.795 79.705C39.5422 81.0509 37.7238 81.8742 35.8696 81.6093C30.5361 81.1368 25.2312 80.3565 19.8906 79.9556C19.1461 79.8196 18.695 80.1417 18.5447 80.9364C24.4939 82.7261 30.4287 84.5803 36.385 86.3629C38.2392 86.8712 40.1006 88.0238 40.6804 89.9711C42.7637 96.2853 44.532 102.707 46.5795 109.028C46.8229 108.764 47.2954 108.234 47.5388 107.969C47.052 102.378 46.2645 96.8223 45.792 91.2382C45.6202 89.6704 46.243 88.1169 47.3598 87.0359C52.6933 81.6237 58.127 76.3116 63.4748 70.9137C65.8802 67.5347 71.6719 67.9427 73.1252 71.9804C78.745 84.6233 84.3291 97.2805 89.8845 109.952C91.9749 108.212 93.9437 106.337 95.9625 104.525C92.7195 86.9929 89.5122 69.4533 86.2978 51.9208C85.8182 50.0094 86.4696 47.9762 87.8728 46.6303C94.7813 39.686 101.761 32.8062 108.684 25.8691C110.538 24.0006 112.07 21.588 112.235 18.8962C112.385 17.357 111.333 15.5171 109.593 15.7319C106.007 15.9037 102.778 17.9655 100.251 20.3996Z" fill="#19B0FF" stroke="#19B0FF" stroke-width="3"/>
</svg>
