<svg width="128" height="128" viewBox="0 0 128 128" fill="none" xmlns="http://www.w3.org/2000/svg">
<path fill-rule="evenodd" clip-rule="evenodd" d="M59.234 53.0717C53.6889 52.5951 48.2795 51.2916 43.1823 49.2112C42.6104 52.5283 42.241 55.874 42.0694 59.234H59.234V53.0717ZM68.766 53.074C74.3064 52.5974 79.7181 51.2987 84.8248 49.2255C85.392 52.5379 85.759 55.8812 85.9305 59.234H68.766V53.074ZM59.234 77.3113C53.8247 77.7736 48.544 79.0247 43.5564 81.0145C42.7724 76.9729 42.2768 72.8766 42.0694 68.766H59.234V77.3113ZM68.766 77.3089C74.1753 77.7736 79.456 79.0247 84.4436 81.0145C85.2276 76.9706 85.7232 72.8766 85.9305 68.766H68.766V77.3089ZM59.234 86.8837C54.6587 87.3556 50.2026 88.5042 46.0037 90.2771C46.9021 92.9413 48.0078 95.5363 49.297 98.0528C50.2979 99.983 51.4655 101.842 52.8 103.581C53.92 105.035 55.183 106.369 56.5889 107.537C57.4087 108.204 58.2904 108.771 59.234 109.25V86.8837ZM68.766 86.8837C73.3413 87.358 77.7974 88.5113 81.9939 90.2866C81.0955 92.946 79.9922 95.5387 78.703 98.0528C77.7021 99.983 76.5345 101.842 75.2 103.581C74.08 105.035 72.817 106.369 71.4111 107.537C70.5913 108.204 69.7096 108.771 68.766 109.25V86.8837ZM59.234 43.4992C54.4061 42.9988 49.7093 41.743 45.3151 39.7985C46.3421 36.4075 47.6742 33.1142 49.297 29.9472C50.2979 28.017 51.4655 26.1583 52.8 24.4187C53.92 22.9651 55.183 21.6306 56.5889 20.463C57.4087 19.7957 58.2904 19.2286 59.234 18.7496V43.4992ZM68.766 43.4992C73.5891 43.0012 78.2883 41.7549 82.6921 39.8223C81.665 36.4266 80.3306 33.1237 78.703 29.9472C77.7021 28.017 76.5345 26.1583 75.2 24.4187C74.08 22.9651 72.817 21.6306 71.4111 20.463C70.5913 19.7957 69.7096 19.2286 68.766 18.7496V43.4992ZM110.223 59.234C109.434 51.6037 106.765 44.3023 102.492 37.9755L101.174 39.1455C98.8344 41.2259 96.337 43.0917 93.6991 44.7074C94.6594 49.4948 95.2504 54.3561 95.4744 59.234H110.223ZM110.223 68.766C109.372 76.992 106.338 84.8368 101.472 91.4924C98.9178 89.1905 96.1702 87.1435 93.2534 85.4015C93.2916 85.2419 93.3249 85.0822 93.3583 84.9225C94.5212 79.6109 95.2242 74.1991 95.4744 68.766H110.223ZM17.7774 68.766C18.6281 76.9968 21.664 84.8415 26.5324 91.4996C29.0846 89.1976 31.8298 87.1483 34.7489 85.4063C34.7084 85.2443 34.6751 85.0846 34.6417 84.9225C33.4788 79.6109 32.7758 74.1991 32.5256 68.766H17.7774ZM42.3411 105.094C38.9668 103.333 35.8046 101.143 32.9331 98.5723C34.3986 97.2497 35.938 96.0296 37.5489 94.9191C38.4831 97.4689 39.5792 99.9615 40.8136 102.39C41.2878 103.312 41.793 104.218 42.3411 105.094ZM90.4511 94.9215C92.062 96.032 93.6061 97.2497 95.0717 98.5675C92.1978 101.141 89.0356 103.333 85.6589 105.094C86.207 104.218 86.7122 103.312 87.1864 102.39C88.4208 99.9639 89.5169 97.4713 90.4511 94.9215ZM42.2958 22.9818C38.4235 25.0002 34.8609 27.5976 31.713 30.674C33.3334 32.2444 35.0611 33.6861 36.865 35.0063C37.9397 31.7845 39.2694 28.6485 40.8136 25.6102C41.2735 24.7142 41.7644 23.8349 42.2958 22.9818ZM91.1183 34.9658C92.4146 34.0674 93.649 33.0761 94.8357 32.0204L96.3728 30.6574C93.1724 27.5595 89.5741 24.962 85.6827 22.946C86.2237 23.8111 86.7193 24.7023 87.1864 25.6102C88.7234 28.6318 90.0483 31.7559 91.1183 34.9658ZM19.1285 51.8945C18.4184 54.4204 15.7852 55.8931 13.2545 55.183C10.7237 54.4728 9.24391 51.8349 9.95404 49.297L10.2162 48.3438C10.9406 45.806 13.5833 44.3261 16.114 45.0434C18.6448 45.7607 20.1151 48.3915 19.3906 50.9174L19.1285 51.8945ZM17.5319 59.234C12.2703 59.234 8 61.3692 8 64C8 78.846 13.9098 93.0962 24.3949 103.605C34.9038 114.09 49.154 120 64 120C78.846 120 93.0962 114.09 103.605 103.605C114.09 93.0962 120 78.846 120 64C120 49.154 114.09 34.9038 103.605 24.3949C93.0962 13.9098 78.846 8 64 8C44.7217 8.02383 26.754 17.9609 16.5311 34.3081C15.137 36.5314 15.8162 39.4672 18.0443 40.8613C20.2723 42.2553 23.2153 41.5833 24.6094 39.36C24.9049 38.8882 25.2099 38.4211 25.5244 37.9636C28.2291 40.5205 31.1649 42.782 34.2986 44.6979C33.3406 49.4948 32.7496 54.3489 32.5256 59.234H17.5319Z" fill="url(#paint0_linear_616_335)"/>
<defs>
<linearGradient id="paint0_linear_616_335" x1="59.5" y1="93.5" x2="75" y2="30.5" gradientUnits="userSpaceOnUse">
<stop stop-color="#8000E3"/>
<stop offset="1" stop-color="#FF00FF"/>
</linearGradient>
</defs>
</svg>
