<svg width="32" height="32" viewBox="0 0 32 32" fill="none" xmlns="http://www.w3.org/2000/svg">
<path d="M16.027 8.71289C12.694 8.71289 9.891 10.9999 9.036 14.0679C8.292 12.4269 6.645 11.2599 4.735 11.2599C3.48077 11.2678 2.28022 11.7698 1.39379 12.6572C0.507368 13.5446 0.00655582 14.7457 0 15.9999C0.00629593 17.2542 0.507024 18.4554 1.39351 19.3429C2.27999 20.2303 3.48069 20.7323 4.735 20.7399C6.646 20.7399 8.287 19.5729 9.036 17.9269C9.891 20.9999 12.693 23.2869 16.027 23.2869C19.339 23.2869 22.126 21.0269 23 17.9789C23.755 19.5939 25.375 20.7399 27.26 20.7399C28.5151 20.7333 29.7169 20.2318 30.6044 19.3443C31.4919 18.4568 31.9934 17.255 32 15.9999C31.9934 14.7448 31.4919 13.543 30.6044 12.6555C29.7169 11.768 28.5151 11.2665 27.26 11.2599C25.375 11.2599 23.755 12.4069 22.995 14.0209C22.126 10.9729 19.339 8.71289 16.027 8.71289V8.71289ZM16.027 11.4949C18.527 11.4949 20.527 13.4949 20.527 15.9999C20.527 18.5049 18.527 20.5049 16.027 20.5049C15.4347 20.5075 14.8477 20.3928 14.2999 20.1674C13.7521 19.9419 13.2544 19.6102 12.8356 19.1913C12.4167 18.7725 12.085 18.2748 11.8595 17.727C11.6341 17.1792 11.5194 16.5922 11.522 15.9999C11.522 13.4949 13.522 11.4949 16.027 11.4949V11.4949ZM4.735 14.0409C5.834 14.0409 6.694 14.9009 6.694 15.9999C6.694 17.0989 5.834 17.9589 4.735 17.9589C4.47735 17.9613 4.22181 17.9122 3.98338 17.8146C3.74494 17.7169 3.52842 17.5726 3.3465 17.3901C3.16459 17.2077 3.02095 16.9907 2.92401 16.752C2.82707 16.5132 2.77879 16.2575 2.782 15.9999C2.782 14.9009 3.641 14.0409 4.735 14.0409ZM27.26 14.0409C28.36 14.0409 29.219 14.9009 29.219 15.9999C29.219 17.0989 28.36 17.9589 27.26 17.9589C27.0025 17.9606 26.7473 17.9111 26.5092 17.8132C26.271 17.7153 26.0548 17.571 25.873 17.3886C25.6912 17.2063 25.5476 16.9896 25.4504 16.7512C25.3532 16.5127 25.3045 16.2573 25.307 15.9999C25.307 14.9009 26.167 14.0409 27.26 14.0409Z" fill="url(#paint0_linear)"/>
<defs>
<linearGradient id="paint0_linear" x1="6.5" y1="16" x2="27.5" y2="16" gradientUnits="userSpaceOnUse">
<stop stop-color="#5570FF"/>
<stop offset="1" stop-color="#904DFF"/>
</linearGradient>
</defs>
</svg>
