<svg width="64" height="64" viewBox="0 0 64 64" fill="none" xmlns="http://www.w3.org/2000/svg">
<path fill-rule="evenodd" clip-rule="evenodd" d="M48.9376 2.33912C49.8549 3.37107 49.762 4.95125 48.73 5.86855L45.2071 9H52.7701C56.2234 9 58.0539 13.0818 55.757 15.6605L36 37.8413V54.295C36 54.8473 35.5523 55.295 35 55.295H29C28.4477 55.295 28 54.8473 28 54.295V37.8413L8.24299 15.6605C5.94607 13.0818 7.77658 9 11.2299 9H37.6811L45.4082 2.1315C46.4401 1.21421 48.0203 1.30716 48.9376 2.33912ZM21 56C19.3432 56 18 57.3431 18 59C18 60.6569 19.3432 62 21 62H43C44.6569 62 46 60.6569 46 59C46 57.3431 44.6569 56 43 56H21ZM32 33.3112L15.6897 15H48.3103L32 33.3112Z" fill="url(#paint0_linear_501:68)"/>
<defs>
<linearGradient id="paint0_linear_501:68" x1="32" y1="62" x2="32" y2="1.5" gradientUnits="userSpaceOnUse">
<stop stop-color="#5558FF"/>
<stop offset="1" stop-color="#00C0FF"/>
</linearGradient>
</defs>
</svg>
