<svg width="48" height="48" viewBox="0 0 48 48" fill="none" xmlns="http://www.w3.org/2000/svg">
<path d="M29 44H6C4.892 44 4 43.108 4 42V6C4 4.892 4.892 4 6 4H42C43.108 4 44 4.892 44 6V29" stroke="url(#paint0_linear_640_28)" stroke-width="5"/>
<path d="M46.6 29H31.2C29.9845 29 29 29.9845 29 31.2V46.6L46.6 29Z" fill="url(#paint1_linear_640_28)"/>
<path fill-rule="evenodd" clip-rule="evenodd" d="M13.5 12C12.1193 12 11 13.1193 11 14.5C11 15.8807 12.1193 17 13.5 17H30.5C31.8807 17 33 15.8807 33 14.5C33 13.1193 31.8807 12 30.5 12H13.5ZM13.5 22C12.1193 22 11 23.1193 11 24.5C11 25.8807 12.1193 27 13.5 27H23.5C24.8807 27 26 25.8807 26 24.5C26 23.1193 24.8807 22 23.5 22H13.5Z" fill="url(#paint2_linear_640_28)"/>
<defs>
<linearGradient id="paint0_linear_640_28" x1="24" y1="44" x2="24" y2="4" gradientUnits="userSpaceOnUse">
<stop stop-color="#5570FF"/>
<stop offset="1" stop-color="#4DD3FF"/>
</linearGradient>
<linearGradient id="paint1_linear_640_28" x1="37.8" y1="46.6" x2="37.8" y2="29" gradientUnits="userSpaceOnUse">
<stop stop-color="#ADDCFF"/>
<stop offset="0.5028" stop-color="#EAF6FF"/>
<stop offset="1" stop-color="#EAF6FF"/>
</linearGradient>
<linearGradient id="paint2_linear_640_28" x1="22" y1="12" x2="22" y2="27" gradientUnits="userSpaceOnUse">
<stop stop-color="#D3BAFF"/>
<stop offset="1" stop-color="#30E4F6"/>
</linearGradient>
</defs>
</svg>
