<svg width="48" height="48" viewBox="0 0 48 48" fill="none" xmlns="http://www.w3.org/2000/svg">
<path d="M24 3C12.4153 3 3 12.4153 3 24C3 35.5847 12.4153 45 24 45C35.5847 45 45 35.5847 45 24C45 12.4153 35.5847 3 24 3ZM24 5.25585C34.3665 5.25585 42.744 13.6334 42.744 23.9999C42.744 34.3664 34.3665 42.7439 24 42.7439C13.6335 42.7439 5.256 34.3664 5.256 23.9999C5.256 13.6334 13.6335 5.25585 24 5.25585Z" fill="url(#paint0_linear)" stroke="url(#paint1_linear)" stroke-width="2"/>
<path d="M18.4596 9.13275C18.575 9.06668 18.6605 9.02116 18.7079 9.00596C18.85 8.96034 18.6679 9.17201 18.0689 9.8064C16.9669 10.9736 16.2755 12.3677 16.019 13.9379C15.5492 16.8143 16.9966 19.9366 19.5561 21.5669C21.8219 23.0102 25.3081 23.0083 27.5682 21.5642C28.4073 21.0281 29.542 19.9241 29.9324 19.2633C30.1856 18.8347 30.2551 18.8086 30.9283 18.8988C33.1212 19.1926 34.8769 20.0386 36.3885 21.5326C37.8371 22.9643 38.7277 24.6252 39.0143 26.4249C39.1112 27.0333 39.1034 27.0245 38.8056 26.232C37.5545 22.903 33.9245 20.788 30.466 21.3714C25.7075 22.1739 22.933 26.835 24.4615 31.4598L24.8788 32.7278L24.546 33.198C23.5332 34.6204 21.3726 36.1352 19.5718 36.6876C18.4428 37.034 16.2786 37.1055 15.0916 36.8356C13.7523 36.5309 13.6221 36.3685 14.8301 36.5054C17.7979 36.8417 20.9739 35.0372 22.3455 32.2365C24.3577 28.1277 22.3297 23.1698 18.0317 21.6911C17.5455 21.5239 16.7201 21.3406 16.1983 21.2816C15.2746 21.1771 15.2431 21.1574 14.9937 20.5341C14.5659 19.4648 14.2753 17.9859 14.2726 16.8728C14.2697 15.5789 14.7526 13.6209 15.3477 12.514C15.8641 11.5538 17.6825 9.57773 18.4596 9.13275Z" fill="url(#paint2_linear)" stroke="url(#paint3_linear)" stroke-width="2"/>
<defs>
<linearGradient id="paint0_linear" x1="24" y1="45" x2="24" y2="3" gradientUnits="userSpaceOnUse">
<stop stop-color="#A93AFF"/>
<stop offset="1" stop-color="#FF81FF"/>
</linearGradient>
<linearGradient id="paint1_linear" x1="24" y1="45" x2="24" y2="3" gradientUnits="userSpaceOnUse">
<stop stop-color="#A93AFF"/>
<stop offset="1" stop-color="#FF81FF"/>
</linearGradient>
<linearGradient id="paint2_linear" x1="26.5348" y1="37" x2="26.5348" y2="9" gradientUnits="userSpaceOnUse">
<stop stop-color="#A93AFF"/>
<stop offset="1" stop-color="#FF81FF"/>
</linearGradient>
<linearGradient id="paint3_linear" x1="26.5348" y1="37" x2="26.5348" y2="9" gradientUnits="userSpaceOnUse">
<stop stop-color="#A93AFF"/>
<stop offset="1" stop-color="#FF81FF"/>
</linearGradient>
</defs>
</svg>
