<svg width="192" height="192" viewBox="0 0 192 192" fill="none" xmlns="http://www.w3.org/2000/svg">
<path d="M87.1219 18.9418L87.1277 18.9412C104.024 17.0455 121.537 20.7354 136.037 29.6351L136.039 29.6367C149.632 37.9234 160.666 50.4159 166.987 65.0423L166.989 65.0467C175.453 84.3753 175.484 107.215 167.133 126.587L167.132 126.59C160.552 141.964 148.813 155.046 134.292 163.341L134.288 163.344C119.941 171.623 102.863 174.95 86.4259 172.92L86.4208 172.919C70.0648 170.983 54.4259 163.549 42.5363 152.139L42.5308 152.134C30.3192 140.588 22.0092 124.96 19.4334 108.338L19.4324 108.331C16.3892 89.5332 20.4598 69.6274 30.9377 53.7204L30.9377 53.7205L30.9427 53.7127C43.3093 34.5569 64.438 21.3533 87.1219 18.9418ZM136.7 13.5165C119.431 4.90433 99.4255 2.05328 80.4251 5.30754C50.3371 10.2099 23.5848 31.254 11.615 59.2868C2.7439 79.4921 1.58992 102.932 8.32981 123.94C14.7533 144.312 28.5591 162.24 46.6195 173.642C75.7984 192.66 115.814 192.713 145.045 173.779C162.435 162.814 175.976 145.862 182.729 126.433C190.402 104.712 189.491 80.0937 180.163 59.0182C171.598 39.3781 155.927 22.9665 136.7 13.5165Z" fill="url(#paint0_linear)" stroke="url(#paint1_linear)" stroke-width="2"/>
<path d="M109.967 46.9242C110.209 44.6183 112.447 42.8789 114.751 43.0066C117.006 42.9029 118.834 44.7699 119.228 46.8683C119.413 49.1742 119.349 51.496 119.357 53.8098C115.822 55.5013 113.092 58.3896 109.645 60.2248C109.693 55.7966 109.403 51.3364 109.967 46.9242Z" fill="#D31AC6"/>
<path opacity="0.2" d="M119.228 46.8683C121.282 47.746 120.734 50.0598 120.815 51.8231C120.783 82.4296 120.766 113.036 120.815 143.635C121.225 147.289 116.732 150.991 113.277 149.044C112.286 148.613 111.618 147.736 111.513 146.667C114.131 148.286 118.101 147.56 119.019 144.353C119.768 139.821 119.188 135.185 119.349 130.605C119.357 127.143 119.365 123.688 119.349 120.225C119.349 113.786 119.373 107.339 119.349 100.9C119.365 92.9855 119.365 85.0706 119.349 77.1477C119.357 73.4376 119.357 69.7195 119.357 66.0014C119.365 61.9402 119.357 57.871 119.357 53.8098C119.349 51.496 119.413 49.1742 119.228 46.8683Z" fill="black"/>
<path d="M109.645 60.2248C113.092 58.3897 115.822 55.5013 119.357 53.8098C119.357 57.871 119.365 61.9402 119.357 66.0014C116.055 68.1636 112.882 70.5094 109.629 72.7434C109.629 68.5706 109.613 64.3977 109.645 60.2248Z" fill="#DC1CBA"/>
<path d="M50.8 105.528C53.9085 103.15 56.7996 100.47 60.2303 98.5308C60.2464 102.6 60.2383 106.669 60.2383 110.738C57.1217 113.036 54.1018 115.486 50.808 117.544C50.7758 113.539 50.7919 109.533 50.8 105.528Z" fill="#DC1CBA"/>
<path d="M92.6284 55.629C95.4471 53.8577 99.3931 56.3311 99.53 59.5067C99.5784 66.7514 99.53 74.0041 99.5461 81.2568C96.3329 83.443 93.2163 85.7488 90.0675 88.0228C90.0836 78.8871 90.0272 69.7434 90.0917 60.6077C90.0433 58.6689 90.8164 56.5785 92.6284 55.629Z" fill="#D71BC1"/>
<path opacity="0.25" d="M99.53 59.5067C100.972 61.4694 100.553 63.9588 100.609 66.2328C100.569 87.2169 100.529 108.209 100.585 129.193C100.521 131.172 100.504 133.254 99.5864 135.058C98.2979 136.933 95.6967 137.411 93.6351 136.669C91.5734 134.986 95.7209 136.246 96.5503 135.161C97.9274 134.108 99.4012 132.815 99.3851 130.933C99.683 124.749 99.4092 118.542 99.4978 112.342C99.5139 101.978 99.4656 91.6212 99.5461 81.2568C99.53 74.0041 99.5784 66.7514 99.53 59.5067Z" fill="black"/>
<path opacity="0.25" d="M40.2824 75.7913C40.6368 76.1344 41.3535 76.8365 41.7079 77.1876C42.0542 88.9403 41.7562 100.709 41.877 112.462C41.7884 114.361 42.1186 116.619 40.6126 118.087C38.245 120.065 33.2681 120.145 32.5272 116.499C35.1848 118.613 39.7509 117.52 40.4274 114.018C41.0556 109.486 40.5643 104.89 40.7093 100.334C40.7173 95.5786 40.7093 90.8233 40.7093 86.068C40.6851 82.6371 40.9509 79.1743 40.2824 75.7913Z" fill="black"/>
<path opacity="0.25" d="M158.456 81.2408C161.314 85.3339 159.221 90.4164 159.768 94.9643C160.179 98.1558 159.374 101.355 159.857 104.555C160.324 107.515 159.454 111.026 156.724 112.669C154.703 113.363 151.336 113.028 151.079 110.371C153.535 111.448 157.038 111.201 158.182 108.416C159.116 104.738 158.439 100.861 158.617 97.1026C158.625 93.6478 158.625 90.193 158.633 86.7382C158.633 84.9031 158.609 83.0679 158.456 81.2408Z" fill="black"/>
<path d="M131.26 61.8205C133.797 59.77 138.186 61.1104 138.991 64.2939C139.24 70.2062 139.055 76.1185 139.112 82.0307C136.221 84.2329 132.79 85.9642 130.543 88.8685C130.012 91.7568 129.891 94.709 129.464 97.6212C129.295 87.6956 129.44 77.7701 129.375 67.8445C129.391 65.754 129.287 63.1689 131.26 61.8205Z" fill="#EA23A3"/>
<path d="M51.1785 63.887C52.5556 59.746 58.9981 60.2966 60.1256 64.3498C60.2142 65.9216 60.2383 67.5014 60.2383 69.0812C56.8399 70.8445 54.0374 73.4775 50.808 75.4961C50.9691 71.6344 50.357 67.6849 51.1785 63.887Z" fill="#BD19E0"/>
<path d="M31.0373 78.1291C30.8199 75.6956 32.5433 73.2301 35.0237 72.8073C37.2625 72.2567 39.4046 73.8365 40.2824 75.7913C40.9509 79.1743 40.6851 82.6371 40.7093 86.068C37.8665 88.3738 34.6613 90.2728 32.1406 92.9456C31.0857 97.5653 31.7782 102.369 31.5286 107.068C31.3756 109.358 31.3595 111.664 31.3595 113.962C30.828 112.741 31.0454 111.385 31.0373 110.1C31.0615 99.4483 31.0454 88.7887 31.0373 78.1291Z" fill="#BD19E0"/>
<path opacity="0.23" d="M60.1256 64.3498C62.5013 67.9642 60.9148 72.536 61.3738 76.5653C61.9778 81.8791 61.2611 87.193 61.5349 92.5228C61.0517 104.188 61.704 115.877 61.2047 127.534C61.092 132.161 52.3301 132.999 52.0804 128.156C54.6252 130.27 59.1189 129.44 59.9243 126.018C60.6249 120.967 60.0692 115.821 60.2383 110.738C60.2383 106.669 60.2464 102.6 60.2303 98.5308C60.2383 94.8765 60.2464 91.2302 60.2303 87.5759C60.2383 81.4084 60.2464 75.2488 60.2383 69.0812C60.2383 67.5014 60.2142 65.9216 60.1256 64.3498Z" fill="black"/>
<path opacity="0.24" d="M138.991 64.2939C140.167 65.4189 140.279 67.0227 140.231 68.5546C140.207 87.193 140.247 105.839 140.207 124.486C140.118 126.528 140.432 129.073 138.5 130.43C135.625 132.417 130.599 131.515 130.028 127.581C132.299 130.047 137.332 130.23 138.637 126.736C139.434 122.22 138.967 117.584 139.104 113.02C139.112 102.688 139.112 92.3632 139.112 82.0307C139.055 76.1184 139.241 70.2062 138.991 64.2939Z" fill="black"/>
<path d="M109.629 72.7434C112.882 70.5094 116.055 68.1636 119.357 66.0014C119.357 69.7195 119.357 73.4376 119.349 77.1477C116.007 79.3259 112.987 81.9429 109.645 84.1211C109.613 80.3312 109.629 76.5334 109.629 72.7434Z" fill="#E41FAF"/>
<path d="M70.5223 70.9323C70.9169 68.387 73.6309 66.4402 76.1918 67.0865C77.8024 67.4535 78.946 68.77 79.7191 70.1424C79.5661 71.9137 79.4856 73.7328 78.9379 75.4403C76.3126 78.0254 73.051 79.8685 70.3049 82.3339C70.4176 78.536 70.0552 74.7062 70.5223 70.9323Z" fill="#CD1ACD"/>
<path d="M50.808 75.4961C54.0374 73.4775 56.8399 70.8445 60.2383 69.0812C60.2464 75.2488 60.2383 81.4084 60.2303 87.5759C57.0734 89.8259 54.0857 92.3233 50.808 94.4058C50.7919 88.1025 50.7758 81.7993 50.808 75.4961Z" fill="#C819D3"/>
<path d="M32.1406 92.9457C34.6613 90.2728 37.8665 88.3738 40.7093 86.068C40.7093 90.8233 40.7173 95.5786 40.7093 100.334C37.4719 102.329 34.468 104.674 31.5286 107.068C31.7782 102.369 31.0857 97.5654 32.1406 92.9457Z" fill="#C819D3"/>
<path d="M79.7191 70.1424C79.7352 70.3179 79.7755 70.6849 79.7916 70.8684C80.2345 78.5679 79.8882 86.2834 79.9849 93.9909C79.6305 99.4723 74.2107 101.786 70.3129 104.595C70.3049 97.1744 70.3129 89.7542 70.3049 82.3339C73.051 79.8685 76.3126 78.0254 78.9379 75.4403C79.4856 73.7328 79.5661 71.9136 79.7191 70.1424Z" fill="#DA1CBD"/>
<path opacity="0.18" d="M79.7916 70.8684C81.6599 71.4349 81.3861 73.4535 81.4425 74.9695C81.4264 89.6185 81.4022 104.268 81.4425 118.917C81.4667 120.792 81.3136 122.874 79.7996 124.198C78.3581 125.874 75.9421 125.914 73.9208 125.611C72.8416 124.972 72.5195 123.72 72.141 122.627C74.0013 123.488 76.4414 123.959 78.1004 122.419C79.9446 121.031 79.9688 118.565 79.9929 116.491C79.9929 108.991 79.9849 101.491 79.9849 93.9909C79.8882 86.2834 80.2345 78.5679 79.7916 70.8684Z" fill="black"/>
<path d="M109.645 84.1211C112.987 81.9429 116.007 79.3259 119.349 77.1477C119.365 85.0706 119.365 92.9855 119.349 100.9C115.725 102.456 112.923 105.265 109.645 107.355C109.621 99.6079 109.613 91.8605 109.645 84.1211Z" fill="#EB259F"/>
<path d="M149.452 81.3685C150.934 77.7621 156.756 77.7621 158.456 81.2408C158.609 83.068 158.633 84.9031 158.633 86.7382C155.299 88.7967 152.295 91.31 149.09 93.552C149.259 89.4909 148.84 85.3898 149.452 81.3685Z" fill="#F13389"/>
<path d="M90.0675 88.0228C93.2163 85.7488 96.3329 83.443 99.5461 81.2568C99.4656 91.6212 99.5139 101.978 99.4978 112.342C96.5503 114.847 93.474 117.225 90.0756 119.116C90.0594 108.752 90.0594 98.3872 90.0675 88.0228Z" fill="#E922A6"/>
<path d="M130.543 88.8685C132.79 85.9642 136.221 84.2329 139.112 82.0307C139.112 92.3632 139.112 102.688 139.104 113.02C134.795 115.765 128.948 118.653 129.424 124.653C129.408 115.645 129.295 106.629 129.464 97.6212C129.891 94.709 130.012 91.7568 130.543 88.8685Z" fill="#F13488"/>
<path d="M149.09 93.552C152.295 91.31 155.299 88.7967 158.633 86.7382C158.625 90.193 158.625 93.6478 158.617 97.1026C155.17 98.9457 152.134 101.403 149.13 103.877C149.162 100.43 149.082 96.9909 149.09 93.552Z" fill="#F23C7F"/>
<path d="M50.808 94.4058C54.0857 92.3233 57.0734 89.826 60.2303 87.5759C60.2464 91.2302 60.2383 94.8765 60.2303 98.5308C56.7996 100.47 53.9085 103.15 50.8 105.528C50.7919 101.818 50.7839 98.1079 50.808 94.4058Z" fill="#D41BC5"/>
<path d="M70.3129 104.595C74.2107 101.786 79.6305 99.4723 79.9849 93.9909C79.9849 101.491 79.9929 108.991 79.9929 116.491C79.9688 118.565 79.9446 121.031 78.1004 122.419C76.4414 123.959 74.0013 123.488 72.141 122.627C70.9491 121.398 70.3693 119.73 70.3532 118.047C70.2243 113.563 70.3532 109.079 70.3129 104.595Z" fill="#E721A9"/>
<path d="M149.13 103.877C152.134 101.403 155.17 98.9457 158.617 97.1026C158.439 100.861 159.116 104.738 158.182 108.416C157.038 111.201 153.535 111.448 151.079 110.371C149.033 108.823 149.098 106.174 149.13 103.877Z" fill="#F24475"/>
<path d="M31.5286 107.068C34.468 104.674 37.4719 102.329 40.7093 100.334C40.5643 104.89 41.0556 109.486 40.4274 114.018C39.7509 117.52 35.1848 118.613 32.5272 116.499C31.8829 115.741 31.4883 114.895 31.3595 113.962C31.3595 111.664 31.3756 109.358 31.5286 107.068Z" fill="#D31AC7"/>
<path d="M109.645 107.355C112.923 105.265 115.725 102.456 119.349 100.9C119.373 107.339 119.349 113.786 119.349 120.225C116.112 122.515 113.003 124.988 109.637 127.111C109.629 120.528 109.605 113.938 109.645 107.355Z" fill="#F1328B"/>
<path d="M50.808 117.544C54.1018 115.486 57.1217 113.036 60.2383 110.738C60.0692 115.821 60.6249 120.967 59.9243 126.018C59.1189 129.44 54.6252 130.27 52.0804 128.156C49.906 125.06 51.0657 121.063 50.808 117.544Z" fill="#E41FAE"/>
<path d="M90.0756 119.116C93.474 117.225 96.5503 114.847 99.4978 112.342C99.4092 118.542 99.6831 124.749 99.3851 130.933C99.4012 132.816 97.9274 134.108 96.5503 135.161C94.1827 135.361 91.3157 135.026 90.5024 132.401C89.5763 128.052 90.2688 123.528 90.0756 119.116Z" fill="#F0308E"/>
<path d="M129.424 124.653C128.948 118.653 134.795 115.765 139.104 113.02C138.967 117.584 139.434 122.22 138.637 126.736C137.332 130.23 132.299 130.047 130.028 127.581C129.722 126.624 129.496 125.643 129.424 124.653Z" fill="#F24573"/>
<path d="M109.637 127.111C113.003 124.988 116.112 122.515 119.349 120.225C119.365 123.688 119.357 127.143 119.349 130.605C116.007 132.76 113.003 135.385 109.629 137.515C109.629 134.044 109.613 130.573 109.637 127.111Z" fill="#F23E7B"/>
<path d="M109.629 137.515C113.003 135.385 116.007 132.76 119.349 130.605C119.188 135.185 119.768 139.821 119.019 144.353C118.101 147.56 114.131 148.286 111.513 146.667C109.25 144.161 109.645 140.611 109.629 137.515Z" fill="#F24771"/>
<defs>
<linearGradient id="paint0_linear" x1="95.9439" y1="186.943" x2="95.9439" y2="5" gradientUnits="userSpaceOnUse">
<stop stop-color="#A93AFF"/>
<stop offset="1" stop-color="#FF81FF"/>
</linearGradient>
<linearGradient id="paint1_linear" x1="95.9439" y1="186.943" x2="95.9439" y2="5" gradientUnits="userSpaceOnUse">
<stop stop-color="#A93AFF"/>
<stop offset="1" stop-color="#FF81FF"/>
</linearGradient>
</defs>
</svg>
