<svg width="64" height="64" viewBox="0 0 64 64" fill="none" xmlns="http://www.w3.org/2000/svg">
<path fill-rule="evenodd" clip-rule="evenodd" d="M58 51.85V13.15C58 8.31052 53.6111 6 50.375 6H13.625C10.3889 6 6 8.31051 6 13.15V51.85C6 56.6895 10.3889 59 13.625 59H50.375C53.6111 59 58 56.6895 58 51.85ZM53 51.85V13.15C53 12.344 52.4639 11.6443 51.6666 11.2761L51.6665 11.7637C51.3471 11.9378 51.0266 12.1235 50.7048 12.3379C49.2958 13.2602 47.935 14.4737 46.6233 15.9785C45.3602 17.4347 44.1952 19.1344 43.1264 21.0761C42.0576 22.9693 41.2308 24.9594 40.6478 27.0467C40.0648 29.1342 39.7741 31.0769 39.7741 32.873C39.7741 34.6204 40.0174 36.1245 40.5032 37.3866C41.0376 38.6487 41.7912 39.5954 42.7628 40.2264C43.7345 40.8574 44.9232 41.1006 46.3321 40.9549C47.6922 40.8093 49.1025 40.2757 50.5599 39.3534C50.9352 39.1034 51.304 38.8347 51.6663 38.5526V43.1229C51.0917 43.6157 50.5075 44.0898 49.9032 44.5233C48.0572 45.834 46.2355 46.6818 44.438 47.0702C42.592 47.4585 40.9879 47.3379 39.6276 46.7069C38.2673 46.0758 37.1992 45.0323 36.4219 43.576C35.6446 42.1197 35.1837 40.3233 35.038 38.1874C34.9408 36.0032 35.2316 33.5999 35.9117 30.9786C36.5433 28.3571 37.4907 25.8333 38.7539 23.4062C40.0656 20.9305 41.5234 18.7211 43.1266 16.7794C44.7785 14.789 46.527 13.1388 48.3731 11.8281C48.7999 11.5251 49.2268 11.2499 49.6537 11H13.625C12.1708 11 11 11.9589 11 13.15V51.85C11 53.0411 12.1708 54 13.625 54H50.375C51.8293 54 53 53.0411 53 51.85Z" fill="url(#paint0_linear_653_7)"/>
<path d="M51.6666 11.2761L52.0858 10.3682L50.6668 9.71301L50.6666 11.2759L51.6666 11.2761ZM51.6665 11.7637L52.1451 12.6417L52.6664 12.3575L52.6665 11.7638L51.6665 11.7637ZM50.7048 12.3379L51.2525 13.1746L51.2592 13.1701L50.7048 12.3379ZM46.6233 15.9785L45.8695 15.3215L45.8679 15.3233L46.6233 15.9785ZM43.1264 21.0761L43.9972 21.5677L44.0024 21.5583L43.1264 21.0761ZM40.6478 27.0467L39.6847 26.7777L39.6847 26.7777L40.6478 27.0467ZM40.5032 37.3866L39.5699 37.7458L39.5759 37.7612L39.5823 37.7765L40.5032 37.3866ZM42.7628 40.2264L42.2181 41.0651L42.2182 41.0651L42.7628 40.2264ZM46.3321 40.9549L46.4349 41.9496L46.4385 41.9493L46.3321 40.9549ZM50.5599 39.3534L51.0947 40.1984L51.1046 40.1921L51.1143 40.1856L50.5599 39.3534ZM51.6663 38.5526H52.6663V36.5065L51.0519 37.7636L51.6663 38.5526ZM51.6663 43.1229L52.3173 43.882L52.6663 43.5827V43.1229H51.6663ZM49.9032 44.5233L50.4821 45.3387L50.4861 45.3358L49.9032 44.5233ZM44.438 47.0702L44.6439 48.0488L44.6492 48.0476L44.438 47.0702ZM39.6276 46.7069L39.2068 47.614L39.2068 47.614L39.6276 46.7069ZM36.4219 43.576L35.5397 44.0469L35.5397 44.0469L36.4219 43.576ZM35.038 38.1874L34.039 38.2319L34.0395 38.2437L34.0403 38.2555L35.038 38.1874ZM35.9117 30.9786L36.8797 31.2298L36.8819 31.2213L36.8839 31.2128L35.9117 30.9786ZM38.7539 23.4062L37.8702 22.938L37.8668 22.9445L38.7539 23.4062ZM43.1266 16.7794L42.3571 16.1407L42.3555 16.1427L43.1266 16.7794ZM48.3731 11.8281L48.952 12.6435L48.952 12.6435L48.3731 11.8281ZM49.6537 11L50.1588 11.863L53.3415 10H49.6537V11ZM57 13.15V51.85H59V13.15H57ZM50.375 7C51.7804 7 53.466 7.50926 54.7824 8.54584C56.0716 9.56104 57 11.071 57 13.15H59C59 10.3895 57.734 8.32447 56.0197 6.97454C54.3326 5.646 52.2057 5 50.375 5V7ZM13.625 7H50.375V5H13.625V7ZM7 13.15C7 11.071 7.92843 9.56104 9.21763 8.54584C10.534 7.50926 12.2196 7 13.625 7V5C11.7943 5 9.66741 5.646 7.98029 6.97454C6.26602 8.32447 5 10.3895 5 13.15H7ZM7 51.85V13.15H5V51.85H7ZM13.625 58C12.2196 58 10.534 57.4907 9.21763 56.4542C7.92843 55.439 7 53.929 7 51.85H5C5 54.6105 6.26602 56.6755 7.98029 58.0255C9.66741 59.354 11.7943 60 13.625 60V58ZM50.375 58H13.625V60H50.375V58ZM57 51.85C57 53.929 56.0716 55.439 54.7824 56.4542C53.466 57.4907 51.7804 58 50.375 58V60C52.2057 60 54.3326 59.354 56.0197 58.0255C57.734 56.6755 59 54.6105 59 51.85H57ZM52 13.15V51.85H54V13.15H52ZM51.2473 12.184C51.7795 12.4297 52 12.8232 52 13.15H54C54 11.8647 53.1483 10.8588 52.0858 10.3682L51.2473 12.184ZM52.6665 11.7638L52.6666 11.2763L50.6666 11.2759L50.6665 11.7635L52.6665 11.7638ZM51.2592 13.1701C51.548 12.9777 51.8409 12.8075 52.1451 12.6417L51.1878 10.8857C50.8532 11.0681 50.5051 11.2693 50.1504 11.5057L51.2592 13.1701ZM47.3771 16.6356C48.6394 15.1875 49.9326 14.0386 51.2525 13.1746L50.1571 11.5012C48.659 12.4819 47.2307 13.7598 45.8695 15.3215L47.3771 16.6356ZM44.0024 21.5583C45.0424 19.669 46.1683 18.0292 47.3787 16.6338L45.8679 15.3233C44.5521 16.8402 43.348 18.5997 42.2503 20.5939L44.0024 21.5583ZM41.611 27.3157C42.1721 25.3066 42.9678 23.3912 43.9972 21.5677L42.2556 20.5845C41.1474 22.5474 40.2895 24.6122 39.6847 26.7777L41.611 27.3157ZM40.7741 32.873C40.7741 31.184 41.0477 29.3327 41.611 27.3157L39.6847 26.7777C39.082 28.9356 38.7741 30.9698 38.7741 32.873H40.7741ZM41.4364 37.0274C41.0055 35.9077 40.7741 34.5315 40.7741 32.873H38.7741C38.7741 34.7094 39.0293 36.3412 39.5699 37.7458L41.4364 37.0274ZM43.3075 39.3878C42.5318 38.884 41.8951 38.1091 41.424 36.9967L39.5823 37.7765C40.1801 39.1883 41.0506 40.3068 42.2181 41.0651L43.3075 39.3878ZM46.2293 39.9602C44.996 40.0877 44.048 39.8687 43.3075 39.3878L42.2182 41.0651C43.421 41.8462 44.8504 42.1134 46.4349 41.9496L46.2293 39.9602ZM50.0252 38.5084C48.6647 39.3693 47.3994 39.835 46.2256 39.9606L46.4385 41.9493C47.9851 41.7837 49.5403 41.182 51.0947 40.1984L50.0252 38.5084ZM51.0519 37.7636C50.7061 38.0329 50.3574 38.2868 50.0056 38.5211L51.1143 40.1856C51.513 39.9201 51.9018 39.6366 52.2807 39.3416L51.0519 37.7636ZM52.6663 43.1229V38.5526H50.6663V43.1229H52.6663ZM50.4861 45.3358C51.122 44.8797 51.7299 44.3857 52.3173 43.882L51.0153 42.3638C50.4534 42.8457 49.893 43.2999 49.3203 43.7108L50.4861 45.3358ZM44.6492 48.0476C46.6053 47.625 48.5501 46.7104 50.4821 45.3387L49.3242 43.7079C47.5643 44.9575 45.8657 45.7387 44.2268 46.0927L44.6492 48.0476ZM39.2068 47.614C40.8087 48.3572 42.6423 48.4698 44.6438 48.0488L44.2321 46.0916C42.5417 46.4472 41.1671 46.3187 40.0484 45.7997L39.2068 47.614ZM35.5397 44.0469C36.4084 45.6743 37.6292 46.8822 39.2068 47.614L40.0484 45.7998C38.9054 45.2695 37.9901 44.3903 37.3041 43.1051L35.5397 44.0469ZM34.0403 38.2555C34.1929 40.4919 34.6792 42.4347 35.5397 44.0469L37.3041 43.1051C36.61 41.8048 36.1745 40.1547 36.0357 38.1194L34.0403 38.2555ZM34.9438 30.7275C34.2443 33.4234 33.9365 35.9279 34.039 38.2319L36.037 38.143C35.9451 36.0785 36.2189 33.7764 36.8797 31.2298L34.9438 30.7275ZM37.8668 22.9445C36.5667 25.4426 35.5904 28.0426 34.9395 30.7444L36.8839 31.2128C37.4961 28.6715 38.4147 26.224 39.6409 23.8678L37.8668 22.9445ZM42.3555 16.1427C40.7046 18.1421 39.2102 20.4091 37.8702 22.938L39.6375 23.8744C40.9211 21.4519 42.3422 19.3001 43.8977 17.4161L42.3555 16.1427ZM47.7942 11.0127C45.8679 12.3803 44.0568 14.0928 42.3571 16.1407L43.8961 17.418C45.5002 15.4853 47.1861 13.8972 48.952 12.6435L47.7942 11.0127ZM49.1485 10.137C48.6961 10.4018 48.2447 10.6929 47.7942 11.0127L48.952 12.6435C49.3552 12.3573 49.7575 12.0979 50.1588 11.863L49.1485 10.137ZM13.625 12H49.6537V10H13.625V12ZM12 13.15C12 12.6886 12.5271 12 13.625 12V10C11.8144 10 10 11.2292 10 13.15H12ZM12 51.85V13.15H10V51.85H12ZM13.625 53C12.5271 53 12 52.3114 12 51.85H10C10 53.7708 11.8144 55 13.625 55V53ZM50.375 53H13.625V55H50.375V53ZM52 51.85C52 52.3114 51.4729 53 50.375 53V55C52.1856 55 54 53.7708 54 51.85H52Z" fill="url(#paint1_linear_653_7)"/>
<path d="M16 5V27L23.0033 20.6687L30 27V5H16Z" fill="url(#paint2_linear_653_7)"/>
<defs>
<linearGradient id="paint0_linear_653_7" x1="32" y1="59" x2="32" y2="6" gradientUnits="userSpaceOnUse">
<stop stop-color="#5558FF"/>
<stop offset="1" stop-color="#00C0FF"/>
</linearGradient>
<linearGradient id="paint1_linear_653_7" x1="32" y1="59" x2="32" y2="6" gradientUnits="userSpaceOnUse">
<stop stop-color="#5558FF"/>
<stop offset="1" stop-color="#00C0FF"/>
</linearGradient>
<linearGradient id="paint2_linear_653_7" x1="23" y1="25.5" x2="23" y2="9" gradientUnits="userSpaceOnUse">
<stop stop-color="#FE0844"/>
<stop offset="1" stop-color="#FEB302"/>
</linearGradient>
</defs>
</svg>
