<svg width="192" height="192" viewBox="0 0 192 192" fill="none" xmlns="http://www.w3.org/2000/svg">
<path d="M65.9787 11.3245C82.3833 5.78773 100.349 4.23993 117.285 8.24968C136.042 12.6334 153.05 23.5303 165.479 38.1462C187.952 65.1341 193.333 105.876 176.585 137.06C173.514 142.223 164.75 138.992 165.666 133.082C167.123 126.683 170.475 120.865 172.026 114.477C176.21 97.0043 175.107 77.8801 166.8 61.7372C160.784 49.7391 151.156 40.0056 140.726 31.7472C138.29 29.9085 135.844 28.0179 133.054 26.7402C125.903 26.2935 118.534 27.2804 111.997 30.3344C115.359 33.5651 119.387 36.0167 122.666 39.3616C134.782 50.6533 143.234 65.8301 146.076 82.1599C151.208 109.574 140.643 139.782 118.274 156.849C114.36 160.329 108.198 156.558 108.354 151.738C108.479 149.058 110.862 147.479 112.611 145.807C124.571 135.46 132.877 120.793 134.824 105.045C138.779 77.0698 122.864 47.059 96.4563 36.1309C95.9254 36.0998 94.8637 36.0374 94.3329 35.9959C78.9587 42.8935 65.8746 55.6187 60.1184 71.6058C54.9347 86.045 54.0812 102.209 58.5883 116.939C63.4077 132.635 75.1074 145.609 89.1492 153.837C105.387 163.56 125.685 163.986 143.422 158.397C146.409 157.171 150.156 158.304 151.614 161.274C152.811 163.757 152.322 167.102 149.927 168.702C135.396 179.464 117.524 185.499 99.4749 186.268C76.8874 187.078 54.0916 179.09 36.9896 164.339C20.637 150.45 10.051 130.298 6.98037 109.158C3.98258 89.151 7.90678 68.157 18.1076 50.6637C28.527 32.2874 45.983 18.1182 65.9787 11.3245ZM48.4395 34.2403C34.1687 45.3242 23.8014 61.3529 19.6898 78.9396C16.1507 94.3761 17.5663 110.883 23.6244 125.519C31.91 145.859 49.1473 162.344 69.8509 169.772C81.9878 174.114 95.3321 175.87 108.042 173.231C85.277 169.304 64.9274 154.315 53.6336 134.307C44.9108 119.37 41.5695 101.45 44.151 84.3725C46.493 68.3751 54.6433 53.6346 65.656 41.9378C76.9394 29.9397 92.2303 22.2734 108.26 18.9077C87.3172 15.4277 65.0835 21.0684 48.4395 34.2403Z" fill="url(#paint0_linear_637_74)" stroke="url(#paint1_linear_637_74)" stroke-width="4"/>
<defs>
<linearGradient id="paint0_linear_637_74" x1="185.849" y1="7.14318" x2="6.95124" y2="184.611" gradientUnits="userSpaceOnUse">
<stop stop-color="#FE7970"/>
<stop offset="1" stop-color="#DC3282"/>
</linearGradient>
<linearGradient id="paint1_linear_637_74" x1="185.849" y1="7.14318" x2="6.95124" y2="184.611" gradientUnits="userSpaceOnUse">
<stop stop-color="#FE7970"/>
<stop offset="1" stop-color="#DC3282"/>
</linearGradient>
</defs>
</svg>
