<svg width="48" height="48" viewBox="0 0 48 48" fill="none" xmlns="http://www.w3.org/2000/svg">
<path d="M26.6726 3L21.1751 3.5433C20.6634 3.59387 20.2734 4.02425 20.2734 4.53845V29.5503C20.2734 30.1639 20.821 30.6328 21.4274 30.5384L25.7909 29.8585C26.2779 29.7827 26.637 29.3633 26.637 28.8704V21.4447C26.637 20.467 27.8955 20.0703 28.4562 20.8713L35.1168 30.3865C35.3712 30.7499 35.8346 30.9023 36.255 30.7608L41.6823 28.9343C42.3601 28.7062 42.5863 27.8611 42.1131 27.3249L33.5866 17.6637C33.252 17.2847 33.253 16.7155 33.5889 16.3377L42.1746 6.67876C42.6516 6.14218 42.4245 5.29273 41.7434 5.06571L36.2536 3.23576C35.8338 3.09582 35.3719 3.24845 35.1181 3.61098L28.4562 13.128C27.8955 13.929 26.637 13.5323 26.637 12.5546V3.03551C26.637 3.01585 26.6529 2.99993 26.6726 3Z" fill="url(#paint0_linear_640_25)"/>
<path d="M12.2556 10.6391L12.2547 10.6383C12.1767 10.6479 12.0933 10.6662 12.0344 10.7252L9.31994 13.4222C9.20606 13.5357 9.19397 13.7073 9.27769 13.8447L11.8449 18.057C12.0405 18.378 12.0368 18.7801 11.8544 19.1088C11.4211 19.8893 11.0626 20.7162 10.7832 21.5793C10.6677 21.9362 10.3765 22.2122 10.0091 22.288L5.28063 23.2632C5.11887 23.2963 5 23.4516 5 23.617V27.4252C5 27.5865 5.12397 27.7236 5.28089 27.7608L9.84236 28.8606C10.2122 28.9497 10.4964 29.2419 10.5971 29.6088C10.8733 30.6154 11.2605 31.5752 11.7425 32.4774C11.923 32.8153 11.9155 33.2259 11.7042 33.5454L9.03944 37.5745C8.94819 37.7129 8.9665 37.8971 9.08419 38.0145L11.7962 40.7091C11.9107 40.8227 12.0888 40.8369 12.2262 40.7538L16.4127 38.23C16.7292 38.0392 17.1236 38.0411 17.4485 38.2169C18.2835 38.6685 19.1688 39.0374 20.0952 39.3132C20.4628 39.4227 20.75 39.7171 20.8285 40.0925L21.7964 44.721C21.8307 44.8826 21.9682 44.9997 22.1349 44.9997H25.9705C26.1308 44.9997 26.2704 44.8918 26.3085 44.7362L27.4681 40.0403C27.5561 39.6837 27.8336 39.4071 28.1845 39.2985C29.1206 39.0087 30.0105 38.6163 30.8513 38.1459C31.1884 37.9573 31.6032 37.9601 31.927 38.1709L36.1173 40.8982C36.2566 40.988 36.4389 40.9715 36.5572 40.856L39.2568 38.1614C39.3713 38.0478 39.398 37.8729 39.314 37.7364L37.8021 35.2595C37.6082 34.9419 37.2226 34.7977 36.8679 34.9101C36.786 34.935 36.6964 34.9012 36.6428 34.8354C36.6351 34.8258 36.6285 34.8161 36.6212 34.8062C36.5411 34.6979 36.0233 33.9973 35.6052 33.431C35.461 33.2117 34.94 32.444 34.288 31.5404C33.8489 30.9318 32.9142 31.0276 32.4913 31.6477C30.6166 34.3968 27.4855 36.0885 24.0902 36.0917C18.467 36.0917 13.9086 31.5333 13.9086 25.9101C13.9121 22.2609 15.524 18.9957 18.4726 17.1971C18.7902 17.0034 18.9994 16.6658 18.9994 16.2938V14.2214C18.9994 13.5244 18.3154 13.0694 17.7153 13.4241C17.3932 13.6145 16.9753 13.6141 16.6616 13.4101L12.4744 10.6873C12.405 10.6417 12.3335 10.6325 12.2566 10.64L12.2556 10.6391Z" fill="url(#paint1_linear_640_25)"/>
<defs>
<linearGradient id="paint0_linear_640_25" x1="30.3872" y1="30.0661" x2="34.2975" y2="5.15501" gradientUnits="userSpaceOnUse">
<stop stop-color="#8D01A2"/>
<stop offset="1" stop-color="#FF33DB"/>
</linearGradient>
<linearGradient id="paint1_linear_640_25" x1="11.2283" y1="40.9431" x2="42.2148" y2="13.9059" gradientUnits="userSpaceOnUse">
<stop stop-color="#FE0844"/>
<stop offset="1" stop-color="#FEB302"/>
</linearGradient>
</defs>
</svg>
