<svg width="256" height="256" viewBox="0 0 256 256" fill="none" xmlns="http://www.w3.org/2000/svg">
<path d="M93.2305 102.192C93.2305 101.088 94.1259 100.192 95.2305 100.192H160.769C161.874 100.192 162.769 101.088 162.769 102.192V150.346C162.769 151.451 161.873 152.346 160.769 152.346H95.2305C94.1259 152.346 93.2305 151.451 93.2305 150.346V102.192Z" fill="#FDBC4B"/>
<path d="M15 37C15 35.8954 15.8954 35 17 35H82.5385C83.643 35 84.5385 35.8954 84.5385 37V85.1538C84.5385 86.2584 83.643 87.1538 82.5385 87.1538H17C15.8954 87.1538 15 86.2584 15 85.1538V37Z" fill="#1D99F3"/>
<path d="M171.462 37C171.462 35.8954 172.357 35 173.462 35H239C240.105 35 241 35.8954 241 37V85.1538C241 86.2584 240.105 87.1538 239 87.1538H173.462C172.357 87.1538 171.462 86.2584 171.462 85.1538V37Z" fill="#F47750"/>
<path d="M93.2305 37C93.2305 35.8954 94.1259 35 95.2305 35H160.769C161.874 35 162.769 35.8954 162.769 37V85.1538C162.769 86.2584 161.873 87.1538 160.769 87.1538H95.2305C94.1259 87.1538 93.2305 86.2584 93.2305 85.1538V37Z" fill="#DA4453"/>
<path d="M171.462 102.192C171.462 101.088 172.357 100.192 173.462 100.192H239C240.105 100.192 241 101.088 241 102.192V150.346C241 151.451 240.105 152.346 239 152.346H173.462C172.357 152.346 171.462 151.451 171.462 150.346V102.192Z" fill="#2ECC71"/>
<path d="M15 171.731C15 170.626 15.8954 169.731 17 169.731H82.5385C83.643 169.731 84.5385 170.626 84.5385 171.731V219.885C84.5385 220.989 83.643 221.885 82.5385 221.885H17C15.8954 221.885 15 220.989 15 219.885V171.731Z" fill="#9B59B6"/>
<path d="M171.462 171.731C171.462 170.626 172.357 169.731 173.462 169.731H239C240.105 169.731 241 170.626 241 171.731V219.885C241 220.989 240.105 221.885 239 221.885H173.462C172.357 221.885 171.462 220.989 171.462 219.885V171.731Z" fill="#31363B"/>
<path d="M15 102.192C15 101.088 15.8954 100.192 17 100.192H82.5385C83.643 100.192 84.5385 101.088 84.5385 102.192V150.346C84.5385 151.451 83.643 152.346 82.5385 152.346H17C15.8954 152.346 15 151.451 15 150.346V102.192Z" fill="#B0B8B8"/>
<path d="M93.2305 171.731C93.2305 170.626 94.1259 169.731 95.2305 169.731H160.769C161.874 169.731 162.769 170.626 162.769 171.731V219.885C162.769 220.989 161.873 221.885 160.769 221.885H95.2305C94.1259 221.885 93.2305 220.989 93.2305 219.885V171.731Z" fill="#01FFD2"/>
</svg>
