<svg width="64" height="64" viewBox="0 0 64 64" fill="none" xmlns="http://www.w3.org/2000/svg">
<path d="M5 5.9298C5 5.41629 5.41684 5 5.93103 5H26.9087C27.185 5 27.447 5.12257 27.6239 5.33456L31.7207 10.2443C31.8976 10.4562 32.1596 10.5788 32.4359 10.5788L58.069 10.5791C58.5831 10.5791 59 12.8551 59 13.3686C58.9962 13.4799 58.6642 13.5747 58.5702 13.5146C58.4255 13.4222 58.2535 13.3685 58.069 13.3685L32.3857 13.3682C32.1387 13.3682 31.9019 13.4662 31.7273 13.6406L26.6865 18.6748C26.5119 18.8492 26.2751 18.9472 26.0281 18.9472L5.93103 18.9471C5.41684 18.9471 5 19.3634 5 19.8769V5.9298Z" stroke="url(#paint0_linear)" stroke-width="5"/>
<path d="M5 20.8058V20.8176C5 20.8176 5.00044 20.8141 5.0009 20.8123L5.0018 20.8077L5.00092 20.8067L5 20.8058Z" stroke="url(#paint1_linear)" stroke-width="5"/>
<path d="M32.415 13.3684C32.1493 13.3684 31.8946 13.4741 31.707 13.6622L26.7068 18.6748C26.5192 18.8628 26.2645 18.9685 25.9988 18.9685L5.93333 18.9685C5.41787 18.9685 5 19.3864 5 19.9018V20.8343C5 20.8348 5.00041 20.8352 5.00092 20.8352V20.8352C5.00143 20.8352 5.00184 20.8356 5.0018 20.8361C5.00151 20.8395 5 20.8429 5 20.8461V54.4351V54.4351C5 54.9493 5.41684 55.3684 5.93103 55.3684V55.3684H58.069V55.3684C58.5832 55.3684 59 54.9493 59 54.4351V54.4351V20.8461V20.8352V14.3687C59 13.8165 58.5523 13.3687 58 13.3687L32.415 13.3684Z" stroke="url(#paint2_linear)" stroke-width="5"/>
<path d="M8.27232 25.0049C8.18031 25.1853 8.08829 25.3643 8 25.5446C9.39892 26.3218 13.4303 28.3475 15.344 29.5474C17.7626 31.0284 21.0317 34.0501 21.2891 34.5586C18.7735 38.9394 19.915 42.8167 19.6178 43.2294C19.404 43.5739 17.4269 45.7451 18.0635 46.0658C18.6952 46.3817 19.6999 45.8856 19.8517 45.7885C20.1675 45.5946 20.4933 45.3123 20.3565 45.8706C20.0891 47.0122 18.8755 49.7565 20.5505 49.1734C20.7544 49.0564 23.4502 46.0845 23.7761 45.9825C29.1392 47.3814 35.1378 46.7398 36.2482 46.22C36.8264 46.2586 38.4629 47.2882 39.3954 47.7794C40.3281 48.2656 42.8686 49.4841 42.1162 47.2696C41.8825 46.5694 40.2124 44.7825 40.4835 44.6657C41.0804 44.4282 42.5577 45.2824 43.1259 45.4428C44.8258 45.9191 45.0546 45.2589 43.9815 43.8064C42.922 42.354 42.7628 42.5779 42.4271 41.9076C42.1647 41.3679 42.4271 40.7711 42.621 40.6256C42.9655 40.3632 48.0414 37.5455 49.2315 36.4674C50.9947 34.8645 49.2315 32.8638 48.7987 32.5815C45.1416 29.9491 41.3863 30.5124 41.3377 30.0945C41.3129 29.6183 41.3229 28.2442 41.2594 27.768C40.8951 24.5424 39.4042 25.3544 39.2002 25.3544C37.7093 25.5882 38.2577 27.87 38.8893 30.0174C38.9379 30.5658 38.3696 30.3233 38.0338 29.7452C36.8874 26.67 36.4061 26.7235 36.0903 26.6314C35.7843 26.563 34.7063 27.2196 34.7249 28.4631C34.7299 28.8175 35.1527 30.5087 35.1527 31.0284C34.4489 31.6452 34.4141 33.0441 33.6754 33.5539C31.5242 34.0003 26.3551 32.4908 25.7097 32.4224C23.4752 32.0045 22.499 33.6808 22.1397 33.2778C19.2398 29.9553 14.8093 27.4882 12.8906 27.0605C12.147 26.9 9.63643 25.7921 8.73242 25.2337C8.58692 25.1467 8.42154 25.0833 8.26113 25L8.27232 25.0049ZM40.6017 32.7382C40.6265 32.7133 40.6552 32.7482 40.6837 32.7767C40.8976 33.4855 41.1351 34.1607 42.544 34.3311C42.7093 34.351 41.7619 34.9043 41.1115 34.5649C40.5183 34.2055 40.4649 32.8986 40.6017 32.7382ZM44.255 36.3082C44.3856 36.2883 44.4788 36.2933 44.5708 36.3082C44.9153 36.3953 42.0715 37.8776 41.8501 37.6736C41.7146 37.543 43.3659 36.4737 44.2599 36.3082H44.255ZM44.9986 37.2458C45.2945 37.2707 43.3522 39.2814 43.1333 39.0725C42.973 38.927 44.3918 37.1973 44.9986 37.2458Z" fill="url(#paint3_linear)"/>
<defs>
<linearGradient id="paint0_linear" x1="10.0233" y1="12.9088" x2="49.7907" y2="12.9088" gradientUnits="userSpaceOnUse">
<stop stop-color="#5570FF"/>
<stop offset="1" stop-color="#4DD3FF"/>
</linearGradient>
<linearGradient id="paint1_linear" x1="10.0233" y1="12.9088" x2="49.7907" y2="12.9088" gradientUnits="userSpaceOnUse">
<stop stop-color="#5570FF"/>
<stop offset="1" stop-color="#4DD3FF"/>
</linearGradient>
<linearGradient id="paint2_linear" x1="32" y1="55.3684" x2="32" y2="13.3684" gradientUnits="userSpaceOnUse">
<stop stop-color="#5570FF"/>
<stop offset="1" stop-color="#4DD3FF"/>
</linearGradient>
<linearGradient id="paint3_linear" x1="29" y1="49.2537" x2="29" y2="25" gradientUnits="userSpaceOnUse">
<stop stop-color="#5570FF"/>
<stop offset="1" stop-color="#4DD3FF"/>
</linearGradient>
</defs>
</svg>
