<svg width="22" height="22" viewBox="0 0 22 22" fill="none" xmlns="http://www.w3.org/2000/svg">
<path d="M2.49988 8.00005C2.46356 8.19707 2.47599 8.40337 2.54508 8.60264L5.51837 18.5502L5.78054 19.2284C5.94951 19.5083 6 20 6.54393 19.8055L10.9999 15L15.4557 20C16 20.5 16.015 19.7267 16.1859 19.473L16.7876 17.8617L19.5 8.60259C19.5923 8.33642 19.5843 8.05753 19.492 7.80542" stroke="url(#paint0_linear_574_37)" stroke-width="1.2"/>
<path d="M2.69623 7.51195L2.20795 7.16326L2.69708 7.51076C2.72826 7.46687 2.76753 7.42671 2.81473 7.3926L2.81482 7.39254L10.6897 1.69985C10.6897 1.69984 10.6897 1.69983 10.6897 1.69982C10.6898 1.69978 10.6898 1.69974 10.6899 1.6997C10.7801 1.63458 10.8886 1.59999 10.9996 1.6H10.9997C11.1107 1.59999 11.2192 1.63458 11.3094 1.69972C11.3095 1.69976 11.3095 1.6998 11.3096 1.69985L19.1853 7.39255L19.1854 7.3926C19.2585 7.44546 19.3141 7.51428 19.3505 7.59209L19.351 7.59304C19.3948 7.68627 19.4102 7.79072 19.3933 7.89363L18.4121 8.91838L17.5697 9.05168L17.3249 9.0904L17.1789 9.29052L16.2836 10.5167L15.4862 10.6429L15.2416 10.6816L15.0955 10.8816L14.1995 12.108L13.4027 12.2342L13.1582 12.2729L13.0121 12.4728L12.116 13.6993L11.573 13.7853L11.3636 13.6255L11.0001 13.3481L10.6363 13.625L10.4267 13.7845L9.88316 13.6984L8.9871 12.472L8.84103 12.2721L8.59648 12.2333L7.79973 12.1072L6.90366 10.8807L6.75756 10.6808L6.51297 10.6421L5.71556 10.5159L4.82035 9.28968L4.67426 9.08956L4.42953 9.05084L3.56229 8.91361L2.67323 8.11652L2.62524 7.96926L2.62522 7.96919C2.57407 7.81231 2.60239 7.64336 2.69623 7.51195Z" stroke="url(#paint1_linear_574_37)" stroke-width="1.2"/>
<defs>
<linearGradient id="paint0_linear_574_37" x1="11.0227" y1="20.1648" x2="11.0227" y2="7.80542" gradientUnits="userSpaceOnUse">
<stop stop-color="#00B59C"/>
<stop offset="1" stop-color="#9CFFAC"/>
</linearGradient>
<linearGradient id="paint1_linear_574_37" x1="11" y1="14.418" x2="11" y2="1" gradientUnits="userSpaceOnUse">
<stop stop-color="#02AA93"/>
<stop offset="1" stop-color="#67FF80"/>
</linearGradient>
</defs>
</svg>
