<svg width="64" height="64" viewBox="0 0 64 64" fill="none" xmlns="http://www.w3.org/2000/svg">
<path fill-rule="evenodd" clip-rule="evenodd" d="M28.2212 9.21387C13.3253 9.21387 1 20.7285 1 35.0518C1 49.3617 13.3082 61.0003 28.2212 61.0003C43.1306 61.0003 55.3263 49.3638 55.3263 35.0518C55.3263 33.5389 54.0519 32.396 52.5861 32.396H30.9615V11.8697C30.9615 10.3566 29.687 9.21387 28.2212 9.21387ZM28.1017 36.7029L28.2212 37.7066C26.7547 37.7076 25.4809 36.5644 25.4809 35.0518V14.6877C14.7407 15.9674 6.48069 24.6539 6.48069 35.0518C6.48069 46.3838 16.1868 55.6885 28.2212 55.6885C39.2359 55.6885 48.3011 47.8036 49.6674 37.7066H28.2212L28.1027 36.703L28.1017 36.7029Z" fill="url(#paint0_linear_625_62)"/>
<path fill-rule="evenodd" clip-rule="evenodd" d="M33.0781 5.13503C33.0781 3.9345 34.0942 3 35.2985 3C35.401 3 35.5033 3.00056 35.6055 3.00167C35.6322 3.00056 35.659 3 35.6859 3C50.7168 3 62.9997 14.6856 62.9997 28.988C62.9997 29.9406 62.188 30.7129 61.1868 30.7129H35.6859C35.384 30.7129 35.0994 30.6427 34.849 30.5185C33.8517 30.3201 33.0781 29.4751 33.0781 28.4276V5.13503ZM37.7508 6.77968V25.6978H57.6785C56.6238 15.7406 48.2631 7.77331 37.7508 6.77968Z" fill="url(#paint1_linear_625_62)"/>
<defs>
<linearGradient id="paint0_linear_625_62" x1="8.95594" y1="53.4163" x2="45.5325" y2="15.0459" gradientUnits="userSpaceOnUse">
<stop stop-color="#0072FF"/>
<stop offset="1" stop-color="#00E5A1"/>
</linearGradient>
<linearGradient id="paint1_linear_625_62" x1="48.0389" y1="30.7129" x2="48.0389" y2="3" gradientUnits="userSpaceOnUse">
<stop stop-color="#02AA93"/>
<stop offset="1" stop-color="#67FF80"/>
</linearGradient>
</defs>
</svg>
