<svg width="128" height="128" viewBox="0 0 128 128" fill="none" xmlns="http://www.w3.org/2000/svg">
<path d="M97.4298 39.5965C93.6107 32.1485 87.5699 26.195 80.2179 22.6335C72.866 19.072 64.6013 18.0954 56.6699 19.851C48.7384 21.6067 41.57 25.9993 36.2452 32.3669C30.9204 38.7344 27.7278 46.7317 27.1486 55.1533C20.5541 55.8945 14.4831 59.2388 10.1841 64.4981C5.88517 69.7575 3.68511 76.5322 4.03643 83.4289C4.38776 90.3255 7.26376 96.8199 12.0729 101.576C16.8821 106.333 23.2588 108.989 29.8917 109H91.3599C99.7505 109.01 107.841 105.752 114.041 99.8644C120.241 93.9773 124.101 85.8878 124.861 77.1871C125.622 68.4864 123.229 59.8041 118.153 52.8478C113.077 45.8914 105.684 41.1644 97.4298 39.5965V39.5965ZM91.3599 103H29.8917C24.7737 103.023 19.8396 101.015 16.0938 97.3833C12.348 93.752 10.0721 88.7707 9.72935 83.4536C9.38663 78.1366 11.0029 72.8833 14.2491 68.7634C17.4953 64.6435 22.1274 61.9665 27.2024 61.2776C27.6086 66.5731 29.052 71.7259 31.4437 76.4183C31.6228 76.7656 31.8659 77.0727 32.159 77.3221C32.452 77.5715 32.7894 77.7584 33.1519 77.8721C33.5143 77.9858 33.8947 78.024 34.2714 77.9846C34.648 77.9452 35.0135 77.8289 35.347 77.6424C35.6804 77.4559 35.9754 77.2029 36.2149 76.8977C36.4545 76.5925 36.634 76.2412 36.7431 75.8638C36.8523 75.4864 36.889 75.0903 36.8512 74.6982C36.8133 74.306 36.7016 73.9254 36.5225 73.5782C32.7185 66.1655 31.7739 57.5207 33.8816 49.4077C35.9893 41.2947 40.9905 34.3246 47.8647 29.9195C54.7389 25.5145 62.9683 24.0063 70.8739 25.7027C78.7795 27.3991 85.7657 32.1723 90.4071 39.0485C85.8027 39.1807 81.2734 40.2963 77.1002 42.3262C72.9269 44.3561 69.1986 47.257 66.1464 50.8491C65.881 51.1417 65.6748 51.4869 65.5402 51.8642C65.4056 52.2415 65.3452 52.6432 65.3628 53.0453C65.3803 53.4474 65.4754 53.8417 65.6424 54.2047C65.8093 54.5677 66.0447 54.8921 66.3345 55.1584C66.6244 55.4248 66.9627 55.6277 67.3294 55.755C67.6961 55.8824 68.0837 55.9316 68.469 55.8998C68.8544 55.868 69.2296 55.7557 69.5724 55.5697C69.9153 55.3838 70.2186 55.1279 70.4645 54.8173C73.5427 51.1824 77.4466 48.4087 81.8195 46.7495C86.1923 45.0903 90.8948 44.5986 95.4973 45.3192C100.1 46.0398 104.455 47.9498 108.166 50.8747C111.877 53.7996 114.825 57.6461 116.74 62.0628C118.656 66.4795 119.478 71.3256 119.131 76.1583C118.784 80.9909 117.28 85.6561 114.756 89.7275C112.232 93.799 108.768 97.1469 104.681 99.4653C100.594 101.784 96.014 102.999 91.3599 103Z" fill="url(#paint0_linear)" stroke="url(#paint1_linear)" stroke-width="4"/>
<defs>
<linearGradient id="paint0_linear" x1="64.5" y1="109" x2="64.5" y2="19" gradientUnits="userSpaceOnUse">
<stop stop-color="#5570FF"/>
<stop offset="1" stop-color="#4DD3FF"/>
</linearGradient>
<linearGradient id="paint1_linear" x1="64.5" y1="109" x2="64.5" y2="19" gradientUnits="userSpaceOnUse">
<stop stop-color="#5570FF"/>
<stop offset="1" stop-color="#4DD3FF"/>
</linearGradient>
</defs>
</svg>
