<svg width="64" height="64" viewBox="0 0 64 64" fill="none" xmlns="http://www.w3.org/2000/svg">
<path d="M22.6007 12.6849C25.3893 8.57118 30.2654 5.97165 35.2323 6.002C39.7713 5.92611 44.2761 8.00953 47.1707 11.5085C51.2663 16.2787 51.9482 23.6295 48.7733 29.0639C48.599 29.5079 47.9928 30.1416 48.527 30.5628C52.4066 34.5551 56.4037 38.4373 60.3023 42.4107C61.3594 43.3404 61.2002 45.2569 59.9272 45.9172C59.0559 46.4029 57.8965 46.2094 57.2335 45.4656C52.6757 40.9231 48.1292 36.3691 43.594 31.8039C42.6621 31.0335 42.7946 29.6104 43.6509 28.8362C45.9204 26.2745 46.9206 22.6428 46.2121 19.2843C45.5756 16.0624 43.4274 13.1897 40.529 11.6565C37.3843 9.93356 33.4024 9.9108 30.2351 11.5844C26.3365 13.554 23.8321 17.9788 24.2451 22.3506C24.6012 26.8628 27.9694 30.912 32.2961 32.1719C33.8608 32.6843 35.5241 32.6045 37.1494 32.5287C38.7142 32.4072 39.8054 34.3161 39.0552 35.6519C38.3656 37.0712 36.5622 36.8928 35.2438 36.9422C28.9015 37.0219 22.9077 32.6994 20.7784 26.749C18.5166 26.749 16.2584 26.6844 14.0003 26.7641C13.3071 26.7072 13.1328 27.5269 12.8865 28.0013C11.3028 32.0619 9.56379 36.0693 8.03694 40.1489C7.6808 40.8471 8.60904 40.9762 9.07126 40.9535C21.4566 40.9724 33.8457 40.9382 46.2311 40.9573C47.8981 40.8433 49.4135 42.3044 49.3756 43.978C49.4173 47.3934 49.4022 50.8088 49.3833 54.2281C49.4818 56.1256 47.7541 57.7954 45.8636 57.6436C32.9705 57.6625 20.0737 57.6398 7.18069 57.6549C6.05164 57.6702 4.78242 57.5677 3.97543 56.6683C3.18738 55.951 2.99036 54.8429 3.00931 53.822C2.99794 50.0347 3.01688 46.2474 3.00173 42.4562C2.98657 41.572 3.06614 40.6764 3.43743 39.8605C5.48334 34.8246 7.50652 29.7811 9.54485 24.7453C9.97297 23.4815 11.1361 22.4683 12.5 22.4265C14.9552 22.362 17.4178 22.4265 19.8729 22.4038C19.7251 18.9807 20.6307 15.5008 22.6007 12.6849ZM7.44969 45.3594C7.20342 47.7654 7.31329 50.2016 7.35497 52.6153C7.28677 53.397 8.19606 53.2984 8.7227 53.3363C20.3427 53.3288 31.9589 53.325 43.5789 53.3325C44.0828 53.2946 44.9466 53.4312 45.0149 52.7101C45.0944 50.437 45.1058 48.1448 45.0034 45.8679C44.9504 45.1696 44.0791 45.291 43.5978 45.2569C32.2203 45.2645 20.8428 45.2607 9.46528 45.2531C8.7909 45.2569 8.12029 45.2987 7.44969 45.3594Z" fill="url(#paint0_linear_678_344)" stroke="url(#paint1_linear_678_344)" stroke-width="2"/>
<defs>
<linearGradient id="paint0_linear_678_344" x1="11.494" y1="50.0914" x2="47.7768" y2="9.35282" gradientUnits="userSpaceOnUse">
<stop stop-color="#0072FF"/>
<stop offset="1" stop-color="#00E5A1"/>
</linearGradient>
<linearGradient id="paint1_linear_678_344" x1="11.494" y1="50.0914" x2="47.7768" y2="9.35282" gradientUnits="userSpaceOnUse">
<stop stop-color="#0072FF"/>
<stop offset="1" stop-color="#00E5A1"/>
</linearGradient>
</defs>
</svg>
