<svg width="128" height="128" viewBox="0 0 128 128" fill="none" xmlns="http://www.w3.org/2000/svg">
<path d="M30.1953 6C24.5737 6 20 10.5737 20 16.1953V95.3957C20 98.119 21.0602 100.679 22.986 102.605L39.3949 119.014C41.3207 120.94 43.881 122 46.6043 122H98.1641C103.786 122 108.359 117.426 108.359 111.805V16.1953C108.359 10.5737 103.786 6 98.1641 6H30.1953ZM101.562 16.1953V111.805C101.562 113.678 100.038 115.203 98.1641 115.203H46.6043C45.6972 115.203 44.843 114.85 44.2014 114.207L27.7925 97.7986C27.1509 97.157 26.7969 96.3028 26.7969 95.3957V16.1953C26.7969 14.3218 28.3218 12.7969 30.1953 12.7969H98.1641C100.038 12.7969 101.562 14.3218 101.562 16.1953Z" fill="url(#paint0_linear_678_340)" stroke="url(#paint1_linear_678_340)" stroke-width="3"/>
<path d="M63.4992 21.0042C62.425 21.0598 61.4522 21.6367 60.9124 22.5384L56.7635 29.4868L52.6259 36.4352C51.3994 38.4957 52.9369 41.0697 55.3918 41.0656H60.8004V75.636L46.5957 65.9422L46.5172 63.4842C49.9255 62.2552 52.1982 59.0222 52.2002 55.3992C52.2002 50.6495 48.3499 46.799 43.6002 46.799C38.8503 46.799 35 50.6495 35 55.3992C35.0045 59.0573 37.3228 62.3119 40.7782 63.5123L40.907 67.4427C40.9348 68.2775 41.3255 69.0584 41.9764 69.5816L60.2181 81.9498L60.8004 82.4202V84.4414C55.7416 85.7476 52.2053 90.3084 52.2002 95.5331C52.2002 101.866 57.3342 107 63.6671 107C70.0002 107 75.1339 101.866 75.1339 95.5331C75.1266 90.3105 71.5907 85.7527 66.5337 84.4471V77.0955L85.3411 69.167C86.1288 68.6336 86.6008 67.7443 86.6008 66.793V61.1323H89.4675C89.4675 61.1323 92.3341 59.8538 92.3341 58.2654V46.7988C92.3341 45.2104 91.0556 43.9319 89.4675 43.9319H78.0006C76.4125 43.9319 75.1339 45.2104 75.1339 46.7988V58.2654C75.1339 59.8538 78.0006 61.1323 78.0006 61.1323H80.8675V65.2699L66.5337 71.3159V41.0656H71.9425C74.3974 41.0695 75.9348 38.4957 74.7084 36.4352L70.5708 29.4868L66.4219 22.5384C65.8218 21.5362 64.6933 20.9438 63.4992 21.0042Z" fill="url(#paint2_linear_678_340)" stroke="url(#paint3_linear_678_340)" stroke-width="2"/>
<defs>
<linearGradient id="paint0_linear_678_340" x1="20" y1="122" x2="134.275" y2="84.0605" gradientUnits="userSpaceOnUse">
<stop stop-color="#0357D1"/>
<stop offset="1" stop-color="#27CDFC"/>
</linearGradient>
<linearGradient id="paint1_linear_678_340" x1="20" y1="122" x2="134.276" y2="84.0604" gradientUnits="userSpaceOnUse">
<stop stop-color="#0357D1"/>
<stop offset="1" stop-color="#27CDFC"/>
</linearGradient>
<linearGradient id="paint2_linear_678_340" x1="35" y1="107" x2="110.914" y2="84.9412" gradientUnits="userSpaceOnUse">
<stop stop-color="#0357D1"/>
<stop offset="1" stop-color="#27CDFC"/>
</linearGradient>
<linearGradient id="paint3_linear_678_340" x1="35" y1="107" x2="110.914" y2="84.9412" gradientUnits="userSpaceOnUse">
<stop stop-color="#0357D1"/>
<stop offset="1" stop-color="#27CDFC"/>
</linearGradient>
</defs>
</svg>
