<svg width="128" height="128" viewBox="0 0 128 128" fill="none" xmlns="http://www.w3.org/2000/svg">
<path d="M7.51562 11.0312H18.0625V120.484C18.0625 122.426 19.6363 124 21.5781 124C23.52 124 25.0938 122.426 25.0938 120.484V102.672H35.6406C36.5734 102.672 37.4671 102.302 38.1262 101.642L44.1285 95.6406H55.5121L61.5145 101.642C62.1735 102.302 63.0672 102.672 64 102.672H120.484C122.426 102.672 124 101.098 124 99.1562V28.8438C124 26.9019 122.426 25.3281 120.484 25.3281H25.0938V7.51562C25.0938 5.57379 23.52 4 21.5781 4H7.51562C5.57379 4 4 5.57379 4 7.51562C4 9.45747 5.57379 11.0312 7.51562 11.0312ZM25.0938 53.4531H32.125V74.5469H25.0938V53.4531ZM116.969 32.3594V95.6406H65.4566L59.4543 89.6395C58.7952 88.9792 57.9016 88.6094 56.9688 88.6094H42.6719C41.7391 88.6094 40.8454 88.9792 40.1863 89.6395L34.184 95.6406H25.0938V81.5781H35.6406C37.5824 81.5781 39.1562 80.0043 39.1562 78.0625V49.9375C39.1562 47.9957 37.5824 46.4219 35.6406 46.4219H25.0938V32.3594H116.969Z" fill="url(#paint0_linear_640_2)" stroke="url(#paint1_linear_640_2)" stroke-width="2"/>
<path d="M56.9688 60.4844C61.552 60.4844 65.4595 57.5455 66.9114 53.4531H88.6094V56.9688C88.6094 58.9105 90.1832 60.4844 92.125 60.4844H95.6406V74.5469H80.9739C79.522 70.4545 75.6145 67.5156 71.0312 67.5156C65.2159 67.5156 60.4844 72.2472 60.4844 78.0625C60.4844 83.8778 65.2159 88.6094 71.0312 88.6094C75.6145 88.6094 79.522 85.6705 80.9739 81.5781H99.1562C101.098 81.5781 102.672 80.0043 102.672 78.0625V60.4844H106.188C108.129 60.4844 109.703 58.9105 109.703 56.9688V42.9062C109.703 40.9645 108.129 39.3906 106.188 39.3906H92.125C90.1832 39.3906 88.6094 40.9645 88.6094 42.9062V46.4219H66.9114C65.4595 42.3295 61.552 39.3906 56.9688 39.3906C51.1534 39.3906 46.4219 44.1222 46.4219 49.9375C46.4219 55.7528 51.1534 60.4844 56.9688 60.4844ZM71.0312 81.5781C69.093 81.5781 67.5156 80.0008 67.5156 78.0625C67.5156 76.1242 69.093 74.5469 71.0312 74.5469C72.9695 74.5469 74.5469 76.1242 74.5469 78.0625C74.5469 80.0008 72.9695 81.5781 71.0312 81.5781ZM95.6406 46.4219H102.672V53.4531H95.6406V46.4219ZM56.9688 46.4219C58.907 46.4219 60.4844 47.9992 60.4844 49.9375C60.4844 51.8758 58.907 53.4531 56.9688 53.4531C55.0305 53.4531 53.4531 51.8758 53.4531 49.9375C53.4531 47.9992 55.0305 46.4219 56.9688 46.4219Z" fill="url(#paint2_linear_640_2)" stroke="url(#paint3_linear_640_2)" stroke-width="2"/>
<defs>
<linearGradient id="paint0_linear_640_2" x1="64" y1="124" x2="64" y2="4" gradientUnits="userSpaceOnUse">
<stop stop-color="#02AA93"/>
<stop offset="1" stop-color="#67FF80"/>
</linearGradient>
<linearGradient id="paint1_linear_640_2" x1="64" y1="124" x2="64" y2="4" gradientUnits="userSpaceOnUse">
<stop stop-color="#02AA93"/>
<stop offset="1" stop-color="#67FF80"/>
</linearGradient>
<linearGradient id="paint2_linear_640_2" x1="78.0625" y1="88.6094" x2="78.0625" y2="39.3906" gradientUnits="userSpaceOnUse">
<stop stop-color="#02AA93"/>
<stop offset="1" stop-color="#67FF80"/>
</linearGradient>
<linearGradient id="paint3_linear_640_2" x1="78.0625" y1="88.6094" x2="78.0625" y2="39.3906" gradientUnits="userSpaceOnUse">
<stop stop-color="#02AA93"/>
<stop offset="1" stop-color="#67FF80"/>
</linearGradient>
</defs>
</svg>
