<svg width="24" height="24" viewBox="0 0 24 24" fill="none" xmlns="http://www.w3.org/2000/svg">
<path d="M14.9291 8.68987H13.4029C12.8506 8.68987 12.4029 8.24215 12.4029 7.68987V4.31079C12.4029 4.0181 12.2867 3.7374 12.0797 3.53043C11.8727 3.32347 11.592 3.20719 11.2993 3.20719H8.31079C8.0181 3.20719 7.7374 3.32347 7.53043 3.53043C7.32347 3.7374 7.20719 4.0181 7.20719 4.31079V10.8474C7.20703 11.1337 7.31814 11.4089 7.51705 11.6148C7.71597 11.8207 7.98713 11.9413 8.27327 11.951L9.44241 11.9878C9.98218 12.0048 10.4109 12.4473 10.4109 12.9873V20.1894C10.4114 20.3286 10.4597 20.4634 10.5479 20.5712C10.6361 20.6789 10.7587 20.753 10.8951 20.781C11.0315 20.809 11.1733 20.7891 11.2968 20.7248C11.4203 20.6605 11.5178 20.5556 11.573 20.4277L15.9433 10.2283C16.0153 10.0603 16.0444 9.87716 16.0282 9.69517C16.0119 9.51318 15.9507 9.33807 15.85 9.18557C15.7494 9.03307 15.6124 8.90795 15.4515 8.82143C15.2906 8.73491 15.1107 8.6897 14.928 8.68987H14.9291ZM14.6101 4.31079V6.16373C14.6101 6.33988 14.7529 6.48267 14.9291 6.48267V6.48267C15.4768 6.48281 16.0159 6.61884 16.4982 6.87857C16.9804 7.1383 17.3907 7.51361 17.6922 7.97087C17.9937 8.42814 18.1771 8.95307 18.2259 9.49862C18.2746 10.0442 18.1873 10.5933 17.9717 11.0968L13.6014 21.2974C13.3459 21.8922 12.8929 22.3807 12.319 22.6804C11.7451 22.9802 11.0854 23.0727 10.4512 22.9425C9.81693 22.8123 9.24702 22.4674 8.8376 21.9658C8.42818 21.4642 8.2043 20.8368 8.20374 20.1894V15.1253C8.20374 14.5856 7.76581 14.158 7.25433 13.9857C6.7575 13.8184 6.30297 13.534 5.93194 13.1507C5.33405 12.5331 4.99984 11.707 5 10.8474V4.31079C5 3.43272 5.34881 2.5906 5.96971 1.96971C6.5906 1.34881 7.43272 1 8.31079 1H11.2993C12.1774 1 13.0195 1.34881 13.6404 1.96971C14.2613 2.5906 14.6101 3.43272 14.6101 4.31079Z" fill="url(#paint0_linear_504_33)"/>
<defs>
<linearGradient id="paint0_linear_504_33" x1="11.6195" y1="23" x2="11.6195" y2="1" gradientUnits="userSpaceOnUse">
<stop stop-color="#5570FF"/>
<stop offset="1" stop-color="#4DD3FF"/>
</linearGradient>
</defs>
</svg>
