<svg width="128" height="128" viewBox="0 0 128 128" fill="none" xmlns="http://www.w3.org/2000/svg">
<g clip-path="url(#clip0)">
<path fill-rule="evenodd" clip-rule="evenodd" d="M13.3704 14.9498C10.3676 14.9498 7.95 17.3673 7.95 20.3701V90.1849V90.2349H8H8.68725C8.28814 90.3662 8 90.742 8 91.1851V95.5554C8 98.5306 10.3952 100.926 13.3704 100.926H28.4815C29.0338 100.926 29.4815 101.374 29.4815 101.926V112.92C29.4815 113.414 31.8859 113.815 34.8518 113.815H92.8519C95.8178 113.815 98.2222 113.414 98.2222 112.92V101.926C98.2222 101.374 98.6699 100.926 99.2222 100.926H114.333C117.309 100.926 119.704 98.5306 119.704 95.5554V91.1851C119.704 90.742 119.416 90.3662 119.016 90.2349H119.704H119.754V90.1849V20.3701C119.754 17.3673 117.336 14.9498 114.333 14.9498H13.3704ZM8.05 20.3701C8.05 17.4226 10.4228 15.0498 13.3704 15.0498H114.333C117.281 15.0498 119.654 17.4226 119.654 20.3701V90.1349H8.05V20.3701Z" fill="url(#paint0_linear)"/>
<path d="M7.95 90.2349H3.95V94.2349H7.95V90.2349ZM8.68725 90.2349L9.93728 94.0346L8.68725 86.2349V90.2349ZM119.016 90.2349V86.2349L117.766 94.0346L119.016 90.2349ZM119.754 90.2349V94.2349H123.754V90.2349H119.754ZM119.654 90.1349V94.1349H123.654V90.1349H119.654ZM8.05 90.1349H4.05V94.1349H8.05V90.1349ZM11.95 20.3701C11.95 19.5765 12.5767 18.9498 13.3704 18.9498V10.9498C8.15843 10.9498 3.95 15.1582 3.95 20.3701H11.95ZM11.95 90.1849V20.3701H3.95V90.1849H11.95ZM11.95 90.2349V90.1849H3.95V90.2349H11.95ZM8 86.2349H7.95V94.2349H8V86.2349ZM8.68725 86.2349H8V94.2349H8.68725V86.2349ZM12 91.1851C12 92.5204 11.1303 93.6421 9.93728 94.0346L7.43721 86.4353C5.44599 87.0904 4 88.9636 4 91.1851H12ZM12 95.5554V91.1851H4V95.5554H12ZM13.3704 96.9258C12.6043 96.9258 12 96.3215 12 95.5554H4C4 100.74 8.18605 104.926 13.3704 104.926V96.9258ZM28.4815 96.9258H13.3704V104.926H28.4815V96.9258ZM33.4815 101.926C33.4815 99.1644 31.2429 96.9258 28.4815 96.9258V104.926C26.8246 104.926 25.4815 103.583 25.4815 101.926H33.4815ZM33.4815 112.92V101.926H25.4815V112.92H33.4815ZM34.8518 109.815C33.5191 109.815 32.4069 109.723 31.712 109.607C31.3325 109.544 31.2581 109.502 31.37 109.547C31.406 109.561 31.731 109.684 32.1167 109.999C32.4526 110.272 33.4815 111.234 33.4815 112.92H25.4815C25.4815 114.728 26.5855 115.811 27.0645 116.201C27.5933 116.632 28.1293 116.868 28.4371 116.99C29.0924 117.248 29.8045 117.399 30.3968 117.498C31.6456 117.706 33.2186 117.815 34.8518 117.815V109.815ZM92.8519 109.815H34.8518V117.815H92.8519V109.815ZM94.2222 112.92C94.2222 111.234 95.2511 110.272 95.587 109.999C95.9727 109.684 96.2977 109.561 96.3337 109.547C96.4456 109.502 96.3712 109.544 95.9917 109.607C95.2968 109.723 94.1846 109.815 92.8519 109.815V117.815C94.4851 117.815 96.0581 117.706 97.3069 117.498C97.8992 117.399 98.6113 117.248 99.2666 116.99C99.5744 116.868 100.11 116.632 100.639 116.201C101.118 115.811 102.222 114.728 102.222 112.92H94.2222ZM94.2222 101.926V112.92H102.222V101.926H94.2222ZM99.2222 96.9258C96.4608 96.9258 94.2222 99.1644 94.2222 101.926H102.222C102.222 103.583 100.879 104.926 99.2222 104.926V96.9258ZM114.333 96.9258H99.2222V104.926H114.333V96.9258ZM115.704 95.5554C115.704 96.3215 115.099 96.9258 114.333 96.9258V104.926C119.518 104.926 123.704 100.74 123.704 95.5554H115.704ZM115.704 91.1851V95.5554H123.704V91.1851H115.704ZM117.766 94.0346C116.573 93.6421 115.704 92.5204 115.704 91.1851H123.704C123.704 88.9636 122.258 87.0904 120.266 86.4353L117.766 94.0346ZM119.704 86.2349H119.016V94.2349H119.704V86.2349ZM119.754 86.2349H119.704V94.2349H119.754V86.2349ZM115.754 90.1849V90.2349H123.754V90.1849H115.754ZM115.754 20.3701V90.1849H123.754V20.3701H115.754ZM114.333 18.9498C115.127 18.9498 115.754 19.5765 115.754 20.3701H123.754C123.754 15.1582 119.545 10.9498 114.333 10.9498V18.9498ZM13.3704 18.9498H114.333V10.9498H13.3704V18.9498ZM13.3704 11.0498C8.21366 11.0498 4.05 15.2134 4.05 20.3701H12.05C12.05 19.6317 12.6319 19.0498 13.3704 19.0498V11.0498ZM114.333 11.0498H13.3704V19.0498H114.333V11.0498ZM123.654 20.3701C123.654 15.2134 119.49 11.0498 114.333 11.0498V19.0498C115.072 19.0498 115.654 19.6317 115.654 20.3701H123.654ZM123.654 90.1349V20.3701H115.654V90.1349H123.654ZM8.05 94.1349H119.654V86.1349H8.05V94.1349ZM4.05 20.3701V90.1349H12.05V20.3701H4.05Z" fill="url(#paint1_linear)"/>
<path fill-rule="evenodd" clip-rule="evenodd" d="M42.9382 40.9992C49.0513 36.6388 56.3744 34.2981 63.8832 34.3047C71.392 34.3113 78.7111 36.6647 84.8165 41.0357C85.2656 41.3572 85.8902 41.2538 86.2117 40.8048C86.5332 40.3557 86.4298 39.731 85.9807 39.4095C79.5362 34.7957 71.8108 32.3116 63.885 32.3047C55.9591 32.2978 48.2293 34.7684 41.7768 39.3709C41.3272 39.6917 41.2227 40.3161 41.5434 40.7658C41.8641 41.2154 42.4886 41.3199 42.9382 40.9992ZM62.2077 63.6603C62.7289 63.4444 63.2876 63.3333 63.8518 63.3333C64.416 63.3333 64.9747 63.4444 65.4959 63.6603C66.0172 63.8762 66.4908 64.1927 66.8897 64.5916C67.2887 64.9906 67.6051 65.4642 67.8211 65.9854C68.037 66.5067 68.1481 67.0654 68.1481 67.6296C68.1481 68.1938 68.037 68.7524 67.8211 69.2737C67.6051 69.7949 67.2887 70.2685 66.8897 70.6675C66.4908 71.0664 66.0172 71.3829 65.4959 71.5988C64.9747 71.8147 64.416 71.9259 63.8518 71.9259C62.7123 71.9259 61.6196 71.4732 60.8139 70.6675C60.0081 69.8618 59.5555 68.769 59.5555 67.6296C59.5555 67.0654 59.6666 66.5067 59.8825 65.9854C60.0984 65.4642 60.4149 64.9906 60.8139 64.5916C61.2128 64.1927 61.6864 63.8762 62.2077 63.6603ZM63.9629 45.0159C58.6135 44.9925 53.393 46.6561 49.0434 49.7701C48.5943 50.0916 47.9697 49.9882 47.6482 49.5391C47.3267 49.0901 47.4301 48.4654 47.8791 48.1439C52.5707 44.7851 58.2017 42.9907 63.9716 43.0159C69.7415 43.0411 75.3566 44.8845 80.0187 48.2841C80.4649 48.6095 80.5629 49.2351 80.2375 49.6813C79.9121 50.1276 79.2865 50.2255 78.8403 49.9001C74.518 46.7483 69.3122 45.0392 63.9629 45.0159ZM55.0525 58.69C57.6251 56.8002 60.7376 55.7889 63.9296 55.8056C67.1216 55.8223 70.2234 56.8662 72.776 58.7828C73.2176 59.1144 73.8445 59.0252 74.1761 58.5835C74.5077 58.1418 74.4185 57.515 73.9768 57.1834C71.0807 55.009 67.5616 53.8246 63.9401 53.8057C60.3186 53.7867 56.7872 54.9341 53.8685 57.0781C53.4234 57.4051 53.3276 58.0309 53.6546 58.476C53.9816 58.9211 54.6074 59.0169 55.0525 58.69Z" fill="white"/>
<path d="M63.8832 34.3047L63.8858 31.3047L63.8832 34.3047ZM42.9382 40.9992L44.6803 43.4415L44.6803 43.4415L42.9382 40.9992ZM84.8165 41.0357L83.0701 43.475L83.0701 43.475L84.8165 41.0357ZM86.2117 40.8048L88.651 42.5511L88.651 42.5511L86.2117 40.8048ZM85.9807 39.4095L87.7271 36.9702L87.7271 36.9702L85.9807 39.4095ZM63.885 32.3047L63.8876 29.3047L63.885 32.3047ZM41.7768 39.3709L40.0347 36.9286L40.0347 36.9286L41.7768 39.3709ZM41.5434 40.7658L43.9857 39.0237L43.9857 39.0236L41.5434 40.7658ZM62.2077 63.6603L63.3557 66.4319L63.3557 66.4319L62.2077 63.6603ZM65.4959 63.6603L64.3479 66.4319L64.3479 66.4319L65.4959 63.6603ZM66.8897 64.5916L64.7684 66.7129L64.7684 66.7129L66.8897 64.5916ZM67.8211 65.9854L65.0494 67.1335L65.0494 67.1335L67.8211 65.9854ZM67.8211 69.2737L65.0494 68.1256L65.0494 68.1256L67.8211 69.2737ZM66.8897 70.6675L64.7684 68.5462L64.7684 68.5462L66.8897 70.6675ZM65.4959 71.5988L64.3479 68.8272L64.3478 68.8272L65.4959 71.5988ZM59.8825 65.9854L62.6542 67.1335L62.6542 67.1335L59.8825 65.9854ZM60.8139 64.5916L62.9352 66.7129L62.9352 66.7129L60.8139 64.5916ZM49.0434 49.7701L50.7898 52.2094L50.7898 52.2094L49.0434 49.7701ZM63.9629 45.0159L63.9498 48.0158L63.9629 45.0159ZM47.8791 48.1439L46.1328 45.7046L46.1328 45.7046L47.8791 48.1439ZM63.9716 43.0159L63.9585 46.0159L63.9716 43.0159ZM80.0187 48.2841L81.7863 45.8602L81.7863 45.8602L80.0187 48.2841ZM80.2375 49.6813L77.8135 47.9137L77.8135 47.9137L80.2375 49.6813ZM78.8403 49.9001L77.0727 52.3241L77.0727 52.3241L78.8403 49.9001ZM63.9296 55.8056L63.9453 52.8057L63.9296 55.8056ZM55.0525 58.69L56.8286 61.1077L56.8286 61.1077L55.0525 58.69ZM72.776 58.7828L70.9747 61.1818L70.9747 61.1818L72.776 58.7828ZM74.1761 58.5835L76.5751 60.3848L76.5751 60.3848L74.1761 58.5835ZM73.9768 57.1834L75.7781 54.7844L75.7781 54.7843L73.9768 57.1834ZM63.9401 53.8057L63.9558 50.8057L63.9558 50.8057L63.9401 53.8057ZM53.8685 57.0781L55.6446 59.4959L55.6446 59.4959L53.8685 57.0781ZM63.8858 31.3047C55.7515 31.2976 47.8184 33.8332 41.1961 38.5568L44.6803 43.4415C50.2842 39.4443 56.9972 37.2987 63.8806 37.3047L63.8858 31.3047ZM86.5629 38.5964C79.9488 33.8612 72.0202 31.3118 63.8858 31.3047L63.8806 37.3047C70.7639 37.3107 77.4733 39.4681 83.0701 43.475L86.5629 38.5964ZM83.7724 39.0584C84.4154 38.1603 85.6647 37.9534 86.5629 38.5964L83.0701 43.475C84.8664 44.761 87.365 44.3474 88.651 42.5511L83.7724 39.0584ZM84.2344 41.8488C83.3363 41.2058 83.1294 39.9565 83.7724 39.0584L88.651 42.5511C89.937 40.7549 89.5234 38.2562 87.7271 36.9702L84.2344 41.8488ZM63.8823 35.3047C71.1827 35.3111 78.2985 37.5991 84.2344 41.8488L87.7271 36.9702C80.774 31.9923 72.4389 29.3122 63.8876 29.3047L63.8823 35.3047ZM43.5189 41.8133C49.4622 37.574 56.582 35.2983 63.8823 35.3047L63.8876 29.3047C55.3363 29.2972 46.9965 31.9628 40.0347 36.9286L43.5189 41.8133ZM43.9857 39.0236C44.6272 39.9229 44.4182 41.1719 43.5189 41.8133L40.0347 36.9286C38.2362 38.2114 37.8182 40.7094 39.101 42.5079L43.9857 39.0236ZM41.1961 38.5568C42.0953 37.9154 43.3443 38.1244 43.9857 39.0237L39.101 42.5079C40.3839 44.3064 42.8818 44.7244 44.6803 43.4415L41.1961 38.5568ZM63.8518 60.3333C62.8936 60.3333 61.9448 60.522 61.0596 60.8887L63.3557 66.4319C63.513 66.3668 63.6816 66.3333 63.8518 66.3333V60.3333ZM66.644 60.8887C65.7587 60.522 64.81 60.3333 63.8518 60.3333V66.3333C64.022 66.3333 64.1906 66.3668 64.3479 66.4319L66.644 60.8887ZM69.0111 62.4703C68.3335 61.7928 67.5292 61.2553 66.644 60.8887L64.3479 66.4319C64.5051 66.4971 64.6481 66.5926 64.7684 66.7129L69.0111 62.4703ZM70.5927 64.8374C70.226 63.9522 69.6886 63.1478 69.0111 62.4703L64.7684 66.7129C64.8888 66.8333 64.9843 66.9762 65.0494 67.1335L70.5927 64.8374ZM71.1481 67.6296C71.1481 66.6714 70.9594 65.7226 70.5927 64.8374L65.0494 67.1335C65.1146 67.2908 65.1481 67.4593 65.1481 67.6296H71.1481ZM70.5927 70.4217C70.9594 69.5365 71.1481 68.5877 71.1481 67.6296H65.1481C65.1481 67.7998 65.1146 67.9684 65.0494 68.1256L70.5927 70.4217ZM69.0111 72.7888C69.6886 72.1113 70.226 71.307 70.5927 70.4217L65.0494 68.1256C64.9843 68.2829 64.8888 68.4258 64.7684 68.5462L69.0111 72.7888ZM66.644 74.3705C67.5292 74.0038 68.3335 73.4663 69.0111 72.7888L64.7684 68.5462C64.648 68.6666 64.5051 68.762 64.3479 68.8272L66.644 74.3705ZM63.8518 74.9259C64.81 74.9259 65.7587 74.7371 66.644 74.3705L64.3478 68.8272C64.1906 68.8923 64.022 68.9259 63.8518 68.9259V74.9259ZM58.6925 72.7888C60.0608 74.1571 61.9167 74.9259 63.8518 74.9259V68.9259C63.508 68.9259 63.1783 68.7893 62.9352 68.5462L58.6925 72.7888ZM56.5555 67.6296C56.5555 69.5647 57.3242 71.4205 58.6925 72.7888L62.9352 68.5462C62.6921 68.3031 62.5555 67.9734 62.5555 67.6296H56.5555ZM57.1109 64.8374C56.7442 65.7226 56.5555 66.6714 56.5555 67.6296H62.5555C62.5555 67.4593 62.589 67.2908 62.6542 67.1335L57.1109 64.8374ZM58.6925 62.4703C58.015 63.1478 57.4776 63.9521 57.1109 64.8374L62.6542 67.1335C62.7193 66.9762 62.8148 66.8333 62.9352 66.7129L58.6925 62.4703ZM61.0596 60.8887C60.1744 61.2553 59.3701 61.7928 58.6925 62.4703L62.9352 66.7129C63.0555 66.5926 63.1985 66.4971 63.3557 66.4319L61.0596 60.8887ZM50.7898 52.2094C54.6264 49.4626 59.2313 47.9953 63.9498 48.0158L63.9759 42.0159C57.9958 41.9898 52.1595 43.8496 47.297 47.3308L50.7898 52.2094ZM45.2089 51.2855C46.4949 53.0818 48.9935 53.4954 50.7898 52.2094L47.297 47.3308C48.1951 46.6878 49.4445 46.8946 50.0875 47.7928L45.2089 51.2855ZM46.1328 45.7046C44.3365 46.9906 43.9229 49.4893 45.2089 51.2855L50.0875 47.7928C50.7305 48.6909 50.5236 49.9402 49.6255 50.5832L46.1328 45.7046ZM63.9847 40.0159C57.5839 39.988 51.3373 41.9786 46.1328 45.7046L49.6255 50.5832C53.8041 47.5916 58.8194 45.9934 63.9585 46.0159L63.9847 40.0159ZM81.7863 45.8602C76.6145 42.0888 70.3854 40.0438 63.9847 40.0159L63.9585 46.0159C69.0975 46.0383 74.0987 47.6802 78.2511 50.7081L81.7863 45.8602ZM82.6614 51.4489C83.963 49.664 83.5712 47.1618 81.7863 45.8602L78.2511 50.7081C77.3586 50.0573 77.1627 48.8062 77.8135 47.9137L82.6614 51.4489ZM77.0727 52.3241C78.8576 53.6257 81.3598 53.2339 82.6614 51.4489L77.8135 47.9137C78.4643 47.0213 79.7154 46.8253 80.6079 47.4762L77.0727 52.3241ZM63.9498 48.0158C68.6682 48.0364 73.2602 49.544 77.0727 52.3241L80.6079 47.4762C75.7759 43.9526 69.9561 42.042 63.9759 42.0159L63.9498 48.0158ZM63.9453 52.8057C60.1091 52.7856 56.3683 54.001 53.2765 56.2722L56.8286 61.1077C58.8819 59.5994 61.3662 58.7922 63.9139 58.8056L63.9453 52.8057ZM74.5772 56.3837C71.5094 54.0803 67.7816 52.8258 63.9453 52.8057L63.9139 58.8056C66.4616 58.8189 68.9373 59.6521 70.9747 61.1818L74.5772 56.3837ZM71.777 56.7822C72.4402 55.8989 73.6939 55.7205 74.5772 56.3837L70.9747 61.1818C72.7413 62.5082 75.2487 62.1514 76.5751 60.3848L71.777 56.7822ZM72.1756 59.5824C71.2923 58.9192 71.1138 57.6655 71.777 56.7822L76.5751 60.3848C77.9016 58.6181 77.5447 56.1108 75.7781 54.7844L72.1756 59.5824ZM63.9244 56.8056C66.9016 56.8212 69.7947 57.7948 72.1756 59.5825L75.7781 54.7843C72.3668 52.2231 68.2215 50.828 63.9558 50.8057L63.9244 56.8056ZM55.6446 59.4959C58.044 57.7333 60.9472 56.79 63.9244 56.8056L63.9558 50.8057C59.69 50.7834 55.5304 52.1349 52.0925 54.6603L55.6446 59.4959ZM56.0724 56.7C56.7263 57.5902 56.5348 58.842 55.6446 59.4959L52.0925 54.6603C50.3121 55.9682 49.929 58.4717 51.2368 60.2521L56.0724 56.7ZM53.2765 56.2722C54.1667 55.6183 55.4185 55.8098 56.0724 56.7L51.2368 60.2521C52.5447 62.0325 55.0482 62.4156 56.8286 61.1077L53.2765 56.2722Z" fill="url(#paint2_linear)"/>
</g>
<defs>
<linearGradient id="paint0_linear" x1="63.8519" y1="113.815" x2="63.8519" y2="10.9998" gradientUnits="userSpaceOnUse">
<stop stop-color="#B555FF"/>
<stop offset="1" stop-color="#FF5454"/>
</linearGradient>
<linearGradient id="paint1_linear" x1="63.8519" y1="113.815" x2="63.8519" y2="10.9998" gradientUnits="userSpaceOnUse">
<stop stop-color="#B555FF"/>
<stop offset="1" stop-color="#FF5454"/>
</linearGradient>
<linearGradient id="paint2_linear" x1="63.8781" y1="71.9259" x2="63.8781" y2="32.3047" gradientUnits="userSpaceOnUse">
<stop stop-color="#B555FF"/>
<stop offset="1" stop-color="#FF5454"/>
</linearGradient>
<clipPath id="clip0">
<rect width="128" height="128" fill="white"/>
</clipPath>
</defs>
</svg>
