<svg width="128" height="128" viewBox="0 0 128 128" fill="none" xmlns="http://www.w3.org/2000/svg">
<path fill-rule="evenodd" clip-rule="evenodd" d="M23.0762 17.8257C21.4739 17.8257 19.8654 17.9447 18.3198 18.3012C11.8356 19.6861 6.8593 24.8332 6.8216 30.3626C6.80903 49.1421 6.80903 67.9215 6.81532 86.6962C6.81532 93.2901 13.8525 99.1347 21.8573 99.2637C38.1013 99.2961 54.3484 99.2904 70.5962 99.2839C77.1617 99.2815 83.7273 99.2783 90.2931 99.2783C98.4358 99.3261 105.831 93.4239 105.756 86.6853C105.775 75.717 105.771 64.7485 105.768 53.7801C105.766 46.1551 105.763 38.5302 105.769 30.9053C105.982 25.6239 101.697 20.5233 95.6964 18.6887C93.0016 17.7947 90.0489 17.7793 87.1895 17.8257C80.0667 17.8257 72.9433 17.8263 65.8197 17.8269C51.5715 17.828 37.3224 17.8291 23.0762 17.8257ZM14.3677 30.3523C14.2861 27.3085 17.3711 24.6522 20.9022 24.0682C21.6587 23.949 22.428 23.9457 23.196 23.9423C23.3594 23.9417 23.5226 23.941 23.6857 23.9392C33.5433 23.9461 43.401 23.9448 53.2582 23.9435C65.5793 23.9419 77.8996 23.9403 90.2176 23.9547C94.5972 23.9547 98.5437 27.2258 98.323 30.8588C98.3547 49.3023 98.3425 67.7459 98.3295 86.1897C98.5364 89.8117 94.6913 93.1351 90.2809 93.1092C71.7866 93.1465 53.2881 93.14 34.7923 93.1335C30.7045 93.1319 26.6169 93.1303 22.5295 93.1295C18.3198 93.2276 14.2671 90.2457 14.3614 86.7216C14.3639 79.2104 14.3624 71.6991 14.3609 64.1879C14.3587 52.9093 14.3564 41.6308 14.3677 30.3523ZM60.1723 72.9837C59.5116 72.9906 58.8388 72.9976 58.231 73.3263C57.0872 73.8854 56.3075 75.308 56.2971 76.78C56.2087 78.886 57.8723 80.9357 59.6606 80.7246C64.869 80.742 70.08 80.7381 75.29 80.7342C77.5218 80.7325 79.7533 80.7308 81.9843 80.7308C83.8715 81.0289 85.6344 78.9666 85.488 76.7179C85.4621 74.5935 83.7825 72.8232 82.0206 72.9908C78.3383 72.9716 74.6546 72.9756 70.9711 72.9797C67.5453 72.9834 64.1197 72.9872 60.6952 72.9722C60.5228 72.9801 60.3479 72.9819 60.1723 72.9837Z" fill="url(#paint0_linear)"/>
<path d="M18.3198 18.3012L18.4892 19.0945L18.4957 19.0932L18.5021 19.0916L18.3198 18.3012ZM23.0762 17.8258L23.0763 17.0146H23.0762V17.8258ZM6.8216 30.3626L6.01042 30.3571L6.01041 30.3621L6.8216 30.3626ZM6.81532 86.6962H7.62651V86.6959L6.81532 86.6962ZM21.8573 99.2637L21.8442 100.075H21.8557L21.8573 99.2637ZM70.5962 99.284L70.5965 100.095L70.5962 99.284ZM90.2931 99.2783L90.2979 98.4671H90.2931V99.2783ZM105.756 86.6853L104.945 86.6839V86.6944L105.756 86.6853ZM105.768 53.7801L104.957 53.7803L105.768 53.7801ZM105.769 30.9053L104.958 30.8725V30.8886V30.9047L105.769 30.9053ZM95.6964 18.6887L95.4409 19.4587L95.4506 19.4617L95.4595 19.4645L95.6964 18.6887ZM87.1895 17.8258V18.6369H87.1959L87.2024 18.6368L87.1895 17.8258ZM65.8197 17.8269V18.6381V17.8269ZM20.9022 24.0683L20.7758 23.267L20.7698 23.2679L20.9022 24.0683ZM14.3677 30.3523L15.1788 30.3531V30.3418L15.1786 30.3306L14.3677 30.3523ZM23.196 23.9424L23.1995 24.7536L23.196 23.9424ZM23.6857 23.9392L23.6863 23.1279L23.6766 23.128L23.6857 23.9392ZM53.2582 23.9435L53.2582 24.7547L53.2582 23.9435ZM90.2176 23.9547L90.2168 24.7659H90.2176V23.9547ZM98.323 30.8588L97.5135 30.8096L97.5118 30.8349V30.8602L98.323 30.8588ZM98.3295 86.1897L97.5183 86.1892V86.2126L97.5191 86.2361L98.3295 86.1897ZM90.2809 93.1092L90.285 92.298H90.2785L90.2809 93.1092ZM34.7923 93.1335L34.7926 92.3223L34.7923 93.1335ZM22.5295 93.1295L22.5298 92.3183H22.5202L22.5106 92.3191L22.5295 93.1295ZM14.3614 86.7216L15.1724 86.7434L15.1726 86.7327V86.722L14.3614 86.7216ZM14.3609 64.188L13.5497 64.1881L14.3609 64.188ZM58.231 73.3263L58.5873 74.0552L58.6023 74.0478L58.617 74.0398L58.231 73.3263ZM60.1723 72.9838L60.1639 72.1726L60.1723 72.9838ZM56.2971 76.78L57.1076 76.8141L57.1081 76.8L57.1082 76.7858L56.2971 76.78ZM59.6606 80.7246L59.6634 79.9134L59.6143 79.9133L59.5656 79.919L59.6606 80.7246ZM75.29 80.7342L75.2907 81.5454L75.29 80.7342ZM81.9843 80.7309L82.1109 79.9296L82.048 79.9197H81.9843V80.7309ZM85.488 76.7179L84.6769 76.7278L84.6771 76.7491L84.6785 76.7705L85.488 76.7179ZM82.0206 72.9908L82.0164 73.802L82.0571 73.8022L82.0975 73.7984L82.0206 72.9908ZM70.9711 72.9797L70.9702 72.1685L70.9711 72.9797ZM60.6952 72.9722L60.6988 72.161L60.6785 72.161L60.6583 72.1619L60.6952 72.9722ZM18.5021 19.0916C19.9684 18.7534 21.5113 18.6369 23.0762 18.6369V17.0146C21.4366 17.0146 19.7625 17.1359 18.1374 17.5108L18.5021 19.0916ZM7.63277 30.3682C7.66716 25.3247 12.2634 20.4242 18.4892 19.0945L18.1504 17.5079C11.4077 18.948 6.05144 24.3416 6.01043 30.3571L7.63277 30.3682ZM7.62651 86.6959C7.62022 67.9215 7.62022 49.1423 7.63279 30.3632L6.01041 30.3621C5.99784 49.1419 5.99784 67.9217 6.00413 86.6964L7.62651 86.6959ZM21.8703 98.4533C18.0567 98.3917 14.4742 96.9664 11.854 94.7811C9.23015 92.5933 7.62651 89.6949 7.62651 86.6962H6.00413C6.00413 90.2903 7.91906 93.6121 10.815 96.027C13.7146 98.4452 17.6531 100.008 21.8442 100.075L21.8703 98.4533ZM70.5959 98.4728C54.3479 98.4793 38.1017 98.4849 21.8589 98.4525L21.8557 100.075C38.1008 100.107 54.3489 100.102 70.5965 100.095L70.5959 98.4728ZM90.2931 98.4671C83.7271 98.4671 77.1614 98.4703 70.5959 98.4728L70.5965 100.095C77.162 100.093 83.7275 100.089 90.2931 100.089V98.4671ZM104.945 86.6944C104.979 89.7533 103.315 92.6963 100.596 94.8962C97.8809 97.0929 94.1778 98.4898 90.2979 98.4679L90.2882 100.089C94.551 100.115 98.6167 98.5847 101.616 96.1576C104.612 93.7338 106.609 90.3568 106.567 86.6763L104.945 86.6944ZM104.957 53.7803C104.96 64.7489 104.963 75.7165 104.945 86.6839L106.567 86.6867C106.586 75.7174 106.583 64.7482 106.579 53.7798L104.957 53.7803ZM104.958 30.9047C104.952 38.5301 104.954 46.1555 104.957 53.7803L106.579 53.7798C106.577 46.1548 106.574 38.5303 106.58 30.9058L104.958 30.9047ZM95.4595 19.4645C101.21 21.2228 105.152 26.0574 104.958 30.8725L106.579 30.938C106.811 25.1904 102.183 19.8239 95.9341 17.913L95.4595 19.4645ZM87.2024 18.6368C90.0716 18.5901 92.8937 18.6137 95.4409 19.4587L95.9519 17.9188C93.1087 16.9758 90.0254 16.9683 87.1765 17.0147L87.2024 18.6368ZM65.8197 18.6381C72.9434 18.6375 80.0667 18.6369 87.1895 18.6369V17.0146C80.0666 17.0146 72.9432 17.0151 65.8196 17.0157L65.8197 18.6381ZM23.076 18.6369C37.3224 18.6404 51.5716 18.6392 65.8197 18.6381L65.8196 17.0157C51.5715 17.0168 37.3225 17.018 23.0763 17.0146L23.076 18.6369ZM20.7698 23.2679C18.8546 23.5847 17.0524 24.4627 15.7279 25.6937C14.4046 26.9235 13.5081 28.5589 13.5568 30.374L15.1786 30.3306C15.1456 29.1019 15.7507 27.8873 16.8324 26.882C17.9127 25.878 19.4187 25.1359 21.0346 24.8686L20.7698 23.2679ZM23.1925 23.1312C22.4352 23.1344 21.6036 23.1365 20.7758 23.267L21.0286 24.8696C21.7137 24.7615 22.4208 24.7569 23.1995 24.7536L23.1925 23.1312ZM23.6766 23.128C23.5168 23.1298 23.3563 23.1305 23.1925 23.1312L23.1995 24.7536C23.3624 24.7529 23.5284 24.7522 23.6947 24.7503L23.6766 23.128ZM53.258 23.1323C43.4008 23.1336 33.5435 23.1349 23.6863 23.128L23.6851 24.7504C33.5432 24.7573 43.4012 24.756 53.2582 24.7547L53.258 23.1323ZM90.2184 23.1435C77.9 23.1291 65.5791 23.1307 53.258 23.1323L53.2582 24.7547C65.5795 24.7531 77.8993 24.7515 90.2168 24.7659L90.2184 23.1435ZM99.1326 30.9079C99.2624 28.77 98.164 26.8141 96.5189 25.4246C94.869 24.0319 92.6033 23.1435 90.2176 23.1435V24.7659C92.2115 24.7659 94.1089 25.5131 95.4717 26.6642C96.8394 27.8186 97.6043 29.3146 97.5135 30.8096L99.1326 30.9079ZM99.1407 86.1903C99.1537 67.7466 99.1658 49.3021 99.1342 30.8574L97.5118 30.8602C97.5435 49.3026 97.5313 67.7452 97.5183 86.1892L99.1407 86.1903ZM90.276 93.9204C92.682 93.9342 94.9347 93.037 96.566 91.632C98.1932 90.2311 99.2608 88.2664 99.1391 86.1434L97.5191 86.2361C97.6051 87.7351 96.8532 89.2439 95.5074 90.4031C94.1649 91.5582 92.2902 92.3094 90.285 92.298L90.276 93.9204ZM34.792 93.9447C53.2877 93.9512 71.7871 93.9577 90.2825 93.9204L90.2785 92.298C71.786 92.3353 53.2886 92.3288 34.7926 92.3223L34.792 93.9447ZM22.5294 93.9407C26.6167 93.9415 30.7043 93.9431 34.792 93.9447L34.7926 92.3223C30.7048 92.3207 26.6172 92.3191 22.5298 92.3183L22.5294 93.9407ZM13.5505 86.7C13.4945 88.7953 14.6706 90.6464 16.3372 91.9273C18.0087 93.2114 20.2545 93.9942 22.5485 93.9407L22.5106 92.3191C20.5948 92.3637 18.7095 91.7042 17.3257 90.6407C15.9372 89.574 15.1341 88.1715 15.1724 86.7434L13.5505 86.7ZM13.5497 64.1881C13.5512 71.6994 13.5527 79.2104 13.5502 86.7214L15.1726 86.722C15.1751 79.2104 15.1736 71.699 15.1721 64.1878L13.5497 64.1881ZM13.5565 30.3515C13.5452 41.6306 13.5475 52.9096 13.5497 64.1881L15.1721 64.1878C15.1698 52.9091 15.1676 41.6311 15.1788 30.3531L13.5565 30.3515ZM58.617 74.0398C59.0198 73.822 59.486 73.8021 60.1808 73.7949L60.1639 72.1726C59.5372 72.1791 58.6578 72.1732 57.8451 72.6128L58.617 74.0398ZM57.1082 76.7858C57.117 75.5501 57.7788 74.4503 58.5873 74.0552L57.8748 72.5976C56.3957 73.3206 55.498 75.0658 55.4859 76.7743L57.1082 76.7858ZM59.5656 79.919C59.0235 79.983 58.4088 79.7107 57.8966 79.1C57.3893 78.495 57.0725 77.6513 57.1076 76.8141L55.4866 76.7461C55.4334 78.0147 55.9041 79.2489 56.6536 80.1425C57.3981 81.0303 58.5094 81.6773 59.7558 81.5302L59.5656 79.919ZM75.2895 79.923C70.0791 79.9269 64.8698 79.9309 59.6634 79.9134L59.658 81.5358C64.8683 81.5532 70.0809 81.5493 75.2907 81.5454L75.2895 79.923ZM81.9843 79.9197C79.7529 79.9197 77.5211 79.9213 75.2895 79.923L75.2907 81.5454C77.5224 81.5437 79.7536 81.542 81.9843 81.542V79.9197ZM84.6785 76.7705C84.7372 77.6732 84.41 78.5432 83.8856 79.1481C83.3589 79.7558 82.7077 80.0239 82.1109 79.9296L81.8578 81.5321C83.1481 81.7359 84.3218 81.1218 85.1116 80.2108C85.9037 79.2969 86.3848 78.0113 86.2971 76.6653L84.6785 76.7705ZM82.0975 73.7984C82.6749 73.7434 83.3012 74.0024 83.8132 74.5493C84.3223 75.0931 84.6665 75.8741 84.6769 76.7278L86.2988 76.708C86.2834 75.4374 85.7747 74.271 84.9975 73.4405C84.2228 72.613 83.1284 72.0706 81.9438 72.1833L82.0975 73.7984ZM70.972 73.7909C74.656 73.7868 78.3371 73.7828 82.0164 73.802L82.0249 72.1797C78.3396 72.1604 74.6533 72.1645 70.9702 72.1685L70.972 73.7909ZM60.6916 73.7834C64.1187 73.7984 67.5466 73.7946 70.972 73.7909L70.9702 72.1685C67.5441 72.1722 64.1206 72.1761 60.6988 72.161L60.6916 73.7834ZM60.1808 73.7949C60.3539 73.7931 60.543 73.7912 60.732 73.7826L60.6583 72.1619C60.5025 72.169 60.342 72.1707 60.1639 72.1726L60.1808 73.7949Z" fill="url(#paint1_linear)"/>
<path d="M31.958 43.7694L46.5594 58.3708L31.958 72.9722" stroke="url(#paint2_linear)" stroke-width="12" stroke-linecap="round" stroke-linejoin="round"/>
<path d="M99.2867 110.287C111.831 110.287 122 100.118 122 87.5736C122 75.0294 111.831 64.8604 99.2867 64.8604C86.7425 64.8604 76.5734 75.0294 76.5734 87.5736C76.5734 100.118 86.7425 110.287 99.2867 110.287Z" fill="url(#paint3_linear)" stroke="url(#paint4_linear)" stroke-width="6"/>
<path fill-rule="evenodd" clip-rule="evenodd" d="M101.146 71.9588C101.514 71.5393 101.924 71.3376 102.486 71.3504C102.673 71.3547 102.879 71.3844 103.104 71.436L103.101 71.4391C103.4 71.508 103.735 71.6198 104.118 71.7718C105.267 72.2274 105.442 72.6634 105.319 74.801C105.212 76.6623 105.56 77.4109 106.893 78.1851C108.029 78.8442 108.953 78.8232 110.68 78.0964C111.306 77.833 112.002 77.6637 112.232 77.7257C112.729 77.8595 114.193 80.1713 114.187 80.8119C114.185 81.0989 113.716 81.6532 112.885 82.3645C111.264 83.7517 110.919 84.4379 111.136 85.8246C111.397 87.4924 111.887 88.08 113.68 88.8791C115.565 89.719 115.761 90.0722 115.3 91.7784C114.838 93.4867 114.402 93.7376 112.194 93.594C110.732 93.4989 110.266 93.5659 109.656 93.9679C108.065 95.0177 107.597 96.8182 108.452 98.6131C109.351 100.499 109.17 101.079 107.353 102.029C106.145 102.66 105.596 102.612 104.907 101.823C103.966 100.746 103.728 100.499 103.117 99.9851C102.379 99.365 101.487 99.2719 100.205 99.6809C98.9416 100.084 98.7427 100.287 98.1863 101.715C97.5778 103.277 96.7929 103.921 95.6863 103.778C95.262 103.723 94.7363 103.58 94.5171 103.461C94.2975 103.344 93.929 103.151 93.6996 103.033C93.1952 102.775 93.0533 102.024 93.2275 100.559C93.2993 99.9545 93.3005 99.1675 93.2275 98.8095C93.0723 98.0495 91.7654 96.8292 90.8479 96.582C90.2394 96.418 88.218 96.7477 86.9633 97.2157C86.5352 97.3755 86.2572 97.3456 85.924 97.1016C85.3424 96.6758 84.4268 95.0672 84.4 94.4242C84.3791 93.9223 85.0501 93.0157 85.7466 92.6054C86.3857 92.2289 87.1756 91.2349 87.3404 90.5965C87.5681 89.7174 87.2414 88.04 86.732 87.4596C86.4908 87.1847 85.7291 86.721 85.0368 86.4235C84.3446 86.1259 83.5843 85.6626 83.3512 85.3968C82.9696 84.9621 82.9695 84.7614 83.3322 83.4006C83.7979 81.653 84.3614 81.1294 85.4646 81.4266C86.6247 81.7391 88.0767 81.6365 88.7694 81.1921C89.6145 80.6499 90.4558 79.1476 90.4424 78.1978C90.437 77.8136 90.2049 76.9435 89.9322 76.2649C89.2725 74.6233 89.45 74.0847 90.9113 73.2516C92.4494 72.3749 92.9871 72.3577 93.6141 73.1597C94.9916 74.9216 95.3929 75.2815 96.244 75.5108C97.9784 75.9781 99.9428 74.9656 100.363 73.391C100.478 72.9618 100.831 72.3178 101.146 71.9588ZM105.776 87.5736C105.776 91.1577 102.871 94.0631 99.2867 94.0631C95.7027 94.0631 92.7972 91.1577 92.7972 87.5736C92.7972 83.9896 95.7027 81.0841 99.2867 81.0841C102.871 81.0841 105.776 83.9896 105.776 87.5736Z" fill="url(#paint5_linear)"/>
<defs>
<linearGradient id="paint0_linear" x1="56.2937" y1="99.2888" x2="56.2937" y2="17.8114" gradientUnits="userSpaceOnUse">
<stop stop-color="#5570FF"/>
<stop offset="1" stop-color="#4DD3FF"/>
</linearGradient>
<linearGradient id="paint1_linear" x1="56.2937" y1="99.2888" x2="56.2937" y2="17.8114" gradientUnits="userSpaceOnUse">
<stop stop-color="#5570FF"/>
<stop offset="1" stop-color="#4DD3FF"/>
</linearGradient>
<linearGradient id="paint2_linear" x1="39.2587" y1="72.9722" x2="39.2587" y2="43.7694" gradientUnits="userSpaceOnUse">
<stop stop-color="#FD5900"/>
<stop offset="1" stop-color="#FFDE00"/>
</linearGradient>
<linearGradient id="paint3_linear" x1="99.2867" y1="110.287" x2="99.2867" y2="64.8604" gradientUnits="userSpaceOnUse">
<stop stop-color="#FDA700"/>
<stop offset="1" stop-color="#FFDE00"/>
</linearGradient>
<linearGradient id="paint4_linear" x1="99.2867" y1="110.287" x2="99.2867" y2="64.8604" gradientUnits="userSpaceOnUse">
<stop stop-color="#FDA700"/>
<stop offset="1" stop-color="#FFDE00"/>
</linearGradient>
<linearGradient id="paint5_linear" x1="83.0625" y1="71.3499" x2="83.0625" y2="103.797" gradientUnits="userSpaceOnUse">
<stop stop-color="white"/>
<stop offset="1" stop-color="#E0E0E0"/>
</linearGradient>
</defs>
</svg>
