<svg width="128" height="128" viewBox="0 0 128 128" fill="none" xmlns="http://www.w3.org/2000/svg">
<path d="M113.088 12.3182C117.518 10.9483 122.453 14.1679 123.766 18.7923C128.008 33.3549 128.073 49.3047 123.839 63.8847C122.738 67.8722 119.157 71.022 115.193 70.8475C112.852 70.9871 110.804 69.6434 108.871 68.4219C97.6063 61.3195 86.211 54.4614 74.995 47.2805C71.1368 44.6541 71.2999 37.8746 75.2479 35.4228C86.2436 28.5123 97.3045 21.7328 108.317 14.8485C109.858 13.9149 111.384 12.8853 113.088 12.3182ZM85.069 41.3298C94.7514 47.9261 104.907 53.7895 114.826 60.002C117.974 47.9698 118.129 34.9778 114.785 22.9718C104.817 28.9835 94.9798 35.2221 85.069 41.3298Z" fill="url(#paint0_linear)"/>
<path d="M54.2924 35.7631C58.0692 33.7475 62.8573 37.9008 61.7561 42.2722C61.1607 46.5476 55.622 48.4584 52.7916 45.3696C49.9366 42.7433 50.7441 37.2115 54.2924 35.7631Z" fill="url(#paint1_linear)"/>
<path d="M42.7748 55.7178C46.8614 53.7546 51.9759 57.6549 51.7475 62.4101C51.7964 76.9465 51.7638 91.4916 51.7638 106.028C52.0248 111.595 46.9185 116.847 41.6817 115.696C28.141 112.764 15.5874 105.147 5.92946 94.6153C3.39263 92.2071 1.45941 88.6646 2.13645 84.9214C2.51983 81.7542 4.55092 79.058 7.17749 77.6445C19.0786 70.4025 30.7921 62.7853 42.7748 55.7178ZM12.3327 86.3786C19.9432 95.8979 30.8247 102.102 42.0814 105.182C42.0814 92.7742 42.0896 80.3756 42.0814 67.9682C32.1951 74.1544 22.3169 80.3581 12.3327 86.3786Z" fill="url(#paint2_linear)"/>
<path d="M64.9537 55.7877C67.1235 54.7144 69.6522 55.2467 71.6017 56.5991C83.1276 63.7975 94.7024 70.9173 106.22 78.1244C110.984 80.8467 112.15 88.3505 108.529 92.6172C98.7238 104.178 85.4768 112.45 71.1857 115.687C66.2181 116.795 61.0628 112.223 60.9649 106.839C60.8834 92.0326 60.8915 77.217 60.9486 62.4014C60.8752 59.5832 62.5719 56.9219 64.9537 55.7877ZM70.6228 68.3172C70.6147 80.585 70.631 92.8615 70.6147 105.129C81.9856 102.232 92.4429 95.6187 100.478 86.5618C90.477 80.5762 80.7865 73.9625 70.6228 68.3172Z" fill="url(#paint3_linear)"/>
<defs>
<linearGradient id="paint0_linear" x1="99.5865" y1="70.8575" x2="99.5865" y2="12" gradientUnits="userSpaceOnUse">
<stop stop-color="#FD5900"/>
<stop offset="1" stop-color="#FFDE00"/>
</linearGradient>
<linearGradient id="paint1_linear" x1="56.4901" y1="46.8899" x2="56.4901" y2="35.2396" gradientUnits="userSpaceOnUse">
<stop stop-color="#FD5900"/>
<stop offset="1" stop-color="#FFDE00"/>
</linearGradient>
<linearGradient id="paint2_linear" x1="26.8872" y1="115.856" x2="26.8872" y2="55.1984" gradientUnits="userSpaceOnUse">
<stop stop-color="#FD5900"/>
<stop offset="1" stop-color="#FFDE00"/>
</linearGradient>
<linearGradient id="paint3_linear" x1="85.7786" y1="115.854" x2="85.7786" y2="55.2159" gradientUnits="userSpaceOnUse">
<stop stop-color="#FD5900"/>
<stop offset="1" stop-color="#FFDE00"/>
</linearGradient>
</defs>
</svg>
