<svg width="48" height="48" viewBox="0 0 48 48" fill="none" xmlns="http://www.w3.org/2000/svg">
<path fill-rule="evenodd" clip-rule="evenodd" d="M24.2741 17.2517C24.1045 17.5144 24.0105 17.8108 24.0004 18.1141C23.9924 18.3592 24.0394 18.6032 24.1386 18.8317C24.2379 19.0603 24.3873 19.2686 24.5781 19.4445C24.7689 19.6203 24.9972 19.7601 25.2494 19.8555C25.5016 19.951 25.7726 20.0001 26.0464 20H28V33C28 34.1046 28.8954 35 30 35H38C39.1046 35 40 34.1046 40 33V20H41.9532C42.3124 20 42.6652 19.9154 42.9763 19.7546C43.2873 19.5938 43.5457 19.3625 43.7253 19.084C43.9049 18.8054 43.9995 18.4895 43.9995 18.1679C43.9996 17.8462 43.9051 17.5303 43.7255 17.2517L39.7473 11.0841L35.7711 4.91651C35.5916 4.63787 35.3332 4.40647 35.0221 4.24558C34.711 4.0847 34.3581 4 33.9988 4C33.6396 4 33.2866 4.0847 32.9755 4.24558C32.6644 4.40647 32.4061 4.63787 32.2265 4.91651L28.2503 11.0841L24.2741 17.2517Z" fill="url(#paint0_linear_574_71)"/>
<path fill-rule="evenodd" clip-rule="evenodd" d="M8 28V15C8 13.8954 8.89543 13 10 13H18C19.1046 13 20 13.8954 20 15V28H21.9537C22.3129 28 22.6657 28.0846 22.9768 28.2454C23.2878 28.4062 23.5462 28.6375 23.7258 28.916C23.9054 29.1946 24 29.5105 24 29.8321C24 30.1538 23.9056 30.4697 23.726 30.7483L19.7478 36.9159L15.7716 43.0835C15.5921 43.3621 15.3337 43.5935 15.0226 43.7544C14.7115 43.9153 14.3586 44 13.9993 44C13.6401 44 13.2871 43.9153 12.976 43.7544C12.6649 43.5935 12.4066 43.3621 12.227 43.0835L8.25081 36.9159L4.27461 30.7483C4.10502 30.4856 4.01096 30.1892 4.00087 29.8859C3.99288 29.6408 4.03989 29.3968 4.13913 29.1683C4.23837 28.9397 4.38781 28.7314 4.5786 28.5555C4.76939 28.3797 4.99765 28.2399 5.24987 28.1445C5.50208 28.049 5.77312 27.9999 6.04692 28H8Z" fill="url(#paint1_linear_574_71)"/>
<defs>
<linearGradient id="paint0_linear_574_71" x1="33.9995" y1="35" x2="33.9995" y2="4" gradientUnits="userSpaceOnUse">
<stop stop-color="#5558FF"/>
<stop offset="1" stop-color="#00C0FF"/>
</linearGradient>
<linearGradient id="paint1_linear_574_71" x1="14" y1="44" x2="14" y2="13" gradientUnits="userSpaceOnUse">
<stop stop-color="#00B59C"/>
<stop offset="1" stop-color="#9CFFAC"/>
</linearGradient>
</defs>
</svg>
