<svg width="128" height="128" viewBox="0 0 128 128" fill="none" xmlns="http://www.w3.org/2000/svg">
<path d="M24.165 5.00053L24.1592 5.00056C22.6663 5.00807 21.15 5.10543 19.6404 5.40706C11.0139 7.01781 4.07753 14.9708 4.03832 23.7584L4.03831 23.7597C4.00135 35.7368 3.97175 78.7184 4.04566 90.6935C4.01736 92.8204 5.41723 94.4543 7.08434 95.2373C8.73854 96.0143 10.8761 96.0598 12.5149 94.7792C14.5147 93.4645 14.876 91.0604 14.8543 89.2785C14.867 84.339 14.8633 48.4051 14.8597 43.4724C14.8549 36.897 14.85 30.3238 14.8838 23.7422C14.9379 19.3963 19.08 15.6195 23.4955 15.6983L23.505 15.6985H23.5145C36.99 15.6831 50.4589 15.6879 63.9276 15.6928C76.0499 15.6972 88.1721 15.7016 100.299 15.6912C100.65 15.6912 100.996 15.688 101.337 15.6848C103.586 15.6642 105.601 15.6456 107.396 16.5573L107.416 16.5676L107.437 16.5769C110.679 18.0428 112.69 21.6301 112.45 25.168L112.448 25.2015V25.2351C112.442 35.4016 112.444 45.5669 112.446 55.7319C112.45 71.7039 112.453 87.6749 112.426 103.647V103.66V103.672C112.531 108.161 108.53 112.291 103.977 112.277L103.965 112.278C97.5037 112.333 91.0731 112.324 84.6368 112.316C79.063 112.309 41.4849 112.302 35.8788 112.336C33.9212 112.226 32.253 113.308 31.2998 114.758C30.3498 116.204 30.02 118.153 30.902 119.89C31.4438 121.239 32.5 122.086 33.6618 122.563C34.8122 123.036 36.1027 123.166 37.2517 123.085C42.2675 123.054 79.3008 123.064 84.3389 123.074C91.1903 123.087 98.0507 123.101 104.889 123.012H104.904L104.92 123.011C114.657 122.586 123.15 114.025 123.197 104.299V104.295C123.218 89.8072 123.213 75.3133 123.209 60.8206C123.206 48.9763 123.202 37.1328 123.212 25.294C123.963 14.6939 114.656 4.8955 103.954 5.0152C89.3249 4.99506 74.6946 4.99929 60.0663 5.00352C48.0973 5.00698 36.1296 5.01044 24.165 5.00053Z" fill="url(#paint0_linear_575_28)"/>
<path d="M37.5274 25.0004L37.5235 25.0004C36.522 25.0054 35.5048 25.0707 34.4921 25.2731C28.7052 26.3536 24.052 31.6888 24.0257 37.5838L24.0257 37.5846C24.0009 45.6193 23.981 74.4528 24.0306 82.4861C24.0116 83.9129 24.9507 85.009 26.0691 85.5343C27.1788 86.0555 28.6127 86.086 29.7121 85.227C31.0536 84.345 31.296 82.7323 31.2814 81.5369C31.29 78.2233 31.2875 54.1176 31.2851 50.8086C31.2818 46.3976 31.2785 41.9881 31.3012 37.5729C31.3375 34.6575 34.1162 32.1239 37.0782 32.1768L37.0846 32.1769H37.091C46.1308 32.1666 55.1662 32.1698 64.2015 32.1731C72.3335 32.176 80.4655 32.179 88.6007 32.172C88.8361 32.172 89.0682 32.1699 89.297 32.1677C90.8057 32.1539 92.1574 32.1414 93.3616 32.753L93.375 32.7599L93.3891 32.7662C95.5639 33.7496 96.913 36.156 96.752 38.5294L96.7506 38.5519V38.5744C96.7466 45.3944 96.7479 52.2137 96.7493 59.0327C96.752 69.7473 96.754 80.4612 96.7359 91.1758V91.1845V91.1925C96.8063 94.2039 94.1223 96.9745 91.068 96.9651L91.0599 96.9657C86.7255 97.0026 82.4116 96.9966 78.0939 96.9912C74.3548 96.9865 49.1461 96.9818 45.3854 97.0047C44.0722 96.9309 42.9531 97.6567 42.3136 98.6294C41.6763 99.5994 41.4551 100.907 42.0468 102.072C42.4102 102.977 43.1188 103.545 43.8981 103.865C44.6699 104.183 45.5356 104.27 46.3064 104.215C49.6711 104.195 74.5143 104.201 77.8941 104.208C82.4902 104.217 87.0924 104.226 91.6798 104.166H91.6898L91.7006 104.166C98.2325 103.881 103.93 98.1377 103.961 91.6132V91.6105C103.976 81.8916 103.972 72.1686 103.969 62.4464C103.967 54.5008 103.965 46.5558 103.971 38.6139C104.475 31.503 98.2318 24.9299 91.0526 25.0102C81.2389 24.9967 71.4243 24.9995 61.6112 25.0024C53.582 25.0047 45.5536 25.007 37.5274 25.0004Z" fill="url(#paint1_linear_575_28)"/>
<path d="M19.5991 116.157C19.975 113.413 18.6109 110.92 16.6138 109.387C14.616 107.852 11.8456 107.169 9.26603 108.202C6.42414 109.09 4.7208 111.593 4.29457 114.206C3.86874 116.816 4.68767 119.723 7.10214 121.457C9.37821 123.434 12.4496 123.509 14.9129 122.454C17.3746 121.399 19.4389 119.126 19.5991 116.157Z" fill="url(#paint2_linear_575_28)"/>
<path d="M35.9516 98.5513C36.2431 96.4234 35.1853 94.4901 33.6366 93.3013C32.0874 92.111 29.939 91.5813 27.9386 92.3824C25.7348 93.071 24.4139 95.012 24.0834 97.0383C23.7532 99.0623 24.3882 101.317 26.2606 102.661C28.0256 104.194 30.4074 104.253 32.3176 103.434C34.2266 102.616 35.8274 100.854 35.9516 98.5513Z" fill="url(#paint3_linear_575_28)"/>
<path d="M53.4152 59.1835C51.7978 55.478 55.156 50.9355 59.1611 51.0388C62.567 50.9824 65.9823 50.9919 69.3972 51.0388C73.6309 50.9447 77.0271 56.0517 74.8391 59.7759C74.0018 61.9955 71.6236 62.8421 69.5497 63.5568C69.6448 67.093 69.797 70.6482 69.5687 74.1845C69.5592 76.7708 67.0762 78.4918 64.755 78.9999C62.091 79.0186 58.9804 77.0059 59.0089 74.1468C58.8282 70.6013 58.9899 67.0369 58.9614 63.4817C56.6305 62.8893 54.1095 61.6665 53.4152 59.1835Z" fill="url(#paint4_linear_575_28)"/>
<path d="M60.667 39.2624C62.9862 38.9136 65.3495 38.9136 67.6687 39.2562C72.3072 40.44 76.996 42.035 80.5821 45.3122C86.3863 50.2716 89.7516 57.9537 89.3737 65.5237C88.63 73.8599 83.6952 81.8661 76.1262 85.8037C71.2989 88.2708 65.7024 89.7163 60.2763 88.6385C56.6084 87.7724 52.9594 86.5762 49.8713 84.3707C43.0964 79.7914 39.0188 71.7602 39 63.6856C39.271 56.1281 42.9893 48.6765 49.197 44.1781C52.5246 41.5615 56.6398 40.359 60.667 39.2624ZM60.4085 46.7202C53.8165 48.1096 48.1949 53.4304 46.7768 59.9724C45.2454 65.9659 47.2747 72.6761 51.8627 76.8692C56.6461 81.4299 64.1268 83.1058 70.3472 80.6448C78.8742 77.7539 84.0924 67.8476 81.4013 59.2994C79.1766 50.5145 69.3199 44.5894 60.4085 46.7202Z" fill="url(#paint5_linear_575_28)"/>
<defs>
<linearGradient id="paint0_linear_575_28" x1="4.01747" y1="62.3038" x2="123.274" y2="62.3038" gradientUnits="userSpaceOnUse">
<stop stop-color="#A93AFF"/>
<stop offset="1" stop-color="#FF81FF"/>
</linearGradient>
<linearGradient id="paint1_linear_575_28" x1="24.0117" y1="63.4413" x2="104.013" y2="63.4413" gradientUnits="userSpaceOnUse">
<stop stop-color="#A93AFF"/>
<stop offset="1" stop-color="#FF81FF"/>
</linearGradient>
<linearGradient id="paint2_linear_575_28" x1="4.18928" y1="115.19" x2="19.664" y2="115.19" gradientUnits="userSpaceOnUse">
<stop stop-color="#A93AFF"/>
<stop offset="1" stop-color="#FF81FF"/>
</linearGradient>
<linearGradient id="paint3_linear_575_28" x1="24.0018" y1="97.8016" x2="36.002" y2="97.8016" gradientUnits="userSpaceOnUse">
<stop stop-color="#A93AFF"/>
<stop offset="1" stop-color="#FF81FF"/>
</linearGradient>
<linearGradient id="paint4_linear_575_28" x1="52.9967" y1="64.5851" x2="75.5182" y2="64.5851" gradientUnits="userSpaceOnUse">
<stop stop-color="#FD3A84"/>
<stop offset="1" stop-color="#FFA68D"/>
</linearGradient>
<linearGradient id="paint5_linear_575_28" x1="38.9926" y1="63.2592" x2="89.3915" y2="63.2592" gradientUnits="userSpaceOnUse">
<stop stop-color="#FD3A84"/>
<stop offset="1" stop-color="#FFA68D"/>
</linearGradient>
</defs>
</svg>
