<svg width="128" height="128" viewBox="0 0 128 128" fill="none" xmlns="http://www.w3.org/2000/svg">
<path d="M71.8637 10C70.0259 10 68.5361 11.4201 68.5361 13.1717V57.7868C68.5361 59.5384 70.0259 60.9584 71.8637 60.9584H118.673C120.511 60.9584 122.001 59.5384 122.001 57.7868C122.001 31.4876 99.4543 10 71.8637 10ZM75.1913 54.6152V16.4635C96.5203 18.0092 113.598 34.2864 115.219 54.6152H75.1913Z" fill="url(#paint0_linear_618_79)" stroke="url(#paint1_linear_618_79)" stroke-width="2"/>
<path fill-rule="evenodd" clip-rule="evenodd" d="M104.724 68.1932H61.4646V26.9612C61.4646 25.2096 59.9748 23.7896 58.137 23.7896C30.6078 23.7896 8 45.088 8 71.3648C8 97.6276 30.5874 119.152 58.137 119.152C85.6694 119.152 108.052 97.6418 108.052 71.3648C108.052 69.6134 106.562 68.1932 104.724 68.1932ZM58.1372 112.809C34.1612 112.809 14.6556 94.2172 14.6556 71.3652C14.6556 49.6912 32.3822 31.8698 54.8094 30.2526V71.3652C54.8094 73.1168 56.2994 74.5368 58.1372 74.5346H101.272C99.575 95.9128 80.877 112.809 58.1372 112.809Z" fill="url(#paint2_linear_618_79)"/>
<path d="M61.4646 68.1932H59.4646V70.1932H61.4646V68.1932ZM54.8094 30.2526H56.8094V28.1032L54.6656 28.2578L54.8094 30.2526ZM58.1372 74.5346V72.5346H58.1348L58.1372 74.5346ZM101.272 74.5346L103.265 74.693L103.437 72.5346H101.272V74.5346ZM61.4646 70.1932H104.724V66.1932H61.4646V70.1932ZM59.4646 26.9612V68.1932H63.4646V26.9612H59.4646ZM58.137 25.7896C58.9618 25.7896 59.4646 26.4036 59.4646 26.9612H63.4646C63.4646 24.0156 60.9878 21.7896 58.137 21.7896V25.7896ZM10 71.3648C10 46.2942 31.6078 25.7896 58.137 25.7896V21.7896C29.6076 21.7896 6 43.8818 6 71.3648H10ZM58.137 117.152C31.6002 117.152 10 96.4334 10 71.3648H6C6 98.8216 29.5744 121.152 58.137 121.152V117.152ZM106.052 71.3648C106.052 96.4582 84.6456 117.152 58.137 117.152V121.152C86.6932 121.152 110.052 98.8254 110.052 71.3648H106.052ZM104.724 70.1932C105.549 70.1932 106.052 70.8072 106.052 71.3648H110.052C110.052 68.4194 107.575 66.1932 104.724 66.1932V70.1932ZM12.6556 71.3652C12.6556 95.411 33.1482 114.809 58.1372 114.809V110.809C35.1742 110.809 16.6556 93.0232 16.6556 71.3652H12.6556ZM54.6656 28.2578C31.2918 29.9432 12.6556 48.5456 12.6556 71.3652H16.6556C16.6556 50.8368 33.4726 33.7964 54.9534 32.2474L54.6656 28.2578ZM56.8094 71.3652V30.2526H52.8094V71.3652H56.8094ZM58.1348 72.5346C57.3122 72.5356 56.8094 71.9232 56.8094 71.3652H52.8094C52.8094 74.3106 55.2866 76.538 58.1394 76.5346L58.1348 72.5346ZM101.272 72.5346H58.1372V76.5346H101.272V72.5346ZM58.1372 114.809C81.8568 114.809 101.481 97.1728 103.265 74.693L99.278 74.3764C97.6686 94.6526 79.8972 110.809 58.1372 110.809V114.809Z" fill="url(#paint3_linear_618_79)"/>
<defs>
<linearGradient id="paint0_linear_618_79" x1="95.2683" y1="60.9584" x2="95.2683" y2="10" gradientUnits="userSpaceOnUse">
<stop stop-color="#FD0F00"/>
<stop offset="1" stop-color="#FFF500"/>
</linearGradient>
<linearGradient id="paint1_linear_618_79" x1="95.2683" y1="60.9584" x2="95.2683" y2="10" gradientUnits="userSpaceOnUse">
<stop stop-color="#FD0F00"/>
<stop offset="1" stop-color="#FFF500"/>
</linearGradient>
<linearGradient id="paint2_linear_618_79" x1="58.026" y1="119.152" x2="58.026" y2="23.7896" gradientUnits="userSpaceOnUse">
<stop stop-color="#9000FF"/>
<stop offset="1" stop-color="#FF81FF"/>
</linearGradient>
<linearGradient id="paint3_linear_618_79" x1="58.026" y1="119.152" x2="58.026" y2="23.7896" gradientUnits="userSpaceOnUse">
<stop stop-color="#9000FF"/>
<stop offset="1" stop-color="#FF81FF"/>
</linearGradient>
</defs>
</svg>
