<svg width="128" height="128" viewBox="0 0 128 128" fill="none" xmlns="http://www.w3.org/2000/svg">
<path d="M111.067 16.9332C96.4889 2.35559 72.769 2.35559 58.1916 16.9332C48.2363 26.8885 44.7786 41.5629 49.0855 54.8739L35.7784 68.1241C35.1378 68.762 34.7778 69.6287 34.7778 70.5326V76.6807H28.6597C26.7825 76.6807 25.2607 78.2025 25.2607 80.0796V86.4243H19.1426C17.2655 86.4243 15.7437 87.9461 15.7437 89.8233V95.9414H9.39895C7.52182 95.9414 6 97.4632 6 99.3403V118.601C6 120.478 7.52182 122 9.39895 122H28.6264C29.5278 122 30.3922 121.642 31.0296 121.004L73.1211 78.9129C86.35 83.1953 101.049 79.8261 111.067 69.8084C125.644 55.2306 125.644 31.5109 111.067 16.9332ZM106.26 65.0016C97.681 73.5804 84.8126 76.2583 73.4757 71.8242C72.2188 71.3325 70.7892 71.6314 69.8343 72.5863L27.2185 115.202H12.7979V102.739H19.1426C21.0197 102.739 22.5416 101.217 22.5416 99.3403V93.2222H28.6597C30.5368 93.2222 32.0586 91.7004 32.0586 89.8233V83.4786H38.1767C40.0539 83.4786 41.5757 81.9567 41.5757 80.0796V71.9448L55.4085 58.1709C56.367 57.2162 56.6684 55.7841 56.1755 54.524C51.7413 43.1874 54.4194 30.319 62.9981 21.7398C74.9257 9.81266 94.3326 9.81289 106.26 21.7398C118.187 33.6672 118.187 53.0743 106.26 65.0016ZM75.0155 48.1775C73.6881 49.5049 73.6881 51.6569 75.0155 52.9843C76.3429 54.3117 78.4948 54.3117 79.8223 52.9843C81.1497 51.6569 81.1497 49.5049 79.8223 48.1775C78.4948 46.8503 76.3429 46.8503 75.0155 48.1775ZM99.0497 28.9503C93.2803 23.181 85.5984 20.0034 77.419 20.0034C75.5418 20.0034 74.02 21.5252 74.02 23.4023C74.02 25.2795 75.5418 26.8013 77.419 26.8013C83.7825 26.8013 89.7574 29.2716 94.2429 33.7571C98.7283 38.2426 101.198 44.2175 101.198 50.5813C101.198 52.4584 102.72 53.9802 104.597 53.9802C106.475 53.9802 107.996 52.4584 107.996 50.5813C107.996 42.4016 104.819 34.7197 99.0497 28.9503ZM77.419 33.5863C75.5418 33.5863 74.02 35.1081 74.02 36.9852C74.02 38.8624 75.5418 40.3842 77.419 40.3842C80.1427 40.3842 82.703 41.4449 84.629 43.3707C86.5551 45.2968 87.6158 47.8576 87.6158 50.581C87.6158 52.4582 89.1376 53.98 91.0148 53.98C92.8919 53.98 94.4137 52.4582 94.4137 50.581C94.4137 46.0416 92.6458 41.7739 89.4358 38.5637C86.2259 35.3542 81.9582 33.5863 77.419 33.5863Z" fill="url(#paint0_linear_644_86)" stroke="url(#paint1_linear_644_86)" stroke-width="3"/>
<defs>
<linearGradient id="paint0_linear_644_86" x1="64" y1="122" x2="64" y2="6" gradientUnits="userSpaceOnUse">
<stop stop-color="#FD5900"/>
<stop offset="1" stop-color="#FFDE00"/>
</linearGradient>
<linearGradient id="paint1_linear_644_86" x1="64" y1="122" x2="64" y2="6" gradientUnits="userSpaceOnUse">
<stop stop-color="#FD5900"/>
<stop offset="1" stop-color="#FFDE00"/>
</linearGradient>
</defs>
</svg>
