<?xml version="1.0" encoding="UTF-8" ?>
<!DOCTYPE svg PUBLIC "-//W3C//DTD SVG 1.1//EN" "http://www.w3.org/Graphics/SVG/1.1/DTD/svg11.dtd">
<svg width="192pt" height="192pt" viewBox="0 0 192 192" version="1.1" xmlns="http://www.w3.org/2000/svg">
<g id="#9e15ffff">
<path fill="#9e15ff" opacity="1.00" d=" M 81.39 24.94 C 80.95 21.22 84.23 17.58 88.00 17.78 C 92.12 18.32 96.02 19.82 100.00 20.93 C 113.31 25.21 127.20 28.71 139.09 36.32 C 134.97 39.17 131.21 42.61 128.61 46.94 C 117.03 42.43 105.67 37.27 93.86 33.39 C 93.58 71.64 93.94 109.91 93.63 148.16 C 93.27 146.82 93.01 145.44 92.99 144.05 C 92.92 129.38 93.03 114.69 92.79 100.02 C 89.49 102.94 86.21 105.93 83.33 109.27 C 82.06 110.49 82.30 112.35 82.18 113.95 C 82.13 128.01 82.24 142.09 81.92 156.15 C 80.91 153.55 81.43 150.71 81.33 148.00 C 81.31 106.98 81.41 65.96 81.39 24.94 Z" />
</g>
<g id="#00000032">
<path fill="#000000" opacity="0.20" d=" M 93.86 33.39 C 105.67 37.27 117.03 42.43 128.61 46.94 C 133.48 49.13 139.18 51.40 141.28 56.78 C 138.58 55.15 136.32 52.82 133.39 51.58 C 123.33 47.14 113.05 43.23 102.87 39.09 C 100.69 38.19 98.42 37.52 96.11 37.06 C 95.41 42.02 95.74 47.02 95.70 52.00 C 95.70 78.00 95.75 104.00 95.68 130.00 C 95.74 136.33 95.46 142.68 95.97 149.00 C 95.39 148.79 94.22 148.37 93.63 148.16 C 93.94 109.91 93.58 71.64 93.86 33.39 Z" />
<path fill="#000000" opacity="0.20" d=" M 111.82 64.97 C 113.39 66.18 113.83 68.07 113.74 69.97 C 113.73 98.98 113.72 127.99 113.74 157.00 C 113.68 160.95 114.20 165.02 112.86 168.83 C 109.95 169.07 106.98 168.95 104.29 167.71 C 97.99 165.10 91.31 163.50 85.01 160.92 C 83.28 160.33 82.51 158.63 81.88 157.07 C 87.41 159.42 93.21 161.04 98.83 163.13 C 103.07 164.56 107.25 166.74 111.85 166.34 C 111.80 132.55 111.82 98.76 111.82 64.97 Z" />
</g>
<g id="#ad1fffff">
<path fill="#ad1fff" opacity="1.00" d=" M 128.61 46.94 C 131.21 42.61 134.97 39.17 139.09 36.32 C 149.28 42.58 155.09 54.08 156.14 65.78 C 156.60 74.67 156.89 83.99 153.41 92.38 C 151.15 97.76 146.67 102.54 140.85 103.92 C 135.54 105.25 130.10 103.69 125.11 101.86 C 124.05 101.22 122.82 100.40 122.86 98.99 C 122.56 93.07 122.84 87.12 122.74 81.19 C 120.43 79.48 117.09 78.22 116.66 74.98 C 115.81 71.06 119.90 67.22 123.76 68.45 C 127.72 69.97 131.37 72.18 135.19 74.01 C 135.34 80.03 135.23 86.06 135.26 92.09 C 137.80 92.00 140.31 90.88 141.57 88.58 C 144.44 83.58 144.10 77.53 143.89 71.96 C 143.46 66.86 143.40 61.54 141.28 56.78 C 139.18 51.40 133.48 49.13 128.61 46.94 Z" />
</g>
<g id="#ab1effff">
<path fill="#ab1eff" opacity="1.00" d=" M 99.49 66.19 C 99.52 62.89 102.60 59.92 105.93 60.23 C 108.72 60.22 110.94 62.48 111.82 64.97 C 111.82 98.76 111.80 132.55 111.85 166.34 C 107.25 166.74 103.07 164.56 98.83 163.13 C 93.21 161.04 87.41 159.42 81.88 157.07 L 81.92 156.15 C 82.24 142.09 82.13 128.01 82.18 113.95 C 82.30 112.35 82.06 110.49 83.33 109.27 C 86.21 105.93 89.49 102.94 92.79 100.02 C 93.03 114.69 92.92 129.38 92.99 144.05 C 93.01 145.44 93.27 146.82 93.63 148.16 C 94.22 148.37 95.39 148.79 95.97 149.00 C 97.08 149.36 98.20 149.71 99.33 150.05 C 99.63 122.10 99.32 94.14 99.49 66.19 Z" />
</g>
<g id="#00000039">
<path fill="#000000" opacity="0.22" d=" M 156.14 65.78 C 158.32 70.52 156.97 75.97 157.19 81.01 C 157.46 88.06 155.43 95.37 150.77 100.76 C 146.55 105.87 139.26 107.94 132.90 106.32 C 130.01 105.57 126.56 104.77 125.11 101.86 C 130.10 103.69 135.54 105.25 140.85 103.92 C 146.67 102.54 151.15 97.76 153.41 92.38 C 156.89 83.99 156.60 74.67 156.14 65.78 Z" />
<path fill="#000000" opacity="0.22" d=" M 74.76 96.85 C 76.69 100.38 75.35 104.96 71.61 106.62 C 62.69 110.42 53.69 114.06 44.76 117.84 C 41.68 119.26 37.88 119.79 35.79 122.73 C 34.46 121.98 33.17 121.15 31.92 120.29 C 44.07 115.34 56.13 110.19 68.30 105.28 C 70.07 104.47 72.04 103.82 73.38 102.33 C 74.53 100.76 74.41 98.68 74.76 96.85 Z" />
<path fill="#000000" opacity="0.22" d=" M 180.59 135.80 C 181.91 139.31 181.59 144.02 177.92 145.95 C 166.58 152.33 155.12 158.52 143.73 164.82 C 137.82 168.01 132.08 171.58 125.85 174.12 C 123.94 174.93 121.96 173.96 121.01 172.23 C 124.40 172.39 127.52 171.09 130.33 169.32 C 145.96 160.59 161.74 152.12 177.36 143.38 C 180.32 142.04 180.52 138.63 180.59 135.80 Z" />
</g>
<g id="#9d14ffff">
<path fill="#9d14ff" opacity="1.00" d=" M 66.30 93.27 C 69.69 91.56 73.11 93.92 74.76 96.85 C 74.41 98.68 74.53 100.76 73.38 102.33 C 72.04 103.82 70.07 104.47 68.30 105.28 C 56.13 110.19 44.07 115.34 31.92 120.29 C 33.17 121.15 34.46 121.98 35.79 122.73 C 47.96 129.37 60.13 136.00 72.23 142.77 C 75.67 144.54 76.16 149.80 73.25 152.28 C 71.10 154.29 67.71 154.12 65.36 152.57 C 48.65 143.26 31.81 134.20 15.13 124.85 C 12.08 123.29 11.21 118.90 13.23 116.22 C 14.26 114.78 15.98 114.15 17.53 113.45 C 33.81 106.79 50.01 99.92 66.30 93.27 Z" />
</g>
<g id="#ba28ffff">
<path fill="#ba28ff" opacity="1.00" d=" M 120.39 112.39 C 122.49 110.62 125.44 111.15 127.72 112.24 C 143.71 118.91 159.72 125.55 175.73 132.18 C 177.70 132.86 179.19 134.33 180.59 135.80 C 180.52 138.63 180.32 142.04 177.36 143.38 C 161.74 152.12 145.96 160.59 130.33 169.32 C 127.52 171.09 124.40 172.39 121.01 172.23 C 119.34 170.52 117.26 168.68 117.58 166.01 C 117.61 161.95 121.87 160.49 124.80 158.80 C 136.63 152.13 148.79 145.99 160.40 138.95 C 147.62 133.02 134.36 128.15 121.46 122.46 C 117.48 120.84 116.94 114.86 120.39 112.39 Z" />
</g>
</svg>
