<svg width="64" height="64" viewBox="0 0 64 64" fill="none" xmlns="http://www.w3.org/2000/svg">
<path fill-rule="evenodd" clip-rule="evenodd" d="M36.6132 2.72101C35.5674 2.91245 34.5218 3.10385 33.471 3.25104C31.9905 3.49468 30.5099 3.74334 29.043 4.06013C22.9508 5.01727 16.8585 6.06085 10.7717 7.10345L10.7705 7.10367L10.7693 7.10389C9.63368 7.29836 8.49827 7.49284 7.36309 7.68678C4.56141 8.07672 2.50686 11.216 3.10364 14.1699C4.19015 21.571 5.28943 28.9702 6.38878 36.3697C7.02717 40.6667 7.66558 44.9639 8.30154 49.2616C8.5202 51.3967 9.9552 53.3075 11.8822 53.9314C12.9473 54.3305 14.0643 54.1531 15.1565 53.9797C15.3581 53.9476 15.5595 53.9157 15.759 53.8876C15.7705 54.274 15.7661 54.6671 15.7617 55.0624C15.7469 56.3821 15.7317 57.7253 16.3103 58.9181C17.1257 60.7022 18.8932 61.9501 20.7611 61.9696C24.1276 62.0134 27.4941 62.0037 30.8607 61.9744C32.0223 62.0426 33.1795 61.214 33.4619 59.9905C33.9675 58.4355 32.8378 56.5685 31.298 56.4565C29.8583 56.3662 28.4151 56.3857 26.972 56.4052C25.5292 56.4247 24.0863 56.4443 22.647 56.3541C21.4671 56.2225 20.8384 54.8722 20.9842 53.7121C20.992 49.2456 20.9898 44.7783 20.9876 40.3109C20.9845 34.3542 20.9816 28.3973 21.0024 22.442C20.9204 21.2478 21.9409 20.1656 23.057 20.2583C32.9562 20.2338 42.8601 20.2289 52.7593 20.2583C53.8526 20.19 54.8411 21.2624 54.7683 22.4274C54.7891 28.3882 54.7862 34.3491 54.7831 40.3099C54.781 44.7805 54.7787 49.2513 54.7865 53.7219C54.9368 54.8966 54.2763 56.2614 53.0782 56.359C51.767 56.442 50.4514 56.4235 49.1358 56.405C47.7456 56.3855 46.3549 56.366 44.9692 56.4662C43.5799 56.5685 42.5275 58.0992 42.7416 59.5518C42.8509 60.9312 44.0627 62.0426 45.3565 61.9696C48.5772 62.0085 51.798 62.0134 55.0188 61.9647C57.6429 61.9647 59.9753 59.464 59.9799 56.6612C60.0131 54.4209 60.0076 52.1804 60.0019 49.9392C59.9976 48.1964 59.9932 46.453 60.0071 44.7088C60.0027 42.8858 60.0027 41.0627 60.0117 39.2396C59.9947 35.8957 59.9972 32.552 59.9997 29.2081C60.0019 26.3077 60.0041 23.4072 59.9935 20.5068C60.0892 18.4693 59.1098 16.4366 57.447 15.4178C56.2184 14.6153 54.7743 14.6367 53.3649 14.6575C52.9765 14.6633 52.5906 14.669 52.2126 14.6574C50.5067 14.7141 49.4073 14.6762 47.7026 14.6177C47.6687 14.2285 47.7026 14.6177 47.7026 14.4527C47.5592 13.4892 47.7026 14.6177 47.7026 14.4527C47.5564 13.491 47.4203 12.5274 47.2841 11.5639C47.0429 9.85646 46.8015 8.14856 46.5045 6.45351C46.1036 3.86522 43.7484 1.81788 41.2884 2.01286C39.7179 2.15265 38.1653 2.43687 36.6132 2.72101ZM8.5931 15.6956C8.1922 14.3795 9.02132 12.8831 10.3424 12.81C15.6804 11.8835 21.0228 10.9821 26.3645 10.081C30.4092 9.39872 34.454 8.7163 38.4958 8.02319C39.5755 7.76963 41.0287 7.73071 41.5389 9.02241C42.0309 10.8894 42.2678 12.8343 42.3134 14.7744C37.9743 14.6207 33.63 14.6421 29.286 14.6636C26.6064 14.6769 23.9267 14.6902 21.2484 14.6623C18.4468 14.4235 15.7681 16.9922 15.7909 20.0193C15.7591 24.7458 15.7648 29.4734 15.7704 34.2016C15.7761 38.9335 15.7818 43.6663 15.7498 48.3989C14.5928 48.3989 13.2215 47.8529 13.1487 46.415C11.6043 36.1784 10.0919 25.9371 8.5931 15.6956Z" fill="url(#paint0_linear_575_58)"/>
<path d="M52.5423 42.2543C51.6524 41.3042 49.8335 40.7549 47.2561 40.7549C45.8768 40.7549 44.2824 40.8922 42.5463 41.2158C41.4852 40.1673 40.5195 39.0261 39.6608 37.8057C38.9961 36.8801 38.4139 35.8999 37.8805 34.9347C38.8975 31.7504 39.3914 29.1532 39.3914 27.2821C39.3914 25.1853 38.6336 23 36.4618 23C35.7914 23 35.1266 23.4064 34.7698 24.0047C33.7914 25.7685 34.2318 29.6395 35.9191 33.4606C35.2755 35.4099 34.5659 37.3366 33.7914 39.2375C33.0581 40.9813 32.2537 42.6942 31.3801 44.3718C26.4947 46.3615 23.3304 48.6784 23.0374 50.5014C22.905 51.1871 23.1304 51.8147 23.6093 52.3189C23.7755 52.4563 24.4017 53 25.4628 53C28.705 53 32.1191 47.6352 33.8599 44.3963C35.1904 43.9457 36.5257 43.5337 37.8552 43.1226C39.2602 42.7339 40.6836 42.415 42.12 42.1668C45.5434 45.3078 48.5603 45.8027 50.0768 45.8027C51.9454 45.8027 52.61 45.0285 52.8353 44.3963C53.1877 43.5779 52.9238 42.6767 52.5228 42.2111L52.5472 42.26L52.5423 42.2543ZM50.8109 43.577C50.6787 44.258 50.0092 44.7133 49.0749 44.7133C48.811 44.7133 48.5857 44.6644 48.3171 44.6249C46.6148 44.2129 45.0214 43.3465 43.4317 41.9787C44.6648 41.7713 45.9128 41.6665 47.1632 41.6654C48.0871 41.6654 48.8899 41.7097 49.4269 41.847C50.0429 41.9797 51.0212 42.3954 50.8017 43.5817H50.8259L50.8109 43.577ZM41.3923 41.4359C40.155 41.689 38.9254 41.9782 37.705 42.3033C36.6434 42.5921 35.5915 42.9156 34.551 43.2731C35.0913 42.2012 35.5952 41.1112 36.0618 40.0051C36.5998 38.7267 37.0402 37.4088 37.4853 36.183C37.9209 36.9525 38.4092 37.7267 38.8984 38.4172C39.7003 39.5094 40.5369 40.5488 41.3782 41.4547V41.4303L41.3923 41.4359ZM35.567 24.523C35.6452 24.3625 35.7659 24.2265 35.9159 24.1298C36.0659 24.0331 36.2394 23.9794 36.4177 23.9746C37.3519 23.9746 37.5275 25.062 37.5275 25.9341C37.5275 27.3987 37.0825 29.6235 36.3247 32.1615C34.9942 28.6245 34.9069 25.665 35.5717 24.523H35.567ZM30.6815 45.718C28.4177 49.5344 26.2412 51.9013 24.906 51.9013C24.6468 51.9013 24.4215 51.8083 24.2459 51.6754C23.9773 51.4008 23.8449 51.0828 23.9332 50.7197C24.2017 49.3529 26.7351 47.4423 30.6872 45.7171L30.6815 45.718Z" fill="url(#paint1_linear_575_58)" stroke="url(#paint2_linear_575_58)"/>
<defs>
<linearGradient id="paint0_linear_575_58" x1="31.5058" y1="62" x2="31.5058" y2="2" gradientUnits="userSpaceOnUse">
<stop stop-color="#A70000"/>
<stop offset="1" stop-color="#FF0000"/>
</linearGradient>
<linearGradient id="paint1_linear_575_58" x1="38" y1="53" x2="38" y2="23" gradientUnits="userSpaceOnUse">
<stop stop-color="#A70000"/>
<stop offset="1" stop-color="#FF0000"/>
</linearGradient>
<linearGradient id="paint2_linear_575_58" x1="38" y1="53" x2="38" y2="23" gradientUnits="userSpaceOnUse">
<stop stop-color="#A70000"/>
<stop offset="1" stop-color="#FF0000"/>
</linearGradient>
</defs>
</svg>
