<svg width="64" height="64" viewBox="0 0 64 64" fill="none" xmlns="http://www.w3.org/2000/svg">
<path d="M17.7524 17.7403C17.7526 17.7404 17.7526 17.7406 17.7525 17.7407C12.4031 23.1005 8.4257 29.6739 6.15851 36.902C3.96078 43.9087 3.43303 51.3298 4.61319 58.5716C4.6805 58.9846 5.00355 59.3082 5.41647 59.3762C12.6546 60.5677 20.0743 60.048 27.0814 57.8543C34.31 55.5913 40.8854 51.6137 46.2478 46.2601C51.5972 40.9002 55.5746 34.3267 57.8417 27.0984C60.0393 20.0918 60.567 12.6707 59.3867 5.42896C59.3194 5.01594 58.9964 4.69236 58.5835 4.62438C51.3454 3.43277 43.9256 3.95245 36.9186 6.1461C29.69 8.4091 23.1148 12.3866 17.7523 17.74C17.7522 17.7401 17.7523 17.7403 17.7524 17.7403V17.7403Z" stroke="url(#paint0_linear)" stroke-width="6"/>
<path fill-rule="evenodd" clip-rule="evenodd" d="M47.9994 22.0004C51.3131 22.0004 53.9994 19.3141 53.9994 16.0004C53.9994 12.6867 51.3131 10.0005 47.9994 10.0005C44.6858 10.0005 41.9995 12.6867 41.9995 16.0004C41.9995 19.3141 44.6858 22.0004 47.9994 22.0004ZM32 44C38.6274 44 44 38.6274 44 32C44 25.3726 38.6274 20 32 20C25.3726 20 20 25.3726 20 32C20 38.6274 25.3726 44 32 44ZM21.9999 47.9999C21.9999 51.3136 19.3136 53.9999 15.9999 53.9999C12.6863 53.9999 10 51.3136 10 47.9999C10 44.6863 12.6863 42 15.9999 42C19.3136 42 21.9999 44.6863 21.9999 47.9999Z" fill="url(#paint1_linear)"/>
<defs>
<linearGradient id="paint0_linear" x1="32" y1="60" x2="32" y2="4.00049" gradientUnits="userSpaceOnUse">
<stop stop-color="#00B59C"/>
<stop offset="1" stop-color="#9CFFAC"/>
</linearGradient>
<linearGradient id="paint1_linear" x1="31.9997" y1="53.9999" x2="31.9997" y2="10.0005" gradientUnits="userSpaceOnUse">
<stop stop-color="#FDA700"/>
<stop offset="1" stop-color="#FFDE00"/>
</linearGradient>
</defs>
</svg>
