<svg width="64" height="64" viewBox="0 0 64 64" fill="none" xmlns="http://www.w3.org/2000/svg">
<g clip-path="url(#clip0)">
<path d="M8.23572 0.299667C9.34938 0.0313085 10.4988 0 11.6393 0C23.8717 0.0223632 36.1086 -0.0134175 48.341 0.017891C52.3529 0.0491994 56.1725 2.59413 57.8228 6.23933C58.6234 7.9121 58.8649 9.7906 58.8247 11.6289C58.8023 15.5111 58.8381 19.3889 58.8113 23.2711C58.9946 24.9976 57.1251 26.4914 55.4882 25.9234C54.3432 25.6103 53.565 24.4609 53.6276 23.289C53.5829 19.0937 53.6455 14.8984 53.6052 10.703C53.6231 8.4667 52.1203 6.33773 50.0272 5.56843C48.7794 5.0675 47.4108 5.21957 46.1003 5.19721C34.3241 5.21062 22.5479 5.1972 10.7761 5.20615C8.56221 5.17037 6.43775 6.61056 5.6148 8.65903C5.08257 9.88453 5.18097 11.2442 5.16755 12.5457C5.18991 24.3267 5.16308 36.1121 5.18097 47.893C5.04679 50.7465 7.38146 53.4838 10.2618 53.6403C14.7567 53.7656 19.2561 53.5911 23.7465 53.7164C25.1017 53.7522 26.2422 55.0537 26.1393 56.4C26.117 57.697 24.972 58.8823 23.6526 58.8599C19.0816 58.8778 14.5062 58.9046 9.93081 58.842C4.55481 58.5781 -0.0340228 53.6895 0.0107027 48.309C-0.00718754 35.7856 0.00175744 23.2622 0.00622999 10.7388C-0.0787484 5.90388 3.52612 1.35074 8.23572 0.299667Z" fill="url(#paint0_linear)"/>
<path d="M16.7874 11.9777C19.1981 11.5126 21.6982 11.7586 24.1403 11.772C26.1932 11.9553 26.7478 15.0683 24.9319 15.9986C22.5928 16.9021 19.8958 15.7839 17.5522 16.6337C15.6693 17.6937 16.4698 20.185 16.3133 21.9427C16.4609 23.1593 15.9197 24.5771 14.6137 24.8813C13.2809 25.2928 11.7155 24.2417 11.7334 22.8149C11.7289 20.7083 11.4695 18.5257 12.0644 16.4727C12.7755 14.3169 14.6003 12.5815 16.7874 11.9777Z" fill="url(#paint1_linear)"/>
<path d="M35.0576 11.8257C36.7975 11.6155 38.5641 11.7497 40.3174 11.7363C43.8641 11.7139 47.0441 14.8492 47.0933 18.3916C47.1022 19.9972 47.2185 21.6253 47.0038 23.2265C46.5297 25.0513 43.7925 25.3823 42.8622 23.7587C41.8022 21.5761 43.6091 18.4139 41.4221 16.7233C39.3066 15.7169 36.7572 16.9067 34.6059 16.0166C32.9019 15.14 33.206 12.3177 35.0576 11.8257Z" fill="url(#paint2_linear)"/>
<path d="M12.7439 33.2898C14.4301 32.1001 16.7245 33.8444 16.3086 35.7856C16.6216 37.919 15.3693 40.9783 17.6548 42.3067C19.8955 42.9597 22.3152 42.2172 24.5917 42.7182C26.5015 43.3622 26.506 46.4036 24.5693 47.0253C22.6685 47.3339 20.7185 47.1058 18.7953 47.1684C16.0089 47.2489 13.3075 45.4778 12.2564 42.906C11.4111 40.947 11.7823 38.7733 11.6929 36.7069C11.6929 35.5172 11.5408 33.992 12.7439 33.2898Z" fill="url(#paint3_linear)"/>
<path d="M42.2675 29.8816C49.9513 27.7124 58.731 31.693 62.1704 38.885C64.514 43.5008 64.6079 49.1765 62.4432 53.8773C60.7839 57.527 57.8141 60.5549 54.2003 62.2903C49.7635 64.4506 44.392 64.5714 39.8658 62.6079C35.9702 60.9619 32.741 57.8177 30.9699 53.9757C28.9259 49.6328 28.823 44.44 30.6702 40.0121C32.6873 35.0788 37.1062 31.21 42.2675 29.8816Z" fill="url(#paint4_linear)"/>
</g>
<defs>
<linearGradient id="paint0_linear" x1="29.4145" y1="58.8812" x2="29.4145" y2="0" gradientUnits="userSpaceOnUse">
<stop stop-color="#FD5900"/>
<stop offset="1" stop-color="#FFDE00"/>
</linearGradient>
<linearGradient id="paint1_linear" x1="18.8518" y1="24.9714" x2="18.8518" y2="11.6951" gradientUnits="userSpaceOnUse">
<stop stop-color="#FD5900"/>
<stop offset="1" stop-color="#FFDE00"/>
</linearGradient>
<linearGradient id="paint2_linear" x1="40.308" y1="24.8059" x2="40.308" y2="11.7063" gradientUnits="userSpaceOnUse">
<stop stop-color="#FD5900"/>
<stop offset="1" stop-color="#FFDE00"/>
</linearGradient>
<linearGradient id="paint3_linear" x1="18.8545" y1="47.1914" x2="18.8545" y2="32.9011" gradientUnits="userSpaceOnUse">
<stop stop-color="#FD5900"/>
<stop offset="1" stop-color="#FFDE00"/>
</linearGradient>
<linearGradient id="paint4_linear" x1="46.6786" y1="63.9999" x2="46.6786" y2="29.2905" gradientUnits="userSpaceOnUse">
<stop stop-color="#FD5900"/>
<stop offset="1" stop-color="#FFDE00"/>
</linearGradient>
<clipPath id="clip0">
<rect width="64" height="64" fill="white"/>
</clipPath>
</defs>
</svg>
