<?xml version="1.0" encoding="UTF-8" ?>
<!DOCTYPE svg PUBLIC "-//W3C//DTD SVG 1.1//EN" "http://www.w3.org/Graphics/SVG/1.1/DTD/svg11.dtd">
<svg width="192pt" height="192pt" viewBox="0 0 192 192" version="1.1" xmlns="http://www.w3.org/2000/svg">
<g id="#2388faff">
<path fill="#2388fa" opacity="1.00" d=" M 69.52 19.88 C 75.26 17.23 81.39 15.52 87.65 14.66 C 86.58 19.14 90.41 22.55 92.37 26.15 C 87.63 26.50 82.96 27.58 78.49 29.20 C 75.06 26.55 71.75 23.65 69.52 19.88 Z" />
</g>
<g id="#1d96fcff">
<path fill="#1d96fc" opacity="1.00" d=" M 87.65 14.66 C 95.56 13.91 103.59 14.37 111.27 16.46 C 110.48 18.35 109.50 20.20 109.01 22.20 C 108.85 24.22 109.50 26.18 109.84 28.15 C 104.19 26.44 98.25 25.83 92.37 26.15 C 90.41 22.55 86.58 19.14 87.65 14.66 Z" />
</g>
<g id="#1ea3fdff">
<path fill="#1ea3fd" opacity="1.00" d=" M 111.27 16.46 C 119.63 18.80 127.45 22.88 134.28 28.22 C 131.34 30.82 128.78 33.81 126.88 37.25 C 121.85 33.17 116.05 30.01 109.84 28.15 C 109.50 26.18 108.85 24.22 109.01 22.20 C 109.50 20.20 110.48 18.35 111.27 16.46 Z" />
</g>
<g id="#2e7af7ff">
<path fill="#2e7af7" opacity="1.00" d=" M 59.10 26.13 C 62.38 23.74 65.87 21.66 69.52 19.88 C 71.75 23.65 75.06 26.55 78.49 29.20 C 74.90 30.60 71.48 32.41 68.27 34.55 C 65.43 31.50 62.00 29.11 59.10 26.13 Z" />
</g>
<g id="#3b6cf1ff">
<path fill="#3b6cf1" opacity="1.00" d=" M 53.27 31.02 C 55.15 29.32 57.10 27.69 59.10 26.13 C 62.00 29.11 65.43 31.50 68.27 34.55 C 66.07 36.08 63.95 37.72 61.99 39.54 C 58.11 37.84 55.41 34.56 53.27 31.02 Z" />
</g>
<g id="#00000040">
<path fill="#000000" opacity="0.25" d=" M 78.49 29.20 C 82.96 27.58 87.63 26.50 92.37 26.15 C 98.25 25.83 104.19 26.44 109.84 28.15 C 116.05 30.01 121.85 33.17 126.88 37.25 C 127.84 38.09 128.76 38.99 129.69 39.87 C 128.14 39.30 126.53 38.81 125.18 37.82 C 113.20 28.92 96.85 26.14 82.62 30.67 C 69.38 34.73 58.19 44.63 52.06 56.99 C 48.30 65.70 46.17 75.53 47.97 84.98 C 48.36 87.38 48.60 89.81 48.87 92.23 C 47.00 87.28 46.07 82.01 45.97 76.72 C 45.93 73.54 46.16 70.35 46.71 67.22 C 47.00 65.80 47.34 64.40 47.71 63.00 C 48.59 59.81 49.78 56.71 51.25 53.74 C 52.58 51.22 54.08 48.78 55.77 46.48 C 57.64 44.00 59.72 41.67 61.99 39.54 C 63.95 37.72 66.07 36.08 68.27 34.55 C 71.48 32.41 74.90 30.60 78.49 29.20 Z" />
</g>
<g id="#24b1fdff">
<path fill="#24b1fd" opacity="1.00" d=" M 126.88 37.25 C 128.78 33.81 131.34 30.82 134.28 28.22 C 142.86 35.10 149.30 44.30 153.52 54.40 L 153.25 54.46 C 149.36 55.43 145.42 56.20 141.52 57.15 C 138.84 50.66 134.85 44.66 129.69 39.87 C 128.76 38.99 127.84 38.09 126.88 37.25 Z" />
</g>
<g id="#4b5de9ff">
<path fill="#4b5de9" opacity="1.00" d=" M 49.35 35.04 C 50.66 33.70 51.96 32.36 53.27 31.02 C 55.41 34.56 58.11 37.84 61.99 39.54 C 59.72 41.67 57.64 44.00 55.77 46.48 C 51.40 44.33 50.39 39.33 49.35 35.04 Z" />
</g>
<g id="#5a4cdfff">
<path fill="#5a4cdf" opacity="1.00" d=" M 43.10 43.55 C 44.99 40.58 47.09 37.75 49.35 35.04 C 50.39 39.33 51.40 44.33 55.77 46.48 C 54.08 48.78 52.58 51.22 51.25 53.74 C 48.19 50.63 45.85 46.92 43.10 43.55 Z" />
</g>
<g id="#3e87f5ff">
<path fill="#3e87f5" opacity="1.00" d=" M 86.99 44.31 C 91.43 42.86 96.21 43.11 100.79 43.60 C 100.31 43.98 99.35 44.74 98.87 45.12 C 102.98 49.41 106.82 53.94 110.45 58.65 C 110.17 59.32 109.60 60.66 109.32 61.33 C 106.18 57.95 101.81 56.07 97.34 55.22 C 94.36 51.22 89.78 48.87 86.78 44.90 L 86.99 44.31 Z" />
</g>
<g id="#7237d3ff">
<path fill="#7237d3" opacity="1.00" d=" M 43.10 43.55 C 45.85 46.92 48.19 50.63 51.25 53.74 C 49.78 56.71 48.59 59.81 47.71 63.00 C 44.68 60.56 41.41 58.43 37.91 56.72 L 37.63 56.09 C 38.44 51.60 40.93 47.54 43.10 43.55 Z" />
</g>
<g id="#3996f7ff">
<path fill="#3996f7" opacity="1.00" d=" M 98.87 45.12 C 99.35 44.74 100.31 43.98 100.79 43.60 C 112.77 45.73 122.76 55.18 126.12 66.79 C 126.52 68.65 126.86 70.52 127.10 72.40 C 121.75 67.59 116.37 62.77 110.45 58.65 C 106.82 53.94 102.98 49.41 98.87 45.12 Z" />
</g>
<g id="#4978f3ff">
<path fill="#4978f3" opacity="1.00" d=" M 77.65 47.99 C 80.37 46.69 83.06 44.94 86.11 44.64 L 86.78 44.90 C 89.78 48.87 94.36 51.22 97.34 55.22 C 94.36 55.10 91.35 55.32 88.46 56.12 C 85.12 53.07 81.38 50.53 77.65 47.99 Z" />
</g>
<g id="#576bf0ff">
<path fill="#576bf0" opacity="1.00" d=" M 72.29 52.23 C 73.96 50.68 75.74 49.24 77.65 47.99 C 81.38 50.53 85.12 53.07 88.46 56.12 C 86.17 57.06 83.97 58.23 81.96 59.68 C 78.65 57.31 75.33 54.94 72.29 52.23 Z" />
</g>
<g id="#665dedff">
<path fill="#665ded" opacity="1.00" d=" M 72.15 52.11 L 72.29 52.23 C 75.33 54.94 78.65 57.31 81.96 59.68 C 80.37 61.14 78.89 62.75 77.59 64.48 C 74.36 62.00 70.79 60.00 66.95 58.63 C 68.54 56.35 70.29 54.18 72.15 52.11 Z" />
</g>
<g id="#2fb8fbff">
<path fill="#2fb8fb" opacity="1.00" d=" M 153.25 54.46 C 154.00 54.72 154.34 55.44 154.28 56.61 C 157.14 66.91 158.16 77.85 155.72 88.35 C 150.96 84.98 147.64 80.07 145.16 74.87 C 144.91 68.82 143.82 62.78 141.52 57.15 C 145.42 56.20 149.36 55.43 153.25 54.46 Z" />
</g>
<g id="#00000043">
<path fill="#000000" opacity="0.26" d=" M 88.46 56.12 C 91.35 55.32 94.36 55.10 97.34 55.22 C 101.81 56.07 106.18 57.95 109.32 61.33 L 109.86 61.89 C 105.23 60.45 100.99 57.48 95.97 57.59 C 88.73 57.69 81.50 61.79 78.18 68.31 C 75.70 72.57 75.51 77.65 75.43 82.45 C 74.05 78.83 73.97 74.85 74.75 71.08 C 75.42 68.77 76.37 66.55 77.59 64.48 C 78.89 62.75 80.37 61.14 81.96 59.68 C 83.97 58.23 86.17 57.06 88.46 56.12 Z" />
<path fill="#000000" opacity="0.26" d=" M 126.12 66.79 C 129.45 72.48 129.04 79.70 127.78 85.97 C 123.99 102.24 106.28 113.27 89.98 109.98 C 82.40 108.52 75.47 104.43 70.39 98.65 C 69.69 97.78 69.28 96.78 69.17 95.65 C 75.96 104.28 87.11 109.02 98.04 107.98 C 102.80 107.45 107.46 105.97 111.59 103.53 C 113.24 102.50 114.83 101.36 116.33 100.12 C 119.44 97.39 122.03 94.09 123.96 90.42 C 125.11 88.04 126.02 85.53 126.64 82.96 C 127.34 79.49 127.52 75.92 127.10 72.40 C 126.86 70.52 126.52 68.65 126.12 66.79 Z" />
</g>
<g id="#8628cfff">
<path fill="#8628cf" opacity="1.00" d=" M 37.26 56.99 L 37.91 56.72 C 41.41 58.43 44.68 60.56 47.71 63.00 C 47.34 64.40 47.00 65.80 46.71 67.22 C 42.86 66.49 39.02 65.74 35.18 64.97 C 35.79 62.30 36.06 59.50 37.26 56.99 Z" />
</g>
<g id="#00000041">
<path fill="#000000" opacity="0.25" d=" M 154.28 56.61 C 154.61 56.98 155.28 57.73 155.62 58.11 C 158.73 68.44 159.70 79.58 157.28 90.17 C 153.87 107.09 143.18 122.59 128.06 131.09 C 119.01 136.48 108.49 139.21 98.00 139.54 C 90.74 139.80 83.71 137.41 76.48 137.39 C 75.04 142.16 76.33 147.10 75.90 151.96 C 75.45 157.05 76.52 162.47 74.25 167.26 C 71.63 173.02 66.40 177.81 60.09 179.09 C 52.93 180.79 45.12 178.25 40.03 173.03 C 38.84 171.94 38.41 170.36 38.00 168.86 C 44.20 177.10 56.68 179.64 65.34 173.82 C 69.30 171.12 72.30 167.13 73.75 162.56 C 75.01 156.48 74.30 150.24 74.47 144.08 C 74.47 140.76 74.48 137.44 74.48 134.11 C 81.32 135.39 88.19 136.65 95.16 136.87 C 102.76 137.10 110.35 135.67 117.46 132.99 C 121.25 131.55 124.91 129.75 128.35 127.61 C 131.50 125.62 134.50 123.38 137.25 120.86 C 138.38 119.79 139.50 118.69 140.56 117.55 C 143.03 114.86 145.27 111.97 147.25 108.90 C 148.91 106.24 150.42 103.48 151.72 100.62 C 153.43 96.67 154.79 92.56 155.72 88.35 C 158.16 77.85 157.14 66.91 154.28 56.61 Z" />
</g>
<g id="#7651e9ff">
<path fill="#7651e9" opacity="1.00" d=" M 66.95 58.63 C 70.79 60.00 74.36 62.00 77.59 64.48 C 76.37 66.55 75.42 68.77 74.75 71.08 C 72.07 68.16 68.52 66.37 64.94 64.80 L 64.64 64.14 C 64.73 62.13 66.19 60.45 66.95 58.63 Z" />
</g>
<g id="#4893f3ff">
<path fill="#4893f3" opacity="1.00" d=" M 110.45 58.65 C 116.37 62.77 121.75 67.59 127.10 72.40 C 127.52 75.92 127.34 79.49 126.64 82.96 C 122.54 79.52 119.15 75.35 115.12 71.84 C 114.16 68.17 112.51 64.63 109.86 61.89 L 109.32 61.33 C 109.60 60.66 110.17 59.32 110.45 58.65 Z" />
</g>
<g id="#9721d2ff">
<path fill="#9721d2" opacity="1.00" d=" M 35.18 64.97 C 39.02 65.74 42.86 66.49 46.71 67.22 C 46.16 70.35 45.93 73.54 45.97 76.72 C 42.98 75.00 39.49 74.68 36.14 74.16 C 35.42 74.79 34.71 75.42 33.99 76.06 C 34.22 72.35 34.60 68.65 35.18 64.97 Z" />
</g>
<g id="#963bdfff">
<path fill="#963bdf" opacity="1.00" d=" M 64.28 64.98 L 64.94 64.80 C 68.52 66.37 72.07 68.16 74.75 71.08 C 73.97 74.85 74.05 78.83 75.43 82.45 C 76.46 85.36 78.30 87.91 80.36 90.18 C 79.17 91.05 77.97 91.91 76.76 92.76 C 72.42 90.39 68.55 87.16 63.85 85.47 C 62.07 78.84 61.48 71.39 64.28 64.98 Z" />
</g>
<g id="#5789efff">
<path fill="#5789ef" opacity="1.00" d=" M 115.12 71.84 C 119.15 75.35 122.54 79.52 126.64 82.96 C 126.02 85.53 125.11 88.04 123.96 90.42 C 120.62 87.40 118.02 83.69 114.82 80.54 C 115.39 77.67 115.50 74.73 115.12 71.84 Z" />
</g>
<g id="#b01dd6ff">
<path fill="#b01dd6" opacity="1.00" d=" M 33.99 76.06 C 34.71 75.42 35.42 74.79 36.14 74.16 C 39.49 74.68 42.98 75.00 45.97 76.72 C 46.07 82.01 47.00 87.28 48.87 92.23 C 50.34 96.43 52.45 100.39 54.97 104.05 C 53.39 104.76 51.71 105.34 49.97 104.85 C 49.42 105.41 48.88 105.99 48.34 106.56 C 48.18 106.11 47.86 105.20 47.70 104.75 C 43.89 105.76 40.00 104.52 36.35 103.43 C 35.07 103.19 34.63 101.89 34.08 100.89 C 33.91 92.61 33.65 84.33 33.99 76.06 Z" />
</g>
<g id="#41b0f5ff">
<path fill="#41b0f5" opacity="1.00" d=" M 145.16 74.87 C 147.64 80.07 150.96 84.98 155.72 88.35 C 154.79 92.56 153.43 96.67 151.72 100.62 C 147.37 99.26 145.37 94.74 142.47 91.61 C 144.32 86.23 145.11 80.54 145.16 74.87 Z" />
</g>
<g id="#6d78e8ff">
<path fill="#6d78e8" opacity="1.00" d=" M 114.82 80.54 C 118.02 83.69 120.62 87.40 123.96 90.42 C 122.03 94.09 119.44 97.39 116.33 100.12 C 113.74 97.03 111.20 93.90 108.69 90.74 C 111.57 87.93 113.67 84.39 114.82 80.54 Z" />
</g>
<g id="#aa35d6ff">
<path fill="#aa35d6" opacity="1.00" d=" M 63.85 85.47 C 68.55 87.16 72.42 90.39 76.76 92.76 C 77.97 91.91 79.17 91.05 80.36 90.18 C 83.01 92.70 86.26 94.50 89.72 95.64 C 92.47 99.70 96.10 103.02 99.48 106.53 C 99.00 107.01 98.52 107.50 98.04 107.98 C 87.11 109.02 75.96 104.28 69.17 95.65 C 66.80 92.61 65.10 89.11 63.85 85.47 Z" />
</g>
<g id="#8364e2ff">
<path fill="#8364e2" opacity="1.00" d=" M 103.34 94.38 C 105.24 93.35 107.04 92.14 108.69 90.74 C 111.20 93.90 113.74 97.03 116.33 100.12 C 114.83 101.36 113.24 102.50 111.59 103.53 C 108.88 100.45 106.13 97.39 103.34 94.38 Z" />
</g>
<g id="#50a2efff">
<path fill="#50a2ef" opacity="1.00" d=" M 138.50 100.32 C 140.05 97.52 141.40 94.62 142.47 91.61 C 145.37 94.74 147.37 99.26 151.72 100.62 C 150.42 103.48 148.91 106.24 147.25 108.90 C 144.30 106.08 141.36 103.24 138.50 100.32 Z" />
</g>
<g id="#974fdbff">
<path fill="#974fdb" opacity="1.00" d=" M 89.72 95.64 C 94.26 96.67 99.08 96.30 103.34 94.38 C 106.13 97.39 108.88 100.45 111.59 103.53 C 107.46 105.97 102.80 107.45 98.04 107.98 C 98.52 107.50 99.00 107.01 99.48 106.53 C 96.10 103.02 92.47 99.70 89.72 95.64 Z" />
</g>
<g id="#be1fcfff">
<path fill="#be1fcf" opacity="1.00" d=" M 34.08 100.89 C 34.63 101.89 35.07 103.19 36.35 103.43 C 40.00 104.52 43.89 105.76 47.70 104.75 C 47.86 105.20 48.18 106.11 48.34 106.56 C 48.88 105.99 49.42 105.41 49.97 104.85 C 51.71 105.34 53.39 104.76 54.97 104.05 C 59.07 109.83 64.37 114.74 70.45 118.38 C 69.55 119.10 68.65 119.82 67.75 120.54 C 66.32 119.67 64.92 118.54 63.17 118.50 C 58.51 118.25 54.02 116.71 49.34 116.74 C 47.74 115.46 46.14 114.20 44.55 112.92 C 44.55 115.98 44.54 119.05 44.55 122.11 C 41.47 120.46 38.28 118.99 34.98 117.84 C 34.70 119.99 34.43 122.15 34.27 124.31 L 34.18 123.54 C 33.98 115.99 34.34 108.44 34.08 100.89 Z" />
</g>
<g id="#628ee4ff">
<path fill="#628ee4" opacity="1.00" d=" M 131.44 109.78 C 134.14 106.91 136.52 103.72 138.50 100.32 C 141.36 103.24 144.30 106.08 147.25 108.90 C 145.27 111.97 143.03 114.86 140.56 117.55 C 137.29 115.24 134.19 112.69 131.44 109.78 Z" />
</g>
<g id="#7577d8ff">
<path fill="#7577d8" opacity="1.00" d=" M 127.14 113.78 C 128.63 112.51 130.08 111.18 131.44 109.78 C 134.19 112.69 137.29 115.24 140.56 117.55 C 139.50 118.69 138.38 119.79 137.25 120.86 C 133.53 119.05 130.07 116.72 127.14 113.78 Z" />
</g>
<g id="#0000002d">
<path fill="#000000" opacity="0.18" d=" M 44.55 112.92 C 46.14 114.20 47.74 115.46 49.34 116.74 C 52.60 119.43 55.85 122.16 59.16 124.79 C 60.95 126.26 62.98 127.65 63.86 129.89 C 57.38 127.27 53.74 120.14 46.83 118.45 C 46.22 129.27 46.77 140.12 46.54 150.95 C 46.35 155.41 46.85 159.86 47.78 164.22 C 42.99 159.46 44.98 152.30 44.54 146.30 C 44.55 142.32 44.56 138.34 44.54 134.36 C 44.55 130.28 44.56 126.19 44.55 122.11 C 44.54 119.05 44.55 115.98 44.55 112.92 Z" />
</g>
<g id="#8760ccff">
<path fill="#8760cc" opacity="1.00" d=" M 118.66 119.47 C 121.64 117.82 124.48 115.92 127.14 113.78 C 130.07 116.72 133.53 119.05 137.25 120.86 C 134.50 123.38 131.50 125.62 128.35 127.61 C 125.23 124.77 121.95 122.11 118.66 119.47 Z" />
</g>
<g id="#c723c7ff">
<path fill="#c723c7" opacity="1.00" d=" M 49.34 116.74 C 54.02 116.71 58.51 118.25 63.17 118.50 C 64.92 118.54 66.32 119.67 67.75 120.54 C 68.65 119.82 69.55 119.10 70.45 118.38 C 76.05 121.67 82.30 123.85 88.73 124.77 C 90.21 127.59 91.84 130.40 94.24 132.56 C 93.94 133.06 93.64 133.57 93.35 134.08 C 93.95 135.01 94.56 135.94 95.16 136.87 C 88.19 136.65 81.32 135.39 74.48 134.11 C 74.48 137.44 74.47 140.76 74.47 144.08 C 70.12 142.23 64.54 140.43 64.06 134.88 C 64.00 133.21 63.98 131.55 63.86 129.89 C 62.98 127.65 60.95 126.26 59.16 124.79 C 55.85 122.16 52.60 119.43 49.34 116.74 Z" />
</g>
<g id="#d326aaff">
<path fill="#d326aa" opacity="1.00" d=" M 34.98 117.84 C 38.28 118.99 41.47 120.46 44.55 122.11 C 44.56 126.19 44.55 130.28 44.54 134.36 C 40.31 132.13 34.24 130.09 34.27 124.31 C 34.43 122.15 34.70 119.99 34.98 117.84 Z" />
</g>
<g id="#a043bfff">
<path fill="#a043bf" opacity="1.00" d=" M 108.36 123.55 C 111.91 122.54 115.38 121.19 118.66 119.47 C 121.95 122.11 125.23 124.77 128.35 127.61 C 124.91 129.75 121.25 131.55 117.46 132.99 C 114.57 129.70 111.20 126.88 108.36 123.55 Z" />
</g>
<g id="#e82e84ff">
<path fill="#e82e84" opacity="1.00" d=" M 34.18 123.54 L 34.27 124.31 C 34.24 130.09 40.31 132.13 44.54 134.36 C 44.56 138.34 44.55 142.32 44.54 146.30 C 41.52 144.00 38.53 141.64 35.46 139.41 C 35.13 139.80 34.46 140.59 34.13 140.98 C 34.12 135.17 34.06 129.35 34.18 123.54 Z" />
</g>
<g id="#bb2cbfff">
<path fill="#bb2cbf" opacity="1.00" d=" M 88.73 124.77 C 95.27 125.60 101.97 125.24 108.36 123.55 C 111.20 126.88 114.57 129.70 117.46 132.99 C 110.35 135.67 102.76 137.10 95.16 136.87 C 94.56 135.94 93.95 135.01 93.35 134.08 C 93.64 133.57 93.94 133.06 94.24 132.56 C 91.84 130.40 90.21 127.59 88.73 124.77 Z" />
</g>
<g id="#e02ba0ff">
<path fill="#e02ba0" opacity="1.00" d=" M 64.06 134.88 C 64.54 140.43 70.12 142.23 74.47 144.08 C 74.30 150.24 75.01 156.48 73.75 162.56 C 70.15 161.07 67.82 157.63 64.10 156.34 C 64.03 149.19 64.07 142.03 64.06 134.88 Z" />
</g>
<g id="#fe3661ff">
<path fill="#fe3661" opacity="1.00" d=" M 35.46 139.41 C 38.53 141.64 41.52 144.00 44.54 146.30 C 44.98 152.30 42.99 159.46 47.78 164.22 C 50.88 166.56 54.97 167.09 58.61 165.77 C 60.43 168.78 62.71 171.47 65.34 173.82 C 56.68 179.64 44.20 177.10 38.00 168.86 C 32.17 160.72 34.77 150.28 34.13 140.98 C 34.46 140.59 35.13 139.80 35.46 139.41 Z" />
</g>
<g id="#f63375ff">
<path fill="#f63375" opacity="1.00" d=" M 64.10 156.34 C 67.82 157.63 70.15 161.07 73.75 162.56 C 72.30 167.13 69.30 171.12 65.34 173.82 C 62.71 171.47 60.43 168.78 58.61 165.77 C 62.01 163.86 64.13 160.26 64.10 156.34 Z" />
</g>
</svg>
