<svg width="64" height="64" viewBox="0 0 64 64" fill="none" xmlns="http://www.w3.org/2000/svg">
<path d="M18.0009 13.1254C18.4384 9.18764 22.1647 7.05383 25.642 7.01166C34.5337 6.99759 43.4219 7.00814 52.3099 7.00111C56.2893 6.93082 59.9914 10.2065 59.9989 13.9602C60.0027 19.3623 59.9952 24.7643 59.9989 30.1664C60.0036 32.3766 59.1285 34.0693 57.8159 35.4393C56.5033 36.8093 55.1907 37.6269 54.3157 37.6269C51.5107 37.6269 47.9342 37.6339 45.1276 37.6269C41.1819 41.7462 38.0186 45.8243 34.1328 49.9998C33.7431 50.3899 33.3235 50.78 32.7801 50.9698C31.3674 51.3951 29.8836 50.0911 29.966 48.7696C29.9398 44.9808 29.9698 41.1884 29.9511 37.3996C28.0026 37.3785 26.1359 37.3152 24.1056 37.3152C22.8137 37.3152 21.655 36.3487 20.7032 35.4665C19.4143 34.4157 18.6161 32.9289 18.2751 31.372C17.1258 31.372 16.2508 31.372 14.5007 31.372C12.7506 31.372 11.1445 31.372 9.94539 31.5863C8.89621 32.1311 8.29667 33.2594 8.30042 34.3665C8.29293 36.3628 8.28543 38.3627 8.30416 40.359C8.30042 41.8563 9.5407 43.2621 11.1445 43.4413C12.1 43.596 13.3102 43.4343 13.9098 44.3201C15.1651 45.9262 16.3266 47.5887 17.5257 49.2301C17.4957 47.8031 17.4059 46.3761 17.4583 44.9491C17.7206 44.0459 18.6349 43.3535 19.6504 43.4097C21.5127 43.4835 23.4012 43.2832 25.2447 43.5328C26.8372 43.835 27.2757 46.0949 25.9604 46.935C24.8026 47.8523 23.1763 47.3814 21.7974 47.4973C21.8087 50.1509 21.8199 52.8045 21.7974 55.4545C21.8573 56.4809 20.973 57.2435 20.0962 57.7005C19.0958 57.957 18.2751 57.2295 17.6981 56.5652C15.4723 53.6094 13.3515 50.5832 11.1257 47.6308C8.70885 47.1177 6.23952 46.0106 5.05545 43.842C3.42921 41.2904 4.21985 38.2326 4.02874 35.4243C3.87886 33.5756 4.30977 31.6777 5.46763 30.1594C6.89152 28.2685 9.33086 27.0875 11.7964 27.1016C13.8386 27.0981 15.9588 27.1086 18.0009 27.1016C18.0459 22.3286 18.0009 17.9382 18.0009 13.1254C18.0796 13.1219 17.9222 13.1289 18.0009 13.1254ZM22.4194 14.3081C22.4194 19.5942 22.412 24.8804 22.4232 30.1699C22.4044 31.8007 23.8883 33.2558 25.6195 33.3507C27.9014 33.3859 30.1946 33.421 32.4728 33.2172C33.4846 33.5018 34.3052 34.3594 34.3127 35.3858C34.3539 38.1096 34.3464 40.8335 34.2977 43.5574C36.8307 40.8862 39.2701 38.1377 41.7619 35.4279C42.53 34.616 43.227 33.6319 44.3586 33.2347C45.7375 33.0836 47.1314 33.175 48.5141 33.1609C50.1965 33.175 51.9539 33.6846 53.5876 33.1117C55.0003 32.6196 55.8659 31.1927 55.7685 29.8044C55.7535 24.6378 55.7685 19.4712 55.7573 14.3081C55.8246 12.5508 54.1535 10.9481 52.2687 11.0219C43.4219 11.0254 34.5787 11.0149 25.7318 11.0219C23.9033 11.0289 22.3445 12.6 22.4194 14.3081Z" fill="url(#paint0_linear_644_90)"/>
<path d="M18.0009 13.1254C18.4384 9.18764 22.1647 7.05383 25.642 7.01166C34.5337 6.99759 43.4219 7.00814 52.3099 7.00111C56.2893 6.93082 59.9914 10.2065 59.9989 13.9602C60.0027 19.3623 59.9952 24.7643 59.9989 30.1664C60.0036 32.3766 59.1285 34.0693 57.8159 35.4393C56.5033 36.8093 55.1907 37.6269 54.3157 37.6269C51.5107 37.6269 47.9342 37.6339 45.1276 37.6269C41.1819 41.7462 38.0186 45.8243 34.1328 49.9998C33.7431 50.3899 33.3235 50.78 32.7801 50.9698C31.3674 51.3951 29.8836 50.0911 29.966 48.7696C29.9398 44.9808 29.9698 41.1884 29.9511 37.3996C28.0026 37.3785 26.1359 37.3152 24.1056 37.3152C22.8137 37.3152 21.655 36.3487 20.7032 35.4665C19.4143 34.4157 18.6161 32.9289 18.2751 31.372C17.1258 31.372 16.2508 31.372 14.5007 31.372C12.7506 31.372 11.1445 31.372 9.94539 31.5863C8.89621 32.1311 8.29667 33.2594 8.30042 34.3665C8.29293 36.3628 8.28543 38.3627 8.30416 40.359C8.30042 41.8563 9.5407 43.2621 11.1445 43.4413C12.1 43.596 13.3102 43.4343 13.9098 44.3201C15.1651 45.9262 16.3266 47.5887 17.5257 49.2301C17.4957 47.8031 17.4059 46.3761 17.4583 44.9491C17.7206 44.0459 18.6349 43.3535 19.6504 43.4097C21.5127 43.4835 23.4012 43.2832 25.2447 43.5328C26.8372 43.835 27.2757 46.0949 25.9604 46.935C24.8026 47.8523 23.1763 47.3814 21.7974 47.4973C21.8087 50.1509 21.8199 52.8045 21.7974 55.4545C21.8573 56.4809 20.973 57.2435 20.0962 57.7005C19.0958 57.957 18.2751 57.2295 17.6981 56.5652C15.4723 53.6094 13.3515 50.5832 11.1257 47.6308C8.70885 47.1177 6.23952 46.0106 5.05545 43.842C3.42921 41.2904 4.21985 38.2326 4.02874 35.4243C3.87886 33.5756 4.30977 31.6777 5.46763 30.1594C6.89152 28.2685 9.33086 27.0875 11.7964 27.1016C13.8386 27.0981 15.9588 27.1086 18.0009 27.1016C18.0459 22.3286 18.0009 17.9382 18.0009 13.1254ZM18.0009 13.1254C17.9222 13.1289 18.0796 13.1219 18.0009 13.1254ZM22.4194 14.3081C22.4194 19.5942 22.412 24.8804 22.4232 30.1699C22.4044 31.8007 23.8883 33.2558 25.6195 33.3507C27.9014 33.3859 30.1946 33.421 32.4728 33.2172C33.4846 33.5018 34.3052 34.3594 34.3127 35.3858C34.3539 38.1096 34.3464 40.8335 34.2977 43.5574C36.8307 40.8862 39.2701 38.1377 41.7619 35.4279C42.53 34.616 43.227 33.6319 44.3586 33.2347C45.7375 33.0836 47.1314 33.175 48.5141 33.1609C50.1965 33.175 51.9539 33.6846 53.5876 33.1117C55.0003 32.6196 55.8659 31.1927 55.7685 29.8044C55.7535 24.6378 55.7685 19.4712 55.7573 14.3081C55.8246 12.5508 54.1535 10.9481 52.2687 11.0219C43.4219 11.0254 34.5787 11.0149 25.7318 11.0219C23.9033 11.0289 22.3445 12.6 22.4194 14.3081Z" stroke="url(#paint1_linear_644_90)" stroke-width="2"/>
<defs>
<linearGradient id="paint0_linear_644_90" x1="32" y1="57.7532" x2="32" y2="7" gradientUnits="userSpaceOnUse">
<stop stop-color="#A93AFF"/>
<stop offset="1" stop-color="#FF81FF"/>
</linearGradient>
<linearGradient id="paint1_linear_644_90" x1="32" y1="57.7532" x2="32" y2="7" gradientUnits="userSpaceOnUse">
<stop stop-color="#A93AFF"/>
<stop offset="1" stop-color="#FF81FF"/>
</linearGradient>
</defs>
</svg>
