<svg width="192" height="192" viewBox="0 0 192 192" fill="none" xmlns="http://www.w3.org/2000/svg">
<path d="M122.088 11.036C134.02 6.31314 148.059 7.12402 159.288 13.3043C171.186 19.6708 179.437 31.8122 181.523 44.885C183.552 56.8619 179.928 69.5402 172.2 78.9531C161.038 92.9244 140.51 98.7869 123.56 92.4313C122.59 93.6695 120.806 94.5571 120.706 96.2666C121.419 97.187 122.166 98.0965 122.947 98.9841C135.258 94.5681 149.52 96.2227 160.626 102.984C171.063 109.449 178.813 120.232 180.976 132.23C182.916 143.791 181.01 156.305 173.996 165.992C167.294 175.142 157.214 182.144 145.884 184.379C127.418 187.031 107.18 178.276 98.3926 161.74C92.6164 150.881 91.4902 137.676 95.6049 126.083C94.5902 125.075 93.5754 124.067 92.5607 123.059C82.5249 133.052 72.4333 142.98 62.3975 152.963C57.7364 157.839 51.7595 161.861 44.8683 162.682C35.7691 163.712 26.9041 160.765 17.9834 159.537C14.1587 159.242 10.7465 156.064 10.9472 152.163C10.936 148.854 13.7907 146.717 15.9205 144.558C32.3123 128.428 48.6373 112.221 65.0068 96.0584C48.4254 79.5119 31.6767 63.1299 15.0284 46.6601C13.0659 44.6001 10.5904 42.8249 9.37492 40.2059C7.76919 36.272 11.5828 31.6697 15.8424 32.371C19.7453 34.7599 22.7672 38.2664 26.2797 41.1483C42.5935 56.8619 58.5393 72.9372 74.7527 88.7604C76.771 90.8095 79.2131 93.1107 78.9677 96.2337C79.0235 99.028 76.8268 101.044 75.0426 102.918C59.3644 118.314 43.8647 133.885 28.1419 149.237C33.8289 150.092 39.7388 152.218 45.4704 150.431C49.6185 149.171 52.5512 145.873 55.5062 142.947C65.4863 133.019 75.5444 123.157 85.5022 113.197C87.4424 111.257 89.851 109.285 92.806 109.482C97.679 109.854 100.433 114.391 103.779 117.295C106.979 120.056 109.376 124.385 107.592 128.592C102.15 141.413 106.131 157.784 117.717 166.057C124.943 171.273 134.232 173.673 143.119 172.808C155.418 170.353 166.346 160.578 168.866 148.317C170.896 138.783 169.112 128.275 162.733 120.615C155.541 111.136 142.628 106.611 130.909 109.065C126.493 110.205 121.341 112.868 117.171 109.602C113.513 106.523 109.934 103.192 107.079 99.3567C104.882 95.7515 106.912 91.4341 109.99 89.0563C113.134 86.3168 115.61 82.7116 119.345 80.7063C122.702 79.1613 126.236 80.9145 129.493 81.8679C139.194 84.9251 150.244 82.3939 158.072 76.1369C164.752 70.8333 169.056 62.823 169.903 54.4402C171.041 41.5866 163.681 28.2289 151.661 22.7609C140.409 17.4135 126.047 19.5832 116.903 27.955C108.908 35.1434 104.526 46.3533 106.823 56.9167C107.548 61.3328 110.469 66.1214 107.614 70.3621C104.693 73.9782 101.08 77.0245 97.8016 80.3228C94.9581 83.4129 89.7841 83.0294 87.1079 79.9174C75.2656 68.2143 63.6018 56.3141 51.57 44.7973C49.0052 42.2222 45.1359 41.6853 42.3816 39.4389C38.8468 35.9433 41.9579 29.1385 46.9981 29.6316C52.4955 30.4534 57.2569 33.7517 61.1932 37.4555C71.7531 47.7998 82.2461 58.2207 92.6834 68.6746C93.9211 67.4035 95.17 66.1323 96.4301 64.8722C93.5197 55.536 93.3859 45.2137 97.1103 36.0748C101.504 24.8649 110.636 15.4082 122.088 11.036Z" fill="#FF673B"/>
<path d="M131.098 34.2996C140.933 30.4424 153.121 36.7104 155.262 46.945C158.318 57.4756 149.598 69.332 138.424 69.595C129.426 70.3511 120.817 63.3929 119.546 54.6594C117.84 46.3095 122.802 37.0829 131.098 34.2996ZM135.659 43.2632C129.136 44.4357 127.106 53.5527 132.024 57.6509C136.016 61.5848 143.331 59.5905 145.148 54.4841C147.892 48.7202 141.937 41.5757 135.659 43.2632Z" fill="#FF673B"/>
<path d="M142.216 118.456C146.91 115.531 153.723 119.311 153.69 124.735C154.203 130.137 147.68 134.564 142.773 131.913C137.187 129.677 136.863 121.13 142.216 118.456Z" fill="#FF673B"/>
<path d="M121.074 120.889C126.616 118.423 133.139 124.143 131.355 129.831C130.284 135.31 122.49 137.359 118.598 133.458C114.561 129.951 115.966 122.642 121.074 120.889Z" fill="#FF673B"/>
<path d="M135.391 137.052C138.636 135.321 142.762 138.794 141.513 142.202C140.744 145.851 134.912 146.443 133.418 143.024C132.158 140.953 133.228 138.071 135.391 137.052Z" fill="#FF673B"/>
<path d="M152.341 137.501C157.637 134.553 164.707 139.758 163.369 145.577C162.644 151.22 154.861 153.971 150.702 149.982C146.609 146.717 147.557 139.649 152.341 137.501Z" fill="#FF673B"/>
<path d="M117.818 141.731C122.891 140.054 128.489 144.799 127.619 149.971C127.106 155.395 119.947 158.683 115.543 155.209C110.302 151.955 111.796 143.155 117.818 141.731Z" fill="#FF673B"/>
<path d="M136.506 152.327C141.19 149.785 147.568 153.5 147.613 158.738C148.193 164.523 140.822 168.983 135.904 165.608C130.808 162.814 131.165 154.65 136.506 152.327Z" fill="#FF673B"/>
</svg>
