<svg width="128" height="128" viewBox="0 0 128 128" fill="none" xmlns="http://www.w3.org/2000/svg">
<g clip-path="url(#clip0)">
<path d="M127.37 69.67L112.37 47.17C110.978 45.0825 107.521 45.0825 106.13 47.17L91.1295 69.67C90.364 70.82 90.291 72.2995 90.9428 73.519C91.5945 74.7385 92.8655 75.5 94.2498 75.5H97.78C96.4835 86.0323 89.1805 92.6057 75.2498 96.2862V53H86.4998C88.5725 53 90.2498 51.3228 90.2498 49.25C90.2498 47.1772 88.5725 45.5 86.4998 45.5H75.2498V33.673C79.9263 30.205 82.7498 24.668 82.7498 18.75C82.7498 8.41175 74.338 0 63.9998 0C53.6615 0 45.2498 8.41175 45.2498 18.75C45.2498 24.668 48.0733 30.205 52.7498 33.673V45.5H41.4998C39.427 45.5 37.7498 47.1772 37.7498 49.25C37.7498 51.3228 39.427 53 41.4998 53H52.7498V96.2862C38.819 92.6057 31.5158 86.0323 30.2195 75.5H33.7498C35.134 75.5 36.4048 74.7383 37.0568 73.5188C37.7088 72.2993 37.6353 70.8197 36.87 69.6697L21.87 47.1698C20.4785 45.0823 17.0213 45.0823 15.6298 47.1698L0.629792 69.6697C-0.135708 70.8197 -0.208708 72.2993 0.443042 73.5188C1.09479 74.7383 2.36554 75.5 3.74979 75.5H7.63154C9.52479 102.098 31.8098 111.264 46.612 117.424C52.541 119.888 58.1403 122.221 59.7113 124.576L60.8795 126.33C61.5753 127.374 62.7435 128 63.9995 128C65.2555 128 66.4238 127.374 67.1195 126.33L68.2878 124.576C69.8588 122.221 75.4583 119.892 81.3835 117.427C96.1858 111.268 118.474 102.098 120.368 75.4997H124.25C125.634 75.4997 126.905 74.738 127.557 73.5185C128.209 72.299 128.135 70.8197 127.37 69.67ZM116.75 68C114.677 68 113 69.6772 113 71.75C113 96.2533 93.7618 104.152 78.5053 110.503C72.342 113.066 67.226 115.194 63.9998 118.164C60.7735 115.19 55.6575 113.063 49.4905 110.499C34.2378 104.152 14.9998 96.2533 14.9998 71.75C14.9998 69.6772 13.3225 68 11.2498 68H10.7553L18.7498 56.0103L26.7443 68H26.2498C24.177 68 22.4998 69.6772 22.4998 71.75C22.4998 89.4233 33.5458 100.194 55.76 104.676C56.8588 104.9 58.0013 104.614 58.8765 103.9C59.7445 103.189 60.2498 102.124 60.2498 100.999V31.648C60.2498 30.2968 59.5248 29.0515 58.349 28.385C54.8408 26.4003 52.7498 22.7968 52.7498 18.75C52.7498 12.5465 57.7963 7.5 63.9998 7.5C70.2033 7.5 75.2498 12.5465 75.2498 18.75C75.2498 22.7968 73.1588 26.4003 69.6505 28.385C68.475 29.0515 67.7498 30.2965 67.7498 31.648V100.999C67.7498 102.124 68.255 103.189 69.123 103.9C69.991 104.606 71.1335 104.892 72.2395 104.676C94.4538 100.194 105.5 89.4233 105.5 71.75C105.5 69.6772 103.823 68 101.75 68H101.255L109.25 56.0103L117.244 68H116.75ZM63.9998 15C61.9288 15 60.2498 16.679 60.2498 18.75C60.2498 20.821 61.9288 22.5 63.9998 22.5C66.0708 22.5 67.7498 20.821 67.7498 18.75C67.7498 16.679 66.0708 15 63.9998 15Z" fill="url(#paint0_linear)"/>
</g>
<defs>
<linearGradient id="paint0_linear" x1="0.000488281" y1="128" x2="154.448" y2="60.6835" gradientUnits="userSpaceOnUse">
<stop stop-color="#0357D1"/>
<stop offset="1" stop-color="#27CDFC"/>
</linearGradient>
<clipPath id="clip0">
<rect width="128" height="128" fill="white"/>
</clipPath>
</defs>
</svg>
