<svg width="128" height="128" viewBox="0 0 128 128" fill="none" xmlns="http://www.w3.org/2000/svg">
<path d="M81.2185 6C58.7304 6 40.4373 24.2931 40.4373 46.7812C40.4373 56.8048 44.0879 65.9808 50.1084 73.0892L45.486 77.7115L43.079 75.3063C41.7516 73.9789 39.6008 73.9789 38.2734 75.3063L6.99557 106.588C5.66814 107.915 5.66814 110.066 6.99557 111.393L16.6068 121.004C17.9342 122.332 20.0848 122.332 21.4124 121.004L52.6971 89.7232C54.0247 88.3955 54.0238 86.2443 52.6971 84.9176L50.2935 82.5156L54.914 77.895C62.0219 83.9134 71.1966 87.5625 81.2185 87.5625C103.707 87.5625 122 69.2694 122 46.7812C122 24.2931 103.707 6 81.2185 6ZM19.0095 113.796L14.2039 108.99L40.6763 82.5147L45.4885 87.3203L19.0095 113.796ZM81.2185 80.7656C62.4807 80.7656 47.2342 65.5191 47.2342 46.7812C47.2342 28.0434 62.4807 12.7969 81.2185 12.7969C99.9564 12.7969 115.203 28.0434 115.203 46.7812C115.203 65.5191 99.9564 80.7656 81.2185 80.7656ZM81.2185 19.5937C66.2242 19.5937 54.0311 31.7903 54.0311 46.7812C54.0311 61.7722 66.2242 73.9687 81.2185 73.9687C96.2129 73.9687 108.406 61.7722 108.406 46.7812C108.406 31.7903 96.2129 19.5937 81.2185 19.5937ZM81.2185 67.1718C69.9745 67.1718 60.8279 58.0253 60.8279 46.7812C60.8279 35.5372 69.9745 26.3906 81.2185 26.3906C92.4626 26.3906 101.609 35.5372 101.609 46.7812C101.609 58.0253 92.4626 67.1718 81.2185 67.1718Z" fill="url(#paint0_linear_678_353)" stroke="url(#paint1_linear_678_353)" stroke-width="3"/>
<defs>
<linearGradient id="paint0_linear_678_353" x1="11.8012" y1="116.199" x2="110.042" y2="17.9575" gradientUnits="userSpaceOnUse">
<stop stop-color="#5558FF"/>
<stop offset="1" stop-color="#00C0FF"/>
</linearGradient>
<linearGradient id="paint1_linear_678_353" x1="11.8012" y1="116.199" x2="110.042" y2="17.9575" gradientUnits="userSpaceOnUse">
<stop stop-color="#5558FF"/>
<stop offset="1" stop-color="#00C0FF"/>
</linearGradient>
</defs>
</svg>
