<svg width="64" height="64" viewBox="0 0 64 64" fill="none" xmlns="http://www.w3.org/2000/svg">
<path d="M60 32.0001C60 35.3567 59.4092 38.5749 58.3257 41.5574C57.5726 43.6305 56.5818 45.5904 55.384 47.4033C54.8824 48.1656 54.3429 48.9017 53.7703 49.6091C51.9372 51.8731 49.7588 53.8445 47.3132 55.4446C46.4126 56.0343 45.4766 56.5738 44.5075 57.0572C40.7443 58.9404 36.4962 59.9999 31.9999 59.9999C27.504 59.9999 23.2558 58.9404 19.4923 57.0571C18.5232 56.5736 17.586 56.0342 16.6854 55.4446C14.2088 53.8229 12.0044 51.8204 10.1564 49.5189C9.58278 48.8058 9.04447 48.0629 8.54272 47.2939C7.37698 45.5111 6.41136 43.5875 5.67309 41.5545C4.58977 38.5727 4 35.3557 4 32C4 16.5356 16.5355 4 31.9999 4C39.7623 4 46.7858 7.15886 51.8584 12.2604C53.3201 13.73 54.6196 15.3621 55.7256 17.1265C56.7713 18.7882 57.6456 20.5687 58.3256 22.4417C59.4092 25.4246 60 28.6429 60 31.9991V32.0001Z" stroke="url(#paint0_linear_642_2)" stroke-width="6"/>
<path d="M34.4252 16.9036C34.4252 15.8528 35.278 15 36.3288 15C37.3795 15 38.2324 15.8528 38.2324 16.9036C38.2324 17.9544 37.3796 18.8072 36.3288 18.8072C35.2781 18.8072 34.4252 17.9544 34.4252 16.9036Z" stroke="url(#paint1_linear_642_2)" stroke-width="5" stroke-linecap="round"/>
<path d="M43.8185 20.7109C43.8185 19.6601 44.6713 18.8072 45.7221 18.8072C46.7729 18.8072 47.6257 19.6601 47.6257 20.7109C47.6257 21.7617 46.773 22.6145 45.7221 22.6145C44.6713 22.6145 43.8185 21.7617 43.8185 20.7109Z" stroke="url(#paint2_linear_642_2)" stroke-width="5" stroke-linecap="round"/>
<path d="M22.2225 23.5426C24.1994 21.8968 26.42 20.9841 27.8731 20.9001C28.3589 20.8634 28.7648 20.9356 29.0477 21.0954C30.2393 21.7681 30.2647 23.1273 29.3332 23.7669C27.0627 25.3038 25.036 29.6645 27.2861 32.6888C29.9386 36.2536 34.4401 34.7803 36.7651 34.5112C38.6915 34.2903 41.7197 35.3982 42.8225 39.3667C43.1285 40.4644 43.1932 45.018 38.8299 47.2733C35.5878 48.9548 26.0145 50.3369 19.4558 43.3821C12.6491 36.1638 17.151 27.756 22.2225 23.5426Z" stroke="url(#paint3_linear_642_2)" stroke-width="5" stroke-linecap="round"/>
<defs>
<linearGradient id="paint0_linear_642_2" x1="32" y1="59.9999" x2="32" y2="4" gradientUnits="userSpaceOnUse">
<stop stop-color="#5558FF"/>
<stop offset="1" stop-color="#00C0FF"/>
</linearGradient>
<linearGradient id="paint1_linear_642_2" x1="31.2307" y1="48.638" x2="31.2307" y2="18.1665" gradientUnits="userSpaceOnUse">
<stop stop-color="#5570FF"/>
<stop offset="1" stop-color="#4DD3FF"/>
</linearGradient>
<linearGradient id="paint2_linear_642_2" x1="31.2307" y1="48.638" x2="31.2307" y2="18.1665" gradientUnits="userSpaceOnUse">
<stop stop-color="#5570FF"/>
<stop offset="1" stop-color="#4DD3FF"/>
</linearGradient>
<linearGradient id="paint3_linear_642_2" x1="31.2307" y1="48.638" x2="31.2307" y2="18.1665" gradientUnits="userSpaceOnUse">
<stop stop-color="#5570FF"/>
<stop offset="1" stop-color="#4DD3FF"/>
</linearGradient>
</defs>
</svg>
