<svg width="192" height="192" viewBox="0 0 192 192" fill="none" xmlns="http://www.w3.org/2000/svg">
<path d="M35.5101 17.6202C37.9401 16.9602 40.4601 16.7302 42.9701 16.7302C76.3001 16.7402 109.64 16.7302 142.97 16.7302C147.72 16.7602 152.61 16.3802 157.2 17.9102C165.07 20.3402 171.47 26.9202 173.66 34.8602C174.79 38.4602 174.58 42.2702 174.6 45.9902C174.59 62.6402 174.6 79.3001 174.59 95.9502C174.6 112.51 169.1 128.99 159.24 142.28C147.53 158.28 129.53 169.53 110.01 172.99C92.9801 176.18 74.9201 173.45 59.5701 165.42C34.7201 152.75 17.7301 126.04 17.1801 98.1002C17.0701 79.0602 17.1201 60.0202 17.1601 40.9802C17.2101 30.2502 25.1401 20.2602 35.5101 17.6202ZM40.4301 28.6602C33.9301 29.3302 28.7001 35.4002 28.9201 41.9202C28.8401 55.2702 28.8801 68.6302 28.9901 81.9802C28.7501 93.1702 28.4101 104.64 31.9401 115.42C37.4001 133.27 50.7701 148.43 67.7001 156.24C81.7701 162.81 98.1501 164.18 113.13 160.16C128.02 156.24 141.4 146.93 150.32 134.39C158.29 123.3 162.69 109.72 162.78 96.0702C162.82 78.0202 162.81 59.9702 162.79 41.9202C163.12 34.6002 156.34 28.1202 149.07 28.5502C112.86 28.6202 76.6301 28.3802 40.4301 28.6602Z" fill="url(#paint0_linear_677_34)" stroke="url(#paint1_linear_677_34)" stroke-width="8"/>
<path d="M65.1307 76.04C67.8507 75.16 70.9407 76.03 72.8707 78.11C79.7607 84.91 86.5407 91.83 93.4507 98.62C94.5107 99.82 96.5907 100.12 97.7407 98.85C104.9 91.97 111.76 84.76 118.9 77.85C121.46 75.36 125.82 75.01 128.67 77.22C132.21 79.77 132.8 85.59 129.48 88.56C120.7 97.43 111.81 106.2 103.02 115.07C100.03 119.32 93.3607 120.2 89.7107 116.33C80.3807 106.97 70.9407 97.71 61.7207 88.25C58.0407 84.48 60.0207 77.35 65.1307 76.04Z" fill="url(#paint2_linear_677_34)" stroke="url(#paint3_linear_677_34)" stroke-width="8"/>
<defs>
<linearGradient id="paint0_linear_677_34" x1="95.8585" y1="16.709" x2="95.8585" y2="174.292" gradientUnits="userSpaceOnUse">
<stop stop-color="#F75050"/>
<stop offset="1" stop-color="#A00909"/>
</linearGradient>
<linearGradient id="paint1_linear_677_34" x1="95.8585" y1="16.709" x2="95.8585" y2="174.292" gradientUnits="userSpaceOnUse">
<stop stop-color="#F75050"/>
<stop offset="1" stop-color="#A00909"/>
</linearGradient>
<linearGradient id="paint2_linear_677_34" x1="95.7515" y1="75.699" x2="95.7515" y2="118.798" gradientUnits="userSpaceOnUse">
<stop stop-color="#F75050"/>
<stop offset="1" stop-color="#A00909"/>
</linearGradient>
<linearGradient id="paint3_linear_677_34" x1="95.7515" y1="75.699" x2="95.7515" y2="118.798" gradientUnits="userSpaceOnUse">
<stop stop-color="#F75050"/>
<stop offset="1" stop-color="#A00909"/>
</linearGradient>
</defs>
</svg>
