<svg width="192" height="192" viewBox="0 0 192 192" fill="none" xmlns="http://www.w3.org/2000/svg">
<path fill-rule="evenodd" clip-rule="evenodd" d="M52.986 13.0673C47.3973 12.9604 41.8056 12.8534 36.3 13.8263C23.455 16.5864 13.2603 28.6306 13.0693 41.8458C12.9825 62.8155 12.9964 83.7853 13.0103 104.755C13.0194 118.424 13.0284 132.094 13.0096 145.763C12.9379 150.913 13.5587 156.17 15.8746 160.842C20.6258 171.13 31.5966 178.096 42.9254 178.012C70.7347 178.078 98.5366 178.062 126.337 178.047C133.92 178.043 141.504 178.039 149.087 178.036C164.559 178.347 178.752 164.964 178.979 149.419C179.079 116.088 179.045 82.7481 179.011 49.4163C179.008 46.8529 179.006 44.2896 179.003 41.7263C178.788 26.6232 165.382 13.3722 150.329 13.1094C141.876 13.0436 133.422 13.0591 124.963 13.0745C122.659 13.0787 120.354 13.0829 118.049 13.0855C114.599 12.8107 111.34 15.5469 110.934 18.9642C110.254 22.6922 113.286 26.683 117.106 26.8144C122.386 26.9511 127.671 26.9222 132.956 26.8933C138.761 26.8616 144.566 26.8299 150.365 27.0175C158.423 27.4955 165.335 34.8797 165.132 42.9809C165.15 59.5118 165.15 76.0426 165.15 92.5719C165.15 109.101 165.15 125.629 165.167 142.154C165.159 142.935 165.169 143.726 165.18 144.521C165.227 148.14 165.277 151.844 163.544 155.107C160.81 160.95 154.376 164.522 148.001 164.223C135.253 164.219 122.504 164.227 109.756 164.235C87.4433 164.25 65.1306 164.264 42.818 164.211C34.3303 164.271 26.6663 156.708 26.8692 148.164C26.8692 113.095 26.8692 78.0262 26.8931 42.957C26.714 34.82 33.6737 27.4238 41.7675 26.9937C48.0647 26.8171 54.3658 26.8489 60.6685 26.8808C65.4537 26.905 70.2398 26.9292 75.0259 26.8622C77.9506 26.9936 80.744 24.9982 81.6394 22.2381C83.0719 18.4384 80.4217 13.6948 76.351 13.205C73.3851 12.9908 70.4146 13.0276 67.4452 13.0645C65.61 13.0872 63.7752 13.11 61.9422 13.0735C58.9668 13.1818 55.9768 13.1246 52.986 13.0673ZM63.8415 66.1493C62.5999 62.2899 57.61 60.426 54.1003 62.4333C52.047 63.5207 50.5429 65.6953 50.4951 68.0492C50.0415 83.0805 57.9562 97.9207 70.3953 106.273C81.1272 113.681 95.1063 115.975 107.688 112.641C127.696 107.707 143 87.621 141.424 66.9021C140.493 62.0032 133.772 59.8883 130.167 63.2936C127.858 65.33 127.696 68.2261 127.534 71.1424C127.435 72.9148 127.335 74.6948 126.753 76.2937C123.207 91.564 107.139 102.473 91.6443 99.94C79.6231 98.4106 69.0224 89.2938 65.656 77.6439C64.8825 75.4146 64.6633 73.0906 64.4441 70.7675C64.298 69.2183 64.1519 67.6694 63.8415 66.1493Z" fill="url(#paint0_linear_644_92)"/>
<path d="M36.3 13.8263L35.7779 10.8721L35.7236 10.8817L35.6697 10.8932L36.3 13.8263ZM52.986 13.0673L53.0435 10.0679L52.986 13.0673ZM13.0693 41.8458L10.0696 41.8024L10.0694 41.8179L10.0693 41.8334L13.0693 41.8458ZM13.0103 104.755L10.0103 104.757L13.0103 104.755ZM13.0096 145.763L16.0093 145.805L16.0096 145.786L16.0096 145.767L13.0096 145.763ZM15.8746 160.842L18.5982 159.584L18.5808 159.547L18.5625 159.51L15.8746 160.842ZM42.9254 178.012L42.9325 175.012L42.9178 175.012L42.9032 175.012L42.9254 178.012ZM126.337 178.047L126.338 181.047L126.338 181.047L126.337 178.047ZM149.087 178.036L149.147 175.037L149.117 175.036L149.086 175.036L149.087 178.036ZM178.979 149.419L181.979 149.463L181.979 149.445L181.979 149.428L178.979 149.419ZM179.011 49.4163L182.011 49.4132L182.011 49.4132L179.011 49.4163ZM179.003 41.7263L182.003 41.7233L182.003 41.7034L182.003 41.6836L179.003 41.7263ZM150.329 13.1094L150.381 10.1099L150.367 10.1096L150.352 10.1095L150.329 13.1094ZM124.963 13.0745L124.969 16.0745L124.963 13.0745ZM118.049 13.0855L117.811 16.076L117.931 16.0856L118.052 16.0855L118.049 13.0855ZM110.934 18.9642L113.885 19.5025L113.902 19.4108L113.913 19.3181L110.934 18.9642ZM117.106 26.8144L117.003 29.8126L117.016 29.8131L117.028 29.8134L117.106 26.8144ZM132.956 26.8933L132.973 29.8933L132.956 26.8933ZM150.365 27.0175L150.543 24.0228L150.502 24.0204L150.462 24.0191L150.365 27.0175ZM165.132 42.9809L162.133 42.9057L162.132 42.9449L162.132 42.9841L165.132 42.9809ZM165.167 142.154L168.167 142.187L168.167 142.169L168.167 142.151L165.167 142.154ZM165.18 144.521L162.18 144.561L162.18 144.561L165.18 144.521ZM163.544 155.107L160.894 153.7L160.859 153.767L160.827 153.836L163.544 155.107ZM148.001 164.223L148.142 161.226L148.072 161.223L148.002 161.223L148.001 164.223ZM109.756 164.235L109.758 167.235L109.758 167.235L109.756 164.235ZM42.818 164.211L42.8252 161.211L42.811 161.211L42.7968 161.211L42.818 164.211ZM26.8692 148.164L29.8683 148.235L29.8692 148.2V148.164H26.8692ZM26.8931 42.957L29.8931 42.959L29.8931 42.925L29.8924 42.891L26.8931 42.957ZM41.7675 26.9937L41.6834 23.9949L41.6458 23.9959L41.6083 23.9979L41.7675 26.9937ZM60.6685 26.8808L60.6534 29.8808L60.6534 29.8808L60.6685 26.8808ZM75.0259 26.8622L75.1605 23.8652L75.0723 23.8613L74.9839 23.8625L75.0259 26.8622ZM81.6394 22.2381L78.8323 21.1798L78.8075 21.2455L78.7858 21.3124L81.6394 22.2381ZM76.351 13.205L76.7094 10.2265L76.6384 10.2179L76.5671 10.2128L76.351 13.205ZM67.4452 13.0645L67.408 10.0647L67.4452 13.0645ZM61.9422 13.0735L62.0019 10.0741L61.9175 10.0724L61.8331 10.0755L61.9422 13.0735ZM54.1003 62.4333L55.5043 65.0845L55.5474 65.0617L55.5897 65.0375L54.1003 62.4333ZM63.8415 66.1493L66.7808 65.5491L66.7478 65.3875L66.6973 65.2305L63.8415 66.1493ZM50.4951 68.0492L53.4937 68.1397L53.4942 68.1249L53.4945 68.1101L50.4951 68.0492ZM70.3953 106.273L72.0995 103.804L72.0837 103.793L72.0676 103.782L70.3953 106.273ZM107.688 112.641L106.97 109.728L106.945 109.735L106.92 109.741L107.688 112.641ZM141.424 66.9021L144.416 66.6746L144.403 66.507L144.371 66.342L141.424 66.9021ZM130.167 63.2936L132.151 65.5438L132.19 65.5098L132.227 65.4745L130.167 63.2936ZM127.534 71.1424L124.538 70.9753L124.538 70.9753L127.534 71.1424ZM126.753 76.2937L123.934 75.2674L123.872 75.4381L123.831 75.6151L126.753 76.2937ZM91.6443 99.94L92.1283 96.9793L92.0757 96.9707L92.0229 96.964L91.6443 99.94ZM65.656 77.6439L68.5381 76.8111L68.5161 76.7352L68.4902 76.6605L65.656 77.6439ZM64.4441 70.7675L67.4309 70.4857L67.4309 70.4857L64.4441 70.7675ZM36.8221 16.7805C41.9921 15.8669 47.2899 15.9589 52.9286 16.0668L53.0435 10.0679C47.5047 9.96188 41.6191 9.83983 35.7779 10.8721L36.8221 16.7805ZM16.069 41.8891C16.2392 30.1149 25.409 19.235 36.9302 16.7593L35.6697 10.8932C21.501 13.9378 10.2814 27.1463 10.0696 41.8024L16.069 41.8891ZM16.0103 104.753C15.9964 83.7821 15.9826 62.8195 16.0693 41.8582L10.0693 41.8334C9.98254 62.8115 9.99643 83.7885 10.0103 104.757L16.0103 104.753ZM16.0096 145.767C16.0284 132.094 16.0194 118.422 16.0103 104.753L10.0103 104.757C10.0194 118.427 10.0284 132.093 10.0096 145.759L16.0096 145.767ZM18.5625 159.51C16.5449 155.439 15.9408 150.722 16.0093 145.805L10.0099 145.721C9.93495 151.104 10.5725 156.901 13.1867 162.174L18.5625 159.51ZM42.9032 175.012C32.7534 175.087 22.856 168.804 18.5982 159.584L13.151 162.1C18.3956 173.456 30.4398 181.105 42.9476 181.012L42.9032 175.012ZM126.335 175.047C98.5342 175.063 70.7367 175.078 42.9325 175.012L42.9183 181.012C70.7327 181.078 98.539 181.062 126.338 181.047L126.335 175.047ZM149.086 175.036C141.502 175.039 133.919 175.043 126.335 175.047L126.338 181.047C133.922 181.043 141.505 181.039 149.088 181.036L149.086 175.036ZM175.979 149.375C175.777 163.218 162.995 175.315 149.147 175.037L149.027 181.035C166.123 181.379 181.727 166.71 181.979 149.463L175.979 149.375ZM176.011 49.4194C176.045 82.7522 176.079 116.086 175.979 149.41L181.979 149.428C182.079 116.09 182.045 82.744 182.011 49.4132L176.011 49.4194ZM176.003 41.7293C176.006 44.2926 176.008 46.856 176.011 49.4194L182.011 49.4132C182.008 46.8498 182.006 44.2865 182.003 41.7233L176.003 41.7293ZM150.277 16.1089C163.733 16.3439 175.812 28.3086 176.003 41.769L182.003 41.6836C181.764 24.9378 167.031 10.4005 150.381 10.1099L150.277 16.1089ZM124.969 16.0745C133.43 16.059 141.869 16.0437 150.306 16.1093L150.352 10.1095C141.882 10.0436 133.415 10.0591 124.958 10.0745L124.969 16.0745ZM118.052 16.0855C120.359 16.0829 122.665 16.0787 124.969 16.0745L124.958 10.0745C122.653 10.0787 120.35 10.0829 118.046 10.0855L118.052 16.0855ZM113.913 19.3181C114.133 17.4653 116.003 15.932 117.811 16.076L118.287 10.095C113.195 9.68935 108.547 13.6285 107.955 18.6103L113.913 19.3181ZM117.209 23.8162C116.338 23.7862 115.405 23.302 114.701 22.3969C113.994 21.4876 113.721 20.406 113.885 19.5025L107.983 18.4259C107.467 21.2504 108.37 24.0282 109.964 26.0791C111.561 28.1343 114.054 29.7112 117.003 29.8126L117.209 23.8162ZM132.94 23.8934C127.646 23.9223 122.408 23.9507 117.184 23.8154L117.028 29.8134C122.363 29.9515 127.695 29.9221 132.973 29.8933L132.94 23.8934ZM150.462 24.0191C144.597 23.8293 138.735 23.8617 132.94 23.8934L132.973 29.8933C138.787 29.8615 144.535 29.8305 150.268 30.0159L150.462 24.0191ZM168.131 43.056C168.375 33.3101 160.186 24.5948 150.543 24.0228L150.187 30.0122C156.66 30.3962 162.295 36.4493 162.133 42.9057L168.131 43.056ZM168.15 92.5719C168.15 76.0428 168.15 59.5105 168.132 42.9777L162.132 42.9841C162.15 59.5131 162.15 76.0423 162.15 92.5719H168.15ZM168.167 142.151C168.15 125.628 168.15 109.101 168.15 92.5719H162.15C162.15 109.101 162.15 125.63 162.167 142.157L168.167 142.151ZM168.179 144.481C168.169 143.68 168.159 142.925 168.167 142.187L162.167 142.121C162.158 142.945 162.169 143.772 162.18 144.561L168.179 144.481ZM166.194 156.514C168.347 152.459 168.225 147.952 168.179 144.481L162.18 144.561C162.23 148.328 162.206 151.23 160.894 153.7L166.194 156.514ZM147.86 167.22C155.354 167.571 162.973 163.406 166.261 156.378L160.827 153.836C158.647 158.494 153.398 161.473 148.142 161.226L147.86 167.22ZM109.758 167.235C122.507 167.227 135.253 167.219 148 167.223L148.002 161.223C135.252 161.219 122.502 161.227 109.754 161.235L109.758 167.235ZM42.8108 167.211C65.1288 167.264 87.446 167.25 109.758 167.235L109.754 161.235C87.4406 161.25 65.1325 161.264 42.8252 161.211L42.8108 167.211ZM23.87 148.093C23.6258 158.377 32.7069 167.283 42.8392 167.211L42.7968 161.211C35.9537 161.259 29.7068 155.039 29.8683 148.235L23.87 148.093ZM23.8931 42.955C23.8692 78.0253 23.8692 113.095 23.8692 148.164H29.8692C29.8692 113.095 29.8692 78.0271 29.8931 42.959L23.8931 42.955ZM41.6083 23.9979C31.9175 24.5129 23.6786 33.2447 23.8938 43.023L29.8924 42.891C29.7494 36.3953 35.4299 30.3347 41.9267 29.9895L41.6083 23.9979ZM60.6837 23.8809C54.3892 23.849 48.0385 23.8166 41.6834 23.9949L41.8516 29.9925C48.0909 29.8175 54.3423 29.8489 60.6534 29.8808L60.6837 23.8809ZM74.9839 23.8625C70.2311 23.929 65.4736 23.9051 60.6837 23.8809L60.6534 29.8808C65.4337 29.905 70.2485 29.9294 75.0679 29.8619L74.9839 23.8625ZM78.7858 21.3124C78.2959 22.8224 76.7011 23.9344 75.1605 23.8652L74.8913 29.8592C79.2001 30.0528 83.1921 27.174 84.493 23.1638L78.7858 21.3124ZM75.9926 16.1835C76.925 16.2957 77.8499 16.9202 78.4596 17.9782C79.0732 19.043 79.1857 20.2424 78.8323 21.1798L84.4465 23.2964C85.5256 20.4341 85.0293 17.3618 83.6582 14.9825C82.2832 12.5963 79.8477 10.6041 76.7094 10.2265L75.9926 16.1835ZM67.4825 16.0642C70.473 16.0271 73.3165 15.9937 76.1349 16.1972L76.5671 10.2128C73.4536 9.98792 70.3563 10.0281 67.408 10.0647L67.4825 16.0642ZM61.8824 16.0729C63.7721 16.1105 65.6554 16.0869 67.4825 16.0642L67.408 10.0647C65.5647 10.0876 63.7784 10.1095 62.0019 10.0741L61.8824 16.0729ZM52.9286 16.0668C55.9052 16.1238 58.9787 16.1834 62.0513 16.0715L61.8331 10.0755C58.9549 10.1803 56.0484 10.1254 53.0435 10.0679L52.9286 16.0668ZM55.5897 65.0375C56.453 64.5437 57.6248 64.4672 58.7587 64.8968C59.8902 65.3254 60.6883 66.1438 60.9856 67.068L66.6973 65.2305C65.7531 62.2954 63.4354 60.2522 60.8841 59.2858C58.3353 58.3204 55.2573 58.3156 52.6109 59.8291L55.5897 65.0375ZM53.4945 68.1101C53.5175 66.9739 54.2942 65.7253 55.5043 65.0845L52.6962 59.7821C49.7998 61.3161 47.5682 64.4166 47.4957 67.9883L53.4945 68.1101ZM72.0676 103.782C60.4539 95.9843 53.0723 82.1029 53.4937 68.1397L47.4964 67.9587C47.0106 84.0581 55.4585 99.8571 68.7229 108.764L72.0676 103.782ZM106.92 109.741C95.1632 112.856 82.091 110.701 72.0995 103.804L68.691 108.742C80.1633 116.661 95.0494 119.094 108.457 115.541L106.92 109.741ZM138.433 67.1296C139.892 86.3158 125.625 105.128 106.97 109.728L108.406 115.554C129.767 110.286 146.108 88.9262 144.416 66.6746L138.433 67.1296ZM132.227 65.4745C133.078 64.6706 134.455 64.3861 135.888 64.8424C137.318 65.2975 138.259 66.3144 138.477 67.4622L144.371 66.342C143.659 62.5909 140.774 60.1009 137.708 59.1251C134.647 58.1506 130.861 58.5113 128.107 61.1127L132.227 65.4745ZM130.529 71.3095C130.705 68.1446 130.931 66.6198 132.151 65.5438L128.183 61.0434C124.784 64.0402 124.687 68.3075 124.538 70.9753L130.529 71.3095ZM129.572 77.32C130.333 75.2302 130.435 72.9887 130.529 71.3095L124.538 70.9753C124.434 72.8409 124.338 74.1593 123.934 75.2674L129.572 77.32ZM91.1603 102.901C108.234 105.692 125.777 93.7623 129.675 76.9723L123.831 75.6151C120.638 89.3657 106.045 99.2543 92.1283 96.9793L91.1603 102.901ZM62.7739 78.4767C66.4707 91.27 78.0505 101.235 91.2656 102.916L92.0229 96.964C81.1957 95.5865 71.5741 87.3176 68.5381 76.8111L62.7739 78.4767ZM61.4574 71.0492C61.6709 73.3129 61.9102 76.0002 62.8217 78.6273L68.4902 76.6605C67.8548 74.829 67.6556 72.8683 67.4309 70.4857L61.4574 71.0492ZM60.9021 66.7495C61.1749 68.0852 61.3087 69.4727 61.4574 71.0492L67.4309 70.4857C67.2873 68.9638 67.1289 67.2536 66.7808 65.5491L60.9021 66.7495Z" fill="url(#paint1_linear_644_92)"/>
<defs>
<linearGradient id="paint0_linear_644_92" x1="96.0064" y1="114.136" x2="96.0064" y2="61.6165" gradientUnits="userSpaceOnUse">
<stop stop-color="#5570FF"/>
<stop offset="1" stop-color="#4DD3FF"/>
</linearGradient>
<linearGradient id="paint1_linear_644_92" x1="96.0064" y1="114.136" x2="96.0064" y2="61.6165" gradientUnits="userSpaceOnUse">
<stop stop-color="#5570FF"/>
<stop offset="1" stop-color="#4DD3FF"/>
</linearGradient>
</defs>
</svg>
