<svg width="128" height="128" viewBox="0 0 128 128" fill="none" xmlns="http://www.w3.org/2000/svg">
<path d="M64 117.66C93.6357 117.66 117.66 93.6357 117.66 64C117.66 34.3644 93.6357 10.3401 64 10.3401C34.3644 10.3401 10.3401 34.3644 10.3401 64C10.3401 93.6357 34.3644 117.66 64 117.66V117.66ZM64 122C31.9661 122 6 96.0339 6 64C6 31.9661 31.9661 6 64 6C96.0339 6 122 31.9661 122 64C122 96.0339 96.0339 122 64 122Z" fill="url(#paint0_linear_601_5)" stroke="url(#paint1_linear_601_5)" stroke-width="8"/>
<path fill-rule="evenodd" clip-rule="evenodd" d="M62.7763 50.4067C56.1763 53.4196 45.4323 62.5289 28 79.8905L32.9567 84.8472L34.6089 86.5083L68.2985 52.8188C69.3499 51.7673 70.6841 51.2372 72.0536 50.9986C69.5531 49.1255 67.1499 48.4099 62.7763 50.4067ZM77.6376 63.2622L42.3753 94.2481C45.5119 97.3935 47.2348 99.1076 48.1183 100C62.0872 86.7468 75.3845 73.2286 77.6376 63.2622ZM82.179 42.764L94.1334 30.8097C91.7213 28.9277 88.7968 28 85.8722 28C82.4176 28 78.9629 29.3076 76.3653 31.9141C73.8207 34.4587 72.4247 37.8338 72.4247 41.4299C72.4247 45.0259 73.8207 48.4099 76.3653 50.9545C80.2705 54.8686 86.1815 55.9907 91.253 53.773L82.1878 44.7167C81.9316 44.4604 81.7814 44.107 81.7814 43.7448C81.7726 43.3737 81.9228 43.0291 82.179 42.764Z" fill="url(#paint2_linear_601_5)"/>
<path fill-rule="evenodd" clip-rule="evenodd" d="M96.1316 32.6921L85.0961 43.7453L93.7196 52.3687C94.3204 51.9446 94.877 51.4675 95.4071 50.955C97.9517 48.4104 99.3477 45.0264 99.3477 41.4304C99.3477 38.1966 98.2168 35.1396 96.1316 32.6921ZM70.2438 54.7543L36.6514 88.3555L40.5125 92.2166L76.084 60.9744C76.9764 60.1881 77.4888 59.0925 77.5242 57.9085C77.5595 56.7157 77.1177 55.5936 76.2784 54.7454C74.6173 53.0932 71.9137 53.0932 70.2438 54.7543Z" fill="url(#paint3_linear_601_5)"/>
<defs>
<linearGradient id="paint0_linear_601_5" x1="6" y1="6" x2="122" y2="122" gradientUnits="userSpaceOnUse">
<stop stop-color="#FBFF23"/>
<stop offset="1" stop-color="#FF2F2F"/>
</linearGradient>
<linearGradient id="paint1_linear_601_5" x1="6" y1="6" x2="122" y2="122" gradientUnits="userSpaceOnUse">
<stop stop-color="#FBFF23"/>
<stop offset="1" stop-color="#FF2F2F"/>
</linearGradient>
<linearGradient id="paint2_linear_601_5" x1="28" y1="28" x2="99.7407" y2="93.8952" gradientUnits="userSpaceOnUse">
<stop stop-color="#FBFF23"/>
<stop offset="1" stop-color="#FF2F2F"/>
</linearGradient>
<linearGradient id="paint3_linear_601_5" x1="-1.91434" y1="32.6921" x2="101.482" y2="133.933" gradientUnits="userSpaceOnUse">
<stop stop-color="#FBFF23"/>
<stop offset="1" stop-color="#FF2F2F"/>
</linearGradient>
</defs>
</svg>
