<svg width="32" height="32" viewBox="0 0 32 32" fill="none" xmlns="http://www.w3.org/2000/svg">
<path d="M29.6532 9.82837C29.5084 9.65303 29.3266 9.51178 29.1208 9.41484C28.9151 9.31791 28.6904 9.26772 28.4629 9.26772H28.4226H28.4249H24.4635L25.5618 3.92255C25.6166 3.68624 25.6171 3.44063 25.5637 3.20403C25.5103 2.96741 25.4042 2.74592 25.2532 2.55604L25.2555 2.5595C25.1101 2.38428 24.9279 2.24329 24.7217 2.14659C24.5155 2.04987 24.2906 1.99983 24.0629 2H24.0249H24.0272C22.9911 2.03339 22.1357 2.76557 21.9147 3.73836L21.9112 3.75332L21.6131 5.20618C21.6038 5.24302 21.5877 5.27755 21.5797 5.31439L20.7646 9.26887H14.0955L15.1938 3.92371C15.2486 3.68739 15.2492 3.44178 15.1957 3.20518C15.1423 2.96857 15.0362 2.74707 14.8853 2.5572L14.8876 2.56065C14.7422 2.38543 14.5599 2.24444 14.3537 2.14774C14.1476 2.05102 13.9226 2.00098 13.6949 2.00115H13.6569H13.6592C12.6231 2.03454 11.7677 2.76672 11.5467 3.73951L11.5432 3.75448L11.2324 5.26604C11.2324 5.28331 11.2209 5.29827 11.2174 5.31439L10.4093 9.26887H6.09564C5.05954 9.30225 4.20417 10.0333 3.98198 11.0061L3.97853 11.021C3.92348 11.2574 3.92252 11.5032 3.97574 11.74C4.02898 11.9769 4.13499 12.1986 4.28591 12.3887L4.28361 12.3852C4.56911 12.7283 4.99622 12.9459 5.47513 12.9459H5.51427H5.51197H9.65292L8.47639 18.6675H4.15812C3.12202 18.7009 2.26665 19.4331 2.04446 20.4059L2.04101 20.4208C1.98683 20.6567 1.98633 20.9018 2.03954 21.1379C2.09273 21.3741 2.19828 21.5952 2.34839 21.785L2.34609 21.7816C2.63274 22.1247 3.05985 22.3422 3.53876 22.3422H3.5779H3.5756H7.71657L6.61139 27.7162C6.55668 27.9525 6.55601 28.1981 6.60943 28.4347C6.66285 28.6714 6.76899 28.8928 6.91992 29.0827L6.91762 29.0792C7.20428 29.4223 7.63138 29.6399 8.1103 29.6399H8.14829H8.14598C8.64082 29.6242 9.11656 29.4452 9.49889 29.1307C9.88132 28.8163 10.1488 28.384 10.2596 27.9015L10.2631 27.8866L11.4028 22.3445H18.0753L16.9701 27.7185C16.9155 27.9548 16.9148 28.2004 16.9682 28.437C17.0216 28.6737 17.1277 28.8952 17.2787 29.085L17.2764 29.0815C17.563 29.4246 17.9901 29.641 18.469 29.641H18.507H18.5047C18.9995 29.6255 19.4751 29.4465 19.8573 29.132C20.2396 28.8174 20.5068 28.3852 20.6172 27.9027L20.6207 27.8877L21.7604 22.3457H25.9048C26.3995 22.3301 26.8751 22.1512 27.2575 21.837C27.6399 21.5227 27.9074 21.0907 28.0185 20.6085L28.0219 20.5935C28.0787 20.3575 28.0809 20.1117 28.0284 19.8747C27.976 19.6378 27.8702 19.4158 27.7192 19.2259L27.7215 19.2293C27.576 19.0539 27.3935 18.9127 27.1871 18.8159C26.9808 18.719 26.7556 18.6687 26.5277 18.6687H26.4862H26.4885H22.5202L23.6968 12.947H27.8412C28.3361 12.9314 28.8118 12.7524 29.1941 12.4379C29.5766 12.1235 29.844 11.6912 29.9549 11.2087L29.9583 11.1937C30.0131 10.9573 30.0139 10.7115 29.9605 10.4747C29.9071 10.2379 29.8008 10.0161 29.6498 9.82606L29.6521 9.82952L29.6532 9.82837ZM12.1649 18.6641L13.3415 12.9424H20.014L18.8374 18.6641H12.1649Z" fill="url(#paint0_linear_640_23)" stroke="url(#paint1_linear_640_23)"/>
<defs>
<linearGradient id="paint0_linear_640_23" x1="16" y1="29.641" x2="16" y2="2" gradientUnits="userSpaceOnUse">
<stop stop-color="#02AA93"/>
<stop offset="1" stop-color="#67FF80"/>
</linearGradient>
<linearGradient id="paint1_linear_640_23" x1="16" y1="29.641" x2="16" y2="2" gradientUnits="userSpaceOnUse">
<stop stop-color="#02AA93"/>
<stop offset="1" stop-color="#67FF80"/>
</linearGradient>
</defs>
</svg>
