<svg width="128" height="128" viewBox="0 0 128 128" fill="none" xmlns="http://www.w3.org/2000/svg">
<path d="M61.6068 77.3255C61.2163 77.7161 60.5831 77.7161 60.1926 77.3255L47.1415 64.2744C46.497 63.6338 45.6253 63.2742 44.7166 63.2742C43.8079 63.2742 42.9362 63.6338 42.2917 64.2744L21.7707 85.0668C21.586 85.254 21.4824 85.5063 21.4824 85.7693V92.6786C21.4824 93.5695 22.5596 94.0157 23.1895 93.3857L44.1353 72.44C44.5237 72.0516 45.1527 72.0492 45.544 72.4346L55.4351 82.1753C55.8308 82.565 55.8332 83.2023 55.4406 83.595L44.9619 94.0736C44.3319 94.7036 44.7781 95.7807 45.669 95.7807H52.2993C52.5646 95.7807 52.8189 95.6754 53.0064 95.4878L81.0723 67.422C81.4622 67.0321 82.0941 67.0314 82.4849 67.4204L102.601 87.4447C103.232 88.0725 104.307 87.6258 104.307 86.736V79.8571C104.307 79.5919 104.201 79.3375 104.014 79.15L84.323 59.4591C83.6786 58.8184 82.8068 58.4589 81.8982 58.4589C80.9895 58.4589 80.1177 58.8184 79.4733 59.4591L61.6068 77.3255Z" fill="url(#paint0_linear_678_357)" stroke="url(#paint1_linear_678_357)" stroke-width="5"/>
<path d="M111.919 51.8514C111.489 51.9833 111.187 52.3763 111.187 52.8268V108.78C111.187 109.332 110.739 109.78 110.187 109.78H15.8791C15.3268 109.78 14.8791 109.332 14.8791 108.78V28.2303C14.8791 27.678 15.3268 27.2303 15.8791 27.2303H77.5147C78.0655 27.2303 78.5105 26.7848 78.5339 26.2345C78.5999 24.6843 78.8058 23.1434 79.149 21.6307C79.2956 20.9844 78.8164 20.3512 78.1536 20.3512H14.8791C13.0547 20.3512 11.3049 21.076 10.0148 22.366C8.72476 23.6561 8 25.4058 8 27.2303V109.78C8 111.604 8.72476 113.354 10.0148 114.644C11.3049 115.934 13.0547 116.659 14.8791 116.659H111.187C113.011 116.659 114.761 115.934 116.051 114.644C117.341 113.354 118.066 111.604 118.066 109.78V50.8479C118.066 50.0611 117.194 49.5756 116.5 49.9466C115.039 50.7278 113.505 51.3659 111.919 51.8514Z" fill="url(#paint2_linear_678_357)" stroke="url(#paint3_linear_678_357)" stroke-width="5"/>
<path d="M105.489 40.0212C113.503 40.0212 120 33.5246 120 25.5106C120 17.4966 113.503 11 105.489 11C97.4751 11 90.9785 17.4966 90.9785 25.5106C90.9785 33.5246 97.4751 40.0212 105.489 40.0212Z" fill="url(#paint4_linear_678_357)"/>
<defs>
<linearGradient id="paint0_linear_678_357" x1="62.8946" y1="95.7807" x2="62.8946" y2="58.4589" gradientUnits="userSpaceOnUse">
<stop stop-color="#02AA93"/>
<stop offset="1" stop-color="#67FF80"/>
</linearGradient>
<linearGradient id="paint1_linear_678_357" x1="62.8946" y1="95.7807" x2="62.8946" y2="58.4589" gradientUnits="userSpaceOnUse">
<stop stop-color="#02AA93"/>
<stop offset="1" stop-color="#67FF80"/>
</linearGradient>
<linearGradient id="paint2_linear_678_357" x1="8" y1="116.659" x2="134.621" y2="53.5863" gradientUnits="userSpaceOnUse">
<stop stop-color="#0357D1"/>
<stop offset="1" stop-color="#27CDFC"/>
</linearGradient>
<linearGradient id="paint3_linear_678_357" x1="8" y1="116.659" x2="134.621" y2="53.5863" gradientUnits="userSpaceOnUse">
<stop stop-color="#0357D1"/>
<stop offset="1" stop-color="#27CDFC"/>
</linearGradient>
<linearGradient id="paint4_linear_678_357" x1="105.489" y1="40.0212" x2="105.489" y2="11" gradientUnits="userSpaceOnUse">
<stop stop-color="#FDA700"/>
<stop offset="1" stop-color="#FFDE00"/>
</linearGradient>
</defs>
</svg>
