<svg width="64" height="64" viewBox="0 0 64 64" fill="none" xmlns="http://www.w3.org/2000/svg">
<path d="M47.5765 46.5386H16.4227C14.8296 46.5386 13.5381 46.8461 13.5381 47.2254V57.3902C13.5381 57.7695 14.8296 58.077 16.4227 58.077H47.5765C49.1697 58.077 50.4612 57.7695 50.4612 57.3902V47.2254C50.4612 46.8461 49.1697 46.5386 47.5765 46.5386Z" fill="url(#paint0_linear)"/>
<path opacity="0.1" d="M4.88462 5C3.28654 5 2 6.28654 2 7.88462V9.03846C2 7.44038 3.28654 6.15385 4.88462 6.15385H59.1154C60.7135 6.15385 62 7.44038 62 9.03846V7.88462C62 6.28654 60.7135 5 59.1154 5H4.88462Z" fill="white"/>
<path fill-rule="evenodd" clip-rule="evenodd" d="M8 40.5385V11H56V40.5385H8ZM62 7.96703V40.5385V45.3847V46.5385V48.2693C62 49.8674 60.7135 51.1539 59.1154 51.1539H4.88462C3.28654 51.1539 2 49.8674 2 48.2693V46.5385V45.3847V40.5385V7.96703C2 6.3233 3.28654 5 4.88462 5H59.1154C60.7135 5 62 6.3233 62 7.96703Z" fill="url(#paint1_linear)"/>
<path d="M40.547 26.1519C40.547 23.2282 39.0863 18.9737 36.2122 13.6816C35.7205 12.774 34.4324 12.7835 33.8793 13.6462C33.1088 14.8445 31.9624 16.0712 30.4308 17.3216L29.7525 17.8581L28.1996 19.0564C25.0229 21.6138 23.7702 23.8853 24.0468 27.2439C24.2879 30.2126 26.0676 32.3374 29.1214 33.3112C28.0436 34.5805 26.6254 35.5803 24.8528 36.3225C24.5134 36.466 24.2445 36.7378 24.1046 37.0787C23.9647 37.4195 23.9652 37.8019 24.1059 38.1424C24.3989 38.8515 25.2049 39.1871 25.9069 38.894C29.275 37.4877 31.693 35.2281 33.0946 32.1507C33.6193 31.002 34.04 29.8675 34.352 28.7495L34.43 28.4612L34.6191 27.6954L34.7444 27.0808L34.82 26.6436L34.9429 25.7596C35.0209 25.0576 35.054 24.3651 35.0445 23.6796L35.0375 23.6371C35.0518 23.2849 35.1999 22.9515 35.4515 22.7047C35.7032 22.4579 36.0394 22.3163 36.3918 22.3087C36.5737 22.3069 36.7542 22.3408 36.9229 22.4087C37.0917 22.4766 37.2454 22.5771 37.3754 22.7044C37.5053 22.8317 37.6089 22.9833 37.6802 23.1506C37.7515 23.318 37.7892 23.4977 37.791 23.6796C37.8336 26.3883 37.29 29.1513 36.1649 31.9616L36.1176 32.1271C36.0879 32.295 36.1093 32.4679 36.1791 32.6234C36.3682 33.0489 36.8645 33.238 37.2829 33.0442L37.4956 32.9378C37.6227 32.8655 37.7422 32.7808 37.8525 32.6849C39.1808 31.5267 40.547 29.0757 40.547 26.1519Z" fill="url(#paint2_linear)"/>
<defs>
<linearGradient id="paint0_linear" x1="31.9996" y1="58.077" x2="31.9996" y2="46.5386" gradientUnits="userSpaceOnUse">
<stop stop-color="#5570FF"/>
<stop offset="1" stop-color="#4DD3FF"/>
</linearGradient>
<linearGradient id="paint1_linear" x1="32" y1="51.1538" x2="32" y2="5" gradientUnits="userSpaceOnUse">
<stop stop-color="#5570FF"/>
<stop offset="1" stop-color="#4DD3FF"/>
</linearGradient>
<linearGradient id="paint2_linear" x1="32.2735" y1="13" x2="32.2735" y2="39" gradientUnits="userSpaceOnUse">
<stop stop-color="#BAFA52"/>
<stop offset="1" stop-color="#3F8F5B"/>
</linearGradient>
</defs>
</svg>
