<svg width="128" height="128" viewBox="0 0 128 128" fill="none" xmlns="http://www.w3.org/2000/svg">
<path d="M8 44V109C8 111.209 9.79086 113 12 113H85.5M8 44V20C8 17.7909 9.79086 16 12 16H63.5M8 44L30 63.5871M85.5 113H115C117.209 113 119 111.209 119 109V20C119 17.7909 117.209 16 115 16H63.5M85.5 113L30 63.5871M30 63.5871L63.5 16" stroke="url(#paint0_linear)" stroke-width="12" stroke-linecap="round" stroke-linejoin="round"/>
<path d="M63 64C61.8954 64 60.991 63.1027 61.0869 62.0023C61.5547 56.6344 63.8966 51.5765 67.7365 47.7365C72.0499 43.4232 77.9 41 84 41C90.1 41 95.9501 43.4232 100.263 47.7365C104.103 51.5765 106.445 56.6344 106.913 62.0023C107.009 63.1027 106.105 64 105 64L96.3487 64C95.2441 64 94.3682 63.0964 94.156 62.0124C93.7637 60.0076 92.7831 58.1479 91.3176 56.6824C89.3769 54.7416 86.7446 53.6513 84 53.6513C81.2554 53.6513 78.6231 54.7416 76.6824 56.6824C75.2169 58.1479 74.2363 60.0076 73.844 62.0124C73.6318 63.0964 72.7559 64 71.6513 64L63 64Z" fill="url(#paint1_linear)"/>
<rect x="58" y="68" width="52" height="12" rx="2" fill="url(#paint2_linear)"/>
<defs>
<linearGradient id="paint0_linear" x1="63.4999" y1="113" x2="63.4999" y2="16" gradientUnits="userSpaceOnUse">
<stop stop-color="#02AA93"/>
<stop offset="1" stop-color="#67FF80"/>
</linearGradient>
<linearGradient id="paint1_linear" x1="60.9933" y1="63.3184" x2="106.99" y2="63.3184" gradientUnits="userSpaceOnUse">
<stop stop-color="#FD3A84"/>
<stop offset="1" stop-color="#FFA68D"/>
</linearGradient>
<linearGradient id="paint2_linear" x1="57.9924" y1="73.8222" x2="109.989" y2="73.8222" gradientUnits="userSpaceOnUse">
<stop stop-color="#FD3A84"/>
<stop offset="1" stop-color="#FFA68D"/>
</linearGradient>
</defs>
</svg>
