<svg width="128" height="128" viewBox="0 0 128 128" fill="none" xmlns="http://www.w3.org/2000/svg">
<path fill-rule="evenodd" clip-rule="evenodd" d="M72.4822 6.72758C58.1321 4.31616 42.8459 7.99357 30.9232 16.3531C19.6223 24.2036 11.1901 36.1602 7.81993 49.5368C4.89107 61.1317 5.43939 73.7112 9.88618 84.8439C12.6278 92.2389 17.0814 98.9976 22.5981 104.624C23.7816 105.957 25.7409 106.728 27.4461 105.95C30.2278 105.006 31.0302 101.027 28.8102 99.0847C22.8789 93.1901 18.733 85.7549 16.1251 77.8441C16.0303 76.9025 15.8083 75.9838 15.5862 75.0645C15.4481 74.4928 15.31 73.9208 15.2023 73.3428C12.7816 60.6561 15.4764 47.045 22.7518 36.3545C32.2338 21.7386 49.8939 13.1044 67.2263 14.3771C66.5911 14.1092 65.9625 13.8211 65.3473 13.513C67.2932 10.8404 69.7673 8.59642 72.4822 6.72758Z" fill="#1FBBFF"/>
<path d="M72.4822 6.72758C69.7673 8.59642 67.2932 10.8404 65.3473 13.513C65.9625 13.8211 66.5911 14.1092 67.2263 14.3771C74.5885 14.8527 81.8306 16.9694 88.2701 20.5864C95.4986 24.7126 101.865 30.5604 106.144 37.741C106.592 38.4912 107.08 39.2145 107.615 39.9044C111.547 47.5338 113.901 56.0543 113.68 64.6885C113.647 79.4919 106.371 93.9671 94.7293 103.043C86.9458 109.293 77.2297 112.803 67.3398 113.741C67.3398 113.741 67.3398 113.741 67.3398 113.741C58.3259 114.055 49.225 112.321 41.1807 108.161C37.4762 106.198 33.7516 110.82 35.6975 114.277C41.7892 118.363 49.0712 120.406 56.2663 121.477C65.4274 122.723 74.876 121.732 83.5823 118.61C94.5622 114.719 104.138 107.31 111.085 97.9794C124.479 79.8001 125.736 53.5425 113.8 34.3249C108.805 25.7912 101.47 18.4765 92.7838 13.7542C86.672 9.96959 79.6104 7.57157 72.4822 6.72758Z" fill="#1FBBFF"/>
<path fill-rule="evenodd" clip-rule="evenodd" d="M36.9817 38.5046C37.9781 36.6358 40.3653 35.9593 42.2844 36.743C44.4012 37.4063 46.5253 38.0454 48.649 38.6844L48.6495 38.6846L48.6501 38.6848C52.6377 39.8846 56.6244 41.0841 60.5597 42.4433C64.7957 43.5897 68.9912 44.9017 73.1845 46.2128C74.6507 46.6713 76.1169 47.1297 77.5843 47.5809C79.5235 48.0699 80.4663 50.0057 80.8943 51.7942L80.5599 52.1693C81.1607 52.563 81.3373 53.2502 81.5124 53.9314C81.5965 54.2585 81.6802 54.5843 81.8103 54.8754C83.662 60.9415 85.5278 67.0052 87.3938 73.0693C88.668 77.2103 89.9423 81.3514 91.2121 85.4937C91.6802 86.7798 91.6133 88.1596 91.3124 89.4725C89.9349 90.8591 88.0492 92.105 86.0298 91.2811C76.9958 88.5615 67.9818 85.775 58.9679 82.9885C57.8027 82.5595 56.5827 82.234 55.3605 81.908C52.6899 81.1958 50.0081 80.4806 47.8613 78.6747C47.179 76.2637 46.4341 73.8692 45.6892 71.4748C44.8572 68.8004 44.0252 66.1258 43.2808 63.4293C42.0812 59.8057 40.9721 56.1527 39.8626 52.4986L39.8624 52.4979C38.9927 49.6337 38.1228 46.7689 37.2091 43.9169C37.1542 43.7254 37.0957 43.5305 37.0364 43.3332L37.0362 43.3327C36.5606 41.7497 36.0364 40.0054 36.9817 38.5046ZM69.5903 77.5984L69.5912 77.5986L69.592 77.5989C72.7458 78.5758 75.8991 79.5526 79.0754 80.4498C79.5435 80.557 80.473 80.7847 80.9343 80.8986C79.928 76.7878 78.6533 72.7505 77.3789 68.714C76.4771 65.8576 75.5754 63.0016 74.769 60.1203C74.6207 59.6658 74.4824 59.2068 74.3441 58.7475C73.9521 57.4467 73.5595 56.1436 72.9369 54.9357C69.9953 53.8468 66.9838 52.9582 63.9707 52.0692C61.3125 51.2848 58.653 50.5001 56.0391 49.577C54.81 49.25 53.5934 48.8756 52.3762 48.501C50.6266 47.9626 48.8759 47.4239 47.0856 47.025C47.2662 47.9493 47.5002 48.8536 47.7744 49.7512C48.1956 51.2198 48.6462 52.6786 49.0966 54.1366C49.3898 55.0857 49.6829 56.0345 49.9677 56.9854C50.6635 59.1143 51.3016 61.2628 51.9396 63.4107C52.8835 66.5882 53.8269 69.7645 54.9561 72.874C56.2588 73.5912 57.6867 73.9991 59.1143 74.4069C59.8996 74.6312 60.6849 74.8555 61.449 75.1313C64.1735 75.9203 66.8821 76.7595 69.5903 77.5984Z" fill="#1FBBFF"/>
<path d="M72.4822 6.72758C58.1321 4.31616 42.8459 7.99357 30.9232 16.3531C19.6223 24.2036 11.1901 36.1602 7.81993 49.5368C4.89107 61.1317 5.43939 73.7112 9.88618 84.8439M72.4822 6.72758C69.7673 8.59642 67.2932 10.8404 65.3473 13.513C65.9625 13.8211 66.5911 14.1092 67.2263 14.3771M72.4822 6.72758C79.6104 7.57157 86.672 9.96959 92.7838 13.7542C101.47 18.4765 108.805 25.7912 113.8 34.3249C125.736 53.5425 124.479 79.8001 111.085 97.9794C104.138 107.31 94.5622 114.719 83.5823 118.61C74.876 121.732 65.4274 122.723 56.2663 121.477C49.0712 120.406 41.7892 118.363 35.6975 114.277C33.7516 110.82 37.4762 106.198 41.1807 108.161C49.225 112.321 58.3259 114.055 67.3398 113.741M9.88618 84.8439C10.3358 84.2664 10.7672 83.6675 11.1992 83.0673C11.2012 83.0645 11.2033 83.0617 11.2053 83.0588M9.88618 84.8439C12.6278 92.2389 17.0814 98.9976 22.5981 104.624C23.7816 105.957 25.7409 106.728 27.4461 105.95C30.2278 105.006 31.0302 101.027 28.8102 99.0847C22.8789 93.1901 18.733 85.7549 16.1251 77.8441C16.0303 76.9025 15.8083 75.9838 15.5862 75.0645C15.4481 74.4928 15.31 73.9208 15.2023 73.3428C12.7816 60.6561 15.4764 47.045 22.7518 36.3545C32.2338 21.7386 49.8939 13.1044 67.2263 14.3771M67.2263 14.3771C74.5885 14.8527 81.8306 16.9694 88.2701 20.5864C95.4986 24.7126 101.865 30.5604 106.144 37.741C106.592 38.4912 107.08 39.2145 107.615 39.9044C111.547 47.5338 113.901 56.0543 113.68 64.6885C113.647 79.4919 106.371 93.9671 94.7293 103.043C86.9458 109.293 77.2297 112.803 67.3398 113.741M67.3398 113.741C67.3398 113.741 67.3398 113.741 67.3398 113.741ZM42.2844 36.743C40.3653 35.9593 37.9781 36.6358 36.9817 38.5046C36.0364 40.0054 36.5606 41.7497 37.0362 43.3327L37.0364 43.3332C37.0957 43.5305 37.1542 43.7254 37.2091 43.9169C38.1228 46.7689 38.9927 49.6337 39.8624 52.4979L39.8626 52.4986C40.9721 56.1527 42.0812 59.8057 43.2808 63.4293C44.0252 66.1258 44.8572 68.8004 45.6892 71.4748C46.4341 73.8692 47.179 76.2637 47.8613 78.6747C50.0081 80.4806 52.6899 81.1958 55.3605 81.908C56.5827 82.234 57.8027 82.5595 58.9679 82.9885C67.9818 85.775 76.9958 88.5615 86.0298 91.2811C88.0492 92.105 89.9349 90.8591 91.3124 89.4725C91.6133 88.1596 91.6802 86.7798 91.2121 85.4937C89.9423 81.3514 88.668 77.2103 87.3938 73.0693C85.5278 67.0052 83.662 60.9415 81.8103 54.8754C81.6802 54.5843 81.5965 54.2585 81.5124 53.9314C81.3373 53.2502 81.1607 52.563 80.5599 52.1693L80.8943 51.7942C80.4663 50.0057 79.5235 48.0699 77.5843 47.5809C76.1169 47.1297 74.6507 46.6713 73.1845 46.2128C68.9912 44.9017 64.7957 43.5897 60.5597 42.4433C56.6244 41.0841 52.6377 39.8846 48.6501 38.6848L48.6495 38.6846L48.649 38.6844C46.5253 38.0454 44.4012 37.4063 42.2844 36.743ZM69.5912 77.5986L69.5903 77.5984C66.8821 76.7595 64.1735 75.9203 61.449 75.1313C60.6849 74.8555 59.8996 74.6312 59.1143 74.4069C57.6867 73.9991 56.2588 73.5912 54.9561 72.874C53.8269 69.7645 52.8835 66.5882 51.9396 63.4107C51.3016 61.2628 50.6635 59.1143 49.9677 56.9854C49.6829 56.0345 49.3898 55.0857 49.0966 54.1366C48.6462 52.6786 48.1956 51.2198 47.7744 49.7512C47.5002 48.8536 47.2662 47.9493 47.0856 47.025C48.8759 47.4239 50.6266 47.9626 52.3762 48.501C53.5934 48.8756 54.81 49.25 56.0391 49.577C58.653 50.5001 61.3125 51.2848 63.9707 52.0692C66.9838 52.9582 69.9953 53.8468 72.9369 54.9357C73.5595 56.1436 73.9521 57.4467 74.3441 58.7475C74.4824 59.2068 74.6207 59.6658 74.769 60.1203C75.5754 63.0016 76.4771 65.8576 77.3789 68.714C78.6533 72.7505 79.928 76.7878 80.9343 80.8986C80.473 80.7847 79.5435 80.557 79.0754 80.4498C75.8991 79.5526 72.7458 78.5758 69.592 77.5989L69.5912 77.5986Z" stroke="#1FBBFF" stroke-width="4"/>
</svg>
