<svg width="128" height="128" viewBox="0 0 128 128" fill="none" xmlns="http://www.w3.org/2000/svg">
<path d="M121.426 52.887H67.5742V32.5622C67.5742 24.1851 73.892 17.2704 81.871 17.1448C89.4105 17.1448 97.4316 23.4485 97.5083 23.5115C97.9134 23.8327 107.54 31.4417 117.614 31.4417C119.037 31.4417 120.454 31.2916 121.851 31.0264C123.791 30.6599 125.069 28.789 124.698 26.8484C124.336 24.9043 122.437 23.6442 120.524 24.0037C119.561 24.1853 118.591 24.2935 117.614 24.2935C110.074 24.2935 102.053 17.9898 101.976 17.927C101.571 17.6057 91.9514 10 81.5568 10H81.5499C69.8989 10.185 60.4258 20.3038 60.4258 32.5622V52.887H6.57416C4.59863 52.887 3 54.4857 3 56.4613V113.649C3 115.625 4.59863 117.223 6.57416 117.223H121.426C123.401 117.223 125 115.625 125 113.649V56.4613C125 54.4857 123.401 52.887 121.426 52.887ZM117.852 110.075H10.1484V60.0355H117.852V110.075ZM21.1094 74.3323C23.0833 74.3323 24.6835 72.7321 24.6835 70.7582C24.6835 68.7837 23.0833 67.1839 21.1094 67.1839C19.1355 67.1839 17.5352 68.7837 17.5352 70.7582C17.5352 72.7319 19.1355 74.3323 21.1094 74.3323ZM35.4063 74.3323C37.3801 74.3323 38.9804 72.7321 38.9804 70.7582C38.9804 68.7837 37.3801 67.1839 35.4063 67.1839C33.4324 67.1839 31.8321 68.7837 31.8321 70.7582C31.8321 72.7319 33.4324 74.3323 35.4063 74.3323ZM49.7031 74.3323C51.677 74.3323 53.2773 72.7321 53.2773 70.7582C53.2773 68.7837 51.677 67.1839 49.7031 67.1839C47.7292 67.1839 46.129 68.7837 46.129 70.7582C46.129 72.7319 47.7292 74.3323 49.7031 74.3323ZM64 74.3323C65.9739 74.3323 67.5742 72.7321 67.5742 70.7582C67.5742 68.7837 65.9739 67.1839 64 67.1839C62.0261 67.1839 60.4258 68.7837 60.4258 70.7582C60.4258 72.7319 62.0261 74.3323 64 74.3323ZM78.2969 74.3323C80.2708 74.3323 81.871 72.7321 81.871 70.7582C81.871 68.7837 80.2708 67.1839 78.2969 67.1839C76.323 67.1839 74.7227 68.7837 74.7227 70.7582C74.7227 72.7319 76.323 74.3323 78.2969 74.3323ZM92.5938 74.3323C94.5676 74.3323 96.1679 72.7321 96.1679 70.7582C96.1679 68.7837 94.5676 67.1839 92.5938 67.1839C90.6199 67.1839 89.0196 68.7837 89.0196 70.7582C89.0196 72.7319 90.6199 74.3323 92.5938 74.3323ZM106.891 95.7777C104.917 95.7777 103.317 97.3775 103.317 99.3519C103.317 101.326 104.917 102.926 106.891 102.926C108.864 102.926 110.465 101.326 110.465 99.3519C110.465 97.3775 108.864 95.7777 106.891 95.7777ZM92.5938 88.6292H106.891C108.867 88.6292 110.465 87.0306 110.465 85.0551V70.7582C110.465 68.7825 108.867 67.1839 106.891 67.1839C104.915 67.1839 103.317 68.7825 103.317 70.7582V81.4808H92.5938C90.6181 81.4808 89.0196 83.0794 89.0196 85.0551C89.0196 87.0306 90.6181 88.6292 92.5938 88.6292ZM21.1094 88.6292C23.0833 88.6292 24.6835 87.0289 24.6835 85.0551C24.6835 83.0806 23.0833 81.4808 21.1094 81.4808C19.1355 81.4808 17.5352 83.0806 17.5352 85.0551C17.5352 87.0287 19.1355 88.6292 21.1094 88.6292ZM21.1094 102.926C23.0833 102.926 24.6835 101.326 24.6835 99.3519C24.6835 97.3775 23.0833 95.7777 21.1094 95.7777C19.1355 95.7777 17.5352 97.3775 17.5352 99.3519C17.5352 101.326 19.1355 102.926 21.1094 102.926ZM35.4063 88.6292C37.3801 88.6292 38.9804 87.0289 38.9804 85.0551C38.9804 83.0806 37.3801 81.4808 35.4063 81.4808C33.4324 81.4808 31.8321 83.0806 31.8321 85.0551C31.8321 87.0287 33.4324 88.6292 35.4063 88.6292ZM49.7031 88.6292C51.677 88.6292 53.2773 87.0289 53.2773 85.0551C53.2773 83.0806 51.677 81.4808 49.7031 81.4808C47.7292 81.4808 46.129 83.0806 46.129 85.0551C46.129 87.0287 47.7292 88.6292 49.7031 88.6292ZM64 88.6292C65.9739 88.6292 67.5742 87.0289 67.5742 85.0551C67.5742 83.0806 65.9739 81.4808 64 81.4808C62.0261 81.4808 60.4258 83.0806 60.4258 85.0551C60.4258 87.0287 62.0261 88.6292 64 88.6292ZM78.2969 88.6292C80.2708 88.6292 81.871 87.0289 81.871 85.0551C81.871 83.0806 80.2708 81.4808 78.2969 81.4808C76.323 81.4808 74.7227 83.0806 74.7227 85.0551C74.7227 87.0287 76.323 88.6292 78.2969 88.6292ZM92.5938 102.926C94.5676 102.926 96.1679 101.326 96.1679 99.3519C96.1679 97.3775 94.5676 95.7777 92.5938 95.7777C90.6199 95.7777 89.0196 97.3775 89.0196 99.3519C89.0196 101.326 90.6199 102.926 92.5938 102.926ZM35.4063 102.926H78.2969C80.2725 102.926 81.871 101.327 81.871 99.3519C81.871 97.3763 80.2725 95.7777 78.2969 95.7777H35.4063C33.4306 95.7777 31.8321 97.3763 31.8321 99.3519C31.8321 101.327 33.4306 102.926 35.4063 102.926Z" fill="url(#paint0_linear_625_127)" stroke="url(#paint1_linear_625_127)" stroke-width="3"/>
<defs>
<linearGradient id="paint0_linear_625_127" x1="56.375" y1="93.3304" x2="64" y2="33.4196" gradientUnits="userSpaceOnUse">
<stop stop-color="#9000FF"/>
<stop offset="1" stop-color="#FF81FF"/>
</linearGradient>
<linearGradient id="paint1_linear_625_127" x1="56.375" y1="93.3304" x2="64" y2="33.4196" gradientUnits="userSpaceOnUse">
<stop stop-color="#9000FF"/>
<stop offset="1" stop-color="#FF81FF"/>
</linearGradient>
</defs>
</svg>
