<svg width="128" height="128" viewBox="0 0 128 128" fill="none" xmlns="http://www.w3.org/2000/svg">
<path d="M98.3672 60.8281H54.1875V36.5859C54.1875 30.9642 58.7611 26.3906 64.3828 26.3906C70.0045 26.3906 74.5781 30.9642 74.5781 36.5859V50.6328C74.5781 52.5097 76.0997 54.0312 77.9766 54.0312H91.5703C93.4472 54.0312 94.9688 52.5097 94.9688 50.6328V36.5859C94.9688 19.7209 81.2479 6 64.3828 6C47.5177 6 33.7969 19.7209 33.7969 36.5859V60.8281H30.3984C28.5216 60.8281 27 62.3497 27 64.2266V84.6172C27 105.23 43.7699 122 64.3828 122C84.9957 122 101.766 105.23 101.766 84.6172V64.2266C101.766 62.3497 100.244 60.8281 98.3672 60.8281ZM40.5938 36.5859C40.5938 23.4686 51.2655 12.7969 64.3828 12.7969C77.5001 12.7969 88.1719 23.4686 88.1719 36.5859V47.2344H81.375V36.5859C81.375 27.2164 73.7523 19.5938 64.3828 19.5938C55.0133 19.5938 47.3906 27.2164 47.3906 36.5859V60.8281H40.5938V36.5859ZM94.9688 84.6172C94.9688 101.482 81.2479 115.203 64.3828 115.203C47.5177 115.203 33.7969 101.482 33.7969 84.6172V67.625H94.9688V84.6172ZM60.9844 94.228V105.008C60.9844 106.885 62.506 108.406 64.3828 108.406C66.2597 108.406 67.7812 106.885 67.7812 105.008V94.228C71.7368 92.8251 74.5781 89.0476 74.5781 84.6172C74.5781 78.9955 70.0045 74.4219 64.3828 74.4219C58.7611 74.4219 54.1875 78.9955 54.1875 84.6172C54.1875 89.0476 57.0288 92.8251 60.9844 94.228ZM64.3828 81.2188C66.2567 81.2188 67.7812 82.7433 67.7812 84.6172C67.7812 86.4911 66.2567 88.0156 64.3828 88.0156C62.5089 88.0156 60.9844 86.4911 60.9844 84.6172C60.9844 82.7433 62.5089 81.2188 64.3828 81.2188Z" fill="url(#paint0_linear_677_42)" stroke="url(#paint1_linear_677_42)" stroke-width="3"/>
<defs>
<linearGradient id="paint0_linear_677_42" x1="64.3828" y1="122" x2="64.3828" y2="6" gradientUnits="userSpaceOnUse">
<stop stop-color="#5558FF"/>
<stop offset="1" stop-color="#00C0FF"/>
</linearGradient>
<linearGradient id="paint1_linear_677_42" x1="64.3828" y1="122" x2="64.3828" y2="6" gradientUnits="userSpaceOnUse">
<stop stop-color="#5558FF"/>
<stop offset="1" stop-color="#00C0FF"/>
</linearGradient>
</defs>
</svg>
