<svg width="128" height="128" viewBox="0 0 128 128" fill="none" xmlns="http://www.w3.org/2000/svg">
<path d="M90.7789 73.4545C90.4254 72.2754 88.9711 71.7241 87.4777 71.7241C86.0235 71.7241 84.5692 72.2754 84.2157 73.4545L76.6301 98.1748C76.591 98.3324 76.5518 98.4891 76.5518 98.5675C76.5518 99.8255 78.3987 100.69 79.7747 100.69C80.6393 100.69 81.3072 100.415 81.504 99.6681L82.9965 94.4408H91.9971L93.4916 99.6681C93.6875 100.415 94.3553 100.69 95.22 100.69C96.5959 100.69 98.4428 99.7869 98.4428 98.5675C98.4428 98.45 98.4037 98.3315 98.3645 98.1748L90.7789 73.4545ZM84.0581 90.4316L87.4768 78.3667L90.8974 90.4316H84.0581Z" fill="url(#paint0_linear_618_163)" stroke="url(#paint1_linear_618_163)" stroke-width="2"/>
<path d="M107.933 53.6897H74.3094V39.3291L85.2366 31.5242C86.0989 30.9081 86.6107 29.9143 86.6107 28.8547C86.6107 27.7944 86.0989 26.8006 85.2366 26.1845L74.1779 18.2856C73.314 12.4732 68.2904 8 62.2423 8H20.068C13.4132 8 8 13.4132 8 20.068V62.2431C8 68.8971 13.4132 74.3103 20.068 74.3103H53.6906V88.6709L42.7634 96.4758C41.9011 97.0919 41.3893 98.0865 41.3893 99.1458C41.3893 100.206 41.9011 101.2 42.7634 101.815L53.8221 109.714C54.686 115.527 59.7096 120 65.7577 120H107.933C114.586 120 120 114.586 120 107.932V65.7577C120 59.1029 114.586 53.6897 107.933 53.6897ZM20.068 67.7478C17.032 67.7478 14.5625 65.2783 14.5625 62.2423V20.0671C14.5625 17.032 17.032 14.5625 20.068 14.5625H62.2423C65.2775 14.5625 67.747 17.032 67.747 20.0671C67.747 21.1276 68.2588 22.1222 69.121 22.7375L77.6838 28.8539L69.121 34.9704C68.2588 35.5865 67.747 36.581 67.747 37.6406V53.6897H65.7577C59.1038 53.6897 53.6906 59.1029 53.6906 65.7569V67.7478H20.068ZM113.437 107.932C113.437 110.968 110.968 113.437 107.933 113.437H65.7577C62.7225 113.437 60.253 110.968 60.253 107.932C60.253 106.873 59.7412 105.877 58.879 105.262L50.3162 99.1458L58.879 93.0296C59.7412 92.4135 60.253 91.4189 60.253 90.3594V65.7577C60.253 62.7217 62.7225 60.2522 65.7577 60.2522H71.0197H71.0282H71.0368H107.933C110.968 60.2522 113.437 62.7217 113.437 65.7577V107.932Z" fill="url(#paint2_linear_618_163)" stroke="url(#paint3_linear_618_163)" stroke-width="2"/>
<path d="M51.925 36.6117C53.0667 36.6117 53.9935 35.6849 53.9935 34.5422C53.9935 33.3995 53.0667 32.4727 51.925 32.4727H42.7211V27.4489C42.7211 26.3062 41.7943 25.3794 40.6516 25.3794C39.5098 25.3794 38.583 26.3062 38.583 27.4489V32.4727H29.3791C28.2373 32.4727 27.3105 33.3995 27.3105 34.5422C27.3105 35.6849 28.2373 36.6117 29.3791 36.6117H32.2311C32.6868 40.981 34.571 44.9299 37.4049 47.9882C35.0554 49.3947 32.3113 50.2068 29.3791 50.2068C28.2373 50.2068 27.3105 51.1326 27.3105 52.2754C27.3105 53.4181 28.2373 54.3449 29.3791 54.3449C33.5659 54.3449 37.4498 53.036 40.6516 50.8098C43.8542 53.036 47.7381 54.3449 51.925 54.3449C53.0667 54.3449 53.9935 53.4181 53.9935 52.2754C53.9935 51.1326 53.0667 50.2068 51.925 50.2068C48.9927 50.2068 46.2486 49.3966 43.8991 47.9882C46.733 44.9299 48.6172 40.981 49.0729 36.6117H51.925ZM40.6516 45.4029C38.388 43.0534 36.8507 40.0026 36.4007 36.6117H44.9033C44.4533 40.0026 42.916 43.0534 40.6516 45.4029Z" fill="url(#paint4_linear_618_163)" stroke="url(#paint5_linear_618_163)" stroke-width="2"/>
<defs>
<linearGradient id="paint0_linear_618_163" x1="95.0224" y1="99.0086" x2="78.9169" y2="84.3627" gradientUnits="userSpaceOnUse">
<stop stop-color="#2D30FF"/>
<stop offset="1" stop-color="#00C0FF"/>
</linearGradient>
<linearGradient id="paint1_linear_618_163" x1="95.0224" y1="99.0086" x2="78.9169" y2="84.3627" gradientUnits="userSpaceOnUse">
<stop stop-color="#2D30FF"/>
<stop offset="1" stop-color="#00C0FF"/>
</linearGradient>
<linearGradient id="paint2_linear_618_163" x1="102.5" y1="113.5" x2="41" y2="39.5" gradientUnits="userSpaceOnUse">
<stop stop-color="#2D30FF"/>
<stop offset="1" stop-color="#00C0FF"/>
</linearGradient>
<linearGradient id="paint3_linear_618_163" x1="102.5" y1="113.5" x2="41" y2="39.5" gradientUnits="userSpaceOnUse">
<stop stop-color="#2D30FF"/>
<stop offset="1" stop-color="#00C0FF"/>
</linearGradient>
<linearGradient id="paint4_linear_618_163" x1="49.8243" y1="52.6639" x2="33.7314" y2="34.826" gradientUnits="userSpaceOnUse">
<stop stop-color="#2D30FF"/>
<stop offset="1" stop-color="#00C0FF"/>
</linearGradient>
<linearGradient id="paint5_linear_618_163" x1="49.8243" y1="52.6639" x2="33.7314" y2="34.826" gradientUnits="userSpaceOnUse">
<stop stop-color="#2D30FF"/>
<stop offset="1" stop-color="#00C0FF"/>
</linearGradient>
</defs>
</svg>
