<svg width="256" height="256" viewBox="0 0 256 256" fill="none" xmlns="http://www.w3.org/2000/svg">
<path d="M231.083 108.91C228.778 109.186 226.676 110.366 225.24 112.19C223.805 114.015 223.153 116.336 223.428 118.641C223.884 122.474 224.112 126.329 224.112 130.189C224.13 153.763 215.465 176.518 199.772 194.109C190.013 179.958 176.284 169.013 160.314 162.652C168.891 155.896 175.15 146.635 178.22 136.157C181.29 125.679 181.018 114.505 177.443 104.188C173.868 93.8716 167.166 84.9256 158.271 78.594C149.376 72.2625 138.729 68.8601 127.81 68.8601C116.892 68.8601 106.245 72.2625 97.3496 78.594C88.4544 84.9256 81.7533 93.8716 78.1781 104.188C74.6028 114.505 74.3312 125.679 77.401 136.157C80.4707 146.635 86.7293 155.896 95.3063 162.652C79.3369 169.013 65.6077 179.958 55.8489 194.109C43.5103 180.241 35.4454 163.1 32.626 144.753C29.8065 126.405 32.3529 107.634 39.9582 90.7006C47.5636 73.7674 59.9033 59.3947 75.4906 49.3145C91.0779 39.2342 109.248 33.8765 127.81 33.8869C130.795 33.8869 133.804 34.0248 136.757 34.2962C139.069 34.509 141.371 33.7947 143.156 32.3103C144.942 30.8259 146.064 28.693 146.277 26.3808C146.49 24.0686 145.776 21.7666 144.292 19.9811C142.807 18.1956 140.674 17.0729 138.362 16.8601C134.854 16.5385 131.333 16.3775 127.81 16.3775C104.872 16.3668 82.4656 23.2912 63.5324 36.2419C44.5993 49.1927 30.0237 67.5647 21.7183 88.9471C13.4129 110.329 11.7658 133.723 16.9931 156.058C22.2205 178.394 34.078 198.627 51.0097 214.103C51.4426 214.59 51.929 215.027 52.4597 215.405C73.2368 233.828 100.043 244 127.812 244C155.58 244 182.387 233.826 203.163 215.403C203.692 215.026 204.176 214.591 204.608 214.107C216.275 203.463 225.593 190.502 231.966 176.052C238.339 161.602 241.628 145.982 241.622 130.189C241.622 125.636 241.352 121.087 240.814 116.566C240.678 115.425 240.318 114.321 239.755 113.318C239.193 112.316 238.438 111.434 237.534 110.723C236.631 110.012 235.596 109.486 234.489 109.175C233.382 108.864 232.225 108.774 231.083 108.91ZM92.7916 121.434C92.7916 114.508 94.8454 107.737 98.6933 101.979C102.541 96.2197 108.01 91.7313 114.409 89.0808C120.808 86.4303 127.849 85.7368 134.642 87.088C141.435 88.4392 147.675 91.7744 152.572 96.6719C157.47 101.569 160.805 107.809 162.156 114.602C163.508 121.395 162.814 128.436 160.164 134.835C157.513 141.234 153.025 146.703 147.266 150.551C141.507 154.399 134.736 156.453 127.81 156.453C118.526 156.442 109.625 152.75 103.06 146.185C96.4948 139.619 92.802 130.718 92.7916 121.434ZM68.8069 206.244C75.1448 196.346 83.8709 188.202 94.1818 182.56C104.493 176.919 116.057 173.962 127.81 173.962C139.564 173.962 151.128 176.919 161.439 182.56C171.75 188.202 180.476 196.346 186.814 206.244C169.945 219.367 149.182 226.491 127.81 226.491C106.438 226.491 85.6761 219.367 68.8069 206.244Z" fill="url(#paint0_linear_637_218)" stroke="url(#paint1_linear_637_218)" stroke-width="6"/>
<path d="M209 82C227.225 82 242 67.2254 242 49C242 30.7746 227.225 16 209 16C190.775 16 176 30.7746 176 49C176 67.2254 190.775 82 209 82Z" fill="url(#paint2_linear_637_218)"/>
<defs>
<linearGradient id="paint0_linear_637_218" x1="127.811" y1="16.3774" x2="127.811" y2="244" gradientUnits="userSpaceOnUse">
<stop stop-color="#FF97CE"/>
<stop offset="1" stop-color="#854FE6"/>
</linearGradient>
<linearGradient id="paint1_linear_637_218" x1="127.811" y1="16.3774" x2="127.811" y2="244" gradientUnits="userSpaceOnUse">
<stop stop-color="#FF97CE"/>
<stop offset="1" stop-color="#854FE6"/>
</linearGradient>
<linearGradient id="paint2_linear_637_218" x1="206.13" y1="80.2274" x2="213.587" y2="20.5896" gradientUnits="userSpaceOnUse">
<stop stop-color="#8D01A2"/>
<stop offset="1" stop-color="#FF33DB"/>
</linearGradient>
</defs>
</svg>
