<svg width="512" height="512" viewBox="0 0 512 512" fill="none" xmlns="http://www.w3.org/2000/svg">
<g clip-path="url(#clip0)">
<path d="M256 192C220.6 192 192 220.6 192 256C192 291.4 220.6 320 256 320C291.4 320 320 291.4 320 256C320 220.6 291.4 192 256 192ZM256 362.7C232.5 362.7 213.3 381.8 213.3 405.4V469.4C213.3 492.9 232.4 512.1 256 512.1C279.5 512.1 298.7 493 298.7 469.4V405.4C298.7 381.8 279.5 362.7 256 362.7ZM469.3 213.3H405.3C381.8 213.3 362.6 232.4 362.6 256C362.6 279.5 381.7 298.7 405.3 298.7H469.3C492.8 298.7 512 279.6 512 256C512 232.5 492.9 213.3 469.3 213.3ZM149.3 256C149.3 232.5 130.2 213.3 106.6 213.3H42.6C19.1 213.3 0 232.5 0 256C0 279.5 19.1 298.7 42.7 298.7H106.7C130.2 298.7 149.3 279.5 149.3 256ZM391.8 331.4C375.1 314.8 348.1 314.8 331.4 331.4C314.8 348.1 314.8 375.1 331.4 391.8L376.7 437.1C393.3 453.7 420.4 453.7 437 437.1C453.6 420.4 453.6 393.4 437 376.8L391.8 331.4ZM120.2 180.6C136.9 197.2 163.9 197.2 180.6 180.6C197.2 163.9 197.2 136.9 180.6 120.2L135.3 75C118.7 58.3 91.6 58.3 75 75C58.4 91.7 58.4 118.7 75 135.3L120.2 180.6ZM120.2 331.4L75 376.7C58.4 393.3 58.4 420.4 75 437C91.7 453.6 118.7 453.6 135.3 437L180.6 391.7C197.2 375 197.2 348 180.6 331.3C163.9 314.8 136.9 314.8 120.2 331.4Z" fill="url(#paint0_linear)"/>
<path d="M298.7 106.6C298.7 130.2 279.5 149.3 256 149.3C232.5 149.3 213.3 130.2 213.3 106.7V42.7C213.3 19.1 232.5 0 256 0C279.5 0 298.7 19.1 298.7 42.6V106.6Z" fill="url(#paint1_linear)"/>
<path d="M437.1 135.3L391.8 180.6C375.1 197.2 348.1 197.2 331.5 180.7C314.9 164 314.9 137 331.5 120.3L376.8 75C393.4 58.4 420.4 58.4 437.1 75C453.7 91.6 453.7 118.7 437.1 135.3Z" fill="url(#paint2_linear)"/>
</g>
<defs>
<linearGradient id="paint0_linear" x1="256" y1="512.1" x2="256" y2="62.475" gradientUnits="userSpaceOnUse">
<stop stop-color="#5570FF"/>
<stop offset="1" stop-color="#4DD3FF"/>
</linearGradient>
<linearGradient id="paint1_linear" x1="213.334" y1="93.6707" x2="449.589" y2="93.6707" gradientUnits="userSpaceOnUse">
<stop stop-color="#A93AFF"/>
<stop offset="1" stop-color="#FF81FF"/>
</linearGradient>
<linearGradient id="paint2_linear" x1="213.334" y1="93.6707" x2="449.589" y2="93.6707" gradientUnits="userSpaceOnUse">
<stop stop-color="#A93AFF"/>
<stop offset="1" stop-color="#FF81FF"/>
</linearGradient>
<clipPath id="clip0">
<rect width="512" height="512" fill="white"/>
</clipPath>
</defs>
</svg>
