<svg width="128" height="128" viewBox="0 0 128 128" fill="none" xmlns="http://www.w3.org/2000/svg">
<path d="M64 21.125C40.4509 21.125 21.125 40.4553 21.125 64C21.125 87.5064 40.4568 106.875 64 106.875C87.5064 106.875 106.875 87.5432 106.875 64C106.875 40.4509 87.5445 21.125 64 21.125ZM91.8795 87.2391L89.7296 85.089C88.4486 83.8076 86.3709 83.8078 85.0892 85.089C83.8078 86.3705 83.8078 88.4479 85.0892 89.7294L87.2391 91.8795C81.7266 96.4824 74.8336 99.4828 67.281 100.163V97.0312C67.281 95.2191 65.8119 93.75 63.9998 93.75C62.1877 93.75 60.7185 95.2191 60.7185 97.0312V100.163C53.166 99.483 46.2732 96.4824 40.7604 91.8795L42.9103 89.7294C44.1917 88.4479 44.1917 86.3705 42.9103 85.089C41.6291 83.8078 39.5514 83.8076 38.27 85.089L36.1201 87.2391C31.5176 81.7266 28.517 74.8336 27.8373 67.2812H30.9688C32.7809 67.2812 34.25 65.8121 34.25 64C34.25 62.1879 32.7809 60.7188 30.9688 60.7188H27.8373C28.517 53.1664 31.5176 46.2734 36.1203 40.7607L38.2702 42.9105C39.5514 44.1918 41.6291 44.192 42.9105 42.9105C44.192 41.6291 44.192 39.5516 42.9105 38.2702L40.7607 36.1203C46.2734 31.5176 53.1662 28.517 60.7188 27.8373V30.9688C60.7188 32.7809 62.1879 34.25 64 34.25C65.8121 34.25 67.2812 32.7809 67.2812 30.9688V27.8373C74.8338 28.517 81.7266 31.5176 87.2393 36.1203L85.0895 38.2702C83.808 39.5516 83.808 41.6291 85.0895 42.9105C86.3707 44.1918 88.4484 44.192 89.7298 42.9105L91.8797 40.7607C96.4824 46.2734 99.483 53.1662 100.163 60.7188H97.0312C95.2191 60.7188 93.75 62.1879 93.75 64C93.75 65.8121 95.2191 67.2791 97.0312 67.2791H100.163C99.483 74.8314 96.4824 81.7266 91.8795 87.2391ZM64 8C33.1657 8 8 33.1668 8 64C8 94.8343 33.167 120 64 120C94.8348 120 120 94.833 120 64C120 33.1652 94.833 8 64 8ZM64 113.438C36.74 113.438 14.5625 91.26 14.5625 64C14.5625 36.74 36.74 14.5625 64 14.5625C91.26 14.5625 113.438 36.74 113.438 64C113.438 91.26 91.26 113.438 64 113.438Z" fill="url(#paint0_linear_617_12)" stroke="url(#paint1_linear_617_12)" stroke-width="2"/>
<path d="M66.5624 62.9063H83.1874C84.9996 62.9063 86.4687 64.3754 86.4687 66.1875C86.4687 67.9996 84.9996 69.4687 83.1874 69.4687H63.2812C61.4691 69.4687 60 67.9996 60 66.1875V46.2813C60 44.4691 61.4691 43 63.2812 43C65.0933 43 66.5624 44.4691 66.5624 46.2813V62.9063Z" fill="url(#paint2_linear_617_12)" stroke="url(#paint3_linear_617_12)" stroke-width="4"/>
<defs>
<linearGradient id="paint0_linear_617_12" x1="64" y1="120" x2="64" y2="8" gradientUnits="userSpaceOnUse">
<stop offset="0.27446" stop-color="#CB0086"/>
<stop offset="1" stop-color="#4ABEFF"/>
</linearGradient>
<linearGradient id="paint1_linear_617_12" x1="64" y1="120" x2="64" y2="8" gradientUnits="userSpaceOnUse">
<stop offset="0.27446" stop-color="#CB0086"/>
<stop offset="1" stop-color="#4ABEFF"/>
</linearGradient>
<linearGradient id="paint2_linear_617_12" x1="72.0834" y1="68.7578" x2="75.0738" y2="44.8406" gradientUnits="userSpaceOnUse">
<stop stop-color="#8D01A2"/>
<stop offset="1" stop-color="#FF33DB"/>
</linearGradient>
<linearGradient id="paint3_linear_617_12" x1="72.0834" y1="68.7578" x2="75.0738" y2="44.8406" gradientUnits="userSpaceOnUse">
<stop stop-color="#8D01A2"/>
<stop offset="1" stop-color="#FF33DB"/>
</linearGradient>
</defs>
</svg>
