<svg width="128" height="128" viewBox="0 0 128 128" fill="none" xmlns="http://www.w3.org/2000/svg">
<path d="M96.9062 60.9375H54.25V37.5312C54.25 32.1034 58.6659 27.6875 64.0938 27.6875C69.5216 27.6875 73.9375 32.1034 73.9375 37.5312V51.0938C73.9375 52.9059 75.4066 54.375 77.2188 54.375H90.3438C92.1559 54.375 93.625 52.9059 93.625 51.0938V37.5312C93.625 21.2477 80.3773 8 64.0938 8C47.8102 8 34.5625 21.2477 34.5625 37.5312V60.9375H31.2812C29.4691 60.9375 28 62.4066 28 64.2188V83.9062C28 103.808 44.1917 120 64.0938 120C83.9958 120 100.188 103.808 100.188 83.9062V64.2188C100.188 62.4066 98.7184 60.9375 96.9062 60.9375ZM41.125 37.5312C41.125 24.8663 51.4288 14.5625 64.0938 14.5625C76.7587 14.5625 87.0625 24.8663 87.0625 37.5312V47.8125H80.5V37.5312C80.5 28.4848 73.1402 21.125 64.0938 21.125C55.0473 21.125 47.6875 28.4848 47.6875 37.5312V60.9375H41.125V37.5312ZM93.625 83.9062C93.625 100.19 80.3773 113.438 64.0938 113.438C47.8102 113.438 34.5625 100.19 34.5625 83.9062V67.5H93.625V83.9062ZM60.8125 93.1856V103.594C60.8125 105.406 62.2816 106.875 64.0938 106.875C65.9059 106.875 67.375 105.406 67.375 103.594V93.1856C71.1942 91.8311 73.9375 88.1839 73.9375 83.9062C73.9375 78.4784 69.5216 74.0625 64.0938 74.0625C58.6659 74.0625 54.25 78.4784 54.25 83.9062C54.25 88.1839 56.9933 91.8311 60.8125 93.1856ZM64.0938 80.625C65.903 80.625 67.375 82.097 67.375 83.9062C67.375 85.7155 65.903 87.1875 64.0938 87.1875C62.2845 87.1875 60.8125 85.7155 60.8125 83.9062C60.8125 82.097 62.2845 80.625 64.0938 80.625Z" fill="url(#paint0_linear_637_204)" stroke="url(#paint1_linear_637_204)" stroke-width="3"/>
<defs>
<linearGradient id="paint0_linear_637_204" x1="52.5" y1="105.5" x2="89" y2="42" gradientUnits="userSpaceOnUse">
<stop offset="0.120348" stop-color="#0041E8"/>
<stop offset="1" stop-color="#59FFF5"/>
</linearGradient>
<linearGradient id="paint1_linear_637_204" x1="52.5" y1="105.5" x2="89" y2="42" gradientUnits="userSpaceOnUse">
<stop offset="0.120348" stop-color="#0041E8"/>
<stop offset="1" stop-color="#59FFF5"/>
</linearGradient>
</defs>
</svg>
