<svg width="192" height="192" viewBox="0 0 192 192" fill="none" xmlns="http://www.w3.org/2000/svg">
<path fill-rule="evenodd" clip-rule="evenodd" d="M78.1649 8.06532C74.7239 7.89113 71.5108 10.7652 71.272 14.2054C71.2504 14.4883 71.2291 14.7717 71.2078 15.0555L71.2072 15.0633C70.8324 20.0528 70.4483 25.1677 68.2001 29.7081C65.6058 35.5978 59.7333 39.9743 53.2638 40.3118C47.0331 40.8779 41.1931 38.2978 35.6463 35.8047C32.2487 34.1281 28.0913 35.87 26.4956 39.2014C24.1934 43.0685 21.874 46.927 19.5545 50.7858C16.0232 56.6605 12.4916 62.5359 9.01925 68.4431C6.83742 71.7418 8.3354 76.434 11.8307 78.1214C16.6068 80.8431 21.0356 84.2506 24.151 88.8557C27.6462 86.0143 31.2175 83.2817 34.8756 80.658C32.303 76.9892 29.1442 73.7994 25.7792 70.8708C25.421 70.5225 24.6937 69.8148 24.3355 69.4556C26.4557 65.6753 28.7021 61.9662 30.9488 58.2568L30.9488 58.2566L30.9491 58.2562L30.9492 58.2561L30.9492 58.256L30.9493 58.2559L30.9494 58.2558L30.9494 58.2557L30.9495 58.2555L30.9496 58.2554L30.9496 58.2553L30.9497 58.2552L30.9498 58.2551L30.9498 58.255L30.9499 58.2549L30.95 58.2547L30.95 58.2546L30.9501 58.2545C32.4297 55.8115 33.9094 53.3683 35.3532 50.9046C35.7853 51.0236 36.2179 51.1438 36.651 51.2642L36.6547 51.2652C41.7257 52.6742 46.8691 54.1033 52.1783 53.9529C61.1444 53.942 70.1105 49.9248 75.7985 42.9137C80.7809 36.9369 83.2992 29.338 84.4607 21.739C88.4897 21.6492 92.5125 21.6329 96.5383 21.6166H96.5384C97.8814 21.6111 99.2247 21.6057 100.569 21.5975C101.71 21.6084 102.848 21.6165 103.985 21.6247L103.986 21.6247L103.986 21.6247L103.987 21.6247L103.988 21.6247L103.988 21.6247L103.989 21.6247L103.989 21.6247L103.99 21.6247L103.991 21.6247L103.991 21.6247L103.992 21.6247L103.992 21.6247L103.993 21.6247L103.994 21.6247L103.994 21.6247L103.995 21.6248C105.137 21.6329 106.278 21.6411 107.418 21.652L107.982 24.439C108.829 29.1965 110.457 33.7689 112.693 38.0365C115.168 41.9339 118.099 45.6028 121.833 48.3462C125.176 50.4365 128.78 52.1239 132.612 53.0819C134.036 49.5878 136.895 47.3016 139.768 45.0039C141.603 43.536 143.445 42.0634 144.921 40.2683C144.554 40.2731 144.186 40.2795 143.816 40.286H143.816H143.816H143.816C140.008 40.3525 136.082 40.421 132.579 38.7441C128.042 36.8172 125.035 32.6149 123.071 28.2493C121.431 23.764 121.019 19.0065 120.737 14.2708C120.541 10.907 117.698 8.54462 114.55 8.0001L114.55 8H114.549C108.482 8.06532 102.417 8.04899 96.3529 8.03266C90.2894 8.01633 84.2271 8 78.1649 8.06532ZM164.711 38.1127C162.866 35.1188 158.73 34.4221 155.745 36.0442C153.253 37.247 150.652 38.1844 148.053 39.1204L148.053 39.1204L148.053 39.1205L148.053 39.1205L148.053 39.1206L148.053 39.1206C147.006 39.4977 145.96 39.8745 144.922 40.2683C143.446 42.0635 141.604 43.5361 139.769 45.004C136.896 47.3016 134.037 49.5879 132.613 53.0819C140.57 54.9327 148.808 53.4085 156.407 50.7848C156.759 51.3554 157.111 51.9228 157.463 52.4904L157.466 52.4953C157.764 52.9767 158.063 53.4582 158.361 53.942C159.22 55.3498 160.07 56.7645 160.92 58.1798L160.922 58.1824L160.923 58.1833L160.923 58.1843L160.924 58.1853L160.924 58.1863L160.925 58.1873L160.926 58.1883L160.926 58.1893L160.927 58.1903L160.927 58.1913L160.928 58.1923L160.929 58.1933L160.929 58.1943L160.93 58.1953C161.924 59.8501 162.918 61.5056 163.929 63.1517L163.928 63.1522C164.284 63.7604 164.639 64.3695 164.994 64.9787L164.998 64.9849L165 64.9884C165.889 66.5133 166.778 68.0389 167.684 69.5535C163.147 73.4619 158.566 77.5662 155.82 82.9878C152.52 88.7795 151.879 95.7035 153.095 102.181C155.295 100.522 157.533 98.9265 159.77 97.3308L159.771 97.3305L159.771 97.3302L159.771 97.33L159.772 97.3298L159.772 97.3295L159.772 97.3293L159.773 97.3291L159.773 97.3288L159.773 97.3286L159.774 97.3284L159.774 97.3282L159.774 97.3279L159.775 97.3277L159.775 97.3275C161.81 95.8763 163.845 94.4254 165.85 92.9274C166.273 92.2178 166.677 91.4932 167.083 90.7678C168.468 88.2878 169.858 85.7985 171.983 83.8696C173.663 82.1847 175.641 80.9016 177.619 79.6192C179.117 78.6478 180.614 77.6768 181.98 76.5319C183.995 74.9537 183.871 72.2896 183.763 69.9621V69.9617V69.9613L183.763 69.9607C183.754 69.7679 183.746 69.5775 183.738 69.3902C181.416 65.787 179.214 62.1117 177.012 58.4355L177.012 58.4354L177.012 58.4352L177.012 58.4351L177.012 58.4349L177.012 58.4347L177.012 58.4346L177.011 58.4344L177.011 58.4342L177.011 58.4341L177.011 58.4339L177.011 58.4338L177.011 58.4336L177.011 58.4334C176.127 56.957 175.242 55.4803 174.35 54.0082L174.35 54.0073C173.133 52.0266 171.955 50.0199 170.777 48.0136C168.816 44.6715 166.855 41.3305 164.711 38.1127ZM104.076 63.1087C89.8238 59.429 73.5089 66.2441 66.4532 79.2864C61.026 88.4637 60.7762 100.123 65.0419 109.801L65.041 109.802C67.7873 115.67 72.0533 120.83 77.4481 124.412C77.7368 124.568 78.2173 124.835 78.6245 125.062L78.6247 125.062L78.8359 125.18C78.9424 125.239 79.039 125.292 79.1195 125.337L79.1191 125.337C87.9875 130.497 98.875 130.911 108.46 127.623C109.411 128.467 110.361 129.3 111.312 130.134L111.314 130.135L111.553 130.345C115.57 128.973 119.022 126.295 121.594 122.931C121.509 122.637 121.424 122.344 121.34 122.051L121.337 122.04L121.333 122.029L121.333 122.029L121.333 122.028C121.084 121.169 120.837 120.313 120.596 119.458C127.478 111.696 131.005 101.169 129.573 90.8045C129.393 89.8312 129.167 88.8748 128.942 87.9191L128.942 87.9189L128.942 87.9187L128.942 87.9185L128.942 87.9183L128.942 87.9182L128.942 87.918L128.942 87.9178L128.942 87.9176C128.855 87.5483 128.767 87.1791 128.683 86.8091C124.883 90.4779 120.726 93.744 116.362 96.6943C115.776 102.965 112.672 109.105 107.342 112.611C102.815 115.822 97.0302 116.606 91.6462 115.757L91.6463 115.757C84.8295 113.961 78.9136 108.909 76.6992 102.127L76.4171 101.278L76.418 101.277C74.4533 93.8419 76.9065 85.4156 82.8767 80.4948C88.6512 75.3892 97.215 74.4637 104.249 77.3045L104.248 77.3048C105.518 78.0342 106.756 78.8507 107.95 79.6999C113.421 83.4993 116.243 90.1403 116.362 96.6941C120.726 93.7438 124.883 90.4777 128.683 86.8089C126.577 79.6132 122.105 73.2883 116.222 68.7051L116.223 68.7045C112.489 66.2332 108.462 64.1103 104.076 63.1087ZM24.1512 88.8557C27.6464 86.0143 31.2177 83.2817 34.8758 80.658C36.9057 84.1744 38.523 87.963 39.3154 91.9584C39.8907 98.534 38.6316 105.338 34.9518 110.88C33.5431 113.296 31.5918 115.262 29.6425 117.226C27.5963 119.287 25.5524 121.346 24.1403 123.922L24.1403 123.922L25.2687 124.434C28.1512 128.632 30.7056 133.055 33.2587 137.476L33.2589 137.477C34.0228 138.8 34.7867 140.122 35.5591 141.439C32.0096 144.258 28.3841 147.045 24.2918 149.07C22.6443 146.288 20.9766 143.519 19.3092 140.751L19.3091 140.751L19.309 140.751L19.3089 140.751L19.3089 140.751C17.2961 137.409 15.2835 134.068 13.3066 130.704L13.307 130.704C12.8035 129.754 12.162 128.767 11.502 127.751C9.05992 123.992 6.36493 119.843 9.4754 115.789C11.0384 114.431 12.789 113.258 14.5428 112.083L14.5429 112.083C17.99 109.774 21.4496 107.457 23.5216 103.705C26.5501 99.2961 26.257 93.5806 24.1512 88.8557ZM159.771 97.3308L159.771 97.3305L159.772 97.3303L159.772 97.3301L159.772 97.3298L159.773 97.3296L159.773 97.3294L159.773 97.3291L159.774 97.3289C161.809 95.8773 163.845 94.4259 165.851 92.9275C165.868 93.1124 165.885 93.2973 165.901 93.4823L165.904 93.5083V93.5085C166.133 96.0281 166.363 98.5605 166.969 101.027C168.771 105.077 172.027 108.201 175.381 110.978C172.222 114.298 168.64 117.161 164.885 119.752C159.197 115.354 155.115 109.072 153.096 102.181C155.295 100.523 157.533 98.9266 159.771 97.3308ZM184 117.15C181.514 114.592 178.486 112.698 175.381 110.978C172.222 114.298 168.64 117.161 164.885 119.752L164.984 119.854C165.842 120.736 166.709 121.627 167.555 122.528C163.908 128.81 160.217 135.081 156.342 141.232C150.534 139.457 144.412 137.846 138.301 138.641C136.77 138.63 135.229 138.641 133.699 138.673C129.716 133.295 125.83 127.83 122.052 122.3L121.596 122.931C119.024 126.295 115.572 128.973 111.555 130.345L110.893 130.508C113.502 133.97 116.006 137.509 118.511 141.048L118.511 141.049L118.512 141.05C120.622 144.032 122.733 147.015 124.906 149.952L124.906 149.952C125.525 150.845 126.122 151.759 126.708 152.685C129.693 153.245 132.661 152.884 135.631 152.524H135.631C138.493 152.176 141.357 151.828 144.239 152.304C147.286 152.566 150.112 153.642 152.939 154.718C154.805 155.428 156.671 156.139 158.6 156.615C161.921 157.246 164.472 154.481 165.97 151.868C171.246 143.028 176.532 134.177 181.872 125.359C183.533 122.942 183.859 120.003 184 117.15ZM35.5603 141.439C46.3935 136.387 60.1032 136.55 70.0897 143.562L70.0895 143.562C75.9836 147.927 80.141 154.263 82.4638 161.165L82.4629 161.165C83.2552 164.116 83.9065 167.11 84.4166 170.125C87.2799 170.239 90.1468 170.246 93.0131 170.254H93.0145C95.092 170.259 97.1692 170.264 99.2444 170.31C97.1116 172.606 94.6874 174.576 92.2645 176.546L92.2645 176.546C89.459 178.826 86.6554 181.105 84.308 183.886C83.5221 183.871 82.6938 183.905 81.8496 183.94C78.5316 184.077 74.9695 184.225 72.7801 181.404C71.0904 178.986 70.9756 176.083 70.861 173.185C70.7996 171.634 70.7383 170.085 70.4355 168.612L70.4364 168.611C69.3184 164.91 68.1027 161.111 65.6604 158.052C64.0648 156.255 62.2303 154.688 60.2656 153.327L60.2657 153.327C53.5466 150.42 45.8073 151.324 39.3487 154.47C36.2876 156.103 32.8792 156.843 29.4165 156.647C27.5603 154.231 25.791 151.727 24.293 149.07C28.3853 147.045 32.0108 144.258 35.5603 141.439ZM103.856 170.255C102.319 170.281 100.781 170.307 99.245 170.31C97.1121 172.606 94.6879 174.576 92.2651 176.546C89.4596 178.826 86.656 181.106 84.3086 183.886C91.47 183.968 98.6314 183.957 105.793 183.947C108.194 183.944 110.596 183.94 112.998 183.94C116.211 184.18 119.696 182.373 120.531 179.085C121.91 175.34 119.077 170.767 115.093 170.397C111.359 170.127 107.608 170.191 103.856 170.255Z" fill="url(#paint0_linear_641_141)"/>
<path d="M71.272 14.2054L74.2633 14.4338L74.2641 14.4235L74.2648 14.4131L71.272 14.2054ZM78.1649 8.06532L78.0132 11.0615L78.1052 11.0661L78.1972 11.0651L78.1649 8.06532ZM71.2078 15.0555L68.2162 14.8307L68.2161 14.8318L71.2078 15.0555ZM71.2072 15.0633L74.1988 15.288L74.1989 15.287L71.2072 15.0633ZM68.2001 29.7081L65.5116 28.3769L65.4818 28.4372L65.4546 28.4988L68.2001 29.7081ZM53.2638 40.3118L53.1075 37.3159L53.0499 37.3189L52.9923 37.3241L53.2638 40.3118ZM35.6463 35.8047L34.3187 38.495L34.3672 38.5189L34.4164 38.541L35.6463 35.8047ZM26.4956 39.2014L29.0734 40.7361L29.1427 40.6196L29.2012 40.4974L26.4956 39.2014ZM19.5545 50.7858L22.1258 52.3313L22.1258 52.3313L19.5545 50.7858ZM9.01925 68.4431L11.5214 70.0981L11.5653 70.0318L11.6055 69.9634L9.01925 68.4431ZM11.8307 78.1214L13.316 75.5149L13.2271 75.4642L13.135 75.4197L11.8307 78.1214ZM24.151 88.8557L21.6662 90.5367L23.5017 93.2498L26.0434 91.1835L24.151 88.8557ZM34.8756 80.658L36.6241 83.0958L39.036 81.3659L37.3319 78.9356L34.8756 80.658ZM25.7792 70.8708L23.6878 73.0216L23.7472 73.0794L23.8097 73.1338L25.7792 70.8708ZM24.3355 69.4556L21.7189 67.9881L20.6089 69.9672L22.2112 71.574L24.3355 69.4556ZM30.9488 58.2568L33.5148 59.8109L33.5233 59.797L33.5315 59.7829L30.9488 58.2568ZM30.9488 58.2566L28.3926 56.6864L28.3791 56.7083L28.3661 56.7304L30.9488 58.2566ZM30.9491 58.2562L33.5053 59.8265L33.5135 59.8131L33.5216 59.7997L30.9491 58.2562ZM30.9501 58.2545L28.384 56.7004L28.3776 56.711L30.9501 58.2545ZM35.3532 50.9046L36.15 48.0123L33.9294 47.4006L32.7649 49.3878L35.3532 50.9046ZM36.651 51.2642L35.8479 54.1547L35.8507 54.1555L36.651 51.2642ZM36.6547 51.2652L37.4579 48.3747L37.4551 48.3739L36.6547 51.2652ZM52.1783 53.9529L52.1747 50.9529L52.134 50.953L52.0933 50.9541L52.1783 53.9529ZM75.7985 42.9137L73.4942 40.9928L73.4814 41.0081L73.4688 41.0236L75.7985 42.9137ZM84.4607 21.739L84.3939 18.7397L81.8757 18.7958L81.4951 21.2857L84.4607 21.739ZM96.5383 21.6166L96.5383 18.6166L96.5261 18.6166L96.5383 21.6166ZM96.5384 21.6166L96.5384 24.6166L96.5506 24.6166L96.5384 21.6166ZM100.569 21.5975L100.597 18.5976L100.574 18.5974L100.55 18.5976L100.569 21.5975ZM103.985 21.6247L104.013 18.6248L104.007 18.6247L103.985 21.6247ZM103.995 21.6248L103.967 24.6246L103.973 24.6247L103.995 21.6248ZM107.418 21.652L110.359 21.057L109.877 18.6754L107.447 18.6521L107.418 21.652ZM107.982 24.439L110.936 23.9132L110.93 23.8785L110.923 23.844L107.982 24.439ZM112.693 38.0365L110.036 39.4288L110.094 39.5394L110.161 39.6447L112.693 38.0365ZM121.833 48.3462L120.057 50.7638L120.148 50.8303L120.243 50.8898L121.833 48.3462ZM132.612 53.0819L131.885 55.9923L134.409 56.6233L135.39 54.2142L132.612 53.0819ZM139.768 45.0039L137.894 42.6611L137.894 42.6611L139.768 45.0039ZM144.921 40.2683L147.238 42.1741L151.343 37.1837L144.882 37.2685L144.921 40.2683ZM143.816 40.286V43.286H143.843L143.869 43.2855L143.816 40.286ZM143.816 40.286V37.286H143.789L143.763 37.2864L143.816 40.286ZM132.579 38.7441L133.875 36.0382L133.814 36.0091L133.752 35.9828L132.579 38.7441ZM123.071 28.2493L120.254 29.2795L120.291 29.3813L120.335 29.4801L123.071 28.2493ZM120.737 14.2708L117.742 14.4453L117.743 14.4491L120.737 14.2708ZM114.55 8.0001L112.285 6.03277L108.796 10.0493L114.039 10.9562L114.55 8.0001ZM114.55 8L116.815 9.96733L121.13 5H114.55V8ZM114.549 8V5H114.533L114.517 5.00017L114.549 8ZM96.3529 8.03266L96.3448 11.0326L96.3529 8.03266ZM155.745 36.0442L157.049 38.746L157.114 38.7146L157.178 38.6802L155.745 36.0442ZM164.711 38.1127L162.157 39.6866L162.185 39.7317L162.214 39.7758L164.711 38.1127ZM148.053 39.1204L147.037 36.2979L147.018 36.3045L147 36.3114L148.053 39.1204ZM148.053 39.1206L149.069 41.9431L149.088 41.9365L149.106 41.9296L148.053 39.1206ZM144.922 40.2683L143.858 37.4635L143.112 37.7465L142.605 38.3625L144.922 40.2683ZM139.769 45.004L137.895 42.6611L137.895 42.6611L139.769 45.004ZM132.613 53.0819L129.835 51.9496L128.508 55.207L131.934 56.0039L132.613 53.0819ZM156.407 50.7848L158.961 49.2106L157.7 47.1647L155.428 47.9491L156.407 50.7848ZM157.463 52.4904L160.017 50.9168L160.012 50.9097L157.463 52.4904ZM157.466 52.4953L154.911 54.069L154.916 54.076L157.466 52.4953ZM158.361 53.942L160.922 52.3792L160.918 52.3726L160.914 52.366L158.361 53.942ZM160.92 58.1798L158.349 59.7246L158.353 59.7316L160.92 58.1798ZM160.922 58.1824L163.497 56.6432L163.493 56.6368L163.489 56.6305L160.922 58.1824ZM160.93 58.1953L158.355 59.7344L158.358 59.7402L160.93 58.1953ZM163.929 63.1517L165.506 65.7035L168.05 64.1309L166.486 61.5821L163.929 63.1517ZM163.928 63.1522L162.351 60.6004L159.86 62.1403L161.339 64.6677L163.928 63.1522ZM164.994 64.9787L167.59 63.4739L167.586 63.4679L164.994 64.9787ZM164.998 64.9849L162.403 66.4897L162.406 66.4964L162.41 66.503L164.998 64.9849ZM165 64.9884L167.592 63.4776L167.587 63.4703L165 64.9884ZM167.684 69.5535L169.642 71.8264L171.554 70.1792L170.259 68.0134L167.684 69.5535ZM155.82 82.9878L158.427 84.473L158.463 84.409L158.496 84.3433L155.82 82.9878ZM153.095 102.181L150.147 102.735L151.039 107.489L154.901 104.576L153.095 102.181ZM159.77 97.3308L158.05 94.8731L158.039 94.8806L158.029 94.8882L159.77 97.3308ZM159.771 97.3305L161.491 99.7881L161.503 99.78L161.515 99.7717L159.771 97.3305ZM159.775 97.3275L158.033 94.8849L158.031 94.8863L159.775 97.3275ZM165.85 92.9274L167.645 95.3309L168.123 94.9743L168.428 94.4623L165.85 92.9274ZM167.083 90.7678L169.702 92.2306L169.702 92.2305L167.083 90.7678ZM171.983 83.8696L173.999 86.0911L174.055 86.0407L174.108 85.9876L171.983 83.8696ZM177.619 79.6192L175.986 77.1022L175.986 77.1022L177.619 79.6192ZM181.98 76.5319L180.13 74.1702L180.091 74.2007L180.053 74.2325L181.98 76.5319ZM183.763 69.9621H180.763V70.0316L180.767 70.101L183.763 69.9621ZM183.763 69.9613H186.763V69.8438L186.754 69.7267L183.763 69.9613ZM183.763 69.9607L180.767 70.0997L180.769 70.1475L180.773 70.1953L183.763 69.9607ZM183.738 69.3902L186.736 69.2701L186.703 68.4526L186.26 67.7649L183.738 69.3902ZM177.012 58.4355L174.407 59.9239L174.423 59.9507L174.438 59.9771L177.012 58.4355ZM177.011 58.4334L179.616 56.945L179.6 56.9183L179.585 56.8919L177.011 58.4334ZM174.35 54.0082L172.003 52.1394L170.7 53.7752L171.784 55.5633L174.35 54.0082ZM174.35 54.0073L176.697 55.8761L178.008 54.2294L176.906 52.4362L174.35 54.0073ZM170.777 48.0136L173.364 46.495L173.364 46.495L170.777 48.0136ZM66.4532 79.2864L69.0355 80.8134L69.0646 80.7642L69.0919 80.7138L66.4532 79.2864ZM104.076 63.1087L103.326 66.0134L103.367 66.024L103.408 66.0334L104.076 63.1087ZM65.0419 109.801L66.8316 112.209L68.7522 110.781L67.7871 108.592L65.0419 109.801ZM65.041 109.802L63.2513 107.394L61.2857 108.856L62.3239 111.074L65.041 109.802ZM77.4481 124.412L75.7887 126.911L75.9039 126.988L76.0257 127.053L77.4481 124.412ZM78.6245 125.062L77.165 127.683L77.2232 127.715L77.2828 127.745L78.6245 125.062ZM78.6247 125.062L80.0839 122.441L80.0258 122.408L79.9663 122.379L78.6247 125.062ZM78.8359 125.18L77.3767 127.801L77.3775 127.801L78.8359 125.18ZM79.1195 125.337L80.6813 127.898L85.0908 125.21L80.5707 122.711L79.1195 125.337ZM79.1191 125.337L77.5573 122.776L73.2576 125.397L77.6104 127.93L79.1191 125.337ZM108.46 127.623L110.451 125.379L109.142 124.217L107.487 124.785L108.46 127.623ZM111.312 130.134L109.334 132.39L109.335 132.39L111.312 130.134ZM111.314 130.135L113.292 127.88L113.291 127.879L111.314 130.135ZM111.553 130.345L109.575 132.601L110.88 133.745L112.523 133.184L111.553 130.345ZM121.594 122.931L123.977 124.753L124.895 123.552L124.477 122.1L121.594 122.931ZM121.34 122.051L124.222 121.218L124.221 121.216L121.34 122.051ZM121.337 122.04L124.218 121.205L124.218 121.204L121.337 122.04ZM121.333 122.029L124.215 121.193L124.211 121.183L121.333 122.029ZM121.333 122.028L118.451 122.862L118.455 122.875L121.333 122.028ZM120.596 119.458L118.351 117.468L117.264 118.694L117.708 120.271L120.596 119.458ZM129.573 90.8045L132.545 90.3939L132.535 90.3258L132.523 90.2583L129.573 90.8045ZM128.942 87.9191L131.862 87.2306L131.857 87.211L131.852 87.1915L128.942 87.9191ZM128.942 87.9176L126.022 88.6062L126.026 88.6257L126.031 88.6452L128.942 87.9176ZM128.683 86.8091L131.608 86.1418L130.425 80.9571L126.599 84.6508L128.683 86.8091ZM116.362 96.6943L114.682 94.209L113.507 95.0032L113.375 96.4152L116.362 96.6943ZM107.342 112.611L105.693 110.105L105.649 110.134L105.606 110.164L107.342 112.611ZM91.6462 115.757L89.6282 113.537L84.9986 117.746L91.179 118.721L91.6462 115.757ZM91.6463 115.757L93.6643 117.977L97.7499 114.263L92.4106 112.856L91.6463 115.757ZM76.6992 102.127L79.5511 101.196L79.5487 101.189L79.5463 101.182L76.6992 102.127ZM76.4171 101.278L74.63 98.8681L72.8854 100.162L73.57 102.223L76.4171 101.278ZM76.418 101.277L78.2052 103.687L79.8378 102.476L79.3185 100.511L76.418 101.277ZM82.8767 80.4948L84.7848 82.8097L84.8249 82.7767L84.8639 82.7422L82.8767 80.4948ZM104.249 77.3045L105.989 79.7479L110.447 76.5725L105.372 74.5228L104.249 77.3045ZM104.248 77.3048L102.508 74.8614L98.6966 77.576L102.754 79.9063L104.248 77.3048ZM107.95 79.6999L106.211 82.1447L106.225 82.1544L106.239 82.164L107.95 79.6999ZM116.362 96.6941L113.363 96.7486L113.463 102.275L118.042 99.1795L116.362 96.6941ZM128.683 86.8089L130.767 88.9672L132.072 87.7073L131.562 85.9663L128.683 86.8089ZM116.222 68.7051L114.467 66.2719L111.222 68.6125L114.378 71.0716L116.222 68.7051ZM116.223 68.7045L117.978 71.1376L121.498 68.5984L117.879 66.2027L116.223 68.7045ZM34.8758 80.658L37.474 79.1581L35.8184 76.2901L33.1274 78.2202L34.8758 80.658ZM24.1512 88.8557L22.2588 86.5278L20.4755 87.9776L21.4111 90.0769L24.1512 88.8557ZM39.3154 91.9584L42.304 91.6969L42.2898 91.5346L42.2581 91.3747L39.3154 91.9584ZM34.9518 110.88L32.4526 109.221L32.4042 109.293L32.3601 109.369L34.9518 110.88ZM29.6425 117.226L27.5134 115.112L27.5134 115.112L29.6425 117.226ZM24.1403 123.922L26.4585 125.826L26.6364 125.61L26.771 125.364L24.1403 123.922ZM24.1403 123.922L21.8221 122.018L19.3402 125.039L22.9011 126.654L24.1403 123.922ZM25.2687 124.434L27.7418 122.736L27.2689 122.047L26.5079 121.702L25.2687 124.434ZM33.2587 137.476L30.6607 138.977L30.6674 138.988L33.2587 137.476ZM33.2589 137.477L35.8568 135.976L35.8502 135.965L33.2589 137.477ZM35.5591 141.439L37.4249 143.788L39.4652 142.168L38.1466 139.921L35.5591 141.439ZM24.2918 149.07L21.7106 150.599L23.1285 152.993L25.6224 151.759L24.2918 149.07ZM19.3092 140.751L16.6713 142.18L16.704 142.24L16.7393 142.299L19.3092 140.751ZM19.3089 140.751L21.9467 139.322L21.9141 139.261L21.8787 139.203L19.3089 140.751ZM13.3066 130.704L12.0567 127.977L9.0375 129.36L10.7202 132.224L13.3066 130.704ZM13.307 130.704L14.557 133.431L17.4465 132.107L15.9575 129.298L13.307 130.704ZM11.502 127.751L8.98627 129.385L8.98627 129.385L11.502 127.751ZM9.4754 115.789L7.50755 113.525L7.27929 113.723L7.09522 113.963L9.4754 115.789ZM14.5428 112.083L16.2123 114.576L16.3178 114.505L16.4169 114.426L14.5428 112.083ZM14.5429 112.083L12.8733 109.591L12.7679 109.661L12.6688 109.741L14.5429 112.083ZM23.5216 103.705L21.0488 102.006L20.9661 102.127L20.8955 102.255L23.5216 103.705ZM159.771 97.3305L161.492 99.7882L161.503 99.78L161.515 99.7717L159.771 97.3305ZM159.771 97.3308L158.051 94.8731L158.04 94.8807L158.029 94.8883L159.771 97.3308ZM159.774 97.3289L158.032 94.8863L158.03 94.8877L159.774 97.3289ZM165.851 92.9275L168.838 92.653L168.348 87.3176L164.055 90.524L165.851 92.9275ZM165.901 93.4823L162.914 93.7541L162.914 93.7558L165.901 93.4823ZM165.904 93.5083H168.904V93.3713L168.891 93.2348L165.904 93.5083ZM165.904 93.5085H162.904V93.6447L162.916 93.7803L165.904 93.5085ZM166.969 101.027L164.055 101.742L164.119 102.002L164.228 102.247L166.969 101.027ZM175.381 110.978L177.554 113.046L179.77 110.717L177.294 108.667L175.381 110.978ZM164.885 119.752L163.05 122.125L164.784 123.466L166.589 122.221L164.885 119.752ZM153.096 102.181L151.289 99.7858L149.634 101.034L150.217 103.025L153.096 102.181ZM175.381 110.978L176.835 108.354L174.806 107.23L173.208 108.91L175.381 110.978ZM184 117.15L186.997 117.298L187.061 115.995L186.152 115.059L184 117.15ZM164.885 119.752L163.181 117.283L160.26 119.299L162.735 121.844L164.885 119.752ZM164.984 119.854L162.834 121.945L162.834 121.946L164.984 119.854ZM167.555 122.528L170.15 124.034L171.271 122.103L169.742 120.474L167.555 122.528ZM156.342 141.232L155.465 144.101L157.658 144.771L158.881 142.831L156.342 141.232ZM138.301 138.641L138.28 141.641L138.485 141.642L138.688 141.616L138.301 138.641ZM133.699 138.673L131.288 140.459L132.211 141.705L133.761 141.672L133.699 138.673ZM122.052 122.3L124.529 120.608L122.121 117.083L119.62 120.543L122.052 122.3ZM121.596 122.931L123.979 124.753L124.003 124.721L124.027 124.688L121.596 122.931ZM111.555 130.345L112.272 133.258L112.4 133.227L112.524 133.184L111.555 130.345ZM110.893 130.508L110.175 127.595L105.76 128.682L108.497 132.314L110.893 130.508ZM118.511 141.048L116.062 142.781L116.062 142.782L118.511 141.048ZM118.511 141.049L116.063 142.783L116.068 142.79L116.073 142.797L118.511 141.049ZM118.512 141.05L120.961 139.317L120.955 139.309L120.949 139.301L118.512 141.05ZM124.906 149.952L126.529 152.475L129.224 150.743L127.318 148.167L124.906 149.952ZM124.906 149.952L123.284 147.428L120.671 149.108L122.441 151.661L124.906 149.952ZM126.708 152.685L124.173 154.289L124.872 155.393L126.155 155.634L126.708 152.685ZM135.631 152.524V149.524H135.449L135.269 149.546L135.631 152.524ZM135.631 152.524V155.524H135.812L135.993 155.502L135.631 152.524ZM144.239 152.304L143.751 155.264L143.866 155.283L143.982 155.293L144.239 152.304ZM152.939 154.718L154.006 151.914L154.006 151.914L152.939 154.718ZM158.6 156.615L157.881 159.528L157.96 159.547L158.04 159.562L158.6 156.615ZM165.97 151.868L163.394 150.331L163.381 150.353L163.368 150.376L165.97 151.868ZM181.872 125.359L179.4 123.66L179.351 123.731L179.306 123.805L181.872 125.359ZM70.0897 143.562L72.2377 145.656L74.6985 143.132L71.8136 141.107L70.0897 143.562ZM35.5603 141.439L34.2923 138.72L33.9716 138.87L33.6945 139.09L35.5603 141.439ZM70.0895 143.562L67.9415 141.468L65.5428 143.928L68.3041 145.973L70.0895 143.562ZM82.4638 161.165L83.7183 163.89L86.167 162.763L85.3071 160.208L82.4638 161.165ZM82.4629 161.165L81.2084 158.44L78.9091 159.499L79.5655 161.943L82.4629 161.165ZM84.4166 170.125L81.4587 170.626L81.8649 173.026L84.2977 173.123L84.4166 170.125ZM93.0131 170.254L93.0054 173.254H93.0131V170.254ZM93.0145 170.254L93.0222 167.254H93.0145V170.254ZM99.2444 170.31L101.442 172.352L105.989 167.458L99.3106 167.311L99.2444 170.31ZM92.2645 176.546L90.3722 174.218L90.2524 174.315L90.1432 174.425L92.2645 176.546ZM92.2645 176.546L94.1568 178.874L94.2766 178.776L94.3858 178.667L92.2645 176.546ZM84.308 183.886L84.2492 186.885L85.6784 186.913L86.6004 185.821L84.308 183.886ZM81.8496 183.94L81.9736 186.937L81.9737 186.937L81.8496 183.94ZM72.7801 181.404L70.321 183.122L70.3641 183.184L70.4103 183.244L72.7801 181.404ZM70.861 173.185L67.8633 173.304L67.8633 173.304L70.861 173.185ZM70.4355 168.612L68.6224 166.222L67.1163 167.365L67.497 169.216L70.4355 168.612ZM70.4364 168.611L72.2496 171.001L73.9114 169.741L73.3083 167.744L70.4364 168.611ZM65.6604 158.052L68.0048 156.18L67.9558 156.119L67.9037 156.06L65.6604 158.052ZM60.2656 153.327L58.188 151.163L55.5412 153.704L58.5573 155.793L60.2656 153.327ZM60.2657 153.327L62.3433 155.491L65.5991 152.366L61.4569 150.574L60.2657 153.327ZM39.3487 154.47L38.0349 151.773L37.9853 151.797L37.9366 151.823L39.3487 154.47ZM29.4165 156.647L27.0375 158.475L27.8748 159.565L29.2469 159.642L29.4165 156.647ZM24.293 149.07L22.9625 146.381L20.1248 147.785L21.6797 150.543L24.293 149.07ZM99.245 170.31L99.2388 167.31L97.9347 167.313L97.0471 168.268L99.245 170.31ZM103.856 170.255L103.907 173.254L103.907 173.254L103.856 170.255ZM92.2651 176.546L94.1574 178.874L94.1574 178.874L92.2651 176.546ZM84.3086 183.886L82.0162 181.951L77.9113 186.813L84.2744 186.886L84.3086 183.886ZM105.793 183.947L105.797 186.947L105.797 186.947L105.793 183.947ZM112.998 183.94L113.221 180.948L113.11 180.94H112.998V183.94ZM120.531 179.085L117.716 178.048L117.662 178.195L117.623 178.347L120.531 179.085ZM115.093 170.397L115.37 167.41L115.34 167.407L115.309 167.405L115.093 170.397ZM74.2648 14.4131C74.3915 12.5877 76.2213 10.9708 78.0132 11.0615L78.3166 5.06916C73.2265 4.81149 68.6301 8.94265 68.2792 13.9977L74.2648 14.4131ZM74.1994 15.2802C74.2207 14.9961 74.2419 14.7145 74.2633 14.4338L68.2807 13.977C68.2589 14.262 68.2375 14.5472 68.2162 14.8307L74.1994 15.2802ZM74.1989 15.287L74.1994 15.2792L68.2161 14.8318L68.2156 14.8396L74.1989 15.287ZM70.8886 31.0393C73.4399 25.8867 73.8322 20.1684 74.1988 15.288L68.2156 14.8386C67.8327 19.9372 67.4567 24.4487 65.5116 28.3769L70.8886 31.0393ZM53.4201 43.3077C61.1128 42.9064 67.9331 37.7565 70.9456 30.9174L65.4546 28.4988C63.2785 33.4391 58.3538 37.0422 53.1075 37.3159L53.4201 43.3077ZM34.4164 38.541C39.8374 40.9775 46.3946 43.9483 53.5353 43.2995L52.9923 37.3241C47.6716 37.8075 42.5489 35.6181 36.8762 33.0684L34.4164 38.541ZM29.2012 40.4974C30.1644 38.4865 32.5979 37.6458 34.3187 38.495L36.9739 33.1144C31.8995 30.6104 26.0182 33.2535 23.79 37.9054L29.2012 40.4974ZM22.1258 52.3313C24.4447 48.4735 26.7673 44.6095 29.0734 40.7361L23.9178 37.6667C21.6194 41.5275 19.3033 45.3805 16.9833 49.2402L22.1258 52.3313ZM11.6055 69.9634C15.0691 64.071 18.5932 58.2082 22.1258 52.3313L16.9833 49.2402C13.4533 55.1129 9.91398 61.0009 6.43297 66.9228L11.6055 69.9634ZM13.135 75.4197C11.1486 74.4608 10.4183 71.7659 11.5214 70.0981L6.51706 66.7881C3.25654 71.7177 5.52223 78.4072 10.5264 80.823L13.135 75.4197ZM26.6358 87.1747C23.1676 82.0481 18.3124 78.3622 13.316 75.5149L10.3454 80.7279C14.9012 83.324 18.9036 86.4531 21.6662 90.5367L26.6358 87.1747ZM33.1271 78.2202C29.4188 80.88 25.7995 83.6493 22.2586 86.5279L26.0434 91.1835C29.4929 88.3793 33.0162 85.6834 36.6241 83.0958L33.1271 78.2202ZM23.8097 73.1338C27.0702 75.9714 30.036 78.9815 32.4193 82.3804L37.3319 78.9356C34.57 74.9969 31.2182 71.6274 27.7487 68.6078L23.8097 73.1338ZM22.2112 71.574C22.5897 71.9535 23.3371 72.6806 23.6878 73.0216L27.8706 68.72C27.5049 68.3644 26.7977 67.6761 26.4598 67.3372L22.2112 71.574ZM28.3827 56.7026C26.1404 60.4049 23.8678 64.1567 21.7189 67.9881L26.9521 70.9231C29.0437 67.1938 31.2639 63.5275 33.5148 59.8109L28.3827 56.7026ZM28.3661 56.7304L28.366 56.7306L33.5315 59.7829L33.5316 59.7828L28.3661 56.7304ZM28.3929 56.686L28.3926 56.6864L33.5051 59.8269L33.5053 59.8265L28.3929 56.686ZM28.3767 56.7126L28.3766 56.7127L33.5216 59.7997L33.5216 59.7996L28.3767 56.7126ZM28.3767 56.7125L28.3767 56.7126L33.5216 59.7996L33.5217 59.7995L28.3767 56.7125ZM28.3768 56.7124L28.3767 56.7125L33.5217 59.7995L33.5218 59.7994L28.3768 56.7124ZM28.3769 56.7123L28.3768 56.7124L33.5218 59.7994L33.5218 59.7993L28.3769 56.7123ZM28.3769 56.7122L28.3769 56.7123L33.5218 59.7993L33.5219 59.7991L28.3769 56.7122ZM28.377 56.7121L28.3769 56.7122L33.5219 59.7991L33.522 59.799L28.377 56.7121ZM28.3771 56.7119L28.377 56.7121L33.522 59.799L33.522 59.7989L28.3771 56.7119ZM28.3772 56.7118L28.3771 56.7119L33.522 59.7989L33.5221 59.7988L28.3772 56.7118ZM28.3772 56.7117L28.3772 56.7118L33.5221 59.7988L33.5222 59.7987L28.3772 56.7117ZM28.3773 56.7116L28.3772 56.7117L33.5222 59.7987L33.5223 59.7986L28.3773 56.7116ZM28.3774 56.7115L28.3773 56.7116L33.5223 59.7986L33.5223 59.7985L28.3774 56.7115ZM28.3774 56.7114L28.3774 56.7115L33.5223 59.7985L33.5224 59.7983L28.3774 56.7114ZM28.3775 56.7113L28.3774 56.7114L33.5224 59.7983L33.5225 59.7982L28.3775 56.7113ZM28.3776 56.7111L28.3775 56.7113L33.5225 59.7982L33.5225 59.7981L28.3776 56.7111ZM28.3776 56.711L28.3776 56.7111L33.5225 59.7981L33.5226 59.798L28.3776 56.711ZM32.7649 49.3878C31.3339 51.8297 29.8656 54.2542 28.3841 56.7004L33.5162 59.8087C34.9939 57.3687 36.4849 54.907 37.9415 52.4214L32.7649 49.3878ZM37.4542 48.3737C37.0216 48.2535 36.5858 48.1324 36.15 48.0123L34.5564 53.7968C34.9848 53.9149 35.4143 54.0342 35.8479 54.1547L37.4542 48.3737ZM37.4551 48.3739L37.4514 48.3729L35.8507 54.1555L35.8543 54.1565L37.4551 48.3739ZM52.0933 50.9541C47.312 51.0896 42.6062 49.8052 37.4579 48.3747L35.8516 54.1557C40.8452 55.5432 46.4261 57.1171 52.2633 56.9517L52.0933 50.9541ZM73.4688 41.0236C68.3837 47.2915 60.2935 50.943 52.1747 50.9529L52.1819 56.9529C61.9953 56.941 71.8373 52.5581 78.1282 44.8038L73.4688 41.0236ZM81.4951 21.2857C80.3801 28.581 77.9998 35.5879 73.4942 40.9928L78.1028 44.8346C83.562 38.2859 86.2183 30.095 87.4263 22.1923L81.4951 21.2857ZM96.5261 18.6166C92.5049 18.6329 88.4547 18.6493 84.3939 18.7397L84.5275 24.7383C88.5246 24.6492 92.5202 24.6329 96.5505 24.6166L96.5261 18.6166ZM96.5384 18.6166H96.5383V24.6166H96.5384V18.6166ZM100.55 18.5976C99.21 18.6057 97.8697 18.6112 96.5262 18.6166L96.5506 24.6166C97.893 24.6111 99.2394 24.6056 100.587 24.5974L100.55 18.5976ZM104.007 18.6247C102.869 18.6166 101.734 18.6085 100.597 18.5976L100.54 24.5974C101.685 24.6083 102.827 24.6164 103.964 24.6246L104.007 18.6247ZM104.013 18.6248L104.013 18.6248L103.957 24.6245L103.958 24.6245L104.013 18.6248ZM104.014 18.6248L104.013 18.6248L103.958 24.6245L103.959 24.6245L104.014 18.6248ZM104.015 18.6248L104.014 18.6248L103.959 24.6245L103.959 24.6245L104.015 18.6248ZM104.015 18.6248L104.015 18.6248L103.959 24.6245L103.96 24.6246L104.015 18.6248ZM104.016 18.6248L104.015 18.6248L103.96 24.6246L103.96 24.6246L104.016 18.6248ZM104.017 18.6248L104.016 18.6248L103.96 24.6246L103.961 24.6246L104.017 18.6248ZM104.017 18.6248L104.017 18.6248L103.961 24.6246L103.962 24.6246L104.017 18.6248ZM104.018 18.6248L104.017 18.6248L103.962 24.6246L103.962 24.6246L104.018 18.6248ZM104.018 18.6248L104.018 18.6248L103.962 24.6246L103.963 24.6246L104.018 18.6248ZM104.019 18.6248L104.018 18.6248L103.963 24.6246L103.963 24.6246L104.019 18.6248ZM104.02 18.6249L104.019 18.6248L103.963 24.6246L103.964 24.6246L104.02 18.6249ZM104.02 18.6249L104.02 18.6249L103.964 24.6246L103.965 24.6246L104.02 18.6249ZM104.021 18.6249L104.02 18.6249L103.965 24.6246L103.965 24.6246L104.021 18.6249ZM104.021 18.6249L104.021 18.6249L103.965 24.6246L103.966 24.6246L104.021 18.6249ZM104.022 18.6249L104.021 18.6249L103.966 24.6246L103.967 24.6246L104.022 18.6249ZM104.023 18.6249L104.022 18.6249L103.967 24.6246L103.967 24.6246L104.023 18.6249ZM107.447 18.6521C106.302 18.6412 105.158 18.633 104.016 18.6248L103.973 24.6247C105.116 24.6329 106.253 24.641 107.39 24.6519L107.447 18.6521ZM110.923 23.844L110.359 21.057L104.478 22.247L105.042 25.034L110.923 23.844ZM115.351 36.6442C113.245 32.6256 111.725 28.3439 110.936 23.9132L105.029 24.9648C105.934 30.0491 107.67 34.9122 110.036 39.4288L115.351 36.6442ZM123.61 45.9285C120.291 43.4902 117.596 40.1598 115.226 36.4283L110.161 39.6447C112.741 43.7079 115.908 47.7154 120.057 50.7638L123.61 45.9285ZM133.34 50.1714C129.88 49.3065 126.566 47.7672 123.424 45.8025L120.243 50.8898C123.787 53.1057 127.681 54.9413 131.885 55.9923L133.34 50.1714ZM137.894 42.6611C135.128 44.873 131.601 47.6158 129.834 51.9496L135.39 54.2142C136.472 51.5598 138.662 49.7301 141.642 47.3468L137.894 42.6611ZM142.604 38.3624C141.36 39.8748 139.774 41.1577 137.894 42.6611L141.642 47.3468C143.433 45.9144 145.529 44.252 147.238 42.1741L142.604 38.3624ZM143.869 43.2855C144.24 43.279 144.601 43.2727 144.961 43.268L144.882 37.2685C144.507 37.2734 144.132 37.28 143.764 37.2864L143.869 43.2855ZM143.816 43.286H143.816V37.286H143.816V43.286ZM143.816 43.286H143.816V37.286H143.816V43.286ZM143.816 43.286H143.816V37.286H143.816V43.286ZM131.284 41.4499C135.534 43.4846 140.197 43.3496 143.868 43.2855L143.763 37.2864C139.819 37.3553 136.63 37.3575 133.875 36.0382L131.284 41.4499ZM120.335 29.4801C122.431 34.139 125.858 39.1489 131.407 41.5053L133.752 35.9828C130.226 34.4854 127.639 31.0907 125.807 27.0185L120.335 29.4801ZM117.743 14.4491C118.025 19.1873 118.448 24.3405 120.254 29.2795L125.889 27.2191C124.415 23.1875 124.014 18.8257 123.732 14.0925L117.743 14.4491ZM114.039 10.9562C116.23 11.3353 117.65 12.8557 117.742 14.4453L123.732 14.0963C123.433 8.95834 119.165 5.75395 115.061 5.044L114.039 10.9562ZM112.285 6.03267L112.285 6.03277L116.815 9.96742L116.815 9.96733L112.285 6.03267ZM114.549 11H114.55V5H114.549V11ZM96.3448 11.0326C102.405 11.049 108.491 11.0654 114.582 10.9998L114.517 5.00017C108.473 5.06524 102.428 5.04901 96.361 5.03267L96.3448 11.0326ZM78.1972 11.0651C84.2359 11.0001 90.2779 11.0163 96.3448 11.0326L96.361 5.03267C90.3008 5.01635 84.2183 4.99992 78.1326 5.06549L78.1972 11.0651ZM157.178 38.6802C159.023 37.6774 161.295 38.2879 162.157 39.6866L167.265 36.5388C164.437 31.9498 158.437 31.1669 154.313 33.4083L157.178 38.6802ZM149.07 41.9428C151.644 41.0156 154.393 40.0279 157.049 38.746L154.441 33.3425C152.113 34.4662 149.659 35.3531 147.037 36.2979L149.07 41.9428ZM149.107 41.9294L149.107 41.9294L147 36.3114L147 36.3114L149.107 41.9294ZM149.106 41.9295L149.107 41.9294L147 36.3114L147 36.3115L149.106 41.9295ZM149.106 41.9295L149.106 41.9295L147 36.3115L147 36.3115L149.106 41.9295ZM149.106 41.9296L149.106 41.9295L147 36.3115L146.999 36.3116L149.106 41.9296ZM149.106 41.9296L149.106 41.9296L146.999 36.3116L146.999 36.3116L149.106 41.9296ZM145.987 43.0732C146.997 42.6898 148.019 42.3215 149.069 41.9431L147.036 36.2982C145.993 36.6738 144.924 37.0591 143.858 37.4635L145.987 43.0732ZM141.643 47.3469C143.434 45.9144 145.53 44.2521 147.239 42.1741L142.605 38.3625C141.361 39.8749 139.775 41.1577 137.895 42.6611L141.643 47.3469ZM135.391 54.2142C136.473 51.5598 138.663 49.7302 141.643 47.3469L137.895 42.6611C135.129 44.8731 131.602 47.6159 129.835 51.9496L135.391 54.2142ZM155.428 47.9491C148.07 50.4897 140.461 51.8272 133.293 50.1599L131.934 56.0039C140.68 58.0383 149.547 56.3274 157.386 53.6206L155.428 47.9491ZM160.012 50.9097C159.66 50.3416 159.31 49.7774 158.961 49.2106L153.853 52.3591C154.208 52.9334 154.561 53.504 154.913 54.0711L160.012 50.9097ZM160.02 50.9217L160.017 50.9168L154.908 54.064L154.911 54.0689L160.02 50.9217ZM160.914 52.366C160.614 51.8795 160.314 51.3956 160.015 50.9146L154.916 54.076C155.214 54.5577 155.512 55.037 155.809 55.5181L160.914 52.366ZM163.492 56.6349C162.643 55.2212 161.788 53.7975 160.922 52.3792L155.8 55.5048C156.653 56.9022 157.498 58.3079 158.349 59.7246L163.492 56.6349ZM163.489 56.6305L163.488 56.6279L158.353 59.7316L158.355 59.7342L163.489 56.6305ZM163.498 56.6442L163.497 56.6432L158.347 59.7215L158.348 59.7225L163.498 56.6442ZM163.498 56.6452L163.498 56.6442L158.348 59.7225L158.348 59.7235L163.498 56.6452ZM163.499 56.6462L163.498 56.6452L158.348 59.7235L158.349 59.7245L163.499 56.6462ZM163.499 56.6472L163.499 56.6462L158.349 59.7245L158.349 59.7255L163.499 56.6472ZM163.5 56.6482L163.499 56.6472L158.349 59.7255L158.35 59.7265L163.5 56.6482ZM163.501 56.6492L163.5 56.6482L158.35 59.7265L158.35 59.7275L163.501 56.6492ZM163.501 56.6502L163.501 56.6492L158.35 59.7275L158.351 59.7285L163.501 56.6502ZM163.502 56.6512L163.501 56.6502L158.351 59.7285L158.352 59.7294L163.502 56.6512ZM163.502 56.6522L163.502 56.6512L158.352 59.7294L158.352 59.7304L163.502 56.6522ZM163.503 56.6532L163.502 56.6522L158.352 59.7304L158.353 59.7314L163.503 56.6532ZM163.504 56.6542L163.503 56.6532L158.353 59.7314L158.353 59.7324L163.504 56.6542ZM163.504 56.6552L163.504 56.6542L158.353 59.7324L158.354 59.7334L163.504 56.6552ZM163.505 56.6562L163.504 56.6552L158.354 59.7334L158.355 59.7344L163.505 56.6562ZM166.486 61.5821C165.484 59.9504 164.497 58.3073 163.501 56.6504L158.358 59.7402C159.351 61.3929 160.353 63.0609 161.372 64.7213L166.486 61.5821ZM165.506 65.704L165.506 65.7035L162.351 60.5999L162.351 60.6004L165.506 65.704ZM167.586 63.4679C167.231 62.8591 166.875 62.2477 166.517 61.6367L161.339 64.6677C161.693 65.2732 162.047 65.8799 162.402 66.4895L167.586 63.4679ZM167.593 63.4801L167.59 63.4739L162.399 66.4835L162.403 66.4897L167.593 63.4801ZM167.587 63.4703L167.585 63.4669L162.41 66.503L162.412 66.5064L167.587 63.4703ZM170.259 68.0134C169.363 66.5159 168.482 65.005 167.592 63.4776L162.408 66.4991C163.295 68.0216 164.193 69.562 165.11 71.0937L170.259 68.0134ZM158.496 84.3433C160.938 79.5221 165.066 75.7686 169.642 71.8264L165.726 67.2806C161.228 71.1553 156.194 75.6104 153.144 81.6323L158.496 84.3433ZM156.044 101.628C154.927 95.6813 155.555 89.5138 158.427 84.473L153.214 81.5026C149.486 88.0453 148.831 95.7257 150.147 102.735L156.044 101.628ZM158.029 94.8882C155.796 96.4801 153.525 98.0991 151.289 99.7857L154.901 104.576C157.064 102.946 159.269 101.373 161.512 99.7734L158.029 94.8882ZM158.05 94.8728L158.05 94.8731L161.491 99.7885L161.491 99.7881L158.05 94.8728ZM158.027 94.889L158.027 94.8893L161.515 99.7717L161.515 99.7714L158.027 94.889ZM158.028 94.8888L158.027 94.889L161.515 99.7714L161.515 99.7712L158.028 94.8888ZM158.028 94.8886L158.028 94.8888L161.515 99.7712L161.515 99.771L158.028 94.8886ZM158.028 94.8883L158.028 94.8886L161.515 99.771L161.516 99.7707L158.028 94.8883ZM158.029 94.8881L158.028 94.8883L161.516 99.7707L161.516 99.7705L158.029 94.8881ZM158.029 94.8879L158.029 94.8881L161.516 99.7705L161.516 99.7703L158.029 94.8879ZM158.029 94.8876L158.029 94.8879L161.516 99.7703L161.517 99.7701L158.029 94.8876ZM158.03 94.8874L158.029 94.8876L161.517 99.7701L161.517 99.7698L158.03 94.8874ZM158.03 94.8872L158.03 94.8874L161.517 99.7698L161.517 99.7696L158.03 94.8872ZM158.03 94.887L158.03 94.8872L161.517 99.7696L161.518 99.7694L158.03 94.887ZM158.031 94.8867L158.03 94.887L161.518 99.7694L161.518 99.7691L158.031 94.8867ZM158.031 94.8865L158.031 94.8867L161.518 99.7691L161.518 99.7689L158.031 94.8865ZM158.031 94.8863L158.031 94.8865L161.518 99.7689L161.519 99.7687L158.031 94.8863ZM164.055 90.5239C162.08 91.9987 160.073 93.4306 158.033 94.8849L161.517 99.7701C163.547 98.3221 165.609 96.852 167.645 95.3309L164.055 90.5239ZM164.463 89.305C164.055 90.0366 163.67 90.7247 163.272 91.3925L168.428 94.4623C168.875 93.711 169.3 92.9498 169.702 92.2306L164.463 89.305ZM169.967 81.6481C167.418 83.9616 165.807 86.8992 164.463 89.305L169.702 92.2305C171.128 89.6763 172.298 87.6354 173.999 86.0911L169.967 81.6481ZM175.986 77.1022C174.053 78.3559 171.8 79.8039 169.858 81.7516L174.108 85.9876C175.525 84.5656 177.23 83.4473 179.251 82.1362L175.986 77.1022ZM180.053 74.2325C178.851 75.2399 177.51 76.1139 175.986 77.1022L179.251 82.1362C180.723 81.1818 182.377 80.1137 183.907 78.8313L180.053 74.2325ZM180.767 70.101C180.824 71.3332 180.852 72.2342 180.715 72.9973C180.595 73.6677 180.39 73.9667 180.13 74.1702L183.83 78.8936C185.585 77.519 186.326 75.6968 186.62 74.0587C186.898 72.5133 186.811 70.9185 186.76 69.8231L180.767 70.101ZM180.763 69.9617V69.9621H186.763V69.9617H180.763ZM180.763 69.9613V69.9617H186.763V69.9613H180.763ZM180.773 70.1953L180.773 70.1958L186.754 69.7267L186.754 69.7261L180.773 70.1953ZM180.741 69.5104C180.748 69.7087 180.758 69.9085 180.767 70.0997L186.76 69.8217C186.751 69.6274 186.743 69.4464 186.736 69.2701L180.741 69.5104ZM174.438 59.9771C176.636 63.6462 178.863 67.364 181.217 71.0156L186.26 67.7649C183.968 64.21 181.792 60.5772 179.586 56.894L174.438 59.9771ZM174.407 59.9238L174.407 59.9239L179.617 56.9471L179.617 56.947L174.407 59.9238ZM174.407 59.9236L174.407 59.9238L179.617 56.947L179.617 56.9468L174.407 59.9236ZM174.407 59.9235L174.407 59.9236L179.617 56.9468L179.617 56.9466L174.407 59.9235ZM174.407 59.9233L174.407 59.9235L179.617 56.9466L179.616 56.9465L174.407 59.9233ZM174.407 59.9231L174.407 59.9233L179.616 56.9465L179.616 56.9463L174.407 59.9231ZM174.407 59.923L174.407 59.9231L179.616 56.9463L179.616 56.9462L174.407 59.923ZM174.407 59.9228L174.407 59.923L179.616 56.9462L179.616 56.946L174.407 59.9228ZM174.407 59.9227L174.407 59.9228L179.616 56.946L179.616 56.9458L174.407 59.9227ZM174.407 59.9225L174.407 59.9227L179.616 56.9458L179.616 56.9457L174.407 59.9225ZM174.406 59.9223L174.407 59.9225L179.616 56.9457L179.616 56.9455L174.406 59.9223ZM174.406 59.9222L174.406 59.9223L179.616 56.9455L179.616 56.9454L174.406 59.9222ZM174.406 59.922L174.406 59.9222L179.616 56.9454L179.616 56.9452L174.406 59.922ZM174.406 59.9219L174.406 59.922L179.616 56.9452L179.616 56.945L174.406 59.9219ZM171.784 55.5633C172.672 57.0276 173.552 58.4974 174.437 59.975L179.585 56.8919C178.701 55.4165 177.812 53.9331 176.915 52.453L171.784 55.5633ZM172.003 52.1386L172.003 52.1394L176.696 55.8769L176.697 55.8761L172.003 52.1386ZM168.19 49.5321C169.365 51.5341 170.558 53.5673 171.795 55.5785L176.906 52.4362C175.707 50.486 174.545 48.5057 173.364 46.495L168.19 49.5321ZM162.214 39.7758C164.303 42.9107 166.221 46.1776 168.19 49.5321L173.364 46.495C171.41 43.1653 169.407 39.7502 167.208 36.4496L162.214 39.7758ZM69.0919 80.7138C75.472 68.9203 90.3683 62.6679 103.326 66.0134L104.826 60.2039C89.2793 56.19 71.5459 63.5679 63.8146 77.8589L69.0919 80.7138ZM67.7871 108.592C63.8743 99.7136 64.1457 89.0818 69.0355 80.8134L63.871 77.7593C57.9062 87.8455 57.678 100.532 62.2967 111.011L67.7871 108.592ZM66.8308 112.21L66.8316 112.209L63.2521 107.394L63.2513 107.394L66.8308 112.21ZM79.1076 121.913C74.2072 118.659 70.2901 113.941 67.7582 108.53L62.3239 111.074C65.2845 117.4 69.8995 123.001 75.7887 126.911L79.1076 121.913ZM80.084 122.441C79.6857 122.219 79.1825 121.939 78.8705 121.771L76.0257 127.053C76.2911 127.196 76.7488 127.451 77.165 127.683L80.084 122.441ZM79.9663 122.379L79.9661 122.379L77.2828 127.745L77.283 127.745L79.9663 122.379ZM80.2951 122.558L80.0839 122.441L77.1654 127.683L77.3767 127.801L80.2951 122.558ZM80.5707 122.711C80.494 122.669 80.4004 122.617 80.2943 122.558L77.3775 127.801C77.4844 127.861 77.584 127.916 77.6683 127.963L80.5707 122.711ZM80.681 127.898L80.6813 127.898L77.5576 122.776L77.5573 122.776L80.681 127.898ZM107.487 124.785C98.5909 127.837 88.6289 127.399 80.6279 122.744L77.6104 127.93C87.3461 133.595 99.1591 133.985 109.433 130.461L107.487 124.785ZM113.29 127.878C112.338 127.044 111.394 126.216 110.451 125.379L106.469 129.867C107.427 130.718 108.385 131.557 109.334 132.39L113.29 127.878ZM113.291 127.879L113.29 127.878L109.335 132.39L109.336 132.391L113.291 127.879ZM113.531 128.089L113.292 127.88L109.336 132.391L109.575 132.601L113.531 128.089ZM119.211 121.109C116.95 124.065 113.968 126.35 110.583 127.506L112.523 133.184C117.172 131.596 121.094 128.525 123.977 124.753L119.211 121.109ZM118.458 122.885C118.543 123.178 118.627 123.47 118.712 123.762L124.477 122.1C124.391 121.804 124.306 121.51 124.222 121.218L118.458 122.885ZM118.455 122.875L118.458 122.886L124.221 121.216L124.218 121.205L118.455 122.875ZM118.452 122.865L118.455 122.876L124.218 121.204L124.215 121.193L118.452 122.865ZM118.455 122.875L118.455 122.876L124.211 121.183L124.211 121.182L118.455 122.875ZM118.455 122.875L118.455 122.875L124.211 121.182L124.211 121.182L118.455 122.875ZM117.708 120.271C117.953 121.139 118.203 122.004 118.451 122.862L124.215 121.194C123.966 120.333 123.721 119.488 123.484 118.645L117.708 120.271ZM126.601 91.2151C127.905 100.648 124.696 110.312 118.351 117.468L122.841 121.448C130.26 113.08 134.106 101.69 132.545 90.3939L126.601 91.2151ZM126.022 88.6076C126.25 89.5747 126.458 90.4607 126.623 91.3507L132.523 90.2583C132.327 89.2017 132.085 88.1749 131.862 87.2306L126.022 88.6076ZM126.031 88.6465L126.032 88.6467L131.852 87.1915L131.852 87.1913L126.031 88.6465ZM126.031 88.6463L126.031 88.6465L131.852 87.1913L131.852 87.1911L126.031 88.6463ZM126.031 88.6461L126.031 88.6463L131.852 87.1911L131.852 87.1909L126.031 88.6461ZM126.031 88.6459L126.031 88.6461L131.852 87.1909L131.852 87.1907L126.031 88.6459ZM126.031 88.6458L126.031 88.6459L131.852 87.1907L131.852 87.1905L126.031 88.6458ZM126.031 88.6456L126.031 88.6458L131.852 87.1905L131.852 87.1904L126.031 88.6456ZM126.031 88.6454L126.031 88.6456L131.852 87.1904L131.852 87.1902L126.031 88.6454ZM126.031 88.6452L126.031 88.6454L131.852 87.1902L131.852 87.19L126.031 88.6452ZM125.758 87.4763C125.845 87.8588 125.935 88.2386 126.022 88.6062L131.862 87.2291C131.774 86.8581 131.689 86.4995 131.608 86.1418L125.758 87.4763ZM118.042 99.1796C122.524 96.1499 126.821 92.7768 130.767 88.9673L126.599 84.6508C122.945 88.179 118.928 91.3381 114.682 94.209L118.042 99.1796ZM108.991 115.117C115.219 111.021 118.695 103.975 119.349 96.9734L113.375 96.4152C112.857 101.956 110.125 107.189 105.693 110.105L108.991 115.117ZM91.179 118.721C97.1134 119.656 103.749 118.838 109.078 115.058L105.606 110.164C101.881 112.806 96.9469 113.556 92.1134 112.794L91.179 118.721ZM89.6283 113.537L89.6282 113.537L93.6643 117.977L93.6643 117.977L89.6283 113.537ZM73.8474 103.058C76.414 110.919 83.1977 116.634 90.882 118.658L92.4106 112.856C86.4613 111.289 81.4132 106.899 79.5511 101.196L73.8474 103.058ZM73.57 102.223L73.8521 103.073L79.5463 101.182L79.2642 100.332L73.57 102.223ZM74.6309 98.8674L74.63 98.8681L78.2042 103.687L78.2052 103.687L74.6309 98.8674ZM80.9687 78.1798C74.0385 83.8918 71.2725 93.5471 73.5176 102.043L79.3185 100.511C77.6342 94.1366 79.7746 86.9393 84.7848 82.8097L80.9687 78.1798ZM105.372 74.5228C97.4339 71.3166 87.6305 72.2871 80.8896 78.2473L84.8639 82.7422C89.6719 78.4912 96.9961 77.6107 103.125 80.0861L105.372 74.5228ZM105.989 79.7483L105.989 79.7479L102.508 74.861L102.508 74.8614L105.989 79.7483ZM109.689 77.2552C108.439 76.3664 107.118 75.4935 105.742 74.7034L102.754 79.9063C103.918 80.575 105.073 81.3351 106.211 82.1447L109.689 77.2552ZM119.362 96.6397C119.229 89.3445 116.09 81.7004 109.661 77.2359L106.239 82.164C110.752 85.2982 113.257 90.9362 113.363 96.7486L119.362 96.6397ZM126.599 84.6507C122.945 88.1788 118.928 91.3379 114.682 94.2088L118.042 99.1795C122.524 96.1498 126.821 92.7767 130.767 88.9672L126.599 84.6507ZM114.378 71.0716C119.796 75.2925 123.886 81.0969 125.804 87.6516L131.562 85.9663C129.269 78.1295 124.413 71.2841 118.066 66.3386L114.378 71.0716ZM114.468 66.2713L114.467 66.2719L117.977 71.1382L117.978 71.1376L114.468 66.2713ZM103.408 66.0334C107.299 66.9219 110.981 68.8327 114.567 71.2062L117.879 66.2027C113.997 63.6336 109.625 61.2986 104.744 60.1839L103.408 66.0334ZM33.1274 78.2202C29.419 80.8799 25.7997 83.6493 22.2588 86.5278L26.0436 91.1835C29.4931 88.3792 33.0165 85.6834 36.6243 83.0958L33.1274 78.2202ZM42.2581 91.3747C41.3856 86.9753 39.6204 82.8764 37.474 79.1581L32.2777 82.1578C34.191 85.4723 35.6605 88.9507 36.3728 92.542L42.2581 91.3747ZM37.4511 112.539C41.5833 106.316 42.9253 98.7981 42.304 91.6969L36.3269 92.2198C36.8562 98.2698 35.68 104.36 32.4526 109.221L37.4511 112.539ZM31.7716 119.339C33.676 117.421 35.9103 115.193 37.5436 112.391L32.3601 109.369C31.176 111.4 29.5077 113.103 27.5134 115.112L31.7716 119.339ZM26.771 125.364C27.9462 123.22 29.6757 121.451 31.7716 119.339L27.5134 115.112C25.517 117.123 23.1585 119.472 21.5096 122.48L26.771 125.364ZM26.4584 125.826L26.4585 125.826L21.8222 122.018L21.8221 122.018L26.4584 125.826ZM26.5079 121.702L25.3794 121.19L22.9011 126.654L24.0296 127.166L26.5079 121.702ZM35.8566 135.976C33.3135 131.572 30.7017 127.046 27.7418 122.736L22.7956 126.132C25.6007 130.217 28.0977 134.538 30.6607 138.977L35.8566 135.976ZM35.8502 135.965L35.85 135.965L30.6674 138.988L30.6675 138.988L35.8502 135.965ZM38.1466 139.921C37.3803 138.615 36.6216 137.301 35.8568 135.976L30.6609 138.977C31.424 140.298 32.1931 141.63 32.9717 142.957L38.1466 139.921ZM25.6224 151.759C30.0325 149.576 33.8815 146.602 37.4249 143.788L33.6934 139.09C30.1378 141.913 26.7358 144.513 22.9613 146.381L25.6224 151.759ZM16.7393 142.299C18.4078 145.069 20.0696 147.828 21.7106 150.599L26.8731 147.541C25.2189 144.748 23.5455 141.97 21.879 139.203L16.7393 142.299ZM16.6712 142.18L16.6713 142.18L21.947 139.322L21.947 139.322L16.6712 142.18ZM16.6711 142.18L16.6712 142.18L21.947 139.322L21.9469 139.322L16.6711 142.18ZM16.6711 142.18L16.6711 142.18L21.9469 139.322L21.9468 139.322L16.6711 142.18ZM16.671 142.179L16.6711 142.18L21.9468 139.322L21.9467 139.322L16.671 142.179ZM10.7202 132.224C12.7067 135.604 14.7277 138.959 16.739 142.299L21.8787 139.203C19.8645 135.859 17.8603 132.532 15.8931 129.184L10.7202 132.224ZM12.057 127.977L12.0567 127.977L14.5566 133.431L14.557 133.431L12.057 127.977ZM8.98627 129.385C9.66382 130.428 10.2272 131.299 10.6565 132.109L15.9575 129.298C15.3799 128.209 14.6602 127.105 14.0178 126.116L8.98627 129.385ZM7.09522 113.963C4.84839 116.891 4.72282 119.978 5.52759 122.724C6.26504 125.24 7.82525 127.598 8.98627 129.385L14.0178 126.116C12.7367 124.144 11.7283 122.548 11.2854 121.037C10.9098 119.755 10.9919 118.741 11.8556 117.615L7.09522 113.963ZM12.8732 109.591C11.1479 110.747 9.23685 112.022 7.50755 113.525L11.4433 118.053C12.8399 116.84 14.4301 115.77 16.2123 114.576L12.8732 109.591ZM12.6688 109.741L12.6687 109.741L16.4169 114.426L16.417 114.426L12.6688 109.741ZM20.8955 102.255C19.2319 105.267 16.4237 107.213 12.8733 109.591L16.2124 114.576C19.5563 112.336 23.6674 109.647 26.1478 105.155L20.8955 102.255ZM21.4111 90.0769C23.241 94.1829 23.3049 98.722 21.0488 102.006L25.9945 105.404C29.7954 99.8701 29.2731 92.9782 26.8914 87.6344L21.4111 90.0769ZM158.051 94.8728L158.051 94.8731L161.491 99.7885L161.492 99.7882L158.051 94.8728ZM158.028 94.8891L158.028 94.8893L161.515 99.7717L161.515 99.7715L158.028 94.8891ZM158.028 94.8889L158.028 94.8891L161.515 99.7715L161.516 99.7713L158.028 94.8889ZM158.029 94.8886L158.028 94.8889L161.516 99.7713L161.516 99.771L158.029 94.8886ZM158.029 94.8884L158.029 94.8886L161.516 99.771L161.516 99.7708L158.029 94.8884ZM158.029 94.8882L158.029 94.8884L161.516 99.7708L161.517 99.7706L158.029 94.8882ZM158.03 94.8879L158.029 94.8882L161.517 99.7706L161.517 99.7703L158.03 94.8879ZM158.03 94.8877L158.03 94.8879L161.517 99.7703L161.517 99.7701L158.03 94.8877ZM164.055 90.524C162.08 91.9992 160.072 93.4315 158.032 94.8863L161.515 99.7715C163.547 98.3231 165.609 96.8525 167.646 95.331L164.055 90.524ZM168.889 93.2106C168.872 93.0259 168.855 92.8395 168.838 92.653L162.863 93.2019C162.88 93.3852 162.897 93.5687 162.914 93.7541L168.889 93.2106ZM168.891 93.2348L168.889 93.2088L162.914 93.7558L162.916 93.7818L168.891 93.2348ZM168.904 93.5085V93.5083H162.904V93.5085H168.904ZM169.882 100.312C169.339 98.1007 169.124 95.7942 168.891 93.2367L162.916 93.7803C163.142 96.2619 163.387 99.0202 164.055 101.742L169.882 100.312ZM177.294 108.667C174.002 105.941 171.213 103.187 169.71 99.8075L164.228 102.247C166.328 106.967 170.052 110.461 173.467 113.289L177.294 108.667ZM166.589 122.221C170.455 119.553 174.211 116.56 177.554 113.046L173.207 108.91C170.232 112.037 166.824 114.769 163.181 117.283L166.589 122.221ZM150.217 103.025C152.4 110.475 156.823 117.311 163.05 122.125L166.72 117.379C161.571 113.397 157.83 107.669 155.975 101.338L150.217 103.025ZM158.029 94.8883C155.797 96.4802 153.526 98.0992 151.289 99.7858L154.902 104.576C157.064 102.946 159.27 101.373 161.513 99.7734L158.029 94.8883ZM173.928 113.602C176.968 115.287 179.68 117.009 181.849 119.241L186.152 115.059C183.349 112.175 180.005 110.11 176.835 108.354L173.928 113.602ZM166.589 122.221C170.456 119.553 174.212 116.559 177.555 113.046L173.208 108.91C170.233 112.037 166.825 114.769 163.181 117.283L166.589 122.221ZM167.135 117.762L167.036 117.66L162.735 121.844L162.834 121.945L167.135 117.762ZM169.742 120.474C168.875 119.551 167.989 118.641 167.135 117.762L162.834 121.946C163.695 122.831 164.543 123.703 165.368 124.582L169.742 120.474ZM158.881 142.831C162.786 136.632 166.499 130.323 170.15 124.034L164.961 121.022C161.318 127.297 157.649 133.53 153.804 139.633L158.881 142.831ZM138.688 141.616C144.09 140.913 149.649 142.324 155.465 144.101L157.219 138.363C151.419 136.591 144.735 134.779 137.914 135.666L138.688 141.616ZM133.761 141.672C135.265 141.641 136.777 141.63 138.28 141.641L138.323 135.641C136.763 135.63 135.194 135.641 133.636 135.674L133.761 141.672ZM119.574 123.992C123.374 129.553 127.282 135.049 131.288 140.459L136.109 136.888C132.149 131.541 128.286 126.107 124.529 120.608L119.574 123.992ZM124.027 124.688L124.483 124.057L119.62 120.543L119.164 121.174L124.027 124.688ZM112.524 133.184C117.174 131.596 121.095 128.525 123.979 124.753L119.212 121.109C116.952 124.065 113.969 126.35 110.585 127.506L112.524 133.184ZM111.61 133.421L112.272 133.258L110.837 127.432L110.175 127.595L111.61 133.421ZM120.959 139.315C118.459 135.782 115.929 132.206 113.288 128.702L108.497 132.314C111.075 135.734 113.553 139.236 116.062 142.781L120.959 139.315ZM120.959 139.315L120.959 139.314L116.062 142.782L116.063 142.783L120.959 139.315ZM120.949 139.301L120.949 139.3L116.073 142.797L116.074 142.798L120.949 139.301ZM127.318 148.167C125.166 145.26 123.074 142.304 120.961 139.317L116.063 142.783C118.17 145.761 120.299 148.77 122.495 151.737L127.318 148.167ZM126.529 152.476L126.529 152.475L123.284 147.428L123.284 147.428L126.529 152.476ZM129.243 151.081C128.643 150.132 128.022 149.18 127.372 148.243L122.441 151.661C123.029 152.51 123.602 153.387 124.173 154.289L129.243 151.081ZM135.269 149.546C132.223 149.915 129.717 150.197 127.261 149.736L126.155 155.634C129.67 156.293 133.099 155.853 135.992 155.502L135.269 149.546ZM135.631 149.524H135.631V155.524H135.631V149.524ZM144.728 149.344C141.352 148.787 138.061 149.207 135.269 149.546L135.993 155.502C138.926 155.146 141.362 154.87 143.751 155.264L144.728 149.344ZM154.006 151.914C151.245 150.863 148.03 149.619 144.496 149.315L143.982 155.293C146.542 155.513 148.979 156.421 151.871 157.522L154.006 151.914ZM159.319 153.702C157.597 153.277 155.901 152.636 154.006 151.914L151.871 157.522C153.708 158.221 155.744 159 157.881 159.528L159.319 153.702ZM163.368 150.376C162.733 151.483 161.962 152.457 161.158 153.066C160.403 153.638 159.778 153.785 159.16 153.668L158.04 159.562C160.744 160.076 163.055 159.156 164.78 157.85C166.456 156.581 167.709 154.866 168.573 153.36L163.368 150.376ZM179.306 123.805C173.96 132.632 168.67 141.491 163.394 150.331L168.546 153.406C173.823 144.565 179.104 135.722 184.438 126.913L179.306 123.805ZM181.004 117.002C180.864 119.838 180.539 122.003 179.4 123.66L184.345 127.058C186.528 123.882 186.855 120.168 186.997 117.298L181.004 117.002ZM71.8136 141.107C60.8008 133.374 45.9225 133.297 34.2923 138.72L36.8282 144.158C46.8645 139.478 59.4055 139.726 68.3657 146.017L71.8136 141.107ZM72.2375 145.657L72.2377 145.656L67.9417 141.468L67.9415 141.468L72.2375 145.657ZM85.3071 160.208C82.8228 152.826 78.3417 145.94 71.875 141.151L68.3041 145.973C73.6255 149.914 77.4591 155.7 79.6205 162.122L85.3071 160.208ZM83.7173 163.891L83.7183 163.89L81.2094 158.44L81.2084 158.44L83.7173 163.891ZM87.3746 169.624C86.8489 166.518 86.1775 163.431 85.3602 160.387L79.5655 161.943C80.3329 164.801 80.964 167.703 81.4587 170.626L87.3746 169.624ZM93.0209 167.254C90.1453 167.246 87.334 167.238 84.5356 167.127L84.2977 173.123C87.2258 173.239 90.1483 173.246 93.0054 173.253L93.0209 167.254ZM93.0145 167.254H93.0131V173.254H93.0145V167.254ZM99.3106 167.311C97.2013 167.264 95.0948 167.259 93.0222 167.254L93.0067 173.253C95.0891 173.259 97.1371 173.264 99.1783 173.309L99.3106 167.311ZM94.1569 178.874C96.5526 176.926 99.143 174.827 101.442 172.352L97.0466 168.268C95.0802 170.385 92.8222 172.226 90.3722 174.218L94.1569 178.874ZM94.3858 178.667L94.3859 178.667L90.1432 174.425L90.1431 174.425L94.3858 178.667ZM86.6004 185.821C88.7362 183.291 91.3152 181.184 94.1568 178.874L90.3721 174.218C87.6029 176.469 84.5746 178.92 82.0157 181.951L86.6004 185.821ZM81.9737 186.937C82.8371 186.902 83.5713 186.872 84.2492 186.885L84.3669 180.887C83.4729 180.869 82.5504 180.908 81.7256 180.942L81.9737 186.937ZM70.4103 183.244C72.0691 185.381 74.2454 186.334 76.3342 186.729C78.3121 187.103 80.3886 187.003 81.9736 186.937L81.7256 180.942C79.9926 181.014 78.629 181.056 77.449 180.833C76.3799 180.631 75.6806 180.248 75.15 179.565L70.4103 183.244ZM67.8633 173.304C67.9712 176.032 68.0442 179.864 70.321 183.122L75.2393 179.686C74.1365 178.107 73.9799 176.134 73.8586 173.067L67.8633 173.304ZM67.497 169.216C67.7417 170.407 67.8001 171.705 67.8633 173.304L73.8586 173.067C73.7991 171.563 73.7349 169.763 73.3741 168.008L67.497 169.216ZM68.6233 166.221L68.6224 166.222L72.2487 171.002L72.2496 171.001L68.6233 166.221ZM63.316 159.924C65.3476 162.468 66.4293 165.72 67.5646 169.479L73.3083 167.744C72.2075 164.099 70.8578 159.753 68.0048 156.18L63.316 159.924ZM58.5573 155.793C60.3566 157.04 62.0037 158.452 63.4171 160.044L67.9037 156.06C66.126 154.058 64.1041 152.336 61.9739 150.861L58.5573 155.793ZM58.1881 151.163L58.188 151.163L62.3432 155.491L62.3433 155.491L58.1881 151.163ZM40.6624 157.167C46.5377 154.305 53.3454 153.602 59.0746 156.08L61.4569 150.574C53.7478 147.238 45.0768 148.343 38.0349 151.773L40.6624 157.167ZM29.2469 159.642C33.2526 159.869 37.2089 159.012 40.7607 157.117L37.9366 151.823C35.3663 153.194 32.5058 153.817 29.586 153.652L29.2469 159.642ZM21.6797 150.543C23.2745 153.372 25.1369 156.001 27.0375 158.475L31.7954 154.819C29.9836 152.461 28.3074 150.082 26.9062 147.597L21.6797 150.543ZM33.6945 139.09C30.1389 141.914 26.7369 144.514 22.9625 146.381L25.6235 151.759C30.0337 149.577 33.8826 146.602 37.426 143.788L33.6945 139.09ZM99.2512 173.31C100.814 173.307 102.373 173.28 103.907 173.254L103.805 167.255C102.264 167.281 100.749 167.307 99.2388 167.31L99.2512 173.31ZM94.1574 178.874C96.5531 176.926 99.1435 174.827 101.443 172.352L97.0471 168.268C95.0808 170.385 92.8227 172.227 90.3727 174.218L94.1574 178.874ZM86.601 185.821C88.7367 183.291 91.3157 181.184 94.1574 178.874L90.3727 174.218C87.6035 176.469 84.5752 178.92 82.0162 181.951L86.601 185.821ZM105.788 180.947C98.6238 180.957 91.4817 180.968 84.3428 180.886L84.2744 186.886C91.4583 186.968 98.6389 186.957 105.797 186.947L105.788 180.947ZM112.998 180.94C110.594 180.94 108.19 180.944 105.788 180.947L105.797 186.947C108.199 186.944 110.599 186.94 112.998 186.94V180.94ZM117.623 178.347C117.244 179.838 115.418 181.113 113.221 180.948L112.774 186.932C117.004 187.248 122.147 184.908 123.439 179.824L117.623 178.347ZM114.815 173.384C115.713 173.468 116.647 174.052 117.278 175.063C117.909 176.076 118.032 177.19 117.716 178.048L123.346 180.122C124.409 177.235 123.805 174.191 122.368 171.888C120.931 169.584 118.457 167.697 115.37 167.41L114.815 173.384ZM103.907 173.254C107.681 173.19 111.298 173.13 114.876 173.389L115.309 167.405C111.419 167.123 107.534 167.192 103.805 167.255L103.907 173.254Z" fill="url(#paint1_linear_641_141)"/>
<defs>
<linearGradient id="paint0_linear_641_141" x1="176.027" y1="11.0249" x2="15.1508" y2="180.15" gradientUnits="userSpaceOnUse">
<stop stop-color="#D800BD"/>
<stop offset="0.408098" stop-color="#F92D7A"/>
<stop offset="0.590073" stop-color="#FF4A52"/>
<stop offset="1" stop-color="#FFB243"/>
</linearGradient>
<linearGradient id="paint1_linear_641_141" x1="176.027" y1="11.0249" x2="15.1508" y2="180.15" gradientUnits="userSpaceOnUse">
<stop stop-color="#D800BD"/>
<stop offset="0.408098" stop-color="#F92D7A"/>
<stop offset="0.590073" stop-color="#FF4A52"/>
<stop offset="1" stop-color="#FFB243"/>
</linearGradient>
</defs>
</svg>
