<svg width="128" height="128" viewBox="0 0 128 128" fill="none" xmlns="http://www.w3.org/2000/svg">
<path d="M32.5723 8.16933C33.4695 8.04579 34.3809 7.98765 35.2925 8.00219C55.2451 8.04579 75.2048 7.98765 95.1574 8.03126C99.5438 8.05306 103.282 12.3042 102.983 16.7516C102.962 48.2539 102.983 79.756 102.976 111.258C103.118 114.463 101.317 117.617 98.5184 119.056C96.3964 120.24 93.9042 119.957 91.5827 119.993C87.2889 119.906 82.9879 120.109 78.7011 119.906C76.3015 119.782 74.5639 117.043 75.2832 114.739C75.682 113.133 77.1345 111.825 78.7723 111.738C83.0021 111.527 87.2462 111.782 91.4831 111.636C93.5196 111.665 95.0792 109.609 94.8655 107.61C94.8725 78.528 94.8727 49.4528 94.8583 20.3705C95.1075 18.1105 93.1137 16.054 90.8921 16.3301C73.2964 16.3301 55.6937 16.3301 38.0981 16.3301C35.8763 16.0394 33.8754 18.096 34.1247 20.356C34.1104 49.4601 34.1104 78.557 34.1176 107.654C33.9111 109.652 35.4918 111.68 37.5213 111.643C42.6982 111.76 47.8822 111.571 53.059 111.716C55.8932 111.636 57.9296 115.117 56.5767 117.646C55.8646 119.288 54.0702 120.088 52.3753 119.979C46.1873 119.964 39.9923 120.044 33.8041 119.935C29.4319 119.87 25.7648 115.662 26.0212 111.237C26.014 79.756 26.014 48.2684 26.014 16.7807C25.7719 12.7766 28.6985 8.89602 32.5723 8.16933Z" fill="url(#paint0_linear_640_222)" stroke="url(#paint1_linear_640_222)" stroke-width="3"/>
<path d="M60.1944 44.2564C60.1659 41.9819 62.3306 40.0417 64.5309 40.2886C66.5532 40.3904 68.3121 42.2652 68.2337 44.3509C68.3121 47.3812 68.2337 50.4188 68.2623 53.4491C71.424 49.5904 74.557 45.7026 77.7614 41.88C79.3566 39.6637 83.0309 39.8891 84.3696 42.2726C85.3381 43.8567 85.0817 46.0149 83.8499 47.374C81.2294 50.6514 78.4879 53.8269 75.9029 57.1334C78.6587 60.4981 81.4714 63.8117 84.1489 67.2418C86.0216 69.5309 84.4694 73.5423 81.5213 73.7966C79.8763 74.1236 78.3596 73.2007 77.3983 71.9072C74.3649 68.1647 71.2744 64.4731 68.2623 60.716C68.2124 64.0007 68.3762 67.2927 68.1697 70.5701C67.7282 73.3678 64.1179 74.8576 61.9104 73.1062C60.3297 72.1106 60.0661 70.0832 60.1373 68.3537C60.2014 60.3236 60.0805 52.2864 60.1944 44.2564Z" fill="url(#paint2_linear_640_222)"/>
<path d="M42.6549 62.504C41.5655 59.6263 44.4565 56.3199 47.376 57.1991C49.7046 57.9985 51.9405 59.045 54.2192 59.9751C56.0564 60.7017 57.1673 62.8092 56.6188 64.7785C55.9566 67.2784 55.622 70.0544 56.9821 72.387C58.5202 76.1512 62.7926 78.2297 66.6521 77.6265C68.354 77.3358 69.8066 75.9841 71.6154 76.2603C73.9795 76.2312 74.948 78.7237 76.0587 80.417C77.0201 82.1611 78.5582 83.6799 78.8715 85.7146C79.2346 88.4252 76.429 90.9323 73.8512 90.1112C71.6581 89.5734 70.8036 87.1971 69.5716 85.533C67.8484 85.8454 66.1038 86.0708 64.3521 86.1289C63.8822 87.9601 63.7966 90.2128 62.1161 91.3829C60.2362 92.8363 57.1743 92.1385 56.1775 89.9221C55.152 87.9455 56.2202 85.7509 56.5691 83.738C54.9953 82.706 53.5498 81.478 52.2324 80.119C50.5447 81.0565 48.786 82.5462 46.728 82.0085C44.3497 81.5507 42.9326 78.6075 43.9437 76.3911C44.72 74.4945 46.8136 73.8041 48.38 72.7504C47.9742 70.6284 47.8317 68.4701 47.8959 66.3118C45.959 65.4398 43.3101 64.8875 42.6549 62.504Z" fill="url(#paint3_linear_640_222)"/>
<defs>
<linearGradient id="paint0_linear_640_222" x1="64.5" y1="22.5" x2="65.5" y2="100.5" gradientUnits="userSpaceOnUse">
<stop stop-color="#DE14FF"/>
<stop offset="1" stop-color="#7F00FF"/>
</linearGradient>
<linearGradient id="paint1_linear_640_222" x1="64.5" y1="22.5" x2="65.5" y2="100.5" gradientUnits="userSpaceOnUse">
<stop stop-color="#DE14FF"/>
<stop offset="1" stop-color="#7F00FF"/>
</linearGradient>
<linearGradient id="paint2_linear_640_222" x1="72.5457" y1="44.6168" x2="72.8246" y2="68.0142" gradientUnits="userSpaceOnUse">
<stop stop-color="#DE14FF"/>
<stop offset="1" stop-color="#7F00FF"/>
</linearGradient>
<linearGradient id="paint3_linear_640_222" x1="60.6616" y1="61.5977" x2="60.8688" y2="86.0384" gradientUnits="userSpaceOnUse">
<stop stop-color="#DE14FF"/>
<stop offset="1" stop-color="#7F00FF"/>
</linearGradient>
</defs>
</svg>
