<svg width="128" height="128" viewBox="0 0 128 128" fill="none" xmlns="http://www.w3.org/2000/svg">
<path d="M11.4267 27.3067C11.4333 18.8267 18.9333 11.3 27.4 11.1867C50.7133 11.1 74.0333 11.1933 97.3533 11.1467C100.173 11.1 103.067 11.1933 105.713 12.2667C111.86 14.54 116.347 20.7467 116.413 27.32C116.427 51.5667 116.433 75.8133 116.413 100.053C116.473 107.847 110.187 114.613 102.713 116.12C81.1467 116.44 59.5733 116.187 38.0067 116.253C35.6667 116.513 33.54 114.353 33.68 112.04C33.6133 97.2733 33.7533 82.5 33.6133 67.7333C31.4 67.7333 29.1733 67.8867 26.9867 67.48C31.2867 67.2067 35.58 67.9467 39.8867 67.66C42.5067 67.4733 45.14 67.4133 47.7667 67.4667C45.7067 67.9667 43.5733 67.7133 41.4733 67.68C41.4133 81.22 41.4733 94.7533 41.44 108.287C47.1467 108.32 52.8533 108.313 58.5667 108.3C58.5133 100.64 58.6933 92.98 58.4533 85.3267C61.0533 85.1933 63.66 85.2 66.2667 85.34C66.2533 92.9933 66.2467 100.64 66.2667 108.293C72.9267 108.313 79.5867 108.307 86.2533 108.3C86.2467 90.7533 86.28 73.2067 86.2333 55.66C84.2133 55.68 82.1733 55.8333 80.18 55.42C82.5733 55.3467 84.9667 55.3667 87.3533 55.5667C91.7467 55.9333 96.14 55.04 100.533 55.4667C98.4133 55.8133 96.2667 55.7 94.1333 55.6133C94.0667 73.1667 94.1267 90.7267 94.1 108.28C97.6467 108.18 101.627 108.96 104.72 106.76C107.12 105.147 108.58 102.293 108.513 99.4C108.54 75.5867 108.533 51.7733 108.513 27.9667C108.733 23.2733 104.54 19.1133 99.9067 19.0867C76.1667 19.04 52.42 19.08 28.68 19.06C24.0667 18.7133 19.38 22.5733 19.4533 27.32C19.4267 51.5467 19.46 75.7733 19.44 99.9933C19.32 103.28 21.6267 106.147 24.46 107.56C26.0333 108.227 26.56 109.893 26.9467 111.413C26.2733 113.513 24.5067 115.68 22.0267 115.013C15.6 112.847 11.2267 106.047 11.4133 99.32C11.42 75.3133 11.4067 51.3067 11.4267 27.3067Z" fill="url(#paint0_linear)"/>
<path d="M33.7267 42.6467C33.6934 40.02 36.9267 38.1067 39.2001 39.4667C40.8867 40.2467 41.4067 42.24 41.3801 43.9533C41.4267 49.3333 41.3734 54.7133 41.3934 60.0933C43.9801 60.38 47.2667 59.2133 49.2401 61.4333C50.9534 63.3 50.1067 66.5667 47.7667 67.4667C45.1401 67.4133 42.5067 67.4733 39.8867 67.66C35.5801 67.9467 31.2867 67.2067 26.9867 67.48C25.0934 66.2667 24.0734 63.5667 25.5801 61.6533C27.4734 59.1333 31.0134 60.3933 33.6734 60.12C33.7401 54.3 33.6134 48.4733 33.7267 42.6467Z" fill="url(#paint1_linear)"/>
<path d="M58.6134 42.6533C58.5868 40.5867 60.6134 38.8267 62.6468 39.0467C64.8001 39.1333 66.4201 41.2533 66.2068 43.3467C66.2134 54.8 66.2068 66.2533 66.2068 77.7067C68.3334 77.7933 70.5201 77.4733 72.6068 77.9933C75.4201 78.9333 75.9334 83.2 73.3801 84.7533C71.1934 85.88 68.6201 85.3267 66.2668 85.34C63.6601 85.2 61.0534 85.1933 58.4534 85.3267C56.0868 85.2867 53.4334 85.9733 51.3001 84.66C48.9534 83.0467 49.3934 79.0667 52.0534 78.04C54.1668 77.4533 56.4001 77.8067 58.5668 77.7333C58.6134 66.04 58.5201 54.3467 58.6134 42.6533Z" fill="url(#paint2_linear)"/>
<path d="M86.8201 40.9C88.1734 38.32 92.3267 38.4933 93.5201 41.1333C94.2734 43.2933 93.7934 45.6667 93.9001 47.9133C96.6534 48.28 100.413 46.9267 102.253 49.7C103.753 51.72 102.447 54.3067 100.533 55.4667C96.1401 55.04 91.7467 55.9333 87.3534 55.5667C84.9667 55.3667 82.5734 55.3467 80.1801 55.42C77.6267 54.6333 76.7067 51.14 78.5334 49.1933C80.5667 47.16 83.7134 48.2067 86.2601 47.9533C86.4267 45.62 85.7934 43.0867 86.8201 40.9Z" fill="url(#paint3_linear)"/>
<defs>
<linearGradient id="paint0_linear" x1="63.9168" y1="116.286" x2="63.9168" y2="11.1374" gradientUnits="userSpaceOnUse">
<stop stop-color="#FD2E00"/>
<stop offset="1" stop-color="#FF9900"/>
</linearGradient>
<linearGradient id="paint1_linear" x1="50.07" y1="39.1986" x2="21.8438" y2="63.8554" gradientUnits="userSpaceOnUse">
<stop stop-color="#FE7970"/>
<stop offset="1" stop-color="#DC3282"/>
</linearGradient>
<linearGradient id="paint2_linear" x1="74.9598" y1="39.3225" x2="36.4546" y2="60.0925" gradientUnits="userSpaceOnUse">
<stop stop-color="#FE7970"/>
<stop offset="1" stop-color="#DC3282"/>
</linearGradient>
<linearGradient id="paint3_linear" x1="102.83" y1="39.1614" x2="87.6776" y2="62.0873" gradientUnits="userSpaceOnUse">
<stop stop-color="#FE7970"/>
<stop offset="1" stop-color="#DC3282"/>
</linearGradient>
</defs>
</svg>
