<svg width="128" height="128" viewBox="0 0 128 128" fill="none" xmlns="http://www.w3.org/2000/svg">
<path d="M64 118C93.8234 118 118 93.8234 118 64C118 34.1766 93.8234 10 64 10C34.1766 10 10 34.1766 10 64C10 93.8234 34.1766 118 64 118Z" stroke="url(#paint0_linear_678_200)" stroke-width="12"/>
<path d="M80.509 86.2438L80.5152 86.2466C82.8733 87.2799 85.4627 87.793 88.2764 87.793C93.9107 87.793 98.3568 85.8236 101.549 81.8591C104.757 77.883 106.327 72.3565 106.327 65.3442C106.327 58.3344 104.771 52.8447 101.587 48.9442C98.4187 45.0039 93.9585 43.0499 88.2764 43.0499C82.7055 43.0499 78.3528 44.9189 75.2851 48.6834C75.4331 46.3865 75.5069 43.8522 75.5069 41.0812V26.5V26H75.0069H68.6035H68.1035V26.5V86.5215V87.0215H68.6035H73.194H73.5851L73.6793 86.6419L74.8911 81.7597C76.4299 83.7434 78.3032 85.2411 80.509 86.2438ZM78.2956 52.9977L78.2971 52.9958C80.0987 50.6417 83.0719 49.4116 87.3507 49.4116C91.2661 49.4116 94.079 50.7129 95.893 53.2525C97.7329 55.8284 98.6929 59.8058 98.6929 65.2671C98.6929 70.5925 97.7356 74.6061 95.8852 77.3701C94.0638 80.0653 91.3006 81.4311 87.5049 81.4311C83.2293 81.4311 80.2271 80.1899 78.3727 77.8065C76.4967 75.3695 75.5069 71.2538 75.5069 65.3442C75.5069 59.43 76.4726 55.3555 78.2956 52.9977Z" fill="url(#paint1_linear_678_200)" stroke="url(#paint2_linear_678_200)"/>
<path d="M48.7775 75.1733C46.9641 77.2971 44.0453 78.4173 39.9006 78.4312H39.8228C36.1036 78.4312 33.3481 77.1026 31.4752 74.4771C29.6045 71.7929 28.6348 67.8484 28.6348 62.5758C28.6348 57.305 29.6166 53.3046 31.5177 50.5144C33.4242 47.7279 36.1449 46.3345 39.7456 46.3345C43.9911 46.3345 46.9955 47.5988 48.8778 50.0361C50.7801 52.4995 51.7823 56.6162 51.7823 62.4985V63.9199C51.6538 69.3098 50.6167 73.0196 48.7775 75.1733ZM53.6324 40.7442H53.206L53.1387 41.1652L52.339 46.1634C49.1492 42.0333 44.6874 39.9727 39.0128 39.9727C33.376 39.9727 28.9295 41.9697 25.7376 45.9863C22.5581 49.9871 21 55.5119 21 62.4985C21 69.4336 22.5451 74.9077 25.6997 78.8576C28.8663 82.8223 33.2739 84.793 38.8584 84.793C44.5791 84.793 49.0039 82.8375 52.0598 78.8971C51.8741 80.4906 51.7823 82.3287 51.7823 84.4088V102.5V103H52.2823H58.6856H59.1856V102.5V41.2442V40.7442H58.6856H53.6324Z" fill="url(#paint3_linear_678_200)"/>
<path d="M49.1578 75.498L48.7775 75.1733M48.7775 75.1733C46.9641 77.2971 44.0453 78.4173 39.9006 78.4312H39.8228C36.1036 78.4312 33.3481 77.1026 31.4752 74.4771C29.6045 71.7929 28.6348 67.8484 28.6348 62.5758C28.6348 57.305 29.6166 53.3046 31.5177 50.5144C33.4242 47.7279 36.1449 46.3345 39.7456 46.3345C43.9911 46.3345 46.9955 47.5988 48.8778 50.0361C50.7801 52.4995 51.7823 56.6162 51.7823 62.4985V63.9199C51.6538 69.3098 50.6167 73.0196 48.7775 75.1733ZM53.6324 40.7442H53.206L53.1387 41.1652L52.339 46.1634C49.1492 42.0333 44.6874 39.9727 39.0128 39.9727C33.376 39.9727 28.9295 41.9697 25.7376 45.9863C22.5581 49.9871 21 55.5119 21 62.4985C21 69.4336 22.5451 74.9077 25.6997 78.8576C28.8663 82.8223 33.2739 84.793 38.8584 84.793C44.5791 84.793 49.0039 82.8375 52.0598 78.8971C51.8741 80.4906 51.7823 82.3287 51.7823 84.4088V102.5V103H52.2823H58.6856H59.1856V102.5V41.2442V40.7442H58.6856H53.6324Z" stroke="url(#paint4_linear_678_200)"/>
<defs>
<linearGradient id="paint0_linear_678_200" x1="10" y1="118" x2="140.316" y2="61.2009" gradientUnits="userSpaceOnUse">
<stop stop-color="#0357D1"/>
<stop offset="1" stop-color="#27CDFC"/>
</linearGradient>
<linearGradient id="paint1_linear_678_200" x1="87.2156" y1="87.293" x2="87.2156" y2="26.5" gradientUnits="userSpaceOnUse">
<stop stop-color="#00B59C"/>
<stop offset="1" stop-color="#9CFFAC"/>
</linearGradient>
<linearGradient id="paint2_linear_678_200" x1="87.2156" y1="87.293" x2="87.2156" y2="26.5" gradientUnits="userSpaceOnUse">
<stop stop-color="#00B59C"/>
<stop offset="1" stop-color="#9CFFAC"/>
</linearGradient>
<linearGradient id="paint3_linear_678_200" x1="21" y1="103" x2="72.255" y2="89.4652" gradientUnits="userSpaceOnUse">
<stop stop-color="#0357D1"/>
<stop offset="1" stop-color="#27CDFC"/>
</linearGradient>
<linearGradient id="paint4_linear_678_200" x1="21" y1="103" x2="72.255" y2="89.4652" gradientUnits="userSpaceOnUse">
<stop stop-color="#0357D1"/>
<stop offset="1" stop-color="#27CDFC"/>
</linearGradient>
</defs>
</svg>
