<svg width="128" height="128" viewBox="0 0 128 128" fill="none" xmlns="http://www.w3.org/2000/svg">
<path d="M64 118C93.8234 118 118 93.8234 118 64C118 34.1766 93.8234 10 64 10C34.1766 10 10 34.1766 10 64C10 93.8234 34.1766 118 64 118Z" stroke="url(#paint0_linear)" stroke-width="12"/>
<path d="M81.3448 84.2438L81.3448 84.2439L81.351 84.2466C83.7091 85.2799 86.2985 85.793 89.1122 85.793C94.7465 85.793 99.1926 83.8236 102.385 79.8591C105.593 75.883 107.163 70.3565 107.163 63.3442C107.163 56.3344 105.607 50.8447 102.423 46.9442C99.2545 43.0039 94.7943 41.0499 89.1122 41.0499C83.5413 41.0499 79.1886 42.9189 76.1209 46.6834C76.2689 44.3865 76.3427 41.8522 76.3427 39.0812V24.5V24H75.8427H69.4393H68.9393V24.5V84.5215V85.0215H69.4393H74.0298H74.4209L74.5151 84.6419L75.7269 79.7597C77.2657 81.7434 79.139 83.2411 81.3448 84.2438ZM79.1314 50.9977L79.1329 50.9958C80.9345 48.6417 83.9077 47.4116 88.1865 47.4116C92.1019 47.4116 94.9148 48.7129 96.7288 51.2525C98.5687 53.8284 99.5287 57.8058 99.5287 63.2671C99.5287 68.5925 98.5714 72.6061 96.721 75.3701C94.8996 78.0653 92.1364 79.4311 88.3407 79.4311C84.0651 79.4311 81.0629 78.1899 79.2085 75.8065C77.3325 73.3695 76.3427 69.2538 76.3427 63.3442C76.3427 57.43 77.3084 53.3555 79.1314 50.9977Z" fill="url(#paint1_linear)" stroke="url(#paint2_linear)"/>
<path d="M48.9941 76.498L48.6138 76.1733C46.8004 78.2971 43.8816 79.4173 39.7369 79.4312H39.6591C35.9399 79.4312 33.1844 78.1026 31.3115 75.4771C29.4408 72.7929 28.4711 68.8484 28.4711 63.5758C28.4711 58.305 29.4529 54.3046 31.354 51.5144C33.2605 48.7279 35.9812 47.3345 39.5819 47.3345C43.8274 47.3345 46.8318 48.5988 48.7141 51.0361C50.6164 53.4995 51.6186 57.6162 51.6186 63.4985V64.9199C51.4901 70.3098 50.453 74.0196 48.6138 76.1733L48.9941 76.498ZM53.4687 41.7442H53.0423L52.975 42.1652L52.1753 47.1634C48.9855 43.0333 44.5237 40.9727 38.8491 40.9727C33.2123 40.9727 28.7658 42.9697 25.5739 46.9863C22.3944 50.9871 20.8363 56.5119 20.8363 63.4985C20.8363 70.4336 22.3814 75.9077 25.536 79.8576C28.7026 83.8223 33.1102 85.793 38.6947 85.793C44.4154 85.793 48.8402 83.8375 51.8961 79.8971C51.7104 81.4906 51.6186 83.3287 51.6186 85.4088V103.5V104H52.1186H58.5219H59.0219V103.5V42.2442V41.7442H58.5219H53.4687Z" fill="url(#paint3_linear)" stroke="url(#paint4_linear)"/>
<defs>
<linearGradient id="paint0_linear" x1="25.8163" y1="102.184" x2="102.184" y2="25.8163" gradientUnits="userSpaceOnUse">
<stop stop-color="#0072FF"/>
<stop offset="1" stop-color="#00E5A1"/>
</linearGradient>
<linearGradient id="paint1_linear" x1="88.0514" y1="85.293" x2="88.0514" y2="24.5" gradientUnits="userSpaceOnUse">
<stop stop-color="#00B59C"/>
<stop offset="1" stop-color="#9CFFAC"/>
</linearGradient>
<linearGradient id="paint2_linear" x1="88.0514" y1="85.293" x2="88.0514" y2="24.5" gradientUnits="userSpaceOnUse">
<stop stop-color="#00B59C"/>
<stop offset="1" stop-color="#9CFFAC"/>
</linearGradient>
<linearGradient id="paint3_linear" x1="26.782" y1="94.4163" x2="65.4669" y2="71.2246" gradientUnits="userSpaceOnUse">
<stop stop-color="#0072FF"/>
<stop offset="1" stop-color="#00E5A1"/>
</linearGradient>
<linearGradient id="paint4_linear" x1="26.782" y1="94.4163" x2="65.4669" y2="71.2246" gradientUnits="userSpaceOnUse">
<stop stop-color="#0072FF"/>
<stop offset="1" stop-color="#00E5A1"/>
</linearGradient>
</defs>
</svg>
