<svg width="128" height="128" viewBox="0 0 128 128" fill="none" xmlns="http://www.w3.org/2000/svg">
<path d="M64 8C49.1479 8 34.9041 13.9 24.402 24.402C13.9 34.9041 8 49.1479 8 64C8 78.8521 13.9 93.0959 24.402 103.598C34.9041 114.1 49.1479 120 64 120C70.7084 119.983 77.3437 118.761 83.5938 116.408C86.1551 115.443 86.6977 112.182 84.7624 110.247L75.7578 101.242L74.4219 99.9062L73.3984 98.8828L73.1857 98.67C72.2058 97.6901 70.7912 97.3048 69.4244 97.5337C67.6328 97.8337 65.8189 97.9898 64 98C54.9826 98 46.3346 94.4179 39.9584 88.0416C33.5821 81.6654 30 73.0174 30 64C30 54.9826 33.5821 46.3346 39.9584 39.9584C46.3346 33.5821 54.9826 30 64 30C73.0174 30 81.6654 33.5821 88.0416 39.9584C94.4179 46.3346 98 54.9826 98 64C97.9888 66.5648 97.6874 69.1201 97.1016 71.6172L98.7812 73.2969L99.9062 74.4219L101.242 75.7578L110.266 84.7818C112.203 86.7183 115.466 86.1737 116.428 83.6099C118.777 77.3535 119.992 70.7126 120 64C120 49.1479 114.1 34.9041 103.598 24.402C93.0959 13.9 78.8521 8 64 8Z" fill="url(#paint0_linear_578_145)"/>
<path d="M81.6382 77.3506C79.4287 77.3501 77.6372 79.1411 77.6372 81.3506V92.9801C77.6372 94.041 78.0586 95.0584 78.8088 95.8085L105.828 122.828C106.578 123.579 107.596 124 108.657 124H120C122.209 124 124 122.209 124 120V108.657C124 107.596 123.578 106.579 122.828 105.828L94.5376 77.5376V77.5376C94.4095 77.4194 94.2416 77.3537 94.0673 77.3537L81.6382 77.3506Z" fill="url(#paint1_linear_578_145)"/>
<path fill-rule="evenodd" clip-rule="evenodd" d="M57.1442 74.1122C56.4108 73.3645 56 72.3588 56 71.3114V60.0001C56 57.7909 57.7909 56.0001 60.0001 56.0001L71.3432 56.0004C72.404 56.0005 73.4214 56.4219 74.1715 57.172L87.1641 70.1646L87.2344 70.2344L89 72L94.5391 77.5391L95.6641 78.6641V78.6641C96.1571 79.1571 95.8079 80 95.1107 80H84C81.7909 80 80 81.7909 80 84V95.1107C80 95.8079 79.1571 96.1571 78.6641 95.6641V95.6641L77.6406 94.6406L72 89L70.6797 87.6797L70.1641 87.1641L58.7734 75.7734L57.1442 74.1122Z" fill="url(#paint2_linear_578_145)"/>
<defs>
<linearGradient id="paint0_linear_578_145" x1="64" y1="120" x2="64" y2="8" gradientUnits="userSpaceOnUse">
<stop stop-color="#00B59C"/>
<stop offset="1" stop-color="#9CFFAC"/>
</linearGradient>
<linearGradient id="paint1_linear_578_145" x1="100.819" y1="124" x2="100.819" y2="77.3496" gradientUnits="userSpaceOnUse">
<stop stop-color="#00B59C"/>
<stop offset="1" stop-color="#9CFFAC"/>
</linearGradient>
<linearGradient id="paint2_linear_578_145" x1="75.9474" y1="95.8948" x2="75.9474" y2="56.0001" gradientUnits="userSpaceOnUse">
<stop stop-color="#FDA700"/>
<stop offset="1" stop-color="#FFDE00"/>
</linearGradient>
</defs>
</svg>
