<svg width="24" height="24" viewBox="0 0 24 24" fill="none" xmlns="http://www.w3.org/2000/svg">
<path d="M11.2226 1.1849C11.3906 1.07293 11.6094 1.07293 11.7773 1.1849L12.8961 1.93073C13.0771 2.05141 13.1593 2.2753 13.0994 2.48446L12.6544 4.0377C12.593 4.25218 12.3969 4.4 12.1738 4.4H10.8262C10.6031 4.4 10.407 4.25218 10.3455 4.0377L9.90058 2.48446C9.84066 2.2753 9.92287 2.05141 10.1039 1.93073L11.2226 1.1849Z" fill="url(#paint0_linear)"/>
<path d="M10 4H13V11H10V4Z" fill="url(#paint1_linear)"/>
<path d="M9.04762 10.4286H14.2857C14.8661 10.4286 15.3333 10.8958 15.3333 11.4762V21.9524C15.3333 22.5328 14.8661 23 14.2857 23H9.04762C8.46724 23 8 22.5328 8 21.9524V11.4762C8 10.8958 8.46724 10.4286 9.04762 10.4286Z" stroke="url(#paint2_linear)" stroke-width="1.5"/>
<path d="M13 5H10V6H13V5Z" fill="url(#paint3_linear)"/>
<path d="M13 8H10V9H13V8Z" fill="url(#paint4_linear)"/>
<circle cx="11.8" cy="14" r="2" fill="url(#paint5_linear)"/>
<defs>
<linearGradient id="paint0_linear" x1="11.5" y1="4.02842" x2="11.5" y2="1" gradientUnits="userSpaceOnUse">
<stop stop-color="#FFE59A"/>
<stop offset="1" stop-color="#FFFFD5"/>
</linearGradient>
<linearGradient id="paint1_linear" x1="11.5" y1="11" x2="11.5" y2="4" gradientUnits="userSpaceOnUse">
<stop stop-color="#FDA700"/>
<stop offset="1" stop-color="#FFDE00"/>
</linearGradient>
<linearGradient id="paint2_linear" x1="11.6667" y1="23" x2="11.6667" y2="10.4286" gradientUnits="userSpaceOnUse">
<stop stop-color="#FD5900"/>
<stop offset="1" stop-color="#FFDE00"/>
</linearGradient>
<linearGradient id="paint3_linear" x1="11.5" y1="5.89071" x2="11.5" y2="5" gradientUnits="userSpaceOnUse">
<stop stop-color="#FFE59A"/>
<stop offset="1" stop-color="#FFFFD5"/>
</linearGradient>
<linearGradient id="paint4_linear" x1="11.5" y1="8.89071" x2="11.5" y2="8" gradientUnits="userSpaceOnUse">
<stop stop-color="#FFE59A"/>
<stop offset="1" stop-color="#FFFFD5"/>
</linearGradient>
<linearGradient id="paint5_linear" x1="11.8" y1="15.5629" x2="11.8" y2="12" gradientUnits="userSpaceOnUse">
<stop stop-color="#FFE59A"/>
<stop offset="1" stop-color="#FFFFD5"/>
</linearGradient>
</defs>
</svg>
