<svg width="64" height="64" viewBox="0 0 64 64" fill="none" xmlns="http://www.w3.org/2000/svg">
<path d="M14.2886 14.8659C17.5853 13.6633 21.2229 13.7138 24.4907 15.0146C28.6383 16.6231 32.1511 20.2182 33.9487 24.7462C34.6994 26.5387 35.0937 28.485 35.3521 30.4389C35.6305 32.5037 35.3744 34.5963 34.9645 36.6157C34.1693 35.9576 33.4342 35.2139 32.7615 34.3996C33.1424 31.1322 32.6122 27.7236 31.1821 24.8445C29.4602 21.3023 26.4575 18.582 23.0183 17.4753C20.9066 16.7366 18.6322 16.7366 16.4671 17.15C15.6273 16.5425 14.8053 15.8567 14.2886 14.8659Z" fill="url(#paint0_linear_678_69)"/>
<path d="M10.0741 17.1526C11.395 16.2147 12.7894 15.3852 14.2886 14.8659C14.8053 15.8567 15.6273 16.5425 16.4671 17.15C14.8053 17.5686 13.1904 18.2694 11.7625 19.3283C11.0653 18.7812 10.0028 18.3048 10.0741 17.1526Z" fill="url(#paint1_linear_678_69)"/>
<path d="M6.30514 21.2318C7.36321 19.6585 8.65516 18.2996 10.0741 17.1526C10.0028 18.3048 11.0653 18.7812 11.7625 19.3283C10.4082 20.3266 9.20535 21.5898 8.24751 23.0621C7.64608 22.3915 6.99566 21.7789 6.30514 21.2318Z" fill="url(#paint2_linear_678_69)"/>
<path d="M23.3502 39.8755C25.5799 39.3637 27.9589 39.8376 29.8902 41.1991C32.365 42.8806 34.1537 45.6287 35.2607 48.6036C35.4991 49.1381 35.3186 49.7356 35.0803 50.2247C34.5369 50.6154 33.7594 50.8373 33.2493 50.2574C32.7347 49.5188 32.4986 48.5884 32.0509 47.8019C30.6319 44.9983 28.1371 42.5705 25.1567 42.5277C24.8515 41.3982 23.8157 40.8914 23.3502 39.8755Z" fill="url(#paint3_linear_678_69)"/>
<path d="M16.4916 21.3301C19.1824 20.4451 22.1919 20.8031 24.6065 22.4368C27.2951 24.1991 29.193 27.4338 29.5271 30.9356C29.6808 32.2239 29.5672 33.5298 29.3645 34.803C28.5224 33.8046 27.7629 32.7256 27.0301 31.6238C26.805 27.9606 24.2901 24.6832 21.1115 23.9394C20.196 23.6974 19.2448 23.6848 18.3137 23.8134C17.6009 23.0949 16.7878 22.4117 16.4916 21.3301Z" fill="url(#paint4_linear_678_69)"/>
<path d="M6.30514 21.2318C6.99566 21.7789 7.64608 22.3915 8.24751 23.0621C7.27631 24.5521 6.51227 26.221 6.07122 28.0086C5.49206 27.1412 4.82827 26.3522 4.11323 25.6261C4.69239 24.0731 5.3963 22.5755 6.30514 21.2318Z" fill="url(#paint5_linear_678_69)"/>
<path d="M12.1947 24.2495C13.4043 22.9158 14.8767 21.8999 16.4916 21.3301C16.7878 22.4117 17.6009 23.0949 18.3137 23.8134C16.7121 24.1058 15.1951 24.9605 14.0435 26.2589C13.4533 25.558 12.8363 24.8873 12.1947 24.2495Z" fill="url(#paint6_linear_678_69)"/>
<path d="M9.5974 29.4556C10.0385 27.4968 10.9651 25.7092 12.1947 24.2495C12.8363 24.8873 13.4533 25.558 14.0435 26.2589C12.756 27.7286 11.972 29.7229 11.8472 31.7877C10.7936 31.4221 10.406 30.1792 9.5974 29.4556Z" fill="url(#paint7_linear_678_69)"/>
<path d="M3.71227 26.9497C3.84148 26.506 3.98626 26.0698 4.11323 25.6261C4.82827 26.3522 5.49206 27.1412 6.07122 28.0086C5.46088 30.2977 5.4386 32.7432 5.75269 35.0929C4.78593 34.6013 4.07314 33.6936 3.63654 32.6146C3.42716 32.7457 3.21777 32.8743 3.01061 33.0029C2.93932 30.9583 3.23336 28.9162 3.71227 26.9497Z" fill="url(#paint8_linear_678_69)"/>
<path d="M9.5974 29.4556C10.406 30.1792 10.7936 31.4221 11.8472 31.7877C11.8161 32.9197 11.9453 34.0643 12.2972 35.1307C13.3174 38.5292 16.398 40.9066 19.5589 40.8133C20.8776 40.8486 22.0917 40.2133 23.3502 39.8755C23.8157 40.8914 24.8515 41.3982 25.1567 42.5277C24.239 42.5705 23.339 42.8075 22.4725 43.1403C19.1379 44.3958 15.2643 43.4252 12.667 40.7654C10.0808 38.2141 8.84898 34.1197 9.43036 30.3052C9.47713 30.0178 9.53281 29.7355 9.5974 29.4556Z" fill="url(#paint9_linear_678_69)"/>
<path d="M27.0301 31.6238C27.7629 32.7256 28.5224 33.8046 29.3645 34.803C29.0482 36.0811 28.6606 37.372 27.9611 38.4535C27.3441 39.0914 26.2236 38.7662 25.8828 37.9165C25.4129 36.9081 26.4353 36.0913 26.5979 35.1307C26.9677 34.0139 27.0924 32.8113 27.0301 31.6238Z" fill="url(#paint10_linear_678_69)"/>
<path d="M3.01061 33.0029C3.21777 32.8743 3.42716 32.7457 3.63654 32.6146C4.07314 33.6936 4.78593 34.6013 5.75269 35.0929C5.76605 35.1736 5.795 35.3324 5.80837 35.4131C6.54568 39.4292 8.72422 43.0849 11.7915 45.2858C13.1614 46.3522 14.7363 46.985 16.329 47.4691C16.6698 48.2986 17.1442 49.0422 17.7546 49.6398C18.0575 49.8743 18.0842 50.2953 18.1578 50.6634C14.2462 50.2348 10.4283 48.3717 7.68396 45.1497C4.84609 41.9504 3.21331 37.5131 3.01061 33.0029Z" fill="url(#paint11_linear_678_69)"/>
<path d="M32.7615 34.3996C33.4342 35.2139 34.1693 35.9576 34.9645 36.6157C34.7751 37.5813 34.4856 38.5191 34.1559 39.4343C33.9733 39.9562 33.628 40.4276 33.1468 40.6167C32.2023 40.9141 31.1977 39.6132 31.6967 38.6123C32.1132 37.5813 32.4385 36.4972 32.6256 35.3803C32.6746 35.0525 32.7213 34.7273 32.7615 34.3996Z" fill="url(#paint12_linear_678_69)"/>
<path d="M26.3974 45.495C27.1503 44.9984 27.9767 45.7321 28.2552 46.5237C28.1772 47.1137 27.9946 47.7288 27.5111 48.0464C26.4932 48.7801 25.3661 49.3019 24.2256 49.7457C23.5729 48.9238 22.829 48.2077 22.096 47.4792C23.6019 47.0354 25.0743 46.4354 26.3974 45.495Z" fill="url(#paint13_linear_678_69)"/>
<path d="M16.329 47.4691C18.2335 47.8649 20.1893 47.8422 22.096 47.4792C22.829 48.2077 23.5729 48.9238 24.2256 49.7457C22.2631 50.381 20.2093 50.8802 18.1578 50.6634C18.0842 50.2953 18.0575 49.8743 17.7546 49.6398C17.1442 49.0422 16.6698 48.2986 16.329 47.4691Z" fill="url(#paint14_linear_678_69)"/>
<path d="M14.2886 14.8659C17.5853 13.6633 21.2229 13.7138 24.4907 15.0146C28.6383 16.6231 32.1511 20.2182 33.9487 24.7462C34.6994 26.5387 35.0937 28.485 35.3521 30.4389C35.6305 32.5037 35.3744 34.5963 34.9645 36.6157M14.2886 14.8659C14.8053 15.8567 15.6273 16.5425 16.4671 17.15M14.2886 14.8659C12.7894 15.3852 11.395 16.2147 10.0741 17.1526M34.9645 36.6157C34.1693 35.9576 33.4342 35.2139 32.7615 34.3996M34.9645 36.6157C34.7751 37.5813 34.4856 38.5191 34.1559 39.4343C33.9733 39.9562 33.628 40.4276 33.1468 40.6167C32.2023 40.9141 31.1977 39.6132 31.6967 38.6123C32.1132 37.5813 32.4385 36.4972 32.6256 35.3803C32.6746 35.0525 32.7213 34.7273 32.7615 34.3996M32.7615 34.3996C33.1424 31.1322 32.6122 27.7236 31.1821 24.8445C29.4602 21.3023 26.4575 18.582 23.0183 17.4753C20.9066 16.7366 18.6322 16.7366 16.4671 17.15M16.4671 17.15C14.8053 17.5686 13.1904 18.2694 11.7625 19.3283M10.0741 17.1526C10.0028 18.3048 11.0653 18.7812 11.7625 19.3283M10.0741 17.1526C8.65516 18.2996 7.36321 19.6585 6.30514 21.2318M11.7625 19.3283C10.4082 20.3266 9.20535 21.5898 8.24751 23.0621M6.30514 21.2318C6.99566 21.7789 7.64608 22.3915 8.24751 23.0621M6.30514 21.2318C5.3963 22.5755 4.69239 24.0731 4.11323 25.6261M8.24751 23.0621C7.27631 24.5521 6.51227 26.221 6.07122 28.0086M23.3502 39.8755C25.5799 39.3637 27.9589 39.8376 29.8902 41.1991C32.365 42.8806 34.1537 45.6287 35.2607 48.6036C35.4991 49.1381 35.3186 49.7356 35.0803 50.2247C34.5369 50.6154 33.7594 50.8373 33.2493 50.2574C32.7347 49.5188 32.4986 48.5884 32.0509 47.8019C30.6319 44.9983 28.1371 42.5705 25.1567 42.5277M23.3502 39.8755C23.8157 40.8914 24.8515 41.3982 25.1567 42.5277M23.3502 39.8755C22.0917 40.2133 20.8776 40.8486 19.5589 40.8133C16.398 40.9066 13.3174 38.5292 12.2972 35.1307C11.9453 34.0643 11.8161 32.9197 11.8472 31.7877M25.1567 42.5277C24.239 42.5705 23.339 42.8075 22.4725 43.1403C19.1379 44.3958 15.2643 43.4252 12.667 40.7654C10.0808 38.2141 8.84898 34.1197 9.43036 30.3052C9.47713 30.0178 9.53281 29.7355 9.5974 29.4556M16.4916 21.3301C19.1824 20.4451 22.1919 20.8031 24.6065 22.4368C27.2951 24.1991 29.193 27.4338 29.5271 30.9356C29.6808 32.2239 29.5672 33.5298 29.3645 34.803M16.4916 21.3301C16.7878 22.4117 17.6009 23.0949 18.3137 23.8134M16.4916 21.3301C14.8767 21.8999 13.4043 22.9158 12.1947 24.2495M29.3645 34.803C28.5224 33.8046 27.7629 32.7256 27.0301 31.6238M29.3645 34.803C29.0482 36.0811 28.6606 37.372 27.9611 38.4535C27.3441 39.0914 26.2236 38.7662 25.8828 37.9165C25.4129 36.9081 26.4353 36.0913 26.5979 35.1307C26.9677 34.0139 27.0924 32.8113 27.0301 31.6238M27.0301 31.6238C26.805 27.9606 24.2901 24.6832 21.1115 23.9394C20.196 23.6974 19.2448 23.6848 18.3137 23.8134M18.3137 23.8134C16.7121 24.1058 15.1951 24.9605 14.0435 26.2589M6.07122 28.0086C5.49206 27.1412 4.82827 26.3522 4.11323 25.6261M6.07122 28.0086C5.46088 30.2977 5.4386 32.7432 5.75269 35.0929M4.11323 25.6261C3.98626 26.0698 3.84148 26.506 3.71227 26.9497C3.23336 28.9162 2.93932 30.9583 3.01061 33.0029M12.1947 24.2495C12.8363 24.8873 13.4533 25.558 14.0435 26.2589M12.1947 24.2495C10.9651 25.7092 10.0385 27.4968 9.5974 29.4556M14.0435 26.2589C12.756 27.7286 11.972 29.7229 11.8472 31.7877M9.5974 29.4556C10.406 30.1792 10.7936 31.4221 11.8472 31.7877M5.75269 35.0929C4.78593 34.6013 4.07314 33.6936 3.63654 32.6146C3.42716 32.7457 3.21777 32.8743 3.01061 33.0029M5.75269 35.0929C5.76605 35.1736 5.795 35.3324 5.80837 35.4131C6.54568 39.4292 8.72422 43.0849 11.7915 45.2858C13.1614 46.3522 14.7363 46.985 16.329 47.4691M3.01061 33.0029C3.21331 37.5131 4.84609 41.9504 7.68396 45.1497C10.4283 48.3717 14.2462 50.2348 18.1578 50.6634M16.329 47.4691C16.6698 48.2986 17.1442 49.0422 17.7546 49.6398C18.0575 49.8743 18.0842 50.2953 18.1578 50.6634M16.329 47.4691C18.2335 47.8649 20.1893 47.8422 22.096 47.4792M18.1578 50.6634C20.2093 50.8802 22.2631 50.381 24.2256 49.7457M24.2256 49.7457C25.3661 49.3019 26.4932 48.7801 27.5111 48.0464C27.9946 47.7288 28.1772 47.1137 28.2552 46.5237C27.9767 45.7321 27.1503 44.9984 26.3974 45.495C25.0743 46.4354 23.6019 47.0354 22.096 47.4792M24.2256 49.7457C23.5729 48.9238 22.829 48.2077 22.096 47.4792" stroke="url(#paint15_linear_678_69)" stroke-width="2"/>
<path d="M44.1646 16.2675C44.2446 15.5444 44.8877 14.9192 45.6633 14.9215C47.6576 14.9048 49.6518 14.9143 51.6459 14.9167C52.4416 14.8762 53.2247 15.4824 53.2498 16.2628C53.3023 18.4489 53.2473 20.6351 53.2748 22.8235C54.8837 22.7972 56.4925 22.7972 58.104 22.8116C58.9346 22.8139 59.7128 23.5013 59.6878 24.3128C59.7027 26.3914 59.6902 28.4726 59.6928 30.5513C59.7628 31.3508 59.0072 32.1861 58.134 32.0691C57.3132 32.074 56.7553 31.2697 56.8028 30.5417C56.7903 28.8783 56.8104 27.2124 56.7953 25.549C55.1539 25.5657 53.5125 25.5896 51.8762 25.5466C51.1005 25.5514 50.3598 24.8664 50.4299 24.1123C50.4149 21.9834 50.4324 19.8522 50.4249 17.721C49.2364 17.7234 48.0504 17.7306 46.8619 17.7138C46.3565 20.1171 45.5933 22.6469 43.6841 24.3939C43.0337 25.0311 42.1504 25.3438 41.3773 25.8068C40.3288 26.6684 40.2413 28.1075 40.2138 29.3341C41.1595 29.358 42.1204 29.2459 43.0562 29.4153C43.8243 29.5465 44.2571 30.3222 44.2321 31.0167C44.2396 34.1957 44.2372 37.3745 44.2321 40.5511C44.077 42.7659 45.3306 44.94 47.1321 46.2837C48.9687 47.6321 51.4132 47.7491 53.6326 47.5319C55.1014 47.4007 56.6952 47.1262 57.8312 46.162C57.3233 45.1 56.8729 44.0165 56.385 42.9473C55.219 43.1859 53.9704 43.4795 52.8245 43.0022C51.2706 42.4962 50.3548 40.8877 50.4274 39.3721C50.4299 36.5035 50.4124 33.6348 50.435 30.7661C50.3849 29.8592 51.5233 29.2172 52.3665 29.58C52.9971 29.7637 53.2774 30.4343 53.2673 31.0191C53.2824 33.7231 53.2548 36.4271 53.2774 39.1335C53.3098 39.5964 53.3323 40.2551 53.8904 40.4294C54.8537 40.5678 55.7895 40.2122 56.6552 39.8495C57.4009 39.5106 58.2665 40.0308 58.5368 40.7158C59.36 42.4771 60.0931 44.2742 60.8988 46.0451C61.2541 46.7634 60.596 47.4293 60.1482 47.9448C58.3116 49.6989 55.6268 50.1023 53.1672 50.434C50.9854 50.6034 48.7434 50.2144 46.7743 49.3003C43.7742 47.8804 41.7851 44.8852 41.3172 41.7707C41.2872 38.5368 41.3247 35.303 41.2972 32.0716C40.3288 32.0597 39.3455 32.1694 38.3872 32.0048C37.4038 31.599 37.3613 30.4367 37.2988 29.5633C37.2337 27.5275 37.7016 25.2602 39.353 23.8354C40.1261 23.086 41.3347 22.9213 42.0178 22.0717C43.3965 20.4298 43.8218 18.289 44.1646 16.2675Z" fill="url(#paint16_linear_678_69)" stroke="url(#paint17_linear_678_69)"/>
<defs>
<linearGradient id="paint0_linear_678_69" x1="19.2344" y1="50.7148" x2="19.2344" y2="14" gradientUnits="userSpaceOnUse">
<stop stop-color="#02AA93"/>
<stop offset="1" stop-color="#67FF80"/>
</linearGradient>
<linearGradient id="paint1_linear_678_69" x1="19.2344" y1="50.7148" x2="19.2344" y2="14" gradientUnits="userSpaceOnUse">
<stop stop-color="#02AA93"/>
<stop offset="1" stop-color="#67FF80"/>
</linearGradient>
<linearGradient id="paint2_linear_678_69" x1="19.2344" y1="50.7148" x2="19.2344" y2="14" gradientUnits="userSpaceOnUse">
<stop stop-color="#02AA93"/>
<stop offset="1" stop-color="#67FF80"/>
</linearGradient>
<linearGradient id="paint3_linear_678_69" x1="19.2344" y1="50.7148" x2="19.2344" y2="14" gradientUnits="userSpaceOnUse">
<stop stop-color="#02AA93"/>
<stop offset="1" stop-color="#67FF80"/>
</linearGradient>
<linearGradient id="paint4_linear_678_69" x1="19.2344" y1="50.7148" x2="19.2344" y2="14" gradientUnits="userSpaceOnUse">
<stop stop-color="#02AA93"/>
<stop offset="1" stop-color="#67FF80"/>
</linearGradient>
<linearGradient id="paint5_linear_678_69" x1="19.2344" y1="50.7148" x2="19.2344" y2="14" gradientUnits="userSpaceOnUse">
<stop stop-color="#02AA93"/>
<stop offset="1" stop-color="#67FF80"/>
</linearGradient>
<linearGradient id="paint6_linear_678_69" x1="19.2344" y1="50.7148" x2="19.2344" y2="14" gradientUnits="userSpaceOnUse">
<stop stop-color="#02AA93"/>
<stop offset="1" stop-color="#67FF80"/>
</linearGradient>
<linearGradient id="paint7_linear_678_69" x1="19.2344" y1="50.7148" x2="19.2344" y2="14" gradientUnits="userSpaceOnUse">
<stop stop-color="#02AA93"/>
<stop offset="1" stop-color="#67FF80"/>
</linearGradient>
<linearGradient id="paint8_linear_678_69" x1="19.2344" y1="50.7148" x2="19.2344" y2="14" gradientUnits="userSpaceOnUse">
<stop stop-color="#02AA93"/>
<stop offset="1" stop-color="#67FF80"/>
</linearGradient>
<linearGradient id="paint9_linear_678_69" x1="19.2344" y1="50.7148" x2="19.2344" y2="14" gradientUnits="userSpaceOnUse">
<stop stop-color="#02AA93"/>
<stop offset="1" stop-color="#67FF80"/>
</linearGradient>
<linearGradient id="paint10_linear_678_69" x1="19.2344" y1="50.7148" x2="19.2344" y2="14" gradientUnits="userSpaceOnUse">
<stop stop-color="#02AA93"/>
<stop offset="1" stop-color="#67FF80"/>
</linearGradient>
<linearGradient id="paint11_linear_678_69" x1="19.2344" y1="50.7148" x2="19.2344" y2="14" gradientUnits="userSpaceOnUse">
<stop stop-color="#02AA93"/>
<stop offset="1" stop-color="#67FF80"/>
</linearGradient>
<linearGradient id="paint12_linear_678_69" x1="19.2344" y1="50.7148" x2="19.2344" y2="14" gradientUnits="userSpaceOnUse">
<stop stop-color="#02AA93"/>
<stop offset="1" stop-color="#67FF80"/>
</linearGradient>
<linearGradient id="paint13_linear_678_69" x1="19.2344" y1="50.7148" x2="19.2344" y2="14" gradientUnits="userSpaceOnUse">
<stop stop-color="#02AA93"/>
<stop offset="1" stop-color="#67FF80"/>
</linearGradient>
<linearGradient id="paint14_linear_678_69" x1="19.2344" y1="50.7148" x2="19.2344" y2="14" gradientUnits="userSpaceOnUse">
<stop stop-color="#02AA93"/>
<stop offset="1" stop-color="#67FF80"/>
</linearGradient>
<linearGradient id="paint15_linear_678_69" x1="19.2344" y1="50.7148" x2="19.2344" y2="14" gradientUnits="userSpaceOnUse">
<stop stop-color="#02AA93"/>
<stop offset="1" stop-color="#67FF80"/>
</linearGradient>
<linearGradient id="paint16_linear_678_69" x1="49.1466" y1="50.4727" x2="49.1466" y2="14.9119" gradientUnits="userSpaceOnUse">
<stop stop-color="#02AA93"/>
<stop offset="1" stop-color="#67FF80"/>
</linearGradient>
<linearGradient id="paint17_linear_678_69" x1="49.1466" y1="50.4727" x2="49.1466" y2="14.9119" gradientUnits="userSpaceOnUse">
<stop stop-color="#02AA93"/>
<stop offset="1" stop-color="#67FF80"/>
</linearGradient>
</defs>
</svg>
