<svg width="64" height="64" viewBox="0 0 64 64" fill="none" xmlns="http://www.w3.org/2000/svg">
<path d="M14.2886 23.8659C17.5853 22.6633 21.2229 22.7138 24.4907 24.0146C28.6383 25.6231 32.1511 29.2182 33.9487 33.7462C34.6994 35.5387 35.0937 37.485 35.3521 39.4389C35.6305 41.5037 35.3744 43.5963 34.9645 45.6157C34.1693 44.9576 33.4342 44.2139 32.7615 43.3996C33.1424 40.1322 32.6122 36.7236 31.1821 33.8445C29.4602 30.3023 26.4575 27.582 23.0183 26.4753C20.9066 25.7366 18.6322 25.7366 16.4671 26.15C15.6273 25.5425 14.8053 24.8567 14.2886 23.8659Z" fill="url(#paint0_linear_678_69)"/>
<path d="M10.0741 26.1526C11.395 25.2147 12.7894 24.3852 14.2886 23.8659C14.8053 24.8567 15.6273 25.5425 16.4671 26.15C14.8053 26.5686 13.1904 27.2694 11.7625 28.3283C11.0653 27.7812 10.0028 27.3048 10.0741 26.1526Z" fill="url(#paint1_linear_678_69)"/>
<path d="M6.30514 30.2318C7.36321 28.6585 8.65516 27.2996 10.0741 26.1526C10.0028 27.3048 11.0653 27.7812 11.7625 28.3283C10.4082 29.3266 9.20535 30.5898 8.24751 32.0621C7.64608 31.3915 6.99566 30.7789 6.30514 30.2318Z" fill="url(#paint2_linear_678_69)"/>
<path d="M23.3502 48.8755C25.5799 48.3637 27.9589 48.8376 29.8902 50.1991C32.365 51.8806 34.1537 54.6287 35.2607 57.6036C35.4991 58.1381 35.3186 58.7356 35.0803 59.2247C34.5369 59.6154 33.7594 59.8373 33.2493 59.2574C32.7347 58.5188 32.4986 57.5884 32.0509 56.8019C30.6319 53.9983 28.1371 51.5705 25.1567 51.5277C24.8515 50.3982 23.8157 49.8914 23.3502 48.8755Z" fill="url(#paint3_linear_678_69)"/>
<path d="M16.4916 30.3301C19.1824 29.4451 22.1919 29.8031 24.6065 31.4368C27.2951 33.1991 29.193 36.4338 29.5271 39.9356C29.6808 41.2239 29.5672 42.5298 29.3645 43.803C28.5224 42.8046 27.7629 41.7256 27.0301 40.6238C26.805 36.9606 24.2901 33.6832 21.1115 32.9394C20.196 32.6974 19.2448 32.6848 18.3137 32.8134C17.6009 32.0949 16.7878 31.4117 16.4916 30.3301Z" fill="url(#paint4_linear_678_69)"/>
<path d="M6.30514 30.2318C6.99566 30.7789 7.64608 31.3915 8.24751 32.0621C7.27631 33.5521 6.51227 35.221 6.07122 37.0086C5.49206 36.1412 4.82827 35.3522 4.11323 34.6261C4.69239 33.0731 5.3963 31.5755 6.30514 30.2318Z" fill="url(#paint5_linear_678_69)"/>
<path d="M12.1947 33.2495C13.4043 31.9158 14.8767 30.8999 16.4916 30.3301C16.7878 31.4117 17.6009 32.0949 18.3137 32.8134C16.7121 33.1058 15.1951 33.9605 14.0435 35.2589C13.4533 34.558 12.8363 33.8873 12.1947 33.2495Z" fill="url(#paint6_linear_678_69)"/>
<path d="M9.5974 38.4556C10.0385 36.4968 10.9651 34.7092 12.1947 33.2495C12.8363 33.8873 13.4533 34.558 14.0435 35.2589C12.756 36.7286 11.972 38.7229 11.8472 40.7877C10.7936 40.4221 10.406 39.1792 9.5974 38.4556Z" fill="url(#paint7_linear_678_69)"/>
<path d="M3.71227 35.9497C3.84148 35.506 3.98626 35.0698 4.11323 34.6261C4.82827 35.3522 5.49206 36.1412 6.07122 37.0086C5.46088 39.2977 5.4386 41.7432 5.75269 44.0929C4.78593 43.6013 4.07314 42.6936 3.63654 41.6146C3.42716 41.7457 3.21777 41.8743 3.01061 42.0029C2.93932 39.9583 3.23336 37.9162 3.71227 35.9497Z" fill="url(#paint8_linear_678_69)"/>
<path d="M9.5974 38.4556C10.406 39.1792 10.7936 40.4221 11.8472 40.7877C11.8161 41.9197 11.9453 43.0643 12.2972 44.1307C13.3174 47.5292 16.398 49.9066 19.5589 49.8133C20.8776 49.8486 22.0917 49.2133 23.3502 48.8755C23.8157 49.8914 24.8515 50.3982 25.1567 51.5277C24.239 51.5705 23.339 51.8075 22.4725 52.1403C19.1379 53.3958 15.2643 52.4252 12.667 49.7654C10.0808 47.2141 8.84898 43.1197 9.43036 39.3052C9.47713 39.0178 9.53281 38.7355 9.5974 38.4556Z" fill="url(#paint9_linear_678_69)"/>
<path d="M27.0301 40.6238C27.7629 41.7256 28.5224 42.8046 29.3645 43.803C29.0482 45.0811 28.6606 46.372 27.9611 47.4535C27.3441 48.0914 26.2236 47.7662 25.8828 46.9165C25.4129 45.9081 26.4353 45.0913 26.5979 44.1307C26.9677 43.0139 27.0924 41.8113 27.0301 40.6238Z" fill="url(#paint10_linear_678_69)"/>
<path d="M3.01061 42.0029C3.21777 41.8743 3.42716 41.7457 3.63654 41.6146C4.07314 42.6936 4.78593 43.6013 5.75269 44.0929C5.76605 44.1736 5.795 44.3324 5.80837 44.4131C6.54568 48.4292 8.72422 52.0849 11.7915 54.2858C13.1614 55.3522 14.7363 55.985 16.329 56.4691C16.6698 57.2986 17.1442 58.0422 17.7546 58.6398C18.0575 58.8743 18.0842 59.2953 18.1578 59.6634C14.2462 59.2348 10.4283 57.3717 7.68396 54.1497C4.84609 50.9504 3.21331 46.5131 3.01061 42.0029Z" fill="url(#paint11_linear_678_69)"/>
<path d="M32.7615 43.3996C33.4342 44.2139 34.1693 44.9576 34.9645 45.6157C34.7751 46.5813 34.4856 47.5191 34.1559 48.4343C33.9733 48.9562 33.628 49.4276 33.1468 49.6167C32.2023 49.9141 31.1977 48.6132 31.6967 47.6123C32.1132 46.5813 32.4385 45.4972 32.6256 44.3803C32.6746 44.0525 32.7213 43.7273 32.7615 43.3996Z" fill="url(#paint12_linear_678_69)"/>
<path d="M26.3974 54.495C27.1503 53.9984 27.9767 54.7321 28.2552 55.5237C28.1772 56.1137 27.9946 56.7288 27.5111 57.0464C26.4932 57.7801 25.3661 58.3019 24.2256 58.7457C23.5729 57.9238 22.829 57.2077 22.096 56.4792C23.6019 56.0354 25.0743 55.4354 26.3974 54.495Z" fill="url(#paint13_linear_678_69)"/>
<path d="M16.329 56.4691C18.2335 56.8649 20.1893 56.8422 22.096 56.4792C22.829 57.2077 23.5729 57.9238 24.2256 58.7457C22.2631 59.381 20.2093 59.8802 18.1578 59.6634C18.0842 59.2953 18.0575 58.8743 17.7546 58.6398C17.1442 58.0422 16.6698 57.2986 16.329 56.4691Z" fill="url(#paint14_linear_678_69)"/>
<path d="M14.2886 23.8659C17.5853 22.6633 21.2229 22.7138 24.4907 24.0146C28.6383 25.6231 32.1511 29.2182 33.9487 33.7462C34.6994 35.5387 35.0937 37.485 35.3521 39.4389C35.6305 41.5037 35.3744 43.5963 34.9645 45.6157M14.2886 23.8659C14.8053 24.8567 15.6273 25.5425 16.4671 26.15M14.2886 23.8659C12.7894 24.3852 11.395 25.2147 10.0741 26.1526M34.9645 45.6157C34.1693 44.9576 33.4342 44.2139 32.7615 43.3996M34.9645 45.6157C34.7751 46.5813 34.4856 47.5191 34.1559 48.4343C33.9733 48.9562 33.628 49.4276 33.1468 49.6167C32.2023 49.9141 31.1977 48.6132 31.6967 47.6123C32.1132 46.5813 32.4385 45.4972 32.6256 44.3803C32.6746 44.0525 32.7213 43.7273 32.7615 43.3996M32.7615 43.3996C33.1424 40.1322 32.6122 36.7236 31.1821 33.8445C29.4602 30.3023 26.4575 27.582 23.0183 26.4753C20.9066 25.7366 18.6322 25.7366 16.4671 26.15M16.4671 26.15C14.8053 26.5686 13.1904 27.2694 11.7625 28.3283M10.0741 26.1526C10.0028 27.3048 11.0653 27.7812 11.7625 28.3283M10.0741 26.1526C8.65516 27.2996 7.36321 28.6585 6.30514 30.2318M11.7625 28.3283C10.4082 29.3266 9.20535 30.5898 8.24751 32.0621M6.30514 30.2318C6.99566 30.7789 7.64608 31.3915 8.24751 32.0621M6.30514 30.2318C5.3963 31.5755 4.69239 33.0731 4.11323 34.6261M8.24751 32.0621C7.27631 33.5521 6.51227 35.221 6.07122 37.0086M23.3502 48.8755C25.5799 48.3637 27.9589 48.8376 29.8902 50.1991C32.365 51.8806 34.1537 54.6287 35.2607 57.6036C35.4991 58.1381 35.3186 58.7356 35.0803 59.2247C34.5369 59.6154 33.7594 59.8373 33.2493 59.2574C32.7347 58.5188 32.4986 57.5884 32.0509 56.8019C30.6319 53.9983 28.1371 51.5705 25.1567 51.5277M23.3502 48.8755C23.8157 49.8914 24.8515 50.3982 25.1567 51.5277M23.3502 48.8755C22.0917 49.2133 20.8776 49.8486 19.5589 49.8133C16.398 49.9066 13.3174 47.5292 12.2972 44.1307C11.9453 43.0643 11.8161 41.9197 11.8472 40.7877M25.1567 51.5277C24.239 51.5705 23.339 51.8075 22.4725 52.1403C19.1379 53.3958 15.2643 52.4252 12.667 49.7654C10.0808 47.2141 8.84898 43.1197 9.43036 39.3052C9.47713 39.0178 9.53281 38.7355 9.5974 38.4556M16.4916 30.3301C19.1824 29.4451 22.1919 29.8031 24.6065 31.4368C27.2951 33.1991 29.193 36.4338 29.5271 39.9356C29.6808 41.2239 29.5672 42.5298 29.3645 43.803M16.4916 30.3301C16.7878 31.4117 17.6009 32.0949 18.3137 32.8134M16.4916 30.3301C14.8767 30.8999 13.4043 31.9158 12.1947 33.2495M29.3645 43.803C28.5224 42.8046 27.7629 41.7256 27.0301 40.6238M29.3645 43.803C29.0482 45.0811 28.6606 46.372 27.9611 47.4535C27.3441 48.0914 26.2236 47.7662 25.8828 46.9165C25.4129 45.9081 26.4353 45.0913 26.5979 44.1307C26.9677 43.0139 27.0924 41.8113 27.0301 40.6238M27.0301 40.6238C26.805 36.9606 24.2901 33.6832 21.1115 32.9394C20.196 32.6974 19.2448 32.6848 18.3137 32.8134M18.3137 32.8134C16.7121 33.1058 15.1951 33.9605 14.0435 35.2589M6.07122 37.0086C5.49206 36.1412 4.82827 35.3522 4.11323 34.6261M6.07122 37.0086C5.46088 39.2977 5.4386 41.7432 5.75269 44.0929M4.11323 34.6261C3.98626 35.0698 3.84148 35.506 3.71227 35.9497C3.23336 37.9162 2.93932 39.9583 3.01061 42.0029M12.1947 33.2495C12.8363 33.8873 13.4533 34.558 14.0435 35.2589M12.1947 33.2495C10.9651 34.7092 10.0385 36.4968 9.5974 38.4556M14.0435 35.2589C12.756 36.7286 11.972 38.7229 11.8472 40.7877M9.5974 38.4556C10.406 39.1792 10.7936 40.4221 11.8472 40.7877M5.75269 44.0929C4.78593 43.6013 4.07314 42.6936 3.63654 41.6146C3.42716 41.7457 3.21777 41.8743 3.01061 42.0029M5.75269 44.0929C5.76605 44.1736 5.795 44.3324 5.80837 44.4131C6.54568 48.4292 8.72422 52.0849 11.7915 54.2858C13.1614 55.3522 14.7363 55.985 16.329 56.4691M3.01061 42.0029C3.21331 46.5131 4.84609 50.9504 7.68396 54.1497C10.4283 57.3717 14.2462 59.2348 18.1578 59.6634M16.329 56.4691C16.6698 57.2986 17.1442 58.0422 17.7546 58.6398C18.0575 58.8743 18.0842 59.2953 18.1578 59.6634M16.329 56.4691C18.2335 56.8649 20.1893 56.8422 22.096 56.4792M18.1578 59.6634C20.2093 59.8802 22.2631 59.381 24.2256 58.7457M24.2256 58.7457C25.3661 58.3019 26.4932 57.7801 27.5111 57.0464C27.9946 56.7288 28.1772 56.1137 28.2552 55.5237C27.9767 54.7321 27.1503 53.9984 26.3974 54.495C25.0743 55.4354 23.6019 56.0354 22.096 56.4792M24.2256 58.7457C23.5729 57.9238 22.829 57.2077 22.096 56.4792" stroke="url(#paint15_linear_678_69)" stroke-width="2"/>
<path d="M44.1646 25.2675C44.2446 24.5444 44.8877 23.9192 45.6633 23.9215C47.6576 23.9048 49.6518 23.9143 51.6459 23.9167C52.4416 23.8762 53.2247 24.4824 53.2498 25.2628C53.3023 27.4489 53.2473 29.6351 53.2748 31.8235C54.8837 31.7972 56.4925 31.7972 58.104 31.8116C58.9346 31.8139 59.7128 32.5013 59.6878 33.3128C59.7027 35.3914 59.6902 37.4726 59.6928 39.5513C59.7628 40.3508 59.0072 41.1861 58.134 41.0691C57.3132 41.074 56.7553 40.2697 56.8028 39.5417C56.7903 37.8783 56.8104 36.2124 56.7953 34.549C55.1539 34.5657 53.5125 34.5896 51.8762 34.5466C51.1005 34.5514 50.3598 33.8664 50.4299 33.1123C50.4149 30.9834 50.4324 28.8522 50.4249 26.721C49.2364 26.7234 48.0504 26.7306 46.8619 26.7138C46.3565 29.1171 45.5933 31.6469 43.6841 33.3939C43.0337 34.0311 42.1504 34.3438 41.3773 34.8068C40.3288 35.6684 40.2413 37.1075 40.2138 38.3341C41.1595 38.358 42.1204 38.2459 43.0562 38.4153C43.8243 38.5465 44.2571 39.3222 44.2321 40.0167C44.2396 43.1957 44.2372 46.3745 44.2321 49.5511C44.077 51.7659 45.3306 53.94 47.1321 55.2837C48.9687 56.6321 51.4132 56.7491 53.6326 56.5319C55.1014 56.4007 56.6952 56.1262 57.8312 55.162C57.3233 54.1 56.8729 53.0165 56.385 51.9473C55.219 52.1859 53.9704 52.4795 52.8245 52.0022C51.2706 51.4962 50.3548 49.8877 50.4274 48.3721C50.4299 45.5035 50.4124 42.6348 50.435 39.7661C50.3849 38.8592 51.5233 38.2172 52.3665 38.58C52.9971 38.7637 53.2774 39.4343 53.2673 40.0191C53.2824 42.7231 53.2548 45.4271 53.2774 48.1335C53.3098 48.5964 53.3323 49.2551 53.8904 49.4294C54.8537 49.5678 55.7895 49.2122 56.6552 48.8495C57.4009 48.5106 58.2665 49.0308 58.5368 49.7158C59.36 51.4771 60.0931 53.2742 60.8988 55.0451C61.2541 55.7634 60.596 56.4293 60.1482 56.9448C58.3116 58.6989 55.6268 59.1023 53.1672 59.434C50.9854 59.6034 48.7434 59.2144 46.7743 58.3003C43.7742 56.8804 41.7851 53.8852 41.3172 50.7707C41.2872 47.5368 41.3247 44.303 41.2972 41.0716C40.3288 41.0597 39.3455 41.1694 38.3872 41.0048C37.4038 40.599 37.3613 39.4367 37.2988 38.5633C37.2337 36.5275 37.7016 34.2602 39.353 32.8354C40.1261 32.086 41.3347 31.9213 42.0178 31.0717C43.3965 29.4298 43.8218 27.289 44.1646 25.2675Z" fill="url(#paint16_linear_678_69)" stroke="url(#paint17_linear_678_69)"/>
<path d="M47.9911 8.11045C48.4517 8.11561 48.6894 8.59134 48.6803 9.01961C48.6882 10.3095 48.5265 11.613 48.2293 12.8922C48.074 13.8738 47.1051 14.3923 46.4641 15.0534C46.7939 15.4083 47.1955 15.8737 46.8895 16.4293C46.469 16.985 45.7451 17.1167 45.1638 17.4099C45.6186 17.6659 45.733 18.3666 45.3529 18.8009C44.1155 20.1919 42.5984 21.3338 40.9274 22.0657C38.3935 23.2017 35.6502 23.519 32.9967 23.4828C32.6583 23.4739 32.2195 23.5413 32.0257 23.2054C30.7732 21.0301 29.9958 18.5035 30.0002 15.8723C29.9834 13.2239 30.9827 10.5332 32.6726 8.39482C32.9699 7.90264 33.7198 7.79331 34.0216 8.25471C34.3503 8.69511 34.0311 9.30178 33.7004 9.69096C32.8004 10.8168 32.1771 12.1493 31.8587 13.5325C31.3056 15.9796 31.7185 18.4821 32.6219 20.661C33.3698 18.6955 34.1802 16.7529 34.9428 14.7925C35.1847 14.3026 35.7666 14.2887 36.1985 14.3687C36.3257 14.6731 36.5298 15.0017 36.4024 15.3631C35.6634 17.2158 34.9384 19.0749 34.1889 20.9237C36.6655 19.5263 38.9601 17.4988 40.2388 14.8662C41.2403 12.7752 41.4372 10.4091 41.0194 8.24975C40.8136 7.05948 40.3999 5.93596 39.9243 4.85407C38.9348 5.33571 37.9706 5.88508 37.0633 6.5305C36.6825 6.78827 36.0994 6.84347 35.8317 6.45617C35.5759 6.12701 35.6629 5.57878 36.0127 5.29868C37.263 4.48756 38.5416 3.70962 39.8906 3.10716C40.2952 2.90507 40.838 2.98049 41.022 3.40469C41.8831 4.92754 42.4152 6.64812 42.7096 8.41593C44.4661 8.11425 46.2478 7.96658 47.9911 8.11045ZM42.8425 10.0508C42.8645 12.3324 42.2752 14.6873 41.0155 16.6933L41.0876 16.7636C40.6753 17.3454 40.2979 17.9652 39.7583 18.4388C38.6189 19.6985 37.3309 20.8164 35.9159 21.7254C38.6829 21.4196 41.5672 20.4534 43.659 18.3221C43.1686 18.0386 42.6587 17.4292 43.0592 16.7985C43.5427 16.279 44.2676 16.1296 44.8756 15.8319C44.5206 15.4864 44.421 14.8165 44.859 14.4257C45.4625 13.8844 46.0224 13.2915 46.6424 12.7693C46.8782 11.7577 47.0192 10.7328 47.0822 9.70868C45.6736 9.67929 44.2518 9.77799 42.8425 10.0508Z" fill="url(#paint18_linear_678_69)" stroke="url(#paint19_linear_678_69)" stroke-width="2"/>
<defs>
<linearGradient id="paint0_linear_678_69" x1="19.2344" y1="59.7148" x2="19.2344" y2="23" gradientUnits="userSpaceOnUse">
<stop stop-color="#00B59C"/>
<stop offset="1" stop-color="#9CFFAC"/>
</linearGradient>
<linearGradient id="paint1_linear_678_69" x1="19.2344" y1="59.7148" x2="19.2344" y2="23" gradientUnits="userSpaceOnUse">
<stop stop-color="#00B59C"/>
<stop offset="1" stop-color="#9CFFAC"/>
</linearGradient>
<linearGradient id="paint2_linear_678_69" x1="19.2344" y1="59.7148" x2="19.2344" y2="23" gradientUnits="userSpaceOnUse">
<stop stop-color="#00B59C"/>
<stop offset="1" stop-color="#9CFFAC"/>
</linearGradient>
<linearGradient id="paint3_linear_678_69" x1="19.2344" y1="59.7148" x2="19.2344" y2="23" gradientUnits="userSpaceOnUse">
<stop stop-color="#00B59C"/>
<stop offset="1" stop-color="#9CFFAC"/>
</linearGradient>
<linearGradient id="paint4_linear_678_69" x1="19.2344" y1="59.7148" x2="19.2344" y2="23" gradientUnits="userSpaceOnUse">
<stop stop-color="#00B59C"/>
<stop offset="1" stop-color="#9CFFAC"/>
</linearGradient>
<linearGradient id="paint5_linear_678_69" x1="19.2344" y1="59.7148" x2="19.2344" y2="23" gradientUnits="userSpaceOnUse">
<stop stop-color="#00B59C"/>
<stop offset="1" stop-color="#9CFFAC"/>
</linearGradient>
<linearGradient id="paint6_linear_678_69" x1="19.2344" y1="59.7148" x2="19.2344" y2="23" gradientUnits="userSpaceOnUse">
<stop stop-color="#00B59C"/>
<stop offset="1" stop-color="#9CFFAC"/>
</linearGradient>
<linearGradient id="paint7_linear_678_69" x1="19.2344" y1="59.7148" x2="19.2344" y2="23" gradientUnits="userSpaceOnUse">
<stop stop-color="#00B59C"/>
<stop offset="1" stop-color="#9CFFAC"/>
</linearGradient>
<linearGradient id="paint8_linear_678_69" x1="19.2344" y1="59.7148" x2="19.2344" y2="23" gradientUnits="userSpaceOnUse">
<stop stop-color="#00B59C"/>
<stop offset="1" stop-color="#9CFFAC"/>
</linearGradient>
<linearGradient id="paint9_linear_678_69" x1="19.2344" y1="59.7148" x2="19.2344" y2="23" gradientUnits="userSpaceOnUse">
<stop stop-color="#00B59C"/>
<stop offset="1" stop-color="#9CFFAC"/>
</linearGradient>
<linearGradient id="paint10_linear_678_69" x1="19.2344" y1="59.7148" x2="19.2344" y2="23" gradientUnits="userSpaceOnUse">
<stop stop-color="#00B59C"/>
<stop offset="1" stop-color="#9CFFAC"/>
</linearGradient>
<linearGradient id="paint11_linear_678_69" x1="19.2344" y1="59.7148" x2="19.2344" y2="23" gradientUnits="userSpaceOnUse">
<stop stop-color="#00B59C"/>
<stop offset="1" stop-color="#9CFFAC"/>
</linearGradient>
<linearGradient id="paint12_linear_678_69" x1="19.2344" y1="59.7148" x2="19.2344" y2="23" gradientUnits="userSpaceOnUse">
<stop stop-color="#00B59C"/>
<stop offset="1" stop-color="#9CFFAC"/>
</linearGradient>
<linearGradient id="paint13_linear_678_69" x1="19.2344" y1="59.7148" x2="19.2344" y2="23" gradientUnits="userSpaceOnUse">
<stop stop-color="#00B59C"/>
<stop offset="1" stop-color="#9CFFAC"/>
</linearGradient>
<linearGradient id="paint14_linear_678_69" x1="19.2344" y1="59.7148" x2="19.2344" y2="23" gradientUnits="userSpaceOnUse">
<stop stop-color="#00B59C"/>
<stop offset="1" stop-color="#9CFFAC"/>
</linearGradient>
<linearGradient id="paint15_linear_678_69" x1="19.2344" y1="59.7148" x2="19.2344" y2="23" gradientUnits="userSpaceOnUse">
<stop stop-color="#00B59C"/>
<stop offset="1" stop-color="#9CFFAC"/>
</linearGradient>
<linearGradient id="paint16_linear_678_69" x1="49.1466" y1="59.4727" x2="49.1466" y2="23.9119" gradientUnits="userSpaceOnUse">
<stop stop-color="#00B59C"/>
<stop offset="1" stop-color="#9CFFAC"/>
</linearGradient>
<linearGradient id="paint17_linear_678_69" x1="49.1466" y1="59.4727" x2="49.1466" y2="23.9119" gradientUnits="userSpaceOnUse">
<stop stop-color="#00B59C"/>
<stop offset="1" stop-color="#9CFFAC"/>
</linearGradient>
<linearGradient id="paint18_linear_678_69" x1="39.3403" y1="23.4855" x2="39.3403" y2="3" gradientUnits="userSpaceOnUse">
<stop stop-color="#00B59C"/>
<stop offset="1" stop-color="#9CFFAC"/>
</linearGradient>
<linearGradient id="paint19_linear_678_69" x1="39.3403" y1="23.4855" x2="39.3403" y2="3" gradientUnits="userSpaceOnUse">
<stop stop-color="#00B59C"/>
<stop offset="1" stop-color="#9CFFAC"/>
</linearGradient>
</defs>
</svg>
