<svg width="64" height="64" viewBox="0 0 64 64" fill="none" xmlns="http://www.w3.org/2000/svg">
<path d="M7 6C6.44772 6 6 6.44772 6 7V22.3333C6 22.8856 6.44772 23.3333 7 23.3333H22.3333C22.8856 23.3333 23.3333 22.8856 23.3333 22.3333V7C23.3333 6.44772 22.8856 6 22.3333 6H7ZM28.6667 6C28.1144 6 27.6667 6.44772 27.6667 7V13.6667C27.6667 14.219 28.1144 14.6667 28.6667 14.6667H31C31.5523 14.6667 32 14.219 32 13.6667V11.3333C32 10.781 32.4477 10.3333 33 10.3333H35.3333C35.8856 10.3333 36.3333 9.88562 36.3333 9.33333V7C36.3333 6.44772 35.8856 6 35.3333 6H32H28.6667ZM33 14.6667C32.4477 14.6667 32 15.1144 32 15.6667V22.3333C32 22.8856 32.4477 23.3333 33 23.3333H35.3333C35.8856 23.3333 36.3333 22.8856 36.3333 22.3333V15.6667C36.3333 15.1144 35.8856 14.6667 35.3333 14.6667H33ZM32 24.3333C32 23.781 31.5523 23.3333 31 23.3333H28.6667C28.1144 23.3333 27.6667 23.781 27.6667 24.3333V26.6667C27.6667 27.219 28.1144 27.6667 28.6667 27.6667H31C31.5523 27.6667 32 27.219 32 26.6667V24.3333ZM33 27.6667C32.4477 27.6667 32 28.1144 32 28.6667V31C32 31.5523 32.4477 32 33 32H35.3333C35.8856 32 36.3333 31.5523 36.3333 31V28.6667C36.3333 28.1144 35.8856 27.6667 35.3333 27.6667H33ZM37.3333 32C36.781 32 36.3333 32.4477 36.3333 33V35.3333C36.3333 35.8856 36.781 36.3333 37.3333 36.3333H44C44.5523 36.3333 45 35.8856 45 35.3333V28.6667C45 28.1144 44.5523 27.6667 44 27.6667H41.6667C41.1144 27.6667 40.6667 28.1144 40.6667 28.6667V31C40.6667 31.5523 40.219 32 39.6667 32H37.3333ZM46 36.3333C45.4477 36.3333 45 36.781 45 37.3333V39.6667C45 40.219 45.4477 40.6667 46 40.6667H48.3333C48.8856 40.6667 49.3333 41.1144 49.3333 41.6667V44C49.3333 44.5523 49.7811 45 50.3333 45H52.6667C53.219 45 53.6667 44.5523 53.6667 44V37.3333C53.6667 36.781 53.219 36.3333 52.6667 36.3333H46ZM53.6667 35.3333C53.6667 35.8856 54.1144 36.3333 54.6667 36.3333H57C57.5523 36.3333 58 35.8856 58 35.3333V32V28.6667C58 28.1144 57.5523 27.6667 57 27.6667H50.3333C49.7811 27.6667 49.3333 28.1144 49.3333 28.6667V31C49.3333 31.5523 49.7811 32 50.3333 32H52.6667C53.219 32 53.6667 32.4477 53.6667 33V35.3333ZM45 41.6667C45 41.1144 44.5523 40.6667 44 40.6667H41.6667C41.1144 40.6667 40.6667 41.1144 40.6667 41.6667V44C40.6667 44.5523 41.1144 45 41.6667 45H44C44.5523 45 45 44.5523 45 44V41.6667ZM40.6667 46C40.6667 45.4477 40.219 45 39.6667 45H37.3333C36.781 45 36.3333 45.4477 36.3333 46V48.3333C36.3333 48.8856 36.781 49.3333 37.3333 49.3333H39.6667C40.219 49.3333 40.6667 48.8856 40.6667 48.3333V46ZM41.6667 49.3333C41.1144 49.3333 40.6667 49.7811 40.6667 50.3333V52.6667C40.6667 53.219 41.1144 53.6667 41.6667 53.6667H44C44.5523 53.6667 45 53.219 45 52.6667V50.3333C45 49.7811 44.5523 49.3333 44 49.3333H41.6667ZM46 53.6667C45.4477 53.6667 45 54.1144 45 54.6667V57C45 57.5523 45.4477 58 46 58H48.3333C48.8856 58 49.3333 57.5523 49.3333 57V54.6667C49.3333 54.1144 48.8856 53.6667 48.3333 53.6667H46ZM49.3333 52.6667C49.3333 53.219 49.7811 53.6667 50.3333 53.6667H57C57.5523 53.6667 58 53.219 58 52.6667V50.3333C58 49.7811 57.5523 49.3333 57 49.3333H50.3333C49.7811 49.3333 49.3333 49.7811 49.3333 50.3333V52.6667ZM36.3333 50.3333C36.3333 49.7811 35.8856 49.3333 35.3333 49.3333H28.6667C28.1144 49.3333 27.6667 49.7811 27.6667 50.3333V52.6667C27.6667 53.219 28.1144 53.6667 28.6667 53.6667H31C31.5523 53.6667 32 54.1144 32 54.6667V57C32 57.5523 32.4477 58 33 58H35.3333C35.8856 58 36.3333 57.5523 36.3333 57V53.6667V50.3333ZM35.3333 45C35.8856 45 36.3333 44.5523 36.3333 44V37.3333C36.3333 36.781 35.8856 36.3333 35.3333 36.3333H28.6667C28.1144 36.3333 27.6667 36.781 27.6667 37.3333V39.6667C27.6667 40.219 28.1144 40.6667 28.6667 40.6667H31C31.5523 40.6667 32 41.1144 32 41.6667V44C32 44.5523 32.4477 45 33 45H35.3333ZM26.6667 36.3333C27.219 36.3333 27.6667 35.8856 27.6667 35.3333V28.6667C27.6667 28.1144 27.219 27.6667 26.6667 27.6667H24.3333C23.781 27.6667 23.3333 28.1144 23.3333 28.6667V31C23.3333 31.5523 22.8856 32 22.3333 32H20C19.4477 32 19 32.4477 19 33V35.3333C19 35.8856 19.4477 36.3333 20 36.3333H26.6667ZM18 32C18.5523 32 19 31.5523 19 31V28.6667C19 28.1144 18.5523 27.6667 18 27.6667H14.6667H7C6.44772 27.6667 6 28.1144 6 28.6667V35.3333C6 35.8856 6.44772 36.3333 7 36.3333H13.6667C14.219 36.3333 14.6667 35.8856 14.6667 35.3333V33C14.6667 32.4477 15.1144 32 15.6667 32H18ZM41.6667 6C41.1144 6 40.6667 6.44772 40.6667 7V22.3333C40.6667 22.8856 41.1144 23.3333 41.6667 23.3333H57C57.5523 23.3333 58 22.8856 58 22.3333V7C58 6.44772 57.5523 6 57 6H41.6667ZM10.3333 11.3333C10.3333 10.781 10.781 10.3333 11.3333 10.3333H18C18.5523 10.3333 19 10.781 19 11.3333V18C19 18.5523 18.5523 19 18 19H11.3333C10.781 19 10.3333 18.5523 10.3333 18V11.3333ZM45 11.3333C45 10.781 45.4477 10.3333 46 10.3333H52.6667C53.219 10.3333 53.6667 10.781 53.6667 11.3333V18C53.6667 18.5523 53.219 19 52.6667 19H46C45.4477 19 45 18.5523 45 18V11.3333ZM13.5 12.5C12.9477 12.5 12.5 12.9477 12.5 13.5V15.8333C12.5 16.3856 12.9477 16.8333 13.5 16.8333H15.8333C16.3856 16.8333 16.8333 16.3856 16.8333 15.8333V13.5C16.8333 12.9477 16.3856 12.5 15.8333 12.5H13.5ZM48.1667 12.5C47.6144 12.5 47.1667 12.9477 47.1667 13.5V15.8333C47.1667 16.3856 47.6144 16.8333 48.1667 16.8333H50.5C51.0523 16.8333 51.5 16.3856 51.5 15.8333V13.5C51.5 12.9477 51.0523 12.5 50.5 12.5H48.1667ZM7 40.6667C6.44772 40.6667 6 41.1144 6 41.6667V57C6 57.5523 6.44772 58 7 58H22.3333C22.8856 58 23.3333 57.5523 23.3333 57V41.6667C23.3333 41.1144 22.8856 40.6667 22.3333 40.6667H7ZM10.3333 46C10.3333 45.4477 10.781 45 11.3333 45H18C18.5523 45 19 45.4477 19 46V52.6667C19 53.219 18.5523 53.6667 18 53.6667H11.3333C10.781 53.6667 10.3333 53.219 10.3333 52.6667V46ZM13.5 47.1667C12.9477 47.1667 12.5 47.6144 12.5 48.1667V50.5C12.5 51.0523 12.9477 51.5 13.5 51.5H15.8333C16.3856 51.5 16.8333 51.0523 16.8333 50.5V48.1667C16.8333 47.6144 16.3856 47.1667 15.8333 47.1667H13.5Z" fill="url(#paint0_linear)" stroke="url(#paint1_linear)"/>
<defs>
<linearGradient id="paint0_linear" x1="32" y1="58" x2="32" y2="6" gradientUnits="userSpaceOnUse">
<stop stop-color="#FD2E00"/>
<stop offset="1" stop-color="#FF9900"/>
</linearGradient>
<linearGradient id="paint1_linear" x1="32" y1="58" x2="32" y2="6" gradientUnits="userSpaceOnUse">
<stop stop-color="#FD2E00"/>
<stop offset="1" stop-color="#FF9900"/>
</linearGradient>
</defs>
</svg>
