<svg width="192" height="192" viewBox="0 0 192 192" fill="none" xmlns="http://www.w3.org/2000/svg">
<path d="M86.958 9.21275C89.7286 8.80578 93.008 8.76057 94.9418 11.1459C98.1647 14.4468 96.2875 20.834 91.6736 21.6479C85.5331 22.4958 79.3134 23.2419 73.4217 25.3332C47.3103 33.6535 26.955 57.6533 23.3815 84.8637C22.7821 88.2325 23.2345 92.7091 19.7175 94.6422C15.8387 97.2875 9.83391 94.1109 10.0035 89.3742C11.1118 68.6867 20.4978 48.7 35.131 34.1057C48.9274 20.2461 67.5186 11.3154 86.958 9.21275Z" fill="url(#paint0_linear_587_285)"/>
<path d="M45.8743 83.2019C48.6336 79.6975 54.7062 80.6697 56.346 84.7846C63.0972 98.1015 69.5543 111.577 75.7853 125.142C77.3233 127.765 76.2264 131.439 73.2974 132.502C69.0341 133.01 64.7482 132.162 60.4849 131.914C62.4978 142.258 68.4009 151.731 76.8483 158.039C78.5785 159.509 80.9759 160.492 81.6997 162.855C65.7773 158.039 52.9308 143.196 51.6529 126.476C52.829 121.536 59.0374 123.311 62.7579 122.791C58.2345 114.855 53.8355 106.874 49.4817 98.8476C43.7031 105.845 37.9131 112.854 31.9987 119.739C35.0634 120.304 39.4398 120.677 40.1748 124.464C43.7709 139.07 52.8403 152.601 66.0826 160.062C71.9178 163.386 78.3071 165.67 84.8774 166.981C86.879 167.433 89.0728 167.58 90.6673 169.016C75.4913 171.412 59.3767 166.71 47.7176 156.728C39.8016 150.046 33.9438 141.172 30.1894 131.563C25.9374 130.772 21.5158 130.738 17.3995 129.348C13.8599 127.697 13.057 122.599 15.7484 119.818C25.5868 107.45 35.5609 95.1736 45.8743 83.2019Z" fill="url(#paint1_linear_587_285)"/>
<path d="M102.157 22.3714C116.484 20.3252 131.638 24.2367 143.082 33.1334C151.982 39.9728 158.597 49.5139 162.623 59.9482C167 60.8073 171.693 60.6377 175.843 62.3787C179.134 64.3005 179.575 69.1615 176.962 71.8407C167.972 83.2132 158.71 94.3709 149.426 105.506C147.515 107.677 145.547 110.627 142.279 110.469C139.328 110.672 137.043 108.366 135.958 105.845C129.399 92.6639 122.93 79.4261 116.869 65.9962C115.241 63.0909 117.276 58.8629 120.748 58.8516C124.604 58.7838 128.438 59.2925 132.282 59.5073C130.643 51.5149 126.866 43.952 121.144 38.1075C118.068 34.6031 113.827 32.3986 110.785 28.8716C126.911 32.8395 139.418 48.1348 141.205 64.5152C140.628 70.0093 133.832 68.2232 130.089 68.6754C134.533 76.6452 138.977 84.615 143.32 92.63C149.098 85.6776 154.809 78.6687 160.735 71.8407C157.964 71.0267 153.904 71.072 152.864 67.7258C151.371 62.8874 149.992 57.9698 147.515 53.5158C140.391 39.0797 126.379 28.6907 110.774 25.1523C107.913 24.2367 104.509 24.4967 102.157 22.3714Z" fill="url(#paint2_linear_587_285)"/>
<path d="M173.231 96.4171C177.098 93.7605 183.08 96.8692 182.99 101.595C182.074 119.332 175.017 136.594 163.833 150.34C148.951 168.733 126.221 180.727 102.541 182.05C97.8142 182.061 94.7496 176.138 97.3619 172.249C99.6123 168.394 104.656 169.242 108.376 168.417C139.011 163.929 164.93 138.041 169.397 107.417C170.256 103.709 169.397 98.6667 173.231 96.4171Z" fill="url(#paint3_linear_587_285)"/>
<defs>
<linearGradient id="paint0_linear_587_285" x1="53.2767" y1="95.6012" x2="53.2767" y2="9" gradientUnits="userSpaceOnUse">
<stop stop-color="#5570FF"/>
<stop offset="1" stop-color="#4DD3FF"/>
</linearGradient>
<linearGradient id="paint1_linear_587_285" x1="52.4074" y1="169.632" x2="52.4074" y2="81.0565" gradientUnits="userSpaceOnUse">
<stop stop-color="#5570FF"/>
<stop offset="1" stop-color="#4DD3FF"/>
</linearGradient>
<linearGradient id="paint2_linear_587_285" x1="140.406" y1="110.481" x2="140.406" y2="21.8393" gradientUnits="userSpaceOnUse">
<stop stop-color="#5570FF"/>
<stop offset="1" stop-color="#4DD3FF"/>
</linearGradient>
<linearGradient id="paint3_linear_587_285" x1="139.698" y1="182.05" x2="139.698" y2="95.4406" gradientUnits="userSpaceOnUse">
<stop stop-color="#5570FF"/>
<stop offset="1" stop-color="#4DD3FF"/>
</linearGradient>
</defs>
</svg>
