<svg width="64" height="64" viewBox="0 0 64 64" fill="none" xmlns="http://www.w3.org/2000/svg">
<path d="M56.644 2.22514C58.0199 1.62315 59.8633 2.26666 60.2602 3.69898C60.7542 5.04413 59.731 6.50967 58.2977 6.80444C41.2395 11.9733 24.1812 17.1629 7.11855 22.3317C5.91018 22.5642 4.98406 23.6893 5.10754 24.8559C5.12077 34.5335 5.0899 44.2111 5.12077 53.8928C5.01934 55.3251 6.5276 56.3589 7.95206 56.1928C24.1107 56.1803 40.2737 56.2094 56.4323 56.1762C57.7112 56.2302 58.9152 55.1881 58.8755 53.9675C58.9107 44.3979 58.8799 34.8241 58.8887 25.2545C59.0298 23.9924 57.9141 22.6929 56.5161 22.8092C48.8601 22.7926 41.2086 22.805 33.5571 22.805C32.5648 22.7676 31.405 22.8216 30.6641 22.0743C29.6056 21.1526 29.6542 19.3882 30.7699 18.5288C31.5152 17.8521 32.6045 17.9517 33.5527 17.9309C41.3189 17.9642 49.0895 17.9143 56.8601 17.9558C60.6836 18.0015 64.0353 21.2523 63.9824 24.8518C64.0088 33.9855 63.978 43.1233 64 52.257C63.9824 53.6395 64.0926 55.076 63.5325 56.3879C62.5226 59.1239 59.5546 61.0586 56.4764 60.9921C40.1546 61.0004 23.8284 61.0046 7.50664 60.9921C4.59156 61.042 1.77792 59.3107 0.640112 56.7948C-0.00376219 55.5078 -0.00376169 54.063 0.000648414 52.6722C0.0315191 43.2603 -0.0169923 33.8443 0.0226986 24.4283C0.0271087 21.4682 2.25421 18.699 5.24867 17.8396C22.3775 12.6251 39.5151 7.43134 56.644 2.22514Z" fill="#FF4A7C"/>
<path d="M10.3953 30.6766C10.7745 29.5556 12.0711 28.9744 13.2662 29.0989C26.2055 29.128 39.1447 29.0533 52.0839 29.1155C53.429 29.0782 54.6153 30.2573 54.5492 31.5194C54.5933 32.769 53.407 33.9273 52.0707 33.8775C48.8205 33.919 45.5658 33.8734 42.3156 33.8941C42.3112 36.0322 42.3156 38.1703 42.3156 40.3085C45.5614 40.3375 48.8161 40.2752 52.0663 40.3292C53.3981 40.3002 54.5845 41.4419 54.5492 42.6957C54.6153 43.9578 53.429 45.141 52.0795 45.1036C43.6077 45.1659 35.1315 45.1244 26.6597 45.1161C26.5318 46.7643 26.9023 48.4873 26.3775 50.0857C25.5704 51.8667 22.5671 51.8543 21.7821 50.0607C21.2794 48.4707 21.6454 46.7602 21.5264 45.1203C18.6157 45.1036 15.7006 45.1535 12.7855 45.1036C11.4008 45.1701 10.1836 43.9785 10.2497 42.6874C10.2233 41.417 11.4316 40.2752 12.7855 40.3292C20.931 40.2711 29.0764 40.3251 37.2263 40.3085C37.2263 38.1703 37.2307 36.0322 37.2219 33.8941C29.0809 33.8775 20.9398 33.9066 12.7988 33.8775C11.0788 33.9938 9.76021 32.1587 10.3953 30.6766Z" fill="#FF4A7C"/>
</svg>
