<svg width="64" height="64" viewBox="0 0 64 64" fill="none" xmlns="http://www.w3.org/2000/svg">
<path fill-rule="evenodd" clip-rule="evenodd" d="M7 12C7 9.23858 9.23858 7 12 7H52C54.7614 7 57 9.23858 57 12V52C57 54.7614 54.7614 57 52 57H12C9.23858 57 7 54.7614 7 52V12ZM12 1C5.92487 1 1 5.92487 1 12V52C1 58.0751 5.92487 63 12 63H52C58.0751 63 63 58.0751 63 52V12C63 5.92487 58.0751 1 52 1H12ZM41.8739 10.7241C40.3479 10.7241 39.1108 11.9612 39.1108 13.4872C39.1108 15.0133 40.3479 16.2504 41.8739 16.2504H47.8005V22.1811C47.8005 23.6932 49.0263 24.919 50.5384 24.919C52.0505 24.919 53.2763 23.6932 53.2763 22.1811V15.8381C53.2763 13.0274 51.0266 10.7241 48.2212 10.7241H41.8739ZM47.8005 41.8189C47.8005 40.3068 49.0263 39.0809 50.5384 39.0809C52.0505 39.0809 53.2763 40.3068 53.2763 41.8189V48.1619C53.2763 50.9727 51.0266 53.2758 48.2212 53.2758H41.8739C40.348 53.2758 39.1108 52.0389 39.1108 50.5127C39.1108 48.9867 40.3479 47.7496 41.8739 47.7496H47.8005V41.8189ZM13.4625 39.0809C11.9504 39.0809 10.7246 40.3068 10.7246 41.8189V48.1619C10.7246 50.9727 12.9744 53.2758 15.7798 53.2758H22.127C23.6531 53.2758 24.8901 52.0388 24.8901 50.5127C24.8901 48.9868 23.6531 47.7496 22.127 47.7496H16.2005V41.8189C16.2005 40.3068 14.9747 39.0809 13.4625 39.0809ZM10.7246 15.8381C10.7246 13.0274 12.9744 10.7241 15.7798 10.7241H22.127C23.6531 10.7241 24.8901 11.9613 24.8901 13.4872C24.8901 15.0132 23.6532 16.2504 22.127 16.2504H16.2005V22.1811C16.2005 23.6932 14.9746 24.919 13.4625 24.919C11.9504 24.919 10.7246 23.6932 10.7246 22.1811V15.8381Z" fill="url(#paint0_linear)"/>
<path d="M43.2532 33.8577L26.2875 43.7016C24.8477 44.5362 23 43.5256 23 41.8432V22.1553C23 20.4755 24.8451 19.4623 26.2875 20.2996L43.2532 30.1435C43.5807 30.3305 43.8529 30.6007 44.0423 30.9269C44.2317 31.253 44.3314 31.6234 44.3314 32.0006C44.3314 32.3777 44.2317 32.7481 44.0423 33.0743C43.8529 33.4004 43.5807 33.6707 43.2532 33.8577V33.8577Z" fill="url(#paint1_linear)"/>
<defs>
<linearGradient id="paint0_linear" x1="32" y1="63" x2="32" y2="1" gradientUnits="userSpaceOnUse">
<stop stop-color="#FDA700"/>
<stop offset="1" stop-color="#FFDE00"/>
</linearGradient>
<linearGradient id="paint1_linear" x1="13.5" y1="32" x2="43" y2="33" gradientUnits="userSpaceOnUse">
<stop stop-color="#FD5900"/>
<stop offset="1" stop-color="#FFDE00"/>
</linearGradient>
</defs>
</svg>
