<svg width="64" height="64" viewBox="0 0 64 64" fill="none" xmlns="http://www.w3.org/2000/svg">
<path d="M34.9185 7.79096C35.5987 5.38459 37.9395 3.72586 40.2196 4.03762C42.8936 4.25253 45.0334 7.12504 44.8048 10.0399C44.7112 10.9813 44.3422 11.85 44.0172 12.7127C43.9786 12.6582 43.8988 12.5462 43.8602 12.4917L43.8382 12.3404C43.2929 12.5401 42.7256 12.6885 42.1473 12.6582C39.914 12.634 37.6779 12.6158 35.4445 12.6794C35.2049 12.1466 34.9791 11.6079 34.7698 11.06C34.1089 11.4716 33.3516 11.6987 32.754 12.2253C32.2252 12.8943 31.4349 12.979 30.6748 12.9821C30.6803 12.1951 30.6776 11.4051 30.6638 10.6181C31.903 9.98545 33.1616 9.39823 34.3953 8.75351C34.7863 8.62638 34.7836 8.13602 34.9185 7.79096Z" fill="url(#paint0_linear)" stroke="#FE9D05" stroke-width="0.09375"/>
<path d="M30.6749 12.9821C31.4349 12.979 32.2253 12.8943 32.754 12.2253C32.7265 14.8406 32.7457 17.4558 32.7347 20.068C32.049 20.0377 31.3661 20.0407 30.6804 20.065C30.6721 17.704 30.6694 15.343 30.6749 12.9821Z" fill="#FE6803" stroke="#FE6803" stroke-width="0.09375"/>
<path d="M35.4446 12.6795C37.6779 12.6159 39.9141 12.6341 42.1474 12.6583C42.7257 12.6885 43.293 12.5402 43.8383 12.3405L43.8603 12.4918C43.8245 12.6704 43.7474 13.0306 43.7089 13.2092C42.7202 14.1596 41.5856 15.0646 40.2253 15.1524C38.3526 15.4127 36.5103 14.3442 35.4446 12.6795Z" fill="#FE6803" stroke="#FE6803" stroke-width="0.09375"/>
<path d="M18.5829 24.3178C22.1381 21.6663 26.4038 20.2648 30.6805 20.0651C31.3662 20.0408 32.0492 20.0378 32.7349 20.0681C37.0281 20.2588 41.2635 21.7389 44.849 24.3451C46.449 22.2474 49.0789 21.1517 51.5354 21.6935C54.4682 22.2353 56.9026 25.0564 57.211 28.3163C56.5033 28.4707 55.7955 28.6735 55.0685 28.6553C52.9756 28.4435 50.8882 28.1499 48.7898 27.9955C50.5798 30.5441 51.841 33.4832 52.524 36.613C52.7718 37.515 52.7773 38.4685 52.882 39.3977C52.6204 39.8155 52.3312 40.3058 51.7887 40.1787C38.1544 40.1545 24.5202 40.1817 10.8831 40.1635C10.7537 39.8911 10.627 39.6157 10.5031 39.3402C10.5114 38.4715 10.5885 37.5998 10.8033 36.7613C11.2108 35.2328 11.5413 33.6618 12.2022 32.2301C12.6153 31.2282 13.1853 30.3141 13.5709 29.294C12.0645 29.064 10.5857 29.5422 9.08486 29.5513C8.06319 29.5755 7.05528 29.7541 6.05288 29.9539C5.52965 25.6587 8.96645 21.3424 12.9375 21.5543C15.0937 21.3394 17.2115 22.532 18.5829 24.3178ZM21.3229 30.8165C19.7918 31.204 18.525 32.5752 18.1615 34.2551C17.4979 36.7341 19.1309 39.5975 21.4606 40.0031C23.8978 40.5631 26.3239 38.1749 26.2909 35.487C26.4175 32.6872 23.8537 30.1355 21.3229 30.8165ZM40.3327 30.7984C38.1765 31.2585 36.6343 33.7314 37.0116 36.1106C37.2815 38.5865 39.625 40.551 41.8749 39.988C43.8163 39.6036 45.1409 37.5453 45.3585 35.487C45.2648 32.7689 42.9021 30.1658 40.3327 30.7984Z" fill="url(#paint1_linear)" stroke="#FE9D05" stroke-width="0.09375"/>
<path d="M48.7897 27.9952C50.8881 28.1496 52.9755 28.4432 55.0684 28.6551C55.7954 28.6733 56.5032 28.4705 57.2109 28.3161L57.2632 28.301C57.657 31.8636 55.6109 35.4565 52.5239 36.6128C51.8409 33.483 50.5797 30.5439 48.7897 27.9952Z" fill="url(#paint2_linear)" stroke="#FE6803" stroke-width="0.09375"/>
<path d="M9.0852 29.5512C10.586 29.5422 12.0649 29.0639 13.5712 29.294C13.1857 30.314 12.6156 31.2281 12.2026 32.23C11.5416 33.6617 11.2112 35.2327 10.8036 36.7613C8.26731 35.6474 6.13584 33.0533 6.05322 29.9538C7.05562 29.754 8.06353 29.5755 9.0852 29.5512Z" fill="url(#paint3_linear)" stroke="#FE6803" stroke-width="0.09375"/>
<path d="M21.3228 30.8166C23.8536 30.1355 26.4174 32.6872 26.2907 35.4871C26.3238 38.1749 23.8977 40.5631 21.4605 40.0032C19.1307 39.5976 17.4977 36.7341 18.1614 34.2551C18.5249 32.5752 19.7917 31.204 21.3228 30.8166Z" fill="#F6F6F6" stroke="#F6F6F6" stroke-width="0.09375"/>
<path d="M40.3326 30.7982C42.902 30.1656 45.2648 32.7687 45.3584 35.4868C45.1408 37.5451 43.8163 39.6034 41.8748 39.9878C39.6249 40.5508 37.2814 38.5863 37.0115 36.1104C36.6342 33.7312 38.1764 31.2583 40.3326 30.7982Z" fill="#F6F6F6" stroke="#F6F6F6" stroke-width="0.09375"/>
<path d="M10.5031 39.3401C10.627 39.6155 10.7537 39.891 10.8831 40.1634C24.5201 40.1816 38.1544 40.1543 51.7887 40.1785C52.3312 40.3057 52.6203 39.8153 52.882 39.3976C53.0472 44.6644 50.9047 49.8373 47.4156 53.3999C41.2249 59.8532 31.6663 61.5907 23.705 58.5396C19.6706 57.0019 15.9805 54.19 13.5103 50.3277C11.4669 47.1555 10.3048 43.2417 10.5031 39.3401ZM19.9543 48.0393C19.2933 48.4238 19.2217 49.5195 19.8634 49.9675C26.2606 55.8578 36.4195 55.9728 42.9819 50.3367C43.4693 49.9402 44.1275 49.3015 43.7337 48.569C43.5079 47.8729 42.5991 47.7094 42.142 48.221C36.3121 53.5725 26.9931 53.5937 21.1522 48.2512C20.8382 47.9152 20.3481 47.8184 19.9543 48.0393Z" fill="url(#paint4_linear)" stroke="#FE6803" stroke-width="0.09375"/>
<path d="M19.9541 48.0394C20.3479 47.8184 20.8381 47.9153 21.1521 48.2513C26.993 53.5937 36.312 53.5725 42.1418 48.221C42.599 47.7095 43.5078 47.8729 43.7336 48.5691C44.1274 49.3016 43.4692 49.9403 42.9818 50.3368C36.4194 55.9729 26.2604 55.8578 19.8633 49.9675C19.2216 49.5196 19.2932 48.4238 19.9541 48.0394Z" fill="#F6F6F6" stroke="#F6F6F6" stroke-width="0.09375"/>
<defs>
<linearGradient id="paint0_linear" x1="37.7427" y1="12.9821" x2="37.7427" y2="4" gradientUnits="userSpaceOnUse">
<stop stop-color="#FD5900"/>
<stop offset="1" stop-color="#FFDE00"/>
</linearGradient>
<linearGradient id="paint1_linear" x1="36.7928" y1="-1.76785" x2="21.4018" y2="86.0269" gradientUnits="userSpaceOnUse">
<stop stop-color="#FD5900"/>
<stop offset="1" stop-color="#FFDE00"/>
</linearGradient>
<linearGradient id="paint2_linear" x1="50.3632" y1="23.5998" x2="59.4597" y2="40.0173" gradientUnits="userSpaceOnUse">
<stop stop-color="#FD5900"/>
<stop offset="1" stop-color="#FFDE00"/>
</linearGradient>
<linearGradient id="paint3_linear" x1="7.44132" y1="25.3908" x2="15.3492" y2="39.8003" gradientUnits="userSpaceOnUse">
<stop stop-color="#FD5900"/>
<stop offset="1" stop-color="#FFDE00"/>
</linearGradient>
<linearGradient id="paint4_linear" x1="31.686" y1="60" x2="31.686" y2="39.3401" gradientUnits="userSpaceOnUse">
<stop stop-color="#FD2E00"/>
<stop offset="1" stop-color="#FF9900"/>
</linearGradient>
</defs>
</svg>
