<svg width="192" height="192" viewBox="0 0 192 192" fill="none" xmlns="http://www.w3.org/2000/svg">
<path fill-rule="evenodd" clip-rule="evenodd" d="M88.4233 43.1494C79.9189 45.2516 72.1356 50.1793 66.9505 57.1978C63.2076 54.9035 59.5678 52.4736 56.0195 49.9193C61.5709 42.4713 69.1138 36.549 77.7441 32.9436L77.7442 32.9438C91.0217 27.7109 106.566 28.1969 119.271 34.7521C131.255 40.7309 140.389 51.7278 144.372 64.3521C147.405 74.9761 147.085 86.5381 143.01 96.8568C139.851 93.3193 136.36 90.0643 132.377 87.4309L132.411 87.2388C135.33 75.1117 131.541 61.7075 122.533 52.9597C113.811 44.2006 100.534 40.5048 88.4233 43.1495L88.4233 43.1494ZM132.376 87.4309C136.359 90.0643 139.85 93.3193 143.009 96.8568C139.724 105.175 134.047 112.42 127.03 118.003C127.03 118.003 127.03 118.003 127.03 118.003C125.969 120.9 125.038 123.841 124.107 126.782C122.989 130.312 121.871 133.843 120.529 137.296C119.304 140.652 115.721 142.641 112.185 142.438C109.888 142.443 107.592 142.451 105.296 142.459C96.8021 142.488 88.3142 142.517 79.8263 142.393C76.0262 142.483 72.5924 139.624 71.8369 135.996C71.0743 133.045 70.4862 130.053 69.8982 127.062C69.4008 124.532 68.9033 122.002 68.3001 119.495C50.6388 107.707 42.5694 84.3907 48.8304 64.3182C50.4672 59.1871 53.0082 54.3837 56.0185 49.9194C59.5668 52.4737 63.2066 54.9036 66.9495 57.198C60.5626 65.844 58.1818 77.293 60.9632 87.6683C62.8632 95.2406 67.3043 102.225 73.5424 107.051C73.9459 107.384 74.3612 107.713 74.7792 108.045C77.089 109.877 79.4831 111.776 80.4329 114.646C81.4914 117.797 82.1033 121.066 82.7143 124.331C83.0415 126.08 83.3685 127.827 83.7637 129.554C92.3254 129.554 100.887 129.554 109.438 129.565C110.244 127.369 110.926 125.121 111.608 122.874C112.979 118.355 114.351 113.836 116.729 109.73C116.729 109.73 116.729 109.73 116.729 109.73C124.043 104.022 130.258 96.5743 132.376 87.4309ZM117.403 110.019C120.989 111.649 123.824 114.414 126.417 117.312C123.825 114.414 120.989 111.649 117.403 110.019Z" fill="#FF6A51"/>
<path d="M66.9505 57.1978L66.1666 58.4767L67.3395 59.1956L68.157 58.0891L66.9505 57.1978ZM88.4233 43.1494L89.4839 42.0888L88.8852 41.4901L88.0633 41.6932L88.4233 43.1494ZM56.0195 49.9193L54.8169 49.0229L53.9054 50.2457L55.1432 51.1367L56.0195 49.9193ZM77.7441 32.9436L78.9401 32.0383L78.2385 31.1114L77.1659 31.5595L77.7441 32.9436ZM77.7442 32.9438L76.5482 33.849L77.2352 34.7567L78.2942 34.3393L77.7442 32.9438ZM119.271 34.7521L118.583 36.0851L118.592 36.0898L118.601 36.0943L119.271 34.7521ZM144.372 64.3521L145.814 63.9403L145.808 63.9205L145.802 63.9008L144.372 64.3521ZM143.01 96.8568L141.891 97.8559L143.511 99.6704L144.405 97.4077L143.01 96.8568ZM132.377 87.4309L130.9 87.1695L130.728 88.1391L131.549 88.6821L132.377 87.4309ZM132.411 87.2388L130.952 86.8878L130.942 86.9323L130.934 86.9774L132.411 87.2388ZM122.533 52.9597L121.47 54.0181L121.479 54.027L121.488 54.0358L122.533 52.9597ZM88.4233 43.1495L87.3627 44.2101L87.9424 44.7899L88.7434 44.615L88.4233 43.1495ZM143.009 96.8568L144.404 97.4078L144.743 96.5475L144.127 95.8577L143.009 96.8568ZM132.376 87.4309L133.203 86.1797L131.402 84.9887L130.914 87.0924L132.376 87.4309ZM127.03 118.003L126.096 116.829L124.781 117.875L125.969 119.064L127.03 118.003ZM127.03 118.003L128.438 118.519L128.768 117.62L128.09 116.942L127.03 118.003ZM124.107 126.782L122.676 126.329L122.676 126.329L124.107 126.782ZM120.529 137.296L119.131 136.752L119.125 136.767L119.12 136.782L120.529 137.296ZM112.185 142.438L112.271 140.94L112.226 140.938L112.182 140.938L112.185 142.438ZM105.296 142.459L105.301 143.959L105.301 143.959L105.296 142.459ZM79.8263 142.393L79.8483 140.893L79.8196 140.893L79.7908 140.893L79.8263 142.393ZM71.8369 135.996L73.3054 135.69L73.2982 135.655L73.2892 135.621L71.8369 135.996ZM69.8982 127.062L71.37 126.773L71.37 126.773L69.8982 127.062ZM68.3001 119.495L69.7585 119.144L69.6212 118.573L69.1329 118.247L68.3001 119.495ZM48.8304 64.3182L47.4014 63.8624L47.3985 63.8716L48.8304 64.3182ZM56.0185 49.9194L56.8949 48.7021L55.6396 47.7984L54.7749 49.0808L56.0185 49.9194ZM66.9495 57.198L68.156 58.0893L69.1278 56.7739L67.7335 55.9192L66.9495 57.198ZM60.9632 87.6683L62.4181 87.3033L62.4152 87.2916L62.4121 87.2799L60.9632 87.6683ZM73.5424 107.051L74.4965 105.894L74.4786 105.879L74.4603 105.865L73.5424 107.051ZM74.7792 108.045L73.8471 109.22L73.8471 109.22L74.7792 108.045ZM80.4329 114.646L79.0089 115.117L79.011 115.124L80.4329 114.646ZM82.7143 124.331L84.1887 124.055L84.1887 124.055L82.7143 124.331ZM83.7637 129.554L82.3015 129.889L82.5682 131.054H83.7637V129.554ZM109.438 129.565L109.436 131.065L110.485 131.066L110.846 130.082L109.438 129.565ZM111.608 122.874L113.043 123.31L113.043 123.31L111.608 122.874ZM116.729 109.73L118.027 110.482L118.915 108.948L117.255 108.326L116.729 109.73ZM116.729 109.73L115.806 108.547L113.695 110.195L116.202 111.135L116.729 109.73ZM117.403 110.019L118.023 108.654L116.782 111.385L117.403 110.019ZM126.417 117.312L125.3 118.312L127.535 116.312L126.417 117.312ZM68.157 58.0891C73.1182 51.3737 80.5909 46.6307 88.7832 44.6056L88.0633 41.6932C79.2469 43.8726 71.153 48.985 65.7441 56.3065L68.157 58.0891ZM55.1432 51.1367C58.7202 53.7116 62.3908 56.1622 66.1666 58.4767L67.7344 55.9189C64.0245 53.6448 60.4155 51.2356 56.8959 48.7019L55.1432 51.1367ZM77.1659 31.5595C68.2858 35.2693 60.5278 41.3608 54.8169 49.0229L57.2222 50.8157C62.614 43.5818 69.9419 37.8287 78.3223 34.3277L77.1659 31.5595ZM78.9402 32.0385L78.9401 32.0383L76.5481 33.8489L76.5482 33.849L78.9402 32.0385ZM119.958 33.4191C106.849 26.6554 90.8528 26.1652 77.1942 31.5482L78.2942 34.3393C91.1906 29.2566 106.282 29.7384 118.583 36.0851L119.958 33.4191ZM145.802 63.9008C141.701 50.9016 132.3 39.5762 119.94 33.4099L118.601 36.0943C130.209 41.8856 139.076 52.5539 142.941 64.8034L145.802 63.9008ZM144.405 97.4077C148.609 86.7611 148.931 74.8593 145.814 63.9403L142.929 64.7639C145.878 75.0929 145.56 86.3151 141.614 96.3058L144.405 97.4077ZM131.549 88.6821C135.396 91.2252 138.791 94.3847 141.891 97.8559L144.128 95.8577C140.91 92.2539 137.324 88.9034 133.204 86.1796L131.549 88.6821ZM130.934 86.9774L130.9 87.1695L133.854 87.6923L133.888 87.5002L130.934 86.9774ZM121.488 54.0358C130.111 62.4099 133.749 75.2697 130.952 86.8878L133.869 87.5898C136.911 74.9536 132.97 61.0051 123.578 51.8836L121.488 54.0358ZM88.7434 44.615C100.373 42.0753 113.123 45.6356 121.47 54.0181L123.596 51.9013C114.499 42.7656 100.695 38.9343 88.1033 41.684L88.7434 44.615ZM87.3626 44.2101L87.3627 44.2101L89.484 42.0888L89.4839 42.0888L87.3626 44.2101ZM144.127 95.8577C140.909 92.2539 137.322 88.9034 133.203 86.1797L131.548 88.6822C135.395 91.2252 138.79 94.3847 141.89 97.8559L144.127 95.8577ZM127.964 119.177C135.163 113.449 141.012 105.997 144.404 97.4078L141.613 96.3058C138.435 104.353 132.931 111.391 126.096 116.829L127.964 119.177ZM125.969 119.064C125.951 119.046 125.936 119.03 125.924 119.016C125.911 119.003 125.901 118.991 125.893 118.981C125.885 118.972 125.878 118.965 125.875 118.96C125.871 118.956 125.868 118.952 125.869 118.953C125.869 118.953 125.869 118.953 125.869 118.953C125.869 118.953 125.869 118.953 125.869 118.953C125.869 118.953 125.869 118.953 125.869 118.953C125.869 118.953 125.869 118.953 125.869 118.953C125.869 118.953 125.869 118.953 125.869 118.953C125.869 118.954 125.87 118.954 125.87 118.955C125.871 118.956 125.873 118.958 125.875 118.96C125.878 118.965 125.885 118.972 125.893 118.981C125.901 118.991 125.911 119.003 125.924 119.016C125.936 119.03 125.951 119.046 125.969 119.064L128.09 116.942C128.108 116.96 128.123 116.976 128.136 116.99C128.148 117.003 128.159 117.015 128.167 117.025C128.175 117.034 128.181 117.041 128.185 117.046C128.188 117.05 128.191 117.054 128.191 117.053C128.191 117.053 128.191 117.053 128.191 117.053C128.191 117.053 128.191 117.053 128.191 117.053C128.191 117.053 128.191 117.053 128.191 117.053C128.191 117.053 128.191 117.053 128.191 117.053C128.19 117.053 128.19 117.053 128.19 117.053C128.19 117.052 128.19 117.052 128.189 117.051C128.188 117.05 128.187 117.048 128.185 117.046C128.181 117.041 128.175 117.034 128.167 117.025C128.159 117.015 128.148 117.003 128.136 116.99C128.123 116.976 128.108 116.96 128.09 116.942L125.969 119.064ZM125.621 117.487C124.547 120.42 123.606 123.393 122.676 126.329L125.537 127.234C126.469 124.288 127.39 121.379 128.438 118.519L125.621 117.487ZM122.676 126.329C121.556 129.867 120.453 133.352 119.131 136.752L121.927 137.84C123.29 134.334 124.421 130.757 125.537 127.234L122.676 126.329ZM119.12 136.782C118.157 139.419 115.256 141.112 112.271 140.94L112.099 143.936C116.186 144.17 120.45 141.885 121.938 137.81L119.12 136.782ZM112.182 140.938C109.884 140.943 107.586 140.951 105.291 140.959L105.301 143.959C107.597 143.951 109.892 143.943 112.188 143.938L112.182 140.938ZM105.291 140.959C96.7946 140.988 88.3203 141.017 79.8483 140.893L79.8044 143.893C88.3081 144.017 96.8095 143.988 105.301 143.959L105.291 140.959ZM79.7908 140.893C76.7405 140.966 73.9187 138.635 73.3054 135.69L70.3684 136.302C71.2661 140.613 75.312 144 79.8618 143.893L79.7908 140.893ZM73.2892 135.621C72.5394 132.719 71.9595 129.771 71.37 126.773L68.4263 127.352C69.013 130.336 69.6091 133.37 70.3846 136.371L73.2892 135.621ZM71.37 126.773C70.8736 124.248 70.3703 121.686 69.7585 119.144L66.8418 119.846C67.4364 122.317 67.9279 124.816 68.4263 127.352L71.37 126.773ZM69.1329 118.247C52.0302 106.832 44.1976 84.2082 50.2624 64.7649L47.3985 63.8716C40.9412 84.5732 49.2475 108.582 67.4674 120.743L69.1329 118.247ZM50.2595 64.7741C51.8427 59.8111 54.31 55.1361 57.2622 50.758L54.7749 49.0808C51.7064 53.6313 49.0918 58.5632 47.4014 63.8624L50.2595 64.7741ZM55.1422 51.1368C58.7192 53.7118 62.3898 56.1623 66.1656 58.4769L67.7335 55.9192C64.0235 53.645 60.4145 51.2357 56.8949 48.7021L55.1422 51.1368ZM65.743 56.3068C59.0979 65.3024 56.6091 77.2193 59.5144 88.0567L62.4121 87.2799C59.7546 77.3667 62.0274 66.3857 68.156 58.0893L65.743 56.3068ZM59.5083 88.0334C61.4871 95.9198 66.1107 103.198 72.6246 108.237L74.4603 105.865C68.498 101.252 64.2393 94.5615 62.4181 87.3033L59.5083 88.0334ZM72.5884 108.209C73.0046 108.552 73.431 108.89 73.8471 109.22L75.7114 106.869C75.2913 106.536 74.8872 106.216 74.4965 105.894L72.5884 108.209ZM73.8471 109.22C76.2291 111.109 78.2237 112.744 79.0089 115.117L81.857 114.175C80.7426 110.807 77.9488 108.644 75.7113 106.869L73.8471 109.22ZM79.011 115.124C80.0307 118.159 80.6256 121.325 81.2399 124.607L84.1887 124.055C83.5809 120.808 82.9521 117.434 81.8548 114.168L79.011 115.124ZM81.2399 124.607C81.5662 126.351 81.8985 128.128 82.3015 129.889L85.2259 129.219C84.8385 127.527 84.5169 125.809 84.1887 124.055L81.2399 124.607ZM83.7637 131.054C92.3256 131.054 100.886 131.054 109.436 131.065L109.44 128.065C100.888 128.054 92.3253 128.054 83.7637 128.054V131.054ZM110.846 130.082C111.669 127.839 112.363 125.55 113.043 123.31L110.173 122.438C109.488 124.693 108.818 126.899 108.03 129.048L110.846 130.082ZM113.043 123.31C114.423 118.763 115.751 114.413 118.027 110.482L115.431 108.978C112.952 113.259 111.536 117.948 110.173 122.438L113.043 123.31ZM116.202 111.135C116.246 111.151 116.286 111.164 116.323 111.174C116.359 111.184 116.392 111.192 116.421 111.198C116.45 111.204 116.476 111.209 116.499 111.212C116.521 111.216 116.542 111.218 116.559 111.22C116.576 111.222 116.591 111.224 116.603 111.225C116.615 111.226 116.626 111.227 116.634 111.227C116.641 111.228 116.648 111.228 116.651 111.228C116.653 111.228 116.655 111.228 116.656 111.228C116.656 111.228 116.657 111.228 116.657 111.228C116.657 111.228 116.657 111.228 116.657 111.228C116.657 111.228 116.657 111.228 116.657 111.228C116.657 111.228 116.657 111.228 116.657 111.228C116.657 111.228 116.657 111.228 116.657 111.228C116.658 111.228 116.655 111.228 116.651 111.228C116.648 111.228 116.641 111.228 116.634 111.227C116.626 111.227 116.615 111.226 116.603 111.225C116.591 111.224 116.576 111.222 116.559 111.22C116.542 111.218 116.522 111.216 116.499 111.212C116.476 111.209 116.45 111.204 116.421 111.198C116.392 111.192 116.359 111.184 116.323 111.174C116.287 111.164 116.246 111.151 116.202 111.135L117.255 108.326C117.212 108.309 117.171 108.296 117.135 108.286C117.099 108.276 117.065 108.268 117.036 108.262C117.007 108.256 116.981 108.251 116.959 108.248C116.936 108.244 116.916 108.242 116.898 108.24C116.881 108.238 116.866 108.236 116.854 108.235C116.842 108.234 116.831 108.234 116.824 108.233C116.816 108.233 116.81 108.232 116.806 108.232C116.804 108.232 116.802 108.232 116.801 108.232C116.801 108.232 116.801 108.232 116.8 108.232C116.8 108.232 116.8 108.232 116.8 108.232C116.8 108.232 116.8 108.232 116.8 108.232C116.8 108.232 116.8 108.232 116.8 108.232C116.8 108.232 116.8 108.232 116.8 108.232C116.799 108.232 116.802 108.232 116.806 108.232C116.81 108.232 116.816 108.233 116.824 108.233C116.831 108.234 116.842 108.234 116.854 108.235C116.866 108.236 116.881 108.238 116.898 108.24C116.915 108.242 116.936 108.244 116.958 108.248C116.981 108.251 117.007 108.256 117.036 108.262C117.065 108.268 117.098 108.276 117.135 108.286C117.171 108.296 117.211 108.309 117.255 108.326L116.202 111.135ZM130.914 87.0924C128.902 95.7776 122.969 102.957 115.806 108.547L117.651 110.913C125.116 105.087 131.613 97.371 133.837 87.7694L130.914 87.0924ZM116.782 111.385C120.07 112.879 122.733 115.445 125.3 118.312L127.535 116.312C124.915 113.384 121.907 110.419 118.023 108.654L116.782 111.385ZM116.782 111.385C120.071 112.879 122.734 115.445 125.299 118.312L127.535 116.312C124.915 113.384 121.908 110.419 118.023 108.654L116.782 111.385Z" fill="#FF6A51"/>
<path fill-rule="evenodd" clip-rule="evenodd" d="M167 14.6684C166.691 10.238 161.014 7.45768 157.259 9.92153C154.44 12.1317 151.929 14.688 149.418 17.2448L149.418 17.2448L149.417 17.2449C147.819 18.8718 146.221 20.499 144.543 22.0373C144.191 22.3987 143.814 22.7625 143.43 23.1327L143.43 23.1329C141.292 25.1942 138.944 27.4573 139.575 30.6382C139.964 35.2607 146.099 37.7924 149.751 34.9443C152.43 32.5927 154.958 30.0798 157.488 27.5657L157.488 27.5657C159.141 25.9232 160.794 24.2803 162.49 22.6815C162.728 22.4416 162.975 22.1992 163.226 21.953L163.227 21.9529C165.26 19.9606 167.539 17.7263 167 14.6684ZM37.1791 11.888C35.1646 9.58245 31.8338 8.14709 28.8578 9.57115C24.8631 11.1195 23.6728 16.8496 26.7746 19.7995C27.9715 20.9916 29.1608 22.1952 30.351 23.3996C34.4306 27.528 38.52 31.6665 42.9594 35.385C48.339 38.6287 55.2295 31.7796 51.6584 26.5355C48.8412 23.2076 45.6862 20.1768 42.5317 17.1465L42.5317 17.1465C40.7261 15.412 38.9208 13.6777 37.1791 11.888ZM43.7259 116.918C48.7049 114.771 54.3592 120.342 52.1158 125.248C50.9066 127.475 49.036 129.215 47.1723 130.948L47.1722 130.949C46.2839 131.775 45.3971 132.6 44.5843 133.475C43.4869 134.516 42.4251 135.593 41.3638 136.67C39.3591 138.704 37.3562 140.736 35.1184 142.517C31.4328 145.343 25.3435 142.596 25.0573 137.996C24.593 134.631 27.0323 132.365 29.3519 130.21L29.352 130.21C30.063 129.549 30.7627 128.899 31.3641 128.231C32.8959 126.884 34.3236 125.406 35.7512 123.927L35.7513 123.927C38.2283 121.362 40.7053 118.796 43.7259 116.918ZM150.952 118.726C149.087 116.692 146.019 115.912 143.444 117.02C139.472 118.5 138.133 124.14 141.155 127.146C144.044 130.182 147.048 133.114 150.053 136.046C151.679 137.632 153.305 139.219 154.913 140.822C156.79 142.8 159.583 144.416 162.399 143.365C166.897 142.336 168.614 136.086 165.329 132.922C162.081 129.525 158.705 126.256 155.333 122.99C153.868 121.571 152.404 120.153 150.952 118.726Z" fill="#FF4A7F"/>
<path d="M157.259 9.92153L155.613 7.41327L155.508 7.48262L155.408 7.56062L157.259 9.92153ZM167 14.6684L164.007 14.8771L164.018 15.0343L164.046 15.1895L167 14.6684ZM149.418 17.2448L151.539 19.3661L151.548 19.3566L151.558 19.347L149.418 17.2448ZM149.418 17.2448L151.469 19.4334L151.505 19.4003L151.539 19.3661L149.418 17.2448ZM149.417 17.2449L147.366 15.0563L147.321 15.0985L147.277 15.1426L149.417 17.2449ZM144.543 22.0373L142.516 19.8259L142.453 19.8832L142.394 19.944L144.543 22.0373ZM143.43 23.1327L145.505 25.2987L145.512 25.2924L143.43 23.1327ZM143.43 23.1329L141.354 20.9669L141.347 20.9732L143.43 23.1329ZM139.575 30.6382L142.564 30.3866L142.55 30.2194L142.518 30.0547L139.575 30.6382ZM149.751 34.9443L151.596 37.3099L151.665 37.2564L151.73 37.1989L149.751 34.9443ZM157.488 27.5657L159.603 29.6937L159.61 29.6871L157.488 27.5657ZM157.488 27.5657L155.374 25.4377L155.367 25.4443L157.488 27.5657ZM162.49 22.6815L164.548 24.8644L164.585 24.8297L164.62 24.7939L162.49 22.6815ZM163.226 21.953L161.306 19.6484L161.213 19.7258L161.127 19.8104L163.226 21.953ZM163.227 21.9529L165.147 24.2576L165.24 24.1802L165.326 24.0955L163.227 21.9529ZM28.8578 9.57115L29.942 12.3684L30.0491 12.3269L30.1527 12.2773L28.8578 9.57115ZM37.1791 11.888L34.9199 13.8619L34.9729 13.9226L35.0291 13.9803L37.1791 11.888ZM26.7746 19.7995L28.8916 17.6739L28.8671 17.6495L28.842 17.6256L26.7746 19.7995ZM30.351 23.3996L32.4849 21.291L32.4849 21.291L30.351 23.3996ZM42.9594 35.385L41.033 37.6848L41.2112 37.8341L41.4103 37.9541L42.9594 35.385ZM51.6584 26.5355L54.138 24.8469L54.0496 24.7171L53.9481 24.5972L51.6584 26.5355ZM42.5317 17.1465L40.4104 19.2678L40.4317 19.2891L40.4534 19.31L42.5317 17.1465ZM42.5317 17.1465L44.653 15.0252L44.6317 15.0039L44.61 14.983L42.5317 17.1465ZM52.1158 125.248L54.7522 126.68L54.8013 126.589L54.8441 126.496L52.1158 125.248ZM43.7259 116.918L42.538 114.163L42.3321 114.252L42.1417 114.371L43.7259 116.918ZM47.1723 130.948L45.129 128.752L45.0415 128.833L44.9608 128.921L47.1723 130.948ZM47.1722 130.949L49.2155 133.145L49.3029 133.064L49.3837 132.976L47.1722 130.949ZM44.5843 133.475L46.6488 135.652L46.7179 135.586L46.7828 135.516L44.5843 133.475ZM41.3638 136.67L43.5004 138.776L43.5004 138.776L41.3638 136.67ZM35.1184 142.517L36.9439 144.898L36.9654 144.881L36.9867 144.864L35.1184 142.517ZM25.0573 137.996L28.0515 137.81L28.0446 137.698L28.0292 137.586L25.0573 137.996ZM29.3519 130.21L27.4195 127.915L27.3636 127.962L27.31 128.012L29.3519 130.21ZM29.352 130.21L31.2844 132.505L31.3404 132.457L31.394 132.408L29.352 130.21ZM31.3641 128.231L29.383 125.978L29.2516 126.094L29.1345 126.224L31.3641 128.231ZM35.7512 123.927L37.9094 126.011L37.9605 125.958L38.009 125.903L35.7512 123.927ZM35.7513 123.927L33.5932 121.843L33.542 121.896L33.4936 121.951L35.7513 123.927ZM143.444 117.02L144.491 119.831L144.561 119.805L144.63 119.776L143.444 117.02ZM150.952 118.726L148.741 120.753L148.794 120.811L148.849 120.866L150.952 118.726ZM141.155 127.146L143.328 125.078L143.3 125.048L143.271 125.019L141.155 127.146ZM150.053 136.046L152.148 133.898L152.148 133.898L150.053 136.046ZM154.913 140.822L157.089 138.757L157.061 138.727L157.031 138.698L154.913 140.822ZM162.399 143.365L161.73 140.44L161.536 140.485L161.35 140.554L162.399 143.365ZM165.329 132.922L163.161 134.995L163.203 135.04L163.248 135.083L165.329 132.922ZM155.333 122.99L157.42 120.835L157.42 120.835L155.333 122.99ZM158.905 12.4298C159.722 11.8939 160.924 11.8288 162.106 12.4055C163.29 12.9835 163.943 13.9542 164.007 14.8771L169.993 14.4597C169.748 10.9522 167.408 8.31752 164.738 7.01374C162.065 5.70869 158.552 5.48532 155.613 7.41327L158.905 12.4298ZM151.558 19.347C154.092 16.7668 156.469 14.3526 159.11 12.2824L155.408 7.56062C152.41 9.91078 149.766 12.6092 147.277 15.1425L151.558 19.347ZM151.539 19.3661L151.539 19.3661L147.296 15.1234L147.296 15.1235L151.539 19.3661ZM151.469 19.4335L151.469 19.4334L147.366 15.0562L147.366 15.0563L151.469 19.4335ZM146.57 24.2487C148.316 22.6484 149.969 20.9647 151.558 19.3471L147.277 15.1426C145.67 16.779 144.126 18.3496 142.516 19.8259L146.57 24.2487ZM145.512 25.2924C145.889 24.9286 146.301 24.5317 146.692 24.1306L142.394 19.944C142.081 20.2657 141.738 20.5963 141.347 20.9731L145.512 25.2924ZM145.505 25.2988L145.505 25.2987L141.354 20.9668L141.354 20.9669L145.505 25.2988ZM142.518 30.0547C142.391 29.4142 142.515 28.8326 142.997 28.0736C143.545 27.2102 144.387 26.3772 145.512 25.2925L141.347 20.9732C140.334 21.9499 138.934 23.2791 137.931 24.8578C136.863 26.5409 136.129 28.6813 136.632 31.2217L142.518 30.0547ZM147.906 32.5786C147.11 33.1997 145.86 33.3544 144.599 32.826C143.344 32.2997 142.645 31.3399 142.564 30.3866L136.586 30.8898C136.894 34.559 139.457 37.1763 142.28 38.3594C145.097 39.5405 148.74 39.537 151.596 37.3099L147.906 32.5786ZM155.373 25.4379C152.833 27.9629 150.369 30.4096 147.772 32.6897L151.73 37.1989C154.49 34.7758 157.084 32.1968 159.603 29.6936L155.373 25.4379ZM155.367 25.4443L155.367 25.4444L159.61 29.6871L159.61 29.687L155.367 25.4443ZM160.432 20.4986C158.703 22.1291 157.022 23.8 155.374 25.4378L159.603 29.6936C161.26 28.0465 162.886 26.4316 164.548 24.8644L160.432 20.4986ZM161.127 19.8104C160.878 20.0538 160.615 20.3114 160.36 20.5691L164.62 24.7939C164.84 24.5719 165.072 24.3446 165.326 24.0956L161.127 19.8104ZM161.306 19.6482L161.306 19.6484L165.147 24.2577L165.147 24.2576L161.306 19.6482ZM164.046 15.1895C164.149 15.7758 164.028 16.3428 163.546 17.1004C163.008 17.9469 162.195 18.7635 161.127 19.8103L165.326 24.0955C166.291 23.15 167.634 21.8533 168.609 20.3201C169.641 18.698 170.39 16.6189 169.954 14.1473L164.046 15.1895ZM30.1527 12.2773C31.459 11.6522 33.4086 12.1322 34.9199 13.8619L39.4382 9.9141C36.9205 7.03268 32.2086 4.64197 27.5628 6.86502L30.1527 12.2773ZM28.842 17.6256C28.1741 16.9905 27.8528 15.9373 28.0938 14.7626C28.3352 13.5858 29.0561 12.7117 29.942 12.3684L27.7736 6.77393C24.6647 7.97893 22.7932 10.7441 22.2162 13.5569C21.6388 16.3718 22.2732 19.6587 24.7071 21.9734L28.842 17.6256ZM32.4849 21.291C31.2962 20.0879 30.0984 18.8758 28.8916 17.6739L24.6576 21.9252C25.8446 23.1073 27.0255 24.3024 28.2171 25.5083L32.4849 21.291ZM44.8858 33.0852C40.5728 29.4726 36.5814 25.4365 32.4849 21.291L28.2171 25.5083C32.2797 29.6195 36.4672 33.8604 41.033 37.6848L44.8858 33.0852ZM49.1787 28.2241C49.9392 29.3409 49.77 30.7874 48.5367 32.0293C47.2881 33.2866 45.7102 33.5405 44.5085 32.8159L41.4103 37.9541C45.5882 40.4732 50.1453 38.9244 52.7941 36.2571C55.4582 33.5744 56.9486 28.9743 54.138 24.8469L49.1787 28.2241ZM40.4534 19.31C43.6269 22.3585 46.6681 25.2837 49.3686 28.4738L53.9481 24.5972C51.0143 21.1315 47.7455 17.995 44.61 14.983L40.4534 19.31ZM40.4104 19.2678L40.4104 19.2678L44.653 15.0252L44.653 15.0252L40.4104 19.2678ZM35.0291 13.9803C36.8119 15.8123 38.654 17.5814 40.4534 19.31L44.61 14.983C42.7983 13.2426 41.0296 11.5432 39.329 9.79574L35.0291 13.9803ZM54.8441 126.496C56.61 122.634 55.164 118.706 52.7397 116.306C50.3182 113.909 46.3928 112.501 42.538 114.163L44.9138 119.673C46.038 119.188 47.4293 119.492 48.5189 120.57C49.6056 121.646 49.865 122.956 49.3875 124.001L54.8441 126.496ZM49.2156 133.145C51.0131 131.473 53.2693 129.41 54.7522 126.68L49.4795 123.816C48.5439 125.539 47.0589 126.957 45.129 128.752L49.2156 133.145ZM49.3837 132.976L49.3837 132.976L44.9608 128.921L44.9607 128.921L49.3837 132.976ZM46.7828 135.516C47.5081 134.735 48.3128 133.985 49.2155 133.145L45.1289 128.752C44.2549 129.565 43.2862 130.464 42.3859 131.434L46.7828 135.516ZM43.5004 138.776C44.5676 137.693 45.5941 136.652 46.6488 135.652L42.5199 131.298C41.3796 132.38 40.2826 133.493 39.2272 134.564L43.5004 138.776ZM36.9867 144.864C39.3894 142.952 41.5168 140.788 43.5004 138.776L39.2272 134.564C37.2013 136.62 35.323 138.52 33.2502 140.17L36.9867 144.864ZM22.0631 138.182C22.2908 141.841 24.7963 144.523 27.582 145.777C30.3698 147.032 34.0361 147.127 36.9439 144.898L33.293 140.136C32.5151 140.733 31.294 140.868 30.0442 140.306C28.7924 139.742 28.1101 138.751 28.0515 137.81L22.0631 138.182ZM27.31 128.012C26.2064 129.037 24.7398 130.38 23.6682 131.98C22.5284 133.681 21.7285 135.819 22.0855 138.406L28.0292 137.586C27.9219 136.809 28.1094 136.131 28.6531 135.319C29.2649 134.406 30.1778 133.538 31.3939 132.408L27.31 128.012ZM27.4196 127.915L27.4195 127.915L31.2844 132.505L31.2844 132.505L27.4196 127.915ZM29.1345 126.224C28.639 126.774 28.0422 127.332 27.31 128.012L31.394 132.408C32.0837 131.767 32.8864 131.024 33.5937 130.238L29.1345 126.224ZM33.5931 121.843C32.1507 123.337 30.8073 124.726 29.383 125.978L33.3452 130.484C34.9844 129.042 36.4964 127.474 37.9094 126.011L33.5931 121.843ZM33.4936 121.951L33.4935 121.952L38.009 125.903L38.009 125.903L33.4936 121.951ZM42.1417 114.371C38.7525 116.478 36.0248 119.325 33.5932 121.843L37.9094 126.011C40.4318 123.399 42.6582 121.115 45.3102 119.466L42.1417 114.371ZM144.63 119.776C145.945 119.21 147.672 119.588 148.741 120.753L153.163 116.698C150.502 113.796 146.093 112.614 142.258 114.264L144.63 119.776ZM143.271 125.019C142.626 124.377 142.335 123.338 142.6 122.183C142.868 121.022 143.606 120.161 144.491 119.831L142.397 114.209C139.31 115.359 137.393 118.058 136.753 120.838C136.112 123.624 136.662 126.908 139.039 129.273L143.271 125.019ZM152.148 133.898C149.137 130.96 146.172 128.067 143.328 125.078L138.982 129.214C141.915 132.297 144.96 135.267 147.958 138.193L152.148 133.898ZM157.031 138.698C155.41 137.081 153.772 135.483 152.148 133.898L147.958 138.193C149.586 139.781 151.2 141.356 152.795 142.946L157.031 138.698ZM161.35 140.554C160.281 140.953 158.717 140.472 157.089 138.757L152.737 142.887C154.863 145.128 158.885 147.879 163.448 146.176L161.35 140.554ZM163.248 135.083C163.937 135.747 164.242 136.884 163.893 138.139C163.544 139.39 162.696 140.219 161.73 140.44L163.068 146.289C166.6 145.481 168.859 142.671 169.673 139.749C170.485 136.831 170.006 133.261 167.41 130.761L163.248 135.083ZM153.246 125.145C156.625 128.417 159.959 131.647 163.161 134.995L167.497 130.849C164.203 127.404 160.785 124.094 157.42 120.835L153.246 125.145ZM148.849 120.866C150.311 122.302 151.783 123.727 153.246 125.145L157.42 120.835C155.954 119.415 154.498 118.005 153.055 116.586L148.849 120.866Z" fill="#FF4A7F"/>
<path d="M74.5723 153.763C76.1977 151.853 78.361 150.123 81.0508 150.361C91.4209 150.293 101.791 150.293 112.161 150.349C114.839 150.112 116.991 151.864 118.628 153.751C118.799 155.989 119.303 158.555 117.701 160.442C115.389 163.708 110.925 163.008 107.445 163.132C98.2428 162.895 89.0287 163.415 79.849 162.895C75.3163 162.623 73.4392 157.605 74.5723 153.763Z" fill="#B655EE"/>
<path d="M84.8743 169.393C92.692 169.201 100.51 169.19 108.327 169.393C110.823 169.891 112.402 172.004 113.593 174.039C113.535 177.26 112.196 181.136 108.533 181.746C102.478 182.334 96.3776 181.814 90.3112 182.018C87.4611 181.882 84.0616 182.459 81.8297 180.277C79.9983 178.729 79.9296 176.175 79.5977 174.005C80.811 171.993 82.3791 169.891 84.8743 169.393Z" fill="#B254EE"/>
</svg>
