<?xml version="1.0" encoding="UTF-8" ?>
<!DOCTYPE svg PUBLIC "-//W3C//DTD SVG 1.1//EN" "http://www.w3.org/Graphics/SVG/1.1/DTD/svg11.dtd">
<svg width="192pt" height="192pt" viewBox="0 0 192 192" version="1.1" xmlns="http://www.w3.org/2000/svg">
<g id="#109cffff">
<path fill="#109cff" opacity="1.00" d=" M 70.59 25.56 C 82.84 21.62 95.18 17.39 108.05 16.07 C 114.70 15.27 121.41 16.29 127.80 18.16 C 124.39 20.95 121.58 24.38 119.56 28.30 C 111.81 26.93 103.91 28.30 96.38 30.21 C 85.47 33.06 74.73 36.51 64.12 40.32 C 63.57 39.97 62.45 39.29 61.89 38.94 C 65.22 34.78 68.26 30.37 70.59 25.56 Z" />
<path fill="#109cff" opacity="1.00" d=" M 57.69 53.77 C 67.71 50.47 77.75 47.27 87.88 44.35 C 88.42 44.77 89.50 45.62 90.04 46.05 C 87.26 49.38 84.57 53.10 84.58 57.64 C 77.70 59.86 70.78 61.96 63.92 64.24 C 64.21 65.43 64.50 66.63 64.79 67.83 C 65.60 71.20 66.37 74.57 67.11 77.96 C 64.01 81.30 61.08 85.27 61.45 90.09 C 61.09 89.97 60.36 89.71 60.00 89.59 C 56.33 87.32 56.03 82.68 55.09 78.90 C 54.01 73.58 52.50 68.34 51.60 62.99 C 50.82 58.85 53.76 54.85 57.69 53.77 Z" />
</g>
<g id="#1bb3ffff">
<path fill="#1bb3ff" opacity="1.00" d=" M 119.56 28.30 C 121.58 24.38 124.39 20.95 127.80 18.16 C 141.02 22.63 151.48 34.74 152.90 48.76 C 153.49 55.28 152.55 61.98 149.73 67.91 C 145.91 66.66 141.95 65.88 137.95 65.52 C 139.87 60.91 141.62 56.06 141.06 50.98 C 140.64 44.85 137.73 38.97 133.13 34.90 C 129.38 31.40 124.54 29.33 119.56 28.30 Z" />
</g>
<g id="#0a8fffff">
<path fill="#0a8fff" opacity="1.00" d=" M 34.29 38.28 C 46.42 34.12 58.40 29.56 70.59 25.56 C 68.26 30.37 65.22 34.78 61.89 38.94 C 62.45 39.29 63.57 39.97 64.12 40.32 C 54.38 43.87 44.54 47.15 34.83 50.78 C 30.92 52.44 26.20 54.24 24.66 58.61 C 23.61 62.44 24.45 66.46 24.76 70.34 C 25.85 80.34 27.63 90.25 28.68 100.25 C 28.10 98.73 27.44 97.24 26.79 95.75 C 23.66 99.48 20.66 103.31 17.73 107.20 C 16.04 94.31 13.88 81.47 12.64 68.53 C 12.09 62.89 11.81 56.81 14.76 51.74 C 18.63 44.30 26.86 41.02 34.29 38.28 Z" />
</g>
<g id="#00000040">
<path fill="#000000" opacity="0.25" d=" M 96.38 30.21 C 103.91 28.30 111.81 26.93 119.56 28.30 C 124.54 29.33 129.38 31.40 133.13 34.90 C 127.87 33.02 122.67 30.54 117.00 30.28 C 107.39 29.56 98.02 32.33 88.89 34.94 C 71.94 39.74 55.57 46.32 38.89 51.97 C 34.60 53.60 29.78 55.10 26.97 58.98 C 24.84 62.35 25.15 66.53 24.76 70.34 C 24.45 66.46 23.61 62.44 24.66 58.61 C 26.20 54.24 30.92 52.44 34.83 50.78 C 44.54 47.15 54.38 43.87 64.12 40.32 C 74.73 36.51 85.47 33.06 96.38 30.21 Z" />
<path fill="#000000" opacity="0.25" d=" M 179.36 135.97 C 180.22 139.43 180.87 143.45 178.54 146.51 C 175.12 151.11 169.27 152.84 163.90 153.96 C 153.56 155.91 143.24 157.93 132.94 160.09 C 129.10 160.86 125.11 161.64 121.20 160.82 C 117.05 159.93 112.42 158.62 110.19 154.64 C 115.25 157.82 121.34 159.62 127.31 158.54 C 139.34 156.34 151.30 153.75 163.33 151.52 C 168.48 150.46 174.12 148.83 177.39 144.39 C 179.23 142.00 179.45 138.87 179.36 135.97 Z" />
</g>
<g id="#15a7ffff">
<path fill="#15a7ff" opacity="1.00" d=" M 87.88 44.35 C 91.96 43.98 96.28 44.03 99.98 46.02 C 104.99 48.44 108.14 53.56 109.36 58.85 C 109.98 64.23 108.85 70.01 105.21 74.17 C 100.55 79.92 93.13 81.94 86.53 84.56 C 78.44 87.31 70.15 90.52 61.45 90.09 C 61.08 85.27 64.01 81.30 67.11 77.96 C 75.10 76.25 82.80 73.43 90.33 70.31 C 93.05 69.17 96.00 67.67 97.16 64.76 C 98.23 62.35 97.10 59.80 96.28 57.51 C 92.70 54.99 88.34 56.38 84.58 57.64 C 84.57 53.10 87.26 49.38 90.04 46.05 C 89.50 45.62 88.42 44.77 87.88 44.35 Z" />
</g>
<g id="#00000041">
<path fill="#000000" opacity="0.25" d=" M 152.90 48.76 C 155.65 57.43 153.21 66.93 148.55 74.47 C 145.20 80.36 140.64 85.40 136.70 90.89 C 136.00 90.22 135.29 89.55 134.59 88.88 C 140.54 82.61 145.88 75.68 149.73 67.91 C 152.55 61.98 153.49 55.28 152.90 48.76 Z" />
<path fill="#000000" opacity="0.25" d=" M 84.58 57.64 C 88.34 56.38 92.70 54.99 96.28 57.51 C 88.47 58.78 80.92 61.17 73.38 63.51 C 70.30 64.47 67.47 66.06 64.79 67.83 C 64.50 66.63 64.21 65.43 63.92 64.24 C 70.78 61.96 77.70 59.86 84.58 57.64 Z" />
<path fill="#000000" opacity="0.25" d=" M 109.36 58.85 C 111.15 64.48 110.59 71.06 106.79 75.76 C 101.97 82.01 94.11 84.40 87.04 87.10 C 79.89 89.57 72.59 92.33 64.93 92.38 C 62.80 92.62 61.19 91.14 60.00 89.59 C 60.36 89.71 61.09 89.97 61.45 90.09 C 70.15 90.52 78.44 87.31 86.53 84.56 C 93.13 81.94 100.55 79.92 105.21 74.17 C 108.85 70.01 109.98 64.23 109.36 58.85 Z" />
</g>
<g id="#1fbcffff">
<path fill="#1fbcff" opacity="1.00" d=" M 137.34 65.45 L 137.95 65.52 C 141.95 65.88 145.91 66.66 149.73 67.91 C 145.88 75.68 140.54 82.61 134.59 88.88 C 135.29 89.55 136.00 90.22 136.70 90.89 C 141.15 95.12 145.63 99.33 150.08 103.57 C 147.22 106.33 144.41 109.14 141.65 112.00 C 135.66 106.44 129.80 100.75 123.84 95.15 C 121.85 93.35 120.10 90.84 120.57 88.01 C 120.98 84.86 123.69 82.88 125.76 80.76 C 130.28 76.22 134.51 71.23 137.34 65.45 Z" />
</g>
<g id="#12a0ffff">
<path fill="#12a0ff" opacity="1.00" d=" M 17.73 107.20 C 20.66 103.31 23.66 99.48 26.79 95.75 C 27.44 97.24 28.10 98.73 28.68 100.25 C 31.60 118.90 33.79 137.69 36.68 156.35 C 36.25 155.49 35.81 154.64 35.36 153.79 C 32.62 157.54 29.97 161.36 27.33 165.18 C 26.00 161.83 25.01 158.35 24.45 154.79 C 21.91 138.97 20.02 123.05 17.73 107.20 Z" />
</g>
<g id="#1bb4ffff">
<path fill="#1bb4ff" opacity="1.00" d=" M 69.89 109.14 C 67.34 106.03 69.25 100.79 73.15 99.94 C 75.89 99.10 78.53 100.77 80.11 102.91 C 88.94 113.61 97.96 124.16 106.87 134.80 C 104.00 137.58 101.18 140.41 98.41 143.29 C 88.94 131.88 79.17 120.71 69.89 109.14 Z" />
</g>
<g id="#28cfffff">
<path fill="#28cfff" opacity="1.00" d=" M 141.65 112.00 C 144.41 109.14 147.22 106.33 150.08 103.57 C 155.76 109.02 161.70 114.19 167.52 119.49 C 172.44 124.14 177.33 129.35 179.36 135.97 C 179.45 138.87 179.23 142.00 177.39 144.39 C 174.12 148.83 168.48 150.46 163.33 151.52 C 151.30 153.75 139.34 156.34 127.31 158.54 C 121.34 159.62 115.25 157.82 110.19 154.64 C 105.70 151.50 101.93 147.46 98.41 143.29 C 101.18 140.41 104.00 137.58 106.87 134.80 C 111.58 140.14 116.78 147.39 124.76 146.90 C 136.59 144.81 148.33 142.20 160.15 140.05 C 162.66 139.61 165.09 138.80 167.49 137.92 C 165.03 133.71 161.64 130.17 158.01 126.96 C 152.49 122.04 147.00 117.10 141.65 112.00 Z" />
</g>
<g id="#1cb5ffff">
<path fill="#1cb5ff" opacity="1.00" d=" M 68.58 133.98 C 69.01 128.71 76.81 127.06 79.42 131.59 C 81.19 135.76 81.42 140.43 82.33 144.84 C 82.93 150.82 83.17 157.44 79.71 162.66 C 76.78 167.19 71.57 169.55 66.44 170.56 C 59.16 172.01 51.90 173.55 44.59 174.88 C 40.66 175.71 36.62 174.77 33.18 172.79 C 30.71 170.70 28.95 167.94 27.33 165.18 C 29.97 161.36 32.62 157.54 35.36 153.79 C 35.81 154.64 36.25 155.49 36.68 156.35 C 37.77 158.65 38.50 161.18 40.21 163.14 C 42.54 163.49 44.85 162.70 47.13 162.32 C 52.96 161.08 58.82 160.03 64.65 158.78 C 66.97 158.24 69.93 157.28 70.44 154.60 C 71.89 147.64 68.77 140.87 68.58 133.98 Z" />
</g>
<g id="#0000003f">
<path fill="#000000" opacity="0.25" d=" M 82.33 144.84 C 85.18 151.63 84.56 160.10 80.05 166.03 C 74.78 172.31 66.12 173.21 58.59 174.72 C 51.86 175.83 45.04 178.40 38.17 176.90 C 35.85 176.54 34.51 174.50 33.18 172.79 C 36.62 174.77 40.66 175.71 44.59 174.88 C 51.90 173.55 59.16 172.01 66.44 170.56 C 71.57 169.55 76.78 167.19 79.71 162.66 C 83.17 157.44 82.93 150.82 82.33 144.84 Z" />
</g>
</svg>
