<svg width="64" height="64" viewBox="0 0 64 64" fill="none" xmlns="http://www.w3.org/2000/svg">
<g clip-path="url(#clip0)">
<path d="M5.9585 13.4767C11.1724 6.04642 19.7049 1.04134 28.7587 0.176698C34.7618 -0.484085 40.8705 0.739064 46.2958 3.33299C44.8443 5.34346 43.4281 7.37501 42.0401 9.42766C34.7125 6.17295 25.7995 6.7072 19.0214 11.0234C10.5242 16.1409 5.78235 26.6643 7.72699 36.4003C7.82564 37.0751 7.95951 37.7499 8.12156 38.4178C6.00782 40.4001 4.24636 42.7269 2.90061 45.2927C2.23126 43.7673 1.6535 42.2067 1.13211 40.6321C-1.38324 31.4655 0.321851 21.1812 5.9585 13.4767Z" fill="url(#paint0_linear)"/>
<path d="M42.0401 9.42766C43.4281 7.37501 44.8443 5.34346 46.2958 3.33299C50.7981 5.68791 54.7509 9.01996 57.8228 13.069C56.4489 15.2201 54.8566 17.2376 53.0246 19.0231C50.3895 14.8545 46.5283 11.4803 42.0401 9.42766Z" fill="url(#paint1_linear)"/>
<path d="M35.248 22.2426C37.5943 20.1127 39.546 17.5117 42.16 15.6981C44.8444 14.2992 48.1278 17.2235 47.1977 20.0564C45.7674 23.1495 42.1952 24.6889 40.7085 27.6976C42.8293 30.8609 48.0009 32.8784 46.8172 37.4125C45.401 38.8958 42.9843 40.1611 41.1876 38.4951C37.8691 35.4934 34.7266 32.2669 31.704 28.97C30.7246 26.0105 33.4584 24.0703 35.248 22.2426Z" fill="url(#paint2_linear)"/>
<path d="M57.8228 13.069C61.0004 17.5398 63.1 22.7628 63.8045 28.2107C64.8826 37.8694 61.4653 47.9921 54.4336 54.7756C45.3516 64.0758 30.3581 66.6486 18.6339 61.0952C20.0078 59.0567 21.3606 56.99 22.6781 54.9092C27.5398 56.8564 33.0073 57.2571 38.0873 55.9566C47.7894 53.6228 55.4412 44.8358 56.5051 34.9521C57.2097 29.4339 55.9133 23.7611 53.0246 19.0231C54.8566 17.2376 56.4489 15.2201 57.8228 13.069Z" fill="url(#paint3_linear)"/>
<path d="M17.5348 31.1843C16.1116 28.3795 19.4301 24.9912 22.2766 26.362C24.6722 27.8945 26.3844 30.2564 28.477 32.1544C30.2948 34.1157 33.1413 35.8731 32.7467 38.945C30.6541 41.6936 28.019 43.9501 25.6516 46.4386C24.3974 47.6477 23.249 49.0606 21.6496 49.8198C20.1206 50.4103 18.6974 49.3559 17.3869 48.7232C16.9571 47.254 16.5625 45.4544 17.6898 44.1961C19.6133 41.9677 21.8539 40.0416 23.8197 37.8554C21.7271 35.6341 19.1906 33.7642 17.5348 31.1843Z" fill="url(#paint4_linear)"/>
<path d="M2.90061 45.2927C4.24636 42.7269 6.00782 40.4001 8.12156 38.4178C10.1226 45.7638 15.6182 52.013 22.6781 54.9092C21.3606 56.99 20.0078 59.0567 18.6339 61.0952C11.729 57.9038 6.09236 52.1676 2.90061 45.2927Z" fill="url(#paint5_linear)"/>
</g>
<defs>
<linearGradient id="paint0_linear" x1="32" y1="64" x2="32" y2="0" gradientUnits="userSpaceOnUse">
<stop stop-color="#FD2E00"/>
<stop offset="1" stop-color="#FF9900"/>
</linearGradient>
<linearGradient id="paint1_linear" x1="32" y1="64" x2="32" y2="0" gradientUnits="userSpaceOnUse">
<stop stop-color="#FD2E00"/>
<stop offset="1" stop-color="#FF9900"/>
</linearGradient>
<linearGradient id="paint2_linear" x1="32" y1="64" x2="32" y2="0" gradientUnits="userSpaceOnUse">
<stop stop-color="#FD2E00"/>
<stop offset="1" stop-color="#FF9900"/>
</linearGradient>
<linearGradient id="paint3_linear" x1="32" y1="64" x2="32" y2="0" gradientUnits="userSpaceOnUse">
<stop stop-color="#FD2E00"/>
<stop offset="1" stop-color="#FF9900"/>
</linearGradient>
<linearGradient id="paint4_linear" x1="32" y1="64" x2="32" y2="0" gradientUnits="userSpaceOnUse">
<stop stop-color="#FD2E00"/>
<stop offset="1" stop-color="#FF9900"/>
</linearGradient>
<linearGradient id="paint5_linear" x1="32" y1="64" x2="32" y2="0" gradientUnits="userSpaceOnUse">
<stop stop-color="#FD2E00"/>
<stop offset="1" stop-color="#FF9900"/>
</linearGradient>
<clipPath id="clip0">
<rect width="64" height="64" fill="white"/>
</clipPath>
</defs>
</svg>
