<svg width="64" height="64" viewBox="0 0 64 64" fill="none" xmlns="http://www.w3.org/2000/svg">
<path fill-rule="evenodd" clip-rule="evenodd" d="M21.5898 13.1709C22.583 12.7394 23.8494 13.1569 24.3699 14.0657C25.6805 16.0235 26.9802 17.9884 28.276 19.9568C29.3441 19.9667 30.413 19.965 31.4819 19.9633C32.6928 19.9614 33.9037 19.9594 35.1136 19.9743C35.8048 18.9907 36.4638 17.9865 37.1227 16.9825C37.8224 15.9163 38.522 14.8504 39.2597 13.8095C39.9981 12.792 41.7482 12.7288 42.5826 13.6692C43.2176 14.3183 43.3357 15.3639 42.8299 16.1148C42.3241 16.9291 41.7866 17.7255 41.2489 18.5221L41.2488 18.5222L41.2485 18.5227C40.9267 18.9994 40.6049 19.4761 40.2898 19.9568C41.1783 19.9657 42.0662 19.9627 42.9537 19.9597H42.9537C44.1682 19.9556 45.382 19.9515 46.5957 19.9778C47.7514 19.9638 48.7556 20.8691 48.8995 21.9428C49.1815 23.3818 49.454 24.8231 49.7265 26.2645L49.7266 26.2649C50.0428 27.9373 50.359 29.6099 50.6902 31.2795C51.1247 31.2795 51.5595 31.2797 51.9944 31.2799H51.9953C53.3115 31.2806 54.6287 31.2812 55.9439 31.276C55.5818 30.0226 55.2054 28.7728 54.829 27.5232C54.2918 25.7398 53.7547 23.9566 53.2597 22.1638C52.9238 20.9217 54.1237 19.6376 55.4491 19.7147C56.4902 19.7287 57.3579 20.5182 57.5535 21.4691C57.987 22.937 58.4256 24.4038 58.8641 25.8706C59.5462 28.1518 60.2282 30.433 60.8911 32.7181C61.3268 33.8795 60.4001 35.283 59.0931 35.3531C57.552 35.3936 56.0096 35.3862 54.4674 35.3789H54.4673C53.4677 35.3742 52.4681 35.3694 51.4692 35.3777C51.5649 35.9526 51.6786 36.525 51.7924 37.0975L51.7924 37.0976C51.9418 37.8492 52.0912 38.6013 52.2001 39.3601C52.4513 40.6513 51.2624 41.9705 49.8816 41.925C48.4555 41.9486 47.028 41.9433 45.6008 41.9381H45.6007H45.6005C44.6927 41.9347 43.785 41.9314 42.8779 41.9355C43.4585 42.8194 44.046 43.6989 44.6334 44.5783L44.634 44.5792C45.6038 46.0311 46.5733 47.4825 47.5113 48.9529C48.2313 50.0406 47.4965 51.6512 46.1786 51.9108C45.2002 52.1634 44.1479 51.7038 43.6717 50.8652C43.1269 50.0449 42.5812 49.2248 42.0354 48.4047L42.0352 48.4044C40.6062 46.2568 39.1767 44.1086 37.7608 41.9531C35.0252 41.9292 32.2897 41.9329 29.5541 41.9366C28.2654 41.9384 26.9767 41.9401 25.688 41.939C25.133 42.7749 24.5788 43.6117 24.0246 44.4485C22.5805 46.6291 21.1358 48.8105 19.6737 50.981C18.9686 52.2196 16.8789 52.3073 16.063 51.1318C15.4759 50.3986 15.5719 49.3424 16.1294 48.6161C16.753 47.6814 17.3734 46.7448 17.9938 45.8082L17.9948 45.8067L17.9949 45.8065C18.8506 44.5146 19.7064 43.2227 20.5708 41.9355C19.72 41.9258 18.8686 41.9303 18.0173 41.9348H18.017H18.0169C16.7074 41.9417 15.398 41.9486 14.0914 41.9039C12.9137 41.8477 11.9131 40.7882 11.9685 39.6689C12.0523 38.7018 12.238 37.7488 12.4236 36.7964L12.4236 36.7963C12.5161 36.3215 12.6086 35.8469 12.6884 35.3707C11.6313 35.3607 10.5736 35.3646 9.51574 35.3686H9.51564C7.97258 35.3743 6.42928 35.3801 4.88728 35.3426C3.5877 35.2794 2.709 33.911 3.08928 32.7566C3.95742 29.2165 4.86119 25.6795 5.76419 22.1455L5.94688 21.4305C6.11671 20.4305 7.11724 19.6515 8.18423 19.7323C9.43582 19.7428 10.488 20.9568 10.2001 22.1252C9.78655 23.9141 9.32908 25.6946 8.87161 27.4751L8.8716 27.4751L8.87159 27.4751C8.54483 28.7469 8.21806 30.0187 7.90733 31.2935C8.82676 31.2917 9.74527 31.2917 10.6638 31.2917C11.582 31.2917 12.5003 31.2917 13.4194 31.29C13.6577 29.9806 13.8926 28.6699 14.1276 27.3591L14.1277 27.3583L14.1277 27.3581C14.4499 25.5607 14.7721 23.7628 15.1031 21.9673C15.2359 20.8971 16.2254 19.9849 17.381 19.9849C18.4968 19.9544 19.6125 19.9581 20.7283 19.9618C21.536 19.9645 22.3438 19.9671 23.1516 19.9568C22.8704 19.53 22.5835 19.1057 22.2964 18.6811L22.2962 18.6809L22.2962 18.6808C21.6936 17.7898 21.0902 16.8975 20.5377 15.9779C19.9285 14.9885 20.4859 13.5955 21.5898 13.1709ZM19.1273 24.0866C18.2929 28.669 17.4659 33.2479 16.6463 37.8338C26.9359 37.8408 37.2254 37.8443 47.515 37.8268C47.0662 35.519 46.6268 33.2094 46.1873 30.8994L46.1872 30.8988L46.1872 30.8988C45.7554 28.6292 45.3236 26.3592 44.8826 24.09C36.2987 24.0831 27.7112 24.0831 19.1273 24.0866ZM22.7187 25.4936C23.9962 25.0796 25.5247 26.0585 25.4915 27.3603C25.4939 27.4854 25.4964 27.6106 25.499 27.7358V27.7358C25.5201 28.7727 25.5413 29.8117 25.4656 30.848C25.281 32.304 23.2172 33.0304 22.0468 32.097C21.088 31.4046 21.1346 30.293 21.1794 29.2262C21.1957 28.8388 21.2117 28.4574 21.1792 28.1041C21.0426 27.0304 21.5299 25.7954 22.7187 25.4936ZM42.8772 27.0268C42.6409 25.6865 40.8429 24.9567 39.6467 25.69C38.5191 26.2776 38.5446 27.5734 38.5656 28.6439C38.5667 28.6985 38.5678 28.7525 38.5687 28.8058C38.578 29.0221 38.5745 29.2497 38.571 29.4815C38.5563 30.4451 38.5404 31.4819 39.4363 32.09C40.5956 33.0162 42.5892 32.3461 42.8698 30.9285C42.999 29.6338 42.9806 28.3216 42.8772 27.0268Z" fill="url(#paint0_linear_678_141)"/>
<path d="M24.3699 14.0657L23.9361 14.3142L23.9447 14.3293L23.9544 14.3438L24.3699 14.0657ZM21.5898 13.1709L21.7693 13.6376L21.7793 13.6337L21.7891 13.6295L21.5898 13.1709ZM28.276 19.9568L27.8584 20.2318L28.005 20.4543L28.2714 20.4568L28.276 19.9568ZM31.4819 19.9633L31.4811 19.4633L31.4811 19.4633L31.4819 19.9633ZM35.1136 19.9743L35.1075 20.4743L35.3711 20.4775L35.5227 20.2618L35.1136 19.9743ZM37.1227 16.9825L36.7047 16.7082L36.7047 16.7082L37.1227 16.9825ZM39.2597 13.8095L38.855 13.5159L38.8518 13.5204L39.2597 13.8095ZM42.5826 13.6692L42.2086 14.001L42.2166 14.0101L42.2251 14.0188L42.5826 13.6692ZM42.8299 16.1148L42.4152 15.8355L42.41 15.8431L42.4051 15.851L42.8299 16.1148ZM41.2489 18.5221L41.6532 18.8162L41.6584 18.8091L41.6633 18.8018L41.2489 18.5221ZM41.2488 18.5222L40.8444 18.2281L40.84 18.2342L40.8358 18.2404L41.2488 18.5222ZM41.2485 18.5227L40.8354 18.2408L40.834 18.2429L41.2485 18.5227ZM40.2898 19.9568L39.8717 19.6827L39.3703 20.4477L40.2848 20.4568L40.2898 19.9568ZM42.9537 19.9597L42.9537 19.4597L42.952 19.4597L42.9537 19.9597ZM42.9537 19.9597V20.4597L42.9554 20.4597L42.9537 19.9597ZM46.5957 19.9778L46.5849 20.4777L46.5933 20.4779L46.6018 20.4778L46.5957 19.9778ZM48.8995 21.9428L48.4039 22.0092L48.4059 22.0241L48.4088 22.0389L48.8995 21.9428ZM49.7265 26.2645L50.2179 26.1722L50.2178 26.1716L49.7265 26.2645ZM49.7266 26.2649L49.2352 26.3573L49.2353 26.3578L49.7266 26.2649ZM50.6902 31.2795L50.1997 31.3768L50.2796 31.7795H50.6902V31.2795ZM51.9944 31.2799L51.9941 31.7799H51.9944V31.2799ZM51.9953 31.2799L51.9955 30.7799H51.9953V31.2799ZM55.9439 31.276L55.9459 31.776L56.608 31.7733L56.4242 31.1372L55.9439 31.276ZM54.829 27.5232L55.3077 27.379L55.3077 27.379L54.829 27.5232ZM53.2597 22.1638L52.7771 22.2944L52.7778 22.2969L53.2597 22.1638ZM55.4491 19.7147L55.4201 20.2138L55.4312 20.2145L55.4424 20.2146L55.4491 19.7147ZM57.5535 21.4691L57.0638 21.5699L57.068 21.5905L57.074 21.6107L57.5535 21.4691ZM58.8641 25.8706L58.3851 26.0138L58.3851 26.0138L58.8641 25.8706ZM60.8911 32.7181L60.4109 32.8574L60.4162 32.8758L60.4229 32.8937L60.8911 32.7181ZM59.0931 35.3531L59.1062 35.8531L59.1199 35.8524L59.0931 35.3531ZM54.4674 35.3789L54.4698 34.8789H54.4674V35.3789ZM54.4673 35.3789L54.4649 35.8789H54.4673V35.3789ZM51.4692 35.3777L51.465 34.8777L50.8798 34.8825L50.976 35.4598L51.4692 35.3777ZM51.7924 37.0975L52.2856 37.0153L52.2843 37.0077L52.2828 37.0001L51.7924 37.0975ZM51.7924 37.0976L51.2992 37.1798L51.3005 37.1874L51.302 37.195L51.7924 37.0976ZM52.2001 39.3601L51.7052 39.4312L51.707 39.4434L51.7093 39.4555L52.2001 39.3601ZM49.8816 41.925L49.8981 41.4252L49.8857 41.4248L49.8733 41.425L49.8816 41.925ZM45.6008 41.9381L45.6026 41.4381H45.6008V41.9381ZM45.6005 41.9381L45.5987 42.4381H45.6005V41.9381ZM42.8779 41.9355L42.8757 41.4355L41.954 41.4396L42.46 42.21L42.8779 41.9355ZM44.6334 44.5783L45.0502 44.302L45.0491 44.3005L44.6334 44.5783ZM44.634 44.5792L44.2172 44.8554L44.2182 44.8569L44.634 44.5792ZM47.5113 48.9529L47.0897 49.2219L47.0944 49.2289L47.5113 48.9529ZM46.1786 51.9108L46.0819 51.4203L46.0677 51.4231L46.0536 51.4267L46.1786 51.9108ZM43.6717 50.8652L44.1065 50.6183L44.0979 50.6031L44.0882 50.5886L43.6717 50.8652ZM42.0354 48.4047L41.6169 48.6783L41.6192 48.6817L42.0354 48.4047ZM42.0352 48.4044L42.4537 48.1308L42.4515 48.1274L42.0352 48.4044ZM37.7608 41.9531L38.1787 41.6785L38.0321 41.4554L37.7651 41.4531L37.7608 41.9531ZM29.5541 41.9366L29.5535 41.4366L29.5535 41.4366L29.5541 41.9366ZM25.688 41.939L25.6884 41.439L25.4199 41.4388L25.2714 41.6624L25.688 41.939ZM24.0246 44.4485L24.4415 44.7246L24.4415 44.7246L24.0246 44.4485ZM19.6737 50.981L19.259 50.7017L19.2485 50.7173L19.2392 50.7336L19.6737 50.981ZM16.063 51.1318L16.4737 50.8467L16.464 50.8327L16.4533 50.8193L16.063 51.1318ZM16.1294 48.6161L16.526 48.9205L16.5361 48.9074L16.5453 48.8936L16.1294 48.6161ZM17.9938 45.8082L18.4106 46.0843L18.411 46.0837L17.9938 45.8082ZM17.9948 45.8067L18.412 46.0822L18.4135 46.08L17.9948 45.8067ZM17.9949 45.8065L17.5781 45.5304L17.5762 45.5332L17.9949 45.8065ZM20.5708 41.9355L20.9859 42.2142L21.5018 41.446L20.5765 41.4355L20.5708 41.9355ZM18.0173 41.9348V42.4348L18.0199 42.4348L18.0173 41.9348ZM18.0169 41.9348V41.4348L18.0143 41.4348L18.0169 41.9348ZM14.0914 41.9039L14.0676 42.4034L14.0743 42.4036L14.0914 41.9039ZM11.9685 39.6689L11.4704 39.6257L11.4696 39.6349L11.4691 39.6441L11.9685 39.6689ZM12.4236 36.7964L11.9353 36.6879L11.9328 36.7007L12.4236 36.7964ZM12.4236 36.7963L12.9119 36.9048L12.9144 36.8919L12.4236 36.7963ZM12.6884 35.3707L13.1816 35.4534L13.2783 34.8762L12.6932 34.8707L12.6884 35.3707ZM9.51574 35.3686L9.51574 35.8686L9.5176 35.8686L9.51574 35.3686ZM9.51564 35.3686L9.51564 34.8686L9.51378 34.8686L9.51564 35.3686ZM4.88728 35.3426L4.86299 35.8422L4.87513 35.8424L4.88728 35.3426ZM3.08928 32.7566L3.56417 32.9131L3.57026 32.8946L3.57489 32.8757L3.08928 32.7566ZM5.76419 22.1455L6.24862 22.2693L6.24862 22.2693L5.76419 22.1455ZM5.94688 21.4305L6.43132 21.5543L6.43639 21.5344L6.43982 21.5142L5.94688 21.4305ZM8.18423 19.7323L8.1465 20.2308L8.16324 20.2321L8.18003 20.2322L8.18423 19.7323ZM10.2001 22.1252L9.71453 22.0055L9.7129 22.0126L10.2001 22.1252ZM8.87161 27.4751L8.38733 27.3506L8.38654 27.3538L8.87161 27.4751ZM8.8716 27.4751L9.35435 27.6057L9.35667 27.5963L8.8716 27.4751ZM8.87159 27.4751L8.38889 27.3446L8.38732 27.3507L8.87159 27.4751ZM7.90733 31.2935L7.42155 31.1751L7.27052 31.7947L7.90826 31.7935L7.90733 31.2935ZM13.4194 31.29L13.4204 31.79L13.8368 31.7892L13.9114 31.3795L13.4194 31.29ZM14.1276 27.3591L13.6354 27.2706L13.6354 27.2708L14.1276 27.3591ZM14.1277 27.3583L14.6198 27.4468L14.6202 27.4443L14.1277 27.3583ZM14.1277 27.3581L13.6356 27.2699L13.6352 27.2721L14.1277 27.3581ZM15.1031 21.9673L15.5948 22.058L15.5974 22.0435L15.5993 22.0289L15.1031 21.9673ZM17.381 19.9849L17.381 20.4851L17.3947 20.4847L17.381 19.9849ZM20.7283 19.9618L20.7299 19.4618L20.7299 19.4618L20.7283 19.9618ZM23.1516 19.9568L23.1579 20.4568L24.0719 20.4451L23.5691 19.6818L23.1516 19.9568ZM22.2964 18.6811L21.8803 18.9585L21.8822 18.9612L22.2964 18.6811ZM22.2962 18.6809L22.7124 18.4034L22.7047 18.3925L22.2962 18.6809ZM22.2962 18.6808L21.8819 18.961L21.8877 18.9692L22.2962 18.6808ZM20.5377 15.9779L20.9663 15.7204L20.9634 15.7158L20.5377 15.9779ZM16.6463 37.8338L16.1541 37.7458L16.0491 38.3334L16.646 38.3338L16.6463 37.8338ZM19.1273 24.0866L19.1271 23.5866L18.7101 23.5868L18.6354 23.997L19.1273 24.0866ZM47.515 37.8268L47.5159 38.3268L48.1214 38.3258L48.0058 37.7314L47.515 37.8268ZM46.1873 30.8994L46.6785 30.806L46.6782 30.8041L46.1873 30.8994ZM46.1872 30.8988L45.6953 30.9883L45.6964 30.9941L46.1872 30.8988ZM46.1872 30.8988L46.6792 30.8093L46.6784 30.8053L46.1872 30.8988ZM44.8826 24.09L45.3734 23.9947L45.2949 23.5904L44.883 23.59L44.8826 24.09ZM25.4915 27.3603L24.9916 27.3475L24.9914 27.3587L24.9916 27.3698L25.4915 27.3603ZM22.7187 25.4936L22.8417 25.9782L22.8575 25.9742L22.8729 25.9692L22.7187 25.4936ZM25.499 27.7358H25.9991L25.9989 27.7256L25.499 27.7358ZM25.499 27.7358H24.9989L24.9991 27.746L25.499 27.7358ZM25.4656 30.848L25.9616 30.9109L25.9633 30.8977L25.9642 30.8844L25.4656 30.848ZM22.0468 32.097L22.3586 31.7061L22.3492 31.6987L22.3396 31.6917L22.0468 32.097ZM21.1794 29.2262L21.679 29.2472L21.679 29.2472L21.1794 29.2262ZM21.1792 28.1041L21.6771 28.0584L21.6763 28.0497L21.6752 28.041L21.1792 28.1041ZM39.6467 25.69L39.8778 26.1334L39.8932 26.1254L39.9081 26.1163L39.6467 25.69ZM42.8772 27.0268L43.3757 26.9871L43.3738 26.9634L43.3696 26.94L42.8772 27.0268ZM38.5656 28.6439L38.0657 28.6537L38.0657 28.6537L38.5656 28.6439ZM38.5687 28.8058L38.0686 28.8142L38.0691 28.8273L38.5687 28.8058ZM38.571 29.4815L38.071 29.4738L38.071 29.4738L38.571 29.4815ZM39.4363 32.09L39.7484 31.6993L39.7332 31.6872L39.7171 31.6763L39.4363 32.09ZM42.8698 30.9285L43.3603 31.0256L43.365 31.0021L43.3673 30.9782L42.8698 30.9285ZM24.8038 13.8171C24.1536 12.682 22.6119 12.1816 21.3906 12.7123L21.7891 13.6295C22.5541 13.2971 23.5452 13.6318 23.9361 14.3142L24.8038 13.8171ZM28.6937 19.6819C27.3975 17.713 26.097 15.7469 24.7854 13.7875L23.9544 14.3438C25.2641 16.3002 26.5629 18.2639 27.8584 20.2318L28.6937 19.6819ZM31.4811 19.4633C30.4118 19.465 29.3456 19.4667 28.2807 19.4568L28.2714 20.4568C29.3427 20.4667 30.4142 20.465 31.4827 20.4633L31.4811 19.4633ZM35.1198 19.4744C33.9058 19.4594 32.6914 19.4614 31.4811 19.4633L31.4827 20.4633C32.6942 20.4614 33.9016 20.4595 35.1075 20.4743L35.1198 19.4744ZM36.7047 16.7082C36.0451 17.7133 35.3903 18.7108 34.7045 19.6868L35.5227 20.2618C36.2192 19.2706 36.8826 18.2598 37.5407 17.2568L36.7047 16.7082ZM38.8518 13.5204C38.108 14.5698 37.4036 15.6432 36.7047 16.7082L37.5407 17.2568C38.2412 16.1894 38.9359 15.131 39.6676 14.0987L38.8518 13.5204ZM42.9566 13.3373C42.4202 12.7328 41.6167 12.4754 40.8651 12.5056C40.1133 12.5357 39.3331 12.8572 38.855 13.5159L39.6644 14.1032C39.9248 13.7444 40.3887 13.5255 40.9052 13.5048C41.4218 13.484 41.9106 13.6652 42.2086 14.001L42.9566 13.3373ZM43.2446 16.3941C43.8893 15.4369 43.7327 14.1299 42.94 13.3195L42.2251 14.0188C42.7025 14.5068 42.782 15.2908 42.4152 15.8355L43.2446 16.3941ZM41.6633 18.8018C42.2001 18.0065 42.743 17.2023 43.2546 16.3786L42.4051 15.851C41.9052 16.6558 41.373 17.4444 40.8344 18.2423L41.6633 18.8018ZM41.6532 18.8163L41.6532 18.8162L40.8445 18.228L40.8444 18.2281L41.6532 18.8163ZM41.6615 18.8045L41.6618 18.804L40.8358 18.2404L40.8354 18.2409L41.6615 18.8045ZM40.708 20.2309C41.0209 19.7535 41.3408 19.2796 41.6629 18.8024L40.834 18.2429C40.5126 18.7192 40.1889 19.1987 39.8717 19.6827L40.708 20.2309ZM42.952 19.4597C42.064 19.4627 41.1794 19.4657 40.2948 19.4568L40.2848 20.4568C41.1772 20.4657 42.0684 20.4627 42.9554 20.4597L42.952 19.4597ZM42.9537 19.4597H42.9537V20.4597H42.9537V19.4597ZM46.6066 19.478C45.3855 19.4515 44.1655 19.4556 42.952 19.4597L42.9554 20.4597C44.1709 20.4556 45.3784 20.4516 46.5849 20.4777L46.6066 19.478ZM49.3951 21.8764C49.2178 20.5538 47.9998 19.4607 46.5896 19.4779L46.6018 20.4778C47.5029 20.4669 48.2934 21.1843 48.4039 22.0092L49.3951 21.8764ZM50.2178 26.1716C49.9453 24.7304 49.6725 23.2875 49.3902 21.8466L48.4088 22.0389C48.6904 23.476 48.9626 24.9157 49.2352 26.3574L50.2178 26.1716ZM50.218 26.1726L50.2179 26.1722L49.2351 26.3568L49.2352 26.3573L50.218 26.1726ZM51.1806 31.1822C50.8499 29.5152 50.5341 27.8448 50.2179 26.172L49.2353 26.3578C49.5514 28.0298 49.868 29.7046 50.1997 31.3768L51.1806 31.1822ZM51.9946 30.7799C51.5597 30.7797 51.1248 30.7795 50.6902 30.7795V31.7795C51.1246 31.7795 51.5592 31.7797 51.9941 31.7799L51.9946 30.7799ZM51.9953 30.7799H51.9944V31.7799H51.9953V30.7799ZM55.9419 30.776C54.6281 30.7812 53.3119 30.7806 51.9955 30.7799L51.9951 31.7799C53.3111 31.7806 54.6294 31.7812 55.9459 31.776L55.9419 30.776ZM54.3502 27.6674C54.7268 28.9175 55.1024 30.1645 55.4635 31.4147L56.4242 31.1372C56.0613 29.8807 55.684 28.6282 55.3077 27.379L54.3502 27.6674ZM52.7778 22.2969C53.2745 24.0962 53.8133 25.8849 54.3502 27.6674L55.3077 27.379C54.7703 25.5946 54.2349 23.8171 53.7417 22.0307L52.7778 22.2969ZM55.4782 19.2155C54.6459 19.1671 53.8732 19.5445 53.3612 20.1084C52.8486 20.6731 52.5555 21.4751 52.7771 22.2944L53.7424 22.0333C53.628 21.6105 53.7669 21.1493 54.1016 20.7806C54.4369 20.4112 54.9269 20.1851 55.4201 20.2138L55.4782 19.2155ZM58.0433 21.3683C57.8033 20.2021 56.7463 19.2321 55.4559 19.2147L55.4424 20.2146C56.2341 20.2253 56.9125 20.8343 57.0638 21.5699L58.0433 21.3683ZM59.3432 25.7274C58.9046 24.2604 58.4663 22.7944 58.0331 21.3275L57.074 21.6107C57.5078 23.0795 57.9466 24.5472 58.3851 26.0138L59.3432 25.7274ZM61.3713 32.5788C60.7077 30.2914 60.0251 28.0083 59.3432 25.7274L58.3851 26.0138C59.0672 28.2954 59.7487 30.5746 60.4109 32.8574L61.3713 32.5788ZM59.1199 35.8524C60.7479 35.765 61.9193 34.0352 61.3592 32.5425L60.4229 32.8937C60.7343 33.7237 60.0522 34.8009 59.0663 34.8538L59.1199 35.8524ZM54.465 35.8789C56.0059 35.8862 57.5561 35.8936 59.1062 35.8529L59.08 34.8533C57.5479 34.8935 56.0133 34.8863 54.4698 34.8789L54.465 35.8789ZM54.4673 35.8789H54.4674V34.8789H54.4673V35.8789ZM51.4733 35.8777C52.4685 35.8694 53.4647 35.8741 54.4649 35.8789L54.4697 34.8789C53.4706 34.8742 52.4678 34.8694 51.465 34.8777L51.4733 35.8777ZM52.2828 37.0001C52.1688 36.4262 52.0566 35.8615 51.9624 35.2955L50.976 35.4598C51.0732 36.0437 51.1885 36.6237 51.302 37.1949L52.2828 37.0001ZM52.2856 37.0154L52.2856 37.0153L51.2992 37.1797L51.2992 37.1798L52.2856 37.0154ZM52.6951 39.289C52.5839 38.5148 52.4317 37.7496 52.2828 37.0001L51.302 37.195C51.4518 37.9489 51.5985 38.6878 51.7052 39.4312L52.6951 39.289ZM49.8651 42.4247C50.7211 42.4529 51.4999 42.0592 52.0239 41.4789C52.5474 40.8993 52.8519 40.0922 52.6909 39.2646L51.7093 39.4555C51.7995 39.9192 51.6352 40.4174 51.2818 40.8087C50.9289 41.1994 50.423 41.4426 49.8981 41.4252L49.8651 42.4247ZM45.5989 42.4381C47.0253 42.4433 48.4579 42.4486 49.8899 42.4249L49.8733 41.425C48.4531 41.4485 47.0307 41.4433 45.6026 41.4381L45.5989 42.4381ZM45.6007 42.4381H45.6008V41.4381H45.6007V42.4381ZM45.6005 42.4381H45.6007V41.4381H45.6005V42.4381ZM42.8802 42.4355C43.7849 42.4314 44.6905 42.4347 45.5987 42.4381L45.6023 41.4381C44.6949 41.4347 43.7852 41.4314 42.8757 41.4355L42.8802 42.4355ZM45.0491 44.3005C44.4616 43.4209 43.8752 42.5431 43.2958 41.661L42.46 42.21C43.0419 43.0958 43.6304 43.9769 44.2176 44.856L45.0491 44.3005ZM45.0508 44.303L45.0502 44.302L44.2166 44.8545L44.2172 44.8554L45.0508 44.303ZM47.9328 48.684C46.9915 47.2084 46.0191 45.7526 45.0498 44.3015L44.2182 44.8569C45.1885 46.3095 46.1551 47.7566 47.0898 49.2218L47.9328 48.684ZM46.2752 52.4014C47.1138 52.2362 47.749 51.6461 48.0647 50.9486C48.3805 50.2508 48.4 49.3896 47.9282 48.6769L47.0944 49.2289C47.3426 49.6039 47.3548 50.0918 47.1536 50.5363C46.9525 50.9808 46.5613 51.3258 46.0819 51.4203L46.2752 52.4014ZM43.2369 51.1121C43.825 52.1477 45.107 52.7039 46.3035 52.395L46.0536 51.4267C45.2934 51.623 44.4708 51.2599 44.1065 50.6183L43.2369 51.1121ZM41.6192 48.6817C42.1649 49.5019 42.7105 50.3217 43.2552 51.1418L44.0882 50.5886C43.5432 49.7681 42.9974 48.9478 42.4517 48.1277L41.6192 48.6817ZM41.6168 48.678L41.617 48.6783L42.4539 48.1311L42.4537 48.1308L41.6168 48.678ZM37.3429 42.2276C38.7598 44.3846 40.1901 46.534 41.619 48.6814L42.4515 48.1274C41.0223 45.9796 39.5937 43.8326 38.1787 41.6785L37.3429 42.2276ZM29.5548 42.4366C32.2908 42.4329 35.0238 42.4292 37.7564 42.453L37.7651 41.4531C35.0266 41.4292 32.2886 41.4329 29.5535 41.4366L29.5548 42.4366ZM25.6875 42.439C26.9769 42.4401 28.2662 42.4384 29.5548 42.4366L29.5535 41.4366C28.2647 41.4384 26.9765 41.4401 25.6884 41.439L25.6875 42.439ZM24.4415 44.7246C24.9957 43.8877 25.5497 43.0512 26.1045 42.2156L25.2714 41.6624C24.7162 42.4986 24.162 43.3356 23.6078 44.1724L24.4415 44.7246ZM20.0884 51.2604C21.5518 49.088 22.9976 46.9049 24.4415 44.7246L23.6078 44.1724C22.1635 46.3533 20.7198 48.5331 19.259 50.7017L20.0884 51.2604ZM15.6522 51.4169C16.1811 52.1789 17.0923 52.4964 17.9308 52.4613C18.7691 52.4262 19.6498 52.0337 20.1082 51.2284L19.2392 50.7336C18.9926 51.1669 18.4758 51.4376 17.889 51.4621C17.3023 51.4867 16.7607 51.2603 16.4737 50.8467L15.6522 51.4169ZM15.7328 48.3116C15.0648 49.1819 14.9133 50.4959 15.6727 51.4443L16.4533 50.8193C16.0385 50.3013 16.0789 49.503 16.526 48.9205L15.7328 48.3116ZM17.577 45.5321C16.9565 46.4688 16.3366 47.4047 15.7135 48.3386L16.5453 48.8936C17.1695 47.9581 17.7903 47.0208 18.4106 46.0843L17.577 45.5321ZM17.5775 45.5312L17.5766 45.5327L18.411 46.0837L18.412 46.0822L17.5775 45.5312ZM17.5762 45.5332L17.5761 45.5334L18.4135 46.08L18.4136 46.0798L17.5762 45.5332ZM20.1557 41.6567C19.2903 42.9455 18.4337 44.2387 17.5781 45.5304L18.4118 46.0826C19.2676 44.7905 20.1225 43.4999 20.9859 42.2142L20.1557 41.6567ZM18.0199 42.4348C18.8719 42.4303 19.7192 42.4258 20.5651 42.4354L20.5765 41.4355C19.7208 41.4258 18.8653 41.4303 18.0146 41.4348L18.0199 42.4348ZM18.017 42.4348H18.0173V41.4348H18.017V42.4348ZM18.0169 42.4348H18.017V41.4348H18.0169V42.4348ZM14.0743 42.4036C15.3925 42.4487 16.7117 42.4417 18.0196 42.4348L18.0143 41.4348C16.7031 41.4417 15.4036 41.4485 14.1085 41.4042L14.0743 42.4036ZM11.4691 39.6441C11.3991 41.06 12.6345 42.335 14.0676 42.4034L14.1152 41.4045C13.1928 41.3605 12.4272 40.5163 12.4679 39.6936L11.4691 39.6441ZM11.9328 36.7007C11.7481 37.6488 11.5568 38.6278 11.4704 39.6257L12.4667 39.712C12.5477 38.7758 12.7279 37.8488 12.9144 36.892L11.9328 36.7007ZM11.9355 36.6878L11.9355 36.6879L12.9117 36.9048L12.9117 36.9048L11.9355 36.6878ZM12.1953 35.288C12.1168 35.7566 12.0256 36.2248 11.9328 36.7007L12.9144 36.8919C13.0067 36.4183 13.1005 35.9371 13.1816 35.4534L12.1953 35.288ZM9.5176 35.8686C10.576 35.8646 11.6304 35.8607 12.6837 35.8707L12.6932 34.8707C11.6322 34.8607 10.5712 34.8646 9.51388 34.8686L9.5176 35.8686ZM9.51564 35.8686H9.51574V34.8686H9.51564V35.8686ZM4.87513 35.8424C6.4253 35.8801 7.97561 35.8743 9.5175 35.8686L9.51378 34.8686C7.96955 34.8743 6.43325 34.88 4.89942 34.8427L4.87513 35.8424ZM2.61438 32.6002C2.13313 34.0611 3.22579 35.7624 4.863 35.842L4.91155 34.8432C3.9496 34.7964 3.28487 33.7609 3.56417 32.9131L2.61438 32.6002ZM5.27975 22.0217C4.37685 25.5553 3.47248 29.0947 2.60367 32.6375L3.57489 32.8757C4.44235 29.3383 5.34552 25.8037 6.24862 22.2693L5.27975 22.0217ZM5.46244 21.3067L5.27975 22.0217L6.24862 22.2693L6.43132 21.5543L5.46244 21.3067ZM8.22196 19.2337C6.90693 19.1342 5.66857 20.083 5.45394 21.3468L6.43982 21.5142C6.56485 20.778 7.32755 20.1689 8.1465 20.2308L8.22196 19.2337ZM10.6855 22.2449C10.875 21.4761 10.6175 20.7197 10.1503 20.1706C9.68345 19.6217 8.97507 19.2389 8.18843 19.2323L8.18003 20.2322C8.64498 20.2361 9.0885 20.4656 9.38862 20.8185C9.68849 21.171 9.8131 21.6058 9.71459 22.0056L10.6855 22.2449ZM9.35588 27.5995C9.8131 25.82 10.2721 24.0336 10.6872 22.2378L9.7129 22.0126C9.301 23.7946 8.84506 25.5692 8.38734 27.3506L9.35588 27.5995ZM9.35667 27.5963L9.35668 27.5963L8.38654 27.3538L8.38653 27.3538L9.35667 27.5963ZM9.35424 27.6057L9.35426 27.6056L8.38895 27.3445L8.38893 27.3446L9.35424 27.6057ZM8.3931 31.4119C8.70298 30.1406 9.02897 28.8718 9.35586 27.5996L8.38732 27.3507C8.06068 28.622 7.73314 29.8967 7.42155 31.1751L8.3931 31.4119ZM10.6638 30.7917C9.74535 30.7917 8.82637 30.7917 7.90639 30.7935L7.90826 31.7935C8.82715 31.7917 9.74519 31.7917 10.6638 31.7917V30.7917ZM13.4185 30.79C12.4999 30.7917 11.5821 30.7917 10.6638 30.7917V31.7917C11.5819 31.7917 12.5007 31.7917 13.4204 31.79L13.4185 30.79ZM13.6354 27.2708C13.4004 28.5818 13.1656 29.8918 12.9275 31.2005L13.9114 31.3795C14.1497 30.0693 14.3848 28.758 14.6197 27.4473L13.6354 27.2708ZM13.6356 27.2699L13.6354 27.2706L14.6197 27.4475L14.6198 27.4468L13.6356 27.2699ZM13.6352 27.2721L13.6351 27.2723L14.6202 27.4443L14.6203 27.4441L13.6352 27.2721ZM14.6113 21.8767C14.2802 23.6736 13.9577 25.4726 13.6356 27.2699L14.6199 27.4464C14.9421 25.6487 15.2641 23.852 15.5948 22.058L14.6113 21.8767ZM17.381 19.4849C15.9718 19.4849 14.7707 20.5863 14.6069 21.9057L15.5993 22.0289C15.7012 21.208 16.4789 20.4849 17.381 20.4849V19.4849ZM20.7299 19.4618C19.6155 19.4581 18.492 19.4543 17.3673 19.4851L17.3947 20.4847C18.5015 20.4544 19.6096 20.4581 20.7266 20.4618L20.7299 19.4618ZM23.1452 19.4569C22.3421 19.4671 21.5384 19.4645 20.7299 19.4618L20.7266 20.4618C21.5337 20.4645 22.3455 20.4672 23.1579 20.4568L23.1452 19.4569ZM21.8822 18.9612C22.1696 19.3862 22.4548 19.808 22.734 20.2319L23.5691 19.6818C23.286 19.252 22.9974 18.8252 22.7105 18.401L21.8822 18.9612ZM21.8802 18.9582L21.8803 18.9584L22.7124 18.4037L22.7122 18.4035L21.8802 18.9582ZM21.8877 18.9692L21.8877 18.9692L22.7047 18.3925L22.7047 18.3925L21.8877 18.9692ZM20.1091 16.2355C20.6697 17.1684 21.2807 18.0717 21.882 18.9609L22.7104 18.4007C22.1065 17.5078 21.5107 16.6266 20.9662 15.7204L20.1091 16.2355ZM21.4103 12.7042C20.054 13.2259 19.3171 14.9491 20.1119 16.2401L20.9634 15.7158C20.5399 15.0279 20.9178 13.9651 21.7693 13.6376L21.4103 12.7042ZM17.1385 37.9218C17.958 33.3364 18.7849 28.7581 19.6192 24.1762L18.6354 23.997C17.8009 28.5799 16.9738 33.1593 16.1541 37.7458L17.1385 37.9218ZM47.5142 37.3268C37.2252 37.3443 26.9362 37.3408 16.6467 37.3338L16.646 38.3338C26.9356 38.3408 37.2257 38.3443 47.5159 38.3268L47.5142 37.3268ZM45.6962 30.9929C46.1356 33.3027 46.5752 35.6133 47.0242 37.9223L48.0058 37.7314C47.5573 35.4247 47.118 33.1162 46.6785 30.806L45.6962 30.9929ZM45.6964 30.9941L45.6965 30.9947L46.6782 30.8041L46.6781 30.8035L45.6964 30.9941ZM45.6953 30.9882L45.6953 30.9883L46.6792 30.8094L46.6792 30.8093L45.6953 30.9882ZM44.3918 24.1854C44.8325 26.4534 45.2642 28.7225 45.696 30.9922L46.6784 30.8053C46.2466 28.5359 45.8146 26.2649 45.3734 23.9947L44.3918 24.1854ZM19.1275 24.5866C27.7113 24.5831 36.2986 24.5831 44.8822 24.59L44.883 23.59C36.2989 23.5831 27.7111 23.5831 19.1271 23.5866L19.1275 24.5866ZM25.9913 27.373C26.0133 26.5112 25.5183 25.7938 24.8725 25.3665C24.227 24.9395 23.3686 24.7574 22.5646 25.0179L22.8729 25.9692C23.3463 25.8158 23.8908 25.9161 24.3207 26.2005C24.7502 26.4846 25.0029 26.9076 24.9916 27.3475L25.9913 27.373ZM25.9989 27.7256C25.9963 27.6003 25.9938 27.4755 25.9914 27.3507L24.9916 27.3698C24.994 27.4953 24.9965 27.6209 24.9991 27.746L25.9989 27.7256ZM25.999 27.7358V27.7358H24.999V27.7358H25.999ZM25.9642 30.8844C26.042 29.821 26.02 28.7585 25.9989 27.7256L24.9991 27.746C25.0203 28.7868 25.0407 29.8024 24.9669 30.8115L25.9642 30.8844ZM21.7351 32.488C22.4857 33.0866 23.4859 33.1306 24.2953 32.8389C25.1043 32.5475 25.8393 31.8754 25.9616 30.9109L24.9695 30.7851C24.9072 31.2766 24.518 31.6958 23.9564 31.8981C23.3951 32.1004 22.7783 32.0409 22.3586 31.7061L21.7351 32.488ZM20.6798 29.2052C20.6376 30.2107 20.5432 31.6279 21.7541 32.5024L22.3396 31.6917C21.6328 31.1813 21.6316 30.3753 21.679 29.2472L20.6798 29.2052ZM20.6813 28.1499C20.7101 28.4637 20.6964 28.8103 20.6798 29.2052L21.679 29.2472C21.6949 28.8674 21.7132 28.4511 21.6771 28.0584L20.6813 28.1499ZM22.5957 25.0089C21.0711 25.3959 20.5282 26.9486 20.6832 28.1672L21.6752 28.041C21.557 27.1121 21.9887 26.1948 22.8417 25.9782L22.5957 25.0089ZM39.9081 26.1163C40.3458 25.8479 40.9225 25.8339 41.4319 26.0433C41.9419 26.2529 42.3032 26.6508 42.3848 27.1137L43.3696 26.94C43.2149 26.0625 42.559 25.4254 41.812 25.1183C41.0643 24.811 40.1438 24.7988 39.3854 25.2638L39.9081 26.1163ZM39.0655 28.634C39.0547 28.085 39.0475 27.5619 39.1607 27.1064C39.2678 26.675 39.473 26.3443 39.8778 26.1334L39.4157 25.2466C38.6928 25.6233 38.3469 26.2343 38.1902 26.8653C38.0394 27.4722 38.0555 28.1323 38.0657 28.6537L39.0655 28.634ZM39.0686 28.7974C39.0677 28.7432 39.0666 28.6885 39.0655 28.634L38.0657 28.6537C38.0668 28.7084 38.0679 28.7617 38.0687 28.8142L39.0686 28.7974ZM39.0709 29.4891C39.0744 29.2604 39.0782 29.0178 39.0682 28.7843L38.0691 28.8273C38.0777 29.0264 38.0746 29.239 38.071 29.4738L39.0709 29.4891ZM39.7171 31.6763C39.0798 31.2436 39.0552 30.5161 39.0709 29.4891L38.071 29.4738C38.0573 30.3741 38.0011 31.7201 39.1555 32.5037L39.7171 31.6763ZM42.3793 30.8314C42.2821 31.3226 41.8762 31.7276 41.3227 31.9144C40.7701 32.1009 40.1683 32.0348 39.7484 31.6993L39.1242 32.4806C39.8636 33.0714 40.8383 33.1333 41.6425 32.8619C42.4457 32.5908 43.1769 31.952 43.3603 31.0256L42.3793 30.8314ZM42.3788 27.0666C42.4805 28.3402 42.4978 29.6214 42.3723 30.8789L43.3673 30.9782C43.5003 29.6463 43.4807 28.303 43.3757 26.9871L42.3788 27.0666Z" fill="url(#paint1_linear_678_141)"/>
<defs>
<linearGradient id="paint0_linear_678_141" x1="32" y1="51.98" x2="32" y2="13" gradientUnits="userSpaceOnUse">
<stop stop-color="#A93AFF"/>
<stop offset="1" stop-color="#FF81FF"/>
</linearGradient>
<linearGradient id="paint1_linear_678_141" x1="32" y1="51.98" x2="32" y2="13" gradientUnits="userSpaceOnUse">
<stop stop-color="#A93AFF"/>
<stop offset="1" stop-color="#FF81FF"/>
</linearGradient>
</defs>
</svg>
