<svg width="64" height="64" viewBox="0 0 64 64" fill="none" xmlns="http://www.w3.org/2000/svg">
<path d="M8.23572 0.299667C9.34938 0.0313085 10.4988 0 11.6393 0C23.8717 0.0223632 36.1086 -0.0134175 48.341 0.017891C52.3529 0.0491994 56.1725 2.59413 57.8228 6.23933C58.6234 7.9121 58.8649 9.7906 58.8247 11.6289C58.8023 15.5111 58.8381 19.3889 58.8113 23.2711C58.9946 24.9976 57.1251 26.4914 55.4882 25.9234C54.3432 25.6103 53.565 24.4609 53.6276 23.289C53.5829 19.0937 53.6455 14.8984 53.6052 10.703C53.6231 8.4667 52.1203 6.33773 50.0272 5.56843C48.7794 5.0675 47.4108 5.21957 46.1003 5.19721C34.3241 5.21062 22.5479 5.1972 10.7761 5.20615C8.56221 5.17037 6.43775 6.61056 5.6148 8.65903C5.08257 9.88453 5.18097 11.2442 5.16755 12.5457C5.18991 24.3267 5.16308 36.1121 5.18097 47.893C5.04679 50.7465 7.38146 53.4838 10.2618 53.6403C14.7567 53.7656 19.2561 53.5911 23.7465 53.7164C25.1017 53.7522 26.2422 55.0537 26.1393 56.4C26.117 57.697 24.972 58.8823 23.6526 58.8599C19.0816 58.8778 14.5062 58.9046 9.93081 58.842C4.55481 58.5781 -0.0340228 53.6895 0.0107027 48.309C-0.00718754 35.7856 0.00175745 23.2622 0.00623 10.7388C-0.0787484 5.90388 3.52612 1.35074 8.23572 0.299667Z" fill="#3E7BFF"/>
<path d="M16.7873 11.9777C19.198 11.5126 21.6981 11.7586 24.1402 11.772C26.1931 11.9553 26.7477 15.0683 24.9318 15.9986C22.5927 16.9021 19.8957 15.7839 17.5521 16.6337C15.6692 17.6937 16.4697 20.185 16.3132 21.9427C16.4608 23.1593 15.9196 24.5771 14.6136 24.8813C13.2808 25.2928 11.7154 24.2417 11.7333 22.8149C11.7288 20.7083 11.4694 18.5257 12.0643 16.4727C12.7754 14.3169 14.6002 12.5815 16.7873 11.9777Z" fill="#3E7BFF"/>
<path d="M35.0576 11.8256C36.7975 11.6154 38.5641 11.7496 40.3174 11.7362C43.8641 11.7138 47.0441 14.8491 47.0933 18.3915C47.1022 19.9971 47.2185 21.6252 47.0038 23.2264C46.5297 25.0512 43.7925 25.3822 42.8622 23.7586C41.8022 21.576 43.6091 18.4138 41.4221 16.7232C39.3066 15.7168 36.7572 16.9066 34.6059 16.0165C32.9019 15.1399 33.206 12.3176 35.0576 11.8256Z" fill="#3E7BFF"/>
<path d="M12.744 33.2898C14.4302 32.1001 16.7246 33.8444 16.3087 35.7856C16.6217 37.919 15.3694 40.9783 17.6549 42.3067C19.8956 42.9597 22.3153 42.2172 24.5918 42.7182C26.5016 43.3622 26.5061 46.4036 24.5694 47.0253C22.6686 47.3339 20.7186 47.1058 18.7954 47.1684C16.009 47.2489 13.3076 45.4778 12.2565 42.906C11.4112 40.947 11.7824 38.7733 11.693 36.7069C11.693 35.5172 11.5409 33.992 12.744 33.2898Z" fill="#3E7BFF"/>
<path d="M42.2673 29.8817C49.9511 27.7125 58.7308 31.6931 62.1702 38.8851C64.5138 43.5009 64.6077 49.1766 62.443 53.8774C60.7837 57.5271 57.8139 60.555 54.2001 62.2904C49.7633 64.4507 44.3918 64.5715 39.8656 62.608C35.97 60.962 32.7408 57.8178 30.9697 53.9758C28.9257 49.6329 28.8228 44.4401 30.67 40.0122C32.6871 35.0789 37.106 31.2101 42.2673 29.8817ZM44.8838 34.6629C39.9416 35.3472 35.7106 39.386 34.7892 44.2925C33.7605 49.0827 36.0281 54.3291 40.1876 56.9054C44.9643 60.0899 51.9012 59.1283 55.6581 54.7943C59.5224 50.6839 59.8444 43.8408 56.3648 39.395C53.7752 35.875 49.1998 33.9741 44.8838 34.6629Z" fill="#C159EF"/>
</svg>
