<svg width="64" height="64" viewBox="0 0 64 64" fill="none" xmlns="http://www.w3.org/2000/svg">
<g clip-path="url(#clip0_576_25)">
<path d="M0 8.5C0 3.5 5.78272 -0.0253754 9.38594 0.0145353C13.5439 0.00566625 17.7062 -0.016506 21.8685 0.0278392C23.2885 -0.0475477 24.5177 1.31385 24.3668 2.71515C24.3224 4.04108 23.0755 5.13197 21.7576 5.06101C17.6441 5.10536 13.5305 5.01223 9.417 5.09206C7.07846 5.06545 5.41441 7.29601 5.49428 9.50884C4.19855 8.01884 1.33124 9.94122 0 8.5Z" fill="url(#paint0_linear_576_25)"/>
<path d="M39.3428 2.64415C39.254 1.32266 40.3723 0.0189148 41.7257 0.0366529C46.0212 -0.0298649 50.3211 0.0144798 54.6165 0.0144798C58.699 -0.0387345 63.0326 4.04545 64 7.95227C64.3372 11.7172 63.4382 14.5287 63.5137 18.3024C63.0388 18.2359 62.564 18.1694 62.0937 18.1029C62.0182 17.655 61.9428 17.2027 61.8673 16.7548C61.0509 16.1561 60.2388 15.5486 59.4622 14.9012C59.2137 14.2449 58.912 13.6063 58.5126 13.0298C58.3751 11.3402 58.6457 9.61521 58.2908 7.95227C57.8648 6.3381 56.3072 5.11861 54.6343 5.092C50.3521 5.00775 46.07 5.11861 41.7922 5.05209C40.5009 5.0654 39.3694 3.92129 39.3428 2.64415Z" fill="url(#paint1_linear_576_25)"/>
<path d="M0.67454 7.00776C0.794352 6.54657 0.949902 6.09868 1.08747 5.64636C2.41871 7.08758 4.19813 8.01883 5.49386 9.50883C5.62255 15.4023 5.48919 21.3002 5.56462 27.1981C4.73925 26.5773 3.8207 26.0939 2.97315 25.5041C2.04572 24.5507 1.39341 23.3667 0.514792 22.3689C0.585792 17.2515 0.297356 12.1118 0.67454 7.00776Z" fill="url(#paint2_linear_576_25)"/>
<path d="M0.0980205 8.87022C0.164583 8.22721 0.0136015 7.41126 0.674784 7.00772C0.2976 12.1118 0.586036 17.2515 0.515036 22.3689C0.488412 27.6371 0.506268 32.9053 0.50183 38.1735C0.510705 43.4905 0.48408 48.8119 0.510705 54.1289C0.444143 58.6654 4.37574 62.8073 8.91527 62.9625C14.1825 63.0334 19.4498 62.9758 24.7171 62.9802C30.0376 62.9935 35.3581 63.0024 40.6787 62.9758C45.3424 62.9935 50.0062 63.0024 54.6656 62.9847C56.9597 63.0068 59.1385 61.9869 60.8115 60.4614C62.3246 58.8827 63.4074 56.8118 63.4828 54.599C63.5627 51.8895 63.4873 49.18 63.5139 46.4705C63.5139 41.7877 63.5139 37.1048 63.5139 32.4264C63.5139 27.7169 63.5142 23.0119 63.5142 18.3024C63.4387 14.5287 63.6872 10.7416 63.35 6.97668C63.7937 7.35804 63.9976 7.84141 63.9621 8.42677C63.9177 16.4089 63.9532 24.3955 63.9443 32.382C63.789 40.0759 64.1706 47.7743 63.8999 55.4681C63.6337 60.3106 58.9477 64.1997 54.173 63.9913C39.3829 63.9824 24.5928 64.0002 9.80276 63.9957C5.1878 64.1421 0.648267 60.5058 0.13352 55.8628C0.0137086 50.1024 0.027021 44.3375 0.0225835 38.5726C0.266644 33.402 -0.154915 28.2269 0.0669583 23.0518C0.129083 18.3246 0.0447709 13.5974 0.0980205 8.87022Z" fill="url(#paint3_linear_576_25)"/>
<path d="M58.5132 13.0298C58.9126 13.6063 59.2143 14.2449 59.4628 14.9012C60.2394 15.5486 61.0515 16.1561 61.8679 16.7548C61.9434 17.2027 62.0188 17.655 62.0943 18.1029C62.5646 18.1694 63.0394 18.2359 63.5143 18.3024C63.5143 23.0119 63.514 27.7169 63.514 32.4264C61.6191 31.1492 60.2348 29.3089 58.4865 27.8633C58.4731 22.9188 58.4289 17.9743 58.5132 13.0298Z" fill="url(#paint4_linear_576_25)"/>
<path d="M0.515006 22.3689C1.39362 23.3667 2.04593 24.5507 2.97336 25.5041C3.82091 26.0939 4.73946 26.5773 5.56483 27.1981C5.52046 32.484 5.56049 37.77 5.54274 43.0559C3.49706 41.8453 1.90404 40.0626 0.5018 38.1735C0.506238 32.9053 0.488382 27.6371 0.515006 22.3689Z" fill="url(#paint5_linear_576_25)"/>
<path d="M20.7891 57.9559C25.4573 57.9692 30.1255 57.916 34.7981 57.9825C35.9563 59.477 38.0685 59.8406 38.9871 61.57C39.5595 62.0312 40.1237 62.4969 40.6784 62.9758C35.3578 63.0024 30.0373 62.9935 24.7168 62.9802C24.3396 61.8938 23.496 61.1266 22.5552 60.5235C22.4576 60.0756 22.36 59.6277 22.2624 59.1843C21.9739 59.3262 21.6899 59.4681 21.4015 59.6144C21.1974 59.0601 20.9933 58.5058 20.7891 57.9559Z" fill="url(#paint6_linear_576_25)"/>
<path d="M58.486 27.8633C60.2343 29.3089 61.6186 31.1492 63.5135 32.4264C63.5135 37.1048 63.5135 41.7877 63.5135 46.4705C62.728 46.1291 61.8984 45.8541 61.2283 45.3131C60.5006 44.1158 60.3142 42.1424 58.4726 42.2843C58.4726 37.4773 58.4505 32.6703 58.486 27.8633Z" fill="url(#paint7_linear_576_25)"/>
<path d="M0.501366 38.1735C1.90361 40.0626 3.49663 41.8453 5.54231 43.0559C5.56893 46.7366 5.50753 50.4172 5.56965 54.0979C5.58297 56.1333 7.37127 57.9204 9.40363 57.9293C13.1976 57.9958 16.9961 57.9337 20.7901 57.9559C20.9943 58.5058 21.1984 59.0601 21.4025 59.6144C21.6909 59.4681 21.9749 59.3262 22.2634 59.1843C22.361 59.6277 22.4586 60.0756 22.5562 60.5235C23.497 61.1266 24.3394 61.8938 24.7166 62.9802C19.4493 62.9758 14.182 63.0334 8.91481 62.9625C4.37528 62.8073 0.443679 58.6654 0.510241 54.1289C0.483616 48.8119 0.510241 43.4905 0.501366 38.1735Z" fill="url(#paint8_linear_576_25)"/>
<path d="M58.4726 42.2844C60.3142 42.1425 60.5006 44.1158 61.2283 45.3131C61.8984 45.8541 62.728 46.1292 63.5135 46.4706C63.4869 49.1801 63.5623 51.8895 63.4824 54.599C63.407 56.8118 62.3242 58.8827 60.8111 60.4614C59.8615 59.5036 58.9116 58.5413 57.9841 57.5612C57.8688 57.6322 57.6336 57.7786 57.5182 57.854C57.3718 57.6899 57.0834 57.3618 56.9414 57.2021C57.7312 56.3418 58.4501 55.3174 58.4456 54.1023C58.5122 50.1645 58.4416 46.2223 58.4726 42.2844Z" fill="url(#paint9_linear_576_25)"/>
<path d="M54.205 57.9515C55.1768 57.9958 56.0769 57.5923 56.9422 57.202C57.0842 57.3617 57.3726 57.6898 57.519 57.8539C57.6344 57.7785 57.8696 57.6322 57.9849 57.5612C58.9124 58.5413 59.8623 59.5036 60.8119 60.4614C59.1389 61.9869 56.9601 63.0068 54.666 62.9847C50.0066 63.0024 45.3428 62.9935 40.6791 62.9758C40.1244 62.4969 39.5613 62.0312 38.9888 61.5701C38.0703 59.8406 35.957 59.477 34.7988 57.9825C41.2643 57.9116 47.7351 57.9825 54.205 57.9515Z" fill="url(#paint10_linear_576_25)"/>
<path fill-rule="evenodd" clip-rule="evenodd" d="M26.2865 29.0337L25.6994 28.5505C25.2729 28.1996 25.2117 27.5694 25.5626 27.1429L41.016 8.36459C41.367 7.93814 41.9972 7.87693 42.4236 8.22787L48.2168 12.9953C48.6433 13.3462 48.7045 13.9764 48.3535 14.4029L32.9001 33.1812C32.5492 33.6077 31.919 33.6689 31.4926 33.3179L30.8897 32.8218C30.9354 33.0912 30.8888 33.3816 30.7551 33.6338C29.8861 35.2727 29.4625 37.6265 29.2901 38.8508C29.2238 39.3213 28.8511 39.6939 28.3901 39.8086C26.0225 40.3977 22.6314 42.3718 20.2731 43.871C19.9048 44.1051 19.7745 44.5707 19.6565 44.9921L19.652 45.0082C19.6045 45.1778 19.5232 45.3385 19.4103 45.48C19.17 45.78 18.8266 45.9486 18.4716 45.9757C17.9206 46.0177 17.8182 45.3374 18.164 44.9064L19.2048 43.6087L24.7859 36.6399C25.0092 36.3611 25.3751 36.2515 25.7182 36.1522C25.9773 36.0772 26.212 35.9241 26.3865 35.7069C26.8466 35.1324 26.7539 34.2945 26.1795 33.8344C25.605 33.3743 24.767 33.467 24.307 34.0414C24.1331 34.2592 24.0348 34.5219 24.0182 34.7914C23.9961 35.1479 23.969 35.5289 23.7457 35.8077L17.1247 44.075C16.7795 44.5061 16.0937 44.5547 16.014 44.0082C15.9626 43.6555 16.0521 43.2833 16.2925 42.9831C16.4061 42.8417 16.5453 42.727 16.7005 42.6434L16.7167 42.6346C17.1016 42.4272 17.5267 42.1981 17.6745 41.7879C18.6213 39.1605 19.8061 35.4241 19.8649 32.9852C19.8764 32.5084 20.161 32.062 20.6082 31.896C21.771 31.4643 23.9839 30.5445 25.3956 29.3414C25.6467 29.1274 25.9727 29.0155 26.2865 29.0337Z" fill="url(#paint11_linear_576_25)"/>
<rect x="13" y="47" width="38" height="6" rx="3" fill="url(#paint12_linear_576_25)"/>
</g>
<defs>
<linearGradient id="paint0_linear_576_25" x1="32.0002" y1="64.0001" x2="32.0002" y2="5.34058e-05" gradientUnits="userSpaceOnUse">
<stop stop-color="#5570FF"/>
<stop offset="1" stop-color="#4DD3FF"/>
</linearGradient>
<linearGradient id="paint1_linear_576_25" x1="31.9995" y1="64" x2="31.9995" y2="0" gradientUnits="userSpaceOnUse">
<stop stop-color="#5570FF"/>
<stop offset="1" stop-color="#4DD3FF"/>
</linearGradient>
<linearGradient id="paint2_linear_576_25" x1="31.9998" y1="64" x2="31.9998" y2="4.24614e-05" gradientUnits="userSpaceOnUse">
<stop stop-color="#5570FF"/>
<stop offset="1" stop-color="#4DD3FF"/>
</linearGradient>
<linearGradient id="paint3_linear_576_25" x1="32" y1="64" x2="32" y2="3.34798e-06" gradientUnits="userSpaceOnUse">
<stop stop-color="#5570FF"/>
<stop offset="1" stop-color="#4DD3FF"/>
</linearGradient>
<linearGradient id="paint4_linear_576_25" x1="32.0001" y1="64" x2="32.0001" y2="-1.39775e-05" gradientUnits="userSpaceOnUse">
<stop stop-color="#5570FF"/>
<stop offset="1" stop-color="#4DD3FF"/>
</linearGradient>
<linearGradient id="paint5_linear_576_25" x1="32" y1="64" x2="32" y2="-3.8147e-06" gradientUnits="userSpaceOnUse">
<stop stop-color="#5570FF"/>
<stop offset="1" stop-color="#4DD3FF"/>
</linearGradient>
<linearGradient id="paint6_linear_576_25" x1="31.9997" y1="64" x2="31.9997" y2="-1.97572e-05" gradientUnits="userSpaceOnUse">
<stop stop-color="#5570FF"/>
<stop offset="1" stop-color="#4DD3FF"/>
</linearGradient>
<linearGradient id="paint7_linear_576_25" x1="31.9996" y1="64" x2="31.9996" y2="-1.90735e-05" gradientUnits="userSpaceOnUse">
<stop stop-color="#5570FF"/>
<stop offset="1" stop-color="#4DD3FF"/>
</linearGradient>
<linearGradient id="paint8_linear_576_25" x1="31.9995" y1="64" x2="31.9995" y2="-3.8147e-05" gradientUnits="userSpaceOnUse">
<stop stop-color="#5570FF"/>
<stop offset="1" stop-color="#4DD3FF"/>
</linearGradient>
<linearGradient id="paint9_linear_576_25" x1="31.9996" y1="64" x2="31.9996" y2="6.03673e-05" gradientUnits="userSpaceOnUse">
<stop stop-color="#5570FF"/>
<stop offset="1" stop-color="#4DD3FF"/>
</linearGradient>
<linearGradient id="paint10_linear_576_25" x1="32.0004" y1="64" x2="32.0004" y2="3.0935e-05" gradientUnits="userSpaceOnUse">
<stop stop-color="#5570FF"/>
<stop offset="1" stop-color="#4DD3FF"/>
</linearGradient>
<linearGradient id="paint11_linear_576_25" x1="32.2907" y1="45.9776" x2="32.2907" y2="8" gradientUnits="userSpaceOnUse">
<stop stop-color="#FD5900"/>
<stop offset="1" stop-color="#FFDE00"/>
</linearGradient>
<linearGradient id="paint12_linear_576_25" x1="13" y1="50" x2="50" y2="50" gradientUnits="userSpaceOnUse">
<stop stop-color="#5570FF"/>
<stop offset="1" stop-color="#4DD3FF"/>
</linearGradient>
<clipPath id="clip0_576_25">
<rect width="64" height="64" fill="white"/>
</clipPath>
</defs>
</svg>
