<svg width="128" height="128" viewBox="0 0 128 128" fill="none" xmlns="http://www.w3.org/2000/svg">
<path d="M105.652 19.5951C92.7323 19.5951 80.2251 15.8813 69.4748 8.85573L65.9816 6.57246C64.8172 5.80918 63.3007 5.80918 62.1363 6.57246L58.6433 8.85573C47.893 15.8816 35.386 19.5951 22.4661 19.5951C20.5503 19.5951 19 21.1151 19 22.9935V62.0204C19 89.1977 36.669 113.232 62.9624 121.824C63.3178 121.94 63.69 122 64.0591 122C64.4281 122 64.8004 121.94 65.1558 121.824C91.4494 113.232 109.118 89.1977 109.118 62.0204V22.9935C109.118 21.1151 107.568 19.5951 105.652 19.5951ZM102.186 62.0204C102.186 85.8889 86.9136 107.039 64.0591 115.007C41.2048 107.039 25.9322 85.8889 25.9322 62.0204V26.3124C38.9876 25.7018 51.5623 21.6529 62.4884 14.5109L64.0591 13.4855L65.6297 14.5109C76.5561 21.6527 89.1308 25.7018 102.186 26.3124V62.0204ZM56.1114 65.2231C54.7576 63.8956 52.564 63.8956 51.2101 65.2231C49.8562 66.5504 49.8562 68.7012 51.2101 70.0285L58.1424 76.8254C58.8194 77.4893 59.7063 77.8211 60.5929 77.8211C61.4796 77.8211 62.3664 77.4893 63.0433 76.8254L76.9078 63.2319C78.2617 61.9044 78.2617 59.7538 76.9078 58.4262C75.5539 57.0989 73.3603 57.0989 72.0065 58.4262L60.5927 69.6172L56.1114 65.2231ZM32.8643 64.2274C32.8643 81.0931 46.8573 94.8128 64.0591 94.8128C81.2608 94.8128 95.2541 81.0931 95.2541 64.2274C95.2541 47.3616 81.2608 33.6417 64.0591 33.6417C46.8573 33.6417 32.8643 47.3616 32.8643 64.2274ZM88.3218 64.2274C88.3218 77.343 77.4363 88.0162 64.0591 88.0162C50.6821 88.0162 39.7966 77.343 39.7966 64.2274C39.7966 51.1115 50.6821 40.4386 64.0591 40.4386C77.4363 40.4386 88.3218 51.1118 88.3218 64.2274Z" fill="url(#paint0_linear_678_236)" stroke="url(#paint1_linear_678_236)" stroke-width="4"/>
<defs>
<linearGradient id="paint0_linear_678_236" x1="64.0591" y1="6" x2="64.0591" y2="122" gradientUnits="userSpaceOnUse">
<stop stop-color="#BAFA52"/>
<stop offset="1" stop-color="#3F8F5B"/>
</linearGradient>
<linearGradient id="paint1_linear_678_236" x1="64.0591" y1="6" x2="64.0591" y2="122" gradientUnits="userSpaceOnUse">
<stop stop-color="#BAFA52"/>
<stop offset="1" stop-color="#3F8F5B"/>
</linearGradient>
</defs>
</svg>
