<svg width="128" height="128" viewBox="0 0 128 128" fill="none" xmlns="http://www.w3.org/2000/svg">
<path fill-rule="evenodd" clip-rule="evenodd" d="M105.652 19.5951C92.7323 19.5951 80.2251 15.8813 69.4748 8.85573L65.9816 6.57246C64.8172 5.80918 63.3007 5.80918 62.1363 6.57246L58.6433 8.85573C47.893 15.8816 35.386 19.5951 22.4661 19.5951C20.5503 19.5951 19 21.1151 19 22.9935V62.0204C19 89.1976 36.669 113.232 62.9624 121.824C63.3178 121.94 63.69 122 64.0591 122C64.4281 122 64.8004 121.94 65.1558 121.824C91.4494 113.232 109.118 89.1976 109.118 62.0204V22.9935C109.118 21.1151 107.568 19.5951 105.652 19.5951ZM102.186 62.0204C102.186 85.8889 86.9136 107.039 64.0591 115.007C41.2048 107.039 25.9322 85.8889 25.9322 62.0204V26.3124C38.9876 25.7018 51.5623 21.6529 62.4884 14.5109L64.0591 13.4855L65.6297 14.5109C76.5561 21.6527 89.1308 25.7018 102.186 26.3124V62.0204ZM32.8643 64.2274C32.8643 81.0931 46.8573 94.8128 64.0591 94.8128C81.2608 94.8128 95.2541 81.0931 95.2541 64.2274C95.2541 47.3616 81.2608 33.6417 64.0591 33.6417C46.8573 33.6417 32.8643 47.3616 32.8643 64.2274ZM88.3218 64.2274C88.3218 77.343 77.4363 88.0162 64.0591 88.0162C50.6821 88.0162 39.7966 77.343 39.7966 64.2274C39.7966 51.1115 50.6821 40.4386 64.0591 40.4386C77.4363 40.4386 88.3218 51.1118 88.3218 64.2274ZM60.3625 60.3964C60.3625 59.2918 61.258 58.3964 62.3625 58.3964H65.778C66.8826 58.3964 67.778 59.2918 67.778 60.3964V76.7889C67.778 77.8934 66.8826 78.7888 65.778 78.7888H62.3625C61.258 78.7888 60.3625 77.8934 60.3625 76.7888V60.3964ZM67.5201 51.2793C67.7013 50.8197 67.7889 50.3287 67.7778 49.8351C67.7558 48.8662 67.3556 47.9447 66.6626 47.2674C65.9696 46.5901 65.0391 46.2109 64.0702 46.2112C63.101 46.2114 62.1707 46.591 61.4782 47.2686C60.7854 47.9463 60.3857 48.8681 60.3642 49.837C60.3533 50.3308 60.4411 50.8216 60.6225 51.281C60.8039 51.7403 61.0754 52.1588 61.4209 52.5119C61.7661 52.8648 62.1786 53.1453 62.6338 53.3368C63.0892 53.5282 63.578 53.6266 64.072 53.6266C64.5658 53.6264 65.0548 53.5277 65.51 53.3359C65.965 53.1443 66.3774 52.8636 66.7227 52.5105C67.0677 52.1572 67.339 51.7387 67.5201 51.2793Z" fill="url(#paint0_linear_678_234)" stroke="url(#paint1_linear_678_234)" stroke-width="3"/>
<defs>
<linearGradient id="paint0_linear_678_234" x1="64.0591" y1="122" x2="64.0591" y2="6" gradientUnits="userSpaceOnUse">
<stop stop-color="#FFA800"/>
<stop offset="1" stop-color="#FFF737"/>
</linearGradient>
<linearGradient id="paint1_linear_678_234" x1="64.0591" y1="122" x2="64.0591" y2="6" gradientUnits="userSpaceOnUse">
<stop stop-color="#FFA800"/>
<stop offset="1" stop-color="#FFF737"/>
</linearGradient>
</defs>
</svg>
