<svg width="64" height="64" viewBox="0 0 64 64" fill="none" xmlns="http://www.w3.org/2000/svg">
<path d="M27.0936 0.375952C34.091 -0.715584 41.4389 0.586147 47.61 4.06726C53.5562 7.37875 58.3921 12.6447 61.1807 18.8546C64.3603 25.8427 64.8657 33.9886 62.6193 41.327C60.4171 48.6285 55.4817 55.0487 49.0228 59.0903C43.8771 62.3502 37.7797 64.0575 31.6934 63.9985C24.0652 63.9358 16.4886 61.0521 10.8007 55.9632C5.83938 51.5934 2.28349 45.6489 0.815398 39.1993C-0.833443 32.0674 0.0297082 24.375 3.30157 17.8184C7.7907 8.61042 16.946 1.86206 27.0936 0.375952ZM27.1083 4.81954C18.4916 6.2909 10.8302 12.1874 7.08247 20.0605C3.54502 27.3767 3.49707 36.2787 6.9423 43.6391C9.32519 48.7649 13.3385 53.1127 18.2334 55.9374C23.0323 58.7178 28.6908 59.9532 34.2164 59.5033C39.8822 59.0755 45.3858 56.815 49.72 53.1495C54.2091 49.3992 57.4773 44.2034 58.831 38.5097C60.2585 32.6021 59.7015 26.2151 57.1859 20.6726C54.6517 15.0121 50.1368 10.2772 44.6259 7.44144C39.2884 4.67203 33.025 3.75013 27.1083 4.81954Z" fill="url(#paint0_linear)"/>
<path d="M31.8557 12.0842C37.3665 11.767 42.8442 14.459 46.1936 18.792C46.5182 19.3488 45.88 19.8872 45.6919 20.385C44.091 22.9405 42.8147 25.7062 41.0515 28.1511C37.9826 22.8004 34.8066 17.505 31.8557 12.0842Z" fill="url(#paint1_linear)"/>
<path d="M14.0578 21.554C16.4518 16.5905 21.5274 13.2495 26.9165 12.4603C27.4735 12.405 27.658 13.0467 27.9383 13.397C29.4949 16.1295 31.0995 18.8362 32.6193 21.5909C26.4333 21.6462 20.24 21.7163 14.0578 21.554Z" fill="url(#paint2_linear)"/>
<path d="M40.1663 37.8975C43.2206 32.5136 46.367 27.1849 49.4618 21.8305C52.7743 26.4068 53.0251 32.6869 50.9041 37.8237C49.5872 38.3806 48.1745 37.9417 46.8023 38.0118C44.5927 38.1261 42.3611 38.2699 40.1663 37.8975Z" fill="url(#paint3_linear)"/>
<path d="M13.0729 25.6767C13.3053 25.2305 13.9102 25.3854 14.3123 25.3301C17.4256 25.3559 20.5351 25.319 23.6484 25.3559C21.9479 28.9144 19.7494 32.2186 17.8498 35.6775C16.6731 37.5767 15.7435 39.6417 14.3787 41.4192C11.3982 36.7875 10.8855 30.7324 13.0729 25.6767Z" fill="url(#paint4_linear)"/>
<path d="M18.2002 43.0122C19.7199 40.6189 20.8892 37.986 22.6082 35.7328C25.6882 41.1057 28.8937 46.4159 31.8668 51.8441C26.4813 52.2681 21.1032 49.5872 17.6948 45.494C16.8649 44.7011 17.8387 43.7756 18.2002 43.0122Z" fill="url(#paint5_linear)"/>
<path d="M31.3687 42.1124C37.5436 42.1013 43.7221 42.0903 49.9007 42.1234C47.6174 47.2898 42.2688 50.6566 36.7874 51.4052C36.0312 50.7746 35.6918 49.8085 35.1791 48.9935C33.925 46.6887 32.4679 44.4946 31.3687 42.1124Z" fill="url(#paint6_linear)"/>
<defs>
<linearGradient id="paint0_linear" x1="31.9999" y1="0" x2="31.9999" y2="64" gradientUnits="userSpaceOnUse">
<stop stop-color="#00FFE0"/>
<stop offset="1" stop-color="#078AA7"/>
</linearGradient>
<linearGradient id="paint1_linear" x1="39.0699" y1="12.0589" x2="39.0699" y2="28.1511" gradientUnits="userSpaceOnUse">
<stop stop-color="#00FFE0"/>
<stop offset="1" stop-color="#078AA7"/>
</linearGradient>
<linearGradient id="paint2_linear" x1="23.3385" y1="12.457" x2="23.3385" y2="21.6545" gradientUnits="userSpaceOnUse">
<stop stop-color="#00FFE0"/>
<stop offset="1" stop-color="#078AA7"/>
</linearGradient>
<linearGradient id="paint3_linear" x1="46.2183" y1="21.8305" x2="46.2183" y2="38.1373" gradientUnits="userSpaceOnUse">
<stop stop-color="#00FFE0"/>
<stop offset="1" stop-color="#078AA7"/>
</linearGradient>
<linearGradient id="paint4_linear" x1="17.6882" y1="25.3301" x2="17.6882" y2="41.4192" gradientUnits="userSpaceOnUse">
<stop stop-color="#00FFE0"/>
<stop offset="1" stop-color="#078AA7"/>
</linearGradient>
<linearGradient id="paint5_linear" x1="24.6178" y1="35.7328" x2="24.6178" y2="51.8881" gradientUnits="userSpaceOnUse">
<stop stop-color="#00FFE0"/>
<stop offset="1" stop-color="#078AA7"/>
</linearGradient>
<linearGradient id="paint6_linear" x1="40.6347" y1="42.1013" x2="40.6347" y2="51.4052" gradientUnits="userSpaceOnUse">
<stop stop-color="#00FFE0"/>
<stop offset="1" stop-color="#078AA7"/>
</linearGradient>
</defs>
</svg>
