<svg width="64" height="64" viewBox="0 0 64 64" fill="none" xmlns="http://www.w3.org/2000/svg">
<path fill-rule="evenodd" clip-rule="evenodd" d="M16.0046 7.83706C22.3429 3.58665 30.3955 2.01291 37.8521 3.61355C37.439 4.38336 36.8055 4.95609 36.1696 5.53091C35.625 6.02323 35.0787 6.51709 34.6678 7.13763C29.612 6.61642 24.3887 7.62521 19.9322 10.0968C15.2178 12.6894 11.3941 16.8625 9.19091 21.7854C7.25562 26.0796 6.60605 30.9353 7.29915 35.5959L7.29797 35.5972C7.54911 37.2781 7.95745 38.9387 8.56332 40.5255C8.95842 41.5949 9.42055 42.6406 9.95292 43.6494C9.9306 43.6499 9.90767 43.649 9.88425 43.647C9.9082 43.6491 9.93164 43.65 9.95445 43.6495C10.0239 43.7724 10.0938 43.8953 10.1637 44.0183C10.9396 45.3825 11.7224 46.7589 12.0572 48.3136C12.6331 51.3568 11.7123 54.474 9.92432 56.9489L9.92443 56.949L10.9483 56.9356C13.7474 56.9289 16.5465 56.9301 19.3456 56.9313C23.6278 56.9332 27.91 56.9351 32.1923 56.9087C32.1925 56.9086 32.1927 56.9086 32.1929 56.9086C34.8982 56.8212 37.5833 56.2933 40.1345 55.3854C40.1345 55.3854 40.1345 55.3853 40.1346 55.3853C45.8835 53.3071 50.8859 49.1441 53.8591 43.7706C56.2464 39.5302 57.2945 34.5468 56.8256 29.6978L56.8279 29.6952C56.4928 26.1518 55.4047 22.6824 53.6406 19.5962C54.2986 18.9158 54.8425 18.1463 55.3865 17.3766L55.3865 17.3766L55.3866 17.3765L55.3866 17.3764L55.3867 17.3764L55.3867 17.3763L55.3868 17.3763L55.3868 17.3762L55.3868 17.3761L55.3869 17.3761L55.3869 17.376L55.387 17.376L55.387 17.3759L55.3871 17.3758L55.3871 17.3758L55.3872 17.3757C55.6817 16.9589 55.9763 16.5421 56.2891 16.1394C57.893 18.6177 59.1217 21.3313 59.932 24.1694C60.0258 24.5293 60.1128 24.8891 60.1966 25.2523L60.1946 25.2546C62.2796 33.6001 60.2472 42.8027 54.8937 49.5107C50.4406 55.2237 43.8548 59.195 36.7466 60.4864C36.7466 60.4864 36.7466 60.4864 36.7465 60.4865C34.0201 61.0256 31.2327 61.0087 28.466 60.992L28.2756 60.9909C28.2756 60.9909 28.2756 60.9909 28.2756 60.9909C24.6462 60.9931 21.0183 60.9924 17.39 60.9917C15.5756 60.9913 13.7611 60.9909 11.9462 60.9909L11.9462 60.9909C11.218 60.9813 10.4894 60.9871 9.76067 60.9929H9.76053H9.76039H9.76026H9.76012H9.75998H9.75984H9.7597H9.75956H9.75942H9.75928H9.75915H9.75901H9.75887H9.75873H9.75859H9.75845C8.44076 61.0033 7.12266 61.0138 5.80595 60.9337C4.67758 60.6176 4.01798 59.2322 4.52022 58.1629C4.98309 57.2989 5.48782 56.4585 5.99232 55.6186C6.54613 54.6965 7.09967 53.7749 7.59727 52.8229C8.58501 50.7852 8.13635 48.3405 6.88075 46.528C7.32539 46.0256 7.7053 45.4748 8.08517 44.924C8.36894 44.5126 8.65269 44.1012 8.96337 43.7101C9.06425 43.5676 9.20535 43.5393 9.35879 43.5521C9.20476 43.539 9.06306 43.567 8.96184 43.7099C8.65117 44.101 8.36743 44.5124 8.08367 44.9239L8.08364 44.9239C7.70377 45.4747 7.32386 46.0255 6.87922 46.5278C5.66402 44.3862 4.58939 42.0765 4.08035 39.6726L4.02455 39.7287C2.48099 34.1399 2.69193 28.0871 4.58705 22.6059C6.61275 16.5867 10.7077 11.3073 16.0046 7.83706ZM37.8522 3.61363C40.2061 4.0945 42.4962 4.86791 44.6591 5.91034L44.6591 5.91041C47.0361 7.05368 49.2424 8.53319 51.2244 10.2749C50.2836 11.2333 49.3226 12.1748 48.3315 13.0861C46.5335 11.5258 44.5146 10.221 42.3516 9.23242L42.3516 9.23235C39.9243 8.12621 37.3196 7.41007 34.668 7.13771C35.0789 6.51718 35.6252 6.02332 36.1698 5.531C36.8057 4.95617 37.4392 4.38345 37.8522 3.61363ZM51.2249 10.2753C53.1569 11.9969 54.8544 13.9809 56.2875 16.1397C55.9748 16.5423 55.6803 16.9591 55.3858 17.3758L55.3857 17.3759L55.3857 17.3759L55.3856 17.376L55.3856 17.376L55.3855 17.3761L55.3855 17.3762L55.3854 17.3762L55.3854 17.3763L55.3853 17.3763L55.3853 17.3764L55.3853 17.3765L55.3852 17.3765L55.3852 17.3766L55.3851 17.3766L55.3851 17.3767L55.385 17.3768L55.385 17.3768L55.3849 17.3769L55.3849 17.377C54.8409 18.1466 54.297 18.9162 53.639 19.5966C53.0665 18.5944 52.4203 17.6394 51.7272 16.7214C50.7429 15.3797 49.5709 14.186 48.332 13.0864C49.3231 12.1752 50.2841 11.2336 51.2249 10.2753ZM30.0908 16.8525C29.8396 15.642 28.4065 15.6353 27.4992 16.0589C26.7525 16.2238 26.277 17.1216 26.5817 17.8311C27.0137 19.0417 27.4724 20.2455 27.9579 21.4359C28.5171 22.6061 30.5595 22.2093 30.5561 20.8878C30.5052 19.9104 30.3715 18.9348 30.2381 17.961C30.1874 17.5913 30.1368 17.2218 30.0908 16.8525ZM33.4962 18.8432C33.5497 18.589 33.5716 18.2971 33.5942 17.9964C33.6638 17.0719 33.7396 16.0639 34.7552 15.8101C35.7296 15.7596 37.166 16.0253 37.3635 17.2056C37.1783 18.1107 36.8377 18.9698 36.4969 19.8295C36.3325 20.2442 36.168 20.6591 36.0209 21.0794C35.8032 21.9874 34.6716 22.3807 33.9048 21.8965C33.1142 21.3799 33.2605 20.4854 33.3974 19.6477C33.4432 19.3678 33.4879 19.0942 33.4962 18.8432ZM23.3777 19.5492C22.1355 17.7838 19.0451 20.5849 20.7058 21.9973C21.1378 22.3486 21.5525 22.7214 21.9671 23.0943L21.9671 23.0943L21.9672 23.0944C22.5487 23.6173 23.1301 24.1401 23.7594 24.6033C24.7973 25.074 25.9659 23.9644 25.6612 22.8985C25.158 22.0412 24.5766 21.2297 23.996 20.4194L23.996 20.4194L23.996 20.4193L23.996 20.4193L23.9959 20.4192L23.9959 20.4192L23.9959 20.4192L23.9958 20.4191L23.9958 20.4191L23.9958 20.419L23.9958 20.419L23.9957 20.4189L23.9957 20.4189L23.9957 20.4188L23.9956 20.4188C23.7884 20.1295 23.5812 19.8403 23.3777 19.5492ZM17.1397 25.0775C17.8436 24.4756 18.6423 24.9188 19.3485 25.3108C19.5023 25.3962 19.6518 25.4791 19.7949 25.5483C20.0882 25.7159 20.3906 25.8677 20.6929 26.0194L20.6929 26.0194C21.1911 26.2695 21.689 26.5194 22.1454 26.8396C23.1097 27.6634 22.3195 29.4927 21.0371 29.227C19.6978 28.9614 18.3519 28.652 17.0561 28.2452C15.7971 27.613 16.3964 25.8846 17.1397 25.0775ZM43.1757 21.9333C44.5718 20.669 42.3687 18.3992 40.9423 19.0851C40.2597 19.6845 39.7601 20.465 39.2609 21.2448C38.9815 21.6813 38.7022 22.1175 38.391 22.5218C37.5807 23.571 38.9301 25.222 40.0986 24.5865C40.811 24.1095 41.4388 23.5219 42.0671 22.934C42.4309 22.5934 42.795 22.2527 43.1757 21.9333ZM41.8881 26.6882C43.0601 26.0157 44.2621 25.3936 45.4708 24.7916C47.0813 24.3679 48.1193 26.8665 47.1918 27.9996C46.2043 28.4557 45.1271 28.6867 44.0568 28.9162L44.0566 28.9162L44.0566 28.9162L44.0565 28.9162L44.0565 28.9162L44.0564 28.9162L44.0564 28.9162L44.0564 28.9163L44.0563 28.9163L44.0563 28.9163L44.0563 28.9163L44.0562 28.9163C43.6352 29.0066 43.2153 29.0966 42.8022 29.2001C41.4663 29.4288 40.7163 27.3708 41.8881 26.6882ZM16.6512 31.9541C14.7929 32.324 15.3655 36.0128 17.3343 35.5488C17.7048 35.4567 18.0778 35.3706 18.4511 35.2845C19.4673 35.05 20.4856 34.815 21.4627 34.4559C22.2462 33.6556 21.9382 32.0616 20.7227 31.9473C19.3633 31.9238 18.0072 31.9137 16.6512 31.9541ZM42.2979 34.2645C41.6115 33.5247 42.0568 32.1359 43.0948 32.0855C43.509 32.0855 43.9244 32.0779 44.3399 32.0704H44.34H44.3401H44.3402H44.3402H44.3403H44.3404H44.3405C45.3959 32.0513 46.4529 32.0322 47.4978 32.136C48.4788 32.4553 48.4218 33.6592 48.1741 34.4663C48.0536 35.3977 46.9721 35.7743 46.1785 35.4314C45.7346 35.2932 45.274 35.1959 44.813 35.0986L44.8129 35.0986C43.9386 34.9139 43.063 34.729 42.2979 34.2645ZM21.9081 37.2068C22.6447 36.8066 23.5587 37.3009 23.8233 38.0508C23.9572 38.6326 23.7563 39.2445 23.2809 39.6077C22.949 39.8944 22.6247 40.1907 22.3005 40.4871L22.3004 40.4871C21.6663 41.0666 21.0323 41.646 20.3411 42.1533C19.5576 42.4962 18.7975 41.9717 18.4125 41.3093C17.5653 40.5022 17.8634 39.0563 19.0018 38.72C19.4117 38.5121 19.8175 38.2952 20.2231 38.0783C20.7816 37.7798 21.3398 37.4814 21.9081 37.2068ZM41.7786 37.1125C40.6838 36.7527 39.6324 38.054 40.1246 39.0695C41.1726 40.1692 42.3378 41.1679 43.5231 42.1128C44.9059 42.6844 46.0711 40.9089 45.9539 39.6883C45.7279 39.1277 45.2018 38.8616 44.6956 38.6054C44.5944 38.5542 44.494 38.5035 44.397 38.4508C44.0445 38.2772 43.6984 38.0911 43.3525 37.9052L43.3524 37.9051L43.3523 37.9051C42.8343 37.6266 42.3167 37.3484 41.7786 37.1125ZM26.0922 40.8147C27.1603 40.3574 28.3992 41.568 27.8936 42.6474C27.7611 42.9957 27.6342 43.3474 27.5072 43.6994L27.5071 43.6994C27.1718 44.6285 26.8355 45.5602 26.3935 46.4405C25.5632 47.3821 24.2641 46.6456 23.514 45.9866C22.7457 45.1307 23.4159 44.2209 23.9877 43.445C24.101 43.2911 24.2106 43.1424 24.3042 43.0005C24.508 42.7558 24.6808 42.4769 24.8539 42.1976C25.1898 41.6556 25.5265 41.1121 26.0922 40.8147ZM38.1374 40.9998C37.1965 40.2196 35.6061 41.1847 35.9242 42.3919C36.14 43.0298 36.3802 43.6576 36.6204 44.2855L36.6204 44.2855L36.6204 44.2855L36.6205 44.2859C36.8424 44.8659 37.0643 45.4459 37.2668 46.0337C38.1474 47.8361 41.3651 46.2354 40.6118 44.4397C40.2497 43.9671 39.9166 43.4725 39.5839 42.9783L39.5839 42.9783L39.5839 42.9783C39.126 42.2982 38.6687 41.6191 38.1374 40.9998ZM30.636 42.95C30.9942 41.7798 32.8491 41.763 33.2475 42.913C33.4187 43.6754 33.4978 44.4528 33.5768 45.23C33.6432 45.8821 33.7095 46.5341 33.8302 47.1769C33.5221 48.8885 30.4015 48.9187 30.127 47.1836C30.2475 45.7679 30.4049 44.3488 30.636 42.95Z" fill="url(#paint0_linear_678_171)"/>
<path d="M37.8521 3.61355L38.7333 4.08633L39.3618 2.91484L38.0619 2.63582L37.8521 3.61355ZM16.0046 7.83706L16.5527 8.67358L16.5616 8.6676L16.0046 7.83706ZM36.1696 5.53091L35.499 4.7891L35.499 4.7891L36.1696 5.53091ZM34.6678 7.13763L34.5653 8.13236L35.1674 8.19443L35.5016 7.68975L34.6678 7.13763ZM19.9322 10.0968L20.4141 10.973L20.4172 10.9713L19.9322 10.0968ZM9.19091 21.7854L10.1026 22.1963L10.1037 22.1939L9.19091 21.7854ZM7.29915 35.5959L8.03589 36.2721L8.35844 35.9206L8.28827 35.4488L7.29915 35.5959ZM7.29797 35.5972L6.56123 34.921L6.2384 35.2728L6.30895 35.745L7.29797 35.5972ZM8.56332 40.5255L9.5014 40.1789L9.49754 40.1688L8.56332 40.5255ZM9.95292 43.6494L9.97394 44.6492L11.5933 44.6152L10.8373 43.1827L9.95292 43.6494ZM9.88425 43.647L9.96831 42.6505L9.79841 44.6433L9.88425 43.647ZM9.95445 43.6495L10.8249 43.1574L10.5308 42.6372L9.93337 42.6498L9.95445 43.6495ZM10.1637 44.0183L11.033 43.5239L11.033 43.5239L10.1637 44.0183ZM12.0572 48.3136L13.0397 48.1276L13.0374 48.1153L13.0348 48.103L12.0572 48.3136ZM9.92432 56.9489L9.11372 56.3633L8.34953 57.4211L9.56966 57.8839L9.92432 56.9489ZM9.92443 56.949L9.56977 57.884L9.74748 57.9514L9.93752 57.9489L9.92443 56.949ZM10.9483 56.9356L10.9459 55.9355L10.9352 55.9356L10.9483 56.9356ZM19.3456 56.9313L19.3452 57.9313L19.3452 57.9313L19.3456 56.9313ZM32.1923 56.9087L32.1985 57.9086L32.2704 57.9082L32.3415 57.8975L32.1923 56.9087ZM32.1929 56.9086L32.1606 55.9091L32.1018 55.911L32.0436 55.9198L32.1929 56.9086ZM40.1345 55.3854L40.4698 56.3276L40.8638 56.1873L41.0407 55.8083L40.1345 55.3854ZM40.1346 55.3853L39.7946 54.4448L39.404 54.586L39.2284 54.9624L40.1346 55.3853ZM53.8591 43.7706L52.9877 43.28L52.9841 43.2864L53.8591 43.7706ZM56.8256 29.6978L56.0768 29.0351L55.7884 29.3609L55.8303 29.7941L56.8256 29.6978ZM56.8279 29.6952L57.5768 30.3579L57.8643 30.033L57.8235 29.6011L56.8279 29.6952ZM53.6406 19.5962L52.9218 18.9011L52.3999 19.4407L52.7725 20.0925L53.6406 19.5962ZM55.3865 17.3766L54.5865 16.7766L54.578 16.7879L54.5698 16.7995L55.3865 17.3766ZM55.3865 17.3766L54.5911 16.7705L54.5865 16.7766L55.3865 17.3766ZM55.3872 17.3757L56.1826 17.9818L56.1935 17.9675L56.2038 17.9529L55.3872 17.3757ZM56.2891 16.1394L57.1286 15.5961L56.3634 14.4136L55.4993 15.526L56.2891 16.1394ZM59.932 24.1694L60.8998 23.9174L60.8968 23.9061L60.8936 23.8949L59.932 24.1694ZM60.1966 25.2523L60.9554 25.9036L61.2846 25.52L61.171 25.0275L60.1966 25.2523ZM60.1946 25.2546L59.4358 24.6033L59.0991 24.9955L59.2244 25.497L60.1946 25.2546ZM54.8937 49.5107L54.112 48.8869L54.105 48.8959L54.8937 49.5107ZM36.7466 60.4864L36.5678 59.5025L36.0758 59.5919L35.8522 60.0392L36.7466 60.4864ZM36.7465 60.4865L36.9405 61.4675L37.4216 61.3723L37.641 60.9337L36.7465 60.4865ZM28.466 60.992L28.472 59.992L28.472 59.992L28.466 60.992ZM28.2756 60.9909L28.2817 59.9909L27.7632 59.9878L27.4619 60.4096L28.2756 60.9909ZM28.2756 60.9909L28.2762 61.9909L28.7904 61.9906L29.0893 61.5722L28.2756 60.9909ZM17.39 60.9917L17.3902 59.9917L17.3902 59.9917L17.39 60.9917ZM11.9462 60.9909L11.0846 60.4833L10.1962 61.9909H11.9462V60.9909ZM11.9462 60.9909L12.8077 61.4986L13.6828 60.0137L11.9594 59.991L11.9462 60.9909ZM9.76067 60.9929L9.76067 61.9929L9.76861 61.9928L9.76067 60.9929ZM9.75845 60.9929L9.75845 59.9928L9.75052 59.9929L9.75845 60.9929ZM5.80595 60.9337L5.53622 61.8966L5.63885 61.9254L5.74524 61.9318L5.80595 60.9337ZM4.52022 58.1629L3.63874 57.6907L3.62629 57.7139L3.61508 57.7378L4.52022 58.1629ZM5.99232 55.6186L6.84957 56.1335L6.84957 56.1335L5.99232 55.6186ZM7.59727 52.8229L8.4835 53.2862L8.49052 53.2727L8.49713 53.2591L7.59727 52.8229ZM6.88075 46.528L6.13195 45.8652L5.61201 46.4526L6.05872 47.0974L6.88075 46.528ZM8.08517 44.924L7.26198 44.3563L7.26198 44.3563L8.08517 44.924ZM8.96337 43.7101L9.74639 44.332L9.76351 44.3105L9.77941 44.2881L8.96337 43.7101ZM9.35879 43.5521L9.27596 44.5487L9.44331 42.5557L9.35879 43.5521ZM8.96184 43.7099L9.74487 44.3319L9.76198 44.3104L9.77788 44.2879L8.96184 43.7099ZM8.08367 44.9239L8.89569 45.5075L8.90135 45.4996L8.90687 45.4916L8.08367 44.9239ZM8.08364 44.9239L7.27162 44.3403L7.26596 44.3482L7.26044 44.3561L8.08364 44.9239ZM6.87922 46.5278L6.00948 47.0214L6.70028 48.2388L7.62803 47.1906L6.87922 46.5278ZM4.08035 39.6726L5.05865 39.4655L4.67559 37.6565L3.37145 38.9673L4.08035 39.6726ZM4.02455 39.7287L3.06063 39.9949L3.51902 41.6546L4.73344 40.434L4.02455 39.7287ZM4.58705 22.6059L5.53219 22.9327L5.53482 22.9249L4.58705 22.6059ZM44.6591 5.91034L45.4251 6.55324L46.2521 5.56797L45.0933 5.0095L44.6591 5.91034ZM37.8522 3.61363L38.0524 2.63387L37.323 2.48487L36.971 3.14086L37.8522 3.61363ZM44.6591 5.91041L43.8931 5.26751L43.0655 6.2536L44.2257 6.8116L44.6591 5.91041ZM51.2244 10.2749L51.938 10.9755L52.6784 10.2213L51.8845 9.52373L51.2244 10.2749ZM48.3315 13.0861L47.6761 13.8414L48.3508 14.4268L49.0084 13.8222L48.3315 13.0861ZM42.3516 9.23242L41.4833 8.73628L40.9402 9.68683L41.9359 10.1419L42.3516 9.23242ZM42.3516 9.23235L43.2198 9.72849L43.7636 8.77688L42.7663 8.32238L42.3516 9.23235ZM34.668 7.13771L33.8342 6.58559L32.9217 7.96361L34.5658 8.13248L34.668 7.13771ZM36.1698 5.531L36.8404 6.27281L36.8404 6.27281L36.1698 5.531ZM56.2875 16.1397L57.0773 16.7531L57.5182 16.1855L57.1206 15.5866L56.2875 16.1397ZM51.2249 10.2753L51.8902 9.52869L51.1789 8.89474L50.5113 9.57469L51.2249 10.2753ZM55.3858 17.3758L56.1812 17.9818L56.1921 17.9676L56.2024 17.9529L55.3858 17.3758ZM55.3849 17.3769L54.5895 16.7708L54.5849 16.7769L55.3849 17.3769ZM55.3849 17.377L54.5849 16.777L54.5764 16.7883L54.5682 16.7998L55.3849 17.377ZM53.639 19.5966L52.7707 20.0926L53.4317 21.2495L54.3579 20.2917L53.639 19.5966ZM51.7272 16.7214L50.9208 17.313L50.9291 17.324L51.7272 16.7214ZM48.332 13.0864L47.6552 12.3503L46.8403 13.0996L47.6682 13.8344L48.332 13.0864ZM27.4992 16.0589L27.7148 17.0354L27.8224 17.0117L27.9223 16.965L27.4992 16.0589ZM30.0908 16.8525L31.0831 16.7288L31.0781 16.6888L31.0699 16.6494L30.0908 16.8525ZM26.5817 17.8311L27.5236 17.4951L27.513 17.4655L27.5006 17.4365L26.5817 17.8311ZM27.9579 21.4359L27.032 21.8136L27.043 21.8407L27.0556 21.8671L27.9579 21.4359ZM30.5561 20.8878L31.5561 20.8852L31.5561 20.8605L31.5548 20.8357L30.5561 20.8878ZM30.2381 17.961L31.2288 17.8253L31.2288 17.8253L30.2381 17.961ZM33.5942 17.9964L34.5914 18.0714L34.5914 18.0714L33.5942 17.9964ZM33.4962 18.8432L32.5176 18.6375L32.4997 18.7228L32.4968 18.8098L33.4962 18.8432ZM34.7552 15.8101L34.7035 14.8115L34.6068 14.8165L34.5128 14.8399L34.7552 15.8101ZM37.3635 17.2056L38.3432 17.4061L38.3805 17.2239L38.3498 17.0405L37.3635 17.2056ZM36.4969 19.8295L37.4265 20.198L37.4265 20.198L36.4969 19.8295ZM36.0209 21.0794L35.077 20.749L35.0603 20.7969L35.0484 20.8463L36.0209 21.0794ZM33.9048 21.8965L33.3577 22.7336L33.3642 22.7379L33.3709 22.7421L33.9048 21.8965ZM33.3974 19.6477L32.4105 19.4864L32.4105 19.4864L33.3974 19.6477ZM20.7058 21.9973L20.0579 22.759L20.0663 22.7662L20.0749 22.7732L20.7058 21.9973ZM23.3777 19.5492L24.1973 18.9763L24.1956 18.9738L23.3777 19.5492ZM21.9671 23.0943L22.6742 22.3872L22.6555 22.3684L22.6357 22.3507L21.9671 23.0943ZM21.9671 23.0943L21.26 23.8014L21.2852 23.8266L21.3122 23.85L21.9671 23.0943ZM21.9672 23.0944L22.6359 22.3508L22.629 22.3447L22.6221 22.3387L21.9672 23.0944ZM23.7594 24.6033L23.1666 25.4087L23.251 25.4708L23.3464 25.5141L23.7594 24.6033ZM25.6612 22.8985L26.6227 22.6236L26.5878 22.5016L26.5236 22.3922L25.6612 22.8985ZM23.996 20.4194L23.148 20.9494L23.1648 20.9762L23.1831 21.0018L23.996 20.4194ZM23.9956 20.4188L24.8436 19.8888L24.8269 19.862L24.8085 19.8364L23.9956 20.4188ZM19.3485 25.3108L19.8338 24.4365L19.8338 24.4365L19.3485 25.3108ZM17.1397 25.0775L16.4898 24.3175L16.4445 24.3562L16.4042 24.4001L17.1397 25.0775ZM19.7949 25.5483L20.2909 24.68L20.261 24.663L20.2301 24.648L19.7949 25.5483ZM20.6929 26.0194L20.2443 26.9131L20.2457 26.9138L20.6929 26.0194ZM20.6929 26.0194L21.1415 25.1257L21.1401 25.125L20.6929 26.0194ZM22.1454 26.8396L22.795 26.0793L22.7588 26.0484L22.7198 26.021L22.1454 26.8396ZM21.0371 29.227L21.24 28.2478L21.2317 28.2461L21.0371 29.227ZM17.0561 28.2452L16.6073 29.1388L16.6795 29.1751L16.7565 29.1993L17.0561 28.2452ZM40.9423 19.0851L40.5089 18.1839L40.3854 18.2433L40.2825 18.3337L40.9423 19.0851ZM43.1757 21.9333L43.8184 22.6994L43.8329 22.6872L43.8469 22.6746L43.1757 21.9333ZM39.2609 21.2448L38.4186 20.7057L38.4186 20.7057L39.2609 21.2448ZM38.391 22.5218L39.1824 23.133L39.1834 23.1318L38.391 22.5218ZM40.0986 24.5865L40.5764 25.465L40.6168 25.443L40.655 25.4174L40.0986 24.5865ZM42.0671 22.934L41.3837 22.2039L41.3837 22.2039L42.0671 22.934ZM45.4708 24.7916L45.2164 23.8245L45.117 23.8507L45.025 23.8965L45.4708 24.7916ZM41.8881 26.6882L41.3904 25.8209L41.3848 25.8241L41.8881 26.6882ZM47.1918 27.9996L47.611 28.9075L47.8199 28.811L47.9656 28.633L47.1918 27.9996ZM44.0568 28.9162L44.2584 29.8957L44.2664 29.8939L44.0568 28.9162ZM44.0566 28.9162L44.221 29.9026L44.2397 29.8995L44.2582 29.8957L44.0566 28.9162ZM44.0562 28.9163L43.8918 27.9299L43.8691 27.9337L43.8466 27.9385L44.0562 28.9163ZM42.8022 29.2001L42.971 30.1857L43.0084 30.1793L43.0452 30.1701L42.8022 29.2001ZM17.3343 35.5488L17.5637 36.5222L17.5756 36.5193L17.3343 35.5488ZM16.6512 31.9541L16.6214 30.9546L16.5379 30.957L16.456 30.9734L16.6512 31.9541ZM18.4511 35.2845L18.6759 36.2589L18.6759 36.2589L18.4511 35.2845ZM21.4627 34.4559L21.8076 35.3945L22.0194 35.3167L22.1772 35.1554L21.4627 34.4559ZM20.7227 31.9473L20.8163 30.9517L20.7782 30.9481L20.74 30.9475L20.7227 31.9473ZM43.0948 32.0855V31.0855H43.0705L43.0462 31.0866L43.0948 32.0855ZM42.2979 34.2645L41.5648 34.9446L41.6597 35.0469L41.779 35.1193L42.2979 34.2645ZM44.3399 32.0704V31.0704H44.3309L44.3218 31.0706L44.3399 32.0704ZM44.3405 32.0704V33.0704H44.3495L44.3586 33.0703L44.3405 32.0704ZM47.4978 32.136L47.8074 31.1851L47.7044 31.1516L47.5966 31.1409L47.4978 32.136ZM48.1741 34.4663L47.2182 34.1729L47.1933 34.2539L47.1824 34.3379L48.1741 34.4663ZM46.1785 35.4314L46.5753 34.5134L46.5265 34.4924L46.4757 34.4766L46.1785 35.4314ZM44.813 35.0986L45.0196 34.1201L45.0091 34.118L44.813 35.0986ZM44.8129 35.0986L44.6063 36.077L44.6168 36.0791L44.8129 35.0986ZM23.8233 38.0508L24.7978 37.8265L24.7852 37.7714L24.7663 37.718L23.8233 38.0508ZM21.9081 37.2068L22.3432 38.1072L22.3646 38.0968L22.3855 38.0855L21.9081 37.2068ZM23.2809 39.6077L22.6738 38.8131L22.6499 38.8313L22.6272 38.8509L23.2809 39.6077ZM22.3005 40.4871L21.6258 39.7489L21.6222 39.7523L22.3005 40.4871ZM22.3004 40.4871L22.975 41.2253L22.9787 41.2219L22.3004 40.4871ZM20.3411 42.1533L20.7421 43.0693L20.8435 43.0249L20.9328 42.9594L20.3411 42.1533ZM18.4125 41.3093L19.277 40.8067L19.2054 40.6835L19.1023 40.5852L18.4125 41.3093ZM19.0018 38.72L19.2851 39.679L19.3727 39.6532L19.4542 39.6118L19.0018 38.72ZM20.2231 38.0783L20.6945 38.9603L20.6945 38.9603L20.2231 38.0783ZM40.1246 39.0695L39.2248 39.5057L39.2929 39.6463L39.4007 39.7594L40.1246 39.0695ZM41.7786 37.1125L42.1801 36.1966L42.1363 36.1774L42.0908 36.1625L41.7786 37.1125ZM43.5231 42.1128L42.8997 42.8947L43.0103 42.9829L43.1411 43.037L43.5231 42.1128ZM45.9539 39.6883L46.9493 39.5927L46.9355 39.4486L46.8813 39.3143L45.9539 39.6883ZM44.6956 38.6054L45.147 37.7131L45.147 37.7131L44.6956 38.6054ZM44.397 38.4508L44.8739 37.5719L44.8566 37.5624L44.8388 37.5537L44.397 38.4508ZM43.3525 37.9052L43.826 37.0244L43.8129 37.0174L43.7997 37.0108L43.3525 37.9052ZM43.3524 37.9051L42.8379 38.7626L42.8708 38.7824L42.9052 38.7996L43.3524 37.9051ZM43.3523 37.9051L43.8668 37.0476L43.8466 37.0355L43.8258 37.0243L43.3523 37.9051ZM27.8936 42.6474L26.988 42.2233L26.9722 42.2571L26.9589 42.2919L27.8936 42.6474ZM26.0922 40.8147L25.6986 39.8955L25.6621 39.9111L25.6269 39.9296L26.0922 40.8147ZM27.5072 43.6994L26.5666 43.3598L26.5572 43.3857L26.5493 43.412L27.5072 43.6994ZM27.5071 43.6994L28.4477 44.0389L28.4571 44.0131L28.465 43.9868L27.5071 43.6994ZM26.3935 46.4405L27.1435 47.102L27.2291 47.0049L27.2872 46.8892L26.3935 46.4405ZM23.514 45.9866L22.7699 46.6546L22.8095 46.6987L22.854 46.7378L23.514 45.9866ZM23.9877 43.445L23.1826 42.8518L23.1826 42.8518L23.9877 43.445ZM24.3042 43.0005L23.5358 42.3606L23.5002 42.4033L23.4695 42.4497L24.3042 43.0005ZM24.8539 42.1976L25.7039 42.7244L25.7039 42.7243L24.8539 42.1976ZM35.9242 42.3919L34.9572 42.6467L34.966 42.6799L34.9769 42.7123L35.9242 42.3919ZM38.1374 40.9998L38.8963 40.3486L38.841 40.2842L38.7757 40.23L38.1374 40.9998ZM36.6204 44.2855L37.569 43.9692L37.5621 43.9485L37.5543 43.9282L36.6204 44.2855ZM36.6204 44.2855L35.6717 44.6018L35.6781 44.6211L35.6854 44.6402L36.6204 44.2855ZM36.6205 44.2859L35.6855 44.6405L35.6865 44.6431L36.6205 44.2859ZM37.2668 46.0337L36.3214 46.3595L36.3414 46.4175L36.3683 46.4726L37.2668 46.0337ZM40.6118 44.4397L41.5339 44.0529L41.484 43.9339L41.4056 43.8316L40.6118 44.4397ZM39.5839 42.9783L38.7519 43.533L38.7544 43.5368L39.5839 42.9783ZM39.5839 42.9783L40.4159 42.4236L40.4134 42.4198L39.5839 42.9783ZM33.2475 42.913L34.2233 42.694L34.2109 42.639L34.1924 42.5857L33.2475 42.913ZM30.636 42.95L29.6798 42.6573L29.6602 42.7211L29.6493 42.787L30.636 42.95ZM33.5768 45.23L34.5717 45.1288L34.5717 45.1288L33.5768 45.23ZM33.8302 47.1769L34.8144 47.3541L34.8469 47.1731L34.813 46.9924L33.8302 47.1769ZM30.127 47.1836L29.1306 47.0988L29.1202 47.2199L29.1392 47.3399L30.127 47.1836ZM38.0619 2.63582C30.3377 0.977729 22.0088 2.60667 15.4477 7.00652L16.5616 8.6676C22.677 4.56662 30.4532 3.04809 37.6422 4.59128L38.0619 2.63582ZM36.8402 6.27273C37.455 5.71701 38.225 5.03369 38.7333 4.08633L36.9709 3.14077C36.6531 3.73304 36.156 4.19516 35.499 4.7891L36.8402 6.27273ZM35.5016 7.68975C35.8314 7.19161 36.2802 6.77903 36.8402 6.27273L35.499 4.7891C34.9699 5.26743 34.326 5.84257 33.8341 6.5855L35.5016 7.68975ZM20.4172 10.9713C24.688 8.60271 29.7052 7.63132 34.5653 8.13236L34.7704 6.1429C29.5188 5.60151 24.0893 6.64772 19.4472 9.22227L20.4172 10.9713ZM10.1037 22.1939C12.2189 17.4675 15.8923 13.4597 20.414 10.973L19.4503 9.22054C14.5432 11.9191 10.5693 16.2574 8.27815 21.3769L10.1037 22.1939ZM8.28827 35.4488C7.62284 30.9742 8.24752 26.3125 10.1026 22.1963L8.27923 21.3745C6.26372 25.8467 5.58927 30.8964 6.31003 35.743L8.28827 35.4488ZM8.03472 36.2734L8.03589 36.2721L6.56241 34.9197L6.56123 34.921L8.03472 36.2734ZM9.49754 40.1688C8.92101 38.6589 8.52906 37.0696 8.287 35.4494L6.30895 35.745C6.56916 37.4866 6.99389 39.2186 7.62911 40.8822L9.49754 40.1688ZM10.8373 43.1827C10.3266 42.2148 9.88207 41.2094 9.50135 40.179L7.6253 40.8721C8.03476 41.9803 8.51454 43.0664 9.06852 44.1161L10.8373 43.1827ZM9.80019 44.6435C9.85229 44.6479 9.91079 44.6505 9.97394 44.6492L9.9319 42.6496C9.95042 42.6492 9.96306 42.6501 9.96831 42.6505L9.80019 44.6435ZM9.93337 42.6498C9.95239 42.6494 9.9652 42.6503 9.97008 42.6507L9.79841 44.6433C9.85121 44.6479 9.91089 44.6507 9.97552 44.6493L9.93337 42.6498ZM11.033 43.5239C10.963 43.4008 10.8937 43.279 10.8249 43.1574L9.08396 44.1417C9.15417 44.2659 9.22466 44.3899 9.29449 44.5126L11.033 43.5239ZM13.0348 48.103C12.6623 46.3733 11.7958 44.8652 11.033 43.5239L9.29449 44.5126C10.0834 45.8999 10.7825 47.1446 11.0796 48.5241L13.0348 48.103ZM10.7349 57.5345C12.6529 54.8797 13.6758 51.4885 13.0397 48.1276L11.0746 48.4995C11.5904 51.2251 10.7717 54.0683 9.11372 56.3633L10.7349 57.5345ZM10.2791 56.014L10.279 56.0139L9.56966 57.8839L9.56977 57.884L10.2791 56.014ZM10.9352 55.9356L9.91134 55.9491L9.93752 57.9489L10.9614 57.9355L10.9352 55.9356ZM19.3461 55.9313C16.5472 55.9301 13.7467 55.9289 10.9459 55.9356L10.9507 57.9356C13.7481 57.9289 16.5458 57.9301 19.3452 57.9313L19.3461 55.9313ZM32.1861 55.9087C27.9077 55.9351 23.6288 55.9332 19.3461 55.9313L19.3452 57.9313C23.6268 57.9332 27.9124 57.9351 32.1985 57.9086L32.1861 55.9087ZM32.3415 57.8975L32.3421 57.8974L32.0436 55.9198L32.043 55.9199L32.3415 57.8975ZM32.2252 57.9081C35.0386 57.8172 37.8257 57.2685 40.4698 56.3276L39.7992 54.4433C37.3408 55.3182 34.7578 55.8252 32.1606 55.9091L32.2252 57.9081ZM39.2284 54.9624C39.2339 54.9505 39.2387 54.9409 39.2417 54.9351C39.2432 54.9321 39.2444 54.9297 39.2451 54.9282C39.2458 54.9269 39.2464 54.9257 39.2463 54.9259C39.2463 54.9259 39.2463 54.9259 39.2463 54.9259C39.2463 54.9259 39.2463 54.9259 39.2463 54.9259C39.2463 54.926 39.2463 54.926 39.2463 54.926C39.2463 54.926 39.2463 54.926 39.2462 54.9261C39.2462 54.9262 39.2461 54.9263 39.246 54.9265C39.2458 54.9269 39.2455 54.9275 39.2451 54.9282C39.2444 54.9297 39.2431 54.9321 39.2416 54.9351C39.2386 54.941 39.2339 54.9506 39.2283 54.9626L41.0407 55.8083C41.0351 55.8202 41.0304 55.8298 41.0274 55.8357C41.0259 55.8386 41.0247 55.8411 41.0239 55.8425C41.0232 55.8438 41.0226 55.845 41.0228 55.8448C41.0228 55.8448 41.0228 55.8448 41.0228 55.8448C41.0228 55.8448 41.0228 55.8448 41.0228 55.8448C41.0228 55.8448 41.0228 55.8448 41.0228 55.8447C41.0228 55.8447 41.0228 55.8447 41.0228 55.8446C41.0229 55.8445 41.023 55.8444 41.0231 55.8442C41.0232 55.8438 41.0236 55.8432 41.0239 55.8425C41.0247 55.841 41.0259 55.8386 41.0274 55.8356C41.0304 55.8297 41.0352 55.8201 41.0408 55.8082L39.2284 54.9624ZM52.9841 43.2864C50.1322 48.4407 45.324 52.4461 39.7946 54.4448L40.4745 56.3257C46.4431 54.1682 51.6395 49.8475 54.7341 44.2547L52.9841 43.2864ZM55.8303 29.7941C56.2795 34.4401 55.2742 39.2187 52.9877 43.28L54.7305 44.2612C57.2185 39.8418 58.3094 34.6534 57.821 29.6016L55.8303 29.7941ZM56.0791 29.0325L56.0768 29.0351L57.5745 30.3605L57.5768 30.3579L56.0791 29.0325ZM52.7725 20.0925C54.465 23.0534 55.5104 26.3854 55.8324 29.7894L57.8235 29.6011C57.4752 25.9182 56.3445 22.3114 54.5088 19.1L52.7725 20.0925ZM54.5698 16.7995C54.0185 17.5796 53.5175 18.2851 52.9218 18.9011L54.3595 20.2914C55.0797 19.5466 55.6665 18.713 56.2031 17.9538L54.5698 16.7995ZM54.5865 16.7766L54.5865 16.7766L56.1865 17.9766L56.1865 17.9766L54.5865 16.7766ZM54.5911 16.7705L54.5911 16.7705L56.182 17.9826L56.182 17.9825L54.5911 16.7705ZM54.5912 16.7704L54.5911 16.7705L56.182 17.9825L56.182 17.9825L54.5912 16.7704ZM54.5912 16.7703L54.5912 16.7704L56.182 17.9825L56.1821 17.9824L54.5912 16.7703ZM54.5913 16.7703L54.5912 16.7703L56.1821 17.9824L56.1821 17.9824L54.5913 16.7703ZM54.5913 16.7702L54.5913 16.7703L56.1821 17.9824L56.1822 17.9823L54.5913 16.7702ZM54.5914 16.7702L54.5913 16.7702L56.1822 17.9823L56.1822 17.9822L54.5914 16.7702ZM54.5914 16.7701L54.5914 16.7702L56.1822 17.9822L56.1823 17.9822L54.5914 16.7701ZM54.5915 16.77L54.5914 16.7701L56.1823 17.9822L56.1823 17.9821L54.5915 16.77ZM54.5915 16.77L54.5915 16.77L56.1823 17.9821L56.1824 17.9821L54.5915 16.77ZM54.5916 16.7699L54.5915 16.77L56.1824 17.9821L56.1824 17.982L54.5916 16.7699ZM54.5916 16.7699L54.5916 16.7699L56.1824 17.982L56.1825 17.9819L54.5916 16.7699ZM54.5916 16.7698L54.5916 16.7699L56.1825 17.9819L56.1825 17.9819L54.5916 16.7698ZM54.5917 16.7697L54.5916 16.7698L56.1825 17.9819L56.1826 17.9818L54.5917 16.7697ZM54.5917 16.7697L54.5917 16.7697L56.1826 17.9818L56.1826 17.9818L54.5917 16.7697ZM55.4993 15.526C55.1704 15.9495 54.8629 16.3849 54.5705 16.7986L56.2038 17.9529C56.5006 17.533 56.7822 17.1347 57.0789 16.7528L55.4993 15.526ZM60.8936 23.8949C60.0563 20.9623 58.7866 18.1581 57.1286 15.5961L55.4496 16.6827C56.9993 19.0774 58.1871 21.7003 58.9705 24.444L60.8936 23.8949ZM61.171 25.0275C61.0856 24.6575 60.9964 24.2884 60.8998 23.9174L58.9643 24.4214C59.0551 24.7702 59.14 25.1206 59.2221 25.477L61.171 25.0275ZM60.9534 25.9059L60.9554 25.9036L59.4377 24.601L59.4358 24.6033L60.9534 25.9059ZM55.6753 50.1345C61.2218 43.1846 63.3258 33.662 61.1647 25.0122L59.2244 25.497C61.2334 33.5381 59.2725 42.4209 54.1121 48.8869L55.6753 50.1345ZM36.9253 61.4703C44.2745 60.1351 51.0777 56.033 55.6824 50.1255L54.105 48.8959C49.8035 54.4145 43.4352 58.2549 36.5678 59.5025L36.9253 61.4703ZM35.8522 60.0392C35.8423 60.0588 35.835 60.0752 35.8304 60.0856C35.8281 60.0908 35.8263 60.0951 35.8252 60.0977C35.8246 60.099 35.8242 60.1001 35.8239 60.1008C35.8238 60.1011 35.8237 60.1014 35.8236 60.1015C35.8236 60.1016 35.8235 60.1017 35.8235 60.1017C35.8235 60.1018 35.8235 60.1018 35.8235 60.1018C35.8235 60.1018 35.8235 60.1018 35.8235 60.1018C35.8235 60.1018 35.8235 60.1018 35.8235 60.1018C35.8235 60.1018 35.8235 60.1018 35.8235 60.1018C35.8233 60.1021 35.8242 60.1001 35.8252 60.0977C35.8263 60.0951 35.8281 60.0909 35.8304 60.0856C35.835 60.0752 35.8423 60.0589 35.8521 60.0392L37.641 60.9337C37.6508 60.914 37.6582 60.8977 37.6627 60.8873C37.665 60.882 37.6668 60.8777 37.6679 60.8751C37.6685 60.8738 37.6689 60.8727 37.6692 60.8721C37.6694 60.8717 37.6695 60.8715 37.6695 60.8713C37.6696 60.8712 37.6696 60.8711 37.6696 60.8711C37.6696 60.8711 37.6696 60.8711 37.6696 60.871C37.6696 60.871 37.6696 60.871 37.6696 60.871C37.6696 60.871 37.6696 60.871 37.6696 60.871C37.6696 60.871 37.6696 60.871 37.6696 60.871C37.6698 60.8707 37.6689 60.8727 37.6679 60.8751C37.6668 60.8777 37.665 60.882 37.6627 60.8872C37.6582 60.8976 37.6508 60.914 37.641 60.9336L35.8522 60.0392ZM36.5526 59.5054C33.9417 60.0217 31.2561 60.0089 28.472 59.992L28.4599 61.992C31.2093 62.0086 34.0985 62.0294 36.9405 61.4675L36.5526 59.5054ZM28.472 59.992L28.2817 59.9909L28.2696 61.9908L28.4599 61.992L28.472 59.992ZM29.0893 61.5722C29.1001 61.5571 29.1084 61.5446 29.1131 61.5374C29.1155 61.5337 29.1174 61.5306 29.1186 61.5288C29.1192 61.5279 29.1197 61.5271 29.12 61.5267C29.1201 61.5264 29.1202 61.5262 29.1203 61.5261C29.1203 61.5261 29.1204 61.526 29.1204 61.526C29.1204 61.526 29.1204 61.526 29.1204 61.526C29.1204 61.526 29.1204 61.526 29.1204 61.526C29.1204 61.526 29.1204 61.526 29.1204 61.526C29.1204 61.526 29.1204 61.526 29.1204 61.526C29.1206 61.5257 29.1197 61.5271 29.1186 61.5288C29.1175 61.5306 29.1155 61.5336 29.1131 61.5374C29.1084 61.5446 29.1002 61.557 29.0894 61.5721L27.4619 60.4096C27.4511 60.4247 27.4428 60.4372 27.4381 60.4444C27.4357 60.4481 27.4338 60.4512 27.4326 60.453C27.432 60.4539 27.4315 60.4547 27.4312 60.4551C27.4311 60.4554 27.431 60.4556 27.4309 60.4557C27.4309 60.4557 27.4308 60.4558 27.4308 60.4558C27.4308 60.4558 27.4308 60.4558 27.4308 60.4558C27.4308 60.4558 27.4308 60.4558 27.4308 60.4558C27.4308 60.4558 27.4308 60.4558 27.4308 60.4558C27.4308 60.4558 27.4308 60.4558 27.4308 60.4558C27.4306 60.4561 27.4315 60.4547 27.4326 60.453C27.4337 60.4512 27.4357 60.4482 27.4381 60.4444C27.4428 60.4373 27.451 60.4248 27.4618 60.4097L29.0893 61.5722ZM17.3898 61.9917C21.0181 61.9924 24.6463 61.9931 28.2762 61.9909L28.275 59.9909C24.6461 59.9931 21.0186 59.9924 17.3902 59.9917L17.3898 61.9917ZM11.9462 61.9909C13.761 61.9909 15.5754 61.9913 17.3898 61.9917L17.3902 59.9917C15.5758 59.9913 13.7612 59.9909 11.9462 59.9909V61.9909ZM11.0847 60.4832L11.0846 60.4833L12.8077 61.4986L12.8077 61.4986L11.0847 60.4832ZM9.76861 61.9928C10.4991 61.987 11.2172 61.9814 11.933 61.9908L11.9594 59.991C11.2189 59.9812 10.4797 59.9871 9.75274 59.9929L9.76861 61.9928ZM9.76053 61.9929H9.76067V59.9929H9.76053V61.9929ZM9.76039 61.9929H9.76053V59.9929H9.76039V61.9929ZM9.76026 61.9929H9.76039V59.9929H9.76026V61.9929ZM9.76012 61.9929H9.76026V59.9929H9.76012V61.9929ZM9.75998 61.9929H9.76012V59.9929H9.75998V61.9929ZM9.75984 61.9929H9.75998V59.9929H9.75984V61.9929ZM9.7597 61.9929H9.75984V59.9929H9.7597V61.9929ZM9.75956 61.9929H9.7597V59.9929H9.75956V61.9929ZM9.75942 61.9929H9.75956V59.9929H9.75942V61.9929ZM9.75928 61.9929H9.75942V59.9929H9.75928V61.9929ZM9.75915 61.9929H9.75928V59.9929H9.75915V61.9929ZM9.75901 61.9929H9.75915V59.9929H9.75901V61.9929ZM9.75887 61.9929H9.75901V59.9929H9.75887V61.9929ZM9.75873 61.9929H9.75887V59.9929H9.75873V61.9929ZM9.75859 61.9929H9.75873V59.9929H9.75859V61.9929ZM9.75845 61.9929H9.75859V59.9929H9.75845V61.9929ZM5.74524 61.9318C7.10195 62.0144 8.4544 62.0032 9.76638 61.9928L9.75052 59.9929C8.42711 60.0034 7.14337 60.0132 5.86666 59.9355L5.74524 61.9318ZM3.61508 57.7378C2.84259 59.3825 3.82939 61.4185 5.53622 61.8966L6.07568 59.9707C5.52577 59.8167 5.19336 59.0819 5.42535 58.588L3.61508 57.7378ZM5.13506 55.1037C4.63267 55.9401 4.11513 56.8014 3.63874 57.6907L5.40169 58.6351C5.85105 57.7963 6.34297 56.9769 6.84957 56.1335L5.13506 55.1037ZM6.71104 52.3597C6.22945 53.281 5.69143 54.1774 5.13506 55.1037L6.84957 56.1335C7.40083 55.2157 7.96989 54.2688 8.4835 53.2862L6.71104 52.3597ZM6.05872 47.0974C7.15974 48.6868 7.4923 50.7469 6.69741 52.3867L8.49713 53.2591C9.67772 50.8235 9.11295 47.9942 7.70277 45.9585L6.05872 47.0974ZM7.26198 44.3563C6.8764 44.9153 6.52986 45.4156 6.13195 45.8652L7.62955 47.1908C8.12092 46.6356 8.53421 46.0343 8.90837 45.4918L7.26198 44.3563ZM8.18034 43.0881C7.84516 43.51 7.54253 43.9495 7.26198 44.3563L8.90837 45.4918C9.19535 45.0757 9.46022 44.6923 9.74639 44.332L8.18034 43.0881ZM9.44161 42.5555C9.10466 42.5275 8.5347 42.5851 8.14733 43.1321L9.77941 44.2881C9.71083 44.3849 9.6016 44.4716 9.46935 44.5176C9.35691 44.5566 9.27719 44.5488 9.27596 44.5487L9.44161 42.5555ZM9.77788 44.2879C9.70899 44.3852 9.59926 44.4721 9.4667 44.5178C9.35422 44.5566 9.27472 44.5485 9.27427 44.5485L9.44331 42.5557C9.10713 42.5271 8.53468 42.5829 8.14581 43.1319L9.77788 44.2879ZM8.90687 45.4916C9.19384 45.0755 9.4587 44.6922 9.74487 44.3319L8.17882 43.0879C7.84364 43.5099 7.54102 43.9493 7.26048 44.3561L8.90687 45.4916ZM8.89565 45.5075L8.89569 45.5075L7.27166 44.3402L7.27162 44.3403L8.89565 45.5075ZM7.62803 47.1906C8.11939 46.6355 8.53268 46.0342 8.90683 45.4917L7.26044 44.3561C6.87486 44.9152 6.52833 45.4155 6.13042 45.8651L7.62803 47.1906ZM3.10204 39.8798C3.64156 42.4276 4.77156 44.8397 6.00948 47.0214L7.74896 46.0343C6.55647 43.9328 5.53722 41.7254 5.05865 39.4655L3.10204 39.8798ZM4.73344 40.434L4.78924 40.3779L3.37145 38.9673L3.31565 39.0234L4.73344 40.434ZM3.64194 22.2791C1.68148 27.9493 1.46261 34.2089 3.06063 39.9949L4.98846 39.4625C3.49938 34.0709 3.70239 28.2248 5.53215 22.9327L3.64194 22.2791ZM15.4566 7.00059C9.97315 10.5931 5.73684 16.0542 3.63928 22.2869L5.53482 22.9249C7.48866 17.1192 11.4422 12.0216 16.5526 8.67353L15.4566 7.00059ZM45.0933 5.0095C42.8561 3.9313 40.4874 3.13132 38.0524 2.63387L37.6521 4.5934C39.9247 5.05767 42.1363 5.80453 44.225 6.81118L45.0933 5.0095ZM45.425 6.55331L45.4251 6.55324L43.8932 5.26744L43.8931 5.26751L45.425 6.55331ZM51.8845 9.52373C49.8373 7.7247 47.5553 6.19372 45.0925 5.00923L44.2257 6.8116C46.517 7.91363 48.6475 9.34169 50.5643 11.0261L51.8845 9.52373ZM49.0084 13.8222C50.0148 12.8968 50.9883 11.9429 51.938 10.9755L50.5108 9.57434C49.5789 10.5236 48.6304 11.4528 47.6547 12.35L49.0084 13.8222ZM41.9359 10.1419C44.0107 11.0903 45.9491 12.3427 47.6761 13.8414L48.9869 12.3308C47.1178 10.7089 45.0184 9.35183 42.7673 8.32292L41.9359 10.1419ZM41.4834 8.73621L41.4833 8.73628L43.2198 9.72856L43.2198 9.72849L41.4834 8.73621ZM34.5658 8.13248C37.107 8.3935 39.6063 9.08026 41.9369 10.1423L42.7663 8.32238C40.2422 7.17215 37.5321 6.42664 34.7701 6.14295L34.5658 8.13248ZM35.4992 4.78918C34.9701 5.26752 34.3262 5.84265 33.8342 6.58559L35.5017 7.68984C35.8316 7.1917 36.2803 6.77911 36.8404 6.27281L35.4992 4.78918ZM36.971 3.14086C36.6533 3.73313 36.1562 4.19525 35.4992 4.78918L36.8404 6.27281C37.4551 5.7171 38.2251 5.03377 38.7334 4.08641L36.971 3.14086ZM57.1206 15.5866C55.6427 13.3603 53.8896 11.3104 51.8902 9.52869L50.5596 11.0218C52.4242 12.6834 54.0661 14.6015 55.4544 16.6928L57.1206 15.5866ZM56.2024 17.9529C56.4991 17.5331 56.7807 17.1349 57.0773 16.7531L55.4978 15.5263C55.1689 15.9497 54.8614 16.385 54.5691 16.7987L56.2024 17.9529ZM56.1811 17.9819L56.1812 17.9818L54.5903 16.7698L54.5903 16.7698L56.1811 17.9819ZM56.1811 17.982L56.1811 17.9819L54.5903 16.7698L54.5902 16.7699L56.1811 17.982ZM56.181 17.982L56.1811 17.982L54.5902 16.7699L54.5902 16.7699L56.181 17.982ZM56.181 17.9821L56.181 17.982L54.5902 16.7699L54.5901 16.77L56.181 17.9821ZM56.181 17.9821L56.181 17.9821L54.5901 16.77L54.5901 16.7701L56.181 17.9821ZM56.1809 17.9822L56.181 17.9821L54.5901 16.7701L54.59 16.7701L56.1809 17.9822ZM56.1809 17.9823L56.1809 17.9822L54.59 16.7701L54.59 16.7702L56.1809 17.9823ZM56.1808 17.9823L56.1809 17.9823L54.59 16.7702L54.59 16.7702L56.1808 17.9823ZM56.1808 17.9824L56.1808 17.9823L54.59 16.7702L54.5899 16.7703L56.1808 17.9824ZM56.1807 17.9824L56.1808 17.9824L54.5899 16.7703L54.5899 16.7704L56.1807 17.9824ZM56.1807 17.9825L56.1807 17.9824L54.5899 16.7704L54.5898 16.7704L56.1807 17.9825ZM56.1806 17.9826L56.1807 17.9825L54.5898 16.7704L54.5898 16.7705L56.1806 17.9826ZM56.1806 17.9826L56.1806 17.9826L54.5898 16.7705L54.5897 16.7705L56.1806 17.9826ZM56.1805 17.9827L56.1806 17.9826L54.5897 16.7705L54.5897 16.7706L56.1805 17.9827ZM56.1805 17.9827L56.1805 17.9827L54.5897 16.7706L54.5896 16.7707L56.1805 17.9827ZM56.1805 17.9828L56.1805 17.9827L54.5896 16.7707L54.5896 16.7707L56.1805 17.9828ZM56.1804 17.9829L56.1805 17.9828L54.5896 16.7707L54.5895 16.7708L56.1804 17.9829ZM56.1804 17.9829L56.1804 17.9829L54.5895 16.7708L54.5895 16.7708L56.1804 17.9829ZM56.1849 17.977L56.1849 17.9769L54.5849 16.7769L54.5849 16.777L56.1849 17.977ZM54.3579 20.2917C55.0781 19.5469 55.6649 18.7134 56.2015 17.9541L54.5682 16.7998C54.0169 17.5799 53.5159 18.2854 52.9202 18.9014L54.3579 20.2917ZM50.9291 17.324C51.6016 18.2147 52.2231 19.134 52.7707 20.0926L54.5073 19.1005C53.9099 18.0548 53.239 17.0642 52.5252 16.1188L50.9291 17.324ZM47.6682 13.8344C48.8745 14.905 49.9919 16.0467 50.9209 17.313L52.5335 16.1299C51.4938 14.7128 50.2673 13.467 48.9958 12.3385L47.6682 13.8344ZM50.5113 9.57469C49.5794 10.524 48.6309 11.4532 47.6552 12.3503L49.0089 13.8226C50.0153 12.8971 50.9888 11.9432 51.9385 10.9758L50.5113 9.57469ZM27.9223 16.965C28.2219 16.8251 28.5901 16.7728 28.846 16.8237C28.9626 16.8469 29.0183 16.8835 29.0413 16.904C29.0556 16.9168 29.0896 16.9495 29.1116 17.0557L31.0699 16.6494C30.8465 15.5726 30.048 15.0235 29.2361 14.8621C28.4859 14.7129 27.6839 14.8691 27.0761 15.1529L27.9223 16.965ZM27.5006 17.4365C27.4859 17.4024 27.4736 17.3169 27.5328 17.2033C27.5927 17.0886 27.6743 17.0444 27.7148 17.0354L27.2836 15.0825C26.5774 15.2384 26.048 15.7254 25.7596 16.2782C25.4706 16.8322 25.3729 17.5503 25.6629 18.2257L27.5006 17.4365ZM28.8838 21.0582C28.4041 19.8821 27.9507 18.6922 27.5236 17.4951L25.6399 18.1672C26.0766 19.3911 26.5406 20.6088 27.032 21.8136L28.8838 21.0582ZM29.5561 20.8903C29.5563 20.9422 29.5434 20.9675 29.5144 20.9972C29.4736 21.039 29.3905 21.0915 29.2685 21.1163C29.1469 21.1411 29.0383 21.1276 28.9677 21.0997C28.9092 21.0766 28.8807 21.0478 28.8602 21.0048L27.0556 21.8671C27.5921 22.9898 28.7876 23.2553 29.6675 23.0761C30.5554 22.8953 31.5594 22.1677 31.5561 20.8852L29.5561 20.8903ZM29.2474 18.0968C29.3817 19.0777 29.5091 20.0115 29.5575 20.9399L31.5548 20.8357C31.5012 19.8093 31.3613 18.792 31.2288 17.8253L29.2474 18.0968ZM29.0985 16.9763C29.1454 17.3525 29.1968 17.728 29.2474 18.0968L31.2288 17.8253C31.1781 17.4545 31.1283 17.091 31.0831 16.7288L29.0985 16.9763ZM32.5971 17.9214C32.5731 18.2395 32.5548 18.4608 32.5176 18.6375L34.4749 19.0489C34.5446 18.7172 34.5701 18.3547 34.5914 18.0714L32.5971 17.9214ZM34.5128 14.8399C33.6327 15.0598 33.1365 15.6474 32.8874 16.2906C32.669 16.8548 32.629 17.4972 32.5971 17.9214L34.5914 18.0714C34.6291 17.571 34.6617 17.2472 34.7525 17.0128C34.7905 16.9147 34.8257 16.8712 34.8468 16.851C34.863 16.8355 34.8997 16.8048 34.9976 16.7803L34.5128 14.8399ZM38.3498 17.0405C38.1756 16 37.4382 15.4119 36.7306 15.1213C36.0446 14.8395 35.2823 14.7815 34.7035 14.8115L34.807 16.8088C35.2025 16.7883 35.6456 16.8378 35.9708 16.9713C36.2743 17.096 36.3538 17.2308 36.3772 17.3707L38.3498 17.0405ZM37.4265 20.198C37.7618 19.3523 38.1374 18.4118 38.3432 17.4061L36.3838 17.0051C36.2192 17.8096 35.9136 18.5873 35.5673 19.461L37.4265 20.198ZM36.9647 21.4098C37.104 21.012 37.2608 20.616 37.4265 20.198L35.5673 19.461C35.4041 19.8725 35.232 20.3063 35.077 20.749L36.9647 21.4098ZM33.3709 22.7421C34.6595 23.5559 36.6004 22.9514 36.9933 21.3125L35.0484 20.8463C35.0286 20.9288 34.9625 21.0197 34.8195 21.073C34.6702 21.1286 34.5274 21.107 34.4387 21.051L33.3709 22.7421ZM32.4105 19.4864C32.3475 19.8716 32.2458 20.4494 32.3098 21.0066C32.3817 21.6321 32.6651 22.281 33.3577 22.7336L34.4519 21.0595C34.3828 21.0143 34.3576 20.9784 34.3445 20.955C34.3285 20.9266 34.3078 20.8749 34.2967 20.7783C34.2705 20.5498 34.3103 20.2614 34.3843 19.809L32.4105 19.4864ZM32.4968 18.8098C32.491 18.9841 32.4588 19.1907 32.4105 19.4864L34.3843 19.809C34.4275 19.5448 34.4848 19.2043 34.4957 18.8765L32.4968 18.8098ZM21.3536 21.2355C21.2244 21.1256 21.2146 21.0484 21.2331 20.9424C21.2614 20.7799 21.386 20.54 21.6266 20.3208C21.8671 20.1017 22.119 19.9987 22.2854 19.9849C22.3957 19.9757 22.4678 19.9939 22.5599 20.1247L24.1956 18.9738C23.6665 18.2218 22.8865 17.9281 22.1199 17.9917C21.4094 18.0507 20.7595 18.4052 20.2797 18.8423C19.8 19.2793 19.3857 19.8941 19.2628 20.5989C19.1301 21.3601 19.3568 22.1628 20.0579 22.759L21.3536 21.2355ZM22.6357 22.3507C22.2242 21.9807 21.7912 21.591 21.3366 21.2214L20.0749 22.7732C20.4844 23.1061 20.8807 23.4622 21.2984 23.8378L22.6357 22.3507ZM22.6742 22.3872L22.6742 22.3872L21.26 23.8014L21.26 23.8014L22.6742 22.3872ZM22.6221 22.3387L22.622 22.3386L21.3122 23.85L21.3123 23.8501L22.6221 22.3387ZM24.3522 23.798C23.7689 23.3686 23.2234 22.8792 22.6359 22.3508L21.2985 23.8379C21.8739 24.3553 22.4912 24.9116 23.1666 25.4087L24.3522 23.798ZM24.6997 23.1733C24.7276 23.2709 24.7017 23.44 24.5381 23.59C24.381 23.7339 24.2486 23.7272 24.1724 23.6926L23.3464 25.5141C24.3081 25.9502 25.2789 25.624 25.8895 25.0643C26.4935 24.5107 26.8995 23.592 26.6227 22.6236L24.6997 23.1733ZM23.1831 21.0018C23.7682 21.8184 24.3225 22.5932 24.7988 23.4047L26.5236 22.3922C25.9935 21.4892 25.385 20.641 24.8089 19.837L23.1831 21.0018ZM23.148 20.9494L23.148 20.9494L24.844 19.8894L24.844 19.8894L23.148 20.9494ZM23.148 20.9493L23.148 20.9494L24.844 19.8894L24.844 19.8893L23.148 20.9493ZM23.148 20.9493L23.148 20.9493L24.844 19.8893L24.844 19.8893L23.148 20.9493ZM23.1479 20.9492L23.148 20.9493L24.844 19.8893L24.8439 19.8892L23.1479 20.9492ZM23.1479 20.9492L23.1479 20.9492L24.8439 19.8892L24.8439 19.8892L23.1479 20.9492ZM23.1479 20.9492L23.1479 20.9492L24.8439 19.8892L24.8439 19.8892L23.1479 20.9492ZM23.1478 20.9491L23.1479 20.9492L24.8439 19.8892L24.8438 19.8891L23.1478 20.9491ZM23.1478 20.9491L23.1478 20.9491L24.8438 19.8891L24.8438 19.8891L23.1478 20.9491ZM23.1478 20.949L23.1478 20.9491L24.8438 19.8891L24.8438 19.889L23.1478 20.949ZM23.1478 20.949L23.1478 20.949L24.8438 19.889L24.8438 19.889L23.1478 20.949ZM23.1477 20.9489L23.1478 20.949L24.8438 19.889L24.8437 19.8889L23.1477 20.9489ZM23.1477 20.9489L23.1477 20.9489L24.8437 19.8889L24.8437 19.8889L23.1477 20.9489ZM23.1477 20.9488L23.1477 20.9489L24.8437 19.8889L24.8437 19.8888L23.1477 20.9488ZM23.1476 20.9488L23.1477 20.9488L24.8437 19.8888L24.8436 19.8888L23.1476 20.9488ZM22.5581 20.1222C22.7655 20.4188 22.976 20.7126 23.1827 21.0012L24.8085 19.8364C24.6007 19.5463 24.3969 19.2618 24.1973 18.9763L22.5581 20.1222ZM19.8338 24.4365C19.5112 24.2574 19.0052 23.9679 18.4627 23.8458C17.8488 23.7077 17.1308 23.7693 16.4898 24.3175L17.7897 25.8375C17.8423 25.7925 17.8696 25.7873 17.8785 25.7855C17.8945 25.7823 17.9371 25.7776 18.0237 25.7971C18.2331 25.8442 18.4796 25.9723 18.8632 26.1852L19.8338 24.4365ZM20.2301 24.648C20.1171 24.5934 19.9932 24.525 19.8338 24.4365L18.8632 26.1852C19.0114 26.2674 19.1864 26.3649 19.3597 26.4487L20.2301 24.648ZM21.1415 25.1256C20.8351 24.9719 20.557 24.832 20.2909 24.68L19.2988 26.4166C19.6195 26.5998 19.9461 26.7634 20.2443 26.9131L21.1415 25.1256ZM21.1401 25.125L21.1401 25.125L20.2457 26.9138L20.2457 26.9138L21.1401 25.125ZM22.7198 26.021C22.1933 25.6515 21.6286 25.3702 21.1415 25.1257L20.2443 26.9131C20.7537 27.1688 21.1848 27.3872 21.571 27.6582L22.7198 26.021ZM20.8343 30.2062C22.0601 30.4602 22.9741 29.6776 23.3456 28.8524C23.7116 28.0395 23.7051 26.8568 22.795 26.0793L21.4959 27.5999C21.5356 27.6338 21.5601 27.6752 21.5699 27.7425C21.5813 27.8201 21.5695 27.9256 21.5219 28.0313C21.4742 28.1374 21.4098 28.2014 21.3635 28.2298C21.3305 28.2501 21.2991 28.2601 21.24 28.2478L20.8343 30.2062ZM16.7565 29.1993C18.1006 29.6212 19.4856 29.9387 20.8426 30.2079L21.2317 28.2461C19.91 27.984 18.6031 27.6828 17.3556 27.2911L16.7565 29.1993ZM16.4042 24.4001C15.9117 24.9347 15.4734 25.7517 15.3566 26.5888C15.2968 27.0179 15.3142 27.5082 15.5097 27.9799C15.7134 28.4713 16.084 28.8761 16.6073 29.1388L17.5048 27.3516C17.3987 27.2982 17.3721 27.2499 17.3573 27.2141C17.3343 27.1588 17.3119 27.048 17.3375 26.8651C17.3914 26.4782 17.6244 26.0274 17.8753 25.755L16.4042 24.4001ZM41.3757 19.9863C41.433 19.9588 41.5518 19.9336 41.7563 20.0059C41.9631 20.0789 42.1871 20.2313 42.3618 20.4329C42.5398 20.6382 42.6099 20.827 42.6199 20.9437C42.6263 21.0188 42.6173 21.0899 42.5044 21.1921L43.8469 22.6746C44.4321 22.1446 44.6712 21.4578 44.6126 20.7732C44.5576 20.1301 44.2496 19.5572 43.8731 19.1228C43.4932 18.6846 42.9862 18.3192 42.4224 18.12C41.8563 17.9201 41.1648 17.8685 40.5089 18.1839L41.3757 19.9863ZM40.1031 21.7839C40.6168 20.9814 41.044 20.3266 41.6021 19.8365L40.2825 18.3337C39.4754 19.0424 38.9033 19.9485 38.4186 20.7057L40.1031 21.7839ZM39.1834 23.1318C39.5255 22.6873 39.8279 22.2139 40.1031 21.7839L38.4186 20.7057C38.1351 21.1487 37.8788 21.5477 37.5986 21.9118L39.1834 23.1318ZM39.6209 23.708C39.5784 23.7311 39.5504 23.7329 39.507 23.7202C39.447 23.7025 39.3572 23.6505 39.275 23.5506C39.193 23.451 39.154 23.3465 39.1461 23.2716C39.1398 23.2111 39.1513 23.1733 39.1824 23.133L37.5996 21.9105C36.8213 22.9182 37.1544 24.121 37.7305 24.8212C38.3083 25.5235 39.4367 26.0848 40.5764 25.465L39.6209 23.708ZM41.3837 22.2039C40.7453 22.8014 40.1757 23.3314 39.5423 23.7556L40.655 25.4174C41.4463 24.8876 42.1324 24.2425 42.7504 23.6641L41.3837 22.2039ZM42.5329 21.1673C42.128 21.507 41.7443 21.8664 41.3837 22.2039L42.7504 23.6641C43.1176 23.3204 43.462 22.9985 43.8184 22.6994L42.5329 21.1673ZM45.025 23.8965C43.808 24.5025 42.5865 25.1345 41.3904 25.8209L42.3859 27.5556C43.5337 26.8969 44.7161 26.2846 45.9166 25.6868L45.025 23.8965ZM47.9656 28.633C48.7658 27.6554 48.6257 26.2915 48.1833 25.3765C47.731 24.4408 46.6763 23.4405 45.2164 23.8245L45.7252 25.7587C45.8758 25.7191 46.1454 25.7562 46.3827 26.2471C46.6301 26.7587 46.5453 27.2107 46.4179 27.3662L47.9656 28.633ZM44.2664 29.8939C45.3172 29.6686 46.5055 29.4181 47.611 28.9075L46.7725 27.0918C45.903 27.4933 44.9371 27.7047 43.8471 27.9384L44.2664 29.8939ZM44.2582 29.8957L44.2584 29.8956L43.8551 27.9367L43.8549 27.9368L44.2582 29.8957ZM44.221 29.9026L44.221 29.9026L43.8922 27.9298L43.8922 27.9298L44.221 29.9026ZM44.2209 29.9026L44.221 29.9026L43.8922 27.9298L43.8921 27.9298L44.2209 29.9026ZM44.2209 29.9026L44.2209 29.9026L43.8921 27.9298L43.8921 27.9298L44.2209 29.9026ZM44.2208 29.9026L44.2209 29.9026L43.8921 27.9298L43.8921 27.9298L44.2208 29.9026ZM44.2208 29.9026L44.2208 29.9026L43.8921 27.9298L43.892 27.9299L44.2208 29.9026ZM44.2208 29.9026L44.2208 29.9026L43.892 27.9299L43.892 27.9299L44.2208 29.9026ZM44.2207 29.9026L44.2208 29.9026L43.892 27.9299L43.8919 27.9299L44.2207 29.9026ZM44.2207 29.9027L44.2207 29.9026L43.8919 27.9299L43.8919 27.9299L44.2207 29.9027ZM44.2207 29.9027L44.2207 29.9027L43.8919 27.9299L43.8919 27.9299L44.2207 29.9027ZM44.2206 29.9027L44.2207 29.9027L43.8919 27.9299L43.8918 27.9299L44.2206 29.9027ZM43.0452 30.1701C43.4388 30.0715 43.842 29.985 44.2659 29.894L43.8466 27.9385C43.4284 28.0282 42.9917 28.1217 42.5592 28.2301L43.0452 30.1701ZM41.3848 25.8241C40.2469 26.4869 40.1509 27.7652 40.4651 28.628C40.7792 29.4907 41.6741 30.4078 42.971 30.1857L42.6335 28.2144C42.5825 28.2231 42.5524 28.215 42.5125 28.1865C42.4582 28.1478 42.3889 28.066 42.3444 27.9437C42.2999 27.8215 42.3005 27.7146 42.317 27.6506C42.3291 27.6038 42.3467 27.5784 42.3914 27.5523L41.3848 25.8241ZM17.1049 34.5755C16.9611 34.6094 16.8966 34.5785 16.8243 34.5098C16.7166 34.4075 16.5949 34.1949 16.5431 33.8943C16.4917 33.5965 16.529 33.3243 16.6081 33.1496C16.6751 33.0014 16.7495 32.9542 16.8464 32.9349L16.456 30.9734C15.6237 31.139 15.0728 31.6915 14.7862 32.3246C14.5115 32.9311 14.4665 33.6214 14.5721 34.2341C14.6773 34.8439 14.9518 35.4896 15.447 35.96C15.9777 36.464 16.7231 36.7202 17.5637 36.5221L17.1049 34.5755ZM18.2262 34.3101C17.8543 34.3959 17.4731 34.4838 17.093 34.5783L17.5756 36.5193C17.9365 36.4295 18.3013 36.3453 18.6759 36.2589L18.2262 34.3101ZM21.1177 33.5172C20.2094 33.8511 19.2529 34.0731 18.2262 34.3101L18.6759 36.2589C19.6817 36.0268 20.7617 35.7789 21.8076 35.3945L21.1177 33.5172ZM20.629 32.9429C20.7091 32.9505 20.7471 32.9758 20.7729 33.0003C20.8061 33.0318 20.8481 33.0928 20.8734 33.1919C20.9297 33.4124 20.8639 33.638 20.7481 33.7563L22.1772 35.1554C22.8449 34.4734 23.0168 33.5019 22.8112 32.6969C22.5974 31.8601 21.9258 31.0561 20.8163 30.9517L20.629 32.9429ZM16.681 32.9537C18.0135 32.914 19.3512 32.9238 20.7054 32.9472L20.74 30.9475C19.3754 30.9239 18.001 30.9135 16.6214 30.9546L16.681 32.9537ZM43.0462 31.0866C42.0321 31.1359 41.3632 31.847 41.1053 32.5877C40.8516 33.3164 40.9253 34.2553 41.5648 34.9446L43.031 33.5844C42.9842 33.5339 42.9373 33.4085 42.9941 33.2452C43.0192 33.1731 43.0549 33.1292 43.0795 33.1085C43.0977 33.0932 43.1135 33.0857 43.1433 33.0843L43.0462 31.0866ZM44.3218 31.0706C43.9047 31.0781 43.4985 31.0855 43.0948 31.0855V33.0855C43.5196 33.0855 43.944 33.0777 44.358 33.0703L44.3218 31.0706ZM44.34 31.0704H44.3399V33.0704H44.34V31.0704ZM44.3401 31.0704H44.34V33.0704H44.3401V31.0704ZM44.3402 31.0704H44.3401V33.0704H44.3402V31.0704ZM44.3402 31.0704H44.3402V33.0704H44.3402V31.0704ZM44.3403 31.0704H44.3402V33.0704H44.3403V31.0704ZM44.3404 31.0704H44.3403V33.0704H44.3404V31.0704ZM44.3405 31.0704H44.3404V33.0704H44.3405V31.0704ZM47.5966 31.1409C46.4836 31.0303 45.3677 31.0517 44.3224 31.0706L44.3586 33.0703C45.4241 33.051 46.4222 33.0341 47.399 33.1311L47.5966 31.1409ZM49.1301 34.7597C49.2806 34.2695 49.396 33.5977 49.2817 32.9456C49.1597 32.2489 48.7441 31.49 47.8074 31.1851L47.1882 33.0868C47.2429 33.1046 47.2514 33.1202 47.2543 33.1242C47.2649 33.1381 47.2931 33.1845 47.3118 33.2908C47.3523 33.5223 47.3154 33.8559 47.2182 34.1729L49.1301 34.7597ZM45.7818 36.3493C46.4407 36.6341 47.198 36.6183 47.8284 36.3434C48.4799 36.0593 49.0532 35.4648 49.1659 34.5946L47.1824 34.3379C47.1765 34.3835 47.1625 34.4085 47.1469 34.4277C47.1281 34.4509 47.0918 34.4827 47.029 34.5101C46.8902 34.5706 46.7099 34.5716 46.5753 34.5134L45.7818 36.3493ZM44.6064 36.077C45.0755 36.1761 45.4898 36.2643 45.8814 36.3862L46.4757 34.4766C45.9795 34.3221 45.4725 34.2158 45.0196 34.1202L44.6064 36.077ZM44.6168 36.0791L44.6169 36.0792L45.0091 34.118L45.009 34.118L44.6168 36.0791ZM41.779 35.1193C42.7141 35.687 43.7619 35.8987 44.6063 36.077L45.0195 34.1201C44.1153 33.9292 43.412 33.771 42.8169 33.4097L41.779 35.1193ZM24.7663 37.718C24.5398 37.076 24.0498 36.5676 23.4703 36.2935C22.8803 36.0144 22.1264 35.9502 21.4307 36.3281L22.3855 38.0855C22.4264 38.0632 22.4979 38.046 22.6151 38.1015C22.743 38.162 22.8422 38.2757 22.8803 38.3835L24.7663 37.718ZM23.8879 40.4024C24.6949 39.7859 25.014 38.7657 24.7978 37.8265L22.8488 38.275C22.9004 38.4995 22.8177 38.7032 22.6738 38.8131L23.8879 40.4024ZM22.9751 41.2252C23.301 40.9273 23.615 40.6405 23.9346 40.3645L22.6272 38.8509C22.2829 39.1483 21.9484 39.4541 21.6258 39.7489L22.9751 41.2252ZM22.9787 41.2219L22.9787 41.2219L21.6222 39.7523L21.6221 39.7523L22.9787 41.2219ZM20.9328 42.9594C21.6745 42.4151 22.3476 41.7986 22.975 41.2253L21.6258 39.7489C20.985 40.3345 20.3901 40.8769 19.7495 41.3471L20.9328 42.9594ZM17.5479 41.8118C17.8187 42.2776 18.236 42.7258 18.7738 42.9995C19.3345 43.2849 20.0355 43.3786 20.7421 43.0693L19.9402 41.2372C19.8632 41.2709 19.7924 41.2738 19.681 41.2171C19.5465 41.1487 19.3914 41.0034 19.277 40.8067L17.5479 41.8118ZM18.7185 37.761C16.7902 38.3306 16.3584 40.7335 17.7227 42.0333L19.1023 40.5852C18.7723 40.2709 18.9365 39.782 19.2851 39.679L18.7185 37.761ZM19.7517 37.1964C19.3445 37.4141 18.9481 37.6259 18.5494 37.8282L19.4542 39.6118C19.8753 39.3982 20.2905 39.1762 20.6945 38.9603L19.7517 37.1964ZM21.473 36.3064C20.8833 36.5914 20.3071 36.8995 19.7517 37.1964L20.6945 38.9603C21.256 38.6601 21.7963 38.3715 22.3432 38.1072L21.473 36.3064ZM41.0245 38.6334C40.9868 38.5556 40.9784 38.3916 41.1259 38.2141C41.2686 38.0421 41.4002 38.0408 41.4665 38.0625L42.0908 36.1625C41.0623 35.8245 40.1207 36.2939 39.5871 36.9365C39.0582 37.5735 38.7702 38.5679 39.2248 39.5057L41.0245 38.6334ZM44.1464 41.3309C42.9776 40.399 41.8519 39.4324 40.8485 38.3796L39.4007 39.7594C40.4934 40.906 41.6981 41.9368 42.8997 42.8947L44.1464 41.3309ZM44.9585 39.7838C44.9873 40.0845 44.8417 40.5715 44.5414 40.9223C44.2591 41.2519 44.0556 41.2509 43.9051 41.1886L43.1411 43.037C44.3734 43.5464 45.4439 42.9433 46.0606 42.223C46.6593 41.5238 47.0376 40.5127 46.9493 39.5927L44.9585 39.7838ZM44.2441 39.4977C44.5125 39.6335 44.6877 39.7253 44.8268 39.8304C44.9488 39.9226 44.999 39.9942 45.0264 40.0622L46.8813 39.3143C46.4921 38.3489 45.5862 37.9353 45.147 37.7131L44.2441 39.4977ZM43.92 39.3297C44.0319 39.3904 44.1453 39.4477 44.2441 39.4977L45.147 37.7131C45.0435 37.6608 44.9561 37.6165 44.8739 37.5719L43.92 39.3297ZM42.879 38.786C43.2223 38.9705 43.584 39.1651 43.9551 39.3479L44.8388 37.5537C44.5049 37.3893 44.1745 37.2117 43.826 37.0244L42.879 38.786ZM42.9052 38.7996L42.9053 38.7996L43.7997 37.0108L43.7996 37.0107L42.9052 38.7996ZM42.8378 38.7626L42.8379 38.7626L43.8669 37.0476L43.8668 37.0476L42.8378 38.7626ZM41.3771 38.0284C41.8724 38.2455 42.3549 38.5042 42.8788 38.7859L43.8258 37.0243C43.3137 36.749 42.761 36.4513 42.1801 36.1966L41.3771 38.0284ZM28.7992 43.0716C29.271 42.0643 28.8943 41.0525 28.2905 40.448C27.6921 39.8491 26.6928 39.4698 25.6986 39.8955L26.4858 41.734C26.5597 41.7024 26.7139 41.6997 26.8756 41.8616C27.0318 42.0179 27.0218 42.1511 26.988 42.2233L28.7992 43.0716ZM28.4478 44.0389C28.5753 43.6855 28.6994 43.3419 28.8283 43.0029L26.9589 42.2919C26.8229 42.6495 26.6931 43.0092 26.5666 43.3598L28.4478 44.0389ZM28.465 43.9868L28.465 43.9867L26.5493 43.412L26.5493 43.4121L28.465 43.9868ZM27.2872 46.8892C27.7603 45.9467 28.1158 44.9584 28.4477 44.0389L26.5665 43.3599C26.2277 44.2986 25.9106 45.1736 25.4998 45.9919L27.2872 46.8892ZM22.854 46.7378C23.2836 47.1152 23.9263 47.5694 24.6497 47.7755C25.42 47.995 26.3987 47.9465 27.1435 47.102L25.6435 45.7791C25.574 45.858 25.5255 45.874 25.4914 45.8812C25.442 45.8917 25.3487 45.8951 25.1977 45.852C24.8764 45.7605 24.4946 45.5169 24.1741 45.2353L22.854 46.7378ZM23.1826 42.8518C22.9215 43.2062 22.5017 43.7598 22.2991 44.3712C22.1905 44.6987 22.1276 45.0848 22.1971 45.5018C22.2679 45.927 22.465 46.3149 22.7699 46.6546L24.2582 45.3185C24.1789 45.2302 24.1716 45.1835 24.1699 45.1731C24.1668 45.1546 24.1631 45.1043 24.1975 45.0004C24.2809 44.749 24.4821 44.4597 24.7927 44.0381L23.1826 42.8518ZM23.4695 42.4497C23.3928 42.566 23.2996 42.693 23.1826 42.8518L24.7927 44.0381C24.9025 43.8891 25.0283 43.7188 25.1389 43.5513L23.4695 42.4497ZM24.0039 41.6709C23.8237 41.9615 23.687 42.179 23.5358 42.3606L25.0726 43.6405C25.329 43.3326 25.5379 42.9922 25.7039 42.7244L24.0039 41.6709ZM25.6269 39.9296C24.7793 40.3752 24.3111 41.1751 24.0039 41.6709L25.7039 42.7243C26.0685 42.136 26.2738 41.849 26.5575 41.6999L25.6269 39.9296ZM36.8912 42.1371C36.876 42.0794 36.8821 42.0359 36.905 41.9881C36.9328 41.9303 36.9918 41.8586 37.0854 41.8006C37.2941 41.6713 37.4406 41.7211 37.4991 41.7696L38.7757 40.23C37.8933 39.4983 36.7742 39.6406 36.0319 40.1006C35.2836 40.5643 34.6586 41.5136 34.9572 42.6467L36.8912 42.1371ZM37.5543 43.9282C37.313 43.2973 37.0799 42.6877 36.8715 42.0714L34.9769 42.7123C35.2001 43.3719 35.4474 44.018 35.6864 44.6427L37.5543 43.9282ZM37.569 43.9693L37.569 43.9692L35.6717 44.6017L35.6717 44.6017L37.569 43.9693ZM37.5691 43.9693L37.569 43.9693L35.6717 44.6017L35.6717 44.6018L37.5691 43.9693ZM37.5555 43.9312L37.5554 43.9309L35.6854 44.6402L35.6855 44.6405L37.5555 43.9312ZM38.2123 45.7078C38.0033 45.1016 37.7754 44.506 37.5545 43.9286L35.6865 44.6431C35.9094 45.2258 36.1252 45.7902 36.3214 46.3595L38.2123 45.7078ZM39.6896 44.8266C39.7442 44.9566 39.7369 45.0706 39.6581 45.2115C39.5655 45.3769 39.3756 45.5597 39.1143 45.6869C38.8518 45.8146 38.6072 45.843 38.4461 45.8137C38.3219 45.7911 38.2359 45.7391 38.1653 45.5947L36.3683 46.4726C36.7381 47.2295 37.3845 47.6533 38.0878 47.7813C38.7541 47.9027 39.4319 47.7566 39.9897 47.4851C40.5488 47.213 41.077 46.7715 41.4035 46.1881C41.7436 45.5802 41.856 44.8207 41.5339 44.0529L39.6896 44.8266ZM38.7544 43.5368C39.0842 44.0267 39.4341 44.5469 39.8179 45.0479L41.4056 43.8316C41.0652 43.3873 40.749 42.9182 40.4134 42.4198L38.7544 43.5368ZM38.7519 43.533L38.7519 43.533L40.416 42.4236L40.416 42.4236L38.7519 43.533ZM38.7518 43.533L38.7519 43.533L40.416 42.4236L40.4159 42.4236L38.7518 43.533ZM37.3784 41.6509C37.8655 42.2186 38.2909 42.8484 38.7544 43.5368L40.4134 42.4198C39.9611 41.748 39.472 41.0196 38.8963 40.3486L37.3784 41.6509ZM34.1924 42.5857C33.8163 41.4998 32.782 41.051 31.9146 41.0615C31.0451 41.0719 30.0191 41.5488 29.6798 42.6573L31.5922 43.2427C31.6071 43.1939 31.6324 43.1605 31.6799 43.13C31.7362 43.0938 31.8268 43.0627 31.9387 43.0613C32.188 43.0583 32.2804 43.1762 32.3026 43.2403L34.1924 42.5857ZM34.5717 45.1288C34.4937 44.3616 34.4097 43.5245 34.2233 42.694L32.2718 43.132C32.4277 43.8264 32.5019 44.544 32.582 45.3312L34.5717 45.1288ZM34.813 46.9924C34.7014 46.3979 34.6388 45.788 34.5717 45.1288L32.582 45.3312C32.6476 45.9762 32.7176 46.6702 32.8473 47.3614L34.813 46.9924ZM29.1392 47.3399C29.3881 48.9124 30.882 49.4786 31.9714 49.4728C33.059 49.4669 34.5376 48.8916 34.8144 47.3541L32.846 46.9998C32.8147 47.1739 32.5789 47.4694 31.9606 47.4728C31.344 47.4761 31.1404 47.19 31.1147 47.0273L29.1392 47.3399ZM29.6493 42.787C29.4126 44.2201 29.2525 45.667 29.1306 47.0988L31.1233 47.2685C31.2425 45.8688 31.3972 44.4775 31.6226 43.113L29.6493 42.787Z" fill="url(#paint1_linear_678_171)"/>
<defs>
<linearGradient id="paint0_linear_678_171" x1="3.0003" y1="61" x2="72.9856" y2="30.496" gradientUnits="userSpaceOnUse">
<stop stop-color="#0357D1"/>
<stop offset="1" stop-color="#27CDFC"/>
</linearGradient>
<linearGradient id="paint1_linear_678_171" x1="3.0003" y1="61" x2="72.9856" y2="30.496" gradientUnits="userSpaceOnUse">
<stop stop-color="#0357D1"/>
<stop offset="1" stop-color="#27CDFC"/>
</linearGradient>
</defs>
</svg>
