<svg width="128" height="128" viewBox="0 0 128 128" fill="none" xmlns="http://www.w3.org/2000/svg">
<path fill-rule="evenodd" clip-rule="evenodd" d="M35.9456 20.172C36.8484 18.3023 39.3027 17.4431 41.1217 18.3848C43.2648 19.4424 45.381 20.555 47.4968 21.6674L47.4986 21.6684C49.1916 22.5586 50.8844 23.4486 52.5904 24.31L52.5704 24.3307C55.9081 26.0517 59.2413 27.7911 62.5738 29.5302L63.0873 29.7981C63.6565 30.0952 64.2256 30.3922 64.7948 30.689C69.7628 33.2896 74.7381 35.8771 79.7129 38.4642L79.7137 38.4646L79.7263 38.4712L79.9753 38.6008C85.085 41.2747 90.1997 43.9349 95.3156 46.595L95.3093 46.6018C96.9567 47.4588 98.6024 48.3174 100.248 49.176L100.26 49.1825L100.5 49.3072C103.666 50.9597 106.833 52.6118 110.008 54.2524C113.713 56.0465 116.836 59.1191 118.528 62.9753C119.738 65.8623 120.112 69.0174 119.972 72.1449C119.94 76.5181 119.955 80.8932 119.969 85.2689C119.991 91.9251 120.013 98.5832 119.872 105.236C118.935 107.971 116.541 110.267 113.612 110.309C109.576 110.378 105.54 110.367 101.502 110.355C98.81 110.348 96.1169 110.34 93.4232 110.357H76.6244C73.8459 110.36 71.0679 110.358 68.2887 110.357H68.2783C65.5022 110.355 62.7252 110.353 59.9465 110.357H43.9103C41.5343 110.362 39.1572 110.36 36.7794 110.357H36.7789H36.7783C33.3809 110.353 29.9822 110.35 26.5834 110.37C21.5278 110.673 16.3651 108.858 12.8008 105.092C12.0585 104.239 11.3563 103.345 10.6943 102.424C8.96895 99.6336 7.99929 96.3545 8.01266 93.0416C7.99929 88.6697 7.9926 84.2977 8.01266 79.9264C7.85886 77.6852 9.77143 75.575 11.9716 75.63C16.5375 75.595 21.1035 75.5987 25.6711 75.6031L26.2712 75.6036H26.2752C28.6845 75.6053 31.0942 75.6071 33.5048 75.6025H70.2384C72.3224 75.605 74.4063 75.6037 76.4896 75.6019C79.6152 75.5994 82.7408 75.5969 85.8664 75.6094C88.9517 75.5954 92.037 75.6009 95.1218 75.6064H95.1249L95.4073 75.6069H95.4076H95.4079C99.8982 75.615 104.388 75.6231 108.878 75.575C110.369 75.5956 111.78 74.3449 111.94 72.8121C112.161 70.275 112.054 67.5464 110.676 65.333C109.453 63.0486 107.12 61.8739 104.928 60.7702L104.843 60.7276L104.638 60.6244C102.057 59.2964 99.4847 57.9522 96.9127 56.6083C94.732 55.469 92.5513 54.3297 90.3669 53.2007C85.0438 50.4168 79.7207 47.6398 74.3913 44.8628C71.625 43.426 68.8623 41.9853 66.1003 40.5449L66.0911 40.5401L66.0245 40.5053L66.0148 40.5002L66.0013 40.4932C63.709 39.2976 61.4171 38.1023 59.1239 36.9098C57.1784 35.8981 55.2345 34.8832 53.2906 33.8682L53.1589 33.7994C51.171 32.7614 49.1832 31.7235 47.1938 30.689C46.0131 30.0657 44.8269 29.4529 43.6406 28.8401L43.6403 28.8399L43.6244 28.8317L43.624 28.8315C41.3488 27.6562 39.0732 26.4807 36.8351 25.2312C35.5043 23.9801 35.0696 21.8149 35.9456 20.172ZM24.1624 83.7685H24.1612C22.5308 83.7566 20.9014 83.7448 19.274 83.7959C17.6423 83.6998 16.0574 85.0816 16.0173 86.7861C15.8701 89.4467 15.8501 92.1342 16.1778 94.7873C16.4252 96.2103 17.1341 97.4891 17.8696 98.6987C20.6772 102.415 25.1892 102.308 29.4012 102.207C30.3458 102.184 31.2754 102.163 32.1672 102.184C35.0628 102.187 37.9584 102.186 40.854 102.184H40.8659H40.8659C43.7576 102.182 46.6493 102.18 49.5409 102.184C51.4707 102.186 53.4015 102.186 55.3329 102.185L56.1726 102.185C59.1216 102.184 62.0718 102.182 65.0221 102.191C66.8807 102.191 68.7399 102.189 70.5998 102.187C74.3208 102.184 78.0437 102.181 81.7672 102.191C87.5253 102.184 93.2828 102.184 99.0341 102.184C100.259 102.165 101.484 102.176 102.709 102.187L102.786 102.188C104.727 102.207 106.668 102.225 108.604 102.129C110.449 102.074 112.034 100.341 111.974 98.444C112.034 94.4852 112.034 90.5258 111.954 86.5664C111.593 85.8786 111.198 85.2121 110.77 84.5661C109.794 84.0643 108.75 83.6861 107.648 83.7685C103.153 83.7716 98.6596 83.7703 94.1653 83.7685H94.1477C89.6599 83.7666 85.1715 83.7647 80.6837 83.7685C78.0187 83.7716 75.3544 83.7703 72.6894 83.7685H72.6785C70.0172 83.7666 67.3558 83.7647 64.6944 83.7685C61.7857 83.7716 58.877 83.7703 55.9674 83.7685H55.9564C53.05 83.7666 50.1427 83.7647 47.2338 83.7685C44.0004 83.7716 40.7671 83.7703 37.5337 83.7685H37.5206C34.2916 83.7666 31.0627 83.7647 27.8338 83.7685C26.6102 83.7859 25.3866 83.7772 24.1635 83.7685H24.163H24.1624ZM81.421 62.0183C77.9142 62.0059 74.4099 62.0084 70.9051 62.0109C68.5683 62.0125 66.2313 62.0142 63.8932 62.0114C59.7275 62.0068 55.5618 62.0084 51.3961 62.0099C49.3226 62.0106 47.249 62.0114 45.1754 62.0114C42.7849 62.0215 40.3935 62.0149 38.0018 62.0083H38.0015H38.0012C33.8832 61.9969 29.7645 61.9856 25.6484 62.0595C22.706 62.1695 21.0274 65.9433 22.6057 68.4248C23.582 69.4696 24.8259 70.3153 26.3038 70.2048C28.8408 70.2404 31.38 70.2327 33.9202 70.2251H33.9207C35.7928 70.2194 37.6654 70.2138 39.538 70.2254C43.702 70.2208 47.8659 70.2224 52.0299 70.2239C54.1119 70.2246 56.1938 70.2254 58.2758 70.2254C60.8495 70.2225 63.4233 70.2233 65.997 70.2241C69.4286 70.2253 72.8601 70.2264 76.2914 70.2185C78.6805 70.2104 81.0708 70.2162 83.4613 70.2219H83.4616H83.4622C87.1401 70.2307 90.8187 70.2396 94.4944 70.1979C96.5409 70.3633 98.1524 68.7544 98.7678 66.8782C99.0218 64.6096 97.4172 62.1901 95.1098 62.0664C92.2079 61.9833 89.3029 61.9976 86.3987 62.0119H86.3983C84.7387 62.0201 83.0794 62.0283 81.421 62.0183ZM27.3475 99.1353C30.4498 99.1353 32.9646 96.6207 32.9646 93.5182C32.9646 90.4157 30.4498 87.9011 27.3475 87.9011C24.2453 87.9011 21.7305 90.4157 21.7305 93.5182C21.7305 96.6207 24.2453 99.1353 27.3475 99.1353Z" fill="url(#paint0_linear_678_165)"/>
<path d="M41.1217 18.3848L40.6619 19.2729L40.6705 19.2773L40.6791 19.2816L41.1217 18.3848ZM35.9456 20.172L36.828 20.6425L36.8375 20.6249L36.8462 20.6068L35.9456 20.172ZM47.4968 21.6674L47.0314 22.5526L47.0325 22.5531L47.4968 21.6674ZM47.4986 21.6684L47.964 20.7833L47.9629 20.7827L47.4986 21.6684ZM52.5904 24.31L53.3083 25.0062L54.2547 24.0302L53.0412 23.4174L52.5904 24.31ZM52.5704 24.3307L51.8524 23.6346L50.9144 24.602L52.1121 25.2195L52.5704 24.3307ZM62.5738 29.5302L62.1111 30.4167L62.1111 30.4167L62.5738 29.5302ZM63.0873 29.7981L63.5499 28.9116L63.5499 28.9116L63.0873 29.7981ZM64.7948 30.689L65.2586 29.803L65.2572 29.8023L64.7948 30.689ZM79.7129 38.4642L80.1797 37.5798L80.1743 37.577L79.7129 38.4642ZM79.7137 38.4646L79.247 39.349L79.2521 39.3517L79.7137 38.4646ZM79.7263 38.4712L79.2646 39.3582L79.2647 39.3583L79.7263 38.4712ZM79.9753 38.6008L80.439 37.7147L80.4369 37.7137L79.9753 38.6008ZM95.3156 46.595L96.0556 47.2676L96.9289 46.3067L95.7769 45.7077L95.3156 46.595ZM95.3093 46.6018L94.5693 45.9292L93.6962 46.8899L94.8478 47.489L95.3093 46.6018ZM100.248 49.176L100.711 48.2895L100.711 48.2894L100.248 49.176ZM100.26 49.1825L99.7977 50.069L99.7979 50.0691L100.26 49.1825ZM100.5 49.3072L100.962 48.4207L100.962 48.4206L100.5 49.3072ZM110.008 54.2524L109.549 55.1408L109.56 55.1468L109.572 55.1524L110.008 54.2524ZM118.528 62.9753L119.45 62.5887L119.447 62.5811L119.444 62.5735L118.528 62.9753ZM119.972 72.1449L118.973 72.1L118.972 72.1188L118.972 72.1376L119.972 72.1449ZM119.969 85.2689L118.969 85.2721L118.969 85.2721L119.969 85.2689ZM119.872 105.236L120.818 105.559L120.868 105.412L120.871 105.257L119.872 105.236ZM113.612 110.309L113.598 109.309L113.595 109.309L113.612 110.309ZM101.502 110.355L101.505 109.355L101.505 109.355L101.502 110.355ZM93.4232 110.357V111.357L93.4293 111.357L93.4232 110.357ZM76.6244 110.357L76.6244 109.357L76.6233 109.357L76.6244 110.357ZM68.2887 110.357L68.2894 109.357H68.2887V110.357ZM68.2783 110.357L68.2776 111.357H68.2783V110.357ZM59.9465 110.357L59.9465 111.357L59.9478 111.357L59.9465 110.357ZM43.9103 110.357L43.9103 109.357L43.9079 109.357L43.9103 110.357ZM36.7794 110.357L36.7805 109.357H36.7794V110.357ZM36.7783 110.357L36.7772 111.357H36.7783V110.357ZM26.5834 110.37L26.5775 109.37L26.5506 109.37L26.5236 109.372L26.5834 110.37ZM12.8008 105.092L12.0466 105.748L12.0602 105.764L12.0745 105.779L12.8008 105.092ZM10.6943 102.424L9.84371 102.95L9.86197 102.979L9.88223 103.008L10.6943 102.424ZM8.01266 93.0416L9.01268 93.0457L9.01266 93.0386L8.01266 93.0416ZM8.01266 79.9264L9.01265 79.931L9.01282 79.8944L9.01032 79.8579L8.01266 79.9264ZM11.9716 75.63L11.9466 76.6296L11.9629 76.63L11.9792 76.6299L11.9716 75.63ZM25.6711 75.6031L25.6702 76.6031L25.6704 76.6031L25.6711 75.6031ZM26.2712 75.6036L26.2705 76.6036H26.2712V75.6036ZM26.2752 75.6036L26.2759 74.6036H26.2752V75.6036ZM33.5048 75.6025V74.6025L33.5029 74.6025L33.5048 75.6025ZM70.2384 75.6025L70.2396 74.6025H70.2384V75.6025ZM76.4896 75.6019L76.4888 74.6019L76.4887 74.6019L76.4896 75.6019ZM85.8664 75.6094L85.8624 76.6094L85.8709 76.6093L85.8664 75.6094ZM95.1218 75.6064L95.12 76.6064H95.1218V75.6064ZM95.1249 75.6064L95.1267 74.6064H95.1249V75.6064ZM95.4073 75.6069L95.4055 76.6069H95.4073V75.6069ZM95.4079 75.6069L95.4097 74.6069H95.4079V75.6069ZM108.878 75.575L108.891 74.5751L108.879 74.575L108.867 74.5751L108.878 75.575ZM111.94 72.8121L112.935 72.9161L112.936 72.9075L112.936 72.8988L111.94 72.8121ZM110.676 65.333L109.795 65.8051L109.81 65.8339L109.828 65.8616L110.676 65.333ZM104.928 60.7702L105.377 59.877L105.377 59.8769L104.928 60.7702ZM104.843 60.7276L104.393 61.6207L104.394 61.6209L104.843 60.7276ZM104.638 60.6244L104.18 61.5136L104.188 61.5176L104.638 60.6244ZM96.9127 56.6083L97.3758 55.722L97.3758 55.722L96.9127 56.6083ZM90.3669 53.2007L89.9035 54.0869L89.9078 54.0891L90.3669 53.2007ZM74.3913 44.8628L74.8534 43.976L74.8522 43.9753L74.3913 44.8628ZM66.1003 40.5449L65.6377 41.4314L65.6379 41.4315L66.1003 40.5449ZM66.0911 40.5401L66.5537 39.6535L66.5536 39.6534L66.0911 40.5401ZM66.0245 40.5053L65.5619 41.3919L65.5621 41.392L66.0245 40.5053ZM66.0148 40.5002L66.4774 39.6137L66.4773 39.6136L66.0148 40.5002ZM66.0013 40.4932L66.4639 39.6066L66.4638 39.6066L66.0013 40.4932ZM59.1239 36.9098L59.5853 36.0226L59.5853 36.0225L59.1239 36.9098ZM53.2906 33.8682L52.8277 34.7546L52.8277 34.7546L53.2906 33.8682ZM53.1589 33.7994L52.696 34.6858L52.696 34.6858L53.1589 33.7994ZM47.1938 30.689L46.7269 31.5733L46.7324 31.5762L47.1938 30.689ZM43.6406 28.8401L43.1764 29.7258L43.1817 29.7285L43.6406 28.8401ZM43.6403 28.8399L44.1046 27.9542L44.0993 27.9515L43.6403 28.8399ZM43.6244 28.8317L44.0834 27.9433L44.0769 27.9399L43.6244 28.8317ZM43.624 28.8315L43.1651 29.72L43.1716 29.7233L43.624 28.8315ZM36.8351 25.2312L36.1501 25.9598L36.24 26.0442L36.3476 26.1043L36.8351 25.2312ZM24.1612 83.7685L24.154 84.7685H24.1612V83.7685ZM19.274 83.7959L19.2152 84.7942L19.2603 84.7969L19.3055 84.7954L19.274 83.7959ZM16.0173 86.7861L17.0157 86.8413L17.0166 86.8255L17.017 86.8096L16.0173 86.7861ZM16.1778 94.7873L15.1853 94.9099L15.1883 94.9343L15.1926 94.9586L16.1778 94.7873ZM17.8696 98.6987L17.0152 99.2183L17.0414 99.2613L17.0717 99.3014L17.8696 98.6987ZM29.4012 102.207L29.3775 101.207L29.3772 101.207L29.4012 102.207ZM32.1672 102.184L32.1434 103.183L32.1548 103.184L32.1661 103.184L32.1672 102.184ZM40.854 102.184L40.854 101.184L40.8534 101.184L40.854 102.184ZM40.8659 102.184L40.8659 103.184L40.8666 103.184L40.8659 102.184ZM49.5409 102.184L49.5423 101.184L49.5422 101.184L49.5409 102.184ZM55.3329 102.185L55.3326 101.185L55.3326 101.185L55.3329 102.185ZM56.1726 102.185L56.1729 103.185L56.173 103.185L56.1726 102.185ZM65.0221 102.191L65.0193 103.191H65.0221V102.191ZM70.5998 102.187L70.599 101.187L70.5988 101.187L70.5998 102.187ZM81.7672 102.191L81.7647 103.191L81.7684 103.191L81.7672 102.191ZM99.0341 102.184V103.184H99.0416L99.049 103.184L99.0341 102.184ZM102.709 102.187L102.7 103.187L102.701 103.187L102.709 102.187ZM102.786 102.188L102.796 101.188L102.795 101.188L102.786 102.188ZM108.604 102.129L108.574 101.129L108.564 101.13L108.554 101.13L108.604 102.129ZM111.974 98.444L110.974 98.4289L110.974 98.4522L110.974 98.4756L111.974 98.444ZM111.954 86.5664L112.954 86.5462L112.949 86.3102L112.839 86.1013L111.954 86.5664ZM110.77 84.5661L111.604 84.0136L111.459 83.7961L111.227 83.6767L110.77 84.5661ZM107.648 83.7685L107.648 84.7685L107.685 84.7684L107.722 84.7657L107.648 83.7685ZM94.1653 83.7685L94.1657 82.7685H94.1653V83.7685ZM94.1477 83.7685L94.1473 84.7685H94.1477V83.7685ZM80.6837 83.7685L80.6829 82.7685L80.6825 82.7685L80.6837 83.7685ZM72.6894 83.7685L72.6901 82.7685H72.6894V83.7685ZM72.6785 83.7685L72.6778 84.7685H72.6785V83.7685ZM64.6944 83.7685L64.6955 84.7685L64.6958 84.7685L64.6944 83.7685ZM55.9674 83.7685L55.968 82.7685H55.9674V83.7685ZM55.9564 83.7685L55.9558 84.7685H55.9564V83.7685ZM47.2338 83.7685L47.2347 84.7685L47.2351 84.7685L47.2338 83.7685ZM37.5337 83.7685L37.5343 82.7685H37.5337V83.7685ZM37.5206 83.7685L37.52 84.7685H37.5206V83.7685ZM27.8338 83.7685L27.8326 82.7684L27.8195 82.7686L27.8338 83.7685ZM24.1635 83.7685L24.1707 82.7685H24.1635V83.7685ZM70.9051 62.0109L70.9058 63.0109L70.9058 63.0109L70.9051 62.0109ZM81.421 62.0183L81.427 61.0183L81.4245 61.0183L81.421 62.0183ZM63.8932 62.0114L63.8943 61.0114L63.8943 61.0114L63.8932 62.0114ZM51.3961 62.0099L51.3965 63.0099L51.3965 63.0099L51.3961 62.0099ZM45.1754 62.0114L45.1754 61.0114L45.1712 61.0114L45.1754 62.0114ZM38.0018 62.0083L38.0045 61.0083H38.0018V62.0083ZM38.0012 62.0083L37.9985 63.0083H38.0012V62.0083ZM25.6484 62.0595L25.6305 61.0596L25.6208 61.0598L25.6111 61.0602L25.6484 62.0595ZM22.6057 68.4248L21.7619 68.9615L21.8117 69.0398L21.875 69.1076L22.6057 68.4248ZM26.3038 70.2048L26.3178 69.2049L26.2734 69.2043L26.2292 69.2076L26.3038 70.2048ZM33.9202 70.2251L33.9202 69.225L33.9172 69.2251L33.9202 70.2251ZM33.9207 70.2251L33.9207 71.2251L33.9237 71.225L33.9207 70.2251ZM39.538 70.2254L39.5318 71.2254L39.5391 71.2254L39.538 70.2254ZM52.0299 70.2239L52.0295 71.2239L52.0299 70.2239ZM58.2758 70.2254L58.2758 71.2254L58.277 71.2254L58.2758 70.2254ZM65.997 70.2241L65.9973 69.2241L65.9973 69.2241L65.997 70.2241ZM76.2914 70.2185L76.2937 71.2185L76.2948 71.2185L76.2914 70.2185ZM83.4613 70.2219L83.4589 71.2219H83.4613V70.2219ZM83.4622 70.2219L83.4646 69.2219H83.4622V70.2219ZM94.4944 70.1979L94.575 69.2012L94.5291 69.1975L94.4831 69.198L94.4944 70.1979ZM98.7678 66.8782L99.718 67.1899L99.7501 67.092L99.7616 66.9895L98.7678 66.8782ZM95.1098 62.0664L95.1634 61.0678L95.1509 61.0672L95.1384 61.0668L95.1098 62.0664ZM86.3987 62.0119L86.3987 63.0119L86.4036 63.0119L86.3987 62.0119ZM86.3983 62.0119L86.3983 61.0119L86.3934 61.0119L86.3983 62.0119ZM41.5814 17.4968C39.2417 16.2854 36.1826 17.3815 35.0451 19.7372L36.8462 20.6068C37.5143 19.2231 39.3638 18.6008 40.6619 19.2729L41.5814 17.4968ZM47.9622 20.7823C45.8483 19.6709 43.7207 18.5522 41.5642 17.4881L40.6791 19.2816C42.8088 20.3325 44.9137 21.4391 47.0314 22.5526L47.9622 20.7823ZM47.9629 20.7827L47.9611 20.7818L47.0325 22.5531L47.0343 22.554L47.9629 20.7827ZM53.0412 23.4174C51.3438 22.5602 49.6582 21.6741 47.964 20.7833L47.0332 22.5535C48.7251 23.4431 50.4251 24.3369 52.1396 25.2027L53.0412 23.4174ZM53.2883 25.0268L53.3083 25.0062L51.8725 23.6139L51.8524 23.6346L53.2883 25.0268ZM63.0364 28.6436C59.7043 26.9048 56.3689 25.1642 53.0287 23.4419L52.1121 25.2195C55.4473 26.9392 58.7783 28.6775 62.1111 30.4167L63.0364 28.6436ZM63.5499 28.9116L63.0364 28.6436L62.1111 30.4167L62.6247 30.6847L63.5499 28.9116ZM65.2572 29.8023C64.6882 29.5056 64.1191 29.2086 63.5499 28.9116L62.6247 30.6847C63.1938 30.9817 63.7631 31.2788 64.3324 31.5757L65.2572 29.8023ZM80.1743 37.577C75.1993 34.9898 70.2252 32.4029 65.2586 29.803L64.331 31.5749C69.3004 34.1763 74.277 36.7644 79.2515 39.3514L80.1743 37.577ZM80.1805 37.5802L80.1797 37.5798L79.2461 39.3486L79.247 39.349L80.1805 37.5802ZM80.188 37.5841L80.1754 37.5776L79.2521 39.3517L79.2646 39.3582L80.188 37.5841ZM80.4369 37.7137L80.1879 37.5841L79.2647 39.3583L79.5138 39.4879L80.4369 37.7137ZM95.7769 45.7077C90.6609 43.0476 85.5473 40.388 80.439 37.7147L79.5117 39.4868C84.6227 42.1614 89.7384 44.8221 94.8542 47.4822L95.7769 45.7077ZM96.0493 47.2744L96.0556 47.2676L94.5756 45.9224L94.5693 45.9292L96.0493 47.2744ZM100.711 48.2894C99.065 47.4309 97.4188 46.572 95.7708 45.7147L94.8478 47.489C96.4946 48.3457 98.1397 49.204 99.7854 50.0626L100.711 48.2894ZM100.723 48.296L100.711 48.2895L99.7852 50.0625L99.7977 50.069L100.723 48.296ZM100.962 48.4206L100.723 48.2959L99.7979 50.0691L100.037 50.1938L100.962 48.4206ZM110.467 53.364C107.294 51.7245 104.129 50.0732 100.962 48.4207L100.037 50.1938C103.203 51.8461 106.372 53.4991 109.549 55.1408L110.467 53.364ZM119.444 62.5735C117.649 58.4837 114.347 55.2425 110.444 53.3524L109.572 55.1524C113.079 56.8505 116.023 59.7544 117.612 63.3771L119.444 62.5735ZM120.971 72.1897C121.116 68.9575 120.732 65.6468 119.45 62.5887L117.606 63.3619C118.744 66.0778 119.109 69.0773 118.973 72.1L120.971 72.1897ZM120.969 85.2656C120.955 80.889 120.94 76.5192 120.972 72.1521L118.972 72.1376C118.94 76.517 118.955 80.8973 118.969 85.2721L120.969 85.2656ZM120.871 105.257C121.013 98.5901 120.991 91.9198 120.969 85.2656L118.969 85.2721C118.991 91.9304 119.013 98.5763 118.872 105.214L120.871 105.257ZM113.626 111.308C117.097 111.26 119.788 108.568 120.818 105.559L118.925 104.912C118.083 107.374 115.985 109.275 113.598 109.309L113.626 111.308ZM101.499 111.355C105.535 111.367 109.582 111.378 113.63 111.308L113.595 109.309C109.571 109.378 105.544 109.367 101.505 109.355L101.499 111.355ZM93.4293 111.357C96.1178 111.34 98.8065 111.348 101.499 111.355L101.505 109.355C98.8135 109.348 96.116 109.34 93.4172 109.357L93.4293 111.357ZM76.6244 111.357H93.4232V109.357H76.6244V111.357ZM68.288 111.357C71.0673 111.358 73.846 111.36 76.6256 111.357L76.6233 109.357C73.8457 109.36 71.0685 109.358 68.2894 109.357L68.288 111.357ZM68.2783 111.357H68.2887V109.357H68.2783V111.357ZM59.9478 111.357C62.7254 111.353 65.5013 111.355 68.2776 111.357L68.2789 109.357C65.503 109.355 62.725 109.353 59.9451 109.357L59.9478 111.357ZM43.9103 111.357H59.9465V109.357H43.9103V111.357ZM36.7784 111.357C39.1559 111.36 41.5347 111.362 43.9126 111.357L43.9079 109.357C41.534 109.362 39.1585 109.36 36.7805 109.357L36.7784 111.357ZM36.7789 111.357H36.7794V109.357H36.7789V111.357ZM36.7783 111.357H36.7789V109.357H36.7783V111.357ZM26.5893 111.37C29.984 111.35 33.3794 111.353 36.7772 111.357L36.7794 109.357C33.3824 109.353 29.9803 109.35 26.5775 109.37L26.5893 111.37ZM12.0745 105.779C15.8602 109.779 21.3199 111.687 26.6432 111.369L26.5236 109.372C21.7357 109.659 16.8701 107.937 13.5271 104.404L12.0745 105.779ZM9.88223 103.008C10.5609 103.952 11.2822 104.87 12.0466 105.748L13.555 104.435C12.8348 103.608 12.1518 102.739 11.5063 101.84L9.88223 103.008ZM7.01267 93.0376C6.99851 96.5457 8.02432 100.007 9.84371 102.95L11.5448 101.898C9.91358 99.2598 9.00007 96.1633 9.01266 93.0457L7.01267 93.0376ZM7.01267 79.9218C6.99259 84.297 6.99929 88.6719 7.01267 93.0447L9.01266 93.0386C8.99929 88.6674 8.9926 84.2985 9.01265 79.931L7.01267 79.9218ZM11.9965 74.6303C9.16474 74.5596 6.82385 77.2093 7.01501 79.9949L9.01032 79.8579C8.89386 78.161 10.3781 76.5905 11.9466 76.6296L11.9965 74.6303ZM25.6721 74.6031C21.1051 74.5987 16.5348 74.595 11.9639 74.63L11.9792 76.6299C16.5402 76.595 21.102 76.5987 25.6702 76.6031L25.6721 74.6031ZM26.272 74.6036L25.6719 74.6031L25.6704 76.6031L26.2705 76.6036L26.272 74.6036ZM26.2752 74.6036H26.2712V76.6036H26.2752V74.6036ZM33.5029 74.6025C31.0938 74.6071 28.6854 74.6053 26.2759 74.6036L26.2744 76.6036C28.6835 76.6053 31.0946 76.6071 33.5067 76.6025L33.5029 74.6025ZM70.2384 74.6025H33.5048V76.6025H70.2384V74.6025ZM76.4887 74.6019C74.4055 74.6037 72.3225 74.605 70.2396 74.6025L70.2372 76.6025C72.3223 76.605 74.4071 76.6037 76.4905 76.6019L76.4887 74.6019ZM85.8704 74.6094C82.742 74.5969 79.614 74.5994 76.4888 74.6019L76.4904 76.6019C79.6164 76.5994 82.7396 76.5969 85.8624 76.6093L85.8704 74.6094ZM95.1236 74.6064C92.0393 74.6009 88.9509 74.5954 85.8619 74.6094L85.8709 76.6093C88.9526 76.5954 92.0347 76.6009 95.12 76.6064L95.1236 74.6064ZM95.1249 74.6064H95.1218V76.6064H95.1249V74.6064ZM95.4091 74.6069L95.1267 74.6064L95.1232 76.6064L95.4055 76.6069L95.4091 74.6069ZM95.4076 74.6069H95.4073V76.6069H95.4076V74.6069ZM95.4079 74.6069H95.4076V76.6069H95.4079V74.6069ZM108.867 74.5751C104.385 74.6231 99.9011 74.615 95.4097 74.6069L95.4061 76.6069C99.8954 76.615 104.391 76.6231 108.888 76.575L108.867 74.5751ZM110.946 72.708C110.838 73.7352 109.856 74.5885 108.891 74.5751L108.864 76.5749C110.881 76.6028 112.722 74.9546 112.935 72.9161L110.946 72.708ZM109.828 65.8616C111.027 67.7886 111.16 70.2403 110.944 72.7253L112.936 72.8988C113.162 70.3097 113.082 67.3041 111.525 64.8045L109.828 65.8616ZM104.478 61.6634C106.728 62.7958 108.746 63.8461 109.795 65.8051L111.558 64.861C110.16 62.2512 107.513 60.952 105.377 59.877L104.478 61.6634ZM104.394 61.6209L104.478 61.6636L105.377 59.8769L105.292 59.8343L104.394 61.6209ZM104.188 61.5176L104.393 61.6207L105.293 59.8345L105.088 59.7313L104.188 61.5176ZM96.4496 57.4946C99.0211 58.8383 101.597 60.1839 104.18 61.5136L105.096 59.7353C102.518 58.4089 99.9482 57.0661 97.3758 55.722L96.4496 57.4946ZM89.9078 54.0891C92.0899 55.2169 94.2687 56.3551 96.4496 57.4946L97.3758 55.722C95.1954 54.5828 93.0128 53.4426 90.8261 52.3124L89.9078 54.0891ZM73.9292 45.7496C79.2583 48.5265 84.581 51.3033 89.9035 54.0868L90.8304 52.3146C85.5067 49.5304 80.1831 46.7531 74.8534 43.976L73.9292 45.7496ZM65.6379 41.4315C68.3997 42.8719 71.1632 44.313 73.9304 45.7502L74.8522 43.9753C72.0867 42.5391 69.3248 41.0987 66.5627 39.6582L65.6379 41.4315ZM65.6285 41.4266L65.6377 41.4314L66.5629 39.6583L66.5537 39.6535L65.6285 41.4266ZM65.5621 41.392L65.6287 41.4267L66.5536 39.6534L66.487 39.6187L65.5621 41.392ZM65.5522 41.3868L65.5619 41.3919L66.4871 39.6187L66.4774 39.6137L65.5522 41.3868ZM65.5388 41.3798L65.5523 41.3868L66.4773 39.6136L66.4639 39.6066L65.5388 41.3798ZM58.6626 37.797C60.9551 38.9892 63.2465 40.1842 65.5389 41.3799L66.4638 39.6066C64.1715 38.411 61.8791 37.2154 59.5853 36.0226L58.6626 37.797ZM52.8277 34.7546C54.7715 35.7695 56.7162 36.7849 58.6626 37.797L59.5853 36.0225C57.6406 35.0114 55.6975 33.9968 53.7534 32.9817L52.8277 34.7546ZM52.696 34.6858L52.8277 34.7546L53.7534 32.9817L53.6217 32.913L52.696 34.6858ZM46.7324 31.5762C48.721 32.6103 50.7081 33.6478 52.696 34.6858L53.6217 32.913C51.634 31.8751 49.6454 30.8368 47.6551 29.8018L46.7324 31.5762ZM43.1817 29.7285C44.3686 30.3417 45.5508 30.9525 46.7269 31.5733L47.6606 29.8046C46.4753 29.1789 45.2852 28.5641 44.0996 27.9516L43.1817 29.7285ZM43.176 29.7256L43.1764 29.7258L44.1049 27.9544L44.1046 27.9542L43.176 29.7256ZM43.1654 29.7202L43.1813 29.7284L44.0993 27.9515L44.0834 27.9433L43.1654 29.7202ZM43.1716 29.7233L43.172 29.7235L44.0769 27.9399L44.0765 27.9397L43.1716 29.7233ZM36.3476 26.1043C38.6022 27.363 40.8922 28.5459 43.1651 29.72L44.083 27.9431C41.8054 26.7665 39.5442 25.5983 37.3225 24.358L36.3476 26.1043ZM35.0632 19.7015C33.9607 21.7693 34.5128 24.4205 36.1501 25.9598L37.52 24.5026C36.4959 23.5398 36.1786 21.8605 36.828 20.6425L35.0632 19.7015ZM24.1612 84.7685H24.1624V82.7685H24.1612V84.7685ZM19.3055 84.7954C20.9102 84.745 22.5203 84.7566 24.154 84.7684L24.1685 82.7685C22.5413 82.7567 20.8925 82.7446 19.2426 82.7964L19.3055 84.7954ZM17.017 86.8096C17.0433 85.6897 18.1298 84.7303 19.2152 84.7942L19.3328 82.7977C17.1547 82.6694 15.0714 84.4735 15.0175 86.7625L17.017 86.8096ZM17.1702 94.6647C16.8529 92.0949 16.8702 89.4734 17.0157 86.8413L15.0188 86.7309C14.8701 89.42 14.8474 92.1735 15.1853 94.9099L17.1702 94.6647ZM18.724 98.179C17.9912 96.974 17.3751 95.8362 17.163 94.616L15.1926 94.9586C15.4752 96.5844 16.2769 98.0043 17.0152 99.2183L18.724 98.179ZM29.3772 101.207C25.0451 101.311 21.1164 101.338 18.6676 98.0959L17.0717 99.3014C20.2381 103.493 25.3334 103.305 29.4252 103.207L29.3772 101.207ZM32.191 101.184C31.2712 101.162 30.3176 101.185 29.3775 101.207L29.425 103.207C30.3741 103.184 31.2795 103.163 32.1434 103.183L32.191 101.184ZM40.8534 101.184C37.9578 101.186 35.063 101.187 32.1683 101.184L32.1661 103.184C35.0627 103.187 37.959 103.186 40.8547 103.184L40.8534 101.184ZM40.8659 101.184H40.854V103.184H40.8659V101.184ZM40.8659 101.184H40.8659V103.184H40.8659V101.184ZM49.5422 101.184C46.6494 101.18 43.7568 101.182 40.8653 101.184L40.8666 103.184C43.7584 103.182 46.6491 103.18 49.5396 103.184L49.5422 101.184ZM55.3326 101.185C53.4011 101.186 51.4711 101.186 49.5423 101.184L49.5395 103.184C51.4703 103.186 53.402 103.186 55.3332 103.185L55.3326 101.185ZM56.1723 101.185L55.3326 101.185L55.3332 103.185L56.1729 103.185L56.1723 101.185ZM65.0248 101.191C62.0727 101.182 59.1209 101.184 56.1722 101.185L56.173 103.185C59.1223 103.184 62.0709 103.182 65.0193 103.191L65.0248 101.191ZM70.5988 101.187C68.7391 101.189 66.8802 101.191 65.0221 101.191V103.191C66.8811 103.191 68.7407 103.189 70.6008 103.187L70.5988 101.187ZM81.7697 101.191C78.0442 101.181 74.3197 101.184 70.599 101.187L70.6007 103.187C74.3219 103.184 78.0431 103.181 81.7647 103.191L81.7697 101.191ZM99.0341 101.184C93.2829 101.184 87.5248 101.184 81.766 101.191L81.7684 103.191C87.5258 103.184 93.2827 103.184 99.0341 103.184V101.184ZM102.718 101.187C101.495 101.176 100.258 101.165 99.0191 101.184L99.049 103.184C100.26 103.165 101.473 103.176 102.7 103.187L102.718 101.187ZM102.795 101.188L102.718 101.187L102.701 103.187L102.777 103.188L102.795 101.188ZM108.554 101.13C106.653 101.224 104.742 101.207 102.796 101.188L102.777 103.188C104.713 103.207 106.683 103.225 108.653 103.128L108.554 101.13ZM110.974 98.4756C111.018 99.8466 109.841 101.092 108.574 101.129L108.633 103.128C111.058 103.056 113.05 100.836 112.973 98.4125L110.974 98.4756ZM110.954 86.5866C111.034 90.5326 111.034 94.4801 110.974 98.4289L112.974 98.4591C113.034 94.4903 113.034 90.519 112.954 86.5462L110.954 86.5866ZM109.936 85.1186C110.346 85.7362 110.723 86.3735 111.069 87.0315L112.839 86.1013C112.462 85.3837 112.051 84.688 111.604 84.0136L109.936 85.1186ZM107.722 84.7657C108.551 84.7037 109.396 84.9842 110.313 85.4555L111.227 83.6767C110.192 83.1444 108.949 82.6684 107.573 82.7712L107.722 84.7657ZM94.1649 84.7685C98.6592 84.7703 103.153 84.7716 107.648 84.7685L107.647 82.7685C103.153 82.7716 98.66 82.7703 94.1657 82.7685L94.1649 84.7685ZM94.1477 84.7685H94.1653V82.7685H94.1477V84.7685ZM80.6845 84.7685C85.1716 84.7647 89.6594 84.7666 94.1473 84.7685L94.1481 82.7685C89.6604 82.7666 85.1714 82.7647 80.6829 82.7685L80.6845 84.7685ZM72.6887 84.7685C75.3537 84.7703 78.0189 84.7716 80.6849 84.7685L80.6825 82.7685C78.0186 82.7716 75.355 82.7703 72.6901 82.7685L72.6887 84.7685ZM72.6785 84.7685H72.6894V82.7685H72.6785V84.7685ZM64.6958 84.7685C67.3559 84.7647 70.0163 84.7666 72.6778 84.7685L72.6792 82.7685C70.018 82.7666 67.3556 82.7647 64.693 82.7685L64.6958 84.7685ZM55.9667 84.7685C58.8764 84.7703 61.7858 84.7716 64.6955 84.7685L64.6933 82.7685C61.7855 82.7716 58.8776 82.7703 55.968 82.7685L55.9667 84.7685ZM55.9564 84.7685H55.9674V82.7685H55.9564V84.7685ZM47.2351 84.7685C50.1429 84.7647 53.0492 84.7666 55.9558 84.7685L55.9571 82.7685C53.0508 82.7666 50.1425 82.7647 47.2325 82.7685L47.2351 84.7685ZM37.5331 84.7685C40.7666 84.7703 44.0005 84.7716 47.2347 84.7685L47.2328 82.7685C44.0003 82.7716 40.7676 82.7703 37.5343 82.7685L37.5331 84.7685ZM37.5206 84.7685H37.5337V82.7685H37.5206V84.7685ZM27.8349 84.7685C31.0628 84.7647 34.2909 84.7666 37.52 84.7685L37.5211 82.7685C34.2924 82.7666 31.0626 82.7647 27.8326 82.7685L27.8349 84.7685ZM24.1564 84.7684C25.3777 84.7772 26.612 84.786 27.8481 84.7684L27.8195 82.7686C26.6084 82.7859 25.3955 82.7772 24.1707 82.7685L24.1564 84.7684ZM24.163 84.7685H24.1635V82.7685H24.163V84.7685ZM24.1624 84.7685H24.163V82.7685H24.1624V84.7685ZM70.9058 63.0109C74.411 63.0084 77.9132 63.0059 81.4175 63.0183L81.4245 61.0183C77.9153 61.0059 74.4089 61.0084 70.9044 61.0109L70.9058 63.0109ZM63.892 63.0114C66.2312 63.0142 68.5692 63.0125 70.9058 63.0109L70.9044 61.0109C68.5675 61.0125 66.2314 61.0142 63.8943 61.0114L63.892 63.0114ZM51.3965 63.0099C55.5623 63.0084 59.7272 63.0068 63.8921 63.0114L63.8943 61.0114C59.7277 61.0068 55.5613 61.0084 51.3958 61.0099L51.3965 63.0099ZM45.1754 63.0114C47.2492 63.0114 49.323 63.0106 51.3965 63.0099L51.3958 61.0099C49.3222 61.0106 47.2488 61.0114 45.1754 61.0114V63.0114ZM37.999 63.0083C40.3901 63.0149 42.7851 63.0215 45.1797 63.0114L45.1712 61.0114C42.7848 61.0215 40.3968 61.0149 38.0045 61.0083L37.999 63.0083ZM38.0015 63.0083H38.0018V61.0083H38.0015V63.0083ZM38.0012 63.0083H38.0015V61.0083H38.0012V63.0083ZM25.6664 63.0593C29.7703 62.9856 33.8787 62.9969 37.9985 63.0083L38.004 61.0083C33.8877 60.9969 29.7586 60.9855 25.6305 61.0596L25.6664 63.0593ZM23.4495 67.8882C22.8741 66.9835 22.8664 65.7886 23.3383 64.775C23.8081 63.7662 24.6719 63.0967 25.6858 63.0588L25.6111 61.0602C23.6825 61.1323 22.2359 62.4047 21.5253 63.9307C20.8169 65.4519 20.759 67.3846 21.7619 68.9615L23.4495 67.8882ZM26.2292 69.2076C25.2036 69.2843 24.2368 68.7057 23.3363 67.742L21.875 69.1076C22.9272 70.2335 24.4482 71.3463 26.3783 71.202L26.2292 69.2076ZM33.9172 69.2251C31.3756 69.2327 28.8449 69.2403 26.3178 69.2049L26.2897 71.2047C28.8367 71.2404 31.3845 71.2327 33.9232 71.225L33.9172 69.2251ZM33.9207 69.2251H33.9202V71.2251H33.9207V69.2251ZM39.5442 69.2254C37.6662 69.2137 35.789 69.2194 33.9177 69.2251L33.9237 71.225C35.7966 71.2194 37.6646 71.2138 39.5318 71.2254L39.5442 69.2254ZM52.0302 69.2239C47.8664 69.2224 43.7018 69.2208 39.5369 69.2254L39.5391 71.2254C43.7023 71.2208 47.8654 71.2224 52.0295 71.2239L52.0302 69.2239ZM58.2758 69.2254C56.194 69.2254 54.1122 69.2246 52.0302 69.2239L52.0295 71.2239C54.1115 71.2246 56.1936 71.2254 58.2758 71.2254V69.2254ZM65.9973 69.2241C63.4237 69.2233 60.8492 69.2225 58.2747 69.2254L58.277 71.2254C60.8498 71.2225 63.4228 71.2233 65.9967 71.2241L65.9973 69.2241ZM76.2891 69.2185C72.8594 69.2264 69.4291 69.2253 65.9973 69.2241L65.9967 71.2241C69.4281 71.2253 72.8609 71.2264 76.2937 71.2185L76.2891 69.2185ZM83.4637 69.2219C81.0737 69.2162 78.6805 69.2104 76.288 69.2185L76.2948 71.2185C78.6805 71.2104 81.0679 71.2162 83.4589 71.2219L83.4637 69.2219ZM83.4616 69.2219H83.4613V71.2219H83.4616V69.2219ZM83.4622 69.2219H83.4616V71.2219H83.4622V69.2219ZM94.4831 69.198C90.8153 69.2395 87.1437 69.2307 83.4646 69.2219L83.4598 71.2219C87.1366 71.2307 90.822 71.2396 94.5058 71.1979L94.4831 69.198ZM97.8176 66.5666C97.2837 68.1941 95.9873 69.3153 94.575 69.2012L94.4139 71.1947C97.0946 71.4113 99.0211 69.3146 99.718 67.1899L97.8176 66.5666ZM95.0563 63.065C96.6515 63.1505 97.9805 64.9226 97.774 66.767L99.7616 66.9895C100.063 64.2966 98.1829 61.2297 95.1634 61.0678L95.0563 63.065ZM86.4036 63.0119C89.3106 62.9976 92.1988 62.9834 95.0812 63.066L95.1384 61.0668C92.2169 60.9831 89.2951 60.9976 86.3938 61.0119L86.4036 63.0119ZM86.3983 63.0119H86.3987V61.0119H86.3983V63.0119ZM81.415 63.0183C83.0797 63.0283 84.7446 63.0201 86.4033 63.0119L86.3934 61.0119C84.7329 61.0201 83.079 61.0283 81.427 61.0183L81.415 63.0183ZM31.9646 93.5182C31.9646 96.0684 29.8975 98.1353 27.3475 98.1353V100.135C31.002 100.135 33.9646 97.173 33.9646 93.5182H31.9646ZM27.3475 88.9011C29.8975 88.9011 31.9646 90.968 31.9646 93.5182H33.9646C33.9646 89.8634 31.002 86.9011 27.3475 86.9011V88.9011ZM22.7305 93.5182C22.7305 90.968 24.7976 88.9011 27.3475 88.9011V86.9011C23.693 86.9011 20.7305 89.8634 20.7305 93.5182H22.7305ZM27.3475 98.1353C24.7976 98.1353 22.7305 96.0684 22.7305 93.5182H20.7305C20.7305 97.173 23.693 100.135 27.3475 100.135V98.1353Z" fill="url(#paint1_linear_678_165)"/>
<defs>
<linearGradient id="paint0_linear_678_165" x1="24.4019" y1="96.8703" x2="88.55" y2="19.1173" gradientUnits="userSpaceOnUse">
<stop stop-color="#0072FF"/>
<stop offset="1" stop-color="#00E5A1"/>
</linearGradient>
<linearGradient id="paint1_linear_678_165" x1="24.4019" y1="96.8703" x2="88.55" y2="19.1173" gradientUnits="userSpaceOnUse">
<stop stop-color="#0072FF"/>
<stop offset="1" stop-color="#00E5A1"/>
</linearGradient>
</defs>
</svg>
