<svg width="192" height="192" viewBox="0 0 192 192" fill="none" xmlns="http://www.w3.org/2000/svg">
<path d="M37.1673 12.9637C52.4861 5.98219 71.3767 8.4202 84.6212 18.7263C100.173 16.6761 116.379 18.8039 130.511 25.7965C150.611 35.4598 166.251 54.0108 171.942 75.6093C175.003 86.0151 174.804 96.9307 174.271 107.636C178.253 114.119 181.969 121 182.979 128.669C185.342 142.643 180.871 157.57 171.187 167.932C162.125 177.883 148.57 183.38 135.159 183.059C123.9 182.527 112.619 178.282 104.532 170.315C101.249 166.658 103.7 160.186 108.548 159.532C112.341 158.668 114.948 162.003 117.777 163.832C129.768 172.276 147.25 171.323 158.276 161.682C167.427 154.08 171.942 141.391 169.49 129.744C168.448 123.693 165.297 118.263 161.437 113.587C159.063 111.038 160.206 107.481 160.583 104.444C163.034 87.5888 158.098 69.9576 147.66 56.5486C134.615 39.2609 112.386 29.6419 90.8441 31.6034C86.6178 31.6255 81.6816 34.1743 78.1431 30.7279C71.0439 24.511 61.3601 21.4635 51.9758 22.6603C36.4795 24.0566 23.3792 37.7649 22.4918 53.2462C21.6821 62.1449 24.8434 71.1544 30.6781 77.87C32.6637 79.898 32.9632 82.7903 32.2976 85.4389C29.225 102.76 33.8949 121.145 44.566 135.085C53.795 147.408 67.6274 156.074 82.68 159.277C86.396 159.798 89.2024 163.643 88.2928 167.334C87.6938 171.101 83.4675 173.528 79.8514 172.387C63.0905 168.863 47.6053 159.576 36.6126 146.433C22.0481 129.622 15.5812 106.45 18.7314 84.4969C11.5324 75.0109 7.92729 62.8541 9.28058 50.9855C10.8446 34.4957 21.9261 19.4355 37.1673 12.9637Z" fill="url(#paint0_linear_641_174)" stroke="url(#paint1_linear_641_174)" stroke-width="4"/>
<path d="M89.247 55.3628C100.838 53.4013 113.828 55.5512 122.802 63.5634C125.42 66.1233 128.514 69.2705 128.004 73.271C127.671 77.1829 123.689 80.2415 119.818 79.6431C115.348 79.4769 113.961 74.4568 110.367 72.6615C103.257 68.7497 94.3828 68.4504 86.851 71.3317C83.8005 72.595 80.5726 74.4235 79.2858 77.6373C78.4206 81.4383 81.937 84.242 84.9541 85.727C91.2991 89.1402 98.7311 87.9655 105.52 89.6943C112.896 91.4452 120.151 95.2463 124.499 101.641C128.381 107.104 129.147 114.617 126.307 120.701C123.39 127.273 117.2 131.772 110.644 134.31C100.838 138.022 89.6685 138.033 79.8405 134.398C73.8838 132.104 68.1822 128.248 65.043 122.563C62.5028 117.853 66.6958 111.537 72.0091 112.057C76.6347 111.913 78.2099 117 81.7373 118.939C88.9918 123.106 98.2208 123.294 105.919 120.225C109.025 118.873 112.585 116.834 113.196 113.188C113.284 109.608 109.957 107.314 107.095 105.896C100.75 102.549 93.329 103.801 86.5847 102.006C78.6647 100.1 70.8444 95.6896 66.8178 88.3756C63.368 82.3471 63.601 74.4679 67.3614 68.6278C72.0979 61.1032 80.7057 56.8921 89.247 55.3628Z" fill="url(#paint2_linear_641_174)" stroke="url(#paint3_linear_641_174)" stroke-width="4"/>
<defs>
<linearGradient id="paint0_linear_641_174" x1="96.3001" y1="183.072" x2="96.3001" y2="9" gradientUnits="userSpaceOnUse">
<stop stop-color="#5570FF"/>
<stop offset="1" stop-color="#4DD3FF"/>
</linearGradient>
<linearGradient id="paint1_linear_641_174" x1="96.3001" y1="183.072" x2="96.3001" y2="9" gradientUnits="userSpaceOnUse">
<stop stop-color="#5570FF"/>
<stop offset="1" stop-color="#4DD3FF"/>
</linearGradient>
<linearGradient id="paint2_linear_641_174" x1="96.1707" y1="137.109" x2="96.1707" y2="54.6831" gradientUnits="userSpaceOnUse">
<stop stop-color="#5570FF"/>
<stop offset="1" stop-color="#4DD3FF"/>
</linearGradient>
<linearGradient id="paint3_linear_641_174" x1="96.1705" y1="137.109" x2="96.1705" y2="54.6831" gradientUnits="userSpaceOnUse">
<stop stop-color="#5570FF"/>
<stop offset="1" stop-color="#4DD3FF"/>
</linearGradient>
</defs>
</svg>
