<svg width="64" height="64" viewBox="0 0 64 64" fill="none" xmlns="http://www.w3.org/2000/svg">
<path d="M34.9339 0.333398C38.0216 -0.611351 41.6175 0.502545 43.5531 3.0315C44.7474 4.50845 45.2726 6.41032 45.2176 8.27094C45.2091 16.1177 45.2218 23.9604 45.2049 31.8072C45.2769 32.8592 44.667 33.9359 43.6166 34.2866C42.1554 34.8972 40.3172 33.7379 40.3384 32.1784C40.2621 24.0759 40.3511 15.9651 40.2918 7.86251C40.3553 6.27418 38.9449 4.82199 37.31 4.80961C35.6328 4.75185 34.1419 6.22467 34.197 7.85426C33.9386 9.50035 34.6629 11.658 33.0788 12.8297C31.6896 13.9147 29.3686 12.9452 29.233 11.2207C29.1441 9.80977 29.2457 8.39471 29.3474 6.99202C29.5846 3.935 31.9268 1.19564 34.9339 0.333398Z" fill="url(#paint0_linear)"/>
<path d="M51.863 17.2234C54.1967 16.2126 57.1742 17.5122 57.9578 19.872C58.9446 22.3308 57.2081 25.3796 54.5186 25.7921C52.8414 25.9572 51.126 25.9654 49.453 25.7467C49.3429 25.6147 49.1142 25.3466 49.0041 25.2104C48.9109 23.6799 48.949 22.1328 49.1142 20.6105C49.3344 19.1129 50.4356 17.801 51.863 17.2234Z" fill="url(#paint1_linear)"/>
<path d="M20.0888 6.04721C22.0159 5.3995 24.3157 6.16272 25.4 7.8542C26.4123 9.31876 26.1327 11.167 26.1497 12.8337C26.0988 13.6052 26.2894 14.9006 25.1205 14.8759C22.6681 14.8635 19.5678 15.2802 17.9117 13.0771C15.9761 10.7916 17.1494 6.88882 20.0888 6.04721Z" fill="url(#paint2_linear)"/>
<path d="M6.89105 18.7044C15.4721 18.5435 24.0615 18.6673 32.6468 18.6466C33.9979 18.5518 35.2431 19.7234 35.1626 21.0477C35.2135 22.3596 33.9767 23.523 32.6341 23.4075C24.3622 23.457 16.0904 23.3663 7.82708 23.4529C5.53571 23.4694 4.04907 26.3408 5.47218 28.123C6.8614 30.0703 9.56361 29.1998 11.5966 29.5711C13.4475 29.8145 14.2014 32.3104 12.9096 33.5646C11.7618 34.728 9.94904 34.2247 8.48358 34.2618C6.14561 34.2907 3.75682 33.4986 2.16853 31.7824C-0.00424968 29.5876 -0.605683 26.118 0.643773 23.3333C1.70687 20.8703 4.15919 19.0179 6.89105 18.7044Z" fill="url(#paint3_linear)"/>
<path d="M20.0676 29.8392C21.5415 28.9729 23.6804 30.1033 23.6635 31.7947C23.7355 39.7735 23.6677 47.7564 23.6889 55.7352C23.6423 56.8244 24.0192 57.9837 24.9849 58.619C26.3276 59.6339 28.4453 59.2007 29.3135 57.7939C30.4825 55.9003 29.1653 53.3837 30.4825 51.5602C31.7023 49.976 34.6333 50.7805 34.7646 52.7731C34.7815 55.2979 34.989 58.0621 33.5363 60.2898C31.8463 63.0581 28.2716 64.5557 25.0484 63.8089C21.4483 63.1158 18.7038 59.7288 18.7885 56.1643C18.7758 48.169 18.7758 40.1778 18.7885 32.1825C18.7419 31.246 19.1824 30.2724 20.0676 29.8392Z" fill="url(#paint4_linear)"/>
<path d="M51.8206 29.9176C53.4216 29.4472 55.1455 29.7938 56.7888 29.8268C60.7786 30.0743 64.0949 33.6924 63.9975 37.5704C64.1077 41.5887 60.5287 45.3141 56.3737 45.3388C48.0299 45.3677 39.6861 45.3594 31.3423 45.3429C29.97 45.4502 28.7332 44.2332 28.8307 42.9006C28.8137 41.6093 30.0293 40.4913 31.3507 40.5821C39.5506 40.5449 47.7588 40.6068 55.9629 40.5573C58.3559 40.6976 60.0205 37.7107 58.5169 35.8542C56.9455 33.6965 53.9214 35.0415 51.7613 34.2246C50.0036 33.4243 50.029 30.6601 51.8206 29.9176Z" fill="url(#paint5_linear)"/>
<path d="M9.05964 37.3725C10.7708 37.0961 12.5412 37.1579 14.2565 37.3353C15.2307 37.6282 14.841 38.8783 14.9173 39.6209C14.8707 41.4361 15.002 43.5484 13.5111 44.8974C11.512 47.0015 7.54335 46.4775 6.2219 43.9032C4.73949 41.4856 6.23884 38.0037 9.05964 37.3725Z" fill="url(#paint6_linear)"/>
<path d="M38.0132 48.5362C38.1487 48.4619 38.4155 48.3216 38.5468 48.2515C40.9229 48.2886 43.8284 47.7812 45.6369 49.6707C47.4285 51.4076 47.31 54.5677 45.3701 56.1561C43.5108 57.8682 40.2071 57.5794 38.6993 55.5661C37.4668 54.1057 37.704 52.0965 37.7124 50.3349C37.8056 49.745 37.6362 49.0436 38.0132 48.5362Z" fill="url(#paint7_linear)"/>
<defs>
<linearGradient id="paint0_linear" x1="37.2102" y1="0" x2="37.2102" y2="34.4524" gradientUnits="userSpaceOnUse">
<stop stop-color="#00FFE0"/>
<stop offset="1" stop-color="#078AA7"/>
</linearGradient>
<linearGradient id="paint1_linear" x1="53.5959" y1="16.8773" x2="53.5959" y2="25.9137" gradientUnits="userSpaceOnUse">
<stop stop-color="#00FFE0"/>
<stop offset="1" stop-color="#078AA7"/>
</linearGradient>
<linearGradient id="paint2_linear" x1="21.5677" y1="14.8997" x2="21.5677" y2="5.81799" gradientUnits="userSpaceOnUse">
<stop stop-color="#02AA93"/>
<stop offset="1" stop-color="#67FF80"/>
</linearGradient>
<linearGradient id="paint3_linear" x1="17.5832" y1="34.3389" x2="17.5832" y2="18.6205" gradientUnits="userSpaceOnUse">
<stop stop-color="#02AA93"/>
<stop offset="1" stop-color="#67FF80"/>
</linearGradient>
<linearGradient id="paint4_linear" x1="26.7815" y1="64" x2="26.7815" y2="29.5406" gradientUnits="userSpaceOnUse">
<stop stop-color="#FF2424"/>
<stop offset="1" stop-color="#FF8D8D"/>
</linearGradient>
<linearGradient id="paint5_linear" x1="46.4126" y1="45.3579" x2="46.4126" y2="29.6729" gradientUnits="userSpaceOnUse">
<stop stop-color="#FF2424"/>
<stop offset="1" stop-color="#FF8D8D"/>
</linearGradient>
<linearGradient id="paint6_linear" x1="10.2865" y1="46.2006" x2="10.2865" y2="37.1836" gradientUnits="userSpaceOnUse">
<stop stop-color="#FF2424"/>
<stop offset="1" stop-color="#FF8D8D"/>
</linearGradient>
<linearGradient id="paint7_linear" x1="42.2977" y1="57.2775" x2="42.2977" y2="48.2161" gradientUnits="userSpaceOnUse">
<stop stop-color="#FF2424"/>
<stop offset="1" stop-color="#FF8D8D"/>
</linearGradient>
</defs>
</svg>
