<svg width="64" height="64" viewBox="0 0 64 64" fill="none" xmlns="http://www.w3.org/2000/svg">
<g clip-path="url(#clip0_674_117)">
<path d="M18.3827 55.2654C31.2966 62.7212 47.8095 58.2966 55.2654 45.3827C62.7212 32.4688 58.2966 15.9558 45.3827 8.5C32.4688 1.04416 15.9558 5.46878 8.5 18.3827C1.04416 31.2966 5.46879 47.8095 18.3827 55.2654Z" stroke="url(#paint0_linear_674_117)" stroke-width="8"/>
<path fill-rule="evenodd" clip-rule="evenodd" d="M41.0478 13.5781C41.8987 13.5028 42.75 13.7186 43.4622 14.1903C44.1785 14.6646 44.7114 15.3692 44.9727 16.1876C45.234 17.006 45.208 17.8891 44.8991 18.6907L41.5809 27.2884L45.5338 41.163C45.7403 41.8886 45.7193 42.6602 45.4735 43.3736C45.2277 44.087 44.769 44.7077 44.1593 45.1522C43.5495 45.5966 42.8182 45.8433 42.0638 45.859C41.3095 45.8747 40.5685 45.6586 39.9408 45.2398L35.7361 42.4329L34.3875 45.9273C34.1839 46.4546 33.8645 46.9293 33.4527 47.3165C33.041 47.7037 32.5475 47.9933 32.0087 48.1641C31.4699 48.3348 30.8996 48.3823 30.34 48.3029C29.7804 48.2236 29.2458 48.0195 28.7757 47.7057L25.9501 45.8193L22.7799 48.8436C22.4377 49.1697 21.9945 49.3692 21.5235 49.4091C21.0525 49.4489 20.5819 49.3268 20.1898 49.0629C19.7999 48.8005 19.5106 48.4134 19.3693 47.9651C19.228 47.5168 19.2431 47.0339 19.4122 46.5953L20.9897 42.5078L18.1634 40.621C17.6933 40.3072 17.2998 39.8917 17.012 39.4053C16.7242 38.9189 16.5493 38.374 16.5004 37.8109C16.4515 37.2479 16.5298 36.681 16.7295 36.1523C16.9292 35.6235 17.2452 35.1465 17.6541 34.7563L20.3643 32.1708L16.1597 29.3638C15.5323 28.9447 15.0485 28.3432 14.7738 27.6405C14.499 26.9378 14.4464 26.1677 14.6231 25.4342C14.7998 24.7006 15.1972 24.039 15.7618 23.5384C16.3264 23.0379 17.031 22.7226 17.7804 22.6351L32.1101 20.9659L38.7784 14.6046C39.3968 14.0153 40.1969 13.6533 41.0478 13.5781Z" fill="url(#paint1_linear_674_117)"/>
</g>
<defs>
<linearGradient id="paint0_linear_674_117" x1="26.6766" y1="50.7006" x2="26.676" y2="7.38869" gradientUnits="userSpaceOnUse">
<stop stop-color="#218AFF"/>
<stop offset="1" stop-color="#53D0FF"/>
</linearGradient>
<linearGradient id="paint1_linear_674_117" x1="27.9344" y1="25.6199" x2="38.6702" y2="32.8632" gradientUnits="userSpaceOnUse">
<stop stop-color="#A8EFFF"/>
<stop offset="1" stop-color="#E5FCFE"/>
</linearGradient>
<clipPath id="clip0_674_117">
<rect width="64" height="64" fill="white"/>
</clipPath>
</defs>
</svg>
