<svg width="256" height="256" viewBox="0 0 256 256" fill="none" xmlns="http://www.w3.org/2000/svg">
<path d="M202.192 45.3844C201.458 45.8185 200.728 46.2503 199.999 46.6667C184.593 55.5497 169.181 64.4162 153.767 73.2838L153.765 73.2854C145.141 78.2466 136.517 83.2083 127.893 88.1733C133.226 91.1467 138.533 94.16 143.773 97.3067C161.71 86.9164 179.688 76.5902 197.662 66.2659L197.664 66.2647L197.706 66.2406C202.898 63.2585 208.089 60.2766 213.279 57.2933C215.986 55.2133 219.146 56.2667 221.693 57.9467C222.431 64.5474 222.346 71.1903 222.261 77.8323C222.211 81.7491 222.161 85.6661 222.279 89.5733C223.11 88.8526 223.954 88.1373 224.8 87.4198C229.088 83.7839 233.441 80.0928 236.493 75.36C237.05 72.0077 237.065 68.6057 237.079 65.1979C237.091 62.4928 237.103 59.7839 237.386 57.0933C236.279 47 225.813 39.5867 215.946 40.2C210.86 40.2569 206.463 42.8579 202.192 45.3844Z" fill="url(#paint0_linear_641_177)"/>
<path d="M238.014 58.8134C237.867 58.3867 237.547 57.5201 237.387 57.0934C237.104 59.784 237.092 62.4928 237.081 65.198C237.066 68.6058 237.051 72.0078 236.494 75.3601C233.443 80.0928 229.089 83.7839 224.801 87.4198C223.955 88.1373 223.111 88.8526 222.281 89.5734C222.241 123.733 222.254 157.88 222.267 192.04C222.281 194.413 222.027 197.36 219.521 198.48C217.264 199.899 214.787 198.592 212.681 197.482C212.473 197.372 212.268 197.263 212.067 197.16C204.98 193.046 197.876 188.966 190.773 184.886C183.67 180.806 176.567 176.727 169.481 172.613C168.884 172.858 168.275 173.083 167.664 173.309C165.843 173.981 164.008 174.659 162.481 175.867C160.827 177.642 159.822 179.857 158.825 182.054C158.511 182.745 158.199 183.434 157.867 184.107C162.119 186.754 166.478 189.217 170.839 191.682L172.321 192.52C172.354 192.54 172.397 192.565 172.444 192.593L172.594 192.68L172.596 192.681C172.647 192.711 172.698 192.74 172.744 192.767C172.791 192.795 172.834 192.82 172.867 192.84C179.801 196.88 186.747 200.88 193.707 204.853C195.653 205.889 197.553 207.017 199.454 208.144C202.983 210.238 206.512 212.332 210.334 213.84C219.827 217.333 231.241 212.52 235.721 203.547C238.081 199.227 238.187 194.187 238.174 189.387C238.109 170.265 238.12 151.14 238.13 132.015C238.143 107.614 238.156 83.2112 238.014 58.8134Z" fill="url(#paint1_linear_641_177)"/>
<path d="M125.641 105.334C126.249 105.689 126.858 106.045 127.466 106.4C122.593 109.571 117.525 112.424 112.459 115.276C107.961 117.809 103.464 120.34 99.1058 123.093C96.8354 124.152 96.6408 126.55 96.4616 128.757C96.4377 129.051 96.4141 129.343 96.3858 129.627C102.001 134.13 108.306 137.597 114.615 141.067C118.973 143.463 123.332 145.86 127.466 148.6C122.399 151.773 117.319 154.933 112.012 157.707C106.945 155.007 101.983 152.142 97.0185 149.275L97.0159 149.273C95.3851 148.331 93.7542 147.389 92.1191 146.453C87.6391 143.96 83.8525 140.093 82.0791 135.227C78.6391 126.627 81.5858 115.88 89.3058 110.6C92.6081 108.363 96.0897 106.41 99.5726 104.456C102.671 102.718 105.77 100.98 108.746 99.04C109.426 98.5733 110.786 97.6133 111.466 97.1333C116.213 99.8257 120.929 102.581 125.641 105.334Z" fill="url(#paint2_linear_641_177)"/>
<path d="M143.586 157.88C138.426 160.68 133.319 163.573 128.359 166.707C131.413 168.867 134.599 170.84 137.813 172.76C140.57 174.286 143.296 175.869 146.022 177.451C149.939 179.725 153.856 181.999 157.866 184.107C158.198 183.434 158.51 182.745 158.824 182.055C159.821 179.857 160.826 177.642 162.479 175.867C164.007 174.659 165.841 173.981 167.662 173.309C168.273 173.083 168.883 172.858 169.479 172.613C165.652 170.442 161.843 168.238 158.033 166.034C154.543 164.015 151.052 161.995 147.546 160C146.226 159.28 144.906 158.573 143.586 157.88Z" fill="url(#paint3_linear_641_177)"/>
<path d="M202.192 45.3844C201.458 45.8185 200.728 46.2503 199.999 46.6667C184.593 55.5497 169.181 64.4162 153.767 73.2838L153.765 73.2854C145.141 78.2466 136.517 83.2083 127.893 88.1733C133.226 91.1467 138.533 94.16 143.773 97.3067C161.71 86.9164 179.688 76.5902 197.662 66.2659L197.664 66.2647L197.706 66.2406C202.898 63.2585 208.089 60.2766 213.279 57.2933C215.986 55.2133 219.146 56.2667 221.693 57.9467C222.431 64.5474 222.346 71.1903 222.261 77.8323C222.211 81.7491 222.161 85.6661 222.279 89.5733C223.11 88.8526 223.954 88.1373 224.8 87.4198C229.088 83.7839 233.441 80.0928 236.493 75.36C237.05 72.0077 237.065 68.6057 237.079 65.1979C237.091 62.4928 237.103 59.7839 237.386 57.0933C236.279 47 225.813 39.5867 215.946 40.2C210.86 40.2569 206.463 42.8579 202.192 45.3844Z" stroke="url(#paint4_linear_641_177)" stroke-width="12"/>
<path d="M238.014 58.8134C237.867 58.3867 237.547 57.5201 237.387 57.0934C237.104 59.784 237.092 62.4928 237.081 65.198C237.066 68.6058 237.051 72.0078 236.494 75.3601C233.443 80.0928 229.089 83.7839 224.801 87.4198C223.955 88.1373 223.111 88.8526 222.281 89.5734C222.241 123.733 222.254 157.88 222.267 192.04C222.281 194.413 222.027 197.36 219.521 198.48C217.264 199.899 214.787 198.592 212.681 197.482C212.473 197.372 212.268 197.263 212.067 197.16C204.98 193.046 197.876 188.966 190.773 184.886C183.67 180.806 176.567 176.727 169.481 172.613C168.884 172.858 168.275 173.083 167.664 173.309C165.843 173.981 164.008 174.659 162.481 175.867C160.827 177.642 159.822 179.857 158.825 182.054C158.511 182.745 158.199 183.434 157.867 184.107C162.119 186.754 166.478 189.217 170.839 191.682L172.321 192.52C172.354 192.54 172.397 192.565 172.444 192.593L172.594 192.68L172.596 192.681C172.647 192.711 172.698 192.74 172.744 192.767C172.791 192.795 172.834 192.82 172.867 192.84C179.801 196.88 186.747 200.88 193.707 204.853C195.653 205.889 197.553 207.017 199.454 208.144C202.983 210.238 206.512 212.332 210.334 213.84C219.827 217.333 231.241 212.52 235.721 203.547C238.081 199.227 238.187 194.187 238.174 189.387C238.109 170.265 238.12 151.14 238.13 132.015C238.143 107.614 238.156 83.2112 238.014 58.8134Z" stroke="url(#paint5_linear_641_177)" stroke-width="12"/>
<path d="M125.641 105.334C126.249 105.689 126.858 106.045 127.466 106.4C122.593 109.571 117.525 112.424 112.459 115.276C107.961 117.809 103.464 120.34 99.1058 123.093C96.8354 124.152 96.6408 126.55 96.4616 128.757C96.4377 129.051 96.4141 129.343 96.3858 129.627C102.001 134.13 108.306 137.597 114.615 141.067C118.973 143.463 123.332 145.86 127.466 148.6C122.399 151.773 117.319 154.933 112.012 157.707C106.945 155.007 101.983 152.142 97.0185 149.275L97.0159 149.273C95.3851 148.331 93.7542 147.389 92.1191 146.453C87.6391 143.96 83.8525 140.093 82.0791 135.227C78.6391 126.627 81.5858 115.88 89.3058 110.6C92.6081 108.363 96.0897 106.41 99.5726 104.456C102.671 102.718 105.77 100.98 108.746 99.04C109.426 98.5733 110.786 97.6133 111.466 97.1333C116.213 99.8257 120.929 102.581 125.641 105.334Z" stroke="url(#paint6_linear_641_177)" stroke-width="12"/>
<path d="M143.586 157.88C138.426 160.68 133.319 163.573 128.359 166.707C131.413 168.867 134.599 170.84 137.813 172.76C140.57 174.286 143.296 175.869 146.022 177.451C149.939 179.725 153.856 181.999 157.866 184.107C158.198 183.434 158.51 182.745 158.824 182.055C159.821 179.857 160.826 177.642 162.479 175.867C164.007 174.659 165.841 173.981 167.662 173.309C168.273 173.083 168.883 172.858 169.479 172.613C165.652 170.442 161.843 168.238 158.033 166.034C154.543 164.015 151.052 161.995 147.546 160C146.226 159.28 144.906 158.573 143.586 157.88Z" stroke="url(#paint7_linear_641_177)" stroke-width="12"/>
<path d="M36.0258 40.2933C25.8124 41.4533 17.1858 50.8533 17.5058 61.24C17.4836 84.2177 17.4819 107.196 17.4803 130.173C17.479 148.556 17.4776 166.938 17.4658 185.32C17.4635 186.019 17.4558 186.718 17.4481 187.417C17.4106 190.817 17.373 194.223 17.9591 197.573C18.5918 187.019 18.5848 176.442 18.5778 165.866C18.5719 156.828 18.5659 147.792 18.9591 138.773C20.0979 134.685 22.9422 131.479 25.7628 128.299C26.9712 126.937 28.1754 125.58 29.2391 124.16L29.2397 124.162C28.1762 125.581 26.9726 126.938 25.7646 128.299C22.944 131.479 20.0997 134.685 18.9609 138.773C18.5677 147.792 18.5737 156.828 18.5797 165.866C18.5866 176.442 18.5936 187.019 17.9609 197.573C18.5209 203.373 22.4276 208.293 26.9476 211.707C28.1207 212.267 29.3204 212.786 30.5334 213.266V213.266C36.6001 215.746 43.6665 215.333 49.3065 211.973C59.5476 206.141 69.7505 200.243 79.9534 194.345C96.0389 185.045 112.125 175.746 128.36 166.707C133.32 163.573 138.427 160.68 143.587 157.88C146.918 155.764 150.358 153.827 153.796 151.892C158.2 149.412 162.602 146.933 166.773 144.08C173.187 139.48 175.613 131.253 174.853 123.653C173.507 118.32 170.493 113.253 165.8 110.227C162.415 108.032 158.905 106.053 155.395 104.072C152.848 102.636 150.3 101.199 147.8 99.68C146.453 98.8933 145.107 98.1067 143.773 97.3067C138.533 94.16 133.227 91.1467 127.893 88.1733C127.55 87.9827 127.207 87.7921 126.864 87.6016C124.33 86.1928 121.802 84.7877 119.254 83.4137V83.4137C105.534 75.2803 91.6809 67.3467 77.7743 59.52C74.5209 63.64 71.4809 67.9334 68.7609 72.4267C75.2913 76.244 81.8516 80.0105 88.412 83.7771C95.7145 87.9698 103.018 92.163 110.28 96.4261V96.4261L111.467 97.1333C116.214 99.8259 120.93 102.581 125.642 105.334C126.25 105.69 126.858 106.045 127.467 106.4C130.467 108.053 133.44 109.76 136.4 111.493C139.373 113.207 142.354 114.907 145.334 116.607C148.314 118.307 151.293 120.007 154.267 121.72C156.547 123.053 159.427 124.827 159.04 127.92C159.018 130.466 156.835 131.805 154.858 133.019C154.474 133.255 154.098 133.486 153.747 133.72C150.518 135.536 147.309 137.389 144.1 139.242C138.589 142.425 133.079 145.609 127.467 148.6C122.4 151.773 117.32 154.933 112.013 157.707C103.21 162.761 94.4136 167.831 85.6165 172.902C73.6417 179.805 61.6652 186.709 49.6665 193.573C47.1465 195.013 44.6665 196.573 42.3199 198.293V198.293C39.4403 199.28 36.2406 199.266 34.0809 196.853C33.4943 194.413 33.2543 191.907 33.2543 189.4C33.2543 185.19 33.2687 180.98 33.2832 176.769C33.3188 166.401 33.3544 156.03 33.1743 145.667L33.1725 145.657C33.3603 128.202 33.3239 110.746 33.2875 93.2874C33.2671 83.4907 33.2466 73.6928 33.2658 63.8933C33.2952 63.5125 33.3121 63.1108 33.3293 62.6988C33.4215 60.5001 33.5259 58.0099 35.6258 56.8533C38.3352 55.0134 41.3663 56.6991 43.8746 58.0942C44.0201 58.1751 44.1639 58.2551 44.3058 58.3333C52.4258 63.08 60.5724 67.8 68.7591 72.4266C71.4791 67.9333 74.5191 63.64 77.7725 59.52C72.4823 56.3126 67.1075 53.2417 61.7319 50.1703C58.0569 48.0706 54.3815 45.9706 50.7324 43.8266C46.3591 41.16 41.1858 39.52 36.0258 40.2933Z" fill="url(#paint8_linear_641_177)"/>
<path d="M30.5334 213.266C29.3204 212.786 28.1207 212.267 26.9476 211.707C22.4276 208.293 18.5209 203.373 17.9609 197.573C18.5936 187.019 18.5866 176.442 18.5797 165.866C18.5737 156.828 18.5677 147.792 18.9609 138.773C20.0997 134.685 22.944 131.479 25.7646 128.299C26.9726 126.938 28.1762 125.581 29.2397 124.162L29.2391 124.16C28.1754 125.58 26.9712 126.937 25.7628 128.299C22.9422 131.479 20.0979 134.685 18.9591 138.773C18.5659 147.792 18.5719 156.828 18.5778 165.866C18.5848 176.442 18.5918 187.019 17.9591 197.573C17.373 194.223 17.4106 190.817 17.4481 187.417C17.4558 186.718 17.4635 186.019 17.4658 185.32C17.4776 166.938 17.479 148.556 17.4803 130.173C17.4819 107.196 17.4836 84.2177 17.5058 61.24C17.1858 50.8533 25.8124 41.4533 36.0258 40.2933C41.1858 39.52 46.3591 41.16 50.7324 43.8266C54.3815 45.9706 58.0569 48.0706 61.7319 50.1703C67.1075 53.2417 72.4823 56.3126 77.7725 59.52C74.5191 63.64 71.4791 67.9333 68.7591 72.4266C60.5724 67.8 52.4258 63.08 44.3058 58.3333C44.1639 58.2551 44.0201 58.1751 43.8746 58.0942C41.3663 56.6991 38.3352 55.0134 35.6258 56.8533C33.5259 58.0099 33.4215 60.5001 33.3293 62.6988C33.3121 63.1108 33.2952 63.5125 33.2658 63.8933C33.2466 73.6928 33.2671 83.4907 33.2875 93.2874C33.3239 110.746 33.3603 128.202 33.1725 145.657L33.1743 145.667C33.3544 156.03 33.3188 166.401 33.2832 176.769C33.2687 180.98 33.2543 185.19 33.2543 189.4C33.2543 191.907 33.4943 194.413 34.0809 196.853C36.2406 199.266 39.4403 199.28 42.3199 198.293M30.5334 213.266V213.266ZM30.5334 213.266C36.6001 215.746 43.6665 215.333 49.3065 211.973C59.5476 206.141 69.7505 200.243 79.9534 194.345C96.0389 185.045 112.125 175.746 128.36 166.707C133.32 163.573 138.427 160.68 143.587 157.88C146.918 155.764 150.358 153.827 153.796 151.892C158.2 149.412 162.602 146.933 166.773 144.08C173.187 139.48 175.613 131.253 174.853 123.653C173.507 118.32 170.493 113.253 165.8 110.227C162.415 108.032 158.905 106.053 155.395 104.072C152.848 102.636 150.3 101.199 147.8 99.68C146.453 98.8933 145.107 98.1067 143.773 97.3067C138.533 94.16 133.227 91.1467 127.893 88.1733C127.55 87.9827 127.207 87.7921 126.864 87.6016C124.33 86.1928 121.802 84.7877 119.254 83.4137M119.254 83.4137V83.4137ZM119.254 83.4137C105.534 75.2803 91.6809 67.3467 77.7743 59.52C74.5209 63.64 71.4809 67.9334 68.7609 72.4267C75.2913 76.244 81.8516 80.0105 88.412 83.7771C95.7145 87.9698 103.018 92.163 110.28 96.4261M110.28 96.4261V96.4261ZM110.28 96.4261L111.467 97.1333C116.214 99.8259 120.93 102.581 125.642 105.334C126.25 105.69 126.858 106.045 127.467 106.4C130.467 108.053 133.44 109.76 136.4 111.493C139.373 113.207 142.354 114.907 145.334 116.607C148.314 118.307 151.293 120.007 154.267 121.72C156.547 123.053 159.427 124.827 159.04 127.92C159.018 130.466 156.835 131.805 154.858 133.019C154.474 133.255 154.098 133.486 153.747 133.72C150.518 135.536 147.309 137.389 144.1 139.242C138.589 142.425 133.079 145.609 127.467 148.6C122.4 151.773 117.32 154.933 112.013 157.707C103.21 162.761 94.4136 167.831 85.6165 172.902C73.6417 179.805 61.6652 186.709 49.6665 193.573C47.1465 195.013 44.6665 196.573 42.3199 198.293M42.3199 198.293V198.293Z" stroke="url(#paint9_linear_641_177)" stroke-width="12"/>
<defs>
<linearGradient id="paint0_linear_641_177" x1="159.415" y1="214.984" x2="159.415" y2="40.1646" gradientUnits="userSpaceOnUse">
<stop stop-color="#A93AFF"/>
<stop offset="1" stop-color="#FF81FF"/>
</linearGradient>
<linearGradient id="paint1_linear_641_177" x1="159.415" y1="214.984" x2="159.415" y2="40.1646" gradientUnits="userSpaceOnUse">
<stop stop-color="#A93AFF"/>
<stop offset="1" stop-color="#FF81FF"/>
</linearGradient>
<linearGradient id="paint2_linear_641_177" x1="159.415" y1="214.984" x2="159.415" y2="40.1646" gradientUnits="userSpaceOnUse">
<stop stop-color="#A93AFF"/>
<stop offset="1" stop-color="#FF81FF"/>
</linearGradient>
<linearGradient id="paint3_linear_641_177" x1="159.415" y1="214.984" x2="159.415" y2="40.1646" gradientUnits="userSpaceOnUse">
<stop stop-color="#A93AFF"/>
<stop offset="1" stop-color="#FF81FF"/>
</linearGradient>
<linearGradient id="paint4_linear_641_177" x1="159.415" y1="214.984" x2="159.415" y2="40.1646" gradientUnits="userSpaceOnUse">
<stop stop-color="#A93AFF"/>
<stop offset="1" stop-color="#FF81FF"/>
</linearGradient>
<linearGradient id="paint5_linear_641_177" x1="159.415" y1="214.984" x2="159.415" y2="40.1646" gradientUnits="userSpaceOnUse">
<stop stop-color="#A93AFF"/>
<stop offset="1" stop-color="#FF81FF"/>
</linearGradient>
<linearGradient id="paint6_linear_641_177" x1="159.415" y1="214.984" x2="159.415" y2="40.1646" gradientUnits="userSpaceOnUse">
<stop stop-color="#A93AFF"/>
<stop offset="1" stop-color="#FF81FF"/>
</linearGradient>
<linearGradient id="paint7_linear_641_177" x1="159.415" y1="214.984" x2="159.415" y2="40.1646" gradientUnits="userSpaceOnUse">
<stop stop-color="#A93AFF"/>
<stop offset="1" stop-color="#FF81FF"/>
</linearGradient>
<linearGradient id="paint8_linear_641_177" x1="19.7118" y1="207.504" x2="89.5506" y2="182.379" gradientUnits="userSpaceOnUse">
<stop stop-color="#F35C58"/>
<stop offset="1" stop-color="#B118F0"/>
</linearGradient>
<linearGradient id="paint9_linear_641_177" x1="19.7118" y1="207.504" x2="89.5506" y2="182.379" gradientUnits="userSpaceOnUse">
<stop stop-color="#F35C58"/>
<stop offset="1" stop-color="#B118F0"/>
</linearGradient>
</defs>
</svg>
