<svg width="64" height="64" viewBox="0 0 64 64" fill="none" xmlns="http://www.w3.org/2000/svg">
<path fill-rule="evenodd" clip-rule="evenodd" d="M8.02391 51.6485C8.01234 51.7809 8.0119 51.9148 8.04171 52.0442C8.0796 52.2089 8.13307 52.3466 8.18936 52.4412C8.2374 52.5219 8.26808 52.5407 8.28131 52.5485C8.29045 52.5541 8.42599 52.6364 8.81675 52.6364H55.1803C55.5711 52.6364 55.7071 52.5539 55.7162 52.5483C55.7294 52.5405 55.7597 52.5219 55.8077 52.4412C55.864 52.3466 55.9175 52.2089 55.9554 52.0442C55.9852 51.9147 55.9848 51.7809 55.9732 51.6486L52.7392 14.6517C52.5585 12.5854 50.8285 11 48.7544 11H15.2427C13.1686 11 11.4386 12.5854 11.2579 14.6517L8.02391 51.6485ZM5.67429 9.58477C5.89024 6.99331 8.05658 5 10.657 5H53.3401C55.9405 5 58.1069 6.99331 58.3228 9.58477L61.9813 51.4861C61.9918 51.6122 62.0038 51.8079 61.9926 52.0424C61.9707 52.5026 61.8507 54.0196 60.9636 55.51C59.949 57.2145 58.0592 58.6364 55.1803 58.6364H8.81675C5.93791 58.6364 4.04808 57.2145 3.03352 55.51C2.14643 54.0196 2.02638 52.5026 2.00447 52.0424C1.9933 51.8079 2.00534 51.6122 2.01584 51.4861L5.67429 9.58477ZM19.9076 14.9092C18.7262 14.9092 17.5932 15.3785 16.7578 16.2139C15.9224 17.0493 15.4531 18.1823 15.4531 19.3637C15.4531 20.5451 15.9224 21.6782 16.7578 22.5136C17.3003 23.056 17.9682 23.4441 18.6934 23.6496C19.0214 25.0654 19.4964 26.7176 20.177 28.3828C21.0865 30.6082 22.3682 32.9025 24.2851 34.7169C26.2019 36.5313 28.8322 37.8182 31.9966 37.8182C35.161 37.8182 37.7913 36.5313 39.7082 34.7169C41.625 32.9025 42.9067 30.6082 43.8162 28.3828C44.4965 26.718 44.9715 25.0663 45.2995 23.6508C46.0263 23.4457 46.6958 23.0571 47.2393 22.5136C48.0747 21.6782 48.544 20.5451 48.544 19.3637C48.544 18.1823 48.0747 17.0493 47.2393 16.2139C46.4039 15.3785 45.2709 14.9092 44.0895 14.9092C42.908 14.9092 41.775 15.3785 40.9396 16.2139C40.1042 17.0493 39.6349 18.1823 39.6349 19.3637C39.6349 20.5451 40.1042 21.6782 40.9396 22.5136C41.1221 22.6961 41.3188 22.8611 41.527 23.0075C41.2405 24.2097 40.8387 25.5834 40.2823 26.945C39.5058 28.8447 38.433 30.6757 37.0813 31.9552C35.7296 33.2347 34.1764 34.0103 31.9966 34.0103C29.8168 34.0103 28.2636 33.2347 26.9119 31.9552C25.5602 30.6757 24.4874 28.8447 23.711 26.945C23.1548 25.5843 22.7532 24.2115 22.4667 23.0099C22.6763 22.8629 22.8741 22.6971 23.0575 22.5136C23.8929 21.6782 24.3622 20.5451 24.3622 19.3637C24.3622 18.1823 23.8929 17.0493 23.0575 16.2139C22.2221 15.3785 21.0891 14.9092 19.9076 14.9092Z" fill="url(#paint0_linear_677_24)" stroke="url(#paint1_linear_677_24)"/>
<defs>
<linearGradient id="paint0_linear_677_24" x1="31.9985" y1="58.6364" x2="31.9985" y2="5" gradientUnits="userSpaceOnUse">
<stop stop-color="#00FFDC"/>
<stop offset="1" stop-color="#00BAE3"/>
</linearGradient>
<linearGradient id="paint1_linear_677_24" x1="31.9985" y1="58.6364" x2="31.9985" y2="5" gradientUnits="userSpaceOnUse">
<stop stop-color="#00FFDC"/>
<stop offset="1" stop-color="#00BAE3"/>
</linearGradient>
</defs>
</svg>
