<svg width="128" height="128" viewBox="0 0 128 128" fill="none" xmlns="http://www.w3.org/2000/svg">
<path d="M63 5C31.143 5 5 31.143 5 63C5 94.857 31.143 121 63 121C94.857 121 121 94.857 121 63C121 31.143 94.857 5 63 5ZM63 114.203C34.8899 114.203 11.7969 91.1101 11.7969 63C11.7969 34.8899 34.8899 11.7969 63 11.7969C91.1101 11.7969 114.203 34.8899 114.203 63C114.203 91.1101 91.1101 114.203 63 114.203Z" fill="url(#paint0_linear)" stroke="url(#paint1_linear)" stroke-width="4"/>
<path fill-rule="evenodd" clip-rule="evenodd" d="M64 37.75C49.5273 37.75 37.75 49.5273 37.75 64C37.75 78.4727 49.5273 90.25 64 90.25C78.4727 90.25 90.25 78.4727 90.25 64C90.25 49.5273 78.4727 37.75 64 37.75ZM63.75 82.5C53.4117 82.5 45 74.0882 45 63.75C45 53.4117 53.4117 45 63.75 45C74.0882 45 82.5 53.4117 82.5 63.75C82.5 74.0882 74.0882 82.5 63.75 82.5Z" fill="url(#paint2_linear)"/>
<path fill-rule="evenodd" clip-rule="evenodd" d="M64 53C57.9344 53 53 57.9344 53 64C53 70.0656 57.9344 75 64 75C70.0656 75 75 70.0656 75 64C75 57.9344 70.0656 53 64 53ZM64 68C61.7931 68 60 66.2069 60 64C60 61.7931 61.7931 60 64 60C66.2069 60 68 61.7931 68 64C68 66.2069 66.2069 68 64 68Z" fill="url(#paint3_linear)"/>
<path d="M94.5157 32.9461C98.654 37.0844 101.899 41.8964 104.165 47.2504C104.971 49.1584 104.081 51.3594 102.173 52.1649C100.273 52.9686 98.0664 52.0869 97.2587 50.1726C95.3689 45.7124 92.6627 41.6986 89.213 38.2489C85.7632 34.7991 81.7497 32.0929 77.2892 30.2031C75.3812 29.3976 74.4912 27.1966 75.297 25.2886C76.1025 23.3734 78.3144 22.4944 80.2114 23.2964C85.5654 25.5634 90.3775 28.8079 94.5157 32.9461Z" fill="url(#paint4_linear)"/>
<path d="M39.2493 86.2149C42.6991 89.6647 46.7126 92.3709 51.1731 94.2607C53.0808 95.0664 53.9708 97.2674 53.1653 99.1752C52.3596 101.085 50.1558 101.973 48.2508 101.167C42.8968 98.9004 38.0848 95.6559 33.9466 91.5177C29.8083 87.3794 26.5636 82.5674 24.2968 77.2134C23.4913 75.3054 24.3811 73.1047 26.2891 72.2989C28.1786 71.4897 30.3978 72.3797 31.2036 74.2912C33.0933 78.7514 35.7996 82.7652 39.2493 86.2149Z" fill="url(#paint5_linear)"/>
<path d="M102 127C115.255 127 126 116.255 126 103C126 89.7452 115.255 79 102 79C88.7452 79 78 89.7452 78 103C78 116.255 88.7452 127 102 127Z" fill="url(#paint6_linear)"/>
<path d="M101.93 90.0359C101.809 89.9985 101.681 89.9902 101.557 90.0116C101.432 90.0329 101.314 90.0834 101.212 90.159C101.111 90.2346 101.028 90.3331 100.971 90.4466C100.914 90.5601 100.885 90.6855 100.885 90.8126V106.908C100.002 106.057 98.8527 105.542 97.6335 105.452C96.4143 105.362 95.2022 105.703 94.2062 106.416C93.2102 107.129 92.4927 108.169 92.1775 109.357C91.8623 110.545 91.9692 111.807 92.4797 112.924C92.9902 114.042 93.8723 114.945 94.9738 115.478C96.0754 116.011 97.3274 116.141 98.5139 115.845C99.7004 115.549 100.747 114.845 101.473 113.856C102.199 112.867 102.56 111.654 102.492 110.426C102.497 110.388 102.5 110.35 102.5 110.312V98.4126L111.955 101.338C112.076 101.375 112.203 101.383 112.328 101.362C112.452 101.341 112.57 101.29 112.672 101.215C112.773 101.14 112.856 101.041 112.913 100.928C112.97 100.815 113 100.689 113 100.562V96.4627C113 95.5937 112.723 94.7476 112.21 94.0485C111.697 93.3495 110.975 92.8345 110.149 92.579L101.93 90.0359V90.0359Z" fill="white"/>
<defs>
<linearGradient id="paint0_linear" x1="63" y1="121" x2="63" y2="5" gradientUnits="userSpaceOnUse">
<stop stop-color="#FD5900"/>
<stop offset="1" stop-color="#FFDE00"/>
</linearGradient>
<linearGradient id="paint1_linear" x1="63" y1="121" x2="63" y2="5" gradientUnits="userSpaceOnUse">
<stop stop-color="#FD5900"/>
<stop offset="1" stop-color="#FFDE00"/>
</linearGradient>
<linearGradient id="paint2_linear" x1="47.2656" y1="84.0521" x2="94.6081" y2="42.7449" gradientUnits="userSpaceOnUse">
<stop stop-color="#FE0844"/>
<stop offset="1" stop-color="#FEB302"/>
</linearGradient>
<linearGradient id="paint3_linear" x1="54.5714" y1="64" x2="72.4248" y2="62.0271" gradientUnits="userSpaceOnUse">
<stop stop-color="#8D01A2"/>
<stop offset="1" stop-color="#FF00D2"/>
</linearGradient>
<linearGradient id="paint4_linear" x1="38.5838" y1="92.2015" x2="109.56" y2="28.697" gradientUnits="userSpaceOnUse">
<stop stop-color="#FE0844"/>
<stop offset="1" stop-color="#FEB302"/>
</linearGradient>
<linearGradient id="paint5_linear" x1="38.5838" y1="92.2015" x2="109.56" y2="28.697" gradientUnits="userSpaceOnUse">
<stop stop-color="#FE0844"/>
<stop offset="1" stop-color="#FEB302"/>
</linearGradient>
<linearGradient id="paint6_linear" x1="102" y1="127" x2="102" y2="79" gradientUnits="userSpaceOnUse">
<stop stop-color="#FD5900"/>
<stop offset="1" stop-color="#FFDE00"/>
</linearGradient>
</defs>
</svg>
