<svg width="192" height="192" viewBox="0 0 192 192" fill="none" xmlns="http://www.w3.org/2000/svg">
<path d="M10.0634 24.944C9.78248 22.2403 12.5465 19.7636 15.6475 20.0202C42.6358 20.0103 69.6354 19.9708 96.6237 20.0399C98.9944 19.7932 101.242 21.2733 101.59 23.3455C102.972 29.1179 104.253 34.91 105.545 40.7022C106.354 44.4814 107.23 48.2507 108.118 52.0102C115.118 82.8063 122.174 113.602 129.061 144.418C130.129 147.891 126.691 151.592 122.601 151.306C86.9497 151.345 51.2986 151.335 15.6475 151.315C12.9959 151.552 10.1533 149.885 10.142 147.408C9.8836 138.182 10.142 128.946 10.0184 119.72C10.0858 117.273 9.67012 114.303 12.0184 112.517C14.479 110.326 19.007 110.504 21.243 112.882C23.1867 114.737 22.7823 117.411 22.8497 119.72C22.9059 125.867 22.6587 132.015 22.9396 138.152C22.9845 139.919 25.3665 140.126 26.8945 140.037C55.6244 139.978 84.3542 140.096 113.084 139.968C115.466 140.086 114.264 137.462 114.185 136.297C106.399 102.166 98.7472 68.0249 90.9384 33.9036C90.8148 32.236 89.4777 31.0815 87.5452 31.3183C67.3321 31.2591 47.1077 31.3183 26.8945 31.2986C25.0406 31.0618 22.771 32.0386 22.8946 33.9134C22.625 41.1265 23.1081 48.3593 22.6924 55.5723C22.1868 59.0062 17.6026 61.1671 14.0184 59.7857C11.2094 58.868 9.77124 56.1841 10.0297 53.6679C10.0634 44.0966 9.99596 34.5153 10.0634 24.944Z" fill="url(#paint0_linear)"/>
<path d="M48.0852 48.6158C47.9728 46.4154 50.1751 44.2643 52.7256 44.3038C59.0625 44.2248 65.4332 44.1262 71.7702 44.3531C76.7139 44.7577 78.8712 50.7472 75.4218 53.7469C71.714 57.2399 65.5231 54.4474 61.2423 56.1841C60.2535 66.7422 61.5007 77.468 60.7929 88.0853C59.9389 94.9727 54.8154 101.317 47.6807 104.278C41.1977 107.09 33.2315 106.991 26.8496 104.041C19.625 100.834 14.6588 94.1439 14.1644 87.0591C13.4791 79.7178 17.6925 72.258 24.7261 68.2618C31.5574 64.078 40.4786 64.2359 48.029 66.7027C48.0852 60.6738 47.9504 54.6448 48.0852 48.6158ZM33.9731 76.7576C26.4339 78.8297 24.4564 88.5293 30.7035 92.7625C36.1865 97.2916 46.1527 94.4695 47.7818 88.0656C50.2874 81.1584 41.6808 74.0736 33.9731 76.7576Z" fill="url(#paint1_linear)"/>
<path d="M105.545 40.7022C129.185 40.7811 152.825 40.6726 176.465 40.7614C179.341 40.7121 181.993 42.9914 181.982 45.5175C182.094 53.5101 182.027 61.5026 182.015 69.4853C182.195 72.2975 179.6 74.9223 176.42 75.1591C173.083 75.613 169.533 73.3534 169.285 70.3635C168.881 64.601 169.51 58.8088 169.004 53.066C168.33 51.7043 166.544 52.099 165.218 52.0102C146.185 52.0398 127.151 52.0201 108.118 52.0102C107.23 48.2508 106.354 44.4814 105.545 40.7022Z" fill="url(#paint2_linear)"/>
<path d="M125.983 86.1711C129.657 80.004 137.039 75.6623 144.971 75.1788C154.331 74.3796 163.847 79.106 167.982 86.5066C171.476 92.2 170.768 98.9395 168.521 104.87C171.667 105.274 174.881 104.919 178.027 105.334C180.723 105.886 182.296 108.392 182.027 110.721C182.015 128.867 182.072 147.013 182.004 165.15C182.285 168.366 179.004 171.228 175.353 171.03C150.207 171.07 125.061 171.09 99.9158 171.021C96.208 171.297 92.8822 168.337 93.253 165.09C93.253 162.031 96.6237 159.604 100.017 159.801C121.736 159.713 143.466 159.811 165.196 159.752C167.488 160.058 169.488 158.233 169.162 156.229C169.24 144.349 169.128 132.469 169.207 120.588C169.229 119.197 169.027 117.806 168.735 116.434C161.162 116.306 153.589 116.464 146.016 116.355C137.915 116.227 130.129 111.994 126.252 105.768C122.41 99.8275 122.309 92.1902 125.983 86.1711ZM144.241 86.6842C136.623 88.0853 133.443 97.3705 139.072 102.146C144.128 107.356 154.847 105.255 157.005 98.7125C160.005 92.052 151.96 84.612 144.241 86.6842Z" fill="url(#paint3_linear)"/>
<defs>
<linearGradient id="paint0_linear" x1="69.629" y1="151.338" x2="69.629" y2="20" gradientUnits="userSpaceOnUse">
<stop stop-color="#FD3A84"/>
<stop offset="1" stop-color="#FFA68D"/>
</linearGradient>
<linearGradient id="paint1_linear" x1="45.5993" y1="106.322" x2="45.5993" y2="44.213" gradientUnits="userSpaceOnUse">
<stop stop-color="#FD3A84"/>
<stop offset="1" stop-color="#FFA68D"/>
</linearGradient>
<linearGradient id="paint2_linear" x1="143.795" y1="75.2172" x2="143.795" y2="40.7022" gradientUnits="userSpaceOnUse">
<stop stop-color="#5570FF"/>
<stop offset="1" stop-color="#4DD3FF"/>
</linearGradient>
<linearGradient id="paint3_linear" x1="137.641" y1="171.066" x2="137.641" y2="75.091" gradientUnits="userSpaceOnUse">
<stop stop-color="#5570FF"/>
<stop offset="1" stop-color="#4DD3FF"/>
</linearGradient>
</defs>
</svg>
