<svg width="64" height="64" viewBox="0 0 64 64" fill="none" xmlns="http://www.w3.org/2000/svg">
<path fill-rule="evenodd" clip-rule="evenodd" d="M34.6269 12.8715C33.4693 11.7611 31.4915 11.7036 30.2686 12.7461C26.1546 16.333 22.0444 19.9248 17.9345 23.5164C16.1373 25.087 14.3401 26.6575 12.5427 28.2275C12.1089 28.5959 11.8608 29.2335 12.0829 29.7822C12.3389 30.6888 13.5774 31.1226 14.3248 30.5296C17.4497 27.8682 20.5557 25.1831 23.662 22.4977C26.5607 19.9919 29.4597 17.4857 32.3746 14.9985C35.8929 18.1259 39.3818 21.2877 42.8708 24.4496C45.0718 26.4442 47.2728 28.4389 49.4812 30.425C49.8653 30.7777 50.4662 30.9894 50.9652 30.749C51.9582 30.4747 52.371 29.0637 51.5977 28.3426C47.1777 24.3009 42.7499 20.2688 38.3216 16.2363C37.09 15.1148 35.8584 13.9933 34.6269 12.8715ZM35.3694 31.0954C29.9431 31.0862 24.5166 31.0769 19.0933 31.1357C17.6484 31.3473 16.5483 32.7609 16.632 34.2111C16.632 35.6573 16.6311 37.1034 16.6303 38.5496C16.6281 42.1541 16.626 45.7586 16.6372 49.3632C16.6372 50.9231 18.0403 52.3027 19.6002 52.2635C20.3687 52.2445 21.1411 52.2539 21.9134 52.2633C23.1548 52.2784 24.396 52.2935 25.6203 52.1903C27.0286 51.8768 26.9921 49.6349 25.5941 49.324C24.7446 49.2453 23.8898 49.2561 23.0349 49.2669C22.4146 49.2747 21.7943 49.2825 21.1758 49.2562C20.3344 49.1751 19.6316 48.4043 19.6264 47.5577C19.619 44.8652 19.6207 42.1726 19.6223 39.4791C19.623 38.3278 19.6237 37.1762 19.6237 36.0245C19.5402 35.0211 20.4024 34.07 21.4136 34.083C28.4657 34.0778 35.5179 34.0778 42.5727 34.083C43.482 34.07 44.2947 34.8722 44.3025 35.7815C44.3182 39.6955 44.3129 43.6123 44.305 47.5263C44.3077 48.3886 43.5996 49.1881 42.7348 49.2562C42.1139 49.2739 41.492 49.2707 40.8697 49.2675C40.4838 49.2655 40.0977 49.2635 39.7116 49.2665C39.6363 49.2662 39.5593 49.2649 39.4813 49.2635C38.8608 49.2525 38.1744 49.2404 37.7519 49.7603C36.9263 50.5782 37.488 52.1381 38.643 52.2584C39.6498 52.2652 40.6573 52.2641 41.6649 52.2631C42.5843 52.2621 43.5038 52.2612 44.4226 52.2662C45.4913 52.227 46.5155 51.5842 46.978 50.6122C47.3171 49.9724 47.3099 49.2403 47.3028 48.5282C47.3013 48.3679 47.2997 48.2085 47.3021 48.0515C47.2971 46.2606 47.3001 44.4694 47.3031 42.678C47.308 39.7728 47.3128 36.8674 47.2837 33.9629C47.2707 32.4526 45.9433 31.0965 44.4226 31.0991C41.4053 31.1057 38.3874 31.1005 35.3694 31.0954Z" fill="url(#paint0_linear)"/>
<path d="M30.2686 12.7461L29.6198 11.9851L29.6115 11.9924L30.2686 12.7461ZM34.6269 12.8715L33.9347 13.5932L33.944 13.6021L33.9535 13.6108L34.6269 12.8715ZM17.9345 23.5164L18.5925 24.2694L18.5925 24.2694L17.9345 23.5164ZM12.5427 28.2275L13.1901 28.9898L13.2006 28.9806L12.5427 28.2275ZM12.0829 29.7822L13.0453 29.5105L13.0304 29.4577L13.0098 29.4069L12.0829 29.7822ZM14.3248 30.5296L14.9464 31.3129L14.96 31.3021L14.9732 31.2909L14.3248 30.5296ZM23.662 22.4977L24.316 23.2543L24.316 23.2543L23.662 22.4977ZM32.3746 14.9985L33.0389 14.2511L32.388 13.6724L31.7255 14.2378L32.3746 14.9985ZM42.8708 24.4496L43.5423 23.7086L43.5423 23.7086L42.8708 24.4496ZM49.4812 30.425L50.1577 29.6884L50.1499 29.6814L49.4812 30.425ZM50.9652 30.749L50.6989 29.7851L50.6123 29.8091L50.5313 29.8481L50.9652 30.749ZM51.5977 28.3426L52.2797 27.6112L52.2725 27.6046L51.5977 28.3426ZM38.3216 16.2363L37.6483 16.9757L37.6483 16.9757L38.3216 16.2363ZM19.0933 31.1357L19.0825 30.1357L19.0151 30.1364L18.9484 30.1462L19.0933 31.1357ZM35.3694 31.0954L35.3677 32.0954L35.3677 32.0954L35.3694 31.0954ZM16.632 34.2111H17.632V34.1822L17.6303 34.1534L16.632 34.2111ZM16.6303 38.5496L17.6303 38.5502L17.6303 38.5502L16.6303 38.5496ZM16.6372 49.3632H17.6372L17.6372 49.3601L16.6372 49.3632ZM19.6002 52.2635L19.5754 51.2638L19.5751 51.2639L19.6002 52.2635ZM21.9134 52.2633L21.9255 51.2633L21.9255 51.2633L21.9134 52.2633ZM25.6203 52.1903L25.7042 53.1868L25.7716 53.1811L25.8376 53.1664L25.6203 52.1903ZM25.5941 49.324L25.8112 48.3479L25.7494 48.3341L25.6864 48.3283L25.5941 49.324ZM23.0349 49.2669L23.0222 48.2669L23.0222 48.2669L23.0349 49.2669ZM21.1758 49.2562L21.0799 50.2516L21.1065 50.2541L21.1332 50.2553L21.1758 49.2562ZM19.6264 47.5577L18.6264 47.5604L18.6264 47.5638L19.6264 47.5577ZM19.6223 39.4791L20.6223 39.4797L20.6223 39.4797L19.6223 39.4791ZM19.6237 36.0245H20.6237V35.9829L20.6203 35.9415L19.6237 36.0245ZM21.4136 34.083L21.4007 35.083L21.4143 35.083L21.4136 34.083ZM42.5727 34.083L42.572 35.083L42.5795 35.083L42.587 35.0829L42.5727 34.083ZM44.3025 35.7815L45.3025 35.7775L45.3025 35.7729L44.3025 35.7815ZM44.305 47.5263L43.305 47.5243L43.305 47.5294L44.305 47.5263ZM42.7348 49.2562L42.7633 50.2558L42.7883 50.255L42.8132 50.2531L42.7348 49.2562ZM40.8697 49.2675L40.8646 50.2675L40.8646 50.2675L40.8697 49.2675ZM39.7116 49.2665L39.7079 50.2666L39.7193 50.2665L39.7116 49.2665ZM39.4813 49.2635L39.499 48.2636L39.499 48.2636L39.4813 49.2635ZM37.7519 49.7603L38.4557 50.4707L38.494 50.4328L38.5279 50.3911L37.7519 49.7603ZM38.643 52.2584L38.5394 53.253L38.5877 53.258L38.6362 53.2583L38.643 52.2584ZM41.6649 52.2631L41.6638 51.2631L41.6638 51.2631L41.6649 52.2631ZM44.4226 52.2662L44.4172 53.2662L44.4382 53.2663L44.4593 53.2655L44.4226 52.2662ZM46.978 50.6122L46.0944 50.144L46.0843 50.1631L46.075 50.1826L46.978 50.6122ZM47.3028 48.5282L48.3028 48.5183L48.3028 48.5183L47.3028 48.5282ZM47.3021 48.0515L48.302 48.0667L48.3021 48.0577L48.3021 48.0487L47.3021 48.0515ZM47.3031 42.678L48.3031 42.6797L48.3031 42.6797L47.3031 42.678ZM47.2837 33.9629L46.2838 33.9715L46.2838 33.9729L47.2837 33.9629ZM44.4226 31.0991L44.4209 30.0991L44.4204 30.0991L44.4226 31.0991ZM30.9174 13.5071C31.7501 12.7972 33.1483 12.8388 33.9347 13.5932L35.3192 12.1499C33.7904 10.6834 31.2329 10.6099 29.6199 11.9851L30.9174 13.5071ZM18.5925 24.2694C22.7025 20.6778 26.8123 17.0863 30.9258 13.4999L29.6115 11.9924C25.497 15.5797 21.3863 19.1719 17.2765 22.7634L18.5925 24.2694ZM13.2006 28.9806C14.9981 27.4105 16.7953 25.8399 18.5925 24.2694L17.2765 22.7634C15.4792 24.334 13.6822 25.9044 11.8849 27.4744L13.2006 28.9806ZM13.0098 29.4069C13.0011 29.3853 12.9895 29.3342 13.0185 29.2446C13.0488 29.1507 13.1123 29.0557 13.1901 28.9897L11.8954 27.4653C11.2267 28.0332 10.7302 29.1057 11.156 30.1575L13.0098 29.4069ZM13.7032 29.7462C13.6476 29.7903 13.5227 29.833 13.341 29.7713C13.1567 29.7088 13.0676 29.5896 13.0453 29.5105L11.1205 30.054C11.3542 30.8815 12.0124 31.4325 12.6982 31.6652C13.3866 31.8988 14.2546 31.8619 14.9464 31.3129L13.7032 29.7462ZM23.008 21.7412C19.9012 24.427 16.798 27.1097 13.6764 29.7682L14.9732 31.2909C18.1013 28.6267 21.2102 25.9392 24.316 23.2543L23.008 21.7412ZM31.7255 14.2378C28.8078 16.7275 25.9064 19.2357 23.008 21.7412L24.316 23.2543C27.2151 20.748 30.1117 18.244 33.0237 15.7592L31.7255 14.2378ZM43.5423 23.7086C40.0539 20.5472 36.5615 17.3822 33.0389 14.2511L31.7102 15.7459C35.2244 18.8696 38.7097 22.0281 42.1992 25.1905L43.5423 23.7086ZM50.1499 29.6814C47.9431 27.6969 45.7435 25.7035 43.5423 23.7086L42.1992 25.1905C44.4 27.185 46.6024 29.181 48.8125 31.1685L50.1499 29.6814ZM50.5313 29.8481C50.5311 29.8482 50.527 29.8505 50.5133 29.8514C50.4979 29.8524 50.4698 29.8513 50.429 29.8409C50.3412 29.8183 50.239 29.7632 50.1576 29.6885L48.8048 31.1615C49.3572 31.6688 50.3916 32.1353 51.3992 31.65L50.5313 29.8481ZM50.9157 29.0739C50.9746 29.1289 51.0338 29.2504 50.9793 29.4493C50.9231 29.6546 50.7926 29.7593 50.6989 29.7851L51.2316 31.7129C52.1309 31.4644 52.7033 30.7265 52.9083 29.9774C53.1152 29.222 52.9941 28.2774 52.2797 27.6112L50.9157 29.0739ZM37.6483 16.9757C42.0768 21.0083 46.5038 25.0397 50.9228 29.0805L52.2725 27.6046C47.8517 23.5621 43.4231 19.5294 38.9949 15.4969L37.6483 16.9757ZM33.9535 13.6108C35.1851 14.7326 36.4168 15.8542 37.6483 16.9757L38.9949 15.4969C37.7633 14.3754 36.5318 13.254 35.3003 12.1323L33.9535 13.6108ZM19.1042 32.1356C24.5201 32.0769 29.9404 32.0862 35.3677 32.0954L35.3711 30.0954C29.9459 30.0862 24.5131 30.0769 19.0825 30.1357L19.1042 32.1356ZM17.6303 34.1534C17.5751 33.1968 18.3295 32.2582 19.2383 32.1251L18.9484 30.1462C16.9672 30.4364 15.5215 32.325 15.6337 34.2687L17.6303 34.1534ZM17.6303 38.5502C17.6311 37.1041 17.632 35.6576 17.632 34.2111H15.632C15.632 35.6569 15.6311 37.1028 15.6303 38.549L17.6303 38.5502ZM17.6372 49.3601C17.626 45.7577 17.6281 42.155 17.6303 38.5502L15.6303 38.549C15.6281 42.1532 15.626 45.7596 15.6372 49.3663L17.6372 49.3601ZM19.5751 51.2639C18.5821 51.2888 17.6372 50.366 17.6372 49.3632H15.6372C15.6372 51.4803 17.4985 53.3167 19.6253 53.2632L19.5751 51.2639ZM21.9255 51.2633C21.1564 51.254 20.3655 51.2443 19.5754 51.2638L19.625 53.2632C20.3719 53.2447 21.1258 53.2538 21.9012 53.2632L21.9255 51.2633ZM25.5364 51.1939C24.3682 51.2923 23.1755 51.2785 21.9255 51.2633L21.9012 53.2632C23.1342 53.2782 24.4239 53.2947 25.7042 53.1868L25.5364 51.1939ZM25.377 50.3002C25.4615 50.319 25.5164 50.3592 25.5621 50.4257C25.6157 50.5035 25.6579 50.6248 25.6596 50.7685C25.6614 50.9123 25.6221 51.0283 25.5749 51.0992C25.5364 51.1569 25.4886 51.1952 25.403 51.2142L25.8376 53.1664C27.1335 52.8779 27.6713 51.7084 27.6595 50.7439C27.6477 49.7834 27.0885 48.6319 25.8112 48.3479L25.377 50.3002ZM23.0475 50.2668C23.9114 50.2559 24.7134 50.2467 25.5018 50.3198L25.6864 48.3283C24.7758 48.2439 23.8683 48.2563 23.0222 48.2669L23.0475 50.2668ZM21.1332 50.2553C21.7839 50.283 22.4319 50.2746 23.0475 50.2668L23.0222 48.2669C22.3973 48.2748 21.8046 48.2821 21.2184 48.2571L21.1332 50.2553ZM18.6264 47.5638C18.6347 48.9214 19.7263 50.1212 21.0799 50.2516L21.2717 48.2608C20.9425 48.2291 20.6284 47.8871 20.6264 47.5516L18.6264 47.5638ZM18.6223 39.4785C18.6207 42.1717 18.619 44.866 18.6264 47.5604L20.6264 47.5549C20.619 44.8644 20.6207 42.1735 20.6223 39.4797L18.6223 39.4785ZM18.6237 36.0245C18.6237 37.1759 18.623 38.3271 18.6223 39.4785L20.6223 39.4797C20.623 38.3284 20.6237 37.1766 20.6237 36.0245H18.6237ZM21.4265 33.0831C19.8089 33.0623 18.496 34.5323 18.6272 36.1075L20.6203 35.9415C20.5843 35.5099 20.9959 35.0777 21.4007 35.0829L21.4265 33.0831ZM42.5734 33.083C35.5181 33.0778 28.4655 33.0778 21.4129 33.083L21.4143 35.083C28.466 35.0778 35.5176 35.0778 42.572 35.083L42.5734 33.083ZM45.3025 35.7729C45.2899 34.3151 44.0281 33.0621 42.5584 33.0831L42.587 35.0829C42.9359 35.0779 43.2994 35.4293 43.3026 35.7901L45.3025 35.7729ZM45.305 47.5283C45.3129 43.6142 45.3182 39.6947 45.3025 35.7775L43.3025 35.7855C43.3182 39.6962 43.3129 43.6104 43.305 47.5243L45.305 47.5283ZM42.8132 50.2531C44.2199 50.1424 45.3092 48.8878 45.305 47.5232L43.305 47.5294C43.3062 47.8894 42.9792 48.2338 42.6563 48.2592L42.8132 50.2531ZM40.8646 50.2675C41.484 50.2706 42.1227 50.274 42.7633 50.2558L42.7063 48.2566C42.105 48.2737 41.5 48.2707 40.8748 48.2675L40.8646 50.2675ZM39.7193 50.2665C40.0979 50.2635 40.4776 50.2655 40.8646 50.2675L40.8749 48.2675C40.49 48.2655 40.0974 48.2635 39.7038 48.2665L39.7193 50.2665ZM39.4637 50.2633C39.5404 50.2647 39.6244 50.2662 39.7079 50.2665L39.7153 48.2665C39.6482 48.2663 39.5783 48.265 39.499 48.2636L39.4637 50.2633ZM38.5279 50.3911C38.5514 50.3622 38.5914 50.3229 38.7391 50.2933C38.9161 50.2578 39.1314 50.2575 39.4637 50.2633L39.499 48.2636C39.2107 48.2586 38.7725 48.2467 38.3456 48.3324C37.8894 48.4239 37.375 48.6386 36.9759 49.1296L38.5279 50.3911ZM38.7465 51.2637C38.6278 51.2514 38.4762 51.1573 38.3962 50.9339C38.3165 50.7113 38.3752 50.5505 38.4557 50.4707L37.0481 49.0499C36.3031 49.788 36.2298 50.8161 36.5133 51.608C36.7965 52.3991 37.5032 53.1451 38.5394 53.253L38.7465 51.2637ZM41.6638 51.2631C40.6557 51.2641 39.652 51.2652 38.6498 51.2584L38.6362 53.2583C39.6476 53.2652 40.659 53.2641 41.6659 53.2631L41.6638 51.2631ZM44.4281 51.2662C43.5054 51.2612 42.5827 51.2621 41.6638 51.2631L41.6659 53.2631C42.5859 53.2621 43.5021 53.2612 44.4172 53.2662L44.4281 51.2662ZM46.075 50.1826C45.7801 50.8025 45.1 51.2407 44.386 51.2669L44.4593 53.2655C45.8827 53.2133 47.251 52.366 47.881 51.0419L46.075 50.1826ZM46.3029 48.5381C46.3104 49.3003 46.2945 49.7664 46.0944 50.144L47.8616 51.0805C48.3397 50.1785 48.3093 49.1803 48.3028 48.5183L46.3029 48.5381ZM46.3022 48.0363C46.2996 48.208 46.3013 48.38 46.3029 48.5381L48.3028 48.5183C48.3012 48.3557 48.2998 48.2091 48.302 48.0667L46.3022 48.0363ZM46.3031 42.6764C46.3001 44.4673 46.2971 46.2608 46.3021 48.0543L48.3021 48.0487C48.2971 46.2604 48.3001 44.4714 48.3031 42.6797L46.3031 42.6764ZM46.2838 33.9729C46.3128 36.8706 46.308 39.7702 46.3031 42.6764L48.3031 42.6797C48.308 39.7755 48.3128 36.8642 48.2837 33.9529L46.2838 33.9729ZM44.4244 32.0991C45.3788 32.0974 46.2753 32.9939 46.2838 33.9715L48.2837 33.9543C48.2661 31.9112 46.5078 30.0955 44.4209 30.0991L44.4244 32.0991ZM35.3677 32.0954C38.3854 32.1005 41.4052 32.1057 44.4248 32.0991L44.4204 30.0991C41.4054 30.1057 38.3894 30.1005 35.3711 30.0954L35.3677 32.0954Z" fill="url(#paint1_linear)"/>
<rect x="4" y="4" width="56" height="56" rx="4" stroke="url(#paint2_linear)" stroke-width="6"/>
<defs>
<linearGradient id="paint0_linear" x1="32" y1="52.2741" x2="32" y2="12" gradientUnits="userSpaceOnUse">
<stop stop-color="#0E2DD2"/>
<stop offset="1" stop-color="#00D1FF"/>
</linearGradient>
<linearGradient id="paint1_linear" x1="32" y1="52.2741" x2="32" y2="12" gradientUnits="userSpaceOnUse">
<stop stop-color="#0E2DD2"/>
<stop offset="1" stop-color="#00D1FF"/>
</linearGradient>
<linearGradient id="paint2_linear" x1="32" y1="60" x2="32" y2="4" gradientUnits="userSpaceOnUse">
<stop stop-color="#0E2DD2"/>
<stop offset="1" stop-color="#00D1FF"/>
</linearGradient>
</defs>
</svg>
