<svg width="48" height="48" viewBox="0 0 48 48" fill="none" xmlns="http://www.w3.org/2000/svg">
<path d="M39.1875 14L44.1875 20.07C44.1875 20.07 42.3375 27.035 37.1875 32C27.2975 41.533 12.8535 35.303 7.1875 31C1.8305 26.63 4.4705 25.668 6.1875 26L11.1875 27C2.1225 12.699 4.6125 11.172 7.1875 12L16.1875 16C21.9565 19.177 24.6875 17.5 26.1875 16L29.1875 13C33.6875 9.00002 38.1575 12.84 39.1875 14Z" stroke="url(#paint0_linear_681_4)" stroke-width="4" stroke-linecap="round" stroke-linejoin="round"/>
<path d="M34.1875 24C32.5306 24 31.1875 22.6569 31.1875 21C31.1875 19.3431 32.5306 18 34.1875 18C35.8444 18 37.1875 19.3431 37.1875 21C37.1875 22.6569 35.8444 24 34.1875 24Z" fill="url(#paint1_linear_681_4)"/>
<defs>
<linearGradient id="paint0_linear_681_4" x1="24.0941" y1="37.0108" x2="24.0941" y2="11.2231" gradientUnits="userSpaceOnUse">
<stop stop-color="#FD5B00"/>
<stop offset="0.411458" stop-color="#AB18A8"/>
<stop offset="1" stop-color="#8E00E4"/>
</linearGradient>
<linearGradient id="paint1_linear_681_4" x1="34.1875" y1="24" x2="34.1875" y2="18" gradientUnits="userSpaceOnUse">
<stop stop-color="#FD5B00"/>
<stop offset="0.411458" stop-color="#AB18A8"/>
<stop offset="1" stop-color="#8E00E4"/>
</linearGradient>
</defs>
</svg>
