<svg width="192" height="192" viewBox="0 0 192 192" fill="none" xmlns="http://www.w3.org/2000/svg">
<path fill-rule="evenodd" clip-rule="evenodd" d="M37.7175 9.00084C34.8793 9.00084 32.0189 9.25526 29.2694 10.0185C17.85 13.0051 9.10255 23.9891 9.02495 35.8139C8.99168 76.0223 8.99168 116.22 9.02495 156.428C9.02495 170.509 21.431 182.998 35.5223 183.274C66.8677 183.352 98.2196 183.336 129.573 183.32H129.574C138.475 183.315 147.378 183.31 156.279 183.308C167.466 183.297 178.131 175.775 181.912 165.277C183.597 161.052 183.686 156.45 183.608 151.981C183.587 133.549 183.591 115.118 183.595 96.6864C183.599 76.4141 183.604 56.1417 183.575 35.8692C183.597 21.4892 170.626 8.84598 156.257 9.02297C134.525 8.99255 112.793 8.99893 91.0614 9.00532C73.2801 9.01055 55.4988 9.01577 37.7175 9.00084ZM22.8723 31.9313C24.5797 26.7545 29.4578 22.7945 34.9014 22.1972C59.535 22.0137 84.1769 22.0431 108.82 22.0726C124.281 22.0911 139.743 22.1096 155.204 22.0755C163.319 21.5667 170.903 28.7566 170.504 36.92C170.537 76.3984 170.526 115.877 170.504 155.344C170.637 160.687 167.61 165.941 162.854 168.43C159.871 170.144 156.335 170.255 152.987 170.211C134.873 170.185 116.762 170.193 98.6523 170.201H98.6504C77.9539 170.21 57.2592 170.219 36.5645 170.178C29.8126 170.277 23.4377 165.067 22.3956 158.386C21.852 154.241 21.9936 150.07 22.1351 145.902C22.2043 143.864 22.2734 141.826 22.2625 139.792C22.1336 118.839 22.1396 97.8916 22.1456 76.9455C22.1483 67.2832 22.1511 57.6213 22.1406 47.9594C22.2934 45.9738 22.2262 43.9697 22.1591 41.9661C22.0461 38.5899 21.933 35.2148 22.8723 31.9313ZM153.486 69.6398C134.617 61.6866 113.763 59.6845 93.4626 60.68C75.4023 61.3769 57.3309 65.1157 40.6342 72.0733C35.6341 73.9206 33.9489 80.7677 37.419 84.7719C40.2572 88.411 45.4791 87.9576 49.2819 86.2763C65.0251 80.1261 81.888 77.0731 98.7732 76.7081C114.406 76.4537 130.404 77.8806 145.072 83.6879C145.437 83.8207 145.803 83.963 146.172 84.1061L146.173 84.1065C147.952 84.7972 149.777 85.506 151.724 85.2586C155.881 84.971 159.196 80.9004 158.886 76.7966C158.742 73.5888 156.424 70.7902 153.486 69.6398ZM94.6487 90.4907C112.255 89.9266 130.204 92.7583 146.313 100.059C151.147 102.006 151.524 109.295 147.112 111.906C144.005 113.767 140.809 112.378 137.72 111.035C136.587 110.542 135.468 110.056 134.373 109.738C108.951 101.099 80.3468 102.205 55.5457 112.415C55.2703 112.503 54.9911 112.6 54.709 112.697C53.117 113.248 51.4304 113.83 49.7917 113.145C45.6452 112.238 43.3835 106.961 45.5787 103.344C46.6319 101.353 48.7717 100.402 50.7451 99.5833C64.6257 93.7981 79.6372 90.9332 94.6487 90.4907ZM137.654 125.533C111.389 114.184 81.0448 117.182 54.8357 127.104C51.3212 128.232 50.39 133.188 52.9177 135.732C54.869 138.121 58.3392 137.458 60.8669 136.506C79.9362 129.715 100.945 126.606 120.868 131.374C124.786 132.218 128.534 133.61 132.285 135.003C134.042 135.655 135.8 136.308 137.576 136.905C137.89 136.721 138.227 136.54 138.571 136.354C140.357 135.393 142.354 134.319 142.465 132.093C143.108 128.951 140.37 126.463 137.654 125.533Z" fill="url(#paint0_linear_659_14)"/>
<path d="M29.2694 10.0185L30.0285 12.9209L30.0502 12.9152L30.0718 12.9092L29.2694 10.0185ZM37.7175 9.00084L37.72 6.00084H37.7175V9.00084ZM9.02495 35.8139L6.02502 35.7942L6.02496 35.8028L6.02495 35.8114L9.02495 35.8139ZM9.02495 156.428H12.025V156.426L9.02495 156.428ZM35.5223 183.274L35.4636 186.273L35.4892 186.274H35.5148L35.5223 183.274ZM129.575 183.32V186.32H129.576L129.575 183.32ZM156.279 183.308L156.28 186.308H156.282L156.279 183.308ZM181.912 165.277L179.125 164.166L179.107 164.213L179.089 164.26L181.912 165.277ZM183.608 151.981L180.608 151.984V152.009V152.033L183.608 151.981ZM183.575 35.8692L180.575 35.8646V35.8735L183.575 35.8692ZM156.257 9.02297L156.253 12.023H156.273L156.294 12.0227L156.257 9.02297ZM34.9014 22.1972L34.8791 19.1973L34.7262 19.1984L34.5742 19.2151L34.9014 22.1972ZM22.8723 31.9313L20.0233 30.9916L20.0045 31.0486L19.988 31.1062L22.8723 31.9313ZM155.204 22.0755L155.211 25.0755L155.301 25.0753L155.392 25.0696L155.204 22.0755ZM170.504 36.92L167.508 36.7735L167.504 36.848V36.9225L170.504 36.92ZM170.504 155.344L167.504 155.342V155.38L167.505 155.419L170.504 155.344ZM162.854 168.43L161.463 165.772L161.411 165.799L161.359 165.829L162.854 168.43ZM152.987 170.211L153.026 167.211H153.009H152.991L152.987 170.211ZM98.6523 170.201V173.201H98.6536L98.6523 170.201ZM98.6504 170.201V167.201H98.6491L98.6504 170.201ZM36.5645 170.178L36.5705 167.178H36.5455H36.5205L36.5645 170.178ZM22.3956 158.386L19.4211 158.776L19.4258 158.812L19.4314 158.848L22.3956 158.386ZM22.2625 139.792L25.2625 139.776L25.2624 139.774L22.2625 139.792ZM22.1406 47.9594L19.1494 47.7293L19.1405 47.8458L19.1406 47.9627L22.1406 47.9594ZM93.4626 60.68L93.5783 63.6777L93.594 63.6771L93.6096 63.6764L93.4626 60.68ZM153.486 69.6398L152.321 72.4042L152.356 72.4192L152.392 72.4332L153.486 69.6398ZM40.6342 72.0733L41.6739 74.8873L41.7315 74.8661L41.7882 74.8425L40.6342 72.0733ZM37.419 84.7719L39.7847 82.9269L39.737 82.8657L39.6862 82.8071L37.419 84.7719ZM49.2819 86.2763L48.1903 83.4819L48.129 83.5059L48.0688 83.5325L49.2819 86.2763ZM98.7732 76.7081L98.7244 73.7085L98.7164 73.7086L98.7084 73.7088L98.7732 76.7081ZM145.072 83.6879L143.968 86.4772L144.007 86.4927L144.046 86.507L145.072 83.6879ZM146.172 84.1061L145.086 86.9026L145.116 86.9144L145.147 86.9255L146.172 84.1061ZM146.173 84.1065L147.259 81.3099L147.229 81.2982L147.198 81.2871L146.173 84.1065ZM151.724 85.2586L151.517 82.2657L151.431 82.2716L151.346 82.2825L151.724 85.2586ZM158.886 76.7966L155.889 76.9311L155.891 76.9769L155.894 77.0225L158.886 76.7966ZM146.313 100.059L145.074 102.791L145.133 102.818L145.192 102.842L146.313 100.059ZM94.6487 90.4907L94.7371 93.4894L94.7448 93.4892L94.6487 90.4907ZM147.112 111.906L145.584 109.324L145.577 109.328L145.57 109.332L147.112 111.906ZM134.373 109.738L133.407 112.578L133.472 112.6L133.537 112.619L134.373 109.738ZM55.5457 112.415L56.4609 115.272L56.576 115.235L56.6878 115.189L55.5457 112.415ZM49.7917 113.145L50.9495 110.377L50.6986 110.272L50.4328 110.214L49.7917 113.145ZM45.5787 103.344L48.1434 104.901L48.1892 104.825L48.2306 104.747L45.5787 103.344ZM50.7451 99.5833L51.8947 102.354L51.8993 102.352L50.7451 99.5833ZM54.8357 127.104L55.7525 129.96L55.8258 129.937L55.8979 129.91L54.8357 127.104ZM137.654 125.533L136.464 128.287L136.572 128.333L136.682 128.371L137.654 125.533ZM52.9177 135.732L55.2412 133.834L55.1488 133.721L55.0458 133.617L52.9177 135.732ZM60.8669 136.506L59.8605 133.68L59.8349 133.689L59.8095 133.699L60.8669 136.506ZM120.868 131.374L120.17 134.292L120.203 134.3L120.237 134.307L120.868 131.374ZM137.576 136.905L136.621 139.749L137.917 140.184L139.096 139.491L137.576 136.905ZM142.465 132.093L139.526 131.492L139.48 131.715L139.469 131.943L142.465 132.093ZM30.0718 12.9092C32.4769 12.2416 35.0481 12.0008 37.7175 12.0008V6.00084C34.7105 6.00084 31.5609 6.26896 28.467 7.12781L30.0718 12.9092ZM12.0249 35.8336C12.0934 25.3999 19.8889 15.5727 30.0285 12.9209L28.5103 7.11612C15.8111 10.4375 6.11175 22.5783 6.02502 35.7942L12.0249 35.8336ZM12.025 156.426C11.9917 116.219 11.9917 76.0231 12.025 35.8164L6.02495 35.8114C5.99168 76.0215 5.99168 116.221 6.02495 156.43L12.025 156.426ZM35.5811 180.275C23.0994 180.03 12.025 168.851 12.025 156.428H6.02495C6.02495 172.167 19.7626 185.966 35.4636 186.273L35.5811 180.275ZM129.573 180.32C98.2183 180.336 66.8699 180.352 35.5298 180.274L35.5148 186.274C66.8655 186.352 98.2219 186.336 129.575 186.32L129.573 180.32ZM129.574 180.32H129.573V186.32H129.575L129.574 180.32ZM156.278 180.308C147.376 180.31 138.474 180.315 129.573 180.32L129.576 186.32C138.478 186.315 147.379 186.31 156.28 186.308L156.278 180.308ZM179.089 164.26C175.736 173.571 166.198 180.298 156.276 180.308L156.282 186.308C168.734 186.296 180.526 177.979 184.735 166.294L179.089 164.26ZM180.608 152.033C180.686 156.504 180.565 160.557 179.125 164.166L184.699 166.388C186.629 161.547 186.686 156.396 186.608 151.929L180.608 152.033ZM180.595 96.6858C180.591 115.117 180.587 133.55 180.608 151.984L186.608 151.978C186.587 133.548 186.591 115.119 186.595 96.6871L180.595 96.6858ZM180.575 35.8735C180.604 56.1431 180.599 76.413 180.595 96.6858L186.595 96.6871C186.599 76.4151 186.604 56.1403 186.575 35.8649L180.575 35.8735ZM156.294 12.0227C169.016 11.866 180.594 23.184 180.575 35.8646L186.575 35.8738C186.6 19.7944 172.236 5.82592 156.22 6.0232L156.294 12.0227ZM91.0623 12.0053C112.795 11.9989 134.524 11.9925 156.253 12.023L156.261 6.02297C134.526 5.99255 112.792 5.99893 91.0606 6.00532L91.0623 12.0053ZM37.715 12.0008C55.4983 12.0158 73.2813 12.0105 91.0623 12.0053L91.0606 6.00532C73.279 6.01055 55.4993 6.01577 37.72 6.00084L37.715 12.0008ZM34.5742 19.2151C27.9624 19.9406 22.0987 24.699 20.0233 30.9916L25.7213 32.871C27.0607 28.81 30.9532 25.6484 35.2286 25.1793L34.5742 19.2151ZM108.823 19.0726C84.1827 19.0431 59.5278 19.0136 34.8791 19.1973L34.9238 25.1971C59.5422 25.0137 84.1712 25.0431 108.816 25.0726L108.823 19.0726ZM155.197 19.0755C139.743 19.1096 124.286 19.0911 108.823 19.0726L108.816 25.0726C124.277 25.0911 139.744 25.1096 155.211 25.0755L155.197 19.0755ZM173.5 37.0665C173.99 27.0445 164.844 18.4652 155.016 19.0814L155.392 25.0696C161.794 24.6682 167.816 30.4687 167.508 36.7735L173.5 37.0665ZM173.504 155.346C173.526 115.878 173.537 76.398 173.504 36.9175L167.504 36.9225C167.537 76.3988 167.526 115.876 167.504 155.342L173.504 155.346ZM164.245 171.088C170.033 168.059 173.664 161.733 173.503 155.269L167.505 155.419C167.61 159.641 165.187 163.823 161.463 165.772L164.245 171.088ZM152.948 173.211C156.264 173.254 160.576 173.199 164.349 171.031L161.359 165.829C159.166 167.089 156.406 167.256 153.026 167.211L152.948 173.211ZM98.6536 173.201C116.764 173.193 134.872 173.185 152.983 173.211L152.991 167.211C134.874 167.185 116.759 167.193 98.6504 167.201L98.6536 173.201ZM98.6504 173.201L98.6523 167.201H98.6504V173.201ZM36.5585 173.178C57.2575 173.219 77.9564 173.21 98.6523 173.201L98.6491 167.201C77.952 167.21 57.2609 167.219 36.5705 167.178L36.5585 173.178ZM19.4314 158.848C20.7116 167.055 28.4116 173.298 36.6085 173.178L36.5205 167.178C31.2136 167.256 26.1639 163.079 25.3598 157.924L19.4314 158.848ZM19.1368 145.8C18.9967 149.927 18.84 154.345 19.4211 158.776L25.3701 157.996C24.864 154.136 24.9904 150.214 25.1334 146.003L19.1368 145.8ZM19.2625 139.808C19.2731 141.773 19.2063 143.752 19.1368 145.8L25.1334 146.003C25.2022 143.975 25.2738 141.879 25.2625 139.776L19.2625 139.808ZM19.1456 76.9446C19.1396 97.8891 19.1336 118.847 19.2626 139.81L25.2624 139.774C25.1336 118.832 25.1396 97.894 25.1456 76.9463L19.1456 76.9446ZM19.1406 47.9627C19.1511 57.6221 19.1483 67.282 19.1456 76.9446L25.1456 76.9463C25.1483 67.2844 25.1511 57.6204 25.1406 47.9561L19.1406 47.9627ZM19.1608 42.0666C19.2289 44.0988 19.2874 45.9365 19.1494 47.7293L25.1318 48.1895C25.2994 46.011 25.2236 43.8406 25.1575 41.8657L19.1608 42.0666ZM19.988 31.1062C18.8975 34.9183 19.0504 38.7703 19.1608 42.0666L25.1575 41.8657C25.0417 38.4094 24.9685 35.5114 25.7566 32.7564L19.988 31.1062ZM93.6096 63.6764C113.64 62.6941 134.005 64.6841 152.321 72.4042L154.651 66.8753C135.229 58.689 113.886 56.6748 93.3157 57.6836L93.6096 63.6764ZM41.7882 74.8425C58.1315 68.0321 75.8484 64.3619 93.5783 63.6777L93.347 57.6822C74.9563 58.3918 56.5304 62.1992 39.4803 69.3041L41.7882 74.8425ZM39.6862 82.8071C37.5624 80.3565 38.6782 75.9941 41.6739 74.8873L39.5946 69.2592C32.59 71.847 30.3355 81.1788 35.1519 86.7366L39.6862 82.8071ZM48.0688 83.5325C46.4972 84.2273 44.7229 84.6202 43.1729 84.5249C41.675 84.4328 40.5527 83.9118 39.7847 82.9269L35.0534 86.6168C37.1235 89.2711 40.0313 90.343 42.8046 90.5136C45.5258 90.681 48.2639 90.0065 50.495 89.02L48.0688 83.5325ZM98.7084 73.7088C81.5093 74.0805 64.2945 77.1907 48.1903 83.4819L50.3736 89.0706C65.7558 83.0614 82.2668 80.0656 98.8381 79.7074L98.7084 73.7088ZM146.176 80.8985C130.987 74.8847 114.541 73.4511 98.7244 73.7085L98.8221 79.7077C114.271 79.4563 129.821 80.8764 143.968 86.4772L146.176 80.8985ZM147.258 81.3096C146.895 81.1686 146.498 81.0144 146.098 80.8687L144.046 86.507C144.376 86.627 144.712 86.7575 145.086 86.9026L147.258 81.3096ZM147.198 81.2871L147.197 81.2867L145.147 86.9255L147.198 81.2871ZM147.198 81.2871L145.147 86.9255L145.148 86.9258L147.198 81.2871ZM151.346 82.2825C150.279 82.4181 149.171 82.0523 147.259 81.3099L145.087 86.903C146.733 87.542 149.275 88.5938 152.102 88.2346L151.346 82.2825ZM155.894 77.0225C156.086 79.563 153.919 82.0995 151.517 82.2657L151.931 88.2514C157.843 87.8424 162.306 82.2377 161.877 76.5706L155.894 77.0225ZM152.392 72.4332C154.401 73.2198 155.806 75.0847 155.889 76.9311L161.883 76.662C161.678 72.0928 158.447 68.3605 154.58 66.8463L152.392 72.4332ZM147.551 97.3265C130.95 89.8029 112.53 86.9162 94.5527 87.4922L94.7448 93.4892C111.979 92.937 129.457 95.7136 145.074 102.791L147.551 97.3265ZM148.64 114.488C151.997 112.501 153.376 108.837 153.174 105.549C152.971 102.248 151.135 98.767 147.434 97.2762L145.192 102.842C146.325 103.298 147.094 104.435 147.185 105.918C147.277 107.414 146.638 108.7 145.584 109.324L148.64 114.488ZM136.524 113.786C139.276 114.982 144.009 117.262 148.653 114.48L145.57 109.332C144 110.273 142.343 109.773 138.916 108.284L136.524 113.786ZM133.537 112.619C134.414 112.873 135.351 113.276 136.524 113.786L138.916 108.284C137.822 107.808 136.522 107.238 135.208 106.857L133.537 112.619ZM56.6878 115.189C80.8324 105.249 108.688 104.178 133.407 112.578L135.338 106.898C109.214 98.0199 79.8613 99.1606 54.4037 109.641L56.6878 115.189ZM55.689 115.533C55.9772 115.433 56.2237 115.348 56.4609 115.272L54.6305 109.558C54.317 109.658 54.0051 109.766 53.7289 109.862L55.689 115.533ZM48.634 115.913C51.5056 117.114 54.3347 116.001 55.689 115.533L53.7289 109.862C52.8846 110.154 52.3203 110.34 51.8052 110.42C51.3486 110.492 51.1125 110.446 50.9495 110.377L48.634 115.913ZM43.0141 101.787C41.3268 104.568 41.4298 107.835 42.5505 110.444C43.6716 113.055 45.9701 115.38 49.1507 116.076L50.4328 110.214C49.4668 110.003 48.5613 109.236 48.0637 108.077C47.5657 106.917 47.6355 105.737 48.1434 104.901L43.0141 101.787ZM49.5955 96.8123C47.7761 97.5671 44.559 98.8559 42.9269 101.941L48.2306 104.747C48.7049 103.85 49.7674 103.237 51.8947 102.354L49.5955 96.8123ZM94.5603 87.492C79.2327 87.9438 63.8532 90.8699 49.591 96.8142L51.8993 102.352C65.3982 96.7263 80.0418 93.9226 94.7371 93.4894L94.5603 87.492ZM55.8979 129.91C81.6535 120.159 111.146 117.347 136.464 128.287L138.844 122.779C111.633 111.021 80.4361 114.205 53.7736 124.298L55.8979 129.91ZM55.0458 133.617C54.6143 133.183 54.3603 132.393 54.547 131.503C54.7293 130.633 55.2254 130.13 55.7525 129.96L53.9189 124.248C50.9315 125.206 49.2047 127.745 48.6748 130.271C48.1492 132.777 48.6935 135.737 50.7896 137.846L55.0458 133.617ZM59.8095 133.699C58.7043 134.115 57.603 134.381 56.7053 134.372C55.8718 134.364 55.4895 134.138 55.2412 133.834L50.5942 137.63C52.2972 139.715 54.6257 140.352 56.647 140.372C58.6042 140.391 60.5018 139.849 61.9243 139.313L59.8095 133.699ZM121.567 128.456C100.9 123.51 79.2743 126.766 59.8605 133.68L61.8734 139.332C80.5981 132.664 100.99 129.701 120.17 134.292L121.567 128.456ZM133.329 132.19C129.613 130.81 125.664 129.338 121.5 128.441L120.237 134.307C123.909 135.097 127.456 136.409 131.24 137.815L133.329 132.19ZM138.532 134.061C136.808 133.482 135.094 132.846 133.329 132.19L131.24 137.815C132.99 138.465 134.793 139.135 136.621 139.749L138.532 134.061ZM137.149 133.712C136.815 133.892 136.428 134.1 136.056 134.319L139.096 139.491C139.352 139.341 139.638 139.187 139.993 138.996L137.149 133.712ZM139.469 131.943C139.464 132.053 139.454 132.183 139.132 132.474C138.716 132.852 138.112 133.194 137.149 133.712L139.993 138.996C140.815 138.553 142.104 137.878 143.16 136.921C144.311 135.879 145.356 134.358 145.462 132.243L139.469 131.943ZM136.682 128.371C137.608 128.688 138.478 129.261 139.016 129.905C139.515 130.504 139.625 131.009 139.526 131.492L145.404 132.694C145.949 130.035 145.011 127.725 143.623 126.062C142.273 124.444 140.417 123.308 138.626 122.695L136.682 128.371Z" fill="url(#paint1_linear_659_14)"/>
<defs>
<linearGradient id="paint0_linear_659_14" x1="96.3134" y1="183.333" x2="96.3134" y2="8.99999" gradientUnits="userSpaceOnUse">
<stop stop-color="#02AA93"/>
<stop offset="1" stop-color="#67FF80"/>
</linearGradient>
<linearGradient id="paint1_linear_659_14" x1="96.314" y1="186.333" x2="96.314" y2="5.99999" gradientUnits="userSpaceOnUse">
<stop stop-color="#02AA93"/>
<stop offset="1" stop-color="#67FF80"/>
</linearGradient>
</defs>
</svg>
