<svg width="128" height="128" viewBox="0 0 128 128" fill="none" xmlns="http://www.w3.org/2000/svg">
<path d="M36.8926 96.9492V105.404C36.8926 112.52 55.496 118.295 78.4467 118.295C101.397 118.295 120.001 112.52 120.001 105.404V79.6181M120.001 79.6181C120.001 86.7385 92.0928 92.6409 69.1421 92.6409M120.001 79.6181V55.173M73.9593 64.0495C96.91 64.0495 120.001 58.3731 120.001 51.2565V22.891M120.001 22.891C120.001 30.0105 101.397 35.7819 78.4467 35.7819C55.4971 35.7819 36.8926 30.0105 36.8926 22.891C36.8926 15.7715 55.4971 10 78.4467 10C101.397 10 120.001 15.7715 120.001 22.891Z" stroke="url(#paint0_linear_678_63)" stroke-width="10"/>
<path d="M16.3239 35.0664H16.3037L16.2835 35.0666C15.2109 35.079 14.1466 35.3023 13.1497 35.7288C12.1526 36.1554 11.2363 36.7797 10.4582 37.5759C9.67978 38.3727 9.05442 39.3269 8.62851 40.3899C8.20579 41.445 7.99056 42.5802 8.00032 43.7297V90.9599C7.99056 92.109 8.20579 93.2448 8.62851 94.3C9.05442 95.3629 9.67977 96.317 10.4582 97.1137C11.2363 97.9095 12.1526 98.5338 13.1497 98.9607C14.1466 99.3869 15.2109 99.6109 16.2835 99.6227L16.3037 99.6234H16.3239H62.4962H62.5163L62.5366 99.6227C63.6091 99.6109 64.6735 99.3869 65.6703 98.9607C66.6675 98.5338 67.5838 97.9095 68.3618 97.1137C69.1402 96.317 69.7656 95.3629 70.1915 94.3C70.6142 93.2448 70.8295 92.1098 70.8197 90.9599V43.7295C70.8295 42.5801 70.6142 41.4449 70.1915 40.3899C69.7656 39.3269 69.1402 38.3727 68.3618 37.5759C67.5838 36.7797 66.6675 36.1554 65.6703 35.7288C64.6735 35.3023 63.6091 35.079 62.5366 35.0666L62.5163 35.0664H62.4962H16.3239Z" stroke="url(#paint1_linear_678_63)" stroke-width="10"/>
<path d="M45.7154 76.107C45.7154 74.5898 45.2087 73.4296 44.1955 72.6264C43.1823 71.8053 41.3585 70.9486 38.724 70.0561C36.0896 69.1457 34.004 68.2533 32.4673 67.3787C28.2793 64.9869 26.1852 61.7651 26.1852 57.7133C26.1852 55.6071 26.7425 53.7329 27.857 52.0909C28.9885 50.4308 30.6012 49.1368 32.6953 48.2086C34.8062 47.2805 37.1704 46.8164 39.788 46.8164C42.4224 46.8164 44.7697 47.3251 46.8299 48.3425C48.8902 49.3421 50.486 50.7611 51.6175 52.5995C52.5036 54.0181 53.0478 55.5855 53.2502 57.3017C53.3514 58.1603 52.6764 58.8646 51.8578 58.8646H47.2229C46.4043 58.8646 45.7678 58.1533 45.5851 57.3098C45.3566 56.2549 44.8765 55.3898 44.1449 54.7147C43.0809 53.7151 41.5864 53.2153 39.6613 53.2153C37.8037 53.2153 36.3598 53.6348 35.3297 54.4737C34.2996 55.2947 33.7845 56.3836 33.7845 57.7401C33.7845 59.0074 34.384 60.0694 35.583 60.9262C36.7989 61.783 38.5805 62.5862 40.9279 63.3358C45.251 64.7102 48.4005 66.4148 50.3763 68.4497C52.3521 70.4845 53.34 73.0191 53.34 76.0534C53.34 79.4269 52.1326 82.0778 49.7177 84.0048C47.3028 85.9153 44.052 86.8702 39.9652 86.8702C37.1282 86.8702 34.5445 86.3258 32.214 85.237C29.8835 84.1301 28.1019 82.6222 26.8691 80.7125C25.9117 79.2081 25.3312 77.516 25.1278 75.6357C25.0347 74.7761 25.7089 74.0722 26.5276 74.0722H31.1877C32.0064 74.0722 32.6488 74.7802 32.7918 75.6322C33.3391 78.8938 35.7302 80.5245 39.9652 80.5245C41.7722 80.5245 43.1823 80.1409 44.1955 79.3734C45.2087 78.588 45.7154 77.4992 45.7154 76.107Z" fill="url(#paint2_linear_678_63)"/>
<defs>
<linearGradient id="paint0_linear_678_63" x1="78.4467" y1="118.295" x2="78.4467" y2="10" gradientUnits="userSpaceOnUse">
<stop stop-color="#00B59C"/>
<stop offset="1" stop-color="#9CFFAC"/>
</linearGradient>
<linearGradient id="paint1_linear_678_63" x1="39.41" y1="99.6234" x2="39.41" y2="35.0664" gradientUnits="userSpaceOnUse">
<stop stop-color="#00B59C"/>
<stop offset="1" stop-color="#9CFFAC"/>
</linearGradient>
<linearGradient id="paint2_linear_678_63" x1="39.2296" y1="46.8164" x2="39.2296" y2="86.8702" gradientUnits="userSpaceOnUse">
<stop stop-color="#97EB0E"/>
<stop offset="1" stop-color="#19B90B"/>
</linearGradient>
</defs>
</svg>
