<svg width="64" height="64" viewBox="0 0 64 64" fill="none" xmlns="http://www.w3.org/2000/svg">
<path fill-rule="evenodd" clip-rule="evenodd" d="M4 27.9767C4 14.8294 14.8151 4 27.945 4L27.945 4.00012C41.0749 4.00012 51.89 14.8295 51.89 27.9768V27.9884C51.887 30.4491 51.4786 32.8677 50.7442 35.1884L56.6875 41.1436L56.6187 41.0769C58.7743 43.1786 60.1401 46.4919 59.9886 49.4675C59.8359 52.4652 58.5293 54.9248 56.7304 56.7261C54.9315 58.5273 52.4752 59.8357 49.4814 59.9885C46.4877 60.1414 43.1518 58.7523 41.0555 56.5661L35.2602 50.767C32.9035 51.5256 30.4478 51.9539 27.945 51.9534C14.8151 51.9534 4 41.124 4 27.9767ZM16.6863 16.6863C19.6869 13.6857 23.7565 12 28 12C32.2435 12 36.3131 13.6857 39.3137 16.6863C42.3143 19.6869 44 23.7565 44 28C43.9949 31.1861 43.0387 34.2982 41.2539 36.9375L51.1523 46.8359C54.0972 49.6635 49.7377 54.023 46.9102 51.0781L37.0371 41.2051H37.0352C34.3739 43.0259 31.2245 44.0001 28 44C23.7565 44 19.6869 42.3143 16.6863 39.3137C13.6857 36.3131 12 32.2435 12 28C12 23.7565 13.6857 19.6869 16.6863 16.6863ZM31.8268 18.7612C30.6136 18.2587 29.3132 18 28 18C26.6868 18 25.3864 18.2587 24.1732 18.7612C22.9599 19.2638 21.8575 20.0003 20.9289 20.9289C20.0003 21.8575 19.2638 22.9599 18.7612 24.1732C18.2587 25.3864 18 26.6868 18 28C18 29.3132 18.2587 30.6136 18.7612 31.8268C19.2638 33.0401 20.0003 34.1425 20.9289 35.0711C21.8575 35.9997 22.9599 36.7362 24.1732 37.2388C25.3864 37.7413 26.6868 38 28 38C29.3132 38 30.6136 37.7413 31.8268 37.2388C33.0401 36.7362 34.1425 35.9997 35.0711 35.0711C35.9997 34.1425 36.7362 33.0401 37.2388 31.8268C37.7413 30.6136 38 29.3132 38 28C38 26.6868 37.7413 25.3864 37.2388 24.1732C36.7362 22.9599 35.9997 21.8575 35.0711 20.9289C34.1425 20.0003 33.0401 19.2638 31.8268 18.7612Z" fill="url(#paint0_linear)"/>
<defs>
<linearGradient id="paint0_linear" x1="32" y1="60" x2="32" y2="4" gradientUnits="userSpaceOnUse">
<stop stop-color="#00B59C"/>
<stop offset="1" stop-color="#9CFFAC"/>
</linearGradient>
</defs>
</svg>
