<svg width="128" height="128" viewBox="0 0 128 128" fill="none" xmlns="http://www.w3.org/2000/svg">
<path d="M56.2755 9.47207C68.5072 7.9367 81.2734 10.1438 92.1163 16.1344C104.354 22.9545 113.687 34.5657 118.672 47.6849C123.189 59.5908 122.891 72.9703 119.085 85.0274C114.954 98.996 104.863 110.683 92.4824 117.893C89.7258 119.025 86.5221 116.084 87.2674 113.192C87.6603 110.943 89.9697 110.018 91.5743 108.777C101.043 102.451 108.553 92.8755 111.581 81.7301C114.819 71.2639 114.777 59.6525 110.66 49.4396C106.136 38.3424 98.0423 28.5339 87.47 22.9134C78.0628 17.9029 67.0709 16.2715 56.5802 17.711C44.6468 19.5342 33.4043 25.8264 25.6699 35.2169C17.9152 44.3811 13.6145 56.5132 14.1022 68.5903C14.3866 84.6638 23.0556 100.217 36.4316 108.86C38.3754 109.86 39.8721 112.163 38.9646 114.377C38.2399 116.578 35.6189 117.558 33.56 116.701C23.3536 110.443 15.1181 100.902 10.5194 89.7429C4.9591 76.4727 4.47824 61.0713 9.36132 47.5204C13.3639 36.4849 20.692 26.697 30.1669 19.8906C37.8606 14.3386 46.9089 10.7264 56.2755 9.47207Z" fill="url(#paint0_linear_618_210)" stroke="url(#paint1_linear_618_210)" stroke-width="6"/>
<path d="M74.4599 44.854C75.5843 43.8258 77.4603 45.1967 76.9932 46.6087C75.9772 54.8887 74.304 63.0659 72.6588 71.2364C71.3241 77.6245 64.0166 81.223 58.0431 79.5504C53.4715 78.1316 50.3019 73.3818 50.3155 68.604C50.4713 64.5122 52.9162 60.7765 56.167 58.4598C62.2624 53.9154 68.3306 49.3367 74.4599 44.854Z" fill="url(#paint2_linear_618_210)" stroke="url(#paint3_linear_618_210)" stroke-width="6"/>
<defs>
<linearGradient id="paint0_linear_618_210" x1="118.08" y1="12.1196" x2="77.3875" y2="120.719" gradientUnits="userSpaceOnUse">
<stop stop-color="#FE0FD8"/>
<stop offset="1" stop-color="#DF0066"/>
</linearGradient>
<linearGradient id="paint1_linear_618_210" x1="118.08" y1="12.1196" x2="77.3875" y2="120.719" gradientUnits="userSpaceOnUse">
<stop stop-color="#FE0FD8"/>
<stop offset="1" stop-color="#DF0066"/>
</linearGradient>
<linearGradient id="paint2_linear_618_210" x1="76.1625" y1="45.5093" x2="59.5478" y2="76.9791" gradientUnits="userSpaceOnUse">
<stop stop-color="#FE0FD8"/>
<stop offset="1" stop-color="#DF0066"/>
</linearGradient>
<linearGradient id="paint3_linear_618_210" x1="76.1625" y1="45.5093" x2="59.5478" y2="76.9791" gradientUnits="userSpaceOnUse">
<stop stop-color="#FE0FD8"/>
<stop offset="1" stop-color="#DF0066"/>
</linearGradient>
</defs>
</svg>
