<svg width="64" height="64" viewBox="0 0 64 64" fill="none" xmlns="http://www.w3.org/2000/svg">
<path fill-rule="evenodd" clip-rule="evenodd" d="M26.3132 5.01704C14.7182 5.56554 5.6425 16.0825 6.10808 21.7971C6.55453 27.365 20.656 32.2505 20.4902 32.4163C17.6074 34.8527 15.7068 36.4983 13.296 38.6987C7.50484 43.9923 3.50591 47.9146 5.53408 53.4251C7.87476 59.7775 12.9962 59.5159 19.0042 58.336C34.5152 55.2746 60.0331 35.6563 58.7383 28.4237C57.686 22.5625 43.4187 10.9866 34.9871 6.84099C32.2952 5.51317 29.3119 4.88592 26.3132 5.01704ZM28.7113 15.0621C30.1591 14.9281 31.8492 15.2918 33.7307 16.2103C37.8444 18.1938 42.1048 23.4746 33.7307 26.4785C31.4538 27.2949 24.1511 24.5142 24.3743 20.6556C24.572 17.0967 26.2877 15.2917 28.7113 15.0621Z" fill="url(#paint0_linear_674_170)"/>
<defs>
<linearGradient id="paint0_linear_674_170" x1="-3.5" y1="21" x2="51.2174" y2="23.9063" gradientUnits="userSpaceOnUse">
<stop stop-color="#F300A4"/>
<stop offset="0.804624" stop-color="#B40079"/>
</linearGradient>
</defs>
</svg>
