<svg width="192" height="192" viewBox="0 0 192 192" fill="none" xmlns="http://www.w3.org/2000/svg">
<path d="M100.047 51.7012C107.808 43.646 119.765 39.6755 131.006 41.3958C140.882 42.8144 149.948 48.5542 155.333 56.6665C160.92 64.9011 162.487 75.5409 159.538 84.974C155.948 97.2362 144.572 106.824 131.638 108.944C129.506 109.335 127.062 108.887 125.276 110.322C117.801 115.548 110.234 120.66 102.777 125.919C102.347 132.286 99.6 138.491 95.008 143.073C88.6036 149.644 78.6182 152.718 69.4839 150.794C60.6108 149.131 52.85 142.959 49.4541 134.855C48.8474 133.811 48.6705 132.262 47.2885 131.911C37.7581 128.112 28.2194 124.329 18.689 120.538C16.3717 119.82 14.6358 117.546 15.0656 115.157C15.3605 111.936 19.3884 109.939 22.304 111.52C33.1826 115.817 44.0696 120.097 54.8976 124.508C57.4593 125.478 57.6615 128.397 58.4705 130.558C61.445 138.801 71.5905 143.635 80.1603 140.847C87.5334 138.744 92.943 131.577 92.69 124.133C92.547 122.315 93.213 120.415 94.848 119.396C103.535 113.347 112.248 107.338 120.97 101.337C123.397 99.462 126.599 99.7555 129.497 99.3723C141.96 97.6602 152.047 85.9197 150.867 73.6657C150.387 61.3708 138.851 50.5109 126.051 50.8941C114.186 50.2011 103.038 59.1939 100.923 70.3881C100.123 73.2743 100.957 76.6089 98.96 79.1282C92.901 87.6645 86.8088 96.1845 80.7333 104.713C79.6884 106.49 77.6492 107.517 75.5341 107.313C72.0793 107.24 68.5907 107.99 65.7088 109.898C63.7455 111.365 60.9226 111.374 58.9002 110.004C45.1482 102.136 31.3372 94.3663 17.5935 86.4741C14.8886 85.137 14.1387 81.2562 16.2369 79.1119C17.7789 77.2938 20.6608 76.8943 22.6747 78.2069C35.8201 85.6344 48.957 93.0781 62.0686 100.546C65.6835 98.932 69.5345 97.8151 73.5286 97.6276C79.1575 89.8088 84.8454 82.0226 90.2468 74.0652C90.8703 65.8305 94.089 57.7101 100.047 51.7012Z" fill="url(#paint0_linear_641_169)" stroke="url(#paint1_linear_641_169)" stroke-width="6"/>
<path d="M122.901 63.0725L122.922 63.0671L122.943 63.0614C128.084 61.6808 133.98 64.4452 136.037 69.0314L136.065 69.0937L136.096 69.1546C138.316 73.5576 136.745 79.4892 132.502 82.3581L132.465 82.3827L132.43 82.4084C128.685 85.1033 123.137 85.1636 119.351 82.5343L119.314 82.5085L119.276 82.4838C115.579 80.0782 113.752 75.3591 114.787 71.2225L114.8 71.1702L114.812 71.1174C115.606 67.3755 118.88 64.0891 122.901 63.0725Z" fill="url(#paint2_linear_641_169)" stroke="url(#paint3_linear_641_169)" stroke-width="6"/>
<path d="M72.9312 119.831L73.0683 119.799L73.2018 119.754C75.1215 119.11 77.2802 119.794 78.8248 121.427C80.3724 123.062 80.8078 125.1 80.042 126.753L79.9779 126.891L79.9281 127.036C79.3868 128.604 77.8715 129.836 75.8582 130.251C73.8458 130.666 71.8859 130.147 70.6799 128.889L70.6032 128.809L70.5208 128.735C69.1835 127.533 68.7085 125.611 69.216 123.679C69.722 121.753 71.0914 120.262 72.9312 119.831Z" fill="url(#paint4_linear_641_169)" stroke="url(#paint5_linear_641_169)" stroke-width="6"/>
<path d="M29.2694 10.0185C32.0189 9.25526 34.8793 9.00084 37.7175 9.00084C77.2307 9.03403 116.744 8.96766 156.257 9.02297C170.626 8.84598 183.597 21.4892 183.575 35.8692C183.63 74.5733 183.564 113.277 183.608 151.981C183.686 156.45 183.597 161.052 181.912 165.277C178.131 175.775 167.466 183.297 156.279 183.308C116.023 183.319 75.7672 183.374 35.5223 183.274C21.431 182.998 9.02495 170.509 9.02495 156.428C8.99168 116.22 8.99168 76.0223 9.02495 35.8139C9.10255 23.9891 17.85 13.0051 29.2694 10.0185ZM34.9014 22.1972C29.4578 22.7945 24.5797 26.7545 22.8723 31.9313C21.3756 37.1634 22.5508 42.6277 22.1406 47.9594C22.1738 78.5665 22.0741 109.174 22.2625 139.792C22.2958 145.986 21.5862 152.214 22.3956 158.386C23.4377 165.067 29.8126 170.277 36.5645 170.178C75.3681 170.255 114.172 170.156 152.987 170.211C156.335 170.255 159.871 170.144 162.854 168.43C167.61 165.941 170.637 160.687 170.504 155.344C170.526 115.877 170.537 76.3984 170.504 36.92C170.903 28.7566 163.319 21.5667 155.204 22.0755C115.103 22.164 74.9912 21.8985 34.9014 22.1972Z" fill="url(#paint6_linear_641_169)" stroke="url(#paint7_linear_641_169)" stroke-width="6"/>
<defs>
<linearGradient id="paint0_linear_641_169" x1="15.0211" y1="94.5438" x2="161.024" y2="94.5438" gradientUnits="userSpaceOnUse">
<stop stop-color="#C172FF"/>
<stop offset="1" stop-color="#7452FF"/>
</linearGradient>
<linearGradient id="paint1_linear_641_169" x1="16.4394" y1="91.697" x2="162.442" y2="91.697" gradientUnits="userSpaceOnUse">
<stop stop-color="#C172FF"/>
<stop offset="0.9999" stop-color="#7452FF"/>
</linearGradient>
<linearGradient id="paint2_linear_641_169" x1="111.504" y1="73.1757" x2="140.108" y2="73.1757" gradientUnits="userSpaceOnUse">
<stop stop-color="#C172FF"/>
<stop offset="1" stop-color="#7452FF"/>
</linearGradient>
<linearGradient id="paint3_linear_641_169" x1="111.782" y1="72.4596" x2="140.385" y2="72.4596" gradientUnits="userSpaceOnUse">
<stop stop-color="#C172FF"/>
<stop offset="0.9999" stop-color="#7452FF"/>
</linearGradient>
<linearGradient id="paint4_linear_641_169" x1="66.022" y1="124.7" x2="83.4188" y2="124.7" gradientUnits="userSpaceOnUse">
<stop stop-color="#C172FF"/>
<stop offset="1" stop-color="#7452FF"/>
</linearGradient>
<linearGradient id="paint5_linear_641_169" x1="66.191" y1="124.265" x2="83.5878" y2="124.265" gradientUnits="userSpaceOnUse">
<stop stop-color="#C172FF"/>
<stop offset="0.9999" stop-color="#7452FF"/>
</linearGradient>
<linearGradient id="paint6_linear_641_169" x1="9.02525" y1="93.5814" x2="183.656" y2="93.5814" gradientUnits="userSpaceOnUse">
<stop stop-color="#C172FF"/>
<stop offset="1" stop-color="#7452FF"/>
</linearGradient>
<linearGradient id="paint7_linear_641_169" x1="10.7216" y1="89.0843" x2="185.352" y2="89.0843" gradientUnits="userSpaceOnUse">
<stop stop-color="#C172FF"/>
<stop offset="0.9999" stop-color="#7452FF"/>
</linearGradient>
</defs>
</svg>
