<svg width="64" height="64" viewBox="0 0 64 64" fill="none" xmlns="http://www.w3.org/2000/svg">
<path d="M34.8017 10.0007C34.2267 9.99299 33.4848 10.0512 32.4723 10.1643C25.3042 10.9644 19.3245 15.6013 12.4842 25.6618C10.4188 28.6995 7.76421 32.601 6.5853 34.3322C1.61896 41.6251 1.83291 49.1095 7.09774 52.2567C10.5004 54.2907 13.7884 55.0973 18.9934 55.1764C21.6095 55.2162 25.4399 55.4116 27.5053 55.6104C33.2679 56.1649 33.9894 56.152 38.0455 55.4138C42.5852 54.5877 46.0872 52.8671 48.8996 50.0831C51.1078 47.8972 54.2612 41.8465 54.7555 39.2011C58.8967 26.3368 44.2521 10.652 34.8017 10.0007Z" stroke="url(#paint0_linear)" stroke-width="4"/>
<path d="M38.2653 8C37.9989 8 37.9218 8.51259 38.0859 9.18949C38.0859 9.18949 38.5579 11.3494 41.7246 12.9314C43.927 13.9597 43.9231 14.554 41.71 15.1707C40.7455 15.4394 39.5735 15.9491 39.1058 16.303C38.3344 16.8867 38.6159 17.1274 42.1348 18.8985C44.2684 19.9724 46.4094 21.1642 46.8921 21.5475C47.7301 22.2128 47.6919 22.306 46.0569 23.5965C44.2317 25.0371 42.0723 28.4052 42.0723 29.8111C42.0723 30.5712 42.4286 30.6329 45.4346 30.3932C47.2839 30.2457 49.3187 30.0601 49.9564 29.9808L51.1159 29.8364L50.9501 33.6598C50.8591 35.7625 50.5926 38.0061 50.3577 38.6456C50.1228 39.285 50.0249 39.9059 50.1403 40.0253C50.6264 40.5283 52.6091 39.4182 53.9691 37.8816C55.3596 36.3108 55.448 36.2785 55.7436 37.2424C56.7392 38.9704 57.1799 40.484 58.7248 41.9983C59.0698 42.0304 59.333 41.6136 59.5544 40.7546C60.2358 38.1099 59.8708 35.55 58.4357 32.9062C57.6624 31.4816 56.9049 29.2365 56.7518 27.9167C56.5987 26.5969 56.3465 25.0617 56.192 24.5048C55.9573 23.6585 56.4124 23.1646 58.9629 21.4978C61.8669 19.5999 62.6164 18.5201 61.5181 17.8177C61.2453 17.6432 59.808 18.1706 58.3234 18.9894C56.8388 19.8083 55.3322 20.4779 54.9755 20.4779C54.6188 20.4779 53.4996 19.4528 52.4891 18.2002C50.7328 16.0231 50.6521 15.7743 50.6521 12.5611C50.6521 9.50803 50.5625 9.1866 49.6747 9.05544C48.9572 8.94943 48.5415 9.30035 48.1113 10.3752C47.7889 11.1805 47.3626 11.8394 47.1638 11.8394C46.9651 11.8394 44.9869 10.9755 42.7679 9.91967C40.5491 8.86386 38.5226 8 38.2653 8H38.2653Z" fill="url(#paint1_linear)"/>
<path d="M34.6915 23.0694C33.5376 24.2234 31.7602 24.3169 30.7216 23.2784C29.6831 22.2398 29.7766 20.4624 30.9306 19.3085C32.0845 18.1545 34.4494 17.4735 35.4879 18.5121C36.5265 19.5506 35.8455 21.9155 34.6915 23.0694H34.6915Z" fill="url(#paint2_linear)"/>
<path d="M30.6915 33.0694C29.5376 34.2234 27.7602 34.3169 26.7216 33.2784C25.6831 32.2398 25.7766 30.4624 26.9306 29.3085C28.0845 28.1545 30.4494 27.4735 31.4879 28.5121C32.5265 29.5506 31.8455 31.9155 30.6915 33.0694Z" fill="url(#paint3_linear)"/>
<path d="M44.6915 39.0694C43.5376 40.2234 41.7602 40.3169 40.7216 39.2784C39.6831 38.2398 39.7766 36.4624 40.9306 35.3085C42.0845 34.1545 44.4494 33.4735 45.4879 34.5121C46.5265 35.5506 45.8455 37.9155 44.6915 39.0694V39.0694Z" fill="url(#paint4_linear)"/>
<path d="M40.6915 49.0694C39.5376 50.2234 37.7602 50.3169 36.7216 49.2784C35.6831 48.2398 35.7766 46.4624 36.9306 45.3085C38.0845 44.1545 40.4494 43.4735 41.4879 44.5121C42.5265 45.5506 41.8455 47.9155 40.6915 49.0694H40.6915Z" fill="url(#paint5_linear)"/>
<path d="M28.6915 47.0694C27.5376 48.2234 25.7602 48.3169 24.7216 47.2784C23.6831 46.2398 23.7766 44.4624 24.9306 43.3085C26.0845 42.1545 28.4494 41.4735 29.4879 42.5121C30.5265 43.5506 29.8455 45.9155 28.6915 47.0694H28.6915Z" fill="url(#paint6_linear)"/>
<path d="M16.6915 43.0694C15.5376 44.2234 13.7602 44.3169 12.7216 43.2784C11.6831 42.2398 11.7766 40.4624 12.9306 39.3085C14.0845 38.1545 16.4494 37.4735 17.4879 38.5121C18.5265 39.5506 17.8455 41.9155 16.6915 43.0694H16.6915Z" fill="url(#paint7_linear)"/>
<path d="M20.6915 31.0694C19.5376 32.2234 17.7602 32.3169 16.7216 31.2784C15.6831 30.2398 15.7766 28.4624 16.9306 27.3085C18.0845 26.1545 20.4494 25.4735 21.4879 26.5121C22.5265 27.5506 21.8455 29.9155 20.6915 31.0694V31.0694Z" fill="url(#paint8_linear)"/>
<defs>
<linearGradient id="paint0_linear" x1="2.99231" y1="32.3185" x2="55.4648" y2="32.3185" gradientUnits="userSpaceOnUse">
<stop stop-color="#FD3A84"/>
<stop offset="1" stop-color="#FFA68D"/>
</linearGradient>
<linearGradient id="paint1_linear" x1="50" y1="42" x2="50" y2="8" gradientUnits="userSpaceOnUse">
<stop stop-color="#00B59C"/>
<stop offset="1" stop-color="#9CFFAC"/>
</linearGradient>
<linearGradient id="paint2_linear" x1="29.9991" y1="20.9111" x2="35.9987" y2="20.9111" gradientUnits="userSpaceOnUse">
<stop stop-color="#FD3A84"/>
<stop offset="1" stop-color="#FFA68D"/>
</linearGradient>
<linearGradient id="paint3_linear" x1="25.9991" y1="30.9111" x2="31.9987" y2="30.9111" gradientUnits="userSpaceOnUse">
<stop stop-color="#FD3A84"/>
<stop offset="1" stop-color="#FFA68D"/>
</linearGradient>
<linearGradient id="paint4_linear" x1="39.9991" y1="36.9111" x2="45.9987" y2="36.9111" gradientUnits="userSpaceOnUse">
<stop stop-color="#FD3A84"/>
<stop offset="1" stop-color="#FFA68D"/>
</linearGradient>
<linearGradient id="paint5_linear" x1="35.9991" y1="46.9111" x2="41.9987" y2="46.9111" gradientUnits="userSpaceOnUse">
<stop stop-color="#FD3A84"/>
<stop offset="1" stop-color="#FFA68D"/>
</linearGradient>
<linearGradient id="paint6_linear" x1="23.9991" y1="44.9111" x2="29.9987" y2="44.9111" gradientUnits="userSpaceOnUse">
<stop stop-color="#FD3A84"/>
<stop offset="1" stop-color="#FFA68D"/>
</linearGradient>
<linearGradient id="paint7_linear" x1="11.9991" y1="40.9111" x2="17.9987" y2="40.9111" gradientUnits="userSpaceOnUse">
<stop stop-color="#FD3A84"/>
<stop offset="1" stop-color="#FFA68D"/>
</linearGradient>
<linearGradient id="paint8_linear" x1="15.9991" y1="28.9111" x2="21.9987" y2="28.9111" gradientUnits="userSpaceOnUse">
<stop stop-color="#FD3A84"/>
<stop offset="1" stop-color="#FFA68D"/>
</linearGradient>
</defs>
</svg>
