<svg width="32" height="32" viewBox="0 0 32 32" fill="none" xmlns="http://www.w3.org/2000/svg">
<path fill-rule="evenodd" clip-rule="evenodd" d="M15.8331 1.00016C15.8331 1.00016 15.8331 1.00016 15.8331 1.00016C15.7291 0.99716 15.6288 1.03614 15.5568 1.10568C14.734 1.90013 13.9109 2.76922 13.127 3.62924C13.0234 3.74297 12.9783 3.89827 13.0045 4.04992L15.3052 17.3755C15.4008 17.9292 16.1959 17.9286 16.2907 17.3748L18.5677 4.07285C18.5933 3.92316 18.5495 3.76993 18.4486 3.65645C17.6818 2.79427 16.9087 1.93483 16.0937 1.11155C16.0267 1.04361 15.9325 1.00301 15.8331 1.00016C15.8331 1.00016 15.8331 1.00016 15.8331 1.00016V1.00016ZM17.228 17.6894C16.9534 18.1802 17.5727 18.6805 17.9947 18.3088L24.1537 12.8851C24.3175 12.7408 24.3693 12.5066 24.2779 12.3083C23.8259 11.3267 23.3007 10.3457 22.718 9.3778C22.5228 9.05347 22.0528 9.06606 21.868 9.39642L17.228 17.6894ZM18.8057 18.8217C18.2868 19.0668 18.5224 19.8503 19.0904 19.7687L25.9331 18.7853C26.2249 18.7434 26.4176 18.4592 26.344 18.1738C26.1642 17.4764 25.9693 16.8066 25.7582 16.1523C25.6665 15.8682 25.3454 15.7324 25.0755 15.8599L18.8057 18.8217ZM19.1062 20.7261C18.538 20.6428 18.3006 21.4266 18.8196 21.6726L27.1855 25.6373C27.2043 25.6463 27.2251 25.65 27.2458 25.6481V25.6481C27.4365 25.6335 27.5828 25.4851 27.5827 25.3081V25.1967C27.5827 24.9286 27.5133 24.3761 27.42 23.6901C27.373 23.3447 27.3142 23.0099 27.2588 22.6525L27.1375 22.2064C27.0853 22.0145 26.9243 21.8717 26.7275 21.8429L19.1062 20.7261ZM18.1095 22.3898C17.6926 22.002 17.0554 22.501 17.3319 22.9987L19.8791 27.5834C19.939 27.6913 20.068 27.7404 20.1844 27.6996V27.6996C20.2006 27.6939 20.2163 27.6866 20.231 27.6778C20.7657 27.3585 21.2898 27.0845 21.8209 26.85C22.1623 26.6993 22.253 26.244 21.9798 25.9899L18.1095 22.3898ZM16.2794 22.924C16.1817 22.3772 15.3986 22.3736 15.2958 22.9194L14.0833 29.3596C14.0501 29.5359 14.1139 29.7163 14.2511 29.8318C14.3886 29.9476 14.5277 30.065 14.6816 30.2015C14.9056 30.4001 15.1138 30.5797 15.2718 30.713C15.3507 30.7797 15.417 30.8346 15.469 30.8757C15.4949 30.8959 15.5161 30.9134 15.5395 30.9299C15.5512 30.938 15.5629 30.9461 15.5827 30.9579V30.9579C15.5901 30.962 15.5985 30.9643 15.6068 30.9658L15.6572 30.9747C15.7493 30.991 15.8442 30.9735 15.9244 30.9255L16.3506 30.67C16.3731 30.6565 16.3945 30.6413 16.4146 30.6245C16.5741 30.4908 16.7631 30.3313 16.9731 30.1471C17.0936 30.0413 17.1839 29.9678 17.2724 29.8958C17.4099 29.784 17.4736 29.6061 17.4424 29.4316L16.2794 22.924ZM14.2097 23.0858C14.4889 22.5864 13.8462 22.0855 13.4301 22.4782L9.38928 26.2917C9.24941 26.4238 9.29752 26.6522 9.47545 26.7252V26.7252C9.60975 26.7804 9.73356 26.8307 9.82521 26.8674C9.87105 26.8856 9.90752 26.9002 9.93605 26.9114C9.94918 26.9165 9.962 26.9205 9.97277 26.9245C9.97322 26.9247 9.97361 26.9249 9.97394 26.9253V26.9253C9.97451 26.9259 9.97532 26.9262 9.97616 26.9262H9.97623H9.9764C9.97721 26.9262 9.978 26.9264 9.97873 26.9268C9.98155 26.9282 9.98415 26.9297 9.98828 26.9317C9.98955 26.9323 9.99048 26.9311 9.98915 26.9306V26.9306C9.99119 26.9313 9.99237 26.9313 9.99494 26.9321C9.99955 26.9336 10.0039 26.9362 10.0151 26.9394C10.0177 26.9401 10.0205 26.9412 10.0235 26.9425C10.0242 26.9428 10.0237 26.945 10.0229 26.9451V26.9451C10.0221 26.9451 10.0214 26.9482 10.0222 26.9486C10.0465 26.9606 10.0753 26.9758 10.113 26.9949C10.2114 27.045 10.3456 27.1132 10.4929 27.1899C10.7105 27.303 10.9198 27.4176 11.1242 27.5353C11.3708 27.6772 11.6883 27.5953 11.8272 27.3469L14.2097 23.0858ZM13.3197 21.5449C13.8139 21.2852 13.5755 20.5338 13.022 20.6065L4.84089 21.6814C4.6248 21.7098 4.45178 21.8748 4.41511 22.0897C4.30745 22.7206 4.2037 23.3968 4.1282 23.9714C4.07915 24.3446 4.04037 24.6716 4.0188 24.9138C4.00823 25.0325 4.00183 25.1288 4.00009 25.2084C4.00005 25.21 4.00012 25.2129 4.00009 25.214C3.99965 25.2469 4.00083 25.2767 4.00442 25.3123C4.00653 25.3333 4.00752 25.3549 4.01884 25.3928C4.0301 25.4309 4.021 25.5081 4.18581 25.6024C4.27474 25.6533 4.28753 25.6429 4.30959 25.6478C4.33163 25.6527 4.3478 25.6567 4.36573 25.6596C4.40162 25.6648 4.44026 25.6685 4.48376 25.673C4.57076 25.6814 4.67801 25.6892 4.79178 25.6948C4.91309 25.7011 5.04855 25.7126 5.1866 25.7257C5.28399 25.7349 5.38202 25.716 5.46862 25.6705L13.3197 21.5449ZM12.3675 19.7052C12.9382 19.7944 13.1804 19.0055 12.658 18.759L6.51251 15.8594C6.24274 15.7321 5.92195 15.8677 5.83029 16.1515C5.63186 16.766 5.44808 17.3952 5.27772 18.0488C5.20385 18.3322 5.39289 18.6155 5.68226 18.6607L12.3675 19.7052ZM13.5112 18.1247C13.9284 18.5106 14.5635 18.0121 14.2879 17.5151L9.74997 9.33286C9.56625 9.00161 9.09616 8.98762 8.90106 9.3123C8.36368 10.2066 7.87939 11.1162 7.44279 12.0432C7.35077 12.2386 7.39764 12.4706 7.55617 12.6172L13.5112 18.1247Z" fill="url(#paint0_linear)"/>
<defs>
<linearGradient id="paint0_linear" x1="15.7913" y1="31" x2="15.7913" y2="1" gradientUnits="userSpaceOnUse">
<stop stop-color="#5570FF"/>
<stop offset="1" stop-color="#4DD3FF"/>
</linearGradient>
</defs>
</svg>
