<svg width="128" height="128" viewBox="0 0 128 128" fill="none" xmlns="http://www.w3.org/2000/svg">
<path d="M86.5746 12.0686C86.1288 11.9007 85.6685 11.6895 85.1211 11.4382L84.8402 11.3095C84.2023 11.0179 83.4615 10.6873 82.6883 10.4365C81.1308 9.93139 79.1485 9.65718 77.1761 10.8015C74.9398 12.0428 74.1445 14.48 74.3388 16.5397C74.5325 18.5945 75.7683 20.8362 78.2354 21.5965C85.6236 24.3139 92.3033 28.984 97.2517 35.153L97.2577 35.1605L97.2638 35.1679C104.078 43.4972 107.651 54.493 107.036 65.3153L107.035 65.3252L107.034 65.3351C106.585 74.9193 102.867 84.3027 96.6755 91.5432L96.6708 91.5487L96.6661 91.5542C89.9973 99.468 80.4509 104.816 70.3101 106.312L70.2983 106.314C60.9509 107.75 51.1345 105.955 42.9045 101.22L42.8957 101.215C33.8027 96.0448 26.666 87.4078 23.2704 77.3935L23.2659 77.3805C19.5445 66.6495 20.1762 54.4303 25.0194 44.185L25.0225 44.1783C29.7486 34.0838 38.4054 25.9543 48.6839 22.0278C50.8369 21.3584 53.3929 19.418 53.3739 16.2632C53.5151 14.0816 52.3695 12.2424 50.8508 11.1748C49.3328 10.1075 47.2147 9.65169 45.2299 10.5068C31.1234 15.6044 19.3873 26.8807 13.4916 40.8161C7.71023 54.2673 7.51104 70.0335 12.888 83.6464C17.3998 95.213 25.8614 105.104 36.4818 111.315C46.7777 117.413 59.0468 119.854 70.8493 118.355C91.062 116.024 109.11 101.271 115.788 81.8309C120.222 69.3366 120.064 55.2394 115.319 42.8516C110.225 29.3353 99.7097 18.0575 86.7003 12.1208L86.6384 12.0926L86.5746 12.0686Z" fill="url(#paint0_linear_616_309)"/>
<path d="M53.0768 34.1793C65.3477 29.1671 80.3663 33.626 88.2137 44.3441C93.8309 51.6962 95.8511 61.6456 93.6446 70.6569C91.7055 79.0005 86.1399 86.3656 78.7251 90.4805C69.4499 95.7561 57.4657 95.6097 48.3265 90.0814C39.7807 85.0613 34.0261 75.6934 33.2616 65.7337L33.1267 65.7353C31.7366 65.7517 30.2383 65.7693 28.7909 65.6202L28.7044 65.6113L28.6196 65.5925C27.2924 65.2979 26.3869 64.3054 25.9908 63.2328C25.6023 62.1808 25.6368 60.8751 26.3834 59.7958C29.3289 54.8418 32.315 49.9163 35.3348 45.0123C36.0368 43.6069 37.457 43.0139 38.7262 43.0534C39.979 43.0925 41.3399 43.7533 41.9877 45.1274C44.9927 50.009 47.9633 54.9177 50.8994 59.8397C52.3045 61.9277 51.1746 64.7918 48.9185 65.5322L48.776 65.579L48.6271 65.5966C47.1495 65.7716 45.6235 65.7562 44.2086 65.7353C44.9032 70.8901 47.5173 75.7578 51.5297 78.9419L51.5403 78.9504L51.5508 78.959C56.4117 82.9625 63.2212 84.3639 69.219 82.5815L69.2335 82.5771L69.2482 82.5731C77.904 80.19 84.2963 71.1854 83.5649 62.0613L83.5624 62.0306L83.5612 61.9998C83.1884 52.4186 75.0679 43.9529 65.6992 43.2581L65.6392 43.2537L65.5797 43.2444C64.0302 43.0035 62.4643 43.1425 60.799 43.4447C59.9704 43.595 59.1405 43.781 58.2763 43.9746L58.2596 43.9784C57.4 44.171 56.5057 44.3712 55.6049 44.5325L55.4737 44.556H55.3405C52.533 44.556 50.806 42.39 50.3282 40.2629C49.8511 38.139 50.4804 35.4428 52.9861 34.2199L53.0308 34.1981L53.0768 34.1793Z" fill="url(#paint1_linear_616_309)"/>
<defs>
<linearGradient id="paint0_linear_616_309" x1="91" y1="15.5" x2="64" y2="118.785" gradientUnits="userSpaceOnUse">
<stop stop-color="#FF02C7"/>
<stop offset="0.606699" stop-color="#FF007A"/>
<stop offset="1" stop-color="#FF862F"/>
</linearGradient>
<linearGradient id="paint1_linear_616_309" x1="77.014" y1="35.2712" x2="62.7426" y2="94.9589" gradientUnits="userSpaceOnUse">
<stop stop-color="#FF02C7"/>
<stop offset="0.606699" stop-color="#FF007A"/>
<stop offset="1" stop-color="#FF862F"/>
</linearGradient>
</defs>
</svg>
