<svg width="32" height="32" viewBox="0 0 32 32" fill="none" xmlns="http://www.w3.org/2000/svg">
<path d="M16.693 3C13.0569 3 10.8069 5.05365 10.4831 7.54931V9.20383L6.55165 6.73308L5 7.81074L9.65492 11.0437L11.2066 12.1214L12.7582 11.0437L17.4131 7.81074L15.8615 6.73308L12.3107 9.20383V7.54931C12.3107 5.86614 14.2565 4.62593 16.6927 4.62534C19.1288 4.62593 21.4831 5.86641 21.4491 7.54931V8.8707H23.2768V7.54877C23.2768 5.03656 20.3292 3 16.693 3ZM21.4491 10.496C19.4303 10.496 17.7938 11.9514 17.7938 13.7466C17.7938 15.542 19.4303 16.9973 21.4491 16.9973C23.4679 16.9973 25.1046 15.542 25.1046 13.7466C25.1046 11.9514 23.4679 10.496 21.4491 10.496ZM10.4831 13.7466C10.0031 13.7466 9.52774 13.8307 9.08416 13.9941C8.64072 14.1574 8.23771 14.397 7.89836 14.6988C7.55887 15.0006 7.28962 15.3589 7.10592 15.7534C6.92224 16.1477 6.82768 16.5705 6.82768 16.9973C6.82768 17.4242 6.92224 17.8469 7.10592 18.2414C7.28962 18.6357 7.55887 18.994 7.89836 19.2959C8.23771 19.5978 8.64072 19.8372 9.08416 20.0006C9.52774 20.1639 10.0031 20.248 10.4831 20.248C10.9631 20.248 11.4384 20.1639 11.8819 20.0006C12.3253 19.8372 12.7283 19.5978 13.0678 19.2959C13.4072 18.994 13.6765 18.6357 13.8602 18.2414C14.0439 17.8469 14.1384 17.4242 14.1384 16.9973C14.1384 16.5705 14.0439 16.1477 13.8602 15.7534C13.6765 15.3589 13.4072 15.0006 13.0678 14.6988C12.7283 14.397 12.3253 14.1574 11.8819 13.9941C11.4384 13.8307 10.9631 13.7466 10.4831 13.7466ZM21.4777 18.6227C18.7019 18.6227 16.4256 20.513 16.034 22.9653C17.0992 24.0416 17.7938 25.1241 17.7938 26.7493H21.4777H24.7904H25.8898C26.6085 25.8707 26.9988 24.8012 27 23.7018C27 20.8968 24.5286 18.6227 21.4777 18.6227ZM21.3885 20.248C23.4035 20.248 25.0366 21.6124 25.0366 23.2955C25.0358 23.9552 24.7796 24.5968 24.3049 25.1241H23.5767H21.3885H19.1966H19.1503C18.9936 24.2487 18.4974 23.4664 17.7938 22.851C18.0525 21.3797 19.5549 20.248 21.3885 20.248ZM10.4831 21.8734C9.763 21.8734 9.05006 22.0048 8.38484 22.26C7.71954 22.5152 7.11509 22.8894 6.60595 23.361C6.0968 23.8327 5.69292 24.3926 5.41737 25.0089C5.14182 25.625 5 26.2854 5 26.9525C5.00289 28.0525 5.39122 29.122 6.1066 30H7.19179H10.4831H13.7743H14.8666C15.5795 29.1211 15.9652 28.0518 15.966 26.9525C15.966 26.2854 15.8243 25.625 15.5487 25.0089C15.2732 24.3926 14.8693 23.8327 14.3602 23.361C13.851 22.8894 13.2466 22.5152 12.5813 22.26C11.9161 22.0048 11.203 21.8734 10.4831 21.8734ZM10.4831 23.4987C11.4525 23.4987 12.3822 23.884 13.0678 24.5698C13.7533 25.2556 14.1384 26.1858 14.1384 27.1556C14.1367 27.5713 14.0643 27.9835 13.9242 28.3747H7.04186C6.90176 27.9835 6.82933 27.5713 6.82768 27.1556C6.82768 26.1858 7.2128 25.2556 7.89836 24.5698C8.5838 23.884 9.51358 23.4987 10.4831 23.4987Z" fill="url(#paint0_linear)"/>
<defs>
<linearGradient id="paint0_linear" x1="16" y1="30" x2="16" y2="3" gradientUnits="userSpaceOnUse">
<stop stop-color="#FD2E00"/>
<stop offset="1" stop-color="#FF9900"/>
</linearGradient>
</defs>
</svg>
