<svg width="512" height="512" viewBox="0 0 512 512" fill="none" xmlns="http://www.w3.org/2000/svg">
<path d="M359.486 76.8594C360.785 74.4225 363.817 73.4952 366.224 74.848C408.534 98.6228 442.067 135.47 461.746 179.931C482.101 225.918 486.463 277.398 474.135 326.154C461.808 374.91 433.502 418.13 393.736 448.915C353.97 479.701 305.036 496.277 254.747 495.997C204.458 495.716 155.712 478.597 116.291 447.37C76.8705 416.144 49.0475 372.611 37.2638 323.721C25.4801 274.831 30.4151 223.403 51.2808 177.645C71.4544 133.406 105.395 96.9346 147.967 73.6325C150.39 72.3066 153.411 73.2676 154.682 75.7188L162.507 90.7997C163.779 93.2509 162.819 96.2635 160.4 97.5967C123.181 118.115 93.5084 150.094 75.8379 188.844C57.4751 229.112 53.1322 274.371 63.5024 317.397C73.8726 360.422 98.358 398.733 133.05 426.214C167.742 453.694 210.64 468.761 254.897 469.007C299.154 469.254 342.218 454.666 377.214 427.574C412.21 400.481 437.12 362.445 447.969 319.538C458.818 276.631 454.979 231.326 437.066 190.856C419.828 151.911 390.513 119.604 353.525 98.6722C351.122 97.3122 350.195 94.2891 351.494 91.8522L359.486 76.8594Z" fill="url(#paint0_linear)"/>
<path d="M333.615 125.395C334.914 122.958 337.947 122.029 340.344 123.399C371.81 141.379 396.749 168.973 411.453 202.193C426.832 236.938 430.128 275.834 420.813 312.672C411.499 349.509 390.112 382.165 360.067 405.425C330.021 428.685 293.05 441.209 255.053 440.997C217.057 440.786 180.227 427.851 150.442 404.258C120.658 380.664 99.6359 347.773 90.7327 310.834C81.8294 273.894 85.558 235.037 101.323 200.465C116.396 167.412 141.641 140.097 173.305 122.469C175.717 121.126 178.74 122.088 180.012 124.539L188.55 140.996C189.822 143.447 188.86 146.457 186.456 147.815C160.45 162.496 139.717 185.058 127.291 212.307C114.172 241.075 111.069 273.409 118.478 304.146C125.887 334.884 143.379 362.254 168.163 381.886C192.948 401.518 223.595 412.282 255.212 412.458C286.83 412.634 317.595 402.213 342.596 382.857C367.597 363.502 385.394 336.329 393.144 305.676C400.895 275.023 398.152 242.656 385.355 213.744C373.233 186.358 352.752 163.567 326.912 148.597C324.523 147.213 323.595 144.192 324.894 141.755L333.615 125.395Z" fill="url(#paint1_linear)"/>
<rect x="217" y="15" width="78" height="275" rx="39" fill="url(#paint2_linear)"/>
<defs>
<linearGradient id="paint0_linear" x1="256" y1="66.5" x2="256" y2="496" gradientUnits="userSpaceOnUse">
<stop stop-color="#FFB155"/>
<stop offset="1" stop-color="#FF5454"/>
</linearGradient>
<linearGradient id="paint1_linear" x1="256" y1="140.5" x2="256" y2="493" gradientUnits="userSpaceOnUse">
<stop stop-color="#FFB155"/>
<stop offset="1" stop-color="#FF5454"/>
</linearGradient>
<linearGradient id="paint2_linear" x1="256" y1="46.9485" x2="256" y2="332.059" gradientUnits="userSpaceOnUse">
<stop stop-color="#FFB155"/>
<stop offset="1" stop-color="#FF5454"/>
</linearGradient>
</defs>
</svg>
