<svg width="128" height="128" viewBox="0 0 128 128" fill="none" xmlns="http://www.w3.org/2000/svg">
<path d="M123 9.75H5C2.23828 9.75 0 11.9883 0 14.75V93.417C0 94.7432 0.526367 96.0146 1.46387 96.9521L21.1309 116.619C22.0684 117.557 23.3408 118.084 24.667 118.084H103.333C104.659 118.084 105.932 117.557 106.869 116.619L126.536 96.9521C127.474 96.0146 128 94.7432 128 93.417V14.75C128 11.9883 125.762 9.75 123 9.75V9.75ZM118 91.3457L101.263 108.084H26.7373L10 91.3457V19.75H118V91.3457ZM30.9639 96.9521C31.9023 97.8896 33.1738 98.417 34.5 98.417H93.5C94.8262 98.417 96.0977 97.8896 97.0361 96.9521L106.869 87.1191C107.807 86.1816 108.333 84.9092 108.333 83.584V34.417C108.333 31.6553 106.095 29.417 103.333 29.417H24.667C21.9053 29.417 19.667 31.6553 19.667 34.417V83.584C19.667 84.9092 20.1934 86.1816 21.1309 87.1191L30.9639 96.9521ZM29.667 39.417H98.333V81.5127L91.4287 88.417H36.5713L29.667 81.5127V39.417ZM59 63.917V54.084C59 51.3223 61.2383 49.084 64 49.084C66.7617 49.084 69 51.3223 69 54.084V63.917C69 66.6787 66.7617 68.917 64 68.917C61.2383 68.917 59 66.6787 59 63.917V63.917ZM78.667 63.917V54.084C78.667 51.3223 80.9053 49.084 83.667 49.084C86.4287 49.084 88.667 51.3223 88.667 54.084V63.917C88.667 66.6787 86.4287 68.917 83.667 68.917C80.9053 68.917 78.667 66.6787 78.667 63.917ZM39.333 63.917V54.084C39.333 51.3223 41.5713 49.084 44.333 49.084C47.0947 49.084 49.333 51.3223 49.333 54.084V63.917C49.333 66.6787 47.0947 68.917 44.333 68.917C41.5713 68.917 39.333 66.6787 39.333 63.917Z" fill="url(#paint0_linear)"/>
<defs>
<linearGradient id="paint0_linear" x1="9.14286" y1="63.917" x2="112.523" y2="50.4189" gradientUnits="userSpaceOnUse">
<stop stop-color="#8D01A2"/>
<stop offset="1" stop-color="#FF00D2"/>
</linearGradient>
</defs>
</svg>
