<svg width="192" height="192" viewBox="0 0 192 192" fill="none" xmlns="http://www.w3.org/2000/svg">
<path d="M21.8564 43.4251C38.1773 19.9796 66.031 5.1071 94.6133 5.00281C91.0639 9.33105 87.5562 13.701 84.2878 18.2379C69.5907 20.4385 55.539 26.8943 44.3809 36.7294C31.193 48.1914 22.0542 64.2007 18.9108 81.3989C13.7064 86.2904 10.2195 92.5794 5.78538 98.107C5.65007 97.5543 5.36903 96.4592 5.23372 95.9064C5.22331 77.2689 11.0834 58.6418 21.8564 43.4251Z" fill="#0A90FF"/>
<path d="M94.6133 5.00284C103.721 4.92984 112.808 6.26481 121.541 8.82004C118.782 12.1262 116.492 15.7974 114.858 19.7919C104.887 17.2992 94.4467 16.7465 84.2878 18.2379C87.5562 13.7011 91.0639 9.33109 94.6133 5.00284Z" fill="#119EFF"/>
<path d="M121.541 8.82001C130.669 11.6464 139.36 15.8286 147.24 21.252C144.513 24.3913 141.754 27.4993 138.975 30.5864C131.627 25.6428 123.435 21.982 114.858 19.7918C116.492 15.7973 118.782 12.1262 121.541 8.82001Z" fill="#16A9FF"/>
<path opacity="0.27" d="M44.3809 36.7294C55.539 26.8943 69.5908 20.4385 84.2878 18.2379C94.4467 16.7464 104.887 17.2992 114.858 19.7919C123.435 21.982 131.627 25.6428 138.975 30.5864C145.22 34.8729 151.008 39.9208 155.712 45.8865L156.576 47.2632C153.277 44.9687 150.727 41.8294 147.75 39.1699C136.071 28.8447 121.208 22.1594 105.73 20.4176C99.4429 20.1465 93.1352 20.0526 86.8588 20.4906C69.7989 22.7538 53.3844 30.6907 41.4768 43.2374C29.257 55.1583 21.8668 71.4701 19.4937 88.2928C19.0981 88.2198 18.2967 88.0738 17.9011 88.0113C18.2238 85.8002 18.5361 83.5996 18.9108 81.3989C22.0542 64.2007 31.193 48.1914 44.3809 36.7294Z" fill="black"/>
<path opacity="0.27" d="M146.428 118.507C147.667 123.545 147.604 129.322 144.45 133.682C141.286 138.688 135.561 142.13 129.535 141.515C122.904 140.993 115.941 140.67 109.758 138.052C109.435 137.489 108.8 136.362 108.478 135.799C115.649 137.843 123.154 139.001 130.607 139.105C140.682 138.605 147.156 127.914 146.428 118.507Z" fill="black"/>
<path d="M147.24 21.252C156.202 27.5932 164.039 35.4883 170.222 44.5724C167.183 47.4509 164.185 50.3608 161.219 53.3123C159.48 50.7675 157.659 48.2853 155.712 45.8865C151.008 39.9208 145.22 34.873 138.975 30.5864C141.754 27.4993 144.513 24.3913 147.24 21.252Z" fill="#1CB7FF"/>
<path d="M161.219 53.3123C164.185 50.3607 167.183 47.4509 170.222 44.5723C175.177 52.0294 179.205 60.1227 181.786 68.7166C183.014 73.4933 184.066 78.3326 184.721 83.2241C184.045 82.8069 183.368 82.3897 182.702 81.9725C173.969 89.7217 168.349 100.13 161.229 109.246C160.781 106.169 160.344 103.092 160.115 99.9947C160.584 93.2573 166.756 88.2511 173.303 88.0529C172.033 75.7253 167.891 63.7522 161.219 53.3123Z" fill="#24C6FF"/>
<path opacity="0.24" d="M181.786 68.7167C182.9 70.0308 183.743 71.5744 184.087 73.2848C188 89.2211 187.917 105.773 187.428 122.074C187.376 127.508 188.354 133.891 184.066 138.115C178.612 144.831 165.736 143.955 162.79 135.267C165.569 138 169.202 140.232 173.241 140.002C179.954 140.075 185.971 134.131 185.939 127.383C186.262 112.667 186.616 97.8671 184.721 83.2241C184.066 78.3327 183.014 73.4934 181.786 68.7167Z" fill="black"/>
<path opacity="0.24" d="M31.2555 99.8175C32.4942 100.589 33.2852 101.768 33.0874 103.27C33.1915 111.29 33.077 119.31 33.1395 127.331C33.4101 132.556 30.7871 137.76 26.4051 140.607C20.3992 144.602 10.0322 142.495 7.89838 135.028C10.5734 137.833 14.1436 140.096 18.151 140.013C24.9895 140.294 31.2243 134.277 31.2243 127.424C31.3908 118.226 31.2972 109.016 31.2555 99.8175Z" fill="black"/>
<path opacity="0.24" d="M93.4163 126.11C94.1761 127.602 95.2795 129.03 95.4668 130.73C94.7486 136.873 88.6595 141.087 82.6537 140.409C74.2851 139.95 64.8236 142.13 57.5687 136.748C55.7992 135.841 55.1227 133.943 54.4877 132.191C61.9195 139.71 73.2963 137.708 82.8202 137.833C88.9614 138.115 94.988 132.493 93.4163 126.11Z" fill="black"/>
<path opacity="0.24" d="M156.826 157.461C159.054 160.33 158.606 164.71 155.619 166.879C144.356 176.871 130.419 183.848 115.743 187.06C112.547 188.03 110.299 185.308 108.353 183.274L109.935 183.702C112.09 184.453 114.411 184.651 116.628 183.984C130.679 180.511 143.94 173.638 154.724 163.959C156.691 162.395 156.66 159.735 156.826 157.461Z" fill="black"/>
<path d="M5.78542 98.107C10.2195 92.5794 13.7064 86.2904 18.9108 81.3989C18.5361 83.5996 18.2238 85.8002 17.9012 88.0112C18.2967 88.0738 19.0982 88.2198 19.4937 88.2928C25.4891 88.8039 30.6414 93.8205 31.2555 99.8174C31.2972 109.016 31.3908 118.226 31.2243 127.424C31.2243 134.277 24.9895 140.294 18.151 140.013C14.1436 140.096 10.5734 137.833 7.89838 135.027C5.6501 131.857 5.15049 127.904 5.25457 124.118C5.30662 114.711 4.67169 105.303 5.23376 95.9064C5.36907 96.4591 5.6501 97.5542 5.78542 98.107Z" fill="#0F9AFF"/>
<path d="M182.702 81.9727C183.368 82.3898 184.045 82.807 184.721 83.2242C186.616 97.8672 186.262 112.667 185.939 127.383C185.97 134.131 179.954 140.075 173.241 140.002C169.202 140.232 165.569 138 162.79 135.267C161.021 132.65 159.959 129.531 160.042 126.34C160.063 117.558 159.97 108.776 160.115 99.9948C160.344 103.092 160.781 106.169 161.229 109.246C168.349 100.13 173.969 89.7218 182.702 81.9727Z" fill="#28D0FF"/>
<path d="M146.646 154.718C149.977 151.652 155.025 153.759 156.826 157.461C156.66 159.735 156.691 162.395 154.724 163.959C143.94 173.638 130.679 180.511 116.628 183.984C114.411 184.651 112.089 184.453 109.935 183.702C105.865 180.73 106.76 173.439 111.944 172.397C124.746 169.476 136.737 163.354 146.646 154.718Z" fill="#28D0FF"/>
<path d="M48.3674 106.378C48.9607 102.769 51.0736 99.077 54.6959 97.8672C57.7352 96.7721 60.9931 97.8463 63.689 99.3482C69.1744 102.341 74.1185 106.211 78.9377 110.153C84.3815 114.836 89.9502 119.696 93.4163 126.11C94.988 132.493 88.9613 138.115 82.8202 137.833C73.2962 137.708 61.9195 139.71 54.4877 132.191C48.9294 124.973 46.4938 115.347 48.3674 106.378Z" fill="#18ADFF"/>
<path d="M125.871 114.335C130.357 112.886 135.114 111.154 139.891 112.051C143.128 112.708 145.533 115.399 146.428 118.507C147.156 127.915 140.682 138.605 130.607 139.105C123.154 139.001 115.649 137.843 108.478 135.799C106.042 134.464 103.523 132.378 103.398 129.375C103.284 126.548 105.501 124.462 107.583 122.919C113.047 118.872 119.573 116.703 125.871 114.335Z" fill="#23C3FF"/>
</svg>
