<svg width="192" height="192" viewBox="0 0 192 192" fill="none" xmlns="http://www.w3.org/2000/svg">
<path fill-rule="evenodd" clip-rule="evenodd" d="M97.7698 10.0281C84.4006 9.43504 70.8378 18.2737 66.6016 31.3573L67.0229 31.6713L66.202 32.1133C63.8789 37.9398 63.9131 44.4758 65.0746 50.5815C69.1223 50.1447 73.1317 49.3956 77.1377 48.6471L77.146 48.6455C77.5103 48.5775 77.8746 48.5094 78.2388 48.4416C76.6104 42.8593 77.772 36.8117 80.8011 31.9737C79.4824 31.9437 78.1646 31.9118 76.8474 31.8798L76.8487 31.8799L76.8497 31.8799C78.1664 31.9118 79.4828 31.9437 80.8011 31.9737C84.8779 26.2518 91.8368 22.6698 98.8174 23.542C105.024 24.1003 110.547 28.0544 113.747 33.4274C114.338 33.4565 114.929 33.4796 115.519 33.497C114.928 33.4795 114.337 33.4565 113.746 33.4274C115.978 37.8119 116.798 42.9407 115.591 47.7671C115.261 49.0464 114.851 50.3024 114.361 51.5235C114.514 51.515 114.667 51.5071 114.82 51.4997C114.668 51.5071 114.515 51.515 114.363 51.5235C111.072 58.3386 104.103 62.6533 96.7114 62.9208C94.7187 56.0824 88.6603 50.4652 81.4063 50.756C81.0816 50.7382 80.5886 50.7174 80.0972 50.6967L80.0951 50.6966C79.6223 50.6766 79.1508 50.6567 78.8327 50.6397C78.761 50.3747 78.6544 49.9785 78.5468 49.5783C78.4324 49.153 78.3169 48.7232 78.2405 48.4416C77.8742 48.5098 77.5078 48.5783 77.1414 48.6467L77.1393 48.6471C73.1333 49.3956 69.1239 50.1447 65.0763 50.5815C58.1132 50.7856 51.1467 50.7519 44.1823 50.7181H44.1813C38.4466 50.6903 32.713 50.6626 26.9844 50.7676C21.5525 50.7792 16.6558 54.2333 13.9 58.862C12.3171 62.5254 12.1804 66.5726 12.2715 70.5035C12.3159 75.6862 12.3119 80.8619 12.3079 86.0415C12.3068 87.5217 12.3057 89.0023 12.3057 90.4834L12.3039 90.4836C12.3039 92.325 12.3026 94.1664 12.3014 96.0078C12.2988 99.6906 12.2963 103.373 12.3039 107.056H12.3053C12.3349 109.022 12.3128 110.99 12.2907 112.958C12.2531 116.299 12.2156 119.64 12.4305 122.977C12.9885 130.409 19.7187 136.643 27.0068 136.608C31.9383 136.71 36.8737 136.688 41.8085 136.667H41.8095C45.3181 136.652 48.8268 136.637 52.3331 136.666C52.3958 137.044 52.4897 137.614 52.5837 138.184C52.6776 138.753 52.7716 139.323 52.8342 139.701C54.6335 151.145 61.0445 161.635 70.1091 168.567C85.38 180.464 108.145 180.51 123.45 168.636C129.304 164.17 134.108 158.262 137.217 151.494C137.38 151.132 137.628 150.588 137.875 150.048C138.112 149.53 138.347 149.015 138.504 148.668C149.504 153.087 162.817 150.657 171.13 141.911C174.751 138.073 177.358 133.305 178.736 128.164C178.554 128.15 178.371 128.136 178.188 128.124C178.371 128.136 178.555 128.15 178.738 128.164C179.753 122.873 179.696 117.478 179.639 112.094V112.092C179.615 109.808 179.591 107.526 179.649 105.254C179.17 106.475 178.658 107.696 178.145 108.905L178.144 108.905C178.657 107.696 179.169 106.475 179.648 105.254L179.667 104.447C179.777 99.7708 179.887 95.0779 179.306 90.4371C176.459 85.1571 167.622 85.9945 166.7 92.2397C166.408 97.6989 166.433 103.169 166.457 108.64V108.641C166.468 111.094 166.478 113.548 166.461 116C166.896 114.275 167.42 112.575 167.945 110.872L167.949 110.858C168.053 110.521 168.157 110.184 168.26 109.847C168.652 109.804 169.044 109.762 169.436 109.72C169.044 109.762 168.653 109.804 168.261 109.847C168.158 110.184 168.054 110.521 167.95 110.858L167.946 110.872L167.945 110.873C167.421 112.576 166.897 114.275 166.462 116L166.457 116.252C166.454 116.429 166.451 116.607 166.448 116.785C166.379 120.719 166.31 124.711 164.719 128.385L164.717 128.385C160.367 136.689 149.401 140.062 141.452 135.061C141.452 132.502 141.452 129.955 141.464 127.397C141.534 122.585 141.524 117.773 141.515 112.962L141.515 112.949C141.51 110.717 141.506 108.485 141.509 106.254C141.484 104.584 141.504 102.913 141.524 101.241V101.236C141.557 98.3449 141.591 95.4527 141.396 92.5653C141.112 89.0531 137.616 86.5527 134.279 86.8667C132.098 86.9439 129.905 86.9189 127.71 86.8938C123.625 86.8472 119.534 86.8005 115.512 87.4133C109.898 89.181 109.909 98.264 115.523 100.02C118.354 100.597 121.254 100.492 124.147 100.387C125.512 100.338 126.877 100.289 128.232 100.311C128.238 101.329 128.246 102.344 128.255 103.359L128.255 103.378C128.263 104.398 128.272 105.417 128.278 106.44C128.294 109.782 128.269 113.123 128.245 116.465C128.217 120.229 128.19 123.993 128.22 127.757C128.334 132.398 128.094 137.061 126.91 141.574C125.817 144.469 124.497 147.272 122.971 149.97C118.792 155.89 112.904 160.6 106.015 162.693C92.3265 167.264 76.3154 160.588 69.4372 147.737C68.1049 145.19 67.0116 142.492 66.3398 139.678C66.169 138.922 65.8275 137.422 65.6567 136.677C68.0725 136.575 70.499 136.626 72.9249 136.677C77.1086 136.765 81.2916 136.853 85.4144 136.154C93.1011 134.375 97.6676 126.118 96.8249 118.395C96.7793 112.069 96.7791 105.742 96.7905 99.4037L96.7893 99.4036C96.7893 97.8403 96.7886 96.277 96.7879 94.7135V94.7064C96.7857 90.0147 96.7836 85.3214 96.8007 80.6215C96.5245 80.6164 96.2482 80.6116 95.972 80.6072C96.2488 80.6116 96.5257 80.6164 96.8025 80.6215C96.8025 79.1794 96.8139 77.7373 96.8253 76.3068C111.004 76.2835 124.441 66.1539 128.188 52.1166L128.186 52.1164C129.803 45.9178 129.712 39.2889 127.901 33.1484L127.902 33.1483C126.957 30.4153 125.75 27.7869 124.338 25.2749C118.575 16.2036 108.406 10.191 97.7698 10.0281ZM83.558 118.419C83.5126 111.79 83.5125 105.149 83.5238 98.5199L83.5226 98.5198C83.5226 96.5422 83.5214 94.5659 83.5201 92.5901L83.5201 92.5413C83.5176 88.5725 83.5151 84.6054 83.5226 80.6331L83.5244 80.6331C83.482 78.7423 83.5092 76.8499 83.5364 74.9582C83.5822 71.777 83.6279 68.598 83.3422 65.4328C82.5248 64.111 81.0962 64.1352 79.718 64.1586C79.2531 64.1665 78.7939 64.1743 78.3658 64.1303C62.423 64.1768 46.4688 64.1652 30.526 64.1303C30.097 64.1813 29.6315 64.1735 29.1603 64.1655C27.8058 64.1427 26.4044 64.119 25.6862 65.491C25.5154 66.8052 25.4357 68.1426 25.4585 69.4684C25.5028 74.5542 25.4988 79.633 25.4949 84.7102V84.7148C25.4938 86.161 25.4927 87.607 25.4927 89.0531L25.4909 89.0533C25.4965 92.0528 25.4965 95.0524 25.4965 98.0519V98.0549C25.4965 101.055 25.4965 104.056 25.5022 107.056H25.5036C25.5505 108.922 25.5193 110.793 25.4881 112.664C25.4359 115.797 25.3836 118.931 25.6972 122.047C26.5296 123.283 27.918 123.271 29.2583 123.259C29.6967 123.255 30.13 123.251 30.537 123.291C38.144 123.244 45.7556 123.256 53.3677 123.269H53.3688C62.5304 123.284 71.6925 123.299 80.8479 123.21C83.6949 123.559 83.6377 120.407 83.558 118.419ZM130.868 141.484C129.972 141.505 129.076 141.525 128.18 141.546C129.064 141.526 129.948 141.505 130.833 141.485L130.868 141.484Z" fill="url(#paint0_linear_678_284)"/>
<path d="M138.435 57.0128C140.941 49.8372 148.218 44.6852 155.745 45.4527C162.828 45.8714 168.977 51.4072 170.765 58.327C170.868 59.3388 171.084 61.3508 171.198 62.3626C171.255 71.3873 163.591 79.5166 154.686 79.4003C145.621 79.7957 137.673 71.6548 137.604 62.4789C137.809 60.6413 138.082 58.8154 138.435 57.0128Z" fill="url(#paint1_linear_678_284)"/>
<path d="M80.8011 31.9737C77.772 36.8117 76.6104 42.8593 78.2388 48.4416C77.8746 48.5094 77.5103 48.5775 77.146 48.6455L77.1377 48.6471C73.1317 49.3956 69.1223 50.1447 65.0746 50.5815C63.9131 44.4758 63.8789 37.9398 66.202 32.1133L67.0229 31.6713L66.6016 31.3573C70.8378 18.2737 84.4006 9.43504 97.7698 10.0281C108.406 10.191 118.575 16.2036 124.338 25.2749C125.75 27.7869 126.957 30.4153 127.902 33.1483L127.901 33.1484C129.712 39.2889 129.803 45.9178 128.186 52.1164L128.188 52.1166C124.441 66.1539 111.004 76.2835 96.8253 76.3068C96.8139 77.7373 96.8025 79.1794 96.8025 80.6215C96.5257 80.6164 96.2488 80.6116 95.972 80.6072C96.2482 80.6116 96.5245 80.6164 96.8007 80.6215C96.7836 85.3214 96.7857 90.0147 96.7879 94.7064V94.7135C96.7886 96.277 96.7893 97.8403 96.7893 99.4036L96.7905 99.4037C96.7791 105.742 96.7793 112.069 96.8249 118.395C97.6676 126.118 93.1011 134.375 85.4144 136.154C81.2916 136.853 77.1086 136.765 72.9249 136.677C70.499 136.626 68.0725 136.575 65.6567 136.677C65.8275 137.422 66.169 138.922 66.3398 139.678C67.0116 142.492 68.1049 145.19 69.4372 147.737C76.3154 160.588 92.3265 167.264 106.015 162.693C112.904 160.6 118.792 155.89 122.971 149.97C124.497 147.272 125.817 144.469 126.91 141.574C128.094 137.061 128.334 132.398 128.22 127.757C128.19 123.993 128.217 120.229 128.245 116.465C128.269 113.123 128.294 109.782 128.278 106.44C128.272 105.417 128.263 104.398 128.255 103.378L128.255 103.359C128.246 102.344 128.238 101.329 128.232 100.311C126.877 100.289 125.512 100.338 124.147 100.387C121.254 100.492 118.354 100.597 115.523 100.02C109.909 98.264 109.898 89.181 115.512 87.4133C119.534 86.8005 123.625 86.8472 127.71 86.8938C129.905 86.9189 132.098 86.9439 134.279 86.8667C137.616 86.5527 141.112 89.0531 141.396 92.5653C141.591 95.4527 141.557 98.3449 141.524 101.236V101.241C141.504 102.913 141.484 104.584 141.509 106.254C141.506 108.485 141.51 110.717 141.515 112.949L141.515 112.962C141.524 117.773 141.534 122.585 141.464 127.397C141.452 129.955 141.452 132.502 141.452 135.061C149.401 140.062 160.367 136.689 164.717 128.385L164.719 128.385C166.31 124.711 166.379 120.719 166.448 116.785C166.451 116.607 166.454 116.429 166.457 116.252L166.462 116C166.897 114.275 167.421 112.576 167.945 110.873L167.946 110.872L167.95 110.858C168.054 110.521 168.158 110.184 168.261 109.847C168.653 109.804 169.044 109.762 169.436 109.72C169.044 109.762 168.652 109.804 168.26 109.847C168.157 110.184 168.053 110.521 167.949 110.858L167.945 110.872C167.42 112.575 166.896 114.275 166.461 116C166.478 113.548 166.468 111.094 166.457 108.641V108.64C166.433 103.169 166.408 97.6989 166.7 92.2397C167.622 85.9945 176.459 85.1571 179.306 90.4371C179.887 95.0779 179.777 99.7708 179.667 104.447L179.648 105.254C179.169 106.475 178.657 107.696 178.144 108.905L178.145 108.905C178.658 107.696 179.17 106.475 179.649 105.254C179.591 107.526 179.615 109.808 179.639 112.092V112.094C179.696 117.478 179.753 122.873 178.738 128.164C178.555 128.15 178.371 128.136 178.188 128.124C178.371 128.136 178.554 128.15 178.736 128.164C177.358 133.305 174.751 138.073 171.13 141.911C162.817 150.657 149.504 153.087 138.504 148.668C138.347 149.015 138.112 149.53 137.875 150.048C137.628 150.588 137.38 151.132 137.217 151.494C134.108 158.262 129.304 164.17 123.45 168.636C108.145 180.51 85.38 180.464 70.1091 168.567M80.8011 31.9737C79.4824 31.9437 78.1646 31.9118 76.8474 31.8798L76.8487 31.8799L76.8497 31.8799C78.1664 31.9118 79.4828 31.9437 80.8011 31.9737ZM80.8011 31.9737C84.8779 26.2518 91.8368 22.6698 98.8174 23.542C105.024 24.1003 110.547 28.0544 113.747 33.4274C114.338 33.4565 114.929 33.4796 115.519 33.497C114.928 33.4795 114.337 33.4565 113.746 33.4274C115.978 37.8119 116.798 42.9407 115.591 47.7671C115.261 49.0464 114.851 50.3024 114.361 51.5235C114.514 51.515 114.667 51.5071 114.82 51.4997C114.668 51.5071 114.515 51.515 114.363 51.5235C111.072 58.3386 104.103 62.6533 96.7114 62.9208C94.7187 56.0824 88.6603 50.4652 81.4063 50.756C81.0816 50.7382 80.5886 50.7174 80.0972 50.6967L80.0951 50.6966C79.6223 50.6766 79.1508 50.6567 78.8327 50.6397C78.761 50.3747 78.6544 49.9785 78.5468 49.5783C78.4324 49.153 78.3169 48.7232 78.2405 48.4416C77.8742 48.5098 77.5078 48.5783 77.1414 48.6467L77.1393 48.6471C73.1333 49.3956 69.1239 50.1447 65.0763 50.5815C58.1132 50.7856 51.1467 50.7519 44.1823 50.7181H44.1813C38.4466 50.6903 32.713 50.6626 26.9844 50.7676C21.5525 50.7792 16.6558 54.2333 13.9 58.862C12.3171 62.5254 12.1804 66.5726 12.2715 70.5035C12.3159 75.6862 12.3119 80.8619 12.3079 86.0415C12.3068 87.5217 12.3057 89.0023 12.3057 90.4834L12.3039 90.4836C12.3039 92.325 12.3026 94.1664 12.3014 96.0078C12.2988 99.6906 12.2963 103.373 12.3039 107.056H12.3053C12.3349 109.022 12.3128 110.99 12.2907 112.958C12.2531 116.299 12.2156 119.64 12.4305 122.977C12.9885 130.409 19.7187 136.643 27.0068 136.608C31.9383 136.71 36.8737 136.688 41.8085 136.667H41.8095C45.3181 136.652 48.8268 136.637 52.3331 136.666C52.3958 137.044 52.4897 137.614 52.5837 138.184C52.6776 138.753 52.7716 139.323 52.8342 139.701C54.6335 151.145 61.0445 161.635 70.1091 168.567M70.1091 168.567C72.3214 168.55 74.5337 168.536 76.7461 168.526M123.222 168.635L123.219 168.635M83.558 118.419C83.5126 111.79 83.5125 105.149 83.5238 98.5199L83.5226 98.5198C83.5226 96.5422 83.5214 94.5659 83.5201 92.5901L83.5201 92.5413C83.5176 88.5725 83.5151 84.6054 83.5226 80.6331L83.5244 80.6331C83.482 78.7423 83.5092 76.8499 83.5364 74.9582C83.5822 71.777 83.6279 68.598 83.3422 65.4328C82.5248 64.111 81.0962 64.1352 79.718 64.1586C79.2531 64.1665 78.7939 64.1743 78.3658 64.1303C62.423 64.1768 46.4688 64.1652 30.526 64.1303C30.097 64.1813 29.6315 64.1735 29.1603 64.1655C27.8058 64.1427 26.4044 64.119 25.6862 65.491C25.5154 66.8052 25.4357 68.1426 25.4585 69.4684C25.5028 74.5542 25.4988 79.633 25.4949 84.7102V84.7148C25.4938 86.161 25.4927 87.607 25.4927 89.0531L25.4909 89.0533C25.4965 92.0528 25.4965 95.0524 25.4965 98.0519V98.0549C25.4965 101.055 25.4965 104.056 25.5022 107.056H25.5036C25.5505 108.922 25.5193 110.793 25.4881 112.664C25.4359 115.797 25.3836 118.931 25.6972 122.047C26.5296 123.283 27.918 123.271 29.2583 123.259C29.6967 123.255 30.13 123.251 30.537 123.291C38.144 123.244 45.7556 123.256 53.3677 123.269H53.3688C62.5304 123.284 71.6925 123.299 80.8479 123.21C83.6949 123.559 83.6377 120.407 83.558 118.419ZM130.868 141.484C129.972 141.505 129.076 141.525 128.18 141.546C129.064 141.526 129.948 141.505 130.833 141.485L130.868 141.484ZM155.745 45.4527C148.218 44.6852 140.941 49.8372 138.435 57.0128C138.082 58.8154 137.809 60.6413 137.604 62.4789C137.673 71.6548 145.621 79.7957 154.686 79.4003C163.591 79.5166 171.255 71.3873 171.198 62.3626C171.084 61.3508 170.868 59.3388 170.765 58.327C168.977 51.4072 162.828 45.8714 155.745 45.4527Z" stroke="url(#paint2_linear_678_284)" stroke-width="3"/>
<defs>
<linearGradient id="paint0_linear_678_284" x1="96.0023" y1="177.516" x2="96.0023" y2="10" gradientUnits="userSpaceOnUse">
<stop stop-color="#5A92FF"/>
<stop offset="0.635417" stop-color="#960EFF"/>
</linearGradient>
<linearGradient id="paint1_linear_678_284" x1="96.0023" y1="177.516" x2="96.0023" y2="10" gradientUnits="userSpaceOnUse">
<stop stop-color="#5A92FF"/>
<stop offset="0.635417" stop-color="#960EFF"/>
</linearGradient>
<linearGradient id="paint2_linear_678_284" x1="96.0023" y1="177.516" x2="96.0023" y2="10" gradientUnits="userSpaceOnUse">
<stop stop-color="#5A92FF"/>
<stop offset="0.635417" stop-color="#960EFF"/>
</linearGradient>
</defs>
</svg>
