<svg width="512" height="512" viewBox="0 0 512 512" fill="none" xmlns="http://www.w3.org/2000/svg">
<path d="M87.25 171.562H227.875C235.641 171.562 241.938 165.266 241.938 157.5C241.938 149.734 235.641 143.438 227.875 143.438H87.25C79.4837 143.438 73.1875 149.734 73.1875 157.5C73.1875 165.266 79.4837 171.562 87.25 171.562ZM425.688 282.188H86.3125C78.5462 282.188 72.25 288.484 72.25 296.25C72.25 304.016 78.5462 310.312 86.3125 310.312H425.688C433.454 310.312 439.75 304.016 439.75 296.25C439.75 288.484 433.454 282.188 425.688 282.188ZM425.688 210.938H86.3125C78.5462 210.938 72.25 217.234 72.25 225C72.25 232.766 78.5462 239.062 86.3125 239.062H425.688C433.454 239.062 439.75 232.766 439.75 225C439.75 217.234 433.454 210.938 425.688 210.938ZM425.688 45H86.3125C47.5422 45 16 76.5422 16 115.312V340.312C16 379.083 47.5422 410.625 86.3125 410.625H128.5V452.812C128.5 457.999 131.355 462.764 135.927 465.211C140.492 467.654 146.041 467.394 150.363 464.513L231.196 410.625H425.688C464.458 410.625 496 379.083 496 340.312V115.312C496 76.5422 464.458 45 425.688 45ZM467.875 340.312C467.875 363.575 448.95 382.5 425.688 382.5H226.938C224.162 382.5 221.447 383.322 219.137 384.862L156.625 426.536V396.562C156.625 388.796 150.329 382.5 142.562 382.5H86.3125C63.0503 382.5 44.125 363.575 44.125 340.312V115.312C44.125 92.0503 63.0503 73.125 86.3125 73.125H425.688C448.95 73.125 467.875 92.0503 467.875 115.312V340.312Z" fill="url(#paint0_linear)" stroke="url(#paint1_linear)" stroke-width="16"/>
<defs>
<linearGradient id="paint0_linear" x1="256" y1="466.875" x2="256" y2="45" gradientUnits="userSpaceOnUse">
<stop stop-color="#5570FF"/>
<stop offset="1" stop-color="#4DD3FF"/>
</linearGradient>
<linearGradient id="paint1_linear" x1="256" y1="466.875" x2="256" y2="45" gradientUnits="userSpaceOnUse">
<stop stop-color="#5570FF"/>
<stop offset="1" stop-color="#4DD3FF"/>
</linearGradient>
</defs>
</svg>
