<svg width="192" height="192" viewBox="0 0 192 192" fill="none" xmlns="http://www.w3.org/2000/svg">
<path d="M10.9516 76.2014C66.3629 58.972 121.785 41.7631 177.218 24.5541C182.258 22.2514 188.231 27.5598 186.162 32.4912C173.743 76.3441 161.314 120.197 148.874 164.04C147.995 168.92 140.692 170.652 137.431 166.852C124.198 152.027 111.061 137.11 97.9239 122.204C95.704 119.901 95.6825 116.132 97.8595 113.798C106.61 103.11 115.275 92.3711 124.101 81.7441C126.3 78.983 130.986 78.7384 133.581 81.1226C136.295 83.3438 136.509 87.511 134.139 90.0379C126.568 99.2792 119.061 108.561 111.436 117.752C120.605 128.328 129.978 138.751 139.244 149.266C149.571 112.83 159.973 76.4256 170.226 39.9698C124.08 54.4991 77.7841 68.5903 31.6491 83.0891C40.8825 86.4718 49.9229 90.3232 59.1135 93.8383C61.8052 94.684 64.3039 96.8542 64.3146 99.7275C64.1645 112.667 63.4674 125.607 63.0814 138.537C67.4461 134.308 71.5748 129.836 76.1004 125.75C79.9396 122.754 86.4384 125.617 86.5993 130.314C87.0175 132.913 85.1301 135.042 83.3499 136.764C75.4462 144.579 67.9608 152.781 59.9607 160.494C56.0678 163.744 48.9899 160.718 49.3009 155.685C49.805 138.598 50.3304 121.501 51.0275 104.414C38.5447 99.2995 25.9439 94.4598 13.4074 89.4673C11.0374 88.4484 8.17408 87.7963 6.8443 85.4325C4.72093 81.9989 6.79068 77.0777 10.9516 76.2014Z" fill="url(#paint0_linear_637_178)" stroke="url(#paint1_linear_637_178)" stroke-width="6"/>
<defs>
<linearGradient id="paint0_linear_637_178" x1="96.2913" y1="168.919" x2="96.2913" y2="24" gradientUnits="userSpaceOnUse">
<stop stop-color="#5558FF"/>
<stop offset="1" stop-color="#00C0FF"/>
</linearGradient>
<linearGradient id="paint1_linear_637_178" x1="96.2913" y1="168.919" x2="96.2913" y2="24" gradientUnits="userSpaceOnUse">
<stop stop-color="#5558FF"/>
<stop offset="1" stop-color="#00C0FF"/>
</linearGradient>
</defs>
</svg>
