<svg width="128" height="128" viewBox="0 0 128 128" fill="none" xmlns="http://www.w3.org/2000/svg">
<path fill-rule="evenodd" clip-rule="evenodd" d="M49.1543 20.593C58.1766 18.9383 67.4907 20.7761 75.2083 25.734C81.4429 29.7392 86.2592 35.5381 89.064 42.3081C91.9817 42.0836 94.9239 42.2432 97.8145 42.7888C102.446 43.663 106.839 45.5081 110.706 48.2026C114.573 50.8971 117.825 54.3799 120.249 58.422C122.672 62.464 124.213 66.9735 124.767 71.6536C125.323 76.3336 124.881 81.0783 123.47 85.5752C122.059 90.0721 119.712 94.2193 116.584 97.7437C113.455 101.268 109.615 104.09 105.317 106.023C101.018 107.957 96.3596 108.958 91.6467 108.962H91.6428H30.797H30.7818C23.9936 108.944 17.4455 106.447 12.3679 101.942C7.29025 97.4366 4.03257 91.2321 3.20689 84.4942C2.38121 77.7563 4.04438 70.9488 7.88391 65.3507C10.8142 61.0782 14.8582 57.7347 19.5355 55.6544C19.637 48.1211 22.0932 40.7638 26.6203 34.6451C32.0763 27.2712 40.1319 22.2478 49.1543 20.593ZM21.7444 67.4481C20.0171 68.6005 18.5098 70.0794 17.3161 71.8198C15.0531 75.1194 14.0728 79.1317 14.5595 83.103C15.0462 87.0743 16.9662 90.7312 19.9589 93.3867C22.9498 96.0405 26.8063 97.5116 30.8045 97.5241H91.6389C94.7368 97.522 97.799 96.8637 100.625 95.5928C103.45 94.3219 105.974 92.4671 108.03 90.1504C110.086 87.8337 111.629 85.1078 112.557 82.1519C113.484 79.1961 113.775 76.0773 113.41 73.001C113.045 69.9247 112.033 66.9606 110.439 64.3038C108.846 61.6469 106.708 59.3575 104.166 57.5864C101.625 55.8153 98.7375 54.6025 95.6931 54.0279C92.6757 53.4583 89.5726 53.5286 86.5847 54.2338L79.3161 56.2121C76.2685 57.0416 73.1257 55.2436 72.2962 52.1961C71.4667 49.1485 73.2648 46.0056 76.3123 45.1761L77.6303 44.8174C75.6573 40.9925 72.7027 37.7187 69.0264 35.3569C63.7512 31.9681 57.3847 30.7118 51.2175 31.8429C45.0504 32.9739 39.544 36.4077 35.8147 41.4481C32.1217 46.4393 30.4449 52.6363 31.1137 58.8046C31.1338 58.9091 31.1648 59.0651 31.2066 59.2616C31.2957 59.6812 31.4304 60.2679 31.6093 60.9218C32.0054 62.3704 32.4752 63.6109 32.8784 64.255C34.5542 66.932 33.7426 70.4609 31.0655 72.1366C28.3885 73.8125 24.8596 73.0009 23.1838 70.3238C22.6143 69.4141 22.1384 68.4198 21.7444 67.4481ZM42.6202 54.5667C44.1091 53.0778 46.5231 53.0778 48.0119 54.5667L62.5319 69.0867C64.0208 70.5755 64.0208 72.9895 62.5319 74.4784L48.0119 88.9984C46.5231 90.4872 44.1091 90.4872 42.6202 88.9984C41.1313 87.5095 41.1313 85.0956 42.6202 83.6067L54.4444 71.7826L42.6202 59.9584C41.1313 58.4695 41.1313 56.0555 42.6202 54.5667ZM73.6871 79.9406C71.7905 78.1044 67.8124 79.3482 67.8124 81.9879C67.8124 82.5819 68.0155 83.1576 68.4175 83.5949C70.1417 85.4708 75.3327 90.5312 81.1562 90.5312C86.9797 90.5312 92.1707 85.4708 93.8949 83.5949C94.2968 83.1576 94.4999 82.5819 94.4999 81.9879C94.4999 79.3482 90.5219 78.1044 88.6252 79.9406C86.4065 82.0886 83.7814 83.8593 81.1562 83.8593C78.531 83.8593 75.9059 82.0886 73.6871 79.9406Z" fill="url(#paint0_linear_618_98)"/>
<defs>
<linearGradient id="paint0_linear_618_98" x1="63.9999" y1="108.962" x2="63.9999" y2="20" gradientUnits="userSpaceOnUse">
<stop stop-color="#00FFDC"/>
<stop offset="1" stop-color="#00FF29"/>
</linearGradient>
</defs>
</svg>
