<svg width="128" height="128" viewBox="0 0 128 128" fill="none" xmlns="http://www.w3.org/2000/svg">
<path d="M87.4666 33.5728C68.1066 33.5728 52.2666 49.4128 52.2666 68.7728C52.2666 88.1328 68.1066 103.973 87.4666 103.973C106.827 103.973 122.667 88.1328 122.667 68.7728C122.667 49.4128 106.827 33.5728 87.4666 33.5728ZM87.4666 92.2394C74.5599 92.2394 63.9999 81.6794 63.9999 68.7728C63.9999 55.8661 74.5599 45.3061 87.4666 45.3061C100.373 45.3061 110.933 55.8661 110.933 68.7728C110.933 81.6794 100.373 92.2394 87.4666 92.2394Z" fill="url(#paint0_linear_619_20)"/>
<path fill-rule="evenodd" clip-rule="evenodd" d="M53.0655 17.5155L67.6521 61.5357C67.9233 62.3541 68.6884 62.9066 69.5506 62.9066H76.1489C76.8629 62.9066 77.512 62.5179 77.9284 61.9379C80.0576 58.9718 83.5363 57.0396 87.4663 57.0396C93.9466 57.0396 99.1997 62.2927 99.1997 68.773C99.1997 75.253 93.9466 80.5063 87.4663 80.5063C83.5365 80.5063 80.058 78.5744 77.9286 75.6085C77.5123 75.0286 76.8632 74.6399 76.1493 74.6399H61.3281C60.4704 74.6399 59.7081 74.093 59.4334 73.2804L54.9583 60.0413C54.3255 58.1693 51.6502 58.2513 51.1332 60.1586L36.8749 112.767C36.5407 114 34.8322 114.103 34.3525 112.92L19.3326 75.8882C19.0266 75.1336 18.2936 74.6399 17.4793 74.6399H6.66634C5.92997 74.6399 5.33301 74.0428 5.33301 73.3066V64.2399C5.33301 63.5036 5.92997 62.9066 6.66634 62.9066H25.6678C26.4945 62.9066 27.236 63.4152 27.5337 64.1864L31.3056 73.9592C32.0004 75.7593 34.5897 75.629 35.1002 73.7682L50.5141 17.5822C50.8631 16.3098 52.6506 16.2631 53.0655 17.5155Z" fill="url(#paint1_linear_619_20)"/>
<defs>
<linearGradient id="paint0_linear_619_20" x1="87.4666" y1="103.973" x2="87.4666" y2="33.5728" gradientUnits="userSpaceOnUse">
<stop stop-color="#00B59C"/>
<stop offset="1" stop-color="#9CFFAC"/>
</linearGradient>
<linearGradient id="paint1_linear_619_20" x1="52.2663" y1="16.6016" x2="52.2663" y2="113.752" gradientUnits="userSpaceOnUse">
<stop offset="0.119792" stop-color="#7730F6"/>
<stop offset="0.84375" stop-color="#39D9FD"/>
</linearGradient>
</defs>
</svg>
