<svg width="64" height="64" viewBox="0 0 64 64" fill="none" xmlns="http://www.w3.org/2000/svg">
<path d="M5.56862 7.21027C7.05771 5.28224 9.42528 4.01757 11.9032 4.0137C15.5865 4.00982 19.2738 4.00594 22.9571 4.01757C24.2177 3.95551 25.3207 5.11931 25.2065 6.34905C25.175 7.50122 24.0838 8.50596 22.9059 8.4245C19.2501 8.44389 15.5944 8.4051 11.9426 8.44389C10.3629 8.45553 8.98407 9.62709 8.57438 11.1051C7.43589 9.91028 6.64407 8.45553 5.56862 7.21027Z" fill="url(#paint0_linear)"/>
<path d="M38.7343 5.26282C39.1204 4.4016 40.1092 3.92445 41.0428 4.00979C44.868 4.02919 48.6971 3.98264 52.5222 4.03307C56.5365 4.21928 59.9874 7.79602 59.9756 11.7529C59.9913 20.6017 59.9716 29.4543 59.9874 38.3031C59.6171 37.8958 59.2428 37.4923 58.8607 37.1005C58.6992 37.1781 58.3762 37.341 58.2147 37.4225C57.8483 36.8367 57.344 36.3634 56.7492 36.0104C56.895 35.7738 57.0447 35.5371 57.1904 35.3005C56.7256 35.0367 56.2568 34.7729 55.784 34.5169C55.7762 28.8724 55.725 23.2319 55.6619 17.5913C55.6225 15.5043 55.7328 13.4094 55.4453 11.3378C55.1656 9.75508 53.7159 8.46714 52.0692 8.44387C48.1968 8.38956 44.3204 8.46714 40.448 8.40895C38.9904 8.28094 38.0449 6.53524 38.7343 5.26282Z" fill="url(#paint1_linear)"/>
<path d="M4.01253 11.7568C4.03223 10.1236 4.61135 8.53312 5.56862 7.21027C6.64407 8.45553 7.43589 9.91028 8.57438 11.1051L8.55072 11.334C8.43254 12.3853 8.33011 13.4405 8.33405 14.5034C8.34193 19.2789 8.20405 24.0543 8.2592 28.8298C8.26708 29.5087 8.19617 30.1837 8.08981 30.8509C7.8889 30.6686 7.68799 30.494 7.48314 30.3194C7.53041 30.1332 7.62496 29.7608 7.67223 29.5746C6.21466 28.5776 4.82405 27.4992 4.00859 25.9009C4.00465 21.1836 4.00072 16.4702 4.01253 11.7568Z" fill="url(#paint2_linear)"/>
<path d="M8.33405 14.5034C8.33011 13.4405 8.43254 12.3853 8.55072 11.334C8.42466 24.5431 8.52708 37.7561 8.49557 50.9691C8.34981 52.87 9.9689 54.6739 11.915 54.6933C16.5437 54.7398 21.1765 54.6855 25.8092 54.7243C26.5341 55.4342 27.578 55.8028 28.1374 56.6795C28.7677 57.6377 29.524 58.5183 30.5247 59.1118C24.3162 59.1002 18.1077 59.1157 11.8992 59.1041C8.35375 59.1312 5.10375 56.5088 4.24103 53.1532C4.00072 52.1756 3.9889 51.167 4.00466 50.1661C4.01254 42.0777 4.00072 33.9893 4.00859 25.9009C4.82405 27.4992 6.21466 28.5776 7.67223 29.5746C7.62496 29.7608 7.53041 30.1332 7.48314 30.3194C7.68799 30.494 7.8889 30.6686 8.08981 30.8509C8.19617 30.1837 8.26708 29.5087 8.2592 28.8298C8.20405 24.0543 8.34193 19.2789 8.33405 14.5034Z" fill="url(#paint3_linear)"/>
<path d="M55.4453 11.3378C55.7328 13.4094 55.6225 15.5043 55.6619 17.5913C55.725 23.2319 55.7762 28.8724 55.784 34.5169C55.6856 37.535 55.8156 40.5531 55.7525 43.5712C55.7604 44.7079 55.7407 45.8911 56.1819 46.9657C56.4301 47.6135 57.281 47.6213 57.6986 48.1139C58.065 48.5872 58.3644 49.107 58.6835 49.6114C58.9513 49.5144 59.2192 49.4135 59.491 49.3165C59.6565 49.7665 59.8298 50.2165 59.9795 50.6782C60.2238 53.9019 58.2619 57.0946 55.2838 58.4291C54.945 57.8317 54.8938 56.9433 54.1886 56.6368C53.3101 56.3032 52.9438 55.411 52.471 54.6894C54.2398 54.3907 55.6225 52.7536 55.4925 50.9652C55.465 37.7561 55.5516 24.547 55.4453 11.3378Z" fill="url(#paint4_linear)"/>
<path d="M11.2729 15.7952C11.7889 13.8749 14.8262 13.6771 15.5156 15.5663C17.4813 21.5871 19.3762 27.6311 21.2947 33.6634C20.8692 33.6789 20.4477 33.6518 20.0301 33.5819C18.5489 32.5888 17.4301 31.1612 16.6186 29.6018C16.138 29.4815 15.6574 29.3612 15.1807 29.241C13.9201 25.2957 12.6674 21.3543 11.4107 17.4129C11.2217 16.8931 11.1783 16.3383 11.2729 15.7952Z" fill="url(#paint5_linear)"/>
<path d="M32.4195 15.2754C33.3334 13.6228 36.0674 14.0456 36.5401 15.8418C36.6071 16.4237 36.5283 17.0094 36.3234 17.5564C35.4646 20.1207 34.6098 22.6849 33.7549 25.2492C32.451 24.2056 31.1431 23.1272 30.1858 21.7539C30.954 19.6047 31.5449 17.3857 32.4195 15.2754Z" fill="url(#paint6_linear)"/>
<path d="M36.544 27.3207C36.7528 24.1978 35.9137 20.784 37.6076 17.9366C38.7107 18.9918 39.924 19.9306 41.1295 20.8694C40.8852 23.3909 41.1452 25.9358 40.9876 28.4651C40.8064 29.7453 39.3331 30.6026 38.1001 30.172C36.8592 29.8306 36.3943 28.4729 36.544 27.3207Z" fill="url(#paint7_linear)"/>
<path d="M38.3916 16.862C39.9753 14.9805 42.5477 13.9642 45.0177 14.2667C47.6019 14.5267 49.938 16.218 51.0489 18.5146C52.1677 20.9082 51.6437 23.6043 51.7659 26.1453C51.7028 27.344 52.0692 28.8453 51.0056 29.7259C49.808 30.878 47.5389 30.1061 47.3262 28.4729C47.2001 26.1569 47.3577 23.8293 47.2513 21.5133C47.1647 19.9771 45.7701 18.6387 44.1983 18.6465C42.7998 18.6 41.5589 19.5892 41.1295 20.8694C39.924 19.9306 38.7107 18.9918 37.6076 17.9366C37.8558 17.5681 38.1159 17.2112 38.3916 16.862Z" fill="url(#paint8_linear)"/>
<path d="M10.6859 17.2267C10.7095 16.7883 10.5126 15.5818 11.2729 15.7952C11.1783 16.3383 11.2217 16.8931 11.4107 17.4129C12.6674 21.3543 13.9201 25.2957 15.1807 29.241C17.0362 35.0018 18.8089 40.7936 20.7234 46.5389C21.598 48.8083 25.1592 49.076 26.3922 46.9773C27.2392 45.2122 27.6725 43.2841 28.3501 41.4492C29.2089 38.8811 30.0677 36.313 30.9225 33.741C31.868 30.9129 32.8134 28.0811 33.7549 25.2492C34.6098 22.6849 35.4646 20.1207 36.3234 17.5564C36.5283 17.0094 36.6071 16.4237 36.5401 15.8418C37.0365 16.3965 37.718 16.6176 38.3916 16.862C38.1159 17.2112 37.8558 17.5681 37.6076 17.9366C35.9137 20.784 36.7528 24.1978 36.544 27.3207C36.3943 28.4729 36.8592 29.8306 38.1001 30.172C39.3331 30.6026 40.8064 29.7453 40.9876 28.4651C41.1452 25.9358 40.8852 23.3909 41.1295 20.8694C41.5589 19.5892 42.7998 18.6 44.1983 18.6465C45.7701 18.6387 47.1647 19.9771 47.2513 21.5133C47.3577 23.8293 47.2001 26.1569 47.3262 28.4729C47.5389 30.1061 49.808 30.878 51.0056 29.7259C52.0692 28.8453 51.7028 27.344 51.7659 26.1453C51.6437 23.6043 52.1677 20.9082 51.0489 18.5146C51.2183 18.5728 51.5531 18.6931 51.7186 18.7512C52.9162 21.4707 52.3213 24.4577 52.5144 27.3129C52.4395 28.5853 52.2071 30.1681 50.9228 30.816C49.5835 31.5686 47.5665 31.0798 47.0031 29.594C45.8489 26.859 47.3065 23.7944 46.1877 21.0672C45.4786 19.3254 42.6659 19.562 42.0041 21.2379C41.2477 24.1008 42.5398 27.2974 41.0665 30.0013C40.121 31.7315 37.4422 31.4289 36.4416 29.9082C35.2559 28.0733 36.4456 25.672 35.4804 23.8138C35.1338 23.9689 34.9131 24.225 34.8147 24.5896C32.3053 31.7858 30.0756 39.0712 27.6213 46.2867C27.2195 47.4467 26.3331 48.4049 25.2892 49.0488C23.3431 50.0419 20.6171 48.9053 20.0301 46.8027C17.7807 40.394 15.8977 33.8651 13.7428 27.4215C12.8013 24.0039 11.4068 20.7025 10.6859 17.2267Z" fill="url(#paint9_linear)"/>
<path d="M30.1858 21.7539C31.1431 23.1272 32.451 24.2056 33.7549 25.2492C32.8134 28.0811 31.868 30.9129 30.9225 33.741C29.918 32.647 28.4959 31.7509 28.1531 30.2224C27.8774 30.2612 27.6016 30.2961 27.3259 30.3349C28.2752 27.472 29.2365 24.6129 30.1858 21.7539Z" fill="url(#paint10_linear)"/>
<path d="M15.1807 29.241C15.6574 29.3612 16.138 29.4815 16.6186 29.6018C17.4301 31.1612 18.5489 32.5888 20.0301 33.5819C20.4477 33.6518 20.8692 33.6789 21.2947 33.6634C22.0983 36.1346 22.8744 38.6173 23.674 41.0885C24.135 40.0876 24.395 39.0091 24.7731 37.9772C26.0968 39.0014 27.0974 40.3514 28.3501 41.4492C27.6725 43.2841 27.2392 45.2122 26.3922 46.9773C25.1592 49.076 21.598 48.8083 20.7234 46.5389C18.8089 40.7936 17.0362 35.0018 15.1807 29.241Z" fill="url(#paint11_linear)"/>
<path d="M27.3259 30.3349C27.6016 30.2961 27.8774 30.2612 28.1531 30.2224C28.4959 31.7509 29.918 32.647 30.9225 33.741C30.0677 36.313 29.2089 38.8811 28.3501 41.4492C27.0974 40.3514 26.0968 39.0014 24.7731 37.9772C25.624 35.4324 26.471 32.8798 27.3259 30.3349Z" fill="url(#paint12_linear)"/>
<path d="M39.7665 34.8039C42.6856 32.7324 46.4359 33.6324 49.7765 33.4578C51.9707 33.5625 52.4986 36.891 50.4619 37.663C47.8304 38.3807 44.8089 37.147 42.3035 38.4621C42.2365 38.1207 42.1695 37.7794 42.0986 37.438C40.9207 36.9919 40.5347 35.6807 39.7665 34.8039Z" fill="url(#paint13_linear)"/>
<path d="M36.5677 41.5967C36.3038 38.9742 37.5998 36.3246 39.7665 34.8039C40.5347 35.6807 40.9207 36.9919 42.0986 37.438C42.1695 37.7794 42.2365 38.1207 42.3035 38.4621C40.3968 39.8005 40.7868 43.0631 43.0519 43.7924C45.3486 44.3238 47.7595 43.8234 50.0956 44.0833C51.7028 44.4131 52.3331 46.6126 51.171 47.7415C50.3122 48.7075 48.9216 48.3816 47.7792 48.4321C45.6874 48.3389 43.4971 48.7308 41.4998 47.9433C38.8092 46.9773 36.7883 44.4169 36.5677 41.5967Z" fill="url(#paint14_linear)"/>
<path d="M55.784 34.5169C56.2568 34.7729 56.7256 35.0367 57.1904 35.3005C57.0447 35.5371 56.895 35.7738 56.7492 36.0104C57.344 36.3634 57.8483 36.8367 58.2147 37.4225C58.3762 37.341 58.6992 37.1781 58.8607 37.1005C59.2428 37.4923 59.6171 37.8958 59.9874 38.3031C59.9716 42.4268 59.9874 46.5544 59.9795 50.6782C59.8298 50.2165 59.6565 49.7665 59.491 49.3165C59.2192 49.4135 58.9513 49.5144 58.6835 49.6114C58.3644 49.107 58.065 48.5872 57.6986 48.1139C57.281 47.6213 56.4301 47.6135 56.1819 46.9657C55.7407 45.8911 55.7604 44.7079 55.7525 43.5712C55.8156 40.5531 55.6856 37.535 55.784 34.5169Z" fill="url(#paint15_linear)"/>
<path d="M4.24103 53.1532C5.10375 56.5088 8.35375 59.1312 11.8992 59.1041C18.1077 59.1157 24.3162 59.1002 30.5247 59.1118C34.4247 59.1041 38.3246 59.104 42.2246 59.1118C45.514 59.1002 48.8034 59.1157 52.0928 59.1079C53.1959 59.1196 54.2635 58.8131 55.2838 58.4291C55.461 58.5299 55.8155 58.7316 55.9968 58.8364C54.0546 60.0816 51.5649 60.0118 49.3274 59.9924C36.9892 59.9885 24.6471 59.9846 12.3089 59.9924C8.64525 60.0157 4.97768 57.5756 4.00859 54.0454C4.06768 53.8243 4.18193 53.3743 4.24103 53.1532Z" fill="url(#paint16_linear)"/>
<path d="M25.8092 54.7243C29.9022 54.6972 33.9992 54.7127 38.0962 54.7166C38.7422 55.8144 39.5853 57.3778 41.1216 57.1528C41.1768 57.9558 41.5313 58.6579 42.2246 59.1118C38.3246 59.104 34.4247 59.1041 30.5247 59.1118C29.524 58.5183 28.7677 57.6377 28.1374 56.6795C27.578 55.8028 26.5341 55.4342 25.8092 54.7243Z" fill="url(#paint17_linear)"/>
<path d="M38.0962 54.7166C42.8865 54.6933 47.6768 54.7437 52.471 54.6894C52.9438 55.411 53.3101 56.3032 54.1886 56.6368C54.8938 56.9433 54.945 57.8317 55.2838 58.4291C54.2635 58.8131 53.1959 59.1196 52.0928 59.1079C48.8034 59.1157 45.514 59.1002 42.2246 59.1118C41.5313 58.6579 41.1768 57.9558 41.1216 57.1528C39.5853 57.3778 38.7422 55.8144 38.0962 54.7166Z" fill="url(#paint18_linear)"/>
<defs>
<linearGradient id="paint0_linear" x1="32" y1="60" x2="32" y2="4" gradientUnits="userSpaceOnUse">
<stop stop-color="#FD2E00"/>
<stop offset="1" stop-color="#FF9900"/>
</linearGradient>
<linearGradient id="paint1_linear" x1="32" y1="60" x2="32" y2="4" gradientUnits="userSpaceOnUse">
<stop stop-color="#FD2E00"/>
<stop offset="1" stop-color="#FF9900"/>
</linearGradient>
<linearGradient id="paint2_linear" x1="32" y1="60" x2="32" y2="4" gradientUnits="userSpaceOnUse">
<stop stop-color="#FD2E00"/>
<stop offset="1" stop-color="#FF9900"/>
</linearGradient>
<linearGradient id="paint3_linear" x1="32" y1="60" x2="32" y2="4" gradientUnits="userSpaceOnUse">
<stop stop-color="#FD2E00"/>
<stop offset="1" stop-color="#FF9900"/>
</linearGradient>
<linearGradient id="paint4_linear" x1="32" y1="60" x2="32" y2="4" gradientUnits="userSpaceOnUse">
<stop stop-color="#FD2E00"/>
<stop offset="1" stop-color="#FF9900"/>
</linearGradient>
<linearGradient id="paint5_linear" x1="32" y1="60" x2="32" y2="4" gradientUnits="userSpaceOnUse">
<stop stop-color="#FD2E00"/>
<stop offset="1" stop-color="#FF9900"/>
</linearGradient>
<linearGradient id="paint6_linear" x1="32" y1="60" x2="32" y2="4" gradientUnits="userSpaceOnUse">
<stop stop-color="#FD2E00"/>
<stop offset="1" stop-color="#FF9900"/>
</linearGradient>
<linearGradient id="paint7_linear" x1="32" y1="60" x2="32" y2="4" gradientUnits="userSpaceOnUse">
<stop stop-color="#FD2E00"/>
<stop offset="1" stop-color="#FF9900"/>
</linearGradient>
<linearGradient id="paint8_linear" x1="32" y1="60" x2="32" y2="4" gradientUnits="userSpaceOnUse">
<stop stop-color="#FD2E00"/>
<stop offset="1" stop-color="#FF9900"/>
</linearGradient>
<linearGradient id="paint9_linear" x1="32" y1="60" x2="32" y2="4" gradientUnits="userSpaceOnUse">
<stop stop-color="#FD2E00"/>
<stop offset="1" stop-color="#FF9900"/>
</linearGradient>
<linearGradient id="paint10_linear" x1="32" y1="60" x2="32" y2="4" gradientUnits="userSpaceOnUse">
<stop stop-color="#FD2E00"/>
<stop offset="1" stop-color="#FF9900"/>
</linearGradient>
<linearGradient id="paint11_linear" x1="32" y1="60" x2="32" y2="4" gradientUnits="userSpaceOnUse">
<stop stop-color="#FD2E00"/>
<stop offset="1" stop-color="#FF9900"/>
</linearGradient>
<linearGradient id="paint12_linear" x1="32" y1="60" x2="32" y2="4" gradientUnits="userSpaceOnUse">
<stop stop-color="#FD2E00"/>
<stop offset="1" stop-color="#FF9900"/>
</linearGradient>
<linearGradient id="paint13_linear" x1="32" y1="60" x2="32" y2="4" gradientUnits="userSpaceOnUse">
<stop stop-color="#FD2E00"/>
<stop offset="1" stop-color="#FF9900"/>
</linearGradient>
<linearGradient id="paint14_linear" x1="32" y1="60" x2="32" y2="4" gradientUnits="userSpaceOnUse">
<stop stop-color="#FD2E00"/>
<stop offset="1" stop-color="#FF9900"/>
</linearGradient>
<linearGradient id="paint15_linear" x1="32" y1="60" x2="32" y2="4" gradientUnits="userSpaceOnUse">
<stop stop-color="#FD2E00"/>
<stop offset="1" stop-color="#FF9900"/>
</linearGradient>
<linearGradient id="paint16_linear" x1="32" y1="60" x2="32" y2="4" gradientUnits="userSpaceOnUse">
<stop stop-color="#FD2E00"/>
<stop offset="1" stop-color="#FF9900"/>
</linearGradient>
<linearGradient id="paint17_linear" x1="32" y1="60" x2="32" y2="4" gradientUnits="userSpaceOnUse">
<stop stop-color="#FD2E00"/>
<stop offset="1" stop-color="#FF9900"/>
</linearGradient>
<linearGradient id="paint18_linear" x1="32" y1="60" x2="32" y2="4" gradientUnits="userSpaceOnUse">
<stop stop-color="#FD2E00"/>
<stop offset="1" stop-color="#FF9900"/>
</linearGradient>
</defs>
</svg>
