<svg width="24" height="24" viewBox="0 0 24 24" fill="none" xmlns="http://www.w3.org/2000/svg">
<path d="M2.83385 2.72838C3.30022 2.26201 3.93276 2 4.59231 2H19.5134C20.1729 2 20.8055 2.26201 21.2718 2.72838C21.7382 3.19475 22.0002 3.82729 22.0002 4.48684V19.4079C22.0002 20.0674 21.7382 20.7 21.2718 21.1664C20.8055 21.6327 20.1729 21.8947 19.5134 21.8947H4.59231C3.93276 21.8947 3.30022 21.6327 2.83385 21.1664C2.36747 20.7 2.10547 20.0674 2.10547 19.4079V19.0789C2.10547 18.8028 2.32933 18.5789 2.60547 18.5789H3.26336C3.53951 18.5789 3.76336 18.8028 3.76336 19.0789V19.4079C3.76336 19.6277 3.8507 19.8386 4.00616 19.9941C4.16161 20.1495 4.37246 20.2368 4.59231 20.2368H19.5134C19.7332 20.2368 19.9441 20.1495 20.0995 19.9941C20.255 19.8386 20.3423 19.6277 20.3423 19.4079V4.48684C20.3423 4.26699 20.255 4.05615 20.0995 3.90069C19.9441 3.74523 19.7332 3.65789 19.5134 3.65789H4.59231C4.37246 3.65789 4.16161 3.74523 4.00616 3.90069C3.8507 4.05615 3.76336 4.26699 3.76336 4.48684V5.57895C3.76336 5.85509 3.53951 6.07895 3.26336 6.07895H2.60547C2.32933 6.07895 2.10547 5.85509 2.10547 5.57895V4.48684C2.10547 3.82729 2.36747 3.19475 2.83385 2.72838Z" fill="url(#paint0_linear)" stroke="url(#paint1_linear)"/>
<path d="M7.8537 8.34733C8.00915 8.19187 8.22 8.10453 8.43985 8.10453H16.3083C16.5281 8.10453 16.739 8.19187 16.8944 8.34733C17.0499 8.50278 17.1372 8.71363 17.1372 8.93348C17.1372 9.15333 17.0499 9.36418 16.8944 9.51963C16.739 9.67509 16.5281 9.76243 16.3083 9.76243H8.43985C8.22 9.76243 8.00915 9.67509 7.8537 9.51963C7.69824 9.36418 7.6109 9.15333 7.6109 8.93348C7.6109 8.71363 7.69824 8.50278 7.8537 8.34733Z" fill="url(#paint2_linear)"/>
<path d="M7.8537 14.4263C7.69824 14.5817 7.6109 14.7926 7.6109 15.0124C7.6109 15.2323 7.69824 15.4431 7.8537 15.5986C8.00915 15.754 8.22 15.8414 8.43985 15.8414H16.3083C16.5281 15.8414 16.739 15.754 16.8944 15.5986C17.0499 15.4431 17.1372 15.2323 17.1372 15.0124C17.1372 14.7926 17.0499 14.5817 16.8944 14.4263C16.739 14.2708 16.5281 14.1835 16.3083 14.1835H8.43985C8.22 14.1835 8.00915 14.2708 7.8537 14.4263Z" fill="url(#paint3_linear)"/>
<path d="M5.95228 7.82822C5.95228 7.60855 5.86508 7.39786 5.70985 7.24243C5.55442 7.08719 5.34373 7 5.12406 7C4.90439 7 4.6937 7.08719 4.53827 7.24243L2.91353 8.86716L2.39406 8.34769C2.23692 8.20127 2.02908 8.12155 1.81432 8.12534C1.59957 8.12913 1.39467 8.21613 1.24279 8.368C1.09092 8.51988 1.00392 8.72478 1.00013 8.93954C0.99634 9.15429 1.07605 9.36213 1.22248 9.51927L2.32774 10.6245C2.48317 10.7798 2.69386 10.867 2.91353 10.867C3.1332 10.867 3.34389 10.7798 3.49932 10.6245L5.70985 8.41401C5.86508 8.25858 5.95228 8.04789 5.95228 7.82822Z" fill="url(#paint4_linear)"/>
<path d="M5.90192 14.2239C5.85662 14.3255 5.79129 14.4171 5.70985 14.493L3.49932 16.7035C3.34389 16.8587 3.1332 16.9459 2.91353 16.9459C2.69386 16.9459 2.48317 16.8587 2.32774 16.7035L1.22248 15.5982C1.07605 15.4411 0.99634 15.2332 1.00013 15.0185C1.00392 14.8037 1.09092 14.5988 1.24279 14.447C1.39467 14.2951 1.59957 14.2081 1.81432 14.2043C2.02908 14.2005 2.23692 14.2802 2.39406 14.4266L2.91353 14.9461L4.53827 13.3214C4.61416 13.2399 4.70568 13.1746 4.80736 13.1293C4.90904 13.084 5.01881 13.0596 5.13011 13.0577C5.24142 13.0557 5.35198 13.0762 5.45519 13.1179C5.55841 13.1596 5.65218 13.2216 5.73089 13.3003C5.80961 13.379 5.87166 13.4728 5.91335 13.576C5.95505 13.6792 5.97552 13.7898 5.97356 13.9011C5.97159 14.0124 5.94723 14.1222 5.90192 14.2239Z" fill="url(#paint5_linear)"/>
<defs>
<linearGradient id="paint0_linear" x1="2.10838" y1="11.6526" x2="22.0035" y2="11.6526" gradientUnits="userSpaceOnUse">
<stop stop-color="#A93AFF"/>
<stop offset="1" stop-color="#FF81FF"/>
</linearGradient>
<linearGradient id="paint1_linear" x1="2.10838" y1="11.6526" x2="22.0035" y2="11.6526" gradientUnits="userSpaceOnUse">
<stop stop-color="#A93AFF"/>
<stop offset="1" stop-color="#FF81FF"/>
</linearGradient>
<linearGradient id="paint2_linear" x1="9.06861" y1="16.9459" x2="9.06861" y2="7" gradientUnits="userSpaceOnUse">
<stop stop-color="#5570FF"/>
<stop offset="1" stop-color="#4DD3FF"/>
</linearGradient>
<linearGradient id="paint3_linear" x1="9.06861" y1="16.9459" x2="9.06861" y2="7" gradientUnits="userSpaceOnUse">
<stop stop-color="#5570FF"/>
<stop offset="1" stop-color="#4DD3FF"/>
</linearGradient>
<linearGradient id="paint4_linear" x1="9.06861" y1="16.9459" x2="9.06861" y2="7" gradientUnits="userSpaceOnUse">
<stop stop-color="#5570FF"/>
<stop offset="1" stop-color="#4DD3FF"/>
</linearGradient>
<linearGradient id="paint5_linear" x1="9.06861" y1="16.9459" x2="9.06861" y2="7" gradientUnits="userSpaceOnUse">
<stop stop-color="#5570FF"/>
<stop offset="1" stop-color="#4DD3FF"/>
</linearGradient>
</defs>
</svg>
