<svg width="192" height="192" viewBox="0 0 192 192" fill="none" xmlns="http://www.w3.org/2000/svg">
<path d="M134.93 18.5829C118.89 10.3315 100.217 7.33605 82.3538 9.87931C48.0737 14.3668 18.1797 41.1784 10.3189 74.5912C9.11127 78.5813 12.6771 82.8992 16.8582 82.5036C20.1392 82.5149 22.5772 79.7343 23.1241 76.705C28.8545 54.5277 45.7496 35.6284 67.179 27.2187C84.9627 20.0524 105.572 20.1315 123.287 27.49C139.601 34.1703 153.307 46.864 161.179 62.5418C167.786 75.5859 170.373 90.6081 168.447 105.088C166.442 121.082 158.832 136.274 147.314 147.622C134.27 160.644 116.167 168.489 97.6882 169.144C82.1944 169.777 66.541 165.437 53.6788 156.835C39.0394 147.125 27.9659 132.171 23.3861 115.283C23.2953 114.977 23.2081 114.664 23.12 114.346C22.534 112.237 21.9044 109.97 19.8544 108.841C16.8582 106.817 12.2898 107.981 10.6834 111.226C9.41633 113.593 10.1706 116.25 10.8685 118.708C10.9737 119.079 11.0777 119.445 11.1733 119.805C17.1658 140.411 31.2697 158.53 49.7826 169.596C65.0714 178.842 83.3108 183.149 101.163 181.781C120.245 180.583 138.781 172.716 152.976 160.034C165.086 149.329 174.098 135.211 178.587 119.76C184.465 99.7978 182.825 77.7449 173.95 58.9021C165.907 41.6645 151.951 27.2639 134.93 18.5829Z" fill="url(#paint0_linear_637_185)"/>
<path d="M87.5717 31.3782C65.0487 33.5823 44.4965 48.6045 35.4623 69.1541C35.264 69.6442 35.0424 70.1448 34.817 70.6536C33.6444 73.3019 32.3733 76.1724 33.7876 78.9315C35.3597 82.6616 40.7484 83.645 43.7674 81.0905C44.9103 80.1778 45.4697 78.8291 46.0141 77.5165C46.1372 77.2197 46.2596 76.9246 46.3877 76.6369C51.8219 62.6207 63.8069 51.1704 78.2412 46.5812C80.1552 45.6656 81.9666 47.7455 81.5906 49.5879C81.659 80.197 81.6362 110.806 81.6134 141.415V141.416C81.978 143.224 80.2349 145.475 78.2982 144.537C62.8385 139.699 50.4776 126.96 45.3054 111.813C43.7219 106.987 36.1914 106.489 33.8445 110.92C31.9867 113.859 33.4019 117.124 34.6758 120.062C34.8862 120.548 35.0928 121.024 35.28 121.489C44.3598 142.525 65.5385 157.988 88.6084 159.706C91.673 159.57 94.4186 156.846 94.5098 153.783C94.6334 146.956 94.61 140.124 94.5866 133.29V133.289C94.5604 125.629 94.5342 117.968 94.7148 110.31C103.419 110.547 110.995 102.33 110.072 93.7616C109.753 85.8379 102.484 79.3837 94.6009 79.2932C94.5849 72.8803 94.589 66.4699 94.593 60.0609V60.0528C94.5977 52.8408 94.6023 45.6306 94.5781 38.4202C95.0224 34.5883 91.5021 30.8469 87.5717 31.3782Z" fill="url(#paint1_linear_637_185)"/>
<path d="M103.669 32.9158C105.287 32.0003 107.246 32.0003 109.001 32.4524C122.604 35.4139 135.124 42.8967 144.204 53.3524C156.747 67.6625 162.352 87.6469 159.037 106.331C154.958 132.374 133.096 154.721 106.791 158.903C101.983 159.197 98.6337 153.285 101.186 149.307C102.375 146.927 104.968 146.294 107.398 145.699C107.946 145.565 108.487 145.433 109.001 145.283C125.794 140.829 139.59 127.231 144.614 110.762C149.387 95.9662 146.71 79.1693 137.858 66.4078C130.396 55.4435 118.571 47.6555 105.549 44.8748C99.7502 44.1062 98.4287 35.4252 103.669 32.9158Z" fill="url(#paint2_linear_637_185)"/>
<path d="M112.285 57.0272C109.904 55.9338 107.353 54.7625 104.752 55.6579C99.8189 56.9691 98.7366 64.3389 103.054 67.0065C103.388 67.1604 103.723 67.3137 104.058 67.4673C108.256 69.3902 112.537 71.3509 115.723 74.7946C123.321 82.1757 126.363 93.8182 123.185 103.912C120.633 112.571 113.831 119.816 105.321 122.981C102.701 123.784 100.422 126.022 100.354 128.87C99.8758 132.883 104.011 136.59 107.976 135.596C126.204 130.283 138.929 111.35 137.277 92.6087C136.411 77.8239 126.978 63.9546 113.512 57.5795C113.109 57.4053 112.7 57.2174 112.285 57.0272Z" fill="url(#paint3_linear_637_185)"/>
<path d="M134.93 18.5829C118.89 10.3315 100.217 7.33605 82.3538 9.87931C48.0737 14.3668 18.1797 41.1784 10.3189 74.5912C9.11127 78.5813 12.6771 82.8992 16.8582 82.5036C20.1392 82.5149 22.5772 79.7343 23.1241 76.705C28.8545 54.5277 45.7496 35.6284 67.179 27.2187C84.9627 20.0524 105.572 20.1315 123.287 27.49C139.601 34.1703 153.307 46.864 161.179 62.5418C167.786 75.5859 170.373 90.6081 168.447 105.088C166.442 121.082 158.832 136.274 147.314 147.622C134.27 160.644 116.167 168.489 97.6882 169.144C82.1944 169.777 66.541 165.437 53.6788 156.835C39.0394 147.125 27.9659 132.171 23.3861 115.283C23.2953 114.977 23.2081 114.664 23.12 114.346C22.534 112.237 21.9044 109.97 19.8544 108.841C16.8582 106.817 12.2898 107.981 10.6834 111.226C9.41633 113.593 10.1706 116.25 10.8685 118.708C10.9737 119.079 11.0777 119.445 11.1733 119.805C17.1658 140.411 31.2697 158.53 49.7826 169.596C65.0714 178.842 83.3108 183.149 101.163 181.781C120.245 180.583 138.781 172.716 152.976 160.034C165.086 149.329 174.098 135.211 178.587 119.76C184.465 99.7978 182.825 77.7449 173.95 58.9021C165.907 41.6645 151.951 27.2639 134.93 18.5829Z" stroke="url(#paint4_linear_637_185)" stroke-width="2"/>
<path d="M87.5717 31.3782C65.0487 33.5823 44.4965 48.6045 35.4623 69.1541C35.264 69.6442 35.0424 70.1448 34.817 70.6536C33.6444 73.3019 32.3733 76.1724 33.7876 78.9315C35.3597 82.6616 40.7484 83.645 43.7674 81.0905C44.9103 80.1778 45.4697 78.8291 46.0141 77.5165C46.1372 77.2197 46.2596 76.9246 46.3877 76.6369C51.8219 62.6207 63.8069 51.1704 78.2412 46.5812C80.1552 45.6656 81.9666 47.7455 81.5906 49.5879C81.659 80.197 81.6362 110.806 81.6134 141.415V141.416C81.978 143.224 80.2349 145.475 78.2982 144.537C62.8385 139.699 50.4776 126.96 45.3054 111.813C43.7219 106.987 36.1914 106.489 33.8445 110.92C31.9867 113.859 33.4019 117.124 34.6758 120.062C34.8862 120.548 35.0928 121.024 35.28 121.489C44.3598 142.525 65.5385 157.988 88.6084 159.706C91.673 159.57 94.4186 156.846 94.5098 153.783C94.6334 146.956 94.61 140.124 94.5866 133.29V133.289C94.5604 125.629 94.5342 117.968 94.7148 110.31C103.419 110.547 110.995 102.33 110.072 93.7616C109.753 85.8379 102.484 79.3837 94.6009 79.2932C94.5849 72.8803 94.589 66.4699 94.593 60.0609V60.0528C94.5977 52.8408 94.6023 45.6306 94.5781 38.4202C95.0224 34.5883 91.5021 30.8469 87.5717 31.3782Z" stroke="url(#paint5_linear_637_185)" stroke-width="2"/>
<path d="M103.669 32.9158C105.287 32.0003 107.246 32.0003 109.001 32.4524C122.604 35.4139 135.124 42.8967 144.204 53.3524C156.747 67.6625 162.352 87.6469 159.037 106.331C154.958 132.374 133.096 154.721 106.791 158.903C101.983 159.197 98.6337 153.285 101.186 149.307C102.375 146.927 104.968 146.294 107.398 145.699C107.946 145.565 108.487 145.433 109.001 145.283C125.794 140.829 139.59 127.231 144.614 110.762C149.387 95.9662 146.71 79.1693 137.858 66.4078C130.396 55.4435 118.571 47.6555 105.549 44.8748C99.7502 44.1062 98.4287 35.4252 103.669 32.9158Z" stroke="url(#paint6_linear_637_185)" stroke-width="2"/>
<path d="M112.285 57.0272C109.904 55.9338 107.353 54.7625 104.752 55.6579C99.8189 56.9691 98.7366 64.3389 103.054 67.0065C103.388 67.1604 103.723 67.3137 104.058 67.4673C108.256 69.3902 112.537 71.3509 115.723 74.7946C123.321 82.1757 126.363 93.8182 123.185 103.912C120.633 112.571 113.831 119.816 105.321 122.981C102.701 123.784 100.422 126.022 100.354 128.87C99.8758 132.883 104.011 136.59 107.976 135.596C126.204 130.283 138.929 111.35 137.277 92.6087C136.411 77.8239 126.978 63.9546 113.512 57.5795C113.109 57.4053 112.7 57.2174 112.285 57.0272Z" stroke="url(#paint7_linear_637_185)" stroke-width="2"/>
<defs>
<linearGradient id="paint0_linear_637_185" x1="118.869" y1="135.759" x2="118.869" y2="55.3404" gradientUnits="userSpaceOnUse">
<stop stop-color="#A93AFF"/>
<stop offset="1" stop-color="#FF81FF"/>
</linearGradient>
<linearGradient id="paint1_linear_637_185" x1="118.869" y1="135.759" x2="118.869" y2="55.3404" gradientUnits="userSpaceOnUse">
<stop stop-color="#A93AFF"/>
<stop offset="1" stop-color="#FF81FF"/>
</linearGradient>
<linearGradient id="paint2_linear_637_185" x1="118.869" y1="135.759" x2="118.869" y2="55.3404" gradientUnits="userSpaceOnUse">
<stop stop-color="#A93AFF"/>
<stop offset="1" stop-color="#FF81FF"/>
</linearGradient>
<linearGradient id="paint3_linear_637_185" x1="118.869" y1="135.759" x2="118.869" y2="55.3404" gradientUnits="userSpaceOnUse">
<stop stop-color="#A93AFF"/>
<stop offset="1" stop-color="#FF81FF"/>
</linearGradient>
<linearGradient id="paint4_linear_637_185" x1="118.869" y1="135.759" x2="118.869" y2="55.3404" gradientUnits="userSpaceOnUse">
<stop stop-color="#A93AFF"/>
<stop offset="1" stop-color="#FF81FF"/>
</linearGradient>
<linearGradient id="paint5_linear_637_185" x1="118.869" y1="135.759" x2="118.869" y2="55.3404" gradientUnits="userSpaceOnUse">
<stop stop-color="#A93AFF"/>
<stop offset="1" stop-color="#FF81FF"/>
</linearGradient>
<linearGradient id="paint6_linear_637_185" x1="118.869" y1="135.759" x2="118.869" y2="55.3404" gradientUnits="userSpaceOnUse">
<stop stop-color="#A93AFF"/>
<stop offset="1" stop-color="#FF81FF"/>
</linearGradient>
<linearGradient id="paint7_linear_637_185" x1="118.869" y1="135.759" x2="118.869" y2="55.3404" gradientUnits="userSpaceOnUse">
<stop stop-color="#A93AFF"/>
<stop offset="1" stop-color="#FF81FF"/>
</linearGradient>
</defs>
</svg>
