<svg width="128" height="128" viewBox="0 0 128 128" fill="none" xmlns="http://www.w3.org/2000/svg">
<path d="M52.032 74.3747L52.2503 73.9815L52.033 74.3752C53.2263 75.0337 54.71 75.0225 55.9105 74.2705L82.8869 57.4102C84.0028 56.7123 84.6822 55.4881 84.6822 54.1705C84.6822 52.853 84.0029 51.6288 82.887 50.9309L55.9114 34.0712C55.9115 34.0712 55.9113 34.0712 55.9114 34.0712C54.7317 33.3285 53.2356 33.2941 52.032 33.9664C50.816 34.6415 50.062 35.9215 50.062 37.3101V71.031C50.062 72.4196 50.816 73.6995 52.032 74.3747ZM23.5349 88.3411H33.2016V91.2636C33.2016 93.3758 34.9111 95.0853 37.0233 95.0853C39.1354 95.0853 40.845 93.3758 40.845 91.2636V88.3411H104.465C106.577 88.3411 108.287 86.6316 108.287 84.5194C108.287 82.4072 106.577 80.6977 104.465 80.6977H40.845V77.7752C40.845 75.663 39.1354 73.9535 37.0233 73.9535C34.9111 73.9535 33.2016 75.663 33.2016 77.7752V80.6977H23.5349C21.4227 80.6977 19.7132 82.4072 19.7132 84.5194C19.7132 86.6316 21.4227 88.3411 23.5349 88.3411ZM57.7054 64.1343V44.2068L73.6499 54.1705L57.7054 64.1343ZM118.178 20H9.82171C7.70953 20 6 21.7095 6 23.8217V104.752C6 106.864 7.70953 108.574 9.82171 108.574H118.178C120.291 108.574 122 106.864 122 104.752V23.8217C122 21.7095 120.291 20 118.178 20ZM114.357 100.93H13.6434V27.6434H114.357V100.93Z" fill="url(#paint0_linear_641_163)"/>
<path d="M55.9114 34.0712L82.887 50.9309C84.0029 51.6288 84.6822 52.853 84.6822 54.1705C84.6822 55.4881 84.0028 56.7123 82.8869 57.4102L55.9105 74.2705C54.71 75.0225 53.2263 75.0337 52.033 74.3752L52.2503 73.9815L52.032 74.3747C50.816 73.6995 50.062 72.4196 50.062 71.031V37.3101C50.062 35.9215 50.816 34.6415 52.032 33.9664C53.2356 33.2941 54.7317 33.3285 55.9114 34.0712ZM55.9114 34.0712C55.9113 34.0712 55.9115 34.0712 55.9114 34.0712ZM23.5349 88.3411H33.2016V91.2636C33.2016 93.3758 34.9111 95.0853 37.0233 95.0853C39.1354 95.0853 40.845 93.3758 40.845 91.2636V88.3411H104.465C106.577 88.3411 108.287 86.6316 108.287 84.5194C108.287 82.4072 106.577 80.6977 104.465 80.6977H40.845V77.7752C40.845 75.663 39.1354 73.9535 37.0233 73.9535C34.9111 73.9535 33.2016 75.663 33.2016 77.7752V80.6977H23.5349C21.4227 80.6977 19.7132 82.4072 19.7132 84.5194C19.7132 86.6316 21.4227 88.3411 23.5349 88.3411ZM57.7054 64.1343V44.2068L73.6499 54.1705L57.7054 64.1343ZM118.178 20H9.82171C7.70953 20 6 21.7095 6 23.8217V104.752C6 106.864 7.70953 108.574 9.82171 108.574H118.178C120.291 108.574 122 106.864 122 104.752V23.8217C122 21.7095 120.291 20 118.178 20ZM114.357 100.93H13.6434V27.6434H114.357V100.93Z" stroke="url(#paint1_linear_641_163)" stroke-width="3"/>
<defs>
<linearGradient id="paint0_linear_641_163" x1="14.2857" y1="64.2868" x2="107.617" y2="50.7796" gradientUnits="userSpaceOnUse">
<stop stop-color="#8D01A2"/>
<stop offset="1" stop-color="#FF00D2"/>
</linearGradient>
<linearGradient id="paint1_linear_641_163" x1="14.2857" y1="64.2868" x2="107.617" y2="50.7796" gradientUnits="userSpaceOnUse">
<stop stop-color="#8D01A2"/>
<stop offset="1" stop-color="#FF00D2"/>
</linearGradient>
</defs>
</svg>
