<svg width="64" height="64" viewBox="0 0 64 64" fill="none" xmlns="http://www.w3.org/2000/svg">
<path d="M24.5591 6.64287C24.4434 5.37691 25.419 4.05773 26.7649 4.03492C30.1237 3.97029 33.4864 4.01591 36.8452 4.01211C38.1564 3.89806 39.4097 4.98914 39.3943 6.29692C39.4482 13.2122 39.4058 20.1275 39.4135 27.0465C42.2711 27.0845 45.1324 27.0161 47.9938 27.0731C49.6829 26.9971 50.593 29.2933 49.3782 30.411C44.1491 36.1896 38.8852 41.9339 33.6407 47.7011C32.8501 48.7732 31.1186 48.7731 30.3281 47.6973C25.0874 41.9339 19.8235 36.1896 14.5982 30.4148C13.3835 29.2971 14.2859 27.0009 15.9788 27.0731C18.8402 27.0161 21.7015 27.0883 24.5629 27.0427C24.5552 20.2415 24.5513 13.4441 24.5591 6.64287ZM28.801 9.70323C28.7817 16.8808 28.801 24.0546 28.7933 31.2284C26.3484 31.2588 23.9035 31.179 21.4624 31.2816C21.8095 32.3537 22.7427 33.0608 23.4523 33.8934C26.3445 36.9651 29.0285 40.2346 32.0596 43.1733C35.5727 39.3374 39.0665 35.4825 42.5719 31.6428C42.1939 31.1637 41.5923 31.236 41.0563 31.2246C39.0973 31.2322 37.1383 31.2398 35.1793 31.2284C35.1677 24.0508 35.1909 16.8732 35.1716 9.69563C35.2487 9.01513 34.8554 8.23198 34.0841 8.20156C32.692 8.11032 31.2844 8.11032 29.8923 8.20156C29.1133 8.22818 28.7161 9.01893 28.801 9.70323Z" fill="url(#paint0_linear)"/>
<path d="M13.0326 39.4704C13.9696 38.1398 15.8091 38.6873 17.1897 38.6188C18.8054 38.5314 19.8659 40.5957 18.8826 41.8465C18.2347 42.8805 16.8966 42.7361 15.8438 42.7323C13.7691 45.0969 11.8448 47.587 9.80098 49.9783C22.1373 50.1151 34.4775 50.0011 46.8138 50.0391C49.3898 50.0201 51.9697 50.0885 54.5457 49.9783C52.4748 47.5946 50.5043 45.1235 48.4527 42.7247C47.1609 42.622 45.5181 43.1276 44.5579 42.0061C43.5552 40.9379 44.1684 38.9876 45.6106 38.6759C47.049 38.5428 48.5067 38.5618 49.949 38.6493C50.6392 38.6835 51.0557 39.2955 51.4761 39.7556C54.187 43.0326 56.9134 46.3021 59.6437 49.5639C60.0101 50.0087 60.3726 50.5105 60.3301 51.1188C60.3648 53.6811 60.3571 56.2397 60.334 58.7982C60.4304 59.8475 59.4817 60.7713 58.4213 60.6724C41.064 60.7028 23.703 60.6724 6.34573 60.6876C5.33152 60.8207 4.10522 60.2732 4.05123 59.1517C3.96253 56.4678 4.01267 53.78 4.02809 51.096C3.97796 50.3927 4.47542 49.8528 4.88419 49.3434C7.61831 46.0663 10.31 42.7513 13.0326 39.4704ZM8.21989 54.2286C8.22375 55.0003 8.22761 55.772 8.23146 56.5438C24.1966 56.5514 40.1655 56.5476 56.1306 56.5438C56.1345 55.772 56.1345 55.0003 56.1345 54.2286C40.1617 54.202 24.1927 54.2172 8.21989 54.2286Z" fill="url(#paint1_linear)"/>
<defs>
<linearGradient id="paint0_linear" x1="14.0384" y1="26.2523" x2="49.9358" y2="26.2523" gradientUnits="userSpaceOnUse">
<stop stop-color="#FF823B"/>
<stop offset="0.986957" stop-color="#FF005B"/>
</linearGradient>
<linearGradient id="paint1_linear" x1="32.1769" y1="38.5638" x2="32.1769" y2="60.7072" gradientUnits="userSpaceOnUse">
<stop stop-color="#F75050"/>
<stop offset="1" stop-color="#A00909"/>
</linearGradient>
</defs>
</svg>
