<svg width="64" height="64" viewBox="0 0 64 64" fill="none" xmlns="http://www.w3.org/2000/svg">
<path fill-rule="evenodd" clip-rule="evenodd" d="M55 53C55 54.1046 54.1046 55 53 55H11C9.89543 55 9 54.1046 9 53V11C9 9.89543 9.89543 9 11 9H53C54.1046 9 55 9.89543 55 11V53ZM55.4 61C58.4928 61 61 58.4928 61 55.4V8.6C61 5.50721 58.4928 3 55.4 3H8.6C5.50721 3 3 5.50721 3 8.6V55.4C3 58.4928 5.50721 61 8.6 61H55.4ZM25.4211 12H15.5789C13.6023 12 12 13.6023 12 15.5789V42.4211C12 44.3977 13.6023 46 15.5789 46H25.4211C27.3977 46 29 44.3977 29 42.4211V15.5789C29 13.6023 27.3977 12 25.4211 12ZM38.2 12H47.8C49.5673 12 51 13.4327 51 15.2V24.8C51 26.5673 49.5673 28 47.8 28H38.2C36.4327 28 35 26.5673 35 24.8V15.2C35 13.4327 36.4327 12 38.2 12Z" fill="url(#paint0_linear)"/>
<defs>
<linearGradient id="paint0_linear" x1="32" y1="61" x2="32" y2="3" gradientUnits="userSpaceOnUse">
<stop stop-color="#5570FF"/>
<stop offset="1" stop-color="#4DD3FF"/>
</linearGradient>
</defs>
</svg>
