<svg width="64" height="64" viewBox="0 0 64 64" fill="none" xmlns="http://www.w3.org/2000/svg">
<path d="M6.99164 9C5.33416 9 4 10.321 4 11.9616V47.0712C4 48.712 5.33425 49.9253 6.99164 49.9253H25.092C25.3776 49.9253 25.6516 50.0388 25.8536 50.2407L31.2385 55.6256C31.659 56.0462 32.341 56.0462 32.7615 55.6256L38.1464 50.2407C38.3485 50.0388 38.6224 49.9253 38.908 49.9253H57.0103C58.6667 49.9253 60 48.7126 60 47.0712V11.9616C60 10.321 58.6667 9 57.0081 9H6.99164Z" stroke="url(#paint0_linear_677_26)" stroke-width="5"/>
<path d="M49.2315 18.7704C47.9634 19.3328 46.6008 19.7129 45.1704 19.8838C46.6302 19.0086 47.7513 17.623 48.2792 15.972C46.9131 16.7823 45.3998 17.3707 43.7892 17.6879C42.4994 16.3138 40.6619 15.4551 38.6281 15.4551C34.7233 15.4551 31.5573 18.6208 31.5573 22.5255C31.5573 23.0797 31.62 23.6194 31.7405 24.1368C25.8641 23.842 20.6542 21.0271 17.1668 16.7493C16.5582 17.7937 16.2096 19.008 16.2096 20.304C16.2096 22.757 17.4578 24.9212 19.355 26.1891C18.196 26.1524 17.1058 25.8343 16.1525 25.3048C16.152 25.3343 16.1518 25.3638 16.1518 25.3936C16.1518 28.8195 18.5891 31.6772 21.8237 32.3266C21.2304 32.4882 20.6057 32.5746 19.961 32.5746C19.5053 32.5746 19.0623 32.5303 18.6307 32.4477C19.5304 35.257 22.1417 37.301 25.2356 37.3581C22.8158 39.2545 19.7671 40.3849 16.4543 40.3849C15.8836 40.3849 15.3207 40.3515 14.7676 40.2862C17.8988 42.2938 21.615 43.4633 25.6085 43.4633C38.6139 43.4633 45.7257 32.6894 45.7257 23.3459C45.7257 23.0394 45.7188 22.7344 45.7052 22.4312C47.0866 21.4344 48.2855 20.189 49.2334 18.771" fill="url(#paint1_linear_677_26)"/>
<defs>
<linearGradient id="paint0_linear_677_26" x1="32" y1="56.3871" x2="32" y2="9" gradientUnits="userSpaceOnUse">
<stop stop-color="#5570FF"/>
<stop offset="1" stop-color="#4DD3FF"/>
</linearGradient>
<linearGradient id="paint1_linear_677_26" x1="32.0005" y1="43.4633" x2="32.0005" y2="15.4551" gradientUnits="userSpaceOnUse">
<stop stop-color="#5570FF"/>
<stop offset="1" stop-color="#4DD3FF"/>
</linearGradient>
</defs>
</svg>
