<svg width="192" height="192" viewBox="0 0 192 192" fill="none" xmlns="http://www.w3.org/2000/svg">
<path d="M88.6068 15.6163L88.6069 15.5697L88.6026 15.5232C88.5473 14.9198 88.5378 14.2739 88.5274 13.5684C88.5263 13.4953 88.5252 13.4215 88.5241 13.3471C88.5122 12.5738 88.4934 11.7393 88.394 10.9228C88.1955 9.29211 87.6565 7.5776 86.0538 6.36982C83.3598 4.08652 79.3539 4.89255 77.3077 7.45731C68.1073 16.8035 58.8812 26.1279 49.6542 35.4532C36.3057 48.944 22.9553 62.4367 9.67828 75.9998L9.67823 75.9997L9.66959 76.0088C0.609158 85.499 0.774011 102.036 10.2007 111.23C32.9179 134.265 55.6567 157.29 78.448 180.251L78.454 180.257C87.7807 189.497 103.983 189.55 113.235 180.144C136.154 156.989 159.042 133.792 181.918 110.584L181.927 110.575C190.945 101.194 190.68 84.7964 181.507 75.6325C158.981 52.7809 136.413 29.9721 113.846 7.16397C112.073 4.87065 109.188 4.57576 106.925 5.46938C104.654 6.36643 102.744 8.56411 103.023 11.5003C102.987 24.2457 102.993 36.9992 102.998 49.7522C103.001 59.3173 103.005 68.8822 102.992 78.4433C102.709 82.8057 104.996 87.1731 108.85 89.2537C110.311 90.1608 111.896 90.4991 113.43 90.6251C114.262 90.6935 115.129 90.7005 115.966 90.6956C112.172 96.0436 108.349 101.356 104.524 106.671C101.623 110.702 98.7211 114.735 95.8295 118.787C88.9712 109.563 82.1421 100.287 75.7452 90.7433C79.1869 90.7254 82.9341 90.0069 85.5096 87.0703C87.524 84.9311 88.2578 82.3027 88.4866 79.6805C88.6547 77.7531 88.5526 75.729 88.4585 73.8615C88.4268 73.233 88.396 72.6223 88.3768 72.0389C88.6042 57.9303 88.6022 43.8249 88.6003 29.7215C88.5996 25.0196 88.599 20.3178 88.6068 15.6163ZM18.1169 89.5501L18.1188 89.5449C18.6761 87.9877 19.6546 86.6751 20.8407 85.4009C21.4344 84.7631 22.0666 84.1487 22.7177 83.5166L22.7349 83.4999C23.3711 82.8823 24.0258 82.2467 24.6423 81.5852C30.8069 75.3131 37.0031 69.064 43.2011 62.8131C53.4514 52.4752 63.7065 42.1325 73.8312 31.6735C73.9632 40.6541 73.9482 49.6243 73.9332 58.6039C73.9234 64.4024 73.9137 70.2049 73.9436 76.0167C72.7945 76.0357 71.6462 76.0035 70.4717 75.9706C69.6994 75.9489 68.9157 75.9269 68.113 75.919C65.799 75.8961 63.4156 75.9959 61.0679 76.628L61.0504 76.6327L61.033 76.638C58.2492 77.4971 56.4083 79.8162 55.6983 82.3911C54.9919 84.9531 55.3668 87.8979 57.1601 90.122C67.1092 104.089 77.1311 118.013 87.1731 131.904C89.083 134.753 92.3045 136.219 95.499 136.305C98.7 136.39 101.991 135.093 104.017 132.271C112.361 120.86 120.589 109.358 128.813 97.8601C130.732 95.1778 132.651 92.4958 134.57 89.8152C136.274 87.6003 136.537 84.7398 135.783 82.2654C135.027 79.7871 133.21 77.5642 130.588 76.6877L130.574 76.683L130.559 76.6787C128.181 75.9618 125.753 75.8801 123.414 75.915C122.788 75.9244 122.172 75.9417 121.565 75.9588C120.177 75.9978 118.83 76.0357 117.494 75.9746C117.51 67.6076 117.508 59.236 117.507 50.8672C117.506 44.4445 117.504 38.0235 117.511 31.6075C131.603 45.8564 145.683 60.1175 159.766 74.3815C163.423 78.0851 167.079 81.7888 170.736 85.4926L170.748 85.504L170.759 85.5149C173.822 88.4257 174.891 93.2925 173.305 97.2572L173.297 97.2773L173.289 97.2977C172.841 98.5751 172.069 99.6792 171.12 100.75C170.517 101.43 169.896 102.042 169.254 102.676C168.848 103.076 168.434 103.485 168.01 103.924C159.919 112.107 151.83 120.293 143.741 128.479C130.268 142.113 116.794 155.747 103.313 169.369L103.307 169.375L103.301 169.381C100.208 172.613 95.0606 173.448 91.0762 171.476L91.0676 171.471C89.3566 170.645 88.039 169.291 86.594 167.807C86.2524 167.456 85.9038 167.098 85.5411 166.737C73.9555 154.997 62.3589 143.267 50.7634 131.539C40.8279 121.489 30.8932 111.44 20.9669 101.387L20.9481 101.368L20.9282 101.349C17.764 98.4713 16.638 93.6122 18.1169 89.5501Z" fill="url(#paint0_linear)" stroke="url(#paint1_linear)" stroke-width="2"/>
<defs>
<linearGradient id="paint0_linear" x1="95.7705" y1="186.193" x2="95.7705" y2="6" gradientUnits="userSpaceOnUse">
<stop stop-color="#02AA93"/>
<stop offset="1" stop-color="#67FF80"/>
</linearGradient>
<linearGradient id="paint1_linear" x1="95.7705" y1="186.193" x2="95.7705" y2="6" gradientUnits="userSpaceOnUse">
<stop stop-color="#02AA93"/>
<stop offset="1" stop-color="#67FF80"/>
</linearGradient>
</defs>
</svg>
