<svg width="256" height="256" viewBox="0 0 256 256" fill="none" xmlns="http://www.w3.org/2000/svg">
<path d="M119.04 35.0133C135.6 21.4933 158.04 15.8799 179.066 19.3333C176.013 23.9999 172.826 28.5733 169.586 33.1199C170.933 33.5599 172.293 33.9999 173.666 34.4133C159.346 33.1199 144.506 36.3999 132.626 44.6533C123 51.1733 115.613 61.0266 112.52 72.2799C110.52 79.2133 110.293 86.4933 109.906 93.6533C109.186 106.947 109.52 120.28 110.626 133.56C109.44 132.16 108.2 130.827 106.946 129.493C103.786 133.893 100.72 138.36 97.7198 142.867C94.1064 134.893 94.1464 126 93.7464 117.427C93.3864 103.787 93.7864 90.0933 95.4931 76.5466C97.6931 60.3599 106.32 45.2399 119.04 35.0133Z" fill="#9B13FF"/>
<path d="M67.2127 92.2399C67.1327 87.2665 72.5727 83.3732 77.2661 85.0265C80.9061 85.9065 83.1327 89.6532 82.9727 93.2665C83.1194 100.853 82.9327 108.427 83.0794 116.013C83.2127 123.84 82.4661 131.853 84.7327 139.467C86.3994 145.813 90.0127 151.413 94.0261 156.52C91.8661 158.387 88.7727 159.507 87.6394 162.333C86.6794 165.547 87.1461 168.973 87.4394 172.267C75.2394 161.453 67.5727 145.587 67.2527 129.227C67.1861 116.893 66.9727 104.56 67.2127 92.2399Z" fill="#9B13FF"/>
<path d="M23.1465 158.92C27.3732 154.533 31.7198 150.24 36.2798 146.2C39.7598 164.36 49.5598 180.787 62.4132 193.893C58.1332 197.053 54.3732 200.827 51.2132 205.107C38.4131 192.187 28.3998 176.373 23.1465 158.92Z" fill="#9B13FF"/>
<path d="M179.066 19.3334C199.039 22.64 217.239 34.8934 227.586 52.3334C222.639 55.48 219.293 60.3067 216.679 65.44C213.186 58.8267 208.919 52.4934 203.159 47.6267C195.053 40.16 184.439 36.0934 173.666 34.4134C172.293 34 170.933 33.56 169.586 33.12C172.826 28.5734 176.013 24 179.066 19.3334Z" fill="#A71BFF"/>
<path d="M63.1196 28.4267C69.0396 26.0134 76.5196 27.8534 80.1062 33.2934C84.1462 39.1467 82.6529 46.64 83.0396 53.32C82.8262 57.8534 84.0929 63.5334 80.1196 66.84C76.1596 70.5467 68.8396 68.4267 67.5062 63.1734C66.6796 58.08 67.3062 52.8667 67.0129 47.72C66.9996 46.7334 66.9596 44.76 66.9329 43.7867C53.7329 50.64 42.3596 62 37.6529 76.3334C33.6262 87.7867 34.7862 100.093 34.6262 112C34.7996 122.36 34.0796 132.813 35.7596 143.08C35.8929 143.867 36.1462 145.413 36.2796 146.2C31.7196 150.24 27.3729 154.533 23.1462 158.92C16.9329 138.96 19.2796 117.867 18.8396 97.3067C18.2929 77.9467 25.3062 58.2267 39.3196 44.6267C46.1862 37.9067 54.0529 31.8534 63.1196 28.4267Z" fill="#8F0CFF"/>
<path d="M216.679 65.44C219.293 60.3067 222.639 55.48 227.586 52.3334C233.746 62.64 237.213 74.4534 237.666 86.44C238.093 98.9467 237.853 111.467 237.786 123.987C237.733 133.68 236.853 143.4 234.453 152.813C228.319 177.307 213.039 199.173 192.773 214.093C165.719 234.2 129.253 241.667 96.7461 232.107C98.4528 226.947 101.159 222.213 104.399 217.853C126.559 223.24 150.533 219.933 170.653 209.32C190.333 199.12 206.333 181.973 214.946 161.533C221.239 147.253 222.399 131.427 222.039 116C221.746 99.12 224.039 81.2534 216.679 65.44Z" fill="#B826FF"/>
<path d="M160.573 72.56C165.293 69.0534 171.333 66.52 177.28 67.8534C183 69.0934 187.48 74.0667 188.52 79.7734C188.733 96.7334 189.013 113.72 188.44 130.68C188.026 147.267 179.693 163.16 167.026 173.707C146.786 191.013 115.186 192.173 93.3862 177.053C91.2529 175.667 89.3062 173.987 87.4396 172.267C87.1462 168.973 86.6796 165.547 87.6396 162.333C88.7729 159.507 91.8662 158.387 94.0262 156.52C104.133 167.88 119.96 173.747 135.026 171.307C154.96 168.707 171.92 150.867 172.64 130.627C173.16 114.933 173.04 99.2267 172.68 83.52C172.213 83.8534 171.28 84.5067 170.813 84.8267C166.56 87.7467 163.173 92.16 162.346 97.3334C161.32 110 163.746 122.947 160.946 135.48C157.213 150.427 142.146 161.947 126.653 160.84C119.04 160.4 111.826 157.253 105.693 152.853C102.413 150.08 99.9596 146.493 97.7196 142.867C100.72 138.36 103.786 133.893 106.946 129.493C108.2 130.827 109.44 132.16 110.626 133.56C113.453 138.613 117.626 143.16 123.56 144.333C133.786 147.853 145.2 139.32 146.146 128.893C146.946 118.827 146.146 108.707 146.32 98.6267C146.76 88.36 152.48 78.72 160.573 72.56Z" fill="#AA1DFF"/>
<path d="M51.2129 205.107C54.3729 200.827 58.1329 197.053 62.4129 193.893C73.9596 205.427 88.5596 213.827 104.4 217.853C101.16 222.213 98.4529 226.947 96.7462 232.107C87.6929 229.56 79.0929 225.573 70.9862 220.827C63.7996 216.4 57.2396 211 51.2129 205.107Z" fill="#A81BFF"/>
</svg>
