<svg width="192" height="192" viewBox="0 0 192 192" fill="none" xmlns="http://www.w3.org/2000/svg">
<path d="M87.1219 18.9418L87.1277 18.9412C104.024 17.0455 121.537 20.7354 136.037 29.6351L136.039 29.6367C149.632 37.9234 160.666 50.4159 166.987 65.0423L166.989 65.0467C175.453 84.3753 175.484 107.215 167.133 126.587L167.132 126.59C160.552 141.964 148.813 155.046 134.292 163.341L134.288 163.344C119.941 171.623 102.863 174.95 86.4259 172.92L86.4208 172.919C70.0648 170.983 54.4259 163.549 42.5363 152.139L42.5308 152.134C30.3192 140.588 22.0092 124.96 19.4334 108.338L19.4324 108.331C16.3892 89.5332 20.4598 69.6274 30.9377 53.7204L30.9377 53.7205L30.9427 53.7127C43.3093 34.5569 64.438 21.3533 87.1219 18.9418ZM136.7 13.5165C119.431 4.90433 99.4255 2.05328 80.4251 5.30754C50.3371 10.2099 23.5848 31.254 11.615 59.2868C2.7439 79.4921 1.58992 102.932 8.32981 123.94C14.7533 144.312 28.5591 162.24 46.6195 173.642C75.7984 192.66 115.814 192.713 145.045 173.779C162.435 162.814 175.976 145.862 182.729 126.433C190.402 104.712 189.491 80.0937 180.163 59.0182C171.598 39.3781 155.927 22.9665 136.7 13.5165Z" fill="url(#paint0_linear)" stroke="url(#paint1_linear)" stroke-width="2"/>
<path d="M93.835 50.3774L93.778 50.3946L93.7234 50.4184C86.2067 53.7031 78.8444 57.4228 71.5152 61.1257C67.9331 62.9356 64.3588 64.7414 60.7784 66.4905C59.3425 67.0053 58.1569 68.2869 57.7239 69.6767C57.4985 70.4001 57.4588 71.2148 57.7658 71.9878C58.075 72.7663 58.6919 73.391 59.5709 73.8043C65.5565 77.0672 71.7027 80.1097 77.8273 83.1416C81.7072 85.0622 85.5783 86.9785 89.3944 88.9438C94.2923 91.832 100.737 92.1415 105.805 89.384C110.941 86.7951 116.075 84.2223 121.21 81.6483C125.837 79.329 130.467 77.0088 135.102 74.6749L135.114 74.6689L135.126 74.6626C135.194 74.6255 135.267 74.5868 135.344 74.5464C135.913 74.2442 136.662 73.847 137.267 73.3284C137.987 72.7114 138.627 71.8222 138.598 70.5725C138.574 69.1483 137.815 68.1629 136.959 67.4719C136.295 66.9361 135.481 66.5093 134.829 66.167C134.682 66.0898 134.543 66.0169 134.415 65.948L134.399 65.9391L134.382 65.9308C131.143 64.3311 127.904 62.7248 124.664 61.118C118.183 57.9037 111.699 54.6875 105.198 51.5193C101.738 49.7732 97.6181 49.2361 93.835 50.3774Z" fill="url(#paint2_linear)" stroke="url(#paint3_linear)" stroke-width="2"/>
<path d="M51.6934 77.155L51.6151 77.1748L51.5411 77.207C50.0276 77.8639 49.2588 79.1566 48.8712 80.4554C48.489 81.736 48.439 83.14 48.4337 84.2347H48.4337L48.4337 84.2419C48.4429 88.206 48.438 92.1804 48.4331 96.1579C48.4269 101.274 48.4206 106.396 48.4442 111.508C48.3911 116.426 50.8881 121.539 55.5276 123.829C61.2102 126.716 66.9464 129.544 72.6751 132.369C77.0503 134.526 81.4211 136.682 85.7604 138.859L85.7615 138.86C86.5931 139.276 87.5933 139.766 88.6476 140.039C89.7183 140.316 90.916 140.388 92.1201 139.899L92.1623 139.882L92.2028 139.861C93.5203 139.181 94.1632 138.01 94.4793 136.85C94.7884 135.716 94.8147 134.485 94.8302 133.534L94.8303 133.526L94.8303 133.517C94.8268 130.381 94.8291 127.243 94.8314 124.103C94.8361 117.824 94.8408 111.539 94.7989 105.261C94.9381 100.595 92.6045 95.7603 88.2469 93.5341L88.2458 93.5336C79.999 89.3324 71.6919 85.2434 63.389 81.1564C61.8581 80.4028 60.3273 79.6493 58.797 78.8951L58.766 78.8798L58.734 78.8667C58.3363 78.7039 57.9361 78.5176 57.5063 78.3176C57.4186 78.2767 57.3296 78.2353 57.2392 78.1934C56.7182 77.9521 56.1588 77.6994 55.5813 77.4906C54.4251 77.0728 53.1059 76.7968 51.6934 77.155Z" fill="url(#paint4_linear)" stroke="url(#paint5_linear)" stroke-width="2"/>
<path d="M98.8793 135.805L98.8796 135.817L98.8801 135.828C98.9531 137.488 99.8816 138.925 101.164 139.727C102.452 140.533 104.142 140.719 105.686 139.814C114.58 135.586 123.371 131.163 132.154 126.743C134.128 125.75 136.101 124.757 138.075 123.767C141.993 122.047 144.709 118.053 144.741 113.72C145.233 103.154 145.035 92.5629 144.826 82.0398C145.141 78.2499 141.002 75.4518 137.633 77.6065C128.899 81.7733 120.24 86.1041 111.594 90.4284C109.542 91.4548 107.49 92.4807 105.439 93.5041C100.943 95.6317 98.6557 100.597 98.7952 105.264C98.7906 107.487 98.7815 109.711 98.7724 111.938C98.7398 119.884 98.7072 127.85 98.8793 135.805Z" fill="url(#paint6_linear)" stroke="url(#paint7_linear)" stroke-width="2"/>
<defs>
<linearGradient id="paint0_linear" x1="5.02664" y1="93.2755" x2="186.918" y2="93.2755" gradientUnits="userSpaceOnUse">
<stop stop-color="#FF4910"/>
<stop offset="1" stop-color="#FF7A00"/>
</linearGradient>
<linearGradient id="paint1_linear" x1="5.02664" y1="93.2755" x2="186.918" y2="93.2755" gradientUnits="userSpaceOnUse">
<stop stop-color="#FF4910"/>
<stop offset="1" stop-color="#FF7A00"/>
</linearGradient>
<linearGradient id="paint2_linear" x1="58.5568" y1="69.9474" x2="137.612" y2="69.9474" gradientUnits="userSpaceOnUse">
<stop stop-color="#FF4910"/>
<stop offset="1" stop-color="#FF7A00"/>
</linearGradient>
<linearGradient id="paint3_linear" x1="58.5568" y1="69.9474" x2="137.612" y2="69.9474" gradientUnits="userSpaceOnUse">
<stop stop-color="#FF4910"/>
<stop offset="1" stop-color="#FF7A00"/>
</linearGradient>
<linearGradient id="paint4_linear" x1="49.4339" y1="107.716" x2="93.8418" y2="107.716" gradientUnits="userSpaceOnUse">
<stop stop-color="#FF4910"/>
<stop offset="1" stop-color="#FF7A00"/>
</linearGradient>
<linearGradient id="paint5_linear" x1="49.4339" y1="107.716" x2="93.8418" y2="107.716" gradientUnits="userSpaceOnUse">
<stop stop-color="#FF4910"/>
<stop offset="1" stop-color="#FF7A00"/>
</linearGradient>
<linearGradient id="paint6_linear" x1="99.7529" y1="107.728" x2="144.055" y2="107.728" gradientUnits="userSpaceOnUse">
<stop stop-color="#FF4910"/>
<stop offset="1" stop-color="#FF7A00"/>
</linearGradient>
<linearGradient id="paint7_linear" x1="99.7529" y1="107.728" x2="144.055" y2="107.728" gradientUnits="userSpaceOnUse">
<stop stop-color="#FF4910"/>
<stop offset="1" stop-color="#FF7A00"/>
</linearGradient>
</defs>
</svg>
