<svg width="128" height="128" viewBox="0 0 128 128" fill="none" xmlns="http://www.w3.org/2000/svg">
<path d="M63.9458 26.8583C63.1689 25.5636 61.2926 25.5636 60.5158 26.8583L52.0625 40.947C51.6626 41.6136 52.1427 42.4615 52.92 42.4615H57.5385C58.0907 42.4615 58.5385 42.9093 58.5385 43.4615V87.0018C55.6548 85.7871 52.6677 85.3255 49.8837 84.9231C46.6529 84.4615 43.7102 84 42.152 83.1914C40.6012 82.3865 40.0769 81.9951 40.0769 79.3846V70.9625C42.2849 69.6775 43.7692 67.344 43.7692 64.6154C43.7692 62.6569 42.9912 60.7786 41.6063 59.3937C40.2214 58.0088 38.3431 57.2308 36.3846 57.2308C34.4261 57.2308 32.5478 58.0088 31.1629 59.3937C29.778 60.7786 29 62.6569 29 64.6154C29 67.3403 30.4843 69.6775 32.6923 70.9625V79.3846C32.6923 84.1588 35.4025 87.9249 38.6923 89.6529C41.9785 91.3846 45.5009 91.8462 48.7317 92.3077C51.9625 92.7692 54.9052 93.2308 56.4634 94.0394C58.0178 94.8443 58.5385 95.2357 58.5385 97.8462V98.5366C54.2554 100.069 51.1538 104.119 51.1538 108.923C51.1538 111.861 52.3209 114.678 54.3982 116.756C56.4755 118.833 59.293 120 62.2308 120C65.1686 120 67.986 118.833 70.0633 116.756C72.1407 114.678 73.3077 111.861 73.3077 108.923C73.3077 104.123 70.2062 100.069 65.9231 98.5366C65.9518 98.3074 65.9518 98.0754 65.9231 97.8462V91.0375C65.9378 90.8529 65.9378 90.6498 65.9231 90.4615C65.9231 87.9951 66.6283 87.2751 68.6923 86.0751C70.7563 84.8788 74.2308 83.8855 77.9231 82.9625C81.6154 82.0394 85.5255 81.1902 89 79.152C92.4745 77.1212 95.4615 73.2258 95.4615 68.3077V62.7692C95.4615 61.7496 96.2881 60.9231 97.3077 60.9231V60.9231C98.3273 60.9231 99.1538 60.0965 99.1538 59.0769V48.1538C99.1538 47.0493 98.2584 46.1538 97.1538 46.1538H86.3846C85.28 46.1538 84.3846 47.0493 84.3846 48.1538V59.0769C84.3846 60.0965 85.2112 60.9231 86.2308 60.9231V60.9231C87.2504 60.9231 88.0769 61.7496 88.0769 62.7692V68.3077C88.0769 70.7742 87.3717 71.4942 85.3077 72.6942C83.2437 73.8905 79.7692 74.8837 76.0769 75.8068C72.7022 76.6449 69.1538 77.4794 65.9231 79.1557V43.4615C65.9231 42.9093 66.3708 42.4615 66.9231 42.4615H71.5415C72.3188 42.4615 72.7989 41.6136 72.399 40.947L63.9458 26.8583Z" fill="url(#paint0_linear)"/>
<path d="M41.25 109H24C20.6863 109 18 106.314 18 103V20C18 16.6863 20.6863 14 24 14H105C108.314 14 111 16.6863 111 20V103C111 106.314 108.314 109 105 109H87.75" stroke="url(#paint1_linear)" stroke-width="10" stroke-linecap="round" stroke-linejoin="round"/>
<defs>
<linearGradient id="paint0_linear" x1="64.0769" y1="120" x2="64.0769" y2="24" gradientUnits="userSpaceOnUse">
<stop stop-color="#5570FF"/>
<stop offset="1" stop-color="#4DD3FF"/>
</linearGradient>
<linearGradient id="paint1_linear" x1="64.5" y1="109" x2="64.5" y2="14" gradientUnits="userSpaceOnUse">
<stop stop-color="#5570FF"/>
<stop offset="1" stop-color="#4DD3FF"/>
</linearGradient>
</defs>
</svg>
