<svg width="128" height="128" viewBox="0 0 128 128" fill="none" xmlns="http://www.w3.org/2000/svg">
<path d="M63.9779 60.4213C73.5779 60.4213 81.0446 52.5991 81.0446 42.9991C81.0446 33.399 73.2223 25.9324 63.6223 25.9324C54.0223 25.9324 46.5557 33.7546 46.5557 42.9991C46.5557 52.5991 54.3779 60.4213 63.9779 60.4213ZM63.6223 33.0435C63.9779 33.0435 63.9779 33.0435 63.6223 33.0435C69.3112 33.0435 73.9334 37.6658 73.9334 43.3547C73.9334 49.0436 69.3112 53.3102 63.6223 53.3102C57.9334 53.3102 53.6668 48.688 53.6668 43.3547C53.6668 37.6658 58.289 33.0435 63.6223 33.0435Z" fill="url(#paint0_linear_619_13)"/>
<path d="M63.6223 33.0435C63.9779 33.0435 63.9779 33.0435 63.6223 33.0435ZM63.6223 33.0435C69.3112 33.0435 73.9334 37.6658 73.9334 43.3547C73.9334 49.0436 69.3112 53.3102 63.6223 53.3102C57.9334 53.3102 53.6668 48.688 53.6668 43.3547C53.6668 37.6658 58.289 33.0435 63.6223 33.0435ZM63.9779 60.4213C73.5779 60.4213 81.0446 52.5991 81.0446 42.9991C81.0446 33.399 73.2223 25.9324 63.6223 25.9324C54.0223 25.9324 46.5557 33.7546 46.5557 42.9991C46.5557 52.5991 54.3779 60.4213 63.9779 60.4213Z" stroke="url(#paint1_linear_619_13)" stroke-width="4"/>
<path d="M116.599 66.288C109.844 60.2435 100.955 57.0435 91.7105 57.3991H90.9294C89.7168 57.3991 88.6405 58.3471 88.2555 59.4971V59.4971C87.5257 61.6776 89.411 64.5102 91.7105 64.5102V64.5102C97.7769 64.1909 103.843 65.8786 108.88 69.0584C109.957 69.7386 110.555 70.9518 110.555 72.226V92.2435C110.555 94.2072 112.147 95.7991 114.11 95.7991V95.7991C116.074 95.7991 117.666 94.2072 117.666 92.2435V68.8631C117.666 67.8972 117.282 66.9709 116.599 66.288V66.288Z" fill="url(#paint2_linear_619_13)" stroke="url(#paint3_linear_619_13)" stroke-width="2"/>
<path d="M80.3748 25.2621C81.8903 26.4436 84.7265 26.2915 86.2649 25.1399C88.6074 23.3864 91.8379 22.8394 94.9112 24.0214C99.1779 25.7992 101.311 30.777 99.5334 35.3992C98.1112 38.599 94.9112 40.7324 91.7112 40.7324V40.7324C90.6794 40.7324 89.4689 41.8616 89.5276 42.8918C89.5779 43.7757 89.5779 44.6134 89.5779 45.3546V45.3546C89.5779 46.5328 90.4981 47.8241 91.6761 47.8432C91.6878 47.8434 91.6995 47.8435 91.7112 47.8435C100.6 47.8435 107.711 40.7324 107.711 32.1992C107.711 23.3103 100.6 16.1992 92.0668 16.1992C87.1709 16.1992 82.8018 18.3059 79.8658 22.066C79.0603 23.0976 79.3426 24.4574 80.3748 25.2621V25.2621Z" fill="url(#paint4_linear_619_13)" stroke="url(#paint5_linear_619_13)" stroke-width="2"/>
<path d="M36.9556 64.5101C39.2052 64.5101 41.0999 61.9287 40.3909 59.7938V59.7938C40.0213 58.6811 38.9775 57.7546 37.805 57.7546H36.9556C27.7111 57.399 18.8222 60.599 12.0667 66.2879V66.2879C11.3837 66.9709 11 67.8972 11 68.8631V92.2435C11 94.2072 12.5919 95.799 14.5556 95.799V95.799C16.5192 95.799 18.1111 94.2071 18.1111 92.2435V72.3031C18.1111 70.986 18.7518 69.7397 19.8777 69.0561C25.1122 65.8778 30.8906 64.1909 36.9556 64.5101V64.5101Z" fill="url(#paint6_linear_619_13)"/>
<path d="M36.9556 64.5101C39.2052 64.5101 41.0999 61.9287 40.3909 59.7938V59.7938C40.0213 58.6811 38.9775 57.7546 37.805 57.7546H36.9556C27.7111 57.399 18.8222 60.599 12.0667 66.2879V66.2879C11.3837 66.9709 11 67.8972 11 68.8631V92.2435C11 94.2072 12.5919 95.799 14.5556 95.799V95.799C16.5192 95.799 18.1111 94.2071 18.1111 92.2435V72.3031C18.1111 70.986 18.7518 69.7397 19.8777 69.0561C25.1122 65.8778 30.8906 64.1909 36.9556 64.5101V64.5101Z" stroke="black" stroke-width="2"/>
<path d="M36.9556 64.5101C39.2052 64.5101 41.0999 61.9287 40.3909 59.7938V59.7938C40.0213 58.6811 38.9775 57.7546 37.805 57.7546H36.9556C27.7111 57.399 18.8222 60.599 12.0667 66.2879V66.2879C11.3837 66.9709 11 67.8972 11 68.8631V92.2435C11 94.2072 12.5919 95.799 14.5556 95.799V95.799C16.5192 95.799 18.1111 94.2071 18.1111 92.2435V72.3031C18.1111 70.986 18.7518 69.7397 19.8777 69.0561C25.1122 65.8778 30.8906 64.1909 36.9556 64.5101V64.5101Z" stroke="url(#paint7_linear_619_13)" stroke-width="2"/>
<path d="M36.9541 47.4879C36.9713 47.4879 36.9885 47.4879 37.0057 47.4879C38.3131 47.4875 39.0874 46.3065 39.0874 44.999V44.999C39.0874 44.1646 39.0874 43.3301 39.1242 42.5324C39.1701 41.5372 37.9503 40.3768 36.9541 40.3768V40.3768C32.3318 40.3768 28.4206 36.4657 28.4206 31.8436C28.4206 27.2214 32.3318 23.3103 36.9541 23.3103C38.87 23.3103 40.6827 23.9297 42.1696 25.0017C43.9261 26.2681 46.869 26.6864 48.5121 25.2759V25.2759C49.6208 24.3241 49.9066 22.7097 48.9558 21.6C43.9663 15.7767 35.5051 14.1671 28.7762 18.3325C21.3095 22.9547 18.8206 32.5547 23.4429 40.0213C26.2873 44.6435 31.2651 47.4879 36.9541 47.4879Z" fill="url(#paint8_linear_619_13)" stroke="url(#paint9_linear_619_13)" stroke-width="2"/>
<path d="M93.1466 80.6435C93.1378 79.9763 92.9362 79.3258 92.566 78.7705V78.7705C92.4701 78.6267 92.3637 78.49 92.2466 78.3629C85.1477 70.6569 75.2679 66.113 64.6887 66.4657C54.1077 66.113 43.8766 70.6584 36.7718 78.3666C36.6569 78.4913 36.5526 78.6254 36.4585 78.7664V78.7664C36.087 79.3238 35.8887 79.9787 35.8887 80.6486V106.643C35.8887 109.843 38.3776 112.688 41.9331 112.688H87.4442C90.6442 112.688 93.4887 109.843 93.4887 106.643L93.1466 80.6435ZM86.022 101.577C86.022 103.786 84.2311 105.577 82.022 105.577H46.9998C44.7906 105.577 42.9998 103.786 42.9998 101.577V83.767C42.9998 82.7061 43.4122 81.678 44.206 80.9743C49.7687 76.0426 57.0746 73.5768 64.6887 73.5768C71.9728 73.2457 79.2568 75.9977 84.8183 80.9717C85.609 81.6789 86.022 82.7061 86.022 83.767V101.577Z" fill="url(#paint10_linear_619_13)" stroke="url(#paint11_linear_619_13)" stroke-width="4"/>
<defs>
<linearGradient id="paint0_linear_619_13" x1="49.0193" y1="43.1769" x2="77.0076" y2="40.0839" gradientUnits="userSpaceOnUse">
<stop stop-color="#8D01A2"/>
<stop offset="1" stop-color="#FF00D2"/>
</linearGradient>
<linearGradient id="paint1_linear_619_13" x1="49.0193" y1="43.1769" x2="77.0076" y2="40.0839" gradientUnits="userSpaceOnUse">
<stop stop-color="#8D01A2"/>
<stop offset="1" stop-color="#FF00D2"/>
</linearGradient>
<linearGradient id="paint2_linear_619_13" x1="85.666" y1="95.7991" x2="126.265" y2="81.0634" gradientUnits="userSpaceOnUse">
<stop stop-color="#0357D1"/>
<stop offset="1" stop-color="#27CDFC"/>
</linearGradient>
<linearGradient id="paint3_linear_619_13" x1="85.666" y1="95.7991" x2="126.265" y2="81.0634" gradientUnits="userSpaceOnUse">
<stop stop-color="#0357D1"/>
<stop offset="1" stop-color="#27CDFC"/>
</linearGradient>
<linearGradient id="paint4_linear_619_13" x1="78.5557" y1="47.8435" x2="114.605" y2="33.367" gradientUnits="userSpaceOnUse">
<stop stop-color="#0357D1"/>
<stop offset="1" stop-color="#27CDFC"/>
</linearGradient>
<linearGradient id="paint5_linear_619_13" x1="78.5557" y1="47.8435" x2="114.605" y2="33.367" gradientUnits="userSpaceOnUse">
<stop stop-color="#0357D1"/>
<stop offset="1" stop-color="#27CDFC"/>
</linearGradient>
<linearGradient id="paint6_linear_619_13" x1="11" y1="95.799" x2="51.5106" y2="80.9581" gradientUnits="userSpaceOnUse">
<stop stop-color="#0357D1"/>
<stop offset="1" stop-color="#27CDFC"/>
</linearGradient>
<linearGradient id="paint7_linear_619_13" x1="11" y1="95.799" x2="51.5106" y2="80.9581" gradientUnits="userSpaceOnUse">
<stop stop-color="#0357D1"/>
<stop offset="1" stop-color="#27CDFC"/>
</linearGradient>
<linearGradient id="paint8_linear_619_13" x1="21.1103" y1="47.4879" x2="57.2869" y2="32.7886" gradientUnits="userSpaceOnUse">
<stop stop-color="#0357D1"/>
<stop offset="1" stop-color="#27CDFC"/>
</linearGradient>
<linearGradient id="paint9_linear_619_13" x1="21.1103" y1="47.4879" x2="57.2869" y2="32.7886" gradientUnits="userSpaceOnUse">
<stop stop-color="#0357D1"/>
<stop offset="1" stop-color="#27CDFC"/>
</linearGradient>
<linearGradient id="paint10_linear_619_13" x1="40.0032" y1="89.5673" x2="86.4375" y2="83.1753" gradientUnits="userSpaceOnUse">
<stop stop-color="#8D01A2"/>
<stop offset="1" stop-color="#FF00D2"/>
</linearGradient>
<linearGradient id="paint11_linear_619_13" x1="40.0032" y1="89.5673" x2="86.4375" y2="83.1753" gradientUnits="userSpaceOnUse">
<stop stop-color="#8D01A2"/>
<stop offset="1" stop-color="#FF00D2"/>
</linearGradient>
</defs>
</svg>
