<svg width="128" height="128" viewBox="0 0 128 128" fill="none" xmlns="http://www.w3.org/2000/svg">
<path fill-rule="evenodd" clip-rule="evenodd" d="M23.0508 14.0177C21.0756 14.0177 19.0927 14.1643 17.1873 14.6038C9.19385 16.3111 3.05931 22.6562 3.01283 29.4726C2.99734 52.6232 2.99734 75.7737 3.00509 98.9183C3.00509 107.047 11.6802 114.252 21.5482 114.411C41.5731 114.451 61.6019 114.444 81.6315 114.436C89.7252 114.433 97.819 114.429 105.913 114.429C115.951 114.488 125.068 107.212 124.975 98.9049C124.998 85.3836 124.994 71.8621 124.99 58.3407C124.987 48.941 124.984 39.5413 124.991 30.1416C125.254 23.6309 119.971 17.3431 112.574 15.0815C109.252 13.9794 105.612 13.9604 102.087 14.0177C93.3064 14.0177 84.5249 14.0184 75.7432 14.0191C58.1787 14.0205 40.613 14.0219 23.0508 14.0177ZM12.3153 29.4599C12.2147 25.7077 16.0178 22.4331 20.3708 21.7132C21.3034 21.5662 22.2517 21.5621 23.1985 21.558C23.3999 21.5572 23.6011 21.5563 23.8022 21.5541C35.9543 21.5626 48.1064 21.561 60.2579 21.5594C75.4469 21.5574 90.6349 21.5555 105.82 21.5732C111.219 21.5732 116.084 25.6057 115.812 30.0843C115.851 52.8207 115.836 75.5572 115.82 98.294C116.075 102.759 111.335 106.856 105.898 106.824C83.099 106.87 60.2948 106.862 37.4939 106.854C32.4547 106.852 27.4157 106.85 22.3769 106.849C17.1873 106.97 12.1914 103.294 12.3076 98.9497C12.3107 89.6902 12.3088 80.4306 12.307 71.1711C12.3042 57.2673 12.3014 43.3636 12.3153 29.4599ZM68.7814 82.0142C67.9669 82.0226 67.1375 82.0313 66.3882 82.4365C64.9782 83.1257 64.017 84.8794 64.0042 86.6941C63.8952 89.2902 65.946 91.8171 68.1506 91.5568C74.5713 91.5783 80.9952 91.5734 87.4179 91.5686C90.1691 91.5665 92.92 91.5645 95.6703 91.5645C97.9967 91.932 100.17 89.3896 99.9895 86.6175C99.9576 83.9986 97.8871 81.8163 95.7151 82.0229C91.1757 81.9992 86.6346 82.0042 82.0937 82.0092C77.8705 82.0138 73.6475 82.0185 69.426 82C69.2134 82.0097 68.9979 82.0119 68.7814 82.0142Z" fill="url(#paint0_linear_637_109)" stroke="url(#paint1_linear_637_109)" stroke-width="4"/>
<path d="M34 46L52 64L34 82" stroke="url(#paint2_linear_637_109)" stroke-width="12" stroke-linecap="round" stroke-linejoin="round"/>
<defs>
<linearGradient id="paint0_linear_637_109" x1="64.0002" y1="114.442" x2="64.0002" y2="14" gradientUnits="userSpaceOnUse">
<stop stop-color="#00B59C"/>
<stop offset="1" stop-color="#9CFFAC"/>
</linearGradient>
<linearGradient id="paint1_linear_637_109" x1="64.0002" y1="114.442" x2="64.0002" y2="14" gradientUnits="userSpaceOnUse">
<stop stop-color="#00B59C"/>
<stop offset="1" stop-color="#9CFFAC"/>
</linearGradient>
<linearGradient id="paint2_linear_637_109" x1="43" y1="82" x2="43" y2="46" gradientUnits="userSpaceOnUse">
<stop stop-color="#00B59C"/>
<stop offset="1" stop-color="#9CFFAC"/>
</linearGradient>
</defs>
</svg>
