<svg width="64" height="64" viewBox="0 0 64 64" fill="none" xmlns="http://www.w3.org/2000/svg">
<path d="M23.2665 8.03516C23.7952 6.23922 25.7273 4.94195 27.7294 5.01061C30.4586 5.00699 33.1916 4.9817 35.9206 5.02506C37.7788 5.0612 39.5166 6.30426 40.0337 7.96289C40.6906 10.0551 41.1845 12.1871 41.8181 14.2829C42.1718 14.4528 42.5295 14.6227 42.8832 14.7924C45.2196 14.2468 47.5251 13.6108 49.8615 13.0689C51.8092 12.5376 54.0562 13.3868 55.0397 15.0383C56.3732 17.1667 57.6948 19.3059 59.0128 21.4451C60.078 23.0604 59.8254 25.3116 58.3675 26.6522C56.7619 28.1483 55.1329 29.6225 53.4963 31.0897C53.5662 31.6135 53.3992 32.2531 53.9434 32.6145C55.5528 34.1467 57.2285 35.6246 58.8261 37.1713C60.2102 38.5372 60.3696 40.7486 59.3083 42.3242C57.9748 44.467 56.6647 46.6242 55.3079 48.7527C54.3206 50.3137 52.1862 51.1232 50.3046 50.6462C48.0964 50.1223 45.9155 49.5043 43.7152 48.955C43.3653 49.1501 43.0193 49.3454 42.6695 49.5441C42.0162 51.7375 41.4294 53.9454 40.7606 56.1352C40.2552 57.9672 38.3076 59.2898 36.2783 59.2356C33.4287 59.2175 30.5712 59.3042 27.7217 59.1887C25.0705 58.9719 23.457 56.4242 23.5503 54.126C23.7214 52.8216 25.4124 52.0157 26.6681 52.6011C27.7529 53.0166 27.9511 54.1874 28.2233 55.1162C30.9716 55.127 33.724 55.1305 36.4726 55.1125C37.0324 53.1973 37.5845 51.2858 38.1249 49.3669C38.4242 48.3371 38.3348 46.946 39.5633 46.4255C40.9395 45.8691 42.0591 44.5754 43.6297 44.5862C46.2227 45.3523 48.8584 45.9847 51.4747 46.6894C52.8665 44.467 54.2389 42.2375 55.6189 40.0078C53.6129 38.1793 51.7158 36.2461 49.5855 34.5407C48.8468 33.7926 49.1577 32.6941 49.0722 31.7762C49.1033 30.7464 48.6952 29.4527 49.6943 28.6939C51.6342 27.111 53.3992 25.355 55.2729 23.7035C53.924 21.4595 52.5245 19.2373 51.1366 17.0148C48.5124 17.7086 45.8379 18.2471 43.2604 19.0854C42.0862 19.5047 41.1183 18.5506 40.127 18.1313C39.2756 17.6509 38.0743 17.387 37.7362 16.3969C37.1802 13.9506 36.4765 11.5331 35.7846 9.11922C33.036 9.12283 30.2875 9.11561 27.5389 9.12283C26.9676 11.0272 26.4272 12.9424 25.8828 14.8503C25.5835 15.9019 25.6691 17.3221 24.3978 17.8387C22.8467 18.4458 21.4666 20.2056 19.6316 19.4648C17.2992 18.8 14.9588 18.0809 12.5602 17.6652C11.009 19.743 9.80778 22.0594 8.38493 24.2239C10.3831 26.0595 12.2881 27.9856 14.4107 29.6948C15.1572 30.4392 14.8382 31.5486 14.9317 32.4664C14.9005 33.4891 15.3048 34.7718 14.329 35.5271C12.3853 37.1207 10.6125 38.8805 8.73092 40.5318C9.83498 42.3964 11.0052 44.2249 12.1403 46.0714C15.6702 44.2141 19.1768 42.3169 22.699 40.4451C23.3715 40.0549 24.2035 39.8562 24.9615 40.1705C27.5934 40.9872 30.4274 41.6629 33.1993 41.0774C36.9392 40.3511 39.4972 36.8605 39.8703 33.4926C37.6933 34.4647 35.7652 35.8451 33.6347 36.9039C32.5774 37.3953 31.2283 36.9075 30.7191 35.9354C29.3079 33.6806 27.8928 31.4257 26.5011 29.16C25.809 28.2169 26.1239 26.7822 27.228 26.2474C29.3311 25.1309 31.6287 24.3503 33.6425 23.0892C31.3411 21.9221 28.3671 21.6943 26.0462 22.9375C23.7369 24.1553 22.1937 26.2873 21.0818 28.4698C20.7046 29.1636 20.413 30.0201 19.5695 30.3417C18.4576 30.8547 16.957 30.3164 16.5528 29.2179C16.0862 28.1157 16.9103 27.0677 17.3807 26.1029C19.3402 22.4895 22.5862 19.0999 27.0064 18.2181C31.5781 17.2787 36.1771 19.136 39.8354 21.5715C41.1921 22.3664 41.0328 24.4804 39.5633 25.0838C36.8924 26.3667 34.179 27.5737 31.512 28.8637C32.1029 29.9983 32.7911 31.0787 33.5297 32.134C36.2083 30.6597 38.8325 29.1021 41.5032 27.6135C42.4362 26.999 43.8513 27.1654 44.5316 28.0363C45.2158 28.8889 45.0253 30.0236 44.9826 31.0173C44.5549 35.3752 42.9299 39.9429 39.2134 42.8337C36.2356 45.197 32.0758 45.7859 28.2971 45.2185C26.9209 45.0777 25.6224 44.5501 24.2462 44.4345C20.242 46.422 16.3778 48.6624 12.3892 50.6824C11.2306 51.2678 9.8311 50.6606 9.25575 49.6343C7.77847 47.3615 6.38671 45.0379 4.95609 42.7397C3.91422 41.1389 4.2019 38.9347 5.62085 37.6084C7.22643 36.0799 8.92141 34.6345 10.5153 33.0951C10.4842 32.7122 10.4531 32.329 10.4259 31.9461C8.72703 30.3923 7.04371 28.824 5.36428 27.2521C3.90644 25.9547 3.57211 23.7505 4.57899 22.1243C5.93187 19.9021 7.30807 17.687 8.69593 15.4826C9.65617 13.9541 11.7283 13.1556 13.5749 13.5675C15.8296 14.0879 18.0495 14.7275 20.2925 15.2876C20.6425 15.0816 20.9963 14.8756 21.35 14.6696C21.9914 12.4582 22.5862 10.2358 23.2665 8.03516Z" fill="url(#paint0_linear_678_346)" stroke="url(#paint1_linear_678_346)"/>
<defs>
<linearGradient id="paint0_linear_678_346" x1="32" y1="59.25" x2="32" y2="5" gradientUnits="userSpaceOnUse">
<stop stop-color="#5570FF"/>
<stop offset="1" stop-color="#4DD3FF"/>
</linearGradient>
<linearGradient id="paint1_linear_678_346" x1="32" y1="59.25" x2="32" y2="5" gradientUnits="userSpaceOnUse">
<stop stop-color="#5570FF"/>
<stop offset="1" stop-color="#4DD3FF"/>
</linearGradient>
</defs>
</svg>
