<svg width="128" height="128" viewBox="0 0 128 128" fill="none" xmlns="http://www.w3.org/2000/svg">
<path d="M70.5625 60.7188H57.4375C55.6254 60.7188 54.1563 62.1879 54.1563 64V90.25C54.1563 92.0621 55.6254 93.5312 57.4375 93.5312H70.5625C72.3746 93.5312 73.8437 92.0621 73.8437 90.25V64C73.8437 62.1879 72.3746 60.7188 70.5625 60.7188ZM67.2812 86.9688H60.7188V67.2812H67.2812V86.9688ZM64 8C33.167 8 8 33.1652 8 64C8 94.833 33.1652 120 64 120C94.833 120 120 94.8348 120 64C120 33.167 94.8348 8 64 8ZM64 113.437C36.7401 113.437 14.5625 91.2599 14.5625 64C14.5625 36.7401 36.7401 14.5625 64 14.5625C91.2599 14.5625 113.437 36.7401 113.437 64C113.437 91.2599 91.2599 113.437 64 113.437ZM64 21.3437C40.4793 21.3437 21.3437 40.4793 21.3437 64C21.3437 87.5207 40.4793 106.657 64 106.657C87.5207 106.657 106.657 87.5207 106.657 64C106.657 40.4793 87.5207 21.3437 64 21.3437ZM64 100.094C44.0979 100.094 27.9063 83.9021 27.9063 64C27.9063 44.0979 44.0979 27.9063 64 27.9063C83.9021 27.9063 100.094 44.0979 100.094 64C100.094 83.9021 83.9021 100.094 64 100.094ZM64 34.4688C58.5722 34.4688 54.1563 38.8847 54.1563 44.3125C54.1563 49.7404 58.5722 54.1563 64 54.1563C69.4278 54.1563 73.8437 49.7404 73.8437 44.3125C73.8437 38.8847 69.4278 34.4688 64 34.4688ZM64 47.5937C62.1907 47.5937 60.7188 46.1218 60.7188 44.3125C60.7188 42.5032 62.1907 41.0312 64 41.0312C65.8093 41.0312 67.2812 42.5032 67.2812 44.3125C67.2812 46.1218 65.8093 47.5937 64 47.5937Z" fill="url(#paint0_linear_637_160)" stroke="url(#paint1_linear_637_160)" stroke-width="3"/>
<defs>
<linearGradient id="paint0_linear_637_160" x1="63.9999" y1="120" x2="63.9999" y2="7.99999" gradientUnits="userSpaceOnUse">
<stop stop-color="#00C4C4"/>
<stop offset="1" stop-color="#48FE66"/>
</linearGradient>
<linearGradient id="paint1_linear_637_160" x1="63.9999" y1="120" x2="63.9999" y2="7.99999" gradientUnits="userSpaceOnUse">
<stop stop-color="#00C4C4"/>
<stop offset="1" stop-color="#48FE66"/>
</linearGradient>
</defs>
</svg>
