<svg width="128" height="128" viewBox="0 0 128 128" fill="none" xmlns="http://www.w3.org/2000/svg">
<path d="M46.3188 6.04602C37.4945 6.24272 28.6291 5.65263 19.8377 6.35751C12.3034 7.67698 6.32185 14.5777 6.00966 22.1833C6.00966 29.879 6.00142 37.5666 6.00966 45.2623C6.00966 59.4818 5.99325 73.7094 6.0179 87.9292C5.99325 93.4202 6.0179 98.9112 6.00142 104.411C5.95213 108.172 7.1846 111.926 9.46876 114.925C12.5581 118.892 17.3892 121.515 22.4505 121.622C28.8182 121.638 35.1776 121.622 41.5369 121.629C49.7533 121.629 57.9613 121.638 66.1694 121.622C74.0572 121.646 81.9529 121.622 89.8403 121.629C94.7783 121.629 99.7163 121.622 104.647 121.629C107.81 121.703 110.965 120.818 113.668 119.195C115.541 118.089 117.119 116.565 118.491 114.901C121.991 110.598 122.172 104.861 121.925 99.5913C121.934 91.3792 121.934 83.1672 121.917 74.9551C121.934 66.4973 121.941 58.0475 121.917 49.5978C121.941 40.517 121.925 31.4444 121.925 22.3636C121.728 14.0532 114.654 6.64435 106.331 6.11159C97.8024 5.97229 89.274 6.08701 80.7533 6.05426C77.9513 5.99687 75.7169 9.20956 76.8509 11.783C77.3438 13.4795 79.0936 14.6351 80.8434 14.6433C89.0352 14.6924 97.227 14.6269 105.427 14.6761C109.198 14.881 112.46 17.8806 113.192 21.5522C113.438 49.1798 113.224 76.8236 113.298 104.459C113.397 107.566 111.572 110.492 108.935 112.057C107.588 112.614 106.191 113.131 104.712 113.065C97.5063 113.065 90.3088 113.049 83.1113 113.073C75.1004 113.057 67.0978 113.057 59.087 113.073C50.3366 113.057 41.5863 113.049 32.8359 113.073C29.4179 113.024 25.9917 113.098 22.5738 113.049C18.7696 112.868 15.4749 109.853 14.7436 106.156C14.4971 78.5532 14.7107 50.9255 14.6367 23.3143C14.4642 19.3067 17.5125 15.6268 21.3988 14.7908C29.9437 14.463 38.5133 14.7908 47.0665 14.6269C49.5889 14.5449 51.5609 11.8731 50.9446 9.43083C50.5749 7.33275 48.4222 5.81658 46.3188 6.04602Z" fill="url(#paint0_linear_677_2)" stroke="url(#paint1_linear_677_2)" stroke-width="3"/>
<path d="M44.4734 44.1973C44.8065 42.7506 46.2796 41.7449 47.6634 42.057C48.8643 42.2651 49.7463 43.3748 49.9574 44.6035C52.3499 54.0713 54.8174 63.5241 57.1536 73.0067C58.0262 71.0994 58.4765 68.9639 59.593 67.2C61.3287 65.0005 65.0863 67.0319 64.3545 69.811C62.8533 74.1907 61.066 78.4665 59.4757 82.8113C59.1379 83.8419 58.4859 84.902 57.3975 85.1203C55.9667 85.581 54.3202 84.61 53.9777 83.0638C51.8995 75.0532 49.9011 67.0171 47.8323 59.0008C47.5227 57.9059 47.2459 56.8011 47.1239 55.6665C44.403 64.847 41.9402 74.1116 39.2803 83.3116C38.8112 85.0507 36.6721 85.9226 35.2272 84.9321C34.1248 84.2879 33.8668 82.8957 33.515 81.7311C30.0717 69.9992 26.5626 58.2924 23.1381 46.5556C22.6972 45.2228 23.3492 43.6225 24.5643 43.0379C26.6096 41.8935 28.6267 43.9297 28.8285 46.0502C31.3899 54.7995 34.0169 63.5241 36.5642 72.2787C39.21 62.9197 41.8183 53.5511 44.4734 44.1973Z" fill="url(#paint2_linear_677_2)"/>
<path d="M68.877 43.7068C69.7961 41.4377 73.2956 41.6755 73.9433 44.0487C76.3402 53.234 78.6392 62.449 80.9895 71.6493C83.6258 62.5828 86.1448 53.4767 88.842 44.4351C89.7151 42.057 93.3786 42.275 93.9838 44.7571C97.6148 56.7912 101.189 68.8453 104.787 80.8893C105.505 82.5983 104.318 84.7834 102.55 84.9415C101.251 85.1498 99.9132 84.2236 99.5522 82.8904C96.8172 73.8096 94.1195 64.7132 91.394 55.6269C88.7954 64.842 86.1401 74.032 83.4896 83.2278C82.9221 85.8087 79.1082 86.0217 78.287 83.5245C75.7025 73.8243 73.3381 64.0542 70.7955 54.3437C70.1153 56.2016 69.4351 58.0644 68.6983 59.9025C68.1638 61.369 66.3952 62.1171 65.0535 61.4383C63.6415 60.8488 62.9472 58.9414 63.618 57.4997C65.3678 52.902 67.0754 48.2796 68.877 43.7068Z" fill="url(#paint3_linear_677_2)"/>
<path d="M44.4734 44.1973C44.8065 42.7506 46.2796 41.7449 47.6634 42.057C48.8643 42.2651 49.7463 43.3748 49.9574 44.6035C52.3499 54.0713 54.8174 63.5241 57.1536 73.0067C58.0262 71.0994 58.4765 68.9639 59.593 67.2C61.3287 65.0005 65.0863 67.0319 64.3545 69.811C62.8533 74.1907 61.066 78.4665 59.4757 82.8113C59.1379 83.8419 58.4859 84.902 57.3975 85.1203C55.9667 85.581 54.3202 84.61 53.9777 83.0638C51.8995 75.0532 49.9011 67.0171 47.8323 59.0008C47.5227 57.9059 47.2459 56.8011 47.1239 55.6665C44.403 64.847 41.9402 74.1116 39.2803 83.3116C38.8112 85.0507 36.6721 85.9226 35.2272 84.9321C34.1248 84.2879 33.8668 82.8957 33.515 81.7311C30.0717 69.9992 26.5626 58.2924 23.1381 46.5556C22.6972 45.2228 23.3492 43.6225 24.5643 43.0379C26.6096 41.8935 28.6267 43.9297 28.8285 46.0502C31.3899 54.7995 34.0169 63.5241 36.5642 72.2787C39.21 62.9197 41.8183 53.5511 44.4734 44.1973Z" stroke="url(#paint4_linear_677_2)" stroke-width="3"/>
<path d="M68.877 43.7068C69.7961 41.4377 73.2956 41.6755 73.9433 44.0487C76.3402 53.234 78.6392 62.449 80.9895 71.6493C83.6258 62.5828 86.1448 53.4767 88.842 44.4351C89.7151 42.057 93.3786 42.275 93.9838 44.7571C97.6148 56.7912 101.189 68.8453 104.787 80.8893C105.505 82.5983 104.318 84.7834 102.55 84.9415C101.251 85.1498 99.9132 84.2236 99.5522 82.8904C96.8172 73.8096 94.1195 64.7132 91.394 55.6269C88.7954 64.842 86.1401 74.032 83.4896 83.2278C82.9221 85.8087 79.1082 86.0217 78.287 83.5245C75.7025 73.8243 73.3381 64.0542 70.7955 54.3437C70.1153 56.2016 69.4351 58.0644 68.6983 59.9025C68.1638 61.369 66.3952 62.1171 65.0535 61.4383C63.6415 60.8488 62.9472 58.9414 63.618 57.4997C65.3678 52.902 67.0754 48.2796 68.877 43.7068Z" stroke="url(#paint5_linear_677_2)" stroke-width="3"/>
<defs>
<linearGradient id="paint0_linear_677_2" x1="92.5476" y1="121.466" x2="92.5476" y2="6.34701" gradientUnits="userSpaceOnUse">
<stop stop-color="#5570FF"/>
<stop offset="1" stop-color="#4DD3FF"/>
</linearGradient>
<linearGradient id="paint1_linear_677_2" x1="92.5476" y1="121.466" x2="92.5476" y2="6.34701" gradientUnits="userSpaceOnUse">
<stop stop-color="#5570FF"/>
<stop offset="1" stop-color="#4DD3FF"/>
</linearGradient>
<linearGradient id="paint2_linear_677_2" x1="84.1802" y1="85.2854" x2="84.1802" y2="42.1301" gradientUnits="userSpaceOnUse">
<stop stop-color="#5570FF"/>
<stop offset="1" stop-color="#4DD3FF"/>
</linearGradient>
<linearGradient id="paint3_linear_677_2" x1="84.1802" y1="85.2854" x2="84.1802" y2="42.1301" gradientUnits="userSpaceOnUse">
<stop stop-color="#5570FF"/>
<stop offset="1" stop-color="#4DD3FF"/>
</linearGradient>
<linearGradient id="paint4_linear_677_2" x1="84.1802" y1="85.2854" x2="84.1802" y2="42.1301" gradientUnits="userSpaceOnUse">
<stop stop-color="#5570FF"/>
<stop offset="1" stop-color="#4DD3FF"/>
</linearGradient>
<linearGradient id="paint5_linear_677_2" x1="84.1802" y1="85.2854" x2="84.1802" y2="42.1301" gradientUnits="userSpaceOnUse">
<stop stop-color="#5570FF"/>
<stop offset="1" stop-color="#4DD3FF"/>
</linearGradient>
</defs>
</svg>
