<svg width="192" height="192" viewBox="0 0 192 192" fill="none" xmlns="http://www.w3.org/2000/svg">
<path d="M52.2792 51.9787C53.0591 48.7007 56.5081 46.4219 59.7484 47.1291C62.5603 47.6006 64.6253 50.1152 65.1196 52.8992C70.7215 74.3516 76.4992 95.7704 81.9692 117.257C84.0123 112.935 85.0668 108.096 87.681 104.1C91.7451 99.1157 100.543 103.718 98.8299 110.016C95.3149 119.94 91.13 129.627 87.4064 139.472C86.6155 141.807 85.0887 144.21 82.5404 144.704C79.1903 145.748 75.3348 143.547 74.533 140.045C69.667 121.893 64.9878 103.685 60.1438 85.5213C59.4189 83.0404 58.7708 80.537 58.4852 77.9663C52.1144 98.7677 46.3478 119.76 40.1198 140.606C39.0214 144.546 34.0126 146.522 30.6295 144.277C28.0482 142.818 27.4441 139.663 26.6203 137.025C18.5579 110.443 10.3418 83.916 2.32343 57.3221C1.29092 54.3024 2.81771 50.6765 5.6626 49.3518C10.4517 46.7587 15.1748 51.3725 15.6472 56.1771C21.6445 76.0018 27.7956 95.7704 33.76 115.606C39.955 94.4009 46.0622 73.1729 52.2792 51.9787Z" fill="url(#paint0_linear_677_21)" stroke="url(#paint1_linear_677_21)" stroke-width="3"/>
<path d="M105.917 50.5725C108.069 45.4311 116.264 45.97 117.779 51.3471C123.392 72.1597 128.774 93.0396 134.278 113.886C140.451 93.3427 146.349 72.7097 152.665 52.2227C154.708 46.8343 163.287 47.3283 164.704 52.9524C173.205 80.2198 181.575 107.532 190 134.822C191.681 138.695 188.902 143.645 184.761 144.004C181.718 144.476 178.587 142.377 177.742 139.357C171.338 118.78 165.022 98.1698 158.64 77.5817C152.555 98.4617 146.338 119.285 140.132 140.12C138.803 145.969 129.873 146.452 127.951 140.794C121.898 118.814 116.362 96.6768 110.409 74.6743C108.816 78.8839 107.224 83.1048 105.499 87.2696C104.247 90.5924 100.106 92.2875 96.9648 90.7496C93.6586 89.4137 92.0329 85.0918 93.6037 81.8251C97.7007 71.4076 101.699 60.9339 105.917 50.5725Z" fill="url(#paint2_linear_677_21)" stroke="url(#paint3_linear_677_21)" stroke-width="3"/>
<defs>
<linearGradient id="paint0_linear_677_21" x1="50.5242" y1="145.22" x2="50.5242" y2="47" gradientUnits="userSpaceOnUse">
<stop stop-color="#FD2E00"/>
<stop offset="1" stop-color="#FF9900"/>
</linearGradient>
<linearGradient id="paint1_linear_677_21" x1="50.5242" y1="145.22" x2="50.5242" y2="47" gradientUnits="userSpaceOnUse">
<stop stop-color="#FD2E00"/>
<stop offset="1" stop-color="#FF9900"/>
</linearGradient>
<linearGradient id="paint2_linear_677_21" x1="141.749" y1="144.783" x2="141.749" y2="47" gradientUnits="userSpaceOnUse">
<stop stop-color="#5570FF"/>
<stop offset="1" stop-color="#4DD3FF"/>
</linearGradient>
<linearGradient id="paint3_linear_677_21" x1="141.749" y1="144.783" x2="141.749" y2="47" gradientUnits="userSpaceOnUse">
<stop stop-color="#5570FF"/>
<stop offset="1" stop-color="#4DD3FF"/>
</linearGradient>
</defs>
</svg>
