<svg width="192" height="192" viewBox="0 0 192 192" fill="none" xmlns="http://www.w3.org/2000/svg">
<path d="M92.88 17.79C93.78 15.62 94.61 12.87 97.1 12.07C99.99 10.98 103.37 12.58 104.34 15.5C109.86 29.76 115.12 44.12 120.5 58.43C122.02 61.72 119.76 66.2599 116.02 66.4599C106.29 66.7699 96.54 66.25 86.82 66.72C84.38 72.48 82.55 78.47 80.32 84.31C96.97 84.37 113.61 84.36 130.25 84.45C134.38 95.48 138.57 106.49 142.64 117.54C144.26 120.9 141.58 125.39 137.85 125.49C113.56 125.69 89.27 125.49 64.98 125.55C63.41 129.99 61.55 134.33 59.81 138.71C91.53 138.8 123.26 138.69 154.98 138.72C158.83 138.78 163.05 138.2 166.45 140.45C172.26 144.2 175.18 151.31 175.48 158.02C175.84 165.9 170.84 173.7 163.46 176.54C157.88 178.65 151.82 178.09 145.98 178.2C110.63 178.16 75.29 178.24 39.94 178.24C33.98 178.32 27.6 177.14 23.19 172.82C16.2 166.45 15.43 155.12 20.26 147.28C22.86 143.9 28.79 145.03 30.03 149.09C31.59 152.59 27.72 155.49 28.48 159.03C28.52 163.09 32.26 166.32 36.23 166.25C75.49 166.31 114.76 166.22 154.03 166.27C156.34 166.27 158.82 166.17 160.81 164.82C165.39 162.04 165.32 154.15 160.54 151.59C157.98 150 154.86 150.43 151.99 150.36C118.34 150.39 84.68 150.27 51.03 150.31C47.7 150.81 44.57 147.28 45.66 144.05C48.71 135.38 52.05 126.81 55.22 118.18C55.95 115.65 58.29 113.61 61.02 113.76C83.67 113.69 106.33 113.76 128.99 113.72C126.8 107.95 124.87 102.09 122.57 96.37C115.47 94.99 108.21 96.4 101.04 96.13C91.34 96.09 81.66 95.66 71.95 95.79C68.08 96.1 65.03 91.67 66.52 88.12C70.07 78.43 73.75 68.79 77.37 59.13C78.11 56.79 80.34 54.9399 82.87 55.0499C90.93 54.9599 99 55.16 107.07 55.07C104.42 48.0399 101.8 41.01 99.01 34.04C97.48 37.78 96.69 41.9898 94.25 45.2598C90.63 49.1498 83.27 45.31 84.65 40.03C87.17 32.54 90.18 25.22 92.88 17.79Z" fill="url(#paint0_linear_618_235)" stroke="url(#paint1_linear_618_235)" stroke-width="4"/>
<defs>
<linearGradient id="paint0_linear_618_235" x1="96.3409" y1="178.244" x2="96.3409" y2="11.7262" gradientUnits="userSpaceOnUse">
<stop stop-color="#FD5900"/>
<stop offset="1" stop-color="#FFF500"/>
</linearGradient>
<linearGradient id="paint1_linear_618_235" x1="96.3409" y1="178.244" x2="96.3409" y2="11.7262" gradientUnits="userSpaceOnUse">
<stop stop-color="#FD5900"/>
<stop offset="1" stop-color="#FFF500"/>
</linearGradient>
</defs>
</svg>
