<svg width="64" height="64" viewBox="0 0 64 64" fill="none" xmlns="http://www.w3.org/2000/svg">
<path d="M8.00039 4C5.78435 4 4 5.75639 4 7.93789V24.968C4 27.1493 5.98388 28.8063 8.2 28.8063C10.416 28.8063 12.4 27.1494 12.4 24.968V17.4125L18 23.318V28.8063H26.0008V27.6246C26.0008 26.5339 26.8916 25.657 27.9996 25.657H29.2V17.7812H23.6246L17.6254 12.2687H25.3008C27.5168 12.2687 29.2 10.3159 29.2 8.13437C29.2 5.95296 27.5169 4 25.3008 4H8.00039ZM38.6993 4C36.4831 4 34.8 5.95296 34.8 8.13437C34.8 10.3159 36.4831 12.2687 38.6993 12.2687H46.3746L40.3754 17.7812H34.8V25.657H36.0004C37.1084 25.657 37.9993 26.5339 37.9993 27.6246V28.8063H46V23.318L51.6 17.4125V24.968C51.6 27.1494 53.584 28.8063 55.8 28.8063C58.0161 28.8063 60 27.1493 60 24.968V7.93789C60 5.75639 58.2156 4 55.9996 4H38.6993ZM18 34.3188V41.4059C18 43.5888 19.7827 45.3438 22.0004 45.3438H29.2V37.468H27.9996C26.8916 37.468 26.0008 36.5911 26.0008 35.5004V34.3188H18ZM37.9993 34.3188V35.5004C37.9993 36.5911 37.1084 37.468 36.0004 37.468H34.8V45.3438H40.3754L46.3746 50.8562H38.6993C36.4831 50.8562 34.8 52.8092 34.8 54.9906C34.8 57.172 36.4831 59.125 38.6993 59.125H55.9996C58.2156 59.125 60 57.3686 60 55.1871V38.157C60 35.9756 58.0161 34.3188 55.8 34.3188C53.584 34.3188 51.6 35.9756 51.6 38.157V45.7125L46 39.807V34.3188H37.9993Z" fill="url(#paint0_linear)"/>
<defs>
<linearGradient id="paint0_linear" x1="32" y1="59.125" x2="32" y2="4" gradientUnits="userSpaceOnUse">
<stop stop-color="#FDA700"/>
<stop offset="1" stop-color="#FFDE00"/>
</linearGradient>
</defs>
</svg>
