<svg width="64" height="64" viewBox="0 0 64 64" fill="none" xmlns="http://www.w3.org/2000/svg">
<path d="M10.5072 4.32348C11.3852 4.08184 12.2951 3.99655 13.2049 4.00011C25.8725 4.00721 38.54 3.993 51.2075 4.00721C55.8174 3.95036 59.9901 8.02268 59.9653 12.6458C59.983 25.314 59.9653 37.9788 59.9759 50.647C60.3598 55.5082 56.0946 60.0389 51.2288 59.9927C38.3267 59.9963 25.421 60.0105 12.5154 59.9856C8.00146 59.8967 4.02421 55.9026 4.00644 51.3791C3.99578 38.4585 3.99933 25.5379 4.00999 12.6174C4.03487 8.81511 6.83921 5.27937 10.5072 4.32348ZM12.3093 8.23588C10.4255 8.44199 8.73365 9.9167 8.33912 11.7787C8.1543 13.0011 8.18629 14.2448 8.18274 15.4779C8.22894 26.7212 8.17918 37.961 8.20051 49.2042C8.18274 50.4942 8.06544 51.8587 8.62346 53.0598C9.34854 54.6803 11.0653 55.7961 12.8424 55.7783C25.2789 55.8031 37.7154 55.7747 50.1519 55.789C52.9704 56.2295 55.924 53.9802 55.7783 51.0308C55.7854 38.3412 55.789 25.6516 55.7783 12.962C55.9027 10.3431 53.4822 8.03689 50.8876 8.1968C38.0281 8.22167 25.1652 8.14705 12.3093 8.23588Z" fill="url(#paint0_linear_640_44)" stroke="url(#paint1_linear_640_44)" stroke-width="3"/>
<path d="M11.8205 18.0925C15.0295 17.8286 18.2791 18.06 21.5004 17.9748C22.2478 17.8976 23.1455 18.1128 23.3933 18.921C25.9483 24.497 28.3815 30.1298 30.9446 35.6976C31.363 36.7251 33.0447 36.6764 33.3981 35.6164C35.9572 30.0201 38.4107 24.3711 40.9698 18.7707C41.5791 17.5443 43.1592 18.1007 44.2397 17.9748C45.2309 18.0803 46.5795 17.6255 47.2456 18.6124C47.7087 19.2784 47.3228 20.0703 47.0303 20.7079C42.7368 29.8536 38.4919 39.0237 34.2105 48.1775C33.7678 49.9035 30.7903 49.9604 30.1728 48.3522C26.3423 40.1405 22.5037 31.9289 18.6813 23.7091C18.4498 23.2786 18.2995 22.7344 17.7998 22.5273C15.8419 21.4511 13.7662 20.6064 11.8246 19.4936C11.268 19.25 11.3574 18.3849 11.8205 18.0925Z" fill="url(#paint2_linear_640_44)"/>
<defs>
<linearGradient id="paint0_linear_640_44" x1="32" y1="60" x2="32" y2="4" gradientUnits="userSpaceOnUse">
<stop stop-color="#00B59C"/>
<stop offset="1" stop-color="#9CFFAC"/>
</linearGradient>
<linearGradient id="paint1_linear_640_44" x1="32" y1="60" x2="32" y2="4" gradientUnits="userSpaceOnUse">
<stop stop-color="#00B59C"/>
<stop offset="1" stop-color="#9CFFAC"/>
</linearGradient>
<linearGradient id="paint2_linear_640_44" x1="29.4501" y1="49.5167" x2="29.4501" y2="17.9547" gradientUnits="userSpaceOnUse">
<stop stop-color="#00B59C"/>
<stop offset="1" stop-color="#9CFFAC"/>
</linearGradient>
</defs>
</svg>
