<svg id="Capa_1" enable-background="new 0 0 512 512" height="512" viewBox="0 0 512 512" width="512" xmlns="http://www.w3.org/2000/svg" xmlns:xlink="http://www.w3.org/1999/xlink"><linearGradient id="SVGID_1_" gradientUnits="userSpaceOnUse" x1="256" x2="256" y1="512" y2="0"><stop offset="0" stop-color="#fd5900"/><stop offset="1" stop-color="#ffde00"/></linearGradient><g><g><path d="m421 255v-30c0-8.291-6.709-15-15-15h-45v-105c0-57.891-47.109-105-105-105s-105 47.109-105 105v105h-45c-8.291 0-15 6.709-15 15v30c0 75.366 50.85 138.95 120 158.604v68.396h-75c-8.291 0-15 6.709-15 15s6.709 15 15 15h240c8.291 0 15-6.709 15-15s-6.709-15-15-15h-75v-68.396c69.15-19.654 120-83.238 120-158.604zm-240-150c0-41.353 33.647-75 75-75s75 33.647 75 75v105h-150zm0 135h150v15c0 41.353-33.647 75-75 75s-75-33.647-75-75zm90 242h-30v-62.76c4.948.449 9.937.76 15 .76s10.052-.311 15-.76zm-15-92c-74.443 0-135-60.557-135-135v-15h30v15c0 57.891 47.109 105 105 105s105-47.109 105-105v-15h30v15c0 74.443-60.557 135-135 135zm-30-255c-8.284 0-15 6.714-15 15 0 8.284 6.716 15 15 15s15-6.716 15-15c0-8.286-6.716-15-15-15zm60 0c-8.284 0-15 6.714-15 15 0 8.284 6.716 15 15 15s15-6.716 15-15c0-8.286-6.716-15-15-15zm-60-60c-8.284 0-15 6.716-15 15s6.716 15 15 15 15-6.716 15-15-6.716-15-15-15zm60 0c-8.284 0-15 6.716-15 15s6.716 15 15 15 15-6.716 15-15-6.716-15-15-15z" fill="url(#SVGID_1_)"/></g></g></svg>