<svg width="192" height="192" viewBox="0 0 192 192" fill="none" xmlns="http://www.w3.org/2000/svg">
<path d="M30.3934 9.56361C35.7482 8.51753 41.2472 8.84787 46.6685 8.96899C50.0499 9.01304 52.9102 12.1953 52.755 15.5098C52.7883 18.7471 49.9612 21.9074 46.602 21.7973C40.6707 22.2488 34.0409 20.6741 28.7748 24.2198C24.2182 26.9947 21.8568 32.3132 22.0563 37.5216C22.0896 76.8433 21.9677 116.176 22.1229 155.509C22.0896 163.063 28.9078 169.703 36.5021 169.559C52.4557 169.681 68.4093 169.438 84.3517 169.648C87.9216 169.526 91.0258 172.775 90.7819 176.287C90.8152 179.657 87.7775 182.773 84.3406 182.586C67.7551 182.641 51.1475 182.729 34.5509 182.531C20.6816 181.881 8.84116 169.295 9.04072 155.52C8.96311 115.835 9.05181 76.1496 9.00746 36.4535C8.69704 23.9665 18.1095 12.1733 30.3934 9.56361Z" fill="url(#paint0_linear)"/>
<path d="M95.2166 18.8242C93.5979 15.3226 93.9194 11.5126 95.3163 8C96.8574 10.3124 98.0547 12.834 98.8197 15.5098C100.272 14.6289 101.713 13.759 103.21 12.9661C100.86 16.3687 97.9217 19.3638 95.8818 22.9865C98.5647 19.9143 102.002 17.5909 106.248 17.5028C104.917 19.7492 103.775 22.3479 101.458 23.7794C99.3962 24.44 97.19 24.4951 95.1168 25.1227C92.456 29.3732 92.323 34.9559 94.3629 39.4816C96.4472 44.0624 98.7643 48.544 100.749 53.1688C103.221 49.9094 106.17 46.9143 107.911 43.1705C107.744 41.1444 107.478 39.1403 107.09 37.1472C108.41 38.7439 109.685 40.3625 111.015 41.9482C112.046 39.0522 110.494 36.3984 109.385 33.8108C110.682 34.6366 111.979 35.4515 113.277 36.2663C113.809 32.2581 113.421 28.228 112.234 24.363C110.926 20.3328 112.7 16.2916 114.219 12.6028C116.381 15.9613 118.11 20.2447 115.494 23.8785C116.104 27.0828 116.979 30.232 117.833 33.3703C120.339 28.9547 121.935 24.1207 123.144 19.1986C123.443 19.2316 124.042 19.2977 124.341 19.3307C125.649 17.3157 127.168 15.4437 128.886 13.759C129.064 16.8972 129.662 20.542 127.323 23.0966C124.341 26.5102 122.212 30.5954 121.603 35.1101C128.909 34.7577 135.694 30.0999 139.419 23.9776C140.86 22.2047 139.618 20.1456 139.297 18.2296C138.521 15.5428 139.951 12.9331 140.782 10.4555C142.423 13.5057 144.663 17.0514 142.678 20.498C141.514 25.9266 138.709 30.8377 134.141 34.1301C137.257 34.1301 140.982 35.1872 143.499 32.7537C145.594 30.8927 147.756 29.0208 150.494 28.1839C147.867 30.8046 145.372 33.6125 142.434 35.8919C138.244 38.4025 133.255 34.8018 128.986 36.971C121.691 40.6378 113.199 43.6329 108.986 51.1537C103.155 60.4253 105.837 71.7561 108.143 81.6884C110.538 79.1117 113.254 76.7112 114.84 73.5289C115.627 71.2716 115.483 68.816 115.915 66.4816C117.035 67.9792 118.011 69.5648 118.986 71.1615C122.379 68.3425 125.361 64.8409 126.791 60.6235C126.314 58.19 123.897 56.7475 122.534 54.7875C124.751 55.6574 126.835 56.7806 128.909 57.9368C130.816 55.9767 134.241 54.0828 133.011 50.8454C132.079 47.4539 133.388 44.1284 135.405 41.4086C136.935 44.9433 137.789 48.9294 135.549 52.365C139.108 50.5151 141.492 47.3878 142.734 43.6219C142.911 44.635 143.255 46.639 143.421 47.6521C143.853 47.3988 144.718 46.8923 145.15 46.639C144.164 42.5648 146.093 38.7879 149.053 36.0461C149.385 38.4135 149.596 40.803 149.718 43.1815C151.137 42.1023 152.534 40.9902 153.964 39.9001C151.547 44.635 146.825 47.52 142.612 50.5151C145.339 50.5701 148.077 50.7903 150.705 51.5832C149.419 53.1358 147.634 54.1819 145.771 54.8866C143.654 55.7455 141.414 54.4131 139.263 54.8425C135.173 57.0779 132.778 61.2952 130.682 65.2704C135.915 63.0681 142.711 64.7088 146.326 59.4563C145.982 60.6235 145.283 62.969 144.94 64.1362C147.7 63.8169 151.004 64.2353 153.077 61.9779C155.317 59.8197 157.689 57.7385 160.649 56.5713C159.618 57.7275 157.545 60.0289 156.514 61.1851C159.907 58.8287 164.097 58.9939 167.834 60.3262C165.616 61.7357 163.321 63.002 160.949 64.1362C158.221 62.6827 155.394 63.4755 152.944 65.0611C146.57 68.8821 138.587 66.2283 132.124 69.785C124.685 73.639 119.818 80.8735 115.638 87.8438C118.942 87.161 122.312 86.8858 125.616 86.2911C129.13 85.4102 130.527 81.6774 132.589 79.1117C132.046 81.4571 131.303 83.7475 130.572 86.0489C136.026 85.223 141.969 84.232 146.226 80.4441C145.594 76.6782 145.66 72.7581 148 69.5318C149.84 69.4107 149.729 71.6239 150.128 72.8682C150.683 75.2137 149.596 77.438 148.742 79.5632C151.071 78.3629 153.366 75.6651 156.226 76.7993C159.929 74.2887 164.375 75.555 167.734 77.9995C165.794 78.6933 163.876 79.4751 161.847 79.8605C159.419 79.7724 157.068 78.1427 154.641 79.0126C149.94 80.4221 145.904 83.307 141.714 85.7516C145.051 86.9408 148.532 88.042 151.204 90.4645C146.736 89.6937 142.224 88.3723 137.656 89.2202C130.694 90.4204 123.476 91.907 117.467 95.772C113.132 98.8001 113.997 104.658 114.396 109.184C115.117 115.526 115.616 123.3 121.791 126.923C128.255 130.755 137.922 132.154 140.616 140.115C138.321 138.816 136.392 136.988 134.064 135.754C131.459 134.466 128.554 135.556 125.982 136.36C130.749 140.313 139.197 139.917 140.849 147.041C137.878 145.555 135.616 142.57 132.068 142.427C128.133 142.053 124.175 140.996 121.359 138.045C120.461 138.023 118.654 137.979 117.756 137.946C123.543 144.63 132.523 148.902 135.483 157.711C136.847 162.281 137.867 167.864 135.084 172.081C134.818 166.575 134.762 160.662 131.392 155.982C128.454 151.589 123.598 149.133 119.164 146.513C118.975 154.121 119.707 162.006 124.152 168.447C123.033 167.82 121.47 167.732 120.782 166.531C117.634 161.158 117.501 154.782 116.126 148.88C115.239 145.202 112.478 142.438 109.773 139.95C109.685 147.724 113.831 154.54 117.212 161.257C120.416 168.238 120.183 177.091 116.048 183.61C115.738 178.325 117.999 172.984 116.248 167.798C114.64 162.853 111.913 158.35 109.385 153.824C107.179 156.907 105.283 160.376 104.84 164.186C105.073 168.282 109.163 171.024 109.041 175.263C107.19 173.149 105.405 170.969 103.487 168.921C103.465 173.601 104.729 178.137 105.405 182.74C102.833 181 102.024 177.895 101.281 175.087C99.5181 167.776 101.137 160.112 104.108 153.329C106.625 148.065 105.416 141.998 104.274 136.536C101.347 143.958 102.778 152.139 100.882 159.77C100.084 162.589 98.1988 165.783 94.9394 166.025C99.5514 160.86 100.361 153.659 99.2964 147.074C96.1478 151.016 93.0436 155.046 90.8152 159.594C89.3407 162.523 88.4316 165.727 86.5247 168.436C85.2276 160.266 90.1389 153.252 94.3629 146.788C91.7021 147.999 88.8418 149.122 86.8573 151.369C84.1854 154.099 83.3428 157.942 81.8683 161.334C80.4271 157.469 82.212 153.329 84.4515 150.135C87.7331 145.246 94.252 144.112 97.5226 139.168C94.0746 141.524 90.8485 144.2 87.2231 146.292C82.7774 149.067 77.5335 151.214 74.6842 155.861C71.9459 159.836 71.8128 164.803 70.7153 169.328C68.243 163.833 70.6266 157.337 73.4426 152.382C78.0102 146.149 84.3296 141.469 89.9837 136.272C84.7841 138.254 79.5513 140.159 74.1743 141.646C70.4048 142.471 68.0988 145.665 65.4713 148.164C65.9813 145.378 67.1343 142.504 69.7175 141.018C73.3428 138.816 77.5446 137.417 80.3162 134.015C75.1388 132.836 70.9481 135.964 67.0234 138.716C66.9237 136.272 69.2075 134.708 70.9481 133.387C78.4204 128.883 87.7886 127.452 94.119 121.12C98.9416 116.264 97.9993 108.964 97.833 102.753C97.7332 98.4367 95.9372 93.834 91.9349 91.7088C88.2764 89.4294 83.875 90.3213 79.8838 90.949C80.0169 90.5415 80.3051 89.7047 80.4382 89.2973C81.5357 88.9669 83.7087 88.3062 84.7952 87.9759C81.059 86.9518 77.7885 89.5946 74.263 90.3433C67.2119 92.1382 59.9059 93.1733 52.622 93.1072C53.7196 92.6888 55.9147 91.8739 57.0123 91.4555C54.285 90.8719 51.857 89.4734 49.939 87.4804C52.1674 87.15 54.3958 86.6325 56.6686 86.7646C58.6642 87.2491 60.183 88.7577 62.0123 89.6386C64.6731 89.7928 67.2119 88.8568 69.7507 88.1851C68.7973 87.2491 67.8549 86.3022 66.9347 85.3442C69.2629 84.9808 72.5556 86.6655 74.1964 84.3531C69.5844 82.3821 64.9392 80.2018 59.9391 79.42C55.3271 78.6823 50.9368 80.5432 46.6574 81.9196C47.2228 81.2039 48.3648 79.7944 48.9413 79.0787C45.0277 80.0257 41.5465 78.0656 38.531 75.8633C40.8148 75.2797 43.1319 74.4318 45.5266 74.6961C47.4335 75.2907 49.0521 76.502 50.8703 77.2838C54.795 77.1627 58.7085 76.8103 62.6221 76.5681C60.1387 74.2226 57.3116 72.0974 53.9413 71.2275C49.5178 69.8401 44.8171 70.5448 40.327 69.6089C42.4445 68.8601 44.6397 68.3315 46.8681 68.0342C43.1541 67.5167 41.1696 64.2243 39.5399 61.2292C41.6241 61.6476 43.8414 61.7797 45.7816 62.7047C48.4313 63.982 48.6087 68.3315 52.0788 68.1333C58.0433 68.6949 63.3981 71.4037 68.7529 73.8262C68.0323 68.783 64.3516 65.1272 61.3471 61.3063C58.1209 57.0889 52.0788 58.157 47.6109 56.3731L51.8127 55.6684C49.1519 53.7084 47.4889 50.8454 46.5133 47.7402C49.1852 48.7753 52.5776 49.3919 54.0078 52.1888C54.9613 53.9616 56.2806 55.4372 57.9546 56.5493C58.3759 53.1468 58.7529 49.5681 60.7595 46.6611C61.0034 50.3279 60.0611 54.336 61.9236 57.7275C63.5312 60.2381 65.8593 62.1541 67.7551 64.4335C64.9946 61.1411 64.8172 56.8136 66.0589 52.8605C67.5889 54.9416 69.4403 56.9788 69.9836 59.5664C69.9059 61.989 68.5201 64.6868 70.172 66.889C71.8461 69.73 73.4093 72.648 74.2408 75.8523C81.6466 78.5721 88.8307 81.8205 95.9261 85.2561C95.4937 77.9555 97.4228 69.9943 93.9416 63.2222C92.6999 60.106 88.8529 60.3152 86.4471 58.6305C85.0502 57.3201 84.0302 55.7014 82.977 54.1268C85.4493 54.4792 88.1988 54.347 90.3496 55.8005C92.0901 57.4853 93.4094 59.5224 95.017 61.3173C93.9638 54.8205 92.7443 47.7292 87.8218 42.8842C84.1965 39.1403 78.7308 36.8829 73.4869 37.94C70.2164 39.4156 68.9747 43.1374 66.7795 45.7361C66.9458 42.4767 68.3649 39.5257 69.6953 36.5966C66.9015 36.3984 66.0922 39.4045 64.2185 40.814C62.4669 41.9592 60.3604 42.3997 58.4314 43.1484C58.9746 40.2634 63.4536 37.2353 60.5489 34.5265C64.5068 34.7687 68.4647 34.6476 72.4226 34.4494C70.6931 32.4453 68.9414 30.4633 67.101 28.5693C63.8305 30.9698 59.8172 30.7936 56.0588 29.8136C57.1675 28.8886 58.2872 27.9857 59.4291 27.0938C58.2872 26.7414 55.9923 26.0477 54.8393 25.7064C56.5245 25.4751 58.2096 25.2549 59.8837 25.0457C58.1985 22.7112 56.9125 20.1236 56.081 17.3707C59.6176 18.7141 63.6199 20.4869 64.3627 24.6382C67.866 25.9266 70.7042 28.3491 73.0324 31.201C76.2918 35.4735 82.212 34.6696 86.8462 36.0681C85.8262 32.7096 84.263 29.5603 82.2896 26.6643C78.5645 28.8556 74.3849 27.7655 70.9592 25.5632C73.3539 24.5502 75.8151 23.6692 78.3206 22.9205C78.2319 22.3699 78.0656 21.2908 77.988 20.7402C79.3739 21.7533 80.7486 22.7663 82.1122 23.7904C79.5956 20.2667 79.8284 15.9613 81.2475 12.0522C82.6887 14.1444 84.2076 16.3026 84.6178 18.8573C84.3961 20.6631 83.8196 22.4139 83.5424 24.2198C84.7619 27.4682 87.1455 30.155 88.7088 33.2492C89.4072 27.8866 91.4804 22.8103 95.2166 18.8242Z" fill="url(#paint1_linear)"/>
<path d="M152.146 9.20025C167.745 6.3593 183.599 19.7272 183.565 35.4404C183.632 73.573 183.565 111.705 183.599 149.838C183.588 153.912 183.82 158.064 182.745 162.05C180.683 170.11 174.752 177.124 167.013 180.362C160.927 183.148 154.02 182.795 147.49 182.498C142.778 182.068 140.306 175.792 143.288 172.202C146.392 168.172 152.024 170.033 156.37 169.526C163.92 169.592 170.539 162.854 170.483 155.399C170.561 116.099 170.505 76.8103 170.516 37.5106C170.938 31.3662 167.202 25.1558 161.359 22.9535C158.033 21.522 154.186 22.3589 150.893 21.0375C146.126 18.5159 146.858 10.5987 152.146 9.20025Z" fill="url(#paint2_linear)"/>
<defs>
<linearGradient id="paint0_linear" x1="49.8977" y1="182.654" x2="49.8977" y2="8.82266" gradientUnits="userSpaceOnUse">
<stop stop-color="#5570FF"/>
<stop offset="1" stop-color="#4DD3FF"/>
</linearGradient>
<linearGradient id="paint1_linear" x1="103.182" y1="183.61" x2="103.182" y2="8" gradientUnits="userSpaceOnUse">
<stop stop-color="#5570FF"/>
<stop offset="1" stop-color="#4DD3FF"/>
</linearGradient>
<linearGradient id="paint2_linear" x1="162.801" y1="182.696" x2="162.801" y2="8.81689" gradientUnits="userSpaceOnUse">
<stop stop-color="#5570FF"/>
<stop offset="1" stop-color="#4DD3FF"/>
</linearGradient>
</defs>
</svg>
