<svg width="128" height="128" viewBox="0 0 128 128" fill="none" xmlns="http://www.w3.org/2000/svg">
<path fill-rule="evenodd" clip-rule="evenodd" d="M116.997 63.9985C116.997 77.4407 111.992 89.7141 103.745 99.0572C101.508 101.591 97.6572 99.8452 97.6572 96.4652V86.4007C97.6572 85.9337 97.6535 85.479 97.6459 85.0355C97.6186 83.4399 98.4958 81.9756 99.8027 81.0599C106.333 76.4845 108.79 68.3321 108.802 61.2013C108.786 45.1036 96.3758 31.744 80.3321 30.5282C80.2817 30.5244 80.2314 30.5165 80.1822 30.5052C79.749 30.4054 79.3324 30.3477 78.9452 30.3475C78.9444 30.3475 78.9438 30.3467 78.944 30.3459V30.3459C78.9443 30.3451 78.9437 30.3444 78.9429 30.3444C78.6827 30.3444 78.4273 30.3622 78.1719 30.3799C78.0034 30.3916 77.8349 30.4033 77.6648 30.41C76.8595 30.424 76.0495 30.4641 75.2477 30.5412C59.3777 31.9641 47.2159 45.2638 47.2031 61.1982C47.2088 61.7035 47.2271 62.2141 47.2578 62.7185C47.2574 62.7669 47.2548 62.8138 47.2523 62.8604V62.8605C47.2496 62.9109 47.2468 62.9613 47.2468 63.0138V67.3778L47.2263 68.4258C47.2112 69.193 46.9758 69.9397 46.5481 70.5767L39.4703 81.1198C37.7892 84.3243 39.3852 86.3222 42.9921 86.3697L43.2983 86.3736C45.4872 86.4019 47.2467 88.1843 47.2467 90.3733V96.2249C47.2467 99.9897 50.3329 103.094 54.1155 103.094L54.5026 103.103C56.6724 103.157 58.4033 104.932 58.4033 107.102V112.264C58.4033 114.638 56.3408 116.502 54.0086 116.057C30.4681 111.567 12.4507 91.5054 11.083 66.999C10.9907 65.3447 9.65637 63.9985 7.99951 63.9985V63.9985C6.34266 63.9985 4.99157 65.343 5.07443 66.9977C6.63617 98.1881 32.4199 122.997 63.9981 122.997C96.5821 122.997 122.997 96.5825 122.997 63.9985C122.997 32.4203 98.1877 6.63654 66.9974 5.07479C65.3426 4.99194 63.9981 6.34302 63.9981 7.99988V7.99988C63.9981 9.65673 65.3438 10.991 66.9981 11.0834C94.8727 12.6388 116.997 35.735 116.997 63.9985ZM68.9234 46.5195C72.0739 43.3689 76.347 41.599 80.8025 41.599C85.258 41.599 89.5311 43.3689 92.6816 46.5195C95.8321 49.67 97.6021 53.9431 97.6021 58.3986C97.6021 62.8541 95.8321 67.1271 92.6816 70.2777C89.5311 73.4282 85.258 75.1982 80.8025 75.1982C76.347 75.1982 72.0739 73.4282 68.9234 70.2777C65.7729 67.1271 64.0029 62.8541 64.0029 58.3986C64.0029 53.9431 65.7729 49.67 68.9234 46.5195ZM88.7219 50.4792C86.6215 48.3788 83.7729 47.1989 80.8025 47.1989C77.8322 47.1989 74.9835 48.3788 72.8831 50.4792C70.7828 52.5795 69.6028 55.4282 69.6028 58.3986C69.6028 61.3689 70.7828 64.2176 72.8831 66.318C74.9835 68.4183 77.8322 69.5983 80.8025 69.5983C83.7729 69.5983 86.6215 68.4183 88.7219 66.318C90.8223 64.2176 92.0022 61.3689 92.0022 58.3986C92.0022 55.4282 90.8223 52.5795 88.7219 50.4792ZM80.8023 63.9984C83.895 63.9984 86.4022 61.4913 86.4022 58.3986C86.4022 55.3058 83.895 52.7987 80.8023 52.7987C77.7096 52.7987 75.2024 55.3058 75.2024 58.3986C75.2024 61.4913 77.7096 63.9984 80.8023 63.9984Z" fill="url(#paint0_linear_577_119)"/>
<defs>
<linearGradient id="paint0_linear_577_119" x1="63.9981" y1="122.997" x2="63.9981" y2="4.99988" gradientUnits="userSpaceOnUse">
<stop stop-color="#5558FF"/>
<stop offset="1" stop-color="#00C0FF"/>
</linearGradient>
</defs>
</svg>
