<svg width="128" height="128" viewBox="0 0 128 128" fill="none" xmlns="http://www.w3.org/2000/svg">
<path d="M56.6353 11.6712C54.9708 10.5037 52.4708 10.9446 51.1421 12.3356C43.046 19.7191 34.991 27.1459 26.8882 34.5233C28.6073 34.5356 30.3197 34.5419 32.039 34.5356C34.1692 34.5294 36.3062 34.517 38.4363 34.5108C43.6008 29.7478 48.8269 25.0408 54.0051 20.2904C54.19 20.4828 54.5598 20.8679 54.738 21.0604C56.0394 22.3955 57.2517 23.7989 58.4367 25.2209C59.4162 26.2517 60.3477 27.3137 61.2929 28.3693C63.1628 30.3937 64.9916 32.4491 66.8341 34.4922C70.3548 34.5233 73.8684 34.5108 77.3827 34.4922C75.7179 32.6665 74.0603 30.8408 72.3755 29.0338C71.8341 28.4438 71.2998 27.8477 70.759 27.2515C74.5534 24.8483 78.3754 22.4762 82.1768 20.073C82.8688 21.1225 83.5673 22.1658 84.2522 23.2151C84.3964 23.4387 84.6771 23.8859 84.8136 24.1094C87.0191 27.5869 89.3206 31.0147 91.5332 34.4922C93.6222 34.5171 95.7182 34.5419 97.8137 34.5294C98.8823 34.517 99.9574 34.4984 101.033 34.4859C97.4165 28.7978 93.7181 23.1593 90.102 17.4773C88.9575 15.7758 87.9924 13.975 86.6908 12.3667C85.2797 10.7832 82.5399 10.7273 80.8275 11.9258C75.7868 15.099 70.6419 18.1356 65.6902 21.4081C63.5806 19.1353 61.4915 16.8439 59.4367 14.5401C58.5326 13.5589 57.6969 12.5157 56.6353 11.6712Z" fill="url(#paint0_linear_617_2)" stroke="url(#paint1_linear_617_2)" stroke-width="4"/>
<path d="M40.4382 34.6798C38.466 34.6861 36.4874 34.6986 34.5152 34.7048C32.9235 34.7111 31.3381 34.7048 29.7464 34.6924C25.878 34.8112 21.756 34.0419 18.1413 35.7869C13.6706 37.7758 10.7661 42.5667 11.0261 47.3889C11.1212 67.0907 10.8359 86.8044 11.1593 106.506C11.5271 109.733 13.4486 112.598 15.9472 114.643C16.1438 114.749 16.5369 114.974 16.7335 115.081C20.8619 117.708 25.9034 116.826 30.5327 116.963C35.5806 116.957 40.6284 116.97 45.6827 116.963H60.9087C66.3751 116.963 71.8412 116.97 77.308 116.957C86.4713 116.932 95.6347 117.02 104.799 116.92C110.899 116.807 116.346 111.559 116.531 105.53C116.613 100.057 116.562 94.5784 116.543 89.1058C116.131 87.6924 114.932 86.7355 113.575 86.2542C105.718 86.2542 97.8608 86.2854 90.0103 86.2477C86.7632 85.7475 83.7256 83.9651 81.9944 81.1752C81.696 80.6686 81.4171 80.156 81.1511 79.6306C79.2357 74.9524 81.2776 69.1479 85.774 66.7214C89.1794 64.6324 93.3138 65.5518 97.0811 65.2203C98.7488 65.089 99.795 63.6192 100.315 62.1869C100.48 60.1042 98.8312 57.9526 96.6115 58.0214C92.756 57.9839 88.748 57.6775 85.0702 59.0722C78.938 61.1799 74.0991 66.6714 73.0905 73.0322C72.2855 77.4727 73.4018 82.1321 75.9004 85.8787C76.8195 87.0486 77.7646 88.212 78.8744 89.2188C81.7025 91.4955 85.0702 93.1714 88.7292 93.5969C95.1216 93.9217 101.533 93.6528 107.937 93.7405L108.667 93.7717L108.99 93.7846C108.914 97.6807 109.086 101.59 108.914 105.487C108.724 107.832 106.505 109.696 104.145 109.633C96.821 109.683 89.4966 109.633 82.1721 109.658C76.693 109.646 71.2075 109.652 65.7219 109.658C60.6551 109.646 55.5881 109.652 50.5213 109.658C45.6192 109.646 40.7172 109.652 35.8152 109.652C31.7376 109.627 27.6663 109.689 23.5951 109.639C22.4219 109.683 21.3629 109.158 20.3292 108.682C19.8282 107.976 19.2575 107.3 18.8897 106.512C18.6233 105.38 18.5472 104.217 18.5535 103.06C18.5853 92.5959 18.5599 82.1321 18.5662 71.6688C18.6423 63.2189 18.414 54.7629 18.6804 46.3194V46.3131C18.953 44.2992 20.6145 42.5292 22.7009 42.3103C24.8697 42.1164 27.0576 42.2665 29.2327 42.2352C34.6991 42.2227 40.1719 42.2415 45.6446 42.229C50.2739 42.229 54.8969 42.2415 59.5262 42.229C64.3838 42.229 69.235 42.2415 74.0927 42.229C79.4199 42.229 84.753 42.2352 90.0862 42.229C94.3795 42.2227 98.6664 42.2477 102.96 42.2164C104.215 42.1789 105.458 42.3916 106.644 42.7856C107.843 43.8301 109.009 45.1435 108.958 46.8322C109.022 52.0985 108.946 57.371 108.984 62.6435C108.99 67.1589 108.952 71.6747 108.99 76.1905C108.94 77.235 109.434 78.1918 110.036 79.0174C112.193 80.9505 116.232 79.8871 116.492 76.8472C116.67 69.0231 116.518 61.1862 116.556 53.3619C116.537 50.2347 116.727 47.0949 116.321 43.9864C115.516 40.9531 113.55 38.3137 110.95 36.5312C107.202 34.1232 102.63 34.6674 98.3934 34.6548C97.3977 34.6674 96.402 34.6861 95.4129 34.6986C93.4727 34.7111 91.532 34.6861 89.5978 34.6611C86.0341 34.6298 82.4699 34.6423 78.9062 34.6486C78.1006 34.6548 77.3015 34.6548 76.4965 34.6611C73.2429 34.6798 69.99 34.6924 66.7302 34.6611C65.9375 34.6611 65.1385 34.6548 64.3395 34.6548C59.7102 34.6423 55.0872 34.6236 50.4578 34.6611C47.8832 34.6674 45.3085 34.6611 42.7339 34.6736C42.1568 34.6736 41.0089 34.6798 40.4382 34.6798Z" fill="url(#paint2_linear_617_2)"/>
<path d="M40.4382 34.6798C38.466 34.6861 36.4874 34.6986 34.5152 34.7048C32.9235 34.7111 31.3381 34.7048 29.7464 34.6924C25.878 34.8112 21.756 34.0419 18.1413 35.7869C13.6706 37.7758 10.7661 42.5667 11.0261 47.3889C11.1212 67.0907 10.8359 86.8044 11.1593 106.506C11.5271 109.733 13.4486 112.598 15.9472 114.643C16.1438 114.749 16.5369 114.974 16.7335 115.081C20.8619 117.708 25.9034 116.826 30.5327 116.963C35.5806 116.957 40.6284 116.97 45.6827 116.963H60.9087C66.3751 116.963 71.8412 116.97 77.308 116.957C86.4713 116.932 95.6347 117.02 104.799 116.92C110.899 116.807 116.346 111.559 116.531 105.53C116.613 100.057 116.562 94.5784 116.543 89.1058C116.131 87.6924 114.932 86.7355 113.575 86.2542C105.718 86.2542 97.8608 86.2854 90.0103 86.2477C86.7632 85.7475 83.7256 83.9651 81.9944 81.1752C81.696 80.6686 81.4171 80.156 81.1511 79.6306C79.2357 74.9524 81.2776 69.1479 85.774 66.7214C89.1794 64.6324 93.3138 65.5518 97.0811 65.2203C98.7488 65.089 99.795 63.6192 100.315 62.1869C100.48 60.1042 98.8312 57.9526 96.6115 58.0214C92.756 57.9839 88.748 57.6775 85.0702 59.0722C78.938 61.1799 74.0991 66.6714 73.0905 73.0322C72.2855 77.4727 73.4018 82.1321 75.9004 85.8787C76.8195 87.0486 77.7646 88.212 78.8744 89.2188C81.7025 91.4955 85.0702 93.1714 88.7292 93.5969C95.1216 93.9217 101.533 93.6528 107.937 93.7405L108.667 93.7717L108.99 93.7846C108.914 97.6807 109.086 101.59 108.914 105.487C108.724 107.832 106.505 109.696 104.145 109.633C96.821 109.683 89.4966 109.633 82.1721 109.658C76.693 109.646 71.2075 109.652 65.7219 109.658C60.6551 109.646 55.5881 109.652 50.5213 109.658C45.6192 109.646 40.7172 109.652 35.8152 109.652C31.7376 109.627 27.6663 109.689 23.5951 109.639C22.4219 109.683 21.3629 109.158 20.3292 108.682C19.8282 107.976 19.2575 107.3 18.8897 106.512C18.6233 105.38 18.5472 104.217 18.5535 103.06C18.5853 92.5959 18.5599 82.1321 18.5662 71.6688C18.6423 63.2189 18.414 54.7629 18.6804 46.3194V46.3131C18.953 44.2992 20.6145 42.5292 22.7009 42.3103C24.8697 42.1164 27.0576 42.2665 29.2327 42.2352C34.6991 42.2227 40.1719 42.2415 45.6446 42.229C50.2739 42.229 54.8969 42.2415 59.5262 42.229C64.3838 42.229 69.235 42.2415 74.0927 42.229C79.4199 42.229 84.753 42.2352 90.0862 42.229C94.3795 42.2227 98.6664 42.2477 102.96 42.2164C104.215 42.1789 105.458 42.3916 106.644 42.7856C107.843 43.8301 109.009 45.1435 108.958 46.8322C109.022 52.0985 108.946 57.371 108.984 62.6435C108.99 67.1589 108.952 71.6747 108.99 76.1905C108.94 77.235 109.434 78.1918 110.036 79.0174C112.193 80.9505 116.232 79.8871 116.492 76.8472C116.67 69.0231 116.518 61.1862 116.556 53.3619C116.537 50.2347 116.727 47.0949 116.321 43.9864C115.516 40.9531 113.55 38.3137 110.95 36.5312C107.202 34.1232 102.63 34.6674 98.3934 34.6548C97.3977 34.6674 96.402 34.6861 95.4129 34.6986C93.4727 34.7111 91.532 34.6861 89.5978 34.6611C86.0341 34.6298 82.4699 34.6423 78.9062 34.6486C78.1006 34.6548 77.3015 34.6548 76.4965 34.6611C73.2429 34.6798 69.99 34.6924 66.7302 34.6611C65.9375 34.6611 65.1385 34.6548 64.3395 34.6548C59.7102 34.6423 55.0872 34.6236 50.4578 34.6611C47.8832 34.6674 45.3085 34.6611 42.7339 34.6736C42.1568 34.6736 41.0089 34.6798 40.4382 34.6798Z" fill="url(#paint3_linear_617_2)"/>
<path d="M40.4382 34.6798C38.466 34.6861 36.4874 34.6986 34.5152 34.7048C32.9235 34.7111 31.3381 34.7048 29.7464 34.6924C25.878 34.8112 21.756 34.0419 18.1413 35.7869C13.6706 37.7758 10.7661 42.5667 11.0261 47.3889C11.1212 67.0907 10.8359 86.8044 11.1593 106.506C11.5271 109.733 13.4486 112.598 15.9472 114.643C16.1438 114.749 16.5369 114.974 16.7335 115.081C20.8619 117.708 25.9034 116.826 30.5327 116.963C35.5806 116.957 40.6284 116.97 45.6827 116.963H60.9087C66.3751 116.963 71.8412 116.97 77.308 116.957C86.4713 116.932 95.6347 117.02 104.799 116.92C110.899 116.807 116.346 111.559 116.531 105.53C116.613 100.057 116.562 94.5784 116.543 89.1058C116.131 87.6924 114.932 86.7355 113.575 86.2542C105.718 86.2542 97.8608 86.2854 90.0103 86.2477C86.7632 85.7475 83.7256 83.9651 81.9944 81.1752C81.696 80.6686 81.4171 80.156 81.1511 79.6306C79.2357 74.9524 81.2776 69.1479 85.774 66.7214C89.1794 64.6324 93.3138 65.5518 97.0811 65.2203C98.7488 65.089 99.795 63.6192 100.315 62.1869C100.48 60.1042 98.8312 57.9526 96.6115 58.0214C92.756 57.9839 88.748 57.6775 85.0702 59.0722C78.938 61.1799 74.0991 66.6714 73.0905 73.0322C72.2855 77.4727 73.4018 82.1321 75.9004 85.8787C76.8195 87.0486 77.7646 88.212 78.8744 89.2188C81.7025 91.4955 85.0702 93.1714 88.7292 93.5969C95.1216 93.9217 101.533 93.6528 107.937 93.7405L108.667 93.7717L108.99 93.7846C108.914 97.6807 109.086 101.59 108.914 105.487C108.724 107.832 106.505 109.696 104.145 109.633C96.821 109.683 89.4966 109.633 82.1721 109.658C76.693 109.646 71.2075 109.652 65.7219 109.658C60.6551 109.646 55.5881 109.652 50.5213 109.658C45.6192 109.646 40.7172 109.652 35.8152 109.652C31.7376 109.627 27.6663 109.689 23.5951 109.639C22.4219 109.683 21.3629 109.158 20.3292 108.682C19.8282 107.976 19.2575 107.3 18.8897 106.512C18.6233 105.38 18.5472 104.217 18.5535 103.06C18.5853 92.5959 18.5599 82.1321 18.5662 71.6688C18.6423 63.2189 18.414 54.7629 18.6804 46.3194V46.3131C18.953 44.2992 20.6145 42.5292 22.7009 42.3103C24.8697 42.1164 27.0576 42.2665 29.2327 42.2352C34.6991 42.2227 40.1719 42.2415 45.6446 42.229C50.2739 42.229 54.8969 42.2415 59.5262 42.229C64.3838 42.229 69.235 42.2415 74.0927 42.229C79.4199 42.229 84.753 42.2352 90.0862 42.229C94.3795 42.2227 98.6664 42.2477 102.96 42.2164C104.215 42.1789 105.458 42.3916 106.644 42.7856C107.843 43.8301 109.009 45.1435 108.958 46.8322C109.022 52.0985 108.946 57.371 108.984 62.6435C108.99 67.1589 108.952 71.6747 108.99 76.1905C108.94 77.235 109.434 78.1918 110.036 79.0174C112.193 80.9505 116.232 79.8871 116.492 76.8472C116.67 69.0231 116.518 61.1862 116.556 53.3619C116.537 50.2347 116.727 47.0949 116.321 43.9864C115.516 40.9531 113.55 38.3137 110.95 36.5312C107.202 34.1232 102.63 34.6674 98.3934 34.6548C97.3977 34.6674 96.402 34.6861 95.4129 34.6986C93.4727 34.7111 91.532 34.6861 89.5978 34.6611C86.0341 34.6298 82.4699 34.6423 78.9062 34.6486C78.1006 34.6548 77.3015 34.6548 76.4965 34.6611C73.2429 34.6798 69.99 34.6924 66.7302 34.6611C65.9375 34.6611 65.1385 34.6548 64.3395 34.6548C59.7102 34.6423 55.0872 34.6236 50.4578 34.6611C47.8832 34.6674 45.3085 34.6611 42.7339 34.6736C42.1568 34.6736 41.0089 34.6798 40.4382 34.6798Z" stroke="url(#paint4_linear_617_2)" stroke-width="4"/>
<path d="M40.4382 34.6798C38.466 34.6861 36.4874 34.6986 34.5152 34.7048C32.9235 34.7111 31.3381 34.7048 29.7464 34.6924C25.878 34.8112 21.756 34.0419 18.1413 35.7869C13.6706 37.7758 10.7661 42.5667 11.0261 47.3889C11.1212 67.0907 10.8359 86.8044 11.1593 106.506C11.5271 109.733 13.4486 112.598 15.9472 114.643C16.1438 114.749 16.5369 114.974 16.7335 115.081C20.8619 117.708 25.9034 116.826 30.5327 116.963C35.5806 116.957 40.6284 116.97 45.6827 116.963H60.9087C66.3751 116.963 71.8412 116.97 77.308 116.957C86.4713 116.932 95.6347 117.02 104.799 116.92C110.899 116.807 116.346 111.559 116.531 105.53C116.613 100.057 116.562 94.5784 116.543 89.1058C116.131 87.6924 114.932 86.7355 113.575 86.2542C105.718 86.2542 97.8608 86.2854 90.0103 86.2477C86.7632 85.7475 83.7256 83.9651 81.9944 81.1752C81.696 80.6686 81.4171 80.156 81.1511 79.6306C79.2357 74.9524 81.2776 69.1479 85.774 66.7214C89.1794 64.6324 93.3138 65.5518 97.0811 65.2203C98.7488 65.089 99.795 63.6192 100.315 62.1869C100.48 60.1042 98.8312 57.9526 96.6115 58.0214C92.756 57.9839 88.748 57.6775 85.0702 59.0722C78.938 61.1799 74.0991 66.6714 73.0905 73.0322C72.2855 77.4727 73.4018 82.1321 75.9004 85.8787C76.8195 87.0486 77.7646 88.212 78.8744 89.2188C81.7025 91.4955 85.0702 93.1714 88.7292 93.5969C95.1216 93.9217 101.533 93.6528 107.937 93.7405L108.667 93.7717L108.99 93.7846C108.914 97.6807 109.086 101.59 108.914 105.487C108.724 107.832 106.505 109.696 104.145 109.633C96.821 109.683 89.4966 109.633 82.1721 109.658C76.693 109.646 71.2075 109.652 65.7219 109.658C60.6551 109.646 55.5881 109.652 50.5213 109.658C45.6192 109.646 40.7172 109.652 35.8152 109.652C31.7376 109.627 27.6663 109.689 23.5951 109.639C22.4219 109.683 21.3629 109.158 20.3292 108.682C19.8282 107.976 19.2575 107.3 18.8897 106.512C18.6233 105.38 18.5472 104.217 18.5535 103.06C18.5853 92.5959 18.5599 82.1321 18.5662 71.6688C18.6423 63.2189 18.414 54.7629 18.6804 46.3194V46.3131C18.953 44.2992 20.6145 42.5292 22.7009 42.3103C24.8697 42.1164 27.0576 42.2665 29.2327 42.2352C34.6991 42.2227 40.1719 42.2415 45.6446 42.229C50.2739 42.229 54.8969 42.2415 59.5262 42.229C64.3838 42.229 69.235 42.2415 74.0927 42.229C79.4199 42.229 84.753 42.2352 90.0862 42.229C94.3795 42.2227 98.6664 42.2477 102.96 42.2164C104.215 42.1789 105.458 42.3916 106.644 42.7856C107.843 43.8301 109.009 45.1435 108.958 46.8322C109.022 52.0985 108.946 57.371 108.984 62.6435C108.99 67.1589 108.952 71.6747 108.99 76.1905C108.94 77.235 109.434 78.1918 110.036 79.0174C112.193 80.9505 116.232 79.8871 116.492 76.8472C116.67 69.0231 116.518 61.1862 116.556 53.3619C116.537 50.2347 116.727 47.0949 116.321 43.9864C115.516 40.9531 113.55 38.3137 110.95 36.5312C107.202 34.1232 102.63 34.6674 98.3934 34.6548C97.3977 34.6674 96.402 34.6861 95.4129 34.6986C93.4727 34.7111 91.532 34.6861 89.5978 34.6611C86.0341 34.6298 82.4699 34.6423 78.9062 34.6486C78.1006 34.6548 77.3015 34.6548 76.4965 34.6611C73.2429 34.6798 69.99 34.6924 66.7302 34.6611C65.9375 34.6611 65.1385 34.6548 64.3395 34.6548C59.7102 34.6423 55.0872 34.6236 50.4578 34.6611C47.8832 34.6674 45.3085 34.6611 42.7339 34.6736C42.1568 34.6736 41.0089 34.6798 40.4382 34.6798Z" stroke="url(#paint5_linear_617_2)" stroke-width="4"/>
<path d="M90.3394 71.1622C93.8401 69.8299 97.8669 73.257 97.0042 76.866C96.554 80.6439 91.2844 82.3828 88.564 79.7306C85.6212 77.3792 86.7122 72.2002 90.3394 71.1622Z" fill="url(#paint6_linear_617_2)"/>
<defs>
<linearGradient id="paint0_linear_617_2" x1="40.327" y1="31.7593" x2="54.094" y2="-6.0785" gradientUnits="userSpaceOnUse">
<stop stop-color="#FE0844"/>
<stop offset="1" stop-color="#FEB302"/>
</linearGradient>
<linearGradient id="paint1_linear_617_2" x1="40.327" y1="31.7593" x2="54.094" y2="-6.0785" gradientUnits="userSpaceOnUse">
<stop stop-color="#FE0844"/>
<stop offset="1" stop-color="#FEB302"/>
</linearGradient>
<linearGradient id="paint2_linear_617_2" x1="52.0081" y1="78.7477" x2="78.7442" y2="51.2409" gradientUnits="userSpaceOnUse">
<stop stop-color="#0072FF"/>
<stop offset="1" stop-color="#00E5A1"/>
</linearGradient>
<linearGradient id="paint3_linear_617_2" x1="12.5293" y1="113.533" x2="54.4307" y2="92.107" gradientUnits="userSpaceOnUse">
<stop stop-color="#F35C58"/>
<stop offset="1" stop-color="#B118F0"/>
</linearGradient>
<linearGradient id="paint4_linear_617_2" x1="52.0081" y1="78.7477" x2="78.7442" y2="51.2409" gradientUnits="userSpaceOnUse">
<stop stop-color="#0072FF"/>
<stop offset="1" stop-color="#00E5A1"/>
</linearGradient>
<linearGradient id="paint5_linear_617_2" x1="12.5293" y1="113.533" x2="54.4307" y2="92.107" gradientUnits="userSpaceOnUse">
<stop stop-color="#F35C58"/>
<stop offset="1" stop-color="#B118F0"/>
</linearGradient>
<linearGradient id="paint6_linear_617_2" x1="88.7303" y1="79.8094" x2="97.8853" y2="71.7333" gradientUnits="userSpaceOnUse">
<stop stop-color="#FE0844"/>
<stop offset="1" stop-color="#FEB302"/>
</linearGradient>
</defs>
</svg>
