<?xml version="1.0" encoding="UTF-8" ?>
<!DOCTYPE svg PUBLIC "-//W3C//DTD SVG 1.1//EN" "http://www.w3.org/Graphics/SVG/1.1/DTD/svg11.dtd">
<svg width="192pt" height="192pt" viewBox="0 0 192 192" version="1.1" xmlns="http://www.w3.org/2000/svg">
<g id="#098dffff">
<path fill="#098dff" opacity="1.00" d=" M 18.27 42.29 C 24.77 34.27 36.21 32.12 45.93 34.04 C 52.98 35.39 58.70 40.45 62.17 46.57 C 60.79 46.53 59.42 46.44 58.05 46.32 C 55.01 49.53 54.68 53.96 55.85 58.06 C 55.14 56.25 54.43 54.42 53.42 52.75 C 48.02 42.76 32.32 43.30 26.57 52.64 C 24.12 57.14 25.11 62.54 26.56 67.20 C 29.28 75.10 32.21 82.93 34.94 90.83 C 31.86 93.84 28.68 96.75 25.30 99.44 C 21.22 87.31 15.81 75.55 13.30 62.94 C 11.74 55.74 13.44 47.91 18.27 42.29 Z" />
</g>
<g id="#119effff">
<path fill="#119eff" opacity="1.00" d=" M 74.99 44.00 C 83.30 31.59 102.60 30.17 113.77 39.41 C 110.12 41.81 108.02 45.64 107.59 49.96 C 103.08 45.78 96.23 44.20 90.45 46.49 C 87.00 47.78 84.29 50.52 82.54 53.71 C 77.14 66.72 73.94 80.54 68.85 93.67 C 68.29 93.57 67.17 93.39 66.61 93.30 C 62.84 81.62 59.29 69.85 55.85 58.06 C 54.68 53.96 55.01 49.53 58.05 46.32 C 59.42 46.44 60.79 46.53 62.17 46.57 C 64.42 50.92 65.95 55.59 68.11 59.98 C 70.36 54.63 71.33 48.68 74.99 44.00 Z" />
</g>
<g id="#1bb3ffff">
<path fill="#1bb3ff" opacity="1.00" d=" M 133.08 43.06 C 137.18 37.87 143.34 34.26 149.98 33.70 C 155.43 33.14 160.93 34.19 165.97 36.27 C 162.61 39.04 158.62 42.06 158.52 46.84 C 151.28 43.83 142.27 46.63 138.56 53.67 C 133.63 66.28 130.52 79.56 126.13 92.38 C 125.98 94.04 123.00 94.13 122.87 92.37 C 119.72 83.07 116.92 73.66 113.88 64.32 C 112.56 60.40 111.63 56.27 109.49 52.68 C 108.89 51.75 108.26 50.84 107.59 49.96 C 108.02 45.64 110.12 41.81 113.77 39.41 C 116.23 41.97 118.54 44.72 120.12 47.93 C 122.27 51.80 122.82 56.29 124.89 60.20 C 127.94 54.64 128.88 47.99 133.08 43.06 Z" />
</g>
<g id="#24c6ffff">
<path fill="#24c6ff" opacity="1.00" d=" M 158.52 46.84 C 158.62 42.06 162.61 39.04 165.97 36.27 C 171.27 38.98 175.92 43.29 177.99 48.98 C 180.65 55.41 180.04 62.69 177.95 69.19 C 174.31 81.17 169.29 92.68 165.37 104.57 C 164.47 106.80 163.96 109.60 161.65 110.83 C 158.63 112.71 154.05 111.27 152.95 107.80 C 152.16 106.08 152.74 104.18 153.32 102.50 C 157.69 90.41 162.27 78.40 166.39 66.22 C 167.72 62.54 167.88 58.38 166.40 54.72 C 164.96 51.14 162.01 48.40 158.52 46.84 Z" />
</g>
<g id="#0000003c">
<path fill="#000000" opacity="0.24" d=" M 26.57 52.64 C 32.32 43.30 48.02 42.76 53.42 52.75 C 49.47 50.76 45.72 47.61 41.02 48.00 C 35.70 47.50 31.21 50.61 26.57 52.64 Z" />
<path fill="#000000" opacity="0.24" d=" M 90.45 46.49 C 96.23 44.20 103.08 45.78 107.59 49.96 C 108.26 50.84 108.89 51.75 109.49 52.68 C 104.96 50.36 100.34 47.36 94.98 48.10 C 90.08 47.81 86.48 51.46 82.54 53.71 C 84.29 50.52 87.00 47.78 90.45 46.49 Z" />
<path fill="#000000" opacity="0.24" d=" M 138.56 53.67 C 142.27 46.63 151.28 43.83 158.52 46.84 C 162.01 48.40 164.96 51.14 166.40 54.72 C 162.83 52.63 159.93 49.08 155.63 48.52 C 152.72 48.09 149.64 47.95 146.83 48.95 C 143.92 50.23 141.36 52.17 138.56 53.67 Z" />
<path fill="#000000" opacity="0.24" d=" M 100.85 146.04 C 107.39 156.79 121.69 161.11 133.48 157.62 C 139.65 155.91 144.94 151.82 148.75 146.73 C 148.06 151.59 143.75 154.51 139.96 156.98 C 131.49 162.46 120.07 162.70 111.31 157.75 C 106.71 155.16 101.42 151.83 100.85 146.04 Z" />
</g>
<g id="#12a0ffff">
<path fill="#12a0ff" opacity="1.00" d=" M 25.30 99.44 C 28.68 96.75 31.86 93.84 34.94 90.83 C 40.65 105.97 45.31 121.51 51.66 136.39 C 47.95 138.79 45.20 142.30 42.61 145.83 C 41.43 143.53 40.26 141.22 39.36 138.79 C 34.63 125.69 29.81 112.62 25.30 99.44 Z" />
</g>
<g id="#1db7ffff">
<path fill="#1db7ff" opacity="1.00" d=" M 92.89 110.08 C 93.43 107.67 96.71 106.89 98.44 108.55 C 99.46 110.01 99.90 111.76 100.48 113.42 C 102.84 120.94 105.46 128.38 107.82 135.89 C 105.14 138.47 102.43 141.01 99.69 143.53 C 98.60 140.92 97.50 138.31 96.00 135.91 C 94.01 139.40 92.81 143.26 90.76 146.71 C 80.28 162.64 54.06 162.20 43.37 146.71 C 43.18 146.49 42.80 146.05 42.61 145.83 C 45.20 142.30 47.95 138.79 51.66 136.39 C 55.48 143.94 64.50 148.15 72.71 145.92 C 78.29 144.51 82.66 139.96 84.58 134.64 C 87.52 126.51 89.95 118.21 92.89 110.08 Z" />
</g>
<g id="#27ccffff">
<path fill="#27ccff" opacity="1.00" d=" M 144.35 127.31 C 145.77 123.73 150.89 122.85 153.65 125.37 C 155.65 127.04 156.24 129.97 155.19 132.33 C 153.32 137.23 151.67 142.32 148.75 146.73 C 144.94 151.82 139.65 155.91 133.48 157.62 C 121.69 161.11 107.39 156.79 100.85 146.04 C 100.45 145.20 100.07 144.37 99.69 143.53 C 102.43 141.01 105.14 138.47 107.82 135.89 C 109.38 138.91 111.27 141.91 114.21 143.76 C 121.37 148.38 132.03 147.25 137.59 140.61 C 140.98 136.83 142.43 131.88 144.35 127.31 Z" />
</g>
<g id="#0000003b">
<path fill="#000000" opacity="0.23" d=" M 43.37 146.71 C 54.06 162.20 80.28 162.64 90.76 146.71 C 89.83 151.43 85.77 154.51 81.99 157.00 C 71.76 163.02 57.83 161.91 48.73 154.26 C 46.38 152.23 43.74 150.01 43.37 146.71 Z" />
</g>
</svg>
