<svg width="48" height="48" viewBox="0 0 48 48" fill="none" xmlns="http://www.w3.org/2000/svg">
<path d="M41.9254 1C42.8276 1.00005 43.3318 1.71438 43.438 3.14302L42.2984 9.87107H42.577L43.1741 9.37269H43.3333V9.52221C42.5106 10.1535 41.7145 11.8812 40.945 14.7053C40.653 17.1308 40.1621 19.3734 39.4721 21.4334C38.8617 23.5598 38.5566 25.5201 38.5566 27.3142L37.4022 30.8527C37.4022 31.1517 37.84 31.4507 38.7158 31.7497C38.5566 32.4475 38.3177 32.7963 37.9993 32.7963V32.9957H38.278V33.1452C38.2779 33.5107 37.8268 33.6934 36.9245 33.6934L37.0838 33.8927V34.5905H36.8051C36.9909 35.2882 37.3889 35.6371 37.9993 35.6371V35.9859H36.8051V36.1853C37.2031 36.1853 37.4022 36.4843 37.4022 37.0823L35.7304 37.7801L35.8896 37.9794V38.1289C35.8896 38.3615 35.6905 38.4778 35.2925 38.4778V38.6771C35.7967 38.6771 36.0488 38.7934 36.0488 39.026C35.3323 39.325 34.3902 40.8035 33.2226 43.4615C32.0284 45.8205 30.9934 47 30.1177 47H29.7992C29.1358 46.4684 28.5918 44.7075 28.1672 41.7172C26.4688 37.1654 25.6196 34.4908 25.6196 33.6934C25.6196 31.6335 25.0755 29.4406 23.9875 27.1148C23.6956 26.0849 23.4966 24.2838 23.3904 22.7222H22.6739C20.8694 26.1444 19.9273 29.125 19.8477 31.052C19.3435 32.1817 18.9454 33.5439 18.6535 35.1387C19.7415 35.5042 20.2856 35.853 20.2856 36.1853V36.3846C19.4364 36.2517 18.8393 36.0025 18.4943 35.6371C18.1228 36.5341 17.6318 39.026 17.0215 43.1127C16.5438 45.0065 15.9467 45.7222 15.2302 45.7222C13.2133 44.8916 11.5282 43.7606 10.1748 41.8667C9.9625 41.8667 9.61751 40.9198 9.13985 39.026C8.84793 39.026 8.6489 38.0791 8.54275 36.1853C7.53432 33.494 6.84436 30.4207 6.47283 26.9653V21.7822H6.3136L5.5971 21.9816V21.7822C5.5971 21.5497 5.83593 21.4334 6.3136 21.4334L6.15438 18.4431V16.1008L5 8.62514V5.43554C5.50421 3.44209 6.37995 2.44534 7.6272 2.44529L8.1049 2.94367L7.62723 2.79415C9.56446 5.45219 10.7056 7.69487 11.0506 9.52221H12.404V9.87107H11.369V10.2698C11.7671 11.7982 12.059 12.5623 12.2447 12.5623H12.5632L13.2797 12.3629L13.4389 12.5623L13.5982 12.3629L13.7574 12.5623V12.7118C13.2266 13.1105 12.8684 13.6588 12.6826 14.3565H12.5632V14.7053H12.8419C13.2134 20.2539 13.9033 24.4569 14.9118 27.3142L15.5089 27.8126H15.8273C16.2254 27.8126 17.0613 25.8689 18.3351 21.9816C19.1578 20.2207 19.7548 18.9313 20.1264 17.6023L19.9672 17.0541C20.7898 15.7583 21.639 15.1104 22.5147 15.1104H22.7934C23.3507 15.1104 23.7487 15.4759 23.9876 16.2068C24.7306 17.3033 25.3277 18.6923 25.7789 20.8852L28.008 26.0682C28.2999 26.4338 28.4458 26.8491 28.4459 27.3142C29.2685 29.2745 30.0115 31.0354 30.675 31.6667H31.1527C31.71 31.6667 32.453 28.7761 33.3818 23.9252C33.541 23.9253 33.9789 22.6295 34.6954 20.0379V19.8386L33.9381 19.4897L33.341 19.6891H32.5847V19.2904L34.0973 19.1408H35.2925C36.4336 14.8549 37.4818 11.5324 38.4372 9.17334C38.7556 4.32254 39.1935 1.89712 39.7508 1.89708L41.9254 1" fill="url(#paint0_linear)"/>
<defs>
<linearGradient id="paint0_linear" x1="24.219" y1="47" x2="24.219" y2="1" gradientUnits="userSpaceOnUse">
<stop stop-color="#FD5900"/>
<stop offset="1" stop-color="#FFDE00"/>
</linearGradient>
</defs>
</svg>
