<svg width="256" height="256" viewBox="0 0 256 256" fill="none" xmlns="http://www.w3.org/2000/svg">
<path d="M183.079 151.916C180.098 150.385 165.249 143.111 162.487 142.126C159.725 141.087 157.702 140.595 155.705 143.657C153.682 146.693 147.939 153.447 146.135 155.498C144.384 157.522 142.607 157.768 139.626 156.264C121.906 147.404 110.284 140.458 98.6077 120.414C95.5177 115.081 101.698 115.464 107.468 103.952C108.452 101.928 107.96 100.205 107.194 98.6738C106.429 97.1425 100.413 82.3211 97.8967 76.2777C95.463 70.3984 92.9472 71.2188 91.115 71.1094C89.3649 71 87.3686 71 85.3451 71C83.3215 71 80.0673 71.7657 77.3054 74.7464C74.5435 77.7817 66.75 85.083 66.75 99.9044C66.75 114.726 77.5515 129.082 79.0282 131.106C80.5596 133.129 100.276 163.538 130.547 176.636C149.689 184.895 157.182 185.606 166.753 184.184C172.578 183.309 184.583 176.91 187.071 169.827C189.559 162.772 189.559 156.729 188.821 155.471C188.083 154.131 186.059 153.365 183.079 151.916Z" fill="url(#paint0_linear_625_112)"/>
<path d="M231.299 84.6C225.649 71.175 217.549 59.125 207.224 48.775C196.899 38.45 184.849 30.325 171.399 24.7C157.649 18.925 143.049 16 127.999 16H127.499C112.349 16.075 97.6745 19.075 83.8745 24.975C70.5495 30.675 58.5995 38.775 48.3745 49.1C38.1495 59.425 30.1245 71.425 24.5745 84.8C18.8245 98.65 15.9245 113.375 15.9995 128.525C16.0745 145.875 20.2245 163.1 27.9995 178.5V216.5C27.9995 222.85 33.1495 228 39.4995 228H77.5245C92.9245 235.775 110.149 239.925 127.499 240H128.024C142.999 240 157.524 237.1 171.199 231.425C184.574 225.85 196.599 217.85 206.899 207.625C217.224 197.4 225.349 185.45 231.024 172.125C236.924 158.325 239.924 143.65 239.999 128.5C240.074 113.275 237.124 98.5 231.299 84.6ZM193.524 194.1C175.999 211.45 152.749 221 127.999 221H127.574C112.499 220.925 97.5245 217.175 84.2995 210.125L82.1995 209H46.9995V173.8L45.8745 171.7C38.8245 158.475 35.0745 143.5 34.9995 128.425C34.8995 103.5 44.4245 80.1 61.8995 62.475C79.3495 44.85 102.674 35.1 127.599 35H128.024C140.524 35 152.649 37.425 164.074 42.225C175.224 46.9 185.224 53.625 193.824 62.225C202.399 70.8 209.149 80.825 213.824 91.975C218.674 103.525 221.099 115.775 221.049 128.425C220.899 153.325 211.124 176.65 193.524 194.1Z" fill="url(#paint1_linear_625_112)" stroke="url(#paint2_linear_625_112)" stroke-width="8"/>
<defs>
<linearGradient id="paint0_linear_625_112" x1="128" y1="184.766" x2="128" y2="71" gradientUnits="userSpaceOnUse">
<stop stop-color="#02AA93"/>
<stop offset="1" stop-color="#67FF80"/>
</linearGradient>
<linearGradient id="paint1_linear_625_112" x1="127.999" y1="240" x2="127.999" y2="16" gradientUnits="userSpaceOnUse">
<stop stop-color="#00B59C"/>
<stop offset="1" stop-color="#9CFFAC"/>
</linearGradient>
<linearGradient id="paint2_linear_625_112" x1="127.999" y1="240" x2="127.999" y2="16" gradientUnits="userSpaceOnUse">
<stop stop-color="#00B59C"/>
<stop offset="1" stop-color="#9CFFAC"/>
</linearGradient>
</defs>
</svg>
