<svg width="128" height="128" viewBox="0 0 128 128" fill="none" xmlns="http://www.w3.org/2000/svg">
<path d="M3 56.6771C3 57.7817 3.89543 58.6771 5 58.6771H51.3844C52.489 58.6771 53.3844 57.7817 53.3844 56.6771V17.6106C53.3844 16.3755 52.276 15.4356 51.0575 15.6375L4.67308 23.3227C3.70784 23.4827 3 24.3174 3 25.2958V56.6771ZM12.8928 33.6595C12.8928 32.6811 13.6006 31.8463 14.5659 31.6864L41.1804 27.2778C42.3989 27.0759 43.5072 28.0158 43.5072 29.2509V46.7999C43.5072 47.9045 42.6118 48.7999 41.5072 48.7999H14.8928C13.7882 48.7999 12.8928 47.9045 12.8928 46.7999V33.6595Z" fill="url(#paint0_linear_641_68)"/>
<path d="M3 71.4141C3 70.3095 3.89543 69.4141 5 69.4141H51.3844C52.489 69.4141 53.3844 70.3095 53.3844 71.4141V110.481C53.3844 111.716 52.276 112.656 51.0575 112.454L4.67308 104.768C3.70784 104.608 3 103.774 3 102.795V71.4141ZM12.8928 94.4317C12.8928 95.4101 13.6006 96.2449 14.5659 96.4048L41.1804 100.813C42.3989 101.015 43.5072 100.075 43.5072 98.8403V81.2912C43.5072 80.1866 42.6118 79.2912 41.5072 79.2912H14.8928C13.7882 79.2912 12.8928 80.1866 12.8928 81.2912V94.4317Z" fill="url(#paint1_linear_641_68)"/>
<path fill-rule="evenodd" clip-rule="evenodd" d="M66.5695 12.2417C65.6043 12.4017 64.8965 13.2364 64.8965 14.2148V55.5825C64.8965 56.6871 65.7919 57.5825 66.8965 57.5825H122.503C123.607 57.5825 124.503 56.6871 124.503 55.5825V5.00049C124.503 3.76537 123.394 2.82548 122.176 3.0274L66.5695 12.2417ZM114.627 47.7053H76.8059C75.7013 47.7053 74.8059 46.8098 74.8059 45.7053V22.5784C74.8059 21.6 75.5137 20.7652 76.4789 20.6053L112.315 14.6677C113.534 14.4658 114.642 15.4056 114.642 16.6408V47.6897C114.642 47.6983 114.635 47.7053 114.627 47.7053V47.7053Z" fill="url(#paint2_linear_641_68)"/>
<path fill-rule="evenodd" clip-rule="evenodd" d="M67.0676 115.755C66.1024 115.595 65.3945 114.76 65.3945 113.782V72.4141C65.3945 71.3095 66.29 70.4141 67.3945 70.4141H123.001C124.105 70.4141 125.001 71.3095 125.001 72.4141V122.996C125.001 124.231 123.892 125.171 122.674 124.969L67.0676 115.755ZM77.3039 80.2913C76.1993 80.2913 75.3039 81.1867 75.3039 82.2913V105.418C75.3039 106.397 76.0118 107.231 76.977 107.391L112.813 113.329C114.032 113.531 115.14 112.591 115.14 111.356V82.2913C115.14 81.1867 114.245 80.2913 113.14 80.2913H77.3039Z" fill="url(#paint3_linear_641_68)"/>
<defs>
<linearGradient id="paint0_linear_641_68" x1="53" y1="39.5" x2="3" y2="41.5" gradientUnits="userSpaceOnUse">
<stop stop-color="#FF2424"/>
<stop offset="1" stop-color="#FF8D8D"/>
</linearGradient>
<linearGradient id="paint1_linear_641_68" x1="53" y1="91" x2="3" y2="87.5" gradientUnits="userSpaceOnUse">
<stop stop-color="#5558FF"/>
<stop offset="1" stop-color="#00C0FF"/>
</linearGradient>
<linearGradient id="paint2_linear_641_68" x1="123" y1="32" x2="65" y2="35.5" gradientUnits="userSpaceOnUse">
<stop stop-color="#02AA93"/>
<stop offset="1" stop-color="#67FF80"/>
</linearGradient>
<linearGradient id="paint3_linear_641_68" x1="125" y1="98" x2="65" y2="93" gradientUnits="userSpaceOnUse">
<stop stop-color="#FD5900"/>
<stop offset="1" stop-color="#FFDE00"/>
</linearGradient>
</defs>
</svg>
