<svg width="128" height="128" viewBox="0 0 128 128" fill="none" xmlns="http://www.w3.org/2000/svg">
<path d="M98.0538 6.0941V6H97.1615H30.2385C27.8977 6 26 7.89769 26 10.2385V43.7C26 63.0565 40.6612 79.047 59.4615 81.1603V113.523H43.6231C41.2823 113.523 39.3846 115.421 39.3846 117.762C39.3846 120.102 41.2823 122 43.6231 122H83.7769C86.1177 122 88.0154 120.102 88.0154 117.762C88.0154 115.421 86.1177 113.523 83.7769 113.523H67.9385V81.1603C86.7389 79.047 101.4 63.0565 101.4 43.7V10.2385C101.4 8.20379 99.9661 6.50389 98.0538 6.0941ZM66.7551 14.4769H92.9231V43.7C92.9231 59.8128 79.8128 72.9231 63.7 72.9231C47.5872 72.9231 34.4769 59.8128 34.4769 43.7V14.4769H57.8193L52.9866 28.975C52.5561 30.2675 52.7726 31.6884 53.5692 32.7935C54.3657 33.8985 55.645 34.5538 57.0077 34.5538H64.5116L59.6789 49.0518C58.9386 51.2725 60.139 53.6729 62.3595 54.4132C64.5805 55.1532 66.9806 53.9532 67.7209 51.7326L74.4132 31.6556C74.8439 30.3631 74.6272 28.9422 73.8306 27.837C73.0341 26.732 71.7549 26.0769 70.3923 26.0769H62.8884L66.7551 14.4769Z" fill="url(#paint0_linear_673_77)" stroke="url(#paint1_linear_673_77)" stroke-width="4"/>
<defs>
<linearGradient id="paint0_linear_673_77" x1="63.7" y1="121.108" x2="63.7" y2="6.89231" gradientUnits="userSpaceOnUse">
<stop stop-color="#FD3A84"/>
<stop offset="1" stop-color="#FFA68D"/>
</linearGradient>
<linearGradient id="paint1_linear_673_77" x1="63.7" y1="121.108" x2="63.7" y2="6.89231" gradientUnits="userSpaceOnUse">
<stop stop-color="#FD3A84"/>
<stop offset="1" stop-color="#FFA68D"/>
</linearGradient>
</defs>
</svg>
