<svg width="64" height="64" viewBox="0 0 64 64" fill="none" xmlns="http://www.w3.org/2000/svg">
<path d="M55.2607 3.59274C55.9205 2.83542 56.9798 2.40653 57.9035 2.83928C59.1089 3.39954 59.5333 4.84076 60.1503 5.97287C58.9948 7.16294 58.2708 8.71621 57.2615 10.0338C57.0618 9.55467 56.8514 9.07942 56.6409 8.60416C50.7314 14.6666 45.0465 21.0303 39.1762 27.1507C38.2418 27.6028 37.0542 27.3091 36.3588 26.5054C35.5956 25.3192 36.291 23.8625 37.2646 23.1323C37.4893 22.9236 37.6926 22.6995 37.8816 22.4561C36.6904 21.3974 35.1533 20.926 33.634 20.8371C34.0335 19.2568 35.2389 18.1749 35.9593 16.784C37.7176 17.1781 39.3581 18.0977 40.7383 19.338C45.5744 14.087 50.4211 8.83986 55.2607 3.59274Z" fill="#1BB5FF"/>
<path d="M57.2615 10.0338C58.2708 8.71621 58.9948 7.16294 60.1503 5.97287C61.2594 8.3646 62.1546 10.8761 62.686 13.4919C62.7894 14.0947 62.9285 14.6936 63.0141 15.3002C61.8836 16.6139 61.1417 18.2484 59.9613 19.5157C59.8792 19.6046 59.7116 19.7862 59.626 19.875C55.7993 24.5928 52.0581 29.3995 48.2171 34.1056C48.5702 34.2563 48.9446 34.3375 49.3405 34.3491L49.8826 34.4418C49.3262 35.5739 48.6379 36.621 47.9282 37.6488C46.6015 37.3242 45.0572 37.5908 43.9338 36.6287C43.1742 35.8676 43.1421 34.5577 43.8696 33.7618C48.5416 28.0007 53.2172 22.2436 57.8856 16.4787C58.2565 15.9609 58.902 15.4239 58.6417 14.6743C58.335 13.1519 57.8535 11.6759 57.3221 10.2308L57.2615 10.0338Z" fill="#21C2FF"/>
<path d="M40.1142 39.005C40.1463 37.1233 42.2612 36.3312 43.6021 37.3088C44.4937 37.6874 45.2998 38.2593 46.0701 38.8698C46.2377 39.032 46.573 39.3566 46.737 39.5189C45.9025 40.6703 45.1 41.8527 44.2084 42.95C43.1528 41.1881 40.2034 41.4431 40.1142 39.005Z" fill="#21C2FF"/>
<path opacity="0.24" d="M62.6861 13.492C63.5099 14.0252 63.3958 15.3119 63.5598 16.2237C65.2432 26.9807 62.0584 38.6573 54.6973 46.2305C53.5668 47.6408 52.0689 48.5797 50.7564 49.7504C50.2785 50.9212 50.4069 52.2542 49.9433 53.4288C48.1494 58.8266 42.5144 62.3312 37.3039 61.0793C36.1662 60.6697 34.2225 60.8359 34.1227 59.1048C34.5007 59.4101 34.918 59.6844 35.403 59.7192C37.5571 60.3645 39.8575 60.6002 42.033 59.9201C45.7206 58.788 48.827 55.4805 49.74 51.4196C49.9433 50.6237 49.8506 49.7736 50.0824 48.9854C50.6102 48.2358 51.5089 47.9731 52.1259 47.3317C60.7994 39.8667 64.9793 27.0503 63.0142 15.3003C62.9286 14.6936 62.7895 14.0947 62.6861 13.492Z" fill="black"/>
<path opacity="0.24" d="M29.8536 21.78C31.0199 21.1347 32.3252 20.8063 33.634 20.8372C35.1533 20.926 36.6904 21.3974 37.8816 22.4561C37.6926 22.6995 37.4893 22.9237 37.2646 23.1323C36.2304 22.062 34.7432 21.7722 33.363 21.8186C32.4643 21.892 31.3765 22.062 31.0234 23.113C30.6133 22.6918 30.2103 22.2552 29.8536 21.78Z" fill="black"/>
<path opacity="0.24" d="M0.712524 49.3022C2.04993 50.6391 3.20188 52.2311 4.7497 53.2975C7.9666 55.4265 12.4246 55.3569 15.4382 52.8299C16.2621 52.1151 16.8898 51.1801 17.6779 50.4266C18.352 50.786 19.0118 51.1801 19.7037 51.4969C22.5568 52.8802 25.5989 53.823 28.7053 54.2403C30.6704 54.5146 32.6569 54.5571 34.6362 54.5069C34.515 54.8623 34.3794 55.214 34.2368 55.5617C29.6218 55.5501 24.9498 54.8237 20.6951 52.799C19.8071 52.4281 18.9761 51.8833 18.0453 51.6399C17.0039 52.4977 16.23 53.6993 15.078 54.4064C12.3497 56.2108 8.82254 56.2031 5.93731 54.8237C3.8474 53.7573 2.35307 51.779 0.748188 50.0518C0.741055 49.8625 0.723224 49.4877 0.712524 49.3022Z" fill="black"/>
<path d="M59.9613 19.5157C61.1418 18.2484 61.8836 16.614 63.0142 15.3003C64.9792 27.0503 60.7994 39.8667 52.1259 47.3317C51.5089 47.9731 50.6102 48.2358 50.0824 48.9854C49.8505 49.7736 49.9433 50.6237 49.74 51.4196C48.827 55.4806 45.7206 58.788 42.033 59.9201C39.8575 60.6002 37.5571 60.3645 35.403 59.7192C36.1163 58.4094 36.8545 57.0956 37.7854 55.9519C37.9138 55.9558 38.1741 55.9674 38.3061 55.9713C38.7875 56.0215 39.2797 56.006 39.7612 55.9326C42.1649 55.6351 44.2049 53.8036 45.4175 51.6128C46.8441 48.8463 46.0416 45.2606 44.2085 42.9501C45.1001 41.8527 45.9025 40.6704 46.7371 39.5189C47.9175 40.6974 48.6736 42.2507 49.3548 43.7885C50.8206 42.6255 52.4372 40.0483 53.5855 38.5298C53.8744 38.1473 53.8449 38.951 54.0803 38.5298C52.026 38.2477 54.5939 40.9284 52.5432 40.6386C53.2529 39.6108 51.9868 38.9935 52.5432 37.8613C52.2436 38.4023 53.0282 37.9502 52.5432 37.8613C51.6801 39.0089 53.2672 36.6095 52.5432 37.8613C53.3741 37.3745 58.2459 31.8183 58.2459 31.8183C59.1196 30.9605 57.2544 28.7851 58.2459 28.0008C58.8771 27.4637 59.248 25.7868 59.7473 25.0642C59.9078 23.2212 59.9542 21.3665 59.9613 19.5157ZM52.5432 37.8613C52.7001 37.8807 58.0889 31.8028 58.2459 31.8183C58.895 31.8569 56.2522 35.4039 56.8657 35.0716C57.1545 34.5423 57.3507 33.9627 57.6039 33.4102L57.6075 33.414C57.8393 32.8924 58.0925 32.3785 58.2459 31.8183C54.8756 35.0021 52.9426 35.8908 52.5432 37.8613Z" fill="#26CBFF"/>
<path d="M25.3635 20.2421C27.9563 17.1124 32.2075 15.8257 35.9593 16.784C35.2389 18.175 34.0335 19.2568 33.634 20.8372C32.3252 20.8062 31.0198 21.1347 29.8536 21.7799C30.2103 22.2552 30.6133 22.6918 31.0234 23.113C31.1696 23.2637 31.4549 23.565 31.5976 23.7157C30.5455 24.5619 29.9392 25.8409 29.2973 27.0464C28.1774 25.8524 27.0932 24.616 25.9484 23.4491C25.0568 22.7111 24.5896 21.2738 25.3635 20.2421Z" fill="#15A7FF"/>
<path opacity="0.28" d="M15.1708 41.0336C14.0331 38.2825 15.7485 35.2339 17.7315 33.5183C18.3271 34.067 18.9155 34.6311 19.3685 35.3266C18.7515 35.1103 17.9419 34.5384 17.3927 35.203C15.8306 36.6481 15.2599 38.8891 15.1708 41.0336Z" fill="black"/>
<path opacity="0.28" d="M8.69772 44.7004C10.3989 44.4067 12.4959 44.6153 13.5659 46.2845C12.2142 45.9522 10.8804 45.1949 9.46093 45.4924C7.93094 45.8093 6.32249 46.6555 5.67697 48.2899C5.37739 48.0039 5.06712 47.7103 4.86383 47.3316C5.90879 46.1338 7.14277 44.9785 8.69772 44.7004Z" fill="black"/>
<path opacity="0.28" d="M41.6264 45.5543C42.3896 47.3278 41.2305 49.082 40.7419 50.7396C40.3139 52.3392 39.433 53.792 39.219 55.4535C39.3546 55.5733 39.6256 55.8128 39.7611 55.9326C39.2797 56.006 38.7875 56.0215 38.306 55.9713C39.3403 52.9806 40.3781 49.99 41.4088 46.9955C41.5657 46.5319 41.6406 46.0527 41.6264 45.5543Z" fill="black"/>
<path opacity="0.23" d="M25.9484 23.4491C27.0932 24.616 28.1774 25.8524 29.2973 27.0464C29.9892 27.8385 30.7702 28.5378 31.4336 29.357C31.348 29.4613 31.1768 29.6661 31.0912 29.7665C29.4899 27.8385 27.7245 26.0766 26.0768 24.2026C26.0447 24.0132 25.9805 23.6385 25.9484 23.4491Z" fill="#010B11"/>
<path d="M29.2973 27.0464C29.9392 25.8409 30.5455 24.5619 31.5976 23.7157C33.1241 25.6129 35.189 27.0734 36.3017 29.3067C36.3945 30.2843 35.831 31.088 35.2175 31.7178C30.3886 36.9688 25.5276 42.1811 20.7058 47.4321C20.9876 47.6523 21.2943 47.8224 21.6259 47.9421C21.1088 49.2018 20.3813 50.3377 19.7037 51.4969C19.0118 51.18 18.352 50.7859 17.6779 50.4266C16.8898 51.18 16.2621 52.1151 15.4382 52.8299C12.4246 55.3569 7.9666 55.4264 4.74969 53.2974C5.47368 51.9412 6.12276 50.442 7.37457 49.5572C9.89959 50.9521 13.0059 49.7581 14.7321 47.4901C14.5502 47.3162 14.1935 46.9646 14.0117 46.7868C14.1722 46.8332 14.4896 46.9298 14.65 46.9762C14.7606 47.1771 14.9889 47.5789 15.103 47.7799C16.098 46.6439 16.7007 45.1486 17.8313 44.1362C18.9797 42.95 20.1174 41.5745 20.4383 39.8319C20.7914 38.2438 20.2564 36.594 19.3684 35.3266C18.9155 34.6311 18.327 34.067 17.7314 33.5183C18.6409 32.4519 19.3292 31.1884 20.1709 30.0602C22.1609 31.938 23.8657 34.322 24.2152 37.2431C26.462 34.7084 28.7873 32.2471 31.0912 29.7665C31.1768 29.6661 31.348 29.4613 31.4336 29.357C30.7702 28.5378 29.9892 27.8385 29.2973 27.0464Z" fill="#17ADFF"/>
<path d="M15.0352 29.9327C15.7949 29.1483 16.5224 27.993 17.7065 28.078C18.7906 28.2403 19.429 29.3145 20.1708 30.0602C19.3292 31.1885 18.6408 32.4519 17.7314 33.5184C15.7485 35.2339 14.033 38.2825 15.1707 41.0336C15.7414 42.3357 16.879 43.1857 17.8313 44.1363C16.7007 45.1486 16.098 46.6439 15.103 47.7799C14.9888 47.579 14.7606 47.1771 14.65 46.9762C14.4895 46.9298 14.1721 46.8332 14.0116 46.7869C13.9011 46.6594 13.6764 46.4082 13.5658 46.2846C12.4959 44.6154 10.3989 44.4067 8.6977 44.7004C7.14274 44.9786 5.90877 46.1339 4.86381 47.3317C5.06709 47.7103 5.37737 48.004 5.67695 48.2899C6.18338 48.7999 6.76114 49.2095 7.37456 49.5572C6.12275 50.4421 5.47366 51.9413 4.74968 53.2975C3.20186 52.231 2.04991 50.6391 0.712507 49.3022C-0.318185 48.317 -0.168396 46.4005 0.762437 45.3959C2.26746 43.7808 3.6548 41.9261 5.60562 40.9254C7.14274 40.114 8.87959 39.8706 10.5736 39.9401C10.4488 37.9077 10.702 35.7826 11.6507 33.9936C12.4674 32.3631 13.8868 31.2657 15.0352 29.9327Z" fill="#12A2FF"/>
<path d="M38.0707 44.8394C38.8981 43.2398 41.2483 43.916 41.6264 45.5542C41.6406 46.0527 41.5657 46.5318 41.4088 46.9955C40.3781 49.99 39.3403 52.9806 38.306 55.9712C38.1741 55.9673 37.9137 55.9558 37.7853 55.9519C36.8545 57.0956 36.1163 58.4093 35.403 59.7192C34.9179 59.6844 34.5007 59.41 34.1226 59.1048C33.2061 58.0963 33.766 56.6435 34.2368 55.5616C34.3794 55.2139 34.5149 54.8623 34.6362 54.5068C32.6568 54.557 30.6704 54.5145 28.7053 54.2402C29.3187 53.0579 30.3137 52.088 30.7203 50.7936C30.5848 50.6623 30.3137 50.3957 30.1782 50.2604C32.1647 50.4034 34.1654 50.3107 36.1377 50.0247C36.8973 48.3517 37.311 46.5125 38.0707 44.8394Z" fill="#22C4FF"/>
<path d="M21.626 47.9421C24.3186 49.2636 27.2359 50.0248 30.1782 50.2605C30.3137 50.3957 30.5848 50.6623 30.7203 50.7937C30.3137 52.0881 29.3187 53.0579 28.7053 54.2402C25.5989 53.8229 22.5568 52.8802 19.7037 51.4969C20.3813 50.3377 21.1088 49.2018 21.626 47.9421Z" fill="#1CB7FF"/>
</svg>
