<svg width="226" height="222" viewBox="0 0 226 222" fill="none" xmlns="http://www.w3.org/2000/svg">
<path d="M205.567 78.079C209.327 88.2469 211.396 99.2129 211.435 110.663V110.998C211.435 122.57 209.363 133.651 205.566 143.918C202.926 151.057 199.451 157.81 195.247 164.06L195.24 164.071C193.483 166.693 191.59 169.231 189.577 171.674C183.137 179.486 175.48 186.294 166.88 191.822L166.878 191.823C163.709 193.862 160.42 195.723 157.02 197.389L157.011 197.393C143.784 203.896 128.841 207.561 112.999 207.561C97.1561 207.561 82.2134 203.896 68.9863 197.393L68.9777 197.389C65.5748 195.721 62.2818 193.86 59.1151 191.823C50.4035 186.219 42.6539 179.303 36.1622 171.361L36.1579 171.356C34.1478 168.902 32.2594 166.342 30.4977 163.689L30.4932 163.683C26.4032 157.538 23.0164 150.911 20.4274 143.908L20.427 143.906C16.6316 133.645 14.5625 122.569 14.5625 111C14.5625 57.7958 58.5068 14.4384 112.999 14.4384C140.334 14.4384 165.032 25.3574 182.862 42.9733L182.863 42.9743C187.999 48.0475 192.562 53.6776 196.442 59.7578L196.449 59.7691C200.117 65.4946 203.182 71.6275 205.566 78.0776L205.567 78.079Z" stroke="url(#paint0_linear_640_154)" stroke-width="20"/>
<path fill-rule="evenodd" clip-rule="evenodd" d="M130.624 118.916C131.623 118.916 132.622 118.999 133.621 119.164C136.074 119.494 138.481 120.113 140.706 121.061C142.977 121.928 144.976 123.33 146.474 125.145C147.201 126.094 147.791 127.166 148.155 128.28C148.7 129.93 148.972 131.621 148.927 133.354C148.972 135.086 148.7 136.777 148.155 138.427C147.791 139.541 147.201 140.614 146.474 141.562C144.976 143.377 142.977 144.78 140.706 145.646C138.481 146.595 136.074 147.214 133.621 147.544C132.668 147.709 131.668 147.791 130.715 147.791H67.1768C64.7697 147.791 62.4535 148.658 60.773 150.225C59.0926 151.751 58.0935 153.855 58.0935 156.041C58.0935 158.228 59.0926 160.331 60.773 161.858C62.4535 163.425 64.7697 164.291 67.1768 164.291H130.76C130.806 164.291 130.896 164.291 130.942 164.291C132.758 164.25 134.621 164.126 136.437 163.838C140.479 163.301 144.385 162.27 148.109 160.744C153.241 158.681 157.692 155.464 161.098 151.38C163.051 148.905 164.55 146.141 165.549 143.254C166.594 140.036 167.139 136.695 167.093 133.354C167.139 130.013 166.594 126.671 165.549 123.454C164.55 120.566 163.051 117.802 161.098 115.327C157.692 111.244 153.241 108.026 148.109 105.964C144.385 104.438 140.479 103.406 136.437 102.87C134.621 102.581 132.758 102.458 130.942 102.416C130.828 102.416 130.71 102.416 130.597 102.416H95.3578C95.0672 102.387 94.772 102.375 94.4722 102.375C93.473 102.334 92.4739 102.251 91.4747 102.086C89.0222 101.798 86.6151 101.137 84.3897 100.23C82.1189 99.3225 80.1205 97.92 78.6218 96.1462C77.8951 95.1975 77.3047 94.125 76.9414 93.0112C76.3964 91.3612 76.1239 89.6287 76.1693 87.9375C76.1239 86.205 76.3964 84.4725 76.9414 82.8225C77.3047 81.7088 77.8951 80.6363 78.6218 79.6875C80.1205 77.9137 82.1189 76.5113 84.3897 75.6038C86.6151 74.6963 89.0222 74.0363 91.4747 73.7475C92.4285 73.5825 93.4276 73.5 94.3814 73.5H157.919C160.326 73.5 162.643 72.6337 164.323 71.0662C166.003 69.54 167.003 67.4362 167.003 65.25C167.003 63.0638 166.003 60.96 164.323 59.3925C162.643 57.8663 160.326 57 157.919 57H94.336C94.2905 57 94.1997 57 94.1543 57C92.3376 57 90.4755 57.165 88.6589 57.4538C84.6168 57.99 80.711 59.0213 76.9868 60.5475C71.8547 62.5688 67.4039 65.8275 63.9976 69.9113C62.0447 72.3863 60.546 75.1088 59.5468 78.0375C58.5022 81.255 57.9572 84.555 58.0026 87.9375C57.9572 91.2787 58.5022 94.62 59.5468 97.7962C60.546 100.725 62.0447 103.489 63.9976 105.923C67.4039 110.006 71.8547 113.265 76.9868 115.327C80.711 116.812 84.6168 117.844 88.6589 118.421C90.4755 118.669 92.3376 118.834 94.1543 118.875C94.2133 118.875 94.2724 118.875 94.336 118.875L94.3814 118.916H130.624Z" fill="url(#paint1_linear_640_154)" stroke="url(#paint2_linear_640_154)" stroke-width="4"/>
<defs>
<linearGradient id="paint0_linear_640_154" x1="112.999" y1="215.061" x2="112.999" y2="6.93841" gradientUnits="userSpaceOnUse">
<stop stop-color="#02AA93"/>
<stop offset="1" stop-color="#67FF80"/>
</linearGradient>
<linearGradient id="paint1_linear_640_154" x1="112.548" y1="164.291" x2="112.548" y2="57" gradientUnits="userSpaceOnUse">
<stop stop-color="#02AA93"/>
<stop offset="1" stop-color="#67FF80"/>
</linearGradient>
<linearGradient id="paint2_linear_640_154" x1="112.548" y1="164.291" x2="112.548" y2="57" gradientUnits="userSpaceOnUse">
<stop stop-color="#02AA93"/>
<stop offset="1" stop-color="#67FF80"/>
</linearGradient>
</defs>
</svg>
