<svg width="226" height="222" viewBox="0 0 226 222" fill="none" xmlns="http://www.w3.org/2000/svg">
<path fill-rule="evenodd" clip-rule="evenodd" d="M96.4849 137.23C96.4849 133.093 100.12 129.732 104.597 129.732C109.07 129.732 112.705 133.093 112.705 137.23V163.477C112.705 165.388 111.933 167.187 110.516 168.576C109.136 169.96 107.192 170.827 105.162 170.975C102.243 171.162 99.2863 171.201 96.3672 171.162C93.933 171.088 91.5411 170.936 89.1069 170.6C86.3902 170.261 83.7159 169.699 81.0792 168.911C78.8098 168.275 76.6204 167.374 74.5535 166.29C72.284 165.088 70.2171 163.625 68.3903 161.94C66.5681 160.29 65.0662 158.378 63.8514 156.314C62.5519 154.142 61.582 151.777 61.0123 149.378C60.3249 146.604 60 143.792 60 140.979C60 138.17 60.3249 135.318 61.0123 132.584C61.6197 130.146 62.5519 127.786 63.8514 125.569C65.1085 123.51 66.6482 121.633 68.4326 119.948C70.2971 118.259 72.3641 116.8 74.6759 115.598C76.6628 114.549 78.7721 113.687 80.9615 113.051C83.5134 112.298 86.1077 111.775 88.702 111.401C91.1739 111.061 93.6505 110.874 96.1223 110.839C99.0415 110.761 101.961 110.8 104.88 110.987H132.894C133.747 110.987 134.556 110.874 135.366 110.726C136.176 110.574 136.986 110.386 137.758 110.086C138.733 109.751 139.665 109.298 140.555 108.775C141.327 108.327 142.057 107.839 142.744 107.278C143.436 106.712 144.044 106.115 144.571 105.44C145.178 104.726 145.706 103.977 146.148 103.189C147.123 101.5 147.853 99.7014 148.258 97.8291C148.907 94.7899 149.232 91.681 149.19 88.5677C149.152 85.6069 148.747 82.6417 148.018 79.7941C147.49 77.8086 146.676 75.9711 145.583 74.2077C144.651 72.7099 143.474 71.3601 142.094 70.1975C140.597 68.8826 138.893 67.7984 137.071 66.9362C136.421 66.6358 135.734 66.4094 135.004 66.2962C134.312 66.109 133.624 65.9958 132.894 65.9958H112.705V95.9916C112.705 100.128 109.07 103.489 104.597 103.489C100.12 103.489 96.4849 100.128 96.4849 95.9916V58.4979C96.4849 54.3614 100.12 51 104.597 51H132.974C133.017 51 133.055 51 133.135 51C135.041 51.0392 136.948 51.2613 138.77 51.7141C140.677 52.0885 142.504 52.6851 144.246 53.4732C147.49 54.9754 150.489 56.8868 153.121 59.1728C155.678 61.3847 157.867 63.897 159.61 66.6706C161.516 69.6707 162.896 72.8971 163.786 76.2716C164.798 80.2426 165.368 84.3311 165.405 88.4154C165.448 92.5779 165.043 96.7013 164.153 100.79C163.423 104.09 162.204 107.278 160.462 110.238C159.572 111.775 158.555 113.273 157.382 114.662C156.248 116.012 154.991 117.249 153.611 118.411C152.189 119.574 150.692 120.623 149.068 121.524C147.405 122.495 145.626 123.323 143.799 124.032C142.095 124.633 140.315 125.121 138.488 125.421C136.746 125.761 134.919 125.948 133.097 125.983C133.055 125.983 133.017 125.983 132.974 125.983H104.597C104.395 125.983 104.23 125.983 104.028 125.983C101.513 125.796 99.0415 125.761 96.5272 125.796C94.7051 125.87 92.8783 125.983 91.0938 126.244C89.3094 126.471 87.5673 126.845 85.9053 127.333C84.7705 127.673 83.6782 128.121 82.6235 128.683C81.6065 129.21 80.7167 129.845 79.8645 130.594C79.177 131.234 78.5697 131.983 78.08 132.806C77.515 133.747 77.1101 134.796 76.8229 135.845C76.418 137.53 76.2155 139.255 76.2155 140.979C76.2155 142.707 76.418 144.393 76.8229 146.082C77.0677 147.166 77.515 148.181 78.08 149.156C78.5273 149.94 79.1347 150.693 79.8645 151.329C80.6743 152.078 81.5689 152.753 82.5812 153.279C83.6358 153.841 84.7705 154.29 85.9476 154.629C87.7321 155.152 89.5118 155.526 91.381 155.753C93.0808 155.979 94.7852 156.092 96.4849 156.166V137.23Z" fill="url(#paint0_linear_640_157)" stroke="url(#paint1_linear_640_157)" stroke-width="4"/>
<path d="M113 209C167.124 209 211 165.124 211 111C211 56.8761 167.124 13 113 13C58.8761 13 15 56.8761 15 111C15 165.124 58.8761 209 113 209Z" stroke="url(#paint2_linear_640_157)" stroke-width="20"/>
<defs>
<linearGradient id="paint0_linear_640_157" x1="165.096" y1="51.7619" x2="47.0173" y2="154.469" gradientUnits="userSpaceOnUse">
<stop stop-color="#FE7970"/>
<stop offset="1" stop-color="#DC3282"/>
</linearGradient>
<linearGradient id="paint1_linear_640_157" x1="165.096" y1="51.7619" x2="47.0173" y2="154.469" gradientUnits="userSpaceOnUse">
<stop stop-color="#FE7970"/>
<stop offset="1" stop-color="#DC3282"/>
</linearGradient>
<linearGradient id="paint2_linear_640_157" x1="210.42" y1="14.2426" x2="15.9705" y2="207.074" gradientUnits="userSpaceOnUse">
<stop stop-color="#FE7970"/>
<stop offset="1" stop-color="#DC3282"/>
</linearGradient>
</defs>
</svg>
