<svg width="226" height="222" viewBox="0 0 226 222" fill="none" xmlns="http://www.w3.org/2000/svg">
<path d="M205.567 78.079C209.327 88.2469 211.396 99.2129 211.435 110.663V110.998C211.435 122.57 209.363 133.651 205.566 143.918C202.926 151.057 199.451 157.81 195.247 164.06L195.24 164.071C193.483 166.693 191.59 169.231 189.577 171.674C183.137 179.486 175.48 186.294 166.88 191.822L166.878 191.823C163.709 193.862 160.42 195.723 157.02 197.389L157.011 197.393C143.784 203.896 128.841 207.561 112.999 207.561C97.1561 207.561 82.2134 203.896 68.9863 197.393L68.9777 197.389C65.5748 195.721 62.2818 193.86 59.1151 191.823C50.4035 186.219 42.6539 179.303 36.1622 171.361L36.1579 171.356C34.1478 168.902 32.2594 166.342 30.4977 163.689L30.4932 163.683C26.4032 157.538 23.0164 150.911 20.4274 143.908L20.427 143.906C16.6316 133.645 14.5625 122.569 14.5625 111C14.5625 57.7958 58.5068 14.4384 112.999 14.4384C140.334 14.4384 165.032 25.3574 182.862 42.9733L182.863 42.9743C187.999 48.0475 192.562 53.6776 196.442 59.7578L196.449 59.7691C200.117 65.4946 203.182 71.6275 205.566 78.0776L205.567 78.079Z" stroke="url(#paint0_linear_672_39)" stroke-width="22"/>
<path d="M63 74V147.671L113 104.7L163 147.671V74" stroke="url(#paint1_linear_672_39)" stroke-width="22" stroke-linecap="round" stroke-linejoin="round"/>
<defs>
<linearGradient id="paint0_linear_672_39" x1="112.999" y1="215.061" x2="112.999" y2="6.9384" gradientUnits="userSpaceOnUse">
<stop stop-color="#5570FF"/>
<stop offset="1" stop-color="#4DD3FF"/>
</linearGradient>
<linearGradient id="paint1_linear_672_39" x1="113" y1="147.671" x2="113" y2="74" gradientUnits="userSpaceOnUse">
<stop stop-color="#5570FF"/>
<stop offset="1" stop-color="#4DD3FF"/>
</linearGradient>
</defs>
</svg>
