<svg width="64" height="64" viewBox="0 0 64 64" fill="none" xmlns="http://www.w3.org/2000/svg">
<path d="M19.0001 6C15.5522 6 12.2456 7.36963 9.80763 9.80757C7.36964 12.2455 6 15.5521 6 18.9999C6 22.4476 7.36964 25.7542 9.80763 28.1922C12.2456 30.6301 15.5522 31.9997 19.0001 31.9997C15.5522 31.9997 12.2456 33.3694 9.80763 35.8073C7.36964 38.2453 6 41.5518 6 44.9996C6 48.4474 7.36964 51.754 9.80763 54.1919C12.2456 56.6299 15.5522 57.9995 19.0001 57.9995C22.4479 57.9995 25.7545 56.6299 28.1925 54.1919C30.6305 51.754 32.0001 48.4474 32.0001 44.9996C31.995 44.703 31.9798 44.4066 31.9544 44.1109C31.9696 44.1127 31.9849 44.1144 32.0001 44.1161C32.0103 44.1161 32.0204 44.1161 32.0306 44.1161C32.0102 44.4104 32.0005 44.7047 32.0001 44.9996C32.0001 48.4474 33.369 51.7545 35.807 54.1924C38.245 56.6304 41.5516 58 44.9994 58C48.4473 58 51.7539 56.6304 54.1919 54.1924C56.6298 51.7545 57.9995 48.4479 57.9995 45.0001C57.9995 41.5523 56.6298 38.2458 54.1919 35.8078C51.7539 33.3699 48.4473 32.0003 44.9994 32.0003C44.9842 32.002 44.969 32.0037 44.9537 32.0055V32.0003C44.969 32.0003 44.9842 32.0003 44.9994 32.0003C48.4473 32.0003 51.7539 30.6306 54.1919 28.1927C56.6298 25.7547 57.9995 22.4482 57.9995 19.0004C57.9995 15.5526 56.6298 12.246 54.1919 9.80809C51.7539 7.37014 48.4473 6.00052 44.9994 6.00052C41.7046 6.00061 38.5327 7.25176 36.1251 9.501C33.7175 11.7502 32.2537 14.8298 32.0298 18.1169C32.0196 18.1169 32.0095 18.1169 31.9993 18.1169C31.9841 18.1169 31.9689 18.1169 31.9536 18.1169C31.7298 14.8327 30.2683 11.7556 27.8641 9.50691C25.46 7.2582 22.292 6.00423 19.0001 6ZM44.9747 13.7339C45.8455 13.7252 46.7045 13.9354 47.473 14.345C48.2415 14.7547 48.8948 15.3508 49.3729 16.0787C49.8511 16.8065 50.1388 17.6428 50.2097 18.5107C50.2806 19.3787 50.1324 20.2505 49.7787 21.0463C48.2551 24.6005 46.9369 28.2118 44.3083 31.4774C41.6823 34.7404 37.1791 37.1999 31.9998 37.1999C28.8918 37.1999 28.9238 37.3397 28.0845 38.3273C27.2454 39.3148 25.8568 42.2951 23.763 47.0819C23.5021 47.7259 23.1148 48.3111 22.6239 48.803C22.133 49.2948 21.5486 49.6833 20.905 49.9454C20.2615 50.2076 19.5719 50.3381 18.8771 50.3293C18.1823 50.3205 17.4963 50.1726 16.8596 49.8942C16.2229 49.6158 15.6485 49.2127 15.1702 48.7086C14.6919 48.2045 14.3196 47.6096 14.075 46.9592C13.8305 46.3088 13.7188 45.6159 13.7466 44.9216C13.7743 44.2273 13.9409 43.5456 14.2366 42.9167C16.2703 38.268 17.4788 34.7476 20.1568 31.5939C22.8374 28.4401 27.3068 26.7995 31.9998 26.7995C34.6209 26.7995 35.0632 26.3806 36.2095 24.9562C37.356 23.5317 38.6391 20.6446 40.2213 16.9532C40.6101 16.0093 41.268 15.2006 42.1132 14.6281C42.9584 14.0555 43.9539 13.7449 44.9747 13.7339ZM19.0006 13.7999C20.3797 13.7999 21.7023 14.3478 22.6775 15.323C23.6527 16.2981 24.2006 17.6208 24.2006 18.9999C24.2006 20.379 23.6527 21.7016 22.6775 22.6768C21.7023 23.652 20.3797 24.1998 19.0006 24.1998C17.6214 24.1998 16.2988 23.652 15.3236 22.6768C14.3484 21.7016 13.8006 20.379 13.8006 18.9999C13.8006 17.6208 14.3484 16.2981 15.3236 15.323C16.2988 14.3478 17.6214 13.7999 19.0006 13.7999ZM45.0007 39.7997C46.3798 39.7997 47.7025 40.3475 48.6777 41.3227C49.6528 42.2979 50.2007 43.6205 50.2007 44.9996C50.2007 46.3787 49.6528 47.7013 48.6777 48.6765C47.7025 49.6517 46.3798 50.1996 45.0007 50.1996C43.6215 50.1996 42.2989 49.6517 41.3237 48.6765C40.3485 47.7013 39.8007 46.3787 39.8007 44.9996C39.8007 43.6205 40.3485 42.2979 41.3237 41.3227C42.2989 40.3475 43.6215 39.7997 45.0007 39.7997Z" fill="url(#paint0_linear)"/>
<defs>
<linearGradient id="paint0_linear" x1="31.9997" y1="58" x2="31.9997" y2="6" gradientUnits="userSpaceOnUse">
<stop stop-color="#FD5900"/>
<stop offset="1" stop-color="#FFDE00"/>
</linearGradient>
</defs>
</svg>
