<svg width="64" height="64" viewBox="0 0 64 64" fill="none" xmlns="http://www.w3.org/2000/svg">
<path d="M29.5862 2.24776C32.1829 1.74373 34.9992 1.96501 37.3322 3.31728C42.7812 6.46849 48.2302 9.6197 53.6752 12.7832C56.9869 14.7133 59.0922 18.5897 58.9963 22.4908C58.9724 25.9166 59.0323 29.3382 58.9724 32.76C58.9644 34.0179 57.7979 35.0957 56.5795 34.9932C55.4209 34.9727 54.3743 33.9196 54.3903 32.7189C54.3224 29.0597 54.4182 25.4003 54.3503 21.741C54.1226 19.6716 52.8762 17.6636 51.0426 16.717C45.8213 13.7175 40.616 10.6933 35.4107 7.67325C33.4532 6.47259 30.8606 6.43161 28.8751 7.58309C23.4901 10.6728 18.101 13.7585 12.7039 16.8359C11.146 17.7129 10.1353 19.4093 9.7318 21.1508C9.4961 23.0891 9.7997 25.0561 9.576 26.9944C9.1685 29.0186 6.20432 29.3833 5.31346 27.5516C4.75818 26.0846 5.13369 24.4455 5.02184 22.9088C4.86204 19.7454 6.05651 16.545 8.2776 14.3404C9.4441 13.1315 10.9582 12.3857 12.3844 11.5661C17.0863 8.87389 21.7922 6.18575 26.4902 3.4894C27.4609 2.93209 28.4916 2.46494 29.5862 2.24776Z" fill="url(#paint0_linear)" stroke="url(#paint1_linear)" stroke-width="2"/>
<path d="M6.64115 34.112C7.87601 33.6732 9.36895 34.5755 9.55958 35.9166C9.68263 37.0772 9.59129 38.246 9.60719 39.4108C9.48017 41.8879 10.8182 44.4512 12.9624 45.6036C19.5774 49.5695 26.1924 53.5394 32.7956 57.53C34.0106 58.1616 34.3759 59.9292 33.5699 61.0365C32.8671 62.0741 31.386 62.2997 30.3894 61.586C23.8617 57.6817 17.3539 53.7404 10.8222 49.8361C8.71385 48.6713 6.99056 46.7889 6.00188 44.5373C4.80275 42.0561 5.00128 39.2181 5.02908 36.5318C4.95363 35.4614 5.63261 34.4032 6.64115 34.112Z" fill="url(#paint2_linear)" stroke="url(#paint3_linear)" stroke-width="2"/>
<path d="M19.0667 29.398C21.7022 28.1969 25.1042 29.8392 25.8099 32.6518C26.6027 35.2811 24.8255 38.2773 22.1596 38.8493C20.0991 39.4041 17.8906 38.3733 16.7406 36.635C15.1071 34.1586 16.3051 30.455 19.0667 29.398Z" fill="url(#paint4_linear)"/>
<path d="M30.0667 29.398C32.7022 28.1969 36.1042 29.8392 36.8099 32.6518C37.6027 35.2811 35.8255 38.2773 33.1596 38.8493C31.0991 39.4041 28.8906 38.3733 27.7406 36.635C26.1071 34.1586 27.3051 30.455 30.0667 29.398Z" fill="url(#paint5_linear)"/>
<path d="M40.889 29.4756C43.6114 28.0997 47.1932 29.86 47.8695 32.8172C48.4889 35.3725 46.8398 38.1985 44.2745 38.8188C42.3897 39.3779 40.3655 38.5916 39.0871 37.1677C37.0584 34.7783 37.9877 30.6943 40.889 29.4756Z" fill="url(#paint6_linear)"/>
<defs>
<linearGradient id="paint0_linear" x1="5.00791" y1="18.0111" x2="59.009" y2="18.0111" gradientUnits="userSpaceOnUse">
<stop stop-color="#FF4910"/>
<stop offset="1" stop-color="#FF7A00"/>
</linearGradient>
<linearGradient id="paint1_linear" x1="5.00791" y1="18.0111" x2="59.009" y2="18.0111" gradientUnits="userSpaceOnUse">
<stop stop-color="#FF4910"/>
<stop offset="1" stop-color="#FF7A00"/>
</linearGradient>
<linearGradient id="paint2_linear" x1="5.00425" y1="47.5851" x2="34.0048" y2="47.5851" gradientUnits="userSpaceOnUse">
<stop stop-color="#A93AFF"/>
<stop offset="1" stop-color="#FF81FF"/>
</linearGradient>
<linearGradient id="paint3_linear" x1="5.00425" y1="47.5851" x2="34.0048" y2="47.5851" gradientUnits="userSpaceOnUse">
<stop stop-color="#A93AFF"/>
<stop offset="1" stop-color="#FF81FF"/>
</linearGradient>
<linearGradient id="paint4_linear" x1="21" y1="39" x2="21" y2="29.0001" gradientUnits="userSpaceOnUse">
<stop stop-color="#5570FF"/>
<stop offset="1" stop-color="#4DD3FF"/>
</linearGradient>
<linearGradient id="paint5_linear" x1="32" y1="39" x2="32" y2="29.0001" gradientUnits="userSpaceOnUse">
<stop stop-color="#5570FF"/>
<stop offset="1" stop-color="#4DD3FF"/>
</linearGradient>
<linearGradient id="paint6_linear" x1="43.0001" y1="38.9999" x2="43.0001" y2="29" gradientUnits="userSpaceOnUse">
<stop stop-color="#5570FF"/>
<stop offset="1" stop-color="#4DD3FF"/>
</linearGradient>
</defs>
</svg>
