<svg width="128" height="128" viewBox="0 0 128 128" fill="none" xmlns="http://www.w3.org/2000/svg">
<path fill-rule="evenodd" clip-rule="evenodd" d="M58.6668 51.7707C52.4615 51.2374 46.4082 49.7787 40.7042 47.4507C40.0642 51.1627 39.6508 54.9067 39.4588 58.6667H58.6668V51.7707ZM69.3335 51.7734C75.5335 51.24 81.5895 49.7867 87.3042 47.4667C87.9388 51.1734 88.3495 54.9147 88.5415 58.6667H69.3335V51.7734ZM58.6668 78.896C52.6135 79.4134 46.7042 80.8134 41.1228 83.04C40.2455 78.5174 39.6908 73.9334 39.4588 69.3334H58.6668V78.896ZM69.3335 78.8934C75.3868 79.4134 81.2962 80.8134 86.8775 83.04C87.7548 78.5147 88.3095 73.9334 88.5415 69.3334H69.3335V78.8934ZM58.6668 89.608C53.5468 90.136 48.5602 91.4214 43.8615 93.4054C44.8668 96.3867 46.1042 99.2907 47.5468 102.107C48.6668 104.267 49.9735 106.347 51.4668 108.293C52.7202 109.92 54.1335 111.413 55.7068 112.72C56.6242 113.467 57.6108 114.101 58.6668 114.637V89.608ZM69.3335 89.608C74.4535 90.1387 79.4402 91.4294 84.1362 93.416C83.1308 96.392 81.8962 99.2934 80.4535 102.107C79.3335 104.267 78.0268 106.347 76.5335 108.293C75.2802 109.92 73.8668 111.413 72.2935 112.72C71.3762 113.467 70.3895 114.101 69.3335 114.637V89.608ZM58.6668 41.0587C53.2642 40.4987 48.0082 39.0934 43.0908 36.9174C44.2402 33.1227 45.7308 29.4374 47.5468 25.8934C48.6668 23.7334 49.9735 21.6534 51.4668 19.7067C52.7202 18.08 54.1335 16.5867 55.7068 15.28C56.6242 14.5334 57.6108 13.8987 58.6668 13.3627V41.0587ZM69.3335 41.0587C74.7308 40.5014 79.9895 39.1067 84.9175 36.944C83.7682 33.144 82.2748 29.448 80.4535 25.8934C79.3335 23.7334 78.0268 21.6534 76.5335 19.7067C75.2802 18.08 73.8668 16.5867 72.2935 15.28C71.3762 14.5334 70.3895 13.8987 69.3335 13.3627V41.0587ZM115.725 58.6667C114.843 50.128 111.856 41.9574 107.075 34.8774L105.6 36.1867C102.981 38.5147 100.187 40.6027 97.2348 42.4107C98.3095 47.768 98.9708 53.208 99.2215 58.6667H115.725ZM115.725 69.3334C114.773 78.5387 111.379 87.3174 105.933 94.7654C103.075 92.1894 100 89.8987 96.7362 87.9494C96.7788 87.7707 96.8162 87.592 96.8535 87.4134C98.1548 81.4694 98.9415 75.4134 99.2215 69.3334H115.725ZM12.2748 69.3334C13.2268 78.544 16.6242 87.3227 22.0722 94.7734C24.9282 92.1974 28.0002 89.904 31.2668 87.9547C31.2215 87.7734 31.1842 87.5947 31.1468 87.4134C29.8455 81.4694 29.0588 75.4134 28.7788 69.3334H12.2748ZM39.7628 109.987C35.9868 108.016 32.4482 105.565 29.2348 102.688C30.8748 101.208 32.5975 99.8427 34.4002 98.6C35.4455 101.453 36.6722 104.243 38.0535 106.96C38.5842 107.992 39.1495 109.005 39.7628 109.987ZM93.6002 98.6027C95.4028 99.8454 97.1308 101.208 98.7708 102.683C95.5548 105.563 92.0162 108.016 88.2375 109.987C88.8508 109.005 89.4162 107.992 89.9468 106.96C91.3282 104.245 92.5548 101.456 93.6002 98.6027ZM39.7122 18.0987C35.3788 20.3574 31.3922 23.264 27.8695 26.7067C29.6828 28.464 31.6162 30.0774 33.6348 31.5547C34.8375 27.9494 36.3255 24.44 38.0535 21.04C38.5682 20.0374 39.1175 19.0534 39.7122 18.0987ZM94.3468 31.5094C95.7975 30.504 97.1788 29.3947 98.5068 28.2134L100.227 26.688C96.6455 23.2214 92.6188 20.3147 88.2642 18.0587C88.8695 19.0267 89.4242 20.024 89.9468 21.04C91.6668 24.4214 93.1495 27.9174 94.3468 31.5094ZM13.7868 50.4534C12.9922 53.28 10.0455 54.928 7.2135 54.1334C4.3815 53.3387 2.7255 50.3867 3.52016 47.5467L3.8135 46.48C4.62416 43.64 7.5815 41.984 10.4135 42.7867C13.2455 43.5894 14.8908 46.5334 14.0802 49.36L13.7868 50.4534ZM12.0002 58.6667C6.11216 58.6667 1.3335 61.056 1.3335 64C1.3335 80.6134 7.94683 96.56 19.6802 108.32C31.4402 120.053 47.3868 126.667 64.0002 126.667C80.6135 126.667 96.5602 120.053 108.32 108.32C120.053 96.56 126.667 80.6134 126.667 64C126.667 47.3867 120.053 31.44 108.32 19.68C96.5602 7.94671 80.6135 1.33337 64.0002 1.33337C42.4268 1.36004 22.3202 12.48 10.8802 30.7734C9.32016 33.2614 10.0802 36.5467 12.5735 38.1067C15.0668 39.6667 18.3602 38.9147 19.9202 36.4267C20.2508 35.8987 20.5922 35.376 20.9442 34.864C23.9708 37.7254 27.2562 40.256 30.7628 42.4C29.6908 47.768 29.0295 53.2 28.7788 58.6667H12.0002Z" fill="url(#paint0_linear)"/>
<path d="M100.098 86.7456C101.229 85.4524 100.311 83.4286 98.5924 83.4286H82.7143C81.6097 83.4286 80.7143 82.5331 80.7143 81.4286V52C80.7143 50.8954 79.8189 50 78.7143 50H49.2857C48.1811 50 47.2857 50.8954 47.2857 52V81.4286C47.2857 82.5331 46.3903 83.4286 45.2857 83.4286H29.4075C27.6892 83.4286 26.7709 85.4524 27.9024 86.7456L62.4948 126.28C63.2917 127.19 64.7083 127.19 65.5052 126.28L100.098 86.7456Z" fill="url(#paint1_linear)"/>
<defs>
<linearGradient id="paint0_linear" x1="1.35186" y1="62.143" x2="126.688" y2="62.143" gradientUnits="userSpaceOnUse">
<stop stop-color="#A93AFF"/>
<stop offset="1" stop-color="#FF81FF"/>
</linearGradient>
<linearGradient id="paint1_linear" x1="64" y1="128" x2="64" y2="50" gradientUnits="userSpaceOnUse">
<stop stop-color="#5570FF"/>
<stop offset="1" stop-color="#4DD3FF"/>
</linearGradient>
</defs>
</svg>
