<svg width="48" height="48" viewBox="0 0 48 48" fill="none" xmlns="http://www.w3.org/2000/svg">
<path d="M40.2 8H7.8C6.80589 8 6 8.76112 6 9.7V40.3C6 41.2389 6.80589 42 7.8 42H40.2C41.1941 42 42 41.2389 42 40.3V9.7C42 8.76112 41.1941 8 40.2 8Z" stroke="url(#paint0_linear)" stroke-width="4"/>
<path d="M42.1818 6H5.81818C4.81403 6 4 6.89543 4 8C4 9.10457 4 9.5 4.00002 10H44C44 9 44 9.10457 44 8C44 6.89543 43.186 6 42.1818 6Z" fill="url(#paint1_linear)"/>
<path d="M8.19452 18.0035C8.12879 18.1323 8.06307 18.2602 8 18.389C8.99923 18.9442 11.8788 20.3911 13.2457 21.2481C14.9733 22.306 17.3083 24.4643 17.4922 24.8276C15.6954 27.9567 16.5107 30.7262 16.2985 31.021C16.1457 31.2671 14.7335 32.8179 15.1882 33.047C15.6394 33.2727 16.3571 32.9183 16.4655 32.8489C16.6911 32.7104 16.9238 32.5088 16.8261 32.9076C16.6351 33.723 15.7682 35.6832 16.9646 35.2667C17.1103 35.1831 19.0359 33.0604 19.2686 32.9875C23.0994 33.9867 27.3842 33.5284 28.1773 33.1572C28.5903 33.1847 29.7592 33.9201 30.4253 34.271C31.0915 34.6183 32.9061 35.4887 32.3687 33.9068C32.2018 33.4067 31.0089 32.1304 31.2025 32.0469C31.6288 31.8773 32.684 32.4874 33.09 32.602C34.3041 32.9422 34.4675 32.4706 33.701 31.4331C32.9443 30.3957 32.8306 30.5556 32.5908 30.0769C32.4033 29.6914 32.5908 29.2651 32.7293 29.1612C32.9754 28.9737 36.601 26.9611 37.451 26.191C38.7105 25.0461 37.451 23.617 37.1419 23.4154C34.5297 21.535 31.8474 21.9374 31.8127 21.6389C31.7949 21.2988 31.802 20.3173 31.7567 19.9771C31.4965 17.6731 30.4316 18.2531 30.2859 18.2531C29.2209 18.4201 29.6126 20.05 30.0638 21.5839C30.0985 21.9756 29.6926 21.8024 29.4527 21.3894C28.6339 19.1928 28.2901 19.231 28.0645 19.1653C27.846 19.1165 27.0759 19.5854 27.0892 20.4736C27.0928 20.7268 27.3948 21.9348 27.3948 22.306C26.8921 22.7466 26.8672 23.7458 26.3396 24.11C24.803 24.4288 21.1108 23.3506 20.6498 23.3017C19.0537 23.0032 18.3564 24.2005 18.0998 23.9127C16.0284 21.5395 12.8638 19.7773 11.4933 19.4718C10.9622 19.3572 9.16888 18.5658 8.52315 18.167C8.41923 18.1048 8.3011 18.0595 8.18652 18L8.19452 18.0035ZM31.2869 23.5273C31.3046 23.5095 31.3251 23.5344 31.3455 23.5548C31.4983 24.0611 31.668 24.5434 32.6743 24.6651C32.7924 24.6793 32.1156 25.0745 31.6511 24.832C31.2274 24.5753 31.1892 23.6419 31.2869 23.5273ZM33.8964 26.0773C33.9897 26.0631 34.0563 26.0667 34.122 26.0773C34.3681 26.1395 32.3368 27.1983 32.1787 27.0526C32.0818 26.9593 33.2613 26.1955 33.9 26.0773H33.8964ZM34.4276 26.747C34.6389 26.7648 33.2516 28.201 33.0952 28.0518C32.9807 27.9479 33.9941 26.7124 34.4276 26.747Z" fill="url(#paint2_linear)"/>
<defs>
<linearGradient id="paint0_linear" x1="6" y1="42" x2="48.6148" y2="22.3335" gradientUnits="userSpaceOnUse">
<stop stop-color="#0357D1"/>
<stop offset="1" stop-color="#27CDFC"/>
</linearGradient>
<linearGradient id="paint1_linear" x1="5.36364" y1="8" x2="43.0909" y2="8" gradientUnits="userSpaceOnUse">
<stop stop-color="#FD5900"/>
<stop offset="1" stop-color="#FFDE00"/>
</linearGradient>
<linearGradient id="paint2_linear" x1="23" y1="35.3241" x2="23" y2="18" gradientUnits="userSpaceOnUse">
<stop stop-color="#5570FF"/>
<stop offset="1" stop-color="#4DD3FF"/>
</linearGradient>
</defs>
</svg>
