<svg width="128" height="128" viewBox="0 0 128 128" fill="none" xmlns="http://www.w3.org/2000/svg">
<path fill-rule="evenodd" clip-rule="evenodd" d="M115.899 19.1005C113.274 16.475 109.713 15 106 15H22C18.287 15 14.726 16.475 12.1005 19.1005C9.475 21.726 8 25.287 8 29V99C8 102.713 9.475 106.274 12.1005 108.899C14.726 111.525 18.287 113 22 113H106C109.713 113 113.274 111.525 115.899 108.899C118.525 106.274 120 102.713 120 99V29C120 25.287 118.525 21.726 115.899 19.1005ZM106 106H22C20.1435 106 18.363 105.262 17.0503 103.95C15.7375 102.637 15 100.857 15 99V43H113V99C113 100.857 112.262 102.637 110.95 103.95C109.637 105.262 107.857 106 106 106ZM17.0503 24.0503C18.363 22.7375 20.1435 22 22 22H106C107.857 22 109.637 22.7375 110.95 24.0503C112.262 25.363 113 27.1435 113 29V36H15V29C15 27.1435 15.7375 25.363 17.0503 24.0503ZM30.0251 86.0251C30.6815 85.3687 31.5717 85 32.5 85H39.5C40.4283 85 41.3185 85.3687 41.9749 86.0251C42.6312 86.6815 43 87.5717 43 88.5V95.5C43 96.4283 42.6312 97.3185 41.9749 97.9749C41.3185 98.6313 40.4283 99 39.5 99H32.5C31.5717 99 30.6815 98.6313 30.0251 97.9749C29.3687 97.3185 29 96.4283 29 95.5V88.5C29 87.5717 29.3687 86.6815 30.0251 86.0251ZM58.0251 86.0251C57.3688 86.6815 57 87.5717 57 88.5V95.5C57 96.4283 57.3688 97.3185 58.0251 97.9749C58.6815 98.6313 59.5717 99 60.5 99H67.5C68.4283 99 69.3185 98.6313 69.9749 97.9749C70.6313 97.3185 71 96.4283 71 95.5V88.5C71 87.5717 70.6313 86.6815 69.9749 86.0251C69.3185 85.3687 68.4283 85 67.5 85H60.5C59.5717 85 58.6815 85.3687 58.0251 86.0251ZM86.0251 86.0251C86.6815 85.3687 87.5717 85 88.5 85H95.5C96.4283 85 97.3185 85.3687 97.9749 86.0251C98.6313 86.6815 99 87.5717 99 88.5V95.5C99 96.4283 98.6313 97.3185 97.9749 97.9749C97.3185 98.6313 96.4283 99 95.5 99H88.5C87.5717 99 86.6815 98.6313 86.0251 97.9749C85.3687 97.3185 85 96.4283 85 95.5V88.5C85 87.5717 85.3687 86.6815 86.0251 86.0251Z" fill="url(#paint0_linear_678_426)"/>
<path d="M115.899 19.1005L114.485 20.5147L114.485 20.5147L115.899 19.1005ZM12.1005 19.1005L13.5147 20.5147L13.5147 20.5147L12.1005 19.1005ZM12.1005 108.899L13.5147 107.485L13.5147 107.485L12.1005 108.899ZM115.899 108.899L114.485 107.485L114.485 107.485L115.899 108.899ZM17.0503 103.95L15.636 105.364L15.636 105.364L17.0503 103.95ZM15 43V41H13V43H15ZM113 43H115V41H113V43ZM17.0503 24.0503L15.636 22.636L15.636 22.636L17.0503 24.0503ZM110.95 24.0503L112.364 22.636L112.364 22.636L110.95 24.0503ZM113 36V38H115V36H113ZM15 36H13V38H15V36ZM30.0251 86.0251L31.4393 87.4393L31.4393 87.4393L30.0251 86.0251ZM30.0251 97.9749L31.4393 96.5607L31.4393 96.5607L30.0251 97.9749ZM106 17C109.183 17 112.235 18.2643 114.485 20.5147L117.314 17.6863C114.313 14.6857 110.243 13 106 13V17ZM22 17H106V13H22V17ZM13.5147 20.5147C15.7652 18.2643 18.8174 17 22 17V13C17.7565 13 13.6869 14.6857 10.6863 17.6863L13.5147 20.5147ZM10 29C10 25.8174 11.2643 22.7652 13.5147 20.5147L10.6863 17.6863C7.68571 20.6869 6 24.7565 6 29H10ZM10 99V29H6V99H10ZM13.5147 107.485C11.2643 105.235 10 102.183 10 99H6C6 103.243 7.68571 107.313 10.6863 110.314L13.5147 107.485ZM22 111C18.8174 111 15.7652 109.736 13.5147 107.485L10.6863 110.314C13.6869 113.314 17.7565 115 22 115V111ZM106 111H22V115H106V111ZM114.485 107.485C112.235 109.736 109.183 111 106 111V115C110.243 115 114.313 113.314 117.314 110.314L114.485 107.485ZM118 99C118 102.183 116.736 105.235 114.485 107.485L117.314 110.314C120.314 107.313 122 103.243 122 99H118ZM118 29V99H122V29H118ZM114.485 20.5147C116.736 22.7652 118 25.8174 118 29H122C122 24.7565 120.314 20.6869 117.314 17.6863L114.485 20.5147ZM22 108H106V104H22V108ZM15.636 105.364C17.3239 107.052 19.613 108 22 108V104C20.6739 104 19.4021 103.473 18.4645 102.536L15.636 105.364ZM13 99C13 101.387 13.9482 103.676 15.636 105.364L18.4645 102.536C17.5268 101.598 17 100.326 17 99H13ZM13 43V99H17V43H13ZM113 41H15V45H113V41ZM115 99V43H111V99H115ZM112.364 105.364C114.052 103.676 115 101.387 115 99H111C111 100.326 110.473 101.598 109.536 102.536L112.364 105.364ZM106 108C108.387 108 110.676 107.052 112.364 105.364L109.536 102.536C108.598 103.473 107.326 104 106 104V108ZM22 20C19.6131 20 17.3239 20.9482 15.636 22.636L18.4645 25.4645C19.4021 24.5268 20.6739 24 22 24V20ZM106 20H22V24H106V20ZM112.364 22.636C110.676 20.9482 108.387 20 106 20V24C107.326 24 108.598 24.5268 109.536 25.4645L112.364 22.636ZM115 29C115 26.613 114.052 24.3239 112.364 22.636L109.536 25.4645C110.473 26.4021 111 27.6739 111 29H115ZM115 36V29H111V36H115ZM15 38H113V34H15V38ZM13 29V36H17V29H13ZM15.636 22.636C13.9482 24.3239 13 26.6131 13 29H17C17 27.6739 17.5268 26.4021 18.4645 25.4645L15.636 22.636ZM32.5 83C31.0413 83 29.6424 83.5795 28.6109 84.6109L31.4393 87.4393C31.7206 87.158 32.1022 87 32.5 87V83ZM39.5 83H32.5V87H39.5V83ZM43.3891 84.6109C42.3576 83.5795 40.9587 83 39.5 83V87C39.8978 87 40.2794 87.158 40.5607 87.4393L43.3891 84.6109ZM45 88.5C45 87.0413 44.4205 85.6424 43.3891 84.6109L40.5607 87.4393C40.842 87.7206 41 88.1022 41 88.5H45ZM45 95.5V88.5H41V95.5H45ZM43.3891 99.3891C44.4205 98.3576 45 96.9587 45 95.5H41C41 95.8978 40.842 96.2794 40.5607 96.5607L43.3891 99.3891ZM39.5 101C40.9587 101 42.3576 100.421 43.3891 99.3891L40.5607 96.5607C40.2794 96.842 39.8978 97 39.5 97V101ZM32.5 101H39.5V97H32.5V101ZM28.6109 99.3891C29.6424 100.421 31.0413 101 32.5 101V97C32.1022 97 31.7206 96.842 31.4393 96.5607L28.6109 99.3891ZM27 95.5C27 96.9587 27.5795 98.3576 28.6109 99.3891L31.4393 96.5607C31.158 96.2794 31 95.8978 31 95.5H27ZM27 88.5V95.5H31V88.5H27ZM28.6109 84.6109C27.5795 85.6424 27 87.0413 27 88.5H31C31 88.1022 31.158 87.7206 31.4393 87.4393L28.6109 84.6109ZM59 88.5C59 88.1022 59.158 87.7206 59.4393 87.4393L56.6109 84.6109C55.5795 85.6424 55 87.0413 55 88.5H59ZM59 95.5V88.5H55V95.5H59ZM59.4393 96.5607C59.158 96.2794 59 95.8978 59 95.5H55C55 96.9587 55.5795 98.3576 56.6109 99.3891L59.4393 96.5607ZM60.5 97C60.1022 97 59.7206 96.842 59.4393 96.5607L56.6109 99.3891C57.6424 100.421 59.0413 101 60.5 101V97ZM67.5 97H60.5V101H67.5V97ZM68.5607 96.5607C68.2794 96.842 67.8978 97 67.5 97V101C68.9587 101 70.3576 100.421 71.3891 99.3891L68.5607 96.5607ZM69 95.5C69 95.8978 68.842 96.2794 68.5607 96.5607L71.3891 99.3891C72.4205 98.3576 73 96.9587 73 95.5H69ZM69 88.5V95.5H73V88.5H69ZM68.5607 87.4393C68.842 87.7206 69 88.1022 69 88.5H73C73 87.0413 72.4205 85.6424 71.3891 84.6109L68.5607 87.4393ZM67.5 87C67.8978 87 68.2794 87.158 68.5607 87.4393L71.3891 84.6109C70.3576 83.5795 68.9587 83 67.5 83V87ZM60.5 87H67.5V83H60.5V87ZM59.4393 87.4393C59.7206 87.158 60.1022 87 60.5 87V83C59.0413 83 57.6424 83.5795 56.6109 84.6109L59.4393 87.4393ZM88.5 83C87.0413 83 85.6424 83.5795 84.6109 84.6109L87.4393 87.4393C87.7206 87.158 88.1022 87 88.5 87V83ZM95.5 83H88.5V87H95.5V83ZM99.3891 84.6109C98.3576 83.5795 96.9587 83 95.5 83V87C95.8978 87 96.2794 87.158 96.5607 87.4393L99.3891 84.6109ZM101 88.5C101 87.0413 100.421 85.6424 99.3891 84.6109L96.5607 87.4393C96.842 87.7206 97 88.1022 97 88.5H101ZM101 95.5V88.5H97V95.5H101ZM99.3891 99.3891C100.421 98.3576 101 96.9587 101 95.5H97C97 95.8978 96.842 96.2794 96.5607 96.5607L99.3891 99.3891ZM95.5 101C96.9587 101 98.3576 100.421 99.3891 99.3891L96.5607 96.5607C96.2794 96.842 95.8978 97 95.5 97V101ZM88.5 101H95.5V97H88.5V101ZM84.6109 99.3891C85.6424 100.421 87.0413 101 88.5 101V97C88.1022 97 87.7206 96.842 87.4393 96.5607L84.6109 99.3891ZM83 95.5C83 96.9587 83.5795 98.3576 84.6109 99.3891L87.4393 96.5607C87.158 96.2794 87 95.8978 87 95.5H83ZM83 88.5V95.5H87V88.5H83ZM84.6109 84.6109C83.5795 85.6424 83 87.0413 83 88.5H87C87 88.1022 87.158 87.7206 87.4393 87.4393L84.6109 84.6109Z" fill="url(#paint1_linear_678_426)"/>
<defs>
<linearGradient id="paint0_linear_678_426" x1="64" y1="15" x2="64" y2="113" gradientUnits="userSpaceOnUse">
<stop offset="0.119792" stop-color="#7730F6"/>
<stop offset="0.84375" stop-color="#39D9FD"/>
</linearGradient>
<linearGradient id="paint1_linear_678_426" x1="64" y1="15" x2="64" y2="113" gradientUnits="userSpaceOnUse">
<stop offset="0.119792" stop-color="#7730F6"/>
<stop offset="0.84375" stop-color="#39D9FD"/>
</linearGradient>
</defs>
</svg>
