<svg width="64" height="64" viewBox="0 0 64 64" fill="none" xmlns="http://www.w3.org/2000/svg">
<path fill-rule="evenodd" clip-rule="evenodd" d="M22 28.5C22 31.5376 19.5376 34 16.5 34C13.4624 34 11 31.5376 11 28.5C11 25.4624 13.4624 23 16.5 23C19.5376 23 22 25.4624 22 28.5ZM18 28.5C18 29.3284 17.3284 30 16.5 30C15.6716 30 15 29.3284 15 28.5C15 27.6716 15.6716 27 16.5 27C17.3284 27 18 27.6716 18 28.5Z" fill="url(#paint0_linear)"/>
<path d="M23.388 41.1741L26.2087 40.1526L25.2045 37.3797L22.4148 38.3364L23.388 41.1741ZM31.293 17.9877L28.783 19.6308L30.4017 22.1035L32.8983 20.5221L31.293 17.9877ZM18.4115 45C20.4886 45 22.4911 44.6532 24.3612 44.0119L22.4148 38.3364C21.1625 38.7658 19.8172 39 18.4115 39V45ZM0 26.5C0 36.7011 8.22695 45 18.4115 45V39C11.573 39 6 33.4198 6 26.5H0ZM18.4115 8C8.22695 8 0 16.2989 0 26.5H6C6 19.5802 11.573 14 18.4115 14V8ZM33.8031 16.3446C30.5196 11.3288 24.8563 8 18.4115 8V14C22.738 14 26.5555 16.2279 28.783 19.6308L33.8031 16.3446ZM41.6113 12C37.2332 12 33.1411 13.2659 29.6877 15.4533L32.8983 20.5221C35.4213 18.924 38.405 18 41.6113 18V12ZM64 34.5C64 22.0898 53.9924 12 41.6113 12V18C50.6464 18 58 25.3711 58 34.5H64ZM41.6113 57C53.9924 57 64 46.9102 64 34.5H58C58 43.6289 50.6464 51 41.6113 51V57ZM20.5673 42.1957C23.6905 50.8194 31.9226 57 41.6113 57V51C34.5458 51 28.5054 46.4941 26.2087 40.1526L20.5673 42.1957Z" fill="url(#paint1_linear)"/>
<path fill-rule="evenodd" clip-rule="evenodd" d="M49 37.5C49 42.1944 45.1944 46 40.5 46C35.8056 46 32 42.1944 32 37.5C32 32.8056 35.8056 29 40.5 29C45.1944 29 49 32.8056 49 37.5ZM43 37.5C43 38.8807 41.8807 40 40.5 40C39.1193 40 38 38.8807 38 37.5C38 36.1193 39.1193 35 40.5 35C41.8807 35 43 36.1193 43 37.5Z" fill="url(#paint2_linear)"/>
<defs>
<linearGradient id="paint0_linear" x1="16.5" y1="34" x2="16.5" y2="23" gradientUnits="userSpaceOnUse">
<stop stop-color="#5570FF"/>
<stop offset="1" stop-color="#4DD3FF"/>
</linearGradient>
<linearGradient id="paint1_linear" x1="3" y1="11" x2="3" y2="54" gradientUnits="userSpaceOnUse">
<stop stop-color="white"/>
<stop offset="1" stop-color="#B5B5B5"/>
</linearGradient>
<linearGradient id="paint2_linear" x1="40.5" y1="46" x2="40.5" y2="29" gradientUnits="userSpaceOnUse">
<stop stop-color="#5570FF"/>
<stop offset="1" stop-color="#4DD3FF"/>
</linearGradient>
</defs>
</svg>
