<svg width="64" height="64" viewBox="0 0 64 64" fill="none" xmlns="http://www.w3.org/2000/svg">
<path d="M32 60C47.464 60 60 47.464 60 32C60 16.536 47.464 4 32 4C16.536 4 4 16.536 4 32C4 47.464 16.536 60 32 60Z" stroke="url(#paint0_linear_674_246)" stroke-width="6"/>
<path fill-rule="evenodd" clip-rule="evenodd" d="M34.063 14.6756C34.4714 14.2102 34.9269 13.9864 35.55 14.0006C35.7577 14.0054 35.9862 14.0383 36.2356 14.0956L36.232 14.0991C36.5644 14.1754 36.9356 14.2994 37.3605 14.4682C38.6359 14.9736 38.8291 15.4574 38.6928 17.8291C38.5741 19.8941 38.96 20.7246 40.44 21.5836C41.6995 22.3148 42.7251 22.2915 44.641 21.4851C45.3355 21.193 46.1082 21.0051 46.3636 21.0738C46.9147 21.2223 48.539 23.7872 48.5326 24.498C48.5296 24.8164 48.0097 25.4314 47.0877 26.2206C45.2895 27.7597 44.9068 28.521 45.1472 30.0595C45.4363 31.9099 45.9801 32.5618 47.9701 33.4485C50.0615 34.3803 50.2783 34.7722 49.7665 36.6652C49.2541 38.5605 48.7707 38.8389 46.3213 38.6796C44.6991 38.5741 44.1815 38.6484 43.5054 39.0944C41.7401 40.2591 41.2204 42.2567 42.1696 44.2481C43.1667 46.3405 42.9655 46.9845 40.9497 48.0379C39.6091 48.7383 39.0008 48.6848 38.2358 47.8093C37.1916 46.6147 36.9282 46.3408 36.2496 45.7703C35.4312 45.0823 34.442 44.979 33.0189 45.4328C31.6175 45.8796 31.3969 46.1053 30.7796 47.6898C30.1044 49.4227 29.2337 50.1376 28.0059 49.9783C27.5351 49.9176 26.9519 49.7584 26.7086 49.6268C26.465 49.4969 26.0562 49.2825 25.8017 49.1522C25.2421 48.8651 25.0847 48.032 25.2779 46.4066C25.3575 45.7365 25.3589 44.8632 25.2779 44.466C25.1057 43.6228 23.6557 42.2689 22.6378 41.9946C21.9626 41.8127 19.7198 42.1786 18.3278 42.6978C17.8529 42.875 17.5444 42.8419 17.1748 42.5712C16.5295 42.0987 15.5136 40.314 15.4838 39.6006C15.4607 39.0437 16.2052 38.0379 16.9779 37.5827C17.6869 37.1649 18.5633 36.0621 18.7462 35.3539C18.9989 34.3785 18.6363 32.5174 18.0712 31.8735C17.8036 31.5686 16.9585 31.0541 16.1905 30.7239C15.4224 30.3938 14.579 29.8798 14.3202 29.5849C13.8968 29.1026 13.8968 28.8799 14.2991 27.3701C14.8158 25.4312 15.4411 24.8502 16.6651 25.18C17.9522 25.5268 19.5632 25.4129 20.3317 24.9198C21.2693 24.3182 22.2028 22.6514 22.1878 21.5976C22.1819 21.1715 21.9243 20.2061 21.6218 19.4532C20.8898 17.6318 21.0869 17.0343 22.7081 16.11C24.4145 15.1372 25.0111 15.1183 25.7067 16.008C27.2351 17.9628 27.6804 18.3621 28.6245 18.6165C30.5489 19.135 32.7284 18.0116 33.1947 16.2646C33.3217 15.7885 33.7136 15.0739 34.063 14.6756ZM39.2004 32C39.2004 35.9765 35.9769 39.2 32.0004 39.2C28.024 39.2 24.8004 35.9765 24.8004 32C24.8004 28.0235 28.024 24.8 32.0004 24.8C35.9769 24.8 39.2004 28.0235 39.2004 32Z" fill="url(#paint1_linear_674_246)"/>
<defs>
<linearGradient id="paint0_linear_674_246" x1="29.5649" y1="58.496" x2="35.8918" y2="7.89421" gradientUnits="userSpaceOnUse">
<stop stop-color="#8D01A2"/>
<stop offset="1" stop-color="#FF33DB"/>
</linearGradient>
<linearGradient id="paint1_linear_674_246" x1="32" y1="50" x2="32" y2="14" gradientUnits="userSpaceOnUse">
<stop stop-color="#5570FF"/>
<stop offset="1" stop-color="#4DD3FF"/>
</linearGradient>
</defs>
</svg>
