<svg width="64" height="64" viewBox="0 0 64 64" fill="none" xmlns="http://www.w3.org/2000/svg">
<path fill-rule="evenodd" clip-rule="evenodd" d="M41.9291 11C41.6311 11 41.3487 11.1329 41.1587 11.3625L33.2279 20.9467C28.7005 26.4154 24.9937 31.0019 24.9937 31.1349C24.9937 31.2679 28.8685 36.2413 33.6006 42.1876L41.9016 52.6225C42.0913 52.861 42.3794 53 42.6842 53H51.2147C58.3884 53 60.1805 52.9352 59.9861 52.678C59.4978 52.0323 43.5791 31.9866 43.2202 31.5666C42.8859 31.1746 43.607 30.2156 50.8085 21.5184C55.1884 16.2289 58.929 11.6981 59.1204 11.4515C59.4494 11.0245 58.9967 11 50.4655 11H41.9291ZM9.62626 12.2839C8.68664 11.9176 7.85013 13.0079 8.45765 13.8128C11.7163 18.1305 17.8232 26.2407 20.2348 29.5678C20.6963 30.2045 20.6645 31.8847 20.1879 32.5102C18.8299 34.2919 16.303 37.5171 13.4138 41.1465C9.06998 46.6012 5.17165 51.5011 4.75535 52.0312V52.0312C4.44824 52.4249 4.72877 52.9995 5.22808 52.9995H21.5723C21.8766 52.9995 22.1643 52.861 22.354 52.6231L26.2767 47.7058C29.2064 44.0328 30.428 42.3195 30.2651 42.1025C30.1356 41.9327 28.1248 39.3884 25.7937 36.4536L22.0609 31.7553C21.7667 31.3849 21.7722 30.8591 22.0741 30.495L25.992 25.7696C28.0642 23.2726 29.7986 21.1464 30.2586 20.5435C30.3425 20.4334 30.3112 20.3468 30.1823 20.2965L9.62626 12.2839Z" fill="url(#paint0_linear)"/>
<defs>
<linearGradient id="paint0_linear" x1="32" y1="53" x2="32" y2="11" gradientUnits="userSpaceOnUse">
<stop stop-color="#FDA700"/>
<stop offset="1" stop-color="#FFDE00"/>
</linearGradient>
</defs>
</svg>
