<svg width="48" height="48" viewBox="0 0 48 48" fill="none" xmlns="http://www.w3.org/2000/svg">
<path d="M41.9705 1.00078C41.4569 0.989999 40.9472 1.09145 40.4768 1.29804C40.0065 1.50463 39.5869 1.81138 39.2474 2.19688L24.2117 18.7527L9.17594 2.19688C8.86367 1.84235 8.4834 1.55411 8.05768 1.34925C7.63197 1.14438 7.16946 1.02706 6.69756 1.00422C5.99615 0.970902 5.30074 1.14753 4.70024 1.51152C4.09974 1.87552 3.62144 2.41033 3.32649 3.04759C3.03155 3.68484 2.93336 4.39559 3.04448 5.08894C3.15561 5.7823 3.47099 6.42676 3.95032 6.93992L19.4445 24.0025L3.95032 41.0616C3.63132 41.4034 3.38342 41.8052 3.221 42.2437C3.05859 42.6821 2.98489 43.1485 3.00419 43.6157C3.02349 44.0828 3.13541 44.5415 3.33344 44.9651C3.53147 45.3886 3.81168 45.7686 4.15778 46.083C4.50389 46.3974 4.90899 46.6398 5.34959 46.7964C5.79018 46.9529 6.25747 47.0203 6.72434 46.9947C7.1912 46.9691 7.64834 46.8511 8.06919 46.6474C8.49005 46.4437 8.86625 46.1584 9.17594 45.8081L24.2117 29.2522L39.2474 45.8081C39.5571 46.1584 39.9333 46.4437 40.3541 46.6474C40.775 46.8511 41.2321 46.9691 41.699 46.9947C42.1659 47.0203 42.6332 46.9529 43.0738 46.7964C43.5144 46.6398 43.9195 46.3974 44.2656 46.083C44.6117 45.7686 44.8919 45.3886 45.0899 44.9651C45.2879 44.5415 45.3999 44.0828 45.4192 43.6157C45.4385 43.1485 45.3648 42.6821 45.2023 42.2437C45.0399 41.8052 44.792 41.4034 44.473 41.0616L28.9788 24.0025L44.473 6.93992C44.9382 6.442 45.2494 5.82008 45.3689 5.14922C45.4884 4.47836 45.4112 3.78725 45.1466 3.15929C44.882 2.53134 44.4414 1.99338 43.8778 1.61036C43.3142 1.22734 42.6518 1.01563 41.9705 1.00078Z" fill="url(#paint0_linear_625_123)" stroke="url(#paint1_linear_625_123)" stroke-width="2"/>
<defs>
<linearGradient id="paint0_linear_625_123" x1="10.6893" y1="41.5694" x2="51.5872" y2="8.6596" gradientUnits="userSpaceOnUse">
<stop stop-color="#FE0844"/>
<stop offset="1" stop-color="#FEB302"/>
</linearGradient>
<linearGradient id="paint1_linear_625_123" x1="10.6893" y1="41.5694" x2="51.5872" y2="8.6596" gradientUnits="userSpaceOnUse">
<stop stop-color="#FE0844"/>
<stop offset="1" stop-color="#FEB302"/>
</linearGradient>
</defs>
</svg>
