<svg width="64" height="64" viewBox="0 0 64 64" fill="none" xmlns="http://www.w3.org/2000/svg">
<path fill-rule="evenodd" clip-rule="evenodd" d="M56 12V17.7922V20V58.2792C56 61.1159 53.7713 63.5714 50.8125 63.5714H13.1875C10.2287 63.5714 8 61.1159 8 58.2792V20V17.7922V12C8 9.784 9.338 8 11 8H53C54.662 8 56 9.784 56 12ZM13 20V58.2792C13 58.3979 13.0434 58.4768 13.0866 58.5217C13.128 58.5647 13.1605 58.5714 13.1875 58.5714H50.8125C50.8395 58.5714 50.872 58.5647 50.9134 58.5217C50.9566 58.4768 51 58.3979 51 58.2792V20H13Z" fill="url(#paint0_linear_643_47)"/>
<path d="M11.4331 2C10.7195 2 10.1445 2.874 10.1445 3.95871V12.8984C10.1445 13.9831 10.7195 14.8571 11.4331 14.8571H14.354C15.0676 14.8571 15.6426 13.9831 15.6426 12.8984V3.95871C15.6426 2.874 15.0676 2 14.354 2H11.4331ZM23.529 2C22.8154 2 22.2404 2.874 22.2404 3.95871V12.8984C22.2404 13.9831 22.8154 14.8571 23.529 14.8571H26.4499C27.1635 14.8571 27.7385 13.9831 27.7385 12.8984V3.95871C27.7385 2.874 27.1635 2 26.4499 2H23.529ZM35.6249 2C34.9112 2 34.3363 2.874 34.3363 3.95871V12.8984C34.3363 13.9831 34.9112 14.8571 35.6249 14.8571H38.5457C39.2594 14.8571 39.8344 13.9831 39.8344 12.8984V3.95871C39.8344 2.874 39.2594 2 38.5457 2H35.6249ZM47.7207 2C47.0071 2 46.4321 2.874 46.4321 3.95871V12.8984C46.4321 13.9831 47.0071 14.8571 47.7207 14.8571H50.6416C51.3552 14.8571 51.9302 13.9831 51.9302 12.8984V3.95871C51.9302 2.874 51.3552 2 50.6416 2H47.7207Z" fill="url(#paint1_linear_643_47)"/>
<path d="M34.2309 35.8247C34.3266 35.9368 34.5808 36.1858 34.9933 36.5716C40.7841 42.5523 43.5681 45.2196 43.3441 45.9363C43.1831 46.4634 42.7191 46.9105 41.952 47.2773C41.1861 47.6229 40.4962 47.7796 39.8821 47.7474C39.3959 47.7219 37.087 45.883 32.9563 40.8676C32.8925 40.7871 32.8306 40.7093 32.7708 40.6342C32.0802 39.7669 30.8978 39.772 30.2831 40.6947C29.8472 41.3491 29.3441 42.1585 28.7738 43.123C27.2238 46.3724 25.1844 49.3707 24.0164 52.804C23.6596 54.0065 22.752 54.5695 21.2935 54.4932C20.5259 54.4529 20.0543 54.1926 19.8787 53.7121C19.703 53.2315 19.7748 52.4854 20.0941 51.4738C20.6915 49.5007 23.5065 44.7848 28.5392 37.3262C28.7961 36.9454 28.8825 36.4895 28.6631 36.0859C28.3193 35.4533 27.6539 34.4201 26.667 32.9862C25.1831 30.8303 24.0051 29.1973 23.1328 28.3589C22.1878 27.4524 21.7944 26.757 21.9527 26.2725C22.3095 25.07 23.4346 24.5183 25.328 24.6175C26.2491 24.6658 27.8909 26.6873 30.2533 30.4103C30.5483 30.8579 30.8135 31.2545 31.049 31.6001C31.672 32.5145 32.8758 32.5807 33.5662 31.7161C33.8693 31.3366 34.2025 30.9016 34.5658 30.4112C35.5754 29.0287 36.2736 27.9083 36.6604 27.0502C37.0432 26.2561 37.6471 25.6236 38.472 25.1526C39.2969 24.6817 40.0804 24.4656 40.8224 24.5044C41.9738 24.5648 42.3906 25.0901 42.0726 26.0803C41.7158 27.2828 39.6399 29.9271 35.8447 34.0132C34.8548 35.0754 34.3169 35.6792 34.2309 35.8247Z" fill="url(#paint2_linear_643_47)"/>
<path d="M34.2309 35.8247C34.3266 35.9368 34.5808 36.1858 34.9933 36.5716C40.7841 42.5523 43.5681 45.2196 43.3441 45.9363C43.1831 46.4634 42.7191 46.9105 41.952 47.2773C41.1861 47.6229 40.4962 47.7796 39.8821 47.7474C39.3959 47.7219 37.087 45.883 32.9563 40.8676C32.8925 40.7871 32.8306 40.7093 32.7708 40.6342C32.0802 39.7669 30.8978 39.772 30.2831 40.6947C29.8472 41.3491 29.3441 42.1585 28.7738 43.123C27.2238 46.3724 25.1844 49.3707 24.0164 52.804C23.6596 54.0065 22.752 54.5695 21.2935 54.4932C20.5259 54.4529 20.0543 54.1926 19.8787 53.7121C19.703 53.2315 19.7748 52.4854 20.0941 51.4738C20.6915 49.5007 23.5065 44.7848 28.5392 37.3262C28.7961 36.9454 28.8825 36.4895 28.6631 36.0859C28.3193 35.4533 27.6539 34.4201 26.667 32.9862C25.1831 30.8303 24.0051 29.1973 23.1328 28.3589C22.1878 27.4524 21.7944 26.757 21.9527 26.2725C22.3095 25.07 23.4346 24.5183 25.328 24.6175C26.2491 24.6658 27.8909 26.6873 30.2533 30.4103C30.5483 30.8579 30.8135 31.2545 31.049 31.6001C31.672 32.5145 32.8758 32.5807 33.5662 31.7161C33.8693 31.3366 34.2025 30.9016 34.5658 30.4112C35.5754 29.0287 36.2736 27.9083 36.6604 27.0502C37.0432 26.2561 37.6471 25.6236 38.472 25.1526C39.2969 24.6817 40.0804 24.4656 40.8224 24.5044C41.9738 24.5648 42.3906 25.0901 42.0726 26.0803C41.7158 27.2828 39.6399 29.9271 35.8447 34.0132C34.8548 35.0754 34.3169 35.6792 34.2309 35.8247Z" stroke="url(#paint3_linear_643_47)" stroke-width="2"/>
<defs>
<linearGradient id="paint0_linear_643_47" x1="32" y1="63.5714" x2="32" y2="8" gradientUnits="userSpaceOnUse">
<stop stop-color="#FDA700"/>
<stop offset="1" stop-color="#FFDE00"/>
</linearGradient>
<linearGradient id="paint1_linear_643_47" x1="50.5186" y1="2.36749" x2="48.7572" y2="16.7411" gradientUnits="userSpaceOnUse">
<stop stop-color="#FE0F7C"/>
<stop offset="1" stop-color="#DF0066"/>
</linearGradient>
<linearGradient id="paint2_linear_643_47" x1="42.5603" y1="25.3575" x2="28.8324" y2="52.4414" gradientUnits="userSpaceOnUse">
<stop stop-color="#FE0F7C"/>
<stop offset="1" stop-color="#DF0066"/>
</linearGradient>
<linearGradient id="paint3_linear_643_47" x1="42.5603" y1="25.3575" x2="28.8324" y2="52.4414" gradientUnits="userSpaceOnUse">
<stop stop-color="#FE0F7C"/>
<stop offset="1" stop-color="#DF0066"/>
</linearGradient>
</defs>
</svg>
