<svg width="32" height="32" viewBox="0 0 32 32" fill="none" xmlns="http://www.w3.org/2000/svg">
<path d="M17.9856 24.8284L24.8591 17.9417L28.7776 21.8691C29.5603 22.6522 30 23.7141 30 24.8214C30 25.9286 29.5603 26.9905 28.7776 27.7736L27.8096 28.7417C27.4225 29.1304 26.9624 29.4388 26.4557 29.6493C25.9491 29.8597 25.4059 29.9681 24.8573 29.9681C24.3087 29.9681 23.7655 29.8597 23.2589 29.6493C22.7522 29.4388 22.2921 29.1304 21.905 28.7417L17.9856 24.8284ZM28.768 4.19041L27.7956 3.22239C27.0124 2.43968 25.9505 2 24.8433 2C23.736 2 22.6741 2.43968 21.891 3.22239L15.9996 9.12697L10.095 3.22239C9.31184 2.43968 8.24993 2 7.1427 2C6.03547 2 4.97356 2.43968 4.19041 3.22239L3.22239 4.19041C2.43968 4.97356 2 6.03547 2 7.1427C2 8.24993 2.43968 9.31184 3.22239 10.095L9.12697 15.9996L3.22239 21.9041C2.43968 22.6873 2 23.7492 2 24.8564C2 25.9637 2.43968 27.0256 3.22239 27.8087L4.19041 28.7767C4.97356 29.5594 6.03547 29.9991 7.1427 29.9991C8.24993 29.9991 9.31184 29.5594 10.095 28.7767L28.7776 10.0941C29.5603 9.31096 30 8.24905 30 7.14182C30 6.03459 29.5603 4.97268 28.7776 4.18953L28.768 4.19041Z" fill="url(#paint0_linear)"/>
<defs>
<linearGradient id="paint0_linear" x1="6.10052" y1="25.8987" x2="25.8989" y2="6.09977" gradientUnits="userSpaceOnUse">
<stop stop-color="#0072FF"/>
<stop offset="1" stop-color="#00E5A1"/>
</linearGradient>
</defs>
</svg>
