<?xml version="1.0" encoding="UTF-8" ?>
<!DOCTYPE svg PUBLIC "-//W3C//DTD SVG 1.1//EN" "http://www.w3.org/Graphics/SVG/1.1/DTD/svg11.dtd">
<svg width="192pt" height="192pt" viewBox="0 0 192 192" version="1.1" xmlns="http://www.w3.org/2000/svg">
<g id="#f6aa26ff">
<path fill="#f6aa26" opacity="1.00" d=" M 101.32 19.28 C 110.68 12.88 122.78 11.66 133.62 14.44 C 128.45 23.13 122.07 31.01 116.22 39.24 C 111.21 32.60 107.54 24.95 101.32 19.28 Z" />
</g>
<g id="#f6b22dff">
<path fill="#f6b22d" opacity="1.00" d=" M 133.62 14.44 C 149.47 18.45 162.22 32.49 164.25 48.78 C 164.40 50.60 164.46 52.42 164.52 54.25 C 158.81 52.54 153.03 50.67 146.99 50.77 C 139.56 50.90 131.84 50.30 125.17 46.73 C 121.75 44.80 118.88 42.08 116.22 39.24 C 122.07 31.01 128.45 23.13 133.62 14.44 Z" />
</g>
<g id="#ff3650ff">
<path fill="#ff3650" opacity="1.00" d=" M 41.62 36.63 C 47.37 25.62 58.53 17.45 70.95 15.98 C 82.97 14.29 95.54 18.76 103.95 27.47 C 101.02 30.28 98.43 33.43 96.33 36.90 C 95.37 35.79 94.34 34.73 93.21 33.79 C 83.43 25.04 67.06 25.47 57.77 34.76 C 50.94 40.73 48.31 50.35 49.86 59.14 C 50.72 64.02 53.47 68.25 55.77 72.56 C 54.29 72.81 52.63 72.67 51.31 73.47 C 49.20 75.58 48.07 78.44 46.67 81.03 C 43.62 74.79 39.53 68.90 38.28 61.95 C 36.78 53.45 37.63 44.35 41.62 36.63 Z" />
</g>
<g id="#0000003b">
<path fill="#000000" opacity="0.23" d=" M 57.77 34.76 C 67.06 25.47 83.43 25.04 93.21 33.79 C 85.88 30.73 77.63 28.94 69.76 30.90 C 61.24 33.12 54.21 40.18 51.81 48.62 C 50.81 52.05 50.22 55.59 49.86 59.14 C 48.31 50.35 50.94 40.73 57.77 34.76 Z" />
<path fill="#000000" opacity="0.23" d=" M 113.18 57.64 C 117.57 60.34 122.22 62.76 127.25 64.02 C 133.51 65.63 140.02 65.23 146.40 65.79 C 151.26 66.21 155.80 68.38 159.45 71.55 C 147.71 66.45 134.30 69.64 122.62 64.45 C 118.91 63.05 115.93 60.40 113.18 57.64 Z" />
<path fill="#000000" opacity="0.23" d=" M 60.28 84.78 C 62.16 90.73 62.68 97.13 61.20 103.23 C 59.81 110.01 55.81 115.77 53.12 122.04 C 50.92 127.09 50.50 132.70 50.87 138.14 C 48.93 131.92 49.09 124.93 52.07 119.05 C 54.23 114.81 56.80 110.75 58.34 106.22 C 60.90 99.40 61.39 91.94 60.28 84.78 Z" />
<path fill="#000000" opacity="0.23" d=" M 165.07 131.86 C 168.21 142.39 164.91 153.89 158.73 162.66 C 152.10 172.59 140.73 178.75 129.00 180.17 C 120.93 181.25 112.76 179.12 105.59 175.48 C 103.78 174.61 102.51 173.04 101.28 171.52 C 109.21 176.42 118.71 178.78 128.01 177.76 C 139.97 176.60 151.26 169.93 157.96 159.94 C 163.63 151.84 166.13 141.68 165.07 131.86 Z" />
</g>
<g id="#ff365eff">
<path fill="#ff365e" opacity="1.00" d=" M 96.33 36.90 C 98.43 33.43 101.02 30.28 103.95 27.47 C 107.57 31.53 110.21 36.29 113.30 40.73 C 116.77 45.72 121.76 49.64 127.48 51.73 C 130.00 52.71 132.70 53.14 135.38 53.43 C 132.39 56.74 129.64 60.25 127.25 64.02 C 122.22 62.76 117.57 60.34 113.18 57.64 C 105.87 52.21 101.43 44.21 96.33 36.90 Z" />
</g>
<g id="#00000034">
<path fill="#000000" opacity="0.20" d=" M 124.31 46.33 L 125.17 46.73 C 131.84 50.30 139.56 50.90 146.99 50.77 C 153.03 50.67 158.81 52.54 164.52 54.25 C 164.46 52.42 164.40 50.60 164.25 48.78 C 165.14 51.03 165.65 53.39 165.96 55.78 C 161.53 55.50 157.10 55.29 152.70 54.82 C 147.00 53.64 141.16 53.80 135.38 53.43 C 132.70 53.14 130.00 52.71 127.48 51.73 C 126.05 50.18 125.21 48.21 124.31 46.33 Z" />
</g>
<g id="#ff366dff">
<path fill="#ff366d" opacity="1.00" d=" M 135.38 53.43 C 141.16 53.80 147.00 53.64 152.70 54.82 C 167.97 58.93 179.62 73.14 181.23 88.79 C 181.79 96.38 180.53 104.19 176.85 110.90 C 170.70 122.51 158.25 130.68 145.06 131.11 C 138.54 131.28 131.81 131.17 125.68 133.71 C 119.31 136.09 114.20 141.06 110.99 146.98 C 107.02 154.29 101.45 161.02 93.93 164.85 C 81.11 171.32 64.69 170.37 53.12 161.67 L 52.43 161.22 C 54.68 157.90 57.07 154.68 59.70 151.65 C 69.94 160.14 87.02 158.91 95.61 148.62 C 100.01 143.53 102.30 136.92 107.19 132.20 C 115.99 122.69 129.34 118.95 141.99 119.37 C 151.67 119.81 161.24 114.42 165.98 105.99 C 172.58 94.91 169.38 79.58 159.45 71.55 C 155.80 68.38 151.26 66.21 146.40 65.79 C 140.02 65.23 133.51 65.63 127.25 64.02 C 129.64 60.25 132.39 56.74 135.38 53.43 Z" />
</g>
<g id="#f6a11fff">
<path fill="#f6a11f" opacity="1.00" d=" M 13.19 79.21 C 16.76 69.98 24.15 62.67 32.73 57.97 C 33.92 61.47 34.95 65.05 36.62 68.37 C 39.40 74.23 43.22 79.74 44.52 86.20 C 46.02 93.09 44.69 100.36 41.59 106.62 C 37.27 114.40 33.10 122.46 32.22 131.47 C 24.86 127.59 18.58 121.54 14.83 114.08 C 9.43 103.37 8.61 90.36 13.19 79.21 Z" />
</g>
<g id="#ff3662ff">
<path fill="#ff3662" opacity="1.00" d=" M 74.53 70.48 C 77.82 70.26 81.19 69.83 84.44 70.55 C 85.54 71.55 86.15 72.93 86.81 74.23 C 89.87 80.69 92.79 87.21 95.98 93.60 C 99.14 87.16 102.11 80.63 105.17 74.13 C 105.82 72.86 106.41 71.48 107.51 70.51 C 110.89 69.84 114.39 70.15 117.75 70.73 C 113.79 81.03 108.32 90.68 103.60 100.64 C 99.71 107.16 102.35 114.99 101.18 122.11 C 97.87 122.28 94.56 122.30 91.26 122.37 C 89.31 116.51 91.46 110.14 89.95 104.24 C 86.23 96.31 82.25 88.49 78.43 80.60 C 76.91 77.33 74.79 74.18 74.53 70.48 Z" />
</g>
<g id="#00000037">
<path fill="#000000" opacity="0.22" d=" M 117.75 70.73 C 117.93 73.67 117.94 76.76 116.49 79.42 C 113.85 84.74 110.91 89.91 108.48 95.34 C 106.12 100.66 102.74 105.90 103.04 111.96 C 102.72 115.81 103.85 120.22 101.63 123.63 C 98.52 126.01 93.83 125.21 91.26 122.37 C 94.56 122.30 97.87 122.28 101.18 122.11 C 102.35 114.99 99.71 107.16 103.60 100.64 C 108.32 90.68 113.79 81.03 117.75 70.73 Z" />
</g>
<g id="#ff365aff">
<path fill="#ff365a" opacity="1.00" d=" M 51.31 73.47 C 52.63 72.67 54.29 72.81 55.77 72.56 C 57.79 76.42 59.25 80.55 60.28 84.78 C 61.39 91.94 60.90 99.40 58.34 106.22 C 56.80 110.75 54.23 114.81 52.07 119.05 C 49.09 124.93 48.93 131.92 50.87 138.14 C 52.48 143.35 55.60 148.07 59.70 151.65 C 57.07 154.68 54.68 157.90 52.43 161.22 C 40.34 150.99 34.39 133.53 39.56 118.28 C 41.88 111.27 47.03 105.46 48.35 98.07 C 49.71 92.38 48.81 86.41 46.67 81.03 C 48.07 78.44 49.20 75.58 51.31 73.47 Z" />
</g>
<g id="#0000003a">
<path fill="#000000" opacity="0.23" d=" M 181.23 88.79 C 184.15 98.82 181.00 109.70 175.01 117.97 C 170.98 123.79 164.64 127.25 159.28 131.66 C 150.50 135.13 140.86 132.32 131.93 134.92 C 124.34 136.91 117.72 142.00 113.63 148.66 C 110.14 154.41 106.91 160.56 101.57 164.86 C 97.06 165.96 92.96 168.14 88.64 169.75 C 78.50 172.80 66.90 171.95 57.84 166.23 C 55.95 165.07 54.51 163.36 53.12 161.67 C 64.69 170.37 81.11 171.32 93.93 164.85 C 101.45 161.02 107.02 154.29 110.99 146.98 C 114.20 141.06 119.31 136.09 125.68 133.71 C 131.81 131.17 138.54 131.28 145.06 131.11 C 158.25 130.68 170.70 122.51 176.85 110.90 C 180.53 104.19 181.79 96.38 181.23 88.79 Z" />
</g>
<g id="#f6c43dff">
<path fill="#f6c43d" opacity="1.00" d=" M 159.28 131.66 C 161.12 131.05 162.98 130.52 164.86 130.07 C 164.91 130.52 165.02 131.42 165.07 131.86 C 166.13 141.68 163.63 151.84 157.96 159.94 C 151.26 169.93 139.97 176.60 128.01 177.76 C 118.71 178.78 109.21 176.42 101.28 171.52 C 99.94 170.66 98.71 169.64 97.45 168.66 C 98.77 167.34 100.15 166.07 101.57 164.86 C 106.91 160.56 110.14 154.41 113.63 148.66 C 117.72 142.00 124.34 136.91 131.93 134.92 C 140.86 132.32 150.50 135.13 159.28 131.66 Z" />
</g>
</svg>
