<?xml version="1.0" encoding="UTF-8" ?>
<!DOCTYPE svg PUBLIC "-//W3C//DTD SVG 1.1//EN" "http://www.w3.org/Graphics/SVG/1.1/DTD/svg11.dtd">
<svg width="192pt" height="192pt" viewBox="0 0 192 192" version="1.1" xmlns="http://www.w3.org/2000/svg">
<g id="#0f9bffff">
<path fill="#0f9bff" opacity="1.00" d=" M 88.99 37.56 C 96.10 36.81 103.58 36.50 110.46 38.76 C 103.61 46.14 96.32 53.09 89.25 60.25 C 86.72 62.91 83.68 65.18 81.69 68.30 C 81.72 68.87 81.79 70.01 81.82 70.58 C 63.56 79.49 46.07 90.30 30.98 103.98 C 24.19 110.30 17.84 117.32 13.53 125.60 C 11.74 128.87 10.99 132.55 10.66 136.23 L 10.50 137.41 C 8.63 134.34 9.18 130.60 9.53 127.21 C 10.83 118.68 15.33 111.07 20.11 104.05 C 23.81 98.51 29.03 94.20 32.70 88.65 C 38.27 80.83 40.98 71.41 46.48 63.54 C 56.23 49.52 71.90 39.46 88.99 37.56 Z" />
</g>
<g id="#17abffff">
<path fill="#17abff" opacity="1.00" d=" M 110.46 38.76 L 110.88 38.30 C 118.71 40.85 126.58 44.00 134.97 43.71 C 147.82 43.37 161.16 43.69 173.16 48.84 C 176.62 50.57 180.52 52.45 182.28 56.13 L 181.46 55.79 C 176.09 53.63 170.91 50.61 165.06 50.00 C 151.69 48.69 138.33 51.22 125.42 54.49 C 110.35 58.25 95.82 63.91 81.82 70.58 C 81.79 70.01 81.72 68.87 81.69 68.30 C 83.68 65.18 86.72 62.91 89.25 60.25 C 96.32 53.09 103.61 46.14 110.46 38.76 Z" />
</g>
<g id="#00000032">
<path fill="#000000" opacity="0.20" d=" M 125.42 54.49 C 138.33 51.22 151.69 48.69 165.06 50.00 C 170.91 50.61 176.09 53.63 181.46 55.79 C 179.76 57.56 177.55 55.95 175.70 55.37 C 171.68 53.67 167.44 52.33 163.04 52.27 C 160.21 52.28 156.88 51.67 154.72 53.97 C 131.80 55.16 109.63 62.39 88.83 71.72 C 67.04 81.76 46.00 94.42 29.28 111.83 C 28.78 111.72 27.78 111.50 27.28 111.39 C 22.81 115.63 19.28 120.73 15.90 125.84 C 13.72 129.11 13.65 133.48 10.66 136.23 C 10.99 132.55 11.74 128.87 13.53 125.60 C 17.84 117.32 24.19 110.30 30.98 103.98 C 46.07 90.30 63.56 79.49 81.82 70.58 C 95.82 63.91 110.35 58.25 125.42 54.49 Z" />
</g>
<g id="#1ab1ffff">
<path fill="#1ab1ff" opacity="1.00" d=" M 88.83 71.72 C 109.63 62.39 131.80 55.16 154.72 53.97 C 156.57 53.94 158.42 54.07 160.28 54.18 C 156.39 58.15 152.27 61.91 148.77 66.24 C 125.02 69.04 102.28 77.61 81.16 88.59 C 80.56 88.14 79.35 87.23 78.75 86.78 C 81.58 81.40 86.07 77.14 88.83 71.72 Z" />
</g>
<g id="#24c7ffff">
<path fill="#24c7ff" opacity="1.00" d=" M 160.28 54.18 C 166.36 55.03 172.46 56.34 178.10 58.83 C 180.93 60.06 182.43 62.96 183.23 65.78 C 184.56 78.53 177.43 90.18 169.54 99.54 C 147.06 125.07 116.14 142.83 83.06 150.44 C 85.52 144.96 89.99 140.79 92.87 135.57 C 118.50 127.18 142.31 112.49 160.21 92.19 C 165.54 85.81 170.73 78.56 171.57 70.04 L 171.40 68.97 C 164.26 66.06 156.40 65.29 148.77 66.24 C 152.27 61.91 156.39 58.15 160.28 54.18 Z" />
</g>
<g id="#0000003e">
<path fill="#000000" opacity="0.24" d=" M 81.16 88.59 C 102.28 77.61 125.02 69.04 148.77 66.24 C 156.40 65.29 164.26 66.06 171.40 68.97 L 171.57 70.04 C 164.54 68.89 157.41 67.62 150.26 68.53 C 127.71 70.95 106.07 78.83 85.93 89.01 C 69.85 97.11 54.52 106.99 41.47 119.47 C 36.25 124.72 31.85 130.73 28.29 137.22 C 27.43 132.92 30.56 129.18 32.84 125.86 C 45.65 109.73 63.28 98.35 81.16 88.59 Z" />
</g>
<g id="#00000041">
<path fill="#000000" opacity="0.25" d=" M 183.23 65.78 C 186.28 75.41 182.05 85.63 176.66 93.62 C 171.67 102.04 164.12 108.42 157.26 115.26 C 141.62 128.96 123.44 139.81 103.90 146.96 C 84.80 153.86 64.34 157.79 43.99 156.01 C 38.06 155.17 32.05 154.04 26.65 151.34 C 25.41 150.90 24.72 149.77 24.23 148.62 C 27.56 150.21 31.05 151.44 34.66 152.22 C 50.61 155.91 67.26 153.97 83.06 150.44 C 116.14 142.83 147.06 125.07 169.54 99.54 C 177.43 90.18 184.56 78.53 183.23 65.78 Z" />
<path fill="#000000" opacity="0.25" d=" M 142.25 88.74 C 143.79 93.17 139.94 97.14 137.55 100.50 C 127.42 111.10 114.22 118.15 100.89 123.91 C 90.40 127.68 79.33 131.47 68.02 130.15 C 66.26 130.12 64.92 129.00 64.18 127.48 C 70.48 128.95 77.00 128.23 83.21 126.70 C 100.34 122.96 116.41 114.97 130.20 104.21 C 135.45 100.19 139.99 95.04 142.25 88.74 Z" />
</g>
<g id="#12a0ffff">
<path fill="#12a0ff" opacity="1.00" d=" M 29.28 111.83 C 46.00 94.42 67.04 81.76 88.83 71.72 C 86.07 77.14 81.58 81.40 78.75 86.78 C 79.35 87.23 80.56 88.14 81.16 88.59 C 63.28 98.35 45.65 109.73 32.84 125.86 C 30.56 129.18 27.43 132.92 28.29 137.22 C 32.06 139.41 36.27 140.66 40.54 141.43 C 38.36 144.90 36.26 148.44 34.66 152.22 C 31.05 151.44 27.56 150.21 24.23 148.62 C 19.34 145.95 15.24 140.85 16.01 134.98 C 17.13 125.84 23.24 118.36 29.28 111.83 Z" />
</g>
<g id="#1db9ffff">
<path fill="#1db9ff" opacity="1.00" d=" M 108.97 85.60 C 116.03 83.07 123.52 81.25 131.06 81.20 C 135.70 81.29 142.24 82.99 142.25 88.74 C 139.99 95.04 135.45 100.19 130.20 104.21 C 116.41 114.97 100.34 122.96 83.21 126.70 C 82.62 126.24 81.44 125.33 80.85 124.88 C 89.99 111.62 100.04 99.00 108.97 85.60 Z" />
</g>
<g id="#19aeffff">
<path fill="#19aeff" opacity="1.00" d=" M 69.78 106.76 C 81.33 97.33 94.58 89.68 108.97 85.60 C 100.04 99.00 89.99 111.62 80.85 124.88 C 81.44 125.33 82.62 126.24 83.21 126.70 C 77.00 128.23 70.48 128.95 64.18 127.48 C 61.66 126.38 59.22 124.02 59.70 121.01 C 60.72 115.03 65.32 110.50 69.78 106.76 Z" />
</g>
<g id="#1ab2ffff">
<path fill="#1ab2ff" opacity="1.00" d=" M 40.54 141.43 C 58.13 144.03 76.02 140.62 92.87 135.57 C 89.99 140.79 85.52 144.96 83.06 150.44 C 67.26 153.97 50.61 155.91 34.66 152.22 C 36.26 148.44 38.36 144.90 40.54 141.43 Z" />
</g>
</svg>
