<svg width="64" height="64" viewBox="0 0 64 64" fill="none" xmlns="http://www.w3.org/2000/svg">
<path d="M32.0006 4.00048C16.5371 4.00048 4 16.5371 4 32.0011C4.00333 41.6281 8.9427 50.5052 16.9531 55.6067C18.1212 56.3506 19.6015 55.5615 19.7679 54.1865L21.0915 43.2491C21.1634 42.6549 20.9592 42.0648 20.5738 41.6068C18.3168 38.9243 17.0683 35.5247 17.0666 32.0009C17.0666 23.754 23.7531 17.0675 32 17.0675C40.2469 17.0675 46.9334 23.754 46.9334 32.0009C46.9265 35.5208 45.678 38.915 43.423 41.5936C43.0373 42.0516 42.833 42.6421 42.905 43.2366L44.2282 54.1627C44.3946 55.5374 45.8748 56.3265 47.043 55.5827C55.0471 50.4863 59.9881 41.6205 60.0001 32.0006C60.0001 16.5371 47.4635 4 31.9995 4" fill="url(#paint0_linear)"/>
<path d="M32.0006 22.667C29.5252 22.667 27.1512 23.6503 25.4009 25.4007C23.6505 27.151 22.6672 29.525 22.6672 32.0004C22.6693 33.5973 23.0811 35.167 23.8632 36.5593C24.6453 37.9515 25.7715 39.1199 27.1342 39.9525L24.8139 59.0293C27.1572 59.663 29.5731 59.9893 32.0006 60C34.426 59.9951 36.8406 59.675 39.1835 59.0479L36.867 39.9521C38.2297 39.1195 39.356 37.9511 40.138 36.5588C40.9201 35.1666 41.3319 33.5969 41.334 32C41.334 29.5246 40.3507 27.1506 38.6003 25.4003C36.85 23.6499 34.476 22.6666 32.0006 22.6666" fill="url(#paint1_linear)"/>
<defs>
<linearGradient id="paint0_linear" x1="32" y1="57.0107" x2="32" y2="4" gradientUnits="userSpaceOnUse">
<stop stop-color="#FDA700"/>
<stop offset="1" stop-color="#FFDE00"/>
</linearGradient>
<linearGradient id="paint1_linear" x1="32.0006" y1="60" x2="32.0006" y2="22.6666" gradientUnits="userSpaceOnUse">
<stop stop-color="#FDA700"/>
<stop offset="1" stop-color="#FFDE00"/>
</linearGradient>
</defs>
</svg>
