<svg width="32" height="32" viewBox="0 0 32 32" fill="none" xmlns="http://www.w3.org/2000/svg">
<g clip-path="url(#clip0)">
<path d="M28.683 10.7442C28.3327 10.7329 27.9921 10.8601 27.735 11.0982C26.886 11.9002 27.422 13.3322 28.589 13.3842C28.9392 13.3966 29.28 13.2695 29.5365 13.0306C29.793 12.7918 29.944 12.4609 29.9565 12.1107C29.969 11.7605 29.8418 11.4196 29.603 11.1632C29.3641 10.9067 29.0332 10.7556 28.683 10.7432V10.7442ZM28.897 12.1872C28.574 12.1872 28.314 12.0152 28.314 11.8022C28.314 11.5832 28.574 11.4112 28.897 11.4112C29.22 11.4112 29.486 11.5832 29.486 11.8022C29.486 12.0162 29.22 12.1872 28.897 12.1872ZM31.97 13.7602C31.98 13.7552 32.006 13.7342 32.001 13.7182C31.928 13.2602 31.246 11.0462 30.73 10.5102C30.589 10.3642 30.475 10.2242 30.246 10.0882C28.381 9.00517 23.965 8.34817 23.756 8.31717C23.756 8.31717 23.735 8.31217 23.72 8.32717C23.71 8.33717 23.704 8.35817 23.704 8.35817L23.688 9.37917C23.235 9.22817 19.954 8.16517 16.875 8.05617C14.266 7.96717 10.469 7.62917 5.427 10.7282L5.281 10.8222C2.911 12.2962 1.276 14.1192 0.422003 16.2332C0.151003 16.9002 -0.207997 18.4052 0.151003 19.8162C0.312653 20.4615 0.593473 21.071 0.979003 21.6132C1.854 22.8732 3.318 23.7072 4.901 23.8472C7.135 24.0452 8.823 23.0452 9.422 21.1652C9.839 19.8732 9.422 17.9722 7.839 17.0042C6.553 16.2122 5.167 16.3952 4.36 16.9262C3.662 17.3902 3.271 18.1082 3.277 18.8952C3.293 20.2962 4.501 21.0362 5.366 21.0412C5.621 21.0412 5.871 20.9992 6.158 20.9062C6.262 20.8752 6.366 20.8282 6.46 20.7712L6.491 20.7502L6.512 20.7402H6.507C6.63121 20.657 6.72582 20.5366 6.77722 20.3963C6.82861 20.2559 6.83414 20.1029 6.793 19.9592C6.74589 19.7884 6.6358 19.6419 6.48493 19.5491C6.33406 19.4563 6.15363 19.4242 5.98 19.4592L5.928 19.4692L5.865 19.4852L5.766 19.5212C5.64152 19.5518 5.51415 19.5692 5.386 19.5732C5.287 19.5682 4.787 19.4172 4.787 18.8702V18.8652C4.78769 18.717 4.83109 18.5723 4.912 18.4482C5.068 18.2032 5.49 17.9642 6.063 18.0162C6.818 18.0792 7.36 18.4692 7.719 19.1932C8.052 19.8702 7.969 20.7092 7.495 21.3182C7.026 21.9222 6.193 22.1832 5.084 22.0632C3.975 21.9432 3.001 21.2822 2.49 20.2922C1.969 19.3132 1.943 18.1462 2.417 17.2562C3.547 15.1212 5.688 15.1412 6.86 15.3452C8.594 15.6472 10.574 17.2462 11.271 19.0952C11.386 19.3922 11.443 19.6262 11.495 19.8402L11.568 20.1582L13.532 21.1162C13.574 21.1372 13.589 21.1422 13.605 21.1322C13.626 21.1162 13.615 21.0752 13.615 21.0752C13.599 21.0282 13.573 20.9922 13.526 20.4402C13.49 19.9562 13.411 18.6222 14.083 17.9612C14.343 17.7012 14.739 17.4712 15.057 17.3982C16.343 17.0852 17.849 17.2992 19.271 18.9502C20.011 19.8042 20.37 20.1902 20.552 20.3612C20.552 20.3612 20.594 20.4032 20.615 20.4182C20.641 20.4392 20.657 20.4542 20.688 20.4752C20.751 20.5062 23.141 21.6102 23.141 21.6102C23.141 21.6102 23.167 21.6202 23.188 21.5942C23.209 21.5682 23.188 21.5472 23.188 21.5472C23.172 21.5262 21.672 19.5892 21.938 17.9902C22.152 16.7192 23.162 16.8392 24.563 16.9952C25.021 17.0472 25.542 17.1102 26.079 17.1202C27.584 17.1302 29.204 16.8492 30.199 16.4122C30.845 16.1362 31.256 15.9482 31.517 15.7142C31.611 15.6362 31.658 15.5112 31.71 15.3752L31.746 15.2862C31.788 15.1772 31.845 14.9472 31.871 14.8222C31.887 14.7652 31.897 14.7132 31.85 14.6762C31.808 14.6452 31.715 14.7022 31.715 14.7022C31.272 14.9682 30.179 15.4682 29.152 15.4882C27.881 15.5142 25.303 14.1962 25.037 14.0612C24.86 13.6342 24.683 13.2072 24.501 12.7852C26.345 13.9992 27.871 14.6702 29.043 14.7752C30.345 14.8902 31.366 14.1812 31.803 13.8842C31.86 13.8482 31.918 13.8012 31.97 13.7592V13.7602ZM26.741 12.0152C26.7496 11.7668 26.8072 11.5226 26.9103 11.2966C27.0134 11.0705 27.1601 10.867 27.342 10.6976C27.5238 10.5283 27.7373 10.3965 27.9702 10.3098C28.203 10.223 28.4507 10.1831 28.699 10.1922C29.0726 10.2051 29.4341 10.3285 29.7376 10.5468C30.0411 10.7651 30.273 11.0685 30.404 11.4187C30.535 11.7688 30.5593 12.15 30.4736 12.5139C30.388 12.8778 30.1964 13.2082 29.923 13.4632C29.7419 13.6345 29.5284 13.7678 29.295 13.8554C29.0616 13.943 28.8131 13.983 28.564 13.9732C28.0635 13.9526 27.5914 13.7354 27.2501 13.3688C26.9088 13.0023 26.7258 12.5158 26.741 12.0152Z" fill="url(#paint0_linear)"/>
</g>
<defs>
<linearGradient id="paint0_linear" x1="16.0008" y1="23.8719" x2="16.0008" y2="8" gradientUnits="userSpaceOnUse">
<stop stop-color="#00B59C"/>
<stop offset="1" stop-color="#9CFFAC"/>
</linearGradient>
<clipPath id="clip0">
<rect width="32" height="32" fill="white"/>
</clipPath>
</defs>
</svg>
