<svg width="192" height="192" viewBox="0 0 192 192" fill="none" xmlns="http://www.w3.org/2000/svg">
<path d="M83.8154 121.098L117.364 105.05C124.943 101.424 124.943 90.6335 117.364 87.0076L83.8154 70.959C77.178 67.7838 69.5 72.6222 69.5 79.9799V112.077C69.5 119.435 77.178 124.273 83.8154 121.098Z" stroke="url(#paint0_linear)" stroke-width="14"/>
<path fill-rule="evenodd" clip-rule="evenodd" d="M31 48C25.4772 48 21 52.4772 21 58V134C21 139.523 25.4772 144 31 144H120.391C124.809 144 128.391 147.582 128.391 152V152C128.391 156.418 124.809 160 120.391 160H31C16.6406 160 5 148.359 5 134V58C5 43.6406 16.6406 32 31 32H160.854C175.213 32 186.854 43.6406 186.854 58V134C186.854 145.614 179.239 155.449 168.731 158.786C164.519 160.123 160.854 156.418 160.854 152V152C160.854 147.582 164.949 144.136 168.027 140.967C169.777 139.166 170.854 136.709 170.854 134V58C170.854 52.4772 166.377 48 160.854 48H31Z" fill="url(#paint1_linear)"/>
<path d="M169.098 130.174C170.229 128.881 169.311 126.857 167.592 126.857H157.429C156.324 126.857 155.429 125.962 155.429 124.857V104C155.429 102.895 154.533 102 153.429 102H132.571C131.467 102 130.571 102.895 130.571 104V124.857C130.571 125.962 129.676 126.857 128.571 126.857H118.408C116.689 126.857 115.771 128.881 116.902 130.174L141.495 158.28C142.292 159.19 143.708 159.19 144.505 158.28L169.098 130.174Z" fill="url(#paint2_linear)"/>
<defs>
<linearGradient id="paint0_linear" x1="62" y1="96.0286" x2="120" y2="96.0286" gradientUnits="userSpaceOnUse">
<stop stop-color="#FD3A84"/>
<stop offset="1" stop-color="#FFA68D"/>
</linearGradient>
<linearGradient id="paint1_linear" x1="20.9781" y1="94.5776" x2="170.821" y2="94.5776" gradientUnits="userSpaceOnUse">
<stop stop-color="#FD3A84"/>
<stop offset="1" stop-color="#FFA68D"/>
</linearGradient>
<linearGradient id="paint2_linear" x1="143" y1="160" x2="143" y2="102" gradientUnits="userSpaceOnUse">
<stop stop-color="#5570FF"/>
<stop offset="1" stop-color="#4DD3FF"/>
</linearGradient>
</defs>
</svg>
