<svg width="128" height="128" viewBox="0 0 128 128" fill="none" xmlns="http://www.w3.org/2000/svg">
<path d="M10.5871 32.1369C8.12713 32.164 6.0214 34.3922 6.05482 36.8709C6.0214 43.7855 5.93449 50.7069 6.08825 57.6148C6.00803 64.2653 6.08825 70.9159 6.04145 77.5663C5.94787 81.4266 7.61907 85.0836 9.67134 88.2464C9.91199 88.5512 10.3933 89.1742 10.634 89.479C12.9402 91.9915 15.7747 93.9962 18.9634 95.1747C23.0636 96.6796 27.4638 96.6453 31.771 96.6116L31.9319 96.6103C36.8053 96.5968 41.6785 96.7187 46.5584 96.6103C52.1 96.6306 57.642 96.5629 63.1837 96.5629C68.1773 96.5697 73.1643 96.4681 78.1579 96.5426C80.337 96.8067 82.483 95.8857 83.9002 94.2061C86.9886 90.5152 85.5179 85.3139 85.7653 80.9051C85.1235 77.9997 81.3398 76.4556 79.0402 78.4738C76.373 80.8576 77.8036 84.9144 77.5028 88.0567C74.6416 88.0567 71.7804 88.0636 68.9193 88.0567C63.3508 88.1449 57.7822 88.0771 52.2138 88.1515C47.3806 88.0906 42.5409 88.2464 37.7077 88.1719C33.1553 88.0432 28.5829 88.3751 24.0505 87.8536C19.8792 87.0747 16.1023 84.1559 14.8388 79.9705L14.5045 79.0087C14.2505 71.4644 14.4711 63.8996 14.3975 56.3484L14.3972 56.3026C14.3707 51.0421 14.3441 45.7885 14.3642 40.5347C18.1745 40.5279 21.9849 40.5347 25.8019 40.5279C31.1633 40.5009 36.5245 40.467 41.8924 40.4806C46.3646 40.4806 50.8368 40.4873 55.3156 40.4806C59.9282 40.6295 64.6077 40.0809 69.1734 40.9886C70.3499 41.4016 71.4864 41.9501 72.5425 42.6139C74.9357 44.1647 76.5 46.7044 77.242 49.4405C77.7033 54.75 77.3223 60.0867 77.4827 65.4099C77.496 66.2835 77.7567 67.13 78.1579 67.8953C78.686 68.349 79.2141 68.796 79.7556 69.2362C82.5833 70.1369 85.6382 68.9923 88.4191 69.8593C89.1478 71.1663 88.6397 72.8121 88.8202 74.2546C88.8068 75.4533 89.2949 76.5775 89.7093 77.6815C90.1237 78.1894 90.5582 78.6905 91.0061 79.1782C97.2699 84.0339 103.915 88.3616 110.318 93.0345C112.458 94.5515 114.817 96.4749 117.618 95.9602C120.232 95.5742 122.11 93.0074 121.97 90.3798C122.045 73.9091 121.95 57.4387 121.997 40.9682C122.01 39.3022 121.937 37.6362 121.703 35.9837C121.275 35.1913 120.733 34.4667 120.24 33.7217C118.106 32.1911 115.165 32.0692 113.019 33.6472C107.879 37.4194 102.905 41.4219 97.7979 45.2416C96.6616 46.1491 95.2577 46.9957 94.8634 48.5194C94.2818 50.2126 95.0238 52.0275 96.227 53.233C97.7311 53.8493 99.5557 54.4724 100.993 53.3346C105.292 50.172 109.416 46.7721 113.628 43.5011V43.5022C113.615 44.3686 113.601 45.2352 113.601 46.1084C113.628 59.0708 113.595 72.04 113.601 85.0024C108.561 81.4808 103.56 77.8913 98.5137 74.3765C98.0586 74.004 97.5973 73.6587 97.1095 73.3336C97.2097 71.4982 97.29 69.6629 97.3166 67.8208C97.243 66.507 97.0425 65.2067 96.7485 63.9267C96.0532 62.7483 94.9435 61.6578 93.4996 61.6647C90.8657 61.5089 88.232 61.6647 85.6048 61.5495L85.8388 61.2718C85.7319 54.8042 86.6945 47.8287 83.2183 42.0044C81.0658 38.4962 77.9239 35.4283 74.0599 33.9925L73.5786 33.715C69.6346 31.9067 65.2026 31.988 60.9711 32.0286C56.5457 32.0692 52.1201 31.9473 47.7016 32.0286H31.551C24.5585 32.1437 17.5729 31.9812 10.5871 32.1369Z" fill="url(#paint0_linear_641_40)" stroke="url(#paint1_linear_641_40)" stroke-width="4"/>
<defs>
<linearGradient id="paint0_linear_641_40" x1="6" y1="96.6556" x2="109.357" y2="15.8326" gradientUnits="userSpaceOnUse">
<stop stop-color="#0357D1"/>
<stop offset="1" stop-color="#27CDFC"/>
</linearGradient>
<linearGradient id="paint1_linear_641_40" x1="6" y1="96.6556" x2="109.357" y2="15.8326" gradientUnits="userSpaceOnUse">
<stop stop-color="#0357D1"/>
<stop offset="1" stop-color="#27CDFC"/>
</linearGradient>
</defs>
</svg>
