<svg width="128" height="128" viewBox="0 0 128 128" fill="none" xmlns="http://www.w3.org/2000/svg">
<path d="M20.9342 8.5182C22.8622 8.02444 24.8607 7.99309 26.8357 8.00093C49.8778 8.06363 72.9277 7.94606 95.9697 8.06363C99.3868 8.33794 100.241 13.3853 97.8507 15.3995C96.9416 16.3949 95.4916 16.2459 94.2768 16.3086C71.5169 16.2851 48.757 16.2851 26.005 16.3008C20.7696 16.1597 16.0985 20.8857 16.2866 26.1133C16.2709 51.7027 16.2787 77.2998 16.2631 102.889C16.075 105.883 17.713 108.924 20.4326 110.249C22.3998 111.346 24.7196 111.064 26.8828 111.103C51.9782 111.079 77.0737 111.095 102.169 111.087C105.461 111.283 108.753 109.41 110.195 106.432C111.308 104.37 111.049 101.98 111.08 99.7307C111.057 77.2685 111.072 54.8063 111.065 32.3441C111.033 31.1607 111.174 29.8675 112.068 28.9897C114.309 26.6071 119.506 27.8611 119.341 31.5212C119.349 55.5665 119.396 79.6197 119.317 103.665C119.145 112.177 111.402 119.536 102.906 119.364C78.0769 119.379 53.24 119.356 28.4111 119.371C24.7667 119.395 20.9342 119.536 17.5797 117.89C11.8036 115.359 7.88484 109.222 8.02591 102.913C7.97889 77.0099 8.01024 51.1149 8.01024 25.2198C7.82998 17.547 13.4886 10.2895 20.9342 8.5182Z" fill="url(#paint0_linear_641_104)" stroke="url(#paint1_linear_641_104)" stroke-width="4"/>
<path d="M42.378 39.437C42.0566 36.7723 44.5568 34.3348 47.2058 34.617C59.5106 34.6091 71.8153 34.6091 84.1201 34.617C86.7378 34.374 89.1439 36.8428 88.8226 39.4527C88.7599 40.8713 87.7724 41.9529 86.9337 42.9952C75.5146 56.2955 64.166 69.6506 52.7547 82.9586C61.8853 82.99 71.0159 82.9428 80.1465 82.9742C82.6075 82.7312 85.0292 84.6907 85.1076 87.1987C85.3271 89.8713 82.8034 92.1597 80.1779 91.9246C68.3982 91.9638 56.6107 91.9167 44.8311 91.9481C43.3184 91.9011 41.6334 91.9716 40.3716 90.9841C38.3495 89.495 38.0595 86.2425 39.7994 84.4242C51.3988 70.7713 63.0609 57.1655 74.676 43.5204C65.514 43.544 56.3443 43.544 47.1823 43.5204C44.8076 43.7477 42.5347 41.8118 42.378 39.437Z" fill="url(#paint2_linear_641_104)" stroke="url(#paint3_linear_641_104)" stroke-width="4"/>
<defs>
<linearGradient id="paint0_linear_641_104" x1="119.032" y1="8.70611" x2="8.52894" y2="118.267" gradientUnits="userSpaceOnUse">
<stop stop-color="#FE7970"/>
<stop offset="1" stop-color="#DC3282"/>
</linearGradient>
<linearGradient id="paint1_linear_641_104" x1="119.032" y1="8.70611" x2="8.52894" y2="118.267" gradientUnits="userSpaceOnUse">
<stop stop-color="#FE7970"/>
<stop offset="1" stop-color="#DC3282"/>
</linearGradient>
<linearGradient id="paint2_linear_641_104" x1="88.7028" y1="34.9584" x2="32.3674" y2="83.8522" gradientUnits="userSpaceOnUse">
<stop stop-color="#FE7970"/>
<stop offset="1" stop-color="#DC3282"/>
</linearGradient>
<linearGradient id="paint3_linear_641_104" x1="88.7027" y1="34.9583" x2="32.3673" y2="83.8519" gradientUnits="userSpaceOnUse">
<stop stop-color="#FE7970"/>
<stop offset="1" stop-color="#DC3282"/>
</linearGradient>
</defs>
</svg>
