<svg width="128" height="128" viewBox="0 0 128 128" fill="none" xmlns="http://www.w3.org/2000/svg">
<path d="M90.4688 8C74.187 8 60.9375 21.2535 60.9375 37.5314C60.9375 53.815 74.1853 67.0627 90.4688 67.0627C106.784 67.0627 120 53.7898 120 37.5314C120 21.2478 106.752 8 90.4688 8ZM90.4688 60.5002C77.8038 60.5002 67.5 50.1964 67.5 37.5314C67.5 32.3796 69.205 27.6187 72.0802 23.7829L104.217 55.92C100.381 58.7953 95.6204 60.5002 90.4688 60.5002ZM108.857 51.2796L76.7206 19.1427C80.5562 16.2675 85.317 14.5625 90.4688 14.5625C103.134 14.5625 113.438 24.8663 113.438 37.5314C113.438 42.6832 111.733 47.4438 108.857 51.2796ZM97.1727 93.0628L80.4673 81.9257C76.5766 79.3322 71.3529 79.8491 68.0465 83.1558L63.6511 87.5511C61.0711 87.1771 54.9393 85.6423 48.6485 79.3517C42.3577 73.0609 40.8231 66.9293 40.4491 64.3491L44.8444 59.9538C48.1508 56.6471 48.668 51.4234 46.0742 47.5326L34.9372 30.8273C33.2948 28.3637 30.663 26.7835 27.7167 26.4917C24.7692 26.1998 21.8795 27.2334 19.7863 29.3269L12.8235 36.2895C9.50567 39.6075 7.75763 44.1385 8.02713 48.7209C8.55214 57.6462 12.4179 75.6036 32.4071 95.5929C52.3964 115.582 70.3541 119.448 79.2791 119.973C83.8558 120.242 88.3887 118.498 91.7105 115.176L98.6729 108.214C100.767 106.12 101.8 103.229 101.508 100.283C101.217 97.337 99.6363 94.7052 97.1727 93.0628ZM94.0325 103.574L87.0701 110.536C85.0766 112.529 82.3779 113.581 79.6645 113.422C71.6696 112.951 55.5017 109.407 37.0475 90.9525C18.5932 72.4982 15.0488 56.3304 14.5783 48.3355C14.4188 45.6227 15.4706 42.9233 17.4638 40.9299L24.4264 33.9675C25.8951 32.499 28.3318 32.7499 29.4767 34.4675L40.6138 51.1729C41.4785 52.4699 41.3061 54.2111 40.2038 55.3134L34.7272 60.7898C34.1119 61.4052 33.766 62.2397 33.766 63.1101C33.766 63.5446 33.8824 73.8665 44.0079 83.9919C54.1332 94.1174 64.4552 94.2338 64.8897 94.2338C65.7601 94.2338 66.5944 93.8879 67.2099 93.2726L72.6864 87.7959C73.7884 86.6936 75.5299 86.5213 76.8269 87.386L93.5322 98.5228C95.2571 99.6728 95.4953 102.111 94.0325 103.574Z" fill="url(#paint0_linear_616_117)"/>
<defs>
<linearGradient id="paint0_linear_616_117" x1="48" y1="103" x2="93" y2="39" gradientUnits="userSpaceOnUse">
<stop stop-color="#C92FFF"/>
<stop offset="1" stop-color="#FF0A18"/>
</linearGradient>
</defs>
</svg>
