<svg width="32" height="32" viewBox="0 0 32 32" fill="none" xmlns="http://www.w3.org/2000/svg">
<path fill-rule="evenodd" clip-rule="evenodd" d="M3.07692 3C3.03444 3 3 3.03444 3 3.07692V28.9231C3 28.9655 3.03444 29 3.07692 29H5.00001L5 29V25L5.00003 25H15L15 25V29L15 29H18V25H28L28 29L23.625 29H28.9231C28.9656 29 29 28.9655 29 28.9231V3.07692C29 3.03444 28.9656 3 28.9231 3H3.07692ZM1 3.07692C1 1.92987 1.92987 1 3.07692 1H28.9231C30.0701 1 31 1.92987 31 3.07692V28.9231C31 30.0701 30.0701 31 28.9231 31H3.07692C1.92987 31 1 30.0701 1 28.9231V3.07692Z" fill="url(#paint0_linear)"/>
<path d="M13.0638 5C12.2513 5 11.472 5.32279 10.8974 5.89737C10.3228 6.47195 10 7.25125 10 8.06383C10.0003 8.74282 10.2262 9.40248 10.6421 9.93917C11.058 10.4759 11.6404 10.8592 12.2979 11.0289V9.3863C12.0656 9.25221 11.8726 9.05948 11.7382 8.8274C11.6038 8.59532 11.5327 8.33202 11.5319 8.06383C11.5319 7.65754 11.6933 7.26789 11.9806 6.9806C12.2679 6.69331 12.6575 6.53192 13.0638 6.53191C13.265 6.53191 13.4642 6.57152 13.6501 6.64851C13.8359 6.7255 14.0048 6.83833 14.1471 6.98058C14.2893 7.12283 14.4022 7.29172 14.4791 7.47758C14.5561 7.66344 14.5958 7.86266 14.5958 8.06383C14.5953 8.13292 14.5902 8.20188 14.5804 8.27028L15.873 9.2756C16.0393 8.89319 16.1259 8.48085 16.1273 8.06383C16.1273 7.66148 16.0481 7.26305 15.8941 6.89133C15.7401 6.51961 15.5144 6.18188 15.2299 5.89737C14.9454 5.61287 14.6077 5.38719 14.236 5.23321C13.8642 5.07924 13.4658 5 13.0635 5H13.0638ZM13.0638 8.06383L13.073 23L17.6598 16.8723H24.5534L13.064 8.06383H13.0638Z" fill="url(#paint1_linear)"/>
<defs>
<linearGradient id="paint0_linear" x1="16" y1="31" x2="16" y2="1" gradientUnits="userSpaceOnUse">
<stop stop-color="#5570FF"/>
<stop offset="1" stop-color="#4DD3FF"/>
</linearGradient>
<linearGradient id="paint1_linear" x1="17.2767" y1="23" x2="17.2767" y2="5" gradientUnits="userSpaceOnUse">
<stop stop-color="#FDA700"/>
<stop offset="1" stop-color="#FFDE00"/>
</linearGradient>
</defs>
</svg>
