<svg width="128" height="128" viewBox="0 0 128 128" fill="none" xmlns="http://www.w3.org/2000/svg">
<path d="M119.77 97.8699L112.852 66.6727C110.877 55.7396 101.383 47.8125 90.25 47.8125C86.6118 47.8125 83.1306 48.6394 79.9033 50.2702C75.6467 52.4211 71.4152 53.731 67.2812 54.1884V44.5312C67.2812 42.722 68.7532 41.25 70.5625 41.25H83.6875C89.1153 41.25 93.5312 36.8341 93.5312 31.4062C93.5312 25.9784 89.1153 21.5625 83.6875 21.5625H44.3125C42.5032 21.5625 41.0312 20.0905 41.0312 18.2812C41.0312 16.4691 39.5621 15 37.75 15C35.9379 15 34.4688 16.4691 34.4688 18.2812C34.4688 23.7091 38.8847 28.125 44.3125 28.125H83.6875C85.4968 28.125 86.9688 29.597 86.9688 31.4062C86.9688 33.2155 85.4968 34.6875 83.6875 34.6875H70.5625C65.1347 34.6875 60.7188 39.1034 60.7188 44.5312V54.1882C56.5848 53.7308 52.3531 52.4209 48.096 50.2697C44.8688 48.6394 41.3878 47.8125 37.75 47.8125C26.6172 47.8125 17.1234 55.7396 15.1483 66.6727L8.22969 97.8699C8.1225 98.3508 8 99.3408 8 100.312C8 107.55 13.8879 113.438 21.125 113.438C26.8847 113.438 27.6672 112.114 44.0798 97.5807C45.8481 99.271 48.2415 100.312 50.875 100.312C55.1527 100.312 58.7999 97.5689 60.1544 93.75H67.8458C69.2003 97.5689 72.8476 100.312 77.1252 100.312C79.7588 100.312 82.1521 99.271 83.9205 97.5807C100.33 112.112 101.095 113.438 106.875 113.438C114.112 113.438 120 107.55 120 100.312C120 99.3824 119.884 98.3781 119.77 97.8699ZM54.1562 90.4698C54.1556 92.2787 52.6841 93.75 50.875 93.75C49.0657 93.75 47.5938 92.278 47.5938 90.4688C47.5938 88.6595 49.0657 87.1875 50.875 87.1875C52.6838 87.1875 54.1556 88.659 54.1562 90.4677V90.4698ZM77.125 93.75C75.3162 93.75 73.8444 92.2785 73.8438 90.4698C73.8438 90.4702 73.8438 90.4694 73.8438 90.4698C73.8438 90.4693 73.8438 90.4681 73.8438 90.4677C73.8444 88.6588 75.3159 87.1875 77.125 87.1875C78.9343 87.1875 80.4062 88.6595 80.4062 90.4688C80.4062 92.278 78.9343 93.75 77.125 93.75ZM106.875 106.875C103.833 106.875 104.222 106.763 86.918 91.4713C86.9515 91.1416 86.9688 90.8072 86.9688 90.4688C86.9688 85.0409 82.5528 80.625 77.125 80.625C72.8473 80.625 69.2001 83.3686 67.8456 87.1875H60.1544C58.7999 83.3686 55.1527 80.625 50.875 80.625C45.4472 80.625 41.0312 85.0409 41.0312 90.4688C41.0312 90.8069 41.0485 91.1414 41.082 91.4711C23.8602 106.688 24.1748 106.875 21.125 106.875C17.5064 106.875 14.5625 103.931 14.5625 100.312C14.5625 99.9439 14.5931 99.5753 14.6533 99.2155C14.6533 99.2155 21.589 67.9364 21.5971 67.8905C22.9872 60.059 29.7805 54.375 37.75 54.375C40.3503 54.375 42.8355 54.9645 45.1365 56.1272C51.4536 59.3192 57.8002 60.9375 64 60.9375C70.2001 60.9375 76.5466 59.3192 82.8632 56.1274C85.1641 54.9645 87.6495 54.375 90.25 54.375C98.2195 54.375 105.013 60.059 106.403 67.8907C106.411 67.9364 106.42 67.9821 106.43 68.0276L113.347 99.2157C113.407 99.5753 113.438 99.9439 113.438 100.312C113.438 103.931 110.494 106.875 106.875 106.875ZM44.3125 67.5H41.0312V64.2188C41.0312 62.4066 39.5621 60.9375 37.75 60.9375C35.9379 60.9375 34.4688 62.4066 34.4688 64.2188V67.5H31.1875C29.3754 67.5 27.9062 68.9691 27.9062 70.7812C27.9062 72.5934 29.3754 74.0625 31.1875 74.0625H34.4688V77.3438C34.4688 79.1559 35.9379 80.625 37.75 80.625C39.5621 80.625 41.0312 79.1559 41.0312 77.3438V74.0625H44.3125C46.1246 74.0625 47.5938 72.5934 47.5938 70.7812C47.5938 68.9691 46.1246 67.5 44.3125 67.5ZM96.8125 67.5H93.5312V64.2188C93.5312 62.4066 92.0621 60.9375 90.25 60.9375C88.4379 60.9375 86.9688 62.4066 86.9688 64.2188V67.5H83.6875C81.8754 67.5 80.4062 68.9691 80.4062 70.7812C80.4062 72.5934 81.8754 74.0625 83.6875 74.0625H86.9688V77.3438C86.9688 79.1559 88.4379 80.625 90.25 80.625C92.0621 80.625 93.5312 79.1559 93.5312 77.3438V74.0625H96.8125C98.6246 74.0625 100.094 72.5934 100.094 70.7812C100.094 68.9691 98.6246 67.5 96.8125 67.5ZM57.4375 67.5C55.6254 67.5 54.1562 68.9691 54.1562 70.7812C54.1562 72.5934 55.6254 74.0625 57.4375 74.0625C59.2496 74.0625 60.7188 72.5934 60.7188 70.7812C60.7188 68.9691 59.2496 67.5 57.4375 67.5ZM70.5625 67.5C68.7504 67.5 67.2812 68.9691 67.2812 70.7812C67.2812 72.5934 68.7504 74.0625 70.5625 74.0625C72.3746 74.0625 73.8438 72.5934 73.8438 70.7812C73.8438 68.9691 72.3746 67.5 70.5625 67.5Z" fill="url(#paint0_linear_637_202)"/>
<path d="M73.8438 90.4698C73.8444 92.2785 75.3162 93.75 77.125 93.75C78.9343 93.75 80.4062 92.278 80.4062 90.4688C80.4062 88.6595 78.9343 87.1875 77.125 87.1875C75.3159 87.1875 73.8444 88.6588 73.8438 90.4677C73.8438 90.4681 73.8438 90.4693 73.8438 90.4698ZM73.8438 90.4698C73.8438 90.4694 73.8438 90.4702 73.8438 90.4698ZM119.77 97.8699L112.852 66.6727C110.877 55.7396 101.383 47.8125 90.25 47.8125C86.6118 47.8125 83.1306 48.6394 79.9033 50.2702C75.6467 52.4211 71.4152 53.731 67.2812 54.1884V44.5312C67.2812 42.722 68.7532 41.25 70.5625 41.25H83.6875C89.1153 41.25 93.5312 36.8341 93.5312 31.4062C93.5312 25.9784 89.1153 21.5625 83.6875 21.5625H44.3125C42.5032 21.5625 41.0312 20.0905 41.0312 18.2812C41.0312 16.4691 39.5621 15 37.75 15C35.9379 15 34.4688 16.4691 34.4688 18.2812C34.4688 23.7091 38.8847 28.125 44.3125 28.125H83.6875C85.4968 28.125 86.9688 29.597 86.9688 31.4062C86.9688 33.2155 85.4968 34.6875 83.6875 34.6875H70.5625C65.1347 34.6875 60.7188 39.1034 60.7188 44.5312V54.1882C56.5848 53.7308 52.3531 52.4209 48.096 50.2697C44.8688 48.6394 41.3878 47.8125 37.75 47.8125C26.6172 47.8125 17.1234 55.7396 15.1483 66.6727L8.22969 97.8699C8.1225 98.3508 8 99.3408 8 100.312C8 107.55 13.8879 113.438 21.125 113.438C26.8847 113.438 27.6672 112.114 44.0798 97.5807C45.8481 99.271 48.2415 100.312 50.875 100.312C55.1527 100.312 58.7999 97.5689 60.1544 93.75H67.8458C69.2003 97.5689 72.8476 100.312 77.1252 100.312C79.7588 100.312 82.1521 99.271 83.9205 97.5807C100.33 112.112 101.095 113.438 106.875 113.438C114.112 113.438 120 107.55 120 100.312C120 99.3824 119.884 98.3781 119.77 97.8699ZM54.1562 90.4698C54.1556 92.2787 52.6841 93.75 50.875 93.75C49.0657 93.75 47.5938 92.278 47.5938 90.4688C47.5938 88.6595 49.0657 87.1875 50.875 87.1875C52.6838 87.1875 54.1556 88.659 54.1562 90.4677V90.4698ZM106.875 106.875C103.833 106.875 104.222 106.763 86.918 91.4713C86.9515 91.1416 86.9688 90.8072 86.9688 90.4688C86.9688 85.0409 82.5528 80.625 77.125 80.625C72.8473 80.625 69.2001 83.3686 67.8456 87.1875H60.1544C58.7999 83.3686 55.1527 80.625 50.875 80.625C45.4472 80.625 41.0312 85.0409 41.0312 90.4688C41.0312 90.8069 41.0485 91.1414 41.082 91.4711C23.8602 106.688 24.1748 106.875 21.125 106.875C17.5064 106.875 14.5625 103.931 14.5625 100.312C14.5625 99.9439 14.5931 99.5753 14.6533 99.2155C14.6533 99.2155 21.589 67.9364 21.5971 67.8905C22.9872 60.059 29.7805 54.375 37.75 54.375C40.3503 54.375 42.8355 54.9645 45.1365 56.1272C51.4536 59.3192 57.8002 60.9375 64 60.9375C70.2001 60.9375 76.5466 59.3192 82.8632 56.1274C85.1641 54.9645 87.6495 54.375 90.25 54.375C98.2195 54.375 105.013 60.059 106.403 67.8907C106.411 67.9364 106.42 67.9821 106.43 68.0276L113.347 99.2157C113.407 99.5753 113.438 99.9439 113.438 100.312C113.438 103.931 110.494 106.875 106.875 106.875ZM44.3125 67.5H41.0312V64.2188C41.0312 62.4066 39.5621 60.9375 37.75 60.9375C35.9379 60.9375 34.4688 62.4066 34.4688 64.2188V67.5H31.1875C29.3754 67.5 27.9062 68.9691 27.9062 70.7812C27.9062 72.5934 29.3754 74.0625 31.1875 74.0625H34.4688V77.3438C34.4688 79.1559 35.9379 80.625 37.75 80.625C39.5621 80.625 41.0312 79.1559 41.0312 77.3438V74.0625H44.3125C46.1246 74.0625 47.5938 72.5934 47.5938 70.7812C47.5938 68.9691 46.1246 67.5 44.3125 67.5ZM96.8125 67.5H93.5312V64.2188C93.5312 62.4066 92.0621 60.9375 90.25 60.9375C88.4379 60.9375 86.9688 62.4066 86.9688 64.2188V67.5H83.6875C81.8754 67.5 80.4062 68.9691 80.4062 70.7812C80.4062 72.5934 81.8754 74.0625 83.6875 74.0625H86.9688V77.3438C86.9688 79.1559 88.4379 80.625 90.25 80.625C92.0621 80.625 93.5312 79.1559 93.5312 77.3438V74.0625H96.8125C98.6246 74.0625 100.094 72.5934 100.094 70.7812C100.094 68.9691 98.6246 67.5 96.8125 67.5ZM57.4375 67.5C55.6254 67.5 54.1562 68.9691 54.1562 70.7812C54.1562 72.5934 55.6254 74.0625 57.4375 74.0625C59.2496 74.0625 60.7188 72.5934 60.7188 70.7812C60.7188 68.9691 59.2496 67.5 57.4375 67.5ZM70.5625 67.5C68.7504 67.5 67.2812 68.9691 67.2812 70.7812C67.2812 72.5934 68.7504 74.0625 70.5625 74.0625C72.3746 74.0625 73.8438 72.5934 73.8438 70.7812C73.8438 68.9691 72.3746 67.5 70.5625 67.5Z" stroke="url(#paint1_linear_637_202)" stroke-width="3"/>
<defs>
<linearGradient id="paint0_linear_637_202" x1="60.5" y1="107.5" x2="76.5" y2="45.5" gradientUnits="userSpaceOnUse">
<stop stop-color="#0026EA"/>
<stop offset="1" stop-color="#00FFC2"/>
</linearGradient>
<linearGradient id="paint1_linear_637_202" x1="60.5" y1="107.5" x2="76.5" y2="45.5" gradientUnits="userSpaceOnUse">
<stop stop-color="#0026EA"/>
<stop offset="1" stop-color="#00FFC2"/>
</linearGradient>
</defs>
</svg>
