<svg width="16" height="16" viewBox="0 0 16 16" fill="none" xmlns="http://www.w3.org/2000/svg">
<path opacity="0.35" fill-rule="evenodd" clip-rule="evenodd" d="M9.8 2.99196C9.91046 2.99196 10 2.90242 10 2.79196V0.87873C10 0.710569 10.1949 0.617479 10.3257 0.723175L10.813 1.11696L15.8187 5.33908C15.9135 5.41898 15.9135 5.56493 15.8187 5.64484L10.813 9.86696L10.3255 10.2597C10.1946 10.3652 10 10.272 10 10.104V8.19196C10 8.0815 9.91046 7.99196 9.8 7.99196H8H5.2C5.08954 7.99196 5 7.90242 5 7.79196V6.96172C5 6.79005 4.79794 6.69815 4.66856 6.81098L1.76692 9.34117C1.67549 9.42089 1.67552 9.563 1.76697 9.64269L4.66861 12.1712C4.79801 12.2839 5 12.192 5 12.0204V11.192C5 11.0815 5.08954 10.992 5.2 10.992H8.8C8.91046 10.992 9 11.0815 9 11.192V11.792C9 11.9024 8.91046 11.992 8.8 11.992H6.2C6.08954 11.992 6 12.0815 6 12.192V14.1043C6 14.2724 5.80511 14.3655 5.67432 14.2599L5.18799 13.867L0.181304 9.64485C0.0865487 9.56494 0.0865482 9.41897 0.181304 9.33907L5.18799 5.11696L5.6742 4.72357C5.80497 4.61776 6 4.71083 6 4.87905V5.49196V6.79196C6 6.90242 6.08954 6.99196 6.2 6.99196H8H10.8C10.9105 6.99196 11 7.0815 11 7.19196V8.0204C11 8.19204 11.202 8.28395 11.3314 8.17118L14.233 5.64269C14.3245 5.563 14.3245 5.42089 14.2331 5.34117L11.3314 2.81098C11.2021 2.69815 11 2.79005 11 2.96172V3.79196C11 3.90242 10.9105 3.99196 10.8 3.99196H7.2C7.08954 3.99196 7 3.90242 7 3.79196V3.19196C7 3.0815 7.08954 2.99196 7.2 2.99196H9.8Z" fill="url(#paint0_linear)"/>
<defs>
<linearGradient id="paint0_linear" x1="0" y1="0.459961" x2="0" y2="14.523" gradientUnits="userSpaceOnUse">
<stop stop-color="white"/>
<stop offset="1" stop-color="#B5B5B5"/>
</linearGradient>
</defs>
</svg>
