<svg width="128" height="128" viewBox="0 0 128 128" fill="none" xmlns="http://www.w3.org/2000/svg">
<path fill-rule="evenodd" clip-rule="evenodd" d="M78.1953 17.4117C78.1953 16.227 79.5787 15.5711 80.507 16.3158L83.9658 19.0901L119.496 48.8358C120.168 49.3988 120.168 50.427 119.496 50.9899L83.9658 80.7357L80.5056 83.5027C79.5772 84.2452 78.1953 83.5893 78.1953 82.4057V68.9349C78.1953 68.1567 77.5598 67.5259 76.7758 67.5259H65.4194C64.6354 67.5259 63.9998 66.8951 63.9998 66.1168C63.9998 66.8951 63.3643 67.5259 62.5802 67.5259H44.126C43.3421 67.5259 42.7064 66.8951 42.7064 66.1168V60.2676C42.7064 59.0582 41.2723 58.4108 40.354 59.2056L19.7588 77.0314C19.1099 77.5931 19.11 78.5942 19.7592 79.1556L40.3543 96.9696C41.2728 97.7636 42.7064 97.1161 42.7064 95.9072V90.0709C42.7064 89.2924 43.3421 88.6619 44.126 88.6619H69.678C70.462 88.6619 71.0976 89.2924 71.0976 90.0709V94.298C71.0976 95.0758 70.462 95.7071 69.678 95.7071H51.2238C50.4398 95.7071 49.8042 96.3376 49.8042 97.1161V110.589C49.8042 111.773 48.421 112.429 47.4926 111.684L44.0408 108.917L8.50441 79.1708C7.83186 78.6079 7.83186 77.5795 8.50441 77.0166L44.0408 47.2709L47.4918 44.4994C48.42 43.7539 49.8042 44.4096 49.8042 45.5948V49.9129V59.0716C49.8042 59.8499 50.4398 60.4807 51.2238 60.4807H62.5802C63.3643 60.4807 63.9998 61.1115 63.9998 61.8897C63.9998 61.1115 64.6354 60.4807 65.4194 60.4807H83.8735C84.6578 60.4807 85.2931 61.1115 85.2931 61.8897V67.7263C85.2931 68.9355 86.7268 69.583 87.6453 68.7886L108.24 50.9748C108.89 50.4134 108.89 49.4122 108.241 48.8505L87.646 31.0248C86.7275 30.23 85.2931 30.8773 85.2931 32.0868V37.936C85.2931 38.7142 84.6578 39.345 83.8735 39.345H58.3216C57.5376 39.345 56.902 38.7142 56.902 37.936V33.7089C56.902 32.9307 57.5376 32.2998 58.3216 32.2998H76.7758C77.5598 32.2998 78.1953 31.669 78.1953 30.8908V17.4117Z" fill="url(#paint0_linear_616_20)"/>
<defs>
<linearGradient id="paint0_linear_616_20" x1="52.5" y1="73.5" x2="75" y2="64" gradientUnits="userSpaceOnUse">
<stop stop-color="#FF0061"/>
<stop offset="1" stop-color="#FF3800"/>
</linearGradient>
</defs>
</svg>
