<svg width="16" height="16" viewBox="0 0 16 16" fill="none" xmlns="http://www.w3.org/2000/svg">
<path opacity="0.35" d="M10.3256 0.73171C10.1948 0.626156 10 0.719269 10 0.88736V2.79999C10 2.91045 9.91046 2.99999 9.8 2.99999H7.2C7.08954 2.99999 7 3.08954 7 3.19999V3.79999C7 3.91045 7.08954 3.99999 7.2 3.99999H10.8C10.9105 3.99999 11 3.91045 11 3.79999V2.97065C11 2.799 11.202 2.7071 11.3314 2.81989L14.233 5.34923C14.3245 5.42894 14.3245 5.57105 14.233 5.65076L11.3314 8.1801C11.202 8.29289 11 8.20099 11 8.02934V7.19999C11 7.08954 10.9105 6.99999 10.8 6.99999H8.2C8.08954 6.99999 8 7.08954 8 7.19999V7.79999C8 7.91045 8.08954 7.99999 8.2 7.99999H9.8C9.91046 7.99999 10 8.08954 10 8.19999V10.1126C10 10.2807 10.1948 10.3738 10.3256 10.2683L10.813 9.87499L15.8187 5.65287C15.9135 5.57297 15.9135 5.42702 15.8187 5.34711L10.813 1.12499L10.3256 0.73171Z" fill="url(#paint0_linear)"/>
<path d="M6 4.88736C6 4.71927 5.80522 4.62616 5.67441 4.73171L5.187 5.12499L0.181273 9.3471C0.0865306 9.42701 0.0865374 9.57297 0.181287 9.65287L5.188 13.875L5.67431 14.2679C5.80511 14.3735 6 14.2805 6 14.1123V12.2C6 12.0895 6.08954 12 6.2 12H8.8C8.91046 12 9 11.9105 9 11.8V11.2C9 11.0895 8.91046 11 8.8 11H5.2C5.08954 11 5 11.0895 5 11.2V12.0293C5 12.201 4.79798 12.2929 4.66858 12.1801L1.76695 9.65076C1.67551 9.57105 1.67551 9.42894 1.76695 9.34923L4.66858 6.81989C4.79798 6.7071 5 6.799 5 6.97065V7.79999C5 7.91045 5.08954 7.99999 5.2 7.99999H7.8C7.91046 7.99999 8 7.91045 8 7.79999V7.19999C8 7.08954 7.91046 6.99999 7.8 6.99999H6.2C6.08954 6.99999 6 6.91045 6 6.79999V5.49999V4.88736Z" fill="url(#paint1_linear)"/>
<defs>
<linearGradient id="paint0_linear" x1="11.5" y1="10.531" x2="11.5" y2="0.468994" gradientUnits="userSpaceOnUse">
<stop stop-color="#C3FFE8"/>
<stop offset="0.9973" stop-color="#F0FFF4"/>
</linearGradient>
<linearGradient id="paint1_linear" x1="4.5" y1="14.531" x2="4.5" y2="4.46899" gradientUnits="userSpaceOnUse">
<stop stop-color="#00B59C"/>
<stop offset="1" stop-color="#9CFFAC"/>
</linearGradient>
</defs>
</svg>
