<svg width="128" height="128" viewBox="0 0 128 128" fill="none" xmlns="http://www.w3.org/2000/svg">
<path d="M64.0938 93.75C51.4288 93.75 41.125 83.4462 41.125 70.7812V30.9688C41.125 18.3038 51.4288 8 64.0938 8C76.7587 8 87.0625 18.3038 87.0625 30.9688V70.7812C87.0625 83.4462 76.7587 93.75 64.0938 93.75Z" fill="url(#paint0_linear_616_35)"/>
<path d="M100.188 70.7812C100.188 68.9691 98.7184 67.5 96.9062 67.5C95.0941 67.5 93.625 68.9691 93.625 70.7812C93.625 87.0648 80.3773 100.312 64.0938 100.312C47.8102 100.312 34.5625 87.0648 34.5625 70.7812C34.5625 68.9691 33.0934 67.5 31.2812 67.5C29.4691 67.5 28 68.9691 28 70.7812C28 89.5774 42.4426 105.061 60.8125 106.725V113.438H44.4062C42.5941 113.438 41.125 114.907 41.125 116.719C41.125 118.531 42.5941 120 44.4062 120H83.7812C85.5934 120 87.0625 118.531 87.0625 116.719C87.0625 114.907 85.5934 113.438 83.7812 113.438H67.375V106.725C85.7449 105.061 100.188 89.5774 100.188 70.7812Z" fill="url(#paint1_linear_616_35)"/>
<defs>
<linearGradient id="paint0_linear_616_35" x1="64.0938" y1="93.75" x2="64.0938" y2="8" gradientUnits="userSpaceOnUse">
<stop stop-color="#FF0061"/>
<stop offset="1" stop-color="#FFED8D"/>
</linearGradient>
<linearGradient id="paint1_linear_616_35" x1="97.7489" y1="69.0006" x2="81.8295" y2="123.964" gradientUnits="userSpaceOnUse">
<stop stop-color="#FE0F7C"/>
<stop offset="0.0001" stop-color="#E30068"/>
<stop offset="1" stop-color="#D20060"/>
</linearGradient>
</defs>
</svg>
