<svg width="128" height="128" viewBox="0 0 128 128" fill="none" xmlns="http://www.w3.org/2000/svg">
<path fill-rule="evenodd" clip-rule="evenodd" d="M117.16 34.3636C117.16 43.401 109.834 50.7273 100.796 50.7273C91.7591 50.7273 84.4328 43.401 84.4328 34.3636C84.4328 25.3262 91.7591 18 100.796 18C109.834 18 117.16 25.3262 117.16 34.3636ZM22.9102 45.1588C21.8056 45.1588 20.9102 46.0542 20.9102 47.1588V94.0679C20.9102 95.1725 20.0147 96.0679 18.9102 96.0679H12.0011C10.8965 96.0679 10.0011 95.1725 10.0011 94.0679V36.3224C9.9718 34.8433 10.5289 33.4127 11.5509 32.343C12.5729 31.2733 13.9767 30.6515 15.4556 30.6133H75.2725C76.3776 30.6133 77.2656 31.5108 77.3463 32.6129C77.5837 35.854 78.4014 39.0219 79.7557 41.9665C80.4146 43.399 79.4322 45.1588 77.8554 45.1588H22.9102ZM109.236 57.4667C110.544 57.2333 111.819 58.1919 111.819 59.5209V94.0684C111.819 95.1729 110.923 96.0684 109.819 96.0684H102.91C101.805 96.0684 100.91 95.1729 100.91 94.0684V59.9102C100.91 58.6902 101.994 57.7601 103.212 57.8289C105.227 57.9428 107.249 57.8211 109.236 57.4667ZM15.1602 110C12.6352 110 10.5693 107.525 10.5693 104.5C10.5693 101.475 12.6352 99 15.1602 99H106.978C109.503 99 111.569 101.475 111.569 104.5C111.569 107.525 109.503 110 106.978 110H15.1602Z" fill="url(#paint0_linear)"/>
<defs>
<linearGradient id="paint0_linear" x1="10.0157" y1="62.6369" x2="117.178" y2="62.6369" gradientUnits="userSpaceOnUse">
<stop stop-color="#A93AFF"/>
<stop offset="1" stop-color="#FF81FF"/>
</linearGradient>
</defs>
</svg>
