<svg width="24" height="24" viewBox="0 0 24 24" fill="none" xmlns="http://www.w3.org/2000/svg">
<path d="M11.75 2C7.66189 2 4.2446 4.96506 3.12242 9.014C3.05387 9.26132 3.24433 9.5 3.50097 9.5H5.20021C5.37789 9.5 5.5335 9.38247 5.58822 9.21342C6.55527 6.22574 8.63577 4.5 11.75 4.5C14.8642 4.5 16.9447 6.22574 17.9118 9.21342C17.9665 9.38247 18.1221 9.5 18.2998 9.5H19.999C20.2557 9.5 20.4461 9.26132 20.3776 9.014C19.2554 4.96506 15.8381 2 11.75 2ZM11.75 7C10.3356 7 9.09161 7.76186 8.31487 8.9448C8.1528 9.19161 8.34338 9.5 8.63864 9.5H14.8587C15.1546 9.5 15.3451 9.19046 15.1817 8.94373C14.4047 7.77017 13.1623 7 11.75 7ZM3.88151 12C3.53784 12 3.35417 12.4048 3.58048 12.6634L11.449 21.656C11.6083 21.8381 11.8917 21.8381 12.051 21.656L19.9195 12.6634C20.1458 12.4048 19.9622 12 19.6185 12H3.88151Z" fill="url(#paint0_linear_679_31)"/>
<defs>
<linearGradient id="paint0_linear_679_31" x1="3" y1="22" x2="24.9369" y2="13.6338" gradientUnits="userSpaceOnUse">
<stop stop-color="#0357D1"/>
<stop offset="1" stop-color="#27CDFC"/>
</linearGradient>
</defs>
</svg>
