<svg width="512" height="512" viewBox="0 0 512 512" fill="none" xmlns="http://www.w3.org/2000/svg">
<g clip-path="url(#clip0)">
<path d="M507.617 176.896C507.152 176.431 506.658 176.016 506.15 175.625C439.443 105.362 349.477 68.4976 255.998 68.4976C208.19 68.4976 162.006 77.9693 118.73 96.6479C69.9157 117.718 37.5752 143.701 4.38022 176.896C-1.54784 182.824 -1.37296 192.341 4.38022 198.094L47.1318 240.847C53.2008 246.915 63.0443 246.629 68.7774 240.38C117.251 187.539 183.741 158.438 255.998 158.438C328.255 158.438 394.745 187.539 443.219 240.38C448.985 246.665 458.831 246.881 464.864 240.847L507.616 198.094C507.756 197.955 507.876 197.804 508.009 197.66C508.101 197.558 508.197 197.458 508.285 197.354C513.446 191.466 513.234 182.512 507.617 176.896V176.896ZM255.999 308.338C223.459 308.338 193.334 322.939 173.347 348.397C168.663 354.364 169.175 362.889 174.538 368.253L245.399 439.114C251.251 444.968 260.748 444.965 266.598 439.114L337.459 368.253C342.822 362.889 343.334 354.364 338.65 348.397C318.664 322.939 288.539 308.338 255.999 308.338V308.338ZM255.999 188.418C191.919 188.418 131.996 214.727 88.8951 262.498C83.5486 268.423 83.7825 277.497 89.4247 283.139L131.736 325.451C137.882 331.599 147.925 331.227 153.616 324.722C179.401 295.257 216.718 278.358 255.999 278.358C295.28 278.358 332.597 295.257 358.382 324.722C364.083 331.239 374.125 331.589 380.263 325.451L422.573 283.139C428.216 277.497 428.45 268.423 423.103 262.498C380.004 214.73 320.084 188.418 255.999 188.418Z" fill="url(#paint0_linear)"/>
</g>
<defs>
<linearGradient id="paint0_linear" x1="255.999" y1="443.503" x2="255.999" y2="68.4975" gradientUnits="userSpaceOnUse">
<stop stop-color="#02AA93"/>
<stop offset="1" stop-color="#67FF80"/>
</linearGradient>
<clipPath id="clip0">
<rect width="512" height="512" fill="white"/>
</clipPath>
</defs>
</svg>
