<svg width="256" height="256" viewBox="0 0 256 256" fill="none" xmlns="http://www.w3.org/2000/svg">
<path fill-rule="evenodd" clip-rule="evenodd" d="M28 24C28 12.9543 37.7329 4 49.7391 4H206.261C218.267 4 228 12.9543 228 24V232C228 243.046 218.267 252 206.261 252H49.7391C37.7329 252 28 243.046 28 232V24ZM206.261 34C206.261 28.4772 201.395 24 195.391 24H60.6087C54.6057 24 49.7391 28.4772 49.7391 34V222C49.7391 227.523 54.6055 232 60.6087 232H195.391C201.395 232 206.261 227.523 206.261 222V34Z" fill="url(#paint0_linear)"/>
<path d="M124.699 58.6862C124.93 58.4575 125.218 58.2859 125.563 58.1716C125.909 58.057 126.312 58 126.773 58C127.235 58 127.696 58 128.156 58C128.616 58 129.078 58 129.539 58C130.001 58 130.461 58 130.922 58C131.382 58 131.844 58 132.305 58C132.767 58 133.227 58 133.688 58C134.15 58 134.611 58 135.07 58C135.531 58 135.993 58 136.454 58C136.914 58 137.376 58 137.837 58C138.297 58 138.759 58 139.22 58C139.681 58 140.142 58 140.603 58C141.063 58 141.468 58.057 141.812 58.1716C142.158 58.2859 142.446 58.4575 142.677 58.6862C142.908 58.9151 143.195 59.0867 143.541 59.201C143.886 59.3153 144.291 59.3727 144.752 59.3727C145.212 59.3727 145.674 59.3727 146.134 59.3727C146.595 59.3727 147.055 59.3727 147.517 59.3727C147.978 59.3727 148.381 59.4296 148.727 59.5439C149.073 59.6587 149.361 59.83 149.592 60.0589C149.821 60.2875 150.11 60.4591 150.455 60.5734C150.802 60.688 151.204 60.7451 151.666 60.7451C152.127 60.7451 152.53 60.8024 152.875 60.9167C153.222 61.031 153.51 61.2026 153.739 61.4312C153.97 61.6602 154.259 61.8316 154.604 61.9461C154.95 62.0603 155.296 62.1748 155.641 62.289C155.987 62.4038 156.275 62.5749 156.507 62.8039C156.736 63.0326 157.024 63.2043 157.37 63.3188C157.716 63.433 158.061 63.5474 158.408 63.6616C158.754 63.7761 159.042 63.9475 159.271 64.1765C159.503 64.4051 159.79 64.5769 160.136 64.691C160.482 64.8055 160.828 64.9197 161.173 65.0346C161.519 65.1488 161.807 65.3205 162.037 65.5488C162.268 65.7778 162.556 65.9492 162.902 66.0637C163.247 66.1782 163.593 66.2924 163.939 66.4069C164.285 66.521 164.574 66.6928 164.803 66.9217C165.034 67.1504 165.265 67.379 165.494 67.6077C165.725 67.8368 165.955 68.0653 166.186 68.294C166.417 68.523 166.705 68.6945 167.051 68.809C167.397 68.9231 167.742 69.0376 168.088 69.1518C168.434 69.2663 168.721 69.4377 168.952 69.6667C169.183 69.8953 169.414 70.1243 169.643 70.353C169.874 70.5816 170.104 70.8103 170.335 71.0393C170.566 71.268 170.796 71.4967 171.026 71.7256C171.257 71.9543 171.487 72.183 171.718 72.4116C171.948 72.6406 172.178 72.8692 172.409 73.0979C172.64 73.3269 172.87 73.5555 173.1 73.7846C173.332 74.0129 173.561 74.2415 173.792 74.4706C174.023 74.6992 174.253 74.9282 174.484 75.1569C174.713 75.3858 174.944 75.6142 175.175 75.8431C175.406 76.0718 175.636 76.3008 175.867 76.5294C176.096 76.7581 176.328 76.9871 176.558 77.2154C176.789 77.4445 176.961 77.7304 177.076 78.0735C177.192 78.4167 177.307 78.7595 177.422 79.103C177.538 79.4461 177.71 79.732 177.941 79.9607C178.172 80.1897 178.402 80.4184 178.632 80.647C178.862 80.8757 179.093 81.1047 179.324 81.3333C179.555 81.562 179.727 81.8479 179.842 82.191C179.958 82.5346 180.073 82.8773 180.188 83.2206C180.304 83.5637 180.476 83.8496 180.707 84.0783C180.937 84.3072 181.167 84.5359 181.399 84.7646C181.628 84.9935 181.859 85.2222 182.09 85.4512C182.319 85.6795 182.493 85.9654 182.608 86.309C182.724 86.6518 182.839 86.995 182.953 87.3384C183.068 87.6812 183.242 87.9671 183.473 88.1961C183.703 88.4248 183.876 88.7107 183.991 89.0539C184.105 89.397 184.164 89.7974 184.164 90.255C184.164 90.7124 184.222 91.1128 184.337 91.4556C184.451 91.7988 184.625 92.085 184.854 92.3137C185.086 92.5424 185.259 92.8283 185.374 93.1717C185.489 93.5146 185.547 93.9149 185.547 94.3723C185.547 94.83 185.604 95.23 185.72 95.5735C185.836 95.9167 186.008 96.2026 186.239 96.4312C186.469 96.6602 186.642 96.9461 186.757 97.2893C186.872 97.632 186.93 98.0323 186.93 98.4906C186.93 98.9478 186.93 99.405 186.93 99.8633C186.93 100.32 186.988 100.721 187.102 101.064C187.219 101.407 187.39 101.693 187.622 101.922C187.851 102.15 188.025 102.436 188.139 102.779C188.255 103.123 188.313 103.523 188.313 103.98C188.313 104.438 188.313 104.896 188.313 105.353C188.313 105.81 188.313 106.268 188.313 106.725C188.313 107.183 188.313 107.64 188.313 108.098C188.313 108.555 188.313 109.012 188.313 109.471C188.313 109.928 188.313 110.386 188.313 110.843C188.313 111.301 188.313 111.758 188.313 112.215C188.313 112.673 188.313 113.13 188.313 113.589C188.313 114.046 188.313 114.503 188.313 114.96C188.313 115.419 188.313 115.876 188.313 116.333C188.313 116.791 188.313 117.248 188.313 117.706C188.313 118.163 188.255 118.564 188.139 118.907C188.025 119.25 187.851 119.535 187.622 119.764C187.39 119.994 187.219 120.279 187.102 120.623C186.988 120.965 186.93 121.366 186.93 121.824C186.93 122.281 186.93 122.738 186.93 123.196C186.93 123.653 186.872 124.054 186.757 124.397C186.642 124.741 186.469 125.026 186.239 125.255C186.008 125.483 185.836 125.77 185.72 126.113C185.604 126.456 185.547 126.856 185.547 127.314C185.547 127.771 185.489 128.171 185.374 128.515C185.259 128.857 185.086 129.144 184.854 129.373C184.625 129.601 184.451 129.887 184.337 130.23C184.222 130.574 184.105 130.916 183.991 131.259C183.876 131.603 183.703 131.889 183.473 132.118C183.242 132.345 183.068 132.632 182.953 132.975C182.839 133.319 182.724 133.661 182.608 134.005C182.493 134.348 182.319 134.634 182.09 134.862C181.859 135.091 181.628 135.32 181.399 135.549C181.167 135.778 180.937 136.006 180.707 136.236C180.476 136.465 180.304 136.75 180.188 137.092C180.073 137.437 179.958 137.779 179.842 138.123C179.727 138.466 179.555 138.752 179.324 138.98C179.093 139.209 178.862 139.437 178.632 139.666C178.402 139.896 178.172 140.124 177.941 140.353C177.71 140.581 177.481 140.811 177.249 141.04C177.019 141.267 176.789 141.496 176.558 141.725C176.328 141.954 176.096 142.183 175.867 142.411C175.636 142.641 175.406 142.87 175.175 143.098C174.944 143.327 174.713 143.556 174.484 143.785C174.253 144.013 174.023 144.241 173.792 144.471C173.561 144.699 173.332 144.928 173.1 145.157C172.87 145.386 172.64 145.614 172.409 145.842C172.178 146.072 171.948 146.301 171.718 146.529C171.487 146.758 171.257 146.986 171.026 147.216C170.796 147.445 170.566 147.673 170.335 147.902C170.104 148.132 169.815 148.302 169.471 148.416C169.125 148.531 168.778 148.646 168.434 148.759C168.088 148.874 167.8 149.046 167.569 149.275C167.338 149.503 167.051 149.675 166.705 149.79C166.36 149.903 166.014 150.017 165.668 150.132C165.322 150.246 165.034 150.419 164.803 150.647C164.574 150.876 164.285 151.047 163.939 151.161C163.593 151.276 163.247 151.391 162.902 151.505C162.556 151.62 162.268 151.791 162.037 152.02C161.807 152.248 161.519 152.42 161.173 152.535C160.828 152.649 160.424 152.706 159.962 152.706C159.503 152.706 159.099 152.762 158.754 152.877C158.408 152.991 158.119 153.163 157.888 153.393C157.659 153.621 157.37 153.792 157.024 153.907C156.678 154.021 156.275 154.078 155.814 154.078C155.353 154.078 154.95 154.136 154.604 154.25C154.259 154.364 153.97 154.537 153.739 154.765C153.51 154.994 153.222 155.165 152.875 155.279C152.53 155.394 152.127 155.452 151.666 155.452C151.204 155.452 150.744 155.452 150.283 155.452C149.821 155.452 149.361 155.452 148.9 155.452C148.439 155.452 147.978 155.452 147.517 155.452C147.055 155.452 146.595 155.452 146.134 155.452C145.674 155.452 145.212 155.452 144.752 155.452C144.291 155.452 143.829 155.452 143.369 155.452C142.908 155.452 142.446 155.452 141.985 155.452C141.525 155.452 141.063 155.452 140.603 155.452C140.142 155.452 139.681 155.452 139.22 155.452C138.759 155.452 138.354 155.394 138.009 155.279C137.663 155.165 137.376 154.994 137.145 154.765C136.914 154.537 136.627 154.364 136.28 154.25C135.936 154.136 135.531 154.078 135.07 154.078C134.611 154.078 134.15 154.078 133.688 154.078C133.227 154.078 132.824 154.021 132.478 153.907C132.133 153.792 131.844 153.621 131.614 153.393C131.382 153.163 131.095 152.991 130.75 152.877C130.404 152.762 130.058 152.649 129.712 152.535C129.367 152.42 129.078 152.248 128.848 152.02C128.618 151.791 128.33 151.62 127.984 151.505C127.638 151.391 127.292 151.276 126.946 151.161C126.601 151.047 126.312 150.876 126.082 150.647C125.852 150.419 125.563 150.246 125.218 150.132C124.872 150.017 124.526 149.903 124.18 149.79C123.835 149.675 123.546 149.503 123.316 149.275C123.086 149.046 122.855 148.816 122.626 148.588C122.394 148.36 122.164 148.132 121.933 147.902C121.703 147.673 121.472 147.445 121.241 147.216C121.011 146.986 120.781 146.758 120.551 146.529C120.32 146.301 120.089 146.072 119.858 145.842C119.629 145.614 119.398 145.386 119.168 145.157C118.937 144.928 118.706 144.699 118.475 144.471C118.246 144.241 118.015 144.013 117.785 143.785C117.554 143.556 117.323 143.327 117.094 143.098C116.863 142.87 116.632 142.641 116.402 142.411C116.171 142.183 115.94 141.954 115.711 141.725C115.48 141.496 115.249 141.267 115.019 141.04C114.788 140.811 114.557 140.581 114.328 140.353C114.097 140.124 113.923 139.838 113.809 139.495C113.694 139.152 113.579 138.808 113.463 138.466C113.348 138.123 113.175 137.836 112.945 137.607C112.714 137.379 112.483 137.15 112.253 136.921C112.022 136.693 111.793 136.465 111.562 136.236C111.331 136.006 111.157 135.721 111.043 135.377C110.928 135.035 110.87 134.634 110.87 134.176C110.87 133.719 110.813 133.319 110.697 132.975C110.582 132.632 110.41 132.345 110.179 132.118C109.948 131.889 109.776 131.603 109.66 131.259C109.545 130.916 109.487 130.516 109.487 130.058C109.487 129.601 109.43 129.202 109.314 128.857C109.199 128.515 109.027 128.229 108.796 128C108.565 127.771 108.393 127.485 108.277 127.143C108.162 126.799 108.105 126.399 108.105 125.942C108.105 125.483 108.105 125.026 108.105 124.569C108.105 124.111 108.105 123.653 108.105 123.196C108.105 122.738 108.105 122.281 108.105 121.824C108.105 121.366 108.105 120.908 108.105 120.451C108.105 119.994 108.105 119.535 108.105 119.078C108.105 118.621 108.105 118.163 108.105 117.706C108.105 117.248 108.105 116.791 108.105 116.333C108.105 115.876 108.105 115.419 108.105 114.96C108.105 114.503 108.105 114.046 108.105 113.589C108.105 113.13 108.162 112.73 108.277 112.387C108.393 112.044 108.565 111.758 108.796 111.529C109.027 111.301 109.199 111.014 109.314 110.672C109.43 110.328 109.487 109.928 109.487 109.471C109.487 109.012 109.545 108.613 109.66 108.27C109.776 107.926 109.948 107.64 110.179 107.411C110.41 107.183 110.582 106.897 110.697 106.554C110.813 106.21 110.928 105.868 111.043 105.525C111.157 105.181 111.331 104.896 111.562 104.667C111.793 104.437 112.022 104.209 112.253 103.98C112.483 103.752 112.714 103.523 112.945 103.294C113.175 103.066 113.348 102.779 113.463 102.436C113.579 102.093 113.694 101.75 113.809 101.407C113.923 101.064 114.097 100.778 114.328 100.549C114.557 100.32 114.788 100.092 115.019 99.8633C115.249 99.6336 115.48 99.405 115.711 99.1764C115.94 98.9478 116.171 98.7192 116.402 98.4906C116.632 98.262 116.863 98.0323 117.094 97.8037C117.323 97.5752 117.554 97.3462 117.785 97.1179C118.015 96.8889 118.246 96.6602 118.475 96.4312C118.706 96.2026 118.937 95.9739 119.168 95.745C119.398 95.5163 119.686 95.3449 120.032 95.23C120.377 95.1159 120.723 95.0017 121.069 94.8872C121.415 94.773 121.703 94.6012 121.933 94.3723C122.164 94.1436 122.394 93.915 122.626 93.6863C122.855 93.4576 123.086 93.2287 123.316 93C123.546 92.7713 123.835 92.5996 124.18 92.4854C124.526 92.371 124.93 92.3137 125.39 92.3137C125.852 92.3137 126.255 92.2565 126.601 92.1423C126.946 92.0278 127.235 91.8564 127.464 91.6273C127.696 91.3988 127.984 91.227 128.33 91.1128C128.675 90.9983 129.078 90.941 129.539 90.941C130.001 90.941 130.404 90.8838 130.75 90.7696C131.095 90.6551 131.382 90.4837 131.614 90.255C131.844 90.0261 132.133 89.8544 132.478 89.7402C132.824 89.6257 133.227 89.5685 133.688 89.5685C134.15 89.5685 134.611 89.5685 135.07 89.5685C135.531 89.5685 135.993 89.5685 136.454 89.5685C136.914 89.5685 137.376 89.5685 137.837 89.5685C138.297 89.5685 138.759 89.5685 139.22 89.5685C139.681 89.5685 140.142 89.5685 140.603 89.5685C141.063 89.5685 141.468 89.6257 141.812 89.7402C142.158 89.8544 142.446 90.0261 142.677 90.255C142.908 90.4837 143.195 90.6551 143.541 90.7696C143.886 90.8838 144.291 90.941 144.752 90.941C145.212 90.941 145.615 90.9983 145.961 91.1128C146.307 91.227 146.595 91.3988 146.826 91.6273C147.055 91.8564 147.344 92.0278 147.69 92.1423C148.035 92.2565 148.381 92.371 148.727 92.4854C149.073 92.5996 149.361 92.7713 149.592 93C149.821 93.2287 150.11 93.4004 150.455 93.5146C150.802 93.629 151.147 93.7435 151.493 93.8577C151.838 93.9722 152.127 94.1436 152.356 94.3723C152.588 94.6012 152.818 94.83 153.049 95.059C153.279 95.2876 153.51 95.5163 153.739 95.745C153.97 95.9739 154.201 96.2026 154.432 96.4312C154.662 96.6602 154.892 96.8889 155.122 97.1179C155.353 97.3462 155.584 97.5752 155.814 97.8037C156.045 98.0323 156.275 98.262 156.507 98.4906C156.736 98.7192 156.967 98.9478 157.197 99.1764C157.427 99.405 157.601 99.6916 157.716 100.035C157.831 100.377 157.947 100.721 158.061 101.064C158.176 101.407 158.35 101.693 158.58 101.922C158.811 102.15 158.984 102.436 159.099 102.779C159.213 103.123 159.33 103.465 159.445 103.808C159.56 104.152 159.733 104.437 159.962 104.667C160.194 104.896 160.367 105.181 160.482 105.525C160.597 105.868 160.654 106.268 160.654 106.725C160.654 107.183 160.654 107.64 160.654 108.098C160.654 108.555 160.711 108.956 160.828 109.299C160.942 109.643 161.116 109.928 161.346 110.157C161.577 110.386 161.749 110.672 161.865 111.014C161.98 111.358 162.037 111.758 162.037 112.215C162.037 112.673 162.037 113.13 162.037 113.589C162.037 114.046 161.98 114.446 161.865 114.789C161.749 115.132 161.577 115.419 161.346 115.647C161.116 115.876 160.942 116.161 160.828 116.505C160.711 116.848 160.654 117.248 160.654 117.706C160.654 118.163 160.597 118.564 160.482 118.907C160.367 119.25 160.194 119.535 159.962 119.764C159.733 119.994 159.56 120.279 159.445 120.623C159.33 120.965 159.213 121.308 159.099 121.652C158.984 121.995 158.811 122.281 158.58 122.509C158.35 122.738 158.176 123.025 158.061 123.368C157.947 123.71 157.831 124.054 157.716 124.397C157.601 124.741 157.427 125.026 157.197 125.255C156.967 125.483 156.736 125.712 156.507 125.942C156.275 126.17 156.045 126.399 155.814 126.627C155.584 126.856 155.353 127.085 155.122 127.314C154.892 127.543 154.604 127.715 154.259 127.828C153.913 127.943 153.567 128.057 153.222 128.171C152.875 128.287 152.588 128.457 152.356 128.687C152.127 128.915 151.838 129.086 151.493 129.202C151.147 129.316 150.802 129.43 150.455 129.544C150.11 129.658 149.821 129.83 149.592 130.058C149.361 130.287 149.073 130.459 148.727 130.574C148.381 130.687 147.978 130.745 147.517 130.745C147.055 130.745 146.595 130.745 146.134 130.745C145.674 130.745 145.269 130.687 144.923 130.574C144.578 130.459 144.406 130.287 144.406 130.058C144.406 129.83 144.578 129.658 144.923 129.544C145.269 129.43 145.615 129.316 145.961 129.202C146.307 129.086 146.595 128.915 146.826 128.687C147.055 128.457 147.344 128.287 147.69 128.171C148.035 128.057 148.381 127.943 148.727 127.828C149.073 127.715 149.361 127.543 149.592 127.314C149.821 127.085 150.052 126.856 150.283 126.627C150.513 126.399 150.744 126.17 150.975 125.942C151.204 125.712 151.436 125.483 151.666 125.255C151.896 125.026 152.069 124.741 152.184 124.397C152.299 124.054 152.415 123.71 152.53 123.368C152.645 123.025 152.818 122.738 153.049 122.509C153.279 122.281 153.452 121.995 153.567 121.652C153.684 121.308 153.798 120.965 153.913 120.623C154.027 120.279 154.201 119.994 154.432 119.764C154.662 119.535 154.835 119.25 154.95 118.907C155.065 118.564 155.122 118.163 155.122 117.706C155.122 117.248 155.122 116.791 155.122 116.333C155.122 115.876 155.122 115.419 155.122 114.96C155.122 114.503 155.065 114.103 154.95 113.759C154.835 113.417 154.662 113.13 154.432 112.902C154.201 112.673 154.027 112.387 153.913 112.044C153.798 111.701 153.739 111.301 153.739 110.843C153.739 110.386 153.684 109.985 153.567 109.643C153.452 109.299 153.279 109.012 153.049 108.785C152.818 108.555 152.645 108.27 152.53 107.926C152.415 107.583 152.299 107.241 152.184 106.897C152.069 106.554 151.896 106.268 151.666 106.04C151.436 105.81 151.204 105.581 150.975 105.353C150.744 105.124 150.513 104.896 150.283 104.667C150.052 104.437 149.821 104.209 149.592 103.98C149.361 103.752 149.13 103.523 148.9 103.294C148.669 103.066 148.439 102.836 148.208 102.607C147.978 102.379 147.69 102.207 147.344 102.093C146.998 101.979 146.653 101.864 146.307 101.75C145.961 101.636 145.674 101.465 145.443 101.236C145.212 101.006 144.923 100.835 144.578 100.721C144.232 100.606 143.886 100.492 143.541 100.377C143.195 100.263 142.908 100.092 142.677 99.8633C142.446 99.6336 142.158 99.4619 141.812 99.3481C141.468 99.2333 141.063 99.1764 140.603 99.1764C140.142 99.1764 139.681 99.1764 139.22 99.1764C138.759 99.1764 138.297 99.1764 137.837 99.1764C137.376 99.1764 136.914 99.1764 136.454 99.1764C135.993 99.1764 135.59 99.2333 135.244 99.3481C134.897 99.4619 134.611 99.6336 134.379 99.8633C134.15 100.092 133.862 100.263 133.516 100.377C133.168 100.492 132.767 100.549 132.305 100.549C131.844 100.549 131.441 100.606 131.095 100.721C130.75 100.835 130.461 101.006 130.23 101.236C130.001 101.465 129.712 101.636 129.367 101.75C129.021 101.864 128.675 101.979 128.33 102.093C127.984 102.207 127.696 102.379 127.464 102.607C127.235 102.836 127.004 103.066 126.773 103.294C126.544 103.523 126.312 103.752 126.082 103.98C125.852 104.209 125.563 104.38 125.218 104.495C124.872 104.609 124.526 104.724 124.18 104.839C123.835 104.952 123.604 105.181 123.489 105.525C123.374 105.868 123.258 106.21 123.144 106.554C123.027 106.897 122.855 107.183 122.626 107.411C122.394 107.64 122.164 107.87 121.933 108.098C121.703 108.327 121.472 108.555 121.241 108.785C121.011 109.012 120.838 109.299 120.723 109.643C120.608 109.985 120.492 110.328 120.377 110.672C120.263 111.014 120.089 111.301 119.858 111.529C119.629 111.758 119.455 112.044 119.34 112.387C119.225 112.73 119.168 113.13 119.168 113.589C119.168 114.046 119.109 114.446 118.995 114.789C118.88 115.132 118.706 115.419 118.475 115.647C118.246 115.876 118.072 116.161 117.957 116.505C117.842 116.848 117.785 117.248 117.785 117.706C117.785 118.163 117.785 118.621 117.785 119.078C117.785 119.535 117.785 119.994 117.785 120.451C117.785 120.908 117.785 121.366 117.785 121.824C117.785 122.281 117.785 122.738 117.785 123.196C117.785 123.653 117.842 124.054 117.957 124.397C118.072 124.741 118.246 125.026 118.475 125.255C118.706 125.483 118.88 125.77 118.995 126.113C119.109 126.456 119.168 126.856 119.168 127.314C119.168 127.771 119.225 128.171 119.34 128.515C119.455 128.857 119.629 129.144 119.858 129.373C120.089 129.601 120.263 129.887 120.377 130.23C120.492 130.574 120.608 130.916 120.723 131.259C120.838 131.603 121.011 131.889 121.241 132.118C121.472 132.345 121.644 132.632 121.76 132.975C121.875 133.319 121.992 133.661 122.106 134.005C122.221 134.348 122.394 134.634 122.626 134.862C122.855 135.091 123.086 135.32 123.316 135.549C123.546 135.778 123.778 136.006 124.007 136.236C124.238 136.465 124.469 136.693 124.699 136.921C124.93 137.15 125.16 137.379 125.39 137.607C125.621 137.836 125.852 138.066 126.082 138.294C126.312 138.523 126.544 138.752 126.773 138.98C127.004 139.209 127.235 139.437 127.464 139.666C127.696 139.896 127.926 140.124 128.156 140.353C128.387 140.581 128.618 140.811 128.848 141.04C129.078 141.267 129.367 141.44 129.712 141.554C130.058 141.669 130.404 141.782 130.75 141.897C131.095 142.011 131.382 142.183 131.614 142.411C131.844 142.641 132.133 142.812 132.478 142.926C132.824 143.041 133.168 143.155 133.516 143.27C133.862 143.384 134.15 143.556 134.379 143.785C134.611 144.013 134.897 144.184 135.244 144.299C135.59 144.413 135.993 144.471 136.454 144.471C136.914 144.471 137.376 144.471 137.837 144.471C138.297 144.471 138.7 144.528 139.046 144.643C139.392 144.756 139.681 144.928 139.911 145.157C140.142 145.386 140.429 145.557 140.775 145.671C141.121 145.787 141.525 145.842 141.985 145.842C142.446 145.842 142.908 145.842 143.369 145.842C143.829 145.842 144.291 145.842 144.752 145.842C145.212 145.842 145.674 145.842 146.134 145.842C146.595 145.842 147.055 145.842 147.517 145.842C147.978 145.842 148.439 145.842 148.9 145.842C149.361 145.842 149.764 145.787 150.11 145.671C150.455 145.557 150.744 145.386 150.975 145.157C151.204 144.928 151.493 144.756 151.838 144.643C152.184 144.528 152.588 144.471 153.049 144.471C153.51 144.471 153.97 144.471 154.432 144.471C154.892 144.471 155.296 144.413 155.641 144.299C155.987 144.184 156.275 144.013 156.507 143.785C156.736 143.556 157.024 143.384 157.37 143.27C157.716 143.155 158.061 143.041 158.408 142.926C158.754 142.812 159.042 142.641 159.271 142.411C159.503 142.183 159.79 142.011 160.136 141.897C160.482 141.782 160.828 141.669 161.173 141.554C161.519 141.44 161.807 141.267 162.037 141.04C162.268 140.811 162.556 140.639 162.902 140.525C163.247 140.41 163.593 140.296 163.939 140.181C164.285 140.066 164.574 139.896 164.803 139.666C165.034 139.437 165.265 139.209 165.494 138.98C165.725 138.752 165.955 138.523 166.186 138.294C166.417 138.066 166.648 137.836 166.877 137.607C167.109 137.379 167.338 137.15 167.569 136.921C167.8 136.693 168.029 136.465 168.261 136.236C168.491 136.006 168.721 135.778 168.952 135.549C169.183 135.32 169.414 135.091 169.643 134.862C169.874 134.634 170.104 134.405 170.335 134.176C170.566 133.947 170.796 133.719 171.026 133.491C171.257 133.261 171.43 132.975 171.544 132.632C171.66 132.29 171.775 131.946 171.89 131.603C172.006 131.259 172.178 130.974 172.409 130.745C172.64 130.516 172.87 130.287 173.1 130.058C173.332 129.83 173.561 129.601 173.792 129.373C174.023 129.144 174.195 128.857 174.31 128.515C174.426 128.171 174.542 127.828 174.656 127.485C174.772 127.142 174.944 126.856 175.175 126.627C175.406 126.399 175.578 126.113 175.693 125.77C175.809 125.426 175.867 125.026 175.867 124.569C175.867 124.111 175.924 123.71 176.039 123.368C176.155 123.025 176.328 122.738 176.558 122.509C176.789 122.281 176.961 121.995 177.076 121.652C177.192 121.308 177.249 120.908 177.249 120.451C177.249 119.994 177.249 119.535 177.249 119.078C177.249 118.621 177.307 118.221 177.422 117.877C177.538 117.535 177.71 117.248 177.941 117.02C178.172 116.791 178.344 116.505 178.459 116.161C178.575 115.819 178.632 115.419 178.632 114.96C178.632 114.503 178.632 114.046 178.632 113.589C178.632 113.13 178.632 112.673 178.632 112.215C178.632 111.758 178.632 111.301 178.632 110.843C178.632 110.386 178.632 109.928 178.632 109.471C178.632 109.012 178.632 108.555 178.632 108.098C178.632 107.64 178.632 107.183 178.632 106.725C178.632 106.268 178.575 105.868 178.459 105.525C178.344 105.181 178.172 104.896 177.941 104.667C177.71 104.437 177.538 104.152 177.422 103.808C177.307 103.465 177.249 103.066 177.249 102.607C177.249 102.15 177.249 101.693 177.249 101.236C177.249 100.778 177.192 100.377 177.076 100.035C176.961 99.6916 176.789 99.405 176.558 99.1764C176.328 98.9478 176.155 98.6612 176.039 98.3189C175.924 97.9755 175.867 97.5752 175.867 97.1179C175.867 96.6602 175.809 96.2598 175.693 95.9167C175.578 95.5735 175.406 95.2876 175.175 95.059C174.944 94.83 174.772 94.544 174.656 94.2012C174.542 93.8577 174.426 93.5146 174.31 93.1717C174.195 92.8283 174.023 92.5424 173.792 92.3137C173.561 92.085 173.389 91.7988 173.273 91.4556C173.158 91.1128 173.043 90.7696 172.927 90.4262C172.812 90.0833 172.64 89.7974 172.409 89.5685C172.178 89.3398 172.006 89.0539 171.89 88.7107C171.775 88.3679 171.66 88.0244 171.544 87.6812C171.43 87.3384 171.257 87.0525 171.026 86.8235C170.796 86.5949 170.566 86.3659 170.335 86.1372C170.104 85.9086 169.874 85.6795 169.643 85.4512C169.414 85.2222 169.24 84.9363 169.125 84.5931C169.009 84.25 168.895 83.9069 168.778 83.5637C168.663 83.2206 168.491 82.9347 168.261 82.7056C168.029 82.4769 167.8 82.2483 167.569 82.0196C167.338 81.791 167.109 81.562 166.877 81.3333C166.648 81.1047 166.417 80.8757 166.186 80.647C165.955 80.4184 165.725 80.1897 165.494 79.9607C165.265 79.732 165.034 79.5033 164.803 79.2744C164.574 79.0457 164.342 78.817 164.112 78.5884C163.882 78.3594 163.651 78.1308 163.42 77.9018C163.19 77.6731 162.902 77.5017 162.556 77.3872C162.21 77.273 161.865 77.1586 161.519 77.044C161.173 76.9295 160.885 76.7581 160.654 76.5294C160.424 76.3008 160.194 76.0718 159.962 75.8431C159.733 75.6142 159.503 75.3858 159.271 75.1569C159.042 74.9282 158.754 74.7565 158.408 74.6423C158.061 74.5274 157.716 74.4133 157.37 74.2988C157.024 74.1847 156.736 74.0129 156.507 73.7846C156.275 73.5555 155.987 73.3838 155.641 73.2696C155.296 73.1551 154.95 73.041 154.604 72.9265C154.259 72.812 153.97 72.6406 153.739 72.4116C153.51 72.183 153.222 72.0115 152.875 71.897C152.53 71.7829 152.184 71.6684 151.838 71.5539C151.493 71.4397 151.204 71.268 150.975 71.0393C150.744 70.8103 150.455 70.6389 150.11 70.5244C149.764 70.4102 149.361 70.353 148.9 70.353C148.439 70.353 148.035 70.2954 147.69 70.1812C147.344 70.067 147.055 69.8953 146.826 69.6667C146.595 69.4377 146.307 69.2663 145.961 69.1518C145.615 69.0376 145.212 68.9804 144.752 68.9804C144.291 68.9804 143.829 68.9804 143.369 68.9804C142.908 68.9804 142.446 68.9804 141.985 68.9804C141.525 68.9804 141.063 68.9804 140.603 68.9804C140.142 68.9804 139.739 68.9231 139.392 68.809C139.046 68.6945 138.759 68.523 138.528 68.294C138.297 68.0653 138.009 67.8936 137.663 67.7794C137.317 67.665 136.914 67.6077 136.454 67.6077C135.993 67.6077 135.531 67.6077 135.07 67.6077C134.611 67.6077 134.15 67.6077 133.688 67.6077C133.227 67.6077 132.767 67.6077 132.305 67.6077C131.844 67.6077 131.382 67.6077 130.922 67.6077C130.461 67.6077 130.058 67.665 129.712 67.7794C129.367 67.8936 129.078 68.0653 128.848 68.294C128.618 68.523 128.33 68.6945 127.984 68.809C127.638 68.9231 127.235 68.9804 126.773 68.9804C126.312 68.9804 125.852 68.9804 125.39 68.9804C124.93 68.9804 124.469 68.9804 124.007 68.9804C123.546 68.9804 123.086 68.9804 122.626 68.9804C122.164 68.9804 121.76 69.0376 121.415 69.1518C121.069 69.2663 120.781 69.4377 120.551 69.6667C120.32 69.8953 120.032 70.067 119.686 70.1812C119.34 70.2954 118.937 70.353 118.475 70.353C118.015 70.353 117.554 70.353 117.094 70.353C116.632 70.353 116.229 70.4102 115.883 70.5244C115.537 70.6389 115.249 70.8103 115.019 71.0393C114.788 71.268 114.5 71.4397 114.154 71.5539C113.809 71.6684 113.463 71.7829 113.117 71.897C112.771 72.0115 112.483 72.183 112.253 72.4116C112.022 72.6406 111.734 72.812 111.388 72.9265C111.043 73.041 110.639 73.0979 110.179 73.0979C109.717 73.0979 109.314 73.1551 108.968 73.2696C108.623 73.3838 108.334 73.5555 108.105 73.7846C107.874 74.0129 107.644 74.2415 107.413 74.4706C107.182 74.6992 106.951 74.9282 106.722 75.1569C106.49 75.3858 106.202 75.5572 105.858 75.6717C105.511 75.7859 105.165 75.9004 104.819 76.0149C104.475 76.129 104.186 76.3008 103.956 76.5294C103.725 76.7581 103.495 76.9871 103.264 77.2154C103.033 77.4445 102.804 77.6731 102.572 77.9018C102.342 78.1308 102.053 78.3025 101.709 78.4167C101.363 78.5309 101.016 78.6453 100.672 78.7595C100.326 78.8743 100.038 79.0457 99.8071 79.2744C99.5764 79.5033 99.3457 79.732 99.115 79.9607C98.8856 80.1897 98.6549 80.4184 98.4242 80.647C98.1935 80.8757 97.9628 81.1047 97.7333 81.3333C97.5014 81.562 97.2719 81.791 97.0412 82.0196C96.8105 82.2483 96.5798 82.4769 96.3491 82.7056C96.1184 82.9347 95.8889 83.1632 95.6582 83.3923C95.4275 83.621 95.1968 83.8496 94.9661 84.0783C94.7367 84.3072 94.506 84.5359 94.2753 84.7646C94.0446 84.9935 93.8139 85.2222 93.5832 85.4512C93.3537 85.6795 93.123 85.9086 92.8923 86.1372C92.6621 86.3659 92.4313 86.5949 92.2011 86.8235C91.9701 87.0525 91.74 87.2809 91.5094 87.5098C91.279 87.7385 91.0484 87.9671 90.8178 88.1961C90.5874 88.4248 90.3572 88.6538 90.1262 88.8821C89.8961 89.1111 89.6656 89.3398 89.435 89.5685C89.2045 89.7974 89.0314 90.0833 88.9165 90.4262C88.8013 90.7696 88.6859 91.1128 88.5707 91.4556C88.4555 91.7988 88.2827 92.085 88.0523 92.3137C87.8217 92.5424 87.5911 92.7713 87.3606 93C87.1301 93.2287 86.8995 93.4576 86.6694 93.6863C86.4388 93.915 86.2658 94.2012 86.1504 94.544C86.0352 94.8872 85.9204 95.23 85.8051 95.5735C85.6894 95.9167 85.5168 96.2026 85.2865 96.4312C85.0556 96.6602 84.8829 96.9461 84.7677 97.2893C84.6524 97.632 84.5371 97.9755 84.4219 98.3189C84.3066 98.6612 84.1339 98.9478 83.9033 99.1764C83.6732 99.405 83.5001 99.6916 83.3849 100.035C83.2696 100.377 83.1543 100.721 83.0391 101.064C82.9238 101.407 82.7511 101.693 82.5206 101.922C82.29 102.15 82.1174 102.436 82.002 102.779C81.8868 103.123 81.829 103.523 81.829 103.98C81.829 104.438 81.7711 104.839 81.6562 105.181C81.541 105.525 81.3683 105.81 81.1374 106.04C80.9072 106.268 80.7345 106.554 80.6188 106.897C80.5039 107.241 80.4461 107.64 80.4461 108.098C80.4461 108.555 80.3887 108.956 80.2734 109.299C80.1581 109.643 79.9851 109.928 79.7549 110.157C79.524 110.386 79.3513 110.672 79.2361 111.014C79.1211 111.358 79.0633 111.758 79.0633 112.215C79.0633 112.673 79.0633 113.13 79.0633 113.589C79.0633 114.046 79.0633 114.503 79.0633 114.96C79.0633 115.419 79.0633 115.876 79.0633 116.333C79.0633 116.791 79.0633 117.248 79.0633 117.706C79.0633 118.163 79.0055 118.564 78.8903 118.907C78.7753 119.25 78.6023 119.535 78.3717 119.764C78.1412 119.994 77.9684 120.279 77.8532 120.623C77.738 120.965 77.6804 121.366 77.6804 121.824C77.6804 122.281 77.6804 122.738 77.6804 123.196C77.6804 123.653 77.6804 124.111 77.6804 124.569C77.6804 125.026 77.738 125.426 77.8532 125.77C77.9684 126.113 78.1412 126.399 78.3717 126.627C78.6023 126.856 78.7753 127.142 78.8903 127.485C79.0055 127.828 79.0633 128.229 79.0633 128.687C79.0633 129.144 79.0633 129.601 79.0633 130.058C79.0633 130.516 79.0633 130.974 79.0633 131.431C79.0633 131.889 79.0633 132.345 79.0633 132.804C79.0633 133.261 79.0633 133.719 79.0633 134.176C79.0633 134.634 79.0633 135.091 79.0633 135.549C79.0633 136.006 79.0633 136.465 79.0633 136.921C79.0633 137.379 79.1211 137.779 79.2361 138.123C79.3513 138.466 79.524 138.752 79.7549 138.98C79.9851 139.209 80.1581 139.495 80.2734 139.838C80.3887 140.181 80.4461 140.581 80.4461 141.04C80.4461 141.496 80.4461 141.954 80.4461 142.411C80.4461 142.87 80.5039 143.27 80.6188 143.612C80.7345 143.957 80.9072 144.241 81.1374 144.471C81.3683 144.699 81.541 144.986 81.6562 145.328C81.7711 145.671 81.829 146.072 81.829 146.529C81.829 146.986 81.8868 147.387 82.002 147.73C82.1174 148.074 82.29 148.36 82.5206 148.588C82.7511 148.816 82.9238 149.103 83.0391 149.446C83.1543 149.79 83.2122 150.19 83.2122 150.647C83.2122 151.104 83.2696 151.505 83.3849 151.848C83.5001 152.192 83.6732 152.477 83.9033 152.706C84.1339 152.934 84.3066 153.221 84.4219 153.563C84.5371 153.907 84.6524 154.25 84.7677 154.592C84.8829 154.937 85.0556 155.222 85.2865 155.452C85.5168 155.68 85.6894 155.966 85.8051 156.308C85.9204 156.652 86.0352 156.995 86.1504 157.338C86.2658 157.682 86.4388 157.967 86.6694 158.196C86.8995 158.425 87.0726 158.711 87.1879 159.054C87.3028 159.396 87.4181 159.741 87.5337 160.083C87.649 160.426 87.8217 160.712 88.0523 160.942C88.2827 161.17 88.5129 161.399 88.7439 161.627C88.9739 161.857 89.2045 162.086 89.435 162.313C89.6656 162.542 89.8387 162.828 89.9536 163.171C90.0688 163.515 90.1841 163.857 90.2994 164.202C90.4146 164.544 90.5874 164.83 90.8178 165.058C91.0484 165.287 91.279 165.517 91.5094 165.745C91.74 165.974 91.9701 166.203 92.2011 166.432C92.4313 166.66 92.6621 166.889 92.8923 167.118C93.123 167.347 93.3537 167.575 93.5832 167.804C93.8139 168.032 93.9875 168.319 94.1029 168.661C94.217 169.005 94.3323 169.348 94.4477 169.692C94.563 170.035 94.7367 170.32 94.9661 170.549C95.1968 170.778 95.4275 171.006 95.6582 171.236C95.8889 171.465 96.1184 171.693 96.3491 171.921C96.5798 172.15 96.8105 172.379 97.0412 172.607C97.2719 172.837 97.5014 173.066 97.7333 173.294C97.9628 173.523 98.1935 173.752 98.4242 173.98C98.6549 174.209 98.8856 174.437 99.115 174.666C99.3457 174.896 99.5764 175.124 99.8071 175.353C100.038 175.581 100.267 175.811 100.498 176.039C100.729 176.267 100.959 176.496 101.19 176.725C101.42 176.954 101.652 177.183 101.881 177.411C102.112 177.641 102.342 177.87 102.572 178.098C102.804 178.327 103.033 178.556 103.264 178.785C103.495 179.013 103.725 179.241 103.956 179.471C104.186 179.699 104.416 179.928 104.647 180.157C104.878 180.386 105.108 180.614 105.338 180.842C105.569 181.072 105.799 181.301 106.03 181.529C106.261 181.758 106.49 181.986 106.722 182.216C106.951 182.445 107.182 182.673 107.413 182.902C107.644 183.132 107.874 183.359 108.105 183.588C108.334 183.816 108.565 184.046 108.796 184.275C109.027 184.503 109.257 184.732 109.487 184.961C109.717 185.19 110.005 185.362 110.351 185.475C110.697 185.59 111.043 185.704 111.388 185.819C111.734 185.933 112.022 186.104 112.253 186.333C112.483 186.562 112.714 186.791 112.945 187.02C113.175 187.248 113.405 187.477 113.636 187.706C113.866 187.934 114.154 188.107 114.5 188.221C114.846 188.336 115.191 188.449 115.537 188.563C115.883 188.678 116.171 188.85 116.402 189.078C116.632 189.307 116.863 189.537 117.094 189.765C117.323 189.994 117.554 190.222 117.785 190.452C118.015 190.68 118.303 190.851 118.649 190.966C118.995 191.08 119.34 191.195 119.686 191.308C120.032 191.423 120.32 191.595 120.551 191.824C120.781 192.052 121.069 192.224 121.415 192.338C121.76 192.452 122.106 192.566 122.452 192.681C122.798 192.796 123.086 192.967 123.316 193.196C123.546 193.425 123.835 193.597 124.18 193.711C124.526 193.825 124.872 193.94 125.218 194.054C125.563 194.169 125.852 194.34 126.082 194.569C126.312 194.798 126.601 194.969 126.946 195.083C127.292 195.197 127.638 195.312 127.984 195.426C128.33 195.541 128.618 195.712 128.848 195.942C129.078 196.17 129.367 196.342 129.712 196.456C130.058 196.57 130.404 196.684 130.75 196.799C131.095 196.913 131.268 197.085 131.268 197.313C131.268 197.542 131.095 197.715 130.75 197.828C130.404 197.942 130.001 198 129.539 198C129.078 198 128.616 198 128.156 198C127.696 198 127.235 198 126.773 198C126.312 198 125.909 197.942 125.563 197.828C125.218 197.715 124.93 197.542 124.699 197.313C124.469 197.085 124.18 196.913 123.835 196.799C123.489 196.684 123.086 196.627 122.626 196.627C122.164 196.627 121.703 196.627 121.241 196.627C120.781 196.627 120.377 196.57 120.032 196.456C119.686 196.342 119.398 196.17 119.168 195.942C118.937 195.712 118.649 195.541 118.303 195.426C117.957 195.312 117.554 195.255 117.094 195.255C116.632 195.255 116.229 195.197 115.883 195.083C115.537 194.969 115.249 194.798 115.019 194.569C114.788 194.34 114.5 194.169 114.154 194.054C113.809 193.94 113.405 193.882 112.945 193.882C112.483 193.882 112.08 193.825 111.734 193.711C111.388 193.597 111.1 193.425 110.87 193.196C110.639 192.967 110.351 192.796 110.005 192.681C109.66 192.566 109.314 192.452 108.968 192.338C108.623 192.224 108.334 192.052 108.105 191.824C107.874 191.595 107.585 191.423 107.239 191.308C106.894 191.195 106.548 191.08 106.202 190.966C105.858 190.851 105.569 190.68 105.338 190.452C105.108 190.222 104.819 190.051 104.475 189.937C104.128 189.822 103.782 189.707 103.438 189.592C103.092 189.479 102.804 189.307 102.572 189.078C102.342 188.85 102.112 188.621 101.881 188.393C101.652 188.163 101.42 187.934 101.19 187.706C100.959 187.477 100.672 187.306 100.326 187.192C99.9796 187.077 99.6335 186.962 99.2875 186.848C98.9426 186.733 98.6549 186.562 98.4242 186.333C98.1935 186.104 97.9628 185.876 97.7333 185.646C97.5014 185.419 97.2719 185.19 97.0412 184.961C96.8105 184.732 96.5798 184.503 96.3491 184.275C96.1184 184.046 95.8889 183.816 95.6582 183.588C95.4275 183.359 95.1398 183.187 94.7937 183.074C94.4477 182.959 94.1029 182.845 93.7568 182.73C93.4107 182.616 93.123 182.445 92.8923 182.216C92.6621 181.986 92.4313 181.758 92.2011 181.529C91.9701 181.301 91.74 181.072 91.5094 180.842C91.279 180.614 91.0484 180.386 90.8178 180.157C90.5874 179.928 90.3572 179.699 90.1262 179.471C89.8961 179.241 89.6656 179.013 89.435 178.785C89.2045 178.556 88.9739 178.327 88.7439 178.098C88.5129 177.87 88.2827 177.641 88.0523 177.411C87.8217 177.183 87.649 176.896 87.5337 176.554C87.4181 176.211 87.3028 175.868 87.1879 175.525C87.0726 175.182 86.8995 174.896 86.6694 174.666C86.4388 174.437 86.2084 174.209 85.9778 173.98C85.7472 173.752 85.5168 173.523 85.2865 173.294C85.0556 173.066 84.8255 172.837 84.5946 172.607C84.3645 172.379 84.1339 172.15 83.9033 171.921C83.6732 171.693 83.4423 171.465 83.2122 171.236C82.9816 171.006 82.7511 170.778 82.5206 170.549C82.29 170.32 82.1174 170.035 82.002 169.692C81.8868 169.348 81.7711 169.005 81.6562 168.661C81.541 168.319 81.3683 168.032 81.1374 167.804C80.9072 167.575 80.6767 167.347 80.4461 167.118C80.2159 166.889 79.9851 166.66 79.7549 166.432C79.524 166.203 79.3513 165.916 79.2361 165.574C79.1211 165.23 79.0055 164.887 78.8903 164.544C78.7753 164.202 78.6023 163.915 78.3717 163.687C78.1412 163.457 77.9684 163.171 77.8532 162.828C77.738 162.486 77.6226 162.142 77.5078 161.799C77.3926 161.456 77.2194 161.17 76.9888 160.942C76.7584 160.712 76.5852 160.426 76.4704 160.083C76.3551 159.741 76.2398 159.396 76.1246 159.054C76.0093 158.711 75.8366 158.425 75.6057 158.196C75.3755 157.967 75.2029 157.682 75.0875 157.338C74.9719 156.995 74.8567 156.652 74.7417 156.308C74.6265 155.966 74.4535 155.68 74.2233 155.452C73.9927 155.222 73.8197 154.937 73.7044 154.592C73.5891 154.25 73.5316 153.85 73.5316 153.393C73.5316 152.934 73.4742 152.535 73.3586 152.192C73.2433 151.848 73.0706 151.562 72.8404 151.333C72.6096 151.104 72.4368 150.819 72.3219 150.475C72.2062 150.132 72.1484 149.732 72.1484 149.275C72.1484 148.816 72.091 148.416 71.9758 148.074C71.8605 147.73 71.6878 147.445 71.4572 147.216C71.2271 146.986 71.054 146.702 70.9387 146.357C70.8235 146.015 70.7661 145.614 70.7661 145.157C70.7661 144.699 70.7661 144.241 70.7661 143.785C70.7661 143.327 70.7081 142.926 70.5929 142.583C70.4777 142.241 70.3049 141.954 70.0745 141.725C69.8439 141.496 69.6712 141.211 69.5559 140.868C69.4407 140.525 69.3828 140.124 69.3828 139.666C69.3828 139.209 69.3828 138.752 69.3828 138.294C69.3828 137.836 69.3828 137.379 69.3828 136.921C69.3828 136.465 69.3828 136.006 69.3828 135.549C69.3828 135.091 69.3254 134.692 69.2101 134.348C69.0948 134.005 68.9222 133.719 68.6912 133.491C68.461 133.261 68.2884 132.975 68.1727 132.632C68.0578 132.29 68 131.889 68 131.431C68 130.974 68 130.516 68 130.058C68 129.601 68 129.144 68 128.687C68 128.229 68 127.771 68 127.314C68 126.856 68 126.399 68 125.942C68 125.483 68 125.026 68 124.569C68 124.111 68 123.653 68 123.196C68 122.738 68 122.281 68 121.824C68 121.366 68 120.908 68 120.451C68 119.994 68 119.535 68 119.078C68 118.621 68 118.163 68 117.706C68 117.248 68.0578 116.848 68.1727 116.505C68.2884 116.161 68.461 115.876 68.6912 115.647C68.9222 115.419 69.0948 115.132 69.2101 114.789C69.3254 114.446 69.3828 114.046 69.3828 113.589C69.3828 113.13 69.3828 112.673 69.3828 112.215C69.3828 111.758 69.3828 111.301 69.3828 110.843C69.3828 110.386 69.3828 109.928 69.3828 109.471C69.3828 109.012 69.4407 108.613 69.5559 108.27C69.6712 107.926 69.8439 107.64 70.0745 107.411C70.3049 107.183 70.4777 106.897 70.5929 106.554C70.7081 106.21 70.7661 105.81 70.7661 105.353C70.7661 104.896 70.8235 104.495 70.9387 104.152C71.054 103.808 71.2271 103.523 71.4572 103.294C71.6878 103.066 71.8605 102.779 71.9758 102.436C72.091 102.093 72.1484 101.693 72.1484 101.236C72.1484 100.778 72.2062 100.377 72.3219 100.035C72.4368 99.6916 72.6096 99.405 72.8404 99.1764C73.0706 98.9478 73.2433 98.6612 73.3586 98.3189C73.4742 97.9755 73.5891 97.632 73.7044 97.2893C73.8197 96.9461 73.9927 96.6602 74.2233 96.4312C74.4535 96.2026 74.6265 95.9167 74.7417 95.5735C74.8567 95.23 74.9719 94.8872 75.0875 94.544C75.2029 94.2012 75.3755 93.915 75.6057 93.6863C75.8366 93.4576 76.0093 93.1717 76.1246 92.8283C76.2398 92.4854 76.3551 92.1423 76.4704 91.7988C76.5852 91.4556 76.7584 91.1697 76.9888 90.941C77.2194 90.7124 77.3926 90.4262 77.5078 90.0833C77.6226 89.7402 77.738 89.397 77.8532 89.0539C77.9684 88.7107 78.1412 88.4248 78.3717 88.1961C78.6023 87.9671 78.7753 87.6812 78.8903 87.3384C79.0055 86.995 79.1211 86.6518 79.2361 86.309C79.3513 85.9654 79.524 85.6795 79.7549 85.4512C79.9851 85.2222 80.2159 84.9935 80.4461 84.7646C80.6767 84.5359 80.9072 84.3072 81.1374 84.0783C81.3683 83.8496 81.5984 83.621 81.829 83.3923C82.0594 83.1632 82.29 82.9347 82.5206 82.7056C82.7511 82.4769 82.9238 82.191 83.0391 81.8479C83.1543 81.505 83.2696 81.1616 83.3849 80.8185C83.5001 80.4756 83.6732 80.1897 83.9033 79.9607C84.1339 79.732 84.3645 79.5033 84.5946 79.2744C84.8255 79.0457 85.0556 78.817 85.2865 78.5884C85.5168 78.3594 85.7472 78.1308 85.9778 77.9018C86.2084 77.6731 86.4388 77.4445 86.6694 77.2154C86.8995 76.9871 87.1301 76.7581 87.3606 76.5294C87.5911 76.3008 87.8217 76.0718 88.0523 75.8431C88.2827 75.6142 88.5129 75.3858 88.7439 75.1569C88.9739 74.9282 89.2045 74.6992 89.435 74.4706C89.6656 74.2415 89.8961 74.0129 90.1262 73.7846C90.3572 73.5555 90.6452 73.3838 90.991 73.2696C91.3364 73.1551 91.6822 73.041 92.0279 72.9265C92.3737 72.812 92.6621 72.6406 92.8923 72.4116C93.123 72.183 93.3537 71.9543 93.5832 71.7256C93.8139 71.4967 94.0446 71.268 94.2753 71.0393C94.506 70.8103 94.7367 70.5816 94.9661 70.353C95.1968 70.1243 95.4275 69.8953 95.6582 69.6667C95.8889 69.4377 96.1767 69.2663 96.5227 69.1518C96.8676 69.0376 97.2136 68.9231 97.5597 68.809C97.9057 68.6945 98.1935 68.523 98.4242 68.294C98.6549 68.0653 98.8856 67.8368 99.115 67.6077C99.3457 67.379 99.5764 67.1504 99.8071 66.9217C100.038 66.6928 100.326 66.521 100.672 66.4069C101.016 66.2924 101.363 66.1782 101.709 66.0637C102.053 65.9492 102.342 65.7778 102.572 65.5488C102.804 65.3205 103.092 65.1488 103.438 65.0346C103.782 64.9197 104.128 64.8055 104.475 64.691C104.819 64.5769 105.108 64.4051 105.338 64.1765C105.569 63.9475 105.858 63.7761 106.202 63.6616C106.548 63.5474 106.951 63.4902 107.413 63.4902C107.874 63.4902 108.277 63.433 108.623 63.3188C108.968 63.2043 109.257 63.0326 109.487 62.8039C109.717 62.5749 110.005 62.4038 110.351 62.289C110.697 62.1748 111.043 62.0603 111.388 61.9461C111.734 61.8316 112.022 61.6602 112.253 61.4312C112.483 61.2026 112.771 61.031 113.117 60.9167C113.463 60.8024 113.866 60.7451 114.328 60.7451C114.788 60.7451 115.249 60.7451 115.711 60.7451C116.171 60.7451 116.574 60.688 116.92 60.5734C117.266 60.4591 117.554 60.2875 117.785 60.0589C118.015 59.83 118.303 59.6587 118.649 59.5439C118.995 59.4296 119.398 59.3727 119.858 59.3727C120.32 59.3727 120.781 59.3727 121.241 59.3727C121.703 59.3727 122.164 59.3727 122.626 59.3727C123.086 59.3727 123.489 59.3153 123.835 59.201C124.18 59.0867 124.469 58.9151 124.699 58.6862Z" fill="url(#paint1_linear)" stroke="url(#paint2_linear)" stroke-width="10"/>
<defs>
<linearGradient id="paint0_linear" x1="227.408" y1="5.5722" x2="-12.621" y2="197.532" gradientUnits="userSpaceOnUse">
<stop stop-color="#FE7970"/>
<stop offset="1" stop-color="#DC3282"/>
</linearGradient>
<linearGradient id="paint1_linear" x1="187.955" y1="58.8876" x2="50.8156" y2="175.761" gradientUnits="userSpaceOnUse">
<stop stop-color="#FE7970"/>
<stop offset="1" stop-color="#DC3282"/>
</linearGradient>
<linearGradient id="paint2_linear" x1="187.957" y1="58.8876" x2="50.8157" y2="175.761" gradientUnits="userSpaceOnUse">
<stop stop-color="#FE7970"/>
<stop offset="1" stop-color="#DC3282"/>
</linearGradient>
</defs>
</svg>
