<svg width="256" height="256" viewBox="0 0 256 256" fill="none" xmlns="http://www.w3.org/2000/svg">
<path d="M221 62.4373C221 61.4326 220.677 60.3181 220.141 59.4684C219.561 58.549 218.901 57.5014 218.9 57.5L171 9.35352C169.555 7.95733 158.291 2 156.269 2H41.1923C37.2202 2 34 5.29241 34 9.35352V245.646C34 249.708 37.2202 253 41.1923 253H213.808C217.78 253 221 249.708 221 245.646V68.1816C221 66.4864 221 65.7083 221 62.4373ZM163.462 34.4642C163.462 31.7754 166.726 30.4443 168.606 32.3665L191.458 55.7304C193.316 57.6297 191.97 60.8281 189.313 60.8281H166.462C164.805 60.8281 163.462 59.485 163.462 57.8281V34.4642ZM55 235.5C53.3431 235.5 52 234.157 52 232.5V22.5C52 20.8431 53.3431 19.5 55 19.5H141.5C143.157 19.5 144.5 20.8431 144.5 22.5V60.8281C144.5 64.8892 159.489 79 163.462 79H200C201.657 79 203 80.3431 203 82V232.5C203 234.157 201.657 235.5 200 235.5H55Z" fill="url(#paint0_linear)"/>
<path d="M88.4234 186.373C87.1871 188.594 86.2023 191.938 86.2023 194.044C86.2023 194.533 86.2023 195.155 86.3237 196.017L70.8634 169.432C70.3679 168.57 70 167.331 70 166.217C70 165.1 70.3691 163.743 70.8634 162.878L78.2851 149.892L70 145.195L96.9613 144.696L110.069 168.317L101.661 163.495L88.4221 186.376L88.4234 186.373ZM100.297 111.426C102.645 107.34 106.483 105.114 111.179 105.114C116.248 105.114 120.212 107.466 123.054 112.284L127.261 119.333L112.664 144.567L89.0428 130.839L100.297 111.426V111.426ZM102.024 207.765C94.9753 207.765 89.1642 201.952 89.1642 194.903C89.1642 192.924 90.0326 189.583 91.2689 187.482L95.2218 180.433H124.537V207.766H102.022L102.024 207.765ZM125.525 110.681C123.672 107.47 121.198 105.238 118.229 104H148.656C151.378 104 153.478 105.116 154.719 107.221L162.262 120.082L170.422 115.255L157.309 138.758L130.472 138.38L138.757 133.684L125.523 110.677L125.525 110.681ZM172.397 180.672C176.103 180.672 179.198 179.682 181.793 177.707L166.454 204.418C165.218 206.519 162.995 207.757 160.399 207.757H145.925V217.278L132.075 194.154L145.925 171.021V180.672H172.398H172.397ZM184.263 158.409C185.379 160.389 186 162.489 186 164.716C186 169.169 183.152 173.87 179.199 176.093C177.341 177.088 174.74 177.709 172.15 177.709H163.98L149.392 152.474L173.014 138.992L184.263 158.409" fill="url(#paint1_linear)"/>
<defs>
<linearGradient id="paint0_linear" x1="34" y1="127.5" x2="221" y2="127.5" gradientUnits="userSpaceOnUse">
<stop stop-color="#02AA93"/>
<stop offset="1" stop-color="#67FF80"/>
</linearGradient>
<linearGradient id="paint1_linear" x1="70" y1="160.639" x2="186" y2="160.639" gradientUnits="userSpaceOnUse">
<stop stop-color="#02AA93"/>
<stop offset="1" stop-color="#67FF80"/>
</linearGradient>
</defs>
</svg>
