<svg width="256" height="256" viewBox="0 0 256 256" fill="none" xmlns="http://www.w3.org/2000/svg">
<path d="M221 62.4373C221 61.4326 220.677 60.3181 220.141 59.4684C219.561 58.549 218.901 57.5014 218.9 57.5L171 9.35352C169.555 7.95733 158.291 2 156.269 2H41.1923C37.2202 2 34 5.29241 34 9.35352V245.646C34 249.708 37.2202 253 41.1923 253H213.808C217.78 253 221 249.708 221 245.646V68.1816C221 66.4864 221 65.7083 221 62.4373ZM163.462 34.4642C163.462 31.7754 166.726 30.4443 168.606 32.3665L191.458 55.7304C193.316 57.6297 191.97 60.8281 189.313 60.8281H166.462C164.805 60.8281 163.462 59.485 163.462 57.8281V34.4642ZM55 235.5C53.3431 235.5 52 234.157 52 232.5V22.5C52 20.8431 53.3431 19.5 55 19.5H141.5C143.157 19.5 144.5 20.8431 144.5 22.5V60.8281C144.5 64.8892 159.489 79 163.462 79H200C201.657 79 203 80.3431 203 82V232.5C203 234.157 201.657 235.5 200 235.5H55Z" fill="url(#paint0_linear)"/>
<path d="M180 204.22V218L168.3 210.395L137.165 151.895C141.455 150.53 145.355 148.32 148.735 145.395L180 204.22ZM147.5 120.5C147.5 125.672 145.446 130.632 141.789 134.289C138.132 137.946 133.172 140 128 140H125.14L87.7 210.395L76 218V204.22L113.635 133.5C106.485 125.505 107.135 113.155 115.195 105.94C118.705 102.82 123.255 101 128 101V88C129.724 88 131.377 88.6848 132.596 89.9038C133.815 91.1228 134.5 92.7761 134.5 94.5V102.17C142.3 104.9 147.5 112.245 147.5 120.5ZM134.5 120.5C134.5 118.776 133.815 117.123 132.596 115.904C131.377 114.685 129.724 114 128 114C126.276 114 124.623 114.685 123.404 115.904C122.185 117.123 121.5 118.776 121.5 120.5C121.5 122.224 122.185 123.877 123.404 125.096C124.623 126.315 126.276 127 128 127C129.724 127 131.377 126.315 132.596 125.096C133.815 123.877 134.5 122.224 134.5 120.5Z" fill="url(#paint1_linear)"/>
<defs>
<linearGradient id="paint0_linear" x1="127.5" y1="253" x2="127.5" y2="2" gradientUnits="userSpaceOnUse">
<stop stop-color="#00B59C"/>
<stop offset="1" stop-color="#9CFFAC"/>
</linearGradient>
<linearGradient id="paint1_linear" x1="128" y1="218" x2="128" y2="88" gradientUnits="userSpaceOnUse">
<stop stop-color="#00B59C"/>
<stop offset="1" stop-color="#9CFFAC"/>
</linearGradient>
</defs>
</svg>
