<svg width="256" height="256" viewBox="0 0 256 256" fill="none" xmlns="http://www.w3.org/2000/svg">
<path fill-rule="evenodd" clip-rule="evenodd" d="M28 24C28 12.9543 37.7329 4 49.7391 4H206.261C218.267 4 228 12.9543 228 24V232C228 243.046 218.267 252 206.261 252H49.7391C37.7329 252 28 243.046 28 232V24ZM206.261 34C206.261 28.4772 201.395 24 195.391 24H60.6087C54.6057 24 49.7391 28.4772 49.7391 34V222C49.7391 227.523 54.6055 232 60.6087 232H195.391C201.395 232 206.261 227.523 206.261 222V34Z" fill="url(#paint0_linear)"/>
<path d="M70.7399 101.419C70.7251 101.67 70.7166 101.922 70.7144 102.173V153.497C70.7159 158.858 73.5651 163.811 78.1891 166.491L122.168 191.989C126.793 194.671 132.492 194.671 137.118 191.989L181.097 166.491C185.723 163.81 188.572 158.854 188.571 153.491V102.173C188.564 101.984 188.554 101.795 188.539 101.606" stroke="url(#paint1_linear)" stroke-width="8"/>
<path d="M129.993 62V62.0092C129.876 62.0109 129.76 62.014 129.643 62.0184V142.106C132.265 142.117 134.843 141.428 137.12 140.108L181.132 114.308C183.263 113.057 185.058 111.291 186.355 109.167C187.653 107.042 188.414 104.626 188.572 102.131C188.434 99.615 187.682 97.1733 186.383 95.0259C185.085 92.8783 183.28 91.0928 181.132 89.8298L137.12 64.0303C134.949 62.7581 132.499 62.0599 129.993 62Z" fill="url(#paint2_linear)"/>
<path d="M67.0298 99.0713C67.0193 99.2356 67.0146 99.4006 67.0099 99.5649C67.0253 99.4001 67.0435 99.2356 67.0646 99.0713H67.0298ZM67.005 99.6976C67.0042 99.7386 67.0004 99.7798 67 99.8209V150.781C67.0016 156.104 70.0808 161.024 75.0747 163.685L122.568 189C125.138 190.371 127.774 191.038 130.643 190.998V139.494C127.808 139.499 125.021 138.807 122.563 137.488L75.0299 111.871C72.718 110.619 70.7746 108.852 69.3741 106.728C67.9735 104.604 67.1595 102.188 67.005 99.6976Z" fill="url(#paint3_linear)"/>
<path d="M129.995 62V62.0066C127.251 61.9381 124.541 62.6376 122.163 64.0283L78.15 89.8294C76.0194 91.0812 74.2261 92.8474 72.929 94.9715C71.6319 97.0957 70.8712 99.5118 70.7144 102.006C70.8515 104.522 71.603 106.963 72.901 109.11C74.199 111.258 76.0029 113.043 78.15 114.306L122.163 140.107C124.437 141.441 127.017 142.143 129.643 142.143C132.269 142.143 134.849 141.441 137.123 140.107L181.136 114.306C183.266 113.055 185.06 111.288 186.357 109.164C187.654 107.04 188.415 104.624 188.571 102.13C188.434 99.6143 187.683 97.1728 186.385 95.0257C185.087 92.8783 183.283 91.0926 181.136 89.8294L137.123 64.0283C134.952 62.7565 132.501 62.059 129.995 62Z" stroke="url(#paint4_linear)" stroke-width="8"/>
<defs>
<linearGradient id="paint0_linear" x1="228" y1="140.917" x2="28" y2="140.917" gradientUnits="userSpaceOnUse">
<stop stop-color="#FFCD1A"/>
<stop offset="1" stop-color="#FD9C0C"/>
</linearGradient>
<linearGradient id="paint1_linear" x1="129.643" y1="194" x2="129.643" y2="101.419" gradientUnits="userSpaceOnUse">
<stop stop-color="#FDA700"/>
<stop offset="1" stop-color="#FFDE00"/>
</linearGradient>
<linearGradient id="paint2_linear" x1="159.107" y1="142.106" x2="159.107" y2="62" gradientUnits="userSpaceOnUse">
<stop stop-color="#FDA700"/>
<stop offset="1" stop-color="#FFDE00"/>
</linearGradient>
<linearGradient id="paint3_linear" x1="98.8214" y1="191" x2="98.8214" y2="99.0713" gradientUnits="userSpaceOnUse">
<stop stop-color="#FDA700"/>
<stop offset="1" stop-color="#FFDE00"/>
</linearGradient>
<linearGradient id="paint4_linear" x1="129.643" y1="142.143" x2="129.643" y2="62" gradientUnits="userSpaceOnUse">
<stop stop-color="#FDA700"/>
<stop offset="1" stop-color="#FFDE00"/>
</linearGradient>
</defs>
</svg>
