<svg width="256" height="256" viewBox="0 0 256 256" fill="none" xmlns="http://www.w3.org/2000/svg">
<path d="M221 62.4373C221 61.4326 220.677 60.3181 220.141 59.4684C219.561 58.549 218.9 57.5 218.9 57.5L171 9.35352C169.555 7.95733 158.291 2 156.269 2H41.1923C37.2202 2 34 5.29241 34 9.35352V245.646C34 249.708 37.2202 253 41.1923 253H213.808C217.78 253 221 249.708 221 245.646V68.1816C221 66.4864 221 65.7083 221 62.4373ZM163.462 34.4642C163.462 31.7754 166.726 30.4443 168.606 32.3665L191.458 55.7304C193.316 57.6297 191.97 60.8281 189.313 60.8281H166.462C164.805 60.8281 163.462 59.485 163.462 57.8281V34.4642ZM55 235.5C53.3431 235.5 52 234.157 52 232.5V22.5C52 20.8431 53.3431 19.5 55 19.5H141.5C143.157 19.5 144.5 20.8431 144.5 22.5V60.8281C144.5 64.8892 159.489 79 163.462 79H200C201.657 79 203 80.3431 203 82V232.5C203 234.157 201.657 235.5 200 235.5H55Z" fill="url(#paint0_linear_503_2)"/>
<path d="M125.205 97.1327C102.767 98.4868 90.9672 111.253 90 134.272H112.632C112.825 126.341 117.468 120.345 125.592 119.378C133.716 118.604 141.454 120.538 143.775 125.954C146.289 131.951 140.68 138.915 137.972 141.816C132.942 147.232 124.818 151.294 120.563 157.097C116.501 162.9 115.727 170.444 115.34 179.729H135.264C135.457 173.733 135.844 168.123 138.552 164.448C143.001 158.451 149.578 155.743 154.994 150.908C160.217 146.459 165.826 141.042 166.6 132.531C169.888 107.578 149.384 95.5853 125.205 97.1327Z" fill="url(#paint1_linear_503_2)"/>
<path d="M125.785 213C132.729 213 138.359 207.457 138.359 200.62C138.359 193.783 132.729 188.24 125.785 188.24C118.841 188.24 113.212 193.783 113.212 200.62C113.212 207.457 118.841 213 125.785 213Z" fill="url(#paint2_linear_503_2)"/>
<defs>
<linearGradient id="paint0_linear_503_2" x1="127.5" y1="253" x2="127.5" y2="2" gradientUnits="userSpaceOnUse">
<stop stop-color="#A5A5A5"/>
<stop offset="0.9973" stop-color="#DCDCDC"/>
</linearGradient>
<linearGradient id="paint1_linear_503_2" x1="128.474" y1="179.729" x2="128.474" y2="97" gradientUnits="userSpaceOnUse">
<stop stop-color="#A5A5A5"/>
<stop offset="0.9973" stop-color="#DCDCDC"/>
</linearGradient>
<linearGradient id="paint2_linear_503_2" x1="125.785" y1="213" x2="125.785" y2="188.24" gradientUnits="userSpaceOnUse">
<stop stop-color="#A5A5A5"/>
<stop offset="0.9973" stop-color="#DCDCDC"/>
</linearGradient>
</defs>
</svg>
