<svg width="256" height="256" viewBox="0 0 256 256" fill="none" xmlns="http://www.w3.org/2000/svg">
<path fill-rule="evenodd" clip-rule="evenodd" d="M221 62.4373C221 61.4326 220.677 60.3181 220.141 59.4684C219.854 59.0127 219.546 58.5251 219.309 58.1492L218.9 57.5L171 9.35352C169.555 7.95733 158.291 2 156.269 2H41.1923C37.2202 2 34 5.29241 34 9.35352V245.646C34 249.708 37.2202 253 41.1923 253H213.808C217.78 253 221 249.708 221 245.646V68.1816V62.4373ZM163.462 34.4642C163.462 31.7754 166.726 30.4443 168.606 32.3665L191.458 55.7304C193.316 57.6297 191.97 60.8281 189.313 60.8281H166.462C164.805 60.8281 163.462 59.485 163.462 57.8281V34.4642ZM55 235.5C53.3431 235.5 52 234.157 52 232.5V22.5C52 20.8431 53.3431 19.5 55 19.5H141.5C143.157 19.5 144.5 20.8431 144.5 22.5V60.8281C144.5 64.8892 159.489 79 163.462 79H200C201.657 79 203 80.3431 203 82V232.5C203 234.157 201.657 235.5 200 235.5H55ZM138.171 88.3885C140.546 87.5644 143.445 88.7923 144.336 91.0257C148.327 102.316 141.83 115.773 130.163 120.298C126.155 121.641 122.4 124.023 120.391 127.649C116.881 133.351 118.156 141.213 123.351 145.631C123.784 146.037 124.281 146.404 124.78 146.773L124.78 146.773C125.981 147.66 127.194 148.556 127.552 150.023C128.766 153.394 124.924 156.954 121.352 155.874C117.44 154.069 114.366 150.888 112.087 147.435C105.363 137.332 108.166 122.819 118.305 115.666C120.037 114.211 122.14 113.333 124.237 112.458C126.632 111.458 129.019 110.461 130.844 108.612C134.713 105.044 136.328 99.5801 135.044 94.6352C134.171 92.1711 135.385 89.1137 138.171 88.3885ZM140.387 120.804L140.136 120.858C130.555 123.075 124.775 133.829 128.539 142.441C128.993 144.175 130.23 145.56 131.456 146.932C133.131 148.807 134.784 150.656 134.381 153.336C134.41 154.861 133.501 156.054 132.599 157.239C131.594 158.559 130.597 159.869 130.905 161.618C131.185 164.84 135.472 166.909 138.354 165.088C145.086 160.11 146.406 149.982 141.367 143.496C141.005 143.05 140.601 142.618 140.196 142.184C138.959 140.858 137.699 139.509 137.515 137.678C137.141 135 138.249 131.769 141.044 130.607C141.98 130.127 143.016 129.951 144.054 129.774C144.905 129.63 145.756 129.485 146.555 129.173C149.733 127.649 149.846 122.819 146.929 120.998C144.964 119.817 142.521 120.344 140.387 120.804ZM159.25 150.221C163.539 148.993 168.342 150.353 172.036 152.57C181.353 158.363 182.724 172.381 174.934 179.839C172.123 182.559 168.272 184.372 164.237 184.677C160.665 184.735 158.106 180.828 159.714 177.836C160.489 176.118 162.184 175.565 163.9 175.006C165.294 174.552 166.703 174.093 167.643 172.999C171.284 169.554 170.63 162.986 166.036 160.564C164.887 159.742 163.479 159.542 162.08 159.342C160.503 159.118 158.937 158.895 157.766 157.786C155.365 155.643 156.168 151.391 159.25 150.221ZM107.502 159.525C103.694 160.679 99.7478 161.989 96.691 164.519C94.4118 166.381 94.665 169.81 96.691 171.755C100.14 175.158 105.223 176.402 109.939 177.35C124.016 179.633 138.721 178.331 152.221 174.013C152.787 173.781 153.397 173.569 154.019 173.353L154.019 173.352C156.51 172.487 159.192 171.556 159.967 168.978C161.216 165.294 156.57 161.725 152.981 163.514C145.812 166.596 137.987 168.055 130.172 168.714C122.888 169.274 115.466 169.084 108.366 167.312C108.431 167.275 108.497 167.238 108.564 167.201C108.633 167.163 108.703 167.124 108.774 167.084C110.371 166.198 112.268 165.146 112.147 163.159C112.331 160.926 109.825 158.899 107.502 159.525ZM106.2 186.638C110.453 183.992 115.606 183.037 120.548 182.221C123.858 181.454 126.277 185.583 124.243 187.973C123.29 188.828 122.032 189.206 120.782 189.581L120.782 189.581C120.153 189.77 119.526 189.958 118.942 190.206C127.377 191.665 136.119 190.709 144.258 188.294C149.506 187.454 151.759 195.333 146.947 197.261C137.376 200.458 126.862 201.117 116.872 199.51C112.47 198.612 107.598 197.418 104.664 193.948C102.646 191.649 103.581 188.121 106.2 186.638ZM94.3856 196.634C88.884 196.708 83.4524 198.529 78.7107 201.117C76.8507 202.057 74.9382 204.307 76.6934 206.186C79.2748 208.998 83.2157 210.127 86.9011 211.182C87.1678 211.258 87.4331 211.334 87.6965 211.41C100.979 214.658 114.829 215.284 128.495 215.103C142.249 214.715 156.998 213.668 168.578 205.897C171.092 204.628 169.582 200.689 166.849 201.01C165.369 201.366 163.913 201.804 162.456 202.243C160.604 202.801 158.751 203.359 156.849 203.746C150.534 205.392 143.986 205.445 137.47 205.498C135.896 205.511 134.323 205.524 132.756 205.559C118.147 205.897 103.293 205.617 89.1112 201.958C90.0641 200.577 91.5105 199.731 92.9566 198.886C93.5645 198.53 94.1724 198.175 94.7436 197.78L94.3856 196.634Z" fill="url(#paint0_linear_667_158)"/>
<path d="M220.141 59.4684L221.41 58.6681L221.41 58.6681L220.141 59.4684ZM219.309 58.1492L218.04 58.949L218.04 58.9491L219.309 58.1492ZM218.9 57.5L220.169 56.7002L220.08 56.5598L219.963 56.4421L218.9 57.5ZM171 9.35352L172.063 8.29559L172.053 8.28509L172.042 8.2748L171 9.35352ZM168.606 32.3665L167.534 33.4153L167.534 33.4153L168.606 32.3665ZM191.458 55.7304L190.386 56.7792L190.386 56.7793L191.458 55.7304ZM144.336 91.0257L145.75 90.5258L145.74 90.4976L145.729 90.4699L144.336 91.0257ZM138.171 88.3885L138.549 89.8401L138.606 89.8251L138.662 89.8056L138.171 88.3885ZM130.163 120.298L130.639 121.72L130.673 121.709L130.705 121.696L130.163 120.298ZM120.391 127.649L121.668 128.435L121.686 128.406L121.703 128.376L120.391 127.649ZM123.351 145.631L124.377 144.537L124.35 144.512L124.323 144.488L123.351 145.631ZM124.78 146.773L125.717 145.602L125.694 145.583L125.671 145.566L124.78 146.773ZM124.78 146.773L123.843 147.944L123.866 147.962L123.889 147.98L124.78 146.773ZM127.552 150.023L126.095 150.379L126.113 150.456L126.14 150.531L127.552 150.023ZM121.352 155.874L120.723 157.236L120.818 157.28L120.918 157.31L121.352 155.874ZM112.087 147.435L113.339 146.609L113.335 146.604L112.087 147.435ZM118.305 115.666L119.169 116.892L119.221 116.855L119.269 116.815L118.305 115.666ZM124.237 112.458L124.815 113.842L124.815 113.842L124.237 112.458ZM130.844 108.612L129.827 107.509L129.801 107.533L129.776 107.558L130.844 108.612ZM135.044 94.6352L136.496 94.2582L136.479 94.1954L136.458 94.1343L135.044 94.6352ZM140.136 120.858L139.82 119.392L139.809 119.394L139.798 119.397L140.136 120.858ZM140.387 120.804L140.703 122.27L140.704 122.27L140.387 120.804ZM128.539 142.441L129.99 142.061L129.96 141.948L129.913 141.84L128.539 142.441ZM131.456 146.932L132.575 145.933L132.575 145.933L131.456 146.932ZM134.381 153.336L132.897 153.113L132.879 153.238L132.881 153.364L134.381 153.336ZM132.599 157.239L131.405 156.331L131.405 156.331L132.599 157.239ZM130.905 161.618L132.399 161.488L132.393 161.423L132.382 161.358L130.905 161.618ZM138.354 165.088L139.155 166.356L139.201 166.327L139.246 166.294L138.354 165.088ZM141.367 143.496L142.551 142.576L142.541 142.563L142.531 142.55L141.367 143.496ZM140.196 142.184L139.099 143.207L139.099 143.207L140.196 142.184ZM137.515 137.678L139.007 137.528L139.004 137.499L139 137.471L137.515 137.678ZM141.044 130.607L141.62 131.992L141.675 131.969L141.728 131.942L141.044 130.607ZM144.054 129.774L144.306 131.253L144.306 131.253L144.054 129.774ZM146.555 129.173L147.101 130.57L147.153 130.55L147.203 130.526L146.555 129.173ZM146.929 120.998L147.723 119.726L147.712 119.719L147.702 119.712L146.929 120.998ZM172.036 152.57L172.828 151.296L172.818 151.29L172.808 151.284L172.036 152.57ZM159.25 150.221L158.837 148.779L158.776 148.796L158.717 148.819L159.25 150.221ZM174.934 179.839L173.896 178.755L173.891 178.761L174.934 179.839ZM164.237 184.677L164.261 186.177L164.306 186.176L164.35 186.173L164.237 184.677ZM159.714 177.836L161.035 178.546L161.06 178.5L161.081 178.453L159.714 177.836ZM163.9 175.006L164.364 176.432L164.364 176.432L163.9 175.006ZM167.643 172.999L166.612 171.909L166.556 171.963L166.505 172.021L167.643 172.999ZM166.036 160.564L165.163 161.784L165.246 161.843L165.336 161.891L166.036 160.564ZM162.08 159.342L161.868 160.827L161.868 160.827L162.08 159.342ZM157.766 157.786L158.797 156.697L158.781 156.682L158.765 156.667L157.766 157.786ZM96.691 164.519L97.6401 165.681L97.6474 165.675L96.691 164.519ZM107.502 159.525L107.112 158.077L107.089 158.083L107.067 158.089L107.502 159.525ZM96.691 171.755L97.7446 170.687L97.7373 170.68L97.7299 170.673L96.691 171.755ZM109.939 177.35L109.643 178.821L109.671 178.826L109.699 178.831L109.939 177.35ZM152.221 174.013L152.678 175.442L152.735 175.423L152.791 175.4L152.221 174.013ZM154.019 173.353L153.578 171.919L153.552 171.927L153.527 171.936L154.019 173.353ZM154.019 173.352L154.46 174.786L154.486 174.778L154.511 174.769L154.019 173.352ZM159.967 168.978L158.546 168.496L158.538 168.521L158.531 168.546L159.967 168.978ZM152.981 163.514L153.573 164.892L153.612 164.875L153.65 164.856L152.981 163.514ZM130.172 168.714L130.287 170.21L130.298 170.209L130.172 168.714ZM108.366 167.312L107.628 166.006L104.353 167.857L108.003 168.767L108.366 167.312ZM108.564 167.201L109.294 168.511L109.294 168.511L108.564 167.201ZM108.774 167.084L108.046 165.773L108.046 165.773L108.774 167.084ZM112.147 163.159L110.652 163.036L110.643 163.143L110.65 163.25L112.147 163.159ZM120.548 182.221L120.792 183.701L120.84 183.693L120.886 183.682L120.548 182.221ZM106.2 186.638L106.939 187.943L106.966 187.928L106.992 187.912L106.2 186.638ZM124.243 187.973L125.245 189.089L125.32 189.022L125.385 188.945L124.243 187.973ZM120.782 189.581L121.194 191.023L121.204 191.02L121.214 191.018L120.782 189.581ZM120.782 189.581L120.37 188.139L120.361 188.141L120.351 188.144L120.782 189.581ZM118.942 190.206L118.356 188.825L113.666 190.816L118.686 191.684L118.942 190.206ZM144.258 188.294L144.021 186.813L143.924 186.828L143.831 186.856L144.258 188.294ZM146.947 197.261L147.422 198.684L147.464 198.67L147.505 198.653L146.947 197.261ZM116.872 199.51L116.572 200.98L116.603 200.986L116.634 200.991L116.872 199.51ZM104.664 193.948L105.809 192.979L105.8 192.969L105.791 192.958L104.664 193.948ZM78.7107 201.117L79.3873 202.456L79.4085 202.445L79.4293 202.434L78.7107 201.117ZM94.3856 196.634L95.8174 196.187L95.4838 195.119L94.3654 195.134L94.3856 196.634ZM76.6934 206.186L77.7985 205.172L77.7896 205.162L76.6934 206.186ZM86.9011 211.182L87.3139 209.739L87.3139 209.739L86.9011 211.182ZM87.6965 211.41L87.2797 212.851L87.3098 212.86L87.3402 212.867L87.6965 211.41ZM128.495 215.103L128.515 216.603L128.526 216.603L128.537 216.602L128.495 215.103ZM168.578 205.897L167.902 204.558L167.819 204.6L167.742 204.651L168.578 205.897ZM166.849 201.01L166.674 199.52L166.585 199.531L166.499 199.552L166.849 201.01ZM162.456 202.243L162.889 203.679L162.889 203.679L162.456 202.243ZM156.849 203.746L156.55 202.276L156.51 202.284L156.471 202.295L156.849 203.746ZM137.47 205.498L137.458 203.998L137.458 203.998L137.47 205.498ZM132.756 205.559L132.722 204.059L132.721 204.059L132.756 205.559ZM89.1112 201.958L87.8765 201.106L86.657 202.874L88.7365 203.41L89.1112 201.958ZM92.9566 198.886L92.1996 197.591L92.1996 197.591L92.9566 198.886ZM94.7436 197.78L95.597 199.014L96.5044 198.386L96.1754 197.333L94.7436 197.78ZM218.872 60.2687C219.258 60.8795 219.5 61.7166 219.5 62.4373H222.5C222.5 61.1486 222.096 59.7567 221.41 58.6681L218.872 60.2687ZM218.04 58.9491C218.277 59.325 218.585 59.8128 218.872 60.2687L221.41 58.6681C221.122 58.2125 220.815 57.7251 220.578 57.3494L218.04 58.9491ZM217.631 58.2998L218.04 58.949L220.578 57.3494L220.169 56.7002L217.631 58.2998ZM169.937 10.4115L217.837 58.5579L219.963 56.4421L172.063 8.29559L169.937 10.4115ZM156.269 3.5C156.259 3.5 156.453 3.51901 156.955 3.68383C157.403 3.83098 157.972 4.05121 158.633 4.33275C159.952 4.89443 161.561 5.66578 163.167 6.48833C164.772 7.30989 166.353 8.17205 167.616 8.91036C168.248 9.27997 168.79 9.6126 169.21 9.88943C169.658 10.1846 169.887 10.3642 169.958 10.4322L172.042 8.2748C171.751 7.99383 171.312 7.6818 170.86 7.38395C170.38 7.06774 169.789 6.7059 169.13 6.32067C167.811 5.54931 166.179 4.66034 164.535 3.81805C162.892 2.97674 161.215 2.17149 159.808 1.57254C159.106 1.27377 158.452 1.01768 157.891 0.833585C157.384 0.667157 156.785 0.5 156.269 0.5V3.5ZM41.1923 3.5H156.269V0.5H41.1923V3.5ZM35.5 9.35352C35.5 6.08931 38.0798 3.5 41.1923 3.5V0.5C36.3606 0.5 32.5 4.49551 32.5 9.35352H35.5ZM35.5 245.646V9.35352H32.5V245.646H35.5ZM41.1923 251.5C38.0798 251.5 35.5 248.911 35.5 245.646H32.5C32.5 250.505 36.3606 254.5 41.1923 254.5V251.5ZM213.808 251.5H41.1923V254.5H213.808V251.5ZM219.5 245.646C219.5 248.911 216.92 251.5 213.808 251.5V254.5C218.64 254.5 222.5 250.505 222.5 245.646H219.5ZM219.5 68.1816V245.646H222.5V68.1816H219.5ZM219.5 62.4373V68.1816H222.5V62.4373H219.5ZM169.678 31.3177C166.858 28.4341 161.962 30.4313 161.962 34.4642H164.962C164.962 33.1195 166.594 32.4545 167.534 33.4153L169.678 31.3177ZM192.53 54.6816L169.678 31.3177L167.534 33.4153L190.386 56.7792L192.53 54.6816ZM189.313 62.3281C193.298 62.3281 195.318 57.5308 192.53 54.6815L190.386 56.7793C191.314 57.7286 190.642 59.3281 189.313 59.3281V62.3281ZM166.462 62.3281H189.313V59.3281H166.462V62.3281ZM161.962 57.8281C161.962 60.3134 163.977 62.3281 166.462 62.3281V59.3281C165.633 59.3281 164.962 58.6566 164.962 57.8281H161.962ZM161.962 34.4642V57.8281H164.962V34.4642H161.962ZM50.5 232.5C50.5 234.985 52.5147 237 55 237V234C54.1715 234 53.5 233.329 53.5 232.5H50.5ZM50.5 22.5V232.5H53.5V22.5H50.5ZM55 18C52.5147 18 50.5 20.0147 50.5 22.5H53.5C53.5 21.6715 54.1715 21 55 21V18ZM141.5 18H55V21H141.5V18ZM146 22.5C146 20.0147 143.985 18 141.5 18V21C142.329 21 143 21.6715 143 22.5H146ZM146 60.8281V22.5H143V60.8281H146ZM163.462 77.5C163.329 77.5 162.922 77.4152 162.176 77.0432C161.478 76.6955 160.635 76.1745 159.688 75.5063C157.799 74.1725 155.609 72.332 153.525 70.3499C151.44 68.3673 149.498 66.2793 148.09 64.4621C147.384 63.5516 146.837 62.7389 146.472 62.063C146.082 61.3395 146 60.9487 146 60.8281H143C143 61.7227 143.386 62.6613 143.832 63.4868C144.302 64.3599 144.956 65.3159 145.718 66.2994C147.245 68.2702 149.299 70.4713 151.458 72.524C153.617 74.5773 155.92 76.5182 157.958 77.9572C158.975 78.6753 159.955 79.2884 160.837 79.7282C161.671 80.1438 162.601 80.5 163.462 80.5V77.5ZM200 77.5H163.462V80.5H200V77.5ZM204.5 82C204.5 79.5147 202.485 77.5 200 77.5V80.5C200.829 80.5 201.5 81.1715 201.5 82H204.5ZM204.5 232.5V82H201.5V232.5H204.5ZM200 237C202.485 237 204.5 234.985 204.5 232.5H201.5C201.5 233.329 200.829 234 200 234V237ZM55 237H200V234H55V237ZM145.729 90.4699C144.515 87.427 140.744 85.9079 137.679 86.9714L138.662 89.8056C140.348 89.2209 142.374 90.1576 142.943 91.5815L145.729 90.4699ZM130.705 121.696C143.075 116.899 150.03 102.633 145.75 90.5258L142.921 91.5256C146.624 101.999 140.584 114.647 129.62 118.899L130.705 121.696ZM121.703 128.376C123.464 125.198 126.831 122.996 130.639 121.72L129.686 118.876C125.479 120.286 121.336 122.848 119.079 126.922L121.703 128.376ZM124.323 144.488C119.681 140.541 118.553 133.495 121.668 128.435L119.113 126.863C115.208 133.207 116.631 141.885 122.379 146.774L124.323 144.488ZM125.671 145.566C125.158 145.187 124.734 144.872 124.377 144.537L122.325 146.725C122.833 147.202 123.404 147.621 123.889 147.979L125.671 145.566ZM125.717 145.602L125.717 145.602L123.843 147.944L123.843 147.944L125.717 145.602ZM129.009 149.667C128.5 147.582 126.776 146.382 125.671 145.566L123.889 147.98C125.187 148.938 125.887 149.529 126.095 150.379L129.009 149.667ZM120.918 157.31C123.305 158.032 125.699 157.187 127.272 155.712C128.846 154.237 129.823 151.902 128.963 149.515L126.14 150.531C126.495 151.515 126.158 152.645 125.221 153.523C124.284 154.401 122.971 154.796 121.786 154.438L120.918 157.31ZM110.835 148.261C113.211 151.862 116.479 155.277 120.723 157.236L121.98 154.512C118.401 152.861 115.52 149.914 113.339 146.609L110.835 148.261ZM117.44 114.44C106.655 122.049 103.652 137.468 110.838 148.266L113.335 146.604C107.074 137.196 109.676 123.589 119.169 116.892L117.44 114.44ZM123.659 111.073C121.6 111.933 119.278 112.89 117.34 114.517L119.269 116.815C120.797 115.532 122.679 114.734 124.815 113.842L123.659 111.073ZM129.776 107.558C128.199 109.157 126.104 110.053 123.659 111.073L124.815 113.842C127.159 112.863 129.84 111.765 131.911 109.666L129.776 107.558ZM133.592 95.0122C134.734 99.4107 133.297 104.309 129.827 107.509L131.861 109.715C136.128 105.779 137.921 99.7495 136.496 94.2582L133.592 95.0122ZM137.793 86.9369C134.013 87.9208 132.515 91.9896 133.63 95.1361L136.458 94.1343C135.826 92.3526 136.757 90.3066 138.549 89.8401L137.793 86.9369ZM140.452 122.324L140.703 122.27L140.072 119.337L139.82 119.392L140.452 122.324ZM129.913 141.84C126.559 134.166 131.723 124.344 140.474 122.319L139.798 119.397C129.387 121.806 122.99 133.492 127.164 143.042L129.913 141.84ZM132.575 145.933C131.296 144.502 130.336 143.384 129.99 142.061L127.088 142.821C127.649 144.966 129.164 146.618 130.338 147.932L132.575 145.933ZM135.864 153.559C136.388 150.077 134.158 147.705 132.575 145.933L130.338 147.932C132.105 149.909 133.18 151.236 132.897 153.113L135.864 153.559ZM133.792 158.148C134.63 157.048 135.921 155.441 135.881 153.308L132.881 153.364C132.898 154.281 132.373 155.06 131.405 156.331L133.792 158.148ZM132.382 161.358C132.205 160.354 132.711 159.568 133.792 158.148L131.405 156.331C130.477 157.549 128.988 159.383 129.428 161.878L132.382 161.358ZM137.553 163.82C136.632 164.402 135.397 164.408 134.294 163.888C133.182 163.363 132.482 162.441 132.399 161.488L129.41 161.748C129.608 164.017 131.191 165.74 133.013 166.601C134.844 167.465 137.194 167.595 139.155 166.356L137.553 163.82ZM140.182 144.416C144.706 150.239 143.514 159.407 137.462 163.882L139.246 166.294C146.657 160.813 148.105 149.725 142.551 142.576L140.182 144.416ZM139.099 143.207C139.511 143.649 139.879 144.043 140.203 144.442L142.531 142.55C142.131 142.057 141.691 141.588 141.292 141.16L139.099 143.207ZM136.022 137.828C136.266 140.248 137.936 141.961 139.099 143.207L141.292 141.16C139.981 139.755 139.132 138.77 139.007 137.528L136.022 137.828ZM140.468 129.222C136.833 130.733 135.596 134.787 136.029 137.885L139 137.471C138.685 135.213 139.665 132.805 141.62 131.992L140.468 129.222ZM143.803 128.296C142.805 128.465 141.535 128.669 140.359 129.272L141.728 131.942C142.424 131.585 143.227 131.437 144.306 131.253L143.803 128.296ZM146.009 127.776C145.377 128.023 144.68 128.146 143.803 128.296L144.306 131.253C145.129 131.113 146.135 130.947 147.101 130.57L146.009 127.776ZM146.134 122.27C147.058 122.847 147.573 123.952 147.528 125.141C147.484 126.321 146.9 127.344 145.906 127.82L147.203 130.526C149.387 129.478 150.449 127.324 150.526 125.253C150.604 123.191 149.717 120.97 147.723 119.726L146.134 122.27ZM140.704 122.27C141.794 122.035 142.808 121.82 143.777 121.784C144.725 121.749 145.507 121.894 146.156 122.284L147.702 119.712C146.385 118.921 144.963 118.738 143.666 118.786C142.388 118.834 141.114 119.113 140.071 119.338L140.704 122.27ZM172.808 151.284C168.914 148.947 163.672 147.394 158.837 148.779L159.663 151.663C163.405 150.591 167.77 151.759 171.264 153.856L172.808 151.284ZM175.971 180.922C184.467 172.789 182.978 157.607 172.828 151.296L171.244 153.844C179.727 159.119 180.98 171.973 173.897 178.755L175.971 180.922ZM164.35 186.173C168.748 185.84 172.924 183.871 175.977 180.917L173.891 178.761C171.321 181.247 167.796 182.904 164.124 183.181L164.35 186.173ZM158.393 177.126C157.281 179.194 157.65 181.51 158.78 183.226C159.912 184.943 161.9 186.215 164.261 186.177L164.212 183.177C163.002 183.197 161.924 182.545 161.285 181.575C160.646 180.604 160.538 179.47 161.035 178.546L158.393 177.126ZM163.435 173.58C161.852 174.096 159.438 174.801 158.347 177.219L161.081 178.453C161.541 177.435 162.516 177.035 164.364 176.432L163.435 173.58ZM166.505 172.021C165.887 172.741 164.917 173.097 163.435 173.58L164.364 176.432C165.671 176.007 167.519 175.444 168.78 173.977L166.505 172.021ZM165.336 161.891C168.967 163.805 169.551 169.128 166.612 171.909L168.674 174.089C173.016 169.98 172.292 162.167 166.735 159.237L165.336 161.891ZM161.868 160.827C163.339 161.037 164.363 161.212 165.163 161.784L166.908 159.344C165.411 158.273 163.619 158.046 162.291 157.857L161.868 160.827ZM156.734 158.875C158.31 160.367 160.385 160.616 161.868 160.827L162.291 157.857C160.62 157.619 159.564 157.423 158.797 156.697L156.734 158.875ZM158.717 148.819C154.613 150.377 153.503 155.992 156.767 158.905L158.765 156.667C157.227 155.294 157.723 152.405 159.782 151.623L158.717 148.819ZM97.6474 165.675C100.442 163.362 104.108 162.121 107.937 160.961L107.067 158.089C103.281 159.237 99.0538 160.616 95.7346 163.363L97.6474 165.675ZM97.7299 170.673C96.2107 169.214 96.2025 166.855 97.64 165.681L95.742 163.357C92.6212 165.907 93.1194 170.406 95.6522 172.837L97.7299 170.673ZM110.235 175.879C105.478 174.923 100.834 173.735 97.7446 170.687L95.6375 172.823C99.4463 176.581 104.968 177.881 109.643 178.821L110.235 175.879ZM151.764 172.584C138.476 176.835 124.009 178.112 110.179 175.869L109.699 178.831C124.023 181.154 138.967 179.827 152.678 175.442L151.764 172.584ZM153.527 171.936C152.913 172.149 152.262 172.374 151.651 172.626L152.791 175.4C153.311 175.187 153.881 174.988 154.511 174.769L153.527 171.936ZM153.578 171.919L153.578 171.919L154.46 174.786L154.46 174.786L153.578 171.919ZM158.531 168.546C158.281 169.377 157.725 169.992 156.851 170.53C155.937 171.092 154.807 171.491 153.527 171.935L154.511 174.769C155.723 174.349 157.179 173.85 158.422 173.085C159.706 172.296 160.878 171.157 161.403 169.41L158.531 168.546ZM153.65 164.856C154.822 164.272 156.268 164.524 157.368 165.378C158.468 166.233 158.91 167.423 158.546 168.496L161.388 169.46C162.273 166.849 161.016 164.413 159.208 163.009C157.401 161.605 154.729 160.967 152.312 162.172L153.65 164.856ZM130.298 170.209C138.205 169.542 146.204 168.06 153.573 164.892L152.389 162.136C145.42 165.132 137.769 166.568 130.046 167.219L130.298 170.209ZM108.003 168.767C115.312 170.592 122.908 170.777 130.287 170.21L130.057 167.218C122.869 167.771 115.62 167.576 108.729 165.857L108.003 168.767ZM107.833 165.891C107.765 165.929 107.696 165.967 107.628 166.006L109.104 168.618C109.166 168.583 109.229 168.548 109.294 168.511L107.833 165.891ZM108.046 165.773C107.975 165.812 107.904 165.852 107.833 165.891L109.294 168.511C109.362 168.474 109.43 168.435 109.501 168.396L108.046 165.773ZM110.65 163.25C110.675 163.664 110.524 164.019 110.074 164.444C109.578 164.913 108.881 165.309 108.046 165.773L109.501 168.396C110.263 167.974 111.313 167.4 112.134 166.625C113.003 165.805 113.74 164.64 113.644 163.068L110.65 163.25ZM107.892 160.973C108.518 160.805 109.245 160.98 109.834 161.446C110.43 161.918 110.694 162.53 110.652 163.036L113.642 163.282C113.784 161.555 112.887 160.037 111.696 159.094C110.497 158.145 108.809 157.619 107.112 158.077L107.892 160.973ZM120.303 180.741C115.392 181.552 109.949 182.539 105.407 185.364L106.992 187.912C110.956 185.445 115.819 184.522 120.792 183.701L120.303 180.741ZM125.385 188.945C126.924 187.137 126.694 184.77 125.675 183.124C124.643 181.456 122.612 180.203 120.209 180.76L120.886 183.682C121.794 183.472 122.627 183.9 123.124 184.702C123.633 185.526 123.596 186.419 123.1 187.001L125.385 188.945ZM121.214 191.018C122.396 190.663 123.999 190.208 125.245 189.089L123.241 186.857C122.581 187.449 121.667 187.749 120.351 188.144L121.214 191.018ZM121.194 191.023L121.194 191.023L120.37 188.139L120.37 188.139L121.194 191.023ZM119.528 191.587C120.023 191.376 120.569 191.211 121.213 191.018L120.351 188.144C119.737 188.329 119.029 188.539 118.356 188.825L119.528 191.587ZM143.831 186.856C135.861 189.221 127.356 190.139 119.197 188.728L118.686 191.684C127.397 193.191 136.377 192.197 144.684 189.732L143.831 186.856ZM147.505 198.653C150.831 197.321 151.582 193.935 150.814 191.317C150.044 188.691 147.583 186.243 144.021 186.813L144.495 189.775C146.181 189.505 147.47 190.577 147.935 192.162C148.403 193.756 147.875 195.273 146.389 195.869L147.505 198.653ZM116.634 200.991C126.842 202.633 137.602 201.964 147.422 198.684L146.472 195.838C137.149 198.952 126.882 199.601 117.11 198.029L116.634 200.991ZM103.518 194.916C106.836 198.84 112.242 200.096 116.572 200.98L117.172 198.04C112.698 197.128 108.359 195.996 105.809 192.979L103.518 194.916ZM105.461 185.333C102.173 187.194 100.775 191.792 103.536 194.938L105.791 192.958C104.516 191.506 104.988 189.048 106.939 187.943L105.461 185.333ZM79.4293 202.434C84.0217 199.927 89.2132 198.204 94.4058 198.134L94.3654 195.134C88.5548 195.212 82.8831 197.131 77.9921 199.8L79.4293 202.434ZM77.7896 205.162C77.5576 204.914 77.5111 204.732 77.502 204.616C77.4912 204.479 77.5229 204.279 77.6679 204.009C77.9769 203.434 78.6528 202.827 79.3873 202.456L78.0341 199.778C76.9086 200.347 75.6983 201.335 75.0248 202.59C74.6786 203.235 74.445 204.008 74.5112 204.851C74.579 205.714 74.9516 206.519 75.5972 207.21L77.7896 205.162ZM87.3139 209.739C83.5311 208.657 80.0422 207.616 77.7985 205.172L75.5883 207.2C78.5074 210.381 82.9002 211.597 86.4883 212.624L87.3139 209.739ZM88.1133 209.969C87.8476 209.892 87.5802 209.816 87.3139 209.739L86.4883 212.624C86.7553 212.7 87.0187 212.775 87.2797 212.851L88.1133 209.969ZM128.475 213.603C114.857 213.783 101.154 213.157 88.0528 209.953L87.3402 212.867C100.804 216.159 114.801 216.784 128.515 216.603L128.475 213.603ZM167.742 204.651C156.566 212.151 142.238 213.215 128.453 213.604L128.537 216.602C142.26 216.215 157.43 215.185 169.414 207.143L167.742 204.651ZM167.024 202.5C167.545 202.439 168.049 202.762 168.273 203.374C168.379 203.663 168.378 203.924 168.321 204.106C168.273 204.259 168.17 204.423 167.902 204.558L169.254 207.236C171.359 206.174 171.686 203.966 171.089 202.34C170.504 200.746 168.886 199.26 166.674 199.52L167.024 202.5ZM162.889 203.679C164.352 203.238 165.767 202.813 167.199 202.468L166.499 199.552C164.97 199.919 163.473 200.37 162.024 200.807L162.889 203.679ZM157.148 205.216C159.129 204.812 161.047 204.234 162.889 203.679L162.024 200.807C160.16 201.368 158.373 201.905 156.55 202.276L157.148 205.216ZM137.483 206.998C143.966 206.946 150.702 206.899 157.227 205.197L156.471 202.295C150.366 203.886 144.007 203.945 137.458 203.998L137.483 206.998ZM132.79 207.059C134.344 207.024 135.906 207.011 137.483 206.998L137.458 203.998C135.885 204.011 134.302 204.024 132.722 204.059L132.79 207.059ZM88.7365 203.41C103.13 207.124 118.159 207.397 132.791 207.059L132.721 204.059C118.135 204.397 103.456 204.11 89.4859 200.506L88.7365 203.41ZM92.1996 197.591C90.8077 198.405 89.0507 199.404 87.8765 201.106L90.3459 202.81C91.0775 201.749 92.2133 201.058 93.7136 200.181L92.1996 197.591ZM93.8902 196.546C93.3741 196.903 92.8163 197.23 92.1996 197.591L93.7136 200.181C94.3128 199.831 94.9708 199.447 95.597 199.014L93.8902 196.546ZM92.9538 197.081L93.3118 198.227L96.1754 197.333L95.8174 196.187L92.9538 197.081Z" fill="url(#paint1_linear_667_158)"/>
<defs>
<linearGradient id="paint0_linear_667_158" x1="52" y1="228.5" x2="191" y2="92.5" gradientUnits="userSpaceOnUse">
<stop stop-color="#FD5900"/>
<stop offset="1" stop-color="#FFDE00"/>
</linearGradient>
<linearGradient id="paint1_linear_667_158" x1="52" y1="228.5" x2="191" y2="92.5" gradientUnits="userSpaceOnUse">
<stop stop-color="#FD5900"/>
<stop offset="1" stop-color="#FFDE00"/>
</linearGradient>
</defs>
</svg>
