<svg width="256" height="256" viewBox="0 0 256 256" fill="none" xmlns="http://www.w3.org/2000/svg">
<path fill-rule="evenodd" clip-rule="evenodd" d="M28 24C28 12.9543 37.7329 4 49.7391 4H206.261C218.267 4 228 12.9543 228 24V232C228 243.046 218.267 252 206.261 252H49.7391C37.7329 252 28 243.046 28 232V24ZM206.261 34C206.261 28.4772 201.395 24 195.391 24H60.6087C54.6057 24 49.7391 28.4772 49.7391 34V222C49.7391 227.523 54.6055 232 60.6087 232H195.391C201.395 232 206.261 227.523 206.261 222V34Z" fill="url(#paint0_linear)"/>
<path fill-rule="evenodd" clip-rule="evenodd" d="M199.792 63.0012C199.792 59.9134 197.021 57.5637 193.975 58.0685L130.633 68.5645C129.914 68.6836 129.428 69.3631 129.547 70.082C129.681 70.8859 129.061 71.6173 128.246 71.6173C127.517 71.6173 126.926 72.208 126.926 72.9368V78.217V119.717V120.232C126.926 122.994 129.165 125.232 131.926 125.232H194.792C197.553 125.232 199.792 122.994 199.792 120.232V63.0012ZM118.483 75.9671C118.483 72.8794 115.712 70.5296 112.665 71.0344L60.1827 79.73C57.7696 80.1298 56 82.2167 56 84.6627V89.4613V119.717V120.232C56 122.994 58.2386 125.232 61 125.232H113.483C116.244 125.232 118.483 122.994 118.483 120.232V75.9671ZM143.834 87.7126C143.834 85.2666 145.603 83.1796 148.017 82.7798L177.119 77.958C180.165 77.4533 182.936 79.803 182.936 82.8908V103.36C182.936 106.122 180.697 108.36 177.936 108.36H148.834C146.072 108.36 143.834 106.122 143.834 103.36V87.7126ZM101.61 95.8564C101.61 92.7687 98.8387 90.419 95.7925 90.9236L77.0734 94.0244C74.6602 94.4241 72.8905 96.5111 72.8905 98.9572V103.36C72.8905 106.122 75.1291 108.36 77.8905 108.36H96.6096C99.3711 108.36 101.61 106.122 101.61 103.36V95.8564ZM61 130.655C58.2386 130.655 56 132.893 56 135.655V140.891V171.486V172.056C56 172.263 56.0478 172.459 56.1329 172.634C56.4944 174.17 57.5666 175.449 59.0119 176.074C59.199 176.256 59.4415 176.384 59.7182 176.429L112.679 185.056C115.721 185.551 118.483 183.203 118.483 180.121V135.655C118.483 132.893 116.244 130.655 113.483 130.655H61ZM131.926 130.655C129.165 130.655 126.926 132.893 126.926 135.655V140.891V182.554V183.124C126.926 183.332 126.974 183.528 127.059 183.703C127.421 185.238 128.493 186.517 129.937 187.142C130.125 187.324 130.367 187.452 130.644 187.497L193.988 197.811C197.03 198.306 199.792 195.958 199.792 192.876V135.655C199.792 132.893 197.553 130.655 194.792 130.655H131.926ZM101.61 152.528C101.61 149.767 99.3711 147.528 96.6096 147.528H77.8905C75.1291 147.528 72.8905 149.767 72.8905 152.528V157.227C72.8905 159.678 74.6682 161.768 77.0881 162.162L95.8073 165.205C98.849 165.7 101.61 163.352 101.61 160.27V152.528ZM182.919 173.057V152.528C182.919 149.767 180.68 147.528 177.919 147.528H148.817C146.055 147.528 143.817 149.767 143.817 152.528V168.315C143.817 170.766 145.593 172.856 148.012 173.25L177.115 177.992C180.157 178.488 182.919 176.14 182.919 173.057Z" fill="url(#paint1_linear)"/>
<defs>
<linearGradient id="paint0_linear" x1="128" y1="252" x2="128" y2="4" gradientUnits="userSpaceOnUse">
<stop stop-color="#5570FF"/>
<stop offset="1" stop-color="#4DD3FF"/>
</linearGradient>
<linearGradient id="paint1_linear" x1="125.02" y1="197.867" x2="125.02" y2="62.7317" gradientUnits="userSpaceOnUse">
<stop stop-color="#5558FF"/>
<stop offset="1" stop-color="#00C0FF"/>
</linearGradient>
</defs>
</svg>
