<svg width="256" height="256" viewBox="0 0 256 256" fill="none" xmlns="http://www.w3.org/2000/svg">
<path d="M221 62.4373C221 61.4326 220.677 60.3181 220.141 59.4684C219.561 58.549 218.901 57.5014 218.9 57.5L171 9.35352C169.555 7.95733 158.291 2 156.269 2H41.1923C37.2202 2 34 5.29241 34 9.35352V245.646C34 249.708 37.2202 253 41.1923 253H213.808C217.78 253 221 249.708 221 245.646V68.1816C221 66.4864 221 65.7083 221 62.4373ZM163.462 34.4642C163.462 31.7754 166.726 30.4443 168.606 32.3665L191.458 55.7304C193.316 57.6297 191.97 60.8281 189.313 60.8281H166.462C164.805 60.8281 163.462 59.485 163.462 57.8281V34.4642ZM55 235.5C53.3431 235.5 52 234.157 52 232.5V22.5C52 20.8431 53.3431 19.5 55 19.5H141.5C143.157 19.5 144.5 20.8431 144.5 22.5V60.8281C144.5 64.8892 159.489 79 163.462 79H200C201.657 79 203 80.3431 203 82V232.5C203 234.157 201.657 235.5 200 235.5H55Z" fill="url(#paint0_linear)"/>
<path d="M219.718 59.7351C220.204 60.5052 220.5 61.5273 220.5 62.4373V62.4564V62.4755V62.4945V62.5135V62.5324V62.5512V62.57V62.5888V62.6075V62.6261V62.6447V62.6632V62.6816V62.7001V62.7184V62.7367V62.755V62.7732V62.7913V62.8094V62.8274V62.8454V62.8633V62.8812V62.899V62.9167V62.9344V62.9521V62.9697V62.9873V63.0047V63.0222V63.0396V63.0569V63.0742V63.0914V63.1086V63.1258V63.1429V63.1599V63.1769V63.1938V63.2107V63.2275V63.2443V63.261V63.2777V63.2943V63.3109V63.3274V63.3439V63.3603V63.3767V63.393V63.4093V63.4256V63.4417V63.4579V63.474V63.49V63.506V63.5219V63.5378V63.5537V63.5695V63.5853V63.601V63.6166V63.6322V63.6478V63.6633V63.6788V63.6942V63.7096V63.725V63.7403V63.7555V63.7707V63.7859V63.801V63.816V63.8311V63.846V63.861V63.8759V63.8907V63.9055V63.9203V63.935V63.9496V63.9643V63.9789V63.9934V64.0079V64.0224V64.0368V64.0511V64.0655V64.0798V64.094V64.1082V64.1224V64.1365V64.1506V64.1646V64.1786V64.1925V64.2064V64.2203V64.2342V64.2479V64.2617V64.2754V64.2891V64.3027V64.3163V64.3299V64.3434V64.3568V64.3703V64.3837V64.397V64.4104V64.4236V64.4369V64.4501V64.4633V64.4764V64.4895V64.5025V64.5156V64.5285V64.5415V64.5544V64.5673V64.5801V64.5929V64.6057V64.6184V64.6311V64.6437V64.6563V64.6689V64.6815V64.694V64.7065V64.7189V64.7313V64.7437V64.756V64.7683V64.7806V64.7928V64.805V64.8172V64.8294V64.8415V64.8535V64.8656V64.8776V64.8895V64.9015V64.9134V64.9253V64.9371V64.9489V64.9607V64.9724V64.9842V64.9958V65.0075V65.0191V65.0307V65.0423V65.0538V65.0653V65.0768V65.0882V65.0996V65.111V65.1223V65.1337V65.145V65.1562V65.1675V65.1787V65.1898V65.201V65.2121V65.2232V65.2343V65.2453V65.2563V65.2673V65.2782V65.2892V65.3V65.3109V65.3218V65.3326V65.3434V65.3541V65.3649V65.3756V65.3863V65.3969V65.4076V65.4182V65.4288V65.4393V65.4498V65.4604V65.4708V65.4813V65.4917V65.5021V65.5125V65.5229V65.5332V65.5435V65.5538V65.5641V65.5743V65.5846V65.5948V65.6049V65.6151V65.6252V65.6353V65.6454V65.6555V65.6655V65.6755V65.6855V65.6955V65.7055V65.7154V65.7253V65.7352V65.7451V65.7549V65.7648V65.7746V65.7844V65.7941V65.8039V65.8136V65.8233V65.833V65.8427V65.8524V65.862V65.8716V65.8812V65.8908V65.9004V65.9099V65.9194V65.9289V65.9384V65.9479V65.9574V65.9668V65.9762V65.9856V65.995V66.0044V66.0138V66.0231V66.0324V66.0417V66.051V66.0603V66.0696V66.0788V66.088V66.0973V66.1065V66.1157V66.1248V66.134V66.1431V66.1523V66.1614V66.1705V66.1796V66.1886V66.1977V66.2067V66.2158V66.2248V66.2338V66.2428V66.2518V66.2608V66.2697V66.2787V66.2876V66.2965V66.3055V66.3144V66.3233V66.3321V66.341V66.3499V66.3587V66.3676V66.3764V66.3852V66.394V66.4028V66.4116V66.4204V66.4291V66.4379V66.4466V66.4554V66.4641V66.4729V66.4816V66.4903V66.499V66.5077V66.5164V66.525V66.5337V66.5424V66.551V66.5597V66.5683V66.5769V66.5856V66.5942V66.6028V66.6114V66.62V66.6286V66.6372V66.6458V66.6544V66.6629V66.6715V66.6801V66.6886V66.6972V66.7057V66.7143V66.7228V66.7314V66.7399V66.7484V66.757V66.7655V66.774V66.7825V66.791V66.7996V66.8081V66.8166V66.8251V66.8336V66.8421V66.8506V66.8591V66.8676V66.8761V66.8846V66.893V66.9015V66.91V66.9185V66.927V66.9355V66.944V66.9525V66.961V66.9694V66.9779V66.9864V66.9949V67.0034V67.0119V67.0204V67.0289V67.0374V67.0459V67.0544V67.0629V67.0714V67.0799V67.0884V67.0969V67.1054V67.1139V67.1224V67.131V67.1395V67.148V67.1566V67.1651V67.1736V67.1822V67.1907V67.1993V67.2078V67.2164V67.225V67.2335V67.2421V67.2507V67.2593V67.2679V67.2765V67.2851V67.2937V67.3023V67.3109V67.3196V67.3282V67.3368V67.3455V67.3541V67.3628V67.3715V67.3802V67.3889V67.3975V67.4062V67.415V67.4237V67.4324V67.4411V67.4499V67.4586V67.4674V67.4762V67.485V67.4938V67.5026V67.5114V67.5202V67.529V67.5379V67.5467V67.5556V67.5645V67.5733V67.5822V67.5911V67.6001V67.609V67.6179V67.6269V67.6359V67.6448V67.6538V67.6628V67.6719V67.6809V67.6899V67.699V67.708V67.7171V67.7262V67.7353V67.7444V67.7536V67.7627V67.7719V67.7811V67.7903V67.7995V67.8087V67.8179V67.8272V67.8365V67.8457V67.855V67.8644V67.8737V67.883V67.8924V67.9018V67.9112V67.9206V67.93V67.9395V67.9489V67.9584V67.9679V67.9774V67.987V67.9965V68.0061V68.0157V68.0253V68.0349V68.0446V68.0542V68.0639V68.0736V68.0833V68.0931V68.1028V68.1126V68.1224V68.1322V68.1421V68.1519V68.1618V68.1717V68.1816V245.646C220.5 249.442 217.493 252.5 213.808 252.5H41.1923C37.5068 252.5 34.5 249.442 34.5 245.646V9.35352C34.5 5.55805 37.5068 2.5 41.1923 2.5H156.269C156.434 2.5 156.764 2.56838 157.267 2.73374C157.753 2.89321 158.35 3.12539 159.025 3.41268C160.373 3.98678 162.004 4.76943 163.623 5.59823C165.241 6.42671 166.839 7.2978 168.121 8.04713C168.761 8.42195 169.32 8.76432 169.76 9.05427C170.206 9.34817 170.504 9.57077 170.649 9.71004C170.65 9.71107 170.652 9.71209 170.653 9.71311L218.507 57.8136V57.8141L218.59 57.9456L218.88 58.4066L219.718 59.7351ZM168.964 32.0169C166.77 29.7743 162.962 31.3273 162.962 34.4642V57.8281C162.962 59.7611 164.529 61.3281 166.462 61.3281H189.313C192.413 61.3281 193.983 57.5967 191.815 55.3808L168.964 32.0169ZM51.5 232.5C51.5 234.433 53.067 236 55 236H200C201.933 236 203.5 234.433 203.5 232.5V82C203.5 80.067 201.933 78.5 200 78.5H163.462C163.086 78.5 162.505 78.3248 161.729 77.9383C160.97 77.5598 160.082 77.0081 159.111 76.3233C157.172 74.9545 154.945 73.0804 152.836 71.0746C150.726 69.0686 148.747 66.9429 147.299 65.0745C146.575 64.1397 145.992 63.2793 145.592 62.5376C145.183 61.7801 145 61.2068 145 60.8281V22.5C145 20.567 143.433 19 141.5 19H55C53.067 19 51.5 20.567 51.5 22.5V232.5Z" stroke="url(#paint1_linear)"/>
<path d="M149.83 148.001H134.946C132.891 148.001 131.225 149.68 131.225 151.751V212.25H153.551V151.751C153.551 149.68 151.885 148.001 149.83 148.001ZM120.062 163.001H105.179C103.124 163.001 101.458 164.68 101.458 166.751V212.25H123.783V166.751C123.783 164.68 122.117 163.001 120.062 163.001ZM90.2952 178H75.4117C73.3567 178 71.6907 179.679 71.6907 181.75V212.25H94.0161V181.75C94.0161 179.679 92.3501 178 90.2952 178ZM179.597 133.001H164.713C162.658 133.001 160.992 134.68 160.992 136.751V212.25H183.318V136.751C183.318 134.68 181.652 133.001 179.597 133.001ZM190.616 96.456C190.161 95.5368 189.352 94.8458 188.377 94.5446L167.724 88.1656C165.76 87.5586 163.679 88.6722 163.077 90.6522C162.474 92.6324 163.579 94.7296 165.544 95.3364L176.693 98.78L66.2092 148.325C64.3316 149.167 63.4868 151.383 64.3223 153.275C64.9391 154.672 66.2989 155.502 67.7239 155.502C68.2294 155.502 68.743 155.398 69.2347 155.177L180.805 105.145L176.425 117.317C175.725 119.264 176.723 121.415 178.655 122.121C180.579 122.824 182.718 121.828 183.421 119.874L190.785 99.4086C191.132 98.4426 191.071 97.3754 190.616 96.456Z" stroke="url(#paint2_linear)" stroke-width="8"/>
<defs>
<linearGradient id="paint0_linear" x1="34" y1="127.5" x2="221" y2="127.5" gradientUnits="userSpaceOnUse">
<stop stop-color="#02AA93"/>
<stop offset="1" stop-color="#67FF80"/>
</linearGradient>
<linearGradient id="paint1_linear" x1="34" y1="127.5" x2="221" y2="127.5" gradientUnits="userSpaceOnUse">
<stop stop-color="#02AA93"/>
<stop offset="1" stop-color="#67FF80"/>
</linearGradient>
<linearGradient id="paint2_linear" x1="64" y1="150.125" x2="191.008" y2="150.125" gradientUnits="userSpaceOnUse">
<stop stop-color="#02AA93"/>
<stop offset="1" stop-color="#67FF80"/>
</linearGradient>
</defs>
</svg>
