<svg width="256" height="256" viewBox="0 0 256 256" fill="none" xmlns="http://www.w3.org/2000/svg">
<path d="M221 62.4373C221 61.4326 220.677 60.3181 220.141 59.4684C219.561 58.549 218.901 57.5014 218.9 57.5L171 9.35352C169.555 7.95733 158.291 2 156.269 2H41.1923C37.2202 2 34 5.29241 34 9.35352V245.646C34 249.708 37.2202 253 41.1923 253H213.808C217.78 253 221 249.708 221 245.646V68.1816C221 66.4864 221 65.7083 221 62.4373ZM163.462 34.4642C163.462 31.7754 166.726 30.4443 168.606 32.3665L191.458 55.7304C193.316 57.6297 191.97 60.8281 189.313 60.8281H166.462C164.805 60.8281 163.462 59.485 163.462 57.8281V34.4642ZM55 235.5C53.3431 235.5 52 234.157 52 232.5V22.5C52 20.8431 53.3431 19.5 55 19.5H141.5C143.157 19.5 144.5 20.8431 144.5 22.5V60.8281C144.5 64.8892 159.489 79 163.462 79H200C201.657 79 203 80.3431 203 82V232.5C203 234.157 201.657 235.5 200 235.5H55Z" fill="url(#paint0_linear)"/>
<path fill-rule="evenodd" clip-rule="evenodd" d="M122.333 147.437C116.128 146.904 110.075 145.445 104.371 143.117C103.731 146.829 103.317 150.573 103.125 154.333H122.333V147.437ZM133 147.44C139.2 146.907 145.256 145.453 150.971 143.133C151.605 146.84 152.016 150.581 152.208 154.333H133V147.44ZM122.333 174.563C116.28 175.08 110.371 176.48 104.789 178.707C103.912 174.184 103.357 169.6 103.125 165H122.333V174.563ZM133 174.56C139.053 175.08 144.963 176.48 150.544 178.707C151.421 174.181 151.976 169.6 152.208 165H133V174.56ZM122.333 185.275C117.213 185.803 112.227 187.088 107.528 189.072C108.533 192.053 109.771 194.957 111.213 197.773C112.333 199.933 113.64 202.013 115.133 203.96C116.387 205.587 117.8 207.08 119.373 208.387C120.291 209.133 121.277 209.768 122.333 210.304V185.275ZM133 185.275C138.12 185.805 143.107 187.096 147.803 189.083C146.797 192.059 145.563 194.96 144.12 197.773C143 199.933 141.693 202.013 140.2 203.96C138.947 205.587 137.533 207.08 135.96 208.387C135.043 209.133 134.056 209.768 133 210.304V185.275ZM122.333 136.725C116.931 136.165 111.675 134.76 106.757 132.584C107.907 128.789 109.397 125.104 111.213 121.56C112.333 119.4 113.64 117.32 115.133 115.373C116.387 113.747 117.8 112.253 119.373 110.947C120.291 110.2 121.277 109.565 122.333 109.029V136.725ZM133 136.725C138.397 136.168 143.656 134.773 148.584 132.611C147.435 128.811 145.941 125.115 144.12 121.56C143 119.4 141.693 117.32 140.2 115.373C138.947 113.747 137.533 112.253 135.96 110.947C135.043 110.2 134.056 109.565 133 109.029V136.725ZM179.392 154.333C178.509 145.795 175.523 137.624 170.741 130.544L169.267 131.853C166.648 134.181 163.853 136.269 160.901 138.077C161.976 143.435 162.637 148.875 162.888 154.333H179.392ZM179.392 165C178.44 174.205 175.045 182.984 169.6 190.432C166.741 187.856 163.667 185.565 160.403 183.616C160.445 183.437 160.483 183.259 160.52 183.08C161.821 177.136 162.608 171.08 162.888 165H179.392ZM75.9413 165C76.8933 174.211 80.2907 182.989 85.7387 190.44C88.5947 187.864 91.6667 185.571 94.9333 183.621C94.888 183.44 94.8507 183.261 94.8133 183.08C93.512 177.136 92.7253 171.08 92.4453 165H75.9413ZM103.429 205.653C99.6533 203.683 96.1147 201.232 92.9013 198.355C94.5413 196.875 96.264 195.509 98.0667 194.267C99.112 197.12 100.339 199.909 101.72 202.627C102.251 203.659 102.816 204.672 103.429 205.653ZM157.267 194.269C159.069 195.512 160.797 196.875 162.437 198.349C159.221 201.229 155.683 203.683 151.904 205.653C152.517 204.672 153.083 203.659 153.613 202.627C154.995 199.912 156.221 197.123 157.267 194.269ZM103.379 113.765C99.0453 116.024 95.0587 118.931 91.536 122.373C93.3493 124.131 95.2827 125.744 97.3013 127.221C98.504 123.616 99.992 120.107 101.72 116.707C102.235 115.704 102.784 114.72 103.379 113.765ZM158.013 127.176C159.464 126.171 160.845 125.061 162.173 123.88L163.893 122.355C160.312 118.888 156.285 115.981 151.931 113.725C152.536 114.693 153.091 115.691 153.613 116.707C155.333 120.088 156.816 123.584 158.013 127.176ZM77.4533 146.12C76.6587 148.947 73.712 150.595 70.88 149.8C68.048 149.005 66.392 146.053 67.1867 143.213L67.48 142.147C68.2907 139.307 71.248 137.651 74.08 138.453C76.912 139.256 78.5573 142.2 77.7467 145.027L77.4533 146.12ZM75.6667 154.333C69.7787 154.333 65 156.723 65 159.667C65 176.28 71.6133 192.227 83.3467 203.987C95.1067 215.72 111.053 222.333 127.667 222.333C144.28 222.333 160.227 215.72 171.987 203.987C183.72 192.227 190.333 176.28 190.333 159.667C190.333 143.053 183.72 127.107 171.987 115.347C160.227 103.613 144.28 97 127.667 97C106.093 97.0267 85.9867 108.147 74.5467 126.44C72.9867 128.928 73.7467 132.213 76.24 133.773C78.7333 135.333 82.0267 134.581 83.5867 132.093C83.9173 131.565 84.2587 131.043 84.6107 130.531C87.6373 133.392 90.9227 135.923 94.4293 138.067C93.3573 143.435 92.696 148.867 92.4453 154.333H75.6667Z" fill="url(#paint1_linear)"/>
<defs>
<linearGradient id="paint0_linear" x1="51.3953" y1="127.5" x2="189.109" y2="127.5" gradientUnits="userSpaceOnUse">
<stop stop-color="#5570FF"/>
<stop offset="1" stop-color="#4DD3FF"/>
</linearGradient>
<linearGradient id="paint1_linear" x1="76.6589" y1="159.667" x2="168.959" y2="159.667" gradientUnits="userSpaceOnUse">
<stop stop-color="#5570FF"/>
<stop offset="1" stop-color="#4DD3FF"/>
</linearGradient>
</defs>
</svg>
