<svg width="256" height="256" viewBox="0 0 256 256" fill="none" xmlns="http://www.w3.org/2000/svg">
<path d="M221 62.4373C221 61.4326 220.677 60.3181 220.141 59.4684C219.561 58.549 218.901 57.5014 218.9 57.5L171 9.35352C169.555 7.95733 158.291 2 156.269 2H41.1923C37.2202 2 34 5.29241 34 9.35352V245.646C34 249.708 37.2202 253 41.1923 253H213.808C217.78 253 221 249.708 221 245.646V68.1816C221 66.4864 221 65.7083 221 62.4373ZM163.462 34.4642C163.462 31.7754 166.726 30.4443 168.606 32.3665L191.458 55.7304C193.316 57.6297 191.97 60.8281 189.313 60.8281H166.462C164.805 60.8281 163.462 59.485 163.462 57.8281V34.4642ZM55 235.5C53.3431 235.5 52 234.157 52 232.5V22.5C52 20.8431 53.3431 19.5 55 19.5H141.5C143.157 19.5 144.5 20.8431 144.5 22.5V60.8281C144.5 64.8892 159.489 79 163.462 79H200C201.657 79 203 80.3431 203 82V232.5C203 234.157 201.657 235.5 200 235.5H55Z" fill="url(#paint0_linear)"/>
<path d="M171.237 177.478C170.407 188.952 166.159 197.985 158.493 204.577C150.876 211.169 140.817 214.465 128.317 214.465C114.646 214.465 103.879 209.875 96.0176 200.695C88.2051 191.467 84.2988 178.82 84.2988 162.756V156.237C84.2988 145.983 86.1055 136.95 89.7188 129.138C93.332 121.325 98.4834 115.344 105.173 111.193C111.911 106.994 119.724 104.895 128.61 104.895C140.915 104.895 150.827 108.19 158.347 114.782C165.866 121.374 170.212 130.627 171.384 142.541H149.411C148.874 135.656 146.945 130.676 143.625 127.6C140.354 124.475 135.349 122.912 128.61 122.912C121.286 122.912 115.793 125.549 112.131 130.822C108.518 136.047 106.662 144.177 106.564 155.212V163.269C106.564 174.792 108.298 183.215 111.765 188.537C115.28 193.859 120.798 196.521 128.317 196.521C135.104 196.521 140.158 194.982 143.479 191.906C146.848 188.781 148.776 183.972 149.265 177.478H171.237Z" fill="url(#paint1_linear)"/>
<defs>
<linearGradient id="paint0_linear" x1="127.5" y1="253" x2="127.5" y2="2" gradientUnits="userSpaceOnUse">
<stop stop-color="#5570FF"/>
<stop offset="1" stop-color="#4DD3FF"/>
</linearGradient>
<linearGradient id="paint1_linear" x1="128.5" y1="162" x2="128.5" y2="74" gradientUnits="userSpaceOnUse">
<stop stop-color="#5570FF"/>
<stop offset="1" stop-color="#4DD3FF"/>
</linearGradient>
</defs>
</svg>
