<svg width="256" height="256" viewBox="0 0 256 256" fill="none" xmlns="http://www.w3.org/2000/svg">
<path fill-rule="evenodd" clip-rule="evenodd" d="M220.141 59.4684C220.677 60.3181 221 61.4326 221 62.4373V68.1816V245.646C221 249.708 217.78 253 213.808 253H41.1923C37.2202 253 34 249.708 34 245.646V9.35352C34 5.29241 37.2202 2 41.1923 2H156.269C158.291 2 169.555 7.95733 171 9.35352L218.9 57.5C218.9 57.5 219.068 57.7668 219.309 58.1492C219.546 58.5251 219.854 59.0127 220.141 59.4684ZM168.606 32.3665C166.726 30.4443 163.462 31.7754 163.462 34.4642V57.8281C163.462 59.485 164.805 60.8281 166.462 60.8281H189.313C191.97 60.8281 193.316 57.6297 191.458 55.7304L168.606 32.3665ZM52 232.5C52 234.157 53.3431 235.5 55 235.5H200C201.657 235.5 203 234.157 203 232.5V82C203 80.3431 201.657 79 200 79H163.462C159.489 79 144.5 64.8892 144.5 60.8281V22.5C144.5 20.8431 143.157 19.5 141.5 19.5H55C53.3431 19.5 52 20.8431 52 22.5V232.5ZM141.322 75H111.722V89.8H141.322V75ZM141.322 104.6H111.722V119.4H141.322V104.6ZM111.722 134.2H141.322L155.65 188.243C159.243 206.211 145.281 223 126.66 223C107.883 223 93.9199 206.119 97.5875 188.081L111.722 134.2ZM119.121 200.8H133.921C137.991 200.8 141.321 197.487 141.321 193.4C141.321 189.313 138.007 186 133.921 186H119.121C115.034 186 111.721 189.313 111.721 193.4C111.721 197.487 115.034 200.8 119.121 200.8Z" fill="url(#paint0_linear_667_112)"/>
<defs>
<linearGradient id="paint0_linear_667_112" x1="127.5" y1="2" x2="127.5" y2="253" gradientUnits="userSpaceOnUse">
<stop offset="0.119792" stop-color="#7730F6"/>
<stop offset="0.84375" stop-color="#39D9FD"/>
</linearGradient>
</defs>
</svg>
