<svg width="16" height="16" viewBox="0 0 16 16" fill="none" xmlns="http://www.w3.org/2000/svg">
<path d="M8.9375 7.53125H7.0625C6.80362 7.53125 6.59375 7.74112 6.59375 8V11.75C6.59375 12.0089 6.80362 12.2188 7.0625 12.2188H8.9375C9.19638 12.2188 9.40625 12.0089 9.40625 11.75V8C9.40625 7.74112 9.19638 7.53125 8.9375 7.53125ZM8.46875 11.2812H7.53125V8.46875H8.46875V11.2812ZM8 0C3.59527 0 0 3.59504 0 8C0 12.4047 3.59504 16 8 16C12.4047 16 16 12.405 16 8C16 3.59527 12.405 0 8 0ZM8 15.0625C4.10573 15.0625 0.9375 11.8943 0.9375 8C0.9375 4.10573 4.10573 0.9375 8 0.9375C11.8943 0.9375 15.0625 4.10573 15.0625 8C15.0625 11.8943 11.8943 15.0625 8 15.0625ZM8 1.90625C4.6399 1.90625 1.90625 4.6399 1.90625 8C1.90625 11.3601 4.6399 14.0938 8 14.0938C11.3601 14.0938 14.0938 11.3601 14.0938 8C14.0938 4.6399 11.3601 1.90625 8 1.90625ZM8 13.1562C5.15684 13.1562 2.84375 10.8432 2.84375 8C2.84375 5.15684 5.15684 2.84375 8 2.84375C10.8432 2.84375 13.1562 5.15684 13.1562 8C13.1562 10.8432 10.8432 13.1562 8 13.1562ZM8 3.78125C7.2246 3.78125 6.59375 4.4121 6.59375 5.1875C6.59375 5.9629 7.2246 6.59375 8 6.59375C8.7754 6.59375 9.40625 5.9629 9.40625 5.1875C9.40625 4.4121 8.7754 3.78125 8 3.78125ZM8 5.65625C7.74154 5.65625 7.53125 5.44596 7.53125 5.1875C7.53125 4.92904 7.74154 4.71875 8 4.71875C8.25846 4.71875 8.46875 4.92904 8.46875 5.1875C8.46875 5.44596 8.25846 5.65625 8 5.65625Z" fill="url(#paint0_linear)"/>
<defs>
<linearGradient id="paint0_linear" x1="8" y1="16" x2="8" y2="0" gradientUnits="userSpaceOnUse">
<stop stop-color="#FD3A84"/>
<stop offset="1" stop-color="#FFA68D"/>
</linearGradient>
</defs>
</svg>
