<svg width="48" height="48" viewBox="0 0 48 48" fill="none" xmlns="http://www.w3.org/2000/svg">
<path d="M37.8554 4.2591L37.8539 4.25938L37.8524 4.25968C35.4001 4.73962 32.9457 5.21224 30.4903 5.68499C26.5251 6.44849 22.5584 7.21229 18.598 8.00763C17.9649 8.04567 17.4627 8.41086 17.133 8.8869C16.8031 9.36312 16.632 9.96759 16.6659 10.5248C16.6701 13.1552 16.6694 15.7862 16.6688 18.4174C16.6677 22.4583 16.6667 26.4996 16.6833 30.5405C15.0212 29.6139 12.9862 29.3915 11.1601 29.9348C8.41645 30.7171 6.28971 33.2494 6.04448 36.088C5.75457 38.5641 6.90116 41.1223 8.9198 42.5912C10.7403 43.948 13.2289 44.3737 15.3959 43.6536C17.5826 42.9797 19.3422 41.1879 20.0485 39.0355C20.3692 38.2934 20.4361 37.5202 20.4282 36.7612C20.4246 36.4133 20.4051 36.0638 20.386 35.7212C20.3842 35.6885 20.3824 35.6563 20.3806 35.6238C20.3598 35.2478 20.3412 34.8799 20.3445 34.5186V34.5167C20.3456 32.7214 20.3454 30.9266 20.3453 29.1318C20.3451 26.1995 20.3449 23.2681 20.3497 20.3374C21.3712 20.1191 22.4042 19.9588 23.4448 19.7973L23.4546 19.7958C24.5546 19.625 25.663 19.4528 26.7607 19.2097L26.7616 19.2096C27.478 19.0484 28.2041 18.9353 28.9383 18.8208C29.0243 18.8074 29.1103 18.794 29.1965 18.7805C30.0158 18.6521 30.8431 18.5151 31.6573 18.3017L31.6619 18.3005L31.6663 18.2991C32.104 18.1642 32.5058 17.864 32.7645 17.48C33.0244 17.0939 33.1483 16.6083 32.9961 16.1156L32.9902 16.0966L32.981 16.0789C32.7838 15.701 32.476 15.3276 32.0947 15.0794C31.7131 14.8309 31.2465 14.7024 30.7503 14.8426C30.4491 14.9024 30.149 14.9638 29.8498 15.025C28.6181 15.2769 27.3975 15.5266 26.1564 15.6576L26.1502 15.6582L26.1441 15.6592C25.3338 15.7908 24.5278 15.9483 23.726 16.105C23.5215 16.1449 23.3173 16.1848 23.1133 16.2242C22.1898 16.4027 21.2699 16.5714 20.3437 16.692C20.3495 15.8297 20.3486 14.968 20.3477 14.1073L20.3476 14.0055C20.3466 13.0872 20.346 12.1701 20.3537 11.2527C20.8084 11.1669 21.263 11.0811 21.7177 10.9953C27.0141 9.99602 32.3167 8.99557 37.5981 7.89661C37.6181 11.3366 37.615 14.7711 37.6122 18.2061C37.6095 21.1724 37.6071 24.1391 37.6194 27.1101C35.6151 26.1855 33.1229 26.3619 31.3296 27.6945C29.2599 29.1423 28.2831 31.9139 28.9826 34.3296C29.5633 36.5344 31.472 38.3204 33.7218 38.7548C35.725 39.1766 37.903 38.5117 39.3348 37.0606C40.7872 35.6264 41.3578 33.5096 41.2099 31.5445C41.1996 26.837 41.2023 22.1298 41.2049 17.4223C41.2073 13.598 41.2095 9.77359 41.2047 5.94854C41.2725 5.13738 40.6626 4.52331 40.1085 4.16884L40.0954 4.16045L40.0811 4.15401C39.686 3.97398 39.2848 3.97793 38.9114 4.03461C38.7252 4.06289 38.5407 4.10516 38.3652 4.14657C38.3455 4.15121 38.326 4.15584 38.3067 4.16044C38.15 4.1975 38.0015 4.23267 37.8554 4.2591ZM33.9606 30.2132L33.9635 30.2121L33.9661 30.2108C34.7175 29.8741 35.5888 29.9831 36.2951 30.3968C37.0015 30.8105 37.5167 31.5127 37.5782 32.3298L37.579 32.3432L37.5817 32.3562C37.7427 33.1687 37.4286 33.9856 36.8514 34.5711C36.2738 35.1568 35.4539 35.4895 34.6326 35.3571L34.6258 35.356L34.6187 35.3553C33.113 35.209 31.9741 33.6098 32.3299 32.1497L32.3308 32.146L32.3317 32.1423C32.5085 31.2876 33.1475 30.5512 33.9606 30.2132ZM12.0436 33.3148L12.0453 33.3141L12.047 33.3137C13.8305 32.6968 16.0329 33.6987 16.6002 35.4928C16.7257 36.3646 16.7091 37.2664 16.6233 38.1561C16.0283 39.8834 13.9658 40.9045 12.2012 40.3737L12.1973 40.3723L12.1935 40.3715C10.4098 39.9044 9.18861 37.9563 9.56552 36.1579L9.56613 36.1549L9.56668 36.152C9.80168 34.8536 10.7859 33.7265 12.0436 33.3148Z" fill="url(#paint0_linear_647_27)" stroke="url(#paint1_linear_647_27)"/>
<defs>
<linearGradient id="paint0_linear_647_27" x1="23.6163" y1="4" x2="23.6163" y2="44" gradientUnits="userSpaceOnUse">
<stop stop-color="#DC18FC"/>
<stop offset="1" stop-color="#8E1EFF"/>
</linearGradient>
<linearGradient id="paint1_linear_647_27" x1="23.6163" y1="4" x2="23.6163" y2="44" gradientUnits="userSpaceOnUse">
<stop stop-color="#DC18FC"/>
<stop offset="1" stop-color="#8E1EFF"/>
</linearGradient>
</defs>
</svg>
