<svg width="16" height="16" viewBox="0 0 16 16" fill="none" xmlns="http://www.w3.org/2000/svg">
<g clip-path="url(#clip0_647_17)">
<path d="M6.73238 1.12909C8.28706 0.806258 9.94153 1.10243 11.3315 1.86657C13.0819 2.82816 14.4002 4.58448 14.8138 6.56987C15.4076 8.97382 14.5416 11.6394 12.7787 13.3188C11.9737 14.1046 10.9712 14.6347 9.92411 15C9.73228 14.9023 9.49592 14.8184 9.4194 14.5923C9.32446 14.385 9.40389 14.1481 9.53854 13.9822C9.69933 13.8469 9.91247 13.8143 10.1023 13.7403C11.6502 13.1529 12.9123 11.8546 13.5022 10.2849C13.9866 9.01332 14.0099 7.57487 13.6107 6.27764C13.1003 4.6457 11.8662 3.27342 10.3222 2.60109C9.26054 2.12227 8.05943 2.03243 6.92126 2.21803C5.24454 2.51915 3.73539 3.61797 2.88685 5.1186C2.20977 6.28255 1.96761 7.68744 2.16424 9.02121C2.43449 11.135 3.93977 13.0127 5.89546 13.7482C6.157 13.8341 6.49216 13.9022 6.57159 14.2171C6.7101 14.5863 6.37398 14.8894 6.05917 14.9912C5.00527 14.6407 4.00661 14.0957 3.19875 13.3138C2.07028 12.2279 1.30505 10.7539 1.0842 9.18608C0.773262 7.25106 1.33798 5.2035 2.5391 3.67917C3.57748 2.35625 5.09053 1.41638 6.73238 1.12909Z" fill="url(#paint0_linear_647_17)" stroke="url(#paint1_linear_647_17)" stroke-width="0.6"/>
<path d="M5 11.4622C5 11.7592 5.24079 12 5.53782 12H10.4622C10.7592 12 11 11.7592 11 11.4622C11 11.1652 10.7592 10.9244 10.4622 10.9244H5.53782C5.24079 10.9244 5 11.1652 5 11.4622ZM10.279 8.13165C10.57 7.76652 10.31 7.22689 9.84311 7.22689C9.53527 7.22689 9.28571 6.97734 9.28571 6.6695V5C9.28571 4.44772 8.838 4 8.28571 4H7.71429C7.162 4 6.71429 4.44772 6.71429 5V6.6695C6.71429 6.97734 6.46473 7.22689 6.15689 7.22689C5.69001 7.22689 5.43002 7.76652 5.72098 8.13165L7.21794 10.0102C7.61829 10.5126 8.38171 10.5126 8.78206 10.0102L10.279 8.13165Z" fill="url(#paint2_linear_647_17)"/>
</g>
<defs>
<linearGradient id="paint0_linear_647_17" x1="1" y1="1.38889" x2="15.5559" y2="11.1133" gradientUnits="userSpaceOnUse">
<stop stop-color="#37CE90"/>
<stop offset="1" stop-color="#9FF66A"/>
</linearGradient>
<linearGradient id="paint1_linear_647_17" x1="1" y1="1.38889" x2="15.5559" y2="11.1133" gradientUnits="userSpaceOnUse">
<stop stop-color="#37CE90"/>
<stop offset="1" stop-color="#9FF66A"/>
</linearGradient>
<linearGradient id="paint2_linear_647_17" x1="5" y1="4.22222" x2="12.2119" y2="7.83577" gradientUnits="userSpaceOnUse">
<stop stop-color="#37CE90"/>
<stop offset="1" stop-color="#9FF66A"/>
</linearGradient>
<clipPath id="clip0_647_17">
<rect width="16" height="16" fill="white"/>
</clipPath>
</defs>
</svg>
