<svg width="64" height="64" viewBox="0 0 64 64" fill="none" xmlns="http://www.w3.org/2000/svg">
<path fill-rule="evenodd" clip-rule="evenodd" d="M17.6263 22.5312C17.9996 22.5312 18.373 22.5312 18.7463 22.3445V21.2245V21.2245C18.7463 20.2912 18.7463 19.3578 18.933 18.6112C18.5596 18.7978 17.9996 18.7978 17.6263 18.7978C15.1996 18.7978 13.1462 16.7445 13.1462 14.3179C13.1462 11.8912 15.1996 9.8379 17.6263 9.8379C19.493 9.8379 21.173 10.9579 21.9196 12.6379C22.6663 11.7046 23.7863 10.7712 24.7196 10.0246C22.293 6.10457 17.253 4.7979 13.3329 7.22457C9.4129 9.65124 8.10624 14.6912 10.5329 18.6112C12.0262 21.0378 14.6396 22.5312 17.6263 22.5312ZM42.08 12.6382C43.0133 10.3982 45.6267 9.27815 48.0533 10.2115C50.2933 11.1448 51.4133 13.7582 50.48 16.1848C49.7333 17.8647 48.0533 18.9847 46.3733 18.9847C46 18.9847 45.44 18.9847 45.0667 18.7981C45.2533 19.7314 45.2533 20.6647 45.2533 21.4114V22.5314C45.44 22.5314 45.6267 22.5781 45.8133 22.6247C46 22.6714 46.1867 22.7181 46.3733 22.7181C51.04 22.7181 54.7733 18.9847 54.7733 14.5048C54.7733 9.83815 51.04 6.10482 46.56 6.10482C43.5733 6.10482 40.96 7.59815 39.4667 10.2115C40.4 10.7715 41.3333 11.5182 42.08 12.6382ZM40.7733 21.2245C40.7733 26.2645 36.8533 30.3712 31.8133 30.3712C26.7733 30.3712 22.6667 26.2645 22.6667 21.2245C22.6667 16.3711 26.5867 12.2645 31.6267 12.2645C36.6667 12.2645 40.7733 16.1845 40.7733 21.2245ZM37.04 21.4112C37.04 18.4245 34.6133 15.9978 31.6267 15.9978C28.8267 15.9978 26.4 18.4245 26.4 21.4112C26.4 24.2112 28.64 26.6378 31.6267 26.6378C34.6133 26.6378 37.04 24.3978 37.04 21.4112ZM46.3733 24.5841C51.2267 24.3974 55.8933 26.0774 59.44 29.2508L60 29.8108V44.7441H56.2667V31.3041C53.4667 29.2508 49.92 28.1308 46.3733 28.3174H46.3733C45.2533 28.3174 44.32 28.3174 43.2 28.5041C43.9467 27.3841 44.5067 26.0774 44.88 24.5841H46.3733ZM19.12 24.771C19.4933 26.2643 20.0533 27.571 20.8 28.691C19.8667 28.5043 18.7467 28.3176 17.6267 28.3176C14.08 28.131 10.72 29.251 7.73333 31.3043V44.7443H4V29.811L4.56 29.251C8.10667 26.2643 12.7733 24.5843 17.6267 24.771H19.12ZM46.7467 39.891L47.12 40.451H47.3067V54.6376C47.3067 56.3176 45.8133 57.811 44.1333 57.811H20.24C18.3733 57.811 17.0667 56.3176 17.0667 54.6376V40.451L17.44 39.891C21.1733 35.7843 26.5867 33.3576 32.1867 33.5443C37.7867 33.3576 43.0133 35.7843 46.7467 39.891ZM20.8 54.0776H43.3867V41.7576C40.4 38.771 36.2933 37.091 32.1867 37.2776C27.8933 37.2776 23.7867 38.771 20.8 41.7576V54.0776Z" fill="url(#paint0_linear)"/>
<path d="M18.7463 22.3445L18.9699 22.7917L19.2463 22.6535V22.3445H18.7463ZM18.933 18.6112L19.418 18.7324L19.6817 17.6778L18.7093 18.1639L18.933 18.6112ZM21.9196 12.6379L21.4627 12.841L21.7966 13.5921L22.3101 12.9502L21.9196 12.6379ZM24.7196 10.0246L25.032 10.415L25.378 10.1382L25.1448 9.76139L24.7196 10.0246ZM13.3329 7.22457L13.0697 6.79943L13.0697 6.79944L13.3329 7.22457ZM10.5329 18.6112L10.9587 18.3491L10.958 18.348L10.5329 18.6112ZM48.0533 10.2115L48.2457 9.74977L48.2328 9.74481L48.0533 10.2115ZM42.08 12.6382L41.664 12.9155L42.1822 13.6929L42.5415 12.8305L42.08 12.6382ZM50.48 16.1848L50.9369 16.3879L50.9421 16.3762L50.9467 16.3643L50.48 16.1848ZM45.0667 18.7981L45.2903 18.3508L44.3759 17.8937L44.5764 18.8961L45.0667 18.7981ZM45.2533 22.5314H44.7533V23.0314H45.2533V22.5314ZM45.8133 22.6247L45.6921 23.1098L45.6921 23.1098L45.8133 22.6247ZM39.4667 10.2115L39.0325 9.96342L38.7897 10.3884L39.2094 10.6402L39.4667 10.2115ZM59.44 29.2508L59.7936 28.8972L59.7837 28.8874L59.7734 28.8781L59.44 29.2508ZM46.3733 24.5841V25.0841H46.3829L46.3926 25.0837L46.3733 24.5841ZM60 29.8108H60.5V29.6037L60.3536 29.4572L60 29.8108ZM60 44.7441V45.2441H60.5V44.7441H60ZM56.2667 44.7441H55.7667V45.2441H56.2667V44.7441ZM56.2667 31.3041H56.7667V31.0507L56.5623 30.9009L56.2667 31.3041ZM46.3733 28.3174V28.8174H46.3865L46.3996 28.8167L46.3733 28.3174ZM43.2 28.5041L42.784 28.2267L42.1438 29.187L43.2822 28.9973L43.2 28.5041ZM44.88 24.5841V24.0841H44.4896L44.3949 24.4628L44.88 24.5841ZM20.8 28.691L20.7019 29.1813L21.8856 29.418L21.216 28.4136L20.8 28.691ZM19.12 24.771L19.6051 24.6497L19.5104 24.271H19.12V24.771ZM17.6267 28.3176L17.6004 28.8169L17.6135 28.8176H17.6267V28.3176ZM7.73333 31.3043L7.45007 30.8923L7.23333 31.0413V31.3043H7.73333ZM7.73333 44.7443V45.2443H8.23333V44.7443H7.73333ZM4 44.7443H3.5V45.2443H4V44.7443ZM4 29.811L3.64645 29.4574L3.5 29.6039V29.811H4ZM4.56 29.251L4.23793 28.8685L4.22157 28.8823L4.20645 28.8974L4.56 29.251ZM17.6267 24.771L17.6074 25.2706L17.6171 25.271H17.6267V24.771ZM47.12 40.451L46.704 40.7283L46.8524 40.951H47.12V40.451ZM46.7467 39.891L47.1627 39.6136L47.1419 39.5824L47.1166 39.5546L46.7467 39.891ZM47.3067 40.451H47.8067V39.951H47.3067V40.451ZM17.0667 40.451L16.6506 40.1736L16.5667 40.2996V40.451H17.0667ZM17.44 39.891L17.07 39.5546L17.0448 39.5824L17.024 39.6136L17.44 39.891ZM32.1867 33.5443L32.17 34.044L32.1867 34.0446L32.2033 34.044L32.1867 33.5443ZM43.3867 54.0776V54.5776H43.8867V54.0776H43.3867ZM20.8 54.0776H20.3V54.5776H20.8V54.0776ZM43.3867 41.7576H43.8867V41.5505L43.7402 41.4041L43.3867 41.7576ZM32.1867 37.2776V37.7776H32.198L32.2094 37.7771L32.1867 37.2776ZM20.8 41.7576L20.4464 41.4041L20.3 41.5505V41.7576H20.8ZM18.5227 21.8973C18.2695 22.0239 18.0122 22.0312 17.6263 22.0312V23.0312C17.987 23.0312 18.4764 23.0385 18.9699 22.7917L18.5227 21.8973ZM18.2463 21.2245V22.3445H19.2463V21.2245H18.2463ZM18.2463 21.2245V21.2245H19.2463V21.2245H18.2463ZM18.4479 18.4899C18.2432 19.3088 18.2463 20.3105 18.2463 21.2245H19.2463C19.2463 20.2718 19.2494 19.4068 19.418 18.7324L18.4479 18.4899ZM17.6263 19.2978C17.8102 19.2978 18.0676 19.2982 18.3294 19.272C18.5857 19.2464 18.8897 19.1918 19.1566 19.0584L18.7093 18.1639C18.6029 18.2172 18.4402 18.2559 18.2299 18.277C18.025 18.2975 17.8157 18.2978 17.6263 18.2978V19.2978ZM12.6462 14.3179C12.6462 17.0206 14.9234 19.2978 17.6263 19.2978V18.2978C15.4757 18.2978 13.6462 16.4683 13.6462 14.3179H12.6462ZM17.6263 9.3379C14.9234 9.3379 12.6462 11.6151 12.6462 14.3179H13.6462C13.6462 12.1674 15.4757 10.3379 17.6263 10.3379V9.3379ZM22.3765 12.4348C21.5511 10.5775 19.6941 9.3379 17.6263 9.3379V10.3379C19.2918 10.3379 20.7949 11.3383 21.4627 12.841L22.3765 12.4348ZM24.4073 9.63413C23.4771 10.3782 22.3151 11.3431 21.5292 12.3256L22.3101 12.9502C23.0174 12.066 24.0954 11.1642 25.032 10.415L24.4073 9.63413ZM13.5961 7.6497C17.2703 5.37522 22.0062 6.59133 24.2945 10.2877L25.1448 9.76139C22.5797 5.61781 17.2356 4.22058 13.0697 6.79943L13.5961 7.6497ZM10.958 18.348C8.68356 14.6739 9.89966 9.93796 13.5961 7.6497L13.0697 6.79944C8.92614 9.36451 7.52891 14.7086 10.1078 18.8743L10.958 18.348ZM17.6263 22.0312C14.8126 22.0312 12.3607 20.6274 10.9587 18.3491L10.1071 18.8732C11.6917 21.4483 14.4666 23.0312 17.6263 23.0312V22.0312ZM48.2328 9.74481C45.5645 8.71855 42.6605 9.94506 41.6185 12.4458L42.5415 12.8305C43.3662 10.8512 45.6888 9.83775 47.8738 10.6782L48.2328 9.74481ZM50.9467 16.3643C51.9729 13.696 50.7464 10.7919 48.2456 9.74995L47.861 10.673C49.8402 11.4977 50.8537 13.8203 50.0133 16.0053L50.9467 16.3643ZM46.3733 19.4847C48.2659 19.4847 50.1162 18.2343 50.9369 16.3879L50.0231 15.9817C49.3504 17.4952 47.8408 18.4847 46.3733 18.4847V19.4847ZM44.8431 19.2453C45.1099 19.3787 45.4139 19.4333 45.6703 19.4589C45.9321 19.4851 46.1895 19.4847 46.3733 19.4847V18.4847C46.1839 18.4847 45.9746 18.4844 45.7698 18.4639C45.5594 18.4428 45.3967 18.4041 45.2903 18.3508L44.8431 19.2453ZM45.7533 21.4114C45.7533 20.6699 45.7547 19.6888 45.557 18.7L44.5764 18.8961C44.7519 19.7739 44.7533 20.6596 44.7533 21.4114H45.7533ZM45.7533 22.5314V21.4114H44.7533V22.5314H45.7533ZM45.9346 22.1397C45.7597 22.0959 45.5123 22.0314 45.2533 22.0314V23.0314C45.3677 23.0314 45.4937 23.0602 45.6921 23.1098L45.9346 22.1397ZM46.3733 22.2181C46.259 22.2181 46.133 22.1893 45.9346 22.1397L45.6921 23.1098C45.867 23.1535 46.1144 23.2181 46.3733 23.2181V22.2181ZM54.2733 14.5048C54.2733 18.7013 50.7712 22.2181 46.3733 22.2181V23.2181C51.3088 23.2181 55.2733 19.2682 55.2733 14.5048H54.2733ZM46.56 6.60482C50.7566 6.60482 54.2733 10.107 54.2733 14.5048H55.2733C55.2733 9.56934 51.3234 5.60482 46.56 5.60482V6.60482ZM39.9008 10.4596C41.3041 8.00371 43.7508 6.60482 46.56 6.60482V5.60482C43.3959 5.60482 40.6159 7.19259 39.0325 9.96342L39.9008 10.4596ZM42.496 12.3608C41.6971 11.1625 40.7008 10.3689 39.7239 9.78274L39.2094 10.6402C40.0992 11.1741 40.9695 11.8739 41.664 12.9155L42.496 12.3608ZM31.8133 30.8712C37.1428 30.8712 41.2733 26.5271 41.2733 21.2245H40.2733C40.2733 26.0019 36.5638 29.8712 31.8133 29.8712V30.8712ZM22.1667 21.2245C22.1667 26.5406 26.4972 30.8712 31.8133 30.8712V29.8712C27.0495 29.8712 23.1667 25.9883 23.1667 21.2245H22.1667ZM31.6267 11.7645C26.3038 11.7645 22.1667 16.1018 22.1667 21.2245H23.1667C23.1667 16.6405 26.8696 12.7645 31.6267 12.7645V11.7645ZM41.2733 21.2245C41.2733 15.8949 36.9292 11.7645 31.6267 11.7645V12.7645C36.4041 12.7645 40.2733 16.474 40.2733 21.2245H41.2733ZM31.6267 16.4978C34.3372 16.4978 36.54 18.7006 36.54 21.4112H37.54C37.54 18.1484 34.8895 15.4978 31.6267 15.4978V16.4978ZM26.9 21.4112C26.9 18.6892 29.1141 16.4978 31.6267 16.4978V15.4978C28.5392 15.4978 25.9 18.1598 25.9 21.4112H26.9ZM31.6267 26.1378C28.9277 26.1378 26.9 23.9467 26.9 21.4112H25.9C25.9 24.4756 28.3523 27.1378 31.6267 27.1378V26.1378ZM36.54 21.4112C36.54 24.099 34.3605 26.1378 31.6267 26.1378V27.1378C34.8662 27.1378 37.54 24.6967 37.54 21.4112H36.54ZM59.7734 28.8781C56.129 25.6174 51.3355 23.8929 46.3541 24.0845L46.3926 25.0837C51.1178 24.902 55.6577 26.5375 59.1066 29.6234L59.7734 28.8781ZM60.3536 29.4572L59.7936 28.8972L59.0864 29.6043L59.6464 30.1643L60.3536 29.4572ZM60.5 44.7441V29.8108H59.5V44.7441H60.5ZM56.2667 45.2441H60V44.2441H56.2667V45.2441ZM55.7667 31.3041V44.7441H56.7667V31.3041H55.7667ZM46.3996 28.8167C49.8266 28.6364 53.2603 29.7195 55.971 31.7073L56.5623 30.9009C53.6731 28.7821 50.0134 27.6252 46.3471 27.8181L46.3996 28.8167ZM46.3733 28.8174H46.3733V27.8174H46.3733V28.8174ZM43.2822 28.9973C44.356 28.8183 45.2504 28.8174 46.3733 28.8174V27.8174C45.2562 27.8174 44.2839 27.8165 43.1178 28.0109L43.2822 28.9973ZM44.3949 24.4628C44.0335 25.9084 43.4946 27.1607 42.784 28.2267L43.616 28.7814C44.3987 27.6075 44.9798 26.2464 45.3651 24.7054L44.3949 24.4628ZM46.3733 24.0841H44.88V25.0841H46.3733V24.0841ZM21.216 28.4136C20.5054 27.3476 19.9665 26.0953 19.6051 24.6497L18.6349 24.8922C19.0202 26.4333 19.6013 27.7943 20.384 28.9683L21.216 28.4136ZM17.6267 28.8176C18.6962 28.8176 19.7773 28.9963 20.7019 29.1813L20.8981 28.2007C19.956 28.0123 18.7971 27.8176 17.6267 27.8176V28.8176ZM8.0166 31.7163C10.9279 29.7148 14.181 28.637 17.6004 28.8169L17.6529 27.8183C13.979 27.625 10.5121 28.7872 7.45007 30.8923L8.0166 31.7163ZM8.23333 44.7443V31.3043H7.23333V44.7443H8.23333ZM4 45.2443H7.73333V44.2443H4V45.2443ZM3.5 29.811V44.7443H4.5V29.811H3.5ZM4.20645 28.8974L3.64645 29.4574L4.35355 30.1645L4.91355 29.6045L4.20645 28.8974ZM17.6459 24.2713C12.6656 24.0798 7.87783 25.8033 4.23793 28.8685L4.88207 29.6334C8.3355 26.7253 12.8811 25.0888 17.6074 25.2706L17.6459 24.2713ZM19.12 24.271H17.6267V25.271H19.12V24.271ZM47.536 40.1736L47.1627 39.6136L46.3306 40.1683L46.704 40.7283L47.536 40.1736ZM47.3067 39.951H47.12V40.951H47.3067V39.951ZM47.8067 54.6376V40.451H46.8067V54.6376H47.8067ZM44.1333 58.311C46.0895 58.311 47.8067 56.5938 47.8067 54.6376H46.8067C46.8067 56.0415 45.5372 57.311 44.1333 57.311V58.311ZM20.24 58.311H44.1333V57.311H20.24V58.311ZM16.5667 54.6376C16.5667 56.5743 18.0781 58.311 20.24 58.311V57.311C18.6685 57.311 17.5667 56.0609 17.5667 54.6376H16.5667ZM16.5667 40.451V54.6376H17.5667V40.451H16.5667ZM17.024 39.6136L16.6506 40.1736L17.4827 40.7283L17.856 40.1683L17.024 39.6136ZM32.2033 33.0446C26.449 32.8528 20.8967 35.3453 17.07 39.5546L17.81 40.2273C21.4499 36.2233 26.7243 33.8625 32.17 34.044L32.2033 33.0446ZM47.1166 39.5546C43.2935 35.3491 37.9292 32.8526 32.17 33.0446L32.2033 34.044C37.6441 33.8626 42.7332 36.2195 46.3767 40.2273L47.1166 39.5546ZM43.3867 53.5776H20.8V54.5776H43.3867V53.5776ZM42.8867 41.7576V54.0776H43.8867V41.7576H42.8867ZM32.2094 37.7771C36.1666 37.5972 40.1392 39.2173 43.0331 42.1112L43.7402 41.4041C40.6608 38.3246 36.42 36.5847 32.164 36.7781L32.2094 37.7771ZM21.1536 42.1112C24.0342 39.2305 28.0076 37.7776 32.1867 37.7776V36.7776C27.7791 36.7776 23.5391 38.3114 20.4464 41.4041L21.1536 42.1112ZM21.3 54.0776V41.7576H20.3V54.0776H21.3Z" fill="url(#paint1_linear)"/>
<defs>
<linearGradient id="paint0_linear" x1="19.2266" y1="45.6726" x2="43.6047" y2="42.3169" gradientUnits="userSpaceOnUse">
<stop stop-color="#8D01A2"/>
<stop offset="1" stop-color="#FF00D2"/>
</linearGradient>
<linearGradient id="paint1_linear" x1="19.2266" y1="45.6726" x2="43.6047" y2="42.3169" gradientUnits="userSpaceOnUse">
<stop stop-color="#8D01A2"/>
<stop offset="1" stop-color="#FF00D2"/>
</linearGradient>
</defs>
</svg>
