<svg width="16" height="16" viewBox="0 0 16 16" fill="none" xmlns="http://www.w3.org/2000/svg">
<path d="M3 2C2.44772 2 2 2.44772 2 3V6V7V13C2 13.5523 2.44772 14 3 14H13C13.5523 14 14 13.5523 14 13V6V5C14 4.44772 13.5523 4 13 4H9.42202C9.15681 4 8.90245 3.89464 8.71492 3.70711L7.0101 2.00229H7.00552L7.00391 2.00391C7.00246 2.00535 7 2.00433 7 2.00229L6.99771 2H3ZM3 4C3 3.44772 3.44772 3 4 3H6.38498C6.51742 3 6.64445 3.05254 6.73819 3.1461L7.29647 3.70329C7.40608 3.81269 7.3286 4 7.17374 4H7.00229L7 4.00229C7 4.00433 6.99754 4.00535 6.99609 4.00391L6.99448 4.00229H6.9899L5.28508 5.70711C5.09755 5.89464 4.84319 6 4.57798 6H4C3.44771 6 3 5.55228 3 5V4ZM3 8C3 7.44772 3.44772 7 4 7H12C12.5523 7 13 7.44772 13 8V12C13 12.5523 12.5523 13 12 13H4C3.44772 13 3 12.5523 3 12V8Z" fill="url(#paint0_linear_668_18)"/>
<defs>
<linearGradient id="paint0_linear_668_18" x1="2" y1="2.33333" x2="14.4765" y2="10.6685" gradientUnits="userSpaceOnUse">
<stop stop-color="#37CE90"/>
<stop offset="1" stop-color="#9FF66A"/>
</linearGradient>
</defs>
</svg>
