<svg width="64" height="64" viewBox="0 0 64 64" fill="none" xmlns="http://www.w3.org/2000/svg">
<path d="M32 5C26.9973 5 22.9373 9.01333 22.7367 13.9693C18.5537 15.7567 14.9892 18.7354 12.4873 22.5344C9.98535 26.3333 8.65662 30.7845 8.66667 35.3333C8.66667 35.73 8.648 36.1733 8.66667 36.647C5.90167 38.271 4 41.2483 4 44.6667C4 49.793 8.207 54 13.3333 54C14.675 54 15.97 53.7153 17.125 53.1973C21.1687 56.5947 26.442 58.6667 32 58.6667C37.558 58.6667 42.8313 56.5947 46.875 53.1973C48.0684 53.7286 49.3604 54.0021 50.6667 54C55.793 54 60 49.793 60 44.6667C60 41.2133 58.075 38.187 55.2633 36.57C55.2983 36.1967 55.3333 35.8233 55.3333 35.3333C55.344 30.7844 54.0155 26.3329 51.5135 22.5339C49.0115 18.7348 45.4466 15.7562 41.2633 13.9693C41.0603 9.01333 37.0003 5 32 5ZM32 9.66667C34.604 9.66667 36.6667 11.7293 36.6667 14.3333C36.6667 16.9373 34.604 19 32 19C29.396 19 27.3333 16.9373 27.3333 14.3333C27.3333 11.7293 29.396 9.66667 32 9.66667ZM23.7633 18.636C25.3267 21.6087 28.43 23.6667 32 23.6667C35.57 23.6667 38.6733 21.6087 40.2367 18.636C43.3691 20.1571 46.0093 22.5305 47.8541 25.484C49.699 28.4374 50.6738 31.8511 50.6667 35.3333C45.5403 35.3333 41.3333 39.5403 41.3333 44.6667C41.3333 46.755 42.0567 48.6473 43.2303 50.2083C39.9919 52.6467 36.0537 53.9763 32 54C27.9462 53.9768 24.0079 52.6472 20.7697 50.2083C21.9908 48.6182 22.6572 46.6716 22.6667 44.6667C22.6667 39.5403 18.4597 35.3333 13.3333 35.3333C13.3333 28.0533 17.51 21.6693 23.7633 18.636V18.636ZM13.3333 40C15.9373 40 18 42.0627 18 44.6667C18 47.2707 15.9373 49.3333 13.3333 49.3333C10.7293 49.3333 8.66667 47.2707 8.66667 44.6667C8.66667 42.0627 10.7293 40 13.3333 40ZM50.6667 40C53.2707 40 55.3333 42.0627 55.3333 44.6667C55.3333 47.2707 53.2707 49.3333 50.6667 49.3333C48.0627 49.3333 46 47.2707 46 44.6667C46 42.0627 48.0627 40 50.6667 40Z" fill="url(#paint0_linear)" stroke="url(#paint1_linear)" stroke-width="2"/>
<defs>
<linearGradient id="paint0_linear" x1="32" y1="58.6667" x2="32" y2="5" gradientUnits="userSpaceOnUse">
<stop stop-color="#5570FF"/>
<stop offset="1" stop-color="#4DD3FF"/>
</linearGradient>
<linearGradient id="paint1_linear" x1="32" y1="58.6667" x2="32" y2="5" gradientUnits="userSpaceOnUse">
<stop stop-color="#5570FF"/>
<stop offset="1" stop-color="#4DD3FF"/>
</linearGradient>
</defs>
</svg>
