<svg width="64" height="64" viewBox="0 0 64 64" fill="none" xmlns="http://www.w3.org/2000/svg">
<g clip-path="url(#clip0)">
<path d="M24.4751 2.90465C25.3569 0.816453 27.6511 -0.381912 29.7405 0.109954C39.8368 1.95669 49.9289 3.81236 60.021 5.68146C62.5701 6.05259 64.4465 8.90989 63.9074 11.6062C62.1606 22.5256 60.418 33.4495 58.6252 44.36C58.1154 47.3828 54.9269 48.9925 52.2942 48.1384C52.29 46.4661 52.29 44.7938 52.2983 43.1214C53.201 42.7995 54.2624 42.3121 54.3084 41.1182C55.8379 31.9292 57.2629 22.7179 58.7798 13.5245C58.9428 12.5452 59.0724 11.2798 58.1363 10.6851C57.2796 10.2513 56.3101 10.1798 55.3907 9.98752C47.3881 8.53875 39.3897 7.04974 31.387 5.57414C30.5011 5.39975 29.3644 5.26561 28.8045 6.20462C28.2487 7.4164 28.2236 8.81151 27.952 10.1083C26.5938 10.3318 25.2357 10.5599 23.8901 10.8505C23.5975 10.8595 23.0083 10.8863 22.7158 10.8952C23.8608 8.42249 23.5014 5.45788 24.4751 2.90465Z" fill="url(#paint0_linear)"/>
<path fill-rule="evenodd" clip-rule="evenodd" d="M30.8341 9.62209C29.8748 9.7977 28.9156 9.97328 27.9517 10.1083C26.5936 10.3318 25.2354 10.5599 23.8898 10.8505C18.3013 11.7285 12.7127 12.6858 7.12919 13.6422L7.12912 13.6422L7.12803 13.6424L7.12693 13.6426C6.08522 13.821 5.04368 13.9994 4.00236 14.1773C1.43232 14.535 -0.452368 17.4147 0.0950699 20.1244C1.09175 26.9136 2.10014 33.701 3.1086 40.4888C3.69421 44.4305 4.27984 48.3724 4.86322 52.3148C5.0638 54.2734 6.38016 56.0262 8.14785 56.5985C9.12485 56.9646 10.1495 56.8019 11.1514 56.6428L11.1516 56.6428L11.1518 56.6427C11.3368 56.6133 11.5211 56.5841 11.7041 56.5583C11.7147 56.9128 11.7106 57.2734 11.7066 57.636V57.636V57.6361C11.693 58.8467 11.6791 60.0787 12.2098 61.1729C12.9578 62.8095 14.5792 63.9542 16.2926 63.9721C19.3808 64.0123 22.469 64.0034 25.5572 63.9765C26.6228 64.0391 27.6843 63.279 27.9434 62.1566C28.4072 60.7302 27.3709 59.0176 25.9584 58.9148C24.6377 58.832 23.3138 58.8499 21.99 58.8678H21.9899C20.6664 58.8857 19.3429 58.9036 18.0226 58.8209C16.9403 58.7002 16.3636 57.4615 16.4973 56.3973C16.5045 52.3001 16.5024 48.2022 16.5004 44.1041V44.104V44.104C16.4976 38.6398 16.4949 33.1755 16.514 27.7126C16.4388 26.6171 17.3749 25.6244 18.3987 25.7094C27.4795 25.687 36.5645 25.6825 45.6453 25.7094C46.6482 25.6468 47.555 26.6305 47.4882 27.6992C47.5073 33.1672 47.5046 38.6352 47.5018 44.1032C47.4998 48.2042 47.4977 52.3053 47.5049 56.4063C47.6428 57.4839 47.0369 58.7359 45.9378 58.8254C44.735 58.9015 43.5282 58.8846 42.3214 58.8676H42.3213H42.3212H42.3212H42.3211C41.0458 58.8497 39.7704 58.8318 38.4993 58.9237C37.2248 59.0176 36.2594 60.4217 36.4558 61.7542C36.5561 63.0196 37.6677 64.0391 38.8545 63.9721C41.809 64.0078 44.7635 64.0123 47.718 63.9676C50.1251 63.9676 52.2647 61.6737 52.2689 59.1026C52.2994 57.0475 52.2943 54.9923 52.2891 52.9364C52.2851 51.3377 52.2811 49.7384 52.2939 48.1384C52.2898 46.4661 52.2898 44.7938 52.2981 43.1214C52.2825 40.054 52.2848 36.9867 52.2871 33.9193C52.2891 31.2587 52.2911 28.598 52.2814 25.9374C52.3692 24.0683 51.4707 22.2037 49.9454 21.2691C48.8184 20.533 47.4937 20.5526 46.2008 20.5717H46.2008H46.2007C45.8444 20.577 45.4905 20.5822 45.1438 20.5716C43.5789 20.6236 42.0153 20.57 40.4516 20.5163C39.1924 20.4731 37.9332 20.4299 36.6731 20.4419L36.4475 20.3525C37.4854 20.1514 38.5434 20.2286 39.5992 20.3056C40.0695 20.3399 40.5393 20.3742 41.0067 20.3838C40.8726 19.5016 40.7477 18.6177 40.6228 17.7339L40.6228 17.7337L40.6227 17.7335L40.6227 17.7332C40.4014 16.1669 40.1801 14.6009 39.9076 13.046C39.5399 10.6717 37.3794 8.79363 35.1228 8.97249C33.6821 9.10072 32.2579 9.36144 30.8341 9.62209ZM5.13067 21.524C4.76292 20.3167 5.52349 18.944 6.73537 18.8769C11.632 18.027 16.5327 17.2002 21.4328 16.3736L21.433 16.3736L21.4331 16.3735C25.1434 15.7476 28.8534 15.1217 32.5611 14.4859C33.5515 14.2533 34.8846 14.2176 35.3526 15.4025C35.8039 17.1151 36.0212 18.8992 36.063 20.6789C32.0827 20.5379 28.0976 20.5576 24.1127 20.5773H24.1127H24.1126C21.6546 20.5895 19.1965 20.6017 16.7397 20.5761C14.1697 20.357 11.7125 22.7134 11.7334 25.4902C11.7042 29.8259 11.7094 34.1626 11.7146 38.4999V38.5002C11.7198 42.8409 11.725 47.1821 11.6957 51.5234C10.6343 51.5234 9.37645 51.0226 9.30959 49.7035C7.89293 40.3133 6.50553 30.9187 5.13067 21.524ZM23.3795 31.9836C22.7272 31.9897 22.055 31.9959 21.5081 32.4077C20.2377 33.2349 20.0664 35.3499 21.1779 36.4052C21.7742 37.0815 22.6543 37.0852 23.4713 37.0887C23.6105 37.0893 23.7479 37.0899 23.8817 37.0938C26.5777 37.0752 29.2737 37.0795 31.9696 37.0838C35.1158 37.0888 38.262 37.0938 41.4081 37.0625C42.9836 37.1072 44.1369 35.1398 43.5101 33.6195C43.1424 32.5105 42.0308 31.8979 40.9693 31.9874C38.3523 31.9792 35.7361 31.9813 33.1204 31.9834C30.0264 31.9859 26.9332 31.9885 23.8399 31.9739C23.6889 31.9808 23.5348 31.9822 23.3796 31.9836H23.3795ZM21.4868 40.461C22.0382 40.0353 22.7154 40.0331 23.3707 40.0309C23.5347 40.0304 23.6973 40.0299 23.8563 40.0227C26.4667 40.0407 29.0772 40.0364 31.6873 40.0321H31.6877C34.9229 40.0267 38.1576 40.0214 41.391 40.0585C43.0835 40.0093 44.2452 42.2317 43.4011 43.7699C42.9623 44.7268 41.9593 45.2052 40.994 45.1292C38.5458 45.135 36.0976 45.1333 33.6491 45.1317H33.6489C30.3841 45.1295 27.1188 45.1273 23.8521 45.1426C23.7363 45.1398 23.618 45.139 23.4983 45.1383H23.4979C22.667 45.133 21.7671 45.1273 21.1609 44.4317C20.0702 43.3808 20.2373 41.2927 21.4868 40.461ZM27.1555 48.0502C25.5533 48.0347 23.9516 48.0192 22.3562 48.1295C20.9939 48.3486 20.0703 50.0343 20.5467 51.416C20.8518 52.516 21.9007 53.2449 22.9621 53.1688C23.5785 53.1709 24.195 53.1751 24.8114 53.1793C26.8695 53.1933 28.9276 53.2074 30.9857 53.142C32.6614 53.1241 33.7396 50.8571 32.8453 49.3591C32.3396 48.3038 31.1695 47.9774 30.1415 48.049C29.1469 48.0695 28.1511 48.0599 27.1555 48.0502Z" fill="url(#paint1_linear)"/>
</g>
<defs>
<linearGradient id="paint0_linear" x1="43.358" y1="48.3663" x2="43.358" y2="0" gradientUnits="userSpaceOnUse">
<stop stop-color="#5570FF"/>
<stop offset="1" stop-color="#4DD3FF"/>
</linearGradient>
<linearGradient id="paint1_linear" x1="26.149" y1="64" x2="26.149" y2="8.96069" gradientUnits="userSpaceOnUse">
<stop stop-color="#FD5900"/>
<stop offset="1" stop-color="#FFDE00"/>
</linearGradient>
<clipPath id="clip0">
<rect width="64" height="64" fill="white"/>
</clipPath>
</defs>
</svg>
