<svg width="16" height="16" viewBox="0 0 16 16" fill="none" xmlns="http://www.w3.org/2000/svg">
<g clip-path="url(#clip0_668_42)">
<path d="M1.4 1C1.17909 1 1 1.17909 1 1.4V14.6C1 14.8209 1.17909 15 1.4 15H14.6C14.8209 15 15 14.8209 15 14.6V1.4C15 1.17909 14.8209 1 14.6 1H1.4ZM2.16667 2.56667C2.16667 2.34575 2.34575 2.16667 2.56667 2.16667H6.43333C6.65425 2.16667 6.83333 2.34575 6.83333 2.56667V2.93333C6.83333 3.15425 7.01242 3.33333 7.23333 3.33333H8V2.56667C8 2.34575 8.17909 2.16667 8.4 2.16667H13.4333C13.6542 2.16667 13.8333 2.34575 13.8333 2.56667V13.4333C13.8333 13.6542 13.6542 13.8333 13.4333 13.8333H2.56667C2.34575 13.8333 2.16667 13.6542 2.16667 13.4333V2.56667ZM8 3.33333V4.5H8.76667C8.98758 4.5 9.16667 4.32091 9.16667 4.1V3.73333C9.16667 3.51242 8.98758 3.33333 8.76667 3.33333H8ZM8 4.5H7.23333C7.01242 4.5 6.83333 4.67909 6.83333 4.9V5.26667C6.83333 5.48758 7.01242 5.66667 7.23333 5.66667H8V4.5ZM8 5.66667V6.83333H8.76667C8.98758 6.83333 9.16667 6.65425 9.16667 6.43333V6.06667C9.16667 5.84575 8.98758 5.66667 8.76667 5.66667H8ZM8 6.83333H7.23333C7.01242 6.83333 6.83333 7.01242 6.83333 7.23333V7.6C6.83333 7.82091 7.01242 8 7.23333 8H8V6.83333ZM8 8V8.76667C8 8.98758 7.82091 9.16667 7.6 9.16667H7.23333C7.01242 9.16667 6.83333 9.34575 6.83333 9.56667V9.93333C6.83333 10.1542 7.01242 10.3333 7.23333 10.3333H8.76667C8.98758 10.3333 9.16667 10.1542 9.16667 9.93333V8.4C9.16667 8.17909 8.98758 8 8.76667 8H8Z" fill="url(#paint0_linear_668_42)"/>
<path d="M8 3.33333H7.23333C7.01242 3.33333 6.83333 3.15425 6.83333 2.93333V2.56667C6.83333 2.34575 6.65425 2.16667 6.43333 2.16667H2.56667C2.34575 2.16667 2.16667 2.34575 2.16667 2.56667V13.4333C2.16667 13.6542 2.34575 13.8333 2.56667 13.8333H13.4333C13.6542 13.8333 13.8333 13.6542 13.8333 13.4333V2.56667C13.8333 2.34575 13.6542 2.16667 13.4333 2.16667H8.4C8.17909 2.16667 8 2.34575 8 2.56667V3.33333ZM8 3.33333V4.5M8 3.33333H8.76667C8.98758 3.33333 9.16667 3.51242 9.16667 3.73333V4.1C9.16667 4.32091 8.98758 4.5 8.76667 4.5H8M8 4.5H7.23333C7.01242 4.5 6.83333 4.67909 6.83333 4.9V5.26667C6.83333 5.48758 7.01242 5.66667 7.23333 5.66667H8M8 4.5V5.66667M8 5.66667V6.83333M8 5.66667H8.76667C8.98758 5.66667 9.16667 5.84575 9.16667 6.06667V6.43333C9.16667 6.65425 8.98758 6.83333 8.76667 6.83333H8M8 6.83333H7.23333C7.01242 6.83333 6.83333 7.01242 6.83333 7.23333V7.6C6.83333 7.82091 7.01242 8 7.23333 8H8M8 6.83333V8M8 8V8.76667C8 8.98758 7.82091 9.16667 7.6 9.16667H7.23333C7.01242 9.16667 6.83333 9.34575 6.83333 9.56667V9.93333C6.83333 10.1542 7.01242 10.3333 7.23333 10.3333H8.76667C8.98758 10.3333 9.16667 10.1542 9.16667 9.93333V8.4C9.16667 8.17909 8.98758 8 8.76667 8H8ZM15 1.4V14.6C15 14.8209 14.8209 15 14.6 15H1.4C1.17909 15 1 14.8209 1 14.6V1.4C1 1.17909 1.17909 1 1.4 1H14.6C14.8209 1 15 1.17909 15 1.4Z" stroke="url(#paint1_linear_668_42)" stroke-width="0.4"/>
</g>
<defs>
<linearGradient id="paint0_linear_668_42" x1="8" y1="15" x2="8" y2="1" gradientUnits="userSpaceOnUse">
<stop stop-color="#FD5900"/>
<stop offset="1" stop-color="#FFDE00"/>
</linearGradient>
<linearGradient id="paint1_linear_668_42" x1="8" y1="15" x2="8" y2="1" gradientUnits="userSpaceOnUse">
<stop stop-color="#FD5900"/>
<stop offset="1" stop-color="#FFDE00"/>
</linearGradient>
<clipPath id="clip0_668_42">
<rect width="16" height="16" fill="white"/>
</clipPath>
</defs>
</svg>
