<svg width="16" height="16" viewBox="0 0 16 16" fill="none" xmlns="http://www.w3.org/2000/svg">
<g clip-path="url(#clip0)">
<path d="M8 2L5 5H7V7H9V5H10H11L8 2ZM3.88281 6L1 10.9941V11.0039V12.9961V14.0039H4H15V13.0039V11.0117V11.002L12.1172 6.00781H12H10V7H11.5391L13.8477 11H12L11 12H5L4 11H2.15039L4.45898 7H6V6.00781H5.03711H3.88281V6ZM2 1041.36V1042.36H7V1044.36H9V1042.36V1041.36H2Z" fill="url(#paint0_linear)"/>
</g>
<defs>
<linearGradient id="paint0_linear" x1="1.00205" y1="507.736" x2="15.0023" y2="507.736" gradientUnits="userSpaceOnUse">
<stop stop-color="#FF4910"/>
<stop offset="1" stop-color="#FF7A00"/>
</linearGradient>
<clipPath id="clip0">
<rect width="16" height="16" fill="white"/>
</clipPath>
</defs>
</svg>
