<svg width="16" height="16" viewBox="0 0 16 16" fill="none" xmlns="http://www.w3.org/2000/svg">
<path d="M7.88731 0.914276C6.21383 0.914276 4.6089 1.1591 3.42557 1.59491C2.24224 2.0307 1.57745 2.62178 1.57745 3.23809V12.5333C1.57745 13.1496 2.24224 13.7407 3.42557 14.1765C4.6089 14.6123 6.21383 14.8571 7.88731 14.8571C9.56079 14.8571 11.1657 14.6123 12.349 14.1765C13.5324 13.7407 14.1972 13.1496 14.1972 12.5333V3.23809C14.1972 2.62178 13.5324 2.0307 12.349 1.59491C11.1657 1.1591 9.56079 0.914276 7.88731 0.914276ZM7.88731 2.07618C9.28188 2.07618 10.6194 2.1986 11.6054 2.41649C12.5915 2.63439 13.1455 2.92993 13.1455 3.23809C13.1455 3.54625 12.5915 3.84178 11.6054 4.05968C10.6194 4.27757 9.28188 4.39999 7.88731 4.39999C6.49275 4.39999 5.1553 4.27757 4.1692 4.05968C3.18308 3.84178 2.6291 3.54625 2.6291 3.23809C2.6291 2.92993 3.18308 2.63439 4.1692 2.41649C5.1553 2.1986 6.49275 2.07618 7.88731 2.07618ZM2.6291 4.51799C3.20323 4.83841 3.98396 5.10146 4.90153 5.28362C5.8191 5.46578 6.84492 5.56138 7.88731 5.56189C8.92915 5.56164 9.9546 5.46637 10.8721 5.28462C11.7896 5.10286 12.5707 4.84026 13.1455 4.52027V7.8857C13.1455 8.19386 12.5915 8.4894 11.6054 8.7073C10.6194 8.92519 9.28188 9.04761 7.88731 9.04761C6.49275 9.04761 5.1553 8.92519 4.1692 8.7073C3.18308 8.4894 2.6291 8.19386 2.6291 7.8857V4.51799ZM2.6291 9.16561C3.20323 9.48603 3.98396 9.74907 4.90153 9.93124C5.8191 10.1134 6.84492 10.209 7.88731 10.2095C8.92915 10.2093 9.9546 10.114 10.8721 9.93224C11.7896 9.75048 12.5707 9.48788 13.1455 9.16789V12.5333C13.1455 12.8415 12.5915 13.137 11.6054 13.3549C10.6194 13.5728 9.28188 13.6952 7.88731 13.6952C6.49275 13.6952 5.1553 13.5728 4.1692 13.3549C3.18308 13.137 2.6291 12.8415 2.6291 12.5333V9.16561Z" fill="url(#paint0_linear)"/>
<defs>
<linearGradient id="paint0_linear" x1="1.5793" y1="7.67912" x2="14.1993" y2="7.67912" gradientUnits="userSpaceOnUse">
<stop stop-color="#A93AFF"/>
<stop offset="1" stop-color="#FF81FF"/>
</linearGradient>
</defs>
</svg>
