<svg width="16" height="16" viewBox="0 0 16 16" fill="none" xmlns="http://www.w3.org/2000/svg">
<path d="M3 2C2.44772 2 2 2.44772 2 3V5V6V7V9.99997V11V13C2 13.5523 2.44772 14 3 14H13C13.5523 14 14 13.5523 14 13V11V9.99997V7V6V5V3C14 2.44772 13.5523 2 13 2H3Z" stroke="url(#paint0_linear_668_24)" stroke-width="1.6"/>
<path d="M3 2C2.44772 2 2 2.44772 2 3V5V6V7V9.99997V11V13C2 13.5523 2.44772 14 3 14H13C13.5523 14 14 13.5523 14 13V11V9.99997V7V6V5V3C14 2.44772 13.5523 2 13 2H3Z" stroke="url(#paint1_linear_668_24)" stroke-width="1.6"/>
<path fill-rule="evenodd" clip-rule="evenodd" d="M11.0003 3.71423C10.7634 3.71423 10.5713 3.9063 10.5713 4.14323C10.5713 4.38016 10.7634 4.57223 11.0003 4.57223H11.8566C12.0935 4.57223 12.2856 4.38016 12.2856 4.14323C12.2856 3.9063 12.0935 3.71423 11.8566 3.71423H11.0003ZM4.14244 6.28564C3.90575 6.28564 3.71387 6.47752 3.71387 6.71422C3.71387 6.95091 3.90575 7.14279 4.14244 7.14279H11.8567C12.0934 7.14279 12.2853 6.95091 12.2853 6.71422C12.2853 6.47752 12.0934 6.28564 11.8567 6.28564H4.14244ZM10.5713 8.42851C10.5713 8.19182 10.7632 7.99994 10.9999 7.99994H11.857C12.0937 7.99994 12.2856 8.19182 12.2856 8.42851C12.2856 8.6652 12.0937 8.85708 11.857 8.85708H10.9999C10.7632 8.85708 10.5713 8.6652 10.5713 8.42851ZM4.14244 9.71423C3.90575 9.71423 3.71387 9.90611 3.71387 10.1428C3.71387 10.3794 3.90575 10.5713 4.14244 10.5713H11.8567C12.0934 10.5713 12.2853 10.3794 12.2853 10.1428C12.2853 9.90611 12.0934 9.71423 11.8567 9.71423H4.14244ZM10.5713 11.857C10.5713 11.6204 10.7632 11.4285 10.9999 11.4285H11.857C12.0937 11.4285 12.2856 11.6204 12.2856 11.857C12.2856 12.0937 12.0937 12.2856 11.857 12.2856H10.9999C10.7632 12.2856 10.5713 12.0937 10.5713 11.857Z" fill="url(#paint2_linear_668_24)"/>
<path d="M10.7713 4.14323C10.7713 4.01677 10.8738 3.91423 11.0003 3.91423V3.51423C10.6529 3.51423 10.3713 3.79584 10.3713 4.14323H10.7713ZM11.0003 4.37223C10.8738 4.37223 10.7713 4.2697 10.7713 4.14323H10.3713C10.3713 4.49063 10.6529 4.77223 11.0003 4.77223V4.37223ZM11.8566 4.37223H11.0003V4.77223H11.8566V4.37223ZM12.0856 4.14323C12.0856 4.2697 11.983 4.37223 11.8566 4.37223V4.77223C12.2039 4.77223 12.4856 4.49063 12.4856 4.14323H12.0856ZM11.8566 3.91423C11.983 3.91423 12.0856 4.01677 12.0856 4.14323H12.4856C12.4856 3.79584 12.2039 3.51423 11.8566 3.51423V3.91423ZM11.0003 3.91423H11.8566V3.51423H11.0003V3.91423ZM3.91387 6.71422C3.91387 6.58798 4.01621 6.48564 4.14244 6.48564V6.08564C3.79529 6.08564 3.51387 6.36707 3.51387 6.71422H3.91387ZM4.14244 6.94279C4.0162 6.94279 3.91387 6.84046 3.91387 6.71422H3.51387C3.51387 7.06137 3.79529 7.34279 4.14244 7.34279V6.94279ZM11.8567 6.94279H4.14244V7.34279H11.8567V6.94279ZM12.0853 6.71422C12.0853 6.84044 11.983 6.94279 11.8567 6.94279V7.34279C12.2038 7.34279 12.4853 7.06139 12.4853 6.71422H12.0853ZM11.8567 6.48564C11.983 6.48564 12.0853 6.58799 12.0853 6.71422H12.4853C12.4853 6.36706 12.2038 6.08564 11.8567 6.08564V6.48564ZM4.14244 6.48564H11.8567V6.08564H4.14244V6.48564ZM10.9999 7.79994C10.6527 7.79994 10.3713 8.08135 10.3713 8.42851H10.7713C10.7713 8.30229 10.8736 8.19994 10.9999 8.19994V7.79994ZM11.857 7.79994H10.9999V8.19994H11.857V7.79994ZM12.4856 8.42851C12.4856 8.08135 12.2041 7.79994 11.857 7.79994V8.19994C11.9832 8.19994 12.0856 8.30229 12.0856 8.42851H12.4856ZM11.857 9.05708C12.2041 9.05708 12.4856 8.77567 12.4856 8.42851H12.0856C12.0856 8.55473 11.9832 8.65708 11.857 8.65708V9.05708ZM10.9999 9.05708H11.857V8.65708H10.9999V9.05708ZM10.3713 8.42851C10.3713 8.77567 10.6527 9.05708 10.9999 9.05708V8.65708C10.8736 8.65708 10.7713 8.55473 10.7713 8.42851H10.3713ZM3.91387 10.1428C3.91387 10.0166 4.0162 9.91423 4.14244 9.91423V9.51423C3.79529 9.51423 3.51387 9.79566 3.51387 10.1428H3.91387ZM4.14244 10.3713C4.01619 10.3713 3.91387 10.2689 3.91387 10.1428H3.51387C3.51387 10.4899 3.79531 10.7713 4.14244 10.7713V10.3713ZM11.8567 10.3713H4.14244V10.7713H11.8567V10.3713ZM12.0853 10.1428C12.0853 10.2689 11.983 10.3713 11.8567 10.3713V10.7713C12.2038 10.7713 12.4853 10.4899 12.4853 10.1428H12.0853ZM11.8567 9.91423C11.983 9.91423 12.0853 10.0166 12.0853 10.1428H12.4853C12.4853 9.79564 12.2038 9.51423 11.8567 9.51423V9.91423ZM4.14244 9.91423H11.8567V9.51423H4.14244V9.91423ZM10.9999 11.2285C10.6528 11.2285 10.3713 11.5099 10.3713 11.857H10.7713C10.7713 11.7309 10.8736 11.6285 10.9999 11.6285V11.2285ZM11.857 11.2285H10.9999V11.6285H11.857V11.2285ZM12.4856 11.857C12.4856 11.5099 12.2041 11.2285 11.857 11.2285V11.6285C11.9833 11.6285 12.0856 11.7309 12.0856 11.857H12.4856ZM11.857 12.4856C12.2041 12.4856 12.4856 12.2042 12.4856 11.857H12.0856C12.0856 11.9833 11.9832 12.0856 11.857 12.0856V12.4856ZM10.9999 12.4856H11.857V12.0856H10.9999V12.4856ZM10.3713 11.857C10.3713 12.2042 10.6527 12.4856 10.9999 12.4856V12.0856C10.8736 12.0856 10.7713 11.9833 10.7713 11.857H10.3713Z" fill="url(#paint3_linear_668_24)"/>
<defs>
<linearGradient id="paint0_linear_668_24" x1="7.99999" y1="97.9991" x2="7.99999" y2="-46" gradientUnits="userSpaceOnUse">
<stop stop-color="#FDA700"/>
<stop offset="1" stop-color="#FFDE00"/>
</linearGradient>
<linearGradient id="paint1_linear_668_24" x1="8" y1="14" x2="8" y2="2" gradientUnits="userSpaceOnUse">
<stop stop-color="#FDA700"/>
<stop offset="1" stop-color="#FFDE00"/>
</linearGradient>
<linearGradient id="paint2_linear_668_24" x1="7.99973" y1="12.2856" x2="7.99973" y2="3.71423" gradientUnits="userSpaceOnUse">
<stop stop-color="#FDA700"/>
<stop offset="1" stop-color="#FFDE00"/>
</linearGradient>
<linearGradient id="paint3_linear_668_24" x1="7.99973" y1="12.2856" x2="7.99973" y2="3.71423" gradientUnits="userSpaceOnUse">
<stop stop-color="#FDA700"/>
<stop offset="1" stop-color="#FFDE00"/>
</linearGradient>
</defs>
</svg>
