<svg width="64" height="64" viewBox="0 0 64 64" fill="none" xmlns="http://www.w3.org/2000/svg">
<path d="M36.7143 48.25H39.2857C39.6267 48.25 39.9537 48.1216 40.1949 47.893C40.436 47.6645 40.5714 47.3545 40.5714 47.0312V25.0938C40.5714 24.7705 40.436 24.4605 40.1949 24.232C39.9537 24.0034 39.6267 23.875 39.2857 23.875H36.7143C36.3733 23.875 36.0463 24.0034 35.8051 24.232C35.564 24.4605 35.4286 24.7705 35.4286 25.0938V47.0312C35.4286 47.3545 35.564 47.6645 35.8051 47.893C36.0463 48.1216 36.3733 48.25 36.7143 48.25ZM54.2857 14.125H45.4561L41.8132 8.36641C41.356 7.64431 40.7093 7.0468 39.9361 6.63208C39.1629 6.21737 38.2895 5.9996 37.4011 6H26.5989C25.7109 5.99995 24.8379 6.21788 24.0651 6.63258C23.2923 7.04728 22.6459 7.64461 22.1889 8.36641L18.5439 14.125H9.71429C9.25963 14.125 8.82359 14.2962 8.5021 14.601C8.18061 14.9057 8 15.319 8 15.75V17.375C8 17.806 8.18061 18.2193 8.5021 18.524C8.82359 18.8288 9.25963 19 9.71429 19H11.4286V53.125C11.4286 54.4179 11.9704 55.6579 12.9349 56.5721C13.8994 57.4864 15.2075 58 16.5714 58H47.4286C48.7925 58 50.1006 57.4864 51.0651 56.5721C52.0296 55.6579 52.5714 54.4179 52.5714 53.125V19H54.2857C54.7404 19 55.1764 18.8288 55.4979 18.524C55.8194 18.2193 56 17.806 56 17.375V15.75C56 15.319 55.8194 14.9057 55.4979 14.601C55.1764 14.2962 54.7404 14.125 54.2857 14.125ZM26.4114 11.1705C26.4687 11.0801 26.5498 11.0054 26.6467 10.9536C26.7436 10.9018 26.853 10.8747 26.9643 10.875H37.0357C37.1468 10.8749 37.256 10.902 37.3527 10.9538C37.4494 11.0056 37.5303 11.0803 37.5875 11.1705L39.4582 14.125H24.5418L26.4114 11.1705ZM47.4286 53.125H16.5714V19H47.4286V53.125ZM24.7143 48.25H27.2857C27.6267 48.25 27.9537 48.1216 28.1949 47.893C28.436 47.6645 28.5714 47.3545 28.5714 47.0312V25.0938C28.5714 24.7705 28.436 24.4605 28.1949 24.232C27.9537 24.0034 27.6267 23.875 27.2857 23.875H24.7143C24.3733 23.875 24.0463 24.0034 23.8051 24.232C23.564 24.4605 23.4286 24.7705 23.4286 25.0938V47.0312C23.4286 47.3545 23.564 47.6645 23.8051 47.893C24.0463 48.1216 24.3733 48.25 24.7143 48.25Z" fill="url(#paint0_linear)"/>
<defs>
<linearGradient id="paint0_linear" x1="32" y1="58" x2="32" y2="6" gradientUnits="userSpaceOnUse">
<stop stop-color="#00B59C"/>
<stop offset="1" stop-color="#9CFFAC"/>
</linearGradient>
</defs>
</svg>
