<svg width="32" height="32" viewBox="0 0 32 32" fill="none" xmlns="http://www.w3.org/2000/svg">
<path d="M16.7032 2.28898C16.3136 1.90367 15.6864 1.90367 15.2968 2.28898L14.3549 3.22054C14.3523 3.22306 14.3523 3.22714 14.3548 3.22966C14.3573 3.23216 14.3573 3.23623 14.3548 3.23873L2.00322 15.5858C2.00116 15.5879 2 15.5907 2 15.5936V16.9269C2 17.4792 2.44772 17.9269 3 17.9269H3.35156C3.90384 17.9269 4.35156 18.3746 4.35156 18.9269V27.2512C4.35156 27.2562 4.34748 27.2602 4.34244 27.2602C4.33742 27.2602 4.33334 27.2644 4.33334 27.2694V28.5936C4.33334 29.1458 4.78104 29.5936 5.33334 29.5936H26.6666C27.219 29.5936 27.6666 29.1458 27.6666 28.5936V27.2602V18.9269C27.6666 18.3746 28.1144 17.9269 28.6666 17.9269H29C29.5522 17.9269 30 17.4792 30 16.9269V15.5936C30 15.5907 29.9988 15.5879 29.9968 15.5858L28.041 13.6301C27.6506 13.2396 27.0174 13.2396 26.6268 13.6301L26.001 14.2561C25.8336 14.4234 25.8336 14.6947 26.001 14.8621L26.0328 14.894C26.291 15.1522 26.1082 15.5936 25.7432 15.5936C25.5168 15.5936 25.3334 15.777 25.3334 16.0034V26.2602C25.3334 26.8126 24.8856 27.2602 24.3334 27.2602H19.3333C18.781 27.2602 18.3333 26.8126 18.3333 26.2602V21.2602C18.3333 20.708 17.8856 20.2602 17.3333 20.2602H14.6667C14.1144 20.2602 13.6667 20.708 13.6667 21.2602V26.2602C13.6667 26.8126 13.219 27.2602 12.6667 27.2602H7.66666C7.11438 27.2602 6.66666 26.8126 6.66666 26.2602V17.9269V16.0033C6.66666 15.777 6.48324 15.5936 6.25698 15.5936C5.89192 15.5936 5.70916 15.1522 5.96734 14.8941L15.9932 4.87255H15.9977H16.0023L16.0068 4.87254L18.6607 7.52283C19.0513 7.91291 19.6841 7.9127 20.0744 7.52236L20.2964 7.30052C20.687 6.9098 20.6868 6.27626 20.2958 5.88582L17.6452 3.23873C17.6427 3.23623 17.6427 3.23216 17.6452 3.22966C17.6477 3.22714 17.6477 3.22306 17.6451 3.22054L16.7032 2.28898ZM24 3.92692C23.4478 3.92692 23 4.37462 23 4.92692V9.92691C23 10.4792 23.4478 10.9269 24 10.9269H24.3516C24.9038 10.9269 25.3516 10.4792 25.3516 9.92691V4.92692C25.3516 4.37462 24.9038 3.92692 24.3516 3.92692H24Z" fill="url(#paint0_linear_668_2)" stroke="url(#paint1_linear_668_2)"/>
<defs>
<linearGradient id="paint0_linear_668_2" x1="2" y1="2.76649" x2="30.8477" y2="22.3226" gradientUnits="userSpaceOnUse">
<stop stop-color="#37CE90"/>
<stop offset="1" stop-color="#9FF66A"/>
</linearGradient>
<linearGradient id="paint1_linear_668_2" x1="2" y1="2.76649" x2="30.8477" y2="22.3226" gradientUnits="userSpaceOnUse">
<stop stop-color="#37CE90"/>
<stop offset="1" stop-color="#9FF66A"/>
</linearGradient>
</defs>
</svg>
